<svg xmlns="http://www.w3.org/2000/svg" viewBox="0 0 640 237">
  <path d="M 521 0 Q 572 1 605 35 L 605 35 L 605 35 Q 639 68 640 119 Q 639 169 605 202 Q 572 236 521 237 Q 489 237 463 222 Q 437 207 421 181 Q 438 154 439 119 Q 438 84 421 56 L 421 56 L 421 56 L 421 55 L 421 55 Q 437 30 463 15 Q 488 1 519 0 L 521 0 L 521 0 Z M 320 0 Q 352 0 378 15 L 378 15 L 378 15 Q 405 30 421 56 Q 403 84 403 119 Q 403 154 421 181 L 421 181 L 421 181 L 420 183 L 420 183 Q 404 207 379 222 Q 353 236 322 237 L 320 237 L 320 237 Q 288 237 262 222 Q 235 207 219 181 Q 237 154 237 119 Q 237 84 219 56 L 219 56 L 219 56 L 220 55 L 220 55 Q 236 30 261 15 Q 287 1 318 0 L 320 0 L 320 0 Z M 119 0 Q 151 0 177 15 L 177 15 L 177 15 Q 203 30 219 56 Q 202 84 201 119 Q 202 154 219 181 L 219 181 L 219 181 L 219 183 L 219 183 Q 203 207 177 222 Q 152 236 121 237 L 119 237 L 119 237 Q 68 236 35 202 Q 1 169 0 119 Q 1 68 35 35 Q 68 1 119 0 L 119 0 Z" />
</svg>