<svg xmlns="http://www.w3.org/2000/svg" viewBox="0 0 448 448">
  <path d="M 121 304 Q 116 303 111 303 L 111 303 L 111 303 Q 106 303 101 302 Q 95 308 94 316 Q 95 325 111 328 Q 127 331 143 328 Q 158 324 160 314 Q 160 308 152 307 Q 144 305 121 304 Q 121 304 121 304 L 121 304 Z M 129 186 Q 104 188 104 208 L 104 208 L 104 208 Q 103 227 128 230 Q 152 227 152 208 Q 152 188 129 186 L 129 186 Z M 384 0 L 64 0 L 384 0 L 64 0 Q 37 1 19 19 Q 1 37 0 64 L 0 384 L 0 384 Q 1 411 19 429 Q 37 447 64 448 L 384 448 L 384 448 Q 411 447 429 429 Q 447 411 448 384 L 448 64 L 448 64 Q 447 37 429 19 Q 411 1 384 0 L 384 0 Z M 244 140 Q 222 140 221 117 Q 222 95 244 95 Q 266 95 267 117 Q 266 140 244 140 L 244 140 Z M 150 163 L 199 163 L 150 163 L 199 163 L 199 185 L 199 185 L 176 186 L 176 186 Q 184 195 185 212 Q 184 236 170 246 Q 155 256 138 256 Q 120 257 111 255 L 103 268 L 103 268 Q 103 268 104 268 Q 111 268 117 269 Q 159 270 178 276 Q 198 283 197 307 Q 196 352 127 353 Q 61 352 64 321 Q 64 306 78 295 Q 66 289 67 279 Q 67 267 89 248 Q 89 248 90 248 L 90 248 L 90 248 Q 70 238 68 210 Q 71 172 100 164 Q 128 157 150 163 L 150 163 Z M 271 271 L 284 273 L 271 271 L 284 273 L 284 293 L 284 293 L 211 293 L 211 293 L 211 273 L 211 273 Q 215 272 218 272 Q 230 272 228 266 L 228 191 L 228 191 Q 230 186 218 184 Q 218 184 218 184 Q 217 183 215 183 Q 213 182 211 181 L 214 161 L 214 161 L 267 161 L 267 161 L 267 266 L 267 266 Q 266 271 271 271 L 271 271 Z M 377 261 L 384 283 L 377 261 L 384 283 Q 366 292 343 293 Q 299 294 301 252 L 301 186 L 301 186 Q 301 185 301 184 Q 301 183 291 183 Q 287 183 281 183 L 281 161 L 281 161 Q 313 159 315 119 L 339 119 L 339 119 Q 339 134 339 142 Q 339 159 340 158 Q 340 158 341 158 Q 341 158 341 158 L 377 158 L 377 158 L 377 183 L 377 183 L 339 183 L 339 183 L 339 244 L 339 244 Q 339 244 339 244 Q 339 245 339 245 Q 338 251 344 261 Q 349 270 377 261 L 377 261 Z" />
</svg>