<svg xmlns="http://www.w3.org/2000/svg" viewBox="0 0 512 512">
  <path d="M 256 0 Q 184.7742 1.032258 126.96774 35.096775 L 126.96774 35.096775 Q 69.16129 69.16129 35.096775 126.96774 L 35.096775 126.96774 Q 1.032258 184.7742 0 256 Q 1.032258 327.2258 35.096775 385.03226 Q 69.16129 442.8387 126.96774 476.90323 Q 184.7742 510.96774 256 512 Q 327.2258 510.96774 385.03226 476.90323 Q 442.8387 442.8387 476.90323 385.03226 Q 510.96774 327.2258 512 256 Q 510.96774 184.7742 476.90323 126.96774 Q 442.8387 69.16129 385.03226 35.096775 Q 327.2258 1.032258 256 0 L 256 0 Z M 310.7097 96 Q 317.9355 83.6129 330.32257 80.51613 L 330.32257 80.51613 Q 342.7097 77.41936 355.09677 83.6129 Q 367.48386 90.83871 370.58066 104.258064 Q 373.67743 116.645164 367.48386 129.03226 Q 360.25806 140.3871 347.87097 144.51613 Q 334.4516 147.6129 322.0645 141.41936 Q 310.7097 133.16129 307.6129 120.77419 Q 303.48386 108.3871 310.7097 96 L 310.7097 96 Z M 89.80645 289.03226 Q 76.3871 289.03226 67.09677 279.74194 L 67.09677 279.74194 Q 57.80645 270.4516 57.80645 256 Q 57.80645 241.54839 67.09677 232.25807 Q 76.3871 222.96774 89.80645 222.96774 Q 104.258064 222.96774 113.548386 232.25807 Q 122.83871 241.54839 122.83871 256 Q 122.83871 270.4516 113.548386 279.74194 Q 104.258064 289.03226 89.80645 289.03226 L 89.80645 289.03226 Z M 119.741936 292.12903 Q 136.25807 277.67743 136.25807 256 L 136.25807 256 Q 136.25807 235.35484 119.741936 219.87097 Q 134.19354 168.25807 177.54839 138.32259 L 202.32259 179.6129 Q 162.06451 209.54839 162.06451 256 Q 162.06451 302.4516 202.32259 332.3871 L 177.54839 373.67743 Q 134.19354 343.74194 119.741936 292.12903 L 119.741936 292.12903 Z M 355.09677 428.3871 Q 342.7097 434.58066 330.32257 431.48386 L 330.32257 431.48386 Q 317.9355 428.3871 310.7097 416 Q 303.48386 403.6129 307.6129 391.2258 Q 310.7097 377.80646 322.0645 370.58066 Q 334.4516 364.3871 347.87097 367.48386 Q 360.25806 371.6129 367.48386 382.96774 Q 373.67743 395.35483 370.58066 407.74194 Q 367.48386 421.1613 355.09677 428.3871 L 355.09677 428.3871 Z M 356.12903 356.12903 Q 334.4516 348.90323 315.87097 359.2258 L 315.87097 359.2258 Q 297.2903 369.5484 293.1613 392.25806 Q 293.1613 392.25806 293.1613 392.25806 Q 285.9355 395.35483 258.0645 397.41934 Q 230.19354 399.48386 193.03226 382.96774 L 216.7742 341.67743 Q 263.2258 360.25806 303.48386 337.5484 Q 342.7097 313.80646 349.9355 264.25806 L 397.41934 265.2903 Q 392.25806 320 356.12903 356.12903 L 356.12903 356.12903 Z M 349.9355 247.74193 Q 342.7097 198.19354 303.48386 174.45161 L 303.48386 174.45161 Q 263.2258 151.74193 216.7742 171.35484 L 193.03226 129.03226 Q 230.19354 112.51613 258.0645 114.58064 Q 285.9355 116.645164 292.12903 119.741936 Q 293.1613 119.741936 293.1613 119.741936 Q 297.2903 142.45161 315.87097 152.7742 Q 334.4516 163.09677 355.09677 155.87097 Q 392.25806 192 397.41934 246.70967 L 349.9355 247.74193 L 349.9355 247.74193 Z" />
</svg>