<svg xmlns="http://www.w3.org/2000/svg" viewBox="0 0 448 448">
  <path d="M 0 64 L 0 384 L 0 64 L 0 384 Q 1 411 19 429 Q 37 447 64 448 L 384 448 L 384 448 Q 411 447 429 429 Q 447 411 448 384 L 448 64 L 448 64 Q 447 37 429 19 Q 411 1 384 0 L 64 0 L 64 0 Q 37 1 19 19 Q 1 37 0 64 L 0 64 Z M 338 77 L 382 193 L 338 77 L 382 193 L 383 194 L 383 194 Q 392 220 385 247 Q 377 273 355 290 L 355 290 L 355 290 L 286 341 L 286 341 L 232 382 L 232 382 Q 232 382 231 383 Q 231 383 231 383 Q 227 385 224 385 Q 219 384 216 382 L 161 341 L 161 341 L 94 290 L 94 290 L 93 290 L 93 290 L 93 290 L 93 290 Q 71 273 63 247 Q 56 220 65 194 L 66 193 L 66 193 L 111 77 L 111 77 Q 112 73 115 71 Q 118 69 120 69 Q 122 68 124 69 Q 124 69 124 69 Q 125 70 126 70 Q 127 70 128 71 Q 128 71 128 71 Q 128 72 129 72 Q 129 72 130 73 Q 132 75 133 78 L 162 170 L 162 170 L 285 170 L 285 170 L 315 78 L 315 78 Q 316 75 318 73 Q 320 71 322 70 Q 325 69 328 69 Q 330 69 333 71 Q 336 73 338 77 L 338 77 Z" />
</svg>