<svg xmlns="http://www.w3.org/2000/svg" viewBox="0 0 448 448">
  <path d="M 64 0 Q 37 1 19 19 L 19 19 L 19 19 Q 1 37 0 64 L 0 384 L 0 384 Q 1 411 19 429 Q 37 447 64 448 L 384 448 L 384 448 Q 411 447 429 429 Q 447 411 448 384 L 448 64 L 448 64 Q 447 37 429 19 Q 411 1 384 0 L 64 0 L 64 0 Z M 294 212 Q 324 227 335 253 Q 344 272 341 298 Q 338 324 315 349 Q 281 384 220 384 L 220 384 L 220 384 Q 149 383 113 337 Q 81 296 80 224 L 80 224 L 80 224 L 80 224 L 80 224 Q 81 152 113 111 Q 150 64 220 64 L 220 64 L 220 64 Q 291 64 328 110 Q 347 133 355 165 L 328 172 L 328 172 Q 321 146 307 128 Q 278 93 220 92 Q 163 93 135 128 Q 108 162 108 224 Q 108 286 135 319 Q 163 355 220 356 Q 269 356 296 328 Q 311 312 314 294 Q 316 277 310 264 Q 304 250 289 241 Q 285 268 272 284 Q 255 306 224 308 Q 200 309 181 297 Q 160 282 158 257 Q 157 233 175 217 Q 192 202 222 200 Q 243 199 261 202 Q 259 187 252 178 Q 241 167 221 166 L 220 166 L 220 166 Q 201 164 185 184 L 162 168 L 162 168 Q 182 139 220 138 L 221 138 L 221 138 Q 285 140 290 210 Q 292 211 294 212 L 294 212 L 294 212 Z M 222 280 Q 236 280 247 271 L 247 271 L 247 271 Q 259 261 262 231 Q 249 228 233 228 Q 228 228 224 228 Q 202 230 194 238 Q 185 247 186 256 Q 187 269 198 275 Q 209 281 223 280 L 222 280 L 222 280 Z" />
</svg>