<svg xmlns="http://www.w3.org/2000/svg" viewBox="0 0 432 512">
  <path d="M 290 0 Q 295 0 298 4 L 336 48 L 336 48 Q 337 47 337 47 Q 351 45 365 46 Q 383 48 394 59 Q 406 71 417 83 Q 418 84 420 86 Q 422 88 424 90 Q 425 91 425 92 Q 430 98 428 104 L 418 129 L 418 129 L 431 167 L 431 167 Q 432 170 432 173 Q 432 173 431 175 Q 431 177 430 181 Q 429 185 427 189 Q 426 195 424 202 Q 416 234 408 265 Q 405 275 403 284 Q 387 344 384 356 Q 377 388 367 405 Q 357 422 336 436 Q 315 451 287 470 Q 259 490 249 496 Q 248 497 246 499 Q 245 499 243 500 Q 242 501 242 501 Q 235 506 230 509 Q 223 512 216 512 Q 209 512 202 509 Q 197 506 190 501 Q 189 501 188 500 Q 187 499 186 499 Q 185 497 183 497 Q 183 496 183 496 Q 173 490 145 471 Q 117 451 96 436 Q 75 422 65 405 Q 55 388 48 356 Q 45 344 29 283 Q 27 274 24 265 Q 16 234 8 202 Q 8 202 8 202 Q 5 190 2 181 Q 1 177 1 175 Q 0 173 0 173 Q 0 170 1 167 L 14 129 L 14 129 L 4 104 L 4 104 Q 2 98 6 93 Q 6 92 7 92 Q 8 91 8 90 Q 10 88 12 86 Q 14 84 15 83 Q 26 71 38 59 Q 49 48 67 46 Q 81 45 95 47 Q 95 47 95 48 Q 96 48 96 48 L 134 4 L 134 4 Q 137 0 142 0 L 290 0 L 290 0 Z M 285 21 L 147 21 L 285 21 L 147 21 L 108 66 L 108 66 Q 103 71 97 69 Q 97 69 96 69 Q 96 69 96 69 Q 93 69 91 68 Q 91 68 91 68 Q 80 66 69 67 Q 58 68 53 74 Q 41 86 30 97 Q 28 100 26 102 L 34 124 L 34 124 Q 36 128 35 132 L 21 171 L 21 171 Q 22 172 22 174 Q 22 174 22 175 Q 23 179 25 184 Q 26 190 28 196 Q 36 229 44 260 Q 48 276 52 289 Q 65 340 68 351 Q 75 380 83 394 Q 91 407 108 419 Q 128 434 156 453 Q 184 472 194 478 Q 194 479 195 479 Q 196 480 198 481 Q 200 482 202 484 Q 207 488 211 489 Q 214 491 216 491 Q 218 491 221 489 Q 224 488 230 484 Q 232 482 234 481 Q 236 479 238 478 Q 238 478 238 478 Q 247 472 275 453 Q 303 434 324 419 Q 341 407 349 393 Q 357 380 364 351 Q 368 336 387 260 Q 395 229 404 196 Q 407 185 409 175 Q 410 173 410 172 Q 410 171 411 171 L 397 132 L 397 132 Q 396 128 397 124 L 406 102 L 406 102 Q 404 100 401 97 Q 391 86 379 74 Q 374 68 363 67 Q 352 66 341 68 Q 338 68 336 69 Q 336 69 336 69 Q 335 69 335 69 Q 329 71 324 66 L 285 21 L 285 21 Z M 216 316 Q 219 316 229 320 L 229 320 L 229 320 Q 240 324 251 330 Q 255 332 258 334 Q 275 342 280 345 Q 284 350 278 354 Q 273 357 254 372 Q 235 387 230 392 Q 229 393 228 393 Q 222 400 216 401 Q 210 400 204 393 Q 203 393 202 392 Q 197 387 178 372 Q 159 357 154 354 Q 149 349 152 345 Q 156 343 167 337 Q 173 334 181 330 Q 192 324 203 320 Q 213 316 216 316 L 216 316 Z M 216 85 Q 218 84 237 90 Q 240 91 244 92 Q 260 98 269 99 Q 276 98 297 94 Q 318 91 320 90 Q 320 90 320 90 Q 321 91 334 108 Q 348 125 361 144 Q 374 163 375 171 Q 374 187 364 193 Q 363 195 361 196 Q 356 202 344 215 Q 336 223 329 231 Q 322 238 320 240 Q 320 241 319 242 Q 310 247 313 262 Q 313 263 314 264 Q 318 272 320 282 Q 322 292 317 302 Q 303 326 288 325 Q 281 324 269 318 Q 258 312 252 308 Q 245 304 234 293 Q 223 283 221 276 Q 222 272 231 265 Q 239 259 246 255 Q 249 253 250 252 Q 251 251 254 250 Q 261 246 267 241 Q 274 236 275 233 Q 275 230 274 227 Q 274 224 269 216 Q 267 212 265 208 Q 254 192 254 179 Q 256 172 264 168 Q 272 164 281 160 Q 284 160 286 159 Q 293 156 302 152 Q 320 146 325 144 Q 331 141 318 140 Q 317 140 314 140 Q 305 138 293 138 Q 280 137 272 139 Q 270 140 267 140 Q 258 143 249 145 Q 241 148 239 150 Q 239 150 239 151 Q 236 152 238 162 Q 239 166 241 177 Q 243 190 246 204 Q 248 217 249 222 Q 249 223 249 225 Q 252 234 243 237 Q 242 237 241 237 Q 226 241 216 242 Q 207 241 191 237 Q 190 237 189 237 Q 180 234 183 225 Q 183 223 184 222 Q 184 217 187 204 Q 189 190 192 177 Q 194 166 194 162 Q 196 152 194 151 Q 193 150 193 150 Q 192 148 184 146 Q 176 143 167 141 Q 163 140 160 139 Q 152 137 140 138 Q 127 138 118 140 Q 116 140 114 140 Q 102 141 107 144 Q 110 145 122 149 Q 134 154 144 158 Q 145 158 147 159 Q 149 159 151 160 Q 160 163 168 168 Q 176 172 178 179 Q 178 192 168 208 Q 165 212 163 216 Q 159 224 158 227 Q 157 230 157 233 Q 158 236 166 241 Q 173 247 179 250 Q 181 252 183 252 Q 184 253 186 254 Q 193 258 201 265 Q 210 271 211 276 Q 210 283 198 293 Q 187 304 180 308 Q 174 312 163 318 Q 152 324 145 325 Q 129 326 115 302 Q 110 292 112 282 Q 115 272 119 264 Q 119 263 119 262 Q 123 247 113 242 Q 113 241 112 240 Q 111 239 108 235 Q 100 227 88 214 Q 77 202 71 196 Q 70 195 68 193 Q 59 187 58 171 Q 59 163 72 144 Q 85 125 98 108 Q 111 91 112 90 Q 112 90 112 90 Q 115 91 136 94 Q 157 98 164 99 Q 172 98 188 92 Q 192 91 196 89 Q 215 84 216 85 Q 216 85 216 85 L 217 85 L 216 85 Z" />
</svg>