<svg xmlns="http://www.w3.org/2000/svg" viewBox="0 0 436 512">
  <path d="M 140 0 L 218 0 L 140 0 L 297 0 L 341 51 L 341 51 Q 343 50 363 48 Q 383 46 399 58 Q 413 73 423 83 Q 432 93 433 93 Q 433 93 433 93 L 421 123 L 421 123 L 436 167 L 436 167 Q 435 169 424 211 Q 413 253 401 299 Q 389 344 386 358 Q 379 387 370 404 Q 360 420 339 435 Q 315 452 286 472 Q 256 492 247 497 Q 245 499 242 501 Q 241 501 241 501 Q 230 510 218 512 L 218 512 L 218 512 L 218 512 L 218 512 Q 206 510 195 501 Q 192 499 189 497 Q 180 492 151 472 Q 121 452 97 435 Q 76 420 66 404 Q 57 387 50 358 Q 47 344 35 299 Q 23 253 12 211 Q 1 169 0 167 L 15 123 L 15 123 L 3 93 L 3 93 Q 4 93 13 83 Q 23 73 37 58 Q 53 46 73 48 Q 93 50 95 51 L 140 0 L 140 0 Z M 218 408 L 218 408 L 218 408 L 218 408 Q 224 406 231 399 Q 231 399 231 399 Q 231 399 232 398 Q 232 398 233 398 Q 238 393 259 377 Q 279 362 284 358 Q 290 353 286 349 Q 281 347 265 338 Q 263 337 261 336 Q 258 335 256 333 Q 243 327 232 323 Q 221 319 218 319 L 218 319 L 218 319 L 218 319 L 218 319 Q 215 319 204 323 Q 193 327 181 333 Q 179 334 177 335 Q 174 337 171 338 Q 155 347 151 349 Q 146 353 153 358 Q 157 362 178 377 Q 198 393 204 398 Q 204 398 204 398 Q 205 399 205 399 Q 205 399 205 399 Q 212 406 218 408 L 218 408 L 218 408 Z M 218 242 L 218 242 L 218 242 L 218 242 Q 227 241 243 237 Q 244 237 244 237 L 244 237 L 244 237 L 246 236 L 246 236 Q 256 234 253 223 Q 253 223 253 223 Q 253 222 253 221 Q 252 216 249 201 Q 246 186 244 172 Q 244 172 243 171 Q 243 170 243 169 Q 242 161 241 158 Q 239 148 242 147 Q 242 147 242 147 Q 242 146 242 146 Q 242 146 242 145 Q 244 144 251 141 Q 259 139 268 137 Q 269 136 270 136 L 270 136 L 270 136 Q 272 135 274 135 Q 275 134 277 134 Q 285 132 298 133 Q 310 133 320 134 Q 321 135 321 135 Q 322 135 323 135 Q 325 135 326 135 Q 339 137 333 139 Q 331 140 323 143 Q 314 146 305 150 L 305 150 L 305 150 L 305 150 L 305 150 Q 297 153 292 155 Q 290 155 287 156 Q 287 156 287 156 Q 277 160 269 164 Q 260 169 258 176 Q 258 189 270 206 L 270 206 L 270 206 Q 270 207 271 208 Q 273 211 274 214 Q 279 223 280 226 Q 281 229 280 232 Q 279 235 272 241 Q 265 246 258 250 L 258 250 L 258 250 Q 255 252 254 252 Q 254 252 254 253 Q 253 253 253 253 Q 252 254 250 255 Q 243 259 234 266 Q 225 272 224 277 Q 225 284 237 295 Q 249 306 256 311 Q 263 315 275 321 Q 286 327 294 328 Q 310 329 325 305 Q 331 294 328 284 Q 326 273 322 265 L 321 262 L 321 262 Q 318 255 321 249 Q 324 244 327 241 Q 327 241 327 241 L 327 241 L 327 241 Q 328 240 329 240 L 372 194 L 372 194 Q 373 193 374 192 Q 375 191 375 190 L 375 190 L 375 190 Q 375 190 376 190 Q 385 184 386 167 Q 385 159 371 139 Q 357 119 344 102 Q 330 84 329 83 Q 329 83 329 83 Q 326 83 304 88 Q 281 92 274 92 Q 265 91 248 85 Q 248 85 248 85 L 248 85 L 248 85 Q 246 85 245 84 Q 242 83 240 82 Q 219 77 218 78 L 218 78 L 218 78 L 218 78 L 218 78 Q 217 77 196 82 Q 192 84 188 85 L 188 85 L 188 85 Q 188 85 188 85 Q 171 91 162 92 Q 155 92 132 88 Q 110 83 107 83 Q 106 84 92 101 Q 79 119 65 139 Q 51 159 50 167 Q 51 184 61 190 L 61 190 L 61 190 Q 61 191 62 191 Q 63 192 64 194 L 107 240 L 107 240 Q 108 240 108 241 Q 109 241 109 241 L 109 241 L 109 241 Q 118 247 115 263 L 114 265 L 114 265 Q 114 265 114 265 Q 110 274 108 284 Q 106 294 111 305 Q 126 329 142 329 Q 150 327 162 321 Q 173 315 180 311 Q 187 306 199 295 Q 211 284 212 278 Q 212 272 202 266 Q 193 259 186 255 Q 183 253 182 253 Q 182 252 181 252 Q 180 251 178 250 Q 172 246 164 241 Q 157 236 156 232 Q 155 229 156 226 Q 157 223 162 214 Q 164 210 166 206 Q 167 206 167 206 Q 178 189 178 176 Q 176 169 167 164 Q 159 160 149 156 Q 149 156 149 156 Q 148 156 147 156 Q 146 155 144 155 Q 139 153 132 150 L 131 150 L 131 150 Q 129 149 126 148 Q 108 141 103 139 Q 97 137 110 135 Q 111 135 113 135 Q 114 135 115 135 Q 124 134 137 133 Q 150 132 159 134 Q 161 135 162 135 Q 164 136 166 136 Q 175 138 184 141 Q 192 144 194 145 Q 194 146 194 146 Q 194 146 194 147 Q 194 147 194 147 Q 197 148 195 158 Q 194 161 193 169 Q 193 170 193 171 Q 192 172 192 172 Q 190 186 187 201 Q 184 216 183 221 Q 183 222 183 222 Q 183 223 183 223 Q 183 224 183 224 Q 180 234 190 236 L 192 237 L 192 237 L 192 237 L 192 237 Q 192 237 193 237 Q 209 241 218 242 L 218 242 L 218 242 Z" />
</svg>