<svg xmlns="http://www.w3.org/2000/svg" viewBox="0 0 512 512">
  <path d="M 256 104 Q 192 105.14286 149.71428 147.42857 L 149.71428 147.42857 Q 107.42857 190.85715 105.14286 254.85715 Q 105.14286 298.2857 128 334.85715 L 131.42857 340.57144 L 116.57143 395.42856 L 173.71428 380.57144 L 179.42857 384 Q 214.85715 404.57144 256 405.7143 L 256 405.7143 Q 320 403.42856 363.42856 361.14285 Q 406.85715 318.85715 408 254.85715 Q 406.85715 192 362.2857 148.57143 Q 317.7143 104 256 104 L 256 104 Z M 345.14285 318.85715 Q 340.57144 326.85715 331.42856 333.7143 L 331.42856 333.7143 Q 321.14285 339.42856 314.2857 340.57144 Q 304 342.85715 292.57144 340.57144 Q 281.14285 338.2857 259.42856 329.14285 Q 227.42857 314.2857 208 291.42856 Q 187.42857 269.7143 182.85715 261.7143 Q 182.85715 261.7143 182.85715 260.57144 Q 179.42857 258.2857 172.57143 244.57143 Q 164.57143 230.85715 163.42857 213.71428 Q 164.57143 198.85715 169.14285 189.71428 Q 174.85715 180.57143 179.42857 177.14285 Q 179.42857 177.14285 179.42857 176 Q 186.28572 170.28572 192 170.28572 Q 196.57143 170.28572 201.14285 170.28572 Q 201.14285 170.28572 201.14285 170.28572 Q 205.71428 169.14285 210.28572 178.28572 Q 212.57143 184 216 192 Q 222.85715 208 225.14285 212.57143 Q 227.42857 216 225.14285 219.42857 Q 219.42857 230.85715 214.85715 234.28572 Q 208 238.85715 211.42857 244.57143 Q 225.14285 266.2857 238.85715 277.7143 Q 253.71428 289.14285 273.14285 298.2857 Q 280 301.7143 283.42856 297.14285 Q 285.7143 294.85715 290.2857 289.14285 Q 294.85715 283.42856 297.14285 280 Q 301.7143 274.2857 307.42856 277.7143 Q 312 278.85715 323.42856 284.57144 Q 333.7143 290.2857 338.2857 292.57144 Q 339.42856 292.57144 340.57144 293.7143 Q 346.2857 294.85715 347.42856 297.14285 Q 349.7143 301.7143 345.14285 318.85715 L 345.14285 318.85715 Z M 457.14285 0 L 54.857143 0 Q 32 1.1428572 16 16 Q 1.1428572 32 0 54.857143 L 0 457.14285 Q 1.1428572 480 16 496 Q 32 510.85715 54.857143 512 L 457.14285 512 Q 480 510.85715 496 496 Q 510.85715 480 512 457.14285 L 512 54.857143 Q 510.85715 32 496 16 Q 480 1.1428572 457.14285 0 L 457.14285 0 Z M 256 435.42856 Q 209.14285 435.42856 169.14285 413.7143 L 73.14286 438.85715 L 99.42857 345.14285 Q 74.28571 302.85715 74.28571 253.71428 Q 76.57143 177.14285 128 125.71429 Q 179.42857 75.42857 256 73.14286 Q 330.2857 74.28571 384 126.85714 Q 436.57144 179.42857 438.85715 254.85715 Q 436.57144 331.42856 385.14285 382.85715 Q 332.57144 433.14285 256 435.42856 L 256 435.42856 Z" />
</svg>