<svg xmlns="http://www.w3.org/2000/svg" viewBox="0 0 448 448">
  <path d="M 64 0 Q 37 1 19 19 L 19 19 L 19 19 Q 1 37 0 64 L 0 384 L 0 384 Q 1 411 19 429 Q 37 447 64 448 L 384 448 L 384 448 Q 411 447 429 429 Q 447 411 448 384 L 448 64 L 448 64 Q 447 37 429 19 Q 411 1 384 0 L 64 0 L 64 0 Z M 321 201 L 298 224 L 321 201 L 298 224 L 321 247 L 321 247 Q 339 266 339 290 Q 339 315 321 334 Q 302 352 277 352 Q 252 352 233 334 L 225 326 L 225 326 Q 207 351 174 352 Q 148 351 130 334 Q 113 317 112 291 L 112 157 L 112 157 Q 113 131 130 114 Q 147 97 174 96 Q 207 97 225 123 L 233 114 L 233 114 Q 252 96 277 96 Q 302 96 321 114 Q 339 133 339 158 Q 339 182 321 201 L 321 201 Z" />
</svg>