<svg xmlns="http://www.w3.org/2000/svg" viewBox="0 0 512 512">
  <path d="M 457.14285 0 L 54.857143 0 Q 32 1.1428572 16 16 Q 1.1428572 32 0 54.857143 L 0 457.14285 Q 1.1428572 480 16 496 Q 32 510.85715 54.857143 512 L 457.14285 512 Q 480 510.85715 496 496 Q 510.85715 480 512 457.14285 L 512 54.857143 Q 510.85715 32 496 16 Q 480 1.1428572 457.14285 0 L 457.14285 0 Z M 352 357.7143 Q 298.2857 356.57144 274.2857 336 L 274.2857 336 Q 250.28572 315.42856 241.14285 284.57144 Q 237.71428 275.42856 235.42857 266.2857 Q 225.14285 229.71428 212.57143 209.14285 Q 198.85715 188.57143 169.14285 187.42857 Q 148.57143 187.42857 133.71428 203.42857 Q 117.71429 219.42857 117.71429 258.2857 Q 117.71429 288 131.42857 305.14285 Q 145.14285 323.42856 166.85715 323.42856 Q 192 322.2857 205.71428 310.85715 Q 220.57143 300.57144 220.57143 299.42856 L 234.28572 336 Q 234.28572 337.14285 217.14285 346.2857 Q 200 356.57144 164.57143 357.7143 Q 75.42857 356.57144 73.14286 259.42856 Q 74.28571 157.71428 168 154.28572 Q 224 155.42857 244.57143 181.71428 Q 265.14285 209.14285 277.7143 256 Q 280 262.85715 282.2857 270.85715 Q 290.2857 293.7143 305.14285 308.57144 Q 321.14285 323.42856 353.14285 323.42856 Q 395.42856 324.57144 396.57144 301.7143 Q 395.42856 286.85715 382.85715 281.14285 Q 370.2857 275.42856 350.85715 272 Q 345.14285 270.85715 339.42856 268.57144 Q 289.14285 257.14285 290.2857 213.71428 Q 291.42856 180.57143 314.2857 166.85715 Q 336 154.28572 365.7143 154.28572 Q 430.85715 153.14285 437.7143 208 L 395.42856 212.57143 Q 393.14285 186.28572 362.2857 187.42857 Q 333.7143 187.42857 332.57144 209.14285 Q 331.42856 228.57143 356.57144 234.28572 Q 360 235.42857 364.57144 235.42857 Q 392 240 414.85715 252.57143 Q 437.7143 265.14285 438.85715 299.42856 Q 437.7143 331.42856 414.85715 344 Q 390.85715 357.7143 352 357.7143 L 352 357.7143 Z" />
</svg>