<svg xmlns="http://www.w3.org/2000/svg" viewBox="0 0 512 512">
  <path d="M 256 195.42857 Q 216 196.57143 200 233.14285 Q 186.28572 269.7143 212.57143 299.42856 Q 242.28572 325.7143 278.85715 312 Q 315.42856 296 316.57144 256 Q 316.57144 230.85715 299.42856 212.57143 Q 281.14285 195.42857 256 195.42857 L 256 195.42857 Z M 398.85715 148.57143 Q 388.57144 123.42857 363.42856 113.14286 Q 347.42856 107.42857 320 106.28571 Q 291.42856 105.14286 268.57144 106.28571 Q 261.7143 106.28571 256 106.28571 Q 250.28572 106.28571 243.42857 106.28571 Q 219.42857 105.14286 192 106.28571 Q 164.57143 107.42857 148.57143 113.14286 Q 123.42857 123.42857 113.14286 148.57143 Q 107.42857 164.57143 106.28571 192 Q 105.14286 220.57143 106.28571 243.42857 Q 106.28571 250.28572 106.28571 256 Q 106.28571 261.7143 106.28571 268.57144 Q 105.14286 291.42856 106.28571 318.85715 Q 107.42857 347.42856 113.14286 363.42856 Q 123.42857 388.57144 148.57143 398.85715 Q 164.57143 404.57144 192 405.7143 Q 220.57143 406.85715 243.42857 405.7143 Q 250.28572 405.7143 256 405.7143 Q 261.7143 405.7143 268.57144 405.7143 Q 292.57144 406.85715 320 405.7143 Q 347.42856 404.57144 363.42856 398.85715 Q 388.57144 388.57144 398.85715 363.42856 Q 404.57144 347.42856 405.7143 320 Q 406.85715 292.57144 405.7143 268.57144 Q 405.7143 261.7143 405.7143 256 Q 405.7143 250.28572 405.7143 243.42857 Q 406.85715 219.42857 405.7143 192 Q 404.57144 164.57143 398.85715 148.57143 L 398.85715 148.57143 Z M 256 349.7143 Q 227.42857 349.7143 203.42857 333.7143 L 203.42857 333.7143 Q 180.57143 318.85715 169.14285 291.42856 Q 158.85715 265.14285 164.57143 237.71428 Q 169.14285 210.28572 189.71428 189.71428 Q 210.28572 169.14285 237.71428 164.57143 Q 265.14285 158.85715 291.42856 169.14285 Q 318.85715 180.57143 333.7143 203.42857 Q 349.7143 227.42857 349.7143 256 Q 349.7143 294.85715 322.2857 322.2857 Q 294.85715 349.7143 256 349.7143 L 256 349.7143 Z M 353.14285 180.57143 Q 339.42856 179.42857 333.7143 166.85715 Q 328 153.14285 338.2857 142.85715 Q 348.57144 133.71428 362.2857 138.28572 Q 374.85715 144 376 158.85715 Q 374.85715 166.85715 369.14285 173.71428 Q 362.2857 180.57143 353.14285 180.57143 L 353.14285 180.57143 Z M 457.14285 0 L 54.857143 0 Q 32 0 16 16 Q 0 32 0 54.857143 L 0 457.14285 Q 0 480 16 496 Q 32 512 54.857143 512 L 457.14285 512 Q 480 512 496 496 Q 512 480 512 457.14285 L 512 54.857143 Q 512 32 496 16 Q 480 0 457.14285 0 L 457.14285 0 Z M 437.7143 331.42856 Q 437.7143 376 408 408 Q 376 437.7143 331.42856 437.7143 Q 315.42856 438.85715 285.7143 438.85715 Q 256 438.85715 226.28572 438.85715 Q 196.57143 438.85715 180.57143 437.7143 Q 136 437.7143 104 408 Q 74.28571 376 74.28571 331.42856 Q 73.14286 315.42856 73.14286 285.7143 Q 73.14286 256 73.14286 226.28572 Q 73.14286 196.57143 74.28571 180.57143 Q 74.28571 136 104 104 Q 136 74.28571 180.57143 74.28571 Q 196.57143 73.14286 226.28572 73.14286 Q 256 73.14286 285.7143 73.14286 Q 315.42856 73.14286 331.42856 74.28571 Q 376 74.28571 408 104 Q 437.7143 136 437.7143 180.57143 Q 438.85715 196.57143 438.85715 226.28572 Q 438.85715 256 438.85715 285.7143 Q 438.85715 315.42856 437.7143 331.42856 L 437.7143 331.42856 Z" />
</svg>