<svg xmlns="http://www.w3.org/2000/svg" viewBox="0 0 448 448">
  <path d="M 448 64 Q 447 37 429 19 L 429 19 L 429 19 Q 411 1 384 0 L 64 0 L 64 0 Q 37 1 19 19 Q 1 37 0 64 L 0 384 L 0 384 Q 1 411 19 429 Q 37 447 64 448 L 384 448 L 384 448 Q 411 447 429 429 Q 447 411 448 384 L 448 64 L 448 64 Z M 257 384 Q 202 382 183 352 L 183 352 L 183 352 Q 164 323 165 296 L 165 206 L 165 206 L 135 206 L 135 206 Q 130 206 129 200 L 129 157 L 129 157 Q 129 150 136 147 Q 165 136 176 115 Q 188 94 189 74 Q 190 64 199 64 L 243 64 L 243 64 Q 249 65 249 70 L 249 142 L 249 142 L 301 142 L 301 142 Q 307 143 307 148 L 307 200 L 307 200 Q 307 205 301 206 L 249 206 L 249 206 L 249 289 L 249 289 Q 249 305 260 312 Q 271 319 292 311 Q 296 309 300 310 Q 303 311 304 315 L 318 355 L 318 355 Q 320 360 318 364 Q 311 371 295 378 Q 279 384 257 384 L 257 384 Z" />
</svg>