<svg xmlns="http://www.w3.org/2000/svg" viewBox="0 0 448 448">
  <path d="M 448 64 Q 447 37 429 19 L 429 19 L 429 19 Q 411 1 384 0 L 64 0 L 64 0 Q 37 1 19 19 Q 1 37 0 64 L 0 384 L 0 384 Q 1 411 19 429 Q 37 447 64 448 L 384 448 L 384 448 Q 411 447 429 429 Q 447 411 448 384 L 448 64 L 448 64 Z M 118 349 Q 85 311 87 266 L 87 266 L 87 266 Q 88 220 118 188 L 118 188 L 118 188 Q 148 155 200 153 Q 220 153 239 160 Q 232 173 230 187 Q 215 181 200 181 Q 162 182 139 208 Q 116 233 115 270 Q 115 303 134 326 Q 153 350 184 356 Q 215 343 231 312 Q 246 282 252 246 Q 258 210 257 181 L 257 181 L 257 181 Q 257 170 257 159 Q 239 109 213 64 Q 233 79 244 106 Q 255 133 257 158 L 257 159 L 257 159 Q 268 193 269 229 Q 269 311 200 357 L 198 357 L 198 357 Q 236 357 260 332 Q 283 307 284 270 Q 284 251 277 234 Q 292 231 304 224 Q 315 252 311 286 Q 307 320 281 349 Q 247 384 200 384 Q 152 384 118 349 L 118 349 Z M 275 186 Q 292 177 309 163 L 309 163 L 309 163 Q 327 149 337 133 Q 340 127 341 121 Q 331 142 311 157 Q 290 172 268 177 Q 260 166 260 153 Q 261 135 273 121 Q 285 111 300 108 Q 300 107 301 107 Q 301 107 301 107 Q 313 104 325 97 Q 336 90 345 71 Q 361 96 361 126 Q 361 156 348 178 Q 334 201 309 202 Q 289 200 275 186 L 275 186 Z" />
</svg>