<svg xmlns="http://www.w3.org/2000/svg" viewBox="0 0 413 508">
  <path d="M 360 242 Q 365 232 365 217 L 361 226 L 361 226 Q 366 206 365 186 Q 364 177 365 168 L 363 168 L 363 168 Q 360 133 338 102 Q 315 72 288 59 Q 264 48 236 47 Q 207 45 190 53 Q 193 51 197 50 L 197 50 L 197 50 Q 198 50 198 50 Q 203 49 201 47 Q 187 48 181 51 Q 175 53 170 56 Q 170 56 170 56 L 170 56 L 170 56 Q 170 56 170 56 Q 165 61 150 65 Q 147 69 156 66 Q 156 66 156 66 L 156 66 L 156 66 Q 164 63 156 68 Q 150 70 146 70 Q 146 70 146 70 L 146 70 L 146 70 Q 140 70 133 73 Q 126 76 115 87 Q 117 88 121 86 L 121 86 L 121 86 Q 125 82 119 90 Q 103 91 80 113 Q 58 135 50 149 L 54 150 L 54 150 Q 49 162 44 171 Q 37 183 36 192 Q 35 199 34 207 Q 34 208 34 209 L 34 209 L 34 209 Q 34 210 34 211 Q 34 211 34 212 L 34 213 L 34 213 Q 34 213 34 213 Q 31 234 30 255 Q 30 276 38 286 L 36 299 L 36 299 Q 37 301 38 302 Q 38 303 38 303 L 38 303 L 38 303 L 38 303 L 38 303 L 38 303 L 38 303 L 38 303 L 38 303 L 38 303 L 38 303 L 38 303 L 38 303 L 38 303 L 38 303 Q 40 307 42 310 L 39 310 L 39 310 Q 44 326 47 329 Q 51 333 54 333 L 54 333 L 54 333 Q 57 332 61 336 Q 65 340 72 357 Q 69 357 63 350 Q 64 359 76 376 L 73 379 L 73 379 Q 76 384 81 388 Q 81 388 81 388 L 81 388 L 81 388 L 81 388 L 81 388 Q 82 389 84 391 Q 76 387 82 397 Q 88 406 96 416 Q 97 418 98 419 L 98 419 L 98 419 L 98 419 L 98 419 L 98 419 L 98 419 L 98 419 L 98 419 L 98 419 L 98 419 Q 100 422 101 423 L 103 419 L 103 419 Q 103 428 116 444 L 124 443 L 124 443 Q 126 448 132 454 Q 139 460 144 460 L 140 466 L 140 466 Q 150 470 153 472 Q 154 475 169 481 L 164 473 L 164 473 Q 169 478 173 482 L 173 482 L 173 482 Q 180 490 193 497 Q 207 502 215 503 Q 215 503 216 503 Q 216 503 216 503 Q 216 503 217 503 Q 224 504 237 508 Q 236 507 234 508 L 234 508 L 234 508 Q 231 507 227 507 Q 227 507 227 507 L 227 507 L 227 507 L 227 507 L 227 507 L 227 507 L 227 507 L 227 507 L 227 507 L 227 507 L 227 507 L 227 507 L 227 507 L 227 507 L 227 507 Q 227 507 227 507 Q 205 508 184 502 Q 135 489 94 450 Q 52 412 28 359 Q 4 306 6 247 Q 5 231 6 216 Q 7 194 4 188 L 5 185 L 5 185 Q 12 159 29 122 L 29 122 L 29 122 L 29 121 L 29 121 Q 29 122 32 122 Q 34 122 38 116 Q 39 113 40 110 Q 41 109 41 109 Q 41 108 42 107 Q 45 97 50 89 L 53 88 L 53 88 Q 54 81 63 71 Q 72 62 83 53 L 84 52 L 84 52 Q 93 44 97 39 L 98 43 L 98 43 Q 111 32 129 23 Q 147 14 163 7 Q 163 7 164 7 L 164 7 L 164 7 Q 171 4 177 1 Q 174 6 187 2 Q 195 0 203 0 L 199 2 L 199 2 Q 195 4 191 6 Q 201 4 206 6 Q 206 6 206 6 L 207 6 L 207 6 Q 211 7 221 6 Q 211 8 210 10 Q 221 10 227 9 L 228 9 L 228 9 Q 235 6 247 9 L 246 5 L 246 5 Q 256 8 263 10 L 264 11 L 264 11 Q 271 13 278 15 Q 286 18 298 25 Q 303 25 305 24 L 306 24 L 306 24 Q 310 21 321 25 Q 321 25 321 26 Q 321 26 321 26 Q 321 26 322 26 Q 322 27 322 27 L 322 27 L 322 27 Q 322 29 325 31 Q 327 34 336 39 Q 337 37 331 31 Q 330 31 330 31 Q 330 31 330 31 Q 330 31 330 30 Q 329 30 329 30 Q 354 44 376 69 Q 398 94 407 124 Q 403 116 403 118 Q 402 119 403 124 Q 404 132 403 132 Q 410 150 413 169 L 412 166 L 412 166 L 412 166 L 412 166 Q 410 157 405 143 Q 400 129 392 117 Q 391 122 387 120 L 387 120 L 387 120 L 387 120 L 387 120 Q 384 119 383 121 Q 382 123 385 133 Q 389 137 389 134 L 389 134 L 389 134 Q 389 134 389 134 Q 389 129 393 139 Q 394 145 396 152 L 396 152 L 396 152 L 396 152 L 396 152 L 396 152 L 396 152 Q 396 153 396 153 Q 396 153 396 153 L 396 154 L 396 154 Q 396 154 396 155 Q 397 158 398 162 Q 396 161 394 158 Q 392 153 391 155 Q 395 172 399 173 Q 398 174 398 174 Q 396 173 396 179 Q 396 189 398 190 Q 399 192 401 191 Q 401 191 401 191 L 401 191 L 401 191 Q 402 190 403 190 Q 402 194 400 198 Q 394 209 397 224 Q 395 220 394 217 Q 394 216 393 215 L 393 215 L 393 215 Q 393 215 393 214 Q 393 214 393 214 L 393 214 L 393 214 Q 392 212 392 211 Q 391 217 392 221 Q 392 222 392 222 Q 392 222 392 223 Q 393 229 389 242 Q 392 231 392 224 Q 392 218 389 222 Q 388 238 381 251 L 380 251 L 380 251 Q 374 261 375 270 L 369 263 L 369 263 Q 360 277 363 278 L 363 279 L 363 279 Q 365 280 359 289 Q 361 286 360 285 Q 360 285 360 285 L 360 285 L 360 285 Q 359 285 362 280 Q 359 281 352 289 Q 346 295 339 300 Q 281 344 214 318 Q 214 317 211 314 Q 182 294 168 270 Q 154 247 160 206 Q 163 204 165 196 L 165 196 L 165 196 L 165 196 L 165 196 L 165 195 L 165 195 L 165 195 L 165 195 L 165 195 L 165 195 Q 169 180 180 171 Q 186 158 201 148 Q 217 138 236 137 Q 255 137 270 145 Q 286 154 294 165 Q 279 151 257 148 Q 236 145 214 155 Q 193 165 182 185 Q 170 206 172 230 Q 172 229 173 229 Q 173 229 173 229 L 173 229 L 173 229 Q 173 229 173 229 Q 173 229 173 229 Q 173 229 173 229 L 173 229 L 173 229 Q 173 229 173 229 Q 174 228 174 225 Q 176 272 212 297 Q 248 322 286 307 L 287 309 L 287 309 Q 303 304 307 298 L 307 298 L 307 298 L 307 298 L 307 298 Q 307 298 307 298 Q 310 295 316 290 Q 316 292 314 293 Q 309 297 312 298 Q 316 296 324 290 Q 332 283 340 276 Q 340 276 341 275 L 341 275 L 341 275 L 341 275 L 341 275 Q 341 275 342 275 Q 342 274 343 274 Q 345 272 346 271 Q 346 271 347 270 L 347 270 L 347 270 L 347 270 L 347 270 Q 349 264 348 263 L 348 263 L 348 263 Q 347 262 351 253 L 358 250 L 358 250 Q 359 248 359 246 Q 360 245 360 244 Q 360 243 360 243 Q 361 242 361 242 L 360 242 L 360 242 Z M 329 30 L 329 30 L 329 30 L 329 30 L 329 30 L 329 30 L 329 30 L 329 30 Z M 228 330 Q 217 324 213 319 L 213 319 L 213 319 Q 212 320 212 321 Q 194 312 180 296 Q 187 307 197 316 Q 186 310 175 297 Q 175 297 175 297 L 175 296 L 175 296 Q 168 288 165 287 Q 182 315 217 330 Q 252 345 278 336 Q 254 338 228 330 L 228 330 Z M 307 210 L 307 210 L 307 210 L 307 210 Q 306 208 305 207 Q 307 202 308 201 Q 310 201 310 211 Q 308 216 307 210 L 307 210 Z M 303 233 Q 301 245 293 255 Q 293 253 290 252 Q 290 252 290 252 L 290 252 L 290 252 Q 290 252 290 252 Q 288 252 288 249 Q 288 247 296 236 Q 295 239 292 243 Q 292 243 292 244 L 292 244 L 292 244 L 292 244 L 292 244 L 292 244 L 292 244 Q 289 249 288 251 Q 288 253 296 248 L 297 246 L 297 246 Q 301 240 303 233 L 303 233 L 303 233 Z M 247 267 Q 258 268 268 265 Q 265 269 260 273 Q 251 271 246 269 Q 241 267 247 267 L 247 267 Z M 155 278 Q 160 287 163 293 L 163 293 L 163 293 Q 163 293 164 294 L 164 294 L 164 294 Q 167 299 171 306 Q 164 299 158 291 Q 158 291 158 291 L 158 290 L 158 290 Q 156 287 153 284 L 155 278 L 155 278 L 155 278 L 155 278 Z M 162 269 Q 164 274 168 278 L 170 285 L 170 285 L 169 283 L 169 283 Q 164 275 161 267 L 162 268 L 162 268 L 162 269 L 162 269 Z M 401 227 Q 398 253 385 277 Q 396 255 400 230 L 401 227 L 401 227 Z M 16 107 Q 16 107 18 107 L 18 107 L 18 107 Q 18 107 18 107 Q 22 104 18 115 Q 17 115 17 115 Q 17 115 16 116 L 16 116 L 16 116 L 16 116 L 16 116 Q 14 117 12 119 Q 16 113 16 107 L 16 107 Z M 5 148 Q 4 154 2 162 Q 2 159 2 157 L 2 157 L 2 157 Q 0 153 6 144 Q 6 146 5 148 Q 5 148 5 148 L 5 148 L 5 148 Z" />
</svg>