<svg xmlns="http://www.w3.org/2000/svg" viewBox="0 0 448 448">
  <path d="M 92 223 Q 92 261 112 293 L 115 298 L 115 298 L 102 346 L 102 346 L 152 333 L 152 333 L 157 336 L 157 336 Q 188 354 224 355 L 224 355 L 224 355 Q 280 353 318 316 Q 356 279 357 223 Q 356 168 317 130 Q 278 91 224 91 Q 168 92 131 129 Q 94 167 92 223 L 92 223 Z M 275 298 Q 266 300 256 298 L 256 298 L 256 298 Q 246 296 227 288 Q 200 275 182 256 Q 165 237 161 230 Q 160 229 160 229 Q 160 229 160 229 Q 160 228 160 228 Q 157 226 151 214 Q 144 202 143 187 Q 144 174 148 166 Q 153 158 157 155 Q 157 155 157 154 Q 163 149 168 149 Q 172 149 176 149 Q 176 149 176 149 Q 176 149 176 149 Q 180 148 184 156 Q 185 157 185 158 Q 187 163 189 168 Q 190 171 191 173 Q 196 183 197 186 Q 199 189 197 192 Q 192 202 188 205 Q 188 205 188 205 Q 182 209 185 214 Q 197 233 209 243 Q 222 253 239 261 Q 245 264 248 260 Q 250 258 254 253 Q 258 248 260 245 Q 264 240 269 243 Q 273 244 283 249 Q 292 254 296 256 Q 297 256 297 256 Q 298 256 298 257 Q 299 257 299 257 Q 303 258 304 260 Q 306 264 302 279 Q 298 286 290 292 Q 281 297 275 298 L 275 298 Z M 448 64 Q 447 37 429 19 L 429 19 L 429 19 Q 411 1 384 0 L 64 0 L 64 0 Q 37 1 19 19 Q 1 37 0 64 L 0 384 L 0 384 Q 1 411 19 429 Q 37 447 64 448 L 384 448 L 384 448 Q 411 447 429 429 Q 447 411 448 384 L 448 64 L 448 64 Z M 148 362 L 64 384 L 148 362 L 64 384 L 87 302 L 87 302 Q 65 265 65 222 Q 67 155 112 110 Q 157 66 224 64 Q 289 65 336 111 Q 382 157 384 223 Q 382 290 337 335 Q 291 379 224 381 Q 183 381 148 362 L 148 362 Z" />
</svg>