<svg xmlns="http://www.w3.org/2000/svg" viewBox="0 0 512 512">
  <path d="M 457.14285 0 L 54.857143 0 Q 32 1.1428572 16 16 Q 1.1428572 32 0 54.857143 L 0 457.14285 Q 1.1428572 480 16 496 Q 32 510.85715 54.857143 512 L 457.14285 512 Q 480 510.85715 496 496 Q 510.85715 480 512 457.14285 L 512 54.857143 Q 510.85715 32 496 16 Q 480 1.1428572 457.14285 0 L 457.14285 0 Z M 24 225.14285 L 24 225.14285 Q 24 225.14285 24 225.14285 Q 24 225.14285 24 225.14285 Q 24 225.14285 24 225.14285 L 24 225.14285 Z M 273.14285 286.85715 L 273.14285 402.2857 L 237.71428 402.2857 L 237.71428 284.57144 L 146.28572 109.71429 L 188.57143 109.71429 Q 222.85715 173.71428 235.42857 200 Q 246.85715 226.28572 250.28572 237.71428 Q 253.71428 244.57143 257.14285 253.71428 Q 261.7143 242.28572 265.14285 233.14285 Q 268.57144 222.85715 280 197.71428 Q 292.57144 172.57143 325.7143 109.71429 L 365.7143 109.71429 L 273.14285 286.85715 L 273.14285 286.85715 Z" />
</svg>