<svg xmlns="http://www.w3.org/2000/svg" viewBox="0 0 448 448">
  <path d="M 166 277 Q 180 283 185 297 L 185 297 L 185 297 Q 191 310 185 325 Q 179 339 165 344 Q 152 350 138 344 L 109 332 L 109 332 Q 117 349 135 356 Q 154 364 172 356 Q 191 349 199 330 Q 207 311 199 292 Q 191 274 173 265 Q 154 258 136 265 L 166 277 L 166 277 Z M 448 64 Q 447 37 429 19 L 429 19 L 429 19 Q 411 1 384 0 L 64 0 L 64 0 Q 37 1 19 19 Q 1 37 0 64 L 0 209 L 0 209 L 117 257 L 117 257 Q 135 244 157 246 L 213 165 L 213 165 L 213 164 L 213 164 Q 214 127 238 102 Q 263 78 300 77 Q 337 78 362 102 Q 387 127 388 164 Q 387 202 361 227 Q 336 252 298 252 L 219 308 L 219 308 Q 220 338 201 357 Q 182 376 154 377 Q 129 376 112 362 Q 94 347 89 324 L 0 287 L 0 287 L 0 384 L 0 384 Q 1 411 19 429 Q 37 447 64 448 L 384 448 L 384 448 Q 411 447 429 429 Q 447 411 448 384 L 448 64 L 448 64 Z M 242 164 Q 243 197 271 215 Q 300 230 330 215 Q 358 197 359 164 Q 358 131 330 114 Q 300 98 271 114 Q 243 131 242 164 L 242 164 Z M 257 164 Q 257 139 278 126 Q 300 114 322 126 Q 344 139 344 164 Q 344 189 322 202 Q 300 214 278 202 Q 257 189 257 164 L 257 164 Z" />
</svg>