<svg xmlns="http://www.w3.org/2000/svg" viewBox="0 0 512 512">
  <path d="M 457.14285 0 L 54.857143 0 Q 32 1.1428572 16 16 Q 1.1428572 32 0 54.857143 L 0 457.14285 Q 1.1428572 480 16 496 Q 32 510.85715 54.857143 512 L 457.14285 512 Q 480 510.85715 496 496 Q 510.85715 480 512 457.14285 L 512 54.857143 Q 510.85715 32 496 16 Q 480 1.1428572 457.14285 0 L 457.14285 0 Z M 363.42856 416 Q 355.42856 424 337.14285 432 L 337.14285 432 Q 318.85715 438.85715 293.7143 438.85715 Q 230.85715 436.57144 209.14285 402.2857 Q 187.42857 369.14285 188.57143 338.2857 L 188.57143 235.42857 L 154.28572 235.42857 Q 148.57143 235.42857 147.42857 228.57143 L 147.42857 179.42857 Q 147.42857 171.42857 155.42857 168 Q 188.57143 155.42857 201.14285 131.42857 Q 214.85715 107.42857 216 84.57143 Q 217.14285 73.14286 227.42857 73.14286 L 277.7143 73.14286 Q 284.57144 74.28571 284.57144 80 L 284.57144 162.28572 L 344 162.28572 Q 350.85715 163.42857 350.85715 169.14285 L 350.85715 228.57143 Q 350.85715 234.28572 344 235.42857 L 284.57144 235.42857 L 284.57144 330.2857 Q 284.57144 348.57144 297.14285 356.57144 Q 309.7143 364.57144 333.7143 355.42856 Q 338.2857 353.14285 342.85715 354.2857 Q 346.2857 355.42856 347.42856 360 L 363.42856 405.7143 Q 365.7143 411.42856 363.42856 416 L 363.42856 416 Z" />
</svg>