<svg xmlns="http://www.w3.org/2000/svg" viewBox="0 0 448 448">
  <path d="M 166 101 Q 137 114 117 139 L 117 139 L 117 139 Q 97 164 90 196 Q 96 197 132 194 Q 167 192 217 180 Q 199 149 184 127 Q 169 105 166 101 L 166 101 Z M 192 91 Q 196 96 211 118 L 211 118 L 211 118 Q 225 140 243 171 Q 279 157 296 141 Q 313 126 315 122 Q 289 100 257 92 Q 225 84 192 91 L 192 91 Z M 277 350 Q 276 340 269 312 L 269 312 L 269 312 Q 262 284 248 246 Q 207 261 179 285 Q 151 309 140 332 Q 171 356 207 360 Q 244 364 277 350 L 277 350 Z M 228 201 Q 175 215 134 218 L 134 218 L 134 218 Q 94 221 87 220 Q 87 221 87 222 Q 87 223 87 224 Q 89 278 123 316 Q 140 286 171 261 Q 201 235 239 224 Q 234 212 228 201 L 228 201 Z M 300 338 Q 348 305 359 246 Q 355 244 331 240 Q 307 236 274 240 Q 287 278 293 304 Q 299 331 300 338 L 300 338 Z M 266 219 Q 301 215 328 218 L 328 218 L 328 218 Q 356 221 361 223 Q 359 174 330 138 Q 328 142 310 158 Q 291 175 254 192 Q 260 206 266 218 L 266 219 Z M 384 0 L 64 0 L 384 0 L 64 0 Q 37 1 19 19 Q 1 37 0 64 L 0 384 L 0 384 Q 1 411 19 429 Q 37 447 64 448 L 384 448 L 384 448 Q 411 447 429 429 Q 447 411 448 384 L 448 64 L 448 64 Q 447 37 429 19 Q 411 1 384 0 L 384 0 Z M 224 384 Q 181 384 144 363 L 144 363 L 144 363 Q 107 341 85 304 Q 64 266 64 224 Q 64 182 85 144 Q 107 107 144 85 Q 181 64 224 64 Q 267 64 304 85 Q 341 107 363 144 Q 384 182 384 224 Q 384 266 363 304 Q 341 341 304 363 Q 267 384 224 384 L 224 384 Z" />
</svg>