<svg xmlns="http://www.w3.org/2000/svg" viewBox="0 0 512 512">
  <path d="M 457.14285 0 L 54.857143 0 Q 32 1.1428572 16 16 Q 1.1428572 32 0 54.857143 L 0 457.14285 Q 1.1428572 480 16 496 Q 32 510.85715 54.857143 512 L 457.14285 512 Q 480 510.85715 496 496 Q 510.85715 480 512 457.14285 L 512 54.857143 Q 510.85715 32 496 16 Q 480 1.1428572 457.14285 0 L 457.14285 0 Z M 187.42857 370.2857 Q 138.28572 369.14285 106.28571 337.14285 L 106.28571 337.14285 Q 74.28571 305.14285 73.14286 256 Q 74.28571 206.85715 106.28571 174.85715 Q 138.28572 142.85715 187.42857 141.71428 Q 234.28572 142.85715 264 171.42857 L 233.14285 201.14285 Q 220.57143 186.28572 187.42857 184 Q 157.71428 185.14285 137.14285 204.57143 Q 117.71429 225.14285 116.57143 256 Q 117.71429 286.85715 137.14285 307.42856 Q 157.71428 328 187.42857 328 Q 220.57143 326.85715 235.42857 309.7143 Q 250.28572 292.57144 252.57143 278.85715 L 187.42857 278.85715 L 187.42857 240 L 294.85715 240 Q 297.14285 248 297.14285 258.2857 Q 296 308.57144 267.42856 339.42856 Q 237.71428 369.14285 187.42857 370.2857 L 187.42857 370.2857 Z M 438.85715 276.57144 L 405.7143 276.57144 L 405.7143 309.7143 L 372.57144 309.7143 L 372.57144 276.57144 L 339.42856 276.57144 L 339.42856 243.42857 L 372.57144 243.42857 L 372.57144 210.28572 L 405.7143 210.28572 L 405.7143 243.42857 L 438.85715 243.42857 L 438.85715 276.57144 L 438.85715 276.57144 Z" />
</svg>