<svg xmlns="http://www.w3.org/2000/svg" viewBox="0 0 512 512">
  <path d="M 200.25807 307.6129 Q 176.51613 304.51614 174.45161 281.80646 Q 176.51613 258.0645 200.25807 256 Q 222.96774 258.0645 225.03226 281.80646 Q 222.96774 304.51614 200.25807 307.6129 L 200.25807 307.6129 Z M 512 256 Q 510.96774 327.2258 476.90323 385.03226 L 476.90323 385.03226 Q 442.8387 442.8387 385.03226 476.90323 L 385.03226 476.90323 Q 327.2258 510.96774 256 512 Q 184.7742 510.96774 126.96774 476.90323 Q 69.16129 442.8387 35.096775 385.03226 Q 1.032258 327.2258 0 256 Q 1.032258 184.7742 35.096775 126.96774 Q 69.16129 69.16129 126.96774 35.096775 Q 184.7742 1.032258 256 0 Q 327.2258 1.032258 385.03226 35.096775 Q 442.8387 69.16129 476.90323 126.96774 Q 510.96774 184.7742 512 256 L 512 256 Z M 375.74194 213.67741 Q 360.25806 213.67741 350.96774 224 Q 314.8387 199.2258 262.19354 196.12903 L 279.74194 115.6129 L 337.5484 128 Q 339.6129 151.74193 362.32257 153.80646 Q 386.0645 151.74193 388.12903 128 Q 386.0645 104.258064 362.32257 102.19355 Q 346.8387 103.22581 339.6129 116.645164 L 276.64517 102.19355 Q 271.48386 102.19355 269.41934 107.354836 L 249.80646 196.12903 Q 197.16129 199.2258 161.03226 224 Q 151.74193 213.67741 136.25807 213.67741 Q 109.41936 215.74193 103.22581 239.48387 Q 98.064514 263.2258 121.80645 278.7097 Q 119.741936 285.9355 119.741936 294.19354 Q 121.80645 336.51614 160 363.35483 Q 198.19354 391.2258 256 392.25806 Q 313.80646 391.2258 353.03226 363.35483 Q 391.2258 336.51614 393.2903 294.19354 Q 393.2903 285.9355 391.2258 277.67743 Q 413.9355 263.2258 408.7742 239.48387 Q 402.58066 215.74193 375.74194 213.67741 L 375.74194 213.67741 Z M 304.51614 333.41934 Q 288 347.87097 256 347.87097 L 256 347.87097 Q 224 346.8387 207.48387 333.41934 Q 203.35484 330.32257 199.2258 333.41934 Q 195.09677 338.58066 199.2258 342.7097 Q 219.87097 360.25806 256 360.25806 Q 292.12903 360.25806 312.7742 342.7097 Q 316.90323 338.58066 312.7742 333.41934 Q 308.64517 330.32257 304.51614 333.41934 L 304.51614 333.41934 Z M 312.7742 256 Q 289.03226 258.0645 286.96774 281.80646 Q 289.03226 304.51614 312.7742 307.6129 Q 335.48386 304.51614 337.5484 281.80646 Q 335.48386 258.0645 312.7742 256 L 312.7742 256 Z" />
</svg>