<svg xmlns="http://www.w3.org/2000/svg" viewBox="0 0 448 448">
  <path d="M 224 105 Q 201 105 188 124 Q 176 145 188 165 Q 201 185 224 185 Q 247 185 260 165 Q 272 145 260 124 Q 247 105 224 105 L 224 105 Z M 384 0 L 64 0 L 384 0 L 64 0 Q 37 1 19 19 Q 1 37 0 64 L 0 384 L 0 384 Q 1 411 19 429 Q 37 447 64 448 L 384 448 L 384 448 Q 411 447 429 429 Q 447 411 448 384 L 448 64 L 448 64 Q 447 37 429 19 Q 411 1 384 0 L 384 0 Z M 224 64 Q 270 65 294 104 Q 316 145 294 185 Q 270 225 224 226 Q 178 225 154 185 Q 132 145 154 104 Q 178 65 224 64 L 224 64 Z M 283 232 Q 296 223 305 226 L 305 226 L 305 226 Q 314 228 317 236 Q 323 247 317 255 Q 311 263 296 273 Q 283 281 267 285 Q 252 289 240 290 L 253 303 L 253 303 L 300 350 L 300 350 Q 312 365 299 378 Q 287 390 272 379 Q 253 359 224 331 Q 224 331 224 331 L 224 331 L 224 331 L 176 379 L 176 379 Q 161 390 149 378 Q 137 365 148 350 Q 154 345 161 338 Q 166 333 171 327 Q 183 315 196 303 L 209 290 L 209 290 Q 197 289 181 285 Q 165 281 152 273 Q 137 263 131 255 Q 125 247 131 236 Q 134 228 143 226 Q 152 223 165 232 Q 165 233 181 241 Q 196 249 224 250 Q 252 249 267 241 Q 283 233 283 232 Q 283 232 283 232 L 283 232 Z" />
</svg>