<svg xmlns="http://www.w3.org/2000/svg" viewBox="0 0 640 397">
  <path d="M 494 238 Q 456 236 432 216 L 432 216 L 432 216 Q 408 197 401 184 Q 410 113 435 85 Q 459 57 494 58 Q 529 59 551 83 Q 574 107 575 148 Q 574 189 551 213 Q 529 237 494 238 L 494 238 Z M 494 0 Q 432 1 397 33 L 397 33 L 397 33 Q 362 65 353 108 Q 331 63 318 8 L 205 8 L 205 8 L 205 149 L 205 149 Q 205 188 188 213 Q 170 237 136 238 Q 102 237 83 213 Q 65 188 65 149 L 65 8 L 65 8 L 0 8 L 0 8 L 0 149 L 0 149 Q 0 212 37 254 Q 76 296 136 296 Q 196 295 233 255 Q 269 215 270 149 L 270 54 L 270 54 Q 276 79 292 118 Q 307 157 335 198 L 300 397 L 300 397 L 367 397 L 367 397 L 390 256 L 390 256 Q 401 265 414 273 Q 448 294 488 296 Q 489 296 494 296 Q 556 295 597 254 Q 638 213 640 148 Q 638 83 597 42 Q 556 1 494 0 L 494 0 Z" />
</svg>