<svg xmlns="http://www.w3.org/2000/svg" viewBox="0 0 512 512">
  <path d="M 323.42856 358.85715 Q 328 363.42856 323.42856 369.14285 Q 299.42856 389.7143 256 389.7143 Q 212.57143 389.7143 188.57143 369.14285 Q 184 363.42856 188.57143 358.85715 Q 193.14285 354.2857 198.85715 358.85715 Q 217.14285 374.85715 256 374.85715 Q 293.7143 374.85715 313.14285 358.85715 Q 318.85715 354.2857 323.42856 358.85715 L 323.42856 358.85715 Z M 219.42857 297.14285 Q 217.14285 268.57144 188.57143 266.2857 Q 161.14285 268.57144 158.85715 297.14285 Q 161.14285 324.57144 188.57143 326.85715 Q 202.28572 326.85715 210.28572 317.7143 Q 219.42857 309.7143 219.42857 297.14285 L 219.42857 297.14285 Z M 323.42856 266.2857 Q 294.85715 268.57144 292.57144 297.14285 Q 292.57144 309.7143 301.7143 317.7143 Q 309.7143 326.85715 323.42856 326.85715 Q 350.85715 324.57144 353.14285 297.14285 Q 350.85715 268.57144 323.42856 266.2857 L 323.42856 266.2857 Z M 512 54.857143 L 512 457.14285 Q 510.85715 480 496 496 Q 480 510.85715 457.14285 512 L 54.857143 512 Q 32 510.85715 16 496 Q 1.1428572 480 0 457.14285 L 0 54.857143 Q 1.1428572 32 16 16 Q 32 1.1428572 54.857143 0 L 457.14285 0 Q 480 1.1428572 496 16 Q 510.85715 32 512 54.857143 L 512 54.857143 Z M 397.7143 216 Q 380.57144 216 369.14285 227.42857 Q 325.7143 197.71428 262.85715 195.42857 L 284.57144 99.42857 L 352 114.28571 Q 353.14285 126.85714 361.14285 136 Q 370.2857 144 382.85715 144 Q 395.42856 144 404.57144 134.85715 Q 412.57144 126.85714 413.7143 114.28571 Q 412.57144 100.57143 404.57144 92.57143 Q 395.42856 83.42857 382.85715 83.42857 Q 364.57144 84.57143 355.42856 100.57143 L 280 83.42857 Q 274.2857 82.28571 272 89.14286 L 248 195.42857 Q 186.28572 198.85715 144 228.57143 Q 131.42857 216 114.28571 216 Q 81.14286 218.28572 74.28571 246.85715 Q 67.42857 275.42856 96 292.57144 Q 93.71429 301.7143 93.71429 312 Q 96 361.14285 141.71428 394.2857 Q 187.42857 427.42856 256 428.57144 Q 325.7143 427.42856 371.42856 394.2857 Q 417.14285 361.14285 418.2857 312 Q 419.42856 301.7143 416 292.57144 Q 444.57144 274.2857 437.7143 246.85715 Q 430.85715 218.28572 397.7143 216 L 397.7143 216 Z" />
</svg>