<svg xmlns="http://www.w3.org/2000/svg" viewBox="0 0 512 512">
  <path d="M 457.14285 0 L 54.857143 0 Q 32 1.1428572 16 16 Q 1.1428572 32 0 54.857143 L 0 457.14285 Q 1.1428572 480 16 496 Q 32 510.85715 54.857143 512 L 457.14285 512 Q 480 510.85715 496 496 Q 510.85715 480 512 457.14285 L 512 54.857143 Q 510.85715 32 496 16 Q 480 1.1428572 457.14285 0 L 457.14285 0 Z M 401.14285 181.71428 Q 401.14285 186.28572 401.14285 190.85715 L 401.14285 190.85715 Q 401.14285 190.85715 401.14285 190.85715 Q 401.14285 242.28572 377.14285 290.2857 Q 352 339.42856 305.14285 371.42856 Q 257.14285 403.42856 188.57143 404.57144 Q 123.42857 403.42856 73.14286 371.42856 Q 82.28571 371.42856 91.42857 371.42856 Q 145.14285 371.42856 184 339.42856 Q 158.85715 339.42856 140.57143 324.57144 Q 121.14286 310.85715 114.28571 288 Q 130.28572 290.2857 148.57143 286.85715 Q 122.28571 281.14285 105.14286 260.57144 Q 88 241.14285 88 212.57143 L 88 211.42857 Q 102.85714 220.57143 122.28571 221.71428 Q 89.14286 198.85715 88 158.85715 Q 89.14286 138.28572 98.28571 121.14286 Q 126.85714 155.42857 166.85715 176 Q 205.71428 196.57143 253.71428 200 Q 246.85715 160 268.57144 134.85715 Q 290.2857 108.57143 326.85715 107.42857 Q 360 108.57143 380.57144 131.42857 Q 406.85715 125.71429 428.57144 113.14286 Q 419.42856 139.42857 395.42856 154.28572 Q 418.2857 152 438.85715 142.85715 Q 422.85715 165.71428 401.14285 181.71428 L 401.14285 181.71428 Z" />
</svg>