<svg xmlns="http://www.w3.org/2000/svg" viewBox="0 0 448 448">
  <path d="M 448 64 Q 447 37 429 19 L 429 19 L 429 19 Q 411 1 384 0 L 64 0 L 64 0 Q 37 1 19 19 Q 1 37 0 64 L 0 384 L 0 384 Q 1 411 19 429 Q 37 447 64 448 L 384 448 L 384 448 Q 411 447 429 429 Q 447 411 448 384 L 448 64 L 448 64 Z M 64 224 Q 65 181 93 153 L 93 153 L 93 153 Q 121 125 164 124 Q 205 125 231 150 L 204 176 L 204 176 Q 193 163 164 161 Q 138 162 120 179 Q 103 197 102 224 Q 103 251 120 269 Q 138 287 164 287 Q 193 286 206 271 Q 219 256 221 244 L 164 244 L 164 244 L 164 210 L 164 210 L 258 210 L 258 210 Q 260 217 260 226 Q 259 270 234 297 Q 208 323 164 324 Q 121 323 93 295 Q 65 267 64 224 L 64 224 Z M 355 242 L 355 271 L 355 242 L 355 271 L 326 271 L 326 271 L 326 242 L 326 242 L 297 242 L 297 242 L 297 213 L 297 213 L 326 213 L 326 213 L 326 184 L 326 184 L 355 184 L 355 184 L 355 213 L 355 213 L 384 213 L 384 213 L 384 242 L 384 242 L 355 242 L 355 242 Z" />
</svg>