<svg xmlns="http://www.w3.org/2000/svg" viewBox="0 0 448 448">
  <path d="M 56 0 L 392 0 L 56 0 L 392 0 Q 416 1 432 16 Q 447 32 448 56 L 448 392 L 448 392 Q 447 416 432 432 Q 416 447 392 448 L 56 448 L 56 448 Q 32 447 16 432 Q 1 416 0 392 L 0 56 L 0 56 Q 1 32 16 16 Q 32 1 56 0 L 56 0 Z M 271 242 Q 276 203 290 188 L 290 188 L 290 188 Q 303 172 322 173 Q 342 173 354 186 Q 367 200 367 222 Q 367 245 354 258 Q 342 272 322 272 Q 301 271 288 260 Q 275 250 271 242 L 271 242 Z M 244 200 Q 232 175 225 145 L 195 145 L 162 145 L 162 223 L 162 223 Q 162 245 152 258 Q 143 272 124 272 Q 105 272 95 258 Q 84 245 84 223 L 84 145 L 84 145 L 48 145 L 48 145 L 48 223 L 48 223 Q 49 258 69 281 Q 90 304 124 304 Q 157 304 177 282 Q 198 259 198 223 L 198 170 L 198 170 Q 201 184 210 206 Q 219 228 234 250 L 215 361 L 215 361 L 252 361 L 252 361 L 265 282 L 265 282 Q 271 287 278 292 Q 297 303 319 304 L 319 304 L 319 304 Q 319 304 320 304 Q 320 304 321 304 Q 321 304 321 304 Q 322 304 322 304 Q 357 303 380 281 Q 402 258 403 222 Q 402 186 380 164 Q 357 141 322 140 Q 288 141 269 159 Q 250 176 244 200 L 244 200 Z" />
</svg>