<svg xmlns="http://www.w3.org/2000/svg" viewBox="0 0 512 512">
  <path d="M 457.14285 0 L 54.857143 0 Q 32 1.1428572 16 16 Q 1.1428572 32 0 54.857143 L 0 457.14285 Q 1.1428572 480 16 496 Q 32 510.85715 54.857143 512 L 457.14285 512 Q 480 510.85715 496 496 Q 510.85715 480 512 457.14285 L 512 54.857143 Q 510.85715 32 496 16 Q 480 1.1428572 457.14285 0 L 457.14285 0 Z M 321.14285 398.85715 Q 282.2857 438.85715 228.57143 438.85715 L 228.57143 438.85715 Q 173.71428 438.85715 134.85715 398.85715 Q 97.14286 355.42856 99.42857 304 Q 100.57143 251.42857 134.85715 214.85715 Q 169.14285 177.14285 228.57143 174.85715 Q 251.42857 174.85715 273.14285 182.85715 Q 265.14285 197.71428 262.85715 213.71428 Q 245.71428 206.85715 228.57143 206.85715 Q 185.14285 208 158.85715 237.71428 Q 132.57143 266.2857 131.42857 308.57144 Q 131.42857 346.2857 153.14285 372.57144 Q 174.85715 400 210.28572 406.85715 Q 245.71428 392 264 356.57144 Q 281.14285 322.2857 288 281.14285 Q 294.85715 240 293.7143 206.85715 Q 293.7143 194.28572 293.7143 181.71428 Q 273.14285 124.57143 243.42857 73.14286 Q 266.2857 90.28571 278.85715 121.14286 Q 291.42856 152 293.7143 180.57143 L 293.7143 181.71428 Q 306.2857 220.57143 307.42856 261.7143 Q 307.42856 355.42856 228.57143 408 L 226.28572 408 Q 269.7143 408 297.14285 379.42856 Q 323.42856 350.85715 324.57144 308.57144 Q 324.57144 286.85715 316.57144 267.42856 Q 333.7143 264 347.42856 256 Q 360 288 355.42856 326.85715 Q 350.85715 365.7143 321.14285 398.85715 L 321.14285 398.85715 Z M 353.14285 230.85715 Q 330.2857 228.57143 314.2857 212.57143 Q 333.7143 202.28572 353.14285 186.28572 Q 373.7143 170.28572 385.14285 152 Q 388.57144 145.14285 389.7143 138.28572 Q 378.2857 162.28572 355.42856 179.42857 Q 331.42856 196.57143 306.2857 202.28572 Q 297.14285 189.71428 297.14285 174.85715 Q 298.2857 154.28572 312 138.28572 Q 326.85715 126.85714 344 122.28571 Q 357.7143 118.85714 371.42856 110.85714 Q 384 102.85714 394.2857 81.14286 Q 412.57144 109.71429 412.57144 144 Q 412.57144 178.28572 397.7143 203.42857 Q 381.7143 229.71428 353.14285 230.85715 L 353.14285 230.85715 Z" />
</svg>