<svg xmlns="http://www.w3.org/2000/svg" viewBox="0 0 512 512">
  <path d="M 211.42857 371.42856 Q 218.28572 354.2857 211.42857 339.42856 L 211.42857 339.42856 Q 205.71428 323.42856 189.71428 316.57144 L 155.42857 302.85715 Q 176 294.85715 197.71428 302.85715 Q 218.28572 313.14285 227.42857 333.7143 Q 236.57143 355.42856 227.42857 377.14285 Q 218.28572 398.85715 196.57143 406.85715 Q 176 416 154.28572 406.85715 Q 133.71428 398.85715 124.57143 379.42856 L 157.71428 393.14285 Q 173.71428 400 188.57143 393.14285 Q 204.57143 387.42856 211.42857 371.42856 L 211.42857 371.42856 Z M 457.14285 0 L 54.857143 0 Q 32 1.1428572 16 16 Q 1.1428572 32 0 54.857143 L 0 238.85715 L 133.71428 293.7143 Q 154.28572 278.85715 179.42857 281.14285 L 243.42857 188.57143 L 243.42857 187.42857 Q 244.57143 145.14285 272 116.57143 Q 300.57144 89.14286 342.85715 88 Q 385.14285 89.14286 413.7143 116.57143 Q 442.2857 145.14285 443.42856 187.42857 Q 442.2857 230.85715 412.57144 259.42856 Q 384 288 340.57144 288 L 250.28572 352 Q 251.42857 386.2857 229.71428 408 Q 208 429.7143 176 430.85715 Q 147.42857 429.7143 128 413.7143 Q 107.42857 396.57144 101.71429 370.2857 L 0 328 L 0 457.14285 Q 1.1428572 480 16 496 Q 32 510.85715 54.857143 512 L 457.14285 512 Q 480 510.85715 496 496 Q 510.85715 480 512 457.14285 L 512 54.857143 Q 510.85715 32 496 16 Q 480 1.1428572 457.14285 0 L 457.14285 0 Z M 342.85715 254.85715 Q 315.42856 253.71428 296 234.28572 L 296 234.28572 Q 277.7143 216 276.57144 187.42857 Q 277.7143 158.85715 296 140.57143 Q 315.42856 122.28571 342.85715 121.14286 Q 371.42856 122.28571 390.85715 140.57143 Q 409.14285 158.85715 410.2857 187.42857 Q 409.14285 216 390.85715 234.28572 Q 371.42856 253.71428 342.85715 254.85715 L 342.85715 254.85715 Z M 342.85715 237.71428 Q 364.57144 236.57143 378.2857 222.85715 L 378.2857 222.85715 Q 393.14285 209.14285 393.14285 187.42857 Q 393.14285 165.71428 378.2857 152 Q 364.57144 138.28572 342.85715 137.14285 Q 322.2857 138.28572 307.42856 152 Q 293.7143 165.71428 293.7143 187.42857 Q 293.7143 209.14285 307.42856 222.85715 Q 322.2857 236.57143 342.85715 237.71428 L 342.85715 237.71428 Z" />
</svg>