<svg xmlns="http://www.w3.org/2000/svg" viewBox="0 0 512 512">
  <path d="M 213.71428 298.2857 Q 210.28572 329.14285 177.14285 326.85715 L 125.71429 326.85715 L 125.71429 267.42856 L 178.28572 267.42856 Q 211.42857 266.2857 213.71428 298.2857 L 213.71428 298.2857 Z M 204.57143 204.57143 Q 203.42857 189.71428 194.28572 184 L 194.28572 184 Q 185.14285 179.42857 171.42857 179.42857 L 125.71429 179.42857 L 125.71429 230.85715 L 174.85715 230.85715 Q 202.28572 230.85715 204.57143 204.57143 L 204.57143 204.57143 Z M 355.42856 230.85715 Q 322.2857 232 318.85715 265.14285 L 390.85715 265.14285 Q 387.42856 232 355.42856 230.85715 L 355.42856 230.85715 Z M 512 54.857143 L 512 457.14285 Q 510.85715 480 496 496 Q 480 510.85715 457.14285 512 L 54.857143 512 Q 32 510.85715 16 496 Q 1.1428572 480 0 457.14285 L 0 54.857143 Q 1.1428572 32 16 16 Q 32 1.1428572 54.857143 0 L 457.14285 0 Q 480 1.1428572 496 16 Q 510.85715 32 512 54.857143 L 512 54.857143 Z M 310.85715 174.85715 L 400 174.85715 L 400 153.14285 L 310.85715 153.14285 L 310.85715 174.85715 L 310.85715 174.85715 Z M 261.7143 300.57144 Q 261.7143 256 221.71428 242.28572 Q 251.42857 230.85715 251.42857 200 Q 250.28572 168 230.85715 156.57143 Q 210.28572 145.14285 181.71428 145.14285 L 77.71429 145.14285 L 77.71429 364.57144 L 184 364.57144 Q 214.85715 364.57144 237.71428 349.7143 Q 260.57144 333.7143 261.7143 300.57144 L 261.7143 300.57144 Z M 434.2857 284.57144 Q 434.2857 248 414.85715 222.85715 L 414.85715 222.85715 Q 394.2857 198.85715 356.57144 197.71428 Q 320 198.85715 298.2857 221.71428 Q 276.57144 245.71428 275.42856 282.2857 Q 276.57144 320 297.14285 341.7143 Q 318.85715 364.57144 356.57144 365.7143 Q 413.7143 365.7143 432 312 L 393.14285 312 Q 389.7143 322.2857 379.42856 326.85715 Q 369.14285 332.57144 358.85715 332.57144 Q 320 331.42856 318.85715 292.57144 L 434.2857 292.57144 Q 434.2857 291.42856 434.2857 289.14285 Q 434.2857 286.85715 434.2857 284.57144 L 434.2857 284.57144 Z" />
</svg>