<svg xmlns="http://www.w3.org/2000/svg" viewBox="0 0 448 448">
  <path d="M 412 0 L 36 0 L 412 0 L 36 0 Q 21 0 10 10 Q 0 21 0 36 L 0 412 L 0 412 Q 0 427 10 438 Q 21 448 36 448 L 412 448 L 412 448 Q 427 448 438 438 Q 448 427 448 412 L 448 36 L 448 36 Q 448 21 438 10 Q 427 0 412 0 L 412 0 Z M 379 302 Q 378 333 357 353 L 357 353 L 357 353 Q 337 374 306 375 L 70 375 L 70 375 Q 71 344 92 323 Q 112 302 143 302 L 379 302 L 379 302 Z M 379 188 Q 378 219 357 239 L 357 239 L 357 239 Q 337 260 306 261 L 70 261 L 70 261 Q 71 230 92 209 Q 112 189 143 188 L 379 188 L 379 188 Z M 379 74 Q 378 105 357 125 L 357 125 L 357 125 Q 337 146 306 147 L 70 147 L 70 147 Q 71 116 92 95 Q 112 75 143 74 L 379 74 L 379 74 Z" />
</svg>