<svg xmlns="http://www.w3.org/2000/svg" viewBox="0 0 448 448">
  <path d="M 282 224 L 187 170 L 282 224 L 187 170 L 187 278 L 187 278 L 282 224 L 282 224 Z M 384 0 L 64 0 L 384 0 L 64 0 Q 37 1 19 19 Q 1 37 0 64 L 0 384 L 0 384 Q 1 411 19 429 Q 37 447 64 448 L 384 448 L 384 448 Q 411 447 429 429 Q 447 411 448 384 L 448 64 L 448 64 Q 447 37 429 19 Q 411 1 384 0 L 384 0 Z M 398 136 Q 404 160 405 191 L 405 191 L 405 191 Q 406 221 406 224 Q 406 227 405 258 Q 404 288 398 312 Q 391 337 366 344 Q 350 348 317 350 Q 283 351 255 352 Q 226 352 224 352 Q 222 352 193 352 Q 165 351 131 350 Q 98 348 82 344 Q 57 337 50 313 Q 44 288 43 258 Q 42 227 42 224 Q 42 224 42 224 Q 42 221 43 191 Q 44 160 50 136 Q 57 111 82 104 Q 98 100 131 98 Q 165 97 193 96 Q 222 96 224 96 Q 226 96 255 96 Q 283 97 317 98 Q 350 100 366 104 Q 391 111 398 136 L 398 136 Z" />
</svg>