<svg xmlns="http://www.w3.org/2000/svg" viewBox="0 0 512 512">
  <path d="M 512 257.5484 Q 510.96774 186.32259 476.90323 128.51613 L 476.90323 128.51613 Q 442.8387 70.70968 385.03226 36.64516 L 385.03226 36.64516 Q 327.2258 2.580645 256 1.548387 Q 184.7742 2.580645 126.96774 36.64516 Q 69.16129 70.70968 35.096775 128.51613 Q 1.032258 186.32259 0 257.5484 Q 2.064516 355.6129 61.935482 424.7742 Q 121.80645 493.9355 215.74193 510.4516 L 215.74193 331.87097 L 150.70967 331.87097 L 150.70967 257.5484 L 215.74193 257.5484 L 215.74193 200.7742 Q 216.7742 153.29033 242.58064 127.48387 Q 268.3871 101.67742 312.7742 101.67742 Q 334.4516 101.67742 352 103.741936 Q 368.51614 105.80645 369.5484 106.83871 Q 369.5484 106.83871 369.5484 106.83871 L 369.5484 169.80646 L 337.5484 169.80646 Q 313.80646 169.80646 304.51614 182.19354 Q 295.2258 193.54839 296.25806 209.03226 L 296.25806 257.5484 L 367.48386 257.5484 L 356.12903 331.87097 L 296.25806 331.87097 L 296.25806 510.4516 Q 390.19354 493.9355 450.0645 424.7742 Q 509.9355 355.6129 512 257.5484 L 512 257.5484 Z" />
</svg>