<svg xmlns="http://www.w3.org/2000/svg" viewBox="0 0 576 525">
  <path d="M 408 297 Q 407 297 407 297 L 407 297 L 407 297 Q 402 296 398 295 Q 401 296 403 296 Q 405 296 408 297 L 408 297 Z M 288 229 Q 267 188 221 132 L 221 132 L 221 132 Q 176 75 125 37 Q 78 5 55 3 Q 33 0 22 8 Q 8 15 4 31 Q 0 47 0 60 Q 0 71 3 104 Q 5 137 8 170 Q 12 204 15 216 Q 31 265 75 284 Q 118 302 168 297 Q 171 296 174 296 Q 176 296 178 295 Q 173 296 168 297 Q 120 303 85 320 Q 50 337 48 371 Q 47 406 100 467 Q 160 525 197 512 Q 234 499 256 452 Q 277 406 288 364 Q 288 364 288 363 Q 291 372 294 383 Q 304 424 322 464 Q 341 503 376 511 Q 412 519 474 467 Q 523 415 523 380 Q 522 344 489 324 Q 456 303 408 297 Q 407 297 407 296 Q 402 296 398 295 Q 401 296 403 296 Q 405 296 408 297 Q 458 302 501 284 Q 545 265 561 216 Q 564 204 568 170 Q 571 137 573 104 Q 576 71 576 60 Q 576 47 572 31 Q 568 15 554 8 Q 544 1 521 3 Q 498 5 451 37 Q 400 75 355 132 Q 309 188 288 229 L 288 229 Z" />
</svg>