<svg xmlns="http://www.w3.org/2000/svg" viewBox="0 0 448 448">
  <path d="M 64 0 Q 37 1 19 19 L 19 19 L 19 19 Q 1 37 0 64 L 0 384 L 0 384 Q 1 411 19 429 Q 37 447 64 448 L 384 448 L 384 448 Q 411 447 429 429 Q 447 411 448 384 L 448 64 L 448 64 Q 447 37 429 19 Q 411 1 384 0 L 64 0 L 64 0 Z M 351 167 L 351 167 L 351 167 L 351 167 Q 351 212 330 254 Q 308 297 267 325 Q 225 353 165 354 Q 108 353 64 325 Q 72 325 80 325 Q 127 325 161 297 Q 139 297 123 284 Q 106 272 100 252 Q 114 254 129 251 Q 107 246 92 228 Q 77 211 77 186 L 77 185 L 77 185 Q 90 193 107 194 Q 93 185 85 170 Q 77 156 77 139 Q 78 121 86 106 Q 111 136 146 154 Q 180 172 221 175 Q 216 140 235 118 Q 254 95 286 94 Q 315 95 333 115 Q 356 110 375 99 Q 367 122 346 135 Q 366 133 384 125 Q 370 145 351 159 Q 351 163 351 167 Q 351 167 351 167 L 351 167 Z" />
</svg>