<svg xmlns="http://www.w3.org/2000/svg" viewBox="0 0 448 448">
  <path d="M 64 0 L 384 0 L 64 0 L 384 0 Q 411 1 429 19 Q 447 37 448 64 L 448 384 L 448 384 Q 447 411 429 429 Q 411 447 384 448 L 64 448 L 64 448 Q 37 447 19 429 Q 1 411 0 384 L 0 64 L 0 64 Q 1 37 19 19 Q 37 1 64 0 L 64 0 Z M 306 134 Q 322 134 332 123 L 332 123 L 332 123 Q 343 113 343 97 Q 343 81 332 71 Q 322 60 306 60 Q 277 62 269 90 Q 246 93 231 109 Q 216 126 215 150 L 215 150 L 215 150 Q 165 152 129 175 Q 115 165 97 164 Q 75 165 60 180 Q 45 194 45 217 Q 46 250 75 264 Q 78 311 119 342 Q 161 372 224 374 Q 287 372 329 342 Q 370 311 373 264 Q 402 250 403 217 Q 403 194 388 180 Q 373 165 351 164 Q 333 165 319 175 Q 282 152 232 150 L 232 150 L 232 150 Q 232 133 242 121 Q 253 109 269 106 L 269 106 L 269 106 Q 277 133 306 135 L 306 134 Z M 155 216 Q 166 216 173 226 L 173 226 L 173 226 Q 180 236 180 251 Q 177 278 154 276 Q 129 277 127 250 Q 128 235 136 226 Q 144 217 155 216 L 155 216 Z M 321 250 Q 320 277 295 276 Q 271 278 268 250 Q 268 236 275 226 Q 282 216 293 216 Q 305 216 313 226 Q 320 235 321 250 L 321 250 Z M 279 299 Q 264 334 224 336 Q 185 334 169 299 Q 168 295 172 294 Q 197 291 224 291 Q 252 291 276 294 Q 280 295 279 299 L 279 299 Z" />
</svg>