<svg xmlns="http://www.w3.org/2000/svg" viewBox="0 0 512 512">
  <path d="M 379 79 Q 374 79 370 79 L 106 79 L 106 79 L 249 7 L 249 7 Q 261 0 280 0 Q 290 0 300 6 Q 311 11 317 17 L 379 79 L 379 79 Z M 107 97 L 370 97 L 107 97 L 370 97 Q 392 95 405 106 L 512 212 L 512 212 L 512 421 L 512 421 L 433 422 L 433 422 L 107 97 L 107 97 Z M 97 373 L 97 111 L 97 373 L 97 111 L 420 435 L 420 435 L 421 512 L 421 512 L 209 512 L 209 512 L 111 414 L 111 414 L 111 414 L 111 414 Q 102 406 99 399 Q 96 391 97 373 L 97 373 Z M 79 105 L 79 373 L 79 105 L 79 373 Q 79 378 79 382 L 17 320 L 17 320 Q 1 303 0 280 Q 1 267 7 256 L 79 105 L 79 105 Z" />
</svg>