<svg xmlns="http://www.w3.org/2000/svg" viewBox="0 0 414 480">
  <path d="M 316 220 Q 317 220 319 221 L 319 221 L 319 221 Q 320 222 322 223 Q 366 244 384 284 Q 396 312 392 351 Q 388 390 353 427 Q 302 480 211 480 L 210 480 L 210 480 Q 105 479 50 410 Q 1 348 0 240 L 0 240 L 0 240 L 0 240 L 0 240 Q 1 132 50 70 Q 105 1 210 0 L 211 0 L 211 0 Q 317 1 373 70 Q 401 104 414 152 L 373 162 L 373 162 Q 363 124 341 97 Q 297 43 211 42 Q 125 43 82 97 Q 43 147 42 240 Q 43 333 82 383 Q 125 437 211 438 Q 285 438 324 397 Q 348 372 351 346 Q 354 320 346 301 Q 336 279 314 266 Q 308 306 289 331 Q 263 364 216 366 Q 180 368 152 350 Q 121 328 118 291 Q 117 254 142 231 Q 168 208 213 204 Q 245 203 273 207 Q 269 185 258 172 Q 243 154 212 154 L 211 154 L 211 154 Q 198 154 183 159 Q 169 165 158 181 L 123 157 L 123 157 Q 153 113 211 112 L 212 112 L 212 112 Q 308 115 316 220 L 315 220 L 316 220 Z M 160 289 Q 161 307 177 316 L 177 316 L 177 316 Q 194 325 214 324 Q 234 324 252 310 Q 269 296 274 251 Q 254 246 230 246 Q 223 246 216 247 Q 184 249 171 261 Q 158 274 160 288 L 160 288 L 160 289 Z" />
</svg>