<svg xmlns="http://www.w3.org/2000/svg" viewBox="0 0 448 448">
  <path d="M 64 32 Q 50 32 41 41 L 41 41 L 41 41 Q 32 50 32 64 L 32 384 L 32 384 Q 32 398 41 407 Q 50 416 64 416 L 384 416 L 384 416 Q 398 416 407 407 Q 416 398 416 384 L 416 64 L 416 64 Q 416 50 407 41 Q 398 32 384 32 L 64 32 L 64 32 Z M 0 64 Q 1 37 19 19 L 19 19 L 19 19 Q 37 1 64 0 L 384 0 L 384 0 Q 411 1 429 19 Q 447 37 448 64 L 448 384 L 448 384 Q 447 411 429 429 Q 411 447 384 448 L 64 448 L 64 448 Q 37 447 19 429 Q 1 411 0 384 L 0 64 L 0 64 Z M 235 146 L 288 192 L 235 146 L 288 192 L 340 182 L 340 182 Q 336 176 336 168 Q 338 146 360 144 Q 382 146 384 168 Q 382 189 361 192 L 305 317 L 305 317 Q 295 335 275 336 L 173 336 L 173 336 Q 153 335 143 317 L 87 192 L 87 192 Q 66 189 64 168 Q 66 146 88 144 Q 110 146 112 168 Q 112 176 108 182 L 160 192 L 160 192 L 213 146 L 213 146 Q 199 139 198 122 Q 200 98 224 96 Q 248 98 250 122 Q 249 139 235 146 L 235 146 Z" />
</svg>