<svg xmlns="http://www.w3.org/2000/svg" viewBox="0 0 512 512">
  <path d="M 427.35483 425.2903 Q 426.32257 462.4516 401.5484 486.19354 L 401.5484 486.19354 Q 376.7742 510.96774 340.64517 512 Q 303.48386 510.96774 278.7097 486.19354 Q 253.93549 462.4516 253.93549 425.2903 Q 253.93549 388.12903 278.7097 364.3871 Q 303.48386 339.6129 340.64517 338.58066 Q 376.7742 339.6129 401.5484 364.3871 Q 426.32257 388.12903 427.35483 425.2903 L 427.35483 425.2903 Z M 340.64517 173.41936 Q 376.7742 172.3871 399.48386 147.6129 L 399.48386 147.6129 Q 422.19354 123.870964 423.2258 86.70968 Q 422.19354 49.548386 399.48386 25.806452 Q 376.7742 1.032258 340.64517 0 Q 303.48386 1.032258 276.64517 25.806452 Q 250.83871 49.548386 249.80646 86.70968 Q 248.7742 122.83871 228.12903 143.48387 Q 207.48387 165.16129 171.35484 165.16129 Q 134.19354 166.19354 109.41936 193.03226 Q 84.645164 218.83871 84.645164 256 Q 84.645164 292.12903 109.41936 314.8387 Q 134.19354 337.5484 171.35484 338.58066 Q 207.48387 337.5484 232.25807 314.8387 Q 257.03226 292.12903 258.0645 256 Q 258.0645 219.87097 280.7742 197.16129 Q 303.48386 174.45161 340.64517 173.41936 L 340.64517 173.41936 Z" />
</svg>