<svg xmlns="http://www.w3.org/2000/svg" viewBox="0 0 448 448">
  <path d="M 448 64 Q 447 37 429 19 L 429 19 L 429 19 Q 411 1 384 0 L 64 0 L 64 0 Q 37 1 19 19 Q 1 37 0 64 L 0 384 L 0 384 Q 1 411 19 429 Q 37 447 64 448 L 384 448 L 384 448 Q 411 447 429 429 Q 447 411 448 384 L 448 64 L 448 64 Z M 319 278 Q 253 362 208 362 Q 180 362 161 311 Q 155 290 150 272 Q 150 272 150 271 Q 137 220 127 192 Q 117 165 104 164 Q 100 164 79 179 L 64 160 L 64 160 Q 74 151 83 143 Q 84 142 85 142 Q 85 141 85 141 Q 107 121 126 106 Q 145 91 158 90 Q 195 86 204 141 Q 218 237 231 257 Q 244 276 271 231 Q 291 199 292 183 Q 294 159 278 156 Q 263 154 247 161 Q 271 83 337 86 Q 387 87 384 150 Q 382 196 319 278 L 319 278 Z" />
</svg>