<svg xmlns="http://www.w3.org/2000/svg" viewBox="0 0 448 448">
  <path d="M 384 0 L 64 0 L 384 0 L 64 0 Q 37 1 19 19 Q 1 37 0 64 L 0 384 L 0 384 Q 1 411 19 429 Q 37 447 64 448 L 137 448 L 137 448 L 134 447 L 134 447 Q 132 424 132 408 Q 132 392 136 371 Q 141 350 150 313 Q 150 313 150 313 Q 156 289 164 255 Q 164 254 160 244 Q 157 235 157 218 Q 158 183 176 168 Q 194 154 213 160 Q 231 167 232 193 Q 231 214 221 243 Q 216 259 212 275 Q 208 294 219 306 Q 230 319 248 319 Q 282 318 303 288 Q 325 257 326 207 Q 325 162 297 135 Q 269 108 223 107 Q 170 109 141 140 Q 112 171 112 214 Q 112 230 117 245 Q 123 260 130 270 Q 133 273 132 277 Q 130 285 127 296 Q 126 302 125 304 Q 124 311 117 308 Q 94 296 81 268 Q 67 241 67 213 Q 67 152 109 109 Q 150 66 229 64 Q 295 65 337 104 Q 379 144 381 206 Q 380 271 345 314 Q 310 357 253 359 Q 234 358 219 350 Q 204 342 197 330 Q 196 333 191 355 Q 185 378 182 389 Q 178 404 170 419 Q 162 435 154 448 L 384 448 L 384 448 Q 411 447 429 429 Q 447 411 448 384 L 448 64 L 448 64 Q 447 37 429 19 Q 411 1 384 0 L 384 0 Z" />
</svg>