<svg xmlns="http://www.w3.org/2000/svg" viewBox="0 0 512 512">
  <path d="M 457.14285 0 L 54.857143 0 Q 32 1.1428572 16 16 Q 1.1428572 32 0 54.857143 L 0 457.14285 Q 1.1428572 480 16 496 Q 32 510.85715 54.857143 512 L 457.14285 512 Q 480 510.85715 496 496 Q 510.85715 480 512 457.14285 L 512 54.857143 Q 510.85715 32 496 16 Q 480 1.1428572 457.14285 0 L 457.14285 0 Z M 438.85715 171.42857 Q 436.57144 224 364.57144 317.7143 Q 289.14285 413.7143 237.71428 413.7143 Q 205.71428 413.7143 184 355.42856 Q 177.14285 331.42856 171.42857 310.85715 Q 156.57143 251.42857 145.14285 219.42857 Q 133.71428 188.57143 118.85714 187.42857 Q 114.28571 187.42857 90.28571 204.57143 L 73.14286 182.85715 Q 84.57143 172.57143 97.14286 162.28572 Q 122.28571 138.28572 144 121.14286 Q 165.71428 104 180.57143 102.85714 Q 222.85715 98.28571 233.14285 161.14285 Q 249.14285 270.85715 264 293.7143 Q 278.85715 315.42856 309.7143 264 Q 332.57144 227.42857 333.7143 209.14285 Q 336 181.71428 317.7143 178.28572 Q 300.57144 176 282.2857 184 Q 309.7143 94.85714 385.14285 98.28571 Q 442.2857 99.42857 438.85715 171.42857 L 438.85715 171.42857 Z" />
</svg>