<svg xmlns="http://www.w3.org/2000/svg" viewBox="0 0 448 448">
  <path d="M 448 64 Q 447 37 429 19 L 429 19 L 429 19 Q 411 1 384 0 L 64 0 L 64 0 Q 37 1 19 19 Q 1 37 0 64 L 0 384 L 0 384 Q 1 411 19 429 Q 37 447 64 448 L 384 448 L 384 448 Q 411 447 429 429 Q 447 411 448 384 L 448 64 L 448 64 Z M 266 376 Q 266 373 266 364 Q 266 345 266 320 Q 265 297 255 290 Q 284 288 307 276 Q 329 263 331 217 Q 330 192 314 178 Q 315 174 317 162 Q 318 150 312 133 Q 300 131 284 140 Q 268 149 266 150 Q 266 150 266 150 Q 246 145 225 145 Q 203 145 183 150 Q 181 149 165 140 Q 149 131 137 133 Q 131 150 132 162 Q 134 174 136 178 Q 120 192 120 217 Q 121 263 143 275 Q 165 288 194 290 Q 187 296 184 312 Q 176 316 161 316 Q 147 316 135 298 Q 128 287 119 284 Q 111 281 110 281 Q 99 282 103 286 Q 107 291 109 291 Q 117 296 122 305 Q 127 314 127 315 Q 137 336 159 336 Q 181 337 183 335 Q 183 342 183 350 Q 183 359 183 366 Q 183 370 183 373 Q 183 375 184 376 Q 184 384 172 384 Q 122 366 91 324 Q 61 281 60 225 Q 61 155 106 110 Q 151 65 222 64 Q 292 65 339 110 Q 386 155 388 225 Q 387 281 357 324 Q 328 366 277 384 Q 265 384 266 376 L 266 376 Z M 175 321 Q 175 318 178 318 Q 182 318 182 320 Q 182 322 179 323 Q 176 323 175 321 L 175 321 Z M 166 324 Q 163 324 162 322 Q 163 320 166 319 Q 169 319 170 322 Q 169 324 166 324 L 166 324 Z M 152 322 Q 149 321 149 319 Q 150 317 153 317 Q 156 318 156 321 Q 155 323 152 322 L 152 322 Z M 139 315 Q 137 312 138 311 Q 140 309 143 311 Q 145 314 144 315 Q 142 317 139 315 L 139 315 Z M 131 305 Q 129 302 131 301 Q 133 300 135 302 Q 136 305 135 306 Q 133 307 131 305 L 131 305 Z M 125 296 Q 123 294 124 292 Q 126 291 128 293 Q 129 295 128 296 Q 126 298 125 296 L 125 296 Z M 119 289 Q 117 288 117 287 Q 118 286 120 286 Q 122 288 121 289 Q 121 290 119 289 L 119 289 Z" />
</svg>