<svg xmlns="http://www.w3.org/2000/svg" viewBox="0 0 512 512">
  <path d="M 210.28572 165.71428 Q 211.42857 146.28572 224 133.71428 L 224 133.71428 Q 236.57143 121.14286 256 120 Q 275.42856 121.14286 288 133.71428 Q 300.57144 146.28572 301.7143 165.71428 Q 300.57144 185.14285 288 197.71428 Q 275.42856 210.28572 256 211.42857 Q 236.57143 210.28572 224 197.71428 Q 211.42857 185.14285 210.28572 165.71428 L 210.28572 165.71428 Z M 512 54.857143 L 512 457.14285 Q 510.85715 480 496 496 Q 480 510.85715 457.14285 512 L 54.857143 512 Q 32 510.85715 16 496 Q 1.1428572 480 0 457.14285 L 0 54.857143 Q 1.1428572 32 16 16 Q 32 1.1428572 54.857143 0 L 457.14285 0 Q 480 1.1428572 496 16 Q 510.85715 32 512 54.857143 L 512 54.857143 Z M 163.42857 165.71428 Q 164.57143 204.57143 190.85715 230.85715 L 190.85715 230.85715 Q 217.14285 257.14285 256 258.2857 Q 294.85715 257.14285 321.14285 230.85715 Q 347.42856 204.57143 348.57144 165.71428 Q 347.42856 126.85714 321.14285 100.57143 Q 294.85715 74.28571 256 73.14286 Q 217.14285 74.28571 190.85715 100.57143 Q 164.57143 126.85714 163.42857 165.71428 L 163.42857 165.71428 Z M 362.2857 269.7143 Q 358.85715 260.57144 348.57144 258.2857 L 348.57144 258.2857 Q 338.2857 254.85715 323.42856 265.14285 Q 323.42856 266.2857 305.14285 275.42856 Q 288 284.57144 256 285.7143 Q 224 284.57144 206.85715 275.42856 Q 188.57143 266.2857 188.57143 265.14285 Q 188.57143 265.14285 188.57143 265.14285 Q 173.71428 254.85715 163.42857 258.2857 Q 153.14285 260.57144 149.71428 269.7143 Q 142.85715 282.2857 149.71428 291.42856 Q 156.57143 300.57144 173.71428 312 Q 188.57143 321.14285 206.85715 325.7143 Q 225.14285 330.2857 238.85715 331.42856 L 224 345.14285 Q 201.14285 368 182.85715 386.2857 Q 176 394.2857 169.14285 400 Q 156.57143 417.14285 170.28572 432 Q 184 445.7143 201.14285 433.14285 L 256 378.2857 Q 256 378.2857 256 378.2857 Q 289.14285 410.2857 310.85715 433.14285 Q 328 445.7143 341.7143 432 Q 356.57144 417.14285 342.85715 400 L 289.14285 345.14285 L 274.2857 331.42856 Q 288 330.2857 305.14285 325.7143 Q 323.42856 321.14285 338.2857 312 Q 355.42856 300.57144 362.2857 291.42856 Q 369.14285 282.2857 362.2857 269.7143 L 362.2857 269.7143 Z" />
</svg>