<svg xmlns="http://www.w3.org/2000/svg" viewBox="0 0 448 448">
  <path d="M 64 0 Q 37 1 19 19 L 19 19 L 19 19 Q 1 37 0 64 L 0 384 L 0 384 Q 1 411 19 429 Q 37 447 64 448 L 384 448 L 384 448 Q 411 447 429 429 Q 447 411 448 384 L 448 64 L 448 64 Q 447 37 429 19 Q 411 1 384 0 L 64 0 L 64 0 Z M 361 84 L 257 203 L 361 84 L 257 203 L 379 364 L 379 364 L 284 364 L 284 364 L 209 266 L 209 266 L 123 364 L 123 364 L 76 364 L 76 364 L 187 237 L 187 237 L 70 84 L 70 84 L 168 84 L 168 84 L 235 174 L 235 174 L 314 84 L 314 84 L 361 84 L 361 84 Z M 323 336 L 153 111 L 323 336 L 153 111 L 125 111 L 125 111 L 297 336 L 297 336 L 323 336 L 323 336 Z" />
</svg>