<svg xmlns="http://www.w3.org/2000/svg" viewBox="0 0 512 512">
  <path d="M 457.14285 0 L 54.857143 0 Q 32 0 16 16 Q 0 32 0 54.857143 L 0 457.14285 Q 0 480 16 496 Q 32 512 54.857143 512 L 211.42857 512 L 211.42857 338.2857 L 139.42857 338.2857 L 139.42857 256 L 211.42857 256 L 211.42857 193.14285 Q 212.57143 140.57143 241.14285 112 Q 269.7143 83.42857 318.85715 83.42857 Q 342.85715 83.42857 362.2857 85.71429 Q 380.57144 88 381.7143 89.14286 Q 381.7143 89.14286 381.7143 89.14286 L 381.7143 158.85715 L 346.2857 158.85715 Q 320 158.85715 309.7143 172.57143 Q 299.42856 185.14285 300.57144 202.28572 L 300.57144 256 L 379.42856 256 L 366.85715 338.2857 L 300.57144 338.2857 L 300.57144 512 L 457.14285 512 Q 480 512 496 496 Q 512 480 512 457.14285 L 512 54.857143 Q 512 32 496 16 Q 480 0 457.14285 0 L 457.14285 0 Z" />
</svg>