<svg xmlns="http://www.w3.org/2000/svg" viewBox="0 0 448 448">
  <path d="M 194 180 Q 170 197 171 228 Q 174 258 200 272 Q 228 284 254 268 Q 278 251 277 221 Q 274 190 248 176 Q 220 164 194 180 L 194 180 Z M 337 111 Q 329 103 318 99 Q 304 94 280 93 Q 255 92 235 93 Q 232 93 229 93 Q 226 93 224 93 Q 219 93 213 93 Q 192 92 168 93 Q 144 94 130 99 Q 119 103 111 111 Q 103 119 99 130 Q 94 144 93 168 Q 92 192 93 212 Q 93 212 93 213 Q 93 216 93 219 Q 93 222 93 224 Q 93 229 93 235 Q 93 236 93 236 Q 92 256 93 280 Q 94 304 99 318 Q 103 329 111 337 Q 119 345 130 349 Q 144 354 168 355 Q 193 356 213 355 Q 216 355 219 355 Q 222 355 224 355 Q 229 355 235 355 Q 256 356 280 355 Q 304 354 318 349 Q 329 345 337 337 Q 345 329 349 318 Q 354 304 355 280 Q 356 256 355 235 Q 355 232 355 229 Q 355 226 355 224 Q 355 219 355 213 Q 356 192 355 168 Q 354 144 349 130 L 349 130 L 349 130 Q 345 119 337 111 L 337 111 Z M 270 156 Q 307 183 306 229 Q 301 276 260 298 Q 218 317 178 292 Q 141 265 142 219 Q 147 172 188 150 Q 230 131 270 156 L 270 156 Z M 299 154 Q 294 151 292 146 Q 290 141 291 135 Q 292 129 296 125 Q 300 121 306 120 Q 311 119 317 121 Q 322 123 325 128 Q 328 133 329 138 Q 328 142 327 146 Q 326 149 323 152 Q 320 155 317 156 Q 313 158 310 158 L 310 158 L 310 158 Q 304 158 299 154 L 299 154 Z M 448 64 Q 447 37 429 19 L 429 19 L 429 19 Q 411 1 384 0 L 64 0 L 64 0 Q 37 1 19 19 Q 1 37 0 64 L 0 384 L 0 384 Q 1 411 19 429 Q 37 447 64 448 L 384 448 L 384 448 Q 411 447 429 429 Q 447 411 448 384 L 448 64 L 448 64 Z M 357 357 Q 329 383 290 383 Q 276 384 250 384 Q 224 384 198 384 Q 172 384 158 383 Q 119 383 91 357 Q 65 329 65 290 Q 64 276 64 250 Q 64 224 64 198 Q 64 172 65 158 Q 65 119 91 91 Q 119 65 158 65 Q 172 64 198 64 Q 224 64 250 64 Q 276 64 290 65 Q 329 65 357 91 Q 383 119 383 158 Q 384 181 384 224 Q 384 267 383 290 Q 383 329 357 357 L 357 357 Z" />
</svg>