<svg xmlns="http://www.w3.org/2000/svg" viewBox="0 0 448 448">
  <path d="M 384 0 Q 411 1 429 19 L 429 19 L 429 19 Q 447 37 448 64 L 448 384 L 448 384 Q 447 411 429 429 Q 411 447 384 448 L 64 448 L 64 448 Q 37 447 19 429 Q 1 411 0 384 L 0 64 L 0 64 Q 1 37 19 19 Q 37 1 64 0 L 384 0 L 384 0 Z M 105 155 Q 75 156 56 175 L 56 175 L 56 175 Q 36 195 35 225 Q 36 255 56 275 Q 75 294 105 295 Q 144 293 164 263 L 165 262 L 165 262 L 164 261 L 164 261 Q 154 245 154 225 Q 154 204 165 188 Q 144 157 105 155 L 105 155 Z M 224 155 Q 185 157 165 187 L 165 188 L 165 188 L 165 189 L 165 189 Q 175 205 175 225 Q 175 246 164 262 Q 185 293 224 295 Q 263 293 283 263 L 284 262 L 284 262 L 283 261 L 283 261 Q 273 245 273 225 Q 273 204 284 188 Q 263 157 224 155 L 224 155 Z M 343 155 Q 304 157 284 187 L 283 188 L 283 188 L 284 189 L 284 189 Q 294 205 294 225 Q 294 246 283 262 Q 304 293 343 295 Q 373 294 392 275 Q 412 255 413 225 Q 412 195 392 175 Q 373 156 343 155 L 343 155 Z" />
</svg>