<svg xmlns="http://www.w3.org/2000/svg" viewBox="0 0 448 448">
  <path d="M 448 64 Q 447 37 429 19 L 429 19 L 429 19 Q 411 1 384 0 L 64 0 L 64 0 Q 37 1 19 19 Q 1 37 0 64 L 0 384 L 0 384 Q 1 411 19 429 Q 37 447 64 448 L 384 448 L 384 448 Q 411 447 429 429 Q 447 411 448 384 L 448 64 L 448 64 Z M 181 413 Q 156 412 140 402 L 140 402 L 140 402 Q 125 391 118 374 L 152 354 L 152 354 Q 160 373 179 375 Q 201 378 202 349 L 202 206 L 202 206 L 244 206 L 244 206 L 244 349 L 244 349 Q 243 382 226 398 Q 209 413 181 413 L 181 413 Z M 267 370 L 301 350 L 267 370 L 301 350 Q 313 374 343 376 Q 370 374 371 355 Q 371 344 363 339 Q 355 333 340 327 L 330 322 L 330 322 Q 307 313 293 299 Q 280 284 279 259 Q 280 235 296 219 Q 313 204 341 203 Q 381 202 401 237 L 368 258 L 368 258 Q 358 239 341 240 Q 322 241 321 258 Q 320 274 347 284 L 357 288 L 357 288 Q 384 299 399 314 Q 413 328 413 354 Q 412 383 393 398 Q 374 413 343 413 Q 285 410 267 370 L 267 370 Z" />
</svg>