<svg xmlns="http://www.w3.org/2000/svg" viewBox="0 0 512 510">
  <path d="M 512 256 Q 511 184 477 127 L 477 127 L 477 127 Q 443 69 385 35 L 385 35 L 385 35 Q 328 1 256 0 Q 184 1 127 35 Q 69 69 35 127 Q 1 184 0 256 Q 2 348 55 415 Q 109 482 194 505 L 194 334 L 194 334 L 141 334 L 141 334 L 141 256 L 141 256 L 194 256 L 194 256 L 194 222 L 194 222 Q 193 93 319 95 Q 332 95 349 97 Q 365 99 375 101 L 375 172 L 375 172 Q 365 171 345 171 Q 314 171 300 184 Q 287 198 287 228 L 287 256 L 287 256 L 371 256 L 371 256 L 356 334 L 356 334 L 287 334 L 287 334 L 287 510 L 287 510 Q 384 496 447 426 Q 510 356 512 256 L 512 256 L 512 256 Z" />
</svg>