<svg xmlns="http://www.w3.org/2000/svg" viewBox="0 0 448 448">
  <path d="M 448 64 Q 447 37 429 19 L 429 19 L 429 19 Q 411 1 384 0 L 64 0 L 64 0 Q 37 1 19 19 Q 1 37 0 64 L 0 384 L 0 384 Q 1 411 19 429 Q 37 447 64 448 L 384 448 L 384 448 Q 411 447 429 429 Q 447 411 448 384 L 448 64 L 448 64 Z M 211 249 Q 209 243 207 238 L 207 238 L 207 238 Q 206 235 206 233 Q 206 233 206 233 Q 197 201 186 183 Q 174 165 148 165 Q 130 164 117 178 Q 103 192 103 226 Q 103 252 115 268 Q 127 283 146 283 Q 168 282 180 272 Q 193 263 194 262 L 205 294 L 205 294 Q 205 295 190 303 Q 175 312 144 313 Q 66 312 64 227 Q 65 138 147 135 Q 196 136 214 159 Q 232 183 243 224 Q 244 228 246 233 Q 247 235 247 237 Q 254 257 267 270 Q 281 283 309 283 Q 346 284 347 264 Q 346 252 335 246 Q 325 241 307 238 Q 307 238 307 238 Q 306 237 305 237 Q 301 236 297 236 Q 253 225 254 188 Q 255 158 275 146 Q 294 135 320 135 Q 377 134 383 182 L 346 186 L 346 186 Q 344 163 317 164 Q 292 164 291 184 Q 290 200 312 205 Q 315 206 319 206 Q 343 210 363 221 Q 383 232 384 262 Q 383 290 363 301 Q 342 313 308 313 Q 261 312 240 294 Q 219 276 211 249 L 211 249 Z" />
</svg>