<svg xmlns="http://www.w3.org/2000/svg" viewBox="0 0 448 448">
  <path d="M 448 64 Q 447 37 429 19 L 429 19 L 429 19 Q 411 1 384 0 L 64 0 L 64 0 Q 37 1 19 19 Q 1 37 0 64 L 0 384 L 0 384 Q 1 411 19 429 Q 37 447 64 448 L 384 448 L 384 448 Q 411 447 429 429 Q 447 411 448 384 L 448 64 L 448 64 Z M 94 288 Q 85 287 88 278 L 137 191 L 137 191 Q 137 191 137 191 L 106 137 L 106 137 Q 102 128 112 127 L 158 127 L 158 127 Q 166 127 171 136 L 203 191 L 203 191 Q 201 194 153 279 Q 148 288 140 288 L 94 288 L 94 288 Z M 257 255 L 257 255 L 257 255 L 257 255 L 323 374 L 323 374 Q 326 383 317 384 L 270 384 L 270 384 Q 262 384 257 375 L 191 255 L 191 255 Q 194 250 255 144 Q 265 126 276 106 Q 285 90 295 73 Q 300 64 307 64 L 354 64 L 354 64 Q 363 65 360 74 L 257 255 L 257 255 Z" />
</svg>