<svg xmlns="http://www.w3.org/2000/svg" viewBox="0 0 512 512">
  <path d="M 102.85714 224 Q 110.85714 187.42857 133.71428 158.85715 L 133.71428 158.85715 Q 156.57143 130.28572 189.71428 115.42857 Q 193.14285 120 210.28572 145.14285 Q 227.42857 170.28572 248 205.71428 Q 190.85715 219.42857 150.85715 221.71428 Q 109.71429 225.14285 102.85714 224 L 102.85714 224 Z M 360 139.42857 Q 330.2857 114.28571 293.7143 105.14286 L 293.7143 105.14286 Q 257.14285 96 219.42857 104 Q 224 109.71429 241.14285 134.85715 Q 257.14285 160 277.7143 195.42857 Q 318.85715 179.42857 338.2857 161.14285 Q 357.7143 144 360 139.42857 L 360 139.42857 Z M 160 379.42856 Q 195.42857 406.85715 236.57143 411.42856 L 236.57143 411.42856 Q 278.85715 416 316.57144 400 Q 315.42856 388.57144 307.42856 356.57144 Q 299.42856 324.57144 283.42856 281.14285 Q 236.57143 298.2857 204.57143 325.7143 Q 172.57143 353.14285 160 379.42856 L 160 379.42856 Z M 273.14285 256 Q 267.42856 242.28572 260.57144 229.71428 Q 200 245.71428 153.14285 249.14285 Q 107.42857 252.57143 99.42857 251.42857 Q 99.42857 252.57143 99.42857 253.71428 Q 99.42857 254.85715 99.42857 256 Q 101.71429 317.7143 139.42857 361.14285 Q 160 326.85715 194.28572 298.2857 Q 229.71428 268.57144 273.14285 256 L 273.14285 256 Z M 313.14285 274.2857 Q 328 317.7143 334.85715 347.42856 L 334.85715 347.42856 Q 341.7143 378.2857 342.85715 386.2857 Q 397.7143 348.57144 410.2857 281.14285 Q 405.7143 278.85715 378.2857 274.2857 Q 350.85715 269.7143 313.14285 274.2857 L 313.14285 274.2857 Z M 290.2857 219.42857 Q 297.14285 235.42857 304 250.28572 Q 344 245.71428 374.85715 249.14285 Q 406.85715 252.57143 412.57144 254.85715 Q 410.2857 198.85715 377.14285 157.71428 Q 374.85715 162.28572 354.2857 180.57143 Q 332.57144 200 290.2857 219.42857 L 290.2857 219.42857 Z M 512 54.857143 L 512 457.14285 Q 510.85715 480 496 496 Q 480 510.85715 457.14285 512 L 54.857143 512 Q 32 510.85715 16 496 Q 1.1428572 480 0 457.14285 L 0 54.857143 Q 1.1428572 32 16 16 Q 32 1.1428572 54.857143 0 L 457.14285 0 Q 480 1.1428572 496 16 Q 510.85715 32 512 54.857143 L 512 54.857143 Z M 438.85715 256 Q 436.57144 178.28572 385.14285 126.85714 L 385.14285 126.85714 Q 333.7143 75.42857 256 73.14286 Q 178.28572 75.42857 126.85714 126.85714 Q 75.42857 178.28572 73.14286 256 Q 75.42857 333.7143 126.85714 385.14285 Q 178.28572 436.57144 256 438.85715 Q 333.7143 436.57144 385.14285 385.14285 Q 436.57144 333.7143 438.85715 256 L 438.85715 256 Z" />
</svg>