<svg xmlns="http://www.w3.org/2000/svg" viewBox="0 0 512 512">
  <path d="M 54.857143 0 L 457.14285 0 Q 480 1.1428572 496 16 Q 510.85715 32 512 54.857143 L 512 457.14285 Q 510.85715 480 496 496 Q 480 510.85715 457.14285 512 L 54.857143 512 Q 32 510.85715 16 496 Q 1.1428572 480 0 457.14285 L 0 54.857143 Q 1.1428572 32 16 16 Q 32 1.1428572 54.857143 0 L 54.857143 0 Z M 436.57144 220.57143 L 386.2857 88 Q 384 83.42857 380.57144 81.14286 Q 377.14285 78.85714 374.85715 78.85714 Q 371.42856 78.85714 368 80 Q 365.7143 81.14286 363.42856 83.42857 Q 361.14285 85.71429 360 89.14286 L 325.7143 194.28572 L 185.14285 194.28572 L 152 89.14286 Q 150.85715 85.71429 148.57143 83.42857 Q 147.42857 82.28571 146.28572 81.14286 Q 145.14285 80 144 80 Q 142.85715 80 141.71428 78.85714 Q 139.42857 77.71429 137.14285 78.85714 Q 134.85715 78.85714 131.42857 81.14286 Q 128 83.42857 126.85714 88 L 75.42857 220.57143 L 74.28571 221.71428 Q 64 251.42857 72 282.2857 Q 81.14286 312 106.28571 331.42856 L 106.28571 331.42856 L 107.42857 331.42856 L 184 389.7143 L 246.85715 436.57144 Q 250.28572 438.85715 256 440 Q 259.42856 440 264 437.7143 Q 264 436.57144 265.14285 436.57144 L 326.85715 389.7143 L 405.7143 331.42856 L 405.7143 331.42856 Q 430.85715 312 440 282.2857 Q 448 251.42857 437.7143 221.71428 L 436.57144 220.57143 L 436.57144 220.57143 Z" />
</svg>