<svg xmlns="http://www.w3.org/2000/svg" viewBox="0 0 512 512">
  <path d="M 452.26666 201.06667 Q 427.73334 201.06667 411.73334 217.06667 Q 353.06668 176.53334 265.6 172.26666 L 295.46667 38.933334 L 389.33334 60.266666 Q 390.4 78.4 402.13333 90.13333 Q 413.86667 101.86667 430.93332 101.86667 Q 449.06668 101.86667 461.86667 90.13333 Q 473.6 77.333336 473.6 60.266666 Q 473.6 42.133335 461.86667 30.4 Q 449.06668 17.6 430.93332 17.6 Q 405.33334 18.666666 393.6 41.066666 L 290.13333 17.6 Q 281.6 16.533333 278.4 25.066668 L 245.33333 172.26666 Q 158.93333 177.6 100.26667 218.13333 Q 84.26667 201.06667 59.733334 201.06667 Q 29.866667 202.13333 14.933333 222.4 Q 0 242.66667 4.266667 267.2 Q 8.533334 292.8 35.2 307.73334 Q 32 320.53333 32 333.33334 Q 34.133335 402.66666 98.13333 448.53333 Q 161.06667 493.33334 256 495.46667 Q 352 493.33334 414.93332 448.53333 Q 478.93332 402.66666 481.06668 333.33334 Q 481.06668 319.46667 477.86667 306.66666 Q 504.53333 291.73334 507.73334 267.2 Q 512 242.66667 497.06668 222.4 Q 482.13333 202.13333 452.26666 200 L 452.26666 201.06667 Z M 120.53333 313.06668 Q 121.6 294.93332 133.33333 283.2 L 133.33333 283.2 Q 145.06667 271.46667 163.2 270.4 Q 181.33333 271.46667 193.06667 283.2 Q 204.8 294.93332 204.8 313.06668 Q 204.8 331.2 193.06667 342.93332 Q 181.33333 354.66666 163.2 354.66666 Q 145.06667 354.66666 133.33333 342.93332 Q 121.6 331.2 120.53333 313.06668 L 120.53333 313.06668 Z M 349.86667 412.26666 Q 328.53333 432.53333 292.26666 438.93332 L 292.26666 438.93332 Q 256 445.33334 219.73334 438.93332 L 219.73334 438.93332 Q 183.46666 432.53333 162.13333 412.26666 Q 155.73334 405.86667 162.13333 398.4 Q 169.6 392 176 398.4 Q 192 413.33334 224 418.66666 Q 254.93333 424 286.93332 418.66666 Q 318.93332 413.33334 334.93332 398.4 Q 342.4 392 349.86667 398.4 Q 356.26666 405.86667 349.86667 412.26666 L 349.86667 412.26666 Z M 348.8 354.66666 Q 330.66666 354.66666 318.93332 342.93332 L 318.93332 342.93332 Q 307.2 331.2 307.2 313.06668 Q 307.2 294.93332 318.93332 283.2 Q 330.66666 271.46667 348.8 270.4 Q 366.93332 271.46667 378.66666 283.2 Q 390.4 294.93332 391.46667 313.06668 Q 390.4 331.2 378.66666 342.93332 Q 366.93332 354.66666 348.8 354.66666 L 348.8 354.66666 Z" />
</svg>