<svg xmlns="http://www.w3.org/2000/svg" viewBox="0 0 641 287">
  <path d="M 641 202 Q 638 237 612 262 Q 586 286 550 286 L 332 286 L 332 286 Q 325 286 319 281 Q 314 275 314 268 L 314 33 L 314 33 Q 314 27 317 22 Q 320 17 326 14 Q 326 13 341 7 Q 357 1 388 0 Q 428 0 462 20 Q 488 36 506 60 Q 524 85 530 115 Q 541 112 553 112 Q 571 111 587 118 Q 604 125 616 138 Q 628 151 635 167 Q 641 184 641 202 L 641 202 Z M 287 48 Q 287 47 287 45 Q 286 44 285 43 Q 284 41 283 41 Q 281 40 280 40 Q 278 40 277 41 Q 275 42 274 43 Q 273 44 273 45 Q 272 47 273 48 Q 268 107 266 164 Q 265 221 273 280 Q 273 282 275 284 Q 277 286 280 286 Q 282 286 284 284 Q 286 282 287 280 Q 295 221 293 164 Q 292 107 287 48 L 287 48 Z M 243 75 Q 242 73 240 71 Q 238 69 235 69 Q 233 69 230 71 Q 228 73 228 75 Q 216 178 228 280 Q 229 283 231 284 Q 233 286 235 286 Q 238 286 240 284 Q 242 282 243 280 Q 256 178 243 75 L 243 75 Z M 198 69 Q 198 66 196 64 Q 194 62 191 62 Q 189 62 187 64 Q 185 66 184 69 Q 179 122 178 174 Q 177 226 184 280 Q 184 283 186 285 Q 189 287 191 287 Q 194 287 196 285 Q 198 282 198 280 Q 206 225 205 174 Q 204 123 199 69 L 198 69 Z M 154 89 Q 154 86 152 84 Q 150 82 147 82 Q 144 82 142 84 Q 140 86 140 89 Q 128 185 140 280 Q 140 283 142 285 Q 144 286 147 286 Q 150 286 152 285 Q 154 283 154 280 Q 167 185 155 89 L 154 89 Z M 110 137 Q 110 134 108 132 Q 106 130 103 129 Q 100 130 98 132 Q 96 134 96 137 Q 88 173 90 208 Q 91 243 96 280 Q 96 283 98 285 Q 100 286 103 286 Q 105 286 107 285 Q 109 283 110 280 Q 115 243 116 208 Q 118 173 110 137 L 110 137 Z M 66 129 Q 66 126 64 124 Q 61 122 59 123 Q 56 123 54 124 Q 51 126 51 129 Q 44 166 45 201 Q 46 236 51 274 Q 53 279 59 279 Q 64 279 66 274 Q 72 236 72 201 Q 73 167 66 129 L 66 129 Z M 21 154 Q 21 151 19 149 Q 17 147 14 147 Q 11 147 9 149 Q 7 151 6 154 Q 0 179 1 201 Q 2 224 7 249 Q 7 252 9 254 Q 11 255 14 255 Q 17 255 19 254 Q 21 252 21 249 Q 27 224 28 201 Q 29 179 21 154 L 21 154 Z" />
</svg>