<svg xmlns="http://www.w3.org/2000/svg" viewBox="0 0 448 448">
  <path d="M 64 0 Q 37 1 19 19 L 19 19 L 19 19 Q 1 37 0 64 L 0 384 L 0 384 Q 1 411 19 429 Q 37 447 64 448 L 162 448 L 162 448 L 162 302 L 162 302 L 109 302 L 109 302 L 109 224 L 109 224 L 162 224 L 162 224 L 162 190 L 162 190 Q 161 61 287 63 Q 300 63 317 65 Q 333 67 343 69 L 343 140 L 343 140 Q 333 139 313 139 Q 282 139 268 152 Q 255 166 255 196 L 255 224 L 255 224 L 339 224 L 339 224 L 324 302 L 324 302 L 255 302 L 255 302 L 255 448 L 255 448 L 384 448 L 384 448 Q 411 447 429 429 Q 447 411 448 384 L 448 64 L 448 64 Q 447 37 429 19 Q 411 1 384 0 L 64 0 L 64 0 Z" />
</svg>