<svg xmlns="http://www.w3.org/2000/svg" viewBox="0 0 512 512">
  <path d="M 457.14285 0 L 54.857143 0 Q 32 1.1428572 16 16 Q 1.1428572 32 0 54.857143 L 0 457.14285 Q 1.1428572 480 16 496 Q 32 510.85715 54.857143 512 L 457.14285 512 Q 480 510.85715 496 496 Q 510.85715 480 512 457.14285 L 512 54.857143 Q 510.85715 32 496 16 Q 480 1.1428572 457.14285 0 L 457.14285 0 Z M 160 329.14285 L 107.42857 329.14285 Q 97.14286 328 100.57143 317.7143 L 156.57143 218.28572 Q 156.57143 218.28572 156.57143 218.28572 L 121.14286 156.57143 Q 116.57143 146.28572 128 145.14285 L 180.57143 145.14285 Q 189.71428 145.14285 195.42857 155.42857 L 232 218.28572 Q 229.71428 221.71428 174.85715 318.85715 Q 169.14285 329.14285 160 329.14285 L 160 329.14285 Z M 411.42856 84.57143 L 293.7143 291.42856 L 293.7143 291.42856 L 369.14285 427.42856 Q 372.57144 437.7143 362.2857 438.85715 L 308.57144 438.85715 Q 299.42856 438.85715 293.7143 428.57144 L 218.28572 291.42856 Q 221.71428 285.7143 290.2857 164.57143 Q 310.85715 129.14285 337.14285 83.42857 Q 342.85715 73.14286 350.85715 73.14286 L 404.57144 73.14286 Q 414.85715 74.28571 411.42856 84.57143 L 411.42856 84.57143 Z" />
</svg>