<svg xmlns="http://www.w3.org/2000/svg" viewBox="0 0 448 448">
  <path d="M 64 32 Q 50 32 41 41 L 41 41 L 41 41 Q 32 50 32 64 L 32 384 L 32 384 Q 32 398 41 407 Q 50 416 64 416 L 384 416 L 384 416 Q 398 416 407 407 Q 416 398 416 384 L 416 64 L 416 64 Q 416 50 407 41 Q 398 32 384 32 L 64 32 L 64 32 Z M 0 64 Q 1 37 19 19 L 19 19 L 19 19 Q 37 1 64 0 L 384 0 L 384 0 Q 411 1 429 19 Q 447 37 448 64 L 448 384 L 448 384 Q 447 411 429 429 Q 411 447 384 448 L 64 448 L 64 448 Q 37 447 19 429 Q 1 411 0 384 L 0 64 L 0 64 Z M 154 122 Q 153 137 142 144 L 331 144 L 331 144 Q 343 145 344 157 Q 344 160 343 163 L 312 232 L 312 232 L 343 301 L 343 301 Q 344 304 344 307 Q 343 319 331 320 L 144 320 L 144 320 L 144 352 L 144 352 L 112 352 L 112 352 L 112 320 L 112 320 L 112 144 L 112 144 L 112 143 L 112 143 Q 102 135 102 122 Q 104 98 128 96 Q 152 98 154 122 L 154 122 Z" />
</svg>