<svg xmlns="http://www.w3.org/2000/svg" viewBox="0 0 448 448">
  <path d="M 448 64 Q 447 37 429 19 L 429 19 L 429 19 Q 411 1 384 0 L 64 0 L 64 0 Q 37 1 19 19 Q 1 37 0 64 L 0 384 L 0 384 Q 1 411 19 429 Q 37 447 64 448 L 384 448 L 384 448 Q 411 447 429 429 Q 447 411 448 384 L 448 64 L 448 64 Z M 21 197 Q 21 197 21 197 Q 21 197 21 197 Q 21 197 21 197 L 21 197 L 21 197 Z M 239 352 L 208 352 L 239 352 L 208 352 L 208 249 L 208 249 L 128 96 L 128 96 L 165 96 L 165 96 Q 195 152 205 175 Q 216 197 219 208 Q 219 208 219 208 Q 220 209 220 210 Q 222 216 225 222 Q 229 212 232 204 Q 232 204 232 204 Q 235 195 245 173 Q 256 151 285 96 L 320 96 L 320 96 L 239 251 L 239 251 L 239 352 L 239 352 Z" />
</svg>