<svg xmlns="http://www.w3.org/2000/svg" viewBox="0 0 512 512">
  <path d="M 115.42857 345.14285 Q 128 346.2857 138.28572 347.42856 L 138.28572 347.42856 Q 164.57143 348.57144 173.71428 349.7143 L 173.71428 349.7143 Q 182.85715 352 182.85715 358.85715 Q 180.57143 370.2857 163.42857 374.85715 Q 145.14285 378.2857 126.85714 374.85715 Q 108.57143 371.42856 107.42857 361.14285 Q 108.57143 352 115.42857 345.14285 L 115.42857 345.14285 Z M 147.42857 212.57143 Q 118.85714 214.85715 118.85714 237.71428 L 118.85714 237.71428 Q 117.71429 259.42856 146.28572 262.85715 Q 173.71428 259.42856 173.71428 237.71428 Q 173.71428 214.85715 147.42857 212.57143 L 147.42857 212.57143 Z M 512 54.857143 L 512 457.14285 Q 512 480 496 496 Q 480 512 457.14285 512 L 54.857143 512 Q 32 512 16 496 Q 0 480 0 457.14285 L 0 54.857143 Q 0 32 16 16 Q 32 0 54.857143 0 L 457.14285 0 Q 480 0 496 16 Q 512 32 512 54.857143 L 512 54.857143 Z M 252.57143 133.71428 Q 253.71428 160 278.85715 160 Q 304 160 305.14285 133.71428 Q 304 108.57143 278.85715 108.57143 Q 253.71428 108.57143 252.57143 133.71428 L 252.57143 133.71428 Z M 227.42857 186.28572 L 171.42857 186.28572 Q 146.28572 179.42857 113.14286 188.57143 Q 81.14286 196.57143 77.71429 240 Q 80 272 102.85714 283.42856 Q 102.85714 283.42856 102.85714 283.42856 Q 76.57143 305.14285 76.57143 318.85715 Q 75.42857 330.2857 89.14286 337.14285 Q 73.14286 349.7143 73.14286 366.85715 Q 69.71429 402.2857 146.28572 403.42856 Q 224 402.2857 225.14285 350.85715 Q 226.28572 323.42856 203.42857 315.42856 Q 181.71428 308.57144 133.71428 307.42856 Q 125.71429 306.2857 117.71429 306.2857 L 126.85714 290.2857 Q 137.14285 293.7143 157.71428 292.57144 Q 177.14285 291.42856 194.28572 281.14285 Q 210.28572 269.7143 211.42857 242.28572 Q 210.28572 222.85715 201.14285 212.57143 L 227.42857 211.42857 L 227.42857 186.28572 Z M 324.57144 312 L 309.7143 309.7143 Q 304 309.7143 304 304 L 304 184 L 244.57143 184 L 241.14285 206.85715 Q 245.71428 209.14285 249.14285 209.14285 Q 262.85715 212.57143 260.57144 218.28572 L 260.57144 304 Q 262.85715 310.85715 249.14285 310.85715 Q 245.71428 310.85715 241.14285 312 L 241.14285 334.85715 L 323.42856 334.85715 L 324.57144 312 Z M 438.85715 323.42856 L 430.85715 298.2857 Q 398.85715 308.57144 393.14285 298.2857 Q 386.2857 286.85715 387.42856 280 Q 387.42856 278.85715 387.42856 278.85715 L 387.42856 209.14285 L 430.85715 209.14285 L 430.85715 180.57143 L 389.7143 180.57143 Q 389.7143 180.57143 389.7143 180.57143 Q 387.42856 181.71428 387.42856 174.85715 Q 387.42856 168 387.42856 136 L 360 136 Q 357.7143 181.71428 321.14285 184 L 321.14285 209.14285 Q 328 209.14285 332.57144 209.14285 Q 347.42856 208 344 212.57143 L 344 288 Q 341.7143 336 392 334.85715 Q 418.2857 333.7143 438.85715 323.42856 L 438.85715 323.42856 Z" />
</svg>