<svg xmlns="http://www.w3.org/2000/svg" viewBox="0 0 462 512">
  <path d="M 373 331 Q 376 329 379 327 L 388 323 L 388 323 Q 389 322 392 320 Q 394 318 396 316 L 397 315 L 397 315 Q 402 310 408 310 Q 411 310 415 312 L 446 284 L 446 284 Q 447 283 448 283 L 448 283 L 448 283 Q 453 280 457 283 Q 462 286 458 294 L 425 322 L 425 322 Q 425 322 425 323 Q 425 323 425 324 Q 426 327 425 330 Q 424 332 422 334 Q 421 335 420 336 Q 419 337 417 339 L 399 352 L 399 352 Q 396 354 394 356 Q 390 357 387 359 Q 386 359 386 360 Q 385 360 384 360 Q 375 364 366 365 Q 362 402 341 433 Q 315 472 269 492 Q 224 512 171 512 Q 98 511 53 479 Q 0 442 0 380 L 0 375 L 0 375 Q 2 333 25 295 Q 47 258 91 244 Q 113 238 136 238 Q 159 238 184 246 Q 209 255 240 276 L 294 312 L 294 312 Q 317 327 335 332 Q 331 295 308 268 Q 284 241 248 228 L 225 220 L 225 220 Q 193 209 177 198 Q 135 169 130 119 L 130 110 L 130 110 Q 130 61 169 29 Q 203 0 251 0 Q 287 0 316 21 Q 345 42 348 80 L 349 90 L 349 90 Q 349 118 334 138 Q 320 158 308 158 Q 306 158 304 157 L 270 189 L 270 189 Q 262 194 259 188 Q 256 184 259 179 L 260 179 L 260 179 Q 260 178 262 177 L 293 147 L 293 147 Q 293 145 293 142 Q 292 136 297 132 Q 318 113 318 89 Q 318 65 300 48 Q 282 32 250 32 Q 211 32 186 55 Q 160 79 160 112 Q 160 139 181 160 Q 201 182 244 194 Q 304 211 335 252 Q 363 288 367 334 Q 370 332 373 331 L 373 331 Z M 262 179 Q 262 180 264 180 Q 264 180 291 156 Q 292 155 293 154 Q 293 150 277 164 Q 262 178 262 179 L 262 179 Z M 270 185 Q 270 184 269 184 Q 267 184 266 185 Q 263 185 262 186 Q 261 186 261 187 Q 261 188 263 188 L 266 188 L 266 188 Q 270 187 270 185 L 270 185 Z M 293 165 Q 293 161 288 165 Q 285 167 282 171 Q 281 172 277 176 Q 272 181 272 182 L 273 183 L 273 183 Q 273 183 273 183 Q 274 183 274 183 Q 274 183 284 175 Q 293 166 293 165 L 293 165 Z M 452 285 L 422 312 L 452 285 L 422 312 Q 425 314 426 316 L 456 289 L 456 289 Q 456 288 456 287 Q 455 286 452 285 L 452 285 Z M 451 284 L 450 284 L 451 284 L 450 284 L 423 306 L 423 306 L 425 308 L 425 308 L 451 284 L 451 284 Z M 335 364 Q 323 361 312 356 Q 289 347 255 324 L 218 299 L 218 299 Q 194 284 175 276 Q 155 269 136 269 L 131 269 L 131 269 Q 82 271 56 305 Q 31 336 31 379 Q 31 426 69 453 Q 107 480 173 480 Q 225 480 261 462 Q 297 443 316 413 Q 331 389 335 364 L 335 364 Z" />
</svg>