<svg xmlns="http://www.w3.org/2000/svg" viewBox="0 0 448 448">
  <path d="M 155 286 Q 184 288 187 261 Q 185 233 156 234 L 110 234 L 110 234 L 110 286 L 110 286 L 155 286 L 155 286 Z M 150 157 L 110 157 L 150 157 L 110 157 L 110 202 L 110 202 L 153 202 L 153 202 Q 177 202 179 179 Q 178 166 170 161 Q 162 157 150 157 L 150 157 Z M 279 232 L 342 232 L 279 232 L 342 232 Q 339 203 311 202 Q 282 203 279 232 L 279 232 Z M 384 0 L 64 0 L 384 0 L 64 0 Q 37 1 19 19 Q 1 37 0 64 L 0 384 L 0 384 Q 1 411 19 429 Q 37 447 64 448 L 384 448 L 384 448 Q 411 447 429 429 Q 447 411 448 384 L 448 64 L 448 64 Q 447 37 429 19 Q 411 1 384 0 L 384 0 Z M 350 153 L 272 153 L 350 153 L 272 153 L 272 134 L 272 134 L 350 134 L 350 134 L 350 153 L 350 153 Z M 194 212 Q 229 224 229 263 Q 228 292 208 306 Q 188 319 161 319 L 68 319 L 68 319 L 68 127 L 68 127 L 159 127 L 159 127 Q 184 127 202 137 Q 219 147 220 175 Q 220 202 194 212 L 194 212 Z M 312 173 Q 345 174 363 195 L 363 195 L 363 195 Q 380 217 380 249 Q 380 251 380 253 Q 380 253 380 254 Q 380 254 380 255 Q 380 255 380 256 L 280 256 L 280 256 Q 280 290 314 291 Q 323 291 332 286 Q 341 282 344 273 L 378 273 L 378 273 Q 362 320 312 320 Q 279 319 260 299 Q 242 280 241 247 Q 242 215 261 194 Q 280 174 312 173 L 312 173 Z" />
</svg>