<svg xmlns="http://www.w3.org/2000/svg" viewBox="0 0 448 448">
  <path d="M 64 0 Q 37 1 19 19 L 19 19 L 19 19 Q 1 37 0 64 L 0 384 L 0 384 Q 1 411 19 429 Q 37 447 64 448 L 384 448 L 384 448 Q 411 447 429 429 Q 447 411 448 384 L 448 64 L 448 64 Q 447 37 429 19 Q 411 1 384 0 L 64 0 L 64 0 Z M 154 122 Q 153 137 142 144 L 331 144 L 331 144 Q 343 145 344 157 Q 344 160 343 163 L 312 232 L 312 232 L 343 301 L 343 301 Q 344 304 344 307 Q 343 319 331 320 L 144 320 L 144 320 L 144 352 L 144 352 L 112 352 L 112 352 L 112 320 L 112 320 L 112 144 L 112 144 L 112 143 L 112 143 Q 102 135 102 122 Q 104 98 128 96 Q 152 98 154 122 L 154 122 Z" />
</svg>