<svg xmlns="http://www.w3.org/2000/svg" viewBox="0 0 641 328">
  <path d="M 594 101 Q 603 96 609 104 Q 613 112 606 118 Q 597 122 591 115 Q 587 107 594 101 L 594 101 Z M 547 113 Q 543 91 558 76 Q 575 61 596 67 Q 616 74 622 95 Q 626 117 611 132 Q 594 147 573 141 Q 553 134 547 113 L 547 113 Z M 435 245 Q 440 252 442 258 Q 443 264 448 267 Q 448 267 448 267 Q 448 267 448 267 Q 453 269 460 269 Q 468 269 468 269 Q 468 269 468 269 L 495 269 L 495 269 Q 498 269 507 269 Q 516 268 517 267 Q 513 256 501 252 Q 497 251 493 248 Q 479 241 472 227 Q 470 223 471 216 Q 472 209 474 205 Q 478 200 484 199 Q 490 198 495 199 Q 496 199 498 199 Q 502 200 507 201 Q 510 201 513 202 Q 529 204 544 203 Q 570 203 595 194 Q 612 189 627 178 Q 641 169 626 172 Q 625 172 624 172 Q 604 174 584 173 Q 565 173 548 165 Q 535 159 525 149 Q 523 146 525 143 Q 529 141 532 143 Q 552 160 581 162 Q 596 163 612 163 Q 617 162 623 162 Q 627 162 629 162 Q 630 162 631 162 Q 637 163 641 160 Q 641 159 641 158 Q 641 126 633 96 Q 625 67 594 51 Q 577 43 557 34 Q 537 25 520 17 Q 504 9 494 4 Q 485 2 484 11 Q 484 21 484 33 Q 484 47 484 62 Q 470 50 452 43 Q 449 42 446 40 Q 425 30 402 24 Q 357 10 311 6 Q 257 0 205 11 Q 162 20 122 40 Q 82 61 49 91 Q 29 109 16 134 Q 3 159 1 186 Q 0 223 10 247 Q 20 271 39 291 Q 73 325 124 326 Q 175 328 205 289 Q 218 271 220 249 Q 222 227 213 207 Q 204 187 186 175 Q 168 162 146 161 Q 129 161 114 169 Q 98 177 92 192 Q 82 218 101 239 Q 108 248 118 247 Q 125 245 126 239 Q 126 232 121 227 Q 120 226 119 224 Q 110 209 121 196 Q 131 188 145 188 Q 158 188 168 194 Q 183 204 187 221 Q 191 247 175 264 Q 158 281 130 283 Q 101 285 78 268 Q 50 244 46 207 Q 43 171 74 145 Q 105 123 138 124 Q 171 125 194 138 Q 230 159 249 195 Q 259 212 267 231 Q 268 232 268 233 Q 274 250 287 264 Q 298 271 311 269 Q 311 269 312 269 L 362 269 L 362 269 Q 371 268 365 261 Q 356 254 343 252 Q 341 251 339 251 Q 324 245 323 232 Q 322 219 326 218 Q 338 218 343 218 Q 349 218 361 218 Q 366 218 371 218 Q 382 217 390 218 Q 399 219 410 223 Q 425 230 435 245 L 435 245 Z" />
</svg>