<svg xmlns="http://www.w3.org/2000/svg" viewBox="0 0 448 512">
  <path d="M 384 352 L 224 352 L 384 352 L 224 352 Q 210 352 201 343 Q 192 334 192 320 L 192 64 L 192 64 Q 192 50 201 41 Q 210 32 224 32 L 332 32 L 332 32 Q 339 32 343 37 L 411 105 L 411 105 Q 416 109 416 116 L 416 320 L 416 320 Q 416 334 407 343 Q 398 352 384 352 L 384 352 Z M 434 82 L 366 14 L 434 82 L 366 14 Q 352 0 332 0 L 224 0 L 224 0 Q 197 1 179 19 Q 161 37 160 64 L 160 320 L 160 320 Q 161 347 179 365 Q 197 383 224 384 L 384 384 L 384 384 Q 411 383 429 365 Q 447 347 448 320 L 448 116 L 448 116 Q 448 96 434 82 L 434 82 Z M 64 128 Q 37 129 19 147 L 19 147 L 19 147 Q 1 165 0 192 L 0 448 L 0 448 Q 1 475 19 493 Q 37 511 64 512 L 224 512 L 224 512 Q 251 511 269 493 Q 287 475 288 448 L 288 416 L 288 416 L 256 416 L 256 416 L 256 448 L 256 448 Q 256 462 247 471 Q 238 480 224 480 L 64 480 L 64 480 Q 50 480 41 471 Q 32 462 32 448 L 32 192 L 32 192 Q 32 178 41 169 Q 50 160 64 160 L 128 160 L 128 160 L 128 128 L 128 128 L 64 128 L 64 128 Z" />
</svg>