<svg xmlns="http://www.w3.org/2000/svg" viewBox="0 0 384 512">
  <path d="M 0 496 Q 1 511 16 512 L 48 512 L 368 512 Q 383 511 384 496 Q 383 481 368 480 L 352 480 L 352 480 L 352 438 L 352 438 Q 352 401 336 368 Q 320 335 290 312 L 218 256 L 218 256 L 290 200 L 290 200 Q 320 177 336 144 Q 352 111 352 74 L 352 32 L 352 32 L 368 32 L 368 32 Q 383 31 384 16 Q 383 1 368 0 L 336 0 L 16 0 Q 1 1 0 16 Q 1 31 16 32 L 32 32 L 32 32 L 32 74 L 32 74 Q 32 111 48 144 Q 64 177 94 200 L 166 256 L 166 256 L 94 312 L 94 312 Q 64 335 48 368 Q 32 401 32 438 L 32 480 L 32 480 L 16 480 L 16 480 Q 1 481 0 496 L 0 496 Z M 64 480 L 64 438 L 64 480 L 64 438 Q 65 376 113 337 L 192 276 L 192 276 L 271 337 L 271 337 Q 319 376 320 438 L 320 480 L 320 480 L 64 480 L 64 480 Z M 113 175 Q 89 155 76 128 L 308 128 L 308 128 Q 295 155 271 175 L 192 236 L 192 236 L 113 175 L 113 175 Z M 66 96 Q 64 85 64 74 L 64 32 L 64 32 L 320 32 L 320 32 L 320 74 L 320 74 Q 320 85 318 96 L 66 96 L 66 96 Z" />
</svg>