<svg xmlns="http://www.w3.org/2000/svg" viewBox="0 0 448 448">
  <path d="M 368 416 Q 353 415 352 400 L 352 48 L 352 48 Q 353 33 368 32 L 400 32 L 400 32 Q 415 33 416 48 L 416 400 L 416 400 Q 415 415 400 416 L 368 416 L 368 416 Z M 320 400 Q 321 420 334 434 L 334 434 L 334 434 Q 348 447 368 448 L 400 448 L 400 448 Q 420 447 434 434 Q 447 420 448 400 L 448 48 L 448 48 Q 447 28 434 14 Q 420 1 400 0 L 368 0 L 368 0 Q 348 1 334 14 Q 321 28 320 48 L 320 400 L 320 400 Z M 80 352 L 48 352 L 80 352 L 48 352 Q 33 351 32 336 L 32 48 L 32 48 Q 33 33 48 32 L 80 32 L 80 32 Q 95 33 96 48 L 96 336 L 96 336 Q 95 351 80 352 L 80 352 Z M 48 384 L 80 384 L 48 384 L 80 384 Q 100 383 114 370 Q 127 356 128 336 L 128 48 L 128 48 Q 127 28 114 14 Q 100 1 80 0 L 48 0 L 48 0 Q 28 1 14 14 Q 1 28 0 48 L 0 336 L 0 336 Q 1 356 14 370 Q 28 383 48 384 L 48 384 Z M 240 224 L 208 224 L 240 224 L 208 224 Q 193 223 192 208 L 192 48 L 192 48 Q 193 33 208 32 L 240 32 L 240 32 Q 255 33 256 48 L 256 208 L 256 208 Q 255 223 240 224 L 240 224 Z M 208 256 L 240 256 L 208 256 L 240 256 Q 260 255 274 242 Q 287 228 288 208 L 288 48 L 288 48 Q 287 28 274 14 Q 260 1 240 0 L 208 0 L 208 0 Q 188 1 174 14 Q 161 28 160 48 L 160 208 L 160 208 Q 161 228 174 242 Q 188 255 208 256 L 208 256 Z" />
</svg>