<svg xmlns="http://www.w3.org/2000/svg" viewBox="0 0 640 448">
  <path d="M 64 32 Q 50 32 41 41 L 41 41 L 41 41 Q 32 50 32 64 L 32 96 L 32 96 L 64 96 L 64 96 Q 91 97 109 115 Q 127 133 128 160 L 128 288 L 128 288 Q 127 315 109 333 Q 91 351 64 352 L 32 352 L 32 352 L 32 384 L 32 384 Q 32 398 41 407 Q 50 416 64 416 L 304 416 L 304 416 L 304 319 L 304 319 Q 269 312 247 286 Q 225 260 224 224 Q 225 188 247 162 Q 269 136 304 129 L 304 32 L 304 32 L 64 32 L 64 32 Z M 336 319 L 336 416 L 336 319 L 336 416 L 576 416 L 576 416 Q 590 416 599 407 Q 608 398 608 384 L 608 352 L 608 352 L 576 352 L 576 352 Q 549 351 531 333 Q 513 315 512 288 L 512 160 L 512 160 Q 513 133 531 115 Q 549 97 576 96 L 608 96 L 608 96 L 608 64 L 608 64 Q 608 50 599 41 Q 590 32 576 32 L 336 32 L 336 32 L 336 129 L 336 129 Q 371 136 393 162 Q 415 188 416 224 Q 415 260 393 286 Q 371 312 336 319 L 336 319 Z M 336 162 L 336 286 L 336 162 L 336 286 Q 357 280 370 264 Q 384 247 384 224 Q 384 201 370 184 Q 357 168 336 162 L 336 162 Z M 304 162 Q 283 168 270 184 L 270 184 L 270 184 Q 256 201 256 224 Q 256 247 270 264 Q 283 280 304 286 L 304 162 L 304 162 Z M 32 128 L 32 320 L 32 128 L 32 320 L 64 320 L 64 320 Q 78 320 87 311 Q 96 302 96 288 L 96 160 L 96 160 Q 96 146 87 137 Q 78 128 64 128 L 32 128 L 32 128 Z M 576 320 L 608 320 L 576 320 L 608 320 L 608 128 L 608 128 L 576 128 L 576 128 Q 562 128 553 137 Q 544 146 544 160 L 544 288 L 544 288 Q 544 302 553 311 Q 562 320 576 320 L 576 320 Z M 0 64 Q 1 37 19 19 L 19 19 L 19 19 Q 37 1 64 0 L 576 0 L 576 0 Q 603 1 621 19 Q 639 37 640 64 L 640 384 L 640 384 Q 639 411 621 429 Q 603 447 576 448 L 64 448 L 64 448 Q 37 447 19 429 Q 1 411 0 384 L 0 64 L 0 64 Z" />
</svg>