<svg xmlns="http://www.w3.org/2000/svg" viewBox="0 0 512 400">
  <path d="M 352 224 L 352 281 L 352 224 L 352 281 Q 353 287 359 288 Q 362 288 364 286 L 476 160 L 476 160 L 364 34 L 364 34 Q 362 32 359 32 Q 353 33 352 39 L 352 96 L 352 96 Q 352 110 343 119 Q 334 128 320 128 L 144 128 L 144 128 Q 96 129 65 161 Q 33 192 32 240 L 32 352 L 32 352 Q 33 367 48 368 L 80 368 L 80 368 Q 95 367 96 352 L 96 240 L 96 240 Q 97 220 110 206 Q 124 193 144 192 L 320 192 L 320 192 Q 334 192 343 201 Q 352 210 352 224 L 352 224 Z M 507 146 Q 512 152 512 160 Q 512 168 507 174 L 388 307 L 388 307 Q 376 320 359 320 Q 342 320 331 309 Q 320 298 320 281 L 320 256 L 320 256 L 320 224 L 320 224 L 288 224 L 144 224 Q 129 225 128 240 L 128 352 L 128 352 Q 127 372 114 386 Q 100 399 80 400 L 48 400 L 48 400 Q 28 399 14 386 Q 1 372 0 352 L 0 240 L 0 240 Q 2 179 42 138 Q 83 98 144 96 L 288 96 L 320 96 L 320 64 L 320 64 L 320 39 L 320 39 Q 320 22 331 11 Q 342 0 359 0 Q 376 0 388 13 L 507 146 L 507 146 Z" />
</svg>