<svg xmlns="http://www.w3.org/2000/svg" viewBox="0 0 448 512">
  <path d="M 222 193 Q 223 192 224 192 Q 225 192 226 193 L 350 325 L 350 325 Q 352 327 352 329 Q 351 335 345 336 L 288 336 L 288 336 Q 273 337 272 352 L 272 472 L 272 472 Q 271 479 264 480 L 184 480 L 184 480 Q 177 479 176 472 L 176 352 L 176 352 Q 175 337 160 336 L 103 336 L 103 336 Q 97 335 96 329 Q 96 327 98 325 L 222 193 L 222 193 Z M 224 160 Q 209 160 199 171 L 75 303 L 75 303 Q 64 314 64 329 Q 64 346 75 357 Q 86 368 103 368 L 144 368 L 144 368 L 144 472 L 144 472 Q 144 489 156 500 Q 167 512 184 512 L 264 512 L 264 512 Q 281 512 292 500 Q 304 489 304 472 L 304 368 L 304 368 L 345 368 L 345 368 Q 362 368 373 357 Q 384 346 384 329 Q 384 314 374 303 L 249 171 L 249 171 Q 239 160 224 160 L 224 160 Z M 32 176 L 32 80 L 32 176 L 32 80 Q 33 60 46 46 Q 60 33 80 32 L 368 32 L 368 32 Q 388 33 402 46 Q 415 60 416 80 L 416 176 L 416 176 Q 417 191 432 192 Q 447 191 448 176 L 448 80 L 448 80 Q 447 46 425 23 Q 402 1 368 0 L 80 0 L 80 0 Q 46 1 23 23 Q 1 46 0 80 L 0 176 L 0 176 Q 1 191 16 192 Q 31 191 32 176 L 32 176 Z" />
</svg>