<svg xmlns="http://www.w3.org/2000/svg" viewBox="0 0 496 512">
  <path d="M 64 480 L 176 480 L 64 480 L 176 480 L 176 512 L 176 512 L 64 512 L 64 512 Q 37 511 19 493 Q 1 475 0 448 L 0 64 L 0 64 Q 1 37 19 19 Q 37 1 64 0 L 220 0 L 220 0 Q 240 0 254 14 L 370 130 L 370 130 Q 384 144 384 164 L 384 304 L 384 304 L 352 304 L 352 304 L 352 192 L 352 192 L 240 192 L 240 192 Q 220 191 206 178 Q 193 164 192 144 L 192 32 L 192 32 L 64 32 L 64 32 Q 50 32 41 41 Q 32 50 32 64 L 32 448 L 32 448 Q 32 462 41 471 Q 50 480 64 480 L 64 480 Z M 352 160 Q 350 156 347 153 L 231 37 L 231 37 Q 228 34 224 33 L 224 144 L 224 144 Q 225 159 240 160 L 352 160 L 352 160 Z M 224 392 Q 224 375 236 364 L 236 364 L 236 364 Q 247 352 264 352 L 280 352 L 280 352 Q 297 352 308 364 Q 320 375 320 392 L 320 400 L 320 400 Q 319 415 304 416 Q 289 415 288 400 L 288 392 L 288 392 Q 287 385 280 384 L 264 384 L 264 384 Q 257 385 256 392 L 256 472 L 256 472 Q 257 479 264 480 L 280 480 L 280 480 Q 287 479 288 472 L 288 464 L 288 464 Q 273 463 272 448 Q 273 433 288 432 L 304 432 L 304 432 Q 319 433 320 448 L 320 472 L 320 472 Q 320 489 308 500 Q 297 512 280 512 L 264 512 L 264 512 Q 247 512 236 500 Q 224 489 224 472 L 224 392 L 224 392 Z M 384 368 L 384 496 L 384 368 L 384 496 Q 383 511 368 512 Q 353 511 352 496 L 352 368 L 352 368 Q 353 353 368 352 Q 383 353 384 368 L 384 368 Z M 432 352 L 480 352 L 432 352 L 480 352 Q 495 353 496 368 Q 495 383 480 384 L 448 384 L 448 384 L 448 416 L 448 416 L 480 416 L 480 416 Q 495 417 496 432 Q 495 447 480 448 L 448 448 L 448 448 L 448 496 L 448 496 Q 447 511 432 512 Q 417 511 416 496 L 416 432 L 416 432 L 416 368 L 416 368 Q 417 353 432 352 L 432 352 Z" />
</svg>