<svg xmlns="http://www.w3.org/2000/svg" viewBox="0 0 452 512">
  <path d="M 168 42 L 135 119 L 168 42 L 135 119 Q 173 128 226 128 Q 279 128 317 119 L 284 42 L 284 42 Q 279 33 269 32 Q 263 32 259 35 L 255 38 L 255 38 Q 226 58 197 38 L 193 35 L 193 35 Q 189 32 183 32 Q 173 33 168 42 L 168 42 Z M 104 111 L 139 29 L 104 111 L 139 29 Q 152 1 183 0 Q 199 0 212 10 L 217 13 L 217 13 Q 226 19 236 13 L 240 10 L 240 10 Q 253 0 269 0 Q 299 1 313 29 L 348 111 L 348 111 Q 358 108 366 105 Q 414 84 421 70 Q 430 61 441 66 Q 452 73 449 85 Q 442 106 424 130 Q 405 154 377 175 Q 348 196 310 210 Q 272 224 226 224 Q 180 224 142 210 Q 104 196 75 175 Q 47 154 28 130 Q 10 106 3 85 Q 0 73 11 66 Q 22 61 31 70 Q 38 84 86 105 Q 94 108 104 112 L 104 111 Z M 94 149 Q 119 168 152 180 L 152 180 L 152 180 Q 186 192 226 192 Q 266 192 300 180 Q 333 168 358 149 Q 366 143 373 137 Q 320 158 226 160 Q 132 158 79 137 Q 86 143 94 149 L 94 149 Z M 103 416 Q 78 416 60 432 L 60 432 L 60 432 Q 43 448 39 472 L 38 480 L 38 480 L 414 480 L 414 480 L 413 472 L 413 472 Q 409 448 392 432 Q 374 417 349 416 L 103 416 L 103 416 Z M 103 384 L 349 384 L 103 384 L 349 384 Q 386 385 413 408 Q 439 431 445 468 L 446 476 L 446 476 Q 447 491 438 501 Q 429 512 414 512 L 38 512 L 38 512 Q 23 512 14 501 Q 5 491 7 476 L 8 468 L 8 468 Q 13 431 39 408 Q 66 385 103 384 L 103 384 Z M 226 352 Q 172 351 136 315 L 136 315 L 136 315 Q 100 280 98 226 Q 114 234 131 240 Q 138 275 164 297 Q 190 319 226 320 Q 262 319 288 297 Q 314 275 321 240 Q 338 234 354 226 Q 352 280 316 315 Q 280 351 226 352 L 226 352 Z" />
</svg>