<svg xmlns="http://www.w3.org/2000/svg" viewBox="0 0 512 448">
  <path d="M 165 235 Q 155 224 165 213 L 293 85 L 293 85 Q 304 75 315 85 Q 325 96 315 107 L 215 208 L 215 208 L 496 208 L 496 208 Q 511 209 512 224 Q 511 239 496 240 L 215 240 L 215 240 L 315 341 L 315 341 Q 325 352 315 363 Q 304 373 293 363 L 165 235 L 165 235 Z M 176 416 Q 191 417 192 432 Q 191 447 176 448 L 80 448 L 80 448 Q 46 447 23 425 Q 1 402 0 368 L 0 80 L 0 80 Q 1 46 23 23 Q 46 1 80 0 L 176 0 L 176 0 Q 191 1 192 16 Q 191 31 176 32 L 80 32 L 80 32 Q 60 33 46 46 Q 33 60 32 80 L 32 368 L 32 368 Q 33 388 46 402 Q 60 415 80 416 L 176 416 L 176 416 Z" />
</svg>