<svg xmlns="http://www.w3.org/2000/svg" viewBox="0 0 448 512">
  <path d="M 313 252 Q 295 269 297 296 Q 302 324 326 336 Q 366 356 391 394 Q 415 432 416 480 L 32 480 L 32 480 Q 33 432 57 394 Q 82 356 122 336 Q 146 324 151 296 Q 153 269 136 253 Q 97 216 96 160 Q 97 106 133 69 Q 170 33 224 32 Q 278 33 315 69 Q 351 106 352 160 Q 351 216 313 252 L 313 252 Z M 335 276 Q 382 230 384 160 Q 382 92 337 47 Q 292 2 224 0 Q 156 2 111 47 Q 66 92 64 160 Q 66 230 113 276 Q 120 282 120 292 Q 118 302 108 307 Q 59 331 30 377 Q 1 422 0 480 Q 0 494 9 503 Q 18 512 32 512 L 416 512 L 416 512 Q 430 512 439 503 Q 448 494 448 480 Q 447 422 418 377 Q 389 331 340 307 Q 330 302 329 292 Q 328 282 335 276 L 335 276 Z M 176 352 Q 161 353 160 368 L 160 432 L 160 432 Q 161 447 176 448 Q 191 447 192 432 L 192 368 L 192 368 Q 191 353 176 352 L 176 352 Z M 272 352 Q 257 353 256 368 L 256 432 L 256 432 Q 257 447 272 448 Q 287 447 288 432 L 288 368 L 288 368 Q 287 353 272 352 L 272 352 Z M 160 157 Q 161 132 178 114 L 178 114 L 178 114 Q 196 97 224 96 Q 252 97 270 114 Q 287 132 288 157 Q 287 184 265 211 Q 244 236 224 249 Q 204 236 183 211 Q 161 184 160 157 L 160 157 Z M 224 64 Q 183 65 156 91 L 156 91 L 156 91 Q 129 118 128 157 Q 130 199 158 231 Q 186 263 209 278 Q 224 288 240 278 Q 262 263 290 231 Q 318 200 320 157 Q 319 118 292 91 Q 265 65 224 64 L 224 64 Z" />
</svg>