<svg xmlns="http://www.w3.org/2000/svg" viewBox="0 0 646 429">
  <path d="M 272 368 Q 256 378 247 382 Q 204 402 161 388 Q 119 374 97 332 Q 77 289 91 247 Q 105 204 147 182 Q 165 173 212 155 Q 258 138 319 116 Q 380 94 438 73 Q 496 52 538 38 Q 563 31 576 54 L 607 115 L 607 115 Q 617 140 597 156 Q 560 180 509 214 Q 520 226 528 240 Q 579 206 614 182 Q 635 168 640 146 Q 646 123 636 101 L 605 40 L 605 40 Q 594 18 572 9 Q 551 0 527 8 Q 471 27 388 57 Q 306 86 233 113 Q 160 140 133 153 Q 94 173 74 207 Q 53 242 53 283 L 40 289 L 40 289 Q 16 302 8 326 Q 0 350 12 375 Q 25 399 49 407 Q 73 415 98 403 L 110 397 L 110 397 Q 143 421 183 425 Q 223 429 261 411 Q 271 406 287 396 Q 278 383 272 368 L 272 368 Z M 86 373 L 83 375 L 86 373 L 83 375 Q 71 380 59 376 Q 47 372 40 360 Q 35 348 39 336 Q 43 324 55 317 L 57 316 L 57 316 Q 61 332 68 346 Q 76 361 86 373 L 86 373 Z M 325 314 Q 326 269 365 245 Q 405 223 445 245 Q 484 269 485 314 Q 484 359 445 383 Q 405 405 365 383 Q 326 359 325 314 L 325 314 Z M 517 314 Q 517 284 502 258 L 502 258 L 502 258 Q 487 232 461 217 Q 435 202 405 202 Q 375 202 349 217 Q 323 232 308 258 Q 293 284 293 314 Q 293 344 308 370 Q 323 396 349 411 Q 375 426 405 426 Q 435 426 461 411 Q 487 396 502 370 Q 517 344 517 314 L 517 314 Z M 405 338 Q 427 336 429 314 Q 427 292 405 290 Q 383 292 381 314 Q 383 336 405 338 L 405 338 Z" />
</svg>