<svg xmlns="http://www.w3.org/2000/svg" viewBox="0 0 512 512">
  <path d="M 25.6 51.2 Q 14.4 51.2 7.2 58.4 L 7.2 58.4 Q 0 65.6 0 76.8 L 0 128 Q 0 139.2 7.2 146.4 Q 14.4 153.6 25.6 153.6 L 25.6 435.2 Q 25.6 446.4 32.8 453.6 Q 40 460.8 51.2 460.8 L 102.4 460.8 Q 113.6 460.8 120.8 453.6 Q 128 446.4 128 435.2 L 128 332.8 Q 129.6 278.4 165.6 242.4 Q 201.6 206.4 256 204.8 Q 310.4 206.4 346.4 242.4 Q 382.4 278.4 384 332.8 L 384 435.2 Q 384 446.4 391.2 453.6 Q 398.4 460.8 409.6 460.8 L 460.8 460.8 Q 472 460.8 479.2 453.6 Q 486.4 446.4 486.4 435.2 L 486.4 153.6 Q 497.6 153.6 504.8 146.4 Q 512 139.2 512 128 L 512 76.8 Q 512 65.6 504.8 58.4 Q 497.6 51.2 486.4 51.2 L 25.6 51.2 L 25.6 51.2 Z M 460.8 153.6 L 460.8 435.2 L 409.6 435.2 L 409.6 332.8 Q 408 267.2 364.8 224 Q 321.6 180.8 256 179.2 Q 190.4 180.8 147.2 224 Q 104 267.2 102.4 332.8 L 102.4 435.2 L 51.2 435.2 L 51.2 153.6 L 460.8 153.6 L 460.8 153.6 Z M 25.6 76.8 L 486.4 76.8 L 486.4 128 L 25.6 128 L 25.6 76.8 L 25.6 76.8 Z M 272.8 317.6 Q 284.8 316.8 292.8 308 L 294.4 306.4 Q 304.8 319.2 312 333.6 Q 324 357.6 323.2 368 Q 322.4 396 304 415.2 Q 284.8 434.4 256 435.2 Q 227.2 434.4 208 415.2 Q 188.8 396 188.8 368 Q 188 353.6 203.2 327.2 Q 215.2 308 234.4 288 Q 244 297.6 252.8 308 Q 260.8 316.8 272.8 317.6 L 272.8 317.6 Z M 335.2 321.6 Q 321.6 296 300 274.4 Q 295.2 271.2 290.4 272.8 Q 289.6 273.6 288 274.4 Q 280 282.4 272.8 292 Q 264.8 281.6 255.2 272.8 Q 248 264.8 240.8 258.4 Q 238.4 256 235.2 256 Q 232 256 228.8 258.4 Q 200 284.8 181.6 314.4 Q 164 343.2 163.2 368 Q 164 407.2 189.6 433.6 Q 216 460 256 460.8 Q 296 460 321.6 433.6 Q 348 407.2 348.8 368 Q 348.8 348 335.2 322.4 L 335.2 321.6 Z M 245.6 333.6 Q 241.6 328.8 235.2 328.8 Q 229.6 329.6 225.6 334.4 Q 220 341.6 216 348 Q 209.6 358.4 209.6 368.8 Q 210.4 380.8 222.4 381.6 Q 233.6 380.8 235.2 368.8 Q 234.4 368 236 364 L 251.2 383.2 L 251.2 383.2 Q 259.2 392 271.2 392.8 Q 283.2 392.8 291.2 384 L 298.4 374.4 Q 305.6 365.6 297.6 356.8 Q 288 349.6 279.2 358.4 L 271.2 367.2 L 271.2 367.2 L 254.4 344.8 L 254.4 344.8 L 245.6 333.6 L 245.6 333.6 Z" />
</svg>