<svg xmlns="http://www.w3.org/2000/svg" viewBox="0 0 640 512">
  <path d="M 144 0 Q 83 2 42 42 L 42 42 L 42 42 Q 2 83 0 144 L 0 168 L 0 168 Q 0 176 7 181 Q 14 186 22 183 L 74 164 L 74 164 Q 86 179 103 186 L 98 448 L 98 448 Q 98 475 115 493 Q 133 511 160 512 Q 187 511 205 493 Q 222 475 223 448 L 217 189 L 217 189 Q 242 182 257 160 L 320 160 L 320 160 L 320 176 L 320 176 Q 321 191 336 192 Q 350 191 352 176 L 352 16 L 352 16 Q 350 1 336 0 Q 321 1 320 16 L 320 32 L 320 32 L 257 32 L 257 32 Q 235 1 196 0 L 144 0 L 144 0 Z M 320 64 L 320 128 L 320 64 L 320 128 L 248 128 L 248 128 Q 238 128 234 137 Q 222 159 196 160 L 132 160 L 132 160 Q 106 159 94 137 Q 87 125 74 129 L 32 145 L 32 145 L 32 144 L 32 144 Q 33 96 65 65 Q 96 33 144 32 L 196 32 L 196 32 Q 222 33 234 55 Q 238 64 248 64 L 320 64 L 320 64 Z M 185 192 L 191 449 L 185 192 L 191 449 Q 190 462 182 471 Q 173 480 160 480 Q 147 480 138 471 Q 129 462 129 449 L 135 192 L 135 192 L 185 192 L 185 192 Z M 528 220 L 540 230 L 528 220 L 540 230 L 597 277 L 597 277 Q 602 282 605 288 L 387 288 L 387 288 Q 390 282 395 277 L 452 230 L 452 230 L 464 220 L 464 220 L 464 205 L 464 205 L 464 64 L 464 64 Q 464 50 473 41 Q 482 32 496 32 Q 510 32 519 41 Q 528 50 528 64 L 528 205 L 528 205 L 528 220 L 528 220 Z M 384 320 L 608 320 L 384 320 L 608 320 L 608 464 L 608 464 Q 607 479 592 480 L 480 480 L 480 480 L 480 416 L 480 416 Q 479 401 464 400 Q 449 401 448 416 L 448 480 L 448 480 L 400 480 L 400 480 Q 385 479 384 464 L 384 320 L 384 320 Z M 560 205 L 560 64 L 560 205 L 560 64 Q 559 37 541 19 Q 523 1 496 0 Q 469 1 451 19 Q 433 37 432 64 L 432 205 L 432 205 L 375 253 L 375 253 Q 353 272 352 302 L 352 464 L 352 464 Q 353 484 366 498 Q 380 511 400 512 L 592 512 L 592 512 Q 612 511 626 498 Q 639 484 640 464 L 640 302 L 640 302 Q 639 272 617 253 L 560 205 L 560 205 Z M 512 80 Q 511 65 496 64 Q 481 65 480 80 Q 481 95 496 96 Q 511 95 512 80 L 512 80 Z" />
</svg>