<svg xmlns="http://www.w3.org/2000/svg" viewBox="0 0 517 528">
  <path d="M 507 10 Q 517 21 507 32 L 355 185 L 355 185 L 389 219 L 389 219 Q 403 234 403 253 Q 403 272 389 287 L 355 320 L 355 320 Q 355 320 355 320 Q 355 320 355 320 L 173 503 L 173 503 Q 159 517 139 517 L 136 517 L 136 517 Q 78 516 40 477 Q 1 439 0 381 L 0 378 L 0 378 Q 0 359 14 344 L 197 162 L 197 162 Q 197 162 197 162 L 230 128 L 230 128 Q 245 114 264 114 Q 283 114 298 128 L 332 162 L 332 162 L 485 10 L 485 10 Q 496 0 507 10 L 507 10 Z M 192 212 L 37 367 L 192 212 L 37 367 Q 32 372 32 378 L 32 381 L 32 381 Q 33 425 62 454 Q 92 484 136 485 L 139 485 L 139 485 Q 145 485 150 480 L 305 325 L 305 325 L 240 325 L 240 325 Q 220 324 206 311 Q 193 297 192 277 L 192 212 L 192 212 Z M 337 293 L 366 264 L 337 293 L 366 264 Q 375 253 366 242 L 275 151 L 275 151 Q 264 142 253 151 L 224 180 L 224 180 L 224 277 L 224 277 Q 225 292 240 293 L 337 293 L 337 293 Z M 480 437 Q 479 410 456 395 Q 432 383 408 395 Q 385 410 384 437 Q 385 464 408 479 Q 432 491 456 479 Q 479 464 480 437 L 480 437 Z M 352 437 Q 353 392 392 368 Q 432 346 472 368 Q 511 392 512 437 Q 511 482 472 506 Q 432 528 392 506 Q 353 482 352 437 L 352 437 Z" />
</svg>