<svg xmlns="http://www.w3.org/2000/svg" viewBox="0 0 384 511">
  <path d="M 352 192 Q 350 124 305 79 L 305 79 L 305 79 Q 260 34 192 32 Q 124 34 79 79 Q 34 124 32 192 Q 32 216 49 255 Q 66 295 92 338 Q 118 380 145 416 Q 172 453 192 478 Q 212 453 239 416 Q 266 380 292 338 Q 319 295 336 255 Q 352 216 352 192 L 352 192 Z M 384 192 Q 382 237 352 296 L 352 296 L 352 296 Q 321 355 282 410 L 282 410 L 282 410 Q 243 466 216 499 Q 206 511 192 511 Q 178 511 168 499 Q 141 466 102 410 Q 63 355 32 296 Q 2 237 0 192 Q 2 110 56 56 Q 110 2 192 0 Q 274 2 328 56 Q 382 110 384 192 L 384 192 Z M 283 150 L 177 257 L 283 150 L 177 257 Q 165 266 154 257 L 101 203 L 101 203 Q 91 192 101 181 Q 112 171 123 181 L 165 223 L 165 223 L 261 127 L 261 127 Q 272 118 283 127 Q 293 139 283 150 L 283 150 Z" />
</svg>