<svg xmlns="http://www.w3.org/2000/svg" viewBox="0 0 512 512">
  <path d="M 208 32 Q 215 32 217 33 Q 218 33 220 35 Q 220 35 221 35 L 221 35 Q 224 38 233 43 Q 242 47 256 48 Q 270 47 279 43 Q 288 38 291 35 Q 291 35 292 35 Q 292 35 292 35 Q 294 33 295 33 Q 297 32 304 32 Q 305 32 311 38 Q 320 48 329 70 Q 339 93 345 120 Q 308 128 256 128 Q 204 128 167 120 Q 173 93 183 70 Q 192 48 201 38 Q 207 31 208 32 L 208 32 Z M 376 112 Q 366 70 348 36 L 348 36 Q 331 2 304 0 Q 279 2 272 10 Q 272 10 272 10 Q 271 10 271 10 Q 265 15 256 16 Q 247 15 241 10 Q 240 10 240 10 Q 233 2 208 0 Q 181 2 164 36 Q 146 70 136 112 Q 125 109 116 105 Q 68 84 61 70 Q 52 61 41 66 Q 30 73 33 85 Q 40 106 58 130 Q 77 154 105 175 Q 134 196 172 210 Q 210 224 256 224 Q 302 224 340 210 Q 378 196 407 175 Q 435 154 453 130 Q 472 106 479 85 Q 482 73 471 66 Q 459 61 451 70 Q 444 84 396 105 Q 387 109 376 112 L 376 112 Z M 304 32 Q 304 32 304 32 Q 304 32 304 32 Q 304 32 304 32 Q 304 32 304 32 Q 304 32 304 32 Q 304 32 304 32 L 304 32 Z M 208 32 Q 208 32 208 32 Q 208 32 208 32 Q 208 32 208 32 Q 208 32 208 32 L 208 32 Z M 124 149 Q 116 143 109 137 Q 162 158 256 160 Q 350 158 403 137 Q 396 143 388 149 Q 363 168 330 180 Q 296 192 256 192 Q 216 192 182 180 Q 149 168 124 149 L 124 149 Z M 133 416 L 379 416 Q 404 416 422 432 Q 439 448 443 472 L 444 480 L 68 480 L 69 472 Q 73 448 90 432 Q 108 417 133 416 L 133 416 Z M 133 384 Q 96 385 69 408 L 69 408 Q 43 431 37 468 L 36 476 Q 35 491 44 501 Q 53 512 68 512 L 444 512 Q 459 512 468 501 Q 477 491 476 476 L 475 468 Q 469 431 443 408 Q 417 385 379 384 L 133 384 L 133 384 Z M 256 352 Q 310 351 346 315 L 346 315 Q 382 280 384 226 Q 368 234 351 240 Q 344 275 318 297 Q 292 319 256 320 Q 220 319 194 297 Q 168 275 161 240 Q 144 234 128 226 Q 130 280 166 315 Q 202 351 256 352 L 256 352 Z" />
</svg>