<svg xmlns="http://www.w3.org/2000/svg" viewBox="0 0 352 512">
  <path d="M 224 352 L 281 352 L 224 352 L 281 352 Q 287 353 288 359 Q 288 362 286 364 L 160 476 L 160 476 L 34 364 L 34 364 Q 32 362 32 359 Q 33 353 39 352 L 96 352 L 96 352 Q 110 352 119 343 Q 128 334 128 320 L 128 144 L 128 144 Q 129 96 161 65 Q 192 33 240 32 L 304 32 L 304 32 Q 319 33 320 48 L 320 80 L 320 80 Q 319 95 304 96 L 240 96 L 240 96 Q 220 97 206 110 Q 193 124 192 144 L 192 320 L 192 320 Q 192 334 201 343 Q 210 352 224 352 L 224 352 Z M 146 507 Q 152 512 160 512 Q 168 512 174 507 L 307 388 L 307 388 Q 320 376 320 359 Q 320 342 309 331 Q 298 320 281 320 L 256 320 L 224 320 L 224 288 L 224 288 L 224 144 L 224 144 Q 225 129 240 128 L 304 128 L 304 128 Q 324 127 338 114 Q 351 100 352 80 L 352 48 L 352 48 Q 351 28 338 14 Q 324 1 304 0 L 240 0 L 240 0 Q 179 2 138 42 Q 98 83 96 144 L 96 288 L 96 288 L 96 320 L 96 320 L 64 320 L 39 320 Q 22 320 11 331 Q 0 342 0 359 Q 0 376 13 388 L 146 507 L 146 507 Z" />
</svg>