<svg xmlns="http://www.w3.org/2000/svg" viewBox="0 0 384 512">
  <path d="M 133 32 Q 133 32 133 33 Q 141 57 173 108 Q 205 158 268 209 Q 232 208 184 224 Q 135 241 74 283 Q 71 284 69 283 Q 67 281 67 278 L 132 32 L 132 32 Q 132 32 133 32 L 133 32 Z M 36 270 Q 31 294 51 309 Q 72 322 93 309 Q 177 252 233 244 Q 288 236 315 247 Q 334 254 336 281 Q 334 297 323 308 Q 311 319 294 320 L 294 320 L 294 320 L 176 320 L 176 320 Q 161 321 160 336 Q 161 351 176 352 L 294 352 L 294 352 L 294 352 L 294 352 L 300 352 L 300 352 Q 329 351 348 332 Q 367 313 368 284 Q 368 283 368 281 Q 368 280 368 279 Q 368 279 368 278 Q 368 255 356 237 Q 345 220 326 209 Q 248 160 210 104 Q 171 48 163 21 Q 154 1 132 0 Q 109 1 101 24 L 36 270 L 36 270 Z M 304 416 Q 319 417 320 432 L 320 480 L 320 480 L 64 480 L 64 480 L 64 432 L 64 432 Q 65 417 80 416 L 304 416 L 304 416 Z M 80 384 Q 60 385 46 398 L 46 398 L 46 398 Q 33 412 32 432 L 32 480 L 32 480 Q 32 480 32 480 Q 32 480 32 480 L 16 480 L 16 480 Q 1 481 0 496 Q 1 511 16 512 L 368 512 L 368 512 Q 383 511 384 496 Q 383 481 368 480 L 352 480 L 352 480 Q 352 480 352 480 Q 352 480 352 480 L 352 432 L 352 432 Q 351 412 338 398 Q 324 385 304 384 L 80 384 L 80 384 Z" />
</svg>