<svg xmlns="http://www.w3.org/2000/svg" viewBox="0 0 512 512">
  <path d="M 480 240 L 480 256 L 32 256 Q 32 241 44 233 L 293 67 L 275 41 L 293 67 Q 298 64 304 64 Q 379 66 428 116 Q 478 165 480 240 L 480 240 Z M 32 288 L 480 288 L 480 416 Q 480 430 471 439 Q 462 448 448 448 L 64 448 Q 50 448 41 439 Q 32 430 32 416 L 32 288 L 32 288 Z M 304 32 Q 288 32 275 41 L 27 206 Q 1 224 0 256 L 0 416 Q 1 443 19 461 Q 37 479 64 480 L 448 480 Q 475 479 493 461 Q 511 443 512 416 L 512 256 L 512 240 Q 510 152 451 93 Q 392 34 304 32 L 304 32 Z" />
</svg>