<svg xmlns="http://www.w3.org/2000/svg" viewBox="0 0 517 517">
  <path d="M 323 423 Q 306 454 290 467 L 290 467 L 290 467 Q 274 480 261 480 Q 249 480 234 469 L 227 488 L 227 488 Q 222 500 213 508 Q 236 512 261 512 Q 333 511 390 477 Q 448 443 482 385 Q 516 328 517 256 Q 516 184 482 127 Q 448 69 390 35 Q 333 1 261 0 Q 189 1 132 35 Q 74 69 40 127 Q 6 184 5 256 Q 5 281 10 304 Q 18 295 29 290 L 39 287 L 39 287 Q 37 272 37 256 Q 37 223 46 192 L 137 192 L 137 192 Q 133 221 133 252 L 165 240 L 165 240 Q 166 215 169 192 L 353 192 L 353 192 Q 357 223 357 256 Q 357 290 353 320 L 289 320 L 289 320 L 277 352 L 277 352 L 347 352 L 347 352 Q 338 393 323 423 L 323 423 Z M 199 89 Q 216 58 232 45 L 232 45 L 232 45 Q 248 32 261 32 Q 274 32 290 45 Q 306 58 323 89 Q 338 119 347 160 L 175 160 L 175 160 Q 184 119 199 89 L 199 89 Z M 389 256 Q 389 223 385 192 L 476 192 L 476 192 Q 485 223 485 256 Q 485 289 476 320 L 385 320 L 385 320 Q 389 289 389 256 L 389 256 Z M 380 160 Q 365 87 333 44 Q 376 59 410 89 Q 444 119 463 160 L 380 160 L 380 160 Z M 59 160 Q 78 119 112 89 L 112 89 L 112 89 Q 146 59 190 44 Q 157 87 142 160 L 59 160 L 59 160 Z M 380 352 L 464 352 L 380 352 L 464 352 Q 444 393 410 423 Q 376 453 333 468 Q 365 425 380 352 L 380 352 Z M 276 262 Q 279 252 272 245 Q 265 238 255 241 L 40 320 L 40 320 Q 31 324 30 335 Q 30 346 40 350 L 114 381 L 114 381 L 10 485 L 10 485 Q 0 496 10 507 Q 21 517 32 507 L 137 403 L 137 403 L 167 477 L 167 477 Q 171 487 182 487 Q 193 486 197 477 L 276 262 L 276 262 Z M 148 360 L 90 336 L 148 360 L 90 336 L 234 283 L 234 283 L 181 427 L 181 427 L 157 369 L 157 369 Q 154 363 148 360 L 148 360 Z" />
</svg>