<svg xmlns="http://www.w3.org/2000/svg" viewBox="0 0 640 512">
  <path d="M 32 96 Q 33 69 51 51 L 51 51 L 51 51 Q 69 33 96 32 L 352 32 L 352 32 Q 379 33 397 51 Q 415 69 416 96 L 416 137 L 416 137 Q 431 127 448 128 L 448 96 L 448 96 Q 447 55 420 28 Q 393 1 352 0 L 96 0 L 96 0 Q 55 1 28 28 Q 1 55 0 96 L 0 352 L 0 352 Q 1 393 28 420 Q 55 447 96 448 L 314 448 L 314 448 Q 306 433 300 416 L 96 416 L 96 416 Q 69 415 51 397 Q 33 379 32 352 Q 33 325 51 307 Q 69 289 96 288 L 302 288 L 302 288 Q 309 272 317 256 L 96 256 L 96 256 Q 58 257 32 280 L 32 96 L 32 96 Z M 288 350 Q 288 343 289 336 L 96 336 L 96 336 Q 81 337 80 352 Q 81 367 96 368 L 289 368 L 289 368 Q 288 359 288 350 L 288 350 Z M 447 193 L 495 243 L 447 193 L 495 243 Q 499 248 506 248 Q 513 248 518 243 L 539 219 L 539 219 Q 565 244 586 280 Q 607 317 608 352 Q 607 404 574 439 Q 576 431 576 423 Q 575 394 559 368 Q 542 342 522 323 Q 501 303 489 294 Q 480 288 471 294 Q 459 303 438 323 Q 418 342 401 368 Q 385 394 384 423 Q 384 431 386 439 Q 353 404 352 352 Q 353 309 383 266 Q 413 223 447 193 L 447 193 Z M 480 480 Q 476 480 473 480 Q 447 477 432 460 Q 416 444 416 423 Q 417 396 443 364 Q 463 342 480 328 Q 497 342 517 364 Q 543 396 544 423 Q 544 444 528 460 Q 513 477 487 480 Q 487 480 487 480 Q 483 480 480 480 L 480 480 Z M 320 352 Q 321 418 364 462 L 364 462 L 364 462 Q 406 507 471 512 Q 475 512 480 512 Q 485 512 489 512 Q 554 507 596 462 Q 638 418 640 352 Q 638 306 614 264 Q 590 222 559 194 Q 539 178 519 193 Q 519 194 519 194 Q 518 194 518 195 L 506 208 L 506 208 L 468 169 L 468 169 Q 467 168 467 168 Q 467 168 467 168 Q 447 153 428 168 Q 390 200 357 248 Q 323 295 320 352 L 320 352 Z" />
</svg>