<svg xmlns="http://www.w3.org/2000/svg" viewBox="0 0 640 512">
  <path d="M 64 64 L 48 64 L 64 64 L 48 64 Q 33 65 32 80 L 32 368 L 32 368 Q 33 383 48 384 L 332 384 L 332 384 Q 339 401 349 416 L 96 416 L 96 416 L 96 496 L 96 496 Q 95 511 80 512 Q 65 511 64 496 L 64 416 L 64 416 L 48 416 L 48 416 Q 28 415 14 402 Q 1 388 0 368 L 0 80 L 0 80 Q 1 60 14 46 Q 28 33 48 32 L 64 32 L 64 32 L 64 16 L 64 16 Q 65 1 80 0 Q 95 1 96 16 L 96 32 L 96 32 L 480 32 L 480 32 L 480 16 L 480 16 Q 481 1 496 0 Q 511 1 512 16 L 512 32 L 512 32 L 528 32 L 528 32 Q 548 33 562 46 Q 575 60 576 80 L 576 163 L 576 163 Q 561 155 544 151 L 544 80 L 544 80 Q 543 65 528 64 L 512 64 L 64 64 Z M 464 201 L 464 288 L 464 201 L 464 288 Q 464 302 473 311 Q 482 320 496 320 Q 510 320 519 311 Q 528 302 528 288 L 528 201 L 528 201 Q 528 193 535 188 Q 542 183 550 186 Q 590 203 615 239 Q 639 274 640 320 Q 638 386 592 427 L 592 496 L 592 496 Q 591 511 576 512 Q 561 511 560 496 L 560 420 L 560 420 Q 560 412 566 407 Q 606 375 608 320 Q 606 261 560 228 L 560 288 L 560 288 Q 559 315 541 333 Q 523 351 496 352 Q 469 351 451 333 Q 433 315 432 288 L 432 228 L 432 228 Q 386 261 384 320 Q 386 375 426 407 Q 432 412 432 420 L 432 496 L 432 496 Q 431 511 416 512 Q 401 511 400 496 L 400 427 L 400 427 Q 354 386 352 320 Q 353 274 377 239 Q 402 203 442 187 Q 450 184 457 188 Q 464 193 464 201 L 464 201 Z" />
</svg>