<svg xmlns="http://www.w3.org/2000/svg" viewBox="0 0 640 520">
  <path d="M 287 41 Q 253 71 223 113 Q 193 157 192 200 Q 193 252 226 287 Q 224 279 224 271 Q 225 242 241 216 Q 258 190 278 171 Q 299 151 311 142 Q 320 136 329 142 Q 341 151 362 171 Q 382 190 399 216 Q 415 242 416 271 Q 416 279 414 287 Q 447 252 448 200 Q 447 165 426 128 Q 405 92 379 67 L 358 91 L 358 91 Q 353 96 346 96 Q 339 96 334 91 L 287 41 L 287 41 Z M 320 328 Q 324 328 327 328 Q 353 325 368 308 Q 384 292 384 271 Q 383 244 357 212 Q 337 190 320 176 Q 303 190 283 212 Q 257 244 256 271 Q 256 292 272 308 Q 287 325 313 328 Q 317 328 320 328 L 320 328 Z M 160 200 Q 163 143 197 96 Q 230 48 268 16 Q 287 0 307 16 Q 307 16 307 16 Q 308 16 308 16 L 346 56 L 346 56 L 358 43 L 358 43 Q 358 42 359 42 Q 359 42 359 41 Q 379 26 399 41 Q 430 70 454 112 Q 478 154 480 200 Q 478 266 436 310 Q 394 355 329 360 Q 325 360 320 360 Q 315 360 311 360 Q 246 355 204 310 Q 161 266 160 200 L 160 200 Z M 32 280 Q 33 265 48 264 L 112 264 L 112 264 Q 127 265 128 280 Q 127 295 112 296 L 64 296 L 64 296 L 64 392 L 64 392 L 576 392 L 576 392 L 576 296 L 576 296 L 528 296 L 528 296 Q 513 295 512 280 Q 513 265 528 264 L 592 264 L 592 264 Q 607 265 608 280 L 608 395 L 608 395 Q 638 407 640 440 L 640 472 L 640 472 Q 639 492 626 506 Q 612 519 592 520 L 48 520 L 48 520 Q 28 519 14 506 Q 1 492 0 472 L 0 440 L 0 440 Q 2 407 32 395 L 32 280 L 32 280 Z M 32 440 L 32 472 L 32 440 L 32 472 Q 33 487 48 488 L 592 488 L 592 488 Q 607 487 608 472 L 608 440 L 608 440 Q 607 425 592 424 L 48 424 L 48 424 Q 33 425 32 440 L 32 440 Z M 192 432 Q 214 434 216 456 Q 214 478 192 480 Q 170 478 168 456 Q 170 434 192 432 L 192 432 Z M 296 456 Q 298 434 320 432 Q 342 434 344 456 Q 342 478 320 480 Q 298 478 296 456 L 296 456 Z M 448 432 Q 470 434 472 456 Q 470 478 448 480 Q 426 478 424 456 Q 426 434 448 432 L 448 432 Z" />
</svg>