<svg xmlns="http://www.w3.org/2000/svg" viewBox="0 0 640 512">
  <path d="M 125 61 Q 135 71 149 71 Q 163 70 173 60 Q 173 59 174 58 Q 175 57 176 56 Q 176 56 176 56 Q 176 56 176 56 Q 176 56 176 56 Q 176 56 176 56 Q 176 56 176 56 Q 176 56 176 56 Q 176 56 176 56 Q 176 56 176 56 Q 193 74 207 99 Q 223 128 224 154 Q 224 174 216 192 L 250 192 L 250 192 Q 256 174 256 154 Q 255 117 235 83 Q 216 49 191 27 Q 184 20 175 20 Q 169 20 165 23 Q 157 28 151 35 Q 151 35 151 35 Q 151 35 151 35 Q 150 37 149 39 L 133 23 L 133 23 Q 131 20 129 17 Q 128 17 128 16 Q 127 16 127 15 Q 117 2 102 0 Q 93 0 86 6 Q 56 32 29 70 Q 2 108 0 154 Q 0 174 6 192 L 40 192 L 40 192 Q 32 174 32 154 Q 33 122 56 88 Q 77 58 102 35 Q 102 36 102 36 Q 103 36 103 36 L 104 38 L 104 38 Q 104 38 104 38 Q 104 38 104 38 Q 104 38 105 39 Q 107 42 110 45 L 125 61 L 125 61 Z M 135 108 Q 128 103 121 108 Q 107 117 85 140 Q 63 163 54 192 L 88 192 L 88 192 Q 93 181 104 167 Q 116 153 128 143 Q 140 153 152 167 Q 163 181 168 192 L 202 192 L 202 192 Q 193 163 171 140 Q 149 117 135 108 L 135 108 Z M 522 64 Q 490 64 466 87 L 221 324 L 221 324 Q 218 328 212 328 Q 201 327 200 315 L 200 313 L 200 313 Q 200 308 202 305 L 233 256 L 233 256 L 240 256 L 240 256 Q 255 255 256 240 Q 255 225 240 224 L 224 224 L 16 224 Q 1 225 0 240 Q 1 253 13 256 L 3 312 L 3 312 Q 0 327 0 342 L 0 350 L 0 350 Q 2 419 48 464 Q 94 510 163 512 Q 200 512 232 496 Q 265 481 288 452 L 523 166 L 523 166 Q 528 160 535 160 L 613 160 L 613 160 Q 624 160 632 152 Q 640 144 640 133 Q 640 121 632 113 L 606 87 L 606 87 Q 582 64 550 64 L 522 64 L 522 64 Z M 45 256 L 195 256 L 45 256 L 195 256 L 175 288 L 175 288 Q 168 299 168 313 L 168 315 L 168 315 Q 169 334 181 347 Q 194 359 213 360 Q 231 360 244 347 L 489 110 L 489 110 Q 503 96 522 96 L 550 96 L 550 96 Q 569 96 583 110 L 601 128 L 601 128 L 535 128 L 535 128 Q 513 128 498 146 L 264 432 L 264 432 Q 224 479 163 480 Q 107 479 70 442 Q 33 405 32 349 L 32 342 L 32 342 Q 32 329 34 317 L 45 256 L 45 256 Z M 144 328 Q 142 306 120 304 Q 98 306 96 328 Q 98 350 120 352 Q 142 350 144 328 L 144 328 Z" />
</svg>