<svg xmlns="http://www.w3.org/2000/svg" viewBox="0 0 512 512">
  <path d="M 411.52905 100.87284 L 51.44113 100.87284 Q 40.18838 100.87284 32.954475 108.10675 Q 25.720566 115.34066 25.720566 126.59341 L 25.720566 332.35794 Q 25.720566 343.6107 32.954475 350.84457 Q 40.18838 358.0785 51.44113 358.0785 L 271.67346 358.0785 L 265.24332 383.79907 L 51.44113 383.79907 Q 29.739403 382.9953 15.271585 368.52747 Q 0.8037677 354.05966 0 332.35794 L 0 126.59341 Q 0.8037677 104.89168 15.271585 90.42386 Q 29.739403 75.95605 51.44113 75.152275 L 411.52905 75.152275 Q 433.23077 75.95605 447.69858 90.42386 Q 462.1664 104.89168 462.97018 126.59341 L 462.97018 178.03453 Q 449.30612 178.03453 437.2496 182.85715 L 437.2496 126.59341 Q 437.2496 115.34066 430.0157 108.10675 Q 422.7818 100.87284 411.52905 100.87284 L 411.52905 100.87284 Z M 205.76453 268.05652 Q 206.56828 256 218.6248 255.19623 L 295.7865 255.19623 Q 307.84302 256 308.6468 268.05652 Q 307.84302 280.11304 295.7865 280.9168 L 218.6248 280.9168 Q 206.56828 280.11304 205.76453 268.05652 L 205.76453 268.05652 Z M 218.6248 178.03453 L 372.94818 178.03453 Q 385.0047 178.8383 385.80847 190.89482 Q 385.0047 202.95134 372.94818 203.7551 L 218.6248 203.7551 Q 206.56828 202.95134 205.76453 190.89482 Q 206.56828 178.8383 218.6248 178.03453 L 218.6248 178.03453 Z M 115.742546 139.45369 Q 127.79906 140.25746 128.60283 152.31396 L 128.60283 160.35165 Q 132.62166 160.35165 138.24803 161.95918 Q 144.67818 162.76295 147.89325 164.37048 Q 159.146 168.38933 156.7347 179.64207 Q 152.71585 190.89482 141.4631 188.48352 Q 138.24803 187.67975 132.62166 186.87598 Q 126.99529 186.07222 123.78022 185.26845 Q 107.704865 182.85715 98.86342 187.67975 Q 90.825745 191.6986 90.02198 196.5212 Q 90.02198 201.3438 90.825745 202.14757 Q 91.62952 203.7551 94.84458 206.16641 Q 102.88226 211.79279 119.76138 215.81161 L 119.76138 216.61539 L 119.76138 216.61539 Q 136.6405 219.83046 151.9121 230.27943 Q 159.94977 235.10204 164.77237 244.74725 Q 168.79121 255.19623 166.37991 267.25275 Q 161.5573 288.1507 143.07065 295.3846 Q 135.83673 298.5997 128.60283 299.40344 L 128.60283 306.63736 Q 127.79906 318.69388 115.742546 319.49765 Q 103.68603 318.69388 102.88226 306.63736 L 102.88226 298.5997 Q 90.825745 296.1884 78.76923 292.16956 Q 77.96546 291.36578 77.1617 291.36578 L 77.1617 291.36578 L 77.1617 291.36578 L 77.1617 291.36578 L 77.1617 291.36578 Q 74.75039 290.562 73.14286 289.75824 Q 62.69388 284.93564 65.10518 273.6829 Q 69.92779 263.23392 81.180534 265.6452 Q 83.591835 266.44897 86.00314 267.25275 L 86.00314 267.25275 L 86.00314 267.25275 Q 86.80691 267.25275 86.80691 267.25275 Q 98.86342 272.07535 107.704865 273.6829 Q 124.583984 276.09418 132.62166 272.07535 Q 140.65935 268.8603 141.4631 262.43015 Q 141.4631 256.80377 140.65935 255.19623 Q 139.85558 253.5887 136.6405 250.37363 Q 128.60283 245.55103 112.52747 240.72841 L 110.91994 239.92465 L 110.91994 239.92465 Q 110.11617 239.92465 110.11617 239.92465 Q 94.84458 236.70958 80.37676 227.86813 Q 72.33909 223.04553 67.51649 213.40031 Q 62.69388 203.7551 65.10518 191.6986 Q 69.92779 171.6044 88.414444 164.37048 Q 94.84458 161.15541 102.88226 159.54788 L 102.88226 152.31396 Q 103.68603 140.25746 115.742546 139.45369 L 115.742546 139.45369 Z M 468.59656 235.9058 Q 459.7551 228.6719 450.1099 235.9058 L 430.0157 256 L 462.1664 288.1507 L 482.2606 268.05652 Q 490.29828 259.21506 482.2606 249.56985 L 468.59656 235.9058 L 468.59656 235.9058 Z M 327.13342 359.68604 Q 323.91837 362.09732 323.1146 365.3124 L 313.4694 404.69702 L 352.854 395.05182 Q 356.06906 394.24805 358.48038 391.83673 L 444.48352 305.8336 L 412.33282 273.6829 L 327.13342 359.68604 L 327.13342 359.68604 Z M 432.427 217.41916 Q 443.67975 206.16641 458.95132 206.16641 L 458.95132 206.16641 Q 475.02667 206.16641 486.27945 217.41916 L 500.74725 231.88696 Q 512 243.94348 512 259.21506 Q 512 274.48666 500.74725 286.54318 L 376.96704 409.51962 Q 369.73312 417.5573 359.28415 419.9686 L 299.00156 435.24017 Q 291.76767 436.84772 286.94507 431.22134 Q 282.12244 426.39874 283.72998 419.16483 L 298.1978 358.88226 Q 301.41287 349.23706 308.6468 341.19937 L 432.427 217.41916 L 432.427 217.41916 Z" />
</svg>