<svg xmlns="http://www.w3.org/2000/svg" viewBox="0 0 512 512">
  <path d="M 204.8 76.8 Q 251.2 77.6 288.8 97.6 L 288.8 97.6 Q 327.2 118.4 352 153.6 Q 367.2 152.8 380 163.2 Q 386.4 169.6 393.6 176 Q 368.8 120 319.2 85.6 Q 268.8 52 204.8 51.2 Q 147.2 52 101.6 79.2 Q 55.2 106.4 28 152.8 Q 0.8 198.4 0 256 Q 0.8 313.6 28 359.2 Q 55.2 405.6 101.6 432.8 Q 147.2 460 204.8 460.8 Q 245.6 460.8 280.8 446.4 Q 270.4 436.8 262.4 425.6 Q 235.2 435.2 204.8 435.2 Q 154.4 434.4 114.4 410.4 Q 73.6 387.2 50.4 346.4 Q 26.4 306.4 25.6 256 Q 26.4 205.6 50.4 165.6 Q 73.6 124.8 114.4 101.6 Q 154.4 77.6 204.8 76.8 L 204.8 76.8 Z M 294.4 166.4 Q 293.6 154.4 281.6 153.6 Q 269.6 154.4 268.8 166.4 L 268.8 217.6 Q 268.8 223.2 272.8 226.4 Q 282.4 212.8 294.4 199.2 L 294.4 166.4 L 294.4 166.4 Z M 140.8 166.4 Q 140 154.4 128 153.6 Q 116 154.4 115.2 166.4 L 115.2 217.6 Q 116 229.6 128 230.4 Q 140 229.6 140.8 217.6 L 140.8 166.4 L 140.8 166.4 Z M 217.6 166.4 Q 216.8 154.4 204.8 153.6 Q 192.8 154.4 192 166.4 L 192 217.6 Q 192.8 229.6 204.8 230.4 Q 216.8 229.6 217.6 217.6 L 217.6 166.4 L 217.6 166.4 Z M 407.2 254.4 Q 419.2 253.6 427.2 244 Q 432 238.4 436.8 232.8 Q 456.8 255.2 469.6 281.6 Q 486.4 315.2 486.4 332.8 Q 485.6 376 456.8 404.8 Q 428 434.4 384 435.2 Q 340 434.4 311.2 404.8 Q 282.4 376 281.6 332.8 Q 281.6 309.6 304 272 Q 323.2 240.8 355.2 209.6 Q 372 226.4 387.2 244.8 Q 395.2 253.6 407.2 254.4 L 407.2 254.4 Z M 390.4 208.8 Q 376.8 195.2 363.2 182.4 Q 359.2 179.2 355.2 179.2 Q 350.4 179.2 347.2 182.4 Q 306.4 218.4 281.6 258.4 Q 256.8 299.2 256 332.8 Q 257.6 387.2 292.8 423.2 Q 328.8 459.2 384 460.8 Q 438.4 459.2 474.4 423.2 Q 510.4 387.2 512 332.8 Q 512 320.8 506.4 304 Q 501.6 287.2 492.8 269.6 Q 474.4 233.6 444 204.8 Q 436 198.4 428 204.8 Q 426.4 207.2 424 208.8 Q 415.2 218.4 407.2 228.8 Q 399.2 218.4 389.6 208.8 L 390.4 208.8 Z M 356 256 Q 350.4 256 346.4 260.8 Q 328 282.4 318.4 299.2 Q 307.2 316 307.2 334.4 Q 308 369.6 330.4 389.6 Q 352.8 409.6 384.8 409.6 Q 410.4 409.6 431.2 395.2 L 431.2 395.2 L 431.2 395.2 Q 453.6 378.4 459.2 352.8 Q 464 326.4 451.2 302.4 L 451.2 301.6 Q 448.8 296.8 444.8 290.4 Q 440.8 285.6 435.2 285.6 Q 428.8 285.6 424.8 290.4 L 406.4 312 L 392 294.4 Q 385.6 285.6 380 278.4 Q 368.8 264 366.4 260.8 Q 362.4 256 356 256 L 356 256 Z M 432 320.8 Q 437.6 336 432.8 350.4 L 432.8 350.4 Q 428.8 365.6 416.8 374.4 Q 402.4 384 384.8 384 Q 361.6 384 347.2 371.2 Q 333.6 358.4 332.8 334.4 Q 332.8 324.8 340 312 Q 345.6 302.4 356 289.6 L 372 309.6 L 388 330.4 L 393.6 337.6 L 395.2 339.2 L 395.2 340 L 395.2 340 L 395.2 340 L 395.2 340 L 395.2 340 L 405.6 332 L 395.2 340 Q 399.2 344.8 405.6 344.8 Q 411.2 344.8 415.2 340 L 432 320.8 L 432 320.8 Z" />
</svg>