<svg xmlns="http://www.w3.org/2000/svg" viewBox="0 0 640 384">
  <path d="M 32 64 Q 32 50 41 41 L 41 41 L 41 41 Q 50 32 64 32 L 576 32 L 576 32 Q 590 32 599 41 Q 608 50 608 64 L 608 114 L 608 114 Q 580 120 562 141 Q 545 162 544 192 Q 545 222 562 243 Q 580 264 608 270 L 608 320 L 608 320 Q 608 334 599 343 Q 590 352 576 352 L 64 352 L 64 352 Q 50 352 41 343 Q 32 334 32 320 L 32 64 L 32 64 Z M 64 0 Q 37 1 19 19 L 19 19 L 19 19 Q 1 37 0 64 L 0 320 L 0 320 Q 1 347 19 365 Q 37 383 64 384 L 576 384 L 576 384 Q 603 383 621 365 Q 639 347 640 320 L 640 254 L 640 254 Q 638 241 624 240 Q 604 239 590 226 Q 577 212 576 192 Q 577 172 590 158 Q 604 145 624 144 Q 638 143 640 130 L 640 64 L 640 64 Q 639 37 621 19 Q 603 1 576 0 L 64 0 L 64 0 Z M 480 96 Q 479 81 464 80 Q 449 81 448 96 Q 449 111 464 112 Q 479 111 480 96 L 480 96 Z M 480 160 Q 479 145 464 144 Q 449 145 448 160 Q 449 175 464 176 Q 479 175 480 160 L 480 160 Z M 464 240 Q 479 239 480 224 Q 479 209 464 208 Q 449 209 448 224 Q 449 239 464 240 L 464 240 Z M 480 288 Q 479 273 464 272 Q 449 273 448 288 Q 449 303 464 304 Q 479 303 480 288 L 480 288 Z" />
</svg>