<svg xmlns="http://www.w3.org/2000/svg" viewBox="0 0 515 512">
  <path d="M 325 469 Q 292 480 256 480 Q 193 479 143 449 Q 92 420 63 369 Q 33 319 32 256 Q 33 193 63 143 Q 92 92 143 63 Q 193 33 256 32 Q 319 33 369 63 Q 420 92 449 143 Q 479 193 480 256 Q 480 295 468 330 Q 484 332 498 339 Q 512 300 512 256 Q 511 184 477 127 Q 443 69 385 35 Q 328 1 256 0 Q 184 1 127 35 Q 69 69 35 127 Q 1 184 0 256 Q 1 328 35 385 Q 69 443 127 477 Q 184 511 256 512 Q 299 512 338 499 Q 330 489 327 476 L 325 469 L 325 469 Z M 222 294 Q 243 297 261 305 Q 269 309 272 312 Q 276 316 272 320 Q 269 324 261 328 Q 243 336 222 339 Q 211 341 210 352 Q 211 363 222 366 Q 243 369 261 377 Q 269 381 272 384 Q 276 388 272 392 Q 269 396 261 400 Q 243 408 222 411 Q 210 413 211 426 Q 213 438 226 438 Q 250 434 273 424 Q 284 419 292 411 Q 301 402 302 388 Q 301 374 292 366 Q 284 357 273 352 L 272 352 L 272 352 L 273 352 L 273 352 Q 284 347 292 339 Q 301 330 302 316 Q 301 302 292 294 Q 284 285 273 280 Q 250 270 226 267 Q 213 266 210 278 Q 210 291 222 294 L 222 294 Z M 176 232 Q 198 230 200 208 Q 198 186 176 184 Q 154 186 152 208 Q 154 230 176 232 L 176 232 Z M 371 234 Q 381 245 394 237 Q 405 227 397 214 Q 372 184 336 184 Q 300 184 275 214 Q 268 227 278 237 Q 291 244 301 234 Q 315 216 336 216 Q 357 216 371 234 L 371 234 Z M 441 361 Q 435 339 417 328 L 417 328 L 417 328 Q 398 316 376 322 Q 353 329 343 348 Q 333 367 338 389 L 358 468 L 358 468 Q 362 481 373 488 Q 384 494 398 491 L 473 470 L 473 470 Q 495 463 505 444 Q 515 425 510 403 Q 504 380 486 369 Q 467 358 444 363 L 442 364 L 442 364 L 441 361 L 441 361 Z M 384 353 Q 403 349 410 369 L 415 388 L 415 388 Q 417 394 423 398 Q 428 401 435 399 L 453 394 L 453 394 Q 472 391 479 411 Q 482 432 464 439 L 389 460 L 389 460 L 369 381 L 369 381 Q 366 360 384 353 L 384 353 Z" />
</svg>