<svg xmlns="http://www.w3.org/2000/svg" viewBox="0 0 448 448">
  <path d="M 384 32 Q 398 32 407 41 L 407 41 L 407 41 Q 416 50 416 64 L 416 384 L 416 384 Q 416 398 407 407 Q 398 416 384 416 L 64 416 L 64 416 Q 50 416 41 407 Q 32 398 32 384 L 32 64 L 32 64 Q 32 50 41 41 Q 50 32 64 32 L 384 32 L 384 32 Z M 448 64 Q 447 37 429 19 L 429 19 L 429 19 Q 411 1 384 0 L 64 0 L 64 0 Q 37 1 19 19 Q 1 37 0 64 L 0 384 L 0 384 Q 1 411 19 429 Q 37 447 64 448 L 384 448 L 384 448 Q 411 447 429 429 Q 447 411 448 384 L 448 64 L 448 64 Z M 273 108 L 337 124 L 273 108 L 337 124 Q 340 125 340 128 Q 339 186 311 234 Q 282 282 234 311 Q 186 339 128 340 Q 125 340 124 337 L 108 273 L 108 273 Q 108 270 111 268 L 159 252 L 159 252 Q 161 252 163 253 L 187 278 L 187 278 Q 196 285 206 280 Q 254 254 280 206 Q 285 196 278 187 L 253 163 L 253 163 Q 252 161 252 159 L 268 111 L 268 111 Q 270 108 273 108 L 273 108 Z M 238 101 L 222 149 L 238 101 L 222 149 Q 216 169 231 185 L 246 201 L 246 201 Q 229 229 201 246 L 185 231 L 185 231 Q 170 216 149 222 L 101 238 L 101 238 Q 87 243 81 255 Q 74 267 77 281 L 93 345 L 93 345 Q 101 370 128 372 Q 195 371 250 338 Q 305 305 338 250 Q 371 195 372 128 Q 371 101 345 93 L 281 77 L 281 77 Q 267 74 255 80 Q 243 87 238 101 L 238 101 Z M 268 136 L 264 150 L 268 136 L 264 150 Q 261 159 268 166 L 270 168 L 270 168 Q 277 175 286 172 Q 295 169 297 160 Q 299 151 300 142 Q 300 129 287 125 Q 274 124 268 136 L 268 136 Z M 150 264 L 136 268 L 150 264 L 136 268 Q 124 273 125 287 Q 129 299 142 299 Q 151 299 160 297 Q 169 295 172 286 Q 175 277 168 270 L 166 268 L 166 268 Q 159 261 150 264 L 150 264 Z" />
</svg>