<svg xmlns="http://www.w3.org/2000/svg" viewBox="0 0 640 448">
  <path d="M 160 32 Q 146 32 137 41 L 137 41 L 137 41 Q 128 50 128 64 L 128 112 L 128 112 Q 166 131 168 176 Q 166 221 128 241 L 128 288 L 128 288 Q 128 302 137 311 Q 146 320 160 320 L 576 320 L 576 320 Q 590 320 599 311 Q 608 302 608 288 L 608 241 L 608 241 Q 570 221 568 176 Q 570 131 608 112 L 608 64 L 608 64 Q 608 50 599 41 Q 590 32 576 32 L 160 32 L 160 32 Z M 612 110 Q 612 110 612 110 L 612 110 L 612 110 Q 612 110 612 110 Q 612 110 612 110 Q 612 110 612 110 Q 612 110 612 110 Q 612 110 612 110 L 612 110 Z M 612 242 Q 612 242 612 242 Q 612 242 612 242 L 612 242 Z M 124 242 L 124 242 L 124 242 L 124 242 Q 124 242 124 242 L 124 242 Z M 124 110 L 124 110 L 124 110 L 124 110 Q 124 110 124 110 Q 124 110 124 110 L 124 110 Z M 160 0 L 576 0 L 160 0 L 576 0 Q 603 1 621 19 Q 639 37 640 64 L 640 120 L 640 120 Q 638 134 624 139 Q 601 150 600 176 Q 601 202 624 213 Q 638 218 640 232 L 640 288 L 640 288 Q 639 315 621 333 Q 603 351 576 352 L 160 352 L 160 352 Q 133 351 115 333 Q 97 315 96 288 L 96 232 L 96 232 Q 98 218 112 213 Q 135 202 136 176 Q 135 150 112 139 Q 98 134 96 120 L 96 64 L 96 64 Q 97 37 115 19 Q 133 1 160 0 L 160 0 Z M 16 64 Q 31 65 32 80 L 32 336 L 32 336 Q 33 370 55 393 Q 78 415 112 416 L 528 416 L 528 416 Q 543 417 544 432 Q 543 447 528 448 L 112 448 L 112 448 Q 64 447 33 415 Q 1 384 0 336 L 0 80 L 0 80 Q 1 65 16 64 L 16 64 Z M 256 128 L 256 224 L 256 128 L 256 224 L 480 224 L 480 224 L 480 128 L 480 128 L 256 128 L 256 128 Z M 224 128 Q 224 114 233 105 L 233 105 L 233 105 Q 242 96 256 96 L 480 96 L 480 96 Q 494 96 503 105 Q 512 114 512 128 L 512 224 L 512 224 Q 512 238 503 247 Q 494 256 480 256 L 256 256 L 256 256 Q 242 256 233 247 Q 224 238 224 224 L 224 128 L 224 128 Z" />
</svg>