<svg xmlns="http://www.w3.org/2000/svg" viewBox="0 0 576 512">
  <path d="M 80 105 Q 81 61 111 31 L 111 31 L 111 31 Q 141 1 185 0 L 264 0 L 264 0 Q 308 1 337 31 Q 367 60 368 104 Q 368 109 370 114 L 395 184 L 395 184 Q 400 197 400 211 Q 398 252 367 274 Q 368 281 368 288 Q 367 322 345 345 Q 322 367 288 368 Q 281 368 275 367 Q 256 391 224 392 Q 192 391 173 367 Q 167 368 160 368 Q 126 367 103 345 Q 81 322 80 288 Q 80 281 81 274 Q 50 252 48 211 Q 48 197 53 184 L 79 113 L 79 113 Q 80 109 80 105 L 80 105 Z M 113 96 L 147 96 L 113 96 L 147 96 Q 185 95 213 69 Q 217 64 224 64 Q 231 64 235 69 Q 263 95 301 96 L 336 96 L 336 96 Q 332 68 312 51 Q 292 33 264 32 L 185 32 L 185 32 Q 157 33 137 50 Q 117 68 113 96 L 113 96 Z M 320 128 L 301 128 L 320 128 L 301 128 Q 258 128 224 101 Q 190 128 147 128 L 128 128 L 128 128 L 128 144 L 128 144 Q 129 182 153 209 L 158 203 L 158 203 Q 186 177 224 176 Q 262 177 290 203 L 295 209 L 295 209 Q 319 182 320 144 L 320 128 L 320 128 Z M 83 195 Q 80 203 80 211 Q 82 240 106 252 Q 118 259 115 272 Q 112 279 112 288 Q 113 308 126 322 Q 140 335 160 336 Q 168 336 176 334 Q 188 330 195 342 Q 204 359 224 360 Q 244 359 253 342 Q 260 330 273 334 Q 280 336 288 336 Q 308 335 322 322 Q 335 308 336 288 Q 336 279 333 272 Q 330 259 342 252 Q 367 240 368 211 Q 368 203 365 195 L 351 157 L 351 157 Q 345 207 310 239 Q 275 271 224 272 Q 173 271 138 239 Q 103 207 97 157 L 83 195 L 83 195 Z M 270 228 L 267 226 L 270 228 L 267 226 Q 249 208 224 208 Q 199 208 181 226 L 178 228 L 178 228 Q 199 240 224 240 Q 249 240 270 228 L 270 228 Z M 400 376 L 448 376 L 400 376 L 448 376 Q 457 376 462 383 Q 466 391 463 399 L 443 441 L 443 441 L 528 360 L 528 360 L 480 360 L 480 360 Q 471 360 467 353 Q 462 345 466 337 L 485 295 L 485 295 L 400 376 L 400 376 Z M 522 224 Q 533 225 539 233 L 539 233 L 539 233 Q 544 242 540 253 L 505 328 L 505 328 L 554 328 L 554 328 Q 574 330 576 350 Q 576 359 569 365 L 420 507 L 420 507 Q 414 512 406 512 Q 395 511 389 503 Q 384 494 388 484 L 423 408 L 423 408 L 374 408 L 374 408 Q 354 406 352 386 Q 352 377 359 371 L 508 230 L 508 230 Q 514 224 522 224 L 522 224 Z M 0 481 Q 0 440 18 407 L 18 407 L 18 407 Q 36 373 67 350 Q 76 364 89 374 Q 63 392 48 419 Q 33 447 32 480 L 356 480 L 356 480 Q 352 497 358 512 L 31 512 L 31 512 Q 18 512 9 503 Q 0 494 0 481 L 0 481 Z" />
</svg>