<svg xmlns="http://www.w3.org/2000/svg" viewBox="0 0 640 384">
  <path d="M 176 32 Q 161 33 160 48 L 160 137 L 160 137 Q 160 153 149 165 Q 137 176 121 176 Q 96 173 85 156 Q 75 144 64 144 Q 53 144 43 156 Q 33 170 32 192 Q 33 214 43 228 Q 53 240 64 240 Q 75 240 85 228 Q 96 211 121 208 Q 137 208 149 219 Q 160 231 160 247 L 160 336 L 160 336 Q 161 351 176 352 L 270 352 L 270 352 Q 242 332 240 296 Q 241 264 264 244 Q 287 225 320 224 Q 353 225 376 244 Q 399 264 400 296 Q 398 332 370 352 L 464 352 L 464 352 Q 479 351 480 336 L 480 247 L 480 247 Q 480 231 491 220 Q 503 208 519 208 Q 544 211 555 228 Q 565 240 576 240 Q 587 240 597 228 Q 607 214 608 192 Q 607 170 597 156 Q 587 144 576 144 Q 565 144 555 156 Q 544 173 519 176 Q 503 176 491 165 Q 480 153 480 137 L 480 48 L 480 48 Q 479 33 464 32 L 370 32 L 370 32 Q 398 52 400 88 Q 399 120 376 140 Q 353 159 320 160 Q 287 159 264 140 Q 241 120 240 88 Q 242 52 270 32 L 176 32 L 176 32 Z M 128 48 Q 129 28 142 14 L 142 14 L 142 14 Q 156 1 176 0 L 274 0 L 274 0 Q 286 0 295 9 Q 304 18 304 31 Q 303 49 289 57 Q 272 70 272 88 Q 272 104 285 116 Q 298 127 320 128 Q 342 127 355 116 Q 368 104 368 88 Q 368 70 351 57 Q 337 49 336 31 Q 336 18 345 9 Q 354 0 367 0 L 464 0 L 464 0 Q 484 1 498 14 Q 511 28 512 48 L 512 137 L 512 137 Q 513 143 519 144 Q 523 144 529 137 Q 546 114 576 112 Q 606 114 623 137 Q 640 160 640 192 Q 640 224 623 247 Q 606 270 576 272 Q 546 270 529 247 Q 523 239 519 240 Q 513 241 512 247 L 512 336 L 512 336 Q 511 356 498 370 Q 484 383 464 384 L 367 384 L 367 384 Q 354 384 345 375 Q 336 366 336 353 Q 337 335 351 327 Q 368 314 368 296 Q 368 280 355 268 Q 342 257 320 256 Q 298 257 285 268 Q 272 280 272 296 Q 272 314 289 327 Q 303 335 304 353 Q 304 366 295 375 Q 286 384 274 384 L 176 384 L 176 384 Q 156 383 142 370 Q 129 356 128 336 L 128 247 L 128 247 Q 127 241 121 240 Q 117 240 111 247 Q 94 270 64 272 Q 34 270 17 247 Q 0 224 0 192 Q 0 160 17 137 Q 34 114 64 112 Q 94 114 111 137 Q 117 145 121 144 Q 127 143 128 137 L 128 48 L 128 48 Z" />
</svg>