<svg xmlns="http://www.w3.org/2000/svg" viewBox="0 0 610 516">
  <path d="M 514 37 Q 519 32 525 32 L 592 32 L 592 32 Q 607 31 608 16 Q 607 1 592 0 L 525 0 L 525 0 Q 506 0 491 14 L 456 49 L 456 49 Q 418 56 393 84 Q 369 112 368 152 Q 368 174 376 192 Q 372 192 368 192 Q 326 193 298 222 Q 285 180 251 155 Q 217 129 171 128 L 165 128 L 165 128 Q 95 130 48 176 Q 2 223 0 293 Q 1 332 27 357 Q 52 383 91 384 L 126 384 L 126 384 L 66 488 L 66 488 Q 60 501 72 510 Q 85 516 94 504 L 162 384 L 162 384 L 192 384 L 192 384 Q 199 384 206 383 L 146 488 L 146 488 Q 140 501 152 510 Q 165 516 174 504 L 253 366 L 253 366 Q 272 354 284 335 Q 291 347 301 357 L 290 376 L 290 376 L 290 376 L 290 376 Q 290 376 290 376 L 226 488 L 226 488 Q 220 501 232 510 Q 245 516 254 504 L 318 392 L 318 392 L 328 375 L 328 375 Q 346 384 368 384 Q 386 384 403 377 L 443 418 L 443 418 Q 450 425 454 434 L 481 502 L 481 502 Q 488 515 502 511 Q 515 504 511 490 L 484 422 L 484 422 Q 478 407 466 395 L 431 360 L 431 360 Q 441 351 449 340 L 534 401 L 534 401 Q 546 410 551 425 L 577 501 L 577 501 Q 583 514 597 511 Q 610 505 607 491 L 582 415 L 582 415 Q 573 390 552 375 L 462 310 L 462 310 Q 464 299 464 288 Q 464 271 458 255 Q 465 256 472 256 L 533 256 L 533 256 Q 565 255 586 234 Q 607 213 608 181 Q 607 132 577 96 Q 547 60 500 50 L 514 37 L 514 37 Z M 400 152 Q 401 121 421 101 L 421 101 L 421 101 Q 441 81 472 80 L 475 80 L 475 80 Q 518 81 546 110 Q 575 138 576 181 Q 576 199 564 212 Q 551 224 533 224 L 472 224 L 472 224 Q 441 223 421 203 Q 401 183 400 152 L 400 152 Z M 432 288 Q 431 324 400 343 Q 368 361 336 343 Q 305 324 304 288 Q 305 252 336 233 Q 368 215 400 233 Q 431 252 432 288 L 432 288 Z M 165 160 L 171 160 L 165 160 L 171 160 Q 214 161 243 189 Q 271 218 272 261 L 272 272 L 272 272 Q 271 306 249 329 Q 226 351 192 352 L 91 352 L 91 352 Q 66 351 49 335 Q 33 318 32 293 Q 33 237 71 199 Q 109 161 165 160 L 165 160 Z M 496 164 Q 514 162 516 144 Q 514 126 496 124 Q 478 126 476 144 Q 478 162 496 164 L 496 164 Z" />
</svg>