<svg xmlns="http://www.w3.org/2000/svg" viewBox="0 0 576 507">
  <path d="M 164 24 Q 186 3 214 2 L 214 2 L 214 2 Q 242 0 265 19 Q 273 26 280 34 Q 281 35 282 35 Q 282 36 283 37 Q 286 39 288 42 Q 290 40 291 38 Q 293 37 294 35 Q 302 27 311 19 Q 334 0 362 2 Q 390 3 412 24 Q 434 47 434 78 Q 434 108 412 132 L 311 235 L 311 235 Q 301 245 288 245 Q 275 245 266 235 L 164 132 L 164 132 Q 142 108 142 78 Q 142 47 164 24 L 164 24 Z M 248 46 Q 234 34 217 34 L 217 34 L 217 34 Q 200 34 187 46 Q 174 60 174 78 Q 174 96 187 110 L 288 212 L 288 212 L 389 109 L 389 109 Q 402 96 402 78 Q 402 60 389 46 Q 376 33 359 33 Q 342 33 329 46 L 299 76 L 299 76 Q 288 86 277 76 L 248 46 L 248 46 Z M 151 312 Q 171 299 195 299 L 344 299 L 344 299 Q 368 300 384 315 Q 399 331 400 355 Q 400 368 395 379 L 400 379 L 400 379 L 495 323 L 495 323 Q 508 315 522 315 L 524 315 L 524 315 Q 546 316 561 330 Q 575 345 576 367 Q 575 395 552 411 L 433 489 L 433 489 Q 405 507 372 507 L 16 507 L 16 507 Q 1 506 0 491 Q 1 476 16 475 L 372 475 L 372 475 Q 395 475 415 462 L 535 384 L 535 384 Q 544 378 544 367 Q 542 349 524 347 L 522 347 L 522 347 Q 516 347 511 350 L 413 409 L 413 409 Q 409 411 405 411 L 344 411 L 256 411 Q 241 410 240 395 Q 241 380 256 379 L 320 379 L 344 379 Q 366 377 368 355 Q 366 333 344 331 L 195 331 L 195 331 Q 181 331 169 339 L 89 392 L 89 392 Q 85 395 80 395 L 16 395 L 16 395 Q 1 394 0 379 Q 1 364 16 363 L 75 363 L 75 363 L 151 312 L 151 312 Z" />
</svg>