<svg xmlns="http://www.w3.org/2000/svg" viewBox="0 0 512 512">
  <path d="M 355.55554 277.33334 L 355.55554 241.77777 L 355.55554 227.55556 Q 354.66666 214.22223 341.33334 213.33333 L 327.1111 213.33333 L 312.8889 213.33333 L 298.66666 213.33333 L 257.77777 213.33333 Q 220.44444 214.22223 196.44444 239.11111 Q 171.55556 263.1111 170.66667 300.44446 Q 170.66667 306.66666 172.44444 313.77777 Q 144.88889 288.8889 142.22223 241.77777 Q 143.11111 193.77777 175.11111 160.88889 Q 208 128.88889 256 128 L 298.66666 128 L 327.1111 128 L 341.33334 128 Q 354.66666 127.111115 355.55554 113.77778 L 355.55554 99.55556 L 355.55554 64 Q 356.44446 57.77778 362.66666 56.88889 Q 365.33334 56.88889 368 58.666668 L 481.77777 167.11111 Q 483.55554 168.88889 483.55554 170.66667 Q 483.55554 172.44444 481.77777 174.22223 L 368 282.66666 Q 365.33334 284.44446 362.66666 284.44446 Q 356.44446 283.55554 355.55554 277.33334 L 355.55554 277.33334 Z M 327.1111 241.77777 L 327.1111 270.22223 L 327.1111 277.33334 Q 327.1111 292.44446 337.77777 302.22223 Q 347.55554 312.8889 362.66666 312.8889 Q 376.8889 312.8889 387.55554 303.1111 L 501.33334 194.66667 Q 512 184.88889 512 170.66667 Q 512 156.44444 501.33334 146.66667 L 387.55554 38.22222 Q 376.8889 28.444445 362.66666 28.444445 Q 347.55554 28.444445 337.77777 39.11111 Q 327.1111 48.88889 327.1111 64 L 327.1111 71.111115 L 327.1111 99.55556 L 298.66666 99.55556 L 256 99.55556 Q 195.55556 101.333336 155.55556 141.33333 Q 115.55556 181.33333 113.77778 241.77777 Q 114.666664 283.55554 133.33333 310.22223 Q 152 336.8889 173.33333 351.1111 Q 193.77777 365.33334 203.55556 368.8889 Q 206.22223 369.77777 209.77777 369.77777 Q 225.77777 368 227.55556 352 L 227.55556 351.1111 Q 227.55556 341.33334 220.44444 335.1111 Q 213.33333 328.8889 206.22223 320 Q 200 310.22223 199.11111 299.55554 Q 200 275.55554 216 258.66666 Q 232.88889 242.66667 257.77777 241.77777 L 298.66666 241.77777 L 312.8889 241.77777 L 327.1111 241.77777 L 327.1111 241.77777 Z M 56.88889 85.333336 Q 32.88889 86.22222 16.88889 102.22222 L 16.88889 102.22222 Q 0.8888889 118.22222 0 142.22223 L 0 426.66666 Q 0.8888889 450.66666 16.88889 466.66666 Q 32.88889 482.66666 56.88889 483.55554 L 341.33334 483.55554 Q 365.33334 482.66666 381.33334 466.66666 Q 397.33334 450.66666 398.22223 426.66666 L 398.22223 384 Q 397.33334 370.66666 384 369.77777 Q 370.66666 370.66666 369.77777 384 L 369.77777 426.66666 Q 369.77777 439.1111 361.77777 447.1111 Q 353.77777 455.1111 341.33334 455.1111 L 56.88889 455.1111 Q 44.444443 455.1111 36.444443 447.1111 Q 28.444445 439.1111 28.444445 426.66666 L 28.444445 142.22223 Q 28.444445 129.77777 36.444443 121.77778 Q 44.444443 113.77778 56.88889 113.77778 L 99.55556 113.77778 Q 112.888885 112.888885 113.77778 99.55556 Q 112.888885 86.22222 99.55556 85.333336 L 56.88889 85.333336 L 56.88889 85.333336 Z" />
</svg>