<svg xmlns="http://www.w3.org/2000/svg" viewBox="0 0 514 448">
  <path d="M 34 208 Q 36 137 97 86 L 97 86 L 97 86 Q 159 34 258 32 Q 357 34 419 86 Q 480 137 482 208 Q 480 279 419 330 Q 357 382 258 384 Q 210 384 165 368 Q 149 363 135 372 Q 112 388 87 399 L 93 414 L 93 414 L 87 399 L 87 399 Q 71 406 54 411 Q 55 410 55 409 Q 55 409 56 408 Q 77 373 81 332 Q 82 318 74 308 Q 36 264 34 208 L 34 208 Z M 258 0 Q 186 1 129 28 L 129 28 L 129 28 Q 71 56 37 103 L 37 103 L 37 103 Q 3 150 2 208 Q 5 278 49 329 Q 49 329 49 329 Q 49 329 50 329 Q 46 363 28 392 Q 19 408 7 421 Q 0 429 3 438 Q 8 448 18 448 Q 62 446 100 429 Q 128 416 153 398 Q 154 398 154 398 Q 204 415 258 416 Q 330 415 387 388 Q 445 360 479 313 Q 513 266 514 208 Q 513 150 479 103 Q 445 56 387 28 Q 330 1 258 0 L 258 0 Z M 98 181 Q 99 200 114 212 L 144 231 L 144 231 Q 146 233 146 235 Q 146 240 141 240 L 114 240 L 114 240 Q 99 241 98 256 Q 99 271 114 272 L 141 272 L 141 272 Q 157 272 167 261 Q 178 251 178 235 Q 177 216 162 205 L 132 185 L 132 185 Q 130 183 130 181 Q 130 176 135 176 L 154 176 L 154 176 Q 169 175 170 160 Q 169 145 154 144 L 135 144 L 135 144 Q 119 144 109 155 Q 98 165 98 181 L 98 181 Z M 375 144 Q 359 144 349 155 L 349 155 L 349 155 Q 338 165 338 181 Q 339 200 354 212 L 384 231 L 384 231 Q 386 233 386 235 Q 386 240 381 240 L 354 240 L 354 240 Q 339 241 338 256 Q 339 271 354 272 L 381 272 L 381 272 Q 397 272 407 261 Q 418 251 418 235 Q 417 216 402 205 L 372 185 L 372 185 Q 370 183 370 181 Q 370 176 375 176 L 394 176 L 394 176 Q 409 175 410 160 Q 409 145 394 144 L 375 144 L 375 144 Z M 223 150 Q 216 142 205 145 Q 195 149 194 160 L 194 256 L 194 256 Q 195 271 210 272 Q 225 271 226 256 L 226 208 L 226 208 L 245 234 L 245 234 Q 250 240 258 240 Q 266 240 271 234 L 290 208 L 290 208 L 290 256 L 290 256 Q 291 271 306 272 Q 321 271 322 256 L 322 160 L 322 160 Q 321 149 311 145 Q 300 142 293 150 L 258 197 L 258 197 L 223 150 L 223 150 Z" />
</svg>