<svg xmlns="http://www.w3.org/2000/svg" viewBox="0 0 512 448">
  <path d="M 176 32 L 336 32 L 176 32 L 336 32 Q 351 33 352 48 L 352 96 L 352 96 L 160 96 L 160 96 L 160 48 L 160 48 Q 161 33 176 32 L 176 32 Z M 128 48 L 128 96 L 128 48 L 128 96 L 107 96 L 107 96 Q 80 96 61 115 L 19 157 L 19 157 Q 0 176 0 203 L 0 384 L 0 384 Q 1 411 19 429 Q 37 447 64 448 L 448 448 L 448 448 Q 475 447 493 429 Q 511 411 512 384 L 512 203 L 512 203 Q 512 176 493 157 L 451 115 L 451 115 Q 432 96 406 96 L 384 96 L 384 96 L 384 48 L 384 48 Q 383 28 370 14 Q 356 1 336 0 L 176 0 L 176 0 Q 156 1 142 14 Q 129 28 128 48 L 128 48 Z M 144 128 L 368 128 L 144 128 L 406 128 Q 419 128 428 137 L 471 180 L 471 180 Q 480 189 480 203 L 480 288 L 480 288 L 352 288 L 352 288 L 352 256 L 352 256 Q 351 241 336 240 Q 321 241 320 256 L 320 288 L 320 288 L 192 288 L 192 288 L 192 256 L 192 256 Q 191 241 176 240 Q 161 241 160 256 L 160 288 L 160 288 L 32 288 L 32 288 L 32 203 L 32 203 Q 32 189 41 180 L 84 137 L 84 137 Q 93 128 107 128 L 144 128 L 144 128 Z M 32 320 L 160 320 L 32 320 L 160 320 L 160 352 L 160 352 Q 161 367 176 368 Q 191 367 192 352 L 192 320 L 192 320 L 320 320 L 320 320 L 320 352 L 320 352 Q 321 367 336 368 Q 351 367 352 352 L 352 320 L 352 320 L 480 320 L 480 320 L 480 384 L 480 384 Q 480 398 471 407 Q 462 416 448 416 L 64 416 L 64 416 Q 50 416 41 407 Q 32 398 32 384 L 32 320 L 32 320 Z" />
</svg>