<svg xmlns="http://www.w3.org/2000/svg" viewBox="0 0 512 517">
  <path d="M 357 10 Q 368 0 379 10 L 419 50 L 419 50 Q 429 61 419 72 L 379 112 L 379 112 Q 368 122 357 112 L 317 72 L 317 72 Q 307 61 317 50 L 357 10 L 357 10 Z M 351 61 L 368 78 L 351 61 L 368 78 L 385 61 L 385 61 L 368 44 L 368 44 L 351 61 L 351 61 Z M 144 133 Q 122 133 106 146 Q 93 154 83 143 Q 75 130 86 120 Q 111 102 144 101 Q 185 102 212 129 Q 239 156 240 197 Q 239 235 216 261 L 216 261 L 216 261 L 216 261 L 216 261 L 216 261 L 216 261 L 217 261 L 217 261 L 217 261 L 217 261 L 217 261 L 217 261 L 218 261 L 218 261 L 218 261 L 218 261 L 218 261 L 218 261 L 219 261 L 219 261 L 219 261 L 219 261 L 219 261 L 219 261 L 219 261 L 219 261 L 220 261 L 220 261 L 220 261 L 220 261 L 220 261 L 220 261 L 221 261 L 221 261 L 221 261 L 221 261 L 221 261 L 221 261 L 222 261 L 222 261 L 222 261 L 222 261 L 222 261 L 222 261 L 222 261 L 222 261 L 223 261 L 223 261 L 223 261 L 223 261 L 223 261 L 223 261 L 224 261 L 224 261 L 224 261 L 224 261 L 224 261 L 224 261 L 225 261 L 225 261 L 225 261 L 225 261 L 225 261 L 225 261 L 225 261 L 225 261 L 226 261 L 226 261 L 226 261 L 226 261 L 226 261 L 226 261 L 227 261 L 227 261 L 227 261 L 227 261 L 227 261 L 227 261 L 228 261 L 228 261 L 228 261 L 228 261 L 228 261 L 228 261 L 228 261 L 228 261 L 229 261 L 229 261 L 229 261 L 229 261 L 229 261 L 229 261 L 230 261 L 230 261 L 230 261 L 230 261 L 230 261 L 230 261 L 231 261 L 231 261 L 231 261 L 231 261 L 231 261 L 231 261 L 231 261 L 231 261 L 232 261 L 232 261 L 232 261 L 232 261 L 232 261 L 232 261 L 233 261 L 233 261 L 233 261 L 233 261 L 233 261 L 233 261 L 234 261 L 234 261 L 234 261 L 234 261 L 234 261 L 234 261 L 234 261 L 234 261 L 235 261 L 235 261 L 235 261 L 235 261 L 235 261 L 235 261 L 236 261 L 236 261 L 236 261 L 236 261 L 236 261 L 236 261 L 237 261 L 237 261 L 237 261 L 237 261 L 237 261 L 237 261 L 237 261 L 237 261 L 238 261 L 238 261 L 238 261 L 238 261 L 238 261 L 238 261 L 239 261 L 239 261 L 239 261 L 239 261 L 239 261 L 239 261 L 240 261 L 240 261 L 240 261 L 240 261 L 240 261 L 240 261 L 240 261 L 240 261 L 241 261 L 241 261 L 241 261 L 241 261 L 241 261 L 241 261 L 242 261 L 242 261 L 242 261 L 242 261 L 242 261 L 242 261 L 243 261 L 243 261 L 243 261 L 243 261 L 243 261 L 243 261 L 243 261 L 243 261 L 244 261 L 244 261 L 244 261 L 244 261 L 244 261 L 244 261 L 245 261 L 245 261 L 245 261 L 245 261 L 245 261 L 245 261 L 246 261 L 246 261 L 246 261 L 246 261 L 246 261 L 246 261 L 246 261 L 246 261 L 247 261 L 247 261 L 247 261 L 247 261 L 247 261 L 247 261 L 248 261 L 248 261 L 248 261 L 248 261 L 248 261 L 248 261 L 249 261 L 249 261 L 249 261 L 249 261 L 249 261 L 249 261 L 249 261 L 249 261 L 250 261 L 250 261 L 250 261 L 250 261 L 250 261 L 250 261 L 251 261 L 251 261 L 251 261 L 251 261 L 251 261 L 251 261 L 252 261 L 252 261 L 252 261 L 252 261 L 252 261 L 252 261 L 252 261 L 252 261 L 253 261 L 253 261 L 253 261 L 253 261 L 253 261 L 253 261 L 254 261 L 254 261 L 254 261 L 254 261 L 254 261 L 254 261 L 255 261 L 255 261 L 255 261 L 255 261 L 255 261 L 255 261 L 255 261 L 255 261 L 256 261 L 256 261 L 256 261 L 256 261 L 256 261 L 256 261 L 257 261 L 257 261 L 257 261 L 257 261 L 257 261 L 257 261 L 258 261 L 258 261 L 258 261 L 258 261 L 258 261 L 258 261 L 258 261 L 258 261 L 259 261 L 259 261 L 259 261 L 259 261 L 259 261 L 259 261 L 260 261 L 260 261 L 260 261 L 260 261 L 260 261 L 260 261 L 261 261 L 261 261 L 261 261 L 261 261 L 261 261 L 261 261 L 261 261 L 261 261 L 262 261 L 262 261 L 262 261 L 262 261 L 262 261 L 262 261 L 263 261 L 263 261 L 263 261 L 263 261 L 263 261 L 263 261 L 264 261 L 264 261 L 264 261 L 264 261 L 264 261 L 264 261 L 264 261 L 264 261 L 265 261 L 265 261 L 265 261 L 265 261 L 265 261 L 265 261 L 266 261 L 266 261 L 266 261 L 266 261 L 266 261 L 266 261 L 266 261 L 266 261 L 267 261 L 267 261 L 267 261 L 267 261 L 267 261 L 267 261 L 268 261 L 268 261 L 268 261 L 268 261 L 268 261 L 268 261 L 269 261 L 269 261 L 269 261 L 269 261 L 269 261 L 269 261 L 269 261 L 269 261 L 270 261 L 270 261 L 270 261 L 270 261 L 270 261 L 270 261 L 271 261 L 271 261 L 271 261 L 271 261 L 271 261 L 271 261 L 272 261 L 272 261 L 272 261 L 272 261 L 272 261 L 272 261 L 272 261 L 272 261 L 273 261 L 273 261 L 273 261 L 273 261 L 273 261 L 273 261 L 274 261 L 274 261 L 274 261 L 274 261 L 274 261 L 274 261 L 275 261 L 275 261 L 275 261 L 275 261 L 275 261 L 275 261 L 275 261 L 275 261 L 276 261 L 276 261 L 276 261 L 276 261 L 276 261 L 276 261 L 277 261 L 277 261 L 277 261 L 277 261 L 277 261 L 277 261 L 278 261 L 278 261 L 278 261 L 278 261 L 278 261 L 278 261 L 278 261 L 278 261 L 279 261 L 279 261 L 279 261 L 279 261 L 279 261 L 279 261 L 280 261 L 280 261 L 280 261 L 280 261 L 280 261 L 280 261 L 281 261 L 281 261 L 281 261 L 281 261 L 281 261 L 281 261 L 281 261 L 281 261 L 282 261 L 282 261 L 282 261 L 282 261 L 282 261 L 282 261 L 283 261 L 283 261 L 283 261 L 283 261 L 283 261 L 283 261 L 284 261 L 284 261 L 284 261 L 284 261 L 284 261 L 284 261 L 284 261 L 284 261 L 285 261 L 285 261 L 285 261 L 285 261 L 285 261 L 285 261 L 286 261 L 286 261 L 286 261 L 286 261 L 286 261 L 286 261 L 287 261 L 287 261 L 287 261 L 287 261 L 287 261 L 287 261 L 287 261 L 287 261 L 288 261 L 288 261 L 288 261 L 288 261 L 288 261 L 288 261 L 289 261 L 289 261 L 289 261 L 289 261 L 289 261 L 289 261 L 289 261 L 289 261 L 290 261 L 290 261 L 290 261 L 290 261 L 290 261 L 290 261 L 290 261 L 290 261 L 290 261 L 290 261 L 291 261 L 291 261 L 291 261 L 291 261 L 291 261 L 291 261 L 291 261 L 291 261 L 291 261 L 291 261 L 292 261 L 292 261 L 292 261 L 292 261 Q 318 261 337 242 L 356 223 L 356 223 Q 382 198 419 197 Q 457 198 483 223 Q 508 249 509 287 L 512 397 L 512 397 Q 511 434 486 459 Q 461 484 424 485 L 408 485 L 408 485 Q 371 484 346 459 Q 321 434 320 397 L 320 389 L 320 389 Q 321 374 336 373 Q 351 374 352 389 L 352 397 L 352 397 Q 353 421 368 437 Q 384 452 408 453 L 424 453 L 424 453 Q 448 452 464 437 Q 479 421 480 397 L 480 287 L 480 287 Q 479 262 463 246 Q 447 230 423 229 Q 399 229 382 246 L 363 265 L 363 265 Q 334 292 295 293 L 295 293 L 295 293 L 295 293 L 295 293 L 294 293 L 294 293 L 294 293 L 294 293 L 294 293 L 294 293 L 294 293 L 294 293 L 294 293 L 294 293 L 293 293 L 293 293 L 293 293 L 293 293 L 293 293 L 293 293 L 293 293 L 293 293 L 293 293 L 293 293 L 292 293 L 292 293 L 292 293 L 292 293 L 292 293 L 292 293 L 292 293 L 292 293 L 291 293 L 291 293 L 291 293 L 291 293 L 291 293 L 291 293 L 290 293 L 290 293 L 290 293 L 290 293 L 290 293 L 290 293 L 289 293 L 289 293 L 289 293 L 289 293 L 289 293 L 289 293 L 289 293 L 289 293 L 288 293 L 288 293 L 288 293 L 288 293 L 288 293 L 288 293 L 287 293 L 287 293 L 287 293 L 287 293 L 287 293 L 287 293 L 287 293 L 287 293 L 286 293 L 286 293 L 286 293 L 286 293 L 286 293 L 286 293 L 285 293 L 285 293 L 285 293 L 285 293 L 285 293 L 285 293 L 284 293 L 284 293 L 284 293 L 284 293 L 284 293 L 284 293 L 284 293 L 284 293 L 283 293 L 283 293 L 283 293 L 283 293 L 283 293 L 283 293 L 282 293 L 282 293 L 282 293 L 282 293 L 282 293 L 282 293 L 281 293 L 281 293 L 281 293 L 281 293 L 281 293 L 281 293 L 281 293 L 281 293 L 280 293 L 280 293 L 280 293 L 280 293 L 280 293 L 280 293 L 279 293 L 279 293 L 279 293 L 279 293 L 279 293 L 279 293 L 278 293 L 278 293 L 278 293 L 278 293 L 278 293 L 278 293 L 278 293 L 278 293 L 277 293 L 277 293 L 277 293 L 277 293 L 277 293 L 277 293 L 276 293 L 276 293 L 276 293 L 276 293 L 276 293 L 276 293 L 275 293 L 275 293 L 275 293 L 275 293 L 275 293 L 275 293 L 275 293 L 275 293 L 274 293 L 274 293 L 274 293 L 274 293 L 274 293 L 274 293 L 273 293 L 273 293 L 273 293 L 273 293 L 273 293 L 273 293 L 272 293 L 272 293 L 272 293 L 272 293 L 272 293 L 272 293 L 272 293 L 272 293 L 271 293 L 271 293 L 271 293 L 271 293 L 271 293 L 271 293 L 270 293 L 270 293 L 270 293 L 270 293 L 270 293 L 270 293 L 269 293 L 269 293 L 269 293 L 269 293 L 269 293 L 269 293 L 269 293 L 269 293 L 268 293 L 268 293 L 268 293 L 268 293 L 268 293 L 268 293 L 267 293 L 267 293 L 267 293 L 267 293 L 267 293 L 267 293 L 266 293 L 266 293 L 266 293 L 266 293 L 266 293 L 266 293 L 266 293 L 266 293 L 265 293 L 265 293 L 265 293 L 265 293 L 265 293 L 265 293 L 264 293 L 264 293 L 264 293 L 264 293 L 264 293 L 264 293 L 263 293 L 263 293 L 263 293 L 263 293 L 263 293 L 263 293 L 263 293 L 263 293 L 262 293 L 262 293 L 262 293 L 262 293 L 262 293 L 262 293 L 261 293 L 261 293 L 261 293 L 261 293 L 261 293 L 261 293 L 260 293 L 260 293 L 260 293 L 260 293 L 260 293 L 260 293 L 260 293 L 260 293 L 259 293 L 259 293 L 259 293 L 259 293 L 259 293 L 259 293 L 258 293 L 258 293 L 258 293 L 258 293 L 258 293 L 258 293 L 257 293 L 257 293 L 257 293 L 257 293 L 257 293 L 257 293 L 257 293 L 257 293 L 256 293 L 256 293 L 256 293 L 256 293 L 256 293 L 256 293 L 255 293 L 255 293 L 255 293 L 255 293 L 255 293 L 255 293 L 254 293 L 254 293 L 254 293 L 254 293 L 254 293 L 254 293 L 254 293 L 254 293 L 253 293 L 253 293 L 253 293 L 253 293 L 253 293 L 253 293 L 252 293 L 252 293 L 252 293 L 252 293 L 252 293 L 252 293 L 251 293 L 251 293 L 251 293 L 251 293 L 251 293 L 251 293 L 251 293 L 251 293 L 250 293 L 250 293 L 250 293 L 250 293 L 250 293 L 250 293 L 249 293 L 249 293 L 249 293 L 249 293 L 249 293 L 249 293 L 248 293 L 248 293 L 248 293 L 248 293 L 248 293 L 248 293 L 248 293 L 248 293 L 247 293 L 247 293 L 247 293 L 247 293 L 247 293 L 247 293 L 246 293 L 246 293 L 246 293 L 246 293 L 246 293 L 246 293 L 245 293 L 245 293 L 245 293 L 245 293 L 245 293 L 245 293 L 245 293 L 245 293 L 244 293 L 244 293 L 244 293 L 244 293 L 244 293 L 244 293 L 243 293 L 243 293 L 243 293 L 243 293 L 243 293 L 243 293 L 242 293 L 242 293 L 242 293 L 242 293 L 242 293 L 242 293 L 242 293 L 242 293 L 241 293 L 241 293 L 241 293 L 241 293 L 241 293 L 241 293 L 240 293 L 240 293 L 240 293 L 240 293 L 240 293 L 240 293 L 240 293 L 240 293 Q 286 329 288 389 Q 287 445 245 480 Q 204 516 144 517 Q 84 516 43 480 Q 2 445 0 389 Q 1 374 16 373 Q 31 374 32 389 Q 33 429 64 456 Q 95 484 144 485 Q 193 484 224 456 Q 255 429 256 389 Q 255 349 224 322 Q 193 294 144 293 L 144 293 L 144 293 L 143 293 L 143 293 L 143 293 L 143 293 L 143 293 L 143 293 L 142 293 L 142 293 L 142 293 L 142 293 L 142 293 L 142 293 L 142 293 L 142 293 L 141 293 L 141 293 L 141 293 L 141 293 L 141 293 L 141 293 L 140 293 L 140 293 L 140 293 L 140 293 L 140 293 L 140 293 L 139 293 L 139 293 L 139 293 L 139 293 L 139 293 L 139 293 L 139 293 L 139 293 L 138 293 L 138 293 L 138 293 L 138 293 L 138 293 L 138 293 L 137 293 L 137 293 L 137 293 L 137 293 L 137 293 L 137 293 L 136 293 L 136 293 L 136 293 L 136 293 L 136 293 L 136 293 L 136 293 L 136 293 L 135 293 L 135 293 L 135 293 L 135 293 L 135 293 L 135 293 L 134 293 L 134 293 L 134 293 L 134 293 L 134 293 L 134 293 L 133 293 L 133 293 L 133 293 L 133 293 L 133 293 L 133 293 L 133 293 L 133 293 L 132 293 L 132 293 L 132 293 L 132 293 L 132 293 L 132 293 L 131 293 L 131 293 L 131 293 L 131 293 L 131 293 L 131 293 L 130 293 L 130 293 L 130 293 L 130 293 L 130 293 L 130 293 L 130 293 L 130 293 L 129 293 L 129 293 Q 115 292 113 277 Q 115 262 129 261 L 130 261 L 130 261 L 130 261 L 130 261 L 130 261 L 130 261 L 130 261 L 130 261 L 131 261 L 131 261 L 131 261 L 131 261 L 131 261 L 131 261 L 132 261 L 132 261 L 132 261 L 132 261 L 132 261 L 132 261 L 133 261 L 133 261 L 133 261 L 133 261 L 133 261 L 133 261 L 133 261 L 133 261 L 134 261 L 134 261 L 134 261 L 134 261 L 134 261 L 134 261 L 135 261 L 135 261 L 135 261 L 135 261 L 135 261 L 135 261 L 136 261 L 136 261 L 136 261 L 136 261 L 136 261 L 136 261 L 136 261 L 136 261 L 137 261 L 137 261 L 137 261 L 137 261 L 137 261 L 137 261 L 138 261 L 138 261 L 138 261 L 138 261 L 138 261 L 138 261 L 139 261 L 139 261 L 139 261 L 139 261 L 139 261 L 139 261 L 139 261 L 139 261 L 140 261 L 140 261 L 140 261 L 140 261 L 140 261 L 140 261 L 141 261 L 141 261 L 141 261 L 141 261 L 141 261 L 141 261 L 142 261 L 142 261 L 142 261 L 142 261 L 142 261 L 142 261 L 142 261 L 142 261 L 143 261 L 143 261 L 143 261 L 143 261 L 143 261 L 143 261 L 144 261 L 144 261 L 144 261 L 144 261 Q 171 260 189 242 Q 207 224 208 197 Q 207 170 189 152 Q 171 134 144 133 L 144 133 Z M 293 99 Q 318 131 368 133 Q 418 131 444 99 Q 454 88 466 97 Q 477 107 469 119 Q 432 163 368 165 Q 304 163 268 119 Q 260 107 270 96 Q 282 88 293 99 L 293 99 Z" />
</svg>