<svg xmlns="http://www.w3.org/2000/svg" viewBox="0 0 384 512">
  <path d="M 320 480 L 64 480 L 320 480 L 64 480 Q 50 480 41 471 Q 32 462 32 448 L 32 64 L 32 64 Q 32 50 41 41 Q 50 32 64 32 L 192 32 L 192 32 L 192 144 L 192 144 Q 193 164 206 178 Q 220 191 240 192 L 352 192 L 352 192 L 352 448 L 352 448 Q 352 462 343 471 Q 334 480 320 480 L 320 480 Z M 240 160 Q 225 159 224 144 L 224 33 L 224 33 Q 228 34 231 37 L 347 153 L 347 153 Q 350 156 352 160 L 240 160 L 240 160 Z M 64 0 Q 37 1 19 19 L 19 19 L 19 19 Q 1 37 0 64 L 0 448 L 0 448 Q 1 475 19 493 Q 37 511 64 512 L 320 512 L 320 512 Q 347 511 365 493 Q 383 475 384 448 L 384 164 L 384 164 Q 384 144 370 130 L 254 14 L 254 14 Q 240 0 220 0 L 64 0 L 64 0 Z M 272 384 L 272 288 L 272 384 L 272 288 L 288 288 L 288 288 Q 303 287 304 272 L 304 240 L 304 240 Q 303 225 288 224 L 256 224 L 256 224 Q 241 225 240 240 L 240 256 L 240 256 L 144 256 L 144 256 L 144 240 L 144 240 Q 143 225 128 224 L 96 224 L 96 224 Q 81 225 80 240 L 80 272 L 80 272 Q 81 287 96 288 L 112 288 L 112 288 L 112 384 L 112 384 L 96 384 L 96 384 Q 81 385 80 400 L 80 432 L 80 432 Q 81 447 96 448 L 128 448 L 128 448 Q 143 447 144 432 L 144 416 L 144 416 L 240 416 L 240 416 L 240 432 L 240 432 Q 241 447 256 448 L 288 448 L 288 448 Q 303 447 304 432 L 304 400 L 304 400 Q 303 385 288 384 L 272 384 L 272 384 Z M 144 384 L 144 288 L 144 384 L 144 288 L 240 288 L 240 288 L 240 384 L 240 384 L 144 384 L 144 384 Z" />
</svg>