<svg xmlns="http://www.w3.org/2000/svg" viewBox="0 0 565 453">
  <path d="M 224 347 L 128 443 L 224 347 L 128 443 Q 117 453 106 443 L 10 347 L 10 347 Q 0 336 10 325 Q 21 315 32 325 L 101 393 L 101 393 L 101 16 L 101 16 Q 102 1 117 0 Q 132 1 133 16 L 133 393 L 133 393 L 202 325 L 202 325 Q 213 315 224 325 Q 234 336 224 347 L 224 347 Z M 293 432 Q 278 431 277 416 Q 278 401 293 400 L 357 400 L 357 400 Q 372 401 373 416 Q 372 431 357 432 L 293 432 L 293 432 Z M 293 304 Q 278 303 277 288 Q 278 273 293 272 L 421 272 L 421 272 Q 436 273 437 288 Q 436 303 421 304 L 293 304 L 293 304 Z M 293 176 Q 278 175 277 160 Q 278 145 293 144 L 485 144 L 485 144 Q 500 145 501 160 Q 500 175 485 176 L 293 176 L 293 176 Z M 293 48 Q 278 47 277 32 Q 278 17 293 16 L 549 16 L 549 16 Q 564 17 565 32 Q 564 47 549 48 L 293 48 L 293 48 Z" />
</svg>