<svg xmlns="http://www.w3.org/2000/svg" viewBox="0 0 640 448">
  <path d="M 160 32 L 576 32 L 160 32 L 576 32 Q 590 32 599 41 Q 608 50 608 64 L 608 112 L 608 112 Q 570 131 568 176 Q 570 221 608 241 L 608 288 L 608 288 Q 608 302 599 311 Q 590 320 576 320 L 160 320 L 160 320 Q 146 320 137 311 Q 128 302 128 288 L 128 64 L 128 64 Q 128 50 137 41 Q 146 32 160 32 L 160 32 Z M 612 110 L 612 110 L 612 110 L 612 110 Q 612 110 612 110 Q 612 110 612 110 Q 612 110 612 110 Q 612 110 612 110 L 612 110 Z M 612 242 L 612 242 L 612 242 L 612 242 Q 612 242 612 242 L 612 242 Z M 96 64 L 96 288 L 96 64 L 96 288 Q 97 315 115 333 Q 133 351 160 352 L 576 352 L 576 352 Q 603 351 621 333 Q 639 315 640 288 L 640 232 L 640 232 Q 638 218 624 213 Q 601 202 600 176 Q 601 150 624 139 Q 638 134 640 120 L 640 64 L 640 64 Q 639 37 621 19 Q 603 1 576 0 L 160 0 L 160 0 Q 133 1 115 19 Q 97 37 96 64 L 96 64 Z M 496 96 Q 511 95 512 80 Q 511 65 496 64 Q 481 65 480 80 Q 481 95 496 96 L 496 96 Z M 496 160 Q 511 159 512 144 Q 511 129 496 128 Q 481 129 480 144 Q 481 159 496 160 L 496 160 Z M 512 208 Q 511 193 496 192 Q 481 193 480 208 Q 481 223 496 224 Q 511 223 512 208 L 512 208 Z M 496 288 Q 511 287 512 272 Q 511 257 496 256 Q 481 257 480 272 Q 481 287 496 288 L 496 288 Z M 32 80 Q 31 65 16 64 Q 1 65 0 80 L 0 336 L 0 336 Q 1 384 33 415 Q 64 447 112 448 L 528 448 L 528 448 Q 543 447 544 432 Q 543 417 528 416 L 112 416 L 112 416 Q 78 415 55 393 Q 33 370 32 336 L 32 80 L 32 80 Z" />
</svg>