<svg xmlns="http://www.w3.org/2000/svg" viewBox="0 0 512 512">
  <path d="M 178.92044 229.64119 Q 199.68799 229.64119 217.26053 219.25742 L 217.26053 219.25742 Q 234.83307 208.87364 245.21684 191.30109 Q 255.60062 172.9298 255.60062 152.961 Q 255.60062 132.9922 245.21684 114.6209 Q 234.83307 97.04836 217.26053 86.66459 Q 199.68799 76.28081 178.92044 76.28081 Q 158.1529 76.28081 140.58034 86.66459 Q 123.0078 97.04836 112.62402 114.6209 Q 102.24025 132.9922 102.24025 152.961 Q 102.24025 172.9298 112.62402 191.30109 Q 123.0078 208.87364 140.58034 219.25742 Q 158.1529 229.64119 178.92044 229.64119 L 178.92044 229.64119 Z M 25.560062 434.12167 L 309.91577 434.12167 Q 322.6958 447.70047 338.67084 459.68173 Q 336.27457 459.68173 333.87833 459.68173 L 23.962559 459.68173 Q 13.578783 459.68173 7.1887674 452.49298 Q 0 446.10297 0 435.71918 Q 1.5975039 375.8128 41.535103 335.07645 Q 82.271454 295.13885 142.17784 293.54135 L 215.66302 293.54135 Q 236.43057 293.54135 255.60062 299.1326 Q 256.39938 312.7114 259.5944 327.88766 Q 238.82683 319.1014 215.66302 319.1014 L 142.17784 319.1014 Q 93.45398 320.6989 60.705147 352.649 Q 27.157566 385.39783 25.560062 434.12167 L 25.560062 434.12167 Z M 76.68018 152.961 Q 76.68018 125.00468 90.25897 101.84087 L 90.25897 101.84087 Q 103.83775 78.67707 127.80031 64.29953 Q 151.76286 50.72075 178.92044 50.72075 Q 206.078 50.72075 230.04056 64.29953 Q 254.00311 78.67707 267.5819 101.84087 Q 281.16068 125.00468 281.16068 152.961 Q 281.16068 180.91731 267.5819 204.08112 Q 254.00311 227.24493 230.04056 241.62247 Q 206.078 255.20125 178.92044 255.20125 Q 151.76286 255.20125 127.80031 241.62247 Q 103.83775 227.24493 90.25897 204.08112 Q 76.68018 180.91731 76.68018 152.961 L 76.68018 152.961 Z M 306.72073 291.14508 Q 306.72073 324.69266 323.49454 363.03278 L 323.49454 363.03278 Q 340.26834 401.37286 383.40094 426.93292 L 383.40094 260.7925 L 306.72073 291.14508 L 306.72073 291.14508 Z M 485.64117 291.14508 L 408.961 260.7925 L 408.961 426.93292 Q 452.0936 401.37286 468.8674 363.03278 Q 485.64117 324.69266 485.64117 291.14508 L 485.64117 291.14508 Z M 403.36972 231.2387 L 499.21997 269.5788 Q 510.4025 274.3713 511.20123 287.15134 Q 512 313.51013 502.41498 346.25897 Q 493.6287 379.0078 470.4649 409.36038 Q 446.50235 439.71295 403.36972 458.08423 Q 396.18097 461.27927 388.9922 458.08423 Q 345.8596 439.71295 321.89703 409.36038 Q 298.73322 379.0078 289.94696 346.25897 Q 280.36194 313.51013 281.16068 287.15134 Q 281.95944 274.3713 293.14197 269.5788 L 388.9922 231.2387 Q 396.18097 228.04369 403.36972 231.2387 L 403.36972 231.2387 Z" />
</svg>