<svg xmlns="http://www.w3.org/2000/svg" viewBox="0 0 512 512">
  <path d="M 161.65836 71.73896 Q 161.65836 57.980804 152.81381 49.136276 L 152.81381 49.136276 Q 143.96928 40.291748 130.21114 40.291748 Q 116.45297 40.291748 107.608444 49.136276 Q 98.763916 57.980804 98.763916 71.73896 Q 98.763916 85.49712 107.608444 94.34165 Q 116.45297 103.18618 130.21114 103.18618 Q 143.96928 103.18618 152.81381 94.34165 Q 161.65836 85.49712 161.65836 71.73896 L 161.65836 71.73896 Z M 67.316696 71.73896 Q 68.29942 36.360844 98.763916 17.68906 Q 130.21114 0 161.65836 17.68906 Q 192.12283 36.360844 193.10556 71.73896 Q 192.12283 107.11708 161.65836 125.788864 Q 130.21114 143.47792 98.763916 125.788864 Q 68.29942 107.11708 67.316696 71.73896 L 67.316696 71.73896 Z M 61.420345 240.76776 L 57.489445 288.9213 Q 56.506718 303.6622 65.35125 313.48944 Q 74.19578 323.3167 88.93666 323.3167 L 172.46832 323.3167 Q 186.22649 323.3167 195.07101 313.48944 Q 203.91554 303.6622 202.93282 288.9213 L 199.00192 240.76776 Q 197.03647 222.09596 184.26103 210.30327 Q 171.48561 197.52783 151.8311 197.52783 L 108.59117 197.52783 Q 88.93666 197.52783 76.16123 210.30327 Q 63.385796 222.09596 61.420345 240.76776 L 61.420345 240.76776 Z M 29.97313 237.81958 Q 32.921307 207.35509 54.541267 186.71785 L 54.541267 186.71785 Q 77.14395 167.06334 108.59117 166.08061 L 151.8311 166.08061 Q 183.2783 167.06334 205.881 186.71785 Q 227.50096 207.35509 230.44914 237.81958 L 234.38004 286.95584 Q 236.34549 308.5758 224.55278 326.26486 Q 212.76007 343.95395 193.10556 350.833 L 193.10556 496.2764 Q 192.12283 511.01727 177.38196 512 Q 162.64107 511.01727 161.65836 496.2764 L 161.65836 354.76392 L 98.763916 354.76392 L 98.763916 496.2764 Q 97.78119 511.01727 83.040306 512 Q 68.29942 511.01727 67.316696 496.2764 L 67.316696 350.833 Q 47.66219 343.95395 35.86948 326.26486 Q 24.076775 308.5758 26.042227 286.95584 L 29.97313 237.81958 L 29.97313 237.81958 Z M 413.23608 71.73896 Q 413.23608 57.980804 404.39154 49.136276 L 404.39154 49.136276 Q 395.54703 40.291748 381.78888 40.291748 Q 368.0307 40.291748 359.1862 49.136276 Q 350.34164 57.980804 350.34164 71.73896 Q 350.34164 85.49712 359.1862 94.34165 Q 368.0307 103.18618 381.78888 103.18618 Q 395.54703 103.18618 404.39154 94.34165 Q 413.23608 85.49712 413.23608 71.73896 L 413.23608 71.73896 Z M 318.89444 71.73896 Q 319.87717 36.360844 350.34164 17.68906 Q 381.78888 0 413.23608 17.68906 Q 443.70056 36.360844 444.6833 71.73896 Q 443.70056 107.11708 413.23608 125.788864 Q 381.78888 143.47792 350.34164 125.788864 Q 319.87717 107.11708 318.89444 71.73896 L 318.89444 71.73896 Z M 312.99808 240.76776 L 309.06717 288.9213 Q 308.08444 303.6622 316.929 313.48944 Q 325.7735 323.3167 340.5144 323.3167 L 424.04605 323.3167 Q 437.80423 323.3167 446.64874 313.48944 Q 455.4933 303.6622 454.51056 288.9213 L 450.57965 240.76776 Q 448.6142 222.09596 435.83878 210.30327 Q 423.06335 197.52783 403.40884 197.52783 L 360.1689 197.52783 Q 340.5144 197.52783 327.73895 210.30327 Q 314.96353 222.09596 312.99808 240.76776 L 312.99808 240.76776 Z M 281.55087 237.81958 Q 284.49905 206.37236 306.119 186.71785 L 306.119 186.71785 Q 328.72168 167.06334 360.1689 166.08061 L 403.40884 166.08061 Q 434.85605 167.06334 457.45874 186.71785 Q 479.0787 206.37236 482.0269 237.81958 L 485.95776 286.95584 Q 487.92322 308.5758 476.13052 326.26486 Q 464.3378 343.95395 444.6833 350.833 L 444.6833 496.2764 Q 443.70056 511.01727 428.9597 512 Q 414.2188 511.01727 413.23608 496.2764 L 413.23608 354.76392 L 350.34164 354.76392 L 350.34164 496.2764 Q 349.35892 511.01727 334.61804 512 Q 319.87717 511.01727 318.89444 496.2764 L 318.89444 350.833 Q 299.23993 343.95395 287.4472 326.26486 Q 275.6545 308.5758 277.61996 286.95584 L 281.55087 237.81958 L 281.55087 237.81958 Z" />
</svg>