<svg xmlns="http://www.w3.org/2000/svg" viewBox="0 0 504 512">
  <path d="M 64 480 L 112 480 L 64 480 L 112 480 L 112 512 L 112 512 L 64 512 L 64 512 Q 37 511 19 493 Q 1 475 0 448 L 0 64 L 0 64 Q 1 37 19 19 Q 37 1 64 0 L 220 0 L 220 0 Q 240 0 254 14 L 370 130 L 370 130 Q 384 144 384 164 L 384 304 L 384 304 L 352 304 L 352 304 L 352 192 L 352 192 L 240 192 L 240 192 Q 220 191 206 178 Q 193 164 192 144 L 192 32 L 192 32 L 64 32 L 64 32 Q 50 32 41 41 Q 32 50 32 64 L 32 448 L 32 448 Q 32 462 41 471 Q 50 480 64 480 L 64 480 Z M 352 160 Q 350 156 347 153 L 231 37 L 231 37 Q 228 34 224 33 L 224 144 L 224 144 Q 225 159 240 160 L 352 160 L 352 160 Z M 160 368 Q 161 353 176 352 L 240 352 L 240 352 Q 255 353 256 368 Q 255 383 240 384 L 192 384 L 192 384 L 192 416 L 192 416 L 224 416 L 224 416 Q 239 417 240 432 Q 239 447 224 448 L 192 448 L 192 448 L 192 480 L 192 480 L 240 480 L 240 480 Q 255 481 256 496 Q 255 511 240 512 L 176 512 L 176 512 Q 161 511 160 496 L 160 432 L 160 432 L 160 368 L 160 368 Z M 304 352 L 336 352 L 304 352 L 336 352 Q 360 353 376 368 Q 391 384 392 408 Q 391 432 376 448 Q 360 463 336 464 L 320 464 L 320 464 L 320 496 L 320 496 Q 319 511 304 512 Q 289 511 288 496 L 288 448 L 288 448 L 288 368 L 288 368 Q 289 353 304 352 L 304 352 Z M 336 432 Q 358 430 360 408 Q 358 386 336 384 L 320 384 L 320 384 L 320 432 L 320 432 L 336 432 L 336 432 Z M 454 352 L 480 352 L 454 352 L 480 352 Q 495 353 496 368 Q 495 383 480 384 L 454 384 L 454 384 Q 441 385 440 398 Q 440 406 448 410 L 479 426 L 479 426 Q 503 439 504 466 Q 504 486 491 499 Q 478 512 458 512 L 424 512 L 424 512 Q 409 511 408 496 Q 409 481 424 480 L 458 480 L 458 480 Q 471 479 472 466 Q 472 458 464 454 L 433 438 L 433 438 Q 409 425 408 398 Q 408 378 421 365 Q 434 352 454 352 L 454 352 Z" />
</svg>