<svg xmlns="http://www.w3.org/2000/svg" viewBox="0 0 640 512">
  <path d="M 320 32 L 64 32 L 320 32 L 64 32 Q 50 32 41 41 Q 32 50 32 64 L 32 448 L 32 448 Q 32 462 41 471 Q 50 480 64 480 L 128 480 L 128 480 L 128 416 L 128 416 Q 129 389 147 371 Q 165 353 192 352 Q 219 353 237 371 Q 255 389 256 416 L 256 480 L 256 480 L 291 480 L 291 480 Q 297 498 308 512 L 256 512 L 64 512 Q 37 511 19 493 Q 1 475 0 448 L 0 64 L 0 64 Q 1 37 19 19 Q 37 1 64 0 L 320 0 L 320 0 Q 347 1 365 19 Q 383 37 384 64 L 376 64 L 376 64 Q 363 64 352 67 L 352 64 L 352 64 Q 352 50 343 41 Q 334 32 320 32 L 320 32 Z M 306 98 Q 296 111 291 128 L 288 128 L 256 128 L 256 160 L 256 160 L 288 160 L 288 160 L 288 192 L 288 192 L 248 192 L 248 192 Q 226 190 224 168 L 224 120 L 224 120 Q 226 98 248 96 L 296 96 L 296 96 Q 302 96 306 98 L 306 98 Z M 288 224 L 288 256 L 288 224 L 288 256 L 256 256 L 256 256 L 256 288 L 256 288 L 288 288 L 288 288 L 288 320 L 288 320 L 248 320 L 248 320 Q 226 318 224 296 L 224 248 L 224 248 Q 226 226 248 224 L 288 224 L 288 224 Z M 192 384 Q 178 384 169 393 L 169 393 L 169 393 Q 160 402 160 416 L 160 480 L 160 480 L 224 480 L 224 480 L 224 416 L 224 416 Q 224 402 215 393 Q 206 384 192 384 L 192 384 Z M 88 96 L 136 96 L 88 96 L 136 96 Q 158 98 160 120 L 160 168 L 160 168 Q 158 190 136 192 L 88 192 L 88 192 Q 66 190 64 168 L 64 120 L 64 120 Q 66 98 88 96 L 88 96 Z M 96 160 L 128 160 L 96 160 L 128 160 L 128 128 L 128 128 L 96 128 L 96 128 L 96 160 L 96 160 Z M 88 224 L 136 224 L 88 224 L 136 224 Q 158 226 160 248 L 160 296 L 160 296 Q 158 318 136 320 L 88 320 L 88 320 Q 66 318 64 296 L 64 248 L 64 248 Q 66 226 88 224 L 88 224 Z M 96 288 L 128 288 L 96 288 L 128 288 L 128 256 L 128 256 L 96 256 L 96 256 L 96 288 L 96 288 Z M 384 128 Q 370 128 361 137 L 361 137 L 361 137 Q 352 146 352 160 L 352 448 L 352 448 Q 352 462 361 471 Q 370 480 384 480 L 576 480 L 576 480 Q 590 480 599 471 Q 608 462 608 448 L 608 160 L 608 160 Q 608 146 599 137 Q 590 128 576 128 L 384 128 L 384 128 Z M 320 160 Q 321 133 339 115 L 339 115 L 339 115 Q 357 97 384 96 L 576 96 L 576 96 Q 603 97 621 115 Q 639 133 640 160 L 640 448 L 640 448 Q 639 475 621 493 Q 603 511 576 512 L 384 512 L 384 512 Q 357 511 339 493 Q 321 475 320 448 L 320 160 L 320 160 Z M 376 208 Q 378 186 400 184 Q 422 186 424 208 Q 422 230 400 232 Q 378 230 376 208 L 376 208 Z M 400 280 Q 422 282 424 304 Q 422 326 400 328 Q 378 326 376 304 Q 378 282 400 280 L 400 280 Z M 376 400 Q 378 378 400 376 Q 422 378 424 400 Q 422 422 400 424 Q 378 422 376 400 L 376 400 Z M 464 192 L 560 192 L 464 192 L 560 192 Q 575 193 576 208 Q 575 223 560 224 L 464 224 L 464 224 Q 449 223 448 208 Q 449 193 464 192 L 464 192 Z M 448 304 Q 449 289 464 288 L 560 288 L 560 288 Q 575 289 576 304 Q 575 319 560 320 L 464 320 L 464 320 Q 449 319 448 304 L 448 304 Z M 464 384 L 560 384 L 464 384 L 560 384 Q 575 385 576 400 Q 575 415 560 416 L 464 416 L 464 416 Q 449 415 448 400 Q 449 385 464 384 L 464 384 Z" />
</svg>