<svg xmlns="http://www.w3.org/2000/svg" viewBox="0 0 640 448">
  <path d="M 423 0 L 288 0 L 423 0 L 288 0 Q 288 0 288 0 Q 288 0 288 0 Q 288 0 288 0 Q 288 0 288 0 L 152 0 L 152 0 Q 152 0 152 0 Q 152 0 152 0 L 57 0 L 57 0 Q 33 1 26 24 L 1 125 L 1 125 Q 0 128 0 132 Q 0 144 8 152 Q 16 160 29 160 L 34 160 L 128 160 L 128 160 L 128 160 L 288 160 L 338 160 Q 349 144 362 128 L 304 128 L 304 128 L 304 32 L 304 32 L 410 32 L 410 32 L 418 72 L 418 72 Q 433 62 449 64 L 443 32 L 443 32 L 519 32 L 519 32 L 534 94 L 534 94 Q 552 89 569 98 L 550 24 L 550 24 Q 543 1 519 0 L 424 0 L 424 0 Q 424 0 424 0 Q 424 0 423 0 L 423 0 Z M 338 416 Q 324 401 314 384 L 92 384 L 92 384 L 70 192 L 70 192 L 38 192 L 38 192 L 41 224 L 41 224 L 16 224 L 16 224 Q 1 225 0 240 Q 1 255 16 256 L 45 256 L 45 256 L 64 417 L 64 417 L 64 432 L 64 432 Q 65 447 80 448 Q 95 447 96 432 L 96 416 L 96 416 L 338 416 L 338 416 Z M 272 32 L 272 128 L 272 32 L 272 128 L 147 128 L 147 128 L 165 32 L 165 32 L 272 32 L 272 32 Z M 133 32 L 115 128 L 133 32 L 115 128 L 48 128 L 48 128 L 48 128 L 48 128 L 33 128 L 33 128 L 57 32 L 57 32 L 133 32 L 133 32 Z M 447 129 L 494 179 L 447 129 L 494 179 Q 499 184 506 184 Q 513 184 518 179 L 539 155 L 539 155 Q 565 180 586 216 Q 607 253 608 288 Q 607 339 574 375 Q 576 367 576 359 Q 575 330 559 304 Q 542 278 522 259 Q 501 239 489 230 Q 480 224 471 230 Q 459 239 438 259 Q 418 278 401 304 Q 385 330 384 359 Q 384 367 386 375 Q 353 340 352 288 Q 353 245 383 202 Q 413 160 447 129 L 447 129 Z M 480 416 Q 476 416 473 416 Q 447 413 432 396 Q 416 380 416 359 Q 417 332 443 300 Q 463 278 480 264 Q 497 278 517 300 Q 543 332 544 359 Q 544 380 528 396 Q 513 413 487 416 Q 487 416 487 416 Q 483 416 480 416 L 480 416 Z M 320 288 Q 321 354 364 398 L 364 398 L 364 398 Q 406 443 471 448 Q 475 448 480 448 Q 485 448 489 448 Q 554 443 596 398 Q 638 354 640 288 Q 638 242 614 200 Q 590 158 559 130 Q 539 114 519 129 Q 519 130 519 130 Q 518 130 518 131 L 506 144 L 506 144 L 468 105 L 468 105 Q 467 104 467 104 Q 467 104 467 104 Q 447 89 428 104 Q 390 136 357 184 Q 323 231 320 288 L 320 288 Z" />
</svg>