<svg xmlns="http://www.w3.org/2000/svg" viewBox="0 0 543 512">
  <path d="M 48 256 Q 49 193 79 143 L 79 143 L 79 143 Q 108 92 159 63 L 159 63 L 159 63 Q 209 33 272 32 Q 335 33 385 63 Q 436 92 465 143 Q 495 193 496 256 Q 496 271 494 286 Q 493 301 508 304 Q 522 304 526 290 Q 528 273 528 256 Q 527 185 493 127 Q 459 69 401 35 Q 344 1 272 0 Q 200 1 143 35 Q 85 69 51 127 Q 17 184 16 256 Q 16 273 18 290 Q 22 304 36 304 Q 51 301 50 286 Q 48 271 48 256 L 48 256 Z M 227 476 Q 213 474 208 488 Q 207 503 221 507 Q 246 512 272 512 Q 298 512 323 507 Q 337 503 336 488 Q 331 474 317 476 Q 295 480 272 480 Q 249 480 227 476 L 227 476 Z M 220 312 Q 226 302 218 293 Q 209 285 198 290 L 131 331 L 131 331 Q 129 328 127 327 Q 113 312 93 312 Q 74 312 59 327 Q 55 331 53 335 Q 31 333 14 349 Q 1 363 0 381 Q 0 400 12 414 Q 4 432 7 451 Q 11 471 25 485 Q 40 500 59 503 Q 78 506 96 499 Q 111 511 129 510 Q 147 510 161 496 Q 177 479 175 458 Q 180 455 184 451 Q 198 436 198 417 Q 198 398 184 383 Q 182 381 180 379 Q 180 379 180 379 L 220 312 L 220 312 Z M 344 291 Q 334 286 325 294 Q 317 303 322 313 L 363 380 L 363 380 Q 361 382 359 384 Q 345 399 345 418 Q 345 437 359 452 Q 363 456 367 459 Q 366 480 381 497 Q 395 510 414 511 Q 432 512 446 499 Q 464 507 484 504 Q 503 500 517 486 Q 532 471 535 452 Q 538 433 531 415 Q 543 400 542 382 Q 542 364 528 350 Q 512 334 490 336 Q 487 331 483 327 Q 468 313 449 313 Q 430 313 415 327 Q 413 329 412 331 L 344 291 L 344 291 Z M 133 367 L 160 351 L 133 367 L 160 351 L 143 377 L 143 377 Q 139 385 142 392 Q 146 399 153 401 Q 158 402 161 406 Q 170 417 161 428 Q 157 432 153 433 Q 145 434 142 441 Q 138 448 142 455 Q 146 465 138 473 Q 127 483 116 473 Q 114 472 113 470 Q 109 464 103 462 Q 95 461 90 465 Q 68 480 48 462 Q 30 442 45 420 Q 49 415 48 407 Q 46 401 40 397 Q 38 396 37 394 Q 27 383 37 372 Q 45 364 55 368 Q 62 372 69 368 Q 76 365 77 357 Q 78 353 82 349 Q 93 340 104 349 Q 108 352 109 357 Q 111 364 118 368 Q 125 371 133 367 L 133 367 Z M 399 379 L 383 352 L 399 379 L 383 352 L 410 368 L 410 368 Q 417 372 424 369 Q 431 366 433 358 Q 434 353 438 350 Q 449 341 460 350 Q 464 354 465 358 Q 466 366 473 370 Q 480 373 487 370 Q 497 365 505 373 Q 515 384 505 395 Q 504 397 502 398 Q 496 402 494 409 Q 493 416 497 422 Q 512 443 494 464 Q 474 481 452 466 Q 447 462 439 463 Q 432 465 429 471 Q 428 473 426 475 Q 415 484 404 475 Q 396 466 400 456 Q 404 449 400 442 Q 397 435 389 434 Q 385 433 381 429 Q 372 418 381 407 Q 384 403 389 402 Q 396 400 400 393 Q 403 386 399 379 L 399 379 Z M 112 240 Q 113 255 128 256 L 224 256 L 224 256 Q 239 255 240 240 Q 239 225 224 224 L 128 224 L 128 224 Q 113 225 112 240 L 112 240 Z M 304 240 Q 305 255 320 256 L 416 256 L 416 256 Q 431 255 432 240 Q 431 225 416 224 L 320 224 L 320 224 Q 305 225 304 240 L 304 240 Z M 405 143 Q 419 137 415 123 Q 409 110 395 113 Q 364 124 341 140 Q 318 155 309 165 Q 299 176 309 187 Q 320 197 331 187 Q 339 180 358 166 Q 378 153 405 143 L 405 143 Z M 139 143 Q 166 153 186 166 L 186 166 L 186 166 Q 205 180 213 187 Q 224 197 235 187 Q 245 176 235 165 Q 226 155 203 139 Q 180 124 149 113 Q 135 109 129 123 Q 125 137 139 143 L 139 143 Z" />
</svg>