<svg xmlns="http://www.w3.org/2000/svg" viewBox="0 0 645 517">
  <path d="M 352 383 Q 421 376 466 327 L 466 327 L 466 327 Q 510 278 512 208 Q 510 133 460 84 Q 411 34 336 32 Q 271 33 223 73 Q 176 112 163 174 L 129 185 L 129 185 Q 139 105 197 54 Q 254 2 336 0 Q 424 2 483 61 Q 542 120 544 208 Q 542 287 494 343 L 635 485 L 635 485 Q 645 496 635 507 Q 624 517 613 507 L 471 366 L 471 366 Q 421 410 351 416 Q 352 409 352 402 L 352 383 L 352 383 Z M 320 198 Q 319 181 307 172 L 307 172 L 307 172 Q 294 163 278 168 L 118 221 L 118 221 Q 97 229 96 252 L 96 312 L 96 312 L 96 422 L 96 422 Q 82 416 64 416 Q 37 417 19 430 Q 1 444 0 464 Q 1 484 19 498 Q 37 511 64 512 Q 91 511 109 498 Q 127 484 128 464 L 128 324 L 128 324 L 288 270 L 288 270 L 288 358 L 288 358 Q 274 352 256 352 Q 229 353 211 366 Q 193 380 192 400 Q 193 420 211 434 Q 229 447 256 448 Q 283 447 301 434 Q 319 420 320 400 Q 320 398 320 395 Q 320 394 320 392 L 320 248 L 320 248 L 320 198 L 320 198 Z M 288 237 L 128 290 L 288 237 L 128 290 L 128 251 L 128 251 L 288 198 L 288 198 L 288 236 L 288 237 Z M 282 408 Q 274 415 256 416 Q 239 415 230 408 Q 223 402 224 400 Q 223 398 230 392 Q 238 385 256 384 Q 273 385 282 392 Q 289 398 288 400 Q 289 402 282 408 L 282 408 Z M 90 472 Q 81 479 64 480 Q 47 479 38 472 Q 31 466 32 464 Q 31 462 38 456 Q 46 449 64 448 Q 81 449 90 456 Q 97 462 96 464 Q 97 466 90 472 L 90 472 Z" />
</svg>