<svg xmlns="http://www.w3.org/2000/svg" viewBox="0 0 640 512">
  <path d="M 64 32 Q 50 32 41 41 L 41 41 L 41 41 Q 32 50 32 64 L 32 352 L 32 352 Q 32 366 41 375 Q 50 384 64 384 L 70 384 L 70 384 Q 80 356 104 338 Q 128 321 160 320 Q 192 321 216 338 Q 240 356 251 384 L 384 384 L 384 384 L 384 64 L 384 64 Q 384 50 375 41 Q 366 32 352 32 L 64 32 L 64 32 Z M 64 416 Q 37 415 19 397 L 19 397 L 19 397 Q 1 379 0 352 L 0 64 L 0 64 Q 1 37 19 19 Q 37 1 64 0 L 352 0 L 352 0 Q 379 1 397 19 Q 415 37 416 64 L 416 96 L 416 96 L 481 96 L 481 96 Q 503 96 518 113 L 596 205 L 596 205 Q 608 218 608 236 L 608 384 L 608 384 L 624 384 L 624 384 Q 639 385 640 400 Q 639 415 624 416 L 576 416 L 576 416 Q 575 457 548 484 Q 521 511 480 512 Q 439 511 412 484 Q 385 457 384 416 L 256 416 L 256 416 Q 255 457 228 484 Q 201 511 160 512 Q 119 511 92 484 Q 65 457 64 416 L 64 416 Z M 571 224 L 493 134 L 571 224 L 493 134 Q 489 128 481 128 L 416 128 L 416 128 L 416 224 L 416 224 L 571 224 L 571 224 Z M 416 256 L 416 344 L 416 256 L 416 344 Q 442 321 480 320 Q 512 321 536 338 Q 560 356 571 384 L 576 384 L 576 384 L 576 256 L 576 256 L 416 256 L 416 256 Z M 224 416 Q 223 380 192 361 Q 160 343 128 361 Q 97 380 96 416 Q 97 452 128 471 Q 160 489 192 471 Q 223 452 224 416 L 224 416 Z M 480 480 Q 516 479 535 448 Q 553 416 535 384 Q 516 353 480 352 Q 444 353 425 384 Q 407 416 425 448 Q 444 479 480 480 L 480 480 Z M 288 224 L 288 128 L 288 224 L 288 128 L 288 97 L 288 97 Q 258 107 256 139 L 256 224 L 256 224 L 288 224 L 288 224 Z M 288 304 L 288 256 L 288 304 L 288 256 L 256 256 L 256 256 Q 242 256 233 247 Q 224 238 224 224 L 224 139 L 224 139 Q 225 107 246 86 Q 267 65 299 64 Q 318 66 320 85 L 320 128 L 320 128 L 320 224 L 320 224 L 320 256 L 320 256 L 320 304 L 320 304 Q 319 319 304 320 Q 289 319 288 304 L 288 304 Z M 160 206 L 160 272 L 160 206 L 160 272 Q 159 287 144 288 Q 129 287 128 272 L 128 206 L 128 206 Q 104 200 89 180 Q 75 161 76 135 L 80 79 L 80 79 Q 82 64 97 64 Q 112 66 112 81 L 108 137 L 108 137 Q 107 153 118 164 Q 128 176 144 176 Q 160 176 170 164 Q 181 153 180 137 L 176 81 L 176 81 Q 176 67 191 64 Q 206 64 208 79 L 212 135 L 212 135 Q 213 161 199 180 Q 184 200 160 206 L 160 206 Z M 160 80 L 160 144 L 160 80 L 160 144 Q 159 159 144 160 Q 129 159 128 144 L 128 80 L 128 80 Q 129 65 144 64 Q 159 65 160 80 L 160 80 Z" />
</svg>