<svg xmlns="http://www.w3.org/2000/svg" viewBox="0 0 512 512">
  <path d="M 279.2 126.4 Q 291.2 125.6 299.2 116 Q 304 110.4 308.8 104.8 Q 328.8 127.2 342.4 153.6 Q 358.4 187.2 358.4 204.8 Q 357.6 236 342.4 260 Q 351.2 267.2 359.2 275.2 Q 362.4 272.8 365.6 271.2 Q 383.2 241.6 384 204.8 Q 384 192.8 378.4 176 Q 373.6 159.2 364.8 141.6 Q 346.4 105.6 316.8 76.8 Q 308.8 70.4 300.8 76.8 Q 298.4 78.4 296 80.8 Q 287.2 90.4 279.2 100.8 Q 271.2 90.4 262.4 80.8 Q 248.8 67.2 235.2 54.4 Q 231.2 51.2 227.2 51.2 Q 222.4 51.2 219.2 54.4 Q 178.4 90.4 153.6 130.4 Q 128.8 171.2 128 204.8 Q 128 241.6 146.4 270.4 Q 149.6 272.8 152.8 275.2 Q 160.8 266.4 169.6 260 Q 153.6 236 153.6 204.8 Q 153.6 181.6 176 144 Q 195.2 112.8 227.2 81.6 Q 244 98.4 259.2 116.8 Q 267.2 125.6 279.2 126.4 L 279.2 126.4 Z M 179.2 206.4 Q 179.2 229.6 190.4 247.2 Q 201.6 240.8 214.4 236.8 Q 205.6 225.6 204.8 206.4 Q 204.8 196.8 212 184 Q 217.6 174.4 228 161.6 L 244 181.6 L 260 202.4 L 265.6 209.6 L 267.2 211.2 L 267.2 212 L 267.2 212 L 267.2 212 L 267.2 212 L 267.2 212 L 277.6 204 L 267.2 212 Q 271.2 216.8 277.6 216.8 Q 283.2 216.8 287.2 212 L 304 192.8 Q 312 217.6 298.4 236.8 Q 311.2 240.8 322.4 247.2 Q 332 230.4 332 211.2 Q 332.8 192 323.2 174.4 L 323.2 174.4 L 323.2 174.4 L 323.2 174.4 L 323.2 174.4 Q 320.8 168.8 316.8 162.4 Q 312.8 157.6 307.2 157.6 Q 300.8 157.6 296.8 162.4 L 278.4 184 L 264 166.4 Q 257.6 157.6 252 150.4 Q 240 136 237.6 132.8 Q 234.4 128 228 128 Q 221.6 128 218.4 132.8 Q 200 154.4 189.6 171.2 Q 179.2 188 179.2 206.4 L 179.2 206.4 Z M 171.2 342.4 Q 180.8 315.2 203.2 298.4 L 203.2 298.4 Q 225.6 282.4 256 281.6 Q 286.4 282.4 308.8 298.4 Q 331.2 315.2 340.8 342.4 Q 344 350.4 352 351.2 Q 360.8 351.2 364.8 344 Q 372.8 327.2 388 317.6 Q 403.2 307.2 422.4 307.2 Q 449.6 308 468 325.6 Q 485.6 344 486.4 371.2 Q 485.6 398.4 468 416.8 Q 449.6 434.4 422.4 435.2 L 324 435.2 L 188 435.2 L 89.6 435.2 Q 62.4 434.4 44 416.8 Q 26.4 398.4 25.6 371.2 Q 26.4 344 44 325.6 Q 62.4 308 89.6 307.2 Q 108.8 307.2 124 317.6 Q 139.2 327.2 147.2 344 Q 151.2 351.2 160 351.2 Q 168 350.4 171.2 342.4 L 171.2 342.4 Z M 256 256 Q 224 256 198.4 271.2 L 198.4 271.2 Q 172.8 286.4 156.8 312 Q 131.2 283.2 89.6 281.6 Q 51.2 282.4 26.4 308 Q 0.8 332.8 0 371.2 Q 0.8 409.6 26.4 434.4 Q 51.2 460 89.6 460.8 L 188 460.8 L 324 460.8 L 422.4 460.8 Q 460.8 460 485.6 434.4 Q 511.2 409.6 512 371.2 Q 511.2 332.8 485.6 308 Q 460.8 282.4 422.4 281.6 Q 380.8 283.2 355.2 312 Q 339.2 286.4 313.6 271.2 Q 288 256 256 256 L 256 256 Z" />
</svg>