<svg xmlns="http://www.w3.org/2000/svg" viewBox="0 0 448 512">
  <path d="M 226 479 Q 225 480 224 480 Q 223 480 222 479 L 98 347 L 98 347 Q 96 345 96 343 Q 97 337 103 336 L 160 336 L 160 336 Q 175 335 176 320 L 176 200 L 176 200 Q 177 193 184 192 L 264 192 L 264 192 Q 271 193 272 200 L 272 320 L 272 320 Q 273 335 288 336 L 345 336 L 345 336 Q 351 337 352 343 Q 352 345 350 347 L 226 479 L 226 479 Z M 224 512 Q 239 512 249 501 L 374 369 L 374 369 Q 384 358 384 343 Q 384 326 373 315 Q 362 304 345 304 L 304 304 L 304 304 L 304 200 L 304 200 Q 304 183 292 172 Q 281 160 264 160 L 184 160 L 184 160 Q 167 160 156 172 Q 144 183 144 200 L 144 304 L 144 304 L 103 304 L 103 304 Q 86 304 75 315 Q 64 326 64 343 Q 64 358 75 369 L 199 501 L 199 501 Q 209 512 224 512 L 224 512 Z M 416 176 Q 417 191 432 192 Q 447 191 448 176 L 448 80 L 448 80 Q 447 46 425 23 Q 402 1 368 0 L 80 0 L 80 0 Q 46 1 23 23 Q 1 46 0 80 L 0 176 L 0 176 Q 1 191 16 192 Q 31 191 32 176 L 32 80 L 32 80 Q 33 60 46 46 Q 60 33 80 32 L 368 32 L 368 32 Q 388 33 402 46 Q 415 60 416 80 L 416 176 L 416 176 Z" />
</svg>