<svg xmlns="http://www.w3.org/2000/svg" viewBox="0 0 496 512">
  <path d="M 283 57 L 267 78 L 283 57 L 267 78 Q 286 69 305 73 Q 324 78 336 93 Q 348 78 367 73 Q 386 69 405 78 L 389 57 L 389 57 Q 368 33 336 32 Q 304 33 283 57 L 283 57 Z M 336 163 Q 332 168 327 172 L 290 201 L 290 201 Q 294 203 297 205 L 312 215 L 312 215 Q 314 194 336 192 Q 358 194 360 215 L 375 205 L 375 205 Q 378 203 382 201 L 345 172 L 345 172 Q 340 168 336 163 L 336 163 Z M 415 187 L 450 177 L 415 187 L 450 177 Q 463 172 464 157 Q 464 153 462 149 L 393 107 L 393 107 Q 381 101 370 106 Q 360 111 356 123 Q 354 137 365 147 L 415 187 L 415 187 Z M 307 147 Q 318 137 316 123 Q 312 111 302 106 Q 291 101 279 107 L 210 149 L 210 149 Q 208 153 208 157 Q 209 172 223 177 L 257 187 L 257 187 L 307 147 L 307 147 Z M 336 0 Q 360 0 381 11 L 425 1 L 425 1 Q 430 0 435 0 L 436 0 L 436 0 Q 455 0 467 13 Q 479 25 480 44 Q 480 51 478 57 L 464 99 L 464 99 L 484 124 L 484 124 Q 496 138 496 157 Q 496 174 486 188 Q 475 202 459 207 L 423 218 L 423 218 Q 407 223 393 232 L 374 244 L 374 244 Q 357 256 336 256 Q 315 256 298 244 L 279 232 L 279 232 Q 265 223 249 218 L 213 207 L 213 207 Q 196 202 186 188 Q 176 175 176 157 Q 176 138 188 124 L 208 99 L 208 99 L 194 57 L 194 57 Q 192 51 192 44 Q 192 25 205 13 Q 217 0 236 0 L 237 0 L 237 0 Q 242 0 247 1 L 291 11 L 291 11 Q 312 0 336 0 L 336 0 Z M 240 32 Q 238 32 237 32 L 236 32 L 236 32 Q 225 33 224 44 Q 224 45 225 47 L 232 69 L 232 69 L 258 37 L 258 37 L 259 37 L 259 37 L 240 32 L 240 32 Z M 414 37 L 440 69 L 414 37 L 440 69 L 447 47 L 447 47 Q 448 45 448 44 Q 447 33 437 32 L 435 32 L 435 32 Q 434 32 432 32 L 413 37 L 413 37 L 414 37 L 414 37 Z M 128 267 Q 149 242 177 224 Q 189 233 204 238 L 213 241 L 213 241 Q 168 262 140 304 Q 113 346 112 400 Q 111 415 96 416 Q 81 415 80 400 Q 80 375 86 352 L 32 352 L 32 352 L 32 400 L 32 400 Q 33 434 55 457 Q 78 479 112 480 L 320 480 L 320 480 Q 320 466 311 457 Q 302 448 288 448 L 240 448 L 240 448 Q 225 447 224 432 Q 225 417 240 416 L 288 416 L 288 416 Q 315 417 333 435 Q 351 453 352 480 L 448 480 L 448 480 Q 448 466 439 457 Q 430 448 416 448 L 400 448 L 400 448 Q 385 447 384 432 Q 385 417 400 416 L 416 416 L 416 416 Q 443 417 461 435 Q 479 453 480 480 L 480 496 L 480 496 Q 479 511 464 512 L 112 512 L 112 512 Q 64 511 33 479 Q 1 448 0 400 L 0 96 L 0 96 Q 1 69 19 51 Q 37 33 64 32 Q 91 33 109 51 Q 127 69 128 96 L 128 267 L 128 267 Z M 448 294 Q 448 268 429 250 Q 431 249 432 249 L 462 240 L 462 240 Q 480 264 480 294 Q 479 344 439 373 L 428 380 L 428 380 Q 413 389 397 388 Q 380 386 368 374 Q 352 357 354 336 Q 356 315 375 302 L 391 291 L 391 291 Q 404 284 413 295 Q 420 308 409 317 L 393 328 L 393 328 Q 380 339 390 352 Q 399 360 410 353 L 421 346 L 421 346 Q 447 327 448 294 L 448 294 Z M 96 320 L 96 320 L 96 320 L 96 320 L 96 256 L 96 256 L 32 256 L 32 256 L 32 320 L 32 320 L 96 320 L 96 320 Z M 96 160 L 32 160 L 96 160 L 32 160 L 32 224 L 32 224 L 96 224 L 96 224 L 96 160 L 96 160 Z M 96 128 L 96 96 L 96 128 L 96 96 Q 96 82 87 73 Q 78 64 64 64 Q 50 64 41 73 Q 32 82 32 96 L 32 128 L 32 128 L 96 128 L 96 128 Z M 304 374 Q 292 386 275 388 L 275 388 L 275 388 Q 259 389 244 380 L 199 349 L 199 349 Q 188 340 195 327 Q 204 316 217 323 L 262 353 L 262 353 Q 273 360 282 352 Q 292 339 280 328 L 244 304 L 244 304 Q 233 295 240 282 Q 249 270 262 278 L 298 301 L 298 301 Q 316 315 318 336 Q 320 357 304 374 L 304 374 Z M 272 128 Q 273 113 288 112 Q 303 113 304 128 Q 303 143 288 144 Q 273 143 272 128 L 272 128 Z M 384 112 Q 399 113 400 128 Q 399 143 384 144 Q 369 143 368 128 Q 369 113 384 112 L 384 112 Z" />
</svg>