<svg xmlns="http://www.w3.org/2000/svg" viewBox="0 0 448 416">
  <path d="M 54 253 Q 50 241 37 240 Q 21 242 22 259 Q 41 328 95 371 Q 150 415 224 416 Q 269 416 308 398 Q 347 381 376 350 L 401 376 L 401 376 Q 409 384 421 384 Q 432 384 440 376 Q 448 368 448 357 L 448 256 L 448 256 Q 447 241 432 240 L 331 240 L 331 240 Q 320 240 312 248 Q 304 256 304 267 Q 304 279 312 287 L 353 328 L 353 328 Q 303 382 224 384 Q 162 383 116 347 Q 70 311 54 253 L 54 253 Z M 95 88 Q 145 34 224 32 Q 286 33 332 69 Q 378 105 394 163 Q 398 175 411 176 Q 428 174 426 157 Q 407 88 353 45 Q 298 1 224 0 Q 179 0 140 18 Q 101 35 72 66 L 47 40 L 47 40 Q 39 32 27 32 Q 16 32 8 40 Q 0 48 0 59 L 0 160 L 0 160 Q 1 175 16 176 L 117 176 L 117 176 Q 128 176 136 168 Q 144 160 144 149 Q 144 137 136 129 L 95 88 L 95 88 Z M 32 144 L 32 71 L 32 144 L 32 71 L 105 144 L 105 144 L 32 144 L 32 144 Z M 416 272 L 416 345 L 416 272 L 416 345 L 343 272 L 343 272 L 416 272 L 416 272 Z" />
</svg>