<svg xmlns="http://www.w3.org/2000/svg" viewBox="0 0 512 512">
  <path d="M 80 512 Q 65 511 64 496 Q 65 481 80 480 L 96 480 L 96 435 Q 96 387 126 348 L 196 256 L 126 164 Q 96 125 96 77 L 96 32 L 80 32 Q 65 31 64 16 Q 65 1 80 0 L 432 0 Q 447 1 448 16 Q 447 31 432 32 L 416 32 L 416 77 Q 416 125 386 164 L 316 256 L 386 348 Q 416 387 416 435 L 416 480 L 432 480 Q 447 481 448 496 Q 447 511 432 512 L 80 512 L 80 512 Z M 384 480 L 384 435 Q 384 397 361 367 L 283 266 Q 277 256 283 246 L 361 145 Q 384 115 384 77 L 384 32 L 128 32 L 128 77 Q 128 115 151 145 L 229 246 Q 235 256 229 266 L 151 367 Q 128 397 128 435 L 128 480 L 384 480 L 384 480 Z M 256 208 Q 248 208 244 202 L 180 122 Q 174 114 178 105 Q 182 96 192 96 L 256 96 L 320 96 Q 330 96 334 105 Q 338 114 333 122 L 269 202 Q 264 208 256 208 L 256 208 Z M 225 128 L 256 166 L 287 128 L 256 128 L 225 128 L 225 128 Z M 208 352 L 304 352 Q 314 352 318 361 L 350 425 Q 354 433 350 440 Q 345 448 336 448 L 256 448 L 176 448 Q 167 448 162 440 Q 158 433 162 425 L 194 361 Q 198 352 208 352 L 208 352 Z M 202 416 L 256 416 L 310 416 L 294 384 L 218 384 L 202 416 L 202 416 Z" />
</svg>