<svg xmlns="http://www.w3.org/2000/svg" viewBox="0 0 384 512">
  <path d="M 16 512 Q 1 511 0 496 Q 1 481 16 480 L 32 480 L 32 480 L 32 438 L 32 438 Q 32 401 48 368 Q 64 335 94 312 L 166 256 L 166 256 L 94 200 L 94 200 Q 64 177 48 144 Q 32 111 32 74 L 32 32 L 32 32 L 16 32 L 16 32 Q 1 31 0 16 Q 1 1 16 0 L 48 0 L 368 0 Q 383 1 384 16 Q 383 31 368 32 L 352 32 L 352 32 L 352 74 L 352 74 Q 352 111 336 144 Q 320 177 290 200 L 218 256 L 218 256 L 290 312 L 290 312 Q 320 335 336 368 Q 352 401 352 438 L 352 480 L 352 480 L 368 480 L 368 480 Q 383 481 384 496 Q 383 511 368 512 L 336 512 L 16 512 Z M 320 480 L 320 438 L 320 480 L 320 438 Q 320 427 318 416 L 66 416 L 66 416 Q 64 427 64 438 L 64 480 L 64 480 L 320 480 L 320 480 Z M 113 337 Q 89 357 76 384 L 308 384 L 308 384 Q 295 357 271 337 L 192 276 L 192 276 L 113 337 L 113 337 Z M 192 236 L 271 175 L 192 236 L 271 175 Q 279 168 286 160 L 98 160 L 98 160 Q 105 168 113 175 L 192 236 L 192 236 Z M 308 128 Q 320 102 320 74 L 320 32 L 320 32 L 64 32 L 64 32 L 64 74 L 64 74 Q 64 103 76 128 L 308 128 L 308 128 Z" />
</svg>