<svg xmlns="http://www.w3.org/2000/svg" viewBox="0 0 512 512">
  <path d="M 161.65836 71.73896 Q 161.65836 57.980804 152.81381 49.136276 L 152.81381 49.136276 Q 143.96928 40.291748 130.21114 40.291748 Q 116.45297 40.291748 107.608444 49.136276 Q 98.763916 57.980804 98.763916 71.73896 Q 98.763916 85.49712 107.608444 94.34165 Q 116.45297 103.18618 130.21114 103.18618 Q 143.96928 103.18618 152.81381 94.34165 Q 161.65836 85.49712 161.65836 71.73896 L 161.65836 71.73896 Z M 67.316696 71.73896 Q 68.29942 36.360844 98.763916 17.68906 Q 130.21114 0 161.65836 17.68906 Q 192.12283 36.360844 193.10556 71.73896 Q 192.12283 107.11708 161.65836 125.788864 Q 130.21114 143.47792 98.763916 125.788864 Q 68.29942 107.11708 67.316696 71.73896 L 67.316696 71.73896 Z M 85.00576 220.13052 L 45.696735 354.76392 L 214.72552 354.76392 L 176.39923 220.13052 Q 168.53743 198.51056 145.93474 197.52783 L 114.487526 197.52783 Q 91.884834 198.51056 85.00576 220.13052 L 85.00576 220.13052 Z M 54.541267 211.286 Q 60.43762 190.64876 77.14395 178.85605 L 77.14395 178.85605 Q 92.86756 166.08061 114.487526 166.08061 L 145.93474 166.08061 Q 166.57198 166.08061 183.2783 178.85605 Q 199.98465 190.64876 205.881 211.286 L 244.20729 345.91937 Q 248.1382 361.643 239.29367 373.4357 Q 230.44914 385.2284 213.7428 386.21112 L 193.10556 386.21112 L 193.10556 496.2764 Q 192.12283 511.01727 177.38196 512 Q 162.64107 511.01727 161.65836 496.2764 L 161.65836 386.21112 L 98.763916 386.21112 L 98.763916 496.2764 Q 97.78119 511.01727 83.040306 512 Q 68.29942 511.01727 67.316696 496.2764 L 67.316696 386.21112 L 45.696735 386.21112 Q 29.97313 385.2284 21.1286 373.4357 Q 12.284069 361.643 16.214972 345.91937 L 54.541267 211.286 L 54.541267 211.286 Z M 413.23608 71.73896 Q 413.23608 57.980804 404.39154 49.136276 L 404.39154 49.136276 Q 395.54703 40.291748 381.78888 40.291748 Q 368.0307 40.291748 359.1862 49.136276 Q 350.34164 57.980804 350.34164 71.73896 Q 350.34164 85.49712 359.1862 94.34165 Q 368.0307 103.18618 381.78888 103.18618 Q 395.54703 103.18618 404.39154 94.34165 Q 413.23608 85.49712 413.23608 71.73896 L 413.23608 71.73896 Z M 318.89444 71.73896 Q 319.87717 36.360844 350.34164 17.68906 Q 381.78888 0 413.23608 17.68906 Q 443.70056 36.360844 444.6833 71.73896 Q 443.70056 107.11708 413.23608 125.788864 Q 381.78888 143.47792 350.34164 125.788864 Q 319.87717 107.11708 318.89444 71.73896 L 318.89444 71.73896 Z M 336.5835 220.13052 L 297.27448 354.76392 L 466.30325 354.76392 L 427.97696 220.13052 Q 420.11517 198.51056 397.51248 197.52783 L 366.06525 197.52783 Q 343.4626 198.51056 336.5835 220.13052 L 336.5835 220.13052 Z M 306.119 211.286 Q 312.01535 190.64876 328.72168 178.85605 L 328.72168 178.85605 Q 344.4453 166.08061 366.06525 166.08061 L 397.51248 166.08061 Q 418.14972 166.08061 434.85605 178.85605 Q 451.56238 190.64876 457.45874 211.286 L 495.78503 345.91937 Q 499.71594 361.643 490.8714 373.4357 Q 482.0269 385.2284 465.32053 386.21112 L 444.6833 386.21112 L 444.6833 496.2764 Q 443.70056 511.01727 428.9597 512 Q 414.2188 511.01727 413.23608 496.2764 L 413.23608 386.21112 L 350.34164 386.21112 L 350.34164 496.2764 Q 349.35892 511.01727 334.61804 512 Q 319.87717 511.01727 318.89444 496.2764 L 318.89444 386.21112 L 297.27448 386.21112 Q 281.55087 385.2284 272.70633 373.4357 Q 263.86182 361.643 267.7927 345.91937 L 306.119 211.286 L 306.119 211.286 Z" />
</svg>