<svg xmlns="http://www.w3.org/2000/svg" viewBox="0 0 640 512">
  <path d="M 200 32 Q 181 32 166 43 L 134 67 L 134 67 Q 128 72 128 80 Q 129 95 144 96 L 177 96 L 177 96 Q 197 97 209 112 Q 220 126 216 146 L 202 203 L 202 203 Q 193 240 200 278 L 208 317 L 208 317 Q 209 332 195 336 Q 180 337 176 323 L 169 284 L 169 284 Q 160 240 171 195 L 185 138 L 185 138 Q 186 129 177 128 L 144 128 L 144 128 Q 124 127 110 114 Q 97 100 96 80 Q 97 56 115 42 L 147 18 L 147 18 Q 171 0 200 0 Q 237 1 262 26 Q 287 51 288 88 L 288 128 L 288 128 L 288 148 L 288 148 Q 289 173 306 190 Q 323 207 348 208 L 361 208 L 361 208 Q 395 208 423 226 Q 451 243 466 273 L 480 300 L 480 300 Q 490 319 513 320 Q 535 319 545 301 Q 555 283 544 264 L 528 238 L 528 238 Q 519 222 527 208 Q 536 193 554 192 Q 567 192 576 201 L 602 228 L 602 228 Q 639 266 640 319 Q 639 374 602 410 Q 566 447 511 448 L 480 448 L 480 448 L 480 480 L 480 480 Q 480 494 471 503 Q 462 512 448 512 L 397 512 L 397 512 Q 373 511 366 488 L 356 448 L 356 448 L 317 448 L 317 448 L 307 488 L 307 488 Q 299 511 276 512 L 224 512 L 224 512 Q 210 512 201 503 Q 192 494 192 480 L 192 447 L 192 447 Q 151 442 124 413 Q 97 383 96 340 L 96 307 L 96 307 Q 96 304 93 304 L 48 304 L 48 304 Q 28 303 14 290 Q 1 276 0 256 Q 1 232 19 218 L 51 194 L 51 194 Q 75 176 104 176 Q 124 176 140 184 Q 140 186 140 188 Q 136 202 134 217 Q 121 208 104 208 Q 85 208 70 219 L 38 243 L 38 243 Q 32 248 32 256 Q 33 271 48 272 L 93 272 L 93 272 Q 108 272 118 282 Q 128 292 128 307 L 128 340 L 128 340 Q 129 373 150 394 Q 171 415 204 416 L 208 416 L 208 416 Q 223 417 224 432 L 224 480 L 224 480 L 275 480 L 275 480 L 288 428 L 288 428 Q 292 417 304 416 L 368 416 L 368 416 Q 380 417 383 428 L 396 480 L 396 480 L 448 480 L 448 480 L 448 432 L 448 432 Q 449 417 464 416 L 511 416 L 511 416 Q 552 415 579 388 Q 607 360 608 319 Q 607 279 579 250 L 562 233 L 562 233 L 571 247 L 571 247 Q 591 283 573 316 Q 554 350 512 352 Q 471 350 451 314 L 437 287 L 437 287 Q 426 265 406 253 Q 386 240 361 240 L 348 240 L 348 240 Q 309 239 283 213 Q 257 187 256 147 L 256 128 L 256 128 L 256 88 L 256 88 Q 255 64 239 48 Q 223 32 200 32 L 200 32 Z M 379 177 Q 370 176 361 176 L 348 176 L 348 176 Q 346 176 344 176 Q 352 147 383 144 L 416 144 L 416 144 Q 431 143 432 128 Q 432 120 426 115 L 394 91 L 394 91 Q 379 80 360 80 Q 336 81 320 97 L 320 88 L 320 88 Q 320 73 317 59 Q 336 48 360 48 Q 389 48 413 66 L 445 90 L 445 90 Q 463 104 464 128 Q 463 148 450 162 Q 436 175 416 176 L 383 176 L 383 176 Q 381 176 379 177 L 379 177 Z" />
</svg>