<svg xmlns="http://www.w3.org/2000/svg" viewBox="0 0 272 512">
  <path d="M 104 80 L 168 80 L 104 80 L 168 80 L 168 32 L 168 32 L 104 32 L 104 32 L 104 80 L 104 80 Z M 72 83 L 72 80 L 72 83 L 72 80 L 72 24 L 72 24 Q 74 2 96 0 L 176 0 L 176 0 Q 198 2 200 24 L 200 80 L 200 80 L 200 83 L 200 83 Q 211 86 222 92 L 228 96 L 228 96 Q 270 121 272 171 Q 272 195 260 214 Q 272 233 272 256 Q 272 283 256 304 Q 272 325 272 352 Q 272 374 261 392 Q 272 410 272 432 Q 271 466 249 489 Q 226 511 192 512 L 80 512 L 80 512 Q 46 511 23 489 Q 1 466 0 432 Q 0 410 11 392 Q 0 374 0 352 Q 1 325 16 304 Q 1 283 0 256 Q 0 233 12 214 Q 0 195 0 171 Q 2 121 44 96 L 50 92 L 50 92 Q 61 87 72 83 L 72 83 Z M 98 112 Q 81 112 66 120 L 60 124 L 60 124 Q 33 140 32 171 Q 32 186 39 198 Q 48 214 39 231 Q 32 242 32 256 Q 32 272 42 285 Q 54 304 42 323 Q 32 335 32 352 Q 32 365 38 376 Q 47 392 38 408 Q 32 419 32 432 Q 33 452 46 466 Q 60 479 80 480 L 192 480 L 192 480 Q 212 479 226 466 Q 239 452 240 432 Q 240 419 234 408 Q 225 392 234 376 Q 240 365 240 352 Q 240 336 230 323 Q 218 304 230 285 Q 240 273 240 256 Q 240 242 233 231 Q 223 214 233 198 Q 240 186 240 170 Q 239 140 213 124 L 206 120 L 206 120 Q 191 112 175 112 L 168 112 L 98 112 Z M 88 224 L 184 224 L 88 224 L 184 224 Q 199 225 200 240 Q 199 255 184 256 L 88 256 L 88 256 Q 73 255 72 240 Q 73 225 88 224 L 88 224 Z M 72 368 Q 73 353 88 352 L 184 352 L 184 352 Q 199 353 200 368 Q 199 383 184 384 L 88 384 L 88 384 Q 73 383 72 368 L 72 368 Z" />
</svg>