<svg xmlns="http://www.w3.org/2000/svg" viewBox="0 0 496 512">
  <path d="M 64 32 Q 78 32 87 41 L 87 41 L 87 41 Q 96 50 96 64 Q 96 78 87 87 Q 78 96 64 96 Q 50 96 41 87 Q 32 78 32 64 Q 32 50 41 41 Q 50 32 64 32 L 64 32 Z M 120 96 Q 128 82 128 64 Q 127 37 109 19 Q 91 1 64 0 Q 37 1 19 19 Q 1 37 0 64 Q 2 101 32 119 L 32 128 L 32 128 L 32 416 L 32 416 L 32 448 L 32 448 L 32 512 L 32 512 L 64 512 L 64 512 L 64 448 L 64 448 L 470 448 L 470 448 Q 494 446 496 422 Q 496 416 494 411 L 432 272 L 432 272 L 494 133 L 494 133 Q 496 128 496 122 Q 494 98 470 96 L 119 96 L 120 96 Z M 64 128 L 461 128 L 64 128 L 461 128 L 403 259 L 403 259 Q 397 272 403 285 L 461 416 L 461 416 L 64 416 L 64 416 L 64 128 L 64 128 Z" />
</svg>