<svg xmlns="http://www.w3.org/2000/svg" viewBox="0 0 512 512">
  <path d="M 253 32 Q 255 32 256 32 Q 278 34 280 56 Q 279 73 263 79 Q 260 80 256 80 Q 253 80 251 79 Q 233 75 232 56 Q 234 36 253 32 L 253 32 Z M 263 112 Q 284 109 298 93 L 298 93 Q 312 78 312 56 Q 312 36 300 21 Q 287 6 268 1 Q 262 0 256 0 Q 247 0 239 3 Q 222 8 211 23 Q 200 37 200 56 Q 201 80 216 96 Q 232 111 256 112 Q 258 112 260 112 Q 261 112 261 112 Q 262 112 263 112 L 263 112 Z M 288 320 L 288 352 L 288 352 L 288 416 L 288 416 L 288 496 Q 289 511 304 512 Q 306 512 307 512 Q 309 511 310 511 Q 319 507 320 496 L 320 202 L 370 296 Q 378 308 392 302 Q 404 294 398 281 L 339 170 Q 322 139 288 130 L 288 164 L 288 164 L 288 320 L 288 320 L 288 320 Z M 222 263 Q 228 250 215 242 Q 201 236 194 249 L 130 377 Q 126 385 130 393 Q 135 400 144 400 L 192 400 L 192 496 Q 193 511 208 512 Q 208 512 208 512 Q 208 512 208 512 L 208 512 L 208 512 L 208 512 L 208 512 L 208 512 Q 223 511 224 496 L 224 400 L 256 400 L 256 368 L 208 368 L 170 368 L 222 263 L 222 263 Z M 256 160 L 256 128 L 256 128 Q 228 128 204 142 Q 180 157 167 182 L 114 281 Q 108 294 121 302 Q 134 308 142 296 L 195 197 Q 215 161 256 160 L 256 160 L 256 160 Z" />
</svg>