<svg xmlns="http://www.w3.org/2000/svg" viewBox="0 0 650 521">
  <path d="M 31 7 Q 19 0 8 10 Q 0 22 11 33 L 619 513 L 619 513 Q 631 521 642 510 Q 650 498 639 488 L 31 7 L 31 7 Z M 465 452 L 101 452 L 465 452 L 101 452 Q 87 452 78 443 Q 69 434 69 420 L 69 139 L 69 139 L 37 114 L 37 114 L 37 420 L 37 420 Q 38 447 56 465 Q 74 483 101 484 L 505 484 L 505 484 L 465 452 L 465 452 Z M 549 36 L 145 36 L 549 36 L 145 36 L 185 68 L 185 68 L 549 68 L 549 68 Q 563 68 572 77 Q 581 86 581 100 L 581 381 L 581 381 L 613 406 L 613 406 L 613 100 L 613 100 Q 612 73 594 55 Q 576 37 549 36 L 549 36 Z M 428 260 L 469 292 L 428 260 L 469 292 L 501 292 L 501 292 Q 516 291 517 276 Q 516 261 501 260 L 428 260 L 428 260 Z M 149 260 Q 134 261 133 276 Q 134 291 149 292 L 262 292 L 262 292 L 222 260 L 222 260 L 149 260 L 149 260 Z M 309 356 Q 294 357 293 372 Q 294 387 309 388 L 384 388 L 384 388 L 343 356 L 343 356 L 309 356 L 309 356 Z M 149 356 Q 134 357 133 372 Q 134 387 149 388 L 245 388 L 245 388 Q 260 387 261 372 Q 260 357 245 356 L 149 356 L 149 356 Z" />
</svg>