<svg xmlns="http://www.w3.org/2000/svg" viewBox="0 0 512 512">
  <path d="M 256 108.206184 Q 190.02061 109.08591 138.99657 143.39519 L 138.99657 143.39519 Q 87.09278 178.5842 62.46048 235.76633 Q 57.18213 247.20274 42.226803 248.9622 Q 29.030928 249.84192 28.151203 263.0378 Q 29.030928 276.23367 42.226803 277.1134 Q 76.53608 275.35394 94.130585 260.39862 Q 102.92783 255.12027 112.60481 259.5189 Q 113.484535 260.39862 115.24399 260.39862 Q 115.24399 261.27835 116.12371 261.27835 Q 138.99657 275.35394 178.5842 277.1134 Q 217.2921 275.35394 241.04468 261.27835 Q 256 254.24055 270.95532 261.27835 Q 293.8282 275.35394 333.4158 277.1134 Q 372.12372 275.35394 395.87628 261.27835 Q 395.87628 261.27835 396.756 260.39862 Q 398.51547 260.39862 399.3952 259.5189 Q 409.07217 254.24055 417.86942 260.39862 Q 435.46393 275.35394 469.7732 277.1134 Q 482.9691 276.23367 483.8488 263.0378 Q 482.9691 249.84192 469.7732 248.9622 Q 454.81787 247.20274 449.53952 235.76633 Q 424.90723 178.5842 373.00345 143.39519 Q 321.97937 109.08591 256 108.206184 L 256 108.206184 Z M 37.82818 220.81099 Q 66.85911 157.4708 124.92096 119.64261 L 124.92096 119.64261 Q 182.10309 80.93471 256 80.054985 Q 329.8969 80.93471 387.07904 119.64261 Q 445.1409 157.4708 474.1718 220.81099 Q 490.8866 222.57045 501.4433 234.8866 Q 512 246.32303 512 263.0378 Q 512 280.6323 499.68384 292.94846 Q 488.24744 304.3849 469.7732 305.26462 Q 430.18558 303.50516 407.3127 287.6701 Q 380.04123 302.62543 333.4158 305.26462 Q 285.0309 302.62543 257.75946 286.79037 Q 256 285.91064 253.36082 286.79037 Q 226.96907 302.62543 178.5842 305.26462 Q 131.95876 302.62543 104.68729 287.6701 Q 81.81443 303.50516 42.226803 305.26462 Q 23.752577 304.3849 12.316152 292.94846 Q 0 280.6323 0 263.0378 Q 0 246.32303 10.556701 234.8866 Q 21.113401 222.57045 37.82818 220.81099 L 37.82818 220.81099 Z M 54.542953 332.53607 Q 69.49828 331.65637 81.81443 328.13745 L 101.16839 384.43985 Q 108.206184 402.9141 127.560135 403.79382 L 384.43985 403.79382 Q 403.79382 402.9141 410.8316 384.43985 L 430.18558 328.13745 Q 442.5017 331.65637 458.33676 332.53607 L 438.1031 393.23712 Q 431.945 410.8316 416.9897 421.3883 Q 402.9141 431.945 384.43985 431.945 L 127.560135 431.945 Q 109.08591 431.945 95.01031 421.3883 Q 80.054985 410.8316 73.896904 393.23712 L 54.542953 332.53607 L 54.542953 332.53607 Z M 183.86255 170.66667 L 169.78694 198.81787 Q 162.74915 210.2543 151.31271 204.97595 Q 139.87628 198.81787 145.15463 186.50172 L 159.23024 158.35051 Q 165.38832 146.9141 177.70447 152.19244 Q 189.1409 158.35051 183.86255 170.66667 L 183.86255 170.66667 Z M 352.76974 158.35051 L 366.84537 186.50172 Q 372.12372 198.81787 360.6873 204.97595 Q 348.37112 210.2543 342.21304 198.81787 L 328.13745 170.66667 Q 322.8591 159.23024 334.29553 152.19244 Q 345.73196 146.9141 352.76974 158.35051 L 352.76974 158.35051 Z M 270.0756 164.50859 L 270.0756 192.65979 Q 269.19586 205.85567 256 206.7354 Q 242.80412 205.85567 241.9244 192.65979 L 241.9244 164.50859 Q 242.80412 151.31271 256 150.43298 Q 269.19586 151.31271 270.0756 164.50859 L 270.0756 164.50859 Z" />
</svg>