<svg xmlns="http://www.w3.org/2000/svg" viewBox="0 0 584 400">
  <path d="M 292 32 Q 220 33 164 69 L 164 69 L 164 69 Q 107 106 77 166 Q 69 181 54 189 L 45 194 L 45 194 Q 32 201 38 215 Q 45 228 59 222 L 99 203 L 99 203 Q 117 194 136 200 L 171 213 L 171 213 Q 204 225 237 213 L 276 199 L 276 199 Q 292 193 308 199 L 347 213 L 347 213 Q 380 225 413 213 L 448 200 L 448 200 Q 467 194 485 203 L 525 222 L 525 222 Q 539 228 546 215 Q 552 201 539 194 L 530 189 L 530 189 Q 515 181 507 166 Q 477 106 420 69 Q 364 33 292 32 L 292 32 Z M 48 152 Q 82 83 146 42 L 146 42 L 146 42 Q 211 1 292 0 Q 373 1 438 42 Q 502 83 536 152 Q 539 158 544 161 L 554 165 L 554 165 Q 572 175 578 193 Q 584 211 575 230 Q 566 248 547 254 Q 529 260 511 251 L 471 231 L 471 231 Q 465 228 459 231 L 424 243 L 424 243 Q 380 259 336 243 L 298 229 L 298 229 Q 292 227 287 229 L 248 243 L 248 243 Q 204 259 160 243 L 126 231 L 126 231 Q 119 228 113 231 L 74 251 L 74 251 Q 55 260 37 254 Q 19 247 9 229 Q 0 211 6 193 Q 13 175 31 165 L 40 160 L 40 160 Q 45 158 48 152 L 48 152 Z M 63 287 Q 80 286 94 282 L 118 352 L 118 352 Q 124 367 140 368 L 444 368 L 444 368 Q 460 367 467 352 L 490 282 L 490 282 Q 504 286 522 287 L 497 362 L 497 362 Q 491 379 476 389 Q 462 400 444 400 L 140 400 L 140 400 Q 122 400 108 389 Q 93 379 87 362 L 63 287 L 63 287 Z M 210 103 L 194 135 L 210 103 L 194 135 Q 186 148 173 142 Q 160 135 166 121 L 182 89 L 182 89 Q 189 76 203 82 Q 216 89 210 103 L 210 103 Z M 402 89 L 418 121 L 402 89 L 418 121 Q 424 135 411 142 Q 397 148 390 135 L 374 103 L 374 103 Q 368 90 381 82 Q 394 76 402 89 L 402 89 Z M 308 96 L 308 128 L 308 96 L 308 128 Q 307 143 292 144 Q 277 143 276 128 L 276 96 L 276 96 Q 277 81 292 80 Q 307 81 308 96 L 308 96 Z" />
</svg>