<svg xmlns="http://www.w3.org/2000/svg" viewBox="0 0 576 432">
  <path d="M 304 32 Q 236 34 191 79 L 191 79 L 191 79 Q 146 124 144 192 Q 143 240 111 271 Q 80 303 32 304 Q 17 303 16 288 Q 17 273 32 272 Q 66 271 89 249 Q 111 226 112 192 Q 114 110 168 56 Q 222 2 304 0 Q 353 0 394 22 Q 435 44 461 82 Q 467 92 460 101 Q 452 110 441 105 Q 422 96 400 96 Q 359 97 332 124 Q 305 151 304 192 Q 305 226 328 249 Q 350 271 384 272 Q 384 272 384 272 Q 384 272 384 272 Q 416 270 442 251 Q 457 241 468 229 Q 480 219 492 229 Q 503 241 518 251 Q 538 265 562 271 Q 575 274 576 286 Q 575 303 558 303 Q 523 295 500 277 Q 488 269 480 262 Q 472 269 460 277 Q 446 287 426 295 Q 407 304 384 304 Q 384 304 384 304 Q 384 304 384 304 Q 336 303 305 271 Q 273 240 272 192 Q 273 138 309 101 Q 346 65 400 64 Q 400 64 400 64 Q 400 64 400 64 Q 359 33 304 32 L 304 32 Z M 134 379 Q 160 398 192 400 Q 224 398 250 379 Q 265 369 276 357 Q 288 347 300 357 Q 311 369 326 379 Q 352 398 384 400 Q 416 398 442 379 Q 457 369 468 357 Q 480 347 492 357 Q 503 369 518 379 Q 537 393 562 399 Q 575 402 576 414 Q 574 431 558 431 Q 523 423 500 405 Q 488 397 480 390 Q 472 397 460 405 Q 446 415 426 423 Q 407 432 384 432 Q 361 432 342 423 Q 322 415 308 405 Q 296 397 288 390 Q 280 397 268 405 Q 254 415 234 423 Q 215 432 192 432 Q 169 432 150 423 Q 130 415 116 405 Q 104 397 96 390 Q 88 397 76 405 Q 53 422 18 430 Q 2 431 0 414 Q 1 402 14 399 Q 39 393 58 379 Q 72 369 84 357 Q 96 347 108 357 Q 119 369 134 379 L 134 379 Z" />
</svg>