<svg xmlns="http://www.w3.org/2000/svg" viewBox="0 0 576 384">
  <path d="M 0 64 Q 1 37 19 19 L 19 19 L 19 19 Q 37 1 64 0 L 512 0 L 512 0 Q 539 1 557 19 Q 575 37 576 64 L 576 130 L 576 130 Q 575 142 564 146 Q 548 150 538 162 Q 528 175 528 192 Q 528 209 538 222 Q 548 234 564 239 Q 575 242 576 254 L 576 320 L 576 320 Q 575 347 557 365 Q 539 383 512 384 L 64 384 L 64 384 Q 37 383 19 365 Q 1 347 0 320 L 0 254 L 0 254 Q 1 242 12 239 Q 28 234 38 222 Q 48 209 48 192 Q 48 175 38 162 Q 28 150 12 146 Q 1 142 0 130 L 0 64 L 0 64 Z M 64 32 Q 50 32 41 41 L 41 41 L 41 41 Q 32 50 32 64 L 32 119 L 32 119 Q 54 128 67 148 Q 80 167 80 192 Q 80 217 67 236 Q 54 256 32 265 L 32 320 L 32 320 Q 32 334 41 343 Q 50 352 64 352 L 512 352 L 512 352 Q 526 352 535 343 Q 544 334 544 320 L 544 265 L 544 265 Q 522 256 509 236 Q 496 217 496 192 Q 496 167 509 148 Q 522 128 544 119 L 544 64 L 544 64 Q 544 50 535 41 Q 526 32 512 32 L 64 32 L 64 32 Z" />
</svg>