<svg xmlns="http://www.w3.org/2000/svg" viewBox="0 0 518 515">
  <path d="M 283 73 Q 295 73 304 63 L 312 54 L 312 54 Q 335 76 354 109 Q 373 143 374 175 Q 373 219 347 250 Q 348 244 348 239 Q 345 199 316 167 Q 287 135 268 122 Q 260 117 253 122 Q 234 135 205 167 Q 176 199 173 239 Q 173 247 175 254 Q 145 222 144 175 Q 145 135 172 96 Q 199 58 230 30 Q 230 30 230 30 Q 230 30 230 31 Q 232 33 236 37 L 237 38 L 237 38 Q 237 38 237 38 Q 237 38 237 38 Q 237 38 237 38 Q 237 38 237 38 Q 238 39 238 39 Q 241 42 244 46 L 261 64 L 261 64 Q 270 73 283 73 L 283 73 Z M 259 291 Q 257 291 255 291 Q 231 288 217 273 Q 203 259 202 239 Q 203 214 227 185 Q 245 165 260 153 Q 276 165 294 185 Q 318 214 319 239 Q 318 258 305 272 Q 292 287 269 290 Q 264 291 259 291 L 259 291 Z M 115 175 Q 116 235 155 276 L 155 276 L 155 276 Q 194 317 254 320 Q 257 320 260 320 Q 266 320 272 319 Q 329 313 365 273 Q 402 233 403 175 Q 401 133 379 95 Q 358 56 330 30 Q 322 23 312 23 Q 307 23 302 25 Q 297 27 293 31 L 282 44 L 282 44 L 265 26 L 265 26 Q 264 25 263 24 Q 263 23 262 23 Q 262 22 262 22 Q 261 21 260 20 Q 260 20 260 20 Q 260 20 260 20 Q 260 20 260 20 Q 260 20 260 20 Q 260 20 260 19 Q 248 3 230 0 Q 220 0 212 7 Q 178 36 148 80 Q 118 123 115 175 L 115 175 Z M 228 29 Q 228 29 228 29 L 228 29 L 228 29 Q 228 29 228 29 Q 228 29 228 29 Q 228 29 228 29 L 228 29 Z M 25 289 Q 11 285 4 298 Q 0 312 13 319 L 216 400 L 216 400 L 13 481 L 13 481 Q 0 488 4 502 Q 11 515 25 511 L 259 417 L 259 417 L 493 511 L 493 511 Q 507 515 514 502 Q 518 488 505 481 L 302 400 L 302 400 L 505 319 L 505 319 Q 518 312 514 298 Q 507 285 493 289 L 259 383 L 259 383 L 25 289 L 25 289 Z" />
</svg>