<svg xmlns="http://www.w3.org/2000/svg" viewBox="0 0 512 512">
  <path d="M 238.22223 140.44444 Q 256 152.88889 273.77777 140.44444 Q 304.8889 114.666664 334.22223 113.77778 Q 353.77777 113.77778 377.77777 128 Q 402.66666 142.22223 424.8889 160 Q 449.77777 179.55556 466.66666 198.22223 L 487.1111 178.66667 L 466.66666 198.22223 Q 484.44446 217.77777 483.55554 227.55556 Q 482.66666 242.66667 470.22223 266.66666 Q 457.77777 293.33334 432 323.55554 Q 406.22223 353.77777 369.77777 376 Q 332.44446 397.33334 284.44446 398.22223 L 227.55556 398.22223 Q 179.55556 397.33334 142.22223 376 Q 105.77778 353.77777 80 323.55554 Q 47.11111 286.22223 32 242.66667 Q 28.444445 232.88889 28.444445 227.55556 Q 27.555555 217.77777 46.22222 198.22223 L 24.88889 179.55556 L 46.22222 198.22223 Q 62.22222 179.55556 87.111115 160 Q 109.333336 142.22223 134.22223 128 Q 158.22223 113.77778 177.77777 113.77778 Q 207.11111 114.666664 238.22223 140.44444 L 238.22223 140.44444 Z M 512 227.55556 Q 512 213.33333 504 200.88889 L 504 200.88889 Q 496.8889 189.33333 487.1111 178.66667 Q 468.44446 158.22223 442.66666 137.77777 Q 419.55554 119.111115 392 103.111115 Q 363.55554 86.22222 334.22223 85.333336 Q 312 85.333336 292.44446 95.111115 Q 272.8889 104.888885 256 118.22222 Q 239.11111 104.888885 219.55556 95.111115 Q 200 85.333336 177.77777 85.333336 Q 148.44444 86.22222 120 103.111115 Q 92.44444 119.111115 69.333336 137.77777 Q 43.555557 158.22223 24.88889 178.66667 Q 15.111111 189.33333 8 200.88889 Q 0 213.33333 0 227.55556 Q 0.8888889 240 4.4444447 252.44444 Q 23.11111 302.22223 58.666668 342.22223 Q 86.22222 375.1111 128.88889 400 Q 170.66667 425.77777 227.55556 426.66666 L 284.44446 426.66666 Q 341.33334 425.77777 383.1111 400 Q 425.77777 375.1111 453.33334 342.22223 Q 481.77777 308.44446 496 279.1111 Q 509.33334 255.11111 512 227.55556 L 512 227.55556 Z M 316.44446 221.33333 Q 319.1111 220.44444 321.77777 220.44444 Q 372.44446 222.22223 396.44446 230.22223 Q 402.66666 232 407.1111 233.77777 Q 406.22223 234.66667 405.33334 235.55556 Q 395.55554 245.33333 375.1111 258.66666 Q 354.66666 272 324.44446 281.77777 Q 295.1111 290.66666 256 291.55554 Q 216.88889 290.66666 187.55556 281.77777 Q 157.33333 272 136.88889 258.66666 Q 116.44444 245.33333 106.666664 235.55556 Q 106.666664 234.66667 105.77778 234.66667 Q 105.77778 234.66667 105.77778 233.77777 Q 109.333336 232 115.55556 230.22223 Q 139.55556 222.22223 190.22223 220.44444 Q 192.88889 220.44444 195.55556 221.33333 Q 203.55556 224 221.33333 228.44444 Q 239.11111 232.88889 256 232.88889 Q 272.8889 232.88889 290.66666 228.44444 Q 308.44446 224 316.44446 221.33333 L 316.44446 221.33333 Z M 321.77777 192 Q 314.66666 192 308.44446 193.77777 Q 299.55554 197.33333 284.44446 200.88889 Q 269.33334 204.44444 256 204.44444 Q 242.66667 204.44444 227.55556 200.88889 Q 212.44444 197.33333 203.55556 193.77777 Q 197.33333 192 190.22223 192 Q 136 193.77777 107.55556 203.55556 Q 93.333336 208 84.44444 212.44444 Q 80 215.11111 77.333336 218.66667 Q 76.44444 218.66667 76.44444 218.66667 Q 72.888885 220.44444 71.111115 231.11111 Q 71.111115 235.55556 72 237.33333 Q 72 237.33333 72 237.33333 Q 72.888885 239.11111 73.77778 240 Q 74.666664 242.66667 77.333336 244.44444 Q 80.888885 249.77777 87.111115 256 Q 98.666664 268.44446 121.77778 282.66666 Q 144.88889 297.77777 178.66667 308.44446 Q 212.44444 319.1111 256 320 Q 299.55554 319.1111 333.33334 308.44446 Q 367.1111 297.77777 390.22223 282.66666 Q 413.33334 268.44446 425.77777 256 Q 432 249.77777 435.55554 244.44444 Q 437.33334 242.66667 438.22223 240 Q 439.1111 239.11111 440 237.33333 Q 440 236.44444 440 236.44444 Q 440.8889 235.55556 440.8889 231.11111 Q 439.1111 220.44444 434.66666 217.77777 Q 432 215.11111 427.55554 212.44444 Q 418.66666 207.11111 404.44446 202.66667 Q 376 193.77777 321.77777 192 L 321.77777 192 Z" />
</svg>