<svg xmlns="http://www.w3.org/2000/svg" viewBox="0 0 512 514">
  <path d="M 64 480 L 112 480 L 64 480 L 112 480 L 112 512 L 112 512 L 64 512 L 64 512 Q 37 511 19 493 Q 1 475 0 448 L 0 64 L 0 64 Q 1 37 19 19 Q 37 1 64 0 L 220 0 L 220 0 Q 240 0 254 14 L 370 130 L 370 130 Q 384 144 384 164 L 384 304 L 384 304 L 352 304 L 352 304 L 352 192 L 352 192 L 240 192 L 240 192 Q 220 191 206 178 Q 193 164 192 144 L 192 32 L 192 32 L 64 32 L 64 32 Q 50 32 41 41 Q 32 50 32 64 L 32 448 L 32 448 Q 32 462 41 471 Q 50 480 64 480 L 64 480 Z M 352 160 Q 350 156 347 153 L 231 37 L 231 37 Q 228 34 224 33 L 224 144 L 224 144 Q 225 159 240 160 L 352 160 L 352 160 Z M 318 361 L 352 428 L 318 361 L 352 428 L 352 368 L 352 368 Q 353 353 368 352 Q 383 353 384 368 L 384 496 L 384 496 Q 383 508 372 512 Q 360 514 354 503 L 320 436 L 320 436 L 320 496 L 320 496 Q 319 511 304 512 Q 289 511 288 496 L 288 368 L 288 368 Q 289 356 300 352 Q 312 350 318 361 L 318 361 Z M 176 352 L 208 352 L 176 352 L 208 352 Q 232 353 248 368 Q 263 384 264 408 Q 263 432 248 448 Q 232 463 208 464 L 192 464 L 192 464 L 192 496 L 192 496 Q 191 511 176 512 Q 161 511 160 496 L 160 448 L 160 448 L 160 368 L 160 368 Q 161 353 176 352 L 176 352 Z M 208 432 Q 230 430 232 408 Q 230 386 208 384 L 192 384 L 192 384 L 192 432 L 192 432 L 208 432 L 208 432 Z M 416 392 Q 416 375 428 364 L 428 364 L 428 364 Q 439 352 456 352 L 472 352 L 472 352 Q 489 352 500 364 Q 512 375 512 392 L 512 400 L 512 400 Q 511 415 496 416 Q 481 415 480 400 L 480 392 L 480 392 Q 479 385 472 384 L 456 384 L 456 384 Q 449 385 448 392 L 448 472 L 448 472 Q 449 479 456 480 L 472 480 L 472 480 Q 479 479 480 472 L 480 464 L 480 464 Q 465 463 464 448 Q 465 433 480 432 L 496 432 L 496 432 Q 511 433 512 448 L 512 472 L 512 472 Q 512 489 500 500 Q 489 512 472 512 L 456 512 L 456 512 Q 439 512 428 500 Q 416 489 416 472 L 416 392 L 416 392 Z" />
</svg>