<svg xmlns="http://www.w3.org/2000/svg" viewBox="0 0 512 512">
  <path d="M 172.8 109.2 Q 172.8 122 182.4 131.6 L 256 205.2 L 329.6 131.6 Q 339.2 122 339.2 109.2 Q 339.2 94.8 329.6 86 Q 320.8 76.4 306.4 76.4 Q 293.6 76.4 284 86 L 264.8 104.4 Q 256 112.4 247.2 104.4 L 228 86 Q 218.4 76.4 205.6 76.4 Q 191.2 76.4 182.4 86 Q 172.8 94.8 172.8 109.2 L 172.8 109.2 Z M 205.6 50.8 Q 228.8 50.8 246.4 67.6 L 256 77.2 L 265.6 67.6 Q 283.2 50.8 306.4 50.8 Q 331.2 51.6 348 67.6 Q 364 84.4 364.8 109.2 Q 364.8 132.4 348 150 L 264.8 232.4 Q 256 240.4 247.2 232.4 L 164 150 Q 147.2 132.4 147.2 109.2 Q 148 84.4 164 67.6 Q 180.8 51.6 205.6 50.8 L 205.6 50.8 Z M 51.2 98.8 Q 72.8 99.6 87.2 114 L 87.2 114 Q 101.6 128.4 102.4 150 L 102.4 249.2 Q 102.4 254.8 103.2 260.4 Q 105.6 256.4 109.6 253.2 Q 123.2 239.6 140.8 239.6 Q 158.4 239.6 172 253.2 L 245.6 326 Q 251.2 332.4 256 339.6 Q 260.8 332.4 266.4 326 L 340 253.2 Q 353.6 239.6 371.2 239.6 Q 388.8 239.6 402.4 253.2 Q 406.4 256.4 408.8 260.4 Q 409.6 254.8 409.6 249.2 L 409.6 150 Q 410.4 128.4 424.8 114 Q 439.2 99.6 460.8 98.8 Q 482.4 99.6 496.8 114 Q 511.2 128.4 512 150 L 512 322.8 Q 511.2 359.6 485.6 386 L 418.4 453.2 Q 409.6 461.2 400.8 453.2 Q 392.8 444.4 400.8 435.6 L 468 368.4 Q 486.4 349.2 486.4 322.8 L 486.4 150 Q 486.4 138.8 479.2 131.6 Q 472 124.4 460.8 124.4 Q 449.6 124.4 442.4 131.6 Q 435.2 138.8 435.2 150 L 435.2 249.2 Q 434.4 282.8 411.2 307.6 L 402.4 315.6 L 367.2 350.8 L 354.4 363.6 Q 345.6 371.6 336.8 363.6 Q 328.8 354.8 336.8 346 L 349.6 333.2 L 349.6 333.2 L 384.8 298 L 384.8 298 Q 396 284.4 384.8 270.8 Q 371.2 260.4 357.6 270.8 L 284.8 344.4 Q 268.8 360.4 268.8 382.8 L 268.8 444.4 Q 268 456.4 256 457.2 Q 244 456.4 243.2 444.4 L 243.2 382.8 Q 243.2 360.4 227.2 344.4 L 154.4 270.8 Q 140.8 259.6 127.2 270.8 Q 116.8 284.4 127.2 298 L 162.4 333.2 L 175.2 346 Q 183.2 354.8 175.2 363.6 Q 166.4 371.6 157.6 363.6 L 144.8 350.8 L 144.8 350.8 L 109.6 315.6 L 109.6 315.6 L 100.8 307.6 Q 77.6 282.8 76.8 249.2 L 76.8 150 Q 76.8 138.8 69.6 131.6 Q 62.4 124.4 51.2 124.4 Q 40 124.4 32.8 131.6 Q 25.6 138.8 25.6 150 L 25.6 322.8 Q 25.6 349.2 44 368.4 L 111.2 435.6 Q 119.2 444.4 111.2 453.2 Q 102.4 461.2 93.6 453.2 L 26.4 386 Q 0.8 359.6 0 322.8 L 0 150 Q 0.8 128.4 15.2 114 Q 29.6 99.6 51.2 98.8 L 51.2 98.8 Z" />
</svg>