<svg xmlns="http://www.w3.org/2000/svg" viewBox="0 0 640 512">
  <path d="M 128 0 Q 114 0 105 9 L 105 9 L 105 9 Q 96 18 96 32 L 96 160 L 96 160 L 48 160 L 48 160 Q 28 161 14 174 Q 1 188 0 208 L 0 272 L 0 272 Q 1 292 14 306 Q 28 319 48 320 L 336 320 L 336 320 Q 356 319 370 306 Q 383 292 384 272 L 384 224 L 384 224 L 384 208 L 384 208 L 384 189 L 384 189 Q 384 172 375 156 L 295 23 L 295 23 Q 281 1 254 0 L 128 0 L 128 0 Z M 340 160 Q 340 160 340 160 L 340 160 L 340 160 Q 338 160 336 160 L 128 160 L 128 160 L 128 32 L 128 32 L 254 32 L 254 32 Q 263 32 268 40 L 340 160 L 340 160 Z M 32 272 L 32 208 L 32 272 L 32 208 Q 33 193 48 192 L 336 192 L 336 192 Q 351 193 352 208 L 352 224 L 352 224 L 352 272 L 352 272 Q 351 287 336 288 L 48 288 L 48 288 Q 33 287 32 272 L 32 272 Z M 336 384 Q 356 385 370 398 L 370 398 L 370 398 Q 383 412 384 432 Q 383 452 370 466 Q 356 479 336 480 L 80 480 L 80 480 Q 60 479 46 466 Q 33 452 32 432 Q 33 412 46 398 Q 60 385 80 384 L 336 384 L 336 384 Z M 80 352 Q 46 353 23 375 L 23 375 L 23 375 Q 1 398 0 432 Q 1 466 23 489 Q 46 511 80 512 L 336 512 L 336 512 Q 370 511 393 489 Q 415 466 416 432 Q 415 398 393 375 Q 370 353 336 352 L 80 352 L 80 352 Z M 481 477 L 608 349 L 481 477 L 608 349 L 608 352 L 608 352 L 608 384 L 608 384 L 608 432 L 608 432 Q 607 452 594 466 Q 580 479 560 480 L 482 480 L 482 480 Q 480 480 480 478 Q 480 477 481 477 L 481 477 Z M 458 454 Q 448 464 448 478 Q 448 492 458 502 Q 468 512 482 512 L 560 512 L 560 512 Q 594 511 617 489 Q 639 466 640 432 L 640 384 L 640 384 L 640 352 L 640 352 L 640 320 L 640 320 L 640 317 L 640 317 L 640 272 L 640 272 L 640 128 L 640 128 L 640 57 L 640 57 L 640 47 L 640 47 Q 640 27 626 14 Q 613 1 593 0 Q 576 0 563 11 L 416 139 L 416 139 L 416 181 L 416 181 L 584 36 L 584 36 Q 588 32 593 32 Q 607 33 608 47 L 608 85 L 608 85 L 587 104 L 587 104 L 416 255 L 416 255 L 416 297 L 416 297 L 576 156 L 576 156 L 608 128 L 608 128 L 608 171 L 608 171 L 608 304 L 608 304 L 458 454 L 458 454 Z M 112 456 Q 134 454 136 432 Q 134 410 112 408 Q 90 410 88 432 Q 90 454 112 456 L 112 456 Z M 232 432 Q 230 410 208 408 Q 186 410 184 432 Q 186 454 208 456 Q 230 454 232 432 L 232 432 Z M 304 456 Q 326 454 328 432 Q 326 410 304 408 Q 282 410 280 432 Q 282 454 304 456 L 304 456 Z" />
</svg>