<svg xmlns="http://www.w3.org/2000/svg" viewBox="0 0 512 512">
  <path d="M 131 278 Q 131 281 133 283 Q 135 284 138 283 Q 199 241 248 224 Q 296 208 332 209 Q 269 158 237 108 Q 205 57 197 33 Q 197 32 197 32 Q 196 32 196 32 L 131 278 L 131 278 Z M 432 278 Q 432 279 432 281 Q 432 282 432 283 Q 432 283 432 284 Q 431 313 412 332 Q 393 351 364 352 L 358 352 L 358 352 L 240 352 Q 225 351 224 336 Q 225 321 240 320 L 358 320 L 358 320 Q 375 320 387 309 Q 398 298 400 281 Q 398 254 379 247 Q 352 236 297 244 Q 241 252 157 309 Q 136 322 115 309 Q 95 294 100 270 L 165 24 Q 173 1 196 0 Q 218 1 227 21 Q 235 48 274 104 Q 312 160 390 209 Q 409 220 420 237 Q 432 255 432 278 L 432 278 Z M 368 416 L 144 416 Q 129 417 128 432 L 128 480 L 384 480 L 384 432 Q 383 417 368 416 L 368 416 Z M 144 384 L 368 384 Q 388 385 402 398 Q 415 412 416 432 L 416 480 L 416 480 L 432 480 Q 447 481 448 496 Q 447 511 432 512 L 80 512 Q 65 511 64 496 Q 65 481 80 480 L 96 480 L 96 480 L 96 432 Q 97 412 110 398 Q 124 385 144 384 L 144 384 Z" />
</svg>