<svg xmlns="http://www.w3.org/2000/svg" viewBox="0 0 639 524">
  <path d="M 144 139 Q 171 138 186 115 Q 198 91 186 67 Q 171 44 144 43 Q 117 44 102 67 Q 90 91 102 115 Q 117 138 144 139 L 144 139 Z M 144 11 Q 189 12 213 51 Q 235 91 213 131 Q 189 170 144 171 Q 99 170 75 131 Q 53 91 75 51 Q 99 12 144 11 L 144 11 Z M 261 395 Q 220 396 191 423 L 191 423 L 191 423 Q 163 450 160 491 L 385 491 L 385 491 Q 386 492 387 494 Q 411 521 443 517 Q 444 520 446 523 L 155 523 L 155 523 Q 130 521 128 496 Q 129 440 167 402 Q 205 364 261 363 L 360 363 L 360 363 Q 362 381 372 395 Q 372 395 372 395 Q 372 395 372 395 L 261 395 L 261 395 Z M 528 235 L 513 235 L 528 235 L 448 235 Q 448 218 444 203 L 528 203 L 528 203 Q 570 204 600 230 Q 631 255 638 296 Q 620 275 596 273 Q 573 237 528 235 L 528 235 Z M 387 296 Q 381 304 375 314 Q 351 331 320 331 Q 279 330 252 303 Q 225 276 224 235 Q 225 194 252 167 Q 279 140 320 139 Q 361 140 388 167 Q 415 194 416 235 Q 416 260 404 281 Q 395 287 387 296 L 387 296 Z M 560 91 Q 559 64 536 49 Q 512 37 488 49 Q 465 64 464 91 Q 465 118 488 133 Q 512 145 536 133 Q 559 118 560 91 L 560 91 Z M 432 91 Q 433 46 472 22 Q 512 0 552 22 Q 591 46 592 91 Q 591 136 552 160 Q 512 182 472 160 Q 433 136 432 91 L 432 91 Z M 196 203 Q 192 218 192 235 L 112 235 L 112 235 Q 78 236 55 258 Q 33 281 32 315 Q 31 330 16 331 Q 1 330 0 315 Q 1 267 33 236 Q 64 204 112 203 L 196 203 L 196 203 Z M 384 235 Q 383 199 352 180 Q 320 162 288 180 Q 257 199 256 235 Q 257 271 288 290 Q 320 308 352 290 Q 383 271 384 235 L 384 235 Z M 501 300 Q 499 324 479 336 Q 459 348 437 337 Q 429 347 425 358 Q 445 371 445 395 Q 445 419 425 432 Q 429 443 437 453 Q 459 442 479 454 Q 499 466 501 490 Q 513 492 525 490 Q 527 466 547 454 Q 567 442 589 453 Q 597 443 601 432 Q 581 419 581 395 Q 581 371 601 358 Q 597 347 589 337 Q 567 348 547 336 Q 527 324 525 300 Q 513 298 501 300 L 501 300 Z M 495 268 Q 513 266 531 268 Q 556 275 557 299 Q 557 304 563 308 Q 569 312 574 309 Q 595 297 614 316 Q 625 330 632 347 Q 639 372 618 385 Q 613 388 613 395 Q 613 402 618 405 Q 639 418 632 443 Q 625 460 614 474 Q 596 492 574 481 Q 569 478 563 481 Q 557 485 557 491 Q 556 515 531 522 Q 513 524 495 522 Q 470 515 469 491 Q 469 485 463 481 Q 457 478 452 481 Q 430 492 412 474 Q 401 460 394 443 Q 387 418 408 405 Q 413 402 413 395 Q 413 388 408 385 Q 387 372 394 347 Q 401 330 412 316 Q 431 298 452 309 Q 457 312 463 308 Q 469 304 469 299 Q 470 275 495 268 L 495 268 Z M 602 357 Q 602 357 602 357 L 602 357 L 602 357 Q 602 357 602 357 Q 602 357 602 357 Q 602 357 602 357 Q 602 357 602 357 Q 602 357 602 357 L 602 357 Z M 512 379 Q 497 380 496 395 Q 497 410 512 411 Q 527 410 528 395 Q 527 380 512 379 L 512 379 Z M 464 395 Q 465 368 488 353 Q 512 341 536 353 Q 559 368 560 395 Q 559 422 536 437 Q 512 449 488 437 Q 465 422 464 395 L 464 395 Z" />
</svg>