<svg xmlns="http://www.w3.org/2000/svg" viewBox="0 0 640 512">
  <path d="M 192 32 Q 206 32 215 41 L 215 41 L 215 41 Q 224 50 224 64 L 224 192 L 224 192 Q 224 206 215 215 Q 206 224 192 224 L 64 224 L 64 224 Q 50 224 41 215 Q 32 206 32 192 L 32 64 L 32 64 Q 32 50 41 41 Q 50 32 64 32 L 192 32 L 192 32 Z M 64 0 Q 37 1 19 19 L 19 19 L 19 19 Q 1 37 0 64 L 0 192 L 0 192 Q 1 219 19 237 Q 37 255 64 256 L 192 256 L 192 256 Q 219 255 237 237 Q 255 219 256 192 L 256 64 L 256 64 Q 255 37 237 19 Q 219 1 192 0 L 64 0 L 64 0 Z M 576 288 Q 590 288 599 297 L 599 297 L 599 297 Q 608 306 608 320 L 608 448 L 608 448 Q 608 462 599 471 Q 590 480 576 480 L 448 480 L 448 480 Q 434 480 425 471 Q 416 462 416 448 L 416 320 L 416 320 Q 416 306 425 297 Q 434 288 448 288 L 576 288 L 576 288 Z M 448 256 Q 421 257 403 275 L 403 275 L 403 275 Q 385 293 384 320 L 384 448 L 384 448 Q 385 475 403 493 Q 421 511 448 512 L 576 512 L 576 512 Q 603 511 621 493 Q 639 475 640 448 L 640 320 L 640 320 Q 639 293 621 275 Q 603 257 576 256 L 448 256 L 448 256 Z M 160 288 L 160 352 L 160 288 L 160 352 Q 161 379 179 397 Q 197 415 224 416 L 352 416 L 352 416 L 352 384 L 352 384 L 224 384 L 224 384 Q 210 384 201 375 Q 192 366 192 352 L 192 288 L 192 288 L 160 288 L 160 288 Z M 416 96 L 288 96 L 416 96 L 288 96 L 288 128 L 288 128 L 416 128 L 416 128 Q 430 128 439 137 Q 448 146 448 160 L 448 224 L 448 224 L 480 224 L 480 224 L 480 160 L 480 160 Q 479 133 461 115 Q 443 97 416 96 L 416 96 Z M 416 192 Q 416 178 407 169 L 407 169 L 407 169 Q 398 160 384 160 L 288 160 L 288 160 L 288 192 L 288 192 L 384 192 L 384 192 L 384 248 L 384 248 Q 398 236 416 229 L 416 192 L 416 192 Z M 256 320 L 256 264 L 256 320 L 256 264 Q 242 276 224 283 L 224 320 L 224 320 Q 224 334 233 343 Q 242 352 256 352 L 352 352 L 352 352 L 352 320 L 352 320 L 256 320 L 256 320 Z" />
</svg>