<svg xmlns="http://www.w3.org/2000/svg" viewBox="0 0 645 516">
  <path d="M 304 8 Q 293 0 282 8 L 10 248 L 10 248 Q 0 259 9 271 Q 20 281 32 272 L 69 239 L 69 239 L 69 436 L 69 436 Q 70 470 92 493 Q 115 515 149 516 L 379 516 L 379 516 Q 358 502 341 482 L 341 484 L 341 484 L 245 484 L 245 484 L 245 324 L 245 324 L 297 324 L 297 324 Q 300 308 307 292 L 245 292 L 245 292 Q 231 292 222 301 Q 213 310 213 324 L 213 484 L 213 484 L 149 484 L 149 484 Q 129 483 115 470 Q 102 456 101 436 L 101 211 L 101 211 L 293 41 L 293 41 L 413 148 L 413 148 Q 414 147 415 146 Q 416 145 418 144 Q 429 134 444 132 L 304 8 L 304 8 Z M 452 197 L 500 247 L 452 197 L 500 247 Q 504 252 511 252 Q 518 252 523 247 L 544 223 L 544 223 Q 570 248 591 284 Q 612 321 613 356 Q 612 408 579 443 Q 581 435 581 427 Q 580 398 564 372 Q 547 346 527 327 Q 506 307 494 298 Q 485 292 476 298 Q 464 307 443 327 Q 423 346 406 372 Q 390 398 389 427 Q 389 435 391 443 Q 358 408 357 356 Q 358 313 388 270 Q 418 227 452 197 L 452 197 Z M 485 484 Q 481 484 478 484 Q 452 481 437 464 Q 421 448 421 427 Q 422 400 448 368 Q 468 346 485 332 Q 502 346 522 368 Q 548 400 549 427 Q 549 448 533 464 Q 518 481 492 484 Q 492 484 492 484 Q 488 484 485 484 L 485 484 Z M 325 356 Q 326 422 369 466 L 369 466 L 369 466 Q 411 511 476 516 Q 480 516 485 516 Q 490 516 494 516 Q 559 511 601 466 Q 643 422 645 356 Q 643 310 619 268 Q 595 226 564 198 Q 544 182 524 197 Q 524 198 524 198 Q 523 198 523 199 L 511 212 L 511 212 L 473 173 L 473 173 Q 472 172 472 172 Q 472 172 472 172 Q 452 157 433 172 Q 395 204 362 252 Q 328 299 325 356 L 325 356 Z" />
</svg>