<svg xmlns="http://www.w3.org/2000/svg" viewBox="0 0 640 520">
  <path d="M 16 0 Q 1 1 0 16 Q 1 31 16 32 L 54 32 L 54 32 Q 66 33 70 45 L 129 333 L 129 333 Q 134 356 151 370 Q 168 384 191 384 L 321 384 L 321 384 Q 320 376 320 368 Q 320 360 321 352 L 191 352 L 191 352 Q 166 350 160 326 L 152 288 L 152 288 L 339 288 L 339 288 Q 348 271 360 256 L 145 256 L 145 256 L 106 64 L 106 64 L 540 64 L 540 64 L 507 192 L 507 192 Q 524 193 539 197 L 571 72 L 571 72 Q 574 56 565 44 Q 556 33 540 32 L 99 32 L 99 32 Q 87 2 54 0 L 16 0 L 16 0 Z M 168 456 Q 170 434 192 432 Q 214 434 216 456 Q 214 478 192 480 Q 170 478 168 456 L 168 456 Z M 248 456 Q 247 424 220 408 Q 192 392 164 408 Q 137 424 136 456 Q 137 488 164 504 Q 192 520 220 504 Q 247 488 248 456 L 248 456 Z M 496 256 Q 526 256 552 271 L 552 271 L 552 271 Q 578 286 593 312 Q 608 338 608 368 Q 608 398 593 424 Q 578 450 552 465 Q 526 480 496 480 Q 466 480 440 465 Q 414 450 399 424 Q 384 398 384 368 Q 384 338 399 312 Q 414 286 440 271 Q 466 256 496 256 L 496 256 Z M 496 512 Q 535 512 568 493 L 568 493 L 568 493 Q 601 474 621 440 Q 640 406 640 368 Q 640 330 621 296 Q 601 262 568 243 Q 535 224 496 224 Q 457 224 424 243 Q 391 262 371 296 Q 352 330 352 368 Q 352 406 371 440 Q 391 474 424 493 Q 457 512 496 512 L 496 512 Z M 563 325 Q 552 315 541 325 L 480 385 L 480 385 L 451 357 L 451 357 Q 440 347 429 357 Q 419 368 429 379 L 469 419 L 469 419 Q 480 429 491 419 L 563 347 L 563 347 Q 573 336 563 325 L 563 325 Z" />
</svg>