<svg xmlns="http://www.w3.org/2000/svg" viewBox="0 0 576 512">
  <path d="M 272 256 Q 302 256 328 241 L 328 241 L 328 241 Q 354 226 369 200 Q 384 174 384 144 Q 384 114 369 88 Q 354 62 328 47 Q 302 32 272 32 Q 242 32 216 47 Q 190 62 175 88 Q 160 114 160 144 Q 160 174 175 200 Q 190 226 216 241 Q 242 256 272 256 L 272 256 Z M 272 0 Q 311 0 344 19 L 344 19 L 344 19 Q 377 38 397 72 Q 416 106 416 144 Q 416 182 397 216 Q 377 250 344 269 Q 311 288 272 288 Q 233 288 200 269 Q 167 250 147 216 Q 128 182 128 144 Q 128 106 147 72 Q 167 38 200 19 Q 233 0 272 0 L 272 0 Z M 249 111 Q 248 112 248 115 Q 248 115 248 115 Q 248 115 248 115 Q 247 116 253 120 Q 261 124 275 127 Q 276 128 277 128 L 277 128 L 277 128 Q 292 131 307 139 Q 325 148 328 172 Q 326 199 306 209 Q 297 213 288 215 L 288 226 L 288 226 Q 287 240 272 242 Q 257 240 256 226 L 256 214 L 256 214 Q 243 211 232 208 Q 232 208 232 208 Q 232 208 232 208 Q 232 208 232 208 Q 232 208 232 208 Q 230 207 228 206 Q 228 206 227 206 Q 214 200 217 186 Q 222 172 237 175 Q 240 176 243 177 Q 243 177 244 178 Q 259 183 272 184 Q 283 184 291 180 Q 294 179 295 177 Q 296 176 296 173 Q 297 171 291 167 Q 283 163 268 159 L 266 158 L 266 158 Q 252 155 238 148 Q 220 141 216 117 Q 217 89 238 80 Q 247 75 256 74 L 256 64 L 256 64 Q 257 50 272 48 Q 286 50 288 64 L 288 74 L 288 74 Q 297 75 306 77 Q 320 82 317 97 Q 313 111 298 108 Q 284 105 272 104 Q 261 104 253 108 Q 249 110 249 112 L 249 111 Z M 151 317 Q 171 304 195 304 L 344 304 L 344 304 Q 368 305 384 320 Q 399 336 400 360 Q 400 373 395 384 L 400 384 L 400 384 L 495 328 L 495 328 Q 508 320 522 320 L 524 320 L 524 320 Q 546 321 561 335 Q 575 350 576 372 Q 575 400 552 416 L 433 494 L 433 494 Q 405 512 372 512 L 16 512 L 16 512 Q 1 511 0 496 Q 1 481 16 480 L 372 480 L 372 480 Q 395 480 415 467 L 535 389 L 535 389 Q 544 383 544 372 Q 542 354 524 352 L 522 352 L 522 352 Q 516 352 511 355 L 413 414 L 413 414 Q 409 416 405 416 L 344 416 L 256 416 Q 241 415 240 400 Q 241 385 256 384 L 320 384 L 344 384 Q 366 382 368 360 Q 366 338 344 336 L 195 336 L 195 336 Q 181 336 169 344 L 89 397 L 89 397 Q 85 400 80 400 L 16 400 L 16 400 Q 1 399 0 384 Q 1 369 16 368 L 75 368 L 75 368 L 151 317 L 151 317 Z" />
</svg>