<svg xmlns="http://www.w3.org/2000/svg" viewBox="0 0 576 454">
  <path d="M 449 120 Q 471 123 491 133 Q 490 79 450 39 L 449 37 L 449 37 Q 446 34 442 35 L 440 36 L 440 36 Q 436 36 435 39 Q 423 28 410 18 Q 419 7 434 4 L 436 4 L 436 4 Q 456 0 471 15 L 473 16 L 473 16 Q 501 44 513 80 Q 526 116 522 154 L 546 172 L 546 172 Q 575 195 576 232 Q 575 264 554 285 Q 533 307 501 307 L 407 307 L 407 307 L 375 339 L 375 339 L 424 339 L 424 339 Q 444 340 458 353 Q 471 367 472 387 Q 471 408 458 421 Q 444 435 424 435 L 307 435 L 307 435 Q 274 435 250 412 L 237 399 L 237 399 L 171 443 L 171 443 Q 153 454 135 450 Q 116 447 104 430 Q 93 413 97 394 Q 101 375 117 363 L 168 330 L 168 330 L 113 275 L 113 275 Q 98 260 90 241 Q 81 243 72 243 Q 41 242 21 222 Q 1 202 0 171 Q 1 141 21 120 Q 41 100 72 99 Q 97 100 115 114 Q 146 84 192 83 L 201 83 L 201 83 Q 227 83 251 94 L 319 125 L 319 125 Q 311 109 308 91 L 300 57 L 300 57 Q 298 42 304 31 Q 311 19 325 14 Q 336 10 347 14 Q 385 25 412 53 Q 439 81 449 120 L 449 120 Z M 81 210 Q 80 203 80 196 Q 80 164 95 139 Q 85 132 72 131 Q 55 132 44 143 Q 32 154 32 171 Q 32 188 44 200 Q 55 211 72 211 Q 77 211 81 210 L 81 210 Z M 135 390 Q 124 399 131 412 Q 140 424 153 417 L 214 376 L 214 376 L 191 353 L 191 353 L 135 390 L 135 390 Z M 335 44 Q 331 46 332 50 L 339 84 L 339 84 Q 348 125 379 153 Q 388 162 381 174 Q 374 184 361 179 L 238 123 L 238 123 Q 221 115 201 115 L 192 115 L 192 115 Q 158 116 136 139 Q 113 162 112 196 Q 113 229 136 252 L 273 389 L 273 389 Q 287 403 307 403 L 424 403 L 424 403 Q 439 402 440 387 Q 439 373 424 371 L 336 371 L 336 371 Q 326 371 321 361 Q 320 359 320 356 L 318 321 L 318 321 Q 315 291 297 268 Q 279 245 250 236 L 219 227 L 219 227 Q 206 221 209 207 Q 214 193 229 196 L 259 205 L 259 205 Q 298 218 322 248 Q 346 278 349 319 L 349 319 L 349 319 L 389 280 L 389 280 Q 393 275 400 275 L 501 275 L 501 275 Q 519 275 531 263 Q 544 250 544 232 Q 544 211 527 197 L 489 170 L 489 170 Q 465 152 436 150 Q 424 149 421 138 L 419 129 L 419 129 Q 411 98 390 76 Q 368 54 338 44 Q 336 44 335 44 L 335 44 Z M 480 195 Q 489 196 494 203 Q 498 211 494 219 Q 489 227 480 227 Q 465 226 464 211 Q 465 197 480 195 L 480 195 Z" />
</svg>