<svg xmlns="http://www.w3.org/2000/svg" viewBox="0 0 512 512">
  <path d="M 397.4389 59.924267 L 319.0086 104.86747 L 403.60757 252.03442 L 482.03787 206.20998 L 397.4389 59.924267 L 397.4389 59.924267 Z M 306.67126 140.11703 L 74.02409 288.16522 Q 74.02409 288.16522 74.02409 288.16522 L 74.02409 288.16522 Q 74.02409 288.16522 73.14286 288.16522 Q 73.14286 288.16522 73.14286 289.04648 L 73.14286 289.04648 Q 73.14286 288.16522 73.14286 289.04648 L 121.611015 371.88297 L 121.611015 371.88297 L 121.611015 371.88297 L 121.611015 371.88297 Q 121.611015 371.88297 121.611015 371.88297 L 121.611015 371.88297 Q 121.611015 371.88297 121.611015 371.88297 Q 121.611015 371.88297 121.611015 371.88297 L 121.611015 371.88297 L 121.611015 371.88297 L 121.611015 371.88297 L 207.09122 326.05853 Q 200.92255 311.95868 200.92255 296.09637 Q 201.80379 266.13425 221.19106 245.86575 Q 241.45955 226.47849 271.4217 225.59724 Q 301.38382 226.47849 321.6523 245.86575 Q 341.03958 266.13425 341.92084 296.09637 Q 341.03958 326.05853 321.6523 346.32703 Q 301.38382 365.7143 271.4217 366.59552 Q 258.2031 366.59552 246.747 362.18933 L 200.0413 470.58176 Q 193.87263 482.03787 181.53528 478.5129 Q 170.07918 472.34424 173.60413 460.0069 L 221.19106 350.73322 L 135.71085 396.55765 Q 125.13597 401.8451 114.561104 399.2014 Q 103.10499 395.67642 97.81756 385.9828 L 49.349396 302.26505 Q 44.061962 292.57144 46.70568 281.99655 Q 49.349396 271.4217 59.04303 264.37177 L 292.57144 116.32358 Q 285.5215 94.2926 304.90878 81.07401 L 383.33908 35.24957 Q 393.91394 29.962133 404.4888 32.60585 Q 415.94492 35.24957 422.1136 45.82444 L 506.71255 192.11015 Q 512 202.68503 509.3563 213.2599 Q 506.71255 224.716 496.1377 230.88467 L 417.7074 275.82788 Q 407.13254 281.99655 396.55765 278.4716 Q 385.10156 275.82788 378.93286 266.13425 L 378.93286 265.25302 L 341.03958 285.5215 Q 338.39587 270.54044 331.34595 259.08435 L 364.83304 240.57831 L 306.67126 140.11703 L 306.67126 140.11703 Z M 271.4217 338.39587 Q 295.21515 337.51462 308.43375 317.24612 Q 319.0086 296.09637 308.43375 274.94666 Q 295.21515 254.67815 271.4217 253.7969 Q 247.62822 254.67815 234.40964 274.94666 Q 223.83476 296.09637 234.40964 317.24612 Q 247.62822 337.51462 271.4217 338.39587 L 271.4217 338.39587 Z M 320.7711 346.32703 Q 310.19623 356.9019 296.09637 362.18933 L 342.80206 470.58176 Q 348.97073 482.03787 361.30807 478.5129 Q 372.7642 472.34424 369.23926 460.0069 L 320.7711 346.32703 L 320.7711 346.32703 Z M 29.962133 338.39587 L 58.16179 387.74527 Q 63.449226 399.2014 52.874355 407.13254 Q 41.418243 412.41995 33.48709 401.8451 L 5.2874355 352.4957 Q 0 341.03958 10.574871 333.10843 Q 22.030981 327.82098 29.962133 338.39587 L 29.962133 338.39587 Z" />
</svg>