<svg xmlns="http://www.w3.org/2000/svg" viewBox="0 0 576 384">
  <path d="M 268 62 Q 233 33 200 32 Q 188 32 157 44 Q 128 57 97 79 Q 67 101 49 124 Q 31 148 32 160 Q 32 183 50 214 Q 68 243 90 268 Q 119 302 160 327 Q 202 351 256 352 L 320 352 L 320 352 Q 374 351 416 327 Q 457 302 486 268 Q 508 244 526 213 Q 544 183 544 160 Q 545 148 528 124 Q 509 101 479 79 Q 449 57 419 44 Q 388 32 376 32 Q 343 33 308 62 Q 288 76 268 62 L 268 62 Z M 510 289 Q 479 326 431 354 L 431 354 L 431 354 Q 384 383 320 384 L 256 384 L 256 384 Q 192 383 145 354 Q 97 326 66 289 Q 43 263 22 230 Q 1 196 0 160 Q 2 123 39 86 Q 76 50 123 25 Q 169 1 200 0 Q 225 0 247 11 Q 269 22 288 37 Q 307 22 329 11 Q 351 0 376 0 Q 407 1 453 25 Q 500 50 537 86 Q 574 123 576 160 Q 575 195 554 229 Q 533 264 510 289 L 510 289 Z M 356 153 Q 347 156 327 161 L 327 161 L 327 161 Q 307 166 288 166 Q 269 166 249 161 Q 229 156 220 153 Q 217 152 214 152 Q 157 154 130 163 Q 123 165 119 167 Q 119 168 120 169 Q 131 180 154 195 Q 177 210 211 221 Q 244 231 288 232 Q 332 231 365 221 Q 399 210 422 195 Q 445 180 456 169 Q 456 168 457 168 Q 457 168 457 167 Q 453 165 446 163 Q 419 154 362 152 Q 359 152 356 153 L 356 153 Z M 362 120 Q 423 122 455 133 Q 471 138 481 143 Q 485 146 489 150 Q 494 152 496 164 Q 496 169 495 171 Q 495 171 495 171 Q 494 173 493 174 Q 492 177 490 179 Q 485 185 479 192 Q 465 206 439 222 Q 413 239 375 251 Q 337 263 288 264 Q 239 263 201 251 Q 163 239 137 222 Q 111 206 97 192 Q 90 185 86 179 Q 84 177 83 174 Q 82 173 81 171 Q 81 171 81 171 Q 80 169 80 164 Q 82 152 87 150 Q 91 146 95 143 Q 105 138 121 133 Q 153 122 214 120 Q 222 120 229 122 Q 239 126 256 130 Q 273 134 288 134 Q 303 134 320 130 Q 337 126 347 122 Q 354 120 362 120 L 362 120 Z" />
</svg>