<svg xmlns="http://www.w3.org/2000/svg" viewBox="0 0 517 448">
  <path d="M 10 235 Q 0 224 10 213 L 138 85 L 138 85 Q 149 75 160 85 Q 170 96 160 107 L 60 208 L 60 208 L 341 208 L 341 208 Q 356 209 357 224 Q 356 239 341 240 L 60 240 L 60 240 L 160 341 L 160 341 Q 170 352 160 363 Q 149 373 138 363 L 10 235 L 10 235 Z M 341 32 Q 326 31 325 16 Q 326 1 341 0 L 437 0 L 437 0 Q 471 1 494 23 Q 516 46 517 80 L 517 368 L 517 368 Q 516 402 494 425 Q 471 447 437 448 L 341 448 L 341 448 Q 326 447 325 432 Q 326 417 341 416 L 437 416 L 437 416 Q 457 415 471 402 Q 484 388 485 368 L 485 80 L 485 80 Q 484 60 471 46 Q 457 33 437 32 L 341 32 L 341 32 Z" />
</svg>