<svg xmlns="http://www.w3.org/2000/svg" viewBox="0 0 448 512">
  <path d="M 416 416 Q 417 420 408 431 Q 397 443 370 455 Q 314 479 224 480 Q 134 479 78 455 Q 52 443 40 431 Q 31 420 32 416 L 32 332 L 32 332 Q 58 345 93 353 Q 151 368 224 368 Q 297 368 355 354 Q 390 345 416 332 L 416 416 L 416 416 Z M 416 204 L 416 294 L 416 204 L 416 294 Q 394 310 347 322 Q 294 336 224 336 Q 154 336 101 322 Q 54 311 32 294 L 32 204 L 32 204 Q 58 217 93 225 Q 151 240 224 240 Q 297 240 355 226 Q 390 217 416 204 L 416 204 Z M 416 166 Q 394 182 347 194 Q 294 208 224 208 Q 154 208 101 194 Q 54 182 32 166 L 32 96 L 32 96 Q 31 92 40 81 Q 52 69 78 58 Q 134 33 224 32 Q 314 33 370 58 Q 396 69 408 81 Q 417 92 416 96 L 416 166 L 416 166 Z M 448 416 L 448 96 L 448 416 L 448 96 Q 446 55 382 28 Q 319 1 224 0 Q 129 1 66 28 Q 2 55 0 96 L 0 416 L 0 416 Q 2 457 66 484 Q 129 511 224 512 Q 319 511 382 484 Q 446 457 448 416 L 448 416 Z" />
</svg>