<svg xmlns="http://www.w3.org/2000/svg" viewBox="0 0 512 512">
  <path d="M 192.24902 414.38132 Q 192.24902 400.4358 183.28404 391.47083 L 183.28404 391.47083 Q 174.31906 382.50583 160.37354 382.50583 L 64.74708 382.50583 Q 50.801556 382.50583 41.836575 373.54086 Q 32.871593 364.57587 32.871593 350.63034 L 32.871593 63.750973 Q 32.871593 49.805447 41.836575 40.840466 Q 50.801556 31.875486 64.74708 31.875486 L 447.25293 31.875486 Q 461.19846 31.875486 470.16342 40.840466 Q 479.12842 49.805447 479.12842 63.750973 L 479.12842 350.63034 Q 479.12842 364.57587 470.16342 373.54086 Q 461.19846 382.50583 447.25293 382.50583 L 308.79376 382.50583 Q 298.83267 382.50583 289.8677 388.48248 L 192.24902 462.19455 L 192.24902 414.38132 L 192.24902 414.38132 Z M 64.74708 0 Q 37.85214 0.99610895 19.922178 18.92607 L 19.922178 18.92607 Q 1.9922179 36.85603 0.99610895 63.750973 L 0.99610895 350.63034 Q 1.9922179 377.5253 19.922178 395.45526 Q 37.85214 413.38522 64.74708 414.38132 L 128.49805 414.38132 L 160.37354 414.38132 L 160.37354 446.2568 L 160.37354 494.07004 Q 160.37354 504.03113 169.33852 508.01556 Q 178.3035 512 186.27237 507.01947 L 308.79376 414.38132 L 447.25293 414.38132 Q 474.14786 413.38522 492.07782 395.45526 Q 510.00778 377.5253 511.0039 350.63034 L 511.0039 63.750973 Q 510.00778 36.85603 492.07782 18.92607 Q 474.14786 0.99610895 447.25293 0 L 64.74708 0 L 64.74708 0 Z M 203.20622 144.43579 Q 193.24513 148.42023 192.24902 159.37743 L 192.24902 255.00389 Q 193.24513 269.94553 208.18677 270.94162 Q 223.1284 269.94553 224.12451 255.00389 L 224.12451 207.19066 L 243.05058 233.0895 Q 248.03113 239.06615 256 239.06615 Q 263.96887 239.06615 268.9494 233.0895 L 287.8755 207.19066 L 287.8755 255.00389 Q 288.87158 269.94553 303.81323 270.94162 Q 318.75485 269.94553 319.75098 255.00389 L 319.75098 159.37743 Q 318.75485 148.42023 308.79376 144.43579 Q 297.83658 141.44746 290.8638 149.41634 L 256 196.23346 L 221.13618 149.41634 Q 214.16342 141.44746 203.20622 144.43579 L 203.20622 144.43579 Z M 112.56031 182.28793 Q 112.56031 180.29572 112.56031 180.29572 Q 112.56031 180.29572 112.56031 180.29572 Q 113.55642 179.2996 115.54864 178.3035 Q 120.52918 175.31517 128.49805 175.31517 Q 139.45525 175.31517 151.40855 178.3035 Q 165.35408 181.29182 171.33073 167.3463 Q 173.32295 153.40077 159.37743 148.42023 Q 144.43579 144.43579 128.49805 143.43968 Q 113.55642 143.43968 99.61089 151.40855 Q 82.67704 159.37743 80.68482 182.28793 Q 82.67704 204.20233 98.614784 211.1751 Q 110.56809 218.14786 121.52529 221.13618 Q 122.5214 221.13618 122.5214 221.13618 L 122.5214 221.13618 L 123.51751 221.13618 Q 136.46692 225.12062 141.44746 228.10895 Q 145.4319 231.09727 144.43579 231.09727 L 144.43579 232.09338 Q 144.43579 234.0856 143.43968 234.0856 Q 143.43968 235.08171 141.44746 236.07782 Q 137.46303 239.06615 128.49805 239.06615 Q 118.536964 238.07004 105.58755 233.0895 Q 105.58755 233.0895 105.58755 233.0895 L 105.58755 233.0895 L 105.58755 233.0895 L 105.58755 233.0895 L 105.58755 233.0895 Q 103.59533 233.0895 102.59922 232.09338 Q 101.60311 232.09338 101.60311 232.09338 Q 86.661476 229.10506 80.68482 242.05447 Q 77.696495 256 91.64202 261.97665 Q 92.63813 262.97275 93.63424 262.97275 Q 94.63035 262.97275 94.63035 262.97275 L 94.63035 262.97275 L 94.63035 262.97275 Q 94.63035 262.97275 94.63035 262.97275 Q 108.575874 268.9494 127.501945 270.94162 Q 143.43968 271.93774 158.38132 262.97275 Q 175.31517 254.00778 176.31128 231.09727 Q 174.31906 209.18288 158.38132 201.214 Q 145.4319 194.24124 133.47859 191.25291 L 132.48248 191.25291 Q 120.52918 187.26848 114.55253 184.28015 Q 112.56031 183.28404 112.56031 182.28793 Q 112.56031 182.28793 112.56031 182.28793 Q 112.56031 182.28793 112.56031 182.28793 Q 112.56031 182.28793 112.56031 182.28793 L 112.56031 182.28793 Z M 367.5642 182.28793 Q 367.5642 180.29572 367.5642 180.29572 Q 367.5642 180.29572 367.5642 180.29572 Q 368.5603 179.2996 370.55252 178.3035 Q 375.53308 175.31517 383.50195 175.31517 Q 392.46692 175.31517 403.42413 178.3035 Q 417.36966 181.29182 422.3502 167.3463 Q 425.33853 153.40077 411.393 148.42023 Q 398.44357 144.43579 383.50195 143.43968 Q 368.5603 143.43968 354.61478 151.40855 Q 337.68094 159.37743 335.68872 182.28793 Q 337.68094 204.20233 353.61868 212.1712 Q 365.572 218.14786 376.52917 221.13618 Q 377.5253 221.13618 377.5253 221.13618 L 377.5253 221.13618 L 378.5214 222.1323 Q 391.47083 225.12062 396.45135 228.10895 Q 400.4358 231.09727 399.4397 232.09338 L 399.4397 232.09338 Q 399.4397 234.0856 398.44357 234.0856 Q 398.44357 235.08171 396.45135 236.07782 Q 392.46692 239.06615 383.50195 239.06615 Q 374.53696 239.06615 361.58755 234.0856 L 361.58755 234.0856 L 361.58755 234.0856 L 361.58755 234.0856 Q 360.59143 234.0856 360.59143 233.0895 Q 358.5992 233.0895 356.607 232.09338 Q 342.66147 229.10506 336.6848 242.05447 Q 332.70038 256.9961 346.6459 261.97665 Q 348.63812 262.97275 350.63034 263.96887 L 350.63034 263.96887 Q 350.63034 263.96887 350.63034 263.96887 Q 364.57587 268.9494 382.50583 270.94162 Q 398.44357 271.93774 413.38522 263.96887 Q 430.31906 254.00778 431.3152 231.09727 Q 429.32297 210.17899 413.38522 201.214 Q 400.4358 194.24124 388.48248 191.25291 L 388.48248 191.25291 Q 375.53308 187.26848 369.55643 184.28015 Q 367.5642 183.28404 367.5642 183.28404 Q 367.5642 183.28404 367.5642 182.28793 Q 367.5642 182.28793 367.5642 182.28793 Q 367.5642 182.28793 367.5642 182.28793 L 367.5642 182.28793 Z" />
</svg>