<svg xmlns="http://www.w3.org/2000/svg" viewBox="0 0 512 512">
  <path d="M 224 96 L 227 96 L 285 96 L 288 96 L 288 32 L 224 32 L 224 96 L 224 96 Z M 192 102 L 192 96 L 192 24 Q 194 2 216 0 L 296 0 Q 318 2 320 24 L 320 96 L 320 102 Q 330 106 338 112 L 352 120 Q 383 141 384 179 Q 384 195 377 209 Q 384 223 384 240 Q 384 257 377 272 Q 384 287 384 304 Q 384 321 377 336 Q 384 351 384 368 Q 384 388 375 404 Q 384 420 384 440 Q 383 471 363 491 Q 343 511 312 512 L 200 512 Q 169 511 149 491 Q 129 471 128 440 Q 128 420 138 404 Q 128 388 128 368 Q 128 351 136 336 Q 128 321 128 304 Q 128 287 136 272 Q 128 257 128 240 Q 128 223 135 209 Q 128 195 128 179 Q 129 141 160 120 L 174 112 Q 182 106 192 102 L 192 102 Z M 227 128 Q 207 128 191 139 L 177 147 Q 161 158 160 179 Q 160 192 168 201 Q 173 209 168 216 Q 160 226 160 240 Q 160 254 168 265 Q 173 272 168 280 Q 160 290 160 304 Q 160 318 168 329 Q 173 336 168 344 Q 160 354 160 368 Q 160 383 170 394 Q 176 404 170 414 Q 160 425 160 440 Q 160 457 172 468 Q 183 480 200 480 L 312 480 Q 329 480 340 468 Q 352 457 352 440 Q 352 425 342 414 Q 336 404 342 394 Q 352 383 352 368 Q 352 354 344 343 Q 339 336 344 329 Q 352 318 352 304 Q 352 290 344 279 Q 339 272 344 264 Q 352 254 352 240 Q 352 226 344 216 Q 339 208 344 201 Q 352 192 352 178 Q 351 158 335 147 L 321 138 Q 305 128 285 128 L 227 128 L 227 128 Z M 192 240 Q 193 225 208 224 L 304 224 Q 319 225 320 240 Q 319 255 304 256 L 208 256 Q 193 255 192 240 L 192 240 Z M 208 352 L 304 352 Q 319 353 320 368 Q 319 383 304 384 L 208 384 Q 193 383 192 368 Q 193 353 208 352 L 208 352 Z" />
</svg>