<svg xmlns="http://www.w3.org/2000/svg" viewBox="0 0 512 514">
  <path d="M 192 416 Q 192 402 183 393 L 183 393 L 183 393 Q 174 384 160 384 L 64 384 L 64 384 Q 50 384 41 375 Q 32 366 32 352 L 32 64 L 32 64 Q 32 50 41 41 Q 50 32 64 32 L 448 32 L 448 32 Q 462 32 471 41 Q 480 50 480 64 L 480 352 L 480 352 Q 480 366 471 375 Q 462 384 448 384 L 309 384 L 309 384 Q 299 384 290 390 L 192 464 L 192 464 L 192 416 L 192 416 Z M 64 0 Q 37 1 19 19 L 19 19 L 19 19 Q 1 37 0 64 L 0 352 L 0 352 Q 1 379 19 397 Q 37 415 64 416 L 128 416 L 160 416 L 160 448 L 160 448 L 160 496 L 160 496 Q 160 506 169 510 Q 178 514 186 509 L 309 416 L 309 416 L 448 416 L 448 416 Q 475 415 493 397 Q 511 379 512 352 L 512 64 L 512 64 Q 511 37 493 19 Q 475 1 448 0 L 64 0 L 64 0 Z M 96 181 Q 97 200 112 212 L 142 231 L 142 231 Q 144 233 144 235 Q 144 240 139 240 L 112 240 L 112 240 Q 97 241 96 256 Q 97 271 112 272 L 139 272 L 139 272 Q 155 272 165 261 Q 176 251 176 235 Q 175 216 160 205 L 130 185 L 130 185 Q 128 183 128 181 Q 128 176 133 176 L 152 176 L 152 176 Q 167 175 168 160 Q 167 146 152 144 L 133 144 L 133 144 Q 117 144 107 155 Q 96 165 96 181 L 96 181 Z M 373 144 Q 357 144 347 155 L 347 155 L 347 155 Q 336 165 336 181 Q 337 200 352 212 L 382 231 L 382 231 Q 384 233 384 235 Q 384 240 379 240 L 352 240 L 352 240 Q 337 241 336 256 Q 337 271 352 272 L 379 272 L 379 272 Q 395 272 405 261 Q 416 251 416 235 Q 415 216 400 205 L 370 185 L 370 185 Q 368 183 368 181 Q 368 176 373 176 L 392 176 L 392 176 Q 407 175 408 160 Q 407 146 392 144 L 373 144 L 373 144 Z M 221 150 Q 214 142 203 145 Q 193 149 192 160 L 192 256 L 192 256 Q 193 271 208 272 Q 223 271 224 256 L 224 208 L 224 208 L 243 234 L 243 234 Q 248 240 256 240 Q 264 240 269 234 L 288 208 L 288 208 L 288 256 L 288 256 Q 289 271 304 272 Q 319 271 320 256 L 320 160 L 320 160 Q 319 149 309 145 Q 298 142 291 150 L 256 197 L 256 197 L 221 150 L 221 150 Z" />
</svg>