<svg xmlns="http://www.w3.org/2000/svg" viewBox="0 0 512 400">
  <path d="M 160 224 L 160 281 L 160 224 L 160 281 Q 159 287 153 288 Q 150 288 148 286 L 36 160 L 36 160 L 148 34 L 148 34 Q 150 32 153 32 Q 159 33 160 39 L 160 96 L 160 96 Q 160 110 169 119 Q 178 128 192 128 L 368 128 L 368 128 Q 416 129 447 161 Q 479 192 480 240 L 480 352 L 480 352 Q 479 367 464 368 L 432 368 L 432 368 Q 417 367 416 352 L 416 240 L 416 240 Q 415 220 402 206 Q 388 193 368 192 L 192 192 L 192 192 Q 178 192 169 201 Q 160 210 160 224 L 160 224 Z M 5 146 Q 0 152 0 160 Q 0 168 5 174 L 125 307 L 125 307 Q 136 320 153 320 Q 170 320 181 309 Q 192 298 192 281 L 192 256 L 192 256 L 192 224 L 192 224 L 224 224 L 368 224 Q 383 225 384 240 L 384 352 L 384 352 Q 385 372 398 386 Q 412 399 432 400 L 464 400 L 464 400 Q 484 399 498 386 Q 511 372 512 352 L 512 240 L 512 240 Q 510 179 470 138 Q 429 98 368 96 L 224 96 L 192 96 L 192 64 L 192 64 L 192 39 L 192 39 Q 192 22 181 11 Q 170 0 153 0 Q 136 0 125 13 L 5 146 L 5 146 Z" />
</svg>