<svg xmlns="http://www.w3.org/2000/svg" viewBox="0 0 458 471">
  <path d="M 396 90 Q 428 133 419 199 Q 409 276 341 347 Q 270 415 193 425 Q 131 433 89 405 Q 89 405 89 405 Q 89 405 89 405 Q 102 378 117 353 Q 131 328 147 313 Q 169 291 191 277 Q 214 263 238 252 Q 238 252 238 252 L 239 251 L 239 251 Q 239 251 239 251 Q 239 251 239 251 Q 263 240 288 225 Q 313 209 339 184 Q 356 167 370 141 Q 385 115 395 90 L 396 90 Z M 371 66 Q 370 68 369 70 L 369 70 L 369 70 Q 369 70 369 71 Q 358 97 344 122 Q 331 147 316 162 Q 294 184 271 198 Q 248 211 224 223 Q 224 223 224 223 L 224 223 L 224 223 Q 200 235 174 250 Q 149 265 124 290 Q 107 307 92 332 Q 77 358 64 383 Q 30 339 39 271 Q 49 194 117 123 Q 188 55 265 45 Q 328 36 371 66 L 371 66 Z M 397 46 Q 337 0 253 15 L 253 15 L 253 15 Q 168 29 95 101 Q 45 151 23 209 Q 0 268 6 322 Q 13 376 50 414 Q 50 414 50 414 Q 61 425 74 434 Q 75 434 75 434 Q 75 434 75 435 Q 136 471 215 453 Q 295 436 363 369 Q 413 319 435 261 Q 458 202 451 148 Q 445 94 408 56 Q 403 51 397 46 L 397 46 Z" />
</svg>