<svg xmlns="http://www.w3.org/2000/svg" viewBox="0 0 564 514">
  <path d="M 78 3 Q 92 8 89 22 L 36 208 L 36 208 Q 34 224 50 226 Q 65 227 66 242 Q 65 257 50 258 Q 26 257 13 240 Q 0 222 6 199 L 59 14 L 59 14 Q 64 0 78 3 L 78 3 Z M 279 34 Q 278 34 277 35 Q 266 40 241 55 Q 216 71 188 95 Q 160 119 141 148 Q 123 177 122 210 Q 122 242 117 277 Q 112 312 106 343 Q 99 374 95 394 Q 94 398 93 402 Q 93 402 93 402 L 234 480 L 234 480 L 234 287 L 234 287 L 188 278 L 188 278 Q 173 275 164 263 Q 154 252 154 236 Q 154 218 166 206 Q 178 194 196 194 L 368 194 L 368 194 Q 386 194 398 206 Q 410 218 410 236 Q 410 252 400 263 Q 391 275 376 278 L 330 287 L 330 287 L 330 480 L 330 480 L 471 402 L 471 402 Q 470 398 469 394 Q 465 374 458 343 Q 452 312 447 277 Q 442 242 442 210 Q 441 177 423 148 Q 404 119 376 95 Q 348 71 323 55 Q 298 40 288 35 Q 287 34 285 34 L 279 34 L 279 34 Z M 505 406 Q 508 418 498 424 L 340 511 L 340 511 Q 334 514 328 514 Q 315 514 307 506 Q 298 498 298 486 L 298 287 L 298 287 Q 300 262 324 256 L 370 246 L 370 246 Q 377 244 378 236 Q 377 227 367 226 L 196 226 L 196 226 Q 187 227 186 236 Q 186 244 194 246 L 240 256 L 240 256 Q 264 262 266 287 L 266 486 L 266 486 Q 265 498 257 506 Q 249 514 236 514 Q 229 514 223 511 L 66 424 L 66 424 Q 56 418 59 406 Q 59 406 59 406 Q 59 406 59 406 Q 59 406 59 406 Q 59 406 59 406 Q 59 406 59 406 Q 59 406 59 406 Q 59 406 59 406 Q 59 406 59 406 L 59 406 L 59 406 L 59 405 L 59 405 Q 59 404 59 403 Q 60 402 60 401 Q 61 396 64 386 Q 68 367 75 337 Q 81 306 85 273 Q 90 239 90 210 Q 91 167 114 132 Q 137 96 167 71 Q 197 45 224 28 Q 250 12 262 6 Q 270 2 279 2 L 285 2 L 285 2 Q 294 2 302 6 Q 314 12 340 28 Q 367 45 397 71 Q 427 96 450 132 Q 473 167 474 210 Q 474 239 479 273 Q 483 306 490 337 Q 496 367 501 386 Q 503 396 504 401 Q 505 402 505 403 Q 505 404 505 405 L 506 406 L 506 406 L 506 406 L 506 406 Q 506 406 506 406 Q 506 406 506 406 Q 506 406 506 406 Q 506 406 506 406 Q 506 406 506 406 Q 506 406 506 406 Q 506 406 506 406 L 505 406 Z M 505 14 L 558 199 L 505 14 L 558 199 Q 564 222 551 240 Q 538 257 514 258 Q 499 257 498 242 Q 499 227 514 226 Q 530 224 527 208 L 474 22 L 474 22 Q 472 8 485 3 Q 500 0 505 14 L 505 14 Z" />
</svg>