<svg xmlns="http://www.w3.org/2000/svg" viewBox="0 0 640 512">
  <path d="M 196 24 Q 218 3 246 2 L 246 2 L 246 2 Q 274 0 297 19 Q 305 26 312 34 Q 313 35 314 35 Q 314 36 315 37 Q 318 39 320 42 Q 322 40 323 38 Q 325 37 326 35 Q 334 27 343 19 Q 366 0 394 2 Q 422 3 444 24 Q 466 47 466 78 Q 466 108 444 132 L 343 235 L 343 235 Q 333 245 320 245 Q 307 245 298 235 L 196 132 L 196 132 Q 174 108 174 78 Q 174 47 196 24 L 196 24 Z M 280 46 Q 266 34 249 34 L 249 34 L 249 34 Q 232 34 219 46 Q 206 60 206 78 Q 206 96 219 110 L 320 212 L 320 212 L 421 109 L 421 109 Q 434 96 434 78 Q 434 60 421 46 Q 408 33 391 33 Q 374 33 361 46 L 331 76 L 331 76 Q 320 86 309 76 L 280 46 L 280 46 Z M 64 59 Q 91 60 109 78 L 109 78 L 109 78 Q 127 96 128 123 L 128 247 L 128 247 Q 128 254 129 261 Q 132 256 137 252 Q 154 235 176 235 Q 198 235 215 252 L 307 343 L 307 343 Q 314 351 320 360 Q 326 351 333 343 L 425 252 L 425 252 Q 442 235 464 235 Q 486 235 503 252 Q 508 256 511 261 Q 512 254 512 247 L 512 123 L 512 123 Q 513 96 531 78 Q 549 60 576 59 Q 603 60 621 78 Q 639 96 640 123 L 640 339 L 640 339 Q 639 385 607 418 L 523 502 L 523 502 Q 512 512 501 502 Q 491 491 501 480 L 585 396 L 585 396 Q 608 372 608 339 L 608 123 L 608 123 Q 608 109 599 100 Q 590 91 576 91 Q 562 91 553 100 Q 544 109 544 123 L 544 247 L 544 247 Q 543 289 514 320 L 503 330 L 503 330 L 459 374 L 459 374 L 443 390 L 443 390 Q 432 400 421 390 Q 411 379 421 368 L 437 352 L 437 352 Q 437 352 437 352 L 481 308 L 481 308 Q 481 308 481 308 Q 495 291 481 274 Q 464 261 447 274 L 356 366 L 356 366 Q 336 386 336 414 L 336 491 L 336 491 Q 335 506 320 507 Q 305 506 304 491 L 304 414 L 304 414 Q 304 386 284 366 L 193 274 L 193 274 Q 176 260 159 274 Q 146 291 159 308 L 203 352 L 203 352 L 219 368 L 219 368 Q 229 379 219 390 Q 208 400 197 390 L 181 374 L 181 374 Q 181 374 181 374 Q 181 374 181 374 L 137 330 L 137 330 Q 137 330 137 330 Q 137 330 137 330 L 126 320 L 126 320 Q 97 289 96 247 L 96 123 L 96 123 Q 96 109 87 100 Q 78 91 64 91 Q 50 91 41 100 Q 32 109 32 123 L 32 339 L 32 339 Q 32 372 55 396 L 139 480 L 139 480 Q 149 491 139 502 Q 128 512 117 502 L 33 418 L 33 418 Q 1 385 0 339 L 0 123 L 0 123 Q 1 96 19 78 Q 37 60 64 59 L 64 59 Z" />
</svg>