<svg xmlns="http://www.w3.org/2000/svg" viewBox="0 0 512 512">
  <path d="M 256 53.728394 Q 331.85184 54.781895 386.63376 101.1358 L 386.63376 101.1358 Q 440.36215 147.48972 455.1111 220.18108 L 455.1111 220.18108 Q 455.1111 220.18108 455.1111 220.18108 Q 454.05762 222.28807 449.84363 222.28807 L 62.15638 222.28807 Q 57.942387 222.28807 56.88889 220.18108 Q 56.88889 220.18108 56.88889 220.18108 L 56.88889 220.18108 Q 71.63786 147.48972 125.36626 101.1358 Q 180.14815 54.781895 256 53.728394 L 256 53.728394 Z M 24.230453 213.86008 Q 21.06996 231.76955 32.658436 243.35803 L 32.658436 243.35803 Q 44.246914 256 62.15638 256 L 449.84363 256 Q 467.75308 256 479.34155 243.35803 Q 490.93005 231.76955 488.82306 213.86008 Q 471.96707 129.58025 407.7037 75.85185 Q 344.49384 22.123457 256 20.01646 Q 167.50618 22.123457 104.296295 75.85185 Q 40.03292 129.58025 24.230453 213.86008 L 24.230453 213.86008 Z M 121.15226 458.2716 Q 92.70782 457.2181 73.74486 438.25516 L 73.74486 438.25516 Q 54.781895 419.29218 53.728394 390.84775 L 458.2716 390.84775 Q 457.2181 419.29218 438.25516 438.25516 Q 419.29218 457.2181 390.84775 458.2716 L 121.15226 458.2716 L 121.15226 458.2716 Z M 20.01646 390.84775 Q 21.06996 434.04114 49.514404 462.4856 L 49.514404 462.4856 Q 77.95885 490.93005 121.15226 491.98355 L 390.84775 491.98355 Q 434.04114 490.93005 462.4856 462.4856 Q 490.93005 434.04114 491.98355 390.84775 Q 491.98355 376.09875 482.50204 366.61728 Q 473.02057 357.1358 458.2716 357.1358 L 53.728394 357.1358 Q 38.979424 357.1358 29.497942 366.61728 Q 20.01646 376.09875 20.01646 390.84775 L 20.01646 390.84775 Z M 171.72017 138.00822 Q 170.66667 122.205765 154.8642 121.15226 Q 139.06172 122.205765 138.00822 138.00822 Q 139.06172 153.8107 154.8642 154.8642 Q 170.66667 153.8107 171.72017 138.00822 L 171.72017 138.00822 Z M 256 121.15226 Q 271.80246 120.09876 272.85596 104.296295 Q 271.80246 88.49383 256 87.44033 Q 240.19753 88.49383 239.14403 104.296295 Q 240.19753 120.09876 256 121.15226 L 256 121.15226 Z M 373.99176 138.00822 Q 372.93826 122.205765 357.1358 121.15226 Q 341.33334 122.205765 340.27985 138.00822 Q 341.33334 153.8107 357.1358 154.8642 Q 372.93826 153.8107 373.99176 138.00822 L 373.99176 138.00822 Z M 70.584366 338.17285 Q 101.1358 336.06586 120.09876 321.31686 L 120.09876 321.31686 Q 120.09876 321.31686 121.15226 321.31686 L 123.25926 319.20987 Q 143.27573 305.5144 163.29218 304.4609 Q 182.25514 305.5144 200.16461 319.20987 Q 209.64609 326.58435 223.34157 331.85184 Q 237.03703 338.17285 256 338.17285 Q 274.96295 338.17285 287.60495 331.85184 Q 300.24692 326.58435 309.7284 319.20987 Q 309.7284 319.20987 310.7819 319.20987 L 310.7819 319.20987 Q 326.58435 305.5144 348.70782 304.4609 Q 371.88477 305.5144 390.84775 319.20987 L 392.95474 321.31686 Q 410.8642 336.06586 441.41565 338.17285 Q 470.91357 337.11935 485.66254 328.69135 Q 494.09055 324.47736 498.30453 321.31686 Q 500.41153 319.20987 501.46503 318.15637 Q 501.46503 318.15637 502.51852 318.15637 Q 502.51852 318.15637 502.51852 318.15637 L 502.51852 317.10287 L 502.51852 317.10287 L 502.51852 317.10287 L 502.51852 317.10287 L 502.51852 317.10287 Q 502.51852 318.15637 501.46503 316.04938 Q 499.35803 313.94238 491.98355 306.5679 L 502.51852 317.10287 Q 512 306.5679 502.51852 296.03293 Q 491.98355 286.55145 481.44855 296.03293 L 481.44855 296.03293 Q 480.39505 296.03293 479.34155 297.08643 Q 477.23456 299.19342 473.02057 301.3004 Q 462.4856 307.6214 441.41565 308.6749 Q 425.61316 307.6214 406.6502 293.92593 L 406.6502 293.92593 Q 385.58026 278.12344 348.70782 274.96295 Q 329.74484 274.96295 317.10287 281.28394 Q 304.4609 286.55145 294.97943 293.92593 Q 294.97943 293.92593 293.92593 293.92593 L 293.92593 293.92593 Q 278.12344 307.6214 256 308.6749 Q 233.87654 307.6214 217.02057 293.92593 L 214.91357 292.87244 Q 197.00412 278.12344 163.29218 274.96295 Q 127.47325 278.12344 107.45679 293.92593 Q 86.38683 307.6214 70.584366 308.6749 Q 49.514404 307.6214 38.979424 301.3004 Q 34.76543 299.19342 32.658436 297.08643 Q 31.604939 296.03293 30.551441 296.03293 L 30.551441 296.03293 Q 20.01646 287.60495 9.481482 296.03293 Q 0 306.5679 9.481482 317.10287 L 20.01646 306.5679 Q 12.641975 313.94238 10.53498 316.04938 Q 8.427983 318.15637 9.481482 317.10287 L 9.481482 317.10287 L 9.481482 317.10287 L 9.481482 317.10287 L 9.481482 317.10287 L 9.481482 318.15637 Q 9.481482 318.15637 10.53498 318.15637 Q 10.53498 318.15637 10.53498 318.15637 Q 11.588477 319.20987 13.695474 321.31686 Q 17.909466 324.47736 25.28395 328.69135 Q 41.08642 337.11935 70.584366 338.17285 L 70.584366 338.17285 Z" />
</svg>