<svg xmlns="http://www.w3.org/2000/svg" viewBox="0 0 640 480">
  <path d="M 16 0 L 336 0 L 16 0 L 336 0 Q 351 1 352 16 Q 351 31 336 32 L 336 128 L 336 128 Q 351 129 352 144 Q 351 159 336 160 L 16 160 L 16 160 Q 1 159 0 144 Q 1 129 16 128 L 16 32 L 16 32 Q 1 31 0 16 Q 1 1 16 0 L 16 0 Z M 304 32 L 240 32 L 304 32 L 240 32 L 240 128 L 240 128 L 304 128 L 304 128 L 304 32 L 304 32 Z M 208 32 L 144 32 L 208 32 L 144 32 L 144 128 L 144 128 L 208 128 L 208 128 L 208 32 L 208 32 Z M 112 32 L 48 32 L 112 32 L 48 32 L 48 128 L 48 128 L 112 128 L 112 128 L 112 32 L 112 32 Z M 384 104 Q 384 87 396 76 L 396 76 L 396 76 Q 407 64 424 64 L 483 64 L 483 64 Q 502 64 517 78 L 626 187 L 626 187 Q 640 201 640 221 L 640 336 L 640 336 Q 639 356 626 370 Q 612 383 592 384 L 576 384 L 576 384 Q 575 425 548 452 Q 521 479 480 480 Q 439 479 412 452 Q 385 425 384 384 L 256 384 L 256 384 Q 255 425 228 452 Q 201 479 160 480 Q 119 479 92 452 Q 65 425 64 384 L 48 384 L 48 384 Q 28 383 14 370 Q 1 356 0 336 L 0 240 L 0 240 Q 1 220 14 206 Q 28 193 48 192 L 384 192 L 384 192 L 384 104 L 384 104 Z M 416 192 L 585 192 L 416 192 L 585 192 L 494 101 L 494 101 Q 489 96 483 96 L 424 96 L 424 96 Q 417 97 416 104 L 416 192 L 416 192 Z M 608 224 L 48 224 L 608 224 L 48 224 Q 33 225 32 240 L 32 336 L 32 336 Q 33 351 48 352 L 70 352 L 70 352 Q 80 324 104 306 Q 128 289 160 288 Q 192 289 216 306 Q 240 324 251 352 L 389 352 L 389 352 Q 400 324 424 306 Q 448 289 480 288 Q 512 289 536 306 Q 560 324 570 352 L 592 352 L 592 352 Q 607 351 608 336 L 608 224 L 608 224 Z M 224 384 Q 223 348 192 329 Q 160 311 128 329 Q 97 348 96 384 Q 97 420 128 439 Q 160 457 192 439 Q 223 420 224 384 L 224 384 Z M 480 448 Q 516 447 535 416 Q 553 384 535 352 Q 516 321 480 320 Q 444 321 425 352 Q 407 384 425 416 Q 444 447 480 448 L 480 448 Z" />
</svg>