<svg xmlns="http://www.w3.org/2000/svg" viewBox="0 0 512 512">
  <path d="M 70.80851 25.41844 Q 58.09929 22.695036 53.560284 35.404255 L 5.4468083 203.34752 Q 0 224.22694 11.801418 240.56738 Q 23.602837 256 45.39007 256.9078 Q 59.00709 256 59.914894 242.38298 Q 59.00709 228.76596 45.39007 227.85815 Q 30.865248 226.04256 32.68085 211.51773 L 80.79433 42.666668 Q 83.51773 29.957447 70.80851 25.41844 L 70.80851 25.41844 Z M 263.26242 26.32624 Q 256 22.695036 248.7376 26.32624 L 256 39.03546 L 263.26242 26.32624 L 263.26242 26.32624 Z M 459.3475 391.26242 L 459.3475 391.26242 L 459.3475 391.26242 L 459.3475 391.26242 L 458.43973 391.26242 L 458.43973 390.3546 Q 458.43973 389.4468 458.43973 388.539 Q 457.53192 387.6312 457.53192 386.72342 Q 456.6241 382.1844 454.8085 373.10638 Q 450.2695 355.85815 444.8227 328.6241 Q 438.46808 300.48227 434.83688 270.5248 Q 430.29788 239.65958 430.29788 213.33333 Q 428.48227 173.39008 402.15604 140.70921 Q 376.73758 108.028366 344.96454 82.60993 Q 313.1915 57.19149 288.68085 41.758865 Q 276.87943 34.496452 270.5248 29.957447 Q 266.89362 28.141844 265.078 27.234043 L 263.26242 26.32624 L 263.26242 26.32624 L 263.26242 26.32624 L 263.26242 26.32624 L 263.26242 26.32624 Q 263.26242 25.41844 262.3546 28.141844 Q 261.4468 29.957447 256 39.03546 Q 251.461 29.957447 249.64539 28.141844 Q 248.7376 25.41844 248.7376 26.32624 L 248.7376 26.32624 L 248.7376 26.32624 L 248.7376 26.32624 L 248.7376 26.32624 L 246.92198 27.234043 Q 245.10638 28.141844 241.47517 29.957447 Q 235.12057 34.496452 223.31915 41.758865 Q 198.80852 57.19149 167.03546 82.60993 Q 135.2624 108.028366 109.84397 140.70921 Q 83.51773 174.29787 81.702126 213.33333 Q 81.702126 239.65958 77.163124 270.5248 Q 73.53191 300.48227 67.17731 328.6241 Q 61.730495 355.85815 57.19149 373.10638 Q 55.375885 382.1844 54.468086 386.72342 Q 53.560284 387.6312 53.560284 388.539 Q 53.560284 389.4468 53.560284 390.3546 L 53.560284 391.26242 L 52.65248 391.26242 L 52.65248 391.26242 L 52.65248 391.26242 L 52.65248 391.26242 L 52.65248 391.26242 Q 50.83688 402.15604 59.914894 407.60284 L 211.51773 487.48935 Q 215.14894 489.30496 219.68794 489.30496 Q 239.65958 489.30496 241.47517 469.33334 L 241.47517 283.23404 Q 239.65958 260.539 217.87234 255.0922 L 176.11348 246.92198 Q 168.85106 244.19858 168.85106 236.93617 Q 169.75887 228.76596 177.92908 227.85815 L 334.07092 227.85815 Q 342.24115 228.76596 343.14893 236.93617 Q 342.24115 244.19858 335.88654 246.92198 L 294.12766 255.0922 Q 272.34042 260.539 270.5248 283.23404 L 270.5248 469.33334 Q 272.34042 489.30496 292.31204 489.30496 Q 296.85107 489.30496 300.48227 487.48935 L 452.0851 407.60284 Q 461.16312 402.15604 459.3475 391.26242 L 459.3475 391.26242 L 459.3475 391.26242 Z M 427.57446 387.6312 L 299.57446 454.8085 L 299.57446 283.23404 L 341.33334 275.06384 Q 354.95035 272.34042 363.12057 261.4468 Q 372.19858 251.461 372.19858 236.93617 Q 372.19858 220.59575 361.30496 209.70213 Q 350.41135 198.80852 334.07092 198.80852 L 177.92908 198.80852 Q 161.58865 198.80852 150.69504 209.70213 Q 139.80142 220.59575 139.80142 236.93617 Q 139.80142 251.461 148.87943 261.4468 Q 157.04965 272.34042 170.66667 275.06384 L 212.42554 283.23404 L 212.42554 454.8085 L 84.42553 387.6312 Q 84.42553 384.9078 85.333336 381.27658 Q 85.333336 380.3688 86.241135 380.3688 Q 89.87234 362.21277 96.22695 334.07092 Q 101.67376 305.92908 106.21277 274.15604 Q 110.75177 242.38298 110.75177 213.33333 Q 110.75177 187.0071 132.539 157.95744 Q 155.23404 128.9078 185.19148 105.30496 Q 215.14894 80.79433 238.75177 66.2695 Q 249.64539 59.914894 256 56.283688 Q 262.3546 59.914894 273.24823 66.2695 Q 295.94327 80.79433 326.8085 105.30496 Q 356.76596 129.8156 379.461 157.95744 Q 400.34042 187.0071 401.24823 213.33333 Q 401.24823 242.38298 405.78723 274.15604 Q 410.32623 305.92908 415.77304 334.07092 Q 422.12766 362.21277 425.75885 380.3688 Q 426.66666 381.27658 426.66666 382.1844 Q 427.57446 384.9078 427.57446 387.6312 L 427.57446 387.6312 Z M 458.43973 35.404255 Q 453.9007 22.695036 441.1915 25.41844 Q 428.48227 29.957447 431.2057 42.666668 L 479.31915 211.51773 Q 481.13477 226.04256 466.60992 227.85815 Q 452.99292 228.76596 452.0851 242.38298 Q 452.99292 256 466.60992 256.9078 Q 488.39716 256 500.19858 240.56738 Q 512 224.22694 506.5532 203.34752 L 458.43973 35.404255 L 458.43973 35.404255 Z" />
</svg>