<svg xmlns="http://www.w3.org/2000/svg" viewBox="0 0 512 512">
  <path d="M 163.55556 93.333336 Q 163.55556 107.55556 174.22223 118.22222 L 256 200 L 337.77777 118.22222 Q 348.44446 107.55556 348.44446 93.333336 Q 348.44446 77.333336 337.77777 67.55556 Q 328 56.88889 312 56.88889 Q 297.77777 56.88889 287.1111 67.55556 L 265.77777 88 Q 256 96.888885 246.22223 88 L 224.88889 67.55556 Q 214.22223 56.88889 200 56.88889 Q 184 56.88889 174.22223 67.55556 Q 163.55556 77.333336 163.55556 93.333336 L 163.55556 93.333336 Z M 200 28.444445 Q 225.77777 28.444445 245.33333 47.11111 L 256 57.77778 L 266.66666 47.11111 Q 286.22223 28.444445 312 28.444445 Q 339.55554 29.333334 358.22223 47.11111 Q 376 65.77778 376.8889 93.333336 Q 376.8889 119.111115 358.22223 138.66667 L 265.77777 230.22223 Q 256 239.11111 246.22223 230.22223 L 153.77777 138.66667 Q 135.11111 119.111115 135.11111 93.333336 Q 136 65.77778 153.77777 47.11111 Q 172.44444 29.333334 200 28.444445 L 200 28.444445 Z M 134.22223 310.22223 Q 152 298.66666 173.33333 298.66666 L 305.77777 298.66666 Q 327.1111 299.55554 341.33334 312.8889 Q 354.66666 327.1111 355.55554 348.44446 Q 355.55554 360 351.1111 369.77777 L 355.55554 369.77777 L 440 320 Q 451.55554 312.8889 464 312.8889 L 465.77777 312.8889 Q 485.33334 313.77777 498.66666 326.22223 Q 511.1111 339.55554 512 359.1111 Q 511.1111 384 490.66666 398.22223 L 384.8889 467.55554 Q 360 483.55554 330.66666 483.55554 L 14.222222 483.55554 Q 0.8888889 482.66666 0 469.33334 Q 0.8888889 456 14.222222 455.1111 L 330.66666 455.1111 Q 351.1111 455.1111 368.8889 443.55554 L 475.55554 374.22223 Q 483.55554 368.8889 483.55554 359.1111 Q 481.77777 343.1111 465.77777 341.33334 L 464 341.33334 Q 458.66666 341.33334 454.22223 344 L 367.1111 396.44446 Q 363.55554 398.22223 360 398.22223 L 305.77777 398.22223 L 284.44446 398.22223 L 227.55556 398.22223 Q 214.22223 397.33334 213.33333 384 Q 214.22223 370.66666 227.55556 369.77777 L 284.44446 369.77777 L 305.77777 369.77777 Q 325.33334 368 327.1111 348.44446 Q 325.33334 328.8889 305.77777 327.1111 L 173.33333 327.1111 Q 160.88889 327.1111 150.22223 334.22223 L 79.111115 381.33334 L 75.55556 384 L 71.111115 384 L 14.222222 384 Q 0.8888889 383.1111 0 369.77777 Q 0.8888889 356.44446 14.222222 355.55554 L 66.666664 355.55554 L 134.22223 310.22223 L 134.22223 310.22223 Z" />
</svg>