<svg xmlns="http://www.w3.org/2000/svg" viewBox="0 0 640 288">
  <path d="M 416 32 Q 446 32 472 47 L 472 47 L 472 47 Q 498 62 513 88 Q 528 114 528 144 Q 528 174 513 200 Q 498 226 472 241 Q 446 256 416 256 Q 386 256 360 241 Q 334 226 319 200 Q 304 174 304 144 Q 304 114 319 88 Q 334 62 360 47 Q 386 32 416 32 L 416 32 Z M 523 240 Q 559 201 560 144 Q 559 87 523 47 Q 523 48 523 48 L 576 48 L 576 48 Q 590 48 599 57 Q 608 66 608 80 L 608 208 L 608 208 Q 608 222 599 231 Q 590 240 576 240 L 523 240 L 523 240 Q 523 240 523 240 Q 523 240 523 240 L 523 240 Z M 482 272 L 576 272 L 482 272 L 576 272 Q 603 271 621 253 Q 639 235 640 208 L 640 80 L 640 80 Q 639 53 621 35 Q 603 17 576 16 L 482 16 L 482 16 Q 452 0 416 0 Q 380 0 350 16 L 229 16 L 229 16 Q 224 16 220 17 Q 206 21 170 31 Q 134 42 93 53 Q 51 65 23 73 Q 1 81 0 104 L 0 184 L 0 184 Q 1 207 23 215 Q 51 223 93 235 Q 134 247 170 257 Q 206 267 220 271 Q 224 272 228 272 L 350 272 L 350 272 Q 380 288 416 288 Q 452 288 482 272 L 482 272 Z M 309 240 L 229 240 L 309 240 L 229 240 Q 224 239 215 236 Q 194 230 160 221 Q 126 211 91 201 Q 56 191 32 184 L 32 104 L 32 104 Q 56 97 91 87 Q 126 77 160 67 Q 194 58 215 52 Q 224 49 229 48 L 309 48 L 309 48 Q 273 87 272 144 Q 273 201 309 240 L 309 240 Z M 365 93 Q 355 104 365 115 L 393 144 L 393 144 L 365 173 L 365 173 Q 355 184 365 195 Q 376 205 387 195 L 416 167 L 416 167 L 445 195 L 445 195 Q 456 205 467 195 Q 477 184 467 173 L 439 144 L 439 144 L 467 115 L 467 115 Q 477 104 467 93 Q 456 83 445 93 L 416 121 L 416 121 L 387 93 L 387 93 Q 376 83 365 93 L 365 93 Z" />
</svg>