<svg xmlns="http://www.w3.org/2000/svg" viewBox="0 0 640 512">
  <path d="M 128 128 Q 128 102 141 80 L 141 80 L 141 80 Q 154 58 176 45 Q 199 32 224 32 Q 249 32 272 45 Q 294 58 307 80 Q 320 102 320 128 Q 320 154 307 176 Q 294 198 272 211 Q 249 224 224 224 Q 199 224 176 211 Q 154 198 141 176 Q 128 154 128 128 L 128 128 Z M 352 128 Q 352 93 335 64 L 335 64 L 335 64 Q 318 35 288 17 Q 258 0 224 0 Q 190 0 160 17 Q 130 35 113 64 Q 96 93 96 128 Q 96 163 113 192 Q 130 221 160 239 Q 190 256 224 256 Q 258 256 288 239 Q 318 221 335 192 Q 352 163 352 128 L 352 128 Z M 32 480 Q 34 419 76 378 L 76 378 L 76 378 Q 117 338 178 336 L 270 336 L 270 336 Q 305 336 334 351 Q 364 366 384 391 L 384 352 L 384 352 Q 384 349 384 346 Q 336 305 270 304 L 178 304 L 178 304 Q 103 306 52 356 Q 2 407 0 482 Q 0 495 9 503 Q 17 512 30 512 L 393 512 L 393 512 Q 384 498 384 480 L 32 480 L 32 480 Z M 528 224 Q 548 225 562 238 L 562 238 L 562 238 Q 575 252 576 272 L 576 320 L 576 320 L 480 320 L 480 320 L 480 272 L 480 272 Q 481 252 494 238 Q 508 225 528 224 L 528 224 Z M 448 272 L 448 320 L 448 272 L 448 320 Q 434 320 425 329 Q 416 338 416 352 L 416 480 L 416 480 Q 416 494 425 503 Q 434 512 448 512 L 608 512 L 608 512 Q 622 512 631 503 Q 640 494 640 480 L 640 352 L 640 352 Q 640 338 631 329 Q 622 320 608 320 L 608 272 L 608 272 Q 607 238 585 215 Q 562 193 528 192 Q 494 193 471 215 Q 449 238 448 272 L 448 272 Z M 448 352 L 608 352 L 448 352 L 608 352 L 608 480 L 608 480 L 448 480 L 448 480 L 448 352 L 448 352 Z" />
</svg>