<svg xmlns="http://www.w3.org/2000/svg" viewBox="0 0 448 512">
  <path d="M 224 32 Q 251 33 269 51 L 269 51 L 269 51 Q 287 69 288 96 L 288 128 L 288 128 L 160 128 L 160 128 L 160 96 L 160 96 Q 161 69 179 51 Q 197 33 224 32 L 224 32 Z M 128 96 L 128 128 L 128 96 L 128 128 L 48 128 L 48 128 Q 28 129 14 142 Q 1 156 0 176 L 0 416 L 0 416 Q 1 457 28 484 Q 55 511 96 512 L 352 512 L 352 512 Q 393 511 420 484 Q 447 457 448 416 L 448 176 L 448 176 Q 447 156 434 142 Q 420 129 400 128 L 320 128 L 320 128 L 320 96 L 320 96 Q 319 55 292 28 Q 265 1 224 0 Q 183 1 156 28 Q 129 55 128 96 L 128 96 Z M 48 160 L 144 160 L 48 160 L 400 160 Q 415 161 416 176 L 416 416 L 416 416 Q 415 443 397 461 Q 379 479 352 480 L 96 480 L 96 480 Q 69 479 51 461 Q 33 443 32 416 L 32 176 L 32 176 Q 33 161 48 160 L 48 160 Z M 144 304 Q 129 305 128 320 Q 129 335 144 336 L 304 336 L 304 336 Q 319 335 320 320 Q 319 305 304 304 L 144 304 L 144 304 Z" />
</svg>