<svg xmlns="http://www.w3.org/2000/svg" viewBox="0 0 512 512">
  <path d="M 497.77777 200.88889 L 501.33334 215.11111 Q 511.1111 211.55556 512 200.88889 L 497.77777 200.88889 L 497.77777 200.88889 Z M 497.77777 311.1111 L 512 311.1111 Q 511.1111 300.44446 501.33334 297.77777 L 497.77777 311.1111 L 497.77777 311.1111 Z M 14.222222 311.1111 L 10.666667 297.77777 Q 0.8888889 300.44446 0 311.1111 L 14.222222 311.1111 L 14.222222 311.1111 Z M 14.222222 200.88889 L 0 200.88889 Q 0.8888889 211.55556 10.666667 215.11111 L 14.222222 200.88889 L 14.222222 200.88889 Z M 56.88889 85.333336 Q 32.88889 86.22222 16.88889 102.22222 L 16.88889 102.22222 Q 0.8888889 118.22222 0 142.22223 L 28.444445 142.22223 Q 28.444445 129.77777 36.444443 121.77778 Q 44.444443 113.77778 56.88889 113.77778 L 56.88889 85.333336 L 56.88889 85.333336 Z M 455.1111 85.333336 L 56.88889 85.333336 L 56.88889 113.77778 L 455.1111 113.77778 L 455.1111 85.333336 L 455.1111 85.333336 Z M 512 142.22223 Q 511.1111 118.22222 495.1111 102.22222 L 495.1111 102.22222 Q 479.1111 86.22222 455.1111 85.333336 L 455.1111 113.77778 Q 467.55554 113.77778 475.55554 121.77778 Q 483.55554 129.77777 483.55554 142.22223 L 512 142.22223 L 512 142.22223 Z M 512 200.88889 L 512 142.22223 L 483.55554 142.22223 L 483.55554 200.88889 L 512 200.88889 L 512 200.88889 Z M 469.33334 256 Q 469.33334 240.88889 478.22223 229.33333 L 478.22223 229.33333 Q 487.1111 218.66667 501.33334 215.11111 L 494.22223 187.55556 Q 471.1111 193.77777 456 212.44444 Q 441.77777 231.11111 440.8889 256 L 469.33334 256 L 469.33334 256 Z M 501.33334 297.77777 Q 487.1111 293.33334 478.22223 282.66666 L 478.22223 282.66666 Q 469.33334 271.1111 469.33334 256 L 440.8889 256 Q 441.77777 280.8889 456 299.55554 Q 471.1111 318.22223 494.22223 325.33334 L 501.33334 297.77777 L 501.33334 297.77777 Z M 512 369.77777 L 512 311.1111 L 483.55554 311.1111 L 483.55554 369.77777 L 512 369.77777 L 512 369.77777 Z M 455.1111 426.66666 Q 479.1111 425.77777 495.1111 409.77777 L 495.1111 409.77777 Q 511.1111 393.77777 512 369.77777 L 483.55554 369.77777 Q 483.55554 382.22223 475.55554 390.22223 Q 467.55554 398.22223 455.1111 398.22223 L 455.1111 426.66666 L 455.1111 426.66666 Z M 56.88889 426.66666 L 455.1111 426.66666 L 455.1111 398.22223 L 56.88889 398.22223 L 56.88889 426.66666 L 56.88889 426.66666 Z M 0 369.77777 Q 0.8888889 393.77777 16.88889 409.77777 L 16.88889 409.77777 Q 32.88889 425.77777 56.88889 426.66666 L 56.88889 398.22223 Q 44.444443 398.22223 36.444443 390.22223 Q 28.444445 382.22223 28.444445 369.77777 L 0 369.77777 L 0 369.77777 Z M 0 311.1111 L 0 369.77777 L 28.444445 369.77777 L 28.444445 311.1111 L 0 311.1111 L 0 311.1111 Z M 42.666668 256 Q 42.666668 271.1111 33.77778 282.66666 L 33.77778 282.66666 Q 24.88889 293.33334 10.666667 297.77777 L 17.777779 325.33334 Q 40.88889 318.22223 56 299.55554 Q 70.22222 280.8889 71.111115 256 L 42.666668 256 L 42.666668 256 Z M 10.666667 215.11111 Q 24.88889 218.66667 33.77778 229.33333 L 33.77778 229.33333 Q 42.666668 240.88889 42.666668 256 L 71.111115 256 Q 70.22222 231.11111 56 212.44444 Q 40.88889 193.77777 17.777779 187.55556 L 10.666667 215.11111 L 10.666667 215.11111 Z M 0 142.22223 L 0 200.88889 L 28.444445 200.88889 L 28.444445 142.22223 L 0 142.22223 L 0 142.22223 Z" />
</svg>