<svg xmlns="http://www.w3.org/2000/svg" viewBox="0 0 512 512">
  <path d="M 64 496 Q 65 511 80 512 L 432 512 Q 447 511 448 496 Q 447 481 432 480 L 416 480 L 416 435 Q 416 387 386 348 L 316 256 L 386 164 Q 416 125 416 77 L 416 32 L 432 32 Q 447 31 448 16 Q 447 1 432 0 L 80 0 Q 65 1 64 16 Q 65 31 80 32 L 96 32 L 96 77 Q 96 125 126 164 L 196 256 L 126 348 Q 96 387 96 435 L 96 480 L 80 480 Q 65 481 64 496 L 64 496 Z M 128 480 L 128 435 Q 128 397 151 367 L 229 266 Q 235 256 229 246 L 151 145 Q 128 115 128 77 L 128 32 L 384 32 L 384 77 Q 384 115 361 145 L 283 246 Q 277 256 283 266 L 361 367 Q 384 397 384 435 L 384 480 L 128 480 L 128 480 Z M 269 201 L 349 89 Q 354 81 350 73 Q 346 64 336 64 L 256 64 L 176 64 Q 166 64 162 73 Q 158 81 163 89 L 243 201 Q 248 208 256 208 Q 264 208 269 201 L 269 201 Z M 256 96 L 305 96 L 256 165 L 207 96 L 256 96 L 256 96 Z" />
</svg>