<svg xmlns="http://www.w3.org/2000/svg" viewBox="0 0 512 512">
  <path d="M 51.2 89.6 L 307.2 89.6 Q 318.4 89.6 325.6 96.8 Q 332.8 104 332.8 115.2 L 332.8 148 Q 344.8 140 358.4 140.8 L 358.4 115.2 Q 357.6 93.6 343.2 79.2 Q 328.8 64.8 307.2 64 L 51.2 64 Q 29.6 64.8 15.2 79.2 Q 0.8 93.6 0 115.2 L 0 371.2 Q 0.8 392.8 15.2 407.2 Q 29.6 421.6 51.2 422.4 L 270.4 422.4 Q 259.2 410.4 251.2 396.8 L 51.2 396.8 Q 40 396.8 32.8 389.6 Q 25.6 382.4 25.6 371.2 L 25.6 115.2 Q 25.6 104 32.8 96.8 Q 40 89.6 51.2 89.6 L 51.2 89.6 Z M 102.4 153.6 Q 101.6 141.6 89.6 140.8 Q 77.6 141.6 76.8 153.6 L 76.8 256 Q 77.6 268 89.6 268.8 Q 101.6 268 102.4 256 L 102.4 153.6 L 102.4 153.6 Z M 153.6 153.6 Q 152.8 141.6 140.8 140.8 Q 128.8 141.6 128 153.6 L 128 256 Q 128.8 268 140.8 268.8 Q 152.8 268 153.6 256 L 153.6 153.6 L 153.6 153.6 Z M 407.2 240.8 Q 419.2 240.8 427.2 231.2 Q 432 225.6 436.8 220 Q 456.8 242.4 469.6 268.8 Q 486.4 302.4 486.4 320 Q 485.6 363.2 456.8 392 Q 428 420.8 384 422.4 Q 340 420.8 311.2 392 Q 282.4 363.2 281.6 320 Q 281.6 296.8 304 259.2 Q 323.2 228 355.2 196.8 Q 372 213.6 387.2 232 Q 395.2 240.8 407.2 240.8 L 407.2 240.8 Z M 390.4 196 Q 376.8 182.4 363.2 169.6 Q 359.2 166.4 355.2 166.4 Q 350.4 166.4 347.2 169.6 Q 306.4 205.6 281.6 245.6 Q 256.8 286.4 256 320 Q 257.6 374.4 292.8 410.4 Q 328.8 446.4 384 448 Q 438.4 446.4 474.4 410.4 Q 510.4 374.4 512 320 Q 512 307.2 506.4 290.4 Q 501.6 273.6 492.8 256.8 Q 474.4 220.8 444 192 Q 436 185.6 428 192 Q 426.4 193.6 424 196 Q 424 196 424 196 Q 415.2 205.6 407.2 215.2 Q 399.2 205.6 389.6 196 L 390.4 196 Z M 356 243.2 Q 349.6 243.2 346.4 248 Q 328 269.6 317.6 286.4 Q 307.2 303.2 307.2 321.6 Q 308 356.8 330.4 376.8 Q 352.8 396.8 384.8 396.8 Q 410.4 396.8 431.2 382.4 L 431.2 382.4 L 431.2 382.4 Q 453.6 365.6 459.2 340 Q 464 313.6 451.2 288.8 L 451.2 288.8 Q 448.8 284 444.8 277.6 Q 440.8 272.8 435.2 272.8 Q 428.8 272.8 424.8 276.8 L 406.4 299.2 L 392 280.8 Q 385.6 272.8 380 265.6 Q 368.8 251.2 366.4 248 Q 362.4 243.2 356 243.2 L 356 243.2 Z M 432 308 Q 436.8 323.2 432.8 337.6 L 432.8 337.6 Q 428.8 352.8 416.8 361.6 Q 402.4 371.2 384.8 371.2 Q 361.6 370.4 347.2 358.4 Q 333.6 345.6 332.8 321.6 Q 332 312 340 299.2 Q 345.6 289.6 356 276.8 L 372 296.8 L 388 317.6 L 393.6 324.8 L 395.2 326.4 L 395.2 327.2 L 395.2 327.2 L 395.2 327.2 L 395.2 327.2 L 395.2 327.2 L 405.6 319.2 L 395.2 327.2 Q 399.2 332 404.8 332 Q 411.2 332 415.2 327.2 L 432 308 L 432 308 Z" />
</svg>