<svg xmlns="http://www.w3.org/2000/svg" viewBox="0 0 512 512">
  <path d="M 279.2 126.4 Q 267.2 125.6 259.2 116.8 Q 244 98.4 227.2 81.6 Q 195.2 112.8 176 144 Q 153.6 181.6 153.6 204.8 Q 154.4 248 183.2 276.8 Q 212 306.4 256 307.2 Q 300 306.4 328.8 276.8 Q 357.6 248 358.4 204.8 Q 358.4 187.2 341.6 153.6 Q 328.8 127.2 308.8 104.8 Q 304 110.4 299.2 116 Q 291.2 125.6 279.2 125.6 L 279.2 126.4 Z M 262.4 80.8 Q 271.2 90.4 279.2 100.8 Q 287.2 90.4 296 80.8 Q 298.4 78.4 300 76.8 Q 308 70.4 316 76.8 Q 346.4 105.6 364.8 141.6 Q 373.6 159.2 378.4 176 Q 384 192.8 384 204.8 Q 382.4 259.2 346.4 295.2 Q 310.4 331.2 256 332.8 Q 200.8 331.2 164.8 295.2 Q 129.6 259.2 128 204.8 Q 128.8 171.2 153.6 131.2 Q 178.4 91.2 219.2 54.4 Q 222.4 51.2 227.2 51.2 Q 231.2 51.2 235.2 54.4 Q 248.8 67.2 262.4 80.8 L 262.4 80.8 Z M 228 128 Q 234.4 128 238.4 132.8 Q 240.8 136 252 150.4 Q 257.6 157.6 264 166.4 L 278.4 184 L 296.8 162.4 Q 300.8 157.6 307.2 157.6 Q 312.8 157.6 316.8 162.4 Q 320.8 168.8 323.2 173.6 Q 323.2 173.6 323.2 174.4 L 323.2 174.4 L 323.2 174.4 Q 336 198.4 331.2 224.8 Q 325.6 250.4 303.2 267.2 L 303.2 267.2 L 303.2 267.2 Q 282.4 281.6 256.8 281.6 Q 224.8 281.6 202.4 261.6 Q 180 241.6 179.2 206.4 Q 179.2 188 189.6 171.2 Q 200 154.4 218.4 132.8 Q 221.6 128 228 128 L 228 128 Z M 304 192.8 L 287.2 212 Q 283.2 216.8 277.6 216.8 Q 271.2 216.8 268 212 L 277.6 204 L 267.2 212 L 267.2 212 L 267.2 212 L 267.2 212 L 267.2 212 L 267.2 211.2 L 265.6 209.6 L 260 202.4 L 244 181.6 L 228 161.6 Q 217.6 174.4 212 184 Q 204.8 196.8 204.8 206.4 Q 205.6 230.4 220 243.2 Q 233.6 256 256.8 256 Q 274.4 256 288.8 246.4 Q 300.8 237.6 304.8 222.4 Q 308.8 208 304 192.8 L 304 192.8 Z M 25.6 268.8 Q 26.4 256.8 38.4 256 L 89.6 256 Q 101.6 256.8 102.4 268.8 Q 101.6 280.8 89.6 281.6 L 51.2 281.6 L 51.2 358.4 L 460.8 358.4 L 460.8 281.6 L 422.4 281.6 Q 410.4 280.8 409.6 268.8 Q 410.4 256.8 422.4 256 L 473.6 256 Q 485.6 256.8 486.4 268.8 L 486.4 360.8 Q 510.4 370.4 512 396.8 L 512 422.4 Q 511.2 438.4 500.8 449.6 Q 489.6 460 473.6 460.8 L 38.4 460.8 Q 22.4 460 11.2 449.6 Q 0.8 438.4 0 422.4 L 0 396.8 Q 1.6 370.4 25.6 360.8 L 25.6 268.8 L 25.6 268.8 Z M 25.6 396.8 L 25.6 422.4 Q 26.4 434.4 38.4 435.2 L 473.6 435.2 Q 485.6 434.4 486.4 422.4 L 486.4 396.8 Q 485.6 384.8 473.6 384 L 38.4 384 Q 26.4 384.8 25.6 396.8 L 25.6 396.8 Z M 153.6 390.4 Q 171.2 392 172.8 409.6 Q 171.2 427.2 153.6 428.8 Q 136 427.2 134.4 409.6 Q 136 392 153.6 390.4 L 153.6 390.4 Z M 236.8 409.6 Q 238.4 392 256 390.4 Q 273.6 392 275.2 409.6 Q 273.6 427.2 256 428.8 Q 238.4 427.2 236.8 409.6 L 236.8 409.6 Z M 358.4 390.4 Q 376 392 377.6 409.6 Q 376 427.2 358.4 428.8 Q 340.8 427.2 339.2 409.6 Q 340.8 392 358.4 390.4 L 358.4 390.4 Z" />
</svg>