<svg xmlns="http://www.w3.org/2000/svg" viewBox="0 0 642 480">
  <path d="M 193 160 L 193 163 L 193 160 L 193 163 Q 193 175 195 186 Q 195 186 195 186 Q 195 186 195 186 L 211 276 L 211 276 L 223 349 L 223 349 Q 225 359 225 368 L 225 372 L 225 372 Q 225 398 214 420 L 238 406 L 238 406 Q 277 384 321 384 Q 365 384 404 406 L 428 420 L 428 420 Q 417 398 417 372 L 417 368 L 417 368 Q 417 359 419 349 L 432 276 L 432 276 L 447 186 L 447 186 Q 449 175 449 163 L 449 160 L 449 160 Q 448 106 412 70 Q 375 33 321 32 Q 267 33 230 70 Q 194 106 193 160 L 193 160 Z M 453 336 L 450 355 L 453 336 L 450 355 Q 449 361 449 368 L 449 372 L 449 372 Q 450 404 471 425 Q 491 446 523 448 Q 523 448 524 448 Q 525 448 525 448 Q 553 447 573 430 Q 594 413 599 386 L 609 333 L 609 333 Q 613 319 628 320 Q 642 324 641 339 L 631 392 L 631 392 Q 623 431 594 455 Q 565 479 526 480 Q 526 480 526 480 L 525 480 L 525 480 L 525 480 L 525 480 Q 524 480 522 480 Q 467 479 419 452 L 388 434 L 388 434 Q 357 416 321 416 Q 285 416 254 434 L 223 452 L 223 452 Q 175 479 120 480 Q 119 480 117 480 L 117 480 L 117 480 L 116 480 L 116 480 Q 116 480 116 480 Q 116 480 116 480 Q 77 479 48 455 Q 19 431 11 392 L 1 339 L 1 339 Q 0 324 14 320 Q 29 319 33 333 L 43 386 L 43 386 Q 48 413 69 430 Q 89 447 117 448 Q 117 448 118 448 Q 119 448 119 448 Q 151 446 172 425 Q 192 404 193 372 L 193 368 L 193 368 Q 193 361 192 354 L 189 336 L 189 336 Q 171 351 146 352 Q 122 351 105 337 Q 87 322 82 299 L 78 274 L 78 274 Q 73 252 56 238 Q 40 224 17 224 Q 2 223 1 208 Q 2 193 17 192 Q 51 193 77 213 Q 102 234 109 268 L 114 293 L 114 293 Q 120 318 146 320 Q 162 320 172 308 Q 181 297 179 281 Q 179 281 179 281 Q 179 281 179 281 L 163 191 L 163 191 L 163 190 L 163 190 Q 161 178 161 165 L 161 163 L 161 163 L 161 160 L 161 160 Q 163 92 208 47 Q 253 2 321 0 Q 389 2 434 47 Q 479 92 481 160 L 481 163 L 481 163 L 481 165 L 481 165 Q 481 177 479 190 L 479 191 L 479 191 L 463 281 L 463 281 Q 463 281 463 281 Q 463 281 463 281 Q 461 297 470 308 Q 480 319 496 320 Q 522 318 529 293 L 533 268 L 533 268 Q 540 234 566 213 Q 591 193 625 192 Q 640 193 641 208 Q 640 223 625 224 Q 602 224 586 238 Q 569 252 565 274 L 560 299 L 560 299 Q 555 322 537 337 Q 520 352 496 352 Q 471 352 453 336 L 453 336 Z M 273 256 Q 288 257 289 272 Q 288 287 273 288 Q 258 287 257 272 Q 258 257 273 256 L 273 256 Z M 353 272 Q 354 257 369 256 Q 384 257 385 272 Q 384 287 369 288 Q 354 287 353 272 L 353 272 Z" />
</svg>