<svg xmlns="http://www.w3.org/2000/svg" viewBox="0 0 448 448">
  <path d="M 411 179 Q 394 114 344 74 L 344 74 L 344 74 Q 293 33 224 32 Q 170 33 127 58 Q 83 84 58 128 L 112 128 L 112 128 Q 127 129 128 144 Q 127 159 112 160 L 31 160 L 16 160 Q 1 159 0 144 L 0 48 L 0 48 Q 1 33 16 32 Q 31 33 32 48 L 32 109 L 32 109 Q 62 59 112 30 Q 162 1 224 0 Q 305 2 365 50 Q 424 98 442 174 Q 444 190 427 192 Q 414 191 411 179 L 411 179 Z M 37 269 Q 54 334 104 374 L 104 374 L 104 374 Q 155 415 224 416 Q 278 415 321 390 Q 365 364 390 320 L 336 320 L 336 320 Q 321 319 320 304 Q 321 289 336 288 L 417 288 L 432 288 Q 446 289 448 304 L 448 400 L 448 400 Q 446 415 432 416 Q 417 415 416 400 L 416 340 L 416 340 Q 386 389 336 418 Q 286 447 224 448 Q 143 446 84 398 Q 24 350 6 274 Q 4 258 21 256 Q 34 257 38 269 L 37 269 Z" />
</svg>