<svg xmlns="http://www.w3.org/2000/svg" viewBox="0 0 512 512">
  <path d="M 262 34 Q 256 30 250 34 L 176 108 L 176 108 L 256 188 L 256 188 L 336 108 L 336 108 L 358 131 L 358 131 L 279 211 L 279 211 Q 269 220 256 220 Q 243 220 233 211 L 154 131 L 154 131 Q 144 121 144 108 Q 144 96 154 86 L 228 12 L 228 12 Q 240 0 256 0 Q 272 0 284 12 L 359 86 L 359 86 Q 368 96 368 108 Q 368 121 359 131 L 336 108 L 336 108 L 262 34 L 262 34 Z M 211 233 Q 220 243 220 256 L 220 256 L 220 256 Q 220 269 211 279 L 131 358 L 131 358 Q 121 368 108 368 Q 96 368 86 358 L 12 284 L 12 284 Q 0 272 0 256 Q 0 240 12 228 L 86 154 L 86 154 Q 96 144 108 144 Q 121 144 131 154 L 211 233 L 211 233 Z M 108 176 L 34 250 L 108 176 L 34 250 Q 30 256 34 262 L 108 336 L 108 336 L 188 256 L 188 256 L 108 176 L 108 176 Z M 381 154 Q 391 144 404 144 L 404 144 L 404 144 Q 416 144 426 154 L 500 228 L 500 228 Q 512 240 512 256 Q 512 272 500 284 L 426 359 L 426 359 Q 416 368 404 368 Q 391 368 381 359 L 301 279 L 301 279 Q 292 269 292 256 Q 292 243 301 233 L 381 154 L 381 154 Z M 233 301 Q 243 292 256 292 L 256 292 L 256 292 Q 269 292 279 301 L 358 381 L 358 381 Q 368 391 368 404 Q 368 416 358 426 L 284 500 L 284 500 Q 272 512 256 512 Q 240 512 228 500 L 153 426 L 153 426 Q 144 416 144 404 Q 144 391 153 381 L 233 301 L 233 301 Z M 176 404 L 250 478 L 176 404 L 250 478 Q 256 482 262 478 L 336 404 L 336 404 L 256 324 L 256 324 L 176 404 L 176 404 Z M 404 336 L 478 262 L 404 336 L 478 262 Q 482 256 478 250 L 404 176 L 404 176 L 324 256 L 324 256 L 404 336 L 404 336 Z" />
</svg>