<svg xmlns="http://www.w3.org/2000/svg" viewBox="0 0 644 520">
  <path d="M 206 472 Q 219 489 238 481 L 239 481 L 239 481 L 431 370 L 431 370 L 432 369 L 432 369 Q 449 357 440 337 L 273 48 L 273 48 Q 260 30 240 39 L 48 150 L 48 150 Q 30 163 39 183 L 39 183 L 39 183 L 206 472 L 206 472 L 206 472 L 206 472 Z M 179 489 Q 179 488 179 488 L 179 488 L 179 488 Q 178 488 178 488 L 12 199 L 12 199 Q 11 199 11 199 Q 11 199 11 198 Q 0 178 6 156 Q 12 135 32 123 L 225 12 L 225 12 Q 245 0 267 6 Q 288 12 301 32 L 468 321 L 468 321 Q 479 342 473 363 Q 468 385 448 397 Q 448 397 447 397 Q 447 397 447 397 L 255 508 L 255 508 Q 255 508 254 509 Q 254 509 254 509 Q 234 520 212 514 Q 191 509 179 489 L 179 489 Z M 328 503 L 361 484 L 328 503 L 361 484 Q 363 484 364 484 L 588 484 L 588 484 Q 610 482 612 460 L 612 124 L 612 124 Q 610 102 588 100 L 377 100 L 377 100 L 359 68 L 359 68 Q 361 68 364 68 L 588 68 L 588 68 Q 612 69 628 84 Q 643 100 644 124 L 644 460 L 644 460 Q 643 484 628 500 Q 612 515 588 516 L 364 516 L 364 516 Q 343 516 328 503 L 328 503 Z" />
</svg>