<svg xmlns="http://www.w3.org/2000/svg" viewBox="0 0 512 512">
  <path d="M 497.42694 8.743833 Q 507.1423 19.43074 497.42694 30.117647 L 350.72485 176.81973 L 379.87097 205.96585 Q 396.3871 223.4535 396.3871 244.82733 Q 396.3871 266.20114 379.87097 283.6888 L 177.79128 485.7685 Q 162.24667 501.31308 138.9298 501.31308 Q 120.47059 500.34155 93.267555 492.56927 Q 66.064514 485.7685 42.747627 463.42316 Q 20.402277 440.10626 13.601518 412.90323 L 42.747627 404.1594 Q 49.548386 425.5332 64.121445 441.0778 Q 64.121445 441.0778 65.09298 442.04935 Q 65.09298 442.04935 65.09298 442.04935 Q 80.63757 456.6224 102.01138 463.42316 Q 125.32827 469.25238 140.87286 470.2239 Q 148.64516 470.2239 155.44592 463.42316 L 305.06262 314.77798 L 238.02657 314.77798 Q 218.59583 313.80646 204.99431 301.17648 Q 192.36432 287.57495 191.39279 268.14423 L 191.39279 201.10815 L 42.747627 350.72485 Q 35.94687 357.5256 35.94687 365.2979 Q 36.918407 380.8425 42.747627 404.1594 L 13.601518 412.90323 Q 5.829222 385.7002 5.829222 367.241 Q 4.857685 343.9241 20.402277 328.37952 L 222.48198 126.29981 Q 239.96964 109.78368 261.34344 109.78368 Q 282.71725 109.78368 300.20493 126.29981 L 329.35104 155.44592 L 476.05313 8.743833 Q 486.74005 0 497.42694 8.743833 L 497.42694 8.743833 Z M 222.48198 170.01898 L 222.48198 268.14423 Q 223.4535 282.71725 238.02657 283.6888 L 336.1518 283.6888 L 358.49716 261.34344 Q 372.09866 244.82733 358.49716 228.3112 L 277.8596 147.67363 Q 261.34344 134.07211 244.82733 147.67363 L 222.48198 170.01898 L 222.48198 170.01898 Z M 471.19543 423.59012 Q 470.2239 397.35864 447.87857 382.78558 Q 424.56168 371.12714 401.24478 382.78558 Q 378.89944 397.35864 377.9279 423.59012 Q 378.89944 449.82162 401.24478 464.39468 Q 424.56168 476.05313 447.87857 464.39468 Q 470.2239 449.82162 471.19543 423.59012 L 471.19543 423.59012 Z M 346.8387 423.59012 Q 347.81024 379.87097 385.7002 356.55408 Q 424.56168 335.18027 463.42316 356.55408 Q 501.31308 379.87097 502.28464 423.59012 Q 501.31308 467.3093 463.42316 490.6262 Q 424.56168 512 385.7002 490.6262 Q 347.81024 467.3093 346.8387 423.59012 L 346.8387 423.59012 Z" />
</svg>