<svg xmlns="http://www.w3.org/2000/svg" viewBox="0 0 518 514">
  <path d="M 486 448 Q 486 462 477 471 L 477 471 L 477 471 Q 468 480 454 480 L 230 480 L 230 480 L 230 496 L 230 496 Q 230 504 227 512 L 454 512 L 454 512 Q 481 511 499 493 Q 517 475 518 448 L 518 164 L 518 164 Q 518 144 504 130 L 388 14 L 388 14 Q 374 0 354 0 L 198 0 L 198 0 Q 171 1 153 19 Q 135 37 134 64 L 134 135 L 134 135 L 134 135 L 134 135 Q 135 135 135 134 Q 138 133 141 132 Q 153 127 166 128 L 166 64 L 166 64 Q 166 50 175 41 Q 184 32 198 32 L 326 32 L 326 32 L 326 144 L 326 144 Q 327 164 340 178 Q 354 191 374 192 L 486 192 L 486 192 L 486 448 L 486 448 Z M 486 160 L 374 160 L 486 160 L 374 160 Q 359 159 358 144 L 358 33 L 358 33 Q 362 34 365 37 L 481 153 L 481 153 Q 484 156 486 160 L 486 160 Z M 256 288 Q 255 288 259 278 Q 268 252 248 234 Q 239 227 240 227 Q 239 228 237 216 Q 232 190 206 185 Q 194 183 195 183 Q 195 183 188 174 Q 170 154 145 163 Q 134 167 134 166 Q 134 167 124 163 Q 98 154 81 174 Q 73 183 73 183 Q 74 183 62 185 Q 36 190 31 216 Q 29 228 29 227 Q 29 227 20 234 Q 0 252 9 278 Q 13 288 12 288 Q 12 288 12 288 Q 12 288 12 288 Q 13 288 9 298 Q 0 324 20 342 Q 29 349 29 349 Q 29 348 31 360 Q 36 386 62 391 Q 68 392 70 393 L 70 496 L 70 496 Q 70 505 79 510 Q 87 514 95 509 L 134 483 L 134 483 L 173 509 L 173 509 Q 181 514 190 510 Q 198 505 198 496 L 198 393 L 198 393 Q 200 392 206 391 Q 232 386 237 360 Q 239 348 239 349 Q 239 349 248 342 Q 268 324 259 298 Q 255 288 256 288 Q 256 288 256 288 Q 256 288 256 288 L 256 288 Z M 102 466 L 102 415 L 102 466 L 102 415 Q 113 417 124 413 Q 134 409 134 410 Q 134 409 144 413 Q 155 417 166 415 L 166 466 L 166 466 L 143 451 L 143 451 Q 134 445 125 451 L 102 466 L 102 466 Z M 44 288 Q 44 288 44 288 L 44 288 L 44 288 Q 44 288 44 288 Q 43 276 38 266 Q 37 262 40 260 Q 50 253 56 243 Q 62 232 63 221 Q 63 217 67 217 Q 78 216 89 210 Q 99 204 105 194 Q 106 194 106 194 Q 108 191 112 192 Q 122 197 134 198 Q 146 197 157 192 Q 160 191 162 194 Q 169 204 179 210 Q 190 216 201 217 Q 205 217 206 221 Q 206 232 212 243 Q 218 253 228 259 Q 228 260 228 260 Q 231 262 230 266 Q 225 276 224 288 Q 224 288 224 288 Q 224 288 224 288 Q 225 300 230 311 Q 231 314 228 316 Q 218 323 212 333 Q 206 344 206 355 Q 205 359 201 360 Q 190 360 179 366 Q 169 372 163 382 Q 162 382 162 382 Q 160 385 157 384 Q 146 379 134 378 Q 122 379 112 384 Q 108 385 106 382 Q 99 372 89 366 Q 78 360 67 360 Q 63 359 62 355 Q 62 344 56 333 Q 50 323 40 317 Q 40 316 40 316 Q 37 314 38 311 Q 43 300 44 288 L 44 288 Z" />
</svg>