<svg xmlns="http://www.w3.org/2000/svg" viewBox="0 0 640 384">
  <path d="M 93 51 Q 72 71 58 95 Q 34 89 32 64 Q 32 50 41 41 Q 50 32 64 32 Q 85 33 93 51 L 93 51 Z M 0 64 Q 0 86 12 102 L 12 102 L 12 102 Q 25 118 44 125 Q 32 156 32 192 Q 34 274 88 328 Q 142 382 224 384 Q 273 384 314 362 Q 354 340 381 303 L 529 380 L 529 380 Q 536 384 544 384 L 546 384 L 546 384 Q 560 384 570 374 L 633 304 L 633 304 Q 640 296 640 285 Q 640 272 630 264 L 503 163 L 503 163 Q 494 157 484 162 L 465 174 L 465 174 Q 448 183 432 172 Q 417 160 421 141 L 428 117 L 428 117 Q 430 107 422 100 L 352 45 L 352 45 Q 306 9 249 2 Q 248 1 247 1 Q 247 1 247 1 Q 236 0 224 0 Q 165 1 119 31 Q 101 2 64 0 Q 37 1 19 19 Q 1 37 0 64 L 0 64 Z M 355 285 Q 332 316 299 334 L 299 334 L 299 334 Q 265 352 224 352 Q 156 350 111 305 Q 66 260 64 192 Q 66 124 111 79 Q 156 34 224 32 Q 234 32 243 33 Q 244 33 245 33 Q 294 40 333 70 L 394 118 L 394 118 L 390 132 L 390 132 Q 381 172 413 198 Q 428 209 447 210 Q 465 211 481 201 L 491 195 L 491 195 L 606 286 L 606 286 L 546 352 L 546 352 L 544 352 L 544 352 L 396 275 L 396 275 Q 371 264 355 285 L 355 285 Z M 256 192 Q 256 206 247 215 L 247 215 L 247 215 Q 238 224 224 224 Q 210 224 201 215 Q 192 206 192 192 Q 192 178 201 169 Q 210 160 224 160 Q 238 160 247 169 Q 256 178 256 192 L 256 192 Z M 224 128 Q 188 129 169 160 Q 151 192 169 224 Q 188 255 224 256 Q 260 255 279 224 Q 297 192 279 160 Q 260 129 224 128 L 224 128 Z" />
</svg>