<svg xmlns="http://www.w3.org/2000/svg" viewBox="0 0 458 467">
  <path d="M 242 39 Q 260 41 262 59 Q 260 77 242 79 Q 224 77 222 59 Q 224 41 242 39 L 242 39 Z M 190 59 Q 191 88 216 104 Q 242 118 268 104 Q 293 88 294 59 Q 293 30 268 14 Q 242 0 216 14 Q 191 30 190 59 L 190 59 Z M 218 443 Q 220 465 242 467 Q 264 465 266 443 Q 264 421 242 419 Q 220 421 218 443 L 218 443 Z M 458 251 Q 456 229 434 227 Q 412 229 410 251 Q 412 273 434 275 Q 456 273 458 251 L 458 251 Z M 62 251 Q 61 262 50 263 Q 39 262 38 251 Q 39 240 50 239 Q 61 240 62 251 L 62 251 Z M 50 207 Q 25 208 12 229 Q 0 251 12 273 Q 25 294 50 295 Q 75 294 88 273 Q 100 251 88 229 Q 75 208 50 207 L 50 207 Z M 395 132 Q 385 142 371 139 Q 358 135 354 122 Q 351 108 361 98 Q 371 88 384 91 Q 398 95 402 109 Q 405 122 395 132 L 395 132 Z M 417 76 Q 394 54 363 61 Q 333 70 324 101 Q 316 132 338 155 Q 361 177 392 169 Q 423 160 432 130 Q 439 99 417 76 L 417 76 Z M 78 387 Q 79 399 86 407 L 86 407 L 86 407 Q 94 414 106 415 Q 118 414 126 407 Q 134 399 134 387 Q 134 375 126 367 Q 118 359 106 359 Q 94 359 86 367 Q 79 375 78 387 L 78 387 Z M 370 403 Q 392 401 394 379 Q 392 357 370 355 Q 348 357 346 379 Q 348 401 370 403 L 370 403 Z M 118 127 Q 111 133 102 131 Q 93 129 90 120 Q 88 110 95 104 Q 101 97 111 99 Q 120 102 122 111 Q 124 120 118 127 L 118 127 Z M 140 81 Q 120 63 94 69 Q 68 77 60 103 Q 54 129 72 149 Q 92 168 119 162 Q 145 154 153 128 Q 159 101 140 81 L 140 81 Z" />
</svg>