<svg xmlns="http://www.w3.org/2000/svg" viewBox="0 0 640 480">
  <path d="M 64 32 L 384 32 L 64 32 L 384 32 Q 398 32 407 41 Q 416 50 416 64 L 416 105 L 416 105 Q 431 95 448 96 L 448 64 L 448 64 Q 447 37 429 19 Q 411 1 384 0 L 64 0 L 64 0 Q 37 1 19 19 Q 1 37 0 64 L 0 384 L 0 384 Q 1 411 19 429 Q 37 447 64 448 L 338 448 L 338 448 Q 324 433 314 416 L 64 416 L 64 416 Q 50 416 41 407 Q 32 398 32 384 L 32 64 L 32 64 Q 32 50 41 41 Q 50 32 64 32 L 64 32 Z M 128 112 Q 127 97 112 96 Q 97 97 96 112 L 96 240 L 96 240 Q 97 255 112 256 Q 127 255 128 240 L 128 112 L 128 112 Z M 192 112 Q 191 97 176 96 Q 161 97 160 112 L 160 240 L 160 240 Q 161 255 176 256 Q 191 255 192 240 L 192 112 L 192 112 Z M 447 161 L 495 211 L 447 161 L 495 211 Q 499 216 506 216 Q 513 216 518 210 L 539 187 L 539 187 Q 565 211 586 247 Q 607 285 608 320 Q 607 371 574 407 Q 576 399 576 390 Q 575 361 559 336 Q 542 310 522 291 Q 501 271 489 262 Q 480 256 471 262 Q 459 271 438 291 Q 418 310 401 336 Q 385 361 384 390 Q 384 399 386 407 Q 353 372 352 320 Q 353 277 383 233 Q 413 191 447 161 L 447 161 Z M 480 448 Q 476 448 473 448 Q 447 445 432 428 Q 416 412 416 390 Q 417 364 443 332 Q 463 310 480 296 Q 497 310 517 332 Q 543 364 544 390 Q 544 412 528 428 Q 513 445 487 448 Q 487 448 487 448 Q 483 448 480 448 L 480 448 Z M 320 320 Q 321 386 364 430 L 364 430 L 364 430 Q 406 475 471 480 Q 475 480 480 480 Q 485 480 489 480 Q 554 475 596 430 Q 638 386 640 320 Q 638 274 614 232 Q 590 190 559 161 Q 539 146 519 161 Q 519 161 519 161 Q 518 162 518 162 L 506 176 L 506 176 L 468 136 L 468 136 Q 467 136 467 136 Q 467 136 467 135 Q 447 120 428 135 Q 390 168 357 216 Q 323 263 320 320 L 320 320 Z" />
</svg>