<svg xmlns="http://www.w3.org/2000/svg" viewBox="0 0 640 448">
  <path d="M 240 89 Q 219 126 202 175 Q 194 152 185 129 Q 198 98 213 73 Q 231 41 257 21 Q 283 1 320 0 Q 357 1 383 21 Q 409 41 427 73 Q 445 104 460 141 Q 474 179 487 218 Q 487 218 487 218 L 487 219 L 487 219 Q 512 300 544 359 Q 576 415 624 416 Q 639 418 640 432 Q 639 447 624 448 Q 587 447 561 427 Q 535 407 517 375 Q 499 344 484 307 Q 470 269 457 230 Q 457 230 457 230 Q 457 230 457 230 Q 457 230 457 230 L 457 229 L 457 229 Q 432 148 400 89 Q 368 33 320 32 Q 272 33 240 89 L 240 89 Z M 151 319 Q 138 350 123 375 Q 105 407 79 427 Q 53 447 16 448 Q 1 447 0 432 Q 1 417 16 416 Q 64 415 96 359 Q 117 322 134 273 Q 142 296 151 319 L 151 319 Z M 400 359 Q 421 322 438 273 Q 446 296 455 319 Q 442 350 428 375 Q 409 407 383 427 Q 357 447 320 448 Q 283 447 257 427 Q 231 407 213 375 Q 195 344 180 307 Q 166 269 153 230 Q 153 230 153 230 Q 153 230 153 230 Q 153 230 153 230 L 153 229 L 153 229 Q 128 148 96 89 Q 64 33 16 32 Q 1 31 0 16 Q 1 1 16 0 Q 53 1 79 21 Q 105 41 123 73 Q 141 104 156 141 Q 170 179 183 218 Q 183 218 183 218 L 183 219 L 183 219 Q 208 300 240 359 Q 272 415 320 416 Q 368 415 400 359 L 400 359 Z M 544 89 Q 523 126 506 175 Q 498 152 489 129 Q 502 98 517 73 Q 535 41 561 21 Q 587 1 624 0 Q 639 1 640 16 Q 639 31 624 32 Q 576 33 544 89 L 544 89 Z" />
</svg>