<svg xmlns="http://www.w3.org/2000/svg" viewBox="0 0 640 448">
  <path d="M 128 64 Q 128 50 137 41 L 137 41 L 137 41 Q 146 32 160 32 L 576 32 L 576 32 Q 590 32 599 41 Q 608 50 608 64 L 608 112 L 608 112 Q 570 131 568 176 Q 570 221 608 241 L 608 288 L 608 288 Q 608 302 599 311 Q 590 320 576 320 L 160 320 L 160 320 Q 146 320 137 311 Q 128 302 128 288 L 128 241 L 128 241 Q 166 221 168 176 Q 166 131 128 112 L 128 64 L 128 64 Z M 612 110 L 612 110 L 612 110 L 612 110 Q 612 110 612 110 Q 612 110 612 110 L 612 110 L 612 110 Z M 612 243 L 612 243 L 612 243 L 612 243 Q 612 243 612 243 Q 612 243 612 243 L 612 243 Z M 124 243 L 124 243 L 124 243 L 124 243 Q 124 243 124 243 Q 124 243 124 243 L 124 243 Z M 124 110 L 124 110 L 124 110 L 124 110 Q 124 110 124 110 Q 124 110 124 110 L 124 110 Z M 96 64 L 96 120 L 96 64 L 96 120 Q 98 134 112 139 Q 135 150 136 176 Q 135 202 112 213 Q 98 218 96 232 L 96 288 L 96 288 Q 97 315 115 333 Q 133 351 160 352 L 576 352 L 576 352 Q 603 351 621 333 Q 639 315 640 288 L 640 232 L 640 232 Q 638 218 624 213 Q 601 202 600 176 Q 601 150 624 139 Q 638 134 640 120 L 640 64 L 640 64 Q 639 37 621 19 Q 603 1 576 0 L 160 0 L 160 0 Q 133 1 115 19 Q 97 37 96 64 L 96 64 Z M 32 80 Q 31 65 16 64 Q 1 65 0 80 L 0 336 L 0 336 Q 1 384 33 415 Q 64 447 112 448 L 528 448 L 528 448 Q 543 447 544 432 Q 543 417 528 416 L 112 416 L 112 416 Q 78 415 55 393 Q 33 370 32 336 L 32 80 L 32 80 Z" />
</svg>