<svg xmlns="http://www.w3.org/2000/svg" viewBox="0 0 640 512">
  <path d="M 439 32 Q 419 32 403 43 L 403 43 L 403 43 Q 386 54 378 73 L 367 102 L 367 102 Q 366 105 363 107 L 315 155 L 315 155 Q 311 160 304 160 L 268 160 L 268 160 Q 239 160 216 177 Q 193 193 183 221 L 169 264 L 169 264 Q 163 282 148 293 Q 133 304 114 304 Q 89 304 72 287 L 69 283 L 69 283 Q 48 262 48 233 L 48 218 L 48 218 Q 32 245 32 277 L 32 281 L 32 281 Q 33 331 67 365 Q 101 399 151 400 L 192 400 L 192 400 Q 192 398 192 396 L 192 368 L 192 368 Q 193 353 208 352 Q 223 353 224 368 L 224 396 L 224 396 Q 224 409 233 419 L 292 478 L 292 478 Q 295 480 298 480 L 384 480 L 384 480 L 384 472 L 384 472 Q 382 450 360 448 L 352 448 L 352 448 Q 341 447 337 437 L 321 389 L 321 389 Q 318 378 327 371 Q 351 353 352 320 Q 351 293 333 275 Q 315 257 288 256 Q 273 255 272 240 Q 273 225 288 224 Q 329 225 356 252 Q 383 279 384 320 Q 383 362 355 389 L 364 416 L 364 416 Q 386 418 401 434 Q 415 449 416 472 L 416 480 L 416 480 Q 416 494 407 503 Q 398 512 384 512 L 298 512 L 298 512 Q 281 512 270 500 L 211 441 L 211 441 Q 206 437 203 432 L 151 432 L 151 432 Q 87 430 44 388 Q 2 345 0 281 L 0 277 L 0 277 Q 0 236 21 200 L 28 189 L 28 189 Q 41 171 59 176 Q 78 181 80 203 L 80 233 L 80 233 Q 80 249 91 261 L 95 264 L 95 264 Q 103 272 113 272 Q 132 271 138 254 L 153 211 L 153 211 Q 166 173 197 151 Q 228 129 268 128 L 297 128 L 297 128 L 338 87 L 338 87 L 349 61 L 349 61 Q 360 33 385 17 Q 409 0 439 0 Q 456 0 471 5 Q 482 0 496 0 Q 533 2 551 32 L 560 32 L 560 32 Q 594 33 617 55 Q 639 78 640 112 L 640 144 L 640 144 Q 640 162 628 175 Q 617 188 599 192 L 585 205 L 585 205 Q 566 224 540 224 L 471 224 L 471 224 L 429 266 L 429 266 L 456 281 L 456 281 Q 479 295 480 323 L 480 336 L 480 336 Q 479 351 464 352 Q 449 351 448 336 L 448 323 L 448 323 Q 448 314 440 309 L 413 293 L 413 293 Q 408 271 397 253 L 453 197 L 453 197 Q 457 192 464 192 L 540 192 L 540 192 Q 544 192 548 191 Q 534 188 523 178 L 510 165 L 510 165 Q 505 160 499 160 L 480 160 L 480 160 Q 465 159 464 144 Q 465 129 480 128 L 499 128 L 499 128 Q 518 128 533 142 L 546 155 L 546 155 Q 551 160 557 160 L 592 160 L 592 160 Q 607 159 608 144 L 608 112 L 608 112 Q 607 92 594 78 Q 580 65 560 64 L 541 64 L 541 64 Q 530 64 526 53 Q 518 33 496 32 Q 487 32 480 36 Q 473 40 465 37 Q 453 32 439 32 L 439 32 Z M 480 80 Q 481 65 496 64 Q 511 65 512 80 Q 511 95 496 96 Q 481 95 480 80 L 480 80 Z" />
</svg>