<svg xmlns="http://www.w3.org/2000/svg" viewBox="0 0 512 512">
  <path d="M 338.4 76.8 Q 339.2 76.8 339.2 76.8 L 339.2 76.8 Q 339.2 76.8 339.2 76.8 L 415.2 76.8 Q 434.4 77.6 440 96 L 455.2 155.2 Q 441.6 148 427.2 152 L 415.2 102.4 L 354.4 102.4 L 359.2 128 Q 346.4 126.4 334.4 134.4 L 328 102.4 L 243.2 102.4 L 243.2 179.2 L 289.6 179.2 Q 279.2 192 270.4 204.8 L 230.4 204.8 L 102.4 204.8 L 102.4 204.8 L 52.8 204.8 L 27.2 204.8 L 23.2 204.8 Q 12.8 204.8 6.4 198.4 Q 0 192 0 182.4 Q 0 179.2 0.8 176.8 L 20.8 96 Q 26.4 77.6 45.6 76.8 L 121.6 76.8 Q 121.6 76.8 121.6 76.8 Q 121.6 76.8 121.6 76.8 L 230.4 76.8 L 230.4 76.8 L 230.4 76.8 L 338.4 76.8 L 338.4 76.8 Z M 270.4 409.6 L 76.8 409.6 L 76.8 422.4 Q 76 434.4 64 435.2 Q 52 434.4 51.2 422.4 L 51.2 410.4 L 36 281.6 L 12.8 281.6 Q 0.8 280.8 0 268.8 Q 0.8 256.8 12.8 256 L 32.8 256 L 30.4 230.4 L 56 230.4 L 73.6 384 L 251.2 384 Q 259.2 397.6 270.4 409.6 L 270.4 409.6 Z M 217.6 102.4 L 132 102.4 L 117.6 179.2 L 217.6 179.2 L 217.6 102.4 L 217.6 102.4 Z M 106.4 102.4 L 45.6 102.4 L 26.4 179.2 L 38.4 179.2 L 38.4 179.2 L 92 179.2 L 106.4 102.4 L 106.4 102.4 Z M 407.2 228.8 Q 395.2 228 387.2 219.2 Q 372 200.8 355.2 184 Q 323.2 215.2 304 246.4 Q 281.6 284 281.6 307.2 Q 282.4 350.4 311.2 379.2 Q 340 408.8 384 409.6 Q 428 408.8 456.8 379.2 Q 485.6 350.4 486.4 307.2 Q 486.4 289.6 469.6 256 Q 456.8 229.6 436.8 207.2 Q 432 212.8 427.2 218.4 Q 419.2 228 407.2 228.8 L 407.2 228.8 Z M 390.4 183.2 Q 399.2 192.8 407.2 203.2 Q 415.2 192.8 424 183.2 Q 426.4 180.8 428.8 179.2 Q 436.8 172.8 444.8 179.2 Q 474.4 208 492.8 244 Q 501.6 261.6 506.4 278.4 Q 512 295.2 512 307.2 Q 510.4 361.6 474.4 397.6 Q 438.4 433.6 384 435.2 Q 328.8 433.6 292.8 397.6 Q 257.6 361.6 256 307.2 Q 256.8 273.6 281.6 233.6 Q 306.4 193.6 347.2 156.8 Q 350.4 153.6 355.2 153.6 Q 359.2 153.6 363.2 156.8 Q 376.8 169.6 390.4 183.2 L 390.4 183.2 Z M 356 230.4 Q 362.4 230.4 366.4 235.2 Q 368.8 238.4 380 252.8 Q 385.6 260 392 268.8 L 406.4 286.4 L 424.8 264.8 Q 428.8 260 435.2 260 Q 440.8 260 444.8 264.8 Q 448.8 271.2 451.2 276 Q 451.2 276 451.2 276 L 451.2 276.8 Q 464 300.8 459.2 327.2 Q 453.6 352.8 431.2 369.6 L 431.2 369.6 L 431.2 369.6 Q 410.4 384 384.8 384 Q 352.8 384 330.4 364 Q 308 344 307.2 308.8 Q 307.2 290.4 317.6 273.6 Q 328 256.8 346.4 235.2 Q 349.6 230.4 356 230.4 L 356 230.4 Z M 432 295.2 L 415.2 314.4 Q 411.2 319.2 405.6 319.2 Q 399.2 319.2 396 314.4 L 405.6 306.4 L 395.2 314.4 L 395.2 314.4 L 395.2 314.4 L 395.2 314.4 L 395.2 314.4 L 395.2 313.6 L 393.6 312 L 388 304.8 L 372 284 L 356 264 Q 345.6 276.8 340 286.4 Q 332.8 299.2 332.8 308.8 Q 333.6 332.8 348 345.6 Q 361.6 357.6 384.8 358.4 Q 402.4 358.4 416.8 348.8 Q 428.8 340 432.8 324.8 Q 436.8 310.4 432 295.2 L 432 295.2 Z" />
</svg>