<svg xmlns="http://www.w3.org/2000/svg" viewBox="0 0 576 480">
  <path d="M 408 32 L 40 32 L 408 32 L 40 32 Q 33 33 32 40 L 32 64 L 32 64 Q 34 146 88 200 Q 142 254 224 256 Q 231 256 238 256 Q 231 272 228 288 Q 227 288 226 288 Q 225 288 224 288 Q 194 288 166 281 L 140 338 L 140 338 Q 147 344 151 352 L 227 352 L 227 352 Q 230 368 235 384 L 160 384 L 160 384 Q 159 411 141 429 Q 123 447 96 448 Q 69 447 51 429 Q 33 411 32 384 Q 33 357 51 339 Q 69 321 96 320 Q 105 320 112 322 L 136 270 L 136 270 Q 75 243 38 189 Q 1 134 0 64 L 0 40 L 0 40 Q 0 23 12 12 Q 23 0 40 0 L 408 0 L 408 0 Q 425 0 436 12 Q 448 23 448 40 L 448 64 L 448 64 Q 448 100 437 133 Q 424 120 411 108 Q 411 108 411 108 Q 411 108 411 108 Q 416 87 416 64 L 416 40 L 416 40 Q 415 33 408 32 L 408 32 Z M 96 352 Q 82 352 73 361 L 73 361 L 73 361 Q 64 370 64 384 Q 64 398 73 407 Q 82 416 96 416 Q 110 416 119 407 Q 128 398 128 384 Q 128 370 119 361 Q 110 352 96 352 L 96 352 Z M 442 208 Q 428 208 419 198 L 400 179 L 400 179 Q 396 175 393 171 Q 392 171 392 170 Q 392 170 392 170 Q 392 170 392 170 L 391 169 L 391 169 Q 387 164 384 162 Q 384 162 384 161 Q 384 161 383 161 Q 349 191 319 234 Q 289 277 288 320 Q 289 372 322 407 Q 320 399 320 391 Q 321 362 337 336 Q 354 310 374 291 Q 395 272 407 263 Q 416 257 425 263 Q 437 272 458 291 Q 478 310 495 336 Q 511 362 512 391 Q 512 399 510 407 Q 543 371 544 320 Q 543 285 522 248 Q 501 212 475 187 L 466 198 L 466 198 Q 456 208 442 208 L 442 208 Z M 416 448 Q 420 448 423 448 Q 449 445 464 428 Q 480 412 480 391 Q 479 364 453 332 Q 433 310 416 296 Q 399 310 379 332 Q 353 364 352 391 Q 352 412 368 428 Q 383 445 409 448 Q 413 448 416 448 L 416 448 Z M 256 320 Q 259 263 293 216 Q 326 168 364 136 Q 373 128 384 128 Q 404 131 417 150 Q 417 150 418 151 Q 419 152 420 153 Q 421 154 422 155 Q 422 156 423 156 L 442 176 L 442 176 L 454 163 L 454 163 Q 458 158 463 156 Q 469 154 475 154 Q 486 154 495 161 Q 526 190 550 232 Q 574 274 576 320 Q 574 386 532 430 Q 490 475 425 480 Q 421 480 416 480 Q 411 480 407 480 Q 342 475 300 430 Q 257 386 256 320 L 256 320 Z M 382 160 Q 382 160 382 160 Q 382 160 382 160 L 382 160 Z" />
</svg>