<svg xmlns="http://www.w3.org/2000/svg" viewBox="0 0 518 516">
  <path d="M 187 6 Q 211 0 230 11 L 230 11 L 230 11 Q 249 23 256 45 L 297 198 L 297 198 L 323 73 L 323 73 Q 329 50 347 37 Q 366 25 389 29 Q 412 34 425 53 Q 437 72 433 95 L 430 107 L 430 107 Q 450 96 472 102 Q 495 108 506 128 Q 518 147 512 170 L 451 403 L 451 403 Q 437 453 398 483 Q 359 514 307 516 Q 307 516 307 516 Q 306 516 306 516 L 304 516 L 289 516 Q 198 515 128 457 L 22 367 L 22 367 Q 4 351 2 329 Q 0 306 15 288 L 27 298 L 27 298 L 15 288 L 15 288 Q 31 270 53 268 Q 76 266 94 281 L 126 308 L 126 308 L 77 157 L 77 157 Q 70 135 80 115 Q 90 95 113 87 Q 133 81 152 88 L 148 75 L 148 75 Q 142 52 153 32 Q 165 13 187 6 L 187 6 Z M 305 484 Q 305 484 306 484 L 306 484 L 306 484 Q 306 484 306 484 Q 347 483 378 458 Q 409 434 420 394 L 481 162 L 481 162 Q 485 140 464 133 Q 442 129 435 150 L 401 280 L 401 280 Q 397 291 385 292 L 379 292 L 379 292 Q 372 292 367 286 Q 362 280 364 273 L 402 89 L 402 89 Q 404 67 383 61 Q 361 58 355 79 L 315 270 L 315 270 Q 312 282 300 283 Q 288 283 284 271 L 225 54 L 225 54 Q 217 33 196 37 Q 175 45 179 66 L 235 272 L 235 272 Q 236 279 232 286 Q 227 292 219 292 L 216 292 L 216 292 Q 205 291 201 281 L 153 133 L 153 133 Q 144 112 123 117 Q 102 126 107 147 L 174 352 L 174 352 Q 177 363 167 370 Q 157 376 148 369 L 74 306 L 74 306 Q 56 293 40 308 Q 27 326 43 342 L 149 433 L 149 433 Q 210 483 289 484 L 304 484 L 305 484 Z" />
</svg>