<svg xmlns="http://www.w3.org/2000/svg" viewBox="0 0 512 512">
  <path d="M 74.4 143.2 Q 57.6 159.2 46.4 178.4 Q 27.2 173.6 25.6 153.6 Q 25.6 142.4 32.8 135.2 Q 40 128 51.2 128 Q 68 128.8 74.4 143.2 L 74.4 143.2 Z M 0 153.6 Q 0 171.2 9.6 184 L 9.6 184 Q 20 196.8 35.2 202.4 Q 25.6 227.2 25.6 256 Q 27.2 321.6 70.4 364.8 Q 113.6 408 179.2 409.6 Q 218.4 409.6 251.2 392 Q 283.2 374.4 304.8 344.8 L 423.2 406.4 Q 428.8 409.6 435.2 409.6 L 436.8 409.6 Q 448 409.6 456 401.6 L 506.4 345.6 Q 512 339.2 512 330.4 Q 512 320 503.2 313.6 L 400.8 233.6 Q 393.6 228.8 386.4 232.8 L 372 241.6 Q 358.4 248.8 345.6 240 Q 333.6 230.4 336.8 215.2 L 341.6 198.4 Q 343.2 189.6 336.8 184.8 L 287.2 145.6 Q 285.6 144.8 284.8 144.8 Q 242.4 104 179.2 102.4 Q 132 103.2 95.2 127.2 Q 80.8 104 51.2 102.4 Q 29.6 103.2 15.2 117.6 Q 0.8 132 0 153.6 L 0 153.6 Z M 456 401.6 L 436.8 384 Q 436.8 384 436.8 384 L 435.2 384 Q 435.2 384 435.2 384 L 316 322.4 Q 297.6 314.4 284 330.4 Q 266.4 355.2 239.2 369.6 Q 212 384 179.2 384 Q 124.8 383.2 88.8 346.4 Q 52 310.4 51.2 256 Q 52 201.6 88.8 165.6 Q 124.8 129.6 179.2 128 Q 232 128.8 267.2 163.2 Q 269.6 164.8 272 166.4 L 315.2 199.2 L 312.8 208 Q 308.8 223.2 313.6 236.8 Q 318.4 251.2 330.4 260 Q 356.8 278.4 384.8 263.2 L 392 259.2 L 484.8 331.2 L 436.8 384 L 456 401.6 L 456 401.6 Z M 204.8 256 Q 204.8 267.2 197.6 274.4 L 197.6 274.4 Q 190.4 281.6 179.2 281.6 Q 168 281.6 160.8 274.4 Q 153.6 267.2 153.6 256 Q 153.6 244.8 160.8 237.6 Q 168 230.4 179.2 230.4 Q 190.4 230.4 197.6 237.6 Q 204.8 244.8 204.8 256 L 204.8 256 Z M 179.2 204.8 Q 150.4 205.6 135.2 230.4 Q 120.8 256 135.2 281.6 Q 150.4 306.4 179.2 307.2 Q 208 306.4 223.2 281.6 Q 237.6 256 223.2 230.4 Q 208 205.6 179.2 204.8 L 179.2 204.8 Z" />
</svg>