<svg xmlns="http://www.w3.org/2000/svg" viewBox="0 0 512 512">
  <path d="M 241.31473 57.55039 Q 232.58295 51.2 223.85117 57.55039 L 7.9379845 248.06201 Q 0 256.7938 7.144186 266.31937 Q 15.875969 274.25735 25.40155 267.1132 L 54.772095 240.91783 L 54.772095 397.2961 Q 55.56589 424.28528 73.02946 442.54263 Q 91.28682 460.0062 118.27597 460.8 L 300.8496 460.8 Q 284.17984 449.68683 270.68527 433.81085 L 270.68527 435.39844 L 194.48062 435.39844 L 194.48062 308.3907 L 235.75813 308.3907 Q 238.13954 295.6899 243.69612 282.98914 L 194.48062 282.98914 Q 183.36745 282.98914 176.22325 290.13333 Q 169.07907 297.27753 169.07907 308.3907 L 169.07907 435.39844 L 118.27597 435.39844 Q 102.4 434.60464 91.28682 424.28528 Q 80.967445 413.1721 80.173645 397.2961 L 80.173645 218.69147 L 232.58295 83.745735 L 327.83875 168.68217 Q 328.63257 167.88837 329.42636 167.09457 Q 330.22015 166.30078 331.80774 165.50697 Q 340.53952 157.56898 352.4465 155.9814 L 241.31473 57.55039 L 241.31473 57.55039 Z M 408.0124 256 Q 419.91937 255.2062 427.85736 245.68062 Q 432.62015 240.12402 437.38293 234.56744 Q 457.2279 256.7938 469.92868 282.98914 Q 486.59845 316.32867 486.59845 333.79224 Q 485.80466 376.65738 457.2279 405.2341 Q 428.65115 434.60464 384.99225 435.39844 Q 341.33334 434.60464 312.7566 405.2341 Q 284.17984 376.65738 283.38605 333.79224 Q 283.38605 310.7721 305.6124 273.46356 Q 324.66357 242.50543 356.4155 211.54729 Q 373.08527 228.21706 388.16745 246.47441 Q 396.10544 255.2062 408.0124 256 L 408.0124 256 Z M 391.34262 210.7535 Q 377.84805 197.25891 364.3535 184.55814 Q 360.3845 181.38295 356.4155 181.38295 Q 351.6527 181.38295 348.4775 184.55814 Q 307.9938 220.27907 283.38605 259.969 Q 258.7783 300.45273 257.9845 333.79224 Q 259.57208 387.77054 294.49924 423.4915 Q 330.22015 459.2124 384.99225 460.8 Q 438.97055 459.2124 474.69147 423.4915 Q 510.4124 387.77054 512 333.79224 Q 512 321.88528 506.44342 305.2155 Q 501.68063 288.54575 492.94882 271.08218 Q 474.69147 235.36124 444.52713 206.7845 Q 436.58914 200.43411 428.65115 206.7845 Q 427.06357 209.1659 424.68216 210.7535 Q 415.95038 220.27907 408.0124 230.59845 Q 400.07443 220.27907 390.54883 210.7535 L 391.34262 210.7535 Z M 357.2093 257.5876 Q 351.6527 257.5876 347.68372 262.3504 Q 329.42636 283.78296 319.9008 300.45273 Q 308.7876 317.12247 308.7876 335.37985 Q 309.5814 370.30698 331.80774 390.15195 Q 354.03412 409.9969 385.78604 409.9969 Q 411.1876 409.9969 431.82635 395.70853 L 431.82635 395.70853 L 431.82635 395.70853 Q 454.0527 379.03876 459.6093 353.6372 Q 464.3721 327.44186 451.67133 303.6279 L 451.67133 302.8341 Q 449.28992 298.07132 445.32092 291.72092 Q 441.35193 286.95813 435.79535 286.95813 Q 429.44495 286.95813 425.47598 291.72092 L 407.2186 313.1535 L 392.93024 295.6899 Q 386.57983 286.95813 381.02325 279.81396 Q 369.91006 265.52557 367.5287 262.3504 Q 363.5597 257.5876 357.2093 257.5876 L 357.2093 257.5876 Z M 432.62015 321.88528 Q 438.17676 336.96744 433.41394 351.25583 L 433.41394 351.25583 Q 429.44495 366.33798 417.538 375.06976 Q 403.2496 384.59534 385.78604 384.59534 Q 362.7659 384.59534 348.4775 371.89456 Q 334.98294 359.1938 334.18915 335.37985 Q 334.18915 325.85428 341.33334 313.1535 Q 346.88992 303.6279 357.2093 290.92712 L 373.08527 310.7721 L 388.96124 331.41086 L 394.51782 338.55505 L 396.10544 340.14264 L 396.10544 340.93643 L 396.10544 340.93643 L 396.10544 340.93643 L 396.10544 340.93643 L 396.10544 340.93643 L 406.4248 332.99844 L 396.10544 340.93643 Q 400.07443 345.69922 406.4248 345.69922 Q 411.98138 345.69922 415.95038 340.93643 L 432.62015 321.88528 L 432.62015 321.88528 Z" />
</svg>