<svg xmlns="http://www.w3.org/2000/svg" viewBox="0 0 640 480">
  <path d="M 384 32 L 64 32 L 384 32 L 64 32 Q 50 32 41 41 Q 32 50 32 64 L 32 384 L 32 384 Q 32 398 41 407 Q 50 416 64 416 L 314 416 L 314 416 Q 324 433 338 448 L 64 448 L 64 448 Q 37 447 19 429 Q 1 411 0 384 L 0 64 L 0 64 Q 1 37 19 19 Q 37 1 64 0 L 384 0 L 384 0 Q 411 1 429 19 Q 447 37 448 64 L 448 96 L 448 96 Q 431 95 416 105 L 416 64 L 416 64 Q 416 50 407 41 Q 398 32 384 32 L 384 32 Z M 327 208 Q 324 208 320 208 L 128 208 L 128 208 Q 108 207 94 194 Q 81 180 80 160 L 80 128 L 80 128 Q 81 108 94 94 Q 108 81 128 80 L 320 80 L 320 80 Q 340 81 354 94 Q 367 108 368 128 L 368 153 L 368 153 Q 345 180 327 207 L 327 208 Z M 112 248 Q 134 250 136 272 Q 134 294 112 296 Q 90 294 88 272 Q 90 250 112 248 L 112 248 Z M 208 248 Q 230 250 232 272 Q 230 294 208 296 Q 186 294 184 272 Q 186 250 208 248 L 208 248 Z M 112 128 L 112 160 L 112 128 L 112 160 Q 113 175 128 176 L 320 176 L 320 176 Q 335 175 336 160 L 336 128 L 336 128 Q 335 113 320 112 L 128 112 L 128 112 Q 113 113 112 128 L 112 128 Z M 447 161 Q 413 191 383 233 Q 353 277 352 320 Q 353 372 386 407 Q 384 399 384 390 Q 385 361 401 335 Q 418 310 438 290 Q 459 271 471 262 Q 480 256 489 262 Q 501 271 522 291 Q 542 310 559 336 Q 575 361 576 390 Q 576 399 574 407 Q 607 371 608 320 Q 607 285 586 247 Q 565 211 539 187 L 518 210 L 518 210 Q 513 215 506 216 Q 499 216 494 211 L 447 161 L 447 161 Z M 480 448 Q 484 448 487 448 Q 513 445 528 428 Q 544 412 544 390 Q 543 364 517 332 Q 497 310 480 296 Q 463 310 443 332 Q 417 364 416 390 Q 416 412 432 428 Q 447 445 473 448 Q 477 448 480 448 L 480 448 Z M 320 320 Q 323 263 357 216 Q 390 168 428 135 Q 447 120 467 135 Q 467 136 467 136 Q 468 136 468 136 L 506 176 L 506 176 L 518 162 L 518 162 Q 518 162 519 162 Q 519 161 519 161 Q 539 146 559 161 Q 590 190 614 232 Q 638 274 640 320 Q 638 386 596 430 Q 554 475 489 480 Q 485 480 480 480 Q 475 480 471 480 Q 406 475 364 430 Q 321 386 320 320 L 320 320 Z" />
</svg>