<svg xmlns="http://www.w3.org/2000/svg" viewBox="0 0 640 512">
  <path d="M 256 32 Q 314 33 361 58 L 361 58 L 361 58 Q 409 84 440 128 Q 459 127 475 140 Q 483 148 492 156 Q 461 86 399 43 Q 336 1 256 0 Q 184 1 127 35 Q 69 69 35 127 Q 1 184 0 256 Q 1 328 35 385 Q 69 443 127 477 Q 184 511 256 512 Q 307 512 351 494 Q 338 482 328 468 Q 294 480 256 480 Q 193 479 143 449 Q 92 420 63 369 Q 33 319 32 256 Q 33 193 63 143 Q 92 92 143 63 Q 193 33 256 32 L 256 32 Z M 368 144 Q 367 129 352 128 Q 337 129 336 144 L 336 208 L 336 208 Q 336 215 341 219 Q 353 202 368 185 L 368 144 L 368 144 Z M 176 144 Q 175 129 160 128 Q 145 129 144 144 L 144 208 L 144 208 Q 145 223 160 224 Q 175 223 176 208 L 176 144 L 176 144 Z M 272 144 Q 271 129 256 128 Q 241 129 240 144 L 240 208 L 240 208 Q 241 223 256 224 Q 271 223 272 208 L 272 144 L 272 144 Z M 447 193 L 495 243 L 447 193 L 495 243 Q 499 248 506 248 Q 513 248 518 243 L 539 219 L 539 219 Q 565 244 586 280 Q 607 317 608 352 Q 607 404 574 439 Q 576 431 576 423 Q 575 394 559 368 Q 542 342 522 323 Q 501 303 489 294 Q 480 288 471 294 Q 459 303 438 323 Q 418 342 401 368 Q 385 394 384 423 Q 384 431 386 439 Q 353 404 352 352 Q 353 309 383 266 Q 413 223 447 193 L 447 193 Z M 480 480 Q 476 480 473 480 Q 447 477 432 460 Q 416 444 416 423 Q 417 396 443 364 Q 463 342 480 328 Q 497 342 517 364 Q 543 396 544 423 Q 544 444 528 460 Q 513 477 487 480 Q 487 480 487 480 Q 483 480 480 480 L 480 480 Z M 320 352 Q 321 418 364 462 L 364 462 L 364 462 Q 406 507 471 512 Q 475 512 480 512 Q 485 512 489 512 Q 554 507 596 462 Q 638 418 640 352 Q 638 306 614 264 Q 590 222 559 194 Q 539 178 519 193 Q 519 194 519 194 Q 518 194 518 195 L 506 208 L 506 208 L 468 169 L 468 169 Q 467 168 467 168 Q 467 168 467 168 Q 447 153 428 168 Q 390 200 357 248 Q 323 295 320 352 L 320 352 Z" />
</svg>