<svg xmlns="http://www.w3.org/2000/svg" viewBox="0 0 640 512">
  <path d="M 320 96 Q 334 96 343 87 L 343 87 L 343 87 Q 352 78 352 64 Q 352 50 343 41 Q 334 32 320 32 Q 306 32 297 41 Q 288 50 288 64 Q 288 78 297 87 Q 306 96 320 96 L 320 96 Z M 320 0 Q 356 1 375 32 Q 393 64 375 96 Q 356 127 320 128 Q 284 127 265 96 Q 247 64 265 32 Q 284 1 320 0 L 320 0 Z M 304 192 Q 281 193 274 215 L 234 352 L 234 352 L 406 352 L 406 352 L 367 215 L 367 215 Q 359 193 336 192 L 304 192 L 304 192 Z M 304 160 L 336 160 L 304 160 L 336 160 Q 358 160 374 173 Q 391 185 397 206 L 436 343 L 436 343 Q 440 359 431 371 Q 422 383 406 384 L 384 384 L 384 384 L 384 496 L 384 496 Q 383 511 368 512 Q 353 511 352 496 L 352 384 L 352 384 L 288 384 L 288 384 L 288 496 L 288 496 Q 287 511 272 512 Q 257 511 256 496 L 256 384 L 256 384 L 234 384 L 234 384 Q 218 383 209 371 Q 200 359 204 343 L 243 206 L 243 206 Q 249 185 266 173 Q 282 160 304 160 L 304 160 Z M 32 32 Q 101 33 159 61 L 159 61 L 159 61 Q 217 90 257 140 Q 243 148 232 161 Q 197 116 145 90 Q 93 65 32 64 L 32 112 L 32 112 Q 32 170 57 218 Q 81 267 124 301 L 136 310 L 136 310 Q 146 320 139 332 L 130 345 L 130 345 Q 97 389 96 448 L 112 448 L 112 448 Q 172 447 217 414 Q 220 415 224 415 L 224 447 L 224 447 Q 175 479 112 480 L 96 480 L 96 480 Q 82 480 73 471 Q 64 462 64 448 Q 65 378 104 326 Q 56 288 28 233 Q 1 178 0 112 L 0 64 L 0 64 Q 0 50 9 41 Q 18 32 32 32 L 32 32 Z M 408 161 Q 397 148 383 140 Q 423 90 481 61 Q 539 33 608 32 Q 622 32 631 41 Q 640 50 640 64 L 640 112 L 640 112 Q 639 178 612 233 Q 584 288 536 326 Q 575 378 576 448 Q 576 462 567 471 Q 558 480 544 480 L 528 480 L 528 480 Q 465 479 416 447 L 416 415 L 416 415 Q 420 415 423 414 Q 468 447 528 448 L 544 448 L 544 448 Q 543 389 510 345 L 501 332 L 501 332 Q 494 320 504 310 L 516 301 L 516 301 Q 559 267 583 218 Q 608 170 608 112 L 608 64 L 608 64 Q 547 65 495 90 Q 443 116 408 161 L 408 161 Z" />
</svg>