<svg xmlns="http://www.w3.org/2000/svg" viewBox="0 0 414 489">
  <path d="M 289 413 Q 304 433 324 426 L 324 426 L 324 426 Q 345 418 344 393 L 317 212 L 317 212 L 404 51 L 404 51 Q 414 28 397 14 Q 380 0 359 13 L 216 127 L 216 127 L 33 132 L 33 132 Q 8 135 4 157 Q 0 179 23 190 L 193 257 L 193 257 L 230 318 L 230 318 L 230 459 L 230 459 L 140 459 L 140 459 Q 126 460 125 474 Q 126 488 140 489 L 245 489 L 350 489 Q 364 488 366 474 Q 364 460 350 459 L 260 459 L 260 459 L 260 367 L 260 367 L 289 413 L 289 413 Z M 288 216 L 314 397 L 288 216 L 314 397 L 218 242 L 218 242 Q 213 233 204 229 L 34 162 L 34 162 L 217 157 L 217 157 Q 227 157 234 150 L 378 37 L 378 37 L 291 198 L 291 198 Q 286 206 287 216 L 288 216 Z M 260 203 Q 261 194 253 189 Q 245 184 237 189 Q 230 194 230 203 Q 230 212 237 217 Q 245 221 253 217 Q 261 212 260 203 L 260 203 Z" />
</svg>