<svg xmlns="http://www.w3.org/2000/svg" viewBox="0 0 448 512">
  <path d="M 363 293 L 235 165 L 363 293 L 235 165 Q 224 155 213 165 L 85 293 L 85 293 Q 75 304 85 315 Q 96 325 107 315 L 208 215 L 208 215 L 208 496 L 208 496 Q 209 511 224 512 Q 239 511 240 496 L 240 215 L 240 215 L 341 315 L 341 315 Q 352 325 363 315 Q 373 304 363 293 L 363 293 Z M 32 176 L 32 80 L 32 176 L 32 80 Q 33 60 46 46 Q 60 33 80 32 L 368 32 L 368 32 Q 388 33 402 46 Q 415 60 416 80 L 416 176 L 416 176 Q 417 191 432 192 Q 447 191 448 176 L 448 80 L 448 80 Q 447 46 425 23 Q 402 1 368 0 L 80 0 L 80 0 Q 46 1 23 23 Q 1 46 0 80 L 0 176 L 0 176 Q 1 191 16 192 Q 31 191 32 176 L 32 176 Z" />
</svg>