<svg xmlns="http://www.w3.org/2000/svg" viewBox="0 0 296 512">
  <path d="M 149 80 Q 148 80 148 80 L 148 80 L 148 80 Q 148 80 148 80 Q 126 78 124 56 Q 125 37 143 33 Q 143 32 144 32 Q 144 32 144 32 Q 146 32 148 32 Q 170 34 172 56 Q 171 73 155 79 Q 153 80 151 80 Q 150 80 149 80 Q 149 80 149 80 L 149 80 Z M 161 111 Q 180 106 192 91 L 192 91 L 192 91 Q 204 76 204 56 Q 203 32 188 16 Q 172 1 148 0 Q 148 0 148 0 Q 148 0 148 0 Q 139 0 131 3 Q 114 8 103 23 Q 92 37 92 56 Q 93 80 108 96 Q 124 111 148 112 Q 152 112 157 111 Q 159 111 161 111 Q 161 111 161 111 L 161 111 Z M 180 320 L 180 352 L 180 320 L 180 352 Q 180 352 180 352 Q 180 352 180 352 L 180 416 L 180 416 Q 180 416 180 416 Q 180 416 180 416 L 180 496 L 180 496 Q 181 511 196 512 Q 198 512 199 512 Q 201 511 202 511 Q 211 507 212 496 L 212 202 L 212 202 L 262 296 L 262 296 Q 270 308 284 302 Q 296 294 290 281 L 231 170 L 231 170 Q 214 139 180 130 L 180 164 L 180 164 Q 180 164 180 164 Q 180 164 180 164 L 180 320 L 180 320 Q 180 320 180 320 Q 180 320 180 320 L 180 320 Z M 114 263 Q 120 250 107 242 Q 93 236 86 249 L 22 377 L 22 377 Q 18 385 22 393 Q 27 400 36 400 L 84 400 L 84 400 L 84 496 L 84 496 Q 85 511 100 512 Q 100 512 100 512 Q 100 512 100 512 Q 100 512 100 512 Q 100 512 100 512 Q 100 512 100 512 Q 100 512 100 512 Q 100 512 100 512 Q 100 512 100 512 Q 114 511 116 496 L 116 400 L 116 400 L 148 400 L 148 400 L 148 368 L 148 368 L 100 368 L 62 368 L 114 263 L 114 263 Z M 148 128 Q 148 128 148 128 L 148 128 L 148 128 Q 148 128 148 128 Q 120 128 96 142 Q 72 157 59 182 L 6 281 L 6 281 Q 0 294 13 302 Q 26 308 34 296 L 87 197 L 87 197 Q 107 161 148 160 Q 148 160 148 160 Q 148 160 148 160 L 148 128 L 148 128 Z" />
</svg>