<svg xmlns="http://www.w3.org/2000/svg" viewBox="0 0 512 512">
  <path d="M 174.73016 93.968254 Q 187.93651 93.968254 198.09525 84.82539 L 244.8254 38.095238 Q 256 27.936508 267.1746 38.095238 L 313.90475 84.82539 Q 324.0635 93.968254 337.26984 93.968254 L 402.2857 93.968254 Q 417.5238 94.98412 418.53967 110.22222 L 418.53967 175.2381 Q 418.53967 188.44444 427.68253 198.60318 L 474.4127 244.31746 Q 483.55554 256.50793 474.4127 267.68253 L 427.68253 313.39682 Q 418.53967 323.55554 418.53967 336.7619 L 418.53967 402.79364 Q 417.5238 418.03174 402.2857 419.0476 L 336.25397 419.0476 Q 323.0476 419.0476 313.90475 428.1905 L 267.1746 474.92062 Q 256 484.0635 244.8254 474.92062 L 199.11111 428.1905 Q 188.95238 419.0476 175.74603 419.0476 L 109.71429 419.0476 Q 94.47619 418.03174 93.46032 402.79364 L 93.46032 336.7619 Q 93.46032 323.55554 84.31746 314.4127 L 37.587303 267.68253 L 14.222222 291.0476 L 37.587303 267.68253 Q 28.444445 255.49207 37.587303 244.31746 L 84.31746 198.60318 Q 93.46032 188.44444 93.46032 175.2381 L 93.46032 110.22222 Q 94.47619 94.98412 109.71429 93.968254 L 174.73016 93.968254 L 174.73016 93.968254 Z M 14.222222 221.96825 Q 0 236.19048 0 256.50793 L 0 256.50793 Q 0 275.8095 14.222222 291.0476 L 60.95238 336.7619 L 60.95238 402.79364 Q 61.968254 423.1111 75.17461 437.33334 Q 89.39683 450.53967 109.71429 451.55554 L 175.74603 451.55554 L 221.46031 497.26984 Q 236.69841 511.49207 256 511.49207 Q 275.30157 511.49207 290.53967 497.26984 L 336.25397 451.55554 L 402.2857 451.55554 Q 422.60318 450.53967 436.8254 437.33334 Q 450.03174 423.1111 451.0476 402.79364 L 451.0476 336.7619 L 497.77777 291.0476 Q 512 275.8095 512 256.50793 Q 512 236.19048 497.77777 221.96825 L 451.0476 175.2381 L 451.0476 110.22222 Q 450.03174 89.90476 436.8254 75.68254 Q 422.60318 62.47619 402.2857 61.460316 L 337.26984 61.460316 L 290.53967 14.730159 Q 275.30157 0.50793654 256 0.50793654 Q 236.69841 0.50793654 221.46031 14.730159 L 174.73016 61.460316 L 109.71429 61.460316 Q 89.39683 62.47619 75.17461 75.68254 Q 61.968254 89.90476 60.95238 110.22222 L 60.95238 175.2381 L 14.222222 221.96825 L 14.222222 221.96825 Z M 167.61905 169.14285 L 167.61905 170.15874 Q 164.57143 184.38095 178.79366 189.46031 Q 193.01587 191.49207 198.09525 178.28572 L 199.11111 177.26984 Q 204.19048 160 222.4762 158.98413 L 280.38095 158.98413 Q 294.60318 158.98413 303.74603 168.12698 Q 312.8889 178.28572 312.8889 191.49207 Q 311.87302 211.80952 295.61905 220.95238 L 248.88889 244.31746 Q 239.74603 249.39682 239.74603 259.55554 L 239.74603 289.01587 Q 240.7619 304.25397 256 305.26984 Q 271.2381 304.25397 272.25397 289.01587 L 272.25397 268.69843 L 309.84128 249.39682 Q 344.38095 231.11111 345.39682 191.49207 Q 344.38095 164.06349 326.09525 145.77777 Q 307.8095 127.492065 280.38095 126.47619 L 222.4762 126.47619 Q 202.15874 126.47619 187.93651 138.66667 Q 172.69841 149.84126 167.61905 169.14285 L 167.61905 169.14285 Z M 280.38095 354.03174 Q 278.3492 331.68253 256 329.6508 Q 233.65079 331.68253 231.61905 354.03174 Q 233.65079 376.38095 256 378.4127 Q 278.3492 376.38095 280.38095 354.03174 L 280.38095 354.03174 Z" />
</svg>