<svg xmlns="http://www.w3.org/2000/svg" viewBox="0 0 522 517">
  <path d="M 226 32 Q 199 33 185 57 L 143 130 L 143 130 Q 133 148 133 169 Q 133 201 156 224 L 317 385 L 317 385 L 390 312 L 390 312 L 346 267 L 346 267 L 215 137 L 215 137 Q 204 125 210 111 Q 216 97 232 96 L 309 96 L 309 96 Q 324 97 325 112 Q 324 127 309 128 L 252 128 L 252 128 L 357 233 L 357 233 L 366 224 L 366 224 Q 389 201 389 169 Q 389 148 379 130 L 337 57 L 337 57 Q 323 33 296 32 L 227 32 L 226 32 Z M 421 169 Q 420 214 389 247 L 380 256 L 380 256 L 424 301 L 424 301 L 432 309 L 432 309 Q 432 309 432 309 Q 432 309 432 309 L 436 312 L 436 312 L 512 389 L 512 389 Q 522 400 512 411 Q 501 421 490 411 L 413 335 L 413 335 L 388 360 L 388 360 L 464 437 L 464 437 Q 474 448 464 459 Q 453 469 442 459 L 365 383 L 365 383 L 340 408 L 340 408 L 416 485 L 416 485 Q 426 496 416 507 Q 405 517 394 507 L 317 431 L 317 431 L 314 427 L 314 427 Q 314 427 314 427 Q 314 427 314 427 L 306 419 L 306 419 L 133 247 L 133 247 Q 102 214 101 169 Q 101 140 115 115 L 157 41 L 157 41 Q 181 2 226 0 L 296 0 L 296 0 Q 341 2 365 41 L 407 115 L 407 115 Q 421 140 421 169 L 421 169 Z M 10 389 L 120 279 L 10 389 L 120 279 L 142 301 L 142 301 L 32 411 L 32 411 Q 21 421 10 411 Q 0 400 10 389 L 10 389 Z M 58 437 L 168 327 L 58 437 L 168 327 L 190 349 L 190 349 L 80 459 L 80 459 Q 69 469 58 459 Q 48 448 58 437 L 58 437 Z M 106 485 L 216 375 L 106 485 L 216 375 L 238 397 L 238 397 L 128 507 L 128 507 Q 117 517 106 507 Q 96 496 106 485 L 106 485 Z" />
</svg>