<svg xmlns="http://www.w3.org/2000/svg" viewBox="0 0 576 516">
  <path d="M 328 6 Q 316 15 322 28 L 420 196 L 420 196 L 156 196 L 156 196 L 254 28 L 254 28 Q 260 15 248 6 Q 235 0 226 12 L 119 196 L 119 196 L 65 196 L 16 196 Q 1 197 0 212 Q 1 227 16 228 L 40 228 L 40 228 L 100 468 L 100 468 Q 106 489 123 502 Q 139 516 162 516 L 414 516 L 414 516 Q 437 516 453 502 Q 470 489 476 468 L 536 228 L 536 228 L 560 228 L 560 228 Q 575 227 576 212 Q 575 197 560 196 L 544 196 L 457 196 L 350 12 L 350 12 Q 341 0 328 6 L 328 6 Z M 73 228 L 503 228 L 73 228 L 503 228 L 445 460 L 445 460 Q 438 483 414 484 L 162 484 L 162 484 Q 138 483 131 460 L 73 228 L 73 228 Z M 208 340 Q 193 341 192 356 Q 193 371 208 372 L 368 372 L 368 372 Q 383 371 384 356 Q 383 341 368 340 L 208 340 L 208 340 Z" />
</svg>