<svg xmlns="http://www.w3.org/2000/svg" viewBox="0 0 512 512">
  <path d="M 121.6 116 Q 133.6 116 140.8 106.4 Q 141.6 105.6 142.4 104.8 Q 143.2 103.2 144.8 102.4 Q 157.6 117.6 166.4 135.2 L 186.4 124.8 L 166.4 135.2 Q 179.2 161.6 179.2 174.4 Q 179.2 190.4 172.8 204.8 L 200 204.8 Q 204.8 190.4 204.8 174.4 Q 204 152.8 189.6 124 Q 175.2 95.2 150.4 72 Q 144.8 67.2 138.4 71.2 Q 138.4 71.2 138.4 71.2 Q 138.4 72 137.6 72 Q 128.8 80.8 120.8 90.4 Q 112.8 80.8 104 71.2 Q 95.2 62.4 85.6 53.6 Q 82.4 51.2 79.2 51.2 Q 76 51.2 72.8 53.6 Q 40.8 83.2 20.8 115.2 Q 0.8 147.2 0 174.4 Q 0 190.4 4.8 204.8 L 32 204.8 Q 25.6 190.4 25.6 174.4 Q 25.6 157.6 42.4 128 Q 56.8 105.6 79.2 83.2 Q 90.4 94.4 101.6 107.2 Q 108.8 116 121.6 116 L 121.6 116 Z M 160 204.8 Q 172.8 176.8 158.4 148 L 158.4 148 L 158.4 148 Q 156.8 144 152.8 139.2 Q 149.6 134.4 143.2 133.6 Q 136.8 133.6 132.8 138.4 L 120 153.6 L 110.4 141.6 Q 102.4 131.2 96 122.4 Q 91.2 116 89.6 115.2 Q 86.4 110.4 80 110.4 Q 73.6 110.4 69.6 115.2 Q 55.2 132 47.2 145.6 Q 38.4 160 38.4 175.2 Q 38.4 192 44.8 204.8 L 77.6 204.8 Q 76 204 75.2 202.4 Q 64.8 193.6 64 175.2 Q 64 168.8 69.6 158.4 Q 73.6 152 80 143.2 L 90.4 157.6 L 104 174.4 L 108 179.2 L 109.6 180.8 L 109.6 181.6 L 109.6 181.6 L 109.6 181.6 L 109.6 181.6 L 109.6 181.6 L 120 173.6 L 109.6 181.6 Q 113.6 186.4 119.2 186.4 Q 125.6 186.4 129.6 181.6 L 139.2 169.6 Q 144 192 127.2 204.8 L 160 204.8 L 160 204.8 Z M 417.6 102.4 Q 392 102.4 372.8 120.8 L 176.8 310.4 Q 174.4 313.6 169.6 313.6 Q 160.8 312.8 160 303.2 Q 160 302.4 160 300.8 L 170.4 256 L 179.2 256 Q 191.2 255.2 192 243.2 Q 191.2 231.2 179.2 230.4 L 160 230.4 L 25.6 230.4 L 12.8 230.4 Q 0.8 231.2 0 243.2 Q 0.8 253.6 10.4 256 L 2.4 300.8 Q 0 312.8 0 324.8 L 0 331.2 Q 1.6 386.4 38.4 422.4 Q 75.2 459.2 130.4 460.8 Q 160 460.8 185.6 448 Q 212 436 230.4 412.8 L 418.4 184 Q 422.4 179.2 428 179.2 L 490.4 179.2 Q 499.2 179.2 505.6 172.8 Q 512 166.4 512 157.6 Q 512 148 505.6 141.6 L 484.8 120.8 Q 465.6 102.4 440 102.4 L 417.6 102.4 L 417.6 102.4 Z M 36 256 L 144 256 L 135.2 296 Q 134.4 299.2 134.4 303.2 Q 134.4 318.4 144.8 328.8 Q 155.2 338.4 170.4 339.2 Q 184 339.2 195.2 328.8 L 391.2 139.2 Q 402.4 128 417.6 128 L 440 128 Q 455.2 128 466.4 139.2 L 480.8 153.6 L 428 153.6 Q 410.4 153.6 398.4 168 L 211.2 396.8 Q 179.2 434.4 130.4 435.2 Q 85.6 434.4 56 404.8 Q 26.4 375.2 25.6 330.4 L 25.6 324.8 Q 25.6 314.4 27.2 304.8 L 36 256 L 36 256 Z M 96 332.8 Q 113.6 331.2 115.2 313.6 Q 113.6 296 96 294.4 Q 78.4 296 76.8 313.6 Q 78.4 331.2 96 332.8 L 96 332.8 Z" />
</svg>