<svg xmlns="http://www.w3.org/2000/svg" viewBox="0 0 512 448">
  <path d="M 33 226 Q 32 225 32 224 Q 32 223 33 222 L 165 98 L 165 98 Q 167 96 169 96 Q 175 97 176 103 L 176 160 L 176 160 Q 177 175 192 176 L 312 176 L 312 176 Q 319 177 320 184 L 320 264 L 320 264 Q 319 271 312 272 L 192 272 L 192 272 Q 177 273 176 288 L 176 345 L 176 345 Q 175 351 169 352 Q 167 352 165 350 L 33 226 L 33 226 Z M 0 224 Q 0 239 11 249 L 143 374 L 143 374 Q 154 384 169 384 Q 186 384 197 373 Q 208 362 208 345 L 208 304 L 208 304 L 312 304 L 312 304 Q 329 304 340 292 Q 352 281 352 264 L 352 184 L 352 184 Q 352 167 340 156 Q 329 144 312 144 L 208 144 L 208 144 L 208 103 L 208 103 Q 208 86 197 75 Q 186 64 169 64 Q 154 64 143 75 L 11 199 L 11 199 Q 0 209 0 224 L 0 224 Z M 336 416 Q 321 417 320 432 Q 321 447 336 448 L 432 448 L 432 448 Q 466 447 489 425 Q 511 402 512 368 L 512 80 L 512 80 Q 511 46 489 23 Q 466 1 432 0 L 336 0 L 336 0 Q 321 1 320 16 Q 321 31 336 32 L 432 32 L 432 32 Q 452 33 466 46 Q 479 60 480 80 L 480 368 L 480 368 Q 479 388 466 402 Q 452 415 432 416 L 336 416 L 336 416 Z" />
</svg>