<svg xmlns="http://www.w3.org/2000/svg" viewBox="0 0 576 448">
  <path d="M 64 32 Q 50 32 41 41 L 41 41 L 41 41 Q 32 50 32 64 L 32 384 L 32 384 Q 32 398 41 407 Q 50 416 64 416 L 512 416 L 512 416 Q 526 416 535 407 Q 544 398 544 384 L 544 64 L 544 64 Q 544 50 535 41 Q 526 32 512 32 L 64 32 L 64 32 Z M 0 64 Q 1 37 19 19 L 19 19 L 19 19 Q 37 1 64 0 L 512 0 L 512 0 Q 539 1 557 19 Q 575 37 576 64 L 576 384 L 576 384 Q 575 411 557 429 Q 539 447 512 448 L 64 448 L 64 448 Q 37 447 19 429 Q 1 411 0 384 L 0 64 L 0 64 Z M 112 224 L 304 224 L 112 224 L 304 224 Q 319 225 320 240 Q 319 255 304 256 L 112 256 L 112 256 Q 97 255 96 240 Q 97 225 112 224 L 112 224 Z M 368 224 L 464 224 L 368 224 L 464 224 Q 479 225 480 240 Q 479 255 464 256 L 368 256 L 368 256 Q 353 255 352 240 Q 353 225 368 224 L 368 224 Z M 112 320 L 208 320 L 112 320 L 208 320 Q 223 321 224 336 Q 223 351 208 352 L 112 352 L 112 352 Q 97 351 96 336 Q 97 321 112 320 L 112 320 Z M 272 320 L 464 320 L 272 320 L 464 320 Q 479 321 480 336 Q 479 351 464 352 L 272 352 L 272 352 Q 257 351 256 336 Q 257 321 272 320 L 272 320 Z" />
</svg>