<svg xmlns="http://www.w3.org/2000/svg" viewBox="0 0 496 512">
  <path d="M 120 32 Q 134 32 143 41 L 143 41 L 143 41 Q 152 50 152 64 Q 152 78 143 87 Q 134 96 120 96 Q 106 96 97 87 Q 88 78 88 64 Q 88 50 97 41 Q 106 32 120 32 L 120 32 Z M 120 128 Q 156 127 175 96 Q 193 64 175 32 Q 156 1 120 0 Q 84 1 65 32 Q 47 64 65 96 Q 84 127 120 128 L 120 128 Z M 104 192 L 136 192 L 104 192 L 136 192 Q 159 193 167 215 L 206 352 L 206 352 L 34 352 L 34 352 L 74 215 L 74 215 Q 81 193 104 192 L 104 192 Z M 104 160 Q 82 160 66 173 L 66 173 L 66 173 Q 49 185 43 206 L 4 343 L 4 343 Q 0 359 9 371 Q 18 383 34 384 L 56 384 L 56 384 L 56 496 L 56 496 Q 57 511 72 512 Q 87 511 88 496 L 88 384 L 88 384 L 152 384 L 152 384 L 152 496 L 152 496 Q 153 511 168 512 Q 183 511 184 496 L 184 384 L 184 384 L 206 384 L 206 384 Q 222 383 231 371 Q 240 359 236 343 L 197 206 L 197 206 Q 191 185 174 173 Q 158 160 136 160 L 104 160 L 104 160 Z M 376 32 Q 390 32 399 41 L 399 41 L 399 41 Q 408 50 408 64 Q 408 78 399 87 Q 390 96 376 96 Q 362 96 353 87 Q 344 78 344 64 Q 344 50 353 41 Q 362 32 376 32 L 376 32 Z M 376 128 Q 412 127 431 96 Q 449 64 431 32 Q 412 1 376 0 Q 340 1 321 32 Q 303 64 321 96 Q 340 127 376 128 L 376 128 Z M 360 192 L 392 192 L 360 192 L 392 192 Q 415 193 422 215 L 462 352 L 462 352 L 290 352 L 290 352 L 330 215 L 330 215 Q 337 193 360 192 L 360 192 Z M 360 160 Q 338 160 322 173 L 322 173 L 322 173 Q 305 185 299 206 L 260 343 L 260 343 Q 256 359 265 371 Q 274 383 291 384 L 312 384 L 312 384 L 312 496 L 312 496 Q 314 511 328 512 Q 343 511 344 496 L 344 384 L 344 384 L 408 384 L 408 384 L 408 496 L 408 496 Q 410 511 424 512 Q 439 511 440 496 L 440 384 L 440 384 L 462 384 L 462 384 Q 478 383 487 371 Q 496 359 493 343 L 453 206 L 453 206 Q 447 185 430 173 Q 414 160 392 160 L 360 160 L 360 160 Z" />
</svg>