<svg xmlns="http://www.w3.org/2000/svg" viewBox="0 0 512 512">
  <path d="M 78.4 292 L 68 284.8 L 78.4 292 L 78.4 292 Z M 224 374.4 L 216.8 384.8 L 224 374.4 L 224 374.4 Z M 288 374.4 L 295.2 384.8 L 288 374.4 L 288 374.4 Z M 433.6 292 L 423.2 300 L 433.6 292 L 433.6 292 Z M 433.6 220 L 423.2 212 L 433.6 220 L 433.6 220 Z M 78.4 220 L 68 228 L 78.4 220 L 78.4 220 Z M 224 137.6 L 231.2 148 L 224 137.6 L 224 137.6 Z M 288 137.6 L 280.8 148 L 288 137.6 L 288 137.6 Z M 216.8 127.2 Q 193.6 143.2 192 172.8 L 217.6 172.8 Q 217.6 158.4 231.2 148 L 216.8 127.2 L 216.8 127.2 Z M 192 172.8 Q 192.8 198.4 211.2 214.4 L 211.2 214.4 Q 229.6 229.6 256 230.4 L 256 204.8 Q 238.4 204 228 195.2 Q 217.6 185.6 217.6 172.8 L 192 172.8 L 192 172.8 Z M 256 230.4 Q 282.4 229.6 300.8 214.4 L 300.8 214.4 Q 319.2 198.4 320 172.8 L 294.4 172.8 Q 294.4 185.6 284 195.2 Q 273.6 204 256 204.8 L 256 230.4 L 256 230.4 Z M 320 172.8 Q 318.4 143.2 295.2 127.2 L 280.8 148 Q 294.4 158.4 294.4 172.8 L 320 172.8 L 320 172.8 Z M 293.6 128 L 371.2 128 L 371.2 102.4 L 293.6 102.4 L 293.6 128 L 293.6 128 Z M 384 140.8 L 384 212 L 409.6 212 L 409.6 140.8 L 384 140.8 L 384 140.8 Z M 444 227.2 Q 452 217.6 460.8 217.6 L 460.8 192 Q 436.8 193.6 423.2 212 L 444 228 L 444 227.2 Z M 460.8 217.6 Q 469.6 217.6 477.6 227.2 Q 485.6 238.4 486.4 256 L 512 256 Q 512 230.4 498.4 212 Q 484.8 193.6 460.8 192 L 460.8 217.6 L 460.8 217.6 Z M 486.4 256 Q 485.6 273.6 477.6 284.8 Q 469.6 294.4 460.8 294.4 L 460.8 320 Q 484.8 318.4 498.4 300 Q 512 281.6 512 256 L 486.4 256 L 486.4 256 Z M 460.8 294.4 Q 452 294.4 444 284.8 L 423.2 300 Q 436.8 318.4 460.8 320 L 460.8 294.4 L 460.8 294.4 Z M 384 300 L 384 371.2 L 409.6 371.2 L 409.6 300 L 384 300 L 384 300 Z M 371.2 384 L 293.6 384 L 293.6 409.6 L 371.2 409.6 L 371.2 384 L 371.2 384 Z M 295.2 384.8 Q 318.4 368.8 320 339.2 L 294.4 339.2 Q 294.4 353.6 280.8 364 L 295.2 384.8 L 295.2 384.8 Z M 320 339.2 Q 319.2 313.6 300.8 297.6 L 300.8 297.6 Q 282.4 282.4 256 281.6 L 256 307.2 Q 273.6 308 284 316.8 Q 294.4 326.4 294.4 339.2 L 320 339.2 L 320 339.2 Z M 256 281.6 Q 229.6 282.4 211.2 297.6 L 211.2 297.6 Q 192.8 313.6 192 339.2 L 217.6 339.2 Q 217.6 326.4 228 316.8 Q 238.4 308 256 307.2 L 256 281.6 L 256 281.6 Z M 192 339.2 Q 193.6 368.8 216.8 384.8 L 231.2 364 Q 217.6 353.6 217.6 339.2 L 192 339.2 L 192 339.2 Z M 219.2 384 L 140.8 384 L 140.8 409.6 L 219.2 409.6 L 219.2 384 L 219.2 384 Z M 128 371.2 L 128 300 L 102.4 300 L 102.4 371.2 L 128 371.2 L 128 371.2 Z M 68 284.8 Q 60 294.4 51.2 294.4 L 51.2 320 Q 75.2 318.4 88.8 300 L 68 284.8 L 68 284.8 Z M 51.2 294.4 Q 42.4 294.4 34.4 284.8 Q 26.4 273.6 25.6 256 L 0 256 Q 0 281.6 13.6 300 Q 27.2 318.4 51.2 320 L 51.2 294.4 L 51.2 294.4 Z M 25.6 256 Q 26.4 238.4 34.4 227.2 Q 42.4 217.6 51.2 217.6 L 51.2 192 Q 27.2 193.6 13.6 212 Q 0 230.4 0 256 L 25.6 256 L 25.6 256 Z M 51.2 217.6 Q 60 217.6 68 227.2 L 88.8 212 Q 75.2 193.6 51.2 192 L 51.2 217.6 L 51.2 217.6 Z M 128 212 L 128 140.8 L 102.4 140.8 L 102.4 212 L 128 212 L 128 212 Z M 140.8 128 L 219.2 128 L 219.2 102.4 L 140.8 102.4 L 140.8 128 L 140.8 128 Z M 96.8 268.8 Q 76.8 271.2 68 284.8 L 88.8 300 Q 93.6 294.4 96.8 294.4 L 96.8 268.8 L 96.8 268.8 Z M 217.6 384.8 Q 217.6 384 219.2 384 L 219.2 409.6 Q 228.8 409.6 236 402.4 Q 243.2 395.2 243.2 384.8 L 217.6 384.8 L 217.6 384.8 Z M 216.8 384.8 Q 216.8 384.8 216.8 384.8 L 216.8 384.8 Q 217.6 384.8 217.6 385.6 Q 217.6 385.6 217.6 385.6 Q 217.6 385.6 217.6 385.6 Q 217.6 385.6 217.6 385.6 Q 217.6 385.6 217.6 385.6 Q 217.6 385.6 217.6 384.8 L 243.2 384.8 Q 242.4 370.4 231.2 364 L 216.8 384.8 L 216.8 384.8 Z M 294.4 384.8 Q 294.4 385.6 294.4 385.6 Q 294.4 385.6 294.4 385.6 Q 294.4 385.6 294.4 385.6 Q 294.4 384.8 294.4 384.8 Q 295.2 384.8 295.2 384.8 L 280.8 364 Q 269.6 370.4 268.8 384.8 L 294.4 384.8 L 294.4 384.8 Z M 384 371.2 Q 383.2 383.2 371.2 384 L 371.2 409.6 Q 387.2 408.8 398.4 398.4 Q 408.8 387.2 409.6 371.2 L 384 371.2 L 384 371.2 Z M 415.2 268.8 Q 402.4 268.8 392.8 277.6 L 392.8 277.6 Q 384 287.2 384 300 L 409.6 300 Q 410.4 295.2 415.2 294.4 L 415.2 268.8 L 415.2 268.8 Z M 444 284.8 Q 435.2 271.2 415.2 268.8 L 415.2 294.4 Q 418.4 294.4 423.2 300 L 444 284.8 L 444 284.8 Z M 415.2 243.2 Q 435.2 240.8 444 227.2 L 423.2 212 Q 418.4 217.6 415.2 217.6 L 415.2 243.2 L 415.2 243.2 Z M 128 140.8 Q 128.8 128.8 140.8 128 L 140.8 102.4 Q 124.8 103.2 113.6 113.6 Q 103.2 124.8 102.4 140.8 L 128 140.8 L 128 140.8 Z M 384 212 Q 384 224.8 392.8 234.4 L 392.8 234.4 Q 402.4 243.2 415.2 243.2 L 415.2 217.6 Q 410.4 216.8 409.6 212 L 384 212 L 384 212 Z M 96.8 243.2 Q 109.6 243.2 119.2 234.4 L 119.2 234.4 Q 128 224.8 128 212 L 102.4 212 Q 101.6 216.8 96.8 217.6 L 96.8 243.2 L 96.8 243.2 Z M 371.2 128 Q 383.2 128.8 384 140.8 L 409.6 140.8 Q 408.8 124.8 398.4 113.6 Q 387.2 103.2 371.2 102.4 L 371.2 128 L 371.2 128 Z M 68 227.2 Q 76.8 240.8 96.8 243.2 L 96.8 217.6 Q 93.6 217.6 88.8 212 L 68 227.2 L 68 227.2 Z M 294.4 127.2 Q 294.4 128 293.6 128 L 293.6 102.4 Q 283.2 102.4 276 109.6 Q 268.8 116.8 268.8 127.2 L 294.4 127.2 L 294.4 127.2 Z M 128 300 Q 128 287.2 119.2 278.4 L 119.2 278.4 Q 109.6 268.8 96.8 268.8 L 96.8 294.4 Q 101.6 295.2 102.4 300 L 128 300 L 128 300 Z M 217.6 127.2 Q 217.6 126.4 217.6 126.4 Q 217.6 126.4 217.6 126.4 Q 217.6 126.4 217.6 126.4 Q 217.6 126.4 217.6 127.2 Q 216.8 127.2 216.8 127.2 L 231.2 148 Q 242.4 141.6 243.2 127.2 L 217.6 127.2 L 217.6 127.2 Z M 293.6 384 Q 294.4 384 294.4 384.8 L 268.8 384.8 Q 268.8 395.2 276 402.4 Q 283.2 409.6 293.6 409.6 L 293.6 384 L 293.6 384 Z M 295.2 127.2 Q 295.2 127.2 295.2 127.2 L 295.2 127.2 Q 294.4 127.2 294.4 126.4 Q 294.4 126.4 294.4 126.4 Q 294.4 126.4 294.4 126.4 Q 294.4 126.4 294.4 126.4 Q 294.4 126.4 294.4 126.4 Q 294.4 126.4 294.4 126.4 L 268.8 126.4 Q 269.6 141.6 280.8 148 L 295.2 127.2 L 295.2 127.2 Z M 140.8 384 Q 128.8 383.2 128 371.2 L 102.4 371.2 Q 103.2 387.2 113.6 398.4 Q 124.8 408.8 140.8 409.6 L 140.8 384 L 140.8 384 Z M 243.2 127.2 Q 243.2 116.8 236 109.6 L 236 109.6 Q 228.8 102.4 219.2 102.4 L 219.2 128 Q 217.6 128 217.6 127.2 L 243.2 127.2 L 243.2 127.2 Z" />
</svg>