<svg xmlns="http://www.w3.org/2000/svg" viewBox="0 0 640 512">
  <path d="M 16 0 Q 1 1 0 16 Q 1 31 16 32 L 64 32 L 64 32 L 64 96 L 64 96 L 48 96 L 48 96 Q 28 97 14 110 Q 1 124 0 144 L 0 368 L 0 368 Q 1 388 14 402 Q 28 415 48 416 L 64 416 L 64 416 Q 65 457 92 484 Q 119 511 160 512 Q 201 511 228 484 Q 255 457 256 416 L 384 416 L 384 416 Q 385 457 412 484 Q 439 511 480 512 Q 521 511 548 484 Q 575 457 576 416 L 592 416 L 592 416 Q 612 415 626 402 Q 639 388 640 368 L 640 144 L 640 144 Q 639 124 626 110 Q 612 97 592 96 L 544 96 L 544 96 Q 544 82 535 73 Q 526 64 512 64 Q 498 64 489 73 Q 480 82 480 96 L 384 96 L 384 96 L 384 32 L 384 32 L 624 32 L 624 32 Q 639 31 640 16 Q 639 1 624 0 L 16 0 L 16 0 Z M 352 32 L 352 96 L 352 32 L 352 96 L 288 96 L 288 96 L 288 32 L 288 32 L 352 32 L 352 32 Z M 352 128 L 384 128 L 352 128 L 384 128 L 384 256 L 384 256 L 32 256 L 32 256 L 32 144 L 32 144 Q 33 129 48 128 L 64 128 L 352 128 Z M 416 128 L 480 128 L 416 128 L 592 128 Q 607 129 608 144 L 608 368 L 608 368 Q 607 383 592 384 L 571 384 L 571 384 Q 560 356 536 338 Q 512 321 480 320 Q 448 321 424 338 Q 400 356 390 384 L 251 384 L 251 384 Q 240 356 216 338 Q 192 321 160 320 Q 128 321 104 338 Q 80 356 70 384 L 48 384 L 48 384 Q 33 383 32 368 L 32 288 L 32 288 L 392 288 L 392 288 Q 414 286 416 264 L 416 128 L 416 128 Z M 256 32 L 256 96 L 256 32 L 256 96 L 192 96 L 192 96 L 192 32 L 192 32 L 256 32 L 256 32 Z M 160 32 L 160 96 L 160 32 L 160 96 L 96 96 L 96 96 L 96 32 L 96 32 L 160 32 L 160 32 Z M 480 192 L 544 192 L 480 192 L 544 192 L 544 256 L 544 256 L 480 256 L 480 256 L 480 192 L 480 192 Z M 472 160 Q 450 162 448 184 L 448 264 L 448 264 Q 450 286 472 288 L 552 288 L 552 288 Q 574 286 576 264 L 576 184 L 576 184 Q 574 162 552 160 L 472 160 L 472 160 Z M 160 352 Q 196 353 215 384 Q 233 416 215 448 Q 196 479 160 480 Q 124 479 105 448 Q 87 416 105 384 Q 124 353 160 352 L 160 352 Z M 416 416 Q 417 380 448 361 Q 480 343 512 361 Q 543 380 544 416 Q 543 452 512 471 Q 480 489 448 471 Q 417 452 416 416 L 416 416 Z" />
</svg>