<svg xmlns="http://www.w3.org/2000/svg" viewBox="0 0 517 517">
  <path d="M 208 32 Q 256 32 296 56 L 296 56 L 296 56 Q 336 79 360 120 Q 384 162 384 208 Q 384 254 360 296 Q 336 337 296 360 Q 256 384 208 384 Q 160 384 120 360 Q 80 337 56 296 Q 32 254 32 208 Q 32 162 56 120 Q 80 79 120 56 Q 160 32 208 32 L 208 32 Z M 208 416 Q 287 414 343 366 L 485 507 L 485 507 Q 496 517 507 507 Q 517 496 507 485 L 366 343 L 366 343 Q 414 287 416 208 Q 414 120 355 61 Q 296 2 208 0 Q 120 2 61 61 Q 2 120 0 208 Q 2 296 61 355 Q 120 414 208 416 L 208 416 Z M 192 112 Q 191 97 176 96 Q 161 97 160 112 L 160 304 L 160 304 Q 161 319 176 320 Q 191 319 192 304 L 192 112 L 192 112 Z M 128 144 Q 127 129 112 128 Q 97 129 96 144 L 96 272 L 96 272 Q 97 287 112 288 Q 127 287 128 272 L 128 144 L 128 144 Z M 256 144 Q 255 129 240 128 Q 225 129 224 144 L 224 272 L 224 272 Q 225 287 240 288 Q 255 287 256 272 L 256 144 L 256 144 Z M 320 176 Q 319 161 304 160 Q 289 161 288 176 L 288 240 L 288 240 Q 289 255 304 256 Q 319 255 320 240 L 320 176 L 320 176 Z" />
</svg>