<svg xmlns="http://www.w3.org/2000/svg" viewBox="0 0 576 512">
  <path d="M 48 64 Q 33 65 32 80 L 32 368 L 32 368 Q 33 383 48 384 L 528 384 L 528 384 Q 543 383 544 368 L 544 80 L 544 80 Q 543 65 528 64 L 512 64 L 48 64 Z M 512 32 L 528 32 L 512 32 L 528 32 Q 548 33 562 46 Q 575 60 576 80 L 576 368 L 576 368 Q 575 388 562 402 Q 548 415 528 416 L 512 416 L 512 416 L 512 496 L 512 496 Q 511 511 496 512 Q 481 511 480 496 L 480 416 L 480 416 L 96 416 L 96 416 L 96 496 L 96 496 Q 95 511 80 512 Q 65 511 64 496 L 64 416 L 64 416 L 48 416 L 48 416 Q 28 415 14 402 Q 1 388 0 368 L 0 80 L 0 80 Q 1 60 14 46 Q 28 33 48 32 L 64 32 L 64 32 L 64 16 L 64 16 Q 65 1 80 0 Q 95 1 96 16 L 96 32 L 96 32 L 480 32 L 480 32 L 480 16 L 480 16 Q 481 1 496 0 Q 511 1 512 16 L 512 32 L 512 32 Z" />
</svg>