<svg xmlns="http://www.w3.org/2000/svg" viewBox="0 0 640 512">
  <path d="M 256 480 Q 269 480 285 467 L 285 467 L 285 467 Q 301 454 318 423 Q 321 416 325 408 Q 330 430 340 449 Q 334 460 328 468 Q 337 465 347 461 Q 355 475 366 487 Q 316 511 256 512 Q 184 511 127 477 Q 69 443 35 385 Q 1 328 0 256 Q 1 184 35 127 Q 69 69 127 35 Q 184 1 256 0 Q 347 2 414 55 Q 481 108 504 192 Q 500 192 496 192 Q 483 192 471 194 L 471 192 L 471 192 L 380 192 L 380 192 Q 383 212 384 233 Q 365 248 352 267 Q 352 262 352 256 Q 352 222 348 192 L 164 192 L 164 192 Q 160 222 160 256 Q 160 290 164 320 L 327 320 L 327 320 Q 322 335 321 352 L 170 352 L 170 352 Q 179 393 194 423 Q 211 454 227 467 Q 243 480 256 480 L 256 480 Z M 170 160 L 342 160 L 170 160 L 342 160 Q 333 119 318 89 Q 301 58 285 45 Q 269 32 256 32 Q 243 32 227 45 Q 211 58 194 89 Q 179 119 170 160 L 170 160 Z M 458 160 Q 439 119 405 89 L 405 89 L 405 89 Q 371 59 328 44 Q 360 87 375 160 L 459 160 L 458 160 Z M 137 160 Q 152 87 184 44 Q 141 59 107 89 Q 73 119 54 160 L 137 160 L 137 160 Z M 41 192 Q 32 223 32 256 Q 32 289 41 320 L 132 320 L 132 320 Q 128 289 128 256 Q 128 223 132 192 L 41 192 L 41 192 Z M 185 468 Q 152 425 137 352 L 54 352 L 54 352 Q 73 393 107 423 Q 141 453 185 468 L 185 468 Z M 496 480 Q 526 480 552 465 L 552 465 L 552 465 Q 578 450 593 424 Q 608 398 608 368 Q 608 338 593 312 Q 578 286 552 271 Q 526 256 496 256 Q 466 256 440 271 Q 414 286 399 312 Q 384 338 384 368 Q 384 398 399 424 Q 414 450 440 465 Q 466 480 496 480 L 496 480 Z M 496 224 Q 535 224 568 243 L 568 243 L 568 243 Q 601 262 621 296 Q 640 330 640 368 Q 640 406 621 440 Q 601 474 568 493 Q 535 512 496 512 Q 457 512 424 493 Q 391 474 371 440 Q 352 406 352 368 Q 352 330 371 296 Q 391 262 424 243 Q 457 224 496 224 L 496 224 Z M 496 328 Q 460 329 435 352 Q 423 360 412 350 Q 403 338 413 328 Q 447 297 496 296 Q 545 297 579 328 Q 589 338 580 350 Q 569 360 557 352 Q 532 329 496 328 L 496 328 Z M 476 432 Q 478 414 496 412 Q 514 414 516 432 Q 514 450 496 452 Q 478 450 476 432 L 476 432 Z M 469 394 Q 457 403 447 393 Q 438 381 448 371 Q 468 353 496 352 Q 524 353 544 371 Q 554 381 545 393 Q 534 403 523 394 Q 512 384 496 384 Q 480 384 469 394 L 469 394 Z" />
</svg>