<svg xmlns="http://www.w3.org/2000/svg" viewBox="0 0 320 448">
  <path d="M 283 160 L 160 37 L 283 160 L 160 37 L 37 160 L 37 160 L 283 160 L 283 160 Z M 8 144 L 146 6 L 8 144 L 146 6 Q 152 0 160 0 Q 168 0 174 6 L 312 144 L 312 144 Q 320 152 320 164 Q 320 176 312 184 Q 304 192 292 192 L 28 192 L 28 192 Q 16 192 8 184 Q 0 176 0 164 Q 0 152 8 144 L 8 144 Z M 283 288 L 37 288 L 283 288 L 37 288 L 160 411 L 160 411 L 283 288 L 283 288 Z M 8 304 Q 0 296 0 284 Q 0 272 8 264 Q 16 256 28 256 L 292 256 L 292 256 Q 304 256 312 264 Q 320 272 320 284 Q 320 296 312 304 L 174 442 L 174 442 Q 168 448 160 448 Q 152 448 146 442 L 8 304 L 8 304 Z" />
</svg>