<svg xmlns="http://www.w3.org/2000/svg" viewBox="0 0 512 512">
  <path d="M 25.6 128 Q 26.4 106.4 40.8 92 L 40.8 92 Q 55.2 77.6 76.8 76.8 L 281.6 76.8 Q 303.2 77.6 317.6 92 Q 332 106.4 332.8 128 L 332.8 160.8 Q 344.8 152.8 358.4 153.6 L 358.4 128 Q 357.6 95.2 336 73.6 Q 314.4 52 281.6 51.2 L 76.8 51.2 Q 44 52 22.4 73.6 Q 0.8 95.2 0 128 L 0 332.8 Q 0.8 365.6 22.4 387.2 Q 44 408.8 76.8 409.6 L 251.2 409.6 Q 244.8 397.6 240 384 L 76.8 384 Q 55.2 383.2 40.8 368.8 Q 26.4 354.4 25.6 332.8 Q 26.4 311.2 40.8 296.8 Q 55.2 282.4 76.8 281.6 L 241.6 281.6 Q 247.2 268.8 253.6 256 L 76.8 256 Q 46.4 256.8 25.6 275.2 L 25.6 128 L 25.6 128 Z M 230.4 331.2 Q 230.4 325.6 231.2 320 L 76.8 320 Q 64.8 320.8 64 332.8 Q 64.8 344.8 76.8 345.6 L 231.2 345.6 Q 230.4 338.4 230.4 331.2 L 230.4 331.2 Z M 407.2 254.4 Q 419.2 253.6 427.2 244 Q 432 238.4 436.8 232.8 Q 456.8 255.2 469.6 281.6 Q 486.4 315.2 486.4 332.8 Q 485.6 376 456.8 404.8 Q 428 434.4 384 435.2 Q 340 434.4 311.2 404.8 Q 282.4 376 281.6 332.8 Q 281.6 309.6 304 272 Q 323.2 240.8 355.2 209.6 Q 372 226.4 387.2 244.8 Q 395.2 253.6 407.2 254.4 L 407.2 254.4 Z M 390.4 208.8 Q 376.8 195.2 363.2 182.4 Q 359.2 179.2 355.2 179.2 Q 350.4 179.2 347.2 182.4 Q 306.4 218.4 281.6 258.4 Q 256.8 299.2 256 332.8 Q 257.6 387.2 292.8 423.2 Q 328.8 459.2 384 460.8 Q 438.4 459.2 474.4 423.2 Q 510.4 387.2 512 332.8 Q 512 320.8 506.4 304 Q 501.6 287.2 492.8 269.6 Q 474.4 233.6 444 204.8 Q 436 198.4 428 204.8 Q 426.4 207.2 424 208.8 Q 415.2 218.4 407.2 228.8 Q 399.2 218.4 389.6 208.8 L 390.4 208.8 Z M 356 256 Q 350.4 256 346.4 260.8 Q 328 282.4 318.4 299.2 Q 307.2 316 307.2 334.4 Q 308 369.6 330.4 389.6 Q 352.8 409.6 384.8 409.6 Q 410.4 409.6 431.2 395.2 L 431.2 395.2 L 431.2 395.2 Q 453.6 378.4 459.2 352.8 Q 464 326.4 451.2 302.4 L 451.2 301.6 Q 448.8 296.8 444.8 290.4 Q 440.8 285.6 435.2 285.6 Q 428.8 285.6 424.8 290.4 L 406.4 312 L 392 294.4 Q 385.6 285.6 380 278.4 Q 368.8 264 366.4 260.8 Q 362.4 256 356 256 L 356 256 Z M 432 320.8 Q 437.6 336 432.8 350.4 L 432.8 350.4 Q 428.8 365.6 416.8 374.4 Q 402.4 384 384.8 384 Q 361.6 384 347.2 371.2 Q 333.6 358.4 332.8 334.4 Q 332.8 324.8 340 312 Q 345.6 302.4 356 289.6 L 372 309.6 L 388 330.4 L 393.6 337.6 L 395.2 339.2 L 395.2 340 L 395.2 340 L 395.2 340 L 395.2 340 L 395.2 340 L 405.6 332 L 395.2 340 Q 399.2 344.8 405.6 344.8 Q 411.2 344.8 415.2 340 L 432 320.8 L 432 320.8 Z" />
</svg>