<svg xmlns="http://www.w3.org/2000/svg" viewBox="0 0 645 514">
  <path d="M 448 290 Q 431 290 416 287 L 416 354 L 416 354 L 336 354 L 336 354 L 336 244 L 336 244 Q 327 236 320 226 L 304 226 L 304 226 L 304 354 L 304 354 L 208 354 L 208 354 L 208 226 L 208 226 L 176 226 L 176 226 L 176 354 L 176 354 L 96 354 L 96 354 L 96 226 L 96 226 L 64 226 L 64 226 L 64 354 L 64 354 Q 49 355 48 370 Q 49 385 64 386 L 448 386 L 448 386 Q 463 385 464 370 Q 463 355 448 354 L 448 290 L 448 290 Z M 264 4 Q 256 0 248 4 L 16 136 L 16 136 Q 1 145 0 163 Q 0 176 9 185 Q 18 194 31 194 L 301 194 L 301 194 Q 295 179 291 162 L 34 162 L 34 162 L 256 36 L 256 36 L 303 63 L 303 63 Q 310 48 319 35 L 264 4 L 264 4 Z M 24 434 Q 25 449 40 450 L 472 450 L 472 450 Q 487 449 488 434 Q 487 419 472 418 L 40 418 L 40 418 Q 25 419 24 434 L 24 434 Z M 0 498 Q 1 513 16 514 L 496 514 L 496 514 Q 511 513 512 498 Q 511 483 496 482 L 16 482 L 16 482 Q 1 483 0 498 L 0 498 Z M 448 34 Q 474 34 496 47 L 496 47 L 496 47 Q 518 60 531 82 Q 544 105 544 130 Q 544 155 531 178 Q 518 201 496 213 Q 474 226 448 226 Q 422 226 400 213 Q 378 201 365 178 Q 352 155 352 130 Q 352 105 365 82 Q 378 60 400 47 Q 422 34 448 34 L 448 34 Z M 448 258 Q 493 257 527 231 L 613 317 L 613 317 Q 624 327 635 317 Q 645 306 635 295 L 549 209 L 549 209 Q 575 175 576 130 Q 575 76 539 40 Q 502 4 448 2 Q 394 4 357 40 Q 321 76 320 130 Q 321 185 357 221 Q 394 257 448 258 L 448 258 Z" />
</svg>