<svg xmlns="http://www.w3.org/2000/svg" viewBox="0 0 640 520">
  <path d="M 16 0 Q 1 1 0 16 Q 1 31 16 32 L 54 32 L 54 32 Q 66 33 70 45 L 129 333 L 129 333 Q 134 356 151 370 Q 168 384 191 384 L 321 384 L 321 384 Q 320 376 320 368 Q 320 360 321 352 L 191 352 L 191 352 Q 166 350 160 326 L 152 288 L 152 288 L 339 288 L 339 288 Q 348 271 360 256 L 145 256 L 145 256 L 106 64 L 106 64 L 540 64 L 540 64 L 507 192 L 507 192 Q 524 193 539 197 L 571 72 L 571 72 Q 574 56 565 44 Q 556 33 540 32 L 99 32 L 99 32 Q 87 2 54 0 L 16 0 L 16 0 Z M 168 456 Q 170 434 192 432 Q 214 434 216 456 Q 214 478 192 480 Q 170 478 168 456 L 168 456 Z M 248 456 Q 247 424 220 408 Q 192 392 164 408 Q 137 424 136 456 Q 137 488 164 504 Q 192 520 220 504 Q 247 488 248 456 L 248 456 Z M 384 368 Q 384 338 399 312 L 399 312 L 399 312 Q 414 286 440 271 Q 466 256 496 256 Q 526 256 552 271 Q 578 286 593 312 Q 608 338 608 368 Q 608 398 593 424 Q 578 450 552 465 Q 526 480 496 480 Q 466 480 440 465 Q 414 450 399 424 Q 384 398 384 368 L 384 368 Z M 640 368 Q 640 329 621 296 L 621 296 L 621 296 Q 602 263 568 243 Q 534 224 496 224 Q 458 224 424 243 Q 390 263 371 296 Q 352 329 352 368 Q 352 407 371 440 Q 390 473 424 493 Q 458 512 496 512 Q 534 512 568 493 Q 602 473 621 440 Q 640 407 640 368 L 640 368 Z M 555 331 Q 565 320 555 309 Q 544 299 533 309 L 496 345 L 496 345 L 459 309 L 459 309 Q 448 299 437 309 Q 427 320 437 331 L 473 368 L 473 368 L 437 405 L 437 405 Q 427 416 437 427 Q 448 437 459 427 L 496 391 L 496 391 L 533 427 L 533 427 Q 544 437 555 427 Q 565 416 555 405 L 519 368 L 519 368 L 555 331 L 555 331 Z" />
</svg>