<svg xmlns="http://www.w3.org/2000/svg" viewBox="0 0 640 512">
  <path d="M 320 96 Q 334 96 343 87 L 343 87 L 343 87 Q 352 78 352 64 Q 352 50 343 41 Q 334 32 320 32 Q 306 32 297 41 Q 288 50 288 64 Q 288 78 297 87 Q 306 96 320 96 L 320 96 Z M 320 0 Q 356 1 375 32 Q 393 64 375 96 Q 356 127 320 128 Q 284 127 265 96 Q 247 64 265 32 Q 284 1 320 0 L 320 0 Z M 298 192 Q 278 192 265 205 L 265 205 L 265 205 Q 252 217 250 236 L 246 285 L 246 285 Q 245 300 254 310 Q 263 320 278 320 L 363 320 L 363 320 Q 377 320 386 310 Q 395 300 394 285 L 390 236 L 390 236 Q 388 217 375 205 Q 362 192 342 192 L 298 192 L 298 192 Z M 298 160 L 342 160 L 298 160 L 342 160 Q 374 161 397 181 Q 419 202 422 233 L 426 283 L 426 283 Q 428 305 416 323 Q 404 341 384 348 L 384 496 L 384 496 Q 383 511 368 512 Q 353 511 352 496 L 352 352 L 352 352 L 288 352 L 288 352 L 288 496 L 288 496 Q 287 511 272 512 Q 257 511 256 496 L 256 348 L 256 348 Q 236 341 224 323 Q 212 305 214 283 L 218 233 L 218 233 Q 221 202 243 181 Q 266 161 298 160 L 298 160 Z M 32 32 Q 100 33 157 60 L 157 60 L 157 60 Q 214 88 254 137 Q 239 143 227 154 Q 191 112 141 88 Q 91 64 32 64 L 32 112 L 32 112 Q 32 170 57 218 Q 81 267 124 301 L 136 310 L 136 310 Q 146 320 139 332 L 130 345 L 130 345 Q 97 389 96 448 L 112 448 L 112 448 Q 177 447 224 408 L 224 447 L 224 447 Q 175 479 112 480 L 96 480 L 96 480 Q 82 480 73 471 Q 64 462 64 448 Q 65 378 104 326 Q 56 288 28 233 Q 1 178 0 112 L 0 64 L 0 64 Q 0 50 9 41 Q 18 32 32 32 L 32 32 Z M 414 154 Q 401 143 386 137 Q 426 88 483 60 Q 540 33 608 32 Q 622 32 631 41 Q 640 50 640 64 L 640 112 L 640 112 Q 639 178 612 233 Q 584 288 536 326 Q 575 378 576 448 Q 576 462 567 471 Q 558 480 544 480 L 528 480 L 528 480 Q 465 479 416 447 L 416 408 L 416 408 Q 463 447 528 448 L 544 448 L 544 448 Q 543 389 510 345 L 501 332 L 501 332 Q 494 320 504 310 L 516 301 L 516 301 Q 559 267 583 218 Q 608 170 608 112 L 608 64 L 608 64 Q 549 64 499 88 Q 449 112 414 154 L 414 154 Z" />
</svg>