<svg xmlns="http://www.w3.org/2000/svg" viewBox="0 0 512 512">
  <path d="M 448 80 L 448 182 Q 426 198 379 210 Q 326 224 256 224 Q 186 224 133 210 Q 86 198 64 182 L 64 80 Q 64 79 70 73 Q 81 64 108 54 Q 165 33 256 32 Q 347 33 404 54 Q 431 64 442 73 Q 448 79 448 80 L 448 80 Z M 448 220 L 448 310 Q 426 326 379 338 Q 326 352 256 352 Q 186 352 133 338 Q 86 327 64 310 L 64 220 Q 90 233 125 241 Q 183 256 256 256 Q 329 256 387 242 Q 422 233 448 220 L 448 220 Z M 64 432 L 64 348 Q 90 361 125 370 Q 183 384 256 384 Q 329 384 387 370 Q 422 361 448 348 L 448 432 Q 448 433 442 439 Q 431 448 404 458 Q 347 479 256 480 Q 165 479 108 458 Q 81 448 70 439 Q 64 433 64 432 L 64 432 Z M 448 431 Q 448 431 448 431 Q 448 431 448 431 Q 448 431 448 431 Q 448 431 448 431 L 448 431 Z M 64 431 Q 64 431 64 431 Q 64 431 64 431 Q 64 431 64 431 Q 64 431 64 431 Q 64 431 64 431 Q 64 431 64 431 Q 64 431 64 431 Q 64 431 64 431 L 64 431 Z M 64 81 Q 64 81 64 81 Q 64 81 64 81 Q 64 81 64 81 Q 64 81 64 81 Q 64 81 64 81 Q 64 80 64 81 Q 64 81 64 81 Q 64 81 64 81 L 64 81 Z M 448 81 Q 448 81 448 81 Q 448 81 448 81 Q 448 81 448 81 Q 448 81 448 81 L 448 81 Z M 480 432 L 480 80 Q 478 46 414 23 Q 351 1 256 0 Q 161 1 98 23 Q 34 46 32 80 L 32 432 Q 34 466 98 489 Q 161 511 256 512 Q 351 511 414 489 Q 478 466 480 432 L 480 432 Z" />
</svg>