<svg xmlns="http://www.w3.org/2000/svg" viewBox="0 0 512 512">
  <path d="M 362.66666 71.111115 L 35.555557 71.111115 Q 29.333334 72 28.444445 78.22222 L 28.444445 99.55556 Q 30.222221 172.44444 78.22222 220.44444 Q 126.22222 268.44446 199.11111 270.22223 Q 205.33333 270.22223 211.55556 270.22223 Q 205.33333 284.44446 202.66667 298.66666 Q 201.77777 298.66666 200.88889 298.66666 Q 200 298.66666 199.11111 298.66666 Q 172.44444 298.66666 147.55556 292.44446 L 124.44444 343.1111 Q 130.66667 348.44446 134.22223 355.55554 L 201.77777 355.55554 Q 204.44444 369.77777 209.77777 384 L 142.22223 384 Q 141.33333 408 125.333336 424 Q 109.333336 440 85.333336 440.8889 Q 61.333332 440 45.333332 424 Q 29.333334 408 28.444445 384 Q 29.333334 360 45.333332 344 Q 61.333332 328 85.333336 327.1111 Q 93.333336 327.1111 99.55556 328.8889 L 120.888885 282.66666 Q 66.666664 258.66666 33.77778 210.66667 Q 0.8888889 161.77777 0 99.55556 L 0 78.22222 Q 0 63.11111 10.666667 53.333332 Q 20.444445 42.666668 35.555557 42.666668 L 362.66666 42.666668 Q 377.77777 42.666668 387.55554 53.333332 Q 398.22223 63.11111 398.22223 78.22222 L 398.22223 99.55556 Q 398.22223 131.55556 388.44446 160.88889 Q 376.8889 149.33333 365.33334 138.66667 L 365.33334 138.66667 Q 369.77777 120 369.77777 99.55556 L 369.77777 78.22222 Q 368.8889 72 362.66666 71.111115 L 362.66666 71.111115 Z M 85.333336 355.55554 Q 72.888885 355.55554 64.888885 363.55554 L 64.888885 363.55554 Q 56.88889 371.55554 56.88889 384 Q 56.88889 396.44446 64.888885 404.44446 Q 72.888885 412.44446 85.333336 412.44446 Q 97.77778 412.44446 105.77778 404.44446 Q 113.77778 396.44446 113.77778 384 Q 113.77778 371.55554 105.77778 363.55554 Q 97.77778 355.55554 85.333336 355.55554 L 85.333336 355.55554 Z M 395.55554 240 Q 382.22223 239.11111 373.33334 229.33333 Q 356.44446 208.88889 337.77777 190.22223 Q 302.22223 224.88889 280.8889 259.55554 Q 256 301.33334 256 327.1111 Q 256.8889 375.1111 288.8889 407.1111 Q 320.8889 440 369.77777 440.8889 Q 418.66666 440 450.66666 407.1111 Q 482.66666 375.1111 483.55554 327.1111 Q 483.55554 307.55554 464.8889 270.22223 Q 450.66666 240.88889 428.44446 216 Q 423.1111 222.22223 417.77777 228.44444 Q 408.8889 239.11111 395.55554 240 L 395.55554 240 Z M 376.8889 189.33333 Q 386.66666 200 395.55554 211.55556 Q 404.44446 200 414.22223 189.33333 Q 416.8889 186.66667 419.55554 184.88889 Q 428.44446 177.77777 437.33334 184.88889 Q 470.22223 216.88889 490.66666 256.8889 Q 500.44446 276.44446 505.77777 295.1111 Q 512 313.77777 512 327.1111 Q 510.22223 387.55554 470.22223 427.55554 Q 430.22223 467.55554 369.77777 469.33334 Q 308.44446 467.55554 268.44446 427.55554 Q 229.33333 387.55554 227.55556 327.1111 Q 228.44444 289.77777 256 245.33333 Q 283.55554 200.88889 328.8889 160 Q 332.44446 156.44444 337.77777 156.44444 Q 342.22223 156.44444 346.66666 160 Q 361.77777 174.22223 376.8889 189.33333 L 376.8889 189.33333 Z M 338.66666 241.77777 Q 345.77777 241.77777 350.22223 247.11111 Q 352.8889 250.66667 365.33334 266.66666 Q 371.55554 274.66666 378.66666 284.44446 L 394.66666 304 L 415.1111 280 Q 419.55554 274.66666 426.66666 274.66666 Q 432.8889 274.66666 437.33334 280 Q 441.77777 287.1111 444.44446 292.44446 Q 444.44446 292.44446 444.44446 292.44446 L 444.44446 293.33334 Q 458.66666 320 453.33334 349.33334 Q 447.1111 377.77777 422.22223 396.44446 L 422.22223 396.44446 L 422.22223 396.44446 Q 399.1111 412.44446 370.66666 412.44446 Q 335.1111 412.44446 310.22223 390.22223 Q 285.33334 368 284.44446 328.8889 Q 284.44446 308.44446 296 289.77777 Q 307.55554 271.1111 328 247.11111 Q 331.55554 241.77777 338.66666 241.77777 L 338.66666 241.77777 Z M 423.1111 313.77777 L 404.44446 335.1111 Q 400 340.44446 393.77777 340.44446 Q 386.66666 340.44446 383.1111 335.1111 L 393.77777 326.22223 L 382.22223 335.1111 L 382.22223 335.1111 L 382.22223 335.1111 L 382.22223 335.1111 L 382.22223 335.1111 L 382.22223 334.22223 L 380.44446 332.44446 L 374.22223 324.44446 L 356.44446 301.33334 L 338.66666 279.1111 Q 327.1111 293.33334 320.8889 304 Q 312.8889 318.22223 312.8889 328.8889 Q 313.77777 355.55554 329.77777 369.77777 Q 344.8889 383.1111 370.66666 384 Q 390.22223 384 406.22223 373.33334 Q 419.55554 363.55554 424 346.66666 Q 428.44446 330.66666 423.1111 313.77777 L 423.1111 313.77777 Z" />
</svg>