<svg xmlns="http://www.w3.org/2000/svg" viewBox="0 0 576 512">
  <path d="M 400 280 L 400 240 L 400 280 L 400 240 L 400 224 L 400 224 Q 399 209 384 208 L 368 208 L 290 208 Q 248 209 221 237 Q 193 264 192 306 Q 192 313 194 321 Q 163 293 160 240 Q 161 186 197 149 Q 234 113 288 112 L 336 112 L 384 112 Q 399 111 400 96 L 400 80 L 400 80 L 400 40 L 400 40 Q 401 33 408 32 Q 411 32 414 34 L 542 156 L 542 156 Q 544 158 544 160 Q 544 162 542 164 L 414 286 L 414 286 Q 411 288 408 288 Q 401 287 400 280 L 400 280 Z M 368 240 L 368 272 L 368 240 L 368 272 L 368 280 L 368 280 Q 368 297 380 308 Q 391 320 408 320 Q 424 320 436 309 L 564 187 L 564 187 Q 576 176 576 160 Q 576 144 564 133 L 436 11 L 436 11 Q 424 0 408 0 Q 391 0 380 12 Q 368 23 368 40 L 368 48 L 368 48 L 368 80 L 368 80 L 336 80 L 288 80 Q 220 82 175 127 Q 130 172 128 240 Q 129 287 150 317 Q 171 347 195 363 Q 218 379 229 383 Q 232 384 236 384 Q 254 382 256 364 L 256 363 L 256 363 Q 256 352 248 345 Q 240 338 232 328 Q 225 317 224 305 Q 225 278 243 259 Q 262 241 290 240 L 336 240 L 368 240 Z M 64 32 Q 37 33 19 51 L 19 51 L 19 51 Q 1 69 0 96 L 0 448 L 0 448 Q 1 475 19 493 Q 37 511 64 512 L 416 512 L 416 512 Q 443 511 461 493 Q 479 475 480 448 L 480 400 L 480 400 Q 479 385 464 384 Q 449 385 448 400 L 448 448 L 448 448 Q 448 462 439 471 Q 430 480 416 480 L 64 480 L 64 480 Q 50 480 41 471 Q 32 462 32 448 L 32 96 L 32 96 Q 32 82 41 73 Q 50 64 64 64 L 112 64 L 112 64 Q 127 63 128 48 Q 127 33 112 32 L 64 32 L 64 32 Z" />
</svg>