<svg xmlns="http://www.w3.org/2000/svg" viewBox="0 0 512 512">
  <path d="M 426.66666 227.55556 Q 436.44446 228.44444 440 237.33333 L 441.77777 237.33333 Q 440.8889 237.33333 440 237.33333 Q 440.8889 239.11111 440.8889 241.77777 Q 440 255.11111 426.66666 256 Q 414.22223 255.11111 412.44446 241.77777 Q 414.22223 228.44444 426.66666 227.55556 L 426.66666 227.55556 Z M 399.1111 160 Q 418.66666 162.66667 436.44446 172.44444 Q 434.66666 123.55556 400 88.888885 L 399.1111 87.111115 Q 396.44446 84.44444 392.8889 85.333336 L 391.1111 85.333336 Q 387.55554 86.22222 386.66666 88.888885 Q 376 79.111115 364.44446 70.22222 Q 372.44446 60.444443 385.77777 57.77778 L 386.66666 57.77778 Q 405.33334 54.22222 418.66666 66.666664 L 420.44446 68.44444 Q 445.33334 92.44444 456 124.44444 Q 467.55554 156.44444 464 191.11111 L 485.33334 207.11111 Q 511.1111 227.55556 512 260.44446 Q 511.1111 288.8889 492.44446 307.55554 Q 473.77777 326.22223 445.33334 327.1111 L 361.77777 327.1111 L 333.33334 355.55554 L 376.8889 355.55554 Q 394.66666 356.44446 407.1111 368 Q 418.66666 380.44446 419.55554 398.22223 Q 418.66666 416 407.1111 428.44446 Q 394.66666 440.8889 376.8889 440.8889 L 272.8889 440.8889 Q 243.55556 440.8889 222.22223 420.44446 L 210.66667 408.8889 L 152 448 Q 136 457.77777 120 454.22223 Q 103.111115 450.66666 92.44444 436.44446 Q 82.666664 420.44446 86.22222 404.44446 Q 89.77778 387.55554 104 376.8889 L 149.33333 347.55554 L 100.44444 298.66666 Q 87.111115 285.33334 80 268.44446 Q 72 270.22223 64 270.22223 Q 36.444443 269.33334 18.666666 251.55556 Q 0.8888889 233.77777 0 206.22223 Q 0.8888889 178.66667 18.666666 160.88889 Q 36.444443 143.11111 64 142.22223 Q 86.22222 142.22223 102.22222 155.55556 Q 129.77777 128.88889 170.66667 128 L 178.66667 128 Q 201.77777 128 223.11111 137.77777 L 281.77777 164.44444 Q 279.1111 157.33333 277.33334 149.33333 L 267.55554 116.44444 Q 262.22223 89.77778 285.33334 73.77778 L 292.44446 86.22222 L 285.33334 73.77778 L 287.1111 72.888885 Q 299.55554 65.77778 313.77777 70.22222 Q 344.8889 80.888885 368 104.888885 Q 390.22223 128 399.1111 160 L 399.1111 160 Z M 72 240.88889 Q 71.111115 234.66667 71.111115 227.55556 Q 71.111115 200 84.44444 177.77777 Q 75.55556 170.66667 64 170.66667 Q 48.88889 170.66667 39.11111 181.33333 Q 28.444445 191.11111 28.444445 206.22223 Q 28.444445 221.33333 39.11111 231.11111 Q 48.88889 241.77777 64 241.77777 Q 68.44444 241.77777 72 240.88889 L 72 240.88889 Z M 120 400.8889 Q 110.22222 408.8889 116.44444 420.44446 Q 124.44444 430.22223 136 424 L 190.22223 388.44446 L 169.77777 368 L 120 400.8889 L 120 400.8889 Z M 298.66666 384 Q 293.33334 384 289.77777 381.33334 Q 288.8889 380.44446 288 379.55554 Q 285.33334 376 284.44446 371.55554 Q 284.44446 371.55554 284.44446 370.66666 L 282.66666 349.33334 Q 280 317.33334 261.33334 294.22223 Q 242.66667 270.22223 212.44444 261.33334 L 194.66667 255.11111 Q 183.11111 250.66667 185.77777 237.33333 Q 190.22223 225.77777 203.55556 228.44444 L 221.33333 233.77777 Q 257.77777 245.33333 280.8889 272.8889 Q 304.8889 300.44446 310.22223 337.77777 L 345.77777 303.1111 Q 349.33334 298.66666 355.55554 298.66666 L 445.33334 298.66666 Q 461.33334 297.77777 472 287.1111 Q 483.55554 276.44446 483.55554 260.44446 Q 483.55554 240.88889 468.44446 229.33333 L 434.66666 204.44444 Q 413.33334 188.44444 387.55554 187.55556 Q 376.8889 186.66667 374.22223 176.88889 L 372.44446 169.77777 Q 365.33334 144 347.55554 124.44444 Q 329.77777 105.77778 304.8889 96.888885 Q 303.1111 96.888885 301.33334 97.77778 L 298.66666 384 Z M 301.33334 97.77778 L 299.55554 98.666664 Q 294.22223 102.22222 295.1111 108.44444 L 304 141.33333 Q 312 168.88889 332.44446 187.55556 Q 339.55554 196.44444 334.22223 206.22223 Q 327.1111 215.11111 316.44446 211.55556 L 211.55556 163.55556 Q 195.55556 156.44444 178.66667 156.44444 L 170.66667 156.44444 Q 140.44444 157.33333 120 176.88889 Q 100.44444 197.33333 99.55556 227.55556 Q 99.55556 256.8889 120.888885 278.22223 L 242.66667 400 Q 255.11111 412.44446 272.8889 412.44446 L 376.8889 412.44446 Q 390.22223 411.55554 391.1111 398.22223 Q 390.22223 384.8889 376.8889 384 L 298.66666 384 L 301.33334 97.77778 Z" />
</svg>