<svg xmlns="http://www.w3.org/2000/svg" viewBox="0 0 641 514">
  <path d="M 128 128 Q 128 102 141 80 L 141 80 L 141 80 Q 154 58 176 45 Q 199 32 224 32 Q 249 32 272 45 Q 294 58 307 80 Q 320 102 320 128 Q 320 154 307 176 Q 294 198 272 211 Q 249 224 224 224 Q 199 224 176 211 Q 154 198 141 176 Q 128 154 128 128 L 128 128 Z M 352 128 Q 352 93 335 64 L 335 64 L 335 64 Q 318 35 288 17 Q 258 0 224 0 Q 190 0 160 17 Q 130 35 113 64 Q 96 93 96 128 Q 96 163 113 192 Q 130 221 160 239 Q 190 256 224 256 Q 258 256 288 239 Q 318 221 335 192 Q 352 163 352 128 L 352 128 Z M 32 480 Q 34 419 76 378 L 76 378 L 76 378 Q 117 338 178 336 L 270 336 L 270 336 Q 299 336 325 347 Q 321 328 321 311 Q 296 304 270 304 L 178 304 L 178 304 Q 103 306 52 356 Q 2 407 0 482 Q 0 495 9 503 Q 17 512 30 512 L 418 512 L 418 512 Q 421 512 424 512 Q 404 497 388 480 L 32 480 L 32 480 Z M 384 301 L 480 263 L 384 301 L 480 263 L 480 471 L 480 471 Q 426 439 405 391 Q 384 343 384 301 L 384 301 Z M 608 301 Q 608 343 587 391 L 587 391 L 587 391 Q 566 439 512 471 L 512 263 L 512 263 L 608 301 L 608 301 Z M 505 226 Q 496 222 487 226 L 367 274 L 367 274 Q 353 280 352 296 Q 351 329 363 370 Q 374 411 403 449 Q 433 487 487 510 Q 496 514 505 510 Q 559 487 589 449 Q 618 411 629 370 Q 641 329 640 296 Q 639 280 625 274 L 505 226 L 505 226 Z" />
</svg>