<svg xmlns="http://www.w3.org/2000/svg" viewBox="0 0 512 512">
  <path d="M 155.762 71.73896 Q 155.762 57.980804 146.91747 49.136276 L 146.91747 49.136276 Q 138.07294 40.291748 124.31478 40.291748 Q 110.556625 40.291748 101.71209 49.136276 Q 92.86756 57.980804 92.86756 71.73896 Q 92.86756 85.49712 101.71209 94.34165 Q 110.556625 103.18618 124.31478 103.18618 Q 138.07294 103.18618 146.91747 94.34165 Q 155.762 85.49712 155.762 71.73896 L 155.762 71.73896 Z M 61.420345 71.73896 Q 62.403072 36.360844 92.86756 17.68906 Q 124.31478 0 155.762 17.68906 Q 186.22649 36.360844 187.20921 71.73896 Q 186.22649 107.11708 155.762 125.788864 Q 124.31478 143.47792 92.86756 125.788864 Q 62.403072 107.11708 61.420345 71.73896 L 61.420345 71.73896 Z M 55.52399 240.76776 L 51.59309 288.9213 Q 50.610363 303.6622 59.454895 313.48944 Q 68.29942 323.3167 83.040306 323.3167 L 166.57198 323.3167 Q 180.33014 323.3167 189.17467 313.48944 Q 198.0192 303.6622 197.03647 288.9213 L 193.10556 240.76776 Q 191.14012 222.09596 178.36469 210.30327 Q 165.58925 197.52783 145.93474 197.52783 L 102.69482 197.52783 Q 83.040306 197.52783 70.26488 210.30327 Q 57.489445 222.09596 55.52399 240.76776 L 55.52399 240.76776 Z M 24.076775 237.81958 Q 27.024952 207.35509 48.644913 186.71785 L 48.644913 186.71785 Q 71.247604 167.06334 102.69482 166.08061 L 145.93474 166.08061 Q 177.38196 167.06334 199.98465 186.71785 Q 221.6046 207.35509 224.55278 237.81958 L 228.48369 286.95584 Q 230.44914 308.5758 218.65643 326.26486 Q 206.86372 343.95395 187.20921 350.833 L 187.20921 496.2764 Q 186.22649 511.01727 171.48561 512 Q 156.74472 511.01727 155.762 496.2764 L 155.762 354.76392 L 92.86756 354.76392 L 92.86756 496.2764 Q 91.884834 511.01727 77.14395 512 Q 62.403072 511.01727 61.420345 496.2764 L 61.420345 350.833 Q 41.765835 343.95395 29.97313 326.26486 Q 18.180422 308.5758 20.145874 286.95584 L 24.076775 237.81958 L 24.076775 237.81958 Z M 407.33972 71.73896 Q 407.33972 57.980804 398.4952 49.136276 L 398.4952 49.136276 Q 389.65067 40.291748 375.89252 40.291748 Q 362.13437 40.291748 353.28983 49.136276 Q 344.4453 57.980804 344.4453 71.73896 Q 344.4453 85.49712 353.28983 94.34165 Q 362.13437 103.18618 375.89252 103.18618 Q 389.65067 103.18618 398.4952 94.34165 Q 407.33972 85.49712 407.33972 71.73896 L 407.33972 71.73896 Z M 312.99808 71.73896 Q 313.9808 36.360844 344.4453 17.68906 Q 375.89252 0 407.33972 17.68906 Q 437.80423 36.360844 438.78696 71.73896 Q 437.80423 107.11708 407.33972 125.788864 Q 375.89252 143.47792 344.4453 125.788864 Q 313.9808 107.11708 312.99808 71.73896 L 312.99808 71.73896 Z M 330.68713 220.13052 L 291.3781 354.76392 L 460.40692 354.76392 L 422.08063 220.13052 Q 414.2188 198.51056 391.61612 197.52783 L 360.1689 197.52783 Q 337.56622 198.51056 330.68713 220.13052 L 330.68713 220.13052 Z M 300.22266 211.286 Q 306.119 190.64876 322.82535 178.85605 L 322.82535 178.85605 Q 338.54895 166.08061 360.1689 166.08061 L 391.61612 166.08061 Q 412.25336 166.08061 428.9597 178.85605 Q 445.66602 190.64876 451.56238 211.286 L 489.88867 345.91937 Q 493.81958 361.643 484.97504 373.4357 Q 476.13052 385.2284 459.4242 386.21112 L 438.78696 386.21112 L 438.78696 496.2764 Q 437.80423 511.01727 423.06335 512 Q 408.32245 511.01727 407.33972 496.2764 L 407.33972 386.21112 L 344.4453 386.21112 L 344.4453 496.2764 Q 343.4626 511.01727 328.72168 512 Q 313.9808 511.01727 312.99808 496.2764 L 312.99808 386.21112 L 291.3781 386.21112 Q 275.6545 385.2284 266.80997 373.4357 Q 257.96545 361.643 261.89636 345.91937 L 300.22266 211.286 L 300.22266 211.286 Z" />
</svg>