<svg xmlns="http://www.w3.org/2000/svg" viewBox="0 0 479 512">
  <path d="M 208 16 Q 209 1 224 0 Q 239 1 240 16 L 240 64 L 240 64 L 385 64 L 385 64 Q 400 64 410 76 L 472 150 L 472 150 Q 479 160 472 170 L 410 244 L 410 244 Q 400 256 385 256 L 240 256 L 240 256 L 240 496 L 240 496 Q 239 510 224 512 Q 209 510 208 496 L 208 256 L 208 256 L 32 256 L 32 256 Q 18 256 9 247 Q 0 238 0 224 L 0 96 L 0 96 Q 0 82 9 73 Q 18 64 32 64 L 208 64 L 208 64 L 208 16 L 208 16 Z M 438 160 L 385 96 L 438 160 L 385 96 L 32 96 L 32 96 L 32 224 L 32 224 L 385 224 L 385 224 L 438 160 L 438 160 Z" />
</svg>