<svg xmlns="http://www.w3.org/2000/svg" viewBox="0 0 485 448">
  <path d="M 242 32 Q 314 33 366 77 L 366 77 L 366 77 Q 417 121 431 190 L 431 190 L 431 190 Q 431 190 431 190 Q 430 192 426 192 L 58 192 L 58 192 Q 54 192 53 190 Q 53 190 53 190 Q 53 190 53 190 L 53 190 L 53 190 Q 67 121 118 77 Q 170 33 242 32 L 242 32 Z M 22 184 Q 19 201 30 212 L 30 212 L 30 212 Q 41 224 58 224 L 426 224 L 426 224 Q 443 224 454 212 Q 465 201 463 184 Q 447 104 386 53 Q 326 2 242 0 Q 158 2 98 53 Q 37 104 22 184 L 22 184 Z M 114 416 Q 87 415 69 397 L 69 397 L 69 397 Q 51 379 50 352 L 434 352 L 434 352 Q 433 379 415 397 Q 397 415 370 416 L 114 416 L 114 416 Z M 18 352 Q 19 393 46 420 L 46 420 L 46 420 Q 73 447 114 448 L 370 448 L 370 448 Q 411 447 438 420 Q 465 393 466 352 Q 466 338 457 329 Q 448 320 434 320 L 50 320 L 50 320 Q 36 320 27 329 Q 18 338 18 352 L 18 352 Z M 162 112 Q 161 97 146 96 Q 131 97 130 112 Q 131 127 146 128 Q 161 127 162 112 L 162 112 Z M 242 96 Q 257 95 258 80 Q 257 65 242 64 Q 227 65 226 80 Q 227 95 242 96 L 242 96 Z M 354 112 Q 353 97 338 96 Q 323 97 322 112 Q 323 127 338 128 Q 353 127 354 112 L 354 112 Z M 66 302 Q 95 300 113 286 L 113 286 L 113 286 Q 113 286 114 286 L 116 284 L 116 284 Q 135 271 154 270 Q 172 271 189 284 Q 198 291 211 296 Q 224 302 242 302 Q 260 302 272 296 Q 284 291 293 284 Q 293 284 294 284 L 294 284 L 294 284 Q 309 271 330 270 Q 352 271 370 284 L 372 286 L 372 286 Q 389 300 418 302 Q 446 301 460 293 Q 468 289 472 286 Q 474 284 475 283 Q 475 283 476 283 Q 476 283 476 283 L 476 282 L 476 282 L 476 282 L 476 282 Q 476 282 476 282 Q 476 282 476 282 Q 476 282 476 282 Q 476 282 476 282 Q 476 282 476 282 Q 476 282 476 282 L 466 272 L 466 272 L 476 282 L 476 282 Q 485 272 476 262 Q 466 253 456 262 L 456 262 L 456 262 Q 455 262 454 263 Q 452 265 448 267 Q 438 273 418 274 Q 404 273 385 260 L 385 260 L 385 260 Q 366 245 330 242 Q 312 242 300 248 Q 288 253 279 260 Q 279 260 279 260 L 278 260 L 278 260 Q 263 273 242 274 Q 221 273 205 260 L 203 259 L 203 259 Q 186 245 154 242 Q 121 245 101 260 Q 81 273 66 274 Q 46 273 37 267 Q 32 265 30 263 Q 29 262 28 262 L 28 262 L 28 262 Q 18 253 8 262 Q 0 272 8 282 L 18 272 L 18 272 Q 11 279 9 281 Q 7 283 8 282 Q 8 282 8 282 Q 8 282 8 282 Q 8 282 8 282 Q 8 282 8 282 Q 8 282 8 282 Q 8 282 8 282 L 8 282 L 8 282 L 8 283 L 8 283 Q 8 283 9 283 Q 9 283 9 283 Q 10 284 12 286 Q 16 289 23 293 Q 38 301 66 302 L 66 302 Z" />
</svg>