<svg xmlns="http://www.w3.org/2000/svg" viewBox="0 0 512 512">
  <path d="M 232.278 4.4478765 Q 228.32433 1.4826255 223.38223 1.4826255 Q 218.44016 1.4826255 214.48648 4.4478765 Q 170.00772 45.96139 142.33205 91.42857 Q 114.65637 135.90733 113.66795 174.4556 Q 114.65637 234.74904 155.18147 275.27414 Q 194.71814 315.79922 256 317.77606 Q 316.29343 315.79922 356.81854 275.27414 Q 396.35522 234.74904 398.33203 174.4556 Q 397.34363 143.81467 376.58688 103.28957 Q 356.81854 62.76448 323.21234 30.146719 Q 314.3166 23.227798 305.42084 30.146719 Q 303.444 32.12355 300.47876 35.088802 Q 290.5946 44.972973 281.69885 56.833977 Q 272.8031 44.972973 262.9189 35.088802 Q 248.09267 19.274132 232.278 4.4478765 L 232.278 4.4478765 Z M 281.69885 85.49807 Q 295.53668 85.49807 304.43243 74.62548 Q 309.3745 67.706566 314.3166 62.76448 Q 336.06177 87.47491 350.88803 116.139 Q 369.66797 154.68726 369.66797 174.4556 Q 368.67953 222.88803 336.06177 255.5058 Q 304.43243 288.12357 256 289.11197 Q 207.56757 288.12357 174.94981 255.5058 Q 143.32047 222.88803 142.33205 174.4556 Q 142.33205 147.76834 167.04247 106.25483 Q 188.78764 70.671814 223.38223 36.07722 Q 242.16216 54.857143 259.95367 75.6139 Q 268.84943 85.49807 281.69885 85.49807 L 281.69885 85.49807 Z M 225.35907 86.48649 Q 217.45174 86.48649 212.50966 92.41699 Q 192.74132 116.139 180.88031 135.90733 Q 169.0193 154.68726 169.0193 175.44402 Q 170.00772 215.96912 194.71814 238.7027 Q 220.41699 261.43628 256.9884 261.43628 Q 285.6525 261.43628 309.3745 245.62163 L 309.3745 245.62163 L 309.3745 245.62163 Q 335.07336 225.85329 341.00388 196.20078 Q 346.93436 166.54826 332.1081 138.87259 L 332.1081 138.87259 Q 330.1313 132.94208 324.20078 126.02316 Q 320.2471 120.09267 312.33978 119.10425 Q 305.42084 119.10425 299.49036 125.03475 L 280.71042 147.76834 L 265.88416 129.97684 Q 251.05792 110.208496 242.16216 98.34749 Q 238.2085 93.4054 237.22008 92.41699 Q 232.278 86.48649 225.35907 86.48649 L 225.35907 86.48649 Z M 292.57144 183.35135 L 308.3861 163.58301 Q 313.3282 180.3861 308.3861 195.21236 Q 304.43243 210.0386 291.583 219.92278 Q 275.76834 229.80695 256.9884 229.80695 Q 231.28958 229.80695 216.46332 215.96912 Q 201.63707 203.11969 200.64865 175.44402 Q 200.64865 165.55984 208.55598 151.722 Q 214.48648 141.83784 224.37065 128 L 241.17375 148.75676 L 258.96524 172.47876 L 264.89575 180.3861 L 266.8726 182.36293 L 267.861 182.36293 L 267.861 182.36293 L 267.861 182.36293 L 267.861 182.36293 L 267.861 182.36293 L 279.72202 173.46718 L 267.861 182.36293 Q 271.81467 188.29344 279.72202 189.28186 Q 286.64093 189.28186 291.583 183.35135 L 292.57144 183.35135 Z M 24.710424 287.13513 Q 10.872587 283.18146 3.9536679 296.03088 Q 0 309.8687 12.849421 316.78766 L 213.49806 396.84943 L 12.849421 476.9112 Q 0 483.8301 3.9536679 497.66797 Q 10.872587 510.51736 24.710424 506.56372 L 256 413.6525 L 487.28958 506.56372 Q 501.1274 510.51736 508.04633 497.66797 Q 512 483.8301 499.15057 476.9112 L 298.50192 396.84943 L 499.15057 316.78766 Q 512 309.8687 508.04633 296.03088 Q 501.1274 283.18146 487.28958 287.13513 L 256 380.04633 L 24.710424 287.13513 L 24.710424 287.13513 Z" />
</svg>