<svg xmlns="http://www.w3.org/2000/svg" viewBox="0 0 448 448">
  <path d="M 384 400 Q 399 399 400 384 L 400 64 L 400 64 Q 399 49 384 48 L 64 48 L 64 48 Q 49 49 48 64 L 48 384 L 48 384 Q 49 399 64 400 L 384 400 L 384 400 Z M 448 384 Q 447 411 429 429 L 429 429 L 429 429 Q 411 447 384 448 L 64 448 L 64 448 Q 37 447 19 429 Q 1 411 0 384 L 0 64 L 0 64 Q 1 37 19 19 Q 37 1 64 0 L 384 0 L 384 0 Q 411 1 429 19 Q 447 37 448 64 L 448 384 L 448 384 Z M 207 361 L 119 273 L 207 361 L 119 273 Q 105 256 119 239 Q 136 225 153 239 L 200 286 L 200 286 L 200 104 L 200 104 Q 202 82 224 80 Q 246 82 248 104 L 248 286 L 248 286 L 295 239 L 295 239 Q 312 225 329 239 Q 343 256 329 273 L 241 361 L 241 361 Q 224 375 207 361 L 207 361 Z" />
</svg>