<svg xmlns="http://www.w3.org/2000/svg" viewBox="0 0 458 458">
  <path d="M 391 106 Q 371 150 342 182 Q 316 208 290 223 Q 265 239 241 250 L 240 251 L 240 251 Q 216 262 194 275 Q 171 289 150 310 Q 137 323 125 343 Q 112 364 100 387 Q 136 410 191 403 Q 262 394 329 329 Q 394 262 403 190 Q 410 140 391 106 L 391 106 Z M 355 69 Q 320 48 267 55 Q 196 64 129 129 Q 64 196 55 268 Q 48 316 66 350 Q 88 306 116 276 Q 142 251 168 235 Q 193 219 218 208 L 218 208 L 218 208 Q 242 196 264 183 Q 287 169 308 148 Q 321 135 333 114 Q 345 93 355 69 L 355 69 Z M 408 50 Q 445 88 451 142 L 451 142 L 451 142 Q 458 196 435 255 L 435 255 L 435 255 Q 413 313 363 363 Q 313 413 254 436 Q 196 458 142 452 Q 88 445 50 408 Q 13 370 6 316 Q 0 262 22 203 Q 45 145 95 95 Q 145 45 203 22 Q 262 0 316 6 Q 370 13 408 50 L 408 50 Z" />
</svg>