<svg xmlns="http://www.w3.org/2000/svg" viewBox="0 0 512 512">
  <path d="M 1 240 Q 7 312 50 366 Q 64 382 64 399 L 64 488 L 64 488 Q 66 510 88 512 Q 110 510 112 488 L 112 399 L 112 399 Q 110 361 88 335 Q 54 295 49 240 L 1 240 L 1 240 Z M 123 80 Q 167 49 224 48 L 248 48 L 288 48 Q 244 49 216 80 L 123 80 L 123 80 Z M 51 81 Q 29 86 15 103 L 15 103 L 15 103 Q 0 120 0 144 Q 1 171 19 189 Q 37 207 64 208 L 216 208 L 216 208 Q 244 239 288 240 L 384 240 L 464 240 Q 484 239 498 226 Q 511 212 512 192 L 512 96 L 512 96 Q 511 76 498 62 Q 484 49 464 48 L 432 48 L 379 48 Q 323 2 248 0 L 224 0 L 224 0 Q 171 0 127 22 Q 83 44 51 81 L 51 81 Z M 464 272 Q 463 287 448 288 L 424 288 L 424 288 Q 402 290 400 312 L 400 384 L 400 384 Q 399 399 384 400 L 296 400 L 296 400 Q 274 402 272 424 L 272 488 L 272 488 Q 274 510 296 512 Q 318 510 320 488 L 320 448 L 320 448 L 384 448 L 384 448 Q 411 447 429 429 Q 447 411 448 384 L 448 336 L 448 336 L 448 336 L 448 336 Q 475 335 493 317 Q 511 299 512 272 L 512 272 L 512 272 L 464 272 L 464 272 L 464 272 L 464 272 Z M 64 128 L 193 128 L 64 128 L 193 128 Q 192 136 192 144 Q 192 152 193 160 L 64 160 L 64 160 Q 49 159 48 144 Q 49 129 64 128 L 64 128 Z M 384 96 L 384 192 L 384 96 L 384 192 L 288 192 L 288 192 Q 268 191 254 178 Q 241 164 240 144 Q 241 124 254 110 Q 268 97 288 96 L 384 96 L 384 96 Z M 432 96 L 464 96 L 432 96 L 464 96 L 464 192 L 464 192 L 432 192 L 432 192 L 432 96 L 432 96 Z" />
</svg>