<svg xmlns="http://www.w3.org/2000/svg" viewBox="0 0 576 512">
  <path d="M 64 24 L 64 32 L 64 24 L 64 32 L 48 32 L 48 32 Q 28 33 14 46 Q 1 60 0 80 L 0 368 L 0 368 Q 1 388 14 402 Q 28 415 48 416 L 64 416 L 64 416 L 64 488 L 64 488 Q 66 510 88 512 Q 110 510 112 488 L 112 416 L 112 416 L 464 416 L 464 416 L 464 488 L 464 488 Q 466 510 488 512 Q 510 510 512 488 L 512 416 L 512 416 L 528 416 L 528 416 Q 548 415 562 402 Q 575 388 576 368 L 576 80 L 576 80 Q 575 60 562 46 Q 548 33 528 32 L 512 32 L 512 32 L 512 24 L 512 24 Q 510 2 488 0 Q 466 2 464 24 L 464 32 L 464 32 L 112 32 L 112 32 L 112 24 L 112 24 Q 110 2 88 0 Q 66 2 64 24 L 64 24 Z M 528 80 L 528 368 L 528 80 L 528 368 L 48 368 L 48 368 L 48 80 L 48 80 L 528 80 L 528 80 Z" />
</svg>