<svg xmlns="http://www.w3.org/2000/svg" viewBox="0 0 448 512">
  <path d="M 114 320 L 224 210 L 114 320 L 224 210 L 334 320 L 334 320 L 280 320 L 280 320 Q 258 322 256 344 L 256 464 L 256 464 L 192 464 L 192 464 L 192 344 L 192 344 Q 190 322 168 320 L 114 320 L 114 320 Z M 224 160 Q 206 160 193 173 L 78 289 L 78 289 Q 64 303 64 322 Q 65 341 78 354 Q 91 368 110 368 L 144 368 L 144 368 L 144 464 L 144 464 Q 145 484 158 498 Q 172 511 192 512 L 256 512 L 256 512 Q 276 511 290 498 Q 303 484 304 464 L 304 368 L 304 368 L 338 368 L 338 368 Q 357 368 370 354 Q 384 341 384 322 Q 384 303 370 289 L 255 173 L 255 173 Q 242 160 224 160 L 224 160 Z M 48 168 L 48 88 L 48 168 L 48 88 Q 48 71 60 60 Q 71 48 88 48 L 360 48 L 360 48 Q 377 48 388 60 Q 400 71 400 88 L 400 168 L 400 168 Q 402 190 424 192 Q 446 190 448 168 L 448 88 L 448 88 Q 447 51 422 26 Q 397 1 360 0 L 88 0 L 88 0 Q 51 1 26 26 Q 1 51 0 88 L 0 168 L 0 168 Q 2 190 24 192 Q 46 190 48 168 L 48 168 Z" />
</svg>