<svg xmlns="http://www.w3.org/2000/svg" viewBox="0 0 512 512">
  <path d="M 307.2 102.4 L 51.2 102.4 Q 39.2 103.2 38.4 115.2 L 38.4 371.2 Q 39.2 383.2 51.2 384 L 244.8 384 Q 254.4 404.8 270.4 422.4 L 51.2 422.4 Q 29.6 421.6 15.2 407.2 Q 0.8 392.8 0 371.2 L 0 115.2 Q 0.8 93.6 15.2 79.2 Q 29.6 64.8 51.2 64 L 307.2 64 Q 328.8 64.8 343.2 79.2 Q 357.6 93.6 358.4 115.2 L 358.4 140.8 Q 342.4 139.2 330.4 150.4 Q 324.8 155.2 320 159.2 L 320 115.2 Q 319.2 103.2 307.2 102.4 L 307.2 102.4 Z M 235.2 287.2 Q 232.8 288 230.4 288 Q 212.8 286.4 211.2 268.8 Q 212.8 251.2 230.4 249.6 Q 240.8 249.6 246.4 257.6 Q 239.2 272.8 235.2 287.2 L 235.2 287.2 Z M 76.8 166.4 Q 76.8 155.2 84 148 L 84 148 Q 91.2 140.8 102.4 140.8 L 256 140.8 Q 267.2 140.8 274.4 148 Q 281.6 155.2 281.6 166.4 L 281.6 192 Q 281.6 203.2 274.4 210.4 Q 267.2 217.6 256 217.6 L 102.4 217.6 Q 91.2 217.6 84 210.4 Q 76.8 203.2 76.8 192 L 76.8 166.4 L 76.8 166.4 Z M 102.4 249.6 Q 120 251.2 121.6 268.8 Q 120 286.4 102.4 288 Q 84.8 286.4 83.2 268.8 Q 84.8 251.2 102.4 249.6 L 102.4 249.6 Z M 147.2 268.8 Q 148.8 251.2 166.4 249.6 Q 184 251.2 185.6 268.8 Q 184 286.4 166.4 288 Q 148.8 286.4 147.2 268.8 L 147.2 268.8 Z M 363.2 169.6 Q 386.4 190.4 407.2 215.2 Q 416.8 203.2 428.8 192 Q 436.8 185.6 444.8 192 Q 474.4 220.8 492.8 256.8 Q 501.6 273.6 506.4 290.4 Q 512 307.2 512 320 Q 510.4 374.4 474.4 410.4 Q 438.4 446.4 384 448 Q 328.8 446.4 292.8 410.4 Q 257.6 373.6 256 320 Q 257.6 286.4 282.4 245.6 Q 306.4 205.6 347.2 169.6 Q 350.4 166.4 355.2 166.4 Q 359.2 166.4 363.2 169.6 L 363.2 169.6 Z M 424 384.8 Q 442.4 371.2 446.4 349.6 L 446.4 349.6 Q 450.4 328.8 440 308 Q 437.6 303.2 434.4 298.4 L 405.6 332 Q 404.8 331.2 393.6 316.8 Q 382.4 301.6 370.4 287.2 Q 358.4 272 356 268.8 Q 338.4 290.4 328.8 305.6 Q 320 320 320 334.4 Q 320.8 364 339.2 380 Q 356.8 396.8 384.8 396.8 Q 406.4 396.8 424 384.8 L 424 384.8 Z" />
</svg>