<svg xmlns="http://www.w3.org/2000/svg" viewBox="0 0 640 512">
  <path d="M 24 0 Q 2 2 0 24 Q 2 46 24 48 L 70 48 L 70 48 Q 76 48 77 55 L 129 326 L 129 326 Q 134 351 154 368 Q 173 384 200 384 L 321 384 L 321 384 Q 320 376 320 368 Q 320 352 323 336 L 200 336 L 200 336 Q 181 335 176 317 L 171 288 L 171 288 L 339 288 L 339 288 Q 353 261 375 240 L 162 240 L 162 240 L 131 80 L 131 80 L 521 80 L 521 80 L 491 192 L 491 192 Q 493 192 496 192 Q 518 192 539 197 L 570 82 L 570 82 Q 574 63 563 48 Q 551 33 531 32 L 120 32 L 120 32 Q 105 2 70 0 L 24 0 L 24 0 Z M 176 512 Q 203 511 218 488 Q 230 464 218 440 Q 203 417 176 416 Q 149 417 134 440 Q 122 464 134 488 Q 149 511 176 512 L 176 512 Z M 496 512 Q 535 512 568 493 L 568 493 L 568 493 Q 601 474 621 440 Q 640 406 640 368 Q 640 330 621 296 Q 601 262 568 243 Q 535 224 496 224 Q 457 224 424 243 Q 391 262 371 296 Q 352 330 352 368 Q 352 406 371 440 Q 391 474 424 493 Q 457 512 496 512 L 496 512 Z M 555 331 L 519 368 L 555 331 L 519 368 L 555 405 L 555 405 Q 565 416 555 427 Q 544 437 533 427 L 496 391 L 496 391 L 459 427 L 459 427 Q 448 437 437 427 Q 427 416 437 405 L 473 368 L 473 368 L 437 331 L 437 331 Q 427 320 437 309 Q 448 299 459 309 L 496 345 L 496 345 L 533 309 L 533 309 Q 544 299 555 309 Q 565 320 555 331 L 555 331 Z" />
</svg>