<svg xmlns="http://www.w3.org/2000/svg" viewBox="0 0 512 512">
  <path d="M 145.94392 256.79752 L 145.94392 256.79752 L 145.94392 256.79752 Q 145.94392 257.595 145.94392 257.595 Q 145.94392 259.19003 146.74144 260.78503 Q 148.33644 285.50778 132.38629 302.25546 Q 117.23364 319.0031 93.30841 319.80063 Q 62.20561 319.0031 52.635513 297.4704 Q 39.07788 271.95016 39.07788 230.47975 Q 39.07788 208.14954 45.457943 182.62929 Q 52.635513 157.10904 65.39564 133.98131 Q 92.5109 90.11838 128.39876 90.11838 Q 149.93146 90.915886 165.0841 100.485985 Q 180.23676 110.056076 184.2243 122.8162 L 93.30841 319.80063 L 184.2243 122.8162 Q 192.19937 142.75389 166.67912 170.66667 Q 147.53894 194.5919 145.14642 217.71962 Q 143.5514 241.64487 145.94392 256.79752 Q 145.94392 256.79752 145.94392 256.79752 L 145.94392 256.79752 Z M 220.90965 112.4486 Q 211.33957 82.94081 185.0218 67.78816 L 185.0218 67.78816 Q 157.90654 51.838005 128.39876 51.838005 Q 86.130844 53.43302 57.42056 82.1433 Q 29.507788 111.65109 15.152648 152.32399 Q 0.79750776 193.79439 0.79750776 230.47975 Q 0 277.5327 19.937695 316.6106 Q 39.07788 355.68848 93.30841 358.081 Q 134.77881 356.486 161.09657 327.7757 Q 187.41434 299.06543 184.2243 256.79752 L 184.2243 254.40498 Q 184.2243 253.60748 184.2243 252.80997 Q 184.2243 252.01247 183.42679 251.21495 L 201.76947 259.98755 Q 204.9595 261.58255 204.9595 265.5701 L 204.9595 441.02182 Q 206.55452 458.567 224.09969 460.162 Q 241.64487 458.567 243.23987 441.02182 L 243.23987 265.5701 Q 242.44237 238.45483 218.51714 225.6947 L 188.21184 209.74455 Q 187.41434 209.74455 187.41434 209.74455 Q 187.41434 209.74455 186.61682 209.74455 Q 189.80685 202.56697 195.3894 196.18692 Q 211.33957 178.64174 219.31464 157.90654 Q 227.28972 137.17134 220.90965 112.4486 L 220.90965 112.4486 Z M 325.38318 209.74455 Q 324.58566 209.74455 324.58566 209.74455 L 324.58566 209.74455 Q 324.58566 209.74455 323.78815 210.54205 L 293.48288 225.6947 Q 269.55762 238.45483 268.76013 265.5701 L 268.76013 441.02182 Q 270.35513 458.567 287.9003 460.162 Q 305.4455 458.567 307.0405 441.02182 L 307.0405 265.5701 Q 307.0405 261.58255 310.23053 259.98755 L 328.5732 251.21495 Q 327.7757 252.01247 327.7757 252.80997 Q 327.7757 253.60748 327.7757 254.40498 L 327.7757 256.79752 Q 324.58566 299.06543 350.9034 327.7757 Q 377.2212 356.486 418.6916 358.081 Q 472.92212 355.68848 492.06232 316.6106 Q 512 277.5327 511.20248 230.47975 Q 511.20248 193.79439 496.84735 152.32399 Q 482.49222 111.65109 454.57944 82.1433 Q 425.86917 53.43302 383.60126 51.838005 Q 354.09344 51.838005 326.97818 67.78816 Q 300.66043 82.94081 291.09033 112.4486 Q 284.71027 137.17134 292.68536 157.90654 Q 300.66043 178.64174 316.6106 196.18692 Q 322.19315 202.56697 325.38318 209.74455 L 325.38318 209.74455 Z M 345.32086 171.46417 Q 319.80063 142.75389 327.7757 122.8162 L 418.6916 319.80063 L 327.7757 122.8162 Q 331.76324 110.056076 346.9159 100.485985 Q 362.06854 90.915886 383.60126 90.11838 Q 419.4891 90.11838 446.60437 133.98131 Q 459.36447 157.10904 466.54205 182.62929 Q 472.92212 208.14954 472.92212 230.47975 Q 472.92212 271.95016 459.36447 297.4704 Q 449.7944 319.0031 418.6916 319.80063 Q 394.76636 319.0031 379.6137 302.25546 Q 363.66354 285.50778 366.05606 260.78503 Q 366.05606 259.98755 366.05606 258.39252 Q 366.05606 257.595 366.05606 256.79752 L 366.05606 256.79752 Q 366.05606 256.79752 366.05606 256.79752 Q 368.4486 241.64487 366.85358 218.51714 Q 364.46106 194.5919 345.32086 171.46417 L 345.32086 171.46417 Z" />
</svg>