<svg xmlns="http://www.w3.org/2000/svg" viewBox="0 0 647 519">
  <path d="M 144 128 Q 145 83 184 59 Q 224 37 264 59 Q 303 83 304 128 Q 303 173 264 197 Q 224 219 184 197 Q 145 173 144 128 L 144 128 Z M 352 128 Q 352 93 335 64 L 335 64 L 335 64 Q 318 35 288 17 Q 258 0 224 0 Q 190 0 160 17 Q 130 35 113 64 Q 96 93 96 128 Q 96 163 113 192 Q 130 221 160 239 Q 190 256 224 256 Q 258 256 288 239 Q 318 221 335 192 Q 352 163 352 128 L 352 128 Z M 49 464 Q 57 415 92 384 L 92 384 L 92 384 Q 128 353 178 352 L 270 352 L 270 352 Q 281 352 292 354 Q 288 337 288 320 Q 288 312 289 305 Q 279 304 270 304 L 178 304 L 178 304 Q 103 306 52 356 Q 2 407 0 482 Q 0 495 9 503 Q 17 512 30 512 L 418 512 L 418 512 Q 431 512 439 503 Q 448 495 448 482 Q 448 481 448 480 Q 410 480 378 464 L 49 464 L 49 464 Z M 448 240 Q 493 242 517 280 Q 539 320 517 360 Q 493 399 448 400 Q 403 399 379 360 Q 357 320 379 280 Q 403 242 448 240 L 448 240 Z M 448 448 Q 489 447 520 426 L 599 505 L 599 505 Q 616 519 633 505 Q 647 488 633 471 L 554 392 L 554 392 Q 575 361 576 320 Q 575 266 538 230 Q 502 194 448 192 Q 394 194 357 230 Q 321 266 320 320 Q 321 375 357 411 Q 394 447 448 448 L 448 448 Z" />
</svg>