<svg xmlns="http://www.w3.org/2000/svg" viewBox="0 0 480 448">
  <path d="M 240 48 Q 185 49 142 78 L 142 78 L 142 78 Q 99 107 78 155 Q 68 175 47 168 Q 27 157 34 136 Q 60 75 115 38 Q 170 1 240 0 Q 321 1 380 58 L 432 110 L 432 110 L 432 56 L 432 56 Q 434 34 456 32 Q 478 34 480 56 L 480 168 L 480 168 Q 478 190 456 192 L 344 192 L 344 192 Q 322 190 320 168 Q 322 146 344 144 L 398 144 L 398 144 L 346 92 L 346 92 Q 302 49 240 48 L 240 48 Z M 433 281 Q 453 291 446 312 Q 419 373 365 410 Q 310 447 240 448 Q 159 447 100 390 L 48 338 L 48 338 L 48 392 L 48 392 Q 46 414 24 416 Q 2 414 0 392 L 0 280 L 0 280 Q 2 258 24 256 L 136 256 L 136 256 Q 158 258 160 280 Q 158 302 136 304 L 82 304 L 82 304 L 134 356 L 134 356 Q 178 399 240 400 Q 295 399 338 370 Q 381 341 402 293 Q 412 274 433 281 L 433 281 Z M 240 96 Q 262 98 264 120 L 264 232 L 264 232 Q 262 254 240 256 Q 218 254 216 232 L 216 120 L 216 120 Q 218 98 240 96 L 240 96 Z M 208 320 Q 208 306 217 297 L 217 297 L 217 297 Q 226 288 240 288 Q 254 288 263 297 Q 272 306 272 320 Q 272 334 263 343 Q 254 352 240 352 Q 226 352 217 343 Q 208 334 208 320 L 208 320 Z" />
</svg>