<svg xmlns="http://www.w3.org/2000/svg" viewBox="0 0 495 517">
  <path d="M 341 10 Q 352 0 363 10 L 379 26 L 379 26 Q 389 37 379 48 L 363 64 L 363 64 Q 352 74 341 64 L 325 48 L 325 48 Q 315 37 325 26 L 341 10 L 341 10 Z M 128 157 Q 109 157 94 168 Q 76 180 61 163 Q 49 145 66 130 Q 92 110 128 109 Q 172 110 202 139 Q 231 169 232 213 Q 232 244 216 269 L 216 269 L 216 269 L 216 269 L 216 269 L 217 269 L 217 269 L 217 269 L 217 269 L 217 269 L 217 269 L 218 269 L 218 269 L 218 269 L 218 269 L 218 269 L 218 269 L 218 269 L 218 269 L 219 269 L 219 269 L 219 269 L 219 269 L 219 269 L 219 269 L 220 269 L 220 269 L 220 269 L 220 269 L 220 269 L 220 269 L 221 269 L 221 269 L 221 269 L 221 269 L 221 269 L 221 269 L 221 269 L 221 269 L 222 269 L 222 269 L 222 269 L 222 269 L 222 269 L 222 269 L 223 269 L 223 269 L 223 269 L 223 269 L 223 269 L 223 269 L 224 269 L 224 269 L 224 269 L 224 269 L 224 269 L 224 269 L 224 269 L 224 269 L 225 269 L 225 269 L 225 269 L 225 269 L 225 269 L 225 269 L 226 269 L 226 269 L 226 269 L 226 269 L 226 269 L 226 269 L 227 269 L 227 269 L 227 269 L 227 269 L 227 269 L 227 269 L 227 269 L 227 269 L 228 269 L 228 269 L 228 269 L 228 269 L 228 269 L 228 269 L 229 269 L 229 269 L 229 269 L 229 269 L 229 269 L 229 269 L 230 269 L 230 269 L 230 269 L 230 269 L 230 269 L 230 269 L 230 269 L 230 269 L 231 269 L 231 269 L 231 269 L 231 269 L 231 269 L 231 269 L 232 269 L 232 269 L 232 269 L 232 269 L 232 269 L 232 269 L 233 269 L 233 269 L 233 269 L 233 269 L 233 269 L 233 269 L 233 269 L 233 269 L 234 269 L 234 269 L 234 269 L 234 269 L 234 269 L 234 269 L 235 269 L 235 269 L 235 269 L 235 269 L 235 269 L 235 269 L 236 269 L 236 269 L 236 269 L 236 269 L 236 269 L 236 269 L 236 269 L 236 269 L 237 269 L 237 269 L 237 269 L 237 269 L 237 269 L 237 269 L 238 269 L 238 269 L 238 269 L 238 269 L 238 269 L 238 269 L 239 269 L 239 269 L 239 269 L 239 269 L 239 269 L 239 269 L 239 269 L 239 269 L 240 269 L 240 269 L 240 269 L 240 269 L 240 269 L 240 269 L 241 269 L 241 269 L 241 269 L 241 269 L 241 269 L 241 269 L 242 269 L 242 269 L 242 269 L 242 269 L 242 269 L 242 269 L 242 269 L 242 269 L 243 269 L 243 269 L 243 269 L 243 269 L 243 269 L 243 269 L 244 269 L 244 269 L 244 269 L 244 269 L 244 269 L 244 269 L 245 269 L 245 269 L 245 269 L 245 269 L 245 269 L 245 269 L 245 269 L 245 269 L 246 269 L 246 269 L 246 269 L 246 269 L 246 269 L 246 269 L 247 269 L 247 269 L 247 269 L 247 269 L 247 269 L 247 269 L 247 269 L 247 269 L 248 269 L 248 269 L 248 269 L 248 269 L 248 269 L 248 269 L 249 269 L 249 269 L 249 269 L 249 269 L 249 269 L 249 269 L 250 269 L 250 269 L 250 269 L 250 269 L 250 269 L 250 269 L 250 269 L 250 269 L 251 269 L 251 269 L 251 269 L 251 269 L 251 269 L 251 269 L 252 269 L 252 269 L 252 269 L 252 269 L 252 269 L 252 269 L 253 269 L 253 269 L 253 269 L 253 269 L 253 269 L 253 269 L 253 269 L 253 269 L 254 269 L 254 269 L 254 269 L 254 269 L 254 269 L 254 269 L 255 269 L 255 269 L 255 269 L 255 269 L 255 269 L 255 269 L 256 269 L 256 269 L 256 269 L 256 269 L 256 269 L 256 269 L 256 269 L 256 269 L 257 269 L 257 269 L 257 269 L 257 269 L 257 269 L 257 269 L 258 269 L 258 269 L 258 269 L 258 269 L 258 269 L 258 269 L 259 269 L 259 269 L 259 269 L 259 269 L 259 269 L 259 269 L 259 269 L 259 269 L 260 269 L 260 269 L 260 269 L 260 269 L 260 269 L 260 269 L 261 269 L 261 269 L 261 269 L 261 269 L 261 269 L 261 269 L 262 269 L 262 269 L 262 269 L 262 269 L 262 269 L 262 269 L 262 269 L 262 269 L 263 269 L 263 269 L 263 269 L 263 269 L 263 269 L 263 269 L 264 269 L 264 269 L 264 269 L 264 269 L 264 269 L 264 269 L 265 269 L 265 269 L 265 269 L 265 269 L 265 269 L 265 269 L 265 269 L 265 269 L 266 269 L 266 269 L 266 269 L 266 269 L 266 269 L 266 269 L 267 269 L 267 269 L 267 269 L 267 269 L 267 269 L 267 269 L 268 269 L 268 269 L 268 269 L 268 269 L 268 269 L 268 269 L 268 269 L 268 269 L 269 269 L 269 269 L 269 269 L 269 269 L 269 269 L 269 269 L 270 269 L 270 269 L 270 269 L 270 269 L 270 269 L 270 269 L 271 269 L 271 269 L 271 269 L 271 269 L 271 269 L 271 269 L 271 269 L 271 269 L 272 269 L 272 269 L 272 269 L 272 269 L 272 269 L 272 269 L 273 269 L 273 269 L 273 269 L 273 269 L 273 269 L 273 269 L 274 269 L 274 269 L 274 269 L 274 269 L 274 269 L 274 269 L 274 269 L 274 269 L 275 269 L 275 269 L 275 269 L 275 269 L 275 269 L 275 269 L 275 269 L 275 269 L 276 269 L 276 269 L 276 269 L 276 269 L 276 269 L 276 269 L 276 269 L 276 269 L 276 269 L 276 269 L 277 269 L 277 269 L 277 269 L 277 269 L 277 269 L 277 269 L 277 269 L 277 269 L 277 269 L 277 269 L 278 269 L 278 269 L 278 269 L 278 269 Q 301 269 317 253 L 338 232 L 338 232 Q 365 206 403 205 Q 442 206 468 232 Q 494 258 495 297 L 495 393 L 495 393 Q 494 432 468 458 Q 442 484 403 485 Q 364 484 338 458 Q 312 432 311 393 L 311 389 L 311 389 Q 313 367 335 365 Q 357 367 359 389 L 359 393 L 359 393 Q 359 412 372 424 Q 384 437 403 437 Q 422 437 434 424 Q 447 412 447 393 L 447 297 L 447 297 Q 447 278 434 266 Q 422 253 403 253 Q 385 253 372 266 L 351 287 L 351 287 Q 322 316 279 317 L 279 317 L 279 317 L 278 317 L 278 317 L 278 317 L 278 317 L 278 317 L 278 317 L 278 317 L 278 317 L 278 317 L 278 317 L 277 317 L 277 317 L 277 317 L 277 317 L 277 317 L 277 317 L 277 317 L 277 317 L 277 317 L 277 317 L 276 317 L 276 317 L 276 317 L 276 317 L 276 317 L 276 317 L 276 317 L 276 317 L 275 317 L 275 317 L 275 317 L 275 317 L 275 317 L 275 317 L 275 317 L 275 317 L 274 317 L 274 317 L 274 317 L 274 317 L 274 317 L 274 317 L 273 317 L 273 317 L 273 317 L 273 317 L 273 317 L 273 317 L 272 317 L 272 317 L 272 317 L 272 317 L 272 317 L 272 317 L 272 317 L 272 317 L 271 317 L 271 317 L 271 317 L 271 317 L 271 317 L 271 317 L 270 317 L 270 317 L 270 317 L 270 317 L 270 317 L 270 317 L 270 317 L 270 317 L 269 317 L 269 317 L 269 317 L 269 317 L 269 317 L 269 317 L 268 317 L 268 317 L 268 317 L 268 317 L 268 317 L 268 317 L 267 317 L 267 317 L 267 317 L 267 317 L 267 317 L 267 317 L 267 317 L 267 317 L 266 317 L 266 317 L 266 317 L 266 317 L 266 317 L 266 317 L 265 317 L 265 317 L 265 317 L 265 317 L 265 317 L 265 317 L 264 317 L 264 317 L 264 317 L 264 317 L 264 317 L 264 317 L 264 317 L 264 317 L 263 317 L 263 317 L 263 317 L 263 317 L 263 317 L 263 317 L 262 317 L 262 317 L 262 317 L 262 317 L 262 317 L 262 317 L 261 317 L 261 317 L 261 317 L 261 317 L 261 317 L 261 317 L 261 317 L 261 317 L 260 317 L 260 317 L 260 317 L 260 317 L 260 317 L 260 317 L 259 317 L 259 317 L 259 317 L 259 317 L 259 317 L 259 317 L 258 317 L 258 317 L 258 317 L 258 317 L 258 317 L 258 317 L 258 317 L 258 317 L 257 317 L 257 317 L 257 317 L 257 317 L 257 317 L 257 317 L 256 317 L 256 317 L 256 317 L 256 317 L 256 317 L 256 317 L 255 317 L 255 317 L 255 317 L 255 317 L 255 317 L 255 317 L 255 317 L 255 317 L 254 317 L 254 317 L 254 317 L 254 317 L 254 317 L 254 317 L 253 317 L 253 317 L 253 317 L 253 317 L 253 317 L 253 317 L 252 317 L 252 317 L 252 317 L 252 317 L 252 317 L 252 317 L 252 317 L 252 317 L 251 317 L 251 317 L 251 317 L 251 317 L 251 317 L 251 317 L 250 317 L 250 317 L 250 317 L 250 317 L 250 317 L 250 317 L 249 317 L 249 317 L 249 317 L 249 317 L 249 317 L 249 317 L 249 317 L 249 317 L 248 317 L 248 317 L 248 317 L 248 317 L 248 317 L 248 317 L 247 317 L 247 317 L 247 317 L 247 317 L 247 317 L 247 317 L 246 317 L 246 317 L 246 317 L 246 317 L 246 317 L 246 317 L 246 317 L 246 317 L 245 317 L 245 317 L 245 317 L 245 317 L 245 317 L 245 317 L 244 317 L 244 317 L 244 317 L 244 317 L 244 317 L 244 317 L 243 317 L 243 317 L 243 317 L 243 317 L 243 317 L 243 317 L 243 317 L 243 317 L 242 317 L 242 317 L 242 317 L 242 317 L 242 317 L 242 317 L 241 317 L 241 317 L 241 317 L 241 317 L 241 317 L 241 317 L 240 317 L 240 317 L 240 317 L 240 317 L 240 317 L 240 317 L 240 317 L 240 317 L 239 317 L 239 317 L 239 317 L 239 317 L 239 317 L 239 317 L 238 317 L 238 317 L 238 317 L 238 317 L 238 317 L 238 317 L 237 317 L 237 317 L 237 317 L 237 317 L 237 317 L 237 317 L 237 317 L 237 317 L 236 317 L 236 317 L 236 317 L 236 317 L 236 317 L 236 317 L 236 317 L 236 317 Q 262 349 263 393 Q 262 447 224 481 Q 186 516 131 517 Q 76 516 39 481 Q 2 447 0 393 Q 2 371 24 369 Q 46 371 48 393 Q 49 424 72 446 Q 95 468 132 469 Q 169 468 192 446 Q 215 424 216 393 Q 215 362 192 340 Q 169 318 132 317 L 132 317 L 132 317 L 132 317 L 132 317 L 131 317 L 131 317 L 131 317 L 131 317 L 131 317 L 131 317 L 130 317 L 130 317 L 130 317 L 130 317 L 130 317 L 130 317 L 129 317 L 129 317 L 129 317 L 129 317 L 129 317 L 129 317 L 128 317 L 128 317 Q 129 317 128 317 Q 128 317 128 317 L 128 317 L 128 317 L 128 317 L 128 317 L 127 317 L 127 317 L 127 317 L 127 317 L 127 317 L 127 317 L 127 317 L 127 317 L 126 317 L 126 317 L 126 317 L 126 317 L 126 317 L 126 317 L 125 317 L 125 317 L 125 317 L 125 317 L 125 317 L 125 317 L 124 317 L 124 317 L 124 317 L 124 317 L 124 317 L 124 317 L 124 317 L 124 317 L 123 317 L 123 317 L 123 317 L 123 317 L 123 317 L 123 317 L 122 317 L 122 317 L 122 317 L 122 317 L 122 317 L 122 317 L 121 317 L 121 317 L 121 317 L 121 317 L 121 317 L 121 317 L 121 317 L 121 317 L 120 317 L 120 317 L 120 317 L 120 317 L 120 317 L 120 317 L 119 317 L 119 317 L 119 317 L 119 317 L 119 317 L 119 317 L 118 317 L 118 317 L 118 317 L 118 317 L 118 317 L 118 317 L 118 317 L 118 317 L 117 317 L 117 317 L 117 317 L 117 317 L 117 317 L 117 317 L 116 317 L 116 317 L 116 317 L 116 317 L 116 317 L 116 317 L 115 317 L 115 317 L 115 317 L 115 317 L 115 317 L 115 317 L 115 317 L 115 317 L 114 317 L 114 317 L 114 317 L 114 317 L 114 317 L 114 317 Q 92 315 90 293 Q 92 271 114 269 L 114 269 L 114 269 L 114 269 L 114 269 L 115 269 L 115 269 L 115 269 L 115 269 L 115 269 L 115 269 L 115 269 L 115 269 L 116 269 L 116 269 L 116 269 L 116 269 L 116 269 L 116 269 L 117 269 L 117 269 L 117 269 L 117 269 L 117 269 L 117 269 L 118 269 L 118 269 L 118 269 L 118 269 L 118 269 L 118 269 L 118 269 L 118 269 L 119 269 L 119 269 L 119 269 L 119 269 L 119 269 L 119 269 L 120 269 L 120 269 L 120 269 L 120 269 L 120 269 L 120 269 L 121 269 L 121 269 L 121 269 L 121 269 L 121 269 L 121 269 L 121 269 L 121 269 L 122 269 L 122 269 L 122 269 L 122 269 L 122 269 L 122 269 L 123 269 L 123 269 L 123 269 L 123 269 L 123 269 L 123 269 L 124 269 L 124 269 L 124 269 L 124 269 L 124 269 L 124 269 L 124 269 L 124 269 L 125 269 L 125 269 L 125 269 L 125 269 L 125 269 L 125 269 L 126 269 L 126 269 L 126 269 L 126 269 L 126 269 L 126 269 L 127 269 L 127 269 L 127 269 L 127 269 L 127 269 L 127 269 L 127 269 L 127 269 L 128 269 L 128 269 L 128 269 L 128 269 L 128 269 L 128 269 Q 152 268 168 253 Q 184 237 184 213 Q 184 189 168 173 Q 152 158 128 157 L 128 157 Z M 283 70 Q 306 99 352 101 Q 398 99 421 70 Q 436 54 455 66 Q 471 81 459 100 Q 440 123 413 136 Q 385 149 352 149 Q 319 149 291 136 Q 264 123 245 100 Q 233 81 249 66 Q 268 54 283 70 L 283 70 Z" />
</svg>