<svg xmlns="http://www.w3.org/2000/svg" viewBox="0 0 640 512">
  <path d="M 188 48 Q 147 49 125 85 L 59 206 L 59 206 Q 48 226 48 248 L 48 400 L 48 400 L 96 400 L 96 400 L 96 248 L 96 248 Q 97 228 106 209 Q 114 191 125 174 Q 134 160 143 147 Q 143 147 144 146 Q 145 143 147 141 Q 157 126 163 116 Q 172 101 190 105 Q 207 110 208 128 L 208 448 L 208 448 Q 209 462 224 464 L 416 464 L 416 464 Q 430 462 432 448 L 432 128 L 432 128 Q 433 110 450 105 Q 467 101 477 116 Q 482 126 493 141 Q 494 143 496 146 Q 505 159 514 174 Q 526 191 534 209 Q 543 228 544 248 L 544 400 L 544 400 L 592 400 L 592 400 L 592 248 L 592 248 Q 592 226 581 206 L 515 85 L 515 85 Q 493 49 452 48 L 444 48 L 444 48 Q 444 48 443 48 Q 443 48 443 48 Q 442 48 441 48 Q 440 48 440 48 L 421 48 L 421 48 Q 412 83 385 105 Q 358 127 320 128 Q 282 127 255 105 Q 228 83 219 48 L 200 48 L 200 48 Q 199 48 197 48 Q 197 48 197 48 Q 196 48 196 48 L 188 48 L 188 48 Z M 83 62 Q 100 33 127 17 L 127 17 L 127 17 Q 155 0 188 0 L 196 0 L 196 0 Q 197 0 197 0 Q 198 0 198 0 Q 199 0 199 0 Q 200 0 200 0 L 224 0 L 224 0 Q 241 1 252 11 Q 262 22 265 35 Q 269 55 284 67 Q 299 80 320 80 Q 341 80 356 67 Q 371 55 375 35 Q 378 22 388 11 Q 399 1 416 0 L 440 0 L 440 0 Q 440 0 441 0 Q 441 0 442 0 Q 442 0 443 0 Q 443 0 444 0 L 452 0 L 452 0 Q 485 0 513 17 Q 540 33 557 62 L 623 183 L 623 183 Q 640 214 640 248 L 640 424 L 640 424 Q 638 446 616 448 L 520 448 L 520 448 Q 498 446 496 424 L 496 248 L 496 248 Q 496 243 490 229 Q 486 220 480 209 L 480 448 L 480 448 Q 479 475 461 493 Q 443 511 416 512 L 224 512 L 224 512 Q 197 511 179 493 Q 161 475 160 448 L 160 209 L 160 209 Q 154 220 150 229 Q 144 243 144 248 L 144 424 L 144 424 Q 142 446 120 448 L 24 448 L 24 448 Q 2 446 0 424 L 0 248 L 0 248 Q 0 213 17 183 L 83 62 L 83 62 Z" />
</svg>