<svg xmlns="http://www.w3.org/2000/svg" viewBox="0 0 640 512">
  <path d="M 96 384 Q 132 383 151 352 Q 169 320 151 288 Q 132 257 96 256 Q 60 257 41 288 Q 23 320 41 352 Q 60 383 96 384 L 96 384 Z M 64 416 Q 37 417 19 435 L 19 435 L 19 435 Q 1 453 0 480 Q 0 494 9 503 Q 18 512 32 512 L 160 512 L 160 512 Q 174 512 183 503 Q 192 494 192 480 Q 191 453 173 435 Q 155 417 128 416 L 64 416 L 64 416 Z M 320 384 Q 356 383 375 352 Q 393 320 375 288 Q 356 257 320 256 Q 284 257 265 288 Q 247 320 265 352 Q 284 383 320 384 L 320 384 Z M 288 416 Q 261 417 243 435 L 243 435 L 243 435 Q 225 453 224 480 Q 224 494 233 503 Q 242 512 256 512 L 384 512 L 384 512 Q 398 512 407 503 Q 416 494 416 480 Q 415 453 397 435 Q 379 417 352 416 L 288 416 L 288 416 Z M 608 320 Q 607 284 576 265 Q 544 247 512 265 Q 481 284 480 320 Q 481 356 512 375 Q 544 393 576 375 Q 607 356 608 320 L 608 320 Z M 448 480 Q 448 494 457 503 L 457 503 L 457 503 Q 466 512 480 512 L 608 512 L 608 512 Q 622 512 631 503 Q 640 494 640 480 Q 639 453 621 435 Q 603 417 576 416 L 512 416 L 512 416 Q 485 417 467 435 Q 449 453 448 480 L 448 480 Z M 544 48 L 96 48 L 544 48 L 96 48 Q 81 49 80 64 L 80 225 L 80 225 Q 52 230 32 248 L 32 64 L 32 64 Q 33 37 51 19 Q 69 1 96 0 L 544 0 L 544 0 Q 571 1 589 19 Q 607 37 608 64 L 608 248 L 608 248 Q 588 230 560 225 L 560 64 L 560 64 Q 559 49 544 48 L 544 48 Z" />
</svg>