<svg xmlns="http://www.w3.org/2000/svg" viewBox="0 0 647 519">
  <path d="M 64 48 L 320 48 L 64 48 L 320 48 Q 335 49 336 64 L 336 206 L 336 206 Q 357 185 384 173 L 384 64 L 384 64 Q 383 37 365 19 Q 347 1 320 0 L 64 0 L 64 0 Q 37 1 19 19 Q 1 37 0 64 L 0 448 L 0 448 Q 1 475 19 493 Q 37 511 64 512 L 320 512 L 320 512 Q 342 512 359 499 Q 375 486 382 466 Q 356 454 336 434 L 336 448 L 336 448 Q 335 463 320 464 L 240 464 L 240 464 L 240 400 L 240 400 Q 239 380 226 366 Q 212 353 192 352 Q 172 353 158 366 Q 145 380 144 400 L 144 464 L 144 464 L 64 464 L 64 464 Q 49 463 48 448 L 48 64 L 48 64 Q 49 49 64 48 L 64 48 Z M 296 232 Q 295 217 280 216 L 232 216 L 232 216 Q 217 217 216 232 L 216 280 L 216 280 Q 217 295 232 296 L 280 296 L 280 296 Q 286 296 290 292 Q 292 281 296 270 L 296 232 L 296 232 Z M 88 104 L 88 152 L 88 104 L 88 152 Q 89 167 104 168 L 152 168 L 152 168 Q 167 167 168 152 L 168 104 L 168 104 Q 167 89 152 88 L 104 88 L 104 88 Q 89 89 88 104 L 88 104 Z M 232 88 Q 217 89 216 104 L 216 152 L 216 152 Q 217 167 232 168 L 280 168 L 280 168 Q 295 167 296 152 L 296 104 L 296 104 Q 295 89 280 88 L 232 88 L 232 88 Z M 88 232 L 88 280 L 88 232 L 88 280 Q 89 295 104 296 L 152 296 L 152 296 Q 167 295 168 280 L 168 232 L 168 232 Q 167 217 152 216 L 104 216 L 104 216 Q 89 217 88 232 L 88 232 Z M 448 240 Q 493 242 517 280 Q 539 320 517 360 Q 493 399 448 400 Q 403 399 379 360 Q 357 320 379 280 Q 403 242 448 240 L 448 240 Z M 448 448 Q 489 447 520 426 L 599 505 L 599 505 Q 616 519 633 505 Q 647 488 633 471 L 554 392 L 554 392 Q 575 361 576 320 Q 575 266 538 230 Q 502 194 448 192 Q 394 194 357 230 Q 321 266 320 320 Q 321 375 357 411 Q 394 447 448 448 L 448 448 Z" />
</svg>