<svg xmlns="http://www.w3.org/2000/svg" viewBox="0 0 480 448">
  <path d="M 78 155 Q 99 107 142 78 L 142 78 L 142 78 Q 185 49 240 48 Q 302 49 346 92 L 398 144 L 398 144 L 344 144 L 344 144 Q 322 146 320 168 Q 322 190 344 192 L 456 192 L 456 192 Q 478 190 480 168 L 480 56 L 480 56 Q 478 34 456 32 Q 434 34 432 56 L 432 110 L 432 110 L 380 58 L 380 58 Q 321 1 240 0 Q 170 1 115 38 Q 60 75 34 136 Q 27 157 47 168 Q 68 174 78 155 L 78 155 Z M 446 312 Q 453 291 433 281 Q 412 274 402 293 Q 381 341 338 370 Q 295 399 240 400 Q 178 399 134 356 L 82 304 L 82 304 L 136 304 L 136 304 Q 158 302 160 280 Q 158 258 136 256 L 24 256 L 24 256 Q 2 258 0 280 L 0 392 L 0 392 Q 2 414 24 416 Q 46 414 48 392 L 48 338 L 48 338 L 100 390 L 100 390 Q 158 447 240 448 Q 310 447 365 410 Q 419 373 446 312 L 446 312 Z" />
</svg>