<svg xmlns="http://www.w3.org/2000/svg" viewBox="0 0 352 519">
  <path d="M 176 14 Q 160 0 144 14 L 15 135 L 15 135 Q 0 149 0 169 Q 0 188 14 201 Q 27 215 46 215 L 88 215 L 88 215 L 88 359 L 88 359 Q 90 427 135 472 Q 180 517 248 519 L 296 519 L 296 519 Q 320 518 336 503 Q 351 487 352 463 L 352 431 L 352 431 Q 351 407 336 391 Q 320 376 296 375 L 240 375 L 240 375 Q 233 374 232 367 L 232 215 L 232 215 L 274 215 L 274 215 Q 293 215 306 201 Q 320 188 320 169 Q 320 149 305 135 L 176 14 L 176 14 Z M 269 167 L 208 167 L 269 167 L 208 167 Q 186 169 184 191 L 184 367 L 184 367 Q 185 391 200 407 Q 216 422 240 423 L 296 423 L 296 423 Q 303 424 304 431 L 304 463 L 304 463 Q 303 470 296 471 L 248 471 L 248 471 Q 200 470 169 438 Q 137 407 136 359 L 136 191 L 136 191 Q 134 169 112 167 L 51 167 L 51 167 L 160 64 L 160 64 L 270 167 L 269 167 Z" />
</svg>