<svg xmlns="http://www.w3.org/2000/svg" viewBox="0 0 512 512">
  <path d="M 221.6 376.8 L 235.2 363.2 L 221.6 376.8 L 221.6 376.8 Z M 290.4 376.8 L 276.8 363.2 L 290.4 376.8 L 290.4 376.8 Z M 428.8 217.6 L 414.4 205.6 L 428.8 217.6 L 428.8 217.6 Z M 83.2 217.6 L 68.8 230.4 L 83.2 217.6 L 83.2 217.6 Z M 221.6 136 L 207.2 122.4 L 207.2 122.4 L 221.6 136 L 221.6 136 Z M 290.4 136 L 276.8 148.8 L 290.4 136 L 290.4 136 Z M 207.2 122.4 Q 192.8 137.6 192 160 L 230.4 160 Q 230.4 154.4 235.2 148.8 L 207.2 122.4 L 207.2 122.4 Z M 192 160 Q 192.8 186.4 212 201.6 L 212 201.6 Q 230.4 217.6 256 217.6 L 256 179.2 Q 243.2 178.4 236.8 172.8 Q 230.4 166.4 230.4 160 L 192 160 L 192 160 Z M 256 217.6 Q 281.6 217.6 300 201.6 L 300 201.6 Q 319.2 186.4 320 160 L 281.6 160 Q 281.6 166.4 275.2 172.8 Q 268.8 178.4 256 179.2 L 256 217.6 L 256 217.6 Z M 320 160 Q 319.2 137.6 304.8 122.4 L 276.8 148.8 Q 281.6 154.4 281.6 160 L 320 160 L 320 160 Z M 296 140.8 L 377.6 140.8 L 377.6 102.4 L 296 102.4 L 296 140.8 L 296 140.8 Z M 384 147.2 L 384 210.4 L 422.4 210.4 L 422.4 147.2 L 384 147.2 L 384 147.2 Z M 443.2 230.4 Q 449.6 223.2 454.4 224 L 454.4 185.6 Q 428.8 187.2 414.4 205.6 L 443.2 230.4 L 443.2 230.4 Z M 454.4 224 Q 459.2 223.2 466.4 231.2 Q 472.8 240 473.6 256 L 512 256 Q 512 228.8 496.8 208 Q 481.6 187.2 454.4 185.6 L 454.4 224 L 454.4 224 Z M 473.6 256 Q 472.8 272 466.4 280.8 Q 459.2 288.8 454.4 288 L 454.4 326.4 Q 481.6 324.8 496.8 304 Q 512 284 512 256 L 473.6 256 L 473.6 256 Z M 454.4 288 Q 449.6 288.8 443.2 281.6 L 414.4 306.4 Q 428.8 324.8 454.4 326.4 L 454.4 288 L 454.4 288 Z M 384 301.6 L 384 364.8 L 422.4 364.8 L 422.4 301.6 L 384 301.6 L 384 301.6 Z M 377.6 371.2 L 296 371.2 L 296 409.6 L 377.6 409.6 L 377.6 371.2 L 377.6 371.2 Z M 304.8 389.6 Q 319.2 374.4 320 352 L 281.6 352 Q 281.6 357.6 276.8 363.2 L 304.8 389.6 L 304.8 389.6 Z M 320 352 Q 319.2 325.6 300 310.4 L 300 310.4 Q 281.6 294.4 256 294.4 L 256 332.8 Q 268.8 333.6 275.2 339.2 Q 281.6 345.6 281.6 352 L 320 352 L 320 352 Z M 256 294.4 Q 230.4 294.4 212 310.4 L 212 310.4 Q 192.8 325.6 192 352 L 230.4 352 Q 230.4 345.6 236.8 339.2 Q 243.2 333.6 256 332.8 L 256 294.4 L 256 294.4 Z M 192 352 Q 192.8 374.4 207.2 389.6 L 235.2 363.2 Q 230.4 357.6 230.4 352 L 192 352 L 192 352 Z M 216 371.2 L 134.4 371.2 L 134.4 409.6 L 216 409.6 L 216 371.2 L 216 371.2 Z M 128 364.8 L 128 301.6 L 89.6 301.6 L 89.6 364.8 L 128 364.8 L 128 364.8 Z M 68.8 281.6 Q 62.4 288.8 57.6 288 L 57.6 326.4 Q 83.2 324.8 97.6 306.4 L 68.8 281.6 L 68.8 281.6 Z M 57.6 288 Q 52.8 288.8 45.6 280.8 Q 39.2 272 38.4 256 L 0 256 Q 0 283.2 15.2 304 Q 30.4 324.8 57.6 326.4 L 57.6 288 L 57.6 288 Z M 38.4 256 Q 39.2 240 45.6 231.2 Q 52.8 223.2 57.6 224 L 57.6 185.6 Q 30.4 187.2 15.2 208 Q 0 228 0 256 L 38.4 256 L 38.4 256 Z M 57.6 224 Q 62.4 223.2 68.8 230.4 L 97.6 205.6 Q 83.2 187.2 57.6 185.6 L 57.6 224 L 57.6 224 Z M 128 210.4 L 128 147.2 L 89.6 147.2 L 89.6 210.4 L 128 210.4 L 128 210.4 Z M 134.4 140.8 L 216 140.8 L 216 102.4 L 134.4 102.4 L 134.4 140.8 L 134.4 140.8 Z M 95.2 268.8 Q 76.8 270.4 68.8 281.6 L 97.6 306.4 Q 97.6 306.4 97.6 306.4 Q 97.6 306.4 97.6 306.4 Q 96.8 307.2 95.2 307.2 L 95.2 268.8 L 95.2 268.8 Z M 204.8 382.4 Q 205.6 372 216 371.2 L 216 409.6 Q 227.2 409.6 235.2 401.6 Q 243.2 393.6 243.2 382.4 L 204.8 382.4 L 204.8 382.4 Z M 207.2 389.6 Q 205.6 388 204.8 382.4 L 243.2 382.4 Q 242.4 370.4 235.2 363.2 L 208 389.6 L 207.2 389.6 Z M 307.2 382.4 Q 306.4 388 304.8 389.6 L 276.8 363.2 Q 269.6 370.4 268.8 382.4 L 307.2 382.4 L 307.2 382.4 Z M 384 364.8 Q 383.2 370.4 377.6 371.2 L 377.6 409.6 Q 396.8 408.8 409.6 396.8 Q 421.6 384 422.4 364.8 L 384 364.8 L 384 364.8 Z M 416.8 268.8 Q 403.2 268.8 393.6 278.4 L 393.6 278.4 Q 384 288 384 301.6 L 422.4 301.6 Q 421.6 306.4 416.8 307.2 L 416.8 268.8 L 416.8 268.8 Z M 443.2 281.6 Q 435.2 270.4 416.8 268.8 L 416.8 307.2 Q 415.2 307.2 414.4 306.4 Q 413.6 306.4 414.4 306.4 L 443.2 281.6 L 443.2 281.6 Z M 416.8 243.2 Q 435.2 241.6 443.2 230.4 L 414.4 205.6 Q 414.4 205.6 414.4 205.6 Q 414.4 205.6 414.4 205.6 Q 415.2 204.8 416.8 204.8 L 416.8 243.2 L 416.8 243.2 Z M 128 147.2 Q 128.8 141.6 134.4 140.8 L 134.4 102.4 Q 115.2 103.2 102.4 115.2 Q 90.4 128 89.6 147.2 L 128 147.2 L 128 147.2 Z M 384 210.4 Q 384 224 393.6 233.6 L 393.6 233.6 Q 403.2 243.2 416.8 243.2 L 416.8 204.8 Q 421.6 205.6 422.4 210.4 L 384 210.4 L 384 210.4 Z M 95.2 243.2 Q 108.8 243.2 118.4 233.6 L 118.4 233.6 Q 128 224 128 210.4 L 89.6 210.4 Q 90.4 205.6 95.2 204.8 L 95.2 243.2 L 95.2 243.2 Z M 377.6 140.8 Q 383.2 141.6 384 147.2 L 422.4 147.2 Q 421.6 128 409.6 115.2 Q 396.8 103.2 377.6 102.4 L 377.6 140.8 L 377.6 140.8 Z M 68.8 230.4 Q 76.8 241.6 95.2 243.2 L 95.2 204.8 Q 96.8 204.8 97.6 205.6 Q 98.4 205.6 97.6 205.6 L 68.8 230.4 L 68.8 230.4 Z M 307.2 129.6 Q 306.4 140 296 140.8 L 296 102.4 Q 284.8 102.4 276.8 110.4 Q 268.8 118.4 268.8 129.6 L 307.2 129.6 L 307.2 129.6 Z M 128 301.6 Q 128 288 118.4 278.4 L 118.4 278.4 Q 108.8 268.8 95.2 268.8 L 95.2 307.2 Q 90.4 306.4 89.6 301.6 L 128 301.6 L 128 301.6 Z M 204.8 129.6 Q 205.6 124 207.2 122.4 L 235.2 148.8 Q 242.4 141.6 243.2 129.6 L 204.8 129.6 L 204.8 129.6 Z M 296 371.2 Q 306.4 372 307.2 382.4 L 268.8 382.4 Q 268.8 393.6 276.8 401.6 Q 284.8 409.6 296 409.6 L 296 371.2 L 296 371.2 Z M 304.8 122.4 Q 306.4 124 307.2 129.6 L 268.8 129.6 Q 269.6 141.6 276.8 148.8 L 304.8 122.4 L 304.8 122.4 Z M 134.4 371.2 Q 128.8 370.4 128 364.8 L 89.6 364.8 Q 90.4 384 102.4 396.8 Q 115.2 408.8 134.4 409.6 L 134.4 371.2 L 134.4 371.2 Z M 243.2 129.6 Q 243.2 118.4 235.2 110.4 L 235.2 110.4 Q 227.2 102.4 216 102.4 L 216 140.8 Q 205.6 140 204.8 129.6 L 243.2 129.6 L 243.2 129.6 Z" />
</svg>