<svg xmlns="http://www.w3.org/2000/svg" viewBox="0 0 512 512">
  <path d="M 179.2 217.6 Q 215.2 216.8 234.4 185.6 Q 252 153.6 234.4 121.6 Q 215.2 90.4 179.2 89.6 Q 143.2 90.4 124 121.6 Q 106.4 153.6 124 185.6 Q 143.2 216.8 179.2 217.6 L 179.2 217.6 Z M 179.2 51.2 Q 207.2 51.2 230.4 64.8 L 230.4 64.8 Q 253.6 78.4 268 102.4 Q 281.6 126.4 281.6 153.6 Q 281.6 180.8 268 204.8 Q 253.6 228.8 230.4 242.4 Q 207.2 256 179.2 256 Q 151.2 256 128 242.4 Q 104.8 228.8 90.4 204.8 Q 76.8 180.8 76.8 153.6 Q 76.8 126.4 90.4 102.4 Q 104.8 78.4 128 64.8 Q 151.2 51.2 179.2 51.2 L 179.2 51.2 Z M 39.2 422.4 L 279.2 422.4 Q 293.6 444.8 316 460.8 L 24 460.8 Q 13.6 460.8 7.2 453.6 Q 0 447.2 0 436.8 Q 1.6 376.8 41.6 336 Q 82.4 296 142.4 294.4 L 179.2 294.4 L 216 294.4 Q 240.8 294.4 263.2 302.4 Q 256.8 320.8 256 340.8 Q 237.6 332.8 216 332.8 L 142.4 332.8 Q 102.4 333.6 74.4 358.4 Q 45.6 383.2 39.2 422.4 L 39.2 422.4 Z M 281.6 345.6 Q 281.6 314.4 296.8 288 L 296.8 288 Q 312 261.6 339.2 245.6 Q 366.4 230.4 396.8 230.4 Q 427.2 230.4 454.4 245.6 Q 481.6 261.6 496.8 288 Q 512 314.4 512 345.6 Q 512 376.8 496.8 403.2 Q 481.6 429.6 454.4 445.6 Q 427.2 460.8 396.8 460.8 Q 366.4 460.8 339.2 445.6 Q 312 429.6 296.8 403.2 Q 281.6 376.8 281.6 345.6 L 281.6 345.6 Z M 396.8 281.6 Q 384.8 282.4 384 294.4 L 384 345.6 Q 384.8 357.6 396.8 358.4 L 435.2 358.4 Q 447.2 357.6 448 345.6 Q 447.2 333.6 435.2 332.8 L 409.6 332.8 L 409.6 294.4 Q 408.8 282.4 396.8 281.6 L 396.8 281.6 Z" />
</svg>