<svg xmlns="http://www.w3.org/2000/svg" viewBox="0 0 512 512">
  <path d="M 38.4 140.8 Q 39.2 119.2 53.6 104.8 L 53.6 104.8 Q 68 90.4 89.6 89.6 L 268.8 89.6 Q 290.4 90.4 304.8 104.8 Q 319.2 119.2 320 140.8 L 320 172 Q 324.8 168 330.4 163.2 Q 342.4 152.8 358.4 153.6 L 358.4 140.8 Q 357.6 102.4 332 77.6 Q 307.2 52 268.8 51.2 L 89.6 51.2 Q 51.2 52 26.4 77.6 Q 0.8 102.4 0 140.8 L 0 320 Q 0.8 358.4 26.4 383.2 Q 51.2 408.8 89.6 409.6 L 251.2 409.6 Q 240.8 392 236 371.2 L 89.6 371.2 Q 68 370.4 53.6 356 Q 39.2 341.6 38.4 320 Q 39.2 298.4 53.6 284 Q 68 269.6 89.6 268.8 L 247.2 268.8 Q 252.8 256.8 260 245.6 Q 264.8 237.6 270.4 230.4 L 89.6 230.4 Q 60.8 231.2 38.4 246.4 L 38.4 140.8 L 38.4 140.8 Z M 230.4 331.2 Q 230.4 316 235.2 300.8 L 96 300.8 Q 78.4 302.4 76.8 320 Q 78.4 337.6 96 339.2 L 230.4 339.2 Q 230.4 335.2 230.4 331.2 L 230.4 331.2 Z M 363.2 182.4 Q 359.2 179.2 355.2 179.2 Q 350.4 179.2 347.2 182.4 Q 306.4 219.2 281.6 259.2 Q 256.8 299.2 256 332.8 Q 257.6 387.2 292.8 423.2 Q 328.8 459.2 384 460.8 Q 438.4 459.2 474.4 423.2 Q 510.4 387.2 512 332.8 Q 512 320.8 506.4 304 Q 501.6 287.2 492.8 269.6 Q 474.4 233.6 444 204.8 Q 436 198.4 428 204.8 Q 416.8 216 407.2 228.8 Q 386.4 204 362.4 182.4 L 363.2 182.4 Z M 424 397.6 Q 406.4 409.6 384.8 409.6 Q 356.8 409.6 339.2 392.8 Q 320.8 376.8 320 347.2 Q 320 333.6 328.8 318.4 Q 338.4 303.2 356 281.6 Q 358.4 284.8 370.4 300 Q 382.4 315.2 393.6 329.6 Q 404.8 344 405.6 344.8 L 434.4 311.2 Q 436 313.6 437.6 316 Q 439.2 318.4 440 320.8 Q 450.4 341.6 446.4 363.2 Q 442.4 384 424 397.6 L 424 397.6 Z" />
</svg>