<svg xmlns="http://www.w3.org/2000/svg" viewBox="0 0 512 512">
  <path d="M 37.463413 60.09756 Q 22.634146 50.73171 10.926829 63.219513 Q 1.5609756 78.04878 14.04878 89.756096 L 476.09756 451.90244 Q 490.92682 461.26828 502.63416 448.7805 Q 512 433.95123 499.5122 422.2439 L 456.58536 388.68292 L 456.58536 106.14634 Q 455.80487 85.07317 441.7561 71.02439 Q 427.7073 56.97561 406.63416 56.19512 Q 385.56097 56.97561 371.5122 71.02439 Q 357.4634 85.07317 356.68292 106.14634 L 356.68292 310.63416 L 337.95123 295.80487 L 337.95123 206.04878 Q 337.17075 184.97562 323.12195 170.92683 Q 309.07318 156.87805 288 156.09756 Q 266.92682 156.87805 252.87805 170.92683 Q 238.82927 184.97562 238.04878 206.04878 L 238.04878 217.7561 L 37.463413 60.09756 L 37.463413 60.09756 Z M 275.5122 246.63414 L 275.5122 206.04878 Q 276.2927 194.34146 288 193.56097 Q 299.7073 194.34146 300.4878 206.04878 L 300.4878 266.14633 L 275.5122 246.63414 L 275.5122 246.63414 Z M 394.14633 340.2927 L 394.14633 106.14634 Q 394.92682 94.439026 406.63416 93.65854 Q 418.34146 94.439026 419.12195 106.14634 L 419.12195 359.80487 L 394.14633 339.5122 L 394.14633 340.2927 Z M 300.4878 362.14633 L 300.4878 405.85367 Q 299.7073 417.56097 288 418.34146 Q 276.2927 417.56097 275.5122 405.85367 L 275.5122 342.63416 L 238.04878 312.97562 L 238.04878 405.85367 Q 238.82927 426.92682 252.87805 440.97562 Q 266.92682 455.02438 288 455.80487 Q 309.07318 455.02438 323.12195 440.97562 Q 337.17075 426.92682 337.95123 405.85367 L 337.95123 391.80487 L 300.4878 362.14633 L 300.4878 362.14633 Z M 165.46341 256 Q 145.95122 258.34146 132.68292 271.60974 L 132.68292 271.60974 Q 120.19512 285.65854 119.414635 305.95123 L 119.414635 405.85367 Q 120.19512 426.92682 134.2439 440.97562 Q 148.29268 455.02438 169.36586 455.80487 Q 190.43903 455.02438 204.48781 440.97562 Q 218.53659 426.92682 219.31708 405.85367 L 219.31708 305.95123 Q 219.31708 302.04877 218.53659 298.14633 L 165.46341 256 L 165.46341 256 Z M 356.68292 406.63416 Q 358.2439 434.73172 381.65854 449.56097 L 381.65854 426.14633 L 356.68292 406.63416 L 356.68292 406.63416 Z M 181.85365 405.85367 Q 181.07317 417.56097 169.36586 418.34146 Q 157.65854 417.56097 156.87805 405.85367 L 156.87805 305.95123 Q 157.65854 294.2439 169.36586 293.4634 Q 181.07317 294.2439 181.85365 305.95123 L 181.85365 405.85367 L 181.85365 405.85367 Z M 69.46342 405.85367 Q 68.68293 417.56097 56.97561 418.34146 Q 45.26829 417.56097 44.487804 405.85367 Q 45.26829 394.14633 56.97561 393.36584 Q 68.68293 394.14633 69.46342 405.85367 L 69.46342 405.85367 Z M 56.97561 355.90244 Q 28.878048 356.68292 14.04878 380.87805 Q 0 405.85367 14.04878 430.82925 Q 28.878048 455.02438 56.97561 455.80487 Q 85.07317 455.02438 99.902435 430.82925 Q 113.95122 405.85367 99.902435 380.87805 Q 85.07317 356.68292 56.97561 355.90244 L 56.97561 355.90244 Z" />
</svg>