<svg xmlns="http://www.w3.org/2000/svg" viewBox="0 0 512 512">
  <path d="M 48 256 Q 48 199 76 152 L 76 152 L 76 152 Q 103 105 152 76 Q 201 48 256 48 Q 311 48 360 76 Q 409 105 436 152 Q 464 199 464 256 Q 464 313 436 360 Q 409 407 360 436 Q 311 464 256 464 Q 201 464 152 436 Q 103 407 76 360 Q 48 313 48 256 L 48 256 Z M 512 256 Q 511 186 478 128 L 478 128 L 478 128 Q 444 70 384 34 Q 323 0 256 0 Q 189 0 128 34 Q 68 70 34 128 Q 1 186 0 256 Q 1 326 34 384 Q 68 442 128 478 Q 189 512 256 512 Q 323 512 384 478 Q 444 442 478 384 Q 511 326 512 256 L 512 256 Z M 207 151 L 119 239 L 207 151 L 119 239 Q 105 256 119 273 L 207 361 L 207 361 Q 224 375 241 361 Q 255 344 241 327 L 194 280 L 194 280 L 376 280 L 376 280 Q 398 278 400 256 Q 398 234 376 232 L 194 232 L 194 232 L 241 185 L 241 185 Q 255 168 241 151 Q 224 137 207 151 L 207 151 Z" />
</svg>