<svg xmlns="http://www.w3.org/2000/svg" viewBox="0 0 637 512">
  <path d="M 142 0 Q 120 2 118 24 Q 120 46 142 48 L 326 48 L 326 48 L 326 128 L 326 128 L 128 128 L 128 128 L 77 77 L 77 77 Q 64 64 46 64 Q 25 65 12 80 Q 0 95 3 116 L 19 196 L 19 196 Q 26 224 52 237 L 176 292 L 176 292 L 254 369 L 254 369 Q 284 399 327 400 L 494 400 L 494 400 Q 525 399 545 379 Q 565 359 566 328 L 566 280 L 566 280 Q 564 215 521 173 Q 479 130 414 128 L 374 128 L 374 128 L 374 48 L 374 48 L 542 48 L 542 48 Q 564 46 566 24 Q 564 2 542 0 L 142 0 L 142 0 Z M 118 176 L 326 176 L 118 176 L 326 176 L 326 352 L 326 352 Q 304 351 288 336 L 207 255 L 207 255 Q 204 252 200 250 L 71 193 L 71 193 Q 67 191 66 187 L 53 121 L 53 121 L 101 169 L 101 169 Q 108 176 118 176 L 118 176 Z M 494 352 L 374 352 L 494 352 L 374 352 L 374 176 L 374 176 L 414 176 L 414 176 Q 458 177 488 206 Q 517 236 518 280 L 518 328 L 518 328 Q 516 350 494 352 L 494 352 Z M 621 475 Q 637 459 625 441 Q 609 425 591 437 L 564 459 L 564 459 Q 558 464 549 464 L 238 464 L 238 464 Q 216 466 214 488 Q 216 510 238 512 L 549 512 L 549 512 Q 574 512 594 496 L 621 475 L 621 475 Z" />
</svg>