<svg xmlns="http://www.w3.org/2000/svg" viewBox="0 0 512 512">
  <path d="M 179.2 217.6 Q 215.2 216.8 234.4 185.6 Q 252 153.6 234.4 121.6 Q 215.2 90.4 179.2 89.6 Q 143.2 90.4 124 121.6 Q 106.4 153.6 124 185.6 Q 143.2 216.8 179.2 217.6 L 179.2 217.6 Z M 179.2 51.2 Q 207.2 51.2 230.4 64.8 L 230.4 64.8 Q 253.6 78.4 268 102.4 Q 281.6 126.4 281.6 153.6 Q 281.6 180.8 268 204.8 Q 253.6 228.8 230.4 242.4 Q 207.2 256 179.2 256 Q 151.2 256 128 242.4 Q 104.8 228.8 90.4 204.8 Q 76.8 180.8 76.8 153.6 Q 76.8 126.4 90.4 102.4 Q 104.8 78.4 128 64.8 Q 151.2 51.2 179.2 51.2 L 179.2 51.2 Z M 39.2 422.4 L 307.2 422.4 L 307.2 435.2 Q 307.2 449.6 314.4 460.8 L 24 460.8 Q 13.6 460.8 7.2 453.6 Q 0 447.2 0 436.8 Q 1.6 376.8 41.6 336 Q 82.4 296 142.4 294.4 L 179.2 294.4 L 216 294.4 Q 268.8 295.2 307.2 328 Q 307.2 330.4 307.2 332.8 L 307.2 387.2 Q 293.6 362.4 269.6 348 Q 245.6 332.8 216 332.8 L 142.4 332.8 Q 102.4 333.6 74.4 358.4 Q 45.6 383.2 39.2 422.4 L 39.2 422.4 Z M 422.4 243.2 Q 411.2 243.2 404 250.4 L 404 250.4 Q 396.8 257.6 396.8 268.8 L 396.8 307.2 L 448 307.2 L 448 268.8 Q 448 257.6 440.8 250.4 Q 433.6 243.2 422.4 243.2 L 422.4 243.2 Z M 358.4 268.8 Q 359.2 241.6 376.8 223.2 L 376.8 223.2 Q 395.2 205.6 422.4 204.8 Q 449.6 205.6 468 223.2 Q 485.6 241.6 486.4 268.8 L 486.4 307.2 Q 497.6 307.2 504.8 314.4 Q 512 321.6 512 332.8 L 512 435.2 Q 512 446.4 504.8 453.6 Q 497.6 460.8 486.4 460.8 L 358.4 460.8 Q 347.2 460.8 340 453.6 Q 332.8 446.4 332.8 435.2 L 332.8 332.8 Q 332.8 321.6 340 314.4 Q 347.2 307.2 358.4 307.2 L 358.4 268.8 L 358.4 268.8 Z" />
</svg>