<svg xmlns="http://www.w3.org/2000/svg" viewBox="0 0 580 384">
  <path d="M 528 161 Q 533 173 544 179 L 560 187 L 560 187 Q 572 194 576 206 Q 580 218 575 230 Q 568 242 556 246 Q 544 250 532 245 L 502 230 L 502 230 Q 479 219 455 226 L 413 239 L 413 239 Q 377 249 342 237 L 312 226 L 312 226 Q 290 218 268 226 L 238 237 L 238 237 Q 203 249 167 239 L 125 226 L 125 226 Q 101 219 78 230 L 48 245 L 48 245 Q 36 250 24 246 Q 12 242 5 230 Q 0 218 4 206 Q 8 194 20 187 L 36 179 L 36 179 Q 47 173 52 161 Q 82 89 145 45 Q 208 1 290 0 Q 372 1 435 45 Q 498 89 528 161 L 528 161 Z M 201 66 Q 188 60 180 73 L 164 105 L 164 105 Q 158 119 171 126 Q 174 128 178 128 L 178 128 L 178 128 Q 188 128 192 119 L 208 87 L 208 87 Q 214 74 201 66 L 201 66 Z M 379 66 Q 366 74 372 87 L 388 119 L 388 119 Q 392 128 402 128 L 402 128 L 402 128 Q 406 128 409 126 Q 422 118 416 105 L 400 73 L 400 73 Q 393 60 379 66 L 379 66 Z M 290 64 Q 275 65 274 80 L 274 112 L 274 112 Q 275 127 290 128 Q 305 127 306 112 L 306 80 L 306 80 Q 305 65 290 64 L 290 64 Z M 92 258 Q 99 255 106 255 L 129 325 L 129 325 Q 133 335 144 336 L 436 336 L 436 336 Q 447 335 451 325 L 474 255 L 474 255 Q 481 255 488 258 L 517 273 L 517 273 Q 518 273 518 273 Q 518 274 519 274 L 496 340 L 496 340 Q 490 360 473 372 Q 457 384 436 384 L 144 384 L 144 384 Q 123 384 107 372 Q 90 360 83 340 L 61 274 L 61 274 Q 62 274 62 274 Q 62 273 63 273 L 92 259 L 92 258 Z" />
</svg>