<svg xmlns="http://www.w3.org/2000/svg" viewBox="0 0 512 512">
  <path d="M 115.38028 153.43974 Q 116.18153 117.383415 147.43036 98.153366 Q 179.48044 80.52582 211.53052 98.153366 Q 242.77934 117.383415 243.5806 153.43974 Q 242.77934 189.4961 211.53052 208.72614 Q 179.48044 226.35368 147.43036 208.72614 Q 116.18153 189.4961 115.38028 153.43974 L 115.38028 153.43974 Z M 282.04068 153.43974 Q 282.04068 125.39593 268.4194 102.15962 L 268.4194 102.15962 Q 254.79813 78.92332 230.76056 64.500786 Q 206.723 50.879498 179.48044 50.879498 Q 152.23787 50.879498 128.20032 64.500786 Q 104.16276 78.92332 90.54147 102.15962 Q 76.92019 125.39593 76.92019 153.43974 Q 76.92019 181.48357 90.54147 204.71988 Q 104.16276 227.95618 128.20032 242.37872 Q 152.23787 256 179.48044 256 Q 206.723 256 230.76056 242.37872 Q 254.79813 227.95618 268.4194 204.71988 Q 282.04068 181.48357 282.04068 153.43974 L 282.04068 153.43974 Z M 216.33803 332.9202 Q 256.40063 333.72144 285.2457 358.56024 L 285.2457 358.56024 Q 313.28952 383.39905 319.69952 422.6604 L 39.261345 422.6604 Q 45.67136 383.39905 73.71518 358.56024 Q 102.56025 333.72144 142.62285 332.9202 L 216.33803 332.9202 L 216.33803 332.9202 Z M 142.62285 294.46008 Q 82.52895 296.0626 41.6651 336.12518 L 41.6651 336.12518 Q 1.6025039 376.98904 0 437.08295 Q 0 447.4992 7.2112675 453.90924 Q 13.621284 461.1205 24.03756 461.1205 L 334.9233 461.1205 Q 345.3396 461.1205 351.7496 453.90924 Q 358.96088 447.4992 358.96088 437.08295 Q 357.35837 376.98904 317.29578 336.12518 Q 276.43192 296.0626 216.33803 294.46008 L 179.48044 294.46008 L 142.62285 294.46008 L 142.62285 294.46008 Z M 500.78247 192.7011 Q 512 179.07982 500.78247 165.45853 Q 487.1612 154.241 473.53992 165.45853 L 384.60095 254.39749 L 346.9421 216.73865 Q 333.3208 205.52113 319.69952 216.73865 Q 308.482 230.35994 319.69952 243.98122 L 370.97964 295.26135 Q 384.60095 306.47888 398.22223 295.26135 L 500.78247 192.7011 L 500.78247 192.7011 Z" />
</svg>