<svg xmlns="http://www.w3.org/2000/svg" viewBox="0 0 448 448">
  <path d="M 368 400 L 368 48 L 368 400 L 368 48 L 400 48 L 400 48 L 400 400 L 400 400 L 368 400 L 368 400 Z M 320 400 Q 321 420 334 434 L 334 434 L 334 434 Q 348 447 368 448 L 400 448 L 400 448 Q 420 447 434 434 Q 447 420 448 400 L 448 48 L 448 48 Q 447 28 434 14 Q 420 1 400 0 L 368 0 L 368 0 Q 348 1 334 14 Q 321 28 320 48 L 320 400 L 320 400 Z M 80 336 L 48 336 L 80 336 L 48 336 L 48 48 L 48 48 L 80 48 L 80 48 L 80 336 L 80 336 Z M 48 384 L 80 384 L 48 384 L 80 384 Q 100 383 114 370 Q 127 356 128 336 L 128 48 L 128 48 Q 127 28 114 14 Q 100 1 80 0 L 48 0 L 48 0 Q 28 1 14 14 Q 1 28 0 48 L 0 336 L 0 336 Q 1 356 14 370 Q 28 383 48 384 L 48 384 Z M 240 208 L 208 208 L 240 208 L 208 208 L 208 48 L 208 48 L 240 48 L 240 48 L 240 208 L 240 208 Z M 208 256 L 240 256 L 208 256 L 240 256 Q 260 255 274 242 Q 287 228 288 208 L 288 48 L 288 48 Q 287 28 274 14 Q 260 1 240 0 L 208 0 L 208 0 Q 188 1 174 14 Q 161 28 160 48 L 160 208 L 160 208 Q 161 228 174 242 Q 188 255 208 256 L 208 256 Z" />
</svg>