<svg xmlns="http://www.w3.org/2000/svg" viewBox="0 0 514 448">
  <path d="M 170 353 Q 146 345 126 359 Q 113 369 86 382 Q 95 360 98 333 Q 99 313 86 297 Q 50 257 50 208 Q 51 146 107 98 Q 163 51 258 48 Q 353 51 409 98 Q 465 146 466 208 Q 465 270 409 318 Q 353 365 258 368 Q 210 368 170 353 L 170 353 Z M 28 392 Q 26 396 23 400 L 23 400 L 23 400 Q 22 402 21 404 Q 19 406 18 407 Q 13 414 7 421 Q 0 428 3 438 Q 8 448 18 448 Q 22 448 26 448 Q 30 448 34 447 L 34 447 L 34 447 Q 41 446 47 445 Q 49 445 50 445 Q 50 445 50 445 Q 77 439 100 429 Q 135 412 154 398 Q 202 416 258 416 Q 330 415 388 388 Q 445 360 479 313 Q 513 266 514 208 Q 513 150 479 103 Q 445 56 387 28 Q 330 1 258 0 Q 186 1 129 28 Q 71 56 37 103 Q 3 150 2 208 Q 3 277 50 329 Q 45 366 28 392 L 28 392 Z M 98 181 Q 99 200 114 212 L 144 231 L 144 231 Q 146 233 146 235 Q 146 240 141 240 L 114 240 L 114 240 Q 99 241 98 256 Q 99 271 114 272 L 141 272 L 141 272 Q 157 272 167 261 Q 178 251 178 235 Q 177 216 162 205 L 132 185 L 132 185 Q 130 183 130 181 Q 130 176 135 176 L 154 176 L 154 176 Q 169 175 170 160 Q 169 145 154 144 L 135 144 L 135 144 Q 119 144 109 155 Q 98 165 98 181 L 98 181 Z M 375 144 Q 359 144 349 155 L 349 155 L 349 155 Q 338 165 338 181 Q 339 200 354 212 L 384 231 L 384 231 Q 386 233 386 235 Q 386 240 381 240 L 354 240 L 354 240 Q 339 241 338 256 Q 339 271 354 272 L 381 272 L 381 272 Q 397 272 407 261 Q 418 251 418 235 Q 417 216 402 205 L 372 185 L 372 185 Q 370 183 370 181 Q 370 176 375 176 L 394 176 L 394 176 Q 409 175 410 160 Q 409 145 394 144 L 375 144 L 375 144 Z M 223 150 Q 216 142 205 145 Q 195 149 194 160 L 194 256 L 194 256 Q 195 271 210 272 Q 225 271 226 256 L 226 208 L 226 208 L 245 234 L 245 234 Q 250 240 258 240 Q 266 240 271 234 L 290 208 L 290 208 L 290 256 L 290 256 Q 291 271 306 272 Q 321 271 322 256 L 322 160 L 322 160 Q 321 149 311 145 Q 300 142 293 150 L 258 197 L 258 197 L 223 150 L 223 150 Z" />
</svg>