<svg xmlns="http://www.w3.org/2000/svg" viewBox="0 0 519 519">
  <path d="M 368 208 Q 368 165 347 128 L 347 128 L 347 128 Q 325 91 288 69 Q 250 48 208 48 Q 166 48 128 69 Q 91 91 69 128 Q 48 165 48 208 Q 48 251 69 288 Q 91 325 128 347 Q 166 368 208 368 Q 250 368 288 347 Q 325 325 347 288 Q 368 251 368 208 L 368 208 Z M 337 371 Q 283 415 208 416 Q 120 414 61 355 Q 2 296 0 208 Q 2 120 61 61 Q 120 2 208 0 Q 296 2 355 61 Q 414 120 416 208 Q 415 283 371 337 L 505 471 L 505 471 Q 519 488 505 505 Q 488 519 471 505 L 337 371 L 337 371 Z M 162 130 Q 170 126 178 130 L 288 194 L 288 194 Q 296 199 296 208 Q 296 217 288 222 L 178 286 L 178 286 Q 170 290 162 286 Q 154 281 154 272 L 154 144 L 154 144 Q 154 135 162 130 L 162 130 Z" />
</svg>