<svg xmlns="http://www.w3.org/2000/svg" viewBox="0 0 512 512">
  <path d="M 38.4 89.6 L 473.6 89.6 L 473.6 115.2 L 38.4 115.2 L 38.4 89.6 L 38.4 89.6 Z M 25.6 51.2 Q 14.4 51.2 7.2 58.4 L 7.2 58.4 Q 0 65.6 0 76.8 L 0 128 Q 0 139.2 7.2 146.4 Q 14.4 153.6 25.6 153.6 L 25.6 441.6 Q 27.2 459.2 44.8 460.8 L 108.8 460.8 Q 126.4 459.2 128 441.6 L 128 345.6 Q 129.6 291.2 165.6 255.2 Q 201.6 219.2 256 217.6 Q 310.4 219.2 346.4 255.2 Q 382.4 291.2 384 345.6 L 384 441.6 Q 385.6 459.2 403.2 460.8 L 467.2 460.8 Q 484.8 459.2 486.4 441.6 L 486.4 153.6 Q 497.6 153.6 504.8 146.4 Q 512 139.2 512 128 L 512 76.8 Q 512 65.6 504.8 58.4 Q 497.6 51.2 486.4 51.2 L 25.6 51.2 L 25.6 51.2 Z M 64 422.4 L 64 153.6 L 448 153.6 L 448 422.4 L 422.4 422.4 L 422.4 345.6 Q 420.8 275.2 373.6 228 Q 326.4 180.8 256 179.2 Q 185.6 180.8 138.4 228 Q 91.2 275.2 89.6 345.6 L 89.6 422.4 L 64 422.4 L 64 422.4 Z M 240.8 258.4 Q 237.6 256 235.2 256 Q 231.2 256 228.8 258.4 Q 199.2 284.8 181.6 313.6 Q 163.2 343.2 162.4 368 Q 164 407.2 189.6 433.6 Q 216 460 256 460.8 Q 295.2 460 321.6 433.6 Q 348 407.2 348.8 368 Q 348 348 335.2 321.6 Q 321.6 296 300 274.4 Q 293.6 270.4 288 274.4 Q 280 283.2 272.8 292 Q 257.6 273.6 240.8 258.4 L 240.8 258.4 Z M 284.8 415.2 Q 272 423.2 256.8 423.2 Q 236 423.2 223.2 411.2 Q 209.6 400 209.6 378.4 Q 209.6 368 216 356.8 Q 222.4 346.4 235.2 330.4 Q 237.6 332.8 245.6 344 Q 254.4 354.4 262.4 364.8 Q 271.2 376 272 376.8 L 292.8 352 Q 294.4 355.2 296 358.4 Q 296.8 358.4 296.8 359.2 Q 304.8 373.6 301.6 389.6 Q 298.4 404.8 284.8 415.2 L 284.8 415.2 Z" />
</svg>