<svg xmlns="http://www.w3.org/2000/svg" viewBox="0 0 512 512">
  <path d="M 88 158.4 Q 76 167.2 67.2 179.2 Q 38.4 180.8 20 200.8 Q 0.8 220.8 0 249.6 L 0 300.8 Q 1.6 318.4 19.2 320 Q 36.8 318.4 38.4 300.8 L 38.4 249.6 Q 39.2 232.8 51.2 224 Q 51.2 227.2 51.2 230.4 Q 51.2 248 57.6 264 L 75.2 308 L 68.8 324.8 Q 55.2 362.4 65.6 400 L 74.4 432.8 Q 77.6 445.6 88 452.8 Q 98.4 460.8 111.2 460.8 L 151.2 460.8 Q 170.4 460 181.6 445.6 Q 192.8 431.2 188 412 L 176 369.6 Q 175.2 368 176 365.6 L 186.4 340 Q 188 335.2 188.8 331.2 L 230.4 343.2 L 230.4 422.4 Q 231.2 438.4 241.6 449.6 Q 252.8 460 268.8 460.8 L 307.2 460.8 Q 323.2 460 334.4 449.6 Q 344.8 438.4 345.6 422.4 L 345.6 313.6 Q 370.4 285.6 371.2 244.8 L 371.2 244 L 371.2 243.2 L 371.2 236.8 Q 392.8 244 416 236 Q 436.8 227.2 448 208 Q 458.4 189.6 456 167.2 L 448 111.2 Q 445.6 97.6 439.2 86.4 Q 447.2 80.8 448 70.4 Q 446.4 52.8 428.8 51.2 L 384 51.2 L 384 51.2 Q 382.4 51.2 380.8 51.2 Q 379.2 51.2 378.4 51.2 L 377.6 51.2 L 352 51.2 L 345.6 51.2 Q 343.2 51.2 341.6 52 Q 304 55.2 276 78.4 Q 248 100.8 236 135.2 L 131.2 72.8 Q 121.6 68 112 72.8 Q 102.4 78.4 102.4 89.6 Q 103.2 135.2 120 168 Q 137.6 200.8 159.2 220.8 Q 181.6 241.6 197.6 251.2 Q 205.6 256 211.2 258.4 Q 211.2 258.4 212 258.4 Q 213.6 259.2 214.4 260 Q 214.4 260 214.4 260 Q 215.2 260 216 260.8 L 216 260.8 L 216 260.8 L 216 260.8 L 216 260.8 Q 216 261.6 216.8 258.4 Q 218.4 256 224 243.2 L 216 260.8 Q 232.8 266.4 241.6 251.2 Q 247.2 234.4 232 225.6 L 232 225.6 L 231.2 225.6 L 231.2 225.6 Q 230.4 224.8 228 224 Q 224.8 222.4 217.6 218.4 Q 204 210.4 186.4 193.6 Q 159.2 169.6 145.6 126.4 L 160.8 135.2 L 230.4 176.8 Q 232.8 178.4 236.8 179.2 L 236.8 179.2 L 239.2 179.2 Q 240 179.2 240 179.2 L 250.4 179.2 Q 266.4 177.6 269.6 162.4 Q 273.6 132 295.2 112 Q 316 92 346.4 89.6 Q 347.2 89.6 348 89.6 Q 348 89.6 348 89.6 L 352 89.6 L 377.6 89.6 L 378.4 89.6 Q 390.4 89.6 399.2 97.6 Q 408 104.8 409.6 116.8 L 417.6 172 Q 419.2 192 401.6 200 Q 384 206.4 372 192 L 367.2 186.4 Q 358.4 176.8 345.6 180 Q 333.6 185.6 332.8 198.4 L 332.8 242.4 Q 332.8 242.4 332.8 243.2 Q 332.8 243.2 332.8 243.2 Q 332.8 244 332.8 244 Q 332.8 244.8 332.8 244.8 Q 332 273.6 312.8 292 Q 307.2 297.6 307.2 305.6 L 307.2 422.4 L 268.8 422.4 L 268.8 328 Q 268 313.6 253.6 309.6 Q 251.2 308.8 248.8 308 L 178.4 287.2 Q 168.8 284.8 160.8 290.4 Q 153.6 296.8 153.6 306.4 Q 153.6 307.2 153.6 307.2 Q 153.6 316.8 150.4 326.4 L 140.8 352 Q 135.2 365.6 139.2 380 L 151.2 422.4 L 111.2 422.4 L 102.4 390.4 Q 95.2 364 104.8 338.4 L 111.2 320.8 Q 116 307.2 111.2 293.6 L 93.6 249.6 Q 89.6 240.8 89.6 230.4 Q 90.4 208.8 104 194.4 Q 94.4 178.4 88 158.4 L 88 158.4 Z M 371.2 140.8 Q 383.2 140 384 128 Q 383.2 116 371.2 115.2 Q 359.2 116 358.4 128 Q 359.2 140 371.2 140.8 L 371.2 140.8 Z M 504.8 102.4 L 435.2 102.4 L 435.2 140.8 L 507.2 116.8 Q 512 115.2 512 109.6 Q 511.2 103.2 504.8 102.4 L 504.8 102.4 Z" />
</svg>