<svg xmlns="http://www.w3.org/2000/svg" viewBox="0 0 640 384">
  <path d="M 424 24 Q 422 46 400 48 L 328 48 L 328 48 L 328 80 L 328 80 L 397 80 L 397 80 Q 416 80 432 91 L 484 125 L 484 125 Q 511 145 512 178 L 512 320 L 512 320 Q 511 347 493 365 Q 475 383 448 384 L 255 384 L 255 384 Q 224 383 205 360 L 173 320 L 173 320 L 144 320 L 144 320 Q 117 319 99 301 Q 81 283 80 256 L 80 216 L 80 216 L 48 216 L 48 216 L 48 288 L 48 288 Q 46 310 24 312 Q 2 310 0 288 L 0 96 L 0 96 Q 2 74 24 72 Q 46 74 48 96 L 48 168 L 48 168 L 80 168 L 80 168 L 80 144 L 80 144 Q 81 117 99 99 Q 117 81 144 80 L 160 80 L 280 80 L 280 48 L 280 48 L 208 48 L 208 48 Q 186 46 184 24 Q 186 2 208 0 L 400 0 L 400 0 Q 422 2 424 24 L 424 24 Z M 210 290 L 242 330 L 210 290 L 242 330 Q 247 336 255 336 L 448 336 L 448 336 Q 463 335 464 320 L 464 178 L 464 178 Q 464 170 457 165 L 406 131 L 406 131 Q 402 128 397 128 L 192 128 L 144 128 Q 129 129 128 144 L 128 256 L 128 256 Q 129 271 144 272 L 173 272 L 173 272 Q 196 272 210 290 L 210 290 Z M 544 160 Q 544 146 553 137 L 553 137 L 553 137 Q 562 128 576 128 L 608 128 L 608 128 Q 622 128 631 137 Q 640 146 640 160 L 640 352 L 640 352 Q 640 366 631 375 Q 622 384 608 384 L 576 384 L 576 384 Q 562 384 553 375 Q 544 366 544 352 L 544 160 L 544 160 Z M 304 148 Q 322 150 324 168 L 324 224 L 324 224 Q 322 242 304 244 Q 286 242 284 224 L 284 168 L 284 168 Q 286 150 304 148 L 304 148 Z M 280 288 Q 282 266 304 264 Q 326 266 328 288 Q 326 310 304 312 Q 282 310 280 288 L 280 288 Z" />
</svg>