<svg xmlns="http://www.w3.org/2000/svg" viewBox="0 0 640 512">
  <path d="M 24 0 Q 2 2 0 24 Q 2 46 24 48 L 32 48 L 32 48 L 32 99 L 32 99 Q 2 111 0 144 L 0 368 L 0 368 Q 1 388 14 402 Q 28 415 48 416 L 64 416 L 64 416 Q 65 457 92 484 Q 119 511 160 512 Q 201 511 228 484 Q 255 457 256 416 L 384 416 L 384 416 Q 385 457 412 484 Q 439 511 480 512 Q 521 511 548 484 Q 575 457 576 416 L 592 416 L 592 416 Q 612 415 626 402 Q 639 388 640 368 L 640 144 L 640 144 Q 639 124 626 110 Q 612 97 592 96 L 544 96 L 544 96 Q 544 82 535 73 Q 526 64 512 64 Q 498 64 489 73 Q 480 82 480 96 L 384 96 L 384 96 L 384 48 L 384 48 L 616 48 L 616 48 Q 638 46 640 24 Q 638 2 616 0 L 24 0 L 24 0 Z M 336 48 L 336 96 L 336 48 L 336 96 L 280 96 L 280 96 L 280 48 L 280 48 L 336 48 L 336 48 Z M 336 144 L 384 144 L 336 144 L 384 144 L 384 224 L 384 224 L 48 224 L 48 224 L 48 144 L 48 144 L 336 144 L 336 144 Z M 48 368 L 48 272 L 48 368 L 48 272 L 400 272 L 400 272 Q 414 272 423 263 Q 432 254 432 240 L 432 144 L 432 144 L 592 144 L 592 144 L 592 368 L 592 368 L 563 368 L 563 368 Q 550 346 529 333 Q 507 320 480 320 Q 453 320 431 333 Q 410 346 397 368 L 243 368 L 243 368 Q 230 346 209 333 Q 187 320 160 320 Q 133 320 111 333 Q 89 346 77 368 L 48 368 L 48 368 Z M 232 48 L 232 96 L 232 48 L 232 96 L 184 96 L 184 96 L 184 48 L 184 48 L 232 48 L 232 48 Z M 136 48 L 136 96 L 136 48 L 136 96 L 80 96 L 80 96 L 80 48 L 80 48 L 136 48 L 136 48 Z M 112 416 Q 113 389 136 374 Q 160 362 184 374 Q 207 389 208 416 Q 207 443 184 458 Q 160 470 136 458 Q 113 443 112 416 L 112 416 Z M 480 368 Q 507 369 522 392 Q 534 416 522 440 Q 507 463 480 464 Q 453 463 438 440 Q 426 416 438 392 Q 453 369 480 368 L 480 368 Z M 488 176 Q 466 178 464 200 L 464 248 L 464 248 Q 466 270 488 272 L 536 272 L 536 272 Q 558 270 560 248 L 560 200 L 560 200 Q 558 178 536 176 L 488 176 L 488 176 Z" />
</svg>