<svg xmlns="http://www.w3.org/2000/svg" viewBox="0 0 512 512">
  <path d="M 256.5 0 Q 242.5 0 233.5 9 L 233.5 9 Q 224.5 18 224.5 32 L 224.5 50 Q 168.5 60 133.5 101 Q 97.5 142 96.5 200 L 96.5 233 Q 95.5 303 52.5 358 L 37.5 377 Q 28.5 389 34.5 402 Q 41.5 415 56.5 416 L 456.5 416 Q 471.5 415 478.5 402 Q 483.5 389 475.5 377 L 460.5 358 Q 417.5 303 416.5 233 L 416.5 200 Q 415.5 142 379.5 101 Q 344.5 60 288.5 50 L 288.5 32 Q 288.5 18 279.5 9 Q 270.5 0 256.5 0 L 256.5 0 Z M 256.5 96 L 264.5 96 Q 308.5 97 338.5 126 Q 367.5 156 368.5 200 L 368.5 233 Q 368.5 307 408.5 368 L 104.5 368 Q 143.5 307 144.5 233 L 144.5 200 Q 145.5 156 174.5 126 Q 204.5 97 248.5 96 L 256.5 96 L 256.5 96 Z M 320.5 448 L 256.5 448 L 192.5 448 Q 192.5 474 211.5 493 Q 230.5 512 256.5 512 Q 282.5 512 301.5 493 Q 320.5 474 320.5 448 L 320.5 448 Z M 256.5 152 Q 234.5 154 232.5 176 L 232.5 216 L 192.5 216 Q 170.5 218 168.5 240 Q 170.5 262 192.5 264 L 232.5 264 L 232.5 304 Q 234.5 326 256.5 328 Q 278.5 326 280.5 304 L 280.5 264 L 320.5 264 Q 342.5 262 344.5 240 Q 342.5 218 320.5 216 L 280.5 216 L 280.5 176 Q 278.5 154 256.5 152 L 256.5 152 Z" />
</svg>