<svg xmlns="http://www.w3.org/2000/svg" viewBox="0 0 576 384">
  <path d="M 0 64 Q 1 37 19 19 L 19 19 L 19 19 Q 37 1 64 0 L 512 0 L 512 0 Q 539 1 557 19 Q 575 37 576 64 L 576 124 L 576 124 Q 575 141 560 147 Q 530 159 528 192 Q 530 225 560 237 Q 575 244 576 260 L 576 320 L 576 320 Q 575 347 557 365 Q 539 383 512 384 L 64 384 L 64 384 Q 37 383 19 365 Q 1 347 0 320 L 0 260 L 0 260 Q 1 244 16 237 Q 46 225 48 192 Q 46 159 16 147 Q 1 140 0 124 L 0 64 L 0 64 Z M 64 48 Q 49 49 48 64 L 48 109 L 48 109 Q 70 122 83 143 Q 96 165 96 192 Q 96 219 83 241 Q 70 262 48 275 L 48 320 L 48 320 Q 49 335 64 336 L 512 336 L 512 336 Q 527 335 528 320 L 528 275 L 528 275 Q 506 262 493 241 Q 480 219 480 192 Q 480 165 493 143 Q 506 122 528 109 L 528 64 L 528 64 Q 527 49 512 48 L 64 48 L 64 48 Z" />
</svg>