<svg xmlns="http://www.w3.org/2000/svg" viewBox="0 0 640 512">
  <path d="M 48 48 L 592 48 L 48 48 L 592 48 L 592 80 L 592 80 L 48 80 L 48 80 L 48 48 L 48 48 Z M 32 0 Q 18 0 9 9 L 9 9 L 9 9 Q 0 18 0 32 L 0 96 L 0 96 Q 0 110 9 119 Q 18 128 32 128 L 32 488 L 32 488 Q 34 510 56 512 L 136 512 L 136 512 Q 158 510 160 488 L 160 368 L 160 368 Q 162 300 207 255 Q 252 210 320 208 Q 388 210 433 255 Q 478 300 480 368 L 480 488 L 480 488 Q 482 510 504 512 L 584 512 L 584 512 Q 606 510 608 488 L 608 128 L 608 128 Q 622 128 631 119 Q 640 110 640 96 L 640 32 L 640 32 Q 640 18 631 9 Q 622 0 608 0 L 32 0 L 32 0 Z M 80 464 L 80 128 L 80 464 L 80 128 L 560 128 L 560 128 L 560 464 L 560 464 L 528 464 L 528 464 L 528 368 L 528 368 Q 526 280 467 221 Q 408 162 320 160 Q 232 162 173 221 Q 114 280 112 368 L 112 464 L 112 464 L 80 464 L 80 464 Z M 338 299 L 325 285 L 338 299 L 325 285 Q 323 283 321 281 Q 321 281 321 281 Q 321 281 321 281 Q 321 281 321 281 Q 312 268 298 266 Q 290 265 283 271 Q 257 294 234 327 Q 210 360 208 400 Q 209 448 240 479 Q 272 511 320 512 Q 368 511 399 479 Q 431 448 432 400 Q 431 368 414 338 Q 397 309 375 289 Q 369 284 361 284 Q 353 283 347 290 L 338 299 L 338 299 Z M 365 434 Q 364 453 352 465 L 352 465 L 352 465 Q 339 478 320 479 Q 301 478 288 465 Q 276 453 275 434 Q 276 414 290 397 Q 303 380 314 372 Q 320 367 326 372 Q 337 380 350 397 Q 363 414 365 434 L 365 434 Z" />
</svg>