<svg xmlns="http://www.w3.org/2000/svg" viewBox="0 0 640 448">
  <path d="M 50 0 L 141 0 L 50 0 L 141 0 L 115 128 L 115 128 L 21 128 L 21 128 Q 2 126 0 107 Q 0 104 1 101 L 27 17 L 27 17 Q 33 1 50 0 L 50 0 Z M 272 128 L 148 128 L 272 128 L 148 128 L 173 0 L 173 0 L 272 0 L 272 0 L 272 128 L 272 128 Z M 304 128 L 304 0 L 304 128 L 304 0 L 403 0 L 403 0 L 417 72 L 417 72 Q 415 74 413 76 Q 385 101 362 128 L 304 128 L 304 128 Z M 514 104 Q 511 107 509 109 Q 493 92 475 76 Q 463 66 448 64 L 436 0 L 436 0 L 526 0 L 526 0 Q 543 1 549 17 L 575 101 L 575 101 Q 575 102 576 103 Q 562 92 545 92 Q 528 92 514 104 L 514 104 Z M 80 160 L 338 160 L 80 160 L 338 160 Q 331 169 325 179 Q 316 193 309 208 L 86 208 L 86 208 L 106 368 L 106 368 L 306 368 L 306 368 Q 318 394 338 416 L 112 416 L 112 416 L 112 424 L 112 424 Q 110 446 88 448 Q 66 446 64 424 L 64 416 L 64 416 L 42 240 L 42 240 L 24 240 L 24 240 Q 2 238 0 216 Q 2 194 24 192 L 36 192 L 36 192 L 32 160 L 32 160 L 80 160 L 80 160 Z M 506 144 L 518 131 L 506 144 L 518 131 Q 527 122 539 122 Q 550 122 559 129 Q 590 158 614 200 Q 638 242 640 288 Q 638 356 593 401 Q 548 446 480 448 Q 411 446 366 401 Q 322 356 320 288 Q 323 231 357 184 Q 390 136 428 104 Q 437 96 448 96 Q 468 99 481 118 Q 481 118 481 118 Q 484 121 487 124 L 506 144 L 506 144 Z M 544 336 Q 542 308 523 284 L 523 284 L 523 284 Q 504 260 489 248 Q 480 241 471 248 Q 456 260 437 284 Q 418 308 416 336 Q 417 363 435 381 Q 453 400 480 400 Q 507 400 525 381 Q 543 363 544 336 L 544 336 Z" />
</svg>