<svg xmlns="http://www.w3.org/2000/svg" viewBox="0 0 448 512">
  <path d="M 384 336 L 192 336 L 384 336 L 192 336 Q 177 335 176 320 L 176 64 L 176 64 Q 177 49 192 48 L 332 48 L 332 48 L 400 116 L 400 116 L 400 320 L 400 320 Q 399 335 384 336 L 384 336 Z M 192 384 L 384 384 L 192 384 L 384 384 Q 411 383 429 365 Q 447 347 448 320 L 448 116 L 448 116 Q 448 96 434 82 L 366 14 L 366 14 Q 352 0 332 0 L 192 0 L 192 0 Q 165 1 147 19 Q 129 37 128 64 L 128 320 L 128 320 Q 129 347 147 365 Q 165 383 192 384 L 192 384 Z M 64 128 Q 37 129 19 147 L 19 147 L 19 147 Q 1 165 0 192 L 0 448 L 0 448 Q 1 475 19 493 Q 37 511 64 512 L 256 512 L 256 512 Q 283 511 301 493 Q 319 475 320 448 L 320 416 L 320 416 L 272 416 L 272 416 L 272 448 L 272 448 Q 271 463 256 464 L 64 464 L 64 464 Q 49 463 48 448 L 48 192 L 48 192 Q 49 177 64 176 L 96 176 L 96 176 L 96 128 L 96 128 L 64 128 L 64 128 Z" />
</svg>