<svg xmlns="http://www.w3.org/2000/svg" viewBox="0 0 448 512">
  <path d="M 369 295 L 241 167 L 369 295 L 241 167 Q 224 153 207 167 L 79 295 L 79 295 Q 65 312 79 329 Q 96 343 113 329 L 200 242 L 200 242 L 200 488 L 200 488 Q 202 510 224 512 Q 246 510 248 488 L 248 242 L 248 242 L 335 329 L 335 329 Q 352 343 369 329 Q 383 312 369 295 L 369 295 Z M 48 168 L 48 88 L 48 168 L 48 88 Q 48 71 60 60 Q 71 48 88 48 L 360 48 L 360 48 Q 377 48 388 60 Q 400 71 400 88 L 400 168 L 400 168 Q 402 190 424 192 Q 446 190 448 168 L 448 88 L 448 88 Q 447 51 422 26 Q 397 1 360 0 L 88 0 L 88 0 Q 51 1 26 26 Q 1 51 0 88 L 0 168 L 0 168 Q 2 190 24 192 Q 46 190 48 168 L 48 168 Z" />
</svg>