<svg xmlns="http://www.w3.org/2000/svg" viewBox="0 0 448 393">
  <path d="M 400 64 L 400 320 L 400 64 L 400 320 Q 399 335 384 336 Q 369 335 368 320 L 368 64 L 368 64 Q 369 49 384 48 Q 399 49 400 64 L 400 64 Z M 384 0 Q 357 1 339 19 L 339 19 L 339 19 Q 321 37 320 64 L 320 320 L 320 320 Q 321 347 339 365 Q 357 383 384 384 Q 411 383 429 365 Q 447 347 448 320 L 448 64 L 448 64 Q 447 37 429 19 Q 411 1 384 0 L 384 0 Z M 224 336 Q 209 335 208 320 L 208 192 L 208 192 Q 209 177 224 176 Q 239 177 240 192 L 240 320 L 240 320 Q 239 335 224 336 L 224 336 Z M 224 128 Q 197 129 179 147 L 179 147 L 179 147 Q 161 165 160 192 L 160 320 L 160 320 Q 161 347 179 365 Q 197 383 224 384 Q 251 383 269 365 Q 287 347 288 320 L 288 192 L 288 192 Q 287 165 269 147 Q 251 129 224 128 L 224 128 Z M 64 304 Q 79 305 80 320 Q 79 335 64 336 Q 49 335 48 320 Q 49 305 64 304 L 64 304 Z M 0 320 Q 1 356 32 375 Q 64 393 96 375 Q 127 356 128 320 Q 127 284 96 265 Q 64 247 32 265 Q 1 284 0 320 L 0 320 Z" />
</svg>