<svg xmlns="http://www.w3.org/2000/svg" viewBox="0 0 496 521">
  <path d="M 184 73 Q 183 37 152 18 Q 120 0 88 18 Q 57 37 56 73 Q 57 109 88 128 Q 120 146 152 128 Q 183 109 184 73 L 184 73 Z M 104 217 L 136 217 L 104 217 L 136 217 Q 147 218 151 229 L 184 345 L 184 345 L 56 345 L 56 345 L 89 229 L 89 229 Q 93 218 104 217 L 104 217 Z M 104 169 Q 82 169 66 182 L 66 182 L 66 182 Q 49 194 43 215 L 4 352 L 4 352 Q 0 368 9 380 Q 18 392 34 393 L 56 393 L 56 393 L 56 497 L 56 497 Q 58 519 80 521 Q 102 519 104 497 L 104 393 L 104 393 L 136 393 L 136 393 L 136 497 L 136 497 Q 138 519 160 521 Q 182 519 184 497 L 184 393 L 184 393 L 206 393 L 206 393 Q 222 392 231 380 Q 240 368 236 352 L 197 215 L 197 215 Q 191 194 174 182 Q 158 169 136 169 L 104 169 L 104 169 Z M 440 73 Q 439 37 408 18 Q 376 0 344 18 Q 313 37 312 73 Q 313 109 344 128 Q 376 146 408 128 Q 439 109 440 73 L 440 73 Z M 360 217 L 392 217 L 360 217 L 392 217 Q 403 218 407 229 L 440 345 L 440 345 L 312 345 L 312 345 L 345 229 L 345 229 Q 349 218 360 217 L 360 217 Z M 360 169 Q 338 169 322 182 L 322 182 L 322 182 Q 305 194 299 215 L 260 352 L 260 352 Q 256 368 265 380 Q 274 392 291 393 L 312 393 L 312 393 L 312 497 L 312 497 Q 314 519 336 521 Q 358 519 360 497 L 360 393 L 360 393 L 392 393 L 392 393 L 392 497 L 392 497 Q 394 519 416 521 Q 438 519 440 497 L 440 393 L 440 393 L 462 393 L 462 393 Q 478 392 487 380 Q 496 368 493 352 L 453 215 L 453 215 Q 447 194 430 182 Q 414 169 392 169 L 360 169 L 360 169 Z" />
</svg>