<svg xmlns="http://www.w3.org/2000/svg" viewBox="0 0 576 384">
  <path d="M 384 48 Q 445 50 486 90 L 486 90 L 486 90 Q 526 131 528 192 Q 526 253 486 294 Q 445 334 384 336 L 192 336 L 192 336 Q 131 334 90 294 Q 50 253 48 192 Q 50 131 90 90 Q 131 50 192 48 L 384 48 L 384 48 Z M 576 192 Q 574 110 520 56 L 520 56 L 520 56 Q 466 2 384 0 L 192 0 L 192 0 Q 110 2 56 56 Q 2 110 0 192 Q 2 274 56 328 Q 110 382 192 384 L 384 384 L 384 384 Q 466 382 520 328 Q 574 274 576 192 L 576 192 Z M 240 192 Q 239 219 216 234 Q 192 246 168 234 Q 145 219 144 192 Q 145 165 168 150 Q 192 138 216 150 Q 239 165 240 192 L 240 192 Z M 96 192 Q 96 218 109 240 L 109 240 L 109 240 Q 122 262 144 275 Q 167 288 192 288 Q 217 288 240 275 Q 262 262 275 240 Q 288 218 288 192 Q 288 166 275 144 Q 262 122 240 109 Q 217 96 192 96 Q 167 96 144 109 Q 122 122 109 144 Q 96 166 96 192 L 96 192 Z" />
</svg>