<svg xmlns="http://www.w3.org/2000/svg" viewBox="0 0 640 448">
  <path d="M 96 349 Q 115 317 130 274 Q 141 308 155 341 Q 146 358 137 374 Q 119 405 91 426 Q 64 447 24 448 Q 2 446 0 424 Q 2 402 24 400 Q 66 400 96 349 L 96 349 Z M 248 99 Q 229 131 214 174 Q 203 140 190 108 Q 198 90 207 74 Q 225 43 253 22 Q 280 1 320 0 Q 360 1 387 22 Q 415 43 433 74 Q 451 104 465 141 Q 478 178 490 215 Q 490 215 490 215 Q 490 215 490 215 Q 490 215 490 215 Q 490 215 490 215 L 491 216 L 491 216 Q 514 295 544 349 Q 574 400 616 400 Q 638 402 640 424 Q 638 446 616 448 Q 576 447 549 426 Q 521 405 503 374 Q 485 344 471 307 Q 458 270 446 233 L 445 232 L 445 232 Q 422 153 392 99 Q 362 48 320 48 Q 278 48 248 99 L 248 99 Z M 392 349 Q 411 317 426 274 Q 437 308 451 341 Q 442 358 433 374 Q 415 405 387 426 Q 360 447 320 448 Q 280 447 253 426 Q 225 405 207 374 Q 189 344 175 307 Q 162 270 150 233 L 149 232 L 149 232 Q 126 153 96 99 Q 66 48 24 48 Q 2 46 0 24 Q 2 2 24 0 Q 64 1 91 22 Q 119 43 137 74 Q 155 104 169 141 Q 182 178 194 215 L 195 216 L 195 216 Q 218 295 248 349 Q 278 400 320 400 Q 362 400 392 349 L 392 349 Z M 544 99 Q 525 131 510 174 Q 499 140 485 108 Q 494 90 503 74 Q 521 43 549 22 Q 576 1 616 0 Q 638 2 640 24 Q 638 46 616 48 Q 574 48 544 99 L 544 99 Z" />
</svg>