<svg xmlns="http://www.w3.org/2000/svg" viewBox="0 0 448 512">
  <path d="M 224 48 Q 251 49 269 67 L 269 67 L 269 67 Q 287 85 288 112 L 288 160 L 288 160 L 160 160 L 160 160 L 160 112 L 160 112 Q 161 85 179 67 Q 197 49 224 48 L 224 48 Z M 112 112 L 112 160 L 112 112 L 112 160 L 48 160 L 48 160 Q 28 161 14 174 Q 1 188 0 208 L 0 416 L 0 416 Q 1 457 28 484 Q 55 511 96 512 L 352 512 L 352 512 Q 393 511 420 484 Q 447 457 448 416 L 448 208 L 448 208 Q 447 188 434 174 Q 420 161 400 160 L 336 160 L 336 160 L 336 112 L 336 112 Q 335 64 303 33 Q 272 1 224 0 Q 176 1 145 33 Q 113 64 112 112 L 112 112 Z M 48 208 L 400 208 L 48 208 L 400 208 L 400 416 L 400 416 Q 399 436 386 450 Q 372 463 352 464 L 96 464 L 96 464 Q 76 463 62 450 Q 49 436 48 416 L 48 208 L 48 208 Z M 144 312 Q 122 314 120 336 Q 122 358 144 360 L 304 360 L 304 360 Q 326 358 328 336 Q 326 314 304 312 L 144 312 L 144 312 Z" />
</svg>