<svg xmlns="http://www.w3.org/2000/svg" viewBox="0 0 645 432">
  <path d="M 265 353 Q 248 363 239 368 Q 202 385 165 373 Q 129 361 110 325 Q 93 288 105 252 Q 117 216 153 196 Q 171 188 217 170 Q 262 153 324 131 Q 384 109 442 88 Q 501 68 542 53 Q 554 50 561 61 L 592 122 L 592 122 Q 597 135 587 143 Q 549 168 496 203 Q 515 219 527 240 Q 578 206 613 183 Q 634 168 639 146 Q 645 123 635 101 L 604 40 L 604 40 Q 593 18 571 9 Q 550 0 526 8 Q 470 27 387 57 Q 305 86 232 113 Q 159 140 132 153 Q 89 175 69 215 Q 48 255 53 300 L 31 311 L 31 311 Q 12 321 6 339 Q 0 357 9 376 Q 19 394 37 400 Q 55 406 74 397 L 96 386 L 96 386 Q 129 417 173 424 Q 217 432 260 411 Q 270 406 286 396 Q 272 377 265 353 L 265 353 Z M 404 250 Q 440 251 459 282 Q 477 314 459 346 Q 440 377 404 378 Q 368 377 349 346 Q 331 314 349 282 Q 368 251 404 250 L 404 250 Z M 404 426 Q 434 426 460 411 L 460 411 L 460 411 Q 486 396 501 370 Q 516 344 516 314 Q 516 284 501 258 Q 486 232 460 217 Q 434 202 404 202 Q 374 202 348 217 Q 322 232 307 258 Q 292 284 292 314 Q 292 344 307 370 Q 322 396 348 411 Q 374 426 404 426 L 404 426 Z" />
</svg>