<svg xmlns="http://www.w3.org/2000/svg" viewBox="0 0 512 512">
  <path d="M 122 0 Q 158 1 177 32 Q 195 64 177 96 Q 158 127 122 128 Q 86 127 67 96 Q 49 64 67 32 Q 86 1 122 0 L 122 0 Z M 68 237 L 64 287 Q 64 302 80 304 L 82 304 L 162 304 L 164 304 Q 180 302 180 287 L 176 237 Q 175 225 166 216 Q 157 208 144 208 L 100 208 Q 87 208 78 216 Q 69 225 68 237 L 68 237 Z M 228 283 Q 230 305 218 323 L 218 323 Q 206 341 186 348 L 186 488 Q 184 510 162 512 Q 140 510 138 488 L 138 352 L 106 352 L 106 488 Q 104 510 82 512 Q 60 510 58 488 L 58 348 Q 38 341 26 323 Q 14 305 16 283 L 20 233 Q 23 202 45 181 Q 68 161 100 160 L 144 160 Q 176 161 199 181 Q 221 202 224 233 L 228 283 L 228 283 Z M 378 0 Q 414 1 433 32 Q 451 64 433 96 Q 414 127 378 128 Q 342 127 323 96 Q 305 64 323 32 Q 342 1 378 0 L 378 0 Z M 347 220 L 314 336 L 442 336 L 409 220 Q 405 209 394 208 L 362 208 Q 351 209 347 220 L 347 220 Z M 301 206 Q 307 185 324 173 L 324 173 Q 340 160 362 160 L 394 160 Q 415 160 432 173 Q 449 185 455 206 L 494 343 Q 498 359 489 371 Q 480 383 463 384 L 442 384 L 442 488 Q 440 510 418 512 Q 396 510 394 488 L 394 384 L 362 384 L 362 488 Q 360 510 338 512 Q 316 510 314 488 L 314 384 L 292 384 Q 276 383 267 371 Q 258 359 262 343 L 301 206 L 301 206 Z" />
</svg>