<svg xmlns="http://www.w3.org/2000/svg" viewBox="0 0 512 448">
  <path d="M 64 0 Q 37 1 19 19 L 19 19 L 19 19 Q 1 37 0 64 L 0 384 L 0 384 Q 1 411 19 429 Q 37 447 64 448 L 448 448 L 448 448 Q 475 447 493 429 Q 511 411 512 384 L 512 128 L 512 128 Q 511 101 493 83 Q 475 65 448 64 L 290 64 L 290 64 L 247 21 L 247 21 Q 226 0 196 0 L 64 0 L 64 0 Z M 48 64 Q 49 49 64 48 L 196 48 L 196 48 Q 206 48 213 55 L 258 100 L 258 100 Q 270 112 287 112 L 448 112 L 448 112 Q 463 113 464 128 L 464 384 L 464 384 Q 463 399 448 400 L 64 400 L 64 400 Q 49 399 48 384 L 48 64 L 48 64 Z M 369 209 Q 383 192 369 175 Q 352 161 335 175 L 224 286 L 224 286 L 177 239 L 177 239 Q 160 225 143 239 Q 129 256 143 273 L 207 337 L 207 337 Q 224 351 241 337 L 369 209 L 369 209 Z" />
</svg>