<svg xmlns="http://www.w3.org/2000/svg" viewBox="0 0 519 416">
  <path d="M 506 176 Q 519 160 506 144 L 384 15 L 384 15 Q 370 0 350 0 Q 331 0 318 14 Q 304 27 304 46 L 304 88 L 304 88 L 160 88 L 160 88 Q 92 90 47 135 Q 2 180 0 248 L 0 360 L 0 360 Q 1 384 16 400 Q 32 415 56 416 L 88 416 L 88 416 Q 112 415 128 400 Q 143 384 144 360 L 144 240 L 144 240 Q 145 233 152 232 L 304 232 L 304 232 L 304 274 L 304 274 Q 304 293 318 306 Q 331 320 350 320 Q 370 320 384 305 L 505 176 L 506 176 Z M 352 270 L 352 208 L 352 270 L 352 208 Q 350 186 328 184 L 152 184 L 152 184 Q 128 185 112 200 Q 97 216 96 240 L 96 360 L 96 360 Q 95 367 88 368 L 56 368 L 56 368 Q 49 367 48 360 L 48 248 L 48 248 Q 49 200 81 169 Q 112 137 160 136 L 328 136 L 328 136 Q 350 134 352 112 L 352 51 L 352 51 L 455 160 L 455 160 L 352 270 L 352 270 Z" />
</svg>