<svg xmlns="http://www.w3.org/2000/svg" viewBox="0 0 578 512">
  <path d="M 496 123 Q 514 102 514 75 Q 513 46 495 26 Q 477 6 449 3 Q 412 0 387 28 L 208 240 L 208 240 L 208 241 L 208 241 L 202 247 L 202 247 L 190 262 L 190 262 Q 184 270 188 279 Q 192 288 202 288 L 221 288 L 327 288 Q 349 288 363 272 L 496 123 L 496 123 Z M 271 240 L 423 59 L 271 240 L 423 59 Q 432 50 444 51 Q 464 54 466 75 Q 466 84 460 91 L 327 240 L 327 240 L 271 240 L 271 240 Z M 171 320 L 167 325 L 171 320 L 167 325 L 7 485 L 7 485 Q 0 492 3 502 Q 8 511 18 512 Q 33 512 75 505 Q 116 497 164 479 Q 212 461 250 426 Q 288 392 290 336 L 290 320 L 290 320 L 274 320 L 171 320 Z M 250 464 Q 228 466 226 488 Q 228 510 250 512 L 298 512 L 298 512 Q 320 510 322 488 Q 320 466 298 464 L 250 464 L 250 464 Z M 378 464 Q 356 466 354 488 Q 356 510 378 512 L 426 512 L 426 512 Q 448 510 450 488 Q 448 466 426 464 L 378 464 L 378 464 Z M 506 464 Q 484 466 482 488 Q 484 510 506 512 L 554 512 L 554 512 Q 576 510 578 488 Q 576 466 554 464 L 506 464 L 506 464 Z" />
</svg>