<svg xmlns="http://www.w3.org/2000/svg" viewBox="0 0 640 512">
  <path d="M 64 0 L 248 0 L 64 0 L 248 0 Q 230 20 225 48 L 64 48 L 64 48 Q 49 49 48 64 L 48 448 L 48 448 Q 49 463 64 464 L 225 464 L 225 464 Q 230 492 248 512 L 64 512 L 64 512 Q 37 511 19 493 Q 1 475 0 448 L 0 64 L 0 64 Q 1 37 19 19 Q 37 1 64 0 L 64 0 Z M 192 88 Q 212 89 224 104 L 224 152 L 224 152 Q 212 167 192 168 Q 175 168 164 156 Q 152 145 152 128 Q 152 111 164 100 Q 175 88 192 88 L 192 88 Z M 192 208 Q 209 208 224 213 L 224 265 L 224 265 Q 210 256 192 256 Q 165 257 147 275 Q 129 293 128 320 Q 129 347 147 365 Q 165 383 192 384 Q 210 384 224 375 L 224 427 L 224 427 Q 209 432 192 432 Q 144 431 113 399 Q 81 367 80 320 Q 81 272 113 241 Q 144 209 192 208 L 192 208 Z M 320 48 Q 305 49 304 64 L 304 448 L 304 448 Q 305 463 320 464 L 576 464 L 576 464 Q 591 463 592 448 L 592 64 L 592 64 Q 591 49 576 48 L 320 48 L 320 48 Z M 256 64 Q 257 37 275 19 L 275 19 L 275 19 Q 293 1 320 0 L 576 0 L 576 0 Q 603 1 621 19 Q 639 37 640 64 L 640 448 L 640 448 Q 639 475 621 493 Q 603 511 576 512 L 320 512 L 320 512 Q 293 511 275 493 Q 257 475 256 448 L 256 64 L 256 64 Z M 448 88 Q 471 89 483 108 Q 493 128 483 148 Q 471 167 448 168 Q 425 167 413 148 Q 403 128 413 108 Q 425 89 448 88 L 448 88 Z M 336 320 Q 336 290 351 264 L 351 264 L 351 264 Q 366 238 392 223 Q 418 208 448 208 Q 478 208 504 223 Q 530 238 545 264 Q 560 290 560 320 Q 560 350 545 376 Q 530 402 504 417 Q 478 432 448 432 Q 418 432 392 417 Q 366 402 351 376 Q 336 350 336 320 L 336 320 Z M 448 384 Q 484 383 503 352 Q 521 320 503 288 Q 484 257 448 256 Q 412 257 393 288 Q 375 320 393 352 Q 412 383 448 384 L 448 384 Z" />
</svg>