<svg xmlns="http://www.w3.org/2000/svg" viewBox="0 0 608 521">
  <path d="M 560 448 L 560 64 L 560 448 L 560 64 Q 559 49 544 48 Q 529 49 528 64 L 528 448 L 528 448 Q 529 463 544 464 Q 559 463 560 448 L 560 448 Z M 480 64 Q 481 37 499 19 L 499 19 L 499 19 Q 517 1 544 0 Q 571 1 589 19 Q 607 37 608 64 L 608 448 L 608 448 Q 607 475 589 493 Q 571 511 544 512 Q 517 511 499 493 Q 481 475 480 448 L 480 64 L 480 64 Z M 400 448 L 400 192 L 400 448 L 400 192 Q 399 177 384 176 Q 369 177 368 192 L 368 448 L 368 448 Q 369 463 384 464 Q 399 463 400 448 L 400 448 Z M 320 192 Q 321 165 339 147 L 339 147 L 339 147 Q 357 129 384 128 Q 411 129 429 147 Q 447 165 448 192 L 448 448 L 448 448 Q 447 475 429 493 Q 411 511 384 512 Q 357 511 339 493 Q 321 475 320 448 L 320 192 L 320 192 Z M 224 464 Q 239 463 240 448 L 240 320 L 240 320 Q 239 305 224 304 Q 209 305 208 320 L 208 448 L 208 448 Q 209 463 224 464 L 224 464 Z M 224 256 Q 251 257 269 275 L 269 275 L 269 275 Q 287 293 288 320 L 288 448 L 288 448 Q 287 475 269 493 Q 251 511 224 512 Q 197 511 179 493 Q 161 475 160 448 L 160 320 L 160 320 Q 161 293 179 275 Q 197 257 224 256 L 224 256 Z M 64 464 Q 79 463 80 448 Q 79 433 64 432 Q 49 433 48 448 Q 49 463 64 464 L 64 464 Z M 128 448 Q 127 484 96 503 Q 64 521 32 503 Q 1 484 0 448 Q 1 412 32 393 Q 64 375 96 393 Q 127 412 128 448 L 128 448 Z" />
</svg>