<svg xmlns="http://www.w3.org/2000/svg" viewBox="0 0 512 512">
  <path d="M 511.0039 166.35019 Q 511.0039 105.58755 470.16342 59.766537 Q 432.31128 19.922178 395.45526 9.961089 Q 357.60312 0 342.66147 1.9922179 Q 272.93384 2.9883268 222.1323 51.797665 Q 201.214 70.72373 181.29182 104.59144 Q 162.36575 138.45914 160.37354 190.2568 L 160.37354 278.9105 L 120.52918 318.75485 Q 110.56809 327.71985 97.618675 327.71985 Q 88.653694 327.71985 82.67704 324.7315 Q 75.70428 321.7432 60.762646 320.74707 Q 29.883268 321.7432 10.957198 347.64203 Q 0.99610895 363.57977 0.99610895 380.5136 Q 0.99610895 399.4397 14.941634 418.36575 Q 28.88716 438.28793 59.766537 440.28015 Q 67.735405 440.28015 74.70817 438.28793 Q 72.71595 445.2607 72.71595 453.22958 Q 72.71595 476.14008 89.6498 494.07004 Q 107.579765 512 132.48248 512 Q 157.38521 511.0039 174.31906 494.07004 Q 191.25291 478.1323 192.24902 452.23346 Q 192.24902 437.29184 188.26459 430.31906 Q 185.27626 424.3424 185.27626 415.37744 Q 185.27626 402.428 194.24124 393.46304 L 234.0856 352.62256 L 322.7393 352.62256 Q 380.5136 352.62256 426.33463 321.7432 Q 467.1751 293.85214 489.0895 254.00778 Q 511.0039 213.16731 511.0039 167.3463 L 511.0039 166.35019 Z M 464.18677 165.35408 Q 463.19067 214.16342 426.33463 257.99222 L 426.33463 257.99222 Q 389.4786 301.821 322.7393 304.80933 L 240.06226 304.80933 Q 226.11673 304.80933 217.15175 295.84436 Q 208.18677 286.87936 208.18677 272.93384 L 208.18677 191.25291 Q 207.19066 132.48248 256 85.66537 Q 294.84824 48.809338 340.66925 49.805447 Q 384.49805 49.805447 422.3502 79.68871 Q 461.19846 109.57198 464.18677 165.35408 L 464.18677 165.35408 Z M 240.06226 304.80933 Q 226.11673 304.80933 217.15175 295.84436 L 217.15175 295.84436 Q 208.18677 286.87936 208.18677 272.93384 L 208.18677 177.30739 Q 209.18288 123.51751 245.0428 86.661476 Q 281.89883 50.801556 335.68872 49.805447 Q 389.4786 50.801556 426.33463 86.661476 Q 462.19455 123.51751 463.19067 177.30739 Q 462.19455 231.09727 426.33463 267.9533 Q 389.4786 303.81323 335.68872 304.80933 L 240.06226 304.80933 L 240.06226 304.80933 Z M 203.20622 382.50583 Q 210.17899 371.54865 220.14008 362.58365 L 220.14008 362.58365 Q 231.09727 353.61868 244.04669 352.62256 L 335.68872 352.62256 Q 410.39688 350.63034 459.20624 300.8249 Q 509.0117 252.01556 511.0039 177.30739 Q 509.0117 102.59922 459.20624 53.789883 Q 410.39688 3.9844358 335.68872 1.9922179 Q 260.98053 3.9844358 212.1712 53.789883 Q 162.36575 102.59922 160.37354 177.30739 L 160.37354 268.9494 Q 159.37743 281.89883 150.41245 292.85602 Q 141.44746 302.8171 130.49026 310.78598 Q 126.50584 312.7782 123.51751 315.76654 Q 114.55253 324.7315 101.60311 325.72763 Q 88.653694 326.72372 75.70428 322.7393 Q 68.731514 320.74707 60.762646 320.74707 Q 34.86381 321.7432 17.92996 338.67703 Q 1.9922179 355.6109 0.99610895 380.5136 Q 1.9922179 405.41635 17.92996 422.3502 Q 34.86381 439.28406 60.762646 440.28015 Q 71.71984 441.27628 72.71595 452.23346 Q 73.71206 477.1362 89.6498 494.07004 Q 106.58366 511.0039 132.48248 512 Q 157.38521 511.0039 174.31906 494.07004 Q 191.25291 477.1362 192.24902 452.23346 Q 192.24902 444.2646 190.2568 437.29184 Q 186.27237 424.3424 187.26848 411.393 Q 188.26459 398.44357 197.22957 389.4786 Q 200.2179 385.49417 202.21011 382.50583 L 203.20622 382.50583 Z" />
</svg>