<svg xmlns="http://www.w3.org/2000/svg" viewBox="0 0 654 456">
  <path d="M 351 24 Q 349 2 327 0 Q 305 2 303 24 L 303 280 L 303 280 Q 305 302 327 304 Q 349 302 351 280 L 351 24 L 351 24 Z M 15 118 Q 0 134 13 152 Q 29 167 47 154 Q 141 70 271 52 L 271 24 L 271 24 Q 271 13 275 3 Q 200 11 135 41 Q 69 70 15 118 L 15 118 Z M 127 254 Q 112 270 125 288 Q 142 303 159 289 Q 207 246 271 230 L 271 181 L 271 181 Q 187 198 127 254 L 127 254 Z M 383 181 L 383 230 L 383 181 L 383 230 Q 447 246 495 289 Q 512 303 529 288 Q 542 270 527 254 Q 466 198 383 181 L 383 181 Z M 271 392 Q 272 424 299 440 Q 327 456 355 440 Q 382 424 383 392 Q 382 360 355 344 Q 327 328 299 344 Q 272 360 271 392 L 271 392 Z M 383 24 L 383 52 L 383 24 L 383 52 Q 513 70 607 154 Q 625 167 641 152 Q 654 134 639 118 Q 585 70 519 41 Q 454 11 379 3 Q 383 13 383 24 L 383 24 Z" />
</svg>