<svg xmlns="http://www.w3.org/2000/svg" viewBox="0 0 576 518">
  <path d="M 243 9 Q 262 21 253 41 L 172 198 L 172 198 L 404 198 L 404 198 L 323 41 L 323 41 Q 314 21 333 9 Q 353 0 365 19 L 458 198 L 458 198 L 495 198 L 552 198 Q 574 200 576 222 Q 574 244 552 246 L 532 246 L 532 246 L 476 470 L 476 470 Q 470 491 453 504 Q 437 518 414 518 L 162 518 L 162 518 Q 139 518 123 504 Q 106 491 100 470 L 44 246 L 44 246 L 24 246 L 24 246 Q 2 244 0 222 Q 2 200 24 198 L 32 198 L 118 198 L 211 19 L 211 19 Q 223 0 243 9 L 243 9 Z M 483 246 L 94 246 L 483 246 L 94 246 L 147 458 L 147 458 Q 150 469 162 470 L 414 470 L 414 470 Q 426 469 430 458 L 483 246 L 483 246 Z M 200 358 Q 202 336 224 334 L 264 334 L 264 334 L 264 294 L 264 294 Q 266 272 288 270 Q 310 272 312 294 L 312 334 L 312 334 L 352 334 L 352 334 Q 374 336 376 358 Q 374 380 352 382 L 312 382 L 312 382 L 312 422 L 312 422 Q 310 444 288 446 Q 266 444 264 422 L 264 382 L 264 382 L 224 382 L 224 382 Q 202 380 200 358 L 200 358 Z" />
</svg>