<svg xmlns="http://www.w3.org/2000/svg" viewBox="0 0 512 512">
  <path d="M 1.6 418.4 Q 9.6 362.4 51.2 327.2 Q 89.6 295.2 142.4 294.4 L 179.2 294.4 L 216 294.4 Q 268.8 295.2 307.2 327.2 Q 348.8 362.4 356.8 418.4 Q 358.4 427.2 358.4 436.8 Q 358.4 447.2 351.2 453.6 Q 344.8 460.8 334.4 460.8 L 319.2 460.8 L 39.2 460.8 L 24 460.8 Q 13.6 460.8 7.2 453.6 Q 0 447.2 0 436.8 Q 0 427.2 1.6 418.4 L 1.6 418.4 Z M 76.8 153.6 Q 76.8 125.6 90.4 102.4 L 90.4 102.4 Q 104 79.2 128 64.8 Q 152 51.2 179.2 51.2 Q 206.4 51.2 230.4 64.8 Q 254.4 79.2 268 102.4 Q 281.6 125.6 281.6 153.6 Q 281.6 181.6 268 204.8 Q 254.4 228 230.4 242.4 Q 206.4 256 179.2 256 Q 152 256 128 242.4 Q 104 228 90.4 204.8 Q 76.8 181.6 76.8 153.6 L 76.8 153.6 Z M 243.2 153.6 Q 242.4 117.6 211.2 98.4 Q 179.2 80.8 147.2 98.4 Q 116 117.6 115.2 153.6 Q 116 189.6 147.2 208.8 Q 179.2 226.4 211.2 208.8 Q 242.4 189.6 243.2 153.6 L 243.2 153.6 Z M 142.4 332.8 Q 113.6 332.8 90.4 347.2 L 90.4 347.2 Q 67.2 360.8 52.8 384 Q 42.4 401.6 39.2 422.4 L 78.4 422.4 L 280 422.4 L 319.2 422.4 Q 318.4 419.2 317.6 416 Q 314.4 398.4 305.6 384 Q 291.2 360.8 268 347.2 Q 244.8 332.8 216 332.8 L 142.4 332.8 L 142.4 332.8 Z M 487.2 460.8 L 377.6 460.8 Q 384 450.4 384 436.8 Q 384 397.6 367.2 364.8 Q 351.2 331.2 323.2 308 Q 328.8 307.2 333.6 307.2 L 383.2 307.2 Q 437.6 308.8 474.4 344.8 Q 510.4 381.6 512 436 Q 512 446.4 504.8 453.6 Q 497.6 460.8 487.2 460.8 L 487.2 460.8 Z M 345.6 256 Q 307.2 255.2 282.4 229.6 Q 306.4 196.8 307.2 153.6 Q 307.2 120.8 292.8 94.4 Q 315.2 77.6 345.6 76.8 Q 384 77.6 408.8 103.2 Q 434.4 128 435.2 166.4 Q 434.4 204.8 408.8 229.6 Q 384 255.2 345.6 256 L 345.6 256 Z" />
</svg>