<svg xmlns="http://www.w3.org/2000/svg" viewBox="0 0 512 512">
  <path d="M 256 48 Q 313 48 360 76 L 360 76 L 360 76 Q 407 103 436 152 Q 464 201 464 256 Q 464 311 436 360 Q 407 409 360 436 Q 313 464 256 464 Q 199 464 152 436 Q 105 409 76 360 Q 48 311 48 256 Q 48 201 76 152 Q 105 103 152 76 Q 199 48 256 48 L 256 48 Z M 256 512 Q 326 511 384 478 L 384 478 L 384 478 Q 442 444 478 384 Q 512 323 512 256 Q 512 189 478 128 Q 442 68 384 34 Q 326 1 256 0 Q 186 1 128 34 Q 70 68 34 128 Q 0 189 0 256 Q 0 323 34 384 Q 70 444 128 478 Q 186 511 256 512 L 256 512 Z M 151 217 Q 144 224 144 234 Q 146 254 166 256 L 208 256 L 208 256 L 208 352 L 208 352 Q 208 366 217 375 Q 226 384 240 384 L 272 384 L 272 384 Q 286 384 295 375 Q 304 366 304 352 L 304 256 L 304 256 L 346 256 L 346 256 Q 366 254 368 234 Q 368 224 361 217 L 270 133 L 270 133 Q 264 128 256 128 Q 248 128 242 133 L 151 217 L 151 217 Z" />
</svg>