<svg xmlns="http://www.w3.org/2000/svg" viewBox="0 0 512 512">
  <path d="M 98.2897 146.98778 Q 84.88656 156.81676 75.057594 170.2199 Q 42.890053 172.00697 22.33857 194.34555 Q 0.89354277 216.68411 0 248.85165 L 0 306.0384 Q 1.7870855 325.69635 21.445026 327.48343 Q 41.102966 325.69635 42.890053 306.0384 L 42.890053 248.85165 Q 43.783596 230.08727 57.186737 220.25829 Q 57.186737 223.83246 57.186737 227.40663 Q 57.186737 247.06458 64.335075 264.93542 L 83.99302 314.0803 L 76.84468 332.84467 Q 61.65445 374.8412 73.27051 416.8377 L 83.09948 453.47296 Q 86.673645 467.76962 98.2897 475.81152 Q 109.90576 484.74695 124.202446 484.74695 L 168.87958 484.74695 Q 190.3246 483.8534 202.83421 467.76962 Q 215.34381 451.68585 209.98254 430.24084 L 196.5794 382.88306 Q 195.68587 381.09598 196.5794 378.41534 L 208.19547 349.822 Q 209.98254 344.46072 210.87608 339.993 L 257.3403 353.39615 L 257.3403 441.8569 Q 258.23386 459.72775 269.8499 472.23734 Q 282.3595 483.8534 300.23038 484.74695 L 343.12042 484.74695 Q 360.99127 483.8534 373.5009 472.23734 Q 385.11694 459.72775 386.01047 441.8569 L 386.01047 320.33508 Q 413.7103 289.0611 414.60385 243.4904 L 414.60385 242.59686 L 414.60385 241.70332 L 414.60385 234.55498 Q 438.7295 242.59686 464.64224 233.66144 Q 487.87436 223.83246 500.38394 202.38744 Q 512 181.83595 509.31937 156.81676 L 500.38394 94.26876 Q 497.7033 79.07854 490.55496 66.56894 Q 499.4904 60.314137 500.38394 48.698082 Q 498.59686 29.04014 478.9389 27.253054 L 428.9005 27.253054 L 428.9005 27.253054 Q 427.11343 27.253054 425.32635 27.253054 Q 423.53928 27.253054 422.64572 27.253054 L 421.75217 27.253054 L 393.1588 27.253054 L 386.01047 27.253054 Q 383.32983 27.253054 381.54276 28.146597 Q 339.54623 31.720768 308.27225 57.633507 Q 276.99826 82.6527 263.59512 121.07504 L 146.54102 51.378708 Q 135.8185 46.017452 125.095985 51.378708 Q 114.373474 57.633507 114.373474 70.143105 Q 115.26701 121.07504 134.03142 157.7103 Q 153.68936 194.34555 177.815 216.68411 Q 202.83421 239.91623 220.70506 250.63875 Q 229.64049 256 235.8953 258.68063 Q 235.8953 258.68063 236.78883 258.68063 Q 238.57591 259.57416 239.46945 260.4677 Q 239.46945 260.4677 239.46945 260.4677 Q 240.363 260.4677 241.25655 261.36127 L 241.25655 261.36127 L 241.25655 261.36127 L 241.25655 261.36127 L 241.25655 261.36127 Q 241.25655 262.2548 242.15009 258.68063 Q 243.93718 256 250.19197 241.70332 L 241.25655 261.36127 Q 260.02094 267.61606 269.8499 250.63875 Q 276.1047 231.87434 259.1274 222.04538 L 259.1274 222.04538 L 258.23386 222.04538 L 258.23386 222.04538 Q 257.3403 221.15182 254.65968 220.25829 Q 251.08551 218.4712 243.04362 214.0035 Q 227.85341 205.06807 208.19547 186.30367 Q 177.815 159.49738 162.62479 111.24607 L 179.6021 121.07504 L 257.3403 167.53926 Q 260.02094 169.32635 264.48865 170.2199 L 264.48865 170.2199 L 267.16928 170.2199 Q 268.06284 170.2199 268.06284 170.2199 L 279.6789 170.2199 Q 297.54974 168.43282 301.1239 151.45549 Q 305.5916 117.50087 329.7173 95.1623 Q 352.9494 72.82374 386.90402 70.143105 Q 387.79755 70.143105 388.6911 70.143105 Q 388.6911 70.143105 388.6911 70.143105 L 393.1588 70.143105 L 421.75217 70.143105 L 422.64572 70.143105 Q 436.04886 70.143105 445.87784 79.07854 Q 455.70682 87.12042 457.4939 100.52356 L 466.42932 162.17801 Q 468.2164 184.51659 448.55847 193.45201 Q 428.9005 200.60034 415.49738 184.51659 L 410.13614 178.26178 Q 400.30716 167.53926 386.01047 171.11343 Q 372.60733 177.36824 371.71378 191.66492 L 371.71378 240.80977 Q 371.71378 240.80977 371.71378 241.70332 Q 371.71378 241.70332 371.71378 241.70332 Q 371.71378 242.59686 371.71378 242.59686 Q 371.71378 243.4904 371.71378 243.4904 Q 370.82025 275.65793 349.3752 296.2094 Q 343.12042 302.46423 343.12042 311.39966 L 343.12042 441.8569 L 300.23038 441.8569 L 300.23038 336.41885 Q 299.33682 320.33508 283.25305 315.86737 Q 280.57242 314.97382 277.89178 314.0803 L 199.26004 290.84818 Q 188.53752 288.16754 179.6021 294.42233 Q 171.56021 301.57068 171.56021 312.29318 Q 171.56021 313.18674 171.56021 313.18674 Q 171.56021 323.90924 167.98604 334.63177 L 157.26352 363.22513 Q 151.00873 378.41534 155.47644 394.4991 L 168.87958 441.8569 L 124.202446 441.8569 L 114.373474 406.11517 Q 106.33159 376.62827 117.0541 348.0349 L 124.202446 328.37695 Q 129.5637 313.18674 124.202446 297.99652 L 104.5445 248.85165 Q 100.07679 239.02269 100.07679 227.40663 Q 100.97033 203.28098 116.16056 187.1972 Q 105.43804 169.32635 98.2897 146.98778 L 98.2897 146.98778 Z M 414.60385 127.32984 Q 428.007 126.4363 428.9005 113.03316 Q 428.007 99.63002 414.60385 98.73647 Q 401.20068 99.63002 400.30716 113.03316 Q 401.20068 126.4363 414.60385 127.32984 L 414.60385 127.32984 Z" />
</svg>