<svg xmlns="http://www.w3.org/2000/svg" viewBox="0 0 576 513">
  <path d="M 131 94 L 161 57 L 131 94 L 161 57 L 167 63 L 167 63 Q 218 112 288 113 Q 358 112 409 63 L 415 57 L 415 57 L 445 95 L 445 95 Q 469 125 500 148 L 528 169 L 528 169 L 528 193 L 528 193 L 312 193 L 48 193 L 48 169 L 48 169 L 76 148 L 76 148 Q 107 125 131 94 L 131 94 Z M 264 241 L 264 465 L 264 241 L 264 465 L 48 465 L 48 465 L 48 241 L 48 241 L 264 241 L 264 241 Z M 312 241 L 528 241 L 312 241 L 528 241 L 528 465 L 528 465 L 416 465 L 416 465 L 312 241 L 312 241 Z M 393 10 L 375 29 L 393 10 L 375 29 Q 339 64 288 65 Q 238 64 201 29 L 183 10 L 183 10 Q 172 0 158 1 Q 144 2 135 13 L 94 65 L 94 65 Q 74 90 48 109 L 13 135 L 13 135 Q 0 145 0 161 L 0 481 L 0 481 Q 0 495 9 504 Q 18 513 32 513 L 544 513 L 544 513 Q 558 513 567 504 Q 576 495 576 481 L 576 161 L 576 161 Q 576 145 563 135 L 529 109 L 529 109 Q 503 90 482 64 L 441 13 L 441 13 Q 432 2 418 1 Q 404 0 393 10 L 393 10 Z" />
</svg>