<svg xmlns="http://www.w3.org/2000/svg" viewBox="0 0 640 521">
  <path d="M 256 73 Q 257 37 288 18 Q 320 0 352 18 Q 383 37 384 73 Q 383 109 352 128 Q 320 146 288 128 Q 257 109 256 73 L 256 73 Z M 298 217 Q 285 217 276 225 L 276 225 L 276 225 Q 267 234 266 246 L 262 296 L 262 296 Q 262 311 278 313 L 280 313 L 362 313 Q 378 311 378 296 L 374 246 L 374 246 Q 373 234 364 225 Q 355 217 342 217 L 298 217 L 298 217 Z M 336 361 L 304 361 L 336 361 L 304 361 L 304 497 L 304 497 Q 302 519 280 521 Q 258 519 256 497 L 256 357 L 256 357 Q 236 350 224 332 Q 212 314 214 292 L 218 242 L 218 242 Q 221 211 243 190 Q 266 170 298 169 L 342 169 L 342 169 Q 374 170 397 190 Q 419 211 422 242 L 426 292 L 426 292 Q 428 314 416 332 Q 404 350 384 357 L 384 497 L 384 497 Q 382 519 360 521 Q 338 519 336 497 L 336 361 L 336 361 Z M 32 41 Q 100 42 157 69 L 157 69 L 157 69 Q 214 97 254 146 Q 231 155 215 174 Q 184 137 141 115 Q 98 93 48 90 L 48 121 L 48 121 Q 48 175 71 220 Q 94 266 133 297 L 152 311 L 152 311 Q 167 326 156 344 L 143 363 L 143 363 Q 118 397 113 441 Q 179 439 224 395 L 224 456 L 224 456 Q 175 488 112 489 L 96 489 L 96 489 Q 82 489 73 480 Q 64 471 64 457 Q 65 387 104 335 Q 56 297 28 242 Q 1 187 0 121 L 0 73 L 0 73 Q 0 59 9 50 Q 18 41 32 41 L 32 41 Z M 425 174 Q 409 155 386 146 Q 426 97 483 69 Q 540 42 608 41 Q 622 41 631 50 Q 640 59 640 73 L 640 121 L 640 121 Q 639 187 612 242 Q 584 297 536 335 Q 575 387 576 457 Q 576 471 567 480 Q 558 489 544 489 L 528 489 L 528 489 Q 465 488 416 456 L 416 395 L 416 395 Q 461 439 527 441 Q 522 397 498 363 L 484 344 L 484 344 Q 473 326 488 311 L 507 297 L 507 297 Q 546 266 569 220 Q 592 175 592 121 L 592 90 L 592 90 Q 542 93 499 115 Q 456 137 425 174 L 425 174 Z" />
</svg>