<svg xmlns="http://www.w3.org/2000/svg" viewBox="0 0 622 526">
  <path d="M 102 14 Q 119 0 136 14 L 224 102 L 224 102 Q 238 119 224 136 Q 207 150 190 136 L 143 89 L 143 89 L 143 367 L 143 367 Q 144 398 164 418 Q 184 438 215 439 Q 246 438 266 418 Q 286 398 287 367 L 287 159 L 287 159 Q 288 108 322 74 Q 356 40 407 39 Q 458 40 492 74 Q 526 108 527 159 L 527 437 L 527 437 L 574 390 L 574 390 Q 591 376 608 390 Q 622 407 608 424 L 520 512 L 520 512 Q 503 526 486 512 L 398 424 L 398 424 Q 384 407 398 390 Q 415 376 432 390 L 479 437 L 479 437 L 479 159 L 479 159 Q 478 128 458 108 Q 438 88 407 87 Q 376 88 356 108 Q 336 128 335 159 L 335 367 L 335 367 Q 334 418 300 452 Q 266 486 215 487 Q 164 486 130 452 Q 96 418 95 367 L 95 89 L 95 89 L 48 136 L 48 136 Q 31 150 14 136 Q 0 119 14 102 L 102 14 L 102 14 Z" />
</svg>