<svg xmlns="http://www.w3.org/2000/svg" viewBox="0 0 578 516">
  <path d="M 199 0 L 224 0 L 199 0 L 249 0 Q 293 1 322 30 Q 351 59 352 103 Q 352 112 355 121 L 380 190 L 380 190 Q 384 200 384 211 Q 382 250 348 267 Q 352 277 352 288 Q 352 311 338 328 Q 319 351 288 352 Q 279 352 270 349 Q 269 349 267 349 Q 262 359 253 367 Q 252 367 252 367 Q 251 368 251 368 Q 239 376 224 376 Q 209 376 198 368 Q 186 361 181 349 Q 171 352 160 352 Q 129 351 111 329 L 110 328 L 110 328 Q 97 311 96 288 Q 96 277 100 267 Q 66 250 64 211 Q 64 200 68 190 L 93 121 L 93 121 Q 96 112 96 103 Q 97 59 126 30 Q 155 1 199 0 L 199 0 Z M 297 96 L 280 96 L 297 96 L 280 96 Q 242 94 224 63 Q 206 94 168 96 L 151 96 L 151 96 Q 144 111 144 128 L 144 144 L 144 144 Q 144 163 152 179 Q 153 178 155 177 L 155 177 L 155 177 Q 184 149 224 148 Q 264 149 293 177 L 293 177 L 293 177 Q 295 178 296 179 Q 304 163 304 144 L 304 128 L 304 128 Q 304 111 297 96 L 297 96 Z M 270 210 Q 267 208 265 205 L 264 205 L 264 205 Q 248 188 224 188 Q 200 188 184 205 L 183 205 L 183 205 Q 181 208 178 210 Q 182 212 186 215 Q 203 224 224 224 Q 245 224 262 215 Q 266 212 270 210 L 270 210 Z M 538 228 Q 547 236 542 247 L 490 352 L 490 352 L 560 352 L 560 352 Q 571 353 575 363 Q 578 373 570 381 L 410 509 L 410 509 Q 400 516 390 508 Q 381 500 386 489 L 438 384 L 438 384 L 368 384 L 368 384 Q 357 383 353 373 Q 350 363 358 356 L 518 228 L 518 228 Q 528 220 538 228 L 538 228 Z M 362 464 L 357 475 L 362 464 L 357 475 Q 348 493 355 512 L 31 512 L 31 512 Q 18 512 9 503 Q 0 494 0 481 Q 1 436 22 400 Q 44 363 80 342 Q 96 364 121 375 Q 92 387 73 410 Q 54 433 49 464 L 362 464 L 362 464 Z" />
</svg>