<svg xmlns="http://www.w3.org/2000/svg" viewBox="0 0 512 512">
  <path d="M 178.92044 216.86116 Q 214.86427 216.06241 234.03432 184.91107 Q 251.60686 152.961 234.03432 121.01092 Q 214.86427 89.8596 178.92044 89.060844 Q 142.9766 89.8596 123.80655 121.01092 Q 106.23401 152.961 123.80655 184.91107 Q 142.9766 216.06241 178.92044 216.86116 L 178.92044 216.86116 Z M 178.92044 50.72075 Q 206.87675 50.72075 230.04056 64.29953 L 230.04056 64.29953 Q 253.20436 77.87832 267.5819 101.84087 Q 281.16068 125.80343 281.16068 152.961 Q 281.16068 180.11856 267.5819 204.08112 Q 253.20436 228.04369 230.04056 241.62247 Q 206.87675 255.20125 178.92044 255.20125 Q 150.96411 255.20125 127.80031 241.62247 Q 104.636505 228.04369 90.25897 204.08112 Q 76.68018 180.11856 76.68018 152.961 Q 76.68018 125.80343 90.25897 101.84087 Q 104.636505 77.87832 127.80031 64.29953 Q 150.96411 50.72075 178.92044 50.72075 L 178.92044 50.72075 Z M 39.138847 421.34164 L 299.53198 421.34164 Q 314.70828 442.1092 338.67084 459.68173 Q 336.27457 459.68173 333.87833 459.68173 L 23.962559 459.68173 Q 13.578783 459.68173 7.1887674 452.49298 Q 0 446.10297 0 435.71918 Q 1.5975039 375.8128 41.535103 335.07645 Q 82.271454 295.13885 142.17784 293.54135 L 178.92044 293.54135 L 215.66302 293.54135 Q 236.43057 293.54135 255.60062 299.1326 Q 257.19812 319.90015 262.7894 343.06396 Q 241.22308 331.88144 215.66302 331.88144 L 142.17784 331.88144 Q 102.24025 332.68018 74.28393 357.4415 Q 45.528862 382.20282 39.138847 421.34164 L 39.138847 421.34164 Z M 388.9922 231.2387 Q 396.18097 228.04369 403.36972 231.2387 L 499.21997 269.5788 Q 510.4025 274.3713 511.20123 287.15134 Q 512 313.51013 502.41498 346.25897 Q 493.6287 379.0078 470.4649 409.36038 Q 446.50235 439.71295 403.36972 458.08423 Q 396.18097 461.27927 388.9922 458.08423 Q 345.8596 439.71295 321.89703 409.36038 Q 298.73322 379.0078 289.94696 346.25897 Q 280.36194 313.51013 281.16068 287.15134 Q 281.95944 274.3713 293.14197 269.5788 L 388.9922 231.2387 L 388.9922 231.2387 Z M 472.0624 299.93137 L 396.18097 269.5788 L 396.18097 419.74414 Q 436.11856 398.17786 453.6911 364.63028 Q 470.4649 331.88144 472.0624 299.93137 L 472.0624 299.93137 Z" />
</svg>