<svg xmlns="http://www.w3.org/2000/svg" viewBox="0 0 504 512">
  <path d="M 336 93 Q 357 68 390 73 Q 368 49 336 48 Q 304 49 282 73 Q 315 68 336 93 L 336 93 Z M 336 163 Q 332 168 327 172 L 291 200 L 291 200 Q 296 203 301 207 L 312 214 L 312 214 Q 316 194 336 192 Q 356 194 360 214 L 371 207 L 371 207 Q 376 203 381 200 Q 381 200 381 200 L 345 172 L 345 172 Q 340 168 336 163 L 336 163 Z M 415 187 L 447 177 L 415 187 L 447 177 Q 456 174 456 164 Q 456 160 453 156 L 436 133 L 436 133 L 393 107 L 393 107 Q 381 101 371 106 Q 360 110 357 123 Q 354 137 365 147 L 415 186 L 415 187 Z M 307 147 Q 318 137 316 123 Q 312 111 302 106 Q 291 101 279 107 L 236 133 L 236 133 L 219 157 L 219 157 Q 216 160 216 164 Q 217 174 225 177 L 257 187 L 257 187 L 307 147 L 307 147 Z M 206 93 L 194 57 L 206 93 L 194 57 Q 192 51 192 44 Q 192 25 205 13 Q 217 0 236 0 L 237 0 L 237 0 Q 242 0 247 1 L 288 10 L 288 10 Q 310 0 336 0 Q 362 0 384 10 L 425 1 L 425 1 Q 430 0 435 0 L 436 0 L 436 0 Q 455 0 467 13 Q 479 25 480 44 Q 480 51 478 57 L 466 93 L 466 93 L 492 128 L 492 128 Q 504 144 504 164 Q 504 185 492 201 Q 480 217 460 223 L 425 234 L 425 234 Q 410 238 397 247 L 379 259 L 379 259 Q 359 272 336 272 Q 313 272 293 259 L 275 247 L 275 247 Q 262 238 247 234 L 212 223 L 212 223 Q 192 217 180 201 Q 168 185 168 164 Q 168 144 180 128 L 206 93 L 206 93 Z M 144 242 Q 151 235 159 229 Q 176 246 200 253 L 206 255 L 206 255 Q 170 276 149 312 Q 128 348 128 392 Q 126 414 104 416 Q 82 414 80 392 Q 80 376 82 360 L 48 360 L 48 360 L 48 392 L 48 392 Q 49 423 69 443 Q 89 463 120 464 L 304 464 L 304 464 L 304 456 L 304 456 Q 302 434 280 432 L 232 432 L 232 432 Q 210 430 208 408 Q 210 386 232 384 L 280 384 L 280 384 Q 311 385 331 405 Q 351 425 352 456 L 352 464 L 352 464 L 432 464 L 432 464 L 432 456 L 432 456 Q 430 434 408 432 Q 386 430 384 408 Q 386 386 408 384 Q 439 385 459 405 Q 479 425 480 456 L 480 488 L 480 488 Q 478 510 456 512 L 120 512 L 120 512 Q 69 511 35 477 Q 1 443 0 392 L 0 224 L 0 224 L 0 104 L 0 104 Q 1 73 21 53 Q 41 33 72 32 Q 103 33 123 53 Q 143 73 144 104 L 144 242 L 144 242 Z M 96 312 L 96 264 L 96 312 L 96 264 L 48 264 L 48 264 L 48 312 L 48 312 L 96 312 L 96 312 L 96 312 L 96 312 Z M 96 216 L 96 168 L 96 216 L 96 168 L 48 168 L 48 168 L 48 216 L 48 216 L 96 216 L 96 216 Z M 307 364 L 243 324 L 307 364 L 243 324 Q 226 311 236 291 Q 249 274 269 284 L 333 324 L 333 324 Q 350 337 340 357 Q 327 374 307 364 L 307 364 Z M 364 357 Q 354 337 371 324 L 435 284 L 435 284 Q 455 274 468 291 Q 478 311 461 324 L 397 364 L 397 364 Q 377 374 364 357 L 364 357 Z M 48 120 L 96 120 L 48 120 L 96 120 L 96 104 L 96 104 Q 94 82 72 80 Q 50 82 48 104 L 48 120 L 48 120 Z M 288 112 Q 303 113 304 128 Q 303 143 288 144 Q 273 143 272 128 Q 273 113 288 112 L 288 112 Z M 368 128 Q 369 113 384 112 Q 399 113 400 128 Q 399 143 384 144 Q 369 143 368 128 L 368 128 Z" />
</svg>