<svg xmlns="http://www.w3.org/2000/svg" viewBox="0 0 512 512">
  <path d="M 235.2 54.4 Q 231.2 51.2 227.2 51.2 Q 222.4 51.2 219.2 54.4 Q 178.4 91.2 153.6 131.2 Q 128.8 171.2 128 204.8 Q 128 228.8 136 249.6 Q 147.2 253.6 157.6 260 Q 172.8 244 193.6 232.8 Q 192 226.4 192 219.2 Q 192 204.8 200.8 190.4 Q 209.6 175.2 228 153.6 Q 230.4 156.8 241.6 171.2 Q 253.6 186.4 264.8 200.8 Q 276 215.2 277.6 216.8 Q 277.6 216.8 277.6 216.8 L 306.4 183.2 Q 309.6 188 312 192.8 Q 322.4 212 318.4 232.8 Q 338.4 244 354.4 260 Q 364 253.6 376 250.4 Q 384 228.8 384 204.8 Q 384 192.8 378.4 176 Q 373.6 159.2 364.8 141.6 Q 346.4 105.6 316.8 76.8 Q 308.8 70.4 300.8 76.8 Q 288.8 88 279.2 100.8 Q 258.4 75.2 235.2 54.4 L 235.2 54.4 Z M 186.4 340 Q 191.2 314.4 210.4 298.4 L 210.4 298.4 Q 229.6 282.4 256 281.6 Q 282.4 282.4 301.6 298.4 Q 320.8 314.4 325.6 340 Q 328.8 353.6 342.4 356 Q 356.8 356.8 362.4 344 Q 368.8 327.2 383.2 317.6 Q 397.6 307.2 416 307.2 Q 440.8 308 456.8 324 Q 472.8 340 473.6 364.8 Q 472.8 388 458.4 404 Q 443.2 420 420.8 422.4 Q 420 422.4 420 422.4 Q 420 422.4 419.2 422.4 L 416 422.4 L 256 422.4 L 96 422.4 L 92.8 422.4 Q 92.8 422.4 92.8 422.4 Q 92 422.4 91.2 422.4 Q 68.8 420 53.6 404 Q 39.2 388 38.4 364.8 Q 39.2 340 55.2 324 Q 71.2 308 96 307.2 Q 114.4 307.2 128.8 317.6 Q 143.2 327.2 149.6 344 Q 156 356.8 169.6 356 Q 183.2 353.6 186.4 340 L 186.4 340 Z M 256 243.2 Q 226.4 243.2 201.6 257.6 L 201.6 257.6 Q 177.6 272 163.2 296 Q 136 269.6 96 268.8 Q 55.2 269.6 28 296.8 Q 0.8 324 0 364.8 Q 0.8 402.4 24 428.8 Q 48 455.2 84.8 460 Q 87.2 460.8 89.6 460.8 L 96 460.8 L 256 460.8 L 416 460.8 L 422.4 460.8 Q 424.8 460.8 427.2 460 Q 464 455.2 488 428.8 Q 511.2 402.4 512 364.8 Q 511.2 324 484 296.8 Q 456.8 269.6 416 268.8 Q 376 269.6 349.6 296 Q 334.4 272 310.4 257.6 Q 285.6 243.2 256 243.2 L 256 243.2 Z" />
</svg>