<svg xmlns="http://www.w3.org/2000/svg" viewBox="0 0 416 512">
  <path d="M 160 78 Q 160 104 144 125 L 64 235 L 64 235 Q 48 256 48 282 L 48 288 L 48 288 L 336 288 L 336 288 L 336 282 L 336 282 Q 336 256 320 235 L 240 125 L 240 125 Q 224 104 224 78 L 224 48 L 224 48 L 160 48 L 160 48 L 160 78 L 160 78 Z M 48 416 L 48 448 L 48 416 L 48 448 Q 49 463 64 464 L 320 464 L 320 464 Q 335 463 336 448 L 336 416 L 336 416 L 48 416 L 48 416 Z M 272 48 L 272 78 L 272 48 L 272 78 Q 272 88 278 97 L 293 117 L 293 117 Q 314 97 344 96 Q 375 97 395 117 Q 415 137 416 168 Q 416 190 404 207 Q 393 224 374 233 Q 384 257 384 282 L 384 448 L 384 448 Q 383 475 365 493 Q 347 511 320 512 L 64 512 L 64 512 Q 37 511 19 493 Q 1 475 0 448 L 0 282 L 0 282 Q 0 240 25 206 L 106 97 L 106 97 Q 112 88 112 78 L 112 48 L 112 48 Q 90 46 88 24 Q 90 2 112 0 L 160 0 L 272 0 Q 294 2 296 24 Q 294 46 272 48 L 272 48 Z M 323 157 L 348 192 L 323 157 L 348 192 Q 367 187 368 168 Q 366 146 344 144 Q 330 145 323 157 L 323 157 Z" />
</svg>