<svg xmlns="http://www.w3.org/2000/svg" viewBox="0 0 512 512">
  <path d="M 455.1111 99.55556 Q 468.44446 100.44444 469.33334 113.77778 L 469.33334 398.22223 Q 468.44446 411.55554 455.1111 412.44446 L 56.88889 412.44446 Q 43.555557 411.55554 42.666668 398.22223 L 42.666668 113.77778 Q 43.555557 100.44444 56.88889 99.55556 L 455.1111 99.55556 L 455.1111 99.55556 Z M 56.88889 56.88889 Q 32.88889 57.77778 16.88889 73.77778 L 16.88889 73.77778 Q 0.8888889 89.77778 0 113.77778 L 0 398.22223 Q 0.8888889 422.22223 16.88889 438.22223 Q 32.88889 454.22223 56.88889 455.1111 L 455.1111 455.1111 Q 479.1111 454.22223 495.1111 438.22223 Q 511.1111 422.22223 512 398.22223 L 512 113.77778 Q 511.1111 89.77778 495.1111 73.77778 Q 479.1111 57.77778 455.1111 56.88889 L 56.88889 56.88889 L 56.88889 56.88889 Z M 270.22223 167.11111 Q 254.22223 168.88889 252.44444 184.88889 L 252.44444 327.1111 Q 254.22223 343.1111 270.22223 344.8889 Q 286.22223 343.1111 288 327.1111 L 288 184.88889 Q 286.22223 168.88889 270.22223 167.11111 L 270.22223 167.11111 Z M 316.44446 184.88889 L 316.44446 256 L 316.44446 327.1111 Q 318.22223 343.1111 334.22223 344.8889 Q 350.22223 343.1111 352 327.1111 L 352 273.77777 L 398.22223 273.77777 Q 414.22223 272 416 256 Q 414.22223 240 398.22223 238.22223 L 352 238.22223 L 352 202.66667 L 412.44446 202.66667 Q 428.44446 200.88889 430.22223 184.88889 Q 428.44446 168.88889 412.44446 167.11111 L 334.22223 167.11111 Q 318.22223 168.88889 316.44446 184.88889 L 316.44446 184.88889 Z M 117.333336 256 Q 118.22222 233.77777 133.33333 218.66667 L 133.33333 218.66667 Q 148.44444 203.55556 170.66667 202.66667 Q 189.33333 202.66667 202.66667 213.33333 Q 216.88889 222.22223 227.55556 209.77777 Q 236.44444 195.55556 224 184.88889 Q 200.88889 168 170.66667 167.11111 Q 133.33333 168 107.55556 192.88889 Q 82.666664 218.66667 81.77778 256 Q 82.666664 293.33334 107.55556 319.1111 Q 133.33333 344 170.66667 344.8889 Q 200.88889 344 224 327.1111 Q 231.11111 321.77777 231.11111 312.8889 L 231.11111 263.1111 Q 229.33333 247.11111 213.33333 245.33333 L 163.55556 245.33333 Q 147.55556 247.11111 145.77777 263.1111 Q 147.55556 279.1111 163.55556 280.8889 L 195.55556 280.8889 L 195.55556 303.1111 Q 184 309.33334 170.66667 309.33334 Q 148.44444 308.44446 133.33333 293.33334 Q 118.22222 278.22223 117.333336 256 L 117.333336 256 Z" />
</svg>