<svg xmlns="http://www.w3.org/2000/svg" viewBox="0 0 512 512">
  <path d="M 169.33852 384.49805 Q 145.4319 376.52917 125.50973 390.4747 Q 112.56031 400.4358 85.66537 413.38522 Q 94.63035 391.47083 97.618675 364.57587 Q 98.614784 344.6537 85.66537 328.71594 Q 49.805447 288.87158 49.805447 240.06226 Q 50.801556 178.3035 106.58366 130.49026 Q 162.36575 83.67315 256.9961 80.68482 Q 351.62646 83.67315 407.40857 130.49026 Q 463.19067 178.3035 464.18677 240.06226 Q 463.19067 301.821 407.40857 349.63425 Q 351.62646 396.45135 256.9961 399.4397 Q 209.18288 399.4397 169.33852 384.49805 L 169.33852 384.49805 Z M 27.89105 423.3463 Q 25.898832 427.33075 22.910505 431.3152 L 22.910505 431.3152 Q 21.914396 433.3074 20.918287 435.29962 Q 18.92607 437.29184 17.92996 438.28793 Q 12.949416 445.2607 6.9727626 452.23346 Q 0 459.20624 2.9883268 469.16733 Q 7.9688716 479.12842 17.92996 479.12842 Q 21.914396 479.12842 25.898832 479.12842 Q 29.883268 479.12842 33.867702 478.1323 L 33.867702 478.1323 Q 40.840466 477.1362 46.81712 476.14008 Q 48.809338 476.14008 49.805447 476.14008 Q 49.805447 476.14008 49.805447 476.14008 Q 76.700386 470.16342 99.61089 460.20233 Q 134.4747 443.2685 153.40077 429.32297 Q 201.214 447.25293 256.9961 447.25293 Q 328.71594 446.2568 386.49026 419.36188 Q 443.2685 391.47083 477.1362 344.6537 Q 511.0039 297.83658 512 240.06226 Q 511.0039 182.28793 477.1362 135.47081 Q 443.2685 88.653694 385.49417 60.762646 Q 328.71594 33.867702 256.9961 32.871593 Q 185.27626 33.867702 128.49805 60.762646 Q 70.72373 88.653694 36.85603 135.47081 Q 2.9883268 182.28793 1.9922179 240.06226 Q 2.9883268 308.79376 49.805447 360.59143 Q 44.8249 397.44748 27.89105 423.3463 L 27.89105 423.3463 Z M 205.19844 181.29182 Q 197.22957 184.28015 197.22957 192.24902 L 197.22957 287.8755 Q 198.22568 298.83267 209.18288 299.8288 Q 220.14008 298.83267 221.13618 287.8755 L 221.13618 228.10895 L 247.03502 262.97275 Q 251.01945 267.9533 256.9961 267.9533 Q 262.97275 267.9533 266.95718 262.97275 L 292.85602 228.10895 L 292.85602 287.8755 Q 293.85214 298.83267 304.80933 299.8288 Q 315.76654 298.83267 316.76263 287.8755 L 316.76263 192.24902 Q 316.76263 184.28015 308.79376 181.29182 Q 300.8249 178.3035 294.84824 185.27626 L 256.9961 236.07782 L 219.14397 185.27626 Q 213.16731 178.3035 205.19844 181.29182 L 205.19844 181.29182 Z M 117.540855 215.15953 Q 117.540855 210.17899 122.5214 208.18677 Q 128.49805 204.20233 137.46303 204.20233 Q 149.41634 204.20233 161.36964 208.18677 Q 172.32684 209.18288 176.31128 199.22179 Q 178.3035 188.26459 167.3463 184.28015 Q 153.40077 181.29182 137.46303 180.29572 Q 123.51751 180.29572 110.56809 187.26848 Q 95.62646 195.23735 93.63424 215.15953 Q 95.62646 234.0856 109.57198 241.05836 Q 120.52918 247.03502 132.48248 250.02335 Q 132.48248 250.02335 132.48248 250.02335 L 133.47859 251.01945 Q 146.42801 254.00778 152.40466 257.99222 Q 157.38521 260.98053 157.38521 263.96887 Q 157.38521 269.94553 152.40466 272.93384 Q 147.42412 275.92218 137.46303 275.92218 Q 126.50584 274.92606 112.56031 269.94553 L 112.56031 269.94553 Q 110.56809 268.9494 108.575874 268.9494 Q 98.614784 265.9611 93.63424 275.92218 Q 91.64202 286.87936 101.60311 290.8638 Q 103.59533 291.85992 105.58755 292.85602 L 105.58755 292.85602 L 105.58755 292.85602 Q 119.53307 297.83658 137.46303 299.8288 Q 151.40855 300.8249 165.35408 292.85602 Q 180.29572 283.89105 181.29182 263.96887 Q 179.2996 245.0428 165.35408 238.07004 Q 153.40077 231.09727 141.44746 228.10895 L 141.44746 228.10895 L 140.45135 228.10895 Q 140.45135 228.10895 140.45135 227.11284 Q 127.501945 224.12451 121.52529 220.14008 Q 116.54475 217.15175 117.540855 215.15953 L 117.540855 215.15953 Z M 356.607 215.15953 Q 356.607 210.17899 361.58755 208.18677 Q 367.5642 204.20233 376.52917 204.20233 Q 386.49026 204.20233 397.44748 208.18677 Q 408.40466 209.18288 412.3891 199.22179 Q 413.38522 188.26459 403.42413 184.28015 Q 391.47083 181.29182 376.52917 180.29572 Q 362.58365 180.29572 349.63425 187.26848 Q 334.6926 195.23735 332.70038 215.15953 Q 334.6926 234.0856 348.63812 241.05836 Q 359.59534 247.03502 371.54865 250.02335 Q 371.54865 250.02335 371.54865 250.02335 L 373.54086 250.02335 Q 385.49417 254.00778 392.46692 257.99222 Q 397.44748 260.98053 396.45135 263.96887 Q 396.45135 269.94553 391.47083 272.93384 Q 386.49026 275.92218 376.52917 275.92218 Q 366.56808 274.92606 353.61868 269.94553 Q 353.61868 269.94553 353.61868 269.94553 L 353.61868 269.94553 L 353.61868 269.94553 Q 352.62256 269.94553 351.62646 269.94553 Q 350.63034 268.9494 348.63812 268.9494 Q 337.68094 265.9611 333.6965 275.92218 Q 330.70816 286.87936 340.66925 290.8638 Q 342.66147 291.85992 344.6537 292.85602 L 344.6537 292.85602 Q 358.5992 297.83658 376.52917 299.8288 Q 390.4747 300.8249 404.42023 292.85602 Q 419.36188 283.89105 420.35797 263.96887 Q 418.36575 245.0428 404.42023 237.07393 Q 392.46692 231.09727 380.5136 228.10895 L 379.51752 228.10895 Q 379.51752 227.11284 379.51752 227.11284 Q 367.5642 224.12451 360.59143 220.14008 Q 355.6109 217.15175 356.607 215.15953 L 356.607 215.15953 Z" />
</svg>