<svg xmlns="http://www.w3.org/2000/svg" viewBox="0 0 580 448">
  <path d="M 306 48 Q 241 50 199 93 L 199 93 L 199 93 Q 156 135 154 200 Q 153 251 119 285 Q 85 319 34 320 Q 12 318 10 296 Q 12 274 34 272 Q 65 271 85 251 Q 105 231 106 200 Q 108 115 165 59 Q 221 2 306 0 Q 357 0 400 23 Q 442 46 470 85 Q 479 100 468 114 Q 456 127 440 121 Q 422 112 402 112 Q 365 113 340 138 Q 315 163 314 200 Q 315 231 335 251 Q 355 271 386 272 Q 408 272 429 262 Q 450 252 466 238 Q 482 226 498 238 Q 525 262 559 270 Q 580 277 577 299 Q 571 320 549 317 Q 505 304 482 286 Q 439 318 386 320 Q 335 319 301 285 Q 267 251 266 200 Q 267 149 298 112 Q 329 76 378 66 Q 346 48 306 48 L 306 48 Z M 82 366 Q 98 354 114 366 Q 130 380 151 390 Q 172 400 194 400 Q 216 400 237 390 Q 257 380 274 366 Q 290 354 306 366 Q 322 380 343 390 Q 364 400 386 400 Q 408 400 429 390 Q 449 380 466 366 Q 482 354 498 366 Q 525 390 559 398 Q 580 405 577 427 Q 570 448 549 445 Q 504 432 482 414 Q 439 446 386 448 Q 333 446 290 414 Q 247 446 194 448 Q 141 446 98 414 Q 75 432 31 445 Q 9 448 2 427 Q 0 405 21 398 Q 55 389 82 366 L 82 366 Z" />
</svg>