<svg xmlns="http://www.w3.org/2000/svg" viewBox="0 0 352 519">
  <path d="M 176 506 Q 160 519 144 506 L 15 384 L 15 384 Q 0 370 0 350 Q 0 331 14 318 Q 27 304 46 304 L 88 304 L 88 304 L 88 160 L 88 160 Q 90 92 135 47 Q 180 2 248 0 L 296 0 L 296 0 Q 320 1 336 16 Q 351 32 352 56 L 352 88 L 352 88 Q 351 112 336 128 Q 320 143 296 144 L 240 144 L 240 144 Q 233 145 232 152 L 232 304 L 232 304 L 274 304 L 274 304 Q 293 304 306 318 Q 320 331 320 350 Q 320 370 305 384 L 176 505 L 176 506 Z M 269 352 L 208 352 L 269 352 L 208 352 Q 186 350 184 328 L 184 152 L 184 152 Q 185 128 200 112 Q 216 97 240 96 L 296 96 L 296 96 Q 303 95 304 88 L 304 56 L 304 56 Q 303 49 296 48 L 248 48 L 248 48 Q 200 49 169 81 Q 137 112 136 160 L 136 328 L 136 328 Q 134 350 112 352 L 51 352 L 51 352 L 160 455 L 160 455 L 270 352 L 269 352 Z" />
</svg>