<svg xmlns="http://www.w3.org/2000/svg" viewBox="0 0 512 512">
  <path d="M 19.2 51.2 Q 1.6 52.8 0 70.4 Q 1.6 88 19.2 89.6 L 60.8 89.6 L 108.8 343.2 Q 112.8 357.6 128 358.4 L 256.8 358.4 Q 256 352 256 345.6 Q 256 332.8 258.4 320 L 144 320 L 136.8 281.6 L 271.2 281.6 Q 282.4 260 300 243.2 L 129.6 243.2 L 104.8 115.2 L 416.8 115.2 L 391.2 204.8 Q 394.4 204.8 396.8 204.8 Q 396.8 204.8 396.8 204.8 Q 414.4 204.8 430.4 208.8 L 458.4 109.6 Q 460.8 96.8 453.6 87.2 Q 446.4 77.6 433.6 76.8 L 97.6 76.8 L 96 67.2 Q 92 52 76.8 51.2 L 19.2 51.2 L 19.2 51.2 Z M 140.8 460.8 Q 162.4 460 174.4 441.6 Q 184 422.4 174.4 403.2 Q 162.4 384.8 140.8 384 Q 119.2 384.8 107.2 403.2 Q 97.6 422.4 107.2 441.6 Q 119.2 460 140.8 460.8 L 140.8 460.8 Z M 281.6 345.6 Q 281.6 376.8 296.8 403.2 L 296.8 403.2 Q 312 429.6 339.2 445.6 Q 366.4 460.8 396.8 460.8 Q 427.2 460.8 454.4 445.6 Q 481.6 429.6 496.8 403.2 Q 512 376.8 512 345.6 Q 512 314.4 496.8 288 Q 481.6 261.6 454.4 245.6 Q 427.2 230.4 396.8 230.4 Q 366.4 230.4 339.2 245.6 Q 312 261.6 296.8 288 Q 281.6 314.4 281.6 345.6 L 281.6 345.6 Z M 448 358.4 L 409.6 358.4 L 409.6 396.8 Q 408.8 408.8 396.8 409.6 Q 384.8 408.8 384 396.8 L 384 358.4 L 345.6 358.4 Q 333.6 357.6 332.8 345.6 Q 333.6 333.6 345.6 332.8 L 384 332.8 L 384 294.4 Q 384.8 282.4 396.8 281.6 Q 408.8 282.4 409.6 294.4 L 409.6 332.8 L 448 332.8 Q 460 333.6 460.8 345.6 Q 460 357.6 448 358.4 L 448 358.4 Z" />
</svg>