<svg xmlns="http://www.w3.org/2000/svg" viewBox="0 0 512 512">
  <path d="M 82.8382 0 Q 109.785576 0.9980507 124.75633 23.953217 Q 136.73294 47.906433 124.75633 71.85965 Q 109.785576 94.81481 82.8382 95.81287 Q 55.89084 94.81481 40.92008 71.85965 Q 28.94347 47.906433 40.92008 23.953217 Q 55.89084 0.9980507 82.8382 0 L 82.8382 0 Z M 2.994152 487.04874 L 2.994152 339.33722 Q 2.994152 340.3353 3.9922028 340.3353 Q 3.9922028 340.3353 4.9902534 341.33334 L 50.900585 377.26315 L 50.900585 487.04874 Q 48.904484 509.00586 26.947369 511.00195 Q 4.9902534 509.00586 2.994152 487.04874 L 2.994152 487.04874 Z M 63.875244 175.65692 Q 51.898636 176.65497 50.900585 188.63158 L 50.900585 272.46783 Q 50.900585 275.46198 53.894737 278.45615 L 74.8538 294.42496 L 74.8538 177.65302 Q 69.86355 175.65692 63.875244 175.65692 L 63.875244 175.65692 Z M 122.76023 234.54192 L 122.76023 332.3509 L 148.70955 352.3119 Q 160.68616 362.2924 163.68031 378.2612 L 178.65108 484.0546 Q 179.64912 506.0117 157.692 511.00195 Q 135.7349 512 130.74464 490.04288 L 116.77193 388.24173 L 23.953217 316.38208 Q 3.9922028 298.41714 2.994152 271.4698 L 2.994152 188.63158 Q 3.9922028 162.68227 20.959064 145.7154 Q 37.925926 128.74854 63.875244 127.75049 Q 102.79922 128.74854 126.75243 159.68811 L 174.65887 223.56335 L 209.59064 223.56335 L 203.60234 197.61403 Q 199.61014 175.65692 220.5692 168.67056 Q 242.52632 164.67836 249.51266 185.63742 L 299.4152 384.2495 Q 326.36258 388.24173 342.3314 409.20078 L 476.0702 376.2651 Q 498.02728 372.27292 505.01364 393.23196 Q 509.00586 415.1891 488.04678 422.17545 L 353.30994 456.10916 Q 350.3158 480.06238 332.3509 495.03314 Q 315.384 510.0039 290.43274 511.00195 Q 263.48538 510.0039 245.52046 492.039 Q 227.55556 474.07407 226.55751 447.1267 Q 227.55556 414.19104 252.50682 395.22806 L 221.56725 271.4698 L 170.66667 271.4698 Q 150.70566 271.4698 138.72905 255.50098 L 122.76023 234.54192 L 122.76023 234.54192 Z M 306.40155 447.1267 Q 305.4035 432.15594 290.43274 431.1579 Q 275.46198 432.15594 274.46393 447.1267 Q 275.46198 462.09747 290.43274 463.09552 Q 305.4035 462.09747 306.40155 447.1267 L 306.40155 447.1267 Z" />
</svg>