<svg xmlns="http://www.w3.org/2000/svg" viewBox="0 0 576 512">
  <path d="M 24 0 Q 2 2 0 24 Q 2 46 24 48 L 32 48 L 32 48 L 32 67 L 32 67 Q 33 130 77 175 L 158 256 L 158 256 L 77 338 L 77 338 Q 33 382 32 445 L 32 464 L 32 464 L 24 464 L 24 464 Q 2 466 0 488 Q 2 510 24 512 L 331 512 L 331 512 Q 303 492 285 464 L 80 464 L 80 464 L 80 445 L 80 445 Q 81 402 111 372 L 192 290 L 192 290 L 257 354 L 257 354 Q 259 325 270 300 L 226 256 L 226 256 L 307 175 L 307 175 Q 351 130 352 67 L 352 48 L 352 48 L 360 48 L 360 48 Q 382 46 384 24 Q 382 2 360 0 L 24 0 L 24 0 Z M 192 222 L 111 141 L 192 222 L 111 141 Q 81 110 80 67 L 80 48 L 80 48 L 304 48 L 304 48 L 304 67 L 304 67 Q 303 110 274 141 L 192 222 L 192 222 Z M 576 368 Q 576 329 557 296 L 557 296 L 557 296 Q 538 263 504 243 Q 470 224 432 224 Q 394 224 360 243 Q 326 263 307 296 Q 288 329 288 368 Q 288 407 307 440 Q 326 473 360 493 Q 394 512 432 512 Q 470 512 504 493 Q 538 473 557 440 Q 576 407 576 368 L 576 368 Z M 432 288 Q 447 289 448 304 L 448 352 L 448 352 L 480 352 L 480 352 Q 495 353 496 368 Q 495 383 480 384 L 432 384 L 432 384 Q 417 383 416 368 L 416 304 L 416 304 Q 417 289 432 288 L 432 288 Z" />
</svg>