<svg xmlns="http://www.w3.org/2000/svg" viewBox="0 0 512 512">
  <path d="M 36.012234 59.49847 Q 21.137615 50.103977 9.394495 62.62997 Q 0 77.504585 12.525994 89.2477 L 475.98776 452.50153 Q 490.8624 461.89603 502.6055 449.37003 Q 512 434.49542 499.474 422.7523 L 430.58105 368.73395 Q 433.71252 359.33945 427.44955 350.7278 L 415.70642 335.8532 Q 382.04282 292.7951 381.25995 237.99388 L 381.25995 212.15903 Q 380.47705 166.75229 352.29358 134.65443 Q 324.89297 102.55657 281.052 94.72783 L 281.052 80.636086 Q 281.052 69.67584 274.0061 62.62997 Q 266.96024 55.5841 256 55.5841 Q 245.03975 55.5841 237.99388 62.62997 Q 230.94801 69.67584 230.94801 80.636086 L 230.94801 94.72783 Q 177.71254 104.12232 149.52905 148.74617 L 36.012234 59.49847 L 36.012234 59.49847 Z M 179.27829 171.44954 Q 189.45566 153.44342 208.24464 141.7003 L 208.24464 141.7003 Q 227.03365 130.74007 249.737 130.74007 L 256 130.74007 L 262.263 130.74007 Q 296.70947 131.52293 320.1957 154.2263 Q 342.89908 177.71254 343.68195 212.15903 L 343.68195 237.99388 Q 343.68195 277.1376 358.55658 312.36697 L 179.27829 171.44954 L 179.27829 171.44954 Z M 323.3272 381.25995 L 275.57187 343.68195 L 137.00305 343.68195 Q 162.05504 304.53824 167.53517 258.34863 L 130.74007 229.38226 L 130.74007 238.77676 Q 129.95718 292.7951 96.29358 335.8532 L 84.55046 350.7278 Q 78.28746 360.1223 82.201836 370.29968 Q 87.68195 380.47705 99.42508 381.25995 L 323.3272 381.25995 L 323.3272 381.25995 Z M 306.10397 406.31192 L 256 406.31192 L 205.89603 406.31192 Q 205.89603 426.66666 220.77065 441.5413 Q 235.64526 456.4159 256 456.4159 Q 276.35474 456.4159 291.22937 441.5413 Q 306.10397 426.66666 306.10397 406.31192 L 306.10397 406.31192 Z" />
</svg>