<svg xmlns="http://www.w3.org/2000/svg" viewBox="0 0 640 512">
  <path d="M 424 48 Q 400 49 384 64 L 384 64 L 384 64 Q 369 80 368 104 Q 368 113 362 119 L 322 167 L 322 167 Q 315 176 304 176 L 262 176 L 262 176 Q 221 177 193 204 Q 164 230 161 271 Q 160 289 148 300 Q 136 312 118 312 L 114 312 L 114 312 Q 80 310 68 278 L 58 245 L 58 245 L 57 247 L 57 247 Q 48 269 48 292 L 48 296 L 48 296 Q 49 340 78 370 Q 108 399 152 400 L 192 400 L 192 400 L 192 376 L 192 376 Q 194 354 216 352 Q 238 354 240 376 L 240 406 L 240 406 L 298 464 L 298 464 L 384 464 L 384 464 L 384 448 L 384 448 Q 383 433 368 432 L 344 432 L 344 432 Q 331 432 324 421 L 308 397 L 308 397 Q 299 383 309 369 L 327 347 L 327 347 Q 336 336 336 322 L 336 320 L 336 320 Q 335 300 322 286 Q 308 272 288 272 Q 266 270 264 248 Q 266 226 288 224 Q 329 225 356 252 Q 383 279 384 320 L 384 322 L 384 322 Q 384 352 365 377 L 359 384 L 359 384 L 368 384 L 368 384 Q 395 385 413 403 Q 431 421 432 448 L 432 488 L 432 488 Q 430 510 408 512 L 288 512 L 288 512 Q 278 512 271 505 L 214 448 L 214 448 L 152 448 L 152 448 Q 87 446 45 403 Q 2 361 0 296 L 0 292 L 0 292 Q 0 259 12 229 L 32 179 L 32 179 Q 40 161 60 160 Q 81 161 88 181 L 113 263 L 113 263 Q 120 205 161 167 Q 203 129 262 128 L 293 128 L 293 128 L 320 95 L 320 95 Q 325 54 353 28 Q 382 1 424 0 Q 437 0 449 3 Q 460 0 472 0 Q 514 1 540 32 Q 583 35 611 64 Q 639 93 640 136 L 640 160 L 640 160 Q 640 184 625 201 Q 611 218 589 223 L 583 230 L 583 230 L 564 216 L 564 216 L 583 230 L 583 230 Q 564 255 532 256 L 460 256 L 460 256 L 445 277 L 445 277 L 492 303 L 492 303 Q 511 314 512 338 L 512 360 L 512 360 Q 510 382 488 384 Q 466 382 464 360 L 464 342 L 464 342 L 416 316 L 416 316 Q 415 283 400 256 L 429 218 L 429 218 Q 436 208 448 208 L 532 208 L 532 208 Q 533 208 534 208 Q 534 208 534 208 Q 520 207 510 196 L 492 179 L 492 179 Q 490 176 486 176 L 464 176 L 464 176 Q 449 175 448 160 Q 449 145 464 144 L 486 144 L 486 144 Q 503 144 514 156 L 532 174 L 532 174 Q 535 176 538 176 L 576 176 L 576 176 Q 591 175 592 160 L 592 136 L 592 136 Q 591 112 576 96 Q 560 81 536 80 L 528 80 L 528 80 Q 514 79 507 68 Q 495 49 472 48 Q 464 48 458 51 Q 450 53 442 51 Q 433 48 424 48 L 424 48 Z M 456 88 Q 457 73 472 72 Q 487 73 488 88 Q 487 103 472 104 Q 457 103 456 88 L 456 88 Z" />
</svg>