<svg xmlns="http://www.w3.org/2000/svg" viewBox="0 0 640 480">
  <path d="M 64 48 L 384 48 L 64 48 L 384 48 Q 399 49 400 64 L 400 119 L 400 119 Q 406 114 413 108 Q 428 95 448 96 L 448 64 L 448 64 Q 447 37 429 19 Q 411 1 384 0 L 64 0 L 64 0 Q 37 1 19 19 Q 1 37 0 64 L 0 384 L 0 384 Q 1 411 19 429 Q 37 447 64 448 L 338 448 L 338 448 Q 318 426 306 400 L 64 400 L 64 400 Q 49 399 48 384 L 48 64 L 48 64 Q 49 49 64 48 L 64 48 Z M 144 120 Q 142 98 120 96 Q 98 98 96 120 L 96 232 L 96 232 Q 98 254 120 256 Q 142 254 144 232 L 144 120 L 144 120 Z M 240 120 Q 238 98 216 96 Q 194 98 192 120 L 192 232 L 192 232 Q 194 254 216 256 Q 238 254 240 232 L 240 120 L 240 120 Z M 506 176 L 487 156 L 506 176 L 487 156 Q 485 155 484 153 Q 482 151 481 150 Q 481 150 481 150 Q 481 150 481 150 Q 481 149 480 149 Q 468 131 448 128 Q 437 128 428 135 Q 390 168 357 216 Q 323 263 320 320 Q 322 388 366 433 Q 411 478 480 480 Q 548 478 593 433 Q 638 388 640 320 Q 638 274 614 232 Q 590 190 559 161 Q 550 153 539 153 Q 527 153 518 162 L 506 176 L 506 176 Z M 544 368 Q 543 395 525 413 L 525 413 L 525 413 Q 507 431 480 432 Q 453 431 435 413 Q 417 395 416 368 Q 418 340 437 316 Q 456 292 471 280 Q 480 273 489 280 Q 504 292 523 316 Q 542 340 544 368 L 544 368 Z" />
</svg>