<svg xmlns="http://www.w3.org/2000/svg" viewBox="0 0 512 512">
  <path d="M 208.18677 414.38132 Q 207.19066 394.45914 194.24124 380.5136 L 194.24124 380.5136 Q 180.29572 367.5642 160.37354 366.56808 L 64.74708 366.56808 Q 49.805447 365.572 48.809338 350.63034 L 48.809338 63.750973 Q 49.805447 48.809338 64.74708 47.81323 L 447.25293 47.81323 Q 462.19455 48.809338 463.19067 63.750973 L 463.19067 350.63034 Q 462.19455 365.572 447.25293 366.56808 L 308.79376 366.56808 Q 292.85602 366.56808 280.9027 376.52917 L 208.18677 430.31906 L 208.18677 414.38132 L 208.18677 414.38132 Z M 208.18677 490.0856 L 208.18677 490.0856 L 308.79376 414.38132 L 447.25293 414.38132 Q 474.14786 413.38522 492.07782 395.45526 Q 510.00778 377.5253 511.0039 350.63034 L 511.0039 63.750973 Q 510.00778 36.85603 492.07782 18.92607 Q 474.14786 0.99610895 447.25293 0 L 64.74708 0 Q 37.85214 0.99610895 19.922178 18.92607 Q 1.9922179 36.85603 0.99610895 63.750973 L 0.99610895 350.63034 Q 1.9922179 377.5253 19.922178 395.45526 Q 37.85214 413.38522 64.74708 414.38132 L 112.56031 414.38132 L 160.37354 414.38132 L 160.37354 462.19455 L 160.37354 466.179 L 160.37354 466.179 L 160.37354 473.15176 L 160.37354 494.07004 Q 160.37354 504.03113 169.33852 508.01556 Q 178.3035 512 186.27237 507.01947 L 203.20622 494.07004 L 208.18677 490.0856 L 208.18677 490.0856 Z M 204.20233 148.42023 Q 196.23346 151.40855 196.23346 159.37743 L 196.23346 255.00389 Q 197.22957 265.9611 208.18677 266.95718 Q 219.14397 265.9611 220.14008 255.00389 L 220.14008 195.23735 L 246.03891 230.10117 Q 250.02335 235.08171 256 235.08171 Q 261.97665 235.08171 265.9611 230.10117 L 291.85992 195.23735 L 291.85992 255.00389 Q 292.85602 265.9611 303.81323 266.95718 Q 314.77042 265.9611 315.76654 255.00389 L 315.76654 159.37743 Q 315.76654 151.40855 307.79767 148.42023 Q 299.8288 145.4319 293.85214 152.40466 L 256 203.20622 L 218.14786 152.40466 Q 212.1712 145.4319 204.20233 148.42023 L 204.20233 148.42023 Z M 108.575874 182.28793 Q 108.575874 177.30739 113.55642 175.31517 Q 119.53307 171.33073 128.49805 171.33073 Q 140.45135 171.33073 152.40466 175.31517 Q 163.36186 176.31128 167.3463 166.35019 Q 169.33852 155.39299 158.38132 151.40855 Q 144.43579 148.42023 128.49805 147.42412 Q 114.55253 147.42412 101.60311 154.39688 Q 86.661476 162.36575 84.66926 182.28793 Q 86.661476 201.214 100.607 208.18677 Q 111.5642 214.16342 123.51751 217.15175 Q 123.51751 217.15175 123.51751 217.15175 L 124.51362 218.14786 Q 137.46303 221.13618 143.43968 225.12062 Q 148.42023 228.10895 148.42023 231.09727 Q 148.42023 237.07393 143.43968 240.06226 Q 138.45914 243.05058 128.49805 243.05058 Q 117.540855 242.05447 103.59533 237.07393 Q 101.60311 236.07782 99.61089 236.07782 Q 89.6498 233.0895 84.66926 243.05058 Q 82.67704 254.00778 92.63813 257.99222 Q 93.63424 258.9883 95.62646 259.98444 L 95.62646 259.98444 L 95.62646 259.98444 Q 109.57198 264.96497 127.501945 266.95718 Q 142.44357 267.9533 156.3891 259.98444 Q 171.33073 251.01945 172.32684 231.09727 Q 170.33463 212.1712 156.3891 205.19844 Q 144.43579 198.22568 131.48637 195.23735 L 131.48637 195.23735 Q 131.48637 195.23735 131.48637 194.24124 Q 118.536964 191.25291 112.56031 187.26848 Q 107.579765 184.28015 108.575874 182.28793 L 108.575874 182.28793 Z M 363.57977 182.28793 Q 363.57977 177.30739 368.5603 175.31517 Q 374.53696 171.33073 383.50195 171.33073 Q 393.46304 171.33073 404.42023 175.31517 Q 415.37744 176.31128 419.36188 166.35019 Q 420.35797 155.39299 410.39688 151.40855 Q 398.44357 148.42023 383.50195 147.42412 Q 369.55643 147.42412 356.607 154.39688 Q 341.66537 162.36575 339.67316 182.28793 Q 341.66537 201.214 355.6109 208.18677 Q 366.56808 214.16342 378.5214 217.15175 Q 378.5214 217.15175 378.5214 217.15175 L 380.5136 217.15175 Q 392.46692 221.13618 399.4397 225.12062 Q 404.42023 228.10895 403.42413 231.09727 Q 403.42413 237.07393 398.44357 240.06226 Q 393.46304 243.05058 383.50195 243.05058 Q 373.54086 242.05447 360.59143 237.07393 Q 360.59143 237.07393 360.59143 237.07393 L 360.59143 237.07393 L 360.59143 237.07393 Q 359.59534 237.07393 358.5992 237.07393 Q 357.60312 236.07782 355.6109 236.07782 Q 344.6537 233.0895 340.66925 243.05058 Q 337.68094 254.00778 347.64203 257.99222 Q 349.63425 258.9883 351.62646 259.98444 L 351.62646 259.98444 Q 365.572 264.96497 383.50195 266.95718 Q 397.44748 267.9533 411.393 259.98444 Q 426.33463 251.01945 427.33075 231.09727 Q 425.33853 212.1712 411.393 204.20233 Q 399.4397 198.22568 387.4864 195.23735 L 386.49026 195.23735 Q 386.49026 194.24124 386.49026 194.24124 Q 374.53696 191.25291 367.5642 187.26848 Q 362.58365 184.28015 363.57977 182.28793 L 363.57977 182.28793 Z" />
</svg>