<svg xmlns="http://www.w3.org/2000/svg" viewBox="0 0 654 526">
  <path d="M 46 12 Q 27 0 12 16 Q 0 35 16 50 L 608 514 L 608 514 Q 627 526 642 510 Q 654 491 638 476 L 488 359 L 488 359 Q 503 358 512 347 Q 522 334 518 319 L 512 294 L 512 294 Q 495 231 443 196 L 436 103 L 436 103 L 432 55 L 432 55 L 463 55 L 463 55 Q 470 55 475 52 Q 486 45 487 31 Q 485 9 463 7 L 432 7 L 191 7 Q 169 9 167 31 Q 168 45 179 52 Q 184 55 191 55 L 222 55 L 222 55 L 218 103 L 218 103 L 215 145 L 215 145 L 46 12 L 46 12 Z M 260 180 L 270 59 L 260 180 L 270 59 Q 270 57 270 55 L 384 55 L 384 55 Q 384 57 384 59 L 395 200 L 395 200 Q 397 222 416 236 Q 453 261 465 306 L 466 311 L 466 311 L 427 311 L 427 311 L 351 251 L 351 251 L 351 223 L 351 223 Q 349 201 327 199 Q 310 200 304 215 L 260 180 L 260 180 Z M 351 374 L 271 311 L 351 374 L 271 311 L 188 311 L 188 311 L 189 306 L 189 306 Q 195 282 210 263 L 172 233 L 172 233 Q 151 260 142 294 L 136 319 L 136 319 Q 133 334 142 347 Q 152 359 167 359 L 303 359 L 303 359 L 303 495 L 303 495 Q 305 517 327 519 Q 349 517 351 495 L 351 374 L 351 374 Z" />
</svg>