<svg xmlns="http://www.w3.org/2000/svg" viewBox="0 0 512 512">
  <path d="M 83.2 110.4 L 66.4 100.8 L 66.4 100.8 L 83.2 110.4 L 83.2 110.4 Z M 30.4 207.2 L 47.2 216 L 30.4 207.2 L 30.4 207.2 Z M 97.6 244 L 114.4 252.8 L 114.4 252.8 L 97.6 244 L 97.6 244 Z M 147.2 153.6 L 166.4 153.6 Q 165.6 139.2 152 135.2 Q 138.4 132 130.4 144.8 L 147.2 153.6 L 147.2 153.6 Z M 364.8 153.6 L 381.6 144 Q 373.6 132 360 135.2 Q 346.4 139.2 345.6 153.6 L 364.8 153.6 L 364.8 153.6 Z M 414.4 244 L 431.2 234.4 L 431.2 234.4 L 414.4 244 L 414.4 244 Z M 481.6 207.2 L 464.8 216 L 464.8 216 L 481.6 207.2 L 481.6 207.2 Z M 428.8 110.4 L 445.6 100.8 L 445.6 100.8 L 428.8 110.4 L 428.8 110.4 Z M 353.6 70.4 L 351.2 89.6 Q 352.8 89.6 354.4 89.6 Q 354.4 89.6 354.4 89.6 L 352.8 70.4 L 353.6 70.4 Z M 319.2 83.2 L 337.6 87.2 L 337.6 87.2 L 319.2 83.2 L 319.2 83.2 Z M 193.6 83.2 L 212 79.2 L 212 79.2 L 193.6 83.2 L 193.6 83.2 Z M 159.2 70.4 L 158.4 89.6 Q 159.2 89.6 160.8 89.6 L 159.2 70.4 L 159.2 70.4 Z M 100 119.2 Q 117.6 90.4 150.4 89.6 L 150.4 51.2 Q 124 51.2 101.6 64.8 Q 80 77.6 66.4 100.8 L 100 119.2 L 100 119.2 Z M 47.2 216 L 100 119.2 L 66.4 100.8 L 13.6 197.6 L 47.2 216 L 47.2 216 Z M 38.4 249.6 Q 38.4 232 47.2 216 L 13.6 197.6 Q 0 222.4 0 249.6 L 38.4 249.6 L 38.4 249.6 Z M 38.4 364.8 L 38.4 249.6 L 0 249.6 L 0 364.8 L 38.4 364.8 L 38.4 364.8 Z M 44.8 371.2 Q 39.2 370.4 38.4 364.8 L 0 364.8 Q 0.8 384 12.8 396.8 Q 25.6 408.8 44.8 409.6 L 44.8 371.2 L 44.8 371.2 Z M 70.4 371.2 L 44.8 371.2 L 44.8 409.6 L 70.4 409.6 L 70.4 371.2 L 70.4 371.2 Z M 76.8 364.8 Q 76 370.4 70.4 371.2 L 70.4 409.6 Q 89.6 408.8 102.4 396.8 Q 114.4 384 115.2 364.8 L 76.8 364.8 L 76.8 364.8 Z M 76.8 249.6 L 76.8 364.8 L 115.2 364.8 L 115.2 249.6 L 76.8 249.6 L 76.8 249.6 Z M 80.8 234.4 Q 76.8 241.6 76.8 249.6 L 115.2 249.6 Q 115.2 251.2 114.4 252.8 L 80.8 234.4 L 80.8 234.4 Z M 130.4 144 L 80.8 234.4 L 114.4 252.8 L 164 163.2 L 130.4 144 L 130.4 144 Z M 166.4 409.6 L 166.4 153.6 L 128 153.6 L 128 409.6 L 166.4 409.6 L 166.4 409.6 Z M 179.2 422.4 Q 167.2 421.6 166.4 409.6 L 128 409.6 Q 128.8 431.2 143.2 445.6 Q 157.6 460 179.2 460.8 L 179.2 422.4 L 179.2 422.4 Z M 332.8 422.4 L 179.2 422.4 L 179.2 460.8 L 332.8 460.8 L 332.8 422.4 L 332.8 422.4 Z M 345.6 409.6 Q 344.8 421.6 332.8 422.4 L 332.8 460.8 Q 354.4 460 368.8 445.6 Q 383.2 431.2 384 409.6 L 345.6 409.6 L 345.6 409.6 Z M 345.6 153.6 L 345.6 409.6 L 384 409.6 L 384 153.6 L 345.6 153.6 L 345.6 153.6 Z M 431.2 234.4 L 381.6 144 L 348 163.2 L 397.6 252.8 L 431.2 234.4 L 431.2 234.4 Z M 435.2 250.4 Q 435.2 241.6 431.2 234.4 L 397.6 252.8 Q 396.8 252 396.8 249.6 L 435.2 249.6 L 435.2 250.4 Z M 435.2 364.8 L 435.2 249.6 L 396.8 249.6 L 396.8 364.8 L 435.2 364.8 L 435.2 364.8 Z M 441.6 371.2 Q 436 370.4 435.2 364.8 L 396.8 364.8 Q 397.6 384 409.6 396.8 Q 422.4 408.8 441.6 409.6 L 441.6 371.2 L 441.6 371.2 Z M 467.2 371.2 L 441.6 371.2 L 441.6 409.6 L 467.2 409.6 L 467.2 371.2 L 467.2 371.2 Z M 473.6 364.8 Q 472.8 370.4 467.2 371.2 L 467.2 409.6 Q 486.4 408.8 499.2 396.8 Q 511.2 384 512 364.8 L 473.6 364.8 L 473.6 364.8 Z M 473.6 249.6 L 473.6 364.8 L 512 364.8 L 512 249.6 L 473.6 249.6 L 473.6 249.6 Z M 464.8 216 Q 473.6 232 473.6 249.6 L 512 249.6 Q 512 221.6 498.4 197.6 L 464.8 216 L 464.8 216 Z M 412 119.2 L 464.8 216 L 498.4 197.6 L 445.6 100.8 L 412 119.2 L 412 119.2 Z M 361.6 89.6 Q 394.4 90.4 412 119.2 L 445.6 100.8 Q 432 77.6 410.4 64.8 Q 388 51.2 361.6 51.2 L 361.6 89.6 L 361.6 89.6 Z M 355.2 89.6 L 361.6 89.6 L 361.6 51.2 L 355.2 51.2 L 355.2 89.6 L 355.2 89.6 Z M 354.4 89.6 Q 354.4 89.6 354.4 89.6 L 354.4 89.6 Q 355.2 89.6 355.2 89.6 L 355.2 51.2 Q 353.6 51.2 352 51.2 L 354.4 89.6 L 354.4 89.6 Z M 352 89.6 Q 352 89.6 352 89.6 L 352 89.6 Q 351.2 89.6 351.2 89.6 L 355.2 51.2 Q 353.6 51.2 352 51.2 L 352 89.6 L 352 89.6 Z M 332.8 89.6 L 352 89.6 L 352 51.2 L 332.8 51.2 L 332.8 89.6 L 332.8 89.6 Z M 337.6 87.2 Q 337.6 87.2 337.6 87.2 L 337.6 87.2 Q 337.6 87.2 336.8 88 Q 336 89.6 332.8 89.6 L 332.8 51.2 Q 319.2 52 310.4 60 Q 302.4 68.8 300 79.2 L 337.6 87.2 L 337.6 87.2 Z M 256 153.6 Q 287.2 152.8 308.8 134.4 L 308.8 134.4 Q 331.2 116 337.6 87.2 L 300 79.2 Q 296.8 95.2 284.8 104.8 Q 272.8 115.2 256 115.2 L 256 153.6 L 256 153.6 Z M 174.4 87.2 Q 180.8 116 203.2 134.4 L 203.2 134.4 Q 224.8 152.8 256 153.6 L 256 115.2 Q 239.2 115.2 227.2 104.8 Q 215.2 95.2 212 79.2 L 174.4 87.2 L 174.4 87.2 Z M 179.2 89.6 Q 176 89.6 175.2 88 Q 174.4 87.2 174.4 87.2 L 212 79.2 Q 209.6 68.8 201.6 60 Q 192.8 52 179.2 51.2 L 179.2 89.6 L 179.2 89.6 Z M 160 89.6 L 179.2 89.6 L 179.2 51.2 L 160 51.2 L 160 89.6 L 160 89.6 Z M 160.8 89.6 Q 160.8 89.6 160 89.6 L 160 89.6 Q 160 89.6 160 89.6 L 160 51.2 Q 158.4 51.2 156.8 51.2 Q 156.8 51.2 156.8 51.2 L 160.8 89.6 L 160.8 89.6 Z M 156.8 89.6 Q 156.8 89.6 157.6 89.6 L 157.6 89.6 Q 157.6 89.6 157.6 89.6 L 160 51.2 Q 158.4 51.2 156.8 51.2 L 156.8 89.6 L 156.8 89.6 Z M 150.4 89.6 L 156.8 89.6 L 156.8 51.2 L 150.4 51.2 L 150.4 89.6 L 150.4 89.6 Z" />
</svg>