<svg xmlns="http://www.w3.org/2000/svg" viewBox="0 0 640 512">
  <path d="M 256 48 Q 328 49 381 90 L 381 90 L 381 90 Q 435 131 455 197 Q 475 192 496 192 Q 500 192 504 192 Q 504 192 504 192 Q 481 108 414 55 Q 347 2 256 0 Q 184 1 127 35 Q 69 69 35 127 Q 1 184 0 256 Q 1 328 35 385 Q 69 443 127 477 Q 184 511 256 512 Q 316 512 366 487 Q 350 469 339 447 Q 300 464 256 464 Q 168 462 109 403 Q 50 344 48 256 Q 50 168 109 109 Q 168 50 256 48 L 256 48 Z M 417 206 Q 351 146 256 144 Q 161 146 95 206 Q 81 222 94 240 Q 110 254 127 241 Q 180 194 256 192 Q 328 193 379 237 Q 397 220 420 209 Q 418 207 417 206 L 417 206 Z M 256 240 Q 202 241 165 275 Q 150 291 163 309 Q 179 324 197 311 Q 221 289 256 288 Q 291 289 315 311 Q 321 316 328 317 Q 334 294 347 275 Q 310 241 256 240 L 256 240 Z M 256 400 Q 270 400 279 391 L 279 391 L 279 391 Q 288 382 288 368 Q 288 354 279 345 Q 270 336 256 336 Q 242 336 233 345 Q 224 354 224 368 Q 224 382 233 391 Q 242 400 256 400 L 256 400 Z M 640 368 Q 640 329 621 296 L 621 296 L 621 296 Q 602 263 568 243 Q 534 224 496 224 Q 458 224 424 243 Q 390 263 371 296 Q 352 329 352 368 Q 352 407 371 440 Q 390 473 424 493 Q 458 512 496 512 Q 534 512 568 493 Q 602 473 621 440 Q 640 407 640 368 L 640 368 Z M 496 320 Q 454 321 425 347 Q 414 356 403 346 Q 394 334 404 323 Q 442 289 496 288 Q 550 289 588 323 Q 598 334 589 346 Q 578 356 567 347 Q 538 321 496 320 L 496 320 Z M 476 432 Q 478 414 496 412 Q 514 414 516 432 Q 514 450 496 452 Q 478 450 476 432 L 476 432 Z M 465 396 Q 453 405 442 395 Q 433 383 443 372 Q 465 353 496 352 Q 527 353 549 372 Q 559 383 550 395 Q 539 405 528 396 Q 515 384 496 384 Q 477 384 465 396 L 465 396 Z" />
</svg>