<svg xmlns="http://www.w3.org/2000/svg" viewBox="0 0 640 480">
  <path d="M 448 48 Q 463 49 464 64 L 464 136 L 464 136 L 360 136 L 360 136 L 360 48 L 360 48 L 448 48 L 448 48 Z M 200 48 L 312 48 L 200 48 L 312 48 L 312 136 L 312 136 L 200 136 L 200 136 L 200 48 L 200 48 Z M 312 400 L 200 400 L 312 400 L 200 400 L 200 312 L 200 312 L 312 312 L 312 312 L 312 400 L 312 400 Z M 384 400 L 360 400 L 384 400 L 360 400 L 360 312 L 360 312 L 385 312 L 385 312 Q 389 280 416 265 L 416 264 L 416 264 L 360 264 L 360 264 L 360 184 L 360 184 L 431 184 L 431 184 Q 458 138 512 129 L 512 64 L 512 64 Q 511 37 493 19 Q 475 1 448 0 L 64 0 L 64 0 Q 37 1 19 19 Q 1 37 0 64 L 0 384 L 0 384 Q 1 411 19 429 Q 37 447 64 448 L 384 448 L 384 448 L 384 400 L 384 400 Z M 200 264 L 200 184 L 200 264 L 200 184 L 312 184 L 312 184 L 312 264 L 312 264 L 200 264 L 200 264 Z M 528 208 Q 542 208 551 217 L 551 217 L 551 217 Q 560 226 560 240 L 560 288 L 560 288 L 496 288 L 496 288 L 496 240 L 496 240 Q 496 226 505 217 Q 514 208 528 208 L 528 208 Z M 448 240 L 448 288 L 448 240 L 448 288 Q 434 288 425 297 Q 416 306 416 320 L 416 448 L 416 448 Q 416 462 425 471 Q 434 480 448 480 L 608 480 L 608 480 Q 622 480 631 471 Q 640 462 640 448 L 640 320 L 640 320 Q 640 306 631 297 Q 622 288 608 288 L 608 240 L 608 240 Q 607 206 585 183 Q 562 161 528 160 Q 494 161 471 183 Q 449 206 448 240 L 448 240 Z" />
</svg>