<svg xmlns="http://www.w3.org/2000/svg" viewBox="0 0 512 512">
  <path d="M 256 160.5 L 222 126.5 L 210 114.5 Q 175 81.5 127 88.5 Q 92 94.5 71 120.5 Q 49 146.5 48 181.5 L 48 187.5 Q 48 224.5 72 252.5 L 123 252.5 Q 133 252.5 137 242.5 L 169 166.5 Q 174 157.5 184 156.5 Q 194 156.5 199 165.5 L 257 295.5 L 306 197.5 Q 310 188.5 320 188.5 Q 330 188.5 334 197.5 L 357 243.5 Q 362 252.5 372 252.5 L 440 252.5 Q 463 224.5 464 187.5 L 464 181.5 Q 463 146.5 441 120.5 Q 420 94.5 385 87.5 Q 337 81.5 302 114.5 L 290 126.5 L 256 160.5 L 256 160.5 Z M 456 284.5 L 407 284.5 L 372 284.5 Q 343 283.5 329 258.5 L 320 240.5 L 270 339.5 Q 265 348.5 256 348.5 Q 246 347.5 241 339.5 L 185 212.5 L 167 255.5 Q 154 283.5 123 284.5 L 105 284.5 L 56 284.5 L 36 284.5 Q 1 242.5 0 187.5 L 0 181.5 Q 1 127.5 34 89.5 Q 67 50.5 119 40.5 Q 154 35.5 187 45.5 Q 219 55.5 244 80.5 L 244 80.5 L 256 92.5 L 268 80.5 L 268 80.5 Q 293 55.5 325 45.5 Q 358 35.5 393 40.5 Q 445 50.5 478 89.5 Q 511 127.5 512 181.5 L 512 187.5 Q 511 242.5 476 284.5 L 456 284.5 L 456 284.5 Z M 69 316.5 L 139 316.5 L 256 425.5 L 373 316.5 L 443 316.5 L 284 465.5 Q 272 476.5 256 476.5 Q 240 476.5 228 465.5 L 69 316.5 L 69 316.5 Z" />
</svg>