<svg xmlns="http://www.w3.org/2000/svg" viewBox="0 0 517 512">
  <path d="M 349 0 L 381 0 L 349 0 L 445 0 Q 476 1 496 21 Q 516 41 517 72 Q 515 94 493 96 L 453 96 L 453 96 Q 403 95 373 59 L 373 102 L 373 102 L 373 152 L 373 152 L 373 168 L 373 168 Q 371 190 349 192 Q 327 190 325 168 L 325 144 L 325 144 Q 268 144 223 186 L 222 188 L 222 188 L 220 190 L 220 190 Q 193 212 176 235 Q 159 259 145 285 L 142 291 L 142 291 Q 142 291 142 291 Q 129 316 109 344 Q 90 371 59 396 Q 55 398 54 403 Q 51 417 64 423 L 66 424 L 66 424 L 68 425 L 68 425 Q 68 425 68 425 Q 68 425 68 425 Q 68 425 68 425 Q 68 425 68 425 Q 68 425 68 425 Q 68 425 68 425 L 68 425 L 68 425 Q 69 425 69 425 Q 70 426 71 426 Q 75 428 83 430 Q 98 436 129 444 Q 190 461 293 464 Q 343 463 376 445 Q 409 427 429 400 Q 450 371 460 340 Q 469 310 469 288 Q 469 231 427 186 Q 417 176 405 168 L 405 114 L 405 114 Q 436 127 461 152 Q 517 211 517 288 Q 517 328 496 380 Q 474 432 425 471 Q 376 510 293 512 Q 183 509 117 490 Q 51 471 49 469 Q 23 460 12 437 Q 0 414 8 388 Q 15 369 30 358 Q 55 338 71 315 Q 87 292 101 266 Q 101 266 101 266 Q 101 265 101 265 Q 116 238 136 209 Q 156 180 189 152 Q 248 96 325 96 L 325 24 L 325 24 Q 327 2 349 0 L 349 0 Z M 405 288 Q 420 289 421 304 Q 420 352 388 383 Q 357 415 309 416 Q 294 415 293 400 Q 294 385 309 384 Q 343 383 366 361 Q 388 338 389 304 Q 390 289 405 288 L 405 288 Z" />
</svg>