<svg xmlns="http://www.w3.org/2000/svg" viewBox="0 0 640 512">
  <path d="M 64 48 Q 49 49 48 64 L 48 352 L 48 352 Q 49 367 64 368 L 77 368 L 77 368 Q 90 346 111 333 Q 133 320 160 320 Q 187 320 209 333 Q 230 346 243 368 L 320 368 L 352 368 Q 367 367 368 352 L 368 64 L 368 64 Q 367 49 352 48 L 64 48 L 64 48 Z M 480 512 Q 439 511 412 484 L 412 484 L 412 484 Q 385 457 384 416 L 376 416 L 256 416 Q 255 457 228 484 Q 201 511 160 512 Q 119 511 92 484 Q 65 457 64 416 Q 37 415 19 397 Q 1 379 0 352 L 0 64 L 0 64 Q 1 37 19 19 Q 37 1 64 0 L 352 0 L 352 0 Q 379 1 397 19 Q 415 37 416 64 L 416 96 L 416 96 L 459 96 L 459 96 Q 482 96 498 112 L 592 206 L 592 206 Q 608 222 608 245 L 608 368 L 608 368 L 616 368 L 616 368 Q 638 370 640 392 Q 638 414 616 416 L 576 416 L 576 416 Q 575 457 548 484 Q 521 511 480 512 L 480 512 Z M 558 240 Q 558 240 558 240 L 558 240 L 558 240 Q 558 240 558 240 L 464 146 L 464 146 Q 462 144 459 144 L 416 144 L 416 144 L 416 240 L 416 240 L 558 240 L 558 240 Z M 160 464 Q 187 463 202 440 Q 214 416 202 392 Q 187 369 160 368 Q 133 369 118 392 Q 106 416 118 440 Q 133 463 160 464 L 160 464 Z M 528 416 Q 527 389 504 374 Q 480 362 456 374 Q 433 389 432 416 Q 433 443 456 458 Q 480 470 504 458 Q 527 443 528 416 L 528 416 Z M 96 175 L 106 93 L 96 175 L 106 93 Q 107 84 117 83 Q 127 84 129 94 L 133 170 L 133 170 Q 134 175 139 175 Q 144 175 144 170 L 149 94 L 149 94 Q 150 84 160 83 Q 170 84 171 94 L 176 170 L 176 170 Q 176 175 181 175 Q 186 175 187 170 L 191 94 L 191 94 Q 193 84 203 83 Q 213 84 215 93 L 224 175 L 224 175 Q 224 197 210 214 Q 197 230 176 235 L 176 272 L 176 272 Q 175 287 160 288 Q 145 287 144 272 L 144 235 L 144 235 Q 123 230 110 214 Q 96 197 96 175 L 96 175 Z M 272 304 L 272 240 L 272 304 L 272 240 Q 258 240 249 231 Q 240 222 240 208 L 240 171 L 240 171 Q 242 124 262 104 Q 281 83 290 81 Q 292 80 294 80 Q 303 81 304 90 L 304 128 L 304 128 L 304 240 L 304 240 L 304 304 L 304 304 Q 303 319 288 320 Q 273 319 272 304 L 272 304 Z" />
</svg>