<svg xmlns="http://www.w3.org/2000/svg" viewBox="0 0 512 512">
  <path d="M 252 128 L 252 128 Q 254 130 256 132 L 256 304 Q 256 314 265 318 Q 274 322 282 317 L 336 276 L 390 317 Q 398 322 407 318 Q 416 314 416 304 L 416 144 L 448 144 Q 463 145 464 160 L 464 416 Q 463 431 448 432 L 64 432 Q 49 431 48 416 L 48 96 Q 49 81 64 80 L 198 80 Q 204 80 209 85 L 243 51 L 209 85 L 252 128 L 252 128 Z M 286 94 L 243 51 Q 224 32 197 32 L 64 32 Q 37 33 19 51 Q 1 69 0 96 L 0 416 Q 1 443 19 461 Q 37 479 64 480 L 448 480 Q 475 479 493 461 Q 511 443 512 416 L 512 160 Q 511 133 493 115 Q 475 97 448 96 L 291 96 Q 288 96 286 94 L 286 94 Z" />
</svg>