<svg xmlns="http://www.w3.org/2000/svg" viewBox="0 0 576 518">
  <path d="M 253 41 Q 262 21 243 9 Q 223 0 211 19 L 118 198 L 118 198 L 82 198 L 24 198 Q 2 200 0 222 Q 2 244 24 246 L 44 246 L 44 246 L 100 470 L 100 470 Q 106 491 123 504 Q 139 518 162 518 L 414 518 L 414 518 Q 437 518 453 504 Q 470 491 476 470 L 532 246 L 532 246 L 552 246 L 552 246 Q 574 244 576 222 Q 574 200 552 198 L 544 198 L 458 198 L 365 19 L 365 19 Q 353 0 333 9 Q 314 21 323 41 L 404 198 L 404 198 L 172 198 L 172 198 L 253 41 L 253 41 Z M 94 246 L 483 246 L 94 246 L 483 246 L 430 458 L 430 458 Q 426 469 414 470 L 162 470 L 162 470 Q 150 469 147 458 L 94 246 L 94 246 Z M 224 334 Q 202 336 200 358 Q 202 380 224 382 L 352 382 L 352 382 Q 374 380 376 358 Q 374 336 352 334 L 224 334 L 224 334 Z" />
</svg>