<svg xmlns="http://www.w3.org/2000/svg" viewBox="0 0 640 512">
  <path d="M 0 24 Q 2 46 24 48 L 32 48 L 32 48 L 32 144 L 32 144 L 24 144 L 24 144 Q 2 146 0 168 Q 2 190 24 192 L 328 192 L 328 192 Q 350 190 352 168 Q 350 146 328 144 L 320 144 L 320 144 L 320 48 L 320 48 L 328 48 L 328 48 Q 350 46 352 24 Q 350 2 328 0 L 24 0 L 24 0 Q 2 2 0 24 L 0 24 Z M 272 144 L 240 144 L 272 144 L 240 144 L 240 48 L 240 48 L 272 48 L 272 48 L 272 144 L 272 144 Z M 160 48 L 192 48 L 160 48 L 192 48 L 192 144 L 192 144 L 160 144 L 160 144 L 160 48 L 160 48 Z M 112 144 L 80 144 L 112 144 L 80 144 L 80 48 L 80 48 L 112 48 L 112 48 L 112 144 L 112 144 Z M 408 96 Q 386 98 384 120 L 384 224 L 384 224 L 56 224 L 56 224 Q 32 225 16 240 Q 1 256 0 280 L 0 360 L 0 360 Q 1 384 16 400 Q 32 415 56 416 L 64 416 L 64 416 Q 65 457 92 484 Q 119 511 160 512 Q 201 511 228 484 Q 255 457 256 416 L 384 416 L 384 416 Q 385 457 412 484 Q 439 511 480 512 Q 521 511 548 484 Q 575 457 576 416 L 584 416 L 584 416 Q 608 415 624 400 Q 639 384 640 360 L 640 251 L 640 251 Q 640 232 628 216 L 548 117 L 548 117 Q 531 97 505 96 L 408 96 L 408 96 Z M 77 368 L 56 368 L 77 368 L 56 368 Q 49 367 48 360 L 48 280 L 48 280 Q 49 273 56 272 L 384 272 L 592 272 L 592 360 L 592 360 Q 591 367 584 368 L 563 368 L 563 368 Q 550 346 529 333 Q 507 320 480 320 Q 453 320 431 333 Q 410 346 397 368 L 243 368 L 243 368 Q 230 346 209 333 Q 187 320 160 320 Q 133 320 111 333 Q 89 346 77 368 L 77 368 Z M 432 224 L 432 144 L 432 224 L 432 144 L 505 144 L 505 144 Q 508 144 511 147 L 572 224 L 572 224 L 432 224 L 432 224 Z M 112 416 Q 113 389 136 374 Q 160 362 184 374 Q 207 389 208 416 Q 207 443 184 458 Q 160 470 136 458 Q 113 443 112 416 L 112 416 Z M 480 368 Q 507 369 522 392 Q 534 416 522 440 Q 507 463 480 464 Q 453 463 438 440 Q 426 416 438 392 Q 453 369 480 368 L 480 368 Z" />
</svg>