<svg xmlns="http://www.w3.org/2000/svg" viewBox="0 0 512 512">
  <path d="M 427.73334 170.66667 Q 426.66666 169.6 425.6 169.6 L 425.6 169.6 Q 390.4 129.06667 359.46667 103.46667 Q 338.13333 86.4 313.6 77.86667 Q 289.06668 68.26667 256 68.26667 Q 193.06667 69.333336 144 104.53333 Q 94.933334 139.73334 75.73333 196.26666 Q 66.13333 217.6 42.666668 212.26666 Q 21.333334 202.66667 26.666666 179.2 Q 52.266666 107.73333 114.13333 62.933334 Q 176 18.133333 256 17.066668 Q 339.2 18.133333 391.46667 64 Q 425.6 91.73333 460.8 131.2 L 460.8 93.86667 Q 462.93332 70.4 486.4 68.26667 Q 509.86667 70.4 512 93.86667 L 512 196.26666 Q 509.86667 219.73334 486.4 221.86667 L 384 221.86667 Q 360.53333 219.73334 358.4 196.26666 Q 360.53333 172.8 384 170.66667 L 427.73334 170.66667 L 427.73334 170.66667 Z M 281.6 145.06667 L 281.6 264.53333 Q 279.46667 288 256 290.13333 Q 232.53334 288 230.4 264.53333 L 230.4 145.06667 Q 232.53334 121.6 256 119.46667 Q 279.46667 121.6 281.6 145.06667 L 281.6 145.06667 Z M 256 324.26666 Q 270.93332 324.26666 280.53333 333.86667 L 280.53333 333.86667 Q 290.13333 343.46667 290.13333 358.4 Q 290.13333 373.33334 280.53333 382.93332 Q 270.93332 392.53333 256 392.53333 Q 241.06667 392.53333 231.46666 382.93332 Q 221.86667 373.33334 221.86667 358.4 Q 221.86667 343.46667 231.46666 333.86667 Q 241.06667 324.26666 256 324.26666 L 256 324.26666 Z M 25.6 443.73334 Q 2.1333334 441.6 0 418.13333 L 0 315.73334 Q 2.1333334 292.26666 25.6 290.13333 L 128 290.13333 Q 151.46666 292.26666 153.6 315.73334 Q 151.46666 339.2 128 341.33334 L 87.46667 341.33334 L 90.666664 344.53333 L 90.666664 344.53333 L 90.666664 344.53333 Q 123.73333 384 153.6 408.53333 Q 173.86667 425.6 198.4 434.13333 Q 222.93333 443.73334 256 443.73334 Q 320 442.66666 368 407.46667 Q 417.06668 372.26666 436.26666 315.73334 Q 445.86667 294.4 469.33334 299.73334 Q 490.66666 309.33334 485.33334 332.8 Q 459.73334 404.26666 397.86667 449.06668 Q 336 493.86667 256 494.93332 Q 213.33333 494.93332 181.33333 482.13333 Q 148.26666 470.4 121.6 448 Q 87.46667 419.2 51.2 377.6 L 51.2 418.13333 Q 49.066666 441.6 25.6 443.73334 L 25.6 443.73334 Z" />
</svg>