<svg xmlns="http://www.w3.org/2000/svg" viewBox="0 0 612 518">
  <path d="M 530 0 Q 499 1 482 27 L 470 48 L 470 48 Q 426 50 398 79 Q 369 108 368 152 Q 368 175 378 195 Q 365 192 352 192 Q 314 193 288 216 Q 275 180 244 159 Q 213 137 173 136 L 157 136 L 157 136 Q 90 138 46 182 Q 2 226 0 293 Q 1 332 27 357 Q 52 383 91 384 L 120 384 L 120 384 L 67 476 L 67 476 Q 58 496 76 509 Q 96 518 109 500 L 173 388 L 173 388 Q 174 386 175 384 L 184 384 L 184 384 Q 192 384 201 383 L 147 476 L 147 476 Q 138 496 156 509 Q 176 518 189 500 L 276 347 L 276 347 Q 283 356 292 363 L 291 364 L 291 364 L 291 364 L 291 364 L 227 476 L 227 476 Q 218 496 236 509 Q 256 518 269 500 L 333 388 L 333 388 L 336 383 L 336 383 Q 344 384 352 384 Q 372 384 390 376 L 430 416 L 430 416 Q 435 421 439 429 L 466 497 L 466 497 Q 476 516 497 510 Q 517 500 510 479 L 483 411 L 483 411 Q 476 394 464 382 L 428 346 L 428 346 Q 432 342 434 337 L 521 399 L 521 399 Q 532 407 536 419 L 561 496 L 561 496 Q 570 516 592 511 Q 612 502 607 480 L 582 404 L 582 404 Q 572 377 549 360 L 454 292 L 454 292 L 448 288 L 448 288 L 448 288 L 448 288 Q 448 268 441 251 Q 456 256 472 256 L 531 256 L 531 256 Q 564 255 586 233 Q 607 212 608 179 Q 608 135 584 103 Q 560 70 521 55 L 524 52 L 524 52 Q 526 48 530 48 L 584 48 L 584 48 Q 606 46 608 24 Q 606 2 584 0 L 530 0 L 530 0 Z M 416 152 Q 417 128 432 112 L 432 112 L 432 112 Q 448 97 472 96 L 477 96 L 477 96 Q 512 97 536 120 Q 559 144 560 179 Q 560 191 551 199 Q 543 208 531 208 L 472 208 L 472 208 Q 448 207 432 192 Q 417 176 416 152 L 416 152 Z M 400 288 Q 399 315 376 330 Q 352 342 328 330 Q 305 315 304 288 Q 305 261 328 246 Q 352 234 376 246 Q 399 261 400 288 L 400 288 Z M 157 184 L 173 184 L 157 184 L 173 184 Q 205 185 226 206 Q 247 227 248 259 L 248 272 L 248 272 Q 247 299 229 317 Q 211 335 184 336 L 91 336 L 91 336 Q 73 336 61 324 Q 48 311 48 293 Q 49 247 80 216 Q 111 185 157 184 L 157 184 Z M 520 144 Q 518 122 496 120 Q 474 122 472 144 Q 474 166 496 168 Q 518 166 520 144 L 520 144 Z" />
</svg>