<svg xmlns="http://www.w3.org/2000/svg" viewBox="0 0 512 448">
  <path d="M 320 334 L 210 224 L 320 334 L 210 224 L 320 114 L 320 114 L 320 168 L 320 168 Q 322 190 344 192 L 464 192 L 464 192 L 464 256 L 464 256 L 344 256 L 344 256 Q 322 258 320 280 L 320 334 L 320 334 Z M 160 224 Q 160 242 173 255 L 289 370 L 289 370 Q 302 384 322 384 Q 341 384 354 370 Q 367 357 368 338 L 368 304 L 368 304 L 464 304 L 464 304 Q 484 303 498 290 Q 511 276 512 256 L 512 192 L 512 192 Q 511 172 498 158 Q 484 145 464 144 L 368 144 L 368 144 L 368 110 L 368 110 Q 367 91 354 78 Q 341 64 322 64 Q 303 64 289 78 L 173 193 L 173 193 Q 160 206 160 224 L 160 224 Z M 168 400 L 88 400 L 168 400 L 88 400 Q 71 400 60 388 Q 48 377 48 360 L 48 88 L 48 88 Q 48 71 60 60 Q 71 48 88 48 L 168 48 L 168 48 Q 190 46 192 24 Q 190 2 168 0 L 88 0 L 88 0 Q 51 1 26 26 Q 1 51 0 88 L 0 360 L 0 360 Q 1 397 26 422 Q 51 447 88 448 L 168 448 L 168 448 Q 190 446 192 424 Q 190 402 168 400 L 168 400 Z" />
</svg>