<svg xmlns="http://www.w3.org/2000/svg" viewBox="0 0 647 519">
  <path d="M 352 367 Q 414 360 454 316 L 454 316 L 454 316 Q 495 272 496 208 Q 494 140 449 95 Q 404 50 336 48 Q 281 49 239 81 Q 198 112 183 163 L 130 180 L 130 180 Q 142 102 198 52 Q 255 2 336 0 Q 424 2 483 61 Q 542 120 544 208 Q 543 283 499 337 L 633 471 L 633 471 Q 647 488 633 505 Q 616 519 599 505 L 465 371 L 465 371 Q 416 410 350 416 Q 352 408 352 400 Q 352 398 352 396 Q 352 394 352 392 L 352 367 L 352 367 Z M 320 184 Q 320 172 310 165 Q 300 158 288 161 L 96 225 L 96 225 Q 81 231 80 248 L 80 296 L 80 296 L 80 418 L 80 418 Q 72 416 64 416 Q 37 417 19 430 Q 1 444 0 464 Q 1 484 19 498 Q 37 511 64 512 Q 91 511 109 498 Q 127 484 128 464 L 128 313 L 128 313 L 272 265 L 272 265 L 272 354 L 272 354 Q 264 352 256 352 Q 229 353 211 366 Q 193 380 192 400 Q 193 420 211 434 Q 229 447 256 448 Q 283 447 301 434 Q 319 420 320 400 Q 320 398 320 396 Q 320 394 320 392 L 320 232 L 320 232 L 320 184 L 320 184 Z" />
</svg>