<svg xmlns="http://www.w3.org/2000/svg" viewBox="0 0 608 512">
  <path d="M 224 119 Q 224 136 212 148 L 212 148 L 212 148 Q 200 160 183 160 L 136 160 L 136 160 L 136 360 L 136 360 Q 137 391 157 411 Q 177 431 208 432 Q 239 431 259 411 Q 279 391 280 360 L 280 152 L 280 152 Q 281 101 315 67 Q 349 33 400 32 Q 451 33 485 67 Q 519 101 520 152 L 520 352 L 520 352 L 567 352 L 567 352 Q 584 352 596 364 Q 608 376 608 393 Q 608 410 596 422 L 513 505 L 513 505 Q 506 512 496 512 Q 486 512 479 505 L 396 422 L 396 422 Q 384 410 384 393 Q 384 376 396 364 Q 408 352 425 352 L 472 352 L 472 352 L 472 152 L 472 152 Q 471 121 451 101 Q 431 81 400 80 Q 369 81 349 101 Q 329 121 328 152 L 328 360 L 328 360 Q 327 411 293 445 Q 259 479 208 480 Q 157 479 123 445 Q 89 411 88 360 L 88 160 L 88 160 L 41 160 L 41 160 Q 24 160 12 148 Q 0 136 0 119 Q 0 102 12 90 L 95 7 L 95 7 Q 102 0 112 0 Q 122 0 129 7 L 212 90 L 212 90 Q 224 102 224 119 L 224 119 Z M 58 112 L 166 112 L 58 112 L 166 112 L 112 58 L 112 58 L 58 112 L 58 112 Z M 442 400 L 496 454 L 442 400 L 496 454 L 550 400 L 550 400 L 442 400 L 442 400 Z" />
</svg>