<svg xmlns="http://www.w3.org/2000/svg" viewBox="0 0 647 487">
  <path d="M 80 56 L 80 144 L 80 56 L 80 144 L 222 144 L 222 144 L 179 53 L 179 53 Q 177 48 172 48 L 88 48 L 88 48 Q 81 49 80 56 L 80 56 Z M 32 144 L 32 56 L 32 144 L 32 56 Q 33 32 48 16 Q 64 1 88 0 L 172 0 L 172 0 Q 206 1 222 32 L 275 144 L 275 144 L 328 144 L 328 144 L 328 88 L 328 88 Q 330 66 352 64 Q 374 66 376 88 L 376 144 L 376 144 Q 407 145 427 165 Q 447 185 448 216 L 448 264 L 448 264 L 512 264 L 512 264 L 512 233 L 512 233 Q 512 199 535 174 L 598 104 L 598 104 Q 615 89 632 102 Q 647 118 634 136 L 570 206 L 570 206 Q 560 217 560 233 L 560 343 L 560 343 Q 560 359 570 370 L 634 440 L 634 440 Q 647 457 632 474 Q 615 487 598 472 L 535 402 L 535 402 Q 512 377 512 343 L 512 312 L 512 312 L 465 312 L 465 312 Q 480 337 480 368 Q 479 416 447 447 Q 416 479 368 480 L 112 480 L 112 480 Q 64 479 33 447 Q 1 416 0 368 Q 1 321 32 290 L 32 192 L 32 192 L 32 168 L 32 168 L 32 144 L 32 144 Z M 80 261 Q 95 256 112 256 L 368 256 L 368 256 Q 385 256 400 261 L 400 216 L 400 216 Q 398 194 376 192 L 80 192 L 80 192 L 80 261 L 80 261 Z M 112 304 Q 85 305 67 323 L 67 323 L 67 323 Q 49 341 48 368 Q 49 395 67 413 Q 85 431 112 432 L 368 432 L 368 432 Q 395 431 413 413 Q 431 395 432 368 Q 431 341 413 323 Q 395 305 368 304 L 112 304 L 112 304 Z M 96 368 Q 98 346 120 344 Q 142 346 144 368 Q 142 390 120 392 Q 98 390 96 368 L 96 368 Z M 360 344 Q 382 346 384 368 Q 382 390 360 392 Q 338 390 336 368 Q 338 346 360 344 L 360 344 Z M 256 368 Q 258 346 280 344 Q 302 346 304 368 Q 302 390 280 392 Q 258 390 256 368 L 256 368 Z M 200 344 Q 222 346 224 368 Q 222 390 200 392 Q 178 390 176 368 Q 178 346 200 344 L 200 344 Z" />
</svg>