<svg xmlns="http://www.w3.org/2000/svg" viewBox="0 0 519 516">
  <path d="M 141 85 Q 135 59 147 37 L 147 37 L 147 37 Q 160 14 186 6 Q 212 0 234 12 Q 257 25 265 51 L 295 158 L 295 158 L 308 88 L 308 88 Q 314 61 335 47 Q 356 33 383 37 Q 407 42 421 60 Q 435 78 435 102 Q 450 98 466 102 Q 493 109 506 131 Q 519 153 513 180 L 458 401 L 458 401 Q 444 453 404 484 Q 364 515 311 516 L 277 516 L 277 516 Q 189 515 120 462 L 28 391 L 28 391 Q 7 373 3 348 Q 0 323 16 301 Q 34 280 59 277 Q 84 273 106 290 L 123 303 L 123 303 L 72 172 L 72 172 Q 62 146 72 123 Q 83 99 108 89 Q 124 82 141 85 L 141 85 Z M 218 64 Q 213 50 199 53 Q 185 58 188 72 L 242 255 L 242 255 Q 246 275 227 284 Q 206 289 197 270 L 146 142 L 146 142 Q 139 129 125 133 Q 112 140 116 154 L 189 340 L 189 340 Q 197 364 179 377 Q 161 390 140 377 L 77 327 L 77 327 Q 65 320 54 330 Q 46 343 57 353 L 149 424 L 149 424 Q 206 467 277 468 L 311 468 L 311 468 Q 347 468 374 446 Q 402 425 411 390 L 467 168 L 467 168 Q 469 153 455 149 Q 440 146 436 160 L 410 264 L 410 264 Q 404 283 384 284 Q 371 284 364 274 Q 356 265 358 253 L 387 103 L 387 103 Q 388 88 374 84 Q 359 83 355 97 L 324 264 L 324 264 Q 319 283 299 284 Q 281 283 276 266 L 218 64 L 218 64 Z" />
</svg>