<svg xmlns="http://www.w3.org/2000/svg" viewBox="0 0 512 512">
  <path d="M 252 128 L 252 128 Q 268 144 291 144 L 448 144 Q 463 145 464 160 L 464 416 Q 463 431 448 432 L 64 432 Q 49 431 48 416 L 48 96 Q 49 81 64 80 L 198 80 Q 204 80 209 85 L 243 51 L 209 85 L 252 128 L 252 128 Z M 286 94 L 243 51 Q 224 32 197 32 L 64 32 Q 37 33 19 51 Q 1 69 0 96 L 0 416 Q 1 443 19 461 Q 37 479 64 480 L 448 480 Q 475 479 493 461 Q 511 443 512 416 L 512 160 Q 511 133 493 115 Q 475 97 448 96 L 291 96 Q 288 96 286 94 L 286 94 Z M 144 253 Q 144 278 162 297 L 245 379 Q 256 389 267 379 L 350 297 Q 367 278 368 253 Q 367 227 350 210 Q 333 193 306 192 Q 281 192 263 210 L 256 217 L 248 210 Q 230 192 205 192 Q 179 193 162 210 Q 144 227 144 253 L 144 253 Z" />
</svg>