<svg xmlns="http://www.w3.org/2000/svg" viewBox="0 0 640 521">
  <path d="M 256 73 Q 257 37 288 18 Q 320 0 352 18 Q 383 37 384 73 Q 383 109 352 128 Q 320 146 288 128 Q 257 109 256 73 L 256 73 Z M 304 217 Q 293 218 289 229 L 256 345 L 256 345 L 384 345 L 384 345 L 351 229 L 351 229 Q 347 218 336 217 L 304 217 L 304 217 Z M 304 169 L 336 169 L 304 169 L 336 169 Q 358 169 374 182 Q 391 194 397 215 L 436 352 L 436 352 Q 440 368 431 380 Q 422 392 406 393 L 384 393 L 384 393 L 384 497 L 384 497 Q 382 519 360 521 Q 338 519 336 497 L 336 393 L 336 393 L 304 393 L 304 393 L 304 497 L 304 497 Q 302 519 280 521 Q 258 519 256 497 L 256 393 L 256 393 L 234 393 L 234 393 Q 218 392 209 380 Q 200 368 204 352 L 243 215 L 243 215 Q 249 194 266 182 Q 282 169 304 169 L 304 169 Z M 32 41 Q 101 42 159 70 L 159 70 L 159 70 Q 217 99 257 149 Q 236 162 222 183 Q 191 143 147 118 Q 102 93 48 90 L 48 121 L 48 121 Q 48 175 71 220 Q 94 266 133 297 L 152 311 L 152 311 Q 167 326 156 344 L 143 363 L 143 363 Q 118 397 113 441 Q 162 440 200 415 Q 211 422 224 424 L 224 456 L 224 456 Q 175 488 112 489 L 96 489 L 96 489 Q 82 489 73 480 Q 64 471 64 457 Q 65 387 104 335 Q 56 297 28 242 Q 1 187 0 121 L 0 73 L 0 73 Q 0 59 9 50 Q 18 41 32 41 L 32 41 Z M 418 183 Q 404 162 383 149 Q 423 99 481 70 Q 539 42 608 41 Q 622 41 631 50 Q 640 59 640 73 L 640 121 L 640 121 Q 639 187 612 242 Q 584 297 536 335 Q 575 387 576 457 Q 576 471 567 480 Q 558 489 544 489 L 528 489 L 528 489 Q 465 488 416 456 L 416 424 L 416 424 Q 429 422 440 415 Q 478 440 527 441 Q 522 397 498 363 L 484 344 L 484 344 Q 473 326 488 311 L 507 297 L 507 297 Q 546 266 569 220 Q 592 175 592 121 L 592 90 L 592 90 Q 538 93 493 118 Q 449 143 418 183 L 418 183 Z" />
</svg>