<svg xmlns="http://www.w3.org/2000/svg" viewBox="0 0 512 512">
  <path d="M 252 128 L 252 128 Q 268 144 291 144 L 448 144 Q 463 145 464 160 L 464 416 Q 463 431 448 432 L 64 432 Q 49 431 48 416 L 48 96 Q 49 81 64 80 L 198 80 Q 204 80 209 85 L 243 51 L 209 85 L 252 128 L 252 128 Z M 286 94 L 243 51 Q 224 32 197 32 L 64 32 Q 37 33 19 51 Q 1 69 0 96 L 0 416 Q 1 443 19 461 Q 37 479 64 480 L 448 480 Q 475 479 493 461 Q 511 443 512 416 L 512 160 Q 511 133 493 115 Q 475 97 448 96 L 291 96 Q 288 96 286 94 L 286 94 Z M 175 207 Q 161 224 175 241 L 222 288 L 175 335 Q 161 352 175 369 Q 192 383 209 369 L 256 322 L 303 369 Q 320 383 337 369 Q 351 352 337 335 L 290 288 L 337 241 Q 351 224 337 207 Q 320 193 303 207 L 256 254 L 209 207 Q 192 193 175 207 L 175 207 Z" />
</svg>