<svg xmlns="http://www.w3.org/2000/svg" viewBox="0 0 512 512">
  <path d="M 192 24 Q 194 2 216 0 L 296 0 Q 318 2 320 24 L 320 78 Q 336 84 350 94 L 356 99 Q 391 127 392 172 Q 392 191 385 207 Q 392 222 392 240 Q 392 257 385 272 Q 392 287 392 304 Q 392 321 385 336 Q 392 351 392 368 Q 392 385 385 400 Q 392 415 392 432 Q 391 466 369 489 Q 346 511 312 512 L 200 512 Q 166 511 143 489 Q 121 466 120 432 Q 120 415 127 400 Q 120 385 120 368 Q 120 351 127 336 Q 120 321 120 304 Q 120 287 127 272 Q 120 257 120 240 Q 120 222 127 207 Q 120 191 120 172 Q 121 127 156 99 L 162 94 Q 176 84 192 78 L 192 24 L 192 24 Z M 334 208 Q 334 201 337 195 Q 344 185 344 172 Q 344 150 327 137 L 321 132 Q 305 120 285 120 L 227 120 Q 207 120 191 132 L 185 137 Q 168 150 168 172 Q 168 185 174 195 Q 178 201 178 208 L 334 208 L 334 208 Z M 178 336 Q 178 343 174 350 Q 168 358 168 368 Q 168 378 174 386 Q 182 400 174 414 Q 168 422 168 432 Q 168 446 177 455 Q 186 464 200 464 L 312 464 Q 326 464 335 455 Q 344 446 344 432 Q 344 422 338 414 Q 330 400 338 386 Q 344 378 344 368 Q 344 357 338 350 Q 334 343 334 336 L 178 336 L 178 336 Z" />
</svg>