<svg xmlns="http://www.w3.org/2000/svg" viewBox="0 0 576 512">
  <path d="M 557 215 Q 574 230 576 256 Q 574 282 557 297 Q 542 312 522 320 Q 504 328 484 332 Q 464 336 448 336 L 382 336 L 382 336 L 286 486 L 286 486 Q 269 511 239 512 L 198 512 L 198 512 Q 177 511 166 496 Q 154 480 160 460 L 199 336 L 199 336 L 148 336 L 148 336 L 112 384 L 112 384 L 93 370 L 93 370 L 112 384 L 112 384 Q 100 400 80 400 L 38 400 L 38 400 Q 22 400 11 389 Q 0 378 0 362 Q 0 356 2 351 Q 2 351 2 351 Q 2 351 2 351 L 31 256 L 31 256 L 2 161 L 2 161 Q 2 161 2 161 Q 2 161 2 161 Q 0 156 0 150 Q 0 134 11 123 Q 22 112 38 112 L 80 112 L 80 112 Q 100 112 112 128 L 148 176 L 148 176 L 199 176 L 199 176 L 160 52 L 160 52 Q 154 32 166 16 Q 177 1 198 0 L 239 0 L 239 0 Q 269 1 286 26 L 382 176 L 382 176 L 448 176 L 448 176 Q 464 176 484 180 Q 504 185 523 193 Q 542 201 557 215 L 557 215 Z M 503 237 Q 488 230 473 227 L 473 227 L 473 227 Q 458 224 448 224 L 369 224 L 369 224 Q 356 224 348 213 L 245 52 L 245 52 L 265 39 L 265 39 L 245 52 L 245 52 Q 243 48 239 48 L 209 48 L 209 48 L 255 193 L 255 193 Q 259 204 252 214 Q 244 224 232 224 L 136 224 L 136 224 Q 124 224 117 214 L 76 160 L 76 160 L 52 160 L 52 160 L 79 249 L 79 249 Q 81 256 79 263 L 52 352 L 52 352 L 76 352 L 76 352 L 117 298 L 117 298 Q 124 288 136 288 L 232 288 L 232 288 Q 244 288 252 298 Q 259 308 255 319 L 209 464 L 209 464 L 239 464 L 239 464 Q 243 464 245 460 L 348 299 L 348 299 Q 356 288 369 288 L 448 288 L 448 288 Q 472 288 503 276 Q 517 269 524 263 Q 529 257 528 256 Q 528 256 528 256 Q 528 256 528 256 Q 529 256 524 250 Q 517 243 503 237 L 503 237 Z M 48 365 Q 48 365 48 365 L 48 365 L 48 365 Q 48 365 48 365 Q 48 365 48 365 Q 48 365 48 365 Q 48 365 48 365 Q 48 365 48 365 L 48 365 Z M 48 147 Q 48 147 48 147 L 48 147 L 48 147 Q 48 147 48 147 Q 48 147 48 147 Q 48 147 48 147 Q 48 147 48 147 Q 48 147 48 147 L 48 147 Z" />
</svg>