<svg xmlns="http://www.w3.org/2000/svg" viewBox="0 0 654 526">
  <path d="M 46 12 Q 27 0 12 16 Q 0 35 16 50 L 608 514 L 608 514 Q 627 526 642 510 Q 654 491 638 476 L 615 458 L 615 458 Q 615 457 615 455 L 615 71 L 615 71 Q 614 44 596 26 Q 578 8 551 7 Q 524 8 506 26 Q 488 44 487 71 L 487 358 L 487 358 L 463 339 L 463 339 L 463 199 L 463 199 Q 462 172 444 154 Q 426 136 399 135 Q 372 136 354 154 Q 336 172 335 199 L 335 239 L 335 239 L 46 12 L 46 12 Z M 383 276 L 383 199 L 383 276 L 383 199 Q 384 184 399 183 Q 414 184 415 199 L 415 302 L 415 302 L 383 276 L 383 276 Z M 535 396 L 535 71 L 535 396 L 535 71 Q 536 56 551 55 Q 566 56 567 71 L 567 421 L 567 421 L 535 396 L 535 396 Z M 551 519 L 551 519 L 551 519 L 551 519 Q 551 519 551 519 Q 551 519 551 519 L 551 519 L 551 519 Z M 415 425 L 415 455 L 415 425 L 415 455 Q 414 470 399 471 Q 384 470 383 455 L 383 399 L 383 399 L 335 361 L 335 361 L 335 455 L 335 455 Q 336 482 354 500 Q 372 518 399 519 Q 424 518 442 503 Q 459 487 463 462 L 415 425 L 415 425 Z M 219 270 Q 185 287 183 327 L 183 455 L 183 455 Q 184 482 202 500 Q 220 518 247 519 Q 274 518 292 500 Q 310 482 311 455 L 311 343 L 311 343 L 219 270 L 219 270 Z M 263 455 Q 262 470 247 471 Q 232 470 231 455 L 231 327 L 231 327 Q 232 312 247 311 Q 262 312 263 327 L 263 455 L 263 455 Z M 119 455 Q 118 470 103 471 Q 88 470 87 455 Q 88 440 103 439 Q 118 440 119 455 L 119 455 Z M 103 391 Q 67 392 48 423 Q 30 455 48 487 Q 67 518 103 519 Q 139 518 158 487 Q 176 455 158 423 Q 139 392 103 391 L 103 391 Z" />
</svg>