<svg xmlns="http://www.w3.org/2000/svg" viewBox="0 0 512 512">
  <path d="M 150.4 89.6 Q 117.6 90.4 100 119.2 L 47.2 216 Q 38.4 232 38.4 249.6 L 38.4 364.8 Q 39.2 370.4 44.8 371.2 L 70.4 371.2 Q 76 370.4 76.8 364.8 L 76.8 249.6 Q 76.8 241.6 80.8 234.4 L 130.4 144 Q 138.4 132 152 135.2 Q 165.6 139.2 166.4 153.6 L 166.4 281.6 L 128 281.6 L 128 228 L 115.2 252 L 115.2 364.8 Q 114.4 384 102.4 396.8 Q 89.6 408.8 70.4 409.6 L 44.8 409.6 Q 25.6 408.8 12.8 396.8 Q 0.8 384 0 364.8 L 0 249.6 Q 0 221.6 13.6 197.6 L 66.4 100.8 Q 80 77.6 101.6 64.8 Q 124 51.2 150.4 51.2 L 151.2 51.2 L 151.2 51.2 L 151.2 51.2 L 151.2 51.2 L 151.2 51.2 L 151.2 51.2 L 151.2 51.2 L 151.2 51.2 L 151.2 51.2 L 151.2 51.2 L 152 51.2 L 152 51.2 L 152 51.2 L 152 51.2 L 152 51.2 L 152 51.2 L 152 51.2 L 152 51.2 L 152 51.2 L 152 51.2 L 152.8 51.2 L 152.8 51.2 L 152.8 51.2 L 152.8 51.2 L 152.8 51.2 L 152.8 51.2 L 152.8 51.2 L 152.8 51.2 L 152.8 51.2 L 152.8 51.2 L 153.6 51.2 L 153.6 51.2 L 153.6 51.2 L 153.6 51.2 L 153.6 51.2 L 153.6 51.2 L 153.6 51.2 L 153.6 51.2 L 153.6 51.2 L 153.6 51.2 L 154.4 51.2 L 154.4 51.2 L 154.4 51.2 L 154.4 51.2 L 154.4 51.2 L 154.4 51.2 L 154.4 51.2 L 154.4 51.2 L 154.4 51.2 L 154.4 51.2 L 155.2 51.2 L 155.2 51.2 L 155.2 51.2 L 155.2 51.2 L 155.2 51.2 L 155.2 51.2 L 155.2 51.2 L 155.2 51.2 L 155.2 51.2 L 155.2 51.2 L 156 51.2 L 156 51.2 L 156 51.2 L 156 51.2 L 156 51.2 L 156 51.2 L 156 51.2 L 156 51.2 L 156 51.2 L 156 51.2 L 156.8 51.2 L 156.8 51.2 L 156.8 51.2 L 156.8 51.2 L 156.8 51.2 L 156.8 51.2 L 156.8 51.2 L 156.8 51.2 L 156.8 51.2 L 156.8 51.2 L 157.6 51.2 L 157.6 51.2 L 157.6 51.2 L 157.6 51.2 L 157.6 51.2 L 157.6 51.2 L 157.6 51.2 L 157.6 51.2 L 157.6 51.2 L 157.6 51.2 L 158.4 51.2 L 158.4 51.2 L 158.4 51.2 L 158.4 51.2 L 158.4 51.2 L 158.4 51.2 L 158.4 51.2 L 158.4 51.2 L 158.4 51.2 L 158.4 51.2 L 159.2 51.2 L 159.2 51.2 L 159.2 51.2 L 159.2 51.2 L 159.2 51.2 L 159.2 51.2 L 159.2 51.2 L 159.2 51.2 L 159.2 51.2 L 159.2 51.2 L 160 51.2 L 160 51.2 L 160 51.2 L 160 51.2 L 160 51.2 L 160 51.2 L 160 51.2 L 160 51.2 L 160 51.2 L 160 51.2 L 160.8 51.2 L 160.8 51.2 L 160.8 51.2 L 160.8 51.2 L 160.8 51.2 L 160.8 51.2 L 160.8 51.2 L 160.8 51.2 L 160.8 51.2 L 160.8 51.2 L 161.6 51.2 L 161.6 51.2 L 161.6 51.2 L 161.6 51.2 L 161.6 51.2 L 161.6 51.2 L 161.6 51.2 L 161.6 51.2 L 161.6 51.2 L 161.6 51.2 L 162.4 51.2 L 162.4 51.2 L 162.4 51.2 L 162.4 51.2 L 162.4 51.2 L 162.4 51.2 L 162.4 51.2 L 162.4 51.2 L 162.4 51.2 L 162.4 51.2 L 163.2 51.2 L 163.2 51.2 L 163.2 51.2 L 163.2 51.2 L 163.2 51.2 L 163.2 51.2 L 163.2 51.2 L 163.2 51.2 L 163.2 51.2 L 163.2 51.2 L 164 51.2 L 164 51.2 L 164 51.2 L 164 51.2 L 164 51.2 L 164 51.2 L 164 51.2 L 164 51.2 L 164 51.2 L 164 51.2 L 164.8 51.2 L 164.8 51.2 L 164.8 51.2 L 164.8 51.2 L 164.8 51.2 L 164.8 51.2 L 164.8 51.2 L 164.8 51.2 L 164.8 51.2 L 164.8 51.2 L 165.6 51.2 L 165.6 51.2 L 165.6 51.2 L 165.6 51.2 L 165.6 51.2 L 165.6 51.2 L 165.6 51.2 L 165.6 51.2 L 165.6 51.2 L 165.6 51.2 L 166.4 51.2 L 166.4 51.2 L 166.4 51.2 L 166.4 51.2 L 166.4 51.2 L 166.4 51.2 L 166.4 51.2 L 166.4 51.2 L 166.4 51.2 L 166.4 51.2 L 167.2 51.2 L 167.2 51.2 L 167.2 51.2 L 167.2 51.2 L 167.2 51.2 L 167.2 51.2 L 167.2 51.2 L 167.2 51.2 L 167.2 51.2 L 167.2 51.2 L 168 51.2 L 168 51.2 L 168 51.2 L 168 51.2 L 168 51.2 L 168 51.2 L 168 51.2 L 168 51.2 L 168 51.2 L 168 51.2 L 168.8 51.2 L 168.8 51.2 L 168.8 51.2 L 168.8 51.2 L 168.8 51.2 L 168.8 51.2 L 168.8 51.2 L 168.8 51.2 L 168.8 51.2 L 168.8 51.2 L 169.6 51.2 L 169.6 51.2 L 169.6 51.2 L 169.6 51.2 L 169.6 51.2 L 169.6 51.2 L 169.6 51.2 L 169.6 51.2 L 169.6 51.2 L 169.6 51.2 L 170.4 51.2 L 170.4 51.2 L 170.4 51.2 L 170.4 51.2 L 170.4 51.2 L 170.4 51.2 L 170.4 51.2 L 170.4 51.2 L 170.4 51.2 L 170.4 51.2 L 171.2 51.2 L 171.2 51.2 L 171.2 51.2 L 171.2 51.2 L 171.2 51.2 L 171.2 51.2 L 171.2 51.2 L 171.2 51.2 L 171.2 51.2 L 171.2 51.2 L 172 51.2 L 172 51.2 L 172 51.2 L 172 51.2 L 172 51.2 L 172 51.2 L 172 51.2 L 172 51.2 L 172 51.2 L 172 51.2 L 172.8 51.2 L 172.8 51.2 L 172.8 51.2 L 172.8 51.2 L 172.8 51.2 L 172.8 51.2 L 172.8 51.2 L 172.8 51.2 L 172.8 51.2 L 172.8 51.2 L 173.6 51.2 L 173.6 51.2 L 173.6 51.2 L 173.6 51.2 L 173.6 51.2 L 173.6 51.2 L 173.6 51.2 L 173.6 51.2 L 173.6 51.2 L 173.6 51.2 L 174.4 51.2 L 174.4 51.2 L 174.4 51.2 L 174.4 51.2 L 174.4 51.2 L 174.4 51.2 L 174.4 51.2 L 174.4 51.2 L 174.4 51.2 L 174.4 51.2 L 175.2 51.2 L 175.2 51.2 L 175.2 51.2 L 175.2 51.2 L 175.2 51.2 L 175.2 51.2 L 175.2 51.2 L 175.2 51.2 L 175.2 51.2 L 175.2 51.2 L 176 51.2 L 176 51.2 L 176 51.2 L 176 51.2 L 176 51.2 L 176 51.2 L 176 51.2 L 176 51.2 L 176 51.2 L 176 51.2 L 176.8 51.2 L 176.8 51.2 L 176.8 51.2 L 176.8 51.2 L 176.8 51.2 L 176.8 51.2 L 176.8 51.2 L 176.8 51.2 L 176.8 51.2 L 176.8 51.2 L 177.6 51.2 L 177.6 51.2 L 177.6 51.2 L 177.6 51.2 L 177.6 51.2 L 177.6 51.2 L 177.6 51.2 L 177.6 51.2 L 177.6 51.2 L 177.6 51.2 L 178.4 51.2 L 178.4 51.2 L 178.4 51.2 L 178.4 51.2 L 178.4 51.2 L 178.4 51.2 L 178.4 51.2 L 178.4 51.2 L 178.4 51.2 L 178.4 51.2 L 179.2 51.2 L 179.2 51.2 L 179.2 51.2 L 179.2 51.2 L 179.2 51.2 L 179.2 51.2 L 179.2 51.2 L 179.2 51.2 L 179.2 51.2 L 179.2 51.2 L 180 51.2 L 180 51.2 L 180 51.2 L 180 51.2 L 180 51.2 L 180 51.2 L 180 51.2 L 180 51.2 L 180 51.2 L 180 51.2 L 180.8 51.2 L 180.8 51.2 L 180.8 51.2 L 180.8 51.2 L 180.8 51.2 L 180.8 51.2 L 180.8 51.2 L 180.8 51.2 L 180.8 51.2 L 180.8 51.2 L 181.6 51.2 L 181.6 51.2 L 181.6 51.2 L 181.6 51.2 L 181.6 51.2 L 181.6 51.2 L 181.6 51.2 L 181.6 51.2 L 181.6 51.2 L 181.6 51.2 L 182.4 51.2 L 182.4 51.2 L 182.4 51.2 L 182.4 51.2 L 182.4 51.2 L 182.4 51.2 L 182.4 51.2 L 182.4 51.2 L 182.4 51.2 L 182.4 51.2 L 183.2 51.2 L 183.2 51.2 L 183.2 51.2 L 183.2 51.2 L 183.2 51.2 L 183.2 51.2 L 183.2 51.2 L 183.2 51.2 L 183.2 51.2 L 183.2 51.2 L 184 51.2 L 184 51.2 L 184 51.2 L 184 51.2 L 184 51.2 L 184 51.2 L 184 51.2 L 184 51.2 L 184 51.2 L 184 51.2 L 184.8 51.2 L 184.8 51.2 L 184.8 51.2 L 184.8 51.2 L 184.8 51.2 L 184.8 51.2 L 184.8 51.2 L 184.8 51.2 L 184.8 51.2 L 184.8 51.2 L 185.6 51.2 L 185.6 51.2 L 185.6 51.2 L 185.6 51.2 L 185.6 51.2 L 185.6 51.2 L 185.6 51.2 L 185.6 51.2 L 185.6 51.2 L 185.6 51.2 L 186.4 51.2 L 186.4 51.2 L 186.4 51.2 L 186.4 51.2 L 186.4 51.2 L 186.4 51.2 L 186.4 51.2 L 186.4 51.2 L 186.4 51.2 L 186.4 51.2 L 187.2 51.2 L 187.2 51.2 L 187.2 51.2 L 187.2 51.2 L 187.2 51.2 L 187.2 51.2 L 187.2 51.2 L 187.2 51.2 L 187.2 51.2 L 187.2 51.2 L 188 51.2 L 188 51.2 L 188 51.2 L 188 51.2 L 188 51.2 L 188 51.2 L 188 51.2 L 188 51.2 L 188 51.2 L 188 51.2 L 188.8 51.2 L 188.8 51.2 L 188.8 51.2 L 188.8 51.2 L 188.8 51.2 L 188.8 51.2 L 188.8 51.2 L 188.8 51.2 L 188.8 51.2 L 188.8 51.2 L 189.6 51.2 L 189.6 51.2 L 189.6 51.2 L 189.6 51.2 L 189.6 51.2 L 189.6 51.2 L 189.6 51.2 L 189.6 51.2 L 189.6 51.2 L 189.6 51.2 L 190.4 51.2 L 190.4 51.2 L 190.4 51.2 L 190.4 51.2 L 190.4 51.2 L 190.4 51.2 L 190.4 51.2 L 190.4 51.2 L 190.4 51.2 L 190.4 51.2 L 191.2 51.2 L 191.2 51.2 L 191.2 51.2 L 191.2 51.2 L 191.2 51.2 L 191.2 51.2 L 191.2 51.2 L 191.2 51.2 L 191.2 51.2 L 191.2 51.2 L 192 51.2 L 192 51.2 Q 203.2 52 208.8 61.6 L 256 152.8 L 303.2 61.6 Q 308.8 52 320 51.2 L 320 51.2 L 320 51.2 L 320 51.2 L 320 51.2 L 320.8 51.2 L 320.8 51.2 L 320.8 51.2 L 320.8 51.2 L 320.8 51.2 L 320.8 51.2 L 320.8 51.2 L 320.8 51.2 L 320.8 51.2 L 320.8 51.2 L 321.6 51.2 L 321.6 51.2 L 321.6 51.2 L 321.6 51.2 L 321.6 51.2 L 321.6 51.2 L 321.6 51.2 L 321.6 51.2 L 321.6 51.2 L 321.6 51.2 L 322.4 51.2 L 322.4 51.2 L 322.4 51.2 L 322.4 51.2 L 322.4 51.2 L 322.4 51.2 L 322.4 51.2 L 322.4 51.2 L 322.4 51.2 L 322.4 51.2 L 323.2 51.2 L 323.2 51.2 L 323.2 51.2 L 323.2 51.2 L 323.2 51.2 L 323.2 51.2 L 323.2 51.2 L 323.2 51.2 L 323.2 51.2 L 323.2 51.2 L 324 51.2 L 324 51.2 L 324 51.2 L 324 51.2 L 324 51.2 L 324 51.2 L 324 51.2 L 324 51.2 L 324 51.2 L 324 51.2 L 324.8 51.2 L 324.8 51.2 L 324.8 51.2 L 324.8 51.2 L 324.8 51.2 L 324.8 51.2 L 324.8 51.2 L 324.8 51.2 L 324.8 51.2 L 324.8 51.2 L 325.6 51.2 L 325.6 51.2 L 325.6 51.2 L 325.6 51.2 L 325.6 51.2 L 325.6 51.2 L 325.6 51.2 L 325.6 51.2 L 325.6 51.2 L 325.6 51.2 L 326.4 51.2 L 326.4 51.2 L 326.4 51.2 L 326.4 51.2 L 326.4 51.2 L 326.4 51.2 L 326.4 51.2 L 326.4 51.2 L 326.4 51.2 L 326.4 51.2 L 327.2 51.2 L 327.2 51.2 L 327.2 51.2 L 327.2 51.2 L 327.2 51.2 L 327.2 51.2 L 327.2 51.2 L 327.2 51.2 L 327.2 51.2 L 327.2 51.2 L 328 51.2 L 328 51.2 L 328 51.2 L 328 51.2 L 328 51.2 L 328 51.2 L 328 51.2 L 328 51.2 L 328 51.2 L 328 51.2 L 328.8 51.2 L 328.8 51.2 L 328.8 51.2 L 328.8 51.2 L 328.8 51.2 L 328.8 51.2 L 328.8 51.2 L 328.8 51.2 L 328.8 51.2 L 328.8 51.2 L 329.6 51.2 L 329.6 51.2 L 329.6 51.2 L 329.6 51.2 L 329.6 51.2 L 329.6 51.2 L 329.6 51.2 L 329.6 51.2 L 329.6 51.2 L 329.6 51.2 L 330.4 51.2 L 330.4 51.2 L 330.4 51.2 L 330.4 51.2 L 330.4 51.2 L 330.4 51.2 L 330.4 51.2 L 330.4 51.2 L 330.4 51.2 L 330.4 51.2 L 331.2 51.2 L 331.2 51.2 L 331.2 51.2 L 331.2 51.2 L 331.2 51.2 L 331.2 51.2 L 331.2 51.2 L 331.2 51.2 L 331.2 51.2 L 331.2 51.2 L 332 51.2 L 332 51.2 L 332 51.2 L 332 51.2 L 332 51.2 L 332 51.2 L 332 51.2 L 332 51.2 L 332 51.2 L 332 51.2 L 332.8 51.2 L 332.8 51.2 L 332.8 51.2 L 332.8 51.2 L 332.8 51.2 L 332.8 51.2 L 332.8 51.2 L 332.8 51.2 L 332.8 51.2 L 332.8 51.2 L 333.6 51.2 L 333.6 51.2 L 333.6 51.2 L 333.6 51.2 L 333.6 51.2 L 333.6 51.2 L 333.6 51.2 L 333.6 51.2 L 333.6 51.2 L 333.6 51.2 L 334.4 51.2 L 334.4 51.2 L 334.4 51.2 L 334.4 51.2 L 334.4 51.2 L 334.4 51.2 L 334.4 51.2 L 334.4 51.2 L 334.4 51.2 L 334.4 51.2 L 335.2 51.2 L 335.2 51.2 L 335.2 51.2 L 335.2 51.2 L 335.2 51.2 L 335.2 51.2 L 335.2 51.2 L 335.2 51.2 L 335.2 51.2 L 335.2 51.2 L 336 51.2 L 336 51.2 L 336 51.2 L 336 51.2 L 336 51.2 L 336 51.2 L 336 51.2 L 336 51.2 L 336 51.2 L 336 51.2 L 336.8 51.2 L 336.8 51.2 L 336.8 51.2 L 336.8 51.2 L 336.8 51.2 L 336.8 51.2 L 336.8 51.2 L 336.8 51.2 L 336.8 51.2 L 336.8 51.2 L 337.6 51.2 L 337.6 51.2 L 337.6 51.2 L 337.6 51.2 L 337.6 51.2 L 337.6 51.2 L 337.6 51.2 L 337.6 51.2 L 337.6 51.2 L 337.6 51.2 L 338.4 51.2 L 338.4 51.2 L 338.4 51.2 L 338.4 51.2 L 338.4 51.2 L 338.4 51.2 L 338.4 51.2 L 338.4 51.2 L 338.4 51.2 L 338.4 51.2 L 339.2 51.2 L 339.2 51.2 L 339.2 51.2 L 339.2 51.2 L 339.2 51.2 L 339.2 51.2 L 339.2 51.2 L 339.2 51.2 L 339.2 51.2 L 339.2 51.2 L 340 51.2 L 340 51.2 L 340 51.2 L 340 51.2 L 340 51.2 L 340 51.2 L 340 51.2 L 340 51.2 L 340 51.2 L 340 51.2 L 340.8 51.2 L 340.8 51.2 L 340.8 51.2 L 340.8 51.2 L 340.8 51.2 L 340.8 51.2 L 340.8 51.2 L 340.8 51.2 L 340.8 51.2 L 340.8 51.2 L 341.6 51.2 L 341.6 51.2 L 341.6 51.2 L 341.6 51.2 L 341.6 51.2 L 341.6 51.2 L 341.6 51.2 L 341.6 51.2 L 341.6 51.2 L 341.6 51.2 L 342.4 51.2 L 342.4 51.2 L 342.4 51.2 L 342.4 51.2 L 342.4 51.2 L 342.4 51.2 L 342.4 51.2 L 342.4 51.2 L 342.4 51.2 L 342.4 51.2 L 343.2 51.2 L 343.2 51.2 L 343.2 51.2 L 343.2 51.2 L 343.2 51.2 L 343.2 51.2 L 343.2 51.2 L 343.2 51.2 L 343.2 51.2 L 343.2 51.2 L 344 51.2 L 344 51.2 L 344 51.2 L 344 51.2 L 344 51.2 L 344 51.2 L 344 51.2 L 344 51.2 L 344 51.2 L 344 51.2 L 344.8 51.2 L 344.8 51.2 L 344.8 51.2 L 344.8 51.2 L 344.8 51.2 L 344.8 51.2 L 344.8 51.2 L 344.8 51.2 L 344.8 51.2 L 344.8 51.2 L 345.6 51.2 L 345.6 51.2 L 345.6 51.2 L 345.6 51.2 L 345.6 51.2 L 345.6 51.2 L 345.6 51.2 L 345.6 51.2 L 345.6 51.2 L 345.6 51.2 L 346.4 51.2 L 346.4 51.2 L 346.4 51.2 L 346.4 51.2 L 346.4 51.2 L 346.4 51.2 L 346.4 51.2 L 346.4 51.2 L 346.4 51.2 L 346.4 51.2 L 347.2 51.2 L 347.2 51.2 L 347.2 51.2 L 347.2 51.2 L 347.2 51.2 L 347.2 51.2 L 347.2 51.2 L 347.2 51.2 L 347.2 51.2 L 347.2 51.2 L 348 51.2 L 348 51.2 L 348 51.2 L 348 51.2 L 348 51.2 L 348 51.2 L 348 51.2 L 348 51.2 L 348 51.2 L 348 51.2 L 348.8 51.2 L 348.8 51.2 L 348.8 51.2 L 348.8 51.2 L 348.8 51.2 L 348.8 51.2 L 348.8 51.2 L 348.8 51.2 L 348.8 51.2 L 348.8 51.2 L 349.6 51.2 L 349.6 51.2 L 349.6 51.2 L 349.6 51.2 L 349.6 51.2 L 349.6 51.2 L 349.6 51.2 L 349.6 51.2 L 349.6 51.2 L 349.6 51.2 L 350.4 51.2 L 350.4 51.2 L 350.4 51.2 L 350.4 51.2 L 350.4 51.2 L 350.4 51.2 L 350.4 51.2 L 350.4 51.2 L 350.4 51.2 L 350.4 51.2 L 351.2 51.2 L 351.2 51.2 L 351.2 51.2 L 351.2 51.2 L 351.2 51.2 L 351.2 51.2 L 351.2 51.2 L 351.2 51.2 L 351.2 51.2 L 351.2 51.2 L 352 51.2 L 352 51.2 L 352 51.2 L 352 51.2 L 352 51.2 L 352 51.2 L 352 51.2 L 352 51.2 L 352 51.2 L 352 51.2 L 352.8 51.2 L 352.8 51.2 L 352.8 51.2 L 352.8 51.2 L 352.8 51.2 L 352.8 51.2 L 352.8 51.2 L 352.8 51.2 L 352.8 51.2 L 352.8 51.2 L 353.6 51.2 L 353.6 51.2 L 353.6 51.2 L 353.6 51.2 L 353.6 51.2 L 353.6 51.2 L 353.6 51.2 L 353.6 51.2 L 353.6 51.2 L 353.6 51.2 L 354.4 51.2 L 354.4 51.2 L 354.4 51.2 L 354.4 51.2 L 354.4 51.2 L 354.4 51.2 L 354.4 51.2 L 354.4 51.2 L 354.4 51.2 L 354.4 51.2 L 355.2 51.2 L 355.2 51.2 L 355.2 51.2 L 355.2 51.2 L 355.2 51.2 L 355.2 51.2 L 355.2 51.2 L 355.2 51.2 L 355.2 51.2 L 355.2 51.2 L 356 51.2 L 356 51.2 L 356 51.2 L 356 51.2 L 356 51.2 L 356 51.2 L 356 51.2 L 356 51.2 L 356 51.2 L 356 51.2 L 356.8 51.2 L 356.8 51.2 L 356.8 51.2 L 356.8 51.2 L 356.8 51.2 L 356.8 51.2 L 356.8 51.2 L 356.8 51.2 L 356.8 51.2 L 356.8 51.2 L 357.6 51.2 L 357.6 51.2 L 357.6 51.2 L 357.6 51.2 L 357.6 51.2 L 357.6 51.2 L 357.6 51.2 L 357.6 51.2 L 357.6 51.2 L 357.6 51.2 L 358.4 51.2 L 358.4 51.2 L 358.4 51.2 L 358.4 51.2 L 358.4 51.2 L 358.4 51.2 L 358.4 51.2 L 358.4 51.2 L 358.4 51.2 L 358.4 51.2 L 359.2 51.2 L 359.2 51.2 L 359.2 51.2 L 359.2 51.2 L 359.2 51.2 L 359.2 51.2 L 359.2 51.2 L 359.2 51.2 L 359.2 51.2 L 359.2 51.2 L 360 51.2 L 360 51.2 L 360 51.2 L 360 51.2 L 360 51.2 L 360 51.2 L 360 51.2 L 360 51.2 L 360 51.2 L 360 51.2 L 360.8 51.2 L 360.8 51.2 L 360.8 51.2 L 360.8 51.2 L 360.8 51.2 L 360.8 51.2 L 360.8 51.2 L 360.8 51.2 Q 388 51.2 409.6 64.8 Q 432 77.6 444.8 100.8 L 498.4 197.6 Q 511.2 222.4 512 249.6 L 512 364.8 Q 511.2 384 498.4 396.8 Q 485.6 408.8 467.2 409.6 L 441.6 409.6 Q 422.4 408.8 409.6 396.8 Q 397.6 384 396.8 364.8 L 396.8 252 L 384 228 L 384 281.6 L 345.6 281.6 L 345.6 153.6 Q 346.4 139.2 360 135.2 Q 373.6 132 381.6 144.8 L 431.2 234.4 L 414.4 244 L 431.2 234.4 Q 435.2 241.6 435.2 250.4 L 435.2 364.8 Q 436 370.4 441.6 371.2 L 467.2 371.2 Q 472.8 370.4 473.6 364.8 L 473.6 249.6 Q 473.6 232 464.8 216 L 412 119.2 Q 394.4 90.4 361.6 89.6 L 361.6 89.6 L 360.8 89.6 L 360.8 89.6 L 360.8 89.6 L 360.8 89.6 L 360.8 89.6 L 360.8 89.6 L 360.8 89.6 L 360.8 89.6 L 360.8 89.6 L 360.8 89.6 L 360.8 89.6 L 360.8 89.6 L 360 89.6 L 360 89.6 L 360 89.6 L 360 89.6 L 360 89.6 L 360 89.6 L 360 89.6 L 360 89.6 L 360 89.6 L 360 89.6 L 360 89.6 L 360 89.6 L 360 89.6 L 359.2 89.6 L 359.2 89.6 L 359.2 89.6 L 359.2 89.6 L 359.2 89.6 L 359.2 89.6 L 359.2 89.6 L 359.2 89.6 L 359.2 89.6 L 359.2 89.6 L 359.2 89.6 L 359.2 89.6 L 359.2 89.6 L 358.4 89.6 L 358.4 89.6 L 358.4 89.6 L 358.4 89.6 L 358.4 89.6 L 358.4 89.6 L 358.4 89.6 L 358.4 89.6 L 358.4 89.6 L 358.4 89.6 L 358.4 89.6 L 358.4 89.6 L 357.6 89.6 L 357.6 89.6 L 357.6 89.6 L 357.6 89.6 L 357.6 89.6 L 357.6 89.6 L 357.6 89.6 L 357.6 89.6 L 357.6 89.6 L 357.6 89.6 L 357.6 89.6 L 356.8 89.6 L 356.8 89.6 L 356.8 89.6 L 356.8 89.6 L 356.8 89.6 L 356.8 89.6 L 356.8 89.6 L 356.8 89.6 L 356.8 89.6 L 356.8 89.6 L 356.8 89.6 L 356 89.6 L 356 89.6 L 356 89.6 L 356 89.6 L 356 89.6 L 356 89.6 L 356 89.6 L 356 89.6 L 356 89.6 L 356 89.6 L 356 89.6 L 355.2 89.6 L 355.2 89.6 L 355.2 89.6 L 355.2 89.6 L 355.2 89.6 L 355.2 89.6 L 355.2 89.6 L 355.2 89.6 L 355.2 89.6 L 355.2 89.6 L 355.2 89.6 L 354.4 89.6 L 354.4 89.6 L 354.4 89.6 L 354.4 89.6 L 354.4 89.6 L 354.4 89.6 L 354.4 89.6 L 354.4 89.6 L 354.4 89.6 L 354.4 89.6 L 353.6 89.6 L 353.6 89.6 L 353.6 89.6 L 353.6 89.6 L 353.6 89.6 L 353.6 89.6 L 353.6 89.6 L 353.6 89.6 L 353.6 89.6 L 353.6 89.6 L 352.8 89.6 L 352.8 89.6 L 352.8 89.6 L 352.8 89.6 L 352.8 89.6 L 352.8 89.6 L 352.8 89.6 L 352.8 89.6 L 352.8 89.6 L 352 89.6 L 352 89.6 L 352 89.6 L 352 89.6 L 352 89.6 L 352 89.6 L 352 89.6 L 352 89.6 L 352 89.6 L 352 89.6 L 351.2 89.6 L 351.2 89.6 L 351.2 89.6 L 351.2 89.6 L 351.2 89.6 L 351.2 89.6 L 351.2 89.6 L 351.2 89.6 L 351.2 89.6 L 351.2 89.6 L 350.4 89.6 L 350.4 89.6 L 350.4 89.6 L 350.4 89.6 L 350.4 89.6 L 350.4 89.6 L 350.4 89.6 L 350.4 89.6 L 350.4 89.6 L 349.6 89.6 L 349.6 89.6 L 349.6 89.6 L 349.6 89.6 L 349.6 89.6 L 349.6 89.6 L 349.6 89.6 L 349.6 89.6 L 349.6 89.6 L 348.8 89.6 L 348.8 89.6 L 348.8 89.6 L 348.8 89.6 L 348.8 89.6 L 348.8 89.6 L 348.8 89.6 L 348.8 89.6 L 348.8 89.6 L 348 89.6 L 348 89.6 L 348 89.6 L 348 89.6 L 348 89.6 L 348 89.6 L 348 89.6 L 348 89.6 L 348 89.6 L 347.2 89.6 L 347.2 89.6 L 347.2 89.6 L 347.2 89.6 L 347.2 89.6 L 347.2 89.6 L 347.2 89.6 L 347.2 89.6 L 347.2 89.6 L 346.4 89.6 L 346.4 89.6 L 346.4 89.6 L 346.4 89.6 L 346.4 89.6 L 346.4 89.6 L 346.4 89.6 L 346.4 89.6 L 346.4 89.6 L 345.6 89.6 L 345.6 89.6 L 345.6 89.6 L 345.6 89.6 L 345.6 89.6 L 345.6 89.6 L 345.6 89.6 L 345.6 89.6 L 345.6 89.6 L 345.6 89.6 L 344.8 89.6 L 344.8 89.6 L 344.8 89.6 L 344.8 89.6 L 344.8 89.6 L 344.8 89.6 L 344.8 89.6 L 344 89.6 L 344 89.6 L 344 89.6 L 344 89.6 L 344 89.6 L 344 89.6 L 344 89.6 L 344 89.6 L 344 89.6 L 343.2 89.6 L 343.2 89.6 L 343.2 89.6 L 343.2 89.6 L 343.2 89.6 L 343.2 89.6 L 343.2 89.6 L 343.2 89.6 L 343.2 89.6 L 342.4 89.6 L 342.4 89.6 L 342.4 89.6 L 342.4 89.6 L 342.4 89.6 L 342.4 89.6 L 342.4 89.6 L 342.4 89.6 L 341.6 89.6 L 341.6 89.6 L 341.6 89.6 L 341.6 89.6 L 341.6 89.6 L 341.6 89.6 L 341.6 89.6 L 341.6 89.6 L 341.6 89.6 L 340.8 89.6 L 340.8 89.6 L 340.8 89.6 L 340.8 89.6 L 340.8 89.6 L 340.8 89.6 L 340.8 89.6 L 340.8 89.6 L 340 89.6 L 340 89.6 L 340 89.6 L 340 89.6 L 340 89.6 L 340 89.6 L 340 89.6 L 340 89.6 L 340 89.6 L 339.2 89.6 L 339.2 89.6 L 339.2 89.6 L 339.2 89.6 L 339.2 89.6 L 339.2 89.6 L 339.2 89.6 L 339.2 89.6 L 339.2 89.6 L 339.2 89.6 L 338.4 89.6 L 338.4 89.6 L 338.4 89.6 L 338.4 89.6 L 338.4 89.6 L 338.4 89.6 L 338.4 89.6 L 337.6 89.6 L 337.6 89.6 L 337.6 89.6 L 337.6 89.6 L 337.6 89.6 L 337.6 89.6 L 337.6 89.6 L 337.6 89.6 L 337.6 89.6 L 336.8 89.6 L 336.8 89.6 L 336.8 89.6 L 336.8 89.6 L 336.8 89.6 L 336.8 89.6 L 336.8 89.6 L 336.8 89.6 L 336.8 89.6 L 336.8 89.6 L 336 89.6 L 336 89.6 L 336 89.6 L 336 89.6 L 336 89.6 L 336 89.6 L 336 89.6 L 335.2 89.6 L 335.2 89.6 L 335.2 89.6 L 335.2 89.6 L 335.2 89.6 L 335.2 89.6 L 335.2 89.6 L 335.2 89.6 L 335.2 89.6 L 334.4 89.6 L 334.4 89.6 L 334.4 89.6 L 334.4 89.6 L 334.4 89.6 L 334.4 89.6 L 334.4 89.6 L 334.4 89.6 L 334.4 89.6 L 333.6 89.6 L 333.6 89.6 L 333.6 89.6 L 333.6 89.6 L 333.6 89.6 L 333.6 89.6 L 333.6 89.6 L 333.6 89.6 L 333.6 89.6 L 332.8 89.6 L 332.8 89.6 L 332.8 89.6 L 332.8 89.6 L 332.8 89.6 L 332.8 89.6 L 332.8 89.6 L 332.8 89.6 L 332.8 89.6 L 332.8 89.6 L 332 89.6 L 332 89.6 L 332 89.6 L 332 89.6 L 332 89.6 L 332 89.6 L 332 89.6 L 272.8 204 L 232.8 281.6 L 189.6 281.6 L 234.4 195.2 L 180 89.6 L 180 89.6 L 180 89.6 L 180 89.6 L 180 89.6 L 180 89.6 L 180 89.6 L 180 89.6 L 179.2 89.6 L 179.2 89.6 L 179.2 89.6 L 179.2 89.6 L 179.2 89.6 L 179.2 89.6 L 179.2 89.6 L 179.2 89.6 L 179.2 89.6 L 179.2 89.6 L 178.4 89.6 L 178.4 89.6 L 178.4 89.6 L 178.4 89.6 L 178.4 89.6 L 178.4 89.6 L 178.4 89.6 L 178.4 89.6 L 177.6 89.6 L 177.6 89.6 L 177.6 89.6 L 177.6 89.6 L 177.6 89.6 L 177.6 89.6 L 177.6 89.6 L 177.6 89.6 L 177.6 89.6 L 176.8 89.6 L 176.8 89.6 L 176.8 89.6 L 176.8 89.6 L 176.8 89.6 L 176.8 89.6 L 176.8 89.6 L 176.8 89.6 L 176.8 89.6 L 176 89.6 L 176 89.6 L 176 89.6 L 176 89.6 L 176 89.6 L 176 89.6 L 176 89.6 L 176 89.6 L 176 89.6 L 175.2 89.6 L 175.2 89.6 L 175.2 89.6 L 175.2 89.6 L 175.2 89.6 L 175.2 89.6 L 175.2 89.6 L 175.2 89.6 L 175.2 89.6 L 175.2 89.6 L 174.4 89.6 L 174.4 89.6 L 174.4 89.6 L 174.4 89.6 L 174.4 89.6 L 174.4 89.6 L 174.4 89.6 L 173.6 89.6 L 173.6 89.6 L 173.6 89.6 L 173.6 89.6 L 173.6 89.6 L 173.6 89.6 L 173.6 89.6 L 173.6 89.6 L 173.6 89.6 L 172.8 89.6 L 172.8 89.6 L 172.8 89.6 L 172.8 89.6 L 172.8 89.6 L 172.8 89.6 L 172.8 89.6 L 172.8 89.6 L 172.8 89.6 L 172.8 89.6 L 172 89.6 L 172 89.6 L 172 89.6 L 172 89.6 L 172 89.6 L 172 89.6 L 172 89.6 L 171.2 89.6 L 171.2 89.6 L 171.2 89.6 L 171.2 89.6 L 171.2 89.6 L 171.2 89.6 L 171.2 89.6 L 171.2 89.6 L 171.2 89.6 L 170.4 89.6 L 170.4 89.6 L 170.4 89.6 L 170.4 89.6 L 170.4 89.6 L 170.4 89.6 L 170.4 89.6 L 170.4 89.6 L 169.6 89.6 L 169.6 89.6 L 169.6 89.6 L 169.6 89.6 L 169.6 89.6 L 169.6 89.6 L 169.6 89.6 L 169.6 89.6 L 169.6 89.6 L 168.8 89.6 L 168.8 89.6 L 168.8 89.6 L 168.8 89.6 L 168.8 89.6 L 168.8 89.6 L 168.8 89.6 L 168.8 89.6 L 168.8 89.6 L 168.8 89.6 L 168 89.6 L 168 89.6 L 168 89.6 L 168 89.6 L 168 89.6 L 168 89.6 L 168 89.6 L 167.2 89.6 L 167.2 89.6 L 167.2 89.6 L 167.2 89.6 L 167.2 89.6 L 167.2 89.6 L 167.2 89.6 L 167.2 89.6 L 167.2 89.6 L 166.4 89.6 L 166.4 89.6 L 166.4 89.6 L 166.4 89.6 L 166.4 89.6 L 166.4 89.6 L 166.4 89.6 L 166.4 89.6 L 166.4 89.6 L 166.4 89.6 L 165.6 89.6 L 165.6 89.6 L 165.6 89.6 L 165.6 89.6 L 165.6 89.6 L 165.6 89.6 L 165.6 89.6 L 164.8 89.6 L 164.8 89.6 L 164.8 89.6 L 164.8 89.6 L 164.8 89.6 L 164.8 89.6 L 164.8 89.6 L 164.8 89.6 L 164.8 89.6 L 164 89.6 L 164 89.6 L 164 89.6 L 164 89.6 L 164 89.6 L 164 89.6 L 164 89.6 L 164 89.6 L 164 89.6 L 163.2 89.6 L 163.2 89.6 L 163.2 89.6 L 163.2 89.6 L 163.2 89.6 L 163.2 89.6 L 163.2 89.6 L 163.2 89.6 L 163.2 89.6 L 162.4 89.6 L 162.4 89.6 L 162.4 89.6 L 162.4 89.6 L 162.4 89.6 L 162.4 89.6 L 162.4 89.6 L 162.4 89.6 L 162.4 89.6 L 161.6 89.6 L 161.6 89.6 L 161.6 89.6 L 161.6 89.6 L 161.6 89.6 L 161.6 89.6 L 161.6 89.6 L 161.6 89.6 L 161.6 89.6 L 160.8 89.6 L 160.8 89.6 L 160.8 89.6 L 160.8 89.6 L 160.8 89.6 L 160.8 89.6 L 160.8 89.6 L 160.8 89.6 L 160.8 89.6 L 160.8 89.6 L 160 89.6 L 160 89.6 L 160 89.6 L 160 89.6 L 160 89.6 L 160 89.6 L 160 89.6 L 160 89.6 L 160 89.6 L 159.2 89.6 L 159.2 89.6 L 159.2 89.6 L 159.2 89.6 L 159.2 89.6 L 159.2 89.6 L 159.2 89.6 L 159.2 89.6 L 159.2 89.6 L 159.2 89.6 L 158.4 89.6 L 158.4 89.6 L 158.4 89.6 L 158.4 89.6 L 158.4 89.6 L 158.4 89.6 L 158.4 89.6 L 158.4 89.6 L 158.4 89.6 L 157.6 89.6 L 157.6 89.6 L 157.6 89.6 L 157.6 89.6 L 157.6 89.6 L 157.6 89.6 L 157.6 89.6 L 157.6 89.6 L 157.6 89.6 L 157.6 89.6 L 156.8 89.6 L 156.8 89.6 L 156.8 89.6 L 156.8 89.6 L 156.8 89.6 L 156.8 89.6 L 156.8 89.6 L 156.8 89.6 L 156.8 89.6 L 156.8 89.6 L 156.8 89.6 L 156 89.6 L 156 89.6 L 156 89.6 L 156 89.6 L 156 89.6 L 156 89.6 L 156 89.6 L 156 89.6 L 156 89.6 L 156 89.6 L 155.2 89.6 L 155.2 89.6 L 155.2 89.6 L 155.2 89.6 L 155.2 89.6 L 155.2 89.6 L 155.2 89.6 L 155.2 89.6 L 155.2 89.6 L 155.2 89.6 L 155.2 89.6 L 154.4 89.6 L 154.4 89.6 L 154.4 89.6 L 154.4 89.6 L 154.4 89.6 L 154.4 89.6 L 154.4 89.6 L 154.4 89.6 L 154.4 89.6 L 154.4 89.6 L 154.4 89.6 L 153.6 89.6 L 153.6 89.6 L 153.6 89.6 L 153.6 89.6 L 153.6 89.6 L 153.6 89.6 L 153.6 89.6 L 153.6 89.6 L 153.6 89.6 L 153.6 89.6 L 153.6 89.6 L 152.8 89.6 L 152.8 89.6 L 152.8 89.6 L 152.8 89.6 L 152.8 89.6 L 152.8 89.6 L 152.8 89.6 L 152.8 89.6 L 152.8 89.6 L 152.8 89.6 L 152.8 89.6 L 152.8 89.6 L 152 89.6 L 152 89.6 L 152 89.6 L 152 89.6 L 152 89.6 L 152 89.6 L 152 89.6 L 152 89.6 L 152 89.6 L 152 89.6 L 152 89.6 L 152 89.6 L 152 89.6 L 151.2 89.6 L 151.2 89.6 L 151.2 89.6 L 151.2 89.6 L 151.2 89.6 L 151.2 89.6 L 151.2 89.6 L 151.2 89.6 L 151.2 89.6 L 151.2 89.6 L 151.2 89.6 L 151.2 89.6 L 151.2 89.6 L 150.4 89.6 L 150.4 89.6 L 150.4 89.6 L 150.4 89.6 L 150.4 89.6 L 150.4 89.6 Z M 128 358.4 L 166.4 358.4 L 166.4 409.6 Q 167.2 421.6 179.2 422.4 L 332.8 422.4 Q 344.8 421.6 345.6 409.6 L 345.6 358.4 L 384 358.4 L 384 409.6 Q 383.2 431.2 368.8 445.6 Q 354.4 460 332.8 460.8 L 179.2 460.8 Q 157.6 460 143.2 445.6 Q 128.8 431.2 128 409.6 L 128 358.4 L 128 358.4 Z M 140.8 307.2 L 256 307.2 L 371.2 307.2 L 384 307.2 L 384 332.8 L 371.2 332.8 L 280 332.8 L 317.6 389.6 Q 323.2 400 314.4 407.2 Q 304 412.8 296.8 404 L 256 343.2 L 215.2 404 Q 208 412.8 197.6 407.2 Q 188.8 400 194.4 389.6 L 232 332.8 L 140.8 332.8 L 128 332.8 L 128 307.2 L 140.8 307.2 L 140.8 307.2 Z" />
</svg>