<svg xmlns="http://www.w3.org/2000/svg" viewBox="0 0 520 516">
  <path d="M 283 44 L 266 26 L 283 44 L 266 26 Q 263 23 261 20 Q 261 20 261 20 Q 261 20 261 20 Q 261 20 261 19 Q 249 3 231 0 Q 221 0 213 7 Q 179 36 149 80 Q 119 123 116 175 Q 117 237 158 278 Q 198 318 260 320 Q 321 318 362 278 Q 402 237 404 175 Q 402 133 380 95 Q 359 56 331 30 Q 323 23 313 23 Q 302 23 294 31 L 283 44 L 283 44 Z M 320 218 Q 319 243 303 259 L 303 259 L 303 259 Q 286 276 261 277 Q 237 276 220 259 Q 204 243 203 218 Q 205 193 222 171 Q 239 149 253 138 Q 261 132 270 138 Q 283 149 301 171 Q 318 193 320 218 L 320 218 Z M 37 290 Q 15 284 6 304 Q 0 325 19 335 L 192 400 L 192 400 L 20 466 L 20 466 Q 0 475 6 497 Q 15 516 37 511 L 260 426 L 260 426 L 484 511 L 484 511 Q 505 516 515 497 Q 520 475 501 466 L 328 400 L 328 400 L 501 334 L 501 334 Q 520 325 514 303 Q 505 284 483 290 L 260 374 L 260 374 L 37 290 L 37 290 Z" />
</svg>