<svg xmlns="http://www.w3.org/2000/svg" viewBox="0 0 512 512">
  <path d="M 384.80502 127.19497 Q 406.5409 126.38994 418.61636 107.874214 Q 428.27673 88.55346 418.61636 69.232704 Q 406.5409 50.71698 384.80502 49.91195 Q 363.06918 50.71698 350.9937 69.232704 Q 341.33334 88.55346 350.9937 107.874214 Q 363.06918 126.38994 384.80502 127.19497 L 384.80502 127.19497 Z M 373.53458 191.59749 L 396.07547 191.59749 Q 396.8805 191.59749 397.68555 191.59749 L 397.68555 294.6415 L 371.92453 294.6415 L 371.92453 191.59749 Q 372.72955 191.59749 372.72955 191.59749 Q 373.53458 191.59749 373.53458 191.59749 L 373.53458 191.59749 Z M 371.92453 442.7673 L 371.92453 333.28302 L 397.68555 333.28302 L 397.68555 442.7673 Q 399.2956 460.478 417.0063 462.08804 Q 434.71698 460.478 436.32706 442.7673 L 436.32706 230.239 L 470.9434 291.4214 Q 481.4088 305.91196 497.50943 298.66666 Q 512 288.20126 504.75473 272.10062 L 457.25787 189.18239 Q 447.59747 172.27673 431.49686 162.61635 Q 415.39624 152.95598 396.07547 152.95598 L 373.53458 152.95598 Q 354.21384 152.95598 338.11322 162.61635 Q 322.01257 172.27673 312.3522 189.18239 L 264.85535 272.10062 Q 257.61008 288.20126 272.10062 298.66666 Q 288.20126 305.91196 298.66666 291.4214 L 333.28302 230.239 L 333.28302 442.7673 Q 334.8931 460.478 352.60376 462.08804 Q 370.31445 460.478 371.92453 442.7673 L 371.92453 442.7673 Z M 152.15094 64.40252 Q 148.93082 56.3522 140.07547 56.3522 Q 131.22012 56.3522 128 64.40252 L 104.65409 123.974846 L 43.4717 105.45912 Q 34.616352 103.04402 28.981133 109.484276 Q 24.150944 116.72956 28.1761 123.974846 L 60.377357 179.52202 L 7.245283 215.74843 Q 0 221.38365 1.6100628 229.43396 Q 4.0251575 237.48428 12.880503 239.09435 L 75.67296 248.75471 L 71.6478 313.15723 Q 70.842766 322.01257 78.89308 326.03775 Q 86.13837 329.25787 92.57861 323.62265 L 140.07547 280.15094 L 187.57233 323.62265 Q 194.01257 329.25787 201.25786 326.03775 Q 209.30818 322.01257 208.50314 313.15723 L 204.47798 249.55975 L 244.72955 243.11949 L 263.24527 209.30818 L 220.57861 179.52202 L 251.97484 123.974846 Q 256 116.72956 251.16982 109.484276 Q 245.53459 103.04402 236.67924 105.45912 L 175.49686 123.974846 L 152.15094 64.40252 L 152.15094 64.40252 Z" />
</svg>