<svg xmlns="http://www.w3.org/2000/svg" viewBox="0 0 512 512">
  <path d="M 368 105 Q 366 94 358 86 L 284 12 L 284 12 Q 272 0 256 0 Q 240 0 228 12 L 154 86 L 154 86 Q 146 94 145 105 Q 143 120 154 131 L 233 211 L 233 211 Q 242 219 253 220 Q 256 220 260 220 Q 270 219 279 211 L 358 131 L 358 131 Q 369 120 368 105 L 368 105 Z M 220 253 Q 219 242 211 233 L 131 154 L 131 154 Q 120 143 105 145 Q 94 146 86 154 L 12 228 L 12 228 Q 0 240 0 256 Q 0 272 12 284 L 86 358 L 86 358 Q 94 366 105 368 Q 120 369 131 358 L 211 279 L 211 279 Q 219 270 220 260 Q 220 256 220 253 L 220 253 Z M 252 292 Q 242 293 233 301 L 154 381 L 154 381 Q 143 392 145 407 Q 146 418 154 426 L 228 500 L 228 500 Q 240 512 256 512 Q 272 512 284 500 L 359 426 L 359 426 Q 366 418 368 407 Q 369 393 359 381 L 279 301 L 279 301 Q 271 293 260 292 Q 256 292 253 292 L 252 292 Z M 292 260 Q 293 270 301 279 L 381 358 L 381 358 Q 392 369 407 368 Q 418 366 426 358 L 500 284 L 500 284 Q 512 272 512 256 Q 512 240 500 228 L 426 153 L 426 153 Q 418 146 407 144 Q 393 143 381 153 L 301 233 L 301 233 Q 293 241 292 252 Q 292 256 292 259 L 292 260 Z M 256 51 L 313 108 L 256 51 L 313 108 L 256 166 L 256 166 L 199 108 L 199 108 L 256 51 L 256 51 Z M 51 256 L 108 199 L 51 256 L 108 199 L 166 256 L 166 256 L 108 313 L 108 313 L 51 256 L 51 256 Z M 256 461 L 199 404 L 256 461 L 199 404 L 256 347 L 256 347 L 313 404 L 313 404 L 256 461 L 256 461 Z M 461 256 L 404 313 L 461 256 L 404 313 L 347 256 L 347 256 L 404 199 L 404 199 L 461 256 L 461 256 Z" />
</svg>