<svg xmlns="http://www.w3.org/2000/svg" viewBox="0 0 640 512">
  <path d="M 48 112 Q 49 85 67 67 L 67 67 L 67 67 Q 85 49 112 48 L 336 48 L 336 48 Q 363 49 381 67 Q 399 85 400 112 L 400 151 L 400 151 Q 406 146 413 140 Q 428 127 448 128 L 448 112 L 448 112 Q 447 64 415 33 Q 384 1 336 0 L 112 0 L 112 0 Q 64 1 33 33 Q 1 64 0 112 L 0 336 L 0 336 Q 1 384 33 415 Q 64 447 112 448 L 314 448 L 314 448 Q 301 426 295 400 L 112 400 L 112 400 Q 85 399 67 381 Q 49 363 48 336 Q 49 309 67 291 Q 85 273 112 272 L 309 272 L 309 272 Q 316 257 325 243 Q 331 233 338 224 L 112 224 L 112 224 Q 76 225 48 244 L 48 112 L 48 112 Z M 288 350 Q 288 331 294 312 L 120 312 L 120 312 Q 98 314 96 336 Q 98 358 120 360 L 288 360 L 288 360 Q 288 355 288 350 L 288 350 Z M 506 208 L 487 188 L 506 208 L 487 188 Q 485 187 484 185 Q 482 183 481 182 Q 481 182 481 182 Q 481 182 481 182 Q 481 181 480 181 Q 468 163 448 160 Q 437 160 428 168 Q 390 200 357 248 Q 323 295 320 352 Q 322 420 366 465 Q 411 510 480 512 Q 548 510 593 465 Q 638 420 640 352 Q 638 306 614 264 Q 590 222 559 194 Q 550 186 539 186 Q 527 186 518 195 L 506 208 L 506 208 Z M 544 400 Q 543 427 525 445 L 525 445 L 525 445 Q 507 464 480 464 Q 453 464 435 445 Q 417 427 416 400 Q 418 372 437 348 Q 456 324 471 312 Q 480 305 489 312 Q 504 324 523 348 Q 542 372 544 400 L 544 400 Z" />
</svg>