<svg xmlns="http://www.w3.org/2000/svg" viewBox="0 0 512 512">
  <path d="M 179.2 217.2 Q 215.2 216.4 234.4 185.2 Q 252 153.2 234.4 121.2 Q 215.2 90 179.2 89.2 Q 143.2 90 124 121.2 Q 106.4 153.2 124 185.2 Q 143.2 216.4 179.2 217.2 L 179.2 217.2 Z M 179.2 50.8 Q 207.2 50.8 230.4 64.4 L 230.4 64.4 Q 253.6 78 268 102 Q 281.6 126 281.6 153.2 Q 281.6 180.4 268 204.4 Q 253.6 228.4 230.4 242 Q 207.2 255.6 179.2 255.6 Q 151.2 255.6 128 242 Q 104.8 228.4 90.4 204.4 Q 76.8 180.4 76.8 153.2 Q 76.8 126 90.4 102 Q 104.8 78 128 64.4 Q 151.2 50.8 179.2 50.8 L 179.2 50.8 Z M 39.2 422 L 261.6 422 L 256.8 438 Q 254.4 450 258.4 460.4 L 24 460.4 Q 13.6 460.4 7.2 453.2 Q 0 446.8 0 436.4 Q 1.6 376.4 41.6 335.6 Q 82.4 295.6 142.4 294 L 179.2 294 L 216 294 Q 275.2 295.6 315.2 334 L 288 361.2 Q 258.4 333.2 216 332.4 L 142.4 332.4 Q 102.4 333.2 74.4 358 Q 45.6 382.8 39.2 422 L 39.2 422 Z M 491.2 239.6 L 502.4 250.8 Q 512 260.4 512 273.2 Q 512 286 502.4 296.4 L 479.2 319.6 L 422.4 262.8 L 445.6 239.6 Q 456 230 468 230 Q 480.8 230 491.2 239.6 L 491.2 239.6 Z M 300.8 384.4 L 404 281.2 L 460.8 338 L 357.6 441.2 Q 352.8 446 345.6 447.6 L 297.6 459.6 Q 290.4 461.2 285.6 456.4 Q 280.8 451.6 281.6 444.4 L 293.6 396.4 Q 296 389.2 300.8 384.4 L 300.8 384.4 Z" />
</svg>