<svg xmlns="http://www.w3.org/2000/svg" viewBox="0 0 512 512">
  <path d="M 252 128 L 252 128 Q 268 144 291 144 L 448 144 Q 463 145 464 160 L 464 416 Q 463 431 448 432 L 64 432 Q 49 431 48 416 L 48 96 Q 49 81 64 80 L 198 80 Q 204 80 209 85 L 243 51 L 209 85 L 252 128 L 252 128 Z M 286 94 L 243 51 Q 224 32 197 32 L 64 32 Q 37 33 19 51 Q 1 69 0 96 L 0 416 Q 1 443 19 461 Q 37 479 64 480 L 448 480 Q 475 479 493 461 Q 511 443 512 416 L 512 160 Q 511 133 493 115 Q 475 97 448 96 L 291 96 Q 288 96 286 94 L 286 94 Z M 104 240 Q 82 242 80 264 L 80 312 Q 82 334 104 336 L 152 336 Q 174 334 176 312 L 176 264 Q 174 242 152 240 L 104 240 L 104 240 Z M 232 240 Q 210 242 208 264 L 208 312 Q 210 334 232 336 L 280 336 Q 302 334 304 312 L 304 264 Q 302 242 280 240 L 232 240 L 232 240 Z M 360 240 Q 338 242 336 264 L 336 312 Q 338 334 360 336 L 408 336 Q 430 334 432 312 L 432 264 Q 430 242 408 240 L 360 240 L 360 240 Z" />
</svg>