<svg xmlns="http://www.w3.org/2000/svg" viewBox="0 0 512 512">
  <path d="M 252 128 L 252 128 Q 268 144 291 144 L 448 144 Q 463 145 464 160 L 464 416 Q 463 431 448 432 L 64 432 Q 49 431 48 416 L 48 96 Q 49 81 64 80 L 198 80 Q 204 80 209 85 L 243 51 L 209 85 L 252 128 L 252 128 Z M 286 94 L 243 51 Q 224 32 197 32 L 64 32 Q 37 33 19 51 Q 1 69 0 96 L 0 416 Q 1 443 19 461 Q 37 479 64 480 L 448 480 Q 475 479 493 461 Q 511 443 512 416 L 512 160 Q 511 133 493 115 Q 475 97 448 96 L 291 96 Q 288 96 286 94 L 286 94 Z M 352 192 Q 352 184 345 179 Q 338 174 330 177 L 202 225 Q 193 229 192 240 L 192 272 L 192 354 Q 184 352 176 352 Q 156 352 142 361 Q 129 370 128 384 Q 129 398 142 407 Q 156 416 176 416 Q 196 416 210 407 Q 223 398 224 384 L 224 283 L 320 247 L 320 322 Q 312 320 304 320 Q 284 320 270 329 Q 257 338 256 352 Q 257 366 270 375 Q 284 384 304 384 Q 324 384 338 375 Q 351 366 352 352 L 352 224 L 352 192 L 352 192 Z" />
</svg>