<svg xmlns="http://www.w3.org/2000/svg" viewBox="0 0 512 448">
  <path d="M 160 334 L 50 224 L 160 334 L 50 224 L 160 114 L 160 114 L 160 168 L 160 168 Q 162 190 184 192 L 304 192 L 304 192 L 304 256 L 304 256 L 184 256 L 184 256 Q 162 258 160 280 L 160 334 L 160 334 Z M 0 224 Q 0 242 13 255 L 129 370 L 129 370 Q 143 384 162 384 Q 181 384 194 370 Q 208 357 208 338 L 208 304 L 208 304 L 304 304 L 304 304 Q 324 303 338 290 Q 351 276 352 256 L 352 192 L 352 192 Q 351 172 338 158 Q 324 145 304 144 L 208 144 L 208 144 L 208 110 L 208 110 Q 208 91 194 78 Q 181 64 162 64 Q 143 64 129 78 L 13 193 L 13 193 Q 0 206 0 224 L 0 224 Z M 344 400 Q 322 402 320 424 Q 322 446 344 448 L 424 448 L 424 448 Q 461 447 486 422 Q 511 397 512 360 L 512 88 L 512 88 Q 511 51 486 26 Q 461 1 424 0 L 344 0 L 344 0 Q 322 2 320 24 Q 322 46 344 48 L 424 48 L 424 48 Q 441 48 452 60 Q 464 71 464 88 L 464 360 L 464 360 Q 464 377 452 388 Q 441 400 424 400 L 344 400 L 344 400 Z" />
</svg>