<svg xmlns="http://www.w3.org/2000/svg" viewBox="0 0 654 526">
  <path d="M 46 12 Q 27 0 12 16 Q 0 35 16 50 L 608 514 L 608 514 Q 627 526 642 510 Q 654 491 638 476 L 608 453 L 608 453 Q 615 439 615 423 L 615 103 L 615 103 Q 614 76 596 58 Q 578 40 551 39 L 103 39 L 103 39 Q 93 39 84 42 L 46 12 L 46 12 Z M 141 87 L 551 87 L 141 87 L 551 87 Q 566 88 567 103 L 567 421 L 567 421 L 515 380 L 515 380 Q 519 374 519 367 Q 517 345 495 343 L 468 343 L 468 343 L 401 290 L 401 290 Q 407 295 415 295 L 495 295 L 495 295 Q 517 293 519 271 Q 517 249 495 247 L 415 247 L 415 247 Q 393 249 391 271 Q 391 282 400 289 L 141 87 L 141 87 Z M 494 487 L 434 439 L 494 487 L 434 439 L 103 439 L 103 439 Q 88 438 87 423 L 87 166 L 87 166 L 39 128 L 39 128 L 39 423 L 39 423 Q 40 450 58 468 Q 76 486 103 487 L 494 487 L 494 487 Z M 373 391 L 313 344 L 373 391 L 313 344 Q 296 349 295 367 Q 297 389 319 391 L 373 391 L 373 391 Z M 251 295 L 190 247 L 251 295 L 190 247 L 159 247 L 159 247 Q 137 249 135 271 Q 137 293 159 295 L 251 295 L 251 295 Z M 159 343 Q 137 345 135 367 Q 137 389 159 391 L 239 391 L 239 391 Q 261 389 263 367 Q 261 345 239 343 L 159 343 L 159 343 Z" />
</svg>