<svg xmlns="http://www.w3.org/2000/svg" viewBox="0 0 448 512">
  <path d="M 224 0 Q 210 1 203 13 Q 197 25 204 37 L 215 54 L 215 54 Q 216 55 216 57 Q 215 63 209 64 L 152 64 L 152 64 Q 121 65 101 85 Q 81 105 80 136 L 80 137 L 80 137 Q 45 142 23 167 Q 1 192 0 228 Q 1 267 27 293 Q 53 319 92 320 L 356 320 L 356 320 Q 395 319 421 293 Q 447 267 448 228 Q 447 192 425 167 Q 402 142 368 137 Q 368 134 368 131 Q 367 75 330 38 Q 293 1 237 0 L 224 0 L 224 0 Z M 264 57 Q 264 55 264 53 L 264 53 L 264 53 Q 264 52 264 52 Q 289 61 304 82 Q 320 103 320 131 Q 320 140 315 147 Q 308 159 314 171 Q 321 183 335 184 L 356 184 L 356 184 Q 375 184 387 197 Q 400 209 400 228 Q 400 247 387 259 Q 375 271 356 272 L 92 272 L 92 272 Q 73 272 61 259 Q 48 247 48 228 Q 48 209 61 197 Q 73 184 92 184 L 110 184 L 110 184 Q 124 184 131 172 Q 138 160 131 148 Q 128 143 128 136 Q 130 114 152 112 L 209 112 L 209 112 Q 233 111 248 96 Q 263 81 264 57 L 264 57 Z M 89 472 Q 93 490 106 501 L 106 501 L 106 501 Q 119 512 137 512 L 148 512 L 148 512 L 128 352 L 128 352 L 69 352 L 69 352 L 89 472 L 89 472 Z M 180 512 L 268 512 L 180 512 L 268 512 L 288 352 L 288 352 L 160 352 L 160 352 L 180 512 L 180 512 Z M 300 512 L 311 512 L 300 512 L 311 512 Q 329 512 342 501 Q 355 490 359 472 L 379 352 L 379 352 L 320 352 L 320 352 L 300 512 L 300 512 Z" />
</svg>