<svg xmlns="http://www.w3.org/2000/svg" viewBox="0 0 640 512">
  <path d="M 188 48 Q 147 49 125 85 L 59 206 L 59 206 Q 48 226 48 248 L 48 392 L 48 392 Q 49 399 56 400 L 88 400 L 88 400 Q 95 399 96 392 L 96 248 L 96 248 Q 97 228 106 209 Q 114 191 125 174 Q 133 162 140 151 Q 153 134 163 116 Q 172 101 190 105 Q 207 110 208 128 L 208 288 L 208 288 L 160 288 L 160 288 L 160 209 L 160 209 Q 159 211 158 212 Q 146 229 144 248 L 144 392 L 144 392 Q 143 416 128 432 Q 112 447 88 448 L 56 448 L 56 448 Q 32 447 16 432 Q 1 416 0 392 L 0 248 L 0 248 Q 0 213 17 183 L 83 62 L 83 62 Q 100 33 127 17 Q 155 0 188 0 L 240 0 L 240 0 Q 254 1 261 13 L 320 127 L 320 127 L 379 13 L 379 13 Q 386 1 400 0 L 452 0 L 452 0 Q 485 0 513 17 Q 540 33 557 62 L 623 183 L 623 183 Q 640 214 640 248 L 640 392 L 640 392 Q 639 416 623 432 Q 608 447 584 448 L 552 448 L 552 448 Q 528 447 512 432 Q 497 416 496 392 L 496 248 L 496 248 Q 494 229 482 212 Q 481 211 480 209 L 480 288 L 480 288 L 432 288 L 432 288 L 432 128 L 432 128 Q 433 110 450 105 Q 467 101 477 117 Q 487 134 499 151 Q 507 162 515 174 Q 526 191 534 210 Q 543 228 544 249 L 544 392 L 544 392 Q 545 399 552 400 L 584 400 L 584 400 Q 591 399 592 392 L 592 248 L 592 248 Q 592 226 581 206 L 515 85 L 515 85 Q 493 49 452 48 L 415 48 L 415 48 L 291 288 L 291 288 L 237 288 L 237 288 L 293 180 L 293 180 L 225 48 L 225 48 L 188 48 L 188 48 Z M 160 384 L 208 384 L 160 384 L 208 384 L 208 448 L 208 448 Q 209 463 224 464 L 416 464 L 416 464 Q 431 463 432 448 L 432 384 L 432 384 L 480 384 L 480 384 L 480 448 L 480 448 Q 479 475 461 493 Q 443 511 416 512 L 224 512 L 224 512 Q 197 511 179 493 Q 161 475 160 448 L 160 384 L 160 384 Z M 160 320 L 160 352 L 160 320 L 160 352 L 290 352 L 290 352 L 243 423 L 243 423 Q 236 436 247 445 Q 260 452 269 441 L 320 365 L 320 365 L 371 441 L 371 441 Q 380 452 393 445 Q 404 436 397 423 L 350 352 L 350 352 L 480 352 L 480 352 L 480 320 L 480 320 L 160 320 L 160 320 Z" />
</svg>