<svg xmlns="http://www.w3.org/2000/svg" viewBox="0 0 560 514">
  <path d="M 294 225 Q 304 202 304 176 Q 303 122 267 85 Q 230 49 176 48 Q 122 49 85 85 Q 49 122 48 176 Q 49 217 71 249 Q 76 257 84 267 Q 84 267 84 267 Q 84 267 84 267 Q 105 294 123 326 Q 138 355 142 384 L 93 384 L 93 384 Q 90 366 81 350 Q 66 323 47 298 Q 47 298 47 298 Q 47 298 47 298 Q 47 298 47 298 Q 47 298 47 298 Q 47 298 47 298 Q 39 287 31 276 Q 1 233 0 176 Q 2 101 52 52 Q 101 2 176 0 Q 251 2 300 52 Q 350 101 352 176 Q 352 201 345 224 L 304 224 L 304 224 Q 299 224 294 225 L 294 225 Z M 176 416 L 240 416 L 176 416 L 240 416 Q 240 438 253 454 Q 245 480 224 496 Q 204 512 176 512 Q 142 511 119 489 Q 97 466 96 432 L 96 416 L 96 416 L 176 416 L 176 416 Z M 128 176 Q 127 191 112 192 Q 97 191 96 176 Q 97 142 119 119 Q 142 97 176 96 Q 191 97 192 112 Q 191 127 176 128 Q 156 129 142 142 Q 129 156 128 176 L 128 176 Z M 528 254 Q 542 254 551 263 L 551 263 L 551 263 Q 560 272 560 286 L 560 416 L 560 416 Q 560 430 551 439 Q 542 448 528 448 L 464 448 L 464 448 L 464 496 L 464 496 Q 464 506 454 511 Q 444 514 437 507 L 377 448 L 377 448 L 304 448 L 304 448 Q 290 448 281 439 Q 272 430 272 416 L 272 286 L 272 286 Q 272 272 281 263 Q 290 254 304 254 L 528 254 L 528 254 Z" />
</svg>