<svg xmlns="http://www.w3.org/2000/svg" viewBox="0 0 512 512">
  <path d="M 269.88474 41.654236 Q 256 31.240679 242.11525 41.654236 L 13.016949 236.04068 Q 0 249.05763 11.281356 265.54578 Q 24.298306 278.5627 39.918644 267.28134 L 61.61356 249.92543 L 61.61356 411.3356 Q 62.481358 440.84067 81.57288 460.8 Q 101.5322 479.89154 131.0373 480.7593 L 380.9627 480.7593 Q 410.4678 479.89154 430.42712 460.8 Q 449.51865 440.84067 450.38644 411.3356 L 450.38644 249.92543 L 472.08136 267.28134 Q 487.7017 278.5627 500.71866 265.54578 Q 512 249.05763 498.98306 236.04068 L 450.38644 195.25424 L 450.38644 85.04407 Q 448.65085 65.952545 429.55933 64.21695 Q 410.4678 65.952545 408.7322 85.04407 L 408.7322 159.67458 L 269.88474 41.654236 L 269.88474 41.654236 Z M 103.2678 411.3356 L 103.2678 214.34576 L 256 85.04407 L 408.7322 214.34576 L 408.7322 411.3356 Q 408.7322 423.48474 400.92203 431.29492 Q 393.11188 439.10507 380.9627 439.10507 L 131.0373 439.10507 Q 118.88814 439.10507 111.077965 431.29492 Q 103.2678 423.48474 103.2678 411.3356 L 103.2678 411.3356 Z M 256 286.3729 Q 287.2407 285.5051 303.72882 258.6034 Q 319.34915 230.8339 303.72882 203.0644 Q 287.2407 176.1627 256 175.29492 Q 224.75932 176.1627 208.27118 203.0644 Q 192.65085 230.8339 208.27118 258.6034 Q 224.75932 285.5051 256 286.3729 L 256 286.3729 Z M 158.80678 383.5661 Q 159.67458 396.58304 172.69153 397.45084 L 339.30847 397.45084 Q 352.3254 396.58304 353.1932 383.5661 Q 352.3254 354.061 333.2339 334.10168 Q 313.27457 315.01016 283.7695 314.14236 L 228.23051 314.14236 Q 198.72542 315.01016 178.7661 334.10168 Q 159.67458 354.061 158.80678 383.5661 L 158.80678 383.5661 Z" />
</svg>