<svg xmlns="http://www.w3.org/2000/svg" viewBox="0 0 650 517">
  <path d="M 39 7 L 151 55 L 39 7 L 151 55 Q 170 65 163 86 Q 153 106 132 99 L 20 51 L 20 51 Q 0 41 7 20 Q 17 0 39 7 L 39 7 Z M 151 211 L 39 259 L 151 211 L 39 259 Q 18 266 7 246 Q 0 225 20 215 L 132 167 L 132 167 Q 153 160 163 180 Q 170 201 151 211 L 151 211 Z M 314 8 Q 325 2 336 8 L 440 64 L 440 64 Q 459 76 450 96 Q 440 113 421 108 L 421 133 L 421 133 L 373 133 L 373 133 L 373 82 L 373 82 L 325 56 L 325 56 L 277 82 L 277 82 L 277 133 L 277 133 L 229 133 L 229 133 L 229 108 L 229 108 Q 210 113 200 96 Q 191 76 210 64 L 314 8 L 314 8 Z M 268 213 L 217 469 L 268 213 L 217 469 L 293 469 L 293 469 L 293 421 L 293 421 Q 293 407 302 398 Q 311 389 325 389 Q 339 389 348 398 Q 357 407 357 421 L 357 469 L 357 469 L 433 469 L 433 469 L 382 213 L 382 213 L 268 213 L 268 213 Z M 357 517 L 293 517 L 357 517 L 157 517 Q 135 515 133 493 Q 135 471 157 469 L 168 469 L 168 469 L 219 213 L 219 213 Q 199 210 197 189 Q 199 167 221 165 L 229 165 L 429 165 Q 451 167 453 189 Q 451 210 431 213 L 482 469 L 482 469 L 493 469 L 493 469 Q 515 471 517 493 Q 515 515 493 517 L 456 517 L 357 517 Z M 643 20 Q 650 41 631 51 L 519 99 L 519 99 Q 498 106 487 87 Q 480 66 500 55 L 612 7 L 612 7 Q 633 0 643 20 L 643 20 Z M 487 180 Q 498 160 519 167 L 631 215 L 631 215 Q 650 226 643 247 Q 633 266 612 259 L 500 211 L 500 211 Q 480 201 487 180 L 487 180 Z" />
</svg>