<svg xmlns="http://www.w3.org/2000/svg" viewBox="0 0 640 384">
  <path d="M 168 48 Q 161 49 160 56 L 160 135 L 160 135 Q 160 152 148 164 Q 136 176 119 176 Q 96 174 86 160 Q 78 151 72 152 Q 66 151 57 161 Q 49 172 48 192 Q 49 212 57 223 Q 66 233 72 232 Q 78 233 86 224 Q 96 210 119 208 Q 136 208 148 220 Q 160 232 160 249 L 160 328 L 160 328 Q 161 335 168 336 L 245 336 L 245 336 Q 240 325 240 312 Q 241 279 265 260 Q 288 240 320 240 Q 352 240 375 260 Q 399 279 400 312 Q 400 325 396 336 L 472 336 L 472 336 Q 479 335 480 328 L 480 249 L 480 249 Q 480 232 492 220 Q 504 208 521 208 Q 544 210 554 224 Q 562 233 568 232 Q 574 233 583 223 Q 591 212 592 192 Q 591 172 583 161 Q 574 151 568 152 Q 562 151 554 160 Q 544 174 521 176 Q 504 176 492 164 Q 480 152 480 135 L 480 56 L 480 56 Q 479 49 472 48 L 396 48 L 396 48 Q 400 59 400 72 Q 399 105 375 124 Q 352 144 320 144 Q 288 144 265 124 Q 241 105 240 72 Q 240 59 245 48 L 168 48 L 168 48 Z M 112 56 Q 113 32 128 16 L 128 16 L 128 16 Q 144 1 168 0 L 270 0 L 270 0 Q 284 0 294 10 Q 304 20 304 34 Q 303 49 294 58 Q 288 65 288 72 Q 288 80 296 88 Q 304 95 320 96 Q 336 95 344 88 Q 352 80 352 72 Q 352 65 346 58 Q 337 49 336 34 Q 336 20 346 10 Q 356 0 370 0 L 472 0 L 472 0 Q 496 1 512 16 Q 527 32 528 56 L 528 119 L 528 119 Q 545 105 568 104 Q 602 106 621 132 Q 640 157 640 192 Q 640 226 621 252 Q 602 278 568 280 Q 545 279 528 265 L 528 328 L 528 328 Q 527 352 512 368 Q 496 383 472 384 L 370 384 L 370 384 Q 356 384 346 374 Q 336 364 336 350 Q 337 335 346 326 Q 352 319 352 312 Q 352 304 344 296 Q 336 289 320 288 Q 304 289 296 296 Q 288 304 288 312 Q 288 319 294 326 Q 303 335 304 350 Q 304 364 294 374 Q 284 384 270 384 L 168 384 L 168 384 Q 144 383 128 368 Q 113 352 112 328 L 112 265 L 112 265 Q 95 279 72 280 Q 38 278 19 252 Q 0 227 0 192 Q 0 158 19 132 Q 38 106 72 104 Q 95 105 112 119 L 112 56 L 112 56 Z" />
</svg>