<svg xmlns="http://www.w3.org/2000/svg" viewBox="0 0 640 448">
  <path d="M 160 48 Q 145 49 144 64 L 144 102 L 144 102 Q 182 128 184 176 Q 182 224 144 250 L 144 288 L 144 288 Q 145 303 160 304 L 576 304 L 576 304 Q 591 303 592 288 L 592 250 L 592 250 Q 554 224 552 176 Q 554 128 592 102 L 592 64 L 592 64 Q 591 49 576 48 L 160 48 L 160 48 Z M 160 0 L 576 0 L 160 0 L 576 0 Q 603 1 621 19 Q 639 37 640 64 L 640 120 L 640 120 Q 638 134 624 139 Q 601 150 600 176 Q 601 202 624 213 Q 638 218 640 232 L 640 288 L 640 288 Q 639 315 621 333 Q 603 351 576 352 L 160 352 L 160 352 Q 133 351 115 333 Q 97 315 96 288 L 96 232 L 96 232 Q 98 218 112 213 Q 135 202 136 176 Q 135 150 112 139 Q 98 134 96 120 L 96 64 L 96 64 Q 97 37 115 19 Q 133 1 160 0 L 160 0 Z M 24 64 Q 46 66 48 88 L 48 328 L 48 328 Q 49 359 69 379 Q 89 399 120 400 L 520 400 L 520 400 Q 542 402 544 424 Q 542 446 520 448 L 120 448 L 120 448 Q 69 447 35 413 Q 1 379 0 328 L 0 88 L 0 88 Q 2 66 24 64 L 24 64 Z M 464 208 L 464 144 L 464 208 L 464 144 L 272 144 L 272 144 L 272 208 L 272 208 L 464 208 L 464 208 Z M 224 128 Q 224 114 233 105 L 233 105 L 233 105 Q 242 96 256 96 L 480 96 L 480 96 Q 494 96 503 105 Q 512 114 512 128 L 512 224 L 512 224 Q 512 238 503 247 Q 494 256 480 256 L 256 256 L 256 256 Q 242 256 233 247 Q 224 238 224 224 L 224 128 L 224 128 Z" />
</svg>