<svg xmlns="http://www.w3.org/2000/svg" viewBox="0 0 512 512">
  <path d="M 252 128 L 252 128 Q 268 144 291 144 L 448 144 Q 463 145 464 160 L 464 416 Q 463 431 448 432 L 64 432 Q 49 431 48 416 L 48 96 Q 49 81 64 80 L 198 80 Q 204 80 209 85 L 243 51 L 209 85 L 252 128 L 252 128 Z M 286 94 L 243 51 Q 224 32 197 32 L 64 32 Q 37 33 19 51 Q 1 69 0 96 L 0 416 Q 1 443 19 461 Q 37 479 64 480 L 448 480 Q 475 479 493 461 Q 511 443 512 416 L 512 160 Q 511 133 493 115 Q 475 97 448 96 L 291 96 Q 288 96 286 94 L 286 94 Z M 224 256 L 176 256 Q 161 257 160 272 L 160 304 Q 161 319 176 320 L 224 320 L 224 368 Q 225 383 240 384 L 272 384 Q 287 383 288 368 L 288 320 L 336 320 Q 351 319 352 304 L 352 272 Q 351 257 336 256 L 288 256 L 288 208 Q 287 193 272 192 L 240 192 Q 225 193 224 208 L 224 256 L 224 256 Z" />
</svg>