<svg xmlns="http://www.w3.org/2000/svg" viewBox="0 0 512 512">
  <path d="M 204.8 89.6 Q 246.4 89.6 280.8 108 L 280.8 108 Q 316 126.4 338.4 157.6 Q 360.8 148 380 163.2 Q 386.4 169.6 393.6 176 Q 368.8 120 319.2 85.6 Q 268.8 52 204.8 51.2 Q 147.2 52 101.6 79.2 Q 55.2 106.4 28 152.8 Q 0.8 198.4 0 256 Q 0.8 313.6 28 359.2 Q 55.2 405.6 101.6 432.8 Q 147.2 460 204.8 460.8 Q 245.6 460.8 280.8 446.4 Q 265.6 432 254.4 415.2 Q 231.2 422.4 204.8 422.4 Q 134.4 420.8 87.2 373.6 Q 40 326.4 38.4 256 Q 40 185.6 87.2 138.4 Q 134.4 91.2 204.8 89.6 L 204.8 89.6 Z M 294.4 172.8 Q 292.8 155.2 275.2 153.6 Q 257.6 155.2 256 172.8 L 256 211.2 Q 256.8 225.6 270.4 229.6 Q 281.6 214.4 294.4 199.2 L 294.4 172.8 L 294.4 172.8 Z M 153.6 172.8 Q 152 155.2 134.4 153.6 Q 116.8 155.2 115.2 172.8 L 115.2 211.2 Q 116.8 228.8 134.4 230.4 Q 152 228.8 153.6 211.2 L 153.6 172.8 L 153.6 172.8 Z M 224 172.8 Q 222.4 155.2 204.8 153.6 Q 187.2 155.2 185.6 172.8 L 185.6 211.2 Q 187.2 228.8 204.8 230.4 Q 222.4 228.8 224 211.2 L 224 172.8 L 224 172.8 Z M 363.2 182.4 Q 359.2 179.2 355.2 179.2 Q 350.4 179.2 347.2 182.4 Q 306.4 218.4 281.6 258.4 Q 256.8 299.2 256 332.8 Q 257.6 387.2 292.8 423.2 Q 328.8 459.2 384 460.8 Q 438.4 459.2 474.4 423.2 Q 510.4 387.2 512 332.8 Q 512 320 506.4 303.2 Q 501.6 286.4 492.8 269.6 Q 474.4 233.6 444 204.8 Q 436 198.4 428 204.8 Q 416.8 216 407.2 228 Q 386.4 203.2 362.4 182.4 L 363.2 182.4 Z M 424 397.6 Q 406.4 409.6 384.8 409.6 Q 356.8 409.6 339.2 392.8 Q 320.8 376.8 320 347.2 Q 320 332.8 328.8 318.4 Q 338.4 303.2 356 281.6 Q 358.4 284.8 369.6 299.2 Q 381.6 313.6 392.8 328 Q 404 342.4 405.6 344.8 Q 405.6 344.8 405.6 344.8 L 434.4 311.2 Q 437.6 316 440 320.8 Q 450.4 341.6 446.4 362.4 Q 442.4 384 424 397.6 L 424 397.6 Z" />
</svg>