<svg xmlns="http://www.w3.org/2000/svg" viewBox="0 0 512 512">
  <path d="M 256 24 L 256 0 Q 242 1 235 13 Q 229 25 236 37 L 256 24 L 256 24 Z M 367 160 L 347 147 Q 340 159 346 171 Q 353 184 367 184 L 367 160 L 367 160 Z M 142 160 L 142 184 Q 156 184 163 172 Q 170 160 163 148 L 142 160 L 142 160 Z M 267 40 L 247 54 L 247 54 L 267 40 L 267 40 Z M 269 0 L 256 0 L 256 48 L 269 48 L 269 0 L 269 0 Z M 400 131 Q 399 75 362 38 L 362 38 Q 325 1 269 0 L 269 48 Q 304 49 328 72 Q 351 96 352 131 L 400 131 L 400 131 Z M 387 173 Q 400 155 400 131 L 352 131 Q 352 140 347 147 L 387 173 L 387 173 Z M 367 184 L 388 184 L 388 136 L 367 136 L 367 184 L 367 184 Z M 388 184 Q 407 185 419 197 L 419 197 Q 432 209 432 228 L 480 228 Q 479 189 453 163 Q 427 137 388 136 L 388 184 L 388 184 Z M 432 228 Q 432 247 419 259 L 419 259 Q 407 272 388 272 L 388 320 Q 427 319 453 293 Q 479 267 480 228 L 432 228 L 432 228 Z M 388 272 L 124 272 L 124 320 L 388 320 L 388 272 L 388 272 Z M 124 272 Q 105 272 93 259 L 93 259 Q 80 247 80 228 L 32 228 Q 33 267 59 293 Q 85 319 124 320 L 124 272 L 124 272 Z M 80 228 Q 80 209 93 197 L 93 197 Q 105 184 124 184 L 124 136 Q 85 137 59 163 Q 33 189 32 228 L 80 228 L 80 228 Z M 124 184 L 142 184 L 142 136 L 124 136 L 124 184 L 124 184 Z M 112 136 Q 112 156 122 172 L 163 148 Q 160 143 160 136 L 112 136 L 112 136 Z M 184 64 Q 153 65 133 85 L 133 85 Q 113 105 112 136 L 160 136 Q 162 114 184 112 L 184 64 L 184 64 Z M 241 64 L 184 64 L 184 112 L 241 112 L 241 64 L 241 64 Z M 248 57 Q 247 63 241 64 L 241 112 Q 265 111 280 96 Q 295 81 296 57 L 248 57 L 248 57 Z M 247 54 Q 248 55 248 57 L 296 57 Q 296 41 287 27 L 247 54 L 247 54 Z M 236 37 L 247 54 L 287 27 L 276 11 L 236 37 L 236 37 Z M 101 352 L 121 472 Q 125 490 138 501 Q 151 512 169 512 L 180 512 L 160 352 L 101 352 L 101 352 Z M 192 352 L 212 512 L 300 512 L 320 352 L 192 352 L 192 352 Z M 352 352 L 332 512 L 343 512 Q 361 512 374 501 Q 387 490 391 472 L 411 352 L 352 352 L 352 352 Z" />
</svg>