<svg xmlns="http://www.w3.org/2000/svg" viewBox="0 0 519 416">
  <path d="M 14 176 Q 0 160 14 144 L 135 15 L 135 15 Q 149 0 169 0 Q 188 0 201 13 Q 214 27 215 46 L 215 88 L 215 88 L 359 88 L 359 88 Q 427 90 472 135 Q 517 180 519 248 L 519 360 L 519 360 Q 518 384 502 399 Q 487 415 463 416 L 431 416 L 431 416 Q 407 415 391 399 Q 376 384 375 360 L 375 240 L 375 240 Q 374 233 367 232 L 215 232 L 215 232 L 215 274 L 215 274 Q 214 293 201 306 Q 188 319 169 320 Q 149 320 135 305 L 14 176 L 14 176 Z M 167 269 L 167 208 L 167 269 L 167 208 Q 169 186 191 184 L 367 184 L 367 184 Q 391 185 407 200 Q 422 216 423 240 L 423 360 L 423 360 Q 424 367 431 368 L 463 368 L 463 368 Q 470 367 471 360 L 471 248 L 471 248 Q 470 200 438 169 Q 407 137 359 136 L 191 136 L 191 136 Q 169 134 167 112 L 167 50 L 167 50 L 64 160 L 64 160 L 167 270 L 167 269 Z" />
</svg>