<svg xmlns="http://www.w3.org/2000/svg" viewBox="0 0 512 512">
  <path d="M 190.39691 30.088633 L 184.47784 7.398844 L 190.39691 30.088633 L 190.39691 30.088633 Z M 238.73604 58.697495 L 261.4258 51.79191 L 261.4258 51.79191 L 238.73604 58.697495 L 238.73604 58.697495 Z M 161.78806 78.42774 L 139.09827 85.333336 L 139.09827 85.333336 L 161.78806 78.42774 L 161.78806 78.42774 Z M 208.15414 252.05396 L 186.45087 260.93256 Q 195.32948 278.6898 216.04625 273.75723 Q 234.78998 265.8651 230.84393 245.14836 L 208.15414 252.05396 L 208.15414 252.05396 Z M 157.84201 132.68593 L 136.13873 141.56454 L 136.13873 141.56454 L 157.84201 132.68593 L 157.84201 132.68593 Z M 105.55684 110.98266 L 115.42197 132.68593 L 115.42197 132.68593 L 105.55684 110.98266 L 105.55684 110.98266 Z M 84.84008 163.26782 L 63.136803 172.14644 L 63.136803 172.14644 L 84.84008 163.26782 L 84.84008 163.26782 Z M 89.77264 306.31213 L 104.57033 287.5684 L 104.57033 287.5684 L 90.759155 306.31213 L 89.77264 306.31213 Z M 34.52794 313.2177 L 53.271675 327.0289 L 53.271675 327.0289 L 34.52794 312.2312 L 34.52794 313.2177 Z M 41.433525 368.46243 L 27.62235 387.20618 L 27.62235 387.20618 L 41.433525 368.46243 L 41.433525 368.46243 Z M 132.19267 438.50482 L 118.3815 457.24857 L 132.19267 438.50482 L 132.19267 438.50482 Z M 429.13293 391.15222 L 451.82272 397.0713 L 429.13293 391.15222 L 429.13293 391.15222 Z M 483.39114 173.13295 L 506.08093 179.05202 L 483.39114 173.13295 L 483.39114 173.13295 Z M 454.7823 124.79383 L 459.71484 102.10405 L 454.7823 124.79383 L 454.7823 124.79383 Z M 406.44315 153.4027 L 429.13293 159.32178 L 429.13293 159.32178 L 406.44315 153.4027 L 406.44315 153.4027 Z M 380.79382 256.9865 L 403.4836 262.90558 L 403.4836 262.90558 L 380.79382 256.9865 L 380.79382 256.9865 Z M 377.8343 256.9865 L 401.5106 260.93256 L 401.5106 260.93256 L 377.8343 256.9865 L 377.8343 256.9865 Z M 404.47012 107.036606 L 428.14642 110.98266 L 428.14642 110.98266 L 404.47012 107.036606 L 404.47012 107.036606 Z M 372.90173 61.657032 L 368.9557 84.34682 L 372.90173 61.657032 L 372.90173 61.657032 Z M 327.52216 93.22543 L 303.84586 89.27938 L 327.52216 93.22543 L 327.52216 93.22543 Z M 298.9133 255.01349 L 275.237 250.08092 L 275.237 250.08092 L 298.9133 255.01349 L 298.9133 255.01349 Z M 291.0212 255.01349 L 313.71097 249.0944 L 313.71097 249.0944 L 291.0212 255.01349 L 291.0212 255.01349 Z M 302.85934 486.84393 L 303.84586 463.16763 L 302.85934 486.84393 L 302.85934 486.84393 Z M 147.97688 350.7052 L 162.77457 331.96146 L 147.97688 350.7052 L 147.97688 350.7052 Z M 196.316 53.76493 Q 210.12717 50.805393 216.04625 64.61657 L 261.4258 52.77842 Q 253.53372 26.142582 231.83044 14.304432 Q 210.12717 1.4797688 184.47784 7.398844 L 196.316 53.76493 L 196.316 53.76493 Z M 185.46436 72.50867 Q 182.50482 58.697495 196.316 53.76493 L 184.47784 7.398844 Q 157.84201 15.290944 146.00386 36.99422 Q 133.17918 58.697495 139.09827 84.34682 L 185.46436 72.50867 L 185.46436 72.50867 Z M 230.84393 245.14836 L 185.46436 72.50867 L 139.09827 84.34682 L 185.46436 257.97302 L 230.84393 245.14836 L 230.84393 245.14836 Z M 136.13873 141.56454 L 186.45087 260.93256 L 229.85742 242.18883 L 179.54527 122.82081 L 136.13873 141.56454 L 136.13873 141.56454 Z M 115.42197 132.68593 Q 129.23314 128.73988 136.13873 141.56454 L 179.54527 122.82081 Q 168.69363 98.158 145.01733 89.27938 Q 121.34104 79.41426 96.67823 89.27938 L 115.42197 132.68593 L 115.42197 132.68593 Z M 106.54335 153.4027 Q 102.597305 139.59152 115.42197 132.68593 L 96.67823 89.27938 Q 72.01541 100.13102 63.136803 123.80732 Q 53.271675 147.48363 63.136803 172.14644 L 106.54335 153.4027 L 106.54335 153.4027 Z M 181.51831 331.96146 L 106.54335 153.4027 L 63.136803 172.14644 L 138.11176 350.7052 L 181.51831 331.96146 L 181.51831 331.96146 Z M 75.961464 325.05588 L 133.17918 369.44894 L 162.77457 331.96146 L 104.57033 287.5684 L 75.961464 324.06937 L 75.961464 325.05588 Z M 53.271675 327.0289 Q 63.136803 317.1638 75.961464 325.05588 L 104.57033 287.5684 Q 82.86705 270.7977 58.20424 274.74374 Q 33.541428 277.70328 15.784201 298.42004 L 53.271675 327.0289 L 53.271675 327.0289 Z M 56.231213 349.7187 Q 45.379578 339.85358 53.271675 327.0289 L 16.770714 298.42004 Q 0 320.12332 3.9460502 344.78613 Q 6.9055877 369.44894 27.62235 387.20618 L 56.231213 349.7187 L 56.231213 349.7187 Z M 146.99037 419.76108 L 56.231213 349.7187 L 27.62235 387.20618 L 118.3815 457.24857 L 146.99037 419.76108 L 146.99037 419.76108 Z M 273.26398 463.16763 Q 203.22157 462.18112 146.99037 419.76108 L 118.3815 457.24857 Q 186.45087 509.53372 273.26398 510.52023 L 273.26398 463.16763 L 273.26398 463.16763 Z M 302.85934 463.16763 L 273.26398 463.16763 L 273.26398 510.52023 L 302.85934 510.52023 L 302.85934 463.16763 L 302.85934 463.16763 Z M 305.81888 463.16763 Q 304.83237 463.16763 304.83237 463.16763 L 304.83237 463.16763 Q 303.84586 463.16763 303.84586 463.16763 L 302.85934 510.52023 Q 302.85934 510.52023 303.84586 510.52023 Q 304.83237 510.52023 305.81888 510.52023 L 305.81888 463.16763 L 305.81888 463.16763 Z M 405.45663 385.23315 Q 396.57803 419.76108 368.9557 441.46436 L 368.9557 441.46436 Q 342.31985 462.18112 305.81888 463.16763 L 305.81888 510.52023 Q 358.10403 509.53372 398.55106 478.95184 Q 438.01157 447.38342 451.82272 396.08478 L 405.45663 385.23315 L 405.45663 385.23315 Z M 460.70135 167.21387 L 405.45663 385.23315 L 451.82272 396.08478 L 506.08093 179.05202 L 459.71484 167.21387 L 460.70135 167.21387 Z M 448.8632 148.47014 Q 462.67438 152.41618 460.70135 167.21387 L 506.08093 179.05202 Q 512 152.41618 499.17532 130.7129 Q 486.35068 109.009636 459.71484 102.10405 L 448.8632 148.47014 L 448.8632 148.47014 Z M 430.11945 159.32178 Q 434.06552 145.5106 448.8632 148.47014 L 460.70135 102.10405 Q 434.06552 96.184975 412.36224 109.009636 Q 390.65897 121.8343 383.75336 148.47014 L 430.11945 159.32178 L 430.11945 159.32178 Z M 403.4836 262.90558 L 430.11945 159.32178 L 383.75336 147.48363 L 358.10403 251.06744 L 403.4836 262.90558 L 403.4836 262.90558 Z M 379.8073 281.64932 Q 398.55106 280.6628 403.4836 262.90558 L 358.10403 251.06744 Q 363.03662 235.28323 379.8073 234.29672 L 379.8073 281.64932 L 379.8073 281.64932 Z M 355.1445 252.05396 Q 353.17148 263.8921 360.07706 272.77072 L 360.07706 272.77072 Q 367.96918 281.64932 379.8073 281.64932 L 379.8073 234.29672 Q 390.65897 234.29672 396.57803 242.18883 Q 403.4836 250.08092 401.5106 260.93256 L 355.1445 252.05396 L 355.1445 252.05396 Z M 381.78033 103.09056 L 355.1445 252.05396 L 401.5106 260.93256 L 428.14642 110.98266 L 381.78033 103.09056 L 381.78033 103.09056 Z M 368.9557 84.34682 Q 382.76685 88.29287 381.78033 103.09056 L 428.14642 110.98266 Q 432.0925 84.34682 418.2813 63.63006 Q 403.4836 42.913296 376.84778 37.980732 L 368.9557 84.34682 L 368.9557 84.34682 Z M 350.21194 97.171486 Q 354.158 83.360306 368.9557 84.34682 L 376.84778 37.980732 Q 350.21194 34.034683 329.49518 48.83237 Q 308.7784 62.643547 303.84586 89.27938 L 350.21194 97.171486 L 350.21194 97.171486 Z M 321.6031 258.95953 L 350.21194 97.171486 L 303.84586 89.27938 L 275.237 250.08092 L 321.6031 258.95953 L 321.6031 258.95953 Z M 294.96725 281.64932 Q 316.67053 279.6763 321.6031 258.95953 L 275.237 250.08092 Q 279.18304 235.28323 294.96725 234.29672 L 294.96725 281.64932 L 294.96725 281.64932 Z M 267.34488 260.93256 Q 274.2505 280.6628 294.96725 281.64932 L 294.96725 234.29672 Q 308.7784 235.28323 313.71097 249.0944 L 267.34488 260.93256 L 267.34488 260.93256 Z M 216.04625 64.61657 L 267.34488 260.93256 L 313.71097 249.0944 L 261.4258 52.77842 L 216.04625 64.61657 L 216.04625 64.61657 Z M 326.53564 486.84393 Q 324.56262 508.5472 302.85934 510.52023 L 303.84586 463.16763 Q 281.15607 465.14066 279.18304 486.84393 L 326.53564 486.84393 L 326.53564 486.84393 Z M 302.85934 510.52023 Q 324.56262 508.5472 326.53564 486.84393 L 279.18304 486.84393 Q 281.15607 465.14066 302.85934 463.16763 L 302.85934 510.52023 L 302.85934 510.52023 Z M 138.11176 350.7052 Q 134.16571 338.86707 143.04431 331.96146 L 143.04431 331.96146 Q 151.92293 325.05588 162.77457 331.96146 L 133.17918 369.44894 Q 154.88246 383.2601 171.65318 369.44894 Q 189.4104 355.63776 181.51831 331.96146 L 138.11176 350.7052 L 138.11176 350.7052 Z" />
</svg>