<svg xmlns="http://www.w3.org/2000/svg" viewBox="0 0 639 514">
  <path d="M 166 2 Q 127 0 90 29 Q 63 50 33 98 Q 3 147 0 223 Q 1 260 6 294 Q 14 337 46 363 Q 78 389 120 389 Q 173 388 207 351 Q 240 313 236 260 L 236 255 L 236 255 L 252 263 L 252 263 Q 256 265 256 270 L 256 490 L 256 490 Q 258 512 280 514 Q 302 512 304 490 L 304 270 L 304 270 Q 303 236 273 220 L 242 204 L 242 204 L 258 187 L 258 187 Q 287 156 288 113 Q 287 86 274 62 Q 261 38 238 23 L 233 20 L 233 20 L 220 40 L 220 40 L 233 20 L 233 20 Q 204 2 170 2 L 166 2 L 166 2 Z M 121 65 Q 141 49 166 50 L 170 50 L 170 50 Q 190 50 207 61 L 212 64 L 212 64 Q 239 82 240 114 Q 239 137 224 154 L 207 172 L 207 172 Q 182 199 185 235 L 189 265 L 189 265 Q 191 296 171 318 Q 152 340 120 341 Q 95 341 77 326 Q 58 311 54 286 Q 49 254 48 223 Q 50 162 75 122 Q 99 83 121 65 L 121 65 Z M 432 61 Q 449 50 469 50 L 473 50 L 473 50 Q 498 49 518 65 Q 540 83 564 122 Q 589 162 591 223 Q 590 254 585 286 Q 581 311 562 326 Q 544 341 519 341 Q 487 340 468 318 Q 448 296 450 265 L 454 235 L 454 235 Q 457 199 432 172 L 415 154 L 415 154 Q 400 137 399 114 Q 400 82 427 64 L 432 61 L 432 61 Z M 469 2 Q 435 2 406 20 L 401 23 L 401 23 Q 378 38 365 62 Q 351 86 351 114 Q 352 156 380 187 L 397 205 L 397 205 L 367 220 L 367 220 Q 337 236 336 270 L 336 490 L 336 490 Q 338 512 360 514 Q 382 512 384 490 L 384 270 L 384 270 Q 384 265 388 263 L 403 255 L 403 255 L 403 260 L 403 260 Q 399 313 432 351 Q 466 388 519 389 Q 561 389 593 363 Q 625 337 632 293 Q 638 260 639 223 Q 636 147 606 98 Q 575 50 549 29 Q 512 0 473 2 L 469 2 L 469 2 Z" />
</svg>