<svg xmlns="http://www.w3.org/2000/svg" viewBox="0 0 480 448">
  <path d="M 402 155 Q 381 107 338 78 L 338 78 L 338 78 Q 295 49 240 48 Q 178 49 134 92 L 82 144 L 82 144 L 136 144 L 136 144 Q 158 146 160 168 Q 158 190 136 192 L 24 192 L 24 192 Q 2 190 0 168 L 0 56 L 0 56 Q 2 34 24 32 Q 46 34 48 56 L 48 110 L 48 110 L 100 58 L 100 58 Q 158 1 240 0 Q 310 1 365 38 Q 420 75 446 136 Q 453 157 434 168 Q 413 174 402 155 L 402 155 Z M 34 312 Q 27 291 47 281 Q 68 274 78 293 Q 99 341 142 370 Q 185 399 240 400 Q 302 399 346 356 L 398 304 L 398 304 L 344 304 L 344 304 Q 322 302 320 280 Q 322 258 344 256 L 456 256 L 456 256 Q 478 258 480 280 L 480 392 L 480 392 Q 478 414 456 416 Q 434 414 432 392 L 432 338 L 432 338 L 380 390 L 380 390 Q 321 447 240 448 Q 170 447 115 410 Q 61 373 34 312 L 34 312 Z" />
</svg>