<svg xmlns="http://www.w3.org/2000/svg" viewBox="0 0 512 512">
  <path d="M 490.66666 195.55556 L 497.77777 216 Q 511.1111 209.77777 512 195.55556 L 490.66666 195.55556 L 490.66666 195.55556 Z M 490.66666 316.44446 L 512 316.44446 Q 511.1111 302.22223 497.77777 296 L 490.66666 316.44446 L 490.66666 316.44446 Z M 21.333334 316.44446 L 14.222222 296 Q 0.8888889 302.22223 0 316.44446 L 21.333334 316.44446 L 21.333334 316.44446 Z M 21.333334 195.55556 L 0 195.55556 Q 0.8888889 210.66667 14.222222 216 L 21.333334 195.55556 L 21.333334 195.55556 Z M 56.88889 85.333336 Q 32.88889 86.22222 16.88889 102.22222 L 16.88889 102.22222 Q 0.8888889 118.22222 0 142.22223 L 42.666668 142.22223 Q 43.555557 128.88889 56.88889 128 L 56.88889 85.333336 L 56.88889 85.333336 Z M 455.1111 85.333336 L 56.88889 85.333336 L 56.88889 128 L 455.1111 128 L 455.1111 85.333336 L 455.1111 85.333336 Z M 512 142.22223 Q 511.1111 118.22222 495.1111 102.22222 L 495.1111 102.22222 Q 479.1111 86.22222 455.1111 85.333336 L 455.1111 128 Q 468.44446 128.88889 469.33334 142.22223 L 512 142.22223 L 512 142.22223 Z M 512 195.55556 L 512 142.22223 L 469.33334 142.22223 L 469.33334 195.55556 L 512 195.55556 L 512 195.55556 Z M 469.33334 256 Q 471.1111 226.66667 497.77777 216 L 483.55554 175.11111 Q 458.66666 184.88889 442.66666 206.22223 Q 427.55554 227.55556 426.66666 256 L 469.33334 256 L 469.33334 256 Z M 497.77777 296 Q 471.1111 285.33334 469.33334 256 L 426.66666 256 Q 427.55554 284.44446 442.66666 305.77777 Q 458.66666 327.1111 483.55554 336.8889 L 497.77777 296 L 497.77777 296 Z M 512 369.77777 L 512 316.44446 L 469.33334 316.44446 L 469.33334 369.77777 L 512 369.77777 L 512 369.77777 Z M 455.1111 426.66666 Q 479.1111 425.77777 495.1111 409.77777 L 495.1111 409.77777 Q 511.1111 393.77777 512 369.77777 L 469.33334 369.77777 Q 468.44446 383.1111 455.1111 384 L 455.1111 426.66666 L 455.1111 426.66666 Z M 56.88889 426.66666 L 455.1111 426.66666 L 455.1111 384 L 56.88889 384 L 56.88889 426.66666 L 56.88889 426.66666 Z M 0 369.77777 Q 0.8888889 393.77777 16.88889 409.77777 L 16.88889 409.77777 Q 32.88889 425.77777 56.88889 426.66666 L 56.88889 384 Q 43.555557 383.1111 42.666668 369.77777 L 0 369.77777 L 0 369.77777 Z M 0 316.44446 L 0 369.77777 L 42.666668 369.77777 L 42.666668 316.44446 L 0 316.44446 L 0 316.44446 Z M 42.666668 256 Q 40.88889 285.33334 14.222222 296 L 28.444445 336.8889 Q 53.333332 327.1111 69.333336 305.77777 Q 84.44444 284.44446 85.333336 256 L 42.666668 256 L 42.666668 256 Z M 14.222222 216 Q 40.88889 226.66667 42.666668 256 L 85.333336 256 Q 84.44444 227.55556 69.333336 206.22223 Q 53.333332 184.88889 28.444445 176 L 14.222222 216 L 14.222222 216 Z M 0 142.22223 L 0 195.55556 L 42.666668 195.55556 L 42.666668 142.22223 L 0 142.22223 L 0 142.22223 Z" />
</svg>