<svg xmlns="http://www.w3.org/2000/svg" viewBox="0 0 512 512">
  <path d="M 454.03775 96 L 454.03775 405.13208 Q 452.8302 423.24527 434.71698 424.45282 Q 416.60376 423.24527 415.39624 405.13208 L 415.39624 96 Q 416.60376 77.886795 434.71698 76.679245 Q 452.8302 77.886795 454.03775 96 L 454.03775 96 Z M 434.71698 18.716982 Q 402.11322 19.924528 380.37735 41.660378 L 380.37735 41.660378 Q 358.6415 63.396225 357.43396 96 L 357.43396 405.13208 Q 358.6415 437.73584 380.37735 459.4717 Q 402.11322 481.20755 434.71698 482.4151 Q 467.32074 481.20755 489.0566 459.4717 Q 510.79245 437.73584 512 405.13208 L 512 96 Q 510.79245 63.396225 489.0566 41.660378 Q 467.32074 19.924528 434.71698 18.716982 L 434.71698 18.716982 Z M 251.16982 424.45282 Q 233.05661 423.24527 231.84906 405.13208 L 231.84906 250.56604 Q 233.05661 232.45284 251.16982 231.24529 Q 269.28302 232.45284 270.49057 250.56604 L 270.49057 405.13208 Q 269.28302 423.24527 251.16982 424.45282 L 251.16982 424.45282 Z M 251.16982 173.28302 Q 218.56604 174.49057 196.83018 196.22641 L 196.83018 196.22641 Q 175.09435 217.96227 173.8868 250.56604 L 173.8868 405.13208 Q 175.09435 437.73584 196.83018 459.4717 Q 218.56604 481.20755 251.16982 482.4151 Q 283.7736 481.20755 305.50943 459.4717 Q 327.24527 437.73584 328.45282 405.13208 L 328.45282 250.56604 Q 327.24527 217.96227 305.50943 196.22641 Q 283.7736 174.49057 251.16982 173.28302 L 251.16982 173.28302 Z M 77.28302 385.8113 Q 95.396225 387.01886 96.603775 405.13208 Q 95.396225 423.24527 77.28302 424.45282 Q 59.16981 423.24527 57.962265 405.13208 Q 59.16981 387.01886 77.28302 385.8113 L 77.28302 385.8113 Z M 0 405.13208 Q 1.2075472 448.60376 38.64151 471.54718 Q 77.28302 493.28302 115.92453 471.54718 Q 153.35849 448.60376 154.56604 405.13208 Q 153.35849 361.66037 115.92453 338.71698 Q 77.28302 316.98114 38.64151 338.71698 Q 1.2075472 361.66037 0 405.13208 L 0 405.13208 Z" />
</svg>