<svg xmlns="http://www.w3.org/2000/svg" viewBox="0 0 576 512">
  <path d="M 128 144 Q 128 105 147 72 L 147 72 L 147 72 Q 166 39 200 19 Q 234 0 272 0 Q 310 0 344 19 Q 378 39 397 72 Q 416 105 416 144 Q 416 183 397 216 Q 378 249 344 269 Q 310 288 272 288 Q 234 288 200 269 Q 166 249 147 216 Q 128 183 128 144 L 128 144 Z M 249 111 Q 250 110 253 108 Q 262 104 272 104 Q 284 104 298 108 Q 313 110 318 96 Q 320 82 306 77 Q 297 75 288 73 L 288 64 L 288 64 Q 286 49 272 48 Q 257 49 256 64 L 256 73 L 256 73 Q 247 75 238 80 Q 217 89 216 117 Q 220 140 238 148 Q 252 154 266 158 L 268 158 L 268 158 Q 283 162 291 167 Q 297 170 296 172 Q 296 176 295 177 Q 294 178 291 180 Q 283 184 273 184 Q 259 183 243 177 Q 240 176 237 175 Q 222 172 217 186 Q 214 200 227 206 Q 228 206 228 206 Q 230 207 232 207 Q 232 207 232 207 Q 232 207 232 207 Q 232 207 232 207 Q 243 211 256 214 L 256 225 L 256 225 Q 257 240 272 241 Q 287 240 288 225 L 288 214 L 288 214 Q 297 213 306 208 Q 327 199 328 171 Q 325 148 308 139 Q 292 131 277 128 L 277 128 L 277 128 Q 261 123 253 119 Q 247 115 248 115 Q 248 115 248 115 Q 248 115 248 115 Q 248 112 249 111 L 249 111 Z M 187 352 Q 175 352 165 359 L 85 412 L 85 412 Q 79 416 72 416 L 24 416 L 24 416 Q 2 414 0 392 Q 2 370 24 368 L 65 368 L 65 368 L 139 319 L 139 319 Q 161 304 187 304 L 344 304 L 344 304 Q 371 305 389 323 Q 407 341 408 368 Q 408 369 408 369 Q 408 369 408 370 L 473 330 L 473 330 Q 489 320 508 320 L 516 320 L 516 320 Q 541 321 558 338 Q 575 355 576 380 Q 575 413 549 431 L 453 493 L 453 493 Q 423 512 388 512 L 24 512 L 24 512 Q 2 510 0 488 Q 2 466 24 464 L 388 464 L 388 464 Q 409 464 427 452 L 522 391 L 522 391 Q 528 387 528 380 Q 527 369 516 368 L 508 368 L 508 368 Q 503 368 498 371 L 405 428 L 405 428 Q 399 432 392 432 L 344 432 L 256 432 Q 234 430 232 408 Q 234 386 256 384 L 320 384 L 344 384 Q 359 383 360 368 Q 359 353 344 352 L 187 352 L 187 352 Z" />
</svg>