<svg xmlns="http://www.w3.org/2000/svg" viewBox="0 0 455 512">
  <path d="M 228 0 Q 214 0 205 9 L 205 9 L 205 9 Q 196 18 196 32 L 196 51 L 196 51 Q 140 63 105 106 Q 69 149 68 208 L 68 233 L 68 233 Q 67 303 24 358 L 9 377 L 9 377 Q 0 389 6 402 Q 13 415 28 416 L 428 416 L 428 416 Q 443 415 450 402 Q 455 389 447 377 L 432 358 L 432 358 Q 389 303 388 233 L 388 208 L 388 208 Q 387 149 351 106 Q 316 63 260 51 L 260 32 L 260 32 Q 260 18 251 9 Q 242 0 228 0 L 228 0 Z M 228 96 Q 276 97 307 129 L 307 129 L 307 129 Q 339 160 340 208 L 340 233 L 340 233 Q 340 307 380 368 L 76 368 L 76 368 Q 115 307 116 233 L 116 208 L 116 208 Q 117 160 149 129 Q 180 97 228 96 L 228 96 Z M 292 448 L 228 448 L 292 448 L 164 448 Q 164 474 183 493 Q 202 512 228 512 Q 254 512 273 493 Q 292 474 292 448 L 292 448 Z" />
</svg>