<svg xmlns="http://www.w3.org/2000/svg" viewBox="0 0 640 512">
  <path d="M 152 0 Q 87 2 45 45 L 45 45 L 45 45 Q 2 87 0 152 L 0 168 L 0 168 Q 0 181 11 188 Q 23 195 35 190 L 81 167 L 81 167 Q 96 183 118 189 L 100 448 L 100 448 Q 99 475 116 493 Q 133 511 160 512 Q 187 511 204 493 Q 221 475 220 448 L 202 192 L 202 192 Q 239 188 261 160 L 304 160 L 304 160 L 304 168 L 304 168 Q 306 190 328 192 Q 350 190 352 168 L 352 136 L 352 136 L 352 136 L 352 136 L 352 56 L 352 56 L 352 56 L 352 56 L 352 24 L 352 24 Q 350 2 328 0 Q 306 2 304 24 L 304 32 L 304 32 L 261 32 L 261 32 Q 236 1 196 0 L 152 0 L 152 0 Z M 304 112 L 248 112 L 304 112 L 248 112 Q 234 113 227 125 Q 217 143 196 144 L 140 144 L 140 144 Q 119 143 109 125 Q 98 107 77 115 L 51 128 L 51 128 Q 60 93 87 71 Q 114 49 152 48 L 196 48 L 196 48 Q 217 49 227 67 Q 234 80 248 80 L 304 80 L 304 80 L 304 112 L 304 112 Z M 592 464 L 480 464 L 592 464 L 480 464 L 480 416 L 480 416 Q 479 401 464 400 Q 449 401 448 416 L 448 464 L 448 464 L 400 464 L 400 464 L 400 320 L 400 320 L 592 320 L 592 320 L 592 464 L 592 464 Z M 381 237 Q 353 257 352 290 L 352 464 L 352 464 Q 353 484 366 498 Q 380 511 400 512 L 592 512 L 592 512 Q 612 511 626 498 Q 639 484 640 464 L 640 290 L 640 290 Q 639 257 612 237 L 544 192 L 544 192 L 544 48 L 544 48 Q 543 28 530 14 Q 516 1 496 0 Q 476 1 462 14 Q 449 28 448 48 L 448 192 L 448 192 L 381 237 L 381 237 Z M 480 48 Q 481 33 496 32 Q 511 33 512 48 Q 511 63 496 64 Q 481 63 480 48 L 480 48 Z" />
</svg>