<svg xmlns="http://www.w3.org/2000/svg" viewBox="0 0 512 512">
  <path d="M 280 464 L 280 350 Q 314 344 340 325 Q 366 305 382 276 Q 403 239 399 193 L 384 15 Q 381 1 368 0 L 360 0 L 291 0 L 262 0 L 152 0 L 144 0 Q 131 1 128 15 L 113 193 Q 109 239 130 276 Q 146 305 172 325 Q 198 344 232 350 L 232 464 L 168 464 Q 166 464 165 464 Q 146 468 144 488 Q 146 508 165 512 Q 166 512 168 512 L 168 512 L 256 512 L 344 512 Q 346 512 347 512 Q 366 508 368 488 Q 366 468 347 464 Q 346 464 344 464 L 344 464 L 280 464 L 280 464 Z M 259 48 Q 259 53 255 57 L 202 110 Q 193 120 201 131 L 278 221 Q 280 224 284 224 Q 294 222 292 213 L 261 132 Q 257 120 267 113 L 311 86 Q 319 80 318 69 L 314 48 L 338 48 L 350 202 Q 352 245 325 274 Q 298 303 256 304 Q 214 303 187 274 Q 160 245 162 202 L 174 48 L 259 48 L 259 48 Z" />
</svg>