<svg xmlns="http://www.w3.org/2000/svg" viewBox="0 0 640 512">
  <path d="M 64 24 L 64 32 L 64 24 L 64 32 L 48 32 L 48 32 Q 28 33 14 46 Q 1 60 0 80 L 0 368 L 0 368 Q 1 388 14 402 Q 28 415 48 416 L 64 416 L 64 416 L 64 488 L 64 488 Q 66 510 88 512 Q 110 510 112 488 L 112 416 L 112 416 L 384 416 L 384 416 Q 368 394 359 368 L 48 368 L 48 368 L 48 80 L 48 80 L 528 80 L 528 80 L 528 161 L 528 161 Q 554 163 576 173 L 576 80 L 576 80 Q 575 60 562 46 Q 548 33 528 32 L 512 32 L 512 32 L 512 24 L 512 24 Q 510 2 488 0 Q 466 2 464 24 L 464 32 L 464 32 L 112 32 L 112 32 L 112 24 L 112 24 Q 110 2 88 0 Q 66 2 64 24 L 64 24 Z M 640 320 Q 640 284 622 255 L 622 255 L 622 255 Q 605 226 576 209 Q 562 204 560 219 L 560 304 L 560 304 Q 559 324 546 338 Q 532 351 512 352 Q 492 351 478 338 Q 465 324 464 304 L 464 219 L 464 219 Q 462 204 448 209 Q 419 226 402 255 Q 384 284 384 320 Q 386 383 432 420 L 432 476 L 432 476 Q 432 491 443 501 Q 453 512 468 512 L 556 512 L 556 512 Q 571 512 581 501 Q 592 491 592 476 L 592 420 L 592 420 Q 638 383 640 320 L 640 320 Z M 512 192 L 512 192 L 512 192 L 512 192 L 512 192 L 512 192 L 512 192 L 512 192 Z" />
</svg>