<svg xmlns="http://www.w3.org/2000/svg" viewBox="0 0 512 512">
  <path d="M 116.84311 152.13947 Q 117.65452 115.62599 149.29953 96.15214 Q 181.75594 78.30111 214.21236 96.15214 Q 245.85738 115.62599 246.66878 152.13947 Q 245.85738 188.65294 214.21236 208.12679 Q 181.75594 225.97781 149.29953 208.12679 Q 117.65452 188.65294 116.84311 152.13947 L 116.84311 152.13947 Z M 285.6165 152.13947 Q 285.6165 123.7401 271.8225 100.20919 L 271.8225 100.20919 Q 258.02853 76.67829 233.68622 62.0729 Q 209.3439 48.278923 181.75594 48.278923 Q 154.16798 48.278923 129.82567 62.0729 Q 105.48336 76.67829 91.689384 100.20919 Q 77.8954 123.7401 77.8954 152.13947 Q 77.8954 180.53883 91.689384 204.06973 Q 105.48336 227.60063 129.82567 242.20602 Q 154.16798 256 181.75594 256 Q 209.3439 256 233.68622 242.20602 Q 258.02853 227.60063 271.8225 204.06973 Q 285.6165 180.53883 285.6165 152.13947 L 285.6165 152.13947 Z M 219.08083 333.89542 Q 259.65134 334.70682 288.86212 359.86053 L 288.86212 359.86053 Q 317.26147 385.01425 323.75278 424.77338 L 39.759113 424.77338 Q 46.250397 385.01425 74.649765 359.86053 Q 103.86054 334.70682 144.43106 333.89542 L 219.08083 333.89542 L 219.08083 333.89542 Z M 144.43106 294.9477 Q 83.57528 296.57053 42.193344 337.14105 L 42.193344 337.14105 Q 1.622821 378.52298 0 439.37875 Q 0 449.9271 7.3026943 456.4184 Q 13.793978 463.72107 24.342314 463.72107 L 339.1696 463.72107 Q 349.7179 463.72107 356.2092 456.4184 Q 363.51187 449.9271 363.51187 439.37875 Q 361.88907 378.52298 321.31854 337.14105 Q 279.9366 296.57053 219.08083 294.9477 L 181.75594 294.9477 L 144.43106 294.9477 L 144.43106 294.9477 Z M 369.19177 164.31062 Q 357.832 178.1046 369.19177 191.89857 L 407.32806 230.03487 L 369.19177 268.17114 Q 357.832 281.96515 369.19177 295.75912 Q 382.98575 307.11887 396.77972 295.75912 L 434.91602 257.62283 L 473.0523 295.75912 Q 486.84628 307.11887 500.64026 295.75912 Q 512 281.96515 500.64026 268.17114 L 462.50397 230.03487 L 500.64026 191.89857 Q 512 178.1046 500.64026 164.31062 Q 486.84628 152.95087 473.0523 164.31062 L 434.91602 202.44691 L 396.77972 164.31062 Q 382.98575 152.95087 369.19177 164.31062 L 369.19177 164.31062 Z" />
</svg>