<svg xmlns="http://www.w3.org/2000/svg" viewBox="0 0 519 448">
  <path d="M 14 241 Q 0 224 14 207 L 142 79 L 142 79 Q 159 65 176 79 Q 190 96 176 113 L 89 200 L 89 200 L 335 200 L 335 200 Q 357 202 359 224 Q 357 246 335 248 L 89 248 L 89 248 L 176 335 L 176 335 Q 190 352 176 369 Q 159 383 142 369 L 14 241 L 14 241 Z M 351 48 Q 329 46 327 24 Q 329 2 351 0 L 431 0 L 431 0 Q 468 1 493 26 Q 518 51 519 88 L 519 360 L 519 360 Q 518 397 493 422 Q 468 447 431 448 L 351 448 L 351 448 Q 329 446 327 424 Q 329 402 351 400 L 431 400 L 431 400 Q 448 400 459 388 Q 471 377 471 360 L 471 88 L 471 88 Q 471 71 459 60 Q 448 48 431 48 L 351 48 L 351 48 Z" />
</svg>