<svg xmlns="http://www.w3.org/2000/svg" viewBox="0 0 640 384">
  <path d="M 48 64 Q 49 49 64 48 L 576 48 L 576 48 Q 591 49 592 64 L 592 99 L 592 99 Q 560 108 540 133 Q 521 158 520 192 Q 521 226 540 251 Q 560 276 592 285 L 592 320 L 592 320 Q 591 335 576 336 L 64 336 L 64 336 Q 49 335 48 320 L 48 64 L 48 64 Z M 64 0 Q 37 1 19 19 L 19 19 L 19 19 Q 1 37 0 64 L 0 320 L 0 320 Q 1 347 19 365 Q 37 383 64 384 L 576 384 L 576 384 Q 603 383 621 365 Q 639 347 640 320 L 640 259 L 640 259 Q 640 250 632 245 Q 625 240 616 240 Q 596 239 582 226 Q 569 212 568 192 Q 569 172 582 158 Q 596 145 616 144 Q 625 144 632 139 Q 640 134 640 125 L 640 64 L 640 64 Q 639 37 621 19 Q 603 1 576 0 L 64 0 L 64 0 Z M 448 96 Q 447 81 432 80 Q 417 81 416 96 Q 417 111 432 112 Q 447 111 448 96 L 448 96 Z M 448 160 Q 447 145 432 144 Q 417 145 416 160 Q 417 175 432 176 Q 447 175 448 160 L 448 160 Z M 432 240 Q 447 239 448 224 Q 447 209 432 208 Q 417 209 416 224 Q 417 239 432 240 L 432 240 Z M 448 288 Q 447 273 432 272 Q 417 273 416 288 Q 417 303 432 304 Q 447 303 448 288 L 448 288 Z" />
</svg>