<svg xmlns="http://www.w3.org/2000/svg" viewBox="0 0 512 512">
  <path d="M 128 0 Q 164 1 183 32 Q 201 64 183 96 Q 164 127 128 128 Q 92 127 73 96 Q 55 64 73 32 Q 92 1 128 0 L 128 0 Z M 97 220 L 64 336 L 192 336 L 159 220 Q 155 209 144 208 L 112 208 Q 101 209 97 220 L 97 220 Z M 51 206 Q 57 185 74 173 L 74 173 Q 90 160 112 160 L 144 160 Q 165 160 182 173 Q 199 185 205 206 L 244 343 Q 248 359 239 371 Q 230 383 213 384 L 192 384 L 192 488 Q 190 510 168 512 Q 146 510 144 488 L 144 384 L 112 384 L 112 488 Q 110 510 88 512 Q 66 510 64 488 L 64 384 L 42 384 Q 26 383 17 371 Q 8 359 12 343 L 51 206 L 51 206 Z M 384 0 Q 420 1 439 32 Q 457 64 439 96 Q 420 127 384 128 Q 348 127 329 96 Q 311 64 329 32 Q 348 1 384 0 L 384 0 Z M 353 220 L 320 336 L 448 336 L 415 220 Q 411 209 400 208 L 368 208 Q 357 209 353 220 L 353 220 Z M 307 206 Q 313 185 330 173 L 330 173 Q 346 160 368 160 L 400 160 Q 421 160 438 173 Q 455 185 461 206 L 500 343 Q 504 359 495 371 Q 486 383 469 384 L 448 384 L 448 488 Q 446 510 424 512 Q 402 510 400 488 L 400 384 L 368 384 L 368 488 Q 366 510 344 512 Q 322 510 320 488 L 320 384 L 298 384 Q 282 383 273 371 Q 264 359 268 343 L 307 206 L 307 206 Z" />
</svg>