<svg xmlns="http://www.w3.org/2000/svg" viewBox="0 0 512 512">
  <path d="M 252 128 L 252 128 Q 268 144 291 144 L 448 144 Q 463 145 464 160 L 464 416 Q 463 431 448 432 L 64 432 Q 49 431 48 416 L 48 96 Q 49 81 64 80 L 198 80 Q 204 80 209 85 L 243 51 L 209 85 L 252 128 L 252 128 Z M 286 94 L 243 51 Q 224 32 197 32 L 64 32 Q 37 33 19 51 Q 1 69 0 96 L 0 416 Q 1 443 19 461 Q 37 479 64 480 L 448 480 Q 475 479 493 461 Q 511 443 512 416 L 512 160 Q 511 133 493 115 Q 475 97 448 96 L 291 96 Q 288 96 286 94 L 286 94 Z M 160 208 Q 160 194 151 185 L 151 185 Q 142 176 128 176 Q 114 176 105 185 Q 96 194 96 208 Q 96 222 105 231 Q 114 240 128 240 Q 142 240 151 231 Q 160 222 160 208 L 160 208 Z M 315 218 Q 308 208 296 208 Q 284 208 277 218 L 223 290 L 203 265 Q 195 256 184 256 Q 173 256 165 265 L 101 345 Q 93 357 98 370 Q 105 383 120 384 L 200 384 L 248 384 L 392 384 Q 407 384 414 371 Q 420 357 411 346 L 315 218 L 315 218 Z" />
</svg>