<svg xmlns="http://www.w3.org/2000/svg" viewBox="0 0 512 512">
  <path d="M 127.19497 49.91195 Q 148.93082 50.71698 161.00629 69.232704 Q 170.66667 88.55346 161.00629 107.874214 Q 148.93082 126.38994 127.19497 127.19497 Q 105.45912 126.38994 93.383644 107.874214 Q 83.723274 88.55346 93.383644 69.232704 Q 105.45912 50.71698 127.19497 49.91195 L 127.19497 49.91195 Z M 213.33333 291.4214 L 174.69182 222.99371 L 212.5283 342.13837 Q 214.13837 348.5786 210.1132 353.4088 Q 206.89308 359.04404 199.6478 359.04404 L 178.71698 359.04404 L 178.71698 442.7673 Q 177.10692 460.478 159.39622 462.08804 Q 141.68553 460.478 140.07547 442.7673 L 140.07547 359.04404 L 114.31447 359.04404 L 114.31447 442.7673 Q 112.7044 460.478 94.99371 462.08804 Q 77.28302 460.478 75.67296 442.7673 L 75.67296 359.04404 L 54.742138 359.04404 Q 47.496857 359.04404 44.27673 353.4088 Q 40.25157 348.5786 42.666668 342.13837 L 79.69811 222.99371 L 41.056602 291.4214 Q 30.591194 305.91196 14.490566 298.66666 Q 0 288.20126 7.245283 272.10062 L 49.10692 198.84277 Q 61.18239 177.10692 82.113205 165.03145 Q 102.23899 152.95598 127.19497 152.95598 Q 152.15094 152.95598 172.27673 165.03145 Q 193.20755 177.10692 205.28302 198.84277 L 247.14465 272.10062 Q 254.38994 288.20126 239.89937 298.66666 Q 223.79874 305.91196 213.33333 291.4214 L 213.33333 291.4214 Z M 165.03145 320.40253 L 127.19497 200.45284 L 89.35849 320.40253 L 165.03145 320.40253 L 165.03145 320.40253 Z M 384.80502 49.91195 Q 406.5409 50.71698 418.61636 69.232704 Q 428.27673 88.55346 418.61636 107.874214 Q 406.5409 126.38994 384.80502 127.19497 Q 363.06918 126.38994 350.9937 107.874214 Q 341.33334 88.55346 350.9937 69.232704 Q 363.06918 50.71698 384.80502 49.91195 L 384.80502 49.91195 Z M 470.9434 291.4214 L 432.30188 222.99371 L 469.33334 342.13837 Q 471.7484 348.5786 467.72327 353.4088 Q 464.50314 359.04404 457.25787 359.04404 L 436.32706 359.04404 L 436.32706 442.7673 Q 434.71698 460.478 417.0063 462.08804 Q 399.2956 460.478 397.68555 442.7673 L 397.68555 359.04404 L 371.92453 359.04404 L 371.92453 442.7673 Q 370.31445 460.478 352.60376 462.08804 Q 334.8931 460.478 333.28302 442.7673 L 333.28302 359.04404 L 312.3522 359.04404 Q 305.1069 359.04404 301.88678 353.4088 Q 297.86163 348.5786 300.27673 342.13837 L 337.30817 222.99371 L 298.66666 291.4214 Q 288.20126 305.91196 272.10062 298.66666 Q 257.61008 288.20126 264.85535 272.10062 L 306.71698 198.84277 Q 318.79245 177.10692 339.72327 165.03145 Q 359.84906 152.95598 384.80502 152.95598 Q 409.76102 152.95598 429.88678 165.03145 Q 450.8176 177.10692 462.8931 198.84277 L 504.75473 272.10062 Q 512 288.20126 497.50943 298.66666 Q 481.4088 305.91196 470.9434 291.4214 L 470.9434 291.4214 Z M 422.6415 320.40253 L 384.80502 200.45284 L 346.96857 320.40253 L 422.6415 320.40253 L 422.6415 320.40253 Z" />
</svg>