<svg xmlns="http://www.w3.org/2000/svg" viewBox="0 0 484 512">
  <path d="M 80 96 Q 103 81 104 52 Q 103 30 89 15 Q 74 1 52 0 Q 30 1 15 15 Q 1 30 0 52 Q 1 78 20 93 L 20 96 L 20 96 L 20 144 L 20 144 L 20 400 L 20 400 L 20 448 L 20 448 L 20 512 L 20 512 L 68 512 L 68 512 L 68 448 L 68 448 L 458 448 L 458 448 Q 482 446 484 422 Q 484 416 482 411 L 420 272 L 420 272 L 482 133 L 482 133 Q 484 128 484 122 Q 482 98 458 96 L 80 96 L 80 96 Z M 68 400 L 68 144 L 68 400 L 68 144 L 424 144 L 424 144 L 376 253 L 376 253 Q 368 272 376 292 L 424 400 L 424 400 L 68 400 L 68 400 Z" />
</svg>