<svg xmlns="http://www.w3.org/2000/svg" viewBox="0 0 512 512">
  <path d="M 464 256 Q 464 313 436 360 L 436 360 L 436 360 Q 409 407 360 436 Q 311 464 256 464 Q 201 464 152 436 Q 103 407 76 360 Q 48 313 48 256 Q 48 199 76 152 Q 103 105 152 76 Q 201 48 256 48 Q 311 48 360 76 Q 409 105 436 152 Q 464 199 464 256 L 464 256 Z M 0 256 Q 1 326 34 384 L 34 384 L 34 384 Q 68 442 128 478 Q 189 512 256 512 Q 323 512 384 478 Q 444 442 478 384 Q 511 326 512 256 Q 511 186 478 128 Q 444 70 384 34 Q 323 0 256 0 Q 189 0 128 34 Q 68 70 34 128 Q 1 186 0 256 L 0 256 Z M 305 361 L 393 273 L 305 361 L 393 273 Q 407 256 393 239 L 305 151 L 305 151 Q 288 137 271 151 Q 257 168 271 185 L 318 232 L 318 232 L 136 232 L 136 232 Q 114 234 112 256 Q 114 278 136 280 L 318 280 L 318 280 L 271 327 L 271 327 Q 257 344 271 361 Q 288 375 305 361 L 305 361 Z" />
</svg>