<svg xmlns="http://www.w3.org/2000/svg" viewBox="0 0 512 512">
  <path d="M 328 305.77777 L 328 284.44446 Q 316.44446 284.44446 309.33334 294.22223 L 328 305.77777 L 328 305.77777 Z M 235.55556 448.8889 L 217.77777 437.33334 L 217.77777 437.33334 L 235.55556 448.8889 L 235.55556 448.8889 Z M 162.66667 443.55554 L 182.22223 449.77777 L 182.22223 449.77777 L 162.66667 443.55554 L 162.66667 443.55554 Z M 206.22223 305.77777 L 226.66667 312 Q 230.22223 302.22223 224 293.33334 Q 216.88889 284.44446 206.22223 284.44446 L 206.22223 305.77777 L 206.22223 305.77777 Z M 120.888885 305.77777 L 120.888885 284.44446 Q 110.22222 284.44446 104 293.33334 L 120.888885 305.77777 L 120.888885 305.77777 Z M 82.666664 357.33334 L 99.55556 369.77777 L 99.55556 369.77777 L 82.666664 357.33334 L 82.666664 357.33334 Z M 71.111115 362.66666 L 71.111115 341.33334 L 71.111115 362.66666 L 71.111115 362.66666 Z M 33.77778 362.66666 L 33.77778 384 L 33.77778 362.66666 L 33.77778 362.66666 Z M 22.222221 346.66666 L 42.666668 352.8889 L 42.666668 352.8889 L 22.222221 346.66666 L 22.222221 346.66666 Z M 49.77778 256 L 70.22222 262.22223 Q 72 256 70.22222 249.77777 L 49.77778 256 L 49.77778 256 Z M 22.222221 165.33333 L 42.666668 159.11111 L 42.666668 159.11111 L 22.222221 165.33333 L 22.222221 165.33333 Z M 33.77778 149.33333 L 33.77778 170.66667 L 33.77778 149.33333 L 33.77778 149.33333 Z M 71.111115 149.33333 L 71.111115 128 L 71.111115 149.33333 L 71.111115 149.33333 Z M 82.666664 154.66667 L 65.77778 168 L 82.666664 154.66667 L 82.666664 154.66667 Z M 120.888885 206.22223 L 104 218.66667 Q 110.22222 227.55556 120.888885 227.55556 L 120.888885 206.22223 L 120.888885 206.22223 Z M 206.22223 206.22223 L 206.22223 227.55556 Q 216.88889 227.55556 224 218.66667 Q 230.22223 209.77777 226.66667 200 L 206.22223 206.22223 L 206.22223 206.22223 Z M 162.66667 68.44444 L 183.11111 62.22222 L 183.11111 62.22222 L 162.66667 68.44444 L 162.66667 68.44444 Z M 236.44444 63.11111 L 217.77777 74.666664 L 217.77777 74.666664 L 235.55556 63.11111 L 236.44444 63.11111 Z M 328 206.22223 L 309.33334 217.77777 Q 316.44446 227.55556 328 227.55556 L 328 206.22223 L 328 206.22223 Z M 512 256 Q 510.22223 232.88889 495.1111 219.55556 Q 481.77777 207.11111 464.8889 200 Q 448 192.88889 430.22223 188.44444 Q 412.44446 184.88889 398.22223 184.88889 L 398.22223 227.55556 Q 407.1111 227.55556 420.44446 230.22223 Q 433.77777 232.88889 447.1111 239.11111 Q 459.55554 244.44444 465.77777 250.66667 Q 470.22223 256 469.33334 256 L 512 256 L 512 256 Z M 398.22223 327.1111 Q 412.44446 327.1111 430.22223 323.55554 L 430.22223 323.55554 Q 448 320 464 312.8889 Q 481.77777 305.77777 495.1111 292.44446 Q 510.22223 279.1111 512 256 L 469.33334 256 Q 470.22223 256.8889 465.77777 262.22223 Q 459.55554 267.55554 447.1111 273.77777 Q 419.55554 284.44446 398.22223 284.44446 L 398.22223 327.1111 L 398.22223 327.1111 Z M 328 327.1111 L 398.22223 327.1111 L 398.22223 284.44446 L 328 284.44446 L 328 327.1111 L 328 327.1111 Z M 254.22223 460.44446 L 345.77777 317.33334 L 310.22223 294.22223 L 217.77777 437.33334 L 254.22223 460.44446 L 254.22223 460.44446 Z M 212.44444 483.55554 Q 239.11111 482.66666 254.22223 460.44446 L 217.77777 437.33334 Q 216 440.8889 212.44444 440.8889 L 212.44444 483.55554 L 212.44444 483.55554 Z M 176 483.55554 L 212.44444 483.55554 L 212.44444 440.8889 L 176 440.8889 L 176 483.55554 L 176 483.55554 Z M 142.22223 437.33334 Q 136.88889 455.1111 147.55556 469.33334 L 147.55556 469.33334 Q 157.33333 482.66666 176 483.55554 L 176 440.8889 Q 184 441.77777 183.11111 449.77777 L 142.22223 437.33334 L 142.22223 437.33334 Z M 185.77777 299.55554 L 142.22223 437.33334 L 183.11111 449.77777 L 226.66667 312 L 185.77777 299.55554 L 185.77777 299.55554 Z M 120.888885 327.1111 L 206.22223 327.1111 L 206.22223 284.44446 L 120.888885 284.44446 L 120.888885 327.1111 L 120.888885 327.1111 Z M 104 293.33334 L 65.77778 344 L 99.55556 369.77777 L 137.77777 318.22223 L 104 293.33334 L 104 293.33334 Z M 65.77778 344 Q 67.55556 341.33334 71.111115 341.33334 L 71.111115 384 Q 88.888885 384 99.55556 369.77777 L 65.77778 344 L 65.77778 344 Z M 71.111115 341.33334 L 33.77778 341.33334 L 33.77778 384 L 71.111115 384 L 71.111115 341.33334 L 71.111115 341.33334 Z M 33.77778 341.33334 Q 41.77778 342.22223 42.666668 350.22223 L 0 350.22223 Q 0 364.44446 9.777778 374.22223 Q 19.555555 384 33.77778 384 L 33.77778 341.33334 L 33.77778 341.33334 Z M 42.666668 350.22223 Q 42.666668 352 42.666668 352.8889 L 1.7777778 340.44446 Q 0 344.8889 0 350.22223 L 42.666668 350.22223 L 42.666668 350.22223 Z M 42.666668 352.8889 L 70.22222 262.22223 L 29.333334 249.77777 L 1.7777778 340.44446 L 42.666668 352.8889 L 42.666668 352.8889 Z M 70.22222 249.77777 L 42.666668 159.11111 L 1.7777778 171.55556 L 29.333334 262.22223 L 70.22222 249.77777 L 70.22222 249.77777 Z M 42.666668 159.11111 Q 42.666668 160 42.666668 160 L 42.666668 160 Q 42.666668 160.88889 42.666668 161.77777 L 0 161.77777 Q 0 167.11111 1.7777778 171.55556 L 42.666668 159.11111 L 42.666668 159.11111 Z M 42.666668 161.77777 Q 41.77778 169.77777 33.77778 170.66667 L 33.77778 128 Q 19.555555 128 9.777778 137.77777 Q 0 147.55556 0 161.77777 L 42.666668 161.77777 L 42.666668 161.77777 Z M 33.77778 170.66667 L 71.111115 170.66667 L 71.111115 128 L 33.77778 128 L 33.77778 170.66667 L 33.77778 170.66667 Z M 71.111115 170.66667 Q 67.55556 170.66667 65.77778 168 L 99.55556 142.22223 Q 88.888885 128 71.111115 128 L 71.111115 170.66667 L 71.111115 170.66667 Z M 65.77778 168 L 104 218.66667 L 137.77777 193.77777 L 99.55556 142.22223 L 65.77778 168 L 65.77778 168 Z M 206.22223 184.88889 L 120.888885 184.88889 L 120.888885 227.55556 L 206.22223 227.55556 L 206.22223 184.88889 L 206.22223 184.88889 Z M 142.22223 74.666664 L 185.77777 212.44444 L 226.66667 200 L 183.11111 62.22222 L 142.22223 74.666664 L 142.22223 74.666664 Z M 176 28.444445 Q 157.33333 29.333334 147.55556 42.666668 L 147.55556 42.666668 Q 136.88889 56.88889 142.22223 74.666664 L 182.22223 62.22222 Q 184 70.22222 176 71.111115 L 176 28.444445 L 176 28.444445 Z M 212.44444 28.444445 L 176 28.444445 L 176 71.111115 L 212.44444 71.111115 L 212.44444 28.444445 L 212.44444 28.444445 Z M 254.22223 51.555557 Q 239.11111 29.333334 212.44444 28.444445 L 212.44444 71.111115 Q 216 71.111115 217.77777 74.666664 L 254.22223 51.555557 L 254.22223 51.555557 Z M 345.77777 194.66667 L 254.22223 51.555557 L 217.77777 74.666664 L 309.33334 217.77777 L 345.77777 194.66667 L 345.77777 194.66667 Z M 398.22223 184.88889 L 328 184.88889 L 328 227.55556 L 398.22223 227.55556 L 398.22223 184.88889 L 398.22223 184.88889 Z" />
</svg>