<svg xmlns="http://www.w3.org/2000/svg" viewBox="0 0 512 512">
  <path d="M 19.2 51.2 Q 1.6 52.8 0 70.4 Q 1.6 88 19.2 89.6 L 60.8 89.6 L 108.8 343.2 Q 112.8 357.6 128 358.4 L 256.8 358.4 Q 256 352 256 345.6 Q 256 332.8 258.4 320 L 144 320 L 136.8 281.6 L 271.2 281.6 Q 282.4 260 300 243.2 L 129.6 243.2 L 104.8 115.2 L 416.8 115.2 L 391.2 204.8 Q 394.4 204.8 396.8 204.8 Q 396.8 204.8 396.8 204.8 Q 414.4 204.8 430.4 208.8 L 458.4 109.6 Q 460.8 96.8 453.6 87.2 Q 446.4 77.6 433.6 76.8 L 97.6 76.8 L 96 67.2 Q 92 52 76.8 51.2 L 19.2 51.2 L 19.2 51.2 Z M 140.8 460.8 Q 162.4 460 174.4 441.6 Q 184 422.4 174.4 403.2 Q 162.4 384.8 140.8 384 Q 119.2 384.8 107.2 403.2 Q 97.6 422.4 107.2 441.6 Q 119.2 460 140.8 460.8 L 140.8 460.8 Z M 396.8 230.4 Q 365.6 230.4 339.2 245.6 L 339.2 245.6 Q 312.8 260.8 296.8 288 Q 281.6 315.2 281.6 345.6 Q 281.6 376 296.8 403.2 Q 312.8 430.4 339.2 445.6 Q 365.6 460.8 396.8 460.8 Q 428 460.8 454.4 445.6 Q 480.8 430.4 496.8 403.2 Q 512 376 512 345.6 Q 512 315.2 496.8 288 Q 480.8 260.8 454.4 245.6 Q 428 230.4 396.8 230.4 L 396.8 230.4 Z M 343.2 348 Q 335.2 339.2 343.2 330.4 L 388 285.6 Q 396.8 277.6 405.6 285.6 L 450.4 330.4 Q 458.4 339.2 450.4 348 Q 441.6 356 432.8 348 L 409.6 325.6 L 409.6 396.8 Q 408.8 408.8 396.8 409.6 Q 384.8 408.8 384 396.8 L 384 325.6 L 360.8 348 Q 352 356 343.2 348 L 343.2 348 Z" />
</svg>