<svg xmlns="http://www.w3.org/2000/svg" viewBox="0 0 640 448">
  <path d="M 64 48 Q 49 49 48 64 L 48 96 L 48 96 L 64 96 L 64 96 Q 91 97 109 115 Q 127 133 128 160 L 128 288 L 128 288 Q 127 315 109 333 Q 91 351 64 352 L 48 352 L 48 352 L 48 384 L 48 384 Q 49 399 64 400 L 296 400 L 296 400 L 296 333 L 296 333 Q 257 324 233 295 Q 209 265 208 224 Q 209 183 233 153 Q 257 124 296 115 L 296 48 L 296 48 L 64 48 L 64 48 Z M 344 333 L 344 400 L 344 333 L 344 400 L 576 400 L 576 400 Q 591 399 592 384 L 592 352 L 592 352 L 576 352 L 576 352 Q 549 351 531 333 Q 513 315 512 288 L 512 160 L 512 160 Q 513 133 531 115 Q 549 97 576 96 L 592 96 L 592 96 L 592 64 L 592 64 Q 591 49 576 48 L 344 48 L 344 48 L 344 115 L 344 115 Q 383 124 407 153 Q 431 183 432 224 Q 431 265 407 295 Q 383 324 344 333 L 344 333 Z M 344 165 L 344 283 L 344 165 L 344 283 Q 362 276 373 260 Q 384 244 384 224 Q 384 204 373 188 Q 362 172 344 165 L 344 165 Z M 296 165 Q 278 172 267 188 L 267 188 L 267 188 Q 256 203 256 224 Q 256 244 267 260 Q 278 276 296 283 L 296 164 L 296 165 Z M 48 144 L 48 304 L 48 144 L 48 304 L 64 304 L 64 304 Q 79 303 80 288 L 80 160 L 80 160 Q 79 145 64 144 L 48 144 L 48 144 Z M 576 304 L 592 304 L 576 304 L 592 304 L 592 144 L 592 144 L 576 144 L 576 144 Q 561 145 560 160 L 560 288 L 560 288 Q 561 303 576 304 L 576 304 Z M 0 64 Q 1 37 19 19 L 19 19 L 19 19 Q 37 1 64 0 L 576 0 L 576 0 Q 603 1 621 19 Q 639 37 640 64 L 640 384 L 640 384 Q 639 411 621 429 Q 603 447 576 448 L 64 448 L 64 448 Q 37 447 19 429 Q 1 411 0 384 L 0 64 L 0 64 Z" />
</svg>