<svg xmlns="http://www.w3.org/2000/svg" viewBox="0 0 448 448">
  <path d="M 48 64 Q 49 49 64 48 L 384 48 L 384 48 Q 399 49 400 64 L 400 384 L 400 384 Q 399 399 384 400 L 64 400 L 64 400 Q 49 399 48 384 L 48 64 L 48 64 Z M 64 0 Q 37 1 19 19 L 19 19 L 19 19 Q 1 37 0 64 L 0 384 L 0 384 Q 1 411 19 429 Q 37 447 64 448 L 384 448 L 384 448 Q 411 447 429 429 Q 447 411 448 384 L 448 64 L 448 64 Q 447 37 429 19 Q 411 1 384 0 L 64 0 L 64 0 Z M 87 241 L 175 329 L 87 241 L 175 329 Q 192 343 209 329 Q 223 312 209 295 L 162 248 L 162 248 L 344 248 L 344 248 Q 366 246 368 224 Q 366 202 344 200 L 162 200 L 162 200 L 209 153 L 209 153 Q 223 136 209 119 Q 192 105 175 119 L 87 207 L 87 207 Q 73 224 87 241 L 87 241 Z" />
</svg>