<svg xmlns="http://www.w3.org/2000/svg" viewBox="0 0 512 448">
  <path d="M 295 369 L 167 241 L 295 369 L 167 241 Q 153 224 167 207 L 295 79 L 295 79 Q 312 65 329 79 Q 343 96 329 113 L 242 200 L 242 200 L 488 200 L 488 200 Q 510 202 512 224 Q 510 246 488 248 L 242 248 L 242 248 L 329 335 L 329 335 Q 343 352 329 369 Q 312 383 295 369 L 295 369 Z M 168 48 L 88 48 L 168 48 L 88 48 Q 71 48 60 60 Q 48 71 48 88 L 48 360 L 48 360 Q 48 377 60 388 Q 71 400 88 400 L 168 400 L 168 400 Q 190 402 192 424 Q 190 446 168 448 L 88 448 L 88 448 Q 51 447 26 422 Q 1 397 0 360 L 0 88 L 0 88 Q 1 51 26 26 Q 51 1 88 0 L 168 0 L 168 0 Q 190 2 192 24 Q 190 46 168 48 L 168 48 Z" />
</svg>