<svg xmlns="http://www.w3.org/2000/svg" viewBox="0 0 512 512">
  <path d="M 0 49.77778 Q 1.7777778 30.222221 21.333334 28.444445 L 320 28.444445 Q 339.55554 30.222221 341.33334 49.77778 Q 339.55554 69.333336 320 71.111115 L 312.8889 71.111115 L 312.8889 88 Q 312 144 273.77777 184 L 200.88889 256 L 240 295.1111 Q 227.55556 322.66666 227.55556 355.55554 Q 227.55556 395.55554 245.33333 428.44446 Q 263.1111 462.22223 294.22223 483.55554 L 21.333334 483.55554 Q 1.7777778 481.77777 0 462.22223 Q 1.7777778 442.66666 21.333334 440.8889 L 28.444445 440.8889 L 28.444445 424 Q 29.333334 368 68.44444 328.8889 L 140.44444 256 L 68.44444 184 Q 29.333334 144 28.444445 88 L 28.444445 71.111115 L 21.333334 71.111115 Q 1.7777778 69.333336 0 49.77778 L 0 49.77778 Z M 88.888885 142.22223 L 252.44444 142.22223 Q 270.22223 118.22222 270.22223 88 L 270.22223 71.111115 L 71.111115 71.111115 L 71.111115 88 Q 71.111115 118.22222 88.888885 142.22223 L 88.888885 142.22223 Z M 256 355.55554 Q 256 320.8889 272.8889 291.55554 L 272.8889 291.55554 Q 289.77777 262.22223 320 244.44444 Q 350.22223 227.55556 384 227.55556 Q 417.77777 227.55556 448 244.44444 Q 478.22223 262.22223 495.1111 291.55554 Q 512 320.8889 512 355.55554 Q 512 390.22223 495.1111 419.55554 Q 478.22223 448.8889 448 466.66666 Q 417.77777 483.55554 384 483.55554 Q 350.22223 483.55554 320 466.66666 Q 289.77777 448.8889 272.8889 419.55554 Q 256 390.22223 256 355.55554 L 256 355.55554 Z M 384 284.44446 Q 370.66666 285.33334 369.77777 298.66666 L 369.77777 355.55554 Q 370.66666 368.8889 384 369.77777 L 426.66666 369.77777 Q 440 368.8889 440.8889 355.55554 Q 440 342.22223 426.66666 341.33334 L 398.22223 341.33334 L 398.22223 298.66666 Q 397.33334 285.33334 384 284.44446 L 384 284.44446 Z" />
</svg>