<svg xmlns="http://www.w3.org/2000/svg" viewBox="0 0 578 384">
  <path d="M 152 139 Q 183 104 230 76 Q 277 49 322 48 Q 356 49 393 65 Q 430 81 463 107 Q 495 133 513 158 Q 531 184 530 192 Q 531 200 513 226 Q 495 251 463 277 Q 430 303 393 319 Q 356 335 322 336 Q 277 335 230 308 Q 183 281 152 245 Q 137 231 120 242 L 61 286 L 61 286 L 80 205 L 80 205 Q 83 192 80 179 L 61 100 L 61 100 L 120 143 L 120 143 Q 137 153 152 139 L 152 139 Z M 322 0 Q 260 2 206 34 Q 163 59 131 92 L 59 39 L 59 39 Q 50 32 39 32 Q 22 33 12 45 Q 2 57 6 74 L 33 190 L 33 190 Q 33 192 33 194 L 4 318 L 4 318 Q 0 335 12 348 L 29 331 L 29 331 L 12 348 L 12 348 Q 32 365 54 351 L 132 293 L 132 293 Q 164 325 207 350 Q 260 382 322 384 Q 368 383 412 363 Q 456 343 492 315 Q 529 286 552 255 Q 576 225 578 192 Q 576 159 552 129 Q 529 98 492 69 Q 456 41 412 21 Q 368 1 322 0 L 322 0 Z M 317 107 Q 327 96 317 85 Q 306 75 295 85 L 231 149 L 231 149 Q 221 160 231 171 Q 242 181 253 171 L 317 107 L 317 107 Z M 429 123 Q 439 112 429 101 Q 418 91 407 101 L 247 261 L 247 261 Q 237 272 247 283 Q 258 293 269 283 L 429 123 L 429 123 Z M 445 235 Q 455 224 445 213 Q 434 203 423 213 L 359 277 L 359 277 Q 349 288 359 299 Q 370 309 381 299 L 445 235 L 445 235 Z" />
</svg>