<svg xmlns="http://www.w3.org/2000/svg" viewBox="0 0 644 480">
  <path d="M 210 160 L 210 163 L 210 160 L 210 163 Q 210 174 212 184 Q 212 184 212 184 Q 212 184 212 184 L 231 290 L 231 290 L 240 339 L 240 339 Q 242 350 242 361 L 242 363 L 242 363 Q 242 378 238 393 L 250 386 L 250 386 Q 284 368 322 368 Q 360 368 393 386 L 406 393 L 406 393 Q 402 378 402 363 L 402 361 L 402 361 Q 402 350 404 339 L 413 290 L 413 290 Q 413 290 413 290 Q 413 290 413 290 L 432 184 L 432 184 Q 432 184 432 184 Q 432 184 432 184 Q 432 184 432 184 Q 432 184 432 184 Q 434 174 434 163 L 434 160 L 434 160 Q 433 112 401 81 Q 369 49 322 48 Q 274 49 243 81 Q 211 112 210 160 L 210 160 Z M 450 367 Q 452 395 472 413 L 472 413 L 472 413 Q 491 431 519 432 Q 544 432 562 417 Q 581 402 586 378 L 595 339 L 595 339 Q 601 318 623 321 Q 644 327 642 349 L 633 388 L 633 388 Q 624 429 592 454 Q 561 479 519 480 L 519 480 L 519 480 Q 468 480 423 456 L 371 428 L 371 428 Q 348 416 322 416 Q 296 416 273 428 L 221 456 L 221 456 Q 176 480 125 480 Q 83 479 52 454 Q 20 429 11 388 L 3 349 L 3 349 Q 0 327 21 321 Q 43 318 49 339 L 58 378 L 58 378 Q 63 402 82 417 Q 100 432 125 432 Q 153 431 172 413 Q 192 395 194 367 Q 178 376 159 376 Q 134 376 115 361 Q 96 347 89 323 L 75 277 L 75 277 Q 70 260 56 250 Q 43 240 26 240 Q 4 238 2 216 Q 4 194 26 192 Q 60 192 85 212 Q 111 231 121 263 L 135 310 L 135 310 Q 141 327 159 328 Q 171 328 178 319 Q 186 310 184 298 Q 184 298 184 298 L 165 193 L 165 193 Q 165 193 165 193 Q 165 193 165 193 Q 165 193 165 193 Q 165 193 165 193 Q 162 178 162 164 Q 162 164 162 164 Q 162 164 162 163 L 162 160 L 162 160 Q 164 92 209 47 Q 254 2 322 0 Q 390 2 435 47 Q 480 92 482 160 L 482 163 L 482 163 Q 482 163 482 163 Q 482 163 482 164 Q 482 178 479 193 Q 479 193 479 193 Q 479 193 479 193 Q 479 193 479 193 Q 479 193 479 193 L 460 298 L 460 298 Q 460 298 460 298 Q 460 298 460 298 Q 458 310 466 319 Q 473 328 485 328 Q 503 327 509 310 L 523 263 L 523 263 Q 533 231 559 212 Q 584 192 618 192 Q 640 194 642 216 Q 640 238 618 240 Q 601 240 588 250 Q 574 260 569 277 L 555 323 L 555 323 Q 548 347 529 361 Q 510 376 485 376 Q 466 376 450 367 L 450 367 Z M 258 268 Q 260 250 278 248 Q 296 250 298 268 Q 296 286 278 288 Q 260 286 258 268 L 258 268 Z M 366 248 Q 384 250 386 268 Q 384 286 366 288 Q 348 286 346 268 Q 348 250 366 248 L 366 248 Z" />
</svg>