<svg xmlns="http://www.w3.org/2000/svg" viewBox="0 0 512 512">
  <path d="M 469.33334 422.66666 L 469.33334 81.333336 Q 468.44446 68 455.1111 67.111115 Q 441.77777 68 440.8889 81.333336 L 440.8889 422.66666 Q 441.77777 436 455.1111 436.8889 Q 468.44446 436 469.33334 422.66666 L 469.33334 422.66666 Z M 398.22223 81.333336 Q 399.1111 57.333332 415.1111 41.333332 L 415.1111 41.333332 Q 431.1111 25.333334 455.1111 24.444445 Q 479.1111 25.333334 495.1111 41.333332 Q 511.1111 57.333332 512 81.333336 L 512 422.66666 Q 511.1111 446.66666 495.1111 462.66666 Q 479.1111 478.66666 455.1111 479.55554 Q 431.1111 478.66666 415.1111 462.66666 Q 399.1111 446.66666 398.22223 422.66666 L 398.22223 81.333336 L 398.22223 81.333336 Z M 334.22223 422.66666 L 334.22223 195.11111 Q 333.33334 181.77777 320 180.88889 Q 306.66666 181.77777 305.77777 195.11111 L 305.77777 422.66666 Q 306.66666 436 320 436.8889 Q 333.33334 436 334.22223 422.66666 L 334.22223 422.66666 Z M 263.1111 195.11111 Q 264 171.11111 280 155.11111 L 280 155.11111 Q 296 139.11111 320 138.22223 Q 344 139.11111 360 155.11111 Q 376 171.11111 376.8889 195.11111 L 376.8889 422.66666 Q 376 446.66666 360 462.66666 Q 344 478.66666 320 479.55554 Q 296 478.66666 280 462.66666 Q 264 446.66666 263.1111 422.66666 L 263.1111 195.11111 L 263.1111 195.11111 Z M 184.88889 436.8889 Q 198.22223 436 199.11111 422.66666 L 199.11111 308.8889 Q 198.22223 295.55554 184.88889 294.66666 Q 171.55556 295.55554 170.66667 308.8889 L 170.66667 422.66666 Q 171.55556 436 184.88889 436.8889 L 184.88889 436.8889 Z M 184.88889 252 Q 208.88889 252.88889 224.88889 268.8889 L 224.88889 268.8889 Q 240.88889 284.8889 241.77777 308.8889 L 241.77777 422.66666 Q 240.88889 446.66666 224.88889 462.66666 Q 208.88889 478.66666 184.88889 479.55554 Q 160.88889 478.66666 144.88889 462.66666 Q 128.88889 446.66666 128 422.66666 L 128 308.8889 Q 128.88889 284.8889 144.88889 268.8889 Q 160.88889 252.88889 184.88889 252 L 184.88889 252 Z M 56.88889 436.8889 Q 70.22222 436 71.111115 422.66666 Q 70.22222 409.33334 56.88889 408.44446 Q 43.555557 409.33334 42.666668 422.66666 Q 43.555557 436 56.88889 436.8889 L 56.88889 436.8889 Z M 113.77778 422.66666 Q 112.888885 454.66666 85.333336 471.55554 Q 56.88889 487.55554 28.444445 471.55554 Q 0.8888889 454.66666 0 422.66666 Q 0.8888889 390.66666 28.444445 373.77777 Q 56.88889 357.77777 85.333336 373.77777 Q 112.888885 390.66666 113.77778 422.66666 L 113.77778 422.66666 Z" />
</svg>