<svg xmlns="http://www.w3.org/2000/svg" viewBox="0 0 639 512">
  <path d="M 224 48 Q 269 49 293 88 Q 315 128 293 168 Q 269 207 224 208 Q 179 207 155 168 Q 133 128 155 88 Q 179 49 224 48 L 224 48 Z M 224 256 Q 259 256 288 239 L 288 239 L 288 239 Q 317 222 335 192 Q 352 162 352 128 Q 352 94 335 64 Q 317 34 288 17 Q 259 0 224 0 Q 189 0 160 17 Q 131 34 113 64 Q 96 94 96 128 Q 96 162 113 192 Q 131 222 160 239 Q 189 256 224 256 L 224 256 Z M 178 352 L 270 352 L 178 352 L 270 352 Q 320 353 356 384 Q 391 415 399 464 L 49 464 L 49 464 Q 57 415 92 384 Q 128 353 178 352 L 178 352 Z M 178 304 Q 103 306 52 356 L 52 356 L 52 356 Q 2 407 0 482 Q 0 495 9 503 Q 17 512 30 512 L 418 512 L 418 512 Q 431 512 439 503 Q 448 495 448 482 Q 446 407 396 356 Q 345 306 270 304 L 178 304 L 178 304 Z M 625 177 Q 639 160 625 143 Q 608 129 591 143 L 480 254 L 480 254 L 433 207 L 433 207 Q 416 193 399 207 Q 385 224 399 241 L 463 305 L 463 305 Q 480 319 497 305 L 625 177 L 625 177 Z" />
</svg>