<svg xmlns="http://www.w3.org/2000/svg" viewBox="0 0 448 519">
  <path d="M 241 505 Q 224 519 207 505 L 79 377 L 79 377 Q 65 360 79 343 Q 96 329 113 343 L 200 430 L 200 430 L 200 184 L 200 184 Q 202 162 224 160 Q 246 162 248 184 L 248 430 L 248 430 L 335 343 L 335 343 Q 352 329 369 343 Q 383 360 369 377 L 241 505 L 241 505 Z M 48 168 Q 46 190 24 192 Q 2 190 0 168 L 0 88 L 0 88 Q 1 51 26 26 Q 51 1 88 0 L 360 0 L 360 0 Q 397 1 422 26 Q 447 51 448 88 L 448 168 L 448 168 Q 446 190 424 192 Q 402 190 400 168 L 400 88 L 400 88 Q 400 71 388 60 Q 377 48 360 48 L 88 48 L 88 48 Q 71 48 60 60 Q 48 71 48 88 L 48 168 L 48 168 Z" />
</svg>