<svg xmlns="http://www.w3.org/2000/svg" viewBox="0 0 640 507">
  <path d="M 256 149 Q 256 160 254 171 L 176 171 L 176 171 Q 170 153 157 139 Q 145 124 135 116 Q 128 111 121 116 Q 111 124 99 139 Q 86 153 80 171 L 2 171 L 2 171 Q 0 160 0 149 Q 2 102 29 64 Q 57 27 86 5 Q 92 1 99 0 Q 109 0 117 8 L 154 45 L 154 45 L 163 36 L 163 36 Q 180 21 197 35 Q 231 70 244 100 Q 257 129 256 149 L 256 149 Z M 452 85 Q 478 60 515 59 L 550 59 L 550 59 Q 586 60 612 85 L 626 99 L 626 99 Q 640 113 640 132 Q 639 152 626 165 Q 613 179 593 179 L 543 179 L 543 179 Q 539 179 537 182 L 312 445 L 312 445 Q 287 475 252 491 Q 217 507 177 507 L 172 507 L 172 507 Q 99 505 50 457 Q 2 408 0 335 Q 0 321 2 307 L 12 248 L 12 248 Q 1 241 0 227 Q 2 205 24 203 L 40 203 L 248 203 Q 270 205 272 227 Q 270 248 249 251 L 228 309 L 228 309 L 318 219 L 318 219 L 311 212 L 311 212 Q 297 195 311 178 Q 328 164 345 178 L 352 185 L 352 185 L 366 171 L 366 171 L 359 164 L 359 164 Q 345 147 359 130 Q 376 116 393 130 L 400 137 L 400 137 L 414 123 L 414 123 L 407 116 L 407 116 Q 393 99 407 82 Q 424 68 441 82 L 448 89 L 448 89 L 452 85 L 452 85 Z M 256 349 Q 242 363 223 363 L 220 363 L 220 363 Q 201 362 189 350 Q 176 337 176 319 Q 176 311 179 303 L 198 251 L 198 251 L 60 251 L 60 251 L 50 315 L 50 315 Q 48 325 48 335 Q 49 388 84 423 Q 119 458 172 459 L 177 459 L 177 459 Q 236 458 276 414 L 500 151 L 500 151 Q 517 131 543 131 L 590 131 L 590 131 L 578 119 L 578 119 Q 566 107 549 107 L 514 107 L 514 107 Q 498 107 486 119 L 466 139 L 466 139 Q 465 139 465 140 Q 465 140 465 140 Q 465 140 465 140 Q 464 140 464 141 L 418 187 L 418 187 Q 418 187 418 187 Q 417 188 417 188 Q 417 188 416 189 Q 416 189 416 189 L 370 235 L 370 235 Q 370 235 369 235 Q 369 236 369 236 Q 369 236 369 236 Q 368 237 368 237 L 256 349 L 256 349 Z M 120 283 Q 142 285 144 307 Q 142 329 120 331 Q 98 329 96 307 Q 98 285 120 283 L 120 283 Z" />
</svg>