<svg xmlns="http://www.w3.org/2000/svg" viewBox="0 0 512 512">
  <path d="M 115.2 153.6 Q 116 117.6 147.2 98.4 Q 179.2 80.8 211.2 98.4 Q 242.4 117.6 243.2 153.6 Q 242.4 189.6 211.2 208.8 Q 179.2 226.4 147.2 208.8 Q 116 189.6 115.2 153.6 L 115.2 153.6 Z M 281.6 153.6 Q 281.6 125.6 268 102.4 L 268 102.4 Q 254.4 79.2 230.4 64.8 Q 206.4 51.2 179.2 51.2 Q 152 51.2 128 64.8 Q 104 79.2 90.4 102.4 Q 76.8 125.6 76.8 153.6 Q 76.8 181.6 90.4 204.8 Q 104 228 128 242.4 Q 152 256 179.2 256 Q 206.4 256 230.4 242.4 Q 254.4 228 268 204.8 Q 281.6 181.6 281.6 153.6 L 281.6 153.6 Z M 216 332.8 Q 256 333.6 284.8 358.4 L 284.8 358.4 Q 312.8 383.2 319.2 422.4 L 39.2 422.4 Q 45.6 383.2 73.6 358.4 Q 102.4 333.6 142.4 332.8 L 216 332.8 L 216 332.8 Z M 142.4 294.4 Q 82.4 296 41.6 336 L 41.6 336 Q 1.6 376.8 0 436.8 Q 0 447.2 7.2 453.6 Q 13.6 460.8 24 460.8 L 334.4 460.8 Q 344.8 460.8 351.2 453.6 Q 358.4 447.2 358.4 436.8 Q 356.8 376.8 316.8 336 Q 276 296 216 294.4 L 179.2 294.4 L 142.4 294.4 L 142.4 294.4 Z M 377.6 211.2 Q 360 212.8 358.4 230.4 Q 360 248 377.6 249.6 L 492.8 249.6 Q 510.4 248 512 230.4 Q 510.4 212.8 492.8 211.2 L 377.6 211.2 L 377.6 211.2 Z" />
</svg>