<svg xmlns="http://www.w3.org/2000/svg" viewBox="0 0 512 432">
  <path d="M 24 0 Q 2 2 0 24 Q 2 46 24 48 L 200 48 L 200 48 Q 222 46 224 24 Q 222 2 200 0 L 24 0 L 24 0 Z M 24 128 Q 2 130 0 152 Q 2 174 24 176 L 200 176 L 200 176 Q 222 174 224 152 Q 222 130 200 128 L 24 128 L 24 128 Z M 0 280 Q 2 302 24 304 L 200 304 L 200 304 Q 222 302 224 280 Q 222 258 200 256 L 24 256 L 24 256 Q 2 258 0 280 L 0 280 Z M 24 384 Q 2 386 0 408 Q 2 430 24 432 L 200 432 L 200 432 Q 222 430 224 408 Q 222 386 200 384 L 24 384 L 24 384 Z M 288 152 Q 290 174 312 176 L 488 176 L 488 176 Q 510 174 512 152 Q 510 130 488 128 L 312 128 L 312 128 Q 290 130 288 152 L 288 152 Z M 312 0 Q 290 2 288 24 Q 290 46 312 48 L 488 48 L 488 48 Q 510 46 512 24 Q 510 2 488 0 L 312 0 L 312 0 Z M 288 280 Q 290 302 312 304 L 488 304 L 488 304 Q 510 302 512 280 Q 510 258 488 256 L 312 256 L 312 256 Q 290 258 288 280 L 288 280 Z M 312 384 Q 290 386 288 408 Q 290 430 312 432 L 488 432 L 488 432 Q 510 430 512 408 Q 510 386 488 384 L 312 384 L 312 384 Z" />
</svg>