<svg xmlns="http://www.w3.org/2000/svg" viewBox="0 0 519 519">
  <path d="M 208 48 Q 269 49 312 86 L 279 119 L 279 119 Q 268 131 274 145 Q 280 159 296 160 L 392 160 L 392 160 Q 414 158 416 136 L 416 40 L 416 40 Q 415 24 401 18 Q 387 12 375 23 L 346 52 L 346 52 Q 289 2 208 0 Q 132 1 77 46 Q 22 92 5 163 Q 2 185 23 191 Q 25 192 27 192 L 30 192 L 30 192 Q 47 190 52 173 Q 65 118 107 84 Q 150 49 208 48 L 208 48 Z M 386 224 Q 369 226 364 243 Q 351 298 309 332 Q 266 367 208 368 Q 147 367 104 330 L 137 297 L 137 297 Q 148 285 142 271 Q 136 257 120 256 L 24 256 L 24 256 Q 2 258 0 280 L 0 376 L 0 376 Q 1 392 15 398 Q 29 404 41 393 L 70 364 L 70 364 Q 127 414 208 416 Q 283 415 337 371 L 471 505 L 471 505 Q 488 519 505 505 Q 519 488 505 471 L 371 337 L 371 337 Q 400 300 411 253 Q 414 231 393 225 Q 391 224 389 224 Q 389 224 389 224 L 386 224 L 386 224 Z" />
</svg>