<svg xmlns="http://www.w3.org/2000/svg" viewBox="0 0 512 512">
  <path d="M 208 85 L 208 48 L 272 48 L 272 85 Q 272 112 289 134 L 327 105 L 289 134 L 367 235 Q 384 256 384 284 L 384 288 L 96 288 L 96 284 Q 96 257 113 235 L 191 134 Q 208 112 208 85 L 208 85 Z M 96 416 L 384 416 L 384 448 Q 383 463 368 464 L 112 464 Q 97 463 96 448 L 96 416 L 96 416 Z M 339 120 L 327 105 Q 320 96 320 85 L 320 48 Q 342 46 344 24 Q 342 2 320 0 L 272 0 L 208 0 L 160 0 Q 138 2 136 24 Q 138 46 160 48 L 160 85 Q 160 96 153 105 L 75 205 Q 48 240 48 284 L 48 448 Q 49 475 67 493 Q 85 511 112 512 L 368 512 Q 395 511 413 493 Q 431 475 432 448 L 432 284 Q 432 258 422 234 Q 441 225 452 208 Q 464 190 464 168 Q 463 137 443 117 Q 423 97 392 96 Q 359 97 339 120 L 339 120 Z M 416 168 Q 414 188 395 192 L 370 160 Q 376 145 392 144 Q 414 146 416 168 L 416 168 Z" />
</svg>