<svg xmlns="http://www.w3.org/2000/svg" viewBox="0 0 512 512">
  <path d="M 95.498436 69.818184 Q 97.10345 52.16301 114.75862 50.557995 L 435.76175 50.557995 Q 453.41693 52.16301 455.02194 69.818184 Q 453.41693 87.47335 435.76175 89.07837 L 300.94043 89.07837 L 300.94043 153.27899 L 307.3605 153.27899 L 307.3605 153.27899 L 307.3605 153.27899 L 307.3605 153.27899 L 307.3605 153.27899 L 308.163 153.27899 L 308.163 153.27899 L 308.163 153.27899 L 308.163 153.27899 L 308.163 153.27899 L 308.163 153.27899 L 308.163 153.27899 L 308.163 153.27899 L 308.163 153.27899 L 308.163 153.27899 L 308.9655 153.27899 L 308.9655 153.27899 L 308.9655 153.27899 L 308.9655 153.27899 L 308.9655 153.27899 L 308.9655 153.27899 L 308.9655 153.27899 L 308.9655 153.27899 L 308.9655 153.27899 L 308.9655 153.27899 L 309.76804 153.27899 L 309.76804 153.27899 L 309.76804 153.27899 L 309.76804 153.27899 L 309.76804 153.27899 L 309.76804 153.27899 L 309.76804 153.27899 L 309.76804 153.27899 L 309.76804 153.27899 L 309.76804 153.27899 L 310.57053 153.27899 L 310.57053 153.27899 L 310.57053 153.27899 L 310.57053 153.27899 L 310.57053 153.27899 L 310.57053 153.27899 L 310.57053 153.27899 L 310.57053 153.27899 L 310.57053 153.27899 L 310.57053 153.27899 L 311.37305 153.27899 L 311.37305 153.27899 L 311.37305 153.27899 L 311.37305 153.27899 L 311.37305 153.27899 L 311.37305 153.27899 L 311.37305 153.27899 L 311.37305 153.27899 L 311.37305 153.27899 L 311.37305 153.27899 L 312.17554 153.27899 L 312.17554 153.27899 L 312.17554 153.27899 L 312.17554 153.27899 L 312.17554 153.27899 L 312.17554 153.27899 L 312.17554 153.27899 L 312.17554 153.27899 L 312.17554 153.27899 L 312.17554 153.27899 L 312.97806 153.27899 L 312.97806 153.27899 L 312.97806 153.27899 L 312.97806 153.27899 L 312.97806 153.27899 L 312.97806 153.27899 L 312.97806 153.27899 L 312.97806 153.27899 L 312.97806 153.27899 L 312.97806 153.27899 L 313.78058 153.27899 L 313.78058 153.27899 L 313.78058 153.27899 L 313.78058 153.27899 L 313.78058 153.27899 L 313.78058 153.27899 L 313.78058 153.27899 L 313.78058 153.27899 L 313.78058 153.27899 L 313.78058 153.27899 L 314.58307 153.27899 L 314.58307 153.27899 L 314.58307 153.27899 L 314.58307 153.27899 L 314.58307 153.27899 L 314.58307 153.27899 L 314.58307 153.27899 L 314.58307 153.27899 L 314.58307 153.27899 L 314.58307 153.27899 L 315.3856 153.27899 L 315.3856 153.27899 L 315.3856 153.27899 L 315.3856 153.27899 L 315.3856 153.27899 L 315.3856 153.27899 L 315.3856 153.27899 L 315.3856 153.27899 L 315.3856 153.27899 L 315.3856 153.27899 L 316.18808 153.27899 L 316.18808 153.27899 L 316.18808 153.27899 L 316.18808 153.27899 L 316.18808 153.27899 L 316.18808 153.27899 L 316.18808 153.27899 L 316.18808 153.27899 L 316.18808 153.27899 L 316.18808 153.27899 L 316.9906 153.27899 L 316.9906 153.27899 L 316.9906 153.27899 L 316.9906 153.27899 L 316.9906 153.27899 L 316.9906 153.27899 L 316.9906 153.27899 L 316.9906 153.27899 L 316.9906 153.27899 L 316.9906 153.27899 L 317.7931 153.27899 L 317.7931 153.27899 L 317.7931 153.27899 L 317.7931 153.27899 L 317.7931 153.27899 L 317.7931 153.27899 L 317.7931 153.27899 L 317.7931 153.27899 L 317.7931 153.27899 L 317.7931 153.27899 L 318.5956 153.27899 L 318.5956 153.27899 L 318.5956 153.27899 L 318.5956 153.27899 L 318.5956 153.27899 L 318.5956 153.27899 L 318.5956 153.27899 L 318.5956 153.27899 L 318.5956 153.27899 L 318.5956 153.27899 L 319.39813 153.27899 L 319.39813 153.27899 L 319.39813 153.27899 L 319.39813 153.27899 L 319.39813 153.27899 L 319.39813 153.27899 L 319.39813 153.27899 L 319.39813 153.27899 L 319.39813 153.27899 L 319.39813 153.27899 L 320.20062 153.27899 L 320.20062 153.27899 L 320.20062 153.27899 L 320.20062 153.27899 L 320.20062 153.27899 L 320.20062 153.27899 L 320.20062 153.27899 L 320.20062 153.27899 L 320.20062 153.27899 L 320.20062 153.27899 L 321.00314 153.27899 L 321.00314 153.27899 L 321.00314 153.27899 L 321.00314 153.27899 L 321.00314 153.27899 L 321.00314 153.27899 L 321.00314 153.27899 L 321.00314 153.27899 L 321.00314 153.27899 L 321.00314 153.27899 L 321.80563 153.27899 L 321.80563 153.27899 L 321.80563 153.27899 L 321.80563 153.27899 L 321.80563 153.27899 L 321.80563 153.27899 L 321.80563 153.27899 L 321.80563 153.27899 L 321.80563 153.27899 L 321.80563 153.27899 L 322.60815 153.27899 L 322.60815 153.27899 L 322.60815 153.27899 L 322.60815 153.27899 L 322.60815 153.27899 L 322.60815 153.27899 L 322.60815 153.27899 L 322.60815 153.27899 L 322.60815 153.27899 L 322.60815 153.27899 L 323.41064 153.27899 L 323.41064 153.27899 L 323.41064 153.27899 L 323.41064 153.27899 L 323.41064 153.27899 L 323.41064 153.27899 L 323.41064 153.27899 L 323.41064 153.27899 L 323.41064 153.27899 L 323.41064 153.27899 L 324.21317 153.27899 L 324.21317 153.27899 L 324.21317 153.27899 L 324.21317 153.27899 L 324.21317 153.27899 L 324.21317 153.27899 L 324.21317 153.27899 L 324.21317 153.27899 L 324.21317 153.27899 L 324.21317 153.27899 L 325.0157 153.27899 L 325.0157 153.27899 L 325.0157 153.27899 L 325.0157 153.27899 L 325.0157 153.27899 L 325.0157 153.27899 L 325.0157 153.27899 L 325.0157 153.27899 L 325.0157 153.27899 L 325.0157 153.27899 L 325.81818 153.27899 L 325.81818 153.27899 L 325.81818 153.27899 L 325.81818 153.27899 L 325.81818 153.27899 L 325.81818 153.27899 L 325.81818 153.27899 L 325.81818 153.27899 L 325.81818 153.27899 L 325.81818 153.27899 L 326.6207 153.27899 L 326.6207 153.27899 L 326.6207 153.27899 L 326.6207 153.27899 L 326.6207 153.27899 L 326.6207 153.27899 L 326.6207 153.27899 L 326.6207 153.27899 L 326.6207 153.27899 L 326.6207 153.27899 L 327.4232 153.27899 L 327.4232 153.27899 L 327.4232 153.27899 L 327.4232 153.27899 L 327.4232 153.27899 L 327.4232 153.27899 L 327.4232 153.27899 L 327.4232 153.27899 L 327.4232 153.27899 L 327.4232 153.27899 L 328.2257 153.27899 L 328.2257 153.27899 L 328.2257 153.27899 L 328.2257 153.27899 L 328.2257 153.27899 L 328.2257 153.27899 L 328.2257 153.27899 L 328.2257 153.27899 L 328.2257 153.27899 L 328.2257 153.27899 L 329.0282 153.27899 L 329.0282 153.27899 L 329.0282 153.27899 L 329.0282 153.27899 L 329.0282 153.27899 L 329.0282 153.27899 L 329.0282 153.27899 L 329.0282 153.27899 L 329.0282 153.27899 L 329.0282 153.27899 L 329.83072 153.27899 L 329.83072 153.27899 L 329.83072 153.27899 L 329.83072 153.27899 L 329.83072 153.27899 L 329.83072 153.27899 L 329.83072 153.27899 L 329.83072 153.27899 L 329.83072 153.27899 L 329.83072 153.27899 L 330.63324 153.27899 L 330.63324 153.27899 L 330.63324 153.27899 L 330.63324 153.27899 L 330.63324 153.27899 L 330.63324 153.27899 L 330.63324 153.27899 L 330.63324 153.27899 L 330.63324 153.27899 L 330.63324 153.27899 L 331.43573 153.27899 L 331.43573 153.27899 L 331.43573 153.27899 L 331.43573 153.27899 L 331.43573 153.27899 L 331.43573 153.27899 L 331.43573 153.27899 L 331.43573 153.27899 L 331.43573 153.27899 L 331.43573 153.27899 L 332.23825 153.27899 L 332.23825 153.27899 L 332.23825 153.27899 L 332.23825 153.27899 L 332.23825 153.27899 L 332.23825 153.27899 L 332.23825 153.27899 L 332.23825 153.27899 L 332.23825 153.27899 L 332.23825 153.27899 L 333.04074 153.27899 L 333.04074 153.27899 L 333.04074 153.27899 L 333.04074 153.27899 L 333.04074 153.27899 L 333.04074 153.27899 L 333.04074 153.27899 L 333.04074 153.27899 L 333.04074 153.27899 L 333.04074 153.27899 L 333.84326 153.27899 L 333.84326 153.27899 L 333.84326 153.27899 L 333.84326 153.27899 L 333.84326 153.27899 L 333.84326 153.27899 L 333.84326 153.27899 L 333.84326 153.27899 L 333.84326 153.27899 L 333.84326 153.27899 L 334.64578 153.27899 L 334.64578 153.27899 L 334.64578 153.27899 L 334.64578 153.27899 L 334.64578 153.27899 L 334.64578 153.27899 L 334.64578 153.27899 L 334.64578 153.27899 L 334.64578 153.27899 L 334.64578 153.27899 L 335.44827 153.27899 L 335.44827 153.27899 L 335.44827 153.27899 L 335.44827 153.27899 L 335.44827 153.27899 L 335.44827 153.27899 L 335.44827 153.27899 L 335.44827 153.27899 L 335.44827 153.27899 L 335.44827 153.27899 L 336.2508 153.27899 L 336.2508 153.27899 L 336.2508 153.27899 L 336.2508 153.27899 L 336.2508 153.27899 L 336.2508 153.27899 L 336.2508 153.27899 L 336.2508 153.27899 L 336.2508 153.27899 L 336.2508 153.27899 L 337.05328 153.27899 L 337.05328 153.27899 L 337.05328 153.27899 L 337.05328 153.27899 L 337.05328 153.27899 L 337.05328 153.27899 L 337.05328 153.27899 L 337.05328 153.27899 L 337.05328 153.27899 L 337.05328 153.27899 L 337.8558 153.27899 L 337.8558 153.27899 L 337.8558 153.27899 L 337.8558 153.27899 L 337.8558 153.27899 L 337.8558 153.27899 L 337.8558 153.27899 L 337.8558 153.27899 L 337.8558 153.27899 L 337.8558 153.27899 L 338.6583 153.27899 L 338.6583 153.27899 L 338.6583 153.27899 L 338.6583 153.27899 L 338.6583 153.27899 L 338.6583 153.27899 L 338.6583 153.27899 L 338.6583 153.27899 L 338.6583 153.27899 L 338.6583 153.27899 L 339.46082 153.27899 L 339.46082 153.27899 L 339.46082 153.27899 L 339.46082 153.27899 L 339.46082 153.27899 L 339.46082 153.27899 L 339.46082 153.27899 L 339.46082 153.27899 L 339.46082 153.27899 L 339.46082 153.27899 L 340.26334 153.27899 L 340.26334 153.27899 L 340.26334 153.27899 L 340.26334 153.27899 L 340.26334 153.27899 L 340.26334 153.27899 L 340.26334 153.27899 L 340.26334 153.27899 L 340.26334 153.27899 L 340.26334 153.27899 L 341.06583 153.27899 L 341.06583 153.27899 L 341.06583 153.27899 L 341.06583 153.27899 L 341.06583 153.27899 L 341.06583 153.27899 L 341.06583 153.27899 L 341.06583 153.27899 L 341.06583 153.27899 L 341.06583 153.27899 L 341.86835 153.27899 L 341.86835 153.27899 L 341.86835 153.27899 L 341.86835 153.27899 L 341.86835 153.27899 L 341.86835 153.27899 L 341.86835 153.27899 L 341.86835 153.27899 L 341.86835 153.27899 L 341.86835 153.27899 L 342.67084 153.27899 L 342.67084 153.27899 L 342.67084 153.27899 L 342.67084 153.27899 L 342.67084 153.27899 L 342.67084 153.27899 L 342.67084 153.27899 L 342.67084 153.27899 L 342.67084 153.27899 L 342.67084 153.27899 L 343.47336 153.27899 L 343.47336 153.27899 L 343.47336 153.27899 L 343.47336 153.27899 L 343.47336 153.27899 L 343.47336 153.27899 L 343.47336 153.27899 L 343.47336 153.27899 L 343.47336 153.27899 L 343.47336 153.27899 L 344.27585 153.27899 L 344.27585 153.27899 L 344.27585 153.27899 L 344.27585 153.27899 L 344.27585 153.27899 L 344.27585 153.27899 L 344.27585 153.27899 L 344.27585 153.27899 L 344.27585 153.27899 L 344.27585 153.27899 L 345.07837 153.27899 L 345.07837 153.27899 L 345.07837 153.27899 L 345.07837 153.27899 L 345.07837 153.27899 L 345.07837 153.27899 L 345.07837 153.27899 L 345.07837 153.27899 L 345.07837 153.27899 L 345.07837 153.27899 L 345.8809 153.27899 L 345.8809 153.27899 L 345.8809 153.27899 L 345.8809 153.27899 L 345.8809 153.27899 L 345.8809 153.27899 L 345.8809 153.27899 L 345.8809 153.27899 L 345.8809 153.27899 L 345.8809 153.27899 L 346.68338 153.27899 L 346.68338 153.27899 L 346.68338 153.27899 L 346.68338 153.27899 L 346.68338 153.27899 L 346.68338 153.27899 L 346.68338 153.27899 L 346.68338 153.27899 L 346.68338 153.27899 L 346.68338 153.27899 L 347.4859 153.27899 L 347.4859 153.27899 L 347.4859 153.27899 L 347.4859 153.27899 L 347.4859 153.27899 L 347.4859 153.27899 L 347.4859 153.27899 L 347.4859 153.27899 L 347.4859 153.27899 L 347.4859 153.27899 L 348.2884 153.27899 L 348.2884 153.27899 L 348.2884 153.27899 L 348.2884 153.27899 L 348.2884 153.27899 L 348.2884 153.27899 L 348.2884 153.27899 L 348.2884 153.27899 Q 400.45142 154.88402 434.95926 189.39185 Q 469.46707 223.09718 470.2696 275.2602 L 470.2696 320.20062 Q 470.2696 341.86835 455.02194 356.31348 Q 440.5768 370.7586 418.9091 371.56113 L 418.9091 371.56113 L 418.1066 371.56113 L 418.1066 371.56113 L 418.1066 371.56113 L 402.05643 371.56113 L 402.05643 371.56113 L 401.2539 371.56113 L 401.2539 371.56113 L 400.45142 371.56113 L 400.45142 371.56113 L 400.45142 371.56113 L 399.6489 371.56113 L 399.6489 371.56113 L 398.8464 371.56113 L 398.8464 371.56113 L 398.8464 371.56113 L 398.04388 371.56113 L 398.04388 371.56113 L 397.2414 371.56113 L 397.2414 371.56113 L 397.2414 371.56113 L 396.43887 371.56113 L 396.43887 371.56113 L 396.43887 371.56113 L 395.63635 371.56113 L 395.63635 371.56113 L 394.83386 371.56113 L 394.83386 371.56113 L 394.83386 371.56113 L 394.03134 371.56113 L 394.03134 371.56113 L 393.22885 371.56113 L 393.22885 371.56113 L 393.22885 371.56113 L 392.42633 371.56113 L 392.42633 371.56113 L 392.42633 371.56113 L 391.6238 371.56113 L 391.6238 371.56113 L 390.82132 371.56113 L 390.82132 371.56113 L 390.82132 371.56113 L 390.0188 371.56113 L 390.0188 371.56113 L 389.2163 371.56113 L 389.2163 371.56113 L 389.2163 371.56113 L 388.4138 371.56113 L 388.4138 371.56113 L 388.4138 371.56113 L 387.6113 371.56113 L 387.6113 371.56113 L 386.80878 371.56113 L 386.80878 371.56113 L 386.80878 371.56113 L 386.00626 371.56113 L 386.00626 371.56113 L 386.00626 371.56113 L 385.20377 371.56113 L 385.20377 371.56113 L 384.40125 371.56113 L 384.40125 371.56113 L 384.40125 371.56113 L 383.59875 371.56113 L 383.59875 371.56113 L 383.59875 371.56113 L 382.79623 371.56113 L 382.79623 371.56113 L 381.99374 371.56113 L 381.99374 371.56113 L 381.99374 371.56113 L 381.19122 371.56113 L 381.19122 371.56113 L 381.19122 371.56113 L 380.3887 371.56113 L 380.3887 371.56113 L 379.5862 371.56113 L 379.5862 371.56113 L 379.5862 371.56113 L 378.7837 371.56113 L 378.7837 371.56113 L 378.7837 371.56113 L 377.9812 371.56113 L 377.9812 371.56113 L 377.17868 371.56113 L 377.17868 371.56113 L 377.17868 371.56113 L 376.3762 371.56113 L 376.3762 371.56113 L 376.3762 371.56113 L 375.57367 371.56113 L 375.57367 371.56113 L 374.77115 371.56113 L 374.77115 371.56113 L 374.77115 371.56113 L 373.96866 371.56113 L 373.96866 371.56113 L 373.96866 371.56113 L 373.16614 371.56113 L 373.16614 371.56113 L 372.36365 371.56113 L 372.36365 371.56113 L 372.36365 371.56113 L 371.56113 371.56113 L 371.56113 371.56113 L 370.7586 371.56113 L 370.7586 371.56113 L 370.7586 371.56113 L 370.7586 371.56113 L 369.95612 371.56113 L 369.95612 371.56113 L 369.1536 371.56113 L 369.1536 371.56113 L 369.1536 371.56113 L 368.3511 371.56113 L 368.3511 371.56113 L 367.54858 371.56113 L 367.54858 371.56113 L 367.54858 371.56113 L 367.54858 371.56113 L 366.7461 371.56113 L 366.7461 371.56113 L 365.94357 371.56113 L 365.94357 371.56113 L 365.94357 371.56113 L 365.14105 371.56113 L 365.14105 371.56113 L 365.14105 371.56113 L 364.33856 371.56113 L 364.33856 371.56113 L 363.53604 371.56113 L 363.53604 371.56113 L 363.53604 371.56113 L 362.73355 371.56113 L 362.73355 371.56113 L 361.93103 371.56113 L 361.93103 371.56113 L 361.93103 371.56113 L 361.93103 371.56113 L 361.12854 371.56113 L 361.12854 371.56113 L 360.32602 371.56113 L 360.32602 371.56113 L 360.32602 371.56113 L 359.5235 371.56113 L 359.5235 371.56113 L 358.721 371.56113 L 358.721 371.56113 L 358.721 371.56113 L 358.721 371.56113 L 357.9185 371.56113 L 357.9185 371.56113 L 357.116 371.56113 L 357.116 371.56113 L 357.116 371.56113 L 356.31348 371.56113 L 356.31348 371.56113 L 355.511 371.56113 L 355.511 371.56113 L 355.511 371.56113 L 354.70847 371.56113 L 354.70847 371.56113 L 354.70847 371.56113 L 354.70847 371.56113 L 353.90594 371.56113 L 353.90594 371.56113 L 353.10345 371.56113 L 353.10345 371.56113 L 353.10345 371.56113 L 352.30093 371.56113 L 352.30093 371.56113 L 351.49844 371.56113 L 351.49844 371.56113 L 351.49844 371.56113 L 351.49844 371.56113 L 350.69592 371.56113 L 350.69592 371.56113 L 349.8934 371.56113 L 349.8934 371.56113 L 349.8934 371.56113 L 349.0909 371.56113 L 349.0909 371.56113 L 348.2884 371.56113 L 348.2884 371.56113 L 348.2884 371.56113 L 347.4859 371.56113 L 347.4859 371.56113 L 347.4859 371.56113 L 347.4859 371.56113 L 346.68338 371.56113 L 346.68338 371.56113 L 345.8809 371.56113 L 345.8809 371.56113 L 345.8809 371.56113 L 345.07837 371.56113 L 345.07837 371.56113 L 344.27585 371.56113 L 344.27585 371.56113 L 344.27585 371.56113 L 344.27585 371.56113 L 343.47336 371.56113 L 343.47336 371.56113 L 343.47336 371.56113 L 342.67084 371.56113 L 342.67084 371.56113 L 341.86835 371.56113 L 341.86835 371.56113 L 341.86835 371.56113 L 341.06583 371.56113 L 341.06583 371.56113 L 340.26334 371.56113 L 340.26334 371.56113 L 340.26334 371.56113 L 340.26334 371.56113 L 339.46082 371.56113 L 339.46082 371.56113 L 338.6583 371.56113 L 338.6583 371.56113 L 338.6583 371.56113 L 337.8558 371.56113 L 337.8558 371.56113 L 337.05328 371.56113 L 337.05328 371.56113 L 337.05328 371.56113 L 336.2508 371.56113 L 336.2508 371.56113 L 336.2508 371.56113 L 336.2508 371.56113 L 335.44827 371.56113 L 335.44827 371.56113 L 334.64578 371.56113 L 334.64578 371.56113 L 334.64578 371.56113 L 333.84326 371.56113 L 333.84326 371.56113 L 333.04074 371.56113 L 333.04074 371.56113 L 333.04074 371.56113 L 332.23825 371.56113 L 332.23825 371.56113 L 332.23825 371.56113 L 332.23825 371.56113 L 331.43573 371.56113 L 331.43573 371.56113 L 330.63324 371.56113 L 330.63324 371.56113 L 330.63324 371.56113 L 329.83072 371.56113 L 329.83072 371.56113 L 329.0282 371.56113 L 329.0282 371.56113 L 329.0282 371.56113 L 328.2257 371.56113 L 328.2257 371.56113 L 328.2257 371.56113 L 328.2257 371.56113 L 327.4232 371.56113 L 327.4232 371.56113 L 326.6207 371.56113 L 326.6207 371.56113 L 326.6207 371.56113 L 325.81818 371.56113 L 325.81818 371.56113 L 325.0157 371.56113 L 325.0157 371.56113 L 325.0157 371.56113 L 325.0157 371.56113 L 324.21317 371.56113 L 324.21317 371.56113 L 324.21317 371.56113 L 323.41064 371.56113 L 323.41064 371.56113 L 322.60815 371.56113 L 322.60815 371.56113 L 322.60815 371.56113 L 321.80563 371.56113 L 321.80563 371.56113 L 321.00314 371.56113 L 321.00314 371.56113 L 321.00314 371.56113 L 321.00314 371.56113 L 320.20062 371.56113 L 320.20062 371.56113 L 319.39813 371.56113 L 319.39813 371.56113 L 319.39813 371.56113 L 318.5956 371.56113 L 318.5956 371.56113 L 317.7931 371.56113 L 317.7931 371.56113 L 317.7931 371.56113 L 317.7931 371.56113 L 316.9906 371.56113 L 316.9906 371.56113 L 316.9906 371.56113 L 316.18808 371.56113 L 316.18808 371.56113 L 315.3856 371.56113 L 315.3856 371.56113 L 315.3856 371.56113 L 314.58307 371.56113 L 314.58307 371.56113 L 313.78058 371.56113 L 313.78058 371.56113 L 313.78058 371.56113 L 313.78058 371.56113 L 312.97806 371.56113 L 312.97806 371.56113 L 312.17554 371.56113 L 312.17554 371.56113 L 312.17554 371.56113 L 311.37305 371.56113 L 311.37305 371.56113 L 310.57053 371.56113 L 310.57053 371.56113 L 310.57053 371.56113 L 310.57053 371.56113 L 309.76804 371.56113 L 309.76804 371.56113 L 308.9655 371.56113 L 308.9655 371.56113 L 308.9655 371.56113 L 308.163 371.56113 L 308.163 371.56113 L 307.3605 371.56113 L 307.3605 371.56113 L 307.3605 371.56113 L 307.3605 371.56113 L 306.55798 371.56113 L 306.55798 371.56113 L 305.7555 371.56113 L 305.7555 371.56113 L 305.7555 371.56113 L 304.95297 371.56113 L 304.95297 371.56113 L 304.15048 371.56113 L 304.15048 371.56113 L 304.15048 371.56113 L 304.15048 371.56113 L 303.34796 371.56113 L 303.34796 371.56113 L 302.54544 371.56113 L 302.54544 371.56113 L 302.54544 371.56113 L 301.74295 371.56113 L 301.74295 371.56113 L 301.74295 371.56113 L 300.94043 371.56113 L 300.94043 371.56113 L 300.13794 371.56113 L 300.13794 371.56113 L 300.13794 371.56113 L 299.33542 371.56113 L 299.33542 371.56113 L 298.53293 371.56113 L 298.53293 371.56113 L 298.53293 371.56113 L 298.53293 371.56113 L 297.7304 371.56113 L 297.7304 371.56113 L 296.9279 371.56113 L 296.9279 371.56113 L 296.9279 371.56113 L 296.1254 371.56113 L 296.1254 371.56113 L 296.1254 371.56113 L 295.32288 371.56113 L 295.32288 371.56113 L 294.5204 371.56113 L 294.5204 371.56113 L 294.5204 371.56113 L 293.71786 371.56113 L 293.71786 371.56113 L 293.71786 371.56113 L 292.91537 371.56113 L 292.91537 371.56113 L 292.11285 371.56113 L 292.11285 371.56113 L 292.11285 371.56113 L 291.31033 371.56113 L 291.31033 371.56113 L 291.31033 371.56113 L 290.50784 371.56113 L 290.50784 371.56113 L 289.70532 371.56113 L 289.70532 371.56113 L 289.70532 371.56113 L 288.90283 371.56113 L 288.90283 371.56113 L 288.90283 371.56113 L 288.1003 371.56113 L 288.1003 371.56113 L 287.2978 371.56113 L 287.2978 371.56113 L 287.2978 371.56113 L 286.4953 371.56113 L 286.4953 371.56113 L 286.4953 371.56113 L 285.69278 371.56113 L 285.69278 371.56113 L 284.8903 371.56113 L 284.8903 371.56113 L 284.8903 371.56113 L 284.08777 371.56113 L 284.08777 371.56113 L 284.08777 371.56113 L 283.28528 371.56113 L 283.28528 371.56113 L 282.48276 371.56113 L 282.48276 371.56113 L 282.48276 371.56113 L 281.68024 371.56113 L 281.68024 371.56113 L 280.87775 371.56113 L 280.87775 371.56113 L 280.87775 371.56113 L 280.07523 371.56113 L 280.07523 371.56113 L 280.07523 371.56113 L 279.27274 371.56113 L 279.27274 371.56113 L 278.4702 371.56113 L 278.4702 371.56113 L 278.4702 371.56113 L 277.66772 371.56113 L 277.66772 371.56113 L 276.8652 371.56113 L 276.8652 371.56113 L 276.8652 371.56113 L 276.06268 371.56113 L 276.06268 371.56113 L 276.06268 371.56113 L 275.2602 371.56113 L 275.2602 371.56113 L 274.45767 371.56113 L 274.45767 371.56113 L 274.45767 371.56113 L 273.65518 371.56113 L 273.65518 371.56113 L 272.85266 371.56113 L 272.85266 371.56113 L 272.85266 371.56113 L 272.05017 371.56113 L 272.05017 371.56113 L 271.24765 371.56113 L 271.24765 371.56113 L 271.24765 371.56113 L 270.44513 371.56113 L 270.44513 371.56113 L 270.44513 371.56113 L 269.64264 371.56113 L 269.64264 371.56113 L 268.84012 371.56113 L 268.84012 371.56113 L 268.84012 371.56113 L 268.03763 371.56113 L 268.03763 371.56113 L 267.2351 371.56113 L 267.2351 371.56113 L 267.2351 371.56113 L 266.4326 371.56113 L 266.4326 371.56113 L 265.6301 371.56113 L 265.6301 371.56113 L 265.6301 371.56113 L 264.82758 371.56113 L 264.82758 371.56113 L 264.0251 371.56113 L 264.0251 371.56113 L 264.0251 371.56113 L 263.22256 371.56113 L 263.22256 371.56113 L 262.42007 371.56113 L 262.42007 371.56113 L 262.42007 371.56113 L 261.61755 371.56113 L 261.61755 371.56113 L 260.81503 371.56113 L 260.81503 371.56113 L 260.81503 371.56113 L 260.01254 371.56113 L 260.01254 371.56113 L 259.21002 371.56113 L 259.21002 371.56113 L 259.21002 371.56113 L 258.40753 371.56113 L 258.40753 371.56113 L 257.605 371.56113 L 257.605 371.56113 L 257.605 371.56113 L 256.80252 371.56113 L 256.80252 371.56113 L 256 371.56113 L 256 371.56113 L 256 371.56113 L 255.1975 371.56113 L 255.1975 371.56113 L 254.39499 371.56113 L 254.39499 371.56113 L 254.39499 371.56113 L 253.59248 371.56113 L 253.59248 371.56113 L 252.78996 371.56113 L 252.78996 371.56113 L 252.78996 371.56113 L 251.98746 371.56113 L 251.98746 371.56113 L 251.18495 371.56113 L 251.18495 371.56113 L 251.18495 371.56113 L 250.38245 371.56113 L 250.38245 371.56113 Q 228.71474 371.56113 213.46709 356.31348 L 142.84639 285.69278 Q 142.04388 284.8903 141.24138 284.08777 L 41.730408 240.75235 Q 21.667711 230.31975 16.050158 208.65204 L 2.4075234 140.43887 Q 0 125.19122 9.630094 113.956116 Q 18.45768 102.721 34.507835 101.918495 L 39.322884 101.918495 Q 59.38558 101.918495 73.02821 117.166145 L 104.32602 153.27899 L 262.42007 153.27899 L 262.42007 89.07837 L 114.75862 89.07837 Q 97.10345 87.47335 95.498436 69.818184 L 95.498436 69.818184 Z M 53.768024 200.62695 Q 54.570534 203.83699 57.780563 205.442 L 156.48903 249.57994 Q 164.5141 252.78996 170.13167 258.40753 L 240.75235 329.0282 Q 244.7649 333.04074 250.38245 333.04074 L 250.38245 333.04074 L 250.38245 333.04074 L 251.18495 333.04074 L 251.18495 333.04074 L 251.98746 333.04074 L 251.98746 333.04074 L 251.98746 333.04074 L 252.78996 333.04074 L 252.78996 333.04074 L 253.59248 333.04074 L 253.59248 333.04074 L 253.59248 333.04074 L 254.39499 333.04074 L 254.39499 333.04074 L 255.1975 333.04074 L 255.1975 333.04074 L 255.1975 333.04074 L 256 333.04074 L 256 333.04074 L 256.80252 333.04074 L 256.80252 333.04074 L 256.80252 333.04074 L 257.605 333.04074 L 257.605 333.04074 L 258.40753 333.04074 L 258.40753 333.04074 L 258.40753 333.04074 L 259.21002 333.04074 L 259.21002 333.04074 L 260.01254 333.04074 L 260.01254 333.04074 L 260.01254 333.04074 L 260.81503 333.04074 L 260.81503 333.04074 L 261.61755 333.04074 L 261.61755 333.04074 L 261.61755 333.04074 L 262.42007 333.04074 L 262.42007 191.79938 L 95.498436 191.79938 Q 86.670845 191.79938 81.05329 185.3793 L 44.13793 142.84639 Q 43.335423 142.04388 42.532917 141.24138 L 53.768024 200.62695 L 53.768024 200.62695 Z M 300.94043 333.04074 L 300.94043 333.04074 L 301.74295 333.04074 L 301.74295 333.04074 L 301.74295 333.04074 L 302.54544 333.04074 L 302.54544 333.04074 L 303.34796 333.04074 L 303.34796 333.04074 L 303.34796 333.04074 L 304.15048 333.04074 L 304.15048 333.04074 L 304.95297 333.04074 L 304.95297 333.04074 L 304.95297 333.04074 L 305.7555 333.04074 L 305.7555 333.04074 L 306.55798 333.04074 L 306.55798 333.04074 L 306.55798 333.04074 L 307.3605 333.04074 L 307.3605 333.04074 L 308.163 333.04074 L 308.163 333.04074 L 308.163 333.04074 L 308.9655 333.04074 L 308.9655 333.04074 L 309.76804 333.04074 L 309.76804 333.04074 L 309.76804 333.04074 L 310.57053 333.04074 L 310.57053 333.04074 L 311.37305 333.04074 L 311.37305 333.04074 L 311.37305 333.04074 L 312.17554 333.04074 L 312.17554 333.04074 L 312.97806 333.04074 L 312.97806 333.04074 L 312.97806 333.04074 L 313.78058 333.04074 L 313.78058 333.04074 L 314.58307 333.04074 L 314.58307 333.04074 L 314.58307 333.04074 L 315.3856 333.04074 L 315.3856 333.04074 L 316.18808 333.04074 L 316.18808 333.04074 L 316.18808 333.04074 L 316.9906 333.04074 L 316.9906 333.04074 L 317.7931 333.04074 L 317.7931 333.04074 L 317.7931 333.04074 L 318.5956 333.04074 L 318.5956 333.04074 L 319.39813 333.04074 L 319.39813 333.04074 L 319.39813 333.04074 L 320.20062 333.04074 L 320.20062 333.04074 L 321.00314 333.04074 L 321.00314 333.04074 L 321.00314 333.04074 L 321.80563 333.04074 L 321.80563 333.04074 L 322.60815 333.04074 L 322.60815 333.04074 L 322.60815 333.04074 L 323.41064 333.04074 L 323.41064 333.04074 L 324.21317 333.04074 L 324.21317 333.04074 L 324.21317 333.04074 L 325.0157 333.04074 L 325.0157 333.04074 L 325.81818 333.04074 L 325.81818 333.04074 L 325.81818 333.04074 L 326.6207 333.04074 L 326.6207 333.04074 L 327.4232 333.04074 L 327.4232 333.04074 L 327.4232 333.04074 L 328.2257 333.04074 L 328.2257 333.04074 L 329.0282 333.04074 L 329.0282 333.04074 L 329.0282 333.04074 L 329.83072 333.04074 L 329.83072 333.04074 L 330.63324 333.04074 L 330.63324 333.04074 L 330.63324 333.04074 L 331.43573 333.04074 L 331.43573 333.04074 L 332.23825 333.04074 L 332.23825 333.04074 L 332.23825 333.04074 L 333.04074 333.04074 L 333.04074 333.04074 L 333.84326 333.04074 L 333.84326 333.04074 L 333.84326 333.04074 L 334.64578 333.04074 L 334.64578 333.04074 L 335.44827 333.04074 L 335.44827 333.04074 L 335.44827 333.04074 L 336.2508 333.04074 L 336.2508 333.04074 L 337.05328 333.04074 L 337.05328 333.04074 L 337.05328 333.04074 L 337.8558 333.04074 L 337.8558 333.04074 L 338.6583 333.04074 L 338.6583 333.04074 L 338.6583 333.04074 L 339.46082 333.04074 L 339.46082 333.04074 L 340.26334 333.04074 L 340.26334 333.04074 L 340.26334 333.04074 L 341.06583 333.04074 L 341.06583 333.04074 L 341.86835 333.04074 L 341.86835 333.04074 L 341.86835 333.04074 L 342.67084 333.04074 L 342.67084 333.04074 L 343.47336 333.04074 L 343.47336 333.04074 L 343.47336 333.04074 L 344.27585 333.04074 L 344.27585 333.04074 L 345.07837 333.04074 L 345.07837 333.04074 L 345.07837 333.04074 L 345.8809 333.04074 L 345.8809 333.04074 L 346.68338 333.04074 L 346.68338 333.04074 L 346.68338 333.04074 L 347.4859 333.04074 L 347.4859 333.04074 L 348.2884 333.04074 L 348.2884 333.04074 L 348.2884 333.04074 L 349.0909 333.04074 L 349.0909 333.04074 L 349.8934 333.04074 L 349.8934 333.04074 L 349.8934 333.04074 L 350.69592 333.04074 L 350.69592 333.04074 L 351.49844 333.04074 L 351.49844 333.04074 L 351.49844 333.04074 L 352.30093 333.04074 L 352.30093 333.04074 L 353.10345 333.04074 L 353.10345 333.04074 L 353.10345 333.04074 L 353.90594 333.04074 L 353.90594 333.04074 L 354.70847 333.04074 L 354.70847 333.04074 L 354.70847 333.04074 L 355.511 333.04074 L 355.511 333.04074 L 356.31348 333.04074 L 356.31348 333.04074 L 356.31348 333.04074 L 357.116 333.04074 L 357.116 333.04074 L 357.9185 333.04074 L 357.9185 333.04074 L 357.9185 333.04074 L 358.721 333.04074 L 358.721 333.04074 L 359.5235 333.04074 L 359.5235 333.04074 L 359.5235 333.04074 L 360.32602 333.04074 L 360.32602 333.04074 L 361.12854 333.04074 L 361.12854 333.04074 L 361.12854 333.04074 L 361.93103 333.04074 L 361.93103 333.04074 L 362.73355 333.04074 L 362.73355 333.04074 L 362.73355 333.04074 L 363.53604 333.04074 L 363.53604 333.04074 L 364.33856 333.04074 L 364.33856 333.04074 L 364.33856 333.04074 L 365.14105 333.04074 L 365.14105 333.04074 L 365.94357 333.04074 L 365.94357 333.04074 L 365.94357 333.04074 L 366.7461 333.04074 L 366.7461 333.04074 L 367.54858 333.04074 L 367.54858 333.04074 L 367.54858 333.04074 L 368.3511 333.04074 L 368.3511 333.04074 L 369.1536 333.04074 L 369.1536 333.04074 L 369.1536 333.04074 L 369.95612 333.04074 L 369.95612 333.04074 L 370.7586 333.04074 L 370.7586 333.04074 L 370.7586 333.04074 L 371.56113 333.04074 L 371.56113 333.04074 L 372.36365 333.04074 L 372.36365 333.04074 L 372.36365 333.04074 L 373.16614 333.04074 L 373.16614 333.04074 L 373.96866 333.04074 L 373.96866 333.04074 L 373.96866 333.04074 L 374.77115 333.04074 L 374.77115 333.04074 L 375.57367 333.04074 L 375.57367 333.04074 L 375.57367 333.04074 L 376.3762 333.04074 L 376.3762 333.04074 L 377.17868 333.04074 L 377.17868 333.04074 L 377.17868 333.04074 L 377.9812 333.04074 L 377.9812 333.04074 L 378.7837 333.04074 L 378.7837 333.04074 L 378.7837 333.04074 L 379.5862 333.04074 L 379.5862 333.04074 L 380.3887 333.04074 L 380.3887 333.04074 L 380.3887 333.04074 L 381.19122 333.04074 L 381.19122 333.04074 L 381.99374 333.04074 L 381.99374 333.04074 L 381.99374 333.04074 L 382.79623 333.04074 L 382.79623 333.04074 L 383.59875 333.04074 L 383.59875 333.04074 L 383.59875 333.04074 L 384.40125 333.04074 L 384.40125 333.04074 L 385.20377 333.04074 L 385.20377 333.04074 L 385.20377 333.04074 L 386.00626 333.04074 L 386.00626 333.04074 L 386.80878 333.04074 L 386.80878 333.04074 L 386.80878 333.04074 L 387.6113 333.04074 L 387.6113 333.04074 L 388.4138 333.04074 L 388.4138 333.04074 L 388.4138 333.04074 L 389.2163 333.04074 L 389.2163 333.04074 L 390.0188 333.04074 L 390.0188 333.04074 L 390.0188 333.04074 L 390.82132 333.04074 L 390.82132 333.04074 L 391.6238 333.04074 L 391.6238 333.04074 L 391.6238 333.04074 L 392.42633 333.04074 L 392.42633 333.04074 L 393.22885 333.04074 L 393.22885 333.04074 L 393.22885 333.04074 L 394.03134 333.04074 L 394.03134 333.04074 L 394.83386 333.04074 L 394.83386 333.04074 L 394.83386 333.04074 L 395.63635 333.04074 L 395.63635 333.04074 L 396.43887 333.04074 L 396.43887 333.04074 L 396.43887 333.04074 L 397.2414 333.04074 L 397.2414 333.04074 L 398.04388 333.04074 L 398.04388 333.04074 L 398.04388 333.04074 L 398.8464 333.04074 L 398.8464 333.04074 L 399.6489 333.04074 L 399.6489 333.04074 L 399.6489 333.04074 L 400.45142 333.04074 L 400.45142 333.04074 L 401.2539 333.04074 L 401.2539 333.04074 L 401.2539 333.04074 L 402.05643 333.04074 L 402.05643 333.04074 L 402.85895 333.04074 L 402.85895 333.04074 L 402.85895 333.04074 L 403.66144 333.04074 L 403.66144 333.04074 L 404.46396 333.04074 L 404.46396 333.04074 L 404.46396 333.04074 L 405.26645 333.04074 L 405.26645 333.04074 L 406.06897 333.04074 L 406.06897 333.04074 L 406.06897 333.04074 L 406.87146 333.04074 L 406.87146 333.04074 L 407.67398 333.04074 L 407.67398 333.04074 L 407.67398 333.04074 L 408.4765 333.04074 L 408.4765 333.04074 L 409.279 333.04074 L 409.279 333.04074 L 409.279 333.04074 L 410.0815 333.04074 L 410.0815 333.04074 L 410.884 333.04074 L 410.884 333.04074 L 410.884 333.04074 L 411.68652 333.04074 L 411.68652 333.04074 L 412.489 333.04074 L 412.489 333.04074 L 412.489 333.04074 Q 424.52664 332.23825 425.32916 320.20062 L 425.32916 275.2602 Q 424.52664 239.94984 401.2539 215.8746 Q 377.9812 192.60188 341.86835 191.79938 L 333.04074 191.79938 L 333.04074 191.79938 L 333.04074 191.79938 L 333.04074 191.79938 L 333.04074 191.79938 L 332.23825 191.79938 L 332.23825 191.79938 L 332.23825 191.79938 L 332.23825 191.79938 L 332.23825 191.79938 L 332.23825 191.79938 L 332.23825 191.79938 L 332.23825 191.79938 L 332.23825 191.79938 L 332.23825 191.79938 L 331.43573 191.79938 L 332.23825 191.79938 L 332.23825 191.79938 L 332.23825 191.79938 L 332.23825 191.79938 L 332.23825 191.79938 L 331.43573 191.79938 L 331.43573 191.79938 L 331.43573 191.79938 L 331.43573 191.79938 L 331.43573 191.79938 L 331.43573 191.79938 L 331.43573 191.79938 L 331.43573 191.79938 L 331.43573 191.79938 L 331.43573 191.79938 L 330.63324 191.79938 L 331.43573 191.79938 L 331.43573 191.79938 L 331.43573 191.79938 L 331.43573 191.79938 L 331.43573 191.79938 L 331.43573 191.79938 L 330.63324 191.79938 L 330.63324 191.79938 L 330.63324 191.79938 L 330.63324 191.79938 L 330.63324 191.79938 L 330.63324 191.79938 L 330.63324 191.79938 L 330.63324 191.79938 L 330.63324 191.79938 L 330.63324 191.79938 L 329.83072 191.79938 L 330.63324 191.79938 L 330.63324 191.79938 L 330.63324 191.79938 L 330.63324 191.79938 L 330.63324 191.79938 L 330.63324 191.79938 L 329.83072 191.79938 L 329.83072 191.79938 L 329.83072 191.79938 L 329.83072 191.79938 L 329.83072 191.79938 L 329.83072 191.79938 L 329.83072 191.79938 L 329.83072 191.79938 L 329.83072 191.79938 L 329.83072 191.79938 L 329.0282 191.79938 L 329.83072 191.79938 L 329.83072 191.79938 L 329.83072 191.79938 L 329.83072 191.79938 L 329.83072 191.79938 L 329.0282 191.79938 L 329.0282 191.79938 L 329.0282 191.79938 L 329.0282 191.79938 L 329.0282 191.79938 L 329.0282 191.79938 L 329.0282 191.79938 L 329.0282 191.79938 L 329.0282 191.79938 L 329.0282 191.79938 L 328.2257 191.79938 L 329.0282 191.79938 L 329.0282 191.79938 L 329.0282 191.79938 L 329.0282 191.79938 L 329.0282 191.79938 L 329.0282 191.79938 L 328.2257 191.79938 L 328.2257 191.79938 L 328.2257 191.79938 L 328.2257 191.79938 L 328.2257 191.79938 L 328.2257 191.79938 L 328.2257 191.79938 L 328.2257 191.79938 L 328.2257 191.79938 L 328.2257 191.79938 L 327.4232 191.79938 L 328.2257 191.79938 L 328.2257 191.79938 L 328.2257 191.79938 L 328.2257 191.79938 L 328.2257 191.79938 L 327.4232 191.79938 L 327.4232 191.79938 L 327.4232 191.79938 L 327.4232 191.79938 L 327.4232 191.79938 L 327.4232 191.79938 L 327.4232 191.79938 L 327.4232 191.79938 L 327.4232 191.79938 L 327.4232 191.79938 L 326.6207 191.79938 L 327.4232 191.79938 L 327.4232 191.79938 L 327.4232 191.79938 L 327.4232 191.79938 L 327.4232 191.79938 L 327.4232 191.79938 L 326.6207 191.79938 L 326.6207 191.79938 L 326.6207 191.79938 L 326.6207 191.79938 L 326.6207 191.79938 L 326.6207 191.79938 L 326.6207 191.79938 L 326.6207 191.79938 L 326.6207 191.79938 L 326.6207 191.79938 L 326.6207 191.79938 L 326.6207 191.79938 L 326.6207 191.79938 L 326.6207 191.79938 L 326.6207 191.79938 L 326.6207 191.79938 L 325.81818 191.79938 L 325.81818 191.79938 L 325.81818 191.79938 L 325.81818 191.79938 L 325.81818 191.79938 L 325.81818 191.79938 L 325.81818 191.79938 L 325.81818 191.79938 L 325.81818 191.79938 L 325.81818 191.79938 L 325.0157 191.79938 L 325.81818 191.79938 L 325.81818 191.79938 L 325.81818 191.79938 L 325.81818 191.79938 L 325.81818 191.79938 L 325.0157 191.79938 L 325.0157 191.79938 L 325.0157 191.79938 L 325.0157 191.79938 L 325.0157 191.79938 L 325.0157 191.79938 L 325.0157 191.79938 L 325.0157 191.79938 L 325.0157 191.79938 L 325.0157 191.79938 L 324.21317 191.79938 L 325.0157 191.79938 L 325.0157 191.79938 L 325.0157 191.79938 L 325.0157 191.79938 L 325.0157 191.79938 L 325.0157 191.79938 L 324.21317 191.79938 L 324.21317 191.79938 L 324.21317 191.79938 L 324.21317 191.79938 L 324.21317 191.79938 L 324.21317 191.79938 L 324.21317 191.79938 L 324.21317 191.79938 L 324.21317 191.79938 L 324.21317 191.79938 L 324.21317 191.79938 L 324.21317 191.79938 L 324.21317 191.79938 L 324.21317 191.79938 L 324.21317 191.79938 L 324.21317 191.79938 L 323.41064 191.79938 L 323.41064 191.79938 L 323.41064 191.79938 L 323.41064 191.79938 L 323.41064 191.79938 L 323.41064 191.79938 L 323.41064 191.79938 L 323.41064 191.79938 L 323.41064 191.79938 L 323.41064 191.79938 L 323.41064 191.79938 L 323.41064 191.79938 L 323.41064 191.79938 L 323.41064 191.79938 L 323.41064 191.79938 L 323.41064 191.79938 L 322.60815 191.79938 L 322.60815 191.79938 L 322.60815 191.79938 L 322.60815 191.79938 L 322.60815 191.79938 L 322.60815 191.79938 L 322.60815 191.79938 L 322.60815 191.79938 L 322.60815 191.79938 L 322.60815 191.79938 L 322.60815 191.79938 L 322.60815 191.79938 L 322.60815 191.79938 L 322.60815 191.79938 L 322.60815 191.79938 L 322.60815 191.79938 L 321.80563 191.79938 L 321.80563 191.79938 L 321.80563 191.79938 L 321.80563 191.79938 L 321.80563 191.79938 L 321.80563 191.79938 L 321.80563 191.79938 L 321.80563 191.79938 L 321.80563 191.79938 L 321.80563 191.79938 L 321.00314 191.79938 L 321.80563 191.79938 L 321.80563 191.79938 L 321.80563 191.79938 L 321.80563 191.79938 L 321.80563 191.79938 L 321.00314 191.79938 L 321.00314 191.79938 L 321.00314 191.79938 L 321.00314 191.79938 L 321.00314 191.79938 L 321.00314 191.79938 L 321.00314 191.79938 L 321.00314 191.79938 L 321.00314 191.79938 L 321.00314 191.79938 L 320.20062 191.79938 L 321.00314 191.79938 L 321.00314 191.79938 L 321.00314 191.79938 L 321.00314 191.79938 L 321.00314 191.79938 L 320.20062 191.79938 L 320.20062 191.79938 L 320.20062 191.79938 L 320.20062 191.79938 L 320.20062 191.79938 L 320.20062 191.79938 L 320.20062 191.79938 L 320.20062 191.79938 L 320.20062 191.79938 L 320.20062 191.79938 L 319.39813 191.79938 L 320.20062 191.79938 L 320.20062 191.79938 L 320.20062 191.79938 L 320.20062 191.79938 L 320.20062 191.79938 L 319.39813 191.79938 L 319.39813 191.79938 L 319.39813 191.79938 L 319.39813 191.79938 L 319.39813 191.79938 L 319.39813 191.79938 L 319.39813 191.79938 L 319.39813 191.79938 L 319.39813 191.79938 L 319.39813 191.79938 L 318.5956 191.79938 L 319.39813 191.79938 L 319.39813 191.79938 L 319.39813 191.79938 L 319.39813 191.79938 L 319.39813 191.79938 L 318.5956 191.79938 L 318.5956 191.79938 L 318.5956 191.79938 L 318.5956 191.79938 L 318.5956 191.79938 L 318.5956 191.79938 L 318.5956 191.79938 L 318.5956 191.79938 L 318.5956 191.79938 L 318.5956 191.79938 L 318.5956 191.79938 L 318.5956 191.79938 L 318.5956 191.79938 L 318.5956 191.79938 L 318.5956 191.79938 L 318.5956 191.79938 L 317.7931 191.79938 L 317.7931 191.79938 L 317.7931 191.79938 L 317.7931 191.79938 L 317.7931 191.79938 L 317.7931 191.79938 L 317.7931 191.79938 L 317.7931 191.79938 L 317.7931 191.79938 L 317.7931 191.79938 L 317.7931 191.79938 L 317.7931 191.79938 L 317.7931 191.79938 L 317.7931 191.79938 L 317.7931 191.79938 L 317.7931 191.79938 L 316.9906 191.79938 L 316.9906 191.79938 L 316.9906 191.79938 L 316.9906 191.79938 L 316.9906 191.79938 L 316.9906 191.79938 L 316.9906 191.79938 L 316.9906 191.79938 L 316.9906 191.79938 L 316.9906 191.79938 L 316.9906 191.79938 L 316.9906 191.79938 L 316.9906 191.79938 L 316.9906 191.79938 L 316.9906 191.79938 L 316.9906 191.79938 L 316.18808 191.79938 L 316.18808 191.79938 L 316.18808 191.79938 L 316.18808 191.79938 L 316.18808 191.79938 L 316.18808 191.79938 L 316.18808 191.79938 L 316.18808 191.79938 L 316.18808 191.79938 L 316.18808 191.79938 L 316.18808 191.79938 L 316.18808 191.79938 L 316.18808 191.79938 L 316.18808 191.79938 L 316.18808 191.79938 L 315.3856 191.79938 L 315.3856 191.79938 L 315.3856 191.79938 L 315.3856 191.79938 L 315.3856 191.79938 L 315.3856 191.79938 L 315.3856 191.79938 L 315.3856 191.79938 L 315.3856 191.79938 L 315.3856 191.79938 L 314.58307 191.79938 L 315.3856 191.79938 L 315.3856 191.79938 L 315.3856 191.79938 L 315.3856 191.79938 L 315.3856 191.79938 L 314.58307 191.79938 L 314.58307 191.79938 L 314.58307 191.79938 L 314.58307 191.79938 L 314.58307 191.79938 L 314.58307 191.79938 L 314.58307 191.79938 L 314.58307 191.79938 L 314.58307 191.79938 L 314.58307 191.79938 L 314.58307 191.79938 L 314.58307 191.79938 L 314.58307 191.79938 L 314.58307 191.79938 L 314.58307 191.79938 L 314.58307 191.79938 L 313.78058 191.79938 L 313.78058 191.79938 L 313.78058 191.79938 L 313.78058 191.79938 L 313.78058 191.79938 L 313.78058 191.79938 L 313.78058 191.79938 L 313.78058 191.79938 L 313.78058 191.79938 L 313.78058 191.79938 L 313.78058 191.79938 L 313.78058 191.79938 L 313.78058 191.79938 L 313.78058 191.79938 L 313.78058 191.79938 L 313.78058 191.79938 L 312.97806 191.79938 L 312.97806 191.79938 L 312.97806 191.79938 L 312.97806 191.79938 L 312.97806 191.79938 L 312.97806 191.79938 L 312.97806 191.79938 L 312.97806 191.79938 L 312.97806 191.79938 L 312.97806 191.79938 L 312.97806 191.79938 L 312.97806 191.79938 L 312.97806 191.79938 L 312.97806 191.79938 L 312.97806 191.79938 L 312.17554 191.79938 L 312.17554 191.79938 L 312.17554 191.79938 L 312.17554 191.79938 L 312.17554 191.79938 L 312.17554 191.79938 L 312.17554 191.79938 L 312.17554 191.79938 L 312.17554 191.79938 L 312.17554 191.79938 L 312.17554 191.79938 L 312.17554 191.79938 L 312.17554 191.79938 L 312.17554 191.79938 L 312.17554 191.79938 L 312.17554 191.79938 L 311.37305 191.79938 L 311.37305 191.79938 L 311.37305 191.79938 L 311.37305 191.79938 L 311.37305 191.79938 L 311.37305 191.79938 L 311.37305 191.79938 L 311.37305 191.79938 L 311.37305 191.79938 L 311.37305 191.79938 L 311.37305 191.79938 L 311.37305 191.79938 L 311.37305 191.79938 L 311.37305 191.79938 L 311.37305 191.79938 L 310.57053 191.79938 L 310.57053 191.79938 L 310.57053 191.79938 L 310.57053 191.79938 L 310.57053 191.79938 L 310.57053 191.79938 L 310.57053 191.79938 L 310.57053 191.79938 L 310.57053 191.79938 L 310.57053 191.79938 L 310.57053 191.79938 L 310.57053 191.79938 L 310.57053 191.79938 L 310.57053 191.79938 L 310.57053 191.79938 L 310.57053 191.79938 L 309.76804 191.79938 L 309.76804 191.79938 L 309.76804 191.79938 L 309.76804 191.79938 L 309.76804 191.79938 L 309.76804 191.79938 L 309.76804 191.79938 L 309.76804 191.79938 L 309.76804 191.79938 L 309.76804 191.79938 L 309.76804 191.79938 L 309.76804 191.79938 L 309.76804 191.79938 L 309.76804 191.79938 L 309.76804 191.79938 L 308.9655 191.79938 L 308.9655 191.79938 L 308.9655 191.79938 L 308.9655 191.79938 L 308.9655 191.79938 L 308.9655 191.79938 L 308.9655 191.79938 L 308.9655 191.79938 L 308.9655 191.79938 L 308.9655 191.79938 L 308.9655 191.79938 L 308.9655 191.79938 L 308.9655 191.79938 L 308.9655 191.79938 L 308.9655 191.79938 L 308.9655 191.79938 L 308.163 191.79938 L 308.163 191.79938 L 308.163 191.79938 L 308.163 191.79938 L 308.163 191.79938 L 308.163 191.79938 L 308.163 191.79938 L 308.163 191.79938 L 308.163 191.79938 L 308.163 191.79938 L 308.163 191.79938 L 308.163 191.79938 L 308.163 191.79938 L 308.163 191.79938 L 308.163 191.79938 L 307.3605 191.79938 L 307.3605 191.79938 L 307.3605 191.79938 L 307.3605 191.79938 L 307.3605 191.79938 L 307.3605 191.79938 L 307.3605 191.79938 L 307.3605 191.79938 L 307.3605 191.79938 L 307.3605 191.79938 L 307.3605 191.79938 L 300.94043 191.79938 L 300.94043 333.04074 L 300.94043 333.04074 Z M 499.15988 431.7492 L 481.5047 446.19437 Q 461.44202 461.44202 437.36676 461.44202 L 191.79938 461.44202 Q 174.1442 459.837 172.53918 442.18182 Q 174.1442 424.52664 191.79938 422.92163 L 437.36676 422.92163 Q 448.60187 422.92163 457.42947 415.69907 L 475.08463 401.2539 Q 490.33228 391.6238 502.3699 404.46396 Q 512 419.7116 499.15988 431.7492 L 499.15988 431.7492 Z" />
</svg>