<svg xmlns="http://www.w3.org/2000/svg" viewBox="0 0 512 512">
  <path d="M 181.18167 217.17535 Q 217.57977 216.36652 236.9921 184.82149 Q 254.78673 152.46762 236.9921 120.11375 Q 217.57977 88.56872 181.18167 87.75987 Q 144.78357 88.56872 125.37125 120.11375 Q 107.57662 152.46762 125.37125 184.82149 Q 144.78357 216.36652 181.18167 217.17535 L 181.18167 217.17535 Z M 181.18167 48.93523 Q 209.49132 48.93523 232.94786 62.685623 L 232.94786 62.685623 Q 256.40442 76.43602 270.96365 100.70142 Q 284.71405 124.96683 284.71405 152.46762 Q 284.71405 179.9684 270.96365 204.23381 Q 256.40442 228.4992 232.94786 242.2496 Q 209.49132 256 181.18167 256 Q 152.87204 256 129.41548 242.2496 Q 105.95892 228.4992 91.39968 204.23381 Q 77.64929 179.9684 77.64929 152.46762 Q 77.64929 124.96683 91.39968 100.70142 Q 105.95892 76.43602 129.41548 62.685623 Q 152.87204 48.93523 181.18167 48.93523 L 181.18167 48.93523 Z M 322.72986 424.2401 Q 321.92102 420.1959 321.11215 416.15167 L 358.31912 453.3586 Q 351.0395 462.25592 338.09796 463.06476 L 24.265404 463.06476 Q 13.750395 463.06476 7.2796206 455.78516 Q 0 449.31436 0 438.79938 Q 1.6176935 378.13586 42.06003 336.88467 Q 83.31122 296.44235 143.97472 294.82465 L 181.18167 294.82465 L 218.38863 294.82465 Q 239.41864 294.82465 258.83096 300.48657 L 258.83096 327.17853 Q 258.83096 335.26697 260.44867 342.5466 Q 241.03633 333.6493 218.38863 333.6493 L 143.97472 333.6493 Q 103.53239 334.45813 75.22275 359.53238 Q 46.104267 384.60663 39.63349 424.2401 L 322.72986 424.2401 L 322.72986 424.2401 Z M 310.59717 230.1169 L 377.73145 230.1169 Q 398.76144 230.1169 414.12955 245.48499 L 500.67615 332.0316 Q 512 344.1643 512 359.53238 Q 512 374.90048 500.67615 387.03317 L 441.63034 446.07898 Q 429.49762 457.40283 414.12955 457.40283 Q 398.76144 457.40283 386.62875 446.07898 L 300.08215 359.53238 Q 284.71405 344.1643 284.71405 323.13428 L 284.71405 256 Q 284.71405 244.67615 291.99368 237.39653 Q 299.27332 230.1169 310.59717 230.1169 L 310.59717 230.1169 Z M 368.83414 294.82465 Q 367.21643 277.03003 349.4218 275.41232 Q 331.62717 277.03003 330.0095 294.82465 Q 331.62717 312.61926 349.4218 314.23697 Q 367.21643 312.61926 368.83414 294.82465 L 368.83414 294.82465 Z" />
</svg>