<svg xmlns="http://www.w3.org/2000/svg" viewBox="0 0 512 512">
  <path d="M 369.88782 9.903288 Q 358.9942 0 348.1006 9.903288 L 332.2553 25.748549 Q 322.35202 36.642166 332.2553 47.53578 L 348.1006 63.381046 Q 358.9942 73.28433 369.88782 63.381046 L 385.73306 47.53578 Q 395.63635 36.642166 385.73306 25.748549 L 369.88782 9.903288 L 369.88782 9.903288 Z M 380.78143 262.43713 Q 392.66537 250.55319 408.51065 250.55319 L 414.4526 250.55319 Q 431.2882 250.55319 442.18182 262.43713 Q 454.06577 273.33075 454.06577 290.16635 L 454.06577 401.08316 Q 454.06577 414.94778 445.1528 423.86075 Q 436.23984 432.77368 422.37524 432.77368 Q 384.74274 429.8027 371.86847 407.02515 Q 363.94583 397.12186 360.97485 389.19922 Q 359.98453 385.2379 358.9942 383.25726 Q 358.9942 382.26694 358.9942 382.26694 Q 358.9942 381.27658 358.9942 381.27658 L 358.00388 381.27658 L 358.00388 381.27658 L 358.00388 381.27658 Q 355.03287 369.39264 343.14893 369.39264 Q 330.27466 370.38297 327.30368 382.26694 L 343.14893 385.2379 Q 332.2553 383.25726 329.28433 382.26694 Q 327.30368 382.26694 327.30368 382.26694 L 327.30368 382.26694 L 327.30368 382.26694 L 327.30368 382.26694 L 327.30368 382.26694 Q 327.30368 383.25726 327.30368 383.25726 Q 327.30368 383.25726 327.30368 383.25726 Q 327.30368 384.2476 327.30368 384.2476 Q 327.30368 385.2379 327.30368 387.21857 Q 326.31335 391.17987 326.31335 397.12186 Q 325.32303 410.98645 332.2553 430.79303 Q 339.18762 450.5996 360.97485 465.45456 Q 383.7524 479.31915 422.37524 480.30948 Q 456.04642 479.31915 478.82397 456.5416 Q 500.6112 434.75436 501.60156 401.08316 L 501.60156 290.16635 Q 500.6112 253.52419 475.853 228.76596 Q 451.0948 204.00774 414.4526 203.01741 L 408.51065 203.01741 Q 372.8588 204.00774 347.11026 228.76596 L 321.3617 254.51451 Q 309.47775 266.39844 292.64218 266.39844 L 224.30948 266.39844 Q 240.15474 241.64023 240.15474 210.94003 Q 239.16441 167.36557 210.44487 137.6557 Q 180.73502 108.93617 137.16054 107.94584 Q 101.508705 108.93617 75.760155 128.74275 Q 58.924564 143.59767 70.80851 161.4236 Q 85.663445 178.25919 103.489365 166.37524 Q 118.34429 155.48163 137.16054 155.48163 Q 160.92844 156.47195 176.7737 171.32689 Q 191.62863 187.17215 192.61896 210.94003 Q 191.62863 234.70793 176.7737 250.55319 Q 160.92844 265.4081 137.16054 266.39844 L 102.49903 266.39844 Q 90.61509 267.3888 89.624756 279.27274 Q 89.624756 282.2437 90.61509 285.2147 L 96.55706 296.1083 Q 105.47002 312.9439 125.276596 313.93423 L 137.16054 313.93423 L 149.0445 313.93423 Q 180.73502 314.92456 202.52225 335.72147 Q 223.31915 357.5087 224.30948 389.19922 Q 223.31915 420.88974 202.52225 441.68665 Q 181.72534 463.47388 151.02515 464.4642 Q 113.39265 463.47388 91.605415 453.5706 Q 70.80851 442.67697 59.914894 429.8027 Q 49.02128 416.92844 45.05996 407.02515 Q 43.079304 402.0735 42.088974 400.09283 Q 42.088974 399.1025 42.088974 399.1025 Q 42.088974 398.11218 42.088974 398.11218 L 42.088974 398.11218 Q 38.12766 385.2379 24.263056 385.2379 Q 11.388782 388.2089 10.398453 401.08316 L 26.243713 401.08316 Q 15.350097 401.08316 12.37911 401.08316 Q 10.398453 401.08316 10.398453 401.08316 L 10.398453 401.08316 L 10.398453 401.08316 L 10.398453 401.08316 L 10.398453 402.0735 Q 10.398453 402.0735 10.398453 402.0735 Q 10.398453 402.0735 10.398453 403.06384 Q 10.398453 404.05417 10.398453 407.02515 Q 11.388782 411.97678 12.37911 419.8994 Q 15.350097 435.7447 29.2147 457.53192 Q 42.088974 479.31915 71.798836 495.1644 Q 100.51837 511.00967 149.0445 512 L 149.0445 512 Q 149.0445 512 150.03482 512 Q 150.03482 512 151.02515 512 Q 151.02515 512 152.01547 512 Q 152.01547 512 153.0058 512 Q 153.99612 512 154.98647 512 Q 205.49323 508.0387 238.17409 474.3675 Q 270.85492 439.706 271.84528 389.19922 Q 270.85492 345.62476 246.09671 313.93423 L 293.6325 313.93423 Q 329.28433 312.9439 355.03287 288.1857 L 380.78143 262.43713 L 380.78143 262.43713 Z M 460.99808 110.916824 Q 476.84332 95.07156 464.95938 77.24565 L 431.2882 73.28433 L 431.2882 73.28433 L 431.2882 73.28433 Q 431.2882 73.28433 431.2882 74.27466 Q 430.29788 74.27466 430.29788 74.27466 Q 429.30756 75.26499 427.32687 76.25532 Q 426.33655 77.24565 426.33655 77.24565 Q 420.3946 81.20696 409.50098 87.14893 Q 387.71375 99.03288 358.9942 100.02321 L 358.9942 100.02321 Q 326.31335 98.04256 300.5648 85.16828 Q 287.69052 80.21664 279.76788 75.26499 Q 279.76788 75.26499 278.77756 75.26499 Q 275.80658 73.28433 274.81625 72.29401 Q 273.82593 71.30367 273.82593 71.30367 Q 272.8356 71.30367 272.8356 71.30367 L 272.8356 71.30367 L 272.8356 71.30367 L 272.8356 71.30367 L 272.8356 71.30367 Q 261.942 65.3617 253.029 73.28433 Q 245.10638 82.19729 251.04836 93.09091 L 263.92264 84.17795 Q 254.01935 90.11992 252.03868 92.10058 Q 250.05803 93.09091 251.04836 93.09091 L 251.04836 93.09091 L 251.04836 93.09091 L 251.04836 93.09091 L 251.04836 93.09091 L 251.04836 94.08124 Q 252.03868 94.08124 252.03868 95.07156 Q 252.03868 95.07156 253.029 96.0619 Q 255.00967 98.04256 257.98065 102.00387 Q 264.91296 109.9265 277.78723 120.820114 Q 291.65182 130.7234 311.4584 138.64604 Q 332.2553 147.55899 358.9942 147.55899 L 358.9942 147.55899 Q 403.559 144.58801 431.2882 129.73308 Q 444.16248 121.81045 452.0851 116.8588 Q 456.04642 114.87814 458.02707 112.897484 Q 458.02707 112.897484 458.02707 112.897484 Q 459.0174 111.90716 460.00775 111.90716 Q 460.00775 111.90716 460.00775 110.916824 L 460.99808 110.916824 L 460.99808 110.916824 L 460.99808 110.916824 L 460.99808 110.916824 L 460.99808 110.916824 Q 460.99808 110.916824 459.0174 107.94584 Q 457.03674 105.96519 446.14313 92.10058 L 460.99808 110.916824 L 460.99808 110.916824 Z M 431.2882 73.28433 L 464.95938 77.24565 Q 449.1141 61.400387 431.2882 73.28433 L 431.2882 73.28433 Z M 358.9942 381.27658 L 358.9942 381.27658 Q 358.9942 381.27658 358.9942 381.27658 Q 358.9942 381.27658 358.9942 381.27658 L 358.9942 381.27658 Z" />
</svg>