<svg xmlns="http://www.w3.org/2000/svg" viewBox="0 0 654 526">
  <path d="M 463 31 L 463 183 L 463 31 L 463 183 L 495 183 L 495 183 Q 517 185 519 207 Q 517 229 495 231 L 439 231 L 383 231 Q 361 229 359 207 Q 361 185 383 183 L 415 183 L 415 183 L 415 64 L 415 64 L 399 70 L 399 70 Q 377 75 368 55 Q 363 33 383 24 L 431 8 L 431 8 Q 443 5 453 12 Q 463 19 463 31 L 463 31 Z M 239 319 L 239 471 L 239 319 L 239 471 L 271 471 L 271 471 Q 293 473 295 495 Q 293 517 271 519 L 215 519 L 159 519 Q 137 517 135 495 Q 137 473 159 471 L 191 471 L 191 471 L 191 352 L 191 352 L 175 358 L 175 358 Q 153 363 144 343 Q 139 321 159 312 L 207 296 L 207 296 Q 219 293 229 299 Q 239 307 239 319 L 239 319 Z M 135 79 Q 136 48 156 28 L 156 28 L 156 28 Q 176 8 207 7 L 255 7 L 255 7 Q 286 8 306 28 Q 326 48 327 79 L 327 159 L 327 159 Q 326 192 302 213 L 407 295 L 407 295 L 447 295 L 447 295 Q 478 296 498 316 Q 518 336 519 367 L 519 383 L 519 383 L 638 476 L 638 476 Q 654 491 642 510 Q 627 526 608 514 L 16 50 L 16 50 Q 0 35 12 16 Q 27 0 46 12 L 135 82 L 135 82 L 135 79 L 135 79 Z M 183 120 L 262 182 L 183 120 L 262 182 Q 278 176 279 159 L 279 79 L 279 79 Q 277 57 255 55 L 207 55 L 207 55 Q 185 57 183 79 L 183 120 L 183 120 Z M 327 367 Q 327 361 328 356 L 375 393 L 375 393 L 375 447 L 375 447 Q 377 469 399 471 L 447 471 L 447 471 Q 458 471 465 463 L 502 493 L 502 493 Q 481 518 447 519 L 399 519 L 399 519 Q 368 518 348 498 Q 328 478 327 447 L 327 367 L 327 367 Z" />
</svg>