<svg xmlns="http://www.w3.org/2000/svg" viewBox="0 0 640 512">
  <path d="M 24 0 Q 2 2 0 24 Q 2 46 24 48 L 70 48 L 70 48 Q 76 48 77 55 L 129 326 L 129 326 Q 134 351 154 368 Q 173 384 200 384 L 321 384 L 321 384 Q 320 376 320 368 Q 320 352 323 336 L 200 336 L 200 336 Q 181 335 176 317 L 171 288 L 171 288 L 339 288 L 339 288 Q 353 261 375 240 L 162 240 L 162 240 L 131 80 L 131 80 L 521 80 L 521 80 L 491 192 L 491 192 Q 493 192 496 192 Q 518 192 539 197 L 570 82 L 570 82 Q 574 63 563 48 Q 551 33 531 32 L 120 32 L 120 32 Q 105 2 70 0 L 24 0 L 24 0 Z M 176 512 Q 203 511 218 488 Q 230 464 218 440 Q 203 417 176 416 Q 149 417 134 440 Q 122 464 134 488 Q 149 511 176 512 L 176 512 Z M 352 368 Q 352 407 371 440 L 371 440 L 371 440 Q 390 473 424 493 Q 458 512 496 512 Q 534 512 568 493 Q 602 473 621 440 Q 640 407 640 368 Q 640 329 621 296 Q 602 263 568 243 Q 534 224 496 224 Q 458 224 424 243 Q 390 263 371 296 Q 352 329 352 368 L 352 368 Z M 560 384 L 512 384 L 560 384 L 512 384 L 512 432 L 512 432 Q 511 447 496 448 Q 481 447 480 432 L 480 384 L 480 384 L 432 384 L 432 384 Q 417 383 416 368 Q 417 353 432 352 L 480 352 L 480 352 L 480 304 L 480 304 Q 481 289 496 288 Q 511 289 512 304 L 512 352 L 512 352 L 560 352 L 560 352 Q 575 353 576 368 Q 575 383 560 384 L 560 384 Z" />
</svg>