<svg xmlns="http://www.w3.org/2000/svg" viewBox="0 0 640 512">
  <path d="M 196 130 L 298 233 L 196 130 L 298 233 Q 307 243 320 243 Q 333 243 343 233 L 444 130 L 444 130 Q 466 106 466 76 Q 466 45 444 22 Q 421 0 391 0 Q 361 0 338 22 L 320 40 L 320 40 L 302 22 L 302 22 Q 279 0 249 0 Q 219 0 196 22 Q 174 45 174 76 Q 174 106 196 130 L 196 130 Z M 144 129 Q 143 98 123 78 L 123 78 L 123 78 Q 103 58 72 57 Q 41 58 21 78 Q 1 98 0 129 L 0 345 L 0 345 Q 1 395 35 430 L 103 498 L 103 498 Q 120 512 137 498 Q 151 481 137 464 L 69 396 L 69 396 Q 48 375 48 345 L 48 129 L 48 129 Q 50 107 72 105 Q 94 107 96 129 L 96 275 L 96 275 Q 97 315 124 343 L 140 359 L 140 359 Q 140 359 140 359 L 167 386 L 167 386 Q 167 386 167 386 Q 167 386 167 386 L 183 402 L 183 402 Q 200 416 217 402 Q 231 385 217 368 L 201 352 L 201 352 Q 201 352 201 352 Q 201 352 201 352 L 174 325 L 174 325 Q 168 319 168 310 Q 170 291 189 289 Q 198 289 204 295 L 266 357 L 266 357 Q 295 387 296 430 L 296 481 L 296 481 Q 298 503 320 505 Q 342 503 344 481 L 344 430 L 344 430 Q 345 387 374 357 L 436 295 L 436 295 Q 442 289 451 289 Q 470 291 472 310 Q 472 319 466 325 L 439 352 L 439 352 Q 439 352 439 352 Q 439 352 439 352 L 423 368 L 423 368 Q 409 385 423 402 Q 440 416 457 402 L 473 386 L 473 386 Q 473 386 473 386 L 500 359 L 500 359 Q 500 359 500 359 L 516 343 L 516 343 Q 543 315 544 275 L 544 129 L 544 129 Q 546 107 568 105 Q 590 107 592 129 L 592 345 L 592 345 Q 592 375 571 396 L 503 464 L 503 464 Q 489 481 503 498 Q 520 512 537 498 L 605 430 L 605 430 Q 639 395 640 345 L 640 129 L 640 129 Q 639 98 619 78 Q 599 58 568 57 Q 537 58 517 78 Q 497 98 496 129 L 496 258 L 496 258 Q 477 242 451 241 Q 422 241 402 261 L 340 323 L 340 323 Q 329 334 320 348 Q 311 334 300 323 L 238 261 L 238 261 Q 218 241 189 241 Q 163 242 144 258 L 144 129 L 144 129 Z" />
</svg>