<svg xmlns="http://www.w3.org/2000/svg" viewBox="0 0 320 512">
  <path d="M 125 50 L 128 48 L 125 50 L 128 48 L 128 32 L 128 32 Q 128 18 137 9 Q 146 0 160 0 Q 174 0 183 9 Q 192 18 192 32 L 192 48 L 192 48 L 195 50 L 195 50 Q 223 65 224 96 Q 238 96 247 105 Q 256 114 256 128 L 256 144 L 256 144 L 278 166 L 278 166 Q 319 208 320 268 L 320 448 L 320 448 Q 319 475 301 493 Q 283 511 256 512 L 64 512 L 64 512 Q 37 511 19 493 Q 1 475 0 448 L 0 268 L 0 268 Q 1 208 42 166 L 64 144 L 64 144 L 64 128 L 64 128 Q 64 114 73 105 Q 82 96 96 96 Q 97 65 125 50 L 125 50 Z M 272 448 L 272 268 L 272 448 L 272 268 Q 271 228 244 200 L 236 192 L 236 192 L 84 192 L 84 192 L 76 200 L 76 200 Q 49 228 48 268 L 48 272 L 48 272 L 136 272 L 136 272 Q 158 274 160 296 Q 158 318 136 320 L 48 320 L 48 320 L 48 368 L 48 368 L 136 368 L 136 368 Q 158 370 160 392 Q 158 414 136 416 L 48 416 L 48 416 L 48 448 L 48 448 Q 49 463 64 464 L 256 464 L 256 464 Q 271 463 272 448 L 272 448 Z" />
</svg>