<svg xmlns="http://www.w3.org/2000/svg" viewBox="0 0 640 512">
  <path d="M 256 48 Q 308 48 351 71 L 351 71 L 351 71 Q 395 94 423 133 Q 451 121 475 140 Q 483 148 492 156 Q 461 86 399 43 Q 336 1 256 0 Q 184 1 127 35 Q 69 69 35 127 Q 1 184 0 256 Q 1 328 35 385 Q 69 443 127 477 Q 184 511 256 512 Q 307 512 351 494 Q 332 476 318 455 Q 289 464 256 464 Q 168 462 109 403 Q 50 344 48 256 Q 50 168 109 109 Q 168 50 256 48 L 256 48 Z M 368 152 Q 366 130 344 128 Q 322 130 320 152 L 320 200 L 320 200 Q 321 218 338 223 Q 352 204 368 185 L 368 152 L 368 152 Z M 192 152 Q 190 130 168 128 Q 146 130 144 152 L 144 200 L 144 200 Q 146 222 168 224 Q 190 222 192 200 L 192 152 L 192 152 Z M 280 152 Q 278 130 256 128 Q 234 130 232 152 L 232 200 L 232 200 Q 234 222 256 224 Q 278 222 280 200 L 280 152 L 280 152 Z M 506 208 L 487 188 L 506 208 L 487 188 Q 485 187 484 185 Q 482 183 481 182 Q 481 182 481 182 Q 481 182 481 182 Q 481 181 480 181 Q 468 163 448 160 Q 437 160 428 167 Q 390 200 357 248 Q 323 295 320 352 Q 322 420 366 465 Q 411 510 480 512 Q 548 510 593 465 Q 638 420 640 352 Q 638 306 614 264 Q 590 222 559 193 Q 550 185 539 185 Q 527 185 518 194 L 506 208 L 506 208 Z M 544 400 Q 543 427 525 445 L 525 445 L 525 445 Q 507 463 480 464 Q 453 463 435 445 Q 417 427 416 400 Q 418 372 437 348 Q 456 324 471 312 Q 480 305 489 312 Q 504 324 523 348 Q 542 372 544 400 L 544 400 Z" />
</svg>