<svg xmlns="http://www.w3.org/2000/svg" viewBox="0 0 512 448">
  <path d="M 184 48 L 328 48 L 184 48 L 328 48 Q 335 49 336 56 L 336 96 L 336 96 L 176 96 L 176 96 L 176 56 L 176 56 Q 177 49 184 48 L 184 48 Z M 128 56 L 128 96 L 128 56 L 128 96 L 100 96 L 100 96 Q 80 96 66 110 L 14 162 L 14 162 Q 0 176 0 196 L 0 296 L 0 296 L 0 384 L 0 384 Q 1 411 19 429 Q 37 447 64 448 L 448 448 L 448 448 Q 475 447 493 429 Q 511 411 512 384 L 512 296 L 512 296 L 512 196 L 512 196 Q 512 176 498 162 L 446 110 L 446 110 Q 432 96 412 96 L 384 96 L 384 96 L 384 56 L 384 56 Q 383 32 368 16 Q 352 1 328 0 L 184 0 L 184 0 Q 160 1 144 16 Q 129 32 128 56 L 128 56 Z M 464 272 L 368 272 L 464 272 L 368 272 L 368 256 L 368 256 Q 366 234 344 232 Q 322 234 320 256 L 320 272 L 320 272 L 192 272 L 192 272 L 192 256 L 192 256 Q 190 234 168 232 Q 146 234 144 256 L 144 272 L 144 272 L 48 272 L 48 272 L 48 196 L 48 196 L 100 144 L 100 144 L 412 144 L 412 144 L 464 196 L 464 196 L 464 272 L 464 272 Z M 48 320 L 144 320 L 48 320 L 144 320 L 144 336 L 144 336 Q 146 358 168 360 Q 190 358 192 336 L 192 320 L 192 320 L 320 320 L 320 320 L 320 336 L 320 336 Q 322 358 344 360 Q 366 358 368 336 L 368 320 L 368 320 L 464 320 L 464 320 L 464 384 L 464 384 Q 463 399 448 400 L 64 400 L 64 400 Q 49 399 48 384 L 48 320 L 48 320 Z" />
</svg>