<svg xmlns="http://www.w3.org/2000/svg" viewBox="0 0 512 512">
  <path d="M 242.98305 41.654236 Q 256 31.240679 269.88474 41.654236 L 498.98306 236.04068 Q 512 249.05763 500.71866 265.54578 Q 487.7017 278.5627 472.08136 267.28134 L 450.38644 249.92543 L 450.38644 411.3356 Q 449.51865 440.84067 430.42712 460.8 Q 410.4678 479.89154 380.9627 480.7593 L 131.0373 480.7593 Q 101.5322 479.89154 81.57288 460.8 Q 62.481358 440.84067 61.61356 411.3356 L 61.61356 249.92543 L 40.78644 267.28134 Q 24.298306 278.5627 11.281356 265.54578 Q 0 249.05763 13.884746 236.04068 L 242.98305 41.654236 L 242.98305 41.654236 Z M 103.2678 214.34576 L 103.2678 411.3356 Q 103.2678 423.48474 111.077965 431.29492 Q 118.88814 439.10507 131.0373 439.10507 L 380.9627 439.10507 Q 393.11188 439.10507 400.92203 431.29492 Q 408.7322 423.48474 408.7322 411.3356 L 408.7322 214.34576 L 256 85.04407 L 103.2678 214.34576 L 103.2678 214.34576 Z M 200.46101 230.8339 Q 201.32881 199.59322 228.23051 183.10509 Q 256 167.48474 283.7695 183.10509 Q 310.67117 199.59322 311.53897 230.8339 Q 310.67117 262.0746 283.7695 278.5627 Q 256 294.18304 228.23051 278.5627 Q 201.32881 262.0746 200.46101 230.8339 L 200.46101 230.8339 Z M 228.23051 314.14236 L 283.7695 314.14236 Q 313.27457 315.01016 333.2339 334.10168 Q 352.3254 354.061 353.1932 383.5661 Q 352.3254 396.58304 339.30847 397.45084 L 172.69153 397.45084 Q 159.67458 396.58304 158.80678 383.5661 Q 159.67458 354.061 178.7661 334.10168 Q 198.72542 315.01016 228.23051 314.14236 L 228.23051 314.14236 Z" />
</svg>