<svg xmlns="http://www.w3.org/2000/svg" viewBox="0 0 448 512">
  <path d="M 321 259 Q 302 283 306 312 L 306 312 L 306 312 Q 309 341 335 360 Q 390 396 399 464 L 49 464 L 49 464 Q 58 396 113 360 Q 139 342 142 313 Q 146 283 127 259 Q 97 225 96 176 Q 97 122 133 85 Q 170 49 224 48 Q 278 49 315 85 Q 351 122 352 176 Q 351 225 321 259 L 321 259 Z M 358 291 Q 399 243 400 176 Q 398 101 348 52 Q 299 2 224 0 Q 149 2 100 52 Q 50 101 48 176 Q 49 243 91 291 Q 96 298 95 306 Q 94 314 87 320 Q 47 346 24 387 Q 1 429 0 480 Q 0 494 9 503 Q 18 512 32 512 L 416 512 L 416 512 Q 430 512 439 503 Q 448 494 448 480 Q 447 429 424 387 Q 401 346 361 320 Q 354 314 353 306 Q 352 298 357 291 L 358 291 Z M 176 352 Q 161 353 160 368 L 160 432 L 160 432 Q 161 447 176 448 Q 191 447 192 432 L 192 368 L 192 368 Q 191 353 176 352 L 176 352 Z M 272 352 Q 257 353 256 368 L 256 432 L 256 432 Q 257 447 272 448 Q 287 447 288 432 L 288 368 L 288 368 Q 287 353 272 352 L 272 352 Z M 144 176 Q 146 211 167 237 L 167 237 L 167 237 Q 189 263 208 277 Q 224 288 240 277 Q 259 263 281 237 Q 302 211 304 176 Q 303 142 281 119 Q 258 97 224 96 Q 190 97 167 119 Q 145 142 144 176 L 144 176 Z" />
</svg>