<svg xmlns="http://www.w3.org/2000/svg" viewBox="0 0 290 512">
  <path d="M 41 0 Q 20 2 17 22 L 3 199 L 3 199 Q 0 256 33 298 Q 66 340 121 350 L 121 464 L 121 464 L 57 464 L 57 464 Q 35 466 33 488 Q 35 510 57 512 L 145 512 L 233 512 Q 255 510 257 488 Q 255 466 233 464 L 169 464 L 169 464 L 169 350 L 169 350 Q 224 340 257 298 Q 290 256 287 199 L 273 22 L 273 22 Q 270 2 249 0 L 41 0 L 41 0 Z M 51 202 L 63 48 L 51 202 L 63 48 L 227 48 L 227 48 L 239 202 L 239 202 Q 241 245 214 274 Q 187 303 145 304 Q 103 303 76 274 Q 49 245 51 202 L 51 202 Z" />
</svg>