<svg xmlns="http://www.w3.org/2000/svg" viewBox="0 0 512 512">
  <path d="M 144 110 Q 144 134.8 161.6 153.2 L 244.8 235.6 Q 256 245.2 267.2 235.6 L 350.4 153.2 Q 368 134.8 368 110 Q 367.2 83.6 350.4 66 Q 332.8 49.2 306.4 48.4 Q 281.6 48.4 263.2 66 L 256 74 L 248.8 66 Q 230.4 48.4 205.6 48.4 Q 179.2 49.2 161.6 66 Q 144.8 83.6 144 110 L 144 110 Z M 115.2 157.2 Q 114.4 132.4 98.4 116.4 L 98.4 116.4 Q 82.4 100.4 57.6 99.6 Q 32.8 100.4 16.8 116.4 Q 0.8 132.4 0 157.2 L 0 330 Q 0.8 370 28 398 L 82.4 452.4 Q 96 463.6 109.6 452.4 Q 120.8 438.8 109.6 425.2 L 55.2 370.8 Q 38.4 354 38.4 330 L 38.4 157.2 Q 40 139.6 57.6 138 Q 75.2 139.6 76.8 157.2 L 76.8 274 Q 77.6 306 99.2 328.4 L 112 341.2 L 112 341.2 L 133.6 362.8 L 133.6 362.8 L 146.4 375.6 Q 160 386.8 173.6 375.6 Q 184.8 362 173.6 348.4 L 160.8 335.6 L 160.8 335.6 L 139.2 314 Q 134.4 309.2 134.4 302 Q 136 286.8 151.2 285.2 Q 158.4 285.2 163.2 290 L 212.8 339.6 Q 236 363.6 236.8 398 L 236.8 438.8 Q 238.4 456.4 256 458 Q 273.6 456.4 275.2 438.8 L 275.2 398 Q 276 363.6 299.2 339.6 L 348.8 290 Q 353.6 285.2 360.8 285.2 Q 376 286.8 377.6 302 Q 377.6 309.2 372.8 314 L 351.2 335.6 L 351.2 335.6 L 338.4 348.4 Q 327.2 362 338.4 375.6 Q 352 386.8 365.6 375.6 L 378.4 362.8 L 378.4 362.8 L 400 341.2 L 400 341.2 L 412.8 328.4 Q 434.4 306 435.2 274 L 435.2 157.2 Q 436.8 139.6 454.4 138 Q 472 139.6 473.6 157.2 L 473.6 330 Q 472.8 354 456.8 370.8 L 402.4 425.2 Q 391.2 438.8 402.4 452.4 Q 416 463.6 429.6 452.4 L 484 398 Q 511.2 370 512 330 L 512 157.2 Q 511.2 132.4 495.2 116.4 Q 479.2 100.4 454.4 99.6 Q 429.6 100.4 413.6 116.4 Q 397.6 132.4 396.8 157.2 L 396.8 260.4 Q 381.6 247.6 360.8 246.8 Q 337.6 246.8 321.6 262.8 L 272 312.4 Q 263.2 321.2 256 332.4 Q 248.8 321.2 239.2 312.4 L 190.4 262.8 Q 174.4 246.8 151.2 246.8 Q 130.4 247.6 115.2 260.4 L 115.2 157.2 L 115.2 157.2 Z" />
</svg>