<svg xmlns="http://www.w3.org/2000/svg" viewBox="0 0 512 512">
  <path d="M 464 256 Q 464 313 436 360 L 436 360 L 436 360 Q 409 407 360 436 Q 311 464 256 464 Q 201 464 152 436 Q 103 407 76 360 Q 48 313 48 256 Q 48 199 76 152 Q 103 105 152 76 Q 201 48 256 48 Q 311 48 360 76 Q 409 105 436 152 Q 464 199 464 256 L 464 256 Z M 0 256 Q 1 326 34 384 L 34 384 L 34 384 Q 68 442 128 478 Q 189 512 256 512 Q 323 512 384 478 Q 444 442 478 384 Q 511 326 512 256 Q 511 186 478 128 Q 444 70 384 34 Q 323 0 256 0 Q 189 0 128 34 Q 68 70 34 128 Q 1 186 0 256 L 0 256 Z M 295 151 Q 288 144 278 144 Q 258 146 256 166 L 256 208 L 256 208 L 160 208 L 160 208 Q 146 208 137 217 Q 128 226 128 240 L 128 272 L 128 272 Q 128 286 137 295 Q 146 304 160 304 L 256 304 L 256 304 L 256 346 L 256 346 Q 258 366 278 368 Q 288 368 295 361 L 379 270 L 379 270 Q 384 264 384 256 Q 384 248 379 242 L 295 151 L 295 151 Z" />
</svg>