<svg xmlns="http://www.w3.org/2000/svg" viewBox="0 0 640 480">
  <path d="M 384 48 L 64 48 L 384 48 L 64 48 Q 49 49 48 64 L 48 384 L 48 384 Q 49 399 64 400 L 306 400 L 306 400 Q 318 426 338 448 L 64 448 L 64 448 Q 37 447 19 429 Q 1 411 0 384 L 0 64 L 0 64 Q 1 37 19 19 Q 37 1 64 0 L 384 0 L 384 0 Q 411 1 429 19 Q 447 37 448 64 L 448 96 L 448 96 Q 428 94 413 108 Q 406 114 400 119 L 400 64 L 400 64 Q 399 49 384 48 L 384 48 Z M 294 279 Q 291 280 288 280 Q 266 278 264 256 Q 266 234 288 232 Q 301 232 308 242 Q 299 261 294 279 L 294 279 Z M 96 128 Q 96 114 105 105 L 105 105 L 105 105 Q 114 96 128 96 L 320 96 L 320 96 Q 334 96 343 105 Q 352 114 352 128 L 352 160 L 352 160 Q 352 174 343 183 Q 334 192 320 192 L 128 192 L 128 192 Q 114 192 105 183 Q 96 174 96 160 L 96 128 L 96 128 Z M 128 232 Q 150 234 152 256 Q 150 278 128 280 Q 106 278 104 256 Q 106 234 128 232 L 128 232 Z M 184 256 Q 186 234 208 232 Q 230 234 232 256 Q 230 278 208 280 Q 186 278 184 256 L 184 256 Z M 506 176 L 518 162 L 506 176 L 518 162 Q 527 153 539 153 Q 550 153 559 161 Q 590 190 614 232 Q 638 274 640 320 Q 638 388 593 433 Q 548 478 480 480 Q 411 478 366 433 Q 322 388 320 320 Q 323 263 357 216 Q 390 168 428 135 Q 437 128 448 128 Q 468 131 481 149 Q 481 149 481 149 Q 484 153 487 156 L 506 176 L 506 176 Z M 544 368 Q 542 340 523 316 L 523 316 L 523 316 Q 504 292 489 280 Q 480 273 471 280 Q 456 292 437 316 Q 418 340 416 368 Q 417 395 435 413 Q 453 431 480 432 Q 507 431 525 413 Q 543 395 544 368 L 544 368 Z" />
</svg>