<svg xmlns="http://www.w3.org/2000/svg" viewBox="0 0 512 512">
  <path d="M 221.5765 60.53787 Q 233.44667 51.041733 246.10818 60.53787 L 360.06183 157.08191 Q 344.23492 156.29057 332.36475 166.57805 Q 328.40805 169.74344 324.45132 172.90881 Q 323.65997 174.4915 322.86862 175.28284 L 233.44667 100.1051 L 94.17001 218.01546 L 94.17001 397.6507 Q 94.17001 408.72952 101.292114 415.85162 Q 108.41422 422.97372 119.49304 422.97372 L 157.47758 422.97372 L 157.47758 302.68933 Q 157.47758 289.23648 166.97372 280.53168 Q 175.67851 271.03555 189.13138 271.03555 L 250.06491 271.03555 Q 240.56877 290.02783 236.61206 309.02008 L 195.46213 309.02008 L 195.46213 422.97372 L 262.72644 422.97372 Q 278.5533 445.13138 301.50232 460.95828 L 119.49304 460.95828 Q 92.587326 460.16693 74.3864 442.75735 Q 56.976814 424.55643 56.18547 397.6507 L 56.18547 250.46059 L 37.1932 266.28748 Q 22.15765 276.57495 10.28748 264.7048 Q 0 249.66924 12.661514 237.79907 L 221.5765 60.53787 L 221.5765 60.53787 Z M 364.8099 185.57033 Q 387.75888 206.14528 408.33386 231.46832 Q 417.83 218.8068 429.70016 207.72798 Q 437.6136 201.39722 445.52704 207.72798 Q 474.8068 236.21638 493.00772 271.8269 Q 501.71252 289.23648 506.4606 305.8547 Q 512 322.47296 512 334.3431 Q 510.4173 388.15457 474.8068 423.76508 Q 439.1963 459.37558 385.38486 460.95828 Q 330.78207 459.37558 295.17157 423.76508 Q 260.3524 388.15457 258.7697 334.3431 Q 259.56107 301.10666 284.09274 261.5394 Q 308.62442 221.97218 348.983 185.57033 Q 352.14838 182.40495 356.89645 182.40495 Q 360.85318 182.40495 364.8099 185.57033 L 364.8099 185.57033 Z M 424.9521 398.44205 Q 443.153 384.98917 447.10974 364.4142 L 447.10974 364.4142 Q 451.06647 343.0479 440.779 322.47296 Q 439.98764 320.0989 438.40494 317.72488 Q 436.82227 315.35086 435.23956 312.9768 L 406.75116 346.2133 Q 405.9598 345.42194 394.88098 331.17773 Q 383.80215 316.93353 371.932 301.89798 Q 360.06183 286.86246 357.68777 283.69705 Q 340.2782 305.06335 330.78207 320.0989 Q 322.07727 335.13446 322.07727 348.58734 Q 322.86862 377.86707 341.06955 393.69397 Q 358.47913 410.31223 386.1762 410.31223 Q 407.5425 410.31223 424.9521 398.44205 L 424.9521 398.44205 Z" />
</svg>