<svg xmlns="http://www.w3.org/2000/svg" viewBox="0 0 512 512">
  <path d="M 252 128 L 252 128 Q 268 144 291 144 L 448 144 Q 463 145 464 160 L 464 416 Q 463 431 448 432 L 368 432 Q 367 398 345 375 Q 322 353 288 352 L 224 352 Q 190 353 167 375 Q 145 398 144 432 L 64 432 Q 49 431 48 416 L 48 96 Q 49 81 64 80 L 198 80 Q 204 80 209 85 L 243 51 L 209 85 L 252 128 L 252 128 Z M 286 94 L 243 51 Q 224 32 197 32 L 64 32 Q 37 33 19 51 Q 1 69 0 96 L 0 416 Q 1 443 19 461 Q 37 479 64 480 L 448 480 Q 475 479 493 461 Q 511 443 512 416 L 512 160 Q 511 133 493 115 Q 475 97 448 96 L 291 96 Q 288 96 286 94 L 286 94 Z M 320 256 Q 319 220 288 201 Q 256 183 224 201 Q 193 220 192 256 Q 193 292 224 311 Q 256 329 288 311 Q 319 292 320 256 L 320 256 Z" />
</svg>