<svg xmlns="http://www.w3.org/2000/svg" viewBox="0 0 480 448">
  <path d="M 402 155 Q 381 107 338 78 L 338 78 L 338 78 Q 295 49 240 48 Q 178 49 134 92 L 130 96 L 130 96 L 166 132 L 166 132 Q 176 142 176 157 Q 176 172 166 182 Q 156 192 141 192 L 24 192 L 24 192 Q 2 190 0 168 L 0 51 L 0 51 Q 0 36 10 26 Q 20 16 35 16 Q 50 16 60 26 L 96 62 L 96 62 L 100 58 L 100 58 Q 158 1 240 0 Q 310 1 365 38 Q 420 75 446 136 Q 453 157 434 168 Q 413 174 402 155 L 402 155 Z M 34 312 Q 27 291 47 281 Q 68 274 78 293 Q 99 341 142 370 Q 185 399 240 400 Q 302 399 346 356 L 350 352 L 350 352 L 314 316 L 314 316 Q 304 306 304 291 Q 304 276 314 266 Q 324 256 339 256 L 456 256 L 456 256 Q 478 258 480 280 L 480 397 L 480 397 Q 480 412 470 422 Q 460 432 445 432 Q 430 432 420 422 L 384 386 L 384 386 L 380 390 L 380 390 Q 321 447 240 448 Q 170 447 115 410 Q 61 373 34 312 L 34 312 Z M 48 144 L 110 144 L 48 144 L 110 144 L 48 82 L 48 82 L 48 144 L 48 144 Z M 432 304 L 370 304 L 432 304 L 370 304 L 432 366 L 432 366 L 432 304 L 432 304 Z" />
</svg>