<svg xmlns="http://www.w3.org/2000/svg" viewBox="0 0 640 512">
  <path d="M 427 1 Q 429 0 432 0 L 440 0 L 536 0 Q 558 2 560 24 Q 559 37 549 44 Q 554 53 557 64 L 631 64 L 631 64 Q 639 65 640 73 Q 640 80 634 82 L 564 105 L 564 105 L 569 145 L 569 145 Q 573 173 559 196 Q 546 220 520 231 Q 491 242 464 232 L 464 240 L 464 240 L 464 241 L 464 241 L 464 242 L 464 242 Q 463 293 432 328 L 432 464 L 432 464 Q 431 484 418 498 Q 404 511 384 512 L 336 512 L 336 512 Q 316 511 302 498 Q 289 484 288 464 L 288 365 L 288 365 L 236 349 L 236 349 Q 235 355 233 361 L 220 393 L 220 393 Q 220 395 220 398 L 235 451 L 235 451 Q 241 475 227 493 Q 213 511 189 512 L 139 512 L 139 512 Q 123 512 110 502 Q 98 493 93 477 L 82 436 L 82 436 Q 69 389 86 342 L 94 321 L 94 321 L 72 266 L 72 266 Q 64 246 64 224 Q 64 220 64 216 Q 49 227 48 248 L 48 312 L 48 312 Q 46 334 24 336 Q 2 334 0 312 L 0 248 L 0 248 Q 1 212 25 187 Q 48 162 84 160 Q 94 146 107 136 Q 115 162 127 184 Q 112 201 112 224 Q 112 237 117 248 L 139 303 L 139 303 Q 145 320 139 338 L 131 359 L 131 359 Q 119 391 128 424 L 139 464 L 139 464 L 189 464 L 189 464 L 174 411 L 174 411 Q 169 393 176 376 L 188 344 L 188 344 Q 192 333 192 320 Q 192 320 192 319 Q 192 307 201 300 Q 211 292 223 296 L 311 321 L 311 321 Q 314 322 317 323 Q 335 328 336 346 L 336 464 L 336 464 L 384 464 L 384 464 L 384 318 L 384 318 Q 384 308 391 301 Q 415 278 416 242 Q 416 242 416 241 Q 416 241 416 241 Q 416 240 416 240 Q 416 239 416 239 L 416 184 L 416 184 Q 417 168 432 161 Q 448 157 459 169 L 465 176 L 465 176 Q 480 194 502 186 Q 524 176 522 152 L 512 82 L 512 82 Q 510 67 499 58 Q 488 48 473 48 L 472 48 L 435 48 Q 434 48 433 48 Q 395 51 369 76 Q 342 101 337 139 Q 333 159 313 160 L 313 160 L 313 160 Q 307 160 301 158 L 180 97 L 180 97 Q 186 128 200 150 Q 213 172 228 186 Q 249 203 264 211 Q 272 214 276 216 Q 276 216 277 216 Q 278 217 279 217 L 279 217 L 279 217 Q 295 223 296 240 Q 294 262 272 264 Q 268 264 264 263 Q 264 263 263 262 Q 263 262 263 262 Q 261 262 258 260 Q 252 258 242 253 Q 222 244 196 221 Q 169 197 149 157 Q 129 116 128 56 Q 128 43 139 36 Q 151 29 163 35 L 297 101 L 297 101 Q 312 59 346 32 Q 381 5 427 1 L 427 1 Z M 464 80 Q 479 81 480 96 Q 479 111 464 112 Q 449 111 448 96 Q 449 81 464 80 L 464 80 Z" />
</svg>