<svg xmlns="http://www.w3.org/2000/svg" viewBox="0 0 648 518">
  <path d="M 280 12 Q 295 0 311 12 L 455 134 L 455 134 Q 435 133 420 146 Q 415 150 410 154 Q 409 156 408 157 L 295 62 L 295 62 L 119 211 L 119 211 L 119 438 L 119 438 Q 119 452 128 461 Q 137 470 151 470 L 199 470 L 199 470 L 199 318 L 199 318 Q 199 301 211 290 Q 222 278 239 278 L 316 278 L 316 278 Q 304 302 299 326 L 247 326 L 247 326 L 247 470 L 247 470 L 332 470 L 332 470 Q 352 498 381 518 L 151 518 L 151 518 Q 117 517 94 495 Q 72 472 71 438 L 71 252 L 71 252 L 47 272 L 47 272 Q 28 285 13 270 Q 0 251 16 236 L 280 12 L 280 12 Z M 487 518 Q 419 516 374 471 L 374 471 L 374 471 Q 329 426 327 358 Q 330 300 364 253 Q 398 205 434 179 Q 442 173 451 173 Q 463 173 473 182 L 519 228 L 519 228 L 530 217 L 530 217 Q 540 208 551 207 Q 563 207 573 216 Q 616 260 632 297 Q 648 334 647 358 Q 645 426 600 471 Q 555 516 487 518 L 487 518 Z M 551 406 Q 549 378 530 354 L 530 354 L 530 354 Q 511 330 496 318 Q 487 311 478 318 Q 463 330 444 354 Q 425 378 423 406 Q 424 433 442 451 Q 460 470 487 470 Q 514 470 532 451 Q 550 433 551 406 L 551 406 Z" />
</svg>