<svg xmlns="http://www.w3.org/2000/svg" viewBox="0 0 288 265">
  <path d="M 224 48 Q 209 49 208 64 L 208 192 L 208 192 Q 209 207 224 208 Q 239 207 240 192 L 240 64 L 240 64 Q 239 49 224 48 L 224 48 Z M 160 64 Q 161 37 179 19 L 179 19 L 179 19 Q 197 1 224 0 Q 251 1 269 19 Q 287 37 288 64 L 288 192 L 288 192 Q 287 219 269 237 Q 251 255 224 256 Q 197 255 179 237 Q 161 219 160 192 L 160 64 L 160 64 Z M 64 208 Q 79 207 80 192 Q 79 177 64 176 Q 49 177 48 192 Q 49 207 64 208 L 64 208 Z M 128 192 Q 127 228 96 247 Q 64 265 32 247 Q 1 228 0 192 Q 1 156 32 137 Q 64 119 96 137 Q 127 156 128 192 L 128 192 Z" />
</svg>