<svg xmlns="http://www.w3.org/2000/svg" viewBox="0 0 640 480">
  <path d="M 360 48 L 360 136 L 360 48 L 360 136 L 464 136 L 464 136 L 464 64 L 464 64 Q 463 49 448 48 L 360 48 L 360 48 Z M 312 48 L 200 48 L 312 48 L 200 48 L 200 136 L 200 136 L 312 136 L 312 136 L 312 48 L 312 48 Z M 152 48 L 64 48 L 152 48 L 64 48 Q 49 49 48 64 L 48 136 L 48 136 L 152 136 L 152 136 L 152 48 L 152 48 Z M 48 184 L 48 264 L 48 184 L 48 264 L 152 264 L 152 264 L 152 184 L 152 184 L 48 184 L 48 184 Z M 48 312 L 48 384 L 48 312 L 48 384 Q 49 399 64 400 L 152 400 L 152 400 L 152 312 L 152 312 L 48 312 L 48 312 Z M 200 400 L 312 400 L 200 400 L 312 400 L 312 312 L 312 312 L 200 312 L 200 312 L 200 400 L 200 400 Z M 360 400 L 384 400 L 360 400 L 384 400 L 384 448 L 384 448 L 64 448 L 64 448 Q 37 447 19 429 Q 1 411 0 384 L 0 64 L 0 64 Q 1 37 19 19 Q 37 1 64 0 L 448 0 L 448 0 Q 475 1 493 19 Q 511 37 512 64 L 512 129 L 512 129 Q 458 138 431 184 L 360 184 L 360 184 L 360 264 L 360 264 L 416 264 L 416 264 L 416 265 L 416 265 Q 389 280 385 312 L 360 312 L 360 312 L 360 400 L 360 400 Z M 200 264 L 312 264 L 200 264 L 312 264 L 312 184 L 312 184 L 200 184 L 200 184 L 200 264 L 200 264 Z M 496 240 L 496 288 L 496 240 L 496 288 L 528 288 L 608 288 Q 622 288 631 297 Q 640 306 640 320 L 640 448 L 640 448 Q 640 462 631 471 Q 622 480 608 480 L 448 480 L 448 480 Q 434 480 425 471 Q 416 462 416 448 L 416 320 L 416 320 Q 416 306 425 297 Q 434 288 448 288 L 448 240 L 448 240 Q 449 206 471 183 Q 494 161 528 160 Q 562 161 585 183 Q 607 206 608 240 L 560 240 L 560 240 Q 560 226 551 217 Q 542 208 528 208 Q 514 208 505 217 Q 496 226 496 240 L 496 240 Z" />
</svg>