<svg xmlns="http://www.w3.org/2000/svg" viewBox="0 0 640 512">
  <path d="M 190 48 Q 176 48 165 55 L 147 67 L 147 67 Q 144 69 144 73 Q 145 79 151 80 L 166 80 L 166 80 Q 188 81 201 95 Q 215 110 213 132 L 206 212 L 206 212 Q 202 254 218 294 L 222 303 L 222 303 Q 229 324 209 334 Q 188 341 178 321 L 174 313 L 174 313 Q 153 262 158 207 L 166 128 L 166 128 L 151 128 L 151 128 Q 128 127 112 112 Q 97 96 96 73 Q 97 44 121 27 L 139 15 L 139 15 Q 162 0 190 0 L 191 0 L 191 0 Q 232 1 260 28 Q 287 56 288 97 L 288 163 L 288 163 Q 288 182 301 195 Q 314 207 333 208 L 341 208 L 341 208 Q 379 208 411 226 Q 444 243 464 275 L 483 305 L 483 305 Q 493 320 511 320 Q 530 319 539 304 Q 548 289 539 271 L 515 228 L 515 228 Q 514 227 514 226 Q 512 221 512 216 Q 512 211 514 206 Q 516 202 519 199 Q 522 196 526 194 Q 531 192 536 192 Q 541 192 546 194 Q 547 195 548 195 Q 548 195 549 196 L 579 214 L 579 214 Q 607 231 624 260 Q 640 288 640 322 Q 639 375 603 411 Q 567 447 514 448 L 496 448 L 496 448 L 496 472 L 496 472 Q 496 489 484 500 Q 473 512 456 512 L 406 512 L 406 512 Q 391 512 380 502 Q 369 492 366 477 L 363 448 L 363 448 L 309 448 L 309 448 L 306 477 L 306 477 Q 303 492 292 502 Q 281 512 266 512 L 216 512 L 216 512 Q 199 512 188 500 Q 176 489 176 472 L 176 446 L 176 446 Q 134 437 107 406 Q 81 374 80 330 L 80 304 L 80 304 L 56 304 L 56 304 Q 32 303 16 288 Q 1 272 0 248 Q 1 220 23 203 L 47 186 L 47 186 Q 72 168 103 168 Q 116 168 128 171 L 128 223 L 128 223 Q 117 216 103 216 Q 88 216 75 225 L 51 242 L 51 242 Q 48 244 48 248 Q 49 255 56 256 L 88 256 L 88 256 Q 105 256 116 268 Q 128 279 128 296 L 128 330 L 128 330 Q 129 360 149 379 Q 168 399 198 400 Q 222 402 224 426 L 224 464 L 224 464 L 259 464 L 259 464 L 264 421 L 264 421 Q 268 402 288 400 L 384 400 L 384 400 Q 404 402 408 421 L 413 464 L 413 464 L 448 464 L 448 464 L 448 424 L 448 424 Q 450 402 472 400 L 514 400 L 514 400 Q 547 399 569 377 Q 591 355 592 322 Q 592 313 590 304 Q 584 331 563 349 Q 542 367 511 368 Q 468 367 443 331 L 424 301 L 424 301 Q 394 258 341 256 L 333 256 L 333 256 Q 293 255 267 229 Q 241 203 240 163 L 240 97 L 240 97 Q 239 76 226 62 Q 212 49 191 48 L 190 48 L 190 48 Z M 390 176 L 341 176 L 390 176 L 340 176 L 341 170 L 341 170 Q 344 151 358 140 Q 371 128 390 128 L 409 128 L 409 128 Q 415 127 416 121 Q 416 117 413 115 L 395 103 L 395 103 Q 384 96 370 96 L 362 96 L 362 96 Q 339 96 320 109 L 320 97 L 320 97 Q 320 77 314 58 Q 336 48 362 48 L 370 48 L 370 48 Q 398 48 421 63 L 439 75 L 439 75 Q 463 92 464 121 Q 464 144 448 160 Q 432 175 409 176 L 390 176 L 390 176 Z" />
</svg>