<svg xmlns="http://www.w3.org/2000/svg" viewBox="0 0 512 512">
  <path d="M 121.26316 94.31579 L 121.26316 134.73685 L 148.21053 134.73685 L 188.63158 134.73685 L 256 134.73685 L 256 94.31579 L 121.26316 94.31579 L 121.26316 94.31579 Z M 80.8421 134.73685 L 80.8421 94.31579 L 53.894737 94.31579 Q 41.263157 95.1579 40.42105 107.789474 L 40.42105 134.73685 L 80.8421 134.73685 L 80.8421 134.73685 Z M 40.42105 175.1579 L 40.42105 222.3158 L 148.21053 222.3158 L 148.21053 175.1579 L 40.42105 175.1579 L 40.42105 175.1579 Z M 40.42105 309.89474 L 80.8421 309.89474 L 80.8421 262.73685 L 40.42105 262.73685 L 40.42105 309.89474 L 40.42105 309.89474 Z M 40.42105 350.3158 L 40.42105 377.26315 Q 41.263157 389.89474 53.894737 390.73685 L 148.21053 390.73685 L 148.21053 350.3158 L 121.26316 350.3158 L 80.8421 350.3158 L 40.42105 350.3158 L 40.42105 350.3158 Z M 121.26316 309.89474 L 216.42105 309.89474 Q 215.57895 315.78946 215.57895 321.6842 Q 215.57895 336 218.10527 350.3158 L 188.63158 350.3158 L 188.63158 390.73685 L 230.73685 390.73685 Q 240.8421 412.6316 257.6842 431.1579 L 53.894737 431.1579 Q 31.157894 430.3158 16 415.1579 Q 0.84210527 400 0 377.26315 L 0 107.789474 Q 0.84210527 85.052635 16 69.89474 Q 31.157894 54.736843 53.894737 53.894737 L 323.3684 53.894737 Q 346.10526 54.736843 361.26315 69.89474 Q 376.42105 85.052635 377.26315 107.789474 L 377.26315 149.05263 Q 375.57895 146.52632 373.05264 144.8421 Q 361.26315 134.73685 346.94736 134.73685 Q 331.78946 134.73685 320.8421 144.8421 Q 304 159.1579 289.6842 175.1579 L 188.63158 175.1579 L 188.63158 222.3158 L 252.63158 222.3158 Q 249.26315 226.52632 246.73685 231.57895 Q 237.47368 246.73685 229.89473 262.73685 L 121.26316 262.73685 L 121.26316 309.89474 L 121.26316 309.89474 Z M 336.8421 134.73685 L 336.8421 107.789474 Q 336 95.1579 323.3684 94.31579 L 296.42105 94.31579 L 296.42105 134.73685 L 336.8421 134.73685 L 336.8421 134.73685 Z M 355.3684 165.05263 Q 379.78946 186.94737 401.6842 213.89473 Q 411.78946 200.42105 424.42105 188.63158 Q 432.8421 181.89473 441.26315 188.63158 Q 472.42105 218.94737 491.78946 256.8421 Q 501.05264 275.3684 506.10526 293.05264 Q 512 310.73685 512 323.3684 Q 510.3158 380.6316 472.42105 418.5263 Q 434.5263 456.42105 377.26315 458.10526 Q 319.1579 456.42105 281.26315 418.5263 Q 244.21053 380.6316 242.52632 323.3684 Q 243.36842 288 269.4737 245.89473 Q 295.57895 203.78947 338.5263 165.05263 Q 341.89474 161.6842 346.94736 161.6842 Q 351.1579 161.6842 355.3684 165.05263 L 355.3684 165.05263 Z M 419.3684 391.57895 Q 438.73685 377.26315 442.94736 355.3684 L 442.94736 355.3684 Q 447.1579 332.6316 436.21054 310.73685 Q 435.3684 308.21054 433.6842 305.6842 Q 432 303.1579 430.3158 300.6316 L 400 336 Q 399.1579 335.1579 387.3684 320 Q 375.57895 304.8421 362.94736 288.8421 Q 350.3158 272.8421 347.78946 269.4737 Q 329.26315 292.21054 319.1579 308.21054 Q 309.89474 324.21054 309.89474 338.5263 Q 310.73685 369.6842 330.10526 386.5263 Q 348.6316 404.21054 378.10526 404.21054 Q 400.8421 404.21054 419.3684 391.57895 L 419.3684 391.57895 Z" />
</svg>