<svg xmlns="http://www.w3.org/2000/svg" viewBox="0 0 512 512">
  <path d="M 256 48 Q 199 48 152 76 L 152 76 L 152 76 Q 105 103 76 152 Q 48 201 48 256 Q 48 311 76 360 Q 105 409 152 436 Q 199 464 256 464 Q 313 464 360 436 Q 407 409 436 360 Q 464 311 464 256 Q 464 201 436 152 Q 407 103 360 76 Q 313 48 256 48 L 256 48 Z M 256 512 Q 186 511 128 478 L 128 478 L 128 478 Q 70 444 34 384 Q 0 323 0 256 Q 0 189 34 128 Q 70 68 128 34 Q 186 1 256 0 Q 326 1 384 34 Q 442 68 478 128 Q 512 189 512 256 Q 512 323 478 384 Q 442 444 384 478 Q 326 511 256 512 L 256 512 Z M 361 305 L 273 393 L 361 305 L 273 393 Q 256 407 239 393 L 151 305 L 151 305 Q 137 288 151 271 Q 168 257 185 271 L 232 318 L 232 318 L 232 136 L 232 136 Q 234 114 256 112 Q 278 114 280 136 L 280 318 L 280 318 L 327 271 L 327 271 Q 344 257 361 271 Q 375 288 361 305 L 361 305 Z" />
</svg>