<svg xmlns="http://www.w3.org/2000/svg" viewBox="0 0 512 512">
  <path d="M 391.52942 96.94118 Q 363.29413 98.82353 361.41177 127.05882 L 361.41177 368 Q 363.29413 396.2353 391.52942 398.11765 Q 419.7647 396.2353 421.64706 368 L 421.64706 127.05882 Q 419.7647 98.82353 391.52942 96.94118 L 391.52942 96.94118 Z M 271.05884 127.05882 Q 272.94116 76.23529 306.82352 42.35294 L 306.82352 42.35294 Q 340.70587 8.470589 391.52942 6.5882354 Q 442.35294 8.470589 476.2353 42.35294 Q 510.11765 76.23529 512 127.05882 L 512 368 Q 510.11765 418.82352 476.2353 452.70587 Q 442.35294 486.58823 391.52942 488.47058 Q 340.70587 486.58823 306.82352 452.70587 Q 272.94116 418.82352 271.05884 368 L 271.05884 127.05882 L 271.05884 127.05882 Z M 120.47059 398.11765 Q 148.70589 396.2353 150.58824 368 Q 148.70589 339.7647 120.47059 337.88235 Q 92.23529 339.7647 90.35294 368 Q 92.23529 396.2353 120.47059 398.11765 L 120.47059 398.11765 Z M 240.94118 368 Q 239.05882 435.7647 180.70589 471.52942 Q 120.47059 505.41177 60.235294 471.52942 Q 1.882353 435.7647 0 368 Q 1.882353 300.2353 60.235294 264.47058 Q 120.47059 230.58824 180.70589 264.47058 Q 239.05882 300.2353 240.94118 368 L 240.94118 368 Z" />
</svg>