<svg xmlns="http://www.w3.org/2000/svg" viewBox="0 0 512 512">
  <path d="M 131.55556 96.888885 Q 132.44444 67.55556 151.11111 48 L 151.11111 48 Q 170.66667 29.333334 200 28.444445 Q 227.55556 28.444445 248 48 L 256 56.88889 L 264 48 Q 284.44446 28.444445 312 28.444445 Q 341.33334 29.333334 360.8889 48 Q 379.55554 67.55556 380.44446 96.888885 Q 380.44446 124.44444 360.8889 144.88889 L 268.44446 236.44444 Q 256 247.11111 243.55556 236.44444 L 151.11111 144.88889 Q 131.55556 124.44444 131.55556 96.888885 L 131.55556 96.888885 Z M 166.22223 341.33334 Q 155.55556 341.33334 146.66667 347.55554 L 75.55556 394.66666 Q 70.22222 398.22223 64 398.22223 L 21.333334 398.22223 Q 1.7777778 396.44446 0 376.8889 Q 1.7777778 357.33334 21.333334 355.55554 L 57.77778 355.55554 L 123.55556 312 Q 143.11111 298.66666 166.22223 298.66666 L 305.77777 298.66666 Q 329.77777 299.55554 345.77777 315.55554 Q 361.77777 331.55554 362.66666 355.55554 Q 362.66666 356.44446 362.66666 356.44446 Q 362.66666 356.44446 362.66666 357.33334 L 420.44446 321.77777 Q 434.66666 312.8889 451.55554 312.8889 L 458.66666 312.8889 Q 480.8889 313.77777 496 328.8889 Q 511.1111 344 512 366.22223 Q 511.1111 395.55554 488 411.55554 L 402.66666 466.66666 Q 376 483.55554 344.8889 483.55554 L 21.333334 483.55554 Q 1.7777778 481.77777 0 462.22223 Q 1.7777778 442.66666 21.333334 440.8889 L 344.8889 440.8889 Q 363.55554 440.8889 379.55554 430.22223 L 464 376 Q 469.33334 372.44446 469.33334 366.22223 Q 468.44446 356.44446 458.66666 355.55554 L 451.55554 355.55554 Q 447.1111 355.55554 442.66666 358.22223 L 360 408.8889 Q 354.66666 412.44446 348.44446 412.44446 L 305.77777 412.44446 L 284.44446 412.44446 L 227.55556 412.44446 Q 208 410.66666 206.22223 391.1111 Q 208 371.55554 227.55556 369.77777 L 284.44446 369.77777 L 305.77777 369.77777 Q 319.1111 368.8889 320 355.55554 Q 319.1111 342.22223 305.77777 341.33334 L 166.22223 341.33334 L 166.22223 341.33334 Z" />
</svg>