<svg xmlns="http://www.w3.org/2000/svg" viewBox="0 0 640 512">
  <path d="M 144 48 L 247 48 L 144 48 L 247 48 Q 251 48 254 52 L 326 160 L 326 160 L 144 160 L 144 160 L 144 48 L 144 48 Z M 384 224 L 384 208 L 384 224 L 384 208 L 384 183 L 384 183 Q 384 161 372 143 L 294 25 L 294 25 Q 276 1 247 0 L 136 0 L 136 0 Q 119 0 108 12 Q 96 23 96 40 L 96 160 L 96 160 L 48 160 L 48 160 Q 28 161 14 174 Q 1 188 0 208 L 0 272 L 0 272 Q 1 292 14 306 Q 28 319 48 320 L 336 320 L 336 320 Q 356 319 370 306 Q 383 292 384 272 L 384 224 L 384 224 Z M 336 208 L 336 224 L 336 208 L 336 224 L 336 272 L 336 272 L 48 272 L 48 272 L 48 208 L 48 208 L 336 208 L 336 208 Z M 80 400 L 336 400 L 80 400 L 336 400 Q 350 400 359 409 Q 368 418 368 432 Q 368 446 359 455 Q 350 464 336 464 L 80 464 L 80 464 Q 66 464 57 455 Q 48 446 48 432 Q 48 418 57 409 Q 66 400 80 400 L 80 400 Z M 0 432 Q 1 466 23 489 L 23 489 L 23 489 Q 46 511 80 512 L 336 512 L 336 512 Q 370 511 393 489 Q 415 466 416 432 Q 415 398 393 375 Q 370 353 336 352 L 80 352 L 80 352 Q 46 353 23 375 Q 1 398 0 432 L 0 432 Z M 458 454 Q 448 464 448 478 Q 448 492 458 502 Q 468 512 482 512 L 560 512 L 560 512 Q 594 511 617 489 Q 639 466 640 432 L 640 384 L 640 384 L 640 336 L 640 336 L 640 320 L 640 320 L 640 144 L 640 144 L 640 47 L 640 47 Q 640 43 639 39 Q 636 22 624 11 Q 611 0 593 0 Q 576 0 563 11 L 416 139 L 416 139 L 416 202 L 416 202 L 592 50 L 592 50 L 592 80 L 592 80 L 560 108 L 560 108 L 416 234 L 416 234 L 416 298 L 416 298 L 544 186 L 544 186 L 592 144 L 592 144 L 592 208 L 592 208 L 592 320 L 592 320 L 458 454 L 458 454 Z" />
</svg>