<svg xmlns="http://www.w3.org/2000/svg" viewBox="0 0 384 512">
  <path d="M 64 464 Q 49 463 48 448 L 48 64 L 48 64 Q 49 49 64 48 L 224 48 L 224 48 L 224 128 L 224 128 Q 224 142 233 151 Q 242 160 256 160 L 336 160 L 336 160 L 336 448 L 336 448 Q 335 463 320 464 L 64 464 L 64 464 Z M 64 0 Q 37 1 19 19 L 19 19 L 19 19 Q 1 37 0 64 L 0 448 L 0 448 Q 1 475 19 493 Q 37 511 64 512 L 320 512 L 320 512 Q 347 511 365 493 Q 383 475 384 448 L 384 155 L 384 155 Q 384 128 365 109 L 275 19 L 275 19 Q 256 0 230 0 L 64 0 L 64 0 Z M 240 224 L 144 224 L 240 224 L 144 224 Q 143 209 128 208 L 96 208 L 96 208 Q 81 209 80 224 L 80 256 L 80 256 Q 81 271 96 272 L 96 368 L 96 368 Q 81 369 80 384 L 80 416 L 80 416 Q 81 431 96 432 L 128 432 L 128 432 Q 143 431 144 416 L 240 416 L 240 416 Q 241 431 256 432 L 288 432 L 288 432 Q 303 431 304 416 L 304 384 L 304 384 Q 303 369 288 368 L 288 272 L 288 272 Q 303 271 304 256 L 304 224 L 304 224 Q 303 209 288 208 L 256 208 L 256 208 Q 241 209 240 224 L 240 224 Z M 144 368 L 144 272 L 144 368 L 144 272 L 240 272 L 240 272 L 240 368 L 240 368 L 144 368 L 144 368 Z" />
</svg>