<svg xmlns="http://www.w3.org/2000/svg" viewBox="0 0 576 512">
  <path d="M 224 16 L 224 32 L 224 16 L 224 32 L 224 48 L 224 48 L 224 432 L 224 432 L 96 432 L 96 432 L 96 48 L 96 48 L 96 32 L 96 32 L 96 16 L 96 16 L 224 16 L 224 16 Z M 80 16 L 80 32 L 80 16 L 80 32 L 16 32 L 0 32 L 0 48 L 0 48 L 0 496 L 0 496 L 0 512 L 0 512 L 16 512 L 576 512 L 576 496 L 576 496 L 576 48 L 576 48 L 576 32 L 576 32 L 560 32 L 240 32 L 240 16 L 240 16 L 240 0 L 240 0 L 224 0 L 80 0 L 80 16 L 80 16 Z M 16 48 L 80 48 L 16 48 L 80 48 L 80 432 L 80 432 L 80 448 L 80 448 L 96 448 L 240 448 L 240 432 L 240 432 L 240 48 L 240 48 L 560 48 L 560 48 L 560 496 L 560 496 L 16 496 L 16 496 L 16 48 L 16 48 Z M 320 112 L 480 112 L 320 112 L 480 112 L 480 192 L 480 192 L 320 192 L 320 192 L 320 112 L 320 112 Z M 304 96 L 304 112 L 304 96 L 304 112 L 304 192 L 304 192 L 304 208 L 304 208 L 320 208 L 496 208 L 496 192 L 496 192 L 496 112 L 496 112 L 496 96 L 496 96 L 480 96 L 304 96 Z M 304 256 L 304 264 L 304 256 L 304 264 L 304 328 L 304 328 L 304 336 L 304 336 L 312 336 L 384 336 L 384 328 L 384 328 L 384 264 L 384 264 L 384 256 L 384 256 L 376 256 L 304 256 Z M 320 272 L 368 272 L 320 272 L 368 272 L 368 320 L 368 320 L 320 320 L 320 320 L 320 272 L 320 272 Z M 424 256 L 416 256 L 424 256 L 416 256 L 416 264 L 416 264 L 416 328 L 416 328 L 416 336 L 416 336 L 424 336 L 496 336 L 496 328 L 496 328 L 496 264 L 496 264 L 496 256 L 496 256 L 488 256 L 424 256 Z M 432 320 L 432 272 L 432 320 L 432 272 L 480 272 L 480 272 L 480 320 L 480 320 L 432 320 L 432 320 Z M 416 368 L 416 376 L 416 368 L 416 376 L 416 440 L 416 440 L 416 448 L 416 448 L 424 448 L 496 448 L 496 440 L 496 440 L 496 376 L 496 376 L 496 368 L 496 368 L 488 368 L 416 368 Z M 432 384 L 480 384 L 432 384 L 480 384 L 480 432 L 480 432 L 432 432 L 432 432 L 432 384 L 432 384 Z M 312 368 L 304 368 L 312 368 L 304 368 L 304 376 L 304 376 L 304 440 L 304 440 L 304 448 L 304 448 L 312 448 L 384 448 L 384 440 L 384 440 L 384 376 L 384 376 L 384 368 L 384 368 L 376 368 L 312 368 Z M 320 432 L 320 384 L 320 432 L 320 384 L 368 384 L 368 384 L 368 432 L 368 432 L 320 432 L 320 432 Z" />
</svg>