<svg xmlns="http://www.w3.org/2000/svg" viewBox="0 0 504 512">
  <path d="M 16 496 L 112 496 L 16 496 L 112 496 L 112 512 L 112 512 L 16 512 L 0 512 L 0 496 L 0 496 L 0 16 L 0 16 L 0 0 L 0 0 L 16 0 L 224 0 L 384 160 L 384 160 L 384 304 L 384 304 L 368 304 L 368 304 L 368 176 L 368 176 L 216 176 L 208 176 L 208 168 L 208 168 L 208 16 L 208 16 L 16 16 L 16 16 L 16 496 L 16 496 Z M 361 160 L 224 23 L 361 160 L 224 23 L 224 160 L 224 160 L 361 160 L 361 160 Z M 176 368 L 208 368 L 176 368 L 208 368 Q 228 369 242 382 Q 255 396 256 416 Q 255 436 242 450 Q 228 463 208 464 L 184 464 L 184 464 L 184 504 L 184 504 L 184 512 L 184 512 L 168 512 L 168 512 L 168 504 L 168 504 L 168 456 L 168 456 L 168 376 L 168 376 L 168 368 L 168 368 L 176 368 L 176 368 Z M 208 448 Q 222 448 231 439 L 231 439 L 231 439 Q 240 430 240 416 Q 240 402 231 393 Q 222 384 208 384 L 184 384 L 184 384 L 184 448 L 184 448 L 208 448 L 208 448 Z M 304 368 L 308 368 L 304 368 L 313 368 L 315 373 L 315 373 L 360 478 L 360 478 L 360 376 L 360 376 L 360 368 L 360 368 L 376 368 L 376 368 L 376 376 L 376 376 L 376 504 L 376 504 L 376 512 L 376 512 L 368 512 L 357 512 L 355 507 L 355 507 L 312 406 L 312 406 L 312 504 L 312 504 L 312 512 L 312 512 L 296 512 L 296 512 L 296 504 L 296 504 L 296 376 L 296 376 L 296 368 L 296 368 L 304 368 L 304 368 Z M 424 400 Q 424 386 433 377 L 433 377 L 433 377 Q 442 368 456 368 L 472 368 L 472 368 Q 486 368 495 377 Q 504 386 504 400 L 504 416 L 504 416 L 488 416 L 488 416 L 488 400 L 488 400 Q 487 385 472 384 L 456 384 L 456 384 Q 441 385 440 400 L 440 480 L 440 480 Q 441 495 456 496 L 472 496 L 472 496 Q 487 495 488 480 L 488 464 L 488 464 L 480 464 L 472 464 L 472 448 L 472 448 L 480 448 L 504 448 L 504 456 L 504 456 L 504 480 L 504 480 Q 504 494 495 503 Q 486 512 472 512 L 456 512 L 456 512 Q 442 512 433 503 Q 424 494 424 480 L 424 400 L 424 400 Z" />
</svg>