<svg xmlns="http://www.w3.org/2000/svg" viewBox="0 0 480 480">
  <path d="M 192 16 Q 268 17 329 53 L 329 53 L 329 53 Q 391 89 427 151 L 427 151 L 427 151 Q 463 212 464 288 L 480 288 L 480 288 Q 479 208 441 143 Q 402 78 337 39 Q 272 1 192 0 L 192 16 L 192 16 Z M 384 288 Q 382 206 328 152 L 328 152 L 328 152 Q 274 98 192 96 L 192 112 L 192 112 Q 267 114 316 164 Q 366 213 368 288 L 384 288 L 384 288 Z M 16 72 L 16 64 L 16 72 L 16 64 L 0 64 L 0 64 L 0 72 L 0 72 L 0 336 L 0 336 Q 2 397 42 438 Q 83 478 144 480 Q 205 478 246 438 Q 286 397 288 336 Q 286 275 246 234 Q 205 194 144 192 L 136 192 L 128 192 L 128 208 L 128 208 L 136 208 L 144 208 Q 198 209 235 245 Q 271 282 272 336 Q 271 390 235 427 Q 198 463 144 464 Q 90 463 53 427 Q 17 390 16 336 L 16 72 L 16 72 Z" />
</svg>