<svg xmlns="http://www.w3.org/2000/svg" viewBox="0 0 509 509">
  <path d="M 178 410 Q 181 409 221 392 L 221 496 L 221 496 L 221 509 L 221 509 L 233 503 L 233 503 L 377 431 L 377 431 L 381 429 L 381 429 L 381 424 L 381 424 L 381 312 L 381 312 Q 387 308 392 305 Q 457 259 483 204 Q 508 149 509 97 Q 509 45 500 9 Q 464 0 412 0 Q 361 1 305 26 Q 250 52 204 117 Q 204 117 204 118 Q 200 123 197 128 L 85 128 L 80 128 L 78 132 L 78 132 L 6 276 L 6 276 L 0 288 L 0 288 L 13 288 L 116 288 Q 98 327 98 329 L 178 410 L 178 410 Z M 237 483 L 237 385 L 237 483 L 237 385 Q 267 372 301 355 Q 335 339 365 322 L 365 419 L 365 419 L 237 483 L 237 483 Z M 187 144 Q 170 174 153 208 L 153 208 L 153 208 Q 136 243 123 272 L 26 272 L 26 272 L 90 144 L 90 144 L 187 144 L 187 144 Z M 117 325 Q 118 323 119 319 L 119 319 L 119 319 Q 121 316 123 312 Q 132 289 148 255 Q 164 221 182 186 Q 201 151 218 126 Q 258 68 308 43 Q 357 19 404 17 Q 451 14 486 23 Q 495 58 492 105 Q 490 152 466 201 Q 441 251 383 292 Q 358 308 323 326 Q 288 344 253 360 Q 219 375 196 385 Q 193 386 191 387 Q 186 389 182 391 L 117 325 L 117 325 Z M 405 144 Q 404 167 385 179 Q 365 189 345 179 Q 326 167 325 144 Q 326 121 345 109 Q 365 99 385 109 Q 404 121 405 144 L 405 144 Z M 365 88 Q 333 89 317 116 Q 301 144 317 172 Q 333 199 365 200 Q 397 199 413 172 Q 429 144 413 116 Q 397 89 365 88 L 365 88 Z" />
</svg>