<svg xmlns="http://www.w3.org/2000/svg" viewBox="0 0 448 512">
  <path d="M 40 0 L 32 0 L 40 0 L 32 0 L 32 8 L 32 8 L 32 43 L 32 43 L 4 57 L 4 57 L 0 59 L 0 59 L 0 64 L 0 64 L 0 160 L 0 160 L 0 165 L 0 165 L 4 167 L 4 167 L 32 181 L 32 181 L 32 187 L 32 187 L 4 201 L 4 201 L 0 203 L 0 203 L 0 208 L 0 208 L 0 304 L 0 304 L 0 309 L 0 309 L 4 311 L 4 311 L 32 325 L 32 325 L 32 331 L 32 331 L 4 345 L 4 345 L 0 347 L 0 347 L 0 352 L 0 352 L 0 448 L 0 448 L 0 453 L 0 453 L 4 455 L 4 455 L 32 469 L 32 469 L 32 504 L 32 504 L 32 512 L 32 512 L 40 512 L 416 512 L 416 504 L 416 504 L 416 469 L 416 469 L 444 455 L 444 455 L 448 453 L 448 453 L 448 448 L 448 448 L 448 352 L 448 352 L 448 347 L 448 347 L 444 345 L 444 345 L 416 331 L 416 331 L 416 325 L 416 325 L 444 311 L 444 311 L 448 309 L 448 309 L 448 304 L 448 304 L 448 208 L 448 208 L 448 203 L 448 203 L 444 201 L 444 201 L 416 187 L 416 187 L 416 181 L 416 181 L 444 167 L 444 167 L 448 165 L 448 165 L 448 160 L 448 160 L 448 64 L 448 64 L 448 59 L 448 59 L 444 57 L 444 57 L 416 43 L 416 43 L 416 8 L 416 8 L 416 0 L 416 0 L 408 0 L 40 0 Z M 48 48 L 48 16 L 48 48 L 48 16 L 400 16 L 400 16 L 400 48 L 400 48 L 400 53 L 400 53 L 404 55 L 404 55 L 432 69 L 432 69 L 432 155 L 432 155 L 404 169 L 404 169 L 400 171 L 400 171 L 400 176 L 400 176 L 400 192 L 400 192 L 400 197 L 400 197 L 404 199 L 404 199 L 432 213 L 432 213 L 432 299 L 432 299 L 404 313 L 404 313 L 400 315 L 400 315 L 400 320 L 400 320 L 400 336 L 400 336 L 400 341 L 400 341 L 404 343 L 404 343 L 432 357 L 432 357 L 432 443 L 432 443 L 404 457 L 404 457 L 400 459 L 400 459 L 400 464 L 400 464 L 400 496 L 400 496 L 48 496 L 48 496 L 48 464 L 48 464 L 48 459 L 48 459 L 44 457 L 44 457 L 16 443 L 16 443 L 16 357 L 16 357 L 44 343 L 44 343 L 48 341 L 48 341 L 48 336 L 48 336 L 48 320 L 48 320 L 48 315 L 48 315 L 44 313 L 44 313 L 16 299 L 16 299 L 16 213 L 16 213 L 44 199 L 44 199 L 48 197 L 48 197 L 48 192 L 48 192 L 48 176 L 48 176 L 48 171 L 48 171 L 44 169 L 44 169 L 16 155 L 16 155 L 16 69 L 16 69 L 44 55 L 44 55 L 48 53 L 48 53 L 48 48 L 48 48 Z M 112 80 L 336 80 L 112 80 L 336 80 L 336 432 L 336 432 L 112 432 L 112 432 L 112 80 L 112 80 Z M 96 64 L 96 80 L 96 64 L 96 80 L 96 432 L 96 432 L 96 448 L 96 448 L 112 448 L 352 448 L 352 432 L 352 432 L 352 80 L 352 80 L 352 64 L 352 64 L 336 64 L 96 64 Z" />
</svg>