<svg xmlns="http://www.w3.org/2000/svg" viewBox="0 0 635 518">
  <path d="M 272 54 Q 272 40 263 31 L 263 31 L 263 31 Q 254 22 240 22 Q 226 22 217 31 Q 208 40 208 54 Q 208 68 217 77 Q 226 86 240 86 Q 254 86 263 77 Q 272 68 272 54 L 272 54 Z M 192 54 Q 193 27 216 12 Q 240 0 264 12 Q 287 27 288 54 Q 287 81 264 96 Q 240 108 216 96 Q 193 81 192 54 L 192 54 Z M 348 83 L 351 91 L 348 83 L 351 91 L 390 169 L 390 169 L 576 246 L 576 246 L 576 342 L 576 342 L 486 402 L 486 402 L 564 502 L 564 502 L 573 502 L 573 502 L 618 456 L 618 456 L 624 451 L 624 451 L 635 462 L 635 462 L 630 468 L 630 468 L 582 516 L 582 516 L 579 518 L 579 518 L 576 518 L 560 518 L 560 518 L 560 518 L 424 518 L 416 518 L 416 502 L 416 502 L 424 502 L 544 502 L 468 406 L 468 406 L 339 406 L 339 406 Q 334 397 328 390 L 472 390 L 472 390 L 472 390 L 472 390 L 475 390 L 475 390 L 560 333 L 560 333 L 560 257 L 560 257 L 389 185 L 389 185 L 300 288 L 300 288 Q 295 294 288 294 L 90 294 L 90 294 L 58 358 L 58 358 Q 48 359 38 362 L 80 278 L 80 278 L 288 278 L 288 278 L 343 214 L 343 214 L 288 214 L 284 214 L 282 211 L 282 211 L 236 150 L 236 150 L 165 150 L 165 150 L 119 242 L 119 242 L 115 249 L 115 249 L 101 242 L 101 242 L 105 234 L 105 234 L 153 138 L 153 138 L 155 134 L 155 134 L 160 134 L 244 134 L 246 137 L 246 137 L 292 198 L 292 198 L 357 198 L 357 198 L 376 176 L 376 176 L 337 98 L 337 98 L 333 90 L 333 90 L 348 83 L 348 83 Z M 304 454 Q 303 434 290 420 L 290 420 L 290 420 Q 276 407 256 406 L 64 406 L 64 406 Q 44 407 30 420 Q 17 434 16 454 Q 17 474 30 488 Q 44 501 64 502 L 256 502 L 256 502 Q 276 501 290 488 Q 303 474 304 454 L 304 454 Z M 64 390 L 256 390 L 64 390 L 256 390 Q 283 391 301 409 Q 319 427 320 454 Q 319 481 301 499 Q 283 517 256 518 L 64 518 L 64 518 Q 37 517 19 499 Q 1 481 0 454 Q 1 427 19 409 Q 37 391 64 390 L 64 390 Z" />
</svg>