<svg xmlns="http://www.w3.org/2000/svg" viewBox="0 0 512 512">
  <path d="M 0 512 L 0 0 L 0 512 L 0 0 L 16 0 L 16 0 L 16 512 L 16 512 L 0 512 L 0 512 Z M 112 208 L 496 208 L 112 208 L 496 208 L 496 80 L 496 80 L 112 80 L 112 80 L 112 208 L 112 208 Z M 96 80 L 96 64 L 96 80 L 96 64 L 112 64 L 512 64 L 512 80 L 512 80 L 512 208 L 512 208 L 512 224 L 512 224 L 496 224 L 96 224 L 96 208 L 96 208 L 96 80 L 96 80 Z M 112 432 L 368 432 L 112 432 L 368 432 L 368 304 L 368 304 L 112 304 L 112 304 L 112 432 L 112 432 Z M 96 304 L 96 288 L 96 304 L 96 288 L 112 288 L 384 288 L 384 304 L 384 304 L 384 432 L 384 432 L 384 448 L 384 448 L 368 448 L 96 448 L 96 432 L 96 432 L 96 304 L 96 304 Z" />
</svg>