<svg xmlns="http://www.w3.org/2000/svg" viewBox="0 0 288 512">
  <path d="M 80 96 L 80 64 L 80 96 L 80 64 L 112 48 L 112 48 L 112 32 L 112 32 Q 112 18 121 9 Q 130 0 144 0 Q 158 0 167 9 Q 176 18 176 32 L 176 48 L 176 48 L 208 64 L 208 64 L 208 96 L 208 96 L 240 96 L 240 96 L 240 160 L 240 160 L 48 160 L 48 160 L 48 96 L 48 96 L 80 96 L 80 96 Z M 112 272 L 4 272 L 112 272 L 4 272 Q 10 242 29 218 L 48 192 L 48 192 L 240 192 L 240 192 L 259 218 L 259 218 Q 288 256 288 304 L 288 512 L 288 512 L 0 512 L 0 512 L 0 432 L 0 432 L 112 432 L 112 432 L 112 384 L 112 384 L 0 384 L 0 384 L 0 320 L 0 320 L 112 320 L 112 320 L 112 272 L 112 272 Z" />
</svg>