<svg xmlns="http://www.w3.org/2000/svg" viewBox="0 0 504 512">
  <path d="M 403 16 Q 384 18 371 30 Q 371 30 371 30 Q 371 30 371 30 Q 371 30 370 31 Q 370 31 369 32 Q 391 57 392 92 L 392 105 L 392 105 L 393 105 L 393 105 Q 418 107 440 118 Q 443 116 445 114 Q 445 114 445 114 Q 445 114 445 114 Q 449 110 453 106 Q 454 104 456 102 Q 464 89 464 72 Q 463 48 448 32 Q 432 17 408 16 Q 405 16 403 16 Q 403 16 403 16 L 403 16 Z M 408 0 Q 439 1 459 21 L 459 21 L 459 21 Q 479 41 480 72 Q 480 76 480 80 Q 478 97 469 110 Q 464 119 456 126 Q 456 126 456 126 Q 456 126 456 126 Q 455 126 455 127 Q 455 127 455 127 Q 502 162 504 224 L 504 256 L 504 256 L 504 264 L 504 264 L 496 264 L 373 264 L 337 343 L 337 343 L 394 360 L 394 360 L 400 362 L 400 362 L 400 368 L 400 368 L 400 408 L 400 408 L 400 416 L 400 416 L 392 416 L 56 416 Q 39 416 28 428 Q 16 439 16 456 Q 16 473 28 484 Q 39 495 56 496 L 472 496 L 480 496 L 480 512 L 480 512 L 472 512 L 56 512 Q 32 511 16 496 Q 1 480 0 456 Q 1 432 16 416 Q 32 401 56 400 L 96 400 L 96 400 L 96 336 L 96 336 Q 98 269 140 223 Q 182 176 248 169 Q 210 144 208 98 L 208 92 L 208 92 Q 209 53 235 27 Q 261 1 300 0 Q 333 1 358 20 Q 359 19 360 18 Q 360 18 360 18 Q 360 18 360 18 Q 366 13 373 9 Q 389 0 408 0 L 408 0 Z M 336 96 L 336 128 L 336 96 L 336 128 L 336 136 L 336 136 L 328 136 L 288 136 L 288 120 L 288 120 L 296 120 L 320 120 L 320 96 L 320 96 L 320 88 L 320 88 L 336 88 L 336 88 L 336 96 L 336 96 Z M 416 176 Q 431 177 432 192 Q 431 207 416 208 Q 401 207 400 192 Q 401 177 416 176 L 416 176 Z M 112 336 L 112 400 L 112 336 L 112 400 L 336 400 L 384 400 L 384 374 L 384 374 L 286 344 L 286 344 L 278 341 L 278 341 L 283 326 L 283 326 L 290 328 L 290 328 L 322 338 L 322 338 L 361 253 L 361 253 L 363 248 L 363 248 L 368 248 L 488 248 L 488 224 L 488 224 Q 487 182 460 153 Q 433 124 391 121 L 383 120 L 383 120 L 376 119 L 376 119 L 376 112 L 376 112 L 376 92 L 376 92 Q 375 60 354 38 Q 332 17 300 16 Q 268 17 246 38 Q 225 60 224 92 L 224 98 L 224 98 Q 224 120 237 137 Q 249 154 270 162 L 291 168 L 291 168 L 288 184 L 288 184 L 264 184 L 264 184 Q 199 186 157 229 Q 114 271 112 336 L 112 336 Z" />
</svg>