<svg xmlns="http://www.w3.org/2000/svg" viewBox="0 0 576 320">
  <path d="M 144 96 L 160 96 L 144 96 L 432 96 L 432 80 L 432 80 Q 433 53 451 35 Q 469 17 496 16 Q 523 17 541 35 Q 559 53 560 80 Q 558 122 522 139 L 512 143 L 512 143 L 512 153 L 512 153 L 512 167 L 512 167 L 512 177 L 512 177 L 522 181 L 522 181 Q 558 199 560 240 Q 559 267 541 285 Q 523 303 496 304 Q 469 303 451 285 Q 433 267 432 240 L 432 224 L 432 224 L 416 224 L 144 224 L 144 240 L 144 240 Q 143 267 125 285 Q 107 303 80 304 Q 53 303 35 285 Q 17 267 16 240 Q 18 199 54 181 L 64 177 L 64 177 L 64 167 L 64 167 L 64 153 L 64 153 L 64 143 L 64 143 L 54 139 L 54 139 Q 18 122 16 80 Q 17 53 35 35 Q 53 17 80 16 Q 107 17 125 35 Q 143 53 144 80 L 144 96 L 144 96 Z M 528 153 Q 550 144 563 124 L 563 124 L 563 124 Q 576 105 576 80 Q 575 46 553 23 Q 530 1 496 0 Q 462 1 439 23 Q 417 46 416 80 L 400 80 L 160 80 Q 159 46 137 23 Q 114 1 80 0 Q 46 1 23 23 Q 1 46 0 80 Q 0 105 13 124 Q 26 144 48 153 L 48 167 L 48 167 Q 26 176 13 196 Q 0 215 0 240 Q 1 274 23 297 Q 46 319 80 320 Q 114 319 137 297 Q 159 274 160 240 L 176 240 L 416 240 Q 417 274 439 297 Q 462 319 496 320 Q 530 319 553 297 Q 575 274 576 240 Q 576 215 563 196 Q 550 176 528 167 L 528 153 L 528 153 Z" />
</svg>