<svg xmlns="http://www.w3.org/2000/svg" viewBox="0 0 640 512">
  <path d="M 16 112 L 160 112 L 16 112 L 160 112 L 320 0 L 320 0 L 480 112 L 480 112 L 624 112 L 640 112 L 640 128 L 640 128 L 640 288 L 640 288 L 624 288 L 624 288 L 624 256 L 624 256 L 624 128 L 624 128 L 480 128 L 475 128 L 471 125 L 471 125 L 320 20 L 320 20 L 169 125 L 169 125 L 165 128 L 165 128 L 160 128 L 16 128 L 16 496 L 16 496 L 256 496 L 256 496 L 256 384 L 256 384 Q 257 357 275 339 Q 293 321 320 320 Q 347 321 365 339 Q 383 357 384 384 L 384 496 L 384 496 L 384 512 L 384 512 L 368 512 L 0 512 L 0 496 L 0 496 L 0 128 L 0 128 L 0 112 L 0 112 L 16 112 L 16 112 Z M 368 496 L 368 384 L 368 496 L 368 384 Q 367 364 354 350 Q 340 337 320 336 Q 300 337 286 350 Q 273 364 272 384 L 272 496 L 272 496 L 368 496 L 368 496 Z M 64 192 L 72 192 L 64 192 L 144 192 L 144 200 L 144 200 L 144 280 L 144 280 L 144 288 L 144 288 L 136 288 L 64 288 L 64 280 L 64 280 L 64 200 L 64 200 L 64 192 L 64 192 Z M 80 208 L 80 272 L 80 208 L 80 272 L 128 272 L 128 272 L 128 208 L 128 208 L 80 208 L 80 208 Z M 320 240 Q 356 239 375 208 Q 393 176 375 144 Q 356 113 320 112 Q 284 113 265 144 Q 247 176 265 208 Q 284 239 320 240 L 320 240 Z M 320 96 Q 365 97 389 136 Q 411 176 389 216 Q 365 255 320 256 Q 275 255 251 216 Q 229 176 251 136 Q 275 97 320 96 L 320 96 Z M 328 144 L 328 168 L 328 144 L 328 168 L 344 168 L 352 168 L 352 184 L 352 184 L 344 184 L 312 184 L 312 176 L 312 176 L 312 144 L 312 144 L 312 136 L 312 136 L 328 136 L 328 136 L 328 144 L 328 144 Z M 64 320 L 72 320 L 64 320 L 144 320 L 144 328 L 144 328 L 144 408 L 144 408 L 144 416 L 144 416 L 136 416 L 64 416 L 64 408 L 64 408 L 64 328 L 64 328 L 64 320 L 64 320 Z M 80 336 L 80 400 L 80 336 L 80 400 L 128 400 L 128 400 L 128 336 L 128 336 L 80 336 L 80 336 Z M 528 208 Q 508 209 494 222 L 494 222 L 494 222 Q 481 236 480 256 L 480 320 L 480 320 L 576 320 L 576 320 L 576 256 L 576 256 Q 575 236 562 222 Q 548 209 528 208 L 528 208 Z M 464 256 Q 465 229 483 211 L 483 211 L 483 211 Q 501 193 528 192 Q 555 193 573 211 Q 591 229 592 256 L 592 320 L 592 320 L 624 320 L 640 320 L 640 336 L 640 336 L 640 496 L 640 496 L 640 512 L 640 512 L 624 512 L 416 512 L 416 496 L 416 496 L 416 336 L 416 336 L 416 320 L 416 320 L 432 320 L 464 320 L 464 256 L 464 256 Z M 432 336 L 432 496 L 432 336 L 432 496 L 624 496 L 624 496 L 624 336 L 624 336 L 592 336 L 432 336 Z" />
</svg>