<svg xmlns="http://www.w3.org/2000/svg" viewBox="0 0 512 512">
  <path d="M 176 16 L 256 16 L 176 16 L 256 16 L 256 70 L 256 70 Q 257 147 306 205 L 323 225 L 323 225 Q 352 259 352 304 Q 351 355 317 389 Q 283 423 232 424 L 221 424 L 221 424 Q 168 423 133 387 Q 97 352 96 299 Q 96 259 119 226 L 135 205 L 135 205 Q 171 153 176 90 Q 176 86 176 81 L 176 75 L 176 75 L 176 56 L 176 56 L 176 16 L 176 16 Z M 160 16 L 160 56 L 160 16 L 160 56 L 160 75 L 160 75 Q 160 82 160 89 Q 156 115 136 131 L 53 198 L 53 198 Q 1 241 0 308 Q 2 367 41 407 Q 81 446 141 448 L 152 448 L 152 448 L 152 504 L 152 504 L 152 512 L 152 512 L 168 512 L 168 512 L 168 504 L 168 504 L 168 448 L 168 448 L 216 448 L 216 448 L 216 504 L 216 504 L 216 512 L 216 512 L 232 512 L 232 512 L 232 504 L 232 504 L 232 448 L 232 448 L 280 448 L 280 448 L 280 504 L 280 504 L 280 512 L 280 512 L 296 512 L 296 512 L 296 504 L 296 504 L 296 448 L 296 448 L 344 448 L 344 448 L 344 504 L 344 504 L 344 512 L 344 512 L 360 512 L 360 512 L 360 504 L 360 504 L 360 448 L 360 448 L 372 448 L 372 448 Q 431 446 471 407 Q 510 367 512 308 Q 511 241 459 198 L 376 131 L 376 131 Q 353 112 352 81 L 352 16 L 352 16 L 352 0 L 352 0 L 336 0 L 160 0 L 160 16 L 160 16 Z M 146 144 Q 148 142 149 141 Q 140 170 122 195 L 106 216 L 106 216 Q 80 254 80 299 Q 81 346 107 381 Q 132 417 174 432 L 141 432 L 141 432 Q 88 431 52 396 Q 17 360 16 308 Q 17 248 63 210 L 146 144 L 146 144 Z M 372 432 L 278 432 L 372 432 L 278 432 Q 318 417 343 383 Q 367 349 368 304 Q 367 253 335 215 L 318 195 L 318 195 Q 273 141 272 70 L 272 16 L 272 16 L 336 16 L 336 16 L 336 81 L 336 81 Q 337 119 366 144 L 449 210 L 449 210 Q 495 248 496 308 Q 495 360 460 396 Q 424 431 372 432 L 372 432 Z" />
</svg>