<svg xmlns="http://www.w3.org/2000/svg" viewBox="0 0 128 384">
  <path d="M 16 16 L 16 112 L 16 16 L 16 112 L 112 112 L 112 112 L 112 16 L 112 16 L 16 16 L 16 16 Z M 0 0 L 16 0 L 0 0 L 128 0 L 128 16 L 128 16 L 128 112 L 128 112 L 128 128 L 128 128 L 112 128 L 0 128 L 0 112 L 0 112 L 0 16 L 0 16 L 0 0 L 0 0 Z M 16 272 L 16 368 L 16 272 L 16 368 L 112 368 L 112 368 L 112 272 L 112 272 L 16 272 L 16 272 Z M 0 256 L 16 256 L 0 256 L 128 256 L 128 272 L 128 272 L 128 368 L 128 368 L 128 384 L 128 384 L 112 384 L 0 384 L 0 368 L 0 368 L 0 272 L 0 272 L 0 256 L 0 256 Z" />
</svg>