<svg xmlns="http://www.w3.org/2000/svg" viewBox="0 0 512 512">
  <path d="M 107 219 L 109 218 L 107 219 L 109 218 L 110 216 L 110 216 L 156 140 L 156 140 L 232 94 L 232 94 L 234 93 L 234 93 L 235 91 L 235 91 L 272 54 L 272 54 Q 311 17 365 16 Q 421 17 458 54 Q 495 91 496 147 Q 495 201 458 240 L 453 245 L 453 245 L 451 246 L 451 246 L 450 248 L 450 248 L 373 387 L 373 387 L 266 433 L 266 433 L 263 434 L 263 434 L 261 437 L 261 437 L 240 458 L 240 458 Q 201 495 147 496 Q 91 495 54 458 Q 17 421 16 365 Q 17 311 54 272 L 107 219 L 107 219 Z M 224 80 L 144 128 L 224 80 L 144 128 L 96 208 L 96 208 L 43 261 L 43 261 Q 1 304 0 365 Q 2 427 43 469 Q 85 510 147 512 Q 208 511 251 469 L 272 448 L 272 448 L 384 400 L 384 400 L 464 256 L 464 256 L 469 251 L 469 251 Q 511 208 512 147 Q 510 85 469 43 Q 427 2 365 0 Q 304 1 261 43 L 224 80 L 224 80 Z M 352 160 L 352 184 L 352 160 L 352 184 L 376 184 L 376 184 L 376 160 L 376 160 L 352 160 L 352 160 Z M 184 224 L 160 224 L 184 224 L 160 224 L 160 248 L 160 248 L 184 248 L 184 248 L 184 224 L 184 224 Z M 152 384 L 128 384 L 152 384 L 128 384 L 128 408 L 128 408 L 152 408 L 152 408 L 152 384 L 152 384 Z" />
</svg>