<svg xmlns="http://www.w3.org/2000/svg" viewBox="0 0 576 512">
  <path d="M 432 272 Q 486 271 523 235 L 523 235 L 523 235 Q 559 198 560 144 Q 559 90 523 53 Q 486 17 432 16 Q 390 17 358 40 Q 326 63 312 100 L 295 100 L 295 100 Q 310 56 346 28 Q 383 1 432 0 Q 493 2 534 42 Q 574 83 576 144 Q 574 205 534 246 Q 493 286 432 288 Q 383 287 346 260 L 358 248 L 358 248 Q 390 271 432 272 L 432 272 Z M 0 144 L 0 128 L 0 144 L 0 128 L 16 128 L 416 128 L 416 144 L 416 144 L 219 341 L 219 341 L 216 344 L 216 344 L 216 496 L 216 496 L 312 496 L 320 496 L 320 512 L 320 512 L 312 512 L 96 512 L 96 496 L 96 496 L 104 496 L 200 496 L 200 344 L 200 344 L 197 341 L 197 341 L 0 144 L 0 144 Z M 393 144 L 23 144 L 393 144 L 23 144 L 207 328 L 207 328 L 209 328 L 209 328 L 393 144 L 393 144 Z" />
</svg>