<svg xmlns="http://www.w3.org/2000/svg" viewBox="0 0 448 448">
  <path d="M 16 16 L 16 432 L 16 16 L 16 432 L 432 432 L 432 432 L 432 16 L 432 16 L 16 16 L 16 16 Z M 0 0 L 16 0 L 0 0 L 448 0 L 448 16 L 448 16 L 448 432 L 448 432 L 448 448 L 448 448 L 432 448 L 0 448 L 0 432 L 0 432 L 0 16 L 0 16 L 0 0 L 0 0 Z M 96 288 L 96 272 L 96 288 L 96 272 L 96 248 L 96 248 L 224 128 L 224 128 L 352 248 L 352 248 L 352 272 L 352 272 L 352 288 L 352 288 L 336 288 L 96 288 Z M 336 255 L 224 150 L 336 255 L 224 150 L 112 255 L 112 255 L 112 272 L 112 272 L 336 272 L 336 272 L 336 255 L 336 255 Z" />
</svg>