<svg xmlns="http://www.w3.org/2000/svg" viewBox="0 0 640 512">
  <path d="M 8 0 L 0 0 L 8 0 L 0 0 L 0 8 L 0 8 L 0 216 L 0 216 L 0 219 L 0 219 L 2 221 L 2 221 L 64 291 L 64 291 L 64 496 L 64 496 L 64 504 L 64 504 L 80 504 L 80 504 L 80 496 L 80 496 L 80 288 L 80 288 L 80 285 L 80 285 L 78 283 L 78 283 L 16 213 L 16 213 L 16 16 L 16 16 L 96 16 L 96 16 L 96 88 L 96 88 L 96 96 L 96 96 L 112 96 L 112 96 L 112 88 L 112 88 L 112 16 L 112 16 L 240 16 L 240 16 L 240 88 L 240 88 L 240 96 L 240 96 L 256 96 L 256 96 L 256 88 L 256 88 L 256 16 L 256 16 L 336 16 L 336 16 L 336 148 L 336 148 L 352 134 L 352 134 L 352 8 L 352 8 L 352 0 L 352 0 L 344 0 L 8 0 Z M 208 176 L 208 224 L 208 176 L 208 224 L 144 224 L 144 224 L 144 176 L 144 176 Q 144 162 153 153 Q 162 144 176 144 Q 190 144 199 153 Q 208 162 208 176 L 208 176 Z M 128 176 L 128 224 L 128 176 L 128 224 L 128 240 L 128 240 L 144 240 L 224 240 L 224 224 L 224 224 L 224 176 L 224 176 Q 223 156 210 142 Q 196 129 176 128 Q 156 129 142 142 Q 129 156 128 176 L 128 176 Z M 272 264 L 448 117 L 272 264 L 448 117 L 624 264 L 624 264 L 624 496 L 624 496 L 272 496 L 272 496 L 272 264 L 272 264 Z M 256 256 L 256 496 L 256 256 L 256 496 L 256 512 L 256 512 L 272 512 L 640 512 L 640 496 L 640 496 L 640 256 L 640 256 L 448 96 L 448 96 L 256 256 L 256 256 Z M 408 280 L 488 280 L 408 280 L 488 280 L 488 360 L 488 360 L 408 360 L 408 360 L 408 280 L 408 280 Z M 408 264 L 392 264 L 408 264 L 392 264 L 392 280 L 392 280 L 392 360 L 392 360 L 392 376 L 392 376 L 408 376 L 504 376 L 504 360 L 504 360 L 504 280 L 504 280 L 504 264 L 504 264 L 488 264 L 408 264 Z" />
</svg>