<svg xmlns="http://www.w3.org/2000/svg" viewBox="0 0 632 504">
  <path d="M 205 48 L 195 0 L 205 48 L 195 0 L 125 0 L 125 0 L 115 48 L 115 48 Q 94 56 78 70 L 34 56 L 34 56 L 0 115 L 0 115 L 34 146 L 34 146 Q 32 157 32 168 Q 32 179 34 190 L 0 221 L 0 221 L 34 280 L 34 280 L 78 266 L 78 266 Q 94 280 115 288 L 125 336 L 125 336 L 195 336 L 195 336 L 205 288 L 205 288 Q 226 280 243 266 L 286 280 L 286 280 L 320 221 L 320 221 L 286 190 L 286 190 Q 288 179 288 168 Q 288 157 286 146 L 320 115 L 320 115 L 286 56 L 286 56 L 243 70 L 243 70 Q 226 56 205 48 L 205 48 Z M 278 75 L 300 112 L 278 75 L 300 112 L 275 134 L 275 134 L 269 140 L 269 140 L 270 148 L 270 148 Q 272 158 272 168 Q 272 178 270 188 L 269 196 L 269 196 L 275 202 L 275 202 L 300 224 L 300 224 L 278 261 L 278 261 L 247 251 L 247 251 L 239 248 L 239 248 L 232 254 L 232 254 Q 218 266 199 273 L 191 276 L 191 276 L 189 285 L 189 285 L 182 320 L 182 320 L 138 320 L 138 320 L 131 285 L 131 285 L 129 276 L 129 276 L 121 273 L 121 273 Q 102 266 88 254 L 81 248 L 81 248 L 73 251 L 73 251 L 42 261 L 42 261 L 20 224 L 20 224 L 45 202 L 45 202 L 51 196 L 51 196 L 50 188 L 50 188 Q 48 178 48 168 Q 48 158 50 148 L 51 140 L 51 140 L 45 134 L 45 134 L 20 112 L 20 112 L 42 75 L 42 75 L 73 85 L 73 85 L 81 88 L 81 88 L 88 82 L 88 82 Q 102 70 121 63 L 129 60 L 129 60 L 131 51 L 131 51 L 138 16 L 138 16 L 182 16 L 182 16 L 189 51 L 189 51 L 191 60 L 191 60 L 199 63 L 199 63 Q 218 70 232 82 L 239 88 L 239 88 L 248 85 L 248 85 L 278 75 L 278 75 Z M 160 208 Q 137 207 125 188 Q 115 168 125 148 Q 137 129 160 128 Q 183 129 195 148 Q 205 168 195 188 Q 183 207 160 208 L 160 208 Z M 104 168 Q 105 200 132 216 Q 160 232 188 216 Q 215 200 216 168 Q 215 136 188 120 Q 160 104 132 120 Q 105 136 104 168 L 104 168 Z M 344 299 L 296 309 L 344 299 L 296 309 L 296 379 L 296 379 L 344 389 L 344 389 Q 352 410 366 427 L 352 470 L 352 470 L 411 504 L 411 504 L 442 470 L 442 470 Q 453 472 464 472 Q 475 472 486 470 L 517 504 L 517 504 L 576 470 L 576 470 L 562 427 L 562 427 Q 576 410 584 389 L 632 379 L 632 379 L 632 309 L 632 309 L 584 299 L 584 299 Q 576 278 562 262 L 576 218 L 576 218 L 517 184 L 517 184 L 486 218 L 486 218 Q 475 216 464 216 Q 453 216 442 218 L 411 184 L 411 184 L 352 218 L 352 218 L 366 262 L 366 262 Q 352 278 344 299 L 344 299 Z M 371 226 L 408 204 L 371 226 L 408 204 L 430 229 L 430 229 L 436 235 L 436 235 L 444 234 L 444 234 Q 454 232 464 232 Q 474 232 484 234 L 492 235 L 492 235 L 498 229 L 498 229 L 520 204 L 520 204 L 557 226 L 557 226 L 547 257 L 547 257 L 544 265 L 544 265 L 550 272 L 550 272 Q 562 286 569 305 L 572 313 L 572 313 L 581 315 L 581 315 L 616 322 L 616 322 L 616 366 L 616 366 L 581 373 L 581 373 L 572 375 L 572 375 L 569 383 L 569 383 Q 562 402 550 416 L 544 423 L 544 423 L 547 431 L 547 431 L 557 462 L 557 462 L 520 484 L 520 484 L 498 459 L 498 459 L 492 453 L 492 453 L 484 454 L 484 454 Q 474 456 464 456 Q 454 456 444 454 L 436 453 L 436 453 L 430 459 L 430 459 L 408 484 L 408 484 L 371 462 L 371 462 L 381 431 L 381 431 L 384 423 L 384 423 L 378 416 L 378 416 Q 366 402 359 383 L 356 375 L 356 375 L 347 373 L 347 373 L 312 366 L 312 366 L 312 322 L 312 322 L 347 315 L 347 315 L 356 313 L 356 313 L 359 305 L 359 305 Q 366 286 378 272 L 384 265 L 384 265 L 381 257 L 381 257 L 371 226 L 371 226 Z M 504 344 Q 503 367 484 379 Q 464 389 444 379 Q 425 367 424 344 Q 425 321 444 309 Q 464 299 484 309 Q 503 321 504 344 L 504 344 Z M 464 400 Q 496 399 512 372 Q 528 344 512 316 Q 496 289 464 288 Q 432 289 416 316 Q 400 344 416 372 Q 432 399 464 400 L 464 400 Z" />
</svg>