<svg xmlns="http://www.w3.org/2000/svg" viewBox="0 0 512 448">
  <path d="M 40 0 L 32 0 L 40 0 L 32 0 L 32 8 L 32 8 L 32 96 L 32 96 L 32 104 L 32 104 L 32 192 L 32 192 L 8 192 L 0 192 L 0 200 L 0 200 L 0 376 L 0 376 L 0 440 L 0 440 Q 1 447 8 448 Q 15 447 16 440 L 16 384 L 16 384 L 496 384 L 496 384 L 496 440 L 496 440 L 496 448 L 496 448 L 512 448 L 512 448 L 512 440 L 512 440 L 512 376 L 512 376 L 512 200 L 512 200 L 512 192 L 512 192 L 504 192 L 480 192 L 480 104 L 480 104 L 480 96 L 480 96 L 480 8 L 480 8 L 480 0 L 480 0 L 472 0 L 40 0 Z M 48 112 L 248 112 L 48 112 L 248 112 L 248 192 L 248 192 L 48 192 L 48 192 L 48 112 L 48 112 Z M 248 96 L 48 96 L 248 96 L 48 96 L 48 16 L 48 16 L 464 16 L 464 16 L 464 96 L 464 96 L 264 96 L 248 96 Z M 264 112 L 464 112 L 264 112 L 464 112 L 464 192 L 464 192 L 264 192 L 264 192 L 264 112 L 264 112 Z M 264 208 L 464 208 L 264 208 L 496 208 L 496 368 L 496 368 L 16 368 L 16 368 L 16 208 L 16 208 L 32 208 L 264 208 Z" />
</svg>