<svg xmlns="http://www.w3.org/2000/svg" viewBox="0 0 640 352">
  <path d="M 432 16 L 432 179 L 432 16 L 432 179 L 432 240 L 432 240 L 579 240 L 579 240 L 439 16 L 439 16 L 432 16 L 432 16 Z M 432 256 L 416 256 L 432 256 L 32 256 L 32 240 L 32 240 L 32 16 L 32 16 L 32 0 L 32 0 L 48 0 L 64 0 L 160 154 L 160 154 L 160 16 L 160 16 L 160 0 L 160 0 L 176 0 L 192 0 L 288 154 L 288 154 L 288 16 L 288 16 L 288 0 L 288 0 L 304 0 L 320 0 L 416 154 L 416 154 L 416 16 L 416 16 L 416 0 L 416 0 L 432 0 L 448 0 L 598 240 L 598 240 L 608 256 L 608 256 L 589 256 L 432 256 Z M 176 179 L 176 240 L 176 179 L 176 240 L 288 240 L 288 240 L 288 184 L 288 184 L 183 16 L 183 16 L 176 16 L 176 16 L 176 179 L 176 179 Z M 160 184 L 55 16 L 160 184 L 55 16 L 48 16 L 48 16 L 48 240 L 48 240 L 160 240 L 160 240 L 160 184 L 160 184 Z M 304 240 L 416 240 L 304 240 L 416 240 L 416 184 L 416 184 L 311 16 L 311 16 L 304 16 L 304 16 L 304 179 L 304 179 L 304 240 L 304 240 Z M 0 336 L 8 336 L 0 336 L 640 336 L 640 352 L 640 352 L 632 352 L 0 352 L 0 336 L 0 336 Z" />
</svg>