<svg xmlns="http://www.w3.org/2000/svg" viewBox="0 0 448 448">
  <path d="M 184 0 L 16 0 L 184 0 L 0 0 L 0 16 L 0 16 L 0 432 L 0 432 L 0 448 L 0 448 L 16 448 L 448 448 L 448 432 L 448 432 L 448 16 L 448 16 L 448 0 L 448 0 L 432 0 L 264 0 L 276 16 L 276 16 L 432 16 L 432 16 L 432 304 L 432 304 Q 416 304 401 295 Q 385 286 371 274 Q 358 262 350 253 Q 347 248 344 246 Q 344 245 343 244 Q 343 244 343 244 L 343 243 L 343 243 L 342 243 L 342 243 Q 342 243 342 243 Q 342 243 342 243 Q 342 243 342 243 Q 342 243 342 243 Q 342 243 342 243 Q 342 243 342 243 Q 342 243 342 243 Q 342 243 342 243 L 336 235 L 336 235 L 330 243 L 330 243 Q 330 243 330 243 Q 330 243 330 243 Q 330 243 330 243 Q 330 243 330 243 Q 330 243 330 243 Q 330 243 330 243 L 330 243 L 330 243 L 329 244 L 329 244 Q 329 244 329 245 Q 328 245 328 246 Q 326 248 321 253 Q 313 262 298 274 Q 283 286 264 295 Q 245 304 224 304 Q 203 304 184 295 Q 165 286 150 274 Q 135 262 127 253 Q 123 248 120 246 Q 120 245 120 245 Q 119 244 119 244 L 118 243 L 118 243 L 118 243 L 118 243 Q 118 243 118 243 Q 118 243 118 243 Q 118 243 118 243 Q 118 243 118 243 Q 118 243 118 243 Q 118 243 118 243 L 112 235 L 112 235 L 106 243 L 106 243 Q 106 243 106 243 Q 106 243 106 243 Q 106 243 106 243 Q 106 243 106 243 Q 106 243 106 243 Q 106 243 106 243 Q 106 243 106 243 Q 106 243 106 243 L 106 243 L 106 243 L 105 244 L 105 244 Q 105 244 105 244 Q 105 245 104 246 Q 102 248 98 253 Q 90 262 77 274 Q 63 286 47 295 Q 32 304 16 304 L 16 16 L 16 16 L 172 16 L 172 16 L 184 0 L 184 0 Z M 16 320 Q 37 319 55 309 L 55 309 L 55 309 Q 73 299 87 286 Q 101 273 110 263 Q 111 262 112 261 Q 113 261 114 262 Q 114 263 115 264 Q 124 273 140 286 Q 156 299 177 309 Q 199 320 224 320 Q 249 320 271 309 Q 292 299 308 286 Q 324 273 333 264 Q 333 263 334 263 Q 335 262 336 261 Q 336 261 337 262 Q 337 263 338 263 Q 346 273 361 286 Q 374 299 393 309 Q 411 319 432 320 L 432 432 L 432 432 L 16 432 L 16 432 L 16 320 L 16 320 Z M 212 16 L 166 77 L 212 16 L 166 77 Q 152 96 152 120 Q 153 151 173 171 Q 193 191 224 192 Q 255 191 275 171 Q 295 151 296 120 Q 296 96 282 77 L 236 16 L 236 16 L 234 13 L 234 13 L 224 0 L 224 0 L 214 13 L 214 13 L 212 16 L 212 16 Z M 224 27 L 269 86 L 224 27 L 269 86 Q 280 101 280 120 Q 279 144 264 160 Q 248 175 224 176 Q 200 175 184 160 Q 169 144 168 120 Q 168 101 179 86 L 224 27 L 224 27 Z" />
</svg>