<svg xmlns="http://www.w3.org/2000/svg" viewBox="0 0 640 512">
  <path d="M 16 16 L 16 80 L 16 16 L 16 80 L 80 80 L 80 80 L 80 16 L 80 16 L 16 16 L 16 16 Z M 0 0 L 16 0 L 0 0 L 96 0 L 96 16 L 96 16 L 96 40 L 96 40 L 352 40 L 352 40 L 352 16 L 352 16 L 352 0 L 352 0 L 368 0 L 448 0 L 448 16 L 448 16 L 448 80 L 448 80 L 448 96 L 448 96 L 432 96 L 408 96 L 408 256 L 408 256 L 432 256 L 448 256 L 448 272 L 448 272 L 448 336 L 448 336 L 448 352 L 448 352 L 432 352 L 352 352 L 352 336 L 352 336 L 352 312 L 352 312 L 96 312 L 96 312 L 96 336 L 96 336 L 96 352 L 96 352 L 80 352 L 0 352 L 0 336 L 0 336 L 0 272 L 0 272 L 0 256 L 0 256 L 16 256 L 40 256 L 40 96 L 40 96 L 16 96 L 0 96 L 0 80 L 0 80 L 0 16 L 0 16 L 0 0 L 0 0 Z M 392 96 L 368 96 L 392 96 L 352 96 L 352 80 L 352 80 L 352 56 L 352 56 L 96 56 L 96 56 L 96 80 L 96 80 L 96 96 L 96 96 L 80 96 L 56 96 L 56 256 L 56 256 L 80 256 L 96 256 L 96 272 L 96 272 L 96 296 L 96 296 L 352 296 L 352 296 L 352 272 L 352 272 L 352 256 L 352 256 L 368 256 L 392 256 L 392 96 L 392 96 Z M 80 272 L 16 272 L 80 272 L 16 272 L 16 336 L 16 336 L 80 336 L 80 336 L 80 272 L 80 272 Z M 368 16 L 368 80 L 368 16 L 368 80 L 432 80 L 432 80 L 432 16 L 432 16 L 368 16 L 368 16 Z M 432 272 L 368 272 L 432 272 L 368 272 L 368 336 L 368 336 L 432 336 L 432 336 L 432 272 L 432 272 Z M 560 176 L 560 240 L 560 176 L 560 240 L 624 240 L 624 240 L 624 176 L 624 176 L 560 176 L 560 176 Z M 544 160 L 560 160 L 544 160 L 640 160 L 640 176 L 640 176 L 640 240 L 640 240 L 640 256 L 640 256 L 624 256 L 600 256 L 600 416 L 600 416 L 624 416 L 640 416 L 640 432 L 640 432 L 640 496 L 640 496 L 640 512 L 640 512 L 624 512 L 544 512 L 544 496 L 544 496 L 544 472 L 544 472 L 288 472 L 288 472 L 288 496 L 288 496 L 288 512 L 288 512 L 272 512 L 192 512 L 192 496 L 192 496 L 192 432 L 192 432 L 192 416 L 192 416 L 208 416 L 232 416 L 232 344 L 232 344 L 248 344 L 248 344 L 248 416 L 248 416 L 272 416 L 288 416 L 288 432 L 288 432 L 288 456 L 288 456 L 544 456 L 544 456 L 544 432 L 544 432 L 544 416 L 544 416 L 560 416 L 584 416 L 584 256 L 584 256 L 560 256 L 544 256 L 544 240 L 544 240 L 544 216 L 544 216 L 472 216 L 472 216 L 472 200 L 472 200 L 544 200 L 544 200 L 544 176 L 544 176 L 544 160 L 544 160 Z M 272 432 L 208 432 L 272 432 L 208 432 L 208 496 L 208 496 L 272 496 L 272 496 L 272 432 L 272 432 Z M 624 432 L 560 432 L 624 432 L 560 432 L 560 496 L 560 496 L 624 496 L 624 496 L 624 432 L 624 432 Z" />
</svg>