<svg xmlns="http://www.w3.org/2000/svg" viewBox="0 0 640 512">
  <path d="M 160 112 L 16 112 L 160 112 L 0 112 L 0 128 L 0 128 L 0 496 L 0 496 L 0 512 L 0 512 L 16 512 L 395 512 Q 384 505 375 496 L 368 496 L 272 496 L 272 384 L 272 384 Q 273 364 286 350 Q 300 337 320 336 Q 321 336 323 336 Q 324 328 326 320 Q 323 320 320 320 Q 293 321 275 339 Q 257 357 256 384 L 256 496 L 256 496 L 16 496 L 16 496 L 16 128 L 16 128 L 160 128 L 165 128 L 169 125 L 169 125 L 320 20 L 320 20 L 471 125 L 471 125 L 475 128 L 475 128 L 480 128 L 624 128 L 624 247 L 624 247 Q 633 256 640 267 L 640 128 L 640 128 L 640 112 L 640 112 L 624 112 L 480 112 L 320 0 L 320 0 L 160 112 L 160 112 Z M 72 192 L 64 192 L 72 192 L 64 192 L 64 200 L 64 200 L 64 280 L 64 280 L 64 288 L 64 288 L 72 288 L 144 288 L 144 280 L 144 280 L 144 200 L 144 200 L 144 192 L 144 192 L 136 192 L 72 192 Z M 80 272 L 80 208 L 80 272 L 80 208 L 128 208 L 128 208 L 128 272 L 128 272 L 80 272 L 80 272 Z M 320 112 Q 356 113 375 144 Q 393 176 375 208 Q 356 239 320 240 Q 284 239 265 208 Q 247 176 265 144 Q 284 113 320 112 L 320 112 Z M 320 256 Q 365 255 389 216 Q 411 176 389 136 Q 365 97 320 96 Q 275 97 251 136 Q 229 176 251 216 Q 275 255 320 256 L 320 256 Z M 328 144 L 328 136 L 328 144 L 328 136 L 312 136 L 312 136 L 312 144 L 312 144 L 312 176 L 312 176 L 312 184 L 312 184 L 320 184 L 352 184 L 352 168 L 352 168 L 344 168 L 328 168 L 328 144 L 328 144 Z M 64 320 L 64 328 L 64 320 L 64 328 L 64 408 L 64 408 L 64 416 L 64 416 L 72 416 L 144 416 L 144 408 L 144 408 L 144 328 L 144 328 L 144 320 L 144 320 L 136 320 L 64 320 Z M 80 336 L 128 336 L 80 336 L 128 336 L 128 400 L 128 400 L 80 400 L 80 400 L 80 336 L 80 336 Z M 368 368 Q 368 333 385 304 L 385 304 L 385 304 Q 402 275 432 257 Q 462 240 496 240 Q 530 240 560 257 Q 590 275 607 304 Q 624 333 624 368 Q 624 403 607 432 Q 590 461 560 479 Q 530 496 496 496 Q 462 496 432 479 Q 402 461 385 432 Q 368 403 368 368 L 368 368 Z M 640 368 Q 640 329 621 296 L 621 296 L 621 296 Q 602 263 568 243 Q 534 224 496 224 Q 458 224 424 243 Q 390 263 371 296 Q 352 329 352 368 Q 352 407 371 440 Q 390 473 424 493 Q 458 512 496 512 Q 534 512 568 493 Q 602 473 621 440 Q 640 407 640 368 L 640 368 Z M 558 318 L 563 312 L 558 318 L 563 312 L 552 301 L 552 301 L 546 306 L 546 306 L 496 357 L 496 357 L 446 306 L 446 306 L 440 301 L 440 301 L 429 312 L 429 312 L 434 318 L 434 318 L 485 368 L 485 368 L 434 418 L 434 418 L 429 424 L 429 424 L 440 435 L 440 435 L 446 430 L 446 430 L 496 379 L 496 379 L 546 430 L 546 430 L 552 435 L 552 435 L 563 424 L 563 424 L 558 418 L 558 418 L 507 368 L 507 368 L 558 318 L 558 318 Z" />
</svg>