<svg xmlns="http://www.w3.org/2000/svg" viewBox="0 0 512 512">
  <path d="M 160 416 L 144 416 L 160 416 L 0 416 L 0 400 L 0 400 L 0 16 L 0 16 L 0 0 L 0 0 L 16 0 L 512 0 L 512 16 L 512 16 L 512 400 L 512 400 L 512 416 L 512 416 L 496 416 L 304 416 L 176 501 L 176 501 L 160 512 L 160 512 L 160 493 L 160 493 L 160 432 L 160 432 L 160 416 L 160 416 Z M 160 400 L 176 400 L 160 400 L 176 400 L 176 416 L 176 416 L 176 482 L 176 482 L 295 403 L 295 403 L 299 400 L 299 400 L 304 400 L 496 400 L 496 16 L 496 16 L 16 16 L 16 16 L 16 400 L 16 400 L 160 400 L 160 400 Z M 186 127 L 192 132 L 186 127 L 192 132 L 256 197 L 256 197 L 321 132 L 321 132 L 326 126 L 326 126 L 338 138 L 338 138 L 332 143 L 332 143 L 267 208 L 267 208 L 332 273 L 332 273 L 338 278 L 338 278 L 326 290 L 326 290 L 321 284 L 321 284 L 256 219 L 256 219 L 191 284 L 191 284 L 186 290 L 186 290 L 174 278 L 174 278 L 180 273 L 180 273 L 245 208 L 245 208 L 180 143 L 180 143 L 174 138 L 174 138 L 186 126 L 186 127 Z" />
</svg>