<svg xmlns="http://www.w3.org/2000/svg" viewBox="0 0 300 517">
  <path d="M 159 84 Q 137 89 128 70 Q 122 48 142 39 Q 163 33 172 53 Q 178 74 159 84 L 159 84 Z M 159 6 Q 126 0 104 25 Q 84 51 96 82 Q 109 112 142 116 Q 174 121 195 96 Q 214 71 203 40 Q 190 11 158 6 L 159 6 Z M 201 133 L 182 133 L 201 133 L 182 133 L 182 165 L 182 165 Q 182 165 182 165 Q 182 165 182 165 L 182 325 L 182 325 Q 182 325 182 325 Q 182 325 182 325 L 182 357 L 182 357 Q 182 357 182 357 Q 182 357 182 357 L 182 421 L 182 421 Q 182 421 182 421 Q 182 421 182 421 L 182 501 L 182 501 L 182 517 L 182 517 L 214 517 L 214 517 Q 214 517 214 517 Q 214 517 214 517 Q 214 517 214 517 Q 214 517 214 517 L 214 501 L 214 501 L 214 207 L 214 207 L 264 301 L 264 301 L 271 315 L 271 315 L 300 300 L 300 300 L 292 286 L 292 286 L 215 142 L 215 142 L 211 133 L 211 133 L 201 133 L 201 133 Z M 116 268 L 124 254 L 116 268 L 124 254 L 95 240 L 95 240 L 88 254 L 88 254 L 24 382 L 24 382 L 12 405 L 12 405 L 38 405 L 86 405 L 86 501 L 86 501 L 86 517 L 86 517 L 118 517 L 118 517 L 118 501 L 118 501 L 118 405 L 118 405 L 150 405 L 150 405 L 150 373 L 150 373 L 118 373 L 64 373 L 116 268 L 116 268 Z M 150 165 L 150 133 L 150 165 L 150 133 L 99 133 L 89 133 L 85 142 L 85 142 L 8 286 L 8 286 L 0 300 L 0 300 L 29 315 L 29 315 L 36 301 L 36 301 L 109 165 L 109 165 L 150 165 L 150 165 Z" />
</svg>