<svg xmlns="http://www.w3.org/2000/svg" viewBox="0 0 576 384">
  <path d="M 16 16 L 16 368 L 16 16 L 16 368 L 560 368 L 560 368 L 560 16 L 560 16 L 16 16 L 16 16 Z M 0 0 L 16 0 L 0 0 L 576 0 L 576 16 L 576 16 L 576 368 L 576 368 L 576 384 L 576 384 L 560 384 L 0 384 L 0 368 L 0 368 L 0 16 L 0 16 L 0 0 L 0 0 Z M 368 192 Q 367 147 328 123 Q 288 101 248 123 Q 209 147 208 192 Q 209 237 248 261 Q 288 283 328 261 Q 367 237 368 192 L 368 192 Z M 192 192 Q 192 166 205 144 L 205 144 L 205 144 Q 218 122 240 109 Q 263 96 288 96 Q 313 96 336 109 Q 358 122 371 144 Q 384 166 384 192 Q 384 218 371 240 Q 358 262 336 275 Q 313 288 288 288 Q 263 288 240 275 Q 218 262 205 240 Q 192 218 192 192 L 192 192 Z" />
</svg>