<svg xmlns="http://www.w3.org/2000/svg" viewBox="0 0 448 448">
  <path d="M 0 0 L 8 0 L 0 0 L 144 0 L 144 16 L 144 16 L 136 16 L 80 16 L 80 208 L 80 208 L 368 208 L 368 208 L 368 16 L 368 16 L 312 16 L 304 16 L 304 0 L 304 0 L 312 0 L 448 0 L 448 16 L 448 16 L 440 16 L 384 16 L 384 216 L 384 216 L 384 432 L 384 432 L 440 432 L 448 432 L 448 448 L 448 448 L 440 448 L 304 448 L 304 432 L 304 432 L 312 432 L 368 432 L 368 224 L 368 224 L 80 224 L 80 224 L 80 432 L 80 432 L 136 432 L 144 432 L 144 448 L 144 448 L 136 448 L 0 448 L 0 432 L 0 432 L 8 432 L 64 432 L 64 216 L 64 216 L 64 16 L 64 16 L 8 16 L 0 16 L 0 0 L 0 0 Z" />
</svg>