<svg xmlns="http://www.w3.org/2000/svg" viewBox="0 0 512 503">
  <path d="M 383 0 L 439 112 L 383 0 L 439 112 Q 441 117 438 121 L 341 232 L 341 232 L 474 197 L 474 197 L 496 130 L 496 130 L 512 135 L 512 135 L 488 207 L 488 207 Q 486 211 482 212 L 344 248 L 344 248 L 482 284 L 482 284 Q 486 285 488 290 L 512 362 L 512 362 L 496 367 L 496 367 L 474 299 L 474 299 L 358 268 L 358 268 L 438 375 L 438 375 Q 441 379 440 383 L 400 503 L 400 503 L 384 497 L 384 497 L 423 381 L 423 381 L 365 304 L 365 304 Q 368 316 368 328 L 368 336 L 368 336 Q 367 382 335 413 Q 303 443 256 444 Q 209 443 177 413 Q 145 382 144 336 L 144 328 L 144 328 Q 144 316 147 305 L 89 382 L 89 382 L 128 498 L 128 498 L 112 503 L 112 503 L 72 383 L 72 383 Q 71 379 74 375 L 154 268 L 154 268 L 38 299 L 38 299 L 16 367 L 16 367 L 0 362 L 0 362 L 24 290 L 24 290 Q 26 285 30 284 L 168 248 L 168 248 L 30 212 L 30 212 Q 26 211 24 207 L 0 135 L 0 135 L 16 129 L 16 129 L 38 197 L 38 197 L 171 232 L 171 232 L 74 121 L 74 121 Q 71 117 73 113 L 129 1 L 129 1 L 143 8 L 143 8 L 90 115 L 90 115 L 184 223 L 184 223 L 184 140 L 184 140 Q 186 97 222 77 L 229 73 L 229 73 L 233 80 L 233 80 L 256 123 L 256 123 L 279 80 L 279 80 L 283 73 L 283 73 L 290 77 L 290 77 Q 326 97 328 140 L 328 223 L 328 223 L 422 115 L 422 115 L 369 8 L 369 8 L 383 0 L 383 0 Z M 200 140 L 200 249 L 200 140 L 200 249 L 200 253 L 200 253 L 197 256 L 197 256 Q 162 282 160 328 L 160 336 L 160 336 Q 161 375 188 401 Q 215 427 256 428 Q 297 427 324 401 Q 351 375 352 336 L 352 328 L 352 328 Q 350 282 315 256 L 312 253 L 312 253 L 312 249 L 312 249 L 312 140 L 312 140 Q 311 111 289 95 L 263 144 L 263 144 L 256 157 L 256 157 L 249 144 L 249 144 L 223 95 L 223 95 Q 201 111 200 140 L 200 140 Z" />
</svg>