<svg xmlns="http://www.w3.org/2000/svg" viewBox="0 0 512 448">
  <path d="M 496 144 L 16 144 L 496 144 L 16 144 L 16 432 L 16 432 L 496 432 L 496 432 L 496 144 L 496 144 Z M 496 128 L 496 16 L 496 128 L 496 16 L 483 16 L 483 16 L 478 22 L 478 22 L 371 128 L 371 128 L 496 128 L 496 128 Z M 219 128 L 349 128 L 219 128 L 349 128 L 461 16 L 461 16 L 331 16 L 331 16 L 326 22 L 326 22 L 219 128 L 219 128 Z M 197 128 L 309 16 L 197 128 L 309 16 L 179 16 L 179 16 L 174 22 L 174 22 L 67 128 L 67 128 L 197 128 L 197 128 Z M 16 16 L 16 128 L 16 16 L 16 128 L 45 128 L 45 128 L 157 16 L 157 16 L 16 16 L 16 16 Z M 512 128 L 512 136 L 512 128 L 512 136 L 512 144 L 512 144 L 512 432 L 512 432 L 512 448 L 512 448 L 496 448 L 0 448 L 0 432 L 0 432 L 0 144 L 0 144 L 0 136 L 0 136 L 0 128 L 0 128 L 0 16 L 0 16 L 0 0 L 0 0 L 16 0 L 512 0 L 512 16 L 512 16 L 512 128 L 512 128 Z M 204 193 L 348 281 L 204 193 L 348 281 L 359 288 L 359 288 L 348 295 L 348 295 L 204 383 L 204 383 L 192 390 L 192 390 L 192 376 L 192 376 L 192 200 L 192 200 L 192 186 L 192 186 L 204 193 L 204 193 Z M 329 288 L 208 214 L 329 288 L 208 214 L 208 362 L 208 362 L 329 288 L 329 288 Z" />
</svg>