<svg xmlns="http://www.w3.org/2000/svg" viewBox="0 0 403 510">
  <path d="M 289 198 L 289 203 L 289 198 L 289 203 L 306 361 L 306 361 L 217 229 L 217 229 L 215 225 L 215 225 L 211 223 L 211 223 L 65 159 L 65 159 L 224 148 L 224 148 L 229 147 L 229 147 L 232 145 L 232 145 L 361 51 L 361 51 L 291 194 L 291 194 L 289 198 L 289 198 Z M 388 31 L 403 0 L 388 31 L 403 0 L 376 20 L 376 20 L 223 132 L 223 132 L 34 145 L 34 145 L 0 147 L 0 147 L 31 161 L 31 161 L 204 238 L 204 238 L 212 249 L 212 249 L 228 273 L 228 273 L 260 321 L 260 321 L 276 344 L 276 344 L 310 395 L 310 395 L 329 423 L 329 423 L 325 389 L 325 389 L 305 201 L 305 201 L 388 31 L 388 31 Z M 228 330 L 212 307 L 228 330 L 212 307 L 212 494 L 212 494 L 124 494 L 116 494 L 116 510 L 116 510 L 124 510 L 372 510 L 372 494 L 372 494 L 364 494 L 276 494 L 276 402 L 276 402 L 260 378 L 260 378 L 260 494 L 260 494 L 228 494 L 228 494 L 228 330 L 228 330 Z M 244 214 Q 259 213 260 198 Q 259 183 244 182 Q 229 183 228 198 Q 229 213 244 214 L 244 214 Z" />
</svg>