<svg xmlns="http://www.w3.org/2000/svg" viewBox="0 0 400 512">
  <path d="M 160 0 L 152 0 L 160 0 L 152 0 L 152 8 L 152 8 L 152 192 L 152 192 L 80 192 L 72 192 L 72 200 L 72 200 L 72 247 L 72 247 L 3 306 L 3 306 L 0 308 L 0 308 L 0 312 L 0 312 L 0 366 L 0 366 Q 0 403 18 434 Q 36 465 69 484 L 87 494 L 87 494 Q 118 512 154 512 L 296 512 L 296 512 Q 340 511 370 482 Q 399 452 400 408 L 400 392 L 400 392 L 400 304 L 400 304 L 400 256 L 400 256 L 400 248 L 400 248 L 392 248 L 336 248 L 336 224 L 336 224 L 336 216 L 336 216 L 328 216 L 256 216 L 256 8 L 256 8 L 256 0 L 256 0 L 248 0 L 160 0 Z M 168 200 L 168 16 L 168 200 L 168 16 L 240 16 L 240 16 L 240 224 L 240 224 L 240 232 L 240 232 L 248 232 L 320 232 L 320 256 L 320 256 L 320 264 L 320 264 L 328 264 L 384 264 L 384 304 L 384 304 L 384 392 L 384 392 L 384 408 L 384 408 Q 383 445 358 470 Q 333 495 296 496 L 154 496 L 154 496 Q 122 496 95 480 L 77 470 L 77 470 Q 48 453 32 426 Q 16 398 16 366 L 16 316 L 16 316 L 72 268 L 72 268 L 72 344 L 72 344 Q 73 351 80 352 Q 87 351 88 344 L 88 256 L 88 256 Q 88 255 88 255 L 88 255 L 88 255 L 88 251 L 88 251 L 88 208 L 88 208 L 160 208 L 168 208 L 168 200 L 168 200 Z" />
</svg>