<svg xmlns="http://www.w3.org/2000/svg" viewBox="0 0 576 512">
  <path d="M 48 464 L 264 464 L 48 464 L 264 464 L 264 240 L 264 240 L 48 240 L 48 240 L 48 464 L 48 464 Z M 312 240 L 416 464 L 312 240 L 416 464 L 528 464 L 528 464 L 528 240 L 528 240 L 312 240 L 312 240 Z M 264 192 L 312 192 L 264 192 L 528 192 L 528 175 L 528 175 Q 460 135 410 73 Q 356 111 288 112 Q 220 111 166 73 Q 116 135 48 175 L 48 192 L 48 192 L 264 192 L 264 192 Z M 8 143 Q 80 104 130 41 Q 141 27 150 12 L 158 0 L 158 0 L 167 10 L 167 10 Q 179 23 194 34 Q 236 63 288 64 Q 340 63 382 34 Q 397 23 409 10 L 418 0 L 418 0 L 426 12 L 426 12 Q 435 27 446 41 Q 496 104 568 143 L 576 147 L 576 147 L 576 464 L 576 464 L 576 512 L 576 512 L 528 512 L 0 512 L 0 464 L 0 464 L 0 147 L 0 147 L 8 143 L 8 143 Z" />
</svg>