<svg xmlns="http://www.w3.org/2000/svg" viewBox="0 0 512 516">
  <path d="M 122 452 L 122 450 L 122 452 L 122 450 L 139 450 L 139 450 Q 116 516 80 514 Q 46 516 23 457 Q 1 398 0 258 Q 1 118 23 59 Q 46 0 80 2 Q 107 1 127 36 Q 147 72 155 153 L 201 107 L 201 107 L 211 98 L 211 98 L 224 98 L 294 98 L 300 100 L 300 100 L 380 132 L 380 132 L 391 137 L 391 137 L 397 148 L 397 148 L 436 226 L 436 226 L 480 226 L 512 226 L 512 242 L 512 242 L 512 274 L 512 274 L 512 290 L 512 290 L 496 290 L 396 290 L 387 272 L 387 272 L 372 242 L 372 242 L 363 223 L 363 223 L 355 243 L 355 243 L 333 300 L 333 300 L 401 343 L 401 343 L 421 356 L 421 356 L 415 379 L 415 379 L 383 491 L 383 491 L 376 514 L 376 514 L 326 514 L 310 514 L 314 498 L 314 498 L 321 473 L 321 473 L 347 384 L 347 384 L 261 331 L 261 331 Q 241 318 234 298 Q 227 278 234 256 L 260 178 L 260 178 L 265 162 L 265 162 L 248 162 L 237 162 L 199 201 L 199 201 L 187 212 L 187 212 L 176 223 L 176 223 L 165 212 L 165 212 L 159 206 L 159 206 Q 160 230 160 258 Q 160 313 156 354 L 140 354 L 140 354 Q 144 313 144 258 Q 143 119 121 64 Q 111 36 100 27 Q 89 17 80 18 Q 71 17 60 27 Q 49 36 39 64 Q 17 119 16 258 Q 17 397 39 452 Q 49 480 60 489 Q 71 499 80 498 Q 89 499 100 489 Q 111 480 122 452 L 122 452 Z M 158 182 L 176 201 L 158 182 L 176 201 L 187 189 L 187 189 L 226 151 L 226 151 L 231 146 L 231 146 L 237 146 L 287 146 L 280 167 L 280 167 L 249 261 L 249 261 Q 244 277 249 293 Q 255 308 269 317 L 355 371 L 355 371 L 365 377 L 365 377 L 362 389 L 362 389 L 337 478 L 337 478 L 331 498 L 331 498 L 364 498 L 364 498 L 367 486 L 367 486 L 399 374 L 399 374 L 403 363 L 403 363 L 392 356 L 392 356 L 324 314 L 324 314 L 313 307 L 313 307 L 318 294 L 318 294 L 348 217 L 348 217 L 361 184 L 361 184 L 377 216 L 377 216 L 402 265 L 402 265 L 406 274 L 406 274 L 416 274 L 496 274 L 496 242 L 496 242 L 480 242 L 426 242 L 422 233 L 422 233 L 382 155 L 382 155 L 380 149 L 380 149 L 374 147 L 374 147 L 294 115 L 294 115 L 291 114 L 291 114 L 288 114 L 217 114 L 213 119 L 213 119 L 165 167 L 165 167 L 157 174 L 157 174 Q 157 176 157 178 Q 158 180 158 182 L 158 182 Z M 400 50 Q 400 36 391 27 L 391 27 L 391 27 Q 382 18 368 18 Q 354 18 345 27 Q 336 36 336 50 Q 336 64 345 73 Q 354 82 368 82 Q 382 82 391 73 Q 400 64 400 50 L 400 50 Z M 368 2 Q 395 3 410 26 Q 422 50 410 74 Q 395 97 368 98 Q 341 97 326 74 Q 314 50 326 26 Q 341 3 368 2 L 368 2 Z M 194 354 L 207 317 L 194 354 L 207 317 Q 212 326 218 334 L 209 360 L 209 360 L 205 370 L 205 370 L 194 370 L 112 370 L 112 402 L 112 402 L 227 402 L 227 402 L 244 358 L 244 358 Q 244 358 244 358 Q 244 358 244 358 L 257 366 L 257 366 L 238 418 L 238 418 L 112 418 L 96 418 L 96 402 L 96 402 L 96 370 L 96 370 L 96 354 L 96 354 L 112 354 L 194 354 Z" />
</svg>