<svg xmlns="http://www.w3.org/2000/svg" viewBox="0 0 512 449">
  <path d="M 80 225 L 80 209 L 80 225 L 80 209 L 64 209 L 64 209 Q 44 208 30 195 Q 17 181 16 161 Q 17 121 43 93 Q 69 65 110 48 Q 152 31 192 24 Q 232 17 256 17 Q 280 17 320 24 Q 360 31 402 48 Q 443 65 469 93 Q 495 121 496 161 Q 495 181 482 195 Q 468 208 448 209 L 432 209 L 432 209 L 432 225 L 432 225 L 432 433 L 432 433 L 80 433 L 80 433 L 80 225 L 80 225 Z M 448 449 L 448 433 L 448 449 L 448 433 L 448 241 L 448 241 L 448 225 L 448 225 Q 475 224 493 206 Q 511 188 512 161 Q 509 98 460 63 Q 411 28 351 14 Q 291 0 256 1 Q 221 0 161 14 Q 101 28 52 63 Q 3 98 0 161 Q 1 188 19 206 Q 37 224 64 225 L 64 241 L 64 241 L 64 433 L 64 433 L 64 449 L 64 449 L 80 449 L 448 449 Z M 262 163 L 256 158 L 262 163 L 256 158 L 250 163 L 250 163 L 162 251 L 162 251 L 157 257 L 157 257 L 162 263 L 162 263 L 250 351 L 250 351 L 256 356 L 256 356 L 262 351 L 262 351 L 350 263 L 350 263 L 355 257 L 355 257 L 350 251 L 350 251 L 262 163 L 262 163 Z M 256 334 L 179 257 L 256 334 L 179 257 L 256 180 L 256 180 L 333 257 L 333 257 L 256 334 L 256 334 Z" />
</svg>