<svg xmlns="http://www.w3.org/2000/svg" viewBox="0 0 511 511">
  <path d="M 352 54 L 310 96 L 352 54 L 310 96 L 346 133 L 346 133 L 358 144 L 358 144 L 335 167 L 335 167 L 324 155 L 324 155 L 287 119 L 287 119 L 246 160 L 246 160 L 282 197 L 282 197 L 294 208 L 294 208 L 271 231 L 271 231 L 260 219 L 260 219 L 223 183 L 223 183 L 182 224 L 182 224 L 218 261 L 218 261 L 230 272 L 230 272 L 207 295 L 207 295 L 196 283 L 196 283 L 159 247 L 159 247 L 127 279 L 127 279 L 127 384 L 127 384 L 232 384 L 232 384 L 457 159 L 457 159 Q 479 137 479 107 Q 478 75 457 54 Q 436 33 405 32 Q 374 32 352 54 L 352 54 Z M 287 73 L 329 31 L 287 73 L 329 31 L 341 43 L 341 43 L 329 31 L 329 31 Q 361 1 405 0 Q 450 1 480 31 Q 510 61 511 107 Q 510 150 480 182 L 250 411 L 250 411 L 246 416 L 246 416 L 239 416 L 118 416 L 34 499 L 34 499 L 23 511 L 23 511 L 0 488 L 0 488 L 12 477 L 12 477 L 95 393 L 95 393 L 95 272 L 95 272 L 95 265 L 95 265 L 100 261 L 100 261 L 136 224 L 136 224 Q 136 224 136 224 Q 136 224 136 224 L 159 201 L 159 201 Q 159 201 159 201 Q 159 201 159 201 L 200 160 L 200 160 Q 200 160 200 160 Q 200 160 200 160 L 223 137 L 223 137 Q 223 137 223 137 Q 223 137 223 137 L 264 96 L 264 96 Q 264 96 264 96 Q 264 96 264 96 L 287 73 L 287 73 Q 287 73 287 73 Q 287 73 287 73 L 287 73 Z" />
</svg>