<svg xmlns="http://www.w3.org/2000/svg" viewBox="0 0 576 504">
  <path d="M 245 43 L 256 22 L 245 43 L 256 22 L 214 0 L 214 0 L 203 21 L 203 21 L 118 184 L 118 184 L 0 184 L 0 184 L 0 248 L 0 248 L 32 248 L 32 248 L 96 504 L 96 504 L 480 504 L 480 504 L 544 248 L 544 248 L 576 248 L 576 248 L 576 184 L 576 184 L 458 184 L 458 184 L 373 21 L 373 21 L 362 0 L 362 0 L 320 22 L 320 22 L 331 43 L 331 43 L 404 184 L 404 184 L 172 184 L 172 184 L 245 43 L 245 43 Z M 208 320 L 368 320 L 208 320 L 392 320 L 392 368 L 392 368 L 368 368 L 184 368 L 184 320 L 184 320 L 208 320 L 208 320 Z" />
</svg>