<svg xmlns="http://www.w3.org/2000/svg" viewBox="0 0 448 512">
  <path d="M 256 384 L 256 336 L 256 384 L 256 336 L 304 336 L 332 336 L 224 228 L 224 228 L 116 336 L 116 336 L 144 336 L 192 336 L 192 384 L 192 384 L 192 464 L 192 464 L 256 464 L 256 464 L 256 384 L 256 384 Z M 258 194 L 384 320 L 258 194 L 384 320 L 384 336 L 384 336 L 384 384 L 384 384 L 352 384 L 304 384 L 304 432 L 304 432 L 304 464 L 304 464 L 304 512 L 304 512 L 256 512 L 144 512 L 144 464 L 144 464 L 144 432 L 144 432 L 144 384 L 144 384 L 112 384 L 64 384 L 64 336 L 64 336 L 64 320 L 64 320 L 190 194 L 190 194 L 224 160 L 224 160 L 258 194 L 258 194 Z M 48 168 L 48 192 L 48 168 L 48 192 L 0 192 L 0 192 L 0 168 L 0 168 L 0 24 L 0 24 L 0 0 L 0 0 L 24 0 L 448 0 L 448 24 L 448 24 L 448 168 L 448 168 L 448 192 L 448 192 L 400 192 L 400 192 L 400 168 L 400 168 L 400 48 L 400 48 L 48 48 L 48 48 L 48 168 L 48 168 Z" />
</svg>