<svg xmlns="http://www.w3.org/2000/svg" viewBox="0 0 512 512">
  <path d="M 264 0 L 264 8 L 264 0 L 264 8 L 264 104 L 264 104 L 264 112 L 264 112 L 248 112 L 248 112 L 248 104 L 248 104 L 248 8 L 248 8 L 248 0 L 248 0 L 264 0 L 264 0 Z M 0 248 L 8 248 L 0 248 L 112 248 L 112 264 L 112 264 L 104 264 L 0 264 L 0 248 L 0 248 Z M 400 248 L 408 248 L 400 248 L 512 248 L 512 264 L 512 264 L 504 264 L 400 264 L 400 248 L 400 248 Z M 264 400 L 264 408 L 264 400 L 264 408 L 264 504 L 264 504 L 264 512 L 264 512 L 248 512 L 248 512 L 248 504 L 248 504 L 248 408 L 248 408 L 248 400 L 248 400 L 264 400 L 264 400 Z M 81 69 L 86 75 L 81 69 L 86 75 L 154 143 L 154 143 L 160 149 L 160 149 L 149 160 L 149 160 L 143 154 L 143 154 L 75 86 L 75 86 L 69 81 L 69 81 L 81 69 L 81 69 Z M 69 431 L 75 426 L 69 431 L 75 426 L 143 358 L 143 358 L 149 352 L 149 352 L 160 363 L 160 363 L 154 369 L 154 369 L 86 437 L 86 437 L 81 443 L 81 443 L 69 431 L 69 431 Z M 352 149 L 358 143 L 352 149 L 358 143 L 426 75 L 426 75 L 431 69 L 431 69 L 443 81 L 443 81 L 437 86 L 437 86 L 369 154 L 369 154 L 363 160 L 363 160 L 352 149 L 352 149 Z M 364 352 L 369 358 L 364 352 L 369 358 L 437 426 L 437 426 L 443 431 L 443 431 L 431 443 L 431 443 L 426 437 L 426 437 L 358 369 L 358 369 L 352 363 L 352 363 L 363 352 L 364 352 Z M 360 256 Q 360 228 346 204 L 346 204 L 346 204 Q 332 180 308 166 Q 283 152 256 152 Q 229 152 204 166 Q 180 180 166 204 Q 152 228 152 256 Q 152 284 166 308 Q 180 332 204 346 Q 229 360 256 360 Q 283 360 308 346 Q 332 332 346 308 Q 360 284 360 256 L 360 256 Z M 136 256 Q 136 223 152 196 L 152 196 L 152 196 Q 168 169 196 152 Q 224 136 256 136 Q 288 136 316 152 Q 344 169 360 196 Q 376 223 376 256 Q 376 289 360 316 Q 344 343 316 360 Q 288 376 256 376 Q 224 376 196 360 Q 168 343 152 316 Q 136 289 136 256 L 136 256 Z" />
</svg>