<svg xmlns="http://www.w3.org/2000/svg" viewBox="0 0 576 448">
  <path d="M 304 48 Q 239 50 197 93 L 197 93 L 197 93 Q 154 135 152 200 Q 151 251 117 285 Q 83 319 32 320 L 8 320 L 8 320 L 8 272 L 8 272 L 32 272 L 32 272 Q 63 271 83 251 Q 103 231 104 200 Q 106 115 163 59 Q 219 2 304 0 Q 355 0 398 23 Q 440 46 468 85 L 438 121 L 438 121 Q 420 112 400 112 Q 363 113 338 138 Q 313 163 312 200 Q 313 231 333 251 Q 353 271 384 272 Q 384 272 384 272 Q 384 272 384 272 Q 415 270 439 255 Q 461 242 479 225 Q 479 225 479 224 L 480 224 L 481 224 Q 481 225 481 225 Q 499 242 521 255 Q 546 270 576 272 L 576 320 L 576 320 Q 552 320 532 313 Q 512 305 497 297 Q 487 291 480 286 Q 473 291 463 297 Q 448 306 428 313 Q 408 320 384 320 Q 384 320 384 320 Q 384 320 384 320 Q 333 319 299 285 Q 265 251 264 200 Q 265 149 296 112 Q 327 76 376 66 Q 344 48 304 48 L 304 48 Z M 96 414 Q 89 419 79 425 Q 64 433 44 441 Q 24 448 0 448 L 0 400 L 0 400 Q 31 398 55 383 Q 77 370 95 353 Q 95 352 96 352 Q 96 352 96 352 Q 96 352 96 352 L 96 352 L 96 352 L 96 352 L 96 352 Q 115 370 137 383 Q 161 398 192 400 Q 222 398 247 383 Q 269 370 287 353 Q 287 353 287 352 Q 287 352 287 352 Q 287 352 287 352 L 288 352 L 289 352 Q 289 353 289 353 Q 307 370 329 383 Q 353 398 384 400 Q 414 398 439 383 Q 461 370 479 353 Q 479 353 479 352 L 480 352 L 481 352 Q 481 353 481 353 Q 499 370 521 383 Q 545 398 576 400 L 576 448 L 576 448 Q 552 448 532 441 Q 512 433 497 425 Q 487 419 480 414 Q 473 419 463 425 Q 448 434 428 441 Q 408 448 384 448 Q 360 448 340 441 Q 320 433 305 425 Q 295 419 288 414 Q 281 419 271 425 Q 256 434 236 441 Q 216 448 192 448 Q 168 448 148 441 Q 128 433 113 425 Q 103 419 96 414 L 96 414 Z" />
</svg>