<svg xmlns="http://www.w3.org/2000/svg" viewBox="0 0 514 513">
  <path d="M 338 16 L 338 80 L 338 16 L 338 80 L 338 96 L 338 96 L 306 96 L 306 96 L 306 80 L 306 80 L 306 16 L 306 16 L 306 0 L 306 0 L 338 0 L 338 0 L 338 16 L 338 16 Z M 239 23 L 271 71 L 239 23 L 271 71 L 280 84 L 280 84 L 254 102 L 254 102 L 245 89 L 245 89 L 213 41 L 213 41 L 204 28 L 204 28 L 230 10 L 230 10 L 239 23 L 239 23 Z M 161 95 L 178 110 L 161 95 L 178 110 L 258 185 L 258 185 L 258 168 L 258 168 L 258 144 L 258 144 L 282 144 L 386 144 L 386 168 L 386 168 L 386 330 L 386 330 Q 384 407 333 459 Q 281 510 204 512 Q 170 513 138 502 Q 106 490 75 459 L 58 442 L 58 442 L 41 425 L 41 425 L 25 409 L 25 409 L 25 409 L 25 409 L 17 401 L 17 401 L 7 391 L 7 391 L 11 376 L 11 376 L 31 319 L 31 319 L 25 313 L 25 313 L 8 296 L 8 296 L 25 279 L 25 279 L 56 248 L 56 248 L 17 209 L 17 209 L 0 192 L 0 192 L 17 175 L 17 175 L 65 127 L 65 127 L 82 110 L 82 110 L 99 127 L 99 127 L 114 142 L 114 142 L 145 111 L 145 111 L 161 95 L 161 95 Z M 107 231 L 171 295 L 107 231 L 171 295 L 188 312 L 188 312 L 154 346 L 154 346 L 137 329 L 137 329 L 90 282 L 90 282 L 76 296 L 76 296 L 123 343 L 123 343 L 123 343 L 123 343 Q 123 343 123 343 Q 123 343 123 343 L 140 360 L 140 360 L 106 394 L 106 394 L 89 377 L 89 377 L 69 356 L 69 356 L 62 378 L 62 378 L 75 391 L 75 391 L 92 408 L 92 408 L 109 425 L 109 425 Q 134 450 155 457 Q 175 464 204 464 Q 261 463 299 425 Q 337 387 338 330 L 338 192 L 338 192 L 306 192 L 306 192 L 306 240 L 306 240 L 306 260 L 306 260 L 276 267 L 276 267 L 266 258 L 266 258 L 163 161 L 163 161 L 148 176 L 148 176 L 219 247 L 219 247 L 236 264 L 236 264 L 202 298 L 202 298 Q 202 298 202 298 Q 202 298 202 298 Q 202 298 202 298 Q 202 298 202 298 L 185 281 L 185 281 L 97 193 L 97 193 L 82 178 L 82 178 L 68 192 L 68 192 L 90 214 L 90 214 L 107 231 L 107 231 Z M 332 512 Q 324 512 317 512 Q 352 490 377 456 Q 416 442 441 408 Q 465 374 466 330 L 466 192 L 466 192 L 418 192 L 418 192 L 418 168 L 418 168 L 418 144 L 418 144 L 490 144 L 514 144 L 514 168 L 514 168 L 514 330 L 514 330 Q 512 407 461 459 Q 409 510 332 512 L 332 512 Z M 414 10 L 440 28 L 414 10 L 440 28 L 431 41 L 431 41 L 399 89 L 399 89 L 390 102 L 390 102 L 364 84 L 364 84 L 373 71 L 373 71 L 405 23 L 405 23 L 414 10 L 414 10 Z" />
</svg>