<svg xmlns="http://www.w3.org/2000/svg" viewBox="0 0 640 512">
  <path d="M 215 476 Q 161 466 119 433 L 119 433 L 119 433 Q 77 400 54 352 L 142 352 L 142 352 Q 156 394 176 425 Q 196 457 215 476 L 215 476 Z M 218 430 Q 193 399 176 352 L 321 352 L 321 352 Q 322 336 327 320 L 167 320 L 167 320 Q 160 291 160 256 Q 160 221 167 192 L 345 192 L 345 192 Q 352 221 352 256 Q 352 262 352 267 Q 365 248 383 233 Q 382 212 378 192 L 471 192 L 471 192 L 471 194 L 471 194 Q 483 192 496 192 Q 500 192 504 192 Q 504 192 504 192 Q 481 108 414 55 Q 347 2 256 0 Q 184 1 127 35 Q 69 69 35 127 Q 1 184 0 256 Q 1 328 35 385 Q 69 443 127 477 Q 184 511 256 512 Q 316 512 366 487 Q 355 475 347 461 Q 323 471 297 476 Q 314 459 332 432 Q 324 411 321 387 Q 309 412 295 430 Q 273 457 256 471 Q 239 457 218 430 L 218 430 Z M 134 192 Q 128 222 128 256 Q 128 290 134 320 L 41 320 L 41 320 Q 32 289 32 256 Q 32 223 41 192 L 134 192 L 134 192 Z M 336 160 L 176 160 L 336 160 L 176 160 Q 193 113 218 82 Q 239 55 256 41 Q 273 55 295 82 Q 319 113 336 160 L 336 160 Z M 459 160 L 370 160 L 459 160 L 370 160 Q 356 118 336 87 Q 316 55 297 36 Q 351 46 393 79 Q 435 112 458 160 L 459 160 Z M 142 160 L 54 160 L 142 160 L 54 160 Q 77 112 119 79 Q 161 46 215 36 Q 196 55 176 86 Q 156 117 142 160 L 142 160 Z M 496 256 Q 526 256 552 271 L 552 271 L 552 271 Q 578 286 593 312 Q 608 338 608 368 Q 608 398 593 424 Q 578 450 552 465 Q 526 480 496 480 Q 466 480 440 465 Q 414 450 399 424 Q 384 398 384 368 Q 384 338 399 312 Q 414 286 440 271 Q 466 256 496 256 L 496 256 Z M 496 512 Q 535 512 568 493 L 568 493 L 568 493 Q 601 474 621 440 Q 640 406 640 368 Q 640 330 621 296 Q 601 262 568 243 Q 535 224 496 224 Q 457 224 424 243 Q 391 262 371 296 Q 352 330 352 368 Q 352 406 371 440 Q 391 474 424 493 Q 457 512 496 512 L 496 512 Z M 592 347 Q 555 306 496 304 Q 437 306 400 347 L 425 368 L 425 368 Q 452 337 496 336 Q 540 337 567 368 L 592 347 L 592 347 Z M 496 360 Q 463 361 441 382 L 466 403 L 466 403 Q 478 392 496 392 Q 514 392 526 403 L 551 382 L 551 382 Q 529 361 496 360 L 496 360 Z M 496 452 Q 514 450 516 432 Q 514 414 496 412 Q 478 414 476 432 Q 478 450 496 452 L 496 452 Z" />
</svg>