<svg xmlns="http://www.w3.org/2000/svg" viewBox="0 0 599 512">
  <path d="M 127 384 L 343 384 L 127 384 L 343 384 L 343 368 L 343 368 L 135 368 L 135 368 L 135 256 L 135 256 L 135 248 L 135 248 L 119 248 L 119 248 L 119 256 L 119 256 L 119 376 L 119 376 L 119 384 L 119 384 L 127 384 L 127 384 Z M 344 224 Q 374 223 396 207 Q 406 193 420 183 L 409 171 L 409 171 L 398 184 L 398 184 Q 377 207 344 208 Q 311 207 291 184 L 279 171 L 279 171 L 267 184 L 267 184 Q 247 207 214 208 Q 181 207 160 184 L 149 171 L 149 171 L 137 184 L 137 184 Q 116 207 83 208 Q 78 208 73 207 Q 41 201 28 172 Q 16 143 33 112 L 96 16 L 96 16 L 462 16 L 462 16 L 525 112 L 525 112 Q 542 141 531 169 Q 539 172 545 176 Q 560 140 539 104 L 471 0 L 471 0 L 87 0 L 87 0 L 19 104 L 19 104 Q 0 137 11 171 Q 21 205 55 219 L 55 256 L 55 256 L 55 384 L 55 384 L 55 504 L 55 504 L 55 512 L 55 512 L 63 512 L 343 512 L 343 496 L 343 496 L 71 496 L 71 496 L 71 384 L 71 384 L 71 256 L 71 256 L 71 223 L 71 223 L 71 223 L 71 223 Q 77 224 83 224 Q 114 223 137 206 Q 143 201 149 195 Q 154 201 160 206 Q 183 223 214 224 Q 245 223 267 206 Q 274 201 279 195 Q 284 201 291 206 Q 313 223 344 224 L 344 224 Z M 487 208 Q 507 209 521 222 L 521 222 L 521 222 Q 534 236 535 256 L 535 320 L 535 320 L 439 320 L 439 320 L 439 256 L 439 256 Q 440 236 453 222 Q 467 209 487 208 L 487 208 Z M 423 256 L 423 320 L 423 256 L 423 320 L 391 320 L 375 320 L 375 336 L 375 336 L 375 496 L 375 496 L 375 512 L 375 512 L 391 512 L 599 512 L 599 496 L 599 496 L 599 336 L 599 336 L 599 320 L 599 320 L 583 320 L 551 320 L 551 256 L 551 256 Q 550 229 532 211 Q 514 193 487 192 Q 460 193 442 211 Q 424 229 423 256 L 423 256 Z M 391 336 L 423 336 L 391 336 L 583 336 L 583 496 L 583 496 L 391 496 L 391 496 L 391 336 L 391 336 Z" />
</svg>