<svg xmlns="http://www.w3.org/2000/svg" viewBox="0 0 448 448">
  <path d="M 16 16 L 16 432 L 16 16 L 16 432 L 432 432 L 432 432 L 432 16 L 432 16 L 16 16 L 16 16 Z M 0 0 L 16 0 L 0 0 L 448 0 L 448 16 L 448 16 L 448 432 L 448 432 L 448 448 L 448 448 L 432 448 L 0 448 L 0 432 L 0 432 L 0 16 L 0 16 L 0 0 L 0 0 Z M 192 224 L 192 336 L 192 224 L 192 336 L 256 336 L 256 336 L 256 224 L 256 224 L 256 208 L 256 208 L 272 208 L 336 208 L 336 207 L 336 207 L 224 95 L 224 95 L 112 207 L 112 207 L 112 208 L 112 208 L 176 208 L 192 208 L 192 224 L 192 224 Z M 213 83 L 224 72 L 213 83 L 224 72 L 235 83 L 235 83 L 352 200 L 352 200 L 352 208 L 352 208 L 352 224 L 352 224 L 336 224 L 272 224 L 272 240 L 272 240 L 272 336 L 272 336 L 272 352 L 272 352 L 256 352 L 176 352 L 176 336 L 176 336 L 176 240 L 176 240 L 176 224 L 176 224 L 160 224 L 96 224 L 96 208 L 96 208 L 96 200 L 96 200 L 213 83 L 213 83 Z" />
</svg>