<svg xmlns="http://www.w3.org/2000/svg" viewBox="0 0 510 448">
  <path d="M 224 425 L 16 217 L 224 425 L 16 217 L 16 16 L 16 16 L 217 16 L 217 16 L 400 199 L 400 199 L 400 249 L 400 249 L 224 425 L 224 425 Z M 416 192 L 224 0 L 416 192 L 224 0 L 16 0 L 0 0 L 0 16 L 0 16 L 0 224 L 0 224 L 213 437 L 213 437 L 224 448 L 224 448 L 235 437 L 235 437 L 416 256 L 416 256 L 416 192 L 416 192 Z M 344 5 L 333 16 L 344 5 L 333 16 L 338 22 L 338 22 L 494 178 L 494 178 L 494 271 L 494 271 L 338 426 L 338 426 L 333 432 L 333 432 L 344 443 L 344 443 L 350 438 L 350 438 L 508 279 L 508 279 L 510 277 L 510 277 L 510 274 L 510 274 L 510 174 L 510 174 L 510 171 L 510 171 L 508 169 L 508 169 L 350 10 L 350 10 L 344 5 L 344 5 Z M 152 112 Q 151 89 132 77 Q 112 67 92 77 Q 73 89 72 112 Q 73 135 92 147 Q 112 157 132 147 Q 151 135 152 112 L 152 112 Z M 112 88 Q 134 90 136 112 Q 134 134 112 136 Q 90 134 88 112 Q 90 90 112 88 L 112 88 Z" />
</svg>