<svg xmlns="http://www.w3.org/2000/svg" viewBox="0 0 512 512">
  <path d="M 151 105 L 139 117 L 151 105 L 139 117 L 173 151 L 173 151 L 222 199 L 222 199 L 245 222 L 245 222 L 256 233 L 256 233 L 267 222 L 267 222 L 290 199 L 290 199 L 339 151 L 339 151 L 373 117 L 373 117 L 361 105 L 361 105 L 339 83 L 339 83 L 290 34 L 290 34 L 256 0 L 256 0 L 222 34 L 222 34 L 173 83 L 173 83 L 151 105 L 151 105 Z M 207 117 L 256 68 L 207 117 L 256 68 L 305 117 L 305 117 L 256 166 L 256 166 L 207 117 L 207 117 Z M 290 245 L 279 256 L 290 245 L 279 256 L 290 267 L 290 267 L 313 290 L 313 290 L 361 339 L 361 339 L 395 373 L 395 373 L 406 361 L 406 361 L 429 339 L 429 339 L 478 290 L 478 290 L 512 256 L 512 256 L 478 222 L 478 222 L 429 173 L 429 173 L 407 151 L 407 151 L 395 139 L 395 139 L 362 173 L 362 173 L 313 222 L 313 222 L 290 245 L 290 245 Z M 347 256 L 395 207 L 347 256 L 395 207 L 444 256 L 444 256 L 395 305 L 395 305 L 347 256 L 347 256 Z M 361 407 L 373 395 L 361 407 L 373 395 L 339 361 L 339 361 L 290 313 L 290 313 L 267 290 L 267 290 L 256 279 L 256 279 L 245 290 L 245 290 L 222 313 L 222 313 L 173 361 L 173 361 L 139 395 L 139 395 L 151 406 L 151 406 L 173 429 L 173 429 L 222 478 L 222 478 L 256 512 L 256 512 L 290 478 L 290 478 L 339 429 L 339 429 L 361 407 L 361 407 Z M 305 395 L 256 444 L 305 395 L 256 444 L 207 395 L 207 395 L 256 347 L 256 347 L 305 395 L 305 395 Z M 222 267 L 233 256 L 222 267 L 233 256 L 222 245 L 222 245 L 199 222 L 199 222 L 151 173 L 151 173 L 117 139 L 117 139 L 105 151 L 105 151 L 83 173 L 83 173 L 34 222 L 34 222 L 0 256 L 0 256 L 34 290 L 34 290 L 83 339 L 83 339 L 105 361 L 105 361 L 117 373 L 117 373 L 151 339 L 151 339 L 199 290 L 199 290 L 222 267 L 222 267 Z M 166 256 L 117 305 L 166 256 L 117 305 L 68 256 L 68 256 L 117 207 L 117 207 L 166 256 L 166 256 Z" />
</svg>