<svg xmlns="http://www.w3.org/2000/svg" viewBox="0 0 640 512">
  <path d="M 624 16 L 176 16 L 624 16 L 176 16 L 176 97 L 176 97 Q 168 96 160 96 L 160 16 L 160 16 L 160 0 L 160 0 L 176 0 L 640 0 L 640 16 L 640 16 L 640 400 L 640 400 L 640 416 L 640 416 L 624 416 L 325 416 L 320 400 L 320 400 L 624 400 L 624 400 L 624 16 L 624 16 Z M 416 112 L 424 112 L 416 112 L 528 112 L 528 120 L 528 120 L 528 216 L 528 216 L 528 224 L 528 224 L 512 224 L 512 224 L 512 216 L 512 216 L 512 139 L 512 139 L 390 262 L 390 262 L 384 267 L 384 267 L 378 262 L 378 262 L 298 182 L 298 182 L 293 176 L 293 176 L 304 165 L 304 165 L 310 170 L 310 170 L 384 245 L 384 245 L 501 128 L 501 128 L 424 128 L 416 128 L 416 112 L 416 112 Z M 160 304 Q 205 303 229 264 Q 251 224 229 184 Q 205 145 160 144 Q 115 145 91 184 Q 69 224 91 264 Q 115 303 160 304 L 160 304 Z M 160 128 Q 186 128 208 141 L 208 141 L 208 141 Q 230 154 243 176 Q 256 199 256 224 Q 256 249 243 272 Q 230 294 208 307 Q 186 320 160 320 Q 134 320 112 307 Q 90 294 77 272 Q 64 249 64 224 Q 64 199 77 176 Q 90 154 112 141 Q 134 128 160 128 L 160 128 Z M 60 368 L 22 496 L 60 368 L 22 496 L 299 496 L 299 496 L 260 368 L 260 368 L 60 368 L 60 368 Z M 272 352 L 315 496 L 272 352 L 315 496 L 320 512 L 320 512 L 303 512 L 0 512 L 5 496 L 5 496 L 48 352 L 48 352 L 272 352 L 272 352 Z" />
</svg>