<svg xmlns="http://www.w3.org/2000/svg" viewBox="0 0 511 511">
  <path d="M 396 34 L 335 95 L 396 34 L 335 95 Q 336 96 331 124 Q 327 151 311 190 Q 296 228 263 263 Q 228 296 190 311 Q 151 327 124 331 Q 96 336 95 335 L 34 396 L 34 396 L 0 430 L 0 430 Q 18 446 38 460 Q 112 510 207 511 Q 292 510 360 469 Q 429 429 469 360 Q 510 292 511 207 Q 510 112 460 38 Q 446 18 430 0 L 396 34 L 396 34 Z M 100 398 Q 151 430 215 431 Q 307 429 368 368 Q 429 307 431 215 Q 430 151 398 100 L 425 73 L 425 73 Q 462 132 463 207 Q 462 279 428 336 Q 394 394 336 428 Q 279 462 207 463 Q 132 462 73 425 L 100 398 L 100 398 Z M 373 157 Q 383 184 383 215 Q 381 286 334 334 Q 286 381 215 383 Q 184 383 157 373 Q 162 372 167 370 Q 167 370 167 370 Q 196 362 231 345 Q 265 327 297 297 Q 327 265 345 231 Q 362 196 370 167 Q 371 163 372 159 Q 373 158 373 157 L 373 157 Z" />
</svg>