<svg xmlns="http://www.w3.org/2000/svg" viewBox="0 0 640 512">
  <path d="M 528 512 L 508 496 L 528 512 L 508 496 L 112 496 L 112 496 L 112 384 L 112 384 L 112 256 L 112 256 L 112 223 L 112 223 L 112 223 L 112 223 Q 118 224 124 224 Q 141 224 156 218 L 141 206 L 141 206 Q 133 208 124 208 Q 119 208 114 207 Q 91 204 77 186 Q 64 169 64 146 L 49 134 L 49 134 Q 45 161 58 185 Q 70 209 96 219 L 96 256 L 96 256 L 96 384 L 96 384 L 96 504 L 96 504 L 96 512 L 96 512 L 104 512 L 528 512 Z M 528 256 L 528 329 L 528 256 L 528 329 L 544 341 L 544 341 L 544 256 L 544 256 L 544 219 L 544 219 Q 578 205 588 171 Q 599 137 580 104 L 512 0 L 512 0 L 128 0 L 128 0 L 123 8 L 123 8 L 135 18 L 135 18 L 137 16 L 137 16 L 503 16 L 503 16 L 566 113 L 566 113 Q 583 143 571 172 Q 558 201 525 207 Q 520 208 515 208 Q 483 207 462 184 L 450 171 L 450 171 L 438 184 L 438 184 Q 418 207 385 208 Q 380 208 374 207 L 395 224 L 395 224 Q 420 220 439 206 Q 445 201 450 195 Q 456 201 462 206 Q 485 223 516 224 Q 522 224 528 223 L 528 223 L 528 223 L 528 256 L 528 256 Z M 366 384 L 346 368 L 366 384 L 346 368 L 176 368 L 176 368 L 176 256 L 176 256 L 176 248 L 176 248 L 160 248 L 160 248 L 160 256 L 160 256 L 160 376 L 160 376 L 160 384 L 160 384 L 168 384 L 366 384 Z M 464 256 L 464 278 L 464 256 L 464 278 L 480 291 L 480 291 L 480 256 L 480 256 L 480 248 L 480 248 L 464 248 L 464 248 L 464 256 L 464 256 Z M 16 5 L 10 0 L 16 5 L 10 0 L 0 13 L 0 13 L 6 18 L 6 18 L 624 507 L 624 507 L 630 512 L 630 512 L 640 500 L 640 500 L 634 495 L 634 495 L 16 5 L 16 5 Z" />
</svg>