<svg xmlns="http://www.w3.org/2000/svg" viewBox="0 0 512 512">
  <path d="M 171 0 L 176 0 L 171 0 L 341 0 L 343 4 L 343 4 L 415 140 L 415 140 L 416 142 L 416 142 L 416 144 L 416 144 L 416 208 L 416 208 L 416 212 L 416 212 L 413 214 L 413 214 L 364 257 L 364 257 L 421 313 L 421 313 L 426 319 L 426 319 L 430 323 L 430 323 L 435 328 L 435 328 L 506 399 L 506 399 L 512 405 L 512 405 L 501 416 L 501 416 L 495 410 L 495 410 L 424 339 L 424 339 L 387 376 L 387 376 L 458 447 L 458 447 L 464 453 L 464 453 L 453 464 L 453 464 L 447 458 L 447 458 L 376 387 L 376 387 L 339 424 L 339 424 L 410 495 L 410 495 L 416 501 L 416 501 L 405 512 L 405 512 L 399 506 L 399 506 L 322 430 L 322 430 L 98 214 L 98 214 L 96 211 L 96 211 L 96 208 L 96 208 L 96 144 L 96 144 L 96 142 L 96 142 L 97 140 L 97 140 L 169 4 L 169 4 L 171 0 L 171 0 Z M 346 262 L 202 118 L 346 262 L 202 118 L 200 115 L 200 115 L 200 112 L 200 112 L 200 104 L 200 104 L 200 96 L 200 96 L 208 96 L 304 96 L 304 112 L 304 112 L 296 112 L 219 112 L 352 245 L 352 245 L 400 204 L 400 204 L 400 146 L 400 146 L 331 16 L 331 16 L 181 16 L 181 16 L 112 146 L 112 146 L 112 205 L 112 205 L 324 409 L 324 409 L 325 409 L 325 409 L 328 413 L 328 413 L 413 328 L 413 328 L 409 325 L 409 325 L 346 262 L 346 262 Z M 6 399 L 120 284 L 6 399 L 120 284 L 132 296 L 132 296 L 17 410 L 17 410 L 12 416 L 12 416 L 0 405 L 0 405 L 6 399 L 6 399 Z M 54 447 L 168 332 L 54 447 L 168 332 L 180 344 L 180 344 L 65 458 L 65 458 L 59 464 L 59 464 L 48 453 L 48 453 L 54 447 L 54 447 Z M 102 495 L 216 380 L 102 495 L 216 380 L 228 392 L 228 392 L 113 506 L 113 506 L 108 512 L 108 512 L 96 501 L 96 501 L 102 495 L 102 495 Z" />
</svg>