<svg xmlns="http://www.w3.org/2000/svg" viewBox="0 0 512 512">
  <path d="M 256 0 Q 227 0 205 15 L 205 15 L 205 15 Q 182 29 170 54 Q 156 48 140 48 Q 104 49 81 73 Q 57 96 56 132 Q 56 150 63 166 Q 35 176 18 200 Q 0 224 0 256 Q 1 297 28 324 Q 55 351 96 352 L 104 352 L 104 352 Q 107 353 136 396 Q 166 439 192 512 L 320 512 L 320 512 Q 347 439 376 396 Q 406 353 408 352 L 416 352 L 416 352 Q 457 351 484 324 Q 511 297 512 256 Q 512 224 494 200 Q 477 176 449 166 Q 456 150 456 132 Q 455 96 431 73 Q 408 49 372 48 Q 356 48 342 54 Q 330 29 307 15 Q 285 0 256 0 L 256 0 Z M 387 352 L 386 354 L 387 352 L 386 354 Q 377 366 363 387 Q 335 428 309 496 L 203 496 L 203 496 Q 177 428 150 387 Q 135 366 126 354 L 125 352 L 125 352 L 213 352 L 213 352 L 241 422 L 241 422 L 245 432 L 245 432 L 267 432 L 267 432 L 271 422 L 271 422 L 299 352 L 299 352 L 388 352 L 387 352 Z M 230 352 L 282 352 L 230 352 L 282 352 L 265 395 L 265 395 L 256 416 L 256 416 L 247 395 L 247 395 L 230 352 L 230 352 Z M 181 67 Q 191 44 210 30 L 210 30 L 210 30 Q 230 16 256 16 Q 282 16 302 30 Q 321 44 331 67 L 334 75 L 334 75 L 342 71 L 342 71 Q 355 64 372 64 Q 401 65 420 84 Q 439 103 440 132 Q 440 151 431 167 L 425 176 L 425 176 L 436 178 L 436 178 Q 462 185 479 206 Q 495 227 496 256 Q 495 290 473 313 Q 450 335 416 336 L 96 336 L 96 336 Q 62 335 39 313 Q 17 290 16 256 Q 17 227 33 206 Q 50 185 77 178 L 87 176 L 87 176 L 81 167 L 81 167 Q 72 151 72 132 Q 73 103 92 84 Q 111 65 140 64 Q 157 64 170 71 L 178 75 L 178 75 L 181 67 L 181 67 Z" />
</svg>