<svg xmlns="http://www.w3.org/2000/svg" viewBox="0 0 640 512">
  <path d="M 96 0 L 120 0 L 96 0 L 276 0 L 284 10 L 284 10 L 380 146 L 380 146 L 384 152 L 384 152 L 384 160 L 384 160 L 384 208 L 384 208 L 384 224 L 384 224 L 384 272 L 384 272 L 384 320 L 384 320 L 336 320 L 0 320 L 0 272 L 0 272 L 0 208 L 0 208 L 0 160 L 0 160 L 48 160 L 96 160 L 96 24 L 96 24 L 96 0 L 96 0 Z M 252 48 L 144 48 L 252 48 L 144 48 L 144 160 L 144 160 L 331 160 L 331 160 L 252 48 L 252 48 Z M 48 208 L 48 272 L 48 208 L 48 272 L 336 272 L 336 272 L 336 224 L 336 224 L 336 208 L 336 208 L 48 208 L 48 208 Z M 80 400 Q 66 400 57 409 L 57 409 L 57 409 Q 48 418 48 432 Q 48 446 57 455 Q 66 464 80 464 L 336 464 L 336 464 Q 350 464 359 455 Q 368 446 368 432 Q 368 418 359 409 Q 350 400 336 400 L 80 400 L 80 400 Z M 0 432 Q 1 398 23 375 L 23 375 L 23 375 Q 46 353 80 352 L 336 352 L 336 352 Q 370 353 393 375 Q 415 398 416 432 Q 415 466 393 489 Q 370 511 336 512 L 80 512 L 80 512 Q 46 511 23 489 Q 1 466 0 432 L 0 432 Z M 448 464 L 592 320 L 448 464 L 592 320 L 592 208 L 592 208 L 592 144 L 592 144 L 544 186 L 544 186 L 416 298 L 416 298 L 416 234 L 416 234 L 560 108 L 560 108 L 592 80 L 592 80 L 592 50 L 592 50 L 416 202 L 416 202 L 416 139 L 416 139 L 576 0 L 576 0 L 592 0 L 640 0 L 640 38 L 640 38 L 640 48 L 640 48 L 640 144 L 640 144 L 640 320 L 640 320 L 640 336 L 640 336 L 640 384 L 640 384 L 640 432 L 640 432 Q 639 466 617 489 Q 594 511 560 512 L 448 512 L 448 512 L 448 464 L 448 464 Z" />
</svg>