<svg xmlns="http://www.w3.org/2000/svg" viewBox="0 0 384 448">
  <path d="M 128 0 L 128 32 L 128 0 L 128 32 L 128 69 L 128 69 L 247 33 L 247 33 L 278 24 L 278 24 L 296 86 L 296 86 L 265 95 L 265 95 L 128 135 L 128 135 L 128 165 L 128 165 L 247 129 L 247 129 L 278 120 L 278 120 L 296 182 L 296 182 L 265 191 L 265 191 L 128 231 L 128 231 L 128 384 L 128 384 L 192 384 L 192 384 Q 246 383 283 347 Q 319 310 320 256 L 320 224 L 320 224 L 384 224 L 384 224 L 384 256 L 384 256 Q 382 338 328 392 Q 274 446 192 448 L 96 448 L 64 448 L 64 416 L 64 416 L 64 250 L 64 250 L 49 255 L 49 255 L 18 264 L 18 264 L 0 202 L 0 202 L 31 193 L 31 193 L 64 184 L 64 184 L 64 154 L 64 154 L 49 159 L 49 159 L 18 168 L 18 168 L 0 106 L 0 106 L 31 97 L 31 97 L 64 88 L 64 88 L 64 32 L 64 32 L 64 0 L 64 0 L 128 0 L 128 0 Z" />
</svg>