<svg xmlns="http://www.w3.org/2000/svg" viewBox="0 0 512 512">
  <path d="M 121.26316 67.36842 Q 146.52632 67.36842 168.42105 80 L 168.42105 80 Q 190.3158 92.63158 202.94737 114.52631 Q 215.57895 136.42105 215.57895 161.6842 Q 215.57895 186.94737 202.94737 208.8421 Q 190.3158 230.73685 168.42105 243.36842 Q 146.52632 256 121.26316 256 Q 96 256 74.10526 243.36842 Q 52.210526 230.73685 39.57895 208.8421 Q 26.947369 186.94737 26.947369 161.6842 Q 26.947369 136.42105 39.57895 114.52631 Q 52.210526 92.63158 74.10526 80 Q 96 67.36842 121.26316 67.36842 L 121.26316 67.36842 Z M 121.26316 282.94736 Q 154.10527 282.94736 181.89473 266.94736 L 181.89473 266.94736 Q 209.6842 250.94737 226.52632 222.3158 Q 242.52632 193.6842 242.52632 161.6842 Q 242.52632 129.6842 226.52632 101.052635 Q 209.6842 72.42105 181.89473 56.42105 Q 154.10527 40.42105 121.26316 40.42105 Q 88.42105 40.42105 60.63158 56.42105 Q 32.842106 72.42105 16 101.052635 Q 0 129.6842 0 161.6842 Q 0 193.6842 16 222.3158 Q 32.842106 250.94737 60.63158 266.94736 Q 88.42105 282.94736 121.26316 282.94736 L 121.26316 282.94736 Z M 128 95.1579 L 108.63158 114.52631 L 118.73684 123.789474 L 118.73684 123.789474 L 118.73684 124.63158 L 118.73684 124.63158 L 118.73684 124.63158 L 118.73684 124.63158 L 118.73684 124.63158 L 118.73684 124.63158 L 119.57895 124.63158 L 119.57895 124.63158 L 119.57895 124.63158 L 119.57895 124.63158 L 119.57895 124.63158 L 119.57895 125.47369 L 119.57895 125.47369 L 119.57895 125.47369 L 119.57895 125.47369 L 119.57895 125.47369 L 120.42105 125.47369 L 120.42105 125.47369 L 120.42105 125.47369 L 120.42105 125.47369 L 120.42105 125.47369 L 120.42105 126.31579 L 120.42105 126.31579 L 120.42105 126.31579 L 120.42105 126.31579 L 120.42105 126.31579 L 121.26316 126.31579 L 121.26316 126.31579 L 121.26316 126.31579 L 121.26316 126.31579 L 121.26316 126.31579 L 121.26316 127.1579 L 121.26316 127.1579 L 121.26316 127.1579 L 121.26316 127.1579 L 121.26316 127.1579 L 122.10526 127.1579 L 122.10526 127.1579 L 122.10526 127.1579 L 122.10526 127.1579 L 122.10526 127.1579 L 122.10526 128 L 122.10526 128 L 122.10526 128 L 122.10526 128 L 122.10526 128 L 122.947365 128 L 122.947365 128 L 122.947365 128 L 122.947365 128 L 122.947365 128 L 122.947365 128.8421 L 122.947365 128.8421 L 122.947365 128.8421 L 122.947365 128.8421 L 122.947365 128.8421 L 123.789474 128.8421 L 123.789474 128.8421 L 123.789474 128.8421 L 123.789474 128.8421 L 123.789474 128.8421 L 123.789474 129.6842 L 123.789474 129.6842 L 123.789474 129.6842 L 123.789474 129.6842 L 123.789474 129.6842 L 124.63158 129.6842 L 124.63158 129.6842 L 124.63158 129.6842 L 124.63158 129.6842 L 124.63158 129.6842 L 124.63158 130.52632 L 124.63158 130.52632 L 124.63158 130.52632 L 124.63158 130.52632 L 124.63158 130.52632 L 125.47369 130.52632 L 125.47369 130.52632 L 125.47369 130.52632 L 125.47369 130.52632 L 125.47369 130.52632 L 125.47369 131.36842 L 125.47369 131.36842 L 125.47369 131.36842 L 125.47369 131.36842 L 125.47369 131.36842 L 126.31579 131.36842 L 126.31579 131.36842 L 126.31579 131.36842 L 126.31579 131.36842 L 126.31579 131.36842 L 126.31579 132.21053 L 126.31579 132.21053 L 126.31579 132.21053 L 126.31579 132.21053 L 126.31579 132.21053 L 127.1579 132.21053 L 127.1579 132.21053 L 127.1579 132.21053 L 127.1579 132.21053 L 127.1579 132.21053 L 127.1579 133.05263 L 127.1579 133.05263 L 127.1579 133.05263 L 127.1579 133.05263 L 127.1579 133.05263 L 128 133.05263 L 128 133.05263 L 128 133.05263 L 128 133.05263 L 128 133.05263 L 128 133.89473 L 128 133.89473 L 128 133.89473 L 128 133.89473 L 128 133.89473 L 128.8421 133.89473 L 128.8421 133.89473 L 128.8421 133.89473 L 128.8421 133.89473 L 128.8421 133.89473 L 128.8421 134.73685 L 128.8421 134.73685 L 128.8421 134.73685 L 128.8421 134.73685 L 128.8421 134.73685 L 129.6842 134.73685 L 129.6842 134.73685 L 129.6842 134.73685 L 129.6842 134.73685 L 129.6842 134.73685 L 129.6842 135.57895 L 129.6842 135.57895 L 129.6842 135.57895 L 129.6842 135.57895 L 129.6842 135.57895 L 130.52632 135.57895 L 130.52632 135.57895 L 130.52632 135.57895 L 130.52632 135.57895 L 130.52632 135.57895 L 130.52632 136.42105 L 130.52632 136.42105 L 130.52632 136.42105 L 130.52632 136.42105 L 130.52632 136.42105 L 131.36842 136.42105 L 131.36842 136.42105 L 131.36842 136.42105 L 131.36842 136.42105 L 131.36842 136.42105 L 131.36842 137.26315 L 131.36842 137.26315 L 131.36842 137.26315 L 131.36842 137.26315 L 131.36842 137.26315 L 132.21053 137.26315 L 132.21053 137.26315 L 132.21053 137.26315 L 132.21053 137.26315 L 132.21053 137.26315 L 132.21053 138.10527 L 132.21053 138.10527 L 132.21053 138.10527 L 132.21053 138.10527 L 132.21053 138.10527 L 133.05263 138.10527 L 133.05263 138.10527 L 133.05263 138.10527 L 133.05263 138.10527 L 133.05263 138.10527 L 133.05263 138.94737 L 133.05263 138.94737 L 133.05263 138.94737 L 133.05263 138.94737 L 133.05263 138.94737 L 133.89473 138.94737 L 133.89473 138.94737 L 133.89473 138.94737 L 133.89473 138.94737 L 133.89473 138.94737 L 133.89473 139.78947 L 133.89473 139.78947 L 133.89473 139.78947 L 133.89473 139.78947 L 133.89473 139.78947 L 134.73685 139.78947 L 134.73685 139.78947 L 134.73685 139.78947 L 134.73685 139.78947 L 134.73685 139.78947 L 134.73685 140.63158 L 134.73685 140.63158 L 134.73685 140.63158 L 134.73685 140.63158 L 134.73685 140.63158 L 135.57895 140.63158 L 135.57895 140.63158 L 135.57895 140.63158 L 135.57895 140.63158 L 135.57895 140.63158 L 67.36842 140.63158 L 53.894737 140.63158 L 53.894737 167.57895 L 67.36842 167.57895 L 142.3158 167.57895 L 118.73684 192 L 108.63158 208.8421 L 128 228.21053 L 137.26315 218.10527 L 184.42105 170.94737 L 194.52632 161.6842 L 184.42105 152.42105 L 175.1579 161.6842 L 184.42105 152.42105 L 184.42105 152.42105 L 184.42105 152.42105 L 184.42105 152.42105 L 184.42105 152.42105 L 184.42105 152.42105 L 184.42105 152.42105 L 184.42105 152.42105 L 184.42105 152.42105 L 184.42105 152.42105 L 184.42105 152.42105 L 184.42105 152.42105 L 184.42105 152.42105 L 184.42105 152.42105 L 184.42105 152.42105 L 184.42105 152.42105 L 184.42105 152.42105 L 184.42105 152.42105 L 184.42105 152.42105 L 184.42105 152.42105 L 184.42105 152.42105 L 184.42105 152.42105 L 184.42105 152.42105 L 184.42105 152.42105 L 184.42105 152.42105 L 184.42105 152.42105 L 184.42105 152.42105 L 184.42105 152.42105 L 184.42105 152.42105 L 184.42105 152.42105 L 184.42105 152.42105 L 184.42105 152.42105 L 184.42105 152.42105 L 184.42105 152.42105 L 184.42105 152.42105 L 184.42105 152.42105 L 184.42105 152.42105 L 184.42105 152.42105 L 184.42105 152.42105 L 184.42105 152.42105 L 184.42105 152.42105 L 184.42105 152.42105 L 184.42105 152.42105 L 184.42105 152.42105 L 184.42105 152.42105 L 184.42105 152.42105 L 184.42105 152.42105 L 184.42105 152.42105 L 184.42105 152.42105 L 184.42105 152.42105 L 184.42105 152.42105 L 184.42105 152.42105 L 184.42105 152.42105 L 184.42105 152.42105 L 184.42105 152.42105 L 184.42105 152.42105 L 184.42105 152.42105 L 184.42105 152.42105 L 184.42105 152.42105 L 184.42105 152.42105 L 184.42105 152.42105 L 184.42105 152.42105 L 184.42105 152.42105 L 184.42105 152.42105 L 184.42105 152.42105 L 184.42105 152.42105 L 184.42105 152.42105 L 184.42105 152.42105 L 184.42105 152.42105 L 184.42105 152.42105 L 184.42105 152.42105 L 184.42105 152.42105 L 184.42105 151.57895 L 184.42105 151.57895 L 184.42105 151.57895 L 184.42105 151.57895 L 184.42105 151.57895 L 184.42105 151.57895 L 183.57895 151.57895 L 183.57895 151.57895 L 183.57895 151.57895 L 183.57895 151.57895 L 183.57895 150.73685 L 183.57895 150.73685 L 183.57895 150.73685 L 183.57895 150.73685 L 183.57895 150.73685 L 183.57895 150.73685 L 182.73685 150.73685 L 182.73685 150.73685 L 182.73685 150.73685 L 182.73685 150.73685 L 182.73685 149.89473 L 182.73685 149.89473 L 182.73685 149.89473 L 182.73685 149.89473 L 182.73685 149.89473 L 182.73685 149.89473 L 181.89473 149.89473 L 181.89473 149.89473 L 181.89473 149.89473 L 181.89473 149.89473 L 181.89473 149.05263 L 181.89473 149.05263 L 181.89473 149.05263 L 181.89473 149.05263 L 181.89473 149.05263 L 181.89473 149.05263 L 181.05263 149.05263 L 181.05263 149.05263 L 181.05263 149.05263 L 181.05263 149.05263 L 181.05263 148.21053 L 181.05263 148.21053 L 181.05263 148.21053 L 181.05263 148.21053 L 181.05263 148.21053 L 181.05263 148.21053 L 180.21053 148.21053 L 180.21053 148.21053 L 180.21053 148.21053 L 180.21053 148.21053 L 180.21053 147.36842 L 180.21053 147.36842 L 180.21053 147.36842 L 180.21053 147.36842 L 180.21053 147.36842 L 180.21053 147.36842 L 179.36842 147.36842 L 179.36842 147.36842 L 179.36842 147.36842 L 179.36842 147.36842 L 179.36842 146.52632 L 179.36842 146.52632 L 179.36842 146.52632 L 179.36842 146.52632 L 179.36842 146.52632 L 179.36842 146.52632 L 178.52632 146.52632 L 178.52632 146.52632 L 178.52632 146.52632 L 178.52632 146.52632 L 178.52632 145.6842 L 178.52632 145.6842 L 178.52632 145.6842 L 178.52632 145.6842 L 178.52632 145.6842 L 178.52632 145.6842 L 177.6842 145.6842 L 177.6842 145.6842 L 177.6842 145.6842 L 177.6842 145.6842 L 177.6842 144.8421 L 177.6842 144.8421 L 177.6842 144.8421 L 177.6842 144.8421 L 177.6842 144.8421 L 177.6842 144.8421 L 176.8421 144.8421 L 176.8421 144.8421 L 176.8421 144.8421 L 176.8421 144.8421 L 176.8421 144 L 176.8421 144 L 176.8421 144 L 176.8421 144 L 176.8421 144 L 176.8421 144 L 176 144 L 176 144 L 176 144 L 176 144 L 176 143.1579 L 176 143.1579 L 176 143.1579 L 176 143.1579 L 176 143.1579 L 176 143.1579 L 175.1579 143.1579 L 175.1579 143.1579 L 175.1579 143.1579 L 175.1579 143.1579 L 175.1579 142.3158 L 175.1579 142.3158 L 175.1579 142.3158 L 175.1579 142.3158 L 175.1579 142.3158 L 175.1579 142.3158 L 174.3158 142.3158 L 174.3158 142.3158 L 174.3158 142.3158 L 174.3158 142.3158 L 174.3158 141.47368 L 174.3158 141.47368 L 174.3158 141.47368 L 174.3158 141.47368 L 174.3158 141.47368 L 174.3158 141.47368 L 173.47368 141.47368 L 173.47368 141.47368 L 173.47368 141.47368 L 173.47368 141.47368 L 173.47368 140.63158 L 173.47368 140.63158 L 173.47368 140.63158 L 173.47368 140.63158 L 173.47368 140.63158 L 173.47368 140.63158 L 172.63158 140.63158 L 172.63158 140.63158 L 172.63158 140.63158 L 172.63158 140.63158 L 172.63158 139.78947 L 172.63158 139.78947 L 172.63158 139.78947 L 172.63158 139.78947 L 172.63158 139.78947 L 172.63158 139.78947 L 171.78947 139.78947 L 171.78947 139.78947 L 171.78947 139.78947 L 171.78947 139.78947 L 171.78947 138.94737 L 171.78947 138.94737 L 171.78947 138.94737 L 171.78947 138.94737 L 171.78947 138.94737 L 171.78947 138.94737 L 170.94737 138.94737 L 170.94737 138.94737 L 170.94737 138.94737 L 170.94737 138.94737 L 170.94737 138.10527 L 170.94737 138.10527 L 170.94737 138.10527 L 170.94737 138.10527 L 170.94737 138.10527 L 170.94737 138.10527 L 170.10527 138.10527 L 170.10527 138.10527 L 170.10527 138.10527 L 170.10527 138.10527 L 170.10527 137.26315 L 170.10527 137.26315 L 170.10527 137.26315 L 170.10527 137.26315 L 170.10527 137.26315 L 170.10527 137.26315 L 169.26315 137.26315 L 169.26315 137.26315 L 169.26315 137.26315 L 169.26315 137.26315 L 169.26315 136.42105 L 169.26315 136.42105 L 169.26315 136.42105 L 169.26315 136.42105 L 169.26315 136.42105 L 169.26315 136.42105 L 168.42105 136.42105 L 168.42105 136.42105 L 168.42105 136.42105 L 168.42105 136.42105 L 168.42105 135.57895 L 168.42105 135.57895 L 168.42105 135.57895 L 168.42105 135.57895 L 168.42105 135.57895 L 168.42105 135.57895 L 167.57895 135.57895 L 167.57895 135.57895 L 167.57895 135.57895 L 167.57895 135.57895 L 167.57895 134.73685 L 167.57895 134.73685 L 167.57895 134.73685 L 167.57895 134.73685 L 167.57895 134.73685 L 167.57895 134.73685 L 166.73685 134.73685 L 166.73685 134.73685 L 166.73685 134.73685 L 166.73685 134.73685 L 166.73685 133.89473 L 166.73685 133.89473 L 166.73685 133.89473 L 166.73685 133.89473 L 166.73685 133.89473 L 166.73685 133.89473 L 165.89473 133.89473 L 165.89473 133.89473 L 165.89473 133.89473 L 165.89473 133.89473 L 165.89473 133.05263 L 165.89473 133.05263 L 165.89473 133.05263 L 165.89473 133.05263 L 165.89473 133.05263 L 165.89473 133.05263 L 165.05263 133.05263 L 165.05263 133.05263 L 165.05263 133.05263 L 165.05263 133.05263 L 165.05263 133.05263 L 165.05263 132.21053 L 165.05263 132.21053 L 165.05263 132.21053 L 165.05263 132.21053 L 165.05263 132.21053 L 164.21053 132.21053 L 164.21053 132.21053 L 164.21053 132.21053 L 164.21053 132.21053 L 164.21053 132.21053 L 164.21053 131.36842 L 164.21053 131.36842 L 164.21053 131.36842 L 164.21053 131.36842 L 164.21053 131.36842 L 163.36842 131.36842 L 163.36842 131.36842 L 163.36842 131.36842 L 163.36842 131.36842 L 163.36842 131.36842 L 163.36842 130.52632 L 163.36842 130.52632 L 163.36842 130.52632 L 163.36842 130.52632 L 163.36842 130.52632 L 162.52632 130.52632 L 162.52632 130.52632 L 162.52632 130.52632 L 162.52632 130.52632 L 162.52632 130.52632 L 162.52632 129.6842 L 162.52632 129.6842 L 162.52632 129.6842 L 162.52632 129.6842 L 162.52632 129.6842 L 161.6842 129.6842 L 161.6842 129.6842 L 161.6842 129.6842 L 161.6842 129.6842 L 161.6842 129.6842 L 161.6842 128.8421 L 161.6842 128.8421 L 161.6842 128.8421 L 161.6842 128.8421 L 161.6842 128.8421 L 160.8421 128.8421 L 160.8421 128.8421 L 160.8421 128.8421 L 160.8421 128.8421 L 160.8421 128.8421 L 160.8421 128 L 160.8421 128 L 160.8421 128 L 160.8421 128 L 160.8421 128 L 160 128 L 160 128 L 160 128 L 160 128 L 160 128 L 160 127.1579 L 160 127.1579 L 160 127.1579 L 160 127.1579 L 160 127.1579 L 159.1579 127.1579 L 159.1579 127.1579 L 159.1579 127.1579 L 159.1579 127.1579 L 159.1579 127.1579 L 159.1579 126.31579 L 159.1579 126.31579 L 159.1579 126.31579 L 159.1579 126.31579 L 159.1579 126.31579 L 158.3158 126.31579 L 158.3158 126.31579 L 158.3158 126.31579 L 158.3158 126.31579 L 158.3158 126.31579 L 158.3158 125.47369 L 158.3158 125.47369 L 158.3158 125.47369 L 158.3158 125.47369 L 158.3158 125.47369 L 157.47368 125.47369 L 157.47368 125.47369 L 157.47368 125.47369 L 157.47368 125.47369 L 157.47368 125.47369 L 157.47368 124.63158 L 157.47368 124.63158 L 157.47368 124.63158 L 157.47368 124.63158 L 157.47368 124.63158 L 156.63158 124.63158 L 156.63158 124.63158 L 156.63158 124.63158 L 156.63158 124.63158 L 156.63158 124.63158 L 156.63158 123.789474 L 156.63158 123.789474 L 156.63158 123.789474 L 156.63158 123.789474 L 156.63158 123.789474 L 155.78947 123.789474 L 155.78947 123.789474 L 155.78947 123.789474 L 155.78947 123.789474 L 155.78947 123.789474 L 155.78947 122.947365 L 155.78947 122.947365 L 155.78947 122.947365 L 155.78947 122.947365 L 155.78947 122.947365 L 154.94737 122.947365 L 154.94737 122.947365 L 154.94737 122.947365 L 154.94737 122.947365 L 154.94737 122.947365 L 154.94737 122.10526 L 154.94737 122.10526 L 154.94737 122.10526 L 154.94737 122.10526 L 154.94737 122.10526 L 154.10527 122.10526 L 154.10527 122.10526 L 154.10527 122.10526 L 154.10527 122.10526 L 154.10527 122.10526 L 154.10527 121.26316 L 154.10527 121.26316 L 154.10527 121.26316 L 154.10527 121.26316 L 154.10527 121.26316 L 153.26315 121.26316 L 153.26315 121.26316 L 153.26315 121.26316 L 153.26315 121.26316 L 153.26315 121.26316 L 153.26315 120.42105 L 153.26315 120.42105 L 153.26315 120.42105 L 153.26315 120.42105 L 153.26315 120.42105 L 152.42105 120.42105 L 152.42105 120.42105 L 152.42105 120.42105 L 152.42105 120.42105 L 152.42105 120.42105 L 152.42105 119.57895 L 152.42105 119.57895 L 152.42105 119.57895 L 152.42105 119.57895 L 152.42105 119.57895 L 151.57895 119.57895 L 151.57895 119.57895 L 151.57895 119.57895 L 151.57895 119.57895 L 151.57895 119.57895 L 151.57895 118.73684 L 151.57895 118.73684 L 151.57895 118.73684 L 151.57895 118.73684 L 151.57895 118.73684 L 150.73685 118.73684 L 150.73685 118.73684 L 150.73685 118.73684 L 150.73685 118.73684 L 150.73685 118.73684 L 150.73685 117.89474 L 150.73685 117.89474 L 150.73685 117.89474 L 150.73685 117.89474 L 150.73685 117.89474 L 149.89473 117.89474 L 149.89473 117.89474 L 149.89473 117.89474 L 149.89473 117.89474 L 149.89473 117.89474 L 149.89473 117.052635 L 149.89473 117.052635 L 149.89473 117.052635 L 149.89473 117.052635 L 149.89473 117.052635 L 149.05263 117.052635 L 149.05263 117.052635 L 149.05263 117.052635 L 149.05263 117.052635 L 149.05263 117.052635 L 149.05263 116.210526 L 149.05263 116.210526 L 149.05263 116.210526 L 149.05263 116.210526 L 149.05263 116.210526 L 148.21053 116.210526 L 148.21053 116.210526 L 148.21053 116.210526 L 148.21053 116.210526 L 148.21053 116.210526 L 148.21053 115.36842 L 148.21053 115.36842 L 148.21053 115.36842 L 148.21053 115.36842 L 148.21053 115.36842 L 147.36842 115.36842 L 147.36842 115.36842 L 147.36842 115.36842 L 147.36842 115.36842 L 128 95.1579 L 128 95.1579 Z M 262.73685 116.210526 L 323.3684 76.63158 L 444.6316 155.78947 L 444.6316 252.63158 L 448 254.3158 L 448 254.3158 L 448 254.3158 Q 448 254.3158 448 255.1579 Q 461.4737 264.42105 471.57895 270.3158 L 471.57895 173.47368 L 490.94736 186.10527 L 506.10526 164.21053 L 330.94736 49.68421 L 323.3684 44.63158 L 315.78946 49.68421 L 251.78947 91.789474 Q 258.5263 103.57895 262.73685 116.210526 L 262.73685 116.210526 Z M 188.63158 350.3158 Q 161.6842 348.6316 139.78947 332.6316 Q 122.10526 320 107.789474 304 Q 93.47369 320 75.789474 332.6316 Q 53.894737 348.6316 26.947369 350.3158 L 26.947369 377.26315 Q 46.31579 377.26315 62.31579 369.6842 Q 79.1579 362.94736 90.947365 354.5263 Q 101.052635 347.78946 107.789474 341.89474 Q 114.52631 347.78946 124.63158 354.5263 Q 136.42105 362.94736 153.26315 369.6842 Q 169.26315 377.26315 188.63158 377.26315 Q 208 377.26315 224 369.6842 Q 240.8421 362.94736 252.63158 354.5263 Q 262.73685 347.78946 269.4737 341.89474 Q 276.21054 347.78946 286.3158 354.5263 Q 298.10526 362.94736 314.94736 369.6842 Q 330.94736 377.26315 350.3158 377.26315 Q 369.6842 377.26315 385.6842 369.6842 Q 402.5263 362.94736 414.3158 354.5263 Q 424.42105 347.78946 431.1579 341.89474 Q 437.89474 347.78946 448 354.5263 Q 459.78946 362.94736 476.6316 369.6842 Q 492.6316 377.26315 512 377.26315 L 512 350.3158 Q 485.05264 348.6316 463.1579 332.6316 Q 445.4737 320 431.1579 304 Q 416.8421 320 399.1579 332.6316 Q 377.26315 348.6316 350.3158 350.3158 Q 323.3684 348.6316 301.4737 332.6316 Q 283.78946 320 269.4737 304 Q 255.1579 320 237.47368 332.6316 Q 215.57895 348.6316 188.63158 350.3158 L 188.63158 350.3158 Z M 139.78947 426.94736 Q 122.10526 414.3158 107.789474 398.3158 Q 93.47369 414.3158 75.789474 426.94736 Q 53.894737 442.94736 26.947369 444.6316 L 26.947369 471.57895 Q 46.31579 471.57895 62.31579 464 Q 79.1579 457.26315 90.947365 448.8421 Q 101.052635 442.10526 107.789474 436.21054 Q 114.52631 442.10526 124.63158 448.8421 Q 136.42105 457.26315 153.26315 464 Q 169.26315 471.57895 188.63158 471.57895 Q 208 471.57895 224 464 Q 240.8421 457.26315 252.63158 448.8421 Q 262.73685 442.10526 269.4737 436.21054 Q 276.21054 442.10526 286.3158 448.8421 Q 298.10526 457.26315 314.94736 464 Q 330.94736 471.57895 350.3158 471.57895 Q 369.6842 471.57895 385.6842 464 Q 402.5263 457.26315 414.3158 448.8421 Q 424.42105 442.10526 431.1579 436.21054 Q 437.89474 442.10526 448 448.8421 Q 459.78946 457.26315 476.6316 464 Q 492.6316 471.57895 512 471.57895 L 512 444.6316 Q 485.05264 442.94736 463.1579 426.94736 Q 445.4737 414.3158 431.1579 398.3158 Q 416.8421 414.3158 399.1579 426.94736 Q 377.26315 442.94736 350.3158 444.6316 Q 323.3684 442.94736 301.4737 426.94736 Q 283.78946 414.3158 269.4737 398.3158 Q 255.1579 414.3158 237.47368 426.94736 Q 215.57895 442.94736 188.63158 444.6316 Q 161.6842 442.94736 139.78947 426.94736 L 139.78947 426.94736 Z" />
</svg>