<svg xmlns="http://www.w3.org/2000/svg" viewBox="0 0 512 512">
  <path d="M 16 16 L 496 16 L 16 16 L 496 16 L 496 496 L 496 496 L 16 496 L 16 496 L 16 304 L 16 304 Q 40 305 56 320 Q 71 336 72 360 L 72 392 L 72 392 Q 73 416 88 432 Q 104 447 128 448 Q 152 447 168 432 Q 183 416 184 392 L 184 352 L 184 352 L 224 352 L 240 352 L 240 336 L 240 336 L 240 240 L 240 240 L 240 224 L 240 224 L 224 224 L 112 224 L 112 240 L 112 240 L 112 336 L 112 336 L 112 352 L 112 352 L 128 352 L 168 352 L 168 392 L 168 392 Q 168 409 156 420 Q 145 432 128 432 Q 111 432 100 420 Q 88 409 88 392 L 88 360 L 88 360 Q 87 329 67 309 Q 47 289 16 288 L 16 16 L 16 16 Z M 0 296 L 0 496 L 0 296 L 0 496 L 0 512 L 0 512 L 16 512 L 512 512 L 512 496 L 512 496 L 512 16 L 512 16 L 512 0 L 512 0 L 496 0 L 0 0 L 0 16 L 0 16 L 0 296 L 0 296 Z M 96 80 L 88 80 L 96 80 L 88 80 L 88 96 L 88 96 L 96 96 L 232 96 L 232 80 L 232 80 L 224 80 L 96 80 Z M 288 80 L 280 80 L 288 80 L 280 80 L 280 96 L 280 96 L 288 96 L 424 96 L 424 80 L 424 80 L 416 80 L 288 80 Z M 96 144 L 88 144 L 96 144 L 88 144 L 88 160 L 88 160 L 96 160 L 232 160 L 232 144 L 232 144 L 224 144 L 96 144 Z M 288 144 L 280 144 L 288 144 L 280 144 L 280 160 L 280 160 L 288 160 L 424 160 L 424 144 L 424 144 L 416 144 L 288 144 Z M 224 336 L 176 336 L 224 336 L 128 336 L 128 240 L 128 240 L 224 240 L 224 240 L 224 336 L 224 336 Z M 304 240 L 400 240 L 304 240 L 400 240 L 400 432 L 400 432 L 304 432 L 304 432 L 304 240 L 304 240 Z M 288 224 L 288 240 L 288 224 L 288 240 L 288 432 L 288 432 L 288 448 L 288 448 L 304 448 L 416 448 L 416 432 L 416 432 L 416 240 L 416 240 L 416 224 L 416 224 L 400 224 L 288 224 Z" />
</svg>