<svg xmlns="http://www.w3.org/2000/svg" viewBox="0 0 640 512">
  <path d="M 320 16 Q 347 17 362 40 Q 374 64 362 88 Q 347 111 320 112 Q 293 111 278 88 Q 266 64 278 40 Q 293 17 320 16 L 320 16 Z M 320 128 Q 356 127 375 96 Q 393 64 375 32 Q 356 1 320 0 Q 284 1 265 32 Q 247 64 265 96 Q 284 127 320 128 L 320 128 Z M 268 176 L 372 176 L 268 176 L 372 176 L 427 368 L 427 368 L 384 368 L 213 368 L 268 176 L 268 176 Z M 312 384 L 328 384 L 312 384 L 328 384 L 328 504 L 328 504 L 328 512 L 328 512 L 336 512 L 392 512 L 392 504 L 392 504 L 392 384 L 392 384 L 431 384 L 448 384 L 443 368 L 443 368 L 384 160 L 384 160 L 256 160 L 256 160 L 197 368 L 197 368 L 192 384 L 192 384 L 209 384 L 248 384 L 248 504 L 248 504 L 248 512 L 248 512 L 256 512 L 312 512 L 312 504 L 312 504 L 312 384 L 312 384 Z M 376 496 L 344 496 L 376 496 L 344 496 L 344 384 L 344 384 L 376 384 L 376 384 L 376 496 L 376 496 Z M 296 384 L 296 496 L 296 384 L 296 496 L 264 496 L 264 496 L 264 384 L 264 384 L 296 384 L 296 384 Z M 35 32 L 8 32 L 35 32 L 0 32 L 0 40 L 0 40 L 0 112 L 0 112 Q 1 178 28 233 Q 56 288 104 326 Q 65 378 64 448 L 64 472 L 64 472 L 64 480 L 64 480 L 72 480 L 112 480 Q 169 479 216 452 L 216 434 L 216 434 Q 170 463 112 464 L 80 464 L 80 464 L 80 448 L 80 448 Q 81 384 117 335 L 121 329 L 121 329 L 126 323 L 126 323 L 120 318 L 120 318 L 114 313 L 114 313 Q 68 277 43 226 Q 17 174 16 112 L 16 48 L 16 48 L 35 48 L 35 48 Q 93 48 143 71 Q 193 93 231 132 L 236 115 L 236 115 Q 197 76 145 54 Q 94 32 35 32 L 35 32 Z M 528 464 Q 470 463 424 433 L 424 452 L 424 452 Q 471 479 528 480 L 568 480 L 576 480 L 576 472 L 576 472 L 576 448 L 576 448 Q 575 378 536 326 Q 584 288 612 233 Q 639 178 640 112 L 640 40 L 640 40 L 640 32 L 640 32 L 632 32 L 605 32 Q 546 32 495 54 Q 443 76 404 115 L 409 132 L 409 132 Q 447 93 497 71 Q 547 48 605 48 L 624 48 L 624 48 L 624 112 L 624 112 Q 623 174 598 226 Q 572 277 526 313 L 520 318 L 520 318 L 514 323 L 514 323 L 519 329 L 519 329 L 523 335 L 523 335 Q 559 384 560 448 L 560 464 L 560 464 L 528 464 L 528 464 Z" />
</svg>