<svg xmlns="http://www.w3.org/2000/svg" viewBox="0 0 576 480">
  <path d="M 512 112 L 560 112 L 512 112 L 560 112 L 560 16 L 560 16 L 512 16 L 512 16 L 512 112 L 512 112 Z M 512 128 L 512 160 L 512 128 L 512 160 L 560 160 L 560 160 L 560 128 L 560 128 L 512 128 L 512 128 Z M 512 335 Q 511 369 488 392 L 488 392 L 488 392 Q 465 415 431 416 Q 401 415 379 397 Q 358 379 352 350 L 347 323 L 347 323 L 299 332 L 299 332 L 304 359 L 304 359 Q 314 405 349 434 Q 383 463 431 464 Q 486 463 522 426 Q 559 390 560 335 L 560 176 L 560 176 L 512 176 L 512 176 L 512 335 L 512 335 Z M 496 335 L 496 16 L 496 335 L 496 16 L 496 0 L 496 0 L 512 0 L 576 0 L 576 16 L 576 16 L 576 335 L 576 335 Q 574 397 534 438 Q 493 478 431 480 Q 378 479 339 447 Q 299 414 289 362 L 284 335 L 284 335 L 281 319 L 281 319 L 297 316 L 297 316 L 344 308 L 344 308 L 359 305 L 359 305 L 362 320 L 362 320 L 367 347 L 367 347 Q 372 370 390 385 Q 407 400 431 400 Q 459 399 477 381 Q 495 363 496 335 L 496 335 Z M 256 256 L 238 192 L 256 256 L 238 192 L 210 192 L 210 192 L 192 256 L 192 256 L 16 256 L 0 256 L 0 240 L 0 240 L 0 48 L 0 48 L 0 32 L 0 32 L 16 32 L 448 32 L 448 48 L 448 48 L 448 240 L 448 240 L 448 256 L 448 256 L 432 256 L 256 256 Z M 195 188 L 198 176 L 195 188 L 198 176 L 210 176 L 250 176 L 253 188 L 253 188 L 268 240 L 268 240 L 432 240 L 432 240 L 432 48 L 432 48 L 16 48 L 16 48 L 16 240 L 16 240 L 180 240 L 180 240 L 195 188 L 195 188 Z" />
</svg>