<svg xmlns="http://www.w3.org/2000/svg" viewBox="0 0 640 508">
  <path d="M 320 0 L 326 7 L 320 0 L 326 7 Q 363 51 403 76 Q 442 102 505 108 L 513 109 L 513 109 L 511 125 L 511 125 L 503 124 L 503 124 Q 491 123 480 121 L 480 172 L 480 172 L 515 203 L 515 203 Q 544 228 582 237 L 608 244 L 608 244 L 608 252 L 608 252 L 608 268 L 608 268 L 592 268 L 544 268 L 544 316 L 544 316 L 569 350 L 569 350 Q 592 380 626 397 L 640 404 L 640 404 L 640 412 L 640 412 L 640 428 L 640 428 L 624 428 L 576 428 L 576 500 L 576 500 L 576 508 L 576 508 L 560 508 L 560 508 L 560 500 L 560 500 L 560 428 L 560 428 L 416 428 L 416 428 L 416 500 L 416 500 L 416 508 L 416 508 L 400 508 L 400 508 L 400 500 L 400 500 L 400 428 L 400 428 L 240 428 L 240 428 L 240 500 L 240 500 L 240 508 L 240 508 L 224 508 L 224 508 L 224 500 L 224 500 L 224 428 L 224 428 L 80 428 L 80 428 L 80 500 L 80 500 L 80 508 L 80 508 L 64 508 L 64 508 L 64 500 L 64 500 L 64 428 L 64 428 L 16 428 L 0 428 L 0 412 L 0 412 L 0 404 L 0 404 L 14 397 L 14 397 Q 48 380 71 350 L 96 316 L 96 316 L 96 268 L 96 268 L 48 268 L 32 268 L 32 252 L 32 252 L 32 244 L 32 244 L 59 237 L 59 237 Q 96 228 125 203 L 160 172 L 160 172 L 160 120 L 160 120 Q 149 123 137 124 L 129 125 L 129 125 L 127 109 L 127 109 L 135 108 L 135 108 Q 238 95 314 7 L 320 0 L 320 0 Z M 104 332 L 84 359 L 104 332 L 84 359 Q 58 392 21 411 L 20 412 L 20 412 L 72 412 L 620 412 L 619 411 L 619 411 Q 582 393 557 359 L 536 332 L 536 332 L 104 332 L 104 332 Z M 528 316 L 528 268 L 528 316 L 528 268 L 112 268 L 112 268 L 112 316 L 112 316 L 528 316 L 528 316 Z M 464 118 Q 424 109 394 90 Q 355 64 320 24 Q 258 93 176 117 L 176 172 L 176 172 L 464 172 L 464 172 L 464 118 L 464 118 Z M 574 252 Q 535 241 504 215 L 474 188 L 474 188 L 472 188 L 166 188 L 136 215 L 136 215 Q 105 241 66 252 L 104 252 L 574 252 Z" />
</svg>