<svg xmlns="http://www.w3.org/2000/svg" viewBox="0 0 576 416">
  <path d="M 352 168 L 352 72 L 352 168 L 352 72 L 352 8 L 352 8 L 352 0 L 352 0 L 360 0 L 464 0 L 464 8 L 464 8 L 464 72 L 464 72 L 464 80 L 464 80 L 456 80 L 368 80 L 368 168 L 368 168 L 368 176 L 368 176 L 352 176 L 352 176 L 352 168 L 352 168 Z M 448 64 L 448 16 L 448 64 L 448 16 L 368 16 L 368 16 L 368 64 L 368 64 L 448 64 L 448 64 Z M 560 176 Q 560 140 542 111 L 542 111 L 542 111 Q 525 82 496 65 L 496 47 L 496 47 Q 532 65 554 99 Q 575 133 576 176 L 576 400 L 576 400 L 576 416 L 576 416 L 560 416 L 0 416 L 0 400 L 0 400 L 0 176 L 0 176 Q 2 115 42 74 Q 83 34 144 32 L 320 32 L 320 32 L 320 48 L 320 48 L 210 48 L 210 48 Q 245 66 266 100 Q 287 134 288 176 L 288 400 L 288 400 L 560 400 L 560 400 L 560 176 L 560 176 Z M 272 400 L 272 176 L 272 400 L 272 176 Q 271 122 235 85 Q 198 49 144 48 Q 90 49 53 85 Q 17 122 16 176 L 16 400 L 16 400 L 272 400 L 272 400 Z M 64 160 L 72 160 L 64 160 L 224 160 L 224 176 L 224 176 L 216 176 L 64 176 L 64 160 L 64 160 Z" />
</svg>