<svg xmlns="http://www.w3.org/2000/svg" viewBox="0 0 496 496">
  <path d="M 208 0 L 200 0 L 208 0 L 200 0 L 200 16 L 200 16 L 208 16 L 240 16 L 240 64 L 240 64 Q 171 68 124 112 L 90 78 L 90 78 Q 90 78 90 78 Q 90 78 90 78 L 112 56 L 112 56 L 118 50 L 118 50 L 107 39 L 107 39 L 101 44 L 101 44 L 44 101 L 44 101 L 39 107 L 39 107 L 50 118 L 50 118 L 56 112 L 56 112 L 78 90 L 78 90 Q 78 90 78 90 Q 78 90 78 90 L 112 124 L 112 124 Q 68 171 64 240 L 16 240 L 16 240 L 16 208 L 16 208 L 16 200 L 16 200 L 0 200 L 0 200 L 0 208 L 0 208 L 0 288 L 0 288 L 0 296 L 0 296 L 16 296 L 16 296 L 16 288 L 16 288 L 16 256 L 16 256 L 64 256 L 64 256 Q 68 325 112 372 L 78 406 L 78 406 Q 78 406 78 406 Q 78 406 78 406 L 56 384 L 56 384 L 50 378 L 50 378 L 39 389 L 39 389 L 44 395 L 44 395 L 101 452 L 101 452 L 107 457 L 107 457 L 118 446 L 118 446 L 112 440 L 112 440 L 90 418 L 90 418 Q 90 418 90 418 Q 90 418 90 418 L 124 384 L 124 384 Q 171 428 240 432 L 240 480 L 240 480 L 208 480 L 200 480 L 200 496 L 200 496 L 208 496 L 296 496 L 296 480 L 296 480 L 288 480 L 256 480 L 256 432 L 256 432 Q 325 428 372 384 L 406 418 L 406 418 Q 406 418 406 418 Q 406 418 406 418 L 384 440 L 384 440 L 378 446 L 378 446 L 389 457 L 389 457 L 395 452 L 395 452 L 452 395 L 452 395 L 457 389 L 457 389 L 446 378 L 446 378 L 440 384 L 440 384 L 418 406 L 418 406 Q 418 406 418 406 Q 418 406 418 406 L 384 372 L 384 372 Q 428 325 432 256 L 480 256 L 480 256 L 480 288 L 480 288 L 480 296 L 480 296 L 496 296 L 496 296 L 496 288 L 496 288 L 496 208 L 496 208 L 496 200 L 496 200 L 480 200 L 480 200 L 480 208 L 480 208 L 480 240 L 480 240 L 432 240 L 432 240 Q 428 171 384 124 L 418 90 L 418 90 Q 418 90 418 90 L 440 112 L 440 112 L 446 118 L 446 118 L 457 107 L 457 107 L 452 101 L 452 101 L 395 44 L 395 44 L 389 39 L 389 39 L 378 50 L 378 50 L 384 56 L 384 56 L 406 78 L 406 78 Q 406 78 406 78 Q 406 78 406 78 L 372 112 L 372 112 Q 325 68 256 64 L 256 16 L 256 16 L 288 16 L 296 16 L 296 0 L 296 0 L 288 0 L 208 0 Z M 248 80 Q 294 80 332 103 L 332 103 L 332 103 Q 370 125 393 164 Q 416 204 416 248 Q 416 292 393 332 Q 370 371 332 393 Q 294 416 248 416 Q 202 416 164 393 Q 126 371 103 332 Q 80 292 80 248 Q 80 204 103 164 Q 126 125 164 103 Q 202 80 248 80 L 248 80 Z M 184 184 Q 198 184 207 193 L 207 193 L 207 193 Q 216 202 216 216 Q 216 230 207 239 Q 198 248 184 248 Q 170 248 161 239 Q 152 230 152 216 Q 152 202 161 193 Q 170 184 184 184 L 184 184 Z M 184 264 Q 211 263 226 240 Q 238 216 226 192 Q 211 169 184 168 Q 157 169 142 192 Q 130 216 142 240 Q 157 263 184 264 L 184 264 Z M 296 312 Q 311 311 312 296 Q 311 281 296 280 Q 281 281 280 296 Q 281 311 296 312 L 296 312 Z" />
</svg>