<svg xmlns="http://www.w3.org/2000/svg" viewBox="0 0 448 512">
  <path d="M 16 8 L 16 0 L 16 8 L 16 0 L 0 0 L 0 0 L 0 8 L 0 8 L 0 32 L 0 32 L 0 48 L 0 48 L 0 336 L 0 336 L 0 352 L 0 352 L 0 504 L 0 504 L 0 512 L 0 512 L 16 512 L 16 512 L 16 504 L 16 504 L 16 352 L 16 352 L 429 352 L 448 352 L 437 336 L 437 336 L 336 192 L 336 192 L 437 48 L 437 48 L 448 32 L 448 32 L 429 32 L 16 32 L 16 8 L 16 8 Z M 16 48 L 417 48 L 16 48 L 417 48 L 323 183 L 323 183 L 317 192 L 317 192 L 323 201 L 323 201 L 417 336 L 417 336 L 16 336 L 16 336 L 16 48 L 16 48 Z" />
</svg>