<svg xmlns="http://www.w3.org/2000/svg" viewBox="0 0 384 512">
  <path d="M 16 496 L 16 16 L 16 496 L 16 16 L 368 16 L 368 16 L 368 496 L 368 496 L 16 496 L 16 496 Z M 0 512 L 16 512 L 0 512 L 384 512 L 384 496 L 384 496 L 384 16 L 384 16 L 384 0 L 384 0 L 368 0 L 0 0 L 0 16 L 0 16 L 0 496 L 0 496 L 0 512 L 0 512 Z M 272 248 L 112 248 L 272 248 L 112 248 L 112 112 L 112 112 L 272 112 L 272 112 L 272 248 L 272 248 Z M 112 264 L 272 264 L 112 264 L 272 264 L 272 400 L 272 400 L 112 400 L 112 400 L 112 264 L 112 264 Z M 96 416 L 112 416 L 96 416 L 288 416 L 288 400 L 288 400 L 288 112 L 288 112 L 288 96 L 288 96 L 272 96 L 96 96 L 96 112 L 96 112 L 96 400 L 96 400 L 96 416 L 96 416 Z M 192 440 Q 177 441 176 456 Q 177 471 192 472 Q 207 471 208 456 Q 207 441 192 440 L 192 440 Z M 192 40 Q 177 41 176 56 Q 177 71 192 72 Q 207 71 208 56 Q 207 41 192 40 L 192 40 Z M 152 352 L 152 304 L 152 352 L 152 304 L 232 304 L 232 304 L 232 352 L 232 352 L 152 352 L 152 352 Z M 136 368 L 152 368 L 136 368 L 248 368 L 248 352 L 248 352 L 248 304 L 248 304 L 248 288 L 248 288 L 232 288 L 136 288 L 136 304 L 136 304 L 136 352 L 136 352 L 136 368 L 136 368 Z" />
</svg>