<svg xmlns="http://www.w3.org/2000/svg" viewBox="0 0 576 512">
  <path d="M 144 0 L 304 0 L 144 0 L 304 0 L 320 32 L 320 32 L 448 32 L 448 32 L 448 96 L 448 96 L 0 96 L 0 96 L 0 32 L 0 32 L 128 32 L 128 32 L 144 0 L 144 0 Z M 32 128 L 416 128 L 32 128 L 416 128 L 416 193 L 416 193 Q 372 197 336 220 L 336 208 L 336 208 L 336 192 L 336 192 L 304 192 L 304 192 L 304 208 L 304 208 L 304 247 L 304 247 Q 258 296 256 368 Q 256 413 276 450 Q 296 488 331 512 L 32 512 L 32 512 L 32 128 L 32 128 Z M 144 192 L 112 192 L 144 192 L 112 192 L 112 208 L 112 208 L 112 432 L 112 432 L 112 448 L 112 448 L 144 448 L 144 448 L 144 432 L 144 432 L 144 208 L 144 208 L 144 192 L 144 192 Z M 240 192 L 208 192 L 240 192 L 208 192 L 208 208 L 208 208 L 208 432 L 208 432 L 208 448 L 208 448 L 240 448 L 240 448 L 240 432 L 240 432 L 240 208 L 240 208 L 240 192 L 240 192 Z M 288 368 Q 288 329 307 296 L 307 296 L 307 296 Q 326 263 360 243 Q 394 224 432 224 Q 470 224 504 243 Q 538 263 557 296 Q 576 329 576 368 Q 576 407 557 440 Q 538 473 504 493 Q 470 512 432 512 Q 394 512 360 493 Q 326 473 307 440 Q 288 407 288 368 L 288 368 Z M 448 288 L 416 288 L 448 288 L 416 288 L 416 304 L 416 304 L 416 368 L 416 368 L 416 384 L 416 384 L 432 384 L 496 384 L 496 352 L 496 352 L 480 352 L 448 352 L 448 304 L 448 304 L 448 288 L 448 288 Z" />
</svg>