<svg xmlns="http://www.w3.org/2000/svg" viewBox="0 0 576 512">
  <path d="M 0 464 L 64 384 L 0 464 L 64 384 L 64 288 L 64 288 Q 65 207 94 142 Q 123 77 173 39 Q 223 1 288 0 L 457 0 L 480 0 L 464 16 L 464 16 L 419 61 L 419 61 L 407 73 L 407 73 Q 414 77 420 82 Q 462 115 487 167 Q 511 219 512 288 L 512 384 L 512 384 L 576 464 L 576 464 L 576 496 L 576 496 L 576 512 L 576 512 L 560 512 L 0 512 L 0 496 L 0 496 L 0 464 L 0 464 Z M 288 16 Q 199 18 141 94 L 141 94 L 141 94 Q 82 169 80 288 L 80 384 L 80 384 L 80 390 L 80 390 L 77 394 L 77 394 L 16 470 L 16 470 L 16 496 L 16 496 L 160 496 L 160 496 L 160 320 L 160 320 Q 161 266 197 229 Q 234 193 288 192 Q 342 193 379 229 Q 415 266 416 320 L 416 496 L 416 496 L 560 496 L 560 496 L 560 470 L 560 470 L 500 394 L 500 394 L 496 390 L 496 390 L 496 384 L 496 384 L 496 288 L 496 288 Q 495 218 469 167 Q 442 116 398 86 L 382 75 L 382 75 L 396 61 L 396 61 L 441 16 L 441 16 L 288 16 L 288 16 Z M 176 496 L 400 496 L 176 496 L 400 496 L 400 320 L 400 320 Q 399 272 367 241 Q 336 209 288 208 Q 240 209 209 241 Q 177 272 176 320 L 176 496 L 176 496 Z" />
</svg>