<svg xmlns="http://www.w3.org/2000/svg" viewBox="0 0 576 448">
  <path d="M 16 16 L 16 80 L 16 16 L 16 80 L 560 80 L 560 80 L 560 16 L 560 16 L 16 16 L 16 16 Z M 16 96 L 16 432 L 16 96 L 16 432 L 560 432 L 560 432 L 560 96 L 560 96 L 16 96 L 16 96 Z M 0 0 L 16 0 L 0 0 L 576 0 L 576 16 L 576 16 L 576 432 L 576 432 L 576 448 L 576 448 L 560 448 L 0 448 L 0 432 L 0 432 L 0 16 L 0 16 L 0 0 L 0 0 Z M 192 256 Q 219 255 234 232 Q 246 208 234 184 Q 219 161 192 160 Q 165 161 150 184 Q 138 208 150 232 Q 165 255 192 256 L 192 256 Z M 192 144 Q 228 145 247 176 Q 265 208 247 240 Q 228 271 192 272 Q 156 271 137 240 Q 119 208 137 176 Q 156 145 192 144 L 192 144 Z M 102 384 L 85 384 L 102 384 L 85 384 L 112 304 L 112 304 L 272 304 L 272 304 L 299 384 L 299 384 L 282 384 L 282 384 L 261 320 L 261 320 L 124 320 L 124 320 L 102 384 L 102 384 Z M 352 192 L 360 192 L 352 192 L 512 192 L 512 208 L 512 208 L 504 208 L 352 208 L 352 192 L 352 192 Z M 352 256 L 360 256 L 352 256 L 512 256 L 512 272 L 512 272 L 504 272 L 352 272 L 352 256 L 352 256 Z M 352 320 L 360 320 L 352 320 L 512 320 L 512 336 L 512 336 L 504 336 L 352 336 L 352 320 L 352 320 Z" />
</svg>