<svg xmlns="http://www.w3.org/2000/svg" viewBox="0 0 448 512">
  <path d="M 192 16 L 288 16 L 192 16 L 288 16 Q 302 16 311 25 Q 320 34 320 48 Q 320 62 311 71 Q 302 80 288 80 L 192 80 L 192 80 L 192 16 L 192 16 Z M 176 0 L 176 16 L 176 0 L 176 16 L 176 40 L 176 40 L 168 40 L 168 40 Q 137 41 117 61 Q 97 81 96 112 L 96 160 L 96 160 L 8 160 L 0 160 L 0 176 L 0 176 L 8 176 L 448 176 L 448 160 L 448 160 L 440 160 L 112 160 L 112 112 L 112 112 Q 113 88 128 72 Q 144 57 168 56 L 176 56 L 176 56 L 176 80 L 176 80 L 176 96 L 176 96 L 192 96 L 288 96 Q 308 95 322 82 Q 335 68 336 48 Q 335 28 322 14 Q 308 1 288 0 L 192 0 L 176 0 Z M 46 208 L 80 512 L 46 208 L 80 512 L 368 512 L 368 512 L 403 208 L 403 208 L 386 208 L 386 208 L 354 496 L 354 496 L 94 496 L 94 496 L 62 208 L 62 208 L 46 208 L 46 208 Z M 231 237 L 224 221 L 231 237 L 224 221 L 217 237 L 217 237 L 189 296 L 189 296 L 124 304 L 124 304 L 107 306 L 107 306 L 120 318 L 120 318 L 168 362 L 168 362 L 155 427 L 155 427 L 152 444 L 152 444 L 167 435 L 167 435 L 224 403 L 224 403 L 281 435 L 281 435 L 296 444 L 296 444 L 293 427 L 293 427 L 280 362 L 280 362 L 328 318 L 328 318 L 341 306 L 341 306 L 324 304 L 324 304 L 259 296 L 259 296 L 231 237 L 231 237 Z M 202 307 L 224 259 L 202 307 L 224 259 L 246 307 L 246 307 L 248 311 L 248 311 L 252 312 L 252 312 L 305 318 L 305 318 L 266 354 L 266 354 L 263 357 L 263 357 L 264 361 L 264 361 L 274 413 L 274 413 L 228 387 L 228 387 L 224 385 L 224 385 L 220 387 L 220 387 L 174 413 L 174 413 L 184 361 L 184 361 L 185 357 L 185 357 L 182 354 L 182 354 L 143 318 L 143 318 L 196 312 L 196 312 L 200 311 L 200 311 L 202 307 L 202 307 Z" />
</svg>