<svg xmlns="http://www.w3.org/2000/svg" viewBox="0 0 512 512">
  <path d="M 329 485 Q 294 496 256 496 Q 189 495 135 463 Q 81 431 49 377 Q 17 323 16 256 Q 17 189 49 135 Q 81 81 135 49 Q 189 17 256 16 Q 323 17 377 49 Q 431 81 463 135 Q 495 189 496 256 Q 496 297 483 333 Q 491 336 498 339 Q 512 300 512 256 Q 511 184 477 127 Q 443 69 385 35 Q 328 1 256 0 Q 184 1 127 35 Q 69 69 35 127 Q 1 184 0 256 Q 1 328 35 385 Q 69 443 127 477 Q 184 511 256 512 Q 296 512 333 500 L 331 492 L 331 492 L 329 485 L 329 485 Z M 223 288 Q 223 288 223 288 L 223 288 L 223 288 Q 223 288 223 288 Q 223 288 223 288 Q 223 288 223 288 L 223 288 L 223 288 L 223 288 L 223 288 Q 223 288 224 288 Q 224 288 225 288 Q 226 289 227 289 Q 229 289 232 290 Q 241 292 253 297 Q 265 301 273 308 Q 280 314 280 320 Q 280 324 273 329 Q 266 334 254 338 Q 242 341 233 343 Q 228 343 226 344 Q 225 344 225 344 Q 224 344 224 344 L 223 344 L 223 344 L 223 344 L 223 344 Q 223 344 223 344 Q 223 344 223 344 Q 223 344 223 344 Q 223 344 223 344 Q 223 344 223 344 Q 223 344 223 344 Q 223 344 223 344 Q 223 344 223 344 L 223 360 L 223 360 Q 223 360 223 360 Q 223 360 223 360 Q 223 360 223 360 Q 223 360 223 360 L 223 360 L 223 360 L 224 360 L 224 360 Q 224 360 225 360 Q 225 360 226 360 Q 227 360 229 361 Q 231 361 233 361 Q 242 363 254 366 Q 266 369 273 375 Q 280 380 280 384 Q 280 391 273 398 Q 265 404 253 408 Q 241 413 232 414 Q 228 415 226 416 Q 226 416 226 416 Q 224 416 224 416 L 223 416 L 223 416 L 223 416 L 223 416 Q 223 416 223 416 Q 223 416 223 416 L 224 424 L 224 424 Q 225 434 225 432 Q 225 432 225 432 Q 225 432 225 432 Q 225 432 225 432 Q 225 432 225 432 Q 225 432 225 432 Q 225 432 225 432 L 225 432 L 225 432 L 226 432 L 226 432 Q 227 432 228 431 Q 231 431 236 430 Q 246 428 259 423 Q 272 419 283 410 Q 295 400 296 384 Q 295 369 283 362 Q 273 355 262 352 Q 273 348 283 342 Q 295 335 296 320 Q 295 304 283 296 Q 272 287 259 282 Q 246 277 236 275 Q 231 273 228 273 Q 228 273 227 272 Q 226 272 226 272 L 226 272 L 226 272 L 225 272 L 225 272 Q 225 272 225 272 Q 225 272 225 272 Q 225 272 225 272 Q 225 272 225 272 Q 225 272 225 272 Q 225 272 225 272 L 224 280 L 224 280 L 223 288 L 223 288 Z M 176 224 Q 191 223 192 208 Q 191 193 176 192 Q 162 193 160 208 Q 162 223 176 224 L 176 224 Z M 336 200 Q 359 199 377 228 L 381 235 L 381 235 L 395 227 L 395 227 L 391 220 L 391 220 Q 369 185 336 184 Q 302 185 281 220 L 277 227 L 277 227 L 291 235 L 291 235 L 295 228 L 295 228 Q 312 199 336 200 L 336 200 Z M 434 363 Q 428 344 413 334 L 413 334 L 413 334 Q 397 325 378 330 Q 359 336 350 352 Q 341 368 346 387 L 370 482 L 370 482 L 372 490 L 372 490 L 380 488 L 380 488 L 470 462 L 470 462 Q 489 456 498 440 Q 507 424 502 405 Q 497 385 481 376 Q 466 366 447 371 L 436 374 L 436 374 L 434 363 L 434 363 Z M 382 345 Q 394 342 404 348 L 404 348 L 404 348 Q 414 354 418 367 L 423 386 L 423 386 L 425 394 L 425 394 L 433 392 L 433 392 L 451 386 L 451 386 Q 463 383 473 390 Q 483 396 487 408 Q 490 422 484 432 Q 478 443 466 447 L 383 470 L 383 470 L 361 383 L 361 383 Q 358 370 364 359 Q 370 349 382 345 L 382 345 Z" />
</svg>