<svg xmlns="http://www.w3.org/2000/svg" viewBox="0 0 448 448">
  <path d="M 16 16 L 16 432 L 16 16 L 16 432 L 432 432 L 432 432 L 432 16 L 432 16 L 16 16 L 16 16 Z M 0 0 L 16 0 L 0 0 L 448 0 L 448 16 L 448 16 L 448 432 L 448 432 L 448 448 L 448 448 L 432 448 L 0 448 L 0 432 L 0 432 L 0 16 L 0 16 L 0 0 L 0 0 Z M 232 128 L 232 136 L 232 128 L 232 136 L 232 216 L 232 216 L 312 216 L 320 216 L 320 232 L 320 232 L 312 232 L 232 232 L 232 312 L 232 312 L 232 320 L 232 320 L 216 320 L 216 320 L 216 312 L 216 312 L 216 232 L 216 232 L 136 232 L 128 232 L 128 216 L 128 216 L 136 216 L 216 216 L 216 136 L 216 136 L 216 128 L 216 128 L 232 128 L 232 128 Z" />
</svg>