<svg xmlns="http://www.w3.org/2000/svg" viewBox="0 0 448 512">
  <path d="M 112 128 Q 113 80 145 49 L 145 49 L 145 49 Q 176 17 224 16 Q 263 17 292 39 Q 321 62 332 98 L 347 94 L 347 94 Q 335 52 302 27 Q 269 1 224 0 Q 170 1 133 37 Q 97 74 96 128 L 96 192 L 96 192 L 16 192 L 0 192 L 0 208 L 0 208 L 0 496 L 0 496 L 0 512 L 0 512 L 16 512 L 448 512 L 448 496 L 448 496 L 448 208 L 448 208 L 448 192 L 448 192 L 432 192 L 112 192 L 112 128 L 112 128 Z M 96 208 L 112 208 L 96 208 L 432 208 L 432 496 L 432 496 L 16 496 L 16 496 L 16 208 L 16 208 L 96 208 L 96 208 Z" />
</svg>