<svg xmlns="http://www.w3.org/2000/svg" viewBox="0 0 512 512">
  <path d="M 51.2 102.4 L 51.2 76.8 L 192 51.2 L 243.2 179.2 L 198.4 224 Q 200.8 228 204 232 L 183.2 248 Q 180 242.4 176.8 236.8 L 166.4 219.2 L 180.8 205.6 L 212.8 172.8 L 176 80 L 76.8 98.4 L 76.8 102.4 Q 78.4 207.2 132.8 288 L 112.8 304 Q 52.8 216 51.2 102.4 L 51.2 102.4 Z M 182.4 379.2 L 202.4 363.2 Q 245.6 397.6 298.4 416 Q 350.4 435.2 409.6 435.2 L 413.6 435.2 L 432 336 L 339.2 299.2 L 306.4 331.2 L 292.8 345.6 L 275.2 335.2 Q 264.8 329.6 254.4 322.4 L 276 305.6 Q 281.6 309.6 288 313.6 L 332.8 268.8 L 460.8 320 L 435.2 460.8 L 409.6 460.8 Q 344.8 460.8 286.4 439.2 Q 228.8 417.6 182.4 379.2 L 182.4 379.2 Z M 485.6 59.2 L 496 51.2 L 512 71.2 L 501.6 79.2 L 25.6 452.8 L 15.2 460.8 L 0 440.8 L 9.6 432.8 L 485.6 59.2 L 485.6 59.2 Z" />
</svg>