<svg xmlns="http://www.w3.org/2000/svg" viewBox="0 0 640 512">
  <path d="M 432 400 Q 514 398 568 344 L 568 344 L 568 344 Q 622 290 624 208 Q 622 126 568 72 Q 514 18 432 16 Q 390 16 353 33 Q 317 49 290 79 Q 282 75 274 73 Q 303 39 343 20 Q 384 0 432 0 Q 520 2 579 61 Q 638 120 640 208 Q 638 296 579 355 Q 520 414 432 416 Q 426 416 421 416 Q 425 408 428 400 Q 429 400 430 400 Q 431 400 432 400 L 432 400 Z M 338 79 L 390 77 L 338 79 L 390 77 L 432 48 L 432 48 L 475 77 L 475 77 L 526 79 L 526 79 L 543 127 L 543 127 L 584 159 L 584 159 L 570 208 L 570 208 L 584 257 L 584 257 L 543 289 L 543 289 L 526 337 L 526 337 L 475 339 L 475 339 L 441 362 L 441 362 Q 444 351 445 339 L 466 326 L 466 326 L 469 323 L 469 323 L 474 323 L 474 323 L 515 322 L 515 322 L 528 283 L 528 283 L 530 279 L 530 279 L 534 276 L 534 276 L 566 251 L 566 251 L 554 212 L 554 212 L 553 208 L 553 208 L 554 203 L 554 203 L 566 165 L 566 165 L 534 140 L 534 140 L 530 137 L 530 137 L 528 132 L 528 132 L 515 94 L 515 94 L 474 93 L 474 93 L 469 93 L 469 93 L 465 90 L 465 90 L 432 67 L 432 67 L 399 90 L 399 90 L 395 93 L 395 93 L 390 93 L 390 93 L 349 94 L 349 94 L 345 107 L 345 107 Q 338 102 331 98 L 338 79 L 338 79 Z M 496 208 Q 496 231 482 248 L 482 248 L 482 248 Q 468 265 446 271 Q 445 263 443 255 Q 459 251 470 238 Q 480 225 480 208 Q 480 188 466 174 Q 452 161 432 160 Q 417 160 406 168 Q 401 161 396 155 Q 412 144 432 144 Q 459 145 477 163 Q 496 181 496 208 L 496 208 Z M 400 304 Q 400 252 374 208 L 374 208 L 374 208 Q 349 164 304 138 Q 259 112 208 112 Q 157 112 112 138 Q 67 164 42 208 Q 16 252 16 304 Q 16 356 42 400 Q 67 444 112 470 Q 157 496 208 496 Q 259 496 304 470 Q 349 444 374 400 Q 400 356 400 304 L 400 304 Z M 0 304 Q 0 247 28 200 L 28 200 L 28 200 Q 55 153 104 124 Q 153 96 208 96 Q 263 96 312 124 Q 361 153 388 200 Q 416 247 416 304 Q 416 361 388 408 Q 361 455 312 484 Q 263 512 208 512 Q 153 512 104 484 Q 55 455 28 408 Q 0 361 0 304 L 0 304 Z M 144 208 L 128 192 L 144 208 L 128 192 L 144 176 L 144 176 L 160 192 L 160 192 L 144 208 L 144 208 Z M 304 240 L 320 224 L 304 240 L 320 224 L 336 240 L 336 240 L 320 256 L 320 256 L 304 240 L 304 240 Z M 96 400 L 112 384 L 96 400 L 112 384 L 128 400 L 128 400 L 112 416 L 112 416 L 96 400 L 96 400 Z M 224 432 L 240 416 L 224 432 L 240 416 L 256 432 L 256 432 L 240 448 L 240 448 L 224 432 L 224 432 Z M 304 416 L 288 400 L 304 416 L 288 400 L 304 384 L 304 384 L 320 400 L 320 400 L 304 416 L 304 416 Z M 64 272 L 80 256 L 64 272 L 80 256 L 96 272 L 96 272 L 80 288 L 80 288 L 64 272 L 64 272 Z M 144 304 Q 145 268 176 249 Q 208 231 240 249 Q 271 268 272 304 Q 271 340 240 359 Q 208 377 176 359 Q 145 340 144 304 L 144 304 Z M 208 352 Q 235 351 250 328 Q 262 304 250 280 Q 235 257 208 256 Q 181 257 166 280 Q 154 304 166 328 Q 181 351 208 352 L 208 352 Z" />
</svg>