<svg xmlns="http://www.w3.org/2000/svg" viewBox="0 0 448 512">
  <path d="M 400 80 L 400 48 L 400 80 L 400 48 L 224 0 L 224 0 L 48 48 L 48 48 L 48 80 L 48 80 L 80 99 L 80 99 L 80 144 L 80 144 Q 92 153 129 164 Q 166 175 224 176 Q 282 175 319 164 Q 356 153 368 144 L 368 99 L 368 99 L 400 80 L 400 80 Z M 352 99 L 352 135 L 352 99 L 352 135 Q 340 141 315 149 Q 289 156 253 159 Q 268 143 274 125 Q 280 106 280 91 L 280 86 L 280 86 L 275 84 L 275 84 L 227 65 L 227 65 L 224 63 L 224 63 L 221 65 L 221 65 L 173 84 L 173 84 L 168 86 L 168 86 L 168 91 L 168 91 Q 168 106 174 125 Q 180 143 195 159 Q 159 156 133 149 Q 108 141 96 135 L 96 99 L 96 99 L 96 90 L 96 90 L 88 85 L 88 85 L 64 71 L 64 71 L 64 60 L 64 60 L 224 17 L 224 17 L 384 60 L 384 60 L 384 71 L 384 71 L 360 86 L 360 86 L 352 90 L 352 90 L 352 99 L 352 99 Z M 208 459 L 224 432 L 208 459 L 224 432 L 240 459 L 240 459 L 234 467 L 234 467 L 224 480 L 224 480 L 214 467 L 214 467 L 208 459 L 208 459 Z M 197 445 L 128 352 L 197 445 L 128 352 L 48 352 L 48 352 L 5 496 L 5 496 L 0 512 L 0 512 L 17 512 L 448 512 L 443 496 L 443 496 L 400 352 L 400 352 L 320 352 L 320 352 L 251 445 L 251 445 L 234 416 L 234 416 L 271 365 L 271 365 L 280 352 L 280 352 L 264 352 L 169 352 L 178 365 L 178 365 L 215 416 L 215 416 L 198 445 L 197 445 Z M 248 368 L 225 402 L 248 368 L 225 402 L 224 401 L 224 401 L 223 402 L 223 402 L 200 368 L 200 368 L 248 368 L 248 368 Z M 237 490 L 328 368 L 237 490 L 328 368 L 388 368 L 388 368 L 427 496 L 427 496 L 232 496 L 232 496 L 237 490 L 237 490 Z M 211 490 L 216 496 L 211 490 L 216 496 L 22 496 L 22 496 L 60 368 L 60 368 L 120 368 L 120 368 L 211 490 L 211 490 Z M 96 192 Q 97 246 133 283 L 133 283 L 133 283 Q 170 319 224 320 Q 278 319 315 283 Q 351 246 352 192 Q 352 188 352 183 Q 344 187 336 190 Q 336 191 336 191 Q 336 191 336 192 Q 335 240 303 271 Q 272 303 224 304 Q 176 303 145 271 Q 113 240 112 192 Q 112 191 112 191 Q 112 191 112 190 Q 103 187 96 183 Q 96 188 96 192 L 96 192 Z M 224 159 Q 203 148 194 131 L 194 131 L 194 131 Q 185 113 184 97 L 224 81 L 224 81 L 264 97 L 264 97 Q 263 113 254 131 Q 245 148 224 159 L 224 159 Z" />
</svg>