<svg xmlns="http://www.w3.org/2000/svg" viewBox="0 0 510 512">
  <path d="M 224 176 L 16 176 L 224 176 L 16 176 L 16 184 L 16 184 Q 18 269 75 325 Q 131 382 216 384 Q 301 382 357 325 Q 414 269 416 184 L 416 104 L 416 104 Q 416 93 413 83 L 413 82 L 413 82 L 413 82 L 413 82 Q 405 53 382 35 Q 359 17 328 16 Q 291 17 266 42 Q 241 67 240 104 L 240 160 L 240 160 L 240 176 L 240 176 L 224 176 L 224 176 Z M 432 95 Q 432 99 432 104 L 432 161 L 432 161 L 482 128 L 482 128 L 432 95 L 432 95 Z M 432 180 L 432 184 L 432 180 L 432 184 Q 431 257 391 311 Q 350 366 285 389 L 357 512 L 357 512 L 339 512 L 339 512 L 269 393 L 269 393 Q 244 400 216 400 Q 207 400 198 399 L 262 512 L 262 512 L 243 512 L 243 512 L 178 397 L 178 397 Q 101 382 51 324 Q 2 266 0 184 L 0 176 L 0 176 L 0 160 L 0 160 L 16 160 L 224 160 L 224 144 L 224 144 L 224 104 L 224 104 Q 225 60 254 30 Q 284 1 328 0 Q 363 1 390 20 Q 417 40 427 73 L 428 73 L 428 73 L 500 121 L 500 121 L 510 128 L 510 128 L 500 135 L 500 135 L 432 180 L 432 180 Z M 320 112 Q 321 97 336 96 Q 351 97 352 112 Q 351 127 336 128 Q 321 127 320 112 L 320 112 Z" />
</svg>