<svg xmlns="http://www.w3.org/2000/svg" viewBox="0 0 437 492">
  <path d="M 250 122 L 193 162 L 250 122 L 193 162 L 233 224 L 233 224 L 312 224 L 327 224 L 337 236 L 337 236 L 417 332 L 417 332 L 427 344 L 427 344 L 437 356 L 437 356 L 425 366 L 425 366 L 400 387 L 400 387 L 388 397 L 388 397 L 378 385 L 378 385 L 367 372 L 367 372 L 297 288 L 297 288 L 239 288 L 220 288 L 231 304 L 231 304 L 312 431 L 312 431 L 321 444 L 321 444 L 330 457 L 330 457 L 317 466 L 317 466 L 290 484 L 290 484 L 276 492 L 276 492 L 268 479 L 268 479 L 259 465 L 259 465 L 120 251 L 120 251 L 104 226 L 104 226 L 104 256 L 104 256 L 104 336 L 104 336 L 104 352 L 104 352 L 104 368 L 104 368 L 88 368 L 40 368 L 40 352 L 40 352 L 40 336 L 40 336 L 40 208 L 40 208 L 40 191 L 40 191 L 54 182 L 54 182 L 200 79 L 200 79 L 200 16 L 200 16 L 200 0 L 200 0 L 216 0 L 264 0 L 264 16 L 264 16 L 264 96 L 264 96 L 264 113 L 264 113 L 250 122 L 250 122 Z M 312 240 L 233 240 L 312 240 L 225 240 L 220 233 L 220 233 L 180 171 L 180 171 L 171 158 L 171 158 L 184 149 L 184 149 L 241 109 L 241 109 L 248 104 L 248 104 L 248 96 L 248 96 L 248 16 L 248 16 L 216 16 L 216 16 L 216 79 L 216 79 L 216 88 L 216 88 L 209 92 L 209 92 L 90 176 L 90 176 Q 90 176 90 176 Q 90 176 90 176 L 88 177 L 88 177 Q 88 177 88 177 Q 88 177 88 177 L 63 195 L 63 195 L 56 200 L 56 200 L 56 208 L 56 208 L 56 336 L 56 336 L 56 352 L 56 352 Q 56 352 56 352 Q 56 352 56 352 Q 56 352 56 352 Q 56 352 56 352 L 88 352 L 88 352 L 88 336 L 88 336 L 88 216 L 88 216 L 108 202 L 108 202 L 117 217 L 117 217 L 272 457 L 272 457 L 281 470 L 281 470 L 308 453 L 308 453 L 299 439 L 299 439 L 207 297 L 207 297 L 191 272 L 191 272 L 220 272 L 305 272 L 309 278 L 309 278 L 380 362 L 380 362 L 390 375 L 390 375 L 415 354 L 415 354 L 404 342 L 404 342 L 324 246 L 324 246 L 320 240 L 320 240 L 312 240 L 312 240 Z M 104 72 Q 103 49 84 37 Q 64 27 44 37 Q 25 49 24 72 Q 25 95 44 107 Q 64 117 84 107 Q 103 95 104 72 L 104 72 Z M 64 16 Q 96 17 112 44 Q 128 72 112 100 Q 96 127 64 128 Q 32 127 16 100 Q 0 72 16 44 Q 32 17 64 16 L 64 16 Z" />
</svg>