<svg xmlns="http://www.w3.org/2000/svg" viewBox="0 0 448 448">
  <path d="M 16 16 L 16 432 L 16 16 L 16 432 L 432 432 L 432 432 L 432 16 L 432 16 L 16 16 L 16 16 Z M 0 0 L 16 0 L 0 0 L 448 0 L 448 16 L 448 16 L 448 432 L 448 432 L 448 448 L 448 448 L 432 448 L 0 448 L 0 432 L 0 432 L 0 16 L 0 16 L 0 0 L 0 0 Z M 168 96 L 296 96 L 168 96 L 304 96 L 304 112 L 304 112 L 296 112 L 174 112 L 154 201 L 154 201 L 255 210 L 255 210 Q 283 213 301 233 Q 319 253 320 281 Q 319 311 299 331 Q 279 351 249 352 L 196 352 L 196 352 Q 154 351 129 317 L 143 308 L 143 308 Q 162 335 196 336 L 249 336 L 249 336 Q 272 336 288 320 Q 303 304 304 281 Q 304 259 290 244 Q 276 229 254 226 L 143 216 L 143 216 L 134 215 L 134 215 L 136 206 L 136 206 L 160 102 L 160 102 L 162 96 L 162 96 L 168 96 L 168 96 Z" />
</svg>