<svg xmlns="http://www.w3.org/2000/svg" viewBox="0 0 448 512">
  <path d="M 336 128 Q 336 116 333 104 L 192 104 L 115 104 Q 112 116 112 128 Q 113 176 145 207 Q 176 239 224 240 Q 272 239 303 207 Q 335 176 336 128 L 336 128 Z M 189 88 L 256 21 L 189 88 L 256 21 Q 241 16 224 16 Q 188 17 160 36 Q 132 56 119 88 L 189 88 L 189 88 Z M 329 88 Q 312 47 272 27 L 211 88 L 211 88 L 329 88 L 329 88 Z M 96 128 Q 96 93 113 64 L 113 64 L 113 64 Q 130 35 160 17 Q 190 0 224 0 Q 258 0 288 17 Q 318 35 335 64 Q 352 93 352 128 Q 352 163 335 192 Q 318 221 288 239 Q 258 256 224 256 Q 190 256 160 239 Q 130 221 113 192 Q 96 163 96 128 L 96 128 Z M 22 496 L 80 496 L 22 496 L 80 496 L 80 320 L 80 320 L 76 320 L 76 320 L 22 496 L 22 496 Z M 96 496 L 168 496 L 96 496 L 249 496 L 134 320 L 134 320 L 96 320 L 96 320 L 96 496 L 96 496 Z M 268 496 L 336 496 L 268 496 L 336 496 L 336 416 L 336 416 L 216 416 L 216 416 L 268 496 L 268 496 Z M 206 400 L 344 400 L 206 400 L 352 400 L 352 408 L 352 408 L 352 496 L 352 496 L 426 496 L 426 496 L 372 320 L 372 320 L 154 320 L 154 320 L 206 400 L 206 400 Z M 168 512 L 17 512 L 168 512 L 0 512 L 5 496 L 5 496 L 64 304 L 64 304 L 384 304 L 384 304 L 443 496 L 443 496 L 448 512 L 448 512 L 431 512 L 168 512 Z" />
</svg>