<svg xmlns="http://www.w3.org/2000/svg" viewBox="0 0 480 512">
  <path d="M 16 16 L 192 16 L 16 16 L 192 16 L 192 0 L 192 0 L 16 0 L 0 0 L 0 16 L 0 16 L 0 496 L 0 496 L 0 512 L 0 512 L 16 512 L 320 512 L 320 496 L 320 496 L 320 288 L 320 288 L 304 288 L 304 288 L 304 496 L 304 496 L 16 496 L 16 496 L 16 16 L 16 16 Z M 112 432 L 104 432 L 112 432 L 104 432 L 104 448 L 104 448 L 112 448 L 216 448 L 216 432 L 216 432 L 208 432 L 112 432 Z M 224 16 Q 291 17 345 49 L 345 49 L 345 49 Q 399 81 431 135 L 431 135 L 431 135 Q 463 189 464 256 L 480 256 L 480 256 Q 479 184 445 127 Q 411 69 353 35 Q 296 1 224 0 L 224 16 L 224 16 Z M 240 224 Q 241 209 256 208 Q 271 209 272 224 Q 271 239 256 240 Q 241 239 240 224 L 240 224 Z M 288 224 Q 288 210 279 201 L 279 201 L 279 201 Q 270 192 256 192 Q 242 192 233 201 Q 224 210 224 224 Q 224 238 233 247 Q 242 256 256 256 Q 270 256 279 247 Q 288 238 288 224 L 288 224 Z M 368 256 L 384 256 L 368 256 L 384 256 Q 382 188 337 143 Q 292 98 224 96 L 224 112 L 224 112 Q 285 114 326 154 Q 366 195 368 256 L 368 256 Z" />
</svg>