<svg xmlns="http://www.w3.org/2000/svg" viewBox="0 0 436 512">
  <path d="M 162 0 L 154 0 L 162 0 L 154 0 L 154 16 L 154 16 L 162 16 L 210 16 L 210 80 L 210 80 L 130 80 L 122 80 L 122 88 L 122 88 L 122 128 L 122 128 L 10 128 L 0 128 L 2 138 L 2 138 L 50 320 L 50 320 L 41 320 L 25 320 L 25 336 L 25 336 L 25 368 L 25 368 L 25 384 L 25 384 L 41 384 L 74 384 L 74 504 L 74 504 L 74 512 L 74 512 L 90 512 L 90 512 L 90 504 L 90 504 L 90 384 L 90 384 L 346 384 L 346 384 L 346 504 L 346 504 L 346 512 L 346 512 L 362 512 L 362 512 L 362 504 L 362 504 L 362 384 L 362 384 L 393 384 L 409 384 L 409 368 L 409 368 L 409 336 L 409 336 L 409 320 L 409 320 L 393 320 L 386 320 L 434 138 L 434 138 L 436 128 L 436 128 L 426 128 L 314 128 L 314 88 L 314 88 L 314 80 L 314 80 L 306 80 L 226 80 L 226 16 L 226 16 L 274 16 L 282 16 L 282 0 L 282 0 L 274 0 L 162 0 Z M 370 320 L 314 320 L 370 320 L 314 320 L 314 168 L 314 168 Q 314 168 314 168 Q 314 168 314 168 L 314 144 L 314 144 L 416 144 L 416 144 L 370 318 L 370 318 L 370 320 L 370 320 Z M 298 320 L 138 320 L 298 320 L 138 320 L 138 168 L 138 168 Q 138 168 138 168 Q 138 168 138 168 L 138 144 L 138 144 L 298 144 L 298 144 L 298 160 L 298 160 Q 298 160 298 160 Q 298 160 298 160 L 298 320 L 298 320 Z M 122 320 L 66 320 L 122 320 L 66 320 L 66 318 L 66 318 L 20 144 L 20 144 L 122 144 L 122 144 L 122 160 L 122 160 Q 122 160 122 160 Q 122 160 122 160 L 122 320 L 122 320 Z M 298 128 L 138 128 L 298 128 L 138 128 L 138 96 L 138 96 L 298 96 L 298 96 L 298 128 L 298 128 Z M 306 336 L 393 336 L 306 336 L 393 336 L 393 368 L 393 368 L 362 368 L 41 368 L 41 336 L 41 336 L 130 336 L 306 336 Z" />
</svg>