<svg xmlns="http://www.w3.org/2000/svg" viewBox="0 0 448 448">
  <path d="M 16 16 L 16 432 L 16 16 L 16 432 L 432 432 L 432 432 L 432 16 L 432 16 L 16 16 L 16 16 Z M 0 0 L 16 0 L 0 0 L 448 0 L 448 16 L 448 16 L 448 432 L 448 432 L 448 448 L 448 448 L 432 448 L 0 448 L 0 432 L 0 432 L 0 16 L 0 16 L 0 0 L 0 0 Z M 240 224 Q 239 209 224 208 Q 209 209 208 224 Q 209 239 224 240 Q 239 239 240 224 L 240 224 Z M 192 224 Q 192 210 201 201 L 201 201 L 201 201 Q 210 192 224 192 Q 238 192 247 201 Q 256 210 256 224 Q 256 238 247 247 Q 238 256 224 256 Q 210 256 201 247 Q 192 238 192 224 L 192 224 Z" />
</svg>