<svg xmlns="http://www.w3.org/2000/svg" viewBox="0 0 512 512">
  <path d="M 78 372 Q 18 310 16 224 L 0 224 L 0 224 Q 2 315 64 381 L 64 504 L 64 504 L 64 512 L 64 512 L 80 512 L 80 512 L 80 504 L 80 504 L 80 378 L 80 378 L 80 374 L 80 374 L 78 372 L 78 372 Z M 40 96 L 8 96 L 40 96 L 0 96 L 0 104 L 0 104 L 0 184 L 0 184 L 0 192 L 0 192 L 8 192 L 222 192 Q 248 230 296 232 L 408 232 L 512 232 L 512 224 L 512 224 L 512 64 L 512 64 L 512 56 L 512 56 L 504 56 L 382 56 Q 329 2 248 0 L 224 0 L 224 0 Q 166 1 119 26 Q 71 52 40 96 L 40 96 Z M 60 96 Q 89 59 131 38 L 131 38 L 131 38 Q 174 16 224 16 L 248 16 L 248 16 Q 312 17 359 56 L 296 56 L 296 56 Q 248 58 222 96 L 60 96 L 60 96 Z M 496 320 L 440 320 L 496 320 L 432 320 L 432 328 L 432 328 L 432 432 L 432 432 L 312 432 L 304 432 L 304 440 L 304 440 L 304 504 L 304 504 L 304 512 L 304 512 L 320 512 L 320 512 L 320 504 L 320 504 L 320 448 L 320 448 L 440 448 L 448 448 L 448 440 L 448 440 L 448 336 L 448 336 L 504 336 L 512 336 L 512 328 L 512 328 L 512 256 L 512 256 L 496 256 L 496 256 L 496 320 L 496 320 Z M 296 72 L 400 72 L 296 72 L 400 72 L 400 216 L 400 216 L 296 216 L 296 216 Q 265 215 245 195 Q 225 175 224 144 Q 225 113 245 93 Q 265 73 296 72 L 296 72 Z M 416 216 L 416 72 L 416 216 L 416 72 L 496 72 L 496 72 L 496 216 L 496 216 L 416 216 L 416 216 Z M 208 144 Q 208 161 214 176 L 16 176 L 16 176 L 16 112 L 16 112 L 214 112 L 214 112 Q 208 127 208 144 L 208 144 Z" />
</svg>