<svg xmlns="http://www.w3.org/2000/svg" viewBox="0 0 640 512">
  <path d="M 328 8 L 328 0 L 328 8 L 328 0 L 312 0 L 312 0 L 312 8 L 312 8 L 312 64 L 312 64 L 208 64 L 203 64 L 201 68 L 201 68 L 208 72 L 208 72 Q 199 68 201 68 Q 201 68 201 68 Q 201 68 201 68 L 201 69 L 201 69 L 201 69 L 201 69 L 200 71 L 200 71 Q 198 73 196 78 Q 192 87 184 103 Q 169 137 149 189 Q 128 241 113 299 Q 97 358 96 408 L 96 472 L 96 472 L 96 480 L 96 480 L 104 480 L 170 480 L 171 479 L 171 479 L 312 420 L 312 420 L 312 504 L 312 504 L 312 512 L 312 512 L 328 512 L 328 512 L 328 504 L 328 504 L 328 420 L 328 420 L 469 479 L 469 479 L 470 480 L 470 480 L 472 480 L 544 480 L 544 472 L 544 472 L 544 408 L 544 408 Q 543 358 528 299 Q 512 241 492 189 Q 471 137 456 103 Q 448 87 444 78 Q 443 75 442 74 Q 441 72 440 71 L 440 69 L 440 69 L 439 68 L 439 68 L 439 68 L 439 68 Q 439 68 439 68 Q 439 68 439 68 Q 439 68 439 68 Q 439 68 439 68 L 432 72 L 432 72 L 439 68 L 439 68 L 437 64 L 437 64 L 432 64 L 328 64 L 328 8 L 328 8 Z M 312 80 L 312 170 L 312 80 L 312 170 L 157 212 L 157 212 Q 160 203 164 195 Q 184 143 199 110 Q 206 95 210 86 Q 211 85 211 85 Q 212 83 212 82 Q 213 81 213 80 L 312 80 L 312 80 Z M 150 231 L 312 187 L 150 231 L 312 187 L 312 282 L 312 282 L 119 341 L 119 341 Q 131 286 150 231 L 150 231 Z M 116 359 L 312 299 L 116 359 L 312 299 L 312 403 L 312 403 L 166 464 L 166 464 L 112 464 L 112 464 L 112 408 L 112 408 Q 112 385 116 359 L 116 359 Z M 328 403 L 328 299 L 328 403 L 328 299 L 524 359 L 524 359 Q 528 385 528 408 L 528 464 L 528 464 L 474 464 L 474 464 L 328 403 L 328 403 Z M 521 341 L 328 282 L 521 341 L 328 282 L 328 187 L 328 187 L 490 231 L 490 231 Q 509 286 521 341 L 521 341 Z M 483 212 L 328 170 L 483 212 L 328 170 L 328 80 L 328 80 L 427 80 L 427 80 Q 427 81 428 82 Q 428 83 429 85 Q 429 85 430 86 Q 434 95 441 110 Q 456 143 477 195 Q 479 202 482 209 Q 482 210 483 212 L 483 212 Z M 8 64 L 0 64 L 8 64 L 0 64 L 0 72 L 0 72 L 0 208 L 0 208 L 0 232 L 0 232 L 0 240 L 0 240 L 0 504 L 0 504 L 0 512 L 0 512 L 16 512 L 16 512 L 16 504 L 16 504 L 16 240 L 16 240 L 16 232 L 16 232 L 16 213 L 16 213 L 60 193 L 60 193 Q 88 180 104 155 Q 120 129 120 99 L 120 72 L 120 72 L 120 64 L 120 64 L 112 64 L 8 64 Z M 16 80 L 104 80 L 16 80 L 104 80 L 104 99 L 104 99 Q 104 125 90 146 Q 77 167 53 179 L 16 196 L 16 196 L 16 80 L 16 80 Z M 632 64 L 528 64 L 632 64 L 520 64 L 520 72 L 520 72 L 520 99 L 520 99 Q 520 130 536 155 Q 552 180 580 193 L 624 213 L 624 213 L 624 232 L 624 232 L 624 240 L 624 240 L 624 504 L 624 504 L 624 512 L 624 512 L 640 512 L 640 512 L 640 504 L 640 504 L 640 240 L 640 240 L 640 232 L 640 232 L 640 208 L 640 208 L 640 72 L 640 72 L 640 64 L 640 64 L 632 64 L 632 64 Z M 624 80 L 624 196 L 624 80 L 624 196 L 587 179 L 587 179 Q 563 167 550 146 Q 536 125 536 99 L 536 80 L 536 80 L 624 80 L 624 80 Z" />
</svg>