<svg xmlns="http://www.w3.org/2000/svg" viewBox="0 0 448 416">
  <path d="M 8 200 L 0 200 L 8 200 L 0 200 L 0 216 L 0 216 L 8 216 L 448 216 L 448 200 L 448 200 L 440 200 L 8 200 Z M 16 32 L 48 32 L 16 32 L 48 32 L 48 0 L 48 0 L 16 0 L 16 0 L 16 32 L 16 32 Z M 16 416 L 48 416 L 16 416 L 48 416 L 48 384 L 48 384 L 16 384 L 16 384 L 16 416 L 16 416 Z M 112 32 L 144 32 L 112 32 L 144 32 L 144 0 L 144 0 L 112 0 L 112 0 L 112 32 L 112 32 Z M 112 416 L 144 416 L 112 416 L 144 416 L 144 384 L 144 384 L 112 384 L 112 384 L 112 416 L 112 416 Z M 304 384 L 304 416 L 304 384 L 304 416 L 336 416 L 336 416 L 336 384 L 336 384 L 304 384 L 304 384 Z M 304 32 L 336 32 L 304 32 L 336 32 L 336 0 L 336 0 L 304 0 L 304 0 L 304 32 L 304 32 Z M 208 384 L 208 416 L 208 384 L 208 416 L 240 416 L 240 416 L 240 384 L 240 384 L 208 384 L 208 384 Z M 208 32 L 240 32 L 208 32 L 240 32 L 240 0 L 240 0 L 208 0 L 208 0 L 208 32 L 208 32 Z M 400 384 L 400 416 L 400 384 L 400 416 L 432 416 L 432 416 L 432 384 L 432 384 L 400 384 L 400 384 Z M 400 0 L 400 32 L 400 0 L 400 32 L 432 32 L 432 32 L 432 0 L 432 0 L 400 0 L 400 0 Z M 208 288 L 208 320 L 208 288 L 208 320 L 240 320 L 240 320 L 240 288 L 240 288 L 208 288 L 208 288 Z M 400 320 L 432 320 L 400 320 L 432 320 L 432 288 L 432 288 L 400 288 L 400 288 L 400 320 L 400 320 Z M 16 288 L 16 320 L 16 288 L 16 320 L 48 320 L 48 320 L 48 288 L 48 288 L 16 288 L 16 288 Z M 400 128 L 432 128 L 400 128 L 432 128 L 432 96 L 432 96 L 400 96 L 400 96 L 400 128 L 400 128 Z M 16 96 L 16 128 L 16 96 L 16 128 L 48 128 L 48 128 L 48 96 L 48 96 L 16 96 L 16 96 Z M 208 128 L 240 128 L 208 128 L 240 128 L 240 96 L 240 96 L 208 96 L 208 96 L 208 128 L 208 128 Z" />
</svg>