<svg xmlns="http://www.w3.org/2000/svg" viewBox="0 0 416 512">
  <path d="M 128 0 L 288 0 L 128 0 L 288 0 L 288 16 L 288 16 L 216 16 L 216 16 L 216 96 L 216 96 Q 301 101 357 159 L 394 122 L 394 122 L 400 117 L 400 117 L 411 128 L 411 128 L 406 134 L 406 134 L 368 171 L 368 171 Q 415 227 416 304 Q 414 392 355 451 Q 296 510 208 512 Q 120 510 61 451 Q 2 392 0 304 Q 2 218 58 160 Q 115 101 200 96 L 200 16 L 200 16 L 128 16 L 128 16 L 128 0 L 128 0 Z M 208 496 Q 260 496 304 470 L 304 470 L 304 470 Q 348 445 374 400 Q 400 355 400 304 Q 400 253 374 208 Q 348 163 304 138 Q 260 112 208 112 Q 156 112 112 138 Q 68 163 42 208 Q 16 253 16 304 Q 16 355 42 400 Q 68 445 112 470 Q 156 496 208 496 L 208 496 Z M 216 184 L 216 320 L 216 184 L 216 320 L 216 328 L 216 328 L 200 328 L 200 328 L 200 320 L 200 320 L 200 184 L 200 184 L 200 176 L 200 176 L 216 176 L 216 176 L 216 184 L 216 184 Z" />
</svg>