<svg xmlns="http://www.w3.org/2000/svg" viewBox="0 0 422 438">
  <path d="M 5 213 L 0 219 L 5 213 L 0 219 L 5 225 L 5 225 L 213 433 L 213 433 L 219 438 L 219 438 L 230 427 L 230 427 L 225 421 L 225 421 L 22 219 L 22 219 L 225 17 L 225 17 L 230 11 L 230 11 L 219 0 L 219 0 L 213 5 L 213 5 L 5 213 L 5 213 Z M 197 213 L 192 219 L 197 213 L 192 219 L 197 225 L 197 225 L 405 433 L 405 433 L 411 438 L 411 438 L 422 427 L 422 427 L 417 421 L 417 421 L 214 219 L 214 219 L 417 17 L 417 17 L 422 11 L 422 11 L 411 0 L 411 0 L 405 5 L 405 5 L 197 213 L 197 213 Z" />
</svg>