<svg xmlns="http://www.w3.org/2000/svg" viewBox="0 0 640 512">
  <path d="M 16 5 L 10 0 L 16 5 L 10 0 L 0 13 L 0 13 L 6 18 L 6 18 L 624 507 L 624 507 L 630 512 L 630 512 L 640 500 L 640 500 L 634 495 L 634 495 L 16 5 L 16 5 Z M 488 480 L 467 464 L 488 480 L 467 464 L 48 464 L 48 464 L 48 133 L 48 133 L 32 120 L 32 120 L 32 464 L 32 464 L 32 480 L 32 480 L 48 480 L 488 480 Z M 153 32 L 173 48 L 153 32 L 173 48 L 592 48 L 592 48 L 592 379 L 592 379 L 608 392 L 608 392 L 608 48 L 608 48 L 608 32 L 608 32 L 592 32 L 153 32 Z M 344 183 L 360 196 L 344 183 L 360 196 L 360 176 L 360 176 L 416 176 L 416 176 Q 450 177 473 199 Q 495 222 496 256 Q 496 278 486 295 L 499 305 L 499 305 Q 512 283 512 256 Q 511 215 484 188 Q 457 161 416 160 L 352 160 L 344 160 L 344 168 L 344 168 L 344 183 L 344 183 Z M 182 239 L 130 352 L 182 239 L 130 352 L 148 352 L 148 352 L 177 288 L 177 288 L 244 288 L 244 288 L 224 272 L 224 272 L 185 272 L 185 272 L 195 249 L 195 249 L 182 239 L 182 239 Z" />
</svg>