<svg xmlns="http://www.w3.org/2000/svg" viewBox="0 0 346 511">
  <path d="M 291 137 L 308 154 L 291 137 L 308 154 L 274 188 L 274 188 L 257 171 L 257 171 L 178 92 L 178 92 L 178 463 L 178 463 L 322 463 L 346 463 L 346 511 L 346 511 L 322 511 L 130 511 L 130 487 L 130 487 L 130 92 L 130 92 L 51 171 L 51 171 L 34 188 L 34 188 L 0 154 L 0 154 L 17 137 L 17 137 L 130 24 L 130 24 L 130 23 L 130 23 L 131 23 L 131 23 L 137 17 L 137 17 L 154 0 L 154 0 L 171 17 L 171 17 L 177 23 L 177 23 L 178 23 L 178 23 L 178 24 L 178 24 L 291 137 L 291 137 Z" />
</svg>