<svg xmlns="http://www.w3.org/2000/svg" viewBox="0 0 576 512">
  <path d="M 0 224 L 8 210 L 0 224 L 8 210 L 128 0 L 128 0 L 558 169 L 558 169 L 576 176 L 576 176 L 560 187 L 560 187 L 320 352 L 320 352 L 215 310 L 215 310 L 168 435 L 168 435 L 166 440 L 166 440 L 160 440 L 16 440 L 16 504 L 16 504 L 16 512 L 16 512 L 0 512 L 0 512 L 0 504 L 0 504 L 0 432 L 0 432 L 0 360 L 0 360 L 0 352 L 0 352 L 16 352 L 16 352 L 16 360 L 16 360 L 16 424 L 16 424 L 155 424 L 155 424 L 200 304 L 200 304 L 15 230 L 15 230 L 0 224 L 0 224 Z M 318 334 L 542 180 L 318 334 L 542 180 L 135 20 L 135 20 L 23 216 L 23 216 L 318 334 L 318 334 Z M 505 394 L 388 344 L 505 394 L 388 344 L 403 334 L 403 334 L 511 379 L 511 379 L 555 273 L 555 273 L 514 257 L 514 257 L 530 246 L 530 246 L 561 258 L 561 258 L 576 264 L 576 264 L 570 279 L 570 279 L 526 385 L 526 385 L 520 400 L 520 400 L 505 394 L 505 394 Z" />
</svg>