<svg xmlns="http://www.w3.org/2000/svg" viewBox="0 0 512 512">
  <path d="M 448 89.6 L 448 380.8 L 422.4 360.8 L 422.4 89.6 L 448 89.6 L 448 89.6 Z M 486.4 410.4 L 486.4 89.6 L 486.4 51.2 L 448 51.2 L 422.4 51.2 L 384 51.2 L 384 89.6 L 384 331.2 L 364.8 316 L 364.8 192 L 364.8 153.6 L 326.4 153.6 L 300.8 153.6 L 262.4 153.6 L 262.4 192 L 262.4 236.8 L 38.4 63.2 L 23.2 51.2 L 0 81.6 L 15.2 93.6 L 473.6 448.8 L 488.8 460.8 L 512 430.4 L 496.8 418.4 L 486.4 410.4 L 486.4 410.4 Z M 300.8 266.4 L 300.8 192 L 326.4 192 L 326.4 286.4 L 300.8 266.4 L 300.8 266.4 Z M 326.4 384.8 L 326.4 422.4 L 300.8 422.4 L 300.8 364.8 L 262.4 334.4 L 262.4 422.4 L 262.4 460.8 L 300.8 460.8 L 326.4 460.8 L 364.8 460.8 L 364.8 422.4 L 364.8 415.2 L 326.4 385.6 L 326.4 384.8 Z M 162.4 256 L 140.8 256 L 140.8 294.4 L 140.8 422.4 L 140.8 460.8 L 179.2 460.8 L 204.8 460.8 L 243.2 460.8 L 243.2 422.4 L 243.2 320 L 162.4 256 L 162.4 256 Z M 179.2 294.4 L 204.8 294.4 L 204.8 422.4 L 179.2 422.4 L 179.2 294.4 L 179.2 294.4 Z M 89.6 396.8 L 89.6 422.4 L 64 422.4 L 64 396.8 L 89.6 396.8 L 89.6 396.8 Z M 64 358.4 L 25.6 358.4 L 25.6 396.8 L 25.6 422.4 L 25.6 460.8 L 64 460.8 L 89.6 460.8 L 128 460.8 L 128 422.4 L 128 396.8 L 128 358.4 L 89.6 358.4 L 64 358.4 L 64 358.4 Z" />
</svg>