<svg xmlns="http://www.w3.org/2000/svg" viewBox="0 0 512 512">
  <path d="M 443.35648 62.990536 Q 422.35962 55.722397 399.74762 55.722397 Q 339.1798 57.33754 298.80127 97.71609 Q 259.2303 137.28706 257.61514 197.85489 Q 257.61514 211.5836 260.03784 225.3123 Q 291.5331 230.9653 312.52997 254.38486 Q 332.71924 276.99686 335.14197 310.10727 Q 355.33124 319.7981 368.25238 336.7571 Q 383.59622 339.9874 399.74762 339.9874 Q 434.47318 339.9874 463.54575 325.4511 Q 491.81073 310.91483 512 285.07254 Q 494.23343 291.5331 474.04416 291.5331 Q 424.78235 289.91797 391.67194 257.61514 Q 359.36908 224.50473 357.75394 175.2429 Q 358.56152 134.05678 381.98108 103.36909 Q 406.2082 73.48896 443.35648 62.990536 L 443.35648 62.990536 Z M 103.36909 301.22397 Q 103.36909 285.07254 114.67508 273.76657 L 114.67508 273.76657 Q 125.1735 263.26813 142.13249 262.46057 Q 158.2839 263.26813 169.5899 273.76657 Q 180.08833 285.07254 180.8959 301.22397 L 180.8959 312.52997 L 219.6593 313.33752 Q 219.6593 302.8391 226.92744 295.57098 Q 234.19559 288.30283 245.50157 288.30283 Q 256 288.30283 263.26813 295.57098 Q 270.5363 302.8391 271.34384 314.1451 L 271.34384 346.44794 L 271.34384 365.82965 L 290.72556 365.82965 L 297.18613 365.82965 Q 307.68454 365.82965 314.95267 373.09778 Q 322.22083 380.36594 323.02838 391.67194 L 323.02838 417.5142 L 297.18613 417.5142 L 290.72556 417.5142 L 271.34384 417.5142 L 271.34384 417.5142 L 200.2776 417.5142 L 200.2776 417.5142 L 89.64038 417.5142 L 89.64038 417.5142 L 64.605675 417.5142 L 38.76341 417.5142 L 38.76341 378.7508 Q 38.76341 362.59937 50.0694 351.29337 Q 60.56782 340.79495 77.52682 339.9874 L 83.98738 339.9874 L 103.36909 339.9874 L 103.36909 320.60568 L 103.36909 301.22397 L 103.36909 301.22397 Z M 310.10727 456.2776 L 310.10727 456.2776 L 342.4101 456.2776 L 361.7918 456.2776 L 361.7918 436.8959 L 361.7918 391.67194 Q 360.98422 367.4448 346.44794 350.4858 Q 332.71924 333.52682 310.10727 328.6814 L 310.10727 314.1451 Q 309.29968 286.68768 290.72556 268.11356 Q 272.95898 250.347 245.50157 249.53943 Q 224.50473 249.53943 208.35332 260.84543 Q 197.85489 243.88643 180.08833 234.19559 Q 163.12933 223.69716 142.13249 223.69716 Q 109.02208 224.50473 87.21767 246.30914 Q 65.413246 268.11356 64.605675 301.22397 L 64.605675 302.03156 Q 36.340694 307.68454 18.574133 328.6814 Q 0 349.67822 0 378.7508 L 0 436.8959 L 0 456.2776 L 19.381704 456.2776 L 38.76341 456.2776 L 38.76341 456.2776 L 64.605675 456.2776 L 83.98738 456.2776 L 200.2776 456.2776 L 200.2776 456.2776 L 290.72556 456.2776 L 310.10727 456.2776 L 310.10727 456.2776 Z" />
</svg>