<svg xmlns="http://www.w3.org/2000/svg" viewBox="0 0 488 512">
  <path d="M 16 496 L 112 496 L 16 496 L 112 496 L 112 512 L 112 512 L 16 512 L 0 512 L 0 496 L 0 496 L 0 16 L 0 16 L 0 0 L 0 0 L 16 0 L 224 0 L 384 160 L 384 160 L 384 304 L 384 304 L 368 304 L 368 304 L 368 176 L 368 176 L 216 176 L 208 176 L 208 168 L 208 168 L 208 16 L 208 16 L 16 16 L 16 16 L 16 496 L 16 496 Z M 361 160 L 224 23 L 361 160 L 224 23 L 224 160 L 224 160 L 361 160 L 361 160 Z M 176 368 L 208 368 L 176 368 L 208 368 Q 228 369 242 382 Q 255 396 256 416 Q 255 436 242 450 Q 228 463 208 464 L 184 464 L 184 464 L 184 512 L 184 512 L 168 512 L 168 512 L 168 456 L 168 456 L 168 376 L 168 376 L 168 368 L 168 368 L 176 368 L 176 368 Z M 208 448 Q 222 448 231 439 L 231 439 L 231 439 Q 240 430 240 416 Q 240 402 231 393 Q 222 384 208 384 L 184 384 L 184 384 L 184 448 L 184 448 L 208 448 L 208 448 Z M 304 368 L 336 368 L 304 368 L 336 368 Q 353 368 364 380 Q 376 391 376 408 L 376 472 L 376 472 Q 376 489 364 500 Q 353 512 336 512 L 304 512 L 296 512 L 296 504 L 296 504 L 296 376 L 296 376 L 296 368 L 296 368 L 304 368 L 304 368 Z M 312 496 L 336 496 L 312 496 L 336 496 Q 358 494 360 472 L 360 408 L 360 408 Q 358 386 336 384 L 312 384 L 312 384 L 312 496 L 312 496 Z M 424 368 L 432 368 L 424 368 L 488 368 L 488 384 L 488 384 L 480 384 L 440 384 L 440 432 L 440 432 L 480 432 L 488 432 L 488 448 L 488 448 L 480 448 L 440 448 L 440 504 L 440 504 L 440 512 L 440 512 L 424 512 L 424 512 L 424 504 L 424 504 L 424 440 L 424 440 L 424 376 L 424 376 L 424 368 L 424 368 Z" />
</svg>