<svg xmlns="http://www.w3.org/2000/svg" viewBox="0 0 638 512">
  <path d="M 350 80 Q 349 116 318 135 Q 286 153 254 135 Q 223 116 222 80 Q 223 44 254 25 Q 286 7 318 25 Q 349 44 350 80 L 350 80 Z M 286 0 Q 252 1 229 23 L 229 23 L 229 23 Q 207 46 206 80 Q 207 112 227 134 Q 247 156 278 160 Q 278 160 278 160 Q 278 160 278 160 L 278 208 L 278 208 L 198 208 L 190 208 L 190 224 L 190 224 L 198 224 L 278 224 L 278 496 L 278 496 L 86 496 L 86 496 L 86 291 L 86 291 L 144 350 L 144 350 L 156 338 L 156 338 L 84 266 L 84 266 L 78 261 L 78 261 L 72 266 L 72 266 Q 72 266 72 266 L 0 338 L 0 338 L 12 350 L 12 350 L 70 291 L 70 291 L 70 504 L 70 504 L 70 512 L 70 512 L 78 512 L 393 512 Q 382 505 373 496 L 294 496 L 294 496 L 294 224 L 294 224 L 374 224 L 382 224 L 382 208 L 382 208 L 374 208 L 294 208 L 294 160 L 294 160 Q 294 160 294 160 Q 294 160 294 160 Q 325 156 345 134 Q 365 112 366 80 Q 365 46 343 23 Q 320 1 286 0 L 286 0 Z M 494 240 Q 529 240 558 257 L 558 257 L 558 257 Q 587 274 605 304 Q 622 334 622 368 Q 622 402 605 432 Q 587 462 558 479 Q 529 496 494 496 Q 459 496 430 479 Q 401 462 383 432 Q 366 402 366 368 Q 366 334 383 304 Q 401 274 430 257 Q 459 240 494 240 L 494 240 Z M 494 512 Q 533 512 566 493 L 566 493 L 566 493 Q 599 474 619 440 Q 638 406 638 368 Q 638 330 619 296 Q 599 262 566 243 Q 533 224 494 224 Q 455 224 422 243 Q 389 262 369 296 Q 350 330 350 368 Q 350 406 369 440 Q 389 474 422 493 Q 455 512 494 512 L 494 512 Z M 569 328 L 558 317 L 569 328 L 558 317 L 552 322 L 552 322 L 478 397 L 478 397 L 436 354 L 436 354 L 430 349 L 430 349 L 419 360 L 419 360 L 424 366 L 424 366 L 472 414 L 472 414 L 478 419 L 478 419 L 484 414 L 484 414 L 564 334 L 564 334 L 570 328 L 569 328 Z" />
</svg>