<svg xmlns="http://www.w3.org/2000/svg" viewBox="0 0 512 512">
  <path d="M 402.4 268.8 L 435.2 268.8 L 435.2 288 L 435.2 300.8 L 460.8 300.8 L 460.8 288 L 460.8 224 L 460.8 211.2 L 435.2 211.2 L 435.2 224 L 435.2 243.2 L 402.4 243.2 Q 397.6 196 368.8 161.6 L 392 138.4 L 392 138.4 L 405.6 152 L 414.4 160.8 L 432.8 143.2 L 423.2 133.6 L 378.4 88.8 L 368.8 79.2 L 351.2 97.6 L 360 106.4 L 373.6 120 L 373.6 120 L 350.4 143.2 Q 316 114.4 268.8 109.6 L 268.8 76.8 L 288 76.8 L 300.8 76.8 L 300.8 51.2 L 288 51.2 L 224 51.2 L 211.2 51.2 L 211.2 76.8 L 224 76.8 L 243.2 76.8 L 243.2 109.6 Q 208 112.8 179.2 130.4 L 200.8 147.2 Q 226.4 134.4 256 134.4 Q 308 136 341.6 170.4 Q 376 204 377.6 256 Q 377.6 270.4 374.4 284 L 396 301.6 Q 400.8 285.6 402.4 268.8 L 402.4 268.8 Z M 134.4 256 Q 134.4 241.6 137.6 228 L 116 210.4 Q 111.2 226.4 109.6 243.2 L 76.8 243.2 L 76.8 224 L 76.8 211.2 L 51.2 211.2 L 51.2 224 L 51.2 288 L 51.2 300.8 L 76.8 300.8 L 76.8 288 L 76.8 268.8 L 109.6 268.8 Q 114.4 316 143.2 350.4 L 120 373.6 L 120 373.6 L 106.4 360 L 97.6 351.2 L 79.2 368.8 L 88.8 378.4 L 133.6 423.2 L 143.2 432.8 L 160.8 414.4 L 152 405.6 L 138.4 392 L 138.4 392 L 161.6 368.8 Q 196 397.6 243.2 402.4 L 243.2 435.2 L 224 435.2 L 211.2 435.2 L 211.2 460.8 L 224 460.8 L 288 460.8 L 300.8 460.8 L 300.8 435.2 L 288 435.2 L 268.8 435.2 L 268.8 402.4 Q 304 399.2 332.8 381.6 L 311.2 364.8 Q 285.6 377.6 256 377.6 Q 204 376 170.4 341.6 Q 136 308 134.4 256 L 134.4 256 Z M 26.4 59.2 L 16 51.2 L 0 71.2 L 10.4 79.2 L 486.4 452.8 L 496 460.8 L 512 440.8 L 502.4 432.8 L 26.4 59.2 L 26.4 59.2 Z" />
</svg>