<svg xmlns="http://www.w3.org/2000/svg" viewBox="0 0 456 352">
  <path d="M 16 0 Q 1 1 0 16 Q 1 31 16 32 Q 31 31 32 16 Q 31 1 16 0 L 16 0 Z M 16 160 Q 1 161 0 176 Q 1 191 16 192 Q 31 191 32 176 Q 31 161 16 160 L 16 160 Z M 32 336 Q 31 321 16 320 Q 1 321 0 336 Q 1 351 16 352 Q 31 351 32 336 L 32 336 Z M 128 8 L 120 8 L 128 8 L 120 8 L 120 24 L 120 24 L 128 24 L 456 24 L 456 8 L 456 8 L 448 8 L 128 8 Z M 128 168 L 120 168 L 128 168 L 120 168 L 120 184 L 120 184 L 128 184 L 456 184 L 456 168 L 456 168 L 448 168 L 128 168 Z M 128 328 L 120 328 L 128 328 L 120 328 L 120 344 L 120 344 L 128 344 L 456 344 L 456 328 L 456 328 L 448 328 L 128 328 Z" />
</svg>