<svg xmlns="http://www.w3.org/2000/svg" viewBox="0 0 512 448">
  <path d="M 76 335 L 72 344 L 76 335 L 72 344 L 42 423 L 42 423 L 162 388 L 162 388 L 166 386 L 166 386 L 171 388 L 171 388 Q 211 400 256 400 Q 360 398 427 343 Q 494 288 496 208 Q 494 128 427 73 Q 360 18 256 16 Q 152 18 85 73 Q 18 128 16 208 Q 17 276 68 328 L 76 335 L 76 335 Z M 35 442 L 16 448 L 35 442 L 16 448 L 23 429 L 23 429 L 57 339 L 57 339 Q 2 284 0 208 Q 1 150 35 103 Q 69 56 127 28 Q 184 1 256 0 Q 328 1 385 28 Q 443 56 477 103 Q 511 150 512 208 Q 511 266 477 313 Q 443 360 385 388 Q 328 415 256 416 Q 209 416 166 403 L 35 442 L 35 442 Z" />
</svg>