<svg xmlns="http://www.w3.org/2000/svg" viewBox="0 0 640 512">
  <path d="M 568 296 L 576 296 L 568 296 L 576 296 L 576 280 L 576 280 L 568 280 L 480 280 L 480 176 L 480 176 L 480 171 L 480 171 L 542 110 L 542 110 L 547 104 L 547 104 L 536 93 L 536 93 L 530 98 L 530 98 L 469 160 L 469 160 L 464 160 L 315 160 L 335 176 L 335 176 L 464 176 L 464 176 L 464 278 L 464 278 L 487 296 L 487 296 L 568 296 L 568 296 Z M 328 464 L 328 354 L 328 464 L 328 354 L 312 341 L 312 341 L 312 464 L 312 464 Q 254 459 216 419 Q 177 379 176 320 L 176 296 L 176 296 L 176 280 L 176 280 L 176 234 L 176 234 L 160 221 L 160 221 L 160 280 L 160 280 L 72 280 L 64 280 L 64 296 L 64 296 L 72 296 L 160 296 L 160 320 L 160 320 Q 161 370 187 409 L 186 410 L 186 410 L 106 490 L 106 490 L 101 496 L 101 496 L 112 507 L 112 507 L 118 502 L 118 502 L 197 422 L 197 422 Q 241 474 312 480 L 312 480 L 312 480 L 320 480 L 328 480 L 328 480 L 328 480 Q 389 476 431 435 L 418 425 L 418 425 Q 381 460 328 464 L 328 464 Z M 400 128 L 416 128 L 400 128 L 416 128 L 416 112 L 416 112 L 416 96 L 416 96 Q 415 55 388 28 Q 361 1 320 0 Q 281 1 255 26 Q 228 51 224 89 L 240 101 L 240 101 L 240 96 L 240 96 Q 241 62 263 39 Q 286 17 320 16 Q 354 17 377 39 Q 399 62 400 96 L 400 112 L 400 112 L 254 112 L 254 112 L 274 128 L 274 128 L 400 128 L 400 128 Z M 16 5 L 10 0 L 16 5 L 10 0 L 0 13 L 0 13 L 6 18 L 6 18 L 624 507 L 624 507 L 630 512 L 630 512 L 640 500 L 640 500 L 634 495 L 634 495 L 16 5 L 16 5 Z" />
</svg>