<svg xmlns="http://www.w3.org/2000/svg" viewBox="0 0 576 448">
  <path d="M 415 208 L 408 208 L 415 208 L 168 208 L 168 184 L 168 184 L 168 138 L 168 138 L 88 188 L 88 188 L 68 201 L 68 201 L 55 181 L 55 181 L 15 117 L 15 117 L 3 97 L 3 97 L 22 84 L 22 84 L 139 4 L 139 4 L 145 0 L 145 0 L 152 0 L 576 0 L 576 48 L 576 48 L 552 48 L 159 48 L 68 111 L 68 111 L 83 135 L 83 135 L 163 84 L 163 84 L 169 80 L 169 80 L 176 80 L 344 80 L 344 128 L 344 128 L 320 128 L 216 128 L 216 160 L 216 160 L 401 160 L 401 160 L 491 100 L 491 100 L 497 96 L 497 96 L 504 96 L 576 96 L 576 144 L 576 144 L 552 144 L 511 144 L 421 204 L 421 204 L 415 208 L 415 208 Z M 161 240 L 168 240 L 161 240 L 408 240 L 408 264 L 408 264 L 408 311 L 408 311 L 488 260 L 488 260 L 508 247 L 508 247 L 521 267 L 521 267 L 561 331 L 561 331 L 573 351 L 573 351 L 554 364 L 554 364 L 438 444 L 438 444 L 431 448 L 431 448 L 424 448 L 0 448 L 0 400 L 0 400 L 24 400 L 417 400 L 508 337 L 508 337 L 493 313 L 493 313 L 413 364 L 413 364 L 407 368 L 407 368 L 400 368 L 232 368 L 232 320 L 232 320 L 256 320 L 360 320 L 360 288 L 360 288 L 175 288 L 175 288 L 85 348 L 85 348 L 79 352 L 79 352 L 72 352 L 0 352 L 0 304 L 0 304 L 24 304 L 65 304 L 155 244 L 155 244 L 161 240 L 161 240 Z" />
</svg>