<svg xmlns="http://www.w3.org/2000/svg" viewBox="0 0 448 512">
  <path d="M 144 96 L 144 128 L 144 96 L 144 128 L 304 128 L 304 128 L 304 96 L 304 96 Q 303 62 281 39 Q 258 17 224 16 Q 190 17 167 39 Q 145 62 144 96 L 144 96 Z M 128 128 L 128 96 L 128 128 L 128 96 Q 129 55 156 28 Q 183 1 224 0 L 232 0 L 232 0 L 232 0 L 232 0 Q 270 4 294 31 Q 319 57 320 96 L 320 128 L 320 128 L 432 128 L 448 128 L 448 144 L 448 144 L 448 496 L 448 496 L 448 512 L 448 512 L 432 512 L 0 512 L 0 496 L 0 496 L 0 144 L 0 144 L 0 128 L 0 128 L 16 128 L 128 128 Z M 128 144 L 16 144 L 128 144 L 16 144 L 16 496 L 16 496 L 432 496 L 432 496 L 432 144 L 432 144 L 320 144 L 128 144 Z M 136 312 L 144 312 L 136 312 L 216 312 L 216 240 L 216 240 L 216 232 L 216 232 L 232 232 L 232 232 L 232 240 L 232 240 L 232 312 L 232 312 L 304 312 L 312 312 L 312 328 L 312 328 L 304 328 L 232 328 L 232 400 L 232 400 L 232 408 L 232 408 L 216 408 L 216 408 L 216 400 L 216 400 L 216 328 L 216 328 L 144 328 L 136 328 L 136 312 L 136 312 Z" />
</svg>