<svg xmlns="http://www.w3.org/2000/svg" viewBox="0 0 208 521">
  <path d="M 152 73 Q 151 46 128 31 Q 104 19 80 31 Q 57 46 56 73 Q 57 100 80 115 Q 104 127 128 115 Q 151 100 152 73 L 152 73 Z M 40 73 Q 41 37 72 18 Q 104 0 136 18 Q 167 37 168 73 Q 167 109 136 128 Q 104 146 72 128 Q 41 109 40 73 L 40 73 Z M 17 345 L 40 345 L 17 345 L 191 345 L 185 185 L 185 185 L 23 185 L 23 185 L 17 345 L 17 345 Z M 112 361 L 96 361 L 112 361 L 96 361 L 96 513 L 96 513 L 96 521 L 96 521 L 88 521 L 32 521 L 32 513 L 32 513 L 32 361 L 32 361 L 16 361 L 0 361 L 1 345 L 1 345 L 8 169 L 8 169 L 200 169 L 200 169 L 207 345 L 207 345 L 208 361 L 208 361 L 192 361 L 176 361 L 176 513 L 176 513 L 176 521 L 176 521 L 168 521 L 112 521 L 112 513 L 112 513 L 112 361 L 112 361 Z M 160 361 L 128 361 L 160 361 L 128 361 L 128 505 L 128 505 L 160 505 L 160 505 L 160 361 L 160 361 Z M 48 361 L 48 505 L 48 361 L 48 505 L 80 505 L 80 505 L 80 361 L 80 361 L 48 361 L 48 361 Z" />
</svg>