<svg xmlns="http://www.w3.org/2000/svg" viewBox="0 0 424 513">
  <path d="M 183 1 L 167 1 L 183 1 L 167 1 L 168 10 L 168 10 Q 168 10 168 10 Q 168 10 168 10 L 191 149 L 191 149 Q 192 154 192 158 L 192 169 L 192 169 Q 191 193 176 209 Q 160 224 136 225 L 72 225 L 72 225 Q 48 224 33 209 Q 17 193 16 169 L 16 158 L 16 158 Q 16 154 17 149 L 28 82 L 28 82 L 34 46 L 34 46 L 40 10 L 40 10 Q 40 10 40 10 Q 40 10 40 10 L 41 1 L 41 1 L 25 1 L 25 1 L 24 8 L 24 8 Q 24 8 24 8 Q 24 8 24 8 L 18 44 L 18 44 L 12 80 L 12 80 L 1 147 L 1 147 Q 0 152 0 158 L 0 169 L 0 169 Q 1 200 21 220 Q 41 240 72 241 L 96 241 L 96 241 L 96 505 L 96 505 L 96 513 L 96 513 L 112 513 L 112 513 L 112 505 L 112 505 L 112 241 L 112 241 L 136 241 L 136 241 Q 167 240 187 220 Q 207 200 208 169 L 208 158 L 208 158 Q 208 152 207 147 L 184 8 L 184 8 Q 184 8 184 8 Q 184 8 184 8 L 183 1 L 183 1 Z M 136 1 L 120 1 L 136 1 L 120 1 L 120 9 L 120 9 L 128 169 L 128 169 L 128 177 L 128 177 L 144 177 L 144 177 L 144 169 L 144 169 L 136 9 L 136 9 L 136 1 L 136 1 Z M 88 1 L 72 1 L 88 1 L 72 1 L 72 9 L 72 9 L 71 29 L 71 29 L 70 49 L 70 49 L 68 89 L 68 89 L 64 169 L 64 169 L 64 177 L 64 177 L 80 177 L 80 177 L 80 169 L 80 169 L 84 89 L 84 89 L 86 49 L 86 49 L 87 29 L 87 29 L 88 9 L 88 9 L 88 1 L 88 1 Z M 296 177 Q 297 127 311 95 L 311 95 L 311 95 Q 326 64 345 47 Q 364 30 381 23 Q 389 20 394 18 Q 400 17 400 17 Q 400 17 400 17 Q 400 17 400 17 L 408 17 L 408 17 L 408 337 L 408 337 L 296 337 L 296 337 L 296 177 L 296 177 Z M 424 337 L 424 17 L 424 337 L 424 17 L 424 1 L 424 1 L 408 1 L 400 1 Q 390 0 362 15 Q 333 29 308 67 Q 282 106 280 177 L 280 337 L 280 337 L 280 353 L 280 353 L 296 353 L 408 353 L 408 505 L 408 505 L 408 513 L 408 513 L 424 513 L 424 513 L 424 505 L 424 505 L 424 353 L 424 353 L 424 345 L 424 345 L 424 337 L 424 337 Z" />
</svg>