<svg xmlns="http://www.w3.org/2000/svg" viewBox="0 0 499 499">
  <path d="M 177 427 Q 236 388 313 313 Q 388 236 427 177 Q 441 210 441 249 Q 439 331 385 385 Q 331 439 249 441 Q 210 441 177 427 L 177 427 Z M 144 429 Q 107 451 79 462 Q 40 477 20 479 Q 20 479 19 480 Q 19 480 18 480 Q 18 479 19 478 Q 21 458 36 419 Q 42 404 52 385 Q 46 378 42 370 Q 10 431 5 464 Q 0 497 1 497 Q 1 497 1 497 Q 2 499 43 491 Q 84 483 161 437 Q 201 457 249 457 Q 337 455 396 396 Q 455 337 457 249 Q 457 201 437 161 Q 483 84 491 43 Q 499 2 497 1 Q 497 0 464 5 Q 431 10 370 42 Q 378 46 386 52 Q 404 42 419 36 Q 458 21 478 19 Q 478 19 479 18 Q 479 18 480 18 Q 480 19 479 20 Q 477 40 462 79 Q 451 107 429 144 Q 401 97 354 69 Q 307 42 249 41 Q 161 43 102 102 Q 43 161 41 249 Q 42 307 69 354 Q 97 401 144 429 L 144 429 Z M 160 419 Q 113 394 85 350 L 85 350 L 85 350 Q 58 305 57 249 Q 59 167 113 113 Q 167 59 249 57 Q 305 58 350 85 Q 394 113 419 160 Q 381 221 301 301 Q 221 381 160 419 L 160 419 Z" />
</svg>