<svg xmlns="http://www.w3.org/2000/svg" viewBox="0 0 512 520">
  <path d="M 276 246 L 291 276 L 276 246 L 291 276 L 300 294 L 300 294 L 320 294 L 416 294 L 416 278 L 416 278 L 416 246 L 416 246 L 416 230 L 416 230 L 400 230 L 340 230 L 301 152 L 301 152 L 295 141 L 295 141 L 284 136 L 284 136 L 204 104 L 204 104 L 198 102 L 198 102 L 192 102 L 115 102 L 105 111 L 105 111 L 57 159 L 57 159 L 46 171 L 46 171 L 35 182 L 35 182 L 46 193 L 46 193 L 69 216 L 69 216 L 80 227 L 80 227 L 91 216 L 91 216 L 103 205 L 103 205 L 141 166 L 141 166 L 152 166 L 169 166 L 164 182 L 164 182 L 138 260 L 138 260 Q 131 282 138 302 Q 145 322 165 335 L 251 388 L 251 388 L 225 477 L 225 477 L 218 502 L 218 502 L 214 518 L 214 518 L 230 518 L 280 518 L 287 495 L 287 495 L 319 383 L 319 383 L 325 360 L 325 360 L 305 347 L 305 347 L 237 304 L 237 304 L 259 247 L 259 247 L 267 227 L 267 227 L 276 246 L 276 246 Z M 307 367 L 303 378 L 307 367 L 303 378 L 271 490 L 271 490 L 268 502 L 268 502 L 235 502 L 235 502 L 241 482 L 241 482 L 266 393 L 266 393 L 269 381 L 269 381 L 259 375 L 259 375 L 173 321 L 173 321 Q 159 312 153 296 Q 148 281 153 265 L 184 171 L 184 171 L 191 150 L 191 150 L 169 150 L 135 150 L 130 155 L 130 155 L 91 193 L 91 193 L 80 205 L 80 205 L 57 182 L 57 182 L 69 171 L 69 171 L 117 123 L 117 123 L 121 118 L 121 118 L 128 118 L 195 118 L 198 119 L 198 119 L 278 151 L 278 151 L 284 153 L 284 153 L 286 159 L 286 159 L 326 237 L 326 237 L 330 246 L 330 246 L 340 246 L 400 246 L 400 278 L 400 278 L 384 278 L 310 278 L 306 269 L 306 269 L 281 220 L 281 220 L 265 187 L 265 187 L 252 221 L 252 221 L 222 298 L 222 298 L 217 311 L 217 311 L 228 318 L 228 318 L 297 360 L 297 360 L 307 367 L 307 367 Z M 272 22 Q 286 22 295 31 L 295 31 L 295 31 Q 304 40 304 54 Q 304 68 295 77 Q 286 86 272 86 Q 258 86 249 77 Q 240 68 240 54 Q 240 40 249 31 Q 258 22 272 22 L 272 22 Z M 320 54 Q 319 27 296 12 Q 272 0 248 12 Q 225 27 224 54 Q 225 81 248 96 Q 272 108 296 96 Q 319 81 320 54 L 320 54 Z M 111 321 L 98 358 L 111 321 L 98 358 L 16 358 L 0 358 L 0 374 L 0 374 L 0 406 L 0 406 L 0 422 L 0 422 L 16 422 L 142 422 L 161 370 L 161 370 L 148 362 L 148 362 Q 148 362 148 362 Q 148 362 148 362 L 131 406 L 131 406 L 16 406 L 16 406 L 16 374 L 16 374 L 98 374 L 109 374 L 113 364 L 113 364 L 122 338 L 122 338 Q 116 330 111 321 L 111 321 Z M 474 456 Q 495 401 496 262 Q 495 123 474 68 Q 463 40 452 31 Q 441 21 432 22 Q 423 21 412 31 Q 401 40 391 68 Q 375 110 370 198 L 354 198 L 354 198 Q 360 94 381 49 Q 402 5 432 6 Q 466 4 489 63 Q 511 122 512 262 Q 511 402 489 461 Q 466 520 432 518 Q 402 519 381 475 Q 360 430 354 326 L 370 326 L 370 326 Q 375 414 391 456 Q 401 484 412 493 Q 423 503 432 502 Q 441 503 452 493 Q 463 484 474 456 L 474 456 Z" />
</svg>