<svg xmlns="http://www.w3.org/2000/svg" viewBox="0 0 576 320">
  <path d="M 512 16 L 512 96 L 512 16 L 512 96 L 512 112 L 512 112 L 512 208 L 512 208 L 512 224 L 512 224 L 512 304 L 512 304 L 16 304 L 16 304 L 16 16 L 16 16 L 512 16 L 512 16 Z M 528 304 L 528 224 L 528 304 L 528 224 L 560 224 L 576 224 L 576 208 L 576 208 L 576 112 L 576 112 L 576 96 L 576 96 L 560 96 L 528 96 L 528 16 L 528 16 L 528 0 L 528 0 L 512 0 L 0 0 L 0 16 L 0 16 L 0 304 L 0 304 L 0 320 L 0 320 L 16 320 L 528 320 L 528 304 L 528 304 Z M 528 208 L 528 112 L 528 208 L 528 112 L 560 112 L 560 112 L 560 208 L 560 208 L 528 208 L 528 208 Z M 80 80 L 448 80 L 80 80 L 448 80 L 448 240 L 448 240 L 80 240 L 80 240 L 80 80 L 80 80 Z M 64 64 L 64 80 L 64 64 L 64 80 L 64 240 L 64 240 L 64 256 L 64 256 L 80 256 L 464 256 L 464 240 L 464 240 L 464 80 L 464 80 L 464 64 L 464 64 L 448 64 L 64 64 Z" />
</svg>