<svg xmlns="http://www.w3.org/2000/svg" viewBox="0 0 640 384">
  <path d="M 352 16 L 264 16 L 352 16 L 264 16 L 264 96 L 264 96 L 384 96 L 384 96 L 448 128 L 448 128 L 608 96 L 608 96 L 640 128 L 640 128 L 432 352 L 432 352 L 384 352 L 96 352 L 96 336 L 96 336 L 96 281 L 96 281 L 0 240 L 0 240 L 0 112 L 0 112 L 0 96 L 0 96 L 16 96 L 248 96 L 248 16 L 248 16 L 160 16 L 160 16 L 160 0 L 160 0 L 352 0 L 352 0 L 352 16 L 352 16 Z M 96 112 L 16 112 L 96 112 L 16 112 L 16 229 L 16 229 L 96 264 L 96 264 L 96 112 L 96 112 Z M 446 145 L 441 142 L 446 145 L 441 142 L 380 112 L 380 112 L 112 112 L 112 112 L 112 271 L 112 271 L 112 288 L 112 288 L 112 336 L 112 336 L 384 336 L 425 336 L 618 128 L 618 128 L 603 113 L 603 113 L 451 144 L 451 144 L 446 145 L 446 145 Z M 624 336 Q 624 329 618 314 Q 611 299 602 284 Q 597 275 592 268 Q 592 268 592 268 Q 592 268 592 268 Q 587 275 582 284 Q 573 299 566 314 Q 560 329 560 336 Q 560 350 569 359 Q 578 368 592 368 Q 607 368 615 360 Q 623 354 624 336 L 624 336 Z M 544 336 Q 545 318 558 294 L 558 294 L 558 294 Q 571 270 582 254 Q 591 241 592 240 Q 593 241 602 254 Q 613 270 626 294 Q 639 318 640 336 Q 639 360 626 372 Q 612 384 592 384 Q 572 383 558 370 Q 545 356 544 336 L 544 336 Z" />
</svg>