<svg xmlns="http://www.w3.org/2000/svg" viewBox="0 0 480 480">
  <path d="M 344 0 L 336 0 L 344 0 L 336 0 L 336 16 L 336 16 L 344 16 L 453 16 L 360 109 L 360 109 L 318 66 L 318 66 L 312 61 L 312 61 L 301 72 L 301 72 L 306 78 L 306 78 L 349 120 L 349 120 L 298 170 L 298 170 L 295 174 L 295 174 Q 246 130 176 128 Q 101 130 52 180 Q 2 229 0 304 Q 2 379 52 428 Q 101 478 176 480 Q 251 478 300 428 Q 350 379 352 304 Q 350 234 306 185 L 310 182 L 310 182 L 360 131 L 360 131 L 402 174 L 402 174 L 408 179 L 408 179 L 419 168 L 419 168 L 414 162 L 414 162 L 371 120 L 371 120 L 464 27 L 464 27 L 464 136 L 464 136 L 464 144 L 464 144 L 480 144 L 480 144 L 480 136 L 480 136 L 480 8 L 480 8 L 480 0 L 480 0 L 472 0 L 344 0 Z M 16 304 Q 16 261 37 224 L 37 224 L 37 224 Q 59 187 96 165 Q 134 144 176 144 Q 218 144 256 165 Q 293 187 315 224 Q 336 261 336 304 Q 336 347 315 384 Q 293 421 256 443 Q 218 464 176 464 Q 134 464 96 443 Q 59 421 37 384 Q 16 347 16 304 L 16 304 Z" />
</svg>