<svg xmlns="http://www.w3.org/2000/svg" viewBox="0 0 640 512">
  <path d="M 640 0 L 0 0 L 640 0 L 0 0 L 0 16 L 0 16 L 80 16 L 80 16 L 80 96 L 80 96 L 16 96 L 0 96 L 0 112 L 0 112 L 0 400 L 0 400 L 0 416 L 0 416 L 16 416 L 64 416 Q 64 420 64 424 Q 65 461 90 486 Q 115 511 152 512 Q 189 511 214 486 Q 239 461 240 424 Q 240 420 240 416 L 400 416 L 400 416 Q 400 420 400 424 Q 401 461 426 486 Q 451 511 488 512 Q 525 511 550 486 Q 575 461 576 424 Q 576 420 576 416 L 624 416 L 640 416 L 640 400 L 640 400 L 640 112 L 640 112 L 640 96 L 640 96 L 624 96 L 560 96 L 560 88 L 560 88 Q 559 71 548 60 Q 537 48 520 48 Q 503 48 492 60 Q 480 71 480 88 L 480 96 L 480 96 L 384 96 L 384 96 L 384 16 L 384 16 L 640 16 L 640 16 L 640 0 L 640 0 Z M 368 16 L 368 96 L 368 16 L 368 96 L 288 96 L 288 96 L 288 16 L 288 16 L 368 16 L 368 16 Z M 272 16 L 272 96 L 272 16 L 272 96 L 192 96 L 192 96 L 192 16 L 192 16 L 272 16 L 272 16 Z M 176 16 L 176 96 L 176 16 L 176 96 L 96 96 L 96 96 L 96 16 L 96 16 L 176 16 L 176 16 Z M 544 96 L 496 96 L 544 96 L 496 96 L 496 88 L 496 88 Q 498 66 520 64 Q 542 66 544 88 L 544 96 L 544 96 Z M 544 112 L 560 112 L 544 112 L 624 112 L 624 400 L 624 400 L 573 400 L 573 400 Q 564 372 542 354 Q 519 337 488 336 Q 457 337 434 354 Q 412 372 403 400 L 237 400 L 237 400 Q 228 372 206 354 Q 183 337 152 336 Q 121 337 98 354 Q 76 372 67 400 L 16 400 L 16 400 L 16 272 L 16 272 L 424 272 L 432 272 L 432 264 L 432 264 L 432 112 L 432 112 L 480 112 L 544 112 Z M 416 112 L 416 256 L 416 112 L 416 256 L 16 256 L 16 256 L 16 112 L 16 112 L 416 112 L 416 112 Z M 576 160 L 576 256 L 576 160 L 576 256 L 480 256 L 480 256 L 480 160 L 480 160 L 576 160 L 576 160 Z M 480 144 L 464 144 L 480 144 L 464 144 L 464 160 L 464 160 L 464 256 L 464 256 L 464 272 L 464 272 L 480 272 L 592 272 L 592 256 L 592 256 L 592 160 L 592 160 L 592 144 L 592 144 L 576 144 L 480 144 Z M 152 352 Q 193 353 214 388 Q 234 424 214 460 Q 193 495 152 496 Q 111 495 90 460 Q 70 424 90 388 Q 111 353 152 352 L 152 352 Z M 416 424 Q 417 383 452 362 Q 488 342 524 362 Q 559 383 560 424 Q 559 465 524 486 Q 488 506 452 486 Q 417 465 416 424 L 416 424 Z" />
</svg>