<svg xmlns="http://www.w3.org/2000/svg" viewBox="0 0 512 512">
  <path d="M 192 240 L 64 280 L 192 240 L 64 280 L 0 480 L 0 480 L 10 490 L 10 490 L 22 502 L 22 502 L 32 512 L 32 512 L 232 448 L 232 448 L 272 320 L 272 320 L 500 115 L 500 115 L 512 104 L 512 104 L 501 93 L 501 93 L 419 11 L 419 11 L 408 0 L 408 0 L 397 12 L 397 12 L 192 240 L 192 240 Z M 106 417 Q 116 424 128 424 Q 145 424 156 412 Q 168 401 168 384 Q 168 367 156 356 Q 145 344 128 344 Q 111 344 100 356 Q 88 367 88 384 Q 88 396 95 406 L 22 479 L 22 479 L 18 476 L 18 476 L 77 293 L 77 293 L 196 255 L 196 255 L 257 316 L 257 316 L 219 435 L 219 435 L 36 494 L 36 494 L 33 490 L 33 490 L 106 417 L 106 417 Z M 209 245 L 409 23 L 209 245 L 409 23 L 489 103 L 489 103 L 267 303 L 267 303 L 209 245 L 209 245 Z M 104 384 Q 106 362 128 360 Q 150 362 152 384 Q 150 406 128 408 Q 106 406 104 384 L 104 384 Z" />
</svg>