<svg xmlns="http://www.w3.org/2000/svg" viewBox="0 0 320 512">
  <path d="M 80 16 L 240 16 L 80 16 L 240 16 L 240 256 L 240 256 Q 239 290 217 313 Q 194 335 160 336 Q 126 335 103 313 Q 81 290 80 256 L 80 16 L 80 16 Z M 64 0 L 64 16 L 64 0 L 64 16 L 64 256 L 64 256 Q 65 297 92 324 Q 119 351 160 352 Q 201 351 228 324 Q 255 297 256 256 L 256 16 L 256 16 L 256 0 L 256 0 L 240 0 L 64 0 Z M 16 200 L 16 192 L 16 200 L 16 192 L 0 192 L 0 192 L 0 200 L 0 200 L 0 256 L 0 256 Q 2 322 44 366 Q 87 411 152 416 L 152 496 L 152 496 L 72 496 L 64 496 L 64 512 L 64 512 L 72 512 L 256 512 L 256 496 L 256 496 L 248 496 L 168 496 L 168 416 L 168 416 Q 233 411 276 366 Q 318 322 320 256 L 320 200 L 320 200 L 320 192 L 320 192 L 304 192 L 304 192 L 304 200 L 304 200 L 304 256 L 304 256 Q 302 317 262 358 Q 221 398 160 400 Q 99 398 58 358 Q 18 317 16 256 L 16 200 L 16 200 Z" />
</svg>