<svg xmlns="http://www.w3.org/2000/svg" viewBox="0 0 500 512">
  <path d="M 266 32 Q 267 17 282 16 Q 297 17 298 32 Q 297 47 282 48 Q 267 47 266 32 L 266 32 Z M 314 32 Q 314 18 305 9 L 305 9 L 305 9 Q 296 0 282 0 Q 268 0 259 9 Q 250 18 250 32 Q 250 46 259 55 Q 268 64 282 64 Q 296 64 305 55 Q 314 46 314 32 L 314 32 Z M 186 48 Q 201 49 202 64 Q 201 79 186 80 Q 171 79 170 64 Q 171 49 186 48 L 186 48 Z M 186 96 Q 200 96 209 87 L 209 87 L 209 87 Q 218 78 218 64 Q 218 50 209 41 Q 200 32 186 32 Q 172 32 163 41 Q 154 50 154 64 Q 154 78 163 87 Q 172 96 186 96 L 186 96 Z M 458 240 L 458 496 L 458 240 L 458 496 L 42 496 L 42 496 L 42 240 L 42 240 L 242 240 L 458 240 Z M 458 224 L 258 224 L 458 224 L 258 224 L 258 126 L 258 126 L 492 72 L 492 72 L 500 70 L 500 70 L 496 54 L 496 54 L 488 56 L 488 56 L 248 112 L 248 112 L 8 168 L 8 168 L 0 170 L 0 170 L 4 186 L 4 186 L 12 184 L 12 184 L 242 130 L 242 130 L 242 224 L 242 224 L 42 224 L 26 224 L 26 240 L 26 240 L 26 496 L 26 496 L 26 512 L 26 512 L 42 512 L 474 512 L 474 496 L 474 496 L 474 240 L 474 240 L 474 224 L 474 224 L 458 224 L 458 224 Z M 90 384 L 90 288 L 90 384 L 90 288 L 186 288 L 186 288 L 186 384 L 186 384 L 90 384 L 90 384 Z M 202 384 L 202 288 L 202 384 L 202 288 L 298 288 L 298 288 L 298 384 L 298 384 L 202 384 L 202 384 Z M 314 384 L 314 288 L 314 384 L 314 288 L 410 288 L 410 288 L 410 384 L 410 384 L 314 384 L 314 384 Z M 74 272 L 74 288 L 74 272 L 74 288 L 74 384 L 74 384 L 74 400 L 74 400 L 90 400 L 426 400 L 426 384 L 426 384 L 426 288 L 426 288 L 426 272 L 426 272 L 410 272 L 74 272 Z" />
</svg>