<svg xmlns="http://www.w3.org/2000/svg" viewBox="0 0 448 448">
  <path d="M 16 16 L 16 176 L 16 16 L 16 176 L 176 176 L 176 176 L 176 16 L 176 16 L 16 16 L 16 16 Z M 0 0 L 16 0 L 0 0 L 192 0 L 192 16 L 192 16 L 192 176 L 192 176 L 192 192 L 192 192 L 176 192 L 0 192 L 0 176 L 0 176 L 0 16 L 0 16 L 0 0 L 0 0 Z M 16 272 L 16 432 L 16 272 L 16 432 L 176 432 L 176 432 L 176 272 L 176 272 L 16 272 L 16 272 Z M 0 256 L 16 256 L 0 256 L 192 256 L 192 272 L 192 272 L 192 432 L 192 432 L 192 448 L 192 448 L 176 448 L 0 448 L 0 432 L 0 432 L 0 272 L 0 272 L 0 256 L 0 256 Z M 432 16 L 272 16 L 432 16 L 272 16 L 272 176 L 272 176 L 432 176 L 432 176 L 432 16 L 432 16 Z M 272 0 L 432 0 L 272 0 L 448 0 L 448 16 L 448 16 L 448 176 L 448 176 L 448 192 L 448 192 L 432 192 L 256 192 L 256 176 L 256 176 L 256 16 L 256 16 L 256 0 L 256 0 L 272 0 L 272 0 Z M 272 272 L 272 432 L 272 272 L 272 432 L 432 432 L 432 432 L 432 272 L 432 272 L 272 272 L 272 272 Z M 256 256 L 272 256 L 256 256 L 448 256 L 448 272 L 448 272 L 448 432 L 448 432 L 448 448 L 448 448 L 432 448 L 256 448 L 256 432 L 256 432 L 256 272 L 256 272 L 256 256 L 256 256 Z" />
</svg>