<svg xmlns="http://www.w3.org/2000/svg" viewBox="0 0 640 512">
  <path d="M 29 0 L 48 15 L 29 0 L 48 15 L 71 32 L 71 32 L 608 32 L 608 32 L 608 449 L 608 449 L 621 459 L 621 459 L 640 474 L 640 474 L 611 512 L 611 512 L 592 497 L 592 497 L 19 53 L 19 53 L 0 38 L 0 38 L 29 0 L 29 0 Z M 384 275 L 400 288 L 384 275 L 400 288 L 408 288 L 512 288 L 512 240 L 512 240 L 488 240 L 384 240 L 384 275 L 384 275 Z M 512 375 L 512 336 L 512 375 L 512 336 L 488 336 L 462 336 L 512 375 L 512 375 Z M 32 121 L 183 240 L 32 121 L 183 240 L 152 240 L 128 240 L 128 288 L 128 288 L 152 288 L 244 288 L 305 336 L 305 336 L 288 336 L 288 336 L 288 384 L 288 384 L 312 384 L 366 384 L 487 480 L 487 480 L 32 480 L 32 480 L 32 121 L 32 121 Z M 128 336 L 128 384 L 128 336 L 128 384 L 152 384 L 256 384 L 256 336 L 256 336 L 232 336 L 128 336 Z" />
</svg>