<svg xmlns="http://www.w3.org/2000/svg" viewBox="0 0 475 448">
  <path d="M 123 443 L 129 438 L 123 443 L 129 438 L 241 326 L 241 326 L 246 320 L 246 320 L 235 309 L 235 309 L 229 314 L 229 314 L 131 413 L 131 413 L 131 8 L 131 8 L 131 0 L 131 0 L 115 0 L 115 0 L 115 8 L 115 8 L 115 413 L 115 413 L 17 314 L 17 314 L 11 309 L 11 309 L 0 320 L 0 320 L 5 326 L 5 326 L 117 438 L 117 438 L 123 443 L 123 443 Z M 331 256 L 331 272 L 331 256 L 331 272 L 339 272 L 387 272 L 387 432 L 387 432 L 339 432 L 331 432 L 331 448 L 331 448 L 339 448 L 459 448 L 459 432 L 459 432 L 451 432 L 403 432 L 403 264 L 403 264 L 403 256 L 403 256 L 395 256 L 331 256 Z M 391 152 Q 352 151 332 118 Q 314 84 332 50 Q 352 17 391 16 Q 430 17 450 50 Q 468 84 450 118 Q 429 151 391 152 L 391 152 Z M 391 168 Q 405 168 417 164 L 369 224 L 369 224 L 389 224 L 389 224 L 451 147 L 451 147 Q 463 132 469 115 Q 475 100 475 84 Q 475 83 475 82 Q 475 81 475 80 Q 475 80 475 80 Q 473 46 449 23 Q 426 1 391 0 Q 355 1 332 25 Q 308 48 307 84 Q 308 120 332 143 Q 355 167 391 168 L 391 168 Z" />
</svg>