<svg xmlns="http://www.w3.org/2000/svg" viewBox="0 0 512 512">
  <path d="M 88 0 L 168 0 L 88 0 L 176 0 L 176 8 L 176 8 L 176 88 L 176 88 L 176 91 L 176 91 L 175 93 L 175 93 L 136 147 L 136 147 L 136 192 L 136 192 Q 181 196 210 220 Q 239 244 240 280 Q 240 298 232 313 Q 222 333 235 351 Q 241 359 246 368 Q 243 375 239 382 Q 239 382 238 383 Q 237 385 237 386 Q 232 373 223 361 Q 204 334 218 306 Q 224 294 224 280 Q 224 253 200 232 Q 176 212 136 208 L 136 281 L 136 281 Q 166 289 168 320 Q 168 337 156 348 Q 145 360 128 360 Q 111 360 100 348 Q 89 337 88 320 Q 90 289 120 281 L 120 208 L 120 208 Q 80 212 56 232 Q 33 253 32 280 Q 32 294 39 306 Q 52 334 34 361 Q 16 382 16 408 Q 17 443 48 469 Q 78 495 128 496 Q 161 496 185 484 Q 210 471 225 452 Q 226 462 229 472 Q 192 510 128 512 Q 74 511 37 482 Q 1 452 0 408 Q 1 376 21 351 Q 34 333 24 313 Q 16 298 16 280 Q 17 244 46 220 Q 75 195 120 192 L 120 147 L 120 147 L 82 93 L 82 93 L 80 91 L 80 91 L 80 88 L 80 88 L 80 8 L 80 8 L 80 0 L 80 0 L 88 0 L 88 0 Z M 160 85 L 160 16 L 160 85 L 160 16 L 96 16 L 96 16 L 96 85 L 96 85 L 128 130 L 128 130 L 160 85 L 160 85 Z M 392 240 Q 433 237 445 216 L 445 216 L 445 216 Q 457 195 456 192 L 472 192 L 488 192 L 488 208 L 488 208 L 488 230 L 488 230 Q 487 248 480 267 Q 480 267 480 267 Q 480 267 480 267 Q 480 267 480 267 Q 480 267 480 267 Q 480 267 480 267 Q 480 267 480 267 Q 480 267 480 267 Q 480 267 480 267 Q 480 267 480 267 Q 480 267 480 267 Q 480 267 480 267 Q 477 273 476 279 Q 472 289 472 304 Q 473 330 482 355 Q 491 380 501 397 Q 512 416 512 438 Q 511 469 490 490 Q 470 511 438 512 L 330 512 L 330 512 Q 298 511 278 490 Q 257 470 256 438 Q 256 416 267 397 Q 277 380 286 355 Q 295 330 296 304 Q 296 289 292 279 Q 291 273 289 267 Q 289 267 289 267 Q 289 267 289 267 Q 289 267 289 267 Q 289 267 289 267 Q 289 267 289 267 Q 289 267 289 267 Q 289 267 289 267 Q 289 267 289 267 Q 289 267 289 267 Q 289 267 289 267 Q 288 267 288 267 Q 281 249 280 230 L 280 192 L 280 192 L 280 176 L 280 176 L 296 176 L 312 176 Q 311 177 314 193 Q 317 208 331 224 Q 345 239 376 240 L 376 163 L 376 163 L 330 109 L 330 109 L 328 107 L 328 107 L 328 103 L 328 103 L 344 7 L 344 7 L 345 0 L 345 0 L 352 0 L 384 0 Q 401 0 412 12 Q 424 23 424 40 Q 422 71 392 79 L 392 160 L 392 160 L 392 240 L 392 240 Z M 330 243 Q 313 231 306 215 Q 300 202 298 192 L 296 192 L 296 192 L 296 229 L 296 229 Q 296 239 300 250 Q 301 254 303 259 Q 303 260 304 262 L 304 262 L 304 262 Q 304 264 305 265 Q 306 270 308 275 Q 312 287 312 304 Q 311 333 301 360 Q 291 387 281 404 Q 272 421 272 438 Q 273 463 289 479 Q 305 495 330 496 L 438 496 L 438 496 Q 463 495 479 479 Q 495 463 496 438 Q 496 421 487 404 Q 477 387 467 360 Q 457 333 456 304 Q 456 287 460 275 Q 462 268 464 262 Q 464 262 464 262 Q 464 262 464 262 Q 464 262 464 262 L 465 262 L 465 262 Q 467 256 468 250 Q 472 239 472 229 L 472 208 L 472 208 L 468 208 L 468 208 Q 465 216 458 226 Q 449 238 433 247 Q 417 256 392 256 L 376 256 L 376 256 Q 348 256 330 243 L 330 243 Z M 128 344 Q 150 342 152 320 Q 150 298 128 296 Q 106 298 104 320 Q 106 342 128 344 L 128 344 Z M 376 138 L 376 72 L 376 138 L 376 72 L 376 64 L 376 64 L 384 64 L 384 64 Q 406 62 408 40 Q 406 18 384 16 L 359 16 L 359 16 L 345 102 L 345 102 L 376 138 L 376 138 Z M 352 320 L 416 320 L 352 320 L 424 320 L 424 336 L 424 336 L 416 336 L 344 336 L 344 320 L 344 320 L 352 320 L 352 320 Z M 352 384 L 416 384 L 352 384 L 424 384 L 424 400 L 424 400 L 416 400 L 344 400 L 344 384 L 344 384 L 352 384 L 352 384 Z" />
</svg>