<svg xmlns="http://www.w3.org/2000/svg" viewBox="0 0 442 512">
  <path d="M 124 0 L 130 0 L 124 0 L 394 0 L 394 8 L 394 8 L 394 416 L 394 416 Q 414 417 428 430 Q 441 444 442 464 Q 441 484 428 498 Q 414 511 394 512 Q 374 511 360 498 Q 347 484 346 464 Q 348 431 378 419 L 378 208 L 378 208 L 89 208 L 89 208 L 18 498 L 18 498 L 16 506 L 16 506 L 0 502 L 0 502 L 2 494 L 2 494 L 122 6 L 122 6 L 124 0 L 124 0 Z M 93 192 L 378 192 L 93 192 L 378 192 L 378 16 L 378 16 L 136 16 L 136 16 L 93 192 L 93 192 Z M 394 496 Q 408 496 417 487 L 417 487 L 417 487 Q 426 478 426 464 Q 426 450 417 441 Q 408 432 394 432 Q 380 432 371 441 Q 362 450 362 464 Q 362 478 371 487 Q 380 496 394 496 L 394 496 Z" />
</svg>