<svg xmlns="http://www.w3.org/2000/svg" viewBox="0 0 640 512">
  <path d="M 288 0 L 296 0 L 288 0 L 512 0 L 512 8 L 512 8 L 512 192 L 512 192 L 560 192 L 560 192 L 560 104 L 560 104 L 560 96 L 560 96 L 576 96 L 576 96 L 576 104 L 576 104 L 576 192 L 576 192 L 632 192 L 640 192 L 640 200 L 640 200 L 640 504 L 640 504 L 640 512 L 640 512 L 624 512 L 624 512 L 624 504 L 624 504 L 624 208 L 624 208 L 576 208 L 496 208 L 496 200 L 496 200 L 496 16 L 496 16 L 304 16 L 304 16 L 304 504 L 304 504 L 304 512 L 304 512 L 288 512 L 288 512 L 288 504 L 288 504 L 288 8 L 288 8 L 288 0 L 288 0 Z M 206 182 L 207 173 L 206 182 L 207 173 Q 208 166 208 160 Q 207 126 185 103 Q 162 81 128 80 Q 94 81 71 103 Q 49 126 48 160 Q 48 166 49 173 L 51 182 L 51 182 L 43 188 L 43 188 Q 17 207 16 240 L 16 304 L 16 304 L 120 304 L 120 304 L 120 232 L 120 232 L 120 224 L 120 224 L 136 224 L 136 224 L 136 232 L 136 232 L 136 304 L 136 304 L 240 304 L 240 304 L 240 240 L 240 240 Q 239 207 213 188 L 205 182 L 206 182 Z M 16 320 L 0 320 L 16 320 L 0 320 L 0 304 L 0 304 L 0 240 L 0 240 Q 2 198 33 175 Q 32 168 32 160 Q 33 119 60 92 Q 87 65 128 64 Q 169 65 196 92 Q 223 119 224 160 Q 224 168 223 175 Q 254 198 256 240 L 256 304 L 256 304 L 256 320 L 256 320 L 240 320 L 136 320 L 136 504 L 136 504 L 136 512 L 136 512 L 120 512 L 120 512 L 120 504 L 120 504 L 120 320 L 120 320 L 16 320 L 16 320 Z M 368 72 L 432 72 L 368 72 L 440 72 L 440 80 L 440 80 L 440 144 L 440 144 L 440 152 L 440 152 L 432 152 L 360 152 L 360 144 L 360 144 L 360 80 L 360 80 L 360 72 L 360 72 L 368 72 L 368 72 Z M 376 136 L 424 136 L 376 136 L 424 136 L 424 88 L 424 88 L 376 88 L 376 88 L 376 136 L 376 136 Z M 488 264 L 496 264 L 488 264 L 568 264 L 568 272 L 568 272 L 568 336 L 568 336 L 568 344 L 568 344 L 560 344 L 488 344 L 488 336 L 488 336 L 488 272 L 488 272 L 488 264 L 488 264 Z M 504 328 L 552 328 L 504 328 L 552 328 L 552 280 L 552 280 L 504 280 L 504 280 L 504 328 L 504 328 Z M 496 392 L 560 392 L 496 392 L 568 392 L 568 400 L 568 400 L 568 464 L 568 464 L 568 472 L 568 472 L 560 472 L 488 472 L 488 464 L 488 464 L 488 400 L 488 400 L 488 392 L 488 392 L 496 392 L 496 392 Z M 504 456 L 552 456 L 504 456 L 552 456 L 552 408 L 552 408 L 504 408 L 504 408 L 504 456 L 504 456 Z M 360 200 L 368 200 L 360 200 L 440 200 L 440 208 L 440 208 L 440 272 L 440 272 L 440 280 L 440 280 L 432 280 L 360 280 L 360 272 L 360 272 L 360 208 L 360 208 L 360 200 L 360 200 Z M 376 264 L 424 264 L 376 264 L 424 264 L 424 216 L 424 216 L 376 216 L 376 216 L 376 264 L 376 264 Z M 368 328 L 432 328 L 368 328 L 440 328 L 440 336 L 440 336 L 440 400 L 440 400 L 440 408 L 440 408 L 432 408 L 360 408 L 360 400 L 360 400 L 360 336 L 360 336 L 360 328 L 360 328 L 368 328 L 368 328 Z M 376 392 L 424 392 L 376 392 L 424 392 L 424 344 L 424 344 L 376 344 L 376 344 L 376 392 L 376 392 Z" />
</svg>