<svg xmlns="http://www.w3.org/2000/svg" viewBox="0 0 512 512">
  <path d="M 0 288 L 19 296 L 0 288 L 19 296 L 192 370 L 192 370 Q 192 370 192 370 Q 192 370 192 370 L 192 384 L 192 384 L 192 424 L 192 424 L 192 496 L 192 496 L 240 512 L 240 512 L 292 413 L 292 413 L 278 407 L 278 407 L 232 493 L 232 493 L 208 485 L 208 485 L 208 424 L 208 424 L 208 384 L 208 384 L 208 377 L 208 377 Q 208 377 208 377 Q 208 377 208 377 L 224 384 L 224 384 L 433 474 L 433 474 L 448 480 L 448 480 L 450 464 L 450 464 L 509 20 L 509 20 L 512 0 L 512 0 L 495 10 L 495 10 L 18 278 L 18 278 L 0 288 L 0 288 Z M 215 363 L 491 37 L 215 363 L 491 37 L 435 457 L 435 457 L 230 369 L 230 369 L 215 363 L 215 363 Z M 462 46 L 200 356 L 462 46 L 200 356 L 36 286 L 36 286 L 462 46 L 462 46 Z" />
</svg>