<svg xmlns="http://www.w3.org/2000/svg" viewBox="0 0 640 512">
  <path d="M 112 0 L 96 0 L 112 0 L 96 0 L 96 16 L 96 16 L 96 160 L 96 160 L 32 160 L 0 160 L 0 192 L 0 192 L 0 288 L 0 288 L 0 320 L 0 320 L 32 320 L 384 320 L 384 288 L 384 288 L 384 224 L 384 224 L 384 192 L 384 192 L 384 160 L 384 160 L 384 155 L 384 155 L 381 151 L 381 151 L 285 7 L 285 7 L 281 0 L 281 0 L 272 0 L 112 0 Z M 349 160 L 128 160 L 349 160 L 128 160 L 128 32 L 128 32 L 263 32 L 263 32 L 349 160 L 349 160 Z M 32 288 L 32 192 L 32 288 L 32 192 L 352 192 L 352 192 L 352 224 L 352 224 L 352 288 L 352 288 L 32 288 L 32 288 Z M 336 384 Q 356 385 370 398 L 370 398 L 370 398 Q 383 412 384 432 Q 383 452 370 466 Q 356 479 336 480 L 80 480 L 80 480 Q 60 479 46 466 Q 33 452 32 432 Q 33 412 46 398 Q 60 385 80 384 L 336 384 L 336 384 Z M 80 352 Q 46 353 23 375 L 23 375 L 23 375 Q 1 398 0 432 Q 1 466 23 489 Q 46 511 80 512 L 336 512 L 336 512 Q 370 511 393 489 Q 415 466 416 432 Q 415 398 393 375 Q 370 353 336 352 L 80 352 L 80 352 Z M 480 477 L 608 349 L 480 477 L 608 349 L 608 352 L 608 352 L 608 384 L 608 384 L 608 432 L 608 432 Q 607 452 594 466 Q 580 479 560 480 L 480 480 L 480 480 L 480 477 L 480 477 Z M 640 432 L 640 384 L 640 432 L 640 384 L 640 352 L 640 352 L 640 320 L 640 320 L 640 317 L 640 317 L 640 272 L 640 272 L 640 128 L 640 128 L 640 57 L 640 57 L 640 32 L 640 32 L 640 0 L 640 0 L 608 0 L 576 0 L 416 139 L 416 139 L 416 181 L 416 181 L 588 32 L 588 32 L 608 32 L 608 32 L 608 85 L 608 85 L 587 104 L 587 104 L 416 255 L 416 255 L 416 297 L 416 297 L 576 156 L 576 156 L 608 128 L 608 128 L 608 171 L 608 171 L 608 304 L 608 304 L 448 464 L 448 464 L 448 480 L 448 480 L 448 512 L 448 512 L 480 512 L 560 512 Q 594 511 617 489 Q 639 466 640 432 L 640 432 Z M 112 456 Q 134 454 136 432 Q 134 410 112 408 Q 90 410 88 432 Q 90 454 112 456 L 112 456 Z M 232 432 Q 230 410 208 408 Q 186 410 184 432 Q 186 454 208 456 Q 230 454 232 432 L 232 432 Z M 304 456 Q 326 454 328 432 Q 326 410 304 408 Q 282 410 280 432 Q 282 454 304 456 L 304 456 Z" />
</svg>