<svg xmlns="http://www.w3.org/2000/svg" viewBox="0 0 576 507">
  <path d="M 288 0 L 282 5 L 288 0 L 282 5 L 194 93 L 194 93 L 189 99 L 189 99 L 200 110 L 200 110 L 206 105 L 206 105 L 280 30 L 280 30 L 280 211 L 280 211 L 280 219 L 280 219 L 296 219 L 296 219 L 296 211 L 296 211 L 296 30 L 296 30 L 370 105 L 370 105 L 376 110 L 376 110 L 387 99 L 387 99 L 382 93 L 382 93 L 294 5 L 294 5 L 288 0 L 288 0 Z M 288 276 L 196 227 L 288 276 L 196 227 L 182 219 L 182 219 L 177 235 L 177 235 L 147 334 L 147 334 L 48 364 L 48 364 L 32 369 L 32 369 L 40 383 L 40 383 L 81 459 L 81 459 L 99 459 L 99 459 L 55 379 L 55 379 L 152 350 L 152 350 L 160 347 L 160 347 L 163 339 L 163 339 L 192 242 L 192 242 L 281 290 L 281 290 L 288 294 L 288 294 L 296 290 L 296 290 L 385 242 L 385 242 L 414 339 L 414 339 L 416 347 L 416 347 L 424 350 L 424 350 L 521 379 L 521 379 L 477 459 L 477 459 L 496 459 L 496 459 L 536 383 L 536 383 L 544 369 L 544 369 L 528 364 L 528 364 L 429 334 L 429 334 L 399 235 L 399 235 L 394 219 L 394 219 L 380 227 L 380 227 L 288 276 L 288 276 Z M 399 459 Q 392 417 362 391 L 362 391 L 362 391 Q 331 364 288 363 Q 245 364 214 391 Q 184 417 177 459 L 193 459 L 193 459 Q 200 424 226 402 Q 252 380 288 379 Q 324 380 350 402 Q 376 424 383 459 L 399 459 L 399 459 Z M 8 491 L 0 491 L 8 491 L 0 491 L 0 507 L 0 507 L 8 507 L 576 507 L 576 491 L 576 491 L 568 491 L 8 491 Z" />
</svg>