<svg xmlns="http://www.w3.org/2000/svg" viewBox="0 0 448 416">
  <path d="M 51 240 Q 64 303 111 343 L 111 343 L 111 343 Q 158 383 224 384 Q 264 384 298 368 Q 332 352 356 324 L 319 287 L 319 287 L 296 264 L 296 264 L 319 241 L 319 241 L 320 240 L 320 240 L 416 240 L 448 240 L 448 272 L 448 272 L 448 368 L 448 368 L 447 369 L 447 369 L 424 392 L 424 392 L 401 369 L 401 369 L 379 347 L 379 347 Q 350 379 310 397 Q 270 416 224 416 Q 144 414 88 365 Q 32 316 18 240 L 51 240 L 51 240 Z M 69 69 Q 98 37 138 19 L 138 19 L 138 19 Q 178 0 224 0 Q 304 2 360 51 Q 416 100 430 176 L 397 176 L 397 176 Q 385 113 337 73 Q 290 33 224 32 Q 184 32 150 48 Q 116 64 92 92 L 129 129 L 129 129 L 152 152 L 152 152 L 129 175 L 129 175 L 128 176 L 128 176 L 32 176 L 0 176 L 0 144 L 0 144 L 0 48 L 0 48 L 1 47 L 1 47 L 24 24 L 24 24 L 47 47 L 47 47 L 69 69 L 69 69 Z M 349 272 L 416 339 L 349 272 L 416 339 L 416 272 L 416 272 L 349 272 L 349 272 Z M 32 144 L 99 144 L 32 144 L 99 144 L 32 77 L 32 77 L 32 144 L 32 144 Z" />
</svg>