<svg xmlns="http://www.w3.org/2000/svg" viewBox="0 0 448 448">
  <path d="M 0 0 L 8 0 L 0 0 L 144 0 L 144 16 L 144 16 L 136 16 L 80 16 L 80 208 L 80 208 Q 82 269 122 310 Q 163 350 224 352 Q 285 350 326 310 Q 366 269 368 208 L 368 16 L 368 16 L 312 16 L 304 16 L 304 0 L 304 0 L 312 0 L 448 0 L 448 16 L 448 16 L 440 16 L 384 16 L 384 208 L 384 208 Q 382 276 337 321 Q 292 366 224 368 Q 156 366 111 321 Q 66 276 64 208 L 64 16 L 64 16 L 8 16 L 0 16 L 0 0 L 0 0 Z M 0 432 L 8 432 L 0 432 L 448 432 L 448 448 L 448 448 L 440 448 L 0 448 L 0 432 L 0 432 Z" />
</svg>