<svg xmlns="http://www.w3.org/2000/svg" viewBox="0 0 522 510">
  <path d="M 497 47 L 510 56 L 497 47 L 510 56 L 501 69 L 501 69 L 222 459 L 222 459 Q 204 483 178 496 Q 153 510 123 510 Q 70 509 35 473 Q 1 438 0 386 Q 0 361 9 338 L 37 274 L 37 274 L 43 259 L 43 259 L 58 266 L 58 266 L 116 291 L 116 291 L 131 297 L 131 297 L 125 311 L 125 311 L 98 376 L 98 376 Q 96 381 96 386 Q 96 398 104 406 Q 111 414 122 414 Q 136 413 144 403 L 423 13 L 423 13 L 432 0 L 432 0 L 445 9 L 445 9 L 497 47 L 497 47 Z M 436 22 L 363 124 L 436 22 L 363 124 L 416 160 L 416 160 L 488 60 L 488 60 L 436 22 L 436 22 Z M 354 137 L 157 412 L 354 137 L 157 412 Q 144 429 122 430 Q 104 429 92 417 Q 80 405 80 386 Q 80 377 83 369 L 110 305 L 110 305 L 51 280 L 51 280 L 24 344 L 24 344 Q 16 364 16 386 Q 16 431 47 462 Q 77 493 123 494 Q 177 492 209 449 L 407 173 L 407 173 L 354 137 L 354 137 Z M 431 494 Q 467 493 486 462 Q 504 430 486 398 Q 467 367 431 366 Q 395 367 376 398 Q 358 430 376 462 Q 395 493 431 494 L 431 494 Z M 431 350 Q 476 351 500 390 Q 522 430 500 470 Q 476 509 431 510 Q 386 509 362 470 Q 340 430 362 390 Q 386 351 431 350 L 431 350 Z" />
</svg>