<svg xmlns="http://www.w3.org/2000/svg" viewBox="0 0 640 512">
  <path d="M 328 354 L 216 465 L 328 354 L 216 465 L 84 492 L 84 492 L 111 360 L 111 360 L 210 261 L 210 261 L 197 251 L 197 251 L 96 352 L 96 352 L 67 495 L 67 495 L 64 512 L 64 512 L 81 509 L 81 509 L 224 480 L 224 480 L 340 364 L 340 364 L 328 354 L 328 354 Z M 298 42 L 240 101 L 298 42 L 240 101 L 252 111 L 252 111 L 304 59 L 304 59 L 346 102 L 346 102 L 300 148 L 300 148 L 312 158 L 312 158 L 358 113 L 358 113 L 463 218 L 463 218 L 430 251 L 430 251 L 443 261 L 443 261 L 474 230 L 474 230 Q 474 230 474 230 Q 474 230 474 230 L 486 218 L 486 218 Q 486 218 486 218 L 565 139 L 565 139 L 576 128 L 576 128 L 565 117 L 565 117 L 459 11 L 459 11 L 448 0 L 448 0 L 437 11 L 437 11 L 358 90 L 358 90 L 310 42 L 310 42 L 304 37 L 304 37 L 298 42 L 298 42 Z M 474 207 L 369 102 L 474 207 L 369 102 L 448 23 L 448 23 L 553 128 L 553 128 L 474 207 L 474 207 Z M 16 5 L 10 0 L 16 5 L 10 0 L 0 13 L 0 13 L 6 18 L 6 18 L 624 507 L 624 507 L 630 512 L 630 512 L 640 500 L 640 500 L 634 495 L 634 495 L 16 5 L 16 5 Z" />
</svg>