<svg xmlns="http://www.w3.org/2000/svg" viewBox="0 0 512 512">
  <path d="M 350 224 L 329 224 L 350 224 L 329 224 L 490 41 L 490 41 L 471 22 L 471 22 L 242 224 L 242 224 L 218 224 L 218 224 L 472 0 L 472 0 L 512 40 L 512 40 L 350 224 L 350 224 Z M 107 501 L 96 512 L 107 501 L 96 512 L 85 501 L 85 501 L 11 427 L 11 427 L 0 416 L 0 416 L 11 405 L 11 405 L 160 256 L 160 256 L 329 256 L 352 256 L 336 272 L 336 272 L 107 501 L 107 501 Z M 96 489 L 178 408 L 96 489 L 178 408 Q 174 409 170 406 L 144 379 L 144 379 L 65 458 L 65 458 L 96 489 L 96 489 Z M 313 272 L 167 272 L 313 272 L 167 272 L 111 328 L 111 328 Q 115 327 118 330 L 150 362 L 150 362 L 182 394 L 182 394 Q 185 398 184 402 L 313 272 L 313 272 Z M 23 416 L 54 447 L 23 416 L 54 447 L 133 368 L 133 368 L 106 342 L 106 342 Q 103 338 104 335 L 23 416 L 23 416 Z" />
</svg>