<svg xmlns="http://www.w3.org/2000/svg" viewBox="0 0 512 512">
  <path d="M 25.6 76.8 L 281.6 76.8 L 281.6 264.8 Q 292.8 248.8 307.2 236.8 L 307.2 76.8 L 307.2 51.2 L 281.6 51.2 L 25.6 51.2 L 0 51.2 L 0 76.8 L 0 435.2 L 0 460.8 L 25.6 460.8 L 102.4 460.8 L 128 460.8 L 179.2 460.8 L 204.8 460.8 L 281.6 460.8 L 307.2 460.8 L 307.2 454.4 Q 292.8 442.4 281.6 426.4 L 281.6 435.2 L 204.8 435.2 L 204.8 371.2 L 204.8 345.6 L 179.2 345.6 L 128 345.6 L 102.4 345.6 L 102.4 371.2 L 102.4 435.2 L 25.6 435.2 L 25.6 76.8 L 25.6 76.8 Z M 128 435.2 L 128 371.2 L 179.2 371.2 L 179.2 435.2 L 128 435.2 L 128 435.2 Z M 51.2 128 L 51.2 140.8 L 51.2 192 L 51.2 204.8 L 64 204.8 L 115.2 204.8 L 128 204.8 L 128 192 L 128 140.8 L 128 128 L 115.2 128 L 64 128 L 51.2 128 L 51.2 128 Z M 76.8 153.6 L 102.4 153.6 L 102.4 179.2 L 76.8 179.2 L 76.8 153.6 L 76.8 153.6 Z M 192 128 L 179.2 128 L 179.2 140.8 L 179.2 192 L 179.2 204.8 L 192 204.8 L 243.2 204.8 L 256 204.8 L 256 192 L 256 140.8 L 256 128 L 243.2 128 L 192 128 L 192 128 Z M 204.8 179.2 L 204.8 153.6 L 230.4 153.6 L 230.4 179.2 L 204.8 179.2 L 204.8 179.2 Z M 51.2 230.4 L 51.2 243.2 L 51.2 294.4 L 51.2 307.2 L 64 307.2 L 115.2 307.2 L 128 307.2 L 128 294.4 L 128 243.2 L 128 230.4 L 115.2 230.4 L 64 230.4 L 51.2 230.4 L 51.2 230.4 Z M 76.8 256 L 102.4 256 L 102.4 281.6 L 76.8 281.6 L 76.8 256 L 76.8 256 Z M 192 230.4 L 179.2 230.4 L 179.2 243.2 L 179.2 294.4 L 179.2 307.2 L 192 307.2 L 243.2 307.2 L 256 307.2 L 256 294.4 L 256 243.2 L 256 230.4 L 243.2 230.4 L 192 230.4 L 192 230.4 Z M 204.8 281.6 L 204.8 256 L 230.4 256 L 230.4 281.6 L 204.8 281.6 L 204.8 281.6 Z M 396.8 256 Q 420.8 256 441.6 268 L 441.6 268 Q 462.4 280 474.4 300.8 Q 486.4 321.6 486.4 345.6 Q 486.4 369.6 474.4 390.4 Q 462.4 411.2 441.6 423.2 Q 420.8 435.2 396.8 435.2 Q 372.8 435.2 352 423.2 Q 331.2 411.2 319.2 390.4 Q 307.2 369.6 307.2 345.6 Q 307.2 321.6 319.2 300.8 Q 331.2 280 352 268 Q 372.8 256 396.8 256 L 396.8 256 Z M 396.8 460.8 Q 428 460.8 454.4 445.6 L 454.4 445.6 Q 480.8 430.4 496.8 403.2 Q 512 376 512 345.6 Q 512 315.2 496.8 288 Q 480.8 260.8 454.4 245.6 Q 428 230.4 396.8 230.4 Q 365.6 230.4 339.2 245.6 Q 312.8 260.8 296.8 288 Q 281.6 315.2 281.6 345.6 Q 281.6 376 296.8 403.2 Q 312.8 430.4 339.2 445.6 Q 365.6 460.8 396.8 460.8 L 396.8 460.8 Z M 403.2 282.4 L 384.8 300.8 L 394.4 309.6 L 394.4 309.6 L 394.4 310.4 L 394.4 310.4 L 394.4 310.4 L 394.4 310.4 L 394.4 310.4 L 394.4 310.4 L 395.2 310.4 L 395.2 310.4 L 395.2 310.4 L 395.2 310.4 L 395.2 311.2 L 395.2 311.2 L 395.2 311.2 L 395.2 311.2 L 395.2 311.2 L 395.2 311.2 L 396 311.2 L 396 311.2 L 396 311.2 L 396 311.2 L 396 312 L 396 312 L 396 312 L 396 312 L 396 312 L 396 312 L 396.8 312 L 396.8 312 L 396.8 312 L 396.8 312 L 396.8 312.8 L 396.8 312.8 L 396.8 312.8 L 396.8 312.8 L 396.8 312.8 L 396.8 312.8 L 397.6 312.8 L 397.6 312.8 L 397.6 312.8 L 397.6 312.8 L 397.6 313.6 L 397.6 313.6 L 397.6 313.6 L 397.6 313.6 L 397.6 313.6 L 397.6 313.6 L 398.4 313.6 L 398.4 313.6 L 398.4 313.6 L 398.4 313.6 L 398.4 314.4 L 398.4 314.4 L 398.4 314.4 L 398.4 314.4 L 398.4 314.4 L 398.4 314.4 L 399.2 314.4 L 399.2 314.4 L 399.2 314.4 L 399.2 314.4 L 399.2 315.2 L 399.2 315.2 L 399.2 315.2 L 399.2 315.2 L 399.2 315.2 L 399.2 315.2 L 400 315.2 L 400 315.2 L 400 315.2 L 400 315.2 L 400 316 L 400 316 L 400 316 L 400 316 L 400 316 L 400 316 L 400.8 316 L 400.8 316 L 400.8 316 L 400.8 316 L 400.8 316.8 L 400.8 316.8 L 400.8 316.8 L 400.8 316.8 L 400.8 316.8 L 400.8 316.8 L 401.6 316.8 L 401.6 316.8 L 401.6 316.8 L 401.6 316.8 L 401.6 317.6 L 401.6 317.6 L 401.6 317.6 L 401.6 317.6 L 401.6 317.6 L 401.6 317.6 L 402.4 317.6 L 402.4 317.6 L 402.4 317.6 L 402.4 317.6 L 402.4 318.4 L 402.4 318.4 L 402.4 318.4 L 402.4 318.4 L 402.4 318.4 L 402.4 318.4 L 403.2 318.4 L 403.2 318.4 L 403.2 318.4 L 403.2 318.4 L 403.2 319.2 L 403.2 319.2 L 403.2 319.2 L 403.2 319.2 L 403.2 319.2 L 403.2 319.2 L 404 319.2 L 404 319.2 L 404 319.2 L 404 319.2 L 404 320 L 404 320 L 404 320 L 404 320 L 404 320 L 404 320 L 404.8 320 L 404.8 320 L 404.8 320 L 404.8 320 L 404.8 320.8 L 404.8 320.8 L 404.8 320.8 L 404.8 320.8 L 404.8 320.8 L 404.8 320.8 L 405.6 320.8 L 405.6 320.8 L 405.6 320.8 L 405.6 320.8 L 405.6 321.6 L 405.6 321.6 L 405.6 321.6 L 405.6 321.6 L 405.6 321.6 L 405.6 321.6 L 406.4 321.6 L 406.4 321.6 L 406.4 321.6 L 406.4 321.6 L 406.4 322.4 L 406.4 322.4 L 406.4 322.4 L 406.4 322.4 L 406.4 322.4 L 406.4 322.4 L 407.2 322.4 L 407.2 322.4 L 407.2 322.4 L 407.2 322.4 L 407.2 323.2 L 407.2 323.2 L 407.2 323.2 L 407.2 323.2 L 407.2 323.2 L 407.2 323.2 L 408 323.2 L 408 323.2 L 408 323.2 L 408 323.2 L 408 324 L 408 324 L 408 324 L 408 324 L 408 324 L 408 324 L 408.8 324 L 408.8 324 L 408.8 324 L 408.8 324 L 408.8 324.8 L 408.8 324.8 L 408.8 324.8 L 408.8 324.8 L 408.8 324.8 L 408.8 324.8 L 409.6 324.8 L 409.6 324.8 L 409.6 324.8 L 409.6 324.8 L 409.6 325.6 L 409.6 325.6 L 409.6 325.6 L 409.6 325.6 L 409.6 325.6 L 409.6 325.6 L 410.4 325.6 L 410.4 325.6 L 410.4 325.6 L 410.4 325.6 L 410.4 326.4 L 345.6 326.4 L 332.8 326.4 L 332.8 352 L 345.6 352 L 416.8 352 L 394.4 374.4 L 384.8 390.4 L 403.2 408.8 L 412 399.2 L 456.8 354.4 L 466.4 345.6 L 456.8 336.8 L 448 345.6 L 456.8 336.8 L 456.8 336.8 L 456.8 336.8 L 456.8 336.8 L 456.8 336.8 L 456.8 336.8 L 456.8 336.8 L 456.8 336.8 L 456.8 336.8 L 456.8 336.8 L 456.8 336.8 L 456.8 336.8 L 456.8 336.8 L 456.8 336.8 L 456.8 336.8 L 456.8 336.8 L 456.8 336.8 L 456.8 336.8 L 456.8 336.8 L 456.8 336.8 L 456.8 336.8 L 456.8 336.8 L 456.8 336.8 L 456.8 336.8 L 456.8 336.8 L 456.8 336.8 L 456.8 336.8 L 456.8 336.8 L 456.8 336.8 L 456.8 336.8 L 456.8 336.8 L 456.8 336.8 L 456.8 336.8 L 456.8 336.8 L 456.8 336.8 L 456.8 336.8 L 456.8 336.8 L 456.8 336.8 L 456.8 336.8 L 456.8 336.8 L 456.8 336.8 L 456.8 336.8 L 456.8 336.8 L 456.8 336.8 L 456.8 336.8 L 456.8 336.8 L 456.8 336.8 L 456.8 336.8 L 456.8 336.8 L 456.8 336.8 L 456.8 336.8 L 456.8 336.8 L 456.8 336.8 L 456.8 336.8 L 456.8 336.8 L 456.8 336.8 L 456.8 336.8 L 456.8 336.8 L 456.8 336.8 L 456.8 336.8 L 456.8 336.8 L 456.8 336.8 L 456.8 336.8 L 456.8 336.8 L 456.8 336.8 L 456.8 336.8 L 456.8 336.8 L 456.8 336.8 L 456.8 336.8 L 456.8 336.8 L 456.8 336.8 L 456.8 336.8 L 456.8 336 L 456.8 336 L 456.8 336 L 456.8 336 L 456.8 336 L 456.8 336 L 456 336 L 456 336 L 456 336 L 456 335.2 L 456 335.2 L 456 335.2 L 456 335.2 L 456 335.2 L 456 335.2 L 456 335.2 L 455.2 335.2 L 455.2 335.2 L 455.2 335.2 L 455.2 334.4 L 455.2 334.4 L 455.2 334.4 L 455.2 334.4 L 455.2 334.4 L 455.2 334.4 L 455.2 334.4 L 454.4 334.4 L 454.4 334.4 L 454.4 334.4 L 454.4 333.6 L 454.4 333.6 L 454.4 333.6 L 454.4 333.6 L 454.4 333.6 L 454.4 333.6 L 454.4 333.6 L 453.6 333.6 L 453.6 333.6 L 453.6 333.6 L 453.6 332.8 L 453.6 332.8 L 453.6 332.8 L 453.6 332.8 L 453.6 332.8 L 453.6 332.8 L 453.6 332.8 L 452.8 332.8 L 452.8 332.8 L 452.8 332.8 L 452.8 332 L 452.8 332 L 452.8 332 L 452.8 332 L 452.8 332 L 452.8 332 L 452.8 332 L 452 332 L 452 332 L 452 332 L 452 331.2 L 452 331.2 L 452 331.2 L 452 331.2 L 452 331.2 L 452 331.2 L 452 331.2 L 451.2 331.2 L 451.2 331.2 L 451.2 331.2 L 451.2 330.4 L 451.2 330.4 L 451.2 330.4 L 451.2 330.4 L 451.2 330.4 L 451.2 330.4 L 451.2 330.4 L 450.4 330.4 L 450.4 330.4 L 450.4 330.4 L 450.4 329.6 L 450.4 329.6 L 450.4 329.6 L 450.4 329.6 L 450.4 329.6 L 450.4 329.6 L 450.4 329.6 L 449.6 329.6 L 449.6 329.6 L 449.6 329.6 L 449.6 328.8 L 449.6 328.8 L 449.6 328.8 L 449.6 328.8 L 449.6 328.8 L 449.6 328.8 L 449.6 328.8 L 448.8 328.8 L 448.8 328.8 L 448.8 328.8 L 448.8 328 L 448.8 328 L 448.8 328 L 448.8 328 L 448.8 328 L 448.8 328 L 448.8 328 L 448 328 L 448 328 L 448 328 L 448 327.2 L 448 327.2 L 448 327.2 L 448 327.2 L 448 327.2 L 448 327.2 L 448 327.2 L 447.2 327.2 L 447.2 327.2 L 447.2 327.2 L 447.2 326.4 L 447.2 326.4 L 447.2 326.4 L 447.2 326.4 L 447.2 326.4 L 447.2 326.4 L 447.2 326.4 L 446.4 326.4 L 446.4 326.4 L 446.4 326.4 L 446.4 325.6 L 446.4 325.6 L 446.4 325.6 L 446.4 325.6 L 446.4 325.6 L 446.4 325.6 L 446.4 325.6 L 445.6 325.6 L 445.6 325.6 L 445.6 325.6 L 445.6 324.8 L 445.6 324.8 L 445.6 324.8 L 445.6 324.8 L 445.6 324.8 L 445.6 324.8 L 445.6 324.8 L 444.8 324.8 L 444.8 324.8 L 444.8 324.8 L 444.8 324 L 444.8 324 L 444.8 324 L 444.8 324 L 444.8 324 L 444.8 324 L 444.8 324 L 444 324 L 444 324 L 444 324 L 444 323.2 L 444 323.2 L 444 323.2 L 444 323.2 L 444 323.2 L 444 323.2 L 444 323.2 L 443.2 323.2 L 443.2 323.2 L 443.2 323.2 L 443.2 322.4 L 443.2 322.4 L 443.2 322.4 L 443.2 322.4 L 443.2 322.4 L 443.2 322.4 L 443.2 322.4 L 442.4 322.4 L 442.4 322.4 L 442.4 322.4 L 442.4 321.6 L 442.4 321.6 L 442.4 321.6 L 442.4 321.6 L 442.4 321.6 L 442.4 321.6 L 442.4 321.6 L 441.6 321.6 L 441.6 321.6 L 441.6 321.6 L 441.6 320.8 L 441.6 320.8 L 441.6 320.8 L 441.6 320.8 L 441.6 320.8 L 441.6 320.8 L 441.6 320.8 L 440.8 320.8 L 440.8 320.8 L 440.8 320.8 L 440.8 320 L 440.8 320 L 440.8 320 L 440.8 320 L 440.8 320 L 440.8 320 L 440.8 320 L 440 320 L 440 320 L 440 320 L 440 319.2 L 440 319.2 L 440 319.2 L 440 319.2 L 440 319.2 L 440 319.2 L 440 319.2 L 439.2 319.2 L 439.2 319.2 L 439.2 319.2 L 439.2 318.4 L 439.2 318.4 L 439.2 318.4 L 439.2 318.4 L 439.2 318.4 L 439.2 318.4 L 439.2 318.4 L 438.4 318.4 L 438.4 318.4 L 438.4 318.4 L 438.4 317.6 L 438.4 317.6 L 438.4 317.6 L 438.4 317.6 L 438.4 317.6 L 438.4 317.6 L 438.4 317.6 L 437.6 317.6 L 437.6 317.6 L 437.6 317.6 L 437.6 316.8 L 437.6 316.8 L 437.6 316.8 L 437.6 316.8 L 437.6 316.8 L 437.6 316.8 L 437.6 316.8 L 436.8 316.8 L 436.8 316.8 L 436.8 316.8 L 436.8 316 L 436.8 316 L 436.8 316 L 436.8 316 L 436.8 316 L 436.8 316 L 436.8 316 L 436 316 L 436 316 L 436 316 L 436 315.2 L 436 315.2 L 436 315.2 L 436 315.2 L 436 315.2 L 436 315.2 L 436 315.2 L 435.2 315.2 L 435.2 315.2 L 435.2 315.2 L 435.2 314.4 L 435.2 314.4 L 435.2 314.4 L 435.2 314.4 L 435.2 314.4 L 435.2 314.4 L 435.2 314.4 L 434.4 314.4 L 434.4 314.4 L 434.4 314.4 L 434.4 313.6 L 434.4 313.6 L 434.4 313.6 L 434.4 313.6 L 434.4 313.6 L 434.4 313.6 L 434.4 313.6 L 433.6 313.6 L 433.6 313.6 L 433.6 313.6 L 433.6 312.8 L 433.6 312.8 L 433.6 312.8 L 433.6 312.8 L 433.6 312.8 L 433.6 312.8 L 433.6 312.8 L 432.8 312.8 L 432.8 312.8 L 432.8 312.8 L 432.8 312 L 432.8 312 L 432.8 312 L 432.8 312 L 432.8 312 L 432.8 312 L 432.8 312 L 432 312 L 432 312 L 432 312 L 432 311.2 L 432 311.2 L 432 311.2 L 432 311.2 L 432 311.2 L 432 311.2 L 432 311.2 L 431.2 311.2 L 431.2 311.2 L 431.2 311.2 L 431.2 310.4 L 431.2 310.4 L 431.2 310.4 L 431.2 310.4 L 431.2 310.4 L 431.2 310.4 L 431.2 310.4 L 430.4 310.4 L 430.4 310.4 L 430.4 310.4 L 430.4 309.6 L 430.4 309.6 L 430.4 309.6 L 430.4 309.6 L 430.4 309.6 L 430.4 309.6 L 430.4 309.6 L 429.6 309.6 L 429.6 309.6 L 429.6 309.6 L 429.6 308.8 L 429.6 308.8 L 429.6 308.8 L 429.6 308.8 L 429.6 308.8 L 429.6 308.8 L 429.6 308.8 L 428.8 308.8 L 428.8 308.8 L 428.8 308.8 L 428.8 308 L 428.8 308 L 428.8 308 L 428.8 308 L 428.8 308 L 428.8 308 L 428.8 308 L 428 308 L 428 308 L 428 308 L 428 307.2 L 428 307.2 L 428 307.2 L 428 307.2 L 428 307.2 L 428 307.2 L 428 307.2 L 427.2 307.2 L 427.2 307.2 L 427.2 307.2 L 427.2 306.4 L 427.2 306.4 L 427.2 306.4 L 427.2 306.4 L 427.2 306.4 L 427.2 306.4 L 427.2 306.4 L 426.4 306.4 L 426.4 306.4 L 426.4 306.4 L 426.4 305.6 L 426.4 305.6 L 426.4 305.6 L 426.4 305.6 L 426.4 305.6 L 426.4 305.6 L 426.4 305.6 L 425.6 305.6 L 425.6 305.6 L 425.6 305.6 L 425.6 304.8 L 425.6 304.8 L 425.6 304.8 L 425.6 304.8 L 425.6 304.8 L 425.6 304.8 L 425.6 304.8 L 424.8 304.8 L 424.8 304.8 L 424.8 304.8 L 424.8 304 L 424.8 304 L 424.8 304 L 424.8 304 L 424.8 304 L 424.8 304 L 424.8 304 L 424 304 L 424 304 L 424 304 L 424 303.2 L 424 303.2 L 424 303.2 L 424 303.2 L 424 303.2 L 424 303.2 L 424 303.2 L 423.2 303.2 L 423.2 303.2 L 423.2 303.2 L 423.2 302.4 L 423.2 302.4 L 423.2 302.4 L 423.2 302.4 L 423.2 302.4 L 423.2 302.4 L 423.2 302.4 L 422.4 302.4 L 422.4 302.4 L 422.4 302.4 L 422.4 301.6 L 422.4 301.6 L 422.4 301.6 L 422.4 301.6 L 422.4 301.6 L 422.4 301.6 L 422.4 301.6 L 421.6 301.6 L 421.6 301.6 L 421.6 301.6 L 421.6 300.8 L 403.2 282.4 L 403.2 282.4 Z" />
</svg>