<svg xmlns="http://www.w3.org/2000/svg" viewBox="0 0 512 512">
  <path d="M 339 161 L 345 156 L 339 161 L 345 156 L 356 167 L 356 167 L 351 173 L 351 173 L 299 224 L 299 224 L 480 224 L 480 224 Q 496 194 496 160 Q 495 103 455 62 L 450 57 L 450 57 Q 409 17 352 16 Q 295 17 254 57 L 80 231 L 80 231 L 80 421 L 80 421 L 339 161 L 339 161 Z M 283 240 L 203 320 L 283 240 L 203 320 L 393 320 L 393 320 L 456 258 L 456 258 Q 464 249 471 240 L 283 240 L 283 240 Z M 400 336 L 288 448 L 400 336 L 288 448 L 75 448 L 75 448 L 17 506 L 17 506 L 12 512 L 12 512 L 0 501 L 0 501 L 6 495 L 6 495 L 64 437 L 64 437 L 64 224 L 64 224 L 243 45 L 243 45 Q 288 1 352 0 Q 416 1 461 45 L 467 51 L 467 51 Q 511 96 512 160 Q 511 224 467 269 L 400 336 L 400 336 Z M 377 336 L 187 336 L 377 336 L 187 336 L 91 432 L 91 432 L 281 432 L 281 432 L 377 336 L 377 336 Z" />
</svg>