<svg xmlns="http://www.w3.org/2000/svg" viewBox="0 0 512 512">
  <path d="M 16 51.2 L 26.4 59.2 L 502.4 432.8 L 512 440.8 L 496 460.8 L 486.4 452.8 L 10.4 79.2 L 0 71.2 L 16 51.2 L 16 51.2 Z M 460.8 256 Q 449.6 284.8 423.2 322.4 L 403.2 307.2 Q 422.4 279.2 432.8 256 Q 424 235.2 407.2 210.4 Q 390.4 185.6 366.4 162.4 Q 340 136 305.6 119.2 Q 271.2 103.2 230.4 102.4 Q 193.6 102.4 162.4 116.8 L 139.2 99.2 Q 180 77.6 230.4 76.8 Q 293.6 78.4 340.8 109.6 Q 388.8 141.6 418.4 183.2 Q 448.8 224.8 460.8 256 L 460.8 256 Z M 0 256 L 0 256 L 0 256 L 0 256 L 0 256 Z M 230.4 153.6 Q 272.8 154.4 301.6 182.4 L 301.6 182.4 Q 329.6 209.6 332.8 251.2 L 301.6 226.4 Q 293.6 208 278.4 196 Q 262.4 183.2 242.4 180 L 211.2 155.2 Q 220.8 153.6 230.4 153.6 L 230.4 153.6 Z M 84.8 182.4 L 340.8 387.2 L 351.2 395.2 L 335.2 415.2 L 324.8 407.2 L 68.8 202.4 L 59.2 194.4 L 75.2 174.4 L 84.8 182.4 L 84.8 182.4 Z M 62.4 232 L 72 240 L 272 400 L 282.4 408 L 266.4 428 L 256 420 L 56 260 L 46.4 252 L 62.4 232 L 62.4 232 Z M 84.8 320 L 184 400 L 194.4 408 L 178.4 428 L 168 420 L 68.8 340 L 59.2 332 L 75.2 312 L 84.8 320 L 84.8 320 Z" />
</svg>