<svg xmlns="http://www.w3.org/2000/svg" viewBox="0 0 640 460">
  <path d="M 525 460 Q 578 420 609 361 L 609 361 L 609 361 Q 639 301 640 230 Q 639 159 609 99 Q 578 40 525 0 L 515 12 L 515 12 Q 565 50 594 106 Q 623 163 624 230 Q 623 297 594 354 Q 565 410 515 448 L 525 460 L 525 460 Z M 544 230 Q 544 182 523 143 L 523 143 L 523 143 Q 503 103 467 76 L 458 89 L 458 89 Q 490 114 509 150 Q 528 186 528 230 Q 528 274 509 310 Q 490 346 458 371 L 467 384 L 467 384 Q 503 357 523 317 Q 544 278 544 230 L 544 230 Z M 448 230 Q 446 181 410 153 L 400 166 L 400 166 Q 431 189 432 230 Q 431 271 400 294 L 410 307 L 410 307 Q 446 279 448 230 L 448 230 Z M 139 314 L 134 310 L 139 314 L 134 310 L 128 310 L 16 310 L 16 150 L 16 150 L 128 150 L 134 150 L 139 146 L 139 146 L 278 22 L 278 22 L 304 22 L 304 22 L 304 438 L 304 438 L 278 438 L 278 438 L 139 314 L 139 314 Z M 0 326 L 16 326 L 0 326 L 128 326 L 272 454 L 272 454 L 304 454 L 320 454 L 320 438 L 320 438 L 320 22 L 320 22 L 320 6 L 320 6 L 304 6 L 272 6 L 128 134 L 128 134 L 16 134 L 0 134 L 0 150 L 0 150 L 0 310 L 0 310 L 0 326 L 0 326 Z" />
</svg>