<svg xmlns="http://www.w3.org/2000/svg" viewBox="0 0 640 512">
  <path d="M 16 5 L 10 0 L 16 5 L 10 0 L 0 13 L 0 13 L 6 18 L 6 18 L 624 507 L 624 507 L 630 512 L 630 512 L 640 500 L 640 500 L 634 495 L 634 495 L 16 5 L 16 5 Z M 407 416 L 320 416 L 407 416 L 320 416 Q 272 415 241 383 Q 209 352 208 304 Q 208 283 215 265 L 202 255 L 202 255 Q 192 277 192 304 Q 193 358 229 395 Q 266 431 320 432 L 427 432 L 427 432 L 406 416 L 407 416 Z M 432 208 Q 432 229 425 247 L 438 258 L 438 258 Q 448 235 448 208 Q 447 154 411 117 Q 374 81 320 80 L 213 80 L 213 80 L 234 96 L 234 96 L 320 96 L 320 96 Q 368 97 399 129 Q 431 160 432 208 L 432 208 Z M 46 132 L 34 122 L 46 132 L 34 122 Q 1 157 0 208 Q 1 262 37 299 Q 74 335 128 336 L 152 336 L 152 336 L 152 320 L 152 320 L 128 320 L 128 320 Q 80 319 49 287 Q 17 256 16 208 Q 17 163 46 132 L 46 132 Z M 640 304 Q 639 250 603 213 L 603 213 L 603 213 Q 566 177 512 176 L 488 176 L 488 176 L 488 192 L 488 192 L 512 192 L 512 192 Q 560 193 591 225 Q 623 256 624 304 Q 623 349 594 381 L 606 390 L 606 390 Q 639 355 640 304 L 640 304 Z" />
</svg>