<svg xmlns="http://www.w3.org/2000/svg" viewBox="0 0 640 512">
  <path d="M 171 0 L 176 0 L 171 0 L 208 0 Q 242 1 265 23 Q 287 46 288 80 L 288 128 L 288 128 L 288 144 L 288 144 L 288 148 L 288 148 Q 289 173 306 190 Q 323 207 348 208 L 361 208 L 361 208 Q 395 208 423 226 Q 451 243 466 273 L 480 300 L 480 300 Q 490 319 512 320 Q 534 319 544 301 Q 554 283 543 264 L 523 233 L 523 233 L 514 219 L 514 219 L 527 211 L 527 211 L 551 195 L 551 195 L 562 187 L 562 187 L 571 197 L 571 197 L 602 228 L 602 228 Q 639 266 640 319 Q 639 374 602 410 Q 566 447 511 448 L 480 448 L 480 448 L 480 496 L 480 496 L 480 512 L 480 512 L 464 512 L 372 512 L 369 500 L 369 500 L 356 448 L 356 448 L 317 448 L 317 448 L 304 500 L 304 500 L 301 512 L 301 512 L 288 512 L 192 512 L 192 496 L 192 496 L 192 448 L 192 448 Q 151 447 124 420 Q 97 393 96 352 L 96 304 L 96 304 L 16 304 L 0 304 L 0 288 L 0 288 L 0 240 L 0 240 L 0 232 L 0 232 L 6 227 L 6 227 L 70 179 L 70 179 L 75 176 L 75 176 L 80 176 L 112 176 Q 125 176 137 180 Q 138 184 137 190 L 136 193 L 136 193 Q 134 203 133 213 Q 123 208 112 208 L 85 208 L 85 208 L 32 248 L 32 248 L 32 272 L 32 272 L 112 272 L 128 272 L 128 288 L 128 288 L 128 352 L 128 352 Q 129 379 147 397 Q 165 415 192 416 L 208 416 L 224 416 L 224 432 L 224 432 L 224 480 L 224 480 L 276 480 L 276 480 L 289 428 L 289 428 L 292 416 L 292 416 L 304 416 L 381 416 L 384 428 L 384 428 L 397 480 L 397 480 L 448 480 L 448 480 L 448 432 L 448 432 L 448 416 L 448 416 L 464 416 L 511 416 Q 552 415 580 388 Q 607 360 608 319 Q 607 279 580 250 L 558 229 L 558 229 L 570 247 L 570 247 Q 590 283 572 316 Q 554 350 512 352 Q 471 350 451 314 L 438 287 L 438 287 Q 426 265 406 253 Q 386 240 361 240 L 348 240 L 348 240 Q 309 239 283 213 Q 257 187 256 148 L 256 144 L 256 144 L 256 128 L 256 128 L 256 80 L 256 80 Q 255 60 242 46 Q 228 33 208 32 L 181 32 L 181 32 L 128 72 L 128 72 L 128 96 L 128 96 L 200 96 L 219 96 L 216 115 L 216 115 L 192 240 L 192 240 L 208 317 L 208 317 L 211 333 L 211 333 L 179 339 L 179 339 L 176 323 L 176 323 L 160 243 L 160 243 L 160 240 L 160 240 L 160 237 L 160 237 L 181 128 L 181 128 L 112 128 L 96 128 L 96 112 L 96 112 L 96 64 L 96 64 L 96 56 L 96 56 L 102 51 L 102 51 L 166 3 L 166 3 L 171 0 L 171 0 Z M 352 176 L 348 176 L 352 176 L 348 176 Q 348 176 347 176 L 344 163 L 344 163 L 341 144 L 341 144 L 360 144 L 432 144 L 432 120 L 432 120 L 379 80 L 379 80 L 352 80 L 352 80 Q 333 80 320 92 L 320 88 L 320 88 Q 320 72 316 57 Q 332 48 352 48 L 384 48 L 389 48 L 394 51 L 394 51 L 458 99 L 458 99 L 464 104 L 464 104 L 464 112 L 464 112 L 464 160 L 464 160 L 464 176 L 464 176 L 448 176 L 352 176 Z" />
</svg>