<svg xmlns="http://www.w3.org/2000/svg" viewBox="0 0 512 512">
  <path d="M 496 16 L 496 80 L 496 16 L 496 80 L 152 80 L 16 80 L 16 16 L 16 16 L 496 16 L 496 16 Z M 152 96 L 496 96 L 152 96 L 512 96 L 512 80 L 512 80 L 512 16 L 512 16 L 512 0 L 512 0 L 496 0 L 0 0 L 0 16 L 0 16 L 0 80 L 0 80 L 0 96 L 0 96 L 16 96 L 136 96 L 136 257 L 136 257 Q 119 260 107 273 Q 96 286 96 304 Q 97 324 110 338 Q 124 351 144 352 Q 164 351 178 338 Q 191 324 192 304 Q 192 286 181 273 Q 169 260 152 257 L 152 96 L 152 96 Z M 184 224 L 495 224 L 184 224 L 512 224 L 506 208 L 506 208 L 476 128 L 476 128 L 459 128 L 459 128 L 489 208 L 489 208 L 184 208 L 184 208 L 184 224 L 184 224 Z M 104 208 L 23 208 L 104 208 L 23 208 L 53 128 L 53 128 L 36 128 L 36 128 L 6 208 L 6 208 L 0 224 L 0 224 L 17 224 L 104 224 L 104 208 L 104 208 Z M 64 304 L 23 304 L 64 304 L 23 304 L 41 256 L 41 256 L 24 256 L 24 256 L 6 304 L 6 304 L 0 320 L 0 320 L 17 320 L 66 320 Q 64 312 64 304 L 64 304 Z M 222 320 L 495 320 L 222 320 L 512 320 L 506 304 L 506 304 L 488 256 L 488 256 L 471 256 L 471 256 L 489 304 L 489 304 L 224 304 L 224 304 Q 224 312 222 320 L 222 320 Z M 24 352 L 6 400 L 24 352 L 6 400 L 0 416 L 0 416 L 17 416 L 512 416 L 506 400 L 506 400 L 488 352 L 488 352 L 471 352 L 471 352 L 489 400 L 489 400 L 23 400 L 23 400 L 41 352 L 41 352 L 24 352 L 24 352 Z M 24 448 L 6 496 L 24 448 L 6 496 L 0 512 L 0 512 L 17 512 L 512 512 L 506 496 L 506 496 L 488 448 L 488 448 L 471 448 L 471 448 L 489 496 L 489 496 L 23 496 L 23 496 L 41 448 L 41 448 L 24 448 L 24 448 Z M 176 304 Q 176 318 167 327 L 167 327 L 167 327 Q 158 336 144 336 Q 130 336 121 327 Q 112 318 112 304 Q 112 290 121 281 Q 130 272 144 272 Q 158 272 167 281 Q 176 290 176 304 L 176 304 Z" />
</svg>