<svg xmlns="http://www.w3.org/2000/svg" viewBox="0 0 640 352">
  <path d="M 264 16 L 352 16 L 264 16 L 352 16 L 352 0 L 352 0 L 160 0 L 160 0 L 160 16 L 160 16 L 248 16 L 248 16 L 248 96 L 248 96 L 112 96 L 0 96 L 0 112 L 0 112 L 0 240 L 0 240 L 96 281 L 96 281 L 96 336 L 96 336 L 96 352 L 96 352 L 112 352 L 432 352 L 640 128 L 640 128 L 608 96 L 608 96 L 448 128 L 448 128 L 384 96 L 384 96 L 264 96 L 264 96 L 264 16 L 264 16 Z M 16 112 L 96 112 L 16 112 L 96 112 L 96 264 L 96 264 L 16 229 L 16 229 L 16 112 L 16 112 Z M 441 142 L 446 145 L 441 142 L 446 145 L 451 144 L 451 144 L 603 113 L 603 113 L 618 128 L 618 128 L 425 336 L 425 336 L 384 336 L 112 336 L 112 288 L 112 288 L 112 271 L 112 271 L 112 112 L 112 112 L 380 112 L 380 112 L 441 142 L 441 142 Z" />
</svg>