<svg xmlns="http://www.w3.org/2000/svg" viewBox="0 0 640 512">
  <path d="M 256 16 Q 340 17 403 66 L 403 66 L 403 66 Q 465 115 487 192 Q 492 192 496 192 Q 500 192 504 192 Q 504 192 504 192 Q 481 108 414 55 Q 347 2 256 0 Q 184 1 127 35 Q 69 69 35 127 Q 1 184 0 256 Q 1 328 35 385 Q 69 443 127 477 Q 184 511 256 512 Q 316 512 366 487 Q 361 481 356 474 Q 310 496 256 496 Q 189 495 135 463 Q 81 431 49 377 Q 17 323 16 256 Q 17 189 49 135 Q 81 81 135 49 Q 189 17 256 16 L 256 16 Z M 256 144 Q 206 144 164 164 L 164 164 L 164 164 Q 121 183 90 218 L 101 229 L 101 229 Q 130 197 170 179 Q 210 160 256 160 Q 343 162 402 219 Q 409 215 416 211 Q 385 180 344 162 Q 303 144 256 144 L 256 144 Z M 256 240 Q 195 242 160 288 L 171 299 L 171 299 Q 202 258 256 256 Q 306 258 336 294 Q 340 286 344 279 Q 310 241 256 240 L 256 240 Z M 256 336 Q 271 337 272 352 Q 271 367 256 368 Q 241 367 240 352 Q 241 337 256 336 L 256 336 Z M 256 384 Q 270 384 279 375 L 279 375 L 279 375 Q 288 366 288 352 Q 288 338 279 329 Q 270 320 256 320 Q 242 320 233 329 Q 224 338 224 352 Q 224 366 233 375 Q 242 384 256 384 L 256 384 Z M 496 240 Q 531 240 560 257 L 560 257 L 560 257 Q 589 274 607 304 Q 624 334 624 368 Q 624 402 607 432 Q 589 462 560 479 Q 531 496 496 496 Q 461 496 432 479 Q 403 462 385 432 Q 368 402 368 368 Q 368 334 385 304 Q 403 274 432 257 Q 461 240 496 240 L 496 240 Z M 496 512 Q 535 512 568 493 L 568 493 L 568 493 Q 601 474 621 440 Q 640 406 640 368 Q 640 330 621 296 Q 601 262 568 243 Q 535 224 496 224 Q 457 224 424 243 Q 391 262 371 296 Q 352 330 352 368 Q 352 406 371 440 Q 391 474 424 493 Q 457 512 496 512 L 496 512 Z M 594 349 Q 557 306 496 304 Q 435 306 398 349 L 411 359 L 411 359 Q 443 322 496 320 Q 549 322 581 359 L 594 349 L 594 349 Z M 496 360 Q 463 361 441 382 L 454 392 L 454 392 Q 471 377 496 376 Q 521 377 539 392 L 551 382 L 551 382 Q 529 361 496 360 L 496 360 Z M 496 448 Q 511 447 512 432 Q 511 417 496 416 Q 481 417 480 432 Q 481 447 496 448 L 496 448 Z" />
</svg>