<svg xmlns="http://www.w3.org/2000/svg" viewBox="0 0 639 512">
  <path d="M 512 208 Q 510 278 466 327 L 466 327 L 466 327 Q 421 376 352 383 L 352 401 L 352 401 Q 352 409 351 415 Q 421 410 471 366 L 616 511 L 616 511 L 639 488 L 639 488 L 494 343 L 494 343 Q 542 287 544 208 Q 542 120 483 61 Q 424 2 336 0 Q 254 2 197 53 Q 140 105 129 185 L 163 173 L 163 173 Q 177 112 224 72 Q 271 33 336 32 Q 411 34 460 84 Q 510 133 512 208 L 512 208 Z M 320 155 L 299 162 L 320 155 L 299 162 L 107 226 L 107 226 L 96 230 L 96 230 L 96 241 L 96 241 L 96 313 L 96 313 L 96 423 L 96 423 Q 82 416 64 416 Q 37 417 19 430 Q 1 444 0 464 Q 1 484 19 498 Q 37 512 64 512 Q 90 512 108 499 Q 125 487 128 468 Q 128 467 128 465 L 128 464 L 128 464 L 128 325 L 128 325 L 288 272 L 288 272 L 288 359 L 288 359 Q 274 352 256 352 Q 229 353 211 366 Q 193 380 192 400 Q 193 420 211 434 Q 229 448 256 448 Q 283 448 301 434 Q 319 420 320 400 L 320 249 L 320 249 L 320 177 L 320 177 L 320 155 L 320 155 Z M 282 392 Q 289 398 288 400 Q 289 402 282 408 Q 274 415 256 416 Q 239 415 230 408 Q 223 402 224 400 Q 223 398 230 392 Q 238 385 256 384 Q 273 385 282 392 L 282 392 Z M 90 456 Q 97 462 96 464 Q 97 466 90 472 Q 82 479 64 480 Q 47 479 38 472 Q 31 466 32 464 Q 31 462 38 456 Q 46 449 64 448 Q 81 449 90 456 L 90 456 Z M 128 291 L 128 253 L 128 291 L 128 253 L 288 200 L 288 200 L 288 238 L 288 238 L 128 291 L 128 291 Z" />
</svg>