<svg xmlns="http://www.w3.org/2000/svg" viewBox="0 0 544 512">
  <path d="M 416 192 L 432 192 L 416 192 L 544 192 L 544 208 L 544 208 L 544 496 L 544 496 L 544 512 L 544 512 L 528 512 L 0 512 L 0 496 L 0 496 L 0 112 L 0 112 L 0 96 L 0 96 L 16 96 L 128 96 L 128 80 L 128 80 L 128 16 L 128 16 L 128 0 L 128 0 L 144 0 L 416 0 L 416 16 L 416 16 L 416 176 L 416 176 L 416 192 L 416 192 Z M 240 496 L 272 496 L 240 496 L 304 496 L 304 400 L 304 400 L 240 400 L 240 400 L 240 496 L 240 496 Z M 320 496 L 416 496 L 320 496 L 528 496 L 528 208 L 528 208 L 416 208 L 400 208 L 400 192 L 400 192 L 400 16 L 400 16 L 144 16 L 144 16 L 144 96 L 144 96 L 144 112 L 144 112 L 128 112 L 16 112 L 16 496 L 16 496 L 128 496 L 224 496 L 224 392 L 224 392 L 224 384 L 224 384 L 232 384 L 320 384 L 320 392 L 320 392 L 320 496 L 320 496 Z M 472 424 L 464 424 L 472 424 L 392 424 L 392 416 L 392 416 L 392 352 L 392 352 L 392 344 L 392 344 L 400 344 L 472 344 L 472 352 L 472 352 L 472 416 L 472 416 L 472 424 L 472 424 Z M 144 328 L 80 328 L 144 328 L 72 328 L 72 320 L 72 320 L 72 256 L 72 256 L 72 248 L 72 248 L 80 248 L 152 248 L 152 256 L 152 256 L 152 320 L 152 320 L 152 328 L 152 328 L 144 328 L 144 328 Z M 136 264 L 88 264 L 136 264 L 88 264 L 88 312 L 88 312 L 136 312 L 136 312 L 136 264 L 136 264 Z M 152 424 L 144 424 L 152 424 L 72 424 L 72 416 L 72 416 L 72 352 L 72 352 L 72 344 L 72 344 L 80 344 L 152 344 L 152 352 L 152 352 L 152 416 L 152 416 L 152 424 L 152 424 Z M 136 408 L 136 360 L 136 408 L 136 360 L 88 360 L 88 360 L 88 408 L 88 408 L 136 408 L 136 408 Z M 304 328 L 240 328 L 304 328 L 232 328 L 232 320 L 232 320 L 232 256 L 232 256 L 232 248 L 232 248 L 240 248 L 312 248 L 312 256 L 312 256 L 312 320 L 312 320 L 312 328 L 312 328 L 304 328 L 304 328 Z M 296 264 L 248 264 L 296 264 L 248 264 L 248 312 L 248 312 L 296 312 L 296 312 L 296 264 L 296 264 Z M 312 56 L 312 64 L 312 56 L 312 64 L 312 128 L 312 128 L 312 136 L 312 136 L 304 136 L 232 136 L 232 128 L 232 128 L 232 64 L 232 64 L 232 56 L 232 56 L 240 56 L 312 56 Z M 296 72 L 248 72 L 296 72 L 248 72 L 248 120 L 248 120 L 296 120 L 296 120 L 296 72 L 296 72 Z M 464 328 L 400 328 L 464 328 L 392 328 L 392 320 L 392 320 L 392 256 L 392 256 L 392 248 L 392 248 L 400 248 L 472 248 L 472 256 L 472 256 L 472 320 L 472 320 L 472 328 L 472 328 L 464 328 L 464 328 Z M 456 264 L 408 264 L 456 264 L 408 264 L 408 312 L 408 312 L 456 312 L 456 312 L 456 264 L 456 264 Z M 152 232 L 144 232 L 152 232 L 72 232 L 72 224 L 72 224 L 72 160 L 72 160 L 72 152 L 72 152 L 80 152 L 152 152 L 152 160 L 152 160 L 152 224 L 152 224 L 152 232 L 152 232 Z M 136 216 L 136 168 L 136 216 L 136 168 L 88 168 L 88 168 L 88 216 L 88 216 L 136 216 L 136 216 Z M 304 232 L 240 232 L 304 232 L 232 232 L 232 224 L 232 224 L 232 160 L 232 160 L 232 152 L 232 152 L 240 152 L 312 152 L 312 160 L 312 160 L 312 224 L 312 224 L 312 232 L 312 232 L 304 232 L 304 232 Z M 296 168 L 248 168 L 296 168 L 248 168 L 248 216 L 248 216 L 296 216 L 296 216 L 296 168 L 296 168 Z M 456 408 L 456 360 L 456 408 L 456 360 L 408 360 L 408 360 L 408 408 L 408 408 L 456 408 L 456 408 Z" />
</svg>