<svg xmlns="http://www.w3.org/2000/svg" viewBox="0 0 512 512">
  <path d="M 133.40845 91.943665 Q 133.40845 119.88732 154.14084 139.7183 L 246.98592 229.85916 L 259.60562 241.57747 L 272.22534 229.85916 L 365.07043 139.7183 Q 385.80283 119.88732 385.80283 91.943665 Q 384.9014 64 365.97183 45.070423 Q 347.04227 26.140844 319.0986 25.239437 L 316.39438 25.239437 Q 288.4507 25.239437 268.61972 45.070423 L 259.60562 53.183098 L 250.59155 45.070423 Q 230.76056 25.239437 202.8169 25.239437 L 200.11267 25.239437 Q 172.16902 26.140844 153.23944 45.070423 Q 134.30986 64 133.40845 91.943665 L 133.40845 91.943665 Z M 126.19718 320 L 62.19718 371.38028 L 0 371.38028 L 0 486.76056 L 28.84507 486.76056 L 201.9155 486.76056 L 346.14084 486.76056 L 356.95773 486.76056 L 366.87323 480.4507 L 482.2535 401.12677 L 512 380.39438 L 470.53522 320.9014 L 440.78873 341.6338 L 356.05634 400.22534 L 230.76056 400.22534 L 230.76056 371.38028 L 259.60562 371.38028 L 317.29578 371.38028 L 346.14084 371.38028 L 346.14084 313.69016 L 317.29578 313.69016 L 259.60562 313.69016 L 201.9155 313.69016 L 144.22536 313.69016 L 134.30986 313.69016 L 126.19718 320 L 126.19718 320 Z" />
</svg>