<svg xmlns="http://www.w3.org/2000/svg" viewBox="0 0 484 509">
  <path d="M 242 0 L 254 4 L 242 0 L 254 4 L 461 84 L 461 84 L 480 92 L 480 92 L 481 112 L 481 112 Q 484 150 476 203 Q 468 255 444 312 Q 420 369 374 420 Q 328 471 255 503 L 242 509 L 242 509 L 229 503 L 229 503 Q 156 471 110 420 Q 64 369 40 312 Q 16 255 8 203 Q 0 150 3 112 L 4 92 L 4 92 L 23 84 L 23 84 L 231 4 L 231 4 L 242 0 L 242 0 Z M 66 136 Q 66 172 76 218 L 242 218 L 242 218 L 242 68 L 242 68 L 66 136 L 66 136 Z M 242 439 Q 296 412 331 372 L 331 372 L 331 372 Q 366 332 386 286 Q 400 252 408 218 L 242 218 L 242 218 L 242 439 L 242 439 Z" />
</svg>