<svg xmlns="http://www.w3.org/2000/svg" viewBox="0 0 512 512">
  <path d="M 256 16 Q 321 17 376 48 L 376 48 L 376 48 Q 431 80 464 136 Q 496 193 496 256 Q 496 319 464 376 Q 431 432 376 464 Q 321 495 256 496 Q 191 495 136 464 Q 81 432 48 376 Q 16 319 16 256 Q 16 193 48 136 Q 81 80 136 48 Q 191 17 256 16 L 256 16 Z M 256 512 Q 326 511 384 478 L 384 478 L 384 478 Q 442 444 478 384 Q 512 323 512 256 Q 512 189 478 128 Q 442 68 384 34 Q 326 1 256 0 Q 186 1 128 34 Q 70 68 34 128 Q 0 189 0 256 Q 0 323 34 384 Q 70 444 128 478 Q 186 511 256 512 L 256 512 Z M 224 144 Q 224 130 233 121 L 233 121 L 233 121 Q 242 112 256 112 Q 270 112 279 121 Q 288 130 288 144 Q 288 158 279 167 Q 270 176 256 176 Q 242 176 233 167 Q 224 158 224 144 L 224 144 Z M 304 144 Q 303 117 280 102 Q 256 90 232 102 Q 209 117 208 144 Q 209 171 232 186 Q 256 198 280 186 Q 303 171 304 144 L 304 144 Z M 132 181 L 125 196 L 132 181 L 125 196 L 133 199 L 133 199 L 205 231 L 205 231 L 206 232 L 206 232 L 208 232 L 208 232 L 208 327 L 208 327 L 184 406 L 184 406 L 182 413 L 182 413 L 197 418 L 197 418 L 200 410 L 200 410 L 222 336 L 222 336 L 290 336 L 290 336 L 312 410 L 312 410 L 315 418 L 315 418 L 330 413 L 330 413 L 328 406 L 328 406 L 304 327 L 304 327 L 304 232 L 304 232 L 306 232 L 306 232 L 307 231 L 307 231 L 379 199 L 379 199 L 387 196 L 387 196 L 380 181 L 380 181 L 373 185 L 373 185 L 302 216 L 302 216 L 288 216 L 210 216 L 139 185 L 139 185 L 132 182 L 132 181 Z M 224 232 L 288 232 L 224 232 L 288 232 L 288 320 L 288 320 L 224 320 L 224 320 L 224 232 L 224 232 Z" />
</svg>