<svg xmlns="http://www.w3.org/2000/svg" viewBox="0 0 640 448">
  <path d="M 80 16 L 560 16 L 80 16 L 560 16 L 560 320 L 560 320 L 576 320 L 576 320 L 576 16 L 576 16 L 576 0 L 576 0 L 560 0 L 64 0 L 64 16 L 64 16 L 64 320 L 64 320 L 80 320 L 80 320 L 80 16 L 80 16 Z M 16 393 L 16 368 L 16 393 L 16 368 L 624 368 L 624 368 L 624 393 L 624 393 L 585 432 L 585 432 L 55 432 L 55 432 L 16 393 L 16 393 Z M 624 352 L 16 352 L 624 352 L 0 352 L 0 368 L 0 368 L 0 400 L 0 400 L 48 448 L 48 448 L 592 448 L 592 448 L 640 400 L 640 400 L 640 368 L 640 368 L 640 352 L 640 352 L 624 352 L 624 352 Z M 288 72 L 280 72 L 288 72 L 280 72 L 280 80 L 280 80 L 280 144 L 280 144 L 216 144 L 208 144 L 208 152 L 208 152 L 208 216 L 208 216 L 208 224 L 208 224 L 216 224 L 280 224 L 280 288 L 280 288 L 280 296 L 280 296 L 288 296 L 360 296 L 360 288 L 360 288 L 360 224 L 360 224 L 424 224 L 432 224 L 432 216 L 432 216 L 432 152 L 432 152 L 432 144 L 432 144 L 424 144 L 360 144 L 360 80 L 360 80 L 360 72 L 360 72 L 352 72 L 288 72 Z M 296 152 L 296 88 L 296 152 L 296 88 L 344 88 L 344 88 L 344 152 L 344 152 L 344 160 L 344 160 L 352 160 L 416 160 L 416 208 L 416 208 L 352 208 L 344 208 L 344 216 L 344 216 L 344 280 L 344 280 L 296 280 L 296 280 L 296 216 L 296 216 L 296 208 L 296 208 L 288 208 L 224 208 L 224 160 L 224 160 L 288 160 L 296 160 L 296 152 L 296 152 Z" />
</svg>