<svg xmlns="http://www.w3.org/2000/svg" viewBox="0 0 640 512">
  <path d="M 496 144 L 496 192 L 496 144 L 496 192 Q 504 192 512 193 L 512 144 L 512 144 L 512 128 L 512 128 L 496 128 L 0 128 L 0 144 L 0 144 L 0 496 L 0 496 L 0 512 L 0 512 L 16 512 L 395 512 Q 384 505 375 496 L 16 496 L 16 496 L 16 144 L 16 144 L 496 144 L 496 144 Z M 464 64 L 48 64 L 464 64 L 48 64 L 48 80 L 48 80 L 464 80 L 464 80 L 464 64 L 464 64 Z M 416 0 L 96 0 L 416 0 L 96 0 L 96 16 L 96 16 L 416 16 L 416 16 L 416 0 L 416 0 Z M 573 471 Q 540 495 496 496 Q 452 495 420 471 L 452 432 L 452 432 L 540 432 L 540 432 L 572 471 L 573 471 Z M 585 460 L 550 419 L 585 460 L 550 419 L 548 416 L 548 416 L 544 416 L 444 416 L 442 419 L 442 419 L 407 460 L 407 460 Q 369 424 368 368 Q 369 314 405 277 Q 442 241 496 240 Q 550 241 587 277 Q 623 314 624 368 Q 623 424 585 460 L 585 460 Z M 640 368 Q 640 329 621 296 L 621 296 L 621 296 Q 602 263 568 243 Q 534 224 496 224 Q 458 224 424 243 Q 390 263 371 296 Q 352 329 352 368 Q 352 407 371 440 Q 390 473 424 493 Q 458 512 496 512 Q 534 512 568 493 Q 602 473 621 440 Q 640 407 640 368 L 640 368 Z M 496 304 Q 510 304 519 313 L 519 313 L 519 313 Q 528 322 528 336 Q 528 350 519 359 Q 510 368 496 368 Q 482 368 473 359 Q 464 350 464 336 Q 464 322 473 313 Q 482 304 496 304 L 496 304 Z M 496 384 Q 523 383 538 360 Q 550 336 538 312 Q 523 289 496 288 Q 469 289 454 312 Q 442 336 454 360 Q 469 383 496 384 L 496 384 Z" />
</svg>