<svg xmlns="http://www.w3.org/2000/svg" viewBox="0 0 512 512">
  <path d="M 386 176 L 379 176 L 386 176 L 379 176 L 374 181 L 374 181 L 88 489 L 88 489 L 23 424 L 23 424 L 123 332 L 123 332 L 128 327 L 128 327 L 128 320 L 128 320 L 128 272 L 128 272 L 181 272 L 187 272 L 192 268 L 192 268 L 456 22 L 456 22 L 490 56 L 490 56 L 420 131 L 420 131 L 416 136 L 416 136 L 416 142 L 416 142 L 416 176 L 416 176 L 385 176 L 386 176 Z M 88 512 L 99 500 L 88 512 L 99 500 L 386 192 L 386 192 L 416 192 L 432 192 L 432 176 L 432 176 L 432 142 L 432 142 L 512 56 L 512 56 L 456 0 L 456 0 L 181 256 L 181 256 L 128 256 L 112 256 L 112 272 L 112 272 L 112 320 L 112 320 L 12 413 L 12 413 L 0 424 L 0 424 L 11 435 L 11 435 L 77 501 L 77 501 L 88 512 L 88 512 Z M 248 32 L 248 24 L 248 32 L 248 24 L 232 24 L 232 24 L 232 32 L 232 32 L 232 72 L 232 72 L 192 72 L 184 72 L 184 88 L 184 88 L 192 88 L 232 88 L 232 128 L 232 128 L 232 136 L 232 136 L 248 136 L 248 136 L 248 128 L 248 128 L 248 88 L 248 88 L 288 88 L 296 88 L 296 72 L 296 72 L 288 72 L 248 72 L 248 32 L 248 32 Z M 88 80 L 88 72 L 88 80 L 88 72 L 72 72 L 72 72 L 72 80 L 72 80 L 72 136 L 72 136 L 16 136 L 8 136 L 8 152 L 8 152 L 16 152 L 72 152 L 72 208 L 72 208 L 72 216 L 72 216 L 88 216 L 88 216 L 88 208 L 88 208 L 88 152 L 88 152 L 144 152 L 152 152 L 152 136 L 152 136 L 144 136 L 88 136 L 88 80 L 88 80 Z M 440 304 L 440 296 L 440 304 L 440 296 L 424 296 L 424 296 L 424 304 L 424 304 L 424 360 L 424 360 L 368 360 L 360 360 L 360 376 L 360 376 L 368 376 L 424 376 L 424 432 L 424 432 L 424 440 L 424 440 L 440 440 L 440 440 L 440 432 L 440 432 L 440 376 L 440 376 L 496 376 L 504 376 L 504 360 L 504 360 L 496 360 L 440 360 L 440 304 L 440 304 Z" />
</svg>