<svg xmlns="http://www.w3.org/2000/svg" viewBox="0 0 512 448">
  <path d="M 248 79 L 248 417 L 248 79 L 248 417 L 75 245 L 75 245 L 51 221 L 51 221 Q 17 185 16 136 Q 17 85 51 51 Q 85 17 136 16 Q 185 17 221 51 L 245 75 L 245 75 L 248 79 L 248 79 Z M 264 417 L 264 79 L 264 417 L 264 79 L 267 75 L 267 75 L 292 51 L 292 51 Q 327 17 376 16 Q 427 17 461 51 Q 495 85 496 136 Q 495 185 461 221 L 437 245 L 437 245 L 264 417 L 264 417 Z M 256 448 L 267 437 L 256 448 L 267 437 L 448 256 L 448 256 L 472 232 L 472 232 Q 511 192 512 136 Q 511 78 472 40 Q 434 1 376 0 Q 320 1 280 40 L 267 53 L 267 53 L 256 64 L 256 64 L 245 53 L 245 53 L 232 40 L 232 40 Q 192 1 136 0 Q 78 1 40 40 Q 1 78 0 136 Q 1 192 40 232 L 64 256 L 64 256 L 245 437 L 245 437 L 256 448 L 256 448 Z" />
</svg>