<svg xmlns="http://www.w3.org/2000/svg" viewBox="0 0 576 512">
  <path d="M 16 512 L 0 512 L 16 512 L 0 512 L 2 496 L 2 496 L 32 160 L 32 160 L 288 0 L 288 0 L 544 176 L 544 176 L 575 496 L 575 496 L 576 512 L 576 512 L 560 512 L 16 512 Z M 280 496 L 280 24 L 280 496 L 280 24 L 47 169 L 47 169 L 18 496 L 18 496 L 280 496 L 280 496 Z M 296 496 L 427 496 L 296 496 L 427 496 L 296 256 L 296 256 L 296 496 L 296 496 Z M 445 496 L 558 496 L 445 496 L 558 496 L 529 185 L 529 185 L 296 25 L 296 25 L 296 222 L 296 222 L 445 496 L 445 496 Z" />
</svg>