<svg xmlns="http://www.w3.org/2000/svg" viewBox="0 0 576 512">
  <path d="M 296 8 L 296 0 L 296 8 L 296 0 L 280 0 L 280 0 L 280 8 L 280 8 L 280 45 L 280 45 L 279 48 L 279 48 L 10 496 L 10 496 L 0 512 L 0 512 L 19 512 L 576 512 L 567 496 L 567 496 L 417 247 L 417 247 L 406 259 L 406 259 L 548 496 L 548 496 L 28 496 L 28 496 L 288 63 L 288 63 L 380 217 L 380 217 L 327 270 L 327 270 Q 311 256 288 256 Q 261 257 243 275 Q 225 293 224 320 Q 225 347 243 365 Q 261 383 288 384 Q 315 383 333 365 Q 351 347 352 320 Q 352 297 339 281 L 389 231 L 389 231 L 400 219 L 400 219 L 542 78 L 542 78 L 547 72 L 547 72 L 536 61 L 536 61 L 530 66 L 530 66 L 392 205 L 392 205 L 297 48 L 297 48 L 296 45 L 296 45 L 296 8 L 296 8 Z M 336 320 Q 335 347 312 362 Q 288 374 264 362 Q 241 347 240 320 Q 241 293 264 278 Q 288 266 312 278 Q 335 293 336 320 L 336 320 Z" />
</svg>