<svg xmlns="http://www.w3.org/2000/svg" viewBox="0 0 512 512">
  <path d="M 496 256 Q 494 166 440 102 Q 445 141 430 208 Q 414 276 347 347 Q 276 414 208 430 Q 141 445 102 440 Q 166 494 256 496 Q 323 495 377 463 Q 431 431 463 377 Q 495 323 496 256 L 496 256 Z M 75 414 Q 76 388 82 344 L 82 344 L 82 344 Q 89 300 108 252 L 108 252 L 108 252 Q 127 204 165 165 Q 208 123 256 103 Q 303 83 345 78 Q 387 72 412 74 Q 347 18 256 16 Q 189 17 135 49 Q 81 81 49 135 Q 17 189 16 256 Q 18 349 75 414 L 75 414 Z M 0 256 Q 1 186 34 128 L 34 128 L 34 128 Q 68 70 128 34 Q 189 0 256 0 Q 323 0 384 34 Q 444 70 478 128 Q 511 186 512 256 Q 511 326 478 384 Q 444 442 384 478 Q 323 512 256 512 Q 189 512 128 478 Q 68 442 34 384 Q 1 326 0 256 L 0 256 Z M 102 423 Q 125 425 162 421 Q 200 417 245 397 Q 290 378 335 335 Q 378 290 397 245 Q 417 200 421 162 Q 425 125 423 102 Q 422 96 422 92 Q 416 91 410 91 Q 385 90 346 95 Q 306 101 262 120 Q 217 138 177 177 Q 144 212 126 256 Q 108 299 101 341 Q 94 382 93 409 Q 93 415 93 420 Q 93 421 93 422 Q 97 422 102 423 L 102 423 Z" />
</svg>