<svg xmlns="http://www.w3.org/2000/svg" viewBox="0 0 640 512">
  <path d="M 402 412 Q 365 432 320 432 Q 245 430 196 380 Q 146 331 144 256 Q 144 234 149 213 L 136 202 L 136 202 Q 129 224 128 248 L 72 248 L 64 248 L 64 264 L 64 264 L 72 264 L 128 264 Q 133 341 184 392 Q 236 443 312 448 L 312 504 L 312 504 L 312 512 L 312 512 L 328 512 L 328 512 L 328 504 L 328 504 L 328 448 L 328 448 Q 376 445 415 423 L 402 412 L 402 412 Z M 312 64 Q 264 67 225 89 L 239 100 L 239 100 Q 276 80 320 80 Q 395 82 444 132 Q 494 181 496 256 Q 496 278 491 299 L 504 310 L 504 310 Q 511 288 512 264 L 568 264 L 576 264 L 576 248 L 576 248 L 568 248 L 512 248 Q 507 171 456 120 Q 405 69 328 64 L 328 8 L 328 8 L 328 0 L 328 0 L 312 0 L 312 0 L 312 8 L 312 8 L 312 64 L 312 64 Z M 320 352 Q 323 352 325 352 L 303 334 L 303 334 Q 265 325 248 291 L 226 273 L 226 273 Q 232 308 258 329 Q 284 351 320 352 L 320 352 Z M 315 160 L 337 178 L 315 160 L 337 178 Q 375 187 392 221 L 414 239 L 414 239 Q 408 204 382 183 Q 356 161 320 160 Q 317 160 315 160 L 315 160 Z M 16 5 L 10 0 L 16 5 L 10 0 L 0 13 L 0 13 L 6 18 L 6 18 L 624 507 L 624 507 L 630 512 L 630 512 L 640 500 L 640 500 L 634 495 L 634 495 L 16 5 L 16 5 Z" />
</svg>