<svg xmlns="http://www.w3.org/2000/svg" viewBox="0 0 320 512">
  <path d="M 96 96 L 96 64 L 96 96 L 96 64 L 128 48 L 128 48 L 128 32 L 128 32 Q 128 18 137 9 Q 146 0 160 0 Q 174 0 183 9 Q 192 18 192 32 L 192 48 L 192 48 L 224 64 L 224 64 L 224 96 L 224 96 L 256 96 L 256 96 L 256 144 L 256 144 L 278 166 L 278 166 Q 319 208 320 268 L 320 464 L 320 464 L 320 512 L 320 512 L 272 512 L 0 512 L 0 464 L 0 464 L 0 268 L 0 268 Q 1 208 42 166 L 64 144 L 64 144 L 64 96 L 64 96 L 96 96 L 96 96 Z M 272 464 L 272 268 L 272 464 L 272 268 Q 271 228 244 200 L 236 192 L 236 192 L 84 192 L 84 192 L 76 200 L 76 200 Q 49 228 48 268 L 48 272 L 48 272 L 160 272 L 160 272 L 160 320 L 160 320 L 48 320 L 48 320 L 48 368 L 48 368 L 160 368 L 160 368 L 160 416 L 160 416 L 48 416 L 48 416 L 48 464 L 48 464 L 272 464 L 272 464 Z" />
</svg>