<svg xmlns="http://www.w3.org/2000/svg" viewBox="0 0 640 512">
  <path d="M 0 154 Q 0 165 2 176 L 80 176 L 80 176 Q 90 151 108 134 Q 126 116 128 115 Q 128 115 128 115 Q 130 116 148 134 Q 166 151 176 176 L 254 176 L 254 176 Q 256 165 256 154 Q 257 136 241 101 Q 224 65 179 26 L 154 51 L 154 51 L 102 0 L 102 0 Q 84 11 61 33 Q 37 56 19 87 Q 1 117 0 154 L 0 154 Z M 168 344 L 219 256 L 168 344 L 219 256 L 232 256 L 256 256 L 256 208 L 256 208 L 232 208 L 0 208 L 0 256 L 0 256 L 17 256 L 17 256 L 4 309 L 4 309 Q 0 328 0 347 L 0 350 L 0 350 Q 2 419 47 465 Q 93 510 162 512 Q 199 512 232 496 Q 265 480 289 451 L 544 128 L 544 128 L 640 128 L 640 128 L 640 96 L 640 96 L 592 64 L 592 64 L 512 64 L 512 64 L 449 127 L 449 127 L 441 119 L 441 119 L 424 102 L 424 102 L 390 136 L 390 136 L 407 153 L 407 153 L 415 161 L 415 161 L 401 175 L 401 175 L 393 167 L 393 167 L 376 150 L 376 150 L 342 184 L 342 184 L 359 201 L 359 201 L 367 209 L 367 209 L 353 223 L 353 223 L 345 215 L 345 215 L 328 198 L 328 198 L 294 232 L 294 232 L 311 249 L 311 249 L 319 257 L 319 257 L 200 376 L 200 376 L 168 344 L 168 344 Z M 144 280 Q 142 302 120 304 Q 98 302 96 280 Q 98 258 120 256 Q 142 258 144 280 L 144 280 Z M 88 344 Q 110 346 112 368 Q 110 390 88 392 Q 66 390 64 368 Q 66 346 88 344 L 88 344 Z" />
</svg>