<svg xmlns="http://www.w3.org/2000/svg" viewBox="0 0 640 416">
  <path d="M 16 104 L 256 269 L 16 104 L 256 269 L 328 219 L 328 219 Q 324 230 323 242 L 256 288 L 256 288 L 16 123 L 16 123 L 16 368 L 16 368 L 349 368 L 349 368 Q 354 376 360 384 L 16 384 L 0 384 L 0 368 L 0 368 L 0 112 L 0 112 L 0 16 L 0 16 L 0 0 L 0 0 L 16 0 L 512 0 L 512 16 L 512 16 L 512 97 L 512 97 Q 504 96 496 96 L 496 16 L 496 16 L 16 16 L 16 16 L 16 104 L 16 104 Z M 496 400 Q 531 400 560 383 L 560 383 L 560 383 Q 589 366 607 336 Q 624 306 624 272 Q 624 238 607 208 Q 589 178 560 161 Q 531 144 496 144 Q 461 144 432 161 Q 403 178 385 208 Q 368 238 368 272 Q 368 306 385 336 Q 403 366 432 383 Q 461 400 496 400 L 496 400 Z M 496 128 Q 535 128 568 147 L 568 147 L 568 147 Q 601 166 621 200 Q 640 234 640 272 Q 640 310 621 344 Q 601 378 568 397 Q 535 416 496 416 Q 457 416 424 397 Q 391 378 371 344 Q 352 310 352 272 Q 352 234 371 200 Q 391 166 424 147 Q 457 128 496 128 L 496 128 Z M 571 232 L 566 238 L 571 232 L 566 238 L 486 318 L 486 318 L 480 323 L 480 323 L 474 318 L 474 318 L 426 270 L 426 270 L 420 264 L 420 264 L 432 253 L 432 253 L 438 258 L 438 258 L 480 301 L 480 301 L 554 226 L 554 226 L 560 221 L 560 221 L 571 232 L 571 232 Z" />
</svg>