<svg xmlns="http://www.w3.org/2000/svg" viewBox="0 0 574 518">
  <path d="M 8 0 L 0 0 L 8 0 L 0 0 L 0 16 L 0 16 L 8 16 L 58 16 L 152 378 L 152 378 L 154 384 L 154 384 L 160 384 L 504 384 L 504 368 L 504 368 L 496 368 L 166 368 L 145 288 L 145 288 L 488 288 L 494 288 L 496 282 L 496 282 L 574 32 L 574 32 L 558 32 L 558 32 L 482 272 L 482 272 L 141 272 L 141 272 L 72 6 L 72 6 L 70 0 L 70 0 L 64 0 L 8 0 Z M 176 432 Q 190 432 199 441 L 199 441 L 199 441 Q 208 450 208 464 Q 208 478 199 487 Q 190 496 176 496 Q 162 496 153 487 Q 144 478 144 464 Q 144 450 153 441 Q 162 432 176 432 L 176 432 Z M 176 512 Q 203 511 218 488 Q 230 464 218 440 Q 203 417 176 416 Q 149 417 134 440 Q 122 464 134 488 Q 149 511 176 512 L 176 512 Z M 432 464 Q 432 450 441 441 L 441 441 L 441 441 Q 450 432 464 432 Q 478 432 487 441 Q 496 450 496 464 Q 496 478 487 487 Q 478 496 464 496 Q 450 496 441 487 Q 432 478 432 464 L 432 464 Z M 512 464 Q 511 437 488 422 Q 464 410 440 422 Q 417 437 416 464 Q 417 491 440 506 Q 464 518 488 506 Q 511 491 512 464 L 512 464 Z M 263 76 L 252 87 L 263 76 L 252 87 L 258 93 L 258 93 L 309 144 L 309 144 L 258 195 L 258 195 L 252 201 L 252 201 L 263 212 L 263 212 L 269 206 L 269 206 L 320 155 L 320 155 L 371 206 L 371 206 L 377 212 L 377 212 L 388 201 L 388 201 L 382 195 L 382 195 L 331 144 L 331 144 L 382 93 L 382 93 L 388 87 L 388 87 L 377 76 L 377 76 L 371 82 L 371 82 L 320 133 L 320 133 L 269 82 L 269 82 L 263 76 L 263 76 Z" />
</svg>