<svg xmlns="http://www.w3.org/2000/svg" viewBox="0 0 496 496">
  <path d="M 352 0 L 488 0 L 352 0 L 496 0 L 496 8 L 496 8 L 496 144 L 496 144 L 496 147 L 496 147 L 494 150 L 494 150 L 470 174 L 470 174 L 464 179 L 464 179 L 458 174 L 458 174 L 396 111 L 396 111 L 214 294 L 214 294 L 208 299 L 208 299 L 197 288 L 197 288 L 202 282 L 202 282 L 385 100 L 385 100 L 322 38 L 322 38 L 317 32 L 317 32 L 322 26 L 322 26 L 346 2 L 346 2 L 349 0 L 349 0 L 352 0 L 352 0 Z M 339 32 L 464 157 L 339 32 L 464 157 L 480 141 L 480 141 L 480 16 L 480 16 L 355 16 L 355 16 L 339 32 L 339 32 Z M 0 16 L 8 16 L 0 16 L 208 16 L 208 32 L 208 32 L 200 32 L 16 32 L 16 480 L 16 480 L 464 480 L 464 480 L 464 296 L 464 296 L 464 288 L 464 288 L 480 288 L 480 288 L 480 296 L 480 296 L 480 488 L 480 488 L 480 496 L 480 496 L 472 496 L 0 496 L 0 488 L 0 488 L 0 24 L 0 24 L 0 16 L 0 16 Z" />
</svg>