<svg xmlns="http://www.w3.org/2000/svg" viewBox="0 0 512 512">
  <path d="M 16 16 L 96 16 L 16 16 L 96 16 L 96 0 L 96 0 L 16 0 L 0 0 L 0 16 L 0 16 L 0 96 L 0 96 L 16 96 L 16 96 L 16 16 L 16 16 Z M 224 16 L 224 0 L 224 16 L 224 0 L 128 0 L 128 0 L 128 16 L 128 16 L 224 16 L 224 16 Z M 16 128 L 0 128 L 16 128 L 0 128 L 0 224 L 0 224 L 16 224 L 16 224 L 16 128 L 16 128 Z M 16 256 L 0 256 L 16 256 L 0 256 L 0 336 L 0 336 L 0 352 L 0 352 L 16 352 L 96 352 L 96 336 L 96 336 L 16 336 L 16 336 L 16 256 L 16 256 Z M 128 352 L 160 352 L 128 352 L 224 352 L 224 336 L 224 336 L 176 336 L 128 336 L 128 352 L 128 352 Z M 160 384 L 160 496 L 160 384 L 160 496 L 160 512 L 160 512 L 176 512 L 512 512 L 512 496 L 512 496 L 512 176 L 512 176 L 512 160 L 512 160 L 496 160 L 384 160 L 384 176 L 384 176 L 496 176 L 496 176 L 496 496 L 496 496 L 176 496 L 176 496 L 176 384 L 176 384 L 160 384 L 160 384 Z M 352 176 L 352 160 L 352 176 L 352 160 L 352 128 L 352 128 L 336 128 L 336 128 L 336 160 L 336 160 L 336 176 L 336 176 L 336 224 L 336 224 L 352 224 L 352 224 L 352 176 L 352 176 Z M 352 16 L 352 0 L 352 16 L 352 0 L 336 0 L 256 0 L 256 16 L 256 16 L 336 16 L 336 16 L 336 96 L 336 96 L 352 96 L 352 96 L 352 16 L 352 16 Z M 256 336 L 256 352 L 256 336 L 256 352 L 336 352 L 352 352 L 352 336 L 352 336 L 352 256 L 352 256 L 336 256 L 336 256 L 336 336 L 336 336 L 256 336 L 256 336 Z" />
</svg>