<svg xmlns="http://www.w3.org/2000/svg" viewBox="0 0 512 448">
  <path d="M 16 16 L 16 144 L 16 16 L 16 144 L 496 144 L 496 144 L 496 16 L 496 16 L 16 16 L 16 16 Z M 16 160 L 16 432 L 16 160 L 16 432 L 496 432 L 496 432 L 496 160 L 496 160 L 16 160 L 16 160 Z M 0 0 L 16 0 L 0 0 L 512 0 L 512 16 L 512 16 L 512 432 L 512 432 L 512 448 L 512 448 L 496 448 L 0 448 L 0 432 L 0 432 L 0 16 L 0 16 L 0 0 L 0 0 Z M 120 240 L 392 240 L 120 240 L 400 240 L 400 256 L 400 256 L 392 256 L 112 256 L 112 240 L 112 240 L 120 240 L 120 240 Z M 120 336 L 392 336 L 120 336 L 400 336 L 400 352 L 400 352 L 392 352 L 112 352 L 112 336 L 112 336 L 120 336 L 120 336 Z M 349 58 L 384 86 L 349 58 L 384 86 L 419 58 L 419 58 L 425 53 L 425 53 L 435 65 L 435 65 L 429 70 L 429 70 L 389 102 L 389 102 L 384 106 L 384 106 L 379 102 L 379 102 L 339 70 L 339 70 L 333 65 L 333 65 L 343 53 L 343 53 L 349 58 L 349 58 Z" />
</svg>