<svg xmlns="http://www.w3.org/2000/svg" viewBox="0 0 576 384">
  <path d="M 16 16 L 16 368 L 16 16 L 16 368 L 38 368 L 38 368 L 42 363 L 42 363 L 186 187 L 186 187 L 192 179 L 192 179 L 199 187 L 199 187 L 244 250 L 244 250 L 346 123 L 346 123 L 352 115 L 352 115 L 358 123 L 358 123 L 550 363 L 550 363 L 554 368 L 554 368 L 560 368 L 560 368 L 560 16 L 560 16 L 16 16 L 16 16 Z M 58 368 L 150 368 L 58 368 L 150 368 L 154 363 L 154 363 L 234 263 L 234 263 L 192 205 L 192 205 L 58 368 L 58 368 Z M 170 368 L 534 368 L 170 368 L 534 368 L 352 141 L 352 141 L 250 268 L 250 268 L 170 368 L 170 368 Z M 0 0 L 16 0 L 0 0 L 576 0 L 576 16 L 576 16 L 576 368 L 576 368 L 576 384 L 576 384 L 560 384 L 0 384 L 0 368 L 0 368 L 0 16 L 0 16 L 0 0 L 0 0 Z M 128 160 Q 142 160 151 151 L 151 151 L 151 151 Q 160 142 160 128 Q 160 114 151 105 Q 142 96 128 96 Q 114 96 105 105 Q 96 114 96 128 Q 96 142 105 151 Q 114 160 128 160 L 128 160 Z M 128 80 Q 155 81 170 104 Q 182 128 170 152 Q 155 175 128 176 Q 101 175 86 152 Q 74 128 86 104 Q 101 81 128 80 L 128 80 Z" />
</svg>