<svg xmlns="http://www.w3.org/2000/svg" viewBox="0 0 448 512">
  <path d="M 432 400 L 144 400 L 432 400 L 144 400 L 144 16 L 144 16 L 336 16 L 336 16 L 336 104 L 336 104 L 336 112 L 336 112 L 344 112 L 432 112 L 432 400 L 432 400 Z M 440 96 L 344 0 L 440 96 L 344 0 L 144 0 L 128 0 L 128 16 L 128 16 L 128 400 L 128 400 L 128 416 L 128 416 L 144 416 L 448 416 L 448 400 L 448 400 L 448 104 L 448 104 L 440 96 L 440 96 Z M 417 96 L 352 96 L 417 96 L 352 96 L 352 31 L 352 31 L 417 96 L 417 96 Z M 96 96 L 16 96 L 96 96 L 0 96 L 0 112 L 0 112 L 0 496 L 0 496 L 0 512 L 0 512 L 16 512 L 320 512 L 320 496 L 320 496 L 320 448 L 320 448 L 304 448 L 304 448 L 304 496 L 304 496 L 16 496 L 16 496 L 16 112 L 16 112 L 96 112 L 96 112 L 96 96 L 96 96 Z M 261 161 L 253 161 L 261 161 L 253 161 L 253 169 L 253 169 L 253 221 L 253 221 L 201 221 L 193 221 L 193 229 L 193 229 L 193 283 L 193 283 L 193 291 L 193 291 L 201 291 L 253 291 L 253 343 L 253 343 L 253 351 L 253 351 L 261 351 L 323 351 L 323 343 L 323 343 L 323 291 L 323 291 L 375 291 L 383 291 L 383 283 L 383 283 L 383 229 L 383 229 L 383 221 L 383 221 L 375 221 L 323 221 L 323 169 L 323 169 L 323 161 L 323 161 L 315 161 L 261 161 Z M 269 229 L 269 177 L 269 229 L 269 177 L 307 177 L 307 177 L 307 229 L 307 229 L 307 237 L 307 237 L 315 237 L 367 237 L 367 275 L 367 275 L 315 275 L 307 275 L 307 283 L 307 283 L 307 335 L 307 335 L 269 335 L 269 335 L 269 283 L 269 283 L 269 275 L 269 275 L 261 275 L 209 275 L 209 237 L 209 237 L 261 237 L 269 237 L 269 229 L 269 229 Z" />
</svg>