<svg xmlns="http://www.w3.org/2000/svg" viewBox="0 0 576 443">
  <path d="M 43 4 L 36 0 L 43 4 L 36 0 L 29 15 L 29 15 L 37 18 L 37 18 L 549 251 L 549 251 L 16 251 L 0 251 L 0 267 L 0 267 L 0 427 L 0 427 L 0 443 L 0 443 L 16 443 L 576 443 L 576 427 L 576 427 L 576 379 L 576 379 L 576 371 L 576 371 L 576 267 L 576 267 L 576 251 L 576 251 Q 576 246 571 244 L 43 4 L 43 4 Z M 560 267 L 560 371 L 560 267 L 560 371 L 560 379 L 560 379 L 560 427 L 560 427 L 16 427 L 16 427 L 16 267 L 16 267 L 560 267 L 560 267 Z M 208 347 Q 207 332 192 331 Q 177 332 176 347 Q 177 362 192 363 Q 207 362 208 347 L 208 347 Z M 96 363 Q 111 362 112 347 Q 111 332 96 331 Q 81 332 80 347 Q 81 362 96 363 L 96 363 Z" />
</svg>