<svg xmlns="http://www.w3.org/2000/svg" viewBox="0 0 576 448">
  <path d="M 112 0 L 112 8 L 112 0 L 112 8 L 112 32 L 112 32 L 536 32 L 544 32 L 544 40 L 544 40 L 544 88 L 544 88 L 568 88 L 576 88 L 576 96 L 576 96 L 576 160 L 576 160 L 576 168 L 576 168 L 568 168 L 544 168 L 544 216 L 544 216 L 544 224 L 544 224 L 536 224 L 248 224 L 232 288 L 232 288 L 288 288 L 288 288 L 288 264 L 288 264 L 288 256 L 288 256 L 304 256 L 304 256 L 304 264 L 304 264 L 304 296 L 304 296 L 304 328 L 304 328 L 304 336 L 304 336 L 288 336 L 288 336 L 288 328 L 288 328 L 288 304 L 288 304 L 228 304 L 228 304 L 192 448 L 192 448 L 49 448 L 32 448 L 36 432 L 36 432 L 88 224 L 88 224 Q 50 220 26 193 Q 1 167 0 128 Q 1 87 28 60 Q 55 33 96 32 L 96 8 L 96 8 L 96 0 L 96 0 L 112 0 L 112 0 Z M 16 128 Q 17 162 39 185 L 39 185 L 39 185 Q 62 207 96 208 L 528 208 L 528 208 L 528 160 L 528 160 L 528 152 L 528 152 L 536 152 L 560 152 L 560 104 L 560 104 L 536 104 L 528 104 L 528 96 L 528 96 L 528 48 L 528 48 L 96 48 L 96 48 Q 62 49 39 71 Q 17 94 16 128 L 16 128 Z M 232 224 L 105 224 L 232 224 L 105 224 L 53 432 L 53 432 L 180 432 L 180 432 L 232 224 L 232 224 Z M 80 112 L 80 144 L 80 112 L 80 144 L 464 144 L 464 144 L 464 112 L 464 112 L 80 112 L 80 112 Z M 64 96 L 80 96 L 64 96 L 480 96 L 480 112 L 480 112 L 480 144 L 480 144 L 480 160 L 480 160 L 464 160 L 64 160 L 64 144 L 64 144 L 64 112 L 64 112 L 64 96 L 64 96 Z" />
</svg>