<svg xmlns="http://www.w3.org/2000/svg" viewBox="0 0 568 512">
  <path d="M 256 16 Q 189 17 135 49 L 135 49 L 135 49 Q 81 81 49 135 L 49 135 L 49 135 Q 17 189 16 256 Q 17 323 49 377 Q 81 431 135 463 Q 189 495 256 496 Q 329 495 386 458 Q 390 465 396 470 Q 335 511 256 512 Q 184 511 127 477 Q 69 443 35 385 Q 1 328 0 256 Q 1 184 35 127 Q 69 69 127 35 Q 184 1 256 0 Q 328 1 385 35 Q 443 69 477 127 Q 511 184 512 256 Q 512 259 512 262 Q 504 260 496 260 Q 496 258 496 256 Q 495 189 463 135 Q 431 81 377 49 Q 323 17 256 16 L 256 16 Z M 256 416 Q 270 416 279 407 L 279 407 L 279 407 Q 288 398 288 384 Q 288 370 279 361 Q 270 352 256 352 Q 242 352 233 361 Q 224 370 224 384 Q 224 398 233 407 Q 242 416 256 416 L 256 416 Z M 256 336 Q 283 337 298 360 Q 310 384 298 408 Q 283 431 256 432 Q 229 431 214 408 Q 202 384 214 360 Q 229 337 256 336 L 256 336 Z M 311 244 Q 328 273 352 272 Q 375 273 393 244 L 397 237 L 397 237 L 410 245 L 410 245 L 407 252 L 407 252 Q 385 288 352 288 Q 318 287 297 252 L 293 245 L 293 245 L 307 237 L 307 237 L 310 244 L 311 244 Z M 160 272 Q 183 273 201 244 L 205 237 L 205 237 L 218 245 L 218 245 L 215 252 L 215 252 Q 193 288 160 288 Q 126 287 105 252 L 101 245 L 101 245 L 115 237 L 115 237 L 118 244 L 118 244 Q 136 273 159 272 L 160 272 Z M 495 296 Q 513 296 525 308 L 525 308 L 525 308 Q 537 320 539 337 Q 566 351 568 384 Q 566 417 539 431 Q 537 448 525 460 Q 513 472 495 472 Q 474 471 461 456 Q 457 457 452 457 Q 433 457 421 444 Q 408 432 408 413 Q 408 411 408 409 Q 408 409 408 409 L 357 392 L 357 392 L 335 384 L 335 384 L 357 376 L 357 376 L 408 359 L 408 359 Q 410 342 422 330 Q 434 318 452 318 Q 454 318 457 318 Q 469 297 495 296 L 495 296 Z M 469 330 L 466 337 L 469 330 L 466 337 L 459 335 L 459 335 Q 456 334 452 334 Q 440 334 432 342 Q 424 350 424 362 Q 424 363 424 364 L 425 371 L 425 371 L 419 373 L 419 373 L 385 384 L 385 384 L 420 396 L 420 396 L 427 398 L 427 398 L 425 406 L 425 406 Q 424 409 424 413 Q 424 425 432 433 Q 440 441 452 441 Q 457 441 462 440 L 468 437 L 468 437 L 471 443 L 471 443 Q 480 455 495 456 Q 507 456 515 448 Q 523 440 523 428 Q 523 427 523 426 L 522 420 L 522 420 L 528 418 L 528 418 Q 551 409 552 384 Q 551 359 528 350 L 522 348 L 522 348 L 523 342 L 523 342 Q 523 341 523 341 Q 523 341 523 340 Q 523 328 515 320 Q 507 312 495 312 Q 476 313 469 330 L 469 330 Z" />
</svg>