<svg xmlns="http://www.w3.org/2000/svg" viewBox="0 0 608 512">
  <path d="M 144 272 Q 179 272 208 255 L 208 255 L 208 255 Q 237 238 255 208 Q 272 178 272 144 Q 272 110 255 80 Q 237 50 208 33 Q 179 16 144 16 Q 109 16 80 33 Q 51 50 33 80 Q 16 110 16 144 Q 16 178 33 208 Q 51 238 80 255 Q 109 272 144 272 L 144 272 Z M 144 0 Q 183 0 216 19 L 216 19 L 216 19 Q 249 38 269 72 Q 288 106 288 144 Q 288 182 269 216 Q 249 250 216 269 Q 183 288 144 288 Q 105 288 72 269 Q 39 250 19 216 Q 0 182 0 144 Q 0 106 19 72 Q 39 38 72 19 Q 105 0 144 0 L 144 0 Z M 152 69 L 158 74 L 152 69 L 158 74 L 222 138 L 222 138 L 227 144 L 227 144 L 222 150 L 222 150 L 158 214 L 158 214 L 152 219 L 152 219 L 141 208 L 141 208 L 146 202 L 146 202 L 197 152 L 197 152 L 72 152 L 64 152 L 64 136 L 64 136 L 72 136 L 197 136 L 146 86 L 146 86 L 141 80 L 141 80 L 152 69 L 152 69 Z M 307 77 Q 304 70 300 62 L 380 9 L 380 9 L 384 6 L 384 6 L 388 9 L 388 9 L 604 153 L 604 153 L 596 167 L 596 167 L 560 143 L 560 143 L 560 289 L 560 289 Q 552 285 544 279 L 544 132 L 544 132 L 384 26 L 384 26 L 307 77 L 307 77 Z M 129 315 Q 129 316 130 317 L 130 317 L 130 317 Q 136 325 142 333 Q 149 342 162 354 Q 175 366 191 375 Q 207 384 224 384 Q 241 384 257 375 Q 273 366 286 354 Q 299 342 306 333 Q 313 325 319 316 Q 319 315 319 315 Q 319 315 319 315 Q 319 315 319 315 Q 319 315 319 315 Q 319 315 319 315 L 320 314 L 320 314 L 321 315 L 321 315 Q 321 315 321 316 Q 327 325 334 333 Q 341 342 354 354 Q 367 366 383 375 Q 399 384 416 384 Q 433 384 449 375 Q 465 366 478 354 Q 491 342 498 333 Q 505 325 511 316 Q 511 315 511 315 L 512 314 L 512 314 L 513 315 L 513 315 Q 513 315 513 315 Q 513 315 513 315 Q 513 315 513 315 Q 513 315 513 315 Q 513 315 513 316 Q 519 325 526 333 Q 533 342 546 354 Q 559 366 575 375 Q 591 384 608 384 L 608 400 L 608 400 Q 586 399 568 389 Q 549 379 535 366 Q 520 351 512 341 Q 504 351 489 366 Q 475 379 456 389 Q 438 399 416 400 Q 394 399 376 389 Q 357 379 343 366 Q 328 351 320 341 Q 312 351 297 366 Q 283 379 264 389 Q 246 399 224 400 Q 202 399 184 389 Q 165 379 151 366 Q 136 351 128 341 Q 120 351 105 366 Q 91 379 72 389 Q 54 399 32 400 L 32 384 L 32 384 Q 49 384 65 375 Q 81 366 94 354 Q 107 342 114 333 Q 121 325 127 316 Q 127 315 127 315 L 128 314 L 128 314 L 129 315 L 129 315 Z M 128 426 L 129 427 L 128 426 L 129 427 Q 129 428 130 429 Q 136 437 142 445 Q 149 454 162 466 Q 175 478 191 487 Q 207 496 224 496 Q 241 496 257 487 Q 273 478 286 466 Q 299 454 306 445 Q 313 437 319 428 Q 319 427 319 427 Q 319 427 319 427 Q 319 427 319 427 L 320 426 L 320 426 L 321 427 L 321 427 Q 321 428 322 429 Q 327 437 334 445 Q 341 454 354 466 Q 367 478 383 487 Q 399 496 416 496 Q 433 496 449 487 Q 465 478 478 466 Q 491 454 498 445 Q 505 437 511 428 Q 511 427 511 427 L 512 426 L 512 426 L 513 427 L 513 427 Q 513 427 513 427 Q 513 427 513 427 Q 513 428 514 429 Q 519 437 526 445 Q 533 454 546 466 Q 559 478 575 487 Q 591 496 608 496 L 608 512 L 608 512 Q 586 511 568 501 Q 549 491 535 478 Q 520 463 512 453 Q 504 463 489 478 Q 475 491 456 501 Q 438 511 416 512 Q 394 511 376 501 Q 357 491 343 478 Q 328 463 320 453 Q 312 463 297 478 Q 283 491 264 501 Q 246 511 224 512 Q 202 511 184 501 Q 165 491 151 478 Q 136 463 128 453 Q 120 463 105 478 Q 91 491 72 501 Q 54 511 32 512 L 32 496 L 32 496 Q 49 496 65 487 Q 81 478 94 466 Q 107 454 114 445 Q 121 437 127 428 Q 127 427 127 427 L 128 426 L 128 426 Z" />
</svg>