<svg xmlns="http://www.w3.org/2000/svg" viewBox="0 0 639 512">
  <path d="M 16 16 L 368 16 L 16 16 L 368 16 L 368 181 L 368 181 Q 376 177 384 173 L 384 16 L 384 16 L 384 0 L 384 0 L 368 0 L 0 0 L 0 16 L 0 16 L 0 496 L 0 496 L 0 512 L 0 512 L 16 512 L 384 512 L 384 496 L 384 496 L 384 467 L 384 467 Q 376 463 368 459 L 368 496 L 368 496 L 240 496 L 240 496 L 240 384 L 240 384 L 240 368 L 240 368 L 224 368 L 144 368 L 144 384 L 144 384 L 144 496 L 144 496 L 16 496 L 16 496 L 16 16 L 16 16 Z M 312 232 L 304 232 L 312 232 L 232 232 L 232 240 L 232 240 L 232 304 L 232 304 L 232 312 L 232 312 L 240 312 L 288 312 Q 289 304 290 296 L 248 296 L 248 296 L 248 248 L 248 248 L 296 248 L 296 248 L 296 270 L 296 270 Q 302 252 312 236 L 312 232 L 312 232 Z M 160 496 L 160 384 L 160 496 L 160 384 L 224 384 L 224 384 L 224 496 L 224 496 L 160 496 L 160 496 Z M 80 232 L 72 232 L 80 232 L 72 232 L 72 240 L 72 240 L 72 304 L 72 304 L 72 312 L 72 312 L 80 312 L 152 312 L 152 304 L 152 304 L 152 240 L 152 240 L 152 232 L 152 232 L 144 232 L 80 232 Z M 88 296 L 88 248 L 88 296 L 88 248 L 136 248 L 136 248 L 136 296 L 136 296 L 88 296 L 88 296 Z M 80 104 L 72 104 L 80 104 L 72 104 L 72 112 L 72 112 L 72 176 L 72 176 L 72 184 L 72 184 L 80 184 L 152 184 L 152 176 L 152 176 L 152 112 L 152 112 L 152 104 L 152 104 L 144 104 L 80 104 Z M 88 168 L 88 120 L 88 168 L 88 120 L 136 120 L 136 120 L 136 168 L 136 168 L 88 168 L 88 168 Z M 232 104 L 232 112 L 232 104 L 232 112 L 232 176 L 232 176 L 232 184 L 232 184 L 240 184 L 312 184 L 312 176 L 312 176 L 312 112 L 312 112 L 312 104 L 312 104 L 304 104 L 232 104 Z M 248 120 L 296 120 L 248 120 L 296 120 L 296 168 L 296 168 L 248 168 L 248 168 L 248 120 L 248 120 Z M 448 208 Q 478 208 504 223 L 504 223 L 504 223 Q 530 238 545 264 Q 560 291 560 320 Q 560 350 545 376 Q 530 402 504 417 Q 478 432 448 432 Q 418 432 392 417 Q 366 402 351 376 Q 336 350 336 320 Q 336 291 351 264 Q 366 238 392 223 Q 418 208 448 208 L 448 208 Z M 448 448 Q 498 447 533 416 L 622 506 L 622 506 L 628 511 L 628 511 L 639 500 L 639 500 L 634 494 L 634 494 L 544 405 L 544 405 Q 575 370 576 320 Q 575 266 539 230 Q 502 193 448 192 Q 394 193 357 230 Q 321 266 320 320 Q 321 374 357 411 Q 394 447 448 448 L 448 448 Z" />
</svg>