<svg xmlns="http://www.w3.org/2000/svg" viewBox="0 0 508 520">
  <path d="M 214 64 Q 215 41 234 29 Q 254 19 274 29 Q 293 41 294 64 Q 293 87 274 99 Q 254 109 234 99 Q 215 87 214 64 L 214 64 Z M 310 64 Q 309 32 282 16 Q 254 0 226 16 Q 199 32 198 64 Q 199 96 226 112 Q 254 128 282 112 Q 309 96 310 64 L 310 64 Z M 195 136 L 190 136 L 195 136 L 190 136 L 188 141 L 188 141 L 103 317 L 103 317 L 99 324 L 99 324 L 114 331 L 114 331 L 117 324 L 117 324 L 200 152 L 200 152 L 308 152 L 308 152 L 391 324 L 391 324 L 394 331 L 394 331 L 409 324 L 409 324 L 405 317 L 405 317 L 320 141 L 320 141 L 318 136 L 318 136 L 313 136 L 195 136 Z M 198 248 L 182 248 L 198 248 L 182 248 L 182 256 L 182 256 L 182 512 L 182 512 L 182 520 L 182 520 L 190 520 L 246 520 L 246 512 L 246 512 L 246 360 L 246 360 L 262 360 L 262 360 L 262 512 L 262 512 L 262 520 L 262 520 L 270 520 L 326 520 L 326 512 L 326 512 L 326 256 L 326 256 L 326 248 L 326 248 L 310 248 L 310 248 L 310 256 L 310 256 L 310 504 L 310 504 L 278 504 L 278 504 L 278 352 L 278 352 L 278 344 L 278 344 L 270 344 L 230 344 L 230 352 L 230 352 L 230 504 L 230 504 L 198 504 L 198 504 L 198 256 L 198 256 L 198 248 L 198 248 Z M 104 126 L 116 114 L 104 126 L 116 114 L 12 10 L 12 10 L 0 22 L 0 22 L 104 126 L 104 126 Z M 404 126 L 508 22 L 404 126 L 508 22 L 496 10 L 496 10 L 392 114 L 392 114 L 404 126 L 404 126 Z M 0 506 L 12 518 L 0 506 L 12 518 L 116 414 L 116 414 L 104 402 L 104 402 L 0 506 L 0 506 Z M 404 402 L 392 414 L 404 402 L 392 414 L 496 518 L 496 518 L 508 506 L 508 506 L 404 402 L 404 402 Z" />
</svg>