<svg xmlns="http://www.w3.org/2000/svg" viewBox="0 0 640 434">
  <path d="M 256 414 Q 213 434 169 427 L 169 427 L 169 427 Q 125 420 92 389 L 43 413 L 43 413 L 0 327 L 0 327 L 49 303 L 49 303 Q 44 258 65 218 Q 85 178 128 156 Q 154 144 222 119 Q 290 94 367 67 Q 445 39 501 20 Q 556 1 559 0 L 640 162 L 640 162 Q 639 163 606 185 Q 573 208 523 242 Q 503 210 471 192 Q 439 173 400 173 Q 339 175 298 215 Q 258 256 256 317 Q 257 364 282 399 Q 266 409 256 414 L 256 414 Z M 288 317 Q 288 287 303 261 L 303 261 L 303 261 Q 318 235 344 220 Q 370 205 400 205 Q 430 205 456 220 Q 482 235 497 261 Q 512 287 512 317 Q 512 347 497 373 Q 482 399 456 414 Q 430 429 400 429 Q 370 429 344 414 Q 318 399 303 373 Q 288 347 288 317 L 288 317 Z M 432 317 Q 432 303 423 294 L 423 294 L 423 294 Q 414 285 400 285 Q 386 285 377 294 Q 368 303 368 317 Q 368 331 377 340 Q 386 349 400 349 Q 414 349 423 340 Q 432 331 432 317 L 432 317 Z" />
</svg>