<svg xmlns="http://www.w3.org/2000/svg" viewBox="0 0 448 512">
  <path d="M 160 0 L 156 0 L 160 0 L 156 0 L 153 4 L 153 4 L 116 64 L 116 64 L 0 64 L 0 64 L 0 80 L 0 80 L 448 80 L 448 80 L 448 64 L 448 64 L 332 64 L 332 64 L 295 4 L 295 4 L 292 0 L 292 0 L 288 0 L 160 0 Z M 314 64 L 134 64 L 314 64 L 134 64 L 164 16 L 164 16 L 284 16 L 284 16 L 314 64 L 314 64 Z M 24 112 L 24 113 L 24 112 L 24 113 L 64 505 L 64 505 L 65 512 L 65 512 L 72 512 L 383 512 L 384 505 L 384 505 L 424 113 L 424 113 L 424 112 L 424 112 L 408 112 L 408 112 L 369 496 L 369 496 L 79 496 L 79 496 L 40 112 L 40 112 L 24 112 L 24 112 Z M 224 176 Q 221 176 218 178 L 138 258 L 138 258 L 133 264 L 133 264 L 144 275 L 144 275 L 150 270 L 150 270 L 216 203 L 216 203 L 216 400 L 216 400 L 232 400 L 232 400 L 232 203 L 232 203 L 298 270 L 298 270 L 304 275 L 304 275 L 315 264 L 315 264 L 310 258 L 310 258 L 230 178 L 230 178 Q 227 176 224 176 L 224 176 Z" />
</svg>