<svg xmlns="http://www.w3.org/2000/svg" viewBox="0 0 640 512">
  <path d="M 64 64 L 32 64 L 64 64 L 32 64 L 32 384 L 32 384 L 332 384 L 332 384 Q 339 401 349 416 L 96 416 L 96 416 L 96 512 L 96 512 L 64 512 L 64 512 L 64 416 L 64 416 L 32 416 L 0 416 L 0 384 L 0 384 L 0 64 L 0 64 L 0 32 L 0 32 L 32 32 L 64 32 L 64 0 L 64 0 L 96 0 L 96 0 L 96 32 L 96 32 L 480 32 L 480 32 L 480 0 L 480 0 L 512 0 L 512 0 L 512 32 L 512 32 L 544 32 L 576 32 L 576 64 L 576 64 L 576 160 L 576 160 L 544 160 L 544 160 L 544 64 L 544 64 L 512 64 L 64 64 Z M 434 192 L 448 192 L 434 192 L 464 192 L 464 208 L 464 208 L 464 295 L 464 295 L 496 317 L 496 317 L 528 295 L 528 295 L 528 208 L 528 208 L 528 192 L 528 192 L 544 192 L 562 192 L 566 194 L 566 194 Q 599 213 619 246 Q 640 279 640 320 Q 638 386 592 427 L 592 496 L 592 496 L 592 512 L 592 512 L 560 512 L 560 512 L 560 496 L 560 496 L 560 420 L 560 420 L 560 412 L 560 412 L 566 407 L 566 407 Q 606 375 608 320 Q 606 261 560 228 L 560 304 L 560 304 L 560 313 L 560 313 L 553 317 L 553 317 L 505 349 L 505 349 L 496 355 L 496 355 L 487 349 L 487 349 L 439 317 L 439 317 L 432 313 L 432 313 L 432 304 L 432 304 L 432 228 L 432 228 Q 386 261 384 320 Q 386 375 426 407 L 432 412 L 432 412 L 432 420 L 432 420 L 432 496 L 432 496 L 432 512 L 432 512 L 400 512 L 400 512 L 400 496 L 400 496 L 400 427 L 400 427 Q 354 386 352 320 Q 352 279 373 246 Q 393 213 426 194 L 430 192 L 430 192 L 434 192 L 434 192 Z" />
</svg>