<svg xmlns="http://www.w3.org/2000/svg" viewBox="0 0 640 512">
  <path d="M 512 312 Q 512 294 495 258 L 495 258 L 495 258 Q 477 223 439 193 L 425 16 L 425 16 L 464 16 L 472 16 L 472 0 L 472 0 L 464 0 L 168 0 L 168 16 L 168 16 L 176 16 L 215 16 L 210 78 L 210 78 L 225 89 L 225 89 L 231 16 L 231 16 L 409 16 L 409 16 L 423 194 L 423 194 L 424 201 L 424 201 L 429 205 L 429 205 Q 465 233 481 266 Q 492 288 495 302 L 512 316 L 512 316 L 512 312 L 512 312 Z M 165 225 Q 146 250 137 274 L 137 274 L 137 274 Q 128 297 128 312 L 128 336 L 128 336 L 128 352 L 128 352 L 144 352 L 312 352 L 312 504 L 312 504 L 312 512 L 312 512 L 328 512 L 328 512 L 328 504 L 328 504 L 328 354 L 328 354 L 305 336 L 305 336 L 144 336 L 144 336 L 144 312 L 144 312 Q 144 312 144 312 Q 144 312 144 312 Q 143 296 159 263 Q 167 249 178 235 L 165 225 L 165 225 Z M 16 5 L 10 0 L 16 5 L 10 0 L 0 13 L 0 13 L 6 18 L 6 18 L 624 507 L 624 507 L 630 512 L 630 512 L 640 500 L 640 500 L 634 495 L 634 495 L 16 5 L 16 5 Z" />
</svg>