<svg xmlns="http://www.w3.org/2000/svg" viewBox="0 0 640 512">
  <path d="M 512 192 Q 510 110 456 56 L 456 56 L 456 56 Q 402 2 320 0 Q 278 0 241 17 Q 205 33 178 63 L 203 82 L 203 82 Q 249 34 320 32 Q 388 34 433 79 Q 478 124 480 192 Q 480 216 463 255 Q 458 267 453 279 L 478 299 L 478 299 Q 510 238 512 192 L 512 192 Z M 177 255 Q 167 232 163 213 L 128 186 L 128 186 Q 128 188 128 189 Q 128 191 128 192 Q 130 237 160 296 Q 191 355 230 410 Q 269 466 296 499 Q 306 511 320 511 Q 334 511 344 499 Q 371 465 411 409 L 386 390 L 386 390 Q 347 444 320 478 Q 300 453 273 416 Q 246 380 220 338 Q 193 295 176 256 L 177 255 Z M 32 10 L 20 0 L 32 10 L 20 0 L 0 25 L 0 25 L 13 35 L 13 35 L 608 502 L 608 502 L 620 512 L 620 512 L 640 487 L 640 487 L 628 477 L 628 477 L 32 10 L 32 10 Z" />
</svg>