<svg xmlns="http://www.w3.org/2000/svg" viewBox="0 0 640 448">
  <path d="M 96 0 L 96 32 L 96 0 L 96 32 L 96 104 L 96 104 L 96 136 L 96 136 Q 113 136 124 148 Q 136 159 136 176 Q 136 193 124 204 Q 113 216 96 216 L 96 248 L 96 248 L 96 320 L 96 320 L 96 352 L 96 352 L 128 352 L 640 352 L 640 320 L 640 320 L 640 248 L 640 248 L 640 216 L 640 216 Q 623 216 612 204 Q 600 193 600 176 Q 600 159 612 148 Q 623 136 640 136 L 640 104 L 640 104 L 640 32 L 640 32 L 640 0 L 640 0 L 608 0 L 96 0 Z M 168 176 Q 166 131 128 112 L 128 32 L 128 32 L 608 32 L 608 32 L 608 112 L 608 112 Q 570 131 568 176 Q 570 221 608 241 L 608 320 L 608 320 L 128 320 L 128 320 L 128 241 L 128 241 Q 166 221 168 176 L 168 176 Z M 32 80 L 32 64 L 32 80 L 32 64 L 0 64 L 0 64 L 0 80 L 0 80 L 0 432 L 0 432 L 0 448 L 0 448 L 16 448 L 544 448 L 544 416 L 544 416 L 528 416 L 32 416 L 32 80 L 32 80 Z" />
</svg>