<svg xmlns="http://www.w3.org/2000/svg" viewBox="0 0 512 448">
  <path d="M 350 218 L 355 224 L 350 218 L 355 224 L 350 230 L 350 230 L 214 366 L 214 366 L 208 371 L 208 371 L 197 360 L 197 360 L 202 354 L 202 354 L 325 232 L 325 232 L 8 232 L 0 232 L 0 216 L 0 216 L 8 216 L 325 216 L 202 94 L 202 94 L 197 88 L 197 88 L 208 77 L 208 77 L 214 82 L 214 82 L 350 218 L 350 218 Z M 328 432 L 496 432 L 328 432 L 496 432 L 496 16 L 496 16 L 328 16 L 320 16 L 320 0 L 320 0 L 328 0 L 512 0 L 512 8 L 512 8 L 512 440 L 512 440 L 512 448 L 512 448 L 504 448 L 320 448 L 320 432 L 320 432 L 328 432 L 328 432 Z" />
</svg>