<svg xmlns="http://www.w3.org/2000/svg" viewBox="0 0 512 512">
  <path d="M 96 0 L 88 0 L 96 0 L 88 0 L 88 8 L 88 8 L 88 40 L 88 40 Q 88 68 102 91 Q 109 89 117 87 Q 104 66 104 40 L 104 16 L 104 16 L 160 16 L 160 16 Q 195 17 219 38 Q 243 60 247 94 Q 256 94 265 94 Q 269 60 293 38 Q 317 17 352 16 L 408 16 L 408 16 L 408 40 L 408 40 Q 408 66 395 87 Q 403 89 411 91 Q 424 68 424 40 L 424 8 L 424 8 L 424 0 L 424 0 L 416 0 L 352 0 Q 319 0 294 18 Q 268 35 256 64 Q 244 35 218 18 Q 193 0 160 0 L 96 0 L 96 0 Z M 256 137 Q 217 113 168 112 L 160 112 L 160 112 L 160 112 L 160 112 Q 92 117 47 164 Q 2 211 0 280 Q 2 337 39 380 Q 76 424 124 453 Q 172 482 209 497 Q 246 512 248 512 L 264 512 L 264 512 Q 266 512 303 497 Q 340 482 388 453 Q 436 424 473 380 Q 510 337 512 280 Q 510 209 463 161 Q 415 114 344 112 Q 295 113 256 137 L 256 137 Z M 283 156 Q 277 151 271 147 Q 304 128 344 128 Q 409 130 451 173 Q 494 215 496 280 Q 494 330 461 370 Q 427 410 380 440 Q 333 468 297 482 Q 279 490 269 493 Q 264 495 262 496 L 261 496 L 250 496 Q 250 496 249 495 Q 247 495 243 493 Q 233 490 215 482 Q 180 468 132 440 Q 85 410 51 370 Q 18 330 16 280 Q 18 215 61 173 Q 103 130 168 128 Q 196 128 223 139 Q 250 150 273 168 Q 321 207 323 256 L 323 264 L 323 264 L 339 264 L 339 264 L 339 256 L 339 256 Q 339 227 323 202 Q 308 176 283 156 L 283 156 Z" />
</svg>