<svg xmlns="http://www.w3.org/2000/svg" viewBox="0 0 512 448">
  <path d="M 16 0 L 0 0 L 16 0 L 0 0 L 0 8 L 0 8 L 0 440 L 0 440 L 0 448 L 0 448 L 16 448 L 16 448 L 16 440 L 16 440 L 16 8 L 16 8 L 16 0 L 16 0 Z M 150 106 L 144 101 L 150 106 L 144 101 L 133 112 L 133 112 L 138 118 L 138 118 L 245 224 L 245 224 L 138 330 L 138 330 L 133 336 L 133 336 L 144 347 L 144 347 L 150 342 L 150 342 L 256 235 L 256 235 L 362 342 L 362 342 L 368 347 L 368 347 L 379 336 L 379 336 L 374 330 L 374 330 L 267 224 L 267 224 L 374 118 L 374 118 L 379 112 L 379 112 L 368 101 L 368 101 L 362 106 L 362 106 L 256 213 L 256 213 L 150 106 L 150 106 Z M 512 8 L 512 0 L 512 8 L 512 0 L 496 0 L 496 0 L 496 8 L 496 8 L 496 440 L 496 440 L 496 448 L 496 448 L 512 448 L 512 448 L 512 440 L 512 440 L 512 8 L 512 8 Z" />
</svg>