<svg xmlns="http://www.w3.org/2000/svg" viewBox="0 0 512 512">
  <path d="M 150 7 L 222 87 L 150 7 L 222 87 L 227 93 L 227 93 L 215 103 L 215 103 L 210 97 L 210 97 L 144 24 L 144 24 L 78 97 L 78 97 L 73 103 L 73 103 L 61 93 L 61 93 L 66 87 L 66 87 L 138 7 L 138 7 L 144 0 L 144 0 L 150 7 L 150 7 Z M 302 7 L 368 80 L 302 7 L 368 80 L 434 7 L 434 7 L 440 1 L 440 1 L 451 11 L 451 11 L 446 17 L 446 17 L 374 97 L 374 97 L 368 104 L 368 104 L 362 97 L 362 97 L 290 17 L 290 17 L 285 11 L 285 11 L 297 1 L 297 1 L 302 7 L 302 7 Z M 16 144 L 16 496 L 16 144 L 16 496 L 496 496 L 496 496 L 496 144 L 496 144 L 16 144 L 16 144 Z M 0 128 L 16 128 L 0 128 L 512 128 L 512 144 L 512 144 L 512 496 L 512 496 L 512 512 L 512 512 L 496 512 L 0 512 L 0 496 L 0 496 L 0 144 L 0 144 L 0 128 L 0 128 Z M 200 264 Q 199 241 180 229 Q 160 219 140 229 Q 121 241 120 264 Q 121 287 140 299 Q 160 309 180 299 Q 199 287 200 264 L 200 264 Z M 104 264 Q 105 232 132 216 Q 160 200 188 216 Q 215 232 216 264 Q 215 296 188 312 Q 160 328 132 312 Q 105 296 104 264 L 104 264 Z M 352 304 Q 375 303 387 284 Q 397 264 387 244 Q 375 225 352 224 Q 329 225 317 244 Q 307 264 317 284 Q 329 303 352 304 L 352 304 Z M 352 208 Q 384 209 400 236 Q 416 264 400 292 Q 384 319 352 320 Q 320 319 304 292 Q 288 264 304 236 Q 320 209 352 208 L 352 208 Z M 97 448 L 80 448 L 97 448 L 80 448 L 104 352 L 104 352 L 216 352 L 216 352 L 240 448 L 240 448 L 224 448 L 224 448 L 204 368 L 204 368 L 117 368 L 117 368 L 97 448 L 97 448 Z M 309 368 L 289 448 L 309 368 L 289 448 L 272 448 L 272 448 L 296 352 L 296 352 L 408 352 L 408 352 L 432 448 L 432 448 L 416 448 L 416 448 L 396 368 L 396 368 L 309 368 L 309 368 Z" />
</svg>