<svg xmlns="http://www.w3.org/2000/svg" viewBox="0 0 400 416">
  <path d="M 400 8 L 400 0 L 400 8 L 400 0 L 384 0 L 384 0 L 384 8 L 384 8 L 384 408 L 384 408 L 384 416 L 384 416 L 400 416 L 400 416 L 400 408 L 400 408 L 400 8 L 400 8 Z M 272 96 L 256 96 L 272 96 L 256 96 L 256 104 L 256 104 L 256 408 L 256 408 L 256 416 L 256 416 L 272 416 L 272 416 L 272 408 L 272 408 L 272 104 L 272 104 L 272 96 L 272 96 Z M 144 200 L 144 192 L 144 200 L 144 192 L 128 192 L 128 192 L 128 200 L 128 200 L 128 408 L 128 408 L 128 416 L 128 416 L 144 416 L 144 416 L 144 408 L 144 408 L 144 200 L 144 200 Z M 16 296 L 16 288 L 16 296 L 16 288 L 0 288 L 0 288 L 0 296 L 0 296 L 0 408 L 0 408 L 0 416 L 0 416 L 16 416 L 16 416 L 16 408 L 16 408 L 16 296 L 16 296 Z" />
</svg>