<svg xmlns="http://www.w3.org/2000/svg" viewBox="0 0 512 511">
  <path d="M 346 319 L 282 319 L 346 319 L 282 319 L 303 248 L 303 248 L 263 208 L 263 208 L 160 239 L 160 239 Q 162 214 166 191 L 346 191 L 346 191 Q 352 222 352 255 Q 352 288 346 319 L 346 319 Z M 128 248 L 2 285 L 128 248 L 2 285 Q 0 270 0 255 Q 0 222 8 191 L 134 191 L 134 191 Q 129 218 128 248 L 128 248 Z M 235 480 L 273 351 L 235 480 L 273 351 L 338 351 L 338 351 Q 320 412 293 456 Q 273 489 256 510 Q 246 498 235 480 L 235 480 Z M 384 255 Q 384 222 378 191 L 504 191 L 504 191 Q 512 222 512 255 Q 512 288 504 319 L 378 319 L 378 319 Q 384 288 384 255 L 384 255 Z M 371 159 Q 358 110 338 70 L 338 70 L 338 70 Q 317 30 297 2 Q 365 14 416 56 Q 468 97 493 159 L 371 159 L 371 159 Z M 174 159 Q 192 98 220 54 Q 240 21 256 0 Q 272 21 293 54 Q 320 98 338 159 L 174 159 L 174 159 Z M 215 2 Q 195 30 174 70 L 174 70 L 174 70 Q 154 110 141 159 L 19 159 L 19 159 Q 44 97 95 56 Q 147 14 215 2 L 215 2 Z M 371 351 L 493 351 L 371 351 L 493 351 Q 468 413 417 454 Q 365 496 297 508 Q 317 480 338 440 Q 358 400 371 351 L 371 351 Z M 0 319 L 255 244 L 0 319 L 255 244 L 267 256 L 267 256 L 192 511 L 192 511 L 144 415 L 144 415 L 143 414 L 143 414 L 47 510 L 47 510 L 1 464 L 1 464 L 97 368 L 97 368 L 96 367 L 96 367 L 0 319 L 0 319 Z" />
</svg>