<svg xmlns="http://www.w3.org/2000/svg" viewBox="0 0 641 480">
  <path d="M 432 16 L 16 16 L 432 16 L 16 16 L 16 432 L 16 432 L 324 432 L 324 432 Q 330 440 337 448 L 16 448 L 0 448 L 0 432 L 0 432 L 0 16 L 0 16 L 0 0 L 0 0 L 16 0 L 448 0 L 448 16 L 448 16 L 448 90 L 448 90 L 432 100 L 432 100 L 432 16 L 432 16 Z M 384 80 L 384 137 L 384 80 L 384 137 Q 376 144 368 152 L 368 80 L 368 80 L 80 80 L 80 80 L 80 160 L 80 160 L 361 160 L 361 160 Q 353 168 347 176 L 80 176 L 64 176 L 64 160 L 64 160 L 64 80 L 64 80 L 64 64 L 64 64 L 80 64 L 384 64 L 384 80 L 384 80 Z M 120 224 L 120 248 L 120 224 L 120 248 L 96 248 L 96 248 L 96 224 L 96 224 L 120 224 L 120 224 Z M 160 224 L 184 224 L 160 224 L 184 224 L 184 248 L 184 248 L 160 248 L 160 248 L 160 224 L 160 224 Z M 248 224 L 248 248 L 248 224 L 248 248 L 224 248 L 224 248 L 224 224 L 224 224 L 248 224 L 248 224 Z M 501 181 L 512 192 L 501 181 L 512 192 L 523 181 L 523 181 L 544 160 L 544 160 Q 600 210 621 254 Q 641 299 640 320 Q 638 388 593 433 Q 548 478 480 480 Q 412 478 367 433 Q 322 388 320 320 Q 321 275 344 237 Q 366 198 396 170 Q 425 142 448 128 L 501 181 L 501 181 Z M 576 391 Q 576 418 560 440 Q 589 420 607 389 Q 624 358 624 320 Q 625 304 609 265 Q 592 227 545 182 L 523 204 L 523 204 L 512 215 L 512 215 L 501 204 L 501 204 L 446 149 L 446 149 Q 415 170 381 211 Q 361 235 349 262 Q 336 290 336 320 Q 336 358 353 389 Q 371 420 400 440 Q 384 418 384 391 Q 386 355 409 324 Q 432 294 455 275 Q 478 257 480 256 Q 482 257 505 275 Q 528 294 551 324 Q 574 355 576 391 L 576 391 Z M 480 464 Q 515 463 537 442 L 537 442 L 537 442 Q 559 421 560 391 Q 559 369 547 348 Q 535 327 517 308 Q 499 290 485 280 Q 482 278 480 276 Q 478 278 475 280 Q 461 290 444 308 Q 425 327 413 348 Q 401 369 400 391 Q 401 421 423 442 Q 445 463 480 464 L 480 464 Z" />
</svg>