<svg xmlns="http://www.w3.org/2000/svg" viewBox="0 0 512 512">
  <path d="M 386 216 Q 387 215 388 215 Q 389 215 389 214 L 395 211 L 395 211 L 392 206 L 392 206 Q 392 206 392 205 Q 391 205 391 204 Q 372 169 336 168 L 336 168 L 336 168 L 336 168 L 336 168 Q 324 168 312 173 Q 297 181 286 196 Q 283 200 281 204 L 277 211 L 277 211 L 291 219 L 291 219 L 294 214 L 294 214 Q 295 213 295 212 Q 297 208 299 205 Q 309 191 322 187 Q 328 184 336 184 Q 359 184 377 212 L 381 219 L 381 219 L 386 216 L 386 216 Z M 176 208 L 176 208 L 176 208 L 176 208 L 176 208 L 176 208 Q 191 207 192 192 Q 191 177 176 176 L 176 176 L 176 176 L 176 176 L 176 176 Q 161 177 160 192 Q 161 207 176 208 L 176 208 Z M 107 322 Q 120 371 158 401 L 158 401 L 158 401 Q 196 431 248 432 L 264 432 L 264 432 Q 316 431 354 401 Q 392 371 405 322 Q 408 313 410 304 Q 411 296 412 288 L 396 288 L 100 288 Q 101 296 102 304 Q 104 313 107 322 L 107 322 Z M 123 319 Q 121 312 120 304 L 392 304 L 392 304 Q 391 312 389 319 Q 374 362 338 389 Q 303 415 256 416 Q 209 415 174 389 Q 138 362 123 319 L 123 319 Z M 256 0 Q 186 1 128 34 L 128 34 L 128 34 Q 70 68 34 128 Q 0 189 0 256 Q 0 323 34 384 Q 70 444 128 478 Q 186 511 256 512 Q 326 511 384 478 Q 442 444 478 384 Q 512 323 512 256 Q 512 189 478 128 Q 442 68 384 34 Q 326 1 256 0 L 256 0 Z M 256 16 Q 321 17 376 48 L 376 48 L 376 48 Q 431 80 464 136 Q 496 193 496 256 Q 496 319 464 376 Q 431 432 376 464 Q 321 495 256 496 Q 191 495 136 464 Q 81 432 48 376 Q 16 319 16 256 Q 16 193 48 136 Q 81 80 136 48 Q 191 17 256 16 L 256 16 Z" />
</svg>