<svg xmlns="http://www.w3.org/2000/svg" viewBox="0 0 640 512">
  <path d="M 480 176 Q 479 228 452 267 Q 446 275 440 283 Q 439 285 437 287 Q 436 288 436 289 Q 417 314 401 342 Q 390 362 387 384 L 403 384 L 403 384 Q 406 366 415 350 Q 430 323 449 298 Q 449 298 449 298 Q 449 298 449 298 Q 449 298 449 298 Q 449 298 449 298 Q 449 298 449 298 Q 449 298 449 298 Q 457 287 465 276 Q 495 233 496 176 Q 494 101 444 52 Q 395 2 320 0 Q 245 2 196 52 Q 146 101 144 176 Q 145 233 175 276 Q 183 287 191 298 Q 191 298 191 298 Q 191 298 191 298 Q 191 298 191 298 Q 191 298 191 298 Q 191 298 191 298 Q 191 298 191 298 Q 210 323 225 349 Q 234 366 237 384 L 253 384 L 253 384 Q 250 362 239 342 Q 223 313 203 287 Q 203 287 203 287 Q 203 287 203 287 Q 203 287 203 287 Q 203 287 203 287 Q 201 285 200 283 Q 194 275 188 267 Q 161 228 160 176 Q 162 108 207 63 Q 252 18 320 16 Q 388 18 433 63 Q 478 108 480 176 L 480 176 Z M 224 168 Q 225 131 250 106 L 250 106 L 250 106 Q 275 81 312 80 L 312 64 L 312 64 Q 268 65 238 94 Q 209 124 208 168 L 224 168 L 224 168 Z M 256 496 L 256 432 L 256 496 L 256 432 L 384 432 L 384 432 L 384 496 L 384 496 L 256 496 L 256 496 Z M 240 416 L 240 432 L 240 416 L 240 432 L 240 496 L 240 496 L 240 512 L 240 512 L 256 512 L 400 512 L 400 496 L 400 496 L 400 432 L 400 432 L 400 416 L 400 416 L 384 416 L 240 416 Z M 49 4 L 42 0 L 49 4 L 42 0 L 34 14 L 34 14 L 41 18 L 41 18 L 116 63 L 116 63 L 123 67 L 123 67 L 131 53 L 131 53 L 124 49 L 124 49 L 49 4 L 49 4 Z M 599 18 L 606 14 L 599 18 L 606 14 L 598 0 L 598 0 L 591 4 L 591 4 L 516 49 L 516 49 L 509 53 L 509 53 L 517 67 L 517 67 L 524 63 L 524 63 L 599 18 L 599 18 Z M 8 160 L 0 160 L 8 160 L 0 160 L 0 176 L 0 176 L 8 176 L 96 176 L 96 160 L 96 160 L 88 160 L 8 160 Z M 552 160 L 544 160 L 552 160 L 544 160 L 544 176 L 544 176 L 552 176 L 640 176 L 640 160 L 640 160 L 632 160 L 552 160 Z M 124 271 L 131 267 L 124 271 L 131 267 L 123 253 L 123 253 L 116 257 L 116 257 L 41 302 L 41 302 L 34 306 L 34 306 L 42 320 L 42 320 L 49 316 L 49 316 L 124 271 L 124 271 Z M 524 257 L 517 253 L 524 257 L 517 253 L 509 267 L 509 267 L 516 271 L 516 271 L 591 316 L 591 316 L 598 320 L 598 320 L 606 306 L 606 306 L 599 302 L 599 302 L 524 257 L 524 257 Z" />
</svg>