<svg xmlns="http://www.w3.org/2000/svg" viewBox="0 0 512 512">
  <path d="M 192 208 L 208 208 L 192 208 L 208 208 L 208 192 L 208 192 L 208 176 L 208 176 L 248 176 L 256 176 L 256 160 L 256 160 L 248 160 L 128 160 Q 108 159 94 146 Q 81 132 80 112 Q 81 92 94 78 Q 108 65 128 64 Q 136 64 144 67 Q 146 67 147 68 Q 155 71 161 77 Q 160 73 160 68 Q 160 62 161 57 Q 165 39 179 28 Q 193 16 212 16 Q 231 16 245 28 Q 252 33 256 40 Q 261 33 267 28 Q 281 16 300 16 Q 319 16 333 28 Q 347 39 351 57 Q 352 62 352 68 Q 352 73 351 77 Q 357 71 365 68 Q 366 67 368 67 Q 375 64 384 64 Q 404 65 418 78 Q 431 92 432 112 Q 431 132 418 146 Q 404 159 384 160 L 320 160 L 304 160 L 304 176 L 304 176 L 304 192 L 304 192 L 304 208 L 304 208 L 320 208 L 320 208 L 320 192 L 320 192 L 320 176 L 320 176 L 384 176 L 384 176 Q 411 175 429 157 Q 447 139 448 112 Q 447 85 429 67 Q 411 49 384 48 Q 374 48 366 51 Q 360 28 342 14 Q 324 0 300 0 Q 274 1 256 16 Q 238 1 212 0 Q 188 0 170 14 Q 152 28 146 51 Q 138 48 128 48 Q 101 49 83 67 Q 65 85 64 112 Q 65 139 83 157 Q 101 175 128 176 L 160 176 L 192 176 L 192 192 L 192 192 L 192 208 L 192 208 Z M 256 96 L 256 96 L 256 96 L 256 96 L 256 96 L 256 96 L 256 96 L 256 96 Z M 23 271 L 29 273 L 23 271 L 29 273 L 35 271 L 35 271 L 85 249 L 85 249 L 136 271 L 136 271 L 144 274 L 144 274 L 151 269 L 151 269 L 193 242 L 193 242 L 249 270 L 249 270 L 256 274 L 256 274 L 262 271 L 262 271 L 313 249 L 313 249 L 364 271 L 364 271 L 370 273 L 370 273 L 376 271 L 376 271 L 427 249 L 427 249 L 478 271 L 478 271 L 483 273 L 483 273 L 489 271 L 489 271 L 496 269 L 496 269 Q 488 366 421 430 Q 355 494 256 496 Q 157 494 91 430 Q 24 366 16 269 L 23 271 L 23 271 Z M 142 256 L 85 232 L 142 256 L 85 232 L 28 256 L 28 256 L 16 252 L 16 252 L 0 246 L 0 246 Q 0 251 0 256 Q 0 260 0 263 Q 3 333 37 389 Q 72 445 129 478 Q 186 511 256 512 Q 326 511 383 478 Q 440 445 475 389 Q 509 333 512 263 Q 512 260 512 256 Q 512 251 512 246 Q 512 246 512 246 L 496 252 L 496 252 L 484 256 L 484 256 L 427 232 L 427 232 L 370 256 L 370 256 L 313 232 L 313 232 L 256 256 L 256 256 L 192 224 L 192 224 L 142 256 L 142 256 Z M 176 352 Q 191 351 192 336 Q 191 321 176 320 Q 162 321 160 336 Q 162 351 176 352 L 176 352 Z M 336 352 Q 351 351 352 336 Q 351 321 336 320 Q 322 321 320 336 Q 322 351 336 352 L 336 352 Z M 328 432 Q 324 404 304 387 L 304 387 L 304 387 Q 284 369 256 368 Q 227 369 208 387 Q 188 404 184 432 Q 184 436 184 440 L 184 448 L 184 448 L 200 448 L 328 448 L 328 440 L 328 440 Q 328 436 328 432 L 328 432 Z M 201 432 Q 204 411 219 398 L 219 398 L 219 398 Q 234 384 256 384 Q 278 384 293 398 Q 308 411 311 432 L 200 432 L 201 432 Z" />
</svg>