<svg xmlns="http://www.w3.org/2000/svg" viewBox="0 0 384 512">
  <path d="M 16 496 L 16 16 L 16 496 L 16 16 L 208 16 L 208 16 L 208 168 L 208 168 L 208 176 L 208 176 L 216 176 L 368 176 L 368 496 L 368 496 L 16 496 L 16 496 Z M 224 23 L 361 160 L 224 23 L 361 160 L 224 160 L 224 160 L 224 23 L 224 23 Z M 224 0 L 16 0 L 224 0 L 0 0 L 0 16 L 0 16 L 0 496 L 0 496 L 0 512 L 0 512 L 16 512 L 384 512 L 384 496 L 384 496 L 384 160 L 384 160 L 224 0 L 224 0 Z M 160 208 L 152 208 L 160 208 L 152 208 L 152 216 L 152 216 L 152 280 L 152 280 L 88 280 L 80 280 L 80 288 L 80 288 L 80 352 L 80 352 L 80 360 L 80 360 L 88 360 L 152 360 L 152 424 L 152 424 L 152 432 L 152 432 L 160 432 L 232 432 L 232 424 L 232 424 L 232 360 L 232 360 L 296 360 L 304 360 L 304 352 L 304 352 L 304 288 L 304 288 L 304 280 L 304 280 L 296 280 L 232 280 L 232 216 L 232 216 L 232 208 L 232 208 L 224 208 L 160 208 Z M 168 288 L 168 224 L 168 288 L 168 224 L 216 224 L 216 224 L 216 288 L 216 288 L 216 296 L 216 296 L 224 296 L 288 296 L 288 344 L 288 344 L 224 344 L 216 344 L 216 352 L 216 352 L 216 416 L 216 416 L 168 416 L 168 416 L 168 352 L 168 352 L 168 344 L 168 344 L 160 344 L 96 344 L 96 296 L 96 296 L 160 296 L 168 296 L 168 288 L 168 288 Z" />
</svg>