<svg xmlns="http://www.w3.org/2000/svg" viewBox="0 0 512 512">
  <path d="M 304 16 L 48 16 L 304 16 L 48 16 L 48 416 L 48 416 L 304 416 L 304 416 L 304 16 L 304 16 Z M 48 496 L 304 496 L 48 496 L 304 496 L 304 432 L 304 432 L 48 432 L 48 432 L 48 496 L 48 496 Z M 352 512 L 320 512 L 352 512 L 0 512 L 0 496 L 0 496 L 32 496 L 32 496 L 32 16 L 32 16 L 32 0 L 32 0 L 48 0 L 320 0 L 320 16 L 320 16 L 320 272 L 320 272 L 328 272 L 328 272 Q 359 273 379 293 Q 399 313 400 344 L 400 384 L 400 384 Q 401 404 414 418 Q 428 431 448 432 Q 468 431 482 418 Q 495 404 496 384 L 496 224 L 496 224 L 488 224 L 488 224 Q 464 223 448 208 Q 433 192 432 168 L 432 73 L 432 73 L 403 46 L 403 46 L 397 41 L 397 41 L 408 29 L 408 29 L 413 34 L 413 34 L 509 122 L 509 122 L 512 125 L 512 125 L 512 128 L 512 128 L 512 384 L 512 384 Q 511 411 493 429 Q 475 447 448 448 Q 421 447 403 429 Q 385 411 384 384 L 384 344 L 384 344 Q 383 320 368 304 Q 352 289 328 288 L 320 288 L 320 288 L 320 496 L 320 496 L 352 496 L 352 496 L 352 512 L 352 512 Z M 496 132 L 448 88 L 496 132 L 448 88 L 448 168 L 448 168 Q 448 185 460 196 Q 471 208 488 208 L 496 208 L 496 208 L 496 132 L 496 132 Z M 112 80 L 112 208 L 112 80 L 112 208 L 240 208 L 240 208 L 240 80 L 240 80 L 112 80 L 112 80 Z M 96 64 L 112 64 L 96 64 L 256 64 L 256 80 L 256 80 L 256 208 L 256 208 L 256 224 L 256 224 L 240 224 L 96 224 L 96 208 L 96 208 L 96 80 L 96 80 L 96 64 L 96 64 Z" />
</svg>