<svg xmlns="http://www.w3.org/2000/svg" viewBox="0 0 512 512">
  <path d="M 400 144 L 400 128 L 400 144 L 400 128 Q 399 94 377 71 Q 354 49 320 48 Q 296 48 276 61 L 263 69 L 263 69 L 255 57 L 255 57 Q 227 18 176 16 Q 135 17 108 44 Q 81 71 80 112 L 80 134 L 80 134 L 80 145 L 80 145 L 69 149 L 69 149 Q 46 157 31 177 Q 16 197 16 224 L 16 304 L 16 304 L 96 304 L 164 304 L 143 320 L 143 320 L 96 320 L 0 320 L 0 304 L 0 304 L 0 224 L 0 224 Q 1 192 18 168 Q 36 144 64 134 L 64 112 L 64 112 Q 65 64 97 33 Q 128 1 176 0 Q 235 2 268 48 Q 291 32 320 32 Q 361 33 388 60 Q 415 87 416 128 Q 457 129 484 156 Q 511 183 512 224 L 512 304 L 512 304 L 512 320 L 512 320 L 496 320 L 329 320 L 333 304 L 333 304 L 416 304 L 496 304 L 496 224 L 496 224 Q 495 190 473 167 Q 450 145 416 144 L 400 144 L 400 144 Z M 198 487 L 220 400 L 198 487 L 220 400 L 224 384 L 224 384 L 208 384 L 144 384 L 144 368 L 144 368 L 144 360 L 144 360 L 300 240 L 300 240 L 320 224 L 320 224 L 314 249 L 314 249 L 292 336 L 292 336 L 288 352 L 288 352 L 305 352 L 368 352 L 368 368 L 368 368 L 368 376 L 368 376 L 212 496 L 212 496 L 192 512 L 192 512 L 198 487 L 198 487 Z M 224 368 L 245 368 L 224 368 L 245 368 L 240 388 L 240 388 L 219 471 L 219 471 L 352 368 L 352 368 L 352 368 L 352 368 L 288 368 L 268 368 L 273 348 L 273 348 L 293 265 L 293 265 L 160 368 L 160 368 L 160 368 L 160 368 L 224 368 L 224 368 Z" />
</svg>