<svg xmlns="http://www.w3.org/2000/svg" viewBox="0 0 640 512">
  <path d="M 219 14 Q 234 1 256 0 Q 278 1 293 14 Q 308 27 316 41 Q 335 73 336 106 L 336 158 L 336 158 L 424 208 L 424 208 Q 399 219 378 237 L 300 192 L 300 192 L 288 185 L 288 185 L 288 172 L 288 172 L 288 106 L 288 106 Q 288 89 275 66 Q 261 46 256 48 Q 255 47 249 51 Q 243 56 237 66 Q 224 89 224 106 L 224 171 L 224 171 L 224 185 L 224 185 L 212 192 L 212 192 L 48 286 L 48 286 L 48 320 L 48 320 L 193 279 L 193 279 L 224 270 L 224 270 L 224 302 L 224 302 L 224 368 L 224 368 L 224 380 L 224 380 L 214 387 L 214 387 L 160 428 L 160 428 L 160 460 L 160 460 L 249 433 L 249 433 L 256 431 L 256 431 L 263 433 L 263 433 L 345 458 L 345 458 Q 364 490 395 512 L 384 512 L 356 512 L 353 511 L 353 511 L 256 481 L 256 481 L 159 511 L 159 511 L 156 512 L 156 512 L 152 512 L 112 512 L 112 488 L 112 488 L 112 416 L 112 416 L 112 404 L 112 404 L 122 397 L 122 397 L 176 356 L 176 356 L 176 334 L 176 334 L 31 375 L 31 375 L 0 384 L 0 384 L 0 352 L 0 352 L 0 272 L 0 272 L 0 258 L 0 258 L 12 251 L 12 251 L 176 158 L 176 158 L 176 106 L 176 106 Q 177 73 196 41 Q 205 26 219 14 L 219 14 Z M 319 279 L 341 285 L 319 279 L 341 285 Q 320 323 320 368 Q 320 388 324 407 L 298 387 L 298 387 L 288 380 L 288 380 L 288 368 L 288 368 L 288 302 L 288 302 L 288 270 L 288 270 L 319 279 L 319 279 Z M 352 368 Q 352 329 371 296 L 371 296 L 371 296 Q 390 263 424 243 Q 458 224 496 224 Q 534 224 568 243 Q 602 263 621 296 Q 640 329 640 368 Q 640 407 621 440 Q 602 473 568 493 Q 534 512 496 512 Q 458 512 424 493 Q 390 473 371 440 Q 352 407 352 368 L 352 368 Z M 575 336 L 552 313 L 575 336 L 552 313 L 541 325 L 541 325 L 480 385 L 480 385 L 451 357 L 451 357 L 440 345 L 440 345 L 417 368 L 417 368 L 429 379 L 429 379 L 469 419 L 469 419 L 480 431 L 480 431 L 491 419 L 491 419 L 563 347 L 563 347 L 575 336 L 575 336 Z" />
</svg>