<svg xmlns="http://www.w3.org/2000/svg" viewBox="0 0 512 512">
  <path d="M 264 8 L 264 0 L 264 8 L 264 0 L 248 0 L 248 0 L 248 8 L 248 8 L 248 357 L 248 357 L 134 242 L 134 242 L 128 237 L 128 237 L 117 248 L 117 248 L 122 254 L 122 254 L 250 382 L 250 382 L 256 387 L 256 387 L 262 382 L 262 382 L 390 254 L 390 254 L 396 248 L 396 248 L 384 237 L 384 237 L 378 242 L 378 242 L 264 357 L 264 357 L 264 8 L 264 8 Z M 143 320 L 16 320 L 143 320 L 0 320 L 0 336 L 0 336 L 0 496 L 0 496 L 0 512 L 0 512 L 16 512 L 512 512 L 512 496 L 512 496 L 512 336 L 512 336 L 512 320 L 512 320 L 496 320 L 369 320 L 353 336 L 353 336 L 496 336 L 496 336 L 496 496 L 496 496 L 16 496 L 16 496 L 16 336 L 16 336 L 159 336 L 159 336 L 143 320 L 143 320 Z M 432 432 Q 417 431 416 416 Q 417 401 432 400 Q 447 401 448 416 Q 447 431 432 432 L 432 432 Z M 400 416 Q 400 430 409 439 L 409 439 L 409 439 Q 418 448 432 448 Q 446 448 455 439 Q 464 430 464 416 Q 464 402 455 393 Q 446 384 432 384 Q 418 384 409 393 Q 400 402 400 416 L 400 416 Z" />
</svg>