<svg xmlns="http://www.w3.org/2000/svg" viewBox="0 0 576 384">
  <path d="M 116 108 L 126 113 L 116 108 L 126 113 L 134 105 L 134 105 Q 172 68 221 43 Q 271 17 320 16 Q 381 17 426 44 Q 472 71 502 107 Q 532 142 547 170 Q 554 183 558 191 L 559 192 L 559 192 L 558 193 L 558 193 Q 554 201 547 214 Q 532 242 502 277 Q 472 313 426 340 Q 381 367 320 368 Q 267 367 215 338 Q 162 309 124 269 L 115 260 L 115 260 L 104 267 L 104 267 L 16 323 L 16 323 L 16 306 L 16 306 L 47 196 L 47 196 L 49 192 L 49 192 L 47 188 L 47 188 L 16 78 L 16 78 L 16 58 L 16 58 L 116 108 L 116 108 Z M 320 0 Q 266 1 214 28 L 214 28 L 214 28 Q 162 55 123 94 L 16 40 L 16 40 L 0 32 L 0 32 L 0 50 L 0 50 L 0 80 L 0 80 L 32 192 L 32 192 L 0 304 L 0 304 L 0 333 L 0 333 L 0 352 L 0 352 L 16 342 L 16 342 L 113 280 L 113 280 Q 152 322 207 352 Q 262 383 320 384 Q 386 383 434 354 Q 483 326 514 288 Q 545 251 561 222 Q 576 194 576 192 Q 576 191 561 162 Q 545 134 514 96 Q 483 59 434 30 Q 386 2 320 0 L 320 0 Z M 310 102 L 315 96 L 310 102 L 315 96 L 304 85 L 304 85 L 298 90 L 298 90 L 234 154 L 234 154 L 229 160 L 229 160 L 240 171 L 240 171 L 246 166 L 246 166 L 310 102 L 310 102 Z M 422 118 L 427 112 L 422 118 L 427 112 L 416 101 L 416 101 L 410 106 L 410 106 L 250 266 L 250 266 L 245 272 L 245 272 L 256 283 L 256 283 L 262 278 L 262 278 L 422 118 L 422 118 Z M 438 230 L 443 224 L 438 230 L 443 224 L 432 213 L 432 213 L 426 218 L 426 218 L 362 282 L 362 282 L 357 288 L 357 288 L 368 299 L 368 299 L 374 294 L 374 294 L 438 230 L 438 230 Z" />
</svg>