<svg xmlns="http://www.w3.org/2000/svg" viewBox="0 0 640 512">
  <path d="M 112 128 Q 112 98 127 72 L 127 72 L 127 72 Q 142 46 168 31 Q 194 16 224 16 Q 254 16 280 31 Q 306 46 321 72 Q 336 98 336 128 Q 336 158 321 184 Q 306 210 280 225 Q 254 240 224 240 Q 194 240 168 225 Q 142 210 127 184 Q 112 158 112 128 L 112 128 Z M 352 128 Q 352 93 335 64 L 335 64 L 335 64 Q 318 35 288 17 Q 258 0 224 0 Q 190 0 160 17 Q 130 35 113 64 Q 96 93 96 128 Q 96 163 113 192 Q 130 221 160 239 Q 190 256 224 256 Q 258 256 288 239 Q 318 221 335 192 Q 352 163 352 128 L 352 128 Z M 22 496 L 76 320 L 22 496 L 76 320 L 372 320 L 372 320 L 384 358 L 384 358 L 384 304 L 384 304 L 64 304 L 64 304 L 5 496 L 5 496 L 0 512 L 0 512 L 17 512 L 384 512 L 384 496 L 384 496 L 22 496 L 22 496 Z M 528 208 Q 548 209 562 222 L 562 222 L 562 222 Q 575 236 576 256 L 576 320 L 576 320 L 480 320 L 480 320 L 480 256 L 480 256 Q 481 236 494 222 Q 508 209 528 208 L 528 208 Z M 464 256 L 464 320 L 464 256 L 464 320 L 432 320 L 416 320 L 416 336 L 416 336 L 416 496 L 416 496 L 416 512 L 416 512 L 432 512 L 640 512 L 640 496 L 640 496 L 640 336 L 640 336 L 640 320 L 640 320 L 624 320 L 592 320 L 592 256 L 592 256 Q 591 229 573 211 Q 555 193 528 192 Q 501 193 483 211 Q 465 229 464 256 L 464 256 Z M 432 336 L 464 336 L 432 336 L 624 336 L 624 496 L 624 496 L 432 496 L 432 496 L 432 336 L 432 336 Z" />
</svg>