<svg xmlns="http://www.w3.org/2000/svg" viewBox="0 0 640 512">
  <path d="M 496 208 Q 495 272 454 316 L 454 316 L 454 316 Q 414 360 352 367 L 352 392 L 352 392 Q 352 394 352 396 Q 352 398 352 400 Q 352 408 350 416 Q 416 410 465 371 L 589 495 L 589 495 L 606 512 L 606 512 L 640 478 L 640 478 L 623 461 L 623 461 L 499 337 L 499 337 Q 543 283 544 208 Q 542 120 483 61 Q 424 2 336 0 Q 255 2 198 52 Q 142 102 130 180 L 183 163 L 183 163 Q 198 112 239 80 Q 281 49 336 48 Q 404 50 449 95 Q 494 140 496 208 L 496 208 Z M 320 152 L 288 163 L 320 152 L 288 163 L 96 227 L 96 227 L 80 232 L 80 232 L 80 249 L 80 249 L 80 297 L 80 297 L 80 418 L 80 418 Q 72 416 64 416 Q 37 417 19 430 Q 1 444 0 464 Q 1 484 19 498 Q 37 512 64 512 Q 89 512 106 500 Q 124 489 127 470 Q 128 468 128 465 L 128 464 L 128 464 L 128 315 L 128 315 L 272 267 L 272 267 L 272 354 L 272 354 Q 264 352 256 352 Q 229 353 211 366 Q 193 380 192 400 Q 193 420 211 434 Q 229 448 256 448 Q 283 448 301 434 Q 319 420 320 400 Q 320 398 320 396 Q 320 396 320 396 Q 320 395 320 393 L 320 233 L 320 233 L 320 185 L 320 185 L 320 152 L 320 152 Z" />
</svg>