<svg xmlns="http://www.w3.org/2000/svg" viewBox="0 0 640 480">
  <path d="M 352 0 L 352 32 L 352 0 L 352 32 L 336 32 L 336 32 L 336 128 L 336 128 L 352 128 L 352 128 L 352 160 L 352 160 L 0 160 L 0 160 L 0 128 L 0 128 L 16 128 L 16 128 L 16 32 L 16 32 L 0 32 L 0 32 L 0 0 L 0 0 L 352 0 L 352 0 Z M 304 32 L 240 32 L 304 32 L 240 32 L 240 128 L 240 128 L 304 128 L 304 128 L 304 32 L 304 32 Z M 208 32 L 144 32 L 208 32 L 144 32 L 144 128 L 144 128 L 208 128 L 208 128 L 208 32 L 208 32 Z M 112 32 L 48 32 L 112 32 L 48 32 L 48 128 L 48 128 L 112 128 L 112 128 L 112 32 L 112 32 Z M 384 64 L 400 64 L 384 64 L 503 64 L 507 69 L 507 69 L 635 197 L 635 197 L 640 201 L 640 201 L 640 208 L 640 208 L 640 368 L 640 368 L 640 384 L 640 384 L 624 384 L 576 384 Q 575 425 548 452 Q 521 479 480 480 Q 439 479 412 452 Q 385 425 384 384 L 256 384 L 256 384 Q 255 425 228 452 Q 201 479 160 480 Q 119 479 92 452 Q 65 425 64 384 L 16 384 L 0 384 L 0 368 L 0 368 L 0 208 L 0 208 L 0 192 L 0 192 L 16 192 L 384 192 L 384 80 L 384 80 L 384 64 L 384 64 Z M 416 192 L 585 192 L 416 192 L 585 192 L 489 96 L 489 96 L 416 96 L 416 96 L 416 192 L 416 192 Z M 608 224 L 32 224 L 608 224 L 32 224 L 32 352 L 32 352 L 70 352 L 70 352 Q 80 324 104 306 Q 128 289 160 288 Q 192 289 216 306 Q 240 324 251 352 L 389 352 L 389 352 Q 400 324 424 306 Q 448 289 480 288 Q 512 289 536 306 Q 560 324 570 352 L 608 352 L 608 352 L 608 224 L 608 224 Z M 224 384 Q 223 348 192 329 Q 160 311 128 329 Q 97 348 96 384 Q 97 420 128 439 Q 160 457 192 439 Q 223 420 224 384 L 224 384 Z M 480 448 Q 516 447 535 416 Q 553 384 535 352 Q 516 321 480 320 Q 444 321 425 352 Q 407 384 425 416 Q 444 447 480 448 L 480 448 Z" />
</svg>