<svg xmlns="http://www.w3.org/2000/svg" viewBox="0 0 484 509">
  <path d="M 242 0 L 254 4 L 242 0 L 254 4 L 461 84 L 461 84 L 480 92 L 480 92 L 481 112 L 481 112 Q 484 150 476 203 Q 468 255 444 312 Q 420 369 374 420 Q 328 471 255 503 L 242 509 L 242 509 L 229 503 L 229 503 Q 156 471 110 420 Q 64 369 40 312 Q 16 255 8 203 Q 0 150 3 112 L 4 92 L 4 92 L 23 84 L 23 84 L 231 4 L 231 4 L 242 0 L 242 0 Z M 266 122 L 218 122 L 266 122 L 218 122 L 218 146 L 218 146 L 218 258 L 218 258 L 218 282 L 218 282 L 266 282 L 266 282 L 266 258 L 266 258 L 266 146 L 266 146 L 266 122 L 266 122 Z M 218 314 L 218 362 L 218 314 L 218 362 L 266 362 L 266 362 L 266 314 L 266 314 L 218 314 L 218 314 Z" />
</svg>