<svg xmlns="http://www.w3.org/2000/svg" viewBox="0 0 640 512">
  <path d="M 160 0 L 168 0 L 160 0 L 480 0 L 480 8 L 480 8 L 480 96 L 480 96 L 632 96 L 640 96 L 640 104 L 640 104 L 640 504 L 640 504 L 640 512 L 640 512 L 632 512 L 416 512 Q 416 512 416 512 Q 416 512 416 512 L 384 512 L 224 512 Q 224 512 224 512 Q 224 512 224 512 L 8 512 L 0 512 L 0 504 L 0 504 L 0 104 L 0 104 L 0 96 L 0 96 L 8 96 L 160 96 L 160 8 L 160 8 L 160 0 L 160 0 Z M 176 16 L 176 96 L 176 16 L 176 96 L 176 112 L 176 112 L 176 496 L 176 496 L 256 496 L 256 496 L 256 360 L 256 360 L 256 352 L 256 352 L 264 352 L 384 352 L 384 360 L 384 360 L 384 496 L 384 496 L 464 496 L 464 496 L 464 336 L 464 336 L 464 112 L 464 112 L 464 96 L 464 96 L 464 16 L 464 16 L 176 16 L 176 16 Z M 624 112 L 480 112 L 624 112 L 480 112 L 480 336 L 480 336 L 480 496 L 480 496 L 624 496 L 624 496 L 624 304 L 624 304 L 520 304 L 512 304 L 512 288 L 512 288 L 520 288 L 624 288 L 624 208 L 624 208 L 520 208 L 512 208 L 512 192 L 512 192 L 520 192 L 624 192 L 624 112 L 624 112 Z M 160 112 L 16 112 L 160 112 L 16 112 L 16 192 L 16 192 L 120 192 L 128 192 L 128 208 L 128 208 L 120 208 L 16 208 L 16 288 L 16 288 L 120 288 L 128 288 L 128 304 L 128 304 L 120 304 L 16 304 L 16 496 L 16 496 L 160 496 L 160 496 L 160 112 L 160 112 Z M 368 496 L 368 368 L 368 496 L 368 368 L 272 368 L 272 368 L 272 496 L 272 496 L 368 496 L 368 496 Z M 296 56 L 344 56 L 296 56 L 352 56 L 352 64 L 352 64 L 352 96 L 352 96 L 384 96 L 392 96 L 392 104 L 392 104 L 392 152 L 392 152 L 392 160 L 392 160 L 384 160 L 352 160 L 352 192 L 352 192 L 352 200 L 352 200 L 344 200 L 288 200 L 288 192 L 288 192 L 288 160 L 288 160 L 256 160 L 248 160 L 248 152 L 248 152 L 248 104 L 248 104 L 248 96 L 248 96 L 256 96 L 288 96 L 288 64 L 288 64 L 288 56 L 288 56 L 296 56 L 296 56 Z M 304 104 L 304 112 L 304 104 L 304 112 L 296 112 L 264 112 L 264 144 L 264 144 L 296 144 L 304 144 L 304 152 L 304 152 L 304 184 L 304 184 L 336 184 L 336 184 L 336 152 L 336 152 L 336 144 L 336 144 L 344 144 L 376 144 L 376 112 L 376 112 L 344 112 L 336 112 L 336 104 L 336 104 L 336 72 L 336 72 L 304 72 L 304 72 L 304 104 L 304 104 Z" />
</svg>