<svg xmlns="http://www.w3.org/2000/svg" viewBox="0 0 509 509">
  <path d="M 414 240 Q 405 291 376 331 L 487 441 L 487 441 L 509 464 L 509 464 L 464 509 L 464 509 L 441 487 L 441 487 L 331 376 L 331 376 Q 278 415 208 416 Q 126 414 69 363 L 24 408 L 24 408 L 0 384 L 0 384 L 0 240 L 0 240 L 144 240 L 144 240 L 168 264 L 168 264 L 115 318 L 115 318 Q 153 351 208 352 Q 260 351 298 320 Q 337 289 348 240 L 414 240 L 414 240 Z M 347 53 L 392 8 L 347 53 L 392 8 L 416 32 L 416 32 L 416 176 L 416 176 L 272 176 L 272 176 L 248 152 L 248 152 L 302 99 L 302 99 Q 263 65 208 64 Q 156 65 118 96 Q 79 127 68 176 L 2 176 L 2 176 Q 16 100 72 51 Q 128 2 208 0 Q 290 2 347 53 L 347 53 Z" />
</svg>