<svg xmlns="http://www.w3.org/2000/svg" viewBox="0 0 640 512">
  <path d="M 210 256 L 366 256 L 210 256 L 366 256 L 153 16 L 153 16 L 90 16 L 90 16 L 94 25 L 94 25 L 210 256 L 210 256 Z M 384 252 L 384 120 L 384 252 L 384 120 L 384 112 L 384 112 L 392 112 L 516 112 L 518 115 L 518 115 L 638 251 L 638 251 L 640 253 L 640 253 L 640 256 L 640 256 L 640 408 L 640 408 L 640 416 L 640 416 L 632 416 L 576 416 Q 575 457 548 484 Q 521 511 480 512 Q 439 511 412 484 Q 385 457 384 416 L 256 416 L 256 416 Q 255 457 228 484 Q 201 511 160 512 Q 119 511 92 484 Q 65 457 64 416 L 8 416 L 0 416 L 0 408 L 0 408 L 0 264 L 0 264 L 0 256 L 0 256 L 8 256 L 192 256 L 80 32 L 80 32 L 80 168 L 80 168 Q 80 185 68 196 Q 57 208 40 208 Q 23 208 12 196 Q 0 185 0 168 L 0 152 L 0 152 Q 1 145 8 144 Q 15 145 16 152 L 16 168 L 16 168 Q 18 190 40 192 Q 62 190 64 168 L 64 32 L 64 32 L 64 16 L 64 16 L 64 0 L 64 0 L 80 0 L 160 0 L 384 252 L 384 252 Z M 385 400 Q 392 365 418 343 L 418 343 L 418 343 Q 444 321 480 320 Q 516 321 542 343 Q 568 365 575 400 L 624 400 L 624 400 L 624 272 L 624 272 L 16 272 L 16 272 L 16 400 L 16 400 L 65 400 L 65 400 Q 72 365 98 343 Q 124 321 160 320 Q 196 321 222 343 Q 248 365 255 400 L 385 400 L 385 400 Z M 508 128 L 400 128 L 508 128 L 400 128 L 400 256 L 400 256 L 621 256 L 621 256 L 508 128 L 508 128 Z M 240 416 Q 239 371 200 347 Q 160 325 120 347 Q 81 371 80 416 Q 81 461 120 485 Q 160 507 200 485 Q 239 461 240 416 L 240 416 Z M 480 496 Q 525 495 549 456 Q 571 416 549 376 Q 525 337 480 336 Q 435 337 411 376 Q 389 416 411 456 Q 435 495 480 496 L 480 496 Z" />
</svg>