<svg xmlns="http://www.w3.org/2000/svg" viewBox="0 0 448 512">
  <path d="M 288 220 L 291 224 L 288 220 L 291 224 L 357 320 L 357 320 L 91 320 L 91 320 L 157 224 L 157 224 L 160 220 L 160 220 L 160 215 L 160 215 L 160 16 L 160 16 L 288 16 L 288 16 L 288 215 L 288 215 L 288 220 L 288 220 Z M 368 336 L 432 428 L 368 336 L 432 428 L 432 496 L 432 496 L 16 496 L 16 496 L 16 428 L 16 428 L 80 336 L 80 336 L 80 336 L 80 336 L 368 336 L 368 336 L 368 336 L 368 336 Z M 304 215 L 304 16 L 304 215 L 304 16 L 328 16 L 336 16 L 336 0 L 336 0 L 328 0 L 112 0 L 112 16 L 112 16 L 120 16 L 144 16 L 144 215 L 144 215 L 0 423 L 0 423 L 0 496 L 0 496 L 0 512 L 0 512 L 16 512 L 448 512 L 448 496 L 448 496 L 448 423 L 448 423 L 304 215 L 304 215 Z" />
</svg>