<svg xmlns="http://www.w3.org/2000/svg" viewBox="0 0 512 512">
  <path d="M 0 512 L 3 495 L 0 512 L 3 495 L 32 352 L 32 352 L 282 102 L 282 102 L 240 59 L 240 59 L 110 190 L 110 190 L 104 195 L 104 195 L 93 184 L 93 184 L 98 178 L 98 178 L 234 42 L 234 42 L 240 37 L 240 37 L 246 42 L 246 42 L 294 90 L 294 90 L 373 11 L 373 11 L 384 0 L 384 0 L 395 11 L 395 11 L 501 117 L 501 117 L 512 128 L 512 128 L 501 139 L 501 139 L 422 218 L 422 218 Q 422 218 422 218 Q 422 218 422 218 L 410 230 L 410 230 Q 410 230 410 230 Q 410 230 410 230 L 160 480 L 160 480 L 17 509 L 17 509 L 0 512 L 0 512 Z M 410 207 L 489 128 L 410 207 L 489 128 L 384 23 L 384 23 L 305 102 L 305 102 L 410 207 L 410 207 Z M 294 113 L 47 360 L 294 113 L 47 360 L 20 492 L 20 492 L 152 465 L 152 465 L 399 218 L 399 218 L 294 113 L 294 113 Z" />
</svg>