<svg xmlns="http://www.w3.org/2000/svg" viewBox="0 0 480 480">
  <path d="M 112 384 L 96 384 L 112 384 L 96 384 L 96 368 L 96 368 L 96 16 L 96 16 L 96 0 L 96 0 L 112 0 L 480 0 L 480 16 L 480 16 L 480 288 L 480 288 L 384 384 L 384 384 L 112 384 L 112 384 Z M 377 368 L 464 281 L 377 368 L 464 281 L 464 16 L 464 16 L 112 16 L 112 16 L 112 368 L 112 368 L 377 368 L 377 368 Z M 248 80 L 256 80 L 248 80 L 328 80 L 328 88 L 328 88 L 328 152 L 328 152 L 392 152 L 400 152 L 400 160 L 400 160 L 400 224 L 400 224 L 400 232 L 400 232 L 392 232 L 328 232 L 328 296 L 328 296 L 328 304 L 328 304 L 320 304 L 248 304 L 248 296 L 248 296 L 248 232 L 248 232 L 184 232 L 176 232 L 176 224 L 176 224 L 176 160 L 176 160 L 176 152 L 176 152 L 184 152 L 248 152 L 248 88 L 248 88 L 248 80 L 248 80 Z M 264 96 L 264 160 L 264 96 L 264 160 L 264 168 L 264 168 L 256 168 L 192 168 L 192 216 L 192 216 L 256 216 L 264 216 L 264 224 L 264 224 L 264 288 L 264 288 L 312 288 L 312 288 L 312 224 L 312 224 L 312 216 L 312 216 L 320 216 L 384 216 L 384 168 L 384 168 L 320 168 L 312 168 L 312 160 L 312 160 L 312 96 L 312 96 L 264 96 L 264 96 Z M 16 96 L 64 96 L 16 96 L 64 96 L 64 112 L 64 112 L 16 112 L 16 112 L 16 464 L 16 464 L 368 464 L 368 464 L 368 416 L 368 416 L 384 416 L 384 416 L 384 464 L 384 464 L 384 480 L 384 480 L 368 480 L 0 480 L 0 464 L 0 464 L 0 112 L 0 112 L 0 96 L 0 96 L 16 96 L 16 96 Z" />
</svg>