<svg xmlns="http://www.w3.org/2000/svg" viewBox="0 0 448 320">
  <path d="M 432 304 L 432 208 L 432 304 L 432 208 L 336 208 L 336 208 L 336 304 L 336 304 L 432 304 L 432 304 Z M 448 320 L 432 320 L 448 320 L 320 320 L 320 304 L 320 304 L 320 208 L 320 208 L 320 192 L 320 192 L 336 192 L 448 192 L 448 208 L 448 208 L 448 304 L 448 304 L 448 320 L 448 320 Z M 432 112 L 432 16 L 432 112 L 432 16 L 336 16 L 336 16 L 336 112 L 336 112 L 432 112 L 432 112 Z M 448 128 L 432 128 L 448 128 L 320 128 L 320 112 L 320 112 L 320 16 L 320 16 L 320 0 L 320 0 L 336 0 L 448 0 L 448 16 L 448 16 L 448 112 L 448 112 L 448 128 L 448 128 Z M 176 304 L 272 304 L 176 304 L 272 304 L 272 208 L 272 208 L 176 208 L 176 208 L 176 304 L 176 304 Z M 272 320 L 176 320 L 272 320 L 160 320 L 160 304 L 160 304 L 160 208 L 160 208 L 160 192 L 160 192 L 176 192 L 288 192 L 288 208 L 288 208 L 288 304 L 288 304 L 288 320 L 288 320 L 272 320 L 272 320 Z M 272 112 L 272 16 L 272 112 L 272 16 L 176 16 L 176 16 L 176 112 L 176 112 L 272 112 L 272 112 Z M 288 128 L 272 128 L 288 128 L 160 128 L 160 112 L 160 112 L 160 16 L 160 16 L 160 0 L 160 0 L 176 0 L 288 0 L 288 16 L 288 16 L 288 112 L 288 112 L 288 128 L 288 128 Z M 16 304 L 112 304 L 16 304 L 112 304 L 112 208 L 112 208 L 16 208 L 16 208 L 16 304 L 16 304 Z M 112 320 L 16 320 L 112 320 L 0 320 L 0 304 L 0 304 L 0 208 L 0 208 L 0 192 L 0 192 L 16 192 L 128 192 L 128 208 L 128 208 L 128 304 L 128 304 L 128 320 L 128 320 L 112 320 L 112 320 Z M 112 112 L 112 16 L 112 112 L 112 16 L 16 16 L 16 16 L 16 112 L 16 112 L 112 112 L 112 112 Z M 128 128 L 112 128 L 128 128 L 0 128 L 0 112 L 0 112 L 0 16 L 0 16 L 0 0 L 0 0 L 16 0 L 128 0 L 128 16 L 128 16 L 128 112 L 128 112 L 128 128 L 128 128 Z" />
</svg>