<svg xmlns="http://www.w3.org/2000/svg" viewBox="0 0 640 512">
  <path d="M 448 0 L 448 43 L 448 0 L 448 43 Q 449 112 497 162 L 518 183 L 518 183 Q 543 209 544 245 L 544 288 L 544 288 L 528 288 L 528 288 L 528 245 L 528 245 Q 528 215 507 194 L 486 173 L 486 173 Q 433 119 432 43 L 432 0 L 432 0 L 448 0 L 448 0 Z M 624 288 L 624 245 L 624 288 L 624 245 Q 623 176 575 126 L 554 105 L 554 105 Q 529 79 528 43 L 528 0 L 528 0 L 544 0 L 544 0 L 544 43 L 544 43 Q 544 73 565 94 L 586 115 L 586 115 Q 639 169 640 245 L 640 288 L 640 288 L 624 288 L 624 288 Z M 15 441 Q 0 432 0 432 Q 0 432 15 423 Q 42 404 113 379 Q 183 354 288 352 L 624 352 L 640 352 L 640 368 L 640 368 L 640 496 L 640 496 L 640 512 L 640 512 L 624 512 L 288 512 Q 183 510 113 485 Q 42 460 15 441 L 15 441 Z M 31 432 Q 50 443 84 457 Q 121 472 172 484 Q 224 495 288 496 L 342 496 L 342 496 L 250 373 L 250 373 L 247 370 L 247 370 Q 146 380 84 407 Q 50 421 31 432 L 31 432 Z M 266 368 L 358 491 L 266 368 L 358 491 L 362 496 L 362 496 L 502 496 L 502 496 L 410 373 L 410 373 L 406 368 L 406 368 L 288 368 L 288 368 Q 277 368 266 368 L 266 368 Z M 426 368 L 518 491 L 426 368 L 518 491 L 522 496 L 522 496 L 624 496 L 624 496 L 624 368 L 624 368 L 426 368 L 426 368 Z" />
</svg>