<svg xmlns="http://www.w3.org/2000/svg" viewBox="0 0 640 512">
  <path d="M 199 135 L 224 160 L 199 135 L 224 160 L 320 256 L 320 256 L 416 160 L 416 160 L 441 135 L 441 135 Q 464 112 464 79 L 464 75 L 464 75 Q 463 43 442 22 Q 420 1 388 0 Q 352 1 329 28 L 320 40 L 320 40 L 311 28 L 311 28 Q 288 1 252 0 Q 220 1 198 22 Q 177 43 176 76 L 176 79 L 176 79 Q 176 112 199 135 L 199 135 Z M 80 64 L 0 64 L 80 64 L 0 64 L 0 104 L 0 104 L 0 128 L 0 128 L 0 160 L 0 160 L 0 224 L 0 224 L 0 352 L 0 352 L 0 365 L 0 365 L 9 375 L 9 375 L 137 503 L 137 503 L 147 512 L 147 512 L 160 512 L 288 512 L 288 480 L 288 480 L 288 448 L 288 448 L 288 416 L 288 416 L 288 352 L 288 352 L 288 339 L 288 339 L 279 329 L 279 329 L 215 265 L 215 265 L 192 243 L 192 243 L 183 233 L 183 233 L 160 211 L 160 211 L 115 256 L 115 256 L 137 279 L 137 279 L 147 288 L 147 288 L 169 311 L 169 311 L 206 347 L 206 347 L 164 375 L 164 375 L 80 291 L 80 291 L 80 224 L 80 224 L 80 144 L 80 144 L 80 112 L 80 112 L 80 104 L 80 104 L 80 64 L 80 64 Z M 560 64 L 560 104 L 560 64 L 560 104 L 560 112 L 560 112 L 560 144 L 560 144 L 560 224 L 560 224 L 560 291 L 560 291 L 476 375 L 476 375 L 434 347 L 434 347 L 471 311 L 471 311 L 493 288 L 493 288 L 503 279 L 503 279 L 525 256 L 525 256 L 480 211 L 480 211 L 457 233 L 457 233 L 448 243 L 448 243 L 425 265 L 425 265 L 361 329 L 361 329 L 352 339 L 352 339 L 352 352 L 352 352 L 352 416 L 352 416 L 352 448 L 352 448 L 352 480 L 352 480 L 352 512 L 352 512 L 384 512 L 493 512 L 503 503 L 503 503 L 631 375 L 631 375 L 640 365 L 640 365 L 640 352 L 640 352 L 640 224 L 640 224 L 640 160 L 640 160 L 640 128 L 640 128 L 640 104 L 640 104 L 640 64 L 640 64 L 560 64 L 560 64 Z" />
</svg>