<svg xmlns="http://www.w3.org/2000/svg" viewBox="0 0 640 458">
  <path d="M 21 274 L 26 258 L 21 274 L 26 258 L 90 212 L 90 212 L 94 210 L 94 210 L 95 205 L 95 205 L 132 105 L 132 105 Q 149 60 190 39 Q 230 19 276 30 Q 284 24 293 19 Q 293 19 293 19 Q 292 19 291 18 Q 236 0 187 23 Q 138 46 117 99 L 80 199 L 80 199 L 13 247 L 13 247 L 6 268 L 6 268 L 0 283 L 0 283 L 15 289 L 15 289 L 242 371 L 242 371 L 246 356 L 246 356 L 21 274 L 21 274 Z M 97 362 Q 97 389 116 407 L 116 407 L 116 407 Q 134 425 161 426 Q 197 424 215 396 L 200 390 L 200 390 Q 186 409 161 410 Q 140 410 127 396 Q 113 382 113 362 Q 113 360 113 358 L 97 353 L 97 353 Q 97 357 97 362 L 97 362 Z M 540 233 L 542 237 L 540 233 L 542 237 L 546 240 L 546 240 L 613 288 L 613 288 L 620 306 L 620 306 L 288 427 L 288 427 L 282 409 L 282 409 L 302 329 L 302 329 L 303 324 L 303 324 L 302 320 L 302 320 L 263 213 L 263 213 Q 246 162 267 116 Q 289 70 339 51 Q 390 33 436 55 Q 482 76 502 126 L 540 233 L 540 233 Z M 635 301 L 626 278 L 635 301 L 626 278 L 555 227 L 555 227 L 517 121 L 517 121 Q 494 64 443 40 Q 391 16 333 35 Q 277 58 253 109 Q 229 161 248 219 L 287 325 L 287 325 L 265 410 L 265 410 L 279 447 L 279 447 Q 279 447 279 447 L 625 321 L 625 321 L 640 316 L 640 316 L 635 301 L 635 301 Z M 481 442 Q 480 442 480 442 L 480 442 L 480 442 Q 479 442 478 442 Q 458 440 445 425 Q 445 425 445 425 L 429 431 L 429 431 Q 434 438 441 444 Q 456 456 477 458 Q 479 458 481 458 Q 516 457 534 430 Q 542 419 544 406 Q 545 404 545 403 Q 545 398 545 394 L 545 394 L 545 394 Q 545 391 545 388 L 530 394 L 530 394 L 529 394 L 529 394 Q 529 415 515 428 Q 502 442 481 442 L 481 442 Z" />
</svg>