<svg xmlns="http://www.w3.org/2000/svg" viewBox="0 0 640 512">
  <path d="M 256 0 L 144 0 L 256 0 L 144 0 Q 83 2 42 42 Q 2 83 0 144 L 0 160 L 0 160 L 80 128 L 80 128 L 112 160 L 112 160 L 256 160 L 256 160 L 256 128 L 256 128 L 288 128 L 288 128 L 288 160 L 288 160 L 352 160 L 352 160 L 352 0 L 352 0 L 288 0 L 288 0 L 288 32 L 288 32 L 256 32 L 256 32 L 256 0 L 256 0 Z M 96 512 L 224 512 L 96 512 L 224 512 L 208 192 L 208 192 L 112 192 L 112 192 L 96 512 L 96 512 Z M 416 512 L 448 416 L 416 512 L 448 416 L 480 512 L 480 512 L 640 512 L 640 512 L 640 320 L 640 320 L 352 320 L 352 320 L 352 512 L 352 512 L 416 512 L 416 512 Z M 352 256 L 352 288 L 352 256 L 352 288 L 640 288 L 640 288 L 640 256 L 640 256 L 544 192 L 544 192 L 544 0 L 544 0 L 448 0 L 448 0 L 448 192 L 448 192 L 352 256 L 352 256 Z M 496 64 Q 481 63 480 48 Q 481 33 496 32 Q 511 33 512 48 Q 511 63 496 64 L 496 64 Z" />
</svg>