<svg xmlns="http://www.w3.org/2000/svg" viewBox="0 0 416 512">
  <path d="M 144 171 L 144 160 L 144 171 L 144 160 L 144 16 L 144 16 L 272 16 L 272 16 L 272 160 L 272 160 L 272 171 L 272 171 L 282 175 L 282 175 Q 335 197 367 244 Q 399 291 400 352 Q 400 395 382 432 Q 365 469 335 496 L 81 496 L 81 496 Q 51 469 34 432 Q 16 395 16 352 Q 17 291 49 244 Q 81 197 134 175 L 144 171 L 144 171 Z M 288 160 L 288 16 L 288 160 L 288 16 L 312 16 L 312 16 Q 319 15 320 8 Q 319 1 312 0 L 288 0 L 96 0 L 96 16 L 96 16 L 104 16 L 128 16 L 128 160 L 128 160 Q 71 184 36 235 Q 1 286 0 352 Q 0 401 20 442 Q 40 483 75 512 L 341 512 L 341 512 Q 376 483 396 442 Q 416 401 416 352 Q 415 286 380 235 Q 345 184 288 160 L 288 160 Z M 104 312 Q 105 279 134 256 L 134 256 L 134 256 Q 163 233 208 232 Q 253 233 282 256 Q 311 279 312 312 Q 310 353 268 377 L 264 380 L 264 380 L 264 384 L 264 384 L 264 416 L 264 416 L 152 416 L 152 416 L 152 384 L 152 384 L 152 380 L 152 380 L 148 377 L 148 377 Q 106 353 104 312 L 104 312 Z M 208 216 Q 158 217 124 243 L 124 243 L 124 243 Q 89 270 88 312 Q 91 362 136 389 L 136 424 L 136 424 L 136 432 L 136 432 L 144 432 L 280 432 L 280 424 L 280 424 L 280 389 L 280 389 Q 325 362 328 312 Q 327 270 292 243 Q 258 217 208 216 L 208 216 Z M 248 328 Q 233 327 232 312 Q 233 297 248 296 Q 263 297 264 312 Q 263 327 248 328 L 248 328 Z M 216 312 Q 216 326 225 335 L 225 335 L 225 335 Q 234 344 248 344 Q 262 344 271 335 Q 280 326 280 312 Q 280 298 271 289 Q 262 280 248 280 Q 234 280 225 289 Q 216 298 216 312 L 216 312 Z M 184 312 Q 183 327 168 328 Q 153 327 152 312 Q 153 297 168 296 Q 183 297 184 312 L 184 312 Z M 168 280 Q 154 280 145 289 L 145 289 L 145 289 Q 136 298 136 312 Q 136 326 145 335 Q 154 344 168 344 Q 182 344 191 335 Q 200 326 200 312 Q 200 298 191 289 Q 182 280 168 280 L 168 280 Z" />
</svg>