<svg xmlns="http://www.w3.org/2000/svg" viewBox="0 0 582 512">
  <path d="M 299 0 L 283 0 L 299 0 L 283 0 L 283 8 L 283 8 L 283 184 L 283 184 L 283 192 L 283 192 L 299 192 L 299 192 L 299 184 L 299 184 L 299 8 L 299 8 L 299 0 L 299 0 Z M 10 125 L 0 138 L 10 125 L 0 138 L 6 142 L 6 142 L 142 246 L 142 246 L 149 251 L 149 251 L 158 239 L 158 239 L 152 234 L 152 234 L 16 130 L 16 130 L 9 125 L 10 125 Z M 582 138 L 573 125 L 582 138 L 573 125 L 566 130 L 566 130 L 430 234 L 430 234 L 424 239 L 424 239 L 433 251 L 433 251 L 440 246 L 440 246 L 576 142 L 576 142 L 582 138 L 582 138 Z M 163 352 L 163 368 L 163 352 L 163 368 L 147 368 L 99 368 L 42 496 L 42 496 L 35 512 L 35 512 L 53 512 L 547 512 L 540 496 L 540 496 L 483 368 L 483 368 L 435 368 L 419 368 Q 419 368 419 368 Q 419 368 419 368 L 419 352 L 419 352 L 419 304 L 419 304 L 419 288 L 419 288 L 403 288 L 163 288 L 163 304 L 163 304 L 163 352 L 163 352 Z M 403 368 L 179 368 L 403 368 L 179 368 L 179 304 L 179 304 L 403 304 L 403 304 L 403 368 L 403 368 Z M 179 384 L 403 384 L 179 384 L 419 384 Q 419 384 419 384 Q 419 384 419 384 L 473 384 L 473 384 L 522 496 L 522 496 L 60 496 L 60 496 L 109 384 L 109 384 L 163 384 L 163 384 Q 163 384 163 384 Q 163 384 163 384 L 179 384 L 179 384 Z" />
</svg>