<svg xmlns="http://www.w3.org/2000/svg" viewBox="0 0 512 512">
  <path d="M 252 160 L 470 0 L 252 160 L 470 0 L 510 47 L 510 47 L 397 160 L 397 160 L 375 160 L 375 160 L 488 46 L 488 46 L 467 22 L 467 22 L 279 160 L 279 160 L 252 160 L 252 160 Z M 480 256 Q 480 314 452 358 L 452 358 L 452 358 Q 425 402 372 426 Q 364 429 356 432 Q 361 439 366 446 Q 379 469 383 496 Q 384 504 384 512 L 368 512 L 128 512 Q 128 504 129 496 Q 133 469 146 446 Q 151 439 156 432 Q 148 429 140 426 Q 87 402 60 358 Q 32 314 32 256 L 32 224 L 32 224 L 32 208 L 32 208 L 16 208 L 0 208 L 0 192 L 0 192 L 8 192 L 512 192 L 512 208 L 512 208 L 504 208 L 480 208 L 480 224 L 480 224 L 480 256 L 480 256 Z M 344 442 L 330 425 L 344 442 L 330 425 L 351 417 L 351 417 Q 406 397 435 355 Q 464 313 464 256 L 464 208 L 464 208 L 48 208 L 48 208 L 48 256 L 48 256 Q 48 313 77 355 Q 106 397 161 417 L 182 425 L 182 425 L 168 442 L 168 442 Q 150 465 145 496 L 367 496 L 367 496 Q 362 465 343 442 L 344 442 Z" />
</svg>