<svg xmlns="http://www.w3.org/2000/svg" viewBox="0 0 512 512">
  <path d="M 8 0 L 152 0 L 8 0 L 160 0 L 160 16 L 160 16 L 152 16 L 16 16 L 16 152 L 16 152 L 16 160 L 16 160 L 0 160 L 0 160 L 0 152 L 0 152 L 0 8 L 0 8 L 0 0 L 0 0 L 8 0 L 8 0 Z M 512 0 L 512 8 L 512 0 L 512 8 L 512 152 L 512 152 L 512 160 L 512 160 L 496 160 L 496 160 L 496 152 L 496 152 L 496 16 L 496 16 L 360 16 L 352 16 L 352 0 L 352 0 L 360 0 L 512 0 Z M 192 96 L 320 96 L 192 96 L 320 96 L 332 128 L 332 128 L 400 128 L 416 128 L 416 144 L 416 144 L 416 368 L 416 368 L 416 384 L 416 384 L 400 384 L 96 384 L 96 368 L 96 368 L 96 144 L 96 144 L 96 128 L 96 128 L 112 128 L 180 128 L 192 96 L 192 96 Z M 332 144 L 321 144 L 332 144 L 321 144 L 317 134 L 317 134 L 309 112 L 309 112 L 203 112 L 203 112 L 195 134 L 195 134 L 191 144 L 191 144 L 180 144 L 112 144 L 112 368 L 112 368 L 400 368 L 400 368 L 400 144 L 400 144 L 332 144 L 332 144 Z M 304 256 Q 303 229 280 214 Q 256 202 232 214 Q 209 229 208 256 Q 209 283 232 298 Q 256 310 280 298 Q 303 283 304 256 L 304 256 Z M 192 256 Q 193 220 224 201 Q 256 183 288 201 Q 319 220 320 256 Q 319 292 288 311 Q 256 329 224 311 Q 193 292 192 256 L 192 256 Z M 0 512 L 0 504 L 0 512 L 0 504 L 0 360 L 0 360 L 0 352 L 0 352 L 16 352 L 16 352 L 16 360 L 16 360 L 16 496 L 16 496 L 152 496 L 160 496 L 160 512 L 160 512 L 152 512 L 0 512 Z M 504 512 L 360 512 L 504 512 L 352 512 L 352 496 L 352 496 L 360 496 L 496 496 L 496 360 L 496 360 L 496 352 L 496 352 L 512 352 L 512 352 L 512 360 L 512 360 L 512 504 L 512 504 L 512 512 L 512 512 L 504 512 L 504 512 Z" />
</svg>