<svg xmlns="http://www.w3.org/2000/svg" viewBox="0 0 640 448">
  <path d="M 440 448 L 424 352 L 440 448 L 424 352 L 216 352 L 216 352 L 200 448 L 200 448 L 16 448 L 0 448 L 2 432 L 2 432 L 43 64 L 43 64 L 160 0 L 160 0 L 320 0 L 480 0 L 597 64 L 597 64 L 638 432 L 638 432 L 640 448 L 640 448 L 624 448 L 440 448 Z M 200 349 L 202 336 L 200 349 L 202 336 L 216 336 L 438 336 L 440 349 L 440 349 L 454 432 L 454 432 L 622 432 L 622 432 L 582 74 L 582 74 L 476 16 L 476 16 L 320 16 L 164 16 L 58 74 L 58 74 L 18 432 L 18 432 L 187 432 L 187 432 L 200 349 L 200 349 Z M 200 128 L 200 184 L 200 128 L 200 184 L 256 184 L 264 184 L 264 200 L 264 200 L 256 200 L 200 200 L 200 256 L 200 256 L 200 264 L 200 264 L 184 264 L 184 264 L 184 256 L 184 256 L 184 200 L 184 200 L 128 200 L 120 200 L 120 184 L 120 184 L 128 184 L 184 184 L 184 128 L 184 128 L 184 120 L 184 120 L 200 120 L 200 120 L 200 128 L 200 128 Z M 392 240 Q 393 217 412 205 Q 432 195 452 205 Q 471 217 472 240 Q 471 263 452 275 Q 432 285 412 275 Q 393 263 392 240 L 392 240 Z M 432 264 Q 454 262 456 240 Q 454 218 432 216 Q 410 218 408 240 Q 410 262 432 264 L 432 264 Z M 496 104 Q 519 105 531 124 Q 541 144 531 164 Q 519 183 496 184 Q 473 183 461 164 Q 451 144 461 124 Q 473 105 496 104 L 496 104 Z M 520 144 Q 518 122 496 120 Q 474 122 472 144 Q 474 166 496 168 Q 518 166 520 144 L 520 144 Z" />
</svg>