<svg xmlns="http://www.w3.org/2000/svg" viewBox="0 0 512 512">
  <path d="M 240 16 L 240 80 L 240 16 L 240 80 L 272 80 L 272 80 L 272 16 L 272 16 L 240 16 L 240 16 Z M 224 80 L 224 16 L 224 80 L 224 16 L 224 0 L 224 0 L 240 0 L 288 0 L 288 16 L 288 16 L 288 80 L 288 80 L 432 80 L 432 80 L 432 40 L 432 40 L 432 32 L 432 32 L 448 32 L 448 32 L 448 40 L 448 40 L 448 80 L 448 80 L 496 80 L 496 80 L 496 40 L 496 40 L 496 32 L 496 32 L 512 32 L 512 32 L 512 40 L 512 40 L 512 80 L 512 80 L 512 96 L 512 96 L 512 128 L 512 128 L 512 144 L 512 144 L 496 144 L 411 144 L 288 228 L 288 228 L 288 504 L 288 504 L 288 512 L 288 512 L 272 512 L 272 512 L 272 504 L 272 504 L 272 224 L 272 224 L 272 224 L 272 224 L 272 144 L 272 144 L 240 144 L 240 144 L 240 224 L 240 224 L 240 224 L 240 224 L 240 504 L 240 504 L 240 512 L 240 512 L 224 512 L 224 512 L 224 504 L 224 504 L 224 228 L 224 228 L 102 144 L 102 144 L 16 144 L 0 144 L 0 128 L 0 128 L 0 96 L 0 96 L 0 80 L 0 80 L 0 40 L 0 40 L 0 32 L 0 32 L 16 32 L 16 32 L 16 40 L 16 40 L 16 80 L 16 80 L 64 80 L 64 80 L 64 40 L 64 40 L 64 32 L 64 32 L 80 32 L 80 32 L 80 40 L 80 40 L 80 80 L 80 80 L 224 80 L 224 80 Z M 104 128 L 224 128 L 104 128 L 408 128 L 408 128 L 408 128 L 496 128 L 496 128 L 496 96 L 496 96 L 288 96 L 16 96 L 16 128 L 16 128 L 104 128 L 104 128 L 104 128 L 104 128 Z M 130 144 L 224 209 L 130 144 L 224 209 L 224 144 L 224 144 L 130 144 L 130 144 Z M 382 144 L 288 144 L 382 144 L 288 144 L 288 209 L 288 209 L 382 144 L 382 144 Z" />
</svg>