<svg xmlns="http://www.w3.org/2000/svg" viewBox="0 0 448 448">
  <path d="M 304 16 L 208 16 L 304 16 L 208 16 L 208 112 L 208 112 L 304 112 L 304 112 L 304 16 L 304 16 Z M 208 0 L 304 0 L 208 0 L 320 0 L 320 16 L 320 16 L 320 112 L 320 112 L 320 128 L 320 128 L 304 128 L 192 128 L 192 112 L 192 112 L 192 16 L 192 16 L 192 0 L 192 0 L 208 0 L 208 0 Z M 77 197 L 125 280 L 77 197 L 125 280 L 208 232 L 208 232 L 160 149 L 160 149 L 77 197 L 77 197 Z M 55 191 L 69 183 L 55 191 L 69 183 L 152 135 L 152 135 L 166 127 L 166 127 L 174 141 L 174 141 L 222 224 L 222 224 L 230 238 L 230 238 L 216 246 L 216 246 L 133 294 L 133 294 L 119 302 L 119 302 L 111 288 L 111 288 L 63 205 L 63 205 L 55 191 L 55 191 Z M 368 176 L 272 176 L 368 176 L 272 176 L 272 272 L 272 272 L 368 272 L 368 272 L 368 176 L 368 176 Z M 256 160 L 272 160 L 256 160 L 384 160 L 384 176 L 384 176 L 384 272 L 384 272 L 384 288 L 384 288 L 368 288 L 256 288 L 256 272 L 256 272 L 256 176 L 256 176 L 256 160 L 256 160 Z M 336 432 L 432 432 L 336 432 L 432 432 L 432 336 L 432 336 L 336 336 L 336 336 L 336 432 L 336 432 Z M 320 320 L 336 320 L 320 320 L 448 320 L 448 336 L 448 336 L 448 432 L 448 432 L 448 448 L 448 448 L 432 448 L 320 448 L 320 432 L 320 432 L 320 336 L 320 336 L 320 320 L 320 320 Z M 272 336 L 176 336 L 272 336 L 176 336 L 176 432 L 176 432 L 272 432 L 272 432 L 272 336 L 272 336 Z M 176 320 L 272 320 L 176 320 L 288 320 L 288 336 L 288 336 L 288 432 L 288 432 L 288 448 L 288 448 L 272 448 L 160 448 L 160 432 L 160 432 L 160 336 L 160 336 L 160 320 L 160 320 L 176 320 L 176 320 Z M 16 336 L 16 432 L 16 336 L 16 432 L 112 432 L 112 432 L 112 336 L 112 336 L 16 336 L 16 336 Z M 0 320 L 16 320 L 0 320 L 128 320 L 128 336 L 128 336 L 128 432 L 128 432 L 128 448 L 128 448 L 112 448 L 0 448 L 0 432 L 0 432 L 0 336 L 0 336 L 0 320 L 0 320 Z" />
</svg>