<svg xmlns="http://www.w3.org/2000/svg" viewBox="0 0 448 384">
  <path d="M 240 144 L 224 144 L 240 144 L 16 144 L 16 240 L 16 240 L 224 240 L 240 240 L 240 256 L 240 256 L 240 368 L 240 368 L 249 368 L 249 368 L 425 192 L 425 192 L 249 16 L 249 16 L 240 16 L 240 16 L 240 128 L 240 128 L 240 144 L 240 144 Z M 256 0 L 437 181 L 256 0 L 437 181 L 448 192 L 448 192 L 437 203 L 437 203 L 256 384 L 256 384 L 240 384 L 224 384 L 224 368 L 224 368 L 224 272 L 224 272 L 224 256 L 224 256 L 208 256 L 0 256 L 0 240 L 0 240 L 0 144 L 0 144 L 0 128 L 0 128 L 16 128 L 224 128 L 224 112 L 224 112 L 224 16 L 224 16 L 224 0 L 224 0 L 240 0 L 256 0 Z" />
</svg>