<svg xmlns="http://www.w3.org/2000/svg" viewBox="0 0 384 512">
  <path d="M 259 204 L 312 26 L 259 204 L 312 26 L 320 0 L 320 0 L 299 16 L 299 16 L 0 240 L 0 240 L 0 288 L 0 288 L 113 292 L 113 292 L 129 293 L 129 293 L 125 308 L 125 308 L 72 486 L 72 486 L 64 512 L 64 512 L 86 496 L 86 496 L 384 272 L 384 272 L 384 224 L 384 224 L 271 220 L 271 220 L 255 220 L 255 220 L 260 204 L 259 204 Z M 368 240 L 368 264 L 368 240 L 368 264 L 93 470 L 93 470 L 145 297 L 145 297 L 151 277 L 151 277 L 130 277 L 130 277 L 16 273 L 16 273 L 16 248 L 16 248 L 291 42 L 291 42 L 239 215 L 239 215 L 234 235 L 234 235 L 254 236 L 254 236 L 368 240 L 368 240 Z" />
</svg>