<svg xmlns="http://www.w3.org/2000/svg" viewBox="0 0 448 448">
  <path d="M 432 16 L 432 432 L 432 16 L 432 432 L 384 432 L 384 432 L 336 288 L 336 288 L 112 288 L 112 288 L 64 432 L 64 432 L 16 432 L 16 432 L 16 16 L 16 16 L 432 16 L 432 16 Z M 367 432 L 81 432 L 367 432 L 81 432 L 124 304 L 124 304 L 325 304 L 325 304 L 367 432 L 367 432 Z M 16 0 L 0 0 L 16 0 L 0 0 L 0 16 L 0 16 L 0 432 L 0 432 L 0 448 L 0 448 L 16 448 L 448 448 L 448 432 L 448 432 L 448 16 L 448 16 L 448 0 L 448 0 L 432 0 L 16 0 Z M 304 176 Q 303 131 264 107 Q 224 85 184 107 Q 145 131 144 176 Q 145 221 184 245 Q 224 267 264 245 Q 303 221 304 176 L 304 176 Z M 224 112 Q 260 113 279 144 Q 297 176 279 208 Q 260 239 224 240 Q 188 239 169 208 Q 151 176 169 144 Q 188 113 224 112 L 224 112 Z" />
</svg>