<svg xmlns="http://www.w3.org/2000/svg" viewBox="0 0 512 512">
  <path d="M 496 256 Q 495 191 464 136 L 464 136 L 464 136 Q 432 81 376 48 Q 319 16 256 16 Q 193 16 136 48 Q 80 81 48 136 Q 17 191 16 256 Q 17 321 48 376 Q 80 431 136 464 Q 193 496 256 496 Q 319 496 376 464 Q 432 431 464 376 Q 495 321 496 256 L 496 256 Z M 0 256 Q 1 186 34 128 L 34 128 L 34 128 Q 68 70 128 34 Q 189 0 256 0 Q 323 0 384 34 Q 444 70 478 128 Q 511 186 512 256 Q 511 326 478 384 Q 444 442 384 478 Q 323 512 256 512 Q 189 512 128 478 Q 68 442 34 384 Q 1 326 0 256 L 0 256 Z M 264 141 Q 272 141 281 142 Q 287 143 300 146 Q 312 148 319 150 L 327 152 L 327 152 L 323 167 L 323 167 L 315 165 L 315 165 Q 309 164 297 161 Q 285 159 278 158 Q 243 154 219 164 Q 196 174 193 192 Q 189 214 209 227 Q 230 239 255 244 Q 255 244 255 245 Q 259 246 263 247 Q 263 247 263 247 Q 295 254 321 270 Q 348 289 343 323 Q 336 353 307 364 Q 288 372 264 372 L 264 416 L 264 416 L 248 416 L 248 416 L 248 371 L 248 371 Q 243 370 239 370 Q 239 370 239 370 Q 239 370 239 370 Q 229 368 216 364 Q 202 360 190 356 Q 190 356 190 356 Q 190 356 190 356 Q 186 355 182 353 Q 178 352 174 351 L 179 336 L 179 336 Q 183 337 187 338 Q 191 339 195 341 Q 195 341 195 341 Q 196 341 198 341 Q 222 350 242 354 Q 278 359 301 349 Q 323 340 327 320 Q 331 296 312 283 Q 291 270 258 262 Q 255 261 252 260 Q 224 254 200 240 Q 172 222 177 189 Q 184 161 213 149 Q 228 142 248 141 L 248 96 L 248 96 L 264 96 L 264 96 L 264 141 L 264 141 Z" />
</svg>