<svg xmlns="http://www.w3.org/2000/svg" viewBox="0 0 512 512">
  <path d="M 8 0 L 64 0 L 8 0 L 64 0 L 64 16 L 64 16 L 16 16 L 16 16 L 16 504 L 16 504 L 16 512 L 16 512 L 0 512 L 0 512 L 0 504 L 0 504 L 0 8 L 0 8 L 0 0 L 0 0 L 8 0 L 8 0 Z M 432 16 L 432 400 L 432 16 L 432 400 Q 432 414 441 423 Q 450 432 464 432 Q 478 432 487 423 Q 496 414 496 400 L 496 16 L 496 16 L 432 16 L 432 16 Z M 496 436 Q 483 448 464 448 Q 438 447 424 427 Q 410 447 384 448 Q 358 447 344 427 Q 330 447 304 448 Q 278 447 264 427 Q 250 447 224 448 Q 198 447 184 427 Q 170 447 144 448 Q 124 447 110 434 Q 97 420 96 400 L 96 16 L 96 16 L 96 0 L 96 0 L 112 0 L 512 0 L 512 8 L 512 8 L 512 16 L 512 16 L 512 400 L 512 400 L 512 504 L 512 504 L 512 512 L 512 512 L 496 512 L 496 512 L 496 504 L 496 504 L 496 436 L 496 436 Z M 112 16 L 112 400 L 112 16 L 112 400 Q 112 414 121 423 Q 130 432 144 432 Q 158 432 167 423 Q 176 414 176 400 L 176 16 L 176 16 L 112 16 L 112 16 Z M 192 16 L 192 400 L 192 16 L 192 400 Q 192 414 201 423 Q 210 432 224 432 Q 238 432 247 423 Q 256 414 256 400 L 256 16 L 256 16 L 192 16 L 192 16 Z M 272 16 L 272 400 L 272 16 L 272 400 Q 272 414 281 423 Q 290 432 304 432 Q 318 432 327 423 Q 336 414 336 400 L 336 16 L 336 16 L 272 16 L 272 16 Z M 352 16 L 352 400 L 352 16 L 352 400 Q 352 414 361 423 Q 370 432 384 432 Q 398 432 407 423 Q 416 414 416 400 L 416 16 L 416 16 L 352 16 L 352 16 Z" />
</svg>