<svg xmlns="http://www.w3.org/2000/svg" viewBox="0 0 576 512">
  <path d="M 16 8 L 16 0 L 16 8 L 16 0 L 0 0 L 0 0 L 0 8 L 0 8 L 0 200 L 0 200 L 0 440 L 0 440 L 0 504 L 0 504 L 0 512 L 0 512 L 16 512 L 16 512 L 16 504 L 16 504 L 16 448 L 16 448 L 216 448 L 560 448 L 560 504 L 560 504 L 560 512 L 560 512 L 576 512 L 576 512 L 576 504 L 576 504 L 576 440 L 576 440 L 576 280 L 576 280 L 576 200 L 576 200 L 576 136 L 576 136 Q 575 92 546 62 Q 516 33 472 32 L 216 32 L 208 32 L 208 40 L 208 40 L 208 192 L 208 192 L 16 192 L 16 192 L 16 8 L 16 8 Z M 208 280 L 208 432 L 208 280 L 208 432 L 16 432 L 16 432 L 16 208 L 16 208 L 216 208 L 560 208 L 560 272 L 560 272 L 216 272 L 208 272 L 208 280 L 208 280 Z M 560 136 L 560 192 L 560 136 L 560 192 L 224 192 L 224 192 L 224 48 L 224 48 L 472 48 L 472 48 Q 509 49 534 74 Q 559 99 560 136 L 560 136 Z M 224 288 L 560 288 L 224 288 L 560 288 L 560 432 L 560 432 L 224 432 L 224 432 L 224 288 L 224 288 Z M 112 48 Q 139 49 154 72 Q 166 96 154 120 Q 139 143 112 144 Q 85 143 70 120 Q 58 96 70 72 Q 85 49 112 48 L 112 48 Z M 112 160 Q 148 159 167 128 Q 185 96 167 64 Q 148 33 112 32 Q 76 33 57 64 Q 39 96 57 128 Q 76 159 112 160 L 112 160 Z M 112 288 Q 139 289 154 312 Q 166 336 154 360 Q 139 383 112 384 Q 85 383 70 360 Q 58 336 70 312 Q 85 289 112 288 L 112 288 Z M 112 400 Q 148 399 167 368 Q 185 336 167 304 Q 148 273 112 272 Q 76 273 57 304 Q 39 336 57 368 Q 76 399 112 400 L 112 400 Z" />
</svg>