<svg xmlns="http://www.w3.org/2000/svg" viewBox="0 0 640 512">
  <path d="M 320 0 Q 356 1 375 32 Q 393 64 375 96 Q 356 127 320 128 Q 284 127 265 96 Q 247 64 265 32 Q 284 1 320 0 L 320 0 Z M 448 384 L 384 384 L 448 384 L 384 384 L 384 512 L 384 512 L 256 512 L 256 512 L 256 384 L 256 384 L 192 384 L 192 384 L 256 160 L 256 160 L 384 160 L 384 160 L 448 384 L 448 384 Z M 35 32 Q 94 32 145 54 L 145 54 L 145 54 Q 197 76 236 115 L 150 416 L 150 416 L 224 416 L 224 416 L 224 447 L 224 447 Q 175 479 112 480 L 96 480 L 64 480 L 64 448 L 64 448 Q 65 378 104 326 Q 56 288 28 233 Q 1 178 0 112 L 0 64 L 0 64 L 0 32 L 0 32 L 32 32 L 35 32 Z M 528 480 Q 465 479 416 447 L 416 416 L 416 416 L 490 416 L 490 416 L 404 115 L 404 115 Q 443 76 495 54 Q 546 32 605 32 L 608 32 L 640 32 L 640 64 L 640 64 L 640 112 L 640 112 Q 639 178 612 233 Q 584 288 536 326 Q 575 378 576 448 L 576 480 L 576 480 L 544 480 L 528 480 Z" />
</svg>