<svg xmlns="http://www.w3.org/2000/svg" viewBox="0 0 640 512">
  <path d="M 336 128 Q 336 98 321 72 L 321 72 L 321 72 Q 306 46 280 31 Q 254 16 224 16 Q 194 16 168 31 Q 142 46 127 72 Q 112 98 112 128 Q 112 158 127 184 Q 142 210 168 225 Q 194 240 224 240 Q 254 240 280 225 Q 306 210 321 184 Q 336 158 336 128 L 336 128 Z M 22 496 L 426 496 L 22 496 L 426 496 L 372 320 L 372 320 L 76 320 L 76 320 L 22 496 L 22 496 Z M 384 304 L 443 496 L 384 304 L 443 496 L 448 512 L 448 512 L 431 512 L 0 512 L 5 496 L 5 496 L 64 304 L 64 304 L 384 304 L 384 304 Z M 224 0 Q 259 0 288 17 L 288 17 L 288 17 Q 317 34 335 64 Q 352 94 352 128 Q 352 162 335 192 Q 317 222 288 239 Q 259 256 224 256 Q 189 256 160 239 Q 131 222 113 192 Q 96 162 96 128 Q 96 94 113 64 Q 131 34 160 17 Q 189 0 224 0 L 224 0 Z M 623 512 L 481 512 L 623 512 L 481 512 L 478 503 L 478 503 L 476 496 L 476 496 L 618 496 L 618 496 L 565 336 L 565 336 L 427 336 L 427 336 L 423 320 L 423 320 L 576 320 L 576 320 L 635 496 L 635 496 L 640 512 L 640 512 L 623 512 L 623 512 Z M 432 256 Q 384 255 353 223 Q 358 217 362 209 Q 389 239 432 240 Q 473 239 500 212 Q 527 185 528 144 Q 527 103 500 76 Q 473 49 432 48 Q 398 49 373 69 Q 370 61 366 54 Q 394 33 432 32 Q 480 33 511 65 Q 543 96 544 144 Q 543 192 511 223 Q 480 255 432 256 L 432 256 Z" />
</svg>