<svg xmlns="http://www.w3.org/2000/svg" viewBox="0 0 448 448">
  <path d="M 16 16 L 16 432 L 16 16 L 16 432 L 432 432 L 432 432 L 432 16 L 432 16 L 16 16 L 16 16 Z M 0 0 L 16 0 L 0 0 L 448 0 L 448 16 L 448 16 L 448 432 L 448 432 L 448 448 L 448 448 L 432 448 L 0 448 L 0 432 L 0 432 L 0 16 L 0 16 L 0 0 L 0 0 Z M 166 343 L 188 256 L 166 343 L 188 256 L 192 240 L 192 240 L 176 240 L 112 240 L 112 224 L 112 224 L 112 216 L 112 216 L 268 96 L 268 96 L 288 80 L 288 80 L 282 105 L 282 105 L 260 192 L 260 192 L 256 208 L 256 208 L 273 208 L 336 208 L 336 224 L 336 224 L 336 232 L 336 232 L 180 352 L 180 352 L 160 368 L 160 368 L 166 343 L 166 343 Z M 192 224 L 213 224 L 192 224 L 213 224 L 208 244 L 208 244 L 187 327 L 187 327 L 320 224 L 320 224 L 320 224 L 320 224 L 256 224 L 236 224 L 241 204 L 241 204 L 261 121 L 261 121 L 128 224 L 128 224 L 128 224 L 128 224 L 192 224 L 192 224 Z" />
</svg>