<svg xmlns="http://www.w3.org/2000/svg" viewBox="0 0 512 512">
  <path d="M 256 16 Q 189 17 135 49 L 135 49 L 135 49 Q 81 81 49 135 L 49 135 L 49 135 Q 17 189 16 256 Q 17 317 43 368 Q 70 418 117 451 L 107 464 L 107 464 Q 58 429 29 375 Q 1 321 0 256 Q 1 184 35 127 Q 69 69 127 35 Q 184 1 256 0 Q 328 1 385 35 Q 443 69 477 127 Q 511 184 512 256 Q 511 337 468 399 Q 425 462 355 492 L 349 477 L 349 477 Q 415 449 455 390 Q 495 332 496 256 Q 495 189 463 135 Q 431 81 377 49 Q 323 17 256 16 L 256 16 Z M 245 357 L 235 347 L 245 357 L 235 347 L 247 336 L 247 336 L 291 291 L 291 291 L 303 280 L 303 280 L 301 278 L 301 278 L 291 269 L 291 269 L 280 257 L 280 257 L 269 269 L 269 269 L 200 337 L 200 337 L 199 338 L 199 338 L 184 353 L 184 353 L 184 338 L 184 338 L 184 334 L 184 334 L 184 331 L 184 331 L 184 318 L 184 318 L 168 318 L 144 318 L 144 334 L 144 334 L 144 338 L 144 338 L 144 368 L 144 368 L 144 388 L 144 388 L 144 401 L 144 401 Q 145 441 172 468 Q 199 495 239 496 Q 278 495 307 468 L 355 419 L 355 419 L 367 408 L 367 408 L 355 397 L 355 397 L 346 387 L 346 387 L 344 385 L 344 385 L 333 397 L 333 397 L 320 409 L 320 409 L 309 421 L 309 421 L 299 411 L 299 411 L 311 400 L 311 400 L 323 387 L 323 387 L 335 376 L 335 376 L 346 365 L 346 365 L 355 355 L 355 355 L 367 344 L 367 344 L 355 333 L 355 333 L 346 323 L 346 323 L 344 321 L 344 321 L 333 333 L 333 333 L 288 377 L 288 377 L 277 389 L 277 389 L 267 379 L 267 379 L 279 368 L 279 368 L 323 323 L 323 323 L 335 312 L 335 312 L 339 307 L 339 307 L 346 301 L 346 301 L 351 296 L 351 296 L 339 285 L 339 285 L 328 273 L 328 273 L 323 278 L 323 278 L 317 285 L 317 285 L 312 289 L 312 289 L 301 301 L 301 301 L 256 345 L 256 345 L 245 357 L 245 357 Z M 312 267 L 317 262 L 312 267 L 317 262 L 328 251 L 328 251 L 339 262 L 339 262 L 362 285 L 362 285 L 373 296 L 373 296 L 362 307 L 362 307 L 357 312 L 357 312 L 378 333 L 378 333 L 389 344 L 389 344 L 378 355 L 378 355 L 367 367 L 367 367 L 357 376 L 357 376 L 378 397 L 378 397 L 389 408 L 389 408 L 378 419 L 378 419 L 367 431 L 367 431 L 318 479 L 318 479 Q 285 511 239 512 Q 192 511 161 479 Q 129 448 128 401 L 128 388 L 128 388 L 128 368 L 128 368 L 128 338 L 128 338 L 128 318 L 128 318 L 128 302 L 128 302 L 144 302 L 200 302 L 200 315 L 200 315 L 257 257 L 257 257 L 269 246 L 269 246 L 280 235 L 280 235 L 291 246 L 291 246 L 312 267 L 312 267 Z M 175 262 L 160 256 L 175 262 L 160 256 Q 172 227 198 210 Q 223 192 256 192 Q 304 193 334 227 L 322 237 L 322 237 Q 296 209 256 208 Q 228 208 207 223 Q 185 238 175 262 L 175 262 Z M 211 113 L 205 118 L 211 113 L 205 118 L 125 182 L 125 182 L 119 187 L 119 187 L 109 175 L 109 175 L 115 170 L 115 170 L 195 106 L 195 106 L 201 101 L 201 101 L 211 113 L 211 113 Z M 307 118 L 301 113 L 307 118 L 301 113 L 311 101 L 311 101 L 317 106 L 317 106 L 397 170 L 397 170 L 403 175 L 403 175 L 393 187 L 393 187 L 387 182 L 387 182 L 307 118 L 307 118 Z" />
</svg>