<svg xmlns="http://www.w3.org/2000/svg" viewBox="0 0 512 512">
  <path d="M 512 248 L 448 267 L 512 248 L 448 267 L 432 272 L 432 272 L 442 286 L 442 286 L 480 336 L 480 336 L 432 384 L 432 384 L 354 378 L 354 378 L 336 376 L 336 376 L 343 393 L 343 393 L 352 416 L 352 416 L 288 480 L 288 480 L 192 432 L 192 432 L 96 432 L 91 432 L 17 506 L 17 506 L 12 512 L 12 512 L 0 501 L 0 501 L 6 495 L 6 495 L 80 421 L 80 421 L 80 416 L 80 416 L 80 320 L 80 320 L 32 224 L 32 224 L 96 160 L 96 160 L 119 169 L 119 169 L 136 176 L 136 176 L 135 158 L 135 158 L 128 80 L 128 80 L 176 32 L 176 32 L 226 70 L 226 70 L 240 80 L 240 80 L 245 64 L 245 64 L 264 0 L 264 0 L 336 0 L 336 0 L 368 48 L 368 48 L 432 32 L 432 32 L 480 80 L 480 80 L 464 144 L 464 144 L 512 176 L 512 176 L 512 248 L 512 248 Z M 96 405 L 306 194 L 96 405 L 306 194 L 312 189 L 312 189 L 323 200 L 323 200 L 318 206 L 318 206 L 107 416 L 107 416 L 192 416 L 196 416 L 199 418 L 199 418 L 285 461 L 285 461 L 333 412 L 333 412 L 321 382 L 321 382 L 312 358 L 312 358 L 337 360 L 337 360 L 426 368 L 426 368 L 459 335 L 459 335 L 419 282 L 419 282 L 405 263 L 405 263 L 427 257 L 427 257 L 496 236 L 496 236 L 496 185 L 496 185 L 455 157 L 455 157 L 446 151 L 446 151 L 448 140 L 448 140 L 462 85 L 462 85 L 427 50 L 427 50 L 372 64 L 372 64 L 361 66 L 361 66 L 355 57 L 355 57 L 327 16 L 327 16 L 276 16 L 276 16 L 255 85 L 255 85 L 249 107 L 249 107 L 230 93 L 230 93 L 178 53 L 178 53 L 145 86 L 145 86 L 152 175 L 152 175 L 154 201 L 154 201 L 130 191 L 130 191 L 100 179 L 100 179 L 52 227 L 52 227 L 94 313 L 94 313 L 96 316 L 96 316 L 96 320 L 96 320 L 96 405 L 96 405 Z" />
</svg>