<svg xmlns="http://www.w3.org/2000/svg" viewBox="0 0 609 480">
  <path d="M 128 16 L 128 96 L 128 16 L 128 96 L 216 96 L 320 96 L 320 16 L 320 16 L 128 16 L 128 16 Z M 112 96 L 112 16 L 112 96 L 112 16 L 16 16 L 16 16 L 16 96 L 16 96 L 112 96 L 112 96 Z M 16 112 L 16 216 L 16 112 L 16 216 L 216 216 L 216 216 L 216 112 L 216 112 L 16 112 L 16 112 Z M 16 336 L 112 336 L 16 336 L 112 336 L 112 232 L 112 232 L 16 232 L 16 232 L 16 336 L 16 336 Z M 16 352 L 16 432 L 16 352 L 16 432 L 216 432 L 216 432 L 216 352 L 216 352 L 128 352 L 16 352 Z M 128 336 L 257 336 L 128 336 L 257 336 Q 257 344 259 352 L 232 352 L 232 352 L 232 432 L 232 432 L 292 432 L 292 432 Q 298 440 305 448 L 16 448 L 0 448 L 0 432 L 0 432 L 0 16 L 0 16 L 0 0 L 0 0 L 16 0 L 448 0 L 448 16 L 448 16 L 448 115 L 448 115 L 429 96 L 429 96 L 432 96 L 432 96 L 432 16 L 432 16 L 336 16 L 336 16 L 336 96 L 336 96 L 407 96 L 407 96 L 399 101 L 399 101 Q 391 106 383 112 L 232 112 L 232 112 L 232 216 L 232 216 L 286 216 L 286 216 Q 282 224 278 232 L 128 232 L 128 232 L 128 336 L 128 336 Z M 469 181 L 480 192 L 469 181 L 480 192 L 491 181 L 491 181 L 512 160 L 512 160 Q 568 210 589 254 Q 609 299 608 320 Q 606 388 561 433 Q 516 478 448 480 Q 380 478 335 433 Q 290 388 288 320 Q 289 275 312 237 Q 334 198 364 170 Q 393 142 416 128 L 469 181 L 469 181 Z M 544 391 Q 544 418 528 440 Q 557 420 575 389 Q 592 358 592 320 Q 593 304 577 265 Q 560 227 513 182 L 491 204 L 491 204 L 480 215 L 480 215 L 469 204 L 469 204 L 414 149 L 414 149 Q 383 170 349 211 Q 329 235 317 262 Q 304 290 304 320 Q 304 358 321 389 Q 339 420 368 440 Q 352 418 352 391 Q 354 355 377 324 Q 400 294 423 275 Q 446 257 448 256 Q 450 257 473 275 Q 496 294 519 324 Q 542 355 544 391 L 544 391 Z M 448 464 Q 483 463 505 442 L 505 442 L 505 442 Q 527 421 528 391 Q 527 369 515 348 Q 503 327 485 308 Q 467 290 453 280 Q 450 278 448 276 Q 446 278 443 280 Q 429 290 412 308 Q 393 327 381 348 Q 369 369 368 391 Q 369 421 391 442 Q 413 463 448 464 L 448 464 Z" />
</svg>