<svg xmlns="http://www.w3.org/2000/svg" viewBox="0 0 484 512">
  <path d="M 236 19 L 242 17 L 236 19 L 242 17 L 248 19 L 248 19 L 455 100 L 455 100 L 465 104 L 465 104 L 466 114 L 466 114 Q 468 151 460 202 Q 453 253 430 308 Q 406 363 362 412 Q 318 460 248 492 L 242 495 L 242 495 L 236 492 L 236 492 Q 166 460 122 412 Q 78 363 55 308 Q 31 253 24 202 Q 16 151 19 114 L 19 104 L 19 104 L 29 100 L 29 100 L 236 19 L 236 19 Z M 482 113 L 480 93 L 482 113 L 480 93 L 461 85 L 461 85 L 254 5 L 254 5 L 242 0 L 242 0 L 230 5 L 230 5 L 23 85 L 23 85 L 4 93 L 4 93 L 3 113 L 3 113 Q 0 151 8 204 Q 16 257 40 314 Q 64 371 110 422 Q 156 474 229 507 L 242 512 L 242 512 L 255 507 L 255 507 Q 328 474 374 422 Q 420 371 444 314 Q 468 257 476 204 Q 484 151 481 113 L 482 113 Z M 152 138 L 138 125 L 152 138 L 138 125 L 138 144 L 138 144 L 138 272 L 138 272 Q 139 316 168 346 Q 198 375 242 376 Q 286 375 316 346 Q 345 316 346 272 L 346 144 L 346 144 L 346 125 L 346 125 L 332 138 L 332 138 L 271 200 L 271 200 L 213 200 L 213 200 L 152 138 L 152 138 Z M 154 272 L 154 163 L 154 272 L 154 163 L 204 214 L 204 214 L 207 216 L 207 216 L 210 216 L 277 216 L 280 214 L 280 214 L 330 163 L 330 163 L 330 272 L 330 272 Q 329 309 304 334 Q 279 359 242 360 Q 205 359 180 334 Q 155 309 154 272 L 154 272 Z M 202 288 Q 217 287 218 272 Q 217 257 202 256 Q 187 257 186 272 Q 187 287 202 288 L 202 288 Z M 282 288 Q 297 287 298 272 Q 297 257 282 256 Q 267 257 266 272 Q 267 287 282 288 L 282 288 Z" />
</svg>