<svg xmlns="http://www.w3.org/2000/svg" viewBox="0 0 571 520">
  <path d="M 227 64 Q 226 41 207 29 Q 187 19 167 29 Q 148 41 147 64 Q 148 87 167 99 Q 187 109 207 99 Q 226 87 227 64 L 227 64 Z M 131 64 Q 132 32 159 16 Q 187 0 215 16 Q 242 32 243 64 Q 242 96 215 112 Q 187 128 159 112 Q 132 96 131 64 L 131 64 Z M 99 256 L 99 504 L 99 256 L 99 504 L 131 504 L 131 504 L 131 352 L 131 352 L 131 344 L 131 344 L 139 344 L 179 344 L 179 352 L 179 352 L 179 504 L 179 504 L 211 504 L 211 504 L 211 256 L 211 256 L 211 248 L 211 248 L 227 248 L 227 248 L 227 256 L 227 256 L 227 512 L 227 512 L 227 520 L 227 520 L 219 520 L 163 520 L 163 512 L 163 512 L 163 360 L 163 360 L 147 360 L 147 360 L 147 512 L 147 512 L 147 520 L 147 520 L 139 520 L 83 520 L 83 512 L 83 512 L 83 256 L 83 256 L 83 248 L 83 248 L 99 248 L 99 248 L 99 256 L 99 256 Z M 91 136 L 96 136 L 91 136 L 218 136 L 221 140 L 221 140 L 322 292 L 322 292 L 326 298 L 326 298 L 313 307 L 313 307 L 308 301 L 308 301 L 210 152 L 210 152 L 101 152 L 101 152 L 18 324 L 18 324 L 15 331 L 15 331 L 0 324 L 0 324 L 4 317 L 4 317 L 89 141 L 89 141 L 91 136 L 91 136 Z M 458 501 L 416 458 L 458 501 L 416 458 L 404 446 L 404 446 L 396 461 L 396 461 L 382 489 L 382 489 L 375 503 L 375 503 L 368 518 L 368 518 L 354 510 L 354 510 L 325 496 L 325 496 L 311 489 L 311 489 L 318 475 L 318 475 L 325 460 L 325 460 L 367 378 L 367 378 L 418 369 L 418 369 L 443 395 L 443 395 L 459 411 L 459 411 L 459 388 L 459 388 L 459 344 L 459 344 L 459 331 L 459 331 L 468 321 L 468 321 L 484 305 L 484 305 L 494 296 L 494 296 L 507 296 L 571 296 L 571 312 L 571 312 L 571 328 L 571 328 L 571 454 L 571 454 Q 570 482 552 501 Q 533 519 505 520 Q 478 520 459 501 L 458 501 Z M 368 482 L 389 439 L 368 482 L 389 439 L 399 419 L 399 419 L 415 435 L 415 435 L 470 489 L 470 489 Q 484 504 505 504 Q 526 503 540 489 Q 554 475 555 454 L 555 328 L 555 328 L 555 312 L 555 312 L 539 312 L 500 312 L 496 317 L 496 317 L 480 333 L 480 333 L 475 337 L 475 337 L 475 344 L 475 344 L 475 411 L 475 411 L 475 449 L 475 449 L 448 422 L 448 422 L 412 386 L 412 386 L 377 392 L 377 392 L 339 468 L 339 468 L 332 482 L 332 482 L 361 496 L 361 496 L 368 482 L 368 482 Z M 459 248 Q 459 234 450 225 L 450 225 L 450 225 Q 441 216 427 216 Q 413 216 404 225 Q 395 234 395 248 Q 395 262 404 271 Q 413 280 427 280 Q 441 280 450 271 Q 459 262 459 248 L 459 248 Z M 427 200 Q 454 201 469 224 Q 481 248 469 272 Q 454 295 427 296 Q 400 295 385 272 Q 373 248 385 224 Q 400 201 427 200 L 427 200 Z M 291 48 L 299 48 L 291 48 L 363 48 L 363 64 L 363 64 L 355 64 L 291 64 L 291 48 L 291 48 Z M 279 113 L 327 137 L 279 113 L 327 137 L 334 140 L 334 140 L 327 155 L 327 155 L 319 151 L 319 151 L 271 127 L 271 127 L 264 124 L 264 124 L 271 109 L 271 109 L 279 113 L 279 113 Z" />
</svg>