<svg xmlns="http://www.w3.org/2000/svg" viewBox="0 0 512 512">
  <path d="M 496 256 Q 495 191 464 136 L 464 136 L 464 136 Q 432 81 376 48 Q 319 16 256 16 Q 193 16 136 48 Q 80 81 48 136 Q 17 191 16 256 Q 17 321 48 376 Q 80 431 136 464 Q 193 496 256 496 Q 319 496 376 464 Q 432 431 464 376 Q 495 321 496 256 L 496 256 Z M 0 256 Q 1 186 34 128 L 34 128 L 34 128 Q 68 70 128 34 Q 189 0 256 0 Q 323 0 384 34 Q 444 70 478 128 Q 511 186 512 256 Q 511 326 478 384 Q 444 442 384 478 Q 323 512 256 512 Q 189 512 128 478 Q 68 442 34 384 Q 1 326 0 256 L 0 256 Z M 256 348 Q 183 347 121 329 Q 139 368 175 392 Q 211 415 256 416 Q 302 415 338 392 Q 373 368 391 329 Q 329 347 256 348 L 256 348 Z M 256 332 Q 334 331 398 310 Q 408 306 417 303 Q 414 313 411 322 Q 393 371 352 401 Q 311 431 256 432 Q 202 431 161 401 Q 119 371 101 322 Q 98 313 96 303 Q 105 306 114 310 Q 178 331 256 332 L 256 332 Z M 197 137 Q 174 133 166 155 L 162 171 L 162 171 L 160 179 L 160 179 L 152 176 L 152 176 L 136 172 L 136 172 Q 113 168 105 190 Q 101 213 123 221 L 195 241 L 195 241 L 215 168 L 215 168 Q 219 145 197 137 L 197 137 Z M 151 151 Q 156 134 170 126 L 170 126 L 170 126 Q 184 117 201 122 Q 218 127 226 141 Q 235 155 230 172 L 209 253 L 209 253 L 207 260 L 207 260 L 199 258 L 199 258 L 119 237 L 119 237 Q 102 232 94 217 Q 85 203 89 186 Q 94 169 109 161 Q 123 153 140 157 L 148 159 L 148 159 L 151 151 L 151 151 Z M 361 151 L 364 159 L 361 151 L 364 159 L 372 157 L 372 157 Q 389 153 403 161 Q 418 169 423 186 Q 427 203 418 217 Q 410 232 393 237 L 313 258 L 313 258 L 305 260 L 305 260 L 303 253 L 303 253 L 281 172 L 281 172 Q 277 155 285 141 Q 294 126 310 122 Q 328 117 342 126 Q 356 134 361 151 L 361 151 Z M 315 137 Q 293 145 297 168 L 316 241 L 316 241 L 389 221 L 389 221 Q 411 213 407 190 Q 399 168 376 172 L 360 177 L 360 177 L 352 179 L 352 179 L 350 171 L 350 171 L 346 155 L 346 155 Q 338 133 315 137 L 315 137 Z" />
</svg>