<svg xmlns="http://www.w3.org/2000/svg" viewBox="0 0 504 512">
  <path d="M 400 16 L 400 144 L 400 16 L 400 144 L 16 144 L 16 144 L 16 16 L 16 16 L 400 16 L 400 16 Z M 16 0 L 0 0 L 16 0 L 0 0 L 0 16 L 0 16 L 0 144 L 0 144 L 0 160 L 0 160 L 16 160 L 416 160 L 416 144 L 416 144 L 416 88 L 416 88 L 416 72 L 416 72 L 416 16 L 416 16 L 416 0 L 416 0 L 400 0 L 16 0 Z M 272 496 L 176 496 L 272 496 L 176 496 L 176 336 L 176 336 L 272 336 L 272 336 L 272 496 L 272 496 Z M 176 320 L 160 320 L 176 320 L 160 320 L 160 336 L 160 336 L 160 496 L 160 496 L 160 512 L 160 512 L 176 512 L 288 512 L 288 496 L 288 496 L 288 336 L 288 336 L 288 320 L 288 320 L 272 320 L 232 320 L 232 248 L 232 248 L 496 248 L 504 248 L 504 240 L 504 240 L 504 80 L 504 80 L 504 72 L 504 72 L 496 72 L 448 72 L 448 88 L 448 88 L 488 88 L 488 88 L 488 232 L 488 232 L 224 232 L 216 232 L 216 240 L 216 240 L 216 320 L 216 320 L 176 320 L 176 320 Z" />
</svg>