<svg xmlns="http://www.w3.org/2000/svg" viewBox="0 0 576 512">
  <path d="M 4 494 L 0 512 L 4 494 L 0 512 L 18 508 L 18 508 L 160 472 L 160 472 L 501 131 L 501 131 L 512 120 L 512 120 L 501 109 L 501 109 L 403 11 L 403 11 L 392 0 L 392 0 L 381 11 L 381 11 L 40 352 L 40 352 L 4 494 L 4 494 Z M 22 490 L 54 360 L 22 490 L 54 360 L 314 101 L 314 101 L 411 198 L 411 198 L 152 458 L 152 458 L 22 490 L 22 490 Z M 489 120 L 422 187 L 489 120 L 422 187 L 325 90 L 325 90 L 392 23 L 392 23 L 489 120 L 489 120 Z M 232 496 L 224 496 L 232 496 L 224 496 L 224 512 L 224 512 L 232 512 L 576 512 L 576 496 L 576 496 L 568 496 L 232 496 Z" />
</svg>