<svg xmlns="http://www.w3.org/2000/svg" viewBox="0 0 384 512">
  <path d="M 16 496 L 16 16 L 16 496 L 16 16 L 208 16 L 208 16 L 208 168 L 208 168 L 208 176 L 208 176 L 216 176 L 368 176 L 368 496 L 368 496 L 16 496 L 16 496 Z M 224 23 L 361 160 L 224 23 L 361 160 L 224 160 L 224 160 L 224 23 L 224 23 Z M 224 0 L 16 0 L 224 0 L 0 0 L 0 16 L 0 16 L 0 496 L 0 496 L 0 512 L 0 512 L 16 512 L 384 512 L 384 496 L 384 496 L 384 160 L 384 160 L 224 0 L 224 0 Z M 168 224 Q 161 225 160 232 L 160 256 L 160 256 L 160 416 L 160 416 L 160 440 L 160 440 Q 161 447 168 448 L 216 448 L 216 448 Q 223 447 224 440 L 224 416 L 224 416 L 224 256 L 224 256 L 224 232 L 224 232 Q 223 225 216 224 L 168 224 L 168 224 Z M 176 256 L 176 240 L 176 256 L 176 240 L 208 240 L 208 240 L 208 256 L 208 256 L 208 416 L 208 416 L 208 432 L 208 432 L 176 432 L 176 432 L 176 416 L 176 416 L 176 256 L 176 256 Z M 264 288 Q 257 289 256 296 L 256 320 L 256 320 L 256 416 L 256 416 L 256 440 L 256 440 Q 257 447 264 448 L 312 448 L 312 448 Q 319 447 320 440 L 320 416 L 320 416 L 320 320 L 320 320 L 320 296 L 320 296 Q 319 289 312 288 L 264 288 L 264 288 Z M 272 320 L 272 304 L 272 320 L 272 304 L 304 304 L 304 304 L 304 320 L 304 320 L 304 416 L 304 416 L 304 432 L 304 432 L 272 432 L 272 432 L 272 416 L 272 416 L 272 320 L 272 320 Z M 72 352 Q 65 353 64 360 L 64 384 L 64 384 L 64 416 L 64 416 L 64 440 L 64 440 Q 65 447 72 448 L 120 448 L 120 448 Q 127 447 128 440 L 128 416 L 128 416 L 128 384 L 128 384 L 128 360 L 128 360 Q 127 353 120 352 L 72 352 L 72 352 Z M 80 384 L 80 368 L 80 384 L 80 368 L 112 368 L 112 368 L 112 384 L 112 384 L 112 416 L 112 416 L 112 432 L 112 432 L 80 432 L 80 432 L 80 416 L 80 416 L 80 384 L 80 384 Z" />
</svg>