<svg xmlns="http://www.w3.org/2000/svg" viewBox="0 0 512 512">
  <path d="M 256 153.6 Q 256 132.8 245.6 115.2 L 245.6 115.2 Q 235.2 97.6 217.6 87.2 Q 199.2 76.8 179.2 76.8 Q 159.2 76.8 140.8 87.2 Q 123.2 97.6 112.8 115.2 Q 102.4 132.8 102.4 153.6 Q 102.4 174.4 112.8 192 Q 123.2 209.6 140.8 220 Q 159.2 230.4 179.2 230.4 Q 199.2 230.4 217.6 220 Q 235.2 209.6 245.6 192 Q 256 174.4 256 153.6 L 256 153.6 Z M 34.4 435.2 L 324 435.2 L 288 320 L 70.4 320 L 34.4 435.2 L 34.4 435.2 Z M 307.2 294.4 L 350.4 435.2 L 358.4 460.8 L 332 460.8 L 27.2 460.8 L 0 460.8 L 8 435.2 L 51.2 294.4 L 307.2 294.4 L 307.2 294.4 Z M 179.2 51.2 Q 207.2 51.2 230.4 64.8 L 230.4 64.8 Q 253.6 78.4 268 102.4 Q 281.6 126.4 281.6 153.6 Q 281.6 180.8 268 204.8 Q 253.6 228.8 230.4 242.4 Q 207.2 256 179.2 256 Q 151.2 256 128 242.4 Q 104.8 228.8 90.4 204.8 Q 76.8 180.8 76.8 153.6 Q 76.8 126.4 90.4 102.4 Q 104.8 78.4 128 64.8 Q 151.2 51.2 179.2 51.2 L 179.2 51.2 Z M 345.6 230.4 L 499.2 230.4 L 512 230.4 L 512 256 L 499.2 256 L 345.6 256 L 332.8 256 L 332.8 230.4 L 345.6 230.4 L 345.6 230.4 Z" />
</svg>