<svg xmlns="http://www.w3.org/2000/svg" viewBox="0 0 641 448">
  <path d="M 609 16 Q 624 17 625 32 Q 624 47 609 48 Q 594 47 593 32 Q 594 17 609 16 L 609 16 Z M 609 64 Q 623 64 632 55 L 632 55 L 632 55 Q 641 46 641 32 Q 641 18 632 9 Q 623 0 609 0 Q 595 0 586 9 Q 577 18 577 32 Q 577 46 586 55 Q 595 64 609 64 L 609 64 Z M 561 368 Q 560 395 542 413 L 542 413 L 542 413 Q 524 431 497 432 Q 470 431 452 413 Q 434 395 433 368 L 433 144 L 433 144 Q 434 117 452 99 Q 470 81 497 80 Q 524 81 542 99 Q 560 117 561 144 L 561 368 L 561 368 Z M 497 64 Q 463 65 440 87 L 440 87 L 440 87 Q 418 110 417 144 L 417 368 L 417 368 Q 418 402 440 425 Q 463 447 497 448 Q 531 447 554 425 Q 576 402 577 368 L 577 144 L 577 144 Q 576 110 554 87 Q 531 65 497 64 L 497 64 Z M 349 80 Q 349 80 349 80 L 349 80 L 349 80 Q 349 80 349 80 Q 349 80 349 80 Q 349 80 349 80 Q 349 80 349 80 Q 349 80 349 80 L 357 79 L 357 79 L 356 63 L 356 63 L 348 64 L 348 64 L 348 72 L 348 72 Q 348 62 348 64 Q 348 64 348 64 Q 348 64 348 64 Q 348 64 348 64 Q 348 64 348 64 L 348 64 L 348 64 L 347 64 L 347 64 Q 347 64 347 64 Q 347 64 346 64 Q 346 64 345 64 Q 344 64 342 65 Q 337 65 328 67 Q 311 71 287 84 Q 262 97 244 125 Q 226 153 225 200 L 225 288 L 225 288 L 225 296 L 225 296 L 225 368 L 225 368 Q 226 402 248 425 Q 271 447 305 448 Q 339 447 362 425 Q 384 402 385 368 L 385 288 L 385 288 Q 384 254 362 231 Q 339 209 305 208 Q 264 209 241 240 L 241 200 L 241 200 Q 242 158 258 134 Q 274 109 295 98 Q 316 86 332 83 Q 340 81 344 81 Q 346 80 346 80 Q 347 80 348 80 L 348 80 L 348 80 L 349 80 L 349 80 Q 349 80 349 80 Q 349 80 349 80 L 349 80 Z M 305 224 Q 332 225 350 243 L 350 243 L 350 243 Q 368 261 369 288 L 369 368 L 369 368 Q 368 395 350 413 Q 332 431 305 432 Q 278 431 260 413 Q 242 395 241 368 L 241 296 L 241 296 L 241 288 L 241 288 Q 242 261 260 243 Q 278 225 305 224 L 305 224 Z M 9 64 L 1 64 L 9 64 L 1 64 L 1 80 L 1 80 L 9 80 L 150 80 L 35 203 L 35 203 L 33 205 L 33 205 L 33 208 L 33 208 L 33 216 L 33 216 L 33 224 L 33 224 L 41 224 L 73 224 Q 117 225 147 254 Q 176 284 177 328 L 177 336 L 177 336 Q 176 377 149 404 Q 122 431 81 432 Q 43 430 29 414 Q 22 407 19 402 Q 18 401 18 399 Q 17 399 17 398 Q 17 398 17 397 L 16 397 L 16 397 Q 16 397 16 397 Q 16 397 16 397 Q 16 397 16 397 Q 16 397 16 397 Q 16 397 16 397 Q 16 397 16 397 Q 16 397 16 397 Q 16 397 16 397 L 9 400 L 9 400 Q 0 404 2 403 Q 2 403 2 403 Q 2 403 2 403 Q 2 403 2 403 Q 2 403 2 403 Q 2 403 2 403 Q 2 403 2 403 L 2 403 L 2 403 L 2 404 L 2 404 Q 2 404 2 404 Q 2 405 3 405 Q 3 406 3 406 Q 4 408 6 411 Q 10 417 19 426 Q 37 445 81 448 Q 129 447 160 415 Q 192 384 193 336 L 193 328 L 193 328 Q 192 277 158 243 Q 124 209 73 208 L 52 208 L 52 208 L 167 86 L 167 86 L 169 83 L 169 83 L 169 80 L 169 80 L 169 72 L 169 72 L 169 64 L 169 64 L 161 64 L 9 64 Z" />
</svg>