<svg xmlns="http://www.w3.org/2000/svg" viewBox="0 0 384 512">
  <path d="M 236 27 L 192 0 L 236 27 L 192 0 L 148 27 L 148 27 L 96 26 L 96 26 L 71 71 L 71 71 L 26 96 L 26 96 L 27 148 L 27 148 L 0 192 L 0 192 L 27 236 L 27 236 L 26 288 L 26 288 L 71 313 L 71 313 L 96 358 L 96 358 L 148 357 L 148 357 L 192 384 L 192 384 L 236 357 L 236 357 L 288 358 L 288 358 L 313 313 L 313 313 L 358 288 L 358 288 L 357 236 L 357 236 L 384 192 L 384 192 L 357 148 L 357 148 L 358 96 L 358 96 L 313 71 L 313 71 L 288 26 L 288 26 L 236 27 L 236 27 Z M 279 42 L 299 79 L 279 42 L 299 79 L 301 83 L 301 83 L 305 85 L 305 85 L 342 106 L 342 106 L 341 148 L 341 148 L 341 152 L 341 152 L 343 156 L 343 156 L 365 192 L 365 192 L 343 228 L 343 228 L 341 232 L 341 232 L 341 237 L 341 237 L 342 279 L 342 279 L 305 299 L 305 299 L 301 301 L 301 301 L 299 305 L 299 305 L 279 342 L 279 342 L 237 341 L 237 341 L 232 341 L 232 341 L 228 343 L 228 343 L 192 365 L 192 365 L 156 343 L 156 343 L 152 341 L 152 341 L 147 341 L 147 341 L 105 342 L 105 342 L 85 305 L 85 305 L 83 301 L 83 301 L 79 299 L 79 299 L 42 279 L 42 279 L 43 237 L 43 237 L 43 232 L 43 232 L 41 228 L 41 228 L 19 192 L 19 192 L 41 156 L 41 156 L 43 152 L 43 152 L 43 147 L 43 147 L 42 105 L 42 105 L 79 85 L 79 85 L 83 83 L 83 83 L 85 79 L 85 79 L 106 42 L 106 42 L 148 43 L 148 43 L 152 43 L 152 43 L 156 41 L 156 41 L 192 19 L 192 19 L 228 41 L 228 41 L 232 43 L 232 43 L 237 43 L 237 43 L 279 42 L 279 42 Z M 49 339 L 7 440 L 49 339 L 7 440 L 0 456 L 0 456 L 17 456 L 76 456 L 116 499 L 116 499 L 128 512 L 128 512 L 135 496 L 135 496 L 171 409 L 171 409 L 158 401 L 158 401 L 123 483 L 123 483 L 88 445 L 88 445 L 83 440 L 83 440 L 76 440 L 24 440 L 59 357 L 59 357 L 49 339 L 49 339 Z M 213 409 L 249 496 L 213 409 L 249 496 L 256 512 L 256 512 L 268 499 L 268 499 L 308 456 L 308 456 L 367 456 L 384 456 L 377 440 L 377 440 L 335 339 L 335 339 L 325 357 L 325 357 L 360 440 L 360 440 L 308 440 L 301 440 L 296 445 L 296 445 L 261 483 L 261 483 L 227 401 L 227 401 L 213 409 L 213 409 Z M 264 192 Q 263 233 228 254 Q 192 274 156 254 Q 121 233 120 192 Q 121 151 156 130 Q 192 110 228 130 Q 263 151 264 192 L 264 192 Z M 192 104 Q 142 106 116 148 Q 92 192 116 236 Q 142 278 192 280 Q 242 278 268 236 Q 292 192 268 148 Q 242 106 192 104 L 192 104 Z" />
</svg>