<svg xmlns="http://www.w3.org/2000/svg" viewBox="0 0 636 480">
  <path d="M 32 0 L 48 0 L 32 0 L 202 0 L 206 9 L 206 9 L 282 160 L 282 160 L 336 160 L 336 160 L 336 96 L 336 96 L 336 80 L 336 80 L 368 80 L 368 80 L 368 96 L 368 96 L 368 160 L 368 160 L 432 160 L 448 160 L 448 176 L 448 176 L 448 272 L 448 272 L 528 272 L 528 272 L 528 208 L 528 208 L 528 202 L 528 202 L 532 198 L 532 198 L 612 102 L 612 102 L 636 122 L 636 122 L 560 214 L 560 214 L 560 362 L 560 362 L 636 454 L 636 454 L 612 474 L 612 474 L 532 378 L 532 378 L 528 374 L 528 374 L 528 368 L 528 368 L 528 304 L 528 304 L 460 304 L 460 304 Q 479 332 480 368 Q 479 416 447 447 Q 416 479 368 480 L 112 480 L 112 480 Q 64 479 33 447 Q 1 416 0 368 Q 1 321 32 290 L 32 192 L 32 192 L 32 176 L 32 176 L 32 160 L 32 160 L 32 16 L 32 16 L 32 0 L 32 0 Z M 272 192 Q 272 192 272 192 L 272 192 L 272 192 Q 272 192 272 192 L 64 192 L 64 192 L 64 267 L 64 267 Q 86 256 112 256 L 368 256 L 368 256 Q 394 256 416 267 L 416 192 L 416 192 L 272 192 L 272 192 Z M 182 32 L 64 32 L 182 32 L 64 32 L 64 160 L 64 160 L 246 160 L 246 160 L 182 32 L 182 32 Z M 112 288 Q 78 289 55 311 L 55 311 L 55 311 Q 33 334 32 368 Q 33 402 55 425 Q 78 447 112 448 L 368 448 L 368 448 Q 402 447 425 425 Q 447 402 448 368 Q 447 334 425 311 Q 402 289 368 288 L 112 288 L 112 288 Z M 96 368 Q 98 346 120 344 Q 142 346 144 368 Q 142 390 120 392 Q 98 390 96 368 L 96 368 Z M 360 344 Q 382 346 384 368 Q 382 390 360 392 Q 338 390 336 368 Q 338 346 360 344 L 360 344 Z M 256 368 Q 258 346 280 344 Q 302 346 304 368 Q 302 390 280 392 Q 258 390 256 368 L 256 368 Z M 200 344 Q 222 346 224 368 Q 222 390 200 392 Q 178 390 176 368 Q 178 346 200 344 L 200 344 Z" />
</svg>