<svg xmlns="http://www.w3.org/2000/svg" viewBox="0 0 384 512">
  <path d="M 200 0 L 200 8 L 200 0 L 200 8 L 200 128 L 200 128 L 240 128 L 384 128 L 384 136 L 384 136 L 384 168 L 384 168 Q 384 185 372 196 Q 361 208 344 208 Q 327 208 316 196 Q 304 185 304 168 L 304 144 L 304 144 L 256 144 L 80 144 L 80 168 L 80 168 Q 80 185 68 196 Q 57 208 40 208 Q 23 208 12 196 Q 0 185 0 168 L 0 136 L 0 136 L 0 128 L 0 128 L 8 128 L 184 128 L 184 8 L 184 8 L 184 0 L 184 0 L 200 0 L 200 0 Z M 64 144 L 16 144 L 64 144 L 16 144 L 16 168 L 16 168 Q 18 190 40 192 Q 62 190 64 168 L 64 144 L 64 144 Z M 320 144 L 320 168 L 320 144 L 320 168 Q 322 190 344 192 Q 366 190 368 168 L 368 144 L 368 144 L 320 144 L 320 144 Z M 144 426 L 192 486 L 144 426 L 192 486 L 240 426 L 240 426 L 240 176 L 240 176 L 256 176 L 256 176 L 256 432 L 256 432 L 202 499 L 202 499 L 192 512 L 192 512 L 182 499 L 182 499 L 128 432 L 128 432 L 128 176 L 128 176 L 144 176 L 144 176 L 144 426 L 144 426 Z" />
</svg>