<svg xmlns="http://www.w3.org/2000/svg" viewBox="0 0 516 453">
  <path d="M 215 121 Q 222 100 213 71 Q 203 43 184 30 Q 165 17 149 23 Q 133 28 125 49 Q 118 71 127 99 Q 137 127 156 140 Q 175 153 191 148 Q 207 142 215 121 L 215 121 Z M 196 163 Q 171 170 147 154 L 147 154 L 147 154 Q 123 137 111 104 Q 101 71 110 44 Q 120 16 144 7 Q 169 0 193 17 Q 217 33 229 66 Q 239 99 230 126 Q 220 154 196 163 L 196 163 Z M 98 219 Q 100 201 88 180 Q 76 159 59 152 Q 42 146 32 152 Q 21 158 18 175 Q 16 193 27 214 Q 40 235 57 242 Q 73 248 84 242 Q 95 236 98 219 L 98 219 Z M 92 256 Q 73 266 51 257 L 51 257 L 51 257 Q 29 247 14 223 Q 0 197 2 174 Q 5 150 24 138 Q 43 128 65 138 Q 87 147 102 172 Q 116 197 113 221 Q 111 244 92 256 L 92 256 Z M 258 389 L 262 390 L 258 389 L 262 390 L 433 432 L 433 432 Q 429 378 411 337 Q 393 297 366 270 Q 337 240 308 227 Q 279 213 258 213 Q 237 213 208 227 Q 179 240 150 270 Q 123 297 105 337 Q 87 378 83 432 L 254 389 L 254 389 L 258 388 L 258 389 Z M 82 449 L 66 453 L 82 449 L 66 453 Q 66 445 66 436 Q 72 354 106 301 Q 140 248 182 223 Q 225 197 258 197 Q 291 197 334 223 Q 376 248 410 301 Q 444 354 450 436 Q 450 445 450 453 L 434 449 L 434 449 L 258 405 L 258 405 L 82 449 L 82 449 Z M 428 180 Q 416 201 418 219 Q 421 236 432 242 Q 442 248 459 242 Q 476 235 489 214 Q 500 193 498 175 Q 495 158 484 152 Q 474 146 457 152 Q 440 159 428 180 L 428 180 Z M 414 172 Q 429 147 451 138 L 451 138 L 451 138 Q 473 128 492 138 Q 511 150 514 173 Q 516 197 502 222 Q 487 247 465 256 Q 443 266 424 256 Q 405 244 403 221 Q 400 197 414 172 L 414 172 Z M 295 71 Q 286 100 294 121 Q 301 142 317 147 Q 333 153 352 140 Q 371 127 381 99 Q 390 70 383 49 Q 375 28 359 23 Q 343 17 324 30 Q 305 43 295 71 L 295 71 Z M 280 66 Q 291 33 315 16 L 315 16 L 315 16 Q 339 0 364 7 Q 388 16 398 44 Q 407 71 397 104 Q 385 137 361 153 Q 337 170 312 163 Q 288 154 278 126 Q 269 99 280 66 L 280 66 Z" />
</svg>