<svg xmlns="http://www.w3.org/2000/svg" viewBox="0 0 635 512">
  <path d="M 459 8 L 459 32 L 459 8 L 459 32 L 619 32 L 635 32 L 635 48 L 635 48 L 635 176 L 635 176 L 635 192 L 635 192 L 619 192 L 459 192 L 459 512 L 459 512 L 443 512 L 443 512 L 443 192 L 443 192 Q 443 192 443 192 Q 443 192 443 192 L 443 176 L 443 176 L 443 48 L 443 48 L 443 32 L 443 32 Q 443 32 443 32 Q 443 32 443 32 L 443 8 L 443 8 L 443 0 L 443 0 L 459 0 L 459 0 L 459 8 L 459 8 Z M 619 176 L 619 48 L 619 176 L 619 48 L 459 48 L 459 48 L 459 176 L 459 176 L 619 176 L 619 176 Z M 272 34 L 411 138 L 272 34 L 411 138 L 411 158 L 411 158 L 267 50 L 267 50 L 75 194 L 75 194 L 75 496 L 75 496 L 411 496 L 411 496 L 411 512 L 411 512 L 67 512 L 59 512 L 59 504 L 59 504 L 59 206 L 59 206 L 16 238 L 16 238 L 9 243 L 9 243 L 0 230 L 0 230 L 6 226 L 6 226 L 262 34 L 262 34 L 267 30 L 267 30 L 272 34 L 272 34 Z M 235 184 L 299 184 L 235 184 L 307 184 L 307 192 L 307 192 L 307 248 L 307 248 L 363 248 L 371 248 L 371 256 L 371 256 L 371 320 L 371 320 L 371 328 L 371 328 L 363 328 L 307 328 L 307 384 L 307 384 L 307 392 L 307 392 L 299 392 L 227 392 L 227 384 L 227 384 L 227 328 L 227 328 L 171 328 L 163 328 L 163 320 L 163 320 L 163 256 L 163 256 L 163 248 L 163 248 L 171 248 L 227 248 L 227 192 L 227 192 L 227 184 L 227 184 L 235 184 L 235 184 Z M 243 256 L 243 264 L 243 256 L 243 264 L 235 264 L 179 264 L 179 312 L 179 312 L 235 312 L 243 312 L 243 320 L 243 320 L 243 376 L 243 376 L 291 376 L 291 376 L 291 320 L 291 320 L 291 312 L 291 312 L 299 312 L 355 312 L 355 264 L 355 264 L 299 264 L 291 264 L 291 256 L 291 256 L 291 200 L 291 200 L 243 200 L 243 200 L 243 256 L 243 256 Z" />
</svg>