<svg xmlns="http://www.w3.org/2000/svg" viewBox="0 0 640 512">
  <path d="M 312 0 L 328 0 L 312 0 L 328 0 L 328 8 L 328 8 L 328 16 L 328 16 L 328 144 L 328 144 L 312 144 L 312 144 L 312 16 L 312 16 L 312 8 L 312 8 L 312 0 L 312 0 Z M 256 112 L 256 177 L 256 112 L 256 177 L 240 161 L 240 161 L 240 112 L 240 112 L 160 112 L 160 112 Q 123 162 92 216 Q 63 264 40 317 Q 17 370 16 423 Q 17 454 37 475 Q 58 495 89 496 Q 127 495 169 482 Q 183 478 198 473 Q 199 473 201 472 Q 201 472 201 472 Q 201 472 201 472 Q 201 472 201 472 Q 201 472 201 472 Q 201 472 201 472 Q 201 472 201 472 Q 201 472 201 472 Q 201 472 201 472 Q 201 472 201 472 Q 201 472 201 472 Q 201 472 201 472 Q 201 472 201 472 Q 201 472 201 472 Q 201 472 201 472 Q 201 472 201 472 Q 201 472 201 472 Q 201 472 201 472 Q 201 472 201 472 Q 208 470 214 468 Q 216 468 218 467 L 231 480 L 231 480 Q 223 482 214 485 Q 210 486 207 487 Q 207 487 207 487 Q 207 487 207 487 Q 177 497 148 504 Q 118 512 89 512 Q 51 511 26 486 Q 1 461 0 423 Q 2 367 26 311 Q 50 256 78 208 Q 112 150 152 96 L 240 96 L 256 96 L 256 112 L 256 112 Z M 439 472 Q 439 472 439 472 L 439 472 L 439 472 Q 439 472 439 472 Q 439 472 439 472 Q 439 472 439 472 Q 441 473 442 473 Q 457 478 471 482 Q 513 495 551 496 Q 582 495 603 475 Q 623 454 624 423 Q 623 370 600 317 Q 577 264 548 216 Q 517 162 480 112 L 400 112 L 400 112 L 400 161 L 400 161 L 384 177 L 384 177 L 384 112 L 384 112 L 384 96 L 384 96 L 400 96 L 488 96 Q 528 150 562 208 Q 590 256 614 311 Q 638 367 640 423 Q 639 461 614 486 Q 589 511 551 512 Q 522 512 492 504 Q 463 497 433 487 Q 429 486 425 485 Q 417 482 409 480 L 422 467 L 422 467 Q 427 469 432 470 Q 435 471 439 472 L 439 472 Z M 304 176 L 320 176 L 304 176 L 344 176 L 344 184 L 344 184 L 344 200 L 344 200 Q 345 218 360 224 Q 375 230 388 218 L 399 207 L 399 207 L 405 201 L 405 201 L 411 207 L 411 207 L 422 218 L 422 218 L 433 230 L 433 230 L 439 235 L 439 235 L 433 241 L 433 241 L 422 252 L 422 252 Q 410 266 416 280 Q 422 295 440 296 L 456 296 L 464 296 L 464 304 L 464 304 L 464 320 L 464 320 L 464 336 L 464 336 L 464 344 L 464 344 L 456 344 L 440 344 Q 422 345 416 360 Q 410 375 422 388 L 433 399 L 433 399 L 439 405 L 439 405 L 433 411 L 433 411 L 422 422 L 422 422 L 411 433 L 411 433 L 405 439 L 405 439 L 399 433 L 399 433 L 388 422 L 388 422 Q 374 410 360 416 Q 345 422 344 440 L 344 456 L 344 456 L 344 464 L 344 464 L 336 464 L 296 464 L 296 456 L 296 456 L 296 440 L 296 440 Q 295 422 280 416 Q 265 410 252 422 L 241 433 L 241 433 L 235 439 L 235 439 L 229 433 L 229 433 L 218 422 L 218 422 Q 218 422 218 422 Q 218 422 218 422 Q 218 422 218 422 Q 218 422 218 422 Q 218 422 218 422 Q 218 422 218 422 Q 218 422 218 422 Q 218 422 218 422 L 207 411 L 207 411 L 201 405 L 201 405 L 207 399 L 207 399 L 218 388 L 218 388 Q 230 374 224 360 Q 218 345 200 344 L 184 344 L 176 344 L 176 336 L 176 336 L 176 320 L 176 320 L 176 304 L 176 304 L 176 296 L 176 296 L 184 296 L 200 296 Q 218 295 224 280 Q 230 265 218 252 L 207 241 L 207 241 L 201 235 L 201 235 L 207 229 L 207 229 L 218 218 L 218 218 L 224 224 L 224 224 L 218 218 L 218 218 Q 218 218 218 218 Q 218 218 218 218 Q 218 218 218 218 Q 218 218 218 218 Q 218 218 218 218 Q 218 218 218 218 Q 218 218 218 218 Q 218 218 218 218 Q 218 218 218 218 Q 218 218 218 218 Q 218 218 218 218 Q 218 218 218 218 Q 218 218 218 218 Q 218 218 218 218 Q 218 218 218 218 Q 218 218 218 218 Q 218 218 218 218 Q 218 218 218 218 Q 218 218 218 218 Q 218 218 218 218 Q 218 218 218 218 Q 218 218 218 218 Q 218 218 218 218 Q 218 218 218 218 Q 218 218 218 218 Q 218 218 218 218 Q 218 218 218 218 Q 218 218 218 218 Q 218 218 218 218 Q 218 218 218 218 Q 218 218 218 218 Q 218 218 218 218 Q 218 218 218 218 Q 218 218 218 218 Q 218 218 218 218 Q 218 218 218 218 Q 218 218 218 218 Q 218 218 218 218 Q 218 218 218 218 Q 218 218 218 218 Q 218 218 218 218 Q 218 218 218 218 Q 218 218 218 218 Q 218 218 218 218 Q 218 218 218 218 Q 218 218 218 218 Q 218 218 218 218 Q 218 218 218 218 Q 218 218 218 218 Q 218 218 218 218 Q 218 218 218 218 Q 218 218 218 218 Q 218 218 218 218 Q 218 218 218 218 Q 218 218 218 218 Q 218 218 218 218 Q 218 218 218 218 Q 218 218 218 218 Q 218 218 218 218 Q 218 218 218 218 Q 218 218 218 218 Q 218 218 218 218 Q 218 218 218 218 Q 218 218 218 218 Q 218 218 218 218 Q 218 218 218 218 Q 218 218 218 218 Q 218 218 218 218 Q 218 218 218 218 Q 218 218 218 218 Q 218 218 218 218 Q 218 218 218 218 Q 218 218 218 218 Q 218 218 218 218 Q 218 218 218 218 Q 218 218 218 218 Q 218 218 218 218 Q 218 218 218 218 Q 218 218 218 218 Q 218 218 218 218 Q 218 218 218 218 Q 218 218 218 218 Q 218 218 218 218 Q 218 218 218 218 Q 218 218 218 218 Q 218 218 218 218 Q 218 218 218 218 Q 218 218 218 218 Q 218 218 218 218 Q 218 218 218 218 Q 218 218 218 218 Q 218 218 218 218 L 229 207 L 229 207 L 235 201 L 235 201 L 241 207 L 241 207 L 252 218 L 252 218 Q 265 230 280 224 Q 295 217 296 200 L 296 184 L 296 184 L 296 176 L 296 176 L 304 176 L 304 176 Z M 312 200 Q 310 229 286 239 L 286 239 L 286 239 Q 263 248 241 230 L 235 224 L 235 224 L 229 230 L 229 230 Q 229 230 229 230 Q 229 230 229 230 Q 229 230 229 230 Q 229 230 229 230 Q 229 230 229 230 Q 229 230 229 230 Q 229 230 229 230 Q 229 230 229 230 Q 229 230 229 230 Q 229 230 229 230 Q 229 230 229 230 Q 229 230 229 230 Q 229 230 229 230 Q 229 230 229 230 Q 229 230 229 230 Q 229 230 229 230 Q 229 230 229 230 Q 229 230 229 230 Q 229 230 229 230 Q 229 230 229 230 Q 229 230 229 230 Q 229 230 229 230 Q 229 230 229 230 Q 229 230 229 230 Q 229 230 229 230 Q 229 230 229 230 Q 229 230 229 230 Q 229 230 229 230 Q 229 230 229 230 Q 229 230 229 230 Q 229 230 229 230 Q 229 230 229 230 Q 229 230 229 230 Q 229 230 229 230 Q 229 230 229 230 Q 229 230 229 230 Q 229 230 229 230 Q 229 230 229 230 Q 229 230 229 230 Q 229 230 229 230 Q 229 230 229 230 Q 229 230 229 230 Q 229 230 229 230 Q 229 230 229 230 Q 229 230 229 230 Q 229 230 229 230 Q 229 230 229 230 Q 229 230 229 230 Q 229 230 229 230 Q 229 230 229 230 Q 229 230 229 230 Q 229 230 229 230 Q 229 230 229 230 Q 229 230 229 230 Q 229 230 229 230 Q 229 230 229 230 Q 229 230 229 230 Q 229 230 229 230 Q 229 230 229 230 Q 229 230 229 230 Q 229 230 229 230 Q 229 230 229 230 Q 229 230 229 230 Q 229 230 229 230 Q 229 230 229 230 Q 229 230 229 230 Q 229 230 229 230 Q 229 230 229 230 Q 229 230 229 230 Q 229 230 229 230 Q 229 230 229 230 Q 229 230 229 230 Q 229 230 229 230 Q 229 230 229 230 Q 229 230 229 230 Q 229 230 229 230 Q 229 230 229 230 Q 229 230 229 230 Q 229 230 229 230 Q 229 230 229 230 Q 229 230 229 230 Q 229 230 229 230 Q 229 230 229 230 Q 229 230 229 230 Q 229 230 229 230 Q 229 230 229 230 Q 229 230 229 230 Q 229 230 229 230 Q 229 230 229 230 Q 229 230 229 230 Q 229 230 229 230 Q 229 230 229 230 Q 229 230 229 230 Q 229 230 229 230 Q 229 230 229 230 Q 229 230 229 230 Q 229 230 229 230 Q 229 230 229 230 Q 229 230 229 230 Q 229 230 229 230 Q 229 230 229 230 Q 229 230 229 230 L 224 235 L 224 235 L 229 241 L 229 241 Q 248 263 238 286 Q 229 310 200 312 L 192 312 L 192 312 L 192 320 L 192 320 L 192 328 L 192 328 L 200 328 L 200 328 Q 229 330 238 354 Q 248 378 229 399 L 224 405 L 224 405 L 229 411 L 229 411 Q 229 411 229 411 Q 229 411 229 411 Q 229 411 229 411 Q 229 411 229 411 Q 229 411 229 411 Q 229 411 229 411 Q 229 411 229 411 Q 229 411 229 411 L 235 416 L 235 416 L 241 411 L 241 411 Q 262 392 286 401 Q 310 411 312 440 L 312 448 L 312 448 L 320 448 L 328 448 L 328 440 L 328 440 Q 330 411 354 401 Q 377 392 399 411 L 405 416 L 405 416 L 410 411 L 410 411 L 416 405 L 416 405 L 410 399 L 410 399 Q 392 377 401 354 Q 411 330 440 328 L 448 328 L 448 328 L 448 320 L 448 320 L 448 312 L 448 312 L 440 312 L 440 312 Q 411 310 401 286 Q 392 263 411 241 L 416 235 L 416 235 L 411 229 L 411 229 L 405 224 L 405 224 L 399 229 L 399 229 Q 377 248 354 239 Q 330 229 328 200 L 328 192 L 328 192 L 320 192 L 312 192 L 312 200 L 312 200 Z M 288 272 Q 303 273 304 288 Q 303 303 288 304 Q 273 303 272 288 Q 273 273 288 272 L 288 272 Z M 336 352 Q 337 337 352 336 Q 367 337 368 352 Q 367 367 352 368 Q 337 367 336 352 L 336 352 Z" />
</svg>