<svg xmlns="http://www.w3.org/2000/svg" viewBox="0 0 576 448">
  <path d="M 416 0 L 416 16 L 416 0 L 416 16 L 576 16 L 576 16 L 576 0 L 576 0 L 416 0 L 416 0 Z M 576 48 L 416 48 L 576 48 L 416 48 L 416 64 L 416 64 L 576 64 L 576 64 L 576 48 L 576 48 Z M 576 96 L 416 96 L 576 96 L 416 96 L 416 112 L 416 112 L 576 112 L 576 112 L 576 96 L 576 96 Z M 576 160 L 416 160 L 576 160 L 416 160 L 416 176 L 416 176 L 576 176 L 576 176 L 576 160 L 576 160 Z M 416 240 L 416 256 L 416 240 L 416 256 L 576 256 L 576 256 L 576 240 L 576 240 L 416 240 L 416 240 Z M 576 288 L 416 288 L 576 288 L 416 288 L 416 304 L 416 304 L 576 304 L 576 304 L 576 288 L 576 288 Z M 416 344 L 416 360 L 416 344 L 416 360 L 576 360 L 576 360 L 576 344 L 576 344 L 416 344 L 416 344 Z M 576 432 L 416 432 L 576 432 L 416 432 L 416 448 L 416 448 L 576 448 L 576 448 L 576 432 L 576 432 Z M 22 362 L 98 224 L 22 362 L 98 224 L 112 224 L 245 224 L 130 426 L 130 426 L 22 362 L 22 362 Z M 82 220 L 0 368 L 82 220 L 0 368 L 122 440 L 122 440 L 136 448 L 136 448 L 144 434 L 144 434 L 263 224 L 263 224 L 336 224 L 352 224 L 352 208 L 352 208 L 352 16 L 352 16 L 352 0 L 352 0 L 336 0 L 112 0 Q 64 1 33 33 Q 1 64 0 112 Q 1 151 23 180 Q 46 209 82 220 L 82 220 Z M 112 208 Q 71 207 44 180 L 44 180 L 44 180 Q 17 153 16 112 Q 17 71 44 44 Q 71 17 112 16 L 336 16 L 336 16 L 336 208 L 336 208 L 272 208 L 112 208 Z" />
</svg>