<svg xmlns="http://www.w3.org/2000/svg" viewBox="0 0 451 512">
  <path d="M 119 224 Q 55 254 28 320 L 356 320 L 356 320 Q 329 254 265 224 L 256 220 L 256 220 L 256 209 L 256 209 L 256 16 L 256 16 L 128 16 L 128 16 L 128 209 L 128 209 L 128 220 L 128 220 L 119 224 L 119 224 Z M 272 16 L 272 209 L 272 16 L 272 209 Q 310 227 338 259 L 338 258 L 338 258 L 397 200 L 397 200 L 370 174 L 370 174 L 365 168 L 365 168 L 376 157 L 376 157 L 382 162 L 382 162 L 414 194 L 414 194 L 446 226 L 446 226 L 451 232 L 451 232 L 440 243 L 440 243 L 434 238 L 434 238 L 408 211 L 408 211 L 350 270 L 350 270 L 348 272 L 348 272 Q 383 320 384 384 Q 382 459 335 512 L 49 512 L 49 512 Q 2 459 0 384 Q 1 325 31 279 Q 62 233 112 209 L 112 16 L 112 16 L 88 16 L 80 16 L 80 0 L 80 0 L 88 0 L 304 0 L 304 16 L 304 16 L 296 16 L 272 16 Z M 360 336 L 24 336 L 360 336 L 24 336 Q 23 336 23 336 Q 16 359 16 384 Q 17 449 56 496 L 328 496 L 328 496 Q 367 449 368 384 Q 368 359 361 336 Q 361 336 360 336 L 360 336 Z" />
</svg>