<svg xmlns="http://www.w3.org/2000/svg" viewBox="0 0 322 512">
  <path d="M 295 296 L 279 296 L 295 296 L 279 296 L 304 458 L 304 458 Q 304 458 304 458 Q 303 458 302 459 Q 294 465 276 474 Q 241 493 161 496 Q 81 493 46 474 Q 28 465 20 459 Q 19 458 19 458 Q 18 458 18 458 L 43 296 L 43 296 L 27 296 L 27 296 L 1 464 L 1 464 Q 0 467 39 488 Q 78 509 161 512 Q 245 509 283 488 Q 322 467 321 464 L 295 296 L 295 296 Z M 321 48 Q 322 45 283 24 L 283 24 L 283 24 Q 245 3 161 0 Q 78 3 39 24 Q 0 45 1 48 L 27 216 L 27 216 L 43 216 L 43 216 L 18 55 L 18 55 Q 18 54 18 54 Q 19 54 20 54 Q 28 47 46 39 Q 81 19 161 16 Q 241 19 276 39 Q 294 47 302 54 Q 303 54 303 54 Q 304 54 304 55 L 279 216 L 279 216 L 295 216 L 295 216 L 321 48 L 321 48 Z M 9 248 L 9 264 L 9 248 L 9 264 L 17 264 L 145 264 L 99 323 L 99 323 L 94 329 L 94 329 L 106 339 L 106 339 L 111 333 L 111 333 L 161 269 L 161 269 L 211 333 L 211 333 L 216 339 L 216 339 L 228 329 L 228 329 L 223 323 L 223 323 L 177 264 L 177 264 L 305 264 L 313 264 L 313 248 L 313 248 L 305 248 L 9 248 Z M 169 64 L 153 64 L 169 64 L 153 64 L 153 72 L 153 72 L 153 216 L 153 216 L 161 216 L 169 216 L 169 72 L 169 72 L 169 64 L 169 64 Z M 161 323 L 153 333 L 161 323 L 153 333 L 153 440 L 153 440 L 153 448 L 153 448 L 169 448 L 169 448 L 169 440 L 169 440 L 169 333 L 169 333 L 161 323 L 161 323 Z M 89 79 L 88 71 L 89 79 L 88 71 L 72 73 L 72 73 L 73 81 L 73 81 L 85 216 L 85 216 L 101 216 L 101 216 L 89 79 L 89 79 Z M 96 357 L 81 346 L 96 357 L 81 346 L 73 431 L 73 431 L 72 439 L 72 439 L 88 441 L 88 441 L 89 433 L 89 433 L 96 357 L 96 357 Z M 241 346 L 226 357 L 241 346 L 226 357 L 233 433 L 233 433 L 234 441 L 234 441 L 250 439 L 250 439 L 249 431 L 249 431 L 241 346 L 241 346 Z M 221 216 L 237 216 L 221 216 L 237 216 L 249 81 L 249 81 L 250 73 L 250 73 L 234 71 L 234 71 L 233 79 L 233 79 L 221 216 L 221 216 Z" />
</svg>