<svg xmlns="http://www.w3.org/2000/svg" viewBox="0 0 484 512">
  <path d="M 236 19 L 242 17 L 236 19 L 242 17 L 248 19 L 248 19 L 455 100 L 455 100 L 465 104 L 465 104 L 466 114 L 466 114 Q 468 151 460 202 Q 453 253 430 308 Q 406 363 362 412 Q 318 460 248 492 L 242 495 L 242 495 L 236 492 L 236 492 Q 166 460 122 412 Q 78 363 55 308 Q 31 253 24 202 Q 16 151 19 114 L 19 104 L 19 104 L 29 100 L 29 100 L 236 19 L 236 19 Z M 482 113 L 480 93 L 482 113 L 480 93 L 461 85 L 461 85 L 254 5 L 254 5 L 242 0 L 242 0 L 230 5 L 230 5 L 23 85 L 23 85 L 4 93 L 4 93 L 3 113 L 3 113 Q 0 151 8 204 Q 16 257 40 314 Q 64 371 110 422 Q 156 474 229 507 L 242 512 L 242 512 L 255 507 L 255 507 Q 328 474 374 422 Q 420 371 444 314 Q 468 257 476 204 Q 484 151 481 113 L 482 113 Z M 226 96 L 218 96 L 226 96 L 218 96 L 218 104 L 218 104 L 218 120 L 218 120 Q 217 138 202 144 Q 187 150 174 138 L 163 127 L 163 127 L 157 121 L 157 121 L 151 127 L 151 127 L 140 138 L 140 138 Q 140 138 140 138 Q 140 138 140 138 Q 140 138 140 138 Q 140 138 140 138 Q 140 138 140 138 Q 140 138 140 138 Q 140 138 140 138 Q 140 138 140 138 Q 140 138 140 138 Q 140 138 140 138 Q 140 138 140 138 Q 140 138 140 138 Q 140 138 140 138 Q 140 138 140 138 Q 140 138 140 138 Q 140 138 140 138 Q 140 138 140 138 Q 140 138 140 138 Q 140 138 140 138 Q 140 138 140 138 Q 140 138 140 138 Q 140 138 140 138 Q 140 138 140 138 Q 140 138 140 138 Q 140 138 140 138 Q 140 138 140 138 Q 140 138 140 138 Q 140 138 140 138 Q 140 138 140 138 Q 140 138 140 138 Q 140 138 140 138 Q 140 138 140 138 Q 140 138 140 138 Q 140 138 140 138 Q 140 138 140 138 Q 140 138 140 138 Q 140 138 140 138 Q 140 138 140 138 Q 140 138 140 138 Q 140 138 140 138 Q 140 138 140 138 Q 140 138 140 138 Q 140 138 140 138 Q 140 138 140 138 Q 140 138 140 138 Q 140 138 140 138 Q 140 138 140 138 Q 140 138 140 138 Q 140 138 140 138 Q 140 138 140 138 Q 140 138 140 138 Q 140 138 140 138 Q 140 138 140 138 Q 140 138 140 138 Q 140 138 140 138 Q 140 138 140 138 Q 140 138 140 138 Q 140 138 140 138 Q 140 138 140 138 Q 140 138 140 138 Q 140 138 140 138 Q 140 138 140 138 Q 140 138 140 138 Q 140 138 140 138 Q 140 138 140 138 Q 140 138 140 138 Q 140 138 140 138 Q 140 138 140 138 Q 140 138 140 138 Q 140 138 140 138 Q 140 138 140 138 Q 140 138 140 138 Q 140 138 140 138 Q 140 138 140 138 Q 140 138 140 138 Q 140 138 140 138 Q 140 138 140 138 Q 140 138 140 138 Q 140 138 140 138 Q 140 138 140 138 Q 140 138 140 138 Q 140 138 140 138 Q 140 138 140 138 Q 140 138 140 138 Q 140 138 140 138 Q 140 138 140 138 Q 140 138 140 138 Q 140 138 140 138 Q 140 138 140 138 Q 140 138 140 138 Q 140 138 140 138 Q 140 138 140 138 Q 140 138 140 138 Q 140 138 140 138 Q 140 138 140 138 Q 140 138 140 138 Q 140 138 140 138 Q 140 138 140 138 Q 140 138 140 138 Q 140 138 140 138 Q 140 138 140 138 Q 140 138 140 138 L 129 150 L 129 150 L 123 155 L 123 155 L 129 161 L 129 161 L 140 172 L 140 172 Q 152 186 146 200 Q 140 215 122 216 L 106 216 L 98 216 L 98 224 L 98 224 L 98 240 L 98 240 L 98 256 L 98 256 L 98 264 L 98 264 L 106 264 L 122 264 Q 140 265 146 280 Q 152 295 140 308 L 129 319 L 129 319 L 123 325 L 123 325 L 129 331 L 129 331 L 140 342 L 140 342 Q 140 342 140 342 Q 140 342 140 342 Q 140 342 140 342 Q 140 342 140 342 Q 140 342 140 342 Q 140 342 140 342 Q 140 342 140 342 Q 140 342 140 342 L 151 353 L 151 353 L 157 359 L 157 359 L 163 353 L 163 353 L 174 342 L 174 342 Q 187 330 202 336 Q 217 343 218 360 L 218 376 L 218 376 L 218 384 L 218 384 L 226 384 L 266 384 L 266 376 L 266 376 L 266 360 L 266 360 Q 267 343 282 336 Q 297 330 310 342 L 321 353 L 321 353 L 327 359 L 327 359 L 333 353 L 333 353 L 344 342 L 344 342 L 355 331 L 355 331 L 361 325 L 361 325 L 355 319 L 355 319 L 344 308 L 344 308 Q 332 295 338 280 Q 344 265 362 264 L 378 264 L 386 264 L 386 256 L 386 256 L 386 240 L 386 240 L 386 224 L 386 224 L 386 216 L 386 216 L 378 216 L 362 216 Q 344 215 338 200 Q 332 185 344 172 L 355 161 L 355 161 L 361 155 L 361 155 L 355 149 L 355 149 L 344 138 L 344 138 L 333 127 L 333 127 L 327 121 L 327 121 L 321 127 L 321 127 L 310 138 L 310 138 Q 296 150 282 144 Q 267 138 266 120 L 266 104 L 266 104 L 266 96 L 266 96 L 258 96 L 226 96 Z M 234 120 L 234 112 L 234 120 L 234 112 L 242 112 L 250 112 L 250 120 L 250 120 Q 252 149 276 159 Q 299 168 321 150 L 327 144 L 327 144 L 333 150 L 333 150 L 338 155 L 338 155 L 333 161 L 333 161 Q 314 183 323 206 Q 333 230 362 232 L 370 232 L 370 232 L 370 240 L 370 240 L 370 248 L 370 248 L 362 248 L 362 248 Q 333 250 323 274 Q 314 297 333 319 L 338 325 L 338 325 L 333 331 L 333 331 L 327 336 L 327 336 L 321 331 L 321 331 Q 299 312 276 321 Q 252 331 250 360 L 250 368 L 250 368 L 242 368 L 234 368 L 234 360 L 234 360 Q 232 331 208 321 Q 185 312 163 331 L 157 336 L 157 336 L 152 331 L 152 331 Q 152 331 152 331 Q 152 331 152 331 Q 152 331 152 331 Q 152 331 152 331 Q 152 331 152 331 Q 152 331 152 331 Q 152 331 152 331 Q 152 331 152 331 L 146 325 L 146 325 L 152 319 L 152 319 Q 171 298 161 274 Q 151 250 122 248 L 114 248 L 114 248 L 114 240 L 114 240 L 114 232 L 114 232 L 122 232 L 122 232 Q 151 230 161 206 Q 171 183 152 161 L 146 155 L 146 155 L 152 150 L 152 150 Q 152 150 152 150 Q 152 150 152 150 Q 152 150 152 150 Q 152 150 152 150 Q 152 150 152 150 Q 152 150 152 150 Q 152 150 152 150 Q 152 150 152 150 Q 152 150 152 150 Q 152 150 152 150 Q 152 150 152 150 Q 152 150 152 150 Q 152 150 152 150 Q 152 150 152 150 Q 152 150 152 150 Q 152 150 152 150 Q 152 150 152 150 Q 152 150 152 150 Q 152 150 152 150 Q 152 150 152 150 Q 152 150 152 150 Q 152 150 152 150 Q 152 150 152 150 Q 152 150 152 150 Q 152 150 152 150 Q 152 150 152 150 Q 152 150 152 150 Q 152 150 152 150 Q 152 150 152 150 Q 152 150 152 150 Q 152 150 152 150 Q 152 150 152 150 Q 152 150 152 150 Q 152 150 152 150 Q 152 150 152 150 Q 152 150 152 150 Q 152 150 152 150 Q 152 150 152 150 Q 152 150 152 150 Q 152 150 152 150 Q 152 150 152 150 Q 152 150 152 150 Q 152 150 152 150 Q 152 150 152 150 Q 152 150 152 150 Q 152 150 152 150 Q 152 150 152 150 Q 152 150 152 150 Q 152 150 152 150 Q 152 150 152 150 Q 152 150 152 150 Q 152 150 152 150 Q 152 150 152 150 Q 152 150 152 150 Q 152 150 152 150 Q 152 150 152 150 Q 152 150 152 150 Q 152 150 152 150 Q 152 150 152 150 Q 152 150 152 150 Q 152 150 152 150 Q 152 150 152 150 Q 152 150 152 150 Q 152 150 152 150 Q 152 150 152 150 Q 152 150 152 150 Q 152 150 152 150 Q 152 150 152 150 Q 152 150 152 150 Q 152 150 152 150 Q 152 150 152 150 Q 152 150 152 150 Q 152 150 152 150 Q 152 150 152 150 Q 152 150 152 150 Q 152 150 152 150 Q 152 150 152 150 Q 152 150 152 150 Q 152 150 152 150 Q 152 150 152 150 Q 152 150 152 150 Q 152 150 152 150 Q 152 150 152 150 Q 152 150 152 150 Q 152 150 152 150 Q 152 150 152 150 Q 152 150 152 150 Q 152 150 152 150 Q 152 150 152 150 Q 152 150 152 150 Q 152 150 152 150 Q 152 150 152 150 Q 152 150 152 150 Q 152 150 152 150 L 157 144 L 157 144 L 163 150 L 163 150 Q 185 168 208 159 Q 232 149 234 120 L 234 120 Z M 210 224 Q 225 223 226 208 Q 225 193 210 192 Q 195 193 194 208 Q 195 223 210 224 L 210 224 Z M 290 272 Q 289 257 274 256 Q 259 257 258 272 Q 259 287 274 288 Q 289 287 290 272 L 290 272 Z" />
</svg>