<svg xmlns="http://www.w3.org/2000/svg" viewBox="0 0 512 508">
  <path d="M 256 16 Q 189 16 135 48 L 135 48 L 135 48 Q 81 80 49 134 L 49 134 L 49 134 Q 17 189 16 256 L 16 264 L 16 264 L 0 264 L 0 264 L 0 256 L 0 256 Q 1 184 35 126 Q 69 69 127 35 Q 184 0 256 0 Q 328 0 385 35 Q 443 69 477 126 Q 511 184 512 256 L 512 264 L 512 264 L 496 264 L 496 264 L 496 256 L 496 256 Q 495 189 463 134 Q 431 80 377 48 Q 323 16 256 16 L 256 16 Z M 122 349 L 117 343 L 122 349 L 117 343 L 129 332 L 129 332 L 134 338 L 134 338 L 248 474 L 248 474 L 248 168 L 248 168 L 248 160 L 248 160 L 264 160 L 264 160 L 264 168 L 264 168 L 264 474 L 264 474 L 378 338 L 378 338 L 383 332 L 383 332 L 395 343 L 395 343 L 390 349 L 390 349 L 262 501 L 262 501 L 256 508 L 256 508 L 250 501 L 250 501 L 122 349 L 122 349 Z" />
</svg>