<svg xmlns="http://www.w3.org/2000/svg" viewBox="0 0 384 454">
  <path d="M 320 306 L 332 390 L 320 306 L 332 390 L 352 390 L 384 390 L 384 406 L 384 406 L 384 438 L 384 438 L 384 454 L 384 454 L 368 454 L 276 454 L 272 427 L 272 427 L 260 342 L 260 342 L 160 342 L 160 342 Q 133 341 115 323 Q 97 305 96 278 L 96 166 L 96 166 L 96 150 L 96 150 L 96 134 L 96 134 L 112 134 L 192 134 L 192 150 L 192 150 L 192 166 L 192 166 L 208 166 L 288 166 L 288 182 L 288 182 L 288 214 L 288 214 L 288 230 L 288 230 L 272 230 L 192 230 L 192 246 L 192 246 L 192 262 L 192 262 L 192 278 L 192 278 L 208 278 L 316 278 L 320 306 L 320 306 Z M 352 406 L 332 406 L 352 406 L 318 406 L 316 392 L 316 392 L 304 308 L 304 308 L 302 294 L 302 294 L 288 294 L 176 294 L 176 278 L 176 278 L 176 230 L 176 230 L 176 214 L 176 214 L 192 214 L 272 214 L 272 182 L 272 182 L 256 182 L 176 182 L 176 166 L 176 166 L 176 150 L 176 150 L 160 150 L 112 150 L 112 166 L 112 166 L 112 278 L 112 278 Q 113 298 126 312 Q 140 325 160 326 L 260 326 L 274 326 L 276 340 L 276 340 L 288 424 L 288 424 L 290 438 L 290 438 L 304 438 L 368 438 L 368 406 L 368 406 L 352 406 L 352 406 Z M 176 54 Q 176 40 167 31 L 167 31 L 167 31 Q 158 22 144 22 Q 130 22 121 31 Q 112 40 112 54 Q 112 68 121 77 Q 130 86 144 86 Q 158 86 167 77 Q 176 68 176 54 L 176 54 Z M 96 54 Q 97 27 120 12 Q 144 0 168 12 Q 191 27 192 54 Q 191 81 168 96 Q 144 108 120 96 Q 97 81 96 54 L 96 54 Z M 16 110 L 16 390 L 16 110 L 16 390 L 216 390 L 224 390 L 224 406 L 224 406 L 216 406 L 0 406 L 0 398 L 0 398 L 0 110 L 0 110 L 0 102 L 0 102 L 16 102 L 16 102 L 16 110 L 16 110 Z" />
</svg>