<svg xmlns="http://www.w3.org/2000/svg" viewBox="0 0 512 512">
  <path d="M 413 0 L 419 6 L 413 0 L 419 6 L 507 94 L 507 94 L 512 99 L 512 99 L 507 105 L 507 105 L 472 140 L 472 140 Q 451 160 422 160 Q 397 160 378 145 L 222 302 L 222 302 L 293 373 L 293 373 L 304 384 L 304 384 L 293 395 L 293 395 L 176 512 L 176 512 L 16 512 L 0 512 L 0 496 L 0 496 L 0 336 L 0 336 L 117 219 L 117 219 L 128 208 L 128 208 L 139 219 L 139 219 L 210 290 L 210 290 L 367 134 L 367 134 Q 352 115 352 90 Q 352 61 373 40 L 407 6 L 407 6 L 413 0 L 413 0 Z M 413 23 L 384 51 L 413 23 L 384 51 Q 368 67 368 90 Q 369 113 384 128 Q 399 143 422 144 Q 445 144 461 128 L 489 99 L 489 99 L 413 23 L 413 23 Z M 16 343 L 16 496 L 16 343 L 16 496 L 169 496 L 169 496 L 281 384 L 281 384 L 128 231 L 128 231 L 16 343 L 16 343 Z" />
</svg>