<svg xmlns="http://www.w3.org/2000/svg" viewBox="0 0 416 502">
  <path d="M 208 0 L 214 5 L 208 0 L 214 5 L 302 93 L 302 93 L 307 99 L 307 99 L 296 110 L 296 110 L 290 105 L 290 105 L 216 30 L 216 30 L 216 179 L 216 179 L 216 187 L 216 187 L 200 187 L 200 187 L 200 179 L 200 179 L 200 30 L 200 30 L 126 105 L 126 105 L 120 110 L 120 110 L 109 99 L 109 99 L 114 93 L 114 93 L 202 5 L 202 5 L 208 0 L 208 0 Z M 32 235 L 32 267 L 32 235 L 32 267 L 0 267 L 0 267 L 0 235 L 0 235 L 32 235 L 32 235 Z M 96 235 L 128 235 L 96 235 L 128 235 L 128 267 L 128 267 L 96 267 L 96 267 L 96 235 L 96 235 Z M 224 235 L 224 267 L 224 235 L 224 267 L 192 267 L 192 267 L 192 235 L 192 235 L 224 235 L 224 235 Z M 288 235 L 320 235 L 288 235 L 320 235 L 320 267 L 320 267 L 288 267 L 288 267 L 288 235 L 288 235 Z M 416 235 L 416 267 L 416 235 L 416 267 L 384 267 L 384 267 L 384 235 L 384 235 L 416 235 L 416 235 Z M 214 497 L 208 502 L 214 497 L 208 502 L 202 497 L 202 497 L 114 409 L 114 409 L 109 403 L 109 403 L 120 392 L 120 392 L 126 397 L 126 397 L 200 472 L 200 472 L 200 323 L 200 323 L 200 315 L 200 315 L 216 315 L 216 315 L 216 323 L 216 323 L 216 472 L 216 472 L 290 397 L 290 397 L 296 392 L 296 392 L 307 403 L 307 403 L 302 409 L 302 409 L 214 497 L 214 497 Z" />
</svg>