<svg xmlns="http://www.w3.org/2000/svg" viewBox="0 0 446 446">
  <path d="M 316 141 L 407 231 L 316 141 L 407 231 L 418 243 L 418 243 L 429 254 L 429 254 L 418 265 L 418 265 L 407 277 L 407 277 L 247 437 L 247 437 L 237 446 L 237 446 L 224 446 L 0 446 L 0 430 L 0 430 L 0 414 L 0 414 L 0 222 L 0 222 L 0 209 L 0 209 L 9 199 L 9 199 L 169 39 L 169 39 L 181 28 L 181 28 L 192 17 L 192 17 L 203 28 L 203 28 L 215 39 L 215 39 L 305 130 L 305 130 L 434 0 L 434 0 L 446 12 L 446 12 L 316 141 L 316 141 Z M 16 215 L 16 222 L 16 215 L 16 222 L 16 414 L 16 414 L 16 430 L 16 430 L 32 430 L 231 430 L 235 425 L 235 425 L 318 343 L 318 343 L 103 128 L 103 128 L 21 211 L 21 211 L 16 215 L 16 215 Z M 395 265 L 407 254 L 395 265 L 407 254 L 395 243 L 395 243 L 203 51 L 203 51 L 192 39 L 192 39 L 181 51 L 181 51 L 114 117 L 114 117 L 329 332 L 329 332 L 395 265 L 395 265 Z" />
</svg>