<svg xmlns="http://www.w3.org/2000/svg" viewBox="0 0 512 512">
  <path d="M 256 16 Q 191 17 136 48 L 136 48 L 136 48 Q 81 80 48 136 Q 16 193 16 256 Q 16 319 48 376 Q 81 432 136 464 Q 191 495 256 496 Q 321 495 376 464 Q 431 432 464 376 Q 496 319 496 256 Q 496 193 464 136 Q 431 80 376 48 Q 321 17 256 16 L 256 16 Z M 0 256 Q 1 186 34 128 L 34 128 L 34 128 Q 68 70 128 34 Q 189 0 256 0 Q 323 0 384 34 Q 444 70 478 128 Q 511 186 512 256 Q 511 326 478 384 Q 444 442 384 478 Q 323 512 256 512 Q 189 512 128 478 Q 68 442 34 384 Q 1 326 0 256 L 0 256 Z M 132 120 L 188 177 L 132 120 L 188 177 L 245 120 L 245 120 L 211 86 L 211 86 L 205 81 L 205 81 L 216 69 L 216 69 L 222 75 L 222 75 L 256 109 L 256 109 L 290 75 L 290 75 L 296 69 L 296 69 L 307 81 L 307 81 L 301 86 L 301 86 L 267 120 L 267 120 L 324 177 L 324 177 L 381 120 L 381 120 L 386 115 L 386 115 L 398 126 L 398 126 L 392 132 L 392 132 L 335 188 L 335 188 L 392 245 L 392 245 L 426 211 L 426 211 L 431 205 L 431 205 L 443 216 L 443 216 L 437 222 L 437 222 L 403 256 L 403 256 L 437 290 L 437 290 L 443 296 L 443 296 L 431 307 L 431 307 L 426 301 L 426 301 L 392 267 L 392 267 L 335 324 L 335 324 L 392 381 L 392 381 L 398 386 L 398 386 L 386 398 L 386 398 L 381 392 L 381 392 L 324 335 L 324 335 L 267 392 L 267 392 L 301 426 L 301 426 L 307 431 L 307 431 L 296 443 L 296 443 L 290 437 L 290 437 L 256 403 L 256 403 L 222 437 L 222 437 L 216 443 L 216 443 L 205 431 L 205 431 L 211 426 L 211 426 L 245 392 L 245 392 L 188 335 L 188 335 L 132 392 L 132 392 L 126 398 L 126 398 L 115 386 L 115 386 L 120 381 L 120 381 L 177 324 L 177 324 L 120 267 L 120 267 L 86 301 L 86 301 L 81 307 L 81 307 L 69 296 L 69 296 L 75 290 L 75 290 L 109 256 L 109 256 L 75 222 L 75 222 L 69 216 L 69 216 L 81 205 L 81 205 L 86 211 L 86 211 L 120 245 L 120 245 L 177 188 L 177 188 L 120 132 L 120 132 L 115 126 L 115 126 L 126 115 L 126 115 L 132 120 L 132 120 Z M 132 256 L 188 313 L 132 256 L 188 313 L 245 256 L 245 256 L 188 199 L 188 199 L 132 256 L 132 256 Z M 199 324 L 256 381 L 199 324 L 256 381 L 313 324 L 313 324 L 256 267 L 256 267 L 199 324 L 199 324 Z M 380 256 L 324 199 L 380 256 L 324 199 L 267 256 L 267 256 L 324 313 L 324 313 L 381 256 L 380 256 Z M 256 245 L 313 188 L 256 245 L 313 188 L 256 132 L 256 132 L 199 188 L 199 188 L 256 245 L 256 245 Z" />
</svg>