<svg xmlns="http://www.w3.org/2000/svg" viewBox="0 0 512 448">
  <path d="M 208 16 L 208 192 L 208 16 L 208 192 L 16 192 L 16 192 L 16 16 L 16 16 L 208 16 L 208 16 Z M 16 0 L 0 0 L 16 0 L 0 0 L 0 16 L 0 16 L 0 192 L 0 192 L 0 208 L 0 208 L 16 208 L 224 208 L 224 192 L 224 192 L 224 16 L 224 16 L 224 0 L 224 0 L 208 0 L 16 0 Z M 208 256 L 208 432 L 208 256 L 208 432 L 16 432 L 16 432 L 16 256 L 16 256 L 208 256 L 208 256 Z M 16 240 L 0 240 L 16 240 L 0 240 L 0 256 L 0 256 L 0 432 L 0 432 L 0 448 L 0 448 L 16 448 L 224 448 L 224 432 L 224 432 L 224 256 L 224 256 L 224 240 L 224 240 L 208 240 L 16 240 Z M 272 16 L 496 16 L 272 16 L 496 16 L 496 112 L 496 112 L 272 112 L 272 112 L 272 16 L 272 16 Z M 256 0 L 256 16 L 256 0 L 256 16 L 256 112 L 256 112 L 256 128 L 256 128 L 272 128 L 512 128 L 512 112 L 512 112 L 512 16 L 512 16 L 512 0 L 512 0 L 496 0 L 256 0 Z M 496 176 L 496 272 L 496 176 L 496 272 L 272 272 L 272 272 L 272 176 L 272 176 L 496 176 L 496 176 Z M 272 160 L 256 160 L 272 160 L 256 160 L 256 176 L 256 176 L 256 272 L 256 272 L 256 288 L 256 288 L 272 288 L 512 288 L 512 272 L 512 272 L 512 176 L 512 176 L 512 160 L 512 160 L 496 160 L 272 160 Z M 272 336 L 496 336 L 272 336 L 496 336 L 496 432 L 496 432 L 272 432 L 272 432 L 272 336 L 272 336 Z M 256 320 L 256 336 L 256 320 L 256 336 L 256 432 L 256 432 L 256 448 L 256 448 L 272 448 L 512 448 L 512 432 L 512 432 L 512 336 L 512 336 L 512 320 L 512 320 L 496 320 L 256 320 Z" />
</svg>