<svg xmlns="http://www.w3.org/2000/svg" viewBox="0 0 576 512">
  <path d="M 392 120 Q 392 141 375 174 Q 358 206 335 237 Q 312 268 295 288 Q 293 290 292 291 Q 290 293 288 296 Q 288 295 287 295 Q 285 292 282 288 Q 264 268 241 237 Q 218 206 201 174 Q 185 141 184 120 Q 185 76 215 46 Q 244 17 288 16 Q 332 17 362 46 Q 391 76 392 120 L 392 120 Z M 408 120 Q 407 69 373 35 L 373 35 L 373 35 Q 339 1 288 0 Q 237 1 203 35 Q 169 69 168 120 Q 169 150 190 187 Q 210 224 236 257 Q 261 290 277 308 Q 288 320 288 320 Q 288 320 299 308 Q 315 290 340 257 Q 366 224 386 187 Q 407 150 408 120 L 408 120 Z M 415 201 L 560 151 L 415 201 L 560 151 L 560 437 L 560 437 L 400 492 L 400 492 L 400 288 L 400 288 L 384 288 L 384 288 L 384 493 L 384 493 L 192 434 L 192 434 L 192 288 L 192 288 L 176 288 L 176 288 L 176 434 L 176 434 L 16 490 L 16 490 L 16 203 L 16 203 L 143 159 L 143 159 Q 140 152 139 144 L 0 192 L 0 192 L 0 495 L 0 495 L 0 512 L 0 512 L 16 506 L 16 506 L 184 448 L 184 448 L 392 512 L 392 512 L 576 448 L 576 448 L 576 145 L 576 145 L 576 128 L 576 128 L 560 134 L 560 134 L 425 181 L 425 181 Q 421 188 418 195 Q 416 198 415 201 L 415 201 Z" />
</svg>