<svg xmlns="http://www.w3.org/2000/svg" viewBox="0 0 448 448">
  <path d="M 432 16 L 432 80 L 432 16 L 432 80 L 368 80 L 368 80 L 368 16 L 368 16 L 432 16 L 432 16 Z M 368 0 L 352 0 L 368 0 L 352 0 L 352 16 L 352 16 L 352 40 L 352 40 L 96 40 L 96 40 L 96 16 L 96 16 L 96 0 L 96 0 L 80 0 L 0 0 L 0 16 L 0 16 L 0 80 L 0 80 L 0 96 L 0 96 L 16 96 L 40 96 L 40 352 L 40 352 L 16 352 L 0 352 L 0 368 L 0 368 L 0 432 L 0 432 L 0 448 L 0 448 L 16 448 L 96 448 L 96 432 L 96 432 L 96 408 L 96 408 L 352 408 L 352 408 L 352 432 L 352 432 L 352 448 L 352 448 L 368 448 L 448 448 L 448 432 L 448 432 L 448 368 L 448 368 L 448 352 L 448 352 L 432 352 L 408 352 L 408 96 L 408 96 L 432 96 L 448 96 L 448 80 L 448 80 L 448 16 L 448 16 L 448 0 L 448 0 L 432 0 L 368 0 Z M 56 352 L 56 96 L 56 352 L 56 96 L 80 96 L 96 96 L 96 80 L 96 80 L 96 56 L 96 56 L 352 56 L 352 56 L 352 80 L 352 80 L 352 96 L 352 96 L 368 96 L 392 96 L 392 352 L 392 352 L 368 352 L 352 352 L 352 368 L 352 368 L 352 392 L 352 392 L 96 392 L 96 392 L 96 368 L 96 368 L 96 352 L 96 352 L 80 352 L 56 352 Z M 16 368 L 80 368 L 16 368 L 80 368 L 80 432 L 80 432 L 16 432 L 16 432 L 16 368 L 16 368 Z M 368 368 L 432 368 L 368 368 L 432 368 L 432 432 L 432 432 L 368 432 L 368 432 L 368 368 L 368 368 Z M 16 16 L 80 16 L 16 16 L 80 16 L 80 80 L 80 80 L 16 80 L 16 80 L 16 16 L 16 16 Z" />
</svg>