<svg xmlns="http://www.w3.org/2000/svg" viewBox="0 0 488 521">
  <path d="M 152 73 Q 151 46 128 31 Q 104 19 80 31 Q 57 46 56 73 Q 57 100 80 115 Q 104 127 128 115 Q 151 100 152 73 L 152 73 Z M 40 73 Q 41 37 72 18 Q 104 0 136 18 Q 167 37 168 73 Q 167 109 136 128 Q 104 146 72 128 Q 41 109 40 73 L 40 73 Z M 17 345 L 40 345 L 17 345 L 136 345 L 136 361 L 136 361 L 128 361 L 128 361 L 128 505 L 128 505 L 152 505 L 152 505 L 152 521 L 152 521 L 120 521 L 112 521 L 112 513 L 112 513 L 112 361 L 112 361 L 96 361 L 96 361 L 96 513 L 96 513 L 96 521 L 96 521 L 88 521 L 32 521 L 32 513 L 32 513 L 32 361 L 32 361 L 16 361 L 0 361 L 1 345 L 1 345 L 8 169 L 8 169 L 147 169 L 147 169 Q 145 177 144 185 L 23 185 L 23 185 L 17 345 L 17 345 Z M 352 521 L 344 521 L 352 521 L 312 521 L 312 505 L 312 505 L 336 505 L 336 505 L 336 393 L 336 393 L 328 393 L 328 393 L 328 377 L 328 377 L 344 377 L 467 377 L 412 185 L 412 185 L 320 185 L 320 185 Q 319 177 317 169 L 424 169 L 424 169 L 483 377 L 483 377 L 488 393 L 488 393 L 471 393 L 432 393 L 432 513 L 432 513 L 432 521 L 432 521 L 424 521 L 368 521 L 368 513 L 368 513 L 368 393 L 368 393 L 352 393 L 352 393 L 352 513 L 352 513 L 352 521 L 352 521 Z M 48 361 L 48 505 L 48 361 L 48 505 L 80 505 L 80 505 L 80 361 L 80 361 L 48 361 L 48 361 Z M 408 73 Q 407 46 384 31 Q 360 19 336 31 Q 313 46 312 73 Q 313 100 336 115 Q 360 127 384 115 Q 407 100 408 73 L 408 73 Z M 296 73 Q 297 37 328 18 Q 360 0 392 18 Q 423 37 424 73 Q 423 109 392 128 Q 360 146 328 128 Q 297 109 296 73 L 296 73 Z M 416 393 L 384 393 L 416 393 L 384 393 L 384 505 L 384 505 L 416 505 L 416 505 L 416 393 L 416 393 Z M 232 233 Q 255 232 267 213 Q 277 193 267 173 Q 255 154 232 153 Q 209 154 197 173 Q 187 193 197 213 Q 209 232 232 233 L 232 233 Z M 232 137 Q 264 138 280 165 Q 296 193 280 221 Q 264 248 232 249 Q 200 248 184 221 Q 168 193 184 165 Q 200 138 232 137 L 232 137 Z M 184 425 L 168 425 L 184 425 L 152 425 L 152 409 L 152 409 L 152 281 L 152 281 L 152 265 L 152 265 L 168 265 L 312 265 L 312 281 L 312 281 L 312 409 L 312 409 L 312 425 L 312 425 L 296 425 L 280 425 L 280 513 L 280 513 L 280 521 L 280 521 L 264 521 L 264 521 L 264 513 L 264 513 L 264 425 L 264 425 L 200 425 L 200 425 L 200 513 L 200 513 L 200 521 L 200 521 L 184 521 L 184 521 L 184 513 L 184 513 L 184 425 L 184 425 Z M 296 281 L 168 281 L 296 281 L 168 281 L 168 409 L 168 409 L 184 409 L 296 409 L 296 281 L 296 281 Z" />
</svg>