<svg xmlns="http://www.w3.org/2000/svg" viewBox="0 0 512 512">
  <path d="M 16 224 Q 18 136 77 77 L 77 77 L 77 77 Q 136 18 224 16 L 248 16 L 248 16 Q 321 18 371 67 Q 420 116 424 189 L 424 192 L 424 192 L 427 194 L 427 194 L 496 256 L 496 256 L 496 320 L 496 320 L 440 320 L 432 320 L 432 328 L 432 328 L 432 432 L 432 432 L 312 432 L 304 432 L 304 440 L 304 440 L 304 504 L 304 504 L 304 512 L 304 512 L 320 512 L 320 512 L 320 504 L 320 504 L 320 448 L 320 448 L 440 448 L 448 448 L 448 440 L 448 440 L 448 336 L 448 336 L 504 336 L 512 336 L 512 328 L 512 328 L 512 252 L 512 252 L 512 249 L 512 249 L 509 246 L 509 246 L 440 185 L 440 185 Q 434 107 381 54 Q 327 2 248 0 L 224 0 L 224 0 Q 161 1 111 31 Q 60 60 31 111 Q 1 161 0 224 Q 2 315 64 381 L 64 504 L 64 504 L 64 512 L 64 512 L 80 512 L 80 512 L 80 504 L 80 504 L 80 378 L 80 378 L 80 374 L 80 374 L 78 372 L 78 372 Q 18 310 16 224 L 16 224 Z M 208 64 L 200 64 L 208 64 L 200 64 L 200 72 L 200 72 L 200 88 L 200 88 L 200 91 L 200 91 Q 197 106 184 112 Q 171 117 158 108 L 156 106 L 156 106 L 145 95 L 145 95 L 139 89 L 139 89 L 133 95 L 133 95 L 111 118 L 111 118 L 105 123 L 105 123 L 111 129 L 111 129 L 122 140 L 122 140 L 124 142 L 124 142 Q 133 155 128 168 Q 122 181 107 184 L 104 184 L 80 184 L 80 192 L 80 192 L 80 224 L 80 224 L 80 232 L 80 232 L 88 232 L 107 232 Q 122 235 128 248 Q 133 261 124 274 L 122 276 L 122 276 L 111 287 L 111 287 L 105 293 L 105 293 L 111 299 L 111 299 L 133 321 L 133 321 L 139 327 L 139 327 L 145 321 L 145 321 L 156 310 L 156 310 L 158 308 L 158 308 Q 171 299 184 304 Q 197 310 200 325 L 200 328 L 200 328 L 200 344 L 200 344 L 200 352 L 200 352 L 208 352 L 248 352 L 248 344 L 248 344 L 248 328 L 248 328 L 248 325 L 248 325 Q 250 310 264 304 Q 277 299 290 308 L 292 310 L 292 310 L 303 321 L 303 321 L 309 327 L 309 327 L 314 321 L 314 321 L 337 299 L 337 299 L 343 293 L 343 293 L 337 287 L 337 287 L 326 276 L 326 276 L 324 274 L 324 274 Q 315 261 320 248 Q 326 235 341 232 L 344 232 L 368 232 L 368 224 L 368 224 L 368 192 L 368 192 L 368 184 L 368 184 L 360 184 L 341 184 Q 326 181 320 168 Q 315 155 324 142 L 326 140 L 326 140 L 337 129 L 337 129 L 343 123 L 343 123 L 337 118 L 337 118 L 315 95 L 315 95 L 309 89 L 309 89 L 303 95 L 303 95 L 292 106 L 292 106 L 290 108 L 290 108 Q 277 117 264 112 Q 251 106 248 91 L 248 88 L 248 88 L 248 72 L 248 72 L 248 64 L 248 64 L 240 64 L 208 64 Z M 216 88 L 216 80 L 216 88 L 216 80 L 232 80 L 232 80 L 232 88 L 232 88 L 232 91 L 232 91 L 232 92 L 232 92 L 232 92 L 232 92 Q 236 118 258 127 Q 279 136 300 120 L 301 120 L 301 120 L 301 120 L 301 120 L 303 118 L 303 118 L 309 112 L 309 112 L 320 123 L 320 123 L 314 129 L 314 129 L 312 131 L 312 131 L 312 132 L 312 132 L 312 132 L 312 132 Q 296 153 305 174 Q 314 196 340 200 L 340 200 L 340 200 L 341 200 L 352 200 L 352 216 L 352 216 L 344 216 L 340 216 L 340 216 L 340 216 Q 314 220 305 242 Q 296 263 312 284 L 312 285 L 312 285 L 312 285 L 312 285 L 314 287 L 314 287 L 320 293 L 320 293 L 309 304 L 309 304 L 303 298 L 303 298 L 301 296 L 301 296 L 301 296 L 301 296 L 300 296 L 300 296 Q 279 280 258 289 Q 236 298 232 324 L 232 324 L 232 324 L 232 325 L 232 325 L 232 328 L 232 328 L 232 336 L 232 336 L 216 336 L 216 336 L 216 328 L 216 328 L 216 325 L 216 325 L 216 324 L 216 324 L 216 324 L 216 324 Q 212 298 190 289 Q 169 280 148 296 L 148 296 L 148 296 L 147 296 L 147 296 L 145 298 L 145 298 L 139 304 L 139 304 L 128 293 L 128 293 L 134 287 L 134 287 L 136 285 L 136 285 L 136 285 L 136 285 L 136 284 L 136 284 Q 152 263 143 242 Q 134 220 108 216 L 108 216 L 108 216 L 107 216 L 96 216 L 96 200 L 96 200 L 104 200 L 108 200 L 108 200 L 108 200 Q 134 196 143 174 Q 152 153 136 132 L 136 132 L 136 132 L 136 131 L 136 131 L 134 129 L 134 129 L 128 123 L 128 123 L 139 112 L 139 112 L 145 118 L 145 118 L 147 120 L 147 120 L 148 120 L 148 120 L 148 120 L 148 120 Q 169 136 190 127 Q 212 118 216 92 L 216 92 L 216 92 L 216 91 L 216 91 L 216 88 L 216 88 Z M 192 192 Q 207 191 208 176 Q 207 161 192 160 Q 177 161 176 176 Q 177 191 192 192 L 192 192 Z M 272 240 Q 271 225 256 224 Q 241 225 240 240 Q 241 255 256 256 Q 271 255 272 240 L 272 240 Z" />
</svg>