<svg xmlns="http://www.w3.org/2000/svg" viewBox="0 0 512 508">
  <path d="M 256 492 Q 189 491 135 459 L 135 459 L 135 459 Q 81 427 49 373 L 49 373 L 49 373 Q 17 319 16 252 L 16 244 L 16 244 L 0 244 L 0 244 L 0 252 L 0 252 Q 1 324 35 381 Q 69 439 127 473 Q 184 507 256 508 Q 328 507 385 473 Q 443 439 477 381 Q 511 324 512 252 L 512 244 L 512 244 L 496 244 L 496 244 L 496 252 L 496 252 Q 495 319 463 373 Q 431 427 377 459 Q 323 491 256 492 L 256 492 Z M 122 159 L 117 165 L 122 159 L 117 165 L 129 175 L 129 175 L 134 169 L 134 169 L 248 34 L 248 34 L 248 340 L 248 340 L 248 348 L 248 348 L 264 348 L 264 348 L 264 340 L 264 340 L 264 34 L 264 34 L 378 169 L 378 169 L 383 175 L 383 175 L 395 165 L 395 165 L 390 159 L 390 159 L 262 7 L 262 7 L 256 0 L 256 0 L 250 7 L 250 7 L 122 159 L 122 159 Z" />
</svg>