<svg xmlns="http://www.w3.org/2000/svg" viewBox="0 0 640 384">
  <path d="M 168 173 L 162 178 L 168 173 L 162 178 Q 160 176 160 173 Q 158 151 162 131 Q 129 140 103 151 Q 61 169 38 193 Q 16 216 16 240 Q 16 264 38 287 Q 61 311 103 329 Q 144 347 200 357 Q 256 368 320 368 Q 384 368 440 357 Q 496 347 537 329 Q 579 311 602 287 Q 624 264 624 240 Q 624 216 602 193 Q 579 169 537 151 Q 511 139 478 131 Q 482 151 480 173 Q 480 176 478 178 L 472 173 L 472 173 Q 479 179 478 178 Q 478 178 478 178 Q 478 178 478 178 Q 478 178 478 178 Q 478 178 478 178 Q 478 178 478 178 L 477 178 L 477 178 L 477 179 L 477 179 Q 477 179 476 180 Q 476 180 475 181 Q 473 183 468 186 Q 460 193 441 202 Q 404 221 320 224 Q 236 221 199 202 Q 181 193 172 186 Q 167 183 165 181 Q 164 180 164 180 Q 163 179 163 179 L 162 178 L 162 178 L 162 178 L 162 178 Q 162 178 162 178 Q 162 178 162 178 Q 162 178 162 178 Q 162 178 162 178 Q 162 178 162 178 L 168 173 L 168 173 Z M 474 114 Q 513 123 544 137 Q 588 155 613 182 Q 639 208 640 240 Q 639 272 613 299 Q 588 325 544 344 Q 500 363 443 373 Q 386 384 320 384 Q 254 384 197 373 Q 140 363 96 344 Q 52 325 27 299 Q 1 272 0 240 Q 1 208 27 182 Q 52 155 96 137 Q 127 123 166 114 Q 182 62 224 32 Q 266 1 320 0 Q 374 1 416 32 Q 458 62 474 114 L 474 114 Z M 464 169 Q 467 103 425 60 L 425 60 L 425 60 Q 383 17 320 16 Q 257 17 215 60 Q 173 103 176 169 Q 177 170 181 173 Q 189 179 206 187 Q 240 205 320 208 Q 400 205 434 187 Q 451 179 459 173 Q 463 170 464 169 L 464 169 Z M 320 253 L 326 258 L 320 253 L 326 258 L 358 290 L 358 290 L 363 296 L 363 296 L 358 302 L 358 302 L 326 334 L 326 334 L 320 340 L 320 340 L 314 334 L 314 334 L 282 302 L 282 302 L 277 296 L 277 296 L 282 290 L 282 290 L 314 258 L 314 258 L 320 253 L 320 253 Z M 299 296 L 320 317 L 299 296 L 320 317 L 341 296 L 341 296 L 320 275 L 320 275 L 299 296 L 299 296 Z M 134 210 L 166 242 L 134 210 L 166 242 L 171 248 L 171 248 L 166 254 L 166 254 L 134 286 L 134 286 L 128 291 L 128 291 L 122 286 L 122 286 L 90 254 L 90 254 L 85 248 L 85 248 L 90 242 L 90 242 L 122 210 L 122 210 L 128 205 L 128 205 L 134 210 L 134 210 Z M 128 269 L 149 248 L 128 269 L 149 248 L 128 227 L 128 227 L 107 248 L 107 248 L 128 269 L 128 269 Z M 512 205 L 518 210 L 512 205 L 518 210 L 550 242 L 550 242 L 555 248 L 555 248 L 550 254 L 550 254 L 518 286 L 518 286 L 512 292 L 512 292 L 506 286 L 506 286 L 474 254 L 474 254 L 469 248 L 469 248 L 474 242 L 474 242 L 506 210 L 506 210 L 512 205 L 512 205 Z M 491 248 L 512 269 L 491 248 L 512 269 L 533 248 L 533 248 L 512 227 L 512 227 L 491 248 L 491 248 Z" />
</svg>