<svg xmlns="http://www.w3.org/2000/svg" viewBox="0 0 448 512">
  <path d="M 228 66 Q 225 91 220 131 Q 215 171 212 219 Q 208 267 208 315 Q 211 377 228 414 Q 235 432 241 442 Q 242 444 243 445 Q 243 446 244 447 Q 276 444 305 435 Q 306 435 306 434 Q 307 433 307 433 Q 316 423 327 406 Q 338 389 347 366 Q 355 343 355 315 Q 355 278 344 238 Q 333 198 318 163 Q 304 128 293 106 Q 289 98 286 93 Q 257 64 249 18 L 238 39 L 238 39 L 230 57 L 230 57 Q 229 59 229 61 Q 228 63 228 66 L 228 66 Z M 333 157 Q 348 192 359 234 L 359 234 L 359 234 Q 371 275 371 315 Q 371 346 362 371 Q 352 397 341 415 Q 337 420 335 424 Q 353 415 369 404 Q 429 363 432 288 Q 431 235 406 203 Q 381 170 346 145 Q 344 143 342 142 Q 340 140 338 138 Q 338 138 338 138 Q 338 138 338 138 Q 338 138 338 138 Q 338 138 338 138 Q 338 138 338 138 Q 338 138 338 138 Q 328 131 318 123 Q 326 138 333 157 L 333 157 Z M 213 420 Q 195 381 192 315 Q 192 266 196 218 Q 199 169 204 129 Q 209 89 212 64 Q 213 59 214 55 Q 214 52 215 49 L 210 39 L 210 39 L 199 18 L 199 18 Q 191 63 162 93 Q 162 93 161 94 Q 159 99 156 105 Q 145 126 131 160 Q 117 194 107 232 Q 97 270 96 306 Q 96 339 106 364 Q 115 389 127 406 Q 139 424 148 433 Q 151 436 153 438 Q 188 447 224 448 L 226 448 L 226 448 Q 220 438 213 420 L 213 420 Z M 113 415 Q 100 397 90 369 L 90 369 L 90 369 Q 81 342 80 306 Q 81 268 92 228 Q 102 188 117 154 Q 124 137 130 123 Q 120 130 110 138 Q 107 141 103 143 Q 103 144 102 145 Q 67 170 42 203 Q 17 235 16 288 Q 19 363 80 404 Q 99 418 122 428 Q 118 422 113 415 L 113 415 Z M 149 453 Q 86 437 44 395 L 44 395 L 44 395 Q 2 353 0 288 Q 2 226 32 190 Q 62 153 99 126 Q 100 126 100 126 Q 100 126 100 126 Q 133 102 158 73 Q 183 44 184 0 L 200 0 L 208 0 L 215 14 L 215 14 L 224 32 L 224 32 L 233 14 L 233 14 L 240 0 L 240 0 L 248 0 L 264 0 Q 265 44 290 73 Q 315 102 348 126 Q 348 126 348 126 Q 348 126 349 126 Q 386 153 416 190 Q 446 226 448 288 Q 446 353 404 395 Q 362 437 299 454 L 319 498 L 319 498 L 323 505 L 323 505 L 308 511 L 308 511 L 305 504 L 305 504 L 283 457 L 283 457 Q 258 463 232 464 L 232 504 L 232 504 L 232 512 L 232 512 L 216 512 L 216 512 L 216 504 L 216 504 L 216 464 L 216 464 Q 190 463 165 457 L 143 504 L 143 504 L 140 511 L 140 511 L 125 505 L 125 505 L 129 497 L 129 497 L 149 453 L 149 453 Z" />
</svg>