<svg xmlns="http://www.w3.org/2000/svg" viewBox="0 0 611 512">
  <path d="M 177 64 L 209 48 L 177 64 L 209 48 L 305 0 L 305 0 L 401 48 L 401 48 L 433 64 L 433 64 L 433 112 L 433 112 L 409 112 L 401 112 L 401 120 L 401 120 L 401 160 L 401 160 L 433 160 L 433 160 L 433 224 L 433 224 L 413 224 L 413 224 L 453 448 L 453 448 L 465 448 L 497 448 L 497 512 L 497 512 L 465 512 L 337 512 L 337 448 L 337 448 Q 337 434 328 425 Q 319 416 305 416 Q 291 416 282 425 Q 273 434 273 448 L 273 512 L 273 512 L 145 512 L 113 512 L 113 448 L 113 448 L 145 448 L 157 448 L 197 224 L 197 224 L 177 224 L 177 224 L 177 160 L 177 160 L 209 160 L 209 160 L 209 120 L 209 120 L 209 112 L 209 112 L 201 112 L 177 112 L 177 64 L 177 64 Z M 337 112 L 337 88 L 337 112 L 337 88 L 305 72 L 305 72 L 273 88 L 273 88 L 273 112 L 273 112 L 273 160 L 273 160 L 337 160 L 337 160 L 337 112 L 337 112 Z M 131 50 L 153 59 L 131 50 L 153 59 L 134 104 L 134 104 L 112 94 L 112 94 L 0 46 L 0 46 L 19 2 L 19 2 L 131 50 L 131 50 Z M 131 206 L 19 254 L 131 206 L 19 254 L 0 210 L 0 210 L 112 162 L 112 162 L 134 152 L 134 152 L 153 197 L 153 197 L 130 206 L 131 206 Z M 592 2 L 611 46 L 592 2 L 611 46 L 499 94 L 499 94 L 476 104 L 476 104 L 458 59 L 458 59 L 480 50 L 480 50 L 592 2 L 592 2 Z M 458 197 L 476 153 L 458 197 L 476 153 L 499 162 L 499 162 L 611 210 L 611 210 L 592 254 L 592 254 L 480 206 L 480 206 L 457 197 L 458 197 Z" />
</svg>