<svg xmlns="http://www.w3.org/2000/svg" viewBox="0 0 616 521">
  <path d="M 56 73 Q 57 46 80 31 Q 104 19 128 31 Q 151 46 152 73 Q 151 100 128 115 Q 104 127 80 115 Q 57 100 56 73 L 56 73 Z M 168 73 Q 167 37 136 18 Q 104 0 72 18 Q 41 37 40 73 Q 41 109 72 128 Q 104 146 136 128 Q 167 109 168 73 L 168 73 Z M 17 345 L 23 185 L 17 345 L 23 185 L 185 185 L 185 185 L 191 345 L 191 345 L 168 345 L 17 345 Z M 112 361 L 112 513 L 112 361 L 112 513 L 112 521 L 112 521 L 120 521 L 176 521 L 176 513 L 176 513 L 176 361 L 176 361 L 192 361 L 208 361 L 207 345 L 207 345 L 200 169 L 200 169 L 8 169 L 8 169 L 1 345 L 1 345 L 0 361 L 0 361 L 16 361 L 32 361 L 32 513 L 32 513 L 32 521 L 32 521 L 40 521 L 96 521 L 96 513 L 96 513 L 96 361 L 96 361 L 112 361 L 112 361 Z M 160 361 L 160 505 L 160 361 L 160 505 L 128 505 L 128 505 L 128 361 L 128 361 L 160 361 L 160 361 Z M 48 361 L 80 361 L 48 361 L 80 361 L 80 505 L 80 505 L 48 505 L 48 505 L 48 361 L 48 361 Z M 296 9 L 280 9 L 296 9 L 280 9 L 280 17 L 280 17 L 280 513 L 280 513 L 280 521 L 280 521 L 296 521 L 296 521 L 296 513 L 296 513 L 296 17 L 296 17 L 296 9 L 296 9 Z M 488 25 Q 515 26 530 49 Q 542 73 530 97 Q 515 120 488 121 Q 461 120 446 97 Q 434 73 446 49 Q 461 26 488 25 L 488 25 Z M 488 137 Q 524 136 543 105 Q 561 73 543 41 Q 524 10 488 9 Q 452 10 433 41 Q 415 73 433 105 Q 452 136 488 137 L 488 137 Z M 436 185 L 540 185 L 436 185 L 540 185 L 595 377 L 595 377 L 552 377 L 381 377 L 436 185 L 436 185 Z M 480 393 L 496 393 L 480 393 L 496 393 L 496 513 L 496 513 L 496 521 L 496 521 L 504 521 L 560 521 L 560 513 L 560 513 L 560 393 L 560 393 L 599 393 L 616 393 L 611 377 L 611 377 L 552 169 L 552 169 L 424 169 L 424 169 L 365 377 L 365 377 L 360 393 L 360 393 L 377 393 L 416 393 L 416 513 L 416 513 L 416 521 L 416 521 L 424 521 L 480 521 L 480 513 L 480 513 L 480 393 L 480 393 Z M 544 505 L 512 505 L 544 505 L 512 505 L 512 393 L 512 393 L 544 393 L 544 393 L 544 505 L 544 505 Z M 464 393 L 464 505 L 464 393 L 464 505 L 432 505 L 432 505 L 432 393 L 432 393 L 464 393 L 464 393 Z" />
</svg>