<svg xmlns="http://www.w3.org/2000/svg" viewBox="0 0 640 512">
  <path d="M 144 128 Q 145 83 184 59 Q 224 37 264 59 Q 303 83 304 128 Q 303 173 264 197 Q 224 219 184 197 Q 145 173 144 128 L 144 128 Z M 352 128 Q 352 93 335 64 L 335 64 L 335 64 Q 318 35 288 17 Q 258 0 224 0 Q 190 0 160 17 Q 130 35 113 64 Q 96 93 96 128 Q 96 163 113 192 Q 130 221 160 239 Q 190 256 224 256 Q 258 256 288 239 Q 318 221 335 192 Q 352 163 352 128 L 352 128 Z M 65 464 L 100 352 L 65 464 L 100 352 L 326 352 L 326 352 Q 321 328 320 304 L 64 304 L 64 304 L 15 464 L 15 464 L 0 512 L 0 512 L 50 512 L 426 512 Q 397 491 377 464 L 65 464 L 65 464 Z M 591 312 Q 587 359 563 399 L 563 399 L 563 399 Q 539 440 496 460 L 496 276 L 496 276 L 591 312 L 591 312 Z M 496 512 Q 568 486 604 424 L 604 424 L 604 424 Q 640 363 640 296 L 640 280 L 640 280 L 496 224 L 496 224 L 352 280 L 352 280 L 352 296 L 352 296 Q 352 363 388 424 Q 424 486 496 512 L 496 512 Z" />
</svg>