<svg xmlns="http://www.w3.org/2000/svg" viewBox="0 0 640 508">
  <path d="M 2 144 L 146 0 L 2 144 L 146 0 L 158 12 L 158 12 L 16 153 L 16 153 L 16 204 L 16 204 L 181 174 L 181 174 Q 202 138 239 116 Q 275 95 320 94 Q 365 95 401 116 Q 438 138 459 174 L 624 204 L 624 204 L 624 153 L 624 153 L 482 12 L 482 12 L 494 0 L 494 0 L 638 144 L 638 144 L 640 147 L 640 147 L 640 150 L 640 150 L 640 207 L 640 207 L 640 214 L 640 214 L 640 294 L 640 294 L 640 301 L 640 301 L 640 358 L 640 358 L 640 361 L 640 361 L 638 364 L 638 364 L 494 508 L 494 508 L 482 496 L 482 496 L 624 355 L 624 355 L 624 304 L 624 304 L 459 334 L 459 334 Q 438 370 401 392 Q 365 413 320 414 Q 275 413 239 392 Q 202 370 181 334 L 16 304 L 16 304 L 16 355 L 16 355 L 158 496 L 158 496 L 146 508 L 146 508 L 2 364 L 2 364 L 0 361 L 0 361 L 0 358 L 0 358 L 0 301 L 0 301 L 0 294 L 0 294 L 0 214 L 0 214 L 0 207 L 0 207 L 0 150 L 0 150 L 0 147 L 0 147 L 2 144 L 2 144 Z M 468 192 Q 480 221 480 254 Q 480 287 468 316 L 624 287 L 624 287 L 624 221 L 624 221 L 468 192 L 468 192 Z M 16 287 L 172 316 L 16 287 L 172 316 Q 160 287 160 254 Q 160 221 172 192 L 16 221 L 16 221 L 16 287 L 16 287 Z M 464 254 Q 464 215 445 182 L 445 182 L 445 182 Q 426 149 392 129 Q 358 110 320 110 Q 282 110 248 129 Q 214 149 195 182 Q 176 215 176 254 Q 176 293 195 326 Q 214 359 248 379 Q 282 398 320 398 Q 358 398 392 379 Q 426 359 445 326 Q 464 293 464 254 L 464 254 Z M 351 246 Q 347 233 336 227 L 336 227 L 336 227 Q 325 220 312 223 Q 299 227 292 238 Q 286 249 289 262 Q 293 275 304 282 Q 315 288 328 285 Q 341 281 348 270 Q 354 259 351 246 L 351 246 Z M 273 262 L 224 262 L 273 262 L 224 262 Q 227 293 247 316 L 281 282 L 281 282 Q 275 273 273 262 L 273 262 Z M 312 350 L 312 301 L 312 350 L 312 301 Q 301 299 292 293 L 258 327 L 258 327 Q 281 347 312 350 L 312 350 Z M 382 327 L 348 293 L 382 327 L 348 293 Q 339 299 328 301 L 328 350 L 328 350 Q 359 347 382 327 L 382 327 Z M 416 262 L 367 262 L 416 262 L 367 262 Q 365 273 359 282 L 393 316 L 393 316 Q 413 293 416 262 L 416 262 Z M 393 192 L 359 226 L 393 192 L 359 226 Q 365 235 367 246 L 416 246 L 416 246 Q 413 215 393 192 L 393 192 Z M 328 158 L 328 207 L 328 158 L 328 207 Q 339 209 348 215 L 382 181 L 382 181 Q 359 161 328 158 L 328 158 Z M 258 181 L 292 215 L 258 181 L 292 215 Q 301 209 312 207 L 312 158 L 312 158 Q 281 161 258 181 L 258 181 Z M 224 246 L 273 246 L 224 246 L 273 246 Q 275 235 281 226 L 247 192 L 247 192 Q 227 215 224 246 L 224 246 Z M 320 142 Q 350 142 376 157 L 376 157 L 376 157 Q 402 172 417 198 Q 432 224 432 254 Q 432 284 417 310 Q 402 336 376 351 Q 350 366 320 366 Q 290 366 264 351 Q 238 336 223 310 Q 208 284 208 254 Q 208 224 223 198 Q 238 172 264 157 Q 290 142 320 142 L 320 142 Z" />
</svg>