<svg xmlns="http://www.w3.org/2000/svg" viewBox="0 0 512 503">
  <path d="M 333 36 L 357 12 L 333 36 L 357 12 L 368 0 L 368 0 L 379 12 L 379 12 L 403 36 L 403 36 L 415 47 L 415 47 L 403 58 L 403 58 L 379 82 L 379 82 L 368 94 L 368 94 L 357 82 L 357 82 L 333 58 L 333 58 L 321 47 L 321 47 L 333 36 L 333 36 Z M 368 71 L 379 60 L 368 71 L 379 60 L 381 58 L 381 58 L 392 47 L 392 47 L 381 36 L 381 36 L 379 34 L 379 34 L 368 23 L 368 23 L 357 34 L 357 34 L 355 36 L 355 36 L 344 47 L 344 47 L 355 58 L 355 58 L 357 60 L 357 60 L 368 71 L 368 71 Z M 142 103 Q 102 104 78 135 L 74 141 L 74 141 L 61 132 L 61 132 L 66 125 L 66 125 Q 94 89 142 87 Q 183 88 210 115 Q 237 142 238 183 Q 236 235 196 263 L 309 263 L 309 263 L 387 201 L 387 201 L 389 199 L 389 199 L 392 199 L 392 199 Q 443 200 477 234 Q 511 268 512 319 L 512 384 L 512 384 Q 511 421 486 445 Q 462 470 425 471 Q 400 471 379 458 Q 358 445 347 423 L 337 403 L 337 403 L 333 395 L 333 395 L 348 388 L 348 388 L 351 395 L 351 395 L 361 416 L 361 416 Q 382 453 425 455 Q 455 454 475 434 Q 495 414 496 384 L 496 319 L 496 319 Q 495 275 466 246 Q 438 217 395 215 L 317 277 L 317 277 L 315 279 L 315 279 L 312 279 L 212 279 Q 239 295 255 322 Q 272 349 272 383 Q 271 434 237 468 Q 203 502 152 503 L 136 503 L 136 503 Q 78 502 40 463 Q 1 425 0 367 L 0 359 L 0 359 L 16 359 L 16 359 L 16 367 L 16 367 Q 17 418 51 452 Q 85 486 136 487 L 152 487 L 152 487 Q 196 486 226 457 Q 255 427 256 383 Q 255 339 226 309 Q 196 280 152 279 L 144 279 L 128 279 L 128 263 L 128 263 L 134 263 L 142 263 Q 176 262 199 240 Q 222 217 222 183 Q 222 149 199 126 Q 176 104 142 103 L 142 103 Z M 294 113 L 294 113 L 294 113 L 294 113 Q 294 113 294 114 Q 294 114 294 114 Q 295 115 297 116 Q 301 119 310 124 Q 328 134 368 135 Q 408 134 426 124 Q 435 119 439 116 Q 441 115 442 114 Q 442 114 442 114 Q 442 114 442 113 L 442 113 L 442 113 Q 442 113 442 113 Q 442 113 442 113 Q 442 113 442 113 Q 442 113 442 113 L 448 108 L 448 108 L 459 119 L 459 119 L 454 125 L 454 125 L 448 119 L 448 119 Q 455 126 454 125 Q 454 125 454 125 Q 454 125 454 125 Q 454 125 454 125 L 454 125 L 454 125 L 453 125 L 453 125 Q 453 125 453 126 Q 452 126 452 126 Q 451 127 448 129 Q 443 133 432 138 Q 412 149 368 151 Q 325 149 304 138 Q 293 133 288 129 Q 285 127 284 126 Q 283 126 283 125 Q 283 125 283 125 L 283 125 L 283 125 L 283 125 L 283 125 Q 283 125 283 125 Q 283 125 283 125 Q 283 125 283 125 Q 283 125 283 125 Q 283 125 283 125 Q 283 125 283 125 L 288 119 L 288 119 L 282 125 L 282 125 L 277 119 L 277 119 L 288 108 L 288 108 L 294 113 L 294 113 Z" />
</svg>