<svg xmlns="http://www.w3.org/2000/svg" viewBox="0 0 512 512">
  <path d="M 496 256 Q 495 323 463 377 L 463 377 L 463 377 Q 431 431 377 463 L 377 463 L 377 463 Q 323 495 256 496 Q 243 496 229 495 L 225 510 L 225 510 Q 240 512 256 512 Q 328 511 385 477 Q 443 443 477 385 Q 511 328 512 256 Q 511 184 477 127 Q 443 69 385 35 Q 328 1 256 0 Q 184 1 127 35 Q 69 69 35 127 Q 1 184 0 256 Q 0 272 2 287 L 18 283 L 18 283 Q 16 269 16 256 Q 17 189 49 135 Q 81 81 135 49 Q 189 17 256 16 Q 323 17 377 49 Q 431 81 463 135 Q 495 189 496 256 L 496 256 Z M 250 424 Q 253 424 256 424 Q 327 422 375 375 Q 422 327 424 256 Q 422 185 375 137 Q 327 90 256 88 Q 185 90 137 137 Q 90 185 88 256 Q 88 259 88 262 L 104 258 L 104 258 Q 104 257 104 257 Q 104 257 104 256 Q 106 192 149 149 Q 191 106 256 104 Q 321 106 363 149 Q 406 192 408 256 Q 406 321 363 364 Q 321 406 256 408 Q 255 408 254 408 L 250 424 L 250 424 Z M 278 325 Q 300 317 314 299 L 314 299 L 314 299 Q 328 280 328 256 Q 327 225 307 205 Q 287 185 256 184 Q 232 184 213 198 Q 195 212 187 234 L 207 228 L 207 228 Q 223 201 256 200 Q 280 201 296 216 Q 311 232 312 256 Q 311 289 284 305 L 278 325 L 278 325 Z M 264 258 L 268 244 L 264 258 L 268 244 L 254 248 L 254 248 L 30 312 L 30 312 L 4 320 L 4 320 L 30 328 L 30 328 L 138 363 L 138 363 L 2 498 L 2 498 L 14 510 L 14 510 L 150 374 L 150 374 L 184 482 L 184 482 L 193 508 L 193 508 L 200 482 L 200 482 L 264 258 L 264 258 Z M 60 320 L 244 268 L 60 320 L 244 268 L 192 452 L 192 452 L 161 356 L 161 356 L 160 353 L 160 353 L 156 351 L 156 351 L 60 321 L 60 320 Z" />
</svg>