<svg xmlns="http://www.w3.org/2000/svg" viewBox="0 0 640 384">
  <path d="M 106 41 Q 70 69 50 110 Q 18 99 16 64 Q 17 44 30 30 Q 44 17 64 16 Q 92 17 106 41 L 106 41 Z M 0 64 Q 0 86 12 102 L 12 102 L 12 102 Q 25 118 44 125 Q 32 156 32 192 Q 34 274 88 328 Q 142 382 224 384 Q 273 384 314 362 Q 354 340 381 303 L 536 384 L 536 384 L 629 284 L 629 284 L 640 272 L 640 272 L 627 262 L 627 262 L 494 157 L 494 157 L 448 184 L 448 184 L 416 160 L 416 160 L 431 106 L 431 106 L 353 45 L 353 45 Q 296 1 224 0 Q 165 1 119 31 Q 101 2 64 0 Q 37 1 19 19 Q 1 37 0 64 L 0 64 Z M 376 282 L 368 294 L 376 282 L 368 294 Q 343 328 306 348 Q 269 368 224 368 Q 149 366 100 316 Q 50 267 48 192 Q 50 117 100 68 Q 149 18 224 16 Q 290 17 343 57 L 412 112 L 412 112 L 401 156 L 401 156 L 398 166 L 398 166 L 406 173 L 406 173 L 438 197 L 438 197 L 447 203 L 447 203 L 456 198 L 456 198 L 493 176 L 493 176 L 617 274 L 617 274 L 533 364 L 533 364 L 388 289 L 388 289 L 376 282 L 376 282 Z M 176 192 Q 177 165 200 150 Q 224 138 248 150 Q 271 165 272 192 Q 271 219 248 234 Q 224 246 200 234 Q 177 219 176 192 L 176 192 Z M 288 192 Q 287 156 256 137 Q 224 119 192 137 Q 161 156 160 192 Q 161 228 192 247 Q 224 265 256 247 Q 287 228 288 192 L 288 192 Z" />
</svg>