<svg xmlns="http://www.w3.org/2000/svg" viewBox="0 0 640 512">
  <path d="M 10 496 L 0 512 L 10 496 L 0 512 L 19 512 L 640 512 L 630 496 L 630 496 L 329 15 L 329 15 L 320 0 L 320 0 L 311 15 L 311 15 L 10 496 L 10 496 Z M 611 496 L 29 496 L 611 496 L 29 496 L 320 30 L 320 30 L 611 496 L 611 496 Z M 352 432 L 371 432 L 352 432 L 512 432 L 502 416 L 502 416 L 442 319 L 442 319 L 432 304 L 432 304 L 423 319 L 423 319 L 393 367 L 393 367 L 334 338 L 334 338 L 295 253 L 295 253 L 294 250 L 294 250 L 292 249 L 292 249 L 244 225 L 244 225 L 237 222 L 237 222 L 233 228 L 233 228 L 201 279 L 201 279 L 196 286 L 196 286 L 204 290 L 204 290 L 384 381 L 384 381 L 362 416 L 362 416 L 352 432 L 352 432 Z M 483 416 L 381 416 L 483 416 L 381 416 L 432 334 L 432 334 L 483 416 L 483 416 Z M 272 192 Q 273 177 288 176 Q 303 177 304 192 Q 303 207 288 208 Q 273 207 272 192 L 272 192 Z M 320 192 Q 320 178 311 169 L 311 169 L 311 169 Q 302 160 288 160 Q 274 160 265 169 Q 256 178 256 192 Q 256 206 265 215 Q 274 224 288 224 Q 302 224 311 215 Q 320 206 320 192 L 320 192 Z M 311 326 L 220 280 L 311 326 L 220 280 L 243 242 L 243 242 L 282 262 L 282 262 L 311 326 L 311 326 Z M 212 325 L 209 333 L 212 325 L 209 333 L 173 432 L 173 432 L 190 432 L 190 432 L 221 347 L 221 347 L 280 376 L 280 376 L 280 424 L 280 424 L 280 432 L 280 432 L 296 432 L 296 432 L 296 424 L 296 424 L 296 371 L 296 371 L 296 366 L 296 366 L 292 364 L 292 364 L 220 329 L 220 329 L 212 325 L 212 325 Z" />
</svg>