<svg xmlns="http://www.w3.org/2000/svg" viewBox="0 0 574 400">
  <path d="M 287 16 Q 204 17 142 63 L 142 63 L 142 63 Q 79 109 53 183 L 51 188 L 51 188 L 45 188 L 16 188 L 16 244 L 16 244 L 44 244 L 62 244 L 68 241 L 68 241 L 117 216 L 117 216 L 120 215 L 120 215 L 124 216 L 124 216 L 189 242 L 189 242 L 198 246 L 198 246 L 208 242 L 208 242 L 284 215 L 284 215 L 287 214 L 287 214 L 290 215 L 290 215 L 365 242 L 365 242 L 375 246 L 375 246 L 385 242 L 385 242 L 450 216 L 450 216 L 453 215 L 453 215 L 457 216 L 457 216 L 507 241 L 507 241 L 512 244 L 512 244 L 519 244 L 558 244 L 558 188 L 558 188 L 530 188 L 523 188 L 521 183 L 521 183 Q 495 109 432 63 Q 370 17 287 16 L 287 16 Z M 40 172 Q 69 95 135 48 L 135 48 L 135 48 Q 201 1 287 0 Q 373 1 439 48 Q 505 95 535 172 L 566 172 L 574 172 L 574 180 L 574 180 L 574 252 L 574 252 L 574 260 L 574 260 L 566 260 L 509 260 L 507 259 L 507 259 L 499 255 L 499 255 L 453 232 L 453 232 L 391 257 L 391 257 L 379 262 L 379 262 L 376 263 L 376 263 L 373 262 L 373 262 L 360 257 L 360 257 L 287 231 L 287 231 L 214 257 L 214 257 L 201 262 L 201 262 L 198 263 L 198 263 L 195 262 L 195 262 L 183 257 L 183 257 L 121 232 L 121 232 L 75 255 L 75 255 L 67 259 L 67 259 L 65 260 L 65 260 L 64 260 L 0 260 L 0 252 L 0 252 L 0 180 L 0 180 L 0 172 L 0 172 L 8 172 L 40 172 Z M 58 287 Q 66 287 74 285 L 107 384 L 107 384 L 467 384 L 467 384 L 500 285 L 500 285 Q 508 287 517 287 L 479 400 L 479 400 L 95 400 L 95 400 L 58 287 L 58 287 Z M 198 92 L 174 140 L 198 92 L 174 140 L 171 147 L 171 147 L 156 140 L 156 140 L 160 132 L 160 132 L 184 84 L 184 84 L 188 77 L 188 77 L 202 84 L 202 84 L 198 92 L 198 92 Z M 390 84 L 414 132 L 390 84 L 414 132 L 418 140 L 418 140 L 404 147 L 404 147 L 400 140 L 400 140 L 376 92 L 376 92 L 372 84 L 372 84 L 387 77 L 387 77 L 390 84 L 390 84 Z M 295 88 L 295 136 L 295 88 L 295 136 L 295 144 L 295 144 L 279 144 L 279 144 L 279 136 L 279 136 L 279 88 L 279 88 L 279 80 L 279 80 L 295 80 L 295 80 L 295 88 L 295 88 Z" />
</svg>