<svg xmlns="http://www.w3.org/2000/svg" viewBox="0 0 640 512">
  <path d="M 496 240 Q 531 240 560 257 L 560 257 L 560 257 Q 589 274 607 304 Q 624 334 624 368 Q 624 402 607 432 Q 589 462 560 479 Q 531 496 496 496 Q 461 496 432 479 Q 403 462 385 432 Q 368 402 368 368 Q 368 334 385 304 Q 403 274 432 257 Q 461 240 496 240 L 496 240 Z M 496 512 Q 535 512 568 493 L 568 493 L 568 493 Q 601 474 621 440 Q 640 406 640 368 Q 640 330 621 296 Q 601 262 568 243 Q 535 224 496 224 Q 457 224 424 243 Q 391 262 371 296 Q 352 330 352 368 Q 352 406 371 440 Q 391 474 424 493 Q 457 512 496 512 L 496 512 Z M 508 420 L 484 420 L 508 420 L 484 420 L 484 444 L 484 444 L 508 444 L 508 444 L 508 420 L 508 420 Z M 504 288 L 504 280 L 504 288 L 504 280 L 488 280 L 488 280 L 488 288 L 488 288 L 488 384 L 488 384 L 488 392 L 488 392 L 504 392 L 504 392 L 504 384 L 504 384 L 504 288 L 504 288 Z M 16 112 L 160 112 L 16 112 L 160 112 L 320 0 L 320 0 L 480 112 L 480 112 L 624 112 L 640 112 L 640 128 L 640 128 L 640 267 L 640 267 Q 633 256 624 247 L 624 128 L 624 128 L 480 128 L 475 128 L 471 125 L 471 125 L 320 20 L 320 20 L 169 125 L 169 125 L 165 128 L 165 128 L 160 128 L 16 128 L 16 496 L 16 496 L 256 496 L 256 496 L 256 384 L 256 384 Q 257 357 275 339 Q 293 321 320 320 Q 323 320 327 320 Q 324 328 323 336 Q 321 336 320 336 Q 300 337 286 350 Q 273 364 272 384 L 272 496 L 272 496 L 304 496 L 375 496 Q 384 505 395 512 L 384 512 L 0 512 L 0 496 L 0 496 L 0 128 L 0 128 L 0 112 L 0 112 L 16 112 L 16 112 Z M 64 192 L 72 192 L 64 192 L 144 192 L 144 200 L 144 200 L 144 280 L 144 280 L 144 288 L 144 288 L 136 288 L 64 288 L 64 280 L 64 280 L 64 200 L 64 200 L 64 192 L 64 192 Z M 80 208 L 80 272 L 80 208 L 80 272 L 128 272 L 128 272 L 128 208 L 128 208 L 80 208 L 80 208 Z M 384 176 Q 383 140 352 121 Q 320 103 288 121 Q 257 140 256 176 Q 257 212 288 231 Q 320 249 352 231 Q 383 212 384 176 L 384 176 Z M 240 176 Q 241 131 280 107 Q 320 85 360 107 Q 399 131 400 176 Q 399 221 360 245 Q 320 267 280 245 Q 241 221 240 176 L 240 176 Z M 328 136 L 328 144 L 328 136 L 328 144 L 328 168 L 328 168 L 344 168 L 352 168 L 352 184 L 352 184 L 344 184 L 312 184 L 312 176 L 312 176 L 312 144 L 312 144 L 312 136 L 312 136 L 328 136 L 328 136 Z M 72 320 L 136 320 L 72 320 L 144 320 L 144 328 L 144 328 L 144 408 L 144 408 L 144 416 L 144 416 L 136 416 L 64 416 L 64 408 L 64 408 L 64 328 L 64 328 L 64 320 L 64 320 L 72 320 L 72 320 Z M 80 400 L 128 400 L 80 400 L 128 400 L 128 336 L 128 336 L 80 336 L 80 336 L 80 400 L 80 400 Z" />
</svg>