<svg xmlns="http://www.w3.org/2000/svg" viewBox="0 0 576 512">
  <path d="M 336 128 Q 337 80 369 49 L 369 49 L 369 49 Q 400 17 448 16 Q 496 17 527 49 Q 559 80 560 128 L 560 216 L 560 216 L 560 224 L 560 224 L 576 224 L 576 224 L 576 216 L 576 216 L 576 128 L 576 128 Q 575 74 539 37 Q 502 1 448 0 Q 394 1 357 37 Q 321 74 320 128 L 320 192 L 320 192 L 16 192 L 0 192 L 0 208 L 0 208 L 0 496 L 0 496 L 0 512 L 0 512 L 16 512 L 448 512 L 448 496 L 448 496 L 448 208 L 448 208 L 448 192 L 448 192 L 432 192 L 336 192 L 336 128 L 336 128 Z M 320 208 L 336 208 L 320 208 L 432 208 L 432 496 L 432 496 L 16 496 L 16 496 L 16 208 L 16 208 L 320 208 L 320 208 Z" />
</svg>