<svg xmlns="http://www.w3.org/2000/svg" viewBox="0 0 512 512">
  <path d="M 11 397 L 0 408 L 11 397 L 0 408 L 11 419 L 11 419 L 93 501 L 93 501 L 104 512 L 104 512 L 115 501 L 115 501 L 232 384 L 232 384 L 220 373 L 220 373 L 104 489 L 104 489 L 23 408 L 23 408 L 181 249 L 181 249 L 170 238 L 170 238 L 11 397 L 11 397 Z M 496 160 Q 496 198 479 229 L 479 229 L 479 229 Q 461 260 432 280 L 444 291 L 444 291 Q 475 269 493 235 Q 512 201 512 160 Q 512 127 500 99 Q 497 91 493 84 L 481 95 L 481 95 L 400 176 L 400 176 L 352 176 L 336 176 L 336 160 L 336 160 L 336 112 L 336 112 L 417 31 L 417 31 L 429 20 L 429 20 Q 421 15 413 12 Q 385 0 352 0 Q 311 0 277 19 Q 243 37 221 68 Q 227 75 230 84 Q 250 53 281 35 Q 313 16 352 16 Q 378 16 401 25 L 325 101 L 325 101 L 320 105 L 320 105 L 320 112 L 320 112 L 320 176 L 320 176 L 320 192 L 320 192 L 328 192 L 407 192 L 411 187 L 411 187 L 488 111 L 488 111 Q 496 134 496 160 L 496 160 Z M 112 423 L 135 400 L 112 423 L 135 400 L 112 377 L 112 377 L 89 400 L 89 400 L 112 423 L 112 423 Z M 176 176 L 104 176 L 176 176 L 104 176 L 21 66 L 21 66 L 66 21 L 66 21 L 176 104 L 176 104 L 176 176 L 176 176 Z M 176 192 L 181 192 L 176 192 L 181 192 L 274 286 L 274 286 L 243 317 L 243 317 L 232 328 L 232 328 L 243 339 L 243 339 L 405 501 L 405 501 L 416 512 L 416 512 L 427 501 L 427 501 L 501 427 L 501 427 L 512 416 L 512 416 L 501 405 L 501 405 L 339 243 L 339 243 L 328 232 L 328 232 L 317 243 L 317 243 L 286 274 L 286 274 L 192 181 L 192 181 L 192 176 L 192 176 L 192 96 L 192 96 L 64 0 L 64 0 L 0 64 L 0 64 L 96 192 L 96 192 L 176 192 L 176 192 Z M 416 489 L 255 328 L 416 489 L 255 328 L 328 255 L 328 255 L 489 416 L 489 416 L 416 489 L 416 489 Z" />
</svg>