<svg xmlns="http://www.w3.org/2000/svg" viewBox="0 0 512 448">
  <path d="M 512 112 L 501 101 L 512 112 L 501 101 L 400 0 L 400 0 L 368 0 L 352 0 L 352 16 L 352 16 L 352 104 L 352 104 L 344 104 L 0 104 L 0 120 L 0 120 L 8 120 L 352 120 L 352 208 L 352 208 L 352 224 L 352 224 L 368 224 L 400 224 L 501 123 L 501 123 L 512 112 L 512 112 Z M 368 16 L 393 16 L 368 16 L 393 16 L 489 112 L 489 112 L 393 208 L 393 208 L 368 208 L 368 208 L 368 16 L 368 16 Z M 160 432 L 160 344 L 160 432 L 160 344 L 504 344 L 512 344 L 512 328 L 512 328 L 504 328 L 160 328 L 160 240 L 160 240 L 160 224 L 160 224 L 144 224 L 112 224 L 11 325 L 11 325 L 0 336 L 0 336 L 11 347 L 11 347 L 112 448 L 112 448 L 144 448 L 160 448 L 160 432 L 160 432 Z M 119 432 L 23 336 L 119 432 L 23 336 L 119 240 L 119 240 L 144 240 L 144 240 L 144 432 L 144 432 L 119 432 L 119 432 Z" />
</svg>