<svg xmlns="http://www.w3.org/2000/svg" viewBox="0 0 448 512">
  <path d="M 368 208 L 349 208 L 368 208 L 328 208 L 342 224 L 342 224 L 416 312 L 416 312 L 416 336 L 416 336 L 416 352 L 416 352 L 400 352 L 352 352 L 365 368 L 365 368 L 448 472 L 448 472 L 448 496 L 448 496 L 448 512 L 448 512 L 432 512 L 0 512 L 0 496 L 0 496 L 0 472 L 0 472 L 83 368 L 83 368 L 96 352 L 96 352 L 76 352 L 32 352 L 32 336 L 32 336 L 32 312 L 32 312 L 107 224 L 107 224 L 120 208 L 120 208 L 99 208 L 64 208 L 64 192 L 64 192 L 64 168 L 64 168 L 213 12 L 213 12 L 224 0 L 224 0 L 235 12 L 235 12 L 384 168 L 384 168 L 384 192 L 384 192 L 384 208 L 384 208 L 368 208 L 368 208 Z M 316 218 L 294 192 L 316 218 L 294 192 L 328 192 L 368 192 L 368 174 L 368 174 L 224 23 L 224 23 L 80 174 L 80 174 L 80 192 L 80 192 L 120 192 L 155 192 L 132 218 L 132 218 L 48 318 L 48 318 L 48 336 L 48 336 L 96 336 L 129 336 L 109 362 L 109 362 L 16 478 L 16 478 L 16 496 L 16 496 L 432 496 L 432 496 L 432 478 L 432 478 L 340 362 L 340 362 L 319 336 L 319 336 L 352 336 L 400 336 L 400 318 L 400 318 L 316 218 L 316 218 Z M 176 256 Q 191 257 192 272 Q 191 287 176 288 Q 161 287 160 272 Q 161 257 176 256 L 176 256 Z M 224 144 Q 225 129 240 128 Q 255 129 256 144 Q 255 159 240 160 Q 225 159 224 144 L 224 144 Z M 272 384 Q 287 385 288 400 Q 287 415 272 416 Q 257 415 256 400 Q 257 385 272 384 L 272 384 Z" />
</svg>