<svg xmlns="http://www.w3.org/2000/svg" viewBox="0 0 640 512">
  <path d="M 496 16 L 80 16 L 496 16 L 80 16 L 80 288 L 80 288 L 320 288 L 320 288 L 320 304 L 320 304 L 80 304 L 16 304 L 16 329 L 16 329 L 55 368 L 55 368 L 320 368 L 320 368 L 320 384 L 320 384 L 48 384 L 48 384 L 0 336 L 0 336 L 0 304 L 0 304 L 0 288 L 0 288 L 16 288 L 64 288 L 64 16 L 64 16 L 64 0 L 64 0 L 80 0 L 512 0 L 512 16 L 512 16 L 512 96 L 512 96 L 496 96 L 496 96 L 496 16 L 496 16 Z M 640 248 L 640 496 L 640 248 L 640 496 L 640 512 L 640 512 L 624 512 L 352 512 L 352 496 L 352 496 L 352 144 L 352 144 L 352 128 L 352 128 L 368 128 L 528 128 L 640 240 L 640 240 L 640 248 L 640 248 Z M 528 151 L 528 240 L 528 151 L 528 240 L 617 240 L 617 240 L 528 151 L 528 151 Z M 512 144 L 368 144 L 512 144 L 368 144 L 368 496 L 368 496 L 624 496 L 624 496 L 624 256 L 624 256 L 520 256 L 512 256 L 512 248 L 512 248 L 512 144 L 512 144 Z" />
</svg>