<svg xmlns="http://www.w3.org/2000/svg" viewBox="0 0 576 510">
  <path d="M 234 51 L 194 12 L 234 51 L 194 12 L 206 0 L 206 0 L 246 40 L 246 40 Q 246 41 247 41 Q 247 41 247 42 Q 265 30 288 30 Q 311 30 329 42 Q 330 41 330 40 L 370 0 L 370 0 L 382 12 L 382 12 L 342 51 L 342 51 Q 367 74 368 110 Q 368 115 368 119 Q 403 95 448 94 Q 499 95 536 125 Q 574 155 576 206 Q 575 253 542 282 Q 509 312 463 317 Q 464 310 464 302 L 464 301 L 464 301 Q 504 296 532 270 Q 559 244 560 206 Q 559 164 526 137 Q 494 111 448 110 Q 413 110 386 126 Q 358 142 344 169 Q 384 186 408 222 Q 431 257 432 302 Q 429 351 395 399 Q 360 446 325 477 Q 291 509 288 510 Q 285 509 251 477 Q 216 446 181 399 Q 147 351 144 302 Q 145 257 169 222 Q 192 186 232 169 Q 218 142 190 126 Q 163 110 128 110 Q 82 111 50 137 Q 17 164 16 206 Q 17 244 44 270 Q 72 296 112 301 L 112 302 L 112 302 Q 112 310 113 317 Q 67 312 34 282 Q 1 253 0 206 Q 2 155 40 125 Q 77 95 128 94 Q 173 95 209 119 Q 208 115 208 110 Q 209 74 234 51 L 234 51 Z M 252 163 Q 269 158 288 158 Q 307 158 324 163 Q 351 144 352 110 Q 351 83 333 65 Q 315 47 288 46 Q 261 47 243 65 Q 225 83 224 110 Q 225 144 252 163 L 252 163 Z M 169 254 Q 160 276 160 302 L 416 302 L 416 302 Q 416 276 407 254 L 169 254 L 169 254 Z M 177 238 L 399 238 L 177 238 L 399 238 Q 382 209 353 192 Q 324 174 288 174 Q 252 174 223 192 Q 194 209 177 238 L 177 238 Z M 415 318 L 162 318 L 415 318 L 162 318 Q 166 341 180 366 L 396 366 L 396 366 Q 410 341 415 318 L 415 318 Z M 387 382 L 189 382 L 387 382 L 189 382 Q 206 408 227 430 L 349 430 L 349 430 Q 370 408 387 382 L 387 382 Z M 334 446 L 241 446 L 334 446 L 241 446 Q 261 466 276 479 Q 283 485 288 489 Q 293 485 300 479 Q 315 466 334 446 L 334 446 Z" />
</svg>