<svg xmlns="http://www.w3.org/2000/svg" viewBox="0 0 512 448">
  <path d="M 72 344 L 76 335 L 72 344 L 76 335 L 68 328 L 68 328 Q 17 276 16 208 Q 18 128 85 73 Q 152 18 256 16 Q 360 18 427 73 Q 494 128 496 208 Q 494 288 427 343 Q 360 398 256 400 Q 211 400 171 388 L 166 386 L 166 386 L 162 388 L 162 388 L 42 423 L 42 423 L 72 344 L 72 344 Z M 16 448 L 35 442 L 16 448 L 35 442 L 166 403 L 166 403 Q 209 416 256 416 Q 328 415 385 388 Q 443 360 477 313 Q 511 266 512 208 Q 511 150 477 103 Q 443 56 385 28 Q 328 1 256 0 Q 184 1 127 28 Q 69 56 35 103 Q 1 150 0 208 Q 2 284 57 339 L 23 429 L 23 429 L 16 448 L 16 448 Z M 223 156 L 220 152 L 223 156 L 220 152 L 216 152 L 200 152 L 200 160 L 200 160 L 200 256 L 200 256 L 200 264 L 200 264 L 216 264 L 216 264 L 216 256 L 216 256 L 216 175 L 216 175 L 249 228 L 249 228 L 256 239 L 256 239 L 263 228 L 263 228 L 296 175 L 296 175 L 296 256 L 296 256 L 296 264 L 296 264 L 312 264 L 312 264 L 312 256 L 312 256 L 312 160 L 312 160 L 312 152 L 312 152 L 304 152 L 292 152 L 289 156 L 289 156 L 256 209 L 256 209 L 223 156 L 223 156 Z M 373 152 Q 361 152 352 160 L 352 160 L 352 160 Q 344 169 344 181 Q 344 196 357 205 L 386 224 L 386 224 Q 392 228 392 235 Q 391 247 379 248 L 352 248 L 344 248 L 344 264 L 344 264 L 352 264 L 379 264 Q 391 264 400 256 Q 408 247 408 235 Q 408 220 395 211 L 366 192 L 366 192 Q 360 188 360 181 Q 361 169 373 168 L 392 168 L 400 168 L 400 152 L 400 152 L 392 152 L 373 152 Z M 104 181 Q 104 196 117 205 L 146 224 L 146 224 Q 152 228 152 235 Q 151 247 139 248 L 112 248 L 104 248 L 104 264 L 104 264 L 112 264 L 139 264 Q 151 264 160 256 Q 168 247 168 235 Q 168 220 155 211 L 126 192 L 126 192 Q 120 188 120 181 Q 121 169 133 168 L 152 168 L 160 168 L 160 152 L 160 152 L 152 152 L 133 152 Q 121 152 113 161 Q 104 169 104 181 L 104 181 Z" />
</svg>