<svg xmlns="http://www.w3.org/2000/svg" viewBox="0 0 512 512">
  <path d="M 200 16 L 248 16 L 200 16 L 248 16 L 248 64 L 248 64 L 248 136 L 248 136 L 207 136 L 207 136 Q 200 114 176 112 Q 162 112 153 121 Q 144 130 144 144 Q 144 158 153 167 Q 162 176 176 176 Q 200 174 207 152 L 248 152 L 248 152 L 248 272 L 248 272 L 160 272 L 152 272 L 152 280 L 152 280 L 152 321 L 152 321 Q 130 328 128 352 Q 128 366 137 375 Q 146 384 160 384 Q 174 384 183 375 Q 192 366 192 352 Q 190 328 168 321 L 168 288 L 168 288 L 248 288 L 248 288 L 248 444 L 248 444 L 248 448 L 248 448 L 248 496 L 248 496 L 196 496 L 196 496 Q 176 496 162 484 Q 148 471 145 453 L 143 444 L 143 444 L 135 446 L 135 446 Q 128 448 120 448 Q 96 447 80 432 Q 65 416 64 392 Q 64 383 67 375 L 69 368 L 69 368 L 61 365 L 61 365 Q 41 359 29 342 Q 16 326 16 304 Q 16 284 27 268 Q 38 252 55 245 L 65 241 L 65 241 L 59 233 L 59 233 Q 48 219 48 200 Q 48 179 62 164 Q 75 148 95 145 L 106 143 L 106 143 L 101 133 L 101 133 Q 96 124 96 112 Q 96 92 110 78 Q 124 65 144 64 L 144 64 L 144 64 L 151 64 L 151 64 L 152 57 L 152 57 Q 155 39 168 28 Q 181 16 200 16 L 200 16 Z M 264 152 L 344 152 L 264 152 L 344 152 L 344 193 L 344 193 Q 322 200 320 224 Q 320 238 329 247 Q 338 256 352 256 Q 366 256 375 247 Q 384 238 384 224 Q 382 200 360 193 L 360 144 L 360 144 L 360 136 L 360 136 L 352 136 L 264 136 L 264 64 L 264 64 L 264 16 L 264 16 L 312 16 L 312 16 Q 331 16 344 28 Q 357 39 360 57 L 361 64 L 361 64 L 368 64 L 368 64 L 368 64 L 368 64 Q 388 65 402 78 Q 415 92 416 112 Q 416 124 411 133 L 406 143 L 406 143 L 417 145 L 417 145 Q 437 148 450 164 Q 463 179 464 200 Q 464 219 453 233 L 447 241 L 447 241 L 457 245 L 457 245 Q 474 253 485 268 Q 496 284 496 304 Q 496 326 483 342 Q 471 359 451 365 L 443 368 L 443 368 L 445 375 L 445 375 Q 448 383 448 392 Q 447 416 431 432 Q 416 447 392 448 Q 384 448 377 446 L 368 444 L 368 444 L 367 453 L 367 453 Q 364 472 350 484 Q 336 496 316 496 L 264 496 L 264 496 L 264 448 L 264 448 L 264 444 L 264 444 L 264 376 L 264 376 L 337 376 L 337 376 Q 344 398 368 400 Q 381 400 390 391 Q 399 382 400 368 Q 399 354 390 345 Q 381 336 368 336 Q 344 338 337 360 L 264 360 L 264 360 L 264 152 L 264 152 Z M 196 512 L 248 512 L 196 512 L 316 512 Q 340 512 357 498 Q 375 485 381 463 Q 386 464 392 464 Q 423 463 443 443 Q 463 423 464 392 Q 464 385 463 378 Q 485 369 498 349 Q 512 329 512 304 Q 510 257 471 234 Q 480 219 480 200 Q 480 175 466 157 Q 452 138 429 131 Q 432 122 432 112 Q 431 86 415 69 Q 399 51 374 48 Q 368 27 352 14 Q 335 0 312 0 L 264 0 L 200 0 Q 177 0 160 14 Q 144 27 138 48 Q 113 51 97 69 Q 81 86 80 112 Q 80 122 83 131 Q 60 138 46 157 Q 32 175 32 200 Q 32 219 41 234 Q 2 257 0 304 Q 0 329 14 349 Q 27 369 49 378 Q 48 385 48 392 Q 49 423 69 443 Q 89 463 120 464 Q 125 464 131 463 Q 137 485 155 498 Q 172 512 196 512 L 196 512 Z M 176 128 Q 191 129 192 144 Q 191 159 176 160 Q 161 159 160 144 Q 161 129 176 128 L 176 128 Z M 160 336 Q 175 337 176 352 Q 175 367 160 368 Q 145 367 144 352 Q 145 337 160 336 L 160 336 Z M 336 224 Q 337 209 352 208 Q 367 209 368 224 Q 367 239 352 240 Q 337 239 336 224 L 336 224 Z M 368 352 Q 383 353 384 368 Q 383 383 368 384 Q 353 383 352 368 Q 353 353 368 352 L 368 352 Z" />
</svg>