<svg xmlns="http://www.w3.org/2000/svg" viewBox="0 0 368 368">
  <path d="M 235 251 L 309 325 L 235 251 L 309 325 L 320 336 L 320 336 L 309 347 L 309 347 L 288 368 L 288 368 L 16 368 L 0 368 L 0 352 L 0 352 L 0 80 L 0 80 L 21 59 L 21 59 L 32 48 L 32 48 L 43 59 L 43 59 L 117 133 L 117 133 L 128 144 L 128 144 L 139 133 L 139 133 L 261 11 L 261 11 L 272 0 L 272 0 L 283 11 L 283 11 L 357 85 L 357 85 L 368 96 L 368 96 L 357 107 L 357 107 L 235 229 L 235 229 L 224 240 L 224 240 L 235 251 L 235 251 Z M 345 96 L 272 23 L 345 96 L 272 23 L 139 155 L 139 155 L 128 167 L 128 167 L 117 155 L 117 155 L 32 71 L 32 71 L 16 87 L 16 87 L 16 352 L 16 352 L 281 352 L 281 352 L 297 336 L 297 336 L 213 251 L 213 251 L 201 240 L 201 240 L 213 229 L 213 229 L 345 96 L 345 96 Z" />
</svg>