<svg xmlns="http://www.w3.org/2000/svg" viewBox="0 0 448 507">
  <path d="M 230 5 L 224 0 L 230 5 L 224 0 L 218 5 L 218 5 L 82 141 L 82 141 L 77 147 L 77 147 L 88 158 L 88 158 L 94 153 L 94 153 L 216 30 L 216 30 L 216 339 L 216 339 L 216 347 L 216 347 L 232 347 L 232 347 L 232 339 L 232 339 L 232 30 L 232 30 L 354 153 L 354 153 L 360 158 L 360 158 L 371 147 L 371 147 L 366 141 L 366 141 L 230 5 L 230 5 Z M 16 323 L 16 315 L 16 323 L 16 315 L 0 315 L 0 315 L 0 323 L 0 323 L 0 499 L 0 499 L 0 507 L 0 507 L 8 507 L 448 507 L 448 499 L 448 499 L 448 323 L 448 323 L 448 315 L 448 315 L 432 315 L 432 315 L 432 323 L 432 323 L 432 491 L 432 491 L 16 491 L 16 491 L 16 323 L 16 323 Z" />
</svg>