<svg xmlns="http://www.w3.org/2000/svg" viewBox="0 0 576 448">
  <path d="M 296 38 L 296 426 L 296 38 L 296 426 Q 307 420 325 414 Q 367 396 432 392 Q 455 392 480 396 Q 506 399 528 404 Q 547 408 560 411 L 560 49 L 560 49 Q 559 49 559 49 Q 558 48 557 48 Q 547 42 527 35 Q 486 18 416 16 Q 369 17 332 28 Q 314 32 304 36 Q 299 37 296 38 L 296 38 L 296 38 Z M 280 426 L 280 38 L 280 426 L 280 38 L 280 38 L 280 38 Q 277 37 273 35 Q 264 32 247 27 Q 213 17 160 16 Q 90 18 49 35 Q 29 43 19 48 Q 18 48 17 49 Q 17 49 16 50 L 16 411 L 16 411 Q 29 408 48 404 Q 70 399 96 396 Q 121 392 144 392 Q 209 396 251 414 Q 269 420 280 426 L 280 426 Z M 416 0 Q 489 3 532 20 L 532 20 L 532 20 Q 575 38 576 40 L 576 415 L 576 415 L 576 432 L 576 432 Q 575 432 560 428 Q 537 422 501 415 Q 464 408 432 408 Q 371 411 330 428 Q 290 446 288 448 Q 286 446 246 428 Q 205 411 144 408 Q 112 408 75 415 Q 39 422 16 428 Q 1 432 0 432 Q 0 432 0 432 L 0 415 L 0 415 L 0 40 L 0 40 Q 1 38 44 20 Q 87 3 160 0 Q 215 2 251 12 Q 287 23 288 24 Q 290 23 328 12 Q 366 2 416 0 L 416 0 Z" />
</svg>