<svg xmlns="http://www.w3.org/2000/svg" viewBox="0 0 491 448">
  <path d="M 251 192 L 270 192 L 251 192 L 491 192 L 481 176 L 481 176 L 380 15 L 380 15 L 371 0 L 371 0 L 362 15 L 362 15 L 261 176 L 261 176 L 251 192 L 251 192 Z M 462 176 L 280 176 L 462 176 L 280 176 L 371 30 L 371 30 L 462 176 L 462 176 Z M 291 272 L 451 272 L 291 272 L 451 272 L 451 432 L 451 432 L 291 432 L 291 432 L 291 272 L 291 272 Z M 291 256 L 275 256 L 291 256 L 275 256 L 275 272 L 275 272 L 275 432 L 275 432 L 275 448 L 275 448 L 291 448 L 467 448 L 467 432 L 467 432 L 467 272 L 467 272 L 467 256 L 467 256 L 451 256 L 291 256 Z M 121 10 L 115 5 L 121 10 L 115 5 L 109 10 L 109 10 L 5 114 L 5 114 L 0 120 L 0 120 L 11 131 L 11 131 L 17 126 L 17 126 L 107 35 L 107 35 L 107 440 L 107 440 L 107 448 L 107 448 L 123 448 L 123 448 L 123 440 L 123 440 L 123 35 L 123 35 L 213 126 L 213 126 L 219 131 L 219 131 L 230 120 L 230 120 L 225 114 L 225 114 L 121 10 L 121 10 Z" />
</svg>