<svg xmlns="http://www.w3.org/2000/svg" viewBox="0 0 512 512">
  <path d="M 51 238 Q 63 256 63 278 Q 64 304 48 325 L 16 368 L 16 368 L 16 448 L 16 448 L 16 464 L 16 464 L 32 463 L 32 463 L 192 448 L 192 448 Q 224 448 249 468 L 304 512 L 304 512 L 384 512 L 400 512 L 398 496 L 398 496 L 392 436 L 392 436 Q 388 404 401 375 Q 413 346 439 327 L 512 272 L 512 272 L 512 192 L 512 192 L 438 164 L 438 164 Q 385 143 366 90 L 336 0 L 336 0 L 256 0 L 256 0 L 221 42 L 221 42 Q 200 67 170 78 Q 140 89 107 83 L 16 67 L 16 67 L 0 64 L 0 64 L 0 80 L 0 80 L 0 160 L 0 160 L 51 238 L 51 238 Z M 16 155 L 16 83 L 16 155 L 16 83 L 104 99 L 104 99 Q 141 106 175 93 Q 209 81 233 52 L 264 16 L 264 16 L 325 16 L 325 16 L 351 95 L 351 95 Q 372 155 432 179 L 496 203 L 496 203 L 496 264 L 496 264 L 429 314 L 429 314 Q 400 336 386 369 Q 372 401 376 438 L 382 496 L 382 496 L 310 496 L 310 496 L 259 456 L 259 456 Q 230 432 192 432 Q 191 432 191 432 L 32 447 L 32 447 L 32 373 L 32 373 L 61 335 L 61 335 Q 80 309 79 277 Q 79 251 64 229 L 16 155 L 16 155 Z" />
</svg>