<svg xmlns="http://www.w3.org/2000/svg" viewBox="0 0 448 512">
  <path d="M 335 65 Q 318 35 289 18 L 289 18 L 289 18 Q 260 0 224 0 Q 188 0 159 18 Q 130 35 113 65 Q 120 64 128 64 Q 130 64 132 64 Q 165 18 224 16 Q 283 18 316 64 Q 318 64 320 64 Q 328 64 335 65 L 335 65 Z M 200 118 Q 169 97 128 96 Q 74 97 37 133 Q 1 170 0 224 L 16 224 L 16 224 Q 17 176 49 145 Q 80 113 128 112 Q 163 113 190 131 Q 195 124 200 118 L 200 118 Z M 448 224 Q 447 170 411 133 L 411 133 L 411 133 Q 374 97 320 96 Q 266 97 229 133 Q 193 170 192 224 L 208 224 L 208 224 Q 209 176 241 145 Q 272 113 320 112 Q 368 113 399 145 Q 431 176 432 224 L 448 224 L 448 224 Z M 10 256 L 1 256 L 10 256 L 1 256 L 2 265 L 2 265 L 3 279 L 3 279 Q 10 339 52 377 Q 94 415 154 416 L 158 416 L 158 416 L 98 483 L 98 483 L 96 485 L 96 485 L 96 488 L 96 488 L 96 504 L 96 504 L 96 512 L 96 512 L 104 512 L 352 512 L 352 504 L 352 504 L 352 488 L 352 488 L 352 485 L 352 485 L 350 483 L 350 483 L 290 416 L 290 416 L 294 416 L 294 416 Q 354 415 396 377 Q 438 339 445 279 L 446 265 L 446 265 L 447 256 L 447 256 L 438 256 L 10 256 Z M 19 278 L 18 272 L 19 278 L 18 272 L 430 272 L 430 272 L 429 278 L 429 278 Q 422 331 385 365 Q 347 399 294 400 L 272 400 L 254 400 L 266 413 L 266 413 L 336 491 L 336 491 L 336 496 L 336 496 L 112 496 L 112 496 L 112 491 L 112 491 L 182 413 L 182 413 L 194 400 L 194 400 L 176 400 L 154 400 Q 101 399 63 365 Q 25 331 19 278 L 19 278 Z" />
</svg>