<svg xmlns="http://www.w3.org/2000/svg" viewBox="0 0 576 512">
  <path d="M 187 309 L 237 203 L 187 309 L 237 203 L 510 21 L 510 21 L 555 66 L 555 66 L 373 339 L 373 339 L 267 389 L 267 389 L 187 309 L 187 309 Z M 256 400 Q 256 404 256 408 Q 255 444 232 468 Q 210 492 175 496 L 171 496 L 16 496 L 16 464 L 16 464 L 32 464 L 80 464 L 80 448 L 80 448 L 80 408 L 80 408 Q 81 371 106 346 Q 131 321 168 320 Q 172 320 176 320 L 256 400 L 256 400 Z M 272 404 L 384 352 L 272 404 L 384 352 L 576 64 L 576 64 L 512 0 L 512 0 L 224 192 L 224 192 L 172 304 L 172 304 Q 171 304 170 304 Q 169 304 168 304 Q 124 305 94 334 Q 65 364 64 408 L 64 432 L 64 432 L 64 448 L 64 448 L 48 448 L 0 448 L 0 464 L 0 464 L 0 496 L 0 496 L 0 512 L 0 512 L 16 512 L 176 512 L 176 512 L 176 512 Q 217 508 244 479 Q 271 450 272 408 Q 272 406 272 404 L 272 404 Z" />
</svg>