<svg xmlns="http://www.w3.org/2000/svg" viewBox="0 0 640 512">
  <path d="M 16 16 L 16 496 L 16 16 L 16 496 L 144 496 L 144 496 L 144 384 L 144 384 L 144 368 L 144 368 L 160 368 L 240 368 L 240 384 L 240 384 L 240 496 L 240 496 L 368 496 L 368 496 L 368 16 L 368 16 L 16 16 L 16 16 Z M 160 496 L 224 496 L 160 496 L 224 496 L 224 384 L 224 384 L 160 384 L 160 384 L 160 496 L 160 496 Z M 144 512 L 16 512 L 144 512 L 0 512 L 0 496 L 0 496 L 0 16 L 0 16 L 0 0 L 0 0 L 16 0 L 384 0 L 384 16 L 384 16 L 384 496 L 384 496 L 384 512 L 384 512 L 368 512 L 144 512 Z M 80 232 L 144 232 L 80 232 L 152 232 L 152 240 L 152 240 L 152 304 L 152 304 L 152 312 L 152 312 L 144 312 L 72 312 L 72 304 L 72 304 L 72 240 L 72 240 L 72 232 L 72 232 L 80 232 L 80 232 Z M 88 296 L 136 296 L 88 296 L 136 296 L 136 248 L 136 248 L 88 248 L 88 248 L 88 296 L 88 296 Z M 232 232 L 240 232 L 232 232 L 312 232 L 312 240 L 312 240 L 312 304 L 312 304 L 312 312 L 312 312 L 304 312 L 232 312 L 232 304 L 232 304 L 232 240 L 232 240 L 232 232 L 232 232 Z M 248 248 L 248 296 L 248 248 L 248 296 L 296 296 L 296 296 L 296 248 L 296 248 L 248 248 L 248 248 Z M 80 104 L 144 104 L 80 104 L 152 104 L 152 112 L 152 112 L 152 176 L 152 176 L 152 184 L 152 184 L 144 184 L 72 184 L 72 176 L 72 176 L 72 112 L 72 112 L 72 104 L 72 104 L 80 104 L 80 104 Z M 88 168 L 136 168 L 88 168 L 136 168 L 136 120 L 136 120 L 88 120 L 88 120 L 88 168 L 88 168 Z M 232 104 L 240 104 L 232 104 L 312 104 L 312 112 L 312 112 L 312 176 L 312 176 L 312 184 L 312 184 L 304 184 L 232 184 L 232 176 L 232 176 L 232 112 L 232 112 L 232 104 L 232 104 Z M 248 120 L 248 168 L 248 120 L 248 168 L 296 168 L 296 168 L 296 120 L 296 120 L 248 120 L 248 120 Z M 432 0 L 432 8 L 432 0 L 432 8 L 432 32 L 432 32 L 624 32 L 640 32 L 640 48 L 640 48 L 640 192 L 640 192 L 640 208 L 640 208 L 624 208 L 432 208 L 432 504 L 432 504 L 432 512 L 432 512 L 416 512 L 416 512 L 416 504 L 416 504 L 416 208 L 416 208 L 416 192 L 416 192 L 416 48 L 416 48 L 416 32 L 416 32 L 416 8 L 416 8 L 416 0 L 416 0 L 432 0 L 432 0 Z M 432 192 L 624 192 L 432 192 L 624 192 L 624 48 L 624 48 L 432 48 L 432 48 L 432 192 L 432 192 Z" />
</svg>