<svg xmlns="http://www.w3.org/2000/svg" viewBox="0 0 512 512">
  <path d="M 168 0 L 168 8 L 168 0 L 168 8 L 168 64 L 168 64 L 248 64 L 248 64 L 248 8 L 248 8 L 248 0 L 248 0 L 264 0 L 264 0 L 264 8 L 264 8 L 264 64 L 264 64 L 344 64 L 344 64 L 344 8 L 344 8 L 344 0 L 344 0 L 360 0 L 360 0 L 360 8 L 360 8 L 360 64 L 360 64 L 432 64 L 448 64 L 448 80 L 448 80 L 448 152 L 448 152 L 504 152 L 512 152 L 512 168 L 512 168 L 504 168 L 448 168 L 448 248 L 448 248 L 504 248 L 512 248 L 512 264 L 512 264 L 504 264 L 448 264 L 448 344 L 448 344 L 504 344 L 512 344 L 512 360 L 512 360 L 504 360 L 448 360 L 448 432 L 448 432 L 448 448 L 448 448 L 432 448 L 360 448 L 360 504 L 360 504 L 360 512 L 360 512 L 344 512 L 344 512 L 344 504 L 344 504 L 344 448 L 344 448 L 264 448 L 264 448 L 264 504 L 264 504 L 264 512 L 264 512 L 248 512 L 248 512 L 248 504 L 248 504 L 248 448 L 248 448 L 168 448 L 168 448 L 168 504 L 168 504 L 168 512 L 168 512 L 152 512 L 152 512 L 152 504 L 152 504 L 152 448 L 152 448 L 80 448 L 64 448 L 64 432 L 64 432 L 64 360 L 64 360 L 8 360 L 0 360 L 0 344 L 0 344 L 8 344 L 64 344 L 64 264 L 64 264 L 8 264 L 0 264 L 0 248 L 0 248 L 8 248 L 64 248 L 64 168 L 64 168 L 8 168 L 0 168 L 0 152 L 0 152 L 8 152 L 64 152 L 64 80 L 64 80 L 64 64 L 64 64 L 80 64 L 152 64 L 152 8 L 152 8 L 152 0 L 152 0 L 168 0 L 168 0 Z M 168 80 L 152 80 L 168 80 L 80 80 L 80 152 L 80 152 L 80 168 L 80 168 L 80 248 L 80 248 L 80 264 L 80 264 L 80 344 L 80 344 L 80 360 L 80 360 L 80 432 L 80 432 L 152 432 L 432 432 L 432 360 L 432 360 L 432 344 L 432 344 L 432 264 L 432 264 L 432 248 L 432 248 L 432 168 L 432 168 L 432 152 L 432 152 L 432 80 L 432 80 L 360 80 L 168 80 Z M 328 176 L 344 176 L 328 176 L 344 176 L 344 184 L 344 184 L 344 328 L 344 328 L 344 336 L 344 336 L 328 336 L 328 336 L 328 328 L 328 328 L 328 184 L 328 184 L 328 176 L 328 176 Z M 132 336 L 201 181 L 132 336 L 201 181 L 203 176 L 203 176 L 213 176 L 213 176 L 215 181 L 215 181 L 284 336 L 284 336 L 267 336 L 267 336 L 253 304 L 253 304 L 248 304 L 163 304 L 149 336 L 149 336 L 132 336 L 132 336 Z M 246 288 L 208 204 L 246 288 L 208 204 L 171 288 L 171 288 L 245 288 L 246 288 Z" />
</svg>