<svg xmlns="http://www.w3.org/2000/svg" viewBox="0 0 512 512">
  <path d="M 264 8 L 264 0 L 264 8 L 264 0 L 248 0 L 248 0 L 248 8 L 248 8 L 248 48 L 248 48 Q 169 53 115 103 L 86 75 L 86 75 L 81 69 L 81 69 L 69 81 L 69 81 L 75 86 L 75 86 L 103 115 L 103 115 Q 53 169 48 248 L 8 248 L 0 248 L 0 264 L 0 264 L 8 264 L 48 264 Q 53 343 103 397 L 75 426 L 75 426 L 69 431 L 69 431 L 81 443 L 81 443 L 86 437 L 86 437 L 115 409 L 115 409 Q 169 459 248 464 L 248 504 L 248 504 L 248 512 L 248 512 L 264 512 L 264 512 L 264 504 L 264 504 L 264 464 L 264 464 Q 343 459 397 409 L 426 437 L 426 437 L 431 443 L 431 443 L 443 431 L 443 431 L 437 426 L 437 426 L 409 397 L 409 397 Q 459 343 464 264 L 504 264 L 512 264 L 512 248 L 512 248 L 504 248 L 464 248 Q 459 169 409 115 L 437 86 L 437 86 L 443 81 L 443 81 L 431 69 L 431 69 L 426 75 L 426 75 L 397 103 L 397 103 Q 343 53 264 48 L 264 8 L 264 8 Z M 248 64 L 248 160 L 248 64 L 248 160 Q 217 163 194 183 L 126 115 L 126 115 Q 176 69 248 64 L 248 64 Z M 264 160 L 264 64 L 264 160 L 264 64 Q 336 69 386 115 L 318 183 L 318 183 Q 295 163 264 160 L 264 160 Z M 329 194 L 397 126 L 329 194 L 397 126 Q 443 176 448 248 L 352 248 L 352 248 Q 349 217 329 194 L 329 194 Z M 352 264 L 448 264 L 352 264 L 448 264 Q 444 336 397 386 L 329 318 L 329 318 Q 349 295 352 264 L 352 264 Z M 200 199 Q 232 167 278 177 Q 322 190 335 235 Q 345 280 313 313 Q 280 345 234 335 Q 190 322 177 277 Q 167 232 200 199 L 200 199 Z M 264 352 Q 295 349 318 329 L 386 397 L 386 397 Q 336 443 264 448 L 264 352 L 264 352 Z M 248 352 L 248 448 L 248 352 L 248 448 Q 176 444 126 397 L 194 329 L 194 329 Q 217 349 248 352 L 248 352 Z M 115 386 Q 69 336 64 264 L 160 264 L 160 264 Q 163 295 183 318 L 115 386 L 115 386 Z M 64 248 Q 69 176 115 126 L 183 194 L 183 194 Q 163 217 160 248 L 64 248 L 64 248 Z" />
</svg>