<svg xmlns="http://www.w3.org/2000/svg" viewBox="0 0 514 514">
  <path d="M 271 33 Q 248 57 260 103 Q 272 150 317 197 Q 364 242 411 254 Q 457 266 481 243 Q 495 228 496 204 Q 496 187 492 172 Q 485 149 471 125 Q 457 101 435 79 Q 413 57 389 43 Q 365 29 342 22 Q 326 18 310 18 Q 285 19 271 33 L 271 33 Z M 407 270 Q 355 256 306 208 Q 258 159 244 107 Q 235 72 246 43 L 196 94 L 196 94 Q 145 146 144 218 L 144 316 L 144 316 L 199 370 L 199 370 L 296 370 L 296 370 Q 368 369 420 319 L 471 268 L 471 268 Q 442 279 407 270 L 407 270 Z M 446 68 Q 469 91 485 117 Q 501 143 507 169 Q 512 187 512 204 Q 514 244 484 278 L 432 330 L 432 330 Q 375 385 296 386 L 195 386 L 195 386 L 175 407 L 175 407 Q 191 424 192 450 Q 191 477 173 495 Q 155 513 128 514 Q 101 513 83 495 Q 65 477 64 450 Q 37 449 19 431 Q 1 413 0 386 Q 1 359 19 341 Q 37 323 64 322 Q 90 323 108 339 L 128 319 L 128 319 L 128 218 L 128 218 Q 129 139 184 82 L 236 30 L 236 30 Q 270 0 310 2 Q 327 2 346 7 Q 371 13 397 29 Q 423 45 446 68 L 446 68 Z M 136 330 Q 136 330 136 330 L 136 330 L 136 330 Q 136 330 136 330 L 138 332 L 138 332 L 113 356 L 113 356 L 107 363 L 107 363 L 101 356 L 101 356 Q 87 339 64 338 Q 44 339 30 352 Q 17 366 16 386 Q 17 406 30 420 Q 44 433 64 434 Q 68 434 71 433 L 82 432 L 82 432 L 81 442 L 81 442 Q 80 446 80 450 Q 80 470 94 484 Q 108 497 128 498 Q 148 497 162 484 Q 175 470 176 450 Q 175 427 158 413 L 151 407 L 151 407 L 158 401 L 158 401 L 182 376 L 182 376 L 184 378 L 184 378 Q 184 378 184 378 Q 184 378 184 378 L 136 330 L 136 330 Z M 354 116 Q 351 118 353 128 Q 355 138 366 148 Q 376 159 386 161 Q 396 163 398 160 Q 401 158 399 148 Q 397 138 386 128 Q 376 117 366 115 Q 356 113 354 116 L 354 116 Z M 398 116 Q 411 129 415 144 Q 419 159 409 171 Q 397 181 382 177 Q 367 173 354 160 Q 341 147 337 132 Q 333 117 343 105 Q 355 95 370 99 Q 385 103 398 116 L 398 116 Z" />
</svg>