<svg xmlns="http://www.w3.org/2000/svg" viewBox="0 0 640 512">
  <path d="M 8 0 L 0 0 L 8 0 L 0 0 L 0 16 L 0 16 L 8 16 L 112 16 L 112 424 L 112 424 L 112 432 L 112 432 L 120 432 L 188 432 Q 176 445 176 464 Q 177 484 190 498 Q 204 511 224 512 Q 244 511 258 498 Q 271 484 272 464 Q 272 445 260 432 L 476 432 L 476 432 Q 464 445 464 464 Q 465 484 478 498 Q 492 511 512 512 Q 532 511 546 498 Q 559 484 560 464 Q 560 445 548 432 L 632 432 L 640 432 L 640 416 L 640 416 L 632 416 L 128 416 L 128 8 L 128 8 L 128 0 L 128 0 L 120 0 L 8 0 Z M 544 464 Q 544 478 535 487 L 535 487 L 535 487 Q 526 496 512 496 Q 498 496 489 487 Q 480 478 480 464 Q 480 450 489 441 Q 498 432 512 432 Q 526 432 535 441 Q 544 450 544 464 L 544 464 Z M 224 496 Q 210 496 201 487 L 201 487 L 201 487 Q 192 478 192 464 Q 192 450 201 441 Q 210 432 224 432 Q 238 432 247 441 Q 256 450 256 464 Q 256 478 247 487 Q 238 496 224 496 L 224 496 Z M 208 80 L 368 80 L 208 80 L 368 80 L 368 336 L 368 336 L 208 336 L 208 336 L 208 80 L 208 80 Z M 192 64 L 192 80 L 192 64 L 192 80 L 192 336 L 192 336 L 192 352 L 192 352 L 208 352 L 384 352 L 384 336 L 384 336 L 384 80 L 384 80 L 384 64 L 384 64 L 368 64 L 192 64 Z M 432 80 L 528 80 L 432 80 L 528 80 L 528 176 L 528 176 L 432 176 L 432 176 L 432 80 L 432 80 Z M 416 64 L 416 80 L 416 64 L 416 80 L 416 176 L 416 176 L 416 192 L 416 192 L 432 192 L 544 192 L 544 176 L 544 176 L 544 80 L 544 80 L 544 64 L 544 64 L 528 64 L 416 64 Z M 592 240 L 592 336 L 592 240 L 592 336 L 432 336 L 432 336 L 432 240 L 432 240 L 592 240 L 592 240 Z M 432 224 L 416 224 L 432 224 L 416 224 L 416 240 L 416 240 L 416 336 L 416 336 L 416 352 L 416 352 L 432 352 L 608 352 L 608 336 L 608 336 L 608 240 L 608 240 L 608 224 L 608 224 L 592 224 L 432 224 Z" />
</svg>