<svg xmlns="http://www.w3.org/2000/svg" viewBox="0 0 512 512">
  <path d="M 160 416 L 144 416 L 160 416 L 0 416 L 0 400 L 0 400 L 0 16 L 0 16 L 0 0 L 0 0 L 16 0 L 512 0 L 512 16 L 512 16 L 512 400 L 512 400 L 512 416 L 512 416 L 496 416 L 304 416 L 176 501 L 176 501 L 160 512 L 160 512 L 160 493 L 160 493 L 160 432 L 160 432 L 160 416 L 160 416 Z M 160 400 L 176 400 L 160 400 L 176 400 L 176 416 L 176 416 L 176 482 L 176 482 L 295 403 L 295 403 L 299 400 L 299 400 L 304 400 L 496 400 L 496 16 L 496 16 L 16 16 L 16 16 L 16 400 L 16 400 L 160 400 L 160 400 Z M 168 136 Q 169 112 184 96 L 184 96 L 184 96 Q 200 81 224 80 L 280 80 L 280 80 Q 307 81 325 99 Q 343 117 344 144 Q 343 178 315 197 L 264 231 L 264 231 L 264 256 L 264 256 L 264 264 L 264 264 L 248 264 L 248 264 L 248 256 L 248 256 L 248 227 L 248 227 L 248 222 L 248 222 L 252 220 L 252 220 L 307 184 L 307 184 Q 327 169 328 144 Q 327 123 314 110 Q 301 96 280 96 L 224 96 L 224 96 Q 207 96 196 108 Q 184 119 184 136 L 184 143 L 184 143 L 168 143 L 168 143 L 168 136 L 168 136 Z M 240 288 L 272 288 L 240 288 L 272 288 L 272 320 L 272 320 L 240 320 L 240 320 L 240 288 L 240 288 Z" />
</svg>