<svg xmlns="http://www.w3.org/2000/svg" viewBox="0 0 448 400">
  <path d="M 0 0 L 8 0 L 0 0 L 448 0 L 448 16 L 448 16 L 440 16 L 0 16 L 0 0 L 0 0 Z M 192 128 L 200 128 L 192 128 L 448 128 L 448 144 L 448 144 L 440 144 L 192 144 L 192 128 L 192 128 Z M 200 256 L 440 256 L 200 256 L 448 256 L 448 272 L 448 272 L 440 272 L 192 272 L 192 256 L 192 256 L 200 256 L 200 256 Z M 0 384 L 8 384 L 0 384 L 448 384 L 448 400 L 448 400 L 440 400 L 0 400 L 0 384 L 0 384 Z M 115 190 L 128 200 L 115 190 L 128 200 L 115 210 L 115 210 L 16 284 L 16 284 L 0 296 L 0 296 L 0 276 L 0 276 L 0 124 L 0 124 L 0 104 L 0 104 L 16 116 L 16 116 L 115 190 L 115 190 Z M 16 136 L 16 264 L 16 136 L 16 264 L 101 200 L 101 200 L 16 136 L 16 136 Z" />
</svg>