<svg xmlns="http://www.w3.org/2000/svg" viewBox="0 0 446 480">
  <path d="M 415 192 Q 413 110 359 56 L 359 56 L 359 56 Q 305 2 223 0 Q 141 2 87 56 Q 33 110 31 192 L 47 192 L 47 192 Q 49 117 99 68 Q 148 18 223 16 Q 298 18 347 68 Q 397 117 399 192 L 415 192 L 415 192 Z M 9 224 L 0 224 L 9 224 L 0 224 L 1 233 L 1 233 L 2 247 L 2 247 Q 9 307 51 345 Q 93 383 153 384 L 157 384 L 157 384 L 97 451 L 97 451 L 95 453 L 95 453 L 95 456 L 95 456 L 95 472 L 95 472 L 95 480 L 95 480 L 103 480 L 351 480 L 351 472 L 351 472 L 351 456 L 351 456 L 351 453 L 351 453 L 349 451 L 349 451 L 289 384 L 289 384 L 293 384 L 293 384 Q 353 383 395 345 Q 437 307 444 247 L 445 233 L 445 233 L 446 224 L 446 224 L 437 224 L 9 224 Z M 18 246 L 17 240 L 18 246 L 17 240 L 429 240 L 429 240 L 428 246 L 428 246 Q 421 299 384 333 Q 346 367 293 368 L 271 368 L 253 368 L 265 381 L 265 381 L 335 459 L 335 459 L 335 464 L 335 464 L 111 464 L 111 464 L 111 459 L 111 459 L 181 381 L 181 381 L 193 368 L 193 368 L 175 368 L 153 368 Q 100 367 62 333 Q 24 299 18 246 L 18 246 Z" />
</svg>