<svg xmlns="http://www.w3.org/2000/svg" viewBox="0 0 512 512">
  <path d="M 332 0 L 337 6 L 332 0 L 337 6 L 358 26 L 358 26 L 486 154 L 486 154 L 506 175 L 506 175 L 512 181 L 512 181 L 501 192 L 501 192 L 495 186 L 495 186 L 480 171 L 480 171 L 382 270 L 382 270 L 168 483 L 168 483 Q 139 511 99 512 Q 57 511 29 483 Q 1 455 0 414 Q 1 373 29 344 L 114 258 L 114 258 L 341 32 L 341 32 L 326 17 L 326 17 L 320 12 L 320 12 L 332 0 L 332 0 Z M 352 43 L 139 256 L 352 43 L 139 256 L 373 256 L 373 256 L 469 160 L 469 160 L 352 43 L 352 43 Z M 357 272 L 123 272 L 357 272 L 123 272 L 40 355 L 40 355 Q 16 380 16 414 Q 17 449 40 472 Q 63 495 99 496 Q 133 496 157 472 L 357 272 L 357 272 Z" />
</svg>