<svg xmlns="http://www.w3.org/2000/svg" viewBox="0 0 448 512">
  <path d="M 0 56 Q 1 32 16 16 L 16 16 L 16 16 Q 32 1 56 0 L 440 0 L 448 0 L 448 8 L 448 8 L 448 408 L 448 408 L 448 416 L 448 416 L 440 416 L 416 416 L 416 496 L 416 496 L 440 496 L 448 496 L 448 512 L 448 512 L 440 512 L 56 512 Q 32 511 16 496 Q 1 480 0 456 L 0 56 L 0 56 Z M 56 416 Q 39 416 28 428 L 28 428 L 28 428 Q 16 439 16 456 Q 16 473 28 484 Q 39 496 56 496 L 400 496 L 400 496 L 400 416 L 400 416 L 56 416 L 56 416 Z M 16 417 Q 32 401 56 400 L 112 400 L 112 400 L 112 16 L 112 16 L 56 16 L 56 16 Q 39 16 28 28 Q 16 39 16 56 L 16 417 L 16 417 Z M 128 16 L 128 400 L 128 16 L 128 400 L 432 400 L 432 400 L 432 16 L 432 16 L 128 16 L 128 16 Z M 176 128 L 184 128 L 176 128 L 384 128 L 384 144 L 384 144 L 376 144 L 176 144 L 176 128 L 176 128 Z M 176 208 L 184 208 L 176 208 L 384 208 L 384 224 L 384 224 L 376 224 L 176 224 L 176 208 L 176 208 Z" />
</svg>