<svg xmlns="http://www.w3.org/2000/svg" viewBox="0 0 640 320">
  <path d="M 0 0 L 199 0 L 0 0 L 199 0 L 320 136 L 320 136 L 441 0 L 441 0 L 640 0 L 640 0 L 640 320 L 640 320 L 441 320 L 441 320 L 320 184 L 320 184 L 199 320 L 199 320 L 0 320 L 0 320 L 0 0 L 0 0 Z M 299 160 L 185 32 L 299 160 L 185 32 L 32 32 L 32 32 L 32 288 L 32 288 L 185 288 L 185 288 L 299 160 L 299 160 Z M 341 160 L 455 288 L 341 160 L 455 288 L 608 288 L 608 288 L 608 32 L 608 32 L 455 32 L 455 32 L 341 160 L 341 160 Z" />
</svg>