<svg xmlns="http://www.w3.org/2000/svg" viewBox="0 0 644 516">
  <path d="M 567 133 L 578 122 L 567 133 L 578 122 L 567 111 L 567 111 L 469 13 L 469 13 L 458 2 L 458 2 L 447 13 L 447 13 L 306 154 L 306 154 L 319 164 L 319 164 L 380 103 L 380 103 L 477 200 L 477 200 L 428 250 L 428 250 L 440 260 L 440 260 L 567 133 L 567 133 Z M 129 354 L 216 266 L 129 354 L 216 266 L 204 256 L 204 256 L 106 354 L 106 354 L 70 496 L 70 496 L 66 514 L 66 514 L 84 510 L 84 510 L 226 474 L 226 474 L 338 362 L 338 362 L 325 352 L 325 352 L 226 451 L 226 451 L 226 410 L 226 410 L 226 402 L 226 402 L 218 402 L 178 402 L 178 362 L 178 362 L 178 354 L 178 354 L 170 354 L 129 354 Z M 211 461 L 88 492 L 211 461 L 88 492 L 119 369 L 119 369 Q 120 370 122 370 L 162 370 L 162 370 L 162 410 L 162 410 L 162 418 L 162 418 L 170 418 L 210 418 L 210 458 L 210 458 Q 210 460 211 461 L 211 461 Z M 555 122 L 488 189 L 555 122 L 488 189 L 391 92 L 391 92 L 458 25 L 458 25 L 555 122 L 555 122 Z M 15 4 Q 9 0 4 5 Q 0 11 5 16 L 629 512 L 629 512 Q 635 516 640 511 Q 644 505 639 500 L 15 4 L 15 4 Z" />
</svg>