<svg xmlns="http://www.w3.org/2000/svg" viewBox="0 0 576 512">
  <path d="M 80 32 L 80 0 L 80 32 L 80 0 L 96 0 L 96 0 L 96 32 L 96 32 L 480 32 L 480 32 L 480 0 L 480 0 L 496 0 L 496 0 L 496 32 L 496 32 L 560 32 L 576 32 L 576 48 L 576 48 L 576 400 L 576 400 L 576 416 L 576 416 L 560 416 L 496 416 L 496 512 L 496 512 L 480 512 L 480 512 L 480 416 L 480 416 L 96 416 L 96 416 L 96 512 L 96 512 L 80 512 L 80 512 L 80 416 L 80 416 L 16 416 L 0 416 L 0 400 L 0 400 L 0 48 L 0 48 L 0 32 L 0 32 L 16 32 L 80 32 Z M 560 48 L 16 48 L 560 48 L 16 48 L 16 400 L 16 400 L 560 400 L 560 400 L 560 48 L 560 48 Z" />
</svg>