<svg xmlns="http://www.w3.org/2000/svg" viewBox="0 0 448 448">
  <path d="M 18 144 L 216 144 L 18 144 L 216 144 L 216 16 L 216 16 L 74 16 L 74 16 L 18 144 L 18 144 Z M 431 144 L 374 16 L 431 144 L 374 16 L 232 16 L 232 16 L 232 144 L 232 144 L 431 144 L 431 144 Z M 16 160 L 16 432 L 16 160 L 16 432 L 432 432 L 432 432 L 432 160 L 432 160 L 16 160 L 16 160 Z M 64 0 L 384 0 L 64 0 L 384 0 L 448 144 L 448 144 L 448 432 L 448 432 L 448 448 L 448 448 L 432 448 L 0 448 L 0 432 L 0 432 L 0 144 L 0 144 L 64 0 L 64 0 Z M 326 230 L 198 358 L 326 230 L 198 358 L 192 363 L 192 363 L 186 358 L 186 358 L 122 294 L 122 294 L 117 288 L 117 288 L 128 277 L 128 277 L 134 282 L 134 282 L 192 341 L 192 341 L 314 218 L 314 218 L 320 213 L 320 213 L 331 224 L 331 224 L 326 230 L 326 230 Z" />
</svg>