<svg xmlns="http://www.w3.org/2000/svg" viewBox="0 0 512 512">
  <path d="M 496 256 Q 495 191 464 136 L 464 136 L 464 136 Q 432 81 376 48 Q 319 16 256 16 Q 193 16 136 48 Q 80 81 48 136 Q 17 191 16 256 Q 17 321 48 376 Q 80 431 136 464 Q 193 496 256 496 Q 319 496 376 464 Q 432 431 464 376 Q 495 321 496 256 L 496 256 Z M 0 256 Q 1 186 34 128 L 34 128 L 34 128 Q 68 70 128 34 Q 189 0 256 0 Q 323 0 384 34 Q 444 70 478 128 Q 511 186 512 256 Q 511 326 478 384 Q 444 442 384 478 Q 323 512 256 512 Q 189 512 128 478 Q 68 442 34 384 Q 1 326 0 256 L 0 256 Z M 144 144 L 144 208 L 144 144 L 144 208 L 176 208 L 176 208 L 176 144 L 176 144 L 144 144 L 144 144 Z M 128 128 L 144 128 L 128 128 L 192 128 L 192 144 L 192 144 L 192 208 L 192 208 L 192 224 L 192 224 L 176 224 L 128 224 L 128 208 L 128 208 L 128 144 L 128 144 L 128 128 L 128 128 Z M 240 144 L 240 208 L 240 144 L 240 208 L 272 208 L 272 208 L 272 144 L 272 144 L 240 144 L 240 144 Z M 240 128 L 272 128 L 240 128 L 288 128 L 288 144 L 288 144 L 288 208 L 288 208 L 288 224 L 288 224 L 272 224 L 224 224 L 224 208 L 224 208 L 224 144 L 224 144 L 224 128 L 224 128 L 240 128 L 240 128 Z M 336 144 L 336 208 L 336 144 L 336 208 L 368 208 L 368 208 L 368 144 L 368 144 L 336 144 L 336 144 Z M 320 128 L 336 128 L 320 128 L 384 128 L 384 144 L 384 144 L 384 208 L 384 208 L 384 224 L 384 224 L 368 224 L 320 224 L 320 208 L 320 208 L 320 144 L 320 144 L 320 128 L 320 128 Z" />
</svg>