<svg xmlns="http://www.w3.org/2000/svg" viewBox="0 0 640 512">
  <path d="M 16 5 L 10 0 L 16 5 L 10 0 L 0 13 L 0 13 L 6 18 L 6 18 L 624 507 L 624 507 L 630 512 L 630 512 L 640 500 L 640 500 L 634 495 L 634 495 L 16 5 L 16 5 Z M 487 480 L 467 464 L 487 480 L 467 464 L 55 464 L 55 464 L 16 425 L 16 425 L 16 400 L 16 400 L 386 400 L 386 400 L 366 384 L 366 384 L 16 384 L 0 384 L 0 400 L 0 400 L 0 432 L 0 432 L 48 480 L 48 480 L 487 480 L 487 480 Z M 560 352 L 576 352 L 560 352 L 576 352 L 576 48 L 576 48 L 576 32 L 576 32 L 560 32 L 152 32 L 173 48 L 173 48 L 560 48 L 560 48 L 560 352 L 560 352 Z M 64 146 L 64 352 L 64 146 L 64 352 L 80 352 L 80 352 L 80 158 L 80 158 L 64 146 L 64 146 Z" />
</svg>