<svg xmlns="http://www.w3.org/2000/svg" viewBox="0 0 448 448">
  <path d="M 214 45 Q 181 17 136 16 Q 85 17 51 51 Q 17 85 16 136 Q 17 181 45 214 L 53 224 L 53 224 L 45 234 L 45 234 Q 17 267 16 312 Q 17 363 51 397 Q 85 431 136 432 Q 181 431 214 404 L 224 395 L 224 395 L 234 404 L 234 404 Q 267 431 312 432 Q 363 431 397 397 Q 431 363 432 312 Q 431 267 404 234 L 395 224 L 395 224 L 404 214 L 404 214 Q 431 181 432 136 Q 431 85 397 51 Q 363 17 312 16 Q 267 17 234 45 L 224 53 L 224 53 L 214 45 L 214 45 Z M 448 136 Q 447 187 416 224 Q 447 261 448 312 Q 447 370 408 408 Q 370 447 312 448 Q 261 447 224 416 Q 187 447 136 448 Q 78 447 40 408 Q 1 370 0 312 Q 1 261 32 224 Q 1 187 0 136 Q 1 78 40 40 Q 78 1 136 0 Q 187 1 224 32 Q 261 1 312 0 Q 370 1 408 40 Q 447 78 448 136 L 448 136 Z M 224 320 L 213 309 L 224 320 L 213 309 L 139 235 L 139 235 L 128 224 L 128 224 L 139 213 L 139 213 L 213 139 L 213 139 L 224 128 L 224 128 L 235 139 L 235 139 L 309 213 L 309 213 L 320 224 L 320 224 L 309 235 L 309 235 L 235 309 L 235 309 L 224 320 L 224 320 Z M 224 151 L 151 224 L 224 151 L 151 224 L 224 297 L 224 297 L 297 224 L 297 224 L 224 151 L 224 151 Z" />
</svg>