<svg xmlns="http://www.w3.org/2000/svg" viewBox="0 0 512 512">
  <path d="M 272 496 L 272 464 L 272 496 L 272 464 L 216 464 L 213 464 L 210 462 L 210 462 L 162 414 L 162 414 L 160 411 L 160 411 L 160 408 L 160 408 L 160 296 L 160 296 L 160 288 L 160 288 L 168 288 L 315 288 L 318 290 L 318 290 L 363 336 L 363 336 L 392 336 L 395 336 L 398 338 L 398 338 L 427 368 L 427 368 L 456 368 L 464 368 L 464 376 L 464 376 Q 475 357 482 336 L 440 336 L 437 336 L 434 334 L 434 334 L 386 286 L 386 286 L 384 283 L 384 283 L 384 280 L 384 280 L 384 200 L 384 200 L 384 192 L 384 192 L 392 192 L 416 192 L 416 176 L 416 176 L 368 176 L 368 176 L 368 216 L 368 216 L 368 224 L 368 224 L 360 224 L 272 224 L 272 248 L 272 248 L 272 256 L 272 256 L 264 256 L 192 256 L 192 248 L 192 248 L 192 216 L 192 216 L 192 213 L 192 213 L 194 211 L 194 211 L 272 133 L 272 133 L 272 128 L 272 128 L 232 128 L 224 128 L 224 120 L 224 120 L 224 88 L 224 88 L 224 85 L 224 85 L 226 82 L 226 82 L 290 18 L 290 18 Q 273 16 256 16 Q 189 17 135 49 Q 81 81 49 135 Q 17 189 16 256 Q 17 323 49 377 Q 81 431 135 463 Q 189 495 256 496 Q 264 496 272 496 L 272 496 Z M 240 91 L 240 112 L 240 91 L 240 112 L 280 112 L 288 112 L 288 120 L 288 120 L 288 136 L 288 136 L 288 139 L 288 139 L 286 142 L 286 142 L 208 219 L 208 219 L 208 240 L 208 240 L 256 240 L 256 240 L 256 216 L 256 216 L 256 208 L 256 208 L 264 208 L 352 208 L 352 168 L 352 168 L 352 160 L 352 160 L 360 160 L 432 160 L 432 168 L 432 168 L 432 200 L 432 200 L 432 208 L 432 208 L 424 208 L 400 208 L 400 277 L 400 277 L 443 320 L 443 320 L 487 320 L 487 320 Q 496 289 496 256 Q 494 169 443 105 Q 391 42 309 22 L 240 91 L 240 91 Z M 288 494 Q 337 487 378 463 L 378 463 L 378 463 Q 419 438 448 400 Q 448 400 448 400 Q 448 400 448 400 L 448 384 L 448 384 L 424 384 L 421 384 L 418 382 L 418 382 L 389 352 L 389 352 L 360 352 L 357 352 L 354 350 L 354 350 L 309 304 L 309 304 L 176 304 L 176 304 L 176 405 L 176 405 L 219 448 L 219 448 L 280 448 L 288 448 L 288 456 L 288 456 L 288 494 L 288 494 Z M 0 256 Q 1 186 34 128 L 34 128 L 34 128 Q 68 70 128 34 Q 189 0 256 0 Q 323 0 384 34 Q 444 70 478 128 Q 511 186 512 256 Q 511 326 478 384 Q 444 442 384 478 Q 323 512 256 512 Q 189 512 128 478 Q 68 442 34 384 Q 1 326 0 256 L 0 256 Z M 182 118 L 150 150 L 182 118 L 150 150 L 144 155 L 144 155 L 133 144 L 133 144 L 138 138 L 138 138 L 170 106 L 170 106 L 176 101 L 176 101 L 187 112 L 187 112 L 182 118 L 182 118 Z" />
</svg>