<svg xmlns="http://www.w3.org/2000/svg" viewBox="0 0 512 512">
  <path d="M 278.4 338.4 L 223.2 435.2 L 170.4 435.2 L 206.4 310.4 L 211.2 294.4 L 193.6 294.4 L 134.4 294.4 L 128 294.4 L 124 299.2 L 89.6 345.6 L 61.6 345.6 L 83.2 259.2 L 84 256 L 83.2 252.8 L 61.6 168 L 28.8 141.6 L 32.8 156.8 L 57.6 256 L 32.8 355.2 L 28.8 371.2 L 44.8 371.2 L 96 371.2 L 102.4 371.2 L 106.4 366.4 L 140.8 320 L 176.8 320 L 141.6 444.8 L 136.8 460.8 L 153.6 460.8 L 230.4 460.8 L 237.6 460.8 L 241.6 454.4 L 298.4 354.4 L 278.4 338.4 L 278.4 338.4 Z M 141.6 67.2 L 153.6 109.6 L 188 136.8 L 170.4 76.8 L 223.2 76.8 L 300 211.2 L 303.2 217.6 L 311.2 217.6 L 398.4 217.6 Q 416.8 217.6 440 231.2 Q 450.4 237.6 456 244 Q 460.8 251.2 460.8 256 Q 460.8 268 440 281.6 Q 416.8 294.4 398.4 294.4 L 387.2 294.4 L 416.8 317.6 Q 436 313.6 452.8 303.2 Q 465.6 296 476 284 Q 485.6 272 486.4 256 Q 485.6 240 476 228 Q 466.4 216.8 452.8 208.8 Q 425.6 192.8 398.4 192 L 318.4 192 L 241.6 57.6 L 237.6 51.2 L 230.4 51.2 L 153.6 51.2 L 136.8 51.2 L 141.6 67.2 L 141.6 67.2 Z M 25.6 59.2 L 16 51.2 L 0 71.2 L 10.4 79.2 L 486.4 452.8 L 496 460.8 L 512 440.8 L 502.4 432.8 L 25.6 59.2 L 25.6 59.2 Z" />
</svg>