<svg xmlns="http://www.w3.org/2000/svg" viewBox="0 0 512 384">
  <path d="M 496 0 L 496 8 L 496 0 L 496 8 L 496 181 L 496 181 L 256 11 L 256 11 L 240 0 L 240 0 L 240 20 L 240 20 L 240 169 L 240 169 L 16 11 L 16 11 L 0 0 L 0 0 L 0 20 L 0 20 L 0 364 L 0 364 L 0 384 L 0 384 L 16 373 L 16 373 L 240 215 L 240 215 L 240 364 L 240 364 L 240 384 L 240 384 L 256 373 L 256 373 L 496 203 L 496 203 L 496 376 L 496 376 L 496 384 L 496 384 L 512 384 L 512 384 L 512 376 L 512 376 L 512 192 L 512 192 L 512 8 L 512 8 L 512 0 L 512 0 L 496 0 L 496 0 Z M 256 203 L 256 181 L 256 203 L 256 181 L 256 31 L 256 31 L 484 192 L 484 192 L 256 353 L 256 353 L 256 203 L 256 203 Z M 240 195 L 16 353 L 240 195 L 16 353 L 16 31 L 16 31 L 240 189 L 240 189 L 240 195 L 240 195 Z" />
</svg>