<svg xmlns="http://www.w3.org/2000/svg" viewBox="0 0 522 507">
  <path d="M 506 54 L 479 94 L 506 54 L 479 94 L 446 143 L 446 143 L 366 90 L 366 90 L 399 40 L 399 40 L 426 0 L 426 0 L 506 54 L 506 54 Z M 348 116 L 428 170 L 348 116 L 428 170 L 240 449 L 240 449 Q 221 476 193 491 Q 165 506 131 507 Q 75 506 38 468 Q 1 431 0 374 L 0 372 L 0 372 Q 0 332 21 299 L 39 273 L 39 273 L 65 233 L 65 233 L 145 285 L 145 285 L 119 325 L 119 325 L 102 352 L 102 352 Q 96 361 96 372 L 96 375 L 96 375 Q 96 390 106 400 Q 116 410 131 411 Q 150 410 160 395 L 348 116 L 348 116 Z M 431 347 Q 476 348 500 387 Q 522 427 500 467 Q 476 506 431 507 Q 386 506 362 467 Q 340 427 362 387 Q 386 348 431 347 L 431 347 Z" />
</svg>