<svg xmlns="http://www.w3.org/2000/svg" viewBox="0 0 640 512">
  <path d="M 564 115 L 576 104 L 564 115 L 576 104 L 565 93 L 565 93 L 483 11 L 483 11 L 472 0 L 472 0 L 461 12 L 461 12 L 322 166 L 322 166 L 335 176 L 335 176 L 473 23 L 473 23 L 553 103 L 553 103 L 408 234 L 408 234 L 421 244 L 421 244 L 564 115 L 564 115 Z M 312 342 L 283 435 L 312 342 L 283 435 L 100 494 L 100 494 L 97 490 L 97 490 L 170 417 L 170 417 Q 180 424 192 424 Q 209 423 220 412 Q 232 401 232 384 Q 232 367 220 356 Q 209 344 192 344 Q 175 344 164 356 Q 153 367 152 384 Q 152 396 159 406 L 86 479 L 86 479 L 82 476 L 82 476 L 141 293 L 141 293 L 219 268 L 219 268 L 204 256 L 204 256 L 128 280 L 128 280 L 64 480 L 64 480 L 74 490 L 74 490 L 86 502 L 86 502 L 96 512 L 96 512 L 296 448 L 296 448 L 326 352 L 326 352 L 313 342 L 312 342 Z M 168 384 Q 170 362 192 360 Q 214 362 216 384 Q 214 406 192 408 Q 170 406 168 384 L 168 384 Z M 16 5 L 10 0 L 16 5 L 10 0 L 0 13 L 0 13 L 6 18 L 6 18 L 624 507 L 624 507 L 630 512 L 630 512 L 640 500 L 640 500 L 634 495 L 634 495 L 16 5 L 16 5 Z" />
</svg>