<svg xmlns="http://www.w3.org/2000/svg" viewBox="0 0 512 384">
  <path d="M 496 16 L 496 368 L 496 16 L 496 368 L 16 368 L 16 368 L 16 16 L 16 16 L 496 16 L 496 16 Z M 16 0 L 0 0 L 16 0 L 0 0 L 0 16 L 0 16 L 0 368 L 0 368 L 0 384 L 0 384 L 16 384 L 512 384 L 512 368 L 512 368 L 512 16 L 512 16 L 512 0 L 512 0 L 496 0 L 16 0 Z M 64 256 L 64 272 L 64 256 L 64 272 L 72 272 L 160 272 L 160 256 L 160 256 L 152 256 L 64 256 Z M 192 256 L 192 272 L 192 256 L 192 272 L 200 272 L 288 272 L 288 256 L 288 256 L 280 256 L 192 256 Z M 80 80 L 432 80 L 80 80 L 432 80 L 432 176 L 432 176 L 80 176 L 80 176 L 80 80 L 80 80 Z M 64 64 L 64 80 L 64 64 L 64 80 L 64 176 L 64 176 L 64 192 L 64 192 L 80 192 L 448 192 L 448 176 L 448 176 L 448 80 L 448 80 L 448 64 L 448 64 L 432 64 L 64 64 Z" />
</svg>