<svg xmlns="http://www.w3.org/2000/svg" viewBox="0 0 520 519">
  <path d="M 240 487 L 184 431 L 240 487 L 184 431 L 173 420 L 173 420 L 162 431 L 162 431 L 91 507 L 91 507 L 80 519 L 80 519 L 69 508 L 69 508 L 11 450 L 11 450 L 0 439 L 0 439 L 12 428 L 12 428 L 88 357 L 88 357 L 99 346 L 99 346 L 88 335 L 88 335 L 32 279 L 32 279 L 32 170 L 32 170 L 130 73 L 130 73 Q 174 29 231 14 Q 288 0 345 14 Q 402 29 446 73 Q 497 124 508 191 Q 520 258 493 321 Q 487 316 480 312 Q 504 254 492 193 Q 481 131 435 84 Q 371 23 288 23 Q 205 23 141 84 L 83 142 L 83 142 L 303 363 L 303 363 Q 299 370 296 378 L 71 154 L 71 154 L 48 177 L 48 177 L 48 272 L 48 272 L 111 335 L 111 335 L 122 347 L 122 347 L 110 358 L 110 358 L 23 439 L 23 439 L 80 496 L 80 496 L 161 409 L 161 409 L 172 397 L 172 397 L 184 408 L 184 408 L 247 471 L 247 471 L 297 471 L 297 471 Q 301 479 305 487 L 240 487 L 240 487 Z M 496 423 Q 495 378 456 354 Q 416 332 376 354 Q 337 378 336 423 Q 337 468 376 492 Q 416 514 456 492 Q 495 468 496 423 L 496 423 Z M 320 423 Q 320 397 333 375 L 333 375 L 333 375 Q 346 353 368 340 Q 391 327 416 327 Q 441 327 464 340 Q 486 353 499 375 Q 512 397 512 423 Q 512 449 499 471 Q 486 493 464 506 Q 441 519 416 519 Q 391 519 368 506 Q 346 493 333 471 Q 320 449 320 423 L 320 423 Z" />
</svg>