<svg xmlns="http://www.w3.org/2000/svg" viewBox="0 0 416 432">
  <path d="M 214 318 L 208 323 L 214 318 L 208 323 L 202 318 L 202 318 L 66 182 L 66 182 L 61 176 L 61 176 L 72 165 L 72 165 L 78 170 L 78 170 L 200 293 L 200 293 L 200 168 L 200 168 L 200 8 L 200 8 L 200 0 L 200 0 L 216 0 L 216 0 L 216 8 L 216 8 L 216 168 L 216 168 L 216 293 L 216 293 L 338 170 L 338 170 L 344 165 L 344 165 L 355 176 L 355 176 L 350 182 L 350 182 L 214 318 L 214 318 Z M 0 400 L 32 400 L 0 400 L 32 400 L 32 432 L 32 432 L 0 432 L 0 432 L 0 400 L 0 400 Z M 128 400 L 128 432 L 128 400 L 128 432 L 96 432 L 96 432 L 96 400 L 96 400 L 128 400 L 128 400 Z M 224 432 L 192 432 L 224 432 L 192 432 L 192 400 L 192 400 L 224 400 L 224 400 L 224 432 L 224 432 Z M 320 400 L 320 432 L 320 400 L 320 432 L 288 432 L 288 432 L 288 400 L 288 400 L 320 400 L 320 400 Z M 384 400 L 416 400 L 384 400 L 416 400 L 416 432 L 416 432 L 384 432 L 384 432 L 384 400 L 384 400 Z" />
</svg>