<svg xmlns="http://www.w3.org/2000/svg" viewBox="0 0 320 448">
  <path d="M 72 0 L 64 0 L 72 0 L 64 0 L 64 8 L 64 8 L 64 176 L 64 176 L 64 192 L 64 192 L 64 304 L 64 304 L 0 304 L 0 304 L 0 320 L 0 320 L 64 320 L 64 320 L 64 440 L 64 440 L 64 448 L 64 448 L 80 448 L 80 448 L 80 440 L 80 440 L 80 320 L 80 320 L 224 320 L 224 320 L 224 304 L 224 304 L 80 304 L 80 304 L 80 192 L 80 192 L 288 192 L 288 192 L 288 176 L 288 176 L 80 176 L 80 176 L 80 16 L 80 16 L 312 16 L 320 16 L 320 0 L 320 0 L 312 0 L 72 0 Z" />
</svg>