<svg xmlns="http://www.w3.org/2000/svg" viewBox="0 0 640 512">
  <path d="M 570 143 L 497 70 L 570 143 L 497 70 L 544 23 L 544 23 L 617 96 L 617 96 L 570 143 L 570 143 Z M 480 64 L 474 70 L 480 64 L 474 70 L 320 224 L 320 224 L 292 334 L 292 334 L 288 352 L 288 352 L 306 348 L 306 348 L 416 320 L 416 320 L 570 166 L 570 166 L 576 160 L 576 160 L 582 154 L 582 154 L 629 107 L 629 107 L 640 96 L 640 96 L 629 85 L 629 85 L 555 11 L 555 11 L 544 0 L 544 0 L 533 11 L 533 11 L 486 58 L 486 58 L 480 64 L 480 64 Z M 486 81 L 559 154 L 486 81 L 559 154 L 408 306 L 408 306 L 310 330 L 310 330 L 335 232 L 335 232 L 486 81 L 486 81 Z M 8 128 L 0 128 L 8 128 L 0 128 L 0 136 L 0 136 L 0 504 L 0 504 L 0 512 L 0 512 L 8 512 L 576 512 L 576 504 L 576 504 L 576 264 L 576 264 L 576 256 L 576 256 L 560 256 L 560 256 L 560 264 L 560 264 L 560 496 L 560 496 L 16 496 L 16 496 L 16 144 L 16 144 L 312 144 L 320 144 L 320 128 L 320 128 L 312 128 L 8 128 Z M 144 304 L 112 304 L 144 304 L 112 304 L 112 336 L 112 336 L 144 336 L 144 336 L 144 304 L 144 304 Z M 208 304 L 208 336 L 208 304 L 208 336 L 240 336 L 240 336 L 240 304 L 240 304 L 208 304 L 208 304 Z" />
</svg>