<svg xmlns="http://www.w3.org/2000/svg" viewBox="0 0 416 512">
  <path d="M 112 16 L 112 112 L 112 16 L 112 112 L 16 112 L 16 112 L 16 16 L 16 16 L 112 16 L 112 16 Z M 16 0 L 0 0 L 16 0 L 0 0 L 0 16 L 0 16 L 0 112 L 0 112 L 0 128 L 0 128 L 16 128 L 56 128 L 56 384 L 56 384 L 16 384 L 0 384 L 0 400 L 0 400 L 0 496 L 0 496 L 0 512 L 0 512 L 16 512 L 128 512 L 128 496 L 128 496 L 128 400 L 128 400 L 128 384 L 128 384 L 112 384 L 72 384 L 72 128 L 72 128 L 112 128 L 128 128 L 128 112 L 128 112 L 128 16 L 128 16 L 128 0 L 128 0 L 112 0 L 16 0 Z M 16 400 L 112 400 L 16 400 L 112 400 L 112 496 L 112 496 L 16 496 L 16 496 L 16 400 L 16 400 Z M 304 400 L 400 400 L 304 400 L 400 400 L 400 496 L 400 496 L 304 496 L 304 496 L 304 400 L 304 400 Z M 288 384 L 288 400 L 288 384 L 288 400 L 288 496 L 288 496 L 288 512 L 288 512 L 304 512 L 416 512 L 416 496 L 416 496 L 416 400 L 416 400 L 416 384 L 416 384 L 400 384 L 288 384 Z M 376 216 L 376 264 L 376 216 L 376 264 L 328 264 L 328 264 L 328 216 L 328 216 L 376 216 L 376 216 Z M 328 200 L 312 200 L 328 200 L 312 200 L 312 216 L 312 216 L 312 264 L 312 264 L 312 280 L 312 280 L 328 280 L 392 280 L 392 264 L 392 264 L 392 216 L 392 216 L 392 200 L 392 200 L 376 200 L 328 200 Z M 328 56 L 376 56 L 328 56 L 376 56 L 376 104 L 376 104 L 328 104 L 328 104 L 328 56 L 328 56 Z M 312 40 L 312 56 L 312 40 L 312 56 L 312 104 L 312 104 L 312 120 L 312 120 L 328 120 L 392 120 L 392 104 L 392 104 L 392 56 L 392 56 L 392 40 L 392 40 L 376 40 L 312 40 Z" />
</svg>