<svg xmlns="http://www.w3.org/2000/svg" viewBox="0 0 640 480">
  <path d="M 352 16 L 496 16 L 352 16 L 496 16 L 496 134 L 496 134 Q 504 131 512 129 L 512 16 L 512 16 L 512 0 L 512 0 L 496 0 L 0 0 L 0 16 L 0 16 L 0 432 L 0 432 L 0 448 L 0 448 L 16 448 L 384 448 L 384 432 L 384 432 L 352 432 L 352 432 L 352 304 L 352 304 L 384 304 L 384 304 L 384 288 L 384 288 L 352 288 L 352 288 L 352 160 L 352 160 L 456 160 L 456 160 Q 465 151 475 144 L 352 144 L 352 144 L 352 16 L 352 16 Z M 336 16 L 336 144 L 336 16 L 336 144 L 176 144 L 176 144 L 176 16 L 176 16 L 336 16 L 336 16 Z M 160 16 L 160 432 L 160 16 L 160 432 L 16 432 L 16 432 L 16 16 L 16 16 L 160 16 L 160 16 Z M 176 432 L 176 304 L 176 432 L 176 304 L 336 304 L 336 304 L 336 432 L 336 432 L 176 432 L 176 432 Z M 336 288 L 176 288 L 336 288 L 176 288 L 176 160 L 176 160 L 336 160 L 336 160 L 336 288 L 336 288 Z M 480 224 Q 481 204 494 190 L 494 190 L 494 190 Q 508 177 528 176 Q 548 177 562 190 Q 575 204 576 224 L 576 240 L 576 240 L 592 240 L 592 240 L 592 224 L 592 224 Q 591 197 573 179 Q 555 161 528 160 Q 501 161 483 179 Q 465 197 464 224 L 464 288 L 464 288 L 432 288 L 416 288 L 416 304 L 416 304 L 416 464 L 416 464 L 416 480 L 416 480 L 432 480 L 640 480 L 640 464 L 640 464 L 640 304 L 640 304 L 640 288 L 640 288 L 624 288 L 480 288 L 480 224 L 480 224 Z M 464 304 L 480 304 L 464 304 L 624 304 L 624 464 L 624 464 L 432 464 L 432 464 L 432 304 L 432 304 L 464 304 L 464 304 Z" />
</svg>