<svg xmlns="http://www.w3.org/2000/svg" viewBox="0 0 640 512">
  <path d="M 592 16 L 48 16 L 592 16 L 48 16 L 48 237 L 48 237 Q 39 242 32 248 L 32 16 L 32 16 L 32 0 L 32 0 L 48 0 L 608 0 L 608 16 L 608 16 L 608 248 L 608 248 Q 601 242 592 237 L 592 16 L 592 16 Z M 96 368 Q 123 367 138 344 Q 150 320 138 296 Q 123 273 96 272 Q 69 273 54 296 Q 42 320 54 344 Q 69 367 96 368 L 96 368 Z M 96 256 Q 132 257 151 288 Q 169 320 151 352 Q 132 383 96 384 Q 60 383 41 352 Q 23 320 41 288 Q 60 257 96 256 L 96 256 Z M 320 368 Q 347 367 362 344 Q 374 320 362 296 Q 347 273 320 272 Q 293 273 278 296 Q 266 320 278 344 Q 293 367 320 368 L 320 368 Z M 320 256 Q 356 257 375 288 Q 393 320 375 352 Q 356 383 320 384 Q 284 383 265 352 Q 247 320 265 288 Q 284 257 320 256 L 320 256 Z M 592 320 Q 591 293 568 278 Q 544 266 520 278 Q 497 293 496 320 Q 497 347 520 362 Q 544 374 568 362 Q 591 347 592 320 L 592 320 Z M 480 320 Q 481 284 512 265 Q 544 247 576 265 Q 607 284 608 320 Q 607 356 576 375 Q 544 393 512 375 Q 481 356 480 320 L 480 320 Z M 44 432 L 17 512 L 44 432 L 17 512 L 0 512 L 0 512 L 32 416 L 32 416 L 160 416 L 160 416 L 192 512 L 192 512 L 175 512 L 175 512 L 148 432 L 148 432 L 44 432 L 44 432 Z M 241 512 L 224 512 L 241 512 L 224 512 L 256 416 L 256 416 L 384 416 L 384 416 L 416 512 L 416 512 L 399 512 L 399 512 L 372 432 L 372 432 L 268 432 L 268 432 L 241 512 L 241 512 Z M 492 432 L 465 512 L 492 432 L 465 512 L 448 512 L 448 512 L 480 416 L 480 416 L 608 416 L 608 416 L 640 512 L 640 512 L 623 512 L 623 512 L 596 432 L 596 432 L 491 432 L 492 432 Z" />
</svg>