<svg xmlns="http://www.w3.org/2000/svg" viewBox="0 0 512 448">
  <path d="M 16 88 L 16 168 L 16 88 L 16 168 L 112 168 L 112 168 L 112 88 L 112 88 L 16 88 L 16 88 Z M 16 72 L 112 72 L 16 72 L 112 72 L 112 16 L 112 16 L 16 16 L 16 16 L 16 72 L 16 72 Z M 16 0 L 112 0 L 16 0 L 512 0 L 512 16 L 512 16 L 512 72 L 512 72 L 512 80 L 512 80 L 512 88 L 512 88 L 512 168 L 512 168 L 512 176 L 512 176 L 512 184 L 512 184 L 512 264 L 512 264 L 512 272 L 512 272 L 512 280 L 512 280 L 512 360 L 512 360 L 512 368 L 512 368 L 512 376 L 512 376 L 512 432 L 512 432 L 512 448 L 512 448 L 496 448 L 0 448 L 0 432 L 0 432 L 0 376 L 0 376 L 0 368 L 0 368 L 0 360 L 0 360 L 0 280 L 0 280 L 0 272 L 0 272 L 0 264 L 0 264 L 0 184 L 0 184 L 0 176 L 0 176 L 0 168 L 0 168 L 0 88 L 0 88 L 0 80 L 0 80 L 0 72 L 0 72 L 0 16 L 0 16 L 0 0 L 0 0 L 16 0 L 16 0 Z M 128 80 L 128 176 L 128 80 L 128 176 L 128 216 L 128 216 L 384 216 L 384 216 L 384 176 L 384 176 L 384 80 L 384 80 L 384 16 L 384 16 L 128 16 L 128 16 L 128 80 L 128 80 Z M 112 224 L 112 184 L 112 224 L 112 184 L 16 184 L 16 184 L 16 264 L 16 264 L 112 264 L 112 264 L 112 224 L 112 224 Z M 128 232 L 128 272 L 128 232 L 128 272 L 128 368 L 128 368 L 128 432 L 128 432 L 384 432 L 384 432 L 384 368 L 384 368 L 384 272 L 384 272 L 384 232 L 384 232 L 128 232 L 128 232 Z M 400 224 L 400 264 L 400 224 L 400 264 L 496 264 L 496 264 L 496 184 L 496 184 L 400 184 L 400 184 L 400 224 L 400 224 Z M 400 72 L 496 72 L 400 72 L 496 72 L 496 16 L 496 16 L 400 16 L 400 16 L 400 72 L 400 72 Z M 400 88 L 400 168 L 400 88 L 400 168 L 496 168 L 496 168 L 496 88 L 496 88 L 400 88 L 400 88 Z M 400 280 L 400 360 L 400 280 L 400 360 L 496 360 L 496 360 L 496 280 L 496 280 L 400 280 L 400 280 Z M 400 376 L 400 432 L 400 376 L 400 432 L 496 432 L 496 432 L 496 376 L 496 376 L 400 376 L 400 376 Z M 112 376 L 16 376 L 112 376 L 16 376 L 16 432 L 16 432 L 112 432 L 112 432 L 112 376 L 112 376 Z M 112 360 L 112 280 L 112 360 L 112 280 L 16 280 L 16 280 L 16 360 L 16 360 L 112 360 L 112 360 Z" />
</svg>