<svg xmlns="http://www.w3.org/2000/svg" viewBox="0 0 576 460">
  <path d="M 16 416 L 16 59 L 16 416 L 16 59 Q 86 85 155 77 Q 224 69 290 50 Q 290 50 290 50 L 292 50 L 292 50 Q 362 30 429 23 Q 495 16 560 44 L 560 401 L 560 401 Q 490 375 421 383 Q 352 391 286 410 Q 286 410 286 410 L 284 410 L 284 410 Q 214 430 147 437 Q 81 444 16 416 L 16 416 Z M 16 42 Q 8 38 0 34 L 0 52 L 0 52 L 0 426 L 0 426 Q 72 460 144 453 Q 216 446 288 426 Q 288 426 288 426 Q 356 406 424 399 Q 492 391 560 418 Q 568 422 576 426 L 576 408 L 576 408 L 576 34 L 576 34 Q 504 0 432 7 Q 360 14 288 34 Q 288 34 288 34 Q 220 53 152 61 Q 84 69 16 42 L 16 42 Z M 384 230 Q 383 184 357 152 L 357 152 L 357 152 Q 330 119 288 118 Q 246 119 219 152 Q 193 184 192 230 Q 193 276 219 308 Q 246 341 288 342 Q 330 341 357 308 Q 383 276 384 230 L 384 230 Z M 288 326 Q 254 325 231 298 L 231 298 L 231 298 Q 209 271 208 230 Q 209 189 231 162 Q 254 135 288 134 Q 322 135 345 162 Q 367 189 368 230 Q 367 271 345 298 Q 322 325 288 326 L 288 326 Z M 536 134 L 544 134 L 536 134 L 544 134 L 544 118 L 544 118 L 536 118 L 528 118 Q 504 117 488 102 Q 473 86 472 62 L 472 54 L 472 54 L 472 46 L 472 46 L 456 46 L 456 46 L 456 54 L 456 54 L 456 62 L 456 62 Q 457 93 477 113 Q 497 133 528 134 L 536 134 L 536 134 Z M 32 190 L 40 190 L 32 190 L 48 190 Q 79 189 99 169 Q 119 149 120 118 L 120 110 L 120 110 L 120 102 L 120 102 L 104 102 L 104 102 L 104 110 L 104 110 L 104 118 L 104 118 Q 103 142 88 158 Q 72 173 48 174 L 40 174 L 32 174 L 32 190 L 32 190 Z M 536 270 L 528 270 L 536 270 L 528 270 Q 497 271 477 291 Q 457 311 456 342 L 456 350 L 456 350 L 456 358 L 456 358 L 472 358 L 472 358 L 472 350 L 472 350 L 472 342 L 472 342 Q 473 318 488 302 Q 504 287 528 286 L 536 286 L 544 286 L 544 270 L 544 270 L 536 270 L 536 270 Z M 32 326 L 32 342 L 32 326 L 32 342 L 40 342 L 48 342 Q 72 343 88 358 Q 103 374 104 398 L 104 406 L 104 406 L 104 414 L 104 414 L 120 414 L 120 414 L 120 406 L 120 406 L 120 398 L 120 398 Q 119 367 99 347 Q 79 327 48 326 L 40 326 L 32 326 Z M 272 174 L 264 174 L 272 174 L 264 174 L 264 190 L 264 190 L 272 190 L 280 190 L 280 270 L 280 270 L 264 270 L 256 270 L 256 286 L 256 286 L 264 286 L 320 286 L 320 270 L 320 270 L 312 270 L 296 270 L 296 182 L 296 182 L 296 174 L 296 174 L 288 174 L 272 174 Z" />
</svg>