<svg xmlns="http://www.w3.org/2000/svg" viewBox="0 0 512 512">
  <path d="M 14.222222 483.55554 L 0 483.55554 L 0 455.1111 L 14.222222 455.1111 L 28.444445 455.1111 L 28.444445 376.8889 L 28.444445 372.44446 L 31.11111 368 L 117.333336 256 L 31.11111 144 L 28.444445 139.55556 L 28.444445 135.11111 L 28.444445 56.88889 L 14.222222 56.88889 L 0 56.88889 L 0 28.444445 L 14.222222 28.444445 L 327.1111 28.444445 L 341.33334 28.444445 L 341.33334 56.88889 L 327.1111 56.88889 L 312.8889 56.88889 L 312.8889 135.11111 L 312.8889 139.55556 L 310.22223 144 L 224 256 L 245.33333 283.55554 Q 237.33333 297.77777 232.88889 314.66666 L 194.66667 264.8889 L 188.44444 256 L 194.66667 247.11111 L 284.44446 130.66667 L 284.44446 56.88889 L 56.88889 56.88889 L 56.88889 130.66667 L 146.66667 247.11111 L 152.88889 256 L 146.66667 264.8889 L 56.88889 381.33334 L 56.88889 455.1111 L 263.1111 455.1111 Q 276.44446 471.1111 294.22223 483.55554 L 14.222222 483.55554 L 14.222222 483.55554 Z M 170.66667 398.22223 L 233.77777 398.22223 Q 237.33333 413.33334 244.44444 426.66666 L 170.66667 426.66666 L 99.55556 426.66666 L 85.333336 426.66666 L 85.333336 412.44446 L 85.333336 392.8889 L 85.333336 387.55554 L 88.888885 384 L 160 296.8889 L 168.88889 286.22223 L 190.22223 304 L 181.33333 314.66666 L 113.77778 397.33334 L 113.77778 398.22223 L 170.66667 398.22223 L 170.66667 398.22223 Z M 170.66667 222.22223 L 160 208 L 103.111115 136.88889 L 84.44444 113.77778 L 113.77778 113.77778 L 170.66667 113.77778 L 227.55556 113.77778 L 256.8889 113.77778 L 239.11111 136.88889 L 182.22223 208 L 170.66667 222.22223 L 170.66667 222.22223 Z M 143.11111 142.22223 L 170.66667 176 L 198.22223 142.22223 L 170.66667 142.22223 L 143.11111 142.22223 L 143.11111 142.22223 Z M 384 455.1111 Q 410.66666 455.1111 433.77777 441.77777 L 433.77777 441.77777 Q 456.8889 428.44446 470.22223 405.33334 Q 483.55554 382.22223 483.55554 355.55554 Q 483.55554 328.8889 470.22223 305.77777 Q 456.8889 282.66666 433.77777 269.33334 Q 410.66666 256 384 256 Q 357.33334 256 334.22223 269.33334 Q 311.1111 282.66666 297.77777 305.77777 Q 284.44446 328.8889 284.44446 355.55554 Q 284.44446 382.22223 297.77777 405.33334 Q 311.1111 428.44446 334.22223 441.77777 Q 357.33334 455.1111 384 455.1111 L 384 455.1111 Z M 384 227.55556 Q 418.66666 227.55556 448 244.44444 L 448 244.44444 Q 477.33334 261.33334 495.1111 291.55554 Q 512 321.77777 512 355.55554 Q 512 389.33334 495.1111 419.55554 Q 477.33334 449.77777 448 466.66666 Q 418.66666 483.55554 384 483.55554 Q 349.33334 483.55554 320 466.66666 Q 290.66666 449.77777 272.8889 419.55554 Q 256 389.33334 256 355.55554 Q 256 321.77777 272.8889 291.55554 Q 290.66666 261.33334 320 244.44444 Q 349.33334 227.55556 384 227.55556 L 384 227.55556 Z M 398.22223 284.44446 L 398.22223 298.66666 L 398.22223 341.33334 L 426.66666 341.33334 L 440.8889 341.33334 L 440.8889 369.77777 L 426.66666 369.77777 L 384 369.77777 L 369.77777 369.77777 L 369.77777 355.55554 L 369.77777 298.66666 L 369.77777 284.44446 L 398.22223 284.44446 L 398.22223 284.44446 Z" />
</svg>