<svg xmlns="http://www.w3.org/2000/svg" viewBox="0 0 640 320">
  <path d="M 0 0 L 202 0 L 0 0 L 202 0 L 320 125 L 320 125 L 438 0 L 438 0 L 640 0 L 640 0 L 640 320 L 640 320 L 438 320 L 438 320 L 320 195 L 320 195 L 202 320 L 202 320 L 0 320 L 0 320 L 0 0 L 0 0 Z M 287 160 L 182 48 L 287 160 L 182 48 L 48 48 L 48 48 L 48 272 L 48 272 L 182 272 L 182 272 L 287 160 L 287 160 Z M 353 160 L 458 272 L 353 160 L 458 272 L 592 272 L 592 272 L 592 48 L 592 48 L 458 48 L 458 48 L 353 160 L 353 160 Z" />
</svg>