<svg xmlns="http://www.w3.org/2000/svg" viewBox="0 0 448 448">
  <path d="M 432 16 L 432 432 L 432 16 L 432 432 L 16 432 L 16 432 L 16 16 L 16 16 L 432 16 L 432 16 Z M 448 0 L 432 0 L 448 0 L 0 0 L 0 16 L 0 16 L 0 432 L 0 432 L 0 448 L 0 448 L 16 448 L 448 448 L 448 432 L 448 432 L 448 16 L 448 16 L 448 0 L 448 0 Z M 273 92 L 233 164 L 273 92 L 233 164 L 230 170 L 230 170 L 235 174 L 235 174 L 272 204 L 272 204 Q 247 247 204 272 L 174 235 L 174 235 L 170 230 L 170 230 L 164 233 L 164 233 L 92 273 L 92 273 L 87 276 L 87 276 L 88 282 L 88 282 L 104 354 L 104 354 L 106 360 L 106 360 L 112 360 L 128 360 Q 193 359 245 328 Q 297 297 328 245 Q 359 193 360 128 Q 360 128 360 128 Q 360 128 360 128 L 360 112 L 360 112 L 360 106 L 360 106 L 354 104 L 354 104 L 282 88 L 282 88 L 276 87 L 276 87 L 273 92 L 273 92 Z M 344 128 Q 344 128 344 128 L 344 128 L 344 128 Q 344 128 344 128 Q 342 220 281 281 Q 220 342 128 344 L 118 344 L 118 344 L 105 284 L 105 284 L 166 250 L 166 250 L 195 287 L 195 287 L 199 292 L 199 292 L 205 289 L 205 289 Q 260 260 289 205 L 292 200 L 292 200 L 287 195 L 287 195 L 250 166 L 250 166 L 284 105 L 284 105 L 344 118 L 344 118 L 344 128 L 344 128 Z" />
</svg>