<svg xmlns="http://www.w3.org/2000/svg" viewBox="0 0 484 509">
  <path d="M 242 0 L 254 4 L 242 0 L 254 4 L 461 84 L 461 84 L 480 92 L 480 92 L 481 112 L 481 112 Q 484 150 476 203 Q 468 255 444 312 Q 420 369 374 420 Q 328 471 255 503 L 242 509 L 242 509 L 229 503 L 229 503 Q 156 471 110 420 Q 64 369 40 312 Q 16 255 8 203 Q 0 150 3 112 L 4 92 L 4 92 L 23 84 L 23 84 L 231 4 L 231 4 L 242 0 L 242 0 Z M 218 362 L 266 362 L 218 362 L 266 362 L 266 338 L 266 338 L 266 274 L 266 274 L 330 274 L 354 274 L 354 226 L 354 226 L 330 226 L 266 226 L 266 162 L 266 162 L 266 138 L 266 138 L 218 138 L 218 138 L 218 162 L 218 162 L 218 226 L 218 226 L 154 226 L 130 226 L 130 274 L 130 274 L 154 274 L 218 274 L 218 338 L 218 338 L 218 362 L 218 362 Z" />
</svg>