<svg xmlns="http://www.w3.org/2000/svg" viewBox="0 0 576 424">
  <path d="M 276 48 L 272 46 L 276 48 L 272 46 L 234 24 L 234 24 L 215 101 L 215 101 L 211 120 L 211 120 L 193 112 L 193 112 L 100 68 L 100 68 Q 59 119 38 180 Q 16 242 16 308 L 16 326 L 16 326 L 89 290 L 89 290 L 102 283 L 102 283 L 110 296 L 110 296 L 147 358 L 147 358 L 197 309 L 197 309 L 210 296 L 210 296 L 221 310 L 221 310 L 288 398 L 288 398 L 355 310 L 355 310 L 366 296 L 366 296 L 379 309 L 379 309 L 429 358 L 429 358 L 466 296 L 466 296 L 474 283 L 474 283 L 487 290 L 487 290 L 560 326 L 560 326 L 560 308 L 560 308 Q 560 242 538 180 Q 517 119 476 68 L 383 112 L 383 112 L 366 120 L 366 120 L 361 101 L 361 101 L 342 24 L 342 24 L 304 46 L 304 46 L 300 48 L 300 48 L 296 48 L 276 48 Z M 338 8 L 352 0 L 338 8 L 352 0 L 356 16 L 356 16 L 372 82 L 372 82 L 376 97 L 376 97 L 391 90 L 391 90 L 480 48 L 480 48 Q 527 103 551 169 Q 576 236 576 308 L 576 334 L 576 334 L 576 352 L 576 352 L 560 344 L 560 344 L 480 304 L 480 304 L 441 370 L 441 370 L 432 384 L 432 384 L 420 372 L 420 372 L 379 331 L 379 331 L 368 320 L 368 320 L 358 333 L 358 333 L 298 411 L 298 411 L 288 424 L 288 424 L 278 411 L 278 411 L 218 333 L 218 333 L 208 320 L 208 320 L 197 331 L 197 331 L 156 372 L 156 372 L 144 384 L 144 384 L 136 370 L 136 370 L 96 304 L 96 304 L 16 344 L 16 344 L 0 352 L 0 352 L 0 334 L 0 334 L 0 308 L 0 308 Q 0 236 25 169 Q 49 103 96 48 L 185 90 L 185 90 L 200 97 L 200 97 L 204 82 L 204 82 L 220 16 L 220 16 L 224 0 L 224 0 L 238 8 L 238 8 L 280 32 L 280 32 L 296 32 L 296 32 L 338 8 L 338 8 Z" />
</svg>