<svg xmlns="http://www.w3.org/2000/svg" viewBox="0 0 512 510">
  <path d="M 141 0 L 256 92 L 141 0 L 256 92 L 371 0 L 371 0 L 381 12 L 381 12 L 279 94 L 279 94 L 496 94 L 512 94 L 512 110 L 512 110 L 512 494 L 512 494 L 512 510 L 512 510 L 496 510 L 0 510 L 0 494 L 0 494 L 0 110 L 0 110 L 0 94 L 0 94 L 16 94 L 233 94 L 131 12 L 131 12 L 141 0 L 141 0 Z M 256 110 L 16 110 L 256 110 L 16 110 L 16 494 L 16 494 L 496 494 L 496 494 L 496 110 L 496 110 L 256 110 L 256 110 Z M 368 174 L 80 174 L 368 174 L 80 174 L 80 430 L 80 430 L 368 430 L 368 430 L 368 174 L 368 174 Z M 80 158 L 368 158 L 80 158 L 384 158 L 384 174 L 384 174 L 384 430 L 384 430 L 384 446 L 384 446 L 368 446 L 64 446 L 64 430 L 64 430 L 64 174 L 64 174 L 64 158 L 64 158 L 80 158 L 80 158 Z M 440 206 Q 439 199 432 198 Q 425 199 424 206 Q 425 213 432 214 Q 439 213 440 206 L 440 206 Z M 408 206 Q 410 184 432 182 Q 454 184 456 206 Q 454 228 432 230 Q 410 228 408 206 L 408 206 Z M 432 278 Q 439 277 440 270 Q 439 263 432 262 Q 425 263 424 270 Q 425 277 432 278 L 432 278 Z M 432 246 Q 454 248 456 270 Q 454 292 432 294 Q 410 292 408 270 Q 410 248 432 246 L 432 246 Z" />
</svg>