<svg xmlns="http://www.w3.org/2000/svg" viewBox="0 0 640 480">
  <path d="M 368 240 L 368 344 L 368 240 L 368 344 L 464 416 L 464 416 L 464 240 L 464 240 L 464 234 L 464 234 L 468 229 L 468 229 L 624 58 L 624 58 L 624 16 L 624 16 L 208 16 L 208 16 L 208 58 L 208 58 L 364 229 L 364 229 L 368 234 L 368 234 L 368 240 L 368 240 Z M 352 240 L 192 64 L 352 240 L 192 64 L 192 16 L 192 16 L 192 0 L 192 0 L 208 0 L 640 0 L 640 16 L 640 16 L 640 64 L 640 64 L 480 240 L 480 240 L 480 428 L 480 428 L 480 448 L 480 448 L 464 436 L 464 436 L 352 352 L 352 352 L 352 240 L 352 240 Z M 320 269 L 288 304 L 320 269 L 288 304 L 288 460 L 288 460 L 288 480 L 288 480 L 272 468 L 272 468 L 160 384 L 160 384 L 160 304 L 160 304 L 0 128 L 0 128 L 0 80 L 0 80 L 0 64 L 0 64 L 16 64 L 160 64 L 160 76 L 160 76 L 163 80 L 163 80 L 16 80 L 16 80 L 16 122 L 16 122 L 172 293 L 172 293 L 176 298 L 176 298 L 176 304 L 176 304 L 176 376 L 176 376 L 272 448 L 272 448 L 272 304 L 272 304 L 272 298 L 272 298 L 276 293 L 276 293 L 317 249 L 317 249 L 320 252 L 320 252 L 320 269 L 320 269 Z" />
</svg>