<svg xmlns="http://www.w3.org/2000/svg" viewBox="0 0 448 512">
  <path d="M 252 99 Q 243 88 229 74 L 229 74 L 229 74 Q 215 59 200 45 Q 186 31 176 22 Q 169 28 160 37 Q 134 62 100 103 Q 67 143 42 191 Q 17 239 16 285 Q 18 376 76 435 Q 135 494 224 496 Q 313 494 371 435 Q 430 376 432 285 Q 431 245 412 205 Q 393 165 367 132 Q 341 98 322 79 Q 317 74 313 70 Q 312 69 311 68 Q 310 69 309 69 Q 306 72 303 75 Q 285 90 277 99 L 265 115 L 265 115 L 252 99 L 252 99 Z M 0 285 Q 1 234 28 184 L 28 184 L 28 184 Q 54 134 88 93 L 88 93 L 88 93 Q 122 51 149 26 L 149 26 L 149 26 Q 175 1 176 0 Q 178 2 204 27 Q 231 52 254 77 Q 260 84 265 89 Q 269 84 276 78 Q 288 66 299 57 Q 311 47 312 47 Q 315 48 347 82 Q 380 117 413 171 Q 445 225 448 285 Q 446 383 383 446 Q 320 510 224 512 Q 128 510 65 446 Q 2 382 0 285 L 0 285 Z M 303 408 Q 268 432 226 432 Q 172 432 134 399 Q 97 365 96 307 Q 96 277 114 248 Q 131 220 163 182 L 175 167 L 175 167 L 188 182 L 188 182 Q 190 185 204 202 Q 217 219 233 240 L 262 276 L 262 276 L 263 277 L 263 277 L 301 233 L 301 233 L 314 218 L 314 218 L 326 234 L 326 234 Q 332 244 336 252 Q 337 252 337 253 L 337 253 L 337 253 Q 358 294 350 337 Q 341 381 304 408 L 304 408 L 304 408 Q 304 408 304 408 Q 304 408 304 408 L 303 408 Z M 262 303 L 252 290 L 262 303 L 252 290 Q 239 273 219 247 Q 199 222 185 205 Q 177 194 175 192 Q 172 196 168 201 Q 167 203 165 205 Q 138 237 125 261 Q 112 284 112 307 Q 113 359 145 387 Q 177 416 226 416 Q 263 416 295 395 Q 326 372 334 334 Q 341 297 323 261 L 321 258 L 321 258 Q 318 251 313 244 L 302 256 L 302 256 L 273 290 L 273 290 L 262 303 L 262 303 Z" />
</svg>