<svg xmlns="http://www.w3.org/2000/svg" viewBox="0 0 640 451">
  <path d="M 44 4 L 124 52 L 44 4 L 124 52 L 131 56 L 131 56 L 123 70 L 123 70 L 116 66 L 116 66 L 36 18 L 36 18 L 29 14 L 29 14 L 37 0 L 37 0 L 44 4 L 44 4 Z M 604 18 L 524 66 L 604 18 L 524 66 L 517 70 L 517 70 L 509 56 L 509 56 L 516 52 L 516 52 L 596 4 L 596 4 L 603 0 L 603 0 L 611 14 L 611 14 L 604 18 L 604 18 Z M 8 163 L 88 163 L 8 163 L 96 163 L 96 179 L 96 179 L 88 179 L 0 179 L 0 163 L 0 163 L 8 163 L 8 163 Z M 552 163 L 632 163 L 552 163 L 640 163 L 640 179 L 640 179 L 632 179 L 544 179 L 544 163 L 544 163 L 552 163 L 552 163 Z M 464 67 L 492 291 L 464 67 L 492 291 L 476 291 L 476 291 L 450 83 L 450 83 L 190 83 L 190 83 L 164 291 L 164 291 L 148 291 L 148 291 L 176 67 L 176 67 L 464 67 L 464 67 Z M 245 131 L 225 291 L 245 131 L 225 291 L 209 291 L 209 291 L 229 131 L 229 131 L 245 131 L 245 131 Z M 528 339 L 112 339 L 528 339 L 112 339 L 112 435 L 112 435 L 528 435 L 528 435 L 528 339 L 528 339 Z M 112 323 L 528 323 L 112 323 L 544 323 L 544 339 L 544 339 L 544 435 L 544 435 L 544 451 L 544 451 L 528 451 L 96 451 L 96 435 L 96 435 L 96 339 L 96 339 L 96 323 L 96 323 L 112 323 L 112 323 Z" />
</svg>