<svg xmlns="http://www.w3.org/2000/svg" viewBox="0 0 576 448">
  <path d="M 424 0 L 432 0 L 424 0 L 576 0 L 576 16 L 576 16 L 568 16 L 440 16 L 440 152 L 440 152 L 440 160 L 440 160 L 432 160 L 296 160 L 296 296 L 296 296 L 296 304 L 296 304 L 288 304 L 152 304 L 152 440 L 152 440 L 152 448 L 152 448 L 144 448 L 0 448 L 0 432 L 0 432 L 8 432 L 136 432 L 136 296 L 136 296 L 136 288 L 136 288 L 144 288 L 280 288 L 280 152 L 280 152 L 280 144 L 280 144 L 288 144 L 424 144 L 424 8 L 424 8 L 424 0 L 424 0 Z" />
</svg>