<svg xmlns="http://www.w3.org/2000/svg" viewBox="0 0 640 409">
  <path d="M 322 153 Q 358 152 377 121 Q 394 89 377 57 Q 358 26 322 25 Q 285 26 266 57 Q 249 89 266 121 Q 285 152 322 153 L 322 153 Z M 322 9 Q 367 10 391 49 Q 412 89 391 129 Q 367 168 322 169 Q 276 168 252 129 Q 231 89 252 49 Q 276 10 322 9 L 322 9 Z M 441 313 L 405 217 L 441 313 L 405 217 L 235 217 L 235 217 L 199 313 L 199 313 L 441 313 L 441 313 Z M 224 201 L 416 201 L 224 201 L 416 201 L 458 313 L 458 313 L 464 329 L 464 329 L 447 329 L 176 329 L 182 313 L 182 313 L 224 201 L 224 201 Z M 8 393 L 632 393 L 8 393 L 640 393 L 640 409 L 640 409 L 632 409 L 0 409 L 0 393 L 0 393 L 8 393 L 8 393 Z M 195 73 Q 194 46 171 31 Q 147 19 123 31 Q 100 46 99 73 Q 100 100 123 115 Q 147 127 171 115 Q 194 100 195 73 L 195 73 Z M 83 73 Q 84 37 115 18 Q 147 0 179 18 Q 210 37 211 73 Q 210 109 179 128 Q 147 146 115 128 Q 84 109 83 73 L 83 73 Z M 496 121 Q 523 120 538 97 Q 550 73 538 49 Q 523 26 496 25 Q 469 26 454 49 Q 442 73 454 97 Q 469 120 496 121 L 496 121 Z M 496 9 Q 532 10 551 41 Q 569 73 551 105 Q 532 136 496 137 Q 460 136 441 105 Q 423 73 441 41 Q 460 10 496 9 L 496 9 Z M 76 185 L 54 249 L 76 185 L 54 249 L 172 249 L 172 249 L 166 265 L 166 265 L 49 265 L 32 265 L 37 249 L 37 249 L 64 169 L 64 169 L 202 169 L 202 169 L 196 185 L 196 185 L 76 185 L 76 185 Z M 468 249 L 586 249 L 468 249 L 586 249 L 564 185 L 564 185 L 444 185 L 444 185 L 438 169 L 438 169 L 576 169 L 576 169 L 603 249 L 603 249 L 608 265 L 608 265 L 591 265 L 474 265 L 468 249 L 468 249 Z" />
</svg>