<svg xmlns="http://www.w3.org/2000/svg" viewBox="0 0 513 446">
  <path d="M 377 441 L 381 445 L 377 441 L 381 445 L 387 442 L 387 442 Q 444 409 478 352 Q 512 295 513 223 Q 512 151 478 93 Q 444 34 386 0 L 378 14 L 378 14 Q 432 46 464 101 Q 496 156 497 223 Q 496 288 465 341 Q 435 393 384 426 L 198 249 L 198 249 L 192 244 L 192 244 L 181 255 L 181 255 L 187 261 L 187 261 L 377 441 L 377 441 Z M 138 4 L 134 0 L 138 4 L 134 0 L 128 3 L 128 3 Q 70 37 35 94 Q 1 151 0 223 Q 1 295 35 353 Q 70 412 128 446 L 136 432 L 136 432 Q 82 400 49 345 Q 17 290 16 223 Q 17 158 48 105 Q 79 52 131 20 L 315 197 L 315 197 L 320 202 L 320 202 L 331 191 L 331 191 L 326 185 L 326 185 L 138 4 L 138 4 Z" />
</svg>