<svg xmlns="http://www.w3.org/2000/svg" viewBox="0 0 576 512">
  <path d="M 144 96 Q 145 62 167 39 L 167 39 L 167 39 Q 190 17 224 16 Q 258 17 281 39 Q 303 62 304 96 L 304 160 L 304 160 L 144 160 L 144 160 L 144 96 L 144 96 Z M 128 160 L 16 160 L 128 160 L 0 160 L 0 176 L 0 176 L 0 464 L 0 464 L 0 480 L 0 480 L 16 480 L 160 480 L 160 464 L 160 464 L 16 464 L 16 464 L 16 176 L 16 176 L 432 176 L 432 176 L 432 224 L 432 224 L 448 224 L 448 224 L 448 176 L 448 176 L 448 160 L 448 160 L 432 160 L 320 160 L 320 96 L 320 96 Q 319 55 292 28 Q 265 1 224 0 Q 183 1 156 28 Q 129 55 128 96 L 128 160 L 128 160 Z M 208 272 L 560 272 L 208 272 L 560 272 L 560 496 L 560 496 L 208 496 L 208 496 L 208 272 L 208 272 Z M 192 256 L 192 272 L 192 256 L 192 272 L 192 496 L 192 496 L 192 512 L 192 512 L 208 512 L 576 512 L 576 496 L 576 496 L 576 272 L 576 272 L 576 256 L 576 256 L 560 256 L 192 256 Z M 320 328 L 320 320 L 320 328 L 320 320 L 304 320 L 304 320 L 304 328 L 304 328 L 304 368 L 304 368 Q 305 402 327 425 Q 350 447 384 448 Q 418 447 441 425 Q 463 402 464 368 L 464 328 L 464 328 L 464 320 L 464 320 L 448 320 L 448 320 L 448 328 L 448 328 L 448 368 L 448 368 Q 447 395 429 413 Q 411 431 384 432 Q 357 431 339 413 Q 321 395 320 368 L 320 328 L 320 328 Z" />
</svg>