<svg xmlns="http://www.w3.org/2000/svg" viewBox="0 0 384 512">
  <path d="M 16 496 L 16 16 L 16 496 L 16 16 L 208 16 L 208 16 L 208 168 L 208 168 L 208 176 L 208 176 L 216 176 L 368 176 L 368 496 L 368 496 L 16 496 L 16 496 Z M 224 23 L 361 160 L 224 23 L 361 160 L 224 160 L 224 160 L 224 23 L 224 23 Z M 224 0 L 16 0 L 224 0 L 0 0 L 0 16 L 0 16 L 0 496 L 0 496 L 0 512 L 0 512 L 16 512 L 384 512 L 384 496 L 384 496 L 384 160 L 384 160 L 224 0 L 224 0 Z M 96 240 L 128 240 L 96 240 L 128 240 L 128 248 L 128 248 L 128 264 L 128 264 L 128 272 L 128 272 L 120 272 L 96 272 L 96 240 L 96 240 Z M 104 288 L 104 384 L 104 288 L 104 384 L 96 384 L 80 384 L 80 400 L 80 400 L 80 432 L 80 432 L 80 448 L 80 448 L 96 448 L 144 448 L 144 432 L 144 432 L 144 424 L 144 424 L 240 424 L 240 424 L 240 432 L 240 432 L 240 448 L 240 448 L 256 448 L 304 448 L 304 432 L 304 432 L 304 400 L 304 400 L 304 384 L 304 384 L 288 384 L 280 384 L 280 288 L 280 288 L 288 288 L 304 288 L 304 272 L 304 272 L 304 240 L 304 240 L 304 224 L 304 224 L 288 224 L 240 224 L 240 240 L 240 240 L 240 248 L 240 248 L 144 248 L 144 248 L 144 240 L 144 240 L 144 224 L 144 224 L 128 224 L 80 224 L 80 240 L 80 240 L 80 272 L 80 272 L 80 288 L 80 288 L 96 288 L 104 288 Z M 264 288 L 264 384 L 264 288 L 264 384 L 256 384 L 240 384 L 240 400 L 240 400 L 240 408 L 240 408 L 144 408 L 144 408 L 144 400 L 144 400 L 144 384 L 144 384 L 128 384 L 120 384 L 120 288 L 120 288 L 128 288 L 144 288 L 144 272 L 144 272 L 144 264 L 144 264 L 240 264 L 240 264 L 240 272 L 240 272 L 240 288 L 240 288 L 256 288 L 264 288 Z M 256 432 L 256 424 L 256 432 L 256 424 L 256 408 L 256 408 L 256 400 L 256 400 L 264 400 L 288 400 L 288 432 L 288 432 L 256 432 L 256 432 Z M 128 424 L 128 432 L 128 424 L 128 432 L 96 432 L 96 432 L 96 400 L 96 400 L 104 400 L 128 400 L 128 408 L 128 408 L 128 424 L 128 424 Z M 288 272 L 280 272 L 288 272 L 256 272 L 256 264 L 256 264 L 256 248 L 256 248 L 256 240 L 256 240 L 288 240 L 288 240 L 288 272 L 288 272 Z" />
</svg>