<svg xmlns="http://www.w3.org/2000/svg" viewBox="0 0 384 448">
  <path d="M 8 16 L 0 16 L 8 16 L 0 16 L 0 0 L 0 0 L 8 0 L 384 0 L 384 16 L 384 16 L 376 16 L 8 16 Z M 128 288 L 112 288 L 128 288 L 32 288 L 32 272 L 32 272 L 32 256 L 32 256 L 181 107 L 181 107 L 192 96 L 192 96 L 203 107 L 203 107 L 352 256 L 352 256 L 352 272 L 352 272 L 352 288 L 352 288 L 336 288 L 256 288 L 256 304 L 256 304 L 256 432 L 256 432 L 256 448 L 256 448 L 240 448 L 128 448 L 128 432 L 128 432 L 128 304 L 128 304 L 128 288 L 128 288 Z M 128 272 L 144 272 L 128 272 L 144 272 L 144 288 L 144 288 L 144 432 L 144 432 L 240 432 L 240 432 L 240 288 L 240 288 L 240 272 L 240 272 L 256 272 L 336 272 L 336 263 L 336 263 L 192 119 L 192 119 L 48 263 L 48 263 L 48 272 L 48 272 L 128 272 L 128 272 Z" />
</svg>