<svg xmlns="http://www.w3.org/2000/svg" viewBox="0 0 576 480">
  <path d="M 256 87 L 245 75 L 256 87 L 245 75 L 221 51 L 221 51 Q 185 17 136 16 Q 85 17 51 51 Q 17 85 16 136 Q 17 185 51 221 L 75 245 L 75 245 L 256 425 L 256 425 L 272 409 L 272 409 Q 275 417 280 424 L 267 437 L 267 437 L 256 448 L 256 448 L 245 437 L 245 437 L 64 256 L 64 256 L 40 232 L 40 232 Q 1 192 0 136 Q 1 78 40 40 Q 78 1 136 0 Q 192 1 232 40 L 245 53 L 245 53 L 256 64 L 256 64 L 267 53 L 267 53 L 280 40 L 280 40 Q 320 1 376 0 Q 434 1 472 40 Q 511 78 512 136 Q 512 157 506 176 Q 499 173 491 170 Q 496 153 496 136 Q 495 85 461 51 Q 427 17 376 16 Q 327 17 292 51 L 267 75 L 267 75 L 256 87 L 256 87 Z M 432 464 Q 467 464 496 447 L 496 447 L 496 447 Q 525 430 543 400 Q 560 370 560 336 Q 560 302 543 272 Q 525 242 496 225 Q 467 208 432 208 Q 397 208 368 225 Q 339 242 321 272 Q 304 302 304 336 Q 304 370 321 400 Q 339 430 368 447 Q 397 464 432 464 L 432 464 Z M 432 192 Q 471 192 504 211 L 504 211 L 504 211 Q 537 230 557 264 Q 576 298 576 336 Q 576 374 557 408 Q 537 442 504 461 Q 471 480 432 480 Q 393 480 360 461 Q 327 442 307 408 Q 288 374 288 336 Q 288 298 307 264 Q 327 230 360 211 Q 393 192 432 192 L 432 192 Z M 512 344 L 504 344 L 512 344 L 352 344 L 352 328 L 352 328 L 360 328 L 512 328 L 512 344 L 512 344 Z" />
</svg>