<svg xmlns="http://www.w3.org/2000/svg" viewBox="0 0 512 448">
  <path d="M 160 288 L 160 304 L 160 288 L 160 304 L 160 368 L 160 368 L 160 384 L 160 384 L 176 384 L 192 384 L 341 235 L 341 235 L 352 224 L 352 224 L 341 213 L 341 213 L 192 64 L 192 64 L 176 64 L 160 64 L 160 80 L 160 80 L 160 144 L 160 144 L 160 160 L 160 160 L 144 160 L 0 160 L 0 176 L 0 176 L 0 272 L 0 272 L 0 288 L 0 288 L 16 288 L 160 288 Z M 176 288 L 176 272 L 176 288 L 176 272 L 160 272 L 16 272 L 16 176 L 16 176 L 160 176 L 176 176 L 176 160 L 176 160 L 176 80 L 176 80 L 185 80 L 185 80 L 329 224 L 329 224 L 185 368 L 185 368 L 176 368 L 176 368 L 176 288 L 176 288 Z M 328 432 L 320 432 L 328 432 L 320 432 L 320 448 L 320 448 L 328 448 L 504 448 Q 511 447 512 440 L 512 8 L 512 8 Q 511 1 504 0 L 328 0 L 320 0 L 320 16 L 320 16 L 328 16 L 496 16 L 496 432 L 496 432 L 328 432 L 328 432 Z" />
</svg>