<svg xmlns="http://www.w3.org/2000/svg" viewBox="0 0 512 400">
  <path d="M 0 80 L 0 72 L 0 80 L 0 72 L 8 72 L 247 72 L 306 3 L 306 3 L 308 0 L 308 0 L 312 0 L 366 0 Q 403 0 434 18 Q 465 36 484 69 L 494 87 L 494 87 Q 512 118 512 154 L 512 296 L 512 296 Q 511 340 482 370 Q 452 399 408 400 L 392 400 L 248 400 L 248 392 L 248 392 L 248 336 L 248 336 L 224 336 L 216 336 L 216 328 L 216 328 L 216 264 L 216 264 L 192 264 L 184 264 L 184 256 L 184 256 L 184 176 L 184 176 L 8 176 L 0 176 L 0 168 L 0 168 L 0 80 L 0 80 Z M 268 72 L 344 72 L 268 72 L 352 72 L 352 88 L 352 88 L 344 88 L 16 88 L 16 160 L 16 160 L 192 160 L 200 160 L 200 168 L 200 168 L 200 248 L 200 248 L 224 248 L 232 248 L 232 256 L 232 256 L 232 320 L 232 320 L 256 320 L 264 320 L 264 328 L 264 328 L 264 384 L 264 384 L 304 384 L 408 384 Q 445 383 470 358 Q 495 333 496 296 L 496 154 L 496 154 Q 496 122 480 95 L 470 77 L 470 77 Q 453 48 426 32 Q 398 16 366 16 L 316 16 L 316 16 L 268 72 L 268 72 Z" />
</svg>