<svg xmlns="http://www.w3.org/2000/svg" viewBox="0 0 448 512">
  <path d="M 310 276 L 317 270 L 310 276 L 317 270 Q 366 228 368 160 Q 366 99 326 58 Q 285 18 224 16 Q 163 18 122 58 Q 82 99 80 160 Q 82 228 131 270 L 138 276 L 138 276 L 137 284 L 137 284 L 134 306 L 134 306 L 132 320 L 132 320 L 118 320 L 76 320 L 22 496 L 22 496 L 426 496 L 426 496 L 372 320 L 372 320 L 330 320 L 316 320 L 314 306 L 314 306 L 311 284 L 311 284 L 310 276 L 310 276 Z M 384 304 L 443 496 L 384 304 L 443 496 L 448 512 L 448 512 L 431 512 L 0 512 L 5 496 L 5 496 L 64 304 L 64 304 L 118 304 L 118 304 L 121 282 L 121 282 Q 94 260 79 228 Q 64 197 64 160 Q 66 92 111 47 Q 156 2 224 0 Q 292 2 337 47 Q 382 92 384 160 Q 384 197 369 228 Q 354 260 327 282 L 330 304 L 330 304 L 384 304 L 384 304 Z M 224 80 Q 190 81 167 103 L 167 103 L 167 103 Q 145 125 144 157 Q 145 180 157 201 Q 169 222 187 239 Q 205 256 218 265 Q 220 266 222 268 Q 223 268 224 269 Q 226 268 228 266 Q 229 266 230 265 Q 243 256 261 239 Q 279 222 291 201 Q 303 180 304 157 Q 303 125 281 103 Q 258 81 224 80 L 224 80 Z M 224 288 Q 222 288 199 271 L 199 271 L 199 271 Q 176 254 153 224 L 153 224 L 153 224 Q 130 195 128 157 Q 129 118 156 91 Q 183 65 224 64 Q 265 65 292 91 Q 319 118 320 157 Q 318 195 295 224 Q 272 254 249 271 Q 226 288 224 288 Q 224 288 224 288 L 224 288 Z M 160 376 L 160 440 L 160 376 L 160 440 L 160 448 L 160 448 L 144 448 L 144 448 L 144 440 L 144 440 L 144 376 L 144 376 L 144 368 L 144 368 L 160 368 L 160 368 L 160 376 L 160 376 Z M 304 376 L 304 440 L 304 376 L 304 440 L 304 448 L 304 448 L 288 448 L 288 448 L 288 440 L 288 440 L 288 376 L 288 376 L 288 368 L 288 368 L 304 368 L 304 368 L 304 376 L 304 376 Z" />
</svg>