<svg xmlns="http://www.w3.org/2000/svg" viewBox="0 0 300 512">
  <path d="M 37 16 L 20 194 L 37 16 L 20 194 Q 17 253 54 294 Q 91 334 150 336 Q 209 334 246 294 Q 283 253 280 194 L 263 16 L 263 16 L 159 16 L 159 16 L 189 93 L 189 93 L 192 100 L 192 100 L 186 103 L 186 103 L 131 130 L 131 130 L 188 186 L 188 186 L 193 192 L 193 192 L 182 203 L 182 203 L 176 198 L 176 198 L 112 134 L 112 134 L 105 126 L 105 126 L 114 121 L 114 121 L 172 92 L 172 92 L 143 19 L 143 19 L 141 16 L 141 16 L 37 16 L 37 16 Z M 296 193 Q 300 257 260 302 L 260 302 L 260 302 Q 221 347 158 352 L 158 496 L 158 496 L 238 496 L 246 496 L 246 512 L 246 512 L 238 512 L 54 512 L 54 496 L 54 496 L 62 496 L 142 496 L 142 352 L 142 352 Q 79 347 40 302 Q 0 257 5 193 L 22 0 L 22 0 L 278 0 L 278 0 L 296 193 L 296 193 Z" />
</svg>