<svg xmlns="http://www.w3.org/2000/svg" viewBox="0 0 499 448">
  <path d="M 291 160 L 275 160 L 291 160 L 275 160 L 275 144 L 275 144 L 275 16 L 275 16 L 275 0 L 275 0 L 291 0 L 435 0 L 435 16 L 435 16 L 435 144 L 435 144 L 435 160 L 435 160 L 419 160 L 291 160 Z M 419 144 L 419 16 L 419 144 L 419 16 L 291 16 L 291 16 L 291 144 L 291 144 L 419 144 L 419 144 Z M 115 5 L 121 10 L 115 5 L 121 10 L 225 114 L 225 114 L 230 120 L 230 120 L 219 131 L 219 131 L 213 126 L 213 126 L 123 35 L 123 35 L 123 440 L 123 440 L 123 448 L 123 448 L 107 448 L 107 448 L 107 440 L 107 440 L 107 35 L 107 35 L 17 126 L 17 126 L 11 131 L 11 131 L 0 120 L 0 120 L 5 114 L 5 114 L 109 10 L 109 10 L 115 5 L 115 5 Z M 275 448 L 275 432 L 275 448 L 275 432 L 275 240 L 275 240 L 275 224 L 275 224 L 291 224 L 499 224 L 499 240 L 499 240 L 499 432 L 499 432 L 499 448 L 499 448 L 483 448 L 275 448 Z M 483 240 L 291 240 L 483 240 L 291 240 L 291 432 L 291 432 L 483 432 L 483 432 L 483 240 L 483 240 Z" />
</svg>