<svg xmlns="http://www.w3.org/2000/svg" viewBox="0 0 384 512">
  <path d="M 16 16 L 208 16 L 16 16 L 208 16 L 208 168 L 208 168 L 208 176 L 208 176 L 216 176 L 368 176 L 368 496 L 368 496 L 16 496 L 16 496 L 16 16 L 16 16 Z M 224 23 L 361 160 L 224 23 L 361 160 L 224 160 L 224 160 L 224 23 L 224 23 Z M 224 0 L 16 0 L 224 0 L 0 0 L 0 16 L 0 16 L 0 496 L 0 496 L 0 512 L 0 512 L 16 512 L 384 512 L 384 496 L 384 496 L 384 160 L 384 160 L 224 0 L 224 0 Z M 261 439 Q 288 423 304 396 L 304 396 L 304 396 Q 320 369 320 336 Q 320 303 304 276 Q 288 249 261 233 L 252 246 L 252 246 Q 276 260 290 283 Q 304 307 304 336 Q 304 365 290 389 Q 276 412 252 426 L 261 439 L 261 439 Z M 225 386 Q 254 371 256 336 Q 254 302 225 286 L 216 299 L 216 299 Q 239 310 240 336 Q 239 362 216 372 L 225 386 L 225 386 Z M 126 368 L 120 368 L 126 368 L 96 368 L 96 304 L 96 304 L 120 304 L 126 304 L 130 300 L 130 300 L 174 264 L 174 264 L 176 264 L 176 264 L 176 408 L 176 408 L 174 408 L 174 408 L 130 372 L 130 372 L 126 368 L 126 368 Z M 96 384 L 120 384 L 96 384 L 120 384 L 168 424 L 168 424 L 176 424 L 192 424 L 192 408 L 192 408 L 192 264 L 192 264 L 192 248 L 192 248 L 176 248 L 168 248 L 120 288 L 120 288 L 96 288 L 80 288 L 80 304 L 80 304 L 80 368 L 80 368 L 80 384 L 80 384 L 96 384 L 96 384 Z" />
</svg>