<svg xmlns="http://www.w3.org/2000/svg" viewBox="0 0 624 512">
  <path d="M 568 32 L 568 0 L 568 32 L 568 0 L 536 0 L 91 0 L 132 32 L 132 32 L 536 32 L 536 32 L 536 351 L 536 351 L 568 377 L 568 377 L 568 32 L 568 32 Z M 56 135 L 56 384 L 56 135 L 56 384 L 56 416 L 56 416 L 88 416 L 216 416 L 216 448 L 216 448 L 216 474 L 216 474 L 216 512 L 216 512 L 248 491 L 248 491 L 360 416 L 360 416 L 411 416 L 411 416 L 371 384 L 371 384 L 360 384 L 350 384 L 342 389 L 342 389 L 248 452 L 248 452 L 248 416 L 248 416 L 248 384 L 248 384 L 216 384 L 88 384 L 88 161 L 88 161 L 56 135 L 56 135 Z M 32 18 L 20 8 L 32 18 L 20 8 L 0 33 L 0 33 L 13 43 L 13 43 L 592 494 L 592 494 L 604 504 L 604 504 L 624 479 L 624 479 L 612 469 L 612 469 L 32 18 L 32 18 Z" />
</svg>