<svg xmlns="http://www.w3.org/2000/svg" viewBox="0 0 640 384">
  <path d="M 368 16 L 368 57 L 368 16 L 368 57 L 368 74 L 368 74 L 368 112 L 368 112 L 272 112 L 272 112 L 272 74 L 272 74 L 272 57 L 272 57 L 272 16 L 272 16 L 368 16 L 368 16 Z M 424 72 L 528 72 L 424 72 L 528 72 Q 528 72 528 72 Q 528 72 529 72 Q 532 93 547 106 Q 562 120 584 120 Q 608 119 624 104 Q 639 88 640 64 Q 639 40 624 24 Q 608 9 584 8 Q 562 8 547 22 Q 532 35 529 56 Q 528 56 528 56 Q 528 56 528 56 L 384 56 L 384 56 L 384 16 L 384 16 L 384 0 L 384 0 L 368 0 L 256 0 L 256 16 L 256 16 L 256 56 L 256 56 L 112 56 L 112 56 Q 112 56 112 56 Q 112 56 111 56 Q 108 35 93 22 Q 78 8 56 8 Q 32 9 16 24 Q 1 40 0 64 Q 1 88 16 104 Q 32 119 56 120 Q 78 120 93 106 Q 108 93 111 72 Q 112 72 112 72 Q 112 72 112 72 L 216 72 L 216 72 Q 160 96 126 144 Q 91 193 88 256 L 48 256 L 32 256 L 32 272 L 32 272 L 32 368 L 32 368 L 32 384 L 32 384 L 48 384 L 160 384 L 160 368 L 160 368 L 160 272 L 160 272 L 160 256 L 160 256 L 144 256 L 104 256 Q 108 188 150 140 Q 192 91 256 76 L 256 112 L 256 112 L 256 128 L 256 128 L 272 128 L 384 128 L 384 112 L 384 112 L 384 76 L 384 76 Q 448 91 490 140 Q 532 188 536 256 L 496 256 L 480 256 L 480 272 L 480 272 L 480 368 L 480 368 L 480 384 L 480 384 L 496 384 L 608 384 L 608 368 L 608 368 L 608 272 L 608 272 L 608 256 L 608 256 L 592 256 L 552 256 Q 549 193 514 144 Q 480 96 424 72 L 424 72 Z M 16 64 Q 17 41 36 29 Q 56 19 76 29 Q 95 41 96 64 Q 95 87 76 99 Q 56 109 36 99 Q 17 87 16 64 L 16 64 Z M 544 64 Q 545 41 564 29 Q 584 19 604 29 Q 623 41 624 64 Q 623 87 604 99 Q 584 109 564 99 Q 545 87 544 64 L 544 64 Z M 48 272 L 144 272 L 48 272 L 144 272 L 144 368 L 144 368 L 48 368 L 48 368 L 48 272 L 48 272 Z M 496 368 L 496 272 L 496 368 L 496 272 L 592 272 L 592 272 L 592 368 L 592 368 L 496 368 L 496 368 Z" />
</svg>