<svg xmlns="http://www.w3.org/2000/svg" viewBox="0 0 512 512">
  <path d="M 358.4 64 L 0 64 L 0 422.4 L 269.6 422.4 Q 232 380.8 230.4 320 Q 231.2 285.6 248.8 255.2 Q 265.6 224.8 288 200 Q 320 164 358.4 133.6 L 358.4 64 L 358.4 64 Z M 89.6 134.4 L 89.6 249.6 L 89.6 268.8 L 51.2 268.8 L 51.2 249.6 L 51.2 134.4 L 51.2 115.2 L 89.6 115.2 L 89.6 134.4 L 89.6 134.4 Z M 166.4 134.4 L 166.4 249.6 L 166.4 268.8 L 128 268.8 L 128 249.6 L 128 134.4 L 128 115.2 L 166.4 115.2 L 166.4 134.4 L 166.4 134.4 Z M 410.4 217.6 Q 390.4 194.4 374.4 180.8 L 374.4 180.8 Q 359.2 167.2 358.4 166.4 Q 356.8 167.2 332 190.4 Q 307.2 213.6 282.4 248.8 Q 257.6 284 256 320 Q 257.6 374.4 293.6 410.4 Q 329.6 446.4 384 448 Q 438.4 446.4 474.4 410.4 Q 510.4 374.4 512 320 Q 510.4 289.6 492 260.8 Q 473.6 231.2 455.2 212 Q 436.8 192.8 435.2 192 Q 432.8 192.8 410.4 217.6 L 410.4 217.6 Z M 424 384.8 Q 406.4 396.8 384.8 396.8 Q 356.8 396.8 339.2 380 Q 320.8 364 320 334.4 Q 320 320.8 328.8 305.6 Q 338.4 290.4 356 268.8 Q 358.4 272 370.4 287.2 Q 382.4 302.4 393.6 316.8 Q 404.8 331.2 405.6 332 L 434.4 298.4 Q 436 300.8 437.6 303.2 Q 439.2 305.6 440 308 Q 450.4 328.8 446.4 350.4 Q 442.4 371.2 424 384.8 L 424 384.8 Z" />
</svg>