<svg xmlns="http://www.w3.org/2000/svg" viewBox="0 0 576 512">
  <path d="M 16 128 Q 17 80 49 49 L 49 49 L 49 49 Q 80 17 128 16 Q 164 17 192 36 Q 220 56 233 88 L 240 107 L 240 107 L 248 88 L 248 88 Q 260 56 288 36 Q 316 17 352 16 Q 400 17 431 49 Q 463 80 464 128 Q 463 176 431 207 Q 400 239 352 240 L 128 240 L 128 240 Q 80 239 49 207 Q 17 176 16 128 L 16 128 Z M 128 0 Q 74 1 37 37 L 37 37 L 37 37 Q 1 74 0 128 Q 1 182 37 219 Q 74 255 128 256 L 352 256 L 352 256 Q 406 255 443 219 Q 479 182 480 128 Q 479 74 443 37 Q 406 1 352 0 Q 315 0 286 18 Q 257 36 240 66 Q 223 36 194 18 Q 165 0 128 0 L 128 0 Z M 448 468 L 560 507 L 448 468 L 560 507 L 576 512 L 576 512 L 576 495 L 576 495 L 576 273 L 576 273 L 576 256 L 576 256 L 560 262 L 560 262 L 448 300 L 448 300 L 448 317 L 448 317 L 560 278 L 560 278 L 560 490 L 560 490 L 448 451 L 448 451 L 448 468 L 448 468 Z M 48 352 L 64 352 L 48 352 L 64 352 L 64 368 L 64 368 L 64 496 L 64 496 L 64 512 L 64 512 L 80 512 L 416 512 L 416 496 L 416 496 L 416 304 L 416 304 L 416 288 L 416 288 L 400 288 L 0 288 L 0 304 L 0 304 L 0 336 L 0 336 L 0 352 L 0 352 L 16 352 L 48 352 Z M 16 336 L 16 304 L 16 336 L 16 304 L 32 304 L 400 304 L 400 496 L 400 496 L 80 496 L 80 496 L 80 352 L 80 352 L 80 336 L 80 336 L 64 336 L 16 336 Z M 128 80 Q 155 81 170 104 Q 182 128 170 152 Q 155 175 128 176 Q 101 175 86 152 Q 74 128 86 104 Q 101 81 128 80 L 128 80 Z M 128 192 Q 164 191 183 160 Q 201 128 183 96 Q 164 65 128 64 Q 92 65 73 96 Q 55 128 73 160 Q 92 191 128 192 L 128 192 Z M 304 128 Q 305 101 328 86 Q 352 74 376 86 Q 399 101 400 128 Q 399 155 376 170 Q 352 182 328 170 Q 305 155 304 128 L 304 128 Z M 416 128 Q 415 92 384 73 Q 352 55 320 73 Q 289 92 288 128 Q 289 164 320 183 Q 352 201 384 183 Q 415 164 416 128 L 416 128 Z" />
</svg>