<svg xmlns="http://www.w3.org/2000/svg" viewBox="0 0 640 512">
  <path d="M 496 16 L 496 272 L 496 16 L 496 272 L 144 272 L 144 272 L 144 16 L 144 16 L 256 16 L 256 16 L 256 124 L 256 124 L 256 144 L 256 144 L 272 132 L 272 132 L 320 96 L 320 96 L 368 132 L 368 132 L 384 144 L 384 144 L 384 124 L 384 124 L 384 16 L 384 16 L 496 16 L 496 16 Z M 272 16 L 368 16 L 272 16 L 368 16 L 368 112 L 368 112 L 330 83 L 330 83 L 320 76 L 320 76 L 310 83 L 310 83 L 272 112 L 272 112 L 272 16 L 272 16 Z M 496 0 L 384 0 L 496 0 L 128 0 L 128 16 L 128 16 L 128 272 L 128 272 L 128 288 L 128 288 L 144 288 L 512 288 L 512 272 L 512 272 L 512 16 L 512 16 L 512 0 L 512 0 L 496 0 L 496 0 Z M 0 352 L 0 368 L 0 352 L 0 368 L 8 368 L 80 368 L 80 496 L 80 496 L 8 496 L 0 496 L 0 512 L 0 512 L 8 512 L 640 512 L 640 496 L 640 496 L 632 496 L 560 496 L 560 368 L 560 368 L 632 368 L 640 368 L 640 352 L 640 352 L 632 352 L 0 352 Z M 96 496 L 96 368 L 96 496 L 96 368 L 312 368 L 312 368 L 312 496 L 312 496 L 96 496 L 96 496 Z M 328 496 L 328 368 L 328 496 L 328 368 L 544 368 L 544 368 L 544 496 L 544 496 L 328 496 L 328 496 Z" />
</svg>