<svg xmlns="http://www.w3.org/2000/svg" viewBox="0 0 576 448">
  <path d="M 560 16 L 560 432 L 560 16 L 560 432 L 16 432 L 16 432 L 16 16 L 16 16 L 560 16 L 560 16 Z M 16 0 L 0 0 L 16 0 L 0 0 L 0 16 L 0 16 L 0 432 L 0 432 L 0 448 L 0 448 L 16 448 L 576 448 L 576 432 L 576 432 L 576 16 L 576 16 L 576 0 L 576 0 L 560 0 L 16 0 Z M 304 128 L 288 128 L 304 128 L 288 128 L 288 136 L 288 136 L 288 312 L 288 312 L 288 320 L 288 320 L 304 320 L 304 320 L 304 312 L 304 312 L 304 136 L 304 136 L 304 128 L 304 128 Z M 368 128 L 368 136 L 368 128 L 368 136 L 368 232 L 368 232 L 368 312 L 368 312 L 368 320 L 368 320 L 384 320 L 384 320 L 384 312 L 384 312 L 384 240 L 384 240 L 464 240 L 472 240 L 472 224 L 472 224 L 464 224 L 384 224 L 384 144 L 384 144 L 480 144 L 488 144 L 488 128 L 488 128 L 480 128 L 368 128 Z M 96 224 Q 97 190 119 167 L 119 167 L 119 167 Q 142 145 176 144 Q 206 145 227 162 L 233 167 L 233 167 L 243 155 L 243 155 L 237 150 L 237 150 Q 211 129 176 128 Q 135 129 108 156 Q 81 183 80 224 Q 81 265 108 292 Q 135 319 176 320 Q 212 319 237 298 L 240 296 L 240 296 L 240 292 L 240 292 L 240 224 L 240 224 L 240 216 L 240 216 L 232 216 L 152 216 L 152 232 L 152 232 L 160 232 L 224 232 L 224 288 L 224 288 Q 203 304 176 304 Q 142 303 119 281 Q 97 258 96 224 L 96 224 Z" />
</svg>