<svg xmlns="http://www.w3.org/2000/svg" viewBox="0 0 512 512">
  <path d="M 174 416 L 16 416 L 174 416 L 0 416 L 0 400 L 0 400 L 0 16 L 0 16 L 0 0 L 0 0 L 16 0 L 512 0 L 512 16 L 512 16 L 512 400 L 512 400 L 512 416 L 512 416 L 496 416 L 338 416 L 267 500 L 267 500 L 256 512 L 256 512 L 246 500 L 246 500 L 174 416 L 174 416 Z M 256 487 L 326 406 L 256 487 L 326 406 L 331 400 L 331 400 L 338 400 L 496 400 L 496 16 L 496 16 L 16 16 L 16 16 L 16 400 L 16 400 L 174 400 L 181 400 L 186 406 L 186 406 L 256 487 L 256 487 Z" />
</svg>