<svg xmlns="http://www.w3.org/2000/svg" viewBox="0 0 640 523">
  <path d="M 416 235 Q 415 194 388 167 L 388 167 L 388 167 Q 361 140 320 139 Q 300 139 283 146 L 298 158 L 298 158 Q 309 155 320 155 Q 354 156 377 178 Q 399 201 400 235 Q 400 237 400 238 L 415 250 L 415 250 Q 416 243 416 235 L 416 235 Z M 224 91 Q 223 57 201 34 L 201 34 L 201 34 Q 178 12 144 11 Q 130 11 118 16 L 133 28 L 133 28 Q 139 27 144 27 Q 170 28 188 44 Q 206 61 208 87 L 224 99 L 224 99 Q 224 95 224 91 L 224 91 Z M 48 203 L 6 315 L 48 203 L 6 315 L 23 315 L 23 315 L 59 219 L 59 219 L 143 219 L 143 219 L 123 203 L 123 203 L 48 203 L 48 203 Z M 176 363 L 133 507 L 176 363 L 133 507 L 128 523 L 128 523 L 145 523 L 512 523 L 507 507 L 507 507 L 507 506 L 507 506 L 485 489 L 485 489 L 491 507 L 491 507 L 150 507 L 150 507 L 188 379 L 188 379 L 346 379 L 346 379 L 325 363 L 325 363 L 176 363 L 176 363 Z M 444 203 Q 446 211 447 219 L 581 219 L 581 219 L 617 315 L 617 315 L 634 315 L 634 315 L 592 203 L 592 203 L 444 203 L 444 203 Z M 448 91 Q 449 55 480 36 Q 512 18 544 36 Q 575 55 576 91 Q 575 127 544 146 Q 512 164 480 146 Q 449 127 448 91 L 448 91 Z M 592 91 Q 591 46 552 22 Q 512 0 472 22 Q 433 46 432 91 Q 433 136 472 160 Q 512 182 552 160 Q 591 136 592 91 L 592 91 Z M 16 16 L 10 11 L 16 16 L 10 11 L 0 24 L 0 24 L 6 29 L 6 29 L 624 518 L 624 518 L 630 523 L 630 523 L 640 511 L 640 511 L 634 506 L 634 506 L 16 16 L 16 16 Z" />
</svg>