<svg xmlns="http://www.w3.org/2000/svg" viewBox="0 0 384 512">
  <path d="M 56 512 L 48 512 L 56 512 L 48 512 L 48 504 L 48 504 L 48 256 L 48 256 L 8 256 L 0 256 L 0 248 L 0 248 L 0 152 L 0 152 Q 2 87 45 45 Q 87 2 152 0 L 232 0 L 232 0 Q 297 2 339 45 Q 382 87 384 152 L 384 160 L 384 160 L 384 168 L 384 168 L 384 232 L 384 232 L 384 304 L 384 304 L 384 312 L 384 312 L 376 312 L 304 312 L 304 320 L 304 320 L 304 328 L 304 328 L 296 328 L 224 328 L 224 352 L 224 352 L 224 360 L 224 360 L 216 360 L 144 360 L 144 504 L 144 504 L 144 512 L 144 512 L 136 512 L 56 512 Z M 144 344 L 208 344 L 144 344 L 208 344 L 208 328 L 208 328 L 208 320 L 208 320 L 208 256 L 208 256 L 144 256 L 144 256 L 144 344 L 144 344 Z M 208 240 Q 208 240 208 240 L 208 240 L 208 240 Q 208 240 208 240 L 208 176 L 208 176 L 104 176 L 96 176 L 96 160 L 96 160 L 104 160 L 368 160 L 368 152 L 368 152 Q 367 94 328 56 Q 290 17 232 16 L 152 16 L 152 16 Q 94 17 56 56 Q 17 94 16 152 L 16 240 L 16 240 L 48 240 L 48 240 Q 48 240 48 240 Q 48 240 48 240 L 64 240 L 64 240 Q 64 240 64 240 Q 64 240 64 240 L 128 240 L 128 240 Q 128 240 128 240 Q 128 240 128 240 L 144 240 L 144 240 Q 144 240 144 240 Q 144 240 144 240 L 208 240 L 208 240 Z M 224 240 L 224 248 L 224 240 L 224 248 L 224 256 L 224 256 L 224 312 L 224 312 L 288 312 L 288 312 L 288 304 L 288 304 L 288 176 L 288 176 L 224 176 L 224 176 L 224 240 L 224 240 Z M 128 256 L 64 256 L 128 256 L 64 256 L 64 496 L 64 496 L 128 496 L 128 496 L 128 360 L 128 360 L 128 352 L 128 352 L 128 256 L 128 256 Z M 368 232 L 368 176 L 368 232 L 368 176 L 304 176 L 304 176 L 304 296 L 304 296 L 368 296 L 368 296 L 368 232 L 368 232 Z" />
</svg>