<svg xmlns="http://www.w3.org/2000/svg" viewBox="0 0 448 448">
  <path d="M 16 336 L 432 336 L 16 336 L 432 336 L 432 320 L 432 320 Q 431 253 401 204 Q 372 154 331 118 Q 299 89 270 67 Q 270 67 270 67 Q 270 67 270 67 Q 270 67 270 67 Q 269 66 269 66 Q 262 61 256 56 Q 239 43 227 31 Q 225 29 224 28 Q 222 29 221 31 Q 209 43 192 56 Q 185 61 178 67 Q 149 89 117 118 Q 76 154 47 204 Q 17 253 16 320 L 16 336 L 16 336 Z M 16 352 L 16 377 L 16 352 L 16 377 L 71 432 L 71 432 L 377 432 L 377 432 L 432 377 L 432 377 L 432 352 L 432 352 L 16 352 L 16 352 Z M 168 54 Q 169 54 170 53 L 170 53 L 170 53 Q 198 31 214 15 Q 221 7 224 0 Q 227 7 234 15 Q 250 31 278 53 Q 279 54 280 54 Q 314 80 353 116 Q 392 153 419 203 Q 447 253 448 320 L 448 352 L 448 352 L 448 384 L 448 384 L 384 448 L 384 448 L 64 448 L 64 448 L 0 384 L 0 384 L 0 352 L 0 352 L 0 320 L 0 320 Q 1 253 29 203 Q 56 153 95 116 Q 134 80 168 54 L 168 54 Z" />
</svg>