<svg xmlns="http://www.w3.org/2000/svg" viewBox="0 0 640 480">
  <path d="M 16 16 L 16 368 L 16 16 L 16 368 L 97 368 L 97 368 Q 104 333 130 311 Q 156 289 192 288 Q 228 289 254 311 Q 280 333 287 368 L 288 368 L 560 368 L 560 160 L 560 160 Q 558 99 518 58 Q 477 18 416 16 L 16 16 L 16 16 Z M 96 384 L 16 384 L 96 384 L 0 384 L 0 368 L 0 368 L 0 16 L 0 16 L 0 0 L 0 0 L 16 0 L 416 0 Q 484 2 529 47 Q 574 92 576 160 L 576 368 L 576 368 L 632 368 L 640 368 L 640 384 L 640 384 L 632 384 L 288 384 Q 287 425 260 452 Q 233 479 192 480 Q 151 479 124 452 Q 97 425 96 384 L 96 384 Z M 240 112 L 80 112 L 240 112 L 80 112 L 80 208 L 80 208 L 240 208 L 240 208 L 240 112 L 240 112 Z M 80 96 L 240 96 L 80 96 L 256 96 L 256 112 L 256 112 L 256 208 L 256 208 L 256 224 L 256 224 L 240 224 L 64 224 L 64 208 L 64 208 L 64 112 L 64 112 L 64 96 L 64 96 L 80 96 L 80 96 Z M 336 112 L 336 208 L 336 112 L 336 208 L 432 208 L 432 208 L 432 112 L 432 112 L 336 112 L 336 112 Z M 320 96 L 336 96 L 320 96 L 448 96 L 448 112 L 448 112 L 448 208 L 448 208 L 448 224 L 448 224 L 432 224 L 320 224 L 320 208 L 320 208 L 320 112 L 320 112 L 320 96 L 320 96 Z M 272 384 Q 271 339 232 315 Q 192 293 152 315 Q 113 339 112 384 Q 113 429 152 453 Q 192 475 232 453 Q 271 429 272 384 L 272 384 Z" />
</svg>