<svg xmlns="http://www.w3.org/2000/svg" viewBox="0 0 512 512">
  <path d="M 0 28.444445 L 28.444445 28.444445 L 312.8889 28.444445 L 341.33334 28.444445 L 341.33334 85.333336 L 312.8889 85.333336 L 312.8889 142.22223 L 312.8889 153.77777 L 304.8889 162.66667 L 210.66667 256 L 242.66667 288 Q 227.55556 319.1111 227.55556 355.55554 Q 228.44444 395.55554 246.22223 428.44446 Q 264 462.22223 294.22223 483.55554 L 28.444445 483.55554 L 0 483.55554 L 0 426.66666 L 28.444445 426.66666 L 28.444445 369.77777 L 28.444445 358.22223 L 36.444443 349.33334 L 130.66667 256 L 36.444443 162.66667 L 28.444445 153.77777 L 28.444445 142.22223 L 28.444445 85.333336 L 0 85.333336 L 0 28.444445 L 0 28.444445 Z M 85.333336 85.333336 L 85.333336 130.66667 L 96.888885 142.22223 L 244.44444 142.22223 L 256 130.66667 L 256 85.333336 L 85.333336 85.333336 L 85.333336 85.333336 Z M 256 355.55554 Q 256 320.8889 272.8889 291.55554 L 272.8889 291.55554 Q 289.77777 262.22223 320 244.44444 Q 350.22223 227.55556 384 227.55556 Q 417.77777 227.55556 448 244.44444 Q 478.22223 262.22223 495.1111 291.55554 Q 512 320.8889 512 355.55554 Q 512 390.22223 495.1111 419.55554 Q 478.22223 448.8889 448 466.66666 Q 417.77777 483.55554 384 483.55554 Q 350.22223 483.55554 320 466.66666 Q 289.77777 448.8889 272.8889 419.55554 Q 256 390.22223 256 355.55554 L 256 355.55554 Z M 398.22223 284.44446 L 369.77777 284.44446 L 369.77777 298.66666 L 369.77777 355.55554 L 369.77777 369.77777 L 384 369.77777 L 426.66666 369.77777 L 440.8889 369.77777 L 440.8889 341.33334 L 426.66666 341.33334 L 398.22223 341.33334 L 398.22223 298.66666 L 398.22223 284.44446 L 398.22223 284.44446 Z" />
</svg>