<svg xmlns="http://www.w3.org/2000/svg" viewBox="0 0 448 448">
  <path d="M 432 16 L 16 16 L 432 16 L 16 16 L 16 432 L 16 432 L 432 432 L 432 432 L 432 16 L 432 16 Z M 448 0 L 448 16 L 448 0 L 448 16 L 448 432 L 448 432 L 448 448 L 448 448 L 432 448 L 0 448 L 0 432 L 0 432 L 0 16 L 0 16 L 0 0 L 0 0 L 16 0 L 448 0 Z M 144 208 L 144 240 L 144 208 L 144 240 L 112 240 L 112 240 L 112 208 L 112 208 L 144 208 L 144 208 Z M 208 208 L 240 208 L 208 208 L 240 208 L 240 240 L 240 240 L 208 240 L 208 240 L 208 208 L 208 208 Z M 336 208 L 336 240 L 336 208 L 336 240 L 304 240 L 304 240 L 304 208 L 304 208 L 336 208 L 336 208 Z" />
</svg>