<svg xmlns="http://www.w3.org/2000/svg" viewBox="0 0 448 512">
  <path d="M 432 16 L 432 496 L 432 16 L 432 496 L 16 496 L 16 496 L 16 16 L 16 16 L 432 16 L 432 16 Z M 16 0 L 0 0 L 16 0 L 0 0 L 0 16 L 0 16 L 0 496 L 0 496 L 0 512 L 0 512 L 16 512 L 448 512 L 448 496 L 448 496 L 448 16 L 448 16 L 448 0 L 448 0 L 432 0 L 16 0 Z M 96 80 Q 111 81 112 96 Q 111 111 96 112 Q 81 111 80 96 Q 81 81 96 80 L 96 80 Z M 96 128 Q 110 128 119 119 L 119 119 L 119 119 Q 128 110 128 96 Q 128 82 119 73 Q 110 64 96 64 Q 82 64 73 73 Q 64 82 64 96 Q 64 110 73 119 Q 82 128 96 128 L 96 128 Z M 176 96 Q 177 81 192 80 Q 207 81 208 96 Q 207 111 192 112 Q 177 111 176 96 L 176 96 Z M 224 96 Q 224 82 215 73 L 215 73 L 215 73 Q 206 64 192 64 Q 178 64 169 73 Q 160 82 160 96 Q 160 110 169 119 Q 178 128 192 128 Q 206 128 215 119 Q 224 110 224 96 L 224 96 Z M 224 432 Q 172 431 136 397 L 136 397 L 136 397 Q 101 363 96 312 L 184 312 L 192 312 L 192 296 L 192 296 L 184 296 L 96 296 Q 101 245 136 211 Q 172 177 224 176 Q 278 177 315 213 Q 351 250 352 304 Q 351 358 315 395 Q 278 431 224 432 L 224 432 Z M 224 448 Q 263 448 296 429 L 296 429 L 296 429 Q 329 410 349 376 Q 368 342 368 304 Q 368 266 349 232 Q 329 198 296 179 Q 263 160 224 160 Q 185 160 152 179 Q 119 198 99 232 Q 80 266 80 304 Q 80 342 99 376 Q 119 410 152 429 Q 185 448 224 448 L 224 448 Z" />
</svg>