<svg xmlns="http://www.w3.org/2000/svg" viewBox="0 0 512 384">
  <path d="M 0 56 L 0 48 L 0 56 L 0 48 L 8 48 L 256 48 L 256 8 L 256 8 L 256 0 L 256 0 L 264 0 L 360 0 Q 425 2 467 45 Q 510 87 512 152 L 512 232 L 512 232 Q 510 297 467 339 Q 425 382 360 384 L 352 384 L 200 384 L 200 376 L 200 376 L 200 304 L 200 304 L 192 304 L 184 304 L 184 296 L 184 296 L 184 224 L 184 224 L 160 224 L 152 224 L 152 216 L 152 216 L 152 144 L 152 144 L 8 144 L 0 144 L 0 136 L 0 136 L 0 56 L 0 56 Z M 168 144 L 168 208 L 168 144 L 168 208 L 184 208 L 256 208 L 256 144 L 256 144 L 168 144 L 168 144 Z M 272 208 Q 272 208 272 208 L 272 208 L 272 208 Q 272 208 272 208 L 336 208 L 336 208 L 336 104 L 336 104 L 336 96 L 336 96 L 352 96 L 352 96 L 352 104 L 352 104 L 352 208 L 352 208 L 352 216 L 352 216 L 352 224 L 352 224 L 352 288 L 352 288 L 352 296 L 352 296 L 352 304 L 352 304 L 352 368 L 352 368 L 360 368 L 360 368 Q 418 367 456 328 Q 495 290 496 232 L 496 152 L 496 152 Q 495 94 456 56 Q 418 17 360 16 L 272 16 L 272 16 L 272 48 L 272 48 Q 272 48 272 48 Q 272 48 272 48 L 272 64 L 272 64 Q 272 64 272 64 Q 272 64 272 64 L 272 128 L 272 128 Q 272 128 272 128 Q 272 128 272 128 L 272 144 L 272 144 Q 272 144 272 144 Q 272 144 272 144 L 272 208 L 272 208 Z M 272 224 L 264 224 L 272 224 L 200 224 L 200 288 L 200 288 L 208 288 L 336 288 L 336 224 L 336 224 L 272 224 L 272 224 Z M 256 128 L 256 64 L 256 128 L 256 64 L 16 64 L 16 64 L 16 128 L 16 128 L 152 128 L 256 128 Z M 280 368 L 336 368 L 280 368 L 336 368 L 336 304 L 336 304 L 216 304 L 216 304 L 216 368 L 216 368 L 280 368 L 280 368 Z" />
</svg>