<svg xmlns="http://www.w3.org/2000/svg" viewBox="0 0 512 448">
  <path d="M 496 16 L 496 432 L 496 16 L 496 432 L 16 432 L 16 432 L 16 16 L 16 16 L 496 16 L 496 16 Z M 16 0 L 0 0 L 16 0 L 0 0 L 0 16 L 0 16 L 0 432 L 0 432 L 0 448 L 0 448 L 16 448 L 512 448 L 512 432 L 512 432 L 512 16 L 512 16 L 512 0 L 512 0 L 496 0 L 16 0 Z M 93 129 L 99 134 L 93 129 L 99 134 L 196 224 L 196 224 L 99 314 L 99 314 L 93 320 L 93 320 L 104 331 L 104 331 L 110 326 L 110 326 L 214 230 L 214 230 L 220 224 L 220 224 L 214 218 L 214 218 L 110 122 L 110 122 L 104 117 L 104 117 L 93 129 L 93 129 Z M 200 336 L 192 336 L 200 336 L 192 336 L 192 352 L 192 352 L 200 352 L 416 352 L 416 336 L 416 336 L 408 336 L 200 336 Z" />
</svg>