<svg xmlns="http://www.w3.org/2000/svg" viewBox="0 0 448 457">
  <path d="M 448 448 Q 447 323 387 222 L 387 222 L 387 222 Q 327 121 226 61 L 226 61 L 226 61 Q 125 1 0 0 L 0 16 L 0 16 Q 121 17 218 75 Q 315 133 373 230 Q 431 327 432 448 L 448 448 L 448 448 Z M 0 160 Q 80 161 145 199 L 145 199 L 145 199 Q 210 238 249 303 L 249 303 L 249 303 Q 287 368 288 448 L 304 448 L 304 448 Q 303 363 262 295 Q 222 226 153 186 Q 85 145 0 144 L 0 160 L 0 160 Z M 16 384 Q 17 357 40 342 Q 64 330 88 342 Q 111 357 112 384 Q 111 411 88 426 Q 64 438 40 426 Q 17 411 16 384 L 16 384 Z M 128 384 Q 127 348 96 329 Q 64 311 32 329 Q 1 348 0 384 Q 1 420 32 439 Q 64 457 96 439 Q 127 420 128 384 L 128 384 Z" />
</svg>