<svg xmlns="http://www.w3.org/2000/svg" viewBox="0 0 641 480">
  <path d="M 448 0 L 0 0 L 448 0 L 0 0 L 0 448 L 0 448 L 337 448 L 337 448 Q 290 396 288 320 Q 289 277 311 239 Q 332 201 360 170 Q 400 125 448 87 L 448 0 L 448 0 Z M 112 88 L 112 232 L 112 88 L 112 232 L 112 256 L 112 256 L 64 256 L 64 256 L 64 232 L 64 232 L 64 88 L 64 88 L 64 64 L 64 64 L 112 64 L 112 64 L 112 88 L 112 88 Z M 208 88 L 208 232 L 208 88 L 208 232 L 208 256 L 208 256 L 160 256 L 160 256 L 160 232 L 160 232 L 160 88 L 160 88 L 160 64 L 160 64 L 208 64 L 208 64 L 208 88 L 208 88 Z M 448 128 Q 425 142 396 170 L 396 170 L 396 170 Q 366 198 344 236 L 344 236 L 344 236 Q 321 275 320 320 Q 322 388 367 433 Q 412 478 480 480 Q 548 478 593 433 Q 638 388 640 320 Q 641 298 621 254 Q 600 209 544 160 L 512 192 L 512 192 L 448 128 L 448 128 Z M 544 368 Q 543 395 525 413 L 525 413 L 525 413 Q 507 432 480 432 Q 453 432 435 413 Q 417 395 416 368 Q 417 344 433 322 Q 448 300 463 286 Q 479 273 480 272 Q 481 273 497 286 Q 512 300 527 322 Q 543 344 544 368 L 544 368 Z" />
</svg>