<svg xmlns="http://www.w3.org/2000/svg" viewBox="0 0 512 512">
  <path d="M 25.6 89.6 L 332.8 89.6 L 332.8 155.2 Q 345.6 144 358.4 133.6 L 358.4 89.6 L 358.4 64 L 332.8 64 L 25.6 64 L 0 64 L 0 89.6 L 0 396.8 L 0 422.4 L 25.6 422.4 L 269.6 422.4 Q 259.2 410.4 251.2 396.8 L 25.6 396.8 L 25.6 89.6 L 25.6 89.6 Z M 102.4 153.6 L 102.4 140.8 L 76.8 140.8 L 76.8 153.6 L 76.8 256 L 76.8 268.8 L 102.4 268.8 L 102.4 256 L 102.4 153.6 L 102.4 153.6 Z M 153.6 153.6 L 153.6 140.8 L 128 140.8 L 128 153.6 L 128 256 L 128 268.8 L 153.6 268.8 L 153.6 256 L 153.6 153.6 L 153.6 153.6 Z M 410.4 256.8 L 429.6 234.4 Q 432 231.2 434.4 228.8 Q 435.2 228.8 435.2 228.8 Q 444 237.6 453.6 249.6 Q 468 268 476.8 286.4 Q 486.4 304.8 486.4 320 Q 485.6 364 456.8 392.8 Q 427.2 421.6 384 422.4 Q 340.8 421.6 311.2 392.8 Q 282.4 364 281.6 320 Q 281.6 302.4 294.4 278.4 Q 308 255.2 326.4 233.6 Q 344 213.6 358.4 200.8 Q 372.8 213.6 391.2 234.4 L 410.4 256.8 L 410.4 256.8 Z M 358.4 166.4 Q 356.8 167.2 332 190.4 L 332 190.4 Q 307.2 213.6 282.4 248.8 L 282.4 248.8 Q 257.6 284 256 320 Q 257.6 374.4 293.6 410.4 Q 329.6 446.4 384 448 Q 438.4 446.4 474.4 410.4 Q 510.4 374.4 512 320 Q 510.4 289.6 492 260.8 Q 473.6 232 455.2 212 Q 436.8 192.8 435.2 192 Q 435.2 192 428 199.2 Q 420.8 205.6 410.4 217.6 Q 401.6 207.2 392.8 199.2 Q 378.4 184 368.8 175.2 Q 358.4 167.2 358.4 166.4 L 358.4 166.4 Z M 359.2 248.8 L 348.8 260.8 Q 332.8 280 323.2 295.2 Q 313.6 311.2 313.6 328 Q 314.4 360 335.2 378.4 Q 355.2 396.8 384.8 396.8 Q 408 396.8 427.2 384 L 427.2 384 L 428 384 Q 448 368.8 452.8 344.8 Q 457.6 320.8 446.4 298.4 L 446.4 298.4 Q 444 293.6 440 288 L 432 277.6 L 422.4 284.8 L 400 301.6 L 389.6 288 Q 386.4 284 383.2 280 Q 372 264.8 368.8 260.8 L 359.2 248.8 L 359.2 248.8 Z M 425.6 314.4 Q 431.2 328 427.2 341.6 L 427.2 341.6 Q 424 354.4 412.8 362.4 Q 400 371.2 384.8 371.2 Q 364 371.2 352 360 Q 340 349.6 339.2 328 Q 339.2 320 345.6 308 Q 350.4 300 359.2 289.6 Q 361.6 293.6 365.6 298.4 Q 367.2 300.8 368.8 303.2 Q 372.8 308 376 312.8 Q 379.2 316.8 381.6 320 L 385.6 324.8 L 387.2 326.4 L 387.2 327.2 L 387.2 327.2 L 387.2 327.2 L 387.2 327.2 L 387.2 327.2 L 397.6 319.2 L 387.2 327.2 L 395.2 336.8 L 404.8 329.6 L 425.6 314.4 L 425.6 314.4 Z" />
</svg>