<svg xmlns="http://www.w3.org/2000/svg" viewBox="0 0 560 512">
  <path d="M 240 8 L 240 0 L 240 8 L 240 0 L 224 0 L 224 0 L 224 8 L 224 8 L 224 32 L 224 32 Q 225 52 238 66 Q 252 79 272 80 L 288 80 L 310 80 L 260 105 L 260 105 L 256 107 L 256 107 L 256 112 L 256 112 L 256 136 L 256 136 L 256 144 L 256 144 L 264 144 L 319 144 L 307 176 L 307 176 L 112 176 L 112 176 Q 112 176 112 176 Q 112 176 112 176 L 88 176 L 88 176 Q 51 177 26 202 Q 1 227 0 264 L 0 312 L 0 312 L 0 320 L 0 320 L 16 320 L 16 320 L 16 312 L 16 312 L 16 264 L 16 264 Q 17 233 37 213 Q 57 193 88 192 L 112 192 L 112 192 Q 112 192 112 192 Q 112 192 112 192 L 313 192 L 319 192 L 321 187 L 321 187 L 336 144 L 336 144 L 336 144 L 336 144 L 344 144 L 344 144 L 344 128 L 344 128 L 341 128 L 272 128 L 272 117 L 272 117 L 346 80 L 346 80 L 405 80 L 405 80 L 480 156 L 480 156 Q 482 174 496 184 L 496 208 L 496 208 L 400 208 L 394 208 L 392 214 L 392 214 L 370 296 L 370 296 Q 368 303 368 310 L 368 496 L 368 496 L 296 496 L 296 496 L 296 352 L 296 352 L 296 344 L 296 344 L 288 344 L 219 344 L 181 314 L 181 314 L 165 301 L 165 301 L 168 321 L 168 321 L 175 364 L 175 364 L 132 393 L 132 393 L 127 397 L 127 397 L 128 402 L 128 402 L 157 496 L 157 496 L 86 496 L 86 496 L 56 400 L 56 400 L 72 355 L 72 355 L 72 353 L 72 353 L 72 352 L 72 352 L 72 320 L 72 320 L 72 316 L 72 316 L 68 313 L 68 313 L 44 297 L 44 297 Q 37 292 32 285 L 32 308 L 32 308 Q 32 308 33 309 Q 34 309 35 310 L 56 324 L 56 324 L 56 351 L 56 351 L 40 398 L 40 398 L 40 400 L 40 400 L 40 402 L 40 402 L 72 506 L 72 506 L 74 512 L 74 512 L 80 512 L 179 512 L 176 502 L 176 502 L 145 403 L 145 403 L 188 375 L 188 375 L 193 372 L 193 372 L 192 367 L 192 367 L 187 339 L 187 339 L 211 358 L 211 358 L 213 360 L 213 360 L 216 360 L 280 360 L 280 504 L 280 504 L 280 512 L 280 512 L 288 512 L 384 512 L 384 504 L 384 504 L 384 310 L 384 310 Q 384 305 385 300 L 406 224 L 406 224 L 504 224 L 512 224 L 512 216 L 512 216 L 512 191 L 512 191 Q 516 192 520 192 Q 537 192 548 180 Q 560 169 560 152 Q 560 135 548 124 Q 537 112 520 112 Q 494 113 483 136 L 427 80 L 427 80 Q 446 78 459 65 Q 472 52 472 32 L 472 8 L 472 8 L 472 0 L 472 0 L 456 0 L 456 0 L 456 8 L 456 8 L 456 32 L 456 32 Q 456 46 447 55 Q 438 64 424 64 L 416 64 L 408 64 Q 408 64 408 64 Q 408 64 408 64 L 344 64 L 340 64 Q 352 51 352 32 L 352 8 L 352 8 L 352 0 L 352 0 L 336 0 L 336 0 L 336 8 L 336 8 L 336 32 L 336 32 Q 336 46 327 55 Q 318 64 304 64 L 296 64 L 272 64 Q 258 64 249 55 Q 240 46 240 32 L 240 8 L 240 8 Z M 544 152 Q 542 174 520 176 Q 498 174 496 152 Q 498 130 520 128 Q 542 130 544 152 L 544 152 Z M 416 144 Q 415 129 400 128 Q 385 129 384 144 Q 385 159 400 160 Q 415 159 416 144 L 416 144 Z" />
</svg>