<svg xmlns="http://www.w3.org/2000/svg" viewBox="0 0 512 512">
  <path d="M 232 8 L 232 0 L 232 8 L 232 0 L 216 0 L 216 0 L 216 8 L 216 8 L 216 55 L 216 55 L 80 34 L 80 34 L 64 32 L 64 32 L 64 48 L 64 48 L 64 112 L 64 112 L 64 128 L 64 128 L 80 126 L 80 126 L 216 105 L 216 105 L 216 144 L 216 144 L 176 144 L 173 144 L 170 146 L 170 146 L 125 192 L 125 192 L 8 192 L 0 192 L 0 208 L 0 208 L 8 208 L 131 208 L 134 206 L 134 206 L 179 160 L 179 160 L 269 160 L 269 160 L 314 206 L 314 206 L 317 208 L 317 208 L 320 208 L 376 208 Q 427 209 461 243 Q 495 277 496 328 L 496 368 L 496 368 L 400 368 L 400 368 L 400 344 L 400 344 Q 400 327 388 316 Q 377 305 360 304 L 316 304 L 312 304 L 309 308 L 309 308 Q 279 350 224 352 Q 169 350 139 308 L 136 304 L 136 304 L 132 304 L 0 304 L 0 320 L 0 320 L 8 320 L 128 320 Q 163 366 224 368 Q 285 366 320 320 L 360 320 L 360 320 Q 382 322 384 344 L 384 376 L 384 376 L 384 384 L 384 384 L 392 384 L 512 384 L 512 376 L 512 376 L 512 328 L 512 328 Q 511 270 472 232 Q 434 193 376 192 L 323 192 L 323 192 L 278 146 L 278 146 L 275 144 L 275 144 L 272 144 L 232 144 L 232 105 L 232 105 L 368 126 L 368 126 L 384 128 L 384 128 L 384 112 L 384 112 L 384 48 L 384 48 L 384 32 L 384 32 L 368 34 L 368 34 L 232 55 L 232 55 L 232 8 L 232 8 Z M 216 71 L 216 89 L 216 71 L 216 89 L 80 109 L 80 109 L 80 51 L 80 51 L 216 71 L 216 71 Z M 232 89 L 232 71 L 232 89 L 232 71 L 368 51 L 368 51 L 368 109 L 368 109 L 232 89 L 232 89 Z M 434 473 L 448 448 L 434 473 L 448 448 L 462 473 L 462 473 Q 464 476 464 480 Q 463 495 448 496 L 448 496 L 448 496 Q 433 495 432 480 Q 432 476 434 473 L 434 473 Z M 420 465 Q 416 472 416 480 Q 416 494 425 503 Q 434 512 448 512 L 448 512 L 448 512 Q 462 512 471 503 Q 480 494 480 480 Q 480 472 476 465 L 457 432 L 457 432 L 448 416 L 448 416 L 439 432 L 439 432 L 420 465 L 420 465 Z" />
</svg>