<svg xmlns="http://www.w3.org/2000/svg" viewBox="0 0 640 512">
  <path d="M 352 0 L 541 0 L 352 0 L 541 0 L 537 16 L 537 16 L 352 16 L 352 16 Q 254 18 189 50 Q 124 81 86 123 Q 47 165 31 197 Q 28 201 26 205 Q 25 207 25 208 L 499 208 L 499 208 L 496 224 L 496 224 L 17 224 L 0 224 Q 0 224 7 208 Q 18 180 57 131 Q 95 83 167 43 Q 239 2 352 0 L 352 0 Z M 637 16 L 618 102 L 637 16 L 618 102 L 624 72 L 624 72 L 570 327 L 570 327 L 530 512 L 530 512 L 481 512 L 464 512 L 468 496 L 468 496 L 495 368 L 495 368 L 499 352 L 499 352 L 482 352 L 384 352 L 384 336 L 384 336 L 384 304 L 384 304 L 384 288 L 384 288 L 400 288 L 512 288 L 574 0 L 574 0 L 623 0 L 640 0 L 636 16 L 637 16 Z M 416 336 L 499 336 L 416 336 L 519 336 L 514 355 L 514 355 L 484 496 L 484 496 L 517 496 L 517 496 L 554 323 L 554 323 L 620 16 L 620 16 L 587 16 L 587 16 L 528 291 L 528 291 L 525 304 L 525 304 L 513 304 L 400 304 L 400 336 L 400 336 L 416 336 L 416 336 Z" />
</svg>