<svg xmlns="http://www.w3.org/2000/svg" viewBox="0 0 576 448">
  <path d="M 560 16 L 560 336 L 560 16 L 560 336 L 458 336 L 458 336 L 416 224 L 416 224 L 256 224 L 256 224 L 214 336 L 214 336 L 112 336 L 112 336 L 112 16 L 112 16 L 560 16 L 560 16 Z M 464 352 L 560 352 L 464 352 L 576 352 L 576 336 L 576 336 L 576 16 L 576 16 L 576 0 L 576 0 L 560 0 L 96 0 L 96 16 L 96 16 L 96 336 L 96 336 L 96 352 L 96 352 L 112 352 L 464 352 Z M 441 336 L 231 336 L 441 336 L 231 336 L 267 240 L 267 240 L 405 240 L 405 240 L 441 336 L 441 336 Z M 64 96 L 16 96 L 64 96 L 0 96 L 0 112 L 0 112 L 0 432 L 0 432 L 0 448 L 0 448 L 16 448 L 480 448 L 480 432 L 480 432 L 480 384 L 480 384 L 464 384 L 464 384 L 464 432 L 464 432 L 16 432 L 16 432 L 16 112 L 16 112 L 64 112 L 64 112 L 64 96 L 64 96 Z M 288 128 Q 289 101 312 86 Q 336 74 360 86 Q 383 101 384 128 Q 383 155 360 170 Q 336 182 312 170 Q 289 155 288 128 L 288 128 Z M 336 192 Q 372 191 391 160 Q 409 128 391 96 Q 372 65 336 64 Q 300 65 281 96 Q 263 128 281 160 Q 300 191 336 192 L 336 192 Z" />
</svg>