<svg xmlns="http://www.w3.org/2000/svg" viewBox="0 0 320 512">
  <path d="M 240 16 L 80 16 L 240 16 L 80 16 L 80 256 L 80 256 Q 81 290 103 313 Q 126 335 160 336 Q 194 335 217 313 Q 239 290 240 256 L 168 256 L 160 256 L 160 240 L 160 240 L 168 240 L 240 240 L 240 192 L 240 192 L 168 192 L 160 192 L 160 176 L 160 176 L 168 176 L 240 176 L 240 128 L 240 128 L 168 128 L 160 128 L 160 112 L 160 112 L 168 112 L 240 112 L 240 16 L 240 16 Z M 256 112 L 256 128 L 256 112 L 256 128 L 256 176 L 256 176 L 256 192 L 256 192 L 256 240 L 256 240 L 256 256 L 256 256 Q 255 297 228 324 Q 201 351 160 352 Q 119 351 92 324 Q 65 297 64 256 L 64 16 L 64 16 L 64 0 L 64 0 L 80 0 L 256 0 L 256 16 L 256 16 L 256 112 L 256 112 Z M 16 192 L 16 200 L 16 192 L 16 200 L 16 256 L 16 256 Q 18 317 58 358 Q 99 398 160 400 Q 221 398 262 358 Q 302 317 304 256 L 304 200 L 304 200 L 304 192 L 304 192 L 320 192 L 320 192 L 320 200 L 320 200 L 320 256 L 320 256 Q 318 322 276 366 Q 233 411 168 416 L 168 496 L 168 496 L 248 496 L 256 496 L 256 512 L 256 512 L 248 512 L 64 512 L 64 496 L 64 496 L 72 496 L 152 496 L 152 416 L 152 416 Q 87 411 44 366 Q 2 322 0 256 L 0 200 L 0 200 L 0 192 L 0 192 L 16 192 L 16 192 Z" />
</svg>