<svg xmlns="http://www.w3.org/2000/svg" viewBox="0 0 576 506">
  <path d="M 293 4 L 288 0 L 293 4 L 288 0 L 283 4 L 283 4 L 3 244 L 3 244 L 13 256 L 13 256 L 64 213 L 64 213 L 64 385 L 64 385 Q 68 382 73 379 Q 74 377 76 376 L 77 375 L 77 375 L 80 374 L 80 374 L 80 199 L 80 199 L 288 21 L 288 21 L 496 199 L 496 199 L 496 374 L 496 374 L 500 376 L 500 376 Q 500 376 500 376 Q 500 376 500 376 Q 506 381 512 385 L 512 213 L 512 213 L 563 256 L 563 256 L 573 244 L 573 244 L 293 4 L 293 4 Z M 216 178 L 216 186 L 216 178 L 216 186 L 216 314 L 216 314 L 216 322 L 216 322 L 224 322 L 360 322 L 360 314 L 360 314 L 360 186 L 360 186 L 360 178 L 360 178 L 352 178 L 216 178 Z M 232 194 L 344 194 L 232 194 L 344 194 L 344 306 L 344 306 L 232 306 L 232 306 L 232 194 L 232 194 Z M 97 421 L 96 420 L 97 421 L 96 420 L 95 421 L 95 421 Q 95 422 94 423 Q 88 431 82 439 Q 75 448 62 460 Q 49 472 33 481 Q 17 490 0 490 L 0 506 L 0 506 Q 22 505 40 495 Q 59 485 73 472 Q 88 457 96 447 Q 104 457 119 472 Q 133 485 152 495 Q 170 505 192 506 Q 214 505 232 495 Q 251 485 265 472 Q 280 457 288 447 Q 296 457 311 472 Q 325 485 344 495 Q 362 505 384 506 Q 406 505 424 495 Q 443 485 457 472 Q 472 457 480 447 Q 488 457 503 472 Q 517 485 536 495 Q 554 505 576 506 L 576 490 L 576 490 Q 559 490 543 481 Q 527 472 514 460 Q 501 448 494 439 Q 487 431 481 422 Q 481 421 481 421 L 480 420 L 480 420 L 480 421 L 480 421 Q 479 422 478 423 Q 473 431 466 439 Q 459 448 446 460 Q 433 472 417 481 Q 401 490 384 490 Q 367 490 351 481 Q 335 472 322 460 Q 309 448 302 439 Q 295 431 289 422 Q 289 421 289 421 Q 289 421 288 420 Q 288 420 288 420 L 288 421 L 288 421 Q 287 421 287 422 Q 281 431 274 439 Q 267 448 254 460 Q 241 472 225 481 Q 209 490 192 490 Q 175 490 159 481 Q 143 472 130 460 Q 117 448 110 439 Q 103 431 97 422 Q 97 421 97 421 L 97 421 Z" />
</svg>