<svg xmlns="http://www.w3.org/2000/svg" viewBox="0 0 448 512">
  <path d="M 320 112 Q 320 86 307 64 L 307 64 L 307 64 Q 294 42 272 29 Q 249 16 224 16 Q 199 16 176 29 Q 154 42 141 64 Q 128 86 128 112 Q 128 138 141 160 Q 154 182 176 195 Q 199 208 224 208 Q 249 208 272 195 Q 294 182 307 160 Q 320 138 320 112 L 320 112 Z M 336 112 Q 335 157 306 189 L 306 189 L 306 189 Q 277 220 232 224 L 232 352 L 232 352 L 432 352 L 448 352 L 448 368 L 448 368 L 448 496 L 448 496 L 448 512 L 448 512 L 432 512 L 0 512 L 0 496 L 0 496 L 0 368 L 0 368 L 0 352 L 0 352 L 16 352 L 216 352 L 216 224 L 216 224 Q 171 220 142 188 Q 113 157 112 112 Q 113 64 145 33 Q 176 1 224 0 Q 272 1 303 33 Q 335 64 336 112 L 336 112 Z M 64 304 L 72 304 L 64 304 L 128 304 L 128 320 L 128 320 L 120 320 L 64 320 L 64 304 L 64 304 Z M 432 496 L 432 368 L 432 496 L 432 368 L 16 368 L 16 368 L 16 496 L 16 496 L 432 496 L 432 496 Z M 192 80 Q 193 95 208 96 Q 223 95 224 80 Q 223 65 208 64 Q 193 65 192 80 L 192 80 Z M 208 112 Q 194 112 185 103 L 185 103 L 185 103 Q 176 94 176 80 Q 176 66 185 57 Q 194 48 208 48 Q 222 48 231 57 Q 240 66 240 80 Q 240 94 231 103 Q 222 112 208 112 L 208 112 Z" />
</svg>