<svg xmlns="http://www.w3.org/2000/svg" viewBox="0 0 384 512">
  <path d="M 16 16 L 16 496 L 16 16 L 16 496 L 368 496 L 368 496 L 368 16 L 368 16 L 16 16 L 16 16 Z M 0 0 L 16 0 L 0 0 L 384 0 L 384 16 L 384 16 L 384 496 L 384 496 L 384 512 L 384 512 L 368 512 L 0 512 L 0 496 L 0 496 L 0 16 L 0 16 L 0 0 L 0 0 Z M 192 121 L 198 127 L 192 121 L 198 127 L 237 166 L 237 166 L 297 226 L 297 226 Q 316 246 316 271 Q 316 297 297 316 Q 277 335 252 335 Q 226 335 207 316 L 200 310 L 200 310 L 200 366 L 200 366 L 224 366 L 232 366 L 232 382 L 232 382 L 224 382 L 152 382 L 152 366 L 152 366 L 160 366 L 184 366 L 184 310 L 184 310 L 178 316 L 178 316 Q 158 335 132 335 Q 107 335 87 316 Q 68 297 68 271 Q 68 246 87 226 L 147 166 L 147 166 L 186 127 L 186 127 L 192 121 L 192 121 Z M 192 144 L 158 177 L 192 144 L 158 177 L 98 237 L 98 237 Q 84 252 84 271 Q 84 290 98 305 Q 113 319 132 319 Q 151 319 166 305 L 186 285 L 186 285 L 192 279 L 192 279 L 198 285 L 198 285 L 218 305 L 218 305 Q 233 319 252 319 Q 271 319 286 305 Q 300 290 300 271 Q 300 252 286 237 L 226 178 L 226 178 L 192 144 L 192 144 Z" />
</svg>