<svg xmlns="http://www.w3.org/2000/svg" viewBox="0 0 576 507">
  <path d="M 239 15 L 243 8 L 239 15 L 243 8 L 229 0 L 229 0 L 225 7 L 225 7 L 123 187 L 123 187 L 49 187 L 0 187 L 0 203 L 0 203 L 36 203 L 36 203 L 112 507 L 112 507 L 464 507 L 464 507 L 540 203 L 540 203 L 576 203 L 576 203 L 576 187 L 576 187 L 544 187 L 453 187 L 351 7 L 351 7 L 347 0 L 347 0 L 333 8 L 333 8 L 337 15 L 337 15 L 434 187 L 434 187 L 142 187 L 142 187 L 239 15 L 239 15 Z M 53 203 L 524 203 L 53 203 L 524 203 L 452 491 L 452 491 L 125 491 L 125 491 L 53 203 L 53 203 Z M 208 339 L 200 339 L 208 339 L 200 339 L 200 355 L 200 355 L 208 355 L 376 355 L 376 339 L 376 339 L 368 339 L 208 339 Z" />
</svg>