<svg xmlns="http://www.w3.org/2000/svg" viewBox="0 0 416 427">
  <path d="M 214 5 L 208 0 L 214 5 L 208 0 L 202 5 L 202 5 L 66 141 L 66 141 L 61 147 L 61 147 L 72 158 L 72 158 L 78 153 L 78 153 L 200 30 L 200 30 L 200 307 L 200 307 L 200 315 L 200 315 L 216 315 L 216 315 L 216 307 L 216 307 L 216 30 L 216 30 L 338 153 L 338 153 L 344 158 L 344 158 L 355 147 L 355 147 L 350 141 L 350 141 L 214 5 L 214 5 Z M 0 395 L 0 427 L 0 395 L 0 427 L 32 427 L 32 427 L 32 395 L 32 395 L 0 395 L 0 395 Z M 128 395 L 96 395 L 128 395 L 96 395 L 96 427 L 96 427 L 128 427 L 128 427 L 128 395 L 128 395 Z M 224 427 L 224 395 L 224 427 L 224 395 L 192 395 L 192 395 L 192 427 L 192 427 L 224 427 L 224 427 Z M 320 395 L 288 395 L 320 395 L 288 395 L 288 427 L 288 427 L 320 427 L 320 427 L 320 395 L 320 395 Z M 384 395 L 384 427 L 384 395 L 384 427 L 416 427 L 416 427 L 416 395 L 416 395 L 384 395 L 384 395 Z" />
</svg>