<svg xmlns="http://www.w3.org/2000/svg" viewBox="0 0 384 512">
  <path d="M 16 16 L 16 496 L 16 16 L 16 496 L 208 496 L 208 496 L 208 344 L 208 344 L 208 336 L 208 336 L 216 336 L 368 336 L 368 16 L 368 16 L 16 16 L 16 16 Z M 224 489 L 361 352 L 224 489 L 361 352 L 224 352 L 224 352 L 224 489 L 224 489 Z M 224 512 L 16 512 L 224 512 L 0 512 L 0 496 L 0 496 L 0 16 L 0 16 L 0 0 L 0 0 L 16 0 L 384 0 L 384 16 L 384 16 L 384 352 L 384 352 L 224 512 L 224 512 Z M 174 78 L 78 174 L 174 78 L 78 174 L 72 179 L 72 179 L 61 168 L 61 168 L 66 162 L 66 162 L 162 66 L 162 66 L 168 61 L 168 61 L 179 72 L 179 72 L 174 78 L 174 78 Z M 270 110 L 110 270 L 270 110 L 110 270 L 104 275 L 104 275 L 93 264 L 93 264 L 98 258 L 98 258 L 258 98 L 258 98 L 264 93 L 264 93 L 275 104 L 275 104 L 270 110 L 270 110 Z" />
</svg>