<svg xmlns="http://www.w3.org/2000/svg" viewBox="0 0 512 512">
  <path d="M 324 101 L 321 95 L 324 101 L 321 95 L 288 34 L 288 34 L 255 95 L 255 95 L 252 101 L 252 101 L 246 103 L 246 103 Q 188 124 167 182 L 165 188 L 165 188 L 159 191 L 159 191 L 98 224 L 98 224 L 159 257 L 159 257 L 165 260 L 165 260 L 167 266 L 167 266 Q 188 324 246 345 L 252 347 L 252 347 L 255 353 L 255 353 L 288 414 L 288 414 L 321 353 L 321 353 L 324 347 L 324 347 L 330 345 L 330 345 Q 388 324 409 266 L 411 260 L 411 260 L 417 257 L 417 257 L 478 224 L 478 224 L 417 191 L 417 191 L 411 188 L 411 188 L 409 182 L 409 182 Q 388 124 330 103 L 324 101 L 324 101 Z M 495 215 L 512 224 L 495 215 L 512 224 L 495 233 L 495 233 L 424 271 L 424 271 Q 413 303 390 326 Q 367 349 335 360 L 297 431 L 297 431 L 288 448 L 288 448 L 279 431 L 279 431 L 241 360 L 241 360 Q 209 349 186 326 Q 163 303 152 271 L 81 233 L 81 233 L 64 224 L 64 224 L 81 215 L 81 215 L 152 177 L 152 177 Q 163 145 186 122 Q 209 99 241 88 L 279 17 L 279 17 L 288 0 L 288 0 L 297 17 L 297 17 L 335 88 L 335 88 Q 367 99 390 122 Q 413 145 424 177 L 495 215 L 495 215 Z M 240 224 Q 241 197 264 182 Q 288 170 312 182 Q 335 197 336 224 Q 335 251 312 266 Q 288 278 264 266 Q 241 251 240 224 L 240 224 Z M 288 256 Q 302 256 311 247 L 311 247 L 311 247 Q 320 238 320 224 Q 320 210 311 201 Q 302 192 288 192 Q 274 192 265 201 Q 256 210 256 224 Q 256 238 265 247 Q 274 256 288 256 L 288 256 Z M 59 501 L 48 512 L 59 501 L 48 512 L 37 501 L 37 501 L 11 475 L 11 475 L 0 464 L 0 464 L 11 453 L 11 453 L 142 322 L 142 322 Q 146 329 152 335 L 23 464 L 23 464 L 48 489 L 48 489 L 177 361 L 177 361 Q 183 366 190 370 L 59 501 L 59 501 Z" />
</svg>