<svg xmlns="http://www.w3.org/2000/svg" viewBox="0 0 416 432">
  <path d="M 0 0 L 0 32 L 0 0 L 0 32 L 32 32 L 32 32 L 32 0 L 32 0 L 0 0 L 0 0 Z M 128 0 L 96 0 L 128 0 L 96 0 L 96 32 L 96 32 L 128 32 L 128 32 L 128 0 L 128 0 Z M 224 0 L 192 0 L 224 0 L 192 0 L 192 32 L 192 32 L 224 32 L 224 32 L 224 0 L 224 0 Z M 320 0 L 288 0 L 320 0 L 288 0 L 288 32 L 288 32 L 320 32 L 320 32 L 320 0 L 320 0 Z M 384 0 L 384 32 L 384 0 L 384 32 L 416 32 L 416 32 L 416 0 L 416 0 L 384 0 L 384 0 Z M 214 114 L 208 109 L 214 114 L 208 109 L 202 114 L 202 114 L 66 250 L 66 250 L 61 256 L 61 256 L 72 267 L 72 267 L 78 262 L 78 262 L 200 139 L 200 139 L 200 264 L 200 264 L 200 424 L 200 424 L 200 432 L 200 432 L 216 432 L 216 432 L 216 424 L 216 424 L 216 264 L 216 264 L 216 139 L 216 139 L 338 262 L 338 262 L 344 267 L 344 267 L 355 256 L 355 256 L 350 250 L 350 250 L 214 114 L 214 114 Z" />
</svg>