<svg xmlns="http://www.w3.org/2000/svg" viewBox="0 0 576 512">
  <path d="M 200 0 L 192 0 L 200 0 L 192 0 L 192 8 L 192 8 L 192 64 L 192 64 L 104 64 L 96 64 L 96 72 L 96 72 L 96 230 L 96 230 L 14 256 L 14 256 L 3 260 L 3 260 L 10 269 L 10 269 L 122 413 L 122 413 L 134 403 L 134 403 L 29 268 L 29 268 L 280 187 L 280 187 L 280 376 L 280 376 L 280 384 L 280 384 L 296 384 L 296 384 L 296 376 L 296 376 L 296 187 L 296 187 L 547 268 L 547 268 L 442 403 L 442 403 L 454 413 L 454 413 L 566 269 L 566 269 L 573 260 L 573 260 L 562 256 L 562 256 L 480 230 L 480 230 L 480 72 L 480 72 L 480 64 L 480 64 L 472 64 L 384 64 L 384 8 L 384 8 L 384 0 L 384 0 L 376 0 L 200 0 Z M 368 64 L 208 64 L 368 64 L 208 64 L 208 16 L 208 16 L 368 16 L 368 16 L 368 64 L 368 64 Z M 192 80 L 200 80 L 192 80 L 464 80 L 464 225 L 464 225 L 291 168 L 291 168 L 288 168 L 286 168 L 112 225 L 112 225 L 112 80 L 112 80 L 192 80 L 192 80 Z M 96 426 L 95 427 L 96 426 L 95 427 Q 95 428 94 429 Q 88 437 82 445 Q 75 454 62 466 Q 49 478 33 487 Q 17 496 0 496 L 0 512 L 0 512 Q 22 511 40 501 Q 59 491 73 478 Q 88 463 96 453 Q 104 463 119 478 Q 133 491 152 501 Q 170 511 192 512 Q 214 511 232 501 Q 251 491 265 478 Q 280 463 288 453 Q 296 463 311 478 Q 325 491 344 501 Q 362 511 384 512 Q 406 511 424 501 Q 443 491 457 478 Q 472 463 480 453 Q 488 463 503 478 Q 517 491 536 501 Q 554 511 576 512 L 576 496 L 576 496 Q 559 496 543 487 Q 527 478 514 466 Q 501 454 494 445 Q 487 437 481 428 Q 481 427 481 427 Q 481 427 481 427 Q 481 427 481 427 L 480 426 L 480 426 L 480 427 L 480 427 Q 479 428 478 429 Q 473 437 466 445 Q 459 454 446 466 Q 433 478 417 487 Q 401 496 384 496 Q 367 496 351 487 Q 335 478 322 466 Q 309 454 302 445 Q 295 437 289 428 Q 289 427 289 427 L 288 426 L 288 426 L 288 427 L 288 427 Q 288 427 288 427 Q 288 427 288 427 Q 287 428 286 429 Q 281 437 274 445 Q 267 454 254 466 Q 241 478 225 487 Q 209 496 192 496 Q 175 496 159 487 Q 143 478 130 466 Q 117 454 110 445 Q 103 437 97 428 Q 97 427 97 427 L 96 426 L 96 426 Z" />
</svg>