<svg xmlns="http://www.w3.org/2000/svg" viewBox="0 0 512 512">
  <path d="M 8 0 L 0 0 L 8 0 L 0 0 L 0 8 L 0 8 L 0 184 L 0 184 L 0 192 L 0 192 L 16 192 L 16 192 L 16 184 L 16 184 L 16 27 L 16 27 L 314 326 L 314 326 L 320 331 L 320 331 L 331 320 L 331 320 L 326 314 L 326 314 L 27 16 L 27 16 L 184 16 L 192 16 L 192 0 L 192 0 L 184 0 L 8 0 Z M 288 64 L 280 64 L 288 64 L 280 64 L 280 80 L 280 80 L 288 80 L 288 80 Q 376 82 435 141 Q 494 200 496 288 Q 494 376 435 435 Q 376 494 288 496 Q 200 494 141 435 Q 82 376 80 288 L 80 280 L 80 280 L 64 280 L 64 280 L 64 288 L 64 288 Q 65 351 95 401 Q 124 452 175 481 Q 225 511 288 512 Q 351 511 401 481 Q 452 452 481 401 Q 511 351 512 288 Q 511 225 481 175 Q 452 124 401 95 Q 351 65 288 64 L 288 64 Z" />
</svg>