<svg xmlns="http://www.w3.org/2000/svg" viewBox="0 0 640 512">
  <path d="M 512 489 L 480 464 L 512 489 L 480 464 L 480 480 L 480 480 L 160 480 L 160 480 L 160 352 L 160 352 L 338 352 L 338 352 L 298 320 L 298 320 L 160 320 L 128 320 L 128 352 L 128 352 L 128 384 L 128 384 L 96 384 L 96 384 L 96 224 L 96 224 L 176 224 L 176 224 L 136 192 L 136 192 L 96 192 L 64 192 L 64 224 L 64 224 L 64 384 L 64 384 L 64 416 L 64 416 L 96 416 L 128 416 L 128 480 L 128 480 L 128 512 L 128 512 L 160 512 L 512 512 L 512 489 L 512 489 Z M 160 48 L 160 32 L 160 48 L 160 32 L 435 32 L 435 32 L 480 77 L 480 77 L 480 160 L 480 160 L 512 160 L 512 160 L 512 64 L 512 64 L 448 0 L 448 0 L 160 0 L 128 0 L 128 23 L 128 23 L 160 48 L 160 48 Z M 342 192 L 383 224 L 342 192 L 383 224 L 544 224 L 544 224 L 544 288 L 544 288 L 544 351 L 544 351 L 576 377 L 576 377 L 576 224 L 576 224 L 576 192 L 576 192 L 544 192 L 342 192 Z M 512 256 L 480 256 L 512 256 L 480 256 L 480 288 L 480 288 L 512 288 L 512 288 L 512 256 L 512 256 Z M 33 10 L 20 0 L 33 10 L 20 0 L 0 25 L 0 25 L 13 35 L 13 35 L 608 502 L 608 502 L 620 512 L 620 512 L 640 487 L 640 487 L 628 477 L 628 477 L 33 10 L 33 10 Z" />
</svg>