<svg xmlns="http://www.w3.org/2000/svg" viewBox="0 0 568 510">
  <path d="M 561 88 L 568 94 L 561 88 L 568 94 L 561 100 L 561 100 L 465 188 L 465 188 L 455 176 L 455 176 L 535 102 L 535 102 L 33 102 L 33 102 L 113 176 L 113 176 L 103 188 L 103 188 L 7 100 L 7 100 L 0 94 L 0 94 L 7 88 L 7 88 L 103 0 L 103 0 L 113 12 L 113 12 L 33 86 L 33 86 L 536 86 L 536 86 L 455 12 L 455 12 L 465 0 L 465 0 L 561 88 L 561 88 Z M 76 510 L 60 510 L 76 510 L 60 510 L 62 494 L 62 494 L 92 286 L 92 286 L 284 158 L 284 158 L 476 286 L 476 286 L 506 494 L 506 494 L 508 510 L 508 510 L 492 510 L 76 510 Z M 382 494 L 292 347 L 382 494 L 292 347 L 292 494 L 292 494 L 382 494 L 382 494 Z M 276 183 L 107 295 L 276 183 L 107 295 L 79 494 L 79 494 L 276 494 L 276 494 L 276 183 L 276 183 Z M 461 295 L 292 183 L 461 295 L 292 183 L 292 316 L 292 316 L 401 494 L 401 494 L 490 494 L 490 494 L 461 295 L 461 295 Z" />
</svg>