<svg xmlns="http://www.w3.org/2000/svg" viewBox="0 0 480 448">
  <path d="M 240 48 Q 185 49 142 78 L 142 78 L 142 78 Q 99 107 78 155 L 34 136 L 34 136 Q 60 75 115 38 Q 170 1 240 0 Q 321 1 380 58 L 432 110 L 432 110 L 432 56 L 432 56 L 432 32 L 432 32 L 480 32 L 480 32 L 480 56 L 480 56 L 480 168 L 480 168 L 480 192 L 480 192 L 456 192 L 320 192 L 320 144 L 320 144 L 344 144 L 398 144 L 346 92 L 346 92 Q 302 49 240 48 L 240 48 Z M 100 390 L 48 338 L 100 390 L 48 338 L 48 392 L 48 392 L 48 416 L 48 416 L 0 416 L 0 416 L 0 392 L 0 392 L 0 280 L 0 280 L 0 256 L 0 256 L 24 256 L 160 256 L 160 304 L 160 304 L 136 304 L 82 304 L 134 356 L 134 356 Q 178 399 240 400 Q 295 399 338 370 Q 381 341 402 293 L 446 312 L 446 312 Q 419 373 365 410 Q 310 447 240 448 Q 159 447 100 390 L 100 390 Z M 264 96 L 264 120 L 264 96 L 264 120 L 264 232 L 264 232 L 264 256 L 264 256 L 216 256 L 216 256 L 216 232 L 216 232 L 216 120 L 216 120 L 216 96 L 216 96 L 264 96 L 264 96 Z M 216 336 L 216 288 L 216 336 L 216 288 L 264 288 L 264 288 L 264 336 L 264 336 L 216 336 L 216 336 Z" />
</svg>