<svg xmlns="http://www.w3.org/2000/svg" viewBox="0 0 448 448">
  <path d="M 432 16 L 432 432 L 432 16 L 432 432 L 16 432 L 16 432 L 16 16 L 16 16 L 432 16 L 432 16 Z M 16 0 L 0 0 L 16 0 L 0 0 L 0 16 L 0 16 L 0 432 L 0 432 L 0 448 L 0 448 L 16 448 L 448 448 L 448 432 L 448 432 L 448 16 L 448 16 L 448 0 L 448 0 L 432 0 L 16 0 Z M 312 64 Q 343 65 363 85 L 363 85 L 363 85 Q 383 105 384 136 Q 383 167 363 187 Q 343 207 312 208 L 304 208 L 304 208 L 304 224 L 304 224 L 312 224 L 312 224 Q 349 223 374 198 Q 399 173 400 136 Q 399 99 374 74 Q 349 49 312 48 Q 261 50 236 92 L 232 99 L 232 99 L 246 107 L 246 107 L 250 100 L 250 100 Q 270 66 312 64 L 312 64 Z M 173 262 L 178 256 L 173 262 L 178 256 L 167 245 L 167 245 L 161 250 L 161 250 Q 137 275 136 312 Q 137 349 162 374 Q 187 399 224 400 Q 261 399 286 374 Q 311 349 312 312 Q 311 275 287 250 L 281 245 L 281 245 L 270 256 L 270 256 L 275 262 L 275 262 Q 295 282 296 312 Q 295 343 275 363 Q 255 383 224 384 Q 193 383 173 363 Q 153 343 152 312 Q 153 282 173 262 L 173 262 Z M 128 117 L 117 128 L 128 117 L 117 128 L 122 134 L 122 134 L 216 227 L 216 227 L 216 320 L 216 320 L 216 328 L 216 328 L 232 328 L 232 328 L 232 320 L 232 320 L 232 227 L 232 227 L 326 134 L 326 134 L 331 128 L 331 128 L 320 117 L 320 117 L 314 122 L 314 122 L 224 213 L 224 213 L 134 122 L 134 122 L 128 117 L 128 117 Z M 199 100 L 203 107 L 199 100 L 203 107 L 216 99 L 216 99 L 212 92 L 212 92 Q 187 50 136 48 Q 99 49 74 74 Q 49 99 48 136 Q 49 173 74 198 Q 99 223 136 224 L 144 224 L 144 224 L 144 208 L 144 208 L 136 208 L 136 208 Q 105 207 85 187 Q 65 167 64 136 Q 65 105 85 85 Q 105 65 136 64 Q 178 66 199 100 L 199 100 Z" />
</svg>