<svg xmlns="http://www.w3.org/2000/svg" viewBox="0 0 640 512">
  <path d="M 80 16 L 400 16 L 80 16 L 400 16 L 400 400 L 400 400 L 237 400 L 237 400 Q 228 372 206 354 Q 183 337 152 336 Q 106 338 80 373 L 80 288 L 80 288 L 64 288 L 64 288 L 64 400 L 64 400 L 64 416 L 64 416 L 64 416 L 64 416 Q 64 420 64 424 Q 65 461 90 486 Q 115 511 152 512 Q 189 511 214 486 Q 239 461 240 424 Q 240 420 240 416 L 400 416 L 400 416 L 400 416 L 400 416 Q 400 420 400 424 Q 401 461 426 486 Q 451 511 488 512 Q 525 511 550 486 Q 575 461 576 424 Q 576 420 576 416 L 632 416 L 640 416 L 640 400 L 640 400 L 632 400 L 608 400 L 608 216 L 608 216 L 608 213 L 608 213 L 606 210 L 606 210 L 494 98 L 494 98 L 491 96 L 491 96 L 488 96 L 416 96 L 416 16 L 416 16 L 416 0 L 416 0 L 400 0 L 64 0 L 64 16 L 64 16 L 64 96 L 64 96 L 8 96 L 0 96 L 0 112 L 0 112 L 8 112 L 224 112 L 224 96 L 224 96 L 216 96 L 80 96 L 80 16 L 80 16 Z M 416 216 L 416 112 L 416 216 L 416 112 L 485 112 L 485 112 L 589 216 L 589 216 L 416 216 L 416 216 Z M 416 232 L 592 232 L 416 232 L 592 232 L 592 400 L 592 400 L 573 400 L 573 400 Q 564 372 542 354 Q 519 337 488 336 Q 442 338 416 373 L 416 232 L 416 232 Z M 80 424 Q 81 383 116 362 Q 152 342 188 362 Q 223 383 224 424 Q 223 465 188 486 Q 152 506 116 486 Q 81 465 80 424 L 80 424 Z M 488 352 Q 529 353 550 388 Q 570 424 550 460 Q 529 495 488 496 Q 447 495 426 460 Q 406 424 426 388 Q 447 353 488 352 L 488 352 Z M 40 160 L 32 160 L 40 160 L 32 160 L 32 176 L 32 176 L 40 176 L 288 176 L 288 160 L 288 160 L 280 160 L 40 160 Z M 8 224 L 0 224 L 8 224 L 0 224 L 0 240 L 0 240 L 8 240 L 224 240 L 224 224 L 224 224 L 216 224 L 8 224 Z" />
</svg>