<svg xmlns="http://www.w3.org/2000/svg" viewBox="0 0 640 512">
  <path d="M 464 16 L 464 80 L 464 16 L 464 80 L 480 80 L 480 80 L 480 16 L 480 16 L 480 0 L 480 0 L 464 0 L 64 0 L 64 16 L 64 16 L 64 192 L 64 192 L 80 192 L 80 192 L 80 16 L 80 16 L 464 16 L 464 16 Z M 208 128 L 624 128 L 208 128 L 624 128 L 624 400 L 624 400 L 416 400 L 416 400 L 416 416 L 416 416 L 624 416 L 640 416 L 640 400 L 640 400 L 640 128 L 640 128 L 640 112 L 640 112 L 624 112 L 192 112 L 192 128 L 192 128 L 192 192 L 192 192 L 208 192 L 208 192 L 208 128 L 208 128 Z M 16 496 L 16 311 L 16 496 L 16 311 L 187 432 L 187 432 L 192 435 L 192 435 L 197 432 L 197 432 L 368 311 L 368 311 L 368 496 L 368 496 L 16 496 L 16 496 Z M 21 295 L 16 291 L 21 295 L 16 291 L 16 240 L 16 240 L 368 240 L 368 240 L 368 291 L 368 291 L 363 295 L 363 295 L 192 416 L 192 416 L 21 295 L 21 295 Z M 0 224 L 0 240 L 0 224 L 0 240 L 0 496 L 0 496 L 0 512 L 0 512 L 16 512 L 384 512 L 384 496 L 384 496 L 384 240 L 384 240 L 384 224 L 384 224 L 368 224 L 0 224 Z M 512 176 L 504 176 L 512 176 L 504 176 L 504 184 L 504 184 L 504 248 L 504 248 L 504 256 L 504 256 L 512 256 L 584 256 L 584 248 L 584 248 L 584 184 L 584 184 L 584 176 L 584 176 L 576 176 L 512 176 Z M 520 240 L 520 192 L 520 240 L 520 192 L 568 192 L 568 192 L 568 240 L 568 240 L 520 240 L 520 240 Z" />
</svg>