<svg xmlns="http://www.w3.org/2000/svg" viewBox="0 0 640 512">
  <path d="M 232 0 L 226 0 L 232 0 L 226 0 L 224 6 L 224 6 L 174 224 L 174 224 L 190 224 L 190 224 L 238 16 L 238 16 L 528 16 L 528 16 Q 569 17 596 44 Q 623 71 624 112 Q 624 142 608 165 Q 592 189 566 200 Q 539 167 501 148 Q 462 128 416 128 L 368 128 L 352 128 L 352 144 L 352 144 L 352 292 L 352 292 Q 360 290 368 289 L 368 144 L 368 144 L 416 144 L 416 144 Q 491 146 540 196 Q 590 245 592 320 L 592 496 L 592 496 L 484 496 L 484 496 Q 477 505 469 512 L 592 512 L 608 512 L 608 496 L 608 496 L 608 320 L 608 320 Q 607 260 576 213 Q 605 200 622 173 Q 640 146 640 112 Q 639 64 607 33 Q 576 1 528 0 L 232 0 L 232 0 Z M 183 256 L 167 256 L 183 256 L 167 256 L 130 416 L 130 416 L 48 416 L 48 416 L 0 464 L 0 464 L 0 496 L 0 496 L 0 512 L 0 512 L 16 512 L 224 512 L 224 496 L 224 496 L 224 432 L 224 432 L 224 416 L 224 416 L 208 416 L 146 416 L 183 256 L 183 256 Z M 136 432 L 136 432 L 136 432 L 136 432 L 208 432 L 208 432 L 208 496 L 208 496 L 16 496 L 16 496 L 16 471 L 16 471 L 55 432 L 55 432 L 136 432 L 136 432 Z M 384 336 Q 429 337 453 376 Q 475 416 453 456 Q 429 495 384 496 Q 339 495 315 456 Q 293 416 315 376 Q 339 337 384 336 L 384 336 Z M 384 512 Q 410 512 432 499 L 432 499 L 432 499 Q 454 486 467 464 Q 480 441 480 416 Q 480 391 467 368 Q 454 346 432 333 Q 410 320 384 320 Q 358 320 336 333 Q 314 346 301 368 Q 288 391 288 416 Q 288 441 301 464 Q 314 486 336 499 Q 358 512 384 512 L 384 512 Z M 368 416 Q 369 401 384 400 Q 399 401 400 416 Q 399 431 384 432 Q 369 431 368 416 L 368 416 Z M 416 416 Q 416 402 407 393 L 407 393 L 407 393 Q 398 384 384 384 Q 370 384 361 393 Q 352 402 352 416 Q 352 430 361 439 Q 370 448 384 448 Q 398 448 407 439 Q 416 430 416 416 L 416 416 Z" />
</svg>