<svg xmlns="http://www.w3.org/2000/svg" viewBox="0 0 576 384">
  <path d="M 272 368 L 16 368 L 272 368 L 16 368 L 16 144 L 16 144 Q 17 90 53 53 Q 90 17 144 16 Q 198 17 235 53 Q 271 90 272 144 L 272 368 L 272 368 Z M 288 144 Q 287 102 266 68 L 266 68 L 266 68 Q 245 34 210 16 L 432 16 L 432 16 Q 486 17 523 53 Q 559 90 560 144 L 560 368 L 560 368 L 288 368 L 288 368 L 288 144 L 288 144 Z M 272 384 L 288 384 L 272 384 L 576 384 L 576 368 L 576 368 L 576 144 L 576 144 Q 574 83 534 42 Q 493 2 432 0 L 144 0 L 144 0 Q 83 2 42 42 Q 2 83 0 144 L 0 368 L 0 368 L 0 384 L 0 384 L 16 384 L 272 384 Z M 72 128 L 64 128 L 72 128 L 64 128 L 64 144 L 64 144 L 72 144 L 224 144 L 224 128 L 224 128 L 216 128 L 72 128 Z M 376 128 L 368 128 L 376 128 L 368 128 L 368 144 L 368 144 L 376 144 L 432 144 L 432 224 L 432 224 L 432 232 L 432 232 L 440 232 L 512 232 L 512 224 L 512 224 L 512 136 L 512 136 L 512 128 L 512 128 L 504 128 L 376 128 Z M 448 216 L 448 144 L 448 216 L 448 144 L 496 144 L 496 144 L 496 216 L 496 216 L 448 216 L 448 216 Z" />
</svg>