<svg xmlns="http://www.w3.org/2000/svg" viewBox="0 0 448 448">
  <path d="M 16 16 L 16 432 L 16 16 L 16 432 L 432 432 L 432 432 L 432 16 L 432 16 L 16 16 L 16 16 Z M 0 0 L 16 0 L 0 0 L 448 0 L 448 16 L 448 16 L 448 432 L 448 432 L 448 448 L 448 448 L 432 448 L 0 448 L 0 432 L 0 432 L 0 16 L 0 16 L 0 0 L 0 0 Z M 212 154 L 202 142 L 212 154 L 202 142 Q 184 121 156 120 Q 130 121 113 137 Q 97 154 96 180 L 96 183 L 96 183 Q 96 209 115 228 L 139 253 L 139 253 L 224 337 L 224 337 L 309 253 L 309 253 L 334 228 L 334 228 Q 352 209 352 183 L 352 179 L 352 179 Q 351 154 335 137 Q 318 121 292 120 Q 264 120 246 142 L 236 154 L 236 154 L 224 170 L 224 170 L 212 154 L 212 154 Z M 224 360 L 213 349 L 224 360 L 213 349 L 128 264 L 128 264 L 103 239 L 103 239 Q 80 216 80 183 L 80 180 L 80 180 Q 81 147 102 126 Q 124 105 156 104 Q 191 105 214 131 Q 214 132 215 132 L 224 144 L 224 144 L 233 132 L 233 132 Q 234 132 234 131 Q 257 105 292 104 Q 325 105 346 126 Q 367 147 368 180 L 368 183 L 368 183 Q 368 216 345 239 L 320 264 L 320 264 L 235 349 L 235 349 L 224 360 L 224 360 Z" />
</svg>