<svg xmlns="http://www.w3.org/2000/svg" viewBox="0 0 512 512">
  <path d="M 496 256 Q 495 191 464 136 L 464 136 L 464 136 Q 432 81 376 48 Q 319 16 256 16 Q 193 16 136 48 Q 80 81 48 136 Q 17 191 16 256 Q 17 321 48 376 Q 80 431 136 464 Q 193 496 256 496 Q 319 496 376 464 Q 432 431 464 376 Q 495 321 496 256 L 496 256 Z M 0 256 Q 1 186 34 128 L 34 128 L 34 128 Q 68 70 128 34 Q 189 0 256 0 Q 323 0 384 34 Q 444 70 478 128 Q 511 186 512 256 Q 511 326 478 384 Q 444 442 384 478 Q 323 512 256 512 Q 189 512 128 478 Q 68 442 34 384 Q 1 326 0 256 L 0 256 Z M 182 370 Q 192 382 211 391 L 211 391 L 211 391 Q 230 399 256 400 Q 282 399 301 391 Q 320 382 330 370 L 336 365 L 336 365 L 347 376 L 347 376 L 342 382 L 342 382 Q 329 395 308 405 Q 286 415 256 416 Q 226 415 204 405 Q 183 395 170 382 L 165 376 L 165 376 L 176 365 L 176 365 L 182 370 L 182 370 Z M 352 272 Q 375 273 393 244 L 397 237 L 397 237 L 411 245 L 411 245 L 407 252 L 407 252 Q 385 288 352 288 Q 318 287 297 252 L 293 245 L 293 245 L 307 237 L 307 237 L 311 244 L 311 244 Q 328 273 352 272 L 352 272 Z M 119 244 Q 136 273 160 272 Q 183 273 201 244 L 205 237 L 205 237 L 219 245 L 219 245 L 215 252 L 215 252 Q 193 288 160 288 Q 126 287 105 252 L 101 245 L 101 245 L 115 237 L 115 237 L 119 244 L 119 244 Z M 202 101 L 195 104 L 202 101 L 195 104 L 188 106 L 188 106 Q 149 119 126 153 L 119 165 L 119 165 L 114 171 L 114 171 L 101 162 L 101 162 L 106 156 L 106 156 L 113 144 L 113 144 Q 139 106 183 91 L 190 88 L 190 88 L 197 86 L 197 86 L 202 101 L 202 101 Z M 318 104 L 310 101 L 318 104 L 310 101 L 315 86 L 315 86 L 323 88 L 323 88 L 329 91 L 329 91 Q 373 106 399 144 L 407 156 L 407 156 L 411 162 L 411 162 L 398 171 L 398 171 L 394 165 L 394 165 L 386 153 L 386 153 Q 363 119 324 106 L 318 104 L 318 104 Z" />
</svg>