<svg xmlns="http://www.w3.org/2000/svg" viewBox="0 0 576 512">
  <path d="M 493 147 L 491 149 L 493 147 L 491 149 L 480 160 L 480 160 L 491 171 L 491 171 L 493 173 L 493 173 L 504 184 L 504 184 L 515 173 L 515 173 L 517 171 L 517 171 L 528 160 L 528 160 L 539 171 L 539 171 L 565 197 L 565 197 L 576 208 L 576 208 L 565 219 L 565 219 L 467 317 L 467 317 L 456 328 L 456 328 L 445 317 L 445 317 L 419 291 L 419 291 L 408 280 L 408 280 L 419 269 L 419 269 L 421 267 L 421 267 L 432 256 L 432 256 L 421 245 L 421 245 L 419 243 L 419 243 L 408 232 L 408 232 L 397 243 L 397 243 L 395 245 L 395 245 L 384 256 L 384 256 L 373 245 L 373 245 L 272 144 L 272 144 L 272 96 L 272 96 L 193 57 L 193 57 L 176 48 L 176 48 L 192 38 L 192 38 L 226 18 L 226 18 Q 256 0 292 0 L 315 0 L 315 0 Q 368 1 406 38 L 493 125 L 493 125 L 504 136 L 504 136 L 493 147 L 493 147 Z M 515 195 L 504 207 L 515 195 L 504 207 L 493 195 L 493 195 L 469 171 L 469 171 L 457 160 L 457 160 L 469 149 L 469 149 L 481 136 L 481 136 L 394 49 L 394 49 Q 361 17 315 16 L 292 16 L 292 16 Q 261 16 234 32 L 209 47 L 209 47 L 279 82 L 279 82 L 288 86 L 288 86 L 288 96 L 288 96 L 288 137 L 288 137 L 384 233 L 384 233 L 397 221 L 397 221 L 408 209 L 408 209 L 419 221 L 419 221 L 443 245 L 443 245 L 455 256 L 455 256 L 443 267 L 443 267 L 431 280 L 431 280 L 456 305 L 456 305 L 553 208 L 553 208 L 528 183 L 528 183 L 515 195 L 515 195 Z M 12 405 L 264 181 L 12 405 L 264 181 L 275 193 L 275 193 L 23 417 L 23 417 L 95 489 L 95 489 L 319 237 L 319 237 L 331 248 L 331 248 L 107 500 L 107 500 L 96 512 L 96 512 L 85 501 L 85 501 L 11 427 L 11 427 L 0 416 L 0 416 L 12 405 L 12 405 Z" />
</svg>