<svg xmlns="http://www.w3.org/2000/svg" viewBox="0 0 640 320">
  <path d="M 16 16 L 16 304 L 16 16 L 16 304 L 432 304 L 432 304 L 432 16 L 432 16 L 16 16 L 16 16 Z M 0 0 L 16 0 L 0 0 L 448 0 L 448 16 L 448 16 L 448 304 L 448 304 L 448 320 L 448 320 L 432 320 L 0 320 L 0 304 L 0 304 L 0 16 L 0 16 L 0 0 L 0 0 Z M 624 288 L 480 288 L 624 288 L 480 288 L 480 272 L 480 272 L 624 272 L 624 272 L 624 48 L 624 48 L 480 48 L 480 48 L 480 32 L 480 32 L 624 32 L 640 32 L 640 48 L 640 48 L 640 272 L 640 272 L 640 288 L 640 288 L 624 288 L 624 288 Z M 576 192 L 544 192 L 576 192 L 544 192 L 544 224 L 544 224 L 576 224 L 576 224 L 576 192 L 576 192 Z M 544 176 L 576 176 L 544 176 L 592 176 L 592 192 L 592 192 L 592 224 L 592 224 L 592 240 L 592 240 L 576 240 L 528 240 L 528 224 L 528 224 L 528 192 L 528 192 L 528 176 L 528 176 L 544 176 L 544 176 Z M 544 96 L 544 128 L 544 96 L 544 128 L 576 128 L 576 128 L 576 96 L 576 96 L 544 96 L 544 96 Z M 528 80 L 544 80 L 528 80 L 592 80 L 592 96 L 592 96 L 592 128 L 592 128 L 592 144 L 592 144 L 576 144 L 528 144 L 528 128 L 528 128 L 528 96 L 528 96 L 528 80 L 528 80 Z" />
</svg>