<svg xmlns="http://www.w3.org/2000/svg" viewBox="0 0 512 512">
  <path d="M 64 0 L 80 0 L 432 0 L 448 0 L 448 32 L 432 32 L 416 32 L 416 120 L 416 125 L 413 130 L 316 256 L 413 382 L 416 387 L 416 392 L 416 480 L 432 480 L 448 480 L 448 512 L 432 512 L 80 512 L 64 512 L 64 480 L 80 480 L 96 480 L 96 392 L 96 387 L 99 382 L 196 256 L 99 130 L 96 125 L 96 120 L 96 32 L 80 32 L 64 32 L 64 0 L 64 0 Z M 128 32 L 128 115 L 229 246 L 236 256 L 229 266 L 128 397 L 128 480 L 384 480 L 384 397 L 283 266 L 276 256 L 283 246 L 384 115 L 384 32 L 128 32 L 128 32 Z M 268 310 L 348 406 L 352 410 L 352 416 L 352 432 L 352 448 L 336 448 L 256 448 L 176 448 L 160 448 L 160 432 L 160 416 L 160 410 L 164 406 L 244 310 L 256 295 L 268 310 L 268 310 Z M 256 416 L 315 416 L 256 345 L 197 416 L 256 416 L 256 416 Z" />
</svg>