<svg xmlns="http://www.w3.org/2000/svg" viewBox="0 0 512 512">
  <path d="M 512 224 Q 512 216 511 208 Q 507 160 479 112 Q 451 65 396 33 Q 341 1 256 0 Q 171 1 116 33 Q 61 65 33 112 Q 5 160 1 208 Q 0 216 0 224 L 16 224 L 53 224 L 160 331 L 160 331 L 160 336 L 160 336 L 160 496 L 160 496 L 160 512 L 160 512 L 176 512 L 352 512 L 352 496 L 352 496 L 352 336 L 352 336 L 352 331 L 352 331 L 459 224 L 459 224 L 496 224 L 512 224 Z M 437 224 L 341 320 L 437 224 L 341 320 L 336 320 L 264 320 L 264 224 L 264 224 L 384 224 L 437 224 Z M 248 224 L 248 320 L 248 224 L 248 320 L 176 320 L 171 320 L 75 224 L 75 224 L 112 224 L 248 224 Z M 336 496 L 176 496 L 336 496 L 176 496 L 176 336 L 176 336 L 336 336 L 336 336 L 336 496 L 336 496 Z M 17 208 Q 21 151 63 97 L 63 97 L 63 97 Q 106 43 191 23 Q 155 49 134 98 Q 113 147 112 208 L 17 208 L 17 208 Z M 167 70 Q 205 17 256 16 Q 307 17 345 70 Q 382 124 384 208 L 128 208 L 128 208 Q 130 124 167 70 L 167 70 Z M 321 23 Q 406 43 449 97 L 449 97 L 449 97 Q 491 151 495 208 L 400 208 L 400 208 Q 399 147 378 98 Q 357 49 321 23 L 321 23 Z" />
</svg>