<svg xmlns="http://www.w3.org/2000/svg" viewBox="0 0 448 512">
  <path d="M 56 0 Q 32 1 16 16 L 16 16 L 16 16 Q 1 32 0 56 L 0 456 L 0 456 Q 1 480 16 496 Q 32 511 56 512 L 192 512 L 192 512 L 192 496 L 192 496 L 56 496 L 56 496 Q 39 496 28 484 Q 16 473 16 456 Q 16 439 28 428 Q 39 416 56 416 L 192 416 L 192 416 L 192 400 L 192 400 L 56 400 L 56 400 Q 32 401 16 417 L 16 56 L 16 56 Q 16 39 28 28 Q 39 16 56 16 L 432 16 L 432 16 L 432 400 L 432 400 L 288 400 L 288 400 L 288 416 L 288 416 L 400 416 L 400 416 L 400 496 L 400 496 L 288 496 L 288 496 L 288 512 L 288 512 L 440 512 L 448 512 L 448 496 L 448 496 L 440 496 L 416 496 L 416 416 L 416 416 L 440 416 L 448 416 L 448 408 L 448 408 L 448 8 L 448 8 L 448 0 L 448 0 L 440 0 L 56 0 Z M 130 234 L 125 240 L 130 234 L 125 240 L 136 251 L 136 251 L 142 246 L 142 246 L 232 155 L 232 155 L 232 504 L 232 504 L 232 512 L 232 512 L 248 512 L 248 512 L 248 504 L 248 504 L 248 155 L 248 155 L 338 246 L 338 246 L 344 251 L 344 251 L 355 240 L 355 240 L 350 234 L 350 234 L 246 130 L 246 130 L 240 125 L 240 125 L 234 130 L 234 130 L 130 234 L 130 234 Z" />
</svg>