<svg xmlns="http://www.w3.org/2000/svg" viewBox="0 0 576 512">
  <path d="M 560 16 L 560 336 L 560 16 L 560 336 L 16 336 L 16 336 L 16 16 L 16 16 L 560 16 L 560 16 Z M 16 0 L 0 0 L 16 0 L 0 0 L 0 16 L 0 16 L 0 336 L 0 336 L 0 352 L 0 352 L 16 352 L 576 352 L 576 336 L 576 336 L 576 16 L 576 16 L 576 0 L 576 0 L 560 0 L 16 0 Z M 80 432 L 80 496 L 80 432 L 80 496 L 16 496 L 16 496 L 16 432 L 16 432 L 80 432 L 80 432 Z M 16 416 L 0 416 L 16 416 L 0 416 L 0 432 L 0 432 L 0 496 L 0 496 L 0 512 L 0 512 L 16 512 L 96 512 L 96 496 L 96 496 L 96 432 L 96 432 L 96 416 L 96 416 L 80 416 L 16 416 Z M 176 432 L 240 432 L 176 432 L 240 432 L 240 496 L 240 496 L 176 496 L 176 496 L 176 432 L 176 432 Z M 160 416 L 160 432 L 160 416 L 160 432 L 160 496 L 160 496 L 160 512 L 160 512 L 176 512 L 256 512 L 256 496 L 256 496 L 256 432 L 256 432 L 256 416 L 256 416 L 240 416 L 160 416 Z M 400 432 L 400 496 L 400 432 L 400 496 L 336 496 L 336 496 L 336 432 L 336 432 L 400 432 L 400 432 Z M 336 416 L 320 416 L 336 416 L 320 416 L 320 432 L 320 432 L 320 496 L 320 496 L 320 512 L 320 512 L 336 512 L 416 512 L 416 496 L 416 496 L 416 432 L 416 432 L 416 416 L 416 416 L 400 416 L 336 416 Z M 496 432 L 560 432 L 496 432 L 560 432 L 560 496 L 560 496 L 496 496 L 496 496 L 496 432 L 496 432 Z M 480 416 L 480 432 L 480 416 L 480 432 L 480 496 L 480 496 L 480 512 L 480 512 L 496 512 L 576 512 L 576 496 L 576 496 L 576 432 L 576 432 L 576 416 L 576 416 L 560 416 L 480 416 Z" />
</svg>