<svg xmlns="http://www.w3.org/2000/svg" viewBox="0 0 512 512">
  <path d="M 128 184 Q 130 113 177 65 L 177 65 L 177 65 Q 225 18 296 16 L 323 16 L 323 16 L 314 25 L 314 25 Q 266 69 252 132 L 249 147 L 249 147 L 263 141 L 263 141 Q 293 128 328 128 Q 399 130 447 177 Q 494 225 496 296 L 496 323 L 496 323 L 487 313 L 487 313 Q 443 266 380 252 L 365 249 L 365 249 L 371 263 L 371 263 Q 384 293 384 328 Q 382 399 335 447 Q 288 494 216 496 L 189 496 L 189 496 L 199 487 L 199 487 Q 246 443 260 380 L 263 365 L 263 365 L 249 371 L 249 371 Q 219 384 184 384 Q 113 382 65 335 Q 18 287 16 216 L 16 189 L 16 189 L 25 199 L 25 199 Q 69 246 132 260 L 147 263 L 147 263 L 141 249 L 141 249 Q 128 219 128 184 L 128 184 Z M 296 0 Q 218 2 166 54 L 166 54 L 166 54 Q 114 106 112 184 Q 112 214 121 241 Q 72 226 37 188 L 14 163 L 14 163 L 0 147 L 0 147 L 0 168 L 0 168 L 0 216 L 0 216 Q 2 294 54 346 Q 106 398 184 400 Q 214 400 241 391 Q 226 440 188 475 L 163 498 L 163 498 L 147 512 L 147 512 L 168 512 L 216 512 Q 294 510 346 458 Q 398 406 400 328 Q 400 298 391 272 Q 440 286 475 324 L 498 349 L 498 349 L 512 365 L 512 365 L 512 344 L 512 344 L 512 296 L 512 296 Q 510 218 458 166 Q 406 114 328 112 Q 298 112 272 121 Q 286 72 324 37 L 349 14 L 349 14 L 365 0 L 365 0 L 344 0 L 296 0 Z M 245 307 L 256 319 L 245 307 L 256 319 L 267 307 L 267 307 L 307 267 L 307 267 L 319 256 L 319 256 L 307 245 L 307 245 L 267 205 L 267 205 L 256 193 L 256 193 L 245 205 L 245 205 L 205 245 L 205 245 L 193 256 L 193 256 L 205 267 L 205 267 L 245 307 L 245 307 Z M 256 296 L 245 285 L 256 296 L 245 285 L 227 267 L 227 267 L 216 256 L 216 256 L 227 245 L 227 245 L 245 227 L 245 227 L 256 216 L 256 216 L 267 227 L 267 227 L 285 245 L 285 245 L 296 256 L 296 256 L 285 267 L 285 267 L 267 285 L 267 285 L 256 296 L 256 296 Z" />
</svg>