<svg xmlns="http://www.w3.org/2000/svg" viewBox="0 0 624 512">
  <path d="M 545 126 L 568 104 L 545 126 L 568 104 L 545 81 L 545 81 L 487 23 L 487 23 L 464 0 L 464 0 L 442 23 L 442 23 L 306 170 L 306 170 L 331 190 L 331 190 L 465 46 L 465 46 L 522 103 L 522 103 L 384 231 L 384 231 L 410 252 L 410 252 L 545 126 L 545 126 Z M 288 319 L 299 330 L 288 319 L 299 330 L 271 422 L 271 422 L 123 468 L 123 468 L 191 400 L 191 400 Q 191 400 191 400 Q 192 400 192 400 Q 214 398 216 376 Q 214 354 192 352 Q 170 354 168 376 Q 168 376 168 377 Q 168 377 168 377 L 100 445 L 100 445 L 146 297 L 146 297 L 229 271 L 229 271 L 198 247 L 198 247 L 120 272 L 120 272 L 56 480 L 56 480 L 88 512 L 88 512 L 296 448 L 296 448 L 327 349 L 327 349 L 288 319 L 288 319 Z M 32 18 L 20 8 L 32 18 L 20 8 L 0 33 L 0 33 L 13 43 L 13 43 L 592 494 L 592 494 L 604 504 L 604 504 L 624 479 L 624 479 L 612 469 L 612 469 L 32 18 L 32 18 Z" />
</svg>