<svg xmlns="http://www.w3.org/2000/svg" viewBox="0 0 448 512">
  <path d="M 240 96 Q 267 95 285 77 L 285 77 L 285 77 Q 303 59 304 32 L 304 16 L 304 16 L 288 16 L 288 16 Q 261 17 243 35 Q 225 53 224 80 L 224 96 L 224 96 L 240 96 L 240 96 Z M 208 112 L 208 96 L 208 112 L 208 96 L 208 80 L 208 80 Q 209 46 231 23 Q 254 1 288 0 L 304 0 L 320 0 L 320 16 L 320 16 L 320 32 L 320 32 Q 319 66 297 89 Q 274 111 240 112 L 224 112 L 208 112 Z M 112 128 L 224 160 L 112 128 L 224 160 L 336 128 L 336 128 Q 393 131 421 179 Q 448 228 448 288 Q 446 386 398 448 Q 351 510 288 512 L 224 496 L 224 496 L 160 512 L 160 512 Q 98 510 50 448 Q 3 386 0 288 Q 0 228 27 179 Q 55 131 112 128 L 112 128 Z M 228 175 L 224 177 L 228 175 L 224 177 L 220 175 L 220 175 L 110 144 L 110 144 Q 65 147 41 188 Q 16 231 16 288 Q 19 381 63 438 Q 106 494 158 496 L 220 481 L 220 481 L 224 480 L 224 480 L 228 481 L 228 481 L 290 496 L 290 496 Q 342 494 385 438 Q 429 381 432 288 Q 432 231 407 188 Q 383 147 338 144 L 228 175 L 228 175 Z" />
</svg>