<svg xmlns="http://www.w3.org/2000/svg" viewBox="0 0 640 512">
  <path d="M 432 16 L 432 176 L 432 16 L 432 176 L 208 176 L 208 176 L 208 16 L 208 16 L 432 16 L 432 16 Z M 208 0 L 192 0 L 208 0 L 192 0 L 192 16 L 192 16 L 192 176 L 192 176 L 192 192 L 192 192 L 208 192 L 312 192 L 312 248 L 312 248 L 8 248 L 0 248 L 0 264 L 0 264 L 8 264 L 152 264 L 152 320 L 152 320 L 48 320 L 32 320 L 32 336 L 32 336 L 32 496 L 32 496 L 32 512 L 32 512 L 48 512 L 288 512 L 288 496 L 288 496 L 288 336 L 288 336 L 288 320 L 288 320 L 272 320 L 168 320 L 168 264 L 168 264 L 472 264 L 472 264 L 472 320 L 472 320 L 368 320 L 352 320 L 352 336 L 352 336 L 352 496 L 352 496 L 352 512 L 352 512 L 368 512 L 608 512 L 608 496 L 608 496 L 608 336 L 608 336 L 608 320 L 608 320 L 592 320 L 488 320 L 488 264 L 488 264 L 632 264 L 640 264 L 640 248 L 640 248 L 632 248 L 328 248 L 328 192 L 328 192 L 432 192 L 448 192 L 448 176 L 448 176 L 448 16 L 448 16 L 448 0 L 448 0 L 432 0 L 208 0 Z M 48 336 L 272 336 L 48 336 L 272 336 L 272 496 L 272 496 L 48 496 L 48 496 L 48 336 L 48 336 Z M 592 336 L 592 496 L 592 336 L 592 496 L 368 496 L 368 496 L 368 336 L 368 336 L 592 336 L 592 336 Z" />
</svg>