<svg xmlns="http://www.w3.org/2000/svg" viewBox="0 0 512 512">
  <path d="M 160 416 L 144 416 L 160 416 L 0 416 L 0 400 L 0 400 L 0 16 L 0 16 L 0 0 L 0 0 L 16 0 L 512 0 L 512 16 L 512 16 L 512 400 L 512 400 L 512 416 L 512 416 L 496 416 L 304 416 L 176 501 L 176 501 L 160 512 L 160 512 L 160 493 L 160 493 L 160 432 L 160 432 L 160 416 L 160 416 Z M 160 400 L 176 400 L 160 400 L 176 400 L 176 416 L 176 416 L 176 482 L 176 482 L 295 403 L 295 403 L 299 400 L 299 400 L 304 400 L 496 400 L 496 16 L 496 16 L 16 16 L 16 16 L 16 400 L 16 400 L 160 400 L 160 400 Z M 264 112 L 264 120 L 264 112 L 264 120 L 264 200 L 264 200 L 344 200 L 352 200 L 352 216 L 352 216 L 344 216 L 264 216 L 264 296 L 264 296 L 264 304 L 264 304 L 248 304 L 248 304 L 248 296 L 248 296 L 248 216 L 248 216 L 168 216 L 160 216 L 160 200 L 160 200 L 168 200 L 248 200 L 248 120 L 248 120 L 248 112 L 248 112 L 264 112 L 264 112 Z" />
</svg>