<svg xmlns="http://www.w3.org/2000/svg" viewBox="0 0 384 512">
  <path d="M 368 320 Q 367 285 340 233 Q 312 180 275 130 Q 238 79 210 45 Q 199 33 192 24 Q 185 33 174 45 Q 146 79 109 130 Q 72 180 44 233 Q 17 285 16 320 Q 18 395 68 444 Q 117 494 192 496 Q 267 494 316 444 Q 366 395 368 320 L 368 320 Z M 0 320 Q 2 273 38 210 L 38 210 L 38 210 Q 74 148 116 93 L 116 93 L 116 93 Q 159 37 181 12 Q 192 0 192 0 Q 192 0 192 0 Q 192 0 203 12 Q 225 37 268 93 Q 310 148 346 210 Q 382 273 384 320 Q 382 402 328 456 Q 274 510 192 512 Q 110 510 56 456 Q 2 402 0 320 L 0 320 Z M 270 254 L 126 398 L 270 254 L 126 398 L 120 403 L 120 403 L 109 392 L 109 392 L 114 386 L 114 386 L 258 242 L 258 242 L 264 237 L 264 237 L 275 248 L 275 248 L 270 254 L 270 254 Z M 112 272 Q 112 258 121 249 L 121 249 L 121 249 Q 130 240 144 240 Q 158 240 167 249 Q 176 258 176 272 Q 176 286 167 295 Q 158 304 144 304 Q 130 304 121 295 Q 112 286 112 272 L 112 272 Z M 144 288 Q 159 287 160 272 Q 159 257 144 256 Q 129 257 128 272 Q 129 287 144 288 L 144 288 Z M 240 336 Q 254 336 263 345 L 263 345 L 263 345 Q 272 354 272 368 Q 272 382 263 391 Q 254 400 240 400 Q 226 400 217 391 Q 208 382 208 368 Q 208 354 217 345 Q 226 336 240 336 L 240 336 Z M 256 368 Q 255 353 240 352 Q 225 353 224 368 Q 225 383 240 384 Q 255 383 256 368 L 256 368 Z" />
</svg>