<svg xmlns="http://www.w3.org/2000/svg" viewBox="0 0 488 488">
  <path d="M 418 143 L 465 96 L 418 143 L 465 96 L 392 23 L 392 23 L 345 70 L 345 70 L 418 143 L 418 143 Z M 328 64 L 334 58 L 328 64 L 334 58 L 381 11 L 381 11 L 392 0 L 392 0 L 403 11 L 403 11 L 477 85 L 477 85 L 488 96 L 488 96 L 477 107 L 477 107 L 430 154 L 430 154 L 424 160 L 424 160 L 418 166 L 418 166 L 264 320 L 264 320 L 154 348 L 154 348 L 136 352 L 136 352 L 140 334 L 140 334 L 168 224 L 168 224 L 322 70 L 322 70 L 328 64 L 328 64 Z M 334 81 L 182 232 L 334 81 L 182 232 L 158 330 L 158 330 L 256 306 L 256 306 L 407 154 L 407 154 L 334 81 L 334 81 Z M 448 256 Q 448 222 438 191 L 447 183 L 447 183 L 451 179 L 451 179 Q 464 215 464 256 Q 463 314 424 352 Q 386 391 328 392 Q 301 392 277 382 Q 270 379 273 372 Q 276 365 283 367 Q 304 376 328 376 Q 379 375 413 341 Q 447 307 448 256 L 448 256 Z M 232 24 Q 273 24 310 37 L 305 41 L 305 41 L 297 50 L 297 50 Q 266 40 232 40 Q 140 42 79 103 Q 18 164 16 256 Q 18 348 79 409 Q 140 470 232 472 Q 239 473 240 480 Q 239 487 232 488 Q 167 487 115 456 Q 63 425 32 373 Q 1 321 0 256 Q 1 191 32 139 Q 63 87 115 56 Q 167 25 232 24 L 232 24 Z" />
</svg>