<svg xmlns="http://www.w3.org/2000/svg" viewBox="0 0 448 448">
  <path d="M 16 16 L 16 432 L 16 16 L 16 432 L 432 432 L 432 432 L 432 16 L 432 16 L 16 16 L 16 16 Z M 0 0 L 16 0 L 0 0 L 448 0 L 448 16 L 448 16 L 448 432 L 448 432 L 448 448 L 448 448 L 432 448 L 0 448 L 0 432 L 0 432 L 0 16 L 0 16 L 0 0 L 0 0 Z M 145 152 Q 142 167 147 177 Q 152 186 164 194 Q 188 208 226 216 L 227 217 L 227 217 Q 227 217 228 217 Q 265 225 293 241 Q 308 250 315 264 Q 323 279 319 299 Q 311 332 277 344 Q 245 356 201 350 Q 201 350 201 350 Q 201 350 201 350 Q 186 347 167 342 Q 148 337 135 333 L 127 331 L 127 331 L 132 315 L 132 315 L 140 318 L 140 318 Q 153 322 171 327 Q 190 332 203 334 Q 244 340 272 329 Q 299 319 303 296 Q 306 281 301 271 Q 296 262 285 254 Q 260 240 222 231 L 221 231 L 221 231 Q 221 231 221 231 Q 184 223 155 207 Q 141 198 133 183 Q 126 169 129 149 Q 137 115 171 103 Q 204 92 248 98 Q 255 99 266 101 Q 277 104 284 105 L 292 107 L 292 107 L 288 123 L 288 123 L 280 121 L 280 121 Q 273 119 262 117 Q 252 115 245 114 Q 204 108 176 119 Q 150 129 145 152 L 145 152 Z" />
</svg>