<svg xmlns="http://www.w3.org/2000/svg" viewBox="0 0 512 448">
  <path d="M 16 8 L 16 0 L 16 8 L 16 0 L 0 0 L 0 0 L 0 8 L 0 8 L 0 440 L 0 440 L 0 448 L 0 448 L 8 448 L 512 448 L 512 432 L 512 432 L 504 432 L 16 432 L 16 8 L 16 8 Z M 144 96 L 160 96 L 144 96 L 272 96 L 272 128 L 272 128 L 256 128 L 144 128 L 144 96 L 144 96 Z M 288 144 L 288 128 L 288 144 L 288 128 L 288 96 L 288 96 L 288 80 L 288 80 L 272 80 L 128 80 L 128 96 L 128 96 L 128 128 L 128 128 L 128 144 L 128 144 L 144 144 L 288 144 Z M 208 192 L 224 192 L 208 192 L 368 192 L 368 224 L 368 224 L 352 224 L 208 224 L 208 192 L 208 192 Z M 336 288 L 352 288 L 336 288 L 464 288 L 464 320 L 464 320 L 448 320 L 336 320 L 336 288 L 336 288 Z M 224 176 L 208 176 L 224 176 L 192 176 L 192 192 L 192 192 L 192 224 L 192 224 L 192 240 L 192 240 L 208 240 L 384 240 L 384 224 L 384 224 L 384 192 L 384 192 L 384 176 L 384 176 L 368 176 L 224 176 Z M 352 272 L 336 272 L 352 272 L 320 272 L 320 288 L 320 288 L 320 320 L 320 320 L 320 336 L 320 336 L 336 336 L 480 336 L 480 320 L 480 320 L 480 288 L 480 288 L 480 272 L 480 272 L 464 272 L 352 272 Z" />
</svg>