<svg xmlns="http://www.w3.org/2000/svg" viewBox="0 0 543 512">
  <path d="M 496 224 Q 494 136 435 77 L 435 77 L 435 77 Q 376 18 288 16 L 288 224 L 288 224 L 496 224 L 496 224 Z M 272 1 Q 280 0 288 0 Q 351 1 401 31 Q 452 60 481 111 Q 511 161 512 224 Q 512 232 511 240 L 288 240 L 272 240 L 272 224 L 272 224 L 272 1 L 272 1 Z M 208 295 L 208 288 L 208 295 L 208 288 L 208 50 L 208 50 Q 125 64 71 125 Q 18 186 16 272 Q 17 335 47 385 Q 76 436 127 465 Q 177 495 240 496 Q 313 495 369 455 L 213 299 L 213 299 L 208 295 L 208 295 Z M 382 446 L 393 457 L 382 446 L 393 457 Q 387 462 380 467 Q 320 511 240 512 Q 173 511 119 479 Q 65 447 33 393 Q 1 339 0 272 Q 2 179 60 113 Q 118 48 208 34 Q 216 33 224 33 L 224 49 L 224 49 L 224 288 L 224 288 L 382 446 L 382 446 Z M 288 288 L 311 288 L 288 288 L 543 288 Q 543 296 542 304 Q 527 398 457 457 L 304 304 L 304 304 L 288 288 L 288 288 Z M 327 304 L 458 435 L 327 304 L 458 435 Q 513 382 526 304 L 327 304 L 327 304 Z" />
</svg>