<svg xmlns="http://www.w3.org/2000/svg" viewBox="0 0 512 448">
  <path d="M 168 48 L 48 48 L 168 48 L 48 48 L 48 400 L 48 400 L 168 400 L 192 400 L 192 448 L 192 448 L 168 448 L 0 448 L 0 424 L 0 424 L 0 24 L 0 24 L 0 0 L 0 0 L 24 0 L 192 0 L 192 48 L 192 48 L 168 48 L 168 48 Z M 167 241 L 150 224 L 167 241 L 150 224 L 167 207 L 167 207 L 295 79 L 295 79 L 312 62 L 312 62 L 346 96 L 346 96 L 329 113 L 329 113 L 242 200 L 242 200 L 488 200 L 512 200 L 512 248 L 512 248 L 488 248 L 242 248 L 329 335 L 329 335 L 346 352 L 346 352 L 312 386 L 312 386 L 295 369 L 295 369 L 167 241 L 167 241 Z" />
</svg>