<svg xmlns="http://www.w3.org/2000/svg" viewBox="0 0 640 512">
  <path d="M 96 0 L 128 0 L 96 0 L 273 0 L 282 14 L 282 14 L 378 150 L 378 150 L 384 158 L 384 158 L 384 160 L 384 160 L 384 168 L 384 168 L 384 224 L 384 224 L 384 320 L 384 320 L 0 320 L 0 320 L 0 160 L 0 160 L 96 160 L 96 160 L 96 32 L 96 32 L 96 0 L 96 0 Z M 239 64 L 160 64 L 239 64 L 160 64 L 160 160 L 160 160 L 307 160 L 307 160 L 239 64 L 239 64 Z M 80 416 Q 65 417 64 432 Q 65 447 80 448 L 336 448 L 336 448 Q 351 447 352 432 Q 351 417 336 416 L 80 416 L 80 416 Z M 0 432 Q 1 398 23 375 L 23 375 L 23 375 Q 46 353 80 352 L 336 352 L 336 352 Q 370 353 393 375 Q 415 398 416 432 Q 415 466 393 489 Q 370 511 336 512 L 80 512 L 80 512 Q 46 511 23 489 Q 1 466 0 432 L 0 432 Z M 640 320 L 640 384 L 640 320 L 640 384 L 640 432 L 640 432 Q 639 466 617 489 Q 594 511 560 512 L 448 512 L 448 512 L 448 464 L 448 464 L 576 336 L 576 336 L 576 128 L 576 128 L 416 288 L 416 288 L 416 160 L 416 160 L 576 0 L 576 0 L 640 0 L 640 0 L 640 320 L 640 320 Z" />
</svg>