<svg xmlns="http://www.w3.org/2000/svg" viewBox="0 0 640 512">
  <path d="M 16 5 L 10 0 L 16 5 L 10 0 L 0 13 L 0 13 L 6 18 L 6 18 L 624 507 L 624 507 L 630 512 L 630 512 L 640 500 L 640 500 L 634 495 L 634 495 L 16 5 L 16 5 Z M 409 418 Q 368 432 320 432 Q 275 432 235 420 L 230 418 L 230 418 L 226 420 L 226 420 L 106 455 L 106 455 L 136 376 L 136 376 L 140 367 L 140 367 L 132 360 L 132 360 Q 81 308 80 240 Q 80 204 96 171 L 83 161 L 83 161 Q 64 198 64 240 Q 66 316 121 371 L 87 461 L 87 461 L 80 480 L 80 480 L 99 474 L 99 474 L 230 435 L 230 435 Q 273 448 320 448 Q 376 448 424 430 L 409 418 L 409 418 Z M 320 32 Q 248 33 189 61 L 203 72 L 203 72 Q 255 49 320 48 Q 424 50 491 105 Q 558 160 560 240 Q 559 289 531 331 L 544 341 L 544 341 Q 575 296 576 240 Q 575 182 541 135 Q 507 88 449 60 Q 392 33 320 32 L 320 32 Z" />
</svg>