<svg xmlns="http://www.w3.org/2000/svg" viewBox="0 0 640 512">
  <path d="M 560 256 Q 559 191 528 136 L 528 136 L 528 136 Q 496 81 440 48 Q 383 16 320 16 Q 257 16 200 48 Q 144 81 112 136 Q 81 191 80 256 Q 81 321 112 376 Q 144 431 200 464 Q 257 496 320 496 Q 383 496 440 464 Q 496 431 528 376 Q 559 321 560 256 L 560 256 Z M 557 352 Q 528 424 465 467 L 465 467 L 465 467 Q 402 511 320 512 Q 238 511 175 467 Q 112 424 83 352 L 16 352 L 0 352 L 0 336 L 0 336 L 0 176 L 0 176 L 0 160 L 0 160 L 16 160 L 83 160 Q 112 88 175 45 Q 238 1 320 0 Q 402 1 465 45 Q 528 88 557 160 L 624 160 L 640 160 L 640 176 L 640 176 L 640 336 L 640 336 L 640 352 L 640 352 L 624 352 L 557 352 Z M 563 336 L 624 336 L 563 336 L 624 336 L 624 176 L 624 176 L 563 176 L 563 176 Q 576 214 576 256 Q 576 298 563 336 L 563 336 Z M 77 176 L 16 176 L 77 176 L 16 176 L 16 336 L 16 336 L 77 336 L 77 336 Q 64 298 64 256 Q 64 214 77 176 L 77 176 Z M 363 315 Q 362 314 360 312 L 352 304 L 352 304 L 363 293 L 363 293 L 464 192 L 464 192 L 472 200 L 472 200 L 473 201 L 473 201 Q 474 202 475 203 Q 496 226 496 257 L 496 260 L 496 260 Q 495 303 458 326 Q 440 336 420 336 L 418 336 L 418 336 Q 387 336 364 315 L 363 315 Z M 464 215 L 375 304 L 464 215 L 375 304 Q 393 320 418 320 L 420 320 L 420 320 Q 436 320 450 312 Q 479 294 480 260 L 480 257 L 480 257 Q 480 233 464 215 L 464 215 Z M 198 198 L 166 230 L 198 198 L 166 230 L 160 235 L 160 235 L 149 224 L 149 224 L 154 218 L 154 218 L 186 186 L 186 186 L 192 181 L 192 181 L 203 192 L 203 192 L 198 198 L 198 198 Z M 304 224 Q 305 209 320 208 Q 335 209 336 224 Q 335 239 320 240 Q 305 239 304 224 L 304 224 Z M 416 368 Q 431 369 432 384 Q 431 399 416 400 Q 401 399 400 384 Q 401 369 416 368 L 416 368 Z M 230 294 L 219 304 L 230 294 L 219 304 L 235 320 L 235 320 L 240 320 L 288 320 Q 315 321 333 339 Q 351 357 352 384 Q 351 411 333 429 Q 315 447 288 448 Q 261 447 243 429 Q 225 411 224 384 L 224 336 L 224 336 L 224 331 L 224 331 L 208 315 L 208 315 L 198 326 L 198 326 L 192 331 L 192 331 L 181 320 L 181 320 L 186 314 L 186 314 L 202 298 L 202 298 L 218 282 L 218 282 L 224 277 L 224 277 L 235 288 L 235 288 L 230 294 L 230 294 Z M 336 384 Q 335 364 322 350 L 322 350 L 322 350 Q 308 337 288 336 L 240 336 L 240 336 L 240 384 L 240 384 Q 241 404 254 418 Q 268 431 288 432 Q 308 431 322 418 Q 335 404 336 384 L 336 384 Z M 320 80 Q 293 81 275 99 L 275 99 L 275 99 Q 257 117 256 144 L 384 144 L 384 144 Q 383 117 365 99 Q 347 81 320 80 L 320 80 Z M 240 144 Q 241 110 263 87 L 263 87 L 263 87 Q 286 65 320 64 Q 354 65 377 87 Q 399 110 400 144 L 400 160 L 400 160 L 384 160 L 240 160 L 240 144 L 240 144 Z" />
</svg>