<svg xmlns="http://www.w3.org/2000/svg" viewBox="0 0 512 480">
  <path d="M 0 0 L 8 0 L 0 0 L 256 0 L 256 16 L 256 16 L 248 16 L 224 16 L 224 235 L 224 235 Q 215 248 208 263 L 208 176 L 208 176 L 48 176 L 48 176 L 48 352 L 48 352 Q 49 386 71 409 Q 94 431 128 432 Q 152 432 171 420 Q 190 408 200 388 Q 203 398 207 407 Q 179 446 128 448 Q 87 447 60 420 Q 33 393 32 352 L 32 16 L 32 16 L 8 16 L 0 16 L 0 0 L 0 0 Z M 48 16 L 48 160 L 48 16 L 48 160 L 208 160 L 208 160 L 208 16 L 208 16 L 48 16 L 48 16 Z M 368 464 Q 403 464 432 447 L 432 447 L 432 447 Q 461 430 479 400 Q 496 370 496 336 Q 496 302 479 272 Q 461 242 432 225 Q 403 208 368 208 Q 333 208 304 225 Q 275 242 257 272 Q 240 302 240 336 Q 240 370 257 400 Q 275 430 304 447 Q 333 464 368 464 L 368 464 Z M 368 192 Q 407 192 440 211 L 440 211 L 440 211 Q 473 230 493 264 Q 512 298 512 336 Q 512 374 493 408 Q 473 442 440 461 Q 407 480 368 480 Q 329 480 296 461 Q 263 442 243 408 Q 224 374 224 336 Q 224 298 243 264 Q 263 230 296 211 Q 329 192 368 192 L 368 192 Z M 443 296 L 438 302 L 443 296 L 438 302 L 358 382 L 358 382 L 352 387 L 352 387 L 346 382 L 346 382 L 298 334 L 298 334 L 292 328 L 292 328 L 304 317 L 304 317 L 310 322 L 310 322 L 352 365 L 352 365 L 426 290 L 426 290 L 432 285 L 432 285 L 443 296 L 443 296 Z" />
</svg>