<svg xmlns="http://www.w3.org/2000/svg" viewBox="0 0 448 480">
  <path d="M 16 224 Q 18 312 77 371 L 77 371 L 77 371 Q 136 430 224 432 Q 297 431 351 389 L 219 224 L 219 224 L 240 224 L 240 224 L 363 378 L 363 378 Q 395 349 413 310 Q 432 270 432 224 Q 430 136 371 77 Q 312 18 224 16 Q 136 18 77 77 Q 18 136 16 224 L 16 224 Z M 361 401 Q 303 447 224 448 Q 161 447 111 417 Q 60 388 31 337 Q 1 287 0 224 Q 1 161 31 111 Q 60 60 111 31 Q 161 1 224 0 Q 287 1 337 31 Q 388 60 417 111 Q 447 161 448 224 Q 448 274 428 317 Q 408 360 373 391 L 445 480 L 445 480 L 424 480 L 424 480 L 361 401 L 361 401 Z" />
</svg>