<svg xmlns="http://www.w3.org/2000/svg" viewBox="0 0 640 492">
  <path d="M 80 0 L 88 0 L 80 0 L 208 0 L 208 16 L 208 16 L 200 16 L 96 16 L 96 192 L 96 192 L 184 192 L 192 192 L 192 208 L 192 208 L 184 208 L 96 208 L 96 472 L 96 472 L 96 480 L 96 480 L 88 480 L 0 480 L 0 464 L 0 464 L 8 464 L 80 464 L 80 208 L 80 208 L 8 208 L 0 208 L 0 192 L 0 192 L 8 192 L 80 192 L 80 8 L 80 8 L 80 0 L 80 0 Z M 240 320 Q 241 412 287 484 L 273 492 L 273 492 Q 225 417 224 320 Q 225 223 273 148 L 287 156 L 287 156 Q 241 228 240 320 L 240 320 Z M 624 320 Q 623 228 577 156 L 591 148 L 591 148 Q 639 223 640 320 Q 639 417 591 492 L 577 484 L 577 484 Q 623 412 624 320 L 624 320 Z M 366 242 L 432 309 L 366 242 L 432 309 L 498 242 L 498 242 L 504 237 L 504 237 L 515 248 L 515 248 L 510 254 L 510 254 L 443 320 L 443 320 L 510 386 L 510 386 L 515 392 L 515 392 L 504 403 L 504 403 L 498 398 L 498 398 L 432 331 L 432 331 L 366 398 L 366 398 L 360 403 L 360 403 L 349 392 L 349 392 L 354 386 L 354 386 L 421 320 L 421 320 L 354 254 L 354 254 L 349 248 L 349 248 L 360 237 L 360 237 L 366 242 L 366 242 Z" />
</svg>