<svg xmlns="http://www.w3.org/2000/svg" viewBox="0 0 448 448">
  <path d="M 432 16 L 432 432 L 432 16 L 432 432 L 16 432 L 16 432 L 16 16 L 16 16 L 432 16 L 432 16 Z M 16 0 L 0 0 L 16 0 L 0 0 L 0 16 L 0 16 L 0 432 L 0 432 L 0 448 L 0 448 L 16 448 L 448 448 L 448 432 L 448 432 L 448 16 L 448 16 L 448 0 L 448 0 L 432 0 L 16 0 Z M 64 128 L 64 136 L 64 128 L 64 136 L 64 312 L 64 312 L 64 320 L 64 320 L 80 320 L 80 320 L 80 312 L 80 312 L 80 155 L 80 155 L 153 315 L 153 315 L 155 320 L 155 320 L 160 320 L 176 320 L 176 312 L 176 312 L 176 136 L 176 136 L 176 128 L 176 128 L 160 128 L 160 128 L 160 136 L 160 136 L 160 293 L 160 293 L 87 133 L 87 133 L 85 128 L 85 128 L 80 128 L 64 128 Z M 232 128 L 232 136 L 232 128 L 232 136 L 232 200 L 232 200 L 232 312 L 232 312 L 232 320 L 232 320 L 248 320 L 248 320 L 248 312 L 248 312 L 248 208 L 248 208 L 312 208 L 320 208 L 320 192 L 320 192 L 312 192 L 248 192 L 248 144 L 248 144 L 312 144 L 320 144 L 320 128 L 320 128 L 312 128 L 232 128 Z M 384 136 L 384 128 L 384 136 L 384 128 L 368 128 L 368 128 L 368 136 L 368 136 L 368 312 L 368 312 L 368 320 L 368 320 L 384 320 L 384 320 L 384 312 L 384 312 L 384 136 L 384 136 Z" />
</svg>