<svg xmlns="http://www.w3.org/2000/svg" viewBox="0 0 496 512">
  <path d="M 192 0 Q 237 2 263 36 Q 283 17 312 16 Q 343 17 363 37 Q 383 57 384 88 Q 383 119 363 139 Q 343 159 312 160 Q 283 159 263 140 Q 237 174 192 176 Q 147 174 121 140 Q 101 159 72 160 Q 41 159 21 139 Q 1 119 0 88 Q 1 57 21 37 Q 41 17 72 16 Q 101 17 121 36 Q 147 2 192 0 L 192 0 Z M 129 53 L 123 63 L 129 53 L 123 63 L 116 54 L 116 54 Q 100 33 72 32 Q 48 33 32 48 Q 17 64 16 88 Q 17 112 32 128 Q 48 143 72 144 Q 100 143 116 123 L 124 113 L 124 113 L 129 124 L 129 124 Q 150 158 192 160 Q 234 158 255 124 L 261 113 L 261 113 L 268 123 L 268 123 Q 284 143 312 144 Q 336 143 352 128 Q 367 112 368 88 Q 367 64 352 48 Q 336 33 312 32 Q 284 33 268 54 L 261 63 L 261 63 L 255 53 L 255 53 Q 234 18 192 16 Q 150 18 129 53 L 129 53 Z M 352 496 L 352 192 L 352 496 L 352 192 L 352 184 L 352 184 L 352 176 L 352 176 L 360 176 L 368 176 L 368 176 L 368 176 L 488 176 L 496 176 L 496 184 L 496 184 L 496 376 L 496 376 L 496 381 L 496 381 L 491 383 L 491 383 L 368 437 L 368 437 L 368 496 L 368 496 L 368 512 L 368 512 L 352 512 L 16 512 L 16 496 L 16 496 L 16 176 L 16 176 Q 24 180 32 184 L 32 496 L 32 496 L 352 496 L 352 496 Z M 368 420 L 480 371 L 368 420 L 480 371 L 480 192 L 480 192 L 368 192 L 368 192 L 368 420 L 368 420 Z M 128 224 L 128 232 L 128 224 L 128 232 L 128 440 L 128 440 L 128 448 L 128 448 L 112 448 L 112 448 L 112 440 L 112 440 L 112 232 L 112 232 L 112 224 L 112 224 L 128 224 L 128 224 Z M 200 224 L 200 232 L 200 224 L 200 232 L 200 440 L 200 440 L 200 448 L 200 448 L 184 448 L 184 448 L 184 440 L 184 440 L 184 232 L 184 232 L 184 224 L 184 224 L 200 224 L 200 224 Z M 272 224 L 272 232 L 272 224 L 272 232 L 272 440 L 272 440 L 272 448 L 272 448 L 256 448 L 256 448 L 256 440 L 256 440 L 256 232 L 256 232 L 256 224 L 256 224 L 272 224 L 272 224 Z" />
</svg>