<svg xmlns="http://www.w3.org/2000/svg" viewBox="0 0 576 448">
  <path d="M 346 0 L 352 0 L 346 0 L 576 0 L 576 16 L 576 16 L 568 16 L 358 16 L 216 443 L 216 443 L 214 448 L 214 448 L 203 448 L 203 448 L 201 444 L 201 444 L 83 208 L 83 208 L 8 208 L 0 208 L 0 192 L 0 192 L 8 192 L 93 192 L 95 196 L 95 196 L 207 419 L 207 419 L 344 6 L 344 6 L 346 0 L 346 0 Z M 400 197 L 406 202 L 400 197 L 406 202 L 480 277 L 480 277 L 554 202 L 554 202 L 560 197 L 560 197 L 571 208 L 571 208 L 566 214 L 566 214 L 491 288 L 491 288 L 566 362 L 566 362 L 571 368 L 571 368 L 560 379 L 560 379 L 554 374 L 554 374 L 480 299 L 480 299 L 406 374 L 406 374 L 400 379 L 400 379 L 389 368 L 389 368 L 394 362 L 394 362 L 469 288 L 469 288 L 394 214 L 394 214 L 389 208 L 389 208 L 400 197 L 400 197 Z" />
</svg>