<svg xmlns="http://www.w3.org/2000/svg" viewBox="0 0 448 512">
  <path d="M 432 248 L 432 16 L 432 248 L 432 16 L 16 16 L 16 16 L 16 248 L 16 248 L 432 248 L 432 248 Z M 0 496 L 0 264 L 0 496 L 0 264 L 0 256 L 0 256 L 0 248 L 0 248 L 0 16 L 0 16 L 0 0 L 0 0 L 16 0 L 448 0 L 448 16 L 448 16 L 448 248 L 448 248 L 448 256 L 448 256 L 448 264 L 448 264 L 448 496 L 448 496 L 448 512 L 448 512 L 432 512 L 0 512 L 0 496 L 0 496 Z M 16 264 L 16 496 L 16 264 L 16 496 L 432 496 L 432 496 L 432 264 L 432 264 L 16 264 L 16 264 Z M 136 96 L 312 96 L 136 96 L 320 96 L 320 104 L 320 104 L 320 136 L 320 136 L 320 144 L 320 144 L 304 144 L 304 144 L 304 136 L 304 136 L 304 112 L 304 112 L 144 112 L 144 112 L 144 136 L 144 136 L 144 144 L 144 144 L 128 144 L 128 144 L 128 136 L 128 136 L 128 104 L 128 104 L 128 96 L 128 96 L 136 96 L 136 96 Z M 136 352 L 312 352 L 136 352 L 320 352 L 320 360 L 320 360 L 320 392 L 320 392 L 320 400 L 320 400 L 304 400 L 304 400 L 304 392 L 304 392 L 304 368 L 304 368 L 144 368 L 144 368 L 144 392 L 144 392 L 144 400 L 144 400 L 128 400 L 128 400 L 128 392 L 128 392 L 128 360 L 128 360 L 128 352 L 128 352 L 136 352 L 136 352 Z" />
</svg>