<svg xmlns="http://www.w3.org/2000/svg" viewBox="0 0 576 502">
  <path d="M 160 502 L 166 497 L 160 502 L 166 497 L 262 401 L 262 401 L 267 395 L 267 395 L 256 384 L 256 384 L 250 389 L 250 389 L 168 472 L 168 472 L 168 259 L 168 259 L 568 259 L 576 259 L 576 243 L 576 243 L 568 243 L 424 243 L 424 30 L 424 30 L 506 113 L 506 113 L 512 118 L 512 118 L 523 107 L 523 107 L 518 101 L 518 101 L 422 5 L 422 5 L 416 0 L 416 0 L 410 5 L 410 5 L 314 101 L 314 101 L 309 107 L 309 107 L 320 118 L 320 118 L 326 113 L 326 113 L 408 30 L 408 30 L 408 243 L 408 243 L 8 243 L 0 243 L 0 259 L 0 259 L 8 259 L 152 259 L 152 472 L 152 472 L 70 389 L 70 389 L 64 384 L 64 384 L 53 395 L 53 395 L 58 401 L 58 401 L 154 497 L 154 497 L 160 502 L 160 502 Z M 152 35 L 152 187 L 152 35 L 152 187 L 168 187 L 168 187 L 168 35 L 168 35 L 168 27 L 168 27 L 152 27 L 152 27 L 152 35 L 152 35 Z M 408 315 L 408 467 L 408 315 L 408 467 L 408 475 L 408 475 L 424 475 L 424 475 L 424 467 L 424 467 L 424 315 L 424 315 L 408 315 L 408 315 Z" />
</svg>