<svg xmlns="http://www.w3.org/2000/svg" viewBox="0 0 512 512">
  <path d="M 256.40063 153.43974 Q 256.40063 132.6072 245.98434 114.97965 L 245.98434 114.97965 Q 235.56807 97.35211 217.94054 86.93584 Q 199.51173 76.51956 179.48044 76.51956 Q 159.44914 76.51956 141.02034 86.93584 Q 123.3928 97.35211 112.976524 114.97965 Q 102.56025 132.6072 102.56025 153.43974 Q 102.56025 174.2723 112.976524 191.89984 Q 123.3928 209.52739 141.02034 219.94366 Q 159.44914 230.35994 179.48044 230.35994 Q 199.51173 230.35994 217.94054 219.94366 Q 235.56807 209.52739 245.98434 191.89984 Q 256.40063 174.2723 256.40063 153.43974 L 256.40063 153.43974 Z M 34.453835 435.48044 L 324.50705 435.48044 L 288.4507 320.10016 L 70.51017 320.10016 L 34.453835 435.48044 L 34.453835 435.48044 Z M 307.68076 294.46008 L 350.94836 435.48044 L 358.96088 461.1205 L 332.51956 461.1205 L 27.242567 461.1205 L 0 461.1205 L 8.01252 435.48044 L 51.280125 294.46008 L 307.68076 294.46008 L 307.68076 294.46008 Z M 179.48044 50.879498 Q 207.52426 50.879498 230.76056 64.500786 L 230.76056 64.500786 Q 253.99687 78.12206 268.4194 102.15962 Q 282.04068 126.19718 282.04068 153.43974 Q 282.04068 180.68231 268.4194 204.71988 Q 253.99687 228.75743 230.76056 242.37872 Q 207.52426 256 179.48044 256 Q 151.43661 256 128.20032 242.37872 Q 104.964005 228.75743 90.54147 204.71988 Q 76.92019 180.68231 76.92019 153.43974 Q 76.92019 126.19718 90.54147 102.15962 Q 104.964005 78.12206 128.20032 64.500786 Q 151.43661 50.879498 179.48044 50.879498 L 179.48044 50.879498 Z M 502.38498 200.71361 L 399.82474 303.27386 L 391.01096 312.8889 L 382.19717 303.27386 L 330.91705 251.99374 L 321.30203 243.17996 L 339.73083 224.75117 L 348.5446 234.3662 L 391.01096 276.0313 L 484.75745 183.08607 L 493.5712 173.47105 L 512 191.89984 L 502.38498 200.71361 L 502.38498 200.71361 Z" />
</svg>