<svg xmlns="http://www.w3.org/2000/svg" viewBox="0 0 640 512">
  <path d="M 16 16 L 16 496 L 16 16 L 16 496 L 96 496 L 96 496 L 96 16 L 96 16 L 16 16 L 16 16 Z M 0 0 L 16 0 L 0 0 L 112 0 L 112 16 L 112 16 L 112 32 L 112 32 L 528 32 L 528 32 L 528 16 L 528 16 L 528 0 L 528 0 L 544 0 L 640 0 L 640 16 L 640 16 L 640 496 L 640 496 L 640 512 L 640 512 L 624 512 L 528 512 L 528 496 L 528 496 L 528 480 L 528 480 L 112 480 L 112 480 L 112 496 L 112 496 L 112 512 L 112 512 L 96 512 L 0 512 L 0 496 L 0 496 L 0 16 L 0 16 L 0 0 L 0 0 Z M 112 464 L 528 464 L 112 464 L 528 464 L 528 48 L 528 48 L 112 48 L 112 48 L 112 464 L 112 464 Z M 194 328 L 201 316 L 194 328 L 201 316 L 236 256 L 236 256 L 201 196 L 201 196 L 194 184 L 194 184 L 208 184 L 278 184 L 313 124 L 313 124 L 320 112 L 320 112 L 327 124 L 327 124 L 362 184 L 362 184 L 432 184 L 446 184 L 439 196 L 439 196 L 404 256 L 404 256 L 439 316 L 439 316 L 446 328 L 446 328 L 432 328 L 362 328 L 327 388 L 327 388 L 320 400 L 320 400 L 313 388 L 313 388 L 278 328 L 278 328 L 208 328 L 194 328 Z M 320 368 L 343 328 L 320 368 L 343 328 L 297 328 L 297 328 L 320 368 L 320 368 Z M 287 312 L 353 312 L 287 312 L 353 312 L 386 256 L 386 256 L 353 200 L 353 200 L 287 200 L 287 200 L 255 256 L 255 256 L 287 312 L 287 312 Z M 418 312 L 395 272 L 418 312 L 395 272 L 371 312 L 371 312 L 418 312 L 418 312 Z M 418 200 L 371 200 L 418 200 L 371 200 L 395 240 L 395 240 L 418 200 L 418 200 Z M 320 144 L 297 184 L 320 144 L 297 184 L 343 184 L 343 184 L 320 144 L 320 144 Z M 245 240 L 269 200 L 245 240 L 269 200 L 222 200 L 222 200 L 245 240 L 245 240 Z M 269 312 L 245 272 L 269 312 L 245 272 L 222 312 L 222 312 L 269 312 L 269 312 Z M 624 16 L 544 16 L 624 16 L 544 16 L 544 496 L 544 496 L 624 496 L 624 496 L 624 16 L 624 16 Z" />
</svg>