<svg xmlns="http://www.w3.org/2000/svg" viewBox="0 0 640 512">
  <path d="M 520 113 L 520 112 L 520 113 L 520 112 L 504 112 L 504 112 L 485 295 L 485 295 L 500 307 L 500 307 L 520 113 L 520 113 Z M 468 465 L 465 496 L 468 465 L 465 496 L 175 496 L 175 496 L 146 210 L 146 210 L 129 197 L 129 197 L 160 505 L 160 505 L 161 512 L 161 512 L 168 512 L 479 512 L 480 505 L 480 505 L 483 476 L 483 476 L 468 465 L 468 465 Z M 212 64 L 193 64 L 212 64 L 193 64 L 213 80 L 213 80 L 544 80 L 544 80 L 544 64 L 544 64 L 428 64 L 428 64 L 391 4 L 391 4 L 388 0 L 388 0 L 384 0 L 252 0 L 249 4 L 249 4 L 212 64 L 212 64 Z M 380 16 L 410 64 L 380 16 L 410 64 L 230 64 L 230 64 L 260 16 L 260 16 L 380 16 L 380 16 Z M 16 5 L 10 0 L 16 5 L 10 0 L 0 13 L 0 13 L 6 18 L 6 18 L 624 507 L 624 507 L 630 512 L 630 512 L 640 500 L 640 500 L 634 495 L 634 495 L 16 5 L 16 5 Z" />
</svg>