<svg xmlns="http://www.w3.org/2000/svg" viewBox="0 0 640 518">
  <path d="M 64 0 L 72 0 L 64 0 L 134 0 L 136 6 L 136 6 L 143 32 L 143 32 L 623 32 L 640 32 L 635 48 L 635 48 L 560 288 L 560 288 L 209 288 L 209 288 L 230 368 L 230 368 L 560 368 L 568 368 L 568 384 L 568 384 L 560 384 L 218 384 L 216 378 L 216 378 L 122 16 L 122 16 L 72 16 L 64 16 L 64 0 L 64 0 Z M 205 272 L 548 272 L 205 272 L 548 272 L 618 48 L 618 48 L 147 48 L 147 48 L 205 272 L 205 272 Z M 272 464 Q 272 450 263 441 L 263 441 L 263 441 Q 254 432 240 432 Q 226 432 217 441 Q 208 450 208 464 Q 208 478 217 487 Q 226 496 240 496 Q 254 496 263 487 Q 272 478 272 464 L 272 464 Z M 192 464 Q 193 437 216 422 Q 240 410 264 422 Q 287 437 288 464 Q 287 491 264 506 Q 240 518 216 506 Q 193 491 192 464 L 192 464 Z M 528 496 Q 542 496 551 487 L 551 487 L 551 487 Q 560 478 560 464 Q 560 450 551 441 Q 542 432 528 432 Q 514 432 505 441 Q 496 450 496 464 Q 496 478 505 487 Q 514 496 528 496 L 528 496 Z M 528 416 Q 555 417 570 440 Q 582 464 570 488 Q 555 511 528 512 Q 501 511 486 488 Q 474 464 486 440 Q 501 417 528 416 L 528 416 Z M 8 128 L 120 128 L 8 128 L 128 128 L 128 144 L 128 144 L 120 144 L 0 144 L 0 128 L 0 128 L 8 128 L 8 128 Z M 8 192 L 136 192 L 8 192 L 144 192 L 144 208 L 144 208 L 136 208 L 0 208 L 0 192 L 0 192 L 8 192 L 8 192 Z M 8 256 L 152 256 L 8 256 L 160 256 L 160 272 L 160 272 L 152 272 L 0 272 L 0 256 L 0 256 L 8 256 L 8 256 Z" />
</svg>