<svg xmlns="http://www.w3.org/2000/svg" viewBox="0 0 272 512">
  <path d="M 200 0 L 72 0 L 200 0 L 72 0 L 72 83 L 72 83 Q 61 86 50 92 L 44 96 L 44 96 Q 2 121 0 171 Q 0 195 12 214 Q 0 233 0 256 Q 1 283 16 304 Q 1 325 0 352 Q 0 380 16 400 Q 0 425 0 456 L 0 464 L 0 464 L 0 512 L 0 512 L 48 512 L 272 512 L 272 464 L 272 464 L 272 456 L 272 456 Q 272 425 256 400 Q 272 380 272 352 Q 272 325 256 304 Q 272 283 272 256 Q 272 233 260 214 Q 272 195 272 171 Q 270 121 228 96 L 222 92 L 222 92 Q 211 87 200 83 L 200 0 L 200 0 Z M 53 239 Q 67 214 53 190 Q 48 181 48 170 Q 49 149 67 138 L 74 134 L 74 134 Q 85 128 98 128 L 175 128 L 175 128 Q 187 128 199 134 L 205 138 L 205 138 Q 223 149 224 170 Q 224 181 219 190 Q 205 214 219 239 Q 224 246 224 256 Q 224 267 218 275 Q 199 304 218 333 Q 224 341 224 352 Q 224 363 218 371 Q 199 398 215 426 Q 224 439 224 456 L 224 464 L 224 464 L 48 464 L 48 464 L 48 456 L 48 456 Q 48 439 57 426 Q 73 398 55 371 Q 48 363 48 352 Q 48 341 54 333 Q 74 304 54 275 Q 48 267 48 256 Q 48 247 53 239 L 53 239 Z M 184 208 L 88 208 L 184 208 L 88 208 L 88 256 L 88 256 L 184 256 L 184 256 L 184 208 L 184 208 Z M 88 336 L 88 384 L 88 336 L 88 384 L 184 384 L 184 384 L 184 336 L 184 336 L 88 336 L 88 336 Z" />
</svg>