<svg xmlns="http://www.w3.org/2000/svg" viewBox="0 0 448 448">
  <path d="M 16 16 L 16 432 L 16 16 L 16 432 L 432 432 L 432 432 L 432 16 L 432 16 L 16 16 L 16 16 Z M 0 0 L 16 0 L 0 0 L 448 0 L 448 16 L 448 16 L 448 432 L 448 432 L 448 448 L 448 448 L 432 448 L 0 448 L 0 432 L 0 432 L 0 16 L 0 16 L 0 0 L 0 0 Z M 80 64 Q 95 65 96 80 Q 95 95 80 96 Q 65 95 64 80 Q 65 65 80 64 L 80 64 Z M 352 80 Q 353 65 368 64 Q 383 65 384 80 Q 383 95 368 96 Q 353 95 352 80 L 352 80 Z M 80 352 Q 95 353 96 368 Q 95 383 80 384 Q 65 383 64 368 Q 65 353 80 352 L 80 352 Z M 352 368 Q 353 353 368 352 Q 383 353 384 368 Q 383 383 368 384 Q 353 383 352 368 L 352 368 Z M 136 160 Q 137 136 152 120 L 152 120 L 152 120 Q 168 105 192 104 L 248 104 L 248 104 Q 275 105 293 123 Q 311 141 312 168 Q 311 202 283 221 L 232 255 L 232 255 L 232 280 L 232 280 L 232 288 L 232 288 L 216 288 L 216 288 L 216 280 L 216 280 L 216 251 L 216 251 L 216 246 L 216 246 L 220 244 L 220 244 L 275 208 L 275 208 Q 295 193 296 168 Q 295 147 282 134 Q 269 120 248 120 L 192 120 L 192 120 Q 175 120 164 132 Q 152 143 152 160 L 152 167 L 152 167 L 136 167 L 136 167 L 136 160 L 136 160 Z M 208 312 L 240 312 L 208 312 L 240 312 L 240 344 L 240 344 L 208 344 L 208 344 L 208 312 L 208 312 Z" />
</svg>