<svg xmlns="http://www.w3.org/2000/svg" viewBox="0 0 499 395">
  <path d="M 153 17 L 158 11 L 153 17 L 158 11 L 147 0 L 147 0 L 141 5 L 141 5 L 59 88 L 59 88 L 16 53 L 16 53 L 10 48 L 10 48 L 0 60 L 0 60 L 6 65 L 6 65 L 54 105 L 54 105 L 59 110 L 59 110 L 65 105 L 65 105 L 153 17 L 153 17 Z M 153 177 L 158 171 L 153 177 L 158 171 L 147 160 L 147 160 L 141 165 L 141 165 L 59 248 L 59 248 L 16 213 L 16 213 L 10 208 L 10 208 L 0 220 L 0 220 L 6 225 L 6 225 L 54 265 L 54 265 L 59 270 L 59 270 L 65 265 L 65 265 L 153 177 L 153 177 Z M 195 51 L 195 67 L 195 51 L 195 67 L 203 67 L 499 67 L 499 51 L 499 51 L 491 51 L 195 51 Z M 195 211 L 195 227 L 195 211 L 195 227 L 203 227 L 499 227 L 499 211 L 499 211 L 491 211 L 195 211 Z M 163 371 L 163 387 L 163 371 L 163 387 L 171 387 L 499 387 L 499 371 L 499 371 L 491 371 L 163 371 Z M 75 379 Q 74 364 59 363 Q 44 364 43 379 Q 44 394 59 395 Q 74 394 75 379 L 75 379 Z" />
</svg>