<svg xmlns="http://www.w3.org/2000/svg" viewBox="0 0 512 512">
  <path d="M 51.2 294.4 L 43.2 321.6 L 15.2 411.2 L 12 422.4 L 0 460.8 L 40 460.8 L 52 460.8 L 306.4 460.8 L 318.4 460.8 L 358.4 460.8 L 346.4 422.4 L 343.2 411.2 L 315.2 321.6 L 307.2 294.4 L 279.2 294.4 L 179.2 294.4 L 80 294.4 L 51.2 294.4 L 51.2 294.4 Z M 266.4 422.4 L 92 422.4 L 52 422.4 L 64 384 L 80 332.8 L 279.2 332.8 L 294.4 384 L 306.4 422.4 L 266.4 422.4 L 266.4 422.4 Z M 281.6 153.6 Q 281.6 125.6 268 102.4 L 268 102.4 Q 254.4 79.2 230.4 64.8 Q 206.4 51.2 179.2 51.2 Q 152 51.2 128 64.8 Q 104 79.2 90.4 102.4 Q 76.8 125.6 76.8 153.6 Q 76.8 181.6 90.4 204.8 Q 104 228 128 242.4 Q 152 256 179.2 256 Q 206.4 256 230.4 242.4 Q 254.4 228 268 204.8 Q 281.6 181.6 281.6 153.6 L 281.6 153.6 Z M 115.2 153.6 Q 116 117.6 147.2 98.4 Q 179.2 80.8 211.2 98.4 Q 242.4 117.6 243.2 153.6 Q 242.4 189.6 211.2 208.8 Q 179.2 226.4 147.2 208.8 Q 116 189.6 115.2 153.6 L 115.2 153.6 Z M 512 460.8 L 460.8 307.2 L 337.6 307.2 L 383.2 453.6 L 385.6 460.8 L 512 460.8 L 512 460.8 Z M 345.6 256 Q 384 255.2 408.8 229.6 L 408.8 229.6 Q 434.4 204.8 435.2 166.4 Q 434.4 128 408.8 103.2 Q 384 77.6 345.6 76.8 Q 315.2 77.6 292.8 94.4 Q 307.2 120.8 307.2 153.6 Q 306.4 196.8 282.4 229.6 Q 307.2 255.2 345.6 256 L 345.6 256 Z" />
</svg>