<svg xmlns="http://www.w3.org/2000/svg" viewBox="0 0 636 384">
  <path d="M 180 8 L 180 0 L 180 8 L 180 0 L 164 0 L 164 0 L 164 8 L 164 8 L 164 61 L 164 61 L 130 26 L 130 26 L 124 21 L 124 21 L 113 32 L 113 32 L 118 38 L 118 38 L 164 83 L 164 83 L 164 178 L 164 178 L 82 131 L 82 131 L 65 68 L 65 68 L 63 61 L 63 61 L 48 65 L 48 65 L 50 73 L 50 73 L 62 119 L 62 119 L 17 93 L 17 93 L 10 89 L 10 89 L 2 103 L 2 103 L 9 107 L 9 107 L 54 133 L 54 133 L 7 146 L 7 146 L 0 148 L 0 148 L 4 163 L 4 163 L 12 161 L 12 161 L 74 145 L 74 145 L 156 192 L 156 192 L 74 239 L 74 239 L 12 223 L 12 223 L 4 221 L 4 221 L 0 236 L 0 236 L 7 238 L 7 238 L 54 251 L 54 251 L 9 277 L 9 277 L 2 281 L 2 281 L 10 295 L 10 295 L 17 291 L 17 291 L 62 265 L 62 265 L 50 312 L 50 312 L 48 319 L 48 319 L 63 323 L 63 323 L 65 316 L 65 316 L 82 253 L 82 253 L 164 206 L 164 206 L 164 301 L 164 301 L 118 346 L 118 346 L 113 352 L 113 352 L 124 363 L 124 363 L 130 358 L 130 358 L 164 323 L 164 323 L 164 376 L 164 376 L 164 384 L 164 384 L 180 384 L 180 384 L 180 376 L 180 376 L 180 323 L 180 323 L 214 358 L 214 358 L 220 363 L 220 363 L 231 352 L 231 352 L 226 346 L 226 346 L 180 301 L 180 301 L 180 206 L 180 206 L 262 253 L 262 253 L 279 316 L 279 316 L 281 323 L 281 323 L 296 319 L 296 319 L 294 312 L 294 312 L 282 265 L 282 265 L 327 291 L 327 291 L 334 295 L 334 295 L 342 281 L 342 281 L 335 277 L 335 277 L 290 251 L 290 251 L 337 238 L 337 238 L 344 236 L 344 236 L 340 221 L 340 221 L 333 223 L 333 223 L 270 239 L 270 239 L 188 192 L 188 192 L 270 145 L 270 145 L 333 161 L 333 161 L 340 163 L 340 163 L 344 148 L 344 148 L 337 146 L 337 146 L 290 133 L 290 133 L 335 107 L 335 107 L 342 103 L 342 103 L 334 89 L 334 89 L 327 93 L 327 93 L 282 119 L 282 119 L 294 72 L 294 72 L 296 65 L 296 65 L 281 61 L 281 61 L 279 68 L 279 68 L 262 131 L 262 131 L 180 178 L 180 178 L 180 83 L 180 83 L 226 38 L 226 38 L 231 32 L 231 32 L 220 21 L 220 21 L 214 26 L 214 26 L 180 61 L 180 61 L 180 8 L 180 8 Z M 476 0 L 476 16 L 476 0 L 476 16 L 484 16 L 556 16 Q 583 17 601 35 Q 619 53 620 80 Q 619 107 601 125 Q 583 143 556 144 L 388 144 L 380 144 L 380 160 L 380 160 L 388 160 L 556 160 Q 590 159 613 137 Q 635 114 636 80 Q 635 46 613 23 Q 590 1 556 0 L 484 0 L 476 0 Z M 476 384 L 484 384 L 476 384 L 556 384 Q 590 383 613 361 Q 635 338 636 304 Q 635 270 613 247 Q 590 225 556 224 L 388 224 L 380 224 L 380 240 L 380 240 L 388 240 L 556 240 Q 583 241 601 259 Q 619 277 620 304 Q 619 331 601 349 Q 583 367 556 368 L 484 368 L 476 368 L 476 384 L 476 384 Z" />
</svg>