<svg xmlns="http://www.w3.org/2000/svg" viewBox="0 0 578 512">
  <path d="M 8 0 L 0 0 L 8 0 L 0 0 L 0 16 L 0 16 L 8 16 L 114 16 L 232 389 L 232 389 Q 214 396 203 412 Q 192 428 192 448 Q 193 475 211 493 Q 229 511 256 512 Q 283 511 301 493 Q 319 475 320 448 Q 320 438 317 430 L 570 352 L 570 352 L 578 349 L 578 349 L 573 334 L 573 334 L 566 336 L 566 336 L 311 415 L 311 415 Q 292 386 256 384 Q 251 384 247 385 L 128 6 L 128 6 Q 126 0 120 0 L 8 0 L 8 0 Z M 256 400 Q 283 401 298 424 Q 310 448 298 472 Q 283 495 256 496 Q 229 495 214 472 Q 202 448 214 424 Q 229 401 256 400 L 256 400 Z M 357 164 L 359 172 L 357 164 L 359 172 L 374 167 L 374 167 L 372 159 L 372 159 L 356 106 L 356 106 L 440 80 L 440 80 L 496 264 L 496 264 L 312 320 L 312 320 L 256 136 L 256 136 L 340 111 L 340 111 L 357 164 L 357 164 Z M 236 126 L 241 141 L 236 126 L 241 141 L 297 325 L 297 325 L 302 340 L 302 340 L 317 335 L 317 335 L 501 279 L 501 279 L 516 274 L 516 274 L 511 259 L 511 259 L 455 76 L 455 76 L 450 60 L 450 60 L 435 65 L 435 65 L 252 121 L 252 121 L 236 126 L 236 126 Z" />
</svg>