<svg xmlns="http://www.w3.org/2000/svg" viewBox="0 0 512 448">
  <path d="M 0 0 L 8 0 L 0 0 L 160 0 L 160 8 L 160 8 L 160 169 L 160 169 L 324 73 L 324 73 L 336 66 L 336 66 L 336 80 L 336 80 L 336 165 L 336 165 L 500 73 L 500 73 L 512 66 L 512 66 L 512 80 L 512 80 L 512 224 L 512 224 L 512 288 L 512 288 L 512 440 L 512 440 L 512 448 L 512 448 L 504 448 L 0 448 L 0 440 L 0 440 L 0 352 L 0 352 L 0 224 L 0 224 L 0 8 L 0 8 L 0 0 L 0 0 Z M 16 16 L 16 224 L 16 16 L 16 224 L 16 352 L 16 352 L 16 432 L 16 432 L 496 432 L 496 432 L 496 288 L 496 288 L 496 224 L 496 224 L 496 94 L 496 94 L 332 186 L 332 186 L 320 192 L 320 192 L 320 179 L 320 179 L 320 94 L 320 94 L 156 190 L 156 190 L 144 197 L 144 197 L 144 183 L 144 183 L 144 16 L 144 16 L 16 16 L 16 16 Z" />
</svg>