<svg xmlns="http://www.w3.org/2000/svg" viewBox="0 0 384 512">
  <path d="M 368 119 L 368 496 L 368 119 L 368 496 L 16 496 L 16 496 L 16 16 L 16 16 L 265 16 L 265 16 L 368 119 L 368 119 Z M 384 112 L 272 0 L 384 112 L 272 0 L 16 0 L 0 0 L 0 16 L 0 16 L 0 496 L 0 496 L 0 512 L 0 512 L 16 512 L 384 512 L 384 496 L 384 496 L 384 112 L 384 112 Z M 96 240 L 96 256 L 96 240 L 96 256 L 181 341 L 181 341 L 192 352 L 192 352 L 203 341 L 203 341 L 288 256 L 288 256 L 288 240 L 288 240 L 288 224 L 288 224 L 272 224 L 96 224 L 96 240 L 96 240 Z M 112 249 L 112 240 L 112 249 L 112 240 L 272 240 L 272 240 L 272 249 L 272 249 L 192 329 L 192 329 L 112 249 L 112 249 Z" />
</svg>