<svg xmlns="http://www.w3.org/2000/svg" viewBox="0 0 448 448">
  <path d="M 176 16 L 176 176 L 176 16 L 176 176 L 16 176 L 16 176 L 16 16 L 16 16 L 176 16 L 176 16 Z M 16 0 L 0 0 L 16 0 L 0 0 L 0 16 L 0 16 L 0 176 L 0 176 L 0 192 L 0 192 L 16 192 L 88 192 L 88 352 L 88 352 L 88 360 L 88 360 L 96 360 L 256 360 L 256 432 L 256 432 L 256 448 L 256 448 L 272 448 L 448 448 L 448 432 L 448 432 L 448 272 L 448 272 L 448 256 L 448 256 L 432 256 L 256 256 L 256 272 L 256 272 L 256 344 L 256 344 L 104 344 L 104 344 L 104 192 L 104 192 L 176 192 L 192 192 L 192 176 L 192 176 L 192 16 L 192 16 L 192 0 L 192 0 L 176 0 L 16 0 Z M 432 272 L 432 432 L 432 272 L 432 432 L 272 432 L 272 432 L 272 272 L 272 272 L 432 272 L 432 272 Z" />
</svg>