<svg xmlns="http://www.w3.org/2000/svg" viewBox="0 0 448 448">
  <path d="M 16 16 L 16 432 L 16 16 L 16 432 L 432 432 L 432 432 L 432 16 L 432 16 L 16 16 L 16 16 Z M 0 0 L 16 0 L 0 0 L 448 0 L 448 16 L 448 16 L 448 432 L 448 432 L 448 448 L 448 448 L 432 448 L 0 448 L 0 432 L 0 432 L 0 16 L 0 16 L 0 0 L 0 0 Z M 112 96 L 124 96 L 112 96 L 124 96 L 126 99 L 126 99 L 320 323 L 320 323 L 320 104 L 320 104 L 320 96 L 320 96 L 336 96 L 336 96 L 336 104 L 336 104 L 336 344 L 336 344 L 336 352 L 336 352 L 324 352 L 324 352 L 322 349 L 322 349 L 128 125 L 128 125 L 128 344 L 128 344 L 128 352 L 128 352 L 112 352 L 112 352 L 112 344 L 112 344 L 112 104 L 112 104 L 112 96 L 112 96 Z" />
</svg>