<svg xmlns="http://www.w3.org/2000/svg" viewBox="0 0 640 512">
  <path d="M 396 397 Q 361 416 320 416 Q 252 414 207 369 Q 162 324 160 256 Q 160 235 165 215 L 138 194 L 138 194 Q 131 216 129 240 L 80 240 L 64 240 L 64 272 L 64 272 L 80 272 L 129 272 Q 136 343 184 392 Q 233 440 304 447 L 304 496 L 304 496 L 304 512 L 304 512 L 336 512 L 336 512 L 336 496 L 336 496 L 336 447 L 336 447 Q 384 443 422 418 L 395 397 L 396 397 Z M 304 65 Q 256 69 218 94 L 245 115 L 245 115 Q 279 96 320 96 Q 388 98 433 143 Q 478 188 480 256 Q 480 277 475 297 L 502 318 L 502 318 Q 509 296 511 272 L 560 272 L 576 272 L 576 240 L 576 240 L 560 240 L 511 240 Q 504 169 456 120 Q 407 72 336 65 L 336 16 L 336 16 L 336 0 L 336 0 L 304 0 L 304 0 L 304 16 L 304 16 L 304 65 L 304 65 Z M 320 352 Q 328 352 337 351 L 281 307 L 281 307 Q 281 306 280 306 Q 280 306 280 306 L 224 262 L 224 262 Q 227 301 254 326 Q 281 351 320 352 L 320 352 Z M 304 161 L 359 205 L 304 161 L 359 205 Q 359 206 360 206 Q 360 206 360 206 L 416 250 L 416 250 Q 413 211 386 186 Q 359 161 320 160 Q 312 160 304 161 L 304 161 Z M 33 10 L 20 0 L 33 10 L 20 0 L 0 25 L 0 25 L 13 35 L 13 35 L 608 502 L 608 502 L 620 512 L 620 512 L 640 487 L 640 487 L 628 477 L 628 477 L 33 10 L 33 10 Z" />
</svg>