<svg xmlns="http://www.w3.org/2000/svg" viewBox="0 0 512 512">
  <path d="M 483 141 Q 469 167 451 190 Q 433 214 419 229 Q 417 231 416 233 Q 415 231 413 229 Q 399 214 381 190 Q 363 167 349 141 Q 336 115 336 96 Q 337 62 359 39 Q 382 17 416 16 Q 450 17 473 39 Q 495 62 496 96 Q 496 115 483 141 L 483 141 Z M 427 244 Q 440 230 460 205 L 460 205 L 460 205 Q 480 180 496 151 L 496 151 L 496 151 Q 511 122 512 96 Q 511 55 484 28 Q 457 1 416 0 Q 375 1 348 28 Q 321 55 320 96 Q 323 134 350 175 Q 378 216 401 240 L 264 240 L 256 240 L 256 248 L 256 248 L 256 376 L 256 376 L 256 384 L 256 384 L 264 384 L 496 384 L 496 496 L 496 496 L 160 496 L 160 496 Q 153 497 152 504 Q 153 511 160 512 L 504 512 L 512 512 L 512 504 L 512 504 L 512 376 L 512 376 L 512 368 L 512 368 L 504 368 L 272 368 L 272 256 L 272 256 L 416 256 L 416 256 Q 416 256 427 244 L 427 244 Z M 163 397 Q 149 422 131 446 Q 113 470 99 485 Q 97 487 96 489 Q 95 487 93 485 Q 79 470 61 446 Q 43 423 29 397 Q 16 371 16 352 Q 17 318 39 295 Q 62 273 96 272 Q 130 273 153 295 Q 175 318 176 352 Q 176 371 163 397 L 163 397 Z M 107 500 Q 120 486 140 461 L 140 461 L 140 461 Q 160 436 176 407 L 176 407 L 176 407 Q 191 378 192 352 Q 191 311 164 284 Q 137 257 96 256 Q 55 257 28 284 Q 1 311 0 352 Q 1 378 16 407 Q 32 436 52 461 Q 72 486 85 500 Q 96 512 96 512 Q 96 512 107 500 L 107 500 Z M 416 80 Q 431 81 432 96 Q 431 111 416 112 Q 401 111 400 96 Q 401 81 416 80 L 416 80 Z M 416 128 Q 430 128 439 119 L 439 119 L 439 119 Q 448 110 448 96 Q 448 82 439 73 Q 430 64 416 64 Q 402 64 393 73 Q 384 82 384 96 Q 384 110 393 119 Q 402 128 416 128 L 416 128 Z M 80 352 Q 81 337 96 336 Q 111 337 112 352 Q 111 367 96 368 Q 81 367 80 352 L 80 352 Z M 128 352 Q 128 338 119 329 L 119 329 L 119 329 Q 110 320 96 320 Q 82 320 73 329 Q 64 338 64 352 Q 64 366 73 375 Q 82 384 96 384 Q 110 384 119 375 Q 128 366 128 352 L 128 352 Z" />
</svg>