<svg xmlns="http://www.w3.org/2000/svg" viewBox="0 0 320 520">
  <path d="M 184 376 L 168 376 L 184 376 L 104 376 L 104 296 L 104 296 L 104 279 L 104 279 L 104 213 L 104 213 L 74 272 L 74 272 L 57 303 L 57 303 L 50 318 L 50 318 L 22 303 L 22 303 L 29 289 L 29 289 L 95 161 L 95 161 L 99 152 L 99 152 L 104 152 L 211 152 L 227 237 L 227 237 L 229 247 L 229 247 L 239 250 L 239 250 Q 268 255 285 277 Q 303 298 304 328 L 304 376 L 304 376 L 272 376 L 184 376 Z M 240 392 L 248 392 L 240 392 L 320 392 L 320 376 L 320 376 L 320 328 L 320 328 Q 319 292 298 267 Q 276 241 242 234 L 224 136 L 224 136 L 192 136 L 160 136 Q 160 136 160 136 Q 160 136 160 136 L 109 136 L 89 136 L 81 153 L 81 153 L 15 281 L 15 281 L 8 296 L 8 296 L 0 310 L 0 310 L 14 317 L 14 317 L 43 332 L 43 332 L 57 339 L 57 339 L 64 325 L 64 325 L 72 311 L 72 311 L 72 310 L 72 310 L 79 296 L 79 296 L 88 279 L 88 279 L 88 296 L 88 296 L 88 314 L 88 314 L 88 488 L 88 488 L 88 504 L 88 504 L 88 520 L 88 520 L 104 520 L 152 520 L 152 504 L 152 504 L 152 488 L 152 488 L 152 408 L 152 408 L 152 392 L 152 392 L 160 392 L 168 392 L 168 408 L 168 408 L 168 488 L 168 488 L 168 504 L 168 504 L 168 520 L 168 520 L 184 520 L 232 520 L 232 504 L 232 504 L 232 488 L 232 488 L 232 408 L 232 408 L 232 392 L 232 392 L 240 392 L 240 392 Z M 216 392 L 216 488 L 216 392 L 216 488 L 216 504 L 216 504 L 184 504 L 184 504 L 184 488 L 184 488 L 184 392 L 184 392 L 216 392 L 216 392 Z M 136 392 L 136 488 L 136 392 L 136 488 L 136 504 L 136 504 L 104 504 L 104 504 L 104 488 L 104 488 L 104 392 L 104 392 L 136 392 L 136 392 Z M 216 64 Q 215 32 188 16 Q 160 0 132 16 Q 105 32 104 64 Q 105 96 132 112 Q 160 128 188 112 Q 215 96 216 64 L 216 64 Z M 120 64 Q 121 41 140 29 Q 160 19 180 29 Q 199 41 200 64 Q 199 87 180 99 Q 160 109 140 99 Q 121 87 120 64 L 120 64 Z" />
</svg>