<svg xmlns="http://www.w3.org/2000/svg" viewBox="0 0 384 512">
  <path d="M 261 258 L 255 249 L 261 258 L 255 249 L 243 231 L 243 231 L 238 252 L 238 252 L 224 307 L 224 307 L 279 361 L 279 361 L 288 371 L 288 371 L 288 384 L 288 384 L 288 480 L 288 480 L 288 496 L 288 496 L 288 512 L 288 512 L 272 512 L 224 512 L 224 496 L 224 496 L 224 480 L 224 480 L 224 397 L 224 397 L 154 328 L 154 328 L 153 327 L 153 327 L 153 327 L 153 327 L 150 323 L 150 323 Q 126 298 133 263 L 161 149 L 161 149 L 165 133 L 165 133 L 169 117 L 169 117 L 184 121 L 184 121 L 200 125 L 200 125 L 248 137 L 248 137 L 260 140 L 260 140 L 267 150 L 267 150 L 305 208 L 305 208 L 352 208 L 368 208 L 368 168 L 368 168 L 368 160 L 368 160 L 384 160 L 384 160 L 384 168 L 384 168 L 384 208 L 384 208 Q 384 208 384 208 Q 384 208 384 208 L 384 224 L 384 224 L 384 256 L 384 256 L 384 272 L 384 272 Q 384 272 384 272 Q 384 272 384 272 L 384 504 L 384 504 L 384 512 L 384 512 L 368 512 L 368 512 L 368 504 L 368 504 L 368 272 L 368 272 L 352 272 L 271 272 L 261 258 L 261 258 Z M 368 256 L 368 224 L 368 256 L 368 224 L 352 224 L 297 224 L 292 217 L 292 217 L 253 159 L 253 159 L 250 154 L 250 154 L 244 152 L 244 152 L 196 140 L 196 140 L 180 137 L 180 137 L 176 152 L 176 152 L 149 267 L 149 267 Q 143 293 161 312 L 163 313 L 163 313 L 165 315 L 165 315 L 166 316 L 166 316 L 171 322 L 171 322 L 235 386 L 235 386 L 240 391 L 240 391 L 240 397 L 240 397 L 240 480 L 240 480 L 240 496 L 240 496 L 272 496 L 272 496 L 272 480 L 272 480 L 272 384 L 272 384 L 272 377 L 272 377 L 267 373 L 267 373 L 213 318 L 213 318 L 207 312 L 207 312 L 209 303 L 209 303 L 228 227 L 228 227 L 237 192 L 237 192 L 257 222 L 257 222 L 275 249 L 275 249 L 280 256 L 280 256 L 288 256 L 368 256 Z M 272 48 Q 272 34 263 25 L 263 25 L 263 25 Q 254 16 240 16 Q 226 16 217 25 Q 208 34 208 48 Q 208 62 217 71 Q 226 80 240 80 Q 254 80 263 71 Q 272 62 272 48 L 272 48 Z M 240 0 Q 267 1 282 24 Q 294 48 282 72 Q 267 95 240 96 Q 213 95 198 72 Q 186 48 198 24 Q 213 1 240 0 L 240 0 Z M 117 334 Q 122 340 127 346 L 130 349 L 130 349 L 91 496 L 91 496 L 124 496 L 124 496 L 156 375 L 156 375 L 169 388 L 169 388 L 137 512 L 137 512 L 87 512 L 71 512 L 75 496 L 75 496 L 117 334 L 117 334 Z M 128 96 L 144 96 L 128 96 L 144 96 L 140 112 L 140 112 L 96 288 L 96 288 L 16 275 L 16 275 L 0 272 L 0 272 L 4 257 L 4 257 L 48 96 L 48 96 L 128 96 L 128 96 Z M 84 270 L 124 112 L 84 270 L 124 112 L 60 112 L 60 112 L 20 259 L 20 259 L 84 270 L 84 270 Z" />
</svg>