<svg xmlns="http://www.w3.org/2000/svg" viewBox="0 0 448 512">
  <path d="M 400 80 L 400 48 L 400 80 L 400 48 L 224 0 L 224 0 L 48 48 L 48 48 L 48 80 L 48 80 L 80 99 L 80 99 L 80 144 L 80 144 Q 92 153 129 164 Q 166 175 224 176 Q 282 175 319 164 Q 356 153 368 144 L 368 99 L 368 99 L 400 80 L 400 80 Z M 352 99 L 352 135 L 352 99 L 352 135 Q 340 141 315 149 Q 289 156 253 159 Q 268 143 274 125 Q 280 106 280 91 L 280 86 L 280 86 L 275 84 L 275 84 L 227 65 L 227 65 L 224 63 L 224 63 L 221 65 L 221 65 L 173 84 L 173 84 L 168 86 L 168 86 L 168 91 L 168 91 Q 168 106 174 125 Q 180 143 195 159 Q 159 156 133 149 Q 108 141 96 135 L 96 99 L 96 99 L 96 90 L 96 90 L 88 85 L 88 85 L 64 71 L 64 71 L 64 60 L 64 60 L 224 17 L 224 17 L 384 60 L 384 60 L 384 71 L 384 71 L 360 86 L 360 86 L 352 90 L 352 90 L 352 99 L 352 99 Z M 96 183 Q 96 188 96 192 Q 97 246 133 283 Q 170 319 224 320 Q 278 319 315 283 Q 351 246 352 192 Q 352 188 352 183 Q 344 187 336 190 Q 336 191 336 191 Q 336 191 336 192 Q 335 240 303 271 Q 272 303 224 304 Q 176 303 145 271 Q 113 240 112 192 Q 112 191 112 191 Q 112 191 112 190 Q 103 187 96 183 L 96 183 Z M 184 97 L 224 81 L 184 97 L 224 81 L 264 97 L 264 97 Q 263 113 254 131 Q 245 148 224 159 Q 203 148 194 131 Q 185 113 184 97 L 184 97 Z M 213 428 L 216 430 L 213 428 L 216 430 L 216 496 L 216 496 L 22 496 L 22 496 L 60 368 L 60 368 L 148 368 L 148 368 L 213 428 L 213 428 Z M 232 496 L 232 430 L 232 496 L 232 430 L 235 428 L 235 428 L 300 368 L 300 368 L 388 368 L 388 368 L 427 496 L 427 496 L 232 496 L 232 496 Z M 293 352 L 224 416 L 293 352 L 224 416 L 155 352 L 155 352 L 48 352 L 48 352 L 5 496 L 5 496 L 0 512 L 0 512 L 17 512 L 448 512 L 443 496 L 443 496 L 400 352 L 400 352 L 293 352 L 293 352 Z M 360 424 L 360 416 L 360 424 L 360 416 L 344 416 L 344 416 L 344 424 L 344 424 L 344 440 L 344 440 L 328 440 L 320 440 L 320 456 L 320 456 L 328 456 L 344 456 L 344 472 L 344 472 L 344 480 L 344 480 L 360 480 L 360 480 L 360 472 L 360 472 L 360 456 L 360 456 L 376 456 L 384 456 L 384 440 L 384 440 L 376 440 L 360 440 L 360 424 L 360 424 Z" />
</svg>