<svg xmlns="http://www.w3.org/2000/svg" viewBox="0 0 438 406">
  <path d="M 321 17 L 326 11 L 321 17 L 326 11 L 315 0 L 315 0 L 309 5 L 309 5 L 155 160 L 155 160 L 81 85 L 81 85 L 75 80 L 75 80 L 64 91 L 64 91 L 69 97 L 69 97 L 149 177 L 149 177 L 155 182 L 155 182 L 161 177 L 161 177 L 321 17 L 321 17 Z M 433 129 L 438 123 L 433 129 L 438 123 L 427 112 L 427 112 L 421 117 L 421 117 L 155 384 L 155 384 L 17 245 L 17 245 L 11 240 L 11 240 L 0 251 L 0 251 L 5 257 L 5 257 L 149 401 L 149 401 L 155 406 L 155 406 L 161 401 L 161 401 L 433 129 L 433 129 Z" />
</svg>