<svg xmlns="http://www.w3.org/2000/svg" viewBox="0 0 319 448">
  <path d="M 49 0 L 55 0 L 49 0 L 287 0 L 287 16 L 287 16 L 279 16 L 61 16 L 20 192 L 20 192 L 191 192 L 191 192 Q 245 193 282 229 Q 318 266 319 320 Q 318 374 282 411 Q 245 447 191 448 L 100 448 L 100 448 Q 69 448 44 432 Q 19 416 6 389 L 1 379 L 1 379 L 16 373 L 16 373 L 20 382 L 20 382 Q 32 405 53 418 Q 74 432 100 432 L 191 432 L 191 432 Q 239 431 270 399 Q 302 368 303 320 Q 302 272 270 241 Q 239 209 191 208 L 10 208 L 0 208 L 2 198 L 2 198 L 47 6 L 47 6 L 49 0 L 49 0 Z" />
</svg>