<svg xmlns="http://www.w3.org/2000/svg" viewBox="0 0 512 512">
  <path d="M 309 156 L 304 160 L 309 156 L 304 160 L 304 168 L 304 168 L 304 256 L 304 256 L 304 272 L 304 272 L 320 272 L 416 272 Q 450 273 473 295 Q 495 318 496 352 L 496 400 L 496 400 L 16 400 L 16 400 L 16 352 L 16 352 Q 17 318 39 295 Q 62 273 96 272 L 192 272 L 208 272 L 208 256 L 208 256 L 208 168 L 208 168 L 208 160 L 208 160 L 203 156 L 203 156 Q 177 133 176 96 Q 177 62 199 39 Q 222 17 256 16 Q 290 17 313 39 Q 335 62 336 96 Q 335 133 309 156 L 309 156 Z M 512 416 L 512 400 L 512 416 L 512 400 L 512 352 L 512 352 Q 511 311 484 284 Q 457 257 416 256 L 336 256 L 320 256 L 320 240 L 320 240 L 320 168 L 320 168 Q 351 140 352 96 Q 351 55 324 28 Q 297 1 256 0 Q 215 1 188 28 Q 161 55 160 96 Q 161 140 192 168 L 192 240 L 192 240 L 192 256 L 192 256 L 176 256 L 96 256 Q 55 257 28 284 Q 1 311 0 352 L 0 400 L 0 400 L 0 416 L 0 416 L 16 416 L 512 416 Z M 48 456 L 48 448 L 48 456 L 48 448 L 32 448 L 32 448 L 32 456 L 32 456 L 32 504 L 32 504 L 32 512 L 32 512 L 40 512 L 480 512 L 480 504 L 480 504 L 480 456 L 480 456 L 480 448 L 480 448 L 464 448 L 464 448 L 464 456 L 464 456 L 464 496 L 464 496 L 48 496 L 48 496 L 48 456 L 48 456 Z" />
</svg>