<svg xmlns="http://www.w3.org/2000/svg" viewBox="0 0 448 400">
  <path d="M 0 0 L 0 16 L 0 0 L 0 16 L 8 16 L 448 16 L 448 0 L 448 0 L 440 0 L 0 0 Z M 192 128 L 192 144 L 192 128 L 192 144 L 200 144 L 448 144 L 448 128 L 448 128 L 440 128 L 192 128 Z M 200 256 L 192 256 L 200 256 L 192 256 L 192 272 L 192 272 L 200 272 L 448 272 L 448 256 L 448 256 L 440 256 L 200 256 Z M 0 384 L 0 400 L 0 384 L 0 400 L 8 400 L 448 400 L 448 384 L 448 384 L 440 384 L 0 384 Z M 13 190 L 0 200 L 13 190 L 0 200 L 13 210 L 13 210 L 112 284 L 112 284 L 128 296 L 128 296 L 128 276 L 128 276 L 128 124 L 128 124 L 128 104 L 128 104 L 112 116 L 112 116 L 13 190 L 13 190 Z M 112 136 L 112 264 L 112 136 L 112 264 L 27 200 L 27 200 L 112 136 L 112 136 Z" />
</svg>