<svg xmlns="http://www.w3.org/2000/svg" viewBox="0 0 640 425">
  <path d="M 144 148 Q 170 136 236 112 L 236 112 L 236 112 Q 301 88 375 63 L 375 63 L 375 63 Q 450 37 503 19 L 503 19 L 503 19 Q 557 1 559 0 L 640 162 L 640 162 Q 639 163 607 185 Q 575 207 527 240 Q 519 226 508 214 Q 522 204 535 196 Q 556 181 573 169 Q 581 164 587 160 Q 593 156 599 152 L 543 39 L 543 39 Q 536 42 529 44 Q 522 47 513 49 Q 460 67 386 93 Q 311 119 247 142 Q 183 165 158 177 Q 116 199 102 242 Q 88 284 108 327 Q 130 369 172 383 Q 215 397 258 377 Q 263 375 270 371 Q 277 385 287 398 Q 278 403 272 406 Q 232 425 190 420 Q 148 414 115 387 L 86 402 L 86 402 L 57 416 L 57 416 L 43 387 L 43 387 L 14 330 L 14 330 L 0 301 L 0 301 L 29 287 L 29 287 L 64 269 L 64 269 Q 66 231 87 199 Q 107 167 144 148 L 144 148 Z M 67 304 L 43 316 L 67 304 L 43 316 L 72 373 L 72 373 L 92 363 L 92 363 Q 85 353 79 341 Q 70 323 67 304 L 67 304 Z M 480 309 Q 479 264 440 240 Q 400 218 360 240 Q 321 264 320 309 Q 321 354 360 378 Q 400 400 440 378 Q 479 354 480 309 L 480 309 Z M 288 309 Q 288 279 303 253 L 303 253 L 303 253 Q 318 227 344 212 Q 370 197 400 197 Q 430 197 456 212 Q 482 227 497 253 Q 512 279 512 309 Q 512 339 497 365 Q 482 391 456 406 Q 430 421 400 421 Q 370 421 344 406 Q 318 391 303 365 Q 288 339 288 309 L 288 309 Z M 400 285 Q 422 287 424 309 Q 422 331 400 333 Q 378 331 376 309 Q 378 287 400 285 L 400 285 Z" />
</svg>