<svg xmlns="http://www.w3.org/2000/svg" viewBox="0 0 576 512">
  <path d="M 16 16 L 16 208 L 16 16 L 16 208 L 560 208 L 560 208 L 560 16 L 560 16 L 16 16 L 16 16 Z M 0 0 L 16 0 L 0 0 L 576 0 L 576 16 L 576 16 L 576 208 L 576 208 L 576 224 L 576 224 L 560 224 L 0 224 L 0 208 L 0 208 L 0 16 L 0 16 L 0 0 L 0 0 Z M 256 424 Q 255 461 230 486 L 230 486 L 230 486 Q 205 511 168 512 Q 131 511 106 486 Q 81 461 80 424 Q 82 379 115 354 L 125 366 L 125 366 Q 97 387 96 424 Q 97 455 117 475 Q 137 495 168 496 Q 199 495 219 475 Q 239 455 240 424 L 240 256 L 240 256 L 256 256 L 256 256 L 256 424 L 256 424 Z M 320 256 L 336 256 L 320 256 L 336 256 L 336 392 L 336 392 Q 337 423 357 443 Q 377 463 408 464 Q 439 463 459 443 Q 479 423 480 392 Q 479 355 451 335 L 461 322 L 461 322 Q 494 347 496 392 Q 495 429 470 454 Q 445 479 408 480 Q 371 479 346 454 Q 321 429 320 392 L 320 256 L 320 256 Z M 104 128 L 472 128 L 104 128 L 480 128 L 480 144 L 480 144 L 472 144 L 96 144 L 96 128 L 96 128 L 104 128 L 104 128 Z" />
</svg>