<svg xmlns="http://www.w3.org/2000/svg" viewBox="0 0 640 496">
  <path d="M 40 10 L 28 0 L 40 10 L 28 0 L 8 25 L 8 25 L 21 35 L 21 35 L 600 486 L 600 486 L 612 496 L 612 496 L 632 471 L 632 471 L 620 461 L 620 461 L 40 10 L 40 10 Z M 379 376 L 336 376 L 379 376 L 320 376 L 320 408 L 320 408 L 336 408 L 419 408 L 379 376 L 379 376 Z M 464 280 L 504 312 L 464 280 L 504 312 L 560 312 L 576 312 L 576 280 L 576 280 L 560 280 L 464 280 Z M 626 408 L 640 408 L 626 408 L 640 408 L 640 376 L 640 376 L 624 376 L 585 376 L 626 408 L 626 408 Z M 478 175 L 494 143 L 478 175 L 494 143 L 460 153 L 460 153 L 343 184 L 343 184 L 374 209 L 374 209 L 434 193 L 434 193 L 411 238 L 411 238 L 437 259 L 437 259 L 478 175 L 478 175 Z M 320 123 L 320 120 L 320 123 L 320 120 Q 319 79 292 52 Q 265 25 224 24 Q 190 25 165 44 L 191 65 L 191 65 Q 206 56 224 56 Q 251 57 269 75 Q 287 93 288 120 L 288 123 L 288 123 Q 288 132 288 141 L 318 165 L 318 165 Q 320 144 320 123 L 320 123 Z M 108 249 L 96 252 L 108 249 L 96 252 L 96 264 L 96 264 L 96 456 L 96 456 L 96 472 L 96 472 L 112 472 L 201 472 L 206 464 L 206 464 L 248 390 L 248 390 Q 271 348 287 303 L 260 282 L 260 282 Q 244 330 220 374 L 183 440 L 183 440 L 128 440 L 128 440 L 128 276 L 128 276 L 221 251 L 221 251 L 189 226 L 189 226 L 108 249 L 108 249 Z M 128 178 L 128 184 L 128 178 L 128 184 L 136 184 L 136 184 L 128 178 L 128 178 Z M 16 376 L 0 376 L 16 376 L 0 376 L 0 408 L 0 408 L 16 408 L 64 408 L 64 376 L 64 376 L 48 376 L 16 376 Z" />
</svg>