<svg xmlns="http://www.w3.org/2000/svg" viewBox="0 0 192 320">
  <path d="M 80 320 Q 128 319 159 287 L 159 287 L 159 287 Q 191 256 192 208 L 192 192 L 192 192 L 192 176 L 192 176 L 192 104 L 192 104 L 192 16 L 192 16 L 192 0 L 192 0 L 176 0 L 0 0 L 0 16 L 0 16 L 0 176 L 0 176 L 0 192 L 0 192 L 16 192 L 176 192 L 176 208 L 176 208 Q 175 249 148 276 Q 121 303 80 304 L 72 304 L 64 304 L 64 320 L 64 320 L 72 320 L 80 320 Z M 176 176 L 16 176 L 176 176 L 16 176 L 16 16 L 16 16 L 176 16 L 176 16 L 176 104 L 176 104 L 176 176 L 176 176 Z" />
</svg>