<svg xmlns="http://www.w3.org/2000/svg" viewBox="0 0 512 448">
  <path d="M 384 227 L 384 193 L 384 227 L 384 193 Q 385 172 397 159 Q 415 136 416 104 Q 415 67 390 42 Q 365 17 328 16 Q 291 17 266 42 Q 241 67 240 104 Q 241 144 269 169 Q 279 178 285 191 L 291 208 L 291 208 L 274 213 L 274 213 L 92 263 L 92 263 L 87 265 L 87 265 L 82 263 L 82 263 L 29 240 L 29 240 L 16 240 L 16 240 L 16 256 L 16 256 Q 18 331 68 380 Q 117 430 192 432 L 312 432 L 312 432 Q 360 431 391 399 Q 423 368 424 320 Q 423 271 389 239 L 384 234 L 384 234 L 384 227 L 384 227 Z M 88 248 L 254 202 L 88 248 L 254 202 L 270 197 L 270 197 Q 266 189 260 183 Q 259 182 258 181 Q 225 151 224 104 Q 225 60 255 30 Q 284 1 328 0 Q 370 1 399 28 Q 428 54 432 95 Q 451 99 471 97 L 503 93 L 503 93 L 512 92 L 512 92 L 512 101 L 512 101 L 512 112 L 512 112 Q 511 149 486 174 Q 461 199 424 200 L 400 200 L 400 200 L 400 227 L 400 227 Q 439 264 440 320 Q 439 374 403 411 Q 366 447 312 448 L 192 448 L 192 448 Q 110 446 56 392 Q 2 338 0 256 L 0 240 L 0 240 L 0 224 L 0 224 L 16 224 L 32 224 L 88 248 L 88 248 Z M 401 184 L 424 184 L 401 184 L 424 184 Q 455 183 475 163 Q 495 143 496 112 L 496 110 L 496 110 L 473 113 L 473 113 Q 452 115 432 112 Q 429 145 409 169 Q 404 176 401 184 L 401 184 Z M 320 112 Q 321 97 336 96 Q 351 97 352 112 Q 351 127 336 128 Q 321 127 320 112 L 320 112 Z M 317 279 Q 313 312 290 337 L 290 337 L 290 337 Q 268 362 233 371 Q 204 378 177 371 Q 150 365 130 347 L 124 342 L 124 342 L 135 330 L 135 330 L 141 335 L 141 335 Q 177 366 229 356 Q 259 348 278 326 Q 297 305 301 277 L 303 269 L 303 269 L 318 271 L 318 271 L 317 279 L 317 279 Z" />
</svg>