<svg xmlns="http://www.w3.org/2000/svg" viewBox="0 0 512 512">
  <path d="M 176 496 L 496 496 L 176 496 L 496 496 L 496 176 L 496 176 L 384 176 L 384 176 L 384 160 L 384 160 L 496 160 L 512 160 L 512 176 L 512 176 L 512 496 L 512 496 L 512 512 L 512 512 L 496 512 L 160 512 L 160 496 L 160 496 L 160 384 L 160 384 L 176 384 L 176 384 L 176 496 L 176 496 Z M 336 352 L 16 352 L 336 352 L 0 352 L 0 336 L 0 336 L 0 16 L 0 16 L 0 0 L 0 0 L 16 0 L 352 0 L 352 16 L 352 16 L 352 336 L 352 336 L 352 352 L 352 352 L 336 352 L 336 352 Z M 288 288 L 272 288 L 288 288 L 64 288 L 64 272 L 64 272 L 64 80 L 64 80 L 64 64 L 64 64 L 80 64 L 288 64 L 288 80 L 288 80 L 288 272 L 288 272 L 288 288 L 288 288 Z M 16 336 L 336 336 L 16 336 L 336 336 L 336 16 L 336 16 L 16 16 L 16 16 L 16 336 L 16 336 Z M 272 272 L 272 80 L 272 272 L 272 80 L 80 80 L 80 80 L 80 272 L 80 272 L 272 272 L 272 272 Z" />
</svg>