<svg xmlns="http://www.w3.org/2000/svg" viewBox="0 0 448 448">
  <path d="M 16 16 L 16 432 L 16 16 L 16 432 L 432 432 L 432 432 L 432 16 L 432 16 L 16 16 L 16 16 Z M 0 0 L 16 0 L 0 0 L 448 0 L 448 16 L 448 16 L 448 432 L 448 432 L 448 448 L 448 448 L 432 448 L 0 448 L 0 432 L 0 432 L 0 16 L 0 16 L 0 0 L 0 0 Z M 136 128 L 280 128 L 136 128 L 288 128 L 288 144 L 288 144 L 280 144 L 155 144 L 318 306 L 318 306 L 323 312 L 323 312 L 312 323 L 312 323 L 306 318 L 306 318 L 144 155 L 144 155 L 144 280 L 144 280 L 144 288 L 144 288 L 128 288 L 128 288 L 128 280 L 128 280 L 128 136 L 128 136 L 128 128 L 128 128 L 136 128 L 136 128 Z" />
</svg>