<svg xmlns="http://www.w3.org/2000/svg" viewBox="0 0 637 511">
  <path d="M 205 16 Q 220 16 230 27 L 230 27 L 230 27 Q 241 37 241 52 Q 241 67 230 77 Q 220 88 205 88 Q 190 88 180 77 Q 169 67 169 52 Q 169 37 180 27 Q 190 16 205 16 L 205 16 Z M 205 104 Q 234 103 250 78 Q 264 52 250 26 Q 234 1 205 0 Q 176 1 160 26 Q 146 52 160 78 Q 176 103 205 104 L 205 104 Z M 224 270 L 229 280 L 224 270 L 229 280 L 239 285 L 239 285 L 272 301 L 272 301 L 287 309 L 287 309 L 294 294 L 294 294 L 308 266 L 308 266 L 315 251 L 315 251 L 301 244 L 301 244 L 277 232 L 277 232 L 242 162 L 242 162 L 235 148 L 235 148 L 219 144 L 219 144 L 139 128 L 139 128 L 129 126 L 129 126 L 120 131 L 120 131 L 48 163 L 48 163 L 35 168 L 35 168 L 31 182 L 31 182 L 15 230 L 15 230 L 10 245 L 10 245 L 5 260 L 5 260 L 20 265 L 20 265 L 50 275 L 50 275 L 65 281 L 65 281 L 70 265 L 70 265 L 75 250 L 75 250 L 87 216 L 87 216 L 105 208 L 105 208 L 124 199 L 124 199 L 118 219 L 118 219 L 107 263 L 107 263 Q 99 297 121 323 L 192 400 L 192 400 L 214 481 L 214 481 L 218 496 L 218 496 L 223 511 L 223 511 L 238 507 L 238 507 L 269 499 L 269 499 L 284 495 L 284 495 L 280 479 L 280 479 L 276 464 L 276 464 L 252 376 L 252 376 L 250 368 L 250 368 L 245 362 L 245 362 L 192 305 L 192 305 L 204 266 L 204 266 L 211 243 L 211 243 L 221 264 L 221 264 L 224 270 L 224 270 Z M 233 373 L 235 376 L 233 373 L 235 376 L 236 380 L 236 380 L 260 468 L 260 468 L 265 483 L 265 483 L 234 492 L 234 492 L 230 476 L 230 476 L 208 396 L 208 396 L 207 392 L 207 392 L 204 389 L 204 389 L 133 312 L 133 312 Q 116 292 122 267 L 139 203 L 139 203 L 148 171 L 148 171 L 117 185 L 117 185 L 80 201 L 80 201 L 74 204 L 74 204 L 72 210 L 72 210 L 60 245 L 60 245 L 55 260 L 55 260 L 25 250 L 25 250 L 30 235 L 30 235 L 46 187 L 46 187 L 48 180 L 48 180 L 55 177 L 55 177 L 127 145 L 127 145 L 131 143 L 131 143 L 136 144 L 136 144 L 216 160 L 216 160 L 224 162 L 224 162 L 227 169 L 227 169 L 263 239 L 263 239 L 265 244 L 265 244 L 270 246 L 270 246 L 294 259 L 294 259 L 280 287 L 280 287 L 246 270 L 246 270 L 241 268 L 241 268 L 239 263 L 239 263 L 225 236 L 225 236 L 207 199 L 207 199 L 195 238 L 195 238 L 177 301 L 177 301 L 175 310 L 175 310 L 181 316 L 181 316 L 233 373 L 233 373 Z M 66 398 L 22 441 L 66 398 L 22 441 L 11 453 L 11 453 L 0 464 L 0 464 L 11 475 L 11 475 L 34 498 L 34 498 L 45 509 L 45 509 L 56 498 L 56 498 L 68 487 L 68 487 L 116 439 L 116 439 L 120 434 L 120 434 L 123 428 L 123 428 L 138 389 L 138 389 L 126 376 L 126 376 L 108 422 L 108 422 L 107 425 L 107 425 L 104 427 L 104 427 L 56 475 L 56 475 L 45 487 L 45 487 L 22 464 L 22 464 L 34 453 L 34 453 L 77 409 L 77 409 L 79 407 L 79 407 L 81 404 L 81 404 L 102 349 L 102 349 L 98 344 L 98 344 Q 94 340 91 336 L 66 398 L 66 398 Z M 448 438 L 454 443 L 448 438 L 454 443 L 464 431 L 464 431 L 458 426 L 458 426 L 379 360 L 379 360 L 629 360 L 637 360 L 637 352 L 637 352 L 637 72 L 637 72 L 637 64 L 637 64 L 629 64 L 317 64 L 317 80 L 317 80 L 325 80 L 621 80 L 621 344 L 621 344 L 379 344 L 379 344 L 458 278 L 458 278 L 464 273 L 464 273 L 454 261 L 454 261 L 448 266 L 448 266 L 352 346 L 352 346 L 345 352 L 345 352 L 352 358 L 352 358 L 448 438 L 448 438 Z" />
</svg>