<svg xmlns="http://www.w3.org/2000/svg" viewBox="0 0 640 512">
  <path d="M 112 0 L 120 0 L 112 0 L 276 0 L 279 4 L 279 4 L 383 156 L 383 156 L 384 158 L 384 158 L 384 160 L 384 160 L 384 176 L 384 176 L 384 200 L 384 200 L 384 304 L 384 304 L 384 320 L 384 320 L 368 320 L 0 320 L 0 304 L 0 304 L 0 176 L 0 176 L 0 160 L 0 160 L 16 160 L 112 160 L 112 8 L 112 8 L 112 0 L 112 0 Z M 268 16 L 128 16 L 268 16 L 128 16 L 128 160 L 128 160 L 366 160 L 366 160 L 268 16 L 268 16 Z M 16 176 L 16 304 L 16 176 L 16 304 L 368 304 L 368 304 L 368 200 L 368 200 L 368 176 L 368 176 L 120 176 L 16 176 Z M 80 368 Q 53 369 35 387 L 35 387 L 35 387 Q 17 405 16 432 Q 17 459 35 477 Q 53 495 80 496 L 336 496 L 336 496 Q 363 495 381 477 Q 399 459 400 432 Q 399 405 381 387 Q 363 369 336 368 L 80 368 L 80 368 Z M 0 432 Q 1 398 23 375 L 23 375 L 23 375 Q 46 353 80 352 L 336 352 L 336 352 Q 370 353 393 375 Q 415 398 416 432 Q 415 466 393 489 Q 370 511 336 512 L 80 512 L 80 512 Q 46 511 23 489 Q 1 466 0 432 L 0 432 Z M 96 432 Q 97 417 112 416 Q 127 417 128 432 Q 127 447 112 448 Q 97 447 96 432 L 96 432 Z M 208 416 Q 223 417 224 432 Q 223 447 208 448 Q 193 447 192 432 Q 193 417 208 416 L 208 416 Z M 288 432 Q 289 417 304 416 Q 319 417 320 432 Q 319 447 304 448 Q 289 447 288 432 L 288 432 Z M 576 162 L 416 300 L 576 162 L 416 300 L 416 279 L 416 279 L 579 138 L 579 138 L 592 127 L 592 127 L 592 144 L 592 144 L 592 322 L 592 322 L 592 325 L 592 325 L 590 328 L 590 328 L 456 467 L 456 467 L 456 496 L 456 496 L 552 496 L 552 496 Q 583 495 603 475 Q 623 455 624 424 L 624 384 L 624 384 L 624 320 L 624 320 L 624 272 L 624 272 L 624 16 L 624 16 L 587 16 L 587 16 L 416 158 L 416 158 L 416 138 L 416 138 L 579 2 L 579 2 L 581 0 L 581 0 L 584 0 L 640 0 L 640 8 L 640 8 L 640 272 L 640 272 L 640 320 L 640 320 L 640 384 L 640 384 L 640 424 L 640 424 Q 639 461 614 486 Q 589 511 552 512 L 448 512 L 440 512 L 440 504 L 440 504 L 440 464 L 440 464 L 440 461 L 440 461 L 442 459 L 442 459 L 576 319 L 576 319 L 576 162 L 576 162 Z" />
</svg>