<svg xmlns="http://www.w3.org/2000/svg" viewBox="0 0 573 512">
  <path d="M 335 82 L 447 276 L 335 82 L 447 276 L 551 216 L 551 216 L 439 22 L 439 22 L 335 82 L 335 82 Z M 565 208 L 573 222 L 565 208 L 573 222 L 559 230 L 559 230 L 455 290 L 455 290 L 441 298 L 441 298 L 433 284 L 433 284 L 424 269 L 424 269 L 383 292 L 383 292 Q 384 298 384 304 Q 383 343 354 366 L 418 512 L 418 512 L 400 512 L 400 512 L 340 375 L 340 375 Q 324 384 304 384 Q 284 384 268 375 L 208 512 L 208 512 L 190 512 L 190 512 L 254 366 L 254 366 Q 252 365 251 363 L 122 433 L 122 433 L 106 405 L 106 405 L 64 429 L 64 429 L 50 437 L 50 437 L 42 423 L 42 423 L 8 364 L 8 364 L 0 351 L 0 351 L 14 343 L 14 343 L 56 318 L 56 318 L 37 285 L 37 285 L 327 101 L 327 101 L 321 90 L 321 90 L 313 76 L 313 76 L 327 68 L 327 68 L 431 8 L 431 8 L 445 0 L 445 0 L 453 14 L 453 14 L 565 208 L 565 208 Z M 64 332 L 22 356 L 64 332 L 22 356 L 56 415 L 56 415 L 98 391 L 98 391 L 64 332 L 64 332 Z M 335 114 L 58 290 L 335 114 L 58 290 L 128 411 L 128 411 L 239 351 L 239 351 Q 224 331 224 304 Q 225 270 247 247 Q 270 225 304 224 Q 330 224 350 239 Q 370 253 379 276 L 416 255 L 416 255 L 335 114 L 335 114 Z M 304 368 Q 340 367 359 336 Q 377 304 359 272 Q 340 241 304 240 Q 268 241 249 272 Q 231 304 249 336 Q 268 367 304 368 L 304 368 Z" />
</svg>