<svg xmlns="http://www.w3.org/2000/svg" viewBox="0 0 640 512">
  <path d="M 309 0 L 315 0 L 309 0 L 331 0 L 333 6 L 333 6 L 421 393 L 421 393 L 473 245 L 473 245 L 474 240 L 474 240 L 480 240 L 640 240 L 640 256 L 640 256 L 632 256 L 486 256 L 432 411 L 432 411 L 430 416 L 430 416 L 424 416 L 410 416 L 408 410 L 408 410 L 320 24 L 320 24 L 232 505 L 232 505 L 231 512 L 231 512 L 224 512 L 210 512 L 208 506 L 208 506 L 154 256 L 154 256 L 8 256 L 0 256 L 0 240 L 0 240 L 8 240 L 166 240 L 168 246 L 168 246 L 220 483 L 220 483 L 307 7 L 307 7 L 309 0 L 309 0 Z" />
</svg>