<svg xmlns="http://www.w3.org/2000/svg" viewBox="0 0 508 510">
  <path d="M 428 92 L 422 97 L 428 92 L 422 97 L 411 86 L 411 86 L 416 80 L 416 80 L 496 0 L 496 0 L 508 12 L 508 12 L 428 92 L 428 92 Z M 188 332 L 12 508 L 188 332 L 12 508 L 0 496 L 0 496 L 176 320 L 176 320 L 182 315 L 182 315 L 193 326 L 193 326 L 188 332 L 188 332 Z M 238 78 Q 170 80 125 124 L 125 124 L 125 124 Q 80 169 78 236 L 78 244 L 78 244 L 62 244 L 62 244 L 62 236 L 62 236 Q 64 162 114 113 Q 163 64 238 62 Q 313 64 362 113 Q 412 162 414 236 Q 414 278 396 314 Q 378 349 347 373 L 347 390 L 347 390 Q 346 441 312 475 Q 278 509 227 510 L 204 510 L 196 510 L 196 494 L 196 494 L 204 494 L 227 494 Q 271 493 300 464 Q 330 434 331 390 L 331 369 L 331 369 Q 331 365 334 363 Q 364 341 381 308 Q 398 275 398 236 Q 396 169 351 124 Q 306 80 238 78 L 238 78 Z M 238 142 Q 197 143 170 170 L 170 170 L 170 170 Q 143 197 142 238 L 142 246 L 142 246 L 126 246 L 126 246 L 126 238 L 126 238 Q 127 190 159 159 Q 190 127 238 126 Q 286 127 317 159 Q 349 190 350 238 L 350 246 L 350 246 L 334 246 L 334 246 L 334 238 L 334 238 Q 333 197 306 170 Q 279 143 238 142 L 238 142 Z" />
</svg>