<svg xmlns="http://www.w3.org/2000/svg" viewBox="0 0 512 512">
  <path d="M 12.8 51.2 L 0 51.2 L 0 76.8 L 12.8 76.8 L 53.6 76.8 L 115.2 348.8 L 117.6 358.4 L 128 358.4 L 256.8 358.4 Q 256 352 256 345.6 Q 256 339.2 256.8 332.8 L 138.4 332.8 L 126.4 281.6 L 271.2 281.6 Q 278.4 268 288 256 L 120.8 256 L 85.6 102.4 L 426.4 102.4 L 394.4 204.8 Q 394.4 204.8 395.2 204.8 Q 396 204.8 396.8 204.8 Q 408.8 204.8 420 206.4 L 452.8 102.4 L 460.8 76.8 L 434.4 76.8 L 80 76.8 L 76.8 61.6 L 74.4 51.2 L 64 51.2 L 12.8 51.2 L 12.8 51.2 Z M 147.2 396.8 Q 164.8 398.4 166.4 416 Q 164.8 433.6 147.2 435.2 Q 129.6 433.6 128 416 Q 129.6 398.4 147.2 396.8 L 147.2 396.8 Z M 147.2 460.8 Q 172.8 460 185.6 438.4 Q 198.4 416 185.6 393.6 Q 172.8 372 147.2 371.2 Q 121.6 372 108.8 393.6 Q 96 416 108.8 438.4 Q 121.6 460 147.2 460.8 L 147.2 460.8 Z M 486.4 345.6 Q 486.4 369.6 474.4 390.4 L 474.4 390.4 Q 462.4 411.2 441.6 423.2 Q 420.8 435.2 396.8 435.2 Q 372.8 435.2 352 423.2 Q 331.2 411.2 319.2 390.4 Q 307.2 369.6 307.2 345.6 Q 307.2 321.6 319.2 300.8 Q 331.2 280 352 268 Q 372.8 256 396.8 256 Q 420.8 256 441.6 268 Q 462.4 280 474.4 300.8 Q 486.4 321.6 486.4 345.6 L 486.4 345.6 Z M 281.6 345.6 Q 281.6 376.8 296.8 403.2 L 296.8 403.2 Q 312 429.6 339.2 445.6 Q 366.4 460.8 396.8 460.8 Q 427.2 460.8 454.4 445.6 Q 481.6 429.6 496.8 403.2 Q 512 376.8 512 345.6 Q 512 314.4 496.8 288 Q 481.6 261.6 454.4 245.6 Q 427.2 230.4 396.8 230.4 Q 366.4 230.4 339.2 245.6 Q 312 261.6 296.8 288 Q 281.6 314.4 281.6 345.6 L 281.6 345.6 Z M 460 352 L 441.6 333.6 L 432.8 343.2 L 432.8 343.2 L 432.8 343.2 L 432 343.2 L 432 343.2 L 432 343.2 L 432 343.2 L 432 343.2 L 432 344 L 432 344 L 432 344 L 432 344 L 432 344 L 431.2 344 L 431.2 344 L 431.2 344 L 431.2 344 L 431.2 344 L 431.2 344.8 L 431.2 344.8 L 431.2 344.8 L 431.2 344.8 L 431.2 344.8 L 430.4 344.8 L 430.4 344.8 L 430.4 344.8 L 430.4 344.8 L 430.4 344.8 L 430.4 345.6 L 430.4 345.6 L 430.4 345.6 L 430.4 345.6 L 430.4 345.6 L 429.6 345.6 L 429.6 345.6 L 429.6 345.6 L 429.6 345.6 L 429.6 345.6 L 429.6 346.4 L 429.6 346.4 L 429.6 346.4 L 429.6 346.4 L 429.6 346.4 L 428.8 346.4 L 428.8 346.4 L 428.8 346.4 L 428.8 346.4 L 428.8 346.4 L 428.8 347.2 L 428.8 347.2 L 428.8 347.2 L 428.8 347.2 L 428.8 347.2 L 428 347.2 L 428 347.2 L 428 347.2 L 428 347.2 L 428 347.2 L 428 348 L 428 348 L 428 348 L 428 348 L 428 348 L 427.2 348 L 427.2 348 L 427.2 348 L 427.2 348 L 427.2 348 L 427.2 348.8 L 427.2 348.8 L 427.2 348.8 L 427.2 348.8 L 427.2 348.8 L 426.4 348.8 L 426.4 348.8 L 426.4 348.8 L 426.4 348.8 L 426.4 348.8 L 426.4 349.6 L 426.4 349.6 L 426.4 349.6 L 426.4 349.6 L 426.4 349.6 L 425.6 349.6 L 425.6 349.6 L 425.6 349.6 L 425.6 349.6 L 425.6 349.6 L 425.6 350.4 L 425.6 350.4 L 425.6 350.4 L 425.6 350.4 L 425.6 350.4 L 424.8 350.4 L 424.8 350.4 L 424.8 350.4 L 424.8 350.4 L 424.8 350.4 L 424.8 351.2 L 424.8 351.2 L 424.8 351.2 L 424.8 351.2 L 424.8 351.2 L 424 351.2 L 424 351.2 L 424 351.2 L 424 351.2 L 424 351.2 L 424 352 L 424 352 L 424 352 L 424 352 L 424 352 L 423.2 352 L 423.2 352 L 423.2 352 L 423.2 352 L 423.2 352 L 423.2 352.8 L 423.2 352.8 L 423.2 352.8 L 423.2 352.8 L 423.2 352.8 L 422.4 352.8 L 422.4 352.8 L 422.4 352.8 L 422.4 352.8 L 422.4 352.8 L 422.4 353.6 L 422.4 353.6 L 422.4 353.6 L 422.4 353.6 L 422.4 353.6 L 421.6 353.6 L 421.6 353.6 L 421.6 353.6 L 421.6 353.6 L 421.6 353.6 L 421.6 354.4 L 421.6 354.4 L 421.6 354.4 L 421.6 354.4 L 421.6 354.4 L 420.8 354.4 L 420.8 354.4 L 420.8 354.4 L 420.8 354.4 L 420.8 354.4 L 420.8 355.2 L 420.8 355.2 L 420.8 355.2 L 420.8 355.2 L 420.8 355.2 L 420 355.2 L 420 355.2 L 420 355.2 L 420 355.2 L 420 355.2 L 420 356 L 420 356 L 420 356 L 420 356 L 420 356 L 419.2 356 L 419.2 356 L 419.2 356 L 419.2 356 L 419.2 356 L 419.2 356.8 L 419.2 356.8 L 419.2 356.8 L 419.2 356.8 L 419.2 356.8 L 418.4 356.8 L 418.4 356.8 L 418.4 356.8 L 418.4 356.8 L 418.4 356.8 L 418.4 357.6 L 418.4 357.6 L 418.4 357.6 L 418.4 357.6 L 418.4 357.6 L 417.6 357.6 L 417.6 357.6 L 417.6 357.6 L 417.6 357.6 L 417.6 357.6 L 417.6 358.4 L 417.6 358.4 L 417.6 358.4 L 417.6 358.4 L 417.6 358.4 L 416.8 358.4 L 416.8 358.4 L 416.8 358.4 L 416.8 358.4 L 416.8 358.4 L 416.8 359.2 L 416.8 359.2 L 416.8 359.2 L 416.8 359.2 L 416.8 359.2 L 416.8 294.4 L 416.8 281.6 L 384 281.6 L 384 294.4 L 384 365.6 L 360.8 343.2 L 352 333.6 L 333.6 352 L 343.2 360.8 L 388 405.6 L 396.8 415.2 L 405.6 405.6 L 396.8 396.8 L 405.6 405.6 L 405.6 405.6 L 405.6 405.6 L 405.6 405.6 L 405.6 405.6 L 405.6 405.6 L 405.6 405.6 L 405.6 405.6 L 405.6 405.6 L 405.6 405.6 L 405.6 405.6 L 405.6 405.6 L 405.6 405.6 L 405.6 405.6 L 405.6 405.6 L 405.6 405.6 L 405.6 405.6 L 405.6 405.6 L 405.6 405.6 L 405.6 405.6 L 405.6 405.6 L 405.6 405.6 L 405.6 405.6 L 405.6 405.6 L 405.6 405.6 L 405.6 405.6 L 405.6 405.6 L 405.6 405.6 L 405.6 405.6 L 405.6 405.6 L 405.6 405.6 L 405.6 405.6 L 405.6 405.6 L 405.6 405.6 L 405.6 405.6 L 405.6 405.6 L 405.6 405.6 L 405.6 405.6 L 405.6 405.6 L 405.6 405.6 L 405.6 405.6 L 405.6 405.6 L 405.6 405.6 L 405.6 405.6 L 405.6 405.6 L 405.6 405.6 L 405.6 405.6 L 405.6 405.6 L 405.6 405.6 L 405.6 405.6 L 405.6 405.6 L 405.6 405.6 L 405.6 405.6 L 405.6 405.6 L 405.6 405.6 L 405.6 405.6 L 405.6 405.6 L 405.6 405.6 L 405.6 405.6 L 405.6 405.6 L 405.6 405.6 L 405.6 405.6 L 405.6 405.6 L 405.6 405.6 L 405.6 405.6 L 405.6 405.6 L 405.6 405.6 L 405.6 405.6 L 405.6 405.6 L 405.6 405.6 L 405.6 405.6 L 406.4 405.6 L 406.4 405.6 L 406.4 405.6 L 406.4 405.6 L 406.4 405.6 L 406.4 405.6 L 406.4 404.8 L 406.4 404.8 L 406.4 404.8 L 406.4 404.8 L 407.2 404.8 L 407.2 404.8 L 407.2 404.8 L 407.2 404.8 L 407.2 404.8 L 407.2 404.8 L 407.2 404 L 407.2 404 L 407.2 404 L 407.2 404 L 408 404 L 408 404 L 408 404 L 408 404 L 408 404 L 408 404 L 408 403.2 L 408 403.2 L 408 403.2 L 408 403.2 L 408.8 403.2 L 408.8 403.2 L 408.8 403.2 L 408.8 403.2 L 408.8 403.2 L 408.8 403.2 L 408.8 402.4 L 408.8 402.4 L 408.8 402.4 L 408.8 402.4 L 409.6 402.4 L 409.6 402.4 L 409.6 402.4 L 409.6 402.4 L 409.6 402.4 L 409.6 402.4 L 409.6 401.6 L 409.6 401.6 L 409.6 401.6 L 409.6 401.6 L 410.4 401.6 L 410.4 401.6 L 410.4 401.6 L 410.4 401.6 L 410.4 401.6 L 410.4 401.6 L 410.4 400.8 L 410.4 400.8 L 410.4 400.8 L 410.4 400.8 L 410.4 400.8 L 411.2 400.8 L 411.2 400.8 L 411.2 400.8 L 411.2 400.8 L 411.2 400.8 L 411.2 400 L 411.2 400 L 411.2 400 L 411.2 400 L 411.2 400 L 412 400 L 412 400 L 412 400 L 412 400 L 412 400 L 412 399.2 L 412 399.2 L 412 399.2 L 412 399.2 L 412 399.2 L 412.8 399.2 L 412.8 399.2 L 412.8 399.2 L 412.8 399.2 L 412.8 399.2 L 412.8 398.4 L 412.8 398.4 L 412.8 398.4 L 412.8 398.4 L 412.8 398.4 L 413.6 398.4 L 413.6 398.4 L 413.6 398.4 L 413.6 398.4 L 413.6 398.4 L 413.6 397.6 L 413.6 397.6 L 413.6 397.6 L 413.6 397.6 L 413.6 397.6 L 414.4 397.6 L 414.4 397.6 L 414.4 397.6 L 414.4 397.6 L 414.4 397.6 L 414.4 396.8 L 414.4 396.8 L 414.4 396.8 L 414.4 396.8 L 414.4 396.8 L 415.2 396.8 L 415.2 396.8 L 415.2 396.8 L 415.2 396.8 L 415.2 396.8 L 415.2 396 L 415.2 396 L 415.2 396 L 415.2 396 L 415.2 396 L 416 396 L 416 396 L 416 396 L 416 396 L 416 396 L 416 395.2 L 416 395.2 L 416 395.2 L 416 395.2 L 416 395.2 L 416.8 395.2 L 416.8 395.2 L 416.8 395.2 L 416.8 395.2 L 416.8 395.2 L 416.8 394.4 L 416.8 394.4 L 416.8 394.4 L 416.8 394.4 L 416.8 394.4 L 417.6 394.4 L 417.6 394.4 L 417.6 394.4 L 417.6 394.4 L 417.6 394.4 L 417.6 393.6 L 417.6 393.6 L 417.6 393.6 L 417.6 393.6 L 417.6 393.6 L 418.4 393.6 L 418.4 393.6 L 418.4 393.6 L 418.4 393.6 L 418.4 393.6 L 418.4 392.8 L 418.4 392.8 L 418.4 392.8 L 418.4 392.8 L 418.4 392.8 L 419.2 392.8 L 419.2 392.8 L 419.2 392.8 L 419.2 392.8 L 419.2 392.8 L 419.2 392 L 419.2 392 L 419.2 392 L 419.2 392 L 419.2 392 L 420 392 L 420 392 L 420 392 L 420 392 L 420 392 L 420 391.2 L 420 391.2 L 420 391.2 L 420 391.2 L 420 391.2 L 420.8 391.2 L 420.8 391.2 L 420.8 391.2 L 420.8 391.2 L 420.8 391.2 L 420.8 390.4 L 420.8 390.4 L 420.8 390.4 L 420.8 390.4 L 420.8 390.4 L 421.6 390.4 L 421.6 390.4 L 421.6 390.4 L 421.6 390.4 L 421.6 390.4 L 421.6 389.6 L 421.6 389.6 L 421.6 389.6 L 421.6 389.6 L 421.6 389.6 L 422.4 389.6 L 422.4 389.6 L 422.4 389.6 L 422.4 389.6 L 422.4 389.6 L 422.4 388.8 L 422.4 388.8 L 422.4 388.8 L 422.4 388.8 L 422.4 388.8 L 423.2 388.8 L 423.2 388.8 L 423.2 388.8 L 423.2 388.8 L 423.2 388.8 L 423.2 388 L 423.2 388 L 423.2 388 L 423.2 388 L 423.2 388 L 424 388 L 424 388 L 424 388 L 424 388 L 424 388 L 424 387.2 L 424 387.2 L 424 387.2 L 424 387.2 L 424 387.2 L 424.8 387.2 L 424.8 387.2 L 424.8 387.2 L 424.8 387.2 L 424.8 387.2 L 424.8 386.4 L 424.8 386.4 L 424.8 386.4 L 424.8 386.4 L 424.8 386.4 L 425.6 386.4 L 425.6 386.4 L 425.6 386.4 L 425.6 386.4 L 425.6 386.4 L 425.6 385.6 L 425.6 385.6 L 425.6 385.6 L 425.6 385.6 L 425.6 385.6 L 426.4 385.6 L 426.4 385.6 L 426.4 385.6 L 426.4 385.6 L 426.4 385.6 L 426.4 384.8 L 426.4 384.8 L 426.4 384.8 L 426.4 384.8 L 426.4 384.8 L 427.2 384.8 L 427.2 384.8 L 427.2 384.8 L 427.2 384.8 L 427.2 384.8 L 427.2 384 L 427.2 384 L 427.2 384 L 427.2 384 L 427.2 384 L 428 384 L 428 384 L 428 384 L 428 384 L 428 384 L 428 383.2 L 428 383.2 L 428 383.2 L 428 383.2 L 428 383.2 L 428.8 383.2 L 428.8 383.2 L 428.8 383.2 L 428.8 383.2 L 428.8 383.2 L 428.8 382.4 L 428.8 382.4 L 428.8 382.4 L 428.8 382.4 L 428.8 382.4 L 429.6 382.4 L 429.6 382.4 L 429.6 382.4 L 429.6 382.4 L 429.6 382.4 L 429.6 381.6 L 429.6 381.6 L 429.6 381.6 L 429.6 381.6 L 429.6 381.6 L 430.4 381.6 L 430.4 381.6 L 430.4 381.6 L 430.4 381.6 L 430.4 381.6 L 430.4 380.8 L 430.4 380.8 L 430.4 380.8 L 430.4 380.8 L 430.4 380.8 L 431.2 380.8 L 431.2 380.8 L 431.2 380.8 L 431.2 380.8 L 431.2 380.8 L 431.2 380 L 431.2 380 L 431.2 380 L 431.2 380 L 431.2 380 L 432 380 L 432 380 L 432 380 L 432 380 L 432 380 L 432 379.2 L 432 379.2 L 432 379.2 L 432 379.2 L 432 379.2 L 432.8 379.2 L 432.8 379.2 L 432.8 379.2 L 432.8 379.2 L 432.8 379.2 L 432.8 378.4 L 432.8 378.4 L 432.8 378.4 L 432.8 378.4 L 432.8 378.4 L 433.6 378.4 L 433.6 378.4 L 433.6 378.4 L 433.6 378.4 L 433.6 378.4 L 433.6 377.6 L 433.6 377.6 L 433.6 377.6 L 433.6 377.6 L 433.6 377.6 L 434.4 377.6 L 434.4 377.6 L 434.4 377.6 L 434.4 377.6 L 434.4 377.6 L 434.4 376.8 L 434.4 376.8 L 434.4 376.8 L 434.4 376.8 L 434.4 376.8 L 435.2 376.8 L 435.2 376.8 L 435.2 376.8 L 435.2 376.8 L 435.2 376.8 L 435.2 376 L 435.2 376 L 435.2 376 L 435.2 376 L 435.2 376 L 436 376 L 436 376 L 436 376 L 436 376 L 436 376 L 436 375.2 L 436 375.2 L 436 375.2 L 436 375.2 L 436 375.2 L 436.8 375.2 L 436.8 375.2 L 436.8 375.2 L 436.8 375.2 L 436.8 375.2 L 436.8 374.4 L 436.8 374.4 L 436.8 374.4 L 436.8 374.4 L 436.8 374.4 L 437.6 374.4 L 437.6 374.4 L 437.6 374.4 L 437.6 374.4 L 437.6 374.4 L 437.6 373.6 L 437.6 373.6 L 437.6 373.6 L 437.6 373.6 L 437.6 373.6 L 438.4 373.6 L 438.4 373.6 L 438.4 373.6 L 438.4 373.6 L 438.4 373.6 L 438.4 372.8 L 438.4 372.8 L 438.4 372.8 L 438.4 372.8 L 438.4 372.8 L 439.2 372.8 L 439.2 372.8 L 439.2 372.8 L 439.2 372.8 L 439.2 372.8 L 439.2 372 L 439.2 372 L 439.2 372 L 439.2 372 L 439.2 372 L 440 372 L 440 372 L 440 372 L 440 372 L 440 372 L 440 371.2 L 440 371.2 L 440 371.2 L 440 371.2 L 440 371.2 L 440.8 371.2 L 440.8 371.2 L 440.8 371.2 L 440.8 371.2 L 440.8 371.2 L 440.8 370.4 L 440.8 370.4 L 440.8 370.4 L 440.8 370.4 L 440.8 370.4 L 460 352 L 460 352 Z" />
</svg>