<svg xmlns="http://www.w3.org/2000/svg" viewBox="0 0 640 512">
  <path d="M 304 128 Q 303 83 264 59 Q 224 37 184 59 Q 145 83 144 128 Q 145 173 184 197 Q 224 219 264 197 Q 303 173 304 128 L 304 128 Z M 96 128 Q 96 93 113 64 L 113 64 L 113 64 Q 130 35 160 17 Q 190 0 224 0 Q 258 0 288 17 Q 318 35 335 64 Q 352 93 352 128 Q 352 163 335 192 Q 318 221 288 239 Q 258 256 224 256 Q 190 256 160 239 Q 130 221 113 192 Q 96 163 96 128 L 96 128 Z M 65 464 L 349 464 L 65 464 L 349 464 Q 367 492 395 512 L 50 512 L 0 512 L 15 464 L 15 464 L 64 304 L 64 304 L 332 304 L 332 304 Q 323 327 321 352 L 100 352 L 100 352 L 65 464 L 65 464 Z M 352 368 Q 352 329 371 296 L 371 296 L 371 296 Q 390 263 424 243 Q 458 224 496 224 Q 534 224 568 243 Q 602 263 621 296 Q 640 329 640 368 Q 640 407 621 440 Q 602 473 568 493 Q 534 512 496 512 Q 458 512 424 493 Q 390 473 371 440 Q 352 407 352 368 L 352 368 Z M 512 288 L 480 288 L 512 288 L 480 288 L 480 304 L 480 304 L 480 368 L 480 368 L 480 384 L 480 384 L 496 384 L 560 384 L 560 352 L 560 352 L 544 352 L 512 352 L 512 304 L 512 304 L 512 288 L 512 288 Z" />
</svg>