<svg xmlns="http://www.w3.org/2000/svg" viewBox="0 0 640 512">
  <path d="M 352 32 L 32 32 L 352 32 L 32 32 L 32 480 L 32 480 L 128 480 L 128 480 L 128 400 L 128 400 L 128 368 L 128 368 L 160 368 L 256 368 L 256 400 L 256 400 L 256 480 L 256 480 L 288 480 L 288 480 L 288 512 L 288 512 L 256 512 L 0 512 L 0 480 L 0 480 L 0 32 L 0 32 L 0 0 L 0 0 L 32 0 L 384 0 L 384 32 L 384 32 L 384 64 L 384 64 L 352 64 L 352 64 L 352 32 L 352 32 Z M 288 96 L 288 128 L 288 96 L 288 128 L 256 128 L 256 128 L 256 160 L 256 160 L 288 160 L 288 160 L 288 192 L 288 192 L 240 192 L 224 192 L 224 176 L 224 176 L 224 112 L 224 112 L 224 96 L 224 96 L 240 96 L 288 96 Z M 288 224 L 288 256 L 288 224 L 288 256 L 256 256 L 256 256 L 256 288 L 256 288 L 288 288 L 288 288 L 288 320 L 288 320 L 240 320 L 224 320 L 224 304 L 224 304 L 224 240 L 224 240 L 224 224 L 224 224 L 240 224 L 288 224 Z M 224 480 L 224 400 L 224 480 L 224 400 L 160 400 L 160 400 L 160 480 L 160 480 L 224 480 L 224 480 Z M 80 96 L 144 96 L 80 96 L 160 96 L 160 112 L 160 112 L 160 176 L 160 176 L 160 192 L 160 192 L 144 192 L 64 192 L 64 176 L 64 176 L 64 112 L 64 112 L 64 96 L 64 96 L 80 96 L 80 96 Z M 96 160 L 128 160 L 96 160 L 128 160 L 128 128 L 128 128 L 96 128 L 96 128 L 96 160 L 96 160 Z M 80 224 L 144 224 L 80 224 L 160 224 L 160 240 L 160 240 L 160 304 L 160 304 L 160 320 L 160 320 L 144 320 L 64 320 L 64 304 L 64 304 L 64 240 L 64 240 L 64 224 L 64 224 L 80 224 L 80 224 Z M 96 288 L 128 288 L 96 288 L 128 288 L 128 256 L 128 256 L 96 256 L 96 256 L 96 288 L 96 288 Z M 352 128 L 352 480 L 352 128 L 352 480 L 608 480 L 608 480 L 608 128 L 608 128 L 352 128 L 352 128 Z M 320 96 L 352 96 L 320 96 L 640 96 L 640 128 L 640 128 L 640 480 L 640 480 L 640 512 L 640 512 L 608 512 L 320 512 L 320 480 L 320 480 L 320 128 L 320 128 L 320 96 L 320 96 Z M 376 208 Q 378 186 400 184 Q 422 186 424 208 Q 422 230 400 232 Q 378 230 376 208 L 376 208 Z M 400 280 Q 422 282 424 304 Q 422 326 400 328 Q 378 326 376 304 Q 378 282 400 280 L 400 280 Z M 376 400 Q 378 378 400 376 Q 422 378 424 400 Q 422 422 400 424 Q 378 422 376 400 L 376 400 Z M 464 192 L 560 192 L 464 192 L 576 192 L 576 224 L 576 224 L 560 224 L 448 224 L 448 192 L 448 192 L 464 192 L 464 192 Z M 448 288 L 464 288 L 448 288 L 576 288 L 576 320 L 576 320 L 560 320 L 448 320 L 448 288 L 448 288 Z M 464 384 L 560 384 L 464 384 L 576 384 L 576 416 L 576 416 L 560 416 L 448 416 L 448 384 L 448 384 L 464 384 L 464 384 Z" />
</svg>