<svg xmlns="http://www.w3.org/2000/svg" viewBox="0 0 576 512">
  <path d="M 0 0 L 8 0 L 0 0 L 224 0 L 224 8 L 224 8 L 224 168 L 224 168 L 224 176 L 224 176 L 216 176 L 96 176 L 96 160 L 96 160 L 104 160 L 208 160 L 208 16 L 208 16 L 16 16 L 16 16 L 16 376 L 16 376 Q 17 427 51 461 Q 85 495 136 496 L 176 496 L 176 496 L 176 399 L 176 399 Q 177 337 211 288 Q 246 240 304 220 L 304 168 L 304 168 Q 283 164 270 149 Q 256 134 256 112 Q 257 88 272 73 Q 288 57 312 56 L 319 56 L 319 56 Q 334 31 359 16 Q 385 0 416 0 Q 447 0 473 16 Q 498 31 513 56 L 520 56 L 520 56 Q 544 57 560 73 Q 575 88 576 112 Q 576 134 562 149 Q 549 164 528 168 L 528 240 L 528 240 L 528 256 L 528 256 L 512 256 L 304 256 L 304 240 L 304 240 L 304 237 L 304 237 Q 253 257 223 300 Q 193 343 192 399 L 192 496 L 192 496 L 496 496 L 496 496 L 496 464 L 496 464 L 440 464 L 433 464 L 432 457 L 432 457 L 431 449 L 431 449 Q 428 414 403 391 Q 379 369 344 368 L 328 368 L 320 368 L 320 352 L 320 352 L 328 352 L 344 352 Q 372 352 395 365 Q 418 379 432 401 L 432 296 L 432 296 L 432 288 L 432 288 L 444 288 L 444 288 L 446 291 L 446 291 L 574 427 L 574 427 L 576 429 L 576 429 L 576 432 L 576 432 L 576 504 L 576 504 L 576 512 L 576 512 L 560 512 L 560 512 L 560 504 L 560 504 L 560 435 L 560 435 L 448 316 L 448 316 L 448 448 L 448 448 L 504 448 L 512 448 L 512 456 L 512 456 L 512 504 L 512 504 L 512 512 L 512 512 L 504 512 L 136 512 Q 78 511 40 472 Q 1 434 0 376 L 0 8 L 0 8 L 0 0 L 0 0 Z M 416 16 Q 375 17 348 44 L 348 44 L 348 44 Q 321 71 320 112 L 320 152 L 320 152 L 320 168 L 320 168 L 320 240 L 320 240 L 512 240 L 512 240 L 512 168 L 512 168 L 512 152 L 512 152 L 512 112 L 512 112 Q 511 71 484 44 Q 457 17 416 16 L 416 16 Z M 304 151 L 304 112 L 304 151 L 304 112 Q 304 91 311 72 Q 295 73 284 84 Q 272 95 272 112 Q 274 143 304 151 L 304 151 Z M 560 112 Q 560 95 548 84 L 548 84 L 548 84 Q 537 73 521 72 Q 528 91 528 112 L 528 151 L 528 151 Q 558 143 560 112 L 560 112 Z M 368 112 Q 369 97 384 96 Q 399 97 400 112 Q 399 127 384 128 Q 369 127 368 112 L 368 112 Z M 448 96 Q 463 97 464 112 Q 463 127 448 128 Q 433 127 432 112 Q 433 97 448 96 L 448 96 Z M 352 112 Q 354 140 379 150 L 384 152 L 384 152 L 384 157 L 384 157 L 384 200 L 384 200 L 448 200 L 448 200 L 448 157 L 448 157 L 448 152 L 448 152 L 453 150 L 453 150 Q 478 140 480 112 Q 480 95 468 84 Q 457 72 440 72 L 392 72 L 392 72 Q 375 72 364 84 Q 352 95 352 112 L 352 112 Z M 392 56 L 440 56 L 392 56 L 440 56 Q 464 57 480 72 Q 495 88 496 112 Q 494 147 464 163 L 464 208 L 464 208 L 464 216 L 464 216 L 456 216 L 368 216 L 368 208 L 368 208 L 368 163 L 368 163 Q 338 147 336 112 Q 337 88 352 72 Q 368 57 392 56 L 392 56 Z" />
</svg>