<svg xmlns="http://www.w3.org/2000/svg" viewBox="0 0 384 448">
  <path d="M 128 192 L 112 192 L 128 192 L 32 192 L 32 176 L 32 176 L 32 160 L 32 160 L 181 11 L 181 11 L 192 0 L 192 0 L 203 11 L 203 11 L 352 160 L 352 160 L 352 176 L 352 176 L 352 192 L 352 192 L 336 192 L 256 192 L 256 208 L 256 208 L 256 336 L 256 336 L 256 352 L 256 352 L 240 352 L 128 352 L 128 336 L 128 336 L 128 208 L 128 208 L 128 192 L 128 192 Z M 128 176 L 144 176 L 128 176 L 144 176 L 144 192 L 144 192 L 144 336 L 144 336 L 240 336 L 240 336 L 240 192 L 240 192 L 240 176 L 240 176 L 256 176 L 336 176 L 336 167 L 336 167 L 192 23 L 192 23 L 48 167 L 48 167 L 48 176 L 48 176 L 128 176 L 128 176 Z M 8 448 L 0 448 L 8 448 L 0 448 L 0 432 L 0 432 L 8 432 L 384 432 L 384 448 L 384 448 L 376 448 L 8 448 Z" />
</svg>