<svg xmlns="http://www.w3.org/2000/svg" viewBox="0 0 480 480">
  <path d="M 409 16 L 413 20 L 409 16 L 413 20 L 215 97 L 215 97 L 213 97 L 213 97 L 212 99 L 212 99 L 99 212 L 99 212 L 97 213 L 97 213 L 97 215 L 97 215 L 20 413 L 20 413 L 16 409 L 16 409 L 16 320 L 16 320 Q 17 235 58 167 Q 98 98 167 58 Q 235 17 320 16 L 409 16 L 409 16 Z M 55 448 L 32 425 L 55 448 L 32 425 L 111 222 L 111 222 L 222 111 L 222 111 L 425 32 L 425 32 L 448 55 L 448 55 L 369 258 L 369 258 L 258 369 L 258 369 L 55 448 L 55 448 Z M 67 460 L 266 383 L 67 460 L 266 383 L 267 383 L 267 383 L 268 381 L 268 381 L 381 268 L 381 268 L 383 267 L 383 267 L 383 265 L 383 265 L 460 67 L 460 67 L 464 71 L 464 71 L 464 160 L 464 160 Q 463 245 422 314 Q 382 382 313 423 Q 245 463 160 464 L 71 464 L 71 464 L 67 460 L 67 460 Z M 480 64 L 416 0 L 480 64 L 416 0 L 320 0 L 320 0 Q 231 1 159 44 Q 86 86 44 159 Q 1 231 0 320 L 0 416 L 0 416 L 64 480 L 64 480 L 160 480 L 160 480 Q 249 479 321 436 Q 394 394 436 321 Q 479 249 480 160 L 480 64 L 480 64 Z" />
</svg>