<svg xmlns="http://www.w3.org/2000/svg" viewBox="0 0 576 512">
  <path d="M 464 496 L 112 496 L 464 496 L 112 496 L 112 352 L 112 352 L 96 352 L 96 352 L 96 496 L 96 496 L 96 512 L 96 512 L 112 512 L 480 512 L 480 496 L 480 496 L 480 352 L 480 352 L 464 352 L 464 352 L 464 496 L 464 496 Z M 464 176 L 464 240 L 464 176 L 464 240 L 480 240 L 480 240 L 480 160 L 480 160 L 320 0 L 320 0 L 112 0 L 96 0 L 96 16 L 96 16 L 96 240 L 96 240 L 112 240 L 112 240 L 112 16 L 112 16 L 304 16 L 304 16 L 304 168 L 304 168 L 304 176 L 304 176 L 312 176 L 464 176 Z M 457 160 L 320 160 L 457 160 L 320 160 L 320 23 L 320 23 L 457 160 L 457 160 Z M 8 288 L 0 288 L 8 288 L 0 288 L 0 304 L 0 304 L 8 304 L 160 304 L 160 288 L 160 288 L 152 288 L 8 288 Z M 232 288 L 224 288 L 232 288 L 224 288 L 224 304 L 224 304 L 232 304 L 352 304 L 352 288 L 352 288 L 344 288 L 232 288 Z M 424 288 L 416 288 L 424 288 L 416 288 L 416 304 L 416 304 L 424 304 L 576 304 L 576 288 L 576 288 L 568 288 L 424 288 Z" />
</svg>