<svg xmlns="http://www.w3.org/2000/svg" viewBox="0 0 640 448">
  <path d="M 392 0 L 384 0 L 392 0 L 384 0 L 384 16 L 384 16 L 392 16 L 456 16 L 456 96 L 456 96 L 16 96 L 0 96 L 0 112 L 0 112 L 0 432 L 0 432 L 0 448 L 0 448 L 16 448 L 640 448 L 640 432 L 640 432 L 640 112 L 640 112 L 640 96 L 640 96 L 624 96 L 472 96 L 472 16 L 472 16 L 536 16 L 544 16 L 544 0 L 544 0 L 536 0 L 392 0 Z M 456 112 L 472 112 L 456 112 L 624 112 L 624 432 L 624 432 L 16 432 L 16 432 L 16 112 L 16 112 L 456 112 L 456 112 Z M 96 48 L 96 64 L 96 48 L 96 64 L 104 64 L 256 64 L 256 48 L 256 48 L 248 48 L 96 48 Z M 464 176 Q 490 176 512 189 L 512 189 L 512 189 Q 534 202 547 224 Q 560 247 560 272 Q 560 297 547 320 Q 534 342 512 355 Q 490 368 464 368 Q 438 368 416 355 Q 394 342 381 320 Q 368 297 368 272 Q 368 247 381 224 Q 394 202 416 189 Q 438 176 464 176 L 464 176 Z M 464 384 Q 494 384 520 369 L 520 369 L 520 369 Q 546 354 561 328 Q 576 302 576 272 Q 576 242 561 216 Q 546 190 520 175 Q 494 160 464 160 Q 434 160 408 175 Q 382 190 367 216 Q 352 242 352 272 Q 352 302 367 328 Q 382 354 408 369 Q 434 384 464 384 L 464 384 Z M 108 204 Q 127 186 151 179 L 151 179 L 151 179 Q 176 173 201 179 Q 226 186 244 204 Q 262 222 269 247 Q 275 272 269 297 Q 262 321 244 340 Q 225 358 201 365 Q 176 371 151 365 Q 126 358 108 340 Q 90 322 83 297 Q 77 272 83 247 Q 90 223 108 204 L 108 204 Z M 255 351 Q 277 329 284 301 L 284 301 L 284 301 Q 292 272 284 243 Q 276 214 255 193 Q 234 172 205 164 Q 176 156 147 164 Q 119 171 97 193 Q 75 215 68 243 Q 60 272 68 301 Q 76 330 97 351 Q 118 372 147 380 Q 176 388 205 380 Q 233 373 255 351 L 255 351 Z M 472 208 L 456 208 L 472 208 L 456 208 L 456 216 L 456 216 L 456 272 L 456 272 L 456 280 L 456 280 L 472 280 L 472 280 L 472 272 L 472 272 L 472 216 L 472 216 L 472 208 L 472 208 Z M 221 238 L 227 232 L 221 238 L 227 232 L 216 221 L 216 221 L 210 227 L 210 227 L 170 266 L 170 266 L 165 272 L 165 272 L 176 283 L 176 283 L 182 278 L 182 278 L 221 238 L 221 238 Z" />
</svg>