<svg xmlns="http://www.w3.org/2000/svg" viewBox="0 0 320 512">
  <path d="M 120 176 L 120 192 L 120 176 L 120 192 L 120 496 L 120 496 L 200 496 L 200 496 L 200 192 L 200 192 L 200 176 L 200 176 L 216 176 L 304 176 L 304 167 L 304 167 L 160 23 L 160 23 L 16 167 L 16 167 L 16 176 L 16 176 L 104 176 L 120 176 Z M 0 160 L 149 11 L 0 160 L 149 11 L 160 0 L 160 0 L 171 11 L 171 11 L 320 160 L 320 160 L 320 176 L 320 176 L 320 192 L 320 192 L 304 192 L 216 192 L 216 208 L 216 208 L 216 496 L 216 496 L 216 512 L 216 512 L 200 512 L 104 512 L 104 496 L 104 496 L 104 208 L 104 208 L 104 192 L 104 192 L 88 192 L 0 192 L 0 176 L 0 176 L 0 160 L 0 160 Z" />
</svg>