<svg xmlns="http://www.w3.org/2000/svg" viewBox="0 0 512 512">
  <path d="M 121.26316 94.31579 L 121.26316 134.73685 L 168.42105 134.73685 L 208.8421 134.73685 L 256 134.73685 L 256 94.31579 L 121.26316 94.31579 L 121.26316 94.31579 Z M 80.8421 134.73685 L 80.8421 94.31579 L 40.42105 94.31579 L 40.42105 134.73685 L 80.8421 134.73685 L 80.8421 134.73685 Z M 40.42105 175.1579 L 40.42105 222.3158 L 168.42105 222.3158 L 168.42105 175.1579 L 40.42105 175.1579 L 40.42105 175.1579 Z M 40.42105 309.89474 L 80.8421 309.89474 L 80.8421 262.73685 L 40.42105 262.73685 L 40.42105 309.89474 L 40.42105 309.89474 Z M 40.42105 350.3158 L 40.42105 390.73685 L 168.42105 390.73685 L 168.42105 350.3158 L 121.26316 350.3158 L 80.8421 350.3158 L 40.42105 350.3158 L 40.42105 350.3158 Z M 121.26316 309.89474 L 216.42105 309.89474 Q 215.57895 316.6316 215.57895 323.3684 Q 215.57895 337.6842 218.10527 350.3158 L 208.8421 350.3158 L 208.8421 390.73685 L 229.89473 390.73685 Q 240.8421 413.4737 256.8421 431.1579 L 40.42105 431.1579 L 0 431.1579 L 0 390.73685 L 0 94.31579 L 0 53.894737 L 40.42105 53.894737 L 336.8421 53.894737 L 377.26315 53.894737 L 377.26315 94.31579 L 377.26315 149.89473 Q 363.78946 138.10527 350.3158 127.1579 Q 321.6842 149.89473 296.42105 175.1579 L 208.8421 175.1579 L 208.8421 222.3158 L 256 222.3158 Q 241.6842 241.6842 230.73685 262.73685 L 121.26316 262.73685 L 121.26316 309.89474 L 121.26316 309.89474 Z M 336.8421 134.73685 L 336.8421 94.31579 L 296.42105 94.31579 L 296.42105 134.73685 L 336.8421 134.73685 L 336.8421 134.73685 Z M 405.05264 215.57895 Q 428.6316 189.47368 431.1579 188.63158 Q 432.8421 189.47368 452.21054 209.6842 Q 471.57895 229.89473 490.94736 261.05264 Q 510.3158 291.3684 512 323.3684 Q 510.3158 380.6316 472.42105 418.5263 Q 434.5263 456.42105 377.26315 458.10526 Q 320 456.42105 282.10526 418.5263 Q 244.21053 380.6316 242.52632 323.3684 Q 244.21053 285.4737 270.3158 248.42105 Q 296.42105 211.36842 322.5263 186.94737 Q 348.6316 162.52632 350.3158 161.6842 Q 351.1579 162.52632 367.1579 176.8421 Q 384 191.1579 405.05264 215.57895 L 405.05264 215.57895 Z M 419.3684 391.57895 Q 438.73685 377.26315 442.94736 355.3684 L 442.94736 355.3684 Q 447.1579 332.6316 436.21054 310.73685 Q 435.3684 308.21054 433.6842 305.6842 Q 432 303.1579 430.3158 300.6316 L 400 336 Q 399.1579 335.1579 387.3684 320 Q 375.57895 304.8421 362.94736 288.8421 Q 350.3158 272.8421 347.78946 269.4737 Q 329.26315 292.21054 319.1579 308.21054 Q 309.89474 324.21054 309.89474 338.5263 Q 310.73685 369.6842 330.10526 386.5263 Q 348.6316 404.21054 378.10526 404.21054 Q 400.8421 404.21054 419.3684 391.57895 L 419.3684 391.57895 Z" />
</svg>