<svg xmlns="http://www.w3.org/2000/svg" viewBox="0 0 576 512">
  <path d="M 405 16 Q 373 17 355 44 L 302 128 L 302 128 L 328 128 L 408 128 Q 432 127 448 112 Q 463 96 464 72 Q 463 48 448 32 Q 432 17 408 16 L 405 16 L 405 16 Z M 274 128 L 221 44 L 274 128 L 221 44 Q 203 17 171 16 L 168 16 L 168 16 Q 144 17 128 32 Q 113 48 112 72 Q 113 96 128 112 Q 144 127 168 128 L 248 128 L 274 128 Z M 288 121 L 342 35 L 288 121 L 342 35 Q 364 1 405 0 L 408 0 L 408 0 Q 439 1 459 21 Q 479 41 480 72 Q 479 107 453 128 L 560 128 L 576 128 L 576 144 L 576 144 L 576 496 L 576 496 L 576 512 L 576 512 L 560 512 L 0 512 L 0 496 L 0 496 L 0 144 L 0 144 L 0 128 L 0 128 L 16 128 L 123 128 Q 97 107 96 72 Q 97 41 117 21 Q 137 1 168 0 L 171 0 L 171 0 Q 212 1 234 35 L 288 121 L 288 121 Z M 168 144 L 16 144 L 168 144 L 16 144 L 16 288 L 16 288 L 560 288 L 560 288 L 560 144 L 560 144 L 408 144 L 305 144 L 374 227 L 374 227 L 379 233 L 379 233 L 367 243 L 367 243 L 362 237 L 362 237 L 288 149 L 288 149 L 214 237 L 214 237 L 209 243 L 209 243 L 197 233 L 197 233 L 202 227 L 202 227 L 271 144 L 271 144 L 248 144 L 168 144 Z M 16 304 L 16 400 L 16 304 L 16 400 L 560 400 L 560 400 L 560 304 L 560 304 L 16 304 L 16 304 Z M 560 496 L 560 416 L 560 496 L 560 416 L 16 416 L 16 416 L 16 496 L 16 496 L 560 496 L 560 496 Z" />
</svg>