<svg xmlns="http://www.w3.org/2000/svg" viewBox="0 0 320 512">
  <path d="M 80 80 L 128 48 L 80 80 L 128 48 L 128 32 L 128 32 Q 128 18 137 9 Q 146 0 160 0 Q 174 0 183 9 Q 192 18 192 32 L 192 48 L 192 48 L 240 80 L 240 80 L 240 112 L 240 112 L 256 112 L 256 112 L 256 128 L 256 128 L 256 160 L 256 160 L 278 182 L 278 182 Q 319 224 320 284 L 320 496 L 320 496 L 320 512 L 320 512 L 304 512 L 0 512 L 0 496 L 0 496 L 0 284 L 0 284 Q 1 224 42 182 L 64 160 L 64 160 L 64 128 L 64 128 L 64 112 L 64 112 L 80 112 L 80 112 L 80 80 L 80 80 Z M 96 112 L 224 112 L 96 112 L 224 112 L 224 89 L 224 89 L 183 61 L 183 61 L 176 57 L 176 57 L 176 48 L 176 48 L 176 32 L 176 32 Q 175 17 160 16 Q 145 17 144 32 L 144 48 L 144 48 L 144 57 L 144 57 L 137 61 L 137 61 L 96 89 L 96 89 L 96 112 L 96 112 Z M 240 128 L 224 128 L 240 128 L 80 128 L 80 160 L 80 160 L 240 160 L 240 160 L 240 128 L 240 128 Z M 54 193 Q 17 231 16 284 L 16 304 L 16 304 L 160 304 L 160 304 L 160 320 L 160 320 L 16 320 L 16 320 L 16 400 L 16 400 L 160 400 L 160 400 L 160 416 L 160 416 L 16 416 L 16 416 L 16 496 L 16 496 L 304 496 L 304 496 L 304 284 L 304 284 Q 303 231 267 193 L 249 176 L 249 176 L 240 176 L 71 176 L 54 193 L 54 193 Z" />
</svg>