<svg xmlns="http://www.w3.org/2000/svg" viewBox="0 0 640 512">
  <path d="M 392 96 Q 415 95 427 76 Q 437 56 427 36 Q 415 17 392 16 Q 369 17 357 36 Q 347 56 357 76 Q 369 95 392 96 L 392 96 Z M 392 0 Q 424 1 440 28 Q 456 56 440 84 Q 424 111 392 112 Q 360 111 344 84 Q 328 56 344 28 Q 360 1 392 0 L 392 0 Z M 315 122 Q 320 118 325 122 L 411 192 L 411 192 L 488 192 L 496 192 L 496 208 L 496 208 L 488 208 L 405 208 L 403 206 L 403 206 L 320 138 L 320 138 L 246 202 L 246 202 Q 237 211 237 222 Q 238 233 248 241 L 348 305 L 348 305 L 352 308 L 352 308 L 352 312 L 352 312 L 352 416 L 352 416 L 352 424 L 352 424 L 336 424 L 336 424 L 336 416 L 336 416 L 336 316 L 336 316 L 240 254 L 240 254 Q 223 242 221 223 Q 220 204 235 190 L 315 122 L 315 122 Z M 482 256 L 542 256 L 482 256 L 550 256 L 550 264 L 550 264 L 550 278 L 550 278 Q 555 280 560 282 L 570 272 L 570 272 L 576 267 L 576 267 L 581 272 L 581 272 L 624 315 L 624 315 L 630 320 L 630 320 L 624 326 L 624 326 L 614 336 L 614 336 Q 617 341 619 346 L 632 346 L 640 346 L 640 354 L 640 354 L 640 414 L 640 414 L 640 422 L 640 422 L 632 422 L 619 422 Q 617 427 614 433 L 624 442 L 624 442 L 630 448 L 630 448 L 624 454 L 624 454 L 581 496 L 581 496 L 576 502 L 576 502 L 570 496 L 570 496 L 560 486 L 560 486 Q 555 489 550 491 L 550 504 L 550 504 L 550 512 L 550 512 L 542 512 L 474 512 L 474 504 L 474 504 L 474 491 L 474 491 Q 469 489 464 486 L 454 496 L 454 496 L 448 502 L 448 502 L 443 496 L 443 496 L 400 454 L 400 454 L 394 448 L 394 448 L 400 442 L 400 442 L 410 433 L 410 433 Q 407 427 406 422 L 392 422 L 384 422 L 384 414 L 384 414 L 384 354 L 384 354 L 384 346 L 384 346 L 392 346 L 406 346 Q 408 341 410 336 L 400 326 L 400 326 L 395 320 L 395 320 L 400 315 L 400 315 L 443 272 L 443 272 L 448 266 L 448 266 L 454 272 L 454 272 L 464 282 L 464 282 Q 469 279 474 278 L 474 264 L 474 264 L 474 256 L 474 256 L 482 256 L 482 256 Z M 490 283 L 490 289 L 490 283 L 490 289 L 484 291 L 484 291 Q 475 294 466 299 L 461 301 L 461 301 L 456 297 L 456 297 L 448 289 L 448 289 L 417 320 L 417 320 L 425 328 L 425 328 L 430 333 L 430 333 L 427 338 L 427 338 Q 422 346 419 356 L 417 362 L 417 362 L 411 362 L 400 362 L 400 406 L 400 406 L 411 406 L 417 406 L 419 412 L 419 412 Q 422 421 427 430 L 429 435 L 429 435 L 425 440 L 425 440 L 417 448 L 417 448 L 448 479 L 448 479 L 456 471 L 456 471 L 461 466 L 461 466 L 466 469 L 466 469 Q 474 474 484 477 L 490 479 L 490 479 L 490 485 L 490 485 L 490 496 L 490 496 L 534 496 L 534 496 L 534 485 L 534 485 L 534 479 L 534 479 L 540 477 L 540 477 Q 549 474 558 469 L 563 466 L 563 466 L 567 471 L 567 471 L 575 479 L 575 479 L 606 448 L 606 448 L 598 440 L 598 440 L 594 435 L 594 435 L 597 430 L 597 430 Q 602 421 605 412 L 606 406 L 606 406 L 612 406 L 624 406 L 624 362 L 624 362 L 612 362 L 606 362 L 605 356 L 605 356 Q 602 347 597 338 L 594 333 L 594 333 L 598 328 L 598 328 L 606 320 L 606 320 L 575 289 L 575 289 L 567 297 L 567 297 L 563 302 L 563 302 L 558 299 L 558 299 Q 549 294 540 291 L 534 289 L 534 289 L 534 283 L 534 283 L 534 272 L 534 272 L 490 272 L 490 272 L 490 283 L 490 283 Z M 472 384 Q 473 407 492 419 Q 512 429 532 419 Q 551 407 552 384 Q 551 361 532 349 Q 512 339 492 349 Q 473 361 472 384 L 472 384 Z M 512 440 Q 480 439 464 412 Q 448 384 464 356 Q 480 329 512 328 Q 544 329 560 356 Q 576 384 560 412 Q 544 439 512 440 L 512 440 Z M 90 256 L 98 256 L 90 256 L 166 256 L 166 264 L 166 264 L 166 278 L 166 278 Q 171 280 176 282 L 186 272 L 186 272 L 192 267 L 192 267 L 197 272 L 197 272 L 240 315 L 240 315 L 245 320 L 245 320 L 240 326 L 240 326 L 230 336 L 230 336 Q 233 341 234 346 L 248 346 L 256 346 L 256 354 L 256 354 L 256 414 L 256 414 L 256 422 L 256 422 L 248 422 L 234 422 Q 233 427 230 433 L 240 442 L 240 442 L 245 448 L 245 448 L 240 454 L 240 454 L 197 496 L 197 496 L 192 502 L 192 502 L 186 496 L 186 496 L 176 486 L 176 486 Q 171 489 166 491 L 166 504 L 166 504 L 166 512 L 166 512 L 158 512 L 90 512 L 90 504 L 90 504 L 90 491 L 90 491 Q 85 489 80 486 L 70 496 L 70 496 L 64 501 L 64 501 L 59 496 L 59 496 L 16 453 L 16 453 L 11 448 L 11 448 L 16 442 L 16 442 L 26 432 L 26 432 Q 24 427 22 422 L 8 422 L 0 422 L 0 414 L 0 414 L 0 354 L 0 354 L 0 346 L 0 346 L 8 346 L 22 346 Q 24 341 26 336 L 16 326 L 16 326 L 11 320 L 11 320 L 16 315 L 16 315 L 59 272 L 59 272 L 64 266 L 64 266 L 70 272 L 70 272 L 80 282 L 80 282 Q 85 279 90 278 L 90 264 L 90 264 L 90 256 L 90 256 Z M 106 272 L 106 283 L 106 272 L 106 283 L 106 289 L 106 289 L 100 291 L 100 291 Q 91 294 82 299 L 77 301 L 77 301 L 73 297 L 73 297 L 65 289 L 65 289 L 33 320 L 33 320 L 41 328 L 41 328 L 45 333 L 45 333 L 43 338 L 43 338 Q 38 347 35 356 L 33 362 L 33 362 L 27 362 L 16 362 L 16 406 L 16 406 L 27 406 L 33 406 L 35 412 L 35 412 Q 38 421 43 430 L 45 435 L 45 435 L 41 440 L 41 440 L 33 448 L 33 448 L 64 479 L 64 479 L 72 471 L 72 471 L 76 466 L 76 466 L 82 469 L 82 469 Q 90 474 100 477 L 106 479 L 106 479 L 106 485 L 106 485 L 106 496 L 106 496 L 150 496 L 150 496 L 150 485 L 150 485 L 150 479 L 150 479 L 155 477 L 155 477 Q 165 474 174 469 L 179 466 L 179 466 L 183 471 L 183 471 L 191 479 L 191 479 L 222 448 L 222 448 L 214 440 L 214 440 L 210 435 L 210 435 L 213 430 L 213 430 Q 218 421 221 412 L 222 406 L 222 406 L 228 406 L 240 406 L 240 362 L 240 362 L 228 362 L 222 362 L 221 356 L 221 356 Q 218 347 213 338 L 210 333 L 210 333 L 214 328 L 214 328 L 222 320 L 222 320 L 191 289 L 191 289 L 183 297 L 183 297 L 179 302 L 179 302 L 174 299 L 174 299 Q 165 294 155 291 L 150 289 L 150 289 L 150 283 L 150 283 L 150 272 L 150 272 L 106 272 L 106 272 Z M 128 344 Q 105 345 93 364 Q 83 384 93 404 Q 105 423 128 424 Q 151 423 163 404 Q 173 384 163 364 Q 151 345 128 344 L 128 344 Z M 184 384 Q 183 416 156 432 Q 128 448 100 432 Q 73 416 72 384 Q 73 352 100 336 Q 128 320 156 336 Q 183 352 184 384 L 184 384 Z M 250 80 L 201 80 L 250 80 L 201 80 L 150 122 L 150 122 L 184 169 L 184 169 L 266 102 L 266 102 L 250 80 L 250 80 Z M 288 105 L 194 182 L 288 105 L 194 182 L 181 192 L 181 192 L 172 179 L 172 179 L 128 119 L 128 119 L 196 64 L 196 64 L 258 64 L 258 64 L 288 105 L 288 105 Z" />
</svg>