<svg xmlns="http://www.w3.org/2000/svg" viewBox="0 0 512 512">
  <path d="M 256 16 Q 321 17 376 48 L 376 48 L 376 48 Q 431 80 464 136 Q 496 193 496 256 Q 496 319 464 376 Q 431 432 376 464 Q 321 495 256 496 Q 191 495 136 464 Q 81 432 48 376 Q 16 319 16 256 Q 16 193 48 136 Q 81 80 136 48 Q 191 17 256 16 L 256 16 Z M 256 512 Q 326 511 384 478 L 384 478 L 384 478 Q 442 444 478 384 Q 512 323 512 256 Q 512 189 478 128 Q 442 68 384 34 Q 326 1 256 0 Q 186 1 128 34 Q 70 68 34 128 Q 0 189 0 256 Q 0 323 34 384 Q 70 444 128 478 Q 186 511 256 512 L 256 512 Z M 307 307 L 153 359 L 307 307 L 153 359 L 205 205 L 205 205 L 359 153 L 359 153 L 307 307 L 307 307 Z M 365 134 L 192 192 L 365 134 L 192 192 L 134 365 L 134 365 L 128 384 L 128 384 L 147 378 L 147 378 L 320 320 L 320 320 L 378 147 L 378 147 L 384 128 L 384 128 L 365 134 L 365 134 Z M 240 256 Q 241 241 256 240 Q 271 241 272 256 Q 271 271 256 272 Q 241 271 240 256 L 240 256 Z M 288 256 Q 288 242 279 233 L 279 233 L 279 233 Q 270 224 256 224 Q 242 224 233 233 Q 224 242 224 256 Q 224 270 233 279 Q 242 288 256 288 Q 270 288 279 279 Q 288 270 288 256 L 288 256 Z" />
</svg>