<svg xmlns="http://www.w3.org/2000/svg" viewBox="0 0 640 448">
  <path d="M 232 0 L 224 0 L 232 0 L 224 0 L 224 8 L 224 8 L 224 160 L 224 160 L 48 160 L 32 160 L 32 176 L 32 176 L 32 336 L 32 336 L 8 336 L 0 336 L 0 352 L 0 352 L 8 352 L 80 352 Q 81 393 108 420 Q 135 447 176 448 Q 217 447 244 420 Q 271 393 272 352 L 368 352 L 368 352 Q 369 393 396 420 Q 423 447 464 448 Q 505 447 532 420 Q 559 393 560 352 L 592 352 L 640 352 L 640 336 L 640 336 L 632 336 L 608 336 L 608 176 L 608 176 L 608 160 L 608 160 L 592 160 L 514 160 L 510 155 L 510 155 L 390 3 L 390 3 L 388 0 L 388 0 L 384 0 L 232 0 Z M 592 176 L 592 336 L 592 176 L 592 336 L 559 336 L 559 336 Q 552 301 526 279 Q 500 257 464 256 Q 428 257 402 279 Q 376 301 369 336 L 271 336 L 271 336 Q 264 301 238 279 Q 212 257 176 256 Q 139 257 114 279 Q 88 301 81 336 L 48 336 L 48 336 L 48 176 L 48 176 L 592 176 L 592 176 Z M 494 160 L 240 160 L 494 160 L 240 160 L 240 16 L 240 16 L 380 16 L 380 16 L 494 160 L 494 160 Z M 96 352 Q 97 307 136 283 Q 176 261 216 283 Q 255 307 256 352 Q 255 397 216 421 Q 176 443 136 421 Q 97 397 96 352 L 96 352 Z M 464 272 Q 509 273 533 312 Q 555 352 533 392 Q 509 431 464 432 Q 419 431 395 392 Q 373 352 395 312 Q 419 273 464 272 L 464 272 Z" />
</svg>