<svg xmlns="http://www.w3.org/2000/svg" viewBox="0 0 512 448">
  <path d="M 16 432 L 496 432 L 16 432 L 496 432 L 496 381 L 496 381 L 367 192 L 367 192 L 259 192 L 259 192 L 198 254 L 198 254 L 192 259 L 192 259 L 186 254 L 186 254 L 136 204 L 136 204 L 16 381 L 16 381 L 16 432 L 16 432 Z M 357 176 L 256 28 L 357 176 L 256 28 L 146 190 L 146 190 L 192 237 L 192 237 L 250 178 L 250 178 L 253 176 L 253 176 L 256 176 L 357 176 Z M 127 190 L 246 14 L 127 190 L 246 14 L 256 0 L 256 0 L 266 14 L 266 14 L 512 376 L 512 376 L 512 432 L 512 432 L 512 448 L 512 448 L 496 448 L 0 448 L 0 432 L 0 432 L 0 376 L 0 376 L 125 192 L 125 192 L 125 192 L 125 192 L 126 190 L 127 190 Z" />
</svg>