<svg xmlns="http://www.w3.org/2000/svg" viewBox="0 0 384 512">
  <path d="M 295 201 L 301 205 L 295 201 L 301 205 Q 337 233 353 266 Q 369 300 368 312 L 368 336 L 368 336 L 200 336 L 200 336 L 200 232 L 200 232 L 200 224 L 200 224 L 184 224 L 184 224 L 184 232 L 184 232 L 184 336 L 184 336 L 16 336 L 16 336 L 16 312 L 16 312 Q 16 312 16 312 Q 16 312 16 312 Q 15 296 31 263 Q 47 230 83 204 L 89 200 L 89 200 L 89 192 L 89 192 L 103 16 L 103 16 L 281 16 L 281 16 L 295 194 L 295 194 L 296 201 L 295 201 Z M 200 352 L 368 352 L 200 352 L 384 352 L 384 336 L 384 336 L 384 312 L 384 312 Q 384 294 367 258 Q 349 223 311 193 L 297 16 L 297 16 L 336 16 L 344 16 L 344 0 L 344 0 L 336 0 L 40 0 L 40 16 L 40 16 L 48 16 L 87 16 L 73 191 L 73 191 Q 35 220 17 256 Q 0 291 0 312 L 0 336 L 0 336 L 0 352 L 0 352 L 16 352 L 184 352 L 184 504 L 184 504 L 184 512 L 184 512 L 200 512 L 200 512 L 200 504 L 200 504 L 200 352 L 200 352 Z" />
</svg>