<svg xmlns="http://www.w3.org/2000/svg" viewBox="0 0 640 510">
  <path d="M 366 60 L 414 12 L 366 60 L 414 12 L 402 0 L 402 0 L 354 48 L 354 48 L 349 54 L 349 54 L 360 65 L 360 65 L 366 60 L 366 60 Z M 462 156 L 510 108 L 462 156 L 510 108 L 498 96 L 498 96 L 450 144 L 450 144 L 445 150 L 445 150 L 456 161 L 456 161 L 462 156 L 462 156 Z M 502 20 L 507 14 L 502 20 L 507 14 L 496 3 L 496 3 L 490 8 L 490 8 L 337 162 L 337 162 Q 341 132 332 104 Q 323 75 301 53 L 290 41 L 290 41 L 278 30 L 278 30 L 267 41 L 267 41 L 256 53 L 256 53 Q 227 82 227 121 Q 227 159 256 188 L 283 216 L 283 216 L 235 264 L 235 264 Q 239 234 230 206 Q 221 177 199 154 L 188 143 L 188 143 L 176 132 L 176 132 L 165 143 L 165 143 L 154 154 L 154 154 Q 126 184 126 222 Q 126 261 154 290 L 181 318 L 181 318 L 133 365 L 133 365 Q 138 336 129 307 Q 119 279 97 256 L 86 245 L 86 245 L 75 234 L 75 234 L 63 245 L 63 245 L 52 256 L 52 256 Q 24 286 24 324 Q 24 363 52 392 L 79 419 L 79 419 L 6 493 L 6 493 L 0 499 L 0 499 L 11 510 L 11 510 L 17 504 L 17 504 L 91 431 L 91 431 L 120 460 L 120 460 Q 149 488 188 488 Q 226 488 256 460 L 267 449 L 267 449 L 278 437 L 278 437 L 267 426 L 267 426 L 255 415 L 255 415 Q 232 392 202 383 Q 172 374 142 379 L 192 329 L 192 329 L 222 358 L 222 358 Q 242 378 269 384 Q 295 390 321 381 Q 320 374 320 366 L 320 364 L 320 364 Q 298 373 274 369 Q 251 365 233 347 L 204 318 L 204 318 L 220 302 L 220 302 Q 246 290 275 292 Q 304 294 329 310 Q 332 302 335 295 Q 292 269 244 278 L 294 227 L 294 227 L 323 256 L 323 256 Q 334 267 346 273 Q 351 267 356 260 Q 344 254 335 245 L 306 216 L 306 216 L 321 200 L 321 200 Q 347 188 374 190 Q 401 191 425 205 Q 434 201 444 198 Q 398 166 346 176 L 502 20 L 502 20 Z M 290 64 Q 314 89 320 121 L 320 121 L 320 121 Q 326 153 315 184 L 294 204 L 294 204 L 267 177 L 267 177 Q 243 152 243 120 Q 243 89 267 64 L 278 53 L 278 53 L 289 64 L 290 64 Z M 188 166 Q 212 191 218 223 L 218 223 L 218 223 Q 225 255 213 286 L 192 306 L 192 306 L 165 279 L 165 279 Q 142 254 142 222 Q 142 190 165 166 L 176 154 L 176 154 L 188 166 L 188 166 Z M 86 268 Q 110 293 116 325 L 116 325 L 116 325 Q 123 357 111 388 L 91 408 L 91 408 L 63 381 L 63 381 Q 40 356 40 324 Q 40 292 63 268 L 75 256 L 75 256 L 86 268 L 86 268 Z M 102 419 L 118 404 L 102 419 L 118 404 Q 150 389 184 395 Q 218 400 244 426 L 256 437 L 256 437 L 244 449 L 244 449 Q 220 472 188 472 Q 156 472 131 449 L 102 419 L 102 419 Z M 368 366 Q 368 331 385 302 L 385 302 L 385 302 Q 402 273 432 255 Q 462 238 496 238 Q 530 238 560 255 Q 590 273 607 302 Q 624 331 624 366 Q 624 401 607 430 Q 590 459 560 477 Q 530 494 496 494 Q 462 494 432 477 Q 402 459 385 430 Q 368 401 368 366 L 368 366 Z M 640 366 Q 640 327 621 294 L 621 294 L 621 294 Q 602 261 568 241 Q 534 222 496 222 Q 458 222 424 241 Q 390 261 371 294 Q 352 327 352 366 Q 352 405 371 438 Q 390 471 424 491 Q 458 510 496 510 Q 534 510 568 491 Q 602 471 621 438 Q 640 405 640 366 L 640 366 Z M 508 442 L 508 418 L 508 442 L 508 418 L 484 418 L 484 418 L 484 442 L 484 442 L 508 442 L 508 442 Z M 504 278 L 488 278 L 504 278 L 488 278 L 488 286 L 488 286 L 488 382 L 488 382 L 488 390 L 488 390 L 504 390 L 504 390 L 504 382 L 504 382 L 504 286 L 504 286 L 504 278 L 504 278 Z" />
</svg>