<svg xmlns="http://www.w3.org/2000/svg" viewBox="0 0 384 512">
  <path d="M 128 368 L 112 368 L 128 368 L 0 368 L 0 352 L 0 352 L 0 16 L 0 16 L 0 0 L 0 0 L 16 0 L 384 0 L 384 16 L 384 16 L 384 352 L 384 352 L 384 368 L 384 368 L 368 368 L 256 368 L 256 384 L 256 384 L 256 496 L 256 496 L 256 512 L 256 512 L 240 512 L 128 512 L 128 496 L 128 496 L 128 384 L 128 384 L 128 368 L 128 368 Z M 128 352 L 144 352 L 128 352 L 144 352 L 144 368 L 144 368 L 144 496 L 144 496 L 240 496 L 240 496 L 240 368 L 240 368 L 240 352 L 240 352 L 256 352 L 368 352 L 368 272 L 368 272 L 16 272 L 16 272 L 16 352 L 16 352 L 128 352 L 128 352 Z M 368 256 L 368 16 L 368 256 L 368 16 L 272 16 L 272 16 L 272 104 L 272 104 L 272 112 L 272 112 L 256 112 L 256 112 L 256 104 L 256 104 L 256 16 L 256 16 L 192 16 L 192 16 L 192 88 L 192 88 L 192 96 L 192 96 L 176 96 L 176 96 L 176 88 L 176 88 L 176 16 L 176 16 L 96 16 L 96 16 L 96 120 L 96 120 L 96 128 L 96 128 L 80 128 L 80 128 L 80 120 L 80 120 L 80 16 L 80 16 L 16 16 L 16 16 L 16 256 L 16 256 L 368 256 L 368 256 Z M 176 448 Q 177 433 192 432 Q 207 433 208 448 Q 207 463 192 464 Q 177 463 176 448 L 176 448 Z" />
</svg>