<svg xmlns="http://www.w3.org/2000/svg" viewBox="0 0 448 512">
  <path d="M 112 144 Q 112 144 112 144 L 112 144 L 112 144 Q 112 144 112 144 L 336 144 L 336 144 Q 336 144 336 144 Q 336 144 336 144 L 336 67 L 336 67 L 224 18 L 224 18 L 112 67 L 112 67 L 112 144 L 112 144 Z M 336 160 L 245 160 L 336 160 L 245 160 L 223 204 L 223 204 L 221 208 L 221 208 L 216 208 L 117 208 Q 128 243 156 265 Q 185 287 224 288 Q 272 287 303 255 Q 335 224 336 176 L 336 160 L 336 160 Q 336 160 336 160 Q 336 160 336 160 L 336 160 Z M 337 237 Q 320 267 291 285 L 291 285 L 291 285 Q 261 304 224 304 Q 187 304 157 285 Q 128 267 111 237 L 109 238 L 109 238 L 48 284 L 48 284 L 48 304 L 48 304 L 120 304 L 128 304 L 128 320 L 128 320 L 120 320 L 32 320 L 32 312 L 32 312 L 32 280 L 32 280 L 32 276 L 32 276 L 35 274 L 35 274 L 96 228 L 96 228 L 96 176 L 96 176 L 96 160 L 96 160 Q 96 160 96 160 Q 96 160 96 160 L 96 152 L 96 152 L 96 144 L 96 144 Q 96 144 96 144 Q 96 144 96 144 L 96 56 L 96 56 L 224 0 L 224 0 L 352 56 L 352 56 L 352 144 L 352 144 Q 352 144 352 144 Q 352 144 352 144 L 352 152 L 352 152 L 352 160 L 352 160 Q 352 160 352 160 Q 352 160 352 160 L 352 176 L 352 176 L 352 228 L 352 228 L 413 274 L 413 274 L 416 276 L 416 276 L 416 280 L 416 280 L 416 312 L 416 312 L 416 320 L 416 320 L 408 320 L 320 320 L 320 304 L 320 304 L 328 304 L 400 304 L 400 284 L 400 284 L 339 238 L 339 238 L 337 237 L 337 237 Z M 112 160 L 112 176 L 112 160 L 112 176 Q 112 184 113 192 L 211 192 L 211 192 L 227 160 L 227 160 L 112 160 L 112 160 Q 112 160 112 160 Q 112 160 112 160 L 112 160 Z M 224 453 L 213 441 L 224 453 L 213 441 L 139 368 L 139 368 L 75 368 L 75 368 L 24 496 L 24 496 L 424 496 L 424 496 L 373 368 L 373 368 L 309 368 L 309 368 L 235 441 L 235 441 L 224 453 L 224 453 Z M 302 352 L 384 352 L 302 352 L 384 352 L 442 496 L 442 496 L 448 512 L 448 512 L 431 512 L 0 512 L 6 496 L 6 496 L 64 352 L 64 352 L 146 352 L 146 352 L 213 419 L 213 419 L 224 430 L 224 430 L 235 419 L 235 419 L 302 352 L 302 352 Z M 232 48 L 232 72 L 232 48 L 232 72 L 256 72 L 264 72 L 264 88 L 264 88 L 256 88 L 232 88 L 232 112 L 232 112 L 232 120 L 232 120 L 216 120 L 216 120 L 216 112 L 216 112 L 216 88 L 216 88 L 192 88 L 184 88 L 184 72 L 184 72 L 192 72 L 216 72 L 216 48 L 216 48 L 216 40 L 216 40 L 232 40 L 232 40 L 232 48 L 232 48 Z" />
</svg>