<svg xmlns="http://www.w3.org/2000/svg" viewBox="0 0 640 512">
  <path d="M 320 112 Q 347 111 362 88 Q 374 64 362 40 Q 347 17 320 16 Q 293 17 278 40 Q 266 64 278 88 Q 293 111 320 112 L 320 112 Z M 320 0 Q 356 1 375 32 Q 393 64 375 96 Q 356 127 320 128 Q 284 127 265 96 Q 247 64 265 32 Q 284 1 320 0 L 320 0 Z M 239 176 L 233 336 L 239 176 L 233 336 L 256 336 L 407 336 L 401 176 L 401 176 L 239 176 L 239 176 Z M 312 352 L 312 504 L 312 352 L 312 504 L 312 512 L 312 512 L 304 512 L 248 512 L 248 504 L 248 504 L 248 352 L 248 352 L 232 352 L 216 352 L 217 336 L 217 336 L 224 160 L 224 160 L 416 160 L 416 160 L 423 336 L 423 336 L 424 352 L 424 352 L 408 352 L 392 352 L 392 504 L 392 504 L 392 512 L 392 512 L 384 512 L 328 512 L 328 504 L 328 504 L 328 352 L 328 352 L 312 352 L 312 352 Z M 376 496 L 376 352 L 376 496 L 376 352 L 344 352 L 344 352 L 344 496 L 344 496 L 376 496 L 376 496 Z M 296 352 L 264 352 L 296 352 L 264 352 L 264 496 L 264 496 L 296 496 L 296 496 L 296 352 L 296 352 Z M 112 464 Q 170 463 216 433 L 216 452 L 216 452 Q 169 479 112 480 L 72 480 L 64 480 L 64 472 L 64 472 L 64 448 L 64 448 Q 65 378 104 326 Q 56 288 28 233 Q 1 178 0 112 L 0 40 L 0 40 L 0 32 L 0 32 L 8 32 L 35 32 Q 99 32 154 58 Q 209 83 248 128 L 226 128 L 226 128 Q 189 91 140 69 Q 91 48 35 48 L 16 48 L 16 48 L 16 112 L 16 112 Q 17 174 42 226 Q 68 277 114 313 L 120 318 L 120 318 L 126 323 L 126 323 L 121 329 L 121 329 L 117 335 L 117 335 Q 81 384 80 448 L 80 464 L 80 464 L 112 464 L 112 464 Z M 424 452 L 424 434 L 424 452 L 424 434 Q 470 463 528 464 L 560 464 L 560 464 L 560 448 L 560 448 Q 559 384 523 335 L 519 329 L 519 329 L 514 323 L 514 323 L 520 318 L 520 318 L 526 313 L 526 313 Q 572 277 598 226 Q 623 174 624 112 L 624 48 L 624 48 L 605 48 L 605 48 Q 549 48 500 69 Q 451 91 414 128 L 392 128 L 392 128 Q 431 83 486 58 Q 541 32 605 32 L 632 32 L 640 32 L 640 40 L 640 40 L 640 112 L 640 112 Q 639 178 612 233 Q 584 288 536 326 Q 575 378 576 448 L 576 472 L 576 472 L 576 480 L 576 480 L 568 480 L 528 480 Q 471 479 424 452 L 424 452 Z" />
</svg>