<svg xmlns="http://www.w3.org/2000/svg" viewBox="0 0 640 512">
  <path d="M 224 16 L 248 16 L 224 16 L 248 16 Q 321 18 371 67 Q 420 116 424 189 L 424 192 L 424 192 L 427 194 L 427 194 L 496 256 L 496 256 L 496 303 L 496 303 L 512 316 L 512 316 L 512 252 L 512 252 L 512 249 L 512 249 L 509 246 L 509 246 L 440 185 L 440 185 Q 434 107 381 54 Q 327 2 248 0 L 224 0 L 224 0 Q 176 0 135 18 L 150 30 L 150 30 Q 185 16 224 16 L 224 16 Z M 27 117 Q 1 165 0 224 Q 2 315 64 381 L 64 504 L 64 504 L 64 512 L 64 512 L 80 512 L 80 512 L 80 504 L 80 504 L 80 378 L 80 378 L 80 374 L 80 374 L 78 372 L 78 372 Q 18 310 16 224 Q 17 171 40 127 L 27 117 L 27 117 Z M 547 343 L 572 363 L 547 343 L 572 363 Q 576 359 576 352 Q 575 337 560 336 Q 551 336 546 343 L 547 343 Z M 610 393 L 634 412 L 610 393 L 634 412 Q 640 408 640 400 Q 639 385 624 384 Q 614 384 610 393 L 610 393 Z M 432 436 L 404 414 L 432 436 L 404 414 L 336 409 L 336 409 L 336 383 L 336 383 L 363 382 L 363 382 L 344 367 L 344 367 L 327 368 L 327 368 L 320 369 L 320 369 L 320 376 L 320 376 L 320 416 L 320 416 L 320 423 L 320 423 L 327 424 L 327 424 L 416 431 L 416 431 L 416 464 L 416 464 L 312 464 L 304 464 L 304 472 L 304 472 L 304 504 L 304 504 L 304 512 L 304 512 L 320 512 L 320 512 L 320 504 L 320 504 L 320 480 L 320 480 L 424 480 L 432 480 L 432 472 L 432 472 L 432 436 L 432 436 Z M 640 304 Q 639 289 624 288 Q 609 289 608 304 Q 609 319 624 320 Q 639 319 640 304 L 640 304 Z M 16 5 L 10 0 L 16 5 L 10 0 L 0 13 L 0 13 L 6 18 L 6 18 L 624 507 L 624 507 L 630 512 L 630 512 L 640 500 L 640 500 L 634 495 L 634 495 L 16 5 L 16 5 Z" />
</svg>