<svg xmlns="http://www.w3.org/2000/svg" viewBox="0 0 320 512">
  <path d="M 160 16 Q 187 17 202 40 Q 214 64 202 88 Q 187 111 160 112 Q 133 111 118 88 Q 106 64 118 40 Q 133 17 160 16 L 160 16 Z M 160 128 Q 196 127 215 96 Q 233 64 215 32 Q 196 1 160 0 Q 124 1 105 32 Q 87 64 105 96 Q 124 127 160 128 L 160 128 Z M 73 192 L 77 192 L 73 192 L 247 192 L 250 189 L 250 189 L 315 93 L 315 93 L 320 86 L 320 86 L 307 77 L 307 77 L 302 84 L 302 84 L 239 176 L 239 176 L 81 176 L 81 176 L 18 84 L 18 84 L 13 77 L 13 77 L 0 86 L 0 86 L 5 93 L 5 93 L 70 189 L 70 189 L 73 192 L 73 192 Z M 96 232 L 96 224 L 96 232 L 96 224 L 80 224 L 80 224 L 80 232 L 80 232 L 80 504 L 80 504 L 80 512 L 80 512 L 88 512 L 144 512 L 144 504 L 144 504 L 144 384 L 144 384 L 176 384 L 176 384 L 176 504 L 176 504 L 176 512 L 176 512 L 184 512 L 240 512 L 240 504 L 240 504 L 240 232 L 240 232 L 240 224 L 240 224 L 224 224 L 224 224 L 224 232 L 224 232 L 224 496 L 224 496 L 192 496 L 192 496 L 192 376 L 192 376 L 192 368 L 192 368 L 184 368 L 128 368 L 128 376 L 128 376 L 128 496 L 128 496 L 96 496 L 96 496 L 96 232 L 96 232 Z" />
</svg>