<svg xmlns="http://www.w3.org/2000/svg" viewBox="0 0 512 512">
  <path d="M 96 16 L 16 16 L 96 16 L 16 16 L 16 96 L 16 96 L 0 96 L 0 96 L 0 16 L 0 16 L 0 0 L 0 0 L 16 0 L 96 0 L 96 16 L 96 16 Z M 128 16 L 128 0 L 128 16 L 128 0 L 224 0 L 224 0 L 224 16 L 224 16 L 128 16 L 128 16 Z M 0 128 L 16 128 L 0 128 L 16 128 L 16 224 L 16 224 L 0 224 L 0 224 L 0 128 L 0 128 Z M 336 16 L 256 16 L 336 16 L 256 16 L 256 0 L 256 0 L 336 0 L 352 0 L 352 16 L 352 16 L 352 128 L 352 128 L 336 128 L 336 128 L 336 16 L 336 16 Z M 336 160 L 352 160 L 336 160 L 352 160 L 352 176 L 352 176 L 352 256 L 352 256 L 352 336 L 352 336 L 352 352 L 352 352 L 336 352 L 160 352 L 160 336 L 160 336 L 160 256 L 160 256 L 160 176 L 160 176 L 160 160 L 160 160 L 176 160 L 336 160 Z M 160 384 L 176 384 L 160 384 L 176 384 L 176 496 L 176 496 L 256 496 L 256 496 L 256 512 L 256 512 L 176 512 L 160 512 L 160 496 L 160 496 L 160 384 L 160 384 Z M 128 352 L 16 352 L 128 352 L 0 352 L 0 336 L 0 336 L 0 256 L 0 256 L 16 256 L 16 256 L 16 336 L 16 336 L 128 336 L 128 336 L 128 352 L 128 352 Z M 384 176 L 384 160 L 384 176 L 384 160 L 496 160 L 512 160 L 512 176 L 512 176 L 512 256 L 512 256 L 496 256 L 496 256 L 496 176 L 496 176 L 384 176 L 384 176 Z M 416 512 L 416 496 L 416 512 L 416 496 L 496 496 L 496 496 L 496 416 L 496 416 L 512 416 L 512 416 L 512 496 L 512 496 L 512 512 L 512 512 L 496 512 L 416 512 Z M 496 288 L 512 288 L 496 288 L 512 288 L 512 384 L 512 384 L 496 384 L 496 384 L 496 288 L 496 288 Z M 288 512 L 288 496 L 288 512 L 288 496 L 384 496 L 384 496 L 384 512 L 384 512 L 288 512 L 288 512 Z M 176 176 L 176 336 L 176 176 L 176 336 L 336 336 L 336 336 L 336 176 L 336 176 L 176 176 L 176 176 Z" />
</svg>