<svg xmlns="http://www.w3.org/2000/svg" viewBox="0 0 448 448">
  <path d="M 176 16 L 176 176 L 176 16 L 176 176 L 16 176 L 16 176 L 16 16 L 16 16 L 176 16 L 176 16 Z M 16 0 L 0 0 L 16 0 L 0 0 L 0 16 L 0 16 L 0 176 L 0 176 L 0 192 L 0 192 L 16 192 L 192 192 L 192 176 L 192 176 L 192 16 L 192 16 L 192 0 L 192 0 L 176 0 L 16 0 Z M 176 272 L 176 432 L 176 272 L 176 432 L 16 432 L 16 432 L 16 272 L 16 272 L 176 272 L 176 272 Z M 16 256 L 0 256 L 16 256 L 0 256 L 0 272 L 0 272 L 0 432 L 0 432 L 0 448 L 0 448 L 16 448 L 192 448 L 192 432 L 192 432 L 192 272 L 192 272 L 192 256 L 192 256 L 176 256 L 16 256 Z M 272 16 L 432 16 L 272 16 L 432 16 L 432 176 L 432 176 L 272 176 L 272 176 L 272 16 L 272 16 Z M 256 0 L 256 16 L 256 0 L 256 16 L 256 176 L 256 176 L 256 192 L 256 192 L 272 192 L 448 192 L 448 176 L 448 176 L 448 16 L 448 16 L 448 0 L 448 0 L 432 0 L 256 0 Z M 256 256 L 256 264 L 256 256 L 256 264 L 256 440 L 256 440 L 256 448 L 256 448 L 272 448 L 272 448 L 272 440 L 272 440 L 272 272 L 272 272 L 304 272 L 304 272 L 304 376 L 304 376 L 304 384 L 304 384 L 312 384 L 368 384 L 368 376 L 368 376 L 368 272 L 368 272 L 400 272 L 400 272 L 400 376 L 400 376 L 400 384 L 400 384 L 408 384 L 448 384 L 448 368 L 448 368 L 440 368 L 416 368 L 416 264 L 416 264 L 416 256 L 416 256 L 408 256 L 352 256 L 352 264 L 352 264 L 352 368 L 352 368 L 320 368 L 320 368 L 320 264 L 320 264 L 320 256 L 320 256 L 312 256 L 256 256 Z M 336 80 L 368 80 L 336 80 L 368 80 L 368 112 L 368 112 L 336 112 L 336 112 L 336 80 L 336 80 Z M 320 64 L 320 80 L 320 64 L 320 80 L 320 112 L 320 112 L 320 128 L 320 128 L 336 128 L 384 128 L 384 112 L 384 112 L 384 80 L 384 80 L 384 64 L 384 64 L 368 64 L 320 64 Z M 112 80 L 112 112 L 112 80 L 112 112 L 80 112 L 80 112 L 80 80 L 80 80 L 112 80 L 112 80 Z M 80 64 L 64 64 L 80 64 L 64 64 L 64 80 L 64 80 L 64 112 L 64 112 L 64 128 L 64 128 L 80 128 L 128 128 L 128 112 L 128 112 L 128 80 L 128 80 L 128 64 L 128 64 L 112 64 L 80 64 Z M 80 336 L 112 336 L 80 336 L 112 336 L 112 368 L 112 368 L 80 368 L 80 368 L 80 336 L 80 336 Z M 64 320 L 64 336 L 64 320 L 64 336 L 64 368 L 64 368 L 64 384 L 64 384 L 80 384 L 128 384 L 128 368 L 128 368 L 128 336 L 128 336 L 128 320 L 128 320 L 112 320 L 64 320 Z M 320 416 L 320 448 L 320 416 L 320 448 L 352 448 L 352 448 L 352 416 L 352 416 L 320 416 L 320 416 Z M 448 416 L 416 416 L 448 416 L 416 416 L 416 448 L 416 448 L 448 448 L 448 448 L 448 416 L 448 416 Z" />
</svg>