<svg xmlns="http://www.w3.org/2000/svg" viewBox="0 0 640 448">
  <path d="M 0 0 L 8 0 L 0 0 L 416 0 L 416 8 L 416 8 L 416 280 L 416 280 L 416 288 L 416 288 L 400 288 L 400 288 L 400 280 L 400 280 L 400 16 L 400 16 L 16 16 L 16 16 L 16 280 L 16 280 L 16 288 L 16 288 L 0 288 L 0 288 L 0 280 L 0 280 L 0 8 L 0 8 L 0 0 L 0 0 Z M 448 96 L 456 96 L 448 96 L 564 96 L 566 99 L 566 99 L 638 195 L 638 195 L 640 197 L 640 197 L 640 200 L 640 200 L 640 368 L 640 368 L 640 376 L 640 376 L 632 376 L 608 376 Q 604 407 582 427 Q 560 447 528 448 Q 496 447 474 427 Q 452 407 448 376 L 448 376 L 448 376 L 448 368 L 448 368 L 304 368 L 304 368 Q 303 402 281 425 Q 258 447 224 448 Q 200 448 181 435 Q 162 423 152 403 Q 142 423 123 435 Q 104 448 80 448 Q 46 447 23 425 Q 1 402 0 368 Q 1 334 23 311 Q 46 289 80 288 Q 104 288 123 301 Q 142 313 152 333 Q 162 313 181 301 Q 200 288 224 288 Q 254 289 275 306 Q 296 324 302 352 L 448 352 L 448 352 L 448 320 L 448 320 L 448 104 L 448 104 L 448 96 L 448 96 Z M 624 360 L 624 208 L 624 360 L 624 208 L 464 208 L 464 208 L 464 320 L 464 320 Q 487 289 528 288 Q 560 289 582 309 Q 604 329 608 360 L 624 360 L 624 360 Z M 616 192 L 556 112 L 616 192 L 556 112 L 464 112 L 464 112 L 464 192 L 464 192 L 616 192 L 616 192 Z M 120 72 L 120 232 L 120 72 L 120 232 L 120 240 L 120 240 L 104 240 L 104 240 L 104 232 L 104 232 L 104 72 L 104 72 L 104 64 L 104 64 L 120 64 L 120 64 L 120 72 L 120 72 Z M 216 72 L 216 232 L 216 72 L 216 232 L 216 240 L 216 240 L 200 240 L 200 240 L 200 232 L 200 232 L 200 72 L 200 72 L 200 64 L 200 64 L 216 64 L 216 64 L 216 72 L 216 72 Z M 312 72 L 312 232 L 312 72 L 312 232 L 312 240 L 312 240 L 296 240 L 296 240 L 296 232 L 296 232 L 296 72 L 296 72 L 296 64 L 296 64 L 312 64 L 312 64 L 312 72 L 312 72 Z M 528 432 Q 564 431 583 400 Q 601 368 583 336 Q 564 305 528 304 Q 492 305 473 336 Q 455 368 473 400 Q 492 431 528 432 L 528 432 Z M 288 368 Q 287 332 256 313 Q 224 295 192 313 Q 161 332 160 368 Q 161 404 192 423 Q 224 441 256 423 Q 287 404 288 368 L 288 368 Z M 80 432 Q 116 431 135 400 Q 153 368 135 336 Q 116 305 80 304 Q 44 305 25 336 Q 7 368 25 400 Q 44 431 80 432 L 80 432 Z" />
</svg>