<svg xmlns="http://www.w3.org/2000/svg" viewBox="0 0 512 512">
  <path d="M 352 0 L 352 16 L 352 0 L 352 16 L 360 16 L 453 16 L 288 181 L 288 181 L 181 90 L 181 90 L 176 85 L 176 85 L 171 90 L 171 90 L 43 202 L 43 202 L 53 214 L 53 214 L 176 107 L 176 107 L 283 198 L 283 198 L 288 203 L 288 203 L 294 198 L 294 198 L 464 27 L 464 27 L 464 120 L 464 120 L 464 128 L 464 128 L 480 128 L 480 128 L 480 120 L 480 120 L 480 8 L 480 8 L 480 0 L 480 0 L 472 0 L 352 0 Z M 496 272 L 496 328 L 496 272 L 496 328 Q 472 327 456 312 Q 441 296 440 272 L 496 272 L 496 272 Z M 88 272 L 424 272 L 88 272 L 424 272 Q 425 303 445 323 Q 465 343 496 344 L 496 424 L 496 424 Q 465 425 445 445 Q 425 465 424 496 L 88 496 L 88 496 Q 87 465 67 445 Q 47 425 16 424 L 16 344 L 16 344 Q 47 343 67 323 Q 87 303 88 272 L 88 272 Z M 440 496 Q 441 472 456 456 L 456 456 L 456 456 Q 472 441 496 440 L 496 496 L 496 496 L 440 496 L 440 496 Z M 16 440 Q 40 441 56 456 L 56 456 L 56 456 Q 71 472 72 496 L 16 496 L 16 496 L 16 440 L 16 440 Z M 72 272 Q 71 296 56 312 L 56 312 L 56 312 Q 40 327 16 328 L 16 272 L 16 272 L 72 272 L 72 272 Z M 16 256 L 0 256 L 16 256 L 0 256 L 0 272 L 0 272 L 0 496 L 0 496 L 0 512 L 0 512 L 16 512 L 512 512 L 512 496 L 512 496 L 512 272 L 512 272 L 512 256 L 512 256 L 496 256 L 16 256 Z M 208 384 Q 209 357 232 342 Q 256 330 280 342 Q 303 357 304 384 Q 303 411 280 426 Q 256 438 232 426 Q 209 411 208 384 L 208 384 Z M 320 384 Q 319 348 288 329 Q 256 311 224 329 Q 193 348 192 384 Q 193 420 224 439 Q 256 457 288 439 Q 319 420 320 384 L 320 384 Z" />
</svg>