<svg xmlns="http://www.w3.org/2000/svg" viewBox="0 0 96 352">
  <path d="M 16 16 L 16 80 L 16 16 L 16 80 L 80 80 L 80 80 L 80 16 L 80 16 L 16 16 L 16 16 Z M 0 0 L 16 0 L 0 0 L 96 0 L 96 16 L 96 16 L 96 80 L 96 80 L 96 96 L 96 96 L 80 96 L 0 96 L 0 80 L 0 80 L 0 16 L 0 16 L 0 0 L 0 0 Z M 80 144 L 16 144 L 80 144 L 16 144 L 16 208 L 16 208 L 80 208 L 80 208 L 80 144 L 80 144 Z M 16 128 L 80 128 L 16 128 L 96 128 L 96 144 L 96 144 L 96 208 L 96 208 L 96 224 L 96 224 L 80 224 L 0 224 L 0 208 L 0 208 L 0 144 L 0 144 L 0 128 L 0 128 L 16 128 L 16 128 Z M 80 272 L 16 272 L 80 272 L 16 272 L 16 336 L 16 336 L 80 336 L 80 336 L 80 272 L 80 272 Z M 16 256 L 80 256 L 16 256 L 96 256 L 96 272 L 96 272 L 96 336 L 96 336 L 96 352 L 96 352 L 80 352 L 0 352 L 0 336 L 0 336 L 0 272 L 0 272 L 0 256 L 0 256 L 16 256 L 16 256 Z" />
</svg>