<svg xmlns="http://www.w3.org/2000/svg" viewBox="0 0 632 513">
  <path d="M 488 0 L 440 0 L 488 0 L 440 0 L 440 24 L 440 24 L 440 32 L 440 32 L 440 192 L 440 192 L 440 512 L 440 512 L 488 512 L 488 512 L 488 192 L 488 192 L 632 192 L 632 192 L 632 32 L 632 32 L 488 32 L 488 32 L 488 24 L 488 24 L 488 0 L 488 0 Z M 408 133 L 278 37 L 408 133 L 278 37 L 264 26 L 264 26 L 250 37 L 250 37 L 20 205 L 20 205 L 0 220 L 0 220 L 29 258 L 29 258 L 48 244 L 48 244 L 56 238 L 56 238 L 56 488 L 56 488 L 56 512 L 56 512 L 80 512 L 184 512 L 184 513 L 184 513 L 232 513 L 232 513 L 232 512 L 232 512 L 296 512 L 296 512 L 296 513 L 296 513 L 344 513 L 344 513 L 344 512 L 344 512 L 408 512 L 408 512 L 408 464 L 408 464 L 344 464 L 344 464 L 344 328 L 344 328 L 344 304 L 344 304 L 320 304 L 184 304 L 184 328 L 184 328 L 184 464 L 184 464 L 104 464 L 104 464 L 104 218 L 104 218 L 104 203 L 104 203 L 264 86 L 264 86 L 408 193 L 408 193 L 408 133 L 408 133 Z M 296 352 L 296 464 L 296 352 L 296 464 L 232 464 L 232 464 L 232 352 L 232 352 L 296 352 L 296 352 Z" />
</svg>