<svg xmlns="http://www.w3.org/2000/svg" viewBox="0 0 640 384">
  <path d="M 0 0 L 8 0 L 0 0 L 640 0 L 640 16 L 640 16 L 632 16 L 608 16 L 608 96 L 608 96 L 632 96 L 640 96 L 640 112 L 640 112 L 632 112 L 608 112 L 608 184 L 608 184 L 632 184 L 640 184 L 640 200 L 640 200 L 632 200 L 608 200 L 608 272 L 608 272 L 632 272 L 640 272 L 640 288 L 640 288 L 632 288 L 608 288 L 608 368 L 608 368 L 632 368 L 640 368 L 640 384 L 640 384 L 632 384 L 0 384 L 0 368 L 0 368 L 8 368 L 32 368 L 32 288 L 32 288 L 8 288 L 0 288 L 0 272 L 0 272 L 8 272 L 32 272 L 32 200 L 32 200 L 8 200 L 0 200 L 0 184 L 0 184 L 8 184 L 32 184 L 32 112 L 32 112 L 8 112 L 0 112 L 0 96 L 0 96 L 8 96 L 32 96 L 32 16 L 32 16 L 8 16 L 0 16 L 0 0 L 0 0 Z M 48 96 L 48 112 L 48 96 L 48 112 L 48 184 L 48 184 L 48 200 L 48 200 L 48 272 L 48 272 L 48 288 L 48 288 L 48 368 L 48 368 L 128 368 L 128 368 L 128 16 L 128 16 L 48 16 L 48 16 L 48 96 L 48 96 Z M 144 368 L 496 368 L 144 368 L 496 368 L 496 16 L 496 16 L 144 16 L 144 16 L 144 368 L 144 368 Z M 512 16 L 512 368 L 512 16 L 512 368 L 592 368 L 592 368 L 592 288 L 592 288 L 592 272 L 592 272 L 592 200 L 592 200 L 592 184 L 592 184 L 592 112 L 592 112 L 592 96 L 592 96 L 592 16 L 592 16 L 512 16 L 512 16 Z" />
</svg>