<svg xmlns="http://www.w3.org/2000/svg" viewBox="0 0 576 460">
  <path d="M 284 410 L 286 410 L 284 410 L 286 410 Q 286 410 286 410 Q 352 391 421 383 Q 490 375 560 401 L 560 44 L 560 44 Q 495 16 429 23 Q 362 30 292 50 L 290 50 L 290 50 Q 290 50 289 50 Q 224 69 155 77 Q 86 85 16 59 L 16 416 L 16 416 Q 81 444 147 437 Q 214 430 284 410 L 284 410 Z M 0 34 Q 8 38 16 42 Q 84 69 152 61 Q 220 54 288 34 Q 288 34 288 34 Q 360 14 432 7 Q 504 0 576 34 L 576 408 L 576 408 L 576 426 L 576 426 Q 568 422 560 418 Q 492 391 424 399 Q 356 407 288 426 Q 288 426 288 426 Q 216 446 144 453 Q 72 460 0 426 L 0 52 L 0 52 L 0 34 L 0 34 Z M 216 230 Q 217 268 238 293 L 238 293 L 238 293 Q 258 317 288 318 Q 318 317 338 293 Q 359 268 360 230 Q 359 192 338 167 Q 318 143 288 142 Q 258 143 238 167 Q 217 192 216 230 L 216 230 Z M 288 126 Q 326 127 351 157 L 351 157 L 351 157 Q 375 187 376 230 Q 375 273 351 303 Q 326 333 288 334 Q 250 333 225 303 Q 201 273 200 230 Q 201 187 225 157 Q 250 127 288 126 L 288 126 Z M 544 134 L 536 134 L 544 134 L 528 134 Q 497 133 477 113 Q 457 93 456 62 L 456 54 L 456 54 L 456 46 L 456 46 L 472 46 L 472 46 L 472 54 L 472 54 L 472 62 L 472 62 Q 473 86 488 102 Q 504 117 528 118 L 536 118 L 544 118 L 544 134 L 544 134 Z M 40 190 L 32 190 L 40 190 L 32 190 L 32 174 L 32 174 L 40 174 L 48 174 Q 72 173 88 158 Q 103 142 104 118 L 104 110 L 104 110 L 104 102 L 104 102 L 120 102 L 120 102 L 120 110 L 120 110 L 120 118 L 120 118 Q 119 149 99 169 Q 79 189 48 190 L 40 190 L 40 190 Z M 544 270 L 544 286 L 544 270 L 544 286 L 536 286 L 528 286 Q 504 287 488 302 Q 473 318 472 342 L 472 350 L 472 350 L 472 358 L 472 358 L 456 358 L 456 358 L 456 350 L 456 350 L 456 342 L 456 342 Q 457 311 477 291 Q 497 271 528 270 L 536 270 L 544 270 Z M 40 326 L 48 326 L 40 326 L 48 326 Q 79 327 99 347 Q 119 367 120 398 L 120 406 L 120 406 L 120 414 L 120 414 L 104 414 L 104 414 L 104 406 L 104 406 L 104 398 L 104 398 Q 103 374 88 358 Q 72 343 48 342 L 40 342 L 32 342 L 32 326 L 32 326 L 40 326 L 40 326 Z" />
</svg>