<svg xmlns="http://www.w3.org/2000/svg" viewBox="0 0 640 512">
  <path d="M 176 336 Q 219 336 256 315 L 256 315 L 256 315 Q 293 293 315 256 Q 336 218 336 176 Q 336 134 315 96 Q 293 59 256 37 Q 219 16 176 16 Q 133 16 96 37 Q 59 59 37 96 Q 16 134 16 176 Q 16 218 37 256 Q 59 293 96 315 Q 133 336 176 336 L 176 336 Z M 352 176 Q 350 249 303 298 L 303 298 L 303 298 Q 256 347 184 352 L 184 416 L 184 416 L 264 416 L 272 416 L 272 432 L 272 432 L 264 432 L 184 432 L 184 504 L 184 504 L 184 512 L 184 512 L 168 512 L 168 512 L 168 504 L 168 504 L 168 432 L 168 432 L 88 432 L 80 432 L 80 416 L 80 416 L 88 416 L 168 416 L 168 352 L 168 352 Q 96 347 49 298 Q 2 249 0 176 Q 2 101 52 52 Q 101 2 176 0 Q 251 2 300 52 Q 350 101 352 176 L 352 176 Z M 286 353 Q 331 398 400 400 Q 468 398 513 353 Q 558 308 560 240 Q 558 172 513 127 Q 468 82 400 80 Q 381 80 363 84 Q 359 77 355 70 Q 377 64 400 64 Q 470 66 519 110 L 613 16 L 613 16 L 488 16 L 480 16 L 480 0 L 480 0 L 488 0 L 640 0 L 640 8 L 640 8 L 640 152 L 640 152 L 640 160 L 640 160 L 624 160 L 624 160 L 624 152 L 624 152 L 624 27 L 624 27 L 530 121 L 530 121 Q 574 170 576 240 Q 574 315 524 364 Q 475 414 400 416 Q 322 414 272 361 Q 279 357 286 352 L 286 353 Z" />
</svg>