<svg xmlns="http://www.w3.org/2000/svg" viewBox="0 0 352 512">
  <path d="M 192 176 L 192 192 L 192 176 L 192 192 L 192 416 L 192 416 L 192 432 L 192 432 L 208 432 L 336 432 L 336 496 L 336 496 L 128 496 L 128 496 L 128 192 L 128 192 L 128 176 L 128 176 L 112 176 L 16 176 L 16 167 L 16 167 L 160 23 L 160 23 L 304 167 L 304 167 L 304 176 L 304 176 L 208 176 L 192 176 Z M 320 160 L 171 11 L 320 160 L 171 11 L 160 0 L 160 0 L 149 11 L 149 11 L 0 160 L 0 160 L 0 176 L 0 176 L 0 192 L 0 192 L 16 192 L 112 192 L 112 208 L 112 208 L 112 496 L 112 496 L 112 512 L 112 512 L 128 512 L 352 512 L 352 496 L 352 496 L 352 432 L 352 432 L 352 416 L 352 416 L 336 416 L 208 416 L 208 400 L 208 400 L 208 208 L 208 208 L 208 192 L 208 192 L 224 192 L 320 192 L 320 176 L 320 176 L 320 160 L 320 160 Z" />
</svg>