<svg xmlns="http://www.w3.org/2000/svg" viewBox="0 0 521 483">
  <path d="M 274 5 L 280 0 L 274 5 L 280 0 L 291 11 L 291 11 L 286 17 L 286 17 L 211 91 L 211 91 L 504 91 L 512 91 L 512 99 L 512 99 L 512 219 L 512 219 L 512 227 L 512 227 L 496 227 L 496 227 L 496 219 L 496 219 L 496 107 L 496 107 L 211 107 L 211 107 L 286 181 L 286 181 L 291 187 L 291 187 L 280 198 L 280 198 L 274 193 L 274 193 L 186 105 L 186 105 L 181 99 L 181 99 L 186 93 L 186 93 L 274 5 L 274 5 Z M 238 261 L 326 349 L 238 261 L 326 349 L 331 355 L 331 355 L 326 361 L 326 361 L 238 449 L 238 449 L 232 454 L 232 454 L 221 443 L 221 443 L 226 437 L 226 437 L 301 363 L 301 363 L 16 363 L 16 363 L 16 475 L 16 475 L 16 483 L 16 483 L 0 483 L 0 483 L 0 475 L 0 475 L 0 355 L 0 355 L 0 347 L 0 347 L 8 347 L 301 347 L 226 273 L 226 273 L 221 267 L 221 267 L 232 256 L 232 256 L 238 261 L 238 261 Z M 448 403 Q 475 402 490 379 Q 502 355 490 331 Q 475 308 448 307 Q 421 308 406 331 Q 394 355 406 379 Q 421 402 448 403 L 448 403 Z M 448 291 Q 484 292 503 323 Q 521 355 503 387 Q 484 418 448 419 Q 412 418 393 387 Q 375 355 393 323 Q 412 292 448 291 L 448 291 Z M 16 99 Q 17 126 40 141 Q 64 153 88 141 Q 111 126 112 99 Q 111 72 88 57 Q 64 45 40 57 Q 17 72 16 99 L 16 99 Z M 128 99 Q 127 135 96 154 Q 64 172 32 154 Q 1 135 0 99 Q 1 63 32 44 Q 64 26 96 44 Q 127 63 128 99 L 128 99 Z" />
</svg>