<svg xmlns="http://www.w3.org/2000/svg" viewBox="0 0 640 434">
  <path d="M 128 156 Q 154 144 222 119 L 222 119 L 222 119 Q 290 94 367 67 L 367 67 L 367 67 Q 445 40 500 20 L 500 20 L 500 20 Q 556 1 559 0 L 559 0 L 559 0 Q 559 0 559 0 L 640 162 L 640 162 Q 639 163 606 185 Q 573 208 523 242 Q 510 221 491 205 Q 515 189 536 175 Q 550 165 562 157 L 578 146 L 578 146 L 535 59 L 535 59 L 516 66 L 516 66 Q 461 85 383 112 Q 305 139 239 164 Q 173 188 149 199 Q 113 219 101 255 Q 89 291 106 328 Q 125 364 161 376 Q 198 388 235 371 Q 244 366 261 356 Q 268 379 282 399 Q 266 409 256 414 Q 213 434 169 427 Q 125 420 92 389 L 43 413 L 43 413 L 0 327 L 0 327 L 49 303 L 49 303 Q 44 258 65 218 Q 85 178 128 156 L 128 156 Z M 400 381 Q 436 380 455 349 Q 473 317 455 285 Q 436 254 400 253 Q 364 254 345 285 Q 327 317 345 349 Q 364 380 400 381 L 400 381 Z M 400 205 Q 430 205 456 220 L 456 220 L 456 220 Q 482 235 497 261 Q 512 287 512 317 Q 512 347 497 373 Q 482 399 456 414 Q 430 429 400 429 Q 370 429 344 414 Q 318 399 303 373 Q 288 347 288 317 Q 288 287 303 261 Q 318 235 344 220 Q 370 205 400 205 L 400 205 Z" />
</svg>