<svg xmlns="http://www.w3.org/2000/svg" viewBox="0 0 458 472">
  <path d="M 397 68 Q 446 120 435 202 Q 429 242 408 283 Q 388 323 352 359 Q 316 395 276 415 Q 235 436 195 442 Q 128 451 80 419 L 141 308 L 141 308 L 332 181 L 332 181 L 334 180 L 334 180 L 335 178 L 335 178 L 392 63 L 392 63 Q 394 66 397 68 L 397 68 Z M 379 53 L 321 169 L 379 53 L 321 169 L 131 296 L 131 296 L 129 297 L 129 297 L 128 298 L 128 298 L 67 410 L 67 410 Q 64 407 61 404 Q 12 352 23 270 Q 29 230 50 189 Q 70 149 106 113 Q 142 77 182 57 Q 223 36 263 30 Q 331 21 379 53 L 379 53 Z M 387 39 Q 326 0 245 17 L 245 17 L 245 17 Q 165 34 95 102 Q 45 152 22 210 Q 0 269 6 323 Q 13 377 50 415 Q 54 420 59 424 Q 65 429 71 433 Q 72 433 72 434 Q 133 472 213 455 Q 294 438 364 370 Q 413 320 436 262 Q 458 203 452 149 Q 445 95 408 57 Q 404 52 399 49 Q 393 43 387 39 L 387 39 Z" />
</svg>