<svg xmlns="http://www.w3.org/2000/svg" viewBox="0 0 384 448">
  <path d="M 64 0 L 56 0 L 64 0 L 56 0 L 56 8 L 56 8 L 56 88 L 56 88 Q 56 123 80 149 L 133 205 L 133 205 L 44 269 L 44 269 Q 1 301 0 354 L 0 440 L 0 440 L 0 448 L 0 448 L 8 448 L 228 448 L 231 445 L 231 445 L 286 368 L 286 368 L 361 448 L 361 448 L 383 448 L 383 448 L 295 354 L 295 354 L 379 237 L 379 237 L 384 230 L 384 230 L 371 221 L 371 221 L 366 227 L 366 227 L 284 342 L 284 342 L 157 208 L 157 208 L 227 159 L 227 159 Q 263 132 264 87 L 264 8 L 264 8 L 264 0 L 264 0 L 256 0 L 64 0 Z M 218 145 L 146 196 L 218 145 L 146 196 L 92 138 L 92 138 Q 72 117 72 88 L 72 16 L 72 16 L 248 16 L 248 16 L 248 87 L 248 87 Q 247 123 218 145 L 218 145 Z M 53 282 L 144 217 L 53 282 L 144 217 L 275 356 L 275 356 L 220 432 L 220 432 L 16 432 L 16 432 L 16 354 L 16 354 Q 17 309 53 282 L 53 282 Z" />
</svg>