<svg xmlns="http://www.w3.org/2000/svg" viewBox="0 0 448 512">
  <path d="M 0 56 Q 1 32 16 16 L 16 16 L 16 16 Q 32 1 56 0 L 440 0 L 448 0 L 448 8 L 448 8 L 448 408 L 448 408 L 448 416 L 448 416 L 440 416 L 416 416 L 416 496 L 416 496 L 440 496 L 448 496 L 448 512 L 448 512 L 440 512 L 56 512 Q 32 511 16 496 Q 1 480 0 456 L 0 56 L 0 56 Z M 56 416 Q 39 416 28 428 L 28 428 L 28 428 Q 16 439 16 456 Q 16 473 28 484 Q 39 496 56 496 L 400 496 L 400 496 L 400 416 L 400 416 L 56 416 L 56 416 Z M 16 417 Q 32 401 56 400 L 432 400 L 432 400 L 432 16 L 432 16 L 56 16 L 56 16 Q 39 16 28 28 Q 16 39 16 56 L 16 417 L 16 417 Z M 208 80 L 272 80 L 208 80 L 280 80 L 280 88 L 280 88 L 280 144 L 280 144 L 336 144 L 344 144 L 344 152 L 344 152 L 344 216 L 344 216 L 344 224 L 344 224 L 336 224 L 280 224 L 280 328 L 280 328 L 280 336 L 280 336 L 272 336 L 200 336 L 200 328 L 200 328 L 200 224 L 200 224 L 144 224 L 136 224 L 136 216 L 136 216 L 136 152 L 136 152 L 136 144 L 136 144 L 144 144 L 200 144 L 200 88 L 200 88 L 200 80 L 200 80 L 208 80 L 208 80 Z M 216 152 L 216 160 L 216 152 L 216 160 L 208 160 L 152 160 L 152 208 L 152 208 L 208 208 L 216 208 L 216 216 L 216 216 L 216 320 L 216 320 L 264 320 L 264 320 L 264 216 L 264 216 L 264 208 L 264 208 L 272 208 L 328 208 L 328 160 L 328 160 L 272 160 L 264 160 L 264 152 L 264 152 L 264 96 L 264 96 L 216 96 L 216 96 L 216 152 L 216 152 Z" />
</svg>