<svg xmlns="http://www.w3.org/2000/svg" viewBox="0 0 512 512">
  <path d="M 32 0 L 40 0 L 32 0 L 107 0 L 110 2 L 110 2 L 155 48 L 155 48 Q 174 33 200 32 Q 236 33 257 60 L 258 58 L 258 58 L 264 53 L 264 53 L 275 64 L 275 64 L 270 70 L 270 70 L 166 174 L 166 174 L 160 179 L 160 179 L 149 168 L 149 168 L 154 162 L 154 162 L 156 161 L 156 161 Q 129 140 128 104 Q 128 78 144 59 L 101 16 L 101 16 L 48 16 L 48 16 L 48 272 L 48 272 L 464 272 L 512 272 L 512 288 L 512 288 L 504 288 L 0 288 L 0 272 L 0 272 L 8 272 L 32 272 L 32 8 L 32 8 L 32 0 L 32 0 Z M 32 320 L 48 320 L 32 320 L 48 320 L 48 368 L 48 368 Q 49 409 76 436 Q 103 463 144 464 L 368 464 L 368 464 Q 409 463 436 436 Q 463 409 464 368 L 464 320 L 464 320 L 480 320 L 480 320 L 480 368 L 480 368 Q 478 427 432 460 L 432 504 L 432 504 L 432 512 L 432 512 L 416 512 L 416 512 L 416 504 L 416 504 L 416 469 L 416 469 Q 394 480 368 480 L 144 480 L 144 480 Q 118 480 96 469 L 96 504 L 96 504 L 96 512 L 96 512 L 80 512 L 80 512 L 80 504 L 80 504 L 80 460 L 80 460 Q 34 427 32 368 L 32 320 L 32 320 Z M 200 48 Q 176 49 160 64 L 160 64 L 160 64 Q 145 80 144 104 Q 145 133 167 149 L 246 71 L 246 71 Q 229 49 200 48 L 200 48 Z" />
</svg>