<svg xmlns="http://www.w3.org/2000/svg" viewBox="0 0 448 512">
  <path d="M 293 269 L 306 258 L 293 269 L 306 258 Q 350 221 352 160 Q 351 106 315 69 Q 278 33 224 32 Q 170 33 133 69 Q 97 106 96 160 Q 98 221 142 258 L 155 269 L 155 269 L 153 286 L 153 286 L 153 292 L 153 292 L 150 320 L 150 320 L 121 320 L 88 320 L 42 480 L 42 480 L 406 480 L 406 480 L 360 320 L 360 320 L 327 320 L 299 320 L 295 292 L 295 292 L 295 286 L 295 286 L 293 269 L 293 269 Z M 367 288 L 384 288 L 367 288 L 384 288 L 439 480 L 439 480 L 448 512 L 448 512 L 415 512 L 0 512 L 9 480 L 9 480 L 64 288 L 64 288 L 81 288 L 121 288 L 121 283 L 121 283 L 121 282 L 121 282 Q 107 270 96 256 Q 65 215 64 160 Q 66 92 111 47 Q 156 2 224 0 Q 292 2 337 47 Q 382 92 384 160 Q 383 215 352 256 Q 341 271 327 282 L 327 283 L 327 283 L 327 288 L 327 288 L 331 288 L 367 288 Z M 192 352 L 192 368 L 192 352 L 192 368 L 192 432 L 192 432 L 192 448 L 192 448 L 160 448 L 160 448 L 160 432 L 160 432 L 160 368 L 160 368 L 160 352 L 160 352 L 192 352 L 192 352 Z M 288 352 L 288 368 L 288 352 L 288 368 L 288 432 L 288 432 L 288 448 L 288 448 L 256 448 L 256 448 L 256 432 L 256 432 L 256 368 L 256 368 L 256 352 L 256 352 L 288 352 L 288 352 Z M 160 157 Q 162 194 198 228 Q 212 241 224 249 Q 236 241 250 228 Q 286 194 288 157 Q 287 132 270 114 Q 252 97 224 96 Q 196 97 178 114 Q 161 132 160 157 L 160 157 Z M 128 157 Q 129 118 156 91 L 156 91 L 156 91 Q 183 65 224 64 Q 265 65 292 91 Q 319 118 320 157 Q 318 195 295 224 Q 272 254 249 271 Q 226 288 224 288 Q 224 288 224 288 Q 222 288 199 271 Q 176 254 153 224 Q 130 195 128 157 L 128 157 Z" />
</svg>