<svg xmlns="http://www.w3.org/2000/svg" viewBox="0 0 534 512">
  <path d="M 182 129 L 172 117 L 182 129 L 172 117 L 166 122 L 166 122 L 99 182 L 99 182 L 99 8 L 99 8 L 99 0 L 99 0 L 83 0 L 83 0 L 83 8 L 83 8 L 83 182 L 83 182 L 16 122 L 16 122 L 11 117 L 11 117 L 0 129 L 0 129 L 6 134 L 6 134 L 86 206 L 86 206 L 91 211 L 91 211 L 96 206 L 96 206 L 176 134 L 176 134 L 182 129 L 182 129 Z M 43 512 L 59 512 L 43 512 L 491 512 L 489 496 L 489 496 L 459 288 L 459 288 L 267 160 L 267 160 L 75 288 L 75 288 L 45 496 L 45 496 L 43 512 L 43 512 Z M 275 496 L 275 349 L 275 496 L 275 349 L 365 496 L 365 496 L 275 496 L 275 496 Z M 259 496 L 61 496 L 259 496 L 61 496 L 90 297 L 90 297 L 259 185 L 259 185 L 259 496 L 259 496 Z M 275 185 L 444 297 L 275 185 L 444 297 L 473 496 L 473 496 L 384 496 L 384 496 L 275 318 L 275 318 L 275 185 L 275 185 Z M 528 134 L 534 129 L 528 134 L 534 129 L 524 117 L 524 117 L 518 122 L 518 122 L 451 182 L 451 182 L 451 8 L 451 8 L 451 0 L 451 0 L 435 0 L 435 0 L 435 8 L 435 8 L 435 182 L 435 182 L 368 122 L 368 122 L 363 117 L 363 117 L 352 129 L 352 129 L 358 134 L 358 134 L 438 206 L 438 206 L 443 211 L 443 211 L 448 206 L 448 206 L 529 134 L 528 134 Z" />
</svg>