<svg xmlns="http://www.w3.org/2000/svg" viewBox="0 0 512 512">
  <path d="M 384 230.4 L 442.4 172 L 460.8 153.6 L 442.4 135.2 L 376.8 69.6 L 358.4 51.2 L 340 69.6 L 281.6 128 L 215.2 150.4 L 239.2 169.6 L 278.4 156 L 356 233.6 L 348.8 256 L 369.6 272.8 L 384 230.4 L 384 230.4 Z M 303.2 366.4 L 101.6 428 L 192 338.4 Q 203.2 345.6 217.6 345.6 Q 240.8 344.8 255.2 328.8 L 235.2 312.8 Q 228 320 217.6 320 Q 206.4 320 199.2 312.8 Q 192 305.6 192 294.4 Q 192 287.2 195.2 281.6 L 175.2 265.6 Q 166.4 278.4 166.4 294.4 Q 166.4 308.8 173.6 320.8 L 84 410.4 L 137.6 236 L 116 218.4 L 51.2 428.8 L 83.2 460.8 L 327.2 385.6 L 303.2 366.4 L 303.2 366.4 Z M 368.8 209.6 L 302.4 143.2 L 358.4 87.2 L 424.8 153.6 L 368.8 209.6 L 368.8 209.6 Z M 25.6 59.2 L 16 51.2 L 0 71.2 L 10.4 79.2 L 486.4 452.8 L 496 460.8 L 512 440.8 L 502.4 432.8 L 25.6 59.2 L 25.6 59.2 Z" />
</svg>