<svg xmlns="http://www.w3.org/2000/svg" viewBox="0 0 432 448">
  <path d="M 432 0 L 432 448 L 432 0 L 432 448 L 416 448 L 416 448 L 416 0 L 416 0 L 432 0 L 432 0 Z M 320 16 L 320 48 L 320 16 L 320 48 L 288 48 L 288 48 L 288 16 L 288 16 L 320 16 L 320 16 Z M 320 432 L 288 432 L 320 432 L 288 432 L 288 400 L 288 400 L 320 400 L 320 400 L 320 432 L 320 432 Z M 320 208 L 320 240 L 320 208 L 320 240 L 288 240 L 288 240 L 288 208 L 288 208 L 320 208 L 320 208 Z M 128 48 L 96 48 L 128 48 L 96 48 L 96 16 L 96 16 L 128 16 L 128 16 L 128 48 L 128 48 Z M 128 400 L 128 432 L 128 400 L 128 432 L 96 432 L 96 432 L 96 400 L 96 400 L 128 400 L 128 400 Z M 128 240 L 96 240 L 128 240 L 96 240 L 96 208 L 96 208 L 128 208 L 128 208 L 128 240 L 128 240 Z M 224 16 L 224 48 L 224 16 L 224 48 L 192 48 L 192 48 L 192 16 L 192 16 L 224 16 L 224 16 Z M 224 432 L 192 432 L 224 432 L 192 432 L 192 400 L 192 400 L 224 400 L 224 400 L 224 432 L 224 432 Z M 224 208 L 224 240 L 224 208 L 224 240 L 192 240 L 192 240 L 192 208 L 192 208 L 224 208 L 224 208 Z M 32 48 L 0 48 L 32 48 L 0 48 L 0 16 L 0 16 L 32 16 L 32 16 L 32 48 L 32 48 Z M 32 400 L 32 432 L 32 400 L 32 432 L 0 432 L 0 432 L 0 400 L 0 400 L 32 400 L 32 400 Z M 32 240 L 0 240 L 32 240 L 0 240 L 0 208 L 0 208 L 32 208 L 32 208 L 32 240 L 32 240 Z M 224 112 L 224 144 L 224 112 L 224 144 L 192 144 L 192 144 L 192 112 L 192 112 L 224 112 L 224 112 Z M 32 144 L 0 144 L 32 144 L 0 144 L 0 112 L 0 112 L 32 112 L 32 112 L 32 144 L 32 144 Z M 32 304 L 32 336 L 32 304 L 32 336 L 0 336 L 0 336 L 0 304 L 0 304 L 32 304 L 32 304 Z M 224 336 L 192 336 L 224 336 L 192 336 L 192 304 L 192 304 L 224 304 L 224 304 L 224 336 L 224 336 Z" />
</svg>