<svg xmlns="http://www.w3.org/2000/svg" viewBox="0 0 512 512">
  <path d="M 16 256 Q 17 191 48 136 L 48 136 L 48 136 Q 80 81 136 48 Q 193 16 256 16 Q 319 16 376 48 Q 432 81 464 136 Q 495 191 496 256 Q 495 321 464 376 Q 432 431 376 464 Q 319 496 256 496 Q 193 496 136 464 Q 80 431 48 376 Q 17 321 16 256 L 16 256 Z M 512 256 Q 511 186 478 128 L 478 128 L 478 128 Q 444 70 384 34 Q 323 0 256 0 Q 189 0 128 34 Q 68 70 34 128 Q 1 186 0 256 Q 1 326 34 384 Q 68 442 128 478 Q 189 512 256 512 Q 323 512 384 478 Q 444 442 478 384 Q 511 326 512 256 L 512 256 Z M 256 288 L 240 288 L 256 288 L 240 288 L 240 304 L 240 304 L 240 368 L 240 368 L 239 368 L 239 368 L 127 256 L 127 256 L 239 144 L 239 144 L 240 144 L 240 144 L 240 208 L 240 208 L 240 224 L 240 224 L 256 224 L 368 224 L 368 288 L 368 288 L 256 288 L 256 288 Z M 115 267 L 232 384 L 115 267 L 232 384 L 240 384 L 256 384 L 256 368 L 256 368 L 256 320 L 256 320 L 256 304 L 256 304 L 272 304 L 384 304 L 384 288 L 384 288 L 384 224 L 384 224 L 384 208 L 384 208 L 368 208 L 256 208 L 256 192 L 256 192 L 256 144 L 256 144 L 256 128 L 256 128 L 240 128 L 232 128 L 115 245 L 115 245 L 104 256 L 104 256 L 115 267 L 115 267 Z" />
</svg>