<svg xmlns="http://www.w3.org/2000/svg" viewBox="0 0 256 256">
  <path d="M 176 16 L 176 240 L 176 16 L 176 240 L 240 240 L 240 240 L 240 16 L 240 16 L 176 16 L 176 16 Z M 160 0 L 176 0 L 160 0 L 256 0 L 256 16 L 256 16 L 256 240 L 256 240 L 256 256 L 256 256 L 240 256 L 160 256 L 160 240 L 160 240 L 160 16 L 160 16 L 160 0 L 160 0 Z M 16 144 L 16 240 L 16 144 L 16 240 L 80 240 L 80 240 L 80 144 L 80 144 L 16 144 L 16 144 Z M 0 128 L 16 128 L 0 128 L 96 128 L 96 144 L 96 144 L 96 240 L 96 240 L 96 256 L 96 256 L 80 256 L 0 256 L 0 240 L 0 240 L 0 144 L 0 144 L 0 128 L 0 128 Z" />
</svg>