<svg xmlns="http://www.w3.org/2000/svg" viewBox="0 0 512 512">
  <path d="M 350.4 257.6 Q 347.2 262.4 343.2 268 L 343.2 268 Q 342.4 268.8 342.4 269.6 L 362.4 285.6 Q 367.2 279.2 372 272 Q 396 237.6 396.8 192 Q 395.2 132 355.2 92.8 Q 316 52.8 256 51.2 Q 220 51.2 190.4 67.2 Q 160 83.2 140.8 111.2 L 160.8 126.4 Q 176.8 104 201.6 90.4 Q 226.4 76.8 256 76.8 Q 304.8 78.4 337.6 110.4 Q 369.6 143.2 371.2 192 Q 370.4 229.6 350.4 257.6 L 350.4 257.6 Z M 181.6 142.4 L 201.6 158.4 Q 220 129.6 256 128 L 256 102.4 Q 232 102.4 212.8 113.6 Q 193.6 124 181.6 142.4 L 181.6 142.4 Z M 160.8 256.8 L 119.2 224 Q 124.8 250.4 140.8 272 Q 146.4 280.8 152.8 289.6 Q 152.8 289.6 152.8 289.6 L 152.8 289.6 L 152.8 289.6 L 152.8 289.6 L 152.8 289.6 Q 168 309.6 180 330.4 Q 187.2 344 189.6 358.4 L 216 358.4 Q 212.8 338.4 202.4 318.4 Q 188.8 294.4 172.8 272.8 Q 172.8 272.8 172 272.8 L 172 272.8 Q 166.4 264.8 161.6 257.6 L 160.8 256.8 L 160.8 256.8 Z M 217.6 409.6 L 294.4 409.6 L 294.4 435.2 L 217.6 435.2 L 217.6 409.6 L 217.6 409.6 Z M 192 409.6 L 192 435.2 L 192 460.8 L 217.6 460.8 L 294.4 460.8 L 320 460.8 L 320 435.2 L 320 409.6 L 320 384 L 294.4 384 L 217.6 384 L 192 384 L 192 409.6 L 192 409.6 Z M 26.4 59.2 L 16 51.2 L 0 71.2 L 10.4 79.2 L 486.4 452.8 L 496 460.8 L 512 440.8 L 502.4 432.8 L 26.4 59.2 L 26.4 59.2 Z" />
</svg>