<svg xmlns="http://www.w3.org/2000/svg" viewBox="0 0 518 512">
  <path d="M 176 0 Q 234 2 266 48 Q 267 49 268 50 Q 268 50 268 49 Q 269 49 269 49 Q 292 34 320 34 Q 361 35 388 63 Q 415 92 416 134 Q 457 135 484 164 Q 511 192 512 235 L 512 320 L 512 320 L 512 336 L 512 336 L 496 336 L 378 336 L 381 322 L 381 322 L 380 320 L 380 320 L 416 320 L 496 320 L 496 235 L 496 235 Q 495 199 472 175 Q 450 151 416 150 L 400 150 L 400 150 L 400 134 L 400 134 Q 399 98 376 74 Q 354 50 320 50 Q 296 50 277 63 L 263 72 L 263 72 L 254 59 L 254 59 Q 226 18 176 16 Q 136 17 108 45 Q 81 74 80 118 L 80 140 L 80 140 L 80 151 L 80 151 L 70 155 L 70 155 Q 46 164 31 185 Q 16 207 16 235 L 16 320 L 16 320 L 96 320 L 132 320 L 131 322 L 131 322 L 134 336 L 134 336 L 96 336 L 0 336 L 0 320 L 0 320 L 0 235 L 0 235 Q 1 202 18 176 Q 36 151 64 140 L 64 118 L 64 118 Q 65 68 97 34 Q 128 1 176 0 L 176 0 Z M 188 438 L 183 463 L 188 438 L 183 463 L 193 473 L 193 473 L 218 468 L 218 468 L 229 466 L 229 466 L 235 475 L 235 475 L 249 496 L 249 496 L 263 496 L 263 496 L 277 475 L 277 475 L 283 466 L 283 466 L 294 468 L 294 468 L 319 473 L 319 473 L 329 463 L 329 463 L 324 438 L 324 438 L 322 428 L 322 428 L 331 422 L 331 422 L 352 408 L 352 408 L 352 393 L 352 393 L 331 379 L 331 379 L 322 373 L 322 373 L 324 362 L 324 362 L 329 338 L 329 338 L 318 327 L 318 327 L 294 332 L 294 332 L 283 334 L 283 334 L 277 325 L 277 325 L 263 304 L 263 304 L 248 304 L 248 304 L 234 325 L 234 325 L 229 334 L 229 334 L 218 332 L 218 332 L 193 327 L 193 327 L 183 338 L 183 338 L 188 362 L 188 362 L 190 373 L 190 373 L 181 379 L 181 379 L 160 393 L 160 393 L 160 408 L 160 408 L 181 422 L 181 422 L 190 428 L 190 428 L 188 438 L 188 438 Z M 144 384 L 172 365 L 144 384 L 172 365 L 166 332 L 166 332 L 188 310 L 188 310 L 221 316 L 221 316 L 240 288 L 240 288 L 272 288 L 272 288 L 291 316 L 291 316 L 324 310 L 324 310 L 346 332 L 346 332 L 340 365 L 340 365 L 368 384 L 368 384 L 368 416 L 368 416 L 340 435 L 340 435 L 347 468 L 347 468 L 324 490 L 324 490 L 291 484 L 291 484 L 272 512 L 272 512 L 240 512 L 240 512 L 221 484 L 221 484 L 188 491 L 188 491 L 166 468 L 166 468 L 172 435 L 172 435 L 144 416 L 144 416 L 144 384 L 144 384 Z M 80 416 Q 80 402 71 393 L 71 393 L 71 393 Q 62 384 48 384 Q 34 384 25 393 Q 16 402 16 416 Q 16 430 25 439 Q 34 448 48 448 Q 62 448 71 439 Q 80 430 80 416 L 80 416 Z M 0 416 Q 1 389 24 374 Q 48 362 72 374 Q 95 389 96 416 Q 95 443 72 458 Q 48 470 24 458 Q 1 443 0 416 L 0 416 Z M 464 448 Q 478 448 487 439 L 487 439 L 487 439 Q 496 430 496 416 Q 496 402 487 393 Q 478 384 464 384 Q 450 384 441 393 Q 432 402 432 416 Q 432 430 441 439 Q 450 448 464 448 L 464 448 Z M 464 368 Q 491 369 506 392 Q 518 416 506 440 Q 491 463 464 464 Q 437 463 422 440 Q 410 416 422 392 Q 437 369 464 368 L 464 368 Z" />
</svg>