<svg xmlns="http://www.w3.org/2000/svg" viewBox="0 0 448 448">
  <path d="M 161 24 L 24 161 L 161 24 L 24 161 L 16 153 L 16 153 L 16 16 L 16 16 L 153 16 L 153 16 L 161 24 L 161 24 Z M 160 0 L 16 0 L 160 0 L 0 0 L 0 16 L 0 16 L 0 160 L 0 160 L 13 173 L 13 173 L 24 184 L 24 184 L 35 173 L 35 173 L 98 110 L 98 110 L 213 224 L 213 224 L 98 338 L 98 338 L 35 275 L 35 275 L 24 264 L 24 264 L 13 275 L 13 275 L 0 288 L 0 288 L 0 432 L 0 432 L 0 448 L 0 448 L 16 448 L 160 448 L 173 435 L 173 435 L 184 424 L 184 424 L 173 413 L 173 413 L 110 350 L 110 350 L 224 235 L 224 235 L 338 350 L 338 350 L 275 413 L 275 413 L 264 424 L 264 424 L 275 435 L 275 435 L 288 448 L 288 448 L 432 448 L 448 448 L 448 432 L 448 432 L 448 288 L 448 288 L 435 275 L 435 275 L 424 264 L 424 264 L 413 275 L 413 275 L 350 338 L 350 338 L 235 224 L 235 224 L 350 110 L 350 110 L 413 173 L 413 173 L 424 184 L 424 184 L 435 173 L 435 173 L 448 160 L 448 160 L 448 16 L 448 16 L 448 0 L 448 0 L 432 0 L 288 0 L 275 13 L 275 13 L 264 24 L 264 24 L 275 35 L 275 35 L 338 98 L 338 98 L 224 213 L 224 213 L 110 98 L 110 98 L 173 35 L 173 35 L 184 24 L 184 24 L 173 13 L 173 13 L 160 0 L 160 0 Z M 153 432 L 16 432 L 153 432 L 16 432 L 16 295 L 16 295 L 24 287 L 24 287 L 161 424 L 161 424 L 153 432 L 153 432 Z M 295 432 L 287 424 L 295 432 L 287 424 L 424 287 L 424 287 L 432 295 L 432 295 L 432 432 L 432 432 L 295 432 L 295 432 Z M 295 16 L 432 16 L 295 16 L 432 16 L 432 153 L 432 153 L 424 161 L 424 161 L 287 24 L 287 24 L 295 16 L 295 16 Z" />
</svg>