<svg xmlns="http://www.w3.org/2000/svg" viewBox="0 0 448 512">
  <path d="M 30 72 L 224 17 L 30 72 L 224 17 L 418 72 L 418 72 L 224 127 L 224 127 L 30 72 L 30 72 Z M 224 144 L 448 80 L 224 144 L 448 80 L 448 64 L 448 64 L 224 0 L 224 0 L 0 64 L 0 64 L 0 80 L 0 80 L 32 89 L 32 89 L 32 167 L 32 167 L 4 262 L 4 262 L 0 272 L 0 272 L 11 272 L 80 272 L 77 262 L 77 262 L 48 167 L 48 167 L 48 94 L 48 94 L 224 144 L 224 144 Z M 232 496 L 232 439 L 232 496 L 232 439 L 236 435 L 236 435 L 329 336 L 329 336 L 373 336 L 373 336 L 426 496 L 426 496 L 232 496 L 232 496 Z M 22 496 L 76 336 L 22 496 L 76 336 L 119 336 L 119 336 L 212 435 L 212 435 L 216 439 L 216 439 L 216 496 L 216 496 L 22 496 L 22 496 Z M 322 320 L 235 412 L 322 320 L 235 412 L 224 424 L 224 424 L 213 412 L 213 412 L 126 320 L 126 320 L 64 320 L 64 320 L 5 496 L 5 496 L 0 512 L 0 512 L 17 512 L 448 512 L 443 496 L 443 496 L 384 320 L 384 320 L 322 320 L 322 320 Z M 96 176 Q 97 230 133 267 L 133 267 L 133 267 Q 170 303 224 304 Q 278 303 315 267 Q 351 230 352 176 L 352 141 L 352 141 L 336 145 L 336 145 L 336 176 L 336 176 Q 335 224 303 255 Q 272 287 224 288 Q 176 287 145 255 Q 113 224 112 176 L 112 145 L 112 145 L 96 141 L 96 141 L 96 176 L 96 176 Z M 22 256 L 40 196 L 22 256 L 40 196 L 58 256 L 58 256 L 22 256 L 22 256 Z" />
</svg>