<svg xmlns="http://www.w3.org/2000/svg" viewBox="0 0 512 507">
  <path d="M 264 307 L 264 315 L 264 307 L 264 315 L 248 315 L 248 315 L 248 307 L 248 307 L 248 30 L 248 30 L 142 137 L 142 137 L 136 142 L 136 142 L 125 131 L 125 131 L 130 125 L 130 125 L 250 5 L 250 5 L 256 0 L 256 0 L 262 5 L 262 5 L 382 125 L 382 125 L 387 131 L 387 131 L 376 142 L 376 142 L 370 137 L 370 137 L 264 30 L 264 30 L 264 307 L 264 307 Z M 152 315 L 184 379 L 152 315 L 184 379 L 328 379 L 328 379 L 360 315 L 360 315 L 496 315 L 512 315 L 512 331 L 512 331 L 512 491 L 512 491 L 512 507 L 512 507 L 496 507 L 0 507 L 0 491 L 0 491 L 0 331 L 0 331 L 0 315 L 0 315 L 16 315 L 152 315 Z M 342 386 Q 338 395 328 395 L 184 395 L 184 395 Q 174 395 170 386 L 142 331 L 142 331 L 16 331 L 16 331 L 16 491 L 16 491 L 496 491 L 496 491 L 496 331 L 496 331 L 370 331 L 370 331 L 342 386 L 342 386 Z" />
</svg>