<svg xmlns="http://www.w3.org/2000/svg" viewBox="0 0 512 512">
  <path d="M 379 176 L 386 176 L 379 176 L 416 176 L 416 142 L 416 142 L 416 136 L 416 136 L 420 131 L 420 131 L 490 56 L 490 56 L 456 22 L 456 22 L 192 268 L 192 268 L 187 272 L 187 272 L 181 272 L 128 272 L 128 320 L 128 320 L 128 327 L 128 327 L 123 332 L 123 332 L 23 424 L 23 424 L 88 489 L 88 489 L 374 181 L 374 181 L 379 176 L 379 176 Z M 99 500 L 88 512 L 99 500 L 88 512 L 77 501 L 77 501 L 11 435 L 11 435 L 0 424 L 0 424 L 12 413 L 12 413 L 112 320 L 112 320 L 112 272 L 112 272 L 112 256 L 112 256 L 128 256 L 181 256 L 456 0 L 456 0 L 512 56 L 512 56 L 432 142 L 432 142 L 432 176 L 432 176 L 432 192 L 432 192 L 416 192 L 386 192 L 99 500 L 99 500 Z" />
</svg>