<svg xmlns="http://www.w3.org/2000/svg" viewBox="0 0 512 448">
  <path d="M 352 0 L 373 64 L 352 0 L 373 64 L 496 64 L 512 64 L 512 80 L 512 80 L 512 432 L 512 432 L 512 448 L 512 448 L 496 448 L 0 448 L 0 432 L 0 432 L 0 80 L 0 80 L 0 64 L 0 64 L 16 64 L 139 64 L 160 0 L 160 0 L 352 0 L 352 0 Z M 373 80 L 362 80 L 373 80 L 362 80 L 358 69 L 358 69 L 341 16 L 341 16 L 172 16 L 172 16 L 154 69 L 154 69 L 150 80 L 150 80 L 139 80 L 16 80 L 16 432 L 16 432 L 496 432 L 496 432 L 496 80 L 496 80 L 373 80 L 373 80 Z M 256 144 Q 286 144 312 159 L 312 159 L 312 159 Q 338 174 353 200 Q 368 226 368 256 Q 368 286 353 312 Q 338 338 312 353 Q 286 368 256 368 Q 226 368 200 353 Q 174 338 159 312 Q 144 286 144 256 Q 144 226 159 200 Q 174 174 200 159 Q 226 144 256 144 L 256 144 Z M 352 256 Q 352 230 339 208 L 339 208 L 339 208 Q 326 186 304 173 Q 281 160 256 160 Q 231 160 208 173 Q 186 186 173 208 Q 160 230 160 256 Q 160 282 173 304 Q 186 326 208 339 Q 231 352 256 352 Q 281 352 304 339 Q 326 326 339 304 Q 352 282 352 256 L 352 256 Z" />
</svg>