<svg xmlns="http://www.w3.org/2000/svg" viewBox="0 0 570 502">
  <path d="M 288 45 Q 304 87 304 134 Q 304 194 279 245 L 320 269 L 320 269 Q 351 207 352 134 Q 352 98 344 65 L 347 63 L 347 63 Q 398 127 400 214 Q 400 238 395 261 L 446 250 L 446 250 Q 448 232 448 214 Q 448 150 422 95 Q 397 40 353 0 L 288 45 L 288 45 Z M 420 337 L 463 328 L 420 337 L 463 328 L 518 390 L 518 390 L 534 408 L 534 408 L 570 376 L 570 376 L 554 358 L 554 358 L 490 286 L 490 286 L 481 276 L 481 276 L 467 279 L 467 279 L 439 284 L 439 284 L 324 309 L 324 309 L 263 273 L 263 273 Q 263 273 263 273 Q 263 273 263 273 L 224 249 L 224 249 L 213 242 L 213 242 L 201 249 L 201 249 L 109 297 L 109 297 L 88 308 L 88 308 L 110 350 L 110 350 L 131 339 L 131 339 L 211 298 L 211 298 L 233 311 L 233 311 Q 198 348 151 369 Q 103 390 48 390 L 0 390 L 0 390 Q 0 390 0 390 Q 0 390 0 390 L 0 438 L 0 438 L 0 502 L 0 502 Q 0 502 0 502 Q 0 502 0 502 L 48 502 L 160 502 Q 241 501 307 462 Q 372 423 410 357 Q 411 356 411 355 Q 412 354 412 354 Q 416 346 420 337 L 420 337 Z" />
</svg>