<svg xmlns="http://www.w3.org/2000/svg" viewBox="0 0 384 512">
  <path d="M 255 67 Q 250 45 233 31 L 233 31 L 233 31 Q 216 16 192 16 Q 168 16 151 31 Q 134 45 129 67 L 127 80 L 127 80 L 114 80 L 80 80 L 80 144 L 80 144 L 192 144 L 304 144 L 304 80 L 304 80 L 270 80 L 257 80 L 255 67 L 255 67 Z M 80 64 L 114 64 L 80 64 L 114 64 Q 120 36 141 18 Q 162 1 192 0 Q 222 1 243 18 Q 264 36 270 64 L 304 64 L 320 64 L 320 80 L 320 80 L 320 96 L 320 96 L 376 96 L 384 96 L 384 104 L 384 104 L 384 504 L 384 504 L 384 512 L 384 512 L 376 512 L 0 512 L 0 504 L 0 504 L 0 104 L 0 104 L 0 96 L 0 96 L 8 96 L 64 96 L 64 80 L 64 80 L 64 64 L 64 64 L 80 64 L 80 64 Z M 64 112 L 16 112 L 64 112 L 16 112 L 16 496 L 16 496 L 368 496 L 368 496 L 368 112 L 368 112 L 320 112 L 320 112 L 320 144 L 320 144 L 320 160 L 320 160 L 304 160 L 64 160 L 64 144 L 64 144 L 64 112 L 64 112 Z M 176 80 Q 177 65 192 64 Q 207 65 208 80 Q 207 95 192 96 Q 177 95 176 80 L 176 80 Z M 104 208 L 176 208 L 104 208 L 176 208 Q 196 209 210 222 Q 223 236 224 256 Q 224 274 213 286 Q 203 299 186 303 L 240 357 L 240 357 L 282 314 L 282 314 L 288 309 L 288 309 L 299 320 L 299 320 L 294 326 L 294 326 L 251 368 L 251 368 L 294 410 L 294 410 L 299 416 L 299 416 L 288 427 L 288 427 L 282 422 L 282 422 L 240 379 L 240 379 L 198 422 L 198 422 L 192 427 L 192 427 L 181 416 L 181 416 L 186 410 L 186 410 L 229 368 L 229 368 L 165 304 L 165 304 L 112 304 L 112 304 L 112 376 L 112 376 L 112 384 L 112 384 L 96 384 L 96 384 L 96 376 L 96 376 L 96 296 L 96 296 L 96 216 L 96 216 L 96 208 L 96 208 L 104 208 L 104 208 Z M 176 288 Q 190 288 199 279 L 199 279 L 199 279 Q 208 270 208 256 Q 208 242 199 233 Q 190 224 176 224 L 112 224 L 112 224 L 112 288 L 112 288 L 176 288 L 176 288 Z" />
</svg>