<svg xmlns="http://www.w3.org/2000/svg" viewBox="0 0 486 448">
  <path d="M 19 192 L 35 192 L 19 192 L 467 192 L 467 176 L 467 176 L 467 160 L 467 160 Q 468 159 461 135 Q 455 111 433 80 Q 411 49 366 25 Q 320 1 243 0 Q 166 1 120 25 Q 75 49 53 80 Q 31 111 25 135 Q 18 159 19 160 L 19 176 L 19 176 L 19 192 L 19 192 Z M 451 161 L 451 176 L 451 161 L 451 176 L 35 176 L 35 176 L 35 161 L 35 161 L 35 161 L 35 161 Q 35 160 35 158 Q 36 157 36 156 Q 37 150 40 140 Q 46 118 66 90 Q 85 62 127 39 Q 169 17 243 16 Q 317 17 359 39 Q 401 62 420 90 Q 440 118 446 140 Q 449 150 450 156 Q 451 159 451 160 L 451 161 L 451 161 Z M 451 162 Q 451 162 451 162 Q 451 162 451 162 L 451 162 Z M 35 432 L 35 368 L 35 432 L 35 368 L 451 368 L 451 368 L 451 432 L 451 432 L 35 432 L 35 432 Z M 19 352 L 19 368 L 19 352 L 19 368 L 19 432 L 19 432 L 19 448 L 19 448 L 35 448 L 467 448 L 467 432 L 467 432 L 467 368 L 467 368 L 467 352 L 467 352 L 451 352 L 19 352 Z M 155 248 L 152 249 L 155 248 L 152 249 L 67 280 L 67 280 L 6 257 L 6 257 L 0 272 L 0 272 L 64 296 L 64 296 L 67 297 L 67 297 L 70 296 L 70 296 L 155 265 L 155 265 L 240 296 L 240 296 L 243 297 L 243 297 L 246 296 L 246 296 L 331 265 L 331 265 L 416 296 L 416 296 L 419 297 L 419 297 L 422 296 L 422 296 L 486 272 L 486 272 L 480 257 L 480 257 L 419 280 L 419 280 L 334 249 L 334 249 L 331 248 L 331 248 L 329 249 L 329 249 L 243 280 L 243 280 L 158 249 L 158 249 L 155 248 L 155 248 Z M 131 112 Q 146 111 147 96 Q 146 81 131 80 Q 116 81 115 96 Q 116 111 131 112 L 131 112 Z M 371 96 Q 370 81 355 80 Q 340 81 339 96 Q 340 111 355 112 Q 370 111 371 96 L 371 96 Z M 243 80 Q 258 79 259 64 Q 258 49 243 48 Q 228 49 227 64 Q 228 79 243 80 L 243 80 Z" />
</svg>