<svg xmlns="http://www.w3.org/2000/svg" viewBox="0 0 512 448">
  <path d="M 288 0 L 288 8 L 288 0 L 288 8 L 288 32 L 288 32 L 496 32 L 512 32 L 512 48 L 512 48 L 512 176 L 512 176 L 512 192 L 512 192 L 496 192 L 288 192 L 288 216 L 288 216 L 288 224 L 288 224 L 272 224 L 272 224 L 272 216 L 272 216 L 272 192 L 272 192 L 16 192 L 0 192 L 0 176 L 0 176 L 0 48 L 0 48 L 0 32 L 0 32 L 16 32 L 272 32 L 272 8 L 272 8 L 272 0 L 272 0 L 288 0 L 288 0 Z M 160 48 L 160 176 L 160 48 L 160 176 L 272 176 L 272 176 L 272 48 L 272 48 L 160 48 L 160 48 Z M 288 48 L 288 176 L 288 48 L 288 176 L 496 176 L 496 176 L 496 48 L 496 48 L 288 48 L 288 48 Z M 144 48 L 16 48 L 144 48 L 16 48 L 16 176 L 16 176 L 144 176 L 144 176 L 144 48 L 144 48 Z M 384 224 L 384 232 L 384 224 L 384 232 L 384 256 L 384 256 L 496 256 L 512 256 L 512 272 L 512 272 L 512 400 L 512 400 L 512 416 L 512 416 L 496 416 L 384 416 L 384 440 L 384 440 L 384 448 L 384 448 L 368 448 L 368 448 L 368 440 L 368 440 L 368 416 L 368 416 L 16 416 L 0 416 L 0 400 L 0 400 L 0 272 L 0 272 L 0 256 L 0 256 L 16 256 L 368 256 L 368 232 L 368 232 L 368 224 L 368 224 L 384 224 L 384 224 Z M 224 272 L 224 400 L 224 272 L 224 400 L 368 400 L 368 400 L 368 272 L 368 272 L 224 272 L 224 272 Z M 384 272 L 384 400 L 384 272 L 384 400 L 496 400 L 496 400 L 496 272 L 496 272 L 384 272 L 384 272 Z M 208 272 L 16 272 L 208 272 L 16 272 L 16 400 L 16 400 L 208 400 L 208 400 L 208 272 L 208 272 Z" />
</svg>