<svg xmlns="http://www.w3.org/2000/svg" viewBox="0 0 512 480">
  <path d="M 136 0 L 128 0 L 136 0 L 128 0 L 128 8 L 128 8 L 128 96 L 128 96 L 16 96 L 0 96 L 0 112 L 0 112 L 0 464 L 0 464 L 0 480 L 0 480 L 16 480 L 512 480 L 512 464 L 512 464 L 512 112 L 512 112 L 512 96 L 512 96 L 496 96 L 384 96 L 384 8 L 384 8 L 384 0 L 384 0 L 376 0 L 136 0 Z M 368 96 L 144 96 L 368 96 L 144 96 L 144 16 L 144 16 L 368 16 L 368 16 L 368 96 L 368 96 Z M 136 112 L 376 112 L 136 112 L 496 112 L 496 464 L 496 464 L 16 464 L 16 464 L 16 112 L 16 112 L 136 112 L 136 112 Z" />
</svg>