<svg xmlns="http://www.w3.org/2000/svg" viewBox="0 0 512 512">
  <path d="M 448 294.4 L 460.8 294.4 L 460.8 268.8 L 448 268.8 L 384 268.8 L 384 204.8 L 384 197.6 L 431.2 149.6 L 440.8 140.8 L 422.4 122.4 L 413.6 132 L 365.6 179.2 L 358.4 179.2 L 241.6 179.2 L 273.6 204.8 L 358.4 204.8 L 358.4 268.8 L 358.4 272 L 387.2 294.4 L 448 294.4 L 448 294.4 Z M 328.8 379.2 Q 304.8 404 268.8 408.8 L 268.8 331.2 L 243.2 311.2 L 243.2 408.8 Q 204.8 403.2 179.2 375.2 Q 154.4 347.2 153.6 307.2 L 153.6 294.4 L 153.6 268.8 L 153.6 240.8 L 128 220 L 128 268.8 L 64 268.8 L 51.2 268.8 L 51.2 294.4 L 64 294.4 L 128 294.4 L 128 307.2 Q 128.8 344 146.4 373.6 L 87.2 432.8 L 77.6 441.6 L 96 460 L 104.8 450.4 L 161.6 393.6 Q 198.4 433.6 256 435.2 Q 312.8 433.6 349.6 395.2 L 328.8 379.2 L 328.8 379.2 Z M 179.2 130.4 L 208.8 153.6 L 307.2 153.6 L 332.8 153.6 L 332.8 128 Q 332 95.2 310.4 73.6 Q 288.8 52 256 51.2 Q 223.2 52 201.6 73.6 Q 180 95.2 179.2 128 L 179.2 130.4 L 179.2 130.4 Z M 256 76.8 Q 277.6 77.6 292 92 L 292 92 Q 306.4 106.4 307.2 128 L 204.8 128 Q 205.6 106.4 220 92 Q 234.4 77.6 256 76.8 L 256 76.8 Z M 25.6 59.2 L 16 51.2 L 0 71.2 L 10.4 79.2 L 486.4 452.8 L 496 460.8 L 512 440.8 L 502.4 432.8 L 25.6 59.2 L 25.6 59.2 Z" />
</svg>