<svg xmlns="http://www.w3.org/2000/svg" viewBox="0 0 576 448">
  <path d="M 560 16 L 560 80 L 560 16 L 560 80 L 544 80 L 16 80 L 16 16 L 16 16 L 560 16 L 560 16 Z M 16 96 L 33 96 L 16 96 L 33 96 L 64 448 L 64 448 L 512 448 L 512 448 L 543 96 L 543 96 L 560 96 L 576 96 L 576 80 L 576 80 L 576 16 L 576 16 L 576 0 L 576 0 L 560 0 L 0 0 L 0 16 L 0 16 L 0 80 L 0 80 L 0 96 L 0 96 L 16 96 L 16 96 Z M 50 96 L 527 96 L 50 96 L 527 96 L 497 432 L 497 432 L 79 432 L 79 432 L 50 96 L 50 96 Z M 288 160 Q 300 160 307 170 L 347 224 L 347 224 L 361 216 L 361 216 L 320 160 L 320 160 Q 308 144 288 144 Q 268 144 256 160 L 215 216 L 215 216 L 229 224 L 229 224 L 269 170 L 269 170 Q 276 160 288 160 L 288 160 Z M 196 242 L 159 291 L 196 242 L 159 291 Q 152 301 152 314 Q 152 330 163 341 Q 174 352 190 352 L 272 352 L 272 352 L 272 336 L 272 336 L 190 336 L 190 336 Q 170 334 168 314 Q 168 307 172 301 L 210 250 L 210 250 L 196 242 L 196 242 Z M 304 352 L 386 352 L 304 352 L 386 352 Q 402 352 413 341 Q 424 330 424 314 Q 424 301 417 291 L 380 242 L 380 242 L 366 250 L 366 250 L 404 301 L 404 301 Q 408 307 408 314 Q 406 334 386 336 L 304 336 L 304 336 L 304 352 L 304 352 Z" />
</svg>