<svg xmlns="http://www.w3.org/2000/svg" viewBox="0 0 504 512">
  <path d="M 16 496 L 112 496 L 16 496 L 112 496 L 112 512 L 112 512 L 16 512 L 0 512 L 0 496 L 0 496 L 0 16 L 0 16 L 0 0 L 0 0 L 16 0 L 224 0 L 384 160 L 384 160 L 384 304 L 384 304 L 368 304 L 368 304 L 368 176 L 368 176 L 216 176 L 208 176 L 208 168 L 208 168 L 208 16 L 208 16 L 16 16 L 16 16 L 16 496 L 16 496 Z M 361 160 L 224 23 L 361 160 L 224 23 L 224 160 L 224 160 L 361 160 L 361 160 Z M 206 368 L 232 368 L 206 368 L 240 368 L 240 384 L 240 384 L 232 384 L 206 384 Q 186 386 184 406 Q 184 419 196 425 L 227 441 L 227 441 Q 247 452 248 474 Q 248 490 237 501 Q 226 512 210 512 L 176 512 L 168 512 L 168 496 L 168 496 L 176 496 L 210 496 Q 230 494 232 474 Q 232 461 220 455 L 189 439 L 189 439 Q 169 428 168 406 Q 168 390 179 379 Q 190 368 206 368 L 206 368 Z M 312 376 L 312 411 L 312 376 L 312 411 Q 312 439 322 464 L 334 496 L 334 496 L 338 496 L 338 496 L 350 464 L 350 464 Q 360 439 360 411 L 360 376 L 360 376 L 360 368 L 360 368 L 376 368 L 376 368 L 376 376 L 376 376 L 376 411 L 376 411 Q 376 441 365 470 L 352 507 L 352 507 L 350 512 L 350 512 L 344 512 L 323 512 L 321 507 L 321 507 L 307 470 L 307 470 Q 296 441 296 411 L 296 376 L 296 376 L 296 368 L 296 368 L 312 368 L 312 368 L 312 376 L 312 376 Z M 424 400 Q 424 386 433 377 L 433 377 L 433 377 Q 442 368 456 368 L 472 368 L 472 368 Q 486 368 495 377 Q 504 386 504 400 L 504 416 L 504 416 L 488 416 L 488 416 L 488 400 L 488 400 Q 487 385 472 384 L 456 384 L 456 384 Q 441 385 440 400 L 440 480 L 440 480 Q 441 495 456 496 L 472 496 L 472 496 Q 487 495 488 480 L 488 464 L 488 464 L 480 464 L 472 464 L 472 448 L 472 448 L 480 448 L 504 448 L 504 456 L 504 456 L 504 480 L 504 480 Q 504 494 495 503 Q 486 512 472 512 L 456 512 L 456 512 Q 442 512 433 503 Q 424 494 424 480 L 424 400 L 424 400 Z" />
</svg>