<svg xmlns="http://www.w3.org/2000/svg" viewBox="0 0 576 384">
  <path d="M 328 0 L 367 0 L 328 0 L 367 0 Q 438 1 490 45 Q 542 89 556 159 L 573 254 L 573 254 L 576 272 L 576 272 L 559 266 L 559 266 L 282 174 L 282 174 L 17 266 L 17 266 L 0 272 L 0 272 L 3 254 L 3 254 L 20 159 L 20 159 Q 34 89 86 45 Q 138 1 209 0 L 328 0 L 328 0 Q 328 0 328 0 Q 328 0 328 0 L 328 0 Z M 271 132 L 267 139 L 271 132 L 267 139 L 253 131 L 253 131 L 257 124 L 257 124 L 315 16 L 315 16 L 209 16 L 209 16 Q 207 16 204 16 L 111 164 L 111 164 L 107 171 L 107 171 L 93 163 L 93 163 L 97 156 L 97 156 L 185 18 L 185 18 Q 128 26 87 65 Q 47 104 36 161 L 21 248 L 21 248 L 277 159 L 277 159 L 282 157 L 282 157 L 287 159 L 287 159 L 556 248 L 556 248 L 540 161 L 540 161 Q 527 95 477 55 L 415 164 L 415 164 L 411 171 L 411 171 L 397 163 L 397 163 L 401 156 L 401 156 L 464 46 L 464 46 Q 421 17 367 16 L 333 16 L 333 16 L 271 132 L 271 132 Z M 128 384 Q 89 383 62 358 L 62 358 L 62 358 Q 36 333 32 295 L 48 289 L 48 289 Q 49 323 72 345 Q 94 367 128 368 Q 152 368 171 355 L 180 350 L 180 350 L 189 355 L 189 355 Q 208 368 232 368 Q 258 368 279 353 L 288 346 L 288 346 L 297 353 L 297 353 Q 317 368 344 368 Q 368 368 387 355 L 396 350 L 396 350 L 405 355 L 405 355 Q 424 368 448 368 Q 482 367 504 345 Q 526 323 528 290 L 544 295 L 544 295 Q 540 333 514 358 Q 487 383 448 384 Q 419 384 396 369 Q 373 384 344 384 Q 312 383 288 366 Q 264 383 232 384 Q 203 384 180 369 Q 157 384 128 384 L 128 384 Z" />
</svg>