<svg xmlns="http://www.w3.org/2000/svg" viewBox="0 0 640 512">
  <path d="M 483 352 L 512 352 L 483 352 L 512 352 L 512 320 L 512 320 Q 512 301 493 270 Q 473 238 430 213 L 419 64 L 419 64 L 448 64 L 480 64 L 480 0 L 480 0 L 448 0 L 160 0 L 160 64 L 160 64 L 192 64 L 222 64 L 215 144 L 215 144 L 48 15 L 48 15 L 29 0 L 29 0 L 0 38 L 0 38 L 19 53 L 19 53 L 592 497 L 592 497 L 611 512 L 611 512 L 640 474 L 640 474 L 621 459 L 621 459 L 483 352 L 483 352 Z M 325 352 L 176 235 L 325 352 L 176 235 Q 151 257 139 280 Q 128 304 128 320 L 128 352 L 128 352 L 325 352 L 325 352 Z M 288 480 L 288 512 L 288 480 L 288 512 L 352 512 L 352 512 L 352 480 L 352 480 L 352 384 L 352 384 L 288 384 L 288 384 L 288 480 L 288 480 Z" />
</svg>