<svg xmlns="http://www.w3.org/2000/svg" viewBox="0 0 448 512">
  <path d="M 400 464 L 400 192 L 400 464 L 400 192 Q 398 117 348 68 Q 299 18 224 16 Q 149 18 100 68 Q 50 117 48 192 L 48 464 L 48 464 L 32 464 L 32 464 L 32 192 L 32 192 Q 34 110 88 56 Q 142 2 224 0 Q 306 2 360 56 Q 414 110 416 192 L 416 464 L 416 464 L 400 464 L 400 464 Z M 0 496 L 8 496 L 0 496 L 448 496 L 448 512 L 448 512 L 440 512 L 0 512 L 0 496 L 0 496 Z M 232 136 L 232 208 L 232 136 L 232 208 L 312 208 L 320 208 L 320 224 L 320 224 L 312 224 L 232 224 L 232 376 L 232 376 L 232 384 L 232 384 L 216 384 L 216 384 L 216 376 L 216 376 L 216 224 L 216 224 L 136 224 L 128 224 L 128 208 L 128 208 L 136 208 L 216 208 L 216 136 L 216 136 L 216 128 L 216 128 L 232 128 L 232 128 L 232 136 L 232 136 Z" />
</svg>