<svg xmlns="http://www.w3.org/2000/svg" viewBox="0 0 512 512">
  <path d="M 496 144 Q 495 90 459 53 L 459 53 L 459 53 Q 422 17 368 16 Q 327 17 296 38 Q 264 60 249 96 L 232 96 L 232 96 Q 248 53 284 27 Q 320 1 368 0 Q 429 2 470 42 Q 510 83 512 144 Q 510 205 470 246 Q 429 286 368 288 L 368 288 L 368 288 L 369 272 L 369 272 Q 423 270 459 234 Q 495 198 496 144 L 496 144 Z M 54 496 L 298 496 L 54 496 L 298 496 L 321 272 L 321 272 L 31 272 L 31 272 L 54 496 L 54 496 Z M 323 256 L 334 144 L 323 256 L 334 144 L 18 144 L 18 144 L 29 256 L 29 256 L 323 256 L 323 256 Z M 312 512 L 40 512 L 312 512 L 40 512 L 2 144 L 2 144 L 0 128 L 0 128 L 16 128 L 352 128 L 350 144 L 350 144 L 312 512 L 312 512 Z" />
</svg>