<svg xmlns="http://www.w3.org/2000/svg" viewBox="0 0 384 512">
  <path d="M 64 0 L 72 0 L 64 0 L 320 0 L 320 8 L 320 8 L 320 112 L 320 112 L 319 112 L 319 112 Q 349 139 366 176 Q 384 213 384 256 Q 384 299 367 336 Q 350 372 320 399 L 320 504 L 320 504 L 320 512 L 320 512 L 312 512 L 64 512 L 64 504 L 64 504 L 64 399 L 64 399 Q 34 372 17 336 Q 0 299 0 256 Q 0 213 18 176 Q 35 139 65 112 L 64 112 L 64 112 L 64 8 L 64 8 L 64 0 L 64 0 Z M 80 412 L 80 496 L 80 412 L 80 496 L 304 496 L 304 496 L 304 412 L 304 412 Q 256 447 192 448 Q 128 447 80 412 L 80 412 Z M 304 16 L 80 16 L 304 16 L 80 16 L 80 100 L 80 100 Q 128 65 192 64 Q 256 65 304 100 L 304 16 L 304 16 Z M 368 256 Q 368 208 344 168 L 344 168 L 344 168 Q 321 128 280 104 Q 238 80 192 80 Q 146 80 104 104 Q 63 128 40 168 Q 16 208 16 256 Q 16 304 40 344 Q 63 384 104 408 Q 146 432 192 432 Q 238 432 280 408 Q 321 384 344 344 Q 368 304 368 256 L 368 256 Z M 200 160 L 200 252 L 200 160 L 200 252 L 261 298 L 261 298 L 267 302 L 267 302 L 258 315 L 258 315 L 251 310 L 251 310 L 187 262 L 187 262 L 184 260 L 184 260 L 184 256 L 184 256 L 184 160 L 184 160 L 184 152 L 184 152 L 200 152 L 200 152 L 200 160 L 200 160 Z" />
</svg>