<svg xmlns="http://www.w3.org/2000/svg" viewBox="0 0 448 512">
  <path d="M 230 162 L 224 157 L 230 162 L 224 157 L 218 162 L 218 162 L 82 298 L 82 298 L 77 304 L 77 304 L 88 315 L 88 315 L 94 310 L 94 310 L 216 187 L 216 187 L 216 504 L 216 504 L 216 512 L 216 512 L 232 512 L 232 512 L 232 504 L 232 504 L 232 187 L 232 187 L 354 310 L 354 310 L 360 315 L 360 315 L 371 304 L 371 304 L 366 298 L 366 298 L 230 162 L 230 162 Z M 16 184 L 16 16 L 16 184 L 16 16 L 432 16 L 432 16 L 432 184 L 432 184 L 432 192 L 432 192 L 448 192 L 448 192 L 448 184 L 448 184 L 448 8 L 448 8 L 448 0 L 448 0 L 440 0 L 0 0 L 0 8 L 0 8 L 0 184 L 0 184 L 0 192 L 0 192 L 16 192 L 16 192 L 16 184 L 16 184 Z" />
</svg>