<svg xmlns="http://www.w3.org/2000/svg" viewBox="0 0 640 512">
  <path d="M 0 0 L 0 96 L 0 0 L 0 96 L 640 96 L 640 96 L 640 0 L 640 0 L 0 0 L 0 0 Z M 608 128 L 32 128 L 608 128 L 32 128 L 32 512 L 32 512 L 160 512 L 160 512 L 160 352 L 160 352 Q 162 284 207 239 Q 252 194 320 192 Q 388 194 433 239 Q 478 284 480 352 L 480 512 L 480 512 L 608 512 L 608 512 L 608 128 L 608 128 Z M 298 266 Q 272 280 241 316 L 241 316 L 241 316 Q 211 352 208 400 Q 209 448 241 479 Q 272 511 320 512 Q 368 511 399 479 Q 431 448 432 400 Q 433 385 418 354 Q 404 323 365 288 L 342 310 L 342 310 L 298 266 L 298 266 Z M 365 434 Q 364 453 352 465 L 352 465 L 352 465 Q 339 478 320 479 Q 301 478 288 465 Q 276 453 275 434 Q 278 407 298 388 Q 317 368 320 367 Q 323 368 342 388 Q 362 407 365 434 L 365 434 Z" />
</svg>