<svg xmlns="http://www.w3.org/2000/svg" viewBox="0 0 576 448">
  <path d="M 21 432 L 280 432 L 21 432 L 280 432 L 280 376 L 280 376 L 280 368 L 280 368 L 296 368 L 296 368 L 296 376 L 296 376 L 296 432 L 296 432 L 555 432 L 555 432 L 436 16 L 436 16 L 296 16 L 296 16 L 296 72 L 296 72 L 296 80 L 296 80 L 280 80 L 280 80 L 280 72 L 280 72 L 280 16 L 280 16 L 140 16 L 140 16 L 21 432 L 21 432 Z M 128 0 L 448 0 L 128 0 L 448 0 L 571 432 L 571 432 L 576 448 L 576 448 L 559 448 L 0 448 L 5 432 L 5 432 L 128 0 L 128 0 Z M 296 168 L 296 280 L 296 168 L 296 280 L 296 288 L 296 288 L 280 288 L 280 288 L 280 280 L 280 280 L 280 168 L 280 168 L 280 160 L 280 160 L 296 160 L 296 160 L 296 168 L 296 168 Z" />
</svg>