<svg xmlns="http://www.w3.org/2000/svg" viewBox="0 0 563 443">
  <path d="M 121 438 L 115 443 L 121 438 L 115 443 L 109 438 L 109 438 L 5 334 L 5 334 L 0 328 L 0 328 L 11 317 L 11 317 L 17 322 L 17 322 L 107 413 L 107 413 L 107 8 L 107 8 L 107 0 L 107 0 L 123 0 L 123 0 L 123 8 L 123 8 L 123 413 L 123 413 L 213 322 L 213 322 L 219 317 L 219 317 L 230 328 L 230 328 L 225 334 L 225 334 L 121 438 L 121 438 Z M 283 16 L 363 16 L 283 16 L 371 16 L 371 32 L 371 32 L 363 32 L 275 32 L 275 16 L 275 16 L 283 16 L 283 16 Z M 283 160 L 427 160 L 283 160 L 435 160 L 435 176 L 435 176 L 427 176 L 275 176 L 275 160 L 275 160 L 283 160 L 283 160 Z M 283 288 L 491 288 L 283 288 L 499 288 L 499 304 L 499 304 L 491 304 L 275 304 L 275 288 L 275 288 L 283 288 L 283 288 Z M 283 416 L 555 416 L 283 416 L 563 416 L 563 432 L 563 432 L 555 432 L 275 432 L 275 416 L 275 416 L 283 416 L 283 416 Z" />
</svg>