<svg xmlns="http://www.w3.org/2000/svg" viewBox="0 0 512 512">
  <path d="M 448 400 L 448 232 L 448 400 L 448 232 L 448 224 L 448 224 L 440 224 L 440 224 Q 436 183 407 156 Q 378 129 336 128 Q 292 129 262 158 Q 233 188 232 232 Q 233 276 262 306 Q 292 335 336 336 Q 369 336 394 318 Q 420 301 432 272 L 432 402 L 432 402 Q 432 410 433 418 Q 400 454 354 475 Q 309 496 256 496 Q 189 495 135 463 Q 81 431 49 377 Q 17 323 16 256 Q 17 189 49 135 Q 81 81 135 49 Q 189 17 256 16 Q 323 17 377 49 Q 431 81 463 135 Q 495 189 496 256 Q 495 338 448 400 L 448 400 Z M 450 423 Q 510 354 512 256 Q 511 184 477 127 Q 443 69 385 35 Q 328 1 256 0 Q 184 1 127 35 Q 69 69 35 127 Q 1 184 0 256 Q 1 328 35 385 Q 69 443 127 477 Q 184 511 256 512 Q 309 512 356 492 Q 402 472 437 437 Q 450 479 488 504 L 500 511 L 500 511 L 508 497 L 508 497 L 497 490 L 497 490 Q 459 466 450 423 L 450 423 Z M 160 176 Q 159 161 144 160 Q 130 161 128 176 Q 130 191 144 192 Q 159 191 160 176 L 160 176 Z M 304 224 Q 319 223 320 208 Q 319 193 304 192 Q 290 193 288 208 Q 290 223 304 224 L 304 224 Z M 336 144 Q 386 146 412 188 Q 436 232 412 276 Q 386 318 336 320 Q 286 318 260 276 Q 236 232 260 188 Q 286 146 336 144 L 336 144 Z M 160 352 L 160 368 L 160 352 L 160 368 L 168 368 L 168 368 Q 193 367 232 380 Q 269 394 289 428 L 292 435 L 292 435 L 307 428 L 307 428 L 303 420 L 303 420 Q 292 399 275 386 Q 257 373 237 365 Q 196 351 168 352 L 160 352 L 160 352 Z M 300 100 Q 315 88 333 88 Q 350 88 363 97 L 372 103 L 372 103 L 378 107 L 378 107 L 387 94 L 387 94 L 380 89 L 380 89 L 372 84 L 372 84 Q 354 72 334 72 Q 309 72 290 87 L 267 106 L 267 106 L 261 111 L 261 111 L 271 123 L 271 123 L 277 118 L 277 118 L 300 100 L 300 100 Z" />
</svg>