<svg xmlns="http://www.w3.org/2000/svg" viewBox="0 0 320 512">
  <path d="M 16 16 L 16 496 L 16 16 L 16 496 L 304 496 L 304 496 L 304 16 L 304 16 L 16 16 L 16 16 Z M 0 0 L 16 0 L 0 0 L 320 0 L 320 16 L 320 16 L 320 496 L 320 496 L 320 512 L 320 512 L 304 512 L 0 512 L 0 496 L 0 496 L 0 16 L 0 16 L 0 0 L 0 0 Z M 144 432 Q 145 447 160 448 Q 175 447 176 432 Q 175 417 160 416 Q 145 417 144 432 L 144 432 Z M 160 464 Q 146 464 137 455 L 137 455 L 137 455 Q 128 446 128 432 Q 128 418 137 409 Q 146 400 160 400 Q 174 400 183 409 Q 192 418 192 432 Q 192 446 183 455 Q 174 464 160 464 L 160 464 Z" />
</svg>