<svg xmlns="http://www.w3.org/2000/svg" viewBox="0 0 640 512">
  <path d="M 0 0 L 8 0 L 0 0 L 640 0 L 640 16 L 640 16 L 632 16 L 0 16 L 0 0 L 0 0 Z M 0 496 L 8 496 L 0 496 L 640 496 L 640 512 L 640 512 L 632 512 L 0 512 L 0 496 L 0 496 Z M 441 400 L 405 304 L 441 400 L 405 304 L 235 304 L 235 304 L 199 400 L 199 400 L 441 400 L 441 400 Z M 224 288 L 416 288 L 224 288 L 416 288 L 458 400 L 458 400 L 464 416 L 464 416 L 447 416 L 176 416 L 182 400 L 182 400 L 224 288 L 224 288 Z M 322 240 Q 358 239 377 208 Q 394 176 377 144 Q 358 113 322 112 Q 285 113 266 144 Q 249 176 266 208 Q 285 239 322 240 L 322 240 Z M 322 96 Q 367 97 391 136 Q 412 176 391 216 Q 367 255 322 256 Q 276 255 252 216 Q 231 176 252 136 Q 276 97 322 96 L 322 96 Z M 195 160 Q 194 133 171 118 Q 147 106 123 118 Q 100 133 99 160 Q 100 187 123 202 Q 147 214 171 202 Q 194 187 195 160 L 195 160 Z M 83 160 Q 84 124 115 105 Q 147 87 179 105 Q 210 124 211 160 Q 210 196 179 215 Q 147 233 115 215 Q 84 196 83 160 L 83 160 Z M 496 208 Q 523 207 538 184 Q 550 160 538 136 Q 523 113 496 112 Q 469 113 454 136 Q 442 160 454 184 Q 469 207 496 208 L 496 208 Z M 496 96 Q 532 97 551 128 Q 569 160 551 192 Q 532 223 496 224 Q 460 223 441 192 Q 423 160 441 128 Q 460 97 496 96 L 496 96 Z M 76 272 L 54 336 L 76 272 L 54 336 L 172 336 L 172 336 L 166 352 L 166 352 L 49 352 L 32 352 L 37 336 L 37 336 L 64 256 L 64 256 L 202 256 L 202 256 L 196 272 L 196 272 L 76 272 L 76 272 Z M 468 336 L 586 336 L 468 336 L 586 336 L 564 272 L 564 272 L 444 272 L 444 272 L 438 256 L 438 256 L 576 256 L 576 256 L 603 336 L 603 336 L 608 352 L 608 352 L 591 352 L 474 352 L 468 336 L 468 336 Z" />
</svg>