<svg xmlns="http://www.w3.org/2000/svg" viewBox="0 0 576 448">
  <path d="M 512 0 L 512 8 L 512 0 L 512 8 L 512 32 L 512 32 L 568 32 L 576 32 L 576 40 L 576 40 L 576 168 L 576 168 L 576 176 L 576 176 L 568 176 L 483 176 L 454 206 L 454 206 L 451 208 L 451 208 L 448 208 L 382 208 L 352 299 L 352 299 L 350 304 L 350 304 L 344 304 L 244 304 L 208 448 L 208 448 L 49 448 L 32 448 L 36 432 L 36 432 L 92 208 L 92 208 L 8 208 L 0 208 L 0 200 L 0 200 L 0 40 L 0 40 L 0 32 L 0 32 L 8 32 L 496 32 L 496 8 L 496 8 L 496 0 L 496 0 L 512 0 L 512 0 Z M 338 288 L 365 208 L 338 288 L 365 208 L 268 208 L 268 208 L 248 288 L 248 288 L 338 288 L 338 288 Z M 109 208 L 53 432 L 109 208 L 53 432 L 196 432 L 196 432 L 252 208 L 252 208 L 109 208 L 109 208 Z M 16 48 L 16 192 L 16 48 L 16 192 L 445 192 L 445 192 L 474 162 L 474 162 L 477 160 L 477 160 L 480 160 L 560 160 L 560 48 L 560 48 L 512 48 L 16 48 Z M 72 96 L 504 96 L 72 96 L 512 96 L 512 112 L 512 112 L 504 112 L 64 112 L 64 96 L 64 96 L 72 96 L 72 96 Z" />
</svg>