<svg xmlns="http://www.w3.org/2000/svg" viewBox="0 0 576 512">
  <path d="M 433 220 L 448 176 L 433 220 L 448 176 L 499 176 L 499 176 L 559 368 L 559 368 L 518 496 L 518 496 L 429 496 L 429 496 L 408 436 L 408 436 Q 403 445 397 452 L 417 512 L 417 512 L 530 512 L 530 512 L 576 368 L 576 368 L 513 168 L 513 168 L 535 82 L 535 82 Q 537 74 537 66 L 537 64 L 537 64 Q 537 37 519 19 Q 500 1 473 0 Q 446 1 428 19 Q 410 37 409 64 L 409 66 L 409 66 Q 409 74 411 82 L 433 168 L 433 168 L 424 198 L 424 198 Q 429 209 433 220 L 433 220 Z M 499 160 L 448 160 L 499 160 L 448 160 L 427 78 L 427 78 Q 425 72 425 66 L 425 64 L 425 64 Q 426 44 439 30 Q 453 17 473 16 Q 494 17 507 30 Q 521 44 521 64 L 521 66 L 521 66 Q 521 72 520 78 L 499 160 L 499 160 Z M 208 112 Q 260 112 304 138 L 304 138 L 304 138 Q 348 163 374 208 Q 400 253 400 304 Q 400 355 374 400 Q 348 445 304 470 Q 260 496 208 496 Q 156 496 112 470 Q 68 445 42 400 Q 16 355 16 304 Q 16 253 42 208 Q 68 163 112 138 Q 156 112 208 112 L 208 112 Z M 208 512 Q 265 512 312 484 L 312 484 L 312 484 Q 359 457 388 408 Q 416 359 416 304 Q 416 249 388 200 Q 359 151 312 124 Q 265 96 208 96 Q 151 96 104 124 Q 57 151 28 200 Q 0 249 0 304 Q 0 359 28 408 Q 57 457 104 484 Q 151 512 208 512 L 208 512 Z M 224 272 Q 223 257 208 256 Q 193 257 192 272 Q 193 287 208 288 Q 223 287 224 272 L 224 272 Z M 112 256 Q 127 255 128 240 Q 127 225 112 224 Q 97 225 96 240 Q 97 255 112 256 L 112 256 Z M 224 176 Q 223 161 208 160 Q 193 161 192 176 Q 193 191 208 192 Q 223 191 224 176 L 224 176 Z" />
</svg>