<svg xmlns="http://www.w3.org/2000/svg" viewBox="0 0 512 512">
  <path d="M 459 0 L 445 8 L 459 0 L 445 8 L 449 15 L 449 15 L 451 19 L 451 19 Q 474 67 451 114 Q 409 81 352 80 Q 287 82 243 123 Q 236 130 230 137 L 248 140 L 248 140 L 320 152 L 320 152 L 336 256 L 336 256 L 440 256 L 440 256 L 474 317 L 474 317 L 482 333 L 482 333 Q 488 325 492 317 Q 512 283 512 240 Q 510 171 464 125 Q 478 99 479 69 Q 479 39 465 12 L 463 8 L 463 8 L 459 0 L 459 0 Z M 334 138 L 323 136 L 334 138 L 323 136 L 264 126 L 264 126 Q 301 97 352 96 Q 413 98 454 138 Q 494 179 496 240 Q 496 273 483 301 L 454 248 L 454 248 L 449 240 L 449 240 L 440 240 L 350 240 L 336 150 L 336 150 L 334 138 L 334 138 Z M 250 173 L 172 304 L 250 173 L 172 304 Q 144 351 90 364 L 0 384 L 0 384 L 0 496 L 0 496 L 0 512 L 0 512 L 16 512 L 103 512 Q 209 511 299 465 Q 388 420 449 339 L 441 324 L 441 324 Q 382 404 295 450 Q 207 495 103 496 L 16 496 L 16 496 L 16 397 L 16 397 L 93 380 L 93 380 Q 154 365 186 312 L 267 176 L 267 176 L 250 173 L 250 173 Z" />
</svg>