<svg xmlns="http://www.w3.org/2000/svg" viewBox="0 0 512 512">
  <path d="M 72 16 Q 48 17 32 32 L 32 32 L 32 32 Q 17 48 16 72 L 16 128 L 16 128 Q 17 148 30 162 Q 44 175 64 176 Q 84 175 98 162 Q 111 148 112 128 L 112 80 L 112 80 L 112 72 L 112 72 L 128 72 L 128 72 L 128 80 L 128 80 L 128 128 L 128 128 Q 127 157 107 175 L 147 208 L 147 208 L 184 208 L 184 208 Q 186 166 210 136 Q 213 132 216 128 L 216 120 L 216 120 L 216 39 L 216 39 L 175 32 L 175 32 L 167 31 L 167 31 L 169 15 L 169 15 L 177 16 L 177 16 L 225 24 L 225 24 L 232 25 L 232 25 L 232 32 L 232 32 L 232 111 L 232 111 Q 243 101 252 97 L 256 95 L 256 95 L 260 97 L 260 97 Q 269 101 280 111 L 280 32 L 280 32 L 280 25 L 280 25 L 287 24 L 287 24 L 335 16 L 335 16 L 343 15 L 343 15 L 345 31 L 345 31 L 337 32 L 337 32 L 296 39 L 296 39 L 296 120 L 296 120 L 296 128 L 296 128 Q 299 132 303 136 Q 326 166 328 208 L 365 208 L 365 208 L 405 175 L 405 175 Q 385 157 384 128 L 384 80 L 384 80 L 384 72 L 384 72 L 400 72 L 400 72 L 400 80 L 400 80 L 400 128 L 400 128 Q 401 148 414 162 Q 428 175 448 176 Q 468 175 482 162 Q 495 148 496 128 L 496 72 L 496 72 Q 495 48 480 32 Q 464 17 440 16 L 434 16 L 434 16 L 456 110 L 456 110 L 458 118 L 458 118 L 442 122 L 442 122 L 440 114 L 440 114 L 416 10 L 416 10 L 414 0 L 414 0 L 424 0 L 440 0 Q 471 1 491 21 Q 511 41 512 72 L 512 128 L 512 128 Q 511 155 493 173 Q 475 191 448 192 Q 432 192 418 185 L 373 222 L 373 222 L 371 224 L 371 224 L 368 224 L 328 224 L 328 256 L 328 256 L 382 256 L 382 256 L 428 233 L 428 233 L 436 229 L 436 229 L 443 244 L 443 244 L 436 247 L 436 247 L 388 271 L 388 271 L 386 272 L 386 272 L 384 272 L 328 272 L 328 304 L 328 304 L 399 304 L 399 304 L 437 289 L 437 289 L 444 286 L 444 286 L 450 301 L 450 301 L 443 304 L 443 304 L 403 320 L 403 320 L 402 320 L 328 320 L 328 352 L 328 352 L 352 352 L 354 352 L 356 353 L 356 353 L 380 369 L 380 369 L 387 374 L 387 374 L 378 387 L 378 387 L 372 383 L 372 383 L 350 368 L 350 368 L 326 368 L 326 368 L 306 443 L 306 443 Q 326 449 339 465 Q 352 482 352 504 L 352 512 L 352 512 L 344 512 L 160 512 L 160 504 L 160 504 Q 160 482 173 465 Q 186 449 206 443 L 186 368 L 186 368 L 163 368 L 163 368 L 141 383 L 141 383 L 134 387 L 134 387 L 125 374 L 125 374 L 132 369 L 132 369 L 156 353 L 156 353 L 158 352 L 158 352 L 160 352 L 184 352 L 184 320 L 184 320 L 112 320 L 109 320 L 69 304 L 69 304 L 62 301 L 62 301 L 68 286 L 68 286 L 75 289 L 75 289 L 114 304 L 114 304 L 184 304 L 184 304 L 184 272 L 184 272 L 128 272 L 126 272 L 124 271 L 124 271 L 76 247 L 76 247 L 69 244 L 69 244 L 76 229 L 76 229 L 84 233 L 84 233 L 130 256 L 130 256 L 184 256 L 184 256 L 184 224 L 184 224 L 144 224 L 141 224 L 139 222 L 139 222 L 94 185 L 94 185 Q 80 192 64 192 Q 37 191 19 173 Q 1 155 0 128 L 0 72 L 0 72 Q 1 41 21 21 Q 41 1 72 0 L 88 0 L 98 0 L 96 10 L 96 10 L 72 114 L 72 114 L 70 122 L 70 122 L 54 118 L 54 118 L 56 110 L 56 110 L 78 16 L 78 16 L 72 16 L 72 16 Z M 200 256 L 200 272 L 200 256 L 200 272 L 200 298 L 200 298 L 256 312 L 256 312 L 312 298 L 312 298 L 312 272 L 312 272 L 312 256 L 312 256 L 312 208 L 312 208 Q 310 172 290 146 Q 271 122 256 113 Q 241 122 223 146 Q 202 172 200 208 L 200 256 L 200 256 Z M 200 314 L 200 320 L 200 314 L 200 320 L 200 346 L 200 346 L 256 360 L 256 360 L 312 346 L 312 346 L 312 320 L 312 320 L 312 314 L 312 314 L 258 328 L 258 328 L 256 328 L 254 328 L 200 314 L 200 314 Z M 209 394 L 256 408 L 209 394 L 256 408 L 303 394 L 303 394 L 311 363 L 311 363 L 258 376 L 258 376 L 256 376 L 254 376 L 201 363 L 201 363 L 210 394 L 209 394 Z M 214 412 L 223 447 L 214 412 L 223 447 L 226 455 L 226 455 L 217 456 L 217 456 Q 184 463 177 496 L 335 496 L 335 496 Q 328 463 295 456 L 286 455 L 286 455 L 288 447 L 288 447 L 298 412 L 298 412 L 258 424 L 258 424 L 256 424 L 254 424 L 214 412 L 214 412 Z" />
</svg>