<svg xmlns="http://www.w3.org/2000/svg" viewBox="0 0 448 512">
  <path d="M 143 0 L 142 0 L 143 0 L 48 0 L 48 8 L 48 8 L 48 198 L 48 198 L 1 276 L 1 276 L 0 278 L 0 278 L 0 280 L 0 280 L 0 504 L 0 504 L 0 512 L 0 512 L 8 512 L 160 512 L 160 496 L 160 496 L 16 496 L 16 496 L 16 282 L 16 282 L 63 204 L 63 204 L 64 202 L 64 202 L 64 200 L 64 200 L 64 16 L 64 16 L 104 16 L 130 16 L 195 189 L 195 189 L 203 166 L 203 166 L 155 36 L 155 36 Q 156 37 157 38 Q 168 48 184 56 Q 201 64 224 64 Q 247 64 264 56 Q 280 48 291 38 L 292 37 L 292 37 L 193 285 L 193 285 L 192 286 L 192 286 L 192 288 L 192 288 L 192 504 L 192 504 L 192 512 L 192 512 L 200 512 L 448 512 L 448 504 L 448 504 L 448 280 L 448 280 L 448 278 L 448 278 L 447 276 L 447 276 L 400 198 L 400 198 L 400 8 L 400 8 L 400 0 L 400 0 L 392 0 L 300 0 L 298 4 L 298 4 Q 298 4 298 4 Q 298 4 298 4 Q 298 4 298 4 Q 298 4 298 4 Q 298 4 298 4 Q 298 4 298 4 Q 298 4 298 4 Q 298 4 298 4 Q 298 4 298 4 Q 298 4 298 4 Q 298 4 298 4 Q 298 4 298 4 L 298 5 L 298 5 Q 298 5 297 5 Q 297 5 297 6 Q 296 8 294 11 Q 289 17 280 26 Q 262 45 224 48 Q 186 45 168 26 Q 159 17 154 11 Q 152 8 151 6 Q 151 5 150 5 Q 150 5 150 5 L 150 4 L 150 4 Q 150 4 150 4 Q 150 4 150 4 Q 150 4 150 4 Q 150 4 150 4 Q 150 4 150 4 Q 150 4 150 4 Q 150 4 150 4 Q 150 4 150 4 L 148 0 L 148 0 L 143 0 L 143 0 Z M 208 290 L 317 16 L 208 290 L 317 16 L 344 16 L 384 16 L 384 200 L 384 200 L 384 202 L 384 202 L 385 204 L 385 204 L 432 282 L 432 282 L 432 496 L 432 496 L 208 496 L 208 496 L 208 290 L 208 290 Z M 80 400 Q 80 386 89 377 L 89 377 L 89 377 Q 98 368 112 368 Q 126 368 135 377 Q 144 386 144 400 Q 144 414 135 423 Q 126 432 112 432 Q 98 432 89 423 Q 80 414 80 400 L 80 400 Z M 160 400 Q 159 373 136 358 Q 112 346 88 358 Q 65 373 64 400 Q 65 427 88 442 Q 112 454 136 442 Q 159 427 160 400 L 160 400 Z M 88 237 L 77 248 L 88 237 L 77 248 L 82 254 L 82 254 L 101 272 L 101 272 L 82 290 L 82 290 L 77 296 L 77 296 L 88 307 L 88 307 L 94 302 L 94 302 L 112 283 L 112 283 L 130 302 L 130 302 L 136 307 L 136 307 L 147 296 L 147 296 L 142 290 L 142 290 L 123 272 L 123 272 L 142 254 L 142 254 L 147 248 L 147 248 L 136 237 L 136 237 L 130 242 L 130 242 L 112 261 L 112 261 L 94 242 L 94 242 L 88 237 L 88 237 Z M 320 256 Q 306 256 297 265 L 297 265 L 297 265 Q 288 274 288 288 L 288 296 L 288 296 L 288 344 L 288 344 L 288 352 L 288 352 L 296 352 L 352 352 Q 366 352 375 343 Q 384 334 384 320 Q 384 306 375 297 Q 366 288 352 288 Q 352 274 343 265 Q 334 256 320 256 L 320 256 Z M 304 288 Q 305 273 320 272 Q 335 273 336 288 L 336 296 L 336 296 L 336 304 L 336 304 L 344 304 L 352 304 Q 367 305 368 320 Q 367 335 352 336 L 344 336 L 304 336 L 304 296 L 304 296 L 304 288 L 304 288 Z" />
</svg>