<svg xmlns="http://www.w3.org/2000/svg" viewBox="0 0 484 509">
  <path d="M 254 4 L 242 0 L 254 4 L 242 0 L 231 4 L 231 4 L 23 84 L 23 84 L 4 92 L 4 92 L 3 112 L 3 112 Q 0 150 8 203 Q 16 255 40 312 Q 64 369 110 420 Q 156 471 229 503 L 242 509 L 242 509 L 255 503 L 255 503 Q 328 471 374 420 Q 420 369 444 312 Q 468 255 476 203 Q 484 150 481 112 L 480 92 L 480 92 L 461 84 L 461 84 L 254 4 L 254 4 Z M 210 81 L 242 68 L 210 81 L 242 68 L 274 81 L 274 81 L 274 154 L 274 154 L 417 154 L 417 154 Q 416 183 408 218 L 274 218 L 274 218 L 274 421 L 274 421 Q 259 431 242 439 Q 225 431 210 421 L 210 218 L 210 218 L 76 218 L 76 218 Q 68 183 67 154 L 210 154 L 210 154 L 210 81 L 210 81 Z" />
</svg>