<svg xmlns="http://www.w3.org/2000/svg" viewBox="0 0 640 384">
  <path d="M 640 8 L 640 0 L 640 8 L 640 0 L 624 0 L 624 0 L 624 8 L 624 8 L 624 376 L 624 376 L 624 384 L 624 384 L 640 384 L 640 384 L 640 376 L 640 376 L 640 8 L 640 8 Z M 320 152 L 336 152 L 320 152 L 336 152 L 336 136 L 336 136 L 336 48 L 336 48 L 345 48 L 345 48 L 489 192 L 489 192 L 345 336 L 345 336 L 336 336 L 336 336 L 336 248 L 336 248 L 336 232 L 336 232 L 320 232 L 16 232 L 16 152 L 16 152 L 320 152 L 320 152 Z M 501 181 L 352 32 L 501 181 L 352 32 L 336 32 L 320 32 L 320 48 L 320 48 L 320 120 L 320 120 L 320 136 L 320 136 L 304 136 L 0 136 L 0 152 L 0 152 L 0 232 L 0 232 L 0 248 L 0 248 L 16 248 L 320 248 L 320 264 L 320 264 L 320 336 L 320 336 L 320 352 L 320 352 L 336 352 L 352 352 L 501 203 L 501 203 L 512 192 L 512 192 L 501 181 L 501 181 Z" />
</svg>