<svg xmlns="http://www.w3.org/2000/svg" viewBox="0 0 624 496">
  <path d="M 32 10 L 20 0 L 32 10 L 20 0 L 0 25 L 0 25 L 13 35 L 13 35 L 592 486 L 592 486 L 604 496 L 604 496 L 624 471 L 624 471 L 612 461 L 612 461 L 32 10 L 32 10 Z M 396 396 Q 357 408 312 408 Q 269 408 232 396 L 223 394 L 223 394 L 213 396 L 213 396 L 125 423 L 125 423 L 143 374 L 143 374 L 150 355 L 150 355 L 136 340 L 136 340 Q 89 293 88 232 Q 88 197 105 166 L 79 146 L 79 146 Q 56 185 56 232 Q 58 308 113 363 L 86 434 L 86 434 L 72 472 L 72 472 L 111 460 L 111 460 L 222 427 L 222 427 Q 264 440 312 440 Q 373 439 425 419 L 396 395 L 396 396 Z M 312 24 Q 234 25 173 57 L 201 79 L 201 79 Q 250 57 312 56 Q 411 58 473 110 Q 534 161 536 232 Q 535 279 506 320 L 531 340 L 531 340 Q 567 292 568 232 Q 567 174 533 127 Q 499 80 441 52 Q 384 25 312 24 L 312 24 Z" />
</svg>