<svg xmlns="http://www.w3.org/2000/svg" viewBox="0 0 511 511">
  <path d="M 208 16 Q 260 16 304 42 L 304 42 L 304 42 Q 348 67 374 112 Q 400 157 400 208 Q 400 259 374 304 Q 348 349 304 374 Q 260 400 208 400 Q 156 400 112 374 Q 68 349 42 304 Q 16 259 16 208 Q 16 157 42 112 Q 68 67 112 42 Q 156 16 208 16 L 208 16 Z M 208 416 Q 292 414 349 361 L 500 511 L 500 511 L 511 500 L 511 500 L 361 349 L 361 349 Q 414 292 416 208 Q 414 120 355 61 Q 296 2 208 0 Q 120 2 61 61 Q 2 120 0 208 Q 2 296 61 355 Q 120 414 208 416 L 208 416 Z M 216 112 L 216 104 L 216 112 L 216 104 L 200 104 L 200 104 L 200 112 L 200 112 L 200 128 L 200 128 Q 187 129 177 134 Q 157 143 153 163 Q 151 175 155 185 Q 160 194 168 199 Q 184 209 204 214 Q 204 214 204 214 L 206 215 L 206 215 Q 227 220 239 228 Q 244 232 247 237 Q 249 242 248 251 Q 246 263 233 268 Q 224 272 211 272 L 211 272 L 211 272 Q 204 272 197 271 Q 185 268 170 263 Q 169 263 168 262 Q 168 262 168 262 Q 167 262 166 262 Q 164 261 163 261 L 155 258 L 155 258 L 150 273 L 150 273 L 158 276 L 158 276 Q 158 276 160 276 Q 161 277 163 278 Q 163 278 163 278 Q 163 278 163 278 Q 163 278 163 278 Q 163 278 163 278 Q 163 278 163 278 Q 163 278 163 278 Q 163 278 163 278 Q 180 284 195 287 Q 195 287 195 287 Q 195 287 195 287 Q 197 287 200 288 Q 200 288 200 288 L 200 304 L 200 304 L 200 312 L 200 312 L 216 312 L 216 312 L 216 304 L 216 304 L 216 288 L 216 288 Q 229 287 239 283 Q 259 275 263 253 Q 265 241 261 231 Q 257 221 248 215 Q 231 205 211 200 L 210 199 L 210 199 Q 210 199 210 199 Q 210 199 210 199 Q 210 199 210 199 Q 210 199 210 199 Q 190 194 177 187 Q 172 183 170 178 Q 167 174 169 166 Q 170 155 184 149 Q 198 143 219 146 Q 223 146 231 148 Q 238 149 242 150 L 246 135 L 246 135 Q 242 133 234 132 Q 226 130 221 130 Q 219 129 216 129 Q 216 129 216 129 L 216 112 L 216 112 Z" />
</svg>