<svg xmlns="http://www.w3.org/2000/svg" viewBox="0 0 452 468">
  <path d="M 216 40 L 240 40 L 216 40 L 240 40 L 240 52 L 240 52 Q 239 63 228 64 Q 217 63 216 52 L 216 40 L 216 40 Z M 176 0 L 176 40 L 176 0 L 176 40 L 176 52 L 176 52 Q 177 74 191 89 Q 206 103 228 104 Q 250 103 265 89 Q 279 74 280 52 L 280 40 L 280 40 L 280 0 L 280 0 L 240 0 L 176 0 Z M 196 436 L 196 468 L 196 436 L 196 468 L 228 468 L 260 468 L 260 436 L 260 436 Q 260 422 251 413 Q 242 404 228 404 Q 214 404 205 413 Q 196 422 196 436 L 196 436 Z M 452 244 L 452 212 L 452 244 L 452 212 L 420 212 L 420 212 Q 406 212 397 221 Q 388 230 388 244 Q 388 258 397 267 Q 406 276 420 276 L 452 276 L 452 276 L 452 244 L 452 244 Z M 36 208 L 0 208 L 36 208 L 0 208 L 0 244 L 0 244 L 0 280 L 0 280 L 36 280 L 36 280 Q 51 280 61 269 Q 72 259 72 244 Q 72 229 61 219 Q 51 208 36 208 L 36 208 Z M 364 86 L 386 108 L 364 86 L 386 108 L 375 120 L 375 120 Q 364 129 353 120 Q 343 108 353 97 L 364 86 L 364 86 Z M 392 57 L 364 29 L 392 57 L 364 29 L 336 57 L 336 57 L 324 69 L 324 69 Q 308 86 308 108 Q 308 131 324 148 Q 341 164 364 164 Q 386 164 403 148 L 415 136 L 415 136 L 443 108 L 443 108 L 415 80 L 415 80 L 392 57 L 392 57 Z M 70 357 L 47 380 L 70 357 L 47 380 L 70 402 L 70 402 L 92 425 L 92 425 L 115 402 L 115 402 Q 124 393 124 380 Q 124 367 115 357 Q 105 348 92 348 Q 79 348 70 357 L 70 357 Z M 386 402 L 409 380 L 386 402 L 409 380 L 386 357 L 386 357 Q 377 348 364 348 Q 351 348 341 357 Q 332 367 332 380 Q 332 393 341 402 L 364 425 L 364 425 L 386 402 L 386 402 Z M 87 114 L 81 108 L 87 114 L 81 108 L 92 97 L 92 97 L 98 103 L 98 103 Q 103 108 98 114 Q 92 119 87 114 L 87 114 Z M 126 74 L 121 69 L 126 74 L 121 69 L 92 40 L 92 40 L 64 69 L 64 69 L 53 80 L 53 80 L 24 108 L 24 108 L 53 137 L 53 137 L 58 142 L 58 142 Q 73 156 92 156 Q 111 156 126 142 Q 140 127 140 108 Q 140 89 126 74 L 126 74 Z" />
</svg>