<svg xmlns="http://www.w3.org/2000/svg" viewBox="0 0 497 512">
  <path d="M 333 98 L 313 37 L 333 98 L 313 37 Q 329 32 346 32 Q 387 33 418 56 L 372 103 L 372 103 Q 360 96 346 96 Q 339 96 333 98 L 333 98 Z M 395 125 L 441 79 L 395 125 L 441 79 Q 464 110 465 151 L 465 157 L 465 157 Q 465 170 462 182 L 401 162 L 401 162 Q 401 159 401 157 L 401 151 L 401 151 Q 401 137 394 125 L 395 125 Z M 452 213 Q 436 243 406 262 L 375 282 L 375 282 L 315 244 L 315 244 L 373 208 L 373 208 Q 383 202 390 192 L 452 213 L 452 213 Z M 345 301 L 268 349 L 345 301 L 268 349 L 208 311 L 208 311 L 285 263 L 285 263 L 345 301 L 345 301 Z M 238 368 L 165 413 L 238 368 L 165 413 L 104 376 L 104 376 L 177 330 L 177 330 L 238 368 L 238 368 Z M 135 432 L 78 468 L 135 432 L 78 468 L 44 414 L 44 414 L 74 395 L 74 395 L 135 432 L 135 432 Z M 283 50 L 304 112 L 283 50 L 304 112 L 263 138 L 263 138 L 230 83 L 230 83 L 283 50 L 283 50 Q 283 50 283 50 Q 283 50 283 50 L 283 50 Z M 280 165 L 334 132 L 280 165 L 334 132 Q 339 128 346 128 Q 367 130 369 151 L 369 157 L 369 157 Q 369 172 356 181 L 27 387 L 27 387 L 0 404 L 0 404 L 17 431 L 17 431 L 51 485 L 51 485 L 68 512 L 68 512 L 95 495 L 95 495 L 423 290 L 423 290 Q 458 267 477 233 Q 497 198 497 157 L 497 151 L 497 151 Q 495 87 453 44 Q 410 2 346 0 Q 303 0 266 23 L 213 56 L 213 56 L 186 73 L 186 73 L 203 100 L 203 100 L 236 155 L 236 155 L 253 182 L 253 182 L 281 165 L 280 165 Z" />
</svg>