<svg xmlns="http://www.w3.org/2000/svg" viewBox="0 0 620 512">
  <path d="M 16 256 Q 17 189 49 135 L 49 135 L 49 135 Q 81 81 135 49 L 135 49 L 135 49 Q 189 17 256 16 Q 332 17 390 57 Q 449 97 477 163 L 492 157 L 492 157 Q 462 87 399 44 Q 337 1 256 0 Q 184 1 127 35 Q 69 69 35 127 Q 1 184 0 256 Q 1 328 35 385 Q 69 443 127 477 Q 184 511 256 512 Q 327 511 384 478 Q 441 445 475 388 L 462 380 L 462 380 Q 429 433 376 464 Q 322 495 256 496 Q 189 495 135 463 Q 81 431 49 377 Q 17 323 16 256 L 16 256 Z M 264 136 L 264 128 L 264 136 L 264 128 L 248 128 L 248 128 L 248 136 L 248 136 L 248 296 L 248 296 L 248 304 L 248 304 L 264 304 L 264 304 L 264 296 L 264 296 L 264 136 L 264 136 Z M 272 368 L 272 336 L 272 368 L 272 336 L 240 336 L 240 336 L 240 368 L 240 368 L 272 368 L 272 368 Z M 619 192 L 608 181 L 619 192 L 608 181 L 602 186 L 602 186 L 480 309 L 480 309 L 422 250 L 422 250 L 416 245 L 416 245 L 405 256 L 405 256 L 410 262 L 410 262 L 474 326 L 474 326 L 480 331 L 480 331 L 486 326 L 486 326 L 614 198 L 614 198 L 620 192 L 619 192 Z" />
</svg>