<svg xmlns="http://www.w3.org/2000/svg" viewBox="0 0 512 509">
  <path d="M 256 64 Q 174 66 120 120 L 120 120 L 120 120 Q 66 174 64 256 L 64 288 L 64 288 L 0 288 L 0 288 L 0 256 L 0 256 Q 1 184 35 127 Q 69 69 127 35 Q 184 1 256 0 Q 328 1 385 35 Q 443 69 477 126 Q 511 184 512 256 L 512 288 L 512 288 L 448 288 L 448 288 L 448 256 L 448 256 Q 446 174 392 120 Q 338 66 256 64 L 256 64 Z M 121 374 L 99 352 L 121 374 L 99 352 L 144 307 L 144 307 L 167 329 L 167 329 L 224 387 L 224 387 L 224 192 L 224 192 L 224 160 L 224 160 L 288 160 L 288 160 L 288 192 L 288 192 L 288 387 L 288 387 L 345 329 L 345 329 L 368 307 L 368 307 L 413 352 L 413 352 L 391 374 L 391 374 L 279 486 L 279 486 L 256 509 L 256 509 L 233 486 L 233 486 L 121 374 L 121 374 Z" />
</svg>