<svg xmlns="http://www.w3.org/2000/svg" viewBox="0 0 512 512">
  <path d="M 256 496 Q 191 495 136 464 L 136 464 L 136 464 Q 81 432 48 376 Q 16 319 16 256 Q 16 193 48 136 Q 81 80 136 48 Q 191 17 256 16 Q 321 17 376 48 Q 431 80 464 136 Q 496 193 496 256 Q 496 319 464 376 Q 431 432 376 464 Q 321 495 256 496 L 256 496 Z M 256 0 Q 186 1 128 34 L 128 34 L 128 34 Q 70 68 34 128 Q 0 189 0 256 Q 0 323 34 384 Q 70 444 128 478 Q 186 511 256 512 Q 326 511 384 478 Q 442 444 478 384 Q 512 323 512 256 Q 512 189 478 128 Q 442 68 384 34 Q 326 1 256 0 L 256 0 Z M 195 333 L 184 344 L 195 333 L 184 344 L 195 355 L 195 355 L 208 368 L 208 368 L 352 368 L 368 368 L 368 352 L 368 352 L 368 208 L 368 208 L 355 195 L 355 195 L 344 184 L 344 184 L 333 195 L 333 195 L 307 221 L 307 221 L 296 232 L 296 232 L 285 221 L 285 221 L 211 147 L 211 147 L 200 136 L 200 136 L 189 147 L 189 147 L 147 189 L 147 189 L 136 200 L 136 200 L 147 211 L 147 211 L 221 285 L 221 285 L 232 296 L 232 296 L 221 307 L 221 307 L 195 333 L 195 333 Z M 243 285 L 159 200 L 243 285 L 159 200 L 200 159 L 200 159 L 285 243 L 285 243 L 296 255 L 296 255 L 307 243 L 307 243 L 344 207 L 344 207 L 352 215 L 352 215 L 352 352 L 352 352 L 215 352 L 215 352 L 207 344 L 207 344 L 243 307 L 243 307 L 255 296 L 255 296 L 243 285 L 243 285 Z" />
</svg>