<svg xmlns="http://www.w3.org/2000/svg" viewBox="0 0 640 448">
  <path d="M 448 16 L 448 432 L 448 16 L 448 432 L 624 432 L 624 432 L 624 16 L 624 16 L 448 16 L 448 16 Z M 432 16 L 208 16 L 432 16 L 208 16 L 208 432 L 208 432 L 432 432 L 432 432 L 432 16 L 432 16 Z M 192 432 L 192 16 L 192 432 L 192 16 L 16 16 L 16 16 L 16 432 L 16 432 L 192 432 L 192 432 Z M 0 0 L 16 0 L 0 0 L 640 0 L 640 16 L 640 16 L 640 432 L 640 432 L 640 448 L 640 448 L 624 448 L 0 448 L 0 432 L 0 432 L 0 16 L 0 16 L 0 0 L 0 0 Z" />
</svg>