<svg xmlns="http://www.w3.org/2000/svg" viewBox="0 0 640 512">
  <path d="M 224 32 L 224 224 L 224 32 L 224 224 L 32 224 L 32 224 L 32 32 L 32 32 L 224 32 L 224 32 Z M 32 0 L 0 0 L 32 0 L 0 0 L 0 32 L 0 32 L 0 224 L 0 224 L 0 256 L 0 256 L 32 256 L 256 256 L 256 224 L 256 224 L 256 32 L 256 32 L 256 0 L 256 0 L 224 0 L 32 0 Z M 608 288 L 608 480 L 608 288 L 608 480 L 416 480 L 416 480 L 416 288 L 416 288 L 608 288 L 608 288 Z M 416 256 L 384 256 L 416 256 L 384 256 L 384 288 L 384 288 L 384 480 L 384 480 L 384 512 L 384 512 L 416 512 L 640 512 L 640 480 L 640 480 L 640 288 L 640 288 L 640 256 L 640 256 L 608 256 L 416 256 Z M 160 288 L 160 384 L 160 288 L 160 384 L 160 416 L 160 416 L 192 416 L 352 416 L 352 384 L 352 384 L 192 384 L 192 384 L 192 288 L 192 288 L 160 288 L 160 288 Z M 480 128 L 480 96 L 480 128 L 480 96 L 448 96 L 288 96 L 288 128 L 288 128 L 448 128 L 448 128 L 448 224 L 448 224 L 480 224 L 480 224 L 480 128 L 480 128 Z M 416 192 L 416 160 L 416 192 L 416 160 L 384 160 L 288 160 L 288 192 L 288 192 L 384 192 L 384 192 L 384 224 L 384 224 L 416 224 L 416 224 L 416 192 L 416 192 Z M 256 320 L 256 288 L 256 320 L 256 288 L 224 288 L 224 288 L 224 320 L 224 320 L 224 352 L 224 352 L 256 352 L 352 352 L 352 320 L 352 320 L 256 320 L 256 320 Z" />
</svg>