<svg xmlns="http://www.w3.org/2000/svg" viewBox="0 0 640 512">
  <path d="M 32 110 L 32 384 L 32 110 L 32 384 L 32 416 L 32 416 L 64 416 L 245 416 L 234 480 L 234 480 L 176 480 L 160 480 L 160 512 L 160 512 L 176 512 L 480 512 L 480 480 L 480 480 L 464 480 L 406 480 L 395 416 L 395 416 L 419 416 L 419 416 L 379 384 L 379 384 L 376 384 L 376 384 Q 376 384 376 384 Q 376 384 376 384 L 264 384 L 264 384 Q 264 384 264 384 Q 264 384 264 384 L 64 384 L 64 384 L 64 136 L 64 136 L 32 110 L 32 110 Z M 608 402 L 608 384 L 608 402 L 608 384 L 608 32 L 608 32 L 608 0 L 608 0 L 576 0 L 32 0 L 32 0 L 32 0 L 99 0 L 99 0 L 139 32 L 139 32 L 576 32 L 576 32 L 576 377 L 576 377 L 608 402 L 608 402 Z M 278 416 L 363 416 L 278 416 L 363 416 L 373 480 L 373 480 L 267 480 L 267 480 L 278 416 L 278 416 Z M 33 10 L 20 0 L 33 10 L 20 0 L 0 25 L 0 25 L 13 35 L 13 35 L 608 502 L 608 502 L 620 512 L 620 512 L 640 487 L 640 487 L 628 477 L 628 477 L 33 10 L 33 10 Z" />
</svg>