<svg xmlns="http://www.w3.org/2000/svg" viewBox="0 0 448 512">
  <path d="M 288 16 L 192 16 L 288 16 L 192 16 L 192 80 L 192 80 L 288 80 L 288 80 Q 302 80 311 71 Q 320 62 320 48 Q 320 34 311 25 Q 302 16 288 16 L 288 16 Z M 192 0 L 288 0 L 192 0 L 288 0 Q 308 1 322 14 Q 335 28 336 48 Q 335 68 322 82 Q 308 95 288 96 L 192 96 L 176 96 L 176 80 L 176 80 L 176 56 L 176 56 L 168 56 L 168 56 Q 144 57 128 72 Q 113 88 112 112 L 112 160 L 112 160 L 440 160 L 448 160 L 448 176 L 448 176 L 440 176 L 0 176 L 0 160 L 0 160 L 8 160 L 96 160 L 96 112 L 96 112 Q 97 81 117 61 Q 137 41 168 40 L 176 40 L 176 40 L 176 16 L 176 16 L 176 0 L 176 0 L 192 0 L 192 0 Z M 80 512 L 46 208 L 80 512 L 46 208 L 62 208 L 62 208 L 94 496 L 94 496 L 354 496 L 354 496 L 386 208 L 386 208 L 403 208 L 403 208 L 368 512 L 368 512 L 80 512 L 80 512 Z" />
</svg>