<svg xmlns="http://www.w3.org/2000/svg" viewBox="0 0 512 512">
  <path d="M 480 16 Q 481 1 496 0 Q 511 1 512 16 Q 511 31 496 32 Q 481 31 480 16 L 480 16 Z M 416 80 Q 417 65 432 64 Q 447 65 448 80 Q 447 95 432 96 Q 417 95 416 80 L 416 80 Z M 16 128 Q 31 129 32 144 Q 31 159 16 160 Q 1 159 0 144 Q 1 129 16 128 L 16 128 Z M 144 128 Q 159 129 160 144 Q 159 159 144 160 Q 129 159 128 144 Q 129 129 144 128 L 144 128 Z M 368 128 Q 383 129 384 144 Q 383 159 368 160 Q 353 159 352 144 Q 353 129 368 128 L 368 128 Z M 480 144 Q 481 129 496 128 Q 511 129 512 144 Q 511 159 496 160 Q 481 159 480 144 L 480 144 Z M 416 208 Q 417 193 432 192 Q 447 193 448 208 Q 447 223 432 224 Q 417 223 416 208 L 416 208 Z M 80 192 Q 95 193 96 208 Q 95 223 80 224 Q 65 223 64 208 Q 65 193 80 192 L 80 192 Z M 480 272 Q 481 257 496 256 Q 511 257 512 272 Q 511 287 496 288 Q 481 287 480 272 L 480 272 Z M 16 256 Q 31 257 32 272 Q 31 287 16 288 Q 1 287 0 272 Q 1 257 16 256 L 16 256 Z M 80 64 Q 95 65 96 80 Q 95 95 80 96 Q 65 95 64 80 Q 65 65 80 64 L 80 64 Z M 16 0 Q 31 1 32 16 Q 31 31 16 32 Q 1 31 0 16 Q 1 1 16 0 L 16 0 Z M 264 64 L 264 72 L 264 64 L 264 72 L 264 256 L 264 256 L 400 256 L 416 256 L 416 272 L 416 272 L 416 296 L 416 296 L 320 384 L 320 384 L 320 496 L 320 496 L 320 512 L 320 512 L 304 512 L 192 512 L 192 496 L 192 496 L 192 384 L 192 384 L 96 296 L 96 296 L 96 272 L 96 272 L 96 256 L 96 256 L 112 256 L 248 256 L 248 72 L 248 72 L 248 64 L 248 64 L 264 64 L 264 64 Z M 264 272 L 248 272 L 264 272 L 112 272 L 112 289 L 112 289 L 203 372 L 203 372 L 208 377 L 208 377 L 208 384 L 208 384 L 208 496 L 208 496 L 304 496 L 304 496 L 304 384 L 304 384 L 304 377 L 304 377 L 309 372 L 309 372 L 400 289 L 400 289 L 400 272 L 400 272 L 264 272 L 264 272 Z" />
</svg>