<svg xmlns="http://www.w3.org/2000/svg" viewBox="0 0 468 501">
  <path d="M 206 0 Q 186 12 159 38 L 159 38 L 159 38 Q 132 63 112 98 L 112 98 L 112 98 Q 91 134 90 175 Q 92 236 133 277 Q 174 318 236 320 Q 297 318 338 277 Q 379 236 381 175 Q 382 155 364 115 Q 345 74 294 29 L 265 58 L 265 58 L 206 0 L 206 0 Z M 294 218 Q 293 243 277 259 L 277 259 L 277 259 Q 260 276 236 277 Q 211 276 194 259 Q 178 243 177 218 Q 178 196 192 176 Q 206 156 220 144 Q 234 131 236 131 Q 237 131 251 144 Q 265 156 279 176 Q 293 196 294 218 L 294 218 Z M 449 299 L 234 367 L 449 299 L 234 367 L 20 299 L 20 299 L 0 360 L 0 360 L 127 400 L 127 400 L 0 440 L 0 440 L 20 501 L 20 501 L 234 434 L 234 434 L 448 501 L 448 501 L 468 440 L 468 440 L 341 400 L 341 400 L 468 360 L 468 360 L 448 299 L 449 299 Z" />
</svg>