<svg xmlns="http://www.w3.org/2000/svg" viewBox="0 0 448 512">
  <path d="M 336 128 L 336 144 L 336 128 L 336 144 Q 335 192 303 223 Q 272 255 224 256 Q 176 255 145 223 Q 113 192 112 144 L 112 128 L 112 128 L 216 128 L 220 128 L 222 125 L 222 125 L 255 85 L 255 85 L 274 109 L 274 109 L 276 112 L 276 112 L 280 112 L 335 112 Q 336 120 336 128 L 336 128 Z M 284 96 L 266 72 L 284 96 L 266 72 L 292 39 L 292 39 Q 321 61 331 96 L 284 96 L 284 96 Z M 279 30 L 212 112 L 279 30 L 212 112 L 113 112 L 113 112 Q 120 70 150 44 Q 181 17 224 16 Q 254 16 279 30 L 279 30 Z M 96 128 L 96 144 L 96 128 L 96 144 Q 97 198 133 235 Q 170 271 224 272 Q 278 271 315 235 Q 351 198 352 144 L 352 128 L 352 128 Q 351 74 315 37 Q 278 1 224 0 Q 170 1 133 37 Q 97 74 96 128 L 96 128 Z M 212 410 L 224 425 L 212 410 L 224 425 L 236 410 L 236 410 L 314 320 L 314 320 L 372 320 L 372 320 L 426 496 L 426 496 L 22 496 L 22 496 L 76 320 L 76 320 L 134 320 L 134 320 L 212 410 L 212 410 Z M 384 304 L 306 304 L 384 304 L 306 304 L 234 388 L 234 388 L 224 400 L 224 400 L 214 388 L 214 388 L 142 304 L 142 304 L 64 304 L 64 304 L 5 496 L 5 496 L 0 512 L 0 512 L 17 512 L 448 512 L 443 496 L 443 496 L 384 304 L 384 304 Z" />
</svg>