<svg xmlns="http://www.w3.org/2000/svg" viewBox="0 0 570 448">
  <path d="M 104 429 L 122 448 L 104 429 L 122 448 L 140 429 L 140 429 L 228 333 L 228 333 L 244 315 L 244 315 L 209 283 L 209 283 L 192 301 L 192 301 L 146 351 L 146 351 L 146 24 L 146 24 L 146 0 L 146 0 L 98 0 L 98 0 L 98 24 L 98 24 L 98 351 L 98 351 L 52 301 L 52 301 L 36 283 L 36 283 L 0 315 L 0 315 L 16 333 L 16 333 L 104 429 L 104 429 Z M 306 16 L 282 16 L 306 16 L 282 16 L 282 64 L 282 64 L 306 64 L 378 64 L 378 16 L 378 16 L 354 16 L 306 16 Z M 306 144 L 282 144 L 306 144 L 282 144 L 282 192 L 282 192 L 306 192 L 442 192 L 442 144 L 442 144 L 418 144 L 306 144 Z M 306 272 L 282 272 L 306 272 L 282 272 L 282 320 L 282 320 L 306 320 L 506 320 L 506 272 L 506 272 L 482 272 L 306 272 Z M 306 400 L 282 400 L 306 400 L 282 400 L 282 448 L 282 448 L 306 448 L 570 448 L 570 400 L 570 400 L 546 400 L 306 400 Z" />
</svg>