<svg xmlns="http://www.w3.org/2000/svg" viewBox="0 0 473 448">
  <path d="M 129 438 L 123 443 L 129 438 L 123 443 L 117 438 L 117 438 L 5 326 L 5 326 L 0 320 L 0 320 L 11 309 L 11 309 L 17 314 L 17 314 L 115 413 L 115 413 L 115 8 L 115 8 L 115 0 L 115 0 L 131 0 L 131 0 L 131 8 L 131 8 L 131 413 L 131 413 L 229 314 L 229 314 L 235 309 L 235 309 L 246 320 L 246 320 L 241 326 L 241 326 L 129 438 L 129 438 Z M 307 256 L 451 256 L 307 256 L 459 256 L 459 264 L 459 264 L 459 272 L 459 272 L 459 275 L 459 275 L 457 277 L 457 277 L 318 432 L 318 432 L 451 432 L 459 432 L 459 448 L 459 448 L 451 448 L 299 448 L 299 440 L 299 440 L 299 432 L 299 432 L 299 429 L 299 429 L 301 427 L 301 427 L 440 272 L 440 272 L 307 272 L 299 272 L 299 256 L 299 256 L 307 256 L 307 256 Z M 325 144 L 303 192 L 325 144 L 303 192 L 285 192 L 285 192 L 372 5 L 372 5 L 374 0 L 374 0 L 384 0 L 384 0 L 386 5 L 386 5 L 473 192 L 473 192 L 456 192 L 456 192 L 433 144 L 433 144 L 325 144 L 325 144 Z M 426 128 L 379 27 L 426 128 L 379 27 L 332 128 L 332 128 L 426 128 L 426 128 Z" />
</svg>