<svg xmlns="http://www.w3.org/2000/svg" viewBox="0 0 512 512">
  <path d="M 38.4 62 L 23.2 50 L 0 80.4 L 15.2 92.4 L 473.6 447.6 L 488.8 459.6 L 512 429.2 L 496.8 417.2 L 398.4 341.2 Q 409.6 322.8 417.6 304.4 Q 436.8 258.8 443.2 217.2 Q 449.6 174.8 448 144.4 L 446.4 127.6 L 431.2 122 L 265.6 58 L 256 54.8 L 247.2 58 L 104.8 113.2 L 38.4 62 L 38.4 62 Z M 94.4 304.4 Q 113.6 350 150.4 390.8 L 150.4 390.8 Q 187.2 431.6 245.6 457.2 L 256 462 L 266.4 457.2 Q 316 435.6 349.6 402.8 L 64.8 178 Q 65.6 205.2 72.8 238 Q 80 270.8 94.4 304.4 L 94.4 304.4 Z" />
</svg>