<svg xmlns="http://www.w3.org/2000/svg" viewBox="0 0 448 448">
  <path d="M 16 16 L 16 432 L 16 16 L 16 432 L 432 432 L 432 432 L 432 16 L 432 16 L 16 16 L 16 16 Z M 0 0 L 16 0 L 0 0 L 448 0 L 448 16 L 448 16 L 448 432 L 448 432 L 448 448 L 448 448 L 432 448 L 0 448 L 0 432 L 0 432 L 0 16 L 0 16 L 0 0 L 0 0 Z M 136 168 Q 137 144 152 128 L 152 128 L 152 128 Q 168 113 192 112 L 248 112 L 248 112 Q 275 113 293 131 Q 311 149 312 176 Q 311 210 283 229 L 232 263 L 232 263 L 232 288 L 232 288 L 232 296 L 232 296 L 216 296 L 216 296 L 216 288 L 216 288 L 216 259 L 216 259 L 216 254 L 216 254 L 220 252 L 220 252 L 275 216 L 275 216 Q 295 201 296 176 Q 295 155 282 142 Q 269 128 248 128 L 192 128 L 192 128 Q 175 128 164 140 Q 152 151 152 168 L 152 175 L 152 175 L 136 175 L 136 175 L 136 168 L 136 168 Z M 208 320 L 240 320 L 208 320 L 240 320 L 240 352 L 240 352 L 208 352 L 208 352 L 208 320 L 208 320 Z" />
</svg>