<svg xmlns="http://www.w3.org/2000/svg" viewBox="0 0 576 512">
  <path d="M 112 8 L 112 0 L 112 8 L 112 0 L 96 0 L 96 0 L 96 8 L 96 8 L 96 112 L 96 112 L 112 112 L 112 112 L 112 8 L 112 8 Z M 288 8 L 288 0 L 288 8 L 288 0 L 272 0 L 272 0 L 272 8 L 272 8 L 272 112 L 272 112 L 288 112 L 288 112 L 288 8 L 288 8 Z M 8 144 L 0 144 L 8 144 L 0 144 L 0 160 L 0 160 L 8 160 L 40 160 L 40 240 L 40 240 Q 41 302 82 345 Q 122 387 184 392 L 184 504 L 184 504 L 184 512 L 184 512 L 200 512 L 200 512 L 200 504 L 200 504 L 200 392 L 200 392 Q 230 390 256 378 Q 256 373 256 368 Q 256 364 256 360 Q 256 360 256 360 Q 227 376 192 376 Q 134 375 96 336 Q 57 298 56 240 L 56 160 L 56 160 L 328 160 L 328 160 L 328 226 L 328 226 Q 336 220 344 216 L 344 160 L 344 160 L 376 160 L 384 160 L 384 144 L 384 144 L 376 144 L 8 144 Z M 304 368 Q 304 333 321 304 L 321 304 L 321 304 Q 338 275 368 257 Q 398 240 432 240 Q 466 240 496 257 Q 526 275 543 304 Q 560 333 560 368 Q 560 403 543 432 Q 526 461 496 479 Q 466 496 432 496 Q 398 496 368 479 Q 338 461 321 432 Q 304 403 304 368 L 304 368 Z M 576 368 Q 576 329 557 296 L 557 296 L 557 296 Q 538 263 504 243 Q 470 224 432 224 Q 394 224 360 243 Q 326 263 307 296 Q 288 329 288 368 Q 288 407 307 440 Q 326 473 360 493 Q 394 512 432 512 Q 470 512 504 493 Q 538 473 557 440 Q 576 407 576 368 L 576 368 Z M 494 318 L 499 312 L 494 318 L 499 312 L 488 301 L 488 301 L 482 306 L 482 306 L 432 357 L 432 357 L 382 306 L 382 306 L 376 301 L 376 301 L 365 312 L 365 312 L 370 318 L 370 318 L 421 368 L 421 368 L 370 418 L 370 418 L 365 424 L 365 424 L 376 435 L 376 435 L 382 430 L 382 430 L 432 379 L 432 379 L 482 430 L 482 430 L 488 435 L 488 435 L 499 424 L 499 424 L 494 418 L 494 418 L 443 368 L 443 368 L 494 318 L 494 318 Z" />
</svg>