<svg xmlns="http://www.w3.org/2000/svg" viewBox="0 0 480 448">
  <path d="M 16 70 L 56 24 L 16 70 L 56 24 L 96 70 L 96 70 L 96 432 L 96 432 L 16 432 L 16 432 L 16 256 L 16 256 L 16 70 L 16 70 Z M 45 12 L 0 64 L 45 12 L 0 64 L 0 256 L 0 256 L 0 432 L 0 432 L 0 448 L 0 448 L 16 448 L 112 448 L 112 432 L 112 432 L 112 336 L 112 336 L 184 336 L 184 336 L 184 432 L 184 432 L 184 448 L 184 448 L 200 448 L 296 448 L 296 432 L 296 432 L 296 336 L 296 336 L 368 336 L 368 336 L 368 432 L 368 432 L 368 448 L 368 448 L 384 448 L 480 448 L 480 432 L 480 432 L 480 64 L 480 64 L 435 12 L 435 12 L 424 0 L 424 0 L 413 12 L 413 12 L 368 64 L 368 64 L 368 128 L 368 128 L 296 128 L 296 128 L 296 64 L 296 64 L 251 12 L 251 12 L 240 0 L 240 0 L 229 12 L 229 12 L 184 64 L 184 64 L 184 128 L 184 128 L 112 128 L 112 128 L 112 64 L 112 64 L 67 12 L 67 12 L 56 0 L 56 0 L 45 12 L 45 12 Z M 368 320 L 296 320 L 368 320 L 296 320 L 296 144 L 296 144 L 368 144 L 368 144 L 368 256 L 368 256 L 368 320 L 368 320 Z M 184 320 L 112 320 L 184 320 L 112 320 L 112 144 L 112 144 L 184 144 L 184 144 L 184 256 L 184 256 L 184 320 L 184 320 Z M 200 70 L 240 24 L 200 70 L 240 24 L 280 70 L 280 70 L 280 432 L 280 432 L 200 432 L 200 432 L 200 256 L 200 256 L 200 70 L 200 70 Z M 384 256 L 384 70 L 384 256 L 384 70 L 424 24 L 424 24 L 464 70 L 464 70 L 464 432 L 464 432 L 384 432 L 384 432 L 384 256 L 384 256 Z" />
</svg>