<svg xmlns="http://www.w3.org/2000/svg" viewBox="0 0 614 448">
  <path d="M 328 0 L 320 0 L 328 0 L 320 0 L 320 16 L 320 16 L 328 16 L 402 16 L 462 217 L 462 217 Q 409 238 383 288 L 272 288 L 256 288 L 256 272 L 256 272 L 256 176 L 256 176 L 256 160 L 256 160 L 240 160 L 128 160 Q 74 161 37 197 Q 1 234 0 288 L 0 336 L 0 336 L 0 352 L 0 352 L 16 352 L 64 352 Q 65 393 92 420 Q 119 447 160 448 Q 201 447 228 420 Q 255 393 256 352 L 368 352 L 384 352 Q 385 298 421 261 Q 458 225 512 224 Q 567 225 603 262 L 614 250 L 614 250 Q 573 210 512 208 Q 494 208 477 212 L 446 108 L 446 108 L 500 135 L 500 135 L 502 136 L 502 136 L 504 136 L 528 136 L 528 128 L 528 128 L 528 32 L 528 32 L 528 24 L 528 24 L 520 24 L 502 24 L 500 25 L 500 25 L 436 57 L 436 57 L 432 59 L 432 59 L 416 6 L 416 6 L 414 0 L 414 0 L 408 0 L 328 0 Z M 369 336 L 16 336 L 369 336 L 16 336 L 16 288 L 16 288 Q 17 240 49 209 Q 80 177 128 176 L 240 176 L 240 176 L 240 288 L 240 288 L 240 304 L 240 304 L 256 304 L 376 304 Q 371 319 369 336 L 369 336 Z M 444 89 L 440 87 L 444 89 L 440 87 L 436 73 L 436 73 L 436 75 L 436 75 L 444 71 L 444 71 L 506 40 L 506 40 L 512 40 L 512 40 L 512 120 L 512 120 L 506 120 L 506 120 L 444 89 L 444 89 Z M 240 96 L 240 128 L 240 96 L 240 128 L 112 128 L 112 128 L 112 96 L 112 96 L 240 96 L 240 96 Z M 112 80 L 96 80 L 112 80 L 96 80 L 96 96 L 96 96 L 96 128 L 96 128 L 96 144 L 96 144 L 112 144 L 256 144 L 256 128 L 256 128 L 256 96 L 256 96 L 256 80 L 256 80 L 240 80 L 112 80 Z M 80 352 L 240 352 L 80 352 L 240 352 Q 239 386 217 409 Q 194 431 160 432 Q 126 431 103 409 Q 81 386 80 352 L 80 352 Z M 512 272 Q 557 273 581 312 Q 603 352 581 392 Q 557 431 512 432 Q 467 431 443 392 Q 421 352 443 312 Q 467 273 512 272 L 512 272 Z M 512 448 Q 538 448 560 435 L 560 435 L 560 435 Q 582 422 595 400 Q 608 377 608 352 Q 608 327 595 304 Q 582 282 560 269 Q 538 256 512 256 Q 486 256 464 269 Q 442 282 429 304 Q 416 327 416 352 Q 416 377 429 400 Q 442 422 464 435 Q 486 448 512 448 L 512 448 Z" />
</svg>