<svg xmlns="http://www.w3.org/2000/svg" viewBox="0 0 322 512">
  <path d="M 89 0 L 97 0 L 89 0 L 233 0 L 233 8 L 233 8 L 233 56 L 233 56 L 233 64 L 233 64 L 225 64 L 220 64 Q 255 100 283 147 Q 300 175 310 204 Q 321 233 321 260 Q 322 286 309 317 Q 297 348 265 372 L 265 384 L 265 384 L 249 384 L 249 384 L 249 368 L 249 368 L 249 363 L 249 363 L 253 361 L 253 361 Q 282 340 294 312 Q 306 284 305 260 Q 304 222 282 179 L 175 286 L 175 286 L 169 291 L 169 291 L 158 280 L 158 280 L 163 274 L 163 274 L 274 164 L 274 164 Q 272 160 269 156 Q 235 100 195 62 L 181 48 L 181 48 L 201 48 L 217 48 L 217 16 L 217 16 L 105 16 L 105 16 L 105 48 L 105 48 L 121 48 L 141 48 L 126 62 L 126 62 Q 87 100 53 156 Q 19 211 17 260 Q 16 284 28 312 Q 40 340 69 361 L 73 363 L 73 363 L 73 367 L 73 367 L 73 384 L 73 384 L 57 384 L 57 384 L 57 372 L 57 372 Q 25 348 13 317 Q 0 286 1 260 Q 4 205 39 147 Q 68 100 102 64 L 97 64 L 89 64 L 89 56 L 89 56 L 89 8 L 89 8 L 89 0 L 89 0 Z M 17 496 L 305 496 L 17 496 L 305 496 L 305 476 L 305 476 L 266 432 L 266 432 L 56 432 L 56 432 L 17 476 L 17 476 L 17 496 L 17 496 Z M 1 496 L 1 469 L 1 496 L 1 469 L 49 416 L 49 416 L 273 416 L 273 416 L 321 469 L 321 469 L 321 496 L 321 496 L 321 512 L 321 512 L 305 512 L 1 512 L 1 496 L 1 496 Z" />
</svg>