<svg xmlns="http://www.w3.org/2000/svg" viewBox="0 0 384 512">
  <path d="M 104 0 L 96 0 L 104 0 L 96 0 L 96 8 L 96 8 L 96 128 L 96 128 L 16 128 L 0 128 L 0 144 L 0 144 L 0 464 L 0 464 L 0 480 L 0 480 L 16 480 L 64 480 L 64 504 L 64 504 L 64 512 L 64 512 L 72 512 L 128 512 L 128 504 L 128 504 L 128 480 L 128 480 L 256 480 L 256 480 L 256 504 L 256 504 L 256 512 L 256 512 L 264 512 L 320 512 L 320 504 L 320 504 L 320 480 L 320 480 L 368 480 L 384 480 L 384 464 L 384 464 L 384 144 L 384 144 L 384 128 L 384 128 L 368 128 L 288 128 L 288 8 L 288 8 L 288 0 L 288 0 L 280 0 L 104 0 Z M 304 464 L 272 464 L 304 464 L 16 464 L 16 144 L 16 144 L 96 144 L 368 144 L 368 464 L 368 464 L 320 464 L 304 464 Z M 272 480 L 304 480 L 272 480 L 304 480 L 304 496 L 304 496 L 272 496 L 272 496 L 272 480 L 272 480 Z M 112 480 L 112 496 L 112 480 L 112 496 L 80 496 L 80 496 L 80 480 L 80 480 L 112 480 L 112 480 Z M 272 128 L 112 128 L 272 128 L 112 128 L 112 16 L 112 16 L 272 16 L 272 16 L 272 128 L 272 128 Z M 80 240 L 80 256 L 80 240 L 80 256 L 88 256 L 304 256 L 304 240 L 304 240 L 296 240 L 80 240 Z M 80 352 L 80 368 L 80 352 L 80 368 L 88 368 L 304 368 L 304 352 L 304 352 L 296 352 L 80 352 Z" />
</svg>