<svg xmlns="http://www.w3.org/2000/svg" viewBox="0 0 640 448">
  <path d="M 296 0 L 288 0 L 296 0 L 288 0 L 288 16 L 288 16 L 296 16 L 347 16 L 405 128 L 405 128 L 206 128 L 206 128 L 167 68 L 167 68 L 164 64 L 164 64 L 160 64 L 96 64 L 96 80 L 96 80 L 104 80 L 156 80 L 192 137 L 192 137 L 165 198 L 165 198 Q 147 192 128 192 Q 74 193 37 229 Q 1 266 0 320 Q 1 374 37 411 Q 74 447 128 448 Q 180 447 216 413 Q 251 379 256 328 L 320 328 L 325 328 L 327 324 L 327 324 L 417 152 L 417 152 L 447 210 L 447 210 Q 418 227 401 256 Q 384 285 384 320 Q 385 374 421 411 Q 458 447 512 448 Q 566 447 603 411 Q 639 374 640 320 Q 639 266 603 229 Q 566 193 512 192 Q 485 192 461 203 L 359 4 L 359 4 L 357 0 L 357 0 L 352 0 L 296 0 Z M 454 224 L 505 324 L 454 224 L 505 324 L 509 331 L 509 331 L 523 323 L 523 323 L 519 316 L 519 316 L 468 217 L 468 217 Q 489 208 512 208 Q 560 209 591 241 Q 623 272 624 320 Q 623 368 591 399 Q 560 431 512 432 Q 464 431 433 399 Q 401 368 400 320 Q 400 289 415 264 Q 429 239 454 224 L 454 224 Z M 159 212 L 113 317 L 159 212 L 113 317 L 120 328 L 120 328 L 240 328 L 240 328 Q 236 373 204 402 Q 173 431 128 432 Q 80 431 49 399 Q 17 368 16 320 Q 17 272 49 241 Q 80 209 128 208 Q 144 208 159 212 L 159 212 Z M 132 312 L 203 153 L 132 312 L 203 153 L 305 312 L 305 312 L 132 312 L 132 312 Z M 216 144 L 403 144 L 216 144 L 403 144 L 319 304 L 319 304 L 216 144 L 216 144 Z" />
</svg>