<svg xmlns="http://www.w3.org/2000/svg" viewBox="0 0 640 502">
  <path d="M 459 10 L 454 16 L 459 10 L 454 16 L 409 76 L 409 76 L 439 135 L 439 135 L 442 142 L 442 142 L 436 146 L 436 146 L 362 190 L 362 190 L 561 221 L 561 221 Q 595 227 617 253 Q 639 279 640 316 Q 639 359 613 384 Q 586 410 551 411 Q 515 412 485 383 L 352 261 L 352 261 L 352 293 L 352 293 L 406 358 L 406 358 L 408 360 L 408 360 L 408 363 L 408 363 L 408 417 L 408 417 L 455 486 L 455 486 L 459 493 L 459 493 L 446 502 L 446 502 L 442 496 L 442 496 L 394 424 L 394 424 L 392 422 L 392 422 L 392 419 L 392 419 L 392 366 L 392 366 L 352 318 L 352 318 L 352 395 L 352 395 L 352 427 L 352 427 L 288 427 L 288 427 L 288 395 L 288 395 L 288 318 L 288 318 L 248 366 L 248 366 L 248 419 L 248 419 L 248 422 L 248 422 L 247 424 L 247 424 L 199 496 L 199 496 L 194 502 L 194 502 L 181 493 L 181 493 L 186 486 L 186 486 L 232 417 L 232 417 L 232 363 L 232 363 L 232 360 L 232 360 L 234 358 L 234 358 L 288 293 L 288 293 L 288 261 L 288 261 L 155 383 L 155 383 Q 125 412 89 411 Q 54 410 27 384 Q 1 359 0 316 Q 1 279 23 253 Q 45 227 79 221 L 278 190 L 278 190 L 204 146 L 204 146 L 198 142 L 198 142 L 201 135 L 201 135 L 231 76 L 231 76 L 186 16 L 186 16 L 181 10 L 181 10 L 194 0 L 194 0 L 198 6 L 198 6 L 246 70 L 246 70 L 249 74 L 249 74 L 247 79 L 247 79 L 218 136 L 218 136 L 288 178 L 288 178 L 288 171 L 288 171 L 288 139 L 288 139 L 312 139 L 312 139 L 312 59 L 312 59 L 312 51 L 312 51 L 328 51 L 328 51 L 328 59 L 328 59 L 328 139 L 328 139 L 352 139 L 352 139 L 352 171 L 352 171 L 352 178 L 352 178 L 422 136 L 422 136 L 393 79 L 393 79 L 391 74 L 391 74 L 394 70 L 394 70 L 442 6 L 442 6 L 447 0 L 447 0 L 459 10 L 459 10 Z M 496 371 Q 496 371 497 372 L 497 372 L 497 372 Q 497 372 497 372 Q 521 396 550 395 Q 580 394 601 373 Q 623 352 624 316 Q 623 285 605 263 Q 587 242 559 237 L 558 237 L 558 237 Q 558 237 558 237 Q 558 237 558 237 L 352 205 L 352 205 L 352 239 L 352 239 L 496 371 L 496 371 Z M 82 237 L 81 237 L 82 237 L 81 237 Q 81 237 81 237 Q 53 242 35 263 Q 17 285 16 316 Q 17 352 39 373 Q 60 394 90 395 Q 119 396 143 372 Q 143 372 144 372 Q 144 371 144 371 L 288 239 L 288 239 L 288 205 L 288 205 L 82 237 L 82 237 Z M 304 395 L 304 411 L 304 395 L 304 411 L 336 411 L 336 411 L 336 395 L 336 395 L 336 171 L 336 171 L 336 155 L 336 155 L 304 155 L 304 155 L 304 171 L 304 171 L 304 395 L 304 395 Z" />
</svg>