<svg xmlns="http://www.w3.org/2000/svg" viewBox="0 0 640 512">
  <path d="M 368 16 L 16 16 L 368 16 L 16 16 L 16 496 L 16 496 L 144 496 L 144 496 L 144 384 L 144 384 L 144 368 L 144 368 L 160 368 L 240 368 L 240 384 L 240 384 L 240 496 L 240 496 L 288 496 L 288 496 L 288 512 L 288 512 L 240 512 L 0 512 L 0 496 L 0 496 L 0 16 L 0 16 L 0 0 L 0 0 L 16 0 L 384 0 L 384 16 L 384 16 L 384 64 L 384 64 L 368 64 L 368 64 L 368 16 L 368 16 Z M 288 104 L 288 120 L 288 104 L 288 120 L 256 120 L 248 120 L 248 168 L 248 168 L 256 168 L 288 168 L 288 184 L 288 184 L 240 184 L 232 184 L 232 176 L 232 176 L 232 112 L 232 112 L 232 104 L 232 104 L 240 104 L 288 104 Z M 288 232 L 288 248 L 288 232 L 288 248 L 256 248 L 248 248 L 248 296 L 248 296 L 256 296 L 288 296 L 288 312 L 288 312 L 240 312 L 232 312 L 232 304 L 232 304 L 232 240 L 232 240 L 232 232 L 232 232 L 240 232 L 288 232 Z M 224 496 L 224 384 L 224 496 L 224 384 L 160 384 L 160 384 L 160 496 L 160 496 L 224 496 L 224 496 Z M 72 232 L 80 232 L 72 232 L 152 232 L 152 240 L 152 240 L 152 304 L 152 304 L 152 312 L 152 312 L 144 312 L 72 312 L 72 304 L 72 304 L 72 240 L 72 240 L 72 232 L 72 232 Z M 88 248 L 88 296 L 88 248 L 88 296 L 136 296 L 136 296 L 136 248 L 136 248 L 88 248 L 88 248 Z M 72 104 L 80 104 L 72 104 L 152 104 L 152 112 L 152 112 L 152 176 L 152 176 L 152 184 L 152 184 L 144 184 L 72 184 L 72 176 L 72 176 L 72 112 L 72 112 L 72 104 L 72 104 Z M 88 120 L 88 168 L 88 120 L 88 168 L 136 168 L 136 168 L 136 120 L 136 120 L 88 120 L 88 120 Z M 336 112 L 336 496 L 336 112 L 336 496 L 624 496 L 624 496 L 624 112 L 624 112 L 336 112 L 336 112 Z M 320 96 L 336 96 L 320 96 L 640 96 L 640 112 L 640 112 L 640 496 L 640 496 L 640 512 L 640 512 L 624 512 L 320 512 L 320 496 L 320 496 L 320 112 L 320 112 L 320 96 L 320 96 Z M 384 208 Q 385 193 400 192 Q 415 193 416 208 Q 415 223 400 224 Q 385 223 384 208 L 384 208 Z M 400 288 Q 415 289 416 304 Q 415 319 400 320 Q 385 319 384 304 Q 385 289 400 288 L 400 288 Z M 384 400 Q 385 385 400 384 Q 415 385 416 400 Q 415 415 400 416 Q 385 415 384 400 L 384 400 Z M 456 200 L 576 200 L 456 200 L 584 200 L 584 216 L 584 216 L 576 216 L 448 216 L 448 200 L 448 200 L 456 200 L 456 200 Z M 456 296 L 576 296 L 456 296 L 584 296 L 584 312 L 584 312 L 576 312 L 448 312 L 448 296 L 448 296 L 456 296 L 456 296 Z M 456 392 L 576 392 L 456 392 L 584 392 L 584 408 L 584 408 L 576 408 L 448 408 L 448 392 L 448 392 L 456 392 L 456 392 Z" />
</svg>