<svg xmlns="http://www.w3.org/2000/svg" viewBox="0 0 640 448">
  <path d="M 171 172 L 193 157 L 171 172 L 193 157 L 200 153 L 200 153 L 200 144 L 200 144 L 200 128 L 200 128 L 200 112 L 200 112 L 184 112 L 120 112 L 120 128 L 120 128 L 120 144 L 120 144 L 120 153 L 120 153 L 127 157 L 127 157 L 149 172 L 149 172 L 123 192 L 123 192 L 48 192 L 48 192 Q 48 192 48 192 Q 48 192 48 192 L 32 192 L 32 192 L 32 112 L 32 112 Q 33 71 60 44 Q 87 17 128 16 L 192 16 L 192 16 Q 233 17 260 44 Q 287 71 288 112 L 288 161 L 288 161 L 288 189 L 288 189 L 288 192 L 288 192 L 287 192 L 280 192 Q 280 192 280 192 Q 280 192 280 192 L 264 192 L 264 192 Q 264 192 264 192 Q 264 192 264 192 L 197 192 L 197 192 L 171 172 L 171 172 Z M 192 208 L 266 208 L 192 208 L 266 208 Q 272 226 286 237 Q 301 248 320 248 L 397 248 L 397 248 Q 362 274 360 320 L 264 320 L 264 320 L 264 264 L 264 264 L 264 256 L 264 256 L 256 256 L 104 256 Q 82 256 67 242 Q 52 229 49 208 L 128 208 L 128 208 L 160 184 L 160 184 L 192 208 L 192 208 Z M 16 208 L 32 208 L 16 208 L 32 208 L 32 227 L 32 227 Q 33 289 62 338 Q 92 388 142 418 Q 191 447 253 448 L 417 448 L 417 448 Q 479 447 529 418 Q 580 388 610 337 Q 639 287 640 225 Q 639 160 602 111 Q 564 62 502 44 L 458 32 L 458 32 L 451 46 L 451 46 L 517 97 L 517 97 Q 551 124 552 168 Q 551 199 528 218 L 528 152 L 528 152 L 528 144 L 528 144 L 520 144 L 440 144 L 440 152 L 440 152 L 440 232 L 440 232 L 344 232 L 344 232 L 344 224 L 344 224 Q 345 209 360 208 L 368 208 L 408 208 L 408 200 L 408 200 L 408 136 L 408 136 L 408 128 L 408 128 L 400 128 L 360 128 Q 328 129 304 146 L 304 112 L 304 112 Q 304 104 303 96 L 312 96 L 320 96 L 320 80 L 320 80 L 312 80 L 299 80 Q 288 45 260 23 Q 231 1 192 0 L 128 0 L 128 0 Q 89 1 60 23 Q 32 45 21 80 L 8 80 L 0 80 L 0 96 L 0 96 L 8 96 L 17 96 Q 16 104 16 112 L 16 192 L 16 192 L 16 208 L 16 208 Z M 304 192 L 304 167 L 304 192 L 304 167 Q 326 145 360 144 L 368 144 L 392 144 L 392 192 L 392 192 L 368 192 L 360 192 Q 346 192 337 201 Q 328 210 328 224 L 328 232 L 328 232 L 320 232 L 320 232 Q 294 231 283 208 L 288 208 L 304 208 L 304 192 L 304 192 Z M 253 432 Q 171 430 115 378 L 115 378 L 115 378 Q 58 326 49 246 Q 70 271 104 272 L 248 272 L 248 272 L 248 320 L 248 320 L 208 320 L 152 320 L 152 336 L 152 336 L 160 336 L 376 336 L 376 328 L 376 328 L 376 320 L 376 320 Q 377 289 397 269 Q 417 249 448 248 L 448 248 L 448 248 Q 448 248 448 248 Q 448 248 448 248 L 456 248 L 456 248 L 456 240 L 456 240 L 456 160 L 456 160 L 512 160 L 512 160 L 512 227 L 512 227 L 512 244 L 512 244 L 512 332 L 512 332 L 459 370 L 459 370 L 453 374 L 453 374 L 462 387 L 462 387 L 469 383 L 469 383 L 525 343 L 525 343 L 528 340 L 528 340 L 528 336 L 528 336 L 528 237 L 528 237 Q 566 214 568 168 Q 567 117 527 85 L 493 58 L 493 58 L 498 60 L 498 60 Q 555 76 589 121 Q 623 166 624 225 Q 622 313 563 371 Q 505 430 417 432 L 253 432 L 253 432 Z M 112 112 Q 111 97 96 96 Q 81 97 80 112 Q 81 127 96 128 Q 111 127 112 112 L 112 112 Z M 224 128 Q 239 127 240 112 Q 239 97 224 96 Q 209 97 208 112 Q 209 127 224 128 L 224 128 Z M 136 144 L 136 128 L 136 144 L 136 128 L 152 128 L 184 128 L 184 144 L 184 144 L 160 160 L 160 160 L 136 144 L 136 144 Z" />
</svg>