<svg xmlns="http://www.w3.org/2000/svg" viewBox="0 0 640 448">
  <path d="M 8 0 L 0 0 L 8 0 L 0 0 L 0 16 L 0 16 L 8 16 L 640 16 L 640 0 L 640 0 L 632 0 L 8 0 Z M 8 48 L 0 48 L 8 48 L 0 48 L 0 64 L 0 64 L 8 64 L 640 64 L 640 48 L 640 48 L 632 48 L 8 48 Z M 8 384 L 0 384 L 8 384 L 0 384 L 0 400 L 0 400 L 8 400 L 640 400 L 640 384 L 640 384 L 632 384 L 8 384 Z M 8 432 L 0 432 L 8 432 L 0 432 L 0 448 L 0 448 L 8 448 L 640 448 L 640 432 L 640 432 L 632 432 L 8 432 Z M 22 138 L 16 133 L 22 138 L 16 133 L 5 144 L 5 144 L 10 150 L 10 150 L 85 224 L 85 224 L 10 298 L 10 298 L 5 304 L 5 304 L 16 315 L 16 315 L 22 310 L 22 310 L 96 235 L 96 235 L 170 310 L 170 310 L 176 315 L 176 315 L 187 304 L 187 304 L 182 298 L 182 298 L 107 224 L 107 224 L 182 150 L 182 150 L 187 144 L 187 144 L 176 133 L 176 133 L 170 138 L 170 138 L 96 213 L 96 213 L 22 138 L 22 138 Z M 246 138 L 240 133 L 246 138 L 240 133 L 229 144 L 229 144 L 234 150 L 234 150 L 309 224 L 309 224 L 234 298 L 234 298 L 229 304 L 229 304 L 240 315 L 240 315 L 246 310 L 246 310 L 320 235 L 320 235 L 394 310 L 394 310 L 400 315 L 400 315 L 411 304 L 411 304 L 406 298 L 406 298 L 331 224 L 331 224 L 406 150 L 406 150 L 411 144 L 411 144 L 400 133 L 400 133 L 394 138 L 394 138 L 320 213 L 320 213 L 246 138 L 246 138 Z M 470 138 L 464 133 L 470 138 L 464 133 L 453 144 L 453 144 L 458 150 L 458 150 L 533 224 L 533 224 L 458 298 L 458 298 L 453 304 L 453 304 L 464 315 L 464 315 L 470 310 L 470 310 L 544 235 L 544 235 L 618 310 L 618 310 L 624 315 L 624 315 L 635 304 L 635 304 L 630 298 L 630 298 L 555 224 L 555 224 L 630 150 L 630 150 L 635 144 L 635 144 L 624 133 L 624 133 L 618 138 L 618 138 L 544 213 L 544 213 L 470 138 L 470 138 Z" />
</svg>