<svg xmlns="http://www.w3.org/2000/svg" viewBox="0 0 633 511">
  <path d="M 523 16 Q 538 16 548 27 L 548 27 L 548 27 Q 559 37 559 52 Q 559 67 548 77 Q 538 88 523 88 Q 508 88 498 77 Q 487 67 487 52 Q 487 37 498 27 Q 508 16 523 16 L 523 16 Z M 523 104 Q 552 103 568 78 Q 582 52 568 26 Q 552 1 523 0 Q 494 1 478 26 Q 464 52 478 78 Q 494 103 523 104 L 523 104 Z M 542 270 L 547 280 L 542 270 L 547 280 L 557 285 L 557 285 L 590 301 L 590 301 L 605 309 L 605 309 L 612 294 L 612 294 L 626 266 L 626 266 L 633 251 L 633 251 L 619 244 L 619 244 L 595 232 L 595 232 L 560 162 L 560 162 L 553 148 L 553 148 L 537 144 L 537 144 L 457 128 L 457 128 L 447 126 L 447 126 L 438 131 L 438 131 L 366 163 L 366 163 L 353 168 L 353 168 L 349 182 L 349 182 L 333 230 L 333 230 L 328 245 L 328 245 L 323 260 L 323 260 L 338 265 L 338 265 L 368 275 L 368 275 L 383 280 L 383 280 L 388 265 L 388 265 L 394 250 L 394 250 L 405 215 L 405 215 L 423 208 L 423 208 L 442 199 L 442 199 L 436 219 L 436 219 L 425 263 L 425 263 Q 417 296 439 323 L 510 400 L 510 400 L 532 480 L 532 480 L 537 496 L 537 496 L 541 511 L 541 511 L 556 507 L 556 507 L 587 499 L 587 499 L 602 494 L 602 494 L 598 479 L 598 479 L 594 464 L 594 464 L 570 376 L 570 376 L 568 368 L 568 368 L 563 362 L 563 362 L 510 305 L 510 305 L 522 266 L 522 266 L 529 243 L 529 243 L 539 264 L 539 264 L 542 270 L 542 270 Z M 551 373 L 553 376 L 551 373 L 553 376 L 554 380 L 554 380 L 578 468 L 578 468 L 583 483 L 583 483 L 552 492 L 552 492 L 548 476 L 548 476 L 526 396 L 526 396 L 525 392 L 525 392 L 522 389 L 522 389 L 451 312 L 451 312 Q 434 292 440 267 L 457 203 L 457 203 L 466 171 L 466 171 L 435 185 L 435 185 L 398 201 L 398 201 L 392 204 L 392 204 L 390 210 L 390 210 L 378 245 L 378 245 L 373 260 L 373 260 L 343 250 L 343 250 L 348 235 L 348 235 L 364 187 L 364 187 L 366 180 L 366 180 L 372 177 L 372 177 L 444 145 L 444 145 L 449 143 L 449 143 L 454 144 L 454 144 L 534 160 L 534 160 L 542 162 L 542 162 L 545 169 L 545 169 L 580 239 L 580 239 L 583 244 L 583 244 L 588 246 L 588 246 L 612 259 L 612 259 L 597 287 L 597 287 L 564 270 L 564 270 L 559 268 L 559 268 L 557 263 L 557 263 L 543 236 L 543 236 L 525 199 L 525 199 L 513 238 L 513 238 L 495 301 L 495 301 L 493 310 L 493 310 L 499 316 L 499 316 L 551 373 L 551 373 Z M 384 398 L 340 441 L 384 398 L 340 441 L 329 453 L 329 453 L 318 464 L 318 464 L 329 475 L 329 475 L 352 498 L 352 498 L 363 509 L 363 509 L 374 498 L 374 498 L 386 487 L 386 487 L 434 439 L 434 439 L 438 434 L 438 434 L 441 428 L 441 428 L 456 389 L 456 389 L 444 376 L 444 376 L 426 422 L 426 422 L 424 425 L 424 425 L 422 427 L 422 427 L 374 475 L 374 475 L 363 487 L 363 487 L 340 464 L 340 464 L 352 453 L 352 453 L 395 409 L 395 409 L 397 407 L 397 407 L 399 404 L 399 404 L 420 349 L 420 349 L 416 344 L 416 344 Q 412 340 409 336 L 384 398 L 384 398 Z M 240 10 L 235 6 L 240 10 L 235 6 L 230 10 L 230 10 L 6 202 L 6 202 L 0 207 L 0 207 L 10 219 L 10 219 L 16 214 L 16 214 L 59 177 L 59 177 L 59 408 L 59 408 L 59 416 L 59 416 L 67 416 L 318 416 L 334 400 L 334 400 L 75 400 L 75 400 L 75 164 L 75 164 L 235 27 L 235 27 L 357 131 L 357 131 L 373 124 L 373 124 L 240 10 L 240 10 Z M 227 184 L 227 264 L 227 184 L 227 264 L 147 264 L 147 264 L 147 184 L 147 184 L 227 184 L 227 184 Z M 147 168 L 131 168 L 147 168 L 131 168 L 131 184 L 131 184 L 131 264 L 131 264 L 131 280 L 131 280 L 147 280 L 243 280 L 243 264 L 243 264 L 243 184 L 243 184 L 243 168 L 243 168 L 227 168 L 147 168 Z" />
</svg>