<svg xmlns="http://www.w3.org/2000/svg" viewBox="0 0 640 512">
  <path d="M 432 416 L 80 416 L 432 416 L 80 416 L 80 496 L 80 496 L 384 496 L 432 496 L 432 416 L 432 416 Z M 384 512 L 80 512 L 384 512 L 64 512 L 64 496 L 64 496 L 64 416 L 64 416 L 16 416 L 0 416 L 0 400 L 0 400 L 0 112 L 0 112 L 0 96 L 0 96 L 16 96 L 64 96 L 64 16 L 64 16 L 64 0 L 64 0 L 80 0 L 448 0 L 448 16 L 448 16 L 448 96 L 448 96 L 496 96 L 512 96 L 512 112 L 512 112 L 512 400 L 512 400 L 512 416 L 512 416 L 496 416 L 448 416 L 448 496 L 448 496 L 584 496 L 584 496 L 584 223 L 584 223 Q 567 220 555 207 Q 544 194 544 176 Q 545 156 558 142 Q 572 129 592 128 Q 612 129 626 142 Q 639 156 640 176 Q 640 194 629 207 Q 617 220 600 223 L 600 504 L 600 504 L 600 512 L 600 512 L 592 512 L 384 512 Q 384 512 384 512 Q 384 512 384 512 L 384 512 Z M 624 176 Q 624 162 615 153 L 615 153 L 615 153 Q 606 144 592 144 Q 578 144 569 153 Q 560 162 560 176 Q 560 190 569 199 Q 578 208 592 208 Q 606 208 615 199 Q 624 190 624 176 L 624 176 Z M 432 16 L 80 16 L 432 16 L 80 16 L 80 96 L 80 96 L 432 96 L 432 96 L 432 16 L 432 16 Z M 496 112 L 16 112 L 496 112 L 16 112 L 16 400 L 16 400 L 496 400 L 496 400 L 496 112 L 496 112 Z M 88 176 L 96 176 L 88 176 L 180 176 L 176 187 L 176 187 L 118 336 L 118 336 L 100 336 L 100 336 L 156 192 L 156 192 L 96 192 L 88 192 L 88 176 L 88 176 Z M 228 336 L 284 192 L 228 336 L 284 192 L 224 192 L 216 192 L 216 176 L 216 176 L 224 176 L 308 176 L 304 187 L 304 187 L 246 336 L 246 336 L 228 336 L 228 336 Z M 356 336 L 412 192 L 356 336 L 412 192 L 352 192 L 344 192 L 344 176 L 344 176 L 352 176 L 436 176 L 432 187 L 432 187 L 374 336 L 374 336 L 356 336 L 356 336 Z" />
</svg>