<svg xmlns="http://www.w3.org/2000/svg" viewBox="0 0 578 512">
  <path d="M 0 0 L 8 0 L 0 0 L 120 0 Q 126 0 128 6 L 247 385 L 247 385 Q 249 384 252 384 Q 254 384 256 384 Q 292 386 311 415 L 566 336 L 566 336 L 573 334 L 573 334 L 578 349 L 578 349 L 570 352 L 570 352 L 317 430 L 317 430 Q 320 438 320 448 Q 319 475 301 493 Q 283 511 256 512 Q 229 511 211 493 Q 193 475 192 448 Q 192 428 203 412 Q 214 396 232 389 L 114 16 L 114 16 L 8 16 L 0 16 L 0 0 L 0 0 Z M 304 448 Q 303 421 280 406 Q 256 394 232 406 Q 209 421 208 448 Q 209 475 232 490 Q 256 502 280 490 Q 303 475 304 448 L 304 448 Z" />
</svg>