<svg xmlns="http://www.w3.org/2000/svg" viewBox="0 0 576 448">
  <path d="M 112 16 L 112 376 L 112 16 L 112 376 L 464 376 L 464 376 L 464 16 L 464 16 L 112 16 L 112 16 Z M 480 16 L 480 376 L 480 16 L 480 376 L 512 376 L 520 376 L 520 392 L 520 392 L 512 392 L 56 392 L 56 376 L 56 376 L 64 376 L 96 376 L 96 16 L 96 16 L 96 0 L 96 0 L 112 0 L 480 0 L 480 16 L 480 16 Z M 16 320 L 64 320 L 16 320 L 64 320 L 64 336 L 64 336 L 16 336 L 16 336 L 16 432 L 16 432 L 560 432 L 560 432 L 560 336 L 560 336 L 512 336 L 512 336 L 512 320 L 512 320 L 560 320 L 576 320 L 576 336 L 576 336 L 576 432 L 576 432 L 576 448 L 576 448 L 560 448 L 0 448 L 0 432 L 0 432 L 0 336 L 0 336 L 0 320 L 0 320 L 16 320 L 16 320 Z M 374 144 L 267 251 L 374 144 L 267 251 L 261 257 L 261 257 L 256 251 L 256 251 L 202 198 L 202 198 L 197 192 L 197 192 L 208 181 L 208 181 L 214 186 L 214 186 L 261 234 L 261 234 L 362 133 L 362 133 L 368 127 L 368 127 L 379 139 L 379 139 L 374 144 L 374 144 Z" />
</svg>