<svg xmlns="http://www.w3.org/2000/svg" viewBox="0 0 310 520">
  <path d="M 115 64 Q 116 41 135 29 Q 155 19 175 29 Q 194 41 195 64 Q 194 87 175 99 Q 155 109 135 99 Q 116 87 115 64 L 115 64 Z M 211 64 Q 210 32 183 16 Q 155 0 127 16 Q 100 32 99 64 Q 100 96 127 112 Q 155 128 183 112 Q 210 96 211 64 L 211 64 Z M 163 392 L 163 512 L 163 392 L 163 512 L 163 520 L 163 520 Q 163 520 163 520 Q 163 520 163 520 L 171 520 L 227 520 L 227 512 L 227 512 L 227 424 L 227 424 L 227 256 L 227 256 L 227 248 L 227 248 L 211 248 L 211 248 L 211 256 L 211 256 L 211 504 L 211 504 L 179 504 L 179 504 L 179 424 L 179 424 L 179 392 L 179 392 L 179 376 L 179 376 L 163 376 L 163 376 L 163 152 L 163 152 L 155 152 L 155 152 Q 155 152 155 152 Q 155 152 155 152 L 209 152 L 209 152 L 292 324 L 292 324 L 295 331 L 295 331 L 310 324 L 310 324 L 306 317 L 306 317 L 221 141 L 221 141 L 219 136 L 219 136 L 214 136 L 155 136 Q 155 136 155 136 Q 155 136 155 136 L 96 136 L 91 136 L 89 141 L 89 141 L 4 317 L 4 317 L 0 324 L 0 324 L 15 331 L 15 331 L 18 324 L 18 324 L 101 152 L 101 152 L 147 152 L 147 152 L 147 376 L 147 376 L 155 376 L 155 376 L 155 392 L 155 392 L 163 392 L 163 392 Z M 155 376 L 155 392 L 155 376 L 155 392 L 147 392 L 147 392 L 147 512 L 147 512 L 147 520 L 147 520 L 139 520 L 83 520 L 83 512 L 83 512 L 83 392 L 83 392 L 51 392 L 40 392 L 43 382 L 43 382 L 99 214 L 99 214 L 102 206 L 102 206 L 117 211 L 117 211 L 115 219 L 115 219 L 62 376 L 62 376 L 83 376 L 155 376 Z M 99 504 L 131 504 L 99 504 L 131 504 L 131 392 L 131 392 L 99 392 L 99 392 L 99 504 L 99 504 Z" />
</svg>