<svg xmlns="http://www.w3.org/2000/svg" viewBox="0 0 448 448">
  <path d="M 16 16 L 16 432 L 16 16 L 16 432 L 432 432 L 432 432 L 432 16 L 432 16 L 16 16 L 16 16 Z M 0 0 L 16 0 L 0 0 L 448 0 L 448 16 L 448 16 L 448 432 L 448 432 L 448 448 L 448 448 L 432 448 L 0 448 L 0 432 L 0 432 L 0 16 L 0 16 L 0 0 L 0 0 Z M 112 224 Q 113 272 145 303 L 145 303 L 145 303 Q 176 335 224 336 Q 269 335 301 306 Q 332 277 336 232 L 258 232 L 250 232 L 250 216 L 250 216 L 258 216 L 352 216 L 352 224 L 352 224 Q 351 278 315 315 Q 278 351 224 352 Q 170 351 133 315 Q 97 278 96 224 Q 97 170 133 133 Q 170 97 224 96 Q 274 97 309 129 L 315 134 L 315 134 L 305 146 L 305 146 L 299 141 L 299 141 Q 268 113 224 112 Q 176 113 145 145 Q 113 176 112 224 L 112 224 Z" />
</svg>