<svg xmlns="http://www.w3.org/2000/svg" viewBox="0 0 511 511">
  <path d="M 295 97 L 272 120 L 295 97 L 272 120 L 295 143 L 295 143 L 296 144 L 296 144 L 384 144 L 416 144 L 416 112 L 416 112 L 416 24 L 416 24 L 415 23 L 415 23 L 392 0 L 392 0 L 369 23 L 369 23 L 343 49 L 343 49 Q 287 2 208 0 Q 120 2 61 61 Q 2 120 0 208 L 32 208 L 32 208 Q 34 133 84 84 Q 133 34 208 32 Q 273 33 320 72 L 295 97 L 295 97 Z M 384 53 L 384 112 L 384 53 L 384 112 L 325 112 L 325 112 L 384 53 L 384 53 Z M 121 319 L 144 296 L 121 319 L 144 296 L 121 273 L 121 273 L 120 272 L 120 272 L 32 272 L 0 272 L 0 304 L 0 304 L 0 392 L 0 392 L 1 393 L 1 393 L 24 416 L 24 416 L 47 393 L 47 393 L 73 367 L 73 367 Q 129 414 208 416 Q 287 414 343 366 L 488 511 L 488 511 L 511 488 L 511 488 L 366 343 L 366 343 Q 414 287 416 208 L 384 208 L 384 208 Q 382 283 332 332 Q 283 382 208 384 Q 143 383 96 344 L 121 319 L 121 319 Z M 32 363 L 32 304 L 32 363 L 32 304 L 91 304 L 91 304 L 32 363 L 32 363 Z" />
</svg>