<svg xmlns="http://www.w3.org/2000/svg" viewBox="0 0 576 416">
  <path d="M 576 128 L 576 112 L 576 128 L 576 112 L 576 16 L 576 16 L 576 0 L 576 0 L 560 0 L 0 0 L 0 16 L 0 16 L 0 112 L 0 112 L 0 128 L 0 128 Q 41 129 68 156 Q 95 183 96 224 L 96 272 L 96 272 Q 96 272 96 272 Q 96 272 96 272 L 112 284 L 112 284 L 112 224 L 112 224 Q 111 181 84 150 Q 58 120 16 113 L 16 16 L 16 16 L 560 16 L 560 16 L 560 113 L 560 113 Q 518 120 492 150 Q 465 181 464 224 L 464 284 L 464 284 L 480 272 L 480 272 L 480 224 L 480 224 Q 481 183 508 156 Q 535 129 576 128 L 576 128 Z M 368 208 L 368 317 L 368 208 L 368 317 Q 376 319 384 319 L 384 208 L 384 208 Q 383 167 356 140 Q 329 113 288 112 Q 247 113 220 140 Q 193 167 192 208 L 192 319 L 192 319 Q 200 319 208 317 L 208 208 L 208 208 Q 209 174 231 151 Q 254 129 288 128 Q 322 129 345 151 Q 367 174 368 208 L 368 208 Z M 97 331 Q 96 331 96 331 L 96 331 L 96 331 Q 96 330 96 330 Q 96 330 96 331 Q 95 331 95 331 Q 95 332 94 333 Q 88 341 82 349 Q 75 358 62 370 Q 49 382 33 391 Q 17 400 0 400 L 0 416 L 0 416 Q 22 415 40 405 Q 59 395 73 382 Q 88 367 96 357 Q 104 367 119 382 Q 133 395 152 405 Q 170 415 192 416 Q 214 415 232 405 Q 251 395 265 382 Q 280 367 288 357 Q 296 367 311 382 Q 325 395 344 405 Q 362 415 384 416 Q 406 415 424 405 Q 443 395 457 382 Q 472 367 480 357 Q 488 367 503 382 Q 517 395 536 405 Q 554 415 576 416 L 576 400 L 576 400 Q 559 400 543 391 Q 527 382 514 370 Q 501 358 494 349 Q 487 341 481 332 Q 481 331 481 331 L 480 330 L 480 330 L 480 331 L 480 331 Q 479 332 478 333 Q 473 341 466 349 Q 459 358 446 370 Q 433 382 417 391 Q 401 400 384 400 Q 367 400 351 391 Q 335 382 322 370 Q 309 358 302 349 Q 295 341 289 332 Q 289 331 289 331 Q 289 331 288 330 Q 288 330 288 330 Q 288 330 288 331 Q 288 331 288 331 Q 287 331 287 332 Q 281 341 274 349 Q 267 358 254 370 Q 241 382 225 391 Q 209 400 192 400 Q 175 400 159 391 Q 143 382 130 370 Q 117 358 110 349 Q 103 341 97 332 Q 97 331 97 331 L 97 331 Z" />
</svg>