<svg xmlns="http://www.w3.org/2000/svg" viewBox="0 0 640 384">
  <path d="M 167 0 L 173 0 L 167 0 L 640 0 L 640 16 L 640 16 L 640 368 L 640 368 L 640 384 L 640 384 L 624 384 L 0 384 L 0 376 L 0 376 L 0 173 L 0 173 L 0 167 L 0 167 L 6 165 L 6 165 Q 35 157 53 134 Q 71 111 72 80 L 72 72 L 72 72 L 80 72 L 80 72 Q 111 71 134 53 Q 157 35 165 6 L 167 0 L 167 0 Z M 184 16 L 184 128 L 184 16 L 184 128 L 320 128 L 320 128 L 320 16 L 320 16 L 184 16 L 184 16 Z M 168 39 Q 140 82 88 88 Q 86 110 76 128 L 168 128 L 168 128 L 168 39 L 168 39 Z M 66 144 Q 46 169 16 179 L 16 256 L 16 256 L 168 256 L 168 256 L 168 144 L 168 144 L 66 144 L 66 144 Z M 16 272 L 16 368 L 16 272 L 16 368 L 168 368 L 168 368 L 168 272 L 168 272 L 16 272 L 16 272 Z M 184 368 L 320 368 L 184 368 L 320 368 L 320 272 L 320 272 L 184 272 L 184 272 L 184 368 L 184 368 Z M 336 256 L 336 272 L 336 256 L 336 272 L 336 368 L 336 368 L 624 368 L 624 368 L 624 16 L 624 16 L 336 16 L 336 16 L 336 128 L 336 128 L 336 144 L 336 144 L 336 256 L 336 256 Z M 320 144 L 184 144 L 320 144 L 184 144 L 184 256 L 184 256 L 320 256 L 320 256 L 320 144 L 320 144 Z" />
</svg>