<svg xmlns="http://www.w3.org/2000/svg" viewBox="0 0 512 512">
  <path d="M 168 0 L 160 0 L 168 0 L 160 0 L 160 8 L 160 8 L 160 64 L 160 64 L 112 64 L 106 64 L 104 70 L 104 70 L 58 224 L 58 224 L 16 224 L 0 224 L 0 240 L 0 240 L 0 416 L 0 416 L 0 432 L 0 432 L 0 496 L 0 496 L 0 512 L 0 512 L 16 512 L 96 512 L 96 496 L 96 496 L 96 432 L 96 432 L 416 432 L 416 432 L 416 496 L 416 496 L 416 512 L 416 512 L 432 512 L 512 512 L 512 496 L 512 496 L 512 432 L 512 432 L 512 416 L 512 416 L 512 240 L 512 240 L 512 224 L 512 224 L 496 224 L 454 224 L 408 70 L 408 70 L 406 64 L 406 64 L 400 64 L 352 64 L 352 8 L 352 8 L 352 0 L 352 0 L 344 0 L 168 0 Z M 496 416 L 432 416 L 496 416 L 16 416 L 16 240 L 16 240 L 496 240 L 496 240 L 496 416 L 496 416 Z M 432 432 L 496 432 L 432 432 L 496 432 L 496 496 L 496 496 L 432 496 L 432 496 L 432 432 L 432 432 Z M 16 432 L 80 432 L 16 432 L 80 432 L 80 496 L 80 496 L 16 496 L 16 496 L 16 432 L 16 432 Z M 336 64 L 176 64 L 336 64 L 176 64 L 176 16 L 176 16 L 336 16 L 336 16 L 336 64 L 336 64 Z M 160 80 L 176 80 L 160 80 L 394 80 L 437 224 L 437 224 L 75 224 L 75 224 L 118 80 L 118 80 L 160 80 L 160 80 Z M 96 304 Q 111 305 112 320 Q 111 335 96 336 Q 81 335 80 320 Q 81 305 96 304 L 96 304 Z M 96 352 Q 110 352 119 343 L 119 343 L 119 343 Q 128 334 128 320 Q 128 306 119 297 Q 110 288 96 288 Q 82 288 73 297 Q 64 306 64 320 Q 64 334 73 343 Q 82 352 96 352 L 96 352 Z M 400 320 Q 401 305 416 304 Q 431 305 432 320 Q 431 335 416 336 Q 401 335 400 320 L 400 320 Z M 448 320 Q 448 306 439 297 L 439 297 L 439 297 Q 430 288 416 288 Q 402 288 393 297 Q 384 306 384 320 Q 384 334 393 343 Q 402 352 416 352 Q 430 352 439 343 Q 448 334 448 320 L 448 320 Z" />
</svg>