<svg xmlns="http://www.w3.org/2000/svg" viewBox="0 0 448 509">
  <path d="M 247 487 L 224 509 L 247 487 L 224 509 L 201 487 L 201 487 L 73 359 L 73 359 L 51 336 L 51 336 L 96 291 L 96 291 L 119 313 L 119 313 L 192 387 L 192 387 L 192 192 L 192 192 L 192 160 L 192 160 L 256 160 L 256 160 L 256 192 L 256 192 L 256 387 L 256 387 L 329 313 L 329 313 L 352 291 L 352 291 L 397 336 L 397 336 L 375 359 L 375 359 L 247 487 L 247 487 Z M 64 160 L 64 192 L 64 160 L 64 192 L 0 192 L 0 192 L 0 160 L 0 160 L 0 32 L 0 32 L 0 0 L 0 0 L 32 0 L 448 0 L 448 32 L 448 32 L 448 160 L 448 160 L 448 192 L 448 192 L 384 192 L 384 192 L 384 160 L 384 160 L 384 64 L 384 64 L 64 64 L 64 64 L 64 160 L 64 160 Z" />
</svg>