<svg xmlns="http://www.w3.org/2000/svg" viewBox="0 0 576 512">
  <path d="M 0 0 L 8 0 L 0 0 L 160 0 L 160 16 L 160 16 L 152 16 L 16 16 L 16 152 L 16 152 L 16 160 L 16 160 L 0 160 L 0 160 L 0 152 L 0 152 L 0 8 L 0 8 L 0 0 L 0 0 Z M 144 128 L 144 384 L 144 128 L 144 384 L 128 384 L 128 384 L 128 128 L 128 128 L 144 128 L 144 128 Z M 192 128 L 192 384 L 192 128 L 192 384 L 176 384 L 176 384 L 176 128 L 176 128 L 192 128 L 192 128 Z M 240 128 L 256 128 L 240 128 L 256 128 L 256 384 L 256 384 L 240 384 L 240 384 L 240 128 L 240 128 Z M 336 128 L 336 384 L 336 128 L 336 384 L 320 384 L 320 384 L 320 128 L 320 128 L 336 128 L 336 128 Z M 368 128 L 384 128 L 368 128 L 384 128 L 384 384 L 384 384 L 368 384 L 368 384 L 368 128 L 368 128 Z M 448 128 L 448 384 L 448 128 L 448 384 L 432 384 L 432 384 L 432 128 L 432 128 L 448 128 L 448 128 Z M 568 0 L 576 0 L 568 0 L 576 0 L 576 8 L 576 8 L 576 152 L 576 152 L 576 160 L 576 160 L 560 160 L 560 160 L 560 152 L 560 152 L 560 16 L 560 16 L 424 16 L 416 16 L 416 0 L 416 0 L 424 0 L 568 0 Z M 0 512 L 0 504 L 0 512 L 0 504 L 0 360 L 0 360 L 0 352 L 0 352 L 16 352 L 16 352 L 16 360 L 16 360 L 16 496 L 16 496 L 152 496 L 160 496 L 160 512 L 160 512 L 152 512 L 0 512 Z M 568 512 L 424 512 L 568 512 L 416 512 L 416 496 L 416 496 L 424 496 L 560 496 L 560 360 L 560 360 L 560 352 L 560 352 L 576 352 L 576 352 L 576 360 L 576 360 L 576 504 L 576 504 L 576 512 L 576 512 L 568 512 L 568 512 Z" />
</svg>