<svg xmlns="http://www.w3.org/2000/svg" viewBox="0 0 635 512">
  <path d="M 139 3 Q 126 0 112 0 Q 64 1 33 33 Q 1 64 0 112 Q 1 160 33 191 Q 64 223 112 224 Q 166 222 199 183 Q 206 174 212 163 Q 202 167 190 168 Q 187 168 184 168 Q 150 167 127 145 Q 105 122 104 88 Q 106 44 141 20 Q 150 15 161 11 Q 150 6 139 3 L 139 3 Z M 112 16 Q 116 16 120 16 Q 89 44 88 88 Q 89 127 114 153 Q 138 180 176 184 Q 150 207 112 208 Q 71 207 44 180 Q 17 153 16 112 Q 17 71 44 44 Q 71 17 112 16 L 112 16 Z M 405 106 L 400 101 L 405 106 L 400 101 L 395 106 L 395 106 L 171 298 L 171 298 L 165 303 L 165 303 L 175 315 L 175 315 L 181 310 L 181 310 L 224 273 L 224 273 L 224 504 L 224 504 L 224 512 L 224 512 L 232 512 L 576 512 L 576 504 L 576 504 L 576 273 L 576 273 L 619 310 L 619 310 L 625 315 L 625 315 L 635 303 L 635 303 L 629 298 L 629 298 L 405 106 L 405 106 Z M 560 260 L 560 496 L 560 260 L 560 496 L 240 496 L 240 496 L 240 260 L 240 260 L 400 123 L 400 123 L 560 260 L 560 260 Z M 336 272 L 336 280 L 336 272 L 336 280 L 336 392 L 336 392 L 336 400 L 336 400 L 344 400 L 464 400 L 464 392 L 464 392 L 464 280 L 464 280 L 464 272 L 464 272 L 456 272 L 336 272 Z M 352 288 L 448 288 L 352 288 L 448 288 L 448 384 L 448 384 L 352 384 L 352 384 L 352 288 L 352 288 Z M 264 0 L 248 0 L 264 0 L 248 0 L 248 8 L 248 8 L 248 56 L 248 56 L 200 56 L 192 56 L 192 72 L 192 72 L 200 72 L 248 72 L 248 120 L 248 120 L 248 128 L 248 128 L 264 128 L 264 128 L 264 120 L 264 120 L 264 72 L 264 72 L 312 72 L 320 72 L 320 56 L 320 56 L 312 56 L 264 56 L 264 8 L 264 8 L 264 0 L 264 0 Z M 104 320 L 88 320 L 104 320 L 88 320 L 88 328 L 88 328 L 88 376 L 88 376 L 40 376 L 32 376 L 32 392 L 32 392 L 40 392 L 88 392 L 88 440 L 88 440 L 88 448 L 88 448 L 104 448 L 104 448 L 104 440 L 104 440 L 104 392 L 104 392 L 152 392 L 160 392 L 160 376 L 160 376 L 152 376 L 104 376 L 104 328 L 104 328 L 104 320 L 104 320 Z" />
</svg>