<svg xmlns="http://www.w3.org/2000/svg" viewBox="0 0 448 448">
  <path d="M 16 16 L 16 432 L 16 16 L 16 432 L 432 432 L 432 432 L 432 16 L 432 16 L 16 16 L 16 16 Z M 0 0 L 16 0 L 0 0 L 448 0 L 448 16 L 448 16 L 448 432 L 448 432 L 448 448 L 448 448 L 432 448 L 0 448 L 0 432 L 0 432 L 0 16 L 0 16 L 0 0 L 0 0 Z M 352 352 L 352 368 L 352 352 L 352 368 L 96 368 L 96 368 L 96 352 L 96 352 L 352 352 L 352 352 Z M 128 85 L 134 90 L 128 85 L 134 90 L 198 154 L 198 154 L 203 160 L 203 160 L 192 171 L 192 171 L 186 166 L 186 166 L 136 115 L 136 115 L 136 280 L 136 280 L 136 288 L 136 288 L 120 288 L 120 288 L 120 280 L 120 280 L 120 115 L 120 115 L 70 166 L 70 166 L 64 171 L 64 171 L 53 160 L 53 160 L 58 154 L 58 154 L 122 90 L 122 90 L 128 85 L 128 85 Z M 320 85 L 326 90 L 320 85 L 326 90 L 390 154 L 390 154 L 395 160 L 395 160 L 384 171 L 384 171 L 378 166 L 378 166 L 328 115 L 328 115 L 328 280 L 328 280 L 328 288 L 328 288 L 312 288 L 312 288 L 312 280 L 312 280 L 312 115 L 312 115 L 262 166 L 262 166 L 256 171 L 256 171 L 245 160 L 245 160 L 250 154 L 250 154 L 314 90 L 314 90 L 320 85 L 320 85 Z" />
</svg>