<svg xmlns="http://www.w3.org/2000/svg" viewBox="0 0 512 448">
  <path d="M 208 176 L 176 176 L 208 176 L 176 176 L 176 144 L 176 144 L 176 96 L 176 96 L 158 96 L 158 96 L 43 224 L 43 224 L 158 352 L 158 352 L 176 352 L 176 352 L 176 304 L 176 304 L 176 272 L 176 272 L 208 272 L 320 272 L 320 176 L 320 176 L 208 176 L 208 176 Z M 208 64 L 208 96 L 208 64 L 208 96 L 208 112 L 208 112 L 208 144 L 208 144 L 240 144 L 352 144 L 352 176 L 352 176 L 352 272 L 352 272 L 352 304 L 352 304 L 320 304 L 208 304 L 208 336 L 208 336 L 208 352 L 208 352 L 208 384 L 208 384 L 176 384 L 144 384 L 0 224 L 0 224 L 144 64 L 144 64 L 176 64 L 208 64 Z M 336 416 L 480 416 L 336 416 L 480 416 L 480 32 L 480 32 L 336 32 L 320 32 L 320 0 L 320 0 L 336 0 L 512 0 L 512 16 L 512 16 L 512 432 L 512 432 L 512 448 L 512 448 L 496 448 L 320 448 L 320 416 L 320 416 L 336 416 L 336 416 Z" />
</svg>