<svg xmlns="http://www.w3.org/2000/svg" viewBox="0 0 320 448">
  <path d="M 112 126 Q 113 100 130 82 L 130 82 L 130 82 Q 148 65 174 64 Q 186 64 197 68 L 260 94 L 260 94 L 290 106 L 290 106 L 314 46 L 314 46 L 284 34 L 284 34 L 221 9 L 221 9 Q 198 0 174 0 Q 120 1 85 37 Q 49 72 48 126 L 48 192 L 48 192 L 0 192 L 0 192 L 0 256 L 0 256 L 48 256 L 48 256 L 48 304 L 48 304 L 3 394 L 3 394 L 0 400 L 0 400 L 0 408 L 0 408 L 0 416 L 0 416 L 0 448 L 0 448 L 32 448 L 320 448 L 320 384 L 320 384 L 288 384 L 80 384 L 109 326 L 109 326 L 112 320 L 112 320 L 112 312 L 112 312 L 112 256 L 112 256 L 256 256 L 256 256 L 256 192 L 256 192 L 112 192 L 112 192 L 112 126 L 112 126 Z" />
</svg>