<svg xmlns="http://www.w3.org/2000/svg" viewBox="0 0 640 512">
  <path d="M 32 10 L 20 0 L 32 10 L 20 0 L 0 25 L 0 25 L 13 35 L 13 35 L 608 502 L 608 502 L 620 512 L 620 512 L 640 487 L 640 487 L 628 477 L 628 477 L 32 10 L 32 10 Z M 608 64 L 608 32 L 608 64 L 608 32 L 576 32 L 140 32 L 180 64 L 180 64 L 576 64 L 576 64 L 576 377 L 576 377 L 608 402 L 608 402 L 608 64 L 608 64 Z M 125 352 L 161 352 L 125 352 L 161 352 L 183 304 L 183 304 L 184 304 L 265 304 L 287 352 L 287 352 L 323 352 L 323 352 L 314 333 L 314 333 L 237 272 L 237 272 L 198 272 L 198 272 L 208 249 L 208 249 L 182 229 L 182 229 L 125 352 L 125 352 Z M 32 110 L 32 448 L 32 110 L 32 448 L 32 480 L 32 480 L 64 480 L 500 480 L 460 448 L 460 448 L 64 448 L 64 448 L 64 135 L 64 135 L 32 110 L 32 110 Z M 336 352 L 338 352 L 336 352 L 338 352 L 336 350 L 336 350 L 336 352 L 336 352 Z M 512 256 Q 511 215 484 188 L 484 188 L 484 188 Q 457 161 416 160 L 352 160 L 336 160 L 336 176 L 336 176 L 336 187 L 336 187 L 368 212 L 368 212 L 368 192 L 368 192 L 416 192 L 416 192 Q 443 193 461 211 Q 479 229 480 256 Q 480 276 469 292 L 494 312 L 494 312 Q 512 288 512 256 L 512 256 Z" />
</svg>