<svg xmlns="http://www.w3.org/2000/svg" viewBox="0 0 512 448">
  <path d="M 135 429 L 81 334 L 135 429 L 81 334 L 160 254 L 160 254 L 233 325 L 233 325 L 135 429 L 135 429 Z M 73 319 L 18 224 L 73 319 L 18 224 L 137 16 L 137 16 L 375 16 L 375 16 L 494 224 L 494 224 L 462 280 L 462 280 L 374 187 L 374 187 L 368 180 L 368 180 L 362 187 L 362 187 L 244 313 L 244 313 L 166 237 L 166 237 L 160 232 L 160 232 L 154 238 L 154 238 L 73 319 L 73 319 Z M 453 295 L 375 432 L 453 295 L 375 432 L 154 432 L 154 432 L 368 204 L 368 204 L 453 295 L 453 295 Z M 128 0 L 0 224 L 128 0 L 0 224 L 128 448 L 128 448 L 384 448 L 384 448 L 512 224 L 512 224 L 384 0 L 384 0 L 128 0 L 128 0 Z M 192 176 Q 219 175 234 152 Q 246 128 234 104 Q 219 81 192 80 Q 165 81 150 104 Q 138 128 150 152 Q 165 175 192 176 L 192 176 Z M 160 128 Q 160 114 169 105 L 169 105 L 169 105 Q 178 96 192 96 Q 206 96 215 105 Q 224 114 224 128 Q 224 142 215 151 Q 206 160 192 160 Q 178 160 169 151 Q 160 142 160 128 L 160 128 Z" />
</svg>