<svg xmlns="http://www.w3.org/2000/svg" viewBox="0 0 448 448">
  <path d="M 16 432 L 432 432 L 16 432 L 432 432 L 432 16 L 432 16 L 16 16 L 16 16 L 16 432 L 16 432 Z M 0 448 L 0 432 L 0 448 L 0 432 L 0 16 L 0 16 L 0 0 L 0 0 L 16 0 L 448 0 L 448 16 L 448 16 L 448 432 L 448 432 L 448 448 L 448 448 L 432 448 L 0 448 Z M 98 218 L 202 114 L 98 218 L 202 114 L 208 109 L 208 109 L 219 120 L 219 120 L 214 126 L 214 126 L 123 216 L 123 216 L 344 216 L 352 216 L 352 232 L 352 232 L 344 232 L 123 232 L 214 322 L 214 322 L 219 328 L 219 328 L 208 339 L 208 339 L 202 334 L 202 334 L 98 230 L 98 230 L 93 224 L 93 224 L 98 218 L 98 218 Z" />
</svg>