<svg xmlns="http://www.w3.org/2000/svg" viewBox="0 0 448 448">
  <path d="M 32 32 L 32 416 L 32 32 L 32 416 L 416 416 L 416 416 L 416 32 L 416 32 L 32 32 L 32 32 Z M 0 0 L 32 0 L 0 0 L 448 0 L 448 32 L 448 32 L 448 416 L 448 416 L 448 448 L 448 448 L 416 448 L 0 448 L 0 416 L 0 416 L 0 32 L 0 32 L 0 0 L 0 0 Z M 128 96 L 144 96 L 128 96 L 240 96 Q 274 97 297 119 Q 319 142 320 176 L 320 192 L 320 192 L 318 192 L 318 192 Q 308 236 266 252 L 327 352 L 327 352 L 290 352 L 290 352 L 231 256 L 231 256 L 224 256 L 160 256 L 160 336 L 160 336 L 160 352 L 160 352 L 128 352 L 128 352 L 128 336 L 128 336 L 128 240 L 128 240 L 128 112 L 128 112 L 128 96 L 128 96 Z M 160 224 L 224 224 L 160 224 L 240 224 Q 260 223 274 210 Q 287 196 288 176 Q 287 156 274 142 Q 260 129 240 128 L 160 128 L 160 128 L 160 224 L 160 224 Z" />
</svg>