<svg xmlns="http://www.w3.org/2000/svg" viewBox="0 0 608 480">
  <path d="M 8 0 L 568 0 L 8 0 L 576 0 L 576 16 L 576 16 L 568 16 L 488 16 L 488 112 L 488 112 L 568 112 L 576 112 L 576 128 L 576 128 L 568 128 L 0 128 L 0 112 L 0 112 L 8 112 L 88 112 L 88 16 L 88 16 L 8 16 L 0 16 L 0 0 L 0 0 L 8 0 L 8 0 Z M 472 16 L 360 16 L 472 16 L 360 16 L 360 112 L 360 112 L 472 112 L 472 112 L 472 16 L 472 16 Z M 344 16 L 232 16 L 344 16 L 232 16 L 232 112 L 232 112 L 344 112 L 344 112 L 344 16 L 344 16 Z M 216 16 L 104 16 L 216 16 L 104 16 L 104 112 L 104 112 L 216 112 L 216 112 L 216 16 L 216 16 Z M 8 224 L 32 224 L 8 224 L 32 224 Q 69 225 94 250 Q 119 275 120 312 L 120 432 L 120 432 L 200 432 L 200 432 L 200 312 L 200 312 Q 201 275 226 250 Q 251 225 288 224 Q 307 224 323 231 Q 318 238 314 245 Q 302 240 288 240 Q 257 241 237 261 Q 217 281 216 312 L 216 440 L 216 440 L 216 448 L 216 448 L 208 448 L 104 448 L 104 440 L 104 440 L 104 312 L 104 312 Q 103 281 83 261 Q 63 241 32 240 L 8 240 L 0 240 L 0 224 L 0 224 L 8 224 L 8 224 Z M 592 336 Q 592 301 575 272 L 575 272 L 575 272 Q 558 243 528 225 Q 498 208 464 208 Q 430 208 400 225 Q 370 243 353 272 Q 336 301 336 336 Q 336 371 353 400 Q 370 429 400 447 Q 430 464 464 464 Q 498 464 528 447 Q 558 429 575 400 Q 592 371 592 336 L 592 336 Z M 320 336 Q 320 297 339 264 L 339 264 L 339 264 Q 358 231 392 211 Q 426 192 464 192 Q 502 192 536 211 Q 570 231 589 264 Q 608 297 608 336 Q 608 375 589 408 Q 570 441 536 461 Q 502 480 464 480 Q 426 480 392 461 Q 358 441 339 408 Q 320 375 320 336 L 320 336 Z M 476 412 L 452 412 L 476 412 L 452 412 L 452 388 L 452 388 L 476 388 L 476 388 L 476 412 L 476 412 Z M 472 248 L 472 256 L 472 248 L 472 256 L 472 352 L 472 352 L 472 360 L 472 360 L 456 360 L 456 360 L 456 352 L 456 352 L 456 256 L 456 256 L 456 248 L 456 248 L 472 248 L 472 248 Z" />
</svg>