<svg xmlns="http://www.w3.org/2000/svg" viewBox="0 0 384 443">
  <path d="M 198 5 L 192 0 L 198 5 L 192 0 L 186 5 L 186 5 L 50 141 L 50 141 L 45 147 L 45 147 L 56 158 L 56 158 L 62 153 L 62 153 L 184 30 L 184 30 L 184 339 L 184 339 L 184 347 L 184 347 L 200 347 L 200 347 L 200 339 L 200 339 L 200 30 L 200 30 L 322 153 L 322 153 L 328 158 L 328 158 L 339 147 L 339 147 L 334 141 L 334 141 L 198 5 L 198 5 Z M 8 427 L 0 427 L 8 427 L 0 427 L 0 443 L 0 443 L 8 443 L 384 443 L 384 427 L 384 427 L 376 427 L 8 427 Z" />
</svg>