<svg xmlns="http://www.w3.org/2000/svg" viewBox="0 0 544 464">
  <path d="M 151 448 L 272 448 L 151 448 L 297 448 L 367 378 L 367 378 L 166 177 L 166 177 L 23 320 L 23 320 L 151 448 L 151 448 Z M 272 464 L 144 464 L 272 464 L 144 464 L 11 331 L 11 331 L 0 320 L 0 320 L 11 309 L 11 309 L 309 11 L 309 11 L 320 0 L 320 0 L 331 11 L 331 11 L 533 213 L 533 213 L 544 224 L 544 224 L 533 235 L 533 235 L 320 448 L 320 448 L 520 448 L 528 448 L 528 464 L 528 464 L 520 464 L 272 464 Z M 378 367 L 521 224 L 378 367 L 521 224 L 320 23 L 320 23 L 177 166 L 177 166 L 378 367 L 378 367 Z" />
</svg>