<svg xmlns="http://www.w3.org/2000/svg" viewBox="0 0 512 512">
  <path d="M 134.4 460.8 L 124 460.8 L 116 453.6 L 7.2 344.8 L 0 336.8 L 0 326.4 L 0 313.6 L 0 303.2 L 7.2 295.2 L 116 186.4 L 124 179.2 L 134.4 179.2 L 179.2 179.2 L 204.8 179.2 L 204.8 204.8 L 204.8 230.4 L 256 230.4 L 332.8 230.4 L 358.4 230.4 L 358.4 256 L 358.4 281.6 L 367.2 281.6 L 456.8 192 L 367.2 102.4 L 358.4 102.4 L 358.4 128 L 358.4 153.6 L 332.8 153.6 L 256 153.6 L 230.4 153.6 L 230.4 102.4 L 256 102.4 L 307.2 102.4 L 307.2 76.8 L 307.2 51.2 L 332.8 51.2 L 377.6 51.2 L 388 51.2 L 396 58.4 L 504.8 167.2 L 512 175.2 L 512 185.6 L 512 198.4 L 512 208.8 L 504.8 216.8 L 396 325.6 L 388 332.8 L 377.6 332.8 L 332.8 332.8 L 307.2 332.8 L 307.2 307.2 L 307.2 281.6 L 256 281.6 L 179.2 281.6 L 153.6 281.6 L 153.6 256 L 153.6 230.4 L 144.8 230.4 L 55.2 320 L 144.8 409.6 L 153.6 409.6 L 153.6 384 L 153.6 358.4 L 179.2 358.4 L 256 358.4 L 281.6 358.4 L 281.6 409.6 L 256 409.6 L 204.8 409.6 L 204.8 435.2 L 204.8 460.8 L 179.2 460.8 L 134.4 460.8 L 134.4 460.8 Z" />
</svg>