<svg xmlns="http://www.w3.org/2000/svg" viewBox="0 0 512 512">
  <path d="M 427 20 L 384 192 L 427 20 L 384 192 L 458 400 L 458 400 L 441 400 L 441 400 L 369 197 L 369 197 L 367 193 L 367 193 L 369 188 L 369 188 L 408 30 L 408 30 L 188 140 L 188 140 L 73 400 L 73 400 L 55 400 L 55 400 L 176 128 L 176 128 L 413 9 L 413 9 L 432 0 L 432 0 L 427 20 L 427 20 Z M 496 448 L 16 448 L 496 448 L 16 448 L 16 496 L 16 496 L 496 496 L 496 496 L 496 448 L 496 448 Z M 16 432 L 496 432 L 16 432 L 512 432 L 512 448 L 512 448 L 512 496 L 512 496 L 512 512 L 512 512 L 496 512 L 0 512 L 0 496 L 0 496 L 0 448 L 0 448 L 0 432 L 0 432 L 16 432 L 16 432 Z M 280 144 L 280 168 L 280 144 L 280 168 L 304 168 L 312 168 L 312 184 L 312 184 L 304 184 L 280 184 L 280 208 L 280 208 L 280 216 L 280 216 L 264 216 L 264 216 L 264 208 L 264 208 L 264 184 L 264 184 L 240 184 L 232 184 L 232 168 L 232 168 L 240 168 L 264 168 L 264 144 L 264 144 L 264 136 L 264 136 L 280 136 L 280 136 L 280 144 L 280 144 Z M 232 280 L 232 328 L 232 280 L 232 328 L 280 328 L 288 328 L 288 344 L 288 344 L 280 344 L 232 344 L 232 400 L 232 400 L 216 400 L 216 400 L 216 344 L 216 344 L 168 344 L 160 344 L 160 328 L 160 328 L 168 328 L 216 328 L 216 280 L 216 280 L 216 272 L 216 272 L 232 272 L 232 272 L 232 280 L 232 280 Z" />
</svg>