<svg xmlns="http://www.w3.org/2000/svg" viewBox="0 0 512 512">
  <path d="M 303 35 L 301 58 L 303 35 L 301 58 L 299 76 L 299 76 L 316 70 L 316 70 L 493 7 L 493 7 L 512 0 L 512 0 L 505 20 L 505 20 L 442 196 L 442 196 L 436 213 L 436 213 L 454 211 L 454 211 L 477 210 L 477 210 L 496 208 L 496 208 L 486 225 L 486 225 L 379 411 L 379 411 Q 351 458 304 485 Q 258 512 203 512 Q 117 510 59 453 Q 2 395 0 309 Q 0 254 27 208 Q 54 161 101 133 L 287 26 L 287 26 L 304 16 L 304 16 L 303 35 L 303 35 Z M 305 91 L 282 99 L 305 91 L 282 99 L 283 75 L 283 75 L 286 45 L 286 45 L 109 147 L 109 147 Q 66 173 41 216 Q 16 258 16 309 Q 18 388 71 441 Q 124 494 203 496 Q 254 496 296 471 Q 339 446 365 403 L 467 226 L 467 226 L 437 229 L 437 229 L 413 231 L 413 231 L 421 207 L 421 207 L 486 26 L 486 26 L 305 91 L 305 91 Z M 192 192 Q 227 192 256 209 L 256 209 L 256 209 Q 285 226 303 256 Q 320 286 320 320 Q 320 354 303 384 Q 285 414 256 431 Q 227 448 192 448 Q 157 448 128 431 Q 99 414 81 384 Q 64 354 64 320 Q 64 286 81 256 Q 99 226 128 209 Q 157 192 192 192 L 192 192 Z M 304 320 Q 304 290 289 264 L 289 264 L 289 264 Q 274 238 248 223 Q 222 208 192 208 Q 162 208 136 223 Q 110 238 95 264 Q 80 290 80 320 Q 80 350 95 376 Q 110 402 136 417 Q 162 432 192 432 Q 222 432 248 417 Q 274 402 289 376 Q 304 350 304 320 L 304 320 Z M 192 368 Q 193 353 208 352 Q 223 353 224 368 Q 223 383 208 384 Q 193 383 192 368 L 192 368 Z M 144 288 Q 145 303 160 304 Q 175 303 176 288 Q 175 273 160 272 Q 145 273 144 288 L 144 288 Z M 160 320 Q 146 320 137 311 L 137 311 L 137 311 Q 128 302 128 288 Q 128 274 137 265 Q 146 256 160 256 Q 174 256 183 265 Q 192 274 192 288 Q 192 302 183 311 Q 174 320 160 320 L 160 320 Z" />
</svg>