<svg xmlns="http://www.w3.org/2000/svg" viewBox="0 0 640 512">
  <path d="M 16 5 L 10 0 L 16 5 L 10 0 L 0 13 L 0 13 L 6 18 L 6 18 L 624 507 L 624 507 L 630 512 L 630 512 L 640 500 L 640 500 L 634 495 L 634 495 L 16 5 L 16 5 Z M 423 429 Q 383 467 326 492 L 320 495 L 320 495 L 314 492 L 314 492 Q 244 460 200 412 Q 156 363 133 308 Q 103 235 98 172 L 81 159 L 81 159 Q 84 230 118 314 Q 142 371 188 422 Q 234 474 307 507 L 320 512 L 320 512 L 333 507 L 333 507 Q 394 479 436 439 L 423 429 L 423 429 Z M 308 5 L 181 54 L 308 5 L 181 54 L 195 66 L 195 66 L 314 19 L 314 19 L 320 17 L 320 17 L 326 19 L 326 19 L 533 100 L 533 100 L 543 104 L 543 104 L 543 114 L 543 114 Q 546 151 538 202 Q 531 253 507 308 Q 507 308 507 309 Q 506 310 506 311 L 519 321 L 519 321 Q 520 319 521 318 Q 521 316 522 314 Q 546 257 554 204 Q 562 151 559 113 L 558 93 L 558 93 L 539 85 L 539 85 L 332 5 L 332 5 L 320 0 L 320 0 L 308 5 L 308 5 Z" />
</svg>