<svg xmlns="http://www.w3.org/2000/svg" viewBox="0 0 624 512">
  <path d="M 273 0 L 272 7 L 273 0 L 272 7 L 232 279 L 232 279 L 232 279 L 232 279 L 232 280 L 232 280 L 232 472 L 232 472 L 232 480 L 232 480 L 240 480 L 392 480 L 392 472 L 392 472 L 392 280 L 392 280 L 392 279 L 392 279 L 392 279 L 392 279 L 352 7 L 352 7 L 351 0 L 351 0 L 344 0 L 273 0 Z M 287 16 L 337 16 L 287 16 L 337 16 L 376 281 L 376 281 L 376 464 L 376 464 L 248 464 L 248 464 L 248 281 L 248 281 L 287 16 L 287 16 Z M 600 96 L 600 88 L 600 96 L 600 88 L 584 88 L 584 88 L 584 96 L 584 96 L 584 128 L 584 128 L 568 128 L 560 128 L 560 144 L 560 144 L 568 144 L 584 144 L 584 320 L 584 320 L 504 320 L 504 320 L 504 280 L 504 280 L 504 272 L 504 272 L 496 272 L 424 272 L 424 288 L 424 288 L 432 288 L 488 288 L 488 320 L 488 320 L 488 336 L 488 336 L 488 464 L 488 464 L 432 464 L 424 464 L 424 472 L 424 472 L 424 504 L 424 504 L 424 512 L 424 512 L 440 512 L 440 512 L 440 504 L 440 504 L 440 480 L 440 480 L 496 480 L 504 480 L 504 472 L 504 472 L 504 453 L 504 453 L 584 420 L 584 420 L 584 448 L 584 448 L 584 456 L 584 456 L 600 456 L 600 456 L 600 448 L 600 448 L 600 144 L 600 144 L 616 144 L 624 144 L 624 128 L 624 128 L 616 128 L 600 128 L 600 96 L 600 96 Z M 504 336 L 584 336 L 504 336 L 584 336 L 584 403 L 584 403 L 504 436 L 504 436 L 504 336 L 504 336 Z M 336 256 L 336 312 L 336 256 L 336 312 L 288 312 L 288 312 L 288 256 L 288 256 Q 290 234 312 232 Q 334 234 336 256 L 336 256 Z M 272 256 L 272 312 L 272 256 L 272 312 L 272 328 L 272 328 L 288 328 L 352 328 L 352 312 L 352 312 L 352 256 L 352 256 Q 352 239 340 228 Q 329 216 312 216 Q 295 216 284 228 Q 272 239 272 256 L 272 256 Z M 24 96 L 24 128 L 24 96 L 24 128 L 8 128 L 0 128 L 0 144 L 0 144 L 8 144 L 24 144 L 24 448 L 24 448 L 24 456 L 24 456 L 40 456 L 40 456 L 40 448 L 40 448 L 40 420 L 40 420 L 120 453 L 120 453 L 120 472 L 120 472 L 120 480 L 120 480 L 128 480 L 184 480 L 184 504 L 184 504 L 184 512 L 184 512 L 200 512 L 200 512 L 200 504 L 200 504 L 200 472 L 200 472 L 200 464 L 200 464 L 192 464 L 136 464 L 136 336 L 136 336 L 136 320 L 136 320 L 136 288 L 136 288 L 192 288 L 200 288 L 200 272 L 200 272 L 192 272 L 120 272 L 120 280 L 120 280 L 120 320 L 120 320 L 40 320 L 40 320 L 40 144 L 40 144 L 56 144 L 64 144 L 64 128 L 64 128 L 56 128 L 40 128 L 40 96 L 40 96 L 40 88 L 40 88 L 24 88 L 24 88 L 24 96 L 24 96 Z M 120 336 L 120 436 L 120 336 L 120 436 L 40 403 L 40 403 L 40 336 L 40 336 L 120 336 L 120 336 Z" />
</svg>