<svg xmlns="http://www.w3.org/2000/svg" viewBox="0 0 448 448">
  <path d="M 16 16 L 16 432 L 16 16 L 16 432 L 432 432 L 432 432 L 432 16 L 432 16 L 16 16 L 16 16 Z M 0 0 L 16 0 L 0 0 L 448 0 L 448 16 L 448 16 L 448 432 L 448 432 L 448 448 L 448 448 L 432 448 L 0 448 L 0 432 L 0 432 L 0 16 L 0 16 L 0 0 L 0 0 Z M 136 64 L 136 120 L 136 64 L 136 120 L 216 120 L 216 120 L 216 64 L 216 64 L 216 56 L 216 56 L 232 56 L 232 56 L 232 64 L 232 64 L 232 120 L 232 120 L 312 120 L 312 120 L 312 64 L 312 64 L 312 56 L 312 56 L 328 56 L 328 56 L 328 64 L 328 64 L 328 120 L 328 120 L 384 120 L 392 120 L 392 136 L 392 136 L 384 136 L 328 136 L 328 216 L 328 216 L 384 216 L 392 216 L 392 232 L 392 232 L 384 232 L 328 232 L 328 312 L 328 312 L 384 312 L 392 312 L 392 328 L 392 328 L 384 328 L 328 328 L 328 384 L 328 384 L 328 392 L 328 392 L 312 392 L 312 392 L 312 384 L 312 384 L 312 328 L 312 328 L 232 328 L 232 328 L 232 384 L 232 384 L 232 392 L 232 392 L 216 392 L 216 392 L 216 384 L 216 384 L 216 328 L 216 328 L 136 328 L 136 328 L 136 384 L 136 384 L 136 392 L 136 392 L 120 392 L 120 392 L 120 384 L 120 384 L 120 328 L 120 328 L 64 328 L 56 328 L 56 312 L 56 312 L 64 312 L 120 312 L 120 232 L 120 232 L 64 232 L 56 232 L 56 216 L 56 216 L 64 216 L 120 216 L 120 136 L 120 136 L 64 136 L 56 136 L 56 120 L 56 120 L 64 120 L 120 120 L 120 64 L 120 64 L 120 56 L 120 56 L 136 56 L 136 56 L 136 64 L 136 64 Z M 136 216 L 216 216 L 136 216 L 216 216 L 216 136 L 216 136 L 136 136 L 136 136 L 136 216 L 136 216 Z M 232 216 L 312 216 L 232 216 L 312 216 L 312 136 L 312 136 L 232 136 L 232 136 L 232 216 L 232 216 Z M 232 232 L 232 312 L 232 232 L 232 312 L 312 312 L 312 312 L 312 232 L 312 232 L 232 232 L 232 232 Z M 216 232 L 136 232 L 216 232 L 136 232 L 136 312 L 136 312 L 216 312 L 216 312 L 216 232 L 216 232 Z" />
</svg>