<svg xmlns="http://www.w3.org/2000/svg" viewBox="0 0 640 512">
  <path d="M 320 16 L 320 0 L 320 16 L 320 0 L 336 0 L 640 0 L 640 16 L 640 16 L 640 496 L 640 496 L 640 512 L 640 512 L 624 512 L 320 512 L 320 496 L 320 496 L 320 16 L 320 16 Z M 336 16 L 336 496 L 336 16 L 336 496 L 472 496 L 472 496 L 472 416 L 472 416 L 472 408 L 472 408 L 488 408 L 488 408 L 488 416 L 488 416 L 488 496 L 488 496 L 624 496 L 624 496 L 624 16 L 624 16 L 488 16 L 488 16 L 488 96 L 488 96 L 488 104 L 488 104 L 472 104 L 472 104 L 472 96 L 472 96 L 472 16 L 472 16 L 336 16 L 336 16 Z M 488 192 L 488 200 L 488 192 L 488 200 L 488 312 L 488 312 L 488 320 L 488 320 L 472 320 L 472 320 L 472 312 L 472 312 L 472 200 L 472 200 L 472 192 L 472 192 L 488 192 L 488 192 Z M 8 96 L 288 96 L 8 96 L 288 96 L 288 112 L 288 112 L 232 112 L 232 112 L 232 192 L 232 192 L 288 192 L 288 192 L 288 208 L 288 208 L 8 208 L 0 208 L 0 192 L 0 192 L 8 192 L 88 192 L 88 112 L 88 112 L 8 112 L 0 112 L 0 96 L 0 96 L 8 96 L 8 96 Z M 272 304 L 288 304 L 272 304 L 288 304 L 288 320 L 288 320 L 272 320 L 272 320 Q 241 321 221 341 Q 201 361 200 392 L 200 504 L 200 504 L 200 512 L 200 512 L 192 512 L 88 512 L 88 504 L 88 504 L 88 392 L 88 392 Q 87 361 67 341 Q 47 321 16 320 L 8 320 L 0 320 L 0 304 L 0 304 L 8 304 L 16 304 Q 53 305 78 330 Q 103 355 104 392 L 104 496 L 104 496 L 184 496 L 184 496 L 184 392 L 184 392 Q 185 355 210 330 Q 235 305 272 304 L 272 304 Z M 216 112 L 104 112 L 216 112 L 104 112 L 104 192 L 104 192 L 216 192 L 216 192 L 216 112 L 216 112 Z" />
</svg>