<svg xmlns="http://www.w3.org/2000/svg" viewBox="0 0 640 512">
  <path d="M 0 0 L 0 48 L 0 0 L 0 48 L 32 48 L 32 48 L 32 144 L 32 144 L 0 144 L 0 144 L 0 192 L 0 192 L 352 192 L 352 192 L 352 144 L 352 144 L 320 144 L 320 144 L 320 48 L 320 48 L 352 48 L 352 48 L 352 0 L 352 0 L 0 0 L 0 0 Z M 272 144 L 240 144 L 272 144 L 240 144 L 240 48 L 240 48 L 272 48 L 272 48 L 272 144 L 272 144 Z M 160 48 L 192 48 L 160 48 L 192 48 L 192 144 L 192 144 L 160 144 L 160 144 L 160 48 L 160 48 Z M 112 144 L 80 144 L 112 144 L 80 144 L 80 48 L 80 48 L 112 48 L 112 48 L 112 144 L 112 144 Z M 408 96 L 384 96 L 408 96 L 384 96 L 384 120 L 384 120 L 384 224 L 384 224 L 24 224 L 0 224 L 0 248 L 0 248 L 0 392 L 0 392 L 0 416 L 0 416 L 24 416 L 64 416 Q 65 457 92 484 Q 119 511 160 512 Q 201 511 228 484 Q 255 457 256 416 L 384 416 L 384 416 Q 385 457 412 484 Q 439 511 480 512 Q 521 511 548 484 Q 575 457 576 416 L 616 416 L 640 416 L 640 392 L 640 392 L 640 240 L 640 240 L 640 232 L 640 232 L 635 225 L 635 225 L 539 105 L 539 105 L 532 96 L 532 96 L 520 96 L 408 96 Z M 77 368 L 48 368 L 77 368 L 48 368 L 48 272 L 48 272 L 384 272 L 592 272 L 592 368 L 592 368 L 563 368 L 563 368 Q 550 346 529 333 Q 507 320 480 320 Q 453 320 431 333 Q 410 346 397 368 L 243 368 L 243 368 Q 230 346 209 333 Q 187 320 160 320 Q 133 320 111 333 Q 89 346 77 368 L 77 368 Z M 432 224 L 432 144 L 432 224 L 432 144 L 509 144 L 509 144 L 573 224 L 573 224 L 432 224 L 432 224 Z M 112 416 Q 113 389 136 374 Q 160 362 184 374 Q 207 389 208 416 Q 207 443 184 458 Q 160 470 136 458 Q 113 443 112 416 L 112 416 Z M 480 368 Q 507 369 522 392 Q 534 416 522 440 Q 507 463 480 464 Q 453 463 438 440 Q 426 416 438 392 Q 453 369 480 368 L 480 368 Z" />
</svg>