<svg xmlns="http://www.w3.org/2000/svg" viewBox="0 0 512 512">
  <path d="M 447 0 L 444 0 L 447 0 L 444 0 L 442 2 L 442 2 L 362 66 L 362 66 Q 301 115 224 126 L 224 142 L 224 142 Q 307 131 372 79 L 448 17 L 448 17 L 448 463 L 448 463 L 372 402 L 372 402 Q 307 349 224 338 L 224 355 L 224 355 Q 301 365 362 414 L 442 478 L 442 478 L 444 480 L 444 480 L 447 480 L 464 480 L 464 472 L 464 472 L 464 313 L 464 313 Q 486 304 499 284 Q 512 265 512 240 Q 512 215 499 196 Q 486 176 464 167 L 464 8 L 464 8 L 464 0 L 464 0 L 456 0 L 447 0 Z M 192 416 L 192 352 L 192 416 L 192 352 L 192 336 L 192 336 L 192 144 L 192 144 L 192 128 L 192 128 Q 191 128 189 128 Q 188 128 186 128 L 160 128 L 0 128 L 0 136 L 0 136 L 0 344 L 0 344 L 0 352 L 0 352 L 8 352 L 64 352 L 64 504 L 64 504 L 64 512 L 64 512 L 72 512 L 192 512 L 192 504 L 192 504 L 192 416 L 192 416 Z M 464 185 Q 494 203 496 240 Q 494 277 464 295 L 464 185 L 464 185 Z M 176 352 L 176 496 L 176 352 L 176 496 L 80 496 L 80 496 L 80 352 L 80 352 L 160 352 L 176 352 Z M 160 336 L 16 336 L 160 336 L 16 336 L 16 144 L 16 144 L 160 144 L 176 144 L 176 336 L 176 336 L 160 336 L 160 336 Z" />
</svg>