<svg xmlns="http://www.w3.org/2000/svg" viewBox="0 0 576 504">
  <path d="M 256 22 L 245 43 L 256 22 L 245 43 L 172 184 L 172 184 L 404 184 L 404 184 L 331 43 L 331 43 L 320 22 L 320 22 L 362 0 L 362 0 L 373 21 L 373 21 L 458 184 L 458 184 L 495 184 L 576 184 L 576 232 L 576 232 L 532 232 L 532 232 L 464 504 L 464 504 L 112 504 L 112 504 L 44 232 L 44 232 L 0 232 L 0 232 L 0 184 L 0 184 L 32 184 L 118 184 L 203 21 L 203 21 L 214 0 L 214 0 L 256 22 L 256 22 Z M 483 232 L 94 232 L 483 232 L 94 232 L 150 456 L 150 456 L 427 456 L 427 456 L 483 232 L 483 232 Z M 200 320 L 224 320 L 200 320 L 264 320 L 264 280 L 264 280 L 264 256 L 264 256 L 312 256 L 312 256 L 312 280 L 312 280 L 312 320 L 312 320 L 352 320 L 376 320 L 376 368 L 376 368 L 352 368 L 312 368 L 312 408 L 312 408 L 312 432 L 312 432 L 264 432 L 264 432 L 264 408 L 264 408 L 264 368 L 264 368 L 224 368 L 200 368 L 200 320 L 200 320 Z" />
</svg>