<svg xmlns="http://www.w3.org/2000/svg" viewBox="0 0 568 488">
  <path d="M 296 8 L 296 0 L 296 8 L 296 0 L 280 0 L 280 0 L 280 8 L 280 8 L 280 24 L 280 24 Q 267 25 257 30 Q 237 39 233 59 Q 231 71 235 81 Q 240 90 248 95 Q 264 105 284 110 Q 284 110 284 110 L 286 111 L 286 111 Q 307 116 319 124 Q 324 128 327 133 Q 329 138 328 147 Q 326 159 313 164 Q 304 168 291 168 L 291 168 L 291 168 Q 284 168 277 167 Q 265 164 250 159 Q 249 159 248 159 Q 248 159 248 159 Q 248 159 248 159 Q 247 158 246 158 Q 244 157 243 157 L 235 154 L 235 154 L 230 169 L 230 169 L 238 172 L 238 172 Q 238 172 240 172 Q 241 173 243 174 Q 243 174 243 174 Q 243 174 243 174 Q 243 174 243 174 Q 243 174 243 174 Q 243 174 243 174 Q 243 174 243 174 Q 243 174 243 174 Q 260 180 275 183 Q 275 183 275 183 Q 275 183 275 183 Q 277 183 280 184 Q 280 184 280 184 L 280 200 L 280 200 L 280 208 L 280 208 L 296 208 L 296 208 L 296 200 L 296 200 L 296 184 L 296 184 Q 309 183 319 179 Q 339 171 343 149 Q 345 137 341 127 Q 337 117 328 111 Q 311 101 291 95 L 290 95 L 290 95 Q 290 95 290 95 Q 270 90 257 82 Q 252 79 250 74 Q 247 70 249 62 Q 250 51 264 45 Q 278 39 299 41 Q 303 42 311 44 Q 318 45 322 46 L 326 31 L 326 31 Q 322 29 314 28 Q 306 26 302 26 Q 299 25 296 25 Q 296 25 296 25 L 296 8 L 296 8 Z M 152 296 L 149 296 L 152 296 L 149 296 L 147 298 L 147 298 L 69 360 L 69 360 L 8 360 L 0 360 L 0 376 L 0 376 L 8 376 L 74 376 L 77 374 L 77 374 L 154 312 L 154 312 L 368 312 L 368 312 L 368 352 L 368 352 L 248 352 L 240 352 L 240 360 L 240 360 L 240 400 L 240 400 L 240 408 L 240 408 L 248 408 L 400 408 L 402 407 L 402 407 L 518 327 L 518 327 L 545 366 L 545 366 L 392 472 L 392 472 L 8 472 L 0 472 L 0 488 L 0 488 L 8 488 L 396 488 L 398 487 L 398 487 L 561 375 L 561 375 L 568 370 L 568 370 L 563 364 L 563 364 L 527 311 L 527 311 L 522 304 L 522 304 L 516 309 L 516 309 L 395 392 L 395 392 L 256 392 L 256 392 L 256 368 L 256 368 L 376 368 L 384 368 L 384 360 L 384 360 L 384 304 L 384 304 L 384 296 L 384 296 L 376 296 L 152 296 Z" />
</svg>