<svg xmlns="http://www.w3.org/2000/svg" viewBox="0 0 639 518">
  <path d="M 213 237 L 154 148 L 213 237 L 154 148 L 144 134 L 144 134 L 127 134 L 47 134 L 47 150 L 47 150 L 47 166 L 47 166 L 47 281 L 47 281 Q 47 307 66 326 L 88 349 L 88 349 L 145 405 L 145 405 L 151 443 L 151 443 L 159 491 L 159 491 L 163 515 L 163 515 L 164 518 L 164 518 L 213 518 L 229 518 L 227 505 L 227 505 L 226 502 L 226 502 L 223 481 L 223 481 L 215 433 L 215 433 L 207 385 L 207 385 L 205 375 L 205 375 L 198 367 L 198 367 L 143 313 L 143 313 L 143 277 L 143 277 L 143 248 L 143 248 L 159 272 L 159 272 L 164 280 L 164 280 L 169 287 L 169 287 L 177 291 L 177 291 L 242 324 L 242 324 L 257 331 L 257 331 L 259 326 L 259 326 L 377 326 L 377 326 L 380 331 L 380 331 L 394 323 L 394 323 L 460 291 L 460 291 L 467 287 L 467 287 L 472 280 L 472 280 L 477 272 L 477 272 L 493 248 L 493 248 L 493 276 L 493 276 L 493 313 L 493 313 L 439 367 L 439 367 L 431 375 L 431 375 L 430 385 L 430 385 L 422 433 L 422 433 L 414 481 L 414 481 L 410 502 L 410 502 L 410 505 L 410 505 L 408 518 L 408 518 L 424 518 L 472 518 L 473 515 L 473 515 L 477 491 L 477 491 L 485 443 L 485 443 L 491 405 L 491 405 L 548 349 L 548 349 L 571 326 L 571 326 Q 589 307 589 281 L 589 166 L 589 166 L 589 150 L 589 150 L 589 134 L 589 134 L 573 134 L 492 134 L 483 148 L 483 148 L 423 237 L 423 237 L 415 241 L 415 241 L 415 142 L 415 142 L 415 134 L 415 134 L 407 134 L 223 134 L 223 142 L 223 142 L 223 242 L 223 242 L 213 237 L 213 237 Z M 239 250 L 239 150 L 239 250 L 239 150 L 399 150 L 399 150 L 399 249 L 399 249 L 365 266 L 365 266 L 351 273 L 351 273 L 358 288 L 358 288 L 369 310 L 369 310 L 267 310 L 267 310 L 278 288 L 278 288 L 285 273 L 285 273 L 271 266 L 271 266 L 239 250 L 239 250 Z M 264 281 L 249 309 L 264 281 L 249 309 L 184 276 L 184 276 L 180 274 L 180 274 L 178 271 L 178 271 L 156 239 L 156 239 L 127 195 L 127 195 L 127 248 L 127 248 L 127 313 L 127 313 L 127 319 L 127 319 L 132 324 L 132 324 L 186 379 L 186 379 L 190 382 L 190 382 L 191 387 L 191 387 L 199 435 L 199 435 L 207 483 L 207 483 L 210 502 L 210 502 L 177 502 L 177 502 L 175 489 L 175 489 L 167 441 L 167 441 L 161 403 L 161 403 L 160 398 L 160 398 L 156 394 L 156 394 L 100 337 L 100 337 L 77 315 L 77 315 Q 63 301 63 281 L 63 166 L 63 166 L 63 150 L 63 150 L 79 150 L 136 150 L 140 157 L 140 157 L 200 246 L 200 246 L 202 250 L 202 250 L 206 251 L 206 251 L 264 280 L 264 281 Z M 127 22 Q 141 22 150 31 L 150 31 L 150 31 Q 159 40 159 54 Q 159 68 150 77 Q 141 86 127 86 Q 113 86 104 77 Q 95 68 95 54 Q 95 40 104 31 Q 113 22 127 22 L 127 22 Z M 175 54 Q 174 27 151 12 Q 127 0 103 12 Q 80 27 79 54 Q 80 81 103 96 Q 127 108 151 96 Q 174 81 175 54 L 175 54 Z M 373 281 L 431 252 L 373 281 L 431 252 L 434 250 L 434 250 L 437 246 L 437 246 L 496 157 L 496 157 L 501 150 L 501 150 L 509 150 L 573 150 L 573 166 L 573 166 L 573 281 L 573 281 Q 573 300 559 315 L 537 337 L 537 337 L 480 394 L 480 394 L 476 398 L 476 398 L 475 403 L 475 403 L 469 441 L 469 441 L 461 489 L 461 489 L 459 502 L 459 502 L 427 502 L 427 502 L 430 483 L 430 483 L 438 435 L 438 435 L 446 387 L 446 387 L 446 382 L 446 382 L 450 379 L 450 379 L 505 324 L 505 324 L 509 319 L 509 319 L 509 313 L 509 313 L 509 248 L 509 248 L 509 195 L 509 195 L 480 239 L 480 239 L 459 271 L 459 271 L 456 274 L 456 274 L 452 276 L 452 276 L 387 309 L 387 309 L 372 281 L 373 281 Z M 509 22 Q 523 22 532 31 L 532 31 L 532 31 Q 541 40 541 54 Q 541 68 532 77 Q 523 86 509 86 Q 496 86 487 77 Q 478 68 477 54 Q 478 40 487 31 Q 496 22 509 22 L 509 22 Z M 461 54 Q 462 81 485 96 Q 509 108 533 96 Q 556 81 557 54 Q 556 27 533 12 Q 509 0 485 12 Q 462 27 461 54 L 461 54 Z M 9 492 L 5 502 L 9 492 L 5 502 L 0 518 L 0 518 L 17 518 L 68 518 L 70 512 L 70 512 L 103 408 L 103 408 L 90 395 L 90 395 L 56 502 L 56 502 L 22 502 L 22 502 L 24 497 L 24 497 L 64 370 L 64 370 L 52 357 L 52 357 L 9 492 L 9 492 Z M 587 357 L 575 370 L 587 357 L 575 370 L 615 497 L 615 497 L 617 502 L 617 502 L 583 502 L 583 502 L 549 395 L 549 395 L 536 408 L 536 408 L 569 512 L 569 512 L 571 518 L 571 518 L 622 518 L 639 518 L 633 502 L 633 502 L 630 492 L 630 492 L 587 357 L 587 357 Z" />
</svg>