<svg xmlns="http://www.w3.org/2000/svg" viewBox="0 0 512 512">
  <path d="M 168 0 L 160 0 L 168 0 L 160 0 L 160 8 L 160 8 L 160 32 L 160 32 L 136 32 L 128 32 L 128 40 L 128 40 L 128 312 L 128 312 L 128 320 L 128 320 L 136 320 L 288 320 L 288 312 L 288 312 L 288 144 L 288 144 Q 363 146 412 196 Q 462 245 464 320 Q 462 395 412 444 Q 363 494 288 496 L 208 496 L 0 496 L 0 512 L 0 512 L 8 512 L 512 512 L 512 496 L 512 496 L 504 496 L 365 496 Q 417 473 448 426 Q 479 380 480 320 Q 478 238 424 184 Q 370 130 288 128 L 288 40 L 288 40 L 288 32 L 288 32 L 280 32 L 256 32 L 256 8 L 256 8 L 256 0 L 256 0 L 248 0 L 168 0 Z M 272 128 L 272 144 L 272 128 L 272 144 L 272 304 L 272 304 L 144 304 L 144 304 L 144 48 L 144 48 L 168 48 L 176 48 L 176 40 L 176 40 L 176 16 L 176 16 L 240 16 L 240 16 L 240 40 L 240 40 L 240 48 L 240 48 L 248 48 L 272 48 L 272 128 L 272 128 Z M 160 352 L 160 368 L 160 352 L 160 368 L 168 368 L 256 368 L 256 352 L 256 352 L 248 352 L 160 352 Z M 96 416 L 96 432 L 96 416 L 96 432 L 104 432 L 320 432 L 320 416 L 320 416 L 312 416 L 96 416 Z" />
</svg>