<svg xmlns="http://www.w3.org/2000/svg" viewBox="0 0 507 507">
  <path d="M 225 113 L 219 118 L 225 113 L 219 118 L 208 107 L 208 107 L 213 101 L 213 101 L 309 5 L 309 5 L 315 0 L 315 0 L 321 5 L 321 5 L 417 101 L 417 101 L 422 107 L 422 107 L 411 118 L 411 118 L 405 113 L 405 113 L 323 30 L 323 30 L 323 275 L 323 275 L 323 283 L 323 283 L 323 379 L 323 379 L 323 491 L 323 491 L 499 491 L 507 491 L 507 507 L 507 507 L 499 507 L 307 507 L 307 499 L 307 499 L 307 379 L 307 379 L 307 291 L 307 291 L 30 291 L 30 291 L 113 373 L 113 373 L 118 379 L 118 379 L 107 390 L 107 390 L 101 385 L 101 385 L 8 291 L 8 291 L 3 291 L 3 291 L 3 286 L 3 286 L 0 283 L 0 283 L 3 280 L 3 280 L 3 275 L 3 275 L 8 275 L 8 275 L 101 181 L 101 181 L 107 176 L 107 176 L 118 187 L 118 187 L 113 193 L 113 193 L 30 275 L 30 275 L 307 275 L 307 275 L 307 30 L 307 30 L 225 113 L 225 113 Z" />
</svg>