<svg xmlns="http://www.w3.org/2000/svg" viewBox="0 0 504 512">
  <path d="M 80 496 L 16 496 L 80 496 L 16 496 L 16 16 L 16 16 L 208 16 L 208 16 L 208 168 L 208 168 L 208 176 L 208 176 L 216 176 L 368 176 L 368 304 L 368 304 L 384 304 L 384 304 L 384 160 L 384 160 L 224 0 L 224 0 L 16 0 L 0 0 L 0 16 L 0 16 L 0 496 L 0 496 L 0 512 L 0 512 L 16 512 L 80 512 L 80 496 L 80 496 Z M 361 160 L 224 160 L 361 160 L 224 160 L 224 23 L 224 23 L 361 160 L 361 160 Z M 248 376 L 248 368 L 248 376 L 248 368 L 240 368 L 230 368 L 227 372 L 227 372 L 192 432 L 192 432 L 155 372 L 155 372 L 153 368 L 153 368 L 148 368 L 136 368 L 136 376 L 136 376 L 136 504 L 136 504 L 136 512 L 136 512 L 152 512 L 152 512 L 152 504 L 152 504 L 152 398 L 152 398 L 185 452 L 185 452 L 192 464 L 192 464 L 199 452 L 199 452 L 232 396 L 232 396 L 232 504 L 232 504 L 232 512 L 232 512 L 248 512 L 248 512 L 248 504 L 248 504 L 248 376 L 248 376 Z M 304 368 L 296 368 L 304 368 L 296 368 L 296 376 L 296 376 L 296 456 L 296 456 L 296 504 L 296 504 L 296 512 L 296 512 L 312 512 L 312 512 L 312 504 L 312 504 L 312 464 L 312 464 L 336 464 L 336 464 Q 356 463 370 450 Q 383 436 384 416 Q 383 396 370 382 Q 356 369 336 368 L 304 368 L 304 368 Z M 336 448 L 312 448 L 336 448 L 312 448 L 312 384 L 312 384 L 336 384 L 336 384 Q 350 384 359 393 Q 368 402 368 416 Q 368 430 359 439 Q 350 448 336 448 L 336 448 Z M 424 448 L 432 448 L 424 448 L 488 448 L 488 504 L 488 504 L 488 512 L 488 512 L 504 512 L 504 512 L 504 504 L 504 504 L 504 440 L 504 440 L 504 376 L 504 376 L 504 368 L 504 368 L 488 368 L 488 368 L 488 376 L 488 376 L 488 432 L 488 432 L 440 432 L 440 432 L 440 376 L 440 376 L 440 368 L 440 368 L 424 368 L 424 368 L 424 376 L 424 376 L 424 440 L 424 440 L 424 448 L 424 448 Z" />
</svg>