<svg xmlns="http://www.w3.org/2000/svg" viewBox="0 0 571 512">
  <path d="M 155 16 Q 178 17 190 36 Q 200 56 190 76 Q 178 95 155 96 Q 132 95 120 76 Q 110 56 120 36 Q 132 17 155 16 L 155 16 Z M 155 112 Q 187 111 203 84 Q 219 56 203 28 Q 187 1 155 0 Q 123 1 107 28 Q 91 56 107 84 Q 123 111 155 112 L 155 112 Z M 91 128 L 89 133 L 91 128 L 89 133 L 4 309 L 4 309 L 0 316 L 0 316 L 15 323 L 15 323 L 18 316 L 18 316 L 101 144 L 101 144 L 209 144 L 209 144 L 275 280 L 275 280 Q 279 272 285 264 L 221 133 L 221 133 L 219 128 L 219 128 L 214 128 L 91 128 Z M 99 248 L 99 240 L 99 248 L 99 240 L 83 240 L 83 240 L 83 248 L 83 248 L 83 504 L 83 504 L 83 512 L 83 512 L 91 512 L 147 512 L 147 504 L 147 504 L 147 352 L 147 352 L 163 352 L 163 352 L 163 504 L 163 504 L 163 512 L 163 512 L 171 512 L 227 512 L 227 504 L 227 504 L 227 248 L 227 248 L 227 240 L 227 240 L 211 240 L 211 240 L 211 248 L 211 248 L 211 496 L 211 496 L 179 496 L 179 496 L 179 344 L 179 344 L 179 336 L 179 336 L 171 336 L 131 336 L 131 344 L 131 344 L 131 496 L 131 496 L 99 496 L 99 496 L 99 248 L 99 248 Z M 427 240 Q 462 240 491 257 L 491 257 L 491 257 Q 520 274 538 304 Q 555 334 555 368 Q 555 402 538 432 Q 520 462 491 479 Q 462 496 427 496 Q 392 496 363 479 Q 334 462 316 432 Q 299 402 299 368 Q 299 334 316 304 Q 334 274 363 257 Q 392 240 427 240 L 427 240 Z M 427 512 Q 466 512 499 493 L 499 493 L 499 493 Q 532 474 552 440 Q 571 406 571 368 Q 571 330 552 296 Q 532 262 499 243 Q 466 224 427 224 Q 388 224 355 243 Q 322 262 302 296 Q 283 330 283 368 Q 283 406 302 440 Q 322 474 355 493 Q 388 512 427 512 L 427 512 Z M 507 376 L 507 360 L 507 376 L 507 360 L 499 360 L 347 360 L 347 376 L 347 376 L 355 376 L 507 376 Z" />
</svg>