<svg xmlns="http://www.w3.org/2000/svg" viewBox="0 0 512 448">
  <path d="M 128 0 L 144 0 L 128 0 L 384 0 L 384 16 L 384 16 L 384 96 L 384 96 L 432 96 L 432 96 L 512 176 L 512 176 L 512 416 L 512 416 L 512 448 L 512 448 L 480 448 L 0 448 L 0 416 L 0 416 L 0 176 L 0 176 L 80 96 L 80 96 L 128 96 L 128 96 L 128 16 L 128 16 L 128 0 L 128 0 Z M 352 32 L 160 32 L 352 32 L 160 32 L 160 96 L 160 96 L 352 96 L 352 96 L 352 32 L 352 32 Z M 93 128 L 32 189 L 93 128 L 32 189 L 32 288 L 32 288 L 160 288 L 160 288 L 160 256 L 160 256 L 160 240 L 160 240 L 192 240 L 192 240 L 192 256 L 192 256 L 192 288 L 192 288 L 320 288 L 320 288 L 320 256 L 320 256 L 320 240 L 320 240 L 352 240 L 352 240 L 352 256 L 352 256 L 352 288 L 352 288 L 480 288 L 480 288 L 480 189 L 480 189 L 419 128 L 419 128 L 384 128 L 93 128 Z M 32 320 L 32 416 L 32 320 L 32 416 L 480 416 L 480 416 L 480 320 L 480 320 L 352 320 L 352 320 L 352 352 L 352 352 L 352 368 L 352 368 L 320 368 L 320 368 L 320 352 L 320 352 L 320 320 L 320 320 L 192 320 L 192 320 L 192 352 L 192 352 L 192 368 L 192 368 L 160 368 L 160 368 L 160 352 L 160 352 L 160 320 L 160 320 L 32 320 L 32 320 Z" />
</svg>