<svg xmlns="http://www.w3.org/2000/svg" viewBox="0 0 512 512">
  <path d="M 256 16 Q 321 17 376 48 L 376 48 L 376 48 Q 431 80 464 136 Q 496 193 496 256 Q 496 319 464 376 Q 431 432 376 464 Q 321 495 256 496 Q 191 495 136 464 Q 81 432 48 376 Q 16 319 16 256 Q 16 193 48 136 Q 81 80 136 48 Q 191 17 256 16 L 256 16 Z M 256 512 Q 326 511 384 478 L 384 478 L 384 478 Q 442 444 478 384 Q 512 323 512 256 Q 512 189 478 128 Q 442 68 384 34 Q 326 1 256 0 Q 186 1 128 34 Q 70 68 34 128 Q 0 189 0 256 Q 0 323 34 384 Q 70 444 128 478 Q 186 511 256 512 L 256 512 Z M 119 304 L 393 304 L 119 304 L 393 304 Q 382 353 344 384 Q 307 415 256 416 Q 205 415 168 384 Q 130 353 119 304 L 119 304 Z M 102 304 Q 114 360 156 395 L 156 395 L 156 395 Q 198 431 256 432 Q 314 431 356 395 Q 398 360 410 304 Q 411 296 412 288 L 396 288 L 100 288 Q 101 296 102 304 L 102 304 Z M 380 141 L 372 145 L 380 141 L 372 145 L 292 185 L 292 185 L 278 192 L 278 192 L 292 199 L 292 199 L 372 239 L 372 239 L 380 243 L 380 243 L 383 236 L 383 236 Q 383 236 383 236 Q 383 236 383 236 L 387 229 L 387 229 L 380 225 L 380 225 L 314 192 L 314 192 L 380 159 L 380 159 L 387 156 L 387 156 L 383 148 L 383 148 Q 383 148 383 148 Q 383 148 383 148 L 380 141 L 380 141 Z M 140 145 L 132 141 L 140 145 L 132 141 L 125 156 L 125 156 L 132 159 L 132 159 L 198 192 L 198 192 L 132 225 L 132 225 L 125 228 L 125 228 L 132 243 L 132 243 L 140 239 L 140 239 L 220 199 L 220 199 L 234 192 L 234 192 L 220 185 L 220 185 L 140 145 L 140 145 Z" />
</svg>