<svg xmlns="http://www.w3.org/2000/svg" viewBox="0 0 384 512">
  <path d="M 16 16 L 208 16 L 16 16 L 208 16 L 208 168 L 208 168 L 208 176 L 208 176 L 216 176 L 368 176 L 368 496 L 368 496 L 16 496 L 16 496 L 16 16 L 16 16 Z M 224 23 L 361 160 L 224 23 L 361 160 L 224 160 L 224 160 L 224 23 L 224 23 Z M 224 0 L 16 0 L 224 0 L 0 0 L 0 16 L 0 16 L 0 496 L 0 496 L 0 512 L 0 512 L 16 512 L 384 512 L 384 496 L 384 496 L 384 160 L 384 160 L 224 0 L 224 0 Z M 192 224 Q 219 225 234 248 Q 246 272 234 296 Q 219 319 192 320 Q 165 319 150 296 Q 138 272 150 248 Q 165 225 192 224 L 192 224 Z M 192 336 Q 228 335 247 304 Q 265 272 247 240 Q 228 209 192 208 Q 156 209 137 240 Q 119 272 137 304 Q 156 335 192 336 L 192 336 Z M 124 384 L 260 384 L 124 384 L 260 384 L 282 448 L 282 448 L 102 448 L 102 448 L 123 384 L 124 384 Z M 272 368 L 112 368 L 272 368 L 112 368 L 85 448 L 85 448 L 80 464 L 80 464 L 97 464 L 304 464 L 299 448 L 299 448 L 272 368 L 272 368 Z" />
</svg>