<svg xmlns="http://www.w3.org/2000/svg" viewBox="0 0 512 512">
  <path d="M 205 0 L 224 0 L 205 0 L 239 0 Q 290 1 324 35 Q 358 69 360 120 Q 388 124 406 144 Q 423 164 424 192 Q 424 210 416 225 Q 444 230 462 250 Q 479 271 480 300 Q 479 334 456 356 Q 481 364 496 384 Q 512 405 512 432 L 512 504 L 512 504 L 512 512 L 512 512 L 504 512 L 0 512 L 0 504 L 0 504 L 0 432 L 0 432 Q 0 405 16 384 Q 31 364 56 356 Q 33 334 32 300 Q 33 271 50 250 Q 68 230 96 225 Q 88 210 88 192 Q 89 161 109 141 Q 129 121 160 120 L 183 120 L 195 120 Q 214 120 227 107 Q 240 94 240 75 L 240 58 L 240 58 Q 240 35 224 19 L 218 14 L 218 14 L 205 0 L 205 0 Z M 242 16 Q 256 35 256 59 L 256 75 L 256 75 Q 255 101 238 118 Q 221 135 195 136 L 183 136 L 160 136 Q 136 137 120 152 Q 105 168 104 192 Q 104 212 116 227 L 127 240 L 127 240 L 110 240 L 108 240 Q 83 241 66 258 Q 49 275 48 300 Q 50 336 80 353 L 105 367 L 105 367 L 77 368 L 77 368 Q 51 370 34 388 Q 17 406 16 432 L 16 496 L 16 496 L 496 496 L 496 496 L 496 432 L 496 432 Q 495 406 478 388 Q 461 370 435 368 L 407 367 L 407 367 L 432 353 L 432 353 Q 462 336 464 300 Q 463 275 446 258 Q 429 241 404 240 L 402 240 L 385 240 L 396 227 L 396 227 Q 408 212 408 192 Q 407 168 392 152 Q 376 137 352 136 L 352 136 L 352 136 L 343 136 L 343 136 L 344 127 L 344 127 Q 344 124 344 121 Q 343 78 314 48 Q 286 19 242 16 L 242 16 Z" />
</svg>