<svg xmlns="http://www.w3.org/2000/svg" viewBox="0 0 640 512">
  <path d="M 164 8 L 256 57 L 164 8 L 256 57 L 348 8 L 348 8 L 362 0 L 362 0 L 367 16 L 367 16 L 397 115 L 397 115 L 496 145 L 496 145 L 512 150 L 512 150 L 504 164 L 504 164 L 488 195 L 488 195 Q 480 193 471 192 L 489 160 L 489 160 L 392 131 L 392 131 L 384 128 L 384 128 L 381 120 L 381 120 L 352 23 L 352 23 L 264 71 L 264 71 L 256 75 L 256 75 L 248 71 L 248 71 L 160 23 L 160 23 L 131 120 L 131 120 L 128 128 L 128 128 L 120 131 L 120 131 L 23 160 L 23 160 L 71 249 L 71 249 L 75 256 L 75 256 L 71 264 L 71 264 L 23 352 L 23 352 L 120 381 L 120 381 L 128 384 L 128 384 L 131 392 L 131 392 L 160 489 L 160 489 L 249 441 L 249 441 L 256 437 L 256 437 L 264 441 L 264 441 L 353 489 L 353 489 L 365 448 L 365 448 L 381 448 L 381 448 L 367 496 L 367 496 L 362 512 L 362 512 L 348 504 L 348 504 L 256 455 L 256 455 L 164 504 L 164 504 L 150 512 L 150 512 L 145 496 L 145 496 L 115 397 L 115 397 L 16 367 L 16 367 L 0 362 L 0 362 L 8 348 L 8 348 L 57 256 L 57 256 L 8 164 L 8 164 L 0 150 L 0 150 L 16 145 L 16 145 L 115 115 L 115 115 L 145 16 L 145 16 L 150 0 L 150 0 L 164 8 L 164 8 Z M 256 144 Q 301 145 332 174 L 332 174 L 332 174 Q 363 203 368 247 Q 364 253 362 259 Q 357 260 352 262 Q 352 259 352 256 Q 351 215 324 188 Q 297 161 256 160 Q 215 161 188 188 Q 161 215 160 256 Q 161 297 188 324 Q 215 351 256 352 Q 273 352 288 347 Q 288 349 288 352 L 288 363 L 288 363 Q 273 368 256 368 Q 208 367 177 335 Q 145 304 144 256 Q 145 208 177 177 Q 208 145 256 144 L 256 144 Z M 400 297 L 399 306 L 400 297 L 399 306 L 391 304 L 391 304 Q 388 304 384 304 Q 364 305 350 318 Q 336 332 336 352 L 336 400 L 336 400 L 384 400 L 624 400 L 624 344 L 624 344 Q 623 320 607 304 Q 592 289 568 288 Q 552 288 539 296 L 529 302 L 529 302 L 527 291 L 527 291 Q 522 269 505 255 Q 488 240 464 240 Q 439 241 421 257 Q 403 273 400 297 L 400 297 Z M 464 224 Q 491 224 511 239 L 511 239 L 511 239 Q 531 254 540 278 Q 553 272 568 272 Q 599 273 619 293 Q 639 313 640 344 L 640 408 L 640 408 L 640 416 L 640 416 L 632 416 L 320 416 L 320 408 L 320 408 L 320 352 L 320 352 Q 321 325 339 307 Q 357 289 384 288 Q 384 288 385 288 Q 385 288 386 288 Q 392 260 413 242 Q 434 225 464 224 L 464 224 Z" />
</svg>