<svg xmlns="http://www.w3.org/2000/svg" viewBox="0 0 640 480">
  <path d="M 32 32 L 32 128 L 32 32 L 32 128 L 480 128 L 480 128 L 480 32 L 480 32 L 32 32 L 32 32 Z M 32 160 L 32 288 L 32 160 L 32 288 L 160 288 L 160 288 L 160 160 L 160 160 L 32 160 L 32 160 Z M 32 320 L 32 416 L 32 320 L 32 416 L 160 416 L 160 416 L 160 320 L 160 320 L 32 320 L 32 320 Z M 192 416 L 320 416 L 192 416 L 320 416 L 320 320 L 320 320 L 192 320 L 192 320 L 192 416 L 192 416 Z M 352 416 L 384 416 L 352 416 L 384 416 L 384 448 L 384 448 L 32 448 L 0 448 L 0 416 L 0 416 L 0 32 L 0 32 L 0 0 L 0 0 L 32 0 L 512 0 L 512 32 L 512 32 L 512 129 L 512 129 Q 475 135 450 160 L 352 160 L 352 160 L 352 288 L 352 288 L 384 288 L 384 288 L 384 320 L 384 320 L 352 320 L 352 320 L 352 416 L 352 416 Z M 192 288 L 320 288 L 192 288 L 320 288 L 320 160 L 320 160 L 192 160 L 192 160 L 192 288 L 192 288 Z M 528 192 Q 508 193 494 206 L 494 206 L 494 206 Q 481 220 480 240 L 480 288 L 480 288 L 576 288 L 576 288 L 576 240 L 576 240 Q 575 220 562 206 Q 548 193 528 192 L 528 192 Z M 448 240 Q 449 206 471 183 L 471 183 L 471 183 Q 494 161 528 160 Q 562 161 585 183 Q 607 206 608 240 L 608 288 L 608 288 L 640 288 L 640 288 L 640 320 L 640 320 L 640 448 L 640 448 L 640 480 L 640 480 L 608 480 L 416 480 L 416 448 L 416 448 L 416 320 L 416 320 L 416 288 L 416 288 L 448 288 L 448 288 L 448 240 L 448 240 Z M 448 320 L 448 448 L 448 320 L 448 448 L 608 448 L 608 448 L 608 320 L 608 320 L 448 320 L 448 320 Z" />
</svg>