<svg xmlns="http://www.w3.org/2000/svg" viewBox="0 0 512 480">
  <path d="M 208 282 L 204 278 L 208 282 L 204 278 L 16 58 L 16 58 L 16 16 L 16 16 L 496 16 L 496 16 L 496 58 L 496 58 L 308 278 L 308 278 L 304 282 L 304 282 L 304 288 L 304 288 L 304 445 L 304 445 L 208 361 L 208 361 L 208 288 L 208 288 L 208 282 L 208 282 Z M 0 64 L 192 288 L 0 64 L 192 288 L 192 368 L 192 368 L 304 466 L 304 466 L 320 480 L 320 480 L 320 459 L 320 459 L 320 288 L 320 288 L 512 64 L 512 64 L 512 16 L 512 16 L 512 0 L 512 0 L 496 0 L 0 0 L 0 16 L 0 16 L 0 64 L 0 64 Z" />
</svg>