<svg xmlns="http://www.w3.org/2000/svg" viewBox="0 0 512 512">
  <path d="M 296 0 L 312 0 L 296 0 L 316 0 L 318 3 L 318 3 L 356 48 L 356 48 L 444 48 L 444 48 L 482 3 L 482 3 L 484 0 L 484 0 L 488 0 L 512 0 L 512 8 L 512 8 L 512 128 L 512 128 Q 511 176 479 207 Q 448 239 400 240 Q 352 239 321 207 Q 289 176 288 128 L 288 8 L 288 8 L 288 0 L 288 0 L 296 0 L 296 0 Z M 304 128 Q 305 169 332 196 L 332 196 L 332 196 Q 359 223 400 224 Q 441 223 468 196 Q 495 169 496 128 L 496 16 L 496 16 L 492 16 L 492 16 L 454 61 L 454 61 L 452 64 L 452 64 L 448 64 L 348 64 L 346 61 L 346 61 L 308 16 L 308 16 L 304 16 L 304 16 L 304 128 L 304 128 Z M 80 335 Q 103 274 151 232 L 151 232 L 151 232 Q 198 189 264 174 Q 266 182 270 189 Q 185 209 133 273 Q 82 337 80 424 L 80 496 L 80 496 L 296 496 L 304 496 Q 304 496 304 496 Q 304 496 304 496 L 336 496 L 336 496 L 336 483 L 336 483 Q 336 468 326 458 Q 316 448 301 448 L 256 448 L 248 448 L 248 440 L 248 440 L 248 400 L 248 400 Q 247 380 234 366 Q 220 353 200 352 L 168 352 L 160 352 L 160 336 L 160 336 L 168 336 L 200 336 Q 227 337 245 355 Q 263 373 264 400 L 264 413 L 264 413 L 372 306 L 372 306 L 386 293 L 386 293 L 386 312 L 386 312 L 386 496 L 386 496 L 432 496 L 432 496 L 432 268 L 432 268 Q 440 267 448 264 L 448 504 L 448 504 L 448 512 L 448 512 L 440 512 L 370 512 L 370 504 L 370 504 L 370 331 L 370 331 L 267 432 L 267 432 L 301 432 L 301 432 Q 323 433 337 447 Q 351 461 352 483 L 352 504 L 352 504 L 352 512 L 352 512 L 344 512 L 152 512 Q 152 512 152 512 Q 152 512 152 512 L 72 512 L 64 512 L 64 504 L 64 504 L 64 424 L 64 424 L 64 168 L 64 168 Q 63 144 48 128 Q 32 113 8 112 L 0 112 L 0 112 L 0 96 L 0 96 L 8 96 L 8 96 Q 39 97 59 117 Q 79 137 80 168 L 80 335 L 80 335 Z M 352 128 Q 353 113 368 112 Q 383 113 384 128 Q 383 143 368 144 Q 353 143 352 128 L 352 128 Z M 432 112 Q 447 113 448 128 Q 447 143 432 144 Q 417 143 416 128 Q 417 113 432 112 L 432 112 Z" />
</svg>