<svg xmlns="http://www.w3.org/2000/svg" viewBox="0 0 640 261">
  <path d="M 224 0 L 232 0 L 224 0 L 512 0 L 512 16 L 512 16 L 504 16 L 480 16 L 480 64 L 480 64 L 566 64 L 566 64 L 628 33 L 628 33 L 640 27 L 640 27 L 640 40 L 640 40 L 640 248 L 640 248 L 640 261 L 640 261 L 628 255 L 628 255 L 566 224 L 566 224 L 96 224 L 93 224 L 5 192 L 5 192 L 0 190 L 0 190 L 0 184 L 0 184 L 0 104 L 0 104 L 0 98 L 0 98 L 5 97 L 5 97 L 93 65 L 93 65 L 95 64 L 95 64 L 96 64 L 256 64 L 256 16 L 256 16 L 232 16 L 224 16 L 224 0 L 224 0 Z M 464 16 L 376 16 L 464 16 L 376 16 L 376 64 L 376 64 L 464 64 L 464 64 L 464 16 L 464 16 Z M 360 16 L 272 16 L 360 16 L 272 16 L 272 64 L 272 64 L 360 64 L 360 64 L 360 16 L 360 16 Z M 97 80 L 16 110 L 97 80 L 16 110 L 16 178 L 16 178 L 97 208 L 97 208 L 568 208 L 570 208 L 572 209 L 572 209 L 624 235 L 624 235 L 624 53 L 624 53 L 572 79 L 572 79 L 570 80 L 570 80 L 568 80 L 97 80 Z M 272 128 Q 287 129 288 144 Q 287 159 272 160 Q 257 159 256 144 Q 257 129 272 128 L 272 128 Z M 352 144 Q 353 129 368 128 Q 383 129 384 144 Q 383 159 368 160 Q 353 159 352 144 L 352 144 Z M 464 128 Q 479 129 480 144 Q 479 159 464 160 Q 449 159 448 144 Q 449 129 464 128 L 464 128 Z" />
</svg>