<svg xmlns="http://www.w3.org/2000/svg" viewBox="0 0 512 512">
  <path d="M 174 96 L 16 96 L 174 96 L 0 96 L 0 112 L 0 112 L 0 496 L 0 496 L 0 512 L 0 512 L 16 512 L 512 512 L 512 496 L 512 496 L 512 112 L 512 112 L 512 96 L 512 96 L 496 96 L 338 96 L 267 12 L 267 12 L 256 0 L 256 0 L 246 12 L 246 12 L 174 96 L 174 96 Z M 256 25 L 326 106 L 256 25 L 326 106 L 331 112 L 331 112 L 338 112 L 496 112 L 496 496 L 496 496 L 16 496 L 16 496 L 16 112 L 16 112 L 174 112 L 181 112 L 186 106 L 186 106 L 256 25 L 256 25 Z" />
</svg>