<svg xmlns="http://www.w3.org/2000/svg" viewBox="0 0 512 448">
  <path d="M 16 16 L 16 128 L 16 16 L 16 128 L 496 128 L 496 128 L 496 16 L 496 16 L 16 16 L 16 16 Z M 16 144 L 16 432 L 16 144 L 16 432 L 496 432 L 496 432 L 496 144 L 496 144 L 112 144 L 112 144 L 112 240 L 112 240 L 184 240 L 192 240 L 192 256 L 192 256 L 184 256 L 112 256 L 112 336 L 112 336 L 248 336 L 256 336 L 256 352 L 256 352 L 248 352 L 96 352 L 96 344 L 96 344 L 96 256 L 96 256 L 96 248 L 96 248 L 96 144 L 96 144 L 16 144 L 16 144 Z M 0 0 L 16 0 L 0 0 L 512 0 L 512 16 L 512 16 L 512 432 L 512 432 L 512 448 L 512 448 L 496 448 L 0 448 L 0 432 L 0 432 L 0 16 L 0 16 L 0 0 L 0 0 Z M 224 240 L 416 240 L 224 240 L 416 240 L 416 256 L 416 256 L 224 256 L 224 256 L 224 240 L 224 240 Z M 416 336 L 416 352 L 416 336 L 416 352 L 288 352 L 288 352 L 288 336 L 288 336 L 416 336 L 416 336 Z" />
</svg>