<svg xmlns="http://www.w3.org/2000/svg" viewBox="0 0 640 512">
  <path d="M 80 128 L 80 224 L 80 128 L 80 224 L 64 224 L 64 224 L 64 128 L 64 128 Q 65 74 101 37 Q 138 1 192 0 Q 246 1 283 37 Q 319 74 320 128 L 320 224 L 320 224 L 304 224 L 304 224 L 304 128 L 304 128 Q 303 80 271 49 Q 240 17 192 16 Q 144 17 113 49 Q 81 80 80 128 L 80 128 Z M 631 496 Q 639 511 640 512 L 622 512 L 288 512 Q 289 511 297 496 Q 309 475 322 443 Q 335 411 336 384 L 336 352 L 336 352 Q 337 298 373 261 Q 410 225 464 224 Q 518 225 555 261 Q 591 298 592 352 L 592 384 L 592 384 Q 593 411 606 443 Q 619 475 631 496 L 631 496 Z M 613 496 Q 608 486 602 473 Q 592 453 584 429 Q 576 405 576 384 L 576 352 L 576 352 Q 575 304 543 273 Q 512 241 464 240 Q 416 241 385 273 Q 353 304 352 352 L 352 384 L 352 384 Q 352 405 344 429 Q 336 453 327 473 Q 320 486 315 496 L 613 496 L 613 496 Z M 464 289 L 471 303 L 464 289 L 471 303 Q 491 342 536 344 Q 539 344 543 344 L 553 343 L 553 343 L 552 352 L 552 352 Q 548 387 523 409 Q 499 431 464 432 Q 429 431 405 409 Q 380 387 376 352 L 376 343 L 376 343 L 385 344 L 385 344 Q 389 344 392 344 Q 437 342 457 303 L 464 289 L 464 289 Z M 464 323 Q 439 358 394 360 Q 400 385 419 400 Q 438 416 464 416 Q 490 416 509 400 Q 528 385 534 360 Q 489 358 464 323 L 464 323 Z M 191 36 L 198 51 L 191 36 L 198 51 Q 218 89 263 91 Q 266 91 270 91 L 279 90 L 279 90 L 278 99 L 278 99 Q 274 134 250 156 Q 226 178 191 179 Q 156 178 131 156 Q 107 134 103 99 L 102 90 L 102 90 L 112 91 L 112 91 Q 115 91 119 91 Q 164 89 184 51 L 191 36 L 191 36 Z M 191 70 Q 166 105 121 107 Q 126 132 146 147 Q 165 163 191 163 Q 217 163 236 147 Q 255 132 261 107 Q 216 105 191 70 L 191 70 Z M 55 496 L 260 496 L 55 496 L 260 496 L 251 512 L 251 512 L 48 512 L 48 512 Q 45 512 24 478 Q 3 445 0 384 Q 1 351 12 321 Q 24 291 38 265 Q 38 265 38 265 Q 38 265 38 265 Q 39 262 41 259 Q 42 257 42 256 L 336 256 L 336 256 Q 330 264 325 272 L 52 272 L 52 272 Q 38 298 27 326 Q 17 354 16 384 Q 19 440 38 470 Q 48 488 55 496 L 55 496 Z" />
</svg>