<svg xmlns="http://www.w3.org/2000/svg" viewBox="0 0 640 512">
  <path d="M 217 490 L 443 360 L 217 490 L 443 360 L 248 22 L 248 22 L 22 153 L 22 153 L 217 490 L 217 490 Z M 0 147 L 240 8 L 0 147 L 240 8 L 254 0 L 254 0 L 262 14 L 262 14 L 457 352 L 457 352 L 465 365 L 465 365 L 451 373 L 451 373 L 225 504 L 225 504 L 211 512 L 211 512 L 203 498 L 203 498 L 0 147 L 0 147 Z M 320 486 L 336 477 L 320 486 L 336 477 L 336 496 L 336 496 L 624 496 L 624 496 L 624 80 L 624 80 L 337 80 L 337 80 L 328 64 L 328 64 L 624 64 L 640 64 L 640 80 L 640 80 L 640 496 L 640 496 L 640 512 L 640 512 L 624 512 L 320 512 L 320 496 L 320 496 L 320 486 L 320 486 Z M 502 151 Q 487 138 472 149 Q 472 149 472 149 Q 472 149 472 149 Q 472 149 472 149 Q 472 149 472 149 Q 464 156 464 165 Q 464 175 471 183 Q 471 183 471 183 Q 471 183 471 183 L 512 226 L 512 226 L 554 183 L 554 183 Q 554 183 554 183 Q 554 183 554 183 Q 560 175 560 165 Q 560 156 552 149 Q 537 138 522 151 L 518 156 L 518 156 L 512 162 L 512 162 L 506 156 L 506 156 L 502 151 L 502 151 Z M 512 139 Q 523 129 537 128 L 537 128 L 537 128 Q 551 127 563 137 L 563 137 L 563 137 Q 563 137 563 137 Q 563 137 563 137 Q 575 148 576 165 Q 577 181 565 194 Q 565 194 565 194 Q 565 194 565 194 L 518 243 L 518 243 L 512 249 L 512 249 L 506 243 L 506 243 L 459 194 L 459 194 Q 459 194 459 194 Q 459 194 459 194 Q 447 181 448 165 Q 449 148 462 137 Q 473 127 487 128 Q 501 129 512 138 L 512 139 Z M 245 285 L 247 276 L 245 285 L 247 276 L 255 279 L 255 279 L 275 285 L 275 285 Q 291 289 305 282 Q 318 275 324 261 Q 324 261 324 261 Q 324 261 324 261 Q 329 243 321 227 Q 313 212 296 206 Q 296 206 296 206 L 189 176 L 189 176 L 163 283 L 163 283 Q 163 283 163 283 Q 163 283 163 283 Q 159 301 168 316 Q 178 331 196 335 Q 211 337 224 329 Q 236 320 241 304 L 245 285 L 245 285 Z M 256 308 Q 250 330 233 342 L 233 342 L 233 342 Q 215 354 193 351 L 193 351 L 193 351 Q 193 351 193 351 Q 167 345 155 324 Q 142 304 147 279 L 176 164 L 176 164 L 178 156 L 178 156 L 186 159 L 186 159 L 300 191 L 300 191 Q 300 191 300 191 Q 300 191 300 191 Q 324 199 335 220 Q 347 242 339 266 Q 331 287 311 296 Q 292 306 270 300 L 270 300 L 270 300 Q 270 300 270 300 L 270 300 L 270 300 L 288 329 L 288 329 L 305 320 L 305 320 L 311 316 L 311 316 L 319 330 L 319 330 L 313 334 L 313 334 L 264 361 L 264 361 L 257 365 L 257 365 L 249 351 L 249 351 L 256 347 L 256 347 L 274 337 L 274 337 L 256 308 L 256 308 Z" />
</svg>