<svg xmlns="http://www.w3.org/2000/svg" viewBox="0 0 640 384">
  <path d="M 624 16 L 624 368 L 624 16 L 624 368 L 176 368 L 176 368 L 176 16 L 176 16 L 624 16 L 624 16 Z M 176 0 L 160 0 L 176 0 L 160 0 L 160 16 L 160 16 L 160 368 L 160 368 L 160 384 L 160 384 L 176 384 L 640 384 L 640 368 L 640 368 L 640 16 L 640 16 L 640 0 L 640 0 L 624 0 L 176 0 Z M 272 272 L 272 304 L 272 272 L 272 304 L 240 304 L 240 304 L 240 272 L 240 272 L 272 272 L 272 272 Z M 240 256 L 224 256 L 240 256 L 224 256 L 224 272 L 224 272 L 224 304 L 224 304 L 224 320 L 224 320 L 240 320 L 288 320 L 288 304 L 288 304 L 288 272 L 288 272 L 288 256 L 288 256 L 272 256 L 240 256 Z M 336 272 L 464 272 L 336 272 L 464 272 L 464 304 L 464 304 L 336 304 L 336 304 L 336 272 L 336 272 Z M 320 256 L 320 272 L 320 256 L 320 272 L 320 304 L 320 304 L 320 320 L 320 320 L 336 320 L 480 320 L 480 304 L 480 304 L 480 272 L 480 272 L 480 256 L 480 256 L 464 256 L 320 256 Z M 272 176 L 272 208 L 272 176 L 272 208 L 240 208 L 240 208 L 240 176 L 240 176 L 272 176 L 272 176 Z M 240 160 L 224 160 L 240 160 L 224 160 L 224 176 L 224 176 L 224 208 L 224 208 L 224 224 L 224 224 L 240 224 L 288 224 L 288 208 L 288 208 L 288 176 L 288 176 L 288 160 L 288 160 L 272 160 L 240 160 Z M 336 176 L 368 176 L 336 176 L 368 176 L 368 208 L 368 208 L 336 208 L 336 208 L 336 176 L 336 176 Z M 320 160 L 320 176 L 320 160 L 320 176 L 320 208 L 320 208 L 320 224 L 320 224 L 336 224 L 384 224 L 384 208 L 384 208 L 384 176 L 384 176 L 384 160 L 384 160 L 368 160 L 320 160 Z M 464 176 L 464 208 L 464 176 L 464 208 L 432 208 L 432 208 L 432 176 L 432 176 L 464 176 L 464 176 Z M 432 160 L 416 160 L 432 160 L 416 160 L 416 176 L 416 176 L 416 208 L 416 208 L 416 224 L 416 224 L 432 224 L 480 224 L 480 208 L 480 208 L 480 176 L 480 176 L 480 160 L 480 160 L 464 160 L 432 160 Z M 528 176 L 560 176 L 528 176 L 560 176 L 560 208 L 560 208 L 528 208 L 528 208 L 528 176 L 528 176 Z M 512 160 L 512 176 L 512 160 L 512 176 L 512 208 L 512 208 L 512 224 L 512 224 L 528 224 L 576 224 L 576 208 L 576 208 L 576 176 L 576 176 L 576 160 L 576 160 L 560 160 L 512 160 Z M 560 272 L 560 304 L 560 272 L 560 304 L 528 304 L 528 304 L 528 272 L 528 272 L 560 272 L 560 272 Z M 528 256 L 512 256 L 528 256 L 512 256 L 512 272 L 512 272 L 512 304 L 512 304 L 512 320 L 512 320 L 528 320 L 576 320 L 576 304 L 576 304 L 576 272 L 576 272 L 576 256 L 576 256 L 560 256 L 528 256 Z M 240 80 L 272 80 L 240 80 L 272 80 L 272 112 L 272 112 L 240 112 L 240 112 L 240 80 L 240 80 Z M 224 64 L 224 80 L 224 64 L 224 80 L 224 112 L 224 112 L 224 128 L 224 128 L 240 128 L 288 128 L 288 112 L 288 112 L 288 80 L 288 80 L 288 64 L 288 64 L 272 64 L 224 64 Z M 368 80 L 368 112 L 368 80 L 368 112 L 336 112 L 336 112 L 336 80 L 336 80 L 368 80 L 368 80 Z M 336 64 L 320 64 L 336 64 L 320 64 L 320 80 L 320 80 L 320 112 L 320 112 L 320 128 L 320 128 L 336 128 L 384 128 L 384 112 L 384 112 L 384 80 L 384 80 L 384 64 L 384 64 L 368 64 L 336 64 Z M 432 80 L 464 80 L 432 80 L 464 80 L 464 112 L 464 112 L 432 112 L 432 112 L 432 80 L 432 80 Z M 416 64 L 416 80 L 416 64 L 416 80 L 416 112 L 416 112 L 416 128 L 416 128 L 432 128 L 480 128 L 480 112 L 480 112 L 480 80 L 480 80 L 480 64 L 480 64 L 464 64 L 416 64 Z M 560 80 L 560 112 L 560 80 L 560 112 L 528 112 L 528 112 L 528 80 L 528 80 L 560 80 L 560 80 Z M 528 64 L 512 64 L 528 64 L 512 64 L 512 80 L 512 80 L 512 112 L 512 112 L 512 128 L 512 128 L 528 128 L 576 128 L 576 112 L 576 112 L 576 80 L 576 80 L 576 64 L 576 64 L 560 64 L 528 64 Z M 105 110 L 111 104 L 105 110 L 111 104 L 100 93 L 100 93 L 94 98 L 94 98 L 6 186 L 6 186 L 0 192 L 0 192 L 6 198 L 6 198 L 94 286 L 94 286 L 100 291 L 100 291 L 111 280 L 111 280 L 105 274 L 105 274 L 23 192 L 23 192 L 105 110 L 105 110 Z" />
</svg>