<svg xmlns="http://www.w3.org/2000/svg" viewBox="0 0 512 512">
  <path d="M 17 400 L 496 400 L 17 400 L 496 400 Q 487 304 420 241 Q 354 178 256 176 Q 158 178 92 241 Q 25 304 17 400 L 17 400 Z M 248 160 L 248 0 L 248 160 L 248 0 L 264 0 L 264 0 L 264 160 L 264 160 Q 366 165 434 232 Q 503 299 512 400 Q 512 408 512 416 L 496 416 L 0 416 Q 0 408 1 400 Q 9 299 78 232 Q 146 165 248 160 L 248 160 Z M 256 512 Q 229 511 211 493 L 211 493 L 211 493 Q 193 475 192 448 L 208 448 L 208 448 Q 209 468 222 482 Q 236 495 256 496 Q 276 495 290 482 Q 303 468 304 448 L 320 448 L 320 448 Q 319 475 301 493 Q 283 511 256 512 L 256 512 Z" />
</svg>