<svg xmlns="http://www.w3.org/2000/svg" viewBox="0 0 480 448">
  <path d="M 120 51 Q 130 71 149 83 L 149 83 L 149 83 Q 168 96 192 96 Q 225 95 248 73 Q 270 51 272 18 Q 256 16 240 16 Q 173 17 120 51 L 120 51 Z M 107 60 Q 65 91 41 138 L 41 138 L 41 138 Q 17 184 16 240 L 16 272 L 16 272 L 464 272 L 464 272 L 464 240 L 464 240 Q 464 201 452 166 Q 433 191 400 192 Q 373 191 355 173 Q 337 155 336 128 Q 336 106 349 89 Q 362 73 382 67 Q 341 33 288 21 Q 285 60 258 86 Q 231 111 192 112 Q 164 112 141 98 Q 119 84 107 60 L 107 60 Z M 397 80 Q 378 82 365 95 L 365 95 L 365 95 Q 352 108 352 128 Q 353 148 366 162 Q 380 175 400 176 Q 431 174 444 147 Q 427 109 397 80 L 397 80 Z M 480 240 L 480 272 L 480 240 L 480 272 L 480 288 L 480 288 L 464 288 L 0 288 L 0 272 L 0 272 L 0 240 L 0 240 Q 1 173 33 119 Q 65 65 119 33 Q 173 1 240 0 Q 307 1 361 33 Q 415 65 447 119 Q 479 173 480 240 L 480 240 Z M 153 410 L 169 320 L 153 410 L 169 320 L 186 320 L 186 320 L 168 413 L 168 413 L 165 432 L 165 432 L 184 432 L 315 432 L 312 413 L 312 413 L 294 320 L 294 320 L 311 320 L 311 320 L 327 410 L 327 410 L 332 432 L 332 432 L 335 448 L 335 448 L 318 448 L 145 448 L 148 432 L 148 432 L 153 410 L 153 410 Z M 112 224 Q 126 224 135 215 L 135 215 L 135 215 Q 144 206 144 192 Q 144 178 135 169 Q 126 160 112 160 Q 98 160 89 169 Q 80 178 80 192 Q 80 206 89 215 Q 98 224 112 224 L 112 224 Z M 112 144 Q 139 145 154 168 Q 166 192 154 216 Q 139 239 112 240 Q 85 239 70 216 Q 58 192 70 168 Q 85 145 112 144 L 112 144 Z" />
</svg>