<svg xmlns="http://www.w3.org/2000/svg" viewBox="0 0 512 512">
  <path d="M 184.8 65.6 Q 192 52 208 51.2 L 304 51.2 Q 320 52 327.2 65.6 L 332.8 76.8 L 409.6 76.8 Q 420.8 76.8 428 84 Q 435.2 91.2 435.2 102.4 Q 435.2 113.6 428 120.8 Q 420.8 128 409.6 128 L 122.4 128 L 155.2 153.6 L 409.6 153.6 L 409.6 351.2 L 496.8 418.4 L 512 430.4 L 488.8 460.8 L 473.6 448.8 L 15.2 93.6 L 0 81.6 L 23.2 51.2 L 38.4 63.2 L 78.4 93.6 Q 84.8 77.6 102.4 76.8 L 179.2 76.8 L 184.8 65.6 L 184.8 65.6 Z M 345.6 301.6 L 345.6 217.6 Q 344.8 205.6 332.8 204.8 Q 320.8 205.6 320 217.6 L 320 281.6 L 345.6 301.6 L 345.6 301.6 Z M 268.8 241.6 L 268.8 217.6 Q 268 205.6 256 204.8 Q 244 205.6 243.2 217.6 L 243.2 221.6 L 268.8 241.6 L 268.8 241.6 Z M 102.4 409.6 L 102.4 208.8 L 166.4 259.2 L 166.4 396.8 Q 167.2 408.8 179.2 409.6 Q 191.2 408.8 192 396.8 L 192 279.2 L 243.2 320 L 243.2 396.8 Q 244 408.8 256 409.6 Q 268 408.8 268.8 396.8 L 268.8 340 L 320 380 L 320 396.8 Q 320.8 408.8 332.8 409.6 Q 342.4 408.8 345.6 400 L 398.4 441.6 Q 383.2 460 358.4 460.8 L 153.6 460.8 Q 132 460 117.6 445.6 Q 103.2 431.2 102.4 409.6 L 102.4 409.6 Z" />
</svg>