<svg xmlns="http://www.w3.org/2000/svg" viewBox="0 0 448 448">
  <path d="M 336 432 L 336 16 L 336 432 L 336 16 L 432 16 L 432 16 L 432 432 L 432 432 L 336 432 L 336 432 Z M 320 448 L 336 448 L 320 448 L 448 448 L 448 432 L 448 432 L 448 16 L 448 16 L 448 0 L 448 0 L 432 0 L 320 0 L 320 16 L 320 16 L 320 432 L 320 432 L 320 448 L 320 448 Z M 112 368 L 16 368 L 112 368 L 16 368 L 16 16 L 16 16 L 112 16 L 112 16 L 112 368 L 112 368 Z M 16 384 L 112 384 L 16 384 L 128 384 L 128 368 L 128 368 L 128 16 L 128 16 L 128 0 L 128 0 L 112 0 L 0 0 L 0 16 L 0 16 L 0 368 L 0 368 L 0 384 L 0 384 L 16 384 L 16 384 Z M 272 240 L 176 240 L 272 240 L 176 240 L 176 16 L 176 16 L 272 16 L 272 16 L 272 240 L 272 240 Z M 176 256 L 272 256 L 176 256 L 288 256 L 288 240 L 288 240 L 288 16 L 288 16 L 288 0 L 288 0 L 272 0 L 160 0 L 160 16 L 160 16 L 160 240 L 160 240 L 160 256 L 160 256 L 176 256 L 176 256 Z" />
</svg>