<svg xmlns="http://www.w3.org/2000/svg" viewBox="0 0 570 506">
  <path d="M 285 0 L 290 4 L 285 0 L 290 4 L 381 82 L 381 82 L 381 34 L 381 34 L 381 26 L 381 26 L 389 26 L 509 26 L 509 34 L 509 34 L 509 192 L 509 192 L 570 244 L 570 244 L 560 256 L 560 256 L 509 213 L 509 213 L 509 498 L 509 498 L 509 506 L 509 506 L 501 506 L 61 506 L 61 498 L 61 498 L 61 213 L 61 213 L 10 256 L 10 256 L 0 244 L 0 244 L 280 4 L 280 4 L 285 0 L 285 0 Z M 493 178 L 493 42 L 493 178 L 493 42 L 397 42 L 397 42 L 397 96 L 397 96 L 493 178 L 493 178 Z M 77 199 L 77 490 L 77 199 L 77 490 L 493 490 L 493 490 L 493 199 L 493 199 L 285 21 L 285 21 L 77 199 L 77 199 Z M 245 178 L 253 178 L 245 178 L 325 178 L 325 186 L 325 186 L 325 242 L 325 242 L 381 242 L 389 242 L 389 250 L 389 250 L 389 314 L 389 314 L 389 322 L 389 322 L 381 322 L 325 322 L 325 378 L 325 378 L 325 386 L 325 386 L 317 386 L 245 386 L 245 378 L 245 378 L 245 322 L 245 322 L 189 322 L 181 322 L 181 314 L 181 314 L 181 250 L 181 250 L 181 242 L 181 242 L 189 242 L 245 242 L 245 186 L 245 186 L 245 178 L 245 178 Z M 261 194 L 261 250 L 261 194 L 261 250 L 261 258 L 261 258 L 253 258 L 197 258 L 197 306 L 197 306 L 253 306 L 261 306 L 261 314 L 261 314 L 261 370 L 261 370 L 309 370 L 309 370 L 309 314 L 309 314 L 309 306 L 309 306 L 317 306 L 373 306 L 373 258 L 373 258 L 317 258 L 309 258 L 309 250 L 309 250 L 309 194 L 309 194 L 261 194 L 261 194 Z" />
</svg>