<svg xmlns="http://www.w3.org/2000/svg" viewBox="0 0 576 512">
  <path d="M 368 496 L 16 496 L 368 496 L 16 496 L 16 16 L 16 16 L 208 16 L 208 16 L 208 168 L 208 168 L 208 176 L 208 176 L 216 176 L 368 176 L 368 214 L 368 214 L 384 198 L 384 198 L 384 160 L 384 160 L 224 0 L 224 0 L 16 0 L 0 0 L 0 16 L 0 16 L 0 496 L 0 496 L 0 512 L 0 512 L 16 512 L 384 512 L 384 496 L 384 496 L 384 433 L 384 433 L 368 436 L 368 436 L 368 496 L 368 496 Z M 361 160 L 224 160 L 361 160 L 224 160 L 224 23 L 224 23 L 361 160 L 361 160 Z M 120 312 L 114 312 L 120 312 L 114 312 L 112 318 L 112 318 L 90 400 L 90 400 L 64 400 L 56 400 L 56 416 L 56 416 L 64 416 L 102 416 L 104 410 L 104 410 L 126 328 L 126 328 L 130 328 L 130 328 L 152 410 L 152 410 L 154 416 L 154 416 L 160 416 L 173 416 L 175 412 L 175 412 L 205 360 L 205 360 L 219 360 L 219 360 L 249 412 L 249 412 L 251 416 L 251 416 L 256 416 L 288 416 L 288 416 L 288 416 L 305 413 L 305 413 L 379 402 L 379 402 L 565 216 L 565 216 L 576 205 L 576 205 L 565 194 L 565 194 L 510 139 L 510 139 L 499 128 L 499 128 L 302 325 L 302 325 L 291 399 L 291 399 L 291 400 L 291 400 L 288 400 L 261 400 L 231 348 L 231 348 L 229 344 L 229 344 L 224 344 L 195 344 L 193 348 L 193 348 L 165 397 L 165 397 L 144 318 L 144 318 L 142 312 L 142 312 L 136 312 L 120 312 Z M 307 397 L 317 332 L 307 397 L 317 332 L 455 194 L 455 194 L 510 249 L 510 249 L 372 387 L 372 387 L 307 397 L 307 397 Z M 521 238 L 466 183 L 521 238 L 466 183 L 499 151 L 499 151 L 553 205 L 553 205 L 521 238 L 521 238 Z" />
</svg>