<svg xmlns="http://www.w3.org/2000/svg" viewBox="0 0 459 512">
  <path d="M 273 307 L 219 235 L 273 307 L 219 235 L 203 213 L 203 213 L 203 240 L 203 240 L 203 288 L 203 288 L 203 307 L 203 307 L 258 361 L 258 361 L 267 371 L 267 371 L 267 384 L 267 384 L 267 480 L 267 480 L 267 496 L 267 496 L 267 512 L 267 512 L 251 512 L 203 512 L 203 496 L 203 496 L 203 480 L 203 480 L 203 397 L 203 397 L 126 320 L 126 320 Q 107 301 107 275 L 107 267 L 107 267 L 107 232 L 107 232 L 91 264 L 91 264 L 72 302 L 72 302 L 64 317 L 64 317 L 57 331 L 57 331 L 43 324 L 43 324 L 14 310 L 14 310 L 0 302 L 0 302 L 7 288 L 7 288 L 14 274 L 14 274 L 78 146 L 78 146 L 87 128 L 87 128 L 107 128 L 107 128 Q 107 128 107 128 Q 107 128 107 128 L 139 128 L 219 128 L 229 141 L 229 141 L 325 269 L 325 269 L 334 282 L 334 282 L 344 294 L 344 294 L 331 304 L 331 304 L 305 323 L 305 323 L 293 333 L 293 333 L 283 320 L 283 320 L 273 307 L 273 307 Z M 246 373 L 192 318 L 246 373 L 192 318 L 187 313 L 187 313 L 187 307 L 187 307 L 187 288 L 187 288 L 187 213 L 187 213 L 187 176 L 187 176 L 195 176 L 195 176 L 216 204 L 216 204 L 286 298 L 286 298 L 296 310 L 296 310 L 321 291 L 321 291 L 312 278 L 312 278 L 216 150 L 216 150 L 211 144 L 211 144 L 203 144 L 107 144 Q 107 144 107 144 Q 107 144 107 144 L 97 144 L 97 144 L 93 153 L 93 153 L 29 281 L 29 281 L 21 295 L 21 295 L 38 304 L 38 304 L 50 309 L 50 309 L 57 295 L 57 295 L 93 224 L 93 224 L 117 176 L 117 176 L 123 176 L 123 176 L 123 232 L 123 232 L 123 275 L 123 275 Q 123 295 137 309 L 214 386 L 214 386 L 219 391 L 219 391 L 219 397 L 219 397 L 219 480 L 219 480 L 219 496 L 219 496 L 251 496 L 251 496 L 251 480 L 251 480 L 251 384 L 251 384 L 251 377 L 251 377 L 246 373 L 246 373 Z M 187 48 Q 187 34 178 25 L 178 25 L 178 25 Q 169 16 155 16 Q 141 16 132 25 Q 123 34 123 48 Q 123 62 132 71 Q 141 80 155 80 Q 169 80 178 71 Q 187 62 187 48 L 187 48 Z M 155 0 Q 182 1 197 24 Q 209 48 197 72 Q 182 95 155 96 Q 128 95 113 72 Q 101 48 113 24 Q 128 1 155 0 L 155 0 Z M 100 376 L 107 347 L 100 376 L 107 347 L 121 360 L 121 360 L 116 380 L 116 380 L 104 428 L 104 428 L 98 452 L 98 452 L 92 476 L 92 476 L 87 496 L 87 496 L 120 496 L 120 496 L 123 484 L 123 484 L 129 460 L 129 460 L 135 436 L 135 436 L 147 388 L 147 388 L 147 386 L 147 386 L 160 400 L 160 400 L 150 440 L 150 440 L 144 464 L 144 464 L 138 488 L 138 488 L 132 512 L 132 512 L 132 512 L 132 512 L 66 512 L 66 512 L 70 496 L 70 496 L 70 496 L 70 496 L 76 472 L 76 472 L 82 448 L 82 448 L 88 424 L 88 424 L 100 376 L 100 376 Z M 441 504 L 329 345 L 441 504 L 329 345 L 342 336 L 342 336 L 454 495 L 454 495 L 459 501 L 459 501 L 446 510 L 446 510 L 441 504 L 441 504 Z" />
</svg>