<svg xmlns="http://www.w3.org/2000/svg" viewBox="0 0 512 512">
  <path d="M 129 34 Q 186 1 256 0 Q 328 1 385 35 Q 443 69 477 127 Q 511 184 512 256 Q 511 328 477 385 Q 443 443 385 477 Q 328 511 256 512 Q 184 511 127 477 Q 69 443 35 385 Q 1 328 0 256 Q 0 214 13 176 Q 19 181 27 184 Q 16 218 16 256 Q 17 323 49 377 Q 81 431 135 463 Q 189 495 256 496 Q 323 495 377 463 Q 431 431 463 377 Q 495 323 496 256 Q 495 189 463 135 Q 431 81 377 49 Q 323 17 256 16 Q 192 17 139 46 Q 138 44 136 42 Q 136 41 135 41 L 129 34 L 129 34 Z M 208 272 L 216 272 L 208 272 L 216 272 L 216 288 L 216 288 L 208 288 L 104 288 L 104 272 L 104 272 L 112 272 L 208 272 Z M 408 272 L 408 288 L 408 272 L 408 288 L 400 288 L 296 288 L 296 272 L 296 272 L 304 272 L 408 272 Z M 185 419 L 173 409 L 185 419 L 173 409 L 178 403 L 178 403 Q 189 390 209 379 Q 228 369 256 368 Q 284 369 303 379 Q 323 390 334 403 L 339 409 L 339 409 L 327 419 L 327 419 L 322 413 L 322 413 Q 312 402 296 393 Q 279 384 256 384 Q 233 384 216 393 Q 199 402 190 413 L 185 419 L 185 419 Z M 29 76 Q 18 92 21 110 Q 25 125 36 135 Q 48 144 63 144 L 65 144 L 65 144 Q 80 144 92 135 Q 103 125 107 110 Q 111 92 99 76 L 64 27 L 64 27 L 29 76 L 29 76 Z M 16 67 L 54 14 L 16 67 L 54 14 L 64 0 L 64 0 L 74 14 L 74 14 L 112 67 L 112 67 Q 127 88 122 114 Q 117 134 102 147 Q 86 160 65 160 L 63 160 L 63 160 Q 42 160 26 147 Q 11 134 6 114 Q 0 88 16 67 L 16 67 Z" />
</svg>