<svg xmlns="http://www.w3.org/2000/svg" viewBox="0 0 442 512">
  <path d="M 221 192 Q 271 190 297 148 Q 321 104 297 60 Q 271 18 221 16 Q 171 18 145 60 Q 121 104 145 148 Q 171 190 221 192 L 221 192 Z M 221 208 Q 188 208 163 190 L 163 190 L 163 190 Q 137 173 125 144 L 42 144 L 42 144 L 52 164 L 52 164 L 55 170 L 55 170 L 50 174 L 50 174 L 26 192 L 26 192 L 50 210 L 50 210 L 55 214 L 55 214 L 52 220 L 52 220 L 42 240 L 42 240 L 133 240 L 143 240 L 141 250 L 141 250 L 112 394 L 112 394 L 161 369 L 161 369 L 165 367 L 165 367 L 169 369 L 169 369 L 221 399 L 221 399 L 273 369 L 273 369 L 277 367 L 277 367 L 280 369 L 280 369 L 330 394 L 330 394 L 301 250 L 301 250 L 299 240 L 299 240 L 309 240 L 400 240 L 390 220 L 390 220 L 387 214 L 387 214 L 392 210 L 392 210 L 416 192 L 416 192 L 392 174 L 392 174 L 387 170 L 387 170 L 390 164 L 390 164 L 400 144 L 400 144 L 317 144 L 317 144 Q 305 173 279 190 Q 254 208 221 208 L 221 208 Z M 325 104 Q 325 116 322 128 L 413 128 L 426 128 L 420 140 L 420 140 L 407 166 L 407 166 L 434 186 L 434 186 L 442 192 L 442 192 L 434 198 L 434 198 L 407 218 L 407 218 L 420 244 L 420 244 L 426 256 L 426 256 L 413 256 L 319 256 L 349 406 L 349 406 L 352 422 L 352 422 L 338 415 L 338 415 L 277 385 L 277 385 L 225 415 L 225 415 L 221 417 L 221 417 L 217 415 L 217 415 L 165 385 L 165 385 L 105 415 L 105 415 L 90 422 L 90 422 L 93 406 L 93 406 L 123 256 L 123 256 L 29 256 L 16 256 L 22 244 L 22 244 L 35 218 L 35 218 L 8 198 L 8 198 L 0 192 L 0 192 L 8 186 L 8 186 L 35 166 L 35 166 L 22 140 L 22 140 L 16 128 L 16 128 L 29 128 L 120 128 Q 117 116 117 104 Q 118 60 147 30 Q 177 1 221 0 Q 265 1 295 30 Q 324 60 325 104 L 325 104 Z M 173 88 Q 174 73 189 72 Q 204 73 205 88 Q 204 103 189 104 Q 174 103 173 88 L 173 88 Z M 253 88 Q 268 89 269 104 Q 268 119 253 120 Q 238 119 237 104 Q 238 89 253 88 L 253 88 Z M 213 504 L 213 437 L 213 504 L 213 437 L 221 442 L 221 442 L 229 437 L 229 437 L 229 504 L 229 504 L 229 512 L 229 512 L 213 512 L 213 512 L 213 504 L 213 504 Z" />
</svg>