<svg xmlns="http://www.w3.org/2000/svg" viewBox="0 0 504 432">
  <path d="M 440 0 L 440 8 L 440 0 L 440 8 L 440 64 L 440 64 L 496 64 L 504 64 L 504 80 L 504 80 L 496 80 L 440 80 L 440 136 L 440 136 L 440 144 L 440 144 L 424 144 L 424 144 L 424 136 L 424 136 L 424 80 L 424 80 L 368 80 L 360 80 L 360 64 L 360 64 L 368 64 L 424 64 L 424 8 L 424 8 L 424 0 L 424 0 L 440 0 L 440 0 Z M 440 288 L 440 296 L 440 288 L 440 296 L 440 352 L 440 352 L 496 352 L 504 352 L 504 368 L 504 368 L 496 368 L 440 368 L 440 424 L 440 424 L 440 432 L 440 432 L 424 432 L 424 432 L 424 424 L 424 424 L 424 368 L 424 368 L 368 368 L 360 368 L 360 352 L 360 352 L 368 352 L 424 352 L 424 296 L 424 296 L 424 288 L 424 288 L 440 288 L 440 288 Z M 366 225 L 256 280 L 366 225 L 256 280 L 201 390 L 201 390 L 192 408 L 192 408 L 183 390 L 183 390 L 128 280 L 128 280 L 18 225 L 18 225 L 0 216 L 0 216 L 18 207 L 18 207 L 128 152 L 128 152 L 183 42 L 183 42 L 192 24 L 192 24 L 201 42 L 201 42 L 256 152 L 256 152 L 366 207 L 366 207 L 384 216 L 384 216 L 366 225 L 366 225 Z M 242 273 L 244 268 L 242 273 L 244 268 L 249 266 L 249 266 L 348 216 L 348 216 L 249 166 L 249 166 L 244 164 L 244 164 L 242 159 L 242 159 L 192 60 L 192 60 L 142 159 L 142 159 L 140 164 L 140 164 L 135 166 L 135 166 L 36 216 L 36 216 L 135 266 L 135 266 L 140 268 L 140 268 L 142 273 L 142 273 L 192 372 L 192 372 L 242 273 L 242 273 Z" />
</svg>