<svg xmlns="http://www.w3.org/2000/svg" viewBox="0 0 640 512">
  <path d="M 334 13 L 343 0 L 334 13 L 343 0 L 356 10 L 356 10 L 408 51 L 408 51 L 421 61 L 421 61 L 410 73 L 410 73 L 25 510 L 25 510 L 0 491 L 0 491 L 334 13 L 334 13 Z M 22 488 L 23 489 L 22 488 L 23 489 L 397 63 L 397 63 L 347 23 L 347 23 L 22 488 L 22 488 Z M 565 72 L 576 61 L 565 72 L 576 61 L 586 73 L 586 73 L 630 124 L 630 124 L 640 136 L 640 136 L 627 145 L 627 145 L 149 512 L 149 512 L 129 488 L 129 488 L 565 72 L 565 72 Z M 151 489 L 152 490 L 151 489 L 152 490 L 617 133 L 617 133 L 575 84 L 575 84 L 151 489 L 151 489 Z" />
</svg>