<svg xmlns="http://www.w3.org/2000/svg" viewBox="0 0 640 512">
  <path d="M 327 14 L 356 70 L 327 14 L 356 70 L 417 80 L 417 80 L 433 82 L 433 82 L 422 93 L 422 93 L 378 137 L 378 137 L 387 199 L 387 199 L 390 215 L 390 215 L 376 208 L 376 208 L 320 179 L 320 179 L 264 208 L 264 208 L 250 215 L 250 215 L 253 199 L 253 199 L 262 137 L 262 137 L 218 93 L 218 93 L 207 82 L 207 82 L 223 80 L 223 80 L 285 70 L 285 70 L 313 14 L 313 14 L 320 0 L 320 0 L 327 14 L 327 14 Z M 297 81 L 295 84 L 297 81 L 295 84 L 291 85 L 291 85 L 241 93 L 241 93 L 277 129 L 277 129 L 280 132 L 280 132 L 279 136 L 279 136 L 271 186 L 271 186 L 316 163 L 316 163 L 320 161 L 320 161 L 324 163 L 324 163 L 369 186 L 369 186 L 361 136 L 361 136 L 361 132 L 361 132 L 363 129 L 363 129 L 399 93 L 399 93 L 349 85 L 349 85 L 345 84 L 345 84 L 343 81 L 343 81 L 320 35 L 320 35 L 297 81 L 297 81 Z M 240 496 L 400 496 L 240 496 L 400 496 L 400 272 L 400 272 L 240 272 L 240 272 L 240 496 L 240 496 Z M 224 256 L 240 256 L 224 256 L 416 256 L 416 272 L 416 272 L 416 496 L 416 496 L 416 512 L 416 512 L 400 512 L 224 512 L 224 496 L 224 496 L 224 272 L 224 272 L 224 256 L 224 256 Z M 16 336 L 16 496 L 16 336 L 16 496 L 176 496 L 176 496 L 176 336 L 176 336 L 16 336 L 16 336 Z M 0 320 L 16 320 L 0 320 L 192 320 L 192 336 L 192 336 L 192 496 L 192 496 L 192 512 L 192 512 L 176 512 L 0 512 L 0 496 L 0 496 L 0 336 L 0 336 L 0 320 L 0 320 Z M 624 400 L 464 400 L 624 400 L 464 400 L 464 496 L 464 496 L 624 496 L 624 496 L 624 400 L 624 400 Z M 464 384 L 624 384 L 464 384 L 640 384 L 640 400 L 640 400 L 640 496 L 640 496 L 640 512 L 640 512 L 624 512 L 448 512 L 448 496 L 448 496 L 448 400 L 448 400 L 448 384 L 448 384 L 464 384 L 464 384 Z" />
</svg>