<svg xmlns="http://www.w3.org/2000/svg" viewBox="0 0 352 512">
  <path d="M 232 192 L 232 144 L 232 192 L 232 144 L 280 144 L 352 144 L 352 96 L 352 96 L 352 48 L 352 48 L 352 0 L 352 0 L 304 0 L 88 0 L 88 48 L 88 48 L 88 256 L 88 256 L 88 304 L 88 304 L 48 304 L 0 304 L 0 352 L 0 352 L 126 478 L 126 478 L 160 512 L 160 512 L 194 478 L 194 478 L 320 352 L 320 352 L 320 304 L 320 304 L 280 304 L 232 304 L 232 256 L 232 256 L 232 192 L 232 192 Z M 252 352 L 160 444 L 252 352 L 160 444 L 68 352 L 68 352 L 88 352 L 136 352 L 136 304 L 136 304 L 136 48 L 136 48 L 304 48 L 304 48 L 304 96 L 304 96 L 232 96 L 184 96 L 184 144 L 184 144 L 184 304 L 184 304 L 184 352 L 184 352 L 232 352 L 252 352 Z" />
</svg>