<svg xmlns="http://www.w3.org/2000/svg" viewBox="0 0 640 480">
  <path d="M 320 16 Q 374 17 411 53 L 411 53 L 411 53 Q 447 90 448 144 L 448 149 L 448 149 Q 448 159 446 170 L 428 283 L 428 283 L 417 351 L 417 351 Q 416 359 416 368 L 416 371 L 416 371 Q 417 420 452 452 Q 433 445 415 435 L 356 401 L 356 401 L 354 400 L 354 400 L 352 400 L 286 400 L 284 401 L 284 401 L 225 435 L 225 435 Q 208 445 188 452 Q 223 420 224 371 L 224 368 L 224 368 Q 224 359 223 351 L 212 283 L 212 283 L 194 170 L 194 170 Q 192 159 192 149 L 192 144 L 192 144 Q 193 90 229 53 Q 266 17 320 16 L 320 16 Z M 312 0 Q 254 5 216 45 L 216 45 L 216 45 Q 177 85 176 144 L 176 149 L 176 149 Q 176 161 178 172 L 196 286 L 196 286 Q 196 286 196 286 Q 196 286 196 286 Q 199 306 186 321 Q 174 335 153 336 Q 138 336 126 326 Q 115 317 111 302 L 103 269 L 103 269 Q 95 234 69 213 Q 43 193 8 192 L 0 192 L 0 192 L 0 208 L 0 208 L 8 208 L 8 208 Q 37 208 59 226 Q 81 243 88 272 L 95 306 L 95 306 Q 100 326 116 339 Q 132 352 153 352 Q 185 351 202 326 L 207 353 L 207 353 Q 208 361 208 368 L 208 371 L 208 371 Q 207 410 181 437 Q 154 463 115 464 Q 78 463 52 440 Q 27 417 22 381 L 16 327 L 16 327 L 0 329 L 0 329 L 6 383 L 6 383 Q 12 425 42 452 Q 72 479 115 480 L 115 480 L 115 480 Q 115 480 115 480 Q 115 480 115 480 Q 178 480 233 449 L 290 416 L 290 416 L 350 416 L 350 416 L 407 449 L 407 449 Q 462 480 525 480 L 525 480 L 525 480 Q 568 479 598 452 Q 628 425 634 383 L 640 329 L 640 329 L 624 327 L 624 327 L 618 381 L 618 381 Q 613 417 587 440 Q 562 463 525 464 Q 486 463 459 437 Q 433 410 432 371 L 432 368 L 432 368 Q 432 361 433 353 L 438 326 L 438 326 Q 455 351 487 352 Q 508 352 524 339 Q 540 326 545 306 L 552 272 L 552 272 Q 559 244 581 226 Q 603 209 632 208 L 640 208 L 640 208 L 640 192 L 640 192 L 632 192 L 632 192 Q 597 193 571 214 Q 545 235 537 269 L 529 302 L 529 302 Q 525 317 514 326 Q 502 336 487 336 Q 466 335 454 321 Q 441 306 444 286 L 462 172 L 462 172 Q 464 161 464 149 L 464 144 L 464 144 Q 463 85 424 45 Q 386 5 328 0 L 328 0 L 328 0 L 320 0 L 312 0 L 312 0 L 312 0 Z M 288 272 Q 287 257 272 256 Q 257 257 256 272 Q 257 287 272 288 Q 287 287 288 272 L 288 272 Z M 368 288 Q 383 287 384 272 Q 383 257 368 256 Q 353 257 352 272 Q 353 287 368 288 L 368 288 Z" />
</svg>