<svg xmlns="http://www.w3.org/2000/svg" viewBox="0 0 454 454">
  <path d="M 144 22 Q 158 22 167 31 L 167 31 L 167 31 Q 176 40 176 54 Q 176 68 167 77 Q 158 86 144 86 Q 130 86 121 77 Q 112 68 112 54 Q 112 40 121 31 Q 130 22 144 22 L 144 22 Z M 144 102 Q 171 101 186 78 Q 198 54 186 30 Q 171 7 144 6 Q 117 7 102 30 Q 90 54 102 78 Q 117 101 144 102 L 144 102 Z M 126 270 L 130 263 L 126 270 L 130 263 L 186 150 L 186 150 L 262 150 L 262 150 L 318 263 L 318 263 L 322 270 L 322 270 L 330 271 L 330 271 Q 360 277 380 299 Q 399 322 400 354 Q 399 390 375 413 Q 352 437 316 438 Q 284 437 261 418 L 257 414 L 257 414 L 251 414 L 191 414 L 187 418 L 187 418 Q 164 437 132 438 Q 96 437 73 413 Q 49 390 48 354 Q 49 322 68 299 Q 88 277 118 271 L 126 270 L 126 270 Z M 176 134 L 115 255 L 176 134 L 115 255 Q 79 262 56 289 Q 33 316 32 354 Q 33 396 61 425 Q 90 453 132 454 Q 170 453 197 430 L 251 430 L 251 430 Q 278 453 316 454 Q 358 453 387 425 Q 415 396 416 354 Q 415 316 392 289 Q 369 262 333 255 L 272 134 L 272 134 L 176 134 L 176 134 Z M 272 54 Q 272 40 281 31 L 281 31 L 281 31 Q 290 22 304 22 Q 318 22 327 31 Q 336 40 336 54 Q 336 68 327 77 Q 318 86 304 86 Q 290 86 281 77 Q 272 68 272 54 L 272 54 Z M 352 54 Q 351 27 328 12 Q 304 0 280 12 Q 257 27 256 54 Q 257 81 280 96 Q 304 108 328 96 Q 351 81 352 54 L 352 54 Z M 400 134 Q 414 134 423 143 L 423 143 L 423 143 Q 432 152 432 166 Q 432 180 423 189 Q 414 198 400 198 Q 386 198 377 189 Q 368 180 368 166 Q 368 152 377 143 Q 386 134 400 134 L 400 134 Z M 400 214 Q 427 213 442 190 Q 454 166 442 142 Q 427 119 400 118 Q 373 119 358 142 Q 346 166 358 190 Q 373 213 400 214 L 400 214 Z M 16 166 Q 16 152 25 143 L 25 143 L 25 143 Q 34 134 48 134 Q 62 134 71 143 Q 80 152 80 166 Q 80 180 71 189 Q 62 198 48 198 Q 34 198 25 189 Q 16 180 16 166 L 16 166 Z M 96 166 Q 95 139 72 124 Q 48 112 24 124 Q 1 139 0 166 Q 1 193 24 208 Q 48 220 72 208 Q 95 193 96 166 L 96 166 Z" />
</svg>