<svg xmlns="http://www.w3.org/2000/svg" viewBox="0 0 630 502">
  <path d="M 17 5 L 89 77 L 17 5 L 89 77 L 94 83 L 94 83 L 83 94 L 83 94 L 77 89 L 77 89 L 5 17 L 5 17 L 0 11 L 0 11 L 11 0 L 11 0 L 17 5 L 17 5 Z M 625 17 L 553 89 L 625 17 L 553 89 L 547 94 L 547 94 L 536 83 L 536 83 L 541 77 L 541 77 L 613 5 L 613 5 L 619 0 L 619 0 L 630 11 L 630 11 L 625 17 L 625 17 Z M 89 425 L 17 497 L 89 425 L 17 497 L 11 502 L 11 502 L 0 491 L 0 491 L 5 485 L 5 485 L 77 413 L 77 413 L 83 408 L 83 408 L 94 419 L 94 419 L 89 425 L 89 425 Z M 553 413 L 625 485 L 553 413 L 625 485 L 630 491 L 630 491 L 619 502 L 619 502 L 613 497 L 613 497 L 541 425 L 541 425 L 536 419 L 536 419 L 547 408 L 547 408 L 553 413 L 553 413 Z M 171 203 Q 185 203 194 194 L 194 194 L 194 194 Q 203 185 203 171 Q 203 157 194 148 Q 185 139 171 139 Q 157 139 148 148 Q 139 157 139 171 Q 139 185 148 194 Q 157 203 171 203 L 171 203 Z M 171 123 Q 198 124 213 147 Q 225 171 213 195 Q 198 218 171 219 Q 144 218 129 195 Q 117 171 129 147 Q 144 124 171 123 L 171 123 Z M 363 187 Q 362 160 339 145 Q 315 133 291 145 Q 268 160 267 187 Q 268 214 291 229 Q 315 241 339 229 Q 362 214 363 187 L 363 187 Z M 251 187 Q 252 151 283 132 Q 315 114 347 132 Q 378 151 379 187 Q 378 223 347 242 Q 315 260 283 242 Q 252 223 251 187 L 251 187 Z M 209 363 L 421 363 L 209 363 L 421 363 L 400 299 L 400 299 L 231 299 L 231 299 L 209 363 L 209 363 Z M 219 283 L 411 283 L 219 283 L 411 283 L 438 363 L 438 363 L 443 379 L 443 379 L 426 379 L 187 379 L 192 363 L 192 363 L 219 283 L 219 283 Z M 427 171 Q 427 185 436 194 L 436 194 L 436 194 Q 445 203 459 203 Q 473 203 482 194 Q 491 185 491 171 Q 491 157 482 148 Q 473 139 459 139 Q 445 139 436 148 Q 427 157 427 171 L 427 171 Z M 507 171 Q 506 198 483 213 Q 459 225 435 213 Q 412 198 411 171 Q 412 144 435 129 Q 459 117 483 129 Q 506 144 507 171 L 507 171 Z M 127 267 L 112 323 L 127 267 L 112 323 L 172 323 L 172 323 L 167 339 L 167 339 L 108 339 L 91 339 L 95 323 L 95 323 L 115 251 L 115 251 L 196 251 L 196 251 L 191 267 L 191 267 L 127 267 L 127 267 Z M 458 323 L 518 323 L 458 323 L 518 323 L 503 267 L 503 267 L 439 267 L 439 267 L 434 251 L 434 251 L 515 251 L 515 251 L 535 323 L 535 323 L 539 339 L 539 339 L 522 339 L 463 339 L 458 323 L 458 323 Z" />
</svg>