<svg xmlns="http://www.w3.org/2000/svg" viewBox="0 0 384 512">
  <path d="M 68 428 L 76 438 L 68 428 L 76 438 L 121 489 L 121 489 L 181 436 L 181 436 L 192 427 L 192 427 L 203 436 L 203 436 L 263 489 L 263 489 L 308 438 L 308 438 L 316 428 L 316 428 L 327 434 L 327 434 L 368 454 L 368 454 L 368 192 L 368 192 Q 366 117 316 68 Q 267 18 192 16 Q 117 18 68 68 Q 18 117 16 192 L 16 454 L 16 454 L 57 434 L 57 434 L 68 428 L 68 428 Z M 16 472 L 0 480 L 16 472 L 0 480 L 0 462 L 0 462 L 0 192 L 0 192 Q 2 110 56 56 Q 110 2 192 0 Q 274 2 328 56 Q 382 110 384 192 L 384 462 L 384 462 L 384 480 L 384 480 L 368 472 L 368 472 L 320 448 L 320 448 L 275 500 L 275 500 L 264 512 L 264 512 L 252 501 L 252 501 L 192 448 L 192 448 L 132 501 L 132 501 L 120 512 L 120 512 L 110 500 L 110 500 L 64 448 L 64 448 L 16 472 L 16 472 Z M 128 168 Q 106 170 104 192 Q 106 214 128 216 Q 150 214 152 192 Q 150 170 128 168 L 128 168 Z M 168 192 Q 167 215 148 227 Q 128 237 108 227 Q 89 215 88 192 Q 89 169 108 157 Q 128 147 148 157 Q 167 169 168 192 L 168 192 Z M 232 192 Q 234 214 256 216 Q 278 214 280 192 Q 278 170 256 168 Q 234 170 232 192 L 232 192 Z M 256 232 Q 233 231 221 212 Q 211 192 221 172 Q 233 153 256 152 Q 279 153 291 172 Q 301 192 291 212 Q 279 231 256 232 L 256 232 Z" />
</svg>