<svg xmlns="http://www.w3.org/2000/svg" viewBox="0 0 640 448">
  <path d="M 0 16 L 0 0 L 0 16 L 0 0 L 16 0 L 54 0 Q 117 22 185 31 Q 253 40 320 40 Q 387 40 455 31 Q 523 22 587 0 L 624 0 L 640 0 L 640 16 L 640 16 L 640 432 L 640 432 L 640 448 L 640 448 L 624 448 L 587 448 Q 523 426 455 417 Q 388 408 320 408 Q 209 406 100 434 Q 98 435 96 435 Q 75 441 54 448 L 16 448 L 0 448 L 0 432 L 0 432 L 0 16 L 0 16 Z M 221 396 L 270 331 L 221 396 L 270 331 L 224 269 L 224 269 L 116 413 L 116 413 Q 168 401 221 396 L 221 396 Z M 320 392 Q 432 390 544 418 L 384 205 L 384 205 L 286 336 L 286 336 L 242 395 L 242 395 Q 281 392 320 392 L 320 392 Z M 589 432 L 624 432 L 589 432 L 624 432 L 624 16 L 624 16 L 589 16 L 589 16 Q 524 38 456 47 Q 388 56 320 56 Q 252 56 184 47 Q 116 38 51 16 L 16 16 L 16 16 L 16 432 L 16 432 L 51 432 L 51 432 Q 71 425 92 419 L 218 251 L 218 251 L 224 243 L 224 243 L 230 251 L 230 251 L 280 317 L 280 317 L 378 187 L 378 187 L 384 179 L 384 179 L 390 187 L 390 187 L 569 425 L 569 425 Q 579 428 589 432 L 589 432 Z M 128 112 Q 155 113 170 136 Q 182 160 170 184 Q 155 207 128 208 Q 101 207 86 184 Q 74 160 86 136 Q 101 113 128 112 L 128 112 Z M 160 160 Q 160 146 151 137 L 151 137 L 151 137 Q 142 128 128 128 Q 114 128 105 137 Q 96 146 96 160 Q 96 174 105 183 Q 114 192 128 192 Q 142 192 151 183 Q 160 174 160 160 L 160 160 Z" />
</svg>