<svg xmlns="http://www.w3.org/2000/svg" viewBox="0 0 384 512">
  <path d="M 224 496 Q 285 494 326 454 L 326 454 L 326 454 Q 366 413 368 352 L 368 16 L 368 16 L 16 16 L 16 16 L 16 352 L 16 352 Q 18 413 58 454 Q 99 494 160 496 L 224 496 L 224 496 Z M 0 0 L 16 0 L 0 0 L 384 0 L 384 16 L 384 16 L 384 352 L 384 352 Q 382 420 337 465 Q 292 510 224 512 L 160 512 L 160 512 Q 92 510 47 465 Q 2 420 0 352 L 0 16 L 0 16 L 0 0 L 0 0 Z M 176 112 L 176 176 L 176 112 L 176 176 L 208 176 L 208 176 L 208 112 L 208 112 L 176 112 L 176 112 Z M 160 96 L 176 96 L 160 96 L 224 96 L 224 112 L 224 112 L 224 176 L 224 176 L 224 192 L 224 192 L 208 192 L 160 192 L 160 176 L 160 176 L 160 112 L 160 112 L 160 96 L 160 96 Z" />
</svg>