<svg xmlns="http://www.w3.org/2000/svg" viewBox="0 0 448 448">
  <path d="M 16 16 L 16 432 L 16 16 L 16 432 L 432 432 L 432 432 L 432 16 L 432 16 L 16 16 L 16 16 Z M 0 0 L 16 0 L 0 0 L 448 0 L 448 16 L 448 16 L 448 432 L 448 432 L 448 448 L 448 448 L 432 448 L 0 448 L 0 432 L 0 432 L 0 16 L 0 16 L 0 0 L 0 0 Z M 233 81 L 273 157 L 233 81 L 273 157 L 357 171 L 357 171 L 376 175 L 376 175 L 363 188 L 363 188 L 303 250 L 303 250 L 315 334 L 315 334 L 318 353 L 318 353 L 301 345 L 301 345 L 224 307 L 224 307 L 147 345 L 147 345 L 130 353 L 130 353 L 133 334 L 133 334 L 145 250 L 145 250 L 85 189 L 85 189 L 72 175 L 72 175 L 91 171 L 91 171 L 175 157 L 175 157 L 215 81 L 215 81 L 224 64 L 224 64 L 233 81 L 233 81 Z M 270 172 L 262 171 L 270 172 L 262 171 L 259 164 L 259 164 L 224 98 L 224 98 L 189 164 L 189 164 L 186 171 L 186 171 L 178 173 L 178 173 L 104 185 L 104 185 L 156 239 L 156 239 L 162 244 L 162 244 L 161 252 L 161 252 L 150 326 L 150 326 L 217 293 L 217 293 L 224 289 L 224 289 L 231 293 L 231 293 L 298 326 L 298 326 L 287 252 L 287 252 L 286 244 L 286 244 L 292 239 L 292 239 L 344 185 L 344 185 L 270 173 L 270 172 Z" />
</svg>