<svg xmlns="http://www.w3.org/2000/svg" viewBox="0 0 416 512">
  <path d="M 144 171 L 144 160 L 144 171 L 144 160 L 144 16 L 144 16 L 272 16 L 272 16 L 272 160 L 272 160 L 272 171 L 272 171 L 282 175 L 282 175 Q 335 197 367 244 Q 399 291 400 352 Q 400 360 399 368 Q 353 367 323 357 Q 292 348 269 337 Q 267 336 264 335 Q 262 333 260 332 Q 260 332 260 332 Q 238 321 214 313 Q 189 304 156 304 Q 82 307 43 329 Q 26 337 16 344 Q 19 286 51 241 Q 83 196 134 175 L 144 171 L 144 171 Z M 397 384 Q 385 452 335 496 L 81 496 L 81 496 Q 23 445 16 364 Q 16 363 17 363 Q 19 362 22 359 Q 31 352 50 343 Q 86 323 156 320 Q 186 320 209 328 Q 231 336 253 347 Q 255 348 257 349 Q 260 350 262 351 Q 286 363 318 373 Q 350 382 397 384 L 397 384 Z M 288 160 L 288 16 L 288 160 L 288 16 L 312 16 L 320 16 L 320 0 L 320 0 L 312 0 L 96 0 L 96 16 L 96 16 L 104 16 L 128 16 L 128 160 L 128 160 Q 71 184 36 235 Q 1 286 0 352 Q 0 401 20 442 Q 40 483 75 512 L 341 512 L 341 512 Q 376 483 396 442 Q 416 401 416 352 Q 415 286 380 235 Q 345 184 288 160 L 288 160 Z" />
</svg>