<svg xmlns="http://www.w3.org/2000/svg" viewBox="0 0 512 512">
  <path d="M 371.2 204.8 Q 371.2 224.8 351.2 264.8 Q 344 279.2 335.2 293.6 L 290.4 258.4 Q 318.4 240 320 204.8 Q 319.2 177.6 301.6 159.2 Q 283.2 141.6 256 140.8 Q 234.4 140.8 218.4 152.8 Q 201.6 164.8 195.2 184.8 L 153.6 152 Q 168 124 195.2 107.2 Q 222.4 90.4 256 89.6 Q 304.8 91.2 337.6 123.2 Q 369.6 156 371.2 204.8 L 371.2 204.8 Z M 123.2 128 L 38.4 63.2 L 23.2 51.2 L 0 81.6 L 15.2 93.6 L 473.6 448.8 L 488.8 460.8 L 512 430.4 L 496.8 418.4 L 366.4 316.8 Q 384.8 287.2 396.8 257.6 Q 408.8 228.8 409.6 204.8 Q 408 139.2 364.8 96 Q 321.6 52.8 256 51.2 Q 212.8 52 177.6 72.8 Q 143.2 93.6 123.2 128 L 123.2 128 Z M 254.4 230.4 L 232 212.8 Q 230.4 208.8 230.4 204.8 Q 230.4 193.6 237.6 186.4 Q 244.8 179.2 256 179.2 Q 267.2 179.2 274.4 186.4 Q 281.6 193.6 281.6 204.8 Q 281.6 216 274.4 223.2 Q 267.2 230.4 256 230.4 Q 255.2 230.4 254.4 230.4 L 254.4 230.4 Z M 160.8 264.8 Q 156 256 152.8 248 L 102.4 208.8 Q 105.6 243.2 128 284.8 Q 150.4 327.2 179.2 366.4 Q 208 405.6 230.4 432 Q 254.4 460 256 460.8 Q 256 460.8 256 460.8 Q 257.6 460 281.6 432 Q 299.2 411.2 321.6 381.6 L 291.2 357.6 Q 272 383.2 256 402.4 Q 235.2 377.6 210.4 344 Q 181.6 304.8 160.8 265.6 L 160.8 264.8 Z" />
</svg>