<svg xmlns="http://www.w3.org/2000/svg" viewBox="0 0 448 448">
  <path d="M 8 0 L 128 0 L 8 0 L 128 0 L 128 16 L 128 16 L 16 16 L 16 16 L 16 128 L 16 128 L 0 128 L 0 128 L 0 8 L 0 8 L 0 0 L 0 0 L 8 0 L 8 0 Z M 0 160 L 16 160 L 0 160 L 16 160 L 16 288 L 16 288 L 0 288 L 0 288 L 0 160 L 0 160 Z M 432 160 L 448 160 L 432 160 L 448 160 L 448 288 L 448 288 L 432 288 L 432 288 L 432 160 L 432 160 Z M 448 128 L 432 128 L 448 128 L 432 128 L 432 16 L 432 16 L 320 16 L 320 16 L 320 0 L 320 0 L 440 0 L 448 0 L 448 8 L 448 8 L 448 128 L 448 128 Z M 448 320 L 448 440 L 448 320 L 448 440 L 448 448 L 448 448 L 440 448 L 320 448 L 320 432 L 320 432 L 432 432 L 432 432 L 432 320 L 432 320 L 448 320 L 448 320 Z M 16 320 L 16 432 L 16 320 L 16 432 L 128 432 L 128 432 L 128 448 L 128 448 L 8 448 L 0 448 L 0 440 L 0 440 L 0 320 L 0 320 L 16 320 L 16 320 Z M 288 448 L 160 448 L 288 448 L 160 448 L 160 432 L 160 432 L 288 432 L 288 432 L 288 448 L 288 448 Z M 160 16 L 160 0 L 160 16 L 160 0 L 288 0 L 288 0 L 288 16 L 288 16 L 160 16 L 160 16 Z" />
</svg>