<svg xmlns="http://www.w3.org/2000/svg" viewBox="0 0 384 448">
  <path d="M 144 208 L 144 224 L 144 208 L 144 224 L 144 432 L 144 432 L 240 432 L 240 432 L 240 224 L 240 224 L 240 208 L 240 208 L 256 208 L 368 208 L 368 199 L 368 199 L 192 23 L 192 23 L 16 199 L 16 199 L 16 208 L 16 208 L 128 208 L 144 208 Z M 0 192 L 181 11 L 0 192 L 181 11 L 192 0 L 192 0 L 203 11 L 203 11 L 384 192 L 384 192 L 384 208 L 384 208 L 384 224 L 384 224 L 368 224 L 256 224 L 256 240 L 256 240 L 256 432 L 256 432 L 256 448 L 256 448 L 240 448 L 128 448 L 128 432 L 128 432 L 128 240 L 128 240 L 128 224 L 128 224 L 112 224 L 0 224 L 0 208 L 0 208 L 0 192 L 0 192 Z" />
</svg>