<svg xmlns="http://www.w3.org/2000/svg" viewBox="0 0 640 512">
  <path d="M 240 16 L 240 32 L 240 16 L 240 32 L 368 32 L 368 32 L 368 16 L 368 16 L 240 16 L 240 16 Z M 224 32 L 224 16 L 224 32 L 224 16 L 224 0 L 224 0 L 240 0 L 384 0 L 384 16 L 384 16 L 384 32 L 384 32 L 600 32 L 608 32 L 608 40 L 608 40 L 608 152 L 608 152 L 608 160 L 608 160 L 600 160 L 384 160 L 384 392 L 384 392 L 384 400 L 384 400 L 376 400 L 285 400 Q 288 411 288 424 Q 287 461 262 486 Q 237 511 200 512 Q 163 511 138 486 Q 113 461 112 424 Q 112 408 117 394 L 3 311 L 3 311 L 0 308 L 0 308 L 0 304 L 0 304 L 0 40 L 0 40 L 0 32 L 0 32 L 8 32 L 224 32 Z M 384 48 L 368 48 L 384 48 L 16 48 L 16 300 L 16 300 L 124 379 L 124 379 Q 149 338 200 336 Q 226 336 247 349 Q 267 362 278 384 L 368 384 L 368 384 L 368 152 L 368 152 L 368 144 L 368 144 L 376 144 L 592 144 L 592 48 L 592 48 L 384 48 L 384 48 Z M 200 496 Q 241 495 262 460 Q 282 424 262 388 Q 241 353 200 352 Q 159 353 138 388 Q 118 424 138 460 Q 159 495 200 496 L 200 496 Z M 488 496 Q 529 495 550 460 Q 570 424 550 388 Q 529 353 488 352 Q 447 353 426 388 Q 406 424 426 460 Q 447 495 488 496 L 488 496 Z M 488 336 Q 538 338 564 380 Q 588 424 564 468 Q 538 510 488 512 Q 438 510 412 468 Q 388 424 412 380 Q 438 338 488 336 L 488 336 Z M 288 128 L 96 128 L 288 128 L 96 128 L 96 224 L 96 224 L 288 224 L 288 224 L 288 128 L 288 128 Z M 96 112 L 288 112 L 96 112 L 304 112 L 304 128 L 304 128 L 304 224 L 304 224 L 304 240 L 304 240 L 288 240 L 80 240 L 80 224 L 80 224 L 80 128 L 80 128 L 80 112 L 80 112 L 96 112 L 96 112 Z M 416 192 L 424 192 L 416 192 L 531 192 L 533 194 L 533 194 L 637 274 L 637 274 L 640 276 L 640 276 L 640 280 L 640 280 L 640 392 L 640 392 L 640 400 L 640 400 L 632 400 L 584 400 L 584 384 L 584 384 L 592 384 L 624 384 L 624 288 L 624 288 L 424 288 L 416 288 L 416 272 L 416 272 L 424 272 L 609 272 L 525 208 L 525 208 L 424 208 L 416 208 L 416 192 L 416 192 Z" />
</svg>