<svg xmlns="http://www.w3.org/2000/svg" viewBox="0 0 475 448">
  <path d="M 123 443 L 129 438 L 123 443 L 129 438 L 241 326 L 241 326 L 246 320 L 246 320 L 235 309 L 235 309 L 229 314 L 229 314 L 131 413 L 131 413 L 131 8 L 131 8 L 131 0 L 131 0 L 115 0 L 115 0 L 115 8 L 115 8 L 115 413 L 115 413 L 17 314 L 17 314 L 11 309 L 11 309 L 0 320 L 0 320 L 5 326 L 5 326 L 117 438 L 117 438 L 123 443 L 123 443 Z M 331 0 L 331 16 L 331 0 L 331 16 L 339 16 L 387 16 L 387 176 L 387 176 L 339 176 L 331 176 L 331 192 L 331 192 L 339 192 L 459 192 L 459 176 L 459 176 L 451 176 L 403 176 L 403 8 L 403 8 L 403 0 L 403 0 L 395 0 L 331 0 Z M 391 240 Q 419 241 438 259 L 438 259 L 438 259 Q 458 278 459 306 Q 459 320 454 333 Q 446 352 430 364 Q 413 376 391 376 Q 362 375 343 356 Q 324 337 323 308 Q 324 279 343 260 Q 362 241 391 240 L 391 240 Z M 391 392 Q 405 392 417 388 L 369 448 L 369 448 L 389 448 L 389 448 L 451 371 L 451 371 Q 463 356 469 339 Q 475 324 475 308 Q 475 307 475 306 Q 475 305 475 304 L 475 304 L 475 304 Q 473 270 449 247 Q 426 225 391 224 Q 355 225 332 249 Q 308 272 307 308 Q 308 344 332 368 Q 355 391 391 392 L 391 392 Z" />
</svg>