<svg xmlns="http://www.w3.org/2000/svg" viewBox="0 0 639 512">
  <path d="M 200 0 L 192 0 L 200 0 L 192 0 L 192 8 L 192 8 L 192 36 L 192 36 Q 122 51 78 105 Q 33 158 32 232 L 32 263 L 32 263 L 2 374 L 2 374 L 0 382 L 0 382 L 15 386 L 15 386 L 17 378 L 17 378 L 48 266 L 48 266 L 48 265 L 48 265 L 48 264 L 48 264 L 48 232 L 48 232 Q 49 165 89 116 Q 129 67 192 52 L 192 104 L 192 104 Q 193 152 224 186 Q 255 219 303 224 L 305 208 L 305 208 Q 263 204 236 175 Q 209 146 208 104 L 208 50 L 208 50 Q 208 50 208 50 Q 208 50 208 50 L 208 34 L 208 34 Q 208 34 208 34 Q 208 34 208 34 L 208 16 L 208 16 L 296 16 L 296 16 Q 338 17 367 44 Q 396 71 400 113 L 416 111 L 416 111 Q 413 75 392 48 Q 450 49 488 88 Q 527 126 528 184 L 528 328 L 528 328 L 528 336 L 528 336 L 544 336 L 544 336 L 544 328 L 544 328 L 544 184 L 544 184 Q 542 119 499 77 Q 457 34 392 32 L 378 32 L 378 32 Q 344 1 296 0 L 200 0 L 200 0 Z M 416 304 L 416 296 L 416 304 L 416 296 L 400 296 L 400 296 L 400 304 L 400 304 L 400 496 L 400 496 L 304 496 L 304 496 L 304 398 L 304 398 Q 305 397 306 396 Q 307 395 309 395 L 315 390 L 315 390 L 306 377 L 306 377 L 299 381 L 299 381 Q 294 385 289 388 L 288 388 L 288 388 L 288 388 L 288 388 Q 266 400 240 400 Q 214 400 192 388 L 192 388 L 192 388 L 191 388 L 191 388 Q 186 385 181 381 L 174 377 L 174 377 L 165 390 L 165 390 L 171 395 L 171 395 Q 172 395 173 395 Q 174 396 176 398 L 176 496 L 176 496 L 80 496 L 80 496 L 80 336 L 80 336 L 80 328 L 80 328 L 64 328 L 64 328 L 64 336 L 64 336 L 64 504 L 64 504 L 64 512 L 64 512 L 72 512 L 192 512 L 192 504 L 192 504 L 192 406 L 192 406 Q 214 416 240 416 Q 266 416 288 406 L 288 504 L 288 504 L 288 512 L 288 512 L 296 512 L 416 512 L 416 504 L 416 504 L 416 341 L 416 341 Q 442 370 480 380 L 480 403 L 480 403 Q 481 436 503 457 Q 524 479 557 480 Q 584 480 604 464 Q 625 449 632 423 L 635 413 L 635 413 L 639 397 L 639 397 L 623 393 L 623 393 L 593 385 L 593 385 L 577 380 L 577 380 L 573 396 L 573 396 L 570 406 L 570 406 Q 567 415 557 416 Q 545 415 544 403 L 544 380 L 544 380 Q 579 371 604 345 L 610 339 L 610 339 L 599 328 L 599 328 L 593 334 L 593 334 Q 561 367 512 368 Q 481 368 456 353 Q 431 339 416 315 L 416 304 L 416 304 Z M 496 403 L 496 383 L 496 403 L 496 383 Q 504 384 512 384 Q 520 384 528 383 L 528 403 L 528 403 Q 528 415 537 423 Q 545 432 557 432 Q 579 431 586 410 L 588 400 L 588 400 L 619 408 L 619 408 L 617 419 L 617 419 Q 611 439 595 451 Q 579 464 557 464 Q 531 463 514 446 Q 497 429 496 403 L 496 403 Z M 480 208 Q 479 193 464 192 Q 449 193 448 208 Q 449 223 464 224 Q 479 223 480 208 L 480 208 Z" />
</svg>