<svg xmlns="http://www.w3.org/2000/svg" viewBox="0 0 576 448">
  <path d="M 560 16 L 560 432 L 560 16 L 560 432 L 16 432 L 16 432 L 16 16 L 16 16 L 560 16 L 560 16 Z M 16 0 L 0 0 L 16 0 L 0 0 L 0 16 L 0 16 L 0 432 L 0 432 L 0 448 L 0 448 L 16 448 L 576 448 L 576 432 L 576 432 L 576 16 L 576 16 L 576 0 L 576 0 L 560 0 L 16 0 Z M 192 144 Q 235 146 258 179 L 271 170 L 271 170 Q 243 130 192 128 Q 151 129 124 156 Q 97 183 96 224 Q 97 265 124 292 Q 151 319 192 320 Q 243 318 271 279 L 258 269 L 258 269 Q 235 302 192 304 Q 158 303 135 281 Q 113 258 112 224 Q 113 190 135 167 Q 158 145 192 144 L 192 144 Z M 320 224 Q 321 190 343 167 L 343 167 L 343 167 Q 366 145 400 144 Q 443 146 466 179 L 479 170 L 479 170 Q 451 130 400 128 Q 359 129 332 156 Q 305 183 304 224 Q 305 265 332 292 Q 359 319 400 320 Q 451 318 479 279 L 466 269 L 466 269 Q 443 302 400 304 Q 366 303 343 281 Q 321 258 320 224 L 320 224 Z" />
</svg>