<svg xmlns="http://www.w3.org/2000/svg" viewBox="0 0 640 512">
  <path d="M 16 5 L 10 0 L 16 5 L 10 0 L 0 13 L 0 13 L 6 18 L 6 18 L 624 507 L 624 507 L 630 512 L 630 512 L 640 500 L 640 500 L 634 495 L 634 495 L 16 5 L 16 5 Z M 576 256 Q 574 188 529 143 L 529 143 L 529 143 Q 484 98 416 96 L 360 96 L 352 96 L 352 112 L 352 112 L 360 112 L 416 112 Q 477 114 518 154 Q 558 195 560 256 Q 559 300 536 335 L 549 345 L 549 345 Q 575 306 576 256 L 576 256 Z M 464 264 L 472 264 L 464 264 L 472 264 L 472 248 L 472 248 L 464 248 L 426 248 L 446 264 L 446 264 L 464 264 L 464 264 Z M 194 248 L 176 248 L 194 248 L 168 248 L 168 264 L 168 264 L 176 264 L 214 264 L 194 248 L 194 248 Z M 104 177 L 91 167 L 104 177 L 91 167 Q 65 206 64 256 Q 66 324 111 369 Q 156 414 224 416 L 280 416 L 288 416 L 288 400 L 288 400 L 280 400 L 224 400 Q 163 398 122 358 Q 82 317 80 256 Q 81 212 104 177 L 104 177 Z" />
</svg>