<svg xmlns="http://www.w3.org/2000/svg" viewBox="0 0 512 448">
  <path d="M 72 344 L 76 335 L 72 344 L 76 335 L 68 328 L 68 328 Q 17 276 16 208 Q 18 128 85 73 Q 152 18 256 16 Q 360 18 427 73 Q 494 128 496 208 Q 494 288 427 343 Q 360 398 256 400 Q 211 400 171 388 L 166 386 L 166 386 L 162 388 L 162 388 L 42 423 L 42 423 L 72 344 L 72 344 Z M 16 448 L 35 442 L 16 448 L 35 442 L 166 403 L 166 403 Q 209 416 256 416 Q 328 415 385 388 Q 443 360 477 313 Q 511 266 512 208 Q 511 150 477 103 Q 443 56 385 28 Q 328 1 256 0 Q 184 1 127 28 Q 69 56 35 103 Q 1 150 0 208 Q 2 284 57 339 L 23 429 L 23 429 L 16 448 L 16 448 Z M 200 120 L 192 120 L 200 120 L 192 120 L 192 136 L 192 136 L 200 136 L 309 136 L 170 274 L 170 274 L 165 280 L 165 280 L 176 291 L 176 291 L 182 286 L 182 286 L 320 147 L 320 147 L 320 256 L 320 256 L 320 264 L 320 264 L 336 264 L 336 264 L 336 256 L 336 256 L 336 128 L 336 128 L 336 120 L 336 120 L 328 120 L 200 120 Z" />
</svg>