<svg xmlns="http://www.w3.org/2000/svg" viewBox="0 0 576 512">
  <path d="M 464 16 L 464 496 L 464 16 L 464 496 L 112 496 L 112 496 L 112 16 L 112 16 L 464 16 L 464 16 Z M 96 16 L 96 496 L 96 16 L 96 496 L 8 496 L 0 496 L 0 512 L 0 512 L 8 512 L 576 512 L 576 496 L 576 496 L 568 496 L 480 496 L 480 16 L 480 16 L 480 0 L 480 0 L 464 0 L 96 0 L 96 16 L 96 16 Z M 408 256 Q 406 278 384 280 Q 362 278 360 256 Q 362 234 384 232 Q 406 234 408 256 L 408 256 Z M 384 216 Q 361 217 349 236 Q 339 256 349 276 Q 361 295 384 296 Q 407 295 419 276 Q 429 256 419 236 Q 407 217 384 216 L 384 216 Z" />
</svg>