<svg xmlns="http://www.w3.org/2000/svg" viewBox="0 0 512 512">
  <path d="M 352 16 L 352 80 L 352 16 L 352 80 L 256 80 L 256 80 L 256 40 L 256 40 L 256 16 L 256 16 L 352 16 L 352 16 Z M 256 96 L 352 96 L 256 96 L 368 96 L 368 80 L 368 80 L 368 16 L 368 16 L 368 0 L 368 0 L 352 0 L 240 0 L 240 16 L 240 16 L 240 56 L 240 56 L 240 80 L 240 80 L 240 96 L 240 96 L 240 144 L 240 144 L 40 144 L 32 144 L 32 160 L 32 160 L 40 160 L 480 160 L 480 144 L 480 144 L 472 144 L 256 144 L 256 96 L 256 96 Z M 80 200 L 80 192 L 80 200 L 80 192 L 64 192 L 64 192 L 64 200 L 64 200 L 64 376 L 64 376 L 64 384 L 64 384 L 72 384 L 448 384 L 448 376 L 448 376 L 448 200 L 448 200 L 448 192 L 448 192 L 432 192 L 432 192 L 432 200 L 432 200 L 432 368 L 432 368 L 328 368 L 328 368 L 328 200 L 328 200 L 328 192 L 328 192 L 312 192 L 312 192 L 312 200 L 312 200 L 312 368 L 312 368 L 200 368 L 200 368 L 200 200 L 200 200 L 200 192 L 200 192 L 184 192 L 184 192 L 184 200 L 184 200 L 184 368 L 184 368 L 80 368 L 80 368 L 80 200 L 80 200 Z M 40 432 L 32 432 L 40 432 L 32 432 L 32 448 L 32 448 L 40 448 L 480 448 L 480 432 L 480 432 L 472 432 L 40 432 Z M 8 496 L 0 496 L 8 496 L 0 496 L 0 512 L 0 512 L 8 512 L 512 512 L 512 496 L 512 496 L 504 496 L 8 496 Z" />
</svg>