<svg xmlns="http://www.w3.org/2000/svg" viewBox="0 0 576 512">
  <path d="M 568 16 L 576 16 L 568 16 L 576 16 L 576 0 L 576 0 L 568 0 L 568 0 Q 467 1 387 53 Q 307 105 265 191 Q 271 196 277 202 Q 317 118 393 68 Q 470 17 568 16 L 568 16 Z M 448 292 Q 462 255 494 232 L 494 232 L 494 232 Q 526 209 568 208 L 576 208 L 576 208 L 576 192 L 576 192 L 568 192 L 568 192 Q 527 192 494 213 Q 460 233 442 267 Q 446 279 447 292 L 448 292 L 448 292 Z M 372 198 Q 380 201 387 204 Q 418 162 465 137 Q 512 113 568 112 L 576 112 L 576 112 L 576 96 L 576 96 L 568 96 L 568 96 Q 507 97 456 124 Q 405 151 372 198 L 372 198 Z M 400 320 L 400 336 L 400 320 L 400 336 L 416 336 L 416 336 Q 450 337 473 359 Q 495 382 496 416 L 496 496 L 496 496 L 416 496 L 16 496 L 16 416 L 16 416 Q 16 389 31 369 Q 46 349 69 341 L 80 337 L 80 337 L 80 326 L 80 326 L 80 304 L 80 304 Q 81 263 108 236 Q 135 209 176 208 Q 227 210 255 249 L 263 261 L 263 261 L 276 253 L 276 253 Q 295 240 320 240 Q 354 241 377 264 Q 399 286 400 320 L 400 320 Z M 0 512 L 16 512 L 0 512 L 512 512 L 512 496 L 512 496 L 512 416 L 512 416 Q 511 375 484 348 Q 457 321 416 320 Q 415 279 388 252 Q 361 225 320 224 Q 291 224 268 240 Q 235 194 176 192 Q 128 193 97 225 Q 65 256 64 304 L 64 326 L 64 326 Q 36 336 18 360 Q 1 384 0 416 L 0 496 L 0 496 L 0 512 L 0 512 Z" />
</svg>