<svg xmlns="http://www.w3.org/2000/svg" viewBox="0 0 640 352">
  <path d="M 448 0 L 456 0 L 448 0 L 564 0 L 566 3 L 566 3 L 638 99 L 638 99 L 640 101 L 640 101 L 640 104 L 640 104 L 640 272 L 640 272 L 640 280 L 640 280 L 632 280 L 608 280 Q 604 311 582 331 Q 560 351 528 352 Q 496 351 474 331 Q 452 311 448 280 L 448 280 L 448 280 L 448 272 L 448 272 L 304 272 L 304 272 Q 303 306 281 329 Q 258 351 224 352 Q 200 352 181 339 Q 162 327 152 307 Q 142 327 123 339 Q 104 352 80 352 Q 46 351 23 329 Q 1 306 0 272 Q 1 238 23 215 Q 46 193 80 192 Q 104 192 123 205 Q 142 217 152 237 Q 162 217 181 205 Q 200 192 224 192 Q 254 193 275 210 Q 296 228 302 256 L 448 256 L 448 256 L 448 224 L 448 224 L 448 8 L 448 8 L 448 0 L 448 0 Z M 624 264 L 624 112 L 624 264 L 624 112 L 464 112 L 464 112 L 464 224 L 464 224 Q 487 193 528 192 Q 560 193 582 213 Q 604 233 608 264 L 624 264 L 624 264 Z M 616 96 L 556 16 L 616 96 L 556 16 L 464 16 L 464 16 L 464 96 L 464 96 L 616 96 L 616 96 Z M 528 336 Q 564 335 583 304 Q 601 272 583 240 Q 564 209 528 208 Q 492 209 473 240 Q 455 272 473 304 Q 492 335 528 336 L 528 336 Z M 288 272 Q 287 236 256 217 Q 224 199 192 217 Q 161 236 160 272 Q 161 308 192 327 Q 224 345 256 327 Q 287 308 288 272 L 288 272 Z M 80 336 Q 116 335 135 304 Q 153 272 135 240 Q 116 209 80 208 Q 44 209 25 240 Q 7 272 25 304 Q 44 335 80 336 L 80 336 Z" />
</svg>