<svg xmlns="http://www.w3.org/2000/svg" viewBox="0 0 581 512">
  <path d="M 168 120 L 152 152 L 168 120 L 152 152 L 166 180 L 166 180 L 178 177 L 178 177 L 182 176 L 182 176 L 170 152 L 170 152 L 182 127 L 182 127 L 184 124 L 184 124 L 184 120 L 184 120 L 183 92 L 183 92 L 205 75 L 205 75 L 208 73 L 208 73 L 209 69 L 209 69 L 221 44 L 221 44 L 247 38 L 247 38 L 251 38 L 251 38 L 254 35 L 254 35 L 274 18 L 274 18 L 300 24 L 300 24 L 304 25 L 304 25 L 308 24 L 308 24 L 334 18 L 334 18 L 354 35 L 354 35 L 357 38 L 357 38 L 361 38 L 361 38 L 388 44 L 388 44 L 399 69 L 399 69 L 400 73 L 400 73 L 403 75 L 403 75 L 425 92 L 425 92 L 424 120 L 424 120 L 424 124 L 424 124 L 426 127 L 426 127 L 438 152 L 438 152 L 426 177 L 426 177 L 424 180 L 424 180 L 424 182 L 424 182 L 432 184 L 432 184 L 442 181 L 442 181 L 456 152 L 456 152 L 440 120 L 440 120 L 441 84 L 441 84 L 413 63 L 413 63 L 399 30 L 399 30 L 365 23 L 365 23 L 338 0 L 338 0 L 304 9 L 304 9 L 270 0 L 270 0 L 243 23 L 243 23 L 209 30 L 209 30 L 195 63 L 195 63 L 167 84 L 167 84 L 168 120 L 168 120 Z M 270 271 L 270 271 L 270 271 L 270 271 L 255 238 L 255 238 L 219 231 L 219 231 L 192 208 L 192 208 L 157 217 L 157 217 L 122 208 L 122 208 L 94 231 L 94 231 L 59 238 L 59 238 L 44 271 L 44 271 L 16 292 L 16 292 L 16 328 L 16 328 L 0 360 L 0 360 L 16 392 L 16 392 L 16 428 L 16 428 L 44 449 L 44 449 L 59 482 L 59 482 L 94 489 L 94 489 L 122 512 L 122 512 L 157 503 L 157 503 L 192 512 L 192 512 L 219 489 L 219 489 L 255 482 L 255 482 L 270 449 L 270 449 L 270 449 L 270 449 L 263 443 L 263 443 L 263 434 L 263 434 L 260 437 L 260 437 L 257 439 L 257 439 L 255 443 L 255 443 L 243 468 L 243 468 L 216 474 L 216 474 L 212 474 L 212 474 L 209 477 L 209 477 L 188 495 L 188 495 L 161 488 L 161 488 L 157 487 L 157 487 L 153 488 L 153 488 L 126 495 L 126 495 L 104 477 L 104 477 L 101 474 L 101 474 L 98 474 L 98 474 L 70 468 L 70 468 L 59 443 L 59 443 L 57 439 L 57 439 L 54 437 L 54 437 L 32 420 L 32 420 L 32 392 L 32 392 L 32 388 L 32 388 L 31 385 L 31 385 L 18 360 L 18 360 L 30 335 L 30 335 L 32 332 L 32 332 L 32 328 L 32 328 L 32 300 L 32 300 L 54 283 L 54 283 L 57 281 L 57 281 L 59 277 L 59 277 L 70 252 L 70 252 L 97 246 L 97 246 L 101 246 L 101 246 L 104 243 L 104 243 L 126 225 L 126 225 L 153 232 L 153 232 L 157 233 L 157 233 L 161 232 L 161 232 L 188 225 L 188 225 L 209 243 L 209 243 L 212 246 L 212 246 L 216 246 L 216 246 L 243 252 L 243 252 L 255 277 L 255 277 L 257 281 L 257 281 L 260 283 L 260 283 L 263 286 L 263 286 L 263 277 L 263 277 L 270 271 L 270 271 Z M 296 328 L 280 360 L 296 328 L 280 360 L 296 392 L 296 392 L 295 428 L 295 428 L 323 449 L 323 449 L 337 482 L 337 482 L 371 489 L 371 489 L 398 512 L 398 512 L 432 503 L 432 503 L 466 512 L 466 512 L 493 489 L 493 489 L 527 482 L 527 482 L 541 449 L 541 449 L 569 428 L 569 428 L 568 392 L 568 392 L 569 367 L 569 367 Q 581 347 573 321 Q 565 291 538 263 Q 509 235 479 227 Q 459 221 441 227 L 398 208 L 398 208 L 371 231 L 371 231 L 337 238 L 337 238 L 323 271 L 323 271 L 295 292 L 295 292 L 296 328 L 296 328 Z M 426 238 Q 411 259 419 287 Q 427 317 455 345 Q 483 373 513 381 Q 534 387 553 380 L 552 392 L 552 392 L 552 392 L 552 392 L 552 392 L 552 392 L 553 420 L 553 420 L 531 437 L 531 437 L 528 439 L 528 439 L 527 443 L 527 443 L 516 468 L 516 468 L 489 474 L 489 474 L 485 474 L 485 474 L 482 477 L 482 477 L 462 494 L 462 494 L 436 488 L 436 488 L 432 487 L 432 487 L 428 488 L 428 488 L 402 494 L 402 494 L 382 477 L 382 477 L 379 474 L 379 474 L 375 474 L 375 474 L 349 468 L 349 468 L 337 443 L 337 443 L 336 439 L 336 439 L 333 437 L 333 437 L 311 420 L 311 420 L 312 392 L 312 392 L 312 388 L 312 388 L 310 385 L 310 385 L 298 360 L 298 360 L 310 335 L 310 335 L 312 332 L 312 332 L 312 328 L 312 328 L 311 300 L 311 300 L 333 283 L 333 283 L 336 281 L 336 281 L 337 277 L 337 277 L 349 252 L 349 252 L 375 246 L 375 246 L 379 246 L 379 246 L 382 243 L 382 243 L 401 227 L 401 227 L 426 238 L 426 238 Z M 240 160 Q 255 159 256 144 Q 255 129 240 128 Q 225 129 224 144 Q 225 159 240 160 L 240 160 Z M 80 384 Q 95 383 96 368 Q 95 353 80 352 Q 65 353 64 368 Q 65 383 80 384 L 80 384 Z M 112 448 Q 127 447 128 432 Q 127 417 112 416 Q 97 417 96 432 Q 97 447 112 448 L 112 448 Z M 160 368 Q 159 353 144 352 Q 129 353 128 368 Q 129 383 144 384 Q 159 383 160 368 L 160 368 Z M 384 368 Q 383 353 368 352 Q 353 353 352 368 Q 353 383 368 384 Q 383 383 384 368 L 384 368 Z M 400 448 Q 415 447 416 432 Q 415 417 400 416 Q 385 417 384 432 Q 385 447 400 448 L 400 448 Z M 439 247 Q 450 236 475 242 Q 500 249 526 274 Q 551 300 558 325 Q 564 350 553 361 Q 542 372 517 366 Q 492 359 466 334 Q 441 308 434 283 Q 428 258 439 247 L 439 247 Z" />
</svg>