<svg xmlns="http://www.w3.org/2000/svg" viewBox="0 0 488 416">
  <path d="M 16 16 L 16 80 L 16 16 L 16 80 L 80 80 L 80 80 L 80 16 L 80 16 L 16 16 L 16 16 Z M 0 0 L 16 0 L 0 0 L 96 0 L 96 16 L 96 16 L 96 80 L 96 80 L 96 96 L 96 96 L 80 96 L 0 96 L 0 80 L 0 80 L 0 16 L 0 16 L 0 0 L 0 0 Z M 160 40 L 480 40 L 160 40 L 488 40 L 488 56 L 488 56 L 480 56 L 152 56 L 152 40 L 152 40 L 160 40 L 160 40 Z M 160 200 L 480 200 L 160 200 L 488 200 L 488 216 L 488 216 L 480 216 L 152 216 L 152 200 L 152 200 L 160 200 L 160 200 Z M 160 360 L 480 360 L 160 360 L 488 360 L 488 376 L 488 376 L 480 376 L 152 376 L 152 360 L 152 360 L 160 360 L 160 360 Z M 80 176 L 16 176 L 80 176 L 16 176 L 16 240 L 16 240 L 80 240 L 80 240 L 80 176 L 80 176 Z M 16 160 L 80 160 L 16 160 L 96 160 L 96 176 L 96 176 L 96 240 L 96 240 L 96 256 L 96 256 L 80 256 L 0 256 L 0 240 L 0 240 L 0 176 L 0 176 L 0 160 L 0 160 L 16 160 L 16 160 Z M 16 336 L 16 400 L 16 336 L 16 400 L 80 400 L 80 400 L 80 336 L 80 336 L 16 336 L 16 336 Z M 0 320 L 16 320 L 0 320 L 96 320 L 96 336 L 96 336 L 96 400 L 96 400 L 96 416 L 96 416 L 80 416 L 0 416 L 0 400 L 0 400 L 0 336 L 0 336 L 0 320 L 0 320 Z" />
</svg>