<svg xmlns="http://www.w3.org/2000/svg" viewBox="0 0 640 384">
  <path d="M 0 0 L 0 48 L 0 0 L 0 48 L 0 336 L 0 336 L 0 384 L 0 384 L 48 384 L 640 384 L 640 336 L 640 336 L 640 288 L 640 288 L 640 240 L 640 240 L 616 240 L 616 240 Q 596 239 582 226 Q 569 212 568 192 Q 569 172 582 158 Q 596 145 616 144 L 640 144 L 640 144 L 640 96 L 640 96 L 640 48 L 640 48 L 640 0 L 640 0 L 592 0 L 0 0 Z M 592 336 L 48 336 L 592 336 L 48 336 L 48 48 L 48 48 L 592 48 L 592 48 L 592 99 L 592 99 Q 560 108 540 133 Q 521 158 520 192 Q 521 226 540 251 Q 560 276 592 285 L 592 336 L 592 336 Z M 448 96 Q 447 81 432 80 Q 417 81 416 96 Q 417 111 432 112 Q 447 111 448 96 L 448 96 Z M 448 160 Q 447 145 432 144 Q 417 145 416 160 Q 417 175 432 176 Q 447 175 448 160 L 448 160 Z M 432 240 Q 447 239 448 224 Q 447 209 432 208 Q 417 209 416 224 Q 417 239 432 240 L 432 240 Z M 448 288 Q 447 273 432 272 Q 417 273 416 288 Q 417 303 432 304 Q 447 303 448 288 L 448 288 Z" />
</svg>