<svg xmlns="http://www.w3.org/2000/svg" viewBox="0 0 640 512">
  <path d="M 224 16 Q 136 18 77 77 L 77 77 L 77 77 Q 18 136 16 224 Q 18 310 78 372 L 80 374 L 80 374 L 80 377 L 80 377 L 80 504 L 80 504 L 80 512 L 80 512 L 64 512 L 64 512 L 64 504 L 64 504 L 64 381 L 64 381 Q 2 315 0 224 Q 1 161 31 111 Q 60 60 111 31 Q 161 1 224 0 L 248 0 L 248 0 Q 327 2 381 54 Q 434 107 440 185 L 509 247 L 509 247 L 512 249 L 512 249 L 512 253 L 512 253 L 512 328 L 512 328 L 512 336 L 512 336 L 504 336 L 448 336 Q 448 336 448 336 Q 448 336 448 336 L 448 368 L 448 368 L 448 376 L 448 376 L 441 376 L 441 376 L 336 383 L 336 383 L 336 409 L 336 409 L 425 416 L 425 416 L 432 417 L 432 417 L 432 424 L 432 424 L 432 472 L 432 472 L 432 480 L 432 480 L 424 480 L 320 480 L 320 504 L 320 504 L 320 512 L 320 512 L 304 512 L 304 512 L 304 504 L 304 504 L 304 472 L 304 472 L 304 464 L 304 464 L 312 464 L 416 464 L 416 431 L 416 431 L 327 424 L 327 424 L 320 423 L 320 423 L 320 416 L 320 416 L 320 376 L 320 376 L 320 369 L 320 369 L 327 368 L 327 368 L 432 361 L 432 361 L 432 336 L 432 336 L 432 328 L 432 328 Q 432 328 432 328 Q 432 328 432 328 L 432 320 L 432 320 L 440 320 L 496 320 L 496 256 L 496 256 L 427 194 L 427 194 L 424 192 L 424 192 L 424 189 L 424 189 Q 420 116 371 67 Q 321 18 248 16 L 224 16 L 224 16 Z M 320 208 Q 321 193 336 192 Q 351 193 352 208 Q 351 223 336 224 Q 321 223 320 208 L 320 208 Z M 608 304 Q 609 289 624 288 Q 639 289 640 304 Q 639 319 624 320 Q 609 319 608 304 L 608 304 Z M 560 336 Q 575 337 576 352 Q 575 367 560 368 Q 545 367 544 352 Q 545 337 560 336 L 560 336 Z M 496 384 Q 511 385 512 400 Q 511 415 496 416 Q 481 415 480 400 Q 481 385 496 384 L 496 384 Z M 624 384 Q 639 385 640 400 Q 639 415 624 416 Q 609 415 608 400 Q 609 385 624 384 L 624 384 Z M 608 496 Q 609 481 624 480 Q 639 481 640 496 Q 639 511 624 512 Q 609 511 608 496 L 608 496 Z M 560 432 Q 575 433 576 448 Q 575 463 560 464 Q 545 463 544 448 Q 545 433 560 432 L 560 432 Z" />
</svg>