<svg xmlns="http://www.w3.org/2000/svg" viewBox="0 0 570 506">
  <path d="M 285 0 L 290 4 L 285 0 L 290 4 L 381 82 L 381 82 L 381 34 L 381 34 L 381 26 L 381 26 L 389 26 L 509 26 L 509 34 L 509 34 L 509 192 L 509 192 L 570 244 L 570 244 L 560 256 L 560 256 L 509 213 L 509 213 L 509 498 L 509 498 L 509 506 L 509 506 L 501 506 L 61 506 L 61 498 L 61 498 L 61 213 L 61 213 L 10 256 L 10 256 L 0 244 L 0 244 L 280 4 L 280 4 L 285 0 L 285 0 Z M 493 178 L 493 42 L 493 178 L 493 42 L 397 42 L 397 42 L 397 96 L 397 96 L 493 178 L 493 178 Z M 285 21 L 77 199 L 285 21 L 77 199 L 77 490 L 77 490 L 493 490 L 493 490 L 493 199 L 493 199 L 285 21 L 285 21 Z M 333 218 Q 332 191 309 176 Q 285 164 261 176 Q 238 191 237 218 Q 238 245 261 260 Q 285 272 309 260 Q 332 245 333 218 L 333 218 Z M 221 218 Q 222 182 253 163 Q 285 145 317 163 Q 348 182 349 218 Q 348 254 317 273 Q 285 291 253 273 Q 222 254 221 218 L 221 218 Z M 217 330 L 195 394 L 217 330 L 195 394 L 375 394 L 375 394 L 354 330 L 354 330 L 217 330 L 217 330 Z M 365 314 L 392 394 L 365 314 L 392 394 L 397 410 L 397 410 L 380 410 L 173 410 L 178 394 L 178 394 L 205 314 L 205 314 L 365 314 L 365 314 Z" />
</svg>