<svg xmlns="http://www.w3.org/2000/svg" viewBox="0 0 512 512">
  <path d="M 355 40 Q 380 16 414 16 Q 449 17 472 40 Q 495 63 496 99 Q 496 133 472 157 L 229 400 L 229 400 L 112 400 L 112 400 L 112 283 L 112 283 L 160 235 L 160 235 L 210 286 L 210 286 L 216 291 L 216 291 L 227 280 L 227 280 L 222 274 L 222 274 L 171 224 L 171 224 L 224 171 L 224 171 L 274 222 L 274 222 L 280 227 L 280 227 L 291 216 L 291 216 L 286 210 L 286 210 L 235 160 L 235 160 L 288 107 L 288 107 L 338 158 L 338 158 L 344 163 L 344 163 L 355 152 L 355 152 L 350 146 L 350 146 L 299 96 L 299 96 L 355 40 L 355 40 Z M 96 280 L 96 405 L 96 280 L 96 405 L 6 495 L 6 495 L 0 501 L 0 501 L 12 512 L 12 512 L 17 506 L 17 506 L 107 416 L 107 416 L 232 416 L 235 416 L 238 414 L 238 414 L 483 168 L 483 168 Q 511 139 512 99 Q 511 57 483 29 Q 455 1 414 0 Q 373 1 344 29 L 288 85 L 288 85 L 277 96 L 277 96 L 224 149 L 224 149 L 213 160 L 213 160 L 160 213 L 160 213 L 149 224 L 149 224 L 98 274 L 98 274 L 96 277 L 96 277 L 96 280 L 96 280 Z" />
</svg>