<svg xmlns="http://www.w3.org/2000/svg" viewBox="0 0 384 512">
  <path d="M 16 16 L 208 16 L 16 16 L 208 16 L 208 168 L 208 168 L 208 176 L 208 176 L 216 176 L 368 176 L 368 496 L 368 496 L 16 496 L 16 496 L 16 16 L 16 16 Z M 224 23 L 361 160 L 224 23 L 361 160 L 224 160 L 224 160 L 224 23 L 224 23 Z M 224 0 L 16 0 L 224 0 L 0 0 L 0 16 L 0 16 L 0 496 L 0 496 L 0 512 L 0 512 L 16 512 L 384 512 L 384 496 L 384 496 L 384 160 L 384 160 L 224 0 L 224 0 Z M 80 384 L 120 384 L 80 384 L 120 384 L 120 432 L 120 432 L 80 432 L 80 432 L 80 384 L 80 384 Z M 80 368 L 80 320 L 80 368 L 80 320 L 120 320 L 120 320 L 120 368 L 120 368 L 80 368 L 80 368 Z M 136 432 L 136 384 L 136 432 L 136 384 L 184 384 L 184 384 L 184 432 L 184 432 L 136 432 L 136 432 Z M 136 368 L 136 320 L 136 368 L 136 320 L 184 320 L 184 320 L 184 368 L 184 368 L 136 368 L 136 368 Z M 200 432 L 200 384 L 200 432 L 200 384 L 248 384 L 248 384 L 248 432 L 248 432 L 200 432 L 200 432 Z M 200 320 L 248 320 L 200 320 L 248 320 L 248 368 L 248 368 L 200 368 L 200 368 L 200 320 L 200 320 Z M 264 432 L 264 384 L 264 432 L 264 384 L 304 384 L 304 384 L 304 432 L 304 432 L 264 432 L 264 432 Z M 264 368 L 264 320 L 264 368 L 264 320 L 304 320 L 304 320 L 304 368 L 304 368 L 264 368 L 264 368 Z M 320 376 L 320 368 L 320 376 L 320 368 L 320 320 L 320 320 L 320 312 L 320 312 L 320 304 L 320 304 L 320 240 L 320 240 L 320 224 L 320 224 L 304 224 L 64 224 L 64 240 L 64 240 L 64 304 L 64 304 L 64 312 L 64 312 L 64 320 L 64 320 L 64 368 L 64 368 L 64 376 L 64 376 L 64 384 L 64 384 L 64 432 L 64 432 L 64 448 L 64 448 L 80 448 L 320 448 L 320 432 L 320 432 L 320 384 L 320 384 L 320 376 L 320 376 Z M 256 304 L 192 304 L 256 304 L 80 304 L 80 240 L 80 240 L 192 240 L 304 240 L 304 304 L 304 304 L 256 304 L 256 304 Z" />
</svg>