<svg xmlns="http://www.w3.org/2000/svg" viewBox="0 0 639 512">
  <path d="M 207 11 L 214 7 L 207 11 L 214 7 L 210 0 L 210 0 L 202 5 L 202 5 L 143 46 L 143 46 L 84 5 L 84 5 L 77 0 L 77 0 L 72 7 L 72 7 L 79 11 L 79 11 L 72 7 L 72 7 Q 72 7 72 7 Q 72 7 72 7 Q 72 7 72 7 Q 72 7 72 7 L 72 8 L 72 8 L 72 8 L 72 8 Q 71 9 71 10 Q 70 11 70 12 Q 67 16 64 23 Q 61 30 58 37 Q 55 44 55 51 Q 57 76 73 89 L 4 179 L 4 179 L 0 185 L 0 185 L 5 190 L 5 190 L 81 270 L 81 270 L 87 275 L 87 275 L 92 270 L 92 270 L 139 230 L 139 230 L 175 329 L 175 329 L 175 504 L 175 504 L 175 512 L 175 512 L 183 512 L 287 512 L 287 504 L 287 504 L 287 400 L 287 400 L 463 400 L 463 400 L 463 504 L 463 504 L 463 512 L 463 512 L 471 512 L 575 512 L 575 504 L 575 504 L 575 328 L 575 328 L 575 171 L 575 171 L 621 268 L 621 268 L 624 275 L 624 275 L 639 268 L 639 268 L 635 261 L 635 261 L 582 149 L 582 149 L 580 144 L 580 144 L 575 144 L 269 144 Q 258 144 251 137 L 209 94 L 209 94 Q 228 79 231 51 Q 231 44 228 37 Q 226 30 222 23 Q 219 16 217 12 Q 217 12 217 12 Q 216 11 216 10 Q 215 9 215 8 L 214 8 L 214 8 L 214 7 L 214 7 Q 214 7 214 7 Q 214 7 214 7 Q 214 7 214 7 Q 214 7 214 7 Q 214 7 214 7 Q 214 7 214 7 Q 214 7 214 7 Q 214 7 214 7 L 207 11 L 207 11 Z M 455 160 Q 455 160 455 160 L 455 160 L 455 160 Q 455 160 455 160 L 559 160 L 559 160 L 559 320 L 559 320 L 189 320 L 189 320 L 151 213 L 151 213 L 147 202 L 147 202 L 138 210 L 138 210 L 88 253 L 88 253 L 21 183 L 21 183 L 90 93 L 90 93 L 94 88 L 94 88 L 89 83 L 89 83 Q 72 69 71 51 Q 71 48 73 42 Q 75 36 78 30 Q 80 26 82 23 L 139 63 L 139 63 L 143 66 L 143 66 L 148 62 L 148 62 L 204 23 L 204 23 Q 206 26 208 30 Q 211 36 213 42 Q 215 48 215 51 Q 213 72 193 87 L 186 93 L 186 93 L 192 99 L 192 99 L 240 148 L 240 148 Q 252 160 269 160 L 455 160 L 455 160 Z M 559 336 L 559 496 L 559 336 L 559 496 L 479 496 L 479 496 L 479 392 L 479 392 L 479 384 L 479 384 L 471 384 L 271 384 L 271 392 L 271 392 L 271 496 L 271 496 L 191 496 L 191 496 L 191 336 L 191 336 L 559 336 L 559 336 Z M 263 208 L 263 200 L 263 208 L 263 200 L 247 200 L 247 200 L 247 208 L 247 208 L 247 232 L 247 232 L 223 232 L 215 232 L 215 248 L 215 248 L 223 248 L 247 248 L 247 272 L 247 272 L 247 280 L 247 280 L 263 280 L 263 280 L 263 272 L 263 272 L 263 248 L 263 248 L 287 248 L 295 248 L 295 232 L 295 232 L 287 232 L 263 232 L 263 208 L 263 208 Z M 375 200 L 359 200 L 375 200 L 359 200 L 359 208 L 359 208 L 359 232 L 359 232 L 335 232 L 327 232 L 327 248 L 327 248 L 335 248 L 359 248 L 359 272 L 359 272 L 359 280 L 359 280 L 375 280 L 375 280 L 375 272 L 375 272 L 375 248 L 375 248 L 399 248 L 407 248 L 407 232 L 407 232 L 399 232 L 375 232 L 375 208 L 375 208 L 375 200 L 375 200 Z M 487 208 L 487 200 L 487 208 L 487 200 L 471 200 L 471 200 L 471 208 L 471 208 L 471 232 L 471 232 L 447 232 L 439 232 L 439 248 L 439 248 L 447 248 L 471 248 L 471 272 L 471 272 L 471 280 L 471 280 L 487 280 L 487 280 L 487 272 L 487 272 L 487 248 L 487 248 L 511 248 L 519 248 L 519 232 L 519 232 L 511 232 L 487 232 L 487 208 L 487 208 Z" />
</svg>