<svg xmlns="http://www.w3.org/2000/svg" viewBox="0 0 512 512">
  <path d="M 484 28 Q 471 16 454 16 L 454 16 L 454 16 Q 438 16 426 28 Q 423 30 418 43 Q 414 56 410 72 Q 406 92 403 109 Q 420 107 440 103 Q 457 99 469 94 Q 482 89 485 87 Q 485 87 485 87 Q 485 87 485 87 Q 496 74 496 58 Q 496 41 484 28 L 484 28 Z M 496 98 Q 484 108 455 115 L 455 115 L 455 115 Q 426 122 401 126 Q 395 126 391 127 Q 387 128 384 128 Q 385 121 386 112 Q 390 86 397 57 Q 404 29 415 16 Q 432 0 455 0 Q 477 0 495 17 Q 512 35 512 58 Q 512 80 496 98 L 496 98 Z M 496 256 Q 495 195 469 145 Q 477 142 484 140 Q 511 193 512 256 Q 511 328 477 385 Q 443 443 385 477 Q 328 511 256 512 Q 192 511 140 484 Q 142 476 144 469 Q 195 495 256 496 Q 323 495 377 463 Q 431 431 463 377 Q 495 323 496 256 L 496 256 Z M 256 0 Q 320 1 373 28 Q 370 36 368 44 Q 317 17 256 16 Q 189 17 135 49 Q 81 81 49 135 Q 17 189 16 256 Q 17 317 43 367 Q 35 370 28 372 Q 1 319 0 256 Q 1 184 35 127 Q 69 69 127 35 Q 184 1 256 0 L 256 0 Z M 321 321 Q 269 372 212 403 Q 253 418 295 409 Q 337 401 369 369 Q 401 336 410 294 Q 418 252 403 212 Q 373 269 321 321 L 321 321 Z M 310 309 Q 365 254 395 193 Q 399 184 403 176 Q 408 184 412 193 Q 434 240 427 291 Q 419 341 381 380 Q 342 418 291 426 Q 241 434 193 412 Q 184 408 176 402 Q 185 399 194 394 Q 254 364 310 309 L 310 309 Z M 99 274 L 106 271 L 99 274 L 106 271 L 191 243 L 191 243 L 207 238 L 207 238 L 201 253 L 201 253 L 173 338 L 173 338 L 171 345 L 171 345 L 155 340 L 155 340 L 158 333 L 158 333 L 181 263 L 181 263 L 111 286 L 111 286 L 104 289 L 104 289 L 99 274 L 99 274 Z M 271 106 L 274 99 L 271 106 L 274 99 L 289 104 L 289 104 L 286 112 L 286 112 L 263 181 L 263 181 L 333 158 L 333 158 L 340 155 L 340 155 L 345 171 L 345 171 L 338 173 L 338 173 L 253 201 L 253 201 L 238 207 L 238 207 L 243 191 L 243 191 L 271 106 L 271 106 Z M 28 425 Q 16 438 16 454 L 16 454 L 16 454 Q 16 471 28 484 Q 41 496 58 496 Q 74 496 86 485 Q 89 482 94 469 Q 98 457 102 440 Q 106 420 109 403 Q 92 406 72 410 Q 55 413 43 418 Q 30 423 27 425 Q 27 425 27 425 L 28 425 Z M 112 386 Q 117 386 121 385 L 121 385 L 121 385 Q 125 384 128 384 Q 127 391 126 400 Q 122 426 115 454 Q 108 483 98 496 Q 80 512 57 512 Q 35 512 17 495 Q 0 477 0 454 Q 0 431 16 414 Q 28 403 57 397 Q 86 390 112 386 L 112 386 Z" />
</svg>