<svg xmlns="http://www.w3.org/2000/svg" viewBox="0 0 640 512">
  <path d="M 224 16 Q 254 16 280 31 L 280 31 L 280 31 Q 306 46 321 72 Q 336 98 336 128 Q 336 158 321 184 Q 306 210 280 225 Q 254 240 224 240 Q 194 240 168 225 Q 142 210 127 184 Q 112 158 112 128 Q 112 98 127 72 Q 142 46 168 31 Q 194 16 224 16 L 224 16 Z M 76 320 L 320 320 L 76 320 L 320 320 L 320 304 L 320 304 L 64 304 L 64 304 L 5 496 L 5 496 L 0 512 L 0 512 L 17 512 L 448 512 L 443 496 L 443 496 L 440 485 L 440 485 L 415 461 L 415 461 L 426 496 L 426 496 L 22 496 L 22 496 L 76 320 L 76 320 Z M 352 128 Q 352 93 335 64 L 335 64 L 335 64 Q 318 35 288 17 Q 258 0 224 0 Q 190 0 160 17 Q 130 35 113 64 Q 96 93 96 128 Q 96 163 113 192 Q 130 221 160 239 Q 190 256 224 256 Q 258 256 288 239 Q 318 221 335 192 Q 352 163 352 128 L 352 128 Z M 629 373 L 480 224 L 629 373 L 480 224 L 384 224 L 384 224 L 352 256 L 352 256 L 352 352 L 352 352 L 501 501 L 501 501 L 512 512 L 512 512 L 523 501 L 523 501 L 629 395 L 629 395 L 640 384 L 640 384 L 629 373 L 629 373 Z M 473 240 L 617 384 L 473 240 L 617 384 L 512 489 L 512 489 L 368 345 L 368 345 L 368 263 L 368 263 L 391 240 L 391 240 L 473 240 L 473 240 Z M 440 296 Q 439 281 424 280 Q 409 281 408 296 Q 409 311 424 312 Q 439 311 440 296 L 440 296 Z" />
</svg>