<svg xmlns="http://www.w3.org/2000/svg" viewBox="0 0 501 510">
  <path d="M 269 47 L 222 0 L 269 47 L 222 0 Q 202 13 175 38 Q 149 64 128 99 Q 108 135 107 176 Q 108 236 148 276 Q 187 316 246 320 Q 246 320 246 320 Q 249 320 252 320 Q 258 320 264 319 Q 321 313 357 273 Q 394 234 395 176 Q 396 156 378 116 Q 359 75 309 29 L 291 47 L 291 47 L 280 59 L 280 59 L 269 47 L 269 47 Z M 123 176 Q 126 121 163 76 Q 193 40 220 21 L 268 70 L 268 70 L 280 81 L 280 81 L 291 70 L 291 70 L 309 51 L 309 51 Q 351 92 365 127 Q 380 161 379 176 Q 377 240 329 277 Q 340 260 340 239 Q 338 206 317 179 Q 296 151 275 134 Q 254 117 253 117 Q 251 117 230 134 Q 209 151 188 179 Q 167 206 165 239 Q 166 262 178 281 Q 153 263 138 236 Q 123 209 123 176 L 123 176 Z M 251 304 Q 249 304 247 304 Q 218 301 200 283 Q 182 264 181 239 Q 182 220 193 200 Q 204 181 220 165 Q 236 149 249 139 Q 251 138 252 136 Q 254 138 256 139 Q 268 148 285 165 Q 301 181 312 200 Q 323 219 324 239 Q 323 263 306 281 Q 290 299 263 304 Q 257 304 251 304 L 251 304 Z M 14 293 L 7 290 L 14 293 L 7 290 L 1 305 L 1 305 L 8 308 L 8 308 L 230 400 L 230 400 L 8 492 L 8 492 L 0 495 L 0 495 L 7 510 L 7 510 L 14 507 L 14 507 L 251 409 L 251 409 L 488 507 L 488 507 L 495 510 L 495 510 L 501 495 L 501 495 L 494 492 L 494 492 L 272 400 L 272 400 L 494 308 L 494 308 L 501 305 L 501 305 L 495 290 L 495 290 L 488 293 L 488 293 L 251 391 L 251 391 L 14 293 L 14 293 Z" />
</svg>