<svg xmlns="http://www.w3.org/2000/svg" viewBox="0 0 576 512">
  <path d="M 560 197 L 288 288 L 560 197 L 288 288 L 16 197 L 16 197 L 16 128 L 16 128 L 16 125 L 16 125 L 288 216 L 288 216 L 560 125 L 560 125 L 560 128 L 560 128 L 560 197 L 560 197 Z M 560 214 L 560 253 L 560 214 L 560 253 L 512 269 L 512 269 L 512 286 L 512 286 L 560 270 L 560 270 L 560 405 L 560 405 L 288 495 L 288 495 L 16 405 L 16 405 L 16 270 L 16 270 L 64 286 L 64 286 L 64 269 L 64 269 L 16 253 L 16 253 L 16 214 L 16 214 L 286 304 L 286 304 L 288 304 L 291 304 L 560 214 L 560 214 Z M 560 108 L 560 108 L 560 108 L 560 108 L 288 199 L 288 199 L 16 109 L 16 109 L 16 108 L 16 108 L 288 17 L 288 17 L 560 108 L 560 108 Z M 576 128 L 576 120 L 576 128 L 576 120 L 576 96 L 576 96 L 288 0 L 288 0 L 0 96 L 0 96 L 0 120 L 0 120 L 0 128 L 0 128 L 0 416 L 0 416 L 288 512 L 288 512 L 576 416 L 576 416 L 576 128 L 576 128 Z M 96 280 L 96 297 L 96 280 L 96 297 L 192 329 L 192 329 L 192 312 L 192 312 L 96 280 L 96 280 Z M 286 360 L 288 360 L 286 360 L 291 360 L 352 339 L 352 339 L 352 322 L 352 322 L 288 344 L 288 344 L 224 322 L 224 322 L 224 339 L 224 339 L 286 360 L 286 360 Z M 384 328 L 480 296 L 384 328 L 480 296 L 480 280 L 480 280 L 384 312 L 384 312 L 384 328 L 384 328 Z" />
</svg>