<svg xmlns="http://www.w3.org/2000/svg" viewBox="0 0 640 512">
  <path d="M 528 512 L 508 496 L 528 512 L 508 496 L 240 496 L 240 496 L 240 416 L 240 416 L 224 416 L 224 416 L 224 504 L 224 504 L 224 512 L 224 512 L 232 512 L 528 512 Z M 560 292 L 560 354 L 560 292 L 560 354 L 576 366 L 576 366 L 576 192 L 576 192 Q 575 112 545 58 Q 530 32 509 16 Q 489 0 464 0 L 176 0 L 176 0 Q 152 0 132 16 L 145 26 L 145 26 Q 160 16 176 16 L 419 16 L 419 16 Q 398 32 383 58 Q 353 111 352 190 L 368 203 L 368 203 Q 368 197 368 192 Q 369 116 397 66 Q 426 17 464 16 Q 502 17 531 66 Q 559 116 560 192 Q 559 268 531 318 Q 528 323 526 327 L 538 336 L 538 336 Q 541 331 545 326 Q 553 310 560 291 L 560 292 Z M 64 192 Q 65 272 96 326 Q 110 352 131 368 Q 151 384 176 384 L 366 384 L 366 384 L 346 368 L 346 368 L 176 368 L 176 368 Q 138 367 109 318 Q 81 268 80 192 Q 80 175 82 160 L 67 148 L 67 148 Q 64 169 64 192 L 64 192 Z M 485 255 Q 492 248 496 238 Q 504 218 504 192 Q 504 166 496 146 Q 492 136 485 129 Q 477 121 464 120 Q 451 121 443 129 Q 436 136 432 146 Q 424 166 424 192 Q 424 218 432 238 Q 436 248 443 255 Q 451 263 464 264 Q 477 263 485 255 L 485 255 Z M 464 248 Q 454 247 447 232 L 447 232 L 447 232 Q 440 216 440 192 Q 440 168 447 152 Q 454 137 464 136 Q 474 137 481 152 Q 488 168 488 192 Q 488 216 481 232 Q 474 247 464 248 L 464 248 Z M 16 5 L 10 0 L 16 5 L 10 0 L 0 13 L 0 13 L 6 18 L 6 18 L 624 507 L 624 507 L 630 512 L 630 512 L 640 500 L 640 500 L 634 495 L 634 495 L 16 5 L 16 5 Z" />
</svg>