<svg xmlns="http://www.w3.org/2000/svg" viewBox="0 0 480 448">
  <path d="M 402 155 Q 381 107 338 78 L 338 78 L 338 78 Q 295 49 240 48 Q 178 49 134 92 L 82 144 L 82 144 L 136 144 L 160 144 L 160 192 L 160 192 L 136 192 L 0 192 L 0 168 L 0 168 L 0 56 L 0 56 L 0 32 L 0 32 L 48 32 L 48 32 L 48 56 L 48 56 L 48 110 L 48 110 L 100 58 L 100 58 Q 158 1 240 0 Q 310 1 365 38 Q 420 75 446 136 L 402 155 L 402 155 Z M 432 338 L 380 390 L 432 338 L 380 390 Q 321 447 240 448 Q 170 447 115 410 Q 61 373 34 312 L 78 293 L 78 293 Q 99 341 142 370 Q 185 399 240 400 Q 302 399 346 356 L 398 304 L 398 304 L 344 304 L 320 304 L 320 256 L 320 256 L 344 256 L 480 256 L 480 280 L 480 280 L 480 392 L 480 392 L 480 416 L 480 416 L 432 416 L 432 416 L 432 392 L 432 392 L 432 338 L 432 338 Z" />
</svg>