<svg xmlns="http://www.w3.org/2000/svg" viewBox="0 0 576 512">
  <path d="M 16 496 L 311 496 L 16 496 L 311 496 Q 320 505 331 512 L 16 512 L 0 512 L 0 496 L 0 496 L 0 16 L 0 16 L 0 0 L 0 0 L 16 0 L 224 0 L 384 160 L 384 160 L 384 199 L 384 199 Q 376 201 368 204 L 368 176 L 368 176 L 216 176 L 208 176 L 208 168 L 208 168 L 208 16 L 208 16 L 16 16 L 16 16 L 16 496 L 16 496 Z M 361 160 L 224 23 L 361 160 L 224 23 L 224 160 L 224 160 L 361 160 L 361 160 Z M 560 368 Q 560 333 543 304 L 543 304 L 543 304 Q 526 275 496 257 Q 466 240 432 240 Q 398 240 368 257 Q 338 275 321 304 Q 304 333 304 368 Q 304 403 321 432 Q 338 461 368 479 Q 398 496 432 496 Q 466 496 496 479 Q 526 461 543 432 Q 560 403 560 368 L 560 368 Z M 288 368 Q 288 329 307 296 L 307 296 L 307 296 Q 326 263 360 243 Q 394 224 432 224 Q 470 224 504 243 Q 538 263 557 296 Q 576 329 576 368 Q 576 407 557 440 Q 538 473 504 493 Q 470 512 432 512 Q 394 512 360 493 Q 326 473 307 440 Q 288 407 288 368 L 288 368 Z M 406 288 L 454 288 L 406 288 L 454 288 Q 472 288 484 300 Q 496 312 496 330 Q 495 356 471 368 L 440 382 L 440 382 L 440 392 L 440 392 L 440 400 L 440 400 L 424 400 L 424 400 L 424 392 L 424 392 L 424 377 L 424 377 L 424 372 L 424 372 L 429 370 L 429 370 L 465 354 L 465 354 Q 479 346 480 330 Q 478 306 454 304 L 406 304 L 406 304 Q 386 306 384 326 L 384 328 L 384 328 L 384 336 L 384 336 L 368 336 L 368 336 L 368 328 L 368 328 L 368 326 L 368 326 Q 368 310 379 299 Q 390 288 406 288 L 406 288 Z M 444 420 L 444 444 L 444 420 L 444 444 L 420 444 L 420 444 L 420 420 L 420 420 L 444 420 L 444 420 Z" />
</svg>