<svg xmlns="http://www.w3.org/2000/svg" viewBox="0 0 640 448">
  <path d="M 320 16 Q 377 16 424 44 L 424 44 L 424 44 Q 471 71 500 120 Q 528 169 528 224 Q 528 279 500 328 Q 471 377 424 404 Q 377 432 320 432 Q 263 432 216 404 Q 169 377 140 328 Q 112 279 112 224 Q 112 169 140 120 Q 169 71 216 44 Q 263 16 320 16 L 320 16 Z M 320 448 Q 381 447 432 418 L 432 418 L 432 418 Q 483 388 514 336 Q 544 283 544 224 Q 544 165 514 112 Q 483 60 432 30 Q 381 1 320 0 Q 259 1 208 30 Q 157 60 126 112 Q 96 165 96 224 Q 96 283 126 336 Q 157 388 208 418 Q 259 447 320 448 L 320 448 Z M 328 104 L 328 96 L 328 104 L 328 96 L 312 96 L 312 96 L 312 104 L 312 104 L 312 264 L 312 264 L 312 272 L 312 272 L 328 272 L 328 272 L 328 264 L 328 264 L 328 104 L 328 104 Z M 304 304 L 304 336 L 304 304 L 304 336 L 336 336 L 336 336 L 336 304 L 336 304 L 304 304 L 304 304 Z M 63 64 L 67 58 L 63 64 L 67 58 L 54 49 L 54 49 L 49 56 L 49 56 Q 1 130 0 224 Q 1 318 49 392 L 54 399 L 54 399 L 67 390 L 67 390 L 63 384 L 63 384 Q 17 313 16 224 Q 17 135 63 64 L 63 64 Z M 591 56 L 586 49 L 591 56 L 586 49 L 573 58 L 573 58 L 577 64 L 577 64 Q 623 135 624 224 Q 623 313 577 384 L 573 390 L 573 390 L 587 399 L 587 399 L 591 392 L 591 392 Q 639 318 640 224 Q 639 130 591 56 L 591 56 Z" />
</svg>