<svg xmlns="http://www.w3.org/2000/svg" viewBox="0 0 570 506">
  <path d="M 285 0 L 290 4 L 285 0 L 290 4 L 381 82 L 381 82 L 381 34 L 381 34 L 381 26 L 381 26 L 389 26 L 509 26 L 509 34 L 509 34 L 509 192 L 509 192 L 570 244 L 570 244 L 560 256 L 560 256 L 509 213 L 509 213 L 509 498 L 509 498 L 509 506 L 509 506 L 501 506 L 61 506 L 61 498 L 61 498 L 61 213 L 61 213 L 10 256 L 10 256 L 0 244 L 0 244 L 280 4 L 280 4 L 285 0 L 285 0 Z M 493 178 L 493 42 L 493 178 L 493 42 L 397 42 L 397 42 L 397 96 L 397 96 L 493 178 L 493 178 Z M 77 199 L 77 490 L 77 199 L 77 490 L 278 490 L 278 490 L 222 406 L 222 406 L 218 399 L 218 399 L 225 395 L 225 395 L 327 337 L 327 337 L 224 248 L 224 248 L 218 243 L 218 243 L 228 231 L 228 231 L 234 236 L 234 236 L 346 332 L 346 332 L 355 339 L 355 339 L 345 345 L 345 345 L 240 405 L 240 405 L 297 490 L 297 490 L 493 490 L 493 490 L 493 199 L 493 199 L 285 21 L 285 21 L 77 199 L 77 199 Z" />
</svg>