<svg xmlns="http://www.w3.org/2000/svg" viewBox="0 0 448 512">
  <path d="M 128 8 L 128 0 L 128 8 L 128 0 L 112 0 L 112 0 L 112 8 L 112 8 L 112 64 L 112 64 L 16 64 L 0 64 L 0 80 L 0 80 L 0 176 L 0 176 L 0 192 L 0 192 L 0 288 L 0 288 L 0 304 L 0 304 L 0 400 L 0 400 L 0 416 L 0 416 L 0 496 L 0 496 L 0 512 L 0 512 L 16 512 L 448 512 L 448 496 L 448 496 L 448 416 L 448 416 L 448 400 L 448 400 L 448 304 L 448 304 L 448 288 L 448 288 L 448 192 L 448 192 L 448 176 L 448 176 L 448 80 L 448 80 L 448 64 L 448 64 L 432 64 L 336 64 L 336 8 L 336 8 L 336 0 L 336 0 L 320 0 L 320 0 L 320 8 L 320 8 L 320 64 L 320 64 L 128 64 L 128 64 L 128 8 L 128 8 Z M 432 288 L 304 288 L 432 288 L 304 288 L 304 192 L 304 192 L 432 192 L 432 192 L 432 288 L 432 288 Z M 288 192 L 288 288 L 288 192 L 288 288 L 160 288 L 160 288 L 160 192 L 160 192 L 288 192 L 288 192 Z M 144 192 L 144 288 L 144 192 L 144 288 L 16 288 L 16 288 L 16 192 L 16 192 L 144 192 L 144 192 Z M 16 304 L 144 304 L 16 304 L 144 304 L 144 400 L 144 400 L 16 400 L 16 400 L 16 304 L 16 304 Z M 16 416 L 144 416 L 16 416 L 144 416 L 144 496 L 144 496 L 16 496 L 16 496 L 16 416 L 16 416 Z M 160 496 L 160 416 L 160 496 L 160 416 L 288 416 L 288 416 L 288 496 L 288 496 L 160 496 L 160 496 Z M 304 496 L 304 416 L 304 496 L 304 416 L 432 416 L 432 416 L 432 496 L 432 496 L 304 496 L 304 496 Z M 432 400 L 304 400 L 432 400 L 304 400 L 304 304 L 304 304 L 432 304 L 432 304 L 432 400 L 432 400 Z M 112 80 L 112 120 L 112 80 L 112 120 L 112 128 L 112 128 L 128 128 L 128 128 L 128 120 L 128 120 L 128 80 L 128 80 L 320 80 L 320 80 L 320 120 L 320 120 L 320 128 L 320 128 L 336 128 L 336 128 L 336 120 L 336 120 L 336 80 L 336 80 L 432 80 L 432 80 L 432 176 L 432 176 L 16 176 L 16 176 L 16 80 L 16 80 L 112 80 L 112 80 Z M 288 400 L 160 400 L 288 400 L 160 400 L 160 304 L 160 304 L 288 304 L 288 304 L 288 400 L 288 400 Z" />
</svg>