<svg xmlns="http://www.w3.org/2000/svg" viewBox="0 0 640 512">
  <path d="M 528 512 L 508 496 L 528 512 L 508 496 L 88 496 L 88 496 L 155 336 L 155 336 L 305 336 L 305 336 L 285 320 L 285 320 L 144 320 L 144 320 L 71 496 L 71 496 L 64 512 L 64 512 L 81 512 L 528 512 Z M 464 144 Q 462 83 422 42 L 422 42 L 422 42 Q 381 2 320 0 Q 281 0 249 19 Q 217 37 198 68 L 210 78 L 210 78 Q 228 50 256 33 Q 285 16 320 16 Q 374 17 411 53 Q 447 90 448 144 Q 447 199 410 235 L 422 245 L 422 245 Q 462 205 464 144 L 464 144 Z M 16 5 L 10 0 L 16 5 L 10 0 L 0 13 L 0 13 L 6 18 L 6 18 L 624 507 L 624 507 L 630 512 L 630 512 L 640 500 L 640 500 L 634 495 L 634 495 L 16 5 L 16 5 Z" />
</svg>