<svg xmlns="http://www.w3.org/2000/svg" viewBox="0 0 384 512">
  <path d="M 368 320 Q 367 285 340 233 Q 312 180 275 130 Q 238 79 210 45 Q 199 33 192 24 Q 185 33 174 45 Q 146 79 109 130 Q 72 180 44 233 Q 17 285 16 320 Q 18 395 68 444 Q 117 494 192 496 Q 267 494 316 444 Q 366 395 368 320 L 368 320 Z M 0 320 Q 2 273 38 210 L 38 210 L 38 210 Q 74 148 116 93 L 116 93 L 116 93 Q 159 37 181 12 Q 192 0 192 0 Q 192 0 192 0 Q 192 0 203 12 Q 225 37 268 93 Q 310 148 346 210 Q 382 273 384 320 Q 382 402 328 456 Q 274 510 192 512 Q 110 510 56 456 Q 2 402 0 320 L 0 320 Z M 192 408 L 192 424 L 192 408 L 192 424 Q 148 423 118 394 Q 89 364 88 320 L 104 320 L 104 320 Q 105 357 130 382 Q 155 407 192 408 L 192 408 Z" />
</svg>