<svg xmlns="http://www.w3.org/2000/svg" viewBox="0 0 448 448">
  <path d="M 432 16 L 432 288 L 432 16 L 432 288 L 304 288 L 288 288 L 288 304 L 288 304 L 288 432 L 288 432 L 16 432 L 16 432 L 16 16 L 16 16 L 432 16 L 432 16 Z M 425 304 L 304 425 L 425 304 L 304 425 L 304 304 L 304 304 L 425 304 L 425 304 Z M 16 448 L 288 448 L 16 448 L 304 448 L 448 304 L 448 304 L 448 288 L 448 288 L 448 16 L 448 16 L 448 0 L 448 0 L 432 0 L 0 0 L 0 16 L 0 16 L 0 432 L 0 432 L 0 448 L 0 448 L 16 448 L 16 448 Z M 192 80 L 184 80 L 192 80 L 184 80 L 184 88 L 184 88 L 184 152 L 184 152 L 120 152 L 112 152 L 112 160 L 112 160 L 112 224 L 112 224 L 112 232 L 112 232 L 120 232 L 184 232 L 184 296 L 184 296 L 184 304 L 184 304 L 192 304 L 264 304 L 264 296 L 264 296 L 264 232 L 264 232 L 328 232 L 336 232 L 336 224 L 336 224 L 336 160 L 336 160 L 336 152 L 336 152 L 328 152 L 264 152 L 264 88 L 264 88 L 264 80 L 264 80 L 256 80 L 192 80 Z M 200 160 L 200 96 L 200 160 L 200 96 L 248 96 L 248 96 L 248 160 L 248 160 L 248 168 L 248 168 L 256 168 L 320 168 L 320 216 L 320 216 L 256 216 L 248 216 L 248 224 L 248 224 L 248 288 L 248 288 L 200 288 L 200 288 L 200 224 L 200 224 L 200 216 L 200 216 L 192 216 L 128 216 L 128 168 L 128 168 L 192 168 L 200 168 L 200 160 L 200 160 Z" />
</svg>