<svg xmlns="http://www.w3.org/2000/svg" viewBox="0 0 635 480">
  <path d="M 392 256 L 560 256 L 392 256 L 560 256 L 560 71 L 560 71 L 505 16 L 505 16 L 447 16 L 447 16 L 392 71 L 392 71 L 392 256 L 392 256 Z M 339 110 L 355 136 L 339 110 L 355 136 L 376 123 L 376 123 L 376 83 L 376 83 L 339 110 L 339 110 Z M 356 153 L 349 157 L 356 153 L 349 157 L 345 150 L 345 150 L 321 112 L 321 112 L 317 105 L 317 105 L 323 101 L 323 101 L 379 61 L 379 61 L 440 0 L 440 0 L 512 0 L 512 0 L 573 61 L 573 61 L 629 101 L 629 101 L 635 106 L 635 106 L 631 112 L 631 112 L 607 151 L 607 151 L 603 157 L 603 157 L 596 153 L 596 153 L 576 142 L 576 142 L 576 256 L 576 256 L 576 272 L 576 272 L 560 272 L 376 272 L 376 256 L 376 256 L 376 142 L 376 142 L 356 153 L 356 153 Z M 597 136 L 613 110 L 597 136 L 613 110 L 576 83 L 576 83 L 576 123 L 576 123 L 597 136 L 597 136 Z M 448 112 Q 463 113 464 128 Q 463 143 448 144 Q 433 143 432 128 Q 433 113 448 112 L 448 112 Z M 496 128 Q 497 113 512 112 Q 527 113 528 128 Q 527 143 512 144 Q 497 143 496 128 L 496 128 Z M 304 38 Q 321 24 344 24 L 344 40 L 344 40 Q 327 40 314 50 L 302 60 L 302 60 L 292 48 L 292 48 Q 278 33 256 32 Q 234 33 220 48 L 210 60 L 210 60 L 198 50 L 198 50 Q 185 40 168 40 Q 151 40 138 50 Q 126 61 121 77 L 118 91 L 118 91 L 103 89 L 103 89 Q 100 88 96 88 Q 76 88 62 102 Q 49 116 48 136 Q 48 142 49 148 L 52 160 L 52 160 L 41 166 L 41 166 Q 17 179 16 208 Q 17 237 41 250 L 52 256 L 52 256 L 49 268 L 49 268 Q 48 274 48 280 Q 49 300 62 314 Q 76 327 96 328 Q 100 328 103 327 L 118 325 L 118 325 L 121 339 L 121 339 Q 126 355 138 366 Q 151 376 168 376 Q 185 376 198 366 L 210 356 L 210 356 L 220 368 L 220 368 Q 234 383 256 384 Q 278 383 292 368 L 302 356 L 302 356 L 314 366 L 314 366 Q 327 376 344 376 Q 361 376 374 366 Q 386 355 391 339 L 394 325 L 394 325 L 409 327 L 409 327 Q 412 328 416 328 Q 444 327 458 304 L 475 304 L 475 304 Q 460 338 423 344 L 392 474 L 392 474 L 390 480 L 390 480 L 384 480 L 304 480 L 304 472 L 304 472 L 304 416 L 304 416 L 304 408 L 304 408 L 320 408 L 320 408 L 320 416 L 320 416 L 320 464 L 320 464 L 378 464 L 378 464 L 405 346 L 405 346 Q 399 366 383 379 Q 366 392 344 392 Q 321 392 304 378 Q 286 399 256 400 Q 226 399 208 378 Q 191 392 168 392 Q 146 392 129 379 Q 113 366 107 346 L 134 464 L 134 464 L 192 464 L 192 464 L 192 416 L 192 416 L 192 408 L 192 408 L 208 408 L 208 408 L 208 416 L 208 416 L 208 472 L 208 472 L 208 480 L 208 480 L 200 480 L 122 480 L 120 474 L 120 474 L 90 344 L 90 344 Q 65 341 49 323 Q 33 305 32 280 Q 32 272 34 265 Q 2 247 0 208 Q 2 169 34 152 Q 32 144 32 136 Q 33 109 51 91 Q 69 73 96 72 Q 101 72 106 73 Q 111 51 128 38 Q 145 24 168 24 Q 191 24 208 38 Q 226 17 256 16 Q 286 17 304 38 L 304 38 Z" />
</svg>