<svg xmlns="http://www.w3.org/2000/svg" viewBox="0 0 512 512">
  <path d="M 16 224 Q 18 136 77 77 L 77 77 L 77 77 Q 136 18 224 16 L 248 16 L 248 16 Q 321 18 371 67 Q 420 116 424 189 L 424 192 L 424 192 L 427 194 L 427 194 L 496 256 L 496 256 L 496 320 L 496 320 L 440 320 L 432 320 L 432 328 L 432 328 L 432 432 L 432 432 L 312 432 L 304 432 L 304 440 L 304 440 L 304 504 L 304 504 L 304 512 L 304 512 L 320 512 L 320 512 L 320 504 L 320 504 L 320 448 L 320 448 L 440 448 L 448 448 L 448 440 L 448 440 L 448 336 L 448 336 L 504 336 L 512 336 L 512 328 L 512 328 L 512 252 L 512 252 L 512 249 L 512 249 L 509 246 L 509 246 L 440 185 L 440 185 Q 434 107 381 54 Q 327 2 248 0 L 224 0 L 224 0 Q 161 1 111 31 Q 60 60 31 111 Q 1 161 0 224 Q 2 315 64 381 L 64 504 L 64 504 L 64 512 L 64 512 L 80 512 L 80 512 L 80 504 L 80 504 L 80 378 L 80 378 L 80 374 L 80 374 L 78 372 L 78 372 Q 18 310 16 224 L 16 224 Z M 216 145 Q 198 128 174 128 L 171 128 L 171 128 Q 146 129 129 145 Q 113 162 112 187 Q 112 212 130 230 L 213 310 L 213 310 L 224 320 L 224 320 L 235 309 L 235 309 L 318 230 L 318 230 Q 336 212 336 187 Q 335 162 319 145 Q 302 129 277 128 L 275 128 L 275 128 Q 250 128 232 145 L 224 152 L 224 152 L 216 145 L 216 145 Z M 213 164 L 224 175 L 213 164 L 224 175 L 235 164 L 235 164 L 243 157 L 243 157 Q 256 144 274 144 L 277 144 L 277 144 Q 295 144 307 157 Q 320 169 320 187 Q 320 205 307 218 L 224 298 L 224 298 L 141 218 L 141 218 Q 128 205 128 187 Q 128 169 141 157 Q 153 144 171 144 L 174 144 L 174 144 Q 192 144 205 157 L 213 164 L 213 164 Z" />
</svg>