<svg xmlns="http://www.w3.org/2000/svg" viewBox="0 0 512 512">
  <path d="M 442.4 172 L 460.8 153.6 L 442.4 135.2 L 376.8 69.6 L 358.4 51.2 L 340 69.6 L 235.2 174.4 L 255.2 190.4 L 303.2 142.4 L 369.6 208.8 L 329.6 248.8 L 349.6 264.8 L 442.4 172 L 442.4 172 Z M 256.8 321.6 L 166.4 412 L 84 428 L 100.8 345.6 L 182.4 263.2 L 162.4 247.2 L 76.8 332.8 L 56.8 433.6 L 51.2 460.8 L 78.4 455.2 L 179.2 435.2 L 276.8 337.6 L 256.8 321.6 L 256.8 321.6 Z M 388 190.4 L 321.6 124 L 358.4 87.2 L 424.8 153.6 L 388 190.4 L 388 190.4 Z M 26.4 59.2 L 16 51.2 L 0 71.2 L 10.4 79.2 L 486.4 452.8 L 496 460.8 L 512 440.8 L 502.4 432.8 L 26.4 59.2 L 26.4 59.2 Z" />
</svg>