<svg xmlns="http://www.w3.org/2000/svg" viewBox="0 0 640 384">
  <path d="M 408 16 L 416 16 L 408 16 L 416 16 L 416 0 L 416 0 L 408 0 L 192 0 L 192 16 L 192 16 L 200 16 L 296 16 L 296 64 L 296 64 L 160 64 L 64 64 L 64 80 L 64 80 L 64 184 L 64 184 L 16 184 L 16 184 L 16 104 L 16 104 L 16 96 L 16 96 L 0 96 L 0 96 L 0 104 L 0 104 L 0 280 L 0 280 L 0 288 L 0 288 L 16 288 L 16 288 L 16 280 L 16 280 L 16 200 L 16 200 L 64 200 L 64 200 L 64 304 L 64 304 L 64 320 L 64 320 L 80 320 L 179 320 L 256 384 L 256 384 L 496 384 L 512 384 L 512 368 L 512 368 L 512 128 L 512 128 L 416 64 L 416 64 L 336 64 L 312 64 L 312 16 L 312 16 L 408 16 L 408 16 Z M 80 200 L 80 184 L 80 200 L 80 184 L 80 80 L 80 80 L 160 80 L 411 80 L 496 137 L 496 137 L 496 368 L 496 368 L 262 368 L 262 368 L 189 308 L 189 308 L 185 304 L 185 304 L 179 304 L 80 304 L 80 200 L 80 200 Z M 560 144 L 624 144 L 560 144 L 624 144 L 624 368 L 624 368 L 560 368 L 560 368 L 560 144 L 560 144 Z M 544 128 L 544 144 L 544 128 L 544 144 L 544 368 L 544 368 L 544 384 L 544 384 L 560 384 L 640 384 L 640 368 L 640 368 L 640 144 L 640 144 L 640 128 L 640 128 L 624 128 L 544 128 Z M 288 272 L 288 288 L 288 272 L 288 288 L 288 304 L 288 304 L 304 304 L 320 304 L 320 288 L 320 288 L 320 272 L 320 272 L 304 272 L 288 272 Z M 312 120 L 312 112 L 312 120 L 312 112 L 296 112 L 296 112 L 296 120 L 296 120 L 296 240 L 296 240 L 296 248 L 296 248 L 312 248 L 312 248 L 312 240 L 312 240 L 312 120 L 312 120 Z" />
</svg>