<svg xmlns="http://www.w3.org/2000/svg" viewBox="0 0 512 448">
  <path d="M 496 16 L 496 432 L 496 16 L 496 432 L 16 432 L 16 432 L 16 16 L 16 16 L 496 16 L 496 16 Z M 16 0 L 0 0 L 16 0 L 0 0 L 0 16 L 0 16 L 0 432 L 0 432 L 0 448 L 0 448 L 16 448 L 512 448 L 512 432 L 512 432 L 512 16 L 512 16 L 512 0 L 512 0 L 496 0 L 16 0 Z M 293 144 L 298 150 L 293 144 L 298 150 L 373 224 L 373 224 L 298 298 L 298 298 L 293 304 L 293 304 L 304 315 L 304 315 L 310 310 L 310 310 L 390 230 L 390 230 L 395 224 L 395 224 L 390 218 L 390 218 L 310 138 L 310 138 L 304 132 L 304 132 L 293 144 L 293 144 Z M 214 150 L 219 144 L 214 150 L 219 144 L 208 133 L 208 133 L 202 138 L 202 138 L 122 218 L 122 218 L 117 224 L 117 224 L 122 230 L 122 230 L 202 310 L 202 310 L 208 316 L 208 316 L 219 304 L 219 304 L 214 298 L 214 298 L 139 224 L 139 224 L 214 150 L 214 150 Z" />
</svg>