<svg xmlns="http://www.w3.org/2000/svg" viewBox="0 0 510 510">
  <path d="M 493 51 L 510 34 L 493 51 L 510 34 L 476 0 L 476 0 L 459 17 L 459 17 L 329 147 L 329 147 Q 328 135 325 123 L 328 120 L 328 120 L 392 56 L 392 56 L 409 39 L 409 39 L 375 5 L 375 5 L 358 22 L 358 22 L 302 79 L 302 79 Q 299 76 297 73 Q 295 71 293 69 L 292 68 L 292 68 L 263 39 L 263 39 L 230 72 L 230 72 L 229 73 L 229 73 L 229 73 L 229 73 Q 204 100 199 134 L 183 119 L 183 119 L 153 148 L 153 148 Q 123 176 118 214 L 103 199 L 103 199 L 73 227 L 73 227 Q 39 261 38 307 Q 37 352 71 388 L 80 396 L 80 396 Q 80 396 80 396 Q 80 396 80 396 L 17 459 L 17 459 L 0 476 L 0 476 L 34 510 L 34 510 L 51 493 L 51 493 L 114 430 L 114 430 L 122 439 L 122 439 Q 158 473 203 472 Q 249 471 283 437 L 311 407 L 311 407 L 302 398 L 302 398 Q 330 391 351 370 L 391 327 L 391 327 L 381 317 L 381 317 Q 407 311 427 291 L 437 281 L 437 281 L 471 247 L 471 247 L 442 218 L 442 218 Q 440 216 439 215 Q 438 214 437 213 Q 434 211 432 209 L 488 152 L 488 152 L 505 135 L 505 135 L 471 101 L 471 101 L 454 118 L 454 118 L 390 182 L 390 182 L 387 185 L 387 185 Q 375 182 363 181 L 493 51 L 493 51 Z M 105 354 Q 87 335 86 310 L 86 310 L 86 310 Q 86 285 103 265 Q 121 286 123 312 Q 126 338 112 361 L 105 354 L 105 354 Z M 245 407 Q 225 424 200 424 L 200 424 L 200 424 Q 175 424 156 405 L 149 398 L 149 398 Q 172 384 198 387 Q 224 389 245 407 L 245 407 Z M 184 275 Q 165 255 165 230 L 165 230 L 165 230 Q 165 205 182 186 Q 201 206 203 233 Q 205 259 191 282 L 184 275 L 184 275 Z M 325 328 L 316 337 L 325 328 L 316 337 Q 301 352 282 352 Q 262 352 247 338 L 228 319 L 228 319 Q 251 305 277 307 Q 304 309 325 328 L 325 328 Z M 263 107 Q 280 128 282 154 L 282 154 L 282 154 Q 283 179 270 202 L 264 196 L 264 196 Q 246 177 245 152 Q 245 127 263 107 L 263 107 Z M 308 240 Q 331 227 356 228 L 356 228 L 356 228 Q 382 230 403 247 L 393 257 L 393 257 Q 378 271 359 271 Q 340 271 325 257 L 308 240 L 308 240 Z" />
</svg>