<svg xmlns="http://www.w3.org/2000/svg" viewBox="0 0 448 443">
  <path d="M 8 0 L 0 0 L 8 0 L 0 0 L 0 8 L 0 8 L 0 72 L 0 72 L 0 80 L 0 80 L 16 80 L 16 80 L 16 72 L 16 72 L 16 16 L 16 16 L 216 16 L 216 16 L 216 240 L 216 240 L 160 240 L 152 240 L 152 256 L 152 256 L 160 256 L 296 256 L 296 240 L 296 240 L 288 240 L 232 240 L 232 16 L 232 16 L 432 16 L 432 16 L 432 72 L 432 72 L 432 80 L 432 80 L 448 80 L 448 80 L 448 72 L 448 72 L 448 8 L 448 8 L 448 0 L 448 0 L 440 0 L 8 0 Z M 442 358 L 448 352 L 442 358 L 448 352 L 442 346 L 442 346 L 362 266 L 362 266 L 356 261 L 356 261 L 345 272 L 345 272 L 351 278 L 351 278 L 417 344 L 417 344 L 31 344 L 31 344 L 97 278 L 97 278 L 103 272 L 103 272 L 91 261 L 91 261 L 86 266 L 86 266 L 6 346 L 6 346 L 0 352 L 0 352 L 6 358 L 6 358 L 86 438 L 86 438 L 91 443 L 91 443 L 103 432 L 103 432 L 97 426 L 97 426 L 31 360 L 31 360 L 417 360 L 417 360 L 351 426 L 351 426 L 345 432 L 345 432 L 356 443 L 356 443 L 362 438 L 362 438 L 442 358 L 442 358 Z" />
</svg>