<svg xmlns="http://www.w3.org/2000/svg" viewBox="0 0 395 297">
  <path d="M 11 90 Q 47 55 95 36 L 95 36 L 95 36 Q 143 16 197 16 Q 251 16 299 36 Q 347 55 384 90 L 395 78 L 395 78 Q 355 42 305 21 Q 255 0 197 0 Q 139 0 89 21 Q 39 42 0 78 L 11 90 L 11 90 Z M 149 224 Q 150 197 173 182 Q 197 170 221 182 Q 244 197 245 224 Q 244 251 221 266 Q 197 278 173 266 Q 150 251 149 224 L 149 224 Z M 261 224 Q 260 188 229 169 Q 197 151 165 169 Q 134 188 133 224 Q 134 260 165 279 Q 197 297 229 279 Q 260 260 261 224 L 261 224 Z" />
</svg>