<svg xmlns="http://www.w3.org/2000/svg" viewBox="0 0 288 256">
  <path d="M 208 48 L 208 208 L 208 48 L 208 208 L 240 208 L 240 208 L 240 48 L 240 48 L 208 48 L 208 48 Z M 160 0 L 208 0 L 160 0 L 288 0 L 288 48 L 288 48 L 288 208 L 288 208 L 288 256 L 288 256 L 240 256 L 160 256 L 160 208 L 160 208 L 160 48 L 160 48 L 160 0 L 160 0 Z M 48 176 L 48 208 L 48 176 L 48 208 L 80 208 L 80 208 L 80 176 L 80 176 L 48 176 L 48 176 Z M 0 128 L 48 128 L 0 128 L 128 128 L 128 176 L 128 176 L 128 208 L 128 208 L 128 256 L 128 256 L 80 256 L 0 256 L 0 208 L 0 208 L 0 176 L 0 176 L 0 128 L 0 128 Z" />
</svg>