<svg xmlns="http://www.w3.org/2000/svg" viewBox="0 0 512 448">
  <path d="M 16 16 L 16 432 L 16 16 L 16 432 L 288 432 L 288 432 L 288 16 L 288 16 L 16 16 L 16 16 Z M 496 16 L 304 16 L 496 16 L 304 16 L 304 432 L 304 432 L 496 432 L 496 432 L 496 16 L 496 16 Z M 496 0 L 512 0 L 496 0 L 512 0 L 512 16 L 512 16 L 512 432 L 512 432 L 512 448 L 512 448 L 496 448 L 0 448 L 0 432 L 0 432 L 0 16 L 0 16 L 0 0 L 0 0 L 16 0 L 496 0 Z M 352 64 L 448 64 L 352 64 L 448 64 L 448 80 L 448 80 L 352 80 L 352 80 L 352 64 L 352 64 Z M 448 128 L 448 144 L 448 128 L 448 144 L 352 144 L 352 144 L 352 128 L 352 128 L 448 128 L 448 128 Z M 352 192 L 448 192 L 352 192 L 448 192 L 448 208 L 448 208 L 352 208 L 352 208 L 352 192 L 352 192 Z" />
</svg>