<svg xmlns="http://www.w3.org/2000/svg" viewBox="0 0 448 448">
  <path d="M 16 16 L 16 432 L 16 16 L 16 432 L 432 432 L 432 432 L 432 16 L 432 16 L 16 16 L 16 16 Z M 0 0 L 16 0 L 0 0 L 448 0 L 448 16 L 448 16 L 448 432 L 448 432 L 448 448 L 448 448 L 432 448 L 0 448 L 0 432 L 0 432 L 0 16 L 0 16 L 0 0 L 0 0 Z M 72 64 L 152 64 L 72 64 L 384 64 L 384 72 L 384 72 L 384 224 L 384 224 L 384 376 L 384 376 L 384 384 L 384 384 L 376 384 L 64 384 L 64 376 L 64 376 L 64 224 L 64 224 L 64 72 L 64 72 L 64 64 L 64 64 L 72 64 L 72 64 Z M 80 216 L 144 216 L 80 216 L 144 216 L 144 80 L 144 80 L 80 80 L 80 80 L 80 216 L 80 216 Z M 160 216 L 216 216 L 160 216 L 216 216 L 216 80 L 216 80 L 160 80 L 160 80 L 160 216 L 160 216 Z M 232 216 L 288 216 L 232 216 L 288 216 L 288 80 L 288 80 L 232 80 L 232 80 L 232 216 L 232 216 Z M 304 216 L 368 216 L 304 216 L 368 216 L 368 80 L 368 80 L 304 80 L 304 80 L 304 216 L 304 216 Z M 304 232 L 304 368 L 304 232 L 304 368 L 368 368 L 368 368 L 368 232 L 368 232 L 304 232 L 304 232 Z M 288 232 L 232 232 L 288 232 L 232 232 L 232 368 L 232 368 L 288 368 L 288 368 L 288 232 L 288 232 Z M 216 232 L 160 232 L 216 232 L 160 232 L 160 368 L 160 368 L 216 368 L 216 368 L 216 232 L 216 232 Z M 144 232 L 80 232 L 144 232 L 80 232 L 80 368 L 80 368 L 144 368 L 144 368 L 144 232 L 144 232 Z" />
</svg>