<svg xmlns="http://www.w3.org/2000/svg" viewBox="0 0 512 512">
  <path d="M 448.12283 54.541267 Q 447.1401 28.007677 424.5374 13.266794 Q 400.95203 1.4740883 377.3666 13.266794 Q 354.76392 28.007677 353.7812 54.541267 Q 354.76392 81.07486 377.3666 95.81574 Q 400.95203 107.608444 424.5374 95.81574 Q 447.1401 81.07486 448.12283 54.541267 L 448.12283 54.541267 Z M 278.11133 205.881 L 313.48944 187.20921 L 290.88675 254.03455 Q 281.0595 289.41266 308.5758 314.96353 L 411.762 398.4952 L 433.38196 484.97504 L 438.2956 507.57773 L 484.48367 495.78503 L 478.58734 473.18234 L 455.00192 378.8407 L 453.03647 370.97888 L 447.1401 366.06525 L 394.07294 322.82535 L 419.6238 242.24184 L 425.52014 264.84454 L 427.4856 270.74088 L 431.4165 275.6545 L 478.58734 322.82535 L 512 289.41266 L 469.7428 247.15547 L 447.1401 166.57198 L 444.19193 152.81381 L 430.43378 149.86565 L 343.95395 126.28023 L 336.09213 123.332054 L 327.2476 128.24568 L 248.62956 167.5547 L 241.75047 170.50288 L 237.81958 179.34741 L 214.23416 234.38004 L 205.38963 256 L 248.62956 274.67178 L 257.4741 252.06909 L 278.11133 205.881 L 278.11133 205.881 Z M 336.09213 269.75815 L 365.57388 181.31287 L 387.19385 187.20921 Q 387.19385 187.20921 386.21112 188.19194 Q 386.21112 188.19194 386.21112 189.17467 L 354.76392 291.3781 L 338.0576 277.61996 Q 334.12668 274.67178 336.09213 269.75815 L 336.09213 269.75815 Z M 271.23224 403.40884 L 214.23416 459.4242 L 197.52783 476.13052 L 230.9405 509.54318 L 247.64684 492.83685 L 307.59308 432.8906 L 311.524 429.9424 L 312.5067 425.02878 L 333.14395 374.9098 L 294.81766 343.4626 L 271.23224 402.42612 L 271.23224 403.40884 Z M 109.082535 510.5259 L 131.68523 471.2169 L 137.58157 461.38965 L 233.88867 298.2572 L 206.37236 282.5336 L 176.8906 331.66986 L 94.34165 284.49905 L 0 447.63147 L 109.082535 510.5259 L 109.082535 510.5259 Z" />
</svg>