<svg xmlns="http://www.w3.org/2000/svg" viewBox="0 0 512 512">
  <path d="M 247.97212 47.27526 L 256.892 55.303135 L 265.81186 47.27526 Q 285.43555 27.651567 313.0871 27.651567 L 315.76306 27.651567 Q 343.41464 28.543554 362.14633 47.27526 Q 380.87805 66.006966 381.77005 93.65854 Q 381.77005 121.310104 361.25436 140.93379 L 269.3798 230.1324 L 256.892 241.72823 L 244.40417 230.1324 L 152.52962 140.93379 Q 132.01393 121.310104 132.01393 93.65854 Q 132.90593 66.006966 151.63763 47.27526 Q 170.36934 28.543554 198.0209 27.651567 L 200.69687 27.651567 Q 228.34843 27.651567 247.97212 47.27526 L 247.97212 47.27526 Z M 341.63068 120.41812 Q 353.22647 109.71429 353.22647 93.65854 Q 353.22647 77.60279 342.52264 66.89896 Q 331.81882 56.19512 315.76306 56.19512 L 313.0871 56.19512 Q 297.03137 56.19512 285.43555 67.79094 L 276.5157 75.81882 L 256.892 94.55052 L 237.2683 75.81882 L 228.34843 67.79094 Q 216.75261 56.19512 200.69687 56.19512 L 198.0209 56.19512 Q 181.96516 56.19512 171.26132 66.89896 Q 160.5575 77.60279 160.5575 93.65854 Q 160.5575 109.71429 172.1533 120.41812 L 256.892 202.48083 L 341.63068 120.41812 L 341.63068 120.41812 Z M 152.52962 298.81534 L 156.98955 298.81534 L 342.52264 298.81534 L 356.79443 298.81534 L 356.79443 313.0871 L 356.79443 370.17422 L 356.79443 370.17422 L 449.56097 314.8711 L 461.1568 307.7352 L 469.18466 320.223 L 504.8641 377.31012 L 512 388.9059 L 500.40417 396.9338 L 364.8223 482.56445 L 361.25436 484.34842 L 356.79443 484.34842 L 14.271777 484.34842 L 0 484.34842 L 0 455.80487 L 14.271777 455.80487 L 352.3345 455.80487 L 472.75262 379.98605 L 452.23694 346.98257 L 368.39026 396.9338 L 364.8223 398.71777 L 361.25436 398.71777 L 356.79443 398.71777 L 342.52264 398.71777 L 285.43555 398.71777 L 271.16376 398.71777 L 228.34843 398.71777 L 214.07666 398.71777 L 214.07666 370.17422 L 228.34843 370.17422 L 271.16376 370.17422 L 285.43555 370.17422 L 328.2509 370.17422 L 328.2509 327.3589 L 161.44948 327.3589 L 79.38676 381.77005 L 75.81882 384.44598 L 71.35889 384.44598 L 14.271777 384.44598 L 0 384.44598 L 0 355.90244 L 14.271777 355.90244 L 66.89896 355.90244 L 148.96167 301.4913 L 152.52962 298.81534 L 152.52962 298.81534 Z" />
</svg>