<svg xmlns="http://www.w3.org/2000/svg" viewBox="0 0 576 512">
  <path d="M 296 0 L 296 8 L 296 0 L 296 8 L 296 229 L 296 229 L 370 154 L 370 154 L 376 149 L 376 149 L 387 160 L 387 160 L 382 166 L 382 166 L 294 254 L 294 254 L 288 259 L 288 259 L 282 254 L 282 254 L 194 166 L 194 166 L 188 160 L 188 160 L 200 149 L 200 149 L 206 154 L 206 154 L 280 229 L 280 229 L 280 8 L 280 8 L 280 0 L 280 0 L 296 0 L 296 0 Z M 96 298 L 97 299 L 96 298 L 97 299 Q 97 300 98 301 Q 104 309 110 317 Q 117 326 130 338 Q 143 350 159 359 Q 175 368 192 368 Q 209 368 225 359 Q 241 350 254 338 Q 267 326 274 317 Q 281 309 287 300 Q 287 299 287 299 Q 287 299 287 299 Q 287 299 287 299 L 288 298 L 288 298 L 289 299 L 289 299 Q 289 300 290 301 Q 295 309 302 317 Q 309 326 322 338 Q 335 350 351 359 Q 367 368 384 368 Q 401 368 417 359 Q 433 350 446 338 Q 459 326 466 317 Q 473 309 479 300 Q 479 299 479 299 L 480 298 L 480 298 L 481 299 L 481 299 Q 481 299 481 299 Q 481 299 481 299 Q 481 300 482 301 Q 487 309 494 317 Q 501 326 514 338 Q 527 350 543 359 Q 559 368 576 368 L 576 384 L 576 384 Q 554 383 536 373 Q 517 363 503 350 Q 488 335 480 325 Q 472 335 457 350 Q 443 363 424 373 Q 406 383 384 384 Q 362 383 344 373 Q 325 363 311 350 Q 296 335 288 325 Q 280 335 265 350 Q 251 363 232 373 Q 214 383 192 384 Q 170 383 152 373 Q 133 363 119 350 Q 104 335 96 325 Q 88 335 73 350 Q 59 363 40 373 Q 22 383 0 384 L 0 368 L 0 368 Q 17 368 33 359 Q 49 350 62 338 Q 75 326 82 317 Q 89 309 95 300 Q 95 299 95 299 L 96 298 L 96 298 Z M 97 427 Q 97 428 98 429 L 98 429 L 98 429 Q 104 437 110 445 Q 117 454 130 466 Q 143 478 159 487 Q 175 496 192 496 Q 209 496 225 487 Q 241 478 254 466 Q 267 454 274 445 Q 281 437 287 428 Q 287 427 287 427 L 288 426 L 288 426 Q 288 426 288 427 Q 288 427 289 427 Q 289 428 290 429 Q 295 437 302 445 Q 309 454 322 466 Q 335 478 351 487 Q 367 496 384 496 Q 401 496 417 487 Q 433 478 446 466 Q 459 454 466 445 Q 473 437 479 428 Q 479 427 479 427 L 480 426 L 480 426 L 481 427 L 481 427 Q 481 428 482 429 Q 487 437 494 445 Q 501 454 514 466 Q 527 478 543 487 Q 559 496 576 496 L 576 512 L 576 512 Q 554 511 536 501 Q 517 491 503 478 Q 488 463 480 453 Q 472 463 457 478 Q 443 491 424 501 Q 406 511 384 512 Q 362 511 344 501 Q 325 491 311 478 Q 296 463 288 453 Q 280 463 265 478 Q 251 491 232 501 Q 214 511 192 512 Q 170 511 152 501 Q 133 491 119 478 Q 104 463 96 453 Q 88 463 73 478 Q 59 491 40 501 Q 22 511 0 512 L 0 496 L 0 496 Q 17 496 33 487 Q 49 478 62 466 Q 75 454 82 445 Q 89 437 95 428 Q 95 427 95 427 L 96 426 L 96 426 L 97 427 L 97 427 Z" />
</svg>