<svg xmlns="http://www.w3.org/2000/svg" viewBox="0 0 512 512">
  <path d="M 81 92 L 420 431 L 81 92 L 420 431 Q 353 494 256 496 Q 189 495 135 463 Q 81 431 49 377 Q 17 323 16 256 Q 18 159 81 92 L 81 92 Z M 235 224 L 92 81 L 235 224 L 92 81 Q 159 18 256 16 Q 323 17 377 49 Q 431 81 463 135 Q 495 189 496 256 Q 494 353 431 420 L 331 320 L 331 320 L 408 320 L 416 320 L 416 312 L 416 312 L 416 232 L 416 232 L 416 224 L 416 224 L 408 224 L 235 224 Z M 251 240 L 400 240 L 251 240 L 400 240 L 400 304 L 400 304 L 315 304 L 315 304 L 251 240 L 251 240 Z M 256 512 Q 326 511 384 478 L 384 478 L 384 478 Q 442 444 478 384 Q 512 323 512 256 Q 512 189 478 128 Q 442 68 384 34 Q 326 1 256 0 Q 186 1 128 34 Q 70 68 34 128 Q 0 189 0 256 Q 0 323 34 384 Q 70 444 128 478 Q 186 511 256 512 L 256 512 Z M 272 104 L 256 104 L 272 104 L 256 104 L 256 112 L 256 112 Q 256 129 268 140 Q 279 152 296 152 L 344 152 L 344 152 Q 366 154 368 176 L 368 184 L 368 184 L 384 184 L 384 184 L 384 176 L 384 176 Q 384 159 372 148 Q 361 136 344 136 L 296 136 L 296 136 Q 274 134 272 112 L 272 104 L 272 104 Z M 252 304 L 112 304 L 252 304 L 112 304 L 112 240 L 112 240 L 188 240 L 188 240 L 172 224 L 172 224 L 104 224 L 96 224 L 96 232 L 96 232 L 96 312 L 96 312 L 96 320 L 96 320 L 104 320 L 268 320 L 252 304 L 252 304 Z" />
</svg>