<svg xmlns="http://www.w3.org/2000/svg" viewBox="0 0 576 384">
  <path d="M 560 160 L 464 160 L 560 160 L 464 160 L 464 264 L 464 264 L 464 272 L 464 272 L 456 272 L 432 272 L 432 368 L 432 368 L 560 368 L 560 368 L 560 160 L 560 160 Z M 416 368 L 416 272 L 416 368 L 416 272 L 392 272 L 384 272 L 384 264 L 384 264 L 384 160 L 384 160 L 328 160 L 328 160 L 328 264 L 328 264 L 328 272 L 328 272 L 320 272 L 296 272 L 296 368 L 296 368 L 416 368 L 416 368 Z M 280 368 L 280 272 L 280 368 L 280 272 L 256 272 L 248 272 L 248 264 L 248 264 L 248 160 L 248 160 L 192 160 L 192 160 L 192 264 L 192 264 L 192 272 L 192 272 L 184 272 L 160 272 L 160 368 L 160 368 L 280 368 L 280 368 Z M 144 368 L 144 272 L 144 368 L 144 272 L 120 272 L 112 272 L 112 264 L 112 264 L 112 160 L 112 160 L 16 160 L 16 160 L 16 368 L 16 368 L 144 368 L 144 368 Z M 144 256 L 160 256 L 144 256 L 176 256 L 176 160 L 176 160 L 128 160 L 128 160 L 128 256 L 128 256 L 144 256 L 144 256 Z M 280 256 L 296 256 L 280 256 L 312 256 L 312 160 L 312 160 L 264 160 L 264 160 L 264 256 L 264 256 L 280 256 L 280 256 Z M 416 256 L 432 256 L 416 256 L 448 256 L 448 160 L 448 160 L 400 160 L 400 160 L 400 256 L 400 256 L 416 256 L 416 256 Z M 560 144 L 560 16 L 560 144 L 560 16 L 16 16 L 16 16 L 16 144 L 16 144 L 120 144 L 560 144 Z M 576 144 L 576 152 L 576 144 L 576 152 L 576 160 L 576 160 L 576 368 L 576 368 L 576 384 L 576 384 L 560 384 L 0 384 L 0 368 L 0 368 L 0 160 L 0 160 L 0 152 L 0 152 L 0 144 L 0 144 L 0 16 L 0 16 L 0 0 L 0 0 L 16 0 L 576 0 L 576 16 L 576 16 L 576 144 L 576 144 Z" />
</svg>