<svg xmlns="http://www.w3.org/2000/svg" viewBox="0 0 640 505">
  <path d="M 320 0 L 323 2 L 320 0 L 323 2 L 635 122 L 635 122 L 640 124 L 640 124 L 640 129 L 640 129 L 640 497 L 640 497 L 640 505 L 640 505 L 624 505 L 624 505 L 624 497 L 624 497 L 624 135 L 624 135 L 320 18 L 320 18 L 16 135 L 16 135 L 16 497 L 16 497 L 16 505 L 16 505 L 0 505 L 0 505 L 0 497 L 0 497 L 0 129 L 0 129 L 0 124 L 0 124 L 5 122 L 5 122 L 317 2 L 317 2 L 320 0 L 320 0 Z M 96 185 L 104 185 L 96 185 L 544 185 L 544 193 L 544 193 L 544 313 L 544 313 L 544 329 L 544 329 L 544 497 L 544 497 L 544 505 L 544 505 L 528 505 L 528 505 L 528 497 L 528 497 L 528 329 L 528 329 L 112 329 L 112 329 L 112 497 L 112 497 L 112 505 L 112 505 L 96 505 L 96 505 L 96 497 L 96 497 L 96 329 L 96 329 L 96 313 L 96 313 L 96 193 L 96 193 L 96 185 L 96 185 Z M 112 313 L 528 313 L 112 313 L 528 313 L 528 201 L 528 201 L 112 201 L 112 201 L 112 313 L 112 313 Z M 264 409 L 376 409 L 264 409 L 384 409 L 384 425 L 384 425 L 376 425 L 256 425 L 256 409 L 256 409 L 264 409 L 264 409 Z" />
</svg>