<svg xmlns="http://www.w3.org/2000/svg" viewBox="0 0 256 521">
  <path d="M 176 73 Q 175 46 152 31 Q 128 19 104 31 Q 81 46 80 73 Q 81 100 104 115 Q 128 127 152 115 Q 175 100 176 73 L 176 73 Z M 64 73 Q 65 37 96 18 Q 128 0 160 18 Q 191 37 192 73 Q 191 109 160 128 Q 128 146 96 128 Q 65 109 64 73 L 64 73 Z M 21 377 L 64 377 L 21 377 L 235 377 L 180 185 L 180 185 L 76 185 L 76 185 L 21 377 L 21 377 Z M 136 393 L 120 393 L 136 393 L 120 393 L 120 513 L 120 513 L 120 521 L 120 521 L 112 521 L 56 521 L 56 513 L 56 513 L 56 393 L 56 393 L 17 393 L 0 393 L 5 377 L 5 377 L 64 169 L 64 169 L 192 169 L 192 169 L 251 377 L 251 377 L 256 393 L 256 393 L 239 393 L 200 393 L 200 513 L 200 513 L 200 521 L 200 521 L 192 521 L 136 521 L 136 513 L 136 513 L 136 393 L 136 393 Z M 184 393 L 152 393 L 184 393 L 152 393 L 152 505 L 152 505 L 184 505 L 184 505 L 184 393 L 184 393 Z M 72 393 L 72 505 L 72 393 L 72 505 L 104 505 L 104 505 L 104 393 L 104 393 L 72 393 L 72 393 Z" />
</svg>