<svg xmlns="http://www.w3.org/2000/svg" viewBox="0 0 512 512">
  <path d="M 400 16 L 400 112 L 400 16 L 400 112 L 496 112 L 496 112 L 496 16 L 496 16 L 400 16 L 400 16 Z M 384 0 L 400 0 L 384 0 L 512 0 L 512 16 L 512 16 L 512 112 L 512 112 L 512 128 L 512 128 L 496 128 L 384 128 L 384 112 L 384 112 L 384 16 L 384 16 L 384 0 L 384 0 Z M 287 13 L 293 18 L 287 13 L 293 18 L 341 58 L 341 58 L 349 64 L 349 64 L 341 70 L 341 70 L 293 110 L 293 110 L 287 115 L 287 115 L 277 103 L 277 103 L 283 98 L 283 98 L 314 72 L 314 72 L 16 72 L 16 72 L 16 248 L 16 248 L 504 248 L 512 248 L 512 256 L 512 256 L 512 448 L 512 448 L 512 456 L 512 456 L 504 456 L 416 456 L 416 496 L 416 496 L 416 512 L 416 512 L 400 512 L 288 512 L 288 496 L 288 496 L 288 400 L 288 400 L 288 384 L 288 384 L 304 384 L 416 384 L 416 400 L 416 400 L 416 440 L 416 440 L 496 440 L 496 440 L 496 264 L 496 264 L 8 264 L 0 264 L 0 256 L 0 256 L 0 64 L 0 64 L 0 56 L 0 56 L 8 56 L 314 56 L 283 30 L 283 30 L 277 25 L 277 25 L 287 13 L 287 13 Z M 128 400 L 128 440 L 128 400 L 128 440 L 218 440 L 218 440 L 187 414 L 187 414 L 181 409 L 181 409 L 191 397 L 191 397 L 197 402 L 197 402 L 245 442 L 245 442 L 253 448 L 253 448 L 245 454 L 245 454 L 197 494 L 197 494 L 191 499 L 191 499 L 181 487 L 181 487 L 187 482 L 187 482 L 218 456 L 218 456 L 128 456 L 128 456 L 128 496 L 128 496 L 128 512 L 128 512 L 112 512 L 0 512 L 0 496 L 0 496 L 0 400 L 0 400 L 0 384 L 0 384 L 16 384 L 128 384 L 128 400 L 128 400 Z M 112 400 L 16 400 L 112 400 L 16 400 L 16 496 L 16 496 L 112 496 L 112 496 L 112 400 L 112 400 Z M 304 400 L 304 496 L 304 400 L 304 496 L 400 496 L 400 496 L 400 400 L 400 400 L 304 400 L 304 400 Z" />
</svg>