<svg xmlns="http://www.w3.org/2000/svg" viewBox="0 0 416 432">
  <path d="M 0 0 L 32 0 L 0 0 L 32 0 L 32 32 L 32 32 L 0 32 L 0 32 L 0 0 L 0 0 Z M 128 0 L 128 32 L 128 0 L 128 32 L 96 32 L 96 32 L 96 0 L 96 0 L 128 0 L 128 0 Z M 224 0 L 224 32 L 224 0 L 224 32 L 192 32 L 192 32 L 192 0 L 192 0 L 224 0 L 224 0 Z M 320 0 L 320 32 L 320 0 L 320 32 L 288 32 L 288 32 L 288 0 L 288 0 L 320 0 L 320 0 Z M 384 0 L 416 0 L 384 0 L 416 0 L 416 32 L 416 32 L 384 32 L 384 32 L 384 0 L 384 0 Z M 144 272 L 128 272 L 144 272 L 48 272 L 48 256 L 48 256 L 48 240 L 48 240 L 197 91 L 197 91 L 208 80 L 208 80 L 219 91 L 219 91 L 368 240 L 368 240 L 368 256 L 368 256 L 368 272 L 368 272 L 352 272 L 272 272 L 272 288 L 272 288 L 272 416 L 272 416 L 272 432 L 272 432 L 256 432 L 144 432 L 144 416 L 144 416 L 144 288 L 144 288 L 144 272 L 144 272 Z M 144 256 L 160 256 L 144 256 L 160 256 L 160 272 L 160 272 L 160 416 L 160 416 L 256 416 L 256 416 L 256 272 L 256 272 L 256 256 L 256 256 L 272 256 L 352 256 L 352 247 L 352 247 L 208 103 L 208 103 L 64 247 L 64 247 L 64 256 L 64 256 L 144 256 L 144 256 Z" />
</svg>