<svg xmlns="http://www.w3.org/2000/svg" viewBox="0 0 448 448">
  <path d="M 16 16 L 16 432 L 16 16 L 16 432 L 432 432 L 432 432 L 432 16 L 432 16 L 16 16 L 16 16 Z M 0 0 L 16 0 L 0 0 L 448 0 L 448 16 L 448 16 L 448 432 L 448 432 L 448 448 L 448 448 L 432 448 L 0 448 L 0 432 L 0 432 L 0 16 L 0 16 L 0 0 L 0 0 Z M 208 112 L 208 144 L 208 112 L 208 144 L 240 144 L 240 144 L 240 112 L 240 112 L 208 112 L 208 112 Z M 192 96 L 208 96 L 192 96 L 256 96 L 256 112 L 256 112 L 256 144 L 256 144 L 256 160 L 256 160 L 240 160 L 192 160 L 192 144 L 192 144 L 192 112 L 192 112 L 192 96 L 192 96 Z M 120 216 L 328 216 L 120 216 L 336 216 L 336 232 L 336 232 L 328 232 L 112 232 L 112 216 L 112 216 L 120 216 L 120 216 Z M 240 304 L 208 304 L 240 304 L 208 304 L 208 336 L 208 336 L 240 336 L 240 336 L 240 304 L 240 304 Z M 208 288 L 240 288 L 208 288 L 256 288 L 256 304 L 256 304 L 256 336 L 256 336 L 256 352 L 256 352 L 240 352 L 192 352 L 192 336 L 192 336 L 192 304 L 192 304 L 192 288 L 192 288 L 208 288 L 208 288 Z" />
</svg>