<svg xmlns="http://www.w3.org/2000/svg" viewBox="0 0 570 506">
  <path d="M 290 4 L 285 0 L 290 4 L 285 0 L 280 4 L 280 4 L 0 244 L 0 244 L 10 256 L 10 256 L 61 213 L 61 213 L 61 498 L 61 498 L 61 506 L 61 506 L 69 506 L 509 506 L 509 498 L 509 498 L 509 213 L 509 213 L 560 256 L 560 256 L 570 244 L 570 244 L 290 4 L 290 4 Z M 77 490 L 77 199 L 77 490 L 77 199 L 285 21 L 285 21 L 493 199 L 493 199 L 493 490 L 493 490 L 365 490 L 365 490 L 365 306 L 365 306 L 365 298 L 365 298 L 357 298 L 205 298 L 205 306 L 205 306 L 205 490 L 205 490 L 77 490 L 77 490 Z M 221 490 L 221 314 L 221 490 L 221 314 L 349 314 L 349 314 L 349 490 L 349 490 L 221 490 L 221 490 Z" />
</svg>