<svg xmlns="http://www.w3.org/2000/svg" viewBox="0 0 448 512">
  <path d="M 128 8 L 128 0 L 128 8 L 128 0 L 112 0 L 112 0 L 112 8 L 112 8 L 112 64 L 112 64 L 16 64 L 0 64 L 0 80 L 0 80 L 0 176 L 0 176 L 0 192 L 0 192 L 0 496 L 0 496 L 0 512 L 0 512 L 16 512 L 448 512 L 448 496 L 448 496 L 448 192 L 448 192 L 448 176 L 448 176 L 448 80 L 448 80 L 448 64 L 448 64 L 432 64 L 336 64 L 336 8 L 336 8 L 336 0 L 336 0 L 320 0 L 320 0 L 320 8 L 320 8 L 320 64 L 320 64 L 128 64 L 128 64 L 128 8 L 128 8 Z M 16 192 L 432 192 L 16 192 L 432 192 L 432 496 L 432 496 L 16 496 L 16 496 L 16 192 L 16 192 Z M 112 80 L 112 120 L 112 80 L 112 120 L 112 128 L 112 128 L 128 128 L 128 128 L 128 120 L 128 120 L 128 80 L 128 80 L 320 80 L 320 80 L 320 120 L 320 120 L 320 128 L 320 128 L 336 128 L 336 128 L 336 120 L 336 120 L 336 80 L 336 80 L 432 80 L 432 80 L 432 176 L 432 176 L 16 176 L 16 176 L 16 80 L 16 80 L 112 80 L 112 80 Z M 216 265 Q 198 248 174 248 L 171 248 L 171 248 Q 146 249 129 265 Q 113 282 112 307 Q 112 332 130 350 L 213 430 L 213 430 L 224 440 L 224 440 L 235 429 L 235 429 L 318 350 L 318 350 Q 336 332 336 307 Q 335 282 319 265 Q 302 249 277 248 L 275 248 L 275 248 Q 250 248 232 265 L 224 272 L 224 272 L 216 265 L 216 265 Z M 213 284 L 224 295 L 213 284 L 224 295 L 235 284 L 235 284 L 243 277 L 243 277 Q 256 264 274 264 L 277 264 L 277 264 Q 295 264 307 277 Q 320 289 320 307 Q 320 325 307 338 L 224 418 L 224 418 L 141 338 L 141 338 Q 128 325 128 307 Q 128 289 141 277 Q 153 264 171 264 L 174 264 L 174 264 Q 192 264 205 277 L 213 284 L 213 284 Z" />
</svg>