<svg xmlns="http://www.w3.org/2000/svg" viewBox="0 0 384 384">
  <path d="M 176 0 L 176 32 L 176 0 L 176 32 L 208 32 L 208 32 L 208 0 L 208 0 L 176 0 L 176 0 Z M 192 112 Q 237 113 261 152 Q 283 192 261 232 Q 237 271 192 272 Q 147 271 123 232 Q 101 192 123 152 Q 147 113 192 112 L 192 112 Z M 192 288 Q 218 288 240 275 L 240 275 L 240 275 Q 262 262 275 240 Q 288 217 288 192 Q 288 167 275 144 Q 262 122 240 109 Q 218 96 192 96 Q 166 96 144 109 Q 122 122 109 144 Q 96 167 96 192 Q 96 217 109 240 Q 122 262 144 275 Q 166 288 192 288 L 192 288 Z M 68 45 L 45 68 L 68 45 L 45 68 L 68 90 L 68 90 L 90 68 L 90 68 L 68 45 L 68 45 Z M 0 208 L 32 208 L 0 208 L 32 208 L 32 176 L 32 176 L 0 176 L 0 176 L 0 208 L 0 208 Z M 45 317 L 68 339 L 45 317 L 68 339 L 90 317 L 90 317 L 68 294 L 68 294 L 45 317 L 45 317 Z M 208 352 L 176 352 L 208 352 L 176 352 L 176 384 L 176 384 L 208 384 L 208 384 L 208 352 L 208 352 Z M 317 294 L 294 316 L 317 294 L 294 316 L 317 339 L 317 339 L 339 316 L 339 316 L 317 294 L 317 294 Z M 352 176 L 352 208 L 352 176 L 352 208 L 384 208 L 384 208 L 384 176 L 384 176 L 352 176 L 352 176 Z M 294 68 L 316 90 L 294 68 L 316 90 L 339 68 L 339 68 L 316 45 L 316 45 L 294 68 L 294 68 Z" />
</svg>