<svg xmlns="http://www.w3.org/2000/svg" viewBox="0 0 508 512">
  <path d="M 492 256 Q 492 189 460 135 L 460 135 L 460 135 Q 428 81 374 49 L 374 49 L 374 49 Q 319 17 252 16 L 244 16 L 244 16 L 244 0 L 244 0 L 252 0 L 252 0 Q 324 1 382 35 Q 439 69 473 127 Q 508 184 508 256 Q 508 328 473 385 Q 439 443 382 477 Q 324 511 252 512 L 244 512 L 244 512 L 244 496 L 244 496 L 252 496 L 252 496 Q 319 495 374 463 Q 428 431 460 377 Q 492 323 492 256 L 492 256 Z M 159 122 L 165 117 L 159 122 L 165 117 L 176 129 L 176 129 L 170 134 L 170 134 L 34 248 L 34 248 L 340 248 L 348 248 L 348 264 L 348 264 L 340 264 L 34 264 L 170 378 L 170 378 L 176 383 L 176 383 L 165 395 L 165 395 L 159 390 L 159 390 L 7 262 L 7 262 L 0 256 L 0 256 L 7 250 L 7 250 L 159 122 L 159 122 Z" />
</svg>