<svg xmlns="http://www.w3.org/2000/svg" viewBox="0 0 640 512">
  <path d="M 128 0 L 128 16 L 128 0 L 128 16 L 136 16 L 231 16 L 223 64 L 223 64 Q 203 65 190 78 Q 177 92 176 112 Q 177 132 190 146 Q 204 159 224 160 Q 259 158 270 126 L 456 151 L 456 151 L 456 208 L 456 208 L 456 216 L 456 216 L 472 216 L 472 216 L 472 208 L 472 208 L 472 144 L 472 144 L 472 137 L 472 137 L 465 136 L 465 136 L 272 110 L 272 110 Q 269 78 239 66 L 247 16 L 247 16 L 344 16 L 352 16 L 352 0 L 352 0 L 344 0 L 128 0 Z M 192 112 Q 192 98 201 89 L 201 89 L 201 89 Q 210 80 224 80 Q 238 80 247 89 Q 256 98 256 112 Q 256 126 247 135 Q 238 144 224 144 Q 210 144 201 135 Q 192 126 192 112 L 192 112 Z M 496 272 L 496 320 L 496 272 L 496 320 L 432 320 L 432 320 L 432 272 L 432 272 L 496 272 L 496 272 Z M 416 272 L 416 320 L 416 272 L 416 320 L 352 320 L 352 320 L 352 272 L 352 272 L 352 256 L 352 256 L 336 256 L 256 256 L 256 272 L 256 272 L 256 320 L 256 320 L 192 320 L 192 320 L 192 272 L 192 272 L 192 256 L 192 256 L 176 256 L 96 256 L 96 272 L 96 272 L 96 320 L 96 320 Q 55 321 28 348 Q 1 375 0 416 Q 1 457 28 484 Q 55 511 96 512 L 544 512 L 544 512 Q 585 511 612 484 Q 639 457 640 416 Q 639 375 612 348 Q 585 321 544 320 L 512 320 L 512 320 L 512 272 L 512 272 L 512 256 L 512 256 L 496 256 L 416 256 L 416 272 L 416 272 Z M 176 336 L 192 336 L 176 336 L 544 336 Q 578 337 601 359 Q 623 382 624 416 Q 623 450 601 473 Q 578 495 544 496 L 96 496 L 96 496 Q 62 495 39 473 Q 17 450 16 416 Q 17 382 39 359 Q 62 337 96 336 L 112 336 L 176 336 Z M 176 272 L 176 320 L 176 272 L 176 320 L 112 320 L 112 320 L 112 272 L 112 272 L 176 272 L 176 272 Z M 272 320 L 272 272 L 272 320 L 272 272 L 336 272 L 336 272 L 336 320 L 336 320 L 272 320 L 272 320 Z M 80 416 Q 80 402 89 393 L 89 393 L 89 393 Q 98 384 112 384 Q 126 384 135 393 Q 144 402 144 416 Q 144 430 135 439 Q 126 448 112 448 Q 98 448 89 439 Q 80 430 80 416 L 80 416 Z M 160 416 Q 159 389 136 374 Q 112 362 88 374 Q 65 389 64 416 Q 65 443 88 458 Q 112 470 136 458 Q 159 443 160 416 L 160 416 Z M 320 384 Q 334 384 343 393 L 343 393 L 343 393 Q 352 402 352 416 Q 352 430 343 439 Q 334 448 320 448 Q 306 448 297 439 Q 288 430 288 416 Q 288 402 297 393 Q 306 384 320 384 L 320 384 Z M 320 464 Q 347 463 362 440 Q 374 416 362 392 Q 347 369 320 368 Q 293 369 278 392 Q 266 416 278 440 Q 293 463 320 464 L 320 464 Z M 496 416 Q 496 402 505 393 L 505 393 L 505 393 Q 514 384 528 384 Q 542 384 551 393 Q 560 402 560 416 Q 560 430 551 439 Q 542 448 528 448 Q 514 448 505 439 Q 496 430 496 416 L 496 416 Z M 576 416 Q 575 389 552 374 Q 528 362 504 374 Q 481 389 480 416 Q 481 443 504 458 Q 528 470 552 458 Q 575 443 576 416 L 576 416 Z" />
</svg>