<svg xmlns="http://www.w3.org/2000/svg" viewBox="0 0 480 512">
  <path d="M 464 80 Q 463 44 432 25 Q 400 7 368 25 Q 337 44 336 80 Q 337 116 368 135 Q 400 153 432 135 Q 463 116 464 80 L 464 80 Z M 480 80 Q 479 114 457 137 L 457 137 L 457 137 Q 434 159 400 160 Q 397 160 394 160 L 358 355 L 358 355 Q 384 363 400 383 Q 416 404 416 432 Q 415 466 393 489 Q 370 511 336 512 Q 302 511 279 489 Q 257 466 256 432 Q 256 406 271 386 L 135 266 L 135 266 Q 112 287 80 288 Q 46 287 23 265 Q 1 242 0 208 Q 1 174 23 151 Q 46 129 80 128 Q 103 128 122 140 Q 141 152 151 171 L 323 102 L 323 102 Q 320 91 320 80 Q 321 46 343 23 Q 366 1 400 0 Q 434 1 457 23 Q 479 46 480 80 L 480 80 Z M 329 117 L 157 186 L 329 117 L 157 186 Q 160 196 160 208 Q 160 234 145 254 L 281 374 L 281 374 Q 304 353 336 352 Q 339 352 342 352 L 378 157 L 378 157 Q 345 147 329 117 L 329 117 Z M 400 432 Q 399 396 368 377 Q 336 359 304 377 Q 273 396 272 432 Q 273 468 304 487 Q 336 505 368 487 Q 399 468 400 432 L 400 432 Z M 80 272 Q 116 271 135 240 Q 153 208 135 176 Q 116 145 80 144 Q 44 145 25 176 Q 7 208 25 240 Q 44 271 80 272 L 80 272 Z" />
</svg>