<svg xmlns="http://www.w3.org/2000/svg" viewBox="0 0 448 448">
  <path d="M 421 16 L 27 16 L 421 16 L 27 16 L 224 213 L 224 213 L 421 16 L 421 16 Z M 16 27 L 16 421 L 16 27 L 16 421 L 213 224 L 213 224 L 16 27 L 16 27 Z M 27 432 L 421 432 L 27 432 L 421 432 L 224 235 L 224 235 L 27 432 L 27 432 Z M 432 421 L 432 27 L 432 421 L 432 27 L 235 224 L 235 224 L 432 421 L 432 421 Z M 0 0 L 16 0 L 0 0 L 448 0 L 448 16 L 448 16 L 448 432 L 448 432 L 448 448 L 448 448 L 432 448 L 0 448 L 0 432 L 0 432 L 0 16 L 0 16 L 0 0 L 0 0 Z" />
</svg>