<svg xmlns="http://www.w3.org/2000/svg" viewBox="0 0 568 192">
  <path d="M 149 0 L 152 0 L 149 0 L 384 0 L 384 8 L 384 8 L 384 64 L 384 64 L 384 72 L 384 72 L 376 72 L 256 72 L 256 96 L 256 96 L 395 96 L 395 96 L 516 13 L 516 13 L 522 8 L 522 8 L 527 15 L 527 15 L 563 68 L 563 68 L 568 74 L 568 74 L 561 79 L 561 79 L 399 191 L 399 191 L 397 192 L 397 192 L 394 192 L 0 192 L 0 176 L 0 176 L 8 176 L 392 176 L 545 70 L 545 70 L 518 31 L 518 31 L 402 111 L 402 111 L 400 112 L 400 112 L 397 112 L 240 112 L 240 104 L 240 104 L 240 64 L 240 64 L 240 56 L 240 56 L 248 56 L 368 56 L 368 16 L 368 16 L 154 16 L 154 16 L 77 78 L 77 78 L 74 80 L 74 80 L 72 80 L 0 80 L 0 64 L 0 64 L 8 64 L 69 64 L 147 2 L 147 2 L 149 0 L 149 0 Z" />
</svg>