<svg xmlns="http://www.w3.org/2000/svg" viewBox="0 0 624 512">
  <path d="M 56 64 L 56 32 L 56 64 L 56 32 L 232 0 L 232 0 L 296 160 L 296 160 L 240 216 L 240 216 Q 243 221 247 226 L 221 246 L 221 246 Q 217 239 213 232 L 200 210 L 200 210 L 218 193 L 218 193 L 258 152 L 258 152 L 212 36 L 212 36 L 88 59 L 88 59 L 88 64 L 88 64 Q 90 195 158 296 L 133 316 L 133 316 Q 58 206 56 64 L 56 64 Z M 220 410 L 245 390 L 220 410 L 245 390 Q 299 433 365 456 Q 430 480 504 480 L 509 480 L 509 480 L 532 356 L 532 356 L 416 310 L 416 310 L 375 350 L 375 350 L 358 368 L 358 368 L 336 355 L 336 355 Q 323 348 310 339 L 337 318 L 337 318 Q 344 323 352 328 L 408 272 L 408 272 L 568 336 L 568 336 L 536 512 L 536 512 L 504 512 L 504 512 Q 423 512 350 485 Q 278 458 220 410 L 220 410 Z M 592 18 L 604 8 L 592 18 L 604 8 L 624 33 L 624 33 L 611 43 L 611 43 L 32 494 L 32 494 L 19 504 L 19 504 L 0 479 L 0 479 L 12 469 L 12 469 L 592 18 L 592 18 Z" />
</svg>