<svg xmlns="http://www.w3.org/2000/svg" viewBox="0 0 504 512">
  <path d="M 16 496 L 112 496 L 16 496 L 112 496 L 112 512 L 112 512 L 16 512 L 0 512 L 0 496 L 0 496 L 0 16 L 0 16 L 0 0 L 0 0 L 16 0 L 224 0 L 384 160 L 384 160 L 384 304 L 384 304 L 368 304 L 368 304 L 368 176 L 368 176 L 216 176 L 208 176 L 208 168 L 208 168 L 208 16 L 208 16 L 16 16 L 16 16 L 16 496 L 16 496 Z M 361 160 L 224 23 L 361 160 L 224 23 L 224 160 L 224 160 L 361 160 L 361 160 Z M 200 368 L 216 368 L 200 368 L 216 368 Q 230 368 239 377 Q 248 386 248 400 L 248 408 L 248 408 L 248 416 L 248 416 L 232 416 L 232 416 L 232 408 L 232 408 L 232 400 L 232 400 Q 231 385 216 384 L 200 384 L 200 384 Q 185 385 184 400 L 184 480 L 184 480 Q 185 495 200 496 L 216 496 L 216 496 Q 231 495 232 480 L 232 472 L 232 472 L 232 464 L 232 464 L 248 464 L 248 464 L 248 472 L 248 472 L 248 480 L 248 480 Q 248 494 239 503 Q 230 512 216 512 L 200 512 L 200 512 Q 186 512 177 503 Q 168 494 168 480 L 168 400 L 168 400 Q 168 386 177 377 Q 186 368 200 368 L 200 368 Z M 333 368 L 368 368 L 333 368 L 376 368 L 376 384 L 376 384 L 368 384 L 333 384 Q 314 386 312 405 Q 313 418 325 424 L 362 441 L 362 441 Q 383 451 384 475 Q 384 491 373 501 Q 363 512 347 512 L 304 512 L 296 512 L 296 496 L 296 496 L 304 496 L 347 496 Q 366 494 368 475 Q 367 462 356 456 L 318 439 L 318 439 Q 297 429 296 405 Q 296 389 307 379 Q 317 368 333 368 L 333 368 Z M 440 368 L 440 376 L 440 368 L 440 376 L 440 411 L 440 411 Q 440 439 450 464 L 462 496 L 462 496 L 466 496 L 466 496 L 478 464 L 478 464 Q 488 439 488 411 L 488 376 L 488 376 L 488 368 L 488 368 L 504 368 L 504 368 L 504 376 L 504 376 L 504 411 L 504 411 Q 504 441 493 470 L 480 507 L 480 507 L 478 512 L 478 512 L 472 512 L 451 512 L 449 507 L 449 507 L 435 470 L 435 470 Q 424 441 424 411 L 424 376 L 424 376 L 424 368 L 424 368 L 440 368 L 440 368 Z" />
</svg>