<svg xmlns="http://www.w3.org/2000/svg" viewBox="0 0 448 509">
  <path d="M 170 10 L 432 336 L 170 10 L 432 336 L 432 493 L 432 493 L 291 493 L 291 493 L 286 487 L 286 487 L 214 415 L 214 415 L 211 413 L 211 413 L 208 413 L 176 413 Q 156 414 142 427 Q 129 441 128 461 Q 129 481 142 495 Q 156 508 176 509 L 440 509 L 448 509 L 448 501 L 448 501 L 448 333 L 448 333 L 448 330 L 448 330 L 446 328 L 446 328 L 182 0 L 182 0 L 170 10 L 170 10 Z M 205 429 L 269 493 L 205 429 L 269 493 L 176 493 L 176 493 Q 162 493 153 484 Q 144 475 144 461 Q 144 447 153 438 Q 162 429 176 429 L 205 429 L 205 429 Z M 122 301 L 130 299 L 122 301 L 130 299 L 126 283 L 126 283 L 118 285 L 118 285 L 96 290 L 96 290 Q 53 300 27 332 Q 1 365 0 408 Q 1 464 44 501 L 51 507 L 51 507 L 61 495 L 61 495 L 54 489 L 54 489 Q 17 457 16 408 Q 17 370 39 342 Q 62 314 99 306 L 122 301 L 122 301 Z" />
</svg>