<svg xmlns="http://www.w3.org/2000/svg" viewBox="0 0 511 511">
  <path d="M 207 495 Q 287 494 352 456 L 352 456 L 352 456 Q 417 417 456 352 L 456 352 L 456 352 Q 494 287 495 207 Q 493 100 429 24 L 390 63 L 390 63 Q 445 126 447 215 Q 446 280 415 332 Q 384 384 332 415 Q 280 446 215 447 Q 126 445 63 390 L 24 429 L 24 429 Q 100 493 207 495 L 207 495 Z M 74 379 Q 132 429 215 431 Q 307 429 368 368 Q 429 307 431 215 Q 429 132 379 74 L 74 379 L 74 379 Z M 12 440 Q 6 435 0 430 L 12 419 L 12 419 L 419 12 L 419 12 L 430 0 L 430 0 Q 435 6 440 12 Q 509 94 511 207 Q 510 292 469 360 Q 429 429 360 469 Q 292 510 207 511 Q 94 509 12 440 L 12 440 Z M 335 164 L 341 169 L 335 164 L 341 169 L 365 193 L 365 193 L 370 199 L 370 199 L 359 210 L 359 210 L 353 205 L 353 205 L 329 181 L 329 181 L 324 175 L 324 175 L 335 164 L 335 164 Z M 255 244 L 261 249 L 255 244 L 261 249 L 285 273 L 285 273 L 290 279 L 290 279 L 279 290 L 279 290 L 273 285 L 273 285 L 249 261 L 249 261 L 244 255 L 244 255 L 255 244 L 255 244 Z M 343 252 L 349 257 L 343 252 L 349 257 L 373 281 L 373 281 L 378 287 L 378 287 L 367 298 L 367 298 L 361 293 L 361 293 L 337 269 L 337 269 L 332 263 L 332 263 L 343 252 L 343 252 Z M 175 324 L 181 329 L 175 324 L 181 329 L 205 353 L 205 353 L 210 359 L 210 359 L 199 370 L 199 370 L 193 365 L 193 365 L 169 341 L 169 341 L 164 335 L 164 335 L 175 324 L 175 324 Z M 263 332 L 269 337 L 263 332 L 269 337 L 293 361 L 293 361 L 298 367 L 298 367 L 287 378 L 287 378 L 281 373 L 281 373 L 257 349 L 257 349 L 252 343 L 252 343 L 263 332 L 263 332 Z" />
</svg>