<svg xmlns="http://www.w3.org/2000/svg" viewBox="0 0 512 512">
  <path d="M 303.2 357.6 L 298.4 357.6 Q 290.4 357.6 283.2 362.4 L 204.8 421.6 L 204.8 383.2 Q 204.8 372 197.6 364.8 Q 190.4 357.6 179.2 357.6 L 102.4 357.6 Q 91.2 357.6 84 350.4 Q 76.8 343.2 76.8 332 L 76.8 179.2 L 51.2 158.4 L 51.2 332 Q 52 353.6 66.4 368 Q 80.8 382.4 102.4 383.2 L 153.6 383.2 L 179.2 383.2 L 179.2 408.8 L 179.2 447.2 Q 179.2 455.2 186.4 458.4 Q 193.6 461.6 200 457.6 L 298.4 383.2 L 335.2 383.2 L 303.2 357.6 L 303.2 357.6 Z M 102.4 50.4 Q 92.8 50.4 84 53.6 L 112 76 L 409.6 76 Q 420.8 76 428 83.2 Q 435.2 90.4 435.2 101.6 L 435.2 331.2 L 457.6 349.6 Q 460.8 340.8 460.8 332 L 460.8 101.6 Q 460 80 445.6 65.6 Q 431.2 51.2 409.6 50.4 L 102.4 50.4 L 102.4 50.4 Z M 26.4 58.4 L 16 50.4 L 0 70.4 L 10.4 78.4 L 486.4 452 L 496 460 L 512 440 L 502.4 432 L 26.4 58.4 L 26.4 58.4 Z" />
</svg>