<svg xmlns="http://www.w3.org/2000/svg" viewBox="0 0 384 512">
  <path d="M 144 0 L 152 0 L 144 0 L 240 0 L 240 8 L 240 8 L 240 39 L 240 39 Q 293 56 326 99 Q 359 142 360 200 L 360 224 L 360 224 L 376 224 L 384 224 L 384 240 L 384 240 L 376 240 L 0 240 L 0 224 L 0 224 L 8 224 L 24 224 L 24 200 L 24 200 Q 25 142 58 99 Q 91 55 144 39 L 144 8 L 144 8 L 144 0 L 144 0 Z M 344 200 Q 343 146 312 106 L 312 106 L 312 106 Q 280 66 230 53 L 224 51 L 224 51 L 224 45 L 224 45 L 224 16 L 224 16 L 160 16 L 160 16 L 160 45 L 160 45 L 160 51 L 160 51 L 154 53 L 154 53 Q 104 66 72 106 Q 41 146 40 200 L 40 224 L 40 224 L 344 224 L 344 224 L 344 200 L 344 200 Z M 242 473 Q 240 476 240 480 Q 241 495 256 496 L 256 496 L 256 496 Q 271 495 272 480 Q 272 476 270 473 L 256 448 L 256 448 L 242 473 L 242 473 Z M 228 465 L 247 432 L 228 465 L 247 432 L 256 416 L 256 416 L 265 432 L 265 432 L 284 465 L 284 465 Q 288 472 288 480 Q 288 494 279 503 Q 270 512 256 512 L 256 512 L 256 512 Q 242 512 233 503 Q 224 494 224 480 Q 224 472 228 465 L 228 465 Z M 320 320 L 306 345 L 320 320 L 306 345 Q 304 348 304 352 Q 305 367 320 368 L 320 368 L 320 368 Q 335 367 336 352 Q 336 348 334 345 L 320 320 L 320 320 Z M 311 304 L 320 288 L 311 304 L 320 288 L 329 304 L 329 304 L 348 337 L 348 337 Q 352 344 352 352 Q 352 366 343 375 Q 334 384 320 384 L 320 384 L 320 384 Q 306 384 297 375 Q 288 366 288 352 Q 288 344 292 337 L 311 304 L 311 304 Z M 114 473 Q 112 476 112 480 Q 113 495 128 496 L 128 496 L 128 496 Q 143 495 144 480 Q 144 476 142 473 L 128 448 L 128 448 L 114 473 L 114 473 Z M 100 465 L 119 432 L 100 465 L 119 432 L 128 416 L 128 416 L 137 432 L 137 432 L 156 465 L 156 465 Q 160 472 160 480 Q 160 494 151 503 Q 142 512 128 512 L 128 512 L 128 512 Q 114 512 105 503 Q 96 494 96 480 Q 96 472 100 465 L 100 465 Z M 192 320 L 178 345 L 192 320 L 178 345 Q 176 348 176 352 Q 177 367 192 368 L 192 368 L 192 368 Q 207 367 208 352 Q 208 348 206 345 L 192 320 L 192 320 Z M 183 304 L 192 288 L 183 304 L 192 288 L 201 304 L 201 304 L 220 337 L 220 337 Q 224 344 224 352 Q 224 366 215 375 Q 206 384 192 384 L 192 384 L 192 384 Q 178 384 169 375 Q 160 366 160 352 Q 160 344 164 337 L 183 304 L 183 304 Z M 50 345 Q 48 348 48 352 Q 49 367 64 368 L 64 368 L 64 368 Q 79 367 80 352 Q 80 348 78 345 L 64 320 L 64 320 L 50 345 L 50 345 Z M 36 337 L 55 304 L 36 337 L 55 304 L 64 288 L 64 288 L 73 304 L 73 304 L 92 337 L 92 337 Q 96 344 96 352 Q 96 366 87 375 Q 78 384 64 384 L 64 384 L 64 384 Q 50 384 41 375 Q 32 366 32 352 Q 32 344 36 337 L 36 337 Z" />
</svg>