<svg xmlns="http://www.w3.org/2000/svg" viewBox="0 0 512 512">
  <path d="M 263 345 L 496 112 L 263 345 L 496 112 L 510 17 L 510 17 L 512 0 L 512 0 L 496 2 L 496 2 L 400 16 L 400 16 L 167 249 L 167 249 L 178 261 L 178 261 L 408 31 L 408 31 L 493 19 L 493 19 L 481 105 L 481 105 L 251 334 L 251 334 L 263 345 L 263 345 Z M 110 226 L 104 221 L 110 226 L 104 221 L 98 226 L 98 226 L 66 258 L 66 258 L 62 263 L 62 263 L 65 268 L 65 268 L 110 343 L 110 343 L 69 384 L 69 384 L 32 384 L 29 384 L 26 386 L 26 386 L 6 407 L 6 407 L 0 413 L 0 413 L 6 419 L 6 419 L 94 507 L 94 507 L 99 512 L 99 512 L 105 507 L 105 507 L 126 486 L 126 486 L 128 483 L 128 483 L 128 480 L 128 480 L 128 443 L 128 443 L 169 402 L 169 402 L 244 447 L 244 447 L 249 450 L 249 450 L 254 446 L 254 446 L 286 414 L 286 414 L 291 408 L 291 408 L 286 402 L 286 402 L 110 226 L 110 226 Z M 127 340 L 82 265 L 127 340 L 82 265 L 104 243 L 104 243 L 269 408 L 269 408 L 247 430 L 247 430 L 172 385 L 172 385 L 167 382 L 167 382 L 162 386 L 162 386 L 114 434 L 114 434 L 112 437 L 112 437 L 112 440 L 112 440 L 112 477 L 112 477 L 99 490 L 99 490 L 23 413 L 23 413 L 35 400 L 35 400 L 72 400 L 75 400 L 78 398 L 78 398 L 126 350 L 126 350 L 130 345 L 130 345 L 127 340 L 127 340 Z" />
</svg>