<svg xmlns="http://www.w3.org/2000/svg" viewBox="0 0 484 509">
  <path d="M 242 0 L 254 4 L 242 0 L 254 4 L 461 84 L 461 84 L 480 92 L 480 92 L 481 112 L 481 112 Q 484 150 476 203 Q 468 255 444 312 Q 420 369 374 420 Q 328 471 255 503 L 242 509 L 242 509 L 229 503 L 229 503 Q 156 471 110 420 Q 64 369 40 312 Q 16 255 8 203 Q 0 150 3 112 L 4 92 L 4 92 L 23 84 L 23 84 L 231 4 L 231 4 L 242 0 L 242 0 Z M 355 203 L 372 186 L 355 203 L 372 186 L 338 152 L 338 152 L 321 169 L 321 169 L 210 280 L 210 280 L 163 233 L 163 233 L 146 216 L 146 216 L 112 250 L 112 250 L 129 267 L 129 267 L 193 331 L 193 331 L 210 348 L 210 348 L 227 331 L 227 331 L 355 203 L 355 203 Z" />
</svg>