<svg xmlns="http://www.w3.org/2000/svg" viewBox="0 0 640 449">
  <path d="M 80 209 L 64 209 L 80 209 L 64 209 Q 44 208 30 195 Q 17 181 16 161 Q 17 120 41 92 Q 65 64 103 48 Q 141 31 179 24 Q 216 17 240 17 Q 264 17 301 24 Q 339 31 377 48 Q 415 64 439 92 Q 463 120 464 161 Q 463 181 450 195 Q 436 208 416 209 L 400 209 L 400 209 L 400 225 L 400 225 L 400 433 L 400 433 L 320 433 L 80 433 L 80 225 L 80 225 L 80 209 L 80 209 Z M 416 225 L 560 225 L 416 225 L 560 225 L 560 433 L 560 433 L 416 433 L 416 433 L 416 241 L 416 241 L 416 225 L 416 225 Z M 568 209 L 560 209 L 568 209 L 458 209 Q 479 191 480 161 Q 478 101 436 66 Q 395 32 341 17 L 400 17 L 400 17 Q 424 17 461 24 Q 499 31 537 48 Q 575 64 599 92 Q 623 120 624 161 Q 623 181 610 195 Q 596 208 576 209 L 568 209 L 568 209 Z M 80 449 L 320 449 L 80 449 L 576 449 L 576 433 L 576 433 L 576 241 L 576 241 L 576 225 L 576 225 Q 603 224 621 206 Q 639 188 640 161 Q 637 98 592 63 Q 547 28 491 14 Q 435 0 400 1 L 240 1 L 240 1 Q 205 0 149 14 Q 93 28 48 63 Q 3 98 0 161 Q 1 188 19 206 Q 37 224 64 225 L 64 241 L 64 241 L 64 433 L 64 433 L 64 449 L 64 449 L 80 449 L 80 449 Z" />
</svg>