<svg xmlns="http://www.w3.org/2000/svg" viewBox="0 0 512 448">
  <path d="M 496 16 L 496 176 L 496 16 L 496 176 L 16 176 L 16 176 L 16 16 L 16 16 L 496 16 L 496 16 Z M 16 0 L 0 0 L 16 0 L 0 0 L 0 16 L 0 16 L 0 176 L 0 176 L 0 192 L 0 192 L 16 192 L 120 192 L 120 352 L 120 352 L 120 360 L 120 360 L 128 360 L 224 360 L 224 432 L 224 432 L 224 448 L 224 448 L 240 448 L 512 448 L 512 432 L 512 432 L 512 272 L 512 272 L 512 256 L 512 256 L 496 256 L 224 256 L 224 272 L 224 272 L 224 344 L 224 344 L 136 344 L 136 344 L 136 192 L 136 192 L 496 192 L 512 192 L 512 176 L 512 176 L 512 16 L 512 16 L 512 0 L 512 0 L 496 0 L 16 0 Z M 496 272 L 496 432 L 496 272 L 496 432 L 240 432 L 240 432 L 240 272 L 240 272 L 496 272 L 496 272 Z" />
</svg>