<svg xmlns="http://www.w3.org/2000/svg" viewBox="0 0 256 480">
  <path d="M 96 0 L 88 0 L 96 0 L 88 0 L 88 16 L 88 16 L 96 16 L 106 16 Q 95 26 82 41 Q 66 60 53 86 Q 41 112 40 144 Q 42 176 58 192 L 56 192 L 48 192 L 48 208 L 48 208 L 56 208 L 68 208 L 52 352 L 52 352 L 68 352 L 68 352 L 84 208 L 84 208 L 172 208 L 172 208 L 188 352 L 188 352 L 204 352 L 204 352 L 188 208 L 188 208 L 200 208 L 208 208 L 208 192 L 208 192 L 200 192 L 198 192 Q 214 176 216 144 Q 215 112 203 86 Q 190 60 174 41 Q 161 26 150 16 L 160 16 L 168 16 L 168 0 L 168 0 L 160 0 L 128 0 Q 128 0 128 0 Q 128 0 128 0 L 96 0 L 96 0 Z M 174 192 Q 174 192 174 192 L 174 192 L 174 192 Q 174 192 174 192 L 82 192 L 82 192 Q 82 192 82 192 Q 82 192 82 192 Q 72 186 64 174 Q 56 163 56 144 Q 57 116 68 92 Q 79 69 94 51 Q 109 34 121 24 Q 125 20 128 18 Q 131 20 135 24 Q 147 34 162 51 Q 169 59 175 69 L 130 114 L 130 114 L 125 120 L 125 120 L 136 131 L 136 131 L 142 126 L 142 126 L 184 83 L 184 83 Q 199 110 200 144 Q 200 163 192 174 Q 184 186 174 192 L 174 192 Z M 48 384 L 44 384 L 48 384 L 44 384 L 42 387 L 42 387 L 2 435 L 2 435 L 0 437 L 0 437 L 0 440 L 0 440 L 0 472 L 0 472 L 0 480 L 0 480 L 8 480 L 256 480 L 256 472 L 256 472 L 256 440 L 256 440 L 256 437 L 256 437 L 254 435 L 254 435 L 214 387 L 214 387 L 212 384 L 212 384 L 208 384 L 48 384 Z M 16 443 L 52 400 L 16 443 L 52 400 L 204 400 L 204 400 L 240 443 L 240 443 L 240 464 L 240 464 L 16 464 L 16 464 L 16 443 L 16 443 Z" />
</svg>