<svg xmlns="http://www.w3.org/2000/svg" viewBox="0 0 640 512">
  <path d="M 624 112 Q 623 71 596 44 L 596 44 L 596 44 Q 569 17 528 16 Q 487 17 460 44 Q 433 71 432 111 L 432 112 L 432 112 Q 432 112 432 112 Q 432 112 432 112 Q 433 153 460 180 Q 487 207 528 208 Q 569 207 596 180 Q 623 153 624 112 L 624 112 Z M 417 96 Q 424 54 454 28 L 454 28 L 454 28 Q 485 1 528 0 Q 576 1 607 33 Q 639 64 640 112 Q 639 160 607 191 Q 576 223 528 224 Q 480 223 449 191 Q 417 160 416 112 L 272 112 L 272 112 L 272 184 L 272 184 L 272 192 L 272 192 L 256 192 L 256 192 L 256 184 L 256 184 L 256 112 L 256 112 L 176 112 L 176 112 L 176 184 L 176 184 L 176 192 L 176 192 L 160 192 L 160 192 L 160 184 L 160 184 L 160 104 L 160 104 L 160 96 L 160 96 L 168 96 L 417 96 Z M 16 400 Q 17 441 44 468 L 44 468 L 44 468 Q 71 495 112 496 Q 153 495 180 468 Q 207 441 208 401 L 208 400 L 208 400 Q 208 400 208 400 Q 208 400 208 400 Q 207 359 180 332 Q 153 305 112 304 Q 71 305 44 332 Q 17 359 16 400 L 16 400 Z M 223 416 Q 216 458 186 484 L 186 484 L 186 484 Q 155 511 112 512 Q 64 511 33 479 Q 1 448 0 400 Q 1 352 33 321 Q 64 289 112 288 Q 160 289 191 321 Q 223 352 224 400 L 368 400 L 368 400 L 368 328 L 368 328 L 368 320 L 368 320 L 384 320 L 384 320 L 384 328 L 384 328 L 384 400 L 384 400 L 464 400 L 464 400 L 464 328 L 464 328 L 464 320 L 464 320 L 480 320 L 480 320 L 480 328 L 480 328 L 480 408 L 480 408 L 480 416 L 480 416 L 472 416 L 223 416 Z" />
</svg>