<svg xmlns="http://www.w3.org/2000/svg" viewBox="0 0 538 512">
  <path d="M 278 26 L 333 196 L 278 26 L 333 196 L 511 196 L 538 196 L 516 212 L 516 212 L 372 316 L 372 316 L 427 486 L 427 486 L 435 512 L 435 512 L 413 496 L 413 496 L 269 391 L 269 391 L 125 496 L 125 496 L 103 512 L 103 512 L 111 486 L 111 486 L 166 316 L 166 316 L 22 212 L 22 212 L 0 196 L 0 196 L 27 196 L 206 196 L 261 26 L 261 26 L 269 0 L 269 0 L 278 26 L 278 26 Z M 333 212 L 321 212 L 333 212 L 321 212 L 317 200 L 317 200 L 277 76 L 277 76 L 277 377 L 277 377 L 279 378 L 279 378 L 405 470 L 405 470 L 357 321 L 357 321 L 353 310 L 353 310 L 363 304 L 363 304 L 489 212 L 489 212 L 333 212 L 333 212 Z M 261 77 L 221 201 L 261 77 L 221 201 L 217 212 L 217 212 L 205 212 L 49 212 L 176 304 L 176 304 L 185 310 L 185 310 L 181 321 L 181 321 L 133 470 L 133 470 L 260 378 L 260 378 L 261 377 L 261 377 L 261 77 L 261 77 Z" />
</svg>