<svg xmlns="http://www.w3.org/2000/svg" viewBox="0 0 484 512">
  <path d="M 236 19 L 242 17 L 236 19 L 242 17 L 248 19 L 248 19 L 455 100 L 455 100 L 465 104 L 465 104 L 466 114 L 466 114 Q 468 151 460 202 Q 453 253 430 308 Q 406 363 362 412 Q 318 460 248 492 L 242 495 L 242 495 L 236 492 L 236 492 Q 166 460 122 412 Q 78 363 55 308 Q 31 253 24 202 Q 16 151 19 114 L 19 104 L 19 104 L 29 100 L 29 100 L 236 19 L 236 19 Z M 482 113 L 480 93 L 482 113 L 480 93 L 461 85 L 461 85 L 254 5 L 254 5 L 242 0 L 242 0 L 230 5 L 230 5 L 23 85 L 23 85 L 4 93 L 4 93 L 3 113 L 3 113 Q 0 151 8 204 Q 16 257 40 314 Q 64 371 110 422 Q 156 474 229 507 L 242 512 L 242 512 L 255 507 L 255 507 Q 328 474 374 422 Q 420 371 444 314 Q 468 257 476 204 Q 484 151 481 113 L 482 113 Z M 130 128 L 114 128 L 130 128 L 114 128 L 114 144 L 114 144 L 114 216 L 114 216 Q 114 233 124 246 Q 134 258 150 262 L 131 300 L 131 300 Q 128 307 134 311 Q 141 314 145 308 L 167 264 L 167 264 Q 185 261 197 248 Q 209 235 210 216 L 210 144 L 210 144 L 293 144 L 293 144 L 307 172 L 307 172 L 309 176 L 309 176 L 314 176 L 386 176 L 386 208 L 386 208 Q 385 239 365 259 Q 345 279 314 280 L 266 280 L 258 280 L 258 288 L 258 288 L 258 376 L 258 376 Q 259 383 266 384 Q 273 383 274 376 L 274 296 L 274 296 L 314 296 L 314 296 Q 351 295 376 270 Q 401 245 402 208 L 402 168 L 402 168 L 402 160 L 402 160 L 394 160 L 319 160 L 305 132 L 305 132 L 303 128 L 303 128 L 298 128 L 130 128 Z M 162 248 Q 148 248 139 239 L 139 239 L 139 239 Q 130 230 130 216 L 130 160 L 130 160 L 130 144 L 130 144 L 146 144 L 194 144 L 194 160 L 194 160 L 194 216 L 194 216 Q 194 230 185 239 Q 176 248 162 248 L 162 248 L 162 248 Z M 258 208 Q 273 207 274 192 Q 273 177 258 176 Q 243 177 242 192 Q 243 207 258 208 L 258 208 Z" />
</svg>