<svg xmlns="http://www.w3.org/2000/svg" viewBox="0 0 448 512">
  <path d="M 336 144 L 336 136 L 336 144 L 336 136 L 336 128 L 336 128 Q 336 120 335 112 L 280 112 L 276 112 L 274 109 L 274 109 L 255 85 L 255 85 L 222 125 L 222 125 L 220 128 L 220 128 L 216 128 L 112 128 L 112 136 L 112 136 L 112 144 L 112 144 Q 113 192 145 223 Q 176 255 224 256 Q 272 255 303 223 Q 335 192 336 144 L 336 144 Z M 345 187 Q 331 225 299 248 L 299 248 L 299 248 Q 266 271 224 272 Q 182 271 149 248 Q 117 225 103 187 L 48 236 L 48 236 L 48 256 L 48 256 L 120 256 L 128 256 L 128 272 L 128 272 L 120 272 L 32 272 L 32 264 L 32 264 L 32 232 L 32 232 L 32 228 L 32 228 L 35 226 L 35 226 L 96 172 L 96 172 L 96 144 L 96 144 L 96 136 L 96 136 L 96 128 L 96 128 Q 97 74 133 37 Q 170 1 224 0 Q 278 1 315 37 Q 351 74 352 128 L 352 136 L 352 136 L 352 144 L 352 144 L 352 172 L 352 172 L 413 226 L 413 226 L 416 228 L 416 228 L 416 232 L 416 232 L 416 264 L 416 264 L 416 272 L 416 272 L 408 272 L 320 272 L 320 256 L 320 256 L 328 256 L 400 256 L 400 236 L 400 236 L 345 187 L 345 187 Z M 284 96 L 331 96 L 284 96 L 331 96 Q 321 61 292 39 L 266 72 L 266 72 L 284 96 L 284 96 Z M 279 30 Q 254 16 224 16 Q 181 17 150 44 Q 120 70 113 112 L 212 112 L 212 112 L 279 30 L 279 30 Z M 212 410 L 134 320 L 212 410 L 134 320 L 76 320 L 76 320 L 22 496 L 22 496 L 426 496 L 426 496 L 372 320 L 372 320 L 314 320 L 314 320 L 236 410 L 236 410 L 224 425 L 224 425 L 212 410 L 212 410 Z M 384 304 L 443 496 L 384 304 L 443 496 L 448 512 L 448 512 L 431 512 L 0 512 L 5 496 L 5 496 L 64 304 L 64 304 L 142 304 L 142 304 L 214 388 L 214 388 L 224 400 L 224 400 L 235 388 L 235 388 L 306 304 L 306 304 L 384 304 L 384 304 Z" />
</svg>