<svg xmlns="http://www.w3.org/2000/svg" viewBox="0 0 512 512">
  <path d="M 165 219 Q 149 204 122 192 Q 94 181 66 174 Q 38 166 18 163 Q 21 180 27 204 Q 35 230 48 258 Q 62 286 83 309 L 97 323 L 97 323 L 81 333 L 81 333 L 26 370 L 26 370 Q 36 377 50 386 Q 69 398 93 407 Q 117 416 144 416 L 160 416 L 160 416 L 160 432 L 160 432 Q 160 450 163 460 Q 170 457 180 453 Q 211 441 247 419 L 248 418 L 248 418 L 248 328 L 248 328 L 248 320 L 248 320 L 264 320 L 264 320 L 264 328 L 264 328 L 264 418 L 264 418 L 265 419 L 265 419 Q 301 441 332 453 Q 342 457 350 460 Q 352 450 352 432 L 352 416 L 352 416 L 368 416 L 368 416 Q 395 416 419 407 Q 443 398 462 386 Q 476 377 486 370 L 431 333 L 431 333 L 415 323 L 415 323 L 429 309 L 429 309 Q 450 286 464 258 Q 477 231 485 204 Q 491 180 493 163 Q 474 166 446 174 Q 418 181 390 193 Q 363 204 347 219 L 320 247 L 320 247 L 320 208 L 320 208 Q 319 162 308 126 Q 297 90 282 64 Q 267 38 256 25 Q 245 38 230 64 Q 215 90 204 126 Q 193 162 192 208 L 192 247 L 192 247 L 165 219 L 165 219 Z M 248 437 Q 212 459 183 469 L 183 469 L 183 469 Q 154 480 152 480 L 152 480 L 152 480 Q 152 480 152 480 Q 152 480 148 468 Q 145 456 144 432 Q 99 430 64 412 Q 30 394 12 379 Q 0 369 0 368 Q 0 368 0 368 L 14 359 L 14 359 L 58 329 L 58 329 L 72 320 L 72 320 Q 66 314 61 308 Q 31 270 18 227 Q 5 185 2 160 Q 0 145 0 144 Q 0 144 0 144 Q 1 144 16 147 Q 42 150 84 162 Q 127 174 160 195 Q 169 201 176 208 Q 176 198 177 187 Q 183 121 206 76 Q 228 31 245 12 Q 255 0 256 0 Q 256 0 256 0 Q 257 0 267 12 Q 284 31 306 76 Q 329 121 335 187 Q 336 197 336 208 Q 343 201 352 195 Q 385 174 428 162 Q 470 150 496 147 Q 511 144 512 144 Q 512 145 510 160 Q 507 185 494 227 Q 481 270 451 308 Q 446 314 440 320 L 454 329 L 454 329 L 498 359 L 498 359 L 512 368 L 512 368 Q 512 369 500 379 Q 482 394 448 412 Q 413 430 368 432 Q 368 456 364 468 Q 361 480 360 480 Q 358 480 329 469 Q 300 459 264 437 L 264 504 L 264 504 L 264 512 L 264 512 L 248 512 L 248 512 L 248 504 L 248 504 L 248 437 L 248 437 Z" />
</svg>