<svg xmlns="http://www.w3.org/2000/svg" viewBox="0 0 576 512">
  <path d="M 384 0 L 192 0 L 384 0 L 192 0 L 192 16 L 192 16 L 214 16 L 214 16 L 154 304 L 154 304 L 80 304 L 64 304 L 64 320 L 64 320 L 64 391 L 64 391 Q 68 388 73 385 Q 74 383 76 382 L 77 381 L 77 381 L 80 380 L 80 380 L 80 320 L 80 320 L 496 320 L 496 320 L 496 380 L 496 380 L 500 382 L 500 382 Q 500 382 500 382 Q 500 382 500 382 Q 506 387 512 391 L 512 320 L 512 320 L 512 304 L 512 304 L 496 304 L 423 304 L 362 16 L 362 16 L 384 16 L 384 16 L 384 0 L 384 0 Z M 346 16 L 359 79 L 346 16 L 359 79 L 288 161 L 288 161 L 217 79 L 217 79 L 231 16 L 231 16 L 346 16 L 346 16 Z M 213 98 L 278 173 L 213 98 L 278 173 L 172 296 L 172 296 L 213 98 L 213 98 Z M 288 185 L 391 304 L 288 185 L 391 304 L 185 304 L 185 304 L 288 185 L 288 185 Z M 404 296 L 299 173 L 404 296 L 299 173 L 363 98 L 363 98 L 404 296 L 404 296 Z M 97 427 L 96 426 L 97 427 L 96 426 L 95 427 L 95 427 Q 95 428 94 429 Q 88 437 82 445 Q 75 454 62 466 Q 49 478 33 487 Q 17 496 0 496 L 0 512 L 0 512 Q 22 511 40 501 Q 59 491 73 478 Q 88 463 96 453 Q 104 463 119 478 Q 133 491 152 501 Q 170 511 192 512 Q 214 511 232 501 Q 251 491 265 478 Q 280 463 288 453 Q 296 463 311 478 Q 325 491 344 501 Q 362 511 384 512 Q 406 511 424 501 Q 443 491 457 478 Q 472 463 480 453 Q 488 463 503 478 Q 517 491 536 501 Q 554 511 576 512 L 576 496 L 576 496 Q 559 496 543 487 Q 527 478 514 466 Q 501 454 494 445 Q 487 437 481 428 Q 481 427 481 427 L 480 426 L 480 426 L 480 427 L 480 427 Q 479 428 478 429 Q 473 437 466 445 Q 459 454 446 466 Q 433 478 417 487 Q 401 496 384 496 Q 367 496 351 487 Q 335 478 322 466 Q 309 454 302 445 Q 295 437 289 428 Q 289 427 289 427 Q 289 427 288 426 Q 288 426 288 426 L 288 427 L 288 427 Q 287 427 287 428 Q 281 437 274 445 Q 267 454 254 466 Q 241 478 225 487 Q 209 496 192 496 Q 175 496 159 487 Q 143 478 130 466 Q 117 454 110 445 Q 103 437 97 428 Q 97 427 97 427 L 97 427 Z" />
</svg>