<svg xmlns="http://www.w3.org/2000/svg" viewBox="0 0 640 512">
  <path d="M 497 363 L 512 128 L 497 363 L 512 128 L 194 128 L 194 128 L 153 96 L 153 96 L 544 96 L 544 96 L 544 32 L 544 32 L 416 32 L 416 32 L 400 0 L 400 0 L 240 0 L 240 0 L 224 32 L 224 32 L 96 32 L 96 32 L 96 52 L 96 52 L 48 15 L 48 15 L 29 0 L 29 0 L 0 38 L 0 38 L 19 53 L 19 53 L 592 497 L 592 497 L 611 512 L 611 512 L 640 474 L 640 474 L 621 459 L 621 459 L 497 363 L 497 363 Z M 490 482 L 133 200 L 490 482 L 133 200 L 152 512 L 152 512 L 488 512 L 488 512 L 490 482 L 490 482 Z" />
</svg>