<svg xmlns="http://www.w3.org/2000/svg" viewBox="0 0 484 512">
  <path d="M 80 96 Q 103 81 104 52 Q 103 30 89 15 Q 74 1 52 0 Q 30 1 15 15 Q 1 30 0 52 Q 1 78 20 93 L 20 96 L 20 96 L 20 144 L 20 144 L 20 400 L 20 400 L 20 448 L 20 448 L 20 512 L 20 512 L 68 512 L 68 512 L 68 448 L 68 448 L 436 448 L 484 448 L 484 416 L 484 416 L 477 400 L 477 400 L 420 272 L 420 272 L 477 144 L 477 144 L 484 128 L 484 128 L 484 96 L 484 96 L 436 96 L 80 96 Z M 68 400 L 68 144 L 68 400 L 68 144 L 424 144 L 424 144 L 376 253 L 376 253 L 368 272 L 368 272 L 376 292 L 376 292 L 424 400 L 424 400 L 68 400 L 68 400 Z" />
</svg>