<svg xmlns="http://www.w3.org/2000/svg" viewBox="0 0 448 512">
  <path d="M 144 0 L 152 0 L 144 0 L 304 0 L 304 8 L 304 8 L 304 80 L 304 80 L 320 80 L 320 80 Q 374 81 411 117 Q 447 154 448 208 L 448 496 L 448 496 L 448 512 L 448 512 L 432 512 L 0 512 L 0 496 L 0 496 L 0 208 L 0 208 Q 1 154 37 117 Q 74 81 128 80 L 144 80 L 144 80 L 144 8 L 144 8 L 144 0 L 144 0 Z M 96 496 L 352 496 L 96 496 L 352 496 L 352 392 L 352 392 L 96 392 L 96 392 L 96 496 L 96 496 Z M 368 496 L 432 496 L 368 496 L 432 496 L 432 208 L 432 208 Q 431 160 399 129 Q 368 97 320 96 L 128 96 L 128 96 Q 80 97 49 129 Q 17 160 16 208 L 16 496 L 16 496 L 80 496 L 80 496 L 80 384 L 80 384 L 80 296 L 80 296 L 80 288 L 80 288 L 88 288 L 368 288 L 368 296 L 368 296 L 368 384 L 368 384 L 368 496 L 368 496 Z M 288 16 L 160 16 L 288 16 L 160 16 L 160 80 L 160 80 L 288 80 L 288 80 L 288 16 L 288 16 Z M 136 192 L 312 192 L 136 192 L 320 192 L 320 208 L 320 208 L 312 208 L 128 208 L 128 192 L 128 192 L 136 192 L 136 192 Z M 352 376 L 352 304 L 352 376 L 352 304 L 96 304 L 96 304 L 96 376 L 96 376 L 352 376 L 352 376 Z" />
</svg>