<svg xmlns="http://www.w3.org/2000/svg" viewBox="0 0 512 512">
  <path d="M 256 16 Q 189 17 135 49 L 135 49 L 135 49 Q 81 81 49 135 L 49 135 L 49 135 Q 17 189 16 256 Q 17 323 49 377 Q 81 431 135 463 Q 189 495 256 496 Q 304 496 346 479 L 353 493 L 353 493 Q 308 512 256 512 Q 184 511 127 477 Q 69 443 35 385 Q 1 328 0 256 Q 1 184 35 127 Q 69 69 127 35 Q 184 1 256 0 Q 328 1 385 35 Q 443 69 477 127 Q 511 184 512 256 Q 512 308 493 353 L 479 346 L 479 346 Q 496 304 496 256 Q 495 189 463 135 Q 431 81 377 49 Q 323 17 256 16 L 256 16 Z M 160 208 Q 162 193 176 192 Q 191 193 192 208 Q 191 223 176 224 Q 162 223 160 208 L 160 208 Z M 320 208 Q 322 193 336 192 Q 351 193 352 208 Q 351 223 336 224 Q 322 223 320 208 L 320 208 Z M 383 342 L 388 345 L 383 342 L 388 345 L 508 409 L 508 409 L 512 411 L 512 411 L 512 416 L 512 416 L 512 456 L 512 456 L 512 459 L 512 459 L 510 462 L 510 462 L 462 510 L 462 510 L 459 512 L 459 512 L 456 512 L 411 512 L 409 508 L 409 508 L 345 388 L 345 388 L 342 383 L 342 383 L 346 378 L 346 378 L 378 346 L 378 346 L 383 342 L 383 342 Z M 386 362 L 362 386 L 386 362 L 362 386 L 421 496 L 421 496 L 453 496 L 453 496 L 496 453 L 496 453 L 496 421 L 496 421 L 386 362 L 386 362 Z M 144 328 L 144 376 L 144 328 L 144 376 L 144 384 L 144 384 L 128 384 L 128 384 L 128 376 L 128 376 L 128 328 L 128 328 L 128 320 L 128 320 L 144 320 L 144 320 L 144 328 L 144 328 Z M 208 320 L 208 328 L 208 320 L 208 328 L 208 376 L 208 376 L 208 384 L 208 384 L 192 384 L 192 384 L 192 376 L 192 376 L 192 328 L 192 328 L 192 320 L 192 320 L 208 320 L 208 320 Z M 272 328 L 272 376 L 272 328 L 272 376 L 272 384 L 272 384 L 256 384 L 256 384 L 256 376 L 256 376 L 256 328 L 256 328 L 256 320 L 256 320 L 272 320 L 272 320 L 272 328 L 272 328 Z M 336 320 L 336 328 L 336 320 L 336 328 L 336 352 L 336 352 L 336 360 L 336 360 L 320 360 L 320 360 L 320 352 L 320 352 L 320 328 L 320 328 L 320 320 L 320 320 L 336 320 L 336 320 Z M 462 446 L 446 462 L 462 446 L 446 462 L 440 467 L 440 467 L 429 456 L 429 456 L 434 450 L 434 450 L 450 434 L 450 434 L 456 429 L 456 429 L 467 440 L 467 440 L 462 446 L 462 446 Z" />
</svg>