<svg xmlns="http://www.w3.org/2000/svg" viewBox="0 0 640 384">
  <path d="M 187 80 L 191 77 L 187 80 L 191 77 L 279 19 L 279 19 Q 283 16 288 16 L 352 16 L 352 16 Q 357 16 361 19 L 449 77 L 449 77 L 453 80 L 453 80 L 458 80 L 528 80 L 528 96 L 528 96 L 528 160 L 528 160 Q 526 238 479 294 L 478 294 L 478 294 L 478 295 L 478 295 Q 449 329 409 348 Q 368 368 320 368 Q 272 368 231 348 Q 191 329 162 295 L 162 294 L 162 294 L 161 294 L 161 294 Q 114 238 112 160 L 112 96 L 112 96 L 112 80 L 112 80 L 128 80 L 187 80 Z M 182 64 L 136 64 L 182 64 L 0 64 L 0 72 L 0 72 L 0 264 L 0 264 L 0 270 L 0 270 L 6 272 L 6 272 L 150 308 L 150 308 L 152 308 L 152 308 Q 183 343 226 364 Q 269 384 320 384 Q 371 384 414 364 Q 457 343 488 308 L 490 308 L 490 308 L 634 272 L 634 272 L 640 270 L 640 270 L 640 264 L 640 264 L 640 72 L 640 72 L 640 64 L 640 64 L 632 64 L 458 64 L 370 5 L 370 5 Q 362 0 352 0 L 288 0 L 288 0 Q 278 0 270 5 L 182 64 L 182 64 Z M 16 80 L 96 80 L 16 80 L 96 80 L 96 96 L 96 96 L 96 160 L 96 160 Q 97 232 136 288 L 16 258 L 16 258 L 16 80 L 16 80 Z M 624 258 L 504 288 L 624 258 L 504 288 Q 543 232 544 160 L 544 96 L 544 96 L 544 80 L 544 80 L 624 80 L 624 80 L 624 258 L 624 258 Z M 208 128 L 200 128 L 208 128 L 200 128 L 200 144 L 200 144 L 208 144 L 440 144 L 440 128 L 440 128 L 432 128 L 208 128 Z M 200 192 L 200 208 L 200 192 L 200 208 L 208 208 L 440 208 L 440 192 L 440 192 L 432 192 L 200 192 Z M 240 256 L 232 256 L 240 256 L 232 256 L 232 272 L 232 272 L 240 272 L 408 272 L 408 256 L 408 256 L 400 256 L 240 256 Z" />
</svg>