<svg xmlns="http://www.w3.org/2000/svg" viewBox="0 0 448 512">
  <path d="M 8 0 L 0 0 L 8 0 L 0 0 L 0 16 L 0 16 L 8 16 L 448 16 L 448 0 L 448 0 L 440 0 L 8 0 Z M 32 48 L 32 210 L 32 48 L 32 210 Q 28 212 24 214 Q 2 227 0 248 Q 1 298 22 336 Q 43 373 77 398 Q 83 403 89 407 L 68 496 L 68 496 L 64 512 L 64 512 L 80 512 L 384 512 L 380 496 L 380 496 L 359 407 L 359 407 Q 365 403 371 398 Q 405 373 426 336 Q 447 298 448 248 Q 446 227 424 214 Q 420 212 416 210 Q 416 210 416 210 L 416 48 L 416 48 L 400 48 L 400 48 L 400 203 L 400 203 Q 386 197 371 193 Q 338 185 300 180 Q 261 176 224 176 Q 187 176 148 180 Q 110 185 78 193 Q 62 197 48 203 L 48 48 L 48 48 L 32 48 L 32 48 Z M 345 415 L 364 496 L 345 415 L 364 496 L 84 496 L 84 496 L 103 415 L 103 415 Q 164 448 224 448 Q 284 448 345 415 L 345 415 Z M 87 386 Q 33 347 18 278 Q 21 280 24 282 Q 24 282 24 282 Q 45 294 77 303 Q 110 311 148 316 Q 187 320 224 320 Q 261 320 300 316 Q 338 311 371 303 Q 403 294 424 282 Q 427 280 430 278 Q 415 347 361 386 Q 330 409 293 420 Q 257 432 224 432 Q 191 432 155 420 Q 118 409 87 386 L 87 386 Z M 416 268 Q 398 279 366 287 Q 335 295 298 300 Q 261 304 224 304 Q 187 304 150 300 Q 113 295 82 287 Q 50 279 32 268 Q 15 257 16 248 Q 15 239 32 228 Q 50 217 82 209 Q 113 201 150 196 Q 187 192 224 192 Q 261 192 298 196 Q 335 201 366 209 Q 398 217 416 228 Q 433 239 432 248 Q 433 257 416 268 L 416 268 Z M 104 80 L 96 80 L 104 80 L 96 80 L 96 96 L 96 96 L 104 96 L 160 96 L 160 80 L 160 80 L 152 80 L 104 80 Z" />
</svg>