<svg xmlns="http://www.w3.org/2000/svg" viewBox="0 0 512 400">
  <path d="M 512 80 L 512 72 L 512 80 L 512 72 L 504 72 L 265 72 L 206 3 L 206 3 L 204 0 L 204 0 L 200 0 L 146 0 Q 109 0 78 18 Q 47 36 28 69 L 18 87 L 18 87 Q 0 118 0 154 L 0 296 L 0 296 Q 1 340 30 370 Q 60 399 104 400 L 120 400 L 264 400 L 264 392 L 264 392 L 264 336 L 264 336 L 288 336 L 296 336 L 296 328 L 296 328 L 296 264 L 296 264 L 320 264 L 328 264 L 328 256 L 328 256 L 328 176 L 328 176 L 504 176 L 512 176 L 512 168 L 512 168 L 512 80 L 512 80 Z M 244 72 L 168 72 L 244 72 L 160 72 L 160 88 L 160 88 L 168 88 L 496 88 L 496 160 L 496 160 L 320 160 L 312 160 L 312 168 L 312 168 L 312 248 L 312 248 L 288 248 L 280 248 L 280 256 L 280 256 L 280 320 L 280 320 L 256 320 L 248 320 L 248 328 L 248 328 L 248 384 L 248 384 L 208 384 L 104 384 Q 67 383 42 358 Q 17 333 16 296 L 16 154 L 16 154 Q 16 122 32 95 L 42 77 L 42 77 Q 59 48 86 32 Q 114 16 146 16 L 196 16 L 196 16 L 244 72 L 244 72 Z" />
</svg>