<svg xmlns="http://www.w3.org/2000/svg" viewBox="0 0 346 511">
  <path d="M 291 374 L 308 357 L 291 374 L 308 357 L 274 323 L 274 323 L 257 340 L 257 340 L 178 419 L 178 419 L 178 48 L 178 48 L 322 48 L 346 48 L 346 0 L 346 0 L 322 0 L 130 0 L 130 24 L 130 24 L 130 419 L 130 419 L 51 340 L 51 340 L 34 323 L 34 323 L 0 357 L 0 357 L 17 374 L 17 374 L 130 487 L 130 487 L 130 488 L 130 488 L 131 488 L 131 488 L 137 494 L 137 494 L 154 511 L 154 511 L 171 494 L 171 494 L 177 488 L 177 488 L 178 488 L 178 488 L 178 487 L 178 487 L 291 374 L 291 374 Z" />
</svg>