<svg xmlns="http://www.w3.org/2000/svg" viewBox="0 0 496 512">
  <path d="M 16 496 L 144 496 L 16 496 L 144 496 L 144 512 L 144 512 L 16 512 L 0 512 L 0 496 L 0 496 L 0 16 L 0 16 L 0 0 L 0 0 L 16 0 L 224 0 L 384 160 L 384 160 L 384 304 L 384 304 L 368 304 L 368 304 L 368 176 L 368 176 L 216 176 L 208 176 L 208 168 L 208 168 L 208 16 L 208 16 L 16 16 L 16 16 L 16 496 L 16 496 Z M 361 160 L 224 23 L 361 160 L 224 23 L 224 160 L 224 160 L 361 160 L 361 160 Z M 216 376 Q 216 390 224 401 L 240 426 L 240 426 L 257 401 L 257 401 Q 264 390 264 376 L 264 368 L 264 368 L 280 368 L 280 368 L 280 376 L 280 376 Q 280 394 270 410 L 250 440 L 250 440 L 270 470 L 270 470 Q 280 486 280 504 L 280 512 L 280 512 L 264 512 L 264 512 L 264 504 L 264 504 Q 264 490 257 479 L 240 454 L 240 454 L 224 479 L 224 479 Q 216 490 216 504 L 216 512 L 216 512 L 200 512 L 200 512 L 200 504 L 200 504 Q 200 486 210 470 L 230 440 L 230 440 L 210 410 L 210 410 Q 200 394 200 376 L 200 368 L 200 368 L 216 368 L 216 368 L 216 376 L 216 376 Z M 328 512 L 328 504 L 328 512 L 328 504 L 328 376 L 328 376 L 328 368 L 328 368 L 344 368 L 344 368 L 344 376 L 344 376 L 344 496 L 344 496 L 376 496 L 384 496 L 384 512 L 384 512 L 376 512 L 328 512 Z M 416 406 Q 416 390 427 379 L 427 379 L 427 379 Q 438 368 454 368 L 480 368 L 488 368 L 488 384 L 488 384 L 480 384 L 454 384 Q 434 386 432 406 Q 432 419 444 425 L 475 441 L 475 441 Q 495 452 496 474 Q 496 490 485 501 Q 474 512 458 512 L 432 512 L 424 512 L 424 496 L 424 496 L 432 496 L 458 496 Q 478 494 480 474 Q 480 461 468 455 L 437 439 L 437 439 Q 417 428 416 406 L 416 406 Z" />
</svg>