<svg xmlns="http://www.w3.org/2000/svg" viewBox="0 0 384 512">
  <path d="M 56 0 L 48 0 L 56 0 L 48 0 L 48 8 L 48 8 L 48 135 L 48 135 L 1 253 L 1 253 L 0 255 L 0 255 L 0 256 L 0 256 L 0 504 L 0 504 L 0 512 L 0 512 L 8 512 L 384 512 L 384 504 L 384 504 L 384 256 L 384 256 L 384 255 L 384 255 L 383 253 L 383 253 L 336 135 L 336 135 L 336 8 L 336 8 L 336 0 L 336 0 L 328 0 L 272 0 L 272 8 L 272 8 L 272 80 L 272 80 Q 271 114 249 137 Q 226 159 192 160 Q 158 159 135 137 Q 113 114 112 80 L 112 8 L 112 8 L 112 0 L 112 0 L 104 0 L 56 0 Z M 96 80 Q 97 121 124 148 L 124 148 L 124 148 Q 151 175 192 176 Q 233 175 260 148 Q 287 121 288 80 L 288 16 L 288 16 L 320 16 L 320 16 L 320 136 L 320 136 L 320 138 L 320 138 L 321 139 L 321 139 L 333 169 L 333 169 L 331 169 L 331 169 L 16 406 L 16 406 L 16 258 L 16 258 L 63 139 L 63 139 L 64 138 L 64 138 L 64 136 L 64 136 L 64 16 L 64 16 L 96 16 L 96 16 L 96 80 L 96 80 Z M 16 426 L 21 422 L 16 426 L 21 422 L 339 184 L 339 184 L 353 221 L 353 221 L 347 226 L 347 226 L 32 466 L 32 466 L 16 478 L 16 478 L 16 426 L 16 426 Z M 360 236 L 368 258 L 360 236 L 368 258 L 368 496 L 368 496 L 19 496 L 19 496 L 42 478 L 42 478 L 357 238 L 357 238 L 360 236 L 360 236 Z" />
</svg>