<svg xmlns="http://www.w3.org/2000/svg" viewBox="0 0 640 352">
  <path d="M 603 0 L 608 0 L 603 0 L 640 0 L 640 8 L 640 8 L 640 160 L 640 160 L 640 328 L 640 328 L 640 336 L 640 336 L 632 336 L 603 336 L 601 332 L 601 332 Q 601 332 601 332 Q 601 332 601 332 Q 601 332 601 332 Q 601 332 601 332 L 601 331 L 601 331 Q 601 331 601 331 Q 601 331 600 330 Q 600 330 600 330 Q 599 329 598 327 Q 595 321 589 313 Q 577 294 553 270 Q 528 246 490 227 Q 452 209 400 208 L 368 208 L 368 208 L 368 336 L 368 336 L 400 336 L 400 336 Q 427 335 445 317 Q 463 299 464 272 Q 464 260 460 250 Q 470 253 479 258 Q 480 265 480 272 Q 479 306 457 329 Q 434 351 400 352 L 368 352 L 144 352 Q 110 351 88 329 Q 65 306 64 272 Q 66 232 96 208 L 16 208 L 16 208 L 16 216 L 16 216 L 16 224 L 16 224 L 0 224 L 0 224 L 0 216 L 0 216 L 0 120 L 0 120 L 0 112 L 0 112 L 16 112 L 16 112 L 16 120 L 16 120 L 16 128 L 16 128 L 176 128 L 176 128 L 176 96 L 176 96 L 176 88 L 176 88 L 192 88 L 192 88 L 192 96 L 192 96 L 192 128 L 192 128 L 264 128 L 264 128 L 264 96 L 264 96 L 264 88 L 264 88 L 280 88 L 280 88 L 280 96 L 280 96 L 280 128 L 280 128 L 352 128 L 352 128 L 352 96 L 352 96 L 352 88 L 352 88 L 368 88 L 368 88 L 368 96 L 368 96 L 368 128 L 368 128 L 400 128 L 400 128 Q 452 127 490 109 Q 528 90 553 66 Q 577 42 589 24 Q 595 15 598 10 Q 599 8 599 7 Q 600 6 600 6 Q 601 5 601 5 L 601 5 L 601 5 Q 601 5 601 5 Q 601 5 601 5 Q 601 5 601 5 Q 601 5 601 5 Q 601 5 601 5 Q 601 5 601 5 Q 601 5 601 5 Q 601 5 601 5 L 603 0 L 603 0 Z M 144 192 L 176 192 L 144 192 L 400 192 Q 456 193 497 213 Q 537 232 564 258 Q 590 284 602 304 Q 609 313 612 319 L 613 320 L 613 320 L 624 320 L 624 320 L 624 160 L 624 160 L 624 16 L 624 16 L 613 16 L 613 16 L 612 18 L 612 18 Q 609 23 602 33 Q 590 52 564 78 Q 537 104 497 123 Q 456 143 400 144 L 368 144 L 16 144 L 16 192 L 16 192 L 144 192 L 144 192 Z M 144 208 Q 117 209 99 227 L 99 227 L 99 227 Q 81 245 80 272 Q 81 299 99 317 Q 117 335 144 336 L 176 336 L 176 336 L 176 208 L 176 208 L 144 208 L 144 208 Z M 192 208 L 192 336 L 192 208 L 192 336 L 264 336 L 264 336 L 264 208 L 264 208 L 192 208 L 192 208 Z M 280 208 L 280 336 L 280 208 L 280 336 L 352 336 L 352 336 L 352 208 L 352 208 L 280 208 L 280 208 Z" />
</svg>