<svg xmlns="http://www.w3.org/2000/svg" viewBox="0 0 512 512">
  <path d="M 230.4 115.2 L 243.2 115.2 L 243.2 102.4 L 230.4 102.4 L 230.4 115.2 L 230.4 115.2 Z M 230.4 134.4 L 236 145.6 L 243.2 141.6 L 243.2 134.4 L 230.4 134.4 L 230.4 134.4 Z M 281.6 134.4 L 268.8 134.4 L 268.8 141.6 L 276 145.6 L 281.6 133.6 L 281.6 134.4 Z M 281.6 115.2 L 281.6 102.4 L 268.8 102.4 L 268.8 115.2 L 281.6 115.2 L 281.6 115.2 Z M 396.8 115.2 L 409.6 115.2 L 409.6 102.4 L 396.8 102.4 L 396.8 115.2 L 396.8 115.2 Z M 396.8 230.4 L 384 230.4 L 384 243.2 L 396.8 243.2 L 396.8 230.4 L 396.8 230.4 Z M 427.2 230.4 L 427.2 243.2 L 436 243.2 L 439.2 235.2 L 427.2 230.4 L 427.2 230.4 Z M 427.2 281.6 L 439.2 276.8 L 436 268.8 L 427.2 268.8 L 427.2 281.6 L 427.2 281.6 Z M 396.8 281.6 L 396.8 268.8 L 384 268.8 L 384 281.6 L 396.8 281.6 L 396.8 281.6 Z M 396.8 396.8 L 396.8 409.6 L 409.6 409.6 L 409.6 396.8 L 396.8 396.8 L 396.8 396.8 Z M 281.6 396.8 L 268.8 396.8 L 268.8 409.6 L 281.6 409.6 L 281.6 396.8 L 281.6 396.8 Z M 281.6 378.4 L 276 366.4 L 268.8 370.4 L 268.8 377.6 L 281.6 377.6 L 281.6 378.4 Z M 230.4 378.4 L 243.2 378.4 L 243.2 370.4 L 236 366.4 L 230.4 378.4 L 230.4 378.4 Z M 230.4 396.8 L 230.4 409.6 L 243.2 409.6 L 243.2 396.8 L 230.4 396.8 L 230.4 396.8 Z M 115.2 396.8 L 102.4 396.8 L 102.4 409.6 L 115.2 409.6 L 115.2 396.8 L 115.2 396.8 Z M 115.2 281.6 L 128 281.6 L 128 268.8 L 115.2 268.8 L 115.2 281.6 L 115.2 281.6 Z M 84.8 281.6 L 84.8 268.8 L 76 268.8 L 72.8 276.8 L 84.8 281.6 L 84.8 281.6 Z M 84.8 230.4 L 72.8 235.2 L 76 243.2 L 84.8 243.2 L 84.8 230.4 L 84.8 230.4 Z M 115.2 230.4 L 115.2 243.2 L 128 243.2 L 128 230.4 L 115.2 230.4 L 115.2 230.4 Z M 115.2 115.2 L 115.2 102.4 L 102.4 102.4 L 102.4 115.2 L 115.2 115.2 L 115.2 115.2 Z M 217.6 115.2 L 217.6 134.4 L 243.2 134.4 L 243.2 115.2 L 217.6 115.2 L 217.6 115.2 Z M 224.8 122.4 Q 194.4 138.4 192 172.8 L 217.6 172.8 Q 218.4 155.2 236 145.6 L 224.8 122.4 L 224.8 122.4 Z M 192 172.8 Q 192.8 198.4 211.2 214.4 L 211.2 214.4 Q 229.6 229.6 256 230.4 L 256 204.8 Q 238.4 204 228 195.2 Q 217.6 185.6 217.6 172.8 L 192 172.8 L 192 172.8 Z M 256 230.4 Q 282.4 229.6 300.8 214.4 L 300.8 214.4 Q 319.2 198.4 320 172.8 L 294.4 172.8 Q 294.4 185.6 284 195.2 Q 273.6 204 256 204.8 L 256 230.4 L 256 230.4 Z M 320 172.8 Q 317.6 138.4 287.2 122.4 L 276 145.6 Q 293.6 155.2 294.4 172.8 L 320 172.8 L 320 172.8 Z M 294.4 134.4 L 294.4 115.2 L 268.8 115.2 L 268.8 134.4 L 294.4 134.4 L 294.4 134.4 Z M 281.6 128 L 396.8 128 L 396.8 102.4 L 281.6 102.4 L 281.6 128 L 281.6 128 Z M 384 115.2 L 384 230.4 L 409.6 230.4 L 409.6 115.2 L 384 115.2 L 384 115.2 Z M 396.8 243.2 L 427.2 243.2 L 427.2 217.6 L 396.8 217.6 L 396.8 243.2 L 396.8 243.2 Z M 439.2 235.2 Q 448.8 217.6 460.8 217.6 L 460.8 192 Q 444.8 192 433.6 201.6 Q 421.6 211.2 416 225.6 L 439.2 235.2 L 439.2 235.2 Z M 460.8 217.6 Q 469.6 217.6 477.6 227.2 Q 485.6 238.4 486.4 256 L 512 256 Q 512 230.4 498.4 212 Q 484.8 193.6 460.8 192 L 460.8 217.6 L 460.8 217.6 Z M 486.4 256 Q 485.6 273.6 477.6 284.8 Q 469.6 294.4 460.8 294.4 L 460.8 320 Q 484.8 318.4 498.4 300 Q 512 281.6 512 256 L 486.4 256 L 486.4 256 Z M 460.8 294.4 Q 448.8 294.4 439.2 276.8 L 416 286.4 Q 421.6 300.8 433.6 310.4 Q 444.8 319.2 460.8 320 L 460.8 294.4 L 460.8 294.4 Z M 427.2 268.8 L 396.8 268.8 L 396.8 294.4 L 427.2 294.4 L 427.2 268.8 L 427.2 268.8 Z M 384 281.6 L 384 396.8 L 409.6 396.8 L 409.6 281.6 L 384 281.6 L 384 281.6 Z M 396.8 384 L 281.6 384 L 281.6 409.6 L 396.8 409.6 L 396.8 384 L 396.8 384 Z M 294.4 396.8 L 294.4 378.4 L 268.8 378.4 L 268.8 396.8 L 294.4 396.8 L 294.4 396.8 Z M 287.2 389.6 Q 317.6 373.6 320 339.2 L 294.4 339.2 Q 293.6 356.8 276 366.4 L 287.2 389.6 L 287.2 389.6 Z M 320 339.2 Q 319.2 313.6 300.8 297.6 L 300.8 297.6 Q 282.4 282.4 256 281.6 L 256 307.2 Q 273.6 308 284 316.8 Q 294.4 326.4 294.4 339.2 L 320 339.2 L 320 339.2 Z M 256 281.6 Q 229.6 282.4 211.2 297.6 L 211.2 297.6 Q 192.8 313.6 192 339.2 L 217.6 339.2 Q 217.6 326.4 228 316.8 Q 238.4 308 256 307.2 L 256 281.6 L 256 281.6 Z M 192 339.2 Q 194.4 373.6 224.8 389.6 L 236 366.4 Q 218.4 356.8 217.6 339.2 L 192 339.2 L 192 339.2 Z M 217.6 378.4 L 217.6 396.8 L 243.2 396.8 L 243.2 378.4 L 217.6 378.4 L 217.6 378.4 Z M 230.4 384 L 115.2 384 L 115.2 409.6 L 230.4 409.6 L 230.4 384 L 230.4 384 Z M 128 396.8 L 128 281.6 L 102.4 281.6 L 102.4 396.8 L 128 396.8 L 128 396.8 Z M 115.2 268.8 L 84.8 268.8 L 84.8 294.4 L 115.2 294.4 L 115.2 268.8 L 115.2 268.8 Z M 72.8 276.8 Q 63.2 294.4 51.2 294.4 L 51.2 320 Q 67.2 320 78.4 310.4 Q 90.4 300.8 96 286.4 L 72.8 276.8 L 72.8 276.8 Z M 51.2 294.4 Q 42.4 294.4 34.4 284.8 Q 26.4 273.6 25.6 256 L 0 256 Q 0 281.6 13.6 300 Q 27.2 318.4 51.2 320 L 51.2 294.4 L 51.2 294.4 Z M 25.6 256 Q 26.4 238.4 34.4 227.2 Q 42.4 217.6 51.2 217.6 L 51.2 192 Q 27.2 193.6 13.6 212 Q 0 230.4 0 256 L 25.6 256 L 25.6 256 Z M 51.2 217.6 Q 63.2 217.6 72.8 235.2 L 96 225.6 Q 90.4 211.2 78.4 201.6 Q 67.2 192 51.2 192 L 51.2 217.6 L 51.2 217.6 Z M 84.8 243.2 L 115.2 243.2 L 115.2 217.6 L 84.8 217.6 L 84.8 243.2 L 84.8 243.2 Z M 128 230.4 L 128 115.2 L 102.4 115.2 L 102.4 230.4 L 128 230.4 L 128 230.4 Z M 115.2 128 L 230.4 128 L 230.4 102.4 L 115.2 102.4 L 115.2 128 L 115.2 128 Z" />
</svg>