<svg xmlns="http://www.w3.org/2000/svg" viewBox="0 0 512 512">
  <path d="M 473.6 89.6 L 473.6 115.2 L 38.4 115.2 L 38.4 89.6 L 473.6 89.6 L 473.6 89.6 Z M 38.4 51.2 L 0 51.2 L 0 89.6 L 0 115.2 L 0 153.6 L 25.6 153.6 L 25.6 441.6 L 25.6 460.8 L 44.8 460.8 L 108.8 460.8 L 128 460.8 L 128 441.6 L 128 345.6 Q 129.6 291.2 165.6 255.2 Q 201.6 219.2 256 217.6 Q 310.4 219.2 346.4 255.2 Q 382.4 291.2 384 345.6 L 384 441.6 L 384 460.8 L 403.2 460.8 L 467.2 460.8 L 486.4 460.8 L 486.4 441.6 L 486.4 153.6 L 512 153.6 L 512 115.2 L 512 89.6 L 512 51.2 L 473.6 51.2 L 38.4 51.2 L 38.4 51.2 Z M 448 153.6 L 448 422.4 L 422.4 422.4 L 422.4 345.6 Q 420.8 275.2 373.6 228 Q 326.4 180.8 256 179.2 Q 185.6 180.8 138.4 228 Q 91.2 275.2 89.6 345.6 L 89.6 422.4 L 64 422.4 L 64 153.6 L 448 153.6 L 448 153.6 Z M 237.6 256 Q 236 256.8 217.6 273.6 L 217.6 273.6 Q 200 290.4 182.4 316 L 182.4 316 Q 164 341.6 163.2 368 Q 164 407.2 190.4 433.6 Q 216 460 256 460.8 Q 295.2 460 321.6 433.6 Q 348 407.2 348.8 368 Q 348 345.6 334.4 324.8 Q 320.8 303.2 308 289.6 Q 294.4 275.2 293.6 274.4 Q 293.6 274.4 293.6 274.4 Q 292 275.2 275.2 293.6 Q 260.8 276.8 248.8 266.4 Q 237.6 256 237.6 256 L 237.6 256 Z M 256.8 423.2 Q 236 423.2 223.2 411.2 L 223.2 411.2 Q 209.6 400 209.6 378.4 Q 209.6 368 216 356.8 Q 222.4 346.4 235.2 330.4 Q 237.6 332.8 245.6 344 Q 254.4 354.4 262.4 364.8 Q 271.2 376 272 376.8 L 292.8 352 Q 294.4 355.2 296 358.4 Q 296.8 358.4 296.8 359.2 Q 304.8 373.6 301.6 389.6 Q 298.4 404.8 284.8 415.2 Q 272 423.2 256.8 423.2 L 256.8 423.2 Z" />
</svg>