<svg xmlns="http://www.w3.org/2000/svg" viewBox="0 0 438 512">
  <path d="M 43 0 L 39 0 L 43 0 L 39 0 L 37 3 L 37 3 L 5 43 L 5 43 L 0 49 L 0 49 L 12 59 L 12 59 L 17 53 L 17 53 L 47 16 L 47 16 L 211 16 L 211 16 L 211 96 L 211 96 L 75 96 L 59 96 L 59 112 L 59 112 L 59 432 L 59 432 L 59 448 L 59 448 L 75 448 L 112 448 L 53 506 L 53 506 L 48 512 L 48 512 Q 48 512 48 512 Q 48 512 48 512 L 70 512 L 70 512 L 134 448 L 134 448 L 304 448 L 304 448 L 368 512 L 368 512 L 390 512 L 390 512 L 385 506 L 385 506 L 326 448 L 326 448 L 363 448 L 379 448 L 379 432 L 379 432 L 379 112 L 379 112 L 379 96 L 379 96 L 363 96 L 227 96 L 227 16 L 227 16 L 391 16 L 391 16 L 421 53 L 421 53 L 426 59 L 426 59 L 438 49 L 438 49 L 433 43 L 433 43 L 401 3 L 401 3 L 399 0 L 399 0 L 395 0 L 43 0 Z M 75 112 L 211 112 L 75 112 L 363 112 L 363 432 L 363 432 L 75 432 L 75 432 L 75 112 L 75 112 Z M 155 336 Q 170 337 171 352 Q 170 367 155 368 Q 140 367 139 352 Q 140 337 155 336 L 155 336 Z M 155 384 Q 169 384 178 375 L 178 375 L 178 375 Q 187 366 187 352 Q 187 338 178 329 Q 169 320 155 320 Q 141 320 132 329 Q 123 338 123 352 Q 123 366 132 375 Q 141 384 155 384 L 155 384 Z M 267 352 Q 268 337 283 336 Q 298 337 299 352 Q 298 367 283 368 Q 268 367 267 352 L 267 352 Z M 315 352 Q 315 338 306 329 L 306 329 L 306 329 Q 297 320 283 320 Q 269 320 260 329 Q 251 338 251 352 Q 251 366 260 375 Q 269 384 283 384 Q 297 384 306 375 Q 315 366 315 352 L 315 352 Z M 299 176 L 299 240 L 299 176 L 299 240 L 139 240 L 139 240 L 139 176 L 139 176 L 299 176 L 299 176 Z M 139 160 L 123 160 L 139 160 L 123 160 L 123 176 L 123 176 L 123 240 L 123 240 L 123 256 L 123 256 L 139 256 L 315 256 L 315 240 L 315 240 L 315 176 L 315 176 L 315 160 L 315 160 L 299 160 L 139 160 Z" />
</svg>