<svg xmlns="http://www.w3.org/2000/svg" viewBox="0 0 512 512">
  <path d="M 160.68616 26.448343 Q 134.73685 1.497076 95.81287 0.49902534 Q 54.892788 1.497076 27.94542 28.444445 Q 0.9980507 55.39181 0 96.31189 Q 0 125.25536 14.97076 148.21053 L 160.68616 26.448343 L 160.68616 26.448343 Z M 255.50098 511.50098 Q 332.3509 510.50293 389.23978 466.58868 L 408.20273 486.5497 L 431.1579 508.50684 L 476.0702 463.59454 L 454.11307 440.63937 L 434.15204 421.67642 Q 478.06628 364.78754 479.06433 287.93762 Q 478.06628 225.06042 448.12476 175.1579 Q 419.18127 124.25731 368.2807 95.31384 Q 318.37817 65.37232 255.50098 64.37427 Q 192.62378 65.37232 142.72125 95.31384 Q 91.82066 124.25731 62.877193 175.1579 Q 32.935673 225.06042 31.937622 287.93762 Q 32.935673 364.78754 76.8499 421.67642 L 56.88889 440.63937 L 34.931774 463.59454 L 79.844055 508.50684 L 102.79922 486.5497 L 121.762184 466.58868 Q 178.65108 510.50293 255.50098 511.50098 L 255.50098 511.50098 Z M 497.02924 148.21053 Q 512 125.25536 512 96.31189 Q 511.00195 55.39181 484.0546 28.444445 Q 457.1072 1.497076 416.18713 0.49902534 Q 378.2612 1.497076 351.31384 26.448343 L 497.02924 148.21053 L 497.02924 148.21053 Z M 279.4542 184.14035 L 279.4542 277.95712 L 320.37427 318.8772 L 337.34113 335.84406 L 303.4074 369.77777 L 286.44055 352.8109 L 238.53412 304.90448 L 231.54776 297.91812 L 231.54776 287.93762 L 231.54776 184.14035 L 231.54776 160.18713 L 279.4542 160.18713 L 279.4542 184.14035 L 279.4542 184.14035 Z" />
</svg>