<svg xmlns="http://www.w3.org/2000/svg" viewBox="0 0 448 448">
  <path d="M 16 16 L 16 432 L 16 16 L 16 432 L 432 432 L 432 432 L 432 16 L 432 16 L 16 16 L 16 16 Z M 0 0 L 16 0 L 0 0 L 448 0 L 448 16 L 448 16 L 448 432 L 448 432 L 448 448 L 448 448 L 432 448 L 0 448 L 0 432 L 0 432 L 0 16 L 0 16 L 0 0 L 0 0 Z M 261 96 L 285 96 L 261 96 L 285 96 L 211 161 L 211 161 Q 218 160 224 160 Q 265 161 292 188 Q 319 215 320 256 Q 319 297 292 324 Q 265 351 224 352 Q 183 351 156 324 Q 129 297 128 256 Q 128 256 128 256 Q 128 256 128 256 Q 128 231 140 210 Q 148 195 161 184 L 261 96 L 261 96 Z M 224 176 Q 179 177 155 216 Q 133 256 155 296 Q 179 335 224 336 Q 269 335 293 296 Q 315 256 293 216 Q 269 177 224 176 L 224 176 Z" />
</svg>