<svg xmlns="http://www.w3.org/2000/svg" viewBox="0 0 512 502">
  <path d="M 0 259 L 0 267 L 0 259 L 0 267 L 16 267 L 16 267 L 16 259 L 16 259 L 16 99 L 16 99 L 419 99 L 419 99 L 347 165 L 347 165 L 341 171 L 341 171 L 351 182 L 351 182 L 357 177 L 357 177 L 445 97 L 445 97 L 452 91 L 452 91 L 445 85 L 445 85 L 357 5 L 357 5 L 351 0 L 351 0 L 341 12 L 341 12 L 347 17 L 347 17 L 419 83 L 419 83 L 8 83 L 0 83 L 0 91 L 0 91 L 0 259 L 0 259 Z M 512 243 L 512 235 L 512 243 L 512 235 L 496 235 L 496 235 L 496 243 L 496 243 L 496 403 L 496 403 L 93 403 L 93 403 L 165 337 L 165 337 L 171 332 L 171 332 L 160 320 L 160 320 L 155 325 L 155 325 L 67 405 L 67 405 L 60 411 L 60 411 L 67 417 L 67 417 L 155 497 L 155 497 L 161 502 L 161 502 L 171 491 L 171 491 L 165 485 L 165 485 L 93 419 L 93 419 L 504 419 L 512 419 L 512 411 L 512 411 L 512 243 L 512 243 Z" />
</svg>