<svg xmlns="http://www.w3.org/2000/svg" viewBox="0 0 512 512">
  <path d="M 160 416 L 144 416 L 160 416 L 0 416 L 0 400 L 0 400 L 0 16 L 0 16 L 0 0 L 0 0 L 16 0 L 512 0 L 512 16 L 512 16 L 512 400 L 512 400 L 512 416 L 512 416 L 496 416 L 304 416 L 176 501 L 176 501 L 160 512 L 160 512 L 160 493 L 160 493 L 160 432 L 160 432 L 160 416 L 160 416 Z M 160 400 L 176 400 L 160 400 L 176 400 L 176 416 L 176 416 L 176 482 L 176 482 L 295 403 L 295 403 L 299 400 L 299 400 L 304 400 L 496 400 L 496 16 L 496 16 L 16 16 L 16 16 L 16 400 L 16 400 L 160 400 L 160 400 Z M 245 148 L 237 141 L 245 148 L 237 141 Q 224 128 206 128 L 203 128 L 203 128 Q 185 128 173 141 Q 160 153 160 171 Q 160 189 173 202 L 256 282 L 256 282 L 339 202 L 339 202 Q 352 189 352 171 Q 352 153 339 141 Q 327 128 309 128 L 306 128 L 306 128 Q 288 128 275 141 L 267 148 L 267 148 L 256 159 L 256 159 L 245 148 L 245 148 Z M 245 293 L 162 214 L 245 293 L 162 214 Q 144 196 144 171 Q 145 146 161 129 Q 178 113 203 112 L 205 112 L 205 112 Q 230 112 248 129 L 256 137 L 256 137 L 264 129 L 264 129 Q 282 112 306 112 L 309 112 L 309 112 Q 334 113 351 129 Q 367 146 368 171 Q 368 196 350 214 L 267 293 L 267 293 L 256 304 L 256 304 L 245 293 L 245 293 Z" />
</svg>