<svg xmlns="http://www.w3.org/2000/svg" viewBox="0 0 448 496">
  <path d="M 64 176 Q 66 108 111 63 L 111 63 L 111 63 Q 156 18 224 16 Q 292 18 337 63 Q 382 108 384 176 L 384 288 L 384 288 L 272 288 L 272 288 L 272 256 L 272 256 L 272 240 L 272 240 L 256 240 L 176 240 L 176 256 L 176 256 L 176 288 L 176 288 L 176 304 L 176 304 L 192 304 L 400 304 L 400 296 L 400 296 L 400 176 L 400 176 Q 398 101 348 52 Q 299 2 224 0 Q 149 2 100 52 Q 50 101 48 176 L 48 192 L 48 192 L 48 200 L 48 200 L 64 200 L 64 200 L 64 192 L 64 192 L 64 176 L 64 176 Z M 256 288 L 224 288 L 256 288 L 192 288 L 192 256 L 192 256 L 256 256 L 256 256 L 256 288 L 256 288 Z M 60 352 L 388 352 L 60 352 L 388 352 L 427 480 L 427 480 L 22 480 L 22 480 L 60 352 L 60 352 Z M 400 336 L 48 336 L 400 336 L 48 336 L 5 480 L 5 480 L 0 496 L 0 496 L 17 496 L 448 496 L 443 480 L 443 480 L 400 336 L 400 336 Z M 304 254 L 304 276 L 304 254 L 304 276 Q 350 239 352 176 Q 351 122 315 85 Q 278 49 224 48 Q 170 49 133 85 Q 97 122 96 176 Q 98 239 144 276 L 144 254 L 144 254 Q 113 223 112 176 Q 113 128 145 97 Q 176 65 224 64 Q 272 65 303 97 Q 335 128 336 176 Q 335 223 304 254 L 304 254 Z" />
</svg>