<svg xmlns="http://www.w3.org/2000/svg" viewBox="0 0 512 512">
  <path d="M 104 0 L 216 0 L 104 0 L 224 0 L 224 8 L 224 8 L 224 120 L 224 120 L 224 128 L 224 128 L 208 128 L 208 128 L 208 120 L 208 120 L 208 16 L 208 16 L 112 16 L 112 16 L 112 120 L 112 120 L 112 128 L 112 128 L 96 128 L 96 128 L 96 120 L 96 120 L 96 8 L 96 8 L 96 0 L 96 0 L 104 0 L 104 0 Z M 96 176 Q 62 177 39 199 L 39 199 L 39 199 Q 17 222 16 256 L 16 496 L 16 496 L 304 496 L 304 496 L 304 256 L 304 256 Q 303 222 281 199 Q 258 177 224 176 L 96 176 L 96 176 Z M 0 256 Q 1 215 28 188 L 28 188 L 28 188 Q 55 161 96 160 L 224 160 L 224 160 Q 265 161 292 188 Q 319 215 320 256 L 320 496 L 320 496 L 320 512 L 320 512 L 304 512 L 0 512 L 0 496 L 0 496 L 0 256 L 0 256 Z M 160 264 Q 119 265 98 300 Q 78 336 98 372 Q 119 407 160 408 Q 201 407 222 372 Q 242 336 222 300 Q 201 265 160 264 L 160 264 Z M 248 336 Q 246 386 204 412 Q 160 436 116 412 Q 74 386 72 336 Q 74 286 116 260 Q 160 236 204 260 Q 246 286 248 336 L 248 336 Z M 344 0 L 344 8 L 344 0 L 344 8 L 344 40 L 344 40 L 376 40 L 384 40 L 384 56 L 384 56 L 376 56 L 344 56 L 344 88 L 344 88 L 344 96 L 344 96 L 328 96 L 328 96 L 328 88 L 328 88 L 328 56 L 328 56 L 296 56 L 288 56 L 288 40 L 288 40 L 296 40 L 328 40 L 328 8 L 328 8 L 328 0 L 328 0 L 344 0 L 344 0 Z M 472 8 L 472 40 L 472 8 L 472 40 L 504 40 L 512 40 L 512 56 L 512 56 L 504 56 L 472 56 L 472 88 L 472 88 L 472 96 L 472 96 L 456 96 L 456 96 L 456 88 L 456 88 L 456 56 L 456 56 L 424 56 L 416 56 L 416 40 L 416 40 L 424 40 L 456 40 L 456 8 L 456 8 L 456 0 L 456 0 L 472 0 L 472 0 L 472 8 L 472 8 Z M 472 192 L 472 200 L 472 192 L 472 200 L 472 232 L 472 232 L 504 232 L 512 232 L 512 248 L 512 248 L 504 248 L 472 248 L 472 280 L 472 280 L 472 288 L 472 288 L 456 288 L 456 288 L 456 280 L 456 280 L 456 248 L 456 248 L 424 248 L 416 248 L 416 232 L 416 232 L 424 232 L 456 232 L 456 200 L 456 200 L 456 192 L 456 192 L 472 192 L 472 192 Z M 408 104 L 408 136 L 408 104 L 408 136 L 440 136 L 448 136 L 448 152 L 448 152 L 440 152 L 408 152 L 408 184 L 408 184 L 408 192 L 408 192 L 392 192 L 392 192 L 392 184 L 392 184 L 392 152 L 392 152 L 360 152 L 352 152 L 352 136 L 352 136 L 360 136 L 392 136 L 392 104 L 392 104 L 392 96 L 392 96 L 408 96 L 408 96 L 408 104 L 408 104 Z" />
</svg>