<svg xmlns="http://www.w3.org/2000/svg" viewBox="0 0 496 512">
  <path d="M 16 496 L 112 496 L 16 496 L 112 496 L 112 512 L 112 512 L 16 512 L 0 512 L 0 496 L 0 496 L 0 16 L 0 16 L 0 0 L 0 0 L 16 0 L 224 0 L 384 160 L 384 160 L 384 304 L 384 304 L 368 304 L 368 304 L 368 176 L 368 176 L 216 176 L 208 176 L 208 168 L 208 168 L 208 16 L 208 16 L 16 16 L 16 16 L 16 496 L 16 496 Z M 361 160 L 224 23 L 361 160 L 224 23 L 224 160 L 224 160 L 361 160 L 361 160 Z M 168 368 L 176 368 L 168 368 L 248 368 L 248 384 L 248 384 L 240 384 L 184 384 L 184 432 L 184 432 L 224 432 L 232 432 L 232 448 L 232 448 L 224 448 L 184 448 L 184 496 L 184 496 L 240 496 L 248 496 L 248 512 L 248 512 L 240 512 L 168 512 L 168 504 L 168 504 L 168 440 L 168 440 L 168 376 L 168 376 L 168 368 L 168 368 Z M 304 368 L 336 368 L 304 368 L 336 368 Q 356 369 370 382 Q 383 396 384 416 Q 383 436 370 450 Q 356 463 336 464 L 312 464 L 312 464 L 312 504 L 312 504 L 312 512 L 312 512 L 296 512 L 296 512 L 296 504 L 296 504 L 296 456 L 296 456 L 296 376 L 296 376 L 296 368 L 296 368 L 304 368 L 304 368 Z M 336 448 Q 350 448 359 439 L 359 439 L 359 439 Q 368 430 368 416 Q 368 402 359 393 Q 350 384 336 384 L 312 384 L 312 384 L 312 448 L 312 448 L 336 448 L 336 448 Z M 454 368 L 480 368 L 454 368 L 488 368 L 488 384 L 488 384 L 480 384 L 454 384 Q 434 386 432 406 Q 432 419 444 425 L 475 441 L 475 441 Q 495 452 496 474 Q 496 490 485 501 Q 474 512 458 512 L 424 512 L 416 512 L 416 496 L 416 496 L 424 496 L 458 496 Q 478 494 480 474 Q 480 461 468 455 L 437 439 L 437 439 Q 417 428 416 406 Q 416 390 427 379 Q 438 368 454 368 L 454 368 Z" />
</svg>