<svg xmlns="http://www.w3.org/2000/svg" viewBox="0 0 512 512">
  <path d="M 160 416 L 144 416 L 160 416 L 0 416 L 0 400 L 0 400 L 0 16 L 0 16 L 0 0 L 0 0 L 16 0 L 512 0 L 512 16 L 512 16 L 512 400 L 512 400 L 512 416 L 512 416 L 496 416 L 304 416 L 176 501 L 176 501 L 160 512 L 160 512 L 160 493 L 160 493 L 160 432 L 160 432 L 160 416 L 160 416 Z M 160 400 L 176 400 L 160 400 L 176 400 L 176 416 L 176 416 L 176 482 L 176 482 L 295 403 L 295 403 L 299 400 L 299 400 L 304 400 L 496 400 L 496 16 L 496 16 L 16 16 L 16 16 L 16 400 L 16 400 L 160 400 L 160 400 Z M 264 112 L 264 129 L 264 112 L 264 129 Q 267 129 270 129 Q 274 130 282 132 Q 290 133 294 134 L 290 150 L 290 150 Q 286 149 279 147 Q 271 146 267 145 Q 246 142 232 149 Q 218 155 217 166 Q 215 174 218 178 Q 220 182 225 186 Q 238 194 258 199 Q 258 199 258 199 L 259 199 L 259 199 Q 279 204 296 215 Q 305 221 309 230 Q 314 240 311 253 Q 307 275 287 283 Q 277 287 264 288 L 264 304 L 264 304 L 264 312 L 264 312 L 248 312 L 248 312 L 248 304 L 248 304 L 248 287 L 248 287 Q 245 287 243 287 Q 243 287 243 287 Q 243 287 243 287 Q 228 283 211 277 Q 211 277 211 277 Q 211 277 211 277 Q 211 277 211 277 Q 211 277 211 277 Q 211 277 211 277 Q 211 277 211 277 Q 211 277 211 277 Q 209 277 207 276 Q 206 276 206 275 L 198 273 L 198 273 L 203 258 L 203 258 L 211 260 L 211 260 Q 212 261 213 261 Q 215 262 216 262 Q 216 262 216 262 Q 216 262 216 262 Q 218 262 219 263 Q 234 268 245 271 Q 252 272 259 272 L 259 272 L 259 272 Q 272 272 281 268 Q 293 262 296 250 Q 297 241 295 237 Q 292 232 287 228 Q 275 220 254 214 L 252 214 L 252 214 Q 252 214 252 213 Q 232 209 216 199 Q 208 194 203 184 Q 199 175 201 162 Q 205 142 225 134 Q 235 129 248 128 L 248 112 L 248 112 L 248 104 L 248 104 L 264 104 L 264 104 L 264 112 L 264 112 Z" />
</svg>