<svg xmlns="http://www.w3.org/2000/svg" viewBox="0 0 570 506">
  <path d="M 290 4 L 285 0 L 290 4 L 285 0 L 280 4 L 280 4 L 0 244 L 0 244 L 10 256 L 10 256 L 61 213 L 61 213 L 61 498 L 61 498 L 61 506 L 61 506 L 69 506 L 509 506 L 509 498 L 509 498 L 509 213 L 509 213 L 560 256 L 560 256 L 570 244 L 570 244 L 290 4 L 290 4 Z M 77 490 L 77 199 L 77 490 L 77 199 L 285 21 L 285 21 L 493 199 L 493 199 L 493 490 L 493 490 L 77 490 L 77 490 Z M 221 178 L 213 178 L 221 178 L 213 178 L 213 186 L 213 186 L 213 314 L 213 314 L 213 322 L 213 322 L 221 322 L 357 322 L 357 314 L 357 314 L 357 186 L 357 186 L 357 178 L 357 178 L 349 178 L 221 178 Z M 229 306 L 229 194 L 229 306 L 229 194 L 341 194 L 341 194 L 341 306 L 341 306 L 229 306 L 229 306 Z" />
</svg>