<svg xmlns="http://www.w3.org/2000/svg" viewBox="0 0 484 512">
  <path d="M 35 115 L 242 34 L 35 115 L 242 34 L 450 115 L 450 115 Q 452 150 444 199 Q 437 248 415 301 Q 393 354 351 401 Q 309 447 242 477 Q 175 447 133 401 Q 91 354 69 301 Q 47 248 40 199 Q 32 150 35 115 L 35 115 Z M 482 113 L 480 93 L 482 113 L 480 93 L 461 85 L 461 85 L 254 5 L 254 5 L 242 0 L 242 0 L 230 5 L 230 5 L 23 85 L 23 85 L 4 93 L 4 93 L 3 113 L 3 113 Q 0 151 8 204 Q 16 257 40 314 Q 64 371 110 422 Q 156 474 229 507 L 242 512 L 242 512 L 255 507 L 255 507 Q 328 474 374 422 Q 420 371 444 314 Q 468 257 476 204 Q 484 151 481 113 L 482 113 Z M 242 157 Q 289 158 314 198 Q 337 240 314 282 Q 289 322 242 324 Q 195 322 170 282 Q 147 240 170 198 Q 195 158 242 157 L 242 157 Z M 114 256 Q 139 258 148 279 L 148 279 L 148 279 Q 157 300 140 319 L 129 331 L 129 331 L 140 342 L 140 342 Q 140 342 140 342 Q 140 342 140 342 L 152 353 L 152 353 L 163 342 L 163 342 Q 163 342 163 342 Q 163 342 163 342 Q 182 325 203 334 Q 224 343 226 368 L 226 384 L 226 384 L 242 384 L 258 384 L 258 368 L 258 368 Q 260 343 281 334 Q 302 325 321 342 L 333 353 L 333 353 L 344 342 L 344 342 L 355 331 L 355 331 L 344 319 L 344 319 Q 327 300 336 279 Q 345 258 370 256 L 386 256 L 386 256 L 386 240 L 386 240 L 386 224 L 386 224 L 370 224 L 370 224 Q 345 222 336 201 Q 327 180 344 161 L 355 150 L 355 150 L 344 138 L 344 138 L 333 127 L 333 127 L 321 138 L 321 138 Q 321 138 321 138 Q 321 138 321 138 Q 302 155 281 146 Q 260 137 258 112 L 258 96 L 258 96 L 242 96 L 226 96 L 226 112 L 226 112 Q 224 137 203 146 Q 182 155 163 138 L 152 127 L 152 127 L 140 138 L 140 138 Q 140 138 140 138 L 129 150 L 129 150 L 140 161 L 140 161 Q 140 161 140 161 Q 157 180 148 201 Q 139 222 114 224 L 98 224 L 98 224 L 98 240 L 98 240 L 98 256 L 98 256 L 114 256 L 114 256 Z M 226 248 Q 248 246 250 224 Q 248 202 226 200 Q 204 202 202 224 Q 204 246 226 248 L 226 248 Z M 290 272 Q 289 257 274 256 Q 259 257 258 272 Q 259 287 274 288 Q 289 287 290 272 L 290 272 Z" />
</svg>