<svg xmlns="http://www.w3.org/2000/svg" viewBox="0 0 512 512">
  <path d="M 496 256 Q 495 191 464 136 L 464 136 L 464 136 Q 432 81 376 48 Q 319 16 256 16 Q 193 16 136 48 Q 80 81 48 136 Q 17 191 16 256 Q 17 321 48 376 Q 80 431 136 464 Q 193 496 256 496 Q 319 496 376 464 Q 432 431 464 376 Q 495 321 496 256 L 496 256 Z M 0 256 Q 1 186 34 128 L 34 128 L 34 128 Q 68 70 128 34 Q 189 0 256 0 Q 323 0 384 34 Q 444 70 478 128 Q 511 186 512 256 Q 511 326 478 384 Q 444 442 384 478 Q 323 512 256 512 Q 189 512 128 478 Q 68 442 34 384 Q 1 326 0 256 L 0 256 Z M 340 428 Q 303 409 256 408 Q 209 409 172 428 L 159 435 L 159 435 L 160 420 L 160 420 Q 165 384 191 360 Q 218 337 256 336 Q 294 337 321 360 Q 347 384 352 420 L 353 435 L 353 435 L 340 428 L 340 428 Z M 256 352 Q 228 352 208 368 L 208 368 L 208 368 Q 187 383 179 407 Q 214 392 256 392 Q 298 392 333 407 Q 325 383 304 368 Q 284 352 256 352 L 256 352 Z M 160 272 Q 162 257 176 256 Q 191 257 192 272 Q 191 287 176 288 Q 162 287 160 272 L 160 272 Z M 336 256 Q 351 257 352 272 Q 351 287 336 288 Q 322 287 320 272 Q 322 257 336 256 L 336 256 Z M 201 144 L 193 144 L 201 144 L 193 144 Q 143 148 110 183 L 104 189 L 104 189 L 93 178 L 93 178 L 98 172 L 98 172 Q 135 133 192 128 L 200 128 L 200 128 L 201 144 L 201 144 Z M 320 144 L 312 144 L 320 144 L 312 144 L 313 128 L 313 128 L 321 128 L 321 128 Q 377 133 414 172 L 419 178 L 419 178 L 408 189 L 408 189 L 402 183 L 402 183 Q 369 148 320 144 L 320 144 Z" />
</svg>