<svg xmlns="http://www.w3.org/2000/svg" viewBox="0 0 448 512">
  <path d="M 0 56 Q 1 32 16 16 L 16 16 L 16 16 Q 32 1 56 0 L 440 0 L 448 0 L 448 8 L 448 8 L 448 408 L 448 408 L 448 416 L 448 416 L 440 416 L 416 416 L 416 496 L 416 496 L 440 496 L 448 496 L 448 512 L 448 512 L 440 512 L 56 512 Q 32 511 16 496 Q 1 480 0 456 L 0 56 L 0 56 Z M 56 416 Q 39 416 28 428 L 28 428 L 28 428 Q 16 439 16 456 Q 16 473 28 484 Q 39 496 56 496 L 400 496 L 400 496 L 400 416 L 400 416 L 56 416 L 56 416 Z M 16 417 Q 32 401 56 400 L 432 400 L 432 400 L 432 16 L 432 16 L 56 16 L 56 16 Q 39 16 28 28 Q 16 39 16 56 L 16 417 L 16 417 Z M 240 192 Q 267 191 282 168 Q 294 144 282 120 Q 267 97 240 96 Q 213 97 198 120 Q 186 144 198 168 Q 213 191 240 192 L 240 192 Z M 240 80 Q 276 81 295 112 Q 313 144 295 176 Q 276 207 240 208 Q 204 207 185 176 Q 167 144 185 112 Q 204 81 240 80 L 240 80 Z M 172 256 L 150 320 L 172 256 L 150 320 L 330 320 L 330 320 L 309 256 L 309 256 L 172 256 L 172 256 Z M 320 240 L 347 320 L 320 240 L 347 320 L 352 336 L 352 336 L 335 336 L 128 336 L 133 320 L 133 320 L 160 240 L 160 240 L 320 240 L 320 240 Z" />
</svg>