<svg xmlns="http://www.w3.org/2000/svg" viewBox="0 0 384 448">
  <path d="M 8 0 L 0 0 L 8 0 L 0 0 L 0 16 L 0 16 L 8 16 L 384 16 L 384 0 L 384 0 L 376 0 L 8 0 Z M 198 98 L 192 93 L 198 98 L 192 93 L 186 98 L 186 98 L 50 234 L 50 234 L 45 240 L 45 240 L 56 251 L 56 251 L 62 246 L 62 246 L 184 123 L 184 123 L 184 440 L 184 440 L 184 448 L 184 448 L 200 448 L 200 448 L 200 440 L 200 440 L 200 123 L 200 123 L 322 246 L 322 246 L 328 251 L 328 251 L 339 240 L 339 240 L 334 234 L 334 234 L 198 98 L 198 98 Z" />
</svg>