<svg xmlns="http://www.w3.org/2000/svg" viewBox="0 0 640 512">
  <path d="M 444 445 Q 394 494 320 496 Q 245 494 196 444 Q 146 395 144 320 Q 145 285 172 233 L 173 232 L 173 232 L 160 221 L 160 221 Q 130 277 128 320 Q 130 402 184 456 Q 238 510 320 512 Q 402 510 456 455 L 444 445 L 444 445 Z M 309 12 Q 298 25 280 48 L 280 48 L 280 48 Q 261 71 239 100 L 251 110 L 251 110 Q 280 72 302 45 Q 313 33 320 24 Q 320 24 320 24 Q 327 33 338 45 Q 366 79 403 130 Q 440 180 468 233 Q 488 272 494 302 L 512 316 L 512 316 Q 508 268 472 206 Q 436 145 394 91 Q 353 37 331 12 Q 320 0 320 0 Q 320 0 320 0 Q 320 0 309 12 L 309 12 Z M 320 408 Q 283 407 258 382 L 258 382 L 258 382 Q 233 357 232 320 L 216 320 L 216 320 Q 217 364 246 394 Q 276 423 320 424 L 320 408 L 320 408 Z M 16 5 L 10 0 L 16 5 L 10 0 L 0 13 L 0 13 L 6 18 L 6 18 L 624 507 L 624 507 L 630 512 L 630 512 L 640 500 L 640 500 L 634 495 L 634 495 L 16 5 L 16 5 Z" />
</svg>