<svg xmlns="http://www.w3.org/2000/svg" viewBox="0 0 448 512">
  <path d="M 0 0 L 8 0 L 0 0 L 448 0 L 448 16 L 448 16 L 440 16 L 384 16 L 384 96 L 384 96 L 384 104 L 384 104 L 376 104 L 64 104 L 64 96 L 64 96 L 64 16 L 64 16 L 8 16 L 0 16 L 0 0 L 0 0 Z M 80 16 L 80 88 L 80 16 L 80 88 L 368 88 L 368 88 L 368 16 L 368 16 L 80 16 L 80 16 Z M 64 152 L 72 152 L 64 152 L 384 152 L 384 168 L 384 168 L 376 168 L 64 168 L 64 152 L 64 152 Z M 64 216 L 72 216 L 64 216 L 448 216 L 448 232 L 448 232 L 440 232 L 64 232 L 64 216 L 64 216 Z M 64 280 L 72 280 L 64 280 L 384 280 L 384 296 L 384 296 L 376 296 L 64 296 L 64 280 L 64 280 Z M 64 344 L 72 344 L 64 344 L 384 344 L 384 360 L 384 360 L 376 360 L 64 360 L 64 344 L 64 344 Z M 8 512 L 0 512 L 8 512 L 0 512 L 0 496 L 0 496 L 8 496 L 64 496 L 64 416 L 64 416 L 64 408 L 64 408 L 72 408 L 384 408 L 384 416 L 384 416 L 384 496 L 384 496 L 440 496 L 448 496 L 448 512 L 448 512 L 440 512 L 8 512 Z M 80 424 L 80 496 L 80 424 L 80 496 L 368 496 L 368 496 L 368 424 L 368 424 L 80 424 L 80 424 Z" />
</svg>