<svg xmlns="http://www.w3.org/2000/svg" viewBox="0 0 448 512">
  <path d="M 224 48 Q 251 49 269 67 L 269 67 L 269 67 Q 287 85 288 112 L 288 160 L 288 160 L 160 160 L 160 160 L 160 112 L 160 112 Q 161 85 179 67 Q 197 49 224 48 L 224 48 Z M 112 112 L 112 160 L 112 112 L 112 160 L 48 160 L 0 160 L 0 208 L 0 208 L 0 464 L 0 464 L 0 512 L 0 512 L 48 512 L 448 512 L 448 464 L 448 464 L 448 208 L 448 208 L 448 160 L 448 160 L 400 160 L 336 160 L 336 112 L 336 112 Q 335 71 311 41 Q 287 12 248 3 L 248 0 L 248 0 L 224 0 L 224 0 Q 176 1 145 33 Q 113 64 112 112 L 112 112 Z M 48 208 L 112 208 L 48 208 L 400 208 L 400 464 L 400 464 L 48 464 L 48 464 L 48 208 L 48 208 Z M 144 312 L 120 312 L 144 312 L 120 312 L 120 360 L 120 360 L 144 360 L 328 360 L 328 312 L 328 312 L 304 312 L 144 312 Z" />
</svg>