<svg xmlns="http://www.w3.org/2000/svg" viewBox="0 0 512 512">
  <path d="M 345.6 392 L 345.6 434.4 L 259.2 410.4 L 256 408.8 L 252.8 410.4 L 166.4 434.4 L 166.4 403.2 L 212.8 368.8 L 217.6 364.8 L 217.6 358.4 L 217.6 293.6 L 217.6 291.2 L 204.8 280.8 L 200.8 281.6 L 76.8 321.6 L 76.8 269.6 L 143.2 232 L 121.6 215.2 L 57.6 251.2 L 51.2 255.2 L 51.2 262.4 L 51.2 339.2 L 51.2 356.8 L 68 351.2 L 192 311.2 L 192 352 L 145.6 386.4 L 140.8 390.4 L 140.8 396.8 L 140.8 448 L 140.8 460.8 L 153.6 460.8 L 166.4 460.8 L 168 460.8 L 169.6 460 L 256 436 L 342.4 460 L 344 460.8 L 345.6 460.8 L 358.4 460.8 L 371.2 460.8 L 371.2 448 L 371.2 412 L 345.6 392 L 345.6 392 Z M 192 139.2 L 192 140 L 217.6 160.8 L 217.6 139.2 Q 217.6 120.8 231.2 97.6 Q 237.6 87.2 244 81.6 Q 251.2 76.8 256 76.8 Q 268 76.8 281.6 97.6 Q 294.4 120.8 294.4 139.2 L 294.4 188 L 294.4 196 L 300.8 199.2 L 435.2 276 L 435.2 332 L 460.8 352.8 L 460.8 268.8 L 460.8 261.6 L 454.4 257.6 L 320 180.8 L 320 139.2 Q 319.2 112 303.2 84.8 Q 296 72 284 61.6 Q 272 52 256 51.2 Q 240 52 228 61.6 Q 216.8 71.2 208.8 84.8 Q 192.8 112 192 139.2 L 192 139.2 Z M 26.4 59.2 L 16 51.2 L 0 71.2 L 10.4 79.2 L 486.4 452.8 L 496 460.8 L 512 440.8 L 502.4 432.8 L 26.4 59.2 L 26.4 59.2 Z" />
</svg>