<svg xmlns="http://www.w3.org/2000/svg" viewBox="0 0 512 512">
  <path d="M 243.2 222 Q 256 203.6 256 179.6 L 230.4 51.6 L 204.8 51.6 L 204.8 179.6 L 192 179.6 L 179.2 51.6 L 153.6 51.6 L 144 145.2 L 128 132.4 L 128 51.6 L 102.4 51.6 L 92 104.4 L 38.4 63.6 L 23.2 51.6 L 0 82 L 15.2 94 L 473.6 449.2 L 488.8 461.2 L 512 430.8 L 496.8 418.8 L 435.2 371.6 L 435.2 333.2 L 435.2 243.6 L 435.2 218 L 435.2 51.6 Q 420.8 50.8 390.4 62.8 Q 360.8 74 334.4 104.4 Q 308.8 135.6 307.2 192.4 L 307.2 271.6 L 243.2 222 L 243.2 222 Z M 77.6 189.2 Q 80.8 214.8 98.4 233.2 L 98.4 233.2 Q 115.2 250.8 140.8 255.6 L 140.8 435.6 L 140.8 461.2 L 192 461.2 L 192 435.6 L 192 279.6 L 77.6 189.2 L 77.6 189.2 Z" />
</svg>