<svg xmlns="http://www.w3.org/2000/svg" viewBox="0 0 512 448">
  <path d="M 224 192 L 176 192 L 224 192 L 176 192 L 176 144 L 176 144 L 176 116 L 176 116 L 68 224 L 68 224 L 176 332 L 176 332 L 176 304 L 176 304 L 176 256 L 176 256 L 224 256 L 304 256 L 304 192 L 304 192 L 224 192 L 224 192 Z M 34 190 L 160 64 L 34 190 L 160 64 L 176 64 L 224 64 L 224 96 L 224 96 L 224 112 L 224 112 L 224 144 L 224 144 L 272 144 L 352 144 L 352 192 L 352 192 L 352 256 L 352 256 L 352 304 L 352 304 L 304 304 L 224 304 L 224 336 L 224 336 L 224 352 L 224 352 L 224 384 L 224 384 L 176 384 L 160 384 L 34 258 L 34 258 L 0 224 L 0 224 L 34 190 L 34 190 Z M 344 400 L 464 400 L 344 400 L 464 400 L 464 48 L 464 48 L 344 48 L 320 48 L 320 0 L 320 0 L 344 0 L 512 0 L 512 24 L 512 24 L 512 424 L 512 424 L 512 448 L 512 448 L 488 448 L 320 448 L 320 400 L 320 400 L 344 400 L 344 400 Z" />
</svg>