<svg xmlns="http://www.w3.org/2000/svg" viewBox="0 0 570 512">
  <path d="M 537 210 Q 550 218 560 229 L 560 229 L 560 229 Q 570 241 570 256 Q 570 271 560 283 Q 550 295 537 303 Q 508 319 481 320 L 362 320 L 361 320 L 257 508 L 257 508 L 255 512 L 255 512 L 250 512 L 152 512 L 154 502 L 154 502 L 205 320 L 205 320 L 186 320 L 118 320 L 72 381 L 72 381 L 70 384 L 70 384 L 66 384 L 0 384 L 2 374 L 2 374 L 34 256 L 34 256 L 2 138 L 2 138 L 0 128 L 0 128 L 10 128 L 70 128 L 72 131 L 72 131 L 118 192 L 118 192 L 186 192 L 205 192 L 154 10 L 154 10 L 152 0 L 152 0 L 162 0 L 255 0 L 257 4 L 257 4 L 361 192 L 361 192 L 362 192 L 481 192 Q 508 193 537 210 L 537 210 Z M 362 208 L 356 208 L 362 208 L 110 208 L 108 205 L 108 205 L 62 144 L 62 144 L 20 144 L 20 144 L 50 254 L 50 254 L 50 256 L 50 256 L 50 258 L 50 258 L 20 368 L 20 368 L 62 368 L 62 368 L 108 307 L 108 307 L 110 304 L 110 304 L 114 304 L 481 304 Q 503 304 528 289 Q 553 274 554 256 Q 553 239 528 223 Q 502 208 481 208 L 362 208 L 362 208 Z M 342 192 L 245 16 L 342 192 L 245 16 L 173 16 L 173 16 L 221 192 L 221 192 L 342 192 L 342 192 Z M 221 320 L 173 496 L 221 320 L 173 496 L 245 496 L 245 496 L 342 320 L 342 320 L 221 320 L 221 320 Z" />
</svg>