<svg xmlns="http://www.w3.org/2000/svg" viewBox="0 0 512 512">
  <path d="M 398.22223 199.11111 L 398.22223 256 L 426.66666 256 L 426.66666 156.44444 L 298.66666 28.444445 L 113.77778 28.444445 L 85.333336 28.444445 L 85.333336 56.88889 L 85.333336 256 L 113.77778 256 L 113.77778 56.88889 L 256 56.88889 L 256 184.88889 L 256 199.11111 L 270.22223 199.11111 L 398.22223 199.11111 L 398.22223 199.11111 Z M 113.77778 455.1111 L 113.77778 341.33334 L 85.333336 341.33334 L 85.333336 455.1111 L 85.333336 483.55554 L 113.77778 483.55554 L 398.22223 483.55554 L 426.66666 483.55554 L 426.66666 455.1111 L 426.66666 341.33334 L 398.22223 341.33334 L 398.22223 455.1111 L 113.77778 455.1111 L 113.77778 455.1111 Z M 398.22223 170.66667 L 284.44446 170.66667 L 284.44446 56.88889 L 287.1111 56.88889 L 398.22223 168 L 398.22223 170.66667 L 398.22223 170.66667 Z M 14.222222 284.44446 L 0 284.44446 L 0 312.8889 L 14.222222 312.8889 L 128 312.8889 L 142.22223 312.8889 L 142.22223 284.44446 L 128 284.44446 L 14.222222 284.44446 L 14.222222 284.44446 Z M 213.33333 284.44446 L 199.11111 284.44446 L 199.11111 312.8889 L 213.33333 312.8889 L 298.66666 312.8889 L 312.8889 312.8889 L 312.8889 284.44446 L 298.66666 284.44446 L 213.33333 284.44446 L 213.33333 284.44446 Z M 384 284.44446 L 369.77777 284.44446 L 369.77777 312.8889 L 384 312.8889 L 497.77777 312.8889 L 512 312.8889 L 512 284.44446 L 497.77777 284.44446 L 384 284.44446 L 384 284.44446 Z" />
</svg>