<svg xmlns="http://www.w3.org/2000/svg" viewBox="0 0 512 512">
  <path d="M 256 0 Q 195 2 154 42 L 154 42 L 154 42 Q 114 83 112 144 L 112 176 L 112 176 L 40 176 L 32 176 L 32 184 L 32 184 L 32 422 L 32 422 L 1 484 L 1 484 L 0 486 L 0 486 L 0 488 L 0 488 L 0 504 L 0 504 L 0 512 L 0 512 L 8 512 L 128 512 L 128 504 L 128 504 L 128 389 L 128 389 L 178 445 L 178 445 L 180 448 L 180 448 L 184 448 L 332 448 L 334 445 L 334 445 L 384 389 L 384 389 L 384 504 L 384 504 L 384 512 L 384 512 L 392 512 L 512 512 L 512 504 L 512 504 L 512 488 L 512 488 L 512 486 L 512 486 L 511 484 L 511 484 L 480 422 L 480 422 L 480 184 L 480 184 L 480 176 L 480 176 L 472 176 L 400 176 L 400 144 L 400 144 Q 398 83 358 42 Q 317 2 256 0 L 256 0 Z M 400 192 L 464 192 L 400 192 L 464 192 L 464 424 L 464 424 L 464 426 L 464 426 L 465 428 L 465 428 L 496 490 L 496 490 L 496 496 L 496 496 L 400 496 L 400 496 L 400 371 L 400 371 L 400 368 L 400 368 L 400 192 L 400 192 Z M 384 176 L 128 176 L 384 176 L 128 176 L 128 144 L 128 144 Q 129 90 165 53 Q 202 17 256 16 Q 310 17 347 53 Q 383 90 384 144 L 384 176 L 384 176 Z M 128 192 L 384 192 L 128 192 L 384 192 L 384 365 L 384 365 L 324 432 L 324 432 L 188 432 L 188 432 L 128 365 L 128 365 L 128 192 L 128 192 Z M 112 192 L 112 368 L 112 192 L 112 368 L 112 371 L 112 371 L 112 496 L 112 496 L 16 496 L 16 496 L 16 490 L 16 490 L 47 428 L 47 428 L 48 426 L 48 426 L 48 424 L 48 424 L 48 192 L 48 192 L 112 192 L 112 192 Z M 200 96 Q 202 74 224 72 Q 246 74 248 96 Q 246 118 224 120 Q 202 118 200 96 L 200 96 Z M 264 96 Q 263 73 244 61 Q 224 51 204 61 Q 185 73 184 96 Q 185 119 204 131 Q 224 141 244 131 Q 263 119 264 96 L 264 96 Z M 304 128 Q 319 127 320 112 Q 319 97 304 96 Q 289 97 288 112 Q 289 127 304 128 L 304 128 Z M 192 240 L 192 256 L 192 240 L 192 256 L 200 256 L 320 256 L 320 240 L 320 240 L 312 240 L 192 240 Z M 192 304 L 192 320 L 192 304 L 192 320 L 200 320 L 320 320 L 320 304 L 320 304 L 312 304 L 192 304 Z" />
</svg>