<svg xmlns="http://www.w3.org/2000/svg" viewBox="0 0 512 512">
  <path d="M 496 256 Q 495 191 464 136 L 464 136 L 464 136 Q 432 81 376 48 Q 319 16 256 16 Q 193 16 136 48 Q 80 81 48 136 Q 17 191 16 256 Q 17 321 48 376 Q 80 431 136 464 Q 193 496 256 496 Q 319 496 376 464 Q 432 431 464 376 Q 495 321 496 256 L 496 256 Z M 0 256 Q 1 186 34 128 L 34 128 L 34 128 Q 68 70 128 34 Q 189 0 256 0 Q 323 0 384 34 Q 444 70 478 128 Q 511 186 512 256 Q 511 326 478 384 Q 444 442 384 478 Q 323 512 256 512 Q 189 512 128 478 Q 68 442 34 384 Q 1 326 0 256 L 0 256 Z M 256 348 Q 183 347 121 329 Q 139 368 175 392 Q 211 415 256 416 Q 302 415 338 392 Q 373 368 391 329 Q 329 347 256 348 L 256 348 Z M 256 332 Q 334 331 398 310 Q 408 306 417 303 Q 414 313 411 322 Q 393 371 352 401 Q 311 431 256 432 Q 202 431 161 401 Q 119 371 101 322 Q 98 313 96 303 Q 105 306 114 310 Q 178 331 256 332 L 256 332 Z M 161 150 Q 152 166 152 192 Q 152 218 161 234 Q 169 249 176 248 Q 183 249 192 234 Q 200 218 200 192 Q 200 166 192 150 Q 183 135 176 136 Q 169 135 161 150 L 161 150 Z M 146 143 Q 156 122 176 120 Q 196 122 206 143 Q 216 163 216 192 Q 216 221 206 241 Q 196 262 176 264 Q 156 262 146 241 Q 136 221 136 192 Q 136 163 146 143 L 146 143 Z M 312 192 Q 312 218 321 234 Q 329 249 336 248 Q 343 249 352 234 Q 360 218 360 192 Q 360 166 352 150 Q 343 135 336 136 Q 329 135 321 150 Q 312 166 312 192 L 312 192 Z M 336 120 Q 356 122 366 143 Q 376 163 376 192 Q 376 221 366 241 Q 356 262 336 264 Q 316 262 306 241 Q 296 221 296 192 Q 296 163 306 143 Q 316 122 336 120 L 336 120 Z" />
</svg>