<svg xmlns="http://www.w3.org/2000/svg" viewBox="0 0 640 521">
  <path d="M 256 73 Q 257 37 288 18 Q 320 0 352 18 Q 383 37 384 73 Q 383 109 352 128 Q 320 146 288 128 Q 257 109 256 73 L 256 73 Z M 270 217 L 266 313 L 270 217 L 266 313 L 304 313 L 374 313 L 370 217 L 370 217 L 270 217 L 270 217 Z M 216 361 L 218 313 L 216 361 L 218 313 L 224 169 L 224 169 L 416 169 L 416 169 L 422 313 L 422 313 L 424 361 L 424 361 L 384 361 L 384 361 L 384 497 L 384 497 L 384 521 L 384 521 L 336 521 L 336 521 L 336 497 L 336 497 L 336 361 L 336 361 L 304 361 L 304 361 L 304 497 L 304 497 L 304 521 L 304 521 L 256 521 L 256 521 L 256 497 L 256 497 L 256 361 L 256 361 L 216 361 L 216 361 Z M 248 137 L 193 137 L 248 137 L 178 137 Q 122 94 48 89 L 48 121 L 48 121 Q 48 175 71 220 Q 94 266 133 297 L 152 311 L 152 311 L 170 326 L 170 326 L 156 344 L 156 344 L 143 363 L 143 363 Q 118 397 113 441 Q 179 439 224 395 L 224 456 L 224 456 Q 175 488 112 489 L 88 489 L 64 489 L 64 465 L 64 465 L 64 457 L 64 457 Q 65 387 104 335 Q 56 297 28 242 Q 1 187 0 121 L 0 65 L 0 65 L 0 41 L 0 41 L 24 41 L 35 41 Q 99 41 154 67 Q 209 92 248 137 L 248 137 Z M 592 89 Q 518 95 462 137 L 447 137 L 392 137 Q 431 92 486 67 Q 541 41 605 41 L 616 41 L 640 41 L 640 65 L 640 65 L 640 121 L 640 121 Q 639 187 612 242 Q 584 297 536 335 Q 575 387 576 457 L 576 465 L 576 465 L 576 489 L 576 489 L 552 489 L 528 489 Q 465 488 416 456 L 416 395 L 416 395 Q 461 439 527 441 Q 522 397 498 363 L 484 344 L 484 344 L 470 326 L 470 326 L 488 311 L 488 311 L 507 297 L 507 297 Q 546 266 569 220 Q 592 175 592 121 L 592 89 L 592 89 Z" />
</svg>