<svg xmlns="http://www.w3.org/2000/svg" viewBox="0 0 480 512">
  <path d="M 208 16 L 464 16 L 208 16 L 464 16 L 464 496 L 464 496 L 208 496 L 208 496 L 208 16 L 208 16 Z M 192 16 L 192 496 L 192 16 L 192 496 L 80 496 L 80 496 L 80 392 L 80 392 L 120 392 L 128 392 L 128 376 L 128 376 L 120 376 L 80 376 L 80 264 L 80 264 L 120 264 L 128 264 L 128 248 L 128 248 L 120 248 L 80 248 L 80 136 L 80 136 L 120 136 L 128 136 L 128 120 L 128 120 L 120 120 L 80 120 L 80 16 L 80 16 L 192 16 L 192 16 Z M 64 392 L 64 496 L 64 392 L 64 496 L 64 512 L 64 512 L 80 512 L 480 512 L 480 496 L 480 496 L 480 16 L 480 16 L 480 0 L 480 0 L 464 0 L 64 0 L 64 16 L 64 16 L 64 120 L 64 120 L 8 120 L 0 120 L 0 136 L 0 136 L 8 136 L 64 136 L 64 248 L 64 248 L 8 248 L 0 248 L 0 264 L 0 264 L 8 264 L 64 264 L 64 376 L 64 376 L 8 376 L 0 376 L 0 392 L 0 392 L 8 392 L 64 392 Z" />
</svg>