<svg xmlns="http://www.w3.org/2000/svg" viewBox="0 0 640 384">
  <path d="M 0 8 L 0 376 L 0 8 L 0 376 L 0 384 L 0 384 L 16 384 L 16 384 L 16 376 L 16 376 L 16 8 L 16 8 L 16 0 L 16 0 L 0 0 L 0 0 L 0 8 L 0 8 Z M 128 192 L 134 198 L 128 192 L 134 198 L 286 350 L 286 350 L 291 355 L 291 355 L 303 344 L 303 344 L 297 338 L 297 338 L 159 200 L 159 200 L 632 200 L 640 200 L 640 184 L 640 184 L 632 184 L 159 184 L 297 46 L 297 46 L 303 40 L 303 40 L 291 29 L 291 29 L 286 34 L 286 34 L 134 186 L 134 186 L 128 192 L 128 192 Z" />
</svg>