<svg xmlns="http://www.w3.org/2000/svg" viewBox="0 0 640 448">
  <path d="M 96 16 L 96 0 L 96 16 L 96 0 L 112 0 L 640 0 L 640 16 L 640 16 L 640 112 L 640 112 L 640 128 L 640 128 Q 620 129 606 142 Q 593 156 592 176 Q 593 196 606 210 Q 620 223 640 224 L 640 240 L 640 240 L 640 336 L 640 336 L 640 352 L 640 352 L 624 352 L 96 352 L 96 336 L 96 336 L 96 240 L 96 240 L 96 224 L 96 224 Q 116 223 130 210 Q 143 196 144 176 Q 143 156 130 142 Q 116 129 96 128 L 96 112 L 96 112 L 96 16 L 96 16 Z M 112 114 Q 133 120 146 136 L 146 136 L 146 136 Q 160 153 160 176 Q 160 199 146 216 Q 133 232 112 238 L 112 336 L 112 336 L 624 336 L 624 336 L 624 238 L 624 238 Q 603 232 590 216 Q 576 199 576 176 Q 576 153 590 136 Q 603 120 624 114 L 624 16 L 624 16 L 112 16 L 112 16 L 112 114 L 112 114 Z M 16 56 L 16 64 L 16 56 L 16 64 L 16 432 L 16 432 L 552 432 L 560 432 L 560 448 L 560 448 L 552 448 L 0 448 L 0 440 L 0 440 L 0 64 L 0 64 L 0 56 L 0 56 L 16 56 L 16 56 Z M 224 96 L 224 256 L 224 96 L 224 256 L 512 256 L 512 256 L 512 96 L 512 96 L 224 96 L 224 96 Z M 208 80 L 224 80 L 208 80 L 528 80 L 528 96 L 528 96 L 528 256 L 528 256 L 528 272 L 528 272 L 512 272 L 208 272 L 208 256 L 208 256 L 208 96 L 208 96 L 208 80 L 208 80 Z" />
</svg>