<svg xmlns="http://www.w3.org/2000/svg" viewBox="0 0 261 524">
  <path d="M 19 85 Q 26 48 64 33 Q 102 17 159 25 Q 169 27 189 30 Q 208 34 218 37 L 222 21 L 222 21 Q 211 18 192 15 Q 172 11 162 9 Q 101 0 57 18 Q 13 36 3 82 Q 3 82 3 82 Q 3 82 3 82 L 3 83 L 3 83 Q 0 110 10 130 Q 21 150 40 162 Q 51 169 64 175 Q 61 176 58 177 Q 14 194 4 238 Q 4 238 4 239 Q 4 239 4 239 Q 0 265 11 284 Q 22 303 41 314 Q 79 336 128 347 L 131 348 L 131 348 Q 182 360 215 380 Q 231 391 238 405 Q 245 420 241 442 Q 234 477 196 492 Q 158 507 101 499 Q 86 496 66 491 Q 46 485 28 479 Q 27 479 26 478 Q 26 478 26 478 Q 26 478 26 478 Q 26 478 26 478 Q 26 478 26 478 Q 26 478 26 478 Q 26 478 26 478 Q 25 478 24 478 Q 18 476 12 474 L 8 490 L 8 490 Q 9 490 11 491 Q 15 492 21 494 Q 21 494 21 494 Q 21 494 21 494 Q 21 494 21 494 Q 21 494 21 494 Q 21 494 21 494 Q 39 500 61 506 Q 82 512 98 515 Q 98 515 98 515 Q 98 515 98 515 Q 158 524 202 507 Q 246 490 256 446 Q 261 418 252 399 Q 242 379 224 367 Q 218 363 212 360 Q 248 341 256 300 Q 261 272 252 252 Q 243 231 224 218 Q 206 206 183 197 Q 159 189 135 182 L 133 181 L 133 181 Q 133 181 132 181 Q 83 168 49 148 Q 32 138 24 123 Q 16 108 18 84 L 19 85 Z M 193 351 Q 165 341 135 333 L 134 332 L 134 332 Q 133 332 132 332 Q 83 320 49 301 Q 33 291 25 277 Q 17 263 20 241 Q 27 207 64 192 Q 76 187 90 185 Q 106 191 124 196 Q 126 196 128 197 L 131 198 L 131 198 Q 181 210 215 232 Q 231 243 237 258 Q 245 274 241 298 Q 233 336 193 351 L 193 351 Z" />
</svg>