<svg xmlns="http://www.w3.org/2000/svg" viewBox="0 0 640 493">
  <path d="M 17 67 Q 16 76 16 84 L 16 101 L 16 101 Q 17 145 46 175 Q 76 204 120 205 L 160 205 L 160 205 L 160 141 L 160 141 L 97 141 L 97 141 Q 66 140 43 120 Q 21 100 18 69 Q 17 69 17 68 Q 17 68 17 67 L 17 67 Z M 97 125 L 160 125 L 97 125 L 160 125 L 160 93 L 160 93 L 160 77 L 160 77 L 176 77 L 480 77 L 480 93 L 480 93 L 480 125 L 480 125 L 543 125 L 543 125 Q 568 124 586 108 Q 604 92 607 68 Q 608 54 604 41 L 592 8 L 592 8 L 606 0 L 606 0 L 614 9 L 614 9 Q 640 42 640 84 L 640 101 L 640 101 Q 639 152 605 186 Q 571 220 520 221 L 480 221 L 480 221 L 480 349 L 480 349 L 480 365 L 480 365 L 464 365 L 414 365 L 376 493 L 376 493 L 264 493 L 264 493 L 226 365 L 226 365 L 176 365 L 160 365 L 160 349 L 160 349 L 160 221 L 160 221 L 120 221 L 120 221 Q 69 220 35 186 Q 1 152 0 101 L 0 84 L 0 84 Q 0 42 26 9 L 34 0 L 34 0 L 48 8 L 48 8 L 36 41 L 36 41 Q 32 54 33 67 Q 37 92 54 108 Q 72 124 97 125 L 97 125 Z M 480 205 L 520 205 L 480 205 L 520 205 Q 564 204 594 175 Q 623 145 624 101 L 624 84 L 624 84 Q 624 76 623 67 Q 623 68 622 69 Q 619 100 597 120 Q 574 140 543 141 L 480 141 L 480 141 L 480 205 L 480 205 Z M 464 141 L 464 125 L 464 141 L 464 125 L 464 93 L 464 93 L 176 93 L 176 93 L 176 125 L 176 125 L 176 141 L 176 141 L 176 349 L 176 349 L 226 349 L 238 349 L 241 360 L 241 360 L 276 477 L 276 477 L 364 477 L 364 477 L 399 360 L 399 360 L 402 349 L 402 349 L 414 349 L 464 349 L 464 141 L 464 141 Z M 256 213 Q 234 215 232 237 Q 234 259 256 261 Q 278 259 280 237 Q 278 215 256 213 L 256 213 Z M 296 237 Q 295 260 276 272 Q 256 282 236 272 Q 217 260 216 237 Q 217 214 236 202 Q 256 192 276 202 Q 295 214 296 237 L 296 237 Z M 360 237 Q 362 259 384 261 Q 406 259 408 237 Q 406 215 384 213 Q 362 215 360 237 L 360 237 Z M 384 277 Q 361 276 349 257 Q 339 237 349 217 Q 361 198 384 197 Q 407 198 419 217 Q 429 237 419 257 Q 407 276 384 277 L 384 277 Z" />
</svg>