<svg xmlns="http://www.w3.org/2000/svg" viewBox="0 0 512 512">
  <path d="M 496 256 Q 495 191 464 136 L 464 136 L 464 136 Q 432 81 376 48 Q 319 16 256 16 Q 193 16 136 48 Q 80 81 48 136 Q 17 191 16 256 Q 17 321 48 376 Q 80 431 136 464 Q 193 496 256 496 Q 319 496 376 464 Q 432 431 464 376 Q 495 321 496 256 L 496 256 Z M 0 256 Q 1 186 34 128 L 34 128 L 34 128 Q 68 70 128 34 Q 189 0 256 0 Q 323 0 384 34 Q 444 70 478 128 Q 511 186 512 256 Q 511 326 478 384 Q 444 442 384 478 Q 323 512 256 512 Q 189 512 128 478 Q 68 442 34 384 Q 1 326 0 256 L 0 256 Z M 248 304 L 264 304 L 248 304 L 264 304 Q 298 305 321 327 Q 343 350 344 384 L 344 392 L 344 392 L 344 400 L 344 400 L 336 400 L 168 400 L 168 392 L 168 392 L 168 384 L 168 384 Q 169 350 191 327 Q 214 305 248 304 L 248 304 Z M 184 384 L 328 384 L 184 384 L 328 384 Q 327 357 309 339 Q 291 321 264 320 L 248 320 L 248 320 Q 221 321 203 339 Q 185 357 184 384 L 184 384 Z M 149 192 L 106 150 L 149 192 L 106 150 L 118 138 L 118 138 L 160 181 L 160 181 L 202 138 L 202 138 L 214 150 L 214 150 L 171 192 L 171 192 L 214 234 L 214 234 L 202 246 L 202 246 L 160 203 L 160 203 L 118 246 L 118 246 L 106 234 L 106 234 L 149 192 L 149 192 Z M 341 192 L 298 150 L 341 192 L 298 150 L 310 138 L 310 138 L 352 181 L 352 181 L 394 138 L 394 138 L 406 150 L 406 150 L 363 192 L 363 192 L 406 234 L 406 234 L 394 246 L 394 246 L 352 203 L 352 203 L 310 246 L 310 246 L 298 234 L 298 234 L 341 192 L 341 192 Z" />
</svg>