<svg xmlns="http://www.w3.org/2000/svg" viewBox="0 0 320 443">
  <path d="M 153 288 L 304 288 L 153 288 L 320 288 L 320 272 L 320 272 L 320 246 L 320 246 L 32 0 L 32 0 L 0 15 L 0 15 L 0 400 L 0 400 L 18 420 L 18 420 L 29 432 L 29 432 L 39 419 L 39 419 L 139 297 L 139 297 L 209 443 L 209 443 L 223 437 L 223 437 L 153 288 L 153 288 Z M 135 278 L 28 407 L 135 278 L 28 407 L 16 394 L 16 394 L 16 25 L 16 25 L 29 19 L 29 19 L 304 253 L 304 253 L 304 272 L 304 272 L 147 272 L 139 272 L 134 278 L 135 278 Z" />
</svg>