<svg xmlns="http://www.w3.org/2000/svg" viewBox="0 0 384 512">
  <path d="M 16 16 L 16 496 L 16 16 L 16 496 L 368 496 L 368 496 L 368 16 L 368 16 L 16 16 L 16 16 Z M 0 0 L 16 0 L 0 0 L 384 0 L 384 16 L 384 16 L 384 496 L 384 496 L 384 512 L 384 512 L 368 512 L 0 512 L 0 496 L 0 496 L 0 16 L 0 16 L 0 0 L 0 0 Z M 80 80 L 80 240 L 80 80 L 80 240 L 304 240 L 304 240 L 304 80 L 304 80 L 80 80 L 80 80 Z M 64 64 L 80 64 L 64 64 L 320 64 L 320 80 L 320 80 L 320 240 L 320 240 L 320 256 L 320 256 L 304 256 L 64 256 L 64 240 L 64 240 L 64 80 L 64 80 L 64 64 L 64 64 Z M 232 344 Q 217 345 216 360 Q 217 375 232 376 Q 247 375 248 360 Q 247 345 232 344 L 232 344 Z M 264 360 Q 264 374 255 383 L 255 383 L 255 383 Q 246 392 232 392 Q 218 392 209 383 Q 200 374 200 360 Q 200 346 209 337 Q 218 328 232 328 Q 246 328 255 337 Q 264 346 264 360 L 264 360 Z M 280 312 Q 281 327 296 328 Q 311 327 312 312 Q 311 297 296 296 Q 281 297 280 312 L 280 312 Z M 296 344 Q 282 344 273 335 L 273 335 L 273 335 Q 264 326 264 312 Q 264 298 273 289 Q 282 280 296 280 Q 310 280 319 289 Q 328 298 328 312 Q 328 326 319 335 Q 310 344 296 344 L 296 344 Z M 104 288 L 120 288 L 104 288 L 120 288 L 120 328 L 120 328 L 160 328 L 160 328 L 160 344 L 160 344 L 120 344 L 120 344 L 120 384 L 120 384 L 104 384 L 104 384 L 104 344 L 104 344 L 64 344 L 64 344 L 64 328 L 64 328 L 104 328 L 104 328 L 104 288 L 104 288 Z" />
</svg>