<svg xmlns="http://www.w3.org/2000/svg" viewBox="0 0 384 448">
  <path d="M 144 240 L 144 224 L 144 240 L 144 224 L 144 16 L 144 16 L 240 16 L 240 16 L 240 224 L 240 224 L 240 240 L 240 240 L 256 240 L 368 240 L 368 249 L 368 249 L 192 425 L 192 425 L 16 249 L 16 249 L 16 240 L 16 240 L 128 240 L 144 240 Z M 0 256 L 181 437 L 0 256 L 181 437 L 192 448 L 192 448 L 203 437 L 203 437 L 384 256 L 384 256 L 384 240 L 384 240 L 384 224 L 384 224 L 368 224 L 256 224 L 256 208 L 256 208 L 256 16 L 256 16 L 256 0 L 256 0 L 240 0 L 128 0 L 128 16 L 128 16 L 128 208 L 128 208 L 128 224 L 128 224 L 112 224 L 0 224 L 0 240 L 0 240 L 0 256 L 0 256 Z" />
</svg>