<svg xmlns="http://www.w3.org/2000/svg" viewBox="0 0 640 435">
  <path d="M 128 156 Q 154 144 222 119 L 222 119 L 222 119 Q 290 94 367 67 L 367 67 L 367 67 Q 445 40 500 20 L 500 20 L 500 20 Q 556 1 559 0 L 559 0 L 559 0 Q 559 0 559 0 L 640 162 L 640 162 Q 639 163 606 185 Q 573 208 523 242 Q 519 235 514 229 Q 551 203 580 184 Q 591 176 601 170 Q 610 163 617 159 L 620 157 L 620 157 L 551 20 L 551 20 L 548 21 L 548 21 Q 545 22 542 23 Q 528 28 506 35 Q 505 36 504 36 Q 448 55 373 82 Q 295 109 228 133 Q 161 158 135 170 Q 87 196 71 245 Q 54 293 78 342 Q 103 390 151 406 Q 200 423 249 400 Q 258 395 273 386 Q 277 393 282 399 Q 266 409 256 414 Q 213 435 169 427 Q 125 420 92 389 L 92 389 L 92 389 L 57 406 L 57 406 L 43 413 L 43 413 L 36 399 L 36 399 L 7 342 L 7 342 L 0 327 L 0 327 L 14 320 L 14 320 L 49 303 L 49 303 Q 44 258 65 218 Q 85 178 128 156 L 128 156 Z M 52 319 Q 52 319 52 319 L 52 319 L 52 319 Q 52 319 52 319 L 22 335 L 22 335 L 50 392 L 50 392 L 81 376 L 81 376 Q 81 376 81 376 Q 81 376 81 376 Q 71 364 63 349 Q 56 334 52 319 L 52 319 Z M 496 317 Q 496 291 483 269 L 483 269 L 483 269 Q 470 247 448 234 Q 425 221 400 221 Q 375 221 352 234 Q 330 247 317 269 Q 304 291 304 317 Q 304 343 317 365 Q 330 387 352 400 Q 375 413 400 413 Q 425 413 448 400 Q 470 387 483 365 Q 496 343 496 317 L 496 317 Z M 288 317 Q 288 287 303 261 L 303 261 L 303 261 Q 318 235 344 220 Q 370 205 400 205 Q 430 205 456 220 Q 482 235 497 261 Q 512 287 512 317 Q 512 347 497 373 Q 482 399 456 414 Q 430 429 400 429 Q 370 429 344 414 Q 318 399 303 373 Q 288 347 288 317 L 288 317 Z M 424 317 Q 422 295 400 293 Q 378 295 376 317 Q 378 339 400 341 Q 422 339 424 317 L 424 317 Z M 360 317 Q 361 294 380 282 Q 400 272 420 282 Q 439 294 440 317 Q 439 340 420 352 Q 400 362 380 352 Q 361 340 360 317 L 360 317 Z" />
</svg>