<svg xmlns="http://www.w3.org/2000/svg" viewBox="0 0 614 502">
  <path d="M 99 0 L 105 5 L 99 0 L 105 5 L 193 93 L 193 93 L 198 99 L 198 99 L 187 110 L 187 110 L 181 105 L 181 105 L 107 30 L 107 30 L 107 459 L 107 459 L 299 459 L 299 459 L 299 35 L 299 35 L 299 27 L 299 27 L 307 27 L 523 27 L 523 35 L 523 35 L 523 472 L 523 472 L 597 397 L 597 397 L 603 392 L 603 392 L 614 403 L 614 403 L 609 409 L 609 409 L 521 497 L 521 497 L 515 502 L 515 502 L 509 497 L 509 497 L 421 409 L 421 409 L 415 403 L 415 403 L 427 392 L 427 392 L 433 397 L 433 397 L 507 472 L 507 472 L 507 43 L 507 43 L 315 43 L 315 43 L 315 467 L 315 467 L 315 475 L 315 475 L 307 475 L 91 475 L 91 467 L 91 467 L 91 30 L 91 30 L 17 105 L 17 105 L 11 110 L 11 110 L 0 99 L 0 99 L 5 93 L 5 93 L 93 5 L 93 5 L 99 0 L 99 0 Z" />
</svg>