<svg xmlns="http://www.w3.org/2000/svg" viewBox="0 0 576 512">
  <path d="M 400 240 L 400 224 L 400 240 L 400 224 L 384 224 L 327 224 Q 286 225 260 252 Q 233 278 232 319 Q 232 333 236 346 Q 231 342 225 338 Q 202 322 185 298 Q 169 274 168 240 Q 170 179 210 138 Q 251 98 312 96 L 384 96 L 400 96 L 400 80 L 400 80 L 400 16 L 400 16 L 409 16 L 409 16 L 553 160 L 553 160 L 409 304 L 409 304 L 400 304 L 400 304 L 400 240 L 400 240 Z M 280 384 Q 280 384 273 377 L 273 377 L 273 377 Q 266 370 259 358 Q 249 342 248 319 Q 249 285 271 263 Q 293 241 327 240 L 368 240 L 384 240 L 384 256 L 384 256 L 384 304 L 384 304 L 384 320 L 384 320 L 400 320 L 416 320 L 565 171 L 565 171 L 576 160 L 576 160 L 565 149 L 565 149 L 416 0 L 416 0 L 400 0 L 384 0 L 384 16 L 384 16 L 384 64 L 384 64 L 384 80 L 384 80 L 368 80 L 312 80 Q 244 82 199 127 Q 154 172 152 240 Q 154 293 186 324 Q 217 356 248 370 Q 278 384 280 384 L 280 384 Z M 8 32 L 0 32 L 8 32 L 0 32 L 0 40 L 0 40 L 0 504 L 0 504 L 0 512 L 0 512 L 8 512 L 480 512 L 480 504 L 480 504 L 480 392 L 480 392 L 480 384 L 480 384 L 464 384 L 464 384 L 464 392 L 464 392 L 464 496 L 464 496 L 16 496 L 16 496 L 16 48 L 16 48 L 152 48 L 160 48 L 160 32 L 160 32 L 152 32 L 8 32 Z" />
</svg>