<svg xmlns="http://www.w3.org/2000/svg" viewBox="0 0 448 448">
  <path d="M 224 425 L 16 217 L 224 425 L 16 217 L 16 16 L 16 16 L 217 16 L 217 16 L 425 224 L 425 224 L 224 425 L 224 425 Z M 437 213 L 224 0 L 437 213 L 224 0 L 16 0 L 0 0 L 0 16 L 0 16 L 0 224 L 0 224 L 213 437 L 213 437 L 224 448 L 224 448 L 235 437 L 235 437 L 437 235 L 437 235 L 448 224 L 448 224 L 437 213 L 437 213 Z M 112 152 Q 135 151 147 132 Q 157 112 147 92 Q 135 73 112 72 Q 89 73 77 92 Q 67 112 77 132 Q 89 151 112 152 L 112 152 Z M 88 112 Q 90 90 112 88 Q 134 90 136 112 Q 134 134 112 136 Q 90 134 88 112 L 88 112 Z" />
</svg>