<svg xmlns="http://www.w3.org/2000/svg" viewBox="0 0 512 512">
  <path d="M 16 256 Q 17 189 49 135 L 49 135 L 49 135 Q 81 81 135 49 L 135 49 L 135 49 Q 189 17 256 16 Q 323 17 377 49 Q 431 81 463 135 Q 495 189 496 256 L 496 456 L 496 456 L 320 456 L 320 456 L 320 432 L 320 432 L 320 416 L 320 416 L 304 416 L 240 416 Q 220 417 206 430 Q 193 444 192 464 Q 193 484 206 498 Q 220 511 240 512 L 304 512 L 320 512 L 320 496 L 320 496 L 320 472 L 320 472 L 504 472 L 512 472 L 512 464 L 512 464 L 512 256 L 512 256 Q 511 184 477 127 Q 443 69 385 35 Q 328 1 256 0 Q 184 1 127 35 Q 69 69 35 127 Q 1 184 0 256 L 0 312 L 0 312 L 0 320 L 0 320 L 16 320 L 16 320 L 16 312 L 16 312 L 16 256 L 16 256 Z M 304 464 L 304 472 L 304 464 L 304 472 Q 304 472 304 472 Q 304 472 304 472 L 304 496 L 304 496 L 240 496 L 240 496 Q 226 496 217 487 Q 208 478 208 464 Q 208 450 217 441 Q 226 432 240 432 L 304 432 L 304 432 L 304 464 L 304 464 Z M 80 208 L 160 208 L 80 208 L 160 208 L 160 368 L 160 368 L 80 368 L 80 368 L 80 208 L 80 208 Z M 64 192 L 64 208 L 64 192 L 64 208 L 64 368 L 64 368 L 64 384 L 64 384 L 80 384 L 176 384 L 176 368 L 176 368 L 176 208 L 176 208 L 176 192 L 176 192 L 160 192 L 64 192 Z M 432 208 L 432 368 L 432 208 L 432 368 L 352 368 L 352 368 L 352 208 L 352 208 L 432 208 L 432 208 Z M 448 192 L 432 192 L 448 192 L 336 192 L 336 208 L 336 208 L 336 368 L 336 368 L 336 384 L 336 384 L 352 384 L 448 384 L 448 368 L 448 368 L 448 208 L 448 208 L 448 192 L 448 192 Z" />
</svg>