<svg xmlns="http://www.w3.org/2000/svg" viewBox="0 0 564 448">
  <path d="M 436 448 Q 438 448 467 432 Q 498 415 530 376 Q 561 337 564 272 Q 562 197 512 148 Q 463 98 388 96 L 324 96 L 308 96 L 308 80 L 308 80 L 308 16 L 308 16 L 308 0 L 308 0 L 292 0 L 276 0 L 96 165 L 96 165 L 84 176 L 84 176 L 96 187 L 96 187 L 276 352 L 276 352 L 292 352 L 308 352 L 308 336 L 308 336 L 308 272 L 308 272 L 308 256 L 308 256 L 324 256 L 356 256 Q 404 257 435 289 Q 467 320 468 368 Q 467 400 455 421 Q 439 447 436 448 L 436 448 Z M 490 396 Q 484 401 479 405 Q 484 388 484 368 Q 483 314 447 277 Q 410 241 356 240 L 308 240 L 292 240 L 292 256 L 292 256 L 292 336 L 292 336 L 282 336 L 282 336 L 108 176 L 108 176 L 282 16 L 282 16 L 292 16 L 292 16 L 292 96 L 292 96 L 292 112 L 292 112 L 308 112 L 388 112 Q 456 114 501 159 Q 546 204 548 272 Q 547 315 530 346 Q 513 377 490 396 L 490 396 Z M 185 28 L 191 23 L 185 28 L 191 23 L 181 11 L 181 11 L 175 16 L 175 16 L 7 170 L 7 170 L 0 176 L 0 176 L 7 182 L 7 182 L 175 336 L 175 336 L 181 341 L 181 341 L 191 330 L 191 330 L 185 324 L 185 324 L 24 176 L 24 176 L 185 28 L 185 28 Z" />
</svg>