<svg xmlns="http://www.w3.org/2000/svg" viewBox="0 0 640 511">
  <path d="M 352 255 Q 352 261 352 266 Q 335 290 327 319 L 166 319 L 166 319 Q 160 288 160 255 Q 160 222 166 191 L 346 191 L 346 191 Q 352 222 352 255 L 352 255 Z M 366 486 Q 334 502 297 508 Q 317 481 337 442 Q 348 466 366 486 L 366 486 Z M 320 367 Q 320 382 323 397 Q 309 430 293 456 Q 272 489 256 510 Q 240 489 220 456 Q 192 412 174 351 L 321 351 L 321 351 Q 320 359 320 367 L 320 367 Z M 496 191 L 504 191 L 496 191 L 504 191 L 504 191 L 504 191 Q 500 191 496 191 L 496 191 Z M 383 232 Q 382 211 378 191 L 496 191 L 496 191 Q 430 192 383 232 L 383 232 Z M 493 159 L 371 159 L 493 159 L 371 159 Q 358 110 338 70 Q 317 30 297 2 Q 365 14 416 56 Q 468 97 493 159 L 493 159 Z M 338 159 L 174 159 L 338 159 L 174 159 Q 192 98 219 54 Q 240 21 256 0 Q 272 21 293 54 Q 320 98 338 159 L 338 159 Z M 141 159 L 19 159 L 141 159 L 19 159 Q 44 97 95 56 Q 147 14 215 2 Q 195 30 174 70 Q 154 110 141 159 L 141 159 Z M 8 191 L 134 191 L 8 191 L 134 191 Q 128 222 128 255 Q 128 288 134 319 L 8 319 L 8 319 Q 0 288 0 255 Q 0 222 8 191 L 8 191 Z M 141 351 Q 154 400 174 440 L 174 440 L 174 440 Q 195 480 215 508 Q 147 496 96 454 Q 44 413 19 351 L 141 351 L 141 351 Z M 352 367 Q 352 328 371 295 L 371 295 L 371 295 Q 390 262 424 242 Q 458 223 496 223 Q 534 223 568 242 Q 602 262 621 295 Q 640 328 640 367 Q 640 406 621 439 Q 602 472 568 492 Q 534 511 496 511 Q 458 511 424 492 Q 390 472 371 439 Q 352 406 352 367 L 352 367 Z M 609 347 Q 590 319 561 303 L 561 303 L 561 303 Q 531 287 496 287 Q 461 287 431 303 Q 402 319 384 347 L 409 366 L 409 366 Q 439 321 496 319 Q 553 321 583 366 L 609 347 L 609 347 Z M 496 351 Q 455 352 432 383 L 458 402 L 458 402 Q 472 384 496 383 Q 520 384 534 402 L 560 383 L 560 383 Q 537 352 496 351 L 496 351 Z M 496 451 Q 514 449 516 431 Q 514 413 496 411 Q 478 413 476 431 Q 478 449 496 451 L 496 451 Z" />
</svg>