<svg xmlns="http://www.w3.org/2000/svg" viewBox="0 0 576 512">
  <path d="M 368 16 L 368 112 L 368 16 L 368 112 L 16 112 L 16 112 L 16 16 L 16 16 L 368 16 L 368 16 Z M 16 0 L 0 0 L 16 0 L 0 0 L 0 16 L 0 16 L 0 112 L 0 112 L 0 128 L 0 128 L 16 128 L 384 128 L 384 112 L 384 112 L 384 16 L 384 16 L 384 0 L 384 0 L 368 0 L 16 0 Z M 32 416 L 32 496 L 32 416 L 32 496 L 32 512 L 32 512 L 48 512 L 331 512 Q 320 505 311 496 L 48 496 L 48 496 L 48 416 L 48 416 L 152 416 L 160 416 L 160 400 L 160 400 L 152 400 L 48 400 L 48 320 L 48 320 L 152 320 L 160 320 L 160 304 L 160 304 L 152 304 L 48 304 L 48 224 L 48 224 L 152 224 L 160 224 L 160 208 L 160 208 L 152 208 L 48 208 L 48 160 L 48 160 L 32 160 L 32 160 L 32 208 L 32 208 L 32 224 L 32 224 L 32 304 L 32 304 L 32 320 L 32 320 L 32 400 L 32 400 L 32 416 L 32 416 Z M 352 160 L 336 160 L 352 160 L 336 160 L 336 221 L 336 221 Q 344 215 352 211 L 352 160 L 352 160 Z M 432 240 Q 467 240 496 257 L 496 257 L 496 257 Q 525 274 543 304 Q 560 334 560 368 Q 560 402 543 432 Q 525 462 496 479 Q 467 496 432 496 Q 397 496 368 479 Q 339 462 321 432 Q 304 402 304 368 Q 304 334 321 304 Q 339 274 368 257 Q 397 240 432 240 L 432 240 Z M 432 512 Q 471 512 504 493 L 504 493 L 504 493 Q 537 474 557 440 Q 576 406 576 368 Q 576 330 557 296 Q 537 262 504 243 Q 471 224 432 224 Q 393 224 360 243 Q 327 262 307 296 Q 288 330 288 368 Q 288 406 307 440 Q 327 474 360 493 Q 393 512 432 512 L 432 512 Z M 376 301 L 365 312 L 376 301 L 365 312 L 370 318 L 370 318 L 482 430 L 482 430 L 488 435 L 488 435 L 499 424 L 499 424 L 494 418 L 494 418 L 382 306 L 382 306 L 376 301 L 376 301 Z" />
</svg>