<svg xmlns="http://www.w3.org/2000/svg" viewBox="0 0 512 512">
  <path d="M 25.6 59.2 L 16 51.2 L 0 71.2 L 10.4 79.2 L 486.4 452.8 L 496 460.8 L 512 440.8 L 502.4 432.8 L 25.6 59.2 L 25.6 59.2 Z M 473.6 256 Q 503.2 224.8 503.2 184 L 503.2 184 Q 503.2 142.4 473.6 111.2 Q 441.6 81.6 400.8 81.6 Q 360 81.6 328.8 111.2 L 310.4 129.6 L 328.8 147.2 L 346.4 129.6 Q 370.4 106.4 400.8 106.4 Q 431.2 106.4 455.2 129.6 Q 477.6 152.8 477.6 184 Q 477.6 214.4 455.2 237.6 L 393.6 299.2 L 413.6 315.2 L 473.6 256 L 473.6 256 Z M 332 380.8 L 304.8 360 Q 272 361.6 247.2 337.6 Q 229.6 320 225.6 297.6 L 199.2 276.8 Q 196 321.6 228.8 356 Q 250.4 376.8 277.6 383.2 Q 304.8 389.6 332 380.8 L 332 380.8 Z M 264.8 174.4 Q 282.4 192 286.4 214.4 L 312.8 236 Q 316 191.2 283.2 156 Q 261.6 135.2 234.4 128.8 Q 207.2 122.4 180 131.2 L 207.2 152 Q 240 150.4 264.8 174.4 L 264.8 174.4 Z M 118.4 212.8 L 98.4 196.8 L 39.2 256 Q 8.8 287.2 8.8 328.8 Q 8.8 369.6 39.2 400.8 Q 70.4 431.2 111.2 431.2 Q 152 431.2 184 400.8 L 201.6 382.4 L 184 364.8 L 165.6 382.4 Q 141.6 405.6 111.2 405.6 Q 80.8 405.6 56.8 382.4 Q 34.4 359.2 34.4 328.8 Q 34.4 297.6 56.8 274.4 L 118.4 212.8 L 118.4 212.8 Z" />
</svg>