<svg xmlns="http://www.w3.org/2000/svg" viewBox="0 0 574 448">
  <path d="M 310 0 L 302 0 L 310 0 L 302 0 L 302 16 L 302 16 L 310 16 L 374 16 Q 450 18 501 67 Q 553 117 558 192 L 443 192 L 443 192 L 389 100 L 389 100 L 382 89 L 382 89 L 375 100 L 375 100 L 323 181 L 323 181 L 269 100 L 269 100 L 262 90 L 262 90 L 256 99 L 256 99 L 188 192 L 188 192 L 46 192 L 30 192 L 30 208 L 30 208 L 30 307 L 30 307 L 85 332 L 85 332 L 0 448 L 0 448 L 20 448 L 20 448 L 100 339 L 100 339 L 174 373 L 174 373 L 118 448 L 118 448 L 138 448 L 138 448 L 189 380 L 189 380 L 198 384 L 198 384 L 288 384 L 288 384 L 248 448 L 248 448 L 267 448 L 267 448 L 307 384 L 307 384 L 478 384 L 478 384 Q 487 384 496 382 L 529 448 L 529 448 L 547 448 L 547 448 L 512 378 L 512 378 Q 540 367 557 343 Q 574 319 574 288 L 574 208 L 574 208 L 574 192 L 574 192 L 574 192 L 574 192 Q 569 110 513 56 Q 457 2 374 0 L 310 0 L 310 0 Z M 109 326 L 196 208 L 109 326 L 196 208 L 433 208 L 433 208 L 435 211 L 435 211 L 440 208 L 440 208 L 558 208 L 558 208 L 558 288 L 558 288 Q 557 322 535 345 Q 512 367 478 368 L 202 368 L 202 368 L 109 326 L 109 326 Z M 176 208 L 95 319 L 176 208 L 95 319 L 46 297 L 46 297 L 46 208 L 46 208 L 176 208 L 176 208 Z M 208 192 L 262 118 L 208 192 L 262 118 L 311 192 L 311 192 L 208 192 L 208 192 Z M 334 192 L 382 119 L 334 192 L 382 119 L 424 192 L 424 192 L 334 192 L 334 192 Z M 494 288 Q 493 273 478 272 Q 463 273 462 288 Q 463 303 478 304 Q 493 303 494 288 L 494 288 Z" />
</svg>