<svg xmlns="http://www.w3.org/2000/svg" viewBox="0 0 576 512">
  <path d="M 416 16 L 416 208 L 416 16 L 416 208 L 432 208 L 432 208 L 432 16 L 432 16 L 432 0 L 432 0 L 416 0 L 144 0 L 144 16 L 144 16 L 144 208 L 144 208 L 160 208 L 160 208 L 160 16 L 160 16 L 240 16 L 240 16 L 240 96 L 240 96 L 240 112 L 240 112 L 256 112 L 336 112 L 336 96 L 336 96 L 336 16 L 336 16 L 416 16 L 416 16 Z M 256 16 L 320 16 L 256 16 L 320 16 L 320 96 L 320 96 L 256 96 L 256 96 L 256 16 L 256 16 Z M 320 512 L 560 512 L 320 512 L 576 512 L 576 496 L 576 496 L 576 256 L 576 256 L 576 240 L 576 240 L 560 240 L 320 240 L 320 256 L 320 256 L 384 256 L 384 256 L 384 336 L 384 336 L 384 352 L 384 352 L 400 352 L 480 352 L 480 336 L 480 336 L 480 256 L 480 256 L 560 256 L 560 256 L 560 496 L 560 496 L 320 496 L 320 496 L 320 512 L 320 512 Z M 400 256 L 464 256 L 400 256 L 464 256 L 464 336 L 464 336 L 400 336 L 400 336 L 400 256 L 400 256 Z M 272 256 L 272 496 L 272 256 L 272 496 L 16 496 L 16 496 L 16 256 L 16 256 L 96 256 L 96 256 L 96 336 L 96 336 L 96 352 L 96 352 L 112 352 L 192 352 L 192 336 L 192 336 L 192 256 L 192 256 L 272 256 L 272 256 Z M 112 336 L 112 256 L 112 336 L 112 256 L 176 256 L 176 256 L 176 336 L 176 336 L 112 336 L 112 336 Z M 272 240 L 192 240 L 272 240 L 0 240 L 0 256 L 0 256 L 0 496 L 0 496 L 0 512 L 0 512 L 16 512 L 288 512 L 288 496 L 288 496 L 288 256 L 288 256 L 288 240 L 288 240 L 272 240 L 272 240 Z" />
</svg>