<svg xmlns="http://www.w3.org/2000/svg" viewBox="0 0 448 512">
  <path d="M 45 80 L 404 80 L 45 80 L 404 80 L 419 142 L 419 142 Q 432 194 432 247 L 432 265 L 432 265 Q 432 318 419 370 L 404 432 L 404 432 L 45 432 L 45 432 L 29 370 L 29 370 Q 16 318 16 265 L 16 247 L 16 247 Q 16 194 29 142 L 45 80 L 45 80 Z M 405 64 L 43 64 L 405 64 L 43 64 L 24 16 L 24 16 L 424 16 L 424 16 L 405 64 L 405 64 Z M 43 448 L 405 448 L 43 448 L 405 448 L 424 496 L 424 496 L 24 496 L 24 496 L 43 448 L 43 448 Z M 0 0 L 6 16 L 0 0 L 6 16 L 30 74 L 30 74 L 13 139 L 13 139 Q 0 192 0 247 L 0 265 L 0 265 Q 0 320 13 374 L 30 438 L 30 438 L 6 496 L 6 496 L 0 512 L 0 512 L 17 512 L 448 512 L 442 496 L 442 496 L 418 438 L 418 438 L 435 374 L 435 374 Q 448 320 448 265 L 448 247 L 448 247 Q 448 192 435 139 L 419 74 L 419 74 L 442 16 L 442 16 L 448 0 L 448 0 L 431 0 L 0 0 Z M 96 160 L 96 168 L 96 160 L 96 168 L 96 176 L 96 176 Q 97 228 131 264 Q 165 299 216 304 L 216 368 L 216 368 L 216 376 L 216 376 L 232 376 L 232 376 L 232 368 L 232 368 L 232 304 L 232 304 Q 283 299 317 264 Q 351 228 352 176 L 352 168 L 352 168 L 352 160 L 352 160 L 344 160 L 313 160 Q 283 160 260 174 Q 237 188 224 211 Q 211 188 188 174 Q 165 160 135 160 L 104 160 L 96 160 Z M 232 288 L 232 231 L 232 288 L 232 231 Q 242 207 263 192 Q 284 176 313 176 L 336 176 L 336 176 Q 335 221 306 252 Q 277 283 232 288 L 232 288 Z M 216 231 L 216 288 L 216 231 L 216 288 Q 171 284 142 252 Q 113 221 112 176 L 135 176 L 135 176 Q 164 176 185 192 Q 206 207 216 231 L 216 231 Z" />
</svg>