<svg xmlns="http://www.w3.org/2000/svg" viewBox="0 0 512 441">
  <path d="M 505 41 L 485 53 L 505 41 L 485 53 L 437 83 L 437 83 Q 509 110 512 169 L 512 201 L 512 201 L 512 329 L 512 329 Q 509 377 440 408 L 440 289 L 440 289 L 440 280 L 440 280 Q 418 289 392 296 L 392 424 L 392 424 Q 342 438 280 441 L 280 313 L 280 313 Q 268 313 256 313 Q 244 313 232 313 L 232 441 L 232 441 Q 170 438 120 424 L 120 296 L 120 296 Q 94 289 72 280 L 72 289 L 72 289 L 72 408 L 72 408 Q 3 377 0 329 L 0 201 L 0 201 L 0 169 L 0 169 Q 3 110 75 83 Q 147 57 256 57 Q 321 57 374 66 L 459 13 L 459 13 L 480 0 L 480 0 L 505 41 L 505 41 Z M 243 149 L 310 107 L 243 149 L 310 107 Q 284 105 256 105 Q 152 105 92 128 Q 64 139 56 150 Q 47 161 48 169 Q 47 170 55 180 Q 63 190 94 205 Q 155 232 256 233 Q 357 232 418 205 Q 449 190 457 180 Q 465 170 464 169 Q 465 161 456 150 Q 448 139 420 128 Q 404 122 384 117 L 269 189 L 269 189 L 248 202 L 248 202 L 223 162 L 223 162 L 243 149 L 243 149 Z" />
</svg>