<svg xmlns="http://www.w3.org/2000/svg" viewBox="0 0 640 512">
  <path d="M 449 439 Q 393 479 320 480 Q 257 479 207 449 Q 156 420 127 369 Q 97 319 96 256 Q 96 212 112 173 L 86 153 L 86 153 Q 64 200 64 256 Q 65 328 99 385 Q 133 443 191 477 Q 248 511 320 512 Q 409 511 475 460 L 449 439 L 449 439 Z M 320 0 Q 231 1 165 52 L 191 73 L 191 73 Q 247 33 320 32 Q 383 33 433 63 Q 484 92 513 143 Q 543 193 544 256 Q 544 300 528 339 L 554 359 L 554 359 Q 576 312 576 256 Q 575 184 541 127 Q 507 69 449 35 Q 392 1 320 0 L 320 0 Z M 205 346 L 192 384 L 205 346 L 192 384 L 230 371 L 230 371 L 323 340 L 323 340 L 293 317 L 293 317 L 243 333 L 243 333 L 258 288 L 258 288 L 231 267 L 231 267 L 205 346 L 205 346 Z M 317 172 L 347 196 L 317 172 L 347 196 L 397 179 L 397 179 L 382 224 L 382 224 L 409 245 L 409 245 L 435 166 L 435 166 L 448 128 L 448 128 L 410 141 L 410 141 L 317 172 L 317 172 Z M 33 10 L 20 0 L 33 10 L 20 0 L 0 25 L 0 25 L 13 35 L 13 35 L 608 502 L 608 502 L 620 512 L 620 512 L 640 487 L 640 487 L 628 477 L 628 477 L 33 10 L 33 10 Z" />
</svg>