<svg xmlns="http://www.w3.org/2000/svg" viewBox="0 0 384 512">
  <path d="M 74 400 L 111 103 L 74 400 L 111 103 L 192 23 L 192 23 L 273 103 L 273 103 L 310 400 L 310 400 L 326 400 L 326 400 L 288 96 L 288 96 L 203 11 L 203 11 L 192 0 L 192 0 L 181 11 L 181 11 L 96 96 L 96 96 L 58 400 L 58 400 L 74 400 L 74 400 Z M 144 272 L 240 272 L 144 272 L 240 272 L 240 304 L 240 304 L 144 304 L 144 304 L 144 272 L 144 272 Z M 144 256 L 128 256 L 144 256 L 128 256 L 128 272 L 128 272 L 128 304 L 128 304 L 128 320 L 128 320 L 144 320 L 256 320 L 256 304 L 256 304 L 256 272 L 256 272 L 256 256 L 256 256 L 240 256 L 144 256 Z M 16 496 L 16 448 L 16 496 L 16 448 L 368 448 L 368 448 L 368 496 L 368 496 L 16 496 L 16 496 Z M 0 432 L 0 448 L 0 432 L 0 448 L 0 496 L 0 496 L 0 512 L 0 512 L 16 512 L 384 512 L 384 496 L 384 496 L 384 448 L 384 448 L 384 432 L 384 432 L 368 432 L 0 432 Z" />
</svg>