<svg xmlns="http://www.w3.org/2000/svg" viewBox="0 0 512 448">
  <path d="M 224 0 L 272 64 L 224 0 L 272 64 L 464 64 L 512 64 L 512 112 L 512 112 L 512 400 L 512 400 L 512 448 L 512 448 L 464 448 L 0 448 L 0 400 L 0 400 L 0 48 L 0 48 L 0 0 L 0 0 L 48 0 L 224 0 Z M 272 112 L 248 112 L 272 112 L 248 112 L 234 93 L 234 93 L 200 48 L 200 48 L 48 48 L 48 48 L 48 400 L 48 400 L 464 400 L 464 400 L 464 112 L 464 112 L 272 112 L 272 112 Z M 241 337 L 224 354 L 241 337 L 224 354 L 207 337 L 207 337 L 127 257 L 127 257 L 161 223 L 161 223 L 224 286 L 224 286 L 351 159 L 351 159 L 385 193 L 385 193 L 241 337 L 241 337 Z" />
</svg>