<svg xmlns="http://www.w3.org/2000/svg" viewBox="0 0 512 384">
  <path d="M 232 0 L 232 8 L 232 0 L 232 8 L 232 55 L 232 55 L 368 34 L 368 34 L 384 32 L 384 32 L 384 48 L 384 48 L 384 112 L 384 112 L 384 128 L 384 128 L 368 126 L 368 126 L 232 105 L 232 105 L 232 144 L 232 144 L 272 144 L 275 144 L 278 146 L 278 146 L 323 192 L 323 192 L 376 192 L 376 192 Q 434 193 472 232 Q 511 270 512 328 L 512 376 L 512 376 L 512 384 L 512 384 L 504 384 L 384 384 L 384 376 L 384 376 L 384 344 L 384 344 Q 382 322 360 320 L 320 320 L 320 320 Q 285 366 224 368 Q 163 366 128 320 L 8 320 L 0 320 L 0 304 L 0 304 L 8 304 L 136 304 L 139 308 L 139 308 Q 169 350 224 352 Q 279 350 309 308 L 312 304 L 312 304 L 316 304 L 360 304 Q 377 305 388 316 Q 400 327 400 344 L 400 368 L 400 368 L 496 368 L 496 368 L 496 328 L 496 328 Q 495 277 461 243 Q 427 209 376 208 L 320 208 L 317 208 L 315 206 L 315 206 L 269 160 L 269 160 L 179 160 L 179 160 L 134 206 L 134 206 L 131 208 L 131 208 L 128 208 L 0 208 L 0 192 L 0 192 L 8 192 L 125 192 L 170 146 L 170 146 L 173 144 L 173 144 L 176 144 L 216 144 L 216 105 L 216 105 L 80 126 L 80 126 L 64 128 L 64 128 L 64 112 L 64 112 L 64 48 L 64 48 L 64 32 L 64 32 L 80 34 L 80 34 L 216 55 L 216 55 L 216 8 L 216 8 L 216 0 L 216 0 L 232 0 L 232 0 Z M 80 51 L 80 109 L 80 51 L 80 109 L 216 89 L 216 89 L 216 71 L 216 71 L 80 51 L 80 51 Z M 232 71 L 232 89 L 232 71 L 232 89 L 368 109 L 368 109 L 368 51 L 368 51 L 232 71 L 232 71 Z" />
</svg>