<svg xmlns="http://www.w3.org/2000/svg" viewBox="0 0 638 480">
  <path d="M 40 0 L 32 0 L 40 0 L 32 0 L 32 8 L 32 8 L 32 160 L 32 160 L 32 168 L 32 168 L 32 192 L 32 192 L 32 288 L 32 288 L 34 288 L 34 288 Q 1 320 0 368 Q 1 416 33 447 Q 64 479 112 480 L 368 480 L 368 480 Q 416 479 447 447 Q 479 416 480 368 Q 479 320 446 288 L 448 288 L 536 288 L 536 368 L 536 368 L 536 371 L 536 371 L 538 373 L 538 373 L 626 477 L 626 477 L 638 467 L 638 467 L 552 365 L 552 365 L 552 211 L 552 211 L 638 109 L 638 109 L 626 99 L 626 99 L 538 203 L 538 203 L 536 205 L 536 205 L 536 208 L 536 208 L 536 272 L 536 272 L 448 272 L 448 272 L 448 168 L 448 168 L 448 160 L 448 160 L 440 160 L 360 160 L 360 96 L 360 96 L 360 88 L 360 88 L 344 88 L 344 88 L 344 96 L 344 96 L 344 160 L 344 160 L 285 160 L 285 160 L 199 4 L 199 4 L 197 0 L 197 0 L 192 0 L 40 0 Z M 432 272 L 432 276 L 432 272 L 432 276 Q 404 257 368 256 L 112 256 L 112 256 Q 76 257 48 276 L 48 192 L 48 192 L 48 176 L 48 176 L 280 176 L 280 176 L 280 176 L 280 176 L 344 176 L 432 176 L 432 272 L 432 272 Z M 267 160 L 48 160 L 267 160 L 48 160 L 48 16 L 48 16 L 187 16 L 187 16 L 267 160 L 267 160 Z M 112 272 L 368 272 L 112 272 L 368 272 Q 409 273 436 300 Q 463 327 464 368 Q 463 409 436 436 Q 409 463 368 464 L 112 464 L 112 464 Q 71 463 44 436 Q 17 409 16 368 Q 17 327 44 300 Q 71 273 112 272 L 112 272 Z M 96 384 Q 111 383 112 368 Q 111 353 96 352 Q 81 353 80 368 Q 81 383 96 384 L 96 384 Z M 400 368 Q 399 353 384 352 Q 369 353 368 368 Q 369 383 384 384 Q 399 383 400 368 L 400 368 Z M 288 384 Q 303 383 304 368 Q 303 353 288 352 Q 273 353 272 368 Q 273 383 288 384 L 288 384 Z M 208 368 Q 207 353 192 352 Q 177 353 176 368 Q 177 383 192 384 Q 207 383 208 368 L 208 368 Z" />
</svg>