<svg xmlns="http://www.w3.org/2000/svg" viewBox="0 0 640 512">
  <path d="M 16 5 L 10 0 L 16 5 L 10 0 L 0 13 L 0 13 L 6 18 L 6 18 L 624 507 L 624 507 L 630 512 L 630 512 L 640 500 L 640 500 L 634 495 L 634 495 L 16 5 L 16 5 Z M 504 264 L 552 264 L 504 264 L 552 264 L 552 296 L 552 296 L 552 304 L 552 304 L 568 304 L 568 304 L 568 296 L 568 296 L 568 216 L 568 216 L 568 208 L 568 208 L 552 208 L 552 208 L 552 216 L 552 216 L 552 248 L 552 248 L 504 248 L 504 248 Q 500 179 456 132 L 490 98 L 490 98 Q 490 98 490 98 L 512 120 L 512 120 L 518 126 L 518 126 L 529 115 L 529 115 L 524 109 L 524 109 L 467 52 L 467 52 L 461 47 L 461 47 L 450 58 L 450 58 L 456 64 L 456 64 L 478 86 L 478 86 Q 478 86 478 86 Q 478 86 478 86 L 444 120 L 444 120 Q 397 76 328 72 L 328 24 L 328 24 L 360 24 L 368 24 L 368 8 L 368 8 L 360 8 L 272 8 L 272 24 L 272 24 L 280 24 L 312 24 L 312 72 L 312 72 Q 268 74 232 95 L 246 106 L 246 106 Q 279 88 320 88 Q 391 90 439 137 Q 486 185 488 256 Q 488 275 484 294 L 498 305 L 498 305 Q 503 285 504 264 L 504 264 Z M 142 208 Q 137 227 136 248 L 88 248 L 88 248 L 88 216 L 88 216 L 88 208 L 88 208 L 72 208 L 72 208 L 72 216 L 72 216 L 72 296 L 72 296 L 72 304 L 72 304 L 88 304 L 88 304 L 88 296 L 88 296 L 88 264 L 88 264 L 136 264 L 136 264 Q 140 333 184 380 L 150 414 L 150 414 Q 150 414 150 414 Q 150 414 150 414 L 128 392 L 128 392 L 122 386 L 122 386 L 111 397 L 111 397 L 116 403 L 116 403 L 173 460 L 173 460 L 179 465 L 179 465 L 190 454 L 190 454 L 184 448 L 184 448 L 162 426 L 162 426 Q 162 426 162 426 L 196 392 L 196 392 Q 243 436 312 440 L 312 488 L 312 488 L 280 488 L 272 488 L 272 504 L 272 504 L 280 504 L 368 504 L 368 488 L 368 488 L 360 488 L 328 488 L 328 440 L 328 440 Q 372 438 408 417 L 395 407 L 395 407 Q 361 424 320 424 Q 249 422 201 375 Q 154 327 152 256 Q 152 237 156 218 L 142 208 L 142 208 Z" />
</svg>