<svg xmlns="http://www.w3.org/2000/svg" viewBox="0 0 448 512">
  <path d="M 304 16 L 304 256 L 304 16 L 304 256 L 288 256 L 288 256 L 288 16 L 288 16 L 232 16 L 232 16 L 232 256 L 232 256 L 216 256 L 216 256 L 216 16 L 216 16 L 160 16 L 160 16 L 160 256 L 160 256 L 144 256 L 144 256 L 144 16 L 144 16 L 80 16 L 80 16 L 80 256 L 80 256 L 64 256 L 64 256 L 64 16 L 64 16 L 64 0 L 64 0 L 80 0 L 384 0 L 384 16 L 384 16 L 384 256 L 384 256 L 368 256 L 368 256 L 368 16 L 368 16 L 304 16 L 304 16 Z M 16 368 L 432 368 L 16 368 L 432 368 L 432 356 L 432 356 L 406 304 L 406 304 L 42 304 L 42 304 L 16 356 L 16 356 L 16 368 L 16 368 Z M 0 368 L 0 352 L 0 368 L 0 352 L 32 288 L 32 288 L 416 288 L 416 288 L 448 352 L 448 352 L 448 368 L 448 368 L 448 384 L 448 384 L 432 384 L 400 384 L 400 504 L 400 504 L 400 512 L 400 512 L 384 512 L 384 512 L 384 504 L 384 504 L 384 384 L 384 384 L 64 384 L 64 384 L 64 504 L 64 504 L 64 512 L 64 512 L 48 512 L 48 512 L 48 504 L 48 504 L 48 384 L 48 384 L 16 384 L 0 384 L 0 368 L 0 368 Z" />
</svg>