<svg xmlns="http://www.w3.org/2000/svg" viewBox="0 0 320 384">
  <path d="M 16 16 L 16 368 L 16 16 L 16 368 L 112 368 L 112 368 L 112 16 L 112 16 L 16 16 L 16 16 Z M 0 0 L 16 0 L 0 0 L 128 0 L 128 16 L 128 16 L 128 368 L 128 368 L 128 384 L 128 384 L 112 384 L 0 384 L 0 368 L 0 368 L 0 16 L 0 16 L 0 0 L 0 0 Z M 208 16 L 208 368 L 208 16 L 208 368 L 304 368 L 304 368 L 304 16 L 304 16 L 208 16 L 208 16 Z M 192 0 L 208 0 L 192 0 L 320 0 L 320 16 L 320 16 L 320 368 L 320 368 L 320 384 L 320 384 L 304 384 L 192 384 L 192 368 L 192 368 L 192 16 L 192 16 L 192 0 L 192 0 Z" />
</svg>