<svg xmlns="http://www.w3.org/2000/svg" viewBox="0 0 640 288">
  <path d="M 448 16 Q 483 16 512 33 L 512 33 L 512 33 Q 541 50 559 80 Q 576 110 576 144 Q 576 178 559 208 Q 541 238 512 255 Q 483 272 448 272 Q 413 272 384 255 Q 355 238 337 208 Q 320 178 320 144 Q 320 110 337 80 Q 355 50 384 33 Q 413 16 448 16 L 448 16 Z M 448 288 Q 484 288 514 272 L 624 272 L 640 272 L 640 256 L 640 256 L 640 32 L 640 32 L 640 16 L 640 16 L 624 16 L 514 16 Q 484 0 448 0 Q 412 0 382 16 L 220 16 L 220 16 L 0 80 L 0 80 L 0 208 L 0 208 L 219 272 L 219 272 L 382 272 L 382 272 Q 412 288 448 288 L 448 288 Z M 624 256 L 539 256 L 624 256 L 539 256 Q 563 236 577 207 Q 592 178 592 144 Q 592 110 577 81 Q 563 52 539 32 L 624 32 L 624 32 L 624 256 L 624 256 Z M 222 32 L 358 32 L 222 32 L 358 32 Q 333 52 319 81 Q 304 110 304 144 Q 304 178 319 207 Q 333 236 358 256 L 222 256 L 222 256 L 16 196 L 16 196 L 16 92 L 16 92 L 222 32 L 222 32 Z M 414 98 L 408 93 L 414 98 L 408 93 L 397 104 L 397 104 L 402 110 L 402 110 L 437 144 L 437 144 L 402 178 L 402 178 L 397 184 L 397 184 L 408 195 L 408 195 L 414 190 L 414 190 L 448 155 L 448 155 L 482 190 L 482 190 L 488 195 L 488 195 L 499 184 L 499 184 L 494 178 L 494 178 L 459 144 L 459 144 L 494 110 L 494 110 L 499 104 L 499 104 L 488 93 L 488 93 L 482 98 L 482 98 L 448 133 L 448 133 L 414 98 L 414 98 Z" />
</svg>