<svg xmlns="http://www.w3.org/2000/svg" viewBox="0 0 630 449">
  <path d="M 576 0 L 578 6 L 576 0 L 578 6 L 626 126 L 626 126 L 630 135 L 630 135 L 621 137 L 621 137 L 410 193 L 410 193 L 405 194 L 405 194 L 402 190 L 402 190 L 315 61 L 315 61 L 228 190 L 228 190 L 225 194 L 225 194 L 220 193 L 220 193 L 9 137 L 9 137 L 0 134 L 0 134 L 4 126 L 4 126 L 52 6 L 52 6 L 54 0 L 54 0 L 60 1 L 60 1 L 315 38 L 315 38 L 570 1 L 570 1 L 576 0 L 576 0 Z M 566 18 L 329 52 L 566 18 L 329 52 L 412 176 L 412 176 L 608 124 L 608 124 L 566 18 L 566 18 Z M 22 124 L 218 176 L 22 124 L 218 176 L 301 52 L 301 52 L 64 18 L 64 18 L 22 124 L 22 124 Z M 555 185 L 571 181 L 555 185 L 571 181 L 571 385 L 571 385 L 315 449 L 315 449 L 59 385 L 59 385 L 59 181 L 59 181 L 75 185 L 75 185 L 75 373 L 75 373 L 307 431 L 307 431 L 307 169 L 307 169 L 307 161 L 307 161 L 323 161 L 323 161 L 323 169 L 323 169 L 323 431 L 323 431 L 555 373 L 555 373 L 555 185 L 555 185 Z" />
</svg>