<svg xmlns="http://www.w3.org/2000/svg" viewBox="0 0 512 448">
  <path d="M 16 16 L 16 80 L 16 16 L 16 80 L 40 80 L 80 80 L 80 16 L 80 16 L 16 16 L 16 16 Z M 40 96 L 16 96 L 40 96 L 0 96 L 0 80 L 0 80 L 0 16 L 0 16 L 0 0 L 0 0 L 16 0 L 96 0 L 96 16 L 96 16 L 96 40 L 96 40 L 416 40 L 416 40 L 416 16 L 416 16 L 416 0 L 416 0 L 432 0 L 512 0 L 512 16 L 512 16 L 512 80 L 512 80 L 512 96 L 512 96 L 496 96 L 472 96 L 472 352 L 472 352 L 496 352 L 512 352 L 512 368 L 512 368 L 512 432 L 512 432 L 512 448 L 512 448 L 496 448 L 416 448 L 416 432 L 416 432 L 416 408 L 416 408 L 96 408 L 96 408 L 96 432 L 96 432 L 96 448 L 96 448 L 80 448 L 0 448 L 0 432 L 0 432 L 0 368 L 0 368 L 0 352 L 0 352 L 16 352 L 40 352 L 40 96 L 40 96 Z M 56 96 L 56 352 L 56 96 L 56 352 L 80 352 L 96 352 L 96 368 L 96 368 L 96 392 L 96 392 L 416 392 L 416 392 L 416 368 L 416 368 L 416 352 L 416 352 L 432 352 L 456 352 L 456 96 L 456 96 L 432 96 L 416 96 L 416 80 L 416 80 L 416 56 L 416 56 L 96 56 L 96 56 L 96 80 L 96 80 L 96 96 L 96 96 L 80 96 L 56 96 Z M 56 368 L 40 368 L 56 368 L 16 368 L 16 432 L 16 432 L 80 432 L 80 432 L 80 368 L 80 368 L 56 368 L 56 368 Z M 496 80 L 496 16 L 496 80 L 496 16 L 432 16 L 432 16 L 432 80 L 432 80 L 456 80 L 496 80 Z M 456 368 L 432 368 L 456 368 L 432 368 L 432 432 L 432 432 L 496 432 L 496 432 L 496 368 L 496 368 L 472 368 L 456 368 Z M 104 104 L 112 104 L 104 104 L 280 104 L 280 112 L 280 112 L 280 240 L 280 240 L 280 248 L 280 248 L 272 248 L 104 248 L 104 240 L 104 240 L 104 112 L 104 112 L 104 104 L 104 104 Z M 120 120 L 120 232 L 120 120 L 120 232 L 264 232 L 264 232 L 264 120 L 264 120 L 120 120 L 120 120 Z M 328 200 L 400 200 L 328 200 L 408 200 L 408 208 L 408 208 L 408 336 L 408 336 L 408 344 L 408 344 L 400 344 L 232 344 L 232 336 L 232 336 L 232 296 L 232 296 L 232 288 L 232 288 L 248 288 L 248 288 L 248 296 L 248 296 L 248 328 L 248 328 L 392 328 L 392 328 L 392 216 L 392 216 L 328 216 L 320 216 L 320 200 L 320 200 L 328 200 L 328 200 Z" />
</svg>