<svg xmlns="http://www.w3.org/2000/svg" viewBox="0 0 448 448">
  <path d="M 272 16 L 272 432 L 272 16 L 272 432 L 176 432 L 176 432 L 176 16 L 176 16 L 272 16 L 272 16 Z M 176 0 L 160 0 L 176 0 L 160 0 L 160 16 L 160 16 L 160 432 L 160 432 L 160 448 L 160 448 L 176 448 L 288 448 L 288 432 L 288 432 L 288 16 L 288 16 L 288 0 L 288 0 L 272 0 L 176 0 Z M 112 208 L 112 432 L 112 208 L 112 432 L 16 432 L 16 432 L 16 208 L 16 208 L 112 208 L 112 208 Z M 16 192 L 0 192 L 16 192 L 0 192 L 0 208 L 0 208 L 0 432 L 0 432 L 0 448 L 0 448 L 16 448 L 128 448 L 128 432 L 128 432 L 128 208 L 128 208 L 128 192 L 128 192 L 112 192 L 16 192 Z M 336 80 L 432 80 L 336 80 L 432 80 L 432 432 L 432 432 L 336 432 L 336 432 L 336 80 L 336 80 Z M 320 64 L 320 80 L 320 64 L 320 80 L 320 432 L 320 432 L 320 448 L 320 448 L 336 448 L 448 448 L 448 432 L 448 432 L 448 80 L 448 80 L 448 64 L 448 64 L 432 64 L 320 64 Z" />
</svg>