<svg xmlns="http://www.w3.org/2000/svg" viewBox="0 0 512 512">
  <path d="M 320 0 Q 238 2 184 56 L 184 56 L 184 56 Q 130 110 128 192 Q 129 244 152 286 Q 176 328 217 354 L 222 357 L 222 357 L 227 353 L 227 353 L 265 315 L 265 315 L 269 310 L 269 310 L 266 305 L 266 305 Q 248 276 248 240 Q 249 186 285 149 Q 322 113 376 112 Q 418 113 450 136 Q 482 159 497 197 L 512 194 L 512 194 Q 512 193 512 193 Q 512 193 512 192 Q 510 110 456 56 Q 402 2 320 0 L 320 0 Z M 144 192 Q 146 117 196 68 L 196 68 L 196 68 Q 245 18 320 16 Q 385 17 431 56 Q 478 94 492 155 Q 472 128 442 112 Q 412 96 376 96 Q 315 98 274 138 Q 234 179 232 240 Q 232 277 249 308 L 220 337 L 220 337 Q 185 313 165 275 Q 144 237 144 192 L 144 192 Z M 118 298 L 112 293 L 118 298 L 112 293 L 101 304 L 101 304 L 106 310 L 106 310 L 117 320 L 117 320 L 6 431 L 6 431 L 0 437 L 0 437 L 6 443 L 6 443 L 70 507 L 70 507 L 75 512 L 75 512 L 81 507 L 81 507 L 192 395 L 192 395 L 202 406 L 202 406 L 208 411 L 208 411 L 219 400 L 219 400 L 214 394 L 214 394 L 198 378 L 198 378 L 134 314 L 134 314 L 118 298 L 118 298 Z M 23 437 L 128 331 L 23 437 L 128 331 L 181 384 L 181 384 L 75 490 L 75 490 L 23 437 L 23 437 Z" />
</svg>