<svg xmlns="http://www.w3.org/2000/svg" viewBox="0 0 448 448">
  <path d="M 432 144 Q 431 94 374 56 Q 315 18 224 16 Q 133 18 74 56 Q 17 94 16 144 Q 17 194 74 232 Q 133 270 224 272 Q 315 270 374 232 Q 431 194 432 144 L 432 144 Z M 448 144 L 448 224 L 448 144 L 448 224 Q 447 287 417 337 Q 388 388 337 417 Q 287 447 224 448 Q 161 447 111 417 Q 60 388 31 337 Q 1 287 0 224 L 0 144 L 0 144 Q 2 83 66 42 Q 129 2 224 0 Q 319 2 382 42 Q 446 83 448 144 L 448 144 Z M 432 198 Q 406 238 351 263 L 351 263 L 351 263 Q 296 287 224 288 Q 152 287 97 263 Q 42 238 16 198 L 16 224 L 16 224 Q 18 312 77 371 Q 136 430 224 432 Q 312 430 371 371 Q 430 312 432 224 L 432 198 L 432 198 Z M 178 140 Q 176 143 176 144 Q 176 145 178 148 Q 181 151 188 154 Q 202 160 224 160 Q 246 160 260 154 Q 267 151 270 148 Q 272 145 272 144 Q 272 143 270 140 Q 267 137 260 134 Q 246 128 224 128 Q 202 128 188 134 Q 181 137 178 140 L 178 140 Z M 181 120 Q 199 112 224 112 Q 249 112 267 120 Q 275 123 281 129 Q 287 135 288 144 Q 287 153 281 159 Q 275 165 267 168 Q 249 176 224 176 Q 199 176 181 168 Q 173 165 167 159 Q 161 153 160 144 Q 161 135 167 129 Q 173 123 181 120 L 181 120 Z M 232 56 L 232 80 L 232 56 L 232 80 L 232 88 L 232 88 L 216 88 L 216 88 L 216 80 L 216 80 L 216 56 L 216 56 L 216 48 L 216 48 L 232 48 L 232 48 L 232 56 L 232 56 Z M 150 74 L 166 90 L 150 74 L 166 90 L 171 96 L 171 96 L 160 107 L 160 107 L 154 102 L 154 102 L 138 86 L 138 86 L 133 80 L 133 80 L 144 69 L 144 69 L 150 74 L 150 74 Z M 310 86 L 294 102 L 310 86 L 294 102 L 288 107 L 288 107 L 277 96 L 277 96 L 282 90 L 282 90 L 298 74 L 298 74 L 304 69 L 304 69 L 315 80 L 315 80 L 310 86 L 310 86 Z M 96 136 L 128 136 L 96 136 L 136 136 L 136 152 L 136 152 L 128 152 L 88 152 L 88 136 L 88 136 L 96 136 L 96 136 Z M 320 136 L 352 136 L 320 136 L 360 136 L 360 152 L 360 152 L 352 152 L 312 152 L 312 136 L 312 136 L 320 136 L 320 136 Z M 166 198 L 150 214 L 166 198 L 150 214 L 144 219 L 144 219 L 133 208 L 133 208 L 138 202 L 138 202 L 154 186 L 154 186 L 160 181 L 160 181 L 171 192 L 171 192 L 166 198 L 166 198 Z M 294 186 L 310 202 L 294 186 L 310 202 L 315 208 L 315 208 L 304 219 L 304 219 L 298 214 L 298 214 L 282 198 L 282 198 L 277 192 L 277 192 L 288 181 L 288 181 L 294 186 L 294 186 Z M 232 208 L 232 232 L 232 208 L 232 232 L 232 240 L 232 240 L 216 240 L 216 240 L 216 232 L 216 232 L 216 208 L 216 208 L 216 200 L 216 200 L 232 200 L 232 200 L 232 208 L 232 208 Z" />
</svg>