<svg xmlns="http://www.w3.org/2000/svg" viewBox="0 0 480 448">
  <path d="M 402 155 Q 381 107 338 78 L 338 78 L 338 78 Q 295 49 240 48 Q 178 49 134 92 L 129 97 L 129 97 L 150 118 L 150 118 L 184 152 L 184 152 L 150 186 L 150 186 L 144 192 L 144 192 L 48 192 L 0 192 L 0 144 L 0 144 L 0 48 L 0 48 L 6 42 L 6 42 L 40 8 L 40 8 L 74 42 L 74 42 L 95 63 L 95 63 L 100 58 L 100 58 Q 158 1 240 0 Q 310 1 365 38 Q 420 75 446 136 L 402 155 L 402 155 Z M 78 293 Q 99 341 142 370 L 142 370 L 142 370 Q 185 399 240 400 Q 302 399 346 356 L 351 351 L 351 351 L 330 330 L 330 330 L 296 296 L 296 296 L 330 262 L 330 262 L 336 256 L 336 256 L 432 256 L 480 256 L 480 304 L 480 304 L 480 400 L 480 400 L 474 406 L 474 406 L 440 440 L 440 440 L 406 406 L 406 406 L 385 385 L 385 385 L 380 390 L 380 390 Q 321 447 240 448 Q 170 447 115 410 Q 61 373 34 312 L 78 293 L 78 293 Z M 108 144 L 48 84 L 108 144 L 48 84 L 48 144 L 48 144 L 108 144 L 108 144 Z M 372 304 L 432 364 L 372 304 L 432 364 L 432 304 L 432 304 L 372 304 L 372 304 Z" />
</svg>