<svg xmlns="http://www.w3.org/2000/svg" viewBox="0 0 510 511">
  <path d="M 127 0 L 133 4 L 127 0 L 133 4 L 165 35 L 165 35 Q 177 47 178 63 Q 178 79 167 92 L 106 158 L 106 158 Q 93 175 106 191 L 152 237 L 152 237 Q 155 207 171 172 Q 186 138 220 105 Q 238 87 263 71 L 256 10 L 256 10 L 255 0 L 255 0 L 265 1 L 265 1 L 405 15 L 405 15 Q 448 5 501 1 L 510 0 L 510 0 L 509 9 L 509 9 Q 505 62 495 105 L 509 246 L 509 246 L 510 256 L 510 256 L 500 255 L 500 255 L 439 247 L 439 247 Q 423 272 405 290 Q 372 324 338 340 Q 303 355 273 358 L 319 404 L 319 404 Q 335 417 352 404 L 418 343 L 418 343 Q 431 332 447 332 Q 463 333 474 345 L 505 378 L 505 378 L 510 383 L 510 383 L 506 388 L 506 388 L 498 398 L 498 398 Q 476 422 446 424 Q 415 425 391 403 L 384 396 L 384 396 L 363 416 L 363 416 Q 350 427 335 427 Q 319 426 307 415 L 254 362 L 254 362 L 203 400 L 203 400 L 246 443 L 246 443 Q 258 455 258 471 Q 258 487 246 499 L 237 509 L 237 509 L 225 497 L 225 497 L 235 488 L 235 488 Q 249 471 235 454 L 190 410 L 190 410 L 147 442 L 147 442 Q 135 451 135 466 Q 136 478 144 487 Q 152 495 165 495 L 184 495 L 192 495 L 192 511 L 192 511 L 184 511 L 165 511 Q 146 511 133 498 Q 120 485 119 466 Q 119 443 137 429 L 179 398 L 179 398 L 112 331 L 112 331 L 80 373 L 80 373 Q 67 391 45 391 Q 26 391 13 378 Q 0 365 0 346 L 0 327 L 0 327 L 0 319 L 0 319 L 16 319 L 16 319 L 16 327 L 16 327 L 16 346 L 16 346 Q 16 359 24 367 Q 32 375 45 375 Q 59 375 68 364 L 100 320 L 100 320 L 56 275 L 56 275 Q 39 261 22 275 L 13 285 L 13 285 L 1 273 L 1 273 L 11 264 L 11 264 Q 23 252 39 252 Q 55 252 67 264 L 110 307 L 110 307 L 149 256 L 149 256 L 95 203 L 95 203 Q 84 191 83 175 Q 83 159 94 147 L 114 126 L 114 126 L 107 119 L 107 119 Q 85 95 86 64 Q 88 34 112 12 L 122 4 L 122 4 L 127 0 L 127 0 Z M 122 318 L 192 388 L 122 318 L 192 388 L 250 345 L 250 345 L 252 343 L 252 343 L 255 343 L 255 343 Q 284 344 321 329 Q 357 315 393 279 Q 429 244 455 180 Q 482 117 492 18 Q 393 28 330 55 Q 266 81 231 117 Q 195 152 181 189 Q 166 226 167 255 L 167 258 L 167 258 L 165 260 L 165 260 L 122 318 L 122 318 Z M 448 232 L 492 238 L 448 232 L 492 238 L 484 149 L 484 149 Q 469 197 448 232 L 448 232 Z M 361 26 L 273 18 L 361 26 L 273 18 L 278 62 L 278 62 Q 313 42 361 27 L 361 26 Z M 125 114 L 156 81 L 125 114 L 156 81 Q 169 63 154 47 L 127 21 L 127 21 L 122 24 L 122 24 Q 103 41 102 65 Q 101 89 118 107 L 125 114 L 125 114 Z M 396 385 L 403 392 L 396 385 L 403 392 Q 421 409 445 408 Q 469 407 486 388 L 489 383 L 489 383 L 463 356 L 463 356 Q 447 341 429 355 L 396 385 L 396 385 Z M 208 319 Q 209 304 224 303 Q 239 304 240 319 Q 239 334 224 335 Q 209 334 208 319 L 208 319 Z M 192 271 Q 207 272 208 287 Q 207 302 192 303 Q 177 302 176 287 Q 177 272 192 271 L 192 271 Z" />
</svg>