<svg xmlns="http://www.w3.org/2000/svg" viewBox="0 0 512 512">
  <path d="M 270.22223 40.444443 L 256 28.88889 L 242.66667 40.444443 L 8 239.55556 L 35.555557 271.55554 L 56.88889 253.77777 L 56.88889 375.55554 Q 60.444443 372.8889 64.888885 370.22223 Q 65.77778 368.44446 67.55556 367.55554 L 68.44444 366.66666 L 85.333336 355.1111 L 99.55556 365.77777 L 99.55556 217.33333 L 256 84.888885 L 412.44446 217.33333 L 412.44446 365.77777 L 426.66666 355.1111 L 444.44446 367.55554 L 444.44446 367.55554 Q 449.77777 372 455.1111 375.55554 L 455.1111 253.77777 L 477.33334 271.55554 L 504.8889 239.55556 L 270.22223 40.444443 L 270.22223 40.444443 Z M 227.55556 227.11111 L 284.44446 227.11111 L 284.44446 284 L 227.55556 284 L 227.55556 227.11111 L 227.55556 227.11111 Z M 227.55556 184.44444 L 184.88889 184.44444 L 184.88889 227.11111 L 184.88889 284 L 184.88889 326.66666 L 227.55556 326.66666 L 284.44446 326.66666 L 327.1111 326.66666 L 327.1111 284 L 327.1111 227.11111 L 327.1111 184.44444 L 284.44446 184.44444 L 227.55556 184.44444 L 227.55556 184.44444 Z M 70.22222 462.66666 Q 79.111115 457.33334 85.333336 452.8889 Q 91.55556 457.33334 100.44444 462.66666 Q 112.888885 470.66666 131.55556 476.8889 Q 149.33333 483.1111 170.66667 483.1111 Q 192 483.1111 209.77777 476.8889 Q 227.55556 469.77777 240.88889 462.66666 Q 249.77777 457.33334 256 452.8889 Q 262.22223 457.33334 271.1111 462.66666 Q 283.55554 470.66666 302.22223 476.8889 Q 320 483.1111 341.33334 483.1111 Q 362.66666 483.1111 380.44446 476.8889 Q 398.22223 469.77777 411.55554 462.66666 Q 420.44446 457.33334 426.66666 452.8889 Q 432.8889 457.33334 441.77777 462.66666 Q 455.1111 470.66666 472.8889 476.8889 Q 490.66666 483.1111 512 483.1111 L 512 440.44446 Q 484.44446 438.66666 463.1111 425.33334 Q 443.55554 413.77777 427.55554 398.66666 Q 427.55554 398.66666 427.55554 397.77777 L 426.66666 397.77777 L 425.77777 397.77777 Q 425.77777 398.66666 425.77777 398.66666 Q 409.77777 413.77777 390.22223 425.33334 Q 368 438.66666 341.33334 440.44446 Q 313.77777 438.66666 292.44446 425.33334 Q 272.8889 413.77777 256.8889 398.66666 Q 256.8889 398.66666 256.8889 397.77777 L 256 397.77777 L 255.11111 397.77777 Q 255.11111 398.66666 255.11111 398.66666 Q 239.11111 413.77777 219.55556 425.33334 Q 197.33333 438.66666 170.66667 440.44446 Q 143.11111 438.66666 121.77778 425.33334 Q 102.22222 413.77777 86.22222 398.66666 Q 86.22222 398.66666 85.333336 397.77777 L 85.333336 397.77777 L 84.44444 397.77777 Q 84.44444 397.77777 84.44444 398.66666 Q 68.44444 413.77777 48.88889 425.33334 Q 27.555555 438.66666 0 440.44446 L 0 483.1111 Q 21.333334 483.1111 39.11111 476.8889 Q 56.88889 469.77777 70.22222 462.66666 L 70.22222 462.66666 Z" />
</svg>