<svg xmlns="http://www.w3.org/2000/svg" viewBox="0 0 608 512">
  <path d="M 528 48 L 528 464 L 528 48 L 528 464 L 560 464 L 560 464 L 560 48 L 560 48 L 528 48 L 528 48 Z M 480 0 L 528 0 L 480 0 L 608 0 L 608 48 L 608 48 L 608 464 L 608 464 L 608 512 L 608 512 L 560 512 L 480 512 L 480 464 L 480 464 L 480 48 L 480 48 L 480 0 L 480 0 Z M 368 176 L 368 464 L 368 176 L 368 464 L 400 464 L 400 464 L 400 176 L 400 176 L 368 176 L 368 176 Z M 320 128 L 368 128 L 320 128 L 448 128 L 448 176 L 448 176 L 448 464 L 448 464 L 448 512 L 448 512 L 400 512 L 320 512 L 320 464 L 320 464 L 320 176 L 320 176 L 320 128 L 320 128 Z M 240 304 L 208 304 L 240 304 L 208 304 L 208 464 L 208 464 L 240 464 L 240 464 L 240 304 L 240 304 Z M 208 256 L 240 256 L 208 256 L 288 256 L 288 304 L 288 304 L 288 464 L 288 464 L 288 512 L 288 512 L 240 512 L 160 512 L 160 464 L 160 464 L 160 304 L 160 304 L 160 256 L 160 256 L 208 256 L 208 256 Z M 48 432 L 48 464 L 48 432 L 48 464 L 80 464 L 80 464 L 80 432 L 80 432 L 48 432 L 48 432 Z M 0 384 L 48 384 L 0 384 L 128 384 L 128 432 L 128 432 L 128 464 L 128 464 L 128 512 L 128 512 L 80 512 L 0 512 L 0 464 L 0 464 L 0 432 L 0 432 L 0 384 L 0 384 Z" />
</svg>