<svg xmlns="http://www.w3.org/2000/svg" viewBox="0 0 512 512">
  <path d="M 448 512 Q 323 511 222 451 L 222 451 L 222 451 Q 121 391 61 290 L 61 290 L 61 290 Q 1 189 0 64 L 0 32 L 0 32 L 144 0 L 144 0 L 224 144 L 224 144 L 140 211 L 140 211 Q 196 316 301 372 L 368 288 L 368 288 L 512 368 L 512 368 L 480 512 L 480 512 L 448 512 L 448 512 Z M 16 64 Q 16 64 16 64 L 16 64 L 16 64 Q 16 64 16 64 Q 17 185 75 282 Q 133 379 230 437 Q 327 495 448 496 L 467 496 L 467 496 L 494 376 L 494 376 L 372 309 L 372 309 L 313 382 L 313 382 L 305 392 L 305 392 L 293 386 L 293 386 Q 185 327 126 219 L 120 207 L 120 207 L 130 199 L 130 199 L 203 140 L 203 140 L 136 18 L 136 18 L 16 45 L 16 45 L 16 64 L 16 64 Z M 256 16 L 256 0 L 256 16 L 256 0 Q 328 1 385 35 Q 443 69 477 127 Q 511 184 512 256 L 496 256 L 496 256 Q 495 189 463 135 Q 431 81 377 49 Q 323 17 256 16 L 256 16 Z M 304 224 Q 303 209 288 208 Q 273 209 272 224 Q 273 239 288 240 Q 303 239 304 224 L 304 224 Z M 256 224 Q 256 210 265 201 L 265 201 L 265 201 Q 274 192 288 192 Q 302 192 311 201 Q 320 210 320 224 Q 320 238 311 247 Q 302 256 288 256 Q 274 256 265 247 Q 256 238 256 224 L 256 224 Z M 400 256 Q 398 195 358 154 L 358 154 L 358 154 Q 317 114 256 112 L 256 96 L 256 96 Q 324 98 369 143 Q 414 188 416 256 L 400 256 L 400 256 Z" />
</svg>