<svg xmlns="http://www.w3.org/2000/svg" viewBox="0 0 640 518">
  <path d="M 112 54 Q 112 40 103 31 L 103 31 L 103 31 Q 94 22 80 22 Q 66 22 57 31 Q 48 40 48 54 Q 48 68 57 77 Q 66 86 80 86 Q 94 86 103 77 Q 112 68 112 54 L 112 54 Z M 32 54 Q 33 27 56 12 Q 80 0 104 12 Q 127 27 128 54 Q 127 81 104 96 Q 80 108 56 96 Q 33 81 32 54 L 32 54 Z M 512 54 L 512 182 L 512 54 L 512 182 L 624 182 L 624 182 L 624 54 L 624 54 L 512 54 L 512 54 Z M 496 54 L 240 54 L 496 54 L 240 54 L 240 182 L 240 182 L 496 182 L 496 182 L 496 54 L 496 54 Z M 224 38 L 240 38 L 224 38 L 640 38 L 640 54 L 640 54 L 640 182 L 640 182 L 640 198 L 640 198 L 624 198 L 224 198 L 224 182 L 224 182 L 224 54 L 224 54 L 224 38 L 224 38 Z M 384 342 L 384 470 L 384 342 L 384 470 L 624 470 L 624 470 L 624 342 L 624 342 L 384 342 L 384 342 Z M 368 342 L 240 342 L 368 342 L 240 342 L 240 470 L 240 470 L 368 470 L 368 470 L 368 342 L 368 342 Z M 224 326 L 240 326 L 224 326 L 640 326 L 640 342 L 640 342 L 640 470 L 640 470 L 640 486 L 640 486 L 624 486 L 224 486 L 224 470 L 224 470 L 224 342 L 224 342 L 224 326 L 224 326 Z M 112 342 Q 112 328 103 319 L 103 319 L 103 319 Q 94 310 80 310 Q 66 310 57 319 Q 48 328 48 342 Q 48 356 57 365 Q 66 374 80 374 Q 94 374 103 365 Q 112 356 112 342 L 112 342 Z M 32 342 Q 33 315 56 300 Q 80 288 104 300 Q 127 315 128 342 Q 127 369 104 384 Q 80 396 56 384 Q 33 369 32 342 L 32 342 Z M 44 438 L 22 502 L 44 438 L 22 502 L 138 502 L 138 502 L 117 438 L 117 438 L 44 438 L 44 438 Z M 128 422 L 155 502 L 128 422 L 155 502 L 160 518 L 160 518 L 143 518 L 0 518 L 5 502 L 5 502 L 32 422 L 32 422 L 128 422 L 128 422 Z M 22 214 L 138 214 L 22 214 L 138 214 L 117 150 L 117 150 L 44 150 L 44 150 L 22 214 L 22 214 Z M 32 134 L 128 134 L 32 134 L 128 134 L 155 214 L 155 214 L 160 230 L 160 230 L 143 230 L 0 230 L 5 214 L 5 214 L 32 134 L 32 134 Z" />
</svg>