<svg xmlns="http://www.w3.org/2000/svg" viewBox="0 0 641 512">
  <path d="M 256 512 Q 307 512 351 494 Q 322 467 305 431 Q 288 394 288 352 Q 289 315 302 283 Q 315 250 334 224 L 320 224 L 320 224 L 320 192 L 320 192 L 320 160 L 320 160 L 320 128 L 320 128 L 384 128 L 384 128 L 384 160 L 384 160 L 384 169 L 384 169 Q 410 145 431 133 L 453 119 L 453 119 L 493 160 L 493 160 Q 464 88 401 45 Q 338 1 256 0 Q 184 1 127 35 Q 69 69 35 127 Q 1 184 0 256 Q 1 328 35 385 Q 69 443 127 477 Q 184 511 256 512 L 256 512 Z M 192 160 L 192 192 L 192 160 L 192 192 L 192 224 L 192 224 L 128 224 L 128 224 L 128 192 L 128 192 L 128 160 L 128 160 L 128 128 L 128 128 L 192 128 L 192 128 L 192 160 L 192 160 Z M 288 160 L 288 192 L 288 160 L 288 192 L 288 224 L 288 224 L 224 224 L 224 224 L 224 192 L 224 192 L 224 160 L 224 160 L 224 128 L 224 128 L 288 128 L 288 128 L 288 160 L 288 160 Z M 448 160 Q 425 174 396 202 L 396 202 L 396 202 Q 366 230 344 268 L 344 268 L 344 268 Q 321 307 320 352 Q 322 420 367 465 Q 412 510 480 512 Q 548 510 593 465 Q 638 420 640 352 Q 641 330 621 286 Q 600 241 544 192 L 512 224 L 512 224 L 448 160 L 448 160 Z M 544 400 Q 543 427 525 445 L 525 445 L 525 445 Q 507 464 480 464 Q 453 464 435 445 Q 417 427 416 400 Q 417 376 433 354 Q 448 332 463 318 Q 479 305 480 304 Q 481 305 497 318 Q 512 332 527 354 Q 543 376 544 400 L 544 400 Z" />
</svg>