<svg xmlns="http://www.w3.org/2000/svg" viewBox="0 0 640 512">
  <path d="M 102 0 Q 84 11 61 34 L 61 34 L 61 34 Q 37 56 19 87 L 19 87 L 19 87 Q 1 118 0 154 Q 0 165 2 176 L 18 176 L 18 176 Q 16 165 16 154 Q 18 107 51 68 Q 77 37 100 21 L 142 63 L 142 63 L 154 74 L 154 74 L 165 63 L 165 63 L 180 48 L 180 48 Q 216 83 228 112 Q 241 142 240 154 Q 240 165 238 176 L 254 176 L 254 176 Q 256 165 256 154 Q 257 137 241 101 Q 224 65 179 26 L 165 40 L 165 40 L 154 51 L 154 51 L 142 40 L 142 40 L 102 0 L 102 0 Z M 128 103 Q 126 103 101 124 L 101 124 L 101 124 Q 77 144 60 176 L 78 176 L 78 176 Q 87 160 101 146 Q 115 132 126 124 Q 126 124 127 123 Q 127 123 128 122 Q 129 123 129 123 Q 130 124 130 124 Q 141 132 155 146 Q 169 160 178 176 L 196 176 L 196 176 Q 179 144 155 124 Q 130 103 128 103 Q 128 103 128 103 L 128 103 Z M 512 64 L 509 64 L 512 64 L 509 64 L 506 66 L 506 66 L 451 120 L 451 120 L 430 98 L 430 98 L 424 93 L 424 93 L 413 104 L 413 104 L 418 110 L 418 110 L 440 131 L 440 131 L 403 167 L 403 167 L 382 146 L 382 146 L 376 141 L 376 141 L 365 152 L 365 152 L 370 158 L 370 158 L 391 179 L 391 179 L 354 215 L 354 215 L 334 194 L 334 194 L 328 189 L 328 189 L 317 200 L 317 200 L 322 206 L 322 206 L 343 226 L 343 226 L 207 358 L 207 358 L 193 349 L 193 349 L 230 224 L 230 224 L 248 224 L 256 224 L 256 208 L 256 208 L 248 208 L 0 208 L 0 224 L 0 224 L 8 224 L 29 224 L 6 305 L 6 305 Q 0 327 0 350 L 0 352 L 0 352 Q 2 420 47 465 Q 92 510 160 512 Q 197 512 229 497 Q 261 482 284 454 L 540 144 L 540 144 L 632 144 L 640 144 L 640 136 L 640 136 L 640 112 L 640 112 L 640 109 L 640 109 L 638 106 L 638 106 L 598 66 L 598 66 L 595 64 L 595 64 L 592 64 L 512 64 Z M 46 224 L 213 224 L 46 224 L 213 224 L 176 350 L 176 350 L 175 355 L 175 355 L 180 359 L 180 359 L 204 375 L 204 375 L 209 378 L 209 378 L 214 374 L 214 374 L 515 80 L 515 80 L 589 80 L 589 80 L 624 115 L 624 115 L 624 128 L 624 128 L 536 128 L 532 128 L 530 131 L 530 131 L 272 444 L 272 444 Q 228 495 160 496 Q 99 494 58 454 Q 18 413 16 352 L 16 350 L 16 350 Q 16 329 22 309 L 46 224 L 46 224 Z M 80 384 Q 95 383 96 368 Q 95 353 80 352 Q 65 353 64 368 Q 65 383 80 384 L 80 384 Z M 128 272 Q 127 257 112 256 Q 97 257 96 272 Q 97 287 112 288 Q 127 287 128 272 L 128 272 Z" />
</svg>