<svg xmlns="http://www.w3.org/2000/svg" viewBox="0 0 510 511">
  <path d="M 276 88 L 400 0 L 276 88 L 400 0 L 411 11 L 411 11 L 286 101 L 286 101 Q 282 104 279 107 L 271 115 L 271 115 Q 255 132 255 154 Q 255 177 271 194 L 316 239 L 316 239 Q 334 255 356 255 Q 378 255 396 239 L 403 231 L 403 231 Q 406 228 409 224 L 499 99 L 499 99 L 510 110 L 510 110 L 422 234 L 422 234 Q 419 239 414 243 L 407 250 L 407 250 Q 385 271 356 271 Q 327 271 305 250 L 288 233 L 288 233 L 17 505 L 17 505 L 11 511 L 11 511 L 0 499 L 0 499 L 5 494 L 5 494 L 277 222 L 277 222 L 260 205 L 260 205 Q 239 183 239 154 Q 239 125 260 103 L 267 96 L 267 96 Q 271 91 276 88 L 276 88 Z M 305 148 L 433 33 L 305 148 L 433 33 L 444 44 L 444 44 L 316 160 L 316 160 L 310 166 L 310 166 L 299 154 L 299 154 L 305 148 L 305 148 Z M 344 200 L 466 66 L 344 200 L 466 66 L 477 77 L 477 77 L 356 212 L 356 212 L 344 200 L 344 200 Z" />
</svg>