<svg xmlns="http://www.w3.org/2000/svg" viewBox="0 0 388 510">
  <path d="M 209 498 L 369 370 L 209 498 L 369 370 L 388 355 L 388 355 L 358 317 L 358 317 L 339 332 L 339 332 L 194 448 L 194 448 L 49 332 L 49 332 L 30 317 L 30 317 L 0 355 L 0 355 L 19 370 L 19 370 L 179 498 L 179 498 L 194 510 L 194 510 L 209 498 L 209 498 Z M 209 12 L 194 0 L 209 12 L 194 0 L 179 12 L 179 12 L 19 140 L 19 140 L 0 155 L 0 155 L 30 193 L 30 193 L 49 178 L 49 178 L 194 62 L 194 62 L 339 178 L 339 178 L 358 193 L 358 193 L 388 155 L 388 155 L 369 140 L 369 140 L 209 12 L 209 12 Z" />
</svg>