<svg xmlns="http://www.w3.org/2000/svg" viewBox="0 0 511 512">
  <path d="M 343 16 Q 304 17 273 38 L 273 38 L 273 38 Q 243 60 230 97 L 217 137 L 217 137 L 216 140 L 216 140 L 214 142 L 214 142 L 166 201 L 166 201 Q 143 229 143 266 Q 144 309 173 338 Q 202 367 245 368 Q 282 368 310 345 L 369 297 L 369 297 L 371 295 L 371 295 L 374 294 L 374 294 L 414 281 L 414 281 Q 451 268 473 238 Q 494 207 495 168 Q 495 168 495 168 Q 495 168 495 168 L 495 168 L 495 168 Q 495 168 495 168 Q 495 168 495 168 Q 495 141 481 115 Q 467 88 445 66 Q 423 44 396 30 Q 370 16 343 16 L 343 16 L 343 16 L 343 16 L 343 16 Z M 343 0 L 343 0 L 343 0 L 343 0 Q 374 1 404 16 Q 433 32 456 55 Q 479 78 495 107 Q 510 137 511 168 L 511 168 L 511 168 Q 510 212 486 247 Q 461 281 419 296 L 379 309 L 379 309 L 320 357 L 320 357 Q 287 384 245 384 Q 200 383 168 355 L 17 506 L 17 506 L 11 512 L 11 512 L 0 500 L 0 500 L 5 495 L 5 495 L 156 344 L 156 344 Q 128 311 127 266 Q 127 224 154 191 L 202 132 L 202 132 L 215 92 L 215 92 Q 230 50 264 26 Q 299 1 343 0 L 343 0 Z" />
</svg>