<svg xmlns="http://www.w3.org/2000/svg" viewBox="0 0 448 448">
  <path d="M 74 16 L 216 16 L 74 16 L 216 16 L 216 144 L 216 144 L 18 144 L 18 144 L 74 16 L 74 16 Z M 232 144 L 232 16 L 232 144 L 232 16 L 374 16 L 374 16 L 431 144 L 431 144 L 232 144 L 232 144 Z M 432 160 L 432 432 L 432 160 L 432 432 L 16 432 L 16 432 L 16 160 L 16 160 L 432 160 L 432 160 Z M 384 0 L 64 0 L 384 0 L 64 0 L 0 144 L 0 144 L 0 432 L 0 432 L 0 448 L 0 448 L 16 448 L 448 448 L 448 432 L 448 432 L 448 144 L 448 144 L 384 0 L 384 0 Z" />
</svg>