<svg xmlns="http://www.w3.org/2000/svg" viewBox="0 0 512 511">
  <path d="M 267 95 Q 315 98 355 113 L 355 113 L 355 113 Q 395 127 423 143 L 384 154 L 384 154 L 368 159 L 368 159 L 373 175 L 373 175 L 384 207 L 384 207 L 262 161 L 262 161 L 256 159 L 256 159 L 250 161 L 250 161 L 128 207 L 128 207 L 139 175 L 139 175 L 144 159 L 144 159 L 128 154 L 128 154 L 89 143 L 89 143 Q 164 98 251 95 Q 250 105 248 118 L 247 125 L 247 125 L 262 128 L 262 128 L 264 120 L 264 120 Q 266 107 267 95 L 267 95 Z M 267 79 Q 265 44 253 26 Q 244 12 236 6 Q 233 3 230 1 Q 230 1 229 1 Q 229 0 228 0 Q 228 0 228 0 L 228 0 L 228 0 Q 228 0 228 0 Q 228 0 228 0 Q 228 0 228 0 Q 228 0 228 0 Q 228 0 228 0 L 224 7 L 224 7 Q 220 16 220 14 Q 220 14 220 14 Q 220 14 220 14 Q 220 14 220 14 Q 220 14 220 14 Q 220 14 220 14 Q 220 14 220 14 L 221 14 L 221 14 Q 221 14 221 14 Q 221 14 222 15 Q 222 15 222 15 Q 224 16 226 18 Q 232 23 239 34 Q 249 49 251 79 Q 151 83 68 137 Q 58 143 49 149 L 70 155 L 70 155 L 108 166 L 108 166 L 123 170 L 123 170 L 119 185 L 119 185 L 109 214 L 109 214 L 102 234 L 102 234 L 122 227 L 122 227 L 256 176 L 256 176 L 391 227 L 391 227 L 410 234 L 410 234 L 403 214 L 403 214 L 394 185 L 394 185 L 388 170 L 388 170 L 404 165 L 404 165 L 442 155 L 442 155 L 462 149 L 462 149 Q 455 144 444 137 Q 416 120 370 101 Q 324 83 267 79 L 267 79 Z M 0 303 Q 1 230 43 180 L 60 185 L 60 185 Q 17 231 16 303 Q 18 394 85 443 Q 152 494 256 495 Q 360 494 427 443 Q 494 394 496 303 Q 495 231 452 185 L 469 180 L 469 180 Q 511 230 512 303 Q 509 402 437 456 Q 365 510 256 511 Q 147 510 75 456 Q 3 402 0 303 L 0 303 Z" />
</svg>