<svg xmlns="http://www.w3.org/2000/svg" viewBox="0 0 512 448">
  <path d="M 16 240 L 16 432 L 16 240 L 16 432 L 496 432 L 496 432 L 496 240 L 496 240 L 416 240 L 416 240 Q 415 260 402 274 Q 388 287 368 288 Q 348 287 334 274 Q 321 260 320 240 L 16 240 L 16 240 Z M 496 224 Q 494 137 437 79 L 437 79 L 437 79 Q 380 20 293 16 L 229 66 L 229 66 Q 262 77 264 112 Q 263 132 250 146 Q 236 159 216 160 Q 196 160 183 146 Q 169 133 168 114 L 26 224 L 26 224 L 323 224 L 323 224 Q 335 194 368 192 Q 401 194 413 224 L 496 224 L 496 224 Z M 368 208 Q 354 208 345 217 L 345 217 L 345 217 Q 336 226 336 240 Q 336 254 345 263 Q 354 272 368 272 Q 382 272 391 263 Q 400 254 400 240 Q 400 226 391 217 Q 382 208 368 208 L 368 208 Z M 187 99 Q 184 105 184 112 Q 184 126 193 135 Q 202 144 216 144 Q 230 144 239 135 Q 248 126 248 112 Q 248 98 239 89 Q 230 80 216 80 Q 213 80 211 80 L 187 99 L 187 99 Z M 204 66 L 288 0 L 204 66 L 288 0 Q 351 1 401 31 Q 452 60 481 111 Q 511 161 512 224 L 512 432 L 512 432 L 512 448 L 512 448 L 496 448 L 0 448 L 0 432 L 0 432 L 0 224 L 0 224 L 174 89 L 174 89 L 204 66 L 204 66 Z M 176 368 Q 190 368 199 359 L 199 359 L 199 359 Q 208 350 208 336 Q 208 322 199 313 Q 190 304 176 304 Q 162 304 153 313 Q 144 322 144 336 Q 144 350 153 359 Q 162 368 176 368 L 176 368 Z M 176 288 Q 203 289 218 312 Q 230 336 218 360 Q 203 383 176 384 Q 149 383 134 360 Q 122 336 134 312 Q 149 289 176 288 L 176 288 Z" />
</svg>