<svg xmlns="http://www.w3.org/2000/svg" viewBox="0 0 448 512">
  <path d="M 112 128 L 112 192 L 112 128 L 112 192 L 336 192 L 336 192 L 336 128 L 336 128 Q 335 80 303 49 Q 272 17 224 16 Q 176 17 145 49 Q 113 80 112 128 L 112 128 Z M 96 192 L 96 128 L 96 192 L 96 128 Q 97 74 133 37 Q 170 1 224 0 Q 278 1 315 37 Q 351 74 352 128 L 352 192 L 352 192 L 432 192 L 448 192 L 448 208 L 448 208 L 448 496 L 448 496 L 448 512 L 448 512 L 432 512 L 0 512 L 0 496 L 0 496 L 0 208 L 0 208 L 0 192 L 0 192 L 16 192 L 96 192 Z M 96 208 L 16 208 L 96 208 L 16 208 L 16 496 L 16 496 L 432 496 L 432 496 L 432 208 L 432 208 L 352 208 L 96 208 Z M 184 248 L 184 256 L 184 248 L 184 256 L 184 296 L 184 296 L 264 296 L 264 296 L 264 256 L 264 256 L 264 248 L 264 248 L 280 248 L 280 248 L 280 256 L 280 256 L 280 296 L 280 296 L 320 296 L 328 296 L 328 312 L 328 312 L 320 312 L 280 312 L 280 392 L 280 392 L 320 392 L 328 392 L 328 408 L 328 408 L 320 408 L 280 408 L 280 448 L 280 448 L 280 456 L 280 456 L 264 456 L 264 456 L 264 448 L 264 448 L 264 408 L 264 408 L 184 408 L 184 408 L 184 448 L 184 448 L 184 456 L 184 456 L 168 456 L 168 456 L 168 448 L 168 448 L 168 408 L 168 408 L 128 408 L 120 408 L 120 392 L 120 392 L 128 392 L 168 392 L 168 312 L 168 312 L 128 312 L 120 312 L 120 296 L 120 296 L 128 296 L 168 296 L 168 256 L 168 256 L 168 248 L 168 248 L 184 248 L 184 248 Z M 184 392 L 264 392 L 184 392 L 264 392 L 264 312 L 264 312 L 184 312 L 184 312 L 184 392 L 184 392 Z" />
</svg>