<svg xmlns="http://www.w3.org/2000/svg" viewBox="0 0 512 448">
  <path d="M 176 96 Q 176 96 176 96 L 176 96 L 176 96 Q 176 96 176 96 L 187 85 L 187 85 L 261 11 L 261 11 L 272 0 L 272 0 L 283 11 L 283 11 L 357 85 L 357 85 L 368 96 L 368 96 Q 368 96 368 96 Q 368 96 368 96 L 345 96 L 345 96 Q 345 96 345 96 Q 345 96 345 96 L 272 23 L 272 23 L 199 96 L 199 96 Q 199 96 199 96 Q 199 96 199 96 L 176 96 L 176 96 Z M 48 96 L 32 96 L 48 96 L 32 96 L 32 16 L 32 16 L 32 0 L 32 0 L 48 0 L 227 0 L 211 16 L 211 16 L 48 16 L 48 16 L 48 96 L 48 96 Z M 176 144 L 176 216 L 176 144 L 176 216 L 176 224 L 176 224 L 160 224 L 160 224 L 160 216 L 160 216 L 160 144 L 160 144 L 112 144 L 112 144 L 112 248 L 112 248 L 112 256 L 112 256 L 96 256 L 96 256 L 96 248 L 96 248 L 96 144 L 96 144 L 16 144 L 16 144 L 16 432 L 16 432 L 368 432 L 368 432 L 368 144 L 368 144 L 344 144 L 176 144 Z M 176 128 L 344 128 L 176 128 L 408 128 Q 452 129 482 158 Q 511 188 512 232 Q 511 276 482 306 Q 452 335 408 336 L 384 336 L 384 336 L 384 432 L 384 432 L 384 448 L 384 448 L 368 448 L 0 448 L 0 432 L 0 432 L 0 144 L 0 144 L 0 128 L 0 128 L 16 128 L 176 128 Z M 384 144 L 384 320 L 384 144 L 384 320 L 408 320 L 408 320 Q 445 319 470 294 Q 495 269 496 232 Q 495 195 470 170 Q 445 145 408 144 L 384 144 L 384 144 Z" />
</svg>