<svg xmlns="http://www.w3.org/2000/svg" viewBox="0 0 576 512">
  <path d="M 296 20 L 336 35 L 296 20 L 336 35 L 336 101 L 336 101 Q 344 103 352 105 L 352 24 L 352 24 L 288 0 L 288 0 L 239 102 L 239 102 Q 248 99 258 98 L 296 20 L 296 20 Z M 170 130 Q 179 124 189 119 Q 169 112 148 112 Q 84 115 43 172 Q 1 228 0 312 Q 1 396 43 453 Q 84 509 148 512 Q 187 511 218 488 Q 249 511 288 512 Q 327 511 358 488 Q 389 511 428 512 Q 492 509 534 453 Q 575 396 576 312 Q 575 228 534 172 Q 492 115 428 112 Q 407 112 388 120 Q 397 125 407 130 Q 417 128 428 128 Q 483 130 521 181 Q 558 233 560 312 Q 558 391 521 443 Q 483 494 428 496 Q 392 496 363 472 L 358 468 L 358 468 L 353 472 L 353 472 Q 324 496 288 496 Q 252 496 223 472 L 218 468 L 218 468 L 213 472 L 213 472 Q 184 496 148 496 Q 93 494 56 443 Q 18 391 16 312 Q 18 233 56 181 Q 93 129 148 128 Q 159 128 170 130 L 170 130 Z M 288 144 Q 329 144 363 161 L 363 161 L 363 161 Q 396 177 418 205 L 423 211 L 423 211 L 435 202 L 435 202 L 430 195 L 430 195 Q 407 164 370 146 Q 333 128 288 128 Q 243 128 206 146 Q 169 164 146 195 L 141 201 L 141 201 L 154 211 L 154 211 L 158 205 L 158 205 Q 180 177 213 161 Q 247 144 288 144 L 288 144 Z M 170 272 L 160 288 L 170 272 L 160 288 L 179 288 L 256 288 L 247 272 L 247 272 L 217 224 L 217 224 L 208 208 L 208 208 L 199 224 L 199 224 L 170 272 L 170 272 Z M 228 272 L 188 272 L 228 272 L 188 272 L 208 239 L 208 239 L 228 272 L 228 272 Z M 330 272 L 320 288 L 330 272 L 320 288 L 339 288 L 416 288 L 407 272 L 407 272 L 377 224 L 377 224 L 368 208 L 368 208 L 359 224 L 359 224 L 330 272 L 330 272 Z M 388 272 L 348 272 L 388 272 L 348 272 L 368 239 L 368 239 L 388 272 L 388 272 Z M 104 321 L 112 320 L 104 321 L 112 320 Q 102 321 104 321 Q 104 321 104 321 Q 104 321 104 321 Q 104 321 104 321 Q 104 321 104 321 Q 104 320 104 321 Q 104 321 104 321 L 104 321 L 104 321 L 104 321 L 104 321 Q 104 322 104 323 Q 104 326 105 330 Q 107 338 112 351 Q 121 379 155 410 L 168 420 L 168 420 L 168 403 L 168 403 L 168 400 L 168 400 L 200 400 L 200 400 L 200 429 L 200 429 L 200 434 L 200 434 L 206 436 L 206 436 Q 239 448 288 448 Q 337 448 371 436 L 376 434 L 376 434 L 376 429 L 376 429 L 376 400 L 376 400 L 408 400 L 408 400 L 408 403 L 408 403 L 408 420 L 408 420 L 421 410 L 421 410 Q 455 380 464 351 Q 469 338 471 330 Q 471 326 472 323 Q 472 323 472 322 Q 472 322 472 321 L 472 321 L 472 321 L 472 321 L 472 321 Q 472 321 472 320 Q 472 320 472 320 Q 472 320 472 320 L 464 320 L 464 320 L 472 320 L 472 320 L 472 317 L 472 317 L 470 314 L 470 314 L 462 306 L 462 306 L 457 301 L 457 301 L 451 306 L 451 306 Q 451 306 451 306 Q 451 306 451 306 Q 451 306 451 306 Q 451 306 451 306 Q 451 306 451 306 Q 451 306 451 306 Q 451 306 451 306 Q 451 306 451 306 L 451 306 L 451 306 L 451 306 L 451 306 Q 450 306 449 307 Q 446 309 440 313 Q 429 319 408 329 Q 365 349 288 352 L 280 352 L 280 352 L 280 360 L 280 360 L 280 384 L 280 384 L 248 384 L 248 384 L 248 357 L 248 357 L 248 350 L 248 350 L 241 349 L 241 349 Q 186 339 155 323 Q 140 316 132 311 Q 130 309 129 308 Q 127 307 127 307 Q 126 307 126 306 Q 125 306 125 306 L 125 306 L 125 306 Q 125 306 125 306 Q 125 306 125 306 Q 125 306 125 306 Q 125 306 125 306 Q 125 306 125 306 L 119 301 L 119 301 L 114 306 L 114 306 L 106 314 L 106 314 L 104 317 L 104 317 L 104 321 L 104 321 Z M 121 327 Q 121 324 120 323 L 121 322 L 121 322 Q 122 323 123 323 Q 123 324 124 324 Q 132 330 148 337 Q 179 353 232 363 L 232 392 L 232 392 L 232 400 L 232 400 L 240 400 L 296 400 L 296 392 L 296 392 L 296 368 L 296 368 Q 371 364 414 343 Q 437 334 448 326 Q 451 325 454 323 Q 454 323 455 322 L 456 323 L 456 323 Q 455 325 455 327 Q 454 334 449 346 Q 443 364 424 385 L 424 384 L 424 384 L 416 384 L 360 384 L 360 392 L 360 392 L 360 423 L 360 423 Q 331 432 288 432 Q 245 432 216 423 L 216 392 L 216 392 L 216 384 L 216 384 L 208 384 L 152 384 L 152 385 L 152 385 Q 133 364 127 346 Q 122 334 121 327 L 121 327 Z" />
</svg>