<svg xmlns="http://www.w3.org/2000/svg" viewBox="0 0 512 512">
  <path d="M 409.6 312 L 384 292 L 384 204.8 L 281.6 204.8 L 273.6 204.8 L 256 204.8 L 256 191.2 L 256 179.2 L 256 76.8 L 128 76.8 L 128 89.6 L 102.4 69.6 L 102.4 51.2 L 128 51.2 L 288 51.2 L 409.6 172.8 L 409.6 312 L 409.6 312 Z M 281.6 179.2 L 380 179.2 L 281.6 80.8 L 281.6 179.2 L 281.6 179.2 Z M 128 220 L 128 435.2 L 384 435.2 L 384 422.4 L 409.6 442.4 L 409.6 460.8 L 384 460.8 L 128 460.8 L 102.4 460.8 L 102.4 435.2 L 102.4 200 L 128 220 L 128 220 Z M 16 51.2 L 26.4 59.2 L 502.4 432.8 L 512 440.8 L 496 460.8 L 486.4 452.8 L 10.4 79.2 L 0 71.2 L 16 51.2 L 16 51.2 Z" />
</svg>