<svg xmlns="http://www.w3.org/2000/svg" viewBox="0 0 512 509">
  <path d="M 128 0 L 139 6 L 128 0 L 139 6 L 379 118 L 379 118 L 395 125 L 395 125 L 379 132 L 379 132 L 144 242 L 144 242 L 144 312 L 144 312 Q 195 301 256 301 Q 365 302 437 331 Q 509 361 512 405 Q 509 449 437 479 Q 365 508 256 509 Q 147 508 75 479 Q 3 449 0 405 Q 1 380 26 359 Q 52 338 96 324 L 96 341 L 96 341 Q 88 343 81 346 Q 48 360 31 376 Q 15 392 16 405 Q 15 418 31 434 Q 48 450 81 464 Q 150 492 256 493 Q 362 492 431 464 Q 464 450 481 434 Q 497 418 496 405 Q 497 392 481 376 Q 464 360 431 346 Q 362 318 256 317 Q 195 317 144 328 L 144 379 L 144 379 Q 172 358 224 357 Q 265 358 292 371 Q 319 385 320 405 Q 319 425 292 439 Q 265 452 224 453 Q 188 453 162 442 Q 136 430 129 413 L 128 413 L 128 413 L 128 405 L 128 405 L 128 331 L 128 331 L 128 315 L 128 315 L 128 237 L 128 237 L 128 13 L 128 13 L 128 0 L 128 0 Z M 144 405 Q 142 412 163 425 Q 186 436 224 437 Q 262 436 285 425 Q 306 412 304 405 Q 306 398 285 385 Q 262 374 224 373 Q 186 374 163 385 Q 142 398 144 405 L 144 405 Z M 144 224 L 357 125 L 144 224 L 357 125 L 144 26 L 144 26 L 144 225 L 144 224 Z" />
</svg>