<svg xmlns="http://www.w3.org/2000/svg" viewBox="0 0 640 512">
  <path d="M 441 64 L 455 64 L 441 64 L 455 64 L 456 71 L 456 71 L 497 387 L 497 387 L 536 167 L 536 167 L 537 160 L 537 160 L 550 160 L 550 160 L 552 166 L 552 166 L 582 280 L 582 280 L 632 280 L 640 280 L 640 296 L 640 296 L 632 296 L 570 296 L 568 290 L 568 290 L 546 205 L 546 205 L 504 441 L 504 441 L 503 448 L 503 448 L 489 448 L 489 448 L 488 441 L 488 441 L 448 130 L 448 130 L 392 505 L 392 505 L 391 512 L 391 512 L 377 512 L 377 512 L 376 505 L 376 505 L 320 71 L 320 71 L 264 505 L 264 505 L 263 512 L 263 512 L 249 512 L 249 512 L 248 505 L 248 505 L 193 130 L 193 130 L 152 441 L 152 441 L 151 448 L 151 448 L 137 448 L 137 448 L 136 441 L 136 441 L 94 205 L 94 205 L 72 290 L 72 290 L 70 296 L 70 296 L 64 296 L 0 296 L 0 280 L 0 280 L 8 280 L 58 280 L 88 166 L 88 166 L 90 160 L 90 160 L 103 160 L 103 160 L 104 167 L 104 167 L 143 387 L 143 387 L 184 71 L 184 71 L 185 64 L 185 64 L 199 64 L 199 64 L 200 71 L 200 71 L 255 446 L 255 446 L 312 7 L 312 7 L 313 0 L 313 0 L 327 0 L 327 0 L 328 7 L 328 7 L 385 446 L 385 446 L 440 71 L 440 71 L 441 64 L 441 64 Z" />
</svg>