<svg xmlns="http://www.w3.org/2000/svg" viewBox="0 0 640 512">
  <path d="M 102 0 Q 84 11 61 33 L 61 33 L 61 33 Q 37 56 19 87 L 19 87 L 19 87 Q 1 117 0 154 Q 0 174 6 192 L 40 192 L 40 192 Q 32 174 32 154 Q 33 114 63 78 Q 81 56 99 42 L 131 74 L 131 74 L 154 96 L 154 96 L 176 74 L 176 74 L 180 70 L 180 70 Q 207 100 216 123 Q 225 146 224 154 Q 224 174 216 192 L 250 192 L 250 192 Q 256 174 256 154 Q 257 136 241 101 Q 224 65 179 26 L 176 29 L 176 29 L 154 51 L 154 51 L 131 29 L 131 29 L 102 0 L 102 0 Z M 128 103 Q 127 103 112 115 L 112 115 L 112 115 Q 96 127 79 147 L 79 147 L 79 147 Q 61 167 54 192 L 88 192 L 88 192 Q 95 175 113 157 Q 121 149 128 143 Q 135 149 143 157 Q 161 175 168 192 L 202 192 L 202 192 Q 195 167 177 147 Q 160 127 144 115 Q 129 103 128 103 Q 128 103 128 103 L 128 103 Z M 496 64 L 490 64 L 496 64 L 490 64 L 485 69 L 485 69 L 230 316 L 230 316 L 226 313 L 226 313 L 237 256 L 237 256 L 240 256 L 256 256 L 256 224 L 256 224 L 240 224 L 0 224 L 0 256 L 0 256 L 13 256 L 13 256 L 3 312 L 3 312 Q 0 327 0 342 L 0 350 L 0 350 Q 2 419 48 464 Q 94 510 163 512 Q 200 512 232 496 Q 265 481 288 452 L 528 160 L 528 160 L 624 160 L 640 160 L 640 144 L 640 144 L 640 128 L 640 128 L 640 121 L 640 121 L 635 117 L 635 117 L 587 69 L 587 69 L 583 64 L 583 64 L 576 64 L 496 64 Z M 45 256 L 205 256 L 45 256 L 205 256 L 192 317 L 192 317 L 190 327 L 190 327 L 199 333 L 199 333 L 223 349 L 223 349 L 234 357 L 234 357 L 243 348 L 243 348 L 503 96 L 503 96 L 569 96 L 569 96 L 601 128 L 601 128 L 520 128 L 512 128 L 508 134 L 508 134 L 264 432 L 264 432 Q 224 479 163 480 Q 107 479 70 442 Q 33 405 32 349 L 32 342 L 32 342 Q 32 329 34 317 L 45 256 L 45 256 Z M 144 328 Q 142 306 120 304 Q 98 306 96 328 Q 98 350 120 352 Q 142 350 144 328 L 144 328 Z" />
</svg>