<svg xmlns="http://www.w3.org/2000/svg" viewBox="0 0 320 512">
  <path d="M 120 336 L 120 320 L 120 336 L 120 320 L 120 16 L 120 16 L 200 16 L 200 16 L 200 320 L 200 320 L 200 336 L 200 336 L 216 336 L 304 336 L 304 345 L 304 345 L 160 489 L 160 489 L 16 345 L 16 345 L 16 336 L 16 336 L 104 336 L 120 336 Z M 0 352 L 149 501 L 0 352 L 149 501 L 160 512 L 160 512 L 171 501 L 171 501 L 320 352 L 320 352 L 320 336 L 320 336 L 320 320 L 320 320 L 304 320 L 216 320 L 216 304 L 216 304 L 216 16 L 216 16 L 216 0 L 216 0 L 200 0 L 104 0 L 104 16 L 104 16 L 104 304 L 104 304 L 104 320 L 104 320 L 88 320 L 0 320 L 0 336 L 0 336 L 0 352 L 0 352 Z" />
</svg>