<svg xmlns="http://www.w3.org/2000/svg" viewBox="0 0 512 448">
  <path d="M 208 16 L 208 216 L 208 16 L 208 216 L 208 232 L 208 232 L 208 432 L 208 432 L 80 432 L 80 432 L 80 16 L 80 16 L 208 16 L 208 16 Z M 224 216 L 224 16 L 224 216 L 224 16 L 224 0 L 224 0 L 208 0 L 64 0 L 64 16 L 64 16 L 64 216 L 64 216 L 0 216 L 0 216 L 0 232 L 0 232 L 64 232 L 64 232 L 64 432 L 64 432 L 64 448 L 64 448 L 80 448 L 224 448 L 224 432 L 224 432 L 224 232 L 224 232 L 288 232 L 288 232 L 288 368 L 288 368 L 288 384 L 288 384 L 304 384 L 448 384 L 448 368 L 448 368 L 448 232 L 448 232 L 512 232 L 512 232 L 512 216 L 512 216 L 448 216 L 448 216 L 448 80 L 448 80 L 448 64 L 448 64 L 432 64 L 288 64 L 288 80 L 288 80 L 288 216 L 288 216 L 224 216 L 224 216 Z M 304 216 L 304 80 L 304 216 L 304 80 L 432 80 L 432 80 L 432 216 L 432 216 L 432 232 L 432 232 L 432 368 L 432 368 L 304 368 L 304 368 L 304 232 L 304 232 L 304 216 L 304 216 Z" />
</svg>