<svg xmlns="http://www.w3.org/2000/svg" viewBox="0 0 640 480">
  <path d="M 352 0 L 352 16 L 352 0 L 352 16 L 328 16 L 328 16 L 328 128 L 328 128 L 352 128 L 352 128 L 352 144 L 352 144 L 232 144 L 0 144 L 0 128 L 0 128 L 24 128 L 24 128 L 24 16 L 24 16 L 0 16 L 0 16 L 0 0 L 0 0 L 352 0 L 352 0 Z M 312 16 L 232 16 L 312 16 L 232 16 L 232 128 L 232 128 L 312 128 L 312 128 L 312 16 L 312 16 Z M 216 16 L 136 16 L 216 16 L 136 16 L 136 128 L 136 128 L 216 128 L 216 128 L 216 16 L 216 16 Z M 120 16 L 40 16 L 120 16 L 40 16 L 40 128 L 40 128 L 120 128 L 120 128 L 120 16 L 120 16 Z M 384 64 L 392 64 L 384 64 L 507 64 L 510 66 L 510 66 L 638 194 L 638 194 L 640 197 L 640 197 L 640 200 L 640 200 L 640 376 L 640 376 L 640 384 L 640 384 L 632 384 L 575 384 Q 576 388 576 392 Q 575 429 550 454 Q 525 479 488 480 Q 451 479 426 454 Q 401 429 400 392 Q 400 388 400 384 L 240 384 L 240 384 Q 240 388 240 392 Q 239 429 214 454 Q 189 479 152 480 Q 115 479 90 454 Q 65 429 64 392 Q 64 388 64 384 L 8 384 L 0 384 L 0 376 L 0 376 L 0 200 L 0 200 L 0 192 L 0 192 L 8 192 L 384 192 L 384 72 L 384 72 L 384 64 L 384 64 Z M 384 208 L 16 208 L 384 208 L 16 208 L 16 368 L 16 368 L 67 368 L 67 368 Q 76 340 98 322 Q 121 305 152 304 Q 183 305 206 322 Q 228 340 237 368 L 403 368 L 403 368 Q 412 340 434 322 Q 457 305 488 304 Q 519 305 542 322 Q 564 340 573 368 L 624 368 L 624 368 L 624 208 L 624 208 L 400 208 L 384 208 Z M 613 192 L 501 80 L 613 192 L 501 80 L 400 80 L 400 80 L 400 192 L 400 192 L 613 192 L 613 192 Z M 224 392 Q 223 351 188 330 Q 152 310 116 330 Q 81 351 80 392 Q 81 433 116 454 Q 152 474 188 454 Q 223 433 224 392 L 224 392 Z M 488 464 Q 529 463 550 428 Q 570 392 550 356 Q 529 321 488 320 Q 447 321 426 356 Q 406 392 426 428 Q 447 463 488 464 L 488 464 Z" />
</svg>