<svg xmlns="http://www.w3.org/2000/svg" viewBox="0 0 448 512">
  <path d="M 432 224 Q 430 310 374 368 L 396 368 L 396 368 Q 446 308 448 224 Q 447 161 417 111 Q 388 60 337 31 Q 287 1 224 0 Q 161 1 111 31 Q 60 60 31 111 Q 1 161 0 224 Q 2 308 52 368 L 74 368 L 74 368 Q 18 310 16 224 Q 18 136 77 77 Q 136 18 224 16 Q 312 18 371 77 Q 430 136 432 224 L 432 224 Z M 19 512 L 429 512 L 19 512 L 448 512 L 438 496 L 438 496 L 376 400 L 376 400 L 72 400 L 72 400 L 10 496 L 10 496 L 0 512 L 0 512 L 19 512 L 19 512 Z M 367 416 L 419 496 L 367 416 L 419 496 L 29 496 L 29 496 L 81 416 L 81 416 L 367 416 L 367 416 Z M 296 152 L 280 152 L 296 152 L 280 152 L 280 160 L 280 160 L 280 216 L 280 216 L 224 216 L 216 216 L 216 232 L 216 232 L 224 232 L 280 232 L 280 288 L 280 288 L 280 296 L 280 296 L 296 296 L 296 296 L 296 288 L 296 288 L 296 232 L 296 232 L 352 232 L 360 232 L 360 216 L 360 216 L 352 216 L 296 216 L 296 160 L 296 160 L 296 152 L 296 152 Z M 152 104 L 136 104 L 152 104 L 136 104 L 136 112 L 136 112 L 136 136 L 136 136 L 112 136 L 104 136 L 104 152 L 104 152 L 112 152 L 136 152 L 136 176 L 136 176 L 136 184 L 136 184 L 152 184 L 152 184 L 152 176 L 152 176 L 152 152 L 152 152 L 176 152 L 184 152 L 184 136 L 184 136 L 176 136 L 152 136 L 152 112 L 152 112 L 152 104 L 152 104 Z" />
</svg>