<svg xmlns="http://www.w3.org/2000/svg" viewBox="0 0 639 512">
  <path d="M 639 160 Q 638 219 603 261 L 378 36 L 378 36 Q 420 1 479 0 Q 547 2 592 47 Q 637 92 639 160 L 639 160 Z M 479 320 Q 411 318 366 273 L 366 273 L 366 273 Q 321 228 319 160 Q 320 101 355 59 L 580 284 L 580 284 Q 538 319 479 320 L 479 320 Z M 159 512 Q 95 511 51 470 L 51 470 L 51 470 Q 7 430 0 368 L 318 368 L 318 368 Q 311 430 267 470 Q 223 511 159 512 L 159 512 Z M 0 336 Q 7 274 51 234 L 51 234 L 51 234 Q 95 193 159 192 Q 223 193 267 234 Q 311 274 318 336 L 0 336 L 0 336 Z" />
</svg>