<svg xmlns="http://www.w3.org/2000/svg" viewBox="0 0 640 160">
  <path d="M 16 0 L 0 0 L 16 0 L 0 0 L 0 32 L 0 32 L 16 32 L 64 32 L 64 128 L 64 128 L 16 128 L 0 128 L 0 160 L 0 160 L 16 160 L 640 160 L 640 128 L 640 128 L 624 128 L 576 128 L 576 32 L 576 32 L 624 32 L 640 32 L 640 0 L 640 0 L 624 0 L 16 0 Z M 96 32 L 304 32 L 96 32 L 304 32 L 304 128 L 304 128 L 96 128 L 96 128 L 96 32 L 96 32 Z M 336 32 L 544 32 L 336 32 L 544 32 L 544 128 L 544 128 L 336 128 L 336 128 L 336 32 L 336 32 Z" />
</svg>