<svg xmlns="http://www.w3.org/2000/svg" viewBox="0 0 448 512">
  <path d="M 0 56 Q 1 32 16 16 L 16 16 L 16 16 Q 32 1 56 0 L 440 0 L 448 0 L 448 8 L 448 8 L 448 408 L 448 408 L 448 416 L 448 416 L 440 416 L 416 416 L 416 496 L 416 496 L 440 496 L 448 496 L 448 512 L 448 512 L 440 512 L 56 512 Q 32 511 16 496 Q 1 480 0 456 L 0 56 L 0 56 Z M 56 416 Q 39 416 28 428 L 28 428 L 28 428 Q 16 439 16 456 Q 16 473 28 484 Q 39 496 56 496 L 400 496 L 400 496 L 400 416 L 400 416 L 56 416 L 56 416 Z M 16 417 Q 32 401 56 400 L 432 400 L 432 400 L 432 16 L 432 16 L 56 16 L 56 16 Q 39 16 28 28 Q 16 39 16 56 L 16 417 L 16 417 Z M 319 222 Q 313 246 286 257 Q 304 264 313 277 Q 323 289 319 309 Q 313 334 287 345 Q 261 355 221 350 Q 196 347 173 339 Q 171 338 169 337 Q 167 337 166 336 L 170 321 L 170 321 Q 172 321 173 322 Q 176 323 178 323 Q 200 331 223 335 Q 256 339 277 331 Q 299 323 303 306 Q 307 286 289 277 Q 272 267 238 260 Q 237 259 237 259 Q 236 259 235 259 Q 208 254 182 240 Q 157 226 161 194 Q 167 170 194 159 Q 177 152 167 140 Q 157 127 161 107 Q 167 82 193 71 Q 219 61 259 66 Q 274 68 296 74 L 292 89 L 292 89 Q 271 83 257 81 Q 224 77 202 85 Q 181 93 177 110 Q 173 128 187 137 Q 202 147 232 154 Q 234 154 236 155 Q 239 156 242 156 Q 242 156 242 156 Q 271 162 297 175 Q 323 189 319 222 L 319 222 Z M 177 197 Q 174 219 194 229 L 194 229 L 194 229 Q 213 238 234 242 L 234 242 L 234 242 Q 234 242 234 242 Q 236 242 238 243 Q 240 243 242 244 Q 250 246 259 248 Q 274 246 287 240 Q 300 233 303 219 Q 306 195 284 185 Q 261 175 237 171 Q 237 171 236 171 Q 227 169 221 168 Q 206 170 193 176 Q 180 183 177 197 L 177 197 Z" />
</svg>