<svg xmlns="http://www.w3.org/2000/svg" viewBox="0 0 576 512">
  <path d="M 496 16 L 496 496 L 496 16 L 496 496 L 560 496 L 560 496 L 560 16 L 560 16 L 496 16 L 496 16 Z M 480 0 L 496 0 L 480 0 L 576 0 L 576 16 L 576 16 L 576 496 L 576 496 L 576 512 L 576 512 L 560 512 L 480 512 L 480 496 L 480 496 L 480 16 L 480 16 L 480 0 L 480 0 Z M 400 144 L 336 144 L 400 144 L 336 144 L 336 496 L 336 496 L 400 496 L 400 496 L 400 144 L 400 144 Z M 336 128 L 400 128 L 336 128 L 416 128 L 416 144 L 416 144 L 416 496 L 416 496 L 416 512 L 416 512 L 400 512 L 320 512 L 320 496 L 320 496 L 320 144 L 320 144 L 320 128 L 320 128 L 336 128 L 336 128 Z M 176 272 L 176 496 L 176 272 L 176 496 L 240 496 L 240 496 L 240 272 L 240 272 L 176 272 L 176 272 Z M 160 256 L 176 256 L 160 256 L 256 256 L 256 272 L 256 272 L 256 496 L 256 496 L 256 512 L 256 512 L 240 512 L 160 512 L 160 496 L 160 496 L 160 272 L 160 272 L 160 256 L 160 256 Z M 16 400 L 16 496 L 16 400 L 16 496 L 80 496 L 80 496 L 80 400 L 80 400 L 16 400 L 16 400 Z M 0 384 L 16 384 L 0 384 L 96 384 L 96 400 L 96 400 L 96 496 L 96 496 L 96 512 L 96 512 L 80 512 L 0 512 L 0 496 L 0 496 L 0 400 L 0 400 L 0 384 L 0 384 Z" />
</svg>