<svg xmlns="http://www.w3.org/2000/svg" viewBox="0 0 448 512">
  <path d="M 224 16 Q 176 17 145 49 L 145 49 L 145 49 Q 113 80 112 128 L 112 192 L 112 192 L 432 192 L 448 192 L 448 208 L 448 208 L 448 496 L 448 496 L 448 512 L 448 512 L 432 512 L 0 512 L 0 496 L 0 496 L 0 208 L 0 208 L 0 192 L 0 192 L 16 192 L 96 192 L 96 128 L 96 128 Q 97 74 133 37 Q 170 1 224 0 Q 269 1 302 27 Q 335 53 347 94 L 332 98 L 332 98 Q 321 62 292 39 Q 263 17 224 16 L 224 16 Z M 16 208 L 16 496 L 16 208 L 16 496 L 432 496 L 432 496 L 432 208 L 432 208 L 112 208 L 16 208 Z M 272 336 L 176 336 L 272 336 L 176 336 L 176 368 L 176 368 L 272 368 L 272 368 L 272 336 L 272 336 Z M 288 320 L 288 336 L 288 320 L 288 336 L 288 368 L 288 368 L 288 384 L 288 384 L 272 384 L 160 384 L 160 368 L 160 368 L 160 336 L 160 336 L 160 320 L 160 320 L 176 320 L 288 320 Z" />
</svg>