<svg xmlns="http://www.w3.org/2000/svg" viewBox="0 0 640 512">
  <path d="M 592 48 L 592 80 L 592 48 L 592 80 L 48 80 L 48 80 L 48 48 L 48 48 L 592 48 L 592 48 Z M 48 0 L 0 0 L 48 0 L 0 0 L 0 48 L 0 48 L 0 80 L 0 80 L 0 128 L 0 128 L 32 128 L 32 128 L 32 488 L 32 488 L 32 512 L 32 512 L 56 512 L 160 512 L 160 488 L 160 488 L 160 368 L 160 368 Q 162 300 207 255 Q 252 210 320 208 Q 388 210 433 255 Q 478 300 480 368 L 480 488 L 480 488 L 480 512 L 480 512 L 504 512 L 608 512 L 608 488 L 608 488 L 608 128 L 608 128 L 640 128 L 640 128 L 640 80 L 640 80 L 640 48 L 640 48 L 640 0 L 640 0 L 592 0 L 48 0 Z M 80 464 L 80 128 L 80 464 L 80 128 L 560 128 L 560 128 L 560 464 L 560 464 L 528 464 L 528 464 L 528 368 L 528 368 Q 526 280 467 221 Q 408 162 320 160 Q 232 162 173 221 Q 114 280 112 368 L 112 464 L 112 464 L 80 464 L 80 464 Z M 298 266 Q 272 280 241 316 L 241 316 L 241 316 Q 211 352 208 400 Q 209 448 241 479 Q 272 511 320 512 Q 368 511 399 479 Q 431 448 432 400 Q 433 385 418 354 Q 404 323 365 288 L 342 310 L 342 310 L 298 266 L 298 266 Z M 365 434 Q 364 453 352 465 L 352 465 L 352 465 Q 339 478 320 479 Q 301 478 288 465 Q 276 453 275 434 Q 278 407 298 388 Q 317 368 320 367 Q 323 368 342 388 Q 362 407 365 434 L 365 434 Z" />
</svg>