<svg xmlns="http://www.w3.org/2000/svg" viewBox="0 0 512 512">
  <path d="M 168 24 L 168 103 L 168 24 L 168 103 Q 187 96 208 96 Q 229 96 248 103 L 248 16 L 248 16 L 224 16 L 224 16 Q 195 16 168 24 L 168 24 Z M 152 29 Q 91 52 54 104 L 54 104 L 54 104 Q 17 156 16 224 Q 18 310 78 372 L 80 374 L 80 374 L 80 377 L 80 377 L 80 504 L 80 504 L 80 512 L 80 512 L 64 512 L 64 512 L 64 504 L 64 504 L 64 381 L 64 381 Q 2 315 0 224 Q 1 161 31 111 Q 60 60 111 31 Q 161 1 224 0 L 248 0 L 248 0 Q 327 2 381 54 Q 434 107 440 185 L 509 247 L 509 247 L 512 249 L 512 249 L 512 253 L 512 253 L 512 328 L 512 328 L 512 336 L 512 336 L 504 336 L 448 336 L 448 440 L 448 440 L 448 448 L 448 448 L 440 448 L 320 448 L 320 504 L 320 504 L 320 512 L 320 512 L 304 512 L 304 512 L 304 504 L 304 504 L 304 440 L 304 440 L 304 432 L 304 432 L 312 432 L 432 432 L 432 328 L 432 328 L 432 320 L 432 320 L 440 320 L 496 320 L 496 256 L 496 256 L 427 194 L 427 194 L 424 192 L 424 192 L 424 189 L 424 189 Q 420 120 376 72 Q 332 24 264 17 L 264 111 L 264 111 Q 289 126 305 151 Q 320 177 320 208 Q 319 256 287 287 Q 256 319 208 320 Q 160 319 129 287 Q 97 256 96 208 Q 96 177 111 151 Q 127 126 152 111 L 152 29 L 152 29 Z M 304 208 Q 304 182 291 160 L 291 160 L 291 160 Q 278 138 256 125 Q 233 112 208 112 Q 183 112 160 125 Q 138 138 125 160 Q 112 182 112 208 Q 112 234 125 256 Q 138 278 160 291 Q 183 304 208 304 Q 233 304 256 291 Q 278 278 291 256 Q 304 234 304 208 L 304 208 Z M 208 240 Q 222 240 231 231 L 231 231 L 231 231 Q 240 222 240 208 Q 240 194 231 185 Q 222 176 208 176 Q 194 176 185 185 Q 176 194 176 208 Q 176 222 185 231 Q 194 240 208 240 L 208 240 Z M 208 160 Q 235 161 250 184 Q 262 208 250 232 Q 235 255 208 256 Q 181 255 166 232 Q 154 208 166 184 Q 181 161 208 160 L 208 160 Z" />
</svg>