<svg xmlns="http://www.w3.org/2000/svg" viewBox="0 0 512 512">
  <path d="M 160 416 L 144 416 L 160 416 L 0 416 L 0 400 L 0 400 L 0 16 L 0 16 L 0 0 L 0 0 L 16 0 L 512 0 L 512 16 L 512 16 L 512 400 L 512 400 L 512 416 L 512 416 L 496 416 L 304 416 L 176 501 L 176 501 L 160 512 L 160 512 L 160 493 L 160 493 L 160 432 L 160 432 L 160 416 L 160 416 Z M 160 400 L 176 400 L 160 400 L 176 400 L 176 416 L 176 416 L 176 482 L 176 482 L 295 403 L 295 403 L 299 400 L 299 400 L 304 400 L 496 400 L 496 16 L 496 16 L 16 16 L 16 16 L 16 400 L 16 400 L 160 400 L 160 400 Z M 200 120 L 328 120 L 200 120 L 336 120 L 336 128 L 336 128 L 336 256 L 336 256 L 336 264 L 336 264 L 320 264 L 320 264 L 320 256 L 320 256 L 320 147 L 320 147 L 182 286 L 182 286 L 176 291 L 176 291 L 165 280 L 165 280 L 170 274 L 170 274 L 309 136 L 309 136 L 200 136 L 192 136 L 192 120 L 192 120 L 200 120 L 200 120 Z" />
</svg>