<svg xmlns="http://www.w3.org/2000/svg" viewBox="0 0 390 374">
  <path d="M 193 193 L 198 187 L 193 193 L 198 187 L 193 181 L 193 181 L 17 5 L 17 5 L 11 0 L 11 0 L 0 11 L 0 11 L 5 17 L 5 17 L 176 187 L 176 187 L 5 357 L 5 357 L 0 363 L 0 363 L 11 374 L 11 374 L 17 369 L 17 369 L 193 193 L 193 193 Z M 385 193 L 390 187 L 385 193 L 390 187 L 385 181 L 385 181 L 209 5 L 209 5 L 203 0 L 203 0 L 192 11 L 192 11 L 197 17 L 197 17 L 368 187 L 368 187 L 197 357 L 197 357 L 192 363 L 192 363 L 203 374 L 203 374 L 209 369 L 209 369 L 385 193 L 385 193 Z" />
</svg>