<svg xmlns="http://www.w3.org/2000/svg" viewBox="0 0 448 512">
  <path d="M 288 80 Q 287 116 256 135 Q 224 153 192 135 Q 161 116 160 80 Q 161 44 192 25 Q 224 7 256 25 Q 287 44 288 80 L 288 80 Z M 224 0 Q 179 1 155 40 Q 133 80 155 120 Q 179 159 224 160 Q 269 159 293 120 Q 315 80 293 40 Q 269 1 224 0 L 224 0 Z M 124 192 L 120 192 L 124 192 L 120 192 L 118 195 L 118 195 L 2 350 L 2 350 L 0 352 L 0 352 L 0 355 L 0 355 L 0 409 L 0 409 L 0 414 L 0 414 L 4 416 L 4 416 L 188 508 L 188 508 L 196 512 L 196 512 L 199 504 L 199 504 L 237 429 L 237 429 L 240 422 L 240 422 L 233 418 L 233 418 L 144 374 L 144 374 L 144 304 L 144 304 L 176 304 L 176 304 L 176 344 L 176 344 L 176 347 L 176 347 L 178 350 L 178 350 L 226 398 L 226 398 L 227 399 L 227 399 L 229 399 L 229 399 L 278 421 L 278 421 L 270 431 L 270 431 L 265 437 L 265 437 L 272 442 L 272 442 L 337 494 L 337 494 L 343 499 L 343 499 L 348 493 L 348 493 L 446 371 L 446 371 L 448 369 L 448 369 L 448 366 L 448 366 L 448 322 L 448 322 L 448 319 L 448 319 L 446 316 L 446 316 L 345 195 L 345 195 L 343 192 L 343 192 L 339 192 L 124 192 Z M 354 327 L 289 408 L 354 327 L 289 408 L 237 385 L 237 385 L 192 341 L 192 341 L 192 296 L 192 296 L 192 288 L 192 288 L 184 288 L 128 288 L 128 296 L 128 296 L 128 379 L 128 379 L 128 384 L 128 384 L 133 386 L 133 386 L 219 429 L 219 429 L 188 490 L 188 490 L 16 404 L 16 404 L 16 357 L 16 357 L 128 208 L 128 208 L 335 208 L 335 208 L 432 324 L 432 324 L 432 363 L 432 363 L 341 477 L 341 477 L 288 435 L 288 435 L 366 337 L 366 337 L 371 331 L 371 331 L 359 321 L 359 321 L 354 327 L 354 327 Z M 272 376 Q 299 375 314 352 Q 326 328 314 304 Q 299 281 272 280 Q 245 281 230 304 Q 218 328 230 352 Q 245 375 272 376 L 272 376 Z M 240 328 Q 240 314 249 305 L 249 305 L 249 305 Q 258 296 272 296 Q 286 296 295 305 Q 304 314 304 328 Q 304 342 295 351 Q 286 360 272 360 Q 258 360 249 351 Q 240 342 240 328 L 240 328 Z" />
</svg>