<svg xmlns="http://www.w3.org/2000/svg" viewBox="0 0 416 416">
  <path d="M 39 16 L 31 24 L 39 16 L 31 24 L 70 64 L 70 64 Q 70 64 70 64 Q 70 64 70 64 L 71 64 L 71 64 L 120 113 L 120 113 L 128 105 L 128 105 L 128 16 L 128 16 L 39 16 L 39 16 Z M 19 35 L 8 24 L 19 35 L 8 24 L 19 13 L 19 13 L 32 0 L 32 0 L 128 0 L 144 0 L 144 16 L 144 16 L 144 112 L 144 112 L 131 125 L 131 125 L 120 136 L 120 136 L 109 125 L 109 125 L 71 87 L 71 87 Q 27 137 25 208 Q 25 224 28 240 L 12 240 L 12 240 Q 9 224 9 208 Q 11 130 59 75 L 19 35 L 19 35 Z M 209 24 Q 192 24 176 27 L 176 10 L 176 10 Q 192 8 209 8 Q 287 9 342 58 L 381 19 L 381 19 L 392 8 L 392 8 L 403 19 L 403 19 L 416 32 L 416 32 L 416 128 L 416 128 L 416 144 L 416 144 L 400 144 L 304 144 L 291 131 L 291 131 L 280 120 L 280 120 L 291 109 L 291 109 L 331 69 L 331 69 Q 281 25 209 24 L 209 24 Z M 393 208 Q 393 191 390 176 L 407 176 L 407 176 Q 409 191 409 208 Q 407 287 358 342 L 397 381 L 397 381 L 408 392 L 408 392 L 397 403 L 397 403 L 384 416 L 384 416 L 288 416 L 272 416 L 272 400 L 272 400 L 272 304 L 272 304 L 285 291 L 285 291 L 296 280 L 296 280 L 307 291 L 307 291 L 346 330 L 346 330 Q 392 280 393 207 L 393 208 Z M 346 353 L 345 352 L 346 353 L 345 352 L 296 303 L 296 303 L 288 311 L 288 311 L 288 400 L 288 400 L 377 400 L 377 400 L 385 392 L 385 392 L 346 353 L 346 353 L 346 353 L 346 353 Z M 240 389 L 240 405 L 240 389 L 240 405 Q 225 408 209 408 Q 130 406 76 357 L 35 397 L 35 397 L 24 408 L 24 408 L 13 397 L 13 397 L 0 384 L 0 384 L 0 288 L 0 288 L 0 272 L 0 272 L 16 272 L 112 272 L 125 285 L 125 285 L 136 296 L 136 296 L 125 307 L 125 307 L 87 345 L 87 345 Q 137 390 209 392 Q 225 392 240 389 L 240 389 Z M 392 31 L 303 120 L 392 31 L 303 120 L 311 128 L 311 128 L 400 128 L 400 128 L 400 39 L 400 39 L 392 31 L 392 31 Z M 24 385 L 113 296 L 24 385 L 113 296 L 105 288 L 105 288 L 16 288 L 16 288 L 16 377 L 16 377 L 24 385 L 24 385 Z" />
</svg>