<svg xmlns="http://www.w3.org/2000/svg" viewBox="0 0 510 510">
  <path d="M 452 0 L 457 5 L 452 0 L 457 5 L 505 53 L 505 53 L 510 58 L 510 58 L 505 64 L 505 64 L 454 131 L 454 131 L 452 133 L 452 133 L 449 134 L 449 134 L 372 149 L 372 149 L 295 227 L 295 227 Q 332 268 336 326 L 344 326 L 352 326 L 352 342 L 352 342 L 344 342 L 336 342 Q 332 400 295 441 L 300 447 L 300 447 L 306 453 L 306 453 L 295 464 L 295 464 L 289 458 L 289 458 L 283 453 L 283 453 Q 242 490 184 494 L 184 502 L 184 502 L 184 510 L 184 510 L 168 510 L 168 510 L 168 502 L 168 502 L 168 494 L 168 494 Q 110 490 69 453 L 63 458 L 63 458 L 57 464 L 57 464 L 46 453 L 46 453 L 52 447 L 52 447 L 57 441 L 57 441 Q 20 400 16 342 L 8 342 L 0 342 L 0 326 L 0 326 L 8 326 L 16 326 Q 20 268 57 227 L 52 221 L 52 221 L 46 215 L 46 215 L 57 204 L 57 204 L 63 210 L 63 210 L 69 215 L 69 215 Q 110 178 168 174 L 168 166 L 168 166 L 168 158 L 168 158 L 184 158 L 184 158 L 184 166 L 184 166 L 184 174 L 184 174 Q 242 178 283 215 L 361 138 L 361 138 L 376 60 L 376 60 L 377 57 L 377 57 L 379 56 L 379 56 L 446 4 L 446 4 L 452 0 L 452 0 Z M 74 232 L 74 232 L 74 232 L 74 232 Q 34 273 32 334 Q 34 395 74 436 Q 115 476 176 478 Q 237 476 278 436 Q 318 395 320 334 Q 318 273 278 232 Q 237 192 176 190 Q 115 192 74 232 L 74 232 Z M 378 132 L 444 119 L 378 132 L 444 119 L 489 60 L 489 60 L 451 21 L 451 21 L 391 67 L 391 67 L 378 132 L 378 132 Z M 118 328 L 182 392 L 118 328 L 182 392 L 187 398 L 187 398 L 176 409 L 176 409 L 170 404 L 170 404 L 106 340 L 106 340 L 101 334 L 101 334 L 112 323 L 112 323 L 118 328 L 118 328 Z" />
</svg>