<svg xmlns="http://www.w3.org/2000/svg" viewBox="0 0 512 511">
  <path d="M 498 17 L 506 15 L 498 17 L 506 15 L 502 0 L 502 0 L 494 2 L 494 2 L 16 103 L 16 103 L 8 105 L 8 105 L 12 120 L 12 120 L 20 119 L 20 119 L 498 17 L 498 17 Z M 505 135 L 504 119 L 505 135 L 504 119 L 496 119 L 496 119 L 16 151 L 16 151 L 8 152 L 8 152 L 9 168 L 9 168 L 17 167 L 17 167 L 497 135 L 497 135 L 505 135 L 505 135 Z M 144 462 L 135 458 L 144 462 L 135 458 Q 86 433 55 387 Q 24 342 20 283 L 17 239 L 17 239 L 495 239 L 495 239 L 492 283 L 492 283 Q 488 342 457 387 Q 426 433 377 458 L 368 462 L 368 462 L 368 472 L 368 472 L 368 495 L 368 495 L 144 495 L 144 495 L 144 472 L 144 472 L 144 462 L 144 462 Z M 1 239 L 4 284 L 1 239 L 4 284 Q 8 347 41 396 Q 75 445 128 472 L 128 495 L 128 495 L 128 511 L 128 511 L 144 511 L 384 511 L 384 495 L 384 495 L 384 472 L 384 472 Q 437 445 471 396 Q 504 347 508 284 L 511 239 L 511 239 L 512 223 L 512 223 L 496 223 L 0 223 L 1 239 L 1 239 Z" />
</svg>