<svg xmlns="http://www.w3.org/2000/svg" viewBox="0 0 512 448">
  <path d="M 62 58 Q 47 70 48 80 Q 48 88 58 99 Q 69 109 91 118 L 96 120 L 96 120 L 96 125 L 96 125 L 96 304 L 96 304 L 96 320 L 96 320 L 128 320 L 128 320 L 128 304 L 128 304 L 128 140 L 128 140 L 128 130 L 128 130 L 138 132 L 138 132 Q 173 140 217 143 L 224 143 L 224 143 L 224 151 L 224 151 L 224 256 L 224 256 L 224 272 L 224 272 L 256 272 L 256 272 L 256 256 L 256 256 L 256 152 L 256 152 L 256 144 L 256 144 L 264 144 L 264 144 Q 352 142 409 123 Q 436 113 451 101 Q 464 90 464 80 Q 465 70 450 58 Q 435 47 406 37 Q 382 29 352 24 L 352 64 L 352 64 L 352 80 L 352 80 L 336 80 L 160 80 L 160 64 L 160 64 L 160 24 L 160 24 Q 130 29 106 37 Q 77 46 62 58 L 62 58 Z M 176 21 L 176 64 L 176 21 L 176 64 L 336 64 L 336 64 L 336 21 L 336 21 Q 299 16 256 16 Q 213 16 176 21 L 176 21 Z M 101 22 Q 163 1 256 0 Q 349 1 411 22 Q 442 32 460 46 Q 479 60 480 80 Q 479 100 461 114 Q 443 128 414 138 Q 357 157 272 160 L 272 256 L 272 256 L 272 280 L 272 280 L 272 288 L 272 288 L 264 288 L 208 288 L 208 280 L 208 280 L 208 256 L 208 256 L 208 158 L 208 158 Q 174 156 144 150 L 144 304 L 144 304 L 144 328 L 144 328 L 144 336 L 144 336 L 136 336 L 80 336 L 80 328 L 80 328 L 80 304 L 80 304 L 80 131 L 80 131 Q 60 122 47 110 Q 33 97 32 80 Q 33 60 52 46 Q 70 32 101 22 L 101 22 Z M 16 136 Q 15 160 48 180 L 48 198 L 48 198 Q 35 191 25 183 Q 16 195 16 208 Q 15 232 48 252 L 48 270 L 48 270 Q 35 263 25 255 Q 16 267 16 280 Q 15 304 48 324 L 48 336 L 48 336 L 48 342 L 48 342 Q 35 335 25 327 Q 16 339 16 352 Q 14 386 80 410 Q 149 432 256 432 Q 363 432 432 410 Q 498 386 496 352 Q 496 339 487 327 Q 455 352 394 364 Q 333 376 256 376 Q 214 376 176 373 L 176 356 L 176 356 Q 214 360 256 360 Q 363 360 432 338 Q 498 314 496 280 Q 496 267 487 255 Q 461 276 413 288 Q 365 300 304 303 L 304 287 L 304 287 Q 380 283 432 266 Q 498 242 496 208 Q 496 195 487 183 Q 461 204 413 216 Q 365 228 304 231 L 304 215 L 304 215 Q 380 211 432 194 Q 498 170 496 136 Q 496 131 495 126 Q 501 119 505 110 Q 512 122 512 136 Q 512 156 499 172 Q 512 188 512 208 Q 512 228 499 244 Q 512 260 512 280 Q 512 300 499 316 Q 512 332 512 352 Q 509 402 437 425 Q 365 448 256 448 Q 147 448 75 425 Q 3 402 0 352 Q 0 332 13 316 Q 0 300 0 280 Q 0 260 13 244 Q 0 228 0 208 Q 0 188 13 172 Q 0 156 0 136 Q 0 122 7 110 Q 11 119 17 126 Q 16 131 16 136 L 16 136 Z" />
</svg>