<svg xmlns="http://www.w3.org/2000/svg" viewBox="0 0 640 448">
  <path d="M 0 0 L 8 0 L 0 0 L 528 0 L 528 8 L 528 8 L 528 336 L 528 336 L 632 336 L 640 336 L 640 352 L 640 352 L 632 352 L 312 352 L 312 336 L 312 336 L 320 336 L 512 336 L 512 16 L 512 16 L 16 16 L 16 16 L 16 336 L 16 336 L 64 336 L 72 336 L 72 352 L 72 352 L 64 352 L 0 352 L 0 344 L 0 344 L 0 8 L 0 8 L 0 0 L 0 0 Z M 80 64 L 80 72 L 80 64 L 80 72 L 80 216 L 80 216 L 80 224 L 80 224 L 64 224 L 64 224 L 64 216 L 64 216 L 64 72 L 64 72 L 64 64 L 64 64 L 80 64 L 80 64 Z M 176 64 L 176 72 L 176 64 L 176 72 L 176 216 L 176 216 L 176 224 L 176 224 L 160 224 L 160 224 L 160 216 L 160 216 L 160 72 L 160 72 L 160 64 L 160 64 L 176 64 L 176 64 Z M 272 64 L 272 72 L 272 64 L 272 72 L 272 216 L 272 216 L 272 224 L 272 224 L 256 224 L 256 224 L 256 216 L 256 216 L 256 72 L 256 72 L 256 64 L 256 64 L 272 64 L 272 64 Z M 368 64 L 368 72 L 368 64 L 368 72 L 368 280 L 368 280 L 368 288 L 368 288 L 352 288 L 352 288 L 352 280 L 352 280 L 352 72 L 352 72 L 352 64 L 352 64 L 368 64 L 368 64 Z M 464 64 L 464 72 L 464 64 L 464 72 L 464 280 L 464 280 L 464 288 L 464 288 L 448 288 L 448 288 L 448 280 L 448 280 L 448 72 L 448 72 L 448 64 L 448 64 L 464 64 L 464 64 Z M 272 352 Q 271 307 232 283 Q 192 261 152 283 Q 113 307 112 352 Q 113 397 152 421 Q 192 443 232 421 Q 271 397 272 352 L 272 352 Z M 96 352 Q 96 326 109 304 L 109 304 L 109 304 Q 122 282 144 269 Q 167 256 192 256 Q 217 256 240 269 Q 262 282 275 304 Q 288 326 288 352 Q 288 378 275 400 Q 262 422 240 435 Q 217 448 192 448 Q 167 448 144 435 Q 122 422 109 400 Q 96 378 96 352 L 96 352 Z" />
</svg>