<svg xmlns="http://www.w3.org/2000/svg" viewBox="0 0 512 512">
  <path d="M 303 35 L 301 58 L 303 35 L 301 58 L 299 76 L 299 76 L 316 70 L 316 70 L 493 7 L 493 7 L 512 0 L 512 0 L 505 20 L 505 20 L 442 196 L 442 196 L 436 213 L 436 213 L 454 211 L 454 211 L 477 210 L 477 210 L 496 208 L 496 208 L 486 225 L 486 225 L 379 411 L 379 411 Q 351 458 304 485 Q 258 512 203 512 Q 117 510 59 453 Q 2 395 0 309 Q 0 254 27 208 Q 54 161 101 133 L 287 26 L 287 26 L 304 16 L 304 16 L 303 35 L 303 35 Z M 305 91 L 282 99 L 305 91 L 282 99 L 283 75 L 283 75 L 286 45 L 286 45 L 109 147 L 109 147 Q 66 173 41 216 Q 16 258 16 309 Q 18 388 71 441 Q 124 494 203 496 Q 254 496 296 471 Q 339 446 365 403 L 467 226 L 467 226 L 437 229 L 437 229 L 413 231 L 413 231 L 421 207 L 421 207 L 486 26 L 486 26 L 305 91 L 305 91 Z M 209 207 L 240 268 L 209 207 L 240 268 L 308 278 L 308 278 L 328 280 L 328 280 L 313 295 L 313 295 L 264 342 L 264 342 L 276 409 L 276 409 L 279 429 L 279 429 L 261 420 L 261 420 L 200 388 L 200 388 L 139 420 L 139 420 L 121 429 L 121 429 L 124 409 L 124 409 L 136 342 L 136 342 L 87 295 L 87 295 L 72 281 L 72 281 L 92 278 L 92 278 L 160 268 L 160 268 L 191 207 L 191 207 L 200 189 L 200 189 L 209 207 L 209 207 Z M 237 284 L 229 283 L 237 284 L 229 283 L 225 275 L 225 275 L 200 225 L 200 225 L 175 275 L 175 275 L 171 283 L 171 283 L 163 284 L 163 284 L 107 292 L 107 292 L 147 331 L 147 331 L 153 336 L 153 336 L 152 345 L 152 345 L 142 400 L 142 400 L 193 374 L 193 374 L 200 370 L 200 370 L 207 374 L 207 374 L 258 400 L 258 400 L 248 345 L 248 345 L 247 336 L 247 336 L 253 331 L 253 331 L 293 292 L 293 292 L 237 284 L 237 284 Z" />
</svg>