<svg xmlns="http://www.w3.org/2000/svg" viewBox="0 0 576 374">
  <path d="M 96 0 L 97 1 L 96 0 L 97 1 Q 97 2 98 3 Q 104 11 110 19 Q 117 28 130 40 Q 143 52 159 61 Q 175 70 192 70 Q 209 70 225 61 Q 241 52 254 40 Q 267 28 274 19 Q 281 11 287 2 Q 287 1 287 1 L 288 0 L 288 0 L 289 1 L 289 1 Q 289 1 289 1 Q 289 1 289 1 Q 289 2 290 3 Q 295 11 302 19 Q 309 28 322 40 Q 335 52 351 61 Q 367 70 384 70 Q 401 70 417 61 Q 433 52 446 40 Q 459 28 466 19 Q 473 11 479 2 Q 479 1 479 1 Q 479 1 479 1 Q 479 1 479 1 L 480 0 L 480 0 L 481 1 L 481 1 Q 481 2 482 3 Q 487 11 494 19 Q 501 28 514 40 Q 527 52 543 61 Q 559 70 576 70 L 576 86 L 576 86 Q 554 85 536 75 Q 517 65 503 52 Q 488 37 480 27 Q 472 37 457 52 Q 443 65 424 75 Q 406 85 384 86 Q 362 85 344 75 Q 325 65 311 52 Q 296 37 288 27 Q 280 37 265 52 Q 251 65 232 75 Q 214 85 192 86 Q 170 85 152 75 Q 133 65 119 52 Q 104 37 96 27 Q 88 37 73 52 Q 59 65 40 75 Q 22 85 0 86 L 0 70 L 0 70 Q 17 70 33 61 Q 49 52 62 40 Q 75 28 82 19 Q 89 11 95 2 Q 95 1 95 1 Q 95 1 95 1 Q 95 1 95 1 L 96 0 L 96 0 Z M 96 288 L 97 289 L 96 288 L 97 289 Q 97 290 98 291 Q 104 299 110 307 Q 117 316 130 328 Q 143 340 159 349 Q 175 358 192 358 Q 209 358 225 349 Q 241 340 254 328 Q 267 316 274 307 Q 281 299 287 290 Q 287 289 287 289 Q 287 289 287 289 Q 287 289 287 289 L 288 288 L 288 288 L 289 289 L 289 289 Q 289 290 290 291 Q 295 299 302 307 Q 309 316 322 328 Q 335 340 351 349 Q 367 358 384 358 Q 401 358 417 349 Q 433 340 446 328 Q 459 316 466 307 Q 473 299 479 290 Q 479 289 479 289 L 480 288 L 480 288 L 481 289 L 481 289 Q 481 289 481 289 Q 481 289 481 289 Q 481 290 482 291 Q 487 299 494 307 Q 501 316 514 328 Q 527 340 543 349 Q 559 358 576 358 L 576 374 L 576 374 Q 554 373 536 363 Q 517 353 503 340 Q 488 325 480 315 Q 472 325 457 340 Q 443 353 424 363 Q 406 373 384 374 Q 362 373 344 363 Q 325 353 311 340 Q 296 325 288 315 Q 280 325 265 340 Q 251 353 232 363 Q 214 373 192 374 Q 170 373 152 363 Q 133 353 119 340 Q 104 325 96 315 Q 88 325 73 340 Q 59 353 40 363 Q 22 373 0 374 L 0 358 L 0 358 Q 17 358 33 349 Q 49 340 62 328 Q 75 316 82 307 Q 89 299 95 290 Q 95 289 95 289 L 96 288 L 96 288 Z M 97 145 Q 97 146 98 147 L 98 147 L 98 147 Q 104 155 110 163 Q 117 172 130 184 Q 143 196 159 205 Q 175 214 192 214 Q 209 214 225 205 Q 241 196 254 184 Q 267 172 274 163 Q 281 155 287 146 Q 287 145 287 145 Q 287 145 288 145 Q 288 144 288 144 L 289 145 L 289 145 Q 289 146 290 147 Q 295 155 302 163 Q 309 172 322 184 Q 335 196 351 205 Q 367 214 384 214 Q 401 214 417 205 Q 433 196 446 184 Q 459 172 466 163 Q 473 155 479 146 Q 479 145 479 145 L 480 144 L 480 144 L 481 145 L 481 145 Q 481 146 482 147 Q 487 155 494 163 Q 501 172 514 184 Q 527 196 543 205 Q 559 214 576 214 L 576 230 L 576 230 Q 554 229 536 219 Q 517 209 503 196 Q 488 181 480 171 Q 472 181 457 196 Q 443 209 424 219 Q 406 229 384 230 Q 362 229 344 219 Q 325 209 311 196 Q 296 181 288 171 Q 280 181 265 196 Q 251 209 232 219 Q 214 229 192 230 Q 170 229 152 219 Q 133 209 119 196 Q 104 181 96 171 Q 88 181 73 196 Q 59 209 40 219 Q 22 229 0 230 L 0 214 L 0 214 Q 17 214 33 205 Q 49 196 62 184 Q 75 172 82 163 Q 89 155 95 146 Q 95 145 95 145 Q 96 145 96 144 L 97 145 L 97 145 Z" />
</svg>