<svg xmlns="http://www.w3.org/2000/svg" viewBox="0 0 512 512">
  <path d="M 20 183 Q 42 126 84 84 L 84 84 L 84 84 Q 126 42 183 20 L 319 269 L 319 269 L 269 319 L 269 319 L 20 183 L 20 183 Z M 190 0 Q 123 23 73 73 L 73 73 L 73 73 Q 23 123 0 190 L 14 198 L 14 198 Q 0 241 0 288 Q 1 381 51 452 Q 56 458 60 465 L 61 465 L 61 465 Q 61 465 61 465 Q 61 465 61 465 L 84 446 L 84 446 Q 125 490 183 512 L 224 480 L 224 480 L 208 384 L 208 384 L 208 350 L 208 350 L 243 323 L 243 323 L 272 338 L 272 338 L 338 272 L 338 272 L 323 243 L 323 243 L 350 208 L 350 208 L 384 208 L 384 208 L 480 224 L 480 224 L 512 183 L 512 183 Q 490 125 446 85 L 465 61 L 465 61 Q 465 61 465 61 Q 465 61 465 61 L 465 61 L 465 61 Q 458 56 452 51 Q 381 1 288 0 Q 241 0 198 14 L 190 0 L 190 0 Z M 436 97 Q 474 132 494 180 L 473 207 L 473 207 L 387 192 L 387 192 L 385 192 L 363 192 L 437 97 L 436 97 Z M 192 363 L 192 384 L 192 363 L 192 384 L 192 385 L 192 385 L 192 387 L 192 387 L 207 473 L 207 473 L 180 494 L 180 494 Q 132 474 97 436 L 192 363 L 192 363 Z M 16 288 Q 16 245 29 206 L 228 314 L 228 314 L 64 442 L 64 442 Q 17 375 16 288 L 16 288 Z M 442 64 L 314 228 L 442 64 L 314 228 L 206 29 L 206 29 Q 245 16 288 16 Q 375 17 442 64 L 442 64 Z" />
</svg>