<svg xmlns="http://www.w3.org/2000/svg" viewBox="0 0 640 512">
  <path d="M 336 128 Q 336 98 321 72 L 321 72 L 321 72 Q 306 46 280 31 Q 254 16 224 16 Q 194 16 168 31 Q 142 46 127 72 Q 112 98 112 128 Q 112 158 127 184 Q 142 210 168 225 Q 194 240 224 240 Q 254 240 280 225 Q 306 210 321 184 Q 336 158 336 128 L 336 128 Z M 96 128 Q 96 93 113 64 L 113 64 L 113 64 Q 130 35 160 17 Q 190 0 224 0 Q 258 0 288 17 Q 318 35 335 64 Q 352 93 352 128 Q 352 163 335 192 Q 318 221 288 239 Q 258 256 224 256 Q 190 256 160 239 Q 130 221 113 192 Q 96 163 96 128 L 96 128 Z M 22 496 L 295 496 L 22 496 L 295 496 Q 300 505 306 512 L 17 512 L 0 512 L 5 496 L 5 496 L 64 304 L 64 304 L 384 304 L 384 304 L 400 356 L 400 356 L 400 386 L 400 386 Q 396 386 392 385 L 372 320 L 372 320 L 76 320 L 76 320 L 22 496 L 22 496 Z M 640 157 L 640 168 L 640 157 L 640 168 L 640 240 L 640 240 L 640 392 L 640 392 Q 640 393 640 394 Q 640 397 640 400 Q 639 420 621 434 Q 603 447 576 448 Q 549 447 531 434 Q 513 420 512 400 Q 513 380 531 366 Q 549 352 576 352 Q 606 353 624 368 L 624 251 L 624 251 L 448 310 L 448 310 L 448 464 L 448 464 Q 448 464 448 464 Q 448 464 448 464 Q 447 484 429 498 Q 411 511 384 512 Q 357 511 339 498 Q 321 484 320 464 Q 321 444 339 430 Q 357 416 384 416 Q 414 417 432 432 L 432 304 L 432 304 L 432 232 L 432 232 L 432 226 L 432 226 L 438 224 L 438 224 L 630 160 L 630 160 L 640 157 L 640 157 Z M 420 443 Q 406 433 384 432 Q 362 432 348 443 Q 336 453 336 464 Q 336 475 348 485 Q 362 495 384 496 Q 406 495 420 485 Q 432 475 432 464 Q 432 453 420 443 L 420 443 Z M 448 293 L 624 234 L 448 293 L 624 234 L 624 179 L 624 179 L 448 238 L 448 238 L 448 293 L 448 293 Z M 624 400 Q 624 389 612 379 Q 598 369 576 368 Q 554 368 540 379 Q 528 389 528 400 Q 528 411 540 421 Q 554 431 576 432 Q 598 431 612 421 Q 624 411 624 400 L 624 400 Z" />
</svg>