<svg xmlns="http://www.w3.org/2000/svg" viewBox="0 0 448 320">
  <path d="M 0 120 Q 1 69 35 35 L 35 35 L 35 35 Q 69 1 120 0 L 136 0 L 144 0 L 144 16 L 144 16 L 136 16 L 120 16 Q 76 17 46 46 Q 17 76 16 120 L 16 128 L 16 128 L 176 128 L 192 128 L 192 144 L 192 144 L 192 304 L 192 304 L 192 320 L 192 320 L 176 320 L 0 320 L 0 304 L 0 304 L 0 216 L 0 216 L 0 144 L 0 144 L 0 128 L 0 128 L 0 120 L 0 120 Z M 16 216 L 16 304 L 16 216 L 16 304 L 176 304 L 176 304 L 176 144 L 176 144 L 16 144 L 16 144 L 16 216 L 16 216 Z M 256 120 Q 257 69 291 35 L 291 35 L 291 35 Q 325 1 376 0 L 392 0 L 400 0 L 400 16 L 400 16 L 392 16 L 376 16 Q 332 17 302 46 Q 273 76 272 120 L 272 128 L 272 128 L 432 128 L 448 128 L 448 144 L 448 144 L 448 304 L 448 304 L 448 320 L 448 320 L 432 320 L 256 320 L 256 304 L 256 304 L 256 216 L 256 216 L 256 144 L 256 144 L 256 128 L 256 128 L 256 120 L 256 120 Z M 272 216 L 272 304 L 272 216 L 272 304 L 432 304 L 432 304 L 432 144 L 432 144 L 272 144 L 272 144 L 272 216 L 272 216 Z" />
</svg>