<svg xmlns="http://www.w3.org/2000/svg" viewBox="0 0 574 519">
  <path d="M 128 59 Q 128 44 117 34 L 117 34 L 117 34 Q 107 23 92 23 Q 77 23 67 34 Q 56 44 56 59 Q 56 74 67 84 Q 77 95 92 95 Q 107 95 117 84 Q 128 74 128 59 L 128 59 Z M 40 59 Q 41 30 66 14 Q 92 0 118 14 Q 143 30 144 59 Q 143 88 118 104 Q 92 118 66 104 Q 41 88 40 59 L 40 59 Z M 8 135 L 136 135 L 8 135 L 138 135 L 139 136 L 139 136 L 259 184 L 259 184 L 266 187 L 266 187 L 260 202 L 260 202 L 253 199 L 253 199 L 135 151 L 135 151 L 16 151 L 16 151 L 16 343 L 16 343 L 48 343 L 48 343 L 48 239 L 48 239 L 48 231 L 48 231 L 64 231 L 64 231 L 64 239 L 64 239 L 64 286 L 64 286 L 103 503 L 103 503 L 134 503 L 134 503 L 104 353 L 104 353 L 102 343 L 102 343 L 112 343 L 150 343 L 152 349 L 152 349 L 190 503 L 190 503 L 222 503 L 222 503 L 152 209 L 152 209 L 149 194 L 149 194 L 163 200 L 163 200 L 243 232 L 243 232 L 250 235 L 250 235 L 244 249 L 244 249 L 237 246 L 237 246 L 171 220 L 171 220 L 240 509 L 240 509 L 242 519 L 242 519 L 232 519 L 178 519 L 176 513 L 176 513 L 138 359 L 138 359 L 122 359 L 122 359 L 152 509 L 152 509 L 154 519 L 154 519 L 144 519 L 89 519 L 88 512 L 88 512 L 61 359 L 61 359 L 56 359 L 0 359 L 0 351 L 0 351 L 0 143 L 0 143 L 0 135 L 0 135 L 8 135 L 8 135 Z M 464 95 Q 479 95 489 84 L 489 84 L 489 84 Q 500 74 500 59 Q 500 44 489 34 Q 479 23 464 23 Q 449 23 439 34 Q 428 44 428 59 Q 428 74 439 84 Q 449 95 464 95 L 464 95 Z M 464 7 Q 493 8 509 33 Q 523 59 509 85 Q 493 110 464 111 Q 435 110 419 85 Q 405 59 419 33 Q 435 8 464 7 L 464 7 Z M 483 277 L 480 271 L 483 277 L 480 271 L 470 250 L 470 250 L 463 272 L 463 272 L 451 312 L 451 312 L 504 369 L 504 369 L 509 375 L 509 375 L 511 383 L 511 383 L 535 471 L 535 471 L 539 486 L 539 486 L 543 501 L 543 501 L 528 506 L 528 506 L 497 514 L 497 514 L 482 518 L 482 518 L 477 503 L 477 503 L 473 488 L 473 488 L 451 407 L 451 407 L 380 330 L 380 330 Q 358 303 366 270 L 377 226 L 377 226 L 383 206 L 383 206 L 364 215 L 364 215 L 346 223 L 346 223 L 334 257 L 334 257 L 329 272 L 329 272 L 324 288 L 324 288 L 309 282 L 309 282 L 279 272 L 279 272 L 263 267 L 263 267 L 268 252 L 268 252 L 274 237 L 274 237 L 290 189 L 290 189 L 294 175 L 294 175 L 307 170 L 307 170 L 379 138 L 379 138 L 388 134 L 388 134 L 398 136 L 398 136 L 478 152 L 478 152 L 494 155 L 494 155 L 501 169 L 501 169 L 536 239 L 536 239 L 560 251 L 560 251 L 574 258 L 574 258 L 567 273 L 567 273 L 553 301 L 553 301 L 546 316 L 546 316 L 531 308 L 531 308 L 498 292 L 498 292 L 488 287 L 488 287 L 483 277 L 483 277 Z M 492 380 L 440 323 L 492 380 L 440 323 L 433 316 L 433 316 L 436 308 L 436 308 L 454 245 L 454 245 L 466 206 L 466 206 L 484 243 L 484 243 L 498 270 L 498 270 L 500 275 L 500 275 L 505 277 L 505 277 L 539 294 L 539 294 L 553 266 L 553 266 L 529 253 L 529 253 L 524 251 L 524 251 L 522 246 L 522 246 L 486 176 L 486 176 L 483 169 L 483 169 L 475 167 L 475 167 L 395 151 L 395 151 L 390 150 L 390 150 L 386 152 L 386 152 L 314 184 L 314 184 L 307 187 L 307 187 L 305 194 L 305 194 L 289 242 L 289 242 L 284 257 L 284 257 L 314 267 L 314 267 L 319 252 L 319 252 L 331 217 L 331 217 L 333 211 L 333 211 L 340 208 L 340 208 L 376 192 L 376 192 L 407 178 L 407 178 L 398 210 L 398 210 L 381 274 L 381 274 Q 375 299 392 319 L 463 396 L 463 396 L 466 399 L 466 399 L 467 403 L 467 403 L 489 483 L 489 483 L 493 499 L 493 499 L 524 490 L 524 490 L 520 475 L 520 475 L 496 387 L 496 387 L 495 383 L 495 383 L 492 380 L 492 380 Z M 325 405 L 350 343 L 325 405 L 350 343 Q 353 347 357 351 L 362 356 L 362 356 L 340 411 L 340 411 L 338 414 L 338 414 L 336 416 L 336 416 L 293 460 L 293 460 L 281 471 L 281 471 L 304 494 L 304 494 L 315 482 L 315 482 L 363 434 L 363 434 L 366 432 L 366 432 L 367 429 L 367 429 L 385 383 L 385 383 L 397 396 L 397 396 L 382 435 L 382 435 L 379 441 L 379 441 L 375 446 L 375 446 L 327 494 L 327 494 L 315 505 L 315 505 L 304 516 L 304 516 L 293 505 L 293 505 L 270 482 L 270 482 L 259 471 L 259 471 L 270 460 L 270 460 L 281 448 L 281 448 L 325 405 L 325 405 Z" />
</svg>