<svg xmlns="http://www.w3.org/2000/svg" viewBox="0 0 384 512">
  <path d="M 16 16 L 208 16 L 16 16 L 208 16 L 208 168 L 208 168 L 208 176 L 208 176 L 216 176 L 368 176 L 368 496 L 368 496 L 16 496 L 16 496 L 16 16 L 16 16 Z M 224 23 L 361 160 L 224 23 L 361 160 L 224 160 L 224 160 L 224 23 L 224 23 Z M 224 0 L 16 0 L 224 0 L 0 0 L 0 16 L 0 16 L 0 496 L 0 496 L 0 512 L 0 512 L 16 512 L 384 512 L 384 496 L 384 496 L 384 160 L 384 160 L 224 0 L 224 0 Z M 192 208 L 192 216 L 192 208 L 192 216 L 192 312 L 192 312 L 192 320 L 192 320 L 200 320 L 304 320 L 304 312 L 304 312 Q 303 268 274 238 Q 244 209 200 208 L 192 208 L 192 208 Z M 208 224 Q 240 228 262 250 L 262 250 L 262 250 Q 284 272 288 304 L 208 304 L 208 304 L 208 224 L 208 224 Z M 160 233 Q 122 240 97 268 L 97 268 L 97 268 Q 73 296 72 336 Q 73 380 102 410 Q 132 439 176 440 Q 216 439 244 415 Q 272 390 279 352 L 263 352 L 263 352 Q 256 383 233 403 Q 209 423 176 424 Q 139 423 114 398 Q 89 373 88 336 Q 89 303 109 279 Q 129 256 160 250 L 160 233 L 160 233 Z" />
</svg>