<svg xmlns="http://www.w3.org/2000/svg" viewBox="0 0 512 512">
  <path d="M 296 0 L 288 0 L 296 0 L 288 0 L 288 8 L 288 8 L 288 72 L 288 72 L 288 80 L 288 80 L 296 80 L 328 80 Q 350 82 352 104 Q 350 126 328 128 L 296 128 L 288 128 L 288 136 L 288 136 L 288 192 L 288 192 L 288 200 L 288 200 L 296 200 L 352 200 L 352 216 L 352 216 Q 352 233 364 244 Q 375 256 392 256 Q 409 256 420 244 Q 432 233 432 216 L 432 200 L 432 200 L 504 200 L 512 200 L 512 192 L 512 192 L 512 8 L 512 8 L 512 0 L 512 0 L 504 0 L 296 0 Z M 304 64 L 304 16 L 304 64 L 304 16 L 496 16 L 496 16 L 496 184 L 496 184 L 424 184 L 416 184 L 416 192 L 416 192 L 416 216 L 416 216 Q 414 238 392 240 Q 370 238 368 216 L 368 192 L 368 192 L 368 184 L 368 184 L 360 184 L 304 184 L 304 144 L 304 144 L 328 144 L 328 144 Q 345 144 356 132 Q 368 121 368 104 Q 368 87 356 76 Q 345 64 328 64 L 304 64 L 304 64 Z M 8 64 L 0 64 L 8 64 L 0 64 L 0 72 L 0 72 L 0 288 L 0 288 L 0 504 L 0 504 L 0 512 L 0 512 L 8 512 L 448 512 L 448 504 L 448 504 L 448 288 L 448 288 L 448 280 L 448 280 L 440 280 L 344 280 L 344 288 L 344 288 L 344 320 L 344 320 Q 342 342 320 344 Q 298 342 296 320 L 296 288 L 296 288 L 296 280 L 296 280 L 288 280 L 232 280 L 232 72 L 232 72 L 232 64 L 232 64 L 224 64 L 8 64 Z M 216 80 L 216 280 L 216 80 L 216 280 L 168 280 L 168 280 L 168 256 L 168 256 Q 168 239 156 228 Q 145 216 128 216 Q 111 216 100 228 Q 88 239 88 256 L 88 280 L 88 280 L 16 280 L 16 280 L 16 80 L 16 80 L 216 80 L 216 80 Z M 96 296 L 104 296 L 96 296 L 104 296 L 104 288 L 104 288 L 104 256 L 104 256 Q 106 234 128 232 Q 150 234 152 256 L 152 288 L 152 288 L 152 296 L 152 296 L 160 296 L 216 296 L 216 344 L 216 344 L 192 344 L 192 344 Q 175 344 164 356 Q 152 367 152 384 Q 152 401 164 412 Q 175 424 192 424 L 216 424 L 216 424 L 216 496 L 216 496 L 16 496 L 16 496 L 16 296 L 16 296 L 96 296 L 96 296 Z M 232 416 L 232 408 L 232 416 L 232 408 L 224 408 L 192 408 Q 170 406 168 384 Q 170 362 192 360 L 224 360 L 232 360 L 232 352 L 232 352 L 232 296 L 232 296 L 280 296 L 280 296 L 280 320 L 280 320 Q 280 337 292 348 Q 303 360 320 360 Q 337 360 348 348 Q 360 337 360 320 L 360 296 L 360 296 L 432 296 L 432 296 L 432 496 L 432 496 L 232 496 L 232 496 L 232 416 L 232 416 Z" />
</svg>