<svg xmlns="http://www.w3.org/2000/svg" viewBox="0 0 512 512">
  <path d="M 400 144 L 400 128 L 400 144 L 400 128 Q 399 94 377 71 Q 354 49 320 48 Q 296 48 276 61 L 263 69 L 263 69 L 255 57 L 255 57 Q 227 18 176 16 Q 135 17 108 44 Q 81 71 80 112 L 80 134 L 80 134 L 80 145 L 80 145 L 69 149 L 69 149 Q 46 157 31 177 Q 16 197 16 224 L 16 304 L 16 304 L 96 304 L 496 304 L 496 224 L 496 224 Q 495 190 473 167 Q 450 145 416 144 L 400 144 L 400 144 Z M 16 320 L 0 320 L 16 320 L 0 320 L 0 304 L 0 304 L 0 224 L 0 224 Q 1 192 18 168 Q 36 144 64 134 L 64 112 L 64 112 Q 65 64 97 33 Q 128 1 176 0 Q 235 2 268 48 Q 291 32 320 32 Q 361 33 388 60 Q 415 87 416 128 Q 457 129 484 156 Q 511 183 512 224 L 512 304 L 512 304 L 512 320 L 512 320 L 496 320 L 16 320 Z M 32 464 Q 17 465 16 480 Q 17 495 32 496 Q 47 495 48 480 Q 47 465 32 464 L 32 464 Z M 64 480 Q 64 494 55 503 L 55 503 L 55 503 Q 46 512 32 512 Q 18 512 9 503 Q 0 494 0 480 Q 0 466 9 457 Q 18 448 32 448 Q 46 448 55 457 Q 64 466 64 480 L 64 480 Z M 208 480 Q 209 495 224 496 Q 239 495 240 480 Q 239 465 224 464 Q 209 465 208 480 L 208 480 Z M 224 512 Q 210 512 201 503 L 201 503 L 201 503 Q 192 494 192 480 Q 192 466 201 457 Q 210 448 224 448 Q 238 448 247 457 Q 256 466 256 480 Q 256 494 247 503 Q 238 512 224 512 L 224 512 Z M 416 464 Q 401 465 400 480 Q 401 495 416 496 Q 431 495 432 480 Q 431 465 416 464 L 416 464 Z M 448 480 Q 448 494 439 503 L 439 503 L 439 503 Q 430 512 416 512 Q 402 512 393 503 Q 384 494 384 480 Q 384 466 393 457 Q 402 448 416 448 Q 430 448 439 457 Q 448 466 448 480 L 448 480 Z M 96 352 L 112 352 L 96 352 L 112 352 L 74 416 L 74 416 L 58 416 L 58 416 L 96 352 L 96 352 Z M 192 352 L 208 352 L 192 352 L 208 352 L 112 512 L 112 512 L 96 512 L 96 512 L 192 352 L 192 352 Z M 304 352 L 266 416 L 304 352 L 266 416 L 250 416 L 250 416 L 288 352 L 288 352 L 304 352 L 304 352 Z M 384 352 L 400 352 L 384 352 L 400 352 L 304 512 L 304 512 L 288 512 L 288 512 L 384 352 L 384 352 Z M 480 352 L 496 352 L 480 352 L 496 352 L 458 416 L 458 416 L 442 416 L 442 416 L 480 352 L 480 352 Z" />
</svg>