<svg xmlns="http://www.w3.org/2000/svg" viewBox="0 0 512 448">
  <path d="M 267 436 L 256 448 L 267 436 L 256 448 L 245 436 L 245 436 L 0 176 L 0 176 L 112 0 L 112 0 L 400 0 L 400 0 L 512 176 L 512 176 L 267 436 L 267 436 Z M 490 176 L 256 176 L 490 176 L 22 176 L 256 425 L 256 425 L 490 176 L 490 176 Z M 483 160 L 393 19 L 483 160 L 393 19 L 273 160 L 273 160 L 483 160 L 483 160 Z M 375 16 L 137 16 L 375 16 L 137 16 L 256 156 L 256 156 L 375 16 L 375 16 Z M 119 19 L 29 160 L 119 19 L 29 160 L 239 160 L 239 160 L 119 19 L 119 19 Z" />
</svg>