<svg xmlns="http://www.w3.org/2000/svg" viewBox="0 0 512 512">
  <path d="M 239.36609 59.232964 L 226.38351 48.684628 L 214.21236 59.232964 L 0 240.9889 L 25.153725 270.19968 L 44.627575 253.97148 L 44.627575 443.84152 L 44.627575 463.31537 L 64.101425 463.31537 L 296.16483 463.31537 Q 271.8225 447.08716 255.5943 424.36768 L 187.43582 424.36768 L 187.43582 307.52457 L 229.62917 307.52457 Q 234.49762 287.2393 244.23454 268.57687 L 167.96196 268.57687 L 148.48811 268.57687 L 148.48811 288.05072 L 148.48811 424.36768 L 83.57528 424.36768 L 83.57528 220.70364 L 226.38351 99.80349 L 318.0729 177.69888 Q 332.67828 163.9049 348.0951 151.73375 L 239.36609 59.232964 L 239.36609 59.232964 Z M 408.95087 229.62917 Q 388.66562 206.09825 372.4374 192.30428 L 372.4374 192.30428 Q 357.0206 178.5103 356.2092 177.69888 Q 354.58636 178.5103 329.43265 202.0412 Q 304.27893 225.57211 279.12518 261.27417 Q 253.97148 296.97623 252.34865 333.4897 Q 253.97148 388.66562 290.48495 425.17908 Q 326.9984 461.69257 382.17432 463.31537 Q 437.35025 461.69257 473.8637 425.17908 Q 510.37717 388.66562 512 333.4897 Q 510.37717 302.6561 491.71475 273.4453 Q 473.0523 243.42314 454.38986 223.94928 Q 435.72742 204.47543 434.10458 203.66403 Q 431.67038 204.47543 408.95087 229.62917 L 408.95087 229.62917 Z M 422.74484 399.21396 Q 404.89383 411.3851 382.98575 411.3851 Q 354.58636 411.3851 336.73535 394.3455 Q 318.0729 378.11728 317.26147 348.0951 Q 317.26147 334.30112 326.187 318.8843 Q 335.92392 303.4675 353.77496 281.55942 Q 356.2092 284.80508 368.38034 300.22186 Q 380.5515 315.63867 391.91125 330.24405 Q 403.271 344.84946 404.0824 345.66086 L 433.29318 311.5816 Q 434.91602 314.01584 436.53882 316.45007 Q 438.16165 318.8843 438.97305 321.31854 Q 449.5214 342.41522 445.46436 364.3233 Q 441.4073 385.41998 422.74484 399.21396 L 422.74484 399.21396 Z" />
</svg>