<svg xmlns="http://www.w3.org/2000/svg" viewBox="0 0 512 512">
  <path d="M 496 272 Q 487 368 420 431 L 420 431 L 420 431 Q 354 494 256 496 Q 189 495 135 463 Q 81 431 49 377 Q 17 323 16 256 Q 16 211 32 171 L 98 238 L 98 238 L 101 240 L 101 240 L 104 240 L 149 240 L 192 283 L 192 283 L 192 344 L 192 344 L 192 347 L 192 347 L 194 350 L 194 350 L 224 379 L 224 379 L 224 440 L 224 440 L 224 448 L 224 448 L 232 448 L 304 448 L 304 440 L 304 440 L 304 395 L 304 395 L 366 334 L 366 334 L 368 331 L 368 331 L 368 328 L 368 328 L 368 248 L 368 248 L 368 240 L 368 240 L 360 240 L 235 240 L 208 213 L 208 213 L 208 192 L 208 192 L 280 192 L 288 192 L 288 184 L 288 184 L 288 152 L 288 152 L 288 149 L 288 149 L 286 146 L 286 146 L 256 117 L 256 117 L 256 107 L 256 107 L 286 78 L 286 78 L 288 75 L 288 75 L 288 72 L 288 72 L 288 18 L 288 18 Q 341 26 385 53 Q 428 81 457 124 L 402 178 L 402 178 L 400 181 L 400 181 L 400 184 L 400 184 L 400 264 L 400 264 L 400 272 L 400 272 L 408 272 L 496 272 Z M 465 138 Q 495 191 496 256 L 416 256 L 416 256 L 416 187 L 416 187 L 465 138 L 465 138 Z M 256 16 Q 264 16 272 17 L 272 69 L 272 69 L 242 98 L 242 98 L 240 101 L 240 101 L 240 104 L 240 104 L 240 120 L 240 120 L 240 123 L 240 123 L 242 126 L 242 126 L 272 155 L 272 155 L 272 176 L 272 176 L 200 176 L 192 176 L 192 184 L 192 184 L 192 216 L 192 216 L 192 219 L 192 219 L 194 222 L 194 222 L 226 254 L 226 254 L 229 256 L 229 256 L 232 256 L 352 256 L 352 325 L 352 325 L 290 386 L 290 386 L 288 389 L 288 389 L 288 392 L 288 392 L 288 432 L 288 432 L 240 432 L 240 432 L 240 376 L 240 376 L 240 373 L 240 373 L 238 370 L 238 370 L 208 341 L 208 341 L 208 280 L 208 280 L 208 277 L 208 277 L 206 274 L 206 274 L 158 226 L 158 226 L 155 224 L 155 224 L 152 224 L 107 224 L 38 155 L 38 155 Q 68 92 125 55 Q 183 17 256 16 L 256 16 Z M 256 512 Q 326 511 384 478 L 384 478 L 384 478 Q 442 444 478 384 Q 512 323 512 256 Q 512 189 478 128 Q 442 68 384 34 Q 326 1 256 0 Q 186 1 128 34 Q 70 68 34 128 Q 0 189 0 256 Q 0 323 34 384 Q 70 444 128 478 Q 186 511 256 512 L 256 512 Z" />
</svg>