<svg xmlns="http://www.w3.org/2000/svg" viewBox="0 0 512 416">
  <path d="M 352 192 L 320 192 L 352 192 L 96 192 L 96 224 L 96 224 L 96 384 L 96 384 L 32 384 L 32 384 L 32 128 L 32 128 L 320 128 L 352 128 L 352 96 L 352 96 L 352 45 L 352 45 L 467 160 L 467 160 L 352 275 L 352 275 L 352 224 L 352 224 L 352 192 L 352 192 Z M 320 288 L 320 320 L 320 288 L 320 320 L 352 320 L 352 320 L 489 183 L 489 183 L 512 160 L 512 160 L 489 137 L 489 137 L 352 0 L 352 0 L 320 0 L 320 0 L 320 32 L 320 32 L 320 64 L 320 64 L 320 96 L 320 96 L 288 96 L 0 96 L 0 128 L 0 128 L 0 384 L 0 384 L 0 416 L 0 416 L 32 416 L 128 416 L 128 384 L 128 384 L 128 256 L 128 256 L 128 224 L 128 224 L 160 224 L 320 224 L 320 256 L 320 256 L 320 288 L 320 288 Z" />
</svg>