<svg xmlns="http://www.w3.org/2000/svg" viewBox="0 0 384 511">
  <path d="M 0 208 Q 2 120 61 61 L 61 61 L 61 61 Q 120 2 208 0 L 216 0 L 216 0 L 216 8 L 216 8 L 216 99 L 216 99 Q 289 115 336 170 Q 382 226 384 303 Q 382 392 323 450 Q 264 509 176 511 L 168 511 L 168 511 L 168 503 L 168 503 L 168 412 L 168 412 Q 95 397 48 341 Q 2 285 0 208 L 0 208 Z M 200 16 Q 121 21 70 75 L 70 75 L 70 75 Q 18 129 16 208 Q 18 281 62 333 Q 107 385 177 398 L 184 399 L 184 399 L 184 406 L 184 406 L 184 495 L 184 495 Q 263 490 314 437 Q 366 383 368 304 Q 366 230 322 178 Q 277 126 207 114 L 200 113 L 200 113 L 200 106 L 200 106 L 200 16 L 200 16 Z M 192 336 Q 237 335 261 296 Q 283 256 261 216 Q 237 177 192 176 Q 147 177 123 216 Q 101 256 123 296 Q 147 335 192 336 L 192 336 Z M 192 160 Q 218 160 240 173 L 240 173 L 240 173 Q 262 186 275 208 Q 288 231 288 256 Q 288 281 275 304 Q 262 326 240 339 Q 218 352 192 352 Q 166 352 144 339 Q 122 326 109 304 Q 96 281 96 256 Q 96 231 109 208 Q 122 186 144 173 Q 166 160 192 160 L 192 160 Z M 208 256 Q 207 241 192 240 Q 177 241 176 256 Q 177 271 192 272 Q 207 271 208 256 L 208 256 Z M 160 256 Q 160 242 169 233 L 169 233 L 169 233 Q 178 224 192 224 Q 206 224 215 233 Q 224 242 224 256 Q 224 270 215 279 Q 206 288 192 288 Q 178 288 169 279 Q 160 270 160 256 L 160 256 Z" />
</svg>