<svg xmlns="http://www.w3.org/2000/svg" viewBox="0 0 640 518">
  <path d="M 112 272 L 117 280 L 112 272 L 117 280 L 127 294 L 127 294 L 144 294 L 208 294 L 208 414 L 208 414 L 208 510 L 208 510 L 208 518 L 208 518 L 224 518 L 224 518 L 224 510 L 224 510 L 224 422 L 224 422 L 624 422 L 624 422 L 624 510 L 624 510 L 624 518 L 624 518 L 640 518 L 640 518 L 640 510 L 640 510 L 640 414 L 640 414 L 640 206 L 640 206 L 640 196 L 640 196 L 640 14 L 640 14 L 640 6 L 640 6 L 632 6 L 480 6 L 480 14 L 480 14 L 480 70 L 480 70 L 480 71 L 480 71 L 480 72 L 480 72 L 526 218 L 526 218 L 224 276 L 224 276 L 224 246 L 224 246 L 224 230 L 224 230 L 208 230 L 161 230 L 107 148 L 107 148 L 97 134 L 97 134 L 80 134 L 0 134 L 0 150 L 0 150 L 0 166 L 0 166 L 0 281 L 0 281 Q 0 307 19 326 L 41 349 L 41 349 L 96 403 L 96 403 L 96 486 L 96 486 L 96 502 L 96 502 L 96 518 L 96 518 L 112 518 L 160 518 L 160 502 L 160 502 L 160 486 L 160 486 L 160 390 L 160 390 L 160 377 L 160 377 L 151 367 L 151 367 L 96 313 L 96 313 L 96 277 L 96 277 L 96 248 L 96 248 L 112 272 L 112 272 Z M 224 294 L 224 293 L 224 294 L 224 293 L 624 216 L 624 216 L 624 406 L 624 406 L 224 406 L 224 406 L 224 294 L 224 294 Z M 144 383 L 144 390 L 144 383 L 144 390 L 144 486 L 144 486 L 144 502 L 144 502 L 112 502 L 112 502 L 112 486 L 112 486 L 112 403 L 112 403 L 112 397 L 112 397 L 107 392 L 107 392 L 53 337 L 53 337 L 30 315 L 30 315 Q 16 301 16 281 L 16 166 L 16 166 L 16 150 L 16 150 L 32 150 L 89 150 L 93 157 L 93 157 L 148 239 L 148 239 L 153 246 L 153 246 L 161 246 L 208 246 L 208 278 L 208 278 L 192 278 L 135 278 L 131 271 L 131 271 L 109 239 L 109 239 L 80 195 L 80 195 L 80 248 L 80 248 L 80 313 L 80 313 L 80 319 L 80 319 L 85 324 L 85 324 L 139 379 L 139 379 L 144 383 L 144 383 Z M 80 22 Q 94 22 103 31 L 103 31 L 103 31 Q 112 40 112 54 Q 112 68 103 77 Q 94 86 80 86 Q 66 86 57 77 Q 48 68 48 54 Q 48 40 57 31 Q 66 22 80 22 L 80 22 Z M 128 54 Q 127 27 104 12 Q 80 0 56 12 Q 33 27 32 54 Q 33 81 56 96 Q 80 108 104 96 Q 127 81 128 54 L 128 54 Z M 624 199 L 542 215 L 624 199 L 542 215 L 496 69 L 496 69 L 496 22 L 496 22 L 624 22 L 624 22 L 624 199 L 624 199 Z M 320 326 Q 319 311 304 310 Q 289 311 288 326 Q 289 341 304 342 Q 319 341 320 326 L 320 326 Z M 0 486 L 0 502 L 0 486 L 0 502 L 0 518 L 0 518 L 16 518 L 64 518 L 64 502 L 64 502 L 64 486 L 64 486 Q 64 486 64 486 Q 64 486 64 486 L 64 417 L 64 417 L 48 401 L 48 401 L 48 486 L 48 486 L 48 502 L 48 502 L 16 502 L 16 502 L 16 486 L 16 486 L 16 369 L 16 369 L 0 353 L 0 353 L 0 486 L 0 486 Z" />
</svg>