<svg xmlns="http://www.w3.org/2000/svg" viewBox="0 0 512 512">
  <path d="M 280 408 L 267 395 L 280 408 L 267 395 L 264 392 L 264 392 L 264 496 L 264 496 L 344 496 L 352 496 L 352 512 L 352 512 L 344 512 L 160 512 L 160 496 L 160 496 L 168 496 L 248 496 L 248 392 L 248 392 L 245 395 L 245 395 L 232 408 L 232 408 Q 190 448 136 448 Q 82 448 40 408 Q 0 366 0 312 Q 0 258 40 216 L 256 0 L 256 0 Q 256 0 256 0 Q 256 0 256 0 L 472 216 L 472 216 Q 512 258 512 312 Q 512 366 472 408 Q 430 448 376 448 Q 322 448 280 408 L 280 408 Z M 51 397 Q 88 432 136 432 L 136 432 L 136 432 Q 184 432 221 397 Q 221 397 221 397 Q 221 397 221 397 L 245 373 L 245 373 L 256 361 L 256 361 L 267 373 L 267 373 L 291 397 L 291 397 Q 291 397 291 397 Q 291 397 291 397 Q 328 432 376 432 Q 424 432 461 397 Q 496 360 496 312 Q 496 264 461 227 Q 461 227 461 227 Q 461 227 461 227 L 256 23 L 256 23 L 51 227 L 51 227 Q 51 227 51 227 Q 51 227 51 227 Q 16 264 16 312 Q 16 360 51 397 L 51 397 Z" />
</svg>