<svg xmlns="http://www.w3.org/2000/svg" viewBox="0 0 416 512">
  <path d="M 291 270 L 276 240 L 291 270 L 276 240 L 267 221 L 267 221 L 259 241 L 259 241 L 237 298 L 237 298 L 305 341 L 305 341 L 325 354 L 325 354 L 319 377 L 319 377 L 287 489 L 287 489 L 280 512 L 280 512 L 230 512 L 214 512 L 218 496 L 218 496 L 225 471 L 225 471 L 251 382 L 251 382 L 165 329 L 165 329 Q 145 316 138 296 Q 131 276 138 254 L 164 176 L 164 176 L 169 160 L 169 160 L 152 160 L 141 160 L 103 199 L 103 199 L 91 210 L 91 210 L 80 221 L 80 221 L 69 210 L 69 210 L 46 187 L 46 187 L 35 176 L 35 176 L 46 165 L 46 165 L 57 153 L 57 153 L 105 105 L 105 105 L 115 96 L 115 96 L 128 96 L 198 96 L 204 98 L 204 98 L 284 130 L 284 130 L 295 135 L 295 135 L 301 146 L 301 146 L 340 224 L 340 224 L 384 224 L 416 224 L 416 240 L 416 240 L 416 272 L 416 272 L 416 288 L 416 288 L 400 288 L 300 288 L 291 270 L 291 270 Z M 297 354 L 228 312 L 297 354 L 228 312 L 217 305 L 217 305 L 222 292 L 222 292 L 252 215 L 252 215 L 265 182 L 265 182 L 281 214 L 281 214 L 306 263 L 306 263 L 310 272 L 310 272 L 320 272 L 400 272 L 400 240 L 400 240 L 384 240 L 330 240 L 326 231 L 326 231 L 286 153 L 286 153 L 284 147 L 284 147 L 278 145 L 278 145 L 198 113 L 198 113 L 195 112 L 195 112 L 192 112 L 121 112 L 117 117 L 117 117 L 69 165 L 69 165 L 57 176 L 57 176 L 80 199 L 80 199 L 91 187 L 91 187 L 130 149 L 130 149 L 135 144 L 135 144 L 141 144 L 191 144 L 184 165 L 184 165 L 153 259 L 153 259 Q 148 275 153 291 Q 159 306 173 315 L 259 369 L 259 369 L 269 375 L 269 375 L 266 387 L 266 387 L 241 476 L 241 476 L 235 496 L 235 496 L 268 496 L 268 496 L 271 484 L 271 484 L 303 372 L 303 372 L 307 361 L 307 361 L 296 354 L 297 354 Z M 304 48 Q 304 34 295 25 L 295 25 L 295 25 Q 286 16 272 16 Q 258 16 249 25 Q 240 34 240 48 Q 240 62 249 71 Q 258 80 272 80 Q 286 80 295 71 Q 304 62 304 48 L 304 48 Z M 272 0 Q 299 1 314 24 Q 326 48 314 72 Q 299 95 272 96 Q 245 95 230 72 Q 218 48 230 24 Q 245 1 272 0 L 272 0 Z M 98 352 L 111 315 L 98 352 L 111 315 Q 116 324 122 332 L 113 358 L 113 358 L 109 368 L 109 368 L 98 368 L 16 368 L 16 400 L 16 400 L 131 400 L 131 400 L 148 356 L 148 356 Q 148 356 148 356 Q 148 356 148 356 L 161 364 L 161 364 L 142 416 L 142 416 L 16 416 L 0 416 L 0 400 L 0 400 L 0 368 L 0 368 L 0 352 L 0 352 L 16 352 L 98 352 Z" />
</svg>