<svg xmlns="http://www.w3.org/2000/svg" viewBox="0 0 640 448">
  <path d="M 368 16 L 368 72 L 368 16 L 368 72 L 368 176 L 368 176 L 368 192 L 368 192 L 368 336 L 368 336 L 245 336 L 245 336 Q 236 308 214 290 Q 191 273 160 272 Q 129 273 106 290 Q 84 308 75 336 L 48 336 L 48 336 L 48 256 L 48 256 L 48 240 L 48 240 L 48 112 L 48 112 L 48 96 L 48 96 L 48 16 L 48 16 L 368 16 L 368 16 Z M 32 256 L 32 336 L 32 256 L 32 336 L 8 336 L 8 336 Q 1 337 0 344 Q 1 351 8 352 L 32 352 L 72 352 Q 72 356 72 360 Q 73 397 98 422 Q 123 447 160 448 Q 197 447 222 422 Q 247 397 248 360 Q 248 356 248 352 L 368 352 L 392 352 Q 392 356 392 360 Q 393 397 418 422 Q 443 447 480 448 Q 517 447 542 422 Q 567 397 568 360 Q 568 356 568 352 L 592 352 L 632 352 Q 639 351 640 344 Q 639 337 632 336 L 608 336 L 608 336 L 608 192 L 608 192 L 608 176 L 608 176 L 592 176 L 517 176 L 463 68 L 463 68 Q 461 64 456 64 L 384 64 L 384 64 L 384 16 L 384 16 L 384 0 L 384 0 L 368 0 L 32 0 L 32 16 L 32 16 L 32 96 L 32 96 L 16 96 L 0 96 L 0 112 L 0 112 L 0 240 L 0 240 L 0 256 L 0 256 L 16 256 L 32 256 Z M 32 240 L 16 240 L 32 240 L 16 240 L 16 112 L 16 112 L 32 112 L 32 112 L 32 240 L 32 240 Z M 384 176 L 384 80 L 384 176 L 384 80 L 451 80 L 451 80 L 499 176 L 499 176 L 384 176 L 384 176 Z M 384 336 L 384 192 L 384 336 L 384 192 L 512 192 L 512 192 L 512 192 L 512 192 L 592 192 L 592 192 L 592 336 L 592 336 L 565 336 L 565 336 Q 556 308 533 290 Q 511 273 480 272 Q 449 273 426 290 Q 404 308 395 336 L 384 336 L 384 336 Z M 88 360 Q 89 319 124 298 Q 160 278 196 298 Q 231 319 232 360 Q 231 401 196 422 Q 160 442 124 422 Q 89 401 88 360 L 88 360 Z M 480 288 Q 521 289 542 324 Q 562 360 542 396 Q 521 431 480 432 Q 439 431 418 396 Q 398 360 418 324 Q 439 289 480 288 L 480 288 Z" />
</svg>