<svg xmlns="http://www.w3.org/2000/svg" viewBox="0 0 448 320">
  <path d="M 448 200 Q 447 251 413 285 L 413 285 L 413 285 Q 379 319 328 320 L 312 320 L 304 320 L 304 304 L 304 304 L 312 304 L 328 304 Q 372 303 402 274 Q 431 244 432 200 L 432 192 L 432 192 L 272 192 L 256 192 L 256 176 L 256 176 L 256 16 L 256 16 L 256 0 L 256 0 L 272 0 L 448 0 L 448 16 L 448 16 L 448 104 L 448 104 L 448 176 L 448 176 L 448 192 L 448 192 L 448 200 L 448 200 Z M 432 104 L 432 16 L 432 104 L 432 16 L 272 16 L 272 16 L 272 176 L 272 176 L 432 176 L 432 176 L 432 104 L 432 104 Z M 192 200 Q 191 251 157 285 L 157 285 L 157 285 Q 123 319 72 320 L 56 320 L 48 320 L 48 304 L 48 304 L 56 304 L 72 304 Q 116 303 146 274 Q 175 244 176 200 L 176 192 L 176 192 L 16 192 L 0 192 L 0 176 L 0 176 L 0 16 L 0 16 L 0 0 L 0 0 L 16 0 L 192 0 L 192 16 L 192 16 L 192 104 L 192 104 L 192 176 L 192 176 L 192 192 L 192 192 L 192 200 L 192 200 Z M 176 104 L 176 16 L 176 104 L 176 16 L 16 16 L 16 16 L 16 176 L 16 176 L 176 176 L 176 176 L 176 104 L 176 104 Z" />
</svg>