<svg xmlns="http://www.w3.org/2000/svg" viewBox="0 0 515 515">
  <path d="M 457 0 L 462 5 L 457 0 L 462 5 L 510 53 L 510 53 L 515 58 L 515 58 L 510 64 L 510 64 L 459 131 L 459 131 L 457 133 L 457 133 L 454 134 L 454 134 L 377 149 L 377 149 L 320 206 L 320 206 Q 353 244 356 286 Q 360 328 333 356 Q 316 373 294 378 Q 281 381 272 391 Q 263 401 262 414 Q 260 453 233 481 Q 198 515 147 509 Q 96 504 53 463 Q 11 419 6 368 Q 0 317 34 282 Q 62 255 101 253 Q 114 252 124 243 Q 134 234 137 221 Q 142 199 159 182 Q 187 155 229 159 Q 271 162 309 195 L 366 138 L 366 138 L 381 60 L 381 60 L 382 57 L 382 57 L 384 56 L 384 56 L 451 4 L 451 4 L 457 0 L 457 0 Z M 241 263 L 297 206 L 241 263 L 297 206 Q 263 177 228 174 Q 192 172 170 193 Q 157 206 153 225 Q 149 243 135 255 Q 121 268 102 269 Q 68 271 45 293 Q 18 322 22 367 Q 26 411 64 451 Q 104 489 148 493 Q 193 497 222 470 Q 244 447 246 413 Q 248 394 260 380 Q 273 366 290 362 Q 309 358 322 345 Q 343 323 341 287 Q 338 252 309 218 L 252 274 L 252 274 Q 261 286 261 302 Q 261 322 247 336 Q 233 349 213 350 Q 193 349 179 336 Q 166 322 165 302 Q 166 282 179 268 Q 193 255 213 254 Q 229 254 241 263 L 241 263 Z M 383 132 L 449 119 L 383 132 L 449 119 L 494 60 L 494 60 L 456 21 L 456 21 L 396 67 L 396 67 L 383 132 L 383 132 Z M 245 302 Q 245 288 236 279 L 236 279 L 236 279 Q 227 270 213 270 Q 199 270 190 279 Q 181 288 181 302 Q 181 316 190 325 Q 199 334 213 334 Q 227 334 236 325 Q 245 316 245 302 L 245 302 Z" />
</svg>