<svg xmlns="http://www.w3.org/2000/svg" viewBox="0 0 640 512">
  <path d="M 208 416 L 224 416 L 208 416 L 224 416 L 224 432 L 224 432 L 224 493 L 224 493 L 224 512 L 224 512 L 240 501 L 240 501 L 368 416 L 368 416 L 528 416 L 544 416 L 544 400 L 544 400 L 544 200 L 544 200 L 576 200 L 576 200 L 576 208 L 576 208 L 576 224 L 576 224 L 592 224 L 640 224 L 640 208 L 640 208 L 640 176 L 640 176 L 640 160 L 640 160 L 624 160 L 576 160 L 576 176 L 576 176 L 576 184 L 576 184 L 544 184 L 544 184 L 544 16 L 544 16 L 544 0 L 544 0 L 528 0 L 96 0 L 96 16 L 96 16 L 96 184 L 96 184 L 64 184 L 64 184 L 64 176 L 64 176 L 64 160 L 64 160 L 48 160 L 0 160 L 0 176 L 0 176 L 0 208 L 0 208 L 0 224 L 0 224 L 16 224 L 64 224 L 64 208 L 64 208 L 64 200 L 64 200 L 96 200 L 96 200 L 96 400 L 96 400 L 96 416 L 96 416 L 112 416 L 208 416 Z M 112 400 L 112 16 L 112 400 L 112 16 L 528 16 L 528 16 L 528 400 L 528 400 L 368 400 L 363 400 L 359 403 L 359 403 L 240 482 L 240 482 L 240 416 L 240 416 L 240 400 L 240 400 L 224 400 L 112 400 Z M 160 96 L 480 96 L 160 96 L 480 96 L 480 288 L 480 288 L 160 288 L 160 288 L 160 96 L 160 96 Z M 144 80 L 144 96 L 144 80 L 144 96 L 144 288 L 144 288 L 144 304 L 144 304 L 160 304 L 496 304 L 496 288 L 496 288 L 496 96 L 496 96 L 496 80 L 496 80 L 480 80 L 144 80 Z M 224 216 Q 202 214 200 192 Q 202 170 224 168 Q 246 170 248 192 Q 246 214 224 216 L 224 216 Z M 184 192 Q 185 215 204 227 Q 224 237 244 227 Q 263 215 264 192 Q 263 169 244 157 Q 224 147 204 157 Q 185 169 184 192 L 184 192 Z M 440 192 Q 438 214 416 216 Q 394 214 392 192 Q 394 170 416 168 Q 438 170 440 192 L 440 192 Z M 416 152 Q 393 153 381 172 Q 371 192 381 212 Q 393 231 416 232 Q 439 231 451 212 Q 461 192 451 172 Q 439 153 416 152 L 416 152 Z M 624 176 L 624 208 L 624 176 L 624 208 L 592 208 L 592 208 L 592 176 L 592 176 L 624 176 L 624 176 Z M 16 176 L 48 176 L 16 176 L 48 176 L 48 208 L 48 208 L 16 208 L 16 208 L 16 176 L 16 176 Z" />
</svg>