<svg xmlns="http://www.w3.org/2000/svg" viewBox="0 0 640 512">
  <path d="M 16 5 L 10 0 L 16 5 L 10 0 L 0 13 L 0 13 L 6 18 L 6 18 L 624 507 L 624 507 L 630 512 L 630 512 L 640 500 L 640 500 L 634 495 L 634 495 L 16 5 L 16 5 Z M 367 375 L 317 426 L 367 375 L 317 426 L 274 383 L 274 383 L 268 377 L 268 377 L 262 383 L 262 383 L 225 420 L 225 420 L 181 375 L 181 375 Q 181 375 181 375 Q 181 375 181 375 L 144 338 L 144 338 L 142 336 L 142 336 L 138 336 L 112 336 L 112 173 L 112 173 L 96 161 L 96 161 L 96 384 L 96 384 L 16 384 L 16 384 L 16 144 L 16 144 L 75 144 L 75 144 L 55 128 L 55 128 L 16 128 L 0 128 L 0 144 L 0 144 L 0 384 L 0 384 L 0 400 L 0 400 L 16 400 L 112 400 L 112 384 L 112 384 L 112 352 L 112 352 L 135 352 L 135 352 L 185 402 L 185 402 L 191 408 L 191 408 Q 191 408 191 408 L 220 437 L 220 437 L 225 442 L 225 442 L 231 437 L 231 437 L 268 400 L 268 400 L 311 443 L 311 443 L 317 448 L 317 448 L 323 443 L 323 443 L 376 389 L 376 389 L 376 382 L 376 382 L 367 375 L 367 375 Z M 194 75 L 206 85 L 194 75 L 206 85 L 212 80 L 212 80 L 277 80 L 277 80 L 294 64 L 294 64 L 209 64 L 209 64 Q 206 64 204 66 L 194 75 L 194 75 Z M 338 66 L 268 133 L 338 66 L 268 133 L 280 143 L 280 143 L 347 80 L 347 80 L 426 80 L 426 80 L 496 139 L 496 139 L 496 118 L 496 118 L 435 66 L 435 66 L 432 64 L 432 64 L 429 64 L 341 64 L 338 66 L 338 66 Z M 363 208 L 375 196 L 363 208 L 375 196 L 381 190 L 381 190 L 370 179 L 370 179 L 364 184 L 364 184 L 350 198 L 350 198 L 363 208 L 363 208 Z M 624 400 L 640 400 L 624 400 L 640 400 L 640 384 L 640 384 L 640 144 L 640 144 L 640 128 L 640 128 L 624 128 L 528 128 L 528 144 L 528 144 L 528 336 L 528 336 L 525 336 L 525 336 L 544 351 L 544 351 L 544 144 L 544 144 L 624 144 L 624 144 L 624 384 L 624 384 L 585 384 L 585 384 L 606 400 L 606 400 L 624 400 L 624 400 Z" />
</svg>