<svg xmlns="http://www.w3.org/2000/svg" viewBox="0 0 512 512">
  <path d="M 256 0 Q 227 0 199 6 L 191 8 L 191 8 L 195 24 L 195 24 L 203 22 L 203 22 Q 228 16 256 16 Q 284 16 309 22 L 317 24 L 317 24 L 321 8 L 321 8 L 313 6 L 313 6 Q 285 0 256 0 L 256 0 Z M 128 53 L 135 49 L 128 53 L 135 49 L 127 35 L 127 35 L 120 39 L 120 39 Q 71 70 39 120 L 35 127 L 35 127 L 49 135 L 49 135 L 53 128 L 53 128 Q 82 82 128 53 L 128 53 Z M 392 39 L 386 35 L 392 39 L 386 35 L 377 49 L 377 49 L 384 53 L 384 53 Q 430 82 459 128 L 464 135 L 464 135 L 477 127 L 477 127 L 473 120 L 473 120 Q 442 71 392 39 L 392 39 Z M 22 203 L 24 195 L 22 203 L 24 195 L 8 191 L 8 191 L 6 199 L 6 199 Q 0 227 0 256 Q 0 285 6 313 L 8 321 L 8 321 L 24 317 L 24 317 L 22 309 L 22 309 Q 16 284 16 256 Q 16 228 22 203 L 22 203 Z M 506 199 L 504 191 L 506 199 L 504 191 L 488 195 L 488 195 L 490 203 L 490 203 Q 496 228 496 256 Q 496 284 490 309 L 488 317 L 488 317 L 504 321 L 504 321 L 506 313 L 506 313 Q 512 285 512 256 Q 512 226 506 199 L 506 199 Z M 53 384 L 49 377 L 53 384 L 49 377 L 35 386 L 35 386 L 39 392 L 39 392 Q 71 442 120 473 L 127 477 L 127 477 L 135 464 L 135 464 L 128 459 L 128 459 Q 82 430 53 384 L 53 384 Z M 473 392 L 477 385 L 473 392 L 477 385 L 464 377 L 464 377 L 459 384 L 459 384 Q 430 430 384 459 L 377 464 L 377 464 L 385 477 L 385 477 L 392 473 L 392 473 Q 442 442 473 392 L 473 392 Z M 203 490 L 195 488 L 203 490 L 195 488 L 191 504 L 191 504 L 199 506 L 199 506 Q 227 512 256 512 Q 286 512 313 506 L 321 504 L 321 504 L 317 488 L 317 488 L 310 490 L 310 490 Q 284 496 256 496 Q 229 496 203 490 L 203 490 Z M 176 224 Q 191 223 192 208 Q 191 193 176 192 Q 162 193 160 208 Q 162 223 176 224 L 176 224 Z M 352 208 Q 351 193 336 192 Q 322 193 320 208 Q 322 223 336 224 Q 351 223 352 208 L 352 208 Z M 184 344 L 176 344 L 184 344 L 176 344 L 176 360 L 176 360 L 184 360 L 336 360 L 336 344 L 336 344 L 328 344 L 184 344 Z" />
</svg>