<svg xmlns="http://www.w3.org/2000/svg" viewBox="0 0 640 512">
  <path d="M 400 16 L 400 400 L 400 16 L 400 400 L 237 400 L 237 400 Q 228 372 206 354 Q 183 337 152 336 Q 121 337 98 354 Q 76 372 67 400 L 16 400 L 16 400 L 16 16 L 16 16 L 400 16 L 400 16 Z M 16 416 L 64 416 L 16 416 L 64 416 Q 64 420 64 424 Q 65 461 90 486 Q 115 511 152 512 Q 189 511 214 486 Q 239 461 240 424 Q 240 420 240 416 L 400 416 L 400 416 L 400 416 L 400 416 Q 400 420 400 424 Q 401 461 426 486 Q 451 511 488 512 Q 525 511 550 486 Q 575 461 576 424 Q 576 420 576 416 L 632 416 L 640 416 L 640 400 L 640 400 L 632 400 L 608 400 L 608 216 L 608 216 L 608 213 L 608 213 L 606 210 L 606 210 L 494 98 L 494 98 L 491 96 L 491 96 L 488 96 L 416 96 L 416 16 L 416 16 L 416 0 L 416 0 L 400 0 L 0 0 L 0 16 L 0 16 L 0 400 L 0 400 L 0 416 L 0 416 L 16 416 L 16 416 Z M 416 112 L 485 112 L 416 112 L 485 112 L 589 216 L 589 216 L 416 216 L 416 216 L 416 112 L 416 112 Z M 416 373 L 416 232 L 416 373 L 416 232 L 592 232 L 592 232 L 592 400 L 592 400 L 573 400 L 573 400 Q 564 372 542 354 Q 519 337 488 336 Q 442 338 416 373 L 416 373 Z M 152 352 Q 193 353 214 388 Q 234 424 214 460 Q 193 495 152 496 Q 111 495 90 460 Q 70 424 90 388 Q 111 353 152 352 L 152 352 Z M 416 424 Q 417 383 452 362 Q 488 342 524 362 Q 559 383 560 424 Q 559 465 524 486 Q 488 506 452 486 Q 417 465 416 424 L 416 424 Z M 272 211 Q 271 237 253 254 L 253 254 L 253 254 Q 236 271 208 272 Q 180 271 163 254 Q 145 237 144 211 Q 144 201 155 177 Q 166 154 181 130 Q 196 107 208 91 Q 219 107 234 130 Q 250 154 261 177 Q 272 201 272 211 L 272 211 Z M 128 211 Q 129 244 151 265 L 151 265 L 151 265 Q 174 287 208 288 Q 242 287 265 265 Q 287 244 288 211 Q 287 194 275 168 Q 262 143 246 118 Q 229 93 218 77 Q 208 64 208 64 Q 208 64 198 77 Q 187 93 170 118 Q 154 143 141 168 Q 129 194 128 211 L 128 211 Z" />
</svg>