<svg xmlns="http://www.w3.org/2000/svg" viewBox="0 0 576 512">
  <path d="M 128 0 L 128 8 L 128 0 L 128 8 L 128 64 L 128 64 L 320 64 L 320 64 L 320 8 L 320 8 L 320 0 L 320 0 L 336 0 L 336 0 L 336 8 L 336 8 L 336 64 L 336 64 L 432 64 L 448 64 L 448 80 L 448 80 L 448 176 L 448 176 L 448 192 L 448 192 L 448 193 L 448 193 Q 440 192 432 192 L 16 192 L 16 192 L 16 496 L 16 496 L 311 496 L 311 496 Q 320 505 331 512 L 16 512 L 0 512 L 0 496 L 0 496 L 0 192 L 0 192 L 0 176 L 0 176 L 0 80 L 0 80 L 0 64 L 0 64 L 16 64 L 112 64 L 112 8 L 112 8 L 112 0 L 112 0 L 128 0 L 128 0 Z M 112 120 L 112 80 L 112 120 L 112 80 L 16 80 L 16 80 L 16 176 L 16 176 L 432 176 L 432 176 L 432 80 L 432 80 L 336 80 L 336 80 L 336 120 L 336 120 L 336 128 L 336 128 L 320 128 L 320 128 L 320 120 L 320 120 L 320 80 L 320 80 L 128 80 L 128 80 L 128 120 L 128 120 L 128 128 L 128 128 L 112 128 L 112 128 L 112 120 L 112 120 Z M 432 496 Q 467 496 496 479 L 496 479 L 496 479 Q 525 462 543 432 Q 560 402 560 368 Q 560 334 543 304 Q 525 274 496 257 Q 467 240 432 240 Q 397 240 368 257 Q 339 274 321 304 Q 304 334 304 368 Q 304 402 321 432 Q 339 462 368 479 Q 397 496 432 496 L 432 496 Z M 432 224 Q 471 224 504 243 L 504 243 L 504 243 Q 537 262 557 296 Q 576 330 576 368 Q 576 406 557 440 Q 537 474 504 493 Q 471 512 432 512 Q 393 512 360 493 Q 327 474 307 440 Q 288 406 288 368 Q 288 330 307 296 Q 327 262 360 243 Q 393 224 432 224 L 432 224 Z M 440 288 L 440 296 L 440 288 L 440 296 L 440 360 L 440 360 L 488 360 L 496 360 L 496 376 L 496 376 L 488 376 L 424 376 L 424 368 L 424 368 L 424 296 L 424 296 L 424 288 L 424 288 L 440 288 L 440 288 Z" />
</svg>