<svg xmlns="http://www.w3.org/2000/svg" viewBox="0 0 508 512">
  <path d="M 151 96 L 357 96 L 151 96 L 367 96 L 371 106 L 371 106 Q 388 142 430 144 Q 467 142 485 112 L 430 112 L 414 112 L 414 96 L 414 96 L 414 64 L 414 64 L 414 48 L 414 48 L 430 48 L 485 48 Q 467 18 430 16 Q 388 18 371 54 L 367 64 L 367 64 L 357 64 L 141 64 L 137 54 L 137 54 Q 120 18 78 16 Q 41 18 23 48 L 78 48 L 94 48 L 94 64 L 94 64 L 94 96 L 94 96 L 94 112 L 94 112 L 78 112 L 23 112 Q 41 142 78 144 Q 120 142 137 106 L 141 96 L 141 96 L 151 96 L 151 96 Z M 0 96 L 16 96 L 0 96 L 78 96 L 78 80 L 78 80 L 78 64 L 78 64 L 62 64 L 0 64 Q 1 56 5 48 Q 14 26 34 13 Q 53 0 78 0 Q 103 0 122 13 Q 142 26 151 48 L 357 48 L 357 48 Q 366 26 386 13 Q 405 0 430 0 Q 455 0 474 13 Q 494 26 503 48 Q 507 56 508 64 L 492 64 L 430 64 L 430 80 L 430 80 L 430 96 L 430 96 L 446 96 L 508 96 Q 507 104 503 112 Q 494 134 474 147 Q 455 160 430 160 Q 405 160 386 147 Q 366 134 357 112 L 151 112 L 151 112 Q 142 134 122 147 Q 103 160 78 160 Q 53 160 34 147 Q 14 134 5 112 Q 1 104 0 96 L 0 96 Z M 144 176 L 150 176 L 144 176 L 364 176 L 366 182 L 366 182 L 396 288 L 396 288 L 430 288 L 446 288 L 446 304 L 446 304 L 446 432 L 446 432 L 446 448 L 446 448 L 446 496 L 446 496 L 446 512 L 446 512 L 430 512 L 366 512 L 366 496 L 366 496 L 366 448 L 366 448 L 142 448 L 142 448 L 142 496 L 142 496 L 142 512 L 142 512 L 126 512 L 62 512 L 62 496 L 62 496 L 62 448 L 62 448 L 62 432 L 62 432 L 62 304 L 62 304 L 62 288 L 62 288 L 78 288 L 112 288 L 142 182 L 142 182 L 144 176 L 144 176 Z M 78 304 L 78 432 L 78 304 L 78 432 L 126 432 L 430 432 L 430 304 L 430 304 L 78 304 L 78 304 Z M 382 496 L 430 496 L 382 496 L 430 496 L 430 448 L 430 448 L 382 448 L 382 448 L 382 496 L 382 496 Z M 126 448 L 78 448 L 126 448 L 78 448 L 78 496 L 78 496 L 126 496 L 126 496 L 126 448 L 126 448 Z M 352 192 L 156 192 L 352 192 L 156 192 L 129 288 L 129 288 L 379 288 L 379 288 L 352 192 L 352 192 Z M 126 368 Q 127 383 142 384 Q 157 383 158 368 Q 157 353 142 352 Q 127 353 126 368 L 126 368 Z M 142 400 Q 128 400 119 391 L 119 391 L 119 391 Q 110 382 110 368 Q 110 354 119 345 Q 128 336 142 336 Q 156 336 165 345 Q 174 354 174 368 Q 174 382 165 391 Q 156 400 142 400 L 142 400 Z M 366 352 Q 351 353 350 368 Q 351 383 366 384 Q 381 383 382 368 Q 381 353 366 352 L 366 352 Z M 398 368 Q 398 382 389 391 L 389 391 L 389 391 Q 380 400 366 400 Q 352 400 343 391 Q 334 382 334 368 Q 334 354 343 345 Q 352 336 366 336 Q 380 336 389 345 Q 398 354 398 368 L 398 368 Z" />
</svg>