<svg xmlns="http://www.w3.org/2000/svg" viewBox="0 0 576 512">
  <path d="M 0 0 L 0 128 L 0 0 L 0 128 L 0 416 L 0 416 L 0 424 L 0 424 L 8 424 L 256 424 L 256 408 L 256 408 L 16 408 L 16 408 L 16 136 L 16 136 L 256 136 L 256 136 L 256 120 L 256 120 L 16 120 L 16 120 L 16 0 L 16 0 L 0 0 L 0 0 Z M 433 48 L 440 48 L 433 48 L 560 48 L 560 208 L 560 208 L 304 208 L 304 208 L 304 16 L 304 16 L 401 16 L 401 16 L 429 43 L 429 43 L 433 48 L 433 48 Z M 560 32 L 440 32 L 560 32 L 440 32 L 408 0 L 408 0 L 304 0 L 288 0 L 288 16 L 288 16 L 288 208 L 288 208 L 288 224 L 288 224 L 304 224 L 576 224 L 576 208 L 576 208 L 576 48 L 576 48 L 576 32 L 576 32 L 560 32 L 560 32 Z M 433 336 L 440 336 L 433 336 L 560 336 L 560 496 L 560 496 L 304 496 L 304 496 L 304 304 L 304 304 L 401 304 L 401 304 L 429 331 L 429 331 L 433 336 L 433 336 Z M 560 320 L 440 320 L 560 320 L 440 320 L 408 288 L 408 288 L 304 288 L 288 288 L 288 304 L 288 304 L 288 496 L 288 496 L 288 512 L 288 512 L 304 512 L 576 512 L 576 496 L 576 496 L 576 336 L 576 336 L 576 320 L 576 320 L 560 320 L 560 320 Z" />
</svg>