<svg xmlns="http://www.w3.org/2000/svg" viewBox="0 0 448 512">
  <path d="M 232 8 L 232 0 L 232 8 L 232 0 L 216 0 L 216 0 L 216 8 L 216 8 L 216 64 L 216 64 L 80 64 L 64 64 L 64 80 L 64 80 L 64 304 L 64 304 L 64 320 L 64 320 L 80 320 L 384 320 L 384 304 L 384 304 L 384 80 L 384 80 L 384 64 L 384 64 L 368 64 L 232 64 L 232 8 L 232 8 Z M 80 80 L 368 80 L 80 80 L 368 80 L 368 304 L 368 304 L 80 304 L 80 304 L 80 80 L 80 80 Z M 32 128 L 16 128 L 32 128 L 16 128 L 16 256 L 16 256 L 32 256 L 32 256 L 32 128 L 32 128 Z M 432 128 L 416 128 L 432 128 L 416 128 L 416 256 L 416 256 L 432 256 L 432 256 L 432 128 L 432 128 Z M 160 184 Q 138 182 136 160 Q 138 138 160 136 Q 182 138 184 160 Q 182 182 160 184 L 160 184 Z M 120 160 Q 121 183 140 195 Q 160 205 180 195 Q 199 183 200 160 Q 199 137 180 125 Q 160 115 140 125 Q 121 137 120 160 L 120 160 Z M 312 160 Q 310 182 288 184 Q 266 182 264 160 Q 266 138 288 136 Q 310 138 312 160 L 312 160 Z M 288 120 Q 265 121 253 140 Q 243 160 253 180 Q 265 199 288 200 Q 311 199 323 180 Q 333 160 323 140 Q 311 121 288 120 L 288 120 Z M 232 232 L 216 232 L 232 232 L 216 232 L 216 280 L 216 280 L 232 280 L 232 280 L 232 232 L 232 232 Z M 22 496 L 60 368 L 22 496 L 60 368 L 388 368 L 388 368 L 427 496 L 427 496 L 368 496 L 368 496 L 368 432 L 368 432 L 368 416 L 368 416 L 352 416 L 80 416 L 80 432 L 80 432 L 80 496 L 80 496 L 22 496 L 22 496 Z M 431 512 L 448 512 L 431 512 L 448 512 L 443 496 L 443 496 L 400 352 L 400 352 L 48 352 L 48 352 L 5 496 L 5 496 L 0 512 L 0 512 L 17 512 L 431 512 Z M 352 432 L 352 496 L 352 432 L 352 496 L 296 496 L 296 496 L 296 432 L 296 432 L 352 432 L 352 432 Z M 280 432 L 280 496 L 280 432 L 280 496 L 232 496 L 232 496 L 232 432 L 232 432 L 280 432 L 280 432 Z M 216 432 L 216 496 L 216 432 L 216 496 L 168 496 L 168 496 L 168 432 L 168 432 L 216 432 L 216 432 Z M 152 432 L 152 496 L 152 432 L 152 496 L 96 496 L 96 496 L 96 432 L 96 432 L 152 432 L 152 432 Z M 152 232 L 152 280 L 152 232 L 152 280 L 168 280 L 168 280 L 168 232 L 168 232 L 152 232 L 152 232 Z M 280 232 L 280 280 L 280 232 L 280 280 L 296 280 L 296 280 L 296 232 L 296 232 L 280 232 L 280 232 Z" />
</svg>