<svg xmlns="http://www.w3.org/2000/svg" viewBox="0 0 544 512">
  <path d="M 106 365 L 99 371 L 106 365 L 99 371 L 23 448 L 23 448 L 64 489 L 64 489 L 141 413 L 141 413 L 147 406 L 147 406 L 157 409 L 157 409 L 266 441 L 266 441 Q 270 451 275 460 L 152 424 L 152 424 L 75 501 L 75 501 L 64 512 L 64 512 L 53 501 L 53 501 L 11 459 L 11 459 L 0 448 L 0 448 L 11 437 L 11 437 L 88 360 L 88 360 L 48 224 L 48 224 L 261 11 L 261 11 L 272 0 L 272 0 L 283 11 L 283 11 L 501 229 L 501 229 L 512 240 L 512 240 L 503 250 L 503 250 Q 496 245 488 241 L 489 240 L 489 240 L 272 23 L 272 23 L 66 229 L 66 229 L 103 356 L 103 356 L 106 365 L 106 365 Z M 264 333 Q 261 341 260 350 L 123 214 L 123 214 L 117 208 L 117 208 L 128 197 L 128 197 L 134 203 L 134 203 L 264 333 L 264 333 Z M 416 496 Q 446 496 472 481 L 472 481 L 472 481 Q 497 466 513 440 Q 528 414 528 384 Q 528 355 513 328 Q 497 302 472 287 Q 446 272 416 272 Q 385 272 360 287 Q 334 302 319 328 Q 304 355 304 384 Q 304 414 319 440 Q 334 466 360 481 Q 385 496 416 496 L 416 496 Z M 416 256 Q 451 256 480 273 L 480 273 L 480 273 Q 509 290 527 320 Q 544 350 544 384 Q 544 418 527 448 Q 509 478 480 495 Q 451 512 416 512 Q 381 512 352 495 Q 323 478 305 448 Q 288 418 288 384 Q 288 350 305 320 Q 323 290 352 273 Q 381 256 416 256 L 416 256 Z M 352 384 Q 337 383 336 368 Q 337 353 352 352 Q 367 353 368 368 Q 367 383 352 384 L 352 384 Z M 416 448 Q 415 463 400 464 Q 385 463 384 448 Q 385 433 400 432 Q 415 433 416 448 L 416 448 Z M 416 400 Q 401 399 400 384 Q 401 369 416 368 Q 431 369 432 384 Q 431 399 416 400 L 416 400 Z M 496 400 Q 495 415 480 416 Q 465 415 464 400 Q 465 385 480 384 Q 495 385 496 400 L 496 400 Z M 432 336 Q 417 335 416 320 Q 417 305 432 304 Q 447 305 448 320 Q 447 335 432 336 L 432 336 Z" />
</svg>