<svg xmlns="http://www.w3.org/2000/svg" viewBox="0 0 576 448">
  <path d="M 112 16 L 112 376 L 112 16 L 112 376 L 464 376 L 464 376 L 464 16 L 464 16 L 112 16 L 112 16 Z M 480 16 L 480 376 L 480 16 L 480 376 L 512 376 L 520 376 L 520 392 L 520 392 L 512 392 L 56 392 L 56 376 L 56 376 L 64 376 L 96 376 L 96 16 L 96 16 L 96 0 L 96 0 L 112 0 L 480 0 L 480 16 L 480 16 Z M 16 320 L 64 320 L 16 320 L 64 320 L 64 336 L 64 336 L 16 336 L 16 336 L 16 432 L 16 432 L 560 432 L 560 432 L 560 336 L 560 336 L 512 336 L 512 336 L 512 320 L 512 320 L 560 320 L 576 320 L 576 336 L 576 336 L 576 432 L 576 432 L 576 448 L 576 448 L 560 448 L 0 448 L 0 432 L 0 432 L 0 336 L 0 336 L 0 320 L 0 320 L 16 320 L 16 320 Z M 218 111 L 224 116 L 218 111 L 224 116 L 288 181 L 288 181 L 353 116 L 353 116 L 358 110 L 358 110 L 370 122 L 370 122 L 364 127 L 364 127 L 299 192 L 299 192 L 364 257 L 364 257 L 370 262 L 370 262 L 358 274 L 358 274 L 353 268 L 353 268 L 288 203 L 288 203 L 223 268 L 223 268 L 218 274 L 218 274 L 206 262 L 206 262 L 212 257 L 212 257 L 277 192 L 277 192 L 212 127 L 212 127 L 206 122 L 206 122 L 218 110 L 218 111 Z" />
</svg>