<svg xmlns="http://www.w3.org/2000/svg" viewBox="0 0 571 502">
  <path d="M 352 21 L 307 51 L 352 21 L 307 51 Q 320 90 320 134 Q 320 195 295 248 L 283 236 L 283 236 Q 304 189 304 134 Q 304 87 288 45 L 353 0 L 353 0 Q 397 40 422 95 Q 448 150 448 214 Q 448 241 443 266 L 426 272 L 426 272 Q 432 244 432 214 Q 432 157 410 108 Q 389 58 352 21 L 352 21 Z M 259 279 L 242 263 L 259 279 L 242 263 L 147 301 L 147 301 L 140 304 L 140 304 L 134 290 L 134 290 L 141 287 L 141 287 L 241 247 L 241 247 L 246 245 L 246 245 L 250 248 L 250 248 L 338 333 L 338 333 L 486 286 L 486 286 L 491 285 L 491 285 L 495 289 L 495 289 L 567 385 L 567 385 L 571 392 L 571 392 L 559 401 L 559 401 L 554 395 L 554 395 L 485 303 L 485 303 L 427 322 L 427 322 Q 394 402 323 451 Q 252 501 160 502 L 16 502 L 0 502 L 0 486 L 0 486 L 0 406 L 0 406 L 0 390 L 0 390 L 16 390 L 48 390 Q 114 389 169 360 Q 224 330 259 279 L 259 279 Z M 407 328 L 338 350 L 407 328 L 338 350 L 334 351 L 334 351 L 331 348 L 331 348 L 271 291 L 271 291 Q 233 344 175 374 Q 118 405 48 406 L 16 406 L 16 406 L 16 486 L 16 486 L 160 486 L 160 486 Q 243 485 308 442 Q 374 399 407 328 L 407 328 Z" />
</svg>