<svg xmlns="http://www.w3.org/2000/svg" viewBox="0 0 640 523">
  <path d="M 496 91 Q 497 55 528 36 Q 560 18 592 36 Q 623 55 624 91 Q 623 127 592 146 Q 560 164 528 146 Q 497 127 496 91 L 496 91 Z M 640 91 Q 639 46 600 22 Q 560 0 520 22 Q 481 46 480 91 Q 481 136 520 160 Q 560 182 600 160 Q 639 136 640 91 L 640 91 Z M 16 456 L 256 103 L 16 456 L 256 103 L 496 456 L 496 456 L 496 507 L 496 507 L 496 507 L 496 507 L 16 507 L 16 507 L 16 456 L 16 456 Z M 16 523 L 457 523 L 16 523 L 640 523 L 640 507 L 640 507 L 640 445 L 640 445 L 490 218 L 490 218 L 480 203 L 480 203 L 470 218 L 470 218 L 413 305 L 413 305 L 266 89 L 266 89 L 256 75 L 256 75 L 246 89 L 246 89 L 0 451 L 0 451 L 0 507 L 0 507 L 0 523 L 0 523 L 16 523 L 16 523 Z M 624 507 L 512 507 L 624 507 L 512 507 L 512 451 L 512 451 L 422 319 L 422 319 L 480 232 L 480 232 L 624 450 L 624 450 L 624 507 L 624 507 Z" />
</svg>