<svg xmlns="http://www.w3.org/2000/svg" viewBox="0 0 640 512">
  <path d="M 480 496 L 144 496 L 480 496 L 144 496 L 144 336 L 144 336 L 305 336 L 305 336 L 285 320 L 285 320 L 144 320 L 128 320 L 128 336 L 128 336 L 128 400 L 128 400 L 80 400 L 80 400 L 80 208 L 80 208 L 143 208 L 143 208 L 123 192 L 123 192 L 80 192 L 64 192 L 64 208 L 64 208 L 64 400 L 64 400 L 64 416 L 64 416 L 80 416 L 128 416 L 128 496 L 128 496 L 128 512 L 128 512 L 144 512 L 512 512 L 512 499 L 512 499 L 508 496 L 508 496 L 496 496 L 480 496 Z M 144 16 L 160 16 L 144 16 L 441 16 L 496 71 L 496 71 L 496 160 L 496 160 L 512 160 L 512 160 L 512 64 L 512 64 L 448 0 L 448 0 L 144 0 L 128 0 L 128 13 L 128 13 L 132 16 L 132 16 L 144 16 L 144 16 Z M 560 192 L 355 192 L 560 192 L 355 192 L 375 208 L 375 208 L 560 208 L 560 208 L 560 354 L 560 354 L 576 366 L 576 366 L 576 208 L 576 208 L 576 192 L 576 192 L 560 192 L 560 192 Z M 512 288 L 512 256 L 512 288 L 512 256 L 480 256 L 480 256 L 480 288 L 480 288 L 512 288 L 512 288 Z M 16 5 L 10 0 L 16 5 L 10 0 L 0 13 L 0 13 L 6 18 L 6 18 L 624 507 L 624 507 L 630 512 L 630 512 L 640 500 L 640 500 L 634 495 L 634 495 L 16 5 L 16 5 Z" />
</svg>