<svg xmlns="http://www.w3.org/2000/svg" viewBox="0 0 512 512">
  <path d="M 230 491 Q 232 492 233 493 L 233 493 L 233 493 Q 234 494 235 495 Q 233 495 232 495 Q 231 495 230 495 L 225 510 L 225 510 Q 240 512 256 512 Q 328 511 385 477 Q 443 443 477 385 Q 511 328 512 256 Q 511 184 477 127 Q 443 69 385 35 Q 328 1 256 0 Q 184 1 127 35 Q 69 69 35 127 Q 1 184 0 256 Q 0 272 2 287 L 18 283 L 18 283 Q 16 269 16 256 Q 16 214 30 176 L 138 176 L 138 176 Q 129 210 128 251 L 144 246 L 144 246 Q 145 208 154 176 L 358 176 L 358 176 Q 368 212 368 256 Q 368 300 358 336 L 275 336 L 275 336 L 270 352 L 270 352 L 353 352 L 353 352 Q 334 406 307 439 Q 284 470 266 484 Q 260 489 256 492 Q 252 489 247 484 Q 241 480 235 474 L 231 491 L 231 491 L 230 491 L 230 491 Z M 353 160 L 159 160 L 353 160 L 159 160 Q 178 106 205 73 Q 229 42 247 28 Q 252 23 256 20 Q 260 23 266 28 Q 283 43 307 73 Q 334 106 353 160 L 353 160 Z M 384 256 Q 384 212 374 176 L 482 176 L 482 176 Q 496 214 496 256 Q 496 298 482 336 L 374 336 L 374 336 Q 384 300 384 256 L 384 256 Z M 370 160 Q 352 106 325 70 L 325 70 L 325 70 Q 298 34 278 17 Q 345 24 397 62 Q 449 100 476 160 L 370 160 L 370 160 Z M 36 160 Q 63 100 115 62 L 115 62 L 115 62 Q 167 24 235 17 Q 214 34 187 70 Q 160 106 142 160 L 36 160 L 36 160 Z M 370 352 L 476 352 L 370 352 L 476 352 Q 449 412 397 450 Q 345 488 278 495 Q 298 478 325 442 Q 352 406 370 352 L 370 352 Z M 264 258 L 268 244 L 264 258 L 268 244 L 254 248 L 254 248 L 30 312 L 30 312 L 4 320 L 4 320 L 30 328 L 30 328 L 138 363 L 138 363 L 2 498 L 2 498 L 14 510 L 14 510 L 150 374 L 150 374 L 184 482 L 184 482 L 193 508 L 193 508 L 200 482 L 200 482 L 264 258 L 264 258 Z M 60 320 L 244 268 L 60 320 L 244 268 L 192 452 L 192 452 L 161 356 L 161 356 L 160 353 L 160 353 L 156 351 L 156 351 L 60 321 L 60 320 Z" />
</svg>