<svg xmlns="http://www.w3.org/2000/svg" viewBox="0 0 512 512">
  <path d="M 200 0 L 208 0 L 200 0 L 312 0 L 312 8 L 312 8 L 312 40 L 312 40 L 400 40 L 408 40 L 408 48 L 408 48 L 408 272 L 408 272 L 504 272 L 512 272 L 512 280 L 512 280 L 512 336 L 512 336 L 512 339 L 512 339 L 510 342 L 510 342 L 398 453 L 398 453 Q 339 511 256 512 Q 173 511 114 453 L 2 342 L 2 342 L 0 339 L 0 339 L 0 336 L 0 336 L 0 280 L 0 280 L 0 272 L 0 272 L 8 272 L 104 272 L 104 48 L 104 48 L 104 40 L 104 40 L 112 40 L 200 40 L 200 8 L 200 8 L 200 0 L 200 0 Z M 312 208 L 312 216 L 312 208 L 312 216 L 312 224 L 312 224 L 296 224 L 296 224 L 296 216 L 296 216 L 296 208 L 296 208 L 296 48 L 296 48 L 296 40 L 296 40 L 296 16 L 296 16 L 216 16 L 216 16 L 216 40 L 216 40 L 216 48 L 216 48 L 216 208 L 216 208 L 216 216 L 216 216 L 216 224 L 216 224 L 200 224 L 200 224 L 200 216 L 200 216 L 200 208 L 200 208 L 200 56 L 200 56 L 120 56 L 120 56 L 120 280 L 120 280 L 120 288 L 120 288 L 112 288 L 16 288 L 16 333 L 16 333 L 125 442 L 125 442 Q 180 495 256 496 Q 332 495 387 442 L 496 333 L 496 333 L 496 288 L 496 288 L 400 288 L 392 288 L 392 280 L 392 280 L 392 56 L 392 56 L 312 56 L 312 56 L 312 208 L 312 208 Z M 174 357 Q 182 366 195 378 Q 209 390 224 399 Q 240 408 256 408 Q 272 408 288 399 Q 303 390 317 378 Q 330 366 338 357 Q 339 355 341 353 Q 341 353 342 352 Q 340 350 338 347 Q 330 338 317 326 Q 303 314 288 305 Q 272 296 256 296 Q 240 296 224 305 Q 209 314 195 326 Q 182 338 174 347 Q 173 349 171 351 Q 171 351 170 352 Q 172 354 174 357 L 174 357 Z M 358 347 L 352 352 L 358 347 L 352 352 Q 360 358 358 357 Q 358 357 358 357 Q 358 357 358 357 Q 358 357 358 357 Q 358 357 358 357 Q 358 357 358 357 Q 358 357 358 357 L 358 357 L 358 357 L 358 358 L 358 358 Q 358 358 357 358 Q 357 359 356 360 Q 356 360 355 361 Q 353 364 350 367 Q 342 377 327 390 Q 313 403 295 413 Q 277 423 256 424 Q 235 423 217 413 Q 199 403 185 390 Q 171 377 162 367 Q 159 364 157 361 Q 156 360 156 360 Q 155 359 155 358 Q 154 358 154 358 L 154 357 L 154 357 L 154 357 L 154 357 Q 154 357 154 357 Q 154 357 154 357 Q 154 357 154 357 Q 154 357 154 357 Q 154 357 154 357 Q 154 357 154 357 L 160 352 L 160 352 Q 152 346 154 347 Q 154 347 154 347 Q 154 347 154 347 Q 154 347 154 347 Q 154 347 154 347 Q 154 347 154 347 Q 154 347 154 347 L 154 347 L 154 347 L 154 346 L 154 346 Q 154 346 155 346 Q 155 345 156 344 Q 156 344 157 343 Q 159 340 162 337 Q 170 327 185 314 Q 199 301 217 291 Q 235 281 256 280 Q 277 281 295 291 Q 313 301 327 314 Q 341 327 350 337 Q 353 340 355 343 Q 356 344 356 344 Q 357 345 357 346 Q 358 346 358 346 L 358 347 L 358 347 L 358 347 L 358 347 Q 358 347 358 347 Q 358 347 358 347 Q 358 347 358 347 Q 358 347 358 347 Q 358 347 358 347 Q 358 347 358 347 L 358 347 Z M 352 352 L 358 357 L 352 352 L 358 357 L 362 352 L 362 352 L 358 347 L 358 347 L 352 352 L 352 352 Z M 154 347 L 160 352 L 154 347 L 160 352 L 154 357 L 154 357 L 150 352 L 150 352 L 154 347 L 154 347 Z M 272 352 Q 271 337 256 336 Q 241 337 240 352 Q 241 367 256 368 Q 271 367 272 352 L 272 352 Z M 224 352 Q 224 338 233 329 L 233 329 L 233 329 Q 242 320 256 320 Q 270 320 279 329 Q 288 338 288 352 Q 288 366 279 375 Q 270 384 256 384 Q 242 384 233 375 Q 224 366 224 352 L 224 352 Z" />
</svg>