<svg xmlns="http://www.w3.org/2000/svg" viewBox="0 0 512 512">
  <path d="M 16 16 L 16 496 L 16 16 L 16 496 L 496 496 L 496 496 L 496 471 L 496 471 L 434 409 L 434 409 L 414 430 L 414 430 L 408 435 L 408 435 L 397 424 L 397 424 L 402 418 L 402 418 L 423 398 L 423 398 L 354 329 L 354 329 L 334 350 L 334 350 L 328 355 L 328 355 L 317 344 L 317 344 L 322 338 L 322 338 L 343 318 L 343 318 L 274 249 L 274 249 L 254 270 L 254 270 L 248 275 L 248 275 L 237 264 L 237 264 L 242 258 L 242 258 L 263 238 L 263 238 L 194 169 L 194 169 L 174 190 L 174 190 L 168 195 L 168 195 L 157 184 L 157 184 L 162 178 L 162 178 L 183 158 L 183 158 L 114 89 L 114 89 L 94 110 L 94 110 L 88 115 L 88 115 L 77 104 L 77 104 L 82 98 L 82 98 L 103 78 L 103 78 L 41 16 L 41 16 L 16 16 L 16 16 Z M 206 158 L 274 226 L 206 158 L 274 226 L 286 238 L 286 238 L 354 306 L 354 306 L 366 318 L 366 318 L 434 386 L 434 386 L 446 398 L 446 398 L 512 464 L 512 464 L 512 496 L 512 496 L 512 512 L 512 512 L 496 512 L 0 512 L 0 496 L 0 496 L 0 16 L 0 16 L 0 0 L 0 0 L 16 0 L 48 0 L 114 66 L 114 66 L 126 78 L 126 78 L 194 146 L 194 146 L 206 158 L 206 158 Z M 120 237 L 134 250 L 120 237 L 134 250 L 262 378 L 262 378 L 275 392 L 275 392 L 256 392 L 120 392 L 120 384 L 120 384 L 120 256 L 120 256 L 120 237 L 120 237 Z M 136 275 L 136 376 L 136 275 L 136 376 L 237 376 L 237 376 L 136 275 L 136 275 Z" />
</svg>