<svg xmlns="http://www.w3.org/2000/svg" viewBox="0 0 440 506">
  <path d="M 307 0 L 325 16 L 307 0 L 325 16 L 421 104 L 421 104 L 440 122 L 440 122 L 421 140 L 421 140 L 325 228 L 325 228 L 307 244 L 307 244 L 275 209 L 275 209 L 293 192 L 293 192 L 343 146 L 343 146 L 48 146 L 48 146 L 48 258 L 48 258 L 48 282 L 48 282 L 0 282 L 0 282 L 0 258 L 0 258 L 0 122 L 0 122 L 0 98 L 0 98 L 24 98 L 343 98 L 293 52 L 293 52 L 275 36 L 275 36 L 307 0 L 307 0 Z M 230 256 L 248 272 L 230 256 L 248 272 L 344 360 L 344 360 L 364 378 L 364 378 L 344 396 L 344 396 L 248 484 L 248 484 L 231 500 L 231 500 L 198 465 L 198 465 L 216 448 L 216 448 L 266 402 L 266 402 L 48 402 L 48 402 L 48 482 L 48 482 L 48 506 L 48 506 L 0 506 L 0 506 L 0 482 L 0 482 L 0 378 L 0 378 L 0 354 L 0 354 L 24 354 L 266 354 L 216 308 L 216 308 L 198 292 L 198 292 L 231 256 L 230 256 Z" />
</svg>