<svg xmlns="http://www.w3.org/2000/svg" viewBox="0 0 640 512">
  <path d="M 80 8 L 80 0 L 80 8 L 80 0 L 64 0 L 64 0 L 64 8 L 64 8 L 64 64 L 64 64 L 8 64 L 0 64 L 0 72 L 0 72 L 0 504 L 0 504 L 0 512 L 0 512 L 8 512 L 224 512 L 224 496 L 224 496 L 16 496 L 16 496 L 16 80 L 16 80 L 64 80 L 224 80 L 224 64 L 224 64 L 176 64 L 176 64 L 176 8 L 176 8 L 176 0 L 176 0 L 160 0 L 160 0 L 160 8 L 160 8 L 160 64 L 160 64 L 80 64 L 80 64 L 80 8 L 80 8 Z M 496 160 L 480 160 L 496 160 L 480 160 L 480 144 L 480 144 L 480 16 L 480 16 L 480 0 L 480 0 L 464 0 L 256 0 L 256 16 L 256 16 L 256 160 L 256 160 L 256 496 L 256 496 L 256 512 L 256 512 L 272 512 L 640 512 L 640 496 L 640 496 L 640 176 L 640 176 L 640 160 L 640 160 L 624 160 L 496 160 Z M 464 16 L 464 160 L 464 16 L 464 160 L 464 176 L 464 176 L 480 176 L 624 176 L 624 496 L 624 496 L 480 496 L 272 496 L 272 160 L 272 160 L 272 16 L 272 16 L 464 16 L 464 16 Z M 328 408 L 336 408 L 328 408 L 408 408 L 408 400 L 408 400 L 408 336 L 408 336 L 408 328 L 408 328 L 400 328 L 328 328 L 328 336 L 328 336 L 328 400 L 328 400 L 328 408 L 328 408 Z M 344 392 L 344 344 L 344 392 L 344 344 L 392 344 L 392 344 L 392 392 L 392 392 L 344 392 L 344 392 Z M 336 72 L 328 72 L 336 72 L 328 72 L 328 80 L 328 80 L 328 144 L 328 144 L 328 152 L 328 152 L 336 152 L 408 152 L 408 144 L 408 144 L 408 80 L 408 80 L 408 72 L 408 72 L 400 72 L 336 72 Z M 344 136 L 344 88 L 344 136 L 344 88 L 392 88 L 392 88 L 392 136 L 392 136 L 344 136 L 344 136 Z M 328 280 L 336 280 L 328 280 L 408 280 L 408 272 L 408 272 L 408 208 L 408 208 L 408 200 L 408 200 L 400 200 L 328 200 L 328 208 L 328 208 L 328 272 L 328 272 L 328 280 L 328 280 Z M 344 264 L 344 216 L 344 264 L 344 216 L 392 216 L 392 216 L 392 264 L 392 264 L 344 264 L 344 264 Z M 496 440 L 560 440 L 496 440 L 568 440 L 568 432 L 568 432 L 568 368 L 568 368 L 568 360 L 568 360 L 560 360 L 488 360 L 488 368 L 488 368 L 488 432 L 488 432 L 488 440 L 488 440 L 496 440 L 496 440 Z M 552 376 L 552 424 L 552 376 L 552 424 L 504 424 L 504 424 L 504 376 L 504 376 L 552 376 L 552 376 Z M 488 312 L 496 312 L 488 312 L 568 312 L 568 304 L 568 304 L 568 240 L 568 240 L 568 232 L 568 232 L 560 232 L 488 232 L 488 240 L 488 240 L 488 304 L 488 304 L 488 312 L 488 312 Z M 504 296 L 504 248 L 504 296 L 504 248 L 552 248 L 552 248 L 552 296 L 552 296 L 504 296 L 504 296 Z M 80 344 L 144 344 L 80 344 L 152 344 L 152 336 L 152 336 L 152 272 L 152 272 L 152 264 L 152 264 L 144 264 L 72 264 L 72 272 L 72 272 L 72 336 L 72 336 L 72 344 L 72 344 L 80 344 L 80 344 Z M 88 280 L 136 280 L 88 280 L 136 280 L 136 328 L 136 328 L 88 328 L 88 328 L 88 280 L 88 280 Z M 72 216 L 80 216 L 72 216 L 152 216 L 152 208 L 152 208 L 152 144 L 152 144 L 152 136 L 152 136 L 144 136 L 72 136 L 72 144 L 72 144 L 72 208 L 72 208 L 72 216 L 72 216 Z M 88 200 L 88 152 L 88 200 L 88 152 L 136 152 L 136 152 L 136 200 L 136 200 L 88 200 L 88 200 Z" />
</svg>