<svg xmlns="http://www.w3.org/2000/svg" viewBox="0 0 634 512">
  <path d="M 224 48 Q 269 49 293 88 Q 315 128 293 168 Q 269 207 224 208 Q 179 207 155 168 Q 133 128 155 88 Q 179 49 224 48 L 224 48 Z M 224 256 Q 259 256 288 239 L 288 239 L 288 239 Q 317 222 335 192 Q 352 162 352 128 Q 352 94 335 64 Q 317 34 288 17 Q 259 0 224 0 Q 189 0 160 17 Q 131 34 113 64 Q 96 94 96 128 Q 96 162 113 192 Q 131 222 160 239 Q 189 256 224 256 L 224 256 Z M 100 352 L 349 352 L 100 352 L 349 352 L 383 464 L 383 464 L 65 464 L 65 464 L 100 352 L 100 352 Z M 384 304 L 64 304 L 384 304 L 64 304 L 15 464 L 15 464 L 0 512 L 0 512 L 50 512 L 448 512 L 433 464 L 433 464 L 384 304 L 384 304 Z M 617 177 L 634 160 L 617 177 L 634 160 L 600 126 L 600 126 L 583 143 L 583 143 L 472 254 L 472 254 L 425 207 L 425 207 L 408 190 L 408 190 L 374 224 L 374 224 L 391 241 L 391 241 L 455 305 L 455 305 L 472 322 L 472 322 L 489 305 L 489 305 L 617 177 L 617 177 Z" />
</svg>