<svg xmlns="http://www.w3.org/2000/svg" viewBox="0 0 384 512">
  <path d="M 340 282 Q 312 335 275 385 Q 238 435 210 467 Q 199 480 192 488 Q 185 480 174 467 Q 146 435 109 385 Q 72 334 44 282 Q 17 229 16 192 Q 18 117 68 68 Q 117 18 192 16 Q 267 18 316 68 Q 366 117 368 192 Q 367 229 340 282 L 340 282 Z M 203 500 Q 225 475 268 421 L 268 421 L 268 421 Q 310 367 346 304 L 346 304 L 346 304 Q 382 242 384 192 Q 382 110 328 56 Q 274 2 192 0 Q 110 2 56 56 Q 2 110 0 192 Q 2 242 38 304 Q 74 367 116 421 Q 159 475 181 500 Q 192 512 192 512 Q 192 512 203 500 L 203 500 Z" />
</svg>