<svg xmlns="http://www.w3.org/2000/svg" viewBox="0 0 512 512">
  <path d="M 496 239 L 496 240 L 496 239 L 496 240 L 272 240 L 272 240 L 272 16 L 272 16 L 273 16 L 273 16 Q 335 17 386 46 Q 436 76 466 126 Q 495 177 496 239 L 496 239 Z M 273 0 Q 265 0 256 1 L 256 240 L 256 240 L 256 256 L 256 256 L 272 256 L 511 256 Q 512 248 512 239 Q 511 172 479 118 Q 448 64 394 33 Q 340 1 273 0 L 273 0 Z M 208 288 L 208 304 L 208 288 L 208 304 L 224 304 L 462 304 Q 448 387 387 441 Q 326 494 240 496 Q 177 495 127 465 Q 76 436 47 385 Q 17 335 16 272 Q 18 186 71 125 Q 125 64 208 50 L 208 288 L 208 288 Z M 480 288 L 464 288 L 480 288 L 224 288 L 224 272 L 224 272 L 224 49 L 224 49 L 224 33 L 224 33 Q 216 33 208 34 Q 118 48 60 113 Q 2 179 0 272 Q 1 339 33 393 Q 65 447 119 479 Q 173 511 240 512 Q 333 510 399 452 Q 464 394 478 304 Q 479 296 480 288 L 480 288 Z" />
</svg>