<svg xmlns="http://www.w3.org/2000/svg" viewBox="0 0 630 512">
  <path d="M 227 8 L 227 0 L 227 8 L 227 0 L 211 0 L 211 0 L 211 8 L 211 8 L 211 109 L 211 109 L 161 58 L 161 58 L 155 53 L 155 53 L 144 64 L 144 64 L 149 70 L 149 70 L 211 131 L 211 131 L 211 242 L 211 242 L 115 187 L 115 187 L 92 103 L 92 103 L 90 95 L 90 95 L 75 99 L 75 99 L 77 107 L 77 107 L 95 175 L 95 175 L 15 129 L 15 129 L 8 125 L 8 125 L 0 139 L 0 139 L 7 143 L 7 143 L 87 189 L 87 189 L 19 208 L 19 208 L 11 210 L 11 210 L 15 225 L 15 225 L 23 223 L 23 223 L 107 201 L 107 201 L 203 256 L 203 256 L 107 311 L 107 311 L 23 289 L 23 289 L 15 287 L 15 287 L 11 302 L 11 302 L 19 304 L 19 304 L 88 323 L 88 323 L 7 369 L 7 369 L 0 373 L 0 373 L 8 387 L 8 387 L 15 383 L 15 383 L 95 337 L 95 337 L 77 405 L 77 405 L 75 413 L 75 413 L 90 417 L 90 417 L 93 410 L 93 410 L 115 325 L 115 325 L 211 270 L 211 270 L 211 381 L 211 381 L 149 442 L 149 442 L 144 448 L 144 448 L 155 459 L 155 459 L 161 454 L 161 454 L 211 403 L 211 403 L 211 504 L 211 504 L 211 512 L 211 512 L 227 512 L 227 512 L 227 504 L 227 504 L 227 403 L 227 403 L 277 454 L 277 454 L 283 459 L 283 459 L 294 448 L 294 448 L 289 442 L 289 442 L 227 381 L 227 381 L 227 270 L 227 270 L 323 325 L 323 325 L 346 410 L 346 410 L 348 417 L 348 417 L 363 413 L 363 413 L 361 405 L 361 405 L 343 337 L 343 337 L 423 383 L 423 383 L 430 387 L 430 387 L 438 373 L 438 373 L 431 369 L 431 369 L 351 323 L 351 323 L 420 304 L 420 304 L 427 302 L 427 302 L 423 287 L 423 287 L 415 289 L 415 289 L 331 311 L 331 311 L 235 256 L 235 256 L 331 201 L 331 201 L 415 223 L 415 223 L 423 225 L 423 225 L 427 210 L 427 210 L 419 208 L 419 208 L 351 189 L 351 189 L 431 143 L 431 143 L 438 139 L 438 139 L 430 125 L 430 125 L 423 129 L 423 129 L 343 175 L 343 175 L 361 107 L 361 107 L 363 99 L 363 99 L 348 95 L 348 95 L 346 103 L 346 103 L 323 187 L 323 187 L 227 242 L 227 242 L 227 131 L 227 131 L 289 70 L 289 70 L 294 64 L 294 64 L 283 53 L 283 53 L 277 58 L 277 58 L 227 109 L 227 109 L 227 8 L 227 8 Z M 491 5 L 480 16 L 491 5 L 480 16 L 485 22 L 485 22 L 528 64 L 528 64 L 485 106 L 485 106 L 480 112 L 480 112 L 491 123 L 491 123 L 497 118 L 497 118 L 539 75 L 539 75 L 581 118 L 581 118 L 587 123 L 587 123 L 598 112 L 598 112 L 593 106 L 593 106 L 550 64 L 550 64 L 593 22 L 593 22 L 598 16 L 598 16 L 587 5 L 587 5 L 581 10 L 581 10 L 539 53 L 539 53 L 497 10 L 497 10 L 491 5 L 491 5 Z M 523 197 L 512 208 L 523 197 L 512 208 L 517 214 L 517 214 L 560 256 L 560 256 L 517 298 L 517 298 L 512 304 L 512 304 L 523 315 L 523 315 L 529 310 L 529 310 L 571 267 L 571 267 L 613 310 L 613 310 L 619 315 L 619 315 L 630 304 L 630 304 L 625 298 L 625 298 L 582 256 L 582 256 L 625 214 L 625 214 L 630 208 L 630 208 L 619 197 L 619 197 L 613 202 L 613 202 L 571 245 L 571 245 L 529 202 L 529 202 L 523 197 L 523 197 Z" />
</svg>