<svg xmlns="http://www.w3.org/2000/svg" viewBox="0 0 642 483">
  <path d="M 432 16 L 16 16 L 432 16 L 16 16 L 16 432 L 16 432 L 378 432 L 378 432 Q 410 448 448 448 L 432 448 L 0 448 L 0 432 L 0 432 L 0 16 L 0 16 L 0 0 L 0 0 L 16 0 L 448 0 L 448 16 L 448 16 L 448 128 L 448 128 Q 440 128 432 129 L 432 16 L 432 16 Z M 368 88 L 368 149 L 368 88 L 368 149 Q 360 154 352 160 L 352 96 L 352 96 L 232 96 L 232 96 L 232 185 L 232 185 Q 262 193 264 224 Q 264 241 252 252 Q 241 264 224 264 Q 207 264 196 252 Q 184 241 184 224 Q 186 193 216 185 L 216 88 L 216 88 L 216 80 L 216 80 L 224 80 L 368 80 L 368 88 L 368 88 Z M 309 368 L 88 368 L 309 368 L 80 368 L 80 360 L 80 360 L 80 88 L 80 88 L 80 80 L 80 80 L 88 80 L 160 80 L 160 96 L 160 96 L 152 96 L 96 96 L 96 352 L 96 352 L 301 352 L 301 352 Q 305 360 309 368 L 309 368 Z M 224 200 Q 202 202 200 224 Q 202 246 224 248 Q 246 246 248 224 Q 246 202 224 200 L 224 200 Z M 448 400 Q 478 400 504 385 L 504 385 L 504 385 Q 530 370 545 344 Q 560 318 560 288 Q 560 259 545 232 Q 530 206 504 191 Q 478 176 448 176 Q 418 176 392 191 Q 366 206 351 232 Q 336 259 336 288 Q 336 318 351 344 Q 366 370 392 385 Q 418 400 448 400 L 448 400 Z M 448 416 Q 394 415 357 379 L 357 379 L 357 379 Q 321 343 320 288 Q 321 234 357 198 Q 394 162 448 160 Q 502 162 539 198 Q 575 234 576 288 Q 575 338 544 373 L 638 467 L 638 467 Q 642 472 638 478 Q 632 483 626 478 L 533 384 L 533 384 Q 498 415 448 416 L 448 416 Z" />
</svg>