<svg xmlns="http://www.w3.org/2000/svg" viewBox="0 0 448 448">
  <path d="M 224 16 Q 136 18 77 77 L 77 77 L 77 77 Q 18 136 16 224 Q 17 284 46 332 Q 75 379 124 407 L 128 409 L 128 409 L 128 414 L 128 414 L 128 440 L 128 440 L 128 448 L 128 448 L 120 448 L 0 448 L 0 432 L 0 432 L 8 432 L 112 432 L 112 418 L 112 418 Q 61 388 31 338 Q 1 287 0 224 Q 1 161 31 111 Q 60 60 111 31 Q 161 1 224 0 Q 287 1 337 31 Q 388 60 417 111 Q 447 161 448 224 Q 447 287 417 338 Q 387 388 336 418 L 336 432 L 336 432 L 440 432 L 448 432 L 448 448 L 448 448 L 440 448 L 320 448 L 320 440 L 320 440 L 320 414 L 320 414 L 320 409 L 320 409 L 324 407 L 324 407 Q 373 379 402 332 Q 431 284 432 224 Q 430 136 371 77 Q 312 18 224 16 L 224 16 Z" />
</svg>