<svg xmlns="http://www.w3.org/2000/svg" viewBox="0 0 448 512">
  <path d="M 432 16 L 432 496 L 432 16 L 432 496 L 16 496 L 16 496 L 16 16 L 16 16 L 432 16 L 432 16 Z M 16 0 L 0 0 L 16 0 L 0 0 L 0 16 L 0 16 L 0 496 L 0 496 L 0 512 L 0 512 L 16 512 L 448 512 L 448 496 L 448 496 L 448 16 L 448 16 L 448 0 L 448 0 L 432 0 L 16 0 Z M 192 120 L 192 136 L 192 120 L 192 136 L 200 136 L 384 136 L 384 120 L 384 120 L 376 120 L 192 120 Z M 192 248 L 192 264 L 192 248 L 192 264 L 200 264 L 384 264 L 384 248 L 384 248 L 376 248 L 192 248 Z M 192 376 L 192 392 L 192 376 L 192 392 L 200 392 L 384 392 L 384 376 L 384 376 L 376 376 L 192 376 Z M 72 344 L 56 344 L 72 344 L 56 344 L 56 360 L 56 360 L 56 408 L 56 408 L 56 424 L 56 424 L 72 424 L 136 424 L 136 408 L 136 408 L 136 360 L 136 360 L 136 344 L 136 344 L 120 344 L 72 344 Z M 72 360 L 88 360 L 72 360 L 120 360 L 120 376 L 120 376 L 120 392 L 120 392 L 120 408 L 120 408 L 104 408 L 72 408 L 72 392 L 72 392 L 72 376 L 72 376 L 72 360 L 72 360 Z M 56 216 L 56 232 L 56 216 L 56 232 L 56 280 L 56 280 L 56 296 L 56 296 L 72 296 L 136 296 L 136 280 L 136 280 L 136 232 L 136 232 L 136 216 L 136 216 L 120 216 L 56 216 Z M 88 232 L 104 232 L 88 232 L 120 232 L 120 248 L 120 248 L 120 264 L 120 264 L 120 280 L 120 280 L 104 280 L 72 280 L 72 264 L 72 264 L 72 248 L 72 248 L 72 232 L 72 232 L 88 232 L 88 232 Z M 72 88 L 56 88 L 72 88 L 56 88 L 56 104 L 56 104 L 56 152 L 56 152 L 56 168 L 56 168 L 72 168 L 136 168 L 136 152 L 136 152 L 136 104 L 136 104 L 136 88 L 136 88 L 120 88 L 72 88 Z M 72 104 L 88 104 L 72 104 L 120 104 L 120 120 L 120 120 L 120 136 L 120 136 L 120 152 L 120 152 L 104 152 L 72 152 L 72 136 L 72 136 L 72 120 L 72 120 L 72 104 L 72 104 Z" />
</svg>