<svg xmlns="http://www.w3.org/2000/svg" viewBox="0 0 512 512">
  <path d="M 16 345 L 16 167 L 16 345 L 16 167 L 167 16 L 167 16 L 345 16 L 345 16 L 496 167 L 496 167 L 496 345 L 496 345 L 345 496 L 345 496 L 167 496 L 167 496 L 16 345 L 16 345 Z M 160 0 L 0 160 L 160 0 L 0 160 L 0 352 L 0 352 L 160 512 L 160 512 L 352 512 L 352 512 L 512 352 L 512 352 L 512 160 L 512 160 L 352 0 L 352 0 L 160 0 L 160 0 Z M 358 198 L 363 192 L 358 198 L 363 192 L 352 181 L 352 181 L 346 186 L 346 186 L 224 309 L 224 309 L 166 250 L 166 250 L 160 245 L 160 245 L 149 256 L 149 256 L 154 262 L 154 262 L 218 326 L 218 326 L 224 331 L 224 331 L 230 326 L 230 326 L 358 198 L 358 198 Z" />
</svg>