<svg xmlns="http://www.w3.org/2000/svg" viewBox="0 0 448 448">
  <path d="M 16 16 L 16 432 L 16 16 L 16 432 L 432 432 L 432 432 L 432 16 L 432 16 L 16 16 L 16 16 Z M 0 0 L 16 0 L 0 0 L 448 0 L 448 16 L 448 16 L 448 432 L 448 432 L 448 448 L 448 448 L 432 448 L 0 448 L 0 432 L 0 432 L 0 16 L 0 16 L 0 0 L 0 0 Z M 239 365 L 197 322 L 239 365 L 197 322 L 185 310 L 185 310 L 177 325 L 177 325 L 157 366 L 157 366 L 150 381 L 150 381 L 142 395 L 142 395 L 128 388 L 128 388 L 99 374 L 99 374 L 85 366 L 85 366 L 92 352 L 92 352 L 99 338 L 99 338 L 147 242 L 147 242 L 199 233 L 199 233 L 224 259 L 224 259 L 240 275 L 240 275 L 240 252 L 240 252 L 240 208 L 240 208 L 240 195 L 240 195 L 249 185 L 249 185 L 265 169 L 265 169 L 275 160 L 275 160 L 288 160 L 352 160 L 352 176 L 352 176 L 352 192 L 352 192 L 352 318 L 352 318 Q 351 346 333 365 Q 314 383 286 384 Q 259 384 240 365 L 239 365 Z M 142 359 L 170 303 L 142 359 L 170 303 L 180 283 L 180 283 L 196 299 L 196 299 L 251 353 L 251 353 Q 266 368 286 368 Q 307 367 321 353 Q 335 339 336 318 L 336 192 L 336 192 L 336 176 L 336 176 L 320 176 L 281 176 L 277 181 L 277 181 L 261 197 L 261 197 L 256 201 L 256 201 L 256 208 L 256 208 L 256 275 L 256 275 L 256 313 L 256 313 L 229 286 L 229 286 L 193 250 L 193 250 L 158 256 L 158 256 L 114 345 L 114 345 L 107 359 L 107 359 L 135 374 L 135 374 L 142 359 L 142 359 Z M 240 112 Q 240 98 231 89 L 231 89 L 231 89 Q 222 80 208 80 Q 194 80 185 89 Q 176 98 176 112 Q 176 126 185 135 Q 194 144 208 144 Q 222 144 231 135 Q 240 126 240 112 L 240 112 Z M 208 64 Q 235 65 250 88 Q 262 112 250 136 Q 235 159 208 160 Q 181 159 166 136 Q 154 112 166 88 Q 181 65 208 64 L 208 64 Z" />
</svg>