<svg xmlns="http://www.w3.org/2000/svg" viewBox="0 0 458 458">
  <path d="M 153 426 Q 182 417 214 399 Q 170 370 129 329 Q 88 288 59 244 Q 41 276 32 305 Q 7 385 40 418 Q 73 451 153 426 L 153 426 Z M 229 389 Q 274 361 318 318 Q 361 274 389 229 Q 361 184 318 140 Q 274 97 229 69 Q 184 97 140 140 Q 97 184 69 229 Q 97 274 140 318 Q 184 361 229 389 L 229 389 Z M 229 408 Q 166 445 113 452 L 113 452 L 113 452 Q 59 458 29 429 Q 0 399 6 345 Q 13 292 50 229 Q 13 166 6 113 Q 0 59 29 29 Q 59 0 113 6 Q 166 13 229 50 Q 292 13 345 6 Q 399 0 429 29 Q 458 59 452 113 Q 445 166 408 229 Q 445 292 452 345 Q 458 399 429 429 Q 399 458 345 452 Q 292 445 229 408 L 229 408 Z M 399 244 Q 370 288 329 329 Q 288 370 244 399 Q 276 417 305 426 Q 385 451 418 418 Q 451 385 426 305 Q 417 276 399 244 L 399 244 Z M 399 214 Q 417 182 426 153 Q 451 73 418 40 Q 385 7 305 32 Q 276 41 244 59 Q 288 88 329 129 Q 370 170 399 214 L 399 214 Z M 214 59 Q 182 42 153 32 Q 73 7 40 40 Q 7 73 32 153 Q 41 182 59 214 Q 88 170 129 129 Q 170 88 214 59 L 214 59 Z M 174 229 L 186 218 L 174 229 L 186 218 L 218 186 L 218 186 L 229 174 L 229 174 L 240 186 L 240 186 L 272 218 L 272 218 L 284 229 L 284 229 L 272 240 L 272 240 L 240 272 L 240 272 L 229 284 L 229 284 L 218 272 L 218 272 L 186 240 L 186 240 L 174 229 L 174 229 Z M 240 250 L 250 240 L 240 250 L 250 240 L 261 229 L 261 229 L 250 218 L 250 218 L 240 208 L 240 208 L 229 197 L 229 197 L 218 208 L 218 208 L 208 218 L 208 218 L 197 229 L 197 229 L 208 240 L 208 240 L 218 250 L 218 250 L 229 261 L 229 261 L 240 250 L 240 250 Z" />
</svg>