<svg xmlns="http://www.w3.org/2000/svg" viewBox="0 0 538 512">
  <path d="M 333 196 L 278 26 L 333 196 L 278 26 L 269 0 L 269 0 L 261 26 L 261 26 L 206 196 L 206 196 L 27 196 L 0 196 L 22 212 L 22 212 L 166 316 L 166 316 L 111 486 L 111 486 L 103 512 L 103 512 L 125 496 L 125 496 L 269 391 L 269 391 L 413 496 L 413 496 L 435 512 L 435 512 L 427 486 L 427 486 L 372 316 L 372 316 L 516 212 L 516 212 L 538 196 L 538 196 L 511 196 L 333 196 Z M 489 212 L 363 304 L 489 212 L 363 304 L 353 310 L 353 310 L 357 321 L 357 321 L 405 470 L 405 470 L 279 378 L 279 378 L 269 371 L 269 371 L 260 378 L 260 378 L 133 470 L 133 470 L 181 321 L 181 321 L 185 310 L 185 310 L 176 304 L 176 304 L 49 212 L 49 212 L 206 212 L 217 212 L 221 201 L 221 201 L 269 52 L 269 52 L 317 201 L 317 201 L 321 212 L 321 212 L 333 212 L 489 212 Z" />
</svg>