<svg xmlns="http://www.w3.org/2000/svg" viewBox="0 0 512 512">
  <path d="M 496 256 Q 495 191 464 136 L 464 136 L 464 136 Q 432 81 376 48 Q 319 16 256 16 Q 193 16 136 48 Q 80 81 48 136 Q 17 191 16 256 Q 17 321 48 376 Q 80 431 136 464 Q 193 496 256 496 Q 319 496 376 464 Q 432 431 464 376 Q 495 321 496 256 L 496 256 Z M 0 256 Q 1 186 34 128 L 34 128 L 34 128 Q 68 70 128 34 Q 189 0 256 0 Q 323 0 384 34 Q 444 70 478 128 Q 511 186 512 256 Q 511 326 478 384 Q 444 442 384 478 Q 323 512 256 512 Q 189 512 128 478 Q 68 442 34 384 Q 1 326 0 256 L 0 256 Z M 256 416 Q 307 415 344 384 L 344 384 L 344 384 Q 382 353 393 304 L 119 304 L 119 304 Q 130 353 168 384 Q 205 415 256 416 L 256 416 Z M 100 288 L 116 288 L 100 288 L 412 288 Q 411 296 410 304 Q 398 360 356 395 Q 314 431 256 432 Q 198 431 156 395 Q 114 360 102 304 Q 101 296 100 288 L 100 288 Z M 151 180 Q 140 198 136 220 L 120 217 L 120 217 Q 124 193 138 171 Q 151 148 176 146 Q 201 148 214 171 Q 228 193 232 217 L 216 220 L 216 220 Q 212 198 201 180 Q 189 162 176 162 Q 163 162 151 180 L 151 180 Z M 296 220 L 280 217 L 296 220 L 280 217 Q 284 193 298 171 Q 311 148 336 146 Q 361 148 374 171 Q 388 193 392 217 L 376 220 L 376 220 Q 372 198 361 180 Q 349 162 336 162 Q 323 162 311 180 Q 300 198 296 220 L 296 220 Z" />
</svg>