<svg xmlns="http://www.w3.org/2000/svg" viewBox="0 0 512 512">
  <path d="M 464 134.4 L 409.6 51.2 L 102.4 51.2 L 76 92 L 38.4 63.2 L 23.2 51.2 L 0 81.6 L 15.2 93.6 L 473.6 448.8 L 488.8 460.8 L 512 430.4 L 496.8 418.4 L 435.2 371.2 L 435.2 358.4 L 435.2 253.6 Q 430.4 254.4 425.6 255.2 L 425.6 255.2 Q 419.2 256 412 256 Q 397.6 256 384 252 L 384 331.2 L 240.8 220 Q 249.6 214.4 256 207.2 Q 276 229.6 308 230.4 Q 340 229.6 360 207.2 Q 380 229.6 412.8 230.4 Q 417.6 230.4 422.4 229.6 Q 456 223.2 468.8 193.6 Q 480.8 164 464 134.4 L 464 134.4 Z M 89.6 229.6 Q 94.4 230.4 99.2 230.4 Q 112.8 230.4 124 225.6 L 39.2 159.2 Q 36 184 49.6 204.8 Q 63.2 225.6 89.6 229.6 L 89.6 229.6 Z M 128 358.4 L 128 252 Q 114.4 256 99.2 256 Q 92.8 256 86.4 255.2 L 86.4 255.2 Q 81.6 254.4 76.8 253.6 L 76.8 358.4 L 76.8 460.8 L 422.4 460.8 L 292.8 358.4 L 128 358.4 L 128 358.4 Z" />
</svg>