<svg xmlns="http://www.w3.org/2000/svg" viewBox="0 0 635 451">
  <path d="M 128 0 L 136 0 L 128 0 L 292 0 L 295 4 L 295 4 L 391 156 L 391 156 L 394 160 L 394 160 L 480 160 L 496 160 L 496 176 L 496 176 L 496 336 L 496 336 L 528 336 L 528 336 L 528 168 L 528 168 L 528 165 L 528 165 L 530 163 L 530 163 L 618 67 L 618 67 L 624 61 L 624 61 L 635 71 L 635 71 L 630 77 L 630 77 L 544 171 L 544 171 L 544 336 L 544 336 L 544 341 L 544 341 L 630 435 L 630 435 L 635 440 L 635 440 L 624 451 L 624 451 L 618 445 L 618 445 L 533 352 L 533 352 L 496 352 L 464 352 Q 463 393 436 420 Q 409 447 368 448 Q 327 447 300 420 Q 273 393 272 352 L 224 352 L 224 352 Q 223 393 196 420 Q 169 447 128 448 Q 87 447 60 420 Q 33 393 32 352 L 16 352 L 0 352 L 0 336 L 0 336 L 0 176 L 0 176 L 0 160 L 0 160 L 16 160 L 128 160 L 128 152 L 128 152 L 128 8 L 128 8 L 128 0 L 128 0 Z M 463 336 L 480 336 L 463 336 L 480 336 L 480 176 L 480 176 L 16 176 L 16 176 L 16 336 L 16 336 L 33 336 L 33 336 Q 40 301 66 279 Q 92 257 128 256 Q 164 257 190 279 Q 216 301 223 336 L 273 336 L 273 336 Q 280 301 306 279 Q 332 257 368 256 Q 405 257 430 279 Q 456 301 463 336 L 463 336 Z M 144 160 L 375 160 L 144 160 L 375 160 L 284 16 L 284 16 L 144 16 L 144 16 L 144 152 L 144 152 L 144 160 L 144 160 Z M 208 352 Q 207 307 168 283 Q 128 261 88 283 Q 49 307 48 352 Q 49 397 88 421 Q 128 443 168 421 Q 207 397 208 352 L 208 352 Z M 368 432 Q 413 431 437 392 Q 459 352 437 312 Q 413 273 368 272 Q 323 273 299 312 Q 277 352 299 392 Q 323 431 368 432 L 368 432 Z" />
</svg>