<svg xmlns="http://www.w3.org/2000/svg" viewBox="0 0 640 416">
  <path d="M 231 7 L 216 0 L 231 7 L 216 0 L 212 16 L 212 16 L 152 229 L 152 229 Q 153 229 154 230 Q 160 232 167 234 L 226 22 L 226 22 L 313 63 L 313 63 L 320 66 L 320 66 L 327 63 L 327 63 L 414 22 L 414 22 L 473 234 L 473 234 Q 481 231 488 229 L 428 16 L 428 16 L 424 0 L 424 0 L 409 7 L 409 7 L 320 48 L 320 48 L 231 7 L 231 7 Z M 616 192 Q 616 192 604 203 Q 581 224 510 255 Q 440 285 320 288 Q 200 285 130 255 Q 59 224 36 203 Q 24 192 24 192 Q 24 192 24 192 L 14 205 L 14 205 L 0 224 L 0 224 Q 0 226 19 254 Q 37 283 76 320 Q 115 358 176 386 Q 236 415 320 416 Q 404 415 465 386 Q 525 358 564 320 Q 603 283 622 254 Q 640 226 640 224 L 626 205 L 626 205 L 616 192 L 616 192 Z M 608 220 Q 610 218 612 217 L 612 217 L 612 217 Q 613 216 614 215 L 621 225 L 621 225 Q 617 233 608 245 Q 591 272 553 308 Q 516 344 458 371 Q 400 399 320 400 Q 240 399 182 371 Q 124 344 87 308 Q 50 272 32 245 Q 23 233 19 225 L 27 215 L 27 215 Q 27 216 28 216 Q 30 218 32 220 Q 51 235 89 254 Q 127 274 185 289 Q 242 303 320 304 Q 398 303 455 289 Q 513 274 551 254 Q 589 235 608 220 L 608 220 Z" />
</svg>