<svg xmlns="http://www.w3.org/2000/svg" viewBox="0 0 448 432">
  <path d="M 0 432 L 448 432 L 0 432 L 448 432 L 448 416 L 448 416 L 0 416 L 0 416 L 0 432 L 0 432 Z M 16 320 L 48 320 L 16 320 L 48 320 L 48 288 L 48 288 L 16 288 L 16 288 L 16 320 L 16 320 Z M 432 320 L 432 288 L 432 320 L 432 288 L 400 288 L 400 288 L 400 320 L 400 320 L 432 320 L 432 320 Z M 208 320 L 240 320 L 208 320 L 240 320 L 240 288 L 240 288 L 208 288 L 208 288 L 208 320 L 208 320 Z M 48 128 L 48 96 L 48 128 L 48 96 L 16 96 L 16 96 L 16 128 L 16 128 L 48 128 L 48 128 Z M 400 128 L 432 128 L 400 128 L 432 128 L 432 96 L 432 96 L 400 96 L 400 96 L 400 128 L 400 128 Z M 240 128 L 240 96 L 240 128 L 240 96 L 208 96 L 208 96 L 208 128 L 208 128 L 240 128 L 240 128 Z M 16 224 L 48 224 L 16 224 L 48 224 L 48 192 L 48 192 L 16 192 L 16 192 L 16 224 L 16 224 Z M 432 224 L 432 192 L 432 224 L 432 192 L 400 192 L 400 192 L 400 224 L 400 224 L 432 224 L 432 224 Z M 208 224 L 240 224 L 208 224 L 240 224 L 240 192 L 240 192 L 208 192 L 208 192 L 208 224 L 208 224 Z M 48 32 L 48 0 L 48 32 L 48 0 L 16 0 L 16 0 L 16 32 L 16 32 L 48 32 L 48 32 Z M 400 32 L 432 32 L 400 32 L 432 32 L 432 0 L 432 0 L 400 0 L 400 0 L 400 32 L 400 32 Z M 240 32 L 240 0 L 240 32 L 240 0 L 208 0 L 208 0 L 208 32 L 208 32 L 240 32 L 240 32 Z M 112 224 L 144 224 L 112 224 L 144 224 L 144 192 L 144 192 L 112 192 L 112 192 L 112 224 L 112 224 Z M 144 32 L 144 0 L 144 32 L 144 0 L 112 0 L 112 0 L 112 32 L 112 32 L 144 32 L 144 32 Z M 304 32 L 336 32 L 304 32 L 336 32 L 336 0 L 336 0 L 304 0 L 304 0 L 304 32 L 304 32 Z M 336 224 L 336 192 L 336 224 L 336 192 L 304 192 L 304 192 L 304 224 L 304 224 L 336 224 L 336 224 Z" />
</svg>