<svg xmlns="http://www.w3.org/2000/svg" viewBox="0 0 512 448">
  <path d="M 152 0 L 128 0 L 152 0 L 128 0 L 128 24 L 128 24 L 128 96 L 128 96 L 80 96 L 80 96 L 0 176 L 0 176 L 0 288 L 0 288 L 128 288 L 128 288 L 128 256 L 128 256 L 128 224 L 128 224 L 192 224 L 192 224 L 192 256 L 192 256 L 192 288 L 192 288 L 320 288 L 320 288 L 320 256 L 320 256 L 320 224 L 320 224 L 384 224 L 384 224 L 384 256 L 384 256 L 384 288 L 384 288 L 512 288 L 512 288 L 512 176 L 512 176 L 432 96 L 432 96 L 384 96 L 384 96 L 384 24 L 384 24 L 384 0 L 384 0 L 360 0 L 152 0 Z M 336 96 L 176 96 L 336 96 L 176 96 L 176 48 L 176 48 L 336 48 L 336 48 L 336 96 L 336 96 Z M 0 448 L 512 448 L 0 448 L 512 448 L 512 320 L 512 320 L 384 320 L 384 320 L 384 352 L 384 352 L 320 352 L 320 352 L 320 320 L 320 320 L 192 320 L 192 320 L 192 352 L 192 352 L 128 352 L 128 352 L 128 320 L 128 320 L 0 320 L 0 320 L 0 448 L 0 448 Z" />
</svg>