<svg xmlns="http://www.w3.org/2000/svg" viewBox="0 0 448 512">
  <path d="M 432 224 Q 431 288 398 338 L 398 338 L 398 338 Q 365 388 310 413 L 308 432 L 308 432 Q 370 406 409 351 Q 447 296 448 224 Q 447 161 417 111 Q 388 60 337 31 Q 287 1 224 0 Q 161 1 111 31 Q 60 60 31 111 Q 1 161 0 224 Q 1 296 39 351 Q 77 406 140 432 L 138 413 L 138 413 Q 83 388 50 338 Q 17 288 16 224 Q 18 136 77 77 Q 136 18 224 16 Q 312 18 371 77 Q 430 136 432 224 L 432 224 Z M 352 224 Q 350 283 309 319 L 313 324 L 313 324 L 319 332 L 319 332 Q 366 290 368 224 Q 366 163 326 122 Q 285 82 224 80 Q 163 82 122 122 Q 82 163 80 224 Q 82 290 129 332 L 135 324 L 135 324 L 139 319 L 139 319 Q 98 283 96 224 Q 97 170 133 133 Q 170 97 224 96 Q 278 97 315 133 Q 351 170 352 224 L 352 224 Z M 224 176 Q 251 177 266 200 Q 278 224 266 248 Q 251 271 224 272 Q 197 271 182 248 Q 170 224 182 200 Q 197 177 224 176 L 224 176 Z M 224 288 Q 260 287 279 256 Q 297 224 279 192 Q 260 161 224 160 Q 188 161 169 192 Q 151 224 169 256 Q 188 287 224 288 L 224 288 Z M 250 496 L 198 496 L 250 496 L 198 496 L 177 349 L 177 349 L 200 320 L 200 320 L 248 320 L 248 320 L 271 349 L 271 349 L 250 496 L 250 496 Z M 160 344 L 184 512 L 160 344 L 184 512 L 264 512 L 264 512 L 288 344 L 288 344 L 256 304 L 256 304 L 192 304 L 192 304 L 160 344 L 160 344 Z" />
</svg>