<svg xmlns="http://www.w3.org/2000/svg" viewBox="0 0 638 512">
  <path d="M 143 96 Q 166 95 178 76 Q 188 56 178 36 Q 166 17 143 16 Q 120 17 108 36 Q 98 56 108 76 Q 120 95 143 96 L 143 96 Z M 143 0 Q 175 1 191 28 Q 207 56 191 84 Q 175 111 143 112 Q 111 111 95 84 Q 79 56 95 28 Q 111 1 143 0 L 143 0 Z M 79 128 L 84 128 L 79 128 L 207 128 L 209 133 L 209 133 L 286 309 L 286 309 L 272 315 L 272 315 L 197 144 L 197 144 L 89 144 L 89 144 L 14 315 L 14 315 L 0 309 L 0 309 L 77 133 L 77 133 L 79 128 L 79 128 Z M 87 248 L 87 496 L 87 248 L 87 496 L 119 496 L 119 496 L 119 344 L 119 344 L 119 336 L 119 336 L 127 336 L 167 336 L 167 344 L 167 344 L 167 496 L 167 496 L 199 496 L 199 496 L 199 248 L 199 248 L 199 240 L 199 240 L 215 240 L 215 240 L 215 248 L 215 248 L 215 504 L 215 504 L 215 512 L 215 512 L 207 512 L 151 512 L 151 504 L 151 504 L 151 352 L 151 352 L 135 352 L 135 352 L 135 504 L 135 504 L 135 512 L 135 512 L 127 512 L 71 512 L 71 504 L 71 504 L 71 248 L 71 248 L 71 240 L 71 240 L 87 240 L 87 240 L 87 248 L 87 248 Z M 495 96 Q 518 95 530 76 Q 540 56 530 36 Q 518 17 495 16 Q 472 17 460 36 Q 450 56 460 76 Q 472 95 495 96 L 495 96 Z M 495 0 Q 527 1 543 28 Q 559 56 543 84 Q 527 111 495 112 Q 463 111 447 84 Q 431 56 447 28 Q 463 1 495 0 L 495 0 Z M 457 203 L 455 211 L 457 203 L 455 211 L 402 368 L 402 368 L 423 368 L 588 368 L 535 211 L 535 211 L 533 203 L 533 203 L 548 198 L 548 198 L 551 205 L 551 205 L 607 373 L 607 373 L 610 384 L 610 384 L 599 384 L 567 384 L 567 504 L 567 504 L 567 512 L 567 512 L 559 512 L 503 512 L 503 504 L 503 504 L 503 384 L 503 384 L 487 384 L 487 384 L 487 504 L 487 504 L 487 512 L 487 512 L 479 512 L 423 512 L 423 504 L 423 504 L 423 384 L 423 384 L 391 384 L 380 384 L 383 374 L 383 374 L 439 206 L 439 206 L 442 198 L 442 198 L 457 203 L 457 203 Z M 439 384 L 439 496 L 439 384 L 439 496 L 471 496 L 471 496 L 471 384 L 471 384 L 439 384 L 439 384 Z M 519 496 L 551 496 L 519 496 L 551 496 L 551 384 L 551 384 L 519 384 L 519 384 L 519 496 L 519 496 Z M 436 128 L 554 128 L 436 128 L 559 128 L 561 133 L 561 133 L 638 309 L 638 309 L 624 315 L 624 315 L 549 144 L 549 144 L 441 144 L 441 144 L 366 315 L 366 315 L 352 309 L 352 309 L 428 133 L 428 133 L 431 128 L 431 128 L 436 128 L 436 128 Z M 327 8 L 327 504 L 327 8 L 327 504 L 327 512 L 327 512 L 311 512 L 311 512 L 311 504 L 311 504 L 311 8 L 311 8 L 311 0 L 311 0 L 327 0 L 327 0 L 327 8 L 327 8 Z" />
</svg>