<svg xmlns="http://www.w3.org/2000/svg" viewBox="0 0 640 448">
  <path d="M 16 16 L 16 432 L 16 16 L 16 432 L 624 432 L 624 432 L 624 16 L 624 16 L 16 16 L 16 16 Z M 0 0 L 16 0 L 0 0 L 640 0 L 640 16 L 640 16 L 640 432 L 640 432 L 640 448 L 640 448 L 624 448 L 0 448 L 0 432 L 0 432 L 0 16 L 0 16 L 0 0 L 0 0 Z M 88 128 L 144 128 L 88 128 L 144 128 Q 168 129 184 144 Q 199 160 200 184 L 200 192 L 200 192 L 199 192 L 199 192 Q 196 213 181 226 Q 166 240 144 240 L 96 240 L 96 240 L 96 312 L 96 312 L 96 320 L 96 320 L 80 320 L 80 320 L 80 312 L 80 312 L 80 232 L 80 232 L 80 136 L 80 136 L 80 128 L 80 128 L 88 128 L 88 128 Z M 144 224 Q 161 224 172 212 L 172 212 L 172 212 Q 184 201 184 184 Q 184 167 172 156 Q 161 144 144 144 L 96 144 L 96 144 L 96 224 L 96 224 L 144 224 L 144 224 Z M 408 200 Q 409 169 429 149 L 429 149 L 429 149 Q 449 129 480 128 Q 511 129 531 149 Q 551 169 552 200 L 552 248 L 552 248 Q 551 279 531 299 Q 511 319 480 320 Q 449 319 429 299 Q 409 279 408 248 L 408 200 L 408 200 Z M 480 144 Q 456 145 440 160 L 440 160 L 440 160 Q 425 176 424 200 L 424 248 L 424 248 Q 425 272 440 288 Q 456 303 480 304 Q 504 303 520 288 Q 535 272 536 248 L 536 200 L 536 200 Q 535 176 520 160 Q 504 145 480 144 L 480 144 Z M 240 128 L 248 128 L 240 128 L 304 128 Q 328 129 344 144 Q 359 160 360 184 Q 358 222 324 236 L 373 320 L 373 320 L 354 320 L 354 320 L 307 240 L 307 240 Q 306 240 304 240 L 256 240 L 256 240 L 256 312 L 256 312 L 256 320 L 256 320 L 240 320 L 240 320 L 240 312 L 240 312 L 240 232 L 240 232 L 240 136 L 240 136 L 240 128 L 240 128 Z M 256 224 L 304 224 L 256 224 L 304 224 Q 321 224 332 212 Q 344 201 344 184 Q 344 167 332 156 Q 321 144 304 144 L 256 144 L 256 144 L 256 224 L 256 224 Z" />
</svg>