<svg xmlns="http://www.w3.org/2000/svg" viewBox="0 0 511 512">
  <path d="M 255 0 L 239 0 L 255 0 L 239 0 L 239 8 L 239 8 L 239 203 L 239 203 L 255 198 L 255 198 L 255 8 L 255 8 L 255 0 L 255 0 Z M 255 314 L 255 432 L 255 314 L 255 432 L 255 438 L 255 438 L 100 497 L 100 497 L 106 512 L 106 512 L 506 360 L 506 360 L 511 358 L 511 358 L 511 352 L 511 352 L 511 296 L 511 296 L 511 288 L 511 288 L 495 288 L 495 288 L 495 296 L 495 296 L 495 347 L 495 347 L 319 413 L 319 413 L 319 256 L 319 256 L 279 225 L 279 225 L 213 243 L 213 243 L 180 171 L 180 171 L 173 155 L 173 155 L 166 141 L 166 141 L 152 148 L 152 148 L 137 155 L 137 155 L 111 168 L 111 168 L 83 182 L 83 182 L 96 210 L 96 210 L 132 289 L 132 289 Q 140 305 155 313 Q 171 320 188 316 L 239 302 L 239 302 L 255 298 L 255 298 L 255 314 L 255 314 Z M 303 419 L 271 432 L 303 419 L 271 432 L 271 298 L 271 298 L 271 277 L 271 277 L 251 282 L 251 282 L 184 300 L 184 300 Q 159 305 147 283 L 110 204 L 110 204 L 104 190 L 104 190 L 118 183 L 118 183 L 144 170 L 144 170 L 159 162 L 159 162 L 166 178 L 166 178 L 198 249 L 198 249 L 204 262 L 204 262 L 217 258 L 217 258 L 275 243 L 275 243 L 303 264 L 303 264 L 303 420 L 303 419 Z M 111 48 Q 125 48 134 57 L 134 57 L 134 57 Q 143 66 143 80 Q 143 94 134 103 Q 125 112 111 112 Q 97 112 88 103 Q 79 94 79 80 Q 79 66 88 57 Q 97 48 111 48 L 111 48 Z M 159 80 Q 158 53 135 38 Q 111 26 87 38 Q 64 53 63 80 Q 64 107 87 122 Q 111 134 135 122 Q 158 107 159 80 L 159 80 Z M 96 395 L 99 402 L 96 395 L 99 402 L 106 400 L 106 400 L 210 360 L 210 360 L 217 357 L 217 357 L 212 342 L 212 342 L 204 345 L 204 345 L 107 382 L 107 382 L 14 165 L 14 165 L 0 171 L 0 171 L 96 395 L 96 395 Z" />
</svg>