<svg xmlns="http://www.w3.org/2000/svg" viewBox="0 0 512 441">
  <path d="M 485 53 L 505 41 L 485 53 L 505 41 L 480 0 L 480 0 L 459 13 L 459 13 L 374 66 L 374 66 Q 321 57 256 57 Q 147 57 75 83 Q 3 110 0 169 L 0 329 L 0 329 Q 3 366 33 388 Q 62 409 105 422 Q 170 441 256 441 Q 342 441 407 422 Q 450 409 479 388 Q 509 366 512 329 L 512 169 L 512 169 Q 509 110 437 83 L 485 53 L 485 53 Z M 310 107 L 243 149 L 310 107 L 243 149 L 223 162 L 223 162 L 248 202 L 248 202 L 269 189 L 269 189 L 384 117 L 384 117 Q 404 122 420 128 Q 448 139 456 150 Q 465 161 464 169 Q 465 170 457 180 Q 449 190 418 205 Q 357 232 256 233 Q 155 232 94 205 Q 63 190 55 180 Q 47 170 48 169 Q 47 161 56 150 Q 64 139 92 128 Q 152 105 256 105 Q 284 105 310 107 L 310 107 Z M 424 254 Q 447 246 464 235 L 464 329 L 464 329 Q 466 335 450 350 Q 440 357 424 364 L 424 254 L 424 254 Z M 280 281 Q 332 278 376 268 L 376 380 L 376 380 Q 334 390 280 393 L 280 281 L 280 281 Z M 136 268 Q 180 278 232 281 L 232 393 L 232 393 Q 178 390 136 380 L 136 268 L 136 268 Z M 48 235 Q 65 246 88 254 L 88 364 L 88 364 Q 72 357 63 350 Q 46 335 48 329 L 48 235 L 48 235 Z" />
</svg>