<svg xmlns="http://www.w3.org/2000/svg" viewBox="0 0 560 512">
  <path d="M 295 224 Q 304 202 304 176 Q 303 122 267 85 Q 230 49 176 48 Q 122 49 85 85 Q 49 122 48 176 Q 49 217 71 249 Q 76 257 84 267 Q 84 267 84 267 Q 84 267 84 267 Q 105 294 123 326 Q 138 355 142 384 L 93 384 L 93 384 Q 90 366 81 350 Q 66 323 47 298 Q 47 298 47 298 Q 47 298 47 298 Q 47 298 47 298 Q 47 298 47 298 Q 47 298 47 298 Q 39 287 31 276 Q 1 233 0 176 Q 2 101 52 52 Q 101 2 176 0 Q 251 2 300 52 Q 350 101 352 176 Q 352 201 345 224 L 295 224 L 295 224 Z M 240 416 L 240 512 L 240 416 L 240 512 L 96 512 L 96 512 L 96 416 L 96 416 L 176 416 L 240 416 Z M 128 176 L 96 176 L 128 176 L 96 176 Q 97 142 119 119 Q 142 97 176 96 L 176 128 L 176 128 Q 156 129 142 142 Q 129 156 128 176 L 128 176 Z M 560 256 L 560 448 L 560 256 L 560 448 L 464 448 L 464 448 L 464 512 L 464 512 L 389 448 L 389 448 L 272 448 L 272 448 L 272 256 L 272 256 L 560 256 L 560 256 Z" />
</svg>