<svg xmlns="http://www.w3.org/2000/svg" viewBox="0 0 512 512">
  <path d="M 0 416 Q 1 457 28 484 L 28 484 L 28 484 Q 55 511 96 512 Q 137 511 164 484 Q 191 457 192 416 L 192 8 L 192 8 L 192 0 L 192 0 L 184 0 L 0 0 L 0 8 L 0 8 L 0 416 L 0 416 Z M 96 496 Q 62 495 39 473 L 39 473 L 39 473 Q 17 450 16 416 L 16 16 L 16 16 L 176 16 L 176 16 L 176 416 L 176 416 Q 175 450 153 473 Q 130 495 96 496 L 96 496 Z M 504 512 L 512 512 L 504 512 L 512 512 L 512 504 L 512 504 L 512 328 L 512 328 L 512 320 L 512 320 L 504 320 L 358 320 L 342 336 L 342 336 L 496 336 L 496 336 L 496 496 L 496 496 L 196 496 L 196 496 Q 189 505 181 512 L 504 512 L 504 512 Z M 224 423 L 453 194 L 224 423 L 453 194 L 459 188 L 459 188 L 453 183 L 453 183 L 329 58 L 329 58 L 323 53 L 323 53 L 317 58 L 317 58 L 224 152 L 224 152 L 224 174 L 224 174 L 323 75 L 323 75 L 436 189 L 436 189 L 224 401 L 224 401 L 224 416 L 224 416 Q 224 420 224 423 L 224 423 Z M 64 48 L 48 48 L 64 48 L 48 48 L 48 64 L 48 64 L 48 128 L 48 128 L 48 144 L 48 144 L 64 144 L 144 144 L 144 128 L 144 128 L 144 64 L 144 64 L 144 48 L 144 48 L 128 48 L 64 48 Z M 64 64 L 80 64 L 64 64 L 128 64 L 128 80 L 128 80 L 128 112 L 128 112 L 128 128 L 128 128 L 112 128 L 64 128 L 64 112 L 64 112 L 64 80 L 64 80 L 64 64 L 64 64 Z M 48 176 L 48 192 L 48 176 L 48 192 L 48 256 L 48 256 L 48 272 L 48 272 L 64 272 L 144 272 L 144 256 L 144 256 L 144 192 L 144 192 L 144 176 L 144 176 L 128 176 L 48 176 Z M 80 192 L 112 192 L 80 192 L 128 192 L 128 208 L 128 208 L 128 240 L 128 240 L 128 256 L 128 256 L 112 256 L 64 256 L 64 240 L 64 240 L 64 208 L 64 208 L 64 192 L 64 192 L 80 192 L 80 192 Z M 112 416 Q 111 431 96 432 Q 81 431 80 416 Q 81 401 96 400 Q 111 401 112 416 L 112 416 Z M 96 384 Q 82 384 73 393 L 73 393 L 73 393 Q 64 402 64 416 Q 64 430 73 439 Q 82 448 96 448 Q 110 448 119 439 Q 128 430 128 416 Q 128 402 119 393 Q 110 384 96 384 L 96 384 Z" />
</svg>