<svg xmlns="http://www.w3.org/2000/svg" viewBox="0 0 512 512">
  <path d="M 144 352 L 160 352 L 144 352 L 160 352 L 160 368 L 160 368 L 160 496 L 160 496 L 160 512 L 160 512 L 176 512 L 512 512 L 512 496 L 512 496 L 512 176 L 512 176 L 512 160 L 512 160 L 496 160 L 352 160 L 352 144 L 352 144 L 352 16 L 352 16 L 352 0 L 352 0 L 336 0 L 0 0 L 0 16 L 0 16 L 0 336 L 0 336 L 0 352 L 0 352 L 16 352 L 144 352 Z M 16 336 L 16 16 L 16 336 L 16 16 L 336 16 L 336 16 L 336 160 L 336 160 L 336 176 L 336 176 L 352 176 L 496 176 L 496 496 L 496 496 L 176 496 L 176 496 L 176 352 L 176 352 L 176 336 L 176 336 L 160 336 L 16 336 Z" />
</svg>