<svg xmlns="http://www.w3.org/2000/svg" viewBox="0 0 512 512">
  <path d="M 323.10678 467.75922 Q 290.29904 478.69516 254.50874 478.69516 Q 191.87573 477.70096 142.16699 447.87573 Q 91.46408 419.04465 62.63301 368.34174 Q 32.807766 318.633 31.813593 256 Q 32.807766 193.36699 62.63301 143.65825 Q 91.46408 92.95534 142.16699 64.124275 Q 191.87573 34.29903 254.50874 33.304855 Q 317.14175 34.29903 366.8505 64.124275 Q 417.5534 92.95534 446.38446 143.65825 Q 476.20972 193.36699 477.2039 256 Q 477.2039 294.77283 465.27377 329.56894 Q 481.18057 331.55728 495.09903 338.5165 Q 509.0175 299.74368 509.0175 256 Q 508.02332 184.41942 474.22134 127.75146 Q 440.4194 70.08932 382.7573 36.28738 Q 326.08932 2.485437 254.50874 1.4912621 Q 182.92816 2.485437 126.26019 36.28738 Q 68.59806 70.08932 34.796116 127.75146 Q 0.9941748 184.41942 0 256 Q 0.9941748 327.5806 34.796116 384.24854 Q 68.59806 441.91068 126.26019 475.71262 Q 182.92816 509.51456 254.50874 510.50873 Q 294.27573 510.50873 331.06018 498.57864 L 329.07184 490.62524 L 323.10678 467.75922 L 323.10678 467.75922 Z M 258.48544 378.2835 Q 265.44467 382.2602 268.4272 385.2427 Q 270.41553 386.2369 270.41553 387.23108 Q 270.41553 387.23108 270.41553 387.23108 Q 270.41553 387.23108 268.4272 389.21942 Q 265.44467 392.20193 258.48544 396.17865 Q 241.58447 404.13205 220.7068 407.11456 L 224.6835 438.92816 Q 249.53786 435.94562 272.40387 425.0097 Q 283.3398 420.03885 292.28738 411.09125 Q 301.23495 402.14368 302.22913 387.23108 Q 301.23495 372.31845 292.28738 363.37088 Q 285.32816 356.41165 276.38058 351.44077 Q 285.32816 346.4699 292.28738 339.51068 Q 301.23495 330.5631 302.22913 315.65048 Q 301.23495 300.73785 292.28738 291.79028 Q 283.3398 282.8427 272.40387 277.87186 Q 249.53786 266.9359 224.6835 263.9534 L 220.7068 295.767 Q 241.58447 298.7495 258.48544 306.7029 Q 265.44467 309.68542 268.4272 313.66214 Q 270.41553 314.6563 270.41553 315.65048 Q 270.41553 315.65048 270.41553 315.65048 Q 270.41553 315.65048 268.4272 317.63882 Q 265.44467 320.62137 258.48544 324.59805 Q 241.58447 332.55145 220.7068 335.53397 L 220.7068 367.34756 Q 241.58447 370.3301 258.48544 377.2893 L 258.48544 378.2835 Z M 270.41553 387.23108 L 270.41553 387.23108 L 270.41553 387.23108 L 270.41553 387.23108 Q 270.41553 387.23108 270.41553 387.23108 Q 270.41553 387.23108 270.41553 387.23108 L 270.41553 387.23108 Z M 270.41553 387.23108 Q 270.41553 387.23108 270.41553 387.23108 Q 270.41553 387.23108 270.41553 387.23108 Q 270.41553 387.23108 270.41553 387.23108 Q 270.41553 387.23108 270.41553 387.23108 Q 270.41553 387.23108 270.41553 387.23108 Q 270.41553 387.23108 270.41553 387.23108 Q 270.41553 387.23108 270.41553 387.23108 Q 270.41553 387.23108 270.41553 387.23108 L 270.41553 387.23108 Z M 270.41553 315.65048 L 270.41553 315.65048 L 270.41553 315.65048 L 270.41553 315.65048 Z M 270.41553 315.65048 Q 270.41553 315.65048 270.41553 315.65048 L 270.41553 315.65048 Q 270.41553 315.65048 270.41553 315.65048 L 270.41553 315.65048 L 270.41553 315.65048 L 270.41553 315.65048 Z M 174.97476 232.1398 Q 196.8466 230.15146 198.83495 208.27962 Q 196.8466 186.40776 174.97476 184.41942 Q 153.1029 186.40776 151.11456 208.27962 Q 153.1029 230.15146 174.97476 232.1398 L 174.97476 232.1398 Z M 376.79224 238.10486 L 402.64078 218.22136 Q 374.8039 184.41942 334.04272 184.41942 Q 293.28156 184.41942 265.44467 218.22136 L 291.2932 238.10486 Q 308.19418 216.23302 334.04272 216.23302 Q 359.89127 216.23302 376.79224 238.10486 L 376.79224 238.10486 Z M 438.43106 360.38834 Q 432.46603 338.5165 414.57086 327.5806 L 414.57086 327.5806 Q 395.68155 315.65048 373.80972 321.61554 Q 350.9437 328.57477 341.00195 347.46408 Q 331.06018 366.3534 336.03107 388.22525 L 359.89127 482.67184 L 363.86795 498.57864 L 379.77475 493.60776 L 470.24466 468.7534 Q 492.11652 461.7942 502.05826 442.90485 Q 512 424.01553 507.0291 402.14368 Q 501.0641 379.27768 483.16895 368.34174 Q 464.2796 357.40582 441.4136 362.3767 L 439.42523 363.37088 L 438.43106 360.38834 L 438.43106 360.38834 Z M 381.7631 352.43494 Q 400.65244 348.45825 407.61166 368.34174 L 412.58252 387.23108 L 416.55923 403.13788 L 432.46603 398.167 L 450.36118 393.1961 Q 469.2505 390.2136 476.20972 410.09708 Q 479.19223 430.97476 461.2971 437.934 L 386.73398 458.81165 L 366.8505 380.27185 Q 363.86795 359.39417 381.7631 352.43494 L 381.7631 352.43494 Z" />
</svg>