<svg xmlns="http://www.w3.org/2000/svg" viewBox="0 0 320 448">
  <path d="M 8 0 L 0 0 L 8 0 L 0 0 L 0 8 L 0 8 L 0 208 L 0 208 L 0 216 L 0 216 L 0 224 L 0 224 L 0 440 L 0 440 L 0 448 L 0 448 L 8 448 L 200 448 Q 251 447 285 413 Q 319 379 320 328 Q 319 285 294 253 Q 268 221 228 211 Q 255 197 271 171 Q 288 145 288 112 Q 287 64 255 33 Q 224 1 176 0 L 8 0 L 8 0 Z M 176 208 L 16 208 L 176 208 L 16 208 L 16 16 L 16 16 L 176 16 L 176 16 Q 217 17 244 44 Q 271 71 272 112 Q 271 153 244 180 Q 217 207 176 208 L 176 208 Z M 16 224 L 176 224 L 16 224 L 200 224 Q 244 225 274 254 Q 303 284 304 328 Q 303 372 274 402 Q 244 431 200 432 L 16 432 L 16 432 L 16 224 L 16 224 Z" />
</svg>