<svg xmlns="http://www.w3.org/2000/svg" viewBox="0 0 637 506">
  <path d="M 290 4 L 285 0 L 290 4 L 285 0 L 280 4 L 280 4 L 0 244 L 0 244 L 10 256 L 10 256 L 61 213 L 61 213 L 61 498 L 61 498 L 61 506 L 61 506 L 69 506 L 392 506 Q 381 499 372 490 L 77 490 L 77 490 L 77 199 L 77 199 L 285 21 L 285 21 L 479 187 L 479 187 Q 486 186 493 186 Q 498 186 503 186 L 290 4 L 290 4 Z M 364 242 L 325 242 L 364 242 L 325 242 L 325 178 L 325 178 L 325 170 L 325 170 L 317 170 L 245 170 L 245 178 L 245 178 L 245 242 L 245 242 L 181 242 L 173 242 L 173 250 L 173 250 L 173 314 L 173 314 L 173 322 L 173 322 L 181 322 L 245 322 L 245 386 L 245 386 L 245 394 L 245 394 L 253 394 L 320 394 Q 318 382 317 370 L 309 370 L 309 370 L 309 378 L 309 378 L 261 378 L 261 378 L 261 314 L 261 314 L 261 306 L 261 306 L 253 306 L 189 306 L 189 258 L 189 258 L 253 258 L 261 258 L 261 250 L 261 250 L 261 186 L 261 186 L 309 186 L 309 186 L 309 250 L 309 250 L 309 258 L 309 258 L 317 258 L 351 258 Q 357 250 364 242 L 364 242 Z M 365 362 Q 365 327 382 298 L 382 298 L 382 298 Q 399 269 429 251 Q 459 234 493 234 Q 527 234 557 251 Q 587 269 604 298 Q 621 327 621 362 Q 621 397 604 426 Q 587 455 557 473 Q 527 490 493 490 Q 459 490 429 473 Q 399 455 382 426 Q 365 397 365 362 L 365 362 Z M 637 362 Q 637 323 618 290 L 618 290 L 618 290 Q 599 257 565 237 Q 531 218 493 218 Q 455 218 421 237 Q 387 257 368 290 Q 349 323 349 362 Q 349 401 368 434 Q 387 467 421 487 Q 455 506 493 506 Q 531 506 565 487 Q 599 467 618 434 Q 637 401 637 362 L 637 362 Z M 555 312 L 560 306 L 555 312 L 560 306 L 549 295 L 549 295 L 543 300 L 543 300 L 493 351 L 493 351 L 443 300 L 443 300 L 437 295 L 437 295 L 426 306 L 426 306 L 431 312 L 431 312 L 482 362 L 482 362 L 431 412 L 431 412 L 426 418 L 426 418 L 437 429 L 437 429 L 443 424 L 443 424 L 493 373 L 493 373 L 543 424 L 543 424 L 549 429 L 549 429 L 560 418 L 560 418 L 555 412 L 555 412 L 504 362 L 504 362 L 555 312 L 555 312 Z" />
</svg>