<svg xmlns="http://www.w3.org/2000/svg" viewBox="0 0 512 384">
  <path d="M 16 117 L 16 126 L 16 117 L 16 126 Q 17 127 18 128 Q 21 132 27 139 Q 40 154 68 173 Q 69 174 69 174 Q 100 155 146 142 Q 192 129 256 128 Q 320 129 366 142 Q 412 155 443 174 Q 443 174 443 174 Q 444 174 444 173 Q 472 154 485 139 Q 491 132 495 128 Q 495 127 495 127 Q 496 126 496 126 L 496 117 L 496 117 Q 485 101 455 77 Q 426 54 376 35 Q 327 17 256 16 Q 185 17 136 35 Q 87 54 57 77 Q 27 101 16 117 L 16 117 Z M 427 184 Q 398 167 356 156 L 356 156 L 356 156 Q 314 145 256 144 Q 198 145 156 156 Q 114 167 85 184 Q 113 200 156 212 Q 198 223 256 224 Q 314 223 356 212 Q 399 200 427 184 L 427 184 Z M 16 267 Q 27 283 57 307 L 57 307 L 57 307 Q 87 330 136 349 L 136 349 L 136 349 Q 185 367 256 368 Q 327 367 376 349 Q 426 330 455 307 Q 485 283 496 267 L 496 150 L 496 150 Q 482 166 453 187 Q 423 208 374 223 Q 325 239 256 240 Q 187 239 138 223 Q 89 208 59 187 Q 30 166 16 151 L 16 267 L 16 267 Z M 512 112 L 512 272 L 512 112 L 512 272 Q 501 289 470 315 Q 439 341 386 362 Q 333 383 256 384 Q 179 383 126 362 Q 73 341 42 315 Q 11 289 0 272 L 0 112 L 0 112 Q 11 95 42 69 Q 73 43 126 22 Q 179 1 256 0 Q 333 1 386 22 Q 439 43 470 69 Q 501 95 512 112 L 512 112 Z" />
</svg>