<svg xmlns="http://www.w3.org/2000/svg" viewBox="0 0 512 512">
  <path d="M 496 256 Q 495 191 464 136 L 464 136 L 464 136 Q 432 81 376 48 Q 319 16 256 16 Q 193 16 136 48 Q 80 81 48 136 Q 17 191 16 256 Q 17 321 48 376 Q 80 431 136 464 Q 193 496 256 496 Q 319 496 376 464 Q 432 431 464 376 Q 495 321 496 256 L 496 256 Z M 0 256 Q 1 186 34 128 L 34 128 L 34 128 Q 68 70 128 34 Q 189 0 256 0 Q 323 0 384 34 Q 444 70 478 128 Q 511 186 512 256 Q 511 326 478 384 Q 444 442 384 478 Q 323 512 256 512 Q 189 512 128 478 Q 68 442 34 384 Q 1 326 0 256 L 0 256 Z M 212 361 L 256 390 L 212 361 L 256 390 L 300 361 L 300 361 L 304 358 L 304 358 L 308 361 L 308 361 L 353 391 L 353 391 L 380 377 L 380 377 L 388 373 L 388 373 L 395 387 L 395 387 L 388 391 L 388 391 L 356 407 L 356 407 L 351 409 L 351 409 L 347 407 L 347 407 L 304 378 L 304 378 L 260 407 L 260 407 L 256 410 L 256 410 L 251 407 L 251 407 L 208 378 L 208 378 L 164 407 L 164 407 L 160 409 L 160 409 L 156 407 L 156 407 L 124 391 L 124 391 L 117 387 L 117 387 L 124 373 L 124 373 L 131 377 L 131 377 L 159 391 L 159 391 L 203 361 L 203 361 L 208 358 L 208 358 L 212 361 L 212 361 Z M 132 205 L 140 209 L 132 205 L 140 209 L 220 249 L 220 249 L 234 256 L 234 256 L 220 263 L 220 263 L 140 303 L 140 303 L 132 307 L 132 307 L 125 293 L 125 293 L 132 289 L 132 289 L 198 256 L 198 256 L 132 223 L 132 223 L 125 220 L 125 220 L 132 205 L 132 205 Z M 372 209 L 380 205 L 372 209 L 380 205 L 387 219 L 387 219 L 380 223 L 380 223 L 314 256 L 314 256 L 380 289 L 380 289 L 387 292 L 387 292 L 380 307 L 380 307 L 372 303 L 372 303 L 292 263 L 292 263 L 278 256 L 278 256 L 292 249 L 292 249 L 372 209 L 372 209 Z" />
</svg>