<svg xmlns="http://www.w3.org/2000/svg" viewBox="0 0 512 512">
  <path d="M 80 8 L 80 0 L 80 8 L 80 0 L 64 0 L 64 0 L 64 8 L 64 8 Q 64 48 78 66 Q 91 83 107 91 L 107 91 L 107 91 Q 122 98 132 111 Q 142 123 142 160 L 142 168 L 142 168 L 158 168 L 158 168 L 158 160 L 158 160 Q 158 120 145 102 Q 131 85 116 77 L 115 77 L 115 77 Q 100 70 91 57 Q 81 45 80 8 L 80 8 Z M 210 8 L 210 0 L 210 8 L 210 0 L 194 0 L 194 0 L 194 8 L 194 8 Q 194 48 207 66 Q 221 83 236 91 L 237 91 L 237 91 Q 252 98 261 111 Q 271 123 272 160 L 272 168 L 272 168 L 288 168 L 288 168 L 288 160 L 288 160 Q 288 120 274 102 Q 261 85 245 77 L 245 77 L 245 77 Q 230 70 221 57 Q 210 45 210 8 L 210 8 Z M 344 208 L 368 208 L 344 208 L 368 208 L 368 496 L 368 496 L 16 496 L 16 496 L 16 208 L 16 208 L 344 208 L 344 208 Z M 384 384 L 384 208 L 384 384 L 384 208 L 408 208 L 408 208 Q 445 209 470 234 Q 495 259 496 296 Q 495 333 470 358 Q 445 383 408 384 L 384 384 L 384 384 Z M 384 496 L 384 400 L 384 496 L 384 400 L 408 400 L 408 400 Q 452 399 482 370 Q 511 340 512 296 Q 511 252 482 222 Q 452 193 408 192 L 384 192 L 0 192 L 0 208 L 0 208 L 0 496 L 0 496 L 0 512 L 0 512 L 16 512 L 384 512 L 384 496 L 384 496 Z" />
</svg>