<svg xmlns="http://www.w3.org/2000/svg" viewBox="0 0 512 272">
  <path d="M 268 0 L 244 0 L 268 0 L 244 0 L 244 24 L 244 24 L 268 24 L 268 24 L 268 0 L 268 0 Z M 65 96 L 82 113 L 65 96 L 82 113 L 99 96 L 99 96 L 82 79 L 82 79 L 65 96 L 65 96 Z M 24 248 L 0 248 L 24 248 L 0 248 L 0 272 L 0 272 L 24 272 L 24 272 L 24 248 L 24 248 Z M 136 256 L 128 256 L 136 256 L 128 256 L 128 272 L 128 272 L 136 272 L 384 272 L 384 256 L 384 256 L 376 256 L 136 256 Z M 512 248 L 488 248 L 512 248 L 488 248 L 488 272 L 488 272 L 512 272 L 512 272 L 512 248 L 512 248 Z M 417 96 L 434 113 L 417 96 L 434 113 L 451 96 L 451 96 L 434 79 L 434 79 L 417 96 L 417 96 Z" />
</svg>