<svg xmlns="http://www.w3.org/2000/svg" viewBox="0 0 640 505">
  <path d="M 323 2 L 320 0 L 323 2 L 320 0 L 317 2 L 317 2 L 5 122 L 5 122 L 0 124 L 0 124 L 0 129 L 0 129 L 0 497 L 0 497 L 0 505 L 0 505 L 16 505 L 16 505 L 16 497 L 16 497 L 16 135 L 16 135 L 320 18 L 320 18 L 624 135 L 624 135 L 624 497 L 624 497 L 624 505 L 624 505 L 640 505 L 640 505 L 640 497 L 640 497 L 640 129 L 640 129 L 640 124 L 640 124 L 635 122 L 635 122 L 323 2 L 323 2 Z M 104 185 L 96 185 L 104 185 L 96 185 L 96 193 L 96 193 L 96 497 L 96 497 L 96 505 L 96 505 L 112 505 L 112 505 L 112 497 L 112 497 L 112 201 L 112 201 L 528 201 L 528 201 L 528 497 L 528 497 L 528 505 L 528 505 L 544 505 L 544 505 L 544 497 L 544 497 L 544 193 L 544 193 L 544 185 L 544 185 L 536 185 L 104 185 Z M 225 233 L 231 233 L 225 233 L 415 233 L 417 239 L 417 239 L 446 329 L 446 329 L 472 329 L 480 329 L 480 337 L 480 337 L 480 497 L 480 497 L 480 505 L 480 505 L 464 505 L 464 505 L 464 497 L 464 497 L 464 457 L 464 457 L 176 457 L 176 457 L 176 497 L 176 497 L 176 505 L 176 505 L 160 505 L 160 505 L 160 497 L 160 497 L 160 337 L 160 337 L 160 329 L 160 329 L 168 329 L 194 329 L 224 239 L 224 239 L 225 233 L 225 233 Z M 176 441 L 464 441 L 176 441 L 464 441 L 464 345 L 464 345 L 176 345 L 176 345 L 176 441 L 176 441 Z M 403 249 L 237 249 L 403 249 L 237 249 L 211 329 L 211 329 L 429 329 L 429 329 L 403 249 L 403 249 Z M 208 393 Q 209 378 224 377 Q 239 378 240 393 Q 239 408 224 409 Q 209 408 208 393 L 208 393 Z M 416 377 Q 431 378 432 393 Q 431 408 416 409 Q 401 408 400 393 Q 401 378 416 377 L 416 377 Z" />
</svg>