<svg xmlns="http://www.w3.org/2000/svg" viewBox="0 0 384 512">
  <path d="M 96 8 L 96 0 L 96 8 L 96 0 L 80 0 L 80 0 L 80 8 L 80 8 L 80 96 L 80 96 L 8 96 L 8 96 Q 1 97 0 104 L 0 312 L 0 312 Q 0 315 2 318 L 32 347 L 32 347 L 32 504 L 32 504 Q 33 511 40 512 L 344 512 L 344 512 Q 351 511 352 504 L 352 347 L 352 347 L 382 318 L 382 318 Q 384 315 384 312 L 384 104 L 384 104 Q 383 97 376 96 L 320 96 L 320 96 L 320 64 L 320 64 L 320 56 L 320 56 L 312 56 L 256 56 L 256 64 L 256 64 L 256 96 L 256 96 L 224 96 L 224 96 L 224 64 L 224 64 L 224 56 L 224 56 L 216 56 L 160 56 L 160 64 L 160 64 L 160 96 L 160 96 L 96 96 L 96 96 L 96 8 L 96 8 Z M 272 96 L 272 72 L 272 96 L 272 72 L 304 72 L 304 72 L 304 96 L 304 96 L 272 96 L 272 96 Z M 208 72 L 208 96 L 208 72 L 208 96 L 176 96 L 176 96 L 176 72 L 176 72 L 208 72 L 208 72 Z M 80 112 L 96 112 L 80 112 L 368 112 L 368 309 L 368 309 L 338 338 L 338 338 Q 336 341 336 344 L 336 496 L 336 496 L 48 496 L 48 496 L 48 344 L 48 344 Q 48 341 46 338 L 16 309 L 16 309 L 16 112 L 16 112 L 80 112 L 80 112 Z M 96 176 L 96 192 L 96 176 L 96 192 L 104 192 L 288 192 L 288 176 L 288 176 L 280 176 L 96 176 Z M 96 240 L 96 256 L 96 240 L 96 256 L 104 256 L 288 256 L 288 240 L 288 240 L 280 240 L 96 240 Z M 96 304 L 96 320 L 96 304 L 96 320 L 104 320 L 288 320 L 288 304 L 288 304 L 280 304 L 96 304 Z" />
</svg>