<svg xmlns="http://www.w3.org/2000/svg" viewBox="0 0 512 512">
  <path d="M 512 512 L 0 512 L 512 512 L 0 512 L 0 496 L 0 496 L 512 496 L 512 496 L 512 512 L 512 512 Z M 208 400 L 208 16 L 208 400 L 208 16 L 80 16 L 80 16 L 80 400 L 80 400 L 208 400 L 208 400 Z M 80 416 L 64 416 L 80 416 L 64 416 L 64 400 L 64 400 L 64 16 L 64 16 L 64 0 L 64 0 L 80 0 L 224 0 L 224 16 L 224 16 L 224 400 L 224 400 L 224 416 L 224 416 L 208 416 L 80 416 Z M 432 400 L 432 144 L 432 400 L 432 144 L 304 144 L 304 144 L 304 400 L 304 400 L 432 400 L 432 400 Z M 304 416 L 288 416 L 304 416 L 288 416 L 288 400 L 288 400 L 288 144 L 288 144 L 288 128 L 288 128 L 304 128 L 448 128 L 448 144 L 448 144 L 448 400 L 448 400 L 448 416 L 448 416 L 432 416 L 304 416 Z" />
</svg>