<svg xmlns="http://www.w3.org/2000/svg" viewBox="0 0 384 448">
  <path d="M 288 9 Q 273 5 257 3 Q 241 0 224 0 Q 161 1 111 31 Q 60 60 31 111 Q 1 161 0 224 Q 1 287 31 337 Q 60 388 111 417 Q 161 447 224 448 Q 302 447 360 402 Q 373 392 384 381 Q 369 385 354 386 Q 345 387 335 387 Q 254 385 200 331 Q 146 277 144 195 Q 144 135 176 89 Q 207 42 259 19 Q 273 13 287 9 L 288 9 Z M 230 16 Q 183 44 156 91 L 156 91 L 156 91 Q 128 137 128 195 Q 130 282 187 340 Q 244 399 330 403 Q 283 431 224 432 Q 136 430 77 371 Q 18 312 16 224 Q 18 136 77 77 Q 136 18 224 16 Q 227 16 230 16 L 230 16 Z" />
</svg>