<svg xmlns="http://www.w3.org/2000/svg" viewBox="0 0 572 512">
  <path d="M 350 80 Q 349 116 318 135 Q 286 153 254 135 Q 223 116 222 80 Q 223 44 254 25 Q 286 7 318 25 Q 349 44 350 80 L 350 80 Z M 286 0 Q 252 1 229 23 L 229 23 L 229 23 Q 207 46 206 80 Q 207 112 227 134 Q 247 156 278 160 Q 278 160 278 160 Q 278 160 278 160 L 278 208 L 278 208 L 198 208 L 190 208 L 190 224 L 190 224 L 198 224 L 278 224 L 278 496 L 278 496 L 86 496 L 86 496 L 86 291 L 86 291 L 144 350 L 144 350 L 156 338 L 156 338 L 84 266 L 84 266 L 78 261 L 78 261 L 72 266 L 72 266 Q 72 266 72 266 L 0 338 L 0 338 L 12 350 L 12 350 L 70 291 L 70 291 L 70 504 L 70 504 L 70 512 L 70 512 L 78 512 L 502 512 L 502 504 L 502 504 L 502 291 L 502 291 L 560 350 L 560 350 L 572 338 L 572 338 L 500 266 L 500 266 Q 500 266 500 266 Q 500 266 500 266 L 494 261 L 494 261 L 488 266 L 488 266 L 416 338 L 416 338 L 428 350 L 428 350 L 486 291 L 486 291 L 486 496 L 486 496 L 294 496 L 294 496 L 294 224 L 294 224 L 374 224 L 382 224 L 382 208 L 382 208 L 374 208 L 294 208 L 294 160 L 294 160 Q 294 160 294 160 Q 294 160 294 160 Q 325 156 345 134 Q 365 112 366 80 Q 365 46 343 23 Q 320 1 286 0 L 286 0 Z" />
</svg>