<svg xmlns="http://www.w3.org/2000/svg" viewBox="0 0 568 512">
  <path d="M 167 135 L 192 160 L 167 135 L 192 160 L 288 256 L 288 256 L 384 160 L 384 160 L 409 135 L 409 135 Q 432 112 432 79 L 432 76 L 432 76 Q 431 44 410 22 Q 388 1 356 0 Q 320 1 297 28 L 288 40 L 288 40 L 279 28 L 279 28 Q 256 1 220 0 Q 188 1 166 22 Q 145 44 144 76 L 144 79 L 144 79 Q 144 112 167 135 L 167 135 Z M 140 327 L 69 384 L 140 327 L 69 384 L 0 384 L 0 384 L 0 512 L 0 512 L 32 512 L 396 512 L 407 505 L 407 505 L 535 417 L 535 417 L 568 394 L 568 394 L 522 328 L 522 328 L 489 351 L 489 351 L 395 416 L 395 416 L 256 416 L 256 416 L 256 384 L 256 384 L 288 384 L 384 384 L 384 320 L 384 320 L 352 320 L 149 320 L 140 327 L 140 327 Z" />
</svg>