<svg xmlns="http://www.w3.org/2000/svg" viewBox="0 0 511 512">
  <path d="M 128 416 L 128 496 L 128 416 L 128 496 L 16 496 L 16 496 L 16 416 L 16 416 L 128 416 L 128 416 Z M 128 112 L 128 400 L 128 112 L 128 400 L 16 400 L 16 400 L 16 112 L 16 112 L 128 112 L 128 112 Z M 128 16 L 128 96 L 128 16 L 128 96 L 16 96 L 16 96 L 16 16 L 16 16 L 128 16 L 128 16 Z M 144 0 L 128 0 L 144 0 L 0 0 L 0 16 L 0 16 L 0 96 L 0 96 L 0 104 L 0 104 L 0 112 L 0 112 L 0 400 L 0 400 L 0 408 L 0 408 L 0 416 L 0 416 L 0 496 L 0 496 L 0 512 L 0 512 L 16 512 L 272 512 L 272 496 L 272 496 L 272 416 L 272 416 L 272 408 L 272 408 L 272 400 L 272 400 L 272 171 L 272 171 L 332 394 L 332 394 L 334 401 L 334 401 L 336 409 L 336 409 L 359 496 L 359 496 L 364 512 L 364 512 L 379 508 L 379 508 L 496 477 L 496 477 L 511 472 L 511 472 L 507 457 L 507 457 L 483 370 L 483 370 L 481 362 L 481 362 L 479 354 L 479 354 L 416 119 L 416 119 L 414 111 L 414 111 L 412 103 L 412 103 L 389 16 L 389 16 L 384 0 L 384 0 L 369 4 L 369 4 L 272 30 L 272 30 L 272 16 L 272 16 L 272 0 L 272 0 L 256 0 L 144 0 Z M 272 47 L 373 20 L 272 47 L 373 20 L 397 107 L 397 107 L 280 138 L 280 138 L 272 109 L 272 109 L 272 104 L 272 104 L 272 96 L 272 96 L 272 47 L 272 47 Z M 256 496 L 144 496 L 256 496 L 144 496 L 144 416 L 144 416 L 256 416 L 256 416 L 256 496 L 256 496 Z M 256 96 L 144 96 L 256 96 L 144 96 L 144 16 L 144 16 L 256 16 L 256 16 L 256 96 L 256 96 Z M 256 400 L 144 400 L 256 400 L 144 400 L 144 112 L 144 112 L 256 112 L 256 112 L 256 400 L 256 400 Z M 375 492 L 351 405 L 375 492 L 351 405 L 468 374 L 468 374 L 492 461 L 492 461 L 375 492 L 375 492 Z M 347 389 L 284 154 L 347 389 L 284 154 L 401 123 L 401 123 L 464 358 L 464 358 L 347 389 L 347 389 Z" />
</svg>