<svg xmlns="http://www.w3.org/2000/svg" viewBox="0 0 512 512">
  <path d="M 80 0 L 208 0 L 80 0 L 208 0 Q 237 1 251 15 Q 264 29 272 48 Q 280 67 294 81 Q 307 95 336 96 L 431 96 L 448 96 L 443 112 L 443 112 L 379 304 L 379 304 L 408 304 L 416 304 L 416 320 L 416 320 L 408 320 L 96 320 L 96 304 L 96 304 L 104 304 L 132 304 L 68 16 L 68 16 L 64 0 L 64 0 L 80 0 L 80 0 Z M 362 304 L 426 112 L 362 304 L 426 112 L 336 112 L 336 112 Q 301 111 283 93 Q 266 75 258 56 L 258 55 L 258 55 Q 249 37 240 27 Q 231 17 208 16 L 84 16 L 84 16 L 148 304 L 148 304 L 362 304 L 362 304 Z M 496 240 L 434 240 L 496 240 L 434 240 L 439 224 L 439 224 L 496 224 L 512 224 L 512 240 L 512 240 L 512 496 L 512 496 L 512 512 L 512 512 L 496 512 L 0 512 L 0 496 L 0 496 L 0 240 L 0 240 L 0 224 L 0 224 L 16 224 L 81 224 L 85 240 L 85 240 L 16 240 L 16 240 L 16 384 L 16 384 L 496 384 L 496 384 L 496 240 L 496 240 Z M 496 400 L 16 400 L 496 400 L 16 400 L 16 496 L 16 496 L 496 496 L 496 496 L 496 400 L 496 400 Z" />
</svg>