<svg xmlns="http://www.w3.org/2000/svg" viewBox="0 0 512 512">
  <path d="M 332.8 89.6 L 25.6 89.6 L 25.6 396.8 L 251.2 396.8 Q 259.2 410.4 269.6 422.4 L 25.6 422.4 L 0 422.4 L 0 396.8 L 0 89.6 L 0 64 L 25.6 64 L 332.8 64 L 358.4 64 L 358.4 89.6 L 358.4 133.6 Q 345.6 144 332.8 155.2 L 332.8 89.6 L 332.8 89.6 Z M 288 200 Q 275.2 214.4 264 230.4 L 76.8 230.4 L 64 230.4 L 64 217.6 L 64 140.8 L 64 128 L 76.8 128 L 281.6 128 L 294.4 128 L 294.4 140.8 L 294.4 192.8 Q 291.2 196 288 200 L 288 200 Z M 89.6 153.6 L 89.6 204.8 L 268.8 204.8 L 268.8 153.6 L 89.6 153.6 L 89.6 153.6 Z M 102.4 294.4 L 76.8 294.4 L 76.8 268.8 L 102.4 268.8 L 102.4 294.4 L 102.4 294.4 Z M 128 268.8 L 153.6 268.8 L 153.6 294.4 L 128 294.4 L 128 268.8 L 128 268.8 Z M 204.8 268.8 L 204.8 294.4 L 179.2 294.4 L 179.2 268.8 L 204.8 268.8 L 204.8 268.8 Z M 410.4 256.8 L 391.2 234.4 Q 372.8 213.6 358.4 200.8 Q 344 213.6 326.4 233.6 Q 308 254.4 294.4 278.4 Q 281.6 302.4 281.6 320 Q 282.4 363.2 311.2 392.8 Q 340.8 421.6 384 422.4 Q 427.2 421.6 456.8 392.8 Q 485.6 363.2 486.4 320 Q 486.4 304.8 476.8 286.4 Q 468 268 453.6 249.6 Q 444 237.6 435.2 228.8 Q 432.8 231.2 429.6 234.4 L 410.4 256.8 L 410.4 256.8 Z M 358.4 166.4 Q 358.4 166.4 368.8 175.2 L 368.8 175.2 Q 378.4 184 392.8 198.4 Q 401.6 207.2 410.4 217.6 Q 420.8 205.6 428 199.2 Q 435.2 192 435.2 192 Q 435.2 192 435.2 192 Q 436.8 192.8 455.2 212 Q 473.6 231.2 492 260.8 Q 510.4 289.6 512 320 Q 510.4 374.4 474.4 410.4 Q 438.4 446.4 384 448 Q 329.6 446.4 293.6 410.4 Q 257.6 374.4 256 320 Q 257.6 284 282.4 248.8 Q 307.2 213.6 332 190.4 Q 356.8 167.2 358.4 166.4 L 358.4 166.4 Z M 359.2 248.8 L 368.8 260.8 Q 370.4 262.4 376 270.4 Q 382.4 278.4 389.6 288 L 400 301.6 L 422.4 285.6 L 432 277.6 L 440 288 Q 443.2 292.8 445.6 296.8 Q 445.6 297.6 446.4 298.4 L 446.4 298.4 Q 457.6 320.8 452.8 344.8 Q 448 368.8 427.2 384 L 427.2 384 L 427.2 384 Q 408 396.8 384.8 396.8 Q 355.2 396.8 334.4 378.4 Q 314.4 360 313.6 328 Q 313.6 311.2 323.2 295.2 Q 332.8 280 348.8 260.8 L 359.2 248.8 L 359.2 248.8 Z M 425.6 314.4 L 404.8 329.6 L 394.4 336.8 L 387.2 327.2 L 397.6 319.2 L 387.2 327.2 L 387.2 327.2 L 387.2 327.2 L 387.2 327.2 L 387.2 327.2 L 386.4 326.4 L 385.6 324.8 L 381.6 320 Q 379.2 316.8 376 312.8 Q 372.8 308 368.8 303.2 Q 367.2 300.8 365.6 298.4 Q 361.6 293.6 358.4 289.6 Q 350.4 300.8 345.6 308 Q 339.2 320 339.2 328 Q 340 349.6 352 360 Q 364 371.2 384.8 371.2 Q 400 371.2 412.8 362.4 Q 424 354.4 427.2 341.6 Q 431.2 328 425.6 314.4 L 425.6 314.4 Z" />
</svg>