<svg xmlns="http://www.w3.org/2000/svg" viewBox="0 0 512 512">
  <path d="M 496 256 Q 495 191 464 136 L 464 136 L 464 136 Q 432 81 376 48 Q 319 16 256 16 Q 193 16 136 48 Q 80 81 48 136 Q 17 191 16 256 Q 17 321 48 376 Q 80 431 136 464 Q 193 496 256 496 Q 319 496 376 464 Q 432 431 464 376 Q 495 321 496 256 L 496 256 Z M 0 256 Q 1 186 34 128 L 34 128 L 34 128 Q 68 70 128 34 Q 189 0 256 0 Q 323 0 384 34 Q 444 70 478 128 Q 511 186 512 256 Q 511 326 478 384 Q 444 442 384 478 Q 323 512 256 512 Q 189 512 128 478 Q 68 442 34 384 Q 1 326 0 256 L 0 256 Z M 411 229 Q 382 197 342 179 L 342 179 L 342 179 Q 302 160 256 160 Q 210 160 170 179 Q 130 197 101 229 L 90 218 L 90 218 Q 121 183 164 164 Q 206 144 256 144 Q 306 144 348 164 Q 391 183 422 218 L 411 229 L 411 229 Z M 352 288 L 341 299 L 352 288 L 341 299 Q 310 258 256 256 Q 202 258 171 299 L 160 288 L 160 288 Q 195 242 256 240 Q 317 242 352 288 L 352 288 Z M 256 368 Q 271 367 272 352 Q 271 337 256 336 Q 241 337 240 352 Q 241 367 256 368 L 256 368 Z M 256 320 Q 270 320 279 329 L 279 329 L 279 329 Q 288 338 288 352 Q 288 366 279 375 Q 270 384 256 384 Q 242 384 233 375 Q 224 366 224 352 Q 224 338 233 329 Q 242 320 256 320 L 256 320 Z" />
</svg>