<svg xmlns="http://www.w3.org/2000/svg" viewBox="0 0 640 512">
  <path d="M 183 347 Q 183 347 183 347 L 183 347 L 183 347 Q 183 347 183 347 Q 183 347 183 347 Q 183 347 183 347 L 183 347 L 183 347 L 184 346 L 184 346 Q 184 346 185 345 Q 186 344 188 343 Q 193 339 202 332 Q 220 317 244 291 Q 268 265 286 231 Q 303 198 304 160 Q 302 99 262 58 Q 221 18 160 16 Q 99 18 58 58 Q 18 99 16 160 Q 17 198 34 231 Q 52 265 76 291 Q 100 318 118 332 Q 127 339 132 343 Q 133 344 134 345 Q 135 346 136 346 L 137 347 L 137 347 L 137 347 L 137 347 Q 137 347 137 347 Q 137 347 137 347 Q 137 347 137 347 Q 137 347 137 347 Q 137 347 137 347 Q 137 347 137 347 Q 137 347 137 347 Q 137 347 137 347 L 145 352 L 145 352 L 175 352 L 175 352 L 183 347 L 183 347 Q 183 347 183 347 Q 183 347 183 347 Q 183 347 183 347 Q 183 347 183 347 L 183 347 Z M 119 432 L 201 432 L 119 432 L 201 432 L 178 368 L 178 368 L 176 368 L 142 368 L 119 432 L 119 432 Z M 218 432 L 224 448 L 218 432 L 224 448 L 207 448 L 96 448 L 102 432 L 102 432 L 128 360 L 128 360 Q 126 359 95 333 Q 64 307 33 262 Q 2 217 0 160 Q 2 92 47 47 Q 92 2 160 0 Q 228 2 273 47 Q 318 92 320 160 Q 318 217 287 262 Q 256 307 225 333 Q 194 359 192 360 L 218 432 L 218 432 Z M 325 262 Q 331 249 337 236 Q 340 270 357 301 Q 374 331 396 355 Q 420 382 438 396 Q 447 403 452 407 Q 453 408 454 409 Q 455 410 456 410 L 457 411 L 457 411 L 457 411 L 457 411 Q 457 411 457 411 Q 457 411 457 411 Q 457 411 457 411 Q 457 411 457 411 L 464 416 L 464 416 L 495 416 L 495 416 L 503 411 L 503 411 Q 503 411 503 411 Q 503 411 503 411 Q 503 411 503 411 Q 503 411 503 411 L 503 411 L 503 411 L 504 410 L 504 410 Q 505 409 508 407 Q 513 403 522 396 Q 540 381 564 355 Q 588 329 606 295 Q 623 262 624 224 Q 622 163 582 122 Q 541 82 480 80 Q 438 81 404 102 Q 370 123 352 158 Q 352 144 350 131 Q 372 100 406 82 Q 439 64 480 64 Q 548 66 593 111 Q 638 156 640 224 Q 638 281 607 326 Q 576 371 545 397 Q 514 423 512 424 Q 512 424 512 424 L 538 496 L 538 496 L 544 512 L 544 512 L 527 512 L 416 512 L 422 496 L 422 496 L 448 424 L 448 424 Q 446 424 421 403 Q 396 382 367 345 Q 338 309 325 262 L 325 262 Z M 462 432 L 439 496 L 462 432 L 439 496 L 521 496 L 521 496 L 498 432 L 498 432 L 496 432 L 462 432 Z M 96 152 L 96 160 L 96 152 L 96 160 L 80 160 L 80 160 L 80 152 L 80 152 Q 81 121 101 101 Q 121 81 152 80 L 160 80 L 160 80 L 160 96 L 160 96 L 152 96 L 152 96 Q 128 97 112 112 Q 97 128 96 152 L 96 152 Z M 416 216 L 416 224 L 416 216 L 416 224 L 400 224 L 400 224 L 400 216 L 400 216 Q 401 185 421 165 Q 441 145 472 144 L 480 144 L 480 144 L 480 160 L 480 160 L 472 160 L 472 160 Q 448 161 432 176 Q 417 192 416 216 L 416 216 Z" />
</svg>