<svg xmlns="http://www.w3.org/2000/svg" viewBox="0 0 448 448">
  <path d="M 432 16 L 16 16 L 432 16 L 16 16 L 16 432 L 16 432 L 432 432 L 432 432 L 432 16 L 432 16 Z M 448 0 L 448 16 L 448 0 L 448 16 L 448 432 L 448 432 L 448 448 L 448 448 L 432 448 L 0 448 L 0 432 L 0 432 L 0 16 L 0 16 L 0 0 L 0 0 L 16 0 L 448 0 Z M 350 230 L 246 334 L 350 230 L 246 334 L 240 339 L 240 339 L 229 328 L 229 328 L 234 322 L 234 322 L 325 232 L 325 232 L 104 232 L 96 232 L 96 216 L 96 216 L 104 216 L 325 216 L 234 126 L 234 126 L 229 120 L 229 120 L 240 109 L 240 109 L 246 114 L 246 114 L 350 218 L 350 218 L 355 224 L 355 224 L 350 230 L 350 230 Z" />
</svg>