<svg xmlns="http://www.w3.org/2000/svg" viewBox="0 0 640 480">
  <path d="M 208 360 Q 205 391 183 411 L 183 411 L 183 411 Q 162 431 130 432 L 130 432 L 130 432 Q 102 432 81 415 Q 61 398 54 371 L 48 339 L 48 339 L 1 349 L 1 349 L 7 381 L 7 381 Q 18 425 51 452 Q 85 479 130 480 Q 130 480 130 480 Q 130 480 130 480 Q 199 480 257 442 L 295 416 L 295 416 L 345 416 L 345 416 L 383 442 L 383 442 Q 441 480 510 480 Q 555 479 589 452 Q 622 425 633 381 L 640 349 L 640 349 L 593 339 L 593 339 L 586 371 L 586 371 Q 579 398 559 415 Q 538 432 510 432 Q 478 431 457 411 Q 435 391 432 360 Q 449 371 471 373 Q 501 374 524 358 Q 547 342 556 314 L 567 277 L 567 277 Q 572 260 586 250 Q 599 240 616 240 L 640 240 L 640 240 L 640 192 L 640 192 L 616 192 L 616 192 Q 582 193 557 212 Q 531 231 521 263 L 510 300 L 510 300 Q 501 325 475 325 Q 459 323 450 312 Q 440 300 443 284 L 462 175 L 462 175 Q 464 162 464 149 L 464 144 L 464 144 Q 462 83 422 42 Q 381 2 320 0 Q 259 2 218 42 Q 178 83 176 144 L 176 149 L 176 149 Q 176 162 178 175 L 197 284 L 197 284 Q 199 300 190 311 Q 181 323 166 325 Q 139 325 130 300 L 119 263 L 119 263 Q 109 231 83 212 Q 58 192 24 192 L 0 192 L 0 192 L 0 240 L 0 240 L 24 240 L 24 240 Q 41 240 54 250 Q 68 260 73 277 L 84 313 L 84 313 Q 93 342 116 358 Q 139 374 169 373 Q 191 371 208 360 L 208 360 Z M 240 272 Q 241 257 256 256 Q 271 257 272 272 Q 271 287 256 288 Q 241 287 240 272 L 240 272 Z M 384 256 Q 399 257 400 272 Q 399 287 384 288 Q 369 287 368 272 Q 369 257 384 256 L 384 256 Z" />
</svg>