<svg xmlns="http://www.w3.org/2000/svg" viewBox="0 0 384 512">
  <path d="M 112 16 L 208 16 L 112 16 L 208 16 L 208 80 L 208 80 L 112 80 L 112 80 L 112 16 L 112 16 Z M 96 80 L 64 80 L 96 80 L 64 80 L 64 96 L 64 96 L 96 96 L 256 96 L 256 80 L 256 80 L 224 80 L 224 80 L 224 16 L 224 16 L 224 0 L 224 0 L 208 0 L 96 0 L 96 16 L 96 16 L 96 80 L 96 80 Z M 368 144 L 368 496 L 368 144 L 368 496 L 16 496 L 16 496 L 16 256 L 16 256 Q 17 208 49 177 Q 80 145 128 144 L 368 144 L 368 144 Z M 128 128 Q 74 129 37 165 L 37 165 L 37 165 Q 1 202 0 256 L 0 496 L 0 496 L 0 512 L 0 512 L 16 512 L 384 512 L 384 496 L 384 496 L 384 144 L 384 144 L 384 128 L 384 128 L 368 128 L 128 128 Z M 248 208 L 240 208 L 248 208 L 240 208 L 240 216 L 240 216 L 240 360 L 240 360 L 240 368 L 240 368 L 248 368 L 320 368 L 320 360 L 320 360 L 320 216 L 320 216 L 320 208 L 320 208 L 312 208 L 248 208 Z M 256 352 L 256 224 L 256 352 L 256 224 L 304 224 L 304 224 L 304 352 L 304 352 L 256 352 L 256 352 Z" />
</svg>