<svg xmlns="http://www.w3.org/2000/svg" viewBox="0 0 608 480">
  <path d="M 21 432 L 140 16 L 21 432 L 140 16 L 280 16 L 280 16 L 280 72 L 280 72 L 280 80 L 280 80 L 296 80 L 296 80 L 296 72 L 296 72 L 296 16 L 296 16 L 436 16 L 436 16 L 477 161 L 477 161 Q 486 161 495 163 L 448 0 L 448 0 L 128 0 L 128 0 L 5 432 L 5 432 L 0 448 L 0 448 L 17 448 L 328 448 Q 322 440 316 432 L 296 432 L 296 432 L 296 389 L 296 389 Q 293 379 291 368 L 280 368 L 280 368 L 280 376 L 280 376 L 280 432 L 280 432 L 21 432 L 21 432 Z M 296 280 L 296 168 L 296 280 L 296 168 L 296 160 L 296 160 L 280 160 L 280 160 L 280 168 L 280 168 L 280 280 L 280 280 L 280 288 L 280 288 L 295 288 L 295 288 Q 295 286 296 283 L 296 280 L 296 280 Z M 464 208 Q 499 208 528 225 L 528 225 L 528 225 Q 557 242 575 272 Q 592 302 592 336 Q 592 370 575 400 Q 557 430 528 447 Q 499 464 464 464 Q 429 464 400 447 Q 371 430 353 400 Q 336 370 336 336 Q 336 302 353 272 Q 371 242 400 225 Q 429 208 464 208 L 464 208 Z M 464 480 Q 503 480 536 461 L 536 461 L 536 461 Q 569 442 589 408 Q 608 374 608 336 Q 608 298 589 264 Q 569 230 536 211 Q 503 192 464 192 Q 425 192 392 211 Q 359 230 339 264 Q 320 298 320 336 Q 320 374 339 408 Q 359 442 392 461 Q 425 480 464 480 L 464 480 Z M 539 296 L 528 285 L 539 296 L 528 285 L 522 290 L 522 290 L 448 365 L 448 365 L 406 322 L 406 322 L 400 317 L 400 317 L 389 328 L 389 328 L 394 334 L 394 334 L 442 382 L 442 382 L 448 387 L 448 387 L 454 382 L 454 382 L 534 302 L 534 302 L 540 296 L 539 296 Z" />
</svg>