<svg xmlns="http://www.w3.org/2000/svg" viewBox="0 0 320 448">
  <path d="M 288 0 L 288 19 L 288 0 L 288 19 L 93 192 L 93 192 L 192 192 L 192 192 Q 246 193 283 229 Q 319 266 320 320 Q 319 374 283 411 Q 246 447 192 448 L 96 448 L 96 448 Q 64 448 39 430 Q 15 412 5 382 L 4 379 L 4 379 L 1 371 L 1 371 L 16 366 L 16 366 L 19 374 L 19 374 L 20 377 L 20 377 Q 28 402 49 417 Q 69 432 96 432 L 192 432 L 192 432 Q 240 431 271 399 Q 303 368 304 320 Q 303 272 271 241 Q 240 209 192 208 L 72 208 L 64 208 L 64 196 L 64 196 L 67 194 L 67 194 L 267 16 L 267 16 L 8 16 L 0 16 L 0 0 L 0 0 L 8 0 L 288 0 Z" />
</svg>