<svg xmlns="http://www.w3.org/2000/svg" viewBox="0 0 512 512">
  <path d="M 417 6 L 412 0 L 417 6 L 412 0 L 400 12 L 400 12 L 406 17 L 406 17 L 416 28 L 416 28 L 318 126 L 318 126 Q 283 112 246 119 Q 209 125 180 153 L 11 322 L 11 322 L 0 334 L 0 334 L 11 345 L 11 345 L 167 501 L 167 501 L 179 512 L 179 512 L 190 501 L 190 501 L 359 332 L 359 332 Q 387 303 394 266 Q 400 229 386 194 L 484 96 L 484 96 L 495 106 L 495 106 L 501 112 L 501 112 L 512 100 L 512 100 L 506 95 L 506 95 L 417 6 L 417 6 Z M 473 84 L 412 145 L 473 84 L 412 145 L 367 100 L 367 100 L 428 39 L 428 39 L 473 84 L 473 84 Z M 356 111 L 401 156 L 356 111 L 401 156 L 375 183 L 375 183 L 367 190 L 367 190 L 371 200 L 371 200 Q 384 231 378 263 Q 372 295 347 321 L 340 328 L 340 328 L 184 172 L 184 172 L 192 165 L 192 165 Q 217 140 249 134 Q 281 128 312 141 L 322 145 L 322 145 L 329 137 L 329 137 L 356 111 L 356 111 Z M 172 184 L 328 340 L 172 184 L 328 340 L 244 424 L 244 424 L 88 268 L 88 268 L 172 184 L 172 184 Z M 76 280 L 232 436 L 76 280 L 232 436 L 179 489 L 179 489 L 23 334 L 23 334 L 76 280 L 76 280 Z" />
</svg>