<svg xmlns="http://www.w3.org/2000/svg" viewBox="0 0 640 512">
  <path d="M 176 0 Q 115 2 74 42 L 74 42 L 74 42 Q 34 83 32 144 L 32 280 L 32 280 L 32 288 L 32 288 L 40 288 L 299 288 Q 334 319 384 320 Q 434 319 469 288 L 496 288 L 608 288 L 608 280 L 608 280 L 608 180 L 608 180 L 608 176 L 608 176 L 608 174 L 608 174 Q 608 174 608 174 Q 608 174 608 174 Q 606 127 575 96 Q 543 65 496 64 Q 480 64 465 68 Q 449 37 419 19 Q 389 0 352 0 Q 302 1 267 32 Q 229 1 176 0 L 176 0 Z M 48 144 Q 49 90 85 53 L 85 53 L 85 53 Q 122 17 176 16 Q 227 17 262 49 L 267 54 L 267 54 L 273 49 L 273 49 Q 304 17 352 16 Q 386 16 413 34 Q 440 52 454 81 L 457 88 L 457 88 L 464 86 L 464 86 Q 479 80 496 80 Q 537 81 564 108 Q 591 135 592 176 Q 592 178 592 180 L 592 186 L 592 186 L 592 186 L 592 186 L 592 272 L 592 272 L 496 272 L 463 272 L 460 274 L 460 274 Q 429 303 384 304 Q 339 303 308 274 L 306 272 L 306 272 L 303 272 L 48 272 L 48 144 L 48 144 Z M 72 384 L 64 384 L 72 384 L 64 384 L 64 400 L 64 400 L 72 400 L 224 400 L 224 384 L 224 384 L 216 384 L 72 384 Z M 264 384 L 256 384 L 264 384 L 256 384 L 256 400 L 256 400 L 264 400 L 640 400 L 640 384 L 640 384 L 632 384 L 264 384 Z M 8 496 L 0 496 L 8 496 L 0 496 L 0 512 L 0 512 L 8 512 L 384 512 L 384 496 L 384 496 L 376 496 L 8 496 Z M 424 496 L 416 496 L 424 496 L 416 496 L 416 512 L 416 512 L 424 512 L 576 512 L 576 496 L 576 496 L 568 496 L 424 496 Z" />
</svg>