<svg xmlns="http://www.w3.org/2000/svg" viewBox="0 0 448 512">
  <path d="M 120 0 L 112 0 L 120 0 L 112 0 L 112 8 L 112 8 L 112 316 L 112 316 L 106 308 L 106 308 L 83 275 L 83 275 L 78 269 L 78 269 L 71 274 L 71 274 L 7 321 L 7 321 L 0 325 L 0 325 L 5 332 L 5 332 L 28 364 L 28 364 L 93 453 L 93 453 Q 113 481 144 496 Q 174 512 209 512 L 256 512 L 344 512 Q 388 511 418 482 Q 447 452 448 408 L 448 320 L 448 320 L 448 240 L 448 240 L 448 232 L 448 232 L 440 232 L 376 232 L 376 208 L 376 208 L 376 200 L 376 200 L 368 200 L 296 200 L 296 184 L 296 184 L 296 176 L 296 176 L 288 176 L 216 176 L 216 8 L 216 8 L 216 0 L 216 0 L 208 0 L 120 0 Z M 128 326 L 128 16 L 128 326 L 128 16 L 200 16 L 200 16 L 200 184 L 200 184 L 200 192 L 200 192 L 208 192 L 280 192 L 280 208 L 280 208 L 280 216 L 280 216 L 288 216 L 360 216 L 360 240 L 360 240 L 360 248 L 360 248 L 368 248 L 432 248 L 432 320 L 432 320 L 432 408 L 432 408 Q 431 445 406 470 Q 381 495 344 496 L 272 496 L 209 496 Q 178 496 151 482 Q 124 468 105 443 L 41 355 L 41 355 L 23 329 L 23 329 L 74 291 L 74 291 L 93 317 L 93 317 L 108 337 L 108 337 L 113 345 L 113 345 L 120 338 L 120 338 L 126 332 L 126 332 L 128 330 L 128 330 L 128 326 L 128 326 Z M 224 312 L 224 304 L 224 312 L 224 304 L 208 304 L 208 304 L 208 312 L 208 312 L 208 424 L 208 424 L 208 432 L 208 432 L 224 432 L 224 432 L 224 424 L 224 424 L 224 312 L 224 312 Z M 288 312 L 288 304 L 288 312 L 288 304 L 272 304 L 272 304 L 272 312 L 272 312 L 272 424 L 272 424 L 272 432 L 272 432 L 288 432 L 288 432 L 288 424 L 288 424 L 288 312 L 288 312 Z M 352 312 L 352 304 L 352 312 L 352 304 L 336 304 L 336 304 L 336 312 L 336 312 L 336 424 L 336 424 L 336 432 L 336 432 L 352 432 L 352 432 L 352 424 L 352 424 L 352 312 L 352 312 Z" />
</svg>