<svg xmlns="http://www.w3.org/2000/svg" viewBox="0 0 512 512">
  <path d="M 248 256 L 248 496 L 248 256 L 248 496 L 48 496 L 48 496 L 48 256 L 48 256 L 248 256 L 248 256 Z M 264 496 L 264 256 L 264 496 L 264 256 L 464 256 L 464 256 L 464 496 L 464 496 L 264 496 L 264 496 Z M 480 496 L 480 16 L 480 496 L 480 16 L 480 0 L 480 0 L 464 0 L 32 0 L 32 16 L 32 16 L 32 496 L 32 496 L 8 496 L 0 496 L 0 512 L 0 512 L 8 512 L 512 512 L 512 496 L 512 496 L 504 496 L 480 496 Z M 464 240 L 264 240 L 464 240 L 264 240 L 264 16 L 264 16 L 464 16 L 464 16 L 464 240 L 464 240 Z M 48 16 L 248 16 L 48 16 L 248 16 L 248 240 L 248 240 L 48 240 L 48 240 L 48 16 L 48 16 Z" />
</svg>