<svg xmlns="http://www.w3.org/2000/svg" viewBox="0 0 640 384">
  <path d="M 120 16 Q 96 17 80 32 L 80 32 L 80 32 Q 65 48 64 72 L 64 160 L 64 160 L 64 168 L 64 168 L 64 176 L 64 176 L 64 200 L 64 200 Q 64 222 50 237 Q 37 252 16 255 Q 12 256 8 256 L 0 256 L 0 256 L 0 240 L 0 240 L 0 216 L 0 216 Q 0 194 14 179 Q 27 164 48 161 L 48 72 L 48 72 Q 49 41 69 21 Q 89 1 120 0 L 168 0 L 476 0 L 478 3 L 478 3 L 560 113 L 560 113 L 560 112 L 560 112 L 568 112 L 624 112 L 624 120 L 624 120 L 624 144 L 624 144 L 624 200 L 624 200 L 638 219 L 638 219 L 640 221 L 640 221 L 640 224 L 640 224 L 640 376 L 640 376 L 640 384 L 640 384 L 632 384 L 556 384 L 554 381 L 554 381 L 488 293 L 488 293 Q 480 283 480 269 L 480 220 L 480 220 L 448 199 L 448 199 L 448 376 L 448 376 L 448 384 L 448 384 L 440 384 L 336 384 L 336 376 L 336 376 L 336 298 L 336 298 L 329 300 L 329 300 Q 317 302 304 304 L 304 304 L 304 304 L 304 320 L 304 320 L 304 328 L 304 328 L 288 328 L 288 328 L 288 320 L 288 320 L 288 305 L 288 305 Q 272 306 256 305 L 256 320 L 256 320 L 256 328 L 256 328 L 240 328 L 240 328 L 240 320 L 240 320 L 240 304 L 240 304 L 240 304 L 240 304 Q 227 302 215 300 L 208 298 L 208 298 L 208 376 L 208 376 L 208 384 L 208 384 L 200 384 L 96 384 L 96 376 L 96 376 L 96 72 L 96 72 Q 97 37 123 16 L 120 16 L 120 16 Z M 208 282 L 218 284 L 208 282 L 218 284 Q 272 296 326 284 L 336 282 L 336 282 L 336 264 L 336 264 Q 335 237 317 219 Q 299 201 272 200 Q 245 201 227 219 Q 209 237 208 264 L 208 282 L 208 282 Z M 160 17 Q 161 53 186 79 L 189 82 L 189 82 Q 220 111 262 112 L 266 112 L 266 112 Q 308 111 339 82 L 342 79 L 342 79 Q 367 53 368 16 L 368 16 L 368 16 L 184 16 L 168 16 Q 164 16 160 17 L 160 17 Z M 144 21 Q 114 37 112 72 L 112 368 L 112 368 L 192 368 L 192 368 L 192 264 L 192 264 Q 193 230 215 208 Q 238 185 272 184 Q 306 185 329 208 Q 351 230 352 264 L 352 368 L 352 368 L 432 368 L 432 368 L 432 184 L 432 184 L 432 169 L 432 169 L 444 178 L 444 178 L 492 210 L 492 210 L 496 212 L 496 212 L 496 216 L 496 216 L 496 269 L 496 269 Q 496 277 501 284 L 564 368 L 564 368 L 624 368 L 624 368 L 624 227 L 624 227 L 610 207 L 610 207 L 608 205 L 608 205 L 608 202 L 608 202 L 608 144 L 608 144 L 608 128 L 608 128 L 576 128 L 576 128 L 576 138 L 576 138 L 576 162 L 576 162 L 562 142 L 562 142 L 468 16 L 468 16 L 384 16 L 384 16 L 384 16 L 384 16 Q 383 59 354 90 L 350 93 L 350 93 Q 315 127 266 128 L 262 128 L 262 128 Q 213 127 177 93 L 174 90 L 174 90 Q 146 61 144 21 L 144 21 Z M 16 216 L 16 239 L 16 216 L 16 239 Q 46 231 48 200 L 48 177 L 48 177 Q 18 185 16 216 L 16 216 Z M 552 256 Q 553 241 568 240 Q 583 241 584 256 Q 583 271 568 272 Q 553 271 552 256 L 552 256 Z" />
</svg>