<svg xmlns="http://www.w3.org/2000/svg" viewBox="0 0 512 512">
  <path d="M 454.03775 82.113205 L 454.03775 429.88678 L 415.39624 429.88678 L 415.39624 82.113205 L 454.03775 82.113205 L 454.03775 82.113205 Z M 415.39624 24.150944 L 357.43396 24.150944 L 357.43396 82.113205 L 357.43396 429.88678 L 357.43396 487.84906 L 415.39624 487.84906 L 454.03775 487.84906 L 512 487.84906 L 512 429.88678 L 512 82.113205 L 512 24.150944 L 454.03775 24.150944 L 415.39624 24.150944 L 415.39624 24.150944 Z M 270.49057 236.67924 L 270.49057 429.88678 L 231.84906 429.88678 L 231.84906 236.67924 L 270.49057 236.67924 L 270.49057 236.67924 Z M 231.84906 178.71698 L 173.8868 178.71698 L 173.8868 236.67924 L 173.8868 429.88678 L 173.8868 487.84906 L 231.84906 487.84906 L 270.49057 487.84906 L 328.45282 487.84906 L 328.45282 429.88678 L 328.45282 236.67924 L 328.45282 178.71698 L 270.49057 178.71698 L 231.84906 178.71698 L 231.84906 178.71698 Z M 57.962265 391.24527 L 96.603775 391.24527 L 96.603775 429.88678 L 57.962265 429.88678 L 57.962265 391.24527 L 57.962265 391.24527 Z M 0 333.28302 L 0 391.24527 L 0 429.88678 L 0 487.84906 L 57.962265 487.84906 L 96.603775 487.84906 L 154.56604 487.84906 L 154.56604 429.88678 L 154.56604 391.24527 L 154.56604 333.28302 L 96.603775 333.28302 L 57.962265 333.28302 L 0 333.28302 L 0 333.28302 Z" />
</svg>