<svg xmlns="http://www.w3.org/2000/svg" viewBox="0 0 512 512">
  <path d="M 73 0 Q 104 0 126 22 L 114 33 L 114 33 Q 97 16 73 16 Q 49 17 33 33 Q 17 49 16 73 Q 16 97 34 114 L 128 202 L 128 202 L 222 114 L 222 114 Q 240 97 240 73 Q 239 49 223 33 Q 207 17 183 16 Q 159 16 142 33 L 139 35 L 139 35 L 128 47 L 128 47 L 117 35 L 117 35 L 114 33 L 114 33 L 126 22 L 126 22 L 128 24 L 128 24 L 131 22 L 131 22 Q 152 0 183 0 Q 214 1 234 21 Q 255 42 256 73 Q 256 104 233 126 L 128 224 L 128 224 L 23 126 L 23 126 Q 1 104 0 73 Q 1 42 22 21 Q 42 1 73 0 L 73 0 Z M 512 6 L 512 16 L 512 6 L 512 16 L 512 176 L 512 176 Q 512 176 512 176 Q 512 176 512 176 Q 511 196 493 210 Q 475 223 448 224 Q 421 223 403 210 Q 385 196 384 176 Q 385 156 403 142 Q 421 129 448 128 Q 478 129 496 144 L 496 26 L 496 26 L 352 55 L 352 55 L 352 208 L 352 208 Q 352 208 352 208 Q 352 208 352 208 Q 351 228 333 242 Q 315 255 288 256 Q 261 255 243 242 Q 225 228 224 208 Q 225 188 243 174 Q 261 161 288 160 Q 318 161 336 176 L 336 48 L 336 48 L 336 41 L 336 41 L 342 40 L 342 40 L 502 8 L 502 8 L 512 6 L 512 6 Z M 484 155 Q 470 145 448 144 Q 426 145 412 155 Q 400 165 400 176 Q 400 187 412 197 Q 426 207 448 208 Q 470 207 484 197 Q 496 187 496 176 Q 496 176 496 176 Q 496 176 496 176 Q 496 165 484 155 L 484 155 Z M 324 187 Q 310 177 288 176 Q 266 177 252 187 Q 240 197 240 208 Q 240 219 252 229 Q 266 239 288 240 Q 310 239 324 229 Q 336 219 336 208 Q 336 208 336 208 Q 336 208 336 208 Q 336 197 324 187 L 324 187 Z M 472 256 L 480 256 L 472 256 L 491 256 L 488 267 L 488 267 L 451 368 L 451 368 L 504 368 L 512 368 L 512 376 L 512 376 L 512 392 L 512 392 L 512 396 L 512 396 L 509 398 L 509 398 L 365 510 L 365 510 L 363 512 L 363 512 L 360 512 L 341 512 L 344 501 L 344 501 L 381 400 L 381 400 L 328 400 L 320 400 L 320 392 L 320 392 L 320 377 L 320 377 L 320 373 L 320 373 L 323 371 L 323 371 L 467 258 L 467 258 L 469 256 L 469 256 L 472 256 L 472 256 Z M 336 381 L 336 384 L 336 381 L 336 384 L 392 384 L 403 384 L 400 395 L 400 395 L 366 489 L 366 489 L 496 388 L 496 388 L 496 384 L 496 384 L 440 384 L 429 384 L 432 373 L 432 373 L 466 279 L 466 279 L 336 381 L 336 381 Z M 200 272 L 216 304 L 200 272 L 216 304 L 272 304 L 288 304 L 288 320 L 288 320 L 288 496 L 288 496 L 288 512 L 288 512 L 272 512 L 0 512 L 0 496 L 0 496 L 0 320 L 0 320 L 0 304 L 0 304 L 16 304 L 72 304 L 88 272 L 88 272 L 200 272 L 200 272 Z M 216 320 L 206 320 L 216 320 L 206 320 L 202 311 L 202 311 L 190 288 L 190 288 L 98 288 L 98 288 L 86 311 L 86 311 L 82 320 L 82 320 L 72 320 L 16 320 L 16 496 L 16 496 L 272 496 L 272 496 L 272 320 L 272 320 L 216 320 L 216 320 Z M 184 408 Q 183 385 164 373 Q 144 363 124 373 Q 105 385 104 408 Q 105 431 124 443 Q 144 453 164 443 Q 183 431 184 408 L 184 408 Z M 144 464 Q 112 463 96 436 Q 80 408 96 380 Q 112 353 144 352 Q 176 353 192 380 Q 208 408 192 436 Q 176 463 144 464 L 144 464 Z" />
</svg>