<svg xmlns="http://www.w3.org/2000/svg" viewBox="0 0 512 512">
  <path d="M 267 12 L 279 24 L 267 12 L 279 24 L 297 24 L 297 24 L 313 23 L 313 23 L 312 40 L 312 40 L 312 57 L 312 57 L 325 69 L 325 69 L 336 80 L 336 80 L 325 91 L 325 91 L 312 103 L 312 103 L 312 121 L 312 121 L 313 137 L 313 137 L 297 136 L 297 136 L 279 136 L 279 136 L 267 149 L 267 149 L 256 160 L 256 160 L 245 149 L 245 149 L 233 136 L 233 136 L 215 136 L 215 136 L 199 137 L 199 137 L 200 121 L 200 121 L 200 103 L 200 103 L 188 91 L 188 91 L 176 80 L 176 80 L 188 69 L 188 69 L 200 57 L 200 57 L 200 39 L 200 39 L 200 23 L 200 23 L 216 24 L 216 24 L 233 24 L 233 24 L 245 11 L 245 11 L 256 0 L 256 0 L 267 12 L 267 12 Z M 280 40 L 273 40 L 280 40 L 273 40 L 268 35 L 268 35 L 256 23 L 256 23 L 244 35 L 244 35 L 239 40 L 239 40 L 233 40 L 216 40 L 216 57 L 216 57 L 216 63 L 216 63 L 211 68 L 211 68 L 199 80 L 199 80 L 211 92 L 211 92 L 216 97 L 216 97 L 216 104 L 216 104 L 216 120 L 216 120 L 232 120 L 239 120 L 244 125 L 244 125 L 256 137 L 256 137 L 268 125 L 268 125 L 273 120 L 273 120 L 279 120 L 296 120 L 296 103 L 296 103 L 296 97 L 296 97 L 301 92 L 301 92 L 313 80 L 313 80 L 301 68 L 301 68 L 296 63 L 296 63 L 296 56 L 296 56 L 296 40 L 296 40 L 280 40 L 280 40 Z M 16 496 L 496 496 L 16 496 L 496 496 L 496 416 L 496 416 L 16 416 L 16 416 L 16 496 L 16 496 Z M 0 400 L 16 400 L 0 400 L 512 400 L 512 416 L 512 416 L 512 496 L 512 496 L 512 512 L 512 512 L 496 512 L 0 512 L 0 496 L 0 496 L 0 416 L 0 416 L 0 400 L 0 400 Z M 34 368 Q 36 343 48 297 L 48 297 L 48 297 Q 60 252 89 206 L 89 206 L 89 206 Q 117 159 168 132 L 168 136 L 168 136 L 167 150 L 167 150 Q 136 169 115 196 Q 94 223 81 255 Q 68 283 62 309 L 125 281 L 125 281 L 128 279 L 128 279 L 131 281 L 131 281 L 192 311 L 192 311 L 252 281 L 252 281 L 256 279 L 256 279 L 260 281 L 260 281 L 320 311 L 320 311 L 380 281 L 380 281 L 384 279 L 384 279 L 387 281 L 387 281 L 450 309 L 450 309 Q 443 283 431 254 Q 418 223 397 196 Q 376 169 345 150 L 344 136 L 344 136 L 344 132 L 344 132 Q 395 160 423 206 Q 452 252 464 298 Q 476 343 478 368 L 462 368 L 462 368 Q 461 358 458 344 Q 457 337 455 328 L 453 327 L 453 327 L 384 297 L 384 297 L 323 327 L 323 327 L 320 329 L 320 329 L 316 327 L 316 327 L 256 297 L 256 297 L 196 327 L 196 327 L 192 329 L 192 329 L 188 327 L 188 327 L 128 297 L 128 297 L 59 327 L 59 327 L 57 328 L 57 328 Q 55 335 54 341 Q 54 343 53 344 Q 51 358 50 368 L 34 368 L 34 368 Z" />
</svg>