<svg xmlns="http://www.w3.org/2000/svg" viewBox="0 0 512 512">
  <path d="M 496 256 Q 495 191 464 136 L 464 136 L 464 136 Q 432 81 376 48 Q 319 16 256 16 Q 193 16 136 48 Q 80 81 48 136 Q 17 191 16 256 Q 17 321 48 376 Q 80 431 136 464 Q 193 496 256 496 Q 319 496 376 464 Q 432 431 464 376 Q 495 321 496 256 L 496 256 Z M 0 256 Q 1 186 34 128 L 34 128 L 34 128 Q 68 70 128 34 Q 189 0 256 0 Q 323 0 384 34 Q 444 70 478 128 Q 511 186 512 256 Q 511 326 478 384 Q 444 442 384 478 Q 323 512 256 512 Q 189 512 128 478 Q 68 442 34 384 Q 1 326 0 256 L 0 256 Z M 322 413 Q 313 402 296 393 L 296 393 L 296 393 Q 279 384 256 384 Q 233 384 216 393 Q 199 402 190 413 L 185 419 L 185 419 L 173 409 L 173 409 L 178 403 L 178 403 Q 189 390 209 379 Q 228 369 256 368 Q 284 369 303 379 Q 323 390 334 403 L 339 409 L 339 409 L 327 419 L 327 419 L 322 413 L 322 413 Z M 211 104 L 206 110 L 211 104 L 206 110 L 198 117 L 198 117 Q 164 151 116 160 L 113 160 L 113 160 L 105 161 L 105 161 L 103 146 L 103 146 L 111 144 L 111 144 L 113 144 L 113 144 Q 156 136 187 106 L 194 98 L 194 98 L 200 93 L 200 93 L 211 104 L 211 104 Z M 306 110 L 301 104 L 306 110 L 301 104 L 312 93 L 312 93 L 318 98 L 318 98 L 325 106 L 325 106 Q 356 136 399 144 L 401 144 L 401 144 L 409 145 L 409 145 L 407 161 L 407 161 L 399 160 L 399 160 L 396 160 L 396 160 Q 348 151 314 117 L 306 110 L 306 110 Z M 132 221 L 140 225 L 132 221 L 140 225 L 220 265 L 220 265 L 234 272 L 234 272 L 220 279 L 220 279 L 140 319 L 140 319 L 132 323 L 132 323 L 125 309 L 125 309 L 132 305 L 132 305 L 198 272 L 198 272 L 132 239 L 132 239 L 125 236 L 125 236 L 132 221 L 132 221 Z M 372 225 L 380 221 L 372 225 L 380 221 L 387 236 L 387 236 L 380 239 L 380 239 L 314 272 L 314 272 L 380 305 L 380 305 L 387 308 L 387 308 L 380 323 L 380 323 L 372 319 L 372 319 L 292 279 L 292 279 L 278 272 L 278 272 L 292 265 L 292 265 L 372 225 L 372 225 Z" />
</svg>