<svg xmlns="http://www.w3.org/2000/svg" viewBox="0 0 384 512">
  <path d="M 214 427 Q 214 427 214 427 L 214 427 L 214 427 Q 214 427 214 427 Q 214 427 214 427 Q 214 427 214 427 Q 214 427 214 427 Q 214 427 215 427 L 215 427 L 215 427 L 216 426 L 216 426 Q 217 425 218 425 Q 219 424 221 422 Q 227 417 238 407 Q 262 388 292 354 Q 323 319 345 277 Q 367 236 368 192 Q 366 117 316 68 Q 267 18 192 16 Q 117 18 68 68 Q 18 117 16 192 Q 17 236 39 277 Q 61 319 92 354 Q 122 387 146 407 Q 157 417 163 422 Q 163 422 164 422 Q 166 425 168 426 L 169 427 L 169 427 L 170 427 L 170 427 Q 169 427 170 427 Q 170 427 170 427 Q 170 427 170 427 Q 170 427 170 427 Q 170 427 170 427 Q 170 427 170 427 Q 170 427 170 427 Q 170 427 170 427 L 176 432 L 176 432 L 208 432 L 208 432 L 214 427 L 214 427 Q 214 427 214 427 Q 214 427 214 427 L 214 427 Z M 210 448 L 174 448 L 210 448 L 174 448 L 153 496 L 153 496 L 232 496 L 232 496 L 210 448 L 210 448 Z M 249 496 L 256 512 L 249 496 L 256 512 L 238 512 L 128 512 L 135 496 L 135 496 L 160 440 L 160 440 Q 157 439 119 404 Q 80 369 41 313 Q 3 257 0 192 Q 2 110 56 56 Q 110 2 192 0 Q 274 2 328 56 Q 382 110 384 192 Q 381 257 343 313 Q 304 369 265 404 Q 227 439 224 440 L 249 496 L 249 496 Z M 168 96 Q 137 97 117 117 L 117 117 L 117 117 Q 97 137 96 168 L 96 176 L 96 176 L 80 176 L 80 176 L 80 168 L 80 168 Q 81 131 106 106 Q 131 81 168 80 L 176 80 L 176 80 L 176 96 L 176 96 L 168 96 L 168 96 Z" />
</svg>