<svg xmlns="http://www.w3.org/2000/svg" viewBox="0 0 504 512">
  <path d="M 16 496 L 112 496 L 16 496 L 112 496 L 112 512 L 112 512 L 16 512 L 0 512 L 0 496 L 0 496 L 0 16 L 0 16 L 0 0 L 0 0 L 16 0 L 224 0 L 384 160 L 384 160 L 384 304 L 384 304 L 368 304 L 368 304 L 368 176 L 368 176 L 216 176 L 208 176 L 208 168 L 208 168 L 208 16 L 208 16 L 16 16 L 16 16 L 16 496 L 16 496 Z M 361 160 L 224 23 L 361 160 L 224 23 L 224 160 L 224 160 L 361 160 L 361 160 Z M 200 368 L 216 368 L 200 368 L 216 368 Q 230 368 239 377 Q 248 386 248 400 L 248 408 L 248 408 L 248 416 L 248 416 L 232 416 L 232 416 L 232 408 L 232 408 L 232 400 L 232 400 Q 231 385 216 384 L 200 384 L 200 384 Q 185 385 184 400 L 184 480 L 184 480 Q 185 495 200 496 L 216 496 L 216 496 Q 231 495 232 480 L 232 472 L 232 472 L 232 464 L 232 464 L 248 464 L 248 464 L 248 472 L 248 472 L 248 480 L 248 480 Q 248 494 239 503 Q 230 512 216 512 L 200 512 L 200 512 Q 186 512 177 503 Q 168 494 168 480 L 168 400 L 168 400 Q 168 386 177 377 Q 186 368 200 368 L 200 368 Z M 328 368 L 344 368 L 328 368 L 344 368 Q 358 368 367 377 Q 376 386 376 400 L 376 440 L 376 440 L 376 504 L 376 504 L 376 512 L 376 512 L 360 512 L 360 512 L 360 504 L 360 504 L 360 448 L 360 448 L 312 448 L 312 448 L 312 504 L 312 504 L 312 512 L 312 512 L 296 512 L 296 512 L 296 504 L 296 504 L 296 440 L 296 440 L 296 400 L 296 400 Q 296 386 305 377 Q 314 368 328 368 L 328 368 Z M 360 432 L 360 400 L 360 432 L 360 400 Q 359 385 344 384 L 328 384 L 328 384 Q 313 385 312 400 L 312 432 L 312 432 L 360 432 L 360 432 Z M 424 368 L 432 368 L 424 368 L 464 368 Q 481 368 492 380 Q 504 391 504 408 L 504 472 L 504 472 Q 504 489 492 500 Q 481 512 464 512 L 432 512 L 424 512 L 424 504 L 424 504 L 424 376 L 424 376 L 424 368 L 424 368 Z M 440 496 L 464 496 L 440 496 L 464 496 Q 486 494 488 472 L 488 408 L 488 408 Q 486 386 464 384 L 440 384 L 440 384 L 440 496 L 440 496 Z" />
</svg>