<svg xmlns="http://www.w3.org/2000/svg" viewBox="0 0 416 448">
  <path d="M 8 0 L 0 0 L 8 0 L 0 0 L 0 8 L 0 8 L 0 440 L 0 440 L 0 448 L 0 448 L 16 448 L 16 448 L 16 440 L 16 440 L 16 16 L 16 16 L 176 16 L 176 16 Q 213 17 238 42 Q 263 67 264 104 L 264 320 L 264 320 L 264 328 L 264 328 L 280 328 L 280 328 L 280 320 L 280 320 L 280 104 L 280 104 Q 279 60 250 30 Q 220 1 176 0 L 8 0 L 8 0 Z M 312 448 Q 356 447 386 418 L 386 418 L 386 418 Q 415 388 416 344 L 416 8 L 416 8 L 416 0 L 416 0 L 400 0 L 400 0 L 400 8 L 400 8 L 400 344 L 400 344 Q 399 381 374 406 Q 349 431 312 432 L 152 432 L 152 432 L 152 136 L 152 136 L 152 128 L 152 128 L 136 128 L 136 128 L 136 136 L 136 136 L 136 440 L 136 440 L 136 448 L 136 448 L 144 448 L 312 448 Z" />
</svg>