<svg xmlns="http://www.w3.org/2000/svg" viewBox="0 0 640 512">
  <path d="M 0 0 L 8 0 L 0 0 L 128 0 L 128 8 L 128 8 L 128 416 L 128 416 L 224 416 L 640 416 L 640 432 L 640 432 L 632 432 L 548 432 Q 560 445 560 464 Q 559 484 546 498 Q 532 511 512 512 Q 492 511 478 498 Q 465 484 464 464 Q 464 445 476 432 L 260 432 L 260 432 Q 272 445 272 464 Q 271 484 258 498 Q 244 511 224 512 Q 204 511 190 498 Q 177 484 176 464 Q 176 445 188 432 L 120 432 L 112 432 L 112 424 L 112 424 L 112 16 L 112 16 L 8 16 L 0 16 L 0 0 L 0 0 Z M 512 432 Q 498 432 489 441 L 489 441 L 489 441 Q 480 450 480 464 Q 480 478 489 487 Q 498 496 512 496 Q 526 496 535 487 Q 544 478 544 464 Q 544 450 535 441 Q 526 432 512 432 L 512 432 Z M 192 464 Q 192 478 201 487 L 201 487 L 201 487 Q 210 496 224 496 Q 238 496 247 487 Q 256 478 256 464 Q 256 450 247 441 Q 238 432 224 432 Q 210 432 201 441 Q 192 450 192 464 L 192 464 Z M 304 0 L 312 0 L 304 0 L 464 0 L 464 8 L 464 8 L 464 80 L 464 80 L 560 80 L 576 80 L 576 96 L 576 96 L 576 336 L 576 336 L 576 352 L 576 352 L 560 352 L 192 352 L 192 336 L 192 336 L 192 96 L 192 96 L 192 80 L 192 80 L 208 80 L 304 80 L 304 8 L 304 8 L 304 0 L 304 0 Z M 320 96 L 304 96 L 320 96 L 288 96 L 288 336 L 288 336 L 480 336 L 480 336 L 480 96 L 480 96 L 464 96 L 320 96 Z M 448 80 L 448 16 L 448 80 L 448 16 L 320 16 L 320 16 L 320 80 L 320 80 L 448 80 L 448 80 Z M 272 96 L 208 96 L 272 96 L 208 96 L 208 336 L 208 336 L 272 336 L 272 336 L 272 96 L 272 96 Z M 496 336 L 560 336 L 496 336 L 560 336 L 560 96 L 560 96 L 496 96 L 496 96 L 496 336 L 496 336 Z" />
</svg>