<svg xmlns="http://www.w3.org/2000/svg" viewBox="0 0 609 480">
  <path d="M 96 0 L 96 80 L 96 0 L 96 80 L 352 80 L 352 80 L 352 0 L 352 0 L 96 0 L 96 0 Z M 64 80 L 64 0 L 64 80 L 64 0 L 0 0 L 0 0 L 0 80 L 0 80 L 64 80 L 64 80 Z M 0 112 L 0 208 L 0 112 L 0 208 L 208 208 L 208 208 L 208 112 L 208 112 L 0 112 L 0 112 Z M 0 336 L 64 336 L 0 336 L 64 336 L 64 240 L 64 240 L 0 240 L 0 240 L 0 336 L 0 336 Z M 0 368 L 0 448 L 0 368 L 0 448 L 208 448 L 208 448 L 208 368 L 208 368 L 0 368 L 0 368 Z M 240 368 L 240 448 L 240 368 L 240 448 L 305 448 L 305 448 Q 274 414 262 368 L 240 368 L 240 368 Z M 448 112 L 445 112 L 448 112 L 445 112 L 448 115 L 448 115 L 448 112 L 448 112 Z M 240 112 L 240 208 L 240 112 L 240 208 L 291 208 L 291 208 Q 301 193 311 180 Q 347 137 382 112 L 240 112 L 240 112 Z M 96 240 L 96 336 L 96 240 L 96 336 L 257 336 L 257 336 Q 256 328 256 320 Q 257 277 274 240 L 96 240 L 96 240 Z M 448 80 L 448 0 L 448 80 L 448 0 L 384 0 L 384 0 L 384 80 L 384 80 L 448 80 L 448 80 Z M 416 128 Q 393 142 364 170 L 364 170 L 364 170 Q 334 198 312 236 L 312 236 L 312 236 Q 289 275 288 320 Q 290 388 335 433 Q 380 478 448 480 Q 516 478 561 433 Q 606 388 608 320 Q 609 298 589 254 Q 568 209 512 160 L 480 192 L 480 192 L 416 128 L 416 128 Z M 512 368 Q 511 395 493 413 L 493 413 L 493 413 Q 475 432 448 432 Q 421 432 403 413 Q 385 395 384 368 Q 385 344 401 322 Q 416 300 431 286 Q 447 273 448 272 Q 449 273 465 286 Q 480 300 495 322 Q 511 344 512 368 L 512 368 Z" />
</svg>