<svg xmlns="http://www.w3.org/2000/svg" viewBox="0 0 416 512">
  <path d="M 272 16 L 272 48 L 272 16 L 272 48 L 256 48 L 112 48 L 112 16 L 112 16 L 272 16 L 272 16 Z M 96 64 L 112 64 L 96 64 L 112 64 L 112 96 L 112 96 L 0 240 L 0 240 L 0 496 L 0 496 L 0 512 L 0 512 L 16 512 L 384 512 L 384 496 L 384 496 L 384 240 L 384 240 L 370 222 L 370 222 Q 390 215 403 199 Q 416 182 416 160 Q 415 133 397 115 Q 379 97 352 96 Q 315 98 297 128 L 272 96 L 272 96 L 272 64 L 272 64 L 288 64 L 288 64 L 288 48 L 288 48 L 288 16 L 288 16 L 288 0 L 288 0 L 272 0 L 96 0 L 96 16 L 96 16 L 96 48 L 96 48 L 96 64 L 96 64 Z M 128 64 L 256 64 L 128 64 L 256 64 L 256 96 L 256 96 L 256 102 L 256 102 L 259 106 L 259 106 L 368 246 L 368 246 L 368 496 L 368 496 L 16 496 L 16 496 L 16 246 L 16 246 L 125 106 L 125 106 L 128 102 L 128 102 L 128 96 L 128 96 L 128 64 L 128 64 Z M 308 142 Q 320 114 352 112 Q 372 113 386 126 Q 399 140 400 160 Q 400 179 388 192 Q 377 205 359 208 L 308 142 L 308 142 Z M 80 304 L 304 304 L 80 304 L 304 304 L 304 400 L 304 400 L 80 400 L 80 400 L 80 304 L 80 304 Z M 64 288 L 64 304 L 64 288 L 64 304 L 64 400 L 64 400 L 64 416 L 64 416 L 80 416 L 320 416 L 320 400 L 320 400 L 320 304 L 320 304 L 320 288 L 320 288 L 304 288 L 64 288 Z" />
</svg>