<svg xmlns="http://www.w3.org/2000/svg" viewBox="0 0 512 448">
  <path d="M 336 205 L 336 117 L 336 205 L 336 117 Q 256 91 176 117 L 176 205 L 176 205 L 32 224 L 32 224 L 0 121 L 0 121 Q 15 99 50 71 Q 84 44 135 22 Q 187 1 256 0 Q 325 1 377 22 Q 428 44 462 71 Q 497 99 512 121 L 480 224 L 480 224 L 336 205 L 336 205 Z M 160 117 L 160 105 L 160 117 L 160 105 L 171 102 L 171 102 Q 256 74 341 102 L 352 105 L 352 105 L 352 117 L 352 117 L 352 191 L 352 191 L 469 206 L 469 206 L 494 124 L 494 124 Q 469 91 409 55 Q 349 19 256 16 Q 163 19 103 55 Q 43 91 18 124 L 43 206 L 43 206 L 160 191 L 160 191 L 160 117 L 160 117 Z M 56 256 L 120 256 L 56 256 L 128 256 L 128 264 L 128 264 L 128 328 L 128 328 L 128 336 L 128 336 L 120 336 L 48 336 L 48 328 L 48 328 L 48 264 L 48 264 L 48 256 L 48 256 L 56 256 L 56 256 Z M 64 320 L 112 320 L 64 320 L 112 320 L 112 272 L 112 272 L 64 272 L 64 272 L 64 320 L 64 320 Z M 56 368 L 120 368 L 56 368 L 128 368 L 128 376 L 128 376 L 128 440 L 128 440 L 128 448 L 128 448 L 120 448 L 48 448 L 48 440 L 48 440 L 48 376 L 48 376 L 48 368 L 48 368 L 56 368 L 56 368 Z M 64 432 L 112 432 L 64 432 L 112 432 L 112 384 L 112 384 L 64 384 L 64 384 L 64 432 L 64 432 Z M 392 368 L 456 368 L 392 368 L 464 368 L 464 376 L 464 376 L 464 440 L 464 440 L 464 448 L 464 448 L 456 448 L 384 448 L 384 440 L 384 440 L 384 376 L 384 376 L 384 368 L 384 368 L 392 368 L 392 368 Z M 400 432 L 448 432 L 400 432 L 448 432 L 448 384 L 448 384 L 400 384 L 400 384 L 400 432 L 400 432 Z M 160 368 L 168 368 L 160 368 L 352 368 L 352 376 L 352 376 L 352 440 L 352 440 L 352 448 L 352 448 L 344 448 L 160 448 L 160 440 L 160 440 L 160 376 L 160 376 L 160 368 L 160 368 Z M 176 384 L 176 432 L 176 384 L 176 432 L 336 432 L 336 432 L 336 384 L 336 384 L 176 384 L 176 384 Z M 160 256 L 168 256 L 160 256 L 240 256 L 240 264 L 240 264 L 240 328 L 240 328 L 240 336 L 240 336 L 232 336 L 160 336 L 160 328 L 160 328 L 160 264 L 160 264 L 160 256 L 160 256 Z M 176 272 L 176 320 L 176 272 L 176 320 L 224 320 L 224 320 L 224 272 L 224 272 L 176 272 L 176 272 Z M 280 256 L 344 256 L 280 256 L 352 256 L 352 264 L 352 264 L 352 328 L 352 328 L 352 336 L 352 336 L 344 336 L 272 336 L 272 328 L 272 328 L 272 264 L 272 264 L 272 256 L 272 256 L 280 256 L 280 256 Z M 288 320 L 336 320 L 288 320 L 336 320 L 336 272 L 336 272 L 288 272 L 288 272 L 288 320 L 288 320 Z M 384 256 L 392 256 L 384 256 L 464 256 L 464 264 L 464 264 L 464 328 L 464 328 L 464 336 L 464 336 L 456 336 L 384 336 L 384 328 L 384 328 L 384 264 L 384 264 L 384 256 L 384 256 Z M 400 272 L 400 320 L 400 272 L 400 320 L 448 320 L 448 320 L 448 272 L 448 272 L 400 272 L 400 272 Z" />
</svg>