<svg xmlns="http://www.w3.org/2000/svg" viewBox="0 0 512 512">
  <path d="M 435.2 320.4 L 435.2 307.6 L 435.2 77.2 L 435.2 51.6 L 409.6 51.6 Q 401.6 50.8 377.6 62.8 Q 352.8 74 331.2 104.4 Q 308.8 135.6 307.2 192.4 L 307.2 231.6 L 332.8 251.6 L 332.8 192.4 Q 333.6 155.6 344.8 132.4 Q 356 110 370.4 98 Q 385.6 86 398.4 81.2 Q 407.2 78 409.6 77.2 Q 409.6 77.2 409.6 77.2 L 409.6 77.2 L 409.6 307.6 L 403.2 307.6 L 435.2 332.4 L 435.2 320.4 L 435.2 320.4 Z M 179.2 261.2 L 140.8 230.8 L 140.8 230.8 Q 127.2 230.8 116.8 222 Q 106.4 214 103.2 201.2 L 76.8 180.4 Q 76.8 182 76.8 183.6 Q 76.8 183.6 76.8 183.6 L 76.8 192.4 Q 77.6 219.6 95.2 238 Q 113.6 255.6 140.8 256.4 L 153.6 256.4 L 153.6 448.4 L 153.6 461.2 L 179.2 461.2 L 179.2 448.4 L 179.2 261.2 L 179.2 261.2 Z M 134.4 63.6 L 132.8 94 L 157.6 113.2 L 160 65.2 L 160.8 51.6 L 135.2 51.6 L 134.4 63.6 L 134.4 63.6 Z M 96 64.4 L 118.4 82.8 L 124 51.6 L 97.6 51.6 L 96 64.4 L 96 64.4 Z M 256 183.6 Q 256 178.8 255.2 173.2 L 235.2 51.6 L 208.8 51.6 L 228.8 169.2 L 256 191.6 L 256 183.6 L 256 183.6 Z M 198.4 63.6 L 197.6 51.6 L 172 51.6 L 172.8 65.2 L 176 128.4 L 202.4 149.2 L 198.4 63.6 L 198.4 63.6 Z M 26.4 59.6 L 16 51.6 L 0 71.6 L 10.4 79.6 L 486.4 453.2 L 496 461.2 L 512 441.2 L 502.4 433.2 L 26.4 59.6 L 26.4 59.6 Z" />
</svg>