<svg xmlns="http://www.w3.org/2000/svg" viewBox="0 0 512 512">
  <path d="M 282.4 141.6 L 263.2 119.2 Q 244.8 98.4 230.4 85.6 Q 216 98.4 198.4 118.4 Q 180 140 166.4 163.2 Q 153.6 187.2 153.6 204.8 Q 154.4 248.8 183.2 277.6 Q 212.8 306.4 256 307.2 Q 299.2 306.4 328.8 277.6 Q 357.6 248.8 358.4 204.8 Q 358.4 189.6 348.8 171.2 Q 340 152.8 325.6 134.4 Q 316 122.4 307.2 113.6 Q 304.8 116 301.6 119.2 L 282.4 141.6 L 282.4 141.6 Z M 230.4 51.2 Q 230.4 51.2 240.8 60 L 240.8 60 Q 250.4 68.8 264.8 83.2 Q 273.6 92 282.4 102.4 Q 292.8 90.4 300 84 Q 307.2 76.8 307.2 76.8 Q 308.8 77.6 327.2 96.8 Q 345.6 116 364 145.6 Q 382.4 174.4 384 204.8 Q 382.4 259.2 346.4 295.2 Q 310.4 331.2 256 332.8 Q 201.6 331.2 165.6 295.2 Q 129.6 259.2 128 204.8 Q 129.6 168.8 154.4 133.6 Q 179.2 98.4 204 75.2 Q 228.8 52 230.4 51.2 L 230.4 51.2 Z M 231.2 133.6 L 240.8 145.6 Q 242.4 147.2 248 155.2 Q 254.4 163.2 261.6 172.8 L 272 186.4 L 294.4 170.4 L 304 162.4 L 312 172.8 Q 315.2 177.6 317.6 181.6 Q 317.6 182.4 318.4 183.2 L 318.4 183.2 Q 329.6 205.6 324.8 229.6 Q 320 253.6 299.2 268.8 L 299.2 268.8 L 299.2 268.8 Q 280 281.6 256.8 281.6 Q 227.2 281.6 206.4 263.2 Q 186.4 244.8 185.6 212.8 Q 185.6 196 195.2 180 Q 204.8 164.8 220.8 145.6 L 231.2 133.6 L 231.2 133.6 Z M 297.6 199.2 L 276.8 214.4 L 266.4 221.6 L 259.2 212 L 269.6 204 L 259.2 212 L 259.2 212 L 259.2 212 L 259.2 212 L 259.2 212 L 258.4 211.2 L 257.6 209.6 L 253.6 204.8 Q 251.2 201.6 248 197.6 Q 244.8 192.8 240.8 188 Q 239.2 185.6 237.6 183.2 Q 233.6 178.4 230.4 174.4 Q 222.4 185.6 217.6 192.8 Q 211.2 204.8 211.2 212.8 Q 212 234.4 224 244.8 Q 236 256 256.8 256 Q 272 256 284.8 247.2 Q 296 239.2 299.2 226.4 Q 303.2 212.8 297.6 199.2 L 297.6 199.2 Z M 25.6 256 L 38.4 256 L 89.6 256 L 102.4 256 L 102.4 281.6 L 89.6 281.6 L 51.2 281.6 L 51.2 358.4 L 460.8 358.4 L 460.8 281.6 L 422.4 281.6 L 409.6 281.6 L 409.6 256 L 422.4 256 L 473.6 256 L 486.4 256 L 486.4 268.8 L 486.4 358.4 L 512 358.4 L 512 384 L 512 435.2 L 512 460.8 L 486.4 460.8 L 25.6 460.8 L 0 460.8 L 0 435.2 L 0 384 L 0 358.4 L 25.6 358.4 L 25.6 268.8 L 25.6 256 L 25.6 256 Z M 25.6 435.2 L 486.4 435.2 L 486.4 384 L 460.8 384 L 51.2 384 L 25.6 384 L 25.6 435.2 L 25.6 435.2 Z M 153.6 390.4 Q 171.2 392 172.8 409.6 Q 171.2 427.2 153.6 428.8 Q 136 427.2 134.4 409.6 Q 136 392 153.6 390.4 L 153.6 390.4 Z M 236.8 409.6 Q 238.4 392 256 390.4 Q 273.6 392 275.2 409.6 Q 273.6 427.2 256 428.8 Q 238.4 427.2 236.8 409.6 L 236.8 409.6 Z M 358.4 390.4 Q 376 392 377.6 409.6 Q 376 427.2 358.4 428.8 Q 340.8 427.2 339.2 409.6 Q 340.8 392 358.4 390.4 L 358.4 390.4 Z" />
</svg>