<svg xmlns="http://www.w3.org/2000/svg" viewBox="0 0 640 511">
  <path d="M 135 13 L 127 0 L 135 13 L 127 0 L 121 13 L 121 13 Q 102 48 68 79 Q 35 111 4 131 L 13 145 L 13 145 Q 38 127 68 102 Q 98 76 120 45 L 120 255 L 120 255 L 8 255 L 0 255 L 0 271 L 0 271 L 8 271 L 640 271 L 640 255 L 640 255 L 632 255 L 520 255 L 520 45 L 520 45 Q 542 76 572 102 Q 602 127 628 145 L 637 131 L 637 131 Q 605 111 572 79 Q 538 48 519 13 L 513 0 L 513 0 L 505 13 L 505 13 Q 476 64 427 95 Q 378 126 320 127 Q 262 126 213 95 Q 164 64 135 13 L 135 13 Z M 504 44 L 504 255 L 504 44 L 504 255 L 424 255 L 424 255 L 424 119 L 424 119 L 424 115 L 424 115 Q 472 88 504 44 L 504 44 Z M 408 123 L 408 255 L 408 123 L 408 255 L 328 255 L 328 255 L 328 143 L 328 143 L 328 143 L 328 143 Q 370 141 408 123 L 408 123 Z M 312 143 L 312 143 L 312 143 L 312 143 L 312 255 L 312 255 L 232 255 L 232 255 L 232 123 L 232 123 Q 270 141 312 143 L 312 143 Z M 216 115 L 216 119 L 216 115 L 216 119 L 216 255 L 216 255 L 136 255 L 136 255 L 136 44 L 136 44 Q 168 88 216 115 L 216 115 Z M 0 335 L 0 351 L 0 335 L 0 351 L 8 351 L 104 351 L 104 503 L 104 503 L 104 511 L 104 511 L 112 511 L 216 511 L 216 503 L 216 503 L 216 351 L 216 351 L 424 351 L 424 351 L 424 503 L 424 503 L 424 511 L 424 511 L 432 511 L 536 511 L 536 503 L 536 503 L 536 351 L 536 351 L 632 351 L 640 351 L 640 335 L 640 335 L 632 335 L 520 335 L 520 343 L 520 343 L 520 495 L 520 495 L 440 495 L 440 495 L 440 343 L 440 343 L 440 335 L 440 335 L 432 335 L 200 335 L 200 343 L 200 343 L 200 495 L 200 495 L 120 495 L 120 495 L 120 343 L 120 343 L 120 335 L 120 335 L 112 335 L 0 335 Z" />
</svg>