<svg xmlns="http://www.w3.org/2000/svg" viewBox="0 0 448 511">
  <path d="M 241 494 L 224 511 L 241 494 L 224 511 L 207 494 L 207 494 L 79 366 L 79 366 L 62 349 L 62 349 L 96 315 L 96 315 L 113 332 L 113 332 L 200 419 L 200 419 L 200 184 L 200 184 L 200 160 L 200 160 L 248 160 L 248 160 L 248 184 L 248 184 L 248 419 L 248 419 L 335 332 L 335 332 L 352 315 L 352 315 L 386 349 L 386 349 L 369 366 L 369 366 L 241 494 L 241 494 Z M 48 168 L 48 192 L 48 168 L 48 192 L 0 192 L 0 192 L 0 168 L 0 168 L 0 24 L 0 24 L 0 0 L 0 0 L 24 0 L 448 0 L 448 24 L 448 24 L 448 168 L 448 168 L 448 192 L 448 192 L 400 192 L 400 192 L 400 168 L 400 168 L 400 48 L 400 48 L 48 48 L 48 48 L 48 168 L 48 168 Z" />
</svg>