<svg xmlns="http://www.w3.org/2000/svg" viewBox="0 0 640 256">
  <path d="M 16 240 L 624 240 L 16 240 L 624 240 L 624 16 L 624 16 L 520 16 L 520 16 L 520 96 L 520 96 L 520 104 L 520 104 L 504 104 L 504 104 L 504 96 L 504 96 L 504 16 L 504 16 L 424 16 L 424 16 L 424 64 L 424 64 L 424 96 L 424 96 L 424 104 L 424 104 L 408 104 L 408 104 L 408 96 L 408 96 L 408 64 L 408 64 L 408 16 L 408 16 L 328 16 L 328 16 L 328 96 L 328 96 L 328 104 L 328 104 L 312 104 L 312 104 L 312 96 L 312 96 L 312 16 L 312 16 L 232 16 L 232 16 L 232 96 L 232 96 L 232 104 L 232 104 L 216 104 L 216 104 L 216 96 L 216 96 L 216 16 L 216 16 L 136 16 L 136 16 L 136 96 L 136 96 L 136 104 L 136 104 L 120 104 L 120 104 L 120 96 L 120 96 L 120 16 L 120 16 L 16 16 L 16 16 L 16 240 L 16 240 Z M 520 0 L 624 0 L 520 0 L 640 0 L 640 16 L 640 16 L 640 240 L 640 240 L 640 256 L 640 256 L 624 256 L 0 256 L 0 240 L 0 240 L 0 16 L 0 16 L 0 0 L 0 0 L 16 0 L 520 0 Z" />
</svg>