<svg xmlns="http://www.w3.org/2000/svg" viewBox="0 0 512 448">
  <path d="M 496 272 L 16 272 L 496 272 L 16 272 L 16 432 L 16 432 L 496 432 L 496 432 L 496 272 L 496 272 Z M 512 256 L 512 272 L 512 256 L 512 272 L 512 432 L 512 432 L 512 448 L 512 448 L 496 448 L 0 448 L 0 432 L 0 432 L 0 272 L 0 272 L 0 256 L 0 256 L 16 256 L 248 256 L 248 131 L 248 131 L 198 182 L 198 182 L 192 187 L 192 187 L 181 176 L 181 176 L 186 170 L 186 170 L 250 106 L 250 106 L 256 101 L 256 101 L 262 106 L 262 106 L 326 170 L 326 170 L 332 176 L 332 176 L 320 187 L 320 187 L 314 182 L 314 182 L 264 131 L 264 131 L 264 256 L 264 256 L 496 256 L 512 256 Z M 512 8 L 512 184 L 512 8 L 512 184 L 512 192 L 512 192 L 504 192 L 392 192 L 392 176 L 392 176 L 400 176 L 496 176 L 496 16 L 496 16 L 16 16 L 16 16 L 16 176 L 16 176 L 112 176 L 120 176 L 120 192 L 120 192 L 112 192 L 0 192 L 0 184 L 0 184 L 0 8 L 0 8 L 0 0 L 0 0 L 8 0 L 512 0 L 512 8 L 512 8 Z" />
</svg>