<svg xmlns="http://www.w3.org/2000/svg" viewBox="0 0 512 512">
  <path d="M 16 345 L 16 167 L 16 345 L 16 167 L 167 16 L 167 16 L 345 16 L 345 16 L 496 167 L 496 167 L 496 345 L 496 345 L 345 496 L 345 496 L 167 496 L 167 496 L 16 345 L 16 345 Z M 160 0 L 0 160 L 160 0 L 0 160 L 0 352 L 0 352 L 160 512 L 160 512 L 352 512 L 352 512 L 512 352 L 512 352 L 512 160 L 512 160 L 352 0 L 352 0 L 160 0 L 160 0 Z M 240 144 L 272 144 L 240 144 L 272 144 L 272 176 L 272 176 L 240 176 L 240 176 L 240 144 L 240 144 Z M 224 128 L 224 144 L 224 128 L 224 144 L 224 176 L 224 176 L 224 192 L 224 192 L 240 192 L 288 192 L 288 176 L 288 176 L 288 144 L 288 144 L 288 128 L 288 128 L 272 128 L 224 128 Z M 152 248 L 144 248 L 152 248 L 144 248 L 144 264 L 144 264 L 152 264 L 368 264 L 368 248 L 368 248 L 360 248 L 152 248 Z M 272 336 L 272 368 L 272 336 L 272 368 L 240 368 L 240 368 L 240 336 L 240 336 L 272 336 L 272 336 Z M 240 320 L 224 320 L 240 320 L 224 320 L 224 336 L 224 336 L 224 368 L 224 368 L 224 384 L 224 384 L 240 384 L 288 384 L 288 368 L 288 368 L 288 336 L 288 336 L 288 320 L 288 320 L 272 320 L 240 320 Z" />
</svg>