<svg xmlns="http://www.w3.org/2000/svg" viewBox="0 0 512 512">
  <path d="M 475 50 L 448 144 L 475 50 L 448 144 L 498 175 L 498 175 L 512 184 L 512 184 L 499 195 L 499 195 L 432 251 L 432 251 L 416 264 L 416 264 L 437 268 L 437 268 L 448 269 L 448 269 L 464 272 L 464 272 L 460 288 L 460 288 L 448 336 L 448 336 L 492 374 L 492 374 L 504 384 L 504 384 L 492 395 L 492 395 L 448 432 L 448 432 L 454 495 L 454 495 L 456 512 L 456 512 L 440 508 L 440 508 L 272 464 L 272 464 L 236 500 L 236 500 L 224 512 L 224 512 L 216 498 L 216 498 L 148 375 L 148 375 L 17 506 L 17 506 L 12 512 L 12 512 L 0 501 L 0 501 L 6 495 L 6 495 L 137 364 L 137 364 L 15 296 L 15 296 L 0 288 L 0 288 L 12 276 L 12 276 L 48 240 L 48 240 L 4 73 L 4 73 L 0 56 L 0 56 L 17 58 L 17 58 L 80 64 L 80 64 L 118 20 L 118 20 L 128 8 L 128 8 L 139 20 L 139 20 L 176 64 L 176 64 L 224 52 L 224 52 L 240 48 L 240 48 L 243 64 L 243 64 L 245 75 L 245 75 L 248 96 L 248 96 L 262 80 L 262 80 L 317 13 L 317 13 L 328 0 L 328 0 L 337 14 L 337 14 L 368 64 L 368 64 L 462 37 L 462 37 L 480 32 L 480 32 L 475 50 L 475 50 Z M 149 352 L 306 194 L 149 352 L 306 194 L 312 189 L 312 189 L 323 200 L 323 200 L 318 206 L 318 206 L 160 364 L 160 364 L 228 486 L 228 486 L 261 453 L 261 453 L 267 446 L 267 446 L 276 449 L 276 449 L 438 491 L 438 491 L 432 434 L 432 434 L 431 425 L 431 425 L 438 420 L 438 420 L 479 384 L 479 384 L 438 348 L 438 348 L 430 342 L 430 342 L 433 332 L 433 332 L 444 285 L 444 285 L 413 280 L 413 280 L 379 274 L 379 274 L 406 252 L 406 252 L 485 186 L 485 186 L 440 157 L 440 157 L 429 151 L 429 151 L 433 139 L 433 139 L 457 55 L 457 55 L 372 79 L 372 79 L 361 83 L 361 83 L 354 73 L 354 73 L 326 27 L 326 27 L 260 106 L 260 106 L 238 133 L 238 133 L 232 99 L 232 99 L 227 68 L 227 68 L 180 80 L 180 80 L 170 82 L 170 82 L 164 74 L 164 74 L 128 33 L 128 33 L 92 74 L 92 74 L 87 81 L 87 81 L 78 80 L 78 80 L 21 74 L 21 74 L 64 236 L 64 236 L 66 245 L 66 245 L 59 251 L 59 251 L 26 284 L 26 284 L 149 352 L 149 352 Z" />
</svg>