<svg xmlns="http://www.w3.org/2000/svg" viewBox="0 0 384 512">
  <path d="M 16 496 L 16 16 L 16 496 L 16 16 L 208 16 L 208 16 L 208 168 L 208 168 L 208 176 L 208 176 L 216 176 L 368 176 L 368 496 L 368 496 L 16 496 L 16 496 Z M 224 23 L 361 160 L 224 23 L 361 160 L 224 160 L 224 160 L 224 23 L 224 23 Z M 224 0 L 16 0 L 224 0 L 0 0 L 0 16 L 0 16 L 0 496 L 0 496 L 0 512 L 0 512 L 16 512 L 384 512 L 384 496 L 384 496 L 384 160 L 384 160 L 224 0 L 224 0 Z M 104 256 L 96 256 L 104 256 L 96 256 L 96 272 L 96 272 L 104 272 L 288 272 L 288 256 L 288 256 L 280 256 L 104 256 Z M 104 320 L 96 320 L 104 320 L 96 320 L 96 336 L 96 336 L 104 336 L 288 336 L 288 320 L 288 320 L 280 320 L 104 320 Z M 104 384 L 96 384 L 104 384 L 96 384 L 96 400 L 96 400 L 104 400 L 288 400 L 288 384 L 288 384 L 280 384 L 104 384 Z" />
</svg>