<svg xmlns="http://www.w3.org/2000/svg" viewBox="0 0 640 512">
  <path d="M 351 373 L 283 496 L 351 373 L 283 496 L 210 496 L 210 496 L 261 314 L 261 314 L 263 304 L 263 304 L 253 304 L 148 304 L 146 307 L 146 307 L 100 368 L 100 368 L 58 368 L 58 368 L 88 258 L 88 258 L 88 256 L 88 256 L 88 254 L 88 254 L 58 144 L 58 144 L 62 144 L 62 144 L 42 128 L 42 128 L 38 128 L 38 128 L 40 138 L 40 138 L 72 256 L 72 256 L 40 374 L 40 374 L 38 384 L 38 384 L 48 384 L 108 384 L 110 381 L 110 381 L 156 320 L 156 320 L 243 320 L 243 320 L 192 502 L 192 502 L 190 512 L 190 512 L 200 512 L 293 512 L 295 508 L 295 508 L 364 383 L 364 383 L 351 373 L 351 373 Z M 192 10 L 211 78 L 192 10 L 211 78 L 232 95 L 232 95 L 211 16 L 211 16 L 283 16 L 283 16 L 387 204 L 387 204 L 389 208 L 389 208 L 394 208 L 519 208 Q 541 208 566 223 Q 591 239 592 256 Q 591 274 566 289 Q 541 304 519 304 L 497 304 L 497 304 L 517 320 L 517 320 L 519 320 L 519 320 Q 546 319 575 303 Q 588 295 598 283 Q 608 271 608 256 Q 608 241 598 229 Q 588 218 575 210 Q 546 193 519 192 L 399 192 L 399 192 L 295 4 L 295 4 L 293 0 L 293 0 L 288 0 L 190 0 L 192 10 L 192 10 Z M 16 5 L 10 0 L 16 5 L 10 0 L 0 13 L 0 13 L 6 18 L 6 18 L 624 507 L 624 507 L 630 512 L 630 512 L 640 500 L 640 500 L 634 495 L 634 495 L 16 5 L 16 5 Z" />
</svg>