<svg xmlns="http://www.w3.org/2000/svg" viewBox="0 0 595 512">
  <path d="M 339 16 Q 323 16 308 18 L 306 2 L 306 2 Q 322 0 339 0 Q 411 1 468 35 Q 526 69 560 127 Q 594 184 595 256 Q 594 328 560 385 Q 526 443 468 477 Q 411 511 339 512 Q 250 510 184 459 Q 117 408 93 327 L 108 322 L 108 322 Q 131 399 193 447 Q 255 495 339 496 Q 406 495 460 463 Q 514 431 546 377 Q 578 323 579 256 Q 578 189 546 135 Q 514 81 460 49 Q 406 17 339 16 L 339 16 Z M 339 397 Q 298 396 268 384 L 268 384 L 268 384 Q 239 371 222 355 L 232 343 L 232 343 Q 248 357 274 369 Q 301 380 339 381 Q 377 380 404 369 Q 430 357 446 343 L 456 355 L 456 355 Q 439 371 410 384 Q 380 396 339 397 L 339 397 Z M 259 192 Q 274 193 275 208 Q 274 223 259 224 Q 245 223 243 208 Q 245 193 259 192 L 259 192 Z M 403 208 Q 405 193 419 192 Q 434 193 435 208 Q 434 223 419 224 Q 405 223 403 208 L 403 208 Z M 236 8 L 270 61 L 236 8 L 270 61 L 274 68 L 274 68 L 268 72 L 268 72 L 217 105 L 217 105 L 247 156 L 247 156 L 251 163 L 251 163 L 244 167 L 244 167 L 112 246 L 112 246 Q 85 262 55 253 Q 25 244 13 220 Q 0 196 6 169 Q 11 143 37 125 L 224 5 L 224 5 L 231 1 L 231 1 L 235 7 L 236 8 Z M 130 161 L 122 147 L 130 161 L 122 147 L 252 63 L 252 63 L 226 23 L 226 23 L 45 139 L 45 139 Q 16 160 21 193 Q 25 225 59 238 Q 82 244 103 233 L 229 157 L 229 157 L 205 116 L 205 116 L 130 161 L 130 161 Z" />
</svg>