<svg xmlns="http://www.w3.org/2000/svg" viewBox="0 0 448 448">
  <path d="M 16 16 L 16 432 L 16 16 L 16 432 L 432 432 L 432 432 L 432 16 L 432 16 L 16 16 L 16 16 Z M 0 0 L 16 0 L 0 0 L 448 0 L 448 16 L 448 16 L 448 432 L 448 432 L 448 448 L 448 448 L 432 448 L 0 448 L 0 432 L 0 432 L 0 16 L 0 16 L 0 0 L 0 0 Z M 320 80 L 219 80 L 320 80 L 219 80 L 254 114 L 254 114 L 261 121 L 261 121 L 252 127 L 252 127 L 213 153 L 213 153 L 253 186 L 253 186 L 259 191 L 259 191 L 249 203 L 249 203 L 243 198 L 243 198 L 195 158 L 195 158 L 187 151 L 187 151 L 196 145 L 196 145 L 236 119 L 236 119 L 197 80 L 197 80 L 128 80 L 128 80 L 128 176 L 128 176 Q 129 217 156 244 Q 183 271 224 272 Q 265 271 292 244 Q 319 217 320 176 L 320 80 L 320 80 Z M 128 64 L 320 64 L 128 64 L 336 64 L 336 80 L 336 80 L 336 176 L 336 176 Q 335 221 306 253 Q 277 284 232 288 L 232 368 L 232 368 L 288 368 L 288 368 L 288 384 L 288 384 L 160 384 L 160 384 L 160 368 L 160 368 L 216 368 L 216 368 L 216 288 L 216 288 Q 171 284 142 252 Q 113 221 112 176 L 112 80 L 112 80 L 112 64 L 112 64 L 128 64 L 128 64 Z" />
</svg>