<svg xmlns="http://www.w3.org/2000/svg" viewBox="0 0 512 512">
  <path d="M 223 170 L 212 159 L 223 170 L 212 159 L 192 139 L 192 139 L 186 134 L 186 134 L 181 128 L 181 128 L 192 117 L 192 117 L 198 122 L 198 122 L 203 128 L 203 128 L 212 137 L 212 137 L 223 148 L 223 148 L 235 137 L 235 137 L 342 29 L 342 29 Q 372 0 412 0 Q 452 0 483 29 Q 512 60 512 100 Q 512 140 483 170 L 376 278 L 376 278 L 364 289 L 364 289 L 376 300 L 376 300 L 384 309 L 384 309 L 390 314 L 390 314 L 395 320 L 395 320 L 384 331 L 384 331 L 378 326 L 378 326 L 373 320 L 373 320 L 353 300 L 353 300 L 342 289 L 342 289 L 223 170 L 223 170 Z M 353 278 L 472 159 L 353 278 L 472 159 Q 496 133 496 100 Q 496 66 472 41 Q 446 16 412 16 Q 379 16 353 41 L 234 159 L 234 159 L 353 278 L 353 278 Z M 192 184 L 203 196 L 192 184 L 203 196 L 87 312 L 87 312 L 313 312 L 313 312 L 316 309 L 316 309 L 328 320 L 328 320 L 168 480 L 168 480 L 80 480 L 80 480 L 32 512 L 32 512 L 0 480 L 0 480 L 32 432 L 32 432 L 32 344 L 32 344 L 192 184 L 192 184 Z M 71 328 L 48 351 L 71 328 L 48 351 L 48 432 L 48 432 L 48 437 L 48 437 L 45 441 L 45 441 L 21 478 L 21 478 L 34 491 L 34 491 L 71 467 L 71 467 L 75 464 L 75 464 L 80 464 L 161 464 L 297 328 L 297 328 L 71 328 L 71 328 Z" />
</svg>