<svg xmlns="http://www.w3.org/2000/svg" viewBox="0 0 491 448">
  <path d="M 451 16 L 451 176 L 451 16 L 451 176 L 291 176 L 291 176 L 291 16 L 291 16 L 451 16 L 451 16 Z M 291 0 L 275 0 L 291 0 L 275 0 L 275 16 L 275 16 L 275 176 L 275 176 L 275 192 L 275 192 L 291 192 L 467 192 L 467 176 L 467 176 L 467 16 L 467 16 L 467 0 L 467 0 L 451 0 L 291 0 Z M 251 448 L 270 448 L 251 448 L 491 448 L 481 432 L 481 432 L 380 271 L 380 271 L 371 256 L 371 256 L 362 271 L 362 271 L 261 432 L 261 432 L 251 448 L 251 448 Z M 462 432 L 280 432 L 462 432 L 280 432 L 371 286 L 371 286 L 462 432 L 462 432 Z M 121 10 L 115 5 L 121 10 L 115 5 L 109 10 L 109 10 L 5 114 L 5 114 L 0 120 L 0 120 L 11 131 L 11 131 L 17 126 L 17 126 L 107 35 L 107 35 L 107 440 L 107 440 L 107 448 L 107 448 L 123 448 L 123 448 L 123 440 L 123 440 L 123 35 L 123 35 L 213 126 L 213 126 L 219 131 L 219 131 L 230 120 L 230 120 L 225 114 L 225 114 L 121 10 L 121 10 Z" />
</svg>