<svg xmlns="http://www.w3.org/2000/svg" viewBox="0 0 641 480">
  <path d="M 400 48 L 48 48 L 400 48 L 48 48 L 48 400 L 48 400 L 306 400 L 306 400 Q 318 427 337 448 L 48 448 L 0 448 L 0 400 L 0 400 L 0 48 L 0 48 L 0 0 L 0 0 L 48 0 L 448 0 L 448 48 L 448 48 L 448 90 L 448 90 L 431 101 L 431 101 Q 417 109 400 123 L 400 48 L 400 48 Z M 293 280 L 264 280 L 293 280 L 264 280 L 264 232 L 264 232 L 310 232 L 310 232 Q 298 255 293 280 L 293 280 Z M 343 180 Q 338 186 334 192 L 96 192 L 96 192 L 96 96 L 96 96 L 352 96 L 352 96 L 352 169 L 352 169 Q 347 175 343 180 L 343 180 Z M 232 232 L 232 280 L 232 232 L 232 280 L 184 280 L 184 280 L 184 232 L 184 232 L 232 232 L 232 232 Z M 152 232 L 152 280 L 152 232 L 152 280 L 104 280 L 104 280 L 104 232 L 104 232 L 152 232 L 152 232 Z M 448 128 L 512 192 L 448 128 L 512 192 L 544 160 L 544 160 Q 600 209 621 254 Q 641 298 640 320 Q 638 388 593 433 Q 548 478 480 480 Q 412 478 367 433 Q 322 388 320 320 Q 321 275 344 236 Q 366 198 396 170 Q 425 142 448 128 L 448 128 Z M 544 368 Q 543 344 527 322 L 527 322 L 527 322 Q 512 300 497 286 L 497 286 L 497 286 Q 481 273 480 272 Q 479 273 463 286 Q 448 300 433 322 Q 417 344 416 368 Q 417 395 435 413 Q 453 432 480 432 Q 507 432 525 413 Q 543 395 544 368 L 544 368 Z" />
</svg>