<svg xmlns="http://www.w3.org/2000/svg" viewBox="0 0 384 512">
  <path d="M 192 512 Q 194 511 222 478 L 222 478 L 222 478 Q 251 445 288 394 L 288 394 L 288 394 Q 326 343 354 289 L 354 289 L 354 289 Q 383 235 384 192 Q 382 110 328 56 Q 274 2 192 0 Q 110 2 56 56 Q 2 110 0 192 Q 2 235 30 289 Q 59 343 96 394 Q 134 445 162 478 Q 191 511 192 512 L 192 512 Z M 182 262 L 165 279 L 182 262 L 165 279 L 148 262 L 148 262 L 82 196 L 82 196 L 116 162 L 116 162 L 165 211 L 165 211 L 268 108 L 268 108 L 302 142 L 302 142 L 182 262 L 182 262 Z" />
</svg>