<svg xmlns="http://www.w3.org/2000/svg" viewBox="0 0 640 384">
  <path d="M 296 0 L 288 0 L 296 0 L 288 0 L 288 16 L 288 16 L 296 16 L 348 16 L 449 164 L 449 164 L 380 256 L 380 256 L 353 256 L 353 256 L 157 214 L 157 214 Q 132 193 96 192 Q 83 192 70 196 L 18 184 L 18 184 L 10 183 L 10 183 L 7 198 L 7 198 L 14 200 L 14 200 L 45 206 L 45 206 Q 2 234 0 288 Q 1 329 28 356 Q 55 383 96 384 Q 137 383 164 356 Q 191 329 192 288 Q 192 258 176 234 L 264 253 L 264 253 Q 272 269 272 288 Q 271 322 249 345 Q 226 367 192 368 Q 174 368 159 361 Q 152 367 144 371 Q 166 384 192 384 Q 233 383 260 356 Q 287 329 288 288 Q 288 272 283 257 L 350 272 L 350 272 L 351 272 L 388 272 L 390 269 L 390 269 L 459 178 L 459 178 L 483 213 L 483 213 Q 450 242 448 288 Q 449 329 476 356 Q 503 383 544 384 Q 585 383 612 356 Q 639 329 640 288 Q 639 247 612 220 Q 585 193 544 192 Q 518 192 497 205 L 359 4 L 359 4 L 356 0 L 356 0 L 352 0 L 296 0 Z M 464 288 Q 465 250 492 227 L 537 293 L 537 293 L 542 299 L 542 299 L 555 290 L 555 290 L 551 284 L 551 284 L 506 218 L 506 218 Q 523 208 544 208 Q 578 209 601 231 Q 623 254 624 288 Q 623 322 601 345 Q 578 367 544 368 Q 510 367 487 345 Q 465 322 464 288 L 464 288 Z M 176 288 Q 176 335 137 360 Q 96 382 55 360 Q 16 335 16 288 Q 16 241 55 216 Q 96 194 137 216 Q 176 242 176 288 L 176 288 Z M 56 45 L 53 38 L 56 45 L 53 38 L 38 43 L 38 43 L 41 51 L 41 51 L 73 139 L 73 139 L 74 143 L 74 143 L 78 144 L 78 144 L 190 169 L 190 169 L 198 170 L 198 170 L 202 155 L 202 155 L 194 153 L 194 153 L 86 129 L 86 129 L 56 45 L 56 45 Z" />
</svg>