<svg xmlns="http://www.w3.org/2000/svg" viewBox="0 0 512 512">
  <path d="M 112 0 L 112 8 L 112 0 L 112 8 L 112 389 L 112 389 L 389 112 L 389 112 L 160 112 L 160 112 L 160 96 L 160 96 L 405 96 L 405 96 L 490 10 L 490 10 L 496 5 L 496 5 L 507 16 L 507 16 L 502 22 L 502 22 L 416 107 L 416 107 L 416 400 L 416 400 L 504 400 L 512 400 L 512 416 L 512 416 L 504 416 L 416 416 L 416 504 L 416 504 L 416 512 L 416 512 L 400 512 L 400 512 L 400 504 L 400 504 L 400 123 L 400 123 L 123 400 L 123 400 L 352 400 L 352 400 L 352 416 L 352 416 L 104 416 L 96 416 L 96 408 L 96 408 L 96 112 L 96 112 L 8 112 L 0 112 L 0 96 L 0 96 L 8 96 L 96 96 L 96 8 L 96 8 L 96 0 L 96 0 L 112 0 L 112 0 Z" />
</svg>