<svg xmlns="http://www.w3.org/2000/svg" viewBox="0 0 512 384">
  <path d="M 14 202 L 0 192 L 14 202 L 0 192 L 14 182 L 14 182 L 272 11 L 272 11 L 288 0 L 288 0 L 288 19 L 288 19 L 288 134 L 288 134 L 496 10 L 496 10 L 512 0 L 512 0 L 512 19 L 512 19 L 512 365 L 512 365 L 512 384 L 512 384 L 496 375 L 496 375 L 288 250 L 288 250 L 288 365 L 288 365 L 288 384 L 288 384 L 272 373 L 272 373 L 14 202 L 14 202 Z M 288 231 L 496 356 L 288 231 L 496 356 L 496 28 L 496 28 L 288 153 L 288 153 L 288 231 L 288 231 Z M 272 354 L 272 30 L 272 354 L 272 30 L 29 192 L 29 192 L 272 354 L 272 354 Z" />
</svg>