<svg xmlns="http://www.w3.org/2000/svg" viewBox="0 0 320 416">
  <path d="M 24 0 L 16 0 L 24 0 L 16 0 L 16 8 L 16 8 L 16 136 L 16 136 L 16 139 L 16 139 L 18 141 L 18 141 L 56 187 L 56 187 L 50 288 L 50 288 L 66 288 L 66 288 L 72 185 L 72 185 L 72 181 L 72 181 L 70 179 L 70 179 L 32 133 L 32 133 L 32 16 L 32 16 L 72 16 L 72 16 L 72 56 L 72 56 L 72 64 L 72 64 L 80 64 L 136 64 L 136 56 L 136 56 L 136 16 L 136 16 L 184 16 L 184 16 L 184 56 L 184 56 L 184 64 L 184 64 L 192 64 L 248 64 L 248 56 L 248 56 L 248 16 L 248 16 L 288 16 L 288 16 L 288 133 L 288 133 L 250 179 L 250 179 L 248 181 L 248 181 L 248 185 L 248 185 L 255 288 L 255 288 L 271 288 L 271 288 L 264 187 L 264 187 L 302 141 L 302 141 L 304 139 L 304 139 L 304 136 L 304 136 L 304 8 L 304 8 L 304 0 L 304 0 L 296 0 L 232 0 L 232 8 L 232 8 L 232 48 L 232 48 L 200 48 L 200 48 L 200 8 L 200 8 L 200 0 L 200 0 L 192 0 L 120 0 L 120 8 L 120 8 L 120 48 L 120 48 L 88 48 L 88 48 L 88 8 L 88 8 L 88 0 L 88 0 L 80 0 L 24 0 Z M 44 320 L 42 323 L 44 320 L 42 323 L 2 371 L 2 371 L 0 373 L 0 373 L 0 376 L 0 376 L 0 408 L 0 408 L 0 416 L 0 416 L 8 416 L 320 416 L 320 408 L 320 408 L 320 376 L 320 376 L 320 373 L 320 373 L 318 371 L 318 371 L 278 323 L 278 323 L 276 320 L 276 320 L 272 320 L 44 320 Z M 52 336 L 268 336 L 52 336 L 268 336 L 304 379 L 304 379 L 304 400 L 304 400 L 16 400 L 16 400 L 16 379 L 16 379 L 52 336 L 52 336 Z M 160 128 Q 146 128 137 137 L 137 137 L 137 137 Q 128 146 128 160 L 128 200 L 128 200 L 128 208 L 128 208 L 136 208 L 192 208 L 192 200 L 192 200 L 192 160 L 192 160 Q 192 146 183 137 Q 174 128 160 128 L 160 128 Z M 144 160 Q 145 145 160 144 Q 175 145 176 160 L 176 192 L 176 192 L 144 192 L 144 192 L 144 160 L 144 160 Z" />
</svg>