<svg xmlns="http://www.w3.org/2000/svg" viewBox="0 0 381 448">
  <path d="M 16 224 Q 18 136 78 77 L 78 77 L 78 77 Q 138 18 229 16 Q 312 18 371 69 L 381 57 L 381 57 Q 319 2 229 0 Q 165 1 113 31 Q 62 60 31 111 Q 1 161 0 224 Q 1 287 31 337 Q 62 388 113 417 Q 165 447 229 448 Q 319 446 381 391 L 371 379 L 371 379 Q 313 430 229 432 Q 210 432 192 429 L 192 296 L 192 296 Q 193 272 208 256 Q 224 241 248 240 Q 276 241 293 262 L 298 269 L 298 269 L 310 259 L 310 259 L 306 253 L 306 253 Q 284 225 248 224 Q 213 225 192 251 L 192 224 L 192 224 L 176 224 L 176 224 L 176 296 L 176 296 L 176 426 L 176 426 Q 106 407 61 353 Q 17 298 16 224 L 16 224 Z" />
</svg>