<svg xmlns="http://www.w3.org/2000/svg" viewBox="0 0 448 478">
  <path d="M 252 21 L 262 12 L 252 21 L 262 12 L 250 0 L 250 0 L 241 10 L 241 10 Q 219 32 216 62 L 96 62 L 96 62 Q 55 63 28 90 Q 1 117 0 158 L 0 190 L 0 190 L 0 206 L 0 206 L 16 206 L 448 206 L 448 190 L 448 190 L 448 158 L 448 158 Q 447 117 420 90 Q 393 63 352 62 L 233 62 L 233 62 Q 235 38 252 21 L 252 21 Z M 352 78 Q 386 79 409 101 L 409 101 L 409 101 Q 431 124 432 158 L 432 190 L 432 190 L 16 190 L 16 190 L 16 158 L 16 158 Q 17 124 39 101 Q 62 79 96 78 L 352 78 L 352 78 Z M 48 238 Q 50 279 66 326 L 66 326 L 66 326 Q 82 373 120 414 L 120 414 L 120 414 Q 157 455 224 478 Q 291 455 328 414 Q 366 373 382 326 Q 398 279 400 238 L 384 238 L 384 238 Q 382 277 367 320 Q 353 363 318 401 Q 284 439 224 461 Q 164 439 130 401 Q 95 363 81 320 Q 66 277 64 238 L 48 238 L 48 238 Z" />
</svg>