<svg xmlns="http://www.w3.org/2000/svg" viewBox="0 0 640 511">
  <path d="M 272 16 L 256 16 L 272 16 L 256 16 Q 215 17 188 44 Q 161 71 160 112 L 160 128 L 160 128 L 176 128 L 176 128 Q 217 127 244 100 Q 271 73 272 32 L 272 16 L 272 16 Z M 160 144 Q 158 144 156 144 Q 113 191 112 256 Q 114 344 173 403 Q 232 462 320 464 L 408 464 L 410 464 L 412 465 L 412 465 L 476 497 L 476 497 L 468 511 L 468 511 L 406 480 L 406 480 L 320 480 L 320 480 L 320 480 L 320 480 L 234 480 L 234 480 L 172 511 L 172 511 L 164 497 L 164 497 L 228 465 L 228 465 L 230 464 L 230 464 L 232 464 L 237 464 Q 204 451 178 429 Q 133 447 89 432 Q 45 417 19 375 L 11 361 L 11 361 L 3 347 L 3 347 L 17 339 L 17 339 Q 44 324 73 324 Q 40 308 20 277 Q 1 247 0 208 L 0 192 L 0 192 L 0 176 L 0 176 L 16 176 L 16 176 Q 47 176 72 191 Q 52 161 50 125 Q 48 88 67 54 L 75 41 L 75 41 L 83 27 L 83 27 L 97 35 L 97 35 Q 132 56 146 93 Q 153 52 184 27 Q 214 1 256 0 L 272 0 L 288 0 L 288 16 L 288 16 L 288 32 L 288 32 Q 287 80 255 111 Q 224 143 176 144 L 160 144 L 160 144 Z M 136 142 Q 139 114 127 89 L 127 89 L 127 89 Q 114 64 89 49 L 81 63 L 81 63 Q 61 99 67 137 Q 74 176 104 203 Q 114 169 136 142 L 136 142 Z M 117 350 Q 72 328 25 353 L 33 367 L 33 367 Q 54 402 90 415 Q 126 429 164 417 Q 135 388 117 350 L 117 350 Z M 96 256 Q 96 251 96 246 L 96 246 L 96 246 Q 97 241 97 237 Q 69 194 16 192 L 16 208 L 16 208 Q 17 249 41 279 Q 66 309 105 318 Q 96 288 96 256 L 96 256 Z M 480 128 L 480 112 L 480 128 L 480 112 Q 479 71 452 44 Q 425 17 384 16 L 368 16 L 368 16 L 368 32 L 368 32 Q 369 73 396 100 Q 423 127 464 128 L 480 128 L 480 128 Z M 504 142 Q 526 169 536 203 Q 566 176 573 137 Q 579 99 559 63 L 551 49 L 551 49 Q 526 64 513 89 Q 501 114 504 142 L 504 142 Z M 568 191 Q 593 176 624 176 L 640 176 L 640 176 L 640 192 L 640 192 L 640 208 L 640 208 Q 639 247 620 277 Q 600 308 567 324 Q 596 323 623 339 L 637 347 L 637 347 L 629 361 L 629 361 L 621 375 L 621 375 Q 595 417 551 432 Q 507 446 462 429 Q 452 437 442 444 L 425 436 L 425 436 Q 472 408 500 361 Q 527 314 528 256 Q 527 191 484 144 Q 482 144 480 144 L 464 144 L 464 144 Q 416 143 385 111 Q 353 80 352 32 L 352 16 L 352 16 L 352 0 L 352 0 L 368 0 L 384 0 Q 426 1 456 27 Q 487 52 494 93 Q 508 56 543 35 L 557 27 L 557 27 L 565 41 L 565 41 L 573 55 L 573 55 Q 592 88 590 125 Q 588 161 568 191 L 568 191 Z M 523 350 Q 505 388 476 417 Q 514 429 550 415 Q 586 402 607 366 L 615 353 L 615 353 Q 568 328 523 350 L 523 350 Z M 543 237 Q 544 246 544 256 Q 544 288 535 318 Q 574 309 599 279 Q 623 249 624 208 L 624 192 L 624 192 Q 571 194 543 237 L 543 237 Z" />
</svg>