<svg xmlns="http://www.w3.org/2000/svg" viewBox="0 0 640 512">
  <path d="M 30 176 L 55 496 L 30 176 L 55 496 L 272 496 L 272 496 L 272 504 L 272 504 Q 272 508 273 512 L 40 512 L 40 512 L 1 16 L 1 16 L 0 0 L 0 0 L 16 0 L 384 0 L 383 16 L 383 16 L 369 188 L 369 188 Q 360 193 353 198 L 354 176 L 354 176 L 30 176 L 30 176 Z M 29 160 L 356 160 L 29 160 L 356 160 L 367 16 L 367 16 L 17 16 L 17 16 L 29 160 L 29 160 Z M 304 304 Q 303 302 317 277 L 317 277 L 317 277 Q 331 252 366 227 L 366 227 L 366 227 Q 401 202 464 200 Q 527 202 562 227 Q 597 252 611 277 Q 625 302 624 304 L 624 336 L 624 336 L 640 336 L 640 336 L 640 352 L 640 352 L 640 416 L 640 416 L 640 432 L 640 432 L 624 432 L 624 432 L 624 504 L 624 504 Q 623 511 616 512 L 312 512 L 312 512 Q 305 511 304 504 L 304 432 L 304 432 L 288 432 L 288 432 L 288 416 L 288 416 L 288 352 L 288 352 L 288 336 L 288 336 L 304 336 L 304 336 L 304 304 L 304 304 Z M 608 307 Q 608 306 608 306 L 608 306 L 608 306 Q 608 306 608 306 Q 608 306 608 305 Q 606 302 603 295 Q 596 281 580 263 Q 565 245 536 231 Q 508 217 464 216 Q 420 217 392 231 Q 364 245 348 263 Q 332 281 325 295 Q 322 302 321 305 Q 321 306 320 306 Q 320 306 320 307 L 320 336 L 320 336 L 608 336 L 608 336 L 608 307 L 608 307 Z M 304 416 L 312 416 L 304 416 L 624 416 L 624 352 L 624 352 L 608 352 L 304 352 L 304 416 L 304 416 Z M 320 432 L 320 496 L 320 432 L 320 496 L 608 496 L 608 496 L 608 432 L 608 432 L 320 432 L 320 432 Z M 394 264 Q 393 273 384 274 Q 375 273 374 264 Q 375 255 384 254 Q 393 255 394 264 L 394 264 Z M 464 258 Q 455 257 454 248 Q 455 239 464 238 Q 473 239 474 248 Q 473 257 464 258 L 464 258 Z M 554 264 Q 553 273 544 274 Q 535 273 534 264 Q 535 255 544 254 Q 553 255 554 264 L 554 264 Z" />
</svg>