<svg xmlns="http://www.w3.org/2000/svg" viewBox="0 0 512 512">
  <path d="M 264 16 L 464 16 L 264 16 L 464 16 L 464 272 L 464 272 L 264 272 L 264 272 L 264 16 L 264 16 Z M 480 288 L 480 272 L 480 288 L 480 272 L 480 16 L 480 16 L 480 0 L 480 0 L 464 0 L 32 0 L 32 16 L 32 16 L 32 272 L 32 272 L 32 288 L 32 288 L 48 288 L 480 288 Z M 48 272 L 48 16 L 48 272 L 48 16 L 248 16 L 248 16 L 248 272 L 248 272 L 48 272 L 48 272 Z M 8 496 L 0 496 L 8 496 L 0 496 L 0 512 L 0 512 L 8 512 L 512 512 L 512 496 L 512 496 L 504 496 L 480 496 L 480 320 L 480 320 L 464 320 L 464 320 L 464 496 L 464 496 L 48 496 L 48 496 L 48 320 L 48 320 L 32 320 L 32 320 L 32 496 L 32 496 L 8 496 L 8 496 Z" />
</svg>