<svg xmlns="http://www.w3.org/2000/svg" viewBox="0 0 512 512">
  <path d="M 256 16 Q 321 17 376 48 L 376 48 L 376 48 Q 431 80 464 136 Q 496 193 496 256 Q 496 319 464 376 Q 431 432 376 464 Q 321 495 256 496 Q 191 495 136 464 Q 81 432 48 376 Q 16 319 16 256 Q 16 193 48 136 Q 81 80 136 48 Q 191 17 256 16 L 256 16 Z M 256 512 Q 326 511 384 478 L 384 478 L 384 478 Q 442 444 478 384 Q 512 323 512 256 Q 512 189 478 128 Q 442 68 384 34 Q 326 1 256 0 Q 186 1 128 34 Q 70 68 34 128 Q 0 189 0 256 Q 0 323 34 384 Q 70 444 128 478 Q 186 511 256 512 L 256 512 Z M 200 128 L 194 128 L 200 128 L 194 128 L 192 134 L 192 134 L 168 238 L 168 238 L 166 247 L 166 247 L 175 248 L 175 248 L 286 258 L 286 258 Q 308 260 322 276 Q 336 291 336 313 Q 335 336 320 352 Q 304 367 281 368 L 228 368 L 228 368 Q 194 367 175 340 L 161 348 L 161 348 Q 186 383 228 384 L 281 384 L 281 384 Q 311 383 331 363 Q 351 343 352 313 Q 351 285 333 265 Q 315 245 287 242 L 186 233 L 186 233 L 206 144 L 206 144 L 328 144 L 336 144 L 336 128 L 336 128 L 328 128 L 200 128 Z" />
</svg>