<svg xmlns="http://www.w3.org/2000/svg" viewBox="0 0 448 448">
  <path d="M 432 432 L 432 16 L 432 432 L 432 16 L 16 16 L 16 16 L 16 432 L 16 432 L 432 432 L 432 432 Z M 448 448 L 432 448 L 448 448 L 0 448 L 0 432 L 0 432 L 0 16 L 0 16 L 0 0 L 0 0 L 16 0 L 448 0 L 448 16 L 448 16 L 448 432 L 448 432 L 448 448 L 448 448 Z M 312 320 L 168 320 L 312 320 L 160 320 L 160 304 L 160 304 L 168 304 L 293 304 L 130 142 L 130 142 L 125 136 L 125 136 L 136 125 L 136 125 L 142 130 L 142 130 L 304 293 L 304 293 L 304 168 L 304 168 L 304 160 L 304 160 L 320 160 L 320 160 L 320 168 L 320 168 L 320 312 L 320 312 L 320 320 L 320 320 L 312 320 L 312 320 Z" />
</svg>