<svg xmlns="http://www.w3.org/2000/svg" viewBox="0 0 480 512">
  <path d="M 16 16 L 304 16 L 16 16 L 304 16 L 304 284 L 304 284 Q 312 278 320 273 L 320 16 L 320 16 L 320 0 L 320 0 L 304 0 L 0 0 L 0 16 L 0 16 L 0 496 L 0 496 L 0 512 L 0 512 L 16 512 L 192 512 Q 192 504 192 496 L 16 496 L 16 496 L 16 16 L 16 16 Z M 112 432 L 104 432 L 112 432 L 104 432 L 104 448 L 104 448 L 112 448 L 199 448 Q 201 440 203 432 L 112 432 L 112 432 Z M 480 272 L 480 256 L 480 272 L 480 256 Q 408 257 351 291 Q 293 325 259 383 Q 225 440 224 512 L 240 512 L 240 512 Q 241 445 273 391 Q 305 337 359 305 Q 413 273 480 272 L 480 272 Z M 464 480 Q 463 495 448 496 Q 433 495 432 480 Q 433 465 448 464 Q 463 465 464 480 L 464 480 Z M 416 480 Q 416 494 425 503 L 425 503 L 425 503 Q 434 512 448 512 Q 462 512 471 503 Q 480 494 480 480 Q 480 466 471 457 Q 462 448 448 448 Q 434 448 425 457 Q 416 466 416 480 L 416 480 Z M 336 512 Q 338 451 378 410 L 378 410 L 378 410 Q 419 370 480 368 L 480 352 L 480 352 Q 412 354 367 399 Q 322 444 320 512 L 336 512 L 336 512 Z" />
</svg>