<svg xmlns="http://www.w3.org/2000/svg" viewBox="0 0 512 512">
  <path d="M 256 512 Q 326 511 384 478 L 384 478 L 384 478 Q 442 444 478 384 Q 512 323 512 256 Q 512 189 478 128 Q 442 68 384 34 Q 326 1 256 0 Q 186 1 128 34 Q 70 68 34 128 Q 0 189 0 256 Q 0 323 34 384 Q 70 444 128 478 Q 186 511 256 512 L 256 512 Z M 273 103 L 385 215 L 273 103 L 385 215 L 402 232 L 402 232 L 368 266 L 368 266 L 351 249 L 351 249 L 280 178 L 280 178 L 280 392 L 280 392 L 280 416 L 280 416 L 232 416 L 232 416 L 232 392 L 232 392 L 232 178 L 232 178 L 161 249 L 161 249 L 144 266 L 144 266 L 110 232 L 110 232 L 127 215 L 127 215 L 239 103 L 239 103 L 256 86 L 256 86 L 273 103 L 273 103 Z" />
</svg>