<svg xmlns="http://www.w3.org/2000/svg" viewBox="0 0 512 512">
  <path d="M 211 47 Q 223 18 256 16 Q 289 18 301 47 L 306 61 L 306 61 L 315 50 L 315 50 Q 329 33 352 32 Q 372 33 386 46 Q 399 60 400 80 Q 399 100 386 114 Q 372 127 352 128 L 303 128 L 298 128 L 296 132 L 296 132 L 268 176 L 268 176 L 244 176 L 244 176 L 216 132 L 216 132 L 214 128 L 214 128 L 209 128 L 160 128 Q 140 127 126 114 Q 113 100 112 80 Q 113 60 126 46 Q 140 33 160 32 Q 183 33 197 50 L 206 61 L 206 61 L 211 47 L 211 47 Z M 256 0 Q 220 2 201 31 Q 184 16 160 16 Q 133 17 115 35 Q 97 53 96 80 Q 97 107 115 125 Q 133 143 160 144 L 205 144 L 205 144 L 233 188 L 233 188 L 236 192 L 236 192 L 240 192 L 276 192 L 279 188 L 279 188 L 307 144 L 307 144 L 352 144 L 352 144 Q 379 143 397 125 Q 415 107 416 80 Q 415 53 397 35 Q 379 17 352 16 Q 328 16 311 31 Q 292 2 256 0 L 256 0 Z M 16 446 L 110 340 L 16 446 L 110 340 L 128 352 L 128 352 L 240 320 L 240 320 L 320 384 L 320 384 L 404 342 L 404 342 L 496 446 L 496 446 L 496 496 L 496 496 L 16 496 L 16 496 L 16 446 L 16 446 Z M 419 335 L 408 322 L 419 335 L 408 322 L 320 224 L 320 224 L 192 224 L 192 224 L 108 319 L 108 319 Q 108 319 108 319 Q 108 319 108 319 L 97 331 L 97 331 Q 97 331 97 331 Q 97 331 97 331 L 0 440 L 0 440 L 0 496 L 0 496 L 0 512 L 0 512 L 16 512 L 512 512 L 512 496 L 512 496 L 512 440 L 512 440 L 419 335 L 419 335 Z M 199 240 L 313 240 L 199 240 L 313 240 L 393 330 L 393 330 L 322 365 L 322 365 L 250 308 L 250 308 L 244 302 L 244 302 L 236 305 L 236 305 L 131 335 L 131 335 L 121 328 L 121 328 L 199 240 L 199 240 Z" />
</svg>