<svg xmlns="http://www.w3.org/2000/svg" viewBox="0 0 448 512">
  <path d="M 160 0 L 288 0 L 160 0 L 292 0 L 295 4 L 295 4 L 332 64 L 332 64 L 448 64 L 448 64 L 448 80 L 448 80 L 0 80 L 0 80 L 0 64 L 0 64 L 116 64 L 116 64 L 153 4 L 153 4 L 156 0 L 156 0 L 160 0 L 160 0 Z M 314 64 L 284 16 L 314 64 L 284 16 L 164 16 L 164 16 L 134 64 L 134 64 L 314 64 L 314 64 Z M 32 504 L 32 112 L 32 504 L 32 112 L 48 112 L 48 112 L 48 496 L 48 496 L 400 496 L 400 496 L 400 112 L 400 112 L 416 112 L 416 112 L 416 504 L 416 504 L 416 512 L 416 512 L 408 512 L 32 512 L 32 504 L 32 504 Z M 219 193 L 213 198 L 219 193 L 213 198 L 141 264 L 141 264 L 248 264 L 248 264 Q 279 265 299 285 Q 319 305 320 336 L 320 376 L 320 376 L 320 384 L 320 384 L 304 384 L 304 384 L 304 376 L 304 376 L 304 336 L 304 336 Q 303 312 288 296 Q 272 281 248 280 L 141 280 L 141 280 L 213 346 L 213 346 L 219 352 L 219 352 L 208 363 L 208 363 L 203 358 L 203 358 L 115 278 L 115 278 L 108 272 L 108 272 L 115 266 L 115 266 L 203 186 L 203 186 L 208 181 L 208 181 L 219 193 L 219 193 Z" />
</svg>