<svg xmlns="http://www.w3.org/2000/svg" viewBox="0 0 384 448">
  <path d="M 0 448 L 8 448 L 0 448 L 384 448 L 384 440 L 384 440 L 384 352 L 384 352 L 384 344 L 384 344 L 368 344 L 368 344 L 368 352 L 368 352 L 368 432 L 368 432 L 26 432 L 26 432 L 206 229 L 206 229 L 211 224 L 211 224 L 206 219 L 206 219 L 26 16 L 26 16 L 368 16 L 368 16 L 368 96 L 368 96 L 368 104 L 368 104 L 384 104 L 384 104 L 384 96 L 384 96 L 384 8 L 384 8 L 384 0 L 384 0 L 376 0 L 0 0 L 0 11 L 0 11 L 2 13 L 2 13 L 189 224 L 189 224 L 2 435 L 2 435 L 0 437 L 0 437 L 0 448 L 0 448 Z" />
</svg>