<svg xmlns="http://www.w3.org/2000/svg" viewBox="0 0 576 448">
  <path d="M 128 80 Q 129 46 151 23 L 151 23 L 151 23 Q 174 1 208 0 Q 242 1 265 23 Q 287 46 288 80 L 288 120 L 288 120 L 288 128 L 288 128 L 272 128 L 272 128 L 272 120 L 272 120 L 272 80 L 272 80 Q 271 53 253 35 Q 235 17 208 16 Q 181 17 163 35 Q 145 53 144 80 L 144 208 L 144 208 L 384 208 L 384 208 L 384 80 L 384 80 Q 385 46 407 23 Q 430 1 464 0 Q 498 1 521 23 Q 543 46 544 80 L 544 120 L 544 120 L 544 128 L 544 128 L 528 128 L 528 128 L 528 120 L 528 120 L 528 80 L 528 80 Q 527 53 509 35 Q 491 17 464 16 Q 437 17 419 35 Q 401 53 400 80 L 400 216 L 400 216 L 400 349 L 400 349 Q 392 351 384 351 L 384 224 L 384 224 L 144 224 L 144 224 L 144 337 L 144 337 Q 136 333 128 327 L 128 216 L 128 216 L 128 80 L 128 80 Z M 97 363 Q 97 364 98 365 L 98 365 L 98 365 Q 104 373 110 381 Q 117 390 130 402 Q 143 414 159 423 Q 175 432 192 432 Q 209 432 225 423 Q 241 414 254 402 Q 267 390 274 381 Q 281 373 287 364 Q 287 363 287 363 Q 287 363 288 362 Q 288 362 288 362 Q 288 362 288 363 Q 288 363 289 363 Q 289 364 290 365 Q 295 373 302 381 Q 309 390 322 402 Q 335 414 351 423 Q 367 432 384 432 Q 401 432 417 423 Q 433 414 446 402 Q 459 390 466 381 Q 473 373 479 364 Q 479 363 479 363 L 480 362 L 480 362 L 481 363 L 481 363 Q 481 364 482 365 Q 487 373 494 381 Q 501 390 514 402 Q 527 414 543 423 Q 559 432 576 432 L 576 448 L 576 448 Q 554 447 536 437 Q 517 427 503 414 Q 488 399 480 389 Q 472 399 457 414 Q 443 427 424 437 Q 406 447 384 448 Q 362 447 344 437 Q 325 427 311 414 Q 296 399 288 389 Q 280 399 265 414 Q 251 427 232 437 Q 214 447 192 448 Q 170 447 152 437 Q 133 427 119 414 Q 104 399 96 389 Q 88 399 73 414 Q 59 427 40 437 Q 22 447 0 448 L 0 432 L 0 432 Q 17 432 33 423 Q 49 414 62 402 Q 75 390 82 381 Q 89 373 95 364 Q 95 363 95 363 Q 95 363 96 363 Q 96 362 96 362 Q 96 363 97 363 L 97 363 Z" />
</svg>