<svg xmlns="http://www.w3.org/2000/svg" viewBox="0 0 640 448">
  <path d="M 80 0 L 280 0 L 80 0 L 280 0 L 280 16 L 280 16 L 80 16 L 80 16 L 80 320 L 80 320 L 64 320 L 64 320 L 64 16 L 64 16 L 64 0 L 64 0 L 80 0 L 80 0 Z M 560 16 L 360 16 L 560 16 L 360 16 L 360 0 L 360 0 L 560 0 L 576 0 L 576 16 L 576 16 L 576 320 L 576 320 L 560 320 L 560 320 L 560 16 L 560 16 Z M 55 432 L 585 432 L 55 432 L 585 432 L 624 393 L 624 393 L 624 368 L 624 368 L 16 368 L 16 368 L 16 393 L 16 393 L 55 432 L 55 432 Z M 640 352 L 640 368 L 640 352 L 640 368 L 640 400 L 640 400 L 592 448 L 592 448 L 48 448 L 48 448 L 0 400 L 0 400 L 0 368 L 0 368 L 0 352 L 0 352 L 16 352 L 640 352 Z M 328 8 L 328 261 L 328 8 L 328 261 L 402 186 L 402 186 L 408 181 L 408 181 L 419 192 L 419 192 L 414 198 L 414 198 L 326 286 L 326 286 L 320 291 L 320 291 L 314 286 L 314 286 L 226 198 L 226 198 L 220 192 L 220 192 L 232 181 L 232 181 L 238 186 L 238 186 L 312 261 L 312 261 L 312 8 L 312 8 L 312 0 L 312 0 L 328 0 L 328 0 L 328 8 L 328 8 Z" />
</svg>