<svg xmlns="http://www.w3.org/2000/svg" viewBox="0 0 576 499">
  <path d="M 291 1 L 288 0 L 291 1 L 288 0 L 285 1 L 285 1 L 149 49 L 149 49 L 144 51 L 144 51 L 144 57 L 144 57 L 144 212 L 144 212 L 5 259 L 5 259 L 0 261 L 0 261 L 0 267 L 0 267 L 0 429 L 0 429 L 0 434 L 0 434 L 5 436 L 5 436 L 141 497 L 141 497 L 144 499 L 144 499 L 147 498 L 147 498 L 288 445 L 288 445 L 429 498 L 429 498 L 432 499 L 432 499 L 435 497 L 435 497 L 571 436 L 571 436 L 576 434 L 576 434 L 576 429 L 576 429 L 576 267 L 576 267 L 576 261 L 576 261 L 571 259 L 571 259 L 432 213 L 432 213 L 432 57 L 432 57 L 432 51 L 432 51 L 427 49 L 427 49 L 291 1 L 291 1 Z M 280 431 L 152 479 L 280 431 L 152 479 L 152 336 L 152 336 L 280 286 L 280 286 L 280 431 L 280 431 Z M 136 478 L 16 424 L 136 478 L 16 424 L 16 279 L 16 279 L 136 335 L 136 335 L 136 478 L 136 478 Z M 152 227 L 266 274 L 152 227 L 266 274 L 144 321 L 144 321 L 30 268 L 30 268 L 152 227 L 152 227 Z M 296 286 L 424 336 L 296 286 L 424 336 L 424 479 L 424 479 L 296 431 L 296 431 L 296 286 L 296 286 Z M 280 263 L 160 213 L 280 263 L 160 213 L 160 65 L 160 65 L 280 111 L 280 111 L 280 263 L 280 263 Z M 296 263 L 296 111 L 296 263 L 296 111 L 416 65 L 416 65 L 416 213 L 416 213 L 296 263 L 296 263 Z M 396 55 L 288 97 L 396 55 L 288 97 L 180 55 L 180 55 L 288 17 L 288 17 L 396 55 L 396 55 Z M 310 274 L 424 227 L 310 274 L 424 227 L 546 268 L 546 268 L 432 321 L 432 321 L 310 274 L 310 274 Z M 560 424 L 440 478 L 560 424 L 440 478 L 440 335 L 440 335 L 560 279 L 560 279 L 560 424 L 560 424 Z" />
</svg>