<svg xmlns="http://www.w3.org/2000/svg" viewBox="0 0 490 510">
  <path d="M 255 38 L 217 0 L 255 38 L 217 0 Q 197 12 170 38 Q 143 63 123 98 Q 102 134 101 175 Q 102 234 141 275 Q 179 315 238 320 Q 242 320 246 320 Q 251 320 255 320 Q 314 315 352 275 Q 390 234 392 175 Q 393 155 374 115 Q 356 74 305 29 L 296 38 L 296 38 L 276 58 L 276 58 L 255 38 L 255 38 Z M 247 291 Q 243 291 240 291 Q 217 288 203 273 Q 189 258 188 239 Q 190 208 224 174 Q 236 161 247 153 Q 257 161 269 174 Q 303 208 305 239 Q 304 258 290 273 Q 276 288 253 291 Q 253 291 253 291 Q 250 291 247 291 L 247 291 Z M 334 239 Q 332 206 311 179 L 311 179 L 311 179 Q 290 151 269 134 L 269 134 L 269 134 Q 248 117 247 117 Q 245 117 224 134 Q 203 151 182 179 Q 161 206 159 239 Q 159 246 161 253 Q 131 221 130 175 Q 132 126 167 84 Q 191 55 214 38 L 255 79 L 255 79 L 276 99 L 276 99 L 296 79 L 296 79 L 306 69 L 306 69 Q 340 106 352 135 Q 364 164 363 175 Q 362 221 333 253 Q 334 246 334 239 L 334 239 Z M 27 296 L 12 290 L 27 296 L 12 290 L 0 319 L 0 319 L 15 325 L 15 325 L 202 400 L 202 400 L 15 475 L 15 475 L 0 481 L 0 481 L 12 510 L 12 510 L 27 504 L 27 504 L 245 417 L 245 417 L 463 504 L 463 504 L 478 510 L 478 510 L 490 481 L 490 481 L 475 475 L 475 475 L 288 400 L 288 400 L 475 325 L 475 325 L 490 319 L 490 319 L 478 290 L 478 290 L 463 296 L 463 296 L 245 383 L 245 383 L 27 296 L 27 296 Z" />
</svg>