<svg xmlns="http://www.w3.org/2000/svg" viewBox="0 0 475 448">
  <path d="M 391 16 Q 352 17 332 50 Q 314 84 332 118 Q 352 151 391 152 Q 429 151 450 118 Q 468 84 450 50 Q 430 17 391 16 L 391 16 Z M 391 168 Q 355 167 332 143 L 332 143 L 332 143 Q 308 120 307 84 Q 308 48 332 25 Q 355 1 391 0 Q 426 1 449 23 Q 472 46 475 80 Q 475 80 475 80 Q 475 80 475 80 Q 475 81 475 81 Q 475 82 475 82 Q 475 83 475 83 Q 475 84 475 84 Q 475 100 469 115 Q 463 132 451 147 L 389 224 L 389 224 L 369 224 L 369 224 L 417 164 L 417 164 Q 405 168 391 168 L 391 168 Z M 123 5 L 129 10 L 123 5 L 129 10 L 241 122 L 241 122 L 246 128 L 246 128 L 235 139 L 235 139 L 229 134 L 229 134 L 131 35 L 131 35 L 131 440 L 131 440 L 131 448 L 131 448 L 115 448 L 115 448 L 115 440 L 115 440 L 115 35 L 115 35 L 17 134 L 17 134 L 11 139 L 11 139 L 0 128 L 0 128 L 5 122 L 5 122 L 117 10 L 117 10 L 123 5 L 123 5 Z M 331 256 L 339 256 L 331 256 L 403 256 L 403 264 L 403 264 L 403 432 L 403 432 L 451 432 L 459 432 L 459 448 L 459 448 L 451 448 L 331 448 L 331 432 L 331 432 L 339 432 L 387 432 L 387 272 L 387 272 L 339 272 L 331 272 L 331 256 L 331 256 Z" />
</svg>