<svg xmlns="http://www.w3.org/2000/svg" viewBox="0 0 574 521">
  <path d="M 390 288 L 343 242 L 390 288 L 343 242 L 574 12 L 574 12 L 562 0 L 562 0 L 332 231 L 332 231 L 286 184 L 286 184 L 283 182 L 283 182 L 280 182 L 257 182 L 256 189 L 256 189 L 250 238 L 250 238 L 217 235 L 217 235 Q 152 231 106 276 Q 69 314 64 366 Q 64 371 64 377 L 64 382 L 64 382 L 80 382 L 112 382 L 93 398 L 93 398 L 0 478 L 0 478 L 0 494 L 0 494 L 0 510 L 0 510 L 16 510 L 197 510 Q 256 509 298 468 Q 343 421 339 357 L 337 324 L 337 324 L 385 318 L 385 318 L 392 317 L 392 317 L 392 310 L 392 310 L 392 294 L 392 294 L 392 291 L 392 291 L 390 288 L 390 288 Z M 327 309 L 265 247 L 327 309 L 265 247 L 271 198 L 271 198 L 277 198 L 277 198 L 376 297 L 376 297 L 376 303 L 376 303 L 327 309 L 327 309 Z M 112 366 L 81 366 L 112 366 L 81 366 Q 85 321 117 288 Q 159 248 216 251 L 249 254 L 249 254 L 320 325 L 320 325 L 323 358 L 323 358 Q 326 415 286 457 Q 249 493 197 494 L 16 494 L 16 494 L 16 485 L 16 485 L 122 394 L 122 394 L 155 366 L 155 366 L 112 366 L 112 366 Z M 400 430 Q 401 394 432 375 Q 464 357 496 375 Q 527 394 528 430 Q 527 466 496 485 Q 464 503 432 485 Q 401 466 400 430 L 400 430 Z M 544 430 Q 543 385 504 361 Q 464 339 424 361 Q 385 385 384 430 Q 385 475 424 499 Q 464 521 504 499 Q 543 475 544 430 L 544 430 Z" />
</svg>