<svg xmlns="http://www.w3.org/2000/svg" viewBox="0 0 512 448">
  <path d="M 496 176 L 16 176 L 496 176 L 16 176 L 16 16 L 16 16 L 496 16 L 496 16 L 496 176 L 496 176 Z M 512 192 L 512 176 L 512 192 L 512 176 L 512 16 L 512 16 L 512 0 L 512 0 L 496 0 L 0 0 L 0 16 L 0 16 L 0 176 L 0 176 L 0 192 L 0 192 L 16 192 L 248 192 L 248 317 L 248 317 L 198 266 L 198 266 L 192 261 L 192 261 L 181 272 L 181 272 L 186 278 L 186 278 L 250 342 L 250 342 L 256 347 L 256 347 L 262 342 L 262 342 L 326 278 L 326 278 L 332 272 L 332 272 L 320 261 L 320 261 L 314 266 L 314 266 L 264 317 L 264 317 L 264 192 L 264 192 L 496 192 L 512 192 Z M 512 440 L 512 264 L 512 440 L 512 264 L 512 256 L 512 256 L 504 256 L 392 256 L 392 272 L 392 272 L 400 272 L 496 272 L 496 432 L 496 432 L 16 432 L 16 432 L 16 272 L 16 272 L 112 272 L 120 272 L 120 256 L 120 256 L 112 256 L 0 256 L 0 264 L 0 264 L 0 440 L 0 440 L 0 448 L 0 448 L 8 448 L 512 448 L 512 440 L 512 440 Z" />
</svg>