<svg xmlns="http://www.w3.org/2000/svg" viewBox="0 0 512 512">
  <path d="M 408 8 L 408 0 L 408 8 L 408 0 L 392 0 L 392 0 L 392 8 L 392 8 L 392 64 L 392 64 L 383 64 L 383 64 Q 343 65 316 92 Q 289 119 288 159 Q 288 191 306 215 Q 324 239 354 250 L 441 278 L 441 278 Q 466 286 481 306 Q 496 327 496 353 Q 495 387 473 409 Q 451 431 417 432 L 408 432 L 395 432 Q 395 432 395 432 Q 362 432 334 415 L 308 400 L 308 400 L 300 414 L 300 414 L 325 429 L 325 429 Q 356 447 392 448 L 392 504 L 392 504 L 392 512 L 392 512 L 408 512 L 408 512 L 408 504 L 408 504 L 408 448 L 408 448 L 417 448 L 417 448 Q 457 447 484 420 Q 511 393 512 353 Q 512 321 494 297 Q 476 273 446 262 L 359 234 L 359 234 Q 334 226 319 206 Q 304 185 304 159 Q 305 125 327 103 Q 349 81 383 80 L 392 80 L 403 80 Q 430 80 456 91 L 469 96 L 469 96 L 475 81 L 475 81 L 462 76 L 462 76 Q 436 65 408 64 L 408 8 L 408 8 Z M 0 32 L 0 40 L 0 32 L 0 40 L 0 296 L 0 296 L 0 480 L 0 480 L 16 480 L 16 480 L 16 304 L 16 304 L 120 304 L 120 304 Q 121 304 121 304 Q 122 304 122 304 L 181 480 L 181 480 L 198 480 L 198 480 L 139 303 L 139 303 Q 190 295 222 258 Q 255 221 256 168 Q 255 110 216 72 Q 178 33 120 32 L 8 32 L 0 32 Z M 16 288 L 16 48 L 16 288 L 16 48 L 120 48 L 120 48 Q 171 49 205 83 Q 239 117 240 168 Q 239 219 205 253 Q 171 287 120 288 L 16 288 L 16 288 Z" />
</svg>