<svg xmlns="http://www.w3.org/2000/svg" viewBox="0 0 448 512">
  <path d="M 327 282 Q 354 260 369 228 L 369 228 L 369 228 Q 384 197 384 160 Q 382 92 337 47 Q 292 2 224 0 Q 156 2 111 47 Q 66 92 64 160 Q 64 197 79 228 Q 94 260 121 282 L 118 304 L 118 304 L 64 304 L 64 304 L 0 512 L 0 512 L 448 512 L 448 512 L 384 304 L 384 304 L 330 304 L 330 304 L 327 282 L 327 282 Z M 160 384 L 160 400 L 160 384 L 160 400 L 160 464 L 160 464 L 160 480 L 160 480 L 128 480 L 128 480 L 128 464 L 128 464 L 128 400 L 128 400 L 128 384 L 128 384 L 160 384 L 160 384 Z M 320 384 L 320 400 L 320 384 L 320 400 L 320 464 L 320 464 L 320 480 L 320 480 L 288 480 L 288 480 L 288 464 L 288 464 L 288 400 L 288 400 L 288 384 L 288 384 L 320 384 L 320 384 Z M 160 157 Q 162 194 198 228 Q 212 241 224 249 Q 236 241 250 228 Q 286 194 288 157 Q 287 132 270 114 Q 252 97 224 96 Q 196 97 178 114 Q 161 132 160 157 L 160 157 Z M 128 157 Q 129 118 156 91 L 156 91 L 156 91 Q 183 65 224 64 Q 265 65 292 91 Q 319 118 320 157 Q 318 195 295 224 Q 272 254 249 271 Q 226 288 224 288 Q 224 288 224 288 Q 222 288 199 271 Q 176 254 153 224 Q 130 195 128 157 L 128 157 Z" />
</svg>