<svg xmlns="http://www.w3.org/2000/svg" viewBox="0 0 560 384">
  <path d="M 16 8 L 16 0 L 16 8 L 16 0 L 0 0 L 0 0 L 0 8 L 0 8 L 0 184 L 0 184 L 0 376 L 0 376 L 0 384 L 0 384 L 16 384 L 16 384 L 16 376 L 16 376 L 16 192 L 16 192 L 304 192 L 304 192 L 304 376 L 304 376 L 304 384 L 304 384 L 320 384 L 320 384 L 320 376 L 320 376 L 320 184 L 320 184 L 320 8 L 320 8 L 320 0 L 320 0 L 304 0 L 304 0 L 304 8 L 304 8 L 304 176 L 304 176 L 16 176 L 16 176 L 16 8 L 16 8 Z M 480 17 L 480 368 L 480 17 L 480 368 L 424 368 L 416 368 L 416 384 L 416 384 L 424 384 L 560 384 L 560 368 L 560 368 L 552 368 L 496 368 L 496 8 L 496 8 L 496 0 L 496 0 L 488 0 L 478 0 L 476 1 L 476 1 L 416 39 L 416 39 L 416 58 L 416 58 L 480 18 L 480 17 Z" />
</svg>