<svg xmlns="http://www.w3.org/2000/svg" viewBox="0 0 640 512">
  <path d="M 288 0 L 352 64 L 288 0 L 352 64 L 384 32 L 384 32 Q 440 81 461 126 Q 481 170 480 192 Q 478 260 433 305 Q 388 350 320 352 Q 252 350 207 305 Q 162 260 160 192 Q 161 147 184 108 Q 206 70 236 42 Q 265 14 288 0 L 288 0 Z M 384 240 Q 383 216 367 194 L 367 194 L 367 194 Q 352 172 337 158 L 337 158 L 337 158 Q 321 145 320 144 L 320 144 L 320 144 Q 320 144 320 144 Q 319 145 303 158 Q 288 172 273 194 Q 257 216 256 240 Q 257 267 275 285 Q 293 304 320 304 Q 347 304 365 285 Q 383 267 384 240 L 384 240 Z M 32 256 L 64 256 L 32 256 L 128 256 L 128 320 L 128 320 L 96 320 L 96 320 L 96 384 L 96 384 L 544 384 L 544 384 L 544 320 L 544 320 L 512 320 L 512 320 L 512 256 L 512 256 L 544 256 L 608 256 L 608 288 L 608 288 L 608 384 L 608 384 L 640 384 L 640 384 L 640 512 L 640 512 L 0 512 L 0 512 L 0 384 L 0 384 L 32 384 L 32 384 L 32 288 L 32 288 L 32 256 L 32 256 Z M 320 480 Q 334 480 343 471 L 343 471 L 343 471 Q 352 462 352 448 Q 352 434 343 425 Q 334 416 320 416 Q 306 416 297 425 Q 288 434 288 448 Q 288 462 297 471 Q 306 480 320 480 L 320 480 Z M 480 448 Q 480 434 471 425 L 471 425 L 471 425 Q 462 416 448 416 Q 434 416 425 425 Q 416 434 416 448 Q 416 462 425 471 Q 434 480 448 480 Q 462 480 471 471 Q 480 462 480 448 L 480 448 Z M 192 480 Q 206 480 215 471 L 215 471 L 215 471 Q 224 462 224 448 Q 224 434 215 425 Q 206 416 192 416 Q 178 416 169 425 Q 160 434 160 448 Q 160 462 169 471 Q 178 480 192 480 L 192 480 Z" />
</svg>