<svg xmlns="http://www.w3.org/2000/svg" viewBox="0 0 499 498">
  <path d="M 254 2 L 250 0 L 254 2 L 250 0 L 246 2 L 246 2 Q 186 37 124 43 Q 63 49 22 26 L 11 20 L 11 20 L 10 32 L 10 32 Q 0 116 5 187 Q 10 257 35 314 Q 61 372 112 417 Q 164 462 247 496 L 250 498 L 250 498 L 253 496 L 253 496 Q 335 459 386 413 Q 437 368 463 311 Q 489 254 494 185 Q 499 116 490 32 L 489 20 L 489 20 L 478 26 L 478 26 Q 438 49 379 43 Q 320 37 254 2 L 254 2 Z M 126 59 Q 189 53 250 18 Q 313 51 372 58 Q 431 66 475 46 Q 481 103 480 153 L 250 153 L 20 153 Q 19 103 25 45 Q 69 65 126 59 L 126 59 Z M 20 169 L 479 169 L 20 169 L 479 169 Q 476 245 449 304 Q 425 357 376 400 Q 328 444 250 480 Q 170 447 122 404 Q 73 361 50 308 Q 23 247 20 169 L 20 169 Z" />
</svg>