<svg xmlns="http://www.w3.org/2000/svg" viewBox="0 0 441 512">
  <path d="M 138 38 L 298 18 L 138 38 L 298 18 L 298 64 L 298 64 L 138 64 L 138 64 L 138 38 L 138 38 Z M 298 2 L 122 24 L 298 2 L 122 24 L 122 64 L 122 64 L 122 80 L 122 80 L 138 80 L 314 80 L 314 64 L 314 64 L 314 16 L 314 16 L 314 0 L 314 0 L 298 2 L 298 2 Z M 138 112 Q 139 146 161 169 L 161 169 L 161 169 Q 184 191 218 192 Q 252 191 275 169 Q 297 146 298 112 Q 298 104 296 96 L 280 96 L 280 96 Q 282 104 282 112 Q 281 139 263 157 Q 245 175 218 176 Q 191 175 173 157 Q 155 139 154 112 Q 154 104 156 96 L 140 96 L 140 96 Q 138 104 138 112 L 138 112 Z M 330 397 L 359 447 L 330 397 L 359 447 L 368 460 L 368 460 L 381 452 L 381 452 L 423 428 L 423 428 L 436 420 L 436 420 L 428 406 L 428 406 L 344 264 L 344 264 L 383 197 L 383 197 L 391 183 L 391 183 L 377 175 L 377 175 L 385 161 L 385 161 L 433 78 L 433 78 L 441 64 L 441 64 L 427 56 L 427 56 L 413 48 L 413 48 L 399 40 L 399 40 L 386 32 L 386 32 L 378 46 L 378 46 L 391 54 L 391 54 L 383 68 L 383 68 L 343 137 L 343 137 L 335 151 L 335 151 L 322 143 L 322 143 L 314 157 L 314 157 L 275 224 L 275 224 L 138 224 L 115 224 L 104 244 L 104 244 L 8 406 L 8 406 L 0 420 L 0 420 L 13 428 L 13 428 L 55 452 L 55 452 L 69 460 L 69 460 L 77 447 L 77 447 L 106 397 L 106 397 L 122 370 L 122 370 L 122 401 L 122 401 L 122 496 L 122 496 L 122 512 L 122 512 L 138 512 L 314 512 L 314 496 L 314 496 L 314 401 L 314 401 L 314 370 L 314 370 L 330 397 L 330 397 Z M 293 224 L 328 165 L 293 224 L 328 165 L 342 173 L 342 173 L 350 159 L 350 159 L 406 62 L 406 62 L 419 70 L 419 70 L 363 167 L 363 167 L 355 181 L 355 181 L 369 189 L 369 189 L 335 248 L 335 248 L 332 244 L 332 244 L 321 224 L 321 224 L 298 224 L 293 224 Z M 298 481 L 142 240 L 298 481 L 142 240 L 298 240 L 312 240 L 319 252 L 319 252 L 415 414 L 415 414 L 373 438 L 373 438 L 328 362 L 328 362 L 317 344 L 317 344 L 298 344 L 298 344 L 298 370 L 298 370 L 298 481 L 298 481 Z M 289 496 L 138 496 L 289 496 L 138 496 L 138 370 L 138 370 L 138 344 L 138 344 L 119 344 L 119 344 L 108 362 L 108 362 L 63 439 L 63 439 L 22 414 L 22 414 L 117 252 L 117 252 L 124 241 L 124 241 L 289 496 L 289 496 Z M 266 288 Q 281 289 282 304 Q 281 319 266 320 Q 251 319 250 304 Q 251 289 266 288 L 266 288 Z M 266 336 Q 280 336 289 327 L 289 327 L 289 327 Q 298 318 298 304 Q 298 290 289 281 Q 280 272 266 272 Q 252 272 243 281 Q 234 290 234 304 Q 234 318 243 327 Q 252 336 266 336 L 266 336 Z" />
</svg>