<svg xmlns="http://www.w3.org/2000/svg" viewBox="0 0 448 512">
  <path d="M 160 0 L 288 0 L 160 0 L 292 0 L 295 4 L 295 4 L 332 64 L 332 64 L 448 64 L 448 64 L 448 80 L 448 80 L 0 80 L 0 80 L 0 64 L 0 64 L 116 64 L 116 64 L 153 4 L 153 4 L 156 0 L 156 0 L 160 0 L 160 0 Z M 314 64 L 284 16 L 314 64 L 284 16 L 164 16 L 164 16 L 134 64 L 134 64 L 314 64 L 314 64 Z M 32 504 L 32 112 L 32 504 L 32 112 L 48 112 L 48 112 L 48 496 L 48 496 L 400 496 L 400 496 L 400 112 L 400 112 L 416 112 L 416 112 L 416 504 L 416 504 L 416 512 L 416 512 L 408 512 L 32 512 L 32 504 L 32 504 Z M 232 192 L 232 200 L 232 192 L 232 200 L 232 280 L 232 280 L 312 280 L 320 280 L 320 296 L 320 296 L 312 296 L 232 296 L 232 376 L 232 376 L 232 384 L 232 384 L 216 384 L 216 384 L 216 376 L 216 376 L 216 296 L 216 296 L 136 296 L 128 296 L 128 280 L 128 280 L 136 280 L 216 280 L 216 200 L 216 200 L 216 192 L 216 192 L 232 192 L 232 192 Z" />
</svg>