<svg xmlns="http://www.w3.org/2000/svg" viewBox="0 0 512 512">
  <path d="M 496 256 Q 495 191 464 136 L 464 136 L 464 136 Q 432 81 376 48 Q 319 16 256 16 Q 193 16 136 48 Q 80 81 48 136 Q 17 191 16 256 Q 17 321 48 376 Q 80 431 136 464 Q 193 496 256 496 Q 319 496 376 464 Q 432 431 464 376 Q 495 321 496 256 L 496 256 Z M 0 256 Q 1 186 34 128 L 34 128 L 34 128 Q 68 70 128 34 Q 189 0 256 0 Q 323 0 384 34 Q 444 70 478 128 Q 511 186 512 256 Q 511 326 478 384 Q 444 442 384 478 Q 323 512 256 512 Q 189 512 128 478 Q 68 442 34 384 Q 1 326 0 256 L 0 256 Z M 264 72 L 264 152 L 264 72 L 264 152 L 344 152 L 344 152 L 344 104 L 344 104 L 344 96 L 344 96 L 360 96 L 360 96 L 360 104 L 360 104 L 360 152 L 360 152 L 408 152 L 416 152 L 416 168 L 416 168 L 408 168 L 360 168 L 360 248 L 360 248 L 440 248 L 448 248 L 448 264 L 448 264 L 440 264 L 360 264 L 360 344 L 360 344 L 408 344 L 416 344 L 416 360 L 416 360 L 408 360 L 360 360 L 360 408 L 360 408 L 360 416 L 360 416 L 344 416 L 344 416 L 344 408 L 344 408 L 344 360 L 344 360 L 264 360 L 264 360 L 264 440 L 264 440 L 264 448 L 264 448 L 248 448 L 248 448 L 248 440 L 248 440 L 248 360 L 248 360 L 168 360 L 168 360 L 168 408 L 168 408 L 168 416 L 168 416 L 152 416 L 152 416 L 152 408 L 152 408 L 152 360 L 152 360 L 104 360 L 96 360 L 96 344 L 96 344 L 104 344 L 152 344 L 152 264 L 152 264 L 72 264 L 64 264 L 64 248 L 64 248 L 72 248 L 152 248 L 152 168 L 152 168 L 104 168 L 96 168 L 96 152 L 96 152 L 104 152 L 152 152 L 152 104 L 152 104 L 152 96 L 152 96 L 168 96 L 168 96 L 168 104 L 168 104 L 168 152 L 168 152 L 248 152 L 248 152 L 248 72 L 248 72 L 248 64 L 248 64 L 264 64 L 264 64 L 264 72 L 264 72 Z M 168 168 L 168 248 L 168 168 L 168 248 L 248 248 L 248 248 L 248 168 L 248 168 L 168 168 L 168 168 Z M 168 264 L 168 344 L 168 264 L 168 344 L 248 344 L 248 344 L 248 264 L 248 264 L 168 264 L 168 264 Z M 264 264 L 264 344 L 264 264 L 264 344 L 344 344 L 344 344 L 344 264 L 344 264 L 264 264 L 264 264 Z M 264 248 L 344 248 L 264 248 L 344 248 L 344 168 L 344 168 L 264 168 L 264 168 L 264 248 L 264 248 Z" />
</svg>