<svg xmlns="http://www.w3.org/2000/svg" viewBox="0 0 568 512">
  <path d="M 224 112 L 288 27 L 224 112 L 288 27 L 352 112 L 352 112 Q 368 133 368 160 Q 367 194 345 217 Q 322 239 288 240 Q 254 239 231 217 Q 209 194 208 160 Q 208 133 224 112 L 224 112 Z M 211 102 Q 192 128 192 160 Q 193 201 220 228 Q 247 255 288 256 Q 329 255 356 228 Q 383 201 384 160 Q 384 128 365 102 L 298 13 L 298 13 L 288 0 L 288 0 L 278 13 L 278 13 L 211 102 L 211 102 Z M 152 320 L 149 320 L 152 320 L 149 320 L 147 322 L 147 322 L 69 384 L 69 384 L 8 384 L 0 384 L 0 400 L 0 400 L 8 400 L 74 400 L 77 398 L 77 398 L 154 336 L 154 336 L 368 336 L 368 336 L 368 376 L 368 376 L 248 376 L 240 376 L 240 384 L 240 384 L 240 424 L 240 424 L 240 432 L 240 432 L 248 432 L 400 432 L 402 431 L 402 431 L 518 351 L 518 351 L 545 390 L 545 390 L 392 496 L 392 496 L 8 496 L 0 496 L 0 512 L 0 512 L 8 512 L 396 512 L 398 511 L 398 511 L 561 399 L 561 399 L 568 394 L 568 394 L 563 388 L 563 388 L 527 335 L 527 335 L 522 328 L 522 328 L 516 333 L 516 333 L 395 416 L 395 416 L 256 416 L 256 416 L 256 392 L 256 392 L 376 392 L 384 392 L 384 384 L 384 384 L 384 328 L 384 328 L 384 320 L 384 320 L 376 320 L 152 320 Z" />
</svg>