<svg xmlns="http://www.w3.org/2000/svg" viewBox="0 0 448 460">
  <path d="M 446 198 Q 433 112 362 54 Q 312 16 254 8 Q 196 0 141 22 Q 86 43 47 92 L 47 92 L 47 92 Q 47 92 47 92 Q 47 92 47 92 L 16 134 L 16 134 L 16 46 L 16 46 L 16 38 L 16 38 L 0 38 L 0 38 L 0 46 L 0 46 L 0 158 L 0 158 L 0 166 L 0 166 L 8 166 L 128 166 L 128 150 L 128 150 L 120 150 L 24 150 L 60 102 L 60 102 Q 116 34 199 24 Q 281 13 352 66 Q 417 120 429 198 L 446 198 L 446 198 Z M 440 294 L 328 294 L 440 294 L 320 294 L 320 310 L 320 310 L 328 310 L 425 310 L 389 358 L 389 358 Q 333 426 250 436 Q 168 447 97 394 Q 32 340 20 262 L 3 262 L 3 262 Q 16 348 87 407 Q 137 444 195 452 Q 253 460 308 438 Q 362 417 402 368 L 402 368 L 402 368 Q 402 368 402 368 Q 402 368 402 368 L 432 328 L 432 328 L 432 414 L 432 414 L 432 422 L 432 422 L 448 422 L 448 422 L 448 414 L 448 414 L 448 302 L 448 302 L 448 294 L 448 294 L 440 294 L 440 294 Z" />
</svg>