<svg xmlns="http://www.w3.org/2000/svg" viewBox="0 0 512 512">
  <path d="M 16 16 L 368 16 L 16 16 L 368 16 L 368 112 L 368 112 L 16 112 L 16 112 L 16 16 L 16 16 Z M 0 0 L 0 16 L 0 0 L 0 16 L 0 112 L 0 112 L 0 128 L 0 128 L 16 128 L 384 128 L 384 112 L 384 112 L 384 16 L 384 16 L 384 0 L 384 0 L 368 0 L 0 0 Z M 240 160 L 232 160 L 240 160 L 232 160 L 232 176 L 232 176 L 240 176 L 336 176 L 336 224 L 336 224 L 240 224 L 232 224 L 232 240 L 232 240 L 240 240 L 349 240 L 496 306 L 496 306 L 496 400 L 496 400 L 16 400 L 16 400 L 16 160 L 16 160 L 0 160 L 0 160 L 0 400 L 0 400 L 0 416 L 0 416 L 0 480 L 0 480 L 32 512 L 32 512 L 96 512 L 96 512 L 117 491 L 117 491 L 128 480 L 128 480 L 139 491 L 139 491 L 160 512 L 160 512 L 224 512 L 224 512 L 245 491 L 245 491 L 256 480 L 256 480 L 267 491 L 267 491 L 288 512 L 288 512 L 352 512 L 352 512 L 373 491 L 373 491 L 384 480 L 384 480 L 395 491 L 395 491 L 416 512 L 416 512 L 480 512 L 480 512 L 512 480 L 512 480 L 512 416 L 512 416 L 512 400 L 512 400 L 512 296 L 512 296 L 352 224 L 352 224 L 352 176 L 352 176 L 352 168 L 352 168 L 352 160 L 352 160 L 344 160 L 240 160 Z M 16 416 L 496 416 L 16 416 L 496 416 L 496 473 L 496 473 L 473 496 L 473 496 L 423 496 L 423 496 L 395 469 L 395 469 L 384 457 L 384 457 L 373 469 L 373 469 L 345 496 L 345 496 L 295 496 L 295 496 L 267 469 L 267 469 L 256 457 L 256 457 L 245 469 L 245 469 L 217 496 L 217 496 L 167 496 L 167 496 L 139 469 L 139 469 L 128 457 L 128 457 L 117 469 L 117 469 L 89 496 L 89 496 L 39 496 L 39 496 L 16 473 L 16 473 L 16 416 L 16 416 Z" />
</svg>