<svg xmlns="http://www.w3.org/2000/svg" viewBox="0 0 504 512">
  <path d="M 16 496 L 176 496 L 16 496 L 176 496 L 176 512 L 176 512 L 16 512 L 0 512 L 0 496 L 0 496 L 0 16 L 0 16 L 0 0 L 0 0 L 16 0 L 224 0 L 384 160 L 384 160 L 384 304 L 384 304 L 368 304 L 368 304 L 368 176 L 368 176 L 216 176 L 208 176 L 208 168 L 208 168 L 208 16 L 208 16 L 16 16 L 16 16 L 16 496 L 16 496 Z M 361 160 L 224 23 L 361 160 L 224 23 L 224 160 L 224 160 L 361 160 L 361 160 Z M 240 368 L 304 368 L 240 368 L 312 368 L 312 376 L 312 376 L 312 384 L 312 384 L 312 386 L 312 386 L 311 388 L 311 388 L 249 496 L 249 496 L 304 496 L 312 496 L 312 512 L 312 512 L 304 512 L 232 512 L 232 504 L 232 504 L 232 496 L 232 496 L 232 494 L 232 494 L 233 492 L 233 492 L 295 384 L 295 384 L 240 384 L 232 384 L 232 368 L 232 368 L 240 368 L 240 368 Z M 376 376 L 376 504 L 376 376 L 376 504 L 376 512 L 376 512 L 360 512 L 360 512 L 360 504 L 360 504 L 360 376 L 360 376 L 360 368 L 360 368 L 376 368 L 376 368 L 376 376 L 376 376 Z M 424 368 L 432 368 L 424 368 L 456 368 Q 476 369 490 382 Q 503 396 504 416 Q 503 436 490 450 Q 476 463 456 464 L 440 464 L 440 464 L 440 504 L 440 504 L 440 512 L 440 512 L 424 512 L 424 512 L 424 504 L 424 504 L 424 456 L 424 456 L 424 376 L 424 376 L 424 368 L 424 368 Z M 440 448 L 456 448 L 440 448 L 456 448 Q 470 448 479 439 Q 488 430 488 416 Q 488 402 479 393 Q 470 384 456 384 L 440 384 L 440 384 L 440 448 L 440 448 Z" />
</svg>