<svg xmlns="http://www.w3.org/2000/svg" viewBox="0 0 512 512">
  <path d="M 16 164 Q 18 101 59 59 L 59 59 L 59 59 Q 101 18 164 16 L 168 16 L 168 16 Q 229 18 270 58 Q 310 99 312 160 L 320 160 L 320 160 Q 243 162 190 211 Q 137 260 129 336 Q 128 344 128 352 L 144 352 L 512 352 Q 512 344 511 336 Q 503 260 450 211 Q 397 162 320 160 L 328 160 L 328 160 Q 326 92 281 47 Q 236 2 168 0 L 164 0 L 164 0 Q 94 2 48 48 Q 2 94 0 164 L 0 504 L 0 504 L 0 512 L 0 512 L 16 512 L 16 512 L 16 504 L 16 504 L 16 164 L 16 164 Z M 320 176 Q 390 178 439 222 L 439 222 L 439 222 Q 488 267 495 336 L 145 336 L 145 336 Q 152 267 201 222 Q 250 178 320 176 L 320 176 Z M 242 384 Q 248 412 269 430 L 269 430 L 269 430 Q 290 447 320 448 Q 350 447 371 430 Q 392 412 398 384 L 382 384 L 382 384 Q 376 405 360 418 Q 343 432 320 432 Q 297 432 280 418 Q 264 405 258 384 L 242 384 L 242 384 Z" />
</svg>