<svg xmlns="http://www.w3.org/2000/svg" viewBox="0 0 448 502">
  <path d="M 224 0 L 218 5 L 224 0 L 218 5 L 130 93 L 130 93 L 125 99 L 125 99 L 136 110 L 136 110 L 142 105 L 142 105 L 216 30 L 216 30 L 216 179 L 216 179 L 216 187 L 216 187 L 232 187 L 232 187 L 232 179 L 232 179 L 232 30 L 232 30 L 306 105 L 306 105 L 312 110 L 312 110 L 323 99 L 323 99 L 318 93 L 318 93 L 230 5 L 230 5 L 224 0 L 224 0 Z M 224 502 L 230 497 L 224 502 L 230 497 L 318 409 L 318 409 L 323 403 L 323 403 L 312 392 L 312 392 L 306 397 L 306 397 L 232 472 L 232 472 L 232 323 L 232 323 L 232 315 L 232 315 L 216 315 L 216 315 L 216 323 L 216 323 L 216 472 L 216 472 L 142 397 L 142 397 L 136 392 L 136 392 L 125 403 L 125 403 L 130 409 L 130 409 L 218 497 L 218 497 L 224 502 L 224 502 Z M 8 243 L 0 243 L 8 243 L 0 243 L 0 259 L 0 259 L 8 259 L 448 259 L 448 243 L 448 243 L 440 243 L 8 243 Z" />
</svg>