<svg xmlns="http://www.w3.org/2000/svg" viewBox="0 0 322 509">
  <path d="M 149 0 L 162 10 L 149 0 L 162 10 L 314 129 L 314 129 L 322 135 L 322 135 L 314 141 L 314 141 L 167 257 L 167 257 L 314 377 L 314 377 L 322 383 L 322 383 L 314 390 L 314 390 L 162 500 L 162 500 L 149 509 L 149 509 L 149 493 L 149 493 L 149 272 L 149 272 L 10 381 L 10 381 L 0 369 L 0 369 L 142 257 L 142 257 L 0 141 L 0 141 L 10 129 L 10 129 L 149 242 L 149 242 L 149 17 L 149 17 L 149 0 L 149 0 Z M 165 276 L 165 478 L 165 276 L 165 478 L 296 383 L 296 383 L 165 276 L 165 276 Z M 165 238 L 296 135 L 165 238 L 296 135 L 165 33 L 165 33 L 165 239 L 165 238 Z" />
</svg>