<svg xmlns="http://www.w3.org/2000/svg" viewBox="0 0 640 224">
  <path d="M 416 16 L 416 104 L 416 16 L 416 104 L 416 120 L 416 120 L 416 208 L 416 208 L 224 208 L 224 208 L 224 16 L 224 16 L 416 16 L 416 16 Z M 432 104 L 432 16 L 432 104 L 432 16 L 432 0 L 432 0 L 416 0 L 208 0 L 208 16 L 208 16 L 208 104 L 208 104 L 200 104 L 0 104 L 0 120 L 0 120 L 8 120 L 208 120 L 208 208 L 208 208 L 208 224 L 208 224 L 224 224 L 432 224 L 432 208 L 432 208 L 432 120 L 432 120 L 632 120 L 640 120 L 640 104 L 640 104 L 632 104 L 432 104 Z" />
</svg>