<svg xmlns="http://www.w3.org/2000/svg" viewBox="0 0 384 512">
  <path d="M 29 167 L 57 179 L 29 167 L 57 179 Q 79 189 103 187 Q 128 184 148 170 Q 168 156 192 156 Q 216 156 236 170 Q 256 184 280 187 Q 305 189 327 179 L 355 167 L 355 167 L 329 496 L 329 496 L 55 496 L 55 496 L 29 167 L 29 167 Z M 28 149 L 17 16 L 28 149 L 17 16 L 367 16 L 367 16 L 356 149 L 356 149 L 321 165 L 321 165 Q 281 181 245 157 Q 221 140 192 140 Q 163 140 138 157 Q 103 181 63 165 L 28 149 L 28 149 Z M 40 512 L 344 512 L 40 512 L 344 512 L 383 16 L 383 16 L 384 0 L 384 0 L 368 0 L 0 0 L 1 16 L 1 16 L 40 512 L 40 512 Z" />
</svg>