<svg xmlns="http://www.w3.org/2000/svg" viewBox="0 0 512 384">
  <path d="M 16 0 L 16 8 L 16 0 L 16 8 L 16 181 L 16 181 L 256 11 L 256 11 L 272 0 L 272 0 L 272 20 L 272 20 L 272 169 L 272 169 L 496 11 L 496 11 L 512 0 L 512 0 L 512 20 L 512 20 L 512 364 L 512 364 L 512 384 L 512 384 L 496 373 L 496 373 L 272 215 L 272 215 L 272 364 L 272 364 L 272 384 L 272 384 L 256 373 L 256 373 L 16 203 L 16 203 L 16 376 L 16 376 L 16 384 L 16 384 L 0 384 L 0 384 L 0 376 L 0 376 L 0 192 L 0 192 L 0 8 L 0 8 L 0 0 L 0 0 L 16 0 L 16 0 Z M 256 203 L 256 181 L 256 203 L 256 181 L 256 31 L 256 31 L 28 192 L 28 192 L 256 353 L 256 353 L 256 203 L 256 203 Z M 272 195 L 496 353 L 272 195 L 496 353 L 496 31 L 496 31 L 272 189 L 272 189 L 272 195 L 272 195 Z" />
</svg>