<svg xmlns="http://www.w3.org/2000/svg" viewBox="0 0 640 512">
  <path d="M 341 53 L 352 64 L 341 53 L 352 64 L 363 53 L 363 53 L 384 32 L 384 32 Q 440 82 461 126 Q 481 171 480 192 Q 478 260 433 305 Q 388 350 320 352 Q 252 350 207 305 Q 162 260 160 192 Q 161 147 184 109 Q 206 70 236 42 Q 265 14 288 0 L 341 53 L 341 53 Z M 416 263 Q 416 290 400 312 Q 429 292 447 261 Q 464 230 464 192 Q 465 176 449 137 Q 432 99 385 54 L 363 76 L 363 76 L 352 87 L 352 87 L 341 76 L 341 76 L 286 21 L 286 21 Q 255 42 221 83 Q 201 107 189 134 Q 176 162 176 192 Q 176 230 193 261 Q 211 292 240 312 Q 224 290 224 263 Q 226 227 249 196 Q 272 166 295 147 Q 318 129 320 128 Q 322 129 345 147 Q 368 166 391 196 Q 414 227 416 263 L 416 263 Z M 320 336 Q 355 335 377 314 L 377 314 L 377 314 Q 399 293 400 263 Q 399 241 387 220 Q 375 199 357 180 Q 339 162 325 152 Q 322 150 320 148 Q 318 150 315 152 Q 301 162 284 180 Q 265 199 253 220 Q 241 241 240 263 Q 241 293 263 314 Q 285 335 320 336 L 320 336 Z M 32 256 L 40 256 L 32 256 L 96 256 L 96 272 L 96 272 L 88 272 L 48 272 L 48 384 L 48 384 L 592 384 L 592 384 L 592 272 L 592 272 L 552 272 L 544 272 L 544 256 L 544 256 L 552 256 L 608 256 L 608 264 L 608 264 L 608 384 L 608 384 L 624 384 L 640 384 L 640 400 L 640 400 L 640 496 L 640 496 L 640 512 L 640 512 L 624 512 L 0 512 L 0 496 L 0 496 L 0 400 L 0 400 L 0 384 L 0 384 L 16 384 L 32 384 L 32 264 L 32 264 L 32 256 L 32 256 Z M 16 400 L 16 496 L 16 400 L 16 496 L 624 496 L 624 496 L 624 400 L 624 400 L 608 400 L 16 400 Z M 320 432 Q 335 433 336 448 Q 335 463 320 464 Q 305 463 304 448 Q 305 433 320 432 L 320 432 Z M 432 448 Q 433 433 448 432 Q 463 433 464 448 Q 463 463 448 464 Q 433 463 432 448 L 432 448 Z M 192 432 Q 207 433 208 448 Q 207 463 192 464 Q 177 463 176 448 Q 177 433 192 432 L 192 432 Z" />
</svg>