<svg xmlns="http://www.w3.org/2000/svg" viewBox="0 0 576 512">
  <path d="M 264 0 L 256 0 L 264 0 L 256 0 L 256 8 L 256 8 L 256 64 L 256 64 L 272 64 L 272 64 L 272 16 L 272 16 L 560 16 L 560 16 L 560 288 L 560 288 L 328 288 L 320 288 L 320 304 L 320 304 L 328 304 L 560 304 L 560 384 L 560 384 L 328 384 L 320 384 L 320 400 L 320 400 L 328 400 L 560 400 L 560 496 L 560 496 L 320 496 L 320 496 L 320 512 L 320 512 L 568 512 L 576 512 L 576 504 L 576 504 L 576 8 L 576 8 L 576 0 L 576 0 L 568 0 L 264 0 Z M 16 112 L 272 112 L 16 112 L 272 112 L 272 352 L 272 352 L 16 352 L 16 352 L 16 112 L 16 112 Z M 16 368 L 272 368 L 16 368 L 272 368 L 272 416 L 272 416 L 16 416 L 16 416 L 16 368 L 16 368 Z M 16 432 L 272 432 L 16 432 L 272 432 L 272 496 L 272 496 L 16 496 L 16 496 L 16 432 L 16 432 Z M 0 96 L 0 112 L 0 96 L 0 112 L 0 496 L 0 496 L 0 512 L 0 512 L 16 512 L 288 512 L 288 496 L 288 496 L 288 112 L 288 112 L 288 96 L 288 96 L 272 96 L 0 96 Z M 400 72 L 400 80 L 400 72 L 400 80 L 400 112 L 400 112 L 368 112 L 360 112 L 360 120 L 360 120 L 360 168 L 360 168 L 360 176 L 360 176 L 368 176 L 400 176 L 400 208 L 400 208 L 400 216 L 400 216 L 408 216 L 464 216 L 464 208 L 464 208 L 464 176 L 464 176 L 496 176 L 504 176 L 504 168 L 504 168 L 504 120 L 504 120 L 504 112 L 504 112 L 496 112 L 464 112 L 464 80 L 464 80 L 464 72 L 464 72 L 456 72 L 400 72 Z M 416 88 L 448 88 L 416 88 L 448 88 L 448 120 L 448 120 L 448 128 L 448 128 L 456 128 L 488 128 L 488 160 L 488 160 L 456 160 L 448 160 L 448 168 L 448 168 L 448 200 L 448 200 L 416 200 L 416 200 L 416 168 L 416 168 L 416 160 L 416 160 L 408 160 L 376 160 L 376 128 L 376 128 L 408 128 L 416 128 L 416 120 L 416 120 L 416 88 L 416 88 Z M 120 168 L 112 168 L 120 168 L 112 168 L 112 176 L 112 176 L 112 208 L 112 208 L 80 208 L 72 208 L 72 216 L 72 216 L 72 264 L 72 264 L 72 272 L 72 272 L 80 272 L 112 272 L 112 304 L 112 304 L 112 312 L 112 312 L 120 312 L 176 312 L 176 304 L 176 304 L 176 272 L 176 272 L 208 272 L 216 272 L 216 264 L 216 264 L 216 216 L 216 216 L 216 208 L 216 208 L 208 208 L 176 208 L 176 176 L 176 176 L 176 168 L 176 168 L 168 168 L 120 168 Z M 128 216 L 128 184 L 128 216 L 128 184 L 160 184 L 160 184 L 160 216 L 160 216 L 160 224 L 160 224 L 168 224 L 200 224 L 200 256 L 200 256 L 168 256 L 160 256 L 160 264 L 160 264 L 160 296 L 160 296 L 128 296 L 128 296 L 128 264 L 128 264 L 128 256 L 128 256 L 120 256 L 88 256 L 88 224 L 88 224 L 120 224 L 128 224 L 128 216 L 128 216 Z" />
</svg>