<svg xmlns="http://www.w3.org/2000/svg" viewBox="0 0 640 512">
  <path d="M 512 160 L 352 0 L 512 160 L 352 0 L 144 0 L 128 0 L 128 13 L 128 13 L 144 25 L 144 25 L 144 16 L 144 16 L 336 16 L 336 16 L 336 168 L 336 168 L 336 176 L 336 176 L 344 176 L 496 176 L 496 303 L 496 303 L 512 316 L 512 316 L 512 160 L 512 160 Z M 144 496 L 144 209 L 144 496 L 144 209 L 128 196 L 128 196 L 128 496 L 128 496 L 128 512 L 128 512 L 144 512 L 512 512 L 512 499 L 512 499 L 496 487 L 496 487 L 496 496 L 496 496 L 144 496 L 144 496 Z M 489 160 L 352 160 L 489 160 L 352 160 L 352 23 L 352 23 L 489 160 L 489 160 Z M 16 5 L 10 0 L 16 5 L 10 0 L 0 13 L 0 13 L 6 18 L 6 18 L 624 507 L 624 507 L 630 512 L 630 512 L 640 500 L 640 500 L 634 495 L 634 495 L 16 5 L 16 5 Z" />
</svg>