<svg xmlns="http://www.w3.org/2000/svg" viewBox="0 0 573 512">
  <path d="M 128 144 Q 128 105 147 72 L 147 72 L 147 72 Q 166 39 200 19 Q 234 0 272 0 Q 310 0 344 19 Q 378 39 397 72 Q 416 105 416 144 Q 416 183 397 216 Q 378 249 344 269 Q 310 288 272 288 Q 234 288 200 269 Q 166 249 147 216 Q 128 183 128 144 L 128 144 Z M 249 111 Q 250 110 253 108 Q 262 104 272 104 Q 284 104 298 108 L 314 112 L 314 112 L 321 81 L 321 81 L 306 77 L 306 77 Q 297 75 288 73 L 288 64 L 288 64 L 288 48 L 288 48 L 256 48 L 256 48 L 256 64 L 256 64 L 256 73 L 256 73 Q 247 75 238 80 Q 217 89 216 117 Q 220 140 238 148 Q 252 154 266 158 L 268 158 L 268 158 Q 284 162 291 167 Q 297 170 296 172 Q 296 176 295 177 Q 294 178 291 180 Q 283 184 273 184 Q 259 183 243 177 Q 240 176 237 175 L 222 170 L 222 170 L 212 201 L 212 201 L 227 206 L 227 206 Q 228 206 228 206 Q 230 207 232 208 Q 232 208 232 208 Q 232 208 232 208 Q 232 208 232 208 Q 232 208 232 208 Q 232 208 232 208 Q 243 211 256 214 L 256 226 L 256 226 L 256 242 L 256 242 L 288 242 L 288 242 L 288 226 L 288 226 L 288 215 L 288 215 Q 297 213 306 209 Q 327 199 328 172 Q 325 148 308 139 Q 292 131 277 128 L 277 128 L 277 128 Q 261 124 253 120 Q 247 116 248 115 Q 248 115 248 115 Q 248 115 248 115 Q 248 112 249 112 L 249 111 Z M 161 304 L 168 304 L 161 304 L 408 304 L 408 328 L 408 328 L 408 375 L 408 375 L 488 324 L 488 324 L 508 311 L 508 311 L 521 331 L 521 331 L 561 395 L 561 395 L 573 415 L 573 415 L 554 428 L 554 428 L 438 508 L 438 508 L 431 512 L 431 512 L 424 512 L 0 512 L 0 464 L 0 464 L 24 464 L 417 464 L 508 401 L 508 401 L 493 377 L 493 377 L 413 428 L 413 428 L 407 432 L 407 432 L 400 432 L 232 432 L 232 384 L 232 384 L 256 384 L 360 384 L 360 352 L 360 352 L 175 352 L 175 352 L 85 412 L 85 412 L 79 416 L 79 416 L 72 416 L 0 416 L 0 368 L 0 368 L 24 368 L 65 368 L 155 308 L 155 308 L 161 304 L 161 304 Z" />
</svg>