<svg xmlns="http://www.w3.org/2000/svg" viewBox="0 0 640 480">
  <path d="M 416 16 Q 477 18 518 58 L 518 58 L 518 58 Q 558 99 560 160 L 560 368 L 560 368 L 288 368 L 287 368 Q 280 333 254 311 Q 228 289 192 288 Q 156 289 130 311 Q 104 333 97 368 L 16 368 L 16 368 L 16 16 L 16 16 L 416 16 L 416 16 Z M 16 384 L 96 384 L 16 384 L 96 384 Q 97 425 124 452 Q 151 479 192 480 Q 233 479 260 452 Q 287 425 288 384 L 560 384 L 640 384 L 640 368 L 640 368 L 632 368 L 576 368 L 576 160 L 576 160 Q 574 92 529 47 Q 484 2 416 0 L 16 0 L 0 0 L 0 16 L 0 16 L 0 368 L 0 368 L 0 384 L 0 384 L 16 384 L 16 384 Z M 80 112 L 240 112 L 80 112 L 240 112 L 240 208 L 240 208 L 80 208 L 80 208 L 80 112 L 80 112 Z M 64 96 L 64 112 L 64 96 L 64 112 L 64 208 L 64 208 L 64 224 L 64 224 L 80 224 L 256 224 L 256 208 L 256 208 L 256 112 L 256 112 L 256 96 L 256 96 L 240 96 L 64 96 Z M 432 112 L 432 192 L 432 112 L 432 192 L 392 192 L 384 192 L 384 208 L 384 208 L 392 208 L 432 208 L 432 304 L 432 304 L 336 304 L 336 304 L 336 112 L 336 112 L 432 112 L 432 112 Z M 448 192 L 448 112 L 448 192 L 448 112 L 448 96 L 448 96 L 432 96 L 320 96 L 320 112 L 320 112 L 320 304 L 320 304 L 320 320 L 320 320 L 336 320 L 448 320 L 448 304 L 448 304 L 448 208 L 448 208 L 448 192 L 448 192 Z M 192 304 Q 237 305 261 344 Q 283 384 261 424 Q 237 463 192 464 Q 147 463 123 424 Q 101 384 123 344 Q 147 305 192 304 L 192 304 Z" />
</svg>