<svg xmlns="http://www.w3.org/2000/svg" viewBox="0 0 640 512">
  <path d="M 256 0 L 385 229 L 256 0 L 385 229 L 482 258 L 482 258 Q 506 265 525 281 L 553 302 L 553 302 Q 571 319 566 341 Q 562 363 538 371 Q 486 384 433 371 L 105 285 L 105 285 L 0 180 L 0 180 L 0 64 L 0 64 L 0 48 L 0 48 L 16 52 L 16 52 L 72 64 L 72 64 L 96 144 L 96 144 L 210 178 L 210 178 L 228 183 L 228 183 L 223 165 L 223 165 L 181 16 L 181 16 L 176 0 L 176 0 L 193 0 L 256 0 Z M 438 355 Q 486 368 534 356 Q 548 351 551 338 Q 554 325 543 315 L 515 293 L 515 293 Q 498 279 477 273 L 381 245 L 381 245 L 374 243 L 374 243 L 371 237 L 371 237 L 247 16 L 247 16 L 197 16 L 197 16 L 244 179 L 244 179 L 252 207 L 252 207 L 224 199 L 224 199 L 92 159 L 92 159 L 83 157 L 83 157 L 81 149 L 81 149 L 59 78 L 59 78 L 16 68 L 16 68 L 16 174 L 16 174 L 113 271 L 113 271 L 438 356 L 438 355 Z M 8 496 L 632 496 L 8 496 L 640 496 L 640 512 L 640 512 L 632 512 L 0 512 L 0 496 L 0 496 L 8 496 L 8 496 Z M 160 384 Q 175 383 176 368 Q 175 353 160 352 Q 145 353 144 368 Q 145 383 160 384 L 160 384 Z M 160 336 Q 174 336 183 345 L 183 345 L 183 345 Q 192 354 192 368 Q 192 382 183 391 Q 174 400 160 400 Q 146 400 137 391 Q 128 382 128 368 Q 128 354 137 345 Q 146 336 160 336 L 160 336 Z M 272 384 Q 271 369 256 368 Q 241 369 240 384 Q 241 399 256 400 Q 271 399 272 384 L 272 384 Z M 224 384 Q 224 370 233 361 L 233 361 L 233 361 Q 242 352 256 352 Q 270 352 279 361 Q 288 370 288 384 Q 288 398 279 407 Q 270 416 256 416 Q 242 416 233 407 Q 224 398 224 384 L 224 384 Z" />
</svg>