<svg xmlns="http://www.w3.org/2000/svg" viewBox="0 0 512 512">
  <path d="M 192 0 L 184 0 L 192 0 L 104 0 Q 60 1 30 30 Q 1 60 0 104 L 0 168 L 0 168 L 0 173 L 0 173 L 4 175 L 4 175 L 111 236 L 111 236 Q 92 259 84 288 L 50 288 L 50 288 L 20 273 L 20 273 L 12 269 L 12 269 L 5 284 L 5 284 L 13 287 L 13 287 L 45 303 L 45 303 Q 46 304 48 304 L 81 304 L 81 304 Q 80 312 80 320 L 80 333 L 80 333 L 53 345 L 53 345 Q 51 345 50 347 L 18 387 L 18 387 L 13 393 L 13 393 L 25 403 L 25 403 L 30 397 L 30 397 L 61 359 L 61 359 L 89 347 L 89 347 L 133 398 L 133 398 L 85 417 L 85 417 Q 84 417 82 418 L 50 450 L 50 450 L 45 456 L 45 456 L 56 467 L 56 467 L 62 462 L 62 462 L 93 431 L 93 431 L 144 411 L 144 411 L 167 437 L 167 437 L 131 466 L 131 466 Q 128 468 128 472 L 128 504 L 128 504 L 128 512 L 128 512 L 144 512 L 144 512 L 144 504 L 144 504 L 144 476 L 144 476 L 179 448 L 179 448 L 333 448 L 333 448 L 368 476 L 368 476 L 368 504 L 368 504 L 368 512 L 368 512 L 384 512 L 384 512 L 384 504 L 384 504 L 384 472 L 384 472 Q 384 468 381 466 L 345 437 L 345 437 L 368 411 L 368 411 L 420 431 L 420 431 L 450 462 L 450 462 L 456 467 L 456 467 L 467 456 L 467 456 L 462 450 L 462 450 L 430 418 L 430 418 Q 428 417 427 417 L 379 398 L 379 398 L 423 347 L 423 347 L 451 359 L 451 359 L 482 397 L 482 397 L 487 403 L 487 403 L 499 393 L 499 393 L 494 387 L 494 387 L 462 347 L 462 347 Q 461 345 459 345 L 432 333 L 432 333 L 432 320 L 432 320 Q 432 312 431 304 L 464 304 L 464 304 Q 466 304 468 303 L 500 287 L 500 287 L 507 284 L 507 284 L 500 269 L 500 269 L 492 273 L 492 273 L 462 288 L 462 288 L 428 288 L 428 288 Q 420 259 401 236 L 508 175 L 508 175 L 512 173 L 512 173 L 512 168 L 512 168 L 512 128 L 512 128 Q 512 128 512 128 Q 512 128 512 128 L 512 112 L 512 112 Q 512 112 512 112 Q 512 112 512 112 L 512 104 L 512 104 Q 511 60 482 30 Q 452 1 408 0 L 328 0 L 320 0 L 320 13 L 320 13 L 324 15 L 324 15 L 404 63 L 404 63 L 411 67 L 411 67 L 419 53 L 419 53 L 412 49 L 412 49 L 357 16 L 357 16 L 408 16 L 408 16 Q 445 17 470 42 Q 495 67 496 104 L 496 112 L 496 112 L 379 112 L 379 112 L 366 98 L 366 98 L 360 93 L 360 93 L 349 104 L 349 104 L 354 110 L 354 110 L 370 126 L 370 126 L 373 128 L 373 128 L 376 128 L 496 128 L 496 163 L 496 163 L 389 224 L 389 224 Q 354 193 304 192 L 304 136 L 304 136 L 304 128 L 304 128 L 288 128 L 288 128 L 288 136 L 288 136 L 288 192 L 288 192 L 224 192 L 224 192 L 224 136 L 224 136 L 224 128 L 224 128 L 208 128 L 208 128 L 208 136 L 208 136 L 208 192 L 208 192 Q 158 193 123 224 L 16 163 L 16 163 L 16 128 L 16 128 L 136 128 L 139 128 L 142 126 L 142 126 L 158 110 L 158 110 L 163 104 L 163 104 L 152 93 L 152 93 L 146 98 L 146 98 L 133 112 L 133 112 L 16 112 L 16 112 L 16 104 L 16 104 Q 17 67 42 42 Q 67 17 104 16 L 155 16 L 155 16 L 100 49 L 100 49 L 93 53 L 93 53 L 101 67 L 101 67 L 108 63 L 108 63 L 188 15 L 188 15 L 192 13 L 192 13 L 192 0 L 192 0 Z M 304 208 Q 352 209 383 241 L 383 241 L 383 241 Q 415 272 416 320 L 416 330 L 416 330 L 329 432 L 329 432 L 183 432 L 183 432 L 96 330 L 96 330 L 96 320 L 96 320 Q 97 272 129 241 Q 160 209 208 208 L 224 208 L 304 208 Z" />
</svg>