<svg xmlns="http://www.w3.org/2000/svg" viewBox="0 0 512 512">
  <path d="M 16 240 L 32 240 L 16 240 L 496 240 L 496 184 L 496 184 L 256 19 L 256 19 L 16 184 L 16 184 L 16 240 L 16 240 Z M 32 256 L 16 256 L 32 256 L 0 256 L 0 240 L 0 240 L 0 176 L 0 176 L 256 0 L 256 0 L 368 77 L 368 77 L 368 40 L 368 40 L 368 32 L 368 32 L 376 32 L 480 32 L 480 40 L 480 40 L 480 154 L 480 154 L 512 176 L 512 176 L 512 240 L 512 240 L 512 256 L 512 256 L 496 256 L 480 256 L 480 304 L 480 304 L 480 320 L 480 320 L 480 368 L 480 368 L 480 384 L 480 384 L 480 432 L 480 432 L 480 448 L 480 448 L 480 496 L 480 496 L 480 512 L 480 512 L 464 512 L 320 512 L 320 496 L 320 496 L 320 448 L 320 448 L 320 432 L 320 432 L 320 384 L 320 384 L 320 368 L 320 368 L 320 320 L 320 320 L 320 304 L 320 304 L 320 256 L 320 256 L 192 256 L 192 256 L 192 304 L 192 304 L 192 320 L 192 320 L 192 368 L 192 368 L 192 384 L 192 384 L 192 432 L 192 432 L 192 448 L 192 448 L 192 496 L 192 496 L 192 512 L 192 512 L 176 512 L 32 512 L 32 496 L 32 496 L 32 448 L 32 448 L 32 432 L 32 432 L 32 384 L 32 384 L 32 368 L 32 368 L 32 320 L 32 320 L 32 304 L 32 304 L 32 256 L 32 256 Z M 176 256 L 48 256 L 176 256 L 48 256 L 48 304 L 48 304 L 176 304 L 176 304 L 176 256 L 176 256 Z M 336 256 L 336 304 L 336 256 L 336 304 L 464 304 L 464 304 L 464 256 L 464 256 L 336 256 L 336 256 Z M 464 143 L 464 48 L 464 143 L 464 48 L 384 48 L 384 48 L 384 88 L 384 88 L 464 143 L 464 143 Z M 256 120 Q 234 122 232 144 Q 234 166 256 168 Q 278 166 280 144 Q 278 122 256 120 L 256 120 Z M 296 144 Q 295 167 276 179 Q 256 189 236 179 Q 217 167 216 144 Q 217 121 236 109 Q 256 99 276 109 Q 295 121 296 144 L 296 144 Z M 176 320 L 48 320 L 176 320 L 48 320 L 48 368 L 48 368 L 176 368 L 176 368 L 176 320 L 176 320 Z M 176 384 L 48 384 L 176 384 L 48 384 L 48 432 L 48 432 L 176 432 L 176 432 L 176 384 L 176 384 Z M 48 496 L 176 496 L 48 496 L 176 496 L 176 448 L 176 448 L 48 448 L 48 448 L 48 496 L 48 496 Z M 464 320 L 336 320 L 464 320 L 336 320 L 336 368 L 336 368 L 464 368 L 464 368 L 464 320 L 464 320 Z M 464 384 L 336 384 L 464 384 L 336 384 L 336 432 L 336 432 L 464 432 L 464 432 L 464 384 L 464 384 Z M 336 496 L 464 496 L 336 496 L 464 496 L 464 448 L 464 448 L 336 448 L 336 448 L 336 496 L 336 496 Z" />
</svg>