<svg xmlns="http://www.w3.org/2000/svg" viewBox="0 0 384 512">
  <path d="M 16 496 L 16 16 L 16 496 L 16 16 L 208 16 L 208 16 L 208 168 L 208 168 L 208 176 L 208 176 L 216 176 L 368 176 L 368 496 L 368 496 L 16 496 L 16 496 Z M 224 23 L 361 160 L 224 23 L 361 160 L 224 160 L 224 160 L 224 23 L 224 23 Z M 224 0 L 16 0 L 224 0 L 0 0 L 0 16 L 0 16 L 0 496 L 0 496 L 0 512 L 0 512 L 16 512 L 384 512 L 384 496 L 384 496 L 384 160 L 384 160 L 224 0 L 224 0 Z M 200 232 L 200 224 L 200 232 L 200 224 L 184 224 L 184 224 L 184 232 L 184 232 L 184 288 L 184 288 L 128 288 L 120 288 L 120 304 L 120 304 L 128 304 L 184 304 L 184 360 L 184 360 L 184 368 L 184 368 L 200 368 L 200 368 L 200 360 L 200 360 L 200 304 L 200 304 L 256 304 L 264 304 L 264 288 L 264 288 L 256 288 L 200 288 L 200 232 L 200 232 Z M 128 416 L 120 416 L 128 416 L 120 416 L 120 432 L 120 432 L 128 432 L 264 432 L 264 416 L 264 416 L 256 416 L 128 416 Z" />
</svg>