<svg xmlns="http://www.w3.org/2000/svg" viewBox="0 0 512 384">
  <path d="M 64 0 L 72 0 L 64 0 L 448 0 L 448 16 L 448 16 L 440 16 L 329 16 L 403 192 L 403 192 L 504 192 L 512 192 L 512 208 L 512 208 L 504 208 L 120 208 Q 120 208 120 208 Q 120 208 120 208 L 102 208 L 102 208 Q 102 208 102 208 Q 102 208 102 208 L 8 208 L 0 208 L 0 192 L 0 192 L 8 192 L 109 192 L 183 16 L 183 16 L 72 16 L 64 16 L 64 0 L 64 0 Z M 201 16 L 199 19 L 201 16 L 199 19 L 126 192 L 126 192 L 386 192 L 386 192 L 313 19 L 313 19 L 311 16 L 311 16 L 201 16 L 201 16 Z M 423 240 L 484 384 L 423 240 L 484 384 L 467 384 L 467 384 L 406 240 L 406 240 L 423 240 L 423 240 Z M 106 240 L 45 384 L 106 240 L 45 384 L 28 384 L 28 384 L 89 240 L 89 240 L 106 240 L 106 240 Z" />
</svg>