<svg xmlns="http://www.w3.org/2000/svg" viewBox="0 0 484 509">
  <path d="M 242 0 L 254 4 L 242 0 L 254 4 L 461 84 L 461 84 L 480 92 L 480 92 L 481 112 L 481 112 Q 484 150 476 203 Q 468 255 444 312 Q 420 369 374 420 Q 328 471 255 503 L 242 509 L 242 509 L 229 503 L 229 503 Q 156 471 110 420 Q 64 369 40 312 Q 16 255 8 203 Q 0 150 3 112 L 4 92 L 4 92 L 23 84 L 23 84 L 231 4 L 231 4 L 242 0 L 242 0 Z M 333 137 L 321 148 L 333 137 L 321 148 Q 302 165 281 156 Q 260 147 258 122 L 258 106 L 258 106 L 242 106 L 226 106 L 226 122 L 226 122 Q 224 147 203 156 Q 182 165 163 148 L 152 137 L 152 137 L 140 148 L 140 148 Q 140 148 140 148 L 129 160 L 129 160 L 140 171 L 140 171 Q 157 190 148 211 Q 139 232 114 234 L 98 234 L 98 234 L 98 250 L 98 250 L 98 266 L 98 266 L 114 266 L 114 266 Q 139 268 148 289 Q 157 310 140 329 L 129 341 L 129 341 L 140 352 L 140 352 Q 140 352 140 352 Q 140 352 140 352 L 152 363 L 152 363 L 163 352 L 163 352 Q 182 335 203 344 Q 224 353 226 378 L 226 394 L 226 394 L 242 394 L 258 394 L 258 378 L 258 378 Q 260 353 281 344 Q 302 335 321 352 L 333 363 L 333 363 L 344 352 L 344 352 L 355 341 L 355 341 L 344 329 L 344 329 Q 327 310 336 289 Q 345 268 370 266 L 386 266 L 386 266 L 386 250 L 386 250 L 386 234 L 386 234 L 370 234 L 370 234 Q 345 232 336 211 Q 327 190 344 171 L 355 160 L 355 160 L 344 148 L 344 148 L 333 137 L 333 137 Z M 218 202 Q 240 204 242 226 Q 240 248 218 250 Q 196 248 194 226 Q 196 204 218 202 L 218 202 Z M 258 282 Q 259 267 274 266 Q 289 267 290 282 Q 289 297 274 298 Q 259 297 258 282 L 258 282 Z" />
</svg>