<svg xmlns="http://www.w3.org/2000/svg" viewBox="0 0 512 512">
  <path d="M 84.8 51.2 Q 83.2 52 65.6 68 L 65.6 68 Q 48.8 84.8 31.2 108.8 L 31.2 108.8 Q 14.4 133.6 12.8 159.2 Q 12.8 176.8 19.2 192 L 64 192 Q 57.6 182.4 57.6 168.8 Q 57.6 159.2 64 148.8 Q 70.4 138.4 83.2 123.2 Q 84.8 124.8 92.8 135.2 Q 100.8 145.6 108.8 156 Q 116.8 165.6 117.6 167.2 Q 117.6 167.2 117.6 167.2 L 137.6 143.2 Q 140 147.2 141.6 150.4 Q 141.6 150.4 141.6 150.4 Q 152 172 141.6 192 L 185.6 192 Q 192 176.8 192 159.2 Q 191.2 137.6 177.6 117.6 Q 164.8 96.8 152 83.2 Q 139.2 69.6 138.4 69.6 Q 138.4 69.6 138.4 69.6 Q 136.8 69.6 120.8 87.2 Q 106.4 71.2 96 61.6 Q 84.8 51.2 84.8 51.2 L 84.8 51.2 Z M 136.8 321.6 L 175.2 256 L 185.6 256 L 204.8 256 L 204.8 217.6 L 185.6 217.6 L 19.2 217.6 L 0 217.6 L 0 256 L 13.6 256 L 3.2 298.4 Q 0 313.6 0 328.8 L 0 331.2 Q 1.6 386.4 37.6 423.2 Q 74.4 459.2 129.6 460.8 Q 159.2 460.8 185.6 448 Q 212 435.2 231.2 412 L 435.2 153.6 L 512 153.6 L 512 128 L 473.6 102.4 L 409.6 102.4 L 359.2 152.8 L 352.8 146.4 L 339.2 132.8 L 312 160 L 325.6 173.6 L 332 180 L 320.8 191.2 L 314.4 184.8 L 300.8 171.2 L 273.6 198.4 L 287.2 212 L 293.6 218.4 L 282.4 229.6 L 276 223.2 L 262.4 209.6 L 235.2 236.8 L 248.8 250.4 L 255.2 256.8 L 165.6 346.4 Q 160 352 152.8 352 Q 136 350.4 134.4 333.6 L 134.4 332 Q 134.4 326.4 136.8 321.6 L 136.8 321.6 Z M 115.2 275.2 Q 113.6 292.8 96 294.4 Q 78.4 292.8 76.8 275.2 Q 78.4 257.6 96 256 Q 113.6 257.6 115.2 275.2 L 115.2 275.2 Z M 70.4 326.4 Q 88 328 89.6 345.6 Q 88 363.2 70.4 364.8 Q 52.8 363.2 51.2 345.6 Q 52.8 328 70.4 326.4 L 70.4 326.4 Z" />
</svg>