<svg xmlns="http://www.w3.org/2000/svg" viewBox="0 0 576 512">
  <path d="M 16 16 L 16 400 L 16 16 L 16 400 L 232 400 L 232 400 L 232 400 L 232 400 L 344 400 L 344 400 L 344 400 L 344 400 L 560 400 L 560 400 L 560 16 L 560 16 L 16 16 L 16 16 Z M 223 416 L 16 416 L 223 416 L 0 416 L 0 400 L 0 400 L 0 16 L 0 16 L 0 0 L 0 0 L 16 0 L 576 0 L 576 16 L 576 16 L 576 400 L 576 400 L 576 416 L 576 416 L 560 416 L 353 416 L 367 496 L 367 496 L 440 496 L 448 496 L 448 512 L 448 512 L 440 512 L 128 512 L 128 496 L 128 496 L 136 496 L 209 496 L 222 416 L 223 416 Z M 239 416 L 226 496 L 239 416 L 226 496 L 351 496 L 351 496 L 337 416 L 337 416 L 239 416 L 239 416 Z M 496 80 L 80 80 L 496 80 L 80 80 L 80 336 L 80 336 L 496 336 L 496 336 L 496 80 L 496 80 Z M 80 64 L 496 64 L 80 64 L 512 64 L 512 80 L 512 80 L 512 336 L 512 336 L 512 352 L 512 352 L 496 352 L 64 352 L 64 336 L 64 336 L 64 80 L 64 80 L 64 64 L 64 64 L 80 64 L 80 64 Z M 261 113 L 315 113 L 261 113 L 323 113 L 323 121 L 323 121 L 323 173 L 323 173 L 375 173 L 383 173 L 383 181 L 383 181 L 383 235 L 383 235 L 383 243 L 383 243 L 375 243 L 323 243 L 323 295 L 323 295 L 323 303 L 323 303 L 315 303 L 253 303 L 253 295 L 253 295 L 253 243 L 253 243 L 201 243 L 193 243 L 193 235 L 193 235 L 193 181 L 193 181 L 193 173 L 193 173 L 201 173 L 253 173 L 253 121 L 253 121 L 253 113 L 253 113 L 261 113 L 261 113 Z M 269 181 L 269 189 L 269 181 L 269 189 L 261 189 L 209 189 L 209 227 L 209 227 L 261 227 L 269 227 L 269 235 L 269 235 L 269 287 L 269 287 L 307 287 L 307 287 L 307 235 L 307 235 L 307 227 L 307 227 L 315 227 L 367 227 L 367 189 L 367 189 L 315 189 L 307 189 L 307 181 L 307 181 L 307 129 L 307 129 L 269 129 L 269 129 L 269 181 L 269 181 Z" />
</svg>