<svg xmlns="http://www.w3.org/2000/svg" viewBox="0 0 512 448">
  <path d="M 72 344 L 76 335 L 72 344 L 76 335 L 68 328 L 68 328 Q 17 276 16 208 Q 18 128 85 73 Q 152 18 256 16 Q 360 18 427 73 Q 494 128 496 208 Q 494 288 427 343 Q 360 398 256 400 Q 211 400 171 388 L 166 386 L 166 386 L 162 388 L 162 388 L 42 423 L 42 423 L 72 344 L 72 344 Z M 16 448 L 35 442 L 16 448 L 35 442 L 166 403 L 166 403 Q 209 416 256 416 Q 328 415 385 388 Q 443 360 477 313 Q 511 266 512 208 Q 511 150 477 103 Q 443 56 385 28 Q 328 1 256 0 Q 184 1 127 28 Q 69 56 35 103 Q 1 150 0 208 Q 2 284 57 339 L 23 429 L 23 429 L 16 448 L 16 448 Z M 245 164 L 256 175 L 245 164 L 256 175 L 267 164 L 267 164 L 275 157 L 275 157 Q 288 144 306 144 L 309 144 L 309 144 Q 327 144 339 157 Q 352 169 352 187 Q 352 205 339 218 L 256 298 L 256 298 L 173 218 L 173 218 Q 160 205 160 187 Q 160 169 173 157 Q 185 144 203 144 L 206 144 L 206 144 Q 224 144 237 157 L 245 164 L 245 164 Z M 245 309 L 256 320 L 245 309 L 256 320 L 267 309 L 267 309 L 350 230 L 350 230 Q 368 212 368 187 Q 367 162 351 145 Q 334 129 309 128 L 307 128 L 307 128 Q 282 128 264 145 L 256 152 L 256 152 L 248 145 L 248 145 Q 230 128 206 128 L 203 128 L 203 128 Q 178 129 161 145 Q 145 162 144 187 Q 145 212 162 230 L 245 309 L 245 309 Z" />
</svg>