<svg xmlns="http://www.w3.org/2000/svg" viewBox="0 0 576 384">
  <path d="M 0 384 L 16 384 L 0 384 L 400 384 L 576 192 L 576 192 L 400 0 L 400 0 L 16 0 L 0 0 L 0 16 L 0 16 L 0 368 L 0 368 L 0 384 L 0 384 Z M 554 192 L 393 368 L 554 192 L 393 368 L 16 368 L 16 368 L 16 16 L 16 16 L 393 16 L 393 16 L 554 192 L 554 192 Z M 154 111 L 143 122 L 154 111 L 143 122 L 148 128 L 148 128 L 213 192 L 213 192 L 148 257 L 148 257 L 142 262 L 142 262 L 154 274 L 154 274 L 159 268 L 159 268 L 224 203 L 224 203 L 289 268 L 289 268 L 294 274 L 294 274 L 306 262 L 306 262 L 300 257 L 300 257 L 235 192 L 235 192 L 300 127 L 300 127 L 306 122 L 306 122 L 294 110 L 294 110 L 289 116 L 289 116 L 224 181 L 224 181 L 159 116 L 159 116 L 154 110 L 154 111 Z" />
</svg>