<svg xmlns="http://www.w3.org/2000/svg" viewBox="0 0 512 512">
  <path d="M 304 16 L 320 16 L 320 0 L 304 0 L 304 16 L 304 16 Z M 208 16 L 208 0 L 192 0 L 192 16 L 208 16 L 208 16 Z M 304 173 L 288 173 L 288 201 L 312 187 L 304 173 L 304 173 Z M 440 94 L 454 86 L 446 73 L 432 81 L 440 94 L 440 94 Z M 488 178 L 496 191 L 510 183 L 502 170 L 488 178 L 488 178 Z M 352 256 L 344 242 L 320 256 L 344 270 L 352 256 L 352 256 Z M 488 334 L 502 342 L 510 329 L 496 321 L 488 334 L 488 334 Z M 440 418 L 432 431 L 446 439 L 454 426 L 440 418 L 440 418 Z M 304 339 L 312 325 L 288 311 L 288 339 L 304 339 L 304 339 Z M 304 496 L 304 512 L 320 512 L 320 496 L 304 496 L 304 496 Z M 208 496 L 192 496 L 192 512 L 208 512 L 208 496 L 208 496 Z M 208 339 L 224 339 L 224 311 L 200 325 L 208 339 L 208 339 Z M 72 418 L 58 426 L 66 440 L 80 432 L 72 418 L 72 418 Z M 24 335 L 16 321 L 2 329 L 10 343 L 24 335 L 24 335 Z M 160 256 L 168 270 L 192 256 L 168 242 L 160 256 L 160 256 Z M 24 178 L 10 170 L 2 184 L 16 192 L 24 178 L 24 178 Z M 72 95 L 80 81 L 66 73 L 58 87 L 72 95 L 72 95 Z M 208 173 L 200 187 L 224 201 L 224 173 L 208 173 L 208 173 Z M 304 0 L 208 0 L 208 32 L 304 32 L 304 0 L 304 0 Z M 320 173 L 320 16 L 288 16 L 288 173 L 320 173 L 320 173 Z M 312 187 L 448 108 L 432 81 L 296 159 L 312 187 L 312 187 Z M 426 102 L 474 186 L 502 170 L 454 86 L 426 102 L 426 102 Z M 480 164 L 344 242 L 360 270 L 496 191 L 480 164 L 480 164 Z M 496 321 L 360 242 L 344 270 L 480 348 L 496 321 L 496 321 Z M 454 426 L 502 343 L 474 327 L 426 410 L 454 426 L 454 426 Z M 296 353 L 432 431 L 448 404 L 312 325 L 296 353 L 296 353 Z M 320 496 L 320 339 L 288 339 L 288 496 L 320 496 L 320 496 Z M 208 512 L 304 512 L 304 480 L 208 480 L 208 512 L 208 512 Z M 192 339 L 192 496 L 224 496 L 224 339 L 192 339 L 192 339 Z M 200 325 L 64 404 L 80 431 L 216 353 L 200 325 L 200 325 Z M 86 410 L 38 326 L 10 342 L 58 426 L 86 410 L 86 410 Z M 32 348 L 168 270 L 152 242 L 16 321 L 32 348 L 32 348 Z M 16 191 L 152 270 L 168 242 L 32 164 L 16 191 L 16 191 Z M 58 86 L 10 170 L 38 186 L 86 102 L 58 86 L 58 86 Z M 216 159 L 80 81 L 64 108 L 200 187 L 216 159 L 216 159 Z M 192 16 L 192 173 L 224 173 L 224 16 L 192 16 L 192 16 Z" />
</svg>