<svg xmlns="http://www.w3.org/2000/svg" viewBox="0 0 578 515">
  <path d="M 513 68 Q 505 42 483 30 L 483 30 L 483 30 Q 461 17 435 23 L 404 31 L 404 31 L 478 310 L 478 310 L 509 301 L 509 301 Q 535 294 548 272 Q 561 249 554 223 L 513 68 L 513 68 Z M 430 8 Q 463 0 491 16 L 491 16 L 491 16 Q 519 32 528 64 L 570 219 L 570 219 Q 578 252 562 280 Q 546 307 513 317 L 482 325 L 482 325 L 467 329 L 467 329 L 463 314 L 463 314 L 429 187 L 429 187 L 80 277 L 80 277 L 80 499 L 80 499 L 130 499 L 130 499 L 199 289 L 199 289 L 218 284 L 218 284 L 194 355 L 194 355 L 350 355 L 350 355 L 318 258 L 318 258 L 333 254 L 333 254 L 414 499 L 414 499 L 568 499 L 576 499 L 576 515 L 576 515 L 568 515 L 0 515 L 0 499 L 0 499 L 8 499 L 64 499 L 64 171 L 64 171 L 64 163 L 64 163 L 80 163 L 80 163 L 80 171 L 80 171 L 80 261 L 80 261 L 220 224 L 220 224 L 260 105 L 260 105 L 261 99 L 261 99 L 267 99 L 283 99 L 284 105 L 284 105 L 315 199 L 315 199 L 424 171 L 424 171 L 388 36 L 388 36 L 384 20 L 384 20 L 400 16 L 400 16 L 430 8 L 430 8 Z M 300 204 L 272 118 L 300 204 L 272 118 L 239 219 L 239 219 L 300 204 L 300 204 Z M 397 499 L 355 371 L 397 499 L 355 371 L 189 371 L 189 371 L 147 499 L 147 499 L 397 499 L 397 499 Z" />
</svg>