<svg xmlns="http://www.w3.org/2000/svg" viewBox="0 0 512 512">
  <path d="M 210 467 Q 230 444 256 410 L 256 436 L 256 436 Q 221 479 203 500 Q 192 512 192 512 Q 192 512 192 512 Q 192 512 181 500 Q 159 475 116 421 Q 74 367 38 304 Q 2 242 0 192 Q 2 110 56 56 Q 110 2 192 0 Q 265 2 317 46 Q 369 91 382 162 Q 374 163 366 165 Q 355 100 307 59 Q 259 17 192 16 Q 117 18 68 68 Q 18 117 16 192 Q 17 229 44 282 Q 72 335 109 385 Q 146 435 174 467 Q 185 480 192 488 Q 199 480 210 467 L 210 467 Z M 192 112 Q 237 113 261 152 Q 283 192 261 232 Q 237 271 192 272 Q 147 271 123 232 Q 101 192 123 152 Q 147 113 192 112 L 192 112 Z M 256 192 Q 255 156 224 137 Q 192 119 160 137 Q 129 156 128 192 Q 129 228 160 247 Q 192 265 224 247 Q 255 228 256 192 L 256 192 Z M 400 208 Q 380 209 366 222 L 366 222 L 366 222 Q 353 236 352 256 L 352 320 L 352 320 L 448 320 L 448 320 L 448 256 L 448 256 Q 447 236 434 222 Q 420 209 400 208 L 400 208 Z M 336 256 Q 337 229 355 211 L 355 211 L 355 211 Q 373 193 400 192 Q 427 193 445 211 Q 463 229 464 256 L 464 320 L 464 320 L 496 320 L 512 320 L 512 336 L 512 336 L 512 496 L 512 496 L 512 512 L 512 512 L 496 512 L 288 512 L 288 496 L 288 496 L 288 336 L 288 336 L 288 320 L 288 320 L 304 320 L 336 320 L 336 256 L 336 256 Z M 304 336 L 304 496 L 304 336 L 304 496 L 496 496 L 496 496 L 496 336 L 496 336 L 464 336 L 304 336 Z" />
</svg>