<svg xmlns="http://www.w3.org/2000/svg" viewBox="0 0 640 512">
  <path d="M 624 512 Q 624 512 624 512 L 624 512 L 624 512 Q 624 512 624 512 L 576 512 L 544 512 Q 544 512 544 512 Q 544 512 544 512 L 624 512 L 624 512 Z M 624 462 L 640 474 L 624 462 L 640 474 L 611 512 L 611 512 L 592 497 L 592 497 L 19 53 L 19 53 L 0 38 L 0 38 L 29 0 L 29 0 L 48 15 L 48 15 L 336 238 L 336 238 L 336 176 L 336 176 L 336 128 L 336 128 L 384 128 L 464 128 L 464 176 L 464 176 L 464 338 L 464 338 L 496 362 L 496 362 L 496 48 L 496 48 L 496 0 L 496 0 L 544 0 L 624 0 L 624 48 L 624 48 L 624 462 L 624 462 Z M 544 400 L 576 424 L 544 400 L 576 424 L 576 48 L 576 48 L 544 48 L 544 48 L 544 400 L 544 400 Z M 416 300 L 416 176 L 416 300 L 416 176 L 384 176 L 384 176 L 384 275 L 384 275 L 416 300 L 416 300 Z M 384 399 L 384 464 L 384 399 L 384 464 L 416 464 L 416 464 L 416 424 L 416 424 L 464 462 L 464 462 L 464 464 L 464 464 L 464 512 L 464 512 L 416 512 L 336 512 L 336 464 L 336 464 L 336 361 L 336 361 L 384 398 L 384 399 Z M 203 256 L 304 336 L 203 256 L 304 336 L 304 464 L 304 464 L 304 512 L 304 512 L 256 512 L 176 512 L 176 464 L 176 464 L 176 304 L 176 304 L 176 256 L 176 256 L 203 256 L 203 256 Z M 224 304 L 224 464 L 224 304 L 224 464 L 256 464 L 256 464 L 256 304 L 256 304 L 224 304 L 224 304 Z M 96 432 L 64 432 L 96 432 L 64 432 L 64 464 L 64 464 L 96 464 L 96 464 L 96 432 L 96 432 Z M 64 384 L 96 384 L 64 384 L 144 384 L 144 432 L 144 432 L 144 464 L 144 464 L 144 512 L 144 512 L 96 512 L 16 512 L 16 464 L 16 464 L 16 432 L 16 432 L 16 384 L 16 384 L 64 384 L 64 384 Z" />
</svg>