<svg xmlns="http://www.w3.org/2000/svg" viewBox="0 0 615 512">
  <path d="M 498 0 L 512 0 L 498 0 L 608 0 L 608 48 L 608 48 L 584 48 L 526 48 L 513 68 L 513 68 Q 555 80 581 114 Q 607 147 608 192 L 608 256 L 608 256 L 480 256 L 480 256 Q 458 256 439 247 Q 448 266 448 288 L 448 288 L 448 288 L 454 292 L 454 292 L 566 372 L 566 372 L 572 377 L 572 377 L 575 385 L 575 385 L 615 512 L 615 512 L 565 512 L 565 512 L 532 407 L 532 407 L 434 338 L 434 338 Q 431 342 428 346 L 473 391 L 473 391 L 477 395 L 477 395 L 478 399 L 478 399 L 521 512 L 521 512 L 470 512 L 470 512 L 435 421 L 435 421 L 390 376 L 390 376 Q 373 384 352 384 Q 344 384 336 383 L 328 395 L 328 395 L 262 512 L 262 512 L 206 512 L 206 512 L 209 508 L 209 508 L 287 371 L 287 371 L 287 371 L 287 371 L 292 363 L 292 363 Q 283 356 276 347 L 182 512 L 182 512 L 127 512 L 127 512 L 129 508 L 129 508 L 212 362 L 212 362 Q 199 367 184 368 L 102 512 L 102 512 L 47 512 L 47 512 L 49 508 L 49 508 L 129 368 L 129 368 L 0 368 L 0 368 L 0 289 L 0 289 Q 2 220 47 175 Q 92 130 161 128 Q 205 129 238 154 Q 271 180 283 221 Q 310 193 352 192 Q 374 192 393 201 Q 384 182 384 160 Q 385 125 405 100 Q 426 74 459 66 L 492 12 L 492 12 L 499 0 L 498 0 Z M 536 160 Q 534 138 512 136 Q 490 138 488 160 Q 490 182 512 184 Q 534 182 536 160 L 536 160 Z" />
</svg>