<svg xmlns="http://www.w3.org/2000/svg" viewBox="0 0 384 512">
  <path d="M 368 16 L 368 112 L 368 16 L 368 112 L 16 112 L 16 112 L 16 16 L 16 16 L 368 16 L 368 16 Z M 16 0 L 0 0 L 16 0 L 0 0 L 0 16 L 0 16 L 0 112 L 0 112 L 0 128 L 0 128 L 16 128 L 384 128 L 384 112 L 384 112 L 384 16 L 384 16 L 384 0 L 384 0 L 368 0 L 16 0 Z M 32 160 L 32 496 L 32 160 L 32 496 L 32 512 L 32 512 L 48 512 L 352 512 L 352 496 L 352 496 L 352 160 L 352 160 L 336 160 L 336 160 L 336 496 L 336 496 L 48 496 L 48 496 L 48 160 L 48 160 L 32 160 L 32 160 Z M 165 193 L 157 193 L 165 193 L 157 193 L 157 201 L 157 201 L 157 253 L 157 253 L 105 253 L 97 253 L 97 261 L 97 261 L 97 315 L 97 315 L 97 323 L 97 323 L 105 323 L 157 323 L 157 375 L 157 375 L 157 383 L 157 383 L 165 383 L 227 383 L 227 375 L 227 375 L 227 323 L 227 323 L 279 323 L 287 323 L 287 315 L 287 315 L 287 261 L 287 261 L 287 253 L 287 253 L 279 253 L 227 253 L 227 201 L 227 201 L 227 193 L 227 193 L 219 193 L 165 193 Z M 173 261 L 173 209 L 173 261 L 173 209 L 211 209 L 211 209 L 211 261 L 211 261 L 211 269 L 211 269 L 219 269 L 271 269 L 271 307 L 271 307 L 219 307 L 211 307 L 211 315 L 211 315 L 211 367 L 211 367 L 173 367 L 173 367 L 173 315 L 173 315 L 173 307 L 173 307 L 165 307 L 113 307 L 113 269 L 113 269 L 165 269 L 173 269 L 173 261 L 173 261 Z" />
</svg>