<svg xmlns="http://www.w3.org/2000/svg" viewBox="0 0 640 384">
  <path d="M 16 16 L 16 368 L 16 16 L 16 368 L 624 368 L 624 368 L 624 16 L 624 16 L 16 16 L 16 16 Z M 0 0 L 16 0 L 0 0 L 640 0 L 640 16 L 640 16 L 640 368 L 640 368 L 640 384 L 640 384 L 624 384 L 0 384 L 0 368 L 0 368 L 0 16 L 0 16 L 0 0 L 0 0 Z M 280 96 L 312 96 L 280 96 L 332 96 Q 354 97 369 111 Q 383 126 384 148 Q 383 172 366 187 Q 398 200 400 236 Q 399 258 385 273 Q 370 287 348 288 L 312 288 L 272 288 L 272 280 L 272 280 L 272 256 L 272 256 L 272 192 L 272 192 L 272 128 L 272 128 L 272 104 L 272 104 L 272 96 L 272 96 L 280 96 L 280 96 Z M 249 288 L 231 288 L 249 288 L 231 288 L 214 248 L 214 248 L 106 248 L 106 248 L 89 288 L 89 288 L 71 288 L 71 288 L 73 285 L 73 285 L 153 101 L 153 101 L 155 96 L 155 96 L 165 96 L 165 96 L 167 101 L 167 101 L 247 285 L 247 285 L 249 288 L 249 288 Z M 160 124 L 113 232 L 160 124 L 113 232 L 207 232 L 207 232 L 160 124 L 160 124 Z M 288 128 L 288 184 L 288 128 L 288 184 L 332 184 L 332 184 Q 347 184 357 173 Q 368 163 368 148 Q 368 133 357 123 Q 347 112 332 112 L 288 112 L 288 112 L 288 128 L 288 128 Z M 332 200 L 288 200 L 332 200 L 288 200 L 288 256 L 288 256 L 288 272 L 288 272 L 348 272 L 348 272 Q 363 272 373 261 Q 384 251 384 236 Q 384 221 373 211 Q 363 200 348 200 L 332 200 L 332 200 Z" />
</svg>