<svg xmlns="http://www.w3.org/2000/svg" viewBox="0 0 512 512">
  <path d="M 368 320 Q 367 285 340 233 Q 312 180 275 130 Q 238 79 210 45 Q 199 33 192 24 Q 185 33 174 45 Q 146 79 109 130 Q 72 180 44 233 Q 17 285 16 320 Q 18 395 68 444 Q 117 494 192 496 Q 267 494 316 444 Q 366 395 368 320 L 368 320 Z M 0 320 Q 2 273 38 210 L 38 210 L 38 210 Q 74 148 116 93 L 116 93 L 116 93 Q 159 37 181 12 Q 192 0 192 0 Q 192 0 192 0 Q 192 0 203 12 Q 225 37 268 93 Q 310 148 346 210 Q 382 273 384 320 Q 382 402 328 456 Q 274 510 192 512 Q 110 510 56 456 Q 2 402 0 320 L 0 320 Z M 496 96 Q 495 69 472 54 Q 448 42 424 54 Q 401 69 400 96 Q 401 123 424 138 Q 448 150 472 138 Q 495 123 496 96 L 496 96 Z M 384 96 Q 385 60 416 41 Q 448 23 480 41 Q 511 60 512 96 Q 511 132 480 151 Q 448 169 416 151 Q 385 132 384 96 L 384 96 Z" />
</svg>