<svg xmlns="http://www.w3.org/2000/svg" viewBox="0 0 416 427">
  <path d="M 0 0 L 32 0 L 0 0 L 32 0 L 32 32 L 32 32 L 0 32 L 0 32 L 0 0 L 0 0 Z M 128 0 L 128 32 L 128 0 L 128 32 L 96 32 L 96 32 L 96 0 L 96 0 L 128 0 L 128 0 Z M 224 0 L 224 32 L 224 0 L 224 32 L 192 32 L 192 32 L 192 0 L 192 0 L 224 0 L 224 0 Z M 320 0 L 320 32 L 320 0 L 320 32 L 288 32 L 288 32 L 288 0 L 288 0 L 320 0 L 320 0 Z M 384 0 L 416 0 L 384 0 L 416 0 L 416 32 L 416 32 L 384 32 L 384 32 L 384 0 L 384 0 Z M 214 422 L 208 427 L 214 422 L 208 427 L 202 422 L 202 422 L 66 286 L 66 286 L 61 280 L 61 280 L 72 269 L 72 269 L 78 274 L 78 274 L 200 397 L 200 397 L 200 120 L 200 120 L 200 112 L 200 112 L 216 112 L 216 112 L 216 120 L 216 120 L 216 397 L 216 397 L 338 274 L 338 274 L 344 269 L 344 269 L 355 280 L 355 280 L 350 286 L 350 286 L 214 422 L 214 422 Z" />
</svg>