<svg xmlns="http://www.w3.org/2000/svg" viewBox="0 0 448 512">
  <path d="M 232 64 L 232 0 L 232 64 L 232 0 L 216 0 L 216 0 L 216 64 L 216 64 L 16 64 L 0 64 L 0 80 L 0 80 L 0 208 L 0 208 L 0 224 L 0 224 L 16 224 L 216 224 L 216 288 L 216 288 L 80 288 L 64 288 L 64 304 L 64 304 L 64 432 L 64 432 L 64 448 L 64 448 L 80 448 L 216 448 L 216 512 L 216 512 L 232 512 L 232 512 L 232 448 L 232 448 L 368 448 L 384 448 L 384 432 L 384 432 L 384 304 L 384 304 L 384 288 L 384 288 L 368 288 L 232 288 L 232 224 L 232 224 L 432 224 L 448 224 L 448 208 L 448 208 L 448 80 L 448 80 L 448 64 L 448 64 L 432 64 L 232 64 Z M 232 304 L 368 304 L 232 304 L 368 304 L 368 432 L 368 432 L 232 432 L 80 432 L 80 304 L 80 304 L 216 304 L 232 304 Z M 432 208 L 232 208 L 432 208 L 16 208 L 16 80 L 16 80 L 432 80 L 432 80 L 432 208 L 432 208 Z" />
</svg>