<svg xmlns="http://www.w3.org/2000/svg" viewBox="0 0 640 512">
  <path d="M 16 0 L 16 8 L 16 0 L 16 8 L 16 176 L 16 176 L 624 176 L 624 176 L 624 8 L 624 8 L 624 0 L 624 0 L 640 0 L 640 0 L 640 8 L 640 8 L 640 176 L 640 176 L 640 184 L 640 184 L 640 192 L 640 192 L 640 432 L 640 432 L 640 440 L 640 440 L 640 448 L 640 448 L 640 504 L 640 504 L 640 512 L 640 512 L 624 512 L 624 512 L 624 504 L 624 504 L 624 448 L 624 448 L 16 448 L 16 448 L 16 504 L 16 504 L 16 512 L 16 512 L 0 512 L 0 512 L 0 504 L 0 504 L 0 448 L 0 448 L 0 440 L 0 440 L 0 432 L 0 432 L 0 192 L 0 192 L 0 184 L 0 184 L 0 176 L 0 176 L 0 8 L 0 8 L 0 0 L 0 0 L 16 0 L 16 0 Z M 16 432 L 624 432 L 16 432 L 624 432 L 624 192 L 624 192 L 16 192 L 16 192 L 16 432 L 16 432 Z M 464 16 L 368 16 L 464 16 L 368 16 L 368 112 L 368 112 L 464 112 L 464 112 L 464 16 L 464 16 Z M 368 0 L 464 0 L 368 0 L 480 0 L 480 16 L 480 16 L 480 112 L 480 112 L 480 128 L 480 128 L 464 128 L 352 128 L 352 112 L 352 112 L 352 16 L 352 16 L 352 0 L 352 0 L 368 0 L 368 0 Z M 112 272 L 112 368 L 112 272 L 112 368 L 208 368 L 208 368 L 208 272 L 208 272 L 112 272 L 112 272 Z M 96 256 L 112 256 L 96 256 L 224 256 L 224 272 L 224 272 L 224 368 L 224 368 L 224 384 L 224 384 L 208 384 L 96 384 L 96 368 L 96 368 L 96 272 L 96 272 L 96 256 L 96 256 Z M 272 272 L 272 368 L 272 272 L 272 368 L 368 368 L 368 368 L 368 272 L 368 272 L 272 272 L 272 272 Z M 256 256 L 272 256 L 256 256 L 384 256 L 384 272 L 384 272 L 384 368 L 384 368 L 384 384 L 384 384 L 368 384 L 256 384 L 256 368 L 256 368 L 256 272 L 256 272 L 256 256 L 256 256 Z" />
</svg>