<svg xmlns="http://www.w3.org/2000/svg" viewBox="0 0 448 384">
  <path d="M 208 240 L 224 240 L 208 240 L 432 240 L 432 144 L 432 144 L 224 144 L 208 144 L 208 128 L 208 128 L 208 16 L 208 16 L 199 16 L 199 16 L 23 192 L 23 192 L 199 368 L 199 368 L 208 368 L 208 368 L 208 256 L 208 256 L 208 240 L 208 240 Z M 192 384 L 11 203 L 192 384 L 11 203 L 0 192 L 0 192 L 11 181 L 11 181 L 192 0 L 192 0 L 208 0 L 224 0 L 224 16 L 224 16 L 224 112 L 224 112 L 224 128 L 224 128 L 240 128 L 448 128 L 448 144 L 448 144 L 448 240 L 448 240 L 448 256 L 448 256 L 432 256 L 224 256 L 224 272 L 224 272 L 224 368 L 224 368 L 224 384 L 224 384 L 208 384 L 192 384 Z" />
</svg>