<svg xmlns="http://www.w3.org/2000/svg" viewBox="0 0 640 512">
  <path d="M 424 8 L 424 0 L 424 8 L 424 0 L 408 0 L 408 0 L 408 8 L 408 8 L 408 120 L 408 120 L 408 128 L 408 128 L 424 128 L 424 128 L 424 120 L 424 120 L 424 8 L 424 8 Z M 262 42 L 256 37 L 262 42 L 256 37 L 245 48 L 245 48 L 250 54 L 250 54 L 330 134 L 330 134 L 336 139 L 336 139 L 347 128 L 347 128 L 342 122 L 342 122 L 262 42 L 262 42 Z M 582 54 L 587 48 L 582 54 L 587 48 L 576 37 L 576 37 L 570 42 L 570 42 L 490 122 L 490 122 L 485 128 L 485 128 L 496 139 L 496 139 L 502 134 L 502 134 L 582 54 L 582 54 Z M 272 320 Q 272 281 291 248 L 291 248 L 291 248 Q 310 215 344 195 Q 378 176 416 176 Q 454 176 488 195 Q 522 215 541 248 Q 560 281 560 320 Q 560 359 541 392 Q 522 425 488 445 Q 454 464 416 464 Q 378 464 344 445 Q 310 425 291 392 Q 272 359 272 320 L 272 320 Z M 576 320 Q 574 253 530 208 L 624 208 L 624 208 L 624 432 L 624 432 L 576 432 L 530 432 Q 574 387 576 320 L 576 320 Z M 576 448 L 624 448 L 576 448 L 640 448 L 640 432 L 640 432 L 640 208 L 640 208 L 640 192 L 640 192 L 624 192 L 512 192 Q 471 161 416 160 Q 361 161 320 192 L 16 192 L 0 192 L 0 208 L 0 208 L 0 432 L 0 432 L 0 448 L 0 448 L 16 448 L 64 448 L 64 504 L 64 504 L 64 512 L 64 512 L 80 512 L 80 512 L 80 504 L 80 504 L 80 448 L 80 448 L 320 448 L 320 448 Q 361 479 416 480 Q 471 479 512 448 Q 512 448 512 448 Q 512 448 512 448 L 560 448 L 560 448 L 560 504 L 560 504 L 560 512 L 560 512 L 576 512 L 576 512 L 576 504 L 576 504 L 576 448 L 576 448 Z M 80 432 L 64 432 L 80 432 L 16 432 L 16 208 L 16 208 L 302 208 L 302 208 Q 258 253 256 320 Q 258 387 302 432 L 80 432 L 80 432 Z M 112 320 Q 111 335 96 336 Q 81 335 80 320 Q 81 305 96 304 Q 111 305 112 320 L 112 320 Z M 96 288 Q 82 288 73 297 L 73 297 L 73 297 Q 64 306 64 320 Q 64 334 73 343 Q 82 352 96 352 Q 110 352 119 343 Q 128 334 128 320 Q 128 306 119 297 Q 110 288 96 288 L 96 288 Z M 192 336 Q 177 335 176 320 Q 177 305 192 304 Q 207 305 208 320 Q 207 335 192 336 L 192 336 Z M 160 320 Q 160 334 169 343 L 169 343 L 169 343 Q 178 352 192 352 Q 206 352 215 343 Q 224 334 224 320 Q 224 306 215 297 Q 206 288 192 288 Q 178 288 169 297 Q 160 306 160 320 L 160 320 Z" />
</svg>