<svg xmlns="http://www.w3.org/2000/svg" viewBox="0 0 512 512">
  <path d="M 310 117 L 307 111 L 310 117 L 307 111 L 256 30 L 256 30 L 206 111 L 206 111 L 202 117 L 202 117 L 195 118 L 195 118 Q 115 136 66 187 Q 17 237 16 304 Q 18 384 85 439 Q 152 494 256 496 Q 360 494 427 439 Q 494 384 496 304 Q 495 237 446 187 Q 397 136 317 118 L 310 117 L 310 117 Z M 247 15 L 256 0 L 247 15 L 256 0 L 265 15 L 265 15 L 320 103 L 320 103 Q 405 121 457 176 Q 510 230 512 304 Q 511 362 477 409 Q 443 456 385 484 Q 328 511 256 512 Q 184 511 127 484 Q 69 456 35 409 Q 1 362 0 304 Q 2 230 55 176 Q 107 121 192 103 L 247 15 L 247 15 Z" />
</svg>