<svg xmlns="http://www.w3.org/2000/svg" viewBox="0 0 448 512">
  <path d="M 72 0 L 72 8 L 72 0 L 72 8 L 72 96 L 72 96 L 112 96 L 128 96 L 128 112 L 128 112 L 128 208 L 128 208 L 128 224 L 128 224 L 112 224 L 72 224 L 72 504 L 72 504 L 72 512 L 72 512 L 56 512 L 56 512 L 56 504 L 56 504 L 56 224 L 56 224 L 16 224 L 0 224 L 0 208 L 0 208 L 0 112 L 0 112 L 0 96 L 0 96 L 16 96 L 56 96 L 56 8 L 56 8 L 56 0 L 56 0 L 72 0 L 72 0 Z M 56 208 L 72 208 L 56 208 L 112 208 L 112 112 L 112 112 L 72 112 L 16 112 L 16 208 L 16 208 L 56 208 L 56 208 Z M 232 0 L 232 8 L 232 0 L 232 8 L 232 288 L 232 288 L 272 288 L 288 288 L 288 304 L 288 304 L 288 400 L 288 400 L 288 416 L 288 416 L 272 416 L 232 416 L 232 504 L 232 504 L 232 512 L 232 512 L 216 512 L 216 512 L 216 504 L 216 504 L 216 416 L 216 416 L 176 416 L 160 416 L 160 400 L 160 400 L 160 304 L 160 304 L 160 288 L 160 288 L 176 288 L 216 288 L 216 8 L 216 8 L 216 0 L 216 0 L 232 0 L 232 0 Z M 232 400 L 272 400 L 232 400 L 272 400 L 272 304 L 272 304 L 232 304 L 176 304 L 176 400 L 176 400 L 216 400 L 232 400 Z M 392 8 L 392 128 L 392 8 L 392 128 L 432 128 L 448 128 L 448 144 L 448 144 L 448 240 L 448 240 L 448 256 L 448 256 L 432 256 L 392 256 L 392 504 L 392 504 L 392 512 L 392 512 L 376 512 L 376 512 L 376 504 L 376 504 L 376 256 L 376 256 L 336 256 L 320 256 L 320 240 L 320 240 L 320 144 L 320 144 L 320 128 L 320 128 L 336 128 L 376 128 L 376 8 L 376 8 L 376 0 L 376 0 L 392 0 L 392 0 L 392 8 L 392 8 Z M 376 240 L 392 240 L 376 240 L 432 240 L 432 144 L 432 144 L 392 144 L 336 144 L 336 240 L 336 240 L 376 240 L 376 240 Z" />
</svg>