<svg xmlns="http://www.w3.org/2000/svg" viewBox="0 0 640 512">
  <path d="M 608 224 L 640 224 L 608 224 L 640 224 L 640 192 L 640 192 L 640 176 L 640 176 L 544 0 L 544 0 L 99 0 L 99 0 L 140 32 L 140 32 L 525 32 L 525 32 L 608 184 L 608 184 L 608 192 L 608 192 L 560 192 L 342 192 L 383 224 L 383 224 L 544 224 L 544 224 L 544 351 L 544 351 L 576 377 L 576 377 L 576 224 L 576 224 L 608 224 L 608 224 Z M 0 176 L 0 192 L 0 176 L 0 192 L 0 224 L 0 224 L 32 224 L 64 224 L 64 496 L 64 496 L 64 512 L 64 512 L 80 512 L 384 512 L 384 496 L 384 496 L 384 388 L 384 388 L 338 352 L 338 352 L 96 352 L 96 352 L 96 224 L 96 224 L 176 224 L 176 224 L 136 192 L 136 192 L 96 192 L 32 192 L 32 184 L 32 184 L 60 133 L 60 133 L 35 112 L 35 112 L 0 176 L 0 176 Z M 96 480 L 96 384 L 96 480 L 96 384 L 352 384 L 352 384 L 352 480 L 352 480 L 96 480 L 96 480 Z M 33 10 L 20 0 L 33 10 L 20 0 L 0 25 L 0 25 L 13 35 L 13 35 L 608 502 L 608 502 L 620 512 L 620 512 L 640 487 L 640 487 L 628 477 L 628 477 L 33 10 L 33 10 Z" />
</svg>