<svg xmlns="http://www.w3.org/2000/svg" viewBox="0 0 591 510">
  <path d="M 59 72 L 53 74 L 59 72 L 53 74 L 53 80 L 53 80 L 50 240 L 50 240 L 15 250 L 15 250 L 0 254 L 0 254 L 4 269 L 4 269 L 45 424 L 45 424 L 49 439 L 49 439 L 62 486 L 62 486 L 66 501 L 66 501 L 82 497 L 82 497 L 143 480 L 143 480 L 159 476 L 159 476 L 155 461 L 155 461 L 142 414 L 142 414 L 421 340 L 421 340 L 433 386 L 433 386 L 437 402 L 437 402 L 453 398 L 453 398 L 514 381 L 514 381 L 530 377 L 530 377 L 526 361 L 526 361 L 513 315 L 513 315 L 509 300 L 509 300 L 468 145 L 468 145 L 463 130 L 463 130 L 448 134 L 448 134 L 413 143 L 413 143 L 331 6 L 331 6 L 327 0 L 327 0 L 322 2 L 322 2 L 59 72 L 59 72 Z M 123 403 L 61 420 L 123 403 L 61 420 L 19 265 L 19 265 L 452 149 L 452 149 L 494 304 L 494 304 L 432 320 L 432 320 L 416 324 L 416 324 L 138 399 L 138 399 L 123 403 L 123 403 Z M 65 435 L 127 418 L 65 435 L 127 418 L 139 465 L 139 465 L 77 481 L 77 481 L 65 435 L 65 435 Z M 397 147 L 66 236 L 397 147 L 66 236 L 69 86 L 69 86 L 320 19 L 320 19 L 397 147 L 397 147 Z M 448 382 L 436 336 L 448 382 L 436 336 L 498 319 L 498 319 L 510 365 L 510 365 L 448 382 L 448 382 Z M 102 326 Q 100 317 106 310 Q 113 304 121 306 Q 130 309 133 318 Q 135 326 129 333 Q 122 339 113 337 Q 104 335 102 326 L 102 326 Z M 148 313 Q 143 296 126 290 Q 108 286 94 299 Q 82 312 87 330 Q 92 348 109 353 Q 127 357 140 345 Q 153 331 148 313 L 148 313 Z M 391 232 Q 400 229 407 236 Q 413 242 411 251 Q 409 260 400 263 Q 391 265 384 259 Q 378 252 380 243 Q 383 234 391 232 L 391 232 Z M 404 278 Q 421 273 427 255 Q 431 238 419 224 Q 405 212 387 216 Q 370 221 364 239 Q 360 257 372 270 Q 386 282 404 278 L 404 278 Z M 482 430 Q 518 431 543 453 L 543 453 L 543 453 Q 569 475 575 510 L 591 510 L 591 510 Q 591 509 591 509 Q 584 468 554 441 Q 524 415 482 414 Q 439 415 409 441 Q 379 468 372 509 Q 372 510 372 510 L 388 510 L 388 510 Q 394 475 420 453 Q 445 431 482 430 L 482 430 Z" />
</svg>