<svg xmlns="http://www.w3.org/2000/svg" viewBox="0 0 576 448">
  <path d="M 272 64 L 208 0 L 272 64 L 208 0 L 16 0 L 0 0 L 0 16 L 0 16 L 0 432 L 0 432 L 0 448 L 0 448 L 16 448 L 448 448 L 568 208 L 568 208 L 576 192 L 576 192 L 558 192 L 128 192 L 16 416 L 16 416 L 16 16 L 16 16 L 201 16 L 201 16 L 261 75 L 261 75 L 265 80 L 265 80 L 272 80 L 464 80 L 464 160 L 464 160 L 480 160 L 480 160 L 480 80 L 480 80 L 480 64 L 480 64 L 464 64 L 272 64 Z M 26 432 L 138 208 L 26 432 L 138 208 L 550 208 L 550 208 L 438 432 L 438 432 L 384 432 L 26 432 Z" />
</svg>