<svg xmlns="http://www.w3.org/2000/svg" viewBox="0 0 512 512">
  <path d="M 256 23 L 336 103 L 256 23 L 336 103 L 336 112 L 336 112 L 176 112 L 176 112 L 176 103 L 176 103 L 256 23 L 256 23 Z M 160 96 L 160 112 L 160 96 L 160 112 L 160 128 L 160 128 L 176 128 L 248 128 L 248 248 L 248 248 L 128 248 L 128 248 L 128 176 L 128 176 L 128 160 L 128 160 L 112 160 L 96 160 L 11 245 L 11 245 L 0 256 L 0 256 L 11 267 L 11 267 L 96 352 L 96 352 L 112 352 L 128 352 L 128 336 L 128 336 L 128 264 L 128 264 L 248 264 L 248 264 L 248 384 L 248 384 L 176 384 L 160 384 L 160 400 L 160 400 L 160 416 L 160 416 L 245 501 L 245 501 L 256 512 L 256 512 L 267 501 L 267 501 L 352 416 L 352 416 L 352 400 L 352 400 L 352 384 L 352 384 L 336 384 L 264 384 L 264 264 L 264 264 L 384 264 L 384 264 L 384 336 L 384 336 L 384 352 L 384 352 L 400 352 L 416 352 L 501 267 L 501 267 L 512 256 L 512 256 L 501 245 L 501 245 L 416 160 L 416 160 L 400 160 L 384 160 L 384 176 L 384 176 L 384 248 L 384 248 L 264 248 L 264 248 L 264 128 L 264 128 L 336 128 L 352 128 L 352 112 L 352 112 L 352 96 L 352 96 L 267 11 L 267 11 L 256 0 L 256 0 L 245 11 L 245 11 L 160 96 L 160 96 Z M 103 176 L 112 176 L 103 176 L 112 176 L 112 336 L 112 336 L 103 336 L 103 336 L 23 256 L 23 256 L 103 176 L 103 176 Z M 256 489 L 176 409 L 256 489 L 176 409 L 176 400 L 176 400 L 336 400 L 336 400 L 336 409 L 336 409 L 256 489 L 256 489 Z M 409 176 L 489 256 L 409 176 L 489 256 L 409 336 L 409 336 L 400 336 L 400 336 L 400 176 L 400 176 L 409 176 L 409 176 Z" />
</svg>