<svg xmlns="http://www.w3.org/2000/svg" viewBox="0 0 416 432">
  <path d="M 0 432 L 0 400 L 0 432 L 0 400 L 32 400 L 32 400 L 32 432 L 32 432 L 0 432 L 0 432 Z M 128 432 L 96 432 L 128 432 L 96 432 L 96 400 L 96 400 L 128 400 L 128 400 L 128 432 L 128 432 Z M 224 432 L 192 432 L 224 432 L 192 432 L 192 400 L 192 400 L 224 400 L 224 400 L 224 432 L 224 432 Z M 320 432 L 288 432 L 320 432 L 288 432 L 288 400 L 288 400 L 320 400 L 320 400 L 320 432 L 320 432 Z M 384 432 L 384 400 L 384 432 L 384 400 L 416 400 L 416 400 L 416 432 L 416 432 L 384 432 L 384 432 Z M 144 192 L 128 192 L 144 192 L 48 192 L 48 176 L 48 176 L 48 160 L 48 160 L 197 11 L 197 11 L 208 0 L 208 0 L 219 11 L 219 11 L 368 160 L 368 160 L 368 176 L 368 176 L 368 192 L 368 192 L 352 192 L 272 192 L 272 208 L 272 208 L 272 336 L 272 336 L 272 352 L 272 352 L 256 352 L 144 352 L 144 336 L 144 336 L 144 208 L 144 208 L 144 192 L 144 192 Z M 144 176 L 160 176 L 144 176 L 160 176 L 160 192 L 160 192 L 160 336 L 160 336 L 256 336 L 256 336 L 256 192 L 256 192 L 256 176 L 256 176 L 272 176 L 352 176 L 352 167 L 352 167 L 208 23 L 208 23 L 64 167 L 64 167 L 64 176 L 64 176 L 144 176 L 144 176 Z" />
</svg>