<svg xmlns="http://www.w3.org/2000/svg" viewBox="0 0 640 520">
  <path d="M 280 64 Q 279 41 260 29 Q 240 19 220 29 Q 201 41 200 64 Q 201 87 220 99 Q 240 109 260 99 Q 279 87 280 64 L 280 64 Z M 184 64 Q 185 32 212 16 Q 240 0 268 16 Q 295 32 296 64 Q 295 96 268 112 Q 240 128 212 112 Q 185 96 184 64 L 184 64 Z M 421 152 L 424 152 L 421 152 L 640 152 L 640 160 L 640 160 L 640 288 L 640 288 L 640 296 L 640 296 L 632 296 L 475 296 L 239 502 L 239 502 L 221 518 L 221 518 L 219 520 L 219 520 L 216 520 L 0 520 L 0 512 L 0 512 L 0 384 L 0 384 L 0 376 L 0 376 L 8 376 L 165 376 L 401 170 L 401 170 L 419 154 L 419 154 L 421 152 L 421 152 Z M 427 168 L 411 182 L 427 168 L 411 182 L 173 390 L 173 390 L 171 392 L 171 392 L 168 392 L 16 392 L 16 504 L 16 504 L 72 504 L 213 504 L 229 490 L 229 490 L 467 282 L 467 282 L 469 280 L 469 280 L 472 280 L 624 280 L 624 168 L 624 168 L 568 168 L 427 168 Z M 320 193 L 304 207 L 320 193 L 304 207 L 304 168 L 304 168 L 176 168 L 176 168 L 176 319 L 176 319 L 160 333 L 160 333 L 160 168 L 160 168 L 160 152 L 160 152 L 176 152 L 320 152 L 320 168 L 320 168 L 320 193 L 320 193 Z" />
</svg>