<svg xmlns="http://www.w3.org/2000/svg" viewBox="0 0 512 512">
  <path d="M 336 496 L 336 448 L 336 496 L 336 448 L 336 432 L 336 432 L 336 368 L 336 368 L 336 352 L 336 352 L 336 96 L 336 96 Q 335 62 313 39 Q 290 17 256 16 Q 222 17 199 39 Q 177 62 176 96 L 176 224 L 176 224 L 176 240 L 176 240 L 176 304 L 176 304 L 176 320 L 176 320 L 176 496 L 176 496 L 336 496 L 336 496 Z M 352 368 L 352 432 L 352 368 L 352 432 L 464 432 L 496 432 L 496 400 L 496 400 L 496 272 L 496 272 L 496 240 L 496 240 L 432 240 L 432 240 L 432 272 L 432 272 L 432 352 L 432 352 L 432 368 L 432 368 L 416 368 L 352 368 Z M 352 448 L 352 496 L 352 448 L 352 496 L 352 512 L 352 512 L 336 512 L 160 512 L 160 496 L 160 496 L 160 320 L 160 320 L 48 320 L 0 320 L 0 304 L 0 304 L 0 272 L 0 272 L 0 144 L 0 144 L 0 112 L 0 112 L 0 96 L 0 96 L 16 96 L 96 96 L 96 112 L 96 112 L 96 144 L 96 144 L 96 208 L 96 208 L 96 224 L 96 224 L 112 224 L 160 224 L 160 96 L 160 96 Q 161 55 188 28 Q 215 1 256 0 Q 297 1 324 28 Q 351 55 352 96 L 352 352 L 352 352 L 400 352 L 416 352 L 416 336 L 416 336 L 416 272 L 416 272 L 416 240 L 416 240 L 416 224 L 416 224 L 432 224 L 512 224 L 512 240 L 512 240 L 512 272 L 512 272 L 512 400 L 512 400 L 512 432 L 512 432 L 512 448 L 512 448 L 496 448 L 352 448 Z M 160 240 L 96 240 L 160 240 L 80 240 L 80 224 L 80 224 L 80 144 L 80 144 L 80 112 L 80 112 L 16 112 L 16 112 L 16 144 L 16 144 L 16 272 L 16 272 L 16 304 L 16 304 L 48 304 L 160 304 L 160 240 L 160 240 Z M 224 144 Q 225 129 240 128 Q 255 129 256 144 Q 255 159 240 160 Q 225 159 224 144 L 224 144 Z M 272 352 Q 287 353 288 368 Q 287 383 272 384 Q 257 383 256 368 Q 257 353 272 352 L 272 352 Z" />
</svg>