<svg xmlns="http://www.w3.org/2000/svg" viewBox="0 0 640 448">
  <path d="M 560 16 L 80 16 L 560 16 L 80 16 L 80 160 L 80 160 L 64 160 L 64 160 L 64 16 L 64 16 L 64 0 L 64 0 L 80 0 L 576 0 L 576 16 L 576 16 L 576 160 L 576 160 L 560 160 L 560 160 L 560 16 L 560 16 Z M 16 432 L 112 432 L 16 432 L 112 432 L 112 208 L 112 208 L 16 208 L 16 208 L 16 432 L 16 432 Z M 0 192 L 16 192 L 0 192 L 128 192 L 128 208 L 128 208 L 128 256 L 128 256 L 512 256 L 512 256 L 512 208 L 512 208 L 512 192 L 512 192 L 528 192 L 640 192 L 640 208 L 640 208 L 640 432 L 640 432 L 640 448 L 640 448 L 624 448 L 512 448 L 512 432 L 512 432 L 512 400 L 512 400 L 128 400 L 128 400 L 128 432 L 128 432 L 128 448 L 128 448 L 112 448 L 0 448 L 0 432 L 0 432 L 0 208 L 0 208 L 0 192 L 0 192 Z M 128 384 L 512 384 L 128 384 L 512 384 L 512 272 L 512 272 L 128 272 L 128 272 L 128 384 L 128 384 Z M 528 432 L 624 432 L 528 432 L 624 432 L 624 208 L 624 208 L 528 208 L 528 208 L 528 432 L 528 432 Z" />
</svg>