<svg xmlns="http://www.w3.org/2000/svg" viewBox="0 0 384 512">
  <path d="M 313 320 Q 366 270 368 192 Q 366 117 316 68 Q 267 18 192 16 Q 117 18 68 68 Q 18 117 16 192 Q 18 270 71 320 L 49 320 L 49 320 Q 2 267 0 192 Q 2 110 56 56 Q 110 2 192 0 Q 274 2 328 56 Q 382 110 384 192 Q 382 267 335 320 L 313 320 L 313 320 Z M 56 352 L 64 352 L 56 352 L 328 352 L 328 360 L 328 360 L 328 384 L 328 384 L 328 389 L 328 389 L 323 391 L 323 391 L 224 437 L 224 437 L 224 504 L 224 504 L 224 512 L 224 512 L 208 512 L 208 512 L 208 504 L 208 504 L 208 432 L 208 432 L 208 427 L 208 427 L 213 425 L 213 425 L 312 379 L 312 379 L 312 368 L 312 368 L 72 368 L 72 368 L 72 379 L 72 379 L 171 425 L 171 425 L 176 427 L 176 427 L 176 432 L 176 432 L 176 504 L 176 504 L 176 512 L 176 512 L 160 512 L 160 512 L 160 504 L 160 504 L 160 437 L 160 437 L 61 391 L 61 391 L 56 389 L 56 389 L 56 384 L 56 384 L 56 360 L 56 360 L 56 352 L 56 352 Z M 224 176 Q 224 193 212 204 L 212 204 L 212 204 Q 201 216 184 216 L 176 216 L 176 216 L 176 200 L 176 200 L 184 200 L 184 200 Q 206 198 208 176 L 208 168 L 208 168 L 224 168 L 224 168 L 224 176 L 224 176 Z M 304 184 L 304 192 L 304 184 L 304 192 Q 304 209 292 220 Q 281 232 264 232 L 256 232 L 256 232 L 256 216 L 256 216 L 264 216 L 264 216 Q 286 214 288 192 L 288 184 L 288 184 L 304 184 L 304 184 Z M 240 256 Q 240 273 228 284 L 228 284 L 228 284 Q 217 296 200 296 L 192 296 L 192 296 L 192 280 L 192 280 L 200 280 L 200 280 Q 222 278 224 256 L 224 248 L 224 248 L 240 248 L 240 248 L 240 256 L 240 256 Z" />
</svg>