<svg xmlns="http://www.w3.org/2000/svg" viewBox="0 0 512 448">
  <path d="M 264 8 Q 263 1 256 0 Q 249 1 248 8 L 248 39 L 248 39 L 112 18 L 112 18 L 96 16 L 96 16 L 96 32 L 96 32 L 96 96 L 96 96 L 96 112 L 96 112 L 112 110 L 112 110 L 248 89 L 248 89 L 248 160 L 248 160 L 64 160 L 64 160 L 64 144 L 64 144 L 64 128 L 64 128 L 48 128 L 0 128 L 0 144 L 0 144 L 0 432 L 0 432 L 0 448 L 0 448 L 16 448 L 64 448 L 64 432 L 64 432 L 64 416 L 64 416 L 448 416 L 448 416 L 448 432 L 448 432 L 448 448 L 448 448 L 464 448 L 512 448 L 512 432 L 512 432 L 512 144 L 512 144 L 512 128 L 512 128 L 496 128 L 448 128 L 448 144 L 448 144 L 448 160 L 448 160 L 264 160 L 264 160 L 264 89 L 264 89 L 400 110 L 400 110 L 416 112 L 416 112 L 416 96 L 416 96 L 416 32 L 416 32 L 416 16 L 416 16 L 400 18 L 400 18 L 264 39 L 264 39 L 264 8 L 264 8 Z M 448 176 L 448 400 L 448 176 L 448 400 L 64 400 L 64 400 L 64 176 L 64 176 L 256 176 L 448 176 Z M 248 55 L 248 73 L 248 55 L 248 73 L 112 93 L 112 93 L 112 35 L 112 35 L 248 55 L 248 55 Z M 264 73 L 264 55 L 264 73 L 264 55 L 400 35 L 400 35 L 400 93 L 400 93 L 264 73 L 264 73 Z M 48 144 L 48 432 L 48 144 L 48 432 L 16 432 L 16 432 L 16 144 L 16 144 L 48 144 L 48 144 Z M 464 144 L 496 144 L 464 144 L 496 144 L 496 432 L 496 432 L 464 432 L 464 432 L 464 144 L 464 144 Z" />
</svg>