<svg xmlns="http://www.w3.org/2000/svg" viewBox="0 0 448 512">
  <path d="M 288 0 L 287 0 L 288 0 L 286 0 L 62 72 L 62 72 L 56 74 L 56 74 L 56 80 L 56 80 L 56 288 L 56 288 L 16 288 L 0 288 L 0 304 L 0 304 L 0 496 L 0 496 L 0 512 L 0 512 L 16 512 L 128 512 L 128 496 L 128 496 L 128 304 L 128 304 L 128 288 L 128 288 L 112 288 L 72 288 L 72 86 L 72 86 L 289 16 L 289 16 L 344 16 L 344 16 L 344 152 L 344 152 L 344 160 L 344 160 L 360 160 L 360 160 L 360 152 L 360 152 L 360 8 L 360 8 L 360 0 L 360 0 L 352 0 L 288 0 Z M 16 304 L 112 304 L 16 304 L 112 304 L 112 496 L 112 496 L 16 496 L 16 496 L 16 304 L 16 304 Z M 352 207 L 348 209 L 352 207 L 348 209 Q 323 221 291 256 Q 259 291 256 352 Q 256 377 268 405 Q 281 433 312 458 L 287 500 L 287 500 L 279 512 L 279 512 L 293 512 L 425 512 L 418 500 L 418 500 L 392 458 L 392 458 Q 423 433 436 405 Q 448 377 448 352 Q 445 291 413 256 Q 381 221 356 209 L 352 207 L 352 207 Z M 352 225 Q 376 238 403 269 L 403 269 L 403 269 Q 430 300 432 352 Q 432 375 420 400 Q 408 426 377 450 L 371 454 L 371 454 L 374 460 L 374 460 L 396 496 L 396 496 L 308 496 L 308 496 L 329 460 L 329 460 L 333 454 L 333 454 L 327 450 L 327 450 Q 296 426 284 400 Q 272 375 272 352 Q 274 300 301 269 Q 328 238 352 225 L 352 225 Z M 368 320 Q 383 319 384 304 Q 383 289 368 288 Q 353 289 352 304 Q 353 319 368 320 L 368 320 Z" />
</svg>