<svg xmlns="http://www.w3.org/2000/svg" viewBox="0 0 512 512">
  <path d="M 248 104 L 248 112 L 248 104 L 248 112 L 264 112 L 264 112 L 264 104 L 264 104 L 264 8 L 264 8 L 264 0 L 264 0 L 248 0 L 248 0 L 248 8 L 248 8 L 248 104 L 248 104 Z M 256 176 Q 301 177 325 216 Q 347 256 325 296 Q 301 335 256 336 Q 211 335 187 296 Q 165 256 187 216 Q 211 177 256 176 L 256 176 Z M 256 352 Q 282 352 304 339 L 304 339 L 304 339 Q 326 326 339 304 Q 352 281 352 256 Q 352 231 339 208 Q 326 186 304 173 Q 282 160 256 160 Q 230 160 208 173 Q 186 186 173 208 Q 160 231 160 256 Q 160 281 173 304 Q 186 326 208 339 Q 230 352 256 352 L 256 352 Z M 248 512 L 264 512 L 248 512 L 264 512 L 264 504 L 264 504 L 264 408 L 264 408 L 264 400 L 264 400 L 248 400 L 248 400 L 248 408 L 248 408 L 248 504 L 248 504 L 248 512 L 248 512 Z M 0 248 L 0 264 L 0 248 L 0 264 L 8 264 L 112 264 L 112 248 L 112 248 L 104 248 L 0 248 Z M 408 248 L 400 248 L 408 248 L 400 248 L 400 264 L 400 264 L 408 264 L 512 264 L 512 248 L 512 248 L 504 248 L 408 248 Z M 69 431 L 81 443 L 69 431 L 81 443 L 86 437 L 86 437 L 154 369 L 154 369 L 160 363 L 160 363 L 149 352 L 149 352 L 143 358 L 143 358 L 75 426 L 75 426 L 69 431 L 69 431 Z M 358 143 L 352 149 L 358 143 L 352 149 L 363 160 L 363 160 L 369 154 L 369 154 L 437 86 L 437 86 L 443 81 L 443 81 L 431 69 L 431 69 L 426 75 L 426 75 L 358 143 L 358 143 Z M 81 69 L 69 81 L 81 69 L 69 81 L 75 86 L 75 86 L 143 154 L 143 154 L 149 160 L 149 160 L 160 149 L 160 149 L 154 143 L 154 143 L 86 75 L 86 75 L 81 69 L 81 69 Z M 369 358 L 363 352 L 369 358 L 363 352 L 352 363 L 352 363 L 358 369 L 358 369 L 426 437 L 426 437 L 431 443 L 431 443 L 443 431 L 443 431 L 437 426 L 437 426 L 369 358 L 369 358 Z" />
</svg>