<svg xmlns="http://www.w3.org/2000/svg" viewBox="0 0 636 448">
  <path d="M 165 5 L 166 0 L 165 5 L 166 0 L 178 0 L 178 0 L 179 5 L 179 5 L 344 448 L 344 448 L 327 448 L 327 448 L 280 320 L 280 320 L 64 320 L 64 320 L 17 448 L 17 448 L 0 448 L 0 448 L 165 5 L 165 5 Z M 70 304 L 274 304 L 70 304 L 274 304 L 172 31 L 172 31 L 70 304 L 70 304 Z M 636 136 L 636 244 L 636 136 L 636 244 L 636 332 L 636 332 L 636 440 L 636 440 L 636 448 L 636 448 L 620 448 L 620 448 L 620 440 L 620 440 L 620 391 L 620 391 Q 604 417 578 432 Q 552 448 520 448 Q 471 447 438 414 Q 405 381 404 332 L 404 244 L 404 244 Q 405 195 438 162 Q 471 129 520 128 Q 552 128 578 144 Q 604 159 620 185 L 620 136 L 620 136 L 620 128 L 620 128 L 636 128 L 636 128 L 636 136 L 636 136 Z M 520 144 Q 478 145 449 173 L 449 173 L 449 173 Q 421 202 420 244 L 420 332 L 420 332 Q 421 374 449 403 Q 478 431 520 432 Q 562 431 591 403 Q 619 374 620 332 L 620 244 L 620 244 Q 619 202 591 173 Q 562 145 520 144 L 520 144 Z" />
</svg>