<svg xmlns="http://www.w3.org/2000/svg" viewBox="0 0 448 512">
  <path d="M 128 0 L 128 8 L 128 0 L 128 8 L 128 64 L 128 64 L 320 64 L 320 64 L 320 8 L 320 8 L 320 0 L 320 0 L 336 0 L 336 0 L 336 8 L 336 8 L 336 64 L 336 64 L 432 64 L 448 64 L 448 80 L 448 80 L 448 176 L 448 176 L 448 192 L 448 192 L 448 496 L 448 496 L 448 512 L 448 512 L 432 512 L 0 512 L 0 496 L 0 496 L 0 192 L 0 192 L 0 176 L 0 176 L 0 80 L 0 80 L 0 64 L 0 64 L 16 64 L 112 64 L 112 8 L 112 8 L 112 0 L 112 0 L 128 0 L 128 0 Z M 432 192 L 16 192 L 432 192 L 16 192 L 16 496 L 16 496 L 432 496 L 432 496 L 432 192 L 432 192 Z M 112 120 L 112 80 L 112 120 L 112 80 L 16 80 L 16 80 L 16 176 L 16 176 L 432 176 L 432 176 L 432 80 L 432 80 L 336 80 L 336 80 L 336 120 L 336 120 L 336 128 L 336 128 L 320 128 L 320 128 L 320 120 L 320 120 L 320 80 L 320 80 L 128 80 L 128 80 L 128 120 L 128 120 L 128 128 L 128 128 L 112 128 L 112 128 L 112 120 L 112 120 Z M 320 352 L 312 352 L 320 352 L 232 352 L 232 432 L 232 432 L 232 440 L 232 440 L 216 440 L 216 440 L 216 432 L 216 432 L 216 352 L 216 352 L 136 352 L 128 352 L 128 336 L 128 336 L 136 336 L 216 336 L 216 256 L 216 256 L 216 248 L 216 248 L 232 248 L 232 248 L 232 256 L 232 256 L 232 336 L 232 336 L 312 336 L 320 336 L 320 352 L 320 352 Z" />
</svg>