<svg xmlns="http://www.w3.org/2000/svg" viewBox="0 0 384 512">
  <path d="M 16 496 L 16 16 L 16 496 L 16 16 L 208 16 L 208 16 L 208 168 L 208 168 L 208 176 L 208 176 L 216 176 L 368 176 L 368 496 L 368 496 L 16 496 L 16 496 Z M 224 23 L 361 160 L 224 23 L 361 160 L 224 160 L 224 160 L 224 23 L 224 23 Z M 224 0 L 16 0 L 224 0 L 0 0 L 0 16 L 0 16 L 0 496 L 0 496 L 0 512 L 0 512 L 16 512 L 384 512 L 384 496 L 384 496 L 384 160 L 384 160 L 224 0 L 224 0 Z M 200 208 L 184 208 L 200 208 L 184 208 L 184 216 L 184 216 L 184 360 L 184 360 L 184 368 L 184 368 L 200 368 L 200 368 L 200 360 L 200 360 L 200 216 L 200 216 L 200 208 L 200 208 Z M 176 400 L 176 432 L 176 400 L 176 432 L 208 432 L 208 432 L 208 400 L 208 400 L 176 400 L 176 400 Z" />
</svg>