<svg xmlns="http://www.w3.org/2000/svg" viewBox="0 0 454 512">
  <path d="M 235 8 L 235 120 L 235 8 L 235 120 L 235 128 L 235 128 L 219 128 L 219 128 L 219 120 L 219 120 L 219 8 L 219 8 L 219 0 L 219 0 L 235 0 L 235 0 L 235 8 L 235 8 Z M 117 176 L 123 176 L 117 176 L 337 176 L 339 182 L 339 182 L 369 288 L 369 288 L 403 288 L 419 288 L 419 304 L 419 304 L 419 432 L 419 432 L 419 448 L 419 448 L 419 496 L 419 496 L 419 512 L 419 512 L 403 512 L 339 512 L 339 496 L 339 496 L 339 448 L 339 448 L 115 448 L 115 448 L 115 496 L 115 496 L 115 512 L 115 512 L 99 512 L 35 512 L 35 496 L 35 496 L 35 448 L 35 448 L 35 432 L 35 432 L 35 304 L 35 304 L 35 288 L 35 288 L 51 288 L 85 288 L 115 182 L 115 182 L 117 176 L 117 176 Z M 51 304 L 51 432 L 51 304 L 51 432 L 99 432 L 403 432 L 403 304 L 403 304 L 51 304 L 51 304 Z M 355 496 L 403 496 L 355 496 L 403 496 L 403 448 L 403 448 L 355 448 L 355 448 L 355 496 L 355 496 Z M 99 448 L 51 448 L 99 448 L 51 448 L 51 496 L 51 496 L 99 496 L 99 496 L 99 448 L 99 448 Z M 325 192 L 129 192 L 325 192 L 129 192 L 102 288 L 102 288 L 352 288 L 352 288 L 325 192 L 325 192 Z M 99 368 Q 100 383 115 384 Q 130 383 131 368 Q 130 353 115 352 Q 100 353 99 368 L 99 368 Z M 115 400 Q 101 400 92 391 L 92 391 L 92 391 Q 83 382 83 368 Q 83 354 92 345 Q 101 336 115 336 Q 129 336 138 345 Q 147 354 147 368 Q 147 382 138 391 Q 129 400 115 400 L 115 400 Z M 339 352 Q 324 353 323 368 Q 324 383 339 384 Q 354 383 355 368 Q 354 353 339 352 L 339 352 Z M 371 368 Q 371 382 362 391 L 362 391 L 362 391 Q 353 400 339 400 Q 325 400 316 391 Q 307 382 307 368 Q 307 354 316 345 Q 325 336 339 336 Q 353 336 362 345 Q 371 354 371 368 L 371 368 Z M 11 29 L 17 34 L 11 29 L 17 34 L 97 114 L 97 114 L 102 120 L 102 120 L 91 131 L 91 131 L 85 126 L 85 126 L 5 46 L 5 46 L 0 40 L 0 40 L 11 29 L 11 29 Z M 437 34 L 443 29 L 437 34 L 443 29 L 454 40 L 454 40 L 449 46 L 449 46 L 369 126 L 369 126 L 363 131 L 363 131 L 352 120 L 352 120 L 357 114 L 357 114 L 437 34 L 437 34 Z" />
</svg>