<svg xmlns="http://www.w3.org/2000/svg" viewBox="0 0 512 512">
  <path d="M 512 186.18182 Q 500.36365 213.03496 477.98602 230.93706 L 477.98602 230.93706 Q 456.5035 248.83916 427.86014 254.2098 Q 423.3846 229.14685 408.16785 209.45454 Q 393.84616 190.65735 371.46854 179.91608 Q 369.6783 147.6923 351.7762 124.41958 Q 332.97903 100.25175 305.23077 90.405594 Q 319.55246 61.762238 346.4056 44.755245 Q 373.25873 26.853148 407.27274 26.853148 Q 423.3846 26.853148 438.6014 31.32867 Q 417.11887 42.06993 403.69232 62.65734 Q 391.16083 82.34965 390.26575 108.30769 Q 391.16083 145.00699 415.32867 169.17482 Q 439.4965 193.34265 476.1958 194.23776 Q 494.993 194.23776 512 186.18182 L 512 186.18182 Z M 157.53847 127.1049 Q 138.74126 128 127.1049 139.63637 L 127.1049 139.63637 Q 114.573425 152.16783 114.573425 170.06993 L 114.573425 191.55244 L 114.573425 213.03496 L 93.09091 213.03496 L 85.93007 213.03496 Q 67.132866 213.93007 55.496502 225.56644 Q 42.965034 238.0979 42.965034 256 L 42.965034 298.96503 L 71.60839 298.96503 L 99.35664 298.96503 L 99.35664 298.96503 L 103.83217 298.96503 L 56.39161 334.76923 L 56.39161 341.93008 L 42.965034 341.93008 L 42.965034 341.93008 L 21.482517 341.93008 L 0 341.93008 L 0 320.44754 L 0 256 Q 0 223.77623 20.587412 200.5035 Q 40.27972 177.23077 71.60839 170.96504 L 71.60839 170.06993 Q 72.503494 133.37064 96.671326 109.2028 Q 120.83916 85.034966 157.53847 84.13986 Q 180.81119 84.13986 199.6084 95.77622 Q 219.3007 106.51748 230.93706 125.31468 Q 248.83916 112.78322 272.11188 112.78322 Q 302.54544 113.67832 322.23776 133.37064 Q 342.82516 153.95804 343.72028 184.3916 L 343.72028 200.5035 Q 368.7832 205.87413 384 224.67133 Q 400.11188 243.46854 401.007 270.3217 L 401.007 320.44754 L 401.007 341.93008 L 379.52448 341.93008 L 343.72028 341.93008 L 343.72028 341.93008 L 322.23776 341.93008 L 314.18182 341.93008 L 314.18182 313.2867 L 314.18182 298.96503 L 322.23776 298.96503 L 329.3986 298.96503 L 358.04196 298.96503 L 358.04196 270.3217 Q 357.14685 257.79022 349.0909 249.73427 Q 341.03497 241.67831 329.3986 241.67831 L 322.23776 241.67831 L 300.75525 241.67831 L 300.75525 220.1958 L 300.75525 184.3916 Q 299.86014 171.86014 291.8042 163.8042 Q 283.74826 155.74825 272.11188 155.74825 Q 259.5804 155.74825 251.52448 163.8042 Q 243.46854 171.86014 243.46854 183.4965 L 200.5035 182.6014 L 200.5035 170.06993 Q 199.6084 152.16783 187.97203 139.63637 Q 175.44057 128 157.53847 127.1049 L 157.53847 127.1049 Z M 128 485.14685 L 163.8042 370.57343 L 85.034966 370.57343 L 85.034966 349.0909 L 242.57343 227.35664 L 206.76923 341.93008 L 285.53845 341.93008 L 285.53845 363.4126 L 128 485.14685 L 128 485.14685 Z" />
</svg>