<svg xmlns="http://www.w3.org/2000/svg" viewBox="0 0 641 512">
  <path d="M 208 16 L 208 261 L 208 16 L 208 261 L 314 154 L 314 154 L 320 149 L 320 149 L 326 154 L 326 154 L 384 213 L 384 213 L 506 90 L 506 90 L 512 85 L 512 85 L 518 90 L 518 90 L 624 197 L 624 197 L 624 16 L 624 16 L 208 16 L 208 16 Z M 208 283 L 208 336 L 208 283 L 208 336 L 261 336 L 261 336 L 373 224 L 373 224 L 320 171 L 320 171 L 208 283 L 208 283 Z M 283 336 L 624 336 L 283 336 L 624 336 L 624 219 L 624 219 L 512 107 L 512 107 L 390 230 L 390 230 L 283 336 L 283 336 Z M 640 219 L 640 336 L 640 219 L 640 336 L 640 352 L 640 352 L 624 352 L 192 352 L 192 336 L 192 336 L 192 16 L 192 16 L 192 0 L 192 0 L 208 0 L 640 0 L 640 16 L 640 16 L 640 214 L 640 214 Q 641 216 640 219 L 640 219 Z M 288 72 Q 266 74 264 96 Q 266 118 288 120 Q 310 118 312 96 Q 310 74 288 72 L 288 72 Z M 328 96 Q 327 119 308 131 Q 288 141 268 131 Q 249 119 248 96 Q 249 73 268 61 Q 288 51 308 61 Q 327 73 328 96 L 328 96 Z M 128 160 L 160 160 L 128 160 L 160 160 L 160 176 L 160 176 L 128 176 L 128 176 L 128 256 L 128 256 L 128 336 L 128 336 L 128 408 L 128 408 L 128 496 L 128 496 L 384 496 L 384 496 L 384 408 L 384 408 L 384 384 L 384 384 L 400 384 L 400 384 L 400 400 L 400 400 L 464 400 L 464 400 L 464 384 L 464 384 L 480 384 L 480 384 L 480 400 L 480 400 L 480 408 L 480 408 L 480 416 L 480 416 L 480 496 L 480 496 L 480 512 L 480 512 L 464 512 L 0 512 L 0 496 L 0 496 L 0 416 L 0 416 L 0 408 L 0 408 L 0 400 L 0 400 L 0 344 L 0 344 L 0 336 L 0 336 L 0 328 L 0 328 L 0 264 L 0 264 L 0 256 L 0 256 L 0 248 L 0 248 L 0 176 L 0 176 L 0 160 L 0 160 L 16 160 L 128 160 Z M 112 416 L 16 416 L 112 416 L 16 416 L 16 496 L 16 496 L 112 496 L 112 496 L 112 416 L 112 416 Z M 112 400 L 112 344 L 112 400 L 112 344 L 16 344 L 16 344 L 16 400 L 16 400 L 112 400 L 112 400 Z M 112 328 L 112 264 L 112 328 L 112 264 L 16 264 L 16 264 L 16 328 L 16 328 L 112 328 L 112 328 Z M 112 248 L 112 176 L 112 248 L 112 176 L 16 176 L 16 176 L 16 248 L 16 248 L 112 248 L 112 248 Z M 464 416 L 400 416 L 464 416 L 400 416 L 400 496 L 400 496 L 464 496 L 464 496 L 464 416 L 464 416 Z" />
</svg>