<svg xmlns="http://www.w3.org/2000/svg" viewBox="0 0 320 512">
  <path d="M 64 16 L 64 64 L 64 16 L 64 64 L 256 64 L 256 64 L 256 16 L 256 16 L 64 16 L 64 16 Z M 48 64 L 48 16 L 48 64 L 48 16 L 48 0 L 48 0 L 64 0 L 272 0 L 272 16 L 272 16 L 272 64 L 272 64 L 304 64 L 320 64 L 320 80 L 320 80 L 320 496 L 320 496 L 320 512 L 320 512 L 304 512 L 0 512 L 0 496 L 0 496 L 0 80 L 0 80 L 0 64 L 0 64 L 16 64 L 48 64 Z M 272 80 L 256 80 L 272 80 L 16 80 L 16 192 L 16 192 L 304 192 L 304 192 L 304 80 L 304 80 L 272 80 L 272 80 Z M 16 368 L 304 368 L 16 368 L 304 368 L 304 208 L 304 208 L 16 208 L 16 208 L 16 368 L 16 368 Z M 16 384 L 16 496 L 16 384 L 16 496 L 304 496 L 304 496 L 304 384 L 304 384 L 16 384 L 16 384 Z" />
</svg>