<svg xmlns="http://www.w3.org/2000/svg" viewBox="0 0 448 448">
  <path d="M 217 5 L 219 0 L 217 5 L 219 0 L 229 0 L 229 0 L 231 5 L 231 5 L 405 432 L 405 432 L 440 432 L 448 432 L 448 448 L 448 448 L 440 448 L 336 448 L 336 432 L 336 432 L 344 432 L 388 432 L 336 304 L 336 304 L 112 304 L 112 304 L 60 432 L 60 432 L 104 432 L 112 432 L 112 448 L 112 448 L 104 448 L 0 448 L 0 432 L 0 432 L 8 432 L 43 432 L 217 5 L 217 5 Z M 119 288 L 330 288 L 119 288 L 330 288 L 224 29 L 224 29 L 119 288 L 119 288 Z" />
</svg>