<svg xmlns="http://www.w3.org/2000/svg" viewBox="0 0 417 512">
  <path d="M 97 0 L 89 0 L 97 0 L 89 0 L 89 8 L 89 8 L 89 64 L 89 64 L 17 64 L 0 64 L 11 77 L 11 77 L 39 112 L 39 112 L 11 147 L 11 147 L 0 160 L 0 160 L 17 160 L 89 160 L 89 232 L 89 232 L 89 240 L 89 240 L 89 247 L 89 247 L 20 306 L 20 306 L 17 308 L 17 308 L 17 312 L 17 312 L 17 366 L 17 366 Q 17 403 35 434 Q 53 465 86 484 L 104 494 L 104 494 Q 135 512 171 512 L 313 512 L 313 512 Q 357 511 387 482 Q 416 452 417 408 L 417 392 L 417 392 L 417 304 L 417 304 L 417 256 L 417 256 L 417 248 L 417 248 L 409 248 L 353 248 L 353 224 L 353 224 L 353 216 L 353 216 L 345 216 L 281 216 L 281 192 L 281 192 L 281 184 L 281 184 L 273 184 L 193 184 L 193 160 L 193 160 L 193 144 L 193 144 L 193 80 L 193 80 L 193 64 L 193 64 L 193 8 L 193 8 L 193 0 L 193 0 L 185 0 L 97 0 Z M 177 64 L 105 64 L 177 64 L 105 64 L 105 16 L 105 16 L 177 16 L 177 16 L 177 64 L 177 64 Z M 177 80 L 177 144 L 177 80 L 177 144 L 34 144 L 34 144 L 55 117 L 55 117 L 59 112 L 59 112 L 55 107 L 55 107 L 34 80 L 34 80 L 177 80 L 177 80 Z M 177 160 L 177 192 L 177 160 L 177 192 L 177 200 L 177 200 L 185 200 L 265 200 L 265 224 L 265 224 L 265 232 L 265 232 L 273 232 L 337 232 L 337 256 L 337 256 L 337 264 L 337 264 L 345 264 L 401 264 L 401 304 L 401 304 L 401 392 L 401 392 L 401 408 L 401 408 Q 400 445 375 470 Q 350 495 313 496 L 171 496 L 171 496 Q 139 496 112 480 L 94 470 L 94 470 Q 65 453 49 426 Q 33 398 33 366 L 33 316 L 33 316 L 89 268 L 89 268 L 89 344 L 89 344 L 89 352 L 89 352 L 105 352 L 105 352 L 105 344 L 105 344 L 105 255 L 105 255 L 105 251 L 105 251 L 105 240 L 105 240 L 105 232 L 105 232 L 105 160 L 105 160 L 177 160 L 177 160 Z" />
</svg>