<svg xmlns="http://www.w3.org/2000/svg" viewBox="0 0 512 512">
  <path d="M 496 144 L 16 144 L 496 144 L 16 144 L 16 496 L 16 496 L 496 496 L 496 496 L 496 144 L 496 144 Z M 512 128 L 512 144 L 512 128 L 512 144 L 512 496 L 512 496 L 512 512 L 512 512 L 496 512 L 0 512 L 0 496 L 0 496 L 0 144 L 0 144 L 0 128 L 0 128 L 16 128 L 512 128 Z M 464 64 L 464 80 L 464 64 L 464 80 L 48 80 L 48 80 L 48 64 L 48 64 L 464 64 L 464 64 Z M 416 0 L 416 16 L 416 0 L 416 16 L 96 16 L 96 16 L 96 0 L 96 0 L 416 0 L 416 0 Z" />
</svg>