<svg xmlns="http://www.w3.org/2000/svg" viewBox="0 0 639 512">
  <path d="M 448 288 Q 440 288 432 287 L 432 368 L 432 368 L 328 368 L 328 368 L 328 234 L 328 234 Q 319 224 312 212 L 312 368 L 312 368 L 200 368 L 200 368 L 200 200 L 200 200 L 200 192 L 200 192 L 184 192 L 184 192 L 184 200 L 184 200 L 184 368 L 184 368 L 80 368 L 80 368 L 80 200 L 80 200 L 80 192 L 80 192 L 64 192 L 64 192 L 64 200 L 64 200 L 64 376 L 64 376 L 64 384 L 64 384 L 72 384 L 448 384 L 448 376 L 448 376 L 448 288 L 448 288 Z M 16 160 L 291 160 L 16 160 L 291 160 Q 290 152 289 144 L 16 144 L 16 144 L 16 123 L 16 123 L 256 18 L 256 18 L 313 42 L 313 42 Q 317 35 322 29 L 256 0 L 256 0 L 0 112 L 0 112 L 0 144 L 0 144 L 0 160 L 0 160 L 16 160 L 16 160 Z M 40 432 L 32 432 L 40 432 L 32 432 L 32 448 L 32 448 L 40 448 L 480 448 L 480 432 L 480 432 L 472 432 L 40 432 Z M 8 496 L 0 496 L 8 496 L 0 496 L 0 512 L 0 512 L 8 512 L 512 512 L 512 496 L 512 496 L 504 496 L 8 496 Z M 448 16 Q 478 16 504 31 L 504 31 L 504 31 Q 530 46 545 72 Q 560 99 560 128 Q 560 158 545 184 Q 530 210 504 225 Q 478 240 448 240 Q 418 240 392 225 Q 366 210 351 184 Q 336 158 336 128 Q 336 99 351 72 Q 366 46 392 31 Q 418 16 448 16 L 448 16 Z M 448 256 Q 498 255 533 224 L 622 314 L 622 314 L 628 319 L 628 319 L 639 308 L 639 308 L 634 302 L 634 302 L 544 213 L 544 213 Q 575 178 576 128 Q 575 74 539 38 Q 502 1 448 0 Q 394 1 357 38 Q 321 74 320 128 Q 321 182 357 219 Q 394 255 448 256 L 448 256 Z" />
</svg>