<svg xmlns="http://www.w3.org/2000/svg" viewBox="0 0 512 512">
  <path d="M 264 0 L 264 8 L 264 0 L 264 8 L 264 248 L 264 248 L 504 248 L 512 248 L 512 264 L 512 264 L 504 264 L 264 264 L 264 504 L 264 504 L 264 512 L 264 512 L 248 512 L 248 512 L 248 504 L 248 504 L 248 264 L 248 264 L 8 264 L 0 264 L 0 248 L 0 248 L 8 248 L 248 248 L 248 8 L 248 8 L 248 0 L 248 0 L 264 0 L 264 0 Z M 408 48 L 408 56 L 408 48 L 408 56 L 408 104 L 408 104 L 456 104 L 480 104 L 480 120 L 480 120 L 472 120 L 408 120 L 408 168 L 408 168 L 408 176 L 408 176 L 408 184 L 408 184 L 408 192 L 408 192 L 392 192 L 392 192 L 392 184 L 392 184 L 392 176 L 392 176 L 392 168 L 392 168 L 392 120 L 392 120 L 344 120 L 320 120 L 320 104 L 320 104 L 328 104 L 392 104 L 392 56 L 392 56 L 392 48 L 392 48 L 392 40 L 392 40 L 392 32 L 392 32 L 408 32 L 408 32 L 408 40 L 408 40 L 408 48 L 408 48 Z M 56 333 L 62 339 L 56 333 L 62 339 L 112 389 L 112 389 L 162 339 L 162 339 L 168 333 L 168 333 L 179 344 L 179 344 L 173 350 L 173 350 L 123 400 L 123 400 L 173 450 L 173 450 L 179 456 L 179 456 L 168 467 L 168 467 L 162 461 L 162 461 L 112 411 L 112 411 L 62 461 L 62 461 L 56 467 L 56 467 L 45 456 L 45 456 L 51 450 L 51 450 L 101 400 L 101 400 L 51 350 L 51 350 L 45 344 L 45 344 L 56 333 L 56 333 Z M 40 104 L 184 104 L 40 104 L 192 104 L 192 120 L 192 120 L 184 120 L 32 120 L 32 104 L 32 104 L 40 104 L 40 104 Z M 328 360 L 472 360 L 328 360 L 480 360 L 480 376 L 480 376 L 472 376 L 320 376 L 320 360 L 320 360 L 328 360 L 328 360 Z M 328 424 L 472 424 L 328 424 L 480 424 L 480 440 L 480 440 L 472 440 L 320 440 L 320 424 L 320 424 L 328 424 L 328 424 Z" />
</svg>