<svg xmlns="http://www.w3.org/2000/svg" viewBox="0 0 371 512">
  <path d="M 104 0 L 216 0 L 104 0 L 224 0 L 224 8 L 224 8 L 224 56 L 224 56 L 304 56 L 307 56 L 310 58 L 310 58 L 366 114 L 366 114 L 371 120 L 371 120 L 360 131 L 360 131 L 354 126 L 354 126 L 301 72 L 301 72 L 224 72 L 224 72 L 224 128 L 224 128 L 208 128 L 208 128 L 208 16 L 208 16 L 112 16 L 112 16 L 112 128 L 112 128 L 96 128 L 96 128 L 96 8 L 96 8 L 96 0 L 96 0 L 104 0 L 104 0 Z M 16 512 L 0 512 L 16 512 L 0 512 L 1 496 L 1 496 L 24 160 L 24 160 L 296 160 L 296 160 L 319 496 L 319 496 L 320 512 L 320 512 L 304 512 L 16 512 Z M 303 496 L 281 176 L 303 496 L 281 176 L 39 176 L 39 176 L 17 496 L 17 496 L 303 496 L 303 496 Z M 136 256 L 184 256 L 136 256 L 192 256 L 192 264 L 192 264 L 192 304 L 192 304 L 232 304 L 240 304 L 240 312 L 240 312 L 240 360 L 240 360 L 240 368 L 240 368 L 232 368 L 192 368 L 192 408 L 192 408 L 192 416 L 192 416 L 184 416 L 128 416 L 128 408 L 128 408 L 128 368 L 128 368 L 88 368 L 80 368 L 80 360 L 80 360 L 80 312 L 80 312 L 80 304 L 80 304 L 88 304 L 128 304 L 128 264 L 128 264 L 128 256 L 128 256 L 136 256 L 136 256 Z M 144 312 L 144 320 L 144 312 L 144 320 L 136 320 L 96 320 L 96 352 L 96 352 L 136 352 L 144 352 L 144 360 L 144 360 L 144 400 L 144 400 L 176 400 L 176 400 L 176 360 L 176 360 L 176 352 L 176 352 L 184 352 L 224 352 L 224 320 L 224 320 L 184 320 L 176 320 L 176 312 L 176 312 L 176 272 L 176 272 L 144 272 L 144 272 L 144 312 L 144 312 Z" />
</svg>