<svg xmlns="http://www.w3.org/2000/svg" viewBox="0 0 513 513">
  <path d="M 210 303 Q 186 280 154 274 Q 180 174 224 120 Q 268 65 318 43 Q 366 21 411 19 Q 456 16 489 24 Q 497 57 494 102 Q 492 147 470 195 Q 448 245 393 289 Q 338 333 238 359 Q 233 327 210 303 L 210 303 Z M 240 377 L 240 375 L 240 377 L 240 375 Q 317 356 368 326 L 368 420 L 368 420 L 240 484 L 240 484 L 240 377 L 240 377 Z M 384 425 L 384 316 L 384 425 L 384 316 Q 452 269 480 211 Q 508 154 510 100 Q 513 46 503 10 Q 467 0 413 3 Q 359 5 302 33 Q 244 61 197 129 L 88 129 L 83 129 L 81 133 L 81 133 L 9 277 L 9 277 L 3 289 L 3 289 L 16 289 L 136 289 Q 172 289 198 315 Q 223 341 224 377 L 224 497 L 224 497 L 224 510 L 224 510 L 236 504 L 236 504 L 380 432 L 380 432 L 384 430 L 384 430 L 384 425 L 384 425 Z M 138 273 L 137 273 L 138 273 L 29 273 L 93 145 L 93 145 L 187 145 L 187 145 Q 157 196 138 273 L 138 273 Z M 155 460 Q 139 475 114 483 L 114 483 L 114 483 Q 90 491 63 494 Q 37 497 20 497 Q 18 497 16 497 Q 16 495 16 494 Q 16 476 19 450 Q 22 423 30 399 Q 38 374 53 358 Q 76 337 104 337 Q 133 337 155 358 Q 176 380 176 409 Q 176 438 155 460 L 155 460 Z M 167 471 Q 192 444 192 409 L 192 409 L 192 409 Q 192 374 167 347 Q 139 321 104 321 Q 69 321 42 347 Q 18 373 9 412 Q 1 450 0 480 Q 0 511 1 513 Q 2 513 33 513 Q 63 512 101 504 Q 140 495 167 471 L 167 471 Z M 408 145 Q 407 168 388 180 Q 368 190 348 180 Q 329 168 328 145 Q 329 122 348 110 Q 368 100 388 110 Q 407 122 408 145 L 408 145 Z M 368 89 Q 336 90 320 117 Q 304 145 320 173 Q 336 200 368 201 Q 400 200 416 173 Q 432 145 416 117 Q 400 90 368 89 L 368 89 Z" />
</svg>