<svg xmlns="http://www.w3.org/2000/svg" viewBox="0 0 640 512">
  <path d="M 528 512 L 508 496 L 528 512 L 508 496 L 118 496 L 118 496 L 172 320 L 172 320 L 285 320 L 285 320 L 265 304 L 265 304 L 160 304 L 160 304 L 101 496 L 101 496 L 96 512 L 96 512 L 113 512 L 528 512 Z M 448 128 Q 447 74 411 37 L 411 37 L 411 37 Q 374 1 320 0 Q 281 1 251 20 Q 220 40 204 73 L 217 83 L 217 83 Q 231 53 258 35 Q 285 16 320 16 Q 368 17 399 49 Q 431 80 432 128 Q 430 185 387 218 L 400 228 L 400 228 Q 446 190 448 128 L 448 128 Z M 16 5 L 10 0 L 16 5 L 10 0 L 0 13 L 0 13 L 6 18 L 6 18 L 624 507 L 624 507 L 630 512 L 630 512 L 640 500 L 640 500 L 634 495 L 634 495 L 16 5 L 16 5 Z" />
</svg>