<svg xmlns="http://www.w3.org/2000/svg" viewBox="0 0 569 498">
  <path d="M 142 0 L 149 1 L 142 0 L 149 1 L 284 27 L 284 27 L 420 1 L 420 1 L 427 0 L 427 0 L 429 6 L 429 6 L 480 142 L 480 142 L 565 244 L 565 244 L 569 249 L 569 249 L 565 254 L 565 254 L 480 356 L 480 356 L 429 492 L 429 492 L 427 498 L 427 498 L 420 497 L 420 497 L 284 471 L 284 471 L 149 497 L 149 497 L 142 498 L 142 498 L 140 492 L 140 492 L 89 356 L 89 356 L 4 254 L 4 254 L 0 249 L 0 249 L 4 244 L 4 244 L 89 142 L 89 142 L 140 6 L 140 6 L 142 0 L 142 0 Z M 148 29 L 103 149 L 148 29 L 103 149 L 103 150 L 103 150 L 102 151 L 102 151 L 27 241 L 27 241 L 118 241 L 118 241 L 166 187 L 166 187 L 193 108 L 193 108 L 148 29 L 148 29 Z M 161 20 L 206 98 L 161 20 L 206 98 L 284 120 L 284 120 L 360 98 L 360 98 L 405 20 L 405 20 L 286 43 L 286 43 L 284 43 L 283 43 L 161 20 L 161 20 Z M 420 27 L 374 107 L 420 27 L 374 107 L 402 187 L 402 187 L 449 241 L 449 241 L 542 241 L 542 241 L 467 151 L 467 151 L 466 150 L 466 150 L 465 149 L 465 149 L 420 27 L 420 27 Z M 542 257 L 449 257 L 542 257 L 449 257 L 402 311 L 402 311 L 374 393 L 374 393 L 419 472 L 419 472 L 465 349 L 465 349 L 466 348 L 466 348 L 467 347 L 467 347 L 542 257 L 542 257 Z M 405 478 L 362 404 L 405 478 L 362 404 L 362 404 L 362 404 L 284 378 L 284 378 L 206 400 L 206 400 L 161 478 L 161 478 L 283 455 L 283 455 L 284 455 L 286 455 L 405 478 L 405 478 Z M 148 469 L 193 390 L 148 469 L 193 390 L 166 311 L 166 311 L 119 257 L 119 257 L 27 257 L 27 257 L 102 347 L 102 347 L 103 348 L 103 348 L 103 349 L 103 349 L 148 469 L 148 469 Z M 140 257 L 179 301 L 140 257 L 179 301 L 180 303 L 180 303 L 180 304 L 180 304 L 204 372 L 204 372 L 269 257 L 269 257 L 140 257 L 140 257 Z M 218 380 L 282 362 L 218 380 L 282 362 L 284 361 L 284 361 L 286 362 L 286 362 L 351 383 L 351 383 L 283 265 L 283 265 L 217 380 L 218 380 Z M 364 374 L 387 304 L 364 374 L 387 304 L 388 303 L 388 303 L 389 301 L 389 301 L 428 257 L 428 257 L 297 257 L 297 257 L 364 374 L 364 374 Z M 428 241 L 389 196 L 428 241 L 389 196 L 388 195 L 388 195 L 388 194 L 388 194 L 363 125 L 363 125 L 297 241 L 297 241 L 428 241 L 428 241 Z M 349 118 L 286 136 L 349 118 L 286 136 L 284 137 L 284 137 L 282 136 L 282 136 L 217 118 L 217 118 L 283 233 L 283 233 L 349 118 L 349 118 Z M 204 126 L 180 194 L 204 126 L 180 194 L 180 195 L 180 195 L 179 196 L 179 196 L 140 241 L 140 241 L 269 241 L 269 241 L 204 126 L 204 126 Z" />
</svg>