<svg xmlns="http://www.w3.org/2000/svg" viewBox="0 0 320 448">
  <path d="M 16 432 L 16 336 L 16 432 L 16 336 L 112 336 L 112 336 L 112 432 L 112 432 L 16 432 L 16 432 Z M 0 448 L 16 448 L 0 448 L 128 448 L 128 432 L 128 432 L 128 336 L 128 336 L 128 320 L 128 320 L 112 320 L 0 320 L 0 336 L 0 336 L 0 432 L 0 432 L 0 448 L 0 448 Z M 208 432 L 208 336 L 208 432 L 208 336 L 304 336 L 304 336 L 304 432 L 304 432 L 208 432 L 208 432 Z M 192 448 L 208 448 L 192 448 L 320 448 L 320 432 L 320 432 L 320 336 L 320 336 L 320 320 L 320 320 L 304 320 L 192 320 L 192 336 L 192 336 L 192 432 L 192 432 L 192 448 L 192 448 Z M 16 176 L 112 176 L 16 176 L 112 176 L 112 272 L 112 272 L 16 272 L 16 272 L 16 176 L 16 176 Z M 0 272 L 0 288 L 0 272 L 0 288 L 16 288 L 128 288 L 128 272 L 128 272 L 128 176 L 128 176 L 128 160 L 128 160 L 112 160 L 0 160 L 0 176 L 0 176 L 0 272 L 0 272 Z M 208 272 L 208 176 L 208 272 L 208 176 L 304 176 L 304 176 L 304 272 L 304 272 L 208 272 L 208 272 Z M 192 288 L 208 288 L 192 288 L 320 288 L 320 272 L 320 272 L 320 176 L 320 176 L 320 160 L 320 160 L 304 160 L 192 160 L 192 176 L 192 176 L 192 272 L 192 272 L 192 288 L 192 288 Z M 16 16 L 112 16 L 16 16 L 112 16 L 112 112 L 112 112 L 16 112 L 16 112 L 16 16 L 16 16 Z M 0 112 L 0 128 L 0 112 L 0 128 L 16 128 L 128 128 L 128 112 L 128 112 L 128 16 L 128 16 L 128 0 L 128 0 L 112 0 L 0 0 L 0 16 L 0 16 L 0 112 L 0 112 Z M 208 112 L 208 16 L 208 112 L 208 16 L 304 16 L 304 16 L 304 112 L 304 112 L 208 112 L 208 112 Z M 192 128 L 208 128 L 192 128 L 320 128 L 320 112 L 320 112 L 320 16 L 320 16 L 320 0 L 320 0 L 304 0 L 192 0 L 192 16 L 192 16 L 192 112 L 192 112 L 192 128 L 192 128 Z" />
</svg>