<svg xmlns="http://www.w3.org/2000/svg" viewBox="0 0 384 512">
  <path d="M 56 0 L 48 0 L 56 0 L 48 0 L 48 8 L 48 8 L 48 256 L 48 256 L 8 256 L 0 256 L 0 264 L 0 264 L 0 360 L 0 360 Q 2 425 45 467 Q 87 510 152 512 L 232 512 L 232 512 Q 297 510 339 467 Q 382 425 384 360 L 384 352 L 384 352 L 384 344 L 384 344 L 384 280 L 384 280 L 384 72 L 384 72 L 384 64 L 384 64 L 376 64 L 288 64 L 288 72 L 288 72 L 288 184 L 288 184 L 224 184 L 224 184 L 224 160 L 224 160 L 224 152 L 224 152 L 216 152 L 144 152 L 144 8 L 144 8 L 144 0 L 144 0 L 136 0 L 56 0 Z M 144 168 L 208 168 L 144 168 L 208 168 L 208 184 L 208 184 L 208 192 L 208 192 L 208 256 L 208 256 L 144 256 L 144 256 L 144 168 L 144 168 Z M 208 272 Q 208 272 208 272 L 208 272 L 208 272 Q 208 272 208 272 L 208 336 L 208 336 L 104 336 L 96 336 L 96 352 L 96 352 L 104 352 L 304 352 L 304 344 L 304 344 L 304 280 L 304 280 L 304 272 L 304 272 L 304 192 L 304 192 L 304 184 L 304 184 L 304 80 L 304 80 L 368 80 L 368 80 L 368 280 L 368 280 L 368 344 L 368 344 L 368 352 L 368 352 L 368 360 L 368 360 Q 367 418 328 456 Q 290 495 232 496 L 152 496 L 152 496 Q 94 495 56 456 Q 17 418 16 360 L 16 272 L 16 272 L 48 272 L 48 272 Q 48 272 48 272 Q 48 272 48 272 L 64 272 L 64 272 Q 64 272 64 272 Q 64 272 64 272 L 128 272 L 128 272 Q 128 272 128 272 Q 128 272 128 272 L 144 272 L 144 272 Q 144 272 144 272 Q 144 272 144 272 L 208 272 L 208 272 Z M 224 272 L 224 264 L 224 272 L 224 264 L 224 256 L 224 256 L 224 200 L 224 200 L 288 200 L 288 200 L 288 272 L 288 272 L 288 280 L 288 280 L 288 336 L 288 336 L 224 336 L 224 336 L 224 272 L 224 272 Z M 128 256 L 64 256 L 128 256 L 64 256 L 64 16 L 64 16 L 128 16 L 128 16 L 128 152 L 128 152 L 128 160 L 128 160 L 128 256 L 128 256 Z" />
</svg>