<svg xmlns="http://www.w3.org/2000/svg" viewBox="0 0 448 448">
  <path d="M 175 16 Q 157 16 145 29 L 145 29 L 145 29 Q 133 41 132 59 Q 132 72 138 85 L 183 172 L 183 172 L 194 194 L 194 194 L 172 183 L 172 183 L 85 138 L 85 138 Q 73 132 59 132 Q 41 133 29 145 Q 16 157 16 175 L 16 187 L 16 187 L 47 218 L 47 218 L 53 224 L 53 224 L 47 230 L 47 230 L 16 261 L 16 261 L 16 273 L 16 273 Q 16 291 29 303 Q 41 315 59 316 Q 72 316 85 310 L 172 265 L 172 265 L 194 254 L 194 254 L 183 275 L 183 275 L 138 363 L 138 363 Q 132 375 132 389 Q 133 407 145 419 Q 157 431 175 432 L 187 432 L 187 432 L 218 401 L 218 401 L 224 395 L 224 395 L 230 401 L 230 401 L 261 432 L 261 432 L 273 432 L 273 432 Q 291 432 303 419 Q 315 407 316 389 Q 316 376 310 364 L 265 276 L 265 276 L 254 254 L 254 254 L 276 265 L 276 265 L 363 310 L 363 310 Q 375 316 389 316 Q 407 315 419 303 Q 431 291 432 273 L 432 261 L 432 261 L 401 230 L 401 230 L 395 224 L 395 224 L 401 218 L 401 218 L 432 188 L 432 188 L 432 175 L 432 175 Q 432 157 419 145 Q 407 133 389 132 Q 376 132 364 139 L 277 183 L 277 183 L 255 194 L 255 194 L 266 173 L 266 173 L 310 85 L 310 85 Q 316 73 316 60 Q 315 41 303 29 Q 291 17 272 16 L 261 16 L 261 16 L 230 47 L 230 47 L 224 53 L 224 53 L 218 47 L 218 47 L 188 16 L 188 16 L 176 16 L 175 16 Z M 332 59 Q 332 76 324 92 L 291 158 L 291 158 L 356 124 L 356 124 Q 372 116 389 116 Q 414 117 431 134 Q 447 150 448 175 L 448 191 L 448 191 L 448 194 L 448 194 L 446 196 L 446 196 L 418 224 L 418 224 L 446 252 L 446 252 L 448 254 L 448 254 L 448 257 L 448 257 L 448 272 L 448 272 Q 447 298 431 314 Q 414 331 389 332 Q 372 332 356 324 L 290 290 L 290 290 L 324 356 L 324 356 Q 332 372 332 389 Q 331 414 314 431 Q 298 447 273 448 L 257 448 L 254 448 L 252 446 L 252 446 L 224 418 L 224 418 L 196 446 L 196 446 L 194 448 L 194 448 L 191 448 L 175 448 Q 150 447 134 431 Q 117 414 116 389 Q 116 372 124 356 L 158 290 L 158 290 L 92 324 L 92 324 Q 76 332 59 332 Q 34 331 17 314 Q 1 298 0 273 L 0 257 L 0 257 L 0 254 L 0 254 L 2 252 L 2 252 L 30 224 L 30 224 L 2 196 L 2 196 L 0 194 L 0 194 L 0 191 L 0 191 L 0 176 L 0 176 Q 1 150 17 134 Q 34 117 59 116 Q 76 116 92 124 L 158 158 L 158 158 L 124 92 L 124 92 Q 116 76 116 59 Q 117 34 134 17 Q 150 1 175 0 L 191 0 L 194 0 L 196 2 L 196 2 L 224 30 L 224 30 L 252 2 L 252 2 L 254 0 L 254 0 L 257 0 L 272 0 Q 298 1 314 17 Q 331 34 332 59 L 332 59 Z" />
</svg>