<svg xmlns="http://www.w3.org/2000/svg" viewBox="0 0 584 464">
  <path d="M 161 464 L 0 312 L 161 464 L 0 312 L 161 160 L 161 160 L 212 160 L 212 160 L 212 224 L 212 224 L 388 224 L 388 224 L 388 288 L 388 288 L 417 288 L 417 288 L 560 152 L 560 152 L 417 16 L 417 16 L 388 16 L 388 16 L 388 80 L 388 80 L 228 80 L 228 80 L 228 64 L 228 64 L 372 64 L 372 64 L 372 0 L 372 0 L 423 0 L 423 0 L 584 152 L 584 152 L 423 304 L 423 304 L 372 304 L 372 304 L 372 240 L 372 240 L 196 240 L 196 240 L 196 176 L 196 176 L 167 176 L 167 176 L 24 312 L 24 312 L 167 448 L 167 448 L 196 448 L 196 448 L 196 384 L 196 384 L 356 384 L 356 384 L 356 400 L 356 400 L 212 400 L 212 400 L 212 464 L 212 464 L 161 464 L 161 464 Z" />
</svg>