<svg xmlns="http://www.w3.org/2000/svg" viewBox="0 0 384 512">
  <path d="M 16 496 L 16 16 L 16 496 L 16 16 L 208 16 L 208 16 L 208 168 L 208 168 L 208 176 L 208 176 L 216 176 L 368 176 L 368 496 L 368 496 L 16 496 L 16 496 Z M 224 23 L 361 160 L 224 23 L 361 160 L 224 160 L 224 160 L 224 23 L 224 23 Z M 224 0 L 16 0 L 224 0 L 0 0 L 0 16 L 0 16 L 0 496 L 0 496 L 0 512 L 0 512 L 16 512 L 384 512 L 384 496 L 384 496 L 384 160 L 384 160 L 224 0 L 224 0 Z M 64 64 L 64 80 L 64 64 L 64 80 L 72 80 L 176 80 L 176 64 L 176 64 L 168 64 L 64 64 Z M 64 128 L 64 144 L 64 128 L 64 144 L 72 144 L 176 144 L 176 128 L 176 128 L 168 128 L 64 128 Z M 200 243 L 184 243 L 200 243 L 184 243 L 184 251 L 184 251 L 184 264 L 184 264 Q 171 265 161 269 Q 142 277 137 296 Q 135 307 139 316 Q 144 325 153 329 Q 169 338 188 342 Q 188 342 189 342 L 190 343 L 190 343 Q 211 347 223 355 Q 229 358 231 362 Q 233 366 232 373 Q 230 383 217 389 Q 203 394 181 391 Q 168 389 152 383 Q 152 383 152 383 Q 152 383 152 383 Q 150 383 148 382 Q 147 382 146 382 L 139 379 L 139 379 L 134 395 L 134 395 L 142 397 L 142 397 Q 144 398 147 398 Q 147 398 147 398 Q 147 398 147 398 Q 147 398 147 398 Q 147 398 147 398 Q 147 398 147 398 Q 163 404 179 407 Q 179 407 179 407 Q 180 407 181 407 Q 182 407 184 407 L 184 421 L 184 421 L 184 429 L 184 429 L 200 429 L 200 429 L 200 421 L 200 421 L 200 408 L 200 408 Q 212 407 222 403 Q 242 396 247 376 Q 250 365 245 355 Q 240 346 232 341 Q 215 332 194 327 L 194 327 L 194 327 Q 194 327 194 327 Q 173 322 161 315 Q 155 312 153 308 Q 151 305 152 299 Q 154 290 167 284 Q 181 278 203 281 Q 207 281 215 283 Q 222 284 226 285 L 230 269 L 230 269 Q 225 268 217 267 Q 210 266 205 265 Q 204 265 203 265 Q 202 265 200 264 L 200 250 L 200 250 L 200 242 L 200 243 Z" />
</svg>