<svg xmlns="http://www.w3.org/2000/svg" viewBox="0 0 512 512">
  <path d="M 16 0 L 16 8 L 16 0 L 16 8 L 16 128 L 16 128 L 96 128 L 96 128 L 96 64 L 96 64 L 96 48 L 96 48 L 112 51 L 112 51 L 512 128 L 512 128 L 512 288 L 512 288 L 112 365 L 112 365 L 96 368 L 96 368 L 96 352 L 96 352 L 96 288 L 96 288 L 16 288 L 16 288 L 16 504 L 16 504 L 16 512 L 16 512 L 0 512 L 0 512 L 0 504 L 0 504 L 0 280 L 0 280 L 0 136 L 0 136 L 0 8 L 0 8 L 0 0 L 0 0 L 16 0 L 16 0 Z M 16 144 L 16 272 L 16 144 L 16 272 L 96 272 L 96 272 L 96 144 L 96 144 L 16 144 L 16 144 Z M 112 67 L 112 349 L 112 67 L 112 349 L 216 329 L 216 329 L 216 87 L 216 87 L 112 67 L 112 67 Z M 232 90 L 232 326 L 232 90 L 232 326 L 376 298 L 376 298 L 376 118 L 376 118 L 232 90 L 232 90 Z M 392 121 L 392 295 L 392 121 L 392 295 L 496 275 L 496 275 L 496 141 L 496 141 L 392 121 L 392 121 Z" />
</svg>