<svg xmlns="http://www.w3.org/2000/svg" viewBox="0 0 448 512">
  <path d="M 224 16 Q 272 17 303 49 L 303 49 L 303 49 Q 335 80 336 128 L 336 192 L 336 192 L 112 192 L 112 192 L 112 128 L 112 128 Q 113 80 145 49 Q 176 17 224 16 L 224 16 Z M 96 128 L 96 192 L 96 128 L 96 192 L 16 192 L 0 192 L 0 208 L 0 208 L 0 496 L 0 496 L 0 512 L 0 512 L 16 512 L 448 512 L 448 496 L 448 496 L 448 208 L 448 208 L 448 192 L 448 192 L 432 192 L 352 192 L 352 128 L 352 128 Q 351 74 315 37 Q 278 1 224 0 Q 170 1 133 37 Q 97 74 96 128 L 96 128 Z M 16 208 L 96 208 L 16 208 L 432 208 L 432 496 L 432 496 L 16 496 L 16 496 L 16 208 L 16 208 Z M 208 400 L 208 304 L 208 400 L 208 304 L 240 304 L 240 304 L 240 400 L 240 400 L 208 400 L 208 400 Z M 192 288 L 192 304 L 192 288 L 192 304 L 192 400 L 192 400 L 192 416 L 192 416 L 208 416 L 256 416 L 256 400 L 256 400 L 256 304 L 256 304 L 256 288 L 256 288 L 240 288 L 192 288 Z" />
</svg>