<svg xmlns="http://www.w3.org/2000/svg" viewBox="0 0 485 485">
  <path d="M 334 83 Q 335 54 354 35 L 354 35 L 354 35 Q 373 16 402 15 Q 431 16 450 35 Q 469 54 470 83 Q 470 106 457 124 L 452 130 L 452 130 L 464 139 L 464 139 L 469 133 L 469 133 Q 485 111 485 83 Q 484 48 461 24 Q 437 1 402 0 Q 367 1 344 24 Q 320 48 319 83 Q 320 114 339 136 L 299 175 L 299 175 L 252 128 L 252 128 L 232 109 L 232 109 L 222 98 L 222 98 L 211 109 L 211 109 L 142 178 L 142 178 L 131 188 L 131 188 L 142 199 L 142 199 L 161 218 L 161 218 L 267 324 L 267 324 L 286 343 L 286 343 L 297 354 L 297 354 L 307 343 L 307 343 L 376 274 L 376 274 L 387 264 L 387 264 L 376 253 L 376 253 L 357 233 L 357 233 L 310 186 L 310 186 L 354 141 L 354 141 L 360 136 L 360 136 L 354 131 L 354 131 Q 335 112 334 83 L 334 83 Z M 99 397 L 146 444 L 99 397 L 146 444 L 166 464 L 166 464 L 176 474 L 176 474 L 187 464 L 187 464 L 264 387 L 264 387 L 274 376 L 274 376 L 264 366 L 264 366 L 244 346 L 244 346 L 139 241 L 139 241 L 119 221 L 119 221 L 109 211 L 109 211 L 98 221 L 98 221 L 21 298 L 21 298 L 11 309 L 11 309 L 21 319 L 21 319 L 41 339 L 41 339 L 88 386 L 88 386 L 5 469 L 5 469 L 0 474 L 0 474 L 11 485 L 11 485 L 16 480 L 16 480 L 99 397 L 99 397 Z M 172 208 L 152 188 L 172 208 L 152 188 L 222 119 L 222 119 L 241 139 L 241 139 L 346 244 L 346 244 L 366 264 L 366 264 L 297 333 L 297 333 L 277 313 L 277 313 L 172 208 L 172 208 Z M 51 328 L 32 309 L 51 328 L 32 309 L 109 232 L 109 232 L 128 252 L 128 252 L 233 357 L 233 357 L 253 377 L 253 377 L 176 453 L 176 453 L 157 434 L 157 434 L 51 328 L 51 328 Z" />
</svg>