<svg xmlns="http://www.w3.org/2000/svg" viewBox="0 0 512 512">
  <path d="M 255.54204 21.982111 L 270.19678 33.889088 L 512 239.05545 L 482.69052 272.02863 L 460.7084 253.71019 L 460.7084 468.03577 L 460.7084 490.01788 L 438.7263 490.01788 L 72.35778 490.01788 L 50.37567 490.01788 L 50.37567 468.03577 L 50.37567 253.71019 L 28.39356 272.02863 L 0 239.05545 L 241.80322 33.889088 L 255.54204 21.982111 L 255.54204 21.982111 Z M 94.33989 216.15742 L 94.33989 446.05368 L 416.74417 446.05368 L 416.74417 216.15742 L 255.54204 79.68515 L 94.33989 216.15742 L 94.33989 216.15742 Z M 196.92308 226.23256 Q 197.839 193.25938 226.23256 175.85689 Q 255.54204 159.3703 284.85153 175.85689 Q 313.2451 193.25938 314.161 226.23256 Q 313.2451 259.20572 284.85153 276.60822 Q 255.54204 293.09482 226.23256 276.60822 Q 197.839 259.20572 196.92308 226.23256 L 196.92308 226.23256 Z M 328.81573 314.161 L 358.1252 402.08945 L 152.95886 402.08945 L 182.26834 314.161 L 328.81573 314.161 L 328.81573 314.161 Z" />
</svg>