<svg xmlns="http://www.w3.org/2000/svg" viewBox="0 0 512 512">
  <path d="M 416 176 Q 415 121 384 80 Q 378 72 371 64 L 370 64 L 370 64 Q 325 18 256 16 Q 187 18 142 64 Q 135 71 129 79 L 128 80 L 128 80 Q 97 121 96 176 Q 98 244 143 289 Q 188 334 256 336 Q 324 334 369 289 Q 414 244 416 176 L 416 176 Z M 404 80 Q 431 122 432 176 Q 430 251 380 300 Q 331 350 256 352 Q 181 350 132 300 Q 82 251 80 176 Q 81 122 109 80 L 16 80 L 16 80 L 16 496 L 16 496 L 496 496 L 496 496 L 496 80 L 496 80 L 404 80 L 404 80 Z M 120 64 Q 145 34 180 17 L 180 17 L 180 17 Q 215 0 256 0 Q 297 0 332 17 Q 367 34 392 64 L 496 64 L 512 64 L 512 80 L 512 80 L 512 496 L 512 496 L 512 512 L 512 512 L 496 512 L 0 512 L 0 496 L 0 496 L 0 80 L 0 80 L 0 64 L 0 64 L 16 64 L 120 64 Z M 304 224 Q 303 244 290 258 L 290 258 L 290 258 Q 276 271 256 272 Q 236 271 222 258 Q 209 244 208 224 Q 209 204 222 190 Q 236 177 256 176 Q 263 176 269 178 L 305 101 L 305 101 L 308 93 L 308 93 L 323 100 L 323 100 L 319 107 L 319 107 L 283 185 L 283 185 Q 303 198 304 224 L 304 224 Z M 256 256 Q 270 256 279 247 L 279 247 L 279 247 Q 288 238 288 224 Q 288 210 279 201 Q 270 192 256 192 Q 242 192 233 201 Q 224 210 224 224 Q 224 238 233 247 Q 242 256 256 256 L 256 256 Z" />
</svg>