<svg xmlns="http://www.w3.org/2000/svg" viewBox="0 0 448 512">
  <path d="M 0 56 Q 1 32 16 16 L 16 16 L 16 16 Q 32 1 56 0 L 440 0 L 448 0 L 448 8 L 448 8 L 448 408 L 448 408 L 448 416 L 448 416 L 440 416 L 416 416 L 416 496 L 416 496 L 440 496 L 448 496 L 448 512 L 448 512 L 440 512 L 56 512 Q 32 511 16 496 Q 1 480 0 456 L 0 56 L 0 56 Z M 56 416 Q 39 416 28 428 L 28 428 L 28 428 Q 16 439 16 456 Q 16 473 28 484 Q 39 496 56 496 L 400 496 L 400 496 L 400 416 L 400 416 L 56 416 L 56 416 Z M 16 417 Q 32 401 56 400 L 432 400 L 432 400 L 432 16 L 432 16 L 56 16 L 56 16 Q 39 16 28 28 Q 16 39 16 56 L 16 417 L 16 417 Z M 200 96 L 264 96 L 200 96 L 272 96 L 272 104 L 272 104 L 272 168 L 272 168 L 336 168 L 344 168 L 344 176 L 344 176 L 344 240 L 344 240 L 344 248 L 344 248 L 336 248 L 272 248 L 272 312 L 272 312 L 272 320 L 272 320 L 264 320 L 192 320 L 192 312 L 192 312 L 192 248 L 192 248 L 128 248 L 120 248 L 120 240 L 120 240 L 120 176 L 120 176 L 120 168 L 120 168 L 128 168 L 192 168 L 192 104 L 192 104 L 192 96 L 192 96 L 200 96 L 200 96 Z M 208 176 L 208 184 L 208 176 L 208 184 L 200 184 L 136 184 L 136 232 L 136 232 L 200 232 L 208 232 L 208 240 L 208 240 L 208 304 L 208 304 L 256 304 L 256 304 L 256 240 L 256 240 L 256 232 L 256 232 L 264 232 L 328 232 L 328 184 L 328 184 L 264 184 L 256 184 L 256 176 L 256 176 L 256 112 L 256 112 L 208 112 L 208 112 L 208 176 L 208 176 Z" />
</svg>