<svg xmlns="http://www.w3.org/2000/svg" viewBox="0 0 510 512">
  <path d="M 73 262 L 80 257 L 73 262 L 80 257 L 80 248 L 80 248 L 80 16 L 80 16 L 208 16 L 208 16 L 208 248 L 208 248 L 208 257 L 208 257 L 215 262 L 215 262 Q 241 279 256 307 Q 272 334 272 368 Q 271 422 235 459 Q 198 495 144 496 Q 90 495 53 459 Q 17 422 16 368 Q 16 334 32 307 Q 47 279 73 262 L 73 262 Z M 224 0 L 208 0 L 224 0 L 64 0 L 64 16 L 64 16 L 64 248 L 64 248 Q 35 268 18 299 Q 0 330 0 368 Q 2 429 42 470 Q 83 510 144 512 Q 205 510 246 470 Q 286 429 288 368 Q 288 330 270 299 Q 253 268 224 248 L 224 16 L 224 16 L 224 0 L 224 0 Z M 96 368 Q 97 341 120 326 Q 144 314 168 326 Q 191 341 192 368 Q 191 395 168 410 Q 144 422 120 410 Q 97 395 96 368 L 96 368 Z M 208 368 Q 207 343 192 325 L 192 325 L 192 325 Q 176 308 152 305 L 152 264 L 152 264 L 152 256 L 152 256 L 136 256 L 136 256 L 136 264 L 136 264 L 136 305 L 136 305 Q 112 308 96 325 Q 81 343 80 368 Q 81 395 99 413 Q 117 431 144 432 Q 171 431 189 413 Q 207 395 208 368 L 208 368 Z M 418 478 L 424 483 L 418 478 L 424 483 L 430 478 L 430 478 L 510 398 L 510 398 L 498 386 L 498 386 L 432 453 L 432 453 L 432 40 L 432 40 L 432 32 L 432 32 L 416 32 L 416 32 L 416 40 L 416 40 L 416 453 L 416 453 L 350 386 L 350 386 L 338 398 L 338 398 L 418 478 L 418 478 Z" />
</svg>