<svg xmlns="http://www.w3.org/2000/svg" viewBox="0 0 488 440">
  <path d="M 24 0 L 24 16 L 24 0 L 24 16 L 32 16 L 56 16 L 56 168 L 56 168 L 16 168 L 8 168 L 8 184 L 8 184 L 16 184 L 120 184 L 120 168 L 120 168 L 112 168 L 72 168 L 72 8 L 72 8 L 72 0 L 72 0 L 64 0 L 24 0 Z M 184 48 L 184 64 L 184 48 L 184 64 L 192 64 L 488 64 L 488 48 L 488 48 L 480 48 L 184 48 Z M 184 208 L 184 224 L 184 208 L 184 224 L 192 224 L 488 224 L 488 208 L 488 208 L 480 208 L 184 208 Z M 184 368 L 184 384 L 184 368 L 184 384 L 192 384 L 488 384 L 488 368 L 488 368 L 480 368 L 184 368 Z M 64 248 Q 40 249 24 264 L 24 264 L 24 264 Q 9 280 8 304 L 24 304 L 24 304 Q 24 287 36 276 Q 47 264 64 264 L 66 264 L 66 264 Q 82 264 93 275 Q 104 286 104 302 Q 104 317 94 328 L 2 426 L 2 426 L 0 428 L 0 428 L 0 432 L 0 432 L 0 432 L 0 432 L 0 440 L 0 440 L 8 440 L 128 440 L 128 424 L 128 424 L 120 424 L 26 424 L 106 339 L 106 339 Q 120 323 120 302 Q 119 279 104 264 Q 89 249 66 248 L 64 248 L 64 248 Z" />
</svg>