<svg xmlns="http://www.w3.org/2000/svg" viewBox="0 0 512 512">
  <path d="M 16 345 L 16 167 L 16 345 L 16 167 L 167 16 L 167 16 L 345 16 L 345 16 L 496 167 L 496 167 L 496 345 L 496 345 L 345 496 L 345 496 L 167 496 L 167 496 L 16 345 L 16 345 Z M 160 0 L 0 160 L 160 0 L 0 160 L 0 352 L 0 352 L 160 512 L 160 512 L 352 512 L 352 512 L 512 352 L 512 352 L 512 160 L 512 160 L 352 0 L 352 0 L 160 0 L 160 0 Z M 186 175 L 175 186 L 186 175 L 175 186 L 180 192 L 180 192 L 245 256 L 245 256 L 180 321 L 180 321 L 174 326 L 174 326 L 186 338 L 186 338 L 191 332 L 191 332 L 256 267 L 256 267 L 321 332 L 321 332 L 326 338 L 326 338 L 338 326 L 338 326 L 332 321 L 332 321 L 267 256 L 267 256 L 332 191 L 332 191 L 338 186 L 338 186 L 326 174 L 326 174 L 321 180 L 321 180 L 256 245 L 256 245 L 191 180 L 191 180 L 186 174 L 186 175 Z" />
</svg>