<svg xmlns="http://www.w3.org/2000/svg" viewBox="0 0 560 512">
  <path d="M 240 224 L 240 384 L 240 224 L 240 384 L 96 384 L 96 384 Q 79 338 47 299 Q 47 298 47 298 Q 47 298 47 298 Q 47 298 47 298 Q 39 287 31 276 Q 1 233 0 176 Q 2 101 52 52 Q 101 2 176 0 Q 251 2 300 52 Q 350 101 352 176 Q 352 201 345 224 L 240 224 L 240 224 Z M 96 416 L 240 416 L 96 416 L 240 416 L 240 512 L 240 512 L 96 512 L 96 512 L 96 416 L 96 416 Z M 96 176 Q 97 142 119 119 L 119 119 L 119 119 Q 142 97 176 96 L 176 64 L 176 64 Q 128 65 97 97 Q 65 128 64 176 L 96 176 L 96 176 Z M 560 256 L 560 448 L 560 256 L 560 448 L 464 448 L 464 448 L 464 512 L 464 512 L 389 448 L 389 448 L 272 448 L 272 448 L 272 256 L 272 256 L 560 256 L 560 256 Z" />
</svg>