<svg xmlns="http://www.w3.org/2000/svg" viewBox="0 0 576 512">
  <path d="M 56 355 L 127 366 L 56 355 L 127 366 L 144 368 L 144 368 L 139 351 L 139 351 L 104 220 L 104 220 L 96 192 L 96 192 L 118 212 L 118 212 L 226 308 L 226 308 L 240 320 L 240 320 L 244 302 L 244 302 L 280 128 L 280 128 L 296 128 L 296 128 L 331 290 L 331 290 L 336 312 L 336 312 L 348 294 L 348 294 L 513 46 L 513 46 L 544 0 L 544 0 L 528 53 L 528 53 L 437 351 L 437 351 L 432 368 L 432 368 L 450 366 L 450 366 L 520 355 L 520 355 L 544 352 L 544 352 L 529 370 L 529 370 L 451 464 L 451 464 L 430 464 L 430 464 L 505 374 L 505 374 L 434 384 L 434 384 L 409 387 L 409 387 L 417 363 L 417 363 L 497 99 L 497 99 L 349 321 L 349 321 L 328 352 L 328 352 L 320 315 L 320 315 L 288 167 L 288 167 L 256 323 L 256 323 L 250 350 L 250 350 L 229 332 L 229 332 L 126 240 L 126 240 L 159 364 L 159 364 L 166 387 L 166 387 L 142 384 L 142 384 L 71 374 L 71 374 L 146 464 L 146 464 L 125 464 L 125 464 L 47 370 L 47 370 L 32 352 L 32 352 L 56 355 L 56 355 Z M 296 8 L 296 88 L 296 8 L 296 88 L 296 96 L 296 96 L 280 96 L 280 96 L 280 88 L 280 88 L 280 8 L 280 8 L 280 0 L 280 0 L 296 0 L 296 0 L 296 8 L 296 8 Z M 8 496 L 192 496 L 8 496 L 192 496 Q 196 458 223 434 Q 249 409 288 408 Q 327 409 353 434 Q 380 458 384 496 L 568 496 L 576 496 L 576 512 L 576 512 L 568 512 L 376 512 L 376 512 L 376 512 L 376 512 L 376 512 L 200 512 L 200 512 Q 200 512 200 512 Q 200 512 200 512 Q 200 512 200 512 Q 200 512 200 512 L 8 512 L 0 512 L 0 496 L 0 496 L 8 496 L 8 496 Z M 208 496 L 368 496 L 208 496 L 368 496 Q 364 465 342 445 Q 320 425 288 424 Q 256 425 234 445 Q 212 465 208 496 L 208 496 Z" />
</svg>