<svg xmlns="http://www.w3.org/2000/svg" viewBox="0 0 640 512">
  <path d="M 32 10 L 20 0 L 32 10 L 20 0 L 0 25 L 0 25 L 13 35 L 13 35 L 608 502 L 608 502 L 620 512 L 620 512 L 640 487 L 640 487 L 628 477 L 628 477 L 32 10 L 32 10 Z M 608 100 L 608 64 L 608 100 L 608 64 L 576 80 L 576 80 L 448 144 L 448 144 L 448 180 L 448 180 L 576 116 L 576 116 L 576 377 L 576 377 L 608 402 L 608 402 L 608 100 L 608 100 Z M 416 413 L 384 388 L 416 413 L 384 388 L 384 416 L 384 416 L 64 416 L 64 416 L 64 135 L 64 135 L 32 110 L 32 110 L 32 416 L 32 416 L 32 448 L 32 448 L 64 448 L 416 448 L 416 416 L 416 416 L 416 413 L 416 413 Z M 416 250 L 416 160 L 416 250 L 416 160 L 416 96 L 416 96 L 416 64 L 416 64 L 384 64 L 180 64 L 221 96 L 221 96 L 384 96 L 384 96 L 384 225 L 384 225 L 416 250 L 416 250 Z" />
</svg>