<svg xmlns="http://www.w3.org/2000/svg" viewBox="0 0 512 512">
  <path d="M 336 16 L 336 88 L 336 16 L 336 88 L 336 104 L 336 104 L 336 176 L 336 176 L 345 176 L 345 176 L 425 96 L 425 96 L 345 16 L 345 16 L 336 16 L 336 16 Z M 320 88 L 320 16 L 320 88 L 320 16 L 320 0 L 320 0 L 336 0 L 352 0 L 437 85 L 437 85 L 448 96 L 448 96 L 437 107 L 437 107 L 352 192 L 352 192 L 336 192 L 320 192 L 320 176 L 320 176 L 320 104 L 320 104 L 16 104 L 16 104 L 16 264 L 16 264 L 16 272 L 16 272 L 0 272 L 0 272 L 0 264 L 0 264 L 0 96 L 0 96 L 0 88 L 0 88 L 8 88 L 320 88 Z M 176 496 L 176 424 L 176 496 L 176 424 L 176 408 L 176 408 L 176 336 L 176 336 L 167 336 L 167 336 L 87 416 L 87 416 L 167 496 L 167 496 L 176 496 L 176 496 Z M 192 424 L 192 496 L 192 424 L 192 496 L 192 512 L 192 512 L 176 512 L 160 512 L 75 427 L 75 427 L 64 416 L 64 416 L 75 405 L 75 405 L 160 320 L 160 320 L 176 320 L 192 320 L 192 336 L 192 336 L 192 408 L 192 408 L 496 408 L 496 408 L 496 248 L 496 248 L 496 240 L 496 240 L 512 240 L 512 240 L 512 248 L 512 248 L 512 416 L 512 416 L 512 424 L 512 424 L 504 424 L 192 424 Z M 240 192 L 272 192 L 240 192 L 280 192 L 280 200 L 280 200 L 280 312 L 280 312 L 280 320 L 280 320 L 264 320 L 264 320 L 264 312 L 264 312 L 264 208 L 264 208 L 240 208 L 232 208 L 232 192 L 232 192 L 240 192 L 240 192 Z" />
</svg>