<svg xmlns="http://www.w3.org/2000/svg" viewBox="0 0 512 512">
  <path d="M 400 128 L 400 144 L 400 128 L 400 144 L 416 144 L 416 144 Q 450 145 473 167 Q 495 190 496 224 L 496 304 L 496 304 L 416 304 L 16 304 L 16 224 L 16 224 Q 16 197 31 177 Q 46 157 69 149 L 80 145 L 80 145 L 80 134 L 80 134 L 80 112 L 80 112 Q 81 71 108 44 Q 135 17 176 16 Q 227 18 255 57 L 263 69 L 263 69 L 276 61 L 276 61 Q 296 48 320 48 Q 354 49 377 71 Q 399 94 400 128 L 400 128 Z M 0 320 L 16 320 L 0 320 L 512 320 L 512 304 L 512 304 L 512 224 L 512 224 Q 511 183 484 156 Q 457 129 416 128 Q 415 87 388 60 Q 361 33 320 32 Q 291 32 268 48 Q 235 2 176 0 Q 128 1 97 33 Q 65 64 64 112 L 64 134 L 64 134 Q 36 144 18 168 Q 1 192 0 224 L 0 304 L 0 304 L 0 320 L 0 320 Z M 69 444 L 96 399 L 69 444 L 96 399 L 123 444 L 123 444 Q 128 452 128 462 L 128 464 L 128 464 Q 128 478 119 487 Q 110 496 96 496 Q 82 496 73 487 Q 64 478 64 464 L 64 462 L 64 462 Q 64 453 69 444 L 69 444 Z M 55 436 Q 48 448 48 462 L 48 464 L 48 464 Q 49 484 62 498 Q 76 511 96 512 Q 116 511 130 498 Q 144 484 144 464 L 144 462 L 144 462 Q 144 448 137 436 L 106 384 L 106 384 L 96 368 L 96 368 L 87 384 L 87 384 L 55 436 L 55 436 Z M 229 444 L 256 399 L 229 444 L 256 399 L 283 444 L 283 444 Q 288 452 288 462 L 288 464 L 288 464 Q 288 478 279 487 Q 270 496 256 496 Q 242 496 233 487 Q 224 478 224 464 L 224 462 L 224 462 Q 224 453 229 444 L 229 444 Z M 215 436 Q 208 448 208 462 L 208 464 L 208 464 Q 209 484 222 498 Q 236 511 256 512 Q 276 511 290 498 Q 304 484 304 464 L 304 462 L 304 462 Q 304 448 297 436 L 265 384 L 265 384 L 256 368 L 256 368 L 247 384 L 247 384 L 215 436 L 215 436 Z M 416 399 L 443 444 L 416 399 L 443 444 Q 448 452 448 462 L 448 464 L 448 464 Q 448 478 439 487 Q 430 496 416 496 Q 402 496 393 487 Q 384 478 384 464 L 384 462 L 384 462 Q 384 453 389 444 L 416 399 L 416 399 Z M 407 384 L 375 436 L 407 384 L 375 436 Q 368 448 368 462 L 368 464 L 368 464 Q 369 484 382 498 Q 396 511 416 512 Q 437 511 450 498 Q 464 484 464 464 L 464 462 L 464 462 Q 464 448 457 436 L 426 384 L 426 384 L 416 368 L 416 368 L 407 384 L 407 384 Z" />
</svg>