<svg xmlns="http://www.w3.org/2000/svg" viewBox="0 0 640 512">
  <path d="M 328 8 L 328 0 L 328 8 L 328 0 L 312 0 L 312 0 L 312 8 L 312 8 L 312 32 L 312 32 Q 294 34 279 43 Q 258 54 256 82 Q 258 107 277 118 Q 295 128 316 134 L 317 134 L 317 134 Q 339 140 354 149 Q 367 157 368 173 Q 368 192 354 200 Q 339 209 320 208 Q 298 206 276 197 Q 275 197 275 197 Q 271 195 267 194 Q 267 194 267 194 L 259 191 L 259 191 L 254 206 L 254 206 L 261 209 L 261 209 Q 261 209 261 209 Q 265 210 269 212 Q 269 212 269 212 Q 269 212 269 212 Q 269 212 269 212 Q 289 220 312 224 L 312 248 L 312 248 L 312 256 L 312 256 L 328 256 L 328 256 L 328 248 L 328 248 L 328 224 L 328 224 Q 347 223 363 213 Q 383 201 384 173 Q 382 147 363 136 Q 345 125 324 119 Q 323 119 322 119 L 322 119 L 322 119 Q 322 119 322 119 Q 300 112 286 104 Q 272 96 272 82 Q 273 64 287 56 Q 301 48 319 48 L 319 48 L 319 48 L 320 48 L 320 48 Q 340 49 360 55 L 368 57 L 368 57 L 372 42 L 372 42 L 364 40 L 364 40 Q 347 34 328 33 L 328 8 L 328 8 Z M 96 72 Q 95 65 88 64 L 8 64 L 8 64 Q 1 65 0 72 L 0 384 L 0 384 Q 0 387 2 390 L 122 510 L 122 510 L 134 498 L 134 498 L 16 381 L 16 381 L 16 80 L 16 80 L 80 80 L 80 80 L 80 288 L 80 288 Q 80 291 82 294 L 93 305 L 93 305 L 98 310 L 98 310 L 178 390 L 178 390 L 186 398 L 186 398 L 192 403 L 192 403 L 203 392 L 203 392 L 198 386 L 198 386 L 190 378 L 190 378 L 115 304 L 115 304 L 152 260 L 152 260 L 288 395 L 288 395 L 288 504 L 288 504 L 288 512 L 288 512 L 304 512 L 304 512 L 304 504 L 304 504 L 304 392 L 304 392 L 304 389 L 304 389 L 302 386 L 302 386 L 158 242 L 158 242 L 152 236 L 152 236 L 146 243 L 146 243 L 104 292 L 104 292 L 96 285 L 96 285 L 96 72 L 96 72 Z M 552 64 Q 545 65 544 72 L 544 285 L 544 285 L 537 292 L 537 292 L 494 243 L 494 243 L 489 236 L 489 236 L 482 242 L 482 242 L 338 386 L 338 386 L 336 389 L 336 389 L 336 392 L 336 392 L 336 504 L 336 504 L 336 512 L 336 512 L 352 512 L 352 512 L 352 504 L 352 504 L 352 395 L 352 395 L 488 260 L 488 260 L 525 304 L 525 304 L 450 378 L 450 378 L 442 386 L 442 386 L 437 392 L 437 392 L 448 403 L 448 403 L 454 398 L 454 398 L 462 390 L 462 390 L 542 310 L 542 310 L 547 304 L 547 304 L 558 294 L 558 294 Q 560 291 560 288 L 560 80 L 560 80 L 624 80 L 624 80 L 624 381 L 624 381 L 506 498 L 506 498 L 518 510 L 518 510 L 638 390 L 638 390 Q 640 387 640 384 L 640 72 L 640 72 Q 639 65 632 64 L 552 64 L 552 64 Z" />
</svg>