<svg xmlns="http://www.w3.org/2000/svg" viewBox="0 0 384 512">
  <path d="M 0 320 Q 0 288 11 258 Q 64 112 181 10 L 192 0 L 192 0 L 203 10 L 203 10 Q 320 112 373 258 Q 384 288 384 320 Q 382 401 327 456 Q 273 510 192 512 Q 111 510 57 456 Q 2 401 0 320 L 0 320 Z M 191 22 Q 78 122 26 264 Q 16 291 16 320 Q 18 394 68 444 Q 118 494 192 496 Q 266 494 316 444 Q 366 394 368 320 Q 368 291 358 264 Q 306 122 193 22 L 192 21 L 192 21 L 191 22 L 191 22 Z M 206 159 Q 206 162 206 164 Q 209 179 219 190 L 271 242 L 271 242 Q 303 276 304 323 Q 303 369 272 400 Q 241 431 195 432 L 189 432 L 189 432 Q 143 431 112 400 Q 81 369 80 323 Q 81 282 113 259 Q 114 258 116 257 L 129 248 L 129 248 L 129 267 L 129 267 L 129 294 L 129 294 Q 130 312 141 324 Q 153 336 171 336 L 173 336 L 173 336 Q 190 336 201 325 Q 212 313 213 297 Q 212 281 202 270 L 193 260 L 193 260 Q 172 238 171 208 Q 172 180 190 159 Q 190 158 190 158 Q 191 157 192 156 Q 195 153 199 150 L 206 144 L 206 144 L 206 156 L 206 156 Q 206 157 206 157 Q 206 158 206 159 L 206 159 Z M 96 323 Q 97 362 123 389 L 123 389 L 123 389 Q 150 415 189 416 L 195 416 L 195 416 Q 235 415 261 389 Q 287 363 288 323 Q 287 283 260 253 L 208 201 L 208 201 Q 199 192 194 180 Q 187 193 187 208 Q 188 232 204 249 L 213 258 L 213 258 Q 228 275 229 297 Q 228 320 212 336 Q 197 352 173 352 L 171 352 L 171 352 Q 146 351 130 335 Q 114 319 113 294 L 113 280 L 113 280 Q 96 298 96 323 L 96 323 Z" />
</svg>