<svg xmlns="http://www.w3.org/2000/svg" viewBox="0 0 577 512">
  <path d="M 328 136 Q 329 85 363 51 L 363 51 L 363 51 Q 397 17 448 16 L 456 16 L 516 16 L 550 67 L 550 67 L 560 171 L 560 171 L 492 205 L 492 205 L 463 149 L 463 149 L 461 144 L 461 144 L 456 144 L 432 144 L 432 152 L 432 152 L 432 240 L 432 240 L 432 240 L 432 240 L 432 240 L 432 240 Q 431 279 403 303 L 400 305 L 400 305 L 400 309 L 400 309 L 400 496 L 400 496 L 328 496 L 328 496 L 328 326 L 328 326 L 328 319 L 328 319 L 322 318 L 322 318 L 248 302 L 248 302 L 248 248 L 248 248 Q 282 244 305 220 Q 327 195 328 160 L 328 144 L 328 144 L 328 136 L 328 136 Z M 240 232 Q 209 231 189 211 L 189 211 L 189 211 Q 169 191 168 160 L 168 144 L 168 144 L 192 144 L 312 144 L 312 160 L 312 160 Q 311 191 291 211 Q 271 231 240 232 L 240 232 Z M 232 248 L 232 298 L 232 248 L 232 298 L 202 292 L 202 292 L 192 289 L 192 289 L 192 299 L 192 299 L 192 304 L 192 304 L 192 344 L 192 344 L 192 352 L 192 352 L 189 360 L 189 360 L 171 400 L 171 400 L 170 403 L 170 403 L 171 406 L 171 406 L 196 496 L 196 496 L 113 496 L 113 496 L 90 411 L 90 411 L 86 397 L 86 397 L 91 384 L 91 384 L 111 337 L 111 337 L 112 336 L 112 336 L 112 334 L 112 334 L 112 315 L 112 315 L 112 313 L 112 313 L 111 311 L 111 311 L 78 238 L 78 238 Q 72 225 72 210 Q 73 182 91 163 Q 110 145 138 144 L 152 144 L 152 144 L 152 160 L 152 160 Q 153 195 175 220 Q 198 244 232 248 L 232 248 Z M 192 128 L 160 128 L 192 128 L 138 128 Q 97 129 73 160 L 72 160 L 64 160 Q 37 161 19 179 Q 1 197 0 224 L 0 312 L 0 312 L 0 320 L 0 320 L 16 320 L 16 320 L 16 312 L 16 312 L 16 224 L 16 224 Q 17 204 30 190 Q 43 177 64 176 Q 56 192 56 210 Q 56 228 63 244 L 96 316 L 96 316 L 96 333 L 96 333 L 77 378 L 77 378 L 70 393 L 70 393 L 69 396 L 69 396 L 70 399 L 70 399 L 74 415 L 74 415 L 99 506 L 99 506 L 101 512 L 101 512 L 107 512 L 217 512 L 214 502 L 214 502 L 187 404 L 187 404 L 203 366 L 203 366 L 207 357 L 207 357 L 208 356 L 208 356 L 208 354 L 208 354 L 208 344 L 208 344 L 208 309 L 208 309 L 312 332 L 312 332 L 312 504 L 312 504 L 312 512 L 312 512 L 320 512 L 416 512 L 416 504 L 416 504 L 416 312 L 416 312 Q 443 288 448 249 L 448 249 L 448 249 L 448 240 L 448 240 L 448 240 L 448 240 L 448 160 L 448 160 L 451 160 L 451 160 L 481 220 L 481 220 L 485 227 L 485 227 L 492 223 L 492 223 L 572 183 L 572 183 L 577 181 L 577 181 L 576 175 L 576 175 L 565 63 L 565 63 L 565 61 L 565 61 L 564 60 L 564 60 L 535 16 L 535 16 L 552 16 L 560 16 L 560 0 L 560 0 L 552 0 L 448 0 Q 392 1 355 37 Q 317 73 312 128 L 248 128 L 192 128 Z M 512 80 Q 511 65 496 64 Q 481 65 480 80 Q 481 95 496 96 Q 511 95 512 80 L 512 80 Z" />
</svg>