<svg xmlns="http://www.w3.org/2000/svg" viewBox="0 0 640 512">
  <path d="M 541 512 L 501 480 L 541 512 L 501 480 L 128 480 L 128 480 L 128 384 L 128 384 L 379 384 L 379 384 L 338 352 L 338 352 L 128 352 L 128 352 L 128 256 L 128 256 L 96 256 L 96 256 L 96 352 L 96 352 L 96 384 L 96 384 L 96 480 L 96 480 L 96 512 L 96 512 L 128 512 L 541 512 Z M 385 224 Q 415 223 437 207 Q 444 201 450 195 Q 456 202 463 207 Q 485 223 516 224 Q 522 224 528 223 Q 570 215 586 178 Q 601 141 580 104 L 512 0 L 512 0 L 128 0 L 128 0 L 118 15 L 118 15 L 143 35 L 143 35 L 145 32 L 145 32 L 495 32 L 495 32 L 553 121 L 553 121 Q 566 145 556 166 Q 546 187 523 192 Q 520 192 515 192 Q 490 191 474 174 L 450 147 L 450 147 L 427 174 L 427 174 Q 411 191 385 192 Q 360 191 344 174 L 320 147 L 320 147 L 306 163 L 306 163 L 383 224 L 383 224 Q 383 224 384 224 Q 384 224 385 224 L 385 224 Z M 512 256 L 512 326 L 512 256 L 512 326 L 544 351 L 544 351 L 544 256 L 544 256 L 512 256 L 512 256 Z M 164 215 L 135 191 L 164 215 L 135 191 Q 130 192 124 192 Q 121 192 117 192 Q 101 189 91 177 Q 81 165 80 148 L 51 125 L 51 125 Q 42 159 59 188 Q 76 217 112 223 Q 118 224 124 224 Q 146 224 164 215 L 164 215 Z M 33 10 L 20 0 L 33 10 L 20 0 L 0 25 L 0 25 L 13 35 L 13 35 L 608 502 L 608 502 L 620 512 L 620 512 L 640 487 L 640 487 L 628 477 L 628 477 L 33 10 L 33 10 Z" />
</svg>