<svg xmlns="http://www.w3.org/2000/svg" viewBox="0 0 640 512">
  <path d="M 136 0 L 128 0 L 136 0 L 128 0 L 128 8 L 128 8 L 128 128 L 128 128 L 128 136 L 128 136 L 144 136 L 144 136 L 144 128 L 144 128 L 144 16 L 144 16 L 283 16 L 283 16 L 393 228 L 393 228 L 397 235 L 397 235 L 411 227 L 411 227 L 407 220 L 407 220 L 295 4 L 295 4 L 293 0 L 293 0 L 288 0 L 136 0 Z M 96 336 Q 141 337 165 376 Q 187 416 165 456 Q 141 495 96 496 Q 51 495 27 456 Q 5 416 27 376 Q 51 337 96 336 L 96 336 Z M 96 512 Q 137 511 164 484 L 164 484 L 164 484 Q 191 457 192 416 L 256 416 L 256 416 Q 257 457 284 484 Q 311 511 352 512 Q 393 511 420 484 Q 447 457 448 416 Q 447 372 416 344 L 416 272 L 416 272 L 416 256 L 416 256 L 400 256 L 264 256 L 144 160 L 144 160 L 16 160 L 0 160 L 0 176 L 0 176 L 0 400 L 0 400 L 0 416 L 0 416 Q 1 457 28 484 Q 55 511 96 512 L 96 512 Z M 96 320 Q 44 322 16 363 L 16 176 L 16 176 L 138 176 L 138 176 L 254 269 L 254 269 L 258 272 L 258 272 L 264 272 L 400 272 L 400 333 L 400 333 Q 379 320 352 320 Q 316 321 290 343 Q 264 365 257 400 L 191 400 L 191 400 Q 184 365 158 343 Q 132 321 96 320 L 96 320 Z M 352 336 Q 397 337 421 376 Q 443 416 421 456 Q 397 495 352 496 Q 307 495 283 456 Q 261 416 283 376 Q 307 337 352 336 L 352 336 Z M 496 8 L 496 0 L 496 8 L 496 0 L 480 0 L 480 0 L 480 8 L 480 8 L 480 440 L 480 440 L 480 448 L 480 448 L 488 448 L 640 448 L 640 432 L 640 432 L 632 432 L 496 432 L 496 8 L 496 8 Z" />
</svg>