<svg xmlns="http://www.w3.org/2000/svg" viewBox="0 0 288 432">
  <path d="M 120 16 Q 76 17 46 46 L 46 46 L 46 46 Q 17 76 16 120 L 16 128 L 16 128 L 0 128 L 0 128 L 0 120 L 0 120 Q 1 69 35 35 Q 69 1 120 0 L 168 0 L 168 0 Q 219 1 253 35 Q 287 69 288 120 L 288 126 L 288 126 Q 287 180 244 211 L 152 276 L 152 276 L 152 320 L 152 320 L 152 336 L 152 336 L 152 344 L 152 344 L 136 344 L 136 344 L 136 336 L 136 336 L 136 320 L 136 320 L 136 272 L 136 272 L 136 268 L 136 268 L 136 104 L 136 104 L 136 96 L 136 96 L 152 96 L 152 96 L 152 104 L 152 104 L 152 257 L 152 257 L 235 198 L 235 198 Q 271 171 272 126 L 272 120 L 272 120 Q 271 76 242 46 Q 212 17 168 16 L 120 16 L 120 16 Z M 128 400 L 160 400 L 128 400 L 160 400 L 160 432 L 160 432 L 128 432 L 128 432 L 128 400 L 128 400 Z" />
</svg>