<svg xmlns="http://www.w3.org/2000/svg" viewBox="0 0 416 384">
  <path d="M 160 16 L 160 112 L 160 16 L 160 112 L 256 112 L 256 112 L 256 16 L 256 16 L 160 16 L 160 16 Z M 144 0 L 160 0 L 144 0 L 272 0 L 272 16 L 272 16 L 272 112 L 272 112 L 272 128 L 272 128 L 256 128 L 144 128 L 144 112 L 144 112 L 144 16 L 144 16 L 144 0 L 144 0 Z M 416 200 L 408 200 L 416 200 L 0 200 L 0 184 L 0 184 L 8 184 L 416 184 L 416 200 L 416 200 Z M 256 272 L 160 272 L 256 272 L 160 272 L 160 368 L 160 368 L 256 368 L 256 368 L 256 272 L 256 272 Z M 160 256 L 256 256 L 160 256 L 272 256 L 272 272 L 272 272 L 272 368 L 272 368 L 272 384 L 272 384 L 256 384 L 144 384 L 144 368 L 144 368 L 144 272 L 144 272 L 144 256 L 144 256 L 160 256 L 160 256 Z" />
</svg>