<svg xmlns="http://www.w3.org/2000/svg" viewBox="0 0 512 512">
  <path d="M 496 256 Q 495 321 464 376 L 464 376 L 464 376 Q 432 431 376 464 Q 319 496 256 496 Q 193 496 136 464 Q 80 431 48 376 Q 17 321 16 256 Q 17 191 48 136 Q 80 81 136 48 Q 193 16 256 16 Q 319 16 376 48 Q 432 81 464 136 Q 495 191 496 256 L 496 256 Z M 0 256 Q 1 326 34 384 L 34 384 L 34 384 Q 68 442 128 478 Q 189 512 256 512 Q 323 512 384 478 Q 444 442 478 384 Q 511 326 512 256 Q 511 186 478 128 Q 444 70 384 34 Q 323 0 256 0 Q 189 0 128 34 Q 68 70 34 128 Q 1 186 0 256 L 0 256 Z M 382 262 L 387 256 L 382 262 L 387 256 L 382 250 L 382 250 L 278 146 L 278 146 L 272 141 L 272 141 L 261 152 L 261 152 L 266 158 L 266 158 L 357 248 L 357 248 L 136 248 L 128 248 L 128 264 L 128 264 L 136 264 L 357 264 L 266 354 L 266 354 L 261 360 L 261 360 L 272 371 L 272 371 L 278 366 L 278 366 L 382 262 L 382 262 Z" />
</svg>