<svg xmlns="http://www.w3.org/2000/svg" viewBox="0 0 539 517">
  <path d="M 410 41 L 334 50 L 410 41 L 334 50 L 243 0 L 243 0 L 172 76 L 172 76 L 71 96 L 71 96 L 65 199 L 65 199 L 0 280 L 0 280 L 62 363 L 62 363 L 63 388 L 63 388 L 78 373 L 78 373 L 78 362 L 78 362 L 78 357 L 78 357 L 75 353 L 75 353 L 20 280 L 20 280 L 77 209 L 77 209 L 81 205 L 81 205 L 81 200 L 81 200 L 86 109 L 86 109 L 175 92 L 175 92 L 180 91 L 180 91 L 184 87 L 184 87 L 246 21 L 246 21 L 326 64 L 326 64 L 330 67 L 330 67 L 335 66 L 335 66 L 391 60 L 391 60 L 409 41 L 410 41 Z M 451 68 Q 495 119 509 182 L 509 182 L 509 182 Q 523 245 505 307 L 505 307 L 505 307 Q 488 369 440 418 Q 391 466 329 483 Q 267 501 204 487 Q 141 473 90 429 L 451 68 L 451 68 Z M 67 429 Q 72 435 78 440 Q 133 488 200 502 Q 267 517 333 499 Q 399 481 451 429 Q 503 377 521 311 Q 539 245 524 178 Q 510 111 462 56 Q 457 50 451 45 L 440 56 L 440 56 L 78 418 L 78 418 L 67 429 L 67 429 Z M 259 413 Q 274 412 275 397 Q 274 382 259 381 Q 244 382 243 397 Q 244 412 259 413 L 259 413 Z M 339 397 Q 338 382 323 381 Q 308 382 307 397 Q 308 412 323 413 Q 338 412 339 397 L 339 397 Z M 291 349 Q 306 348 307 333 Q 306 318 291 317 Q 276 318 275 333 Q 276 348 291 349 L 291 349 Z M 219 149 Q 171 150 140 182 L 140 182 L 140 182 Q 108 213 107 261 Q 108 297 127 324 L 138 313 L 138 313 Q 123 290 123 261 Q 124 220 151 193 Q 178 166 219 165 Q 248 165 271 180 L 282 169 L 282 169 Q 255 150 219 149 L 219 149 Z" />
</svg>