<svg xmlns="http://www.w3.org/2000/svg" viewBox="0 0 576 512">
  <path d="M 224 0 L 200 0 L 224 0 L 200 0 Q 156 1 126 30 Q 97 60 96 104 L 96 112 L 96 112 L 64 200 L 64 200 L 64 240 L 64 240 L 96 272 L 96 272 L 96 304 L 96 304 L 144 352 L 144 352 L 176 352 L 176 352 L 208 384 L 208 384 L 240 384 L 240 384 L 272 352 L 272 352 L 304 352 L 304 352 L 352 304 L 352 304 L 352 272 L 352 272 L 384 240 L 384 240 L 384 200 L 384 200 L 352 112 L 352 112 L 352 104 L 352 104 Q 351 60 322 30 Q 292 1 248 0 L 224 0 L 224 0 Z M 297 96 Q 304 111 304 128 L 304 144 L 304 144 Q 304 163 296 180 L 270 154 L 270 154 L 264 148 L 264 148 L 256 148 L 184 148 L 178 154 L 178 154 L 152 180 L 152 180 Q 144 163 144 144 L 144 128 L 144 128 Q 144 111 151 96 L 192 96 L 192 96 L 224 64 L 224 64 L 256 96 L 256 96 L 297 96 L 297 96 Z M 270 210 Q 267 212 264 213 Q 246 224 224 224 Q 202 224 184 213 Q 181 212 179 210 L 200 188 L 200 188 L 248 188 L 248 188 L 270 210 L 270 210 Z M 64 320 L 16 464 L 64 320 L 16 464 L 0 512 L 0 512 L 51 512 L 367 512 L 382 464 L 382 464 Q 382 464 381 464 Q 381 464 381 464 L 320 464 L 67 464 L 99 368 L 99 368 L 103 356 L 103 356 L 73 327 L 73 327 L 67 320 L 67 320 L 64 320 L 64 320 Z M 440 384 L 400 512 L 440 384 L 400 512 L 576 376 L 576 376 L 576 352 L 576 352 L 488 352 L 488 352 L 528 224 L 528 224 L 352 360 L 352 360 L 352 384 L 352 384 L 440 384 L 440 384 Z" />
</svg>