<svg xmlns="http://www.w3.org/2000/svg" viewBox="0 0 574 375">
  <path d="M 381 17 L 376 11 L 381 17 L 376 11 L 387 0 L 387 0 L 393 5 L 393 5 L 569 181 L 569 181 L 574 187 L 574 187 L 569 193 L 569 193 L 393 369 L 393 369 L 387 375 L 387 375 L 376 363 L 376 363 L 381 357 L 381 357 L 552 187 L 552 187 L 381 17 L 381 17 Z M 185 17 L 22 187 L 185 17 L 22 187 L 185 358 L 185 358 L 190 363 L 190 363 L 179 374 L 179 374 L 173 369 L 173 369 L 5 193 L 5 193 L 0 187 L 0 187 L 5 182 L 5 182 L 173 6 L 173 6 L 179 0 L 179 0 L 190 11 L 190 11 L 185 17 L 185 17 Z" />
</svg>