<svg xmlns="http://www.w3.org/2000/svg" viewBox="0 0 512 512">
  <path d="M 512 240 Q 511 298 477 345 L 477 345 Q 443 392 385 420 L 385 420 Q 328 447 256 448 Q 209 448 166 435 L 16 480 L 57 371 Q 2 316 0 240 Q 1 182 35 135 Q 69 88 127 60 Q 184 33 256 32 Q 328 33 385 60 Q 443 88 477 135 Q 511 182 512 240 L 512 240 Z M 192 176 L 192 192 L 192 288 L 192 304 L 224 304 L 224 288 L 224 235 L 242 265 L 256 286 L 270 265 L 288 235 L 288 288 L 288 304 L 320 304 L 320 288 L 320 192 L 320 176 L 304 176 L 296 176 L 287 176 L 282 184 L 256 226 L 230 184 L 225 176 L 216 176 L 208 176 L 192 176 L 192 176 Z M 104 214 L 104 214 Q 103 213 108 210 Q 114 207 126 209 Q 128 209 133 210 Q 138 211 140 211 L 156 216 L 164 185 L 148 181 Q 145 180 139 179 Q 134 177 131 177 Q 111 174 95 181 Q 78 188 73 208 Q 71 219 75 229 Q 80 238 88 243 Q 101 251 114 254 L 114 254 L 116 255 Q 129 259 134 262 Q 136 264 136 264 Q 136 264 136 264 L 136 264 Q 136 264 136 264 Q 136 264 136 264 Q 136 264 136 264 Q 136 265 136 267 Q 136 268 132 270 Q 127 273 114 272 Q 108 270 97 266 L 97 266 L 97 266 Q 96 266 95 266 Q 94 265 93 265 L 78 260 L 68 290 L 83 295 Q 84 295 84 296 Q 85 296 86 296 L 86 296 Q 97 300 109 303 L 109 303 L 109 303 Q 128 306 145 300 Q 163 292 167 272 Q 169 261 165 251 Q 161 241 153 236 Q 139 227 126 224 Q 125 224 125 224 L 125 224 Q 111 220 106 217 Q 104 216 104 215 Q 104 215 104 215 Q 104 215 104 214 L 104 214 Z M 104 215 Q 104 215 104 215 Q 104 215 104 215 Q 104 215 104 215 Q 104 215 104 215 Q 104 215 104 215 Q 104 215 104 215 L 104 215 Z M 376 214 L 376 214 Q 375 213 380 210 Q 386 207 398 209 Q 400 209 405 210 Q 410 211 412 211 L 428 216 L 436 185 L 420 181 Q 417 180 411 179 Q 406 177 403 177 Q 383 174 367 181 Q 350 188 345 208 Q 343 219 347 229 Q 352 238 360 243 Q 373 251 386 254 L 388 255 Q 401 259 406 262 Q 408 264 408 264 L 408 264 Q 408 264 408 264 Q 408 264 408 264 Q 408 264 408 264 Q 408 265 408 267 Q 408 268 404 270 Q 399 273 386 272 Q 380 270 369 266 L 369 266 Q 368 266 367 266 Q 366 265 365 265 L 350 260 L 340 290 L 355 295 Q 355 296 356 296 Q 357 296 358 296 L 358 296 Q 369 300 381 303 L 381 303 L 381 303 Q 400 306 417 300 Q 434 293 439 272 Q 441 261 437 251 Q 432 241 425 236 Q 411 227 397 224 Q 397 224 397 224 L 397 224 Q 382 220 377 217 Q 376 216 376 215 Q 376 215 376 215 Q 376 215 376 214 L 376 214 Z M 376 215 Q 376 215 376 215 Q 376 215 376 215 Q 376 215 376 215 Q 376 215 376 215 Q 376 215 376 215 Q 376 215 376 215 L 376 215 Z" />
</svg>