<svg xmlns="http://www.w3.org/2000/svg" viewBox="0 0 576 512">
  <path d="M 375 174 Q 392 141 392 120 Q 391 76 362 46 Q 332 17 288 16 Q 244 17 214 46 Q 185 76 184 120 Q 184 141 201 174 Q 218 206 241 237 Q 264 268 281 288 Q 283 290 284 291 Q 286 293 288 296 Q 288 295 289 295 Q 291 292 294 288 Q 312 268 335 237 Q 358 206 375 174 L 375 174 Z M 299 308 Q 288 320 288 320 Q 288 320 277 308 Q 261 290 236 257 Q 210 224 190 187 Q 169 150 168 120 Q 169 69 203 35 Q 237 1 288 0 Q 339 1 373 35 Q 407 69 408 120 Q 407 150 386 187 Q 366 224 340 257 Q 315 290 299 308 L 299 308 Z M 560 151 L 415 201 L 560 151 L 415 201 Q 416 200 416 198 Q 417 197 418 195 Q 421 188 425 181 L 560 134 L 560 134 L 576 128 L 576 128 L 576 145 L 576 145 L 576 448 L 576 448 L 392 512 L 392 512 L 184 448 L 184 448 L 16 506 L 16 506 L 0 512 L 0 512 L 0 495 L 0 495 L 0 192 L 0 192 L 139 144 L 139 144 Q 140 152 143 159 L 16 203 L 16 203 L 16 490 L 16 490 L 176 434 L 176 434 L 176 288 L 176 288 L 192 288 L 192 288 L 192 434 L 192 434 L 384 493 L 384 493 L 384 288 L 384 288 L 400 288 L 400 288 L 400 492 L 400 492 L 560 437 L 560 437 L 560 150 L 560 151 Z M 320 112 Q 320 98 311 89 L 311 89 L 311 89 Q 302 80 288 80 Q 274 80 265 89 Q 256 98 256 112 Q 256 126 265 135 Q 274 144 288 144 Q 302 144 311 135 Q 320 126 320 112 L 320 112 Z M 240 112 Q 241 85 264 70 Q 288 58 312 70 Q 335 85 336 112 Q 335 139 312 154 Q 288 166 264 154 Q 241 139 240 112 L 240 112 Z" />
</svg>