<svg xmlns="http://www.w3.org/2000/svg" viewBox="0 0 576 448">
  <path d="M 432 16 L 432 240 L 432 16 L 432 240 L 432 256 L 432 256 L 432 432 L 432 432 L 16 432 L 16 432 L 16 16 L 16 16 L 432 16 L 432 16 Z M 448 432 L 448 256 L 448 432 L 448 256 L 488 256 L 496 256 L 496 248 L 496 248 L 496 176 L 496 176 L 568 176 L 576 176 L 576 168 L 576 168 L 576 104 L 576 104 L 576 96 L 576 96 L 568 96 L 480 96 L 480 104 L 480 104 L 480 168 L 480 168 L 480 240 L 480 240 L 448 240 L 448 240 L 448 16 L 448 16 L 448 0 L 448 0 L 432 0 L 0 0 L 0 16 L 0 16 L 0 432 L 0 432 L 0 448 L 0 448 L 16 448 L 448 448 L 448 432 L 448 432 Z M 368 80 L 368 224 L 368 80 L 368 224 L 80 224 L 80 224 L 80 80 L 80 80 L 368 80 L 368 80 Z M 80 64 L 64 64 L 80 64 L 64 64 L 64 80 L 64 80 L 64 224 L 64 224 L 64 240 L 64 240 L 80 240 L 384 240 L 384 224 L 384 224 L 384 80 L 384 80 L 384 64 L 384 64 L 368 64 L 80 64 Z M 112 288 L 104 288 L 112 288 L 104 288 L 104 296 L 104 296 L 104 328 L 104 328 L 72 328 L 64 328 L 64 336 L 64 336 L 64 344 L 64 344 L 72 344 L 104 344 L 104 376 L 104 376 L 104 384 L 104 384 L 112 384 L 120 384 L 120 376 L 120 376 L 120 344 L 120 344 L 152 344 L 160 344 L 160 336 L 160 336 L 160 328 L 160 328 L 152 328 L 120 328 L 120 296 L 120 296 L 120 288 L 120 288 L 112 288 L 112 288 Z M 240 336 Q 225 335 224 320 Q 225 305 240 304 Q 255 305 256 320 Q 255 335 240 336 L 240 336 Z M 208 320 Q 208 334 217 343 L 217 343 L 217 343 Q 226 352 240 352 Q 254 352 263 343 Q 272 334 272 320 Q 272 306 263 297 Q 254 288 240 288 Q 226 288 217 297 Q 208 306 208 320 L 208 320 Z M 336 320 Q 335 335 320 336 Q 305 335 304 320 Q 305 305 320 304 Q 335 305 336 320 L 336 320 Z M 320 288 Q 306 288 297 297 L 297 297 L 297 297 Q 288 306 288 320 Q 288 334 297 343 Q 306 352 320 352 Q 334 352 343 343 Q 352 334 352 320 Q 352 306 343 297 Q 334 288 320 288 L 320 288 Z M 496 160 L 496 112 L 496 160 L 496 112 L 560 112 L 560 112 L 560 160 L 560 160 L 496 160 L 496 160 Z" />
</svg>