<svg xmlns="http://www.w3.org/2000/svg" viewBox="0 0 448 448">
  <path d="M 224 16 Q 136 18 77 77 L 77 77 L 77 77 Q 18 136 16 224 Q 18 312 77 371 Q 136 430 224 432 Q 310 430 368 374 Q 427 317 432 232 L 232 232 L 224 232 L 224 216 L 224 216 L 232 216 L 448 216 L 448 224 L 448 224 Q 447 287 417 337 Q 388 388 337 417 Q 287 447 224 448 Q 161 447 111 417 Q 60 388 31 337 Q 1 287 0 224 Q 1 161 31 111 Q 60 60 111 31 Q 161 1 224 0 Q 312 2 373 57 L 379 62 L 379 62 L 369 74 L 369 74 L 363 69 L 363 69 Q 306 18 224 16 L 224 16 Z" />
</svg>