<svg xmlns="http://www.w3.org/2000/svg" viewBox="0 0 640 384">
  <path d="M 0 0 L 0 16 L 0 0 L 0 16 L 0 368 L 0 368 L 0 384 L 0 384 L 16 384 L 640 384 L 640 368 L 640 368 L 640 256 L 640 256 L 640 240 L 640 240 L 624 240 L 624 240 Q 604 239 590 226 Q 577 212 576 192 Q 577 172 590 158 Q 604 145 624 144 L 640 144 L 640 144 L 640 128 L 640 128 L 640 16 L 640 16 L 640 0 L 640 0 L 624 0 L 0 0 Z M 624 368 L 16 368 L 624 368 L 16 368 L 16 16 L 16 16 L 624 16 L 624 16 L 624 128 L 624 128 Q 597 129 579 147 Q 561 165 560 192 Q 561 219 579 237 Q 597 255 624 256 L 624 368 L 624 368 Z M 480 96 Q 479 81 464 80 Q 449 81 448 96 Q 449 111 464 112 Q 479 111 480 96 L 480 96 Z M 480 160 Q 479 145 464 144 Q 449 145 448 160 Q 449 175 464 176 Q 479 175 480 160 L 480 160 Z M 464 240 Q 479 239 480 224 Q 479 209 464 208 Q 449 209 448 224 Q 449 239 464 240 L 464 240 Z M 480 288 Q 479 273 464 272 Q 449 273 448 288 Q 449 303 464 304 Q 479 303 480 288 L 480 288 Z" />
</svg>