<svg xmlns="http://www.w3.org/2000/svg" viewBox="0 0 583 512">
  <path d="M 292 16 Q 225 17 171 49 L 171 49 L 171 49 Q 117 81 85 135 L 85 135 L 85 135 Q 53 189 52 256 L 36 256 L 36 256 Q 37 184 71 127 Q 105 69 163 35 Q 220 1 292 0 Q 364 1 421 35 Q 479 69 513 127 Q 547 184 548 256 L 532 256 L 532 256 Q 531 189 499 135 Q 467 81 413 49 Q 359 17 292 16 L 292 16 Z M 230 488 Q 260 496 292 496 Q 324 496 354 488 L 358 503 L 358 503 Q 326 512 292 512 Q 258 512 226 503 L 230 488 L 230 488 Z M 193 157 Q 170 167 153 193 Q 138 220 140 243 Q 143 266 159 276 Q 176 285 199 275 Q 222 265 239 239 Q 254 212 252 189 Q 249 166 233 156 Q 216 147 193 157 L 193 157 Z M 187 143 Q 215 130 241 142 Q 265 157 268 187 Q 270 217 252 247 Q 233 277 205 290 Q 177 302 151 290 Q 127 275 124 245 Q 122 216 140 185 Q 159 155 187 143 L 187 143 Z M 431 193 Q 414 167 391 157 Q 368 148 351 156 Q 335 166 332 189 Q 330 212 345 239 Q 362 265 385 275 Q 408 285 425 276 Q 441 266 444 243 Q 446 220 431 193 L 431 193 Z M 343 142 Q 369 130 397 143 Q 425 155 444 185 Q 462 216 460 245 Q 457 275 433 290 Q 407 302 379 290 Q 351 277 332 247 Q 314 217 316 187 Q 319 157 343 142 L 343 142 Z M 340 400 L 340 368 L 340 400 L 340 368 Q 339 348 326 334 Q 312 321 292 320 Q 272 321 258 334 Q 245 348 244 368 L 244 400 L 244 400 Q 245 420 258 434 Q 272 447 292 448 Q 312 447 326 434 Q 339 420 340 400 L 340 400 Z M 292 304 Q 319 305 337 323 L 337 323 L 337 323 Q 355 341 356 368 L 356 400 L 356 400 Q 355 427 337 445 Q 319 463 292 464 Q 265 463 247 445 Q 229 427 228 400 L 228 368 L 228 368 Q 229 341 247 323 Q 265 305 292 304 L 292 304 Z M 81 316 Q 121 352 143 405 L 143 405 L 143 405 Q 165 459 171 512 L 155 512 L 155 512 Q 149 463 129 414 Q 110 366 75 333 L 22 380 L 22 380 Q 59 439 62 512 L 126 512 L 126 512 L 46 512 L 46 512 Q 43 440 4 383 L 0 377 L 0 377 L 6 372 L 6 372 L 70 316 L 70 316 L 75 312 L 75 312 L 80 316 L 81 316 Z M 580 383 Q 542 440 538 512 L 458 512 L 458 512 L 522 512 L 522 512 Q 525 439 562 380 L 509 333 L 509 333 Q 474 366 455 414 Q 435 463 429 512 L 413 512 L 413 512 Q 419 459 441 405 Q 463 352 503 316 L 509 312 L 509 312 L 514 316 L 514 316 L 578 372 L 578 372 L 583 377 L 583 377 L 579 383 L 580 383 Z" />
</svg>