<svg xmlns="http://www.w3.org/2000/svg" viewBox="0 0 640 512">
  <path d="M 334 34 L 334 34 L 334 34 L 334 34 Q 309 61 304 95 L 288 80 L 288 80 L 258 109 L 258 109 Q 237 129 228 154 L 48 15 L 48 15 L 29 0 L 29 0 L 0 38 L 0 38 L 19 53 L 19 53 L 592 497 L 592 497 L 611 512 L 611 512 L 640 474 L 640 474 L 621 459 L 621 459 L 456 331 L 456 331 L 456 331 L 456 331 L 496 288 L 496 288 L 486 278 L 486 278 Q 512 272 532 252 L 542 242 L 542 242 L 576 208 L 576 208 L 547 179 L 547 179 Q 545 177 544 176 Q 543 175 542 174 Q 525 159 504 151 Q 536 144 556 120 Q 575 97 576 64 L 576 48 L 576 48 L 576 0 L 576 0 L 528 0 L 512 0 Q 479 1 456 21 Q 432 40 426 72 Q 417 51 402 34 Q 400 32 398 30 L 397 29 L 397 29 L 368 0 L 368 0 L 335 33 L 335 33 L 334 34 L 334 34 Z M 417 301 L 374 268 L 417 301 L 374 268 Q 405 267 430 289 L 421 298 L 421 298 Q 419 300 417 301 L 417 301 Z M 307 216 L 270 187 L 307 216 L 270 187 Q 271 164 287 147 Q 314 177 307 216 L 307 216 Z M 176 349 L 185 357 L 176 349 L 185 357 Q 185 357 185 357 Q 185 357 185 357 L 82 460 L 82 460 L 65 477 L 65 477 L 99 511 L 99 511 L 116 494 L 116 494 L 219 391 L 219 391 L 227 400 L 227 400 Q 262 433 307 433 Q 351 433 386 400 L 348 370 L 348 370 Q 328 386 304 385 Q 280 384 261 366 L 254 359 L 254 359 Q 290 339 327 354 L 228 276 L 228 276 Q 230 300 217 322 L 210 315 L 210 315 Q 183 285 194 249 L 155 218 L 155 218 Q 139 251 144 286 Q 149 321 176 349 L 176 349 Z M 368 68 Q 385 89 387 115 L 387 115 L 387 115 Q 388 140 375 163 L 369 157 L 369 157 Q 351 138 350 113 Q 350 88 368 68 L 368 68 Z M 413 201 Q 436 188 461 189 L 461 189 L 461 189 Q 487 191 508 208 L 498 218 L 498 218 Q 483 232 464 232 Q 445 232 430 218 L 413 201 L 413 201 Z M 512 48 L 528 48 L 512 48 L 528 48 L 528 64 L 528 64 Q 528 81 516 92 Q 505 104 488 104 L 472 104 L 472 104 L 472 88 L 472 88 Q 472 71 484 60 Q 495 48 512 48 L 512 48 Z" />
</svg>