<svg xmlns="http://www.w3.org/2000/svg" viewBox="0 0 416 512">
  <path d="M 296 0 L 272 0 L 296 0 L 272 0 L 272 48 L 272 48 L 296 48 L 334 48 L 291 91 L 291 91 Q 243 49 176 48 Q 101 50 52 100 Q 2 149 0 224 Q 1 292 44 340 Q 86 388 152 398 L 152 416 L 152 416 L 128 416 L 104 416 L 104 464 L 104 464 L 128 464 L 152 464 L 152 488 L 152 488 L 152 512 L 152 512 L 200 512 L 200 512 L 200 488 L 200 488 L 200 464 L 200 464 L 224 464 L 248 464 L 248 416 L 248 416 L 224 416 L 200 416 L 200 398 L 200 398 Q 266 388 308 340 Q 351 292 352 224 Q 351 170 323 127 L 368 82 L 368 82 L 368 120 L 368 120 L 368 144 L 368 144 L 416 144 L 416 144 L 416 120 L 416 120 L 416 24 L 416 24 L 416 0 L 416 0 L 392 0 L 296 0 Z M 176 96 Q 211 96 240 113 L 240 113 L 240 113 Q 269 130 287 160 Q 304 190 304 224 Q 304 258 287 288 Q 269 318 240 335 Q 211 352 176 352 Q 141 352 112 335 Q 83 318 65 288 Q 48 258 48 224 Q 48 190 65 160 Q 83 130 112 113 Q 141 96 176 96 L 176 96 Z" />
</svg>