<svg xmlns="http://www.w3.org/2000/svg" viewBox="0 0 384 512">
  <path d="M 128 0 L 136 0 L 128 0 L 256 0 L 256 8 L 256 8 L 256 128 L 256 128 L 376 128 L 384 128 L 384 136 L 384 136 L 384 248 L 384 248 L 384 256 L 384 256 L 376 256 L 256 256 L 256 504 L 256 504 L 256 512 L 256 512 L 248 512 L 128 512 L 128 504 L 128 504 L 128 256 L 128 256 L 8 256 L 0 256 L 0 248 L 0 248 L 0 136 L 0 136 L 0 128 L 0 128 L 8 128 L 128 128 L 128 8 L 128 8 L 128 0 L 128 0 Z M 144 16 L 144 136 L 144 16 L 144 136 L 144 144 L 144 144 L 136 144 L 16 144 L 16 240 L 16 240 L 136 240 L 144 240 L 144 248 L 144 248 L 144 496 L 144 496 L 240 496 L 240 496 L 240 248 L 240 248 L 240 240 L 240 240 L 248 240 L 368 240 L 368 144 L 368 144 L 248 144 L 240 144 L 240 136 L 240 136 L 240 16 L 240 16 L 144 16 L 144 16 Z" />
</svg>