<svg xmlns="http://www.w3.org/2000/svg" viewBox="0 0 636 512">
  <path d="M 213 90 L 181 19 L 213 90 L 181 19 L 172 0 L 172 0 L 163 19 L 163 19 L 131 90 L 131 90 L 55 71 L 55 71 L 34 66 L 34 66 L 44 85 L 44 85 L 79 155 L 79 155 L 17 202 L 17 202 L 0 215 L 0 215 L 21 220 L 21 220 L 97 236 L 97 236 L 96 314 L 96 314 L 96 335 L 96 335 L 112 321 L 112 321 L 172 271 L 172 271 L 229 318 L 229 318 Q 220 303 214 285 L 182 259 L 182 259 L 172 251 L 172 251 L 162 259 L 162 259 L 112 300 L 112 300 L 114 236 L 114 236 L 114 223 L 114 223 L 101 220 L 101 220 L 38 207 L 38 207 L 89 167 L 89 167 L 99 159 L 99 159 L 93 148 L 93 148 L 64 90 L 64 90 L 127 106 L 127 106 L 140 109 L 140 109 L 145 97 L 145 97 L 172 38 L 172 38 L 199 97 L 199 97 L 204 109 L 204 109 L 217 106 L 217 106 L 252 97 L 252 97 Q 263 85 275 75 L 213 90 L 213 90 Z M 516 0 L 508 0 L 516 0 L 508 0 L 508 16 L 508 16 L 516 16 L 609 16 L 512 113 L 512 113 Q 466 66 396 64 Q 328 66 283 111 Q 238 156 236 224 Q 238 290 280 334 Q 323 379 388 384 L 388 384 L 388 384 L 388 432 L 388 432 L 340 432 L 332 432 L 332 448 L 332 448 L 340 448 L 388 448 L 388 504 L 388 504 L 388 512 L 388 512 L 404 512 L 404 512 L 404 504 L 404 504 L 404 448 L 404 448 L 452 448 L 460 448 L 460 432 L 460 432 L 452 432 L 404 432 L 404 384 L 404 384 L 404 384 L 404 384 Q 469 379 512 334 Q 554 290 556 224 Q 555 167 522 125 L 620 27 L 620 27 L 620 120 L 620 120 L 620 128 L 620 128 L 636 128 L 636 128 L 636 120 L 636 120 L 636 8 L 636 8 L 636 0 L 636 0 L 628 0 L 516 0 Z M 252 224 Q 252 185 271 152 L 271 152 L 271 152 Q 290 119 324 99 Q 358 80 396 80 Q 434 80 468 99 Q 502 119 521 152 Q 540 185 540 224 Q 540 263 521 296 Q 502 329 468 349 Q 434 368 396 368 Q 358 368 324 349 Q 290 329 271 296 Q 252 263 252 224 L 252 224 Z" />
</svg>