<svg xmlns="http://www.w3.org/2000/svg" viewBox="0 0 448 448">
  <path d="M 16 16 L 16 432 L 16 16 L 16 432 L 432 432 L 432 432 L 432 16 L 432 16 L 16 16 L 16 16 Z M 0 0 L 16 0 L 0 0 L 448 0 L 448 16 L 448 16 L 448 432 L 448 432 L 448 448 L 448 448 L 432 448 L 0 448 L 0 432 L 0 432 L 0 16 L 0 16 L 0 0 L 0 0 Z M 304 104 L 304 264 L 304 104 L 304 264 Q 303 301 278 326 Q 253 351 216 352 Q 179 351 154 326 Q 129 301 128 264 L 128 248 L 128 248 L 128 240 L 128 240 L 144 240 L 144 240 L 144 248 L 144 248 L 144 264 L 144 264 Q 145 295 165 315 Q 185 335 216 336 Q 247 335 267 315 Q 287 295 288 264 L 288 104 L 288 104 L 288 96 L 288 96 L 304 96 L 304 96 L 304 104 L 304 104 Z" />
</svg>