<svg xmlns="http://www.w3.org/2000/svg" viewBox="0 0 512 512">
  <path d="M 115.2 153.6 Q 116 117.6 147.2 98.4 Q 179.2 80.8 211.2 98.4 Q 242.4 117.6 243.2 153.6 Q 242.4 189.6 211.2 208.8 Q 179.2 226.4 147.2 208.8 Q 116 189.6 115.2 153.6 L 115.2 153.6 Z M 52 422.4 L 80 332.8 L 256 332.8 L 279.2 332.8 L 307.2 332.8 L 307.2 294.4 L 307.2 294.4 L 179.2 294.4 L 51.2 294.4 L 12 422.4 L 0 460.8 L 40 460.8 L 307.2 460.8 L 307.2 422.4 L 306.4 422.4 L 256 422.4 L 52 422.4 L 52 422.4 Z M 179.2 256 Q 207.2 256 230.4 242.4 L 230.4 242.4 Q 253.6 228.8 268 204.8 Q 281.6 180.8 281.6 153.6 Q 281.6 126.4 268 102.4 Q 253.6 78.4 230.4 64.8 Q 207.2 51.2 179.2 51.2 Q 151.2 51.2 128 64.8 Q 104.8 78.4 90.4 102.4 Q 76.8 126.4 76.8 153.6 Q 76.8 180.8 90.4 204.8 Q 104.8 228.8 128 242.4 Q 151.2 256 179.2 256 L 179.2 256 Z M 422.4 243.2 Q 433.6 243.2 440.8 250.4 L 440.8 250.4 Q 448 257.6 448 268.8 L 448 307.2 L 396.8 307.2 L 396.8 268.8 Q 396.8 257.6 404 250.4 Q 411.2 243.2 422.4 243.2 L 422.4 243.2 Z M 358.4 268.8 L 358.4 307.2 L 332.8 307.2 L 332.8 460.8 L 512 460.8 L 512 307.2 L 486.4 307.2 L 486.4 268.8 Q 485.6 241.6 468 223.2 Q 449.6 205.6 422.4 204.8 Q 395.2 205.6 376.8 223.2 Q 359.2 241.6 358.4 268.8 L 358.4 268.8 Z" />
</svg>