<svg xmlns="http://www.w3.org/2000/svg" viewBox="0 0 640 512">
  <path d="M 160 112 L 16 112 L 160 112 L 0 112 L 0 128 L 0 128 L 0 496 L 0 496 L 0 512 L 0 512 L 16 512 L 395 512 Q 384 505 375 496 L 368 496 L 272 496 L 272 384 L 272 384 Q 273 364 286 350 Q 300 337 320 336 Q 321 336 323 336 Q 324 328 326 320 Q 323 320 320 320 Q 293 321 275 339 Q 257 357 256 384 L 256 496 L 256 496 L 16 496 L 16 496 L 16 128 L 16 128 L 160 128 L 165 128 L 169 125 L 169 125 L 320 20 L 320 20 L 471 125 L 471 125 L 475 128 L 475 128 L 480 128 L 624 128 L 624 247 L 624 247 Q 633 256 640 267 L 640 128 L 640 128 L 640 112 L 640 112 L 624 112 L 480 112 L 320 0 L 320 0 L 160 112 L 160 112 Z M 72 192 L 64 192 L 72 192 L 64 192 L 64 200 L 64 200 L 64 280 L 64 280 L 64 288 L 64 288 L 72 288 L 144 288 L 144 280 L 144 280 L 144 200 L 144 200 L 144 192 L 144 192 L 136 192 L 72 192 Z M 80 272 L 80 208 L 80 272 L 80 208 L 128 208 L 128 208 L 128 272 L 128 272 L 80 272 L 80 272 Z M 320 112 Q 356 113 375 144 Q 393 176 375 208 Q 356 239 320 240 Q 284 239 265 208 Q 247 176 265 144 Q 284 113 320 112 L 320 112 Z M 320 256 Q 365 255 389 216 Q 411 176 389 136 Q 365 97 320 96 Q 275 97 251 136 Q 229 176 251 216 Q 275 255 320 256 L 320 256 Z M 328 144 L 328 136 L 328 144 L 328 136 L 312 136 L 312 136 L 312 144 L 312 144 L 312 176 L 312 176 L 312 184 L 312 184 L 320 184 L 352 184 L 352 168 L 352 168 L 344 168 L 328 168 L 328 144 L 328 144 Z M 64 320 L 64 328 L 64 320 L 64 328 L 64 408 L 64 408 L 64 416 L 64 416 L 72 416 L 144 416 L 144 408 L 144 408 L 144 328 L 144 328 L 144 320 L 144 320 L 136 320 L 64 320 Z M 80 336 L 128 336 L 80 336 L 128 336 L 128 400 L 128 400 L 80 400 L 80 400 L 80 336 L 80 336 Z M 496 240 Q 531 240 560 257 L 560 257 L 560 257 Q 589 274 607 304 Q 624 334 624 368 Q 624 402 607 432 Q 589 462 560 479 Q 531 496 496 496 Q 461 496 432 479 Q 403 462 385 432 Q 368 402 368 368 Q 368 334 385 304 Q 403 274 432 257 Q 461 240 496 240 L 496 240 Z M 496 512 Q 535 512 568 493 L 568 493 L 568 493 Q 601 474 621 440 Q 640 406 640 368 Q 640 330 621 296 Q 601 262 568 243 Q 535 224 496 224 Q 457 224 424 243 Q 391 262 371 296 Q 352 330 352 368 Q 352 406 371 440 Q 391 474 424 493 Q 457 512 496 512 L 496 512 Z M 571 328 L 560 317 L 571 328 L 560 317 L 554 322 L 554 322 L 480 397 L 480 397 L 438 354 L 438 354 L 432 349 L 432 349 L 421 360 L 421 360 L 426 366 L 426 366 L 474 414 L 474 414 L 480 419 L 480 419 L 486 414 L 486 414 L 566 334 L 566 334 L 572 328 L 571 328 Z" />
</svg>