<svg xmlns="http://www.w3.org/2000/svg" viewBox="0 0 640 512">
  <path d="M 455 454 Q 396 495 320 496 Q 253 495 199 463 Q 145 431 113 377 Q 81 323 80 256 Q 80 211 96 171 L 83 160 L 83 160 Q 64 205 64 256 Q 65 328 99 385 Q 133 443 191 477 Q 248 511 320 512 Q 404 511 468 465 L 455 454 L 455 454 Z M 320 0 Q 236 1 172 47 L 185 58 L 185 58 Q 244 17 320 16 Q 387 17 441 49 Q 495 81 527 135 Q 559 189 560 256 Q 560 301 544 341 L 558 352 L 558 352 Q 576 307 576 256 Q 575 184 541 127 Q 507 69 449 35 Q 392 1 320 0 L 320 0 Z M 198 365 L 192 384 L 198 365 L 192 384 L 211 378 L 211 378 L 314 343 L 314 343 L 299 331 L 299 331 L 217 359 L 217 359 L 242 286 L 242 286 L 228 275 L 228 275 L 198 365 L 198 365 Z M 326 169 L 341 181 L 326 169 L 341 181 L 423 153 L 423 153 L 398 226 L 398 226 L 412 237 L 412 237 L 442 147 L 442 147 L 448 128 L 448 128 L 429 134 L 429 134 L 326 169 L 326 169 Z M 16 5 L 10 0 L 16 5 L 10 0 L 0 13 L 0 13 L 6 18 L 6 18 L 624 507 L 624 507 L 630 512 L 630 512 L 640 500 L 640 500 L 634 495 L 634 495 L 16 5 L 16 5 Z" />
</svg>