<svg xmlns="http://www.w3.org/2000/svg" viewBox="0 0 384 512">
  <path d="M 16 496 L 16 16 L 16 496 L 16 16 L 208 16 L 208 16 L 208 168 L 208 168 L 208 176 L 208 176 L 216 176 L 368 176 L 368 496 L 368 496 L 16 496 L 16 496 Z M 224 23 L 361 160 L 224 23 L 361 160 L 224 160 L 224 160 L 224 23 L 224 23 Z M 224 0 L 16 0 L 224 0 L 0 0 L 0 16 L 0 16 L 0 496 L 0 496 L 0 512 L 0 512 L 16 512 L 384 512 L 384 496 L 384 496 L 384 160 L 384 160 L 224 0 L 224 0 Z M 72 64 L 64 64 L 72 64 L 64 64 L 64 80 L 64 80 L 72 80 L 160 80 L 160 64 L 160 64 L 152 64 L 72 64 Z M 72 128 L 64 128 L 72 128 L 64 128 L 64 144 L 64 144 L 72 144 L 160 144 L 160 128 L 160 128 L 152 128 L 72 128 Z M 120 296 L 114 296 L 120 296 L 114 296 L 112 302 L 112 302 L 90 384 L 90 384 L 64 384 L 56 384 L 56 400 L 56 400 L 64 400 L 102 400 L 104 394 L 104 394 L 126 312 L 126 312 L 130 312 L 130 312 L 152 394 L 152 394 L 154 400 L 154 400 L 160 400 L 173 400 L 175 396 L 175 396 L 205 344 L 205 344 L 219 344 L 219 344 L 249 396 L 249 396 L 251 400 L 251 400 L 256 400 L 328 400 L 328 384 L 328 384 L 320 384 L 261 384 L 231 332 L 231 332 L 229 328 L 229 328 L 224 328 L 195 328 L 193 332 L 193 332 L 165 381 L 165 381 L 144 302 L 144 302 L 142 296 L 142 296 L 136 296 L 120 296 Z" />
</svg>