<svg xmlns="http://www.w3.org/2000/svg" viewBox="0 0 512 512">
  <path d="M 192 0 Q 177 1 176 16 Q 177 31 192 32 Q 272 33 337 71 Q 402 110 441 175 Q 479 240 480 320 Q 481 335 496 336 Q 511 335 512 320 Q 511 231 468 159 Q 426 86 353 44 Q 281 1 192 0 L 192 0 Z M 192 96 Q 177 97 176 112 Q 177 127 192 128 Q 274 130 328 184 Q 382 238 384 320 Q 385 335 400 336 Q 415 335 416 320 Q 415 257 385 207 Q 356 156 305 127 Q 255 97 192 96 L 192 96 Z M 32 304 Q 32 267 46 235 L 277 466 L 277 466 Q 245 480 208 480 Q 133 478 84 428 Q 34 379 32 304 L 32 304 Z M 0 304 Q 2 392 61 451 L 61 451 L 61 451 Q 120 510 208 512 Q 258 512 301 490 Q 316 483 329 473 L 306 450 L 306 450 L 195 339 L 195 339 L 219 315 L 219 315 Q 229 320 240 320 Q 260 319 274 306 Q 287 292 288 272 Q 287 252 274 238 Q 260 225 240 224 Q 220 225 206 238 Q 193 252 192 272 Q 192 283 197 293 L 173 317 L 173 317 L 62 206 L 62 206 L 39 183 L 39 183 Q 29 196 22 211 Q 0 254 0 304 L 0 304 Z M 224 272 Q 225 257 240 256 Q 255 257 256 272 Q 255 287 240 288 Q 225 287 224 272 L 224 272 Z" />
</svg>