<svg xmlns="http://www.w3.org/2000/svg" viewBox="0 0 640 512">
  <path d="M 16 5 L 10 0 L 16 5 L 10 0 L 0 13 L 0 13 L 6 18 L 6 18 L 624 507 L 624 507 L 630 512 L 630 512 L 640 500 L 640 500 L 634 495 L 634 495 L 16 5 L 16 5 Z M 386 400 L 48 400 L 386 400 L 48 400 L 48 133 L 48 133 L 32 120 L 32 120 L 32 400 L 32 400 L 32 416 L 32 416 L 48 416 L 407 416 L 386 400 L 386 400 Z M 544 96 L 234 96 L 544 96 L 234 96 L 254 112 L 254 112 L 544 112 L 544 112 L 544 192 L 544 192 L 544 208 L 544 208 L 544 304 L 544 304 L 544 320 L 544 320 L 544 341 L 544 341 L 560 354 L 560 354 L 560 320 L 560 320 L 592 320 L 608 320 L 608 304 L 608 304 L 608 208 L 608 208 L 608 192 L 608 192 L 592 192 L 560 192 L 560 112 L 560 112 L 560 96 L 560 96 L 544 96 L 544 96 Z M 560 208 L 592 208 L 560 208 L 592 208 L 592 304 L 592 304 L 560 304 L 560 304 L 560 208 L 560 208 Z" />
</svg>