<svg xmlns="http://www.w3.org/2000/svg" viewBox="0 0 374 390">
  <path d="M 193 5 L 187 0 L 193 5 L 187 0 L 181 5 L 181 5 L 5 181 L 5 181 L 0 187 L 0 187 L 11 198 L 11 198 L 17 193 L 17 193 L 187 22 L 187 22 L 357 193 L 357 193 L 363 198 L 363 198 L 374 187 L 374 187 L 369 181 L 369 181 L 193 5 L 193 5 Z M 193 197 L 187 192 L 193 197 L 187 192 L 181 197 L 181 197 L 5 373 L 5 373 L 0 379 L 0 379 L 11 390 L 11 390 L 17 385 L 17 385 L 187 214 L 187 214 L 357 385 L 357 385 L 363 390 L 363 390 L 374 379 L 374 379 L 369 373 L 369 373 L 193 197 L 193 197 Z" />
</svg>