<svg xmlns="http://www.w3.org/2000/svg" viewBox="0 0 512 512">
  <path d="M 267 496 Q 264 480 264 464 Q 264 456 265 447 L 265 439 L 265 439 L 281 441 L 281 441 L 281 449 L 281 449 Q 280 456 280 464 Q 280 479 283 494 Q 368 484 426 426 Q 484 368 495 282 Q 480 280 464 280 Q 456 280 449 281 L 441 281 L 441 281 L 439 265 L 439 265 L 447 265 L 447 265 Q 456 264 464 264 Q 480 264 496 266 Q 496 261 496 256 Q 495 189 463 135 Q 431 81 377 49 Q 323 17 256 16 Q 253 16 251 16 Q 248 16 246 16 Q 248 32 248 48 Q 248 56 247 65 L 247 73 L 247 73 L 231 71 L 231 71 L 231 63 L 231 63 Q 232 56 232 48 Q 232 32 230 17 Q 144 28 86 86 Q 28 144 18 230 Q 32 232 48 232 Q 56 232 63 231 L 71 231 L 71 231 L 73 247 L 73 247 L 65 247 L 65 247 Q 57 248 48 248 Q 32 248 16 245 Q 16 251 16 256 Q 16 256 16 256 Q 17 323 49 377 Q 81 431 135 463 Q 189 495 256 496 Q 259 496 261 496 Q 264 496 267 496 L 267 496 Z M 0 256 Q 1 186 34 128 L 34 128 L 34 128 Q 68 70 128 34 Q 189 0 256 0 Q 323 0 384 34 Q 444 70 478 128 Q 511 186 512 256 Q 511 326 478 384 Q 444 442 384 478 Q 323 512 256 512 Q 189 512 128 478 Q 68 442 34 384 Q 1 326 0 256 L 0 256 Z M 125 215 Q 186 186 215 125 L 219 117 L 219 117 L 233 124 L 233 124 L 230 131 L 230 131 Q 198 198 131 230 L 124 233 L 124 233 L 117 219 L 117 219 L 125 215 L 125 215 Z M 387 297 Q 326 326 297 387 L 293 395 L 293 395 L 279 388 L 279 388 L 282 381 L 282 381 Q 314 314 381 282 L 388 279 L 388 279 L 395 293 L 395 293 L 387 297 L 387 297 Z" />
</svg>