<svg xmlns="http://www.w3.org/2000/svg" viewBox="0 0 576 448">
  <path d="M 16 16 L 16 432 L 16 16 L 16 432 L 560 432 L 560 432 L 560 16 L 560 16 L 16 16 L 16 16 Z M 0 0 L 16 0 L 0 0 L 576 0 L 576 16 L 576 16 L 576 432 L 576 432 L 576 448 L 576 448 L 560 448 L 0 448 L 0 432 L 0 432 L 0 16 L 0 16 L 0 0 L 0 0 Z M 112 240 L 304 240 L 112 240 L 312 240 L 312 256 L 312 256 L 304 256 L 104 256 L 104 240 L 104 240 L 112 240 L 112 240 Z M 368 240 L 464 240 L 368 240 L 472 240 L 472 256 L 472 256 L 464 256 L 360 256 L 360 240 L 360 240 L 368 240 L 368 240 Z M 112 336 L 208 336 L 112 336 L 216 336 L 216 352 L 216 352 L 208 352 L 104 352 L 104 336 L 104 336 L 112 336 L 112 336 Z M 272 336 L 464 336 L 272 336 L 472 336 L 472 352 L 472 352 L 464 352 L 264 352 L 264 336 L 264 336 L 272 336 L 272 336 Z" />
</svg>