<svg xmlns="http://www.w3.org/2000/svg" viewBox="0 0 512 448">
  <path d="M 16 8 L 16 0 L 16 8 L 16 0 L 0 0 L 0 0 L 0 8 L 0 8 L 0 440 L 0 440 L 0 448 L 0 448 L 8 448 L 512 448 L 512 432 L 512 432 L 504 432 L 16 432 L 16 8 L 16 8 Z M 352 320 L 472 320 L 352 320 L 480 320 L 480 312 L 480 312 L 480 192 L 480 192 L 480 184 L 480 184 L 464 184 L 464 184 L 464 192 L 464 192 L 464 293 L 464 293 L 294 122 L 294 122 L 288 117 L 288 117 L 282 122 L 282 122 L 192 213 L 192 213 L 102 122 L 102 122 L 96 117 L 96 117 L 85 128 L 85 128 L 90 134 L 90 134 L 186 230 L 186 230 L 192 235 L 192 235 L 198 230 L 198 230 L 288 139 L 288 139 L 453 304 L 453 304 L 352 304 L 344 304 L 344 320 L 344 320 L 352 320 L 352 320 Z" />
</svg>