<svg xmlns="http://www.w3.org/2000/svg" viewBox="0 0 384 512">
  <path d="M 16 496 L 16 16 L 16 496 L 16 16 L 208 16 L 208 16 L 208 168 L 208 168 L 208 176 L 208 176 L 216 176 L 368 176 L 368 496 L 368 496 L 16 496 L 16 496 Z M 224 23 L 361 160 L 224 23 L 361 160 L 224 160 L 224 160 L 224 23 L 224 23 Z M 224 0 L 16 0 L 224 0 L 0 0 L 0 16 L 0 16 L 0 496 L 0 496 L 0 512 L 0 512 L 16 512 L 384 512 L 384 496 L 384 496 L 384 160 L 384 160 L 224 0 L 224 0 Z M 150 270 L 155 264 L 150 270 L 155 264 L 144 253 L 144 253 L 138 258 L 138 258 L 82 314 L 82 314 L 77 320 L 77 320 L 82 326 L 82 326 L 138 382 L 138 382 L 144 387 L 144 387 L 155 376 L 155 376 L 150 370 L 150 370 L 99 320 L 99 320 L 150 270 L 150 270 Z M 246 258 L 240 253 L 246 258 L 240 253 L 229 264 L 229 264 L 234 270 L 234 270 L 285 320 L 285 320 L 234 370 L 234 370 L 229 376 L 229 376 L 240 387 L 240 387 L 246 382 L 246 382 L 302 326 L 302 326 L 307 320 L 307 320 L 302 314 L 302 314 L 246 258 L 246 258 Z" />
</svg>