<svg xmlns="http://www.w3.org/2000/svg" viewBox="0 0 513 512">
  <path d="M 192 80 Q 206 80 215 71 L 215 71 L 215 71 Q 224 62 224 48 Q 224 34 215 25 Q 206 16 192 16 Q 178 16 169 25 Q 160 34 160 48 Q 160 62 169 71 Q 178 80 192 80 L 192 80 Z M 192 0 Q 219 1 234 24 Q 246 48 234 72 Q 219 95 192 96 Q 165 95 150 72 Q 138 48 150 24 Q 165 1 192 0 L 192 0 Z M 137 210 Q 85 219 51 258 L 51 258 L 51 258 Q 17 297 16 352 Q 18 413 58 454 Q 99 494 160 496 Q 211 495 248 466 Q 286 437 299 390 L 314 394 L 314 394 Q 300 446 258 479 Q 216 511 160 512 Q 92 510 47 465 Q 2 420 0 352 Q 1 291 39 248 Q 76 204 135 194 L 137 210 L 137 210 Z M 336 240 L 289 240 L 336 240 L 273 240 L 276 256 L 276 256 L 282 288 L 282 288 L 384 288 L 406 288 L 414 309 L 414 309 L 451 408 L 451 408 L 462 404 L 462 404 L 477 399 L 477 399 L 492 394 L 492 394 L 497 409 L 497 409 L 508 439 L 508 439 L 513 455 L 513 455 L 497 460 L 497 460 L 482 465 L 482 465 L 442 478 L 442 478 L 413 488 L 413 488 L 402 459 L 402 459 L 362 352 L 362 352 L 257 352 L 257 352 Q 256 352 256 352 Q 256 352 255 352 L 224 352 L 198 352 L 193 326 L 193 326 L 161 166 L 161 166 L 156 144 L 156 144 L 153 128 L 153 128 L 169 128 L 250 128 L 255 154 L 255 154 L 260 176 L 260 176 L 336 176 L 368 176 L 368 192 L 368 192 L 368 224 L 368 224 L 368 240 L 368 240 L 352 240 L 336 240 Z M 384 304 L 282 304 L 384 304 L 269 304 L 267 291 L 267 291 L 257 243 L 257 243 L 253 224 L 253 224 L 273 224 L 352 224 L 352 192 L 352 192 L 336 192 L 247 192 L 244 179 L 244 179 L 240 157 L 240 157 L 237 144 L 237 144 L 224 144 L 173 144 L 176 163 L 176 163 L 208 323 L 208 323 L 211 336 L 211 336 L 224 336 L 256 336 Q 256 336 256 336 Q 256 336 256 336 Q 256 336 256 336 Q 256 336 256 336 Q 256 336 256 336 Q 256 336 256 336 L 257 336 L 257 336 Q 257 336 257 336 Q 257 336 257 336 L 362 336 L 373 336 L 377 346 L 377 346 L 417 454 L 417 454 L 422 468 L 422 468 L 437 463 L 437 463 L 477 450 L 477 450 L 492 445 L 492 445 L 482 414 L 482 414 L 467 419 L 467 419 L 456 423 L 456 423 L 441 428 L 441 428 L 436 413 L 436 413 L 399 314 L 399 314 L 395 304 L 395 304 L 384 304 L 384 304 Z" />
</svg>