<svg xmlns="http://www.w3.org/2000/svg" viewBox="0 0 512 512">
  <path d="M 248 68.8 L 256 76 L 264 68.8 Q 281.6 51.2 306.4 51.2 L 308.8 51.2 Q 333.6 52 350.4 68.8 Q 367.2 85.6 368 110.4 Q 368 135.2 349.6 152.8 L 267.2 232.8 L 256 243.2 L 244.8 232.8 L 162.4 152.8 Q 144 135.2 144 110.4 Q 144.8 85.6 161.6 68.8 Q 178.4 52 203.2 51.2 L 205.6 51.2 Q 230.4 51.2 248 68.8 L 248 68.8 Z M 332 134.4 Q 342.4 124.8 342.4 110.4 Q 342.4 96 332.8 86.4 Q 323.2 76.8 308.8 76.8 L 306.4 76.8 Q 292 76.8 281.6 87.2 L 273.6 94.4 L 256 111.2 L 238.4 94.4 L 230.4 87.2 Q 220 76.8 205.6 76.8 L 203.2 76.8 Q 188.8 76.8 179.2 86.4 Q 169.6 96 169.6 110.4 Q 169.6 124.8 180 134.4 L 256 208 L 332 134.4 L 332 134.4 Z M 89.6 102.4 L 102.4 102.4 L 102.4 115.2 L 102.4 263.2 L 132 234.4 L 140.8 224.8 L 149.6 234.4 L 256 340 L 362.4 234.4 L 371.2 224.8 L 380 234.4 L 409.6 263.2 L 409.6 115.2 L 409.6 102.4 L 422.4 102.4 L 499.2 102.4 L 512 102.4 L 512 115.2 L 512 358.4 L 512 364 L 508 367.2 L 424.8 450.4 L 416 460 L 397.6 441.6 L 407.2 432.8 L 486.4 352.8 L 486.4 128 L 435.2 128 L 435.2 281.6 L 435.2 287.2 L 434.4 288 L 431.2 290.4 L 424.8 296.8 L 367.2 354.4 L 358.4 364 L 354.4 367.2 L 345.6 376.8 L 327.2 358.4 L 336.8 349.6 L 340 345.6 L 349.6 336.8 L 397.6 288 L 371.2 261.6 L 268.8 364 L 268.8 448 L 268.8 460.8 L 243.2 460.8 L 243.2 448 L 243.2 364 L 140.8 261.6 L 114.4 288 L 162.4 336.8 L 162.4 336.8 L 175.2 349.6 L 184.8 358.4 L 166.4 376.8 L 157.6 367.2 L 144.8 354.4 L 144.8 354.4 L 87.2 296.8 L 80.8 290.4 L 77.6 288 L 76.8 287.2 L 76.8 281.6 L 76.8 128 L 25.6 128 L 25.6 352.8 L 104.8 432.8 L 114.4 441.6 L 96 460 L 87.2 450.4 L 4 367.2 L 0 364 L 0 358.4 L 0 115.2 L 0 102.4 L 12.8 102.4 L 89.6 102.4 L 89.6 102.4 Z" />
</svg>