<svg xmlns="http://www.w3.org/2000/svg" viewBox="0 0 512 512">
  <path d="M 256 16 Q 321 17 376 48 L 376 48 L 376 48 Q 431 80 464 136 Q 496 193 496 256 Q 496 319 464 376 Q 431 432 376 464 Q 321 495 256 496 Q 191 495 136 464 Q 81 432 48 376 Q 16 319 16 256 Q 16 193 48 136 Q 81 80 136 48 Q 191 17 256 16 L 256 16 Z M 256 512 Q 326 511 384 478 L 384 478 L 384 478 Q 442 444 478 384 Q 512 323 512 256 Q 512 189 478 128 Q 442 68 384 34 Q 326 1 256 0 Q 186 1 128 34 Q 70 68 34 128 Q 0 189 0 256 Q 0 323 34 384 Q 70 444 128 478 Q 186 511 256 512 L 256 512 Z M 177 335 Q 144 301 144 256 L 144 256 L 144 256 Q 144 211 177 177 Q 211 144 256 144 Q 301 144 335 177 L 341 183 L 341 183 L 352 171 L 352 171 L 347 166 L 347 166 Q 307 128 256 128 Q 205 128 166 166 Q 128 205 128 256 Q 128 307 166 347 Q 205 384 256 384 Q 307 384 347 347 L 352 341 L 352 341 L 341 330 L 341 330 L 335 335 L 335 335 Q 301 368 256 368 Q 211 368 177 335 L 177 335 Z" />
</svg>