<svg xmlns="http://www.w3.org/2000/svg" viewBox="0 0 512 512">
  <path d="M 3 495 L 0 512 L 3 495 L 0 512 L 17 509 L 17 509 L 160 480 L 160 480 L 486 155 L 486 155 Q 512 128 512 91 Q 511 52 486 27 Q 460 1 422 0 Q 384 1 358 27 L 302 82 L 302 82 L 254 34 L 254 34 L 248 29 L 248 29 L 242 34 L 242 34 L 146 130 L 146 130 L 141 136 L 141 136 L 152 147 L 152 147 L 158 142 L 158 142 L 248 51 L 248 51 L 290 94 L 290 94 L 32 352 L 32 352 L 3 495 L 3 495 Z M 20 492 L 47 360 L 20 492 L 47 360 L 182 225 L 182 225 L 287 330 L 287 330 L 152 465 L 152 465 L 20 492 L 20 492 Z M 193 214 L 369 38 L 193 214 L 369 38 Q 391 16 422 16 Q 453 17 474 38 Q 495 59 496 91 Q 496 121 474 143 L 298 319 L 298 319 L 193 214 L 193 214 Z" />
</svg>