<svg xmlns="http://www.w3.org/2000/svg" viewBox="0 0 384 448">
  <path d="M 8 0 L 0 0 L 8 0 L 0 0 L 0 16 L 0 16 L 8 16 L 184 16 L 184 186 L 184 186 L 62 216 L 62 216 L 54 218 L 54 218 L 58 234 L 58 234 L 66 232 L 66 232 L 184 202 L 184 202 L 184 282 L 184 282 L 62 312 L 62 312 L 54 314 L 54 314 L 58 330 L 58 330 L 66 328 L 66 328 L 184 298 L 184 298 L 184 440 L 184 440 L 184 448 L 184 448 L 200 448 L 200 448 L 200 440 L 200 440 L 200 294 L 200 294 L 322 264 L 322 264 L 330 262 L 330 262 L 326 246 L 326 246 L 318 248 L 318 248 L 200 278 L 200 278 L 200 198 L 200 198 L 322 168 L 322 168 L 330 166 L 330 166 L 326 150 L 326 150 L 318 152 L 318 152 L 200 182 L 200 182 L 200 16 L 200 16 L 376 16 L 384 16 L 384 0 L 384 0 L 376 0 L 8 0 Z" />
</svg>