<svg xmlns="http://www.w3.org/2000/svg" viewBox="0 0 496 511">
  <path d="M 82 15 L 75 18 L 82 15 L 75 18 L 16 37 L 16 37 L 16 191 L 16 191 Q 17 245 53 282 Q 90 318 144 319 Q 198 318 235 282 Q 271 245 272 191 L 272 37 L 272 37 L 214 18 L 214 18 L 206 15 L 206 15 L 211 0 L 211 0 L 218 3 L 218 3 L 282 23 L 282 23 L 288 25 L 288 25 L 288 31 L 288 31 L 288 191 L 288 191 Q 287 250 248 290 Q 210 330 152 335 L 152 335 L 152 335 L 152 359 L 152 359 Q 153 417 192 455 Q 230 494 288 495 Q 346 494 384 455 Q 422 417 424 359 L 424 255 L 424 255 Q 400 251 384 234 Q 368 216 368 191 Q 369 164 387 146 Q 405 128 432 127 Q 459 128 477 146 Q 495 164 496 191 Q 495 216 480 234 Q 464 251 440 255 L 440 359 L 440 359 Q 438 424 395 466 Q 353 509 288 511 Q 223 509 181 466 Q 138 424 136 359 L 136 335 L 136 335 L 136 335 L 136 335 Q 78 330 40 290 Q 1 250 0 191 L 0 31 L 0 31 L 0 25 L 0 25 L 6 23 L 6 23 L 70 3 L 70 3 L 77 0 L 77 0 L 82 15 L 82 15 Z M 432 143 Q 405 144 390 167 Q 378 191 390 215 Q 405 238 432 239 Q 459 238 474 215 Q 486 191 474 167 Q 459 144 432 143 L 432 143 Z" />
</svg>