<svg xmlns="http://www.w3.org/2000/svg" viewBox="0 0 512 512">
  <path d="M 157 25 L 163 30 L 157 25 L 163 30 L 152 42 L 152 42 L 147 37 L 147 37 Q 125 17 94 16 Q 61 17 39 39 Q 17 61 16 94 Q 16 117 28 135 L 32 142 L 32 142 L 19 151 L 19 151 L 15 144 L 15 144 Q 0 122 0 94 Q 1 54 27 27 Q 54 1 94 0 Q 131 1 157 25 L 157 25 Z M 103 452 L 54 502 L 103 452 L 54 502 L 48 507 L 48 507 L 37 496 L 37 496 L 42 490 L 42 490 L 92 441 L 92 441 Q 34 379 32 288 Q 33 225 63 175 Q 92 124 143 95 Q 193 65 256 64 Q 319 65 369 95 Q 420 124 449 175 Q 479 225 480 288 Q 478 379 420 441 L 470 490 L 470 490 L 475 496 L 475 496 L 464 507 L 464 507 L 458 502 L 458 502 L 409 452 L 409 452 Q 347 510 256 512 Q 165 510 103 452 L 103 452 Z M 464 288 Q 464 231 436 184 L 436 184 L 436 184 Q 409 137 360 108 Q 311 80 256 80 Q 201 80 152 108 Q 103 137 76 184 Q 48 231 48 288 Q 48 345 76 392 Q 103 439 152 468 Q 201 496 256 496 Q 311 496 360 468 Q 409 439 436 392 Q 464 345 464 288 L 464 288 Z M 355 25 Q 381 1 418 0 Q 458 1 485 27 Q 511 54 512 94 Q 512 122 497 144 L 493 151 L 493 151 L 480 142 L 480 142 L 484 135 L 484 135 Q 496 117 496 94 Q 495 61 473 39 Q 451 17 418 16 Q 387 17 366 37 L 360 42 L 360 42 L 349 30 L 349 30 L 355 25 L 355 25 Z M 192 192 L 320 192 L 192 192 L 336 192 L 327 205 L 327 205 L 208 368 L 208 368 L 320 368 L 328 368 L 328 384 L 328 384 L 320 384 L 176 384 L 186 371 L 186 371 L 304 208 L 304 208 L 192 208 L 184 208 L 184 192 L 184 192 L 192 192 L 192 192 Z" />
</svg>