<svg xmlns="http://www.w3.org/2000/svg" viewBox="0 0 512 512">
  <path d="M 496 256 Q 495 191 464 136 L 464 136 L 464 136 Q 432 81 376 48 Q 319 16 256 16 Q 193 16 136 48 Q 80 81 48 136 Q 17 191 16 256 Q 17 321 48 376 Q 80 431 136 464 Q 193 496 256 496 Q 319 496 376 464 Q 432 431 464 376 Q 495 321 496 256 L 496 256 Z M 0 256 Q 1 186 34 128 L 34 128 L 34 128 Q 68 70 128 34 Q 189 0 256 0 Q 323 0 384 34 Q 444 70 478 128 Q 511 186 512 256 Q 511 326 478 384 Q 444 442 384 478 Q 323 512 256 512 Q 189 512 128 478 Q 68 442 34 384 Q 1 326 0 256 L 0 256 Z M 160 336 L 352 336 L 160 336 L 360 336 L 360 352 L 360 352 L 352 352 L 152 352 L 152 336 L 152 336 L 160 336 L 160 336 Z M 128 192 L 136 192 L 128 192 L 224 192 L 224 208 L 224 208 L 216 208 L 128 208 L 128 192 L 128 192 Z M 296 192 L 376 192 L 296 192 L 384 192 L 384 208 L 384 208 L 376 208 L 288 208 L 288 192 L 288 192 L 296 192 L 296 192 Z" />
</svg>