<svg xmlns="http://www.w3.org/2000/svg" viewBox="0 0 384 512">
  <path d="M 16 16 L 16 496 L 16 16 L 16 496 L 368 496 L 368 496 L 368 16 L 368 16 L 16 16 L 16 16 Z M 0 0 L 16 0 L 0 0 L 384 0 L 384 16 L 384 16 L 384 496 L 384 496 L 384 512 L 384 512 L 368 512 L 0 512 L 0 496 L 0 496 L 0 16 L 0 16 L 0 0 L 0 0 Z M 288 336 Q 288 310 275 288 L 275 288 L 275 288 Q 262 266 240 253 Q 217 240 192 240 Q 167 240 144 253 Q 122 266 109 288 Q 96 310 96 336 Q 96 362 109 384 Q 122 406 144 419 Q 167 432 192 432 Q 217 432 240 419 Q 262 406 275 384 Q 288 362 288 336 L 288 336 Z M 80 336 Q 80 306 95 280 L 95 280 L 95 280 Q 110 254 136 239 Q 162 224 192 224 Q 222 224 248 239 Q 274 254 289 280 Q 304 306 304 336 Q 304 366 289 392 Q 274 418 248 433 Q 222 448 192 448 Q 162 448 136 433 Q 110 418 95 392 Q 80 366 80 336 L 80 336 Z M 192 368 Q 206 368 215 359 L 215 359 L 215 359 Q 224 350 224 336 Q 224 322 215 313 Q 206 304 192 304 Q 178 304 169 313 Q 160 322 160 336 Q 160 350 169 359 Q 178 368 192 368 L 192 368 Z M 192 288 Q 219 289 234 312 Q 246 336 234 360 Q 219 383 192 384 Q 165 383 150 360 Q 138 336 150 312 Q 165 289 192 288 L 192 288 Z M 224 112 Q 224 98 215 89 L 215 89 L 215 89 Q 206 80 192 80 Q 178 80 169 89 Q 160 98 160 112 Q 160 126 169 135 Q 178 144 192 144 Q 206 144 215 135 Q 224 126 224 112 L 224 112 Z M 144 112 Q 145 85 168 70 Q 192 58 216 70 Q 239 85 240 112 Q 239 139 216 154 Q 192 166 168 154 Q 145 139 144 112 L 144 112 Z" />
</svg>