<svg xmlns="http://www.w3.org/2000/svg" viewBox="0 0 384 512">
  <path d="M 368 192 Q 366 117 316 68 L 316 68 L 316 68 Q 267 18 192 16 Q 117 18 68 68 Q 18 117 16 192 Q 17 229 44 282 Q 72 335 109 385 Q 146 435 174 467 Q 185 480 192 488 Q 199 480 210 467 Q 238 435 275 385 Q 312 335 340 282 Q 367 229 368 192 L 368 192 Z M 384 192 Q 382 242 346 304 L 346 304 L 346 304 Q 310 367 268 421 L 268 421 L 268 421 Q 225 475 203 500 Q 192 512 192 512 Q 192 512 181 500 Q 159 475 116 421 Q 74 367 38 304 Q 2 242 0 192 Q 2 110 56 56 Q 110 2 192 0 Q 274 2 328 56 Q 382 110 384 192 L 384 192 Z M 128 144 Q 143 145 144 160 Q 143 175 128 176 Q 113 175 112 160 Q 113 145 128 144 L 128 144 Z M 240 160 Q 241 145 256 144 Q 271 145 272 160 Q 271 175 256 176 Q 241 175 240 160 L 240 160 Z M 89 268 L 103 260 L 89 268 L 103 260 Q 110 272 133 287 Q 156 303 192 304 Q 228 303 251 287 Q 274 272 281 260 L 295 269 L 295 269 Q 286 283 259 301 Q 233 318 192 320 Q 151 318 125 301 Q 98 283 89 268 L 89 268 Z" />
</svg>