<svg xmlns="http://www.w3.org/2000/svg" viewBox="0 0 576 512">
  <path d="M 208 16 L 208 496 L 208 16 L 208 496 L 560 496 L 560 496 L 560 16 L 560 16 L 208 16 L 208 16 Z M 192 0 L 208 0 L 192 0 L 576 0 L 576 16 L 576 16 L 576 496 L 576 496 L 576 512 L 576 512 L 560 512 L 192 512 L 192 496 L 192 496 L 192 16 L 192 16 L 192 0 L 192 0 Z M 96 48 L 112 48 L 96 48 L 112 48 L 112 464 L 112 464 L 96 464 L 96 464 L 96 48 L 96 48 Z M 0 96 L 16 96 L 0 96 L 16 96 L 16 416 L 16 416 L 0 416 L 0 416 L 0 96 L 0 96 Z" />
</svg>