<svg xmlns="http://www.w3.org/2000/svg" viewBox="0 0 640 384">
  <path d="M 624 16 L 624 368 L 624 16 L 624 368 L 16 368 L 16 368 L 16 16 L 16 16 L 624 16 L 624 16 Z M 16 0 L 0 0 L 16 0 L 0 0 L 0 16 L 0 16 L 0 368 L 0 368 L 0 384 L 0 384 L 16 384 L 640 384 L 640 368 L 640 368 L 640 16 L 640 16 L 640 0 L 640 0 L 624 0 L 16 0 Z M 104 104 L 104 120 L 104 104 L 104 120 L 112 120 L 136 120 L 136 264 L 136 264 L 112 264 L 104 264 L 104 280 L 104 280 L 112 280 L 184 280 L 184 264 L 184 264 L 176 264 L 152 264 L 152 112 L 152 112 L 152 104 L 152 104 L 144 104 L 104 104 Z M 260 131 Q 272 121 286 122 L 286 122 L 286 122 Q 300 123 311 134 Q 320 145 320 159 Q 319 173 309 184 L 234 258 L 234 258 L 232 261 L 232 261 L 232 264 L 232 264 L 232 272 L 232 272 L 232 280 L 232 280 L 240 280 L 344 280 L 344 264 L 344 264 L 336 264 L 251 264 L 320 195 L 320 195 Q 334 181 335 163 Q 337 146 328 130 L 328 130 L 328 130 L 323 124 L 323 124 Q 308 107 287 106 Q 267 104 250 118 L 227 138 L 227 138 L 237 150 L 237 150 L 260 131 L 260 131 Z" />
</svg>