<svg xmlns="http://www.w3.org/2000/svg" viewBox="0 0 640 512">
  <path d="M 0 224 L 11 235 L 0 224 L 11 235 L 213 437 L 213 437 L 224 448 L 224 448 L 235 437 L 235 437 L 437 235 L 437 235 L 448 224 L 448 224 L 437 213 L 437 213 L 235 11 L 235 11 L 224 0 L 224 0 L 213 11 L 213 11 L 11 213 L 11 213 L 0 224 L 0 224 Z M 224 425 L 23 224 L 224 425 L 23 224 L 224 23 L 224 23 L 425 224 L 425 224 L 224 425 L 224 425 Z M 320 397 L 320 496 L 320 397 L 320 496 L 320 512 L 320 512 L 336 512 L 640 512 L 640 496 L 640 496 L 640 208 L 640 208 L 640 192 L 640 192 L 624 192 L 461 192 L 471 201 L 471 201 L 477 208 L 477 208 L 624 208 L 624 208 L 624 496 L 624 496 L 336 496 L 336 496 L 336 381 L 336 381 L 320 397 L 320 397 Z M 192 120 Q 192 134 201 143 L 201 143 L 201 143 Q 210 152 224 152 Q 238 152 247 143 Q 256 134 256 120 Q 256 106 247 97 Q 238 88 224 88 Q 210 88 201 97 Q 192 106 192 120 L 192 120 Z M 120 240 Q 105 239 104 224 Q 105 209 120 208 Q 135 209 136 224 Q 135 239 120 240 L 120 240 Z M 224 104 Q 239 105 240 120 Q 239 135 224 136 Q 209 135 208 120 Q 209 105 224 104 L 224 104 Z M 88 224 Q 88 238 97 247 L 97 247 L 97 247 Q 106 256 120 256 Q 134 256 143 247 Q 152 238 152 224 Q 152 210 143 201 Q 134 192 120 192 Q 106 192 97 201 Q 88 210 88 224 L 88 224 Z M 192 224 Q 192 238 201 247 L 201 247 L 201 247 Q 210 256 224 256 Q 238 256 247 247 Q 256 238 256 224 Q 256 210 247 201 Q 238 192 224 192 Q 210 192 201 201 Q 192 210 192 224 L 192 224 Z M 192 328 Q 192 342 201 351 L 201 351 L 201 351 Q 210 360 224 360 Q 238 360 247 351 Q 256 342 256 328 Q 256 314 247 305 Q 238 296 224 296 Q 210 296 201 305 Q 192 314 192 328 L 192 328 Z M 224 240 Q 209 239 208 224 Q 209 209 224 208 Q 239 209 240 224 Q 239 239 224 240 L 224 240 Z M 328 240 Q 313 239 312 224 Q 313 209 328 208 Q 343 209 344 224 Q 343 239 328 240 L 328 240 Z M 224 312 Q 239 313 240 328 Q 239 343 224 344 Q 209 343 208 328 Q 209 313 224 312 L 224 312 Z M 296 224 Q 296 238 305 247 L 305 247 L 305 247 Q 314 256 328 256 Q 342 256 351 247 Q 360 238 360 224 Q 360 210 351 201 Q 342 192 328 192 Q 314 192 305 201 Q 296 210 296 224 L 296 224 Z M 496 352 Q 495 367 480 368 Q 465 367 464 352 Q 465 337 480 336 Q 495 337 496 352 L 496 352 Z M 480 320 Q 466 320 457 329 L 457 329 L 457 329 Q 448 338 448 352 Q 448 366 457 375 Q 466 384 480 384 Q 494 384 503 375 Q 512 366 512 352 Q 512 338 503 329 Q 494 320 480 320 L 480 320 Z" />
</svg>