<svg xmlns="http://www.w3.org/2000/svg" viewBox="0 0 576 448">
  <path d="M 16 128 L 560 128 L 16 128 L 560 128 L 560 432 L 560 432 L 16 432 L 16 432 L 16 128 L 16 128 Z M 16 112 L 16 16 L 16 112 L 16 16 L 560 16 L 560 16 L 560 112 L 560 112 L 16 112 L 16 112 Z M 576 120 L 576 112 L 576 120 L 576 112 L 576 16 L 576 16 L 576 0 L 576 0 L 560 0 L 0 0 L 0 16 L 0 16 L 0 112 L 0 112 L 0 120 L 0 120 L 0 128 L 0 128 L 0 432 L 0 432 L 0 448 L 0 448 L 16 448 L 576 448 L 576 432 L 576 432 L 576 128 L 576 128 L 576 120 L 576 120 Z M 112 176 L 109 176 L 112 176 L 109 176 L 107 178 L 107 178 L 112 184 L 112 184 Q 106 176 107 178 Q 107 178 107 178 Q 107 178 107 178 Q 107 178 107 178 Q 107 178 107 178 Q 107 178 107 178 Q 107 178 107 178 L 107 178 L 107 178 L 107 178 L 107 178 Q 106 178 105 179 Q 105 180 104 180 Q 102 182 100 184 Q 94 190 86 202 Q 67 226 64 272 Q 67 318 85 342 Q 94 354 100 360 Q 103 363 105 365 Q 106 365 107 366 L 107 366 L 107 366 L 107 366 L 107 366 Q 107 366 107 366 Q 107 366 107 366 Q 107 366 107 366 Q 107 366 107 366 Q 107 366 107 366 Q 107 366 107 366 L 112 360 L 112 360 L 107 366 L 107 366 L 109 368 L 109 368 L 112 368 L 466 368 L 468 367 L 468 367 L 464 360 L 464 360 Q 469 369 468 367 Q 468 367 468 367 Q 468 367 468 367 Q 468 367 468 367 Q 468 367 468 367 Q 468 367 468 367 Q 468 367 468 367 L 468 367 L 468 367 L 469 367 L 469 367 Q 469 366 469 366 Q 470 366 470 366 Q 472 364 476 362 Q 482 357 491 345 Q 510 323 512 272 Q 510 221 491 199 Q 482 188 476 183 Q 472 180 470 179 Q 469 178 469 178 L 468 177 L 468 177 L 468 177 L 468 177 Q 468 177 468 177 Q 468 177 468 177 Q 468 177 468 177 L 464 184 L 464 184 L 468 177 L 468 177 L 466 176 L 466 176 L 464 176 L 112 176 Z M 111 195 Q 114 193 115 192 L 208 192 L 208 192 L 208 352 L 208 352 L 115 352 L 115 352 Q 114 351 111 349 Q 106 344 99 333 Q 82 312 80 272 Q 82 232 99 211 Q 106 201 111 195 L 111 195 Z M 352 352 L 224 352 L 352 352 L 224 352 L 224 192 L 224 192 L 352 192 L 352 192 L 352 352 L 352 352 Z M 462 352 L 368 352 L 462 352 L 368 352 L 368 192 L 368 192 L 462 192 L 462 192 Q 463 193 465 195 Q 470 199 478 208 Q 494 226 496 272 Q 494 318 478 336 Q 470 345 465 349 Q 463 351 462 352 L 462 352 Z M 176 232 L 184 232 L 176 232 L 184 232 L 184 216 L 184 216 L 176 216 L 176 216 Q 152 217 136 232 Q 121 248 120 272 Q 121 296 136 312 Q 152 327 176 328 L 184 328 L 184 328 L 184 312 L 184 312 L 176 312 L 176 312 Q 159 312 148 300 Q 136 289 136 272 Q 136 255 148 244 Q 159 232 176 232 L 176 232 Z M 440 272 Q 440 289 428 300 L 428 300 L 428 300 Q 417 312 400 312 L 392 312 L 392 312 L 392 328 L 392 328 L 400 328 L 400 328 Q 424 327 440 312 Q 455 296 456 272 Q 455 248 440 232 Q 424 217 400 216 L 392 216 L 392 216 L 392 232 L 392 232 L 400 232 L 400 232 Q 417 232 428 244 Q 440 255 440 272 L 440 272 Z" />
</svg>