<svg xmlns="http://www.w3.org/2000/svg" viewBox="0 0 448 448">
  <path d="M 18 144 L 216 144 L 18 144 L 216 144 L 216 16 L 216 16 L 74 16 L 74 16 L 18 144 L 18 144 Z M 431 144 L 374 16 L 431 144 L 374 16 L 232 16 L 232 16 L 232 144 L 232 144 L 431 144 L 431 144 Z M 16 160 L 16 432 L 16 160 L 16 432 L 432 432 L 432 432 L 432 160 L 432 160 L 16 160 L 16 160 Z M 64 0 L 384 0 L 64 0 L 384 0 L 448 144 L 448 144 L 448 432 L 448 432 L 448 448 L 448 448 L 432 448 L 0 448 L 0 432 L 0 432 L 0 144 L 0 144 L 64 0 L 64 0 Z M 142 226 Q 129 240 129 258 L 129 258 L 129 258 Q 129 276 143 289 L 224 365 L 224 365 L 305 289 L 305 289 Q 319 276 319 258 Q 319 240 306 226 Q 293 213 275 213 Q 258 213 244 226 L 230 241 L 230 241 L 224 247 L 224 247 L 218 241 L 218 241 L 203 226 L 203 226 Q 190 213 172 213 Q 155 213 142 226 L 142 226 Z M 215 215 L 224 224 L 215 215 L 224 224 L 233 215 L 233 215 Q 252 197 275 197 Q 299 197 318 215 Q 335 234 335 258 Q 335 282 316 301 L 229 382 L 229 382 L 224 387 L 224 387 L 219 382 L 219 382 L 132 301 L 132 301 Q 113 282 113 258 Q 112 234 130 215 Q 149 198 173 198 Q 196 198 215 215 L 215 215 Z" />
</svg>