<svg xmlns="http://www.w3.org/2000/svg" viewBox="0 0 576 512">
  <path d="M 16 0 L 248 0 L 16 0 L 248 0 L 248 16 L 248 16 L 16 16 L 16 16 L 16 400 L 16 400 L 232 400 L 232 400 L 232 400 L 232 400 L 344 400 L 344 400 L 344 400 L 344 400 L 560 400 L 560 400 L 560 16 L 560 16 L 328 16 L 328 16 L 328 0 L 328 0 L 560 0 L 576 0 L 576 16 L 576 16 L 576 400 L 576 400 L 576 416 L 576 416 L 560 416 L 353 416 L 367 496 L 367 496 L 440 496 L 448 496 L 448 512 L 448 512 L 440 512 L 128 512 L 128 496 L 128 496 L 136 496 L 209 496 L 222 416 L 222 416 L 16 416 L 0 416 L 0 400 L 0 400 L 0 16 L 0 16 L 0 0 L 0 0 L 16 0 L 16 0 Z M 80 64 L 248 64 L 80 64 L 248 64 L 248 80 L 248 80 L 80 80 L 80 80 L 80 272 L 80 272 L 496 272 L 496 272 L 496 80 L 496 80 L 328 80 L 328 80 L 328 64 L 328 64 L 496 64 L 512 64 L 512 80 L 512 80 L 512 272 L 512 272 L 512 288 L 512 288 L 496 288 L 64 288 L 64 272 L 64 272 L 64 80 L 64 80 L 64 64 L 64 64 L 80 64 L 80 64 Z M 225 496 L 351 496 L 225 496 L 351 496 L 337 416 L 337 416 L 239 416 L 239 416 L 226 496 L 225 496 Z M 296 8 L 296 213 L 296 8 L 296 213 L 370 138 L 370 138 L 376 133 L 376 133 L 387 144 L 387 144 L 382 150 L 382 150 L 294 238 L 294 238 L 288 243 L 288 243 L 282 238 L 282 238 L 194 150 L 194 150 L 188 144 L 188 144 L 200 133 L 200 133 L 206 138 L 206 138 L 280 213 L 280 213 L 280 8 L 280 8 L 280 0 L 280 0 L 296 0 L 296 0 L 296 8 L 296 8 Z" />
</svg>