<svg xmlns="http://www.w3.org/2000/svg" viewBox="0 0 512 448">
  <path d="M 16 290 L 17 288 L 16 290 L 17 288 L 123 288 L 123 288 L 153 348 L 153 348 L 155 352 L 155 352 L 160 352 L 357 352 L 359 348 L 359 348 L 389 288 L 389 288 L 496 288 L 496 288 L 496 290 L 496 290 L 496 432 L 496 432 L 16 432 L 16 432 L 16 290 L 16 290 Z M 85 16 L 428 16 L 85 16 L 428 16 L 492 272 L 492 272 L 384 272 L 379 272 L 377 276 L 377 276 L 347 336 L 347 336 L 165 336 L 165 336 L 135 276 L 135 276 L 133 272 L 133 272 L 128 272 L 21 272 L 85 16 L 85 16 Z M 0 288 L 0 432 L 0 288 L 0 432 L 0 448 L 0 448 L 16 448 L 512 448 L 512 432 L 512 432 L 512 288 L 512 288 L 440 0 L 440 0 L 72 0 L 72 0 L 0 288 L 0 288 Z M 152 80 L 144 80 L 152 80 L 144 80 L 144 96 L 144 96 L 152 96 L 376 96 L 376 80 L 376 80 L 368 80 L 152 80 Z M 128 144 L 120 144 L 128 144 L 120 144 L 120 160 L 120 160 L 128 160 L 392 160 L 392 144 L 392 144 L 384 144 L 128 144 Z M 112 208 L 104 208 L 112 208 L 104 208 L 104 224 L 104 224 L 112 224 L 400 224 L 400 208 L 400 208 L 392 208 L 112 208 Z" />
</svg>