<svg xmlns="http://www.w3.org/2000/svg" viewBox="0 0 512 448">
  <path d="M 384 192 L 336 192 L 384 192 L 336 192 L 336 144 L 336 144 L 336 116 L 336 116 L 228 224 L 228 224 L 336 332 L 336 332 L 336 304 L 336 304 L 336 256 L 336 256 L 384 256 L 464 256 L 464 192 L 464 192 L 384 192 L 384 192 Z M 194 190 L 320 64 L 194 190 L 320 64 L 336 64 L 384 64 L 384 96 L 384 96 L 384 112 L 384 112 L 384 144 L 384 144 L 432 144 L 512 144 L 512 192 L 512 192 L 512 256 L 512 256 L 512 304 L 512 304 L 464 304 L 384 304 L 384 336 L 384 336 L 384 352 L 384 352 L 384 384 L 384 384 L 336 384 L 320 384 L 194 258 L 194 258 L 160 224 L 160 224 L 194 190 L 194 190 Z M 168 400 L 192 400 L 168 400 L 192 400 L 192 448 L 192 448 L 168 448 L 0 448 L 0 424 L 0 424 L 0 24 L 0 24 L 0 0 L 0 0 L 24 0 L 192 0 L 192 48 L 192 48 L 168 48 L 48 48 L 48 400 L 48 400 L 168 400 L 168 400 Z" />
</svg>