<svg xmlns="http://www.w3.org/2000/svg" viewBox="0 0 639 512">
  <path d="M 528 208 Q 526 285 477 338 L 477 338 L 477 338 Q 428 391 352 399 L 352 401 L 352 401 Q 352 408 351 416 Q 425 409 477 361 L 628 511 L 628 511 L 639 500 L 639 500 L 489 349 L 489 349 Q 542 292 544 208 Q 542 120 483 61 Q 424 2 336 0 Q 253 2 196 54 Q 138 107 129 188 L 146 182 L 146 182 Q 157 110 209 64 Q 261 18 336 16 Q 418 18 472 72 Q 526 126 528 208 L 528 208 Z M 320 157 L 310 160 L 320 157 L 310 160 L 118 224 L 118 224 L 112 226 L 112 226 L 112 232 L 112 232 L 112 304 L 112 304 L 112 432 L 112 432 Q 94 417 64 416 Q 37 417 19 430 Q 1 444 0 464 Q 1 484 19 498 Q 37 511 64 512 Q 91 511 109 498 Q 127 484 128 464 L 128 464 L 128 464 Q 128 464 128 464 Q 128 464 128 464 L 128 310 L 128 310 L 304 251 L 304 251 L 304 368 L 304 368 Q 286 353 256 352 Q 229 353 211 366 Q 193 380 192 400 Q 193 420 211 434 Q 229 447 256 448 Q 283 447 301 434 Q 319 421 320 400 L 320 400 L 320 400 L 320 400 L 320 400 L 320 240 L 320 240 L 320 168 L 320 168 L 320 157 L 320 157 Z M 292 379 Q 304 389 304 400 Q 304 411 292 421 Q 278 431 256 432 Q 234 431 220 421 Q 208 411 208 400 Q 208 389 220 379 Q 234 369 256 368 Q 278 368 292 379 L 292 379 Z M 128 293 L 128 238 L 128 293 L 128 238 L 304 179 L 304 179 L 304 234 L 304 234 L 128 293 L 128 293 Z M 112 464 Q 112 475 100 485 Q 86 495 64 496 Q 42 496 28 485 Q 16 475 16 464 Q 16 453 28 443 Q 42 433 64 432 Q 86 433 100 443 Q 112 453 112 464 L 112 464 Z" />
</svg>