<svg xmlns="http://www.w3.org/2000/svg" viewBox="0 0 512 512">
  <path d="M 8 0 L 0 0 L 8 0 L 0 0 L 0 8 L 0 8 L 0 232 L 0 232 L 0 240 L 0 240 L 8 240 L 148 240 L 157 352 L 157 352 L 112 352 L 96 352 L 96 368 L 96 368 L 96 496 L 96 496 L 96 512 L 96 512 L 112 512 L 480 512 L 480 496 L 480 496 L 480 368 L 480 368 L 480 352 L 480 352 L 464 352 L 424 352 L 508 16 L 508 16 L 512 0 L 512 0 L 496 0 L 8 0 Z M 129 16 L 147 224 L 129 16 L 147 224 L 16 224 L 16 224 L 16 16 L 16 16 L 129 16 L 129 16 Z M 408 352 L 173 352 L 408 352 L 173 352 L 145 16 L 145 16 L 160 16 L 492 16 L 472 96 L 472 96 L 296 96 L 288 96 L 288 112 L 288 112 L 296 112 L 468 112 L 448 192 L 448 192 L 296 192 L 288 192 L 288 208 L 288 208 L 296 208 L 444 208 L 408 352 L 408 352 Z M 112 496 L 112 368 L 112 496 L 112 368 L 464 368 L 464 368 L 464 496 L 464 496 L 112 496 L 112 496 Z M 288 416 Q 303 417 304 432 Q 303 447 288 448 Q 273 447 272 432 Q 273 417 288 416 L 288 416 Z M 288 464 Q 302 464 311 455 L 311 455 L 311 455 Q 320 446 320 432 Q 320 418 311 409 Q 302 400 288 400 Q 274 400 265 409 Q 256 418 256 432 Q 256 446 265 455 Q 274 464 288 464 L 288 464 Z" />
</svg>