<svg xmlns="http://www.w3.org/2000/svg" viewBox="0 0 384 512">
  <path d="M 257 80 L 270 80 L 257 80 L 304 80 L 304 144 L 304 144 L 192 144 L 80 144 L 80 80 L 80 80 L 114 80 L 127 80 L 129 67 L 129 67 Q 134 45 151 31 Q 168 16 192 16 Q 216 16 233 31 Q 250 45 255 67 L 257 80 L 257 80 Z M 114 64 L 80 64 L 114 64 L 64 64 L 64 80 L 64 80 L 64 96 L 64 96 L 8 96 L 0 96 L 0 104 L 0 104 L 0 504 L 0 504 L 0 512 L 0 512 L 8 512 L 384 512 L 384 504 L 384 504 L 384 104 L 384 104 L 384 96 L 384 96 L 376 96 L 320 96 L 320 80 L 320 80 L 320 64 L 320 64 L 304 64 L 270 64 Q 264 36 243 18 Q 222 1 192 0 Q 162 1 141 18 Q 120 36 114 64 L 114 64 Z M 16 112 L 64 112 L 16 112 L 64 112 L 64 144 L 64 144 L 64 160 L 64 160 L 80 160 L 320 160 L 320 144 L 320 144 L 320 112 L 320 112 L 368 112 L 368 112 L 368 496 L 368 496 L 16 496 L 16 496 L 16 112 L 16 112 Z M 192 96 Q 207 95 208 80 Q 207 65 192 64 Q 177 65 176 80 Q 177 95 192 96 L 192 96 Z" />
</svg>