<svg xmlns="http://www.w3.org/2000/svg" viewBox="0 0 512 502">
  <path d="M 0 267 L 0 259 L 0 267 L 0 259 L 0 91 L 0 91 L 0 83 L 0 83 L 8 83 L 419 83 L 347 17 L 347 17 L 341 12 L 341 12 L 352 0 L 352 0 L 357 5 L 357 5 L 445 85 L 445 85 L 452 91 L 452 91 L 445 97 L 445 97 L 357 177 L 357 177 L 352 182 L 352 182 L 341 170 L 341 170 L 347 165 L 347 165 L 419 99 L 419 99 L 16 99 L 16 99 L 16 259 L 16 259 L 16 267 L 16 267 L 0 267 L 0 267 Z M 512 235 L 512 243 L 512 235 L 512 243 L 512 411 L 512 411 L 512 419 L 512 419 L 504 419 L 93 419 L 165 485 L 165 485 L 171 491 L 171 491 L 160 502 L 160 502 L 155 497 L 155 497 L 67 417 L 67 417 L 60 411 L 60 411 L 67 405 L 67 405 L 155 325 L 155 325 L 161 320 L 161 320 L 171 332 L 171 332 L 165 337 L 165 337 L 93 403 L 93 403 L 496 403 L 496 403 L 496 243 L 496 243 L 496 235 L 496 235 L 512 235 L 512 235 Z M 240 187 L 272 187 L 240 187 L 280 187 L 280 195 L 280 195 L 280 307 L 280 307 L 280 315 L 280 315 L 264 315 L 264 315 L 264 307 L 264 307 L 264 203 L 264 203 L 240 203 L 232 203 L 232 187 L 232 187 L 240 187 L 240 187 Z" />
</svg>