<svg xmlns="http://www.w3.org/2000/svg" viewBox="0 0 592 512">
  <path d="M 104 112 Q 131 111 146 88 Q 158 64 146 40 Q 131 17 104 16 Q 77 17 62 40 Q 50 64 62 88 Q 77 111 104 112 L 104 112 Z M 104 0 Q 140 1 159 32 Q 177 64 159 96 Q 140 127 104 128 Q 68 127 49 96 Q 31 64 49 32 Q 68 1 104 0 L 104 0 Z M 23 176 L 17 336 L 23 176 L 17 336 L 40 336 L 119 336 L 135 352 L 135 352 L 128 352 L 128 352 L 128 496 L 128 496 L 160 496 L 160 496 L 160 377 L 160 377 L 176 393 L 176 393 L 176 504 L 176 504 L 176 512 L 176 512 L 168 512 L 112 512 L 112 504 L 112 504 L 112 352 L 112 352 L 96 352 L 96 352 L 96 504 L 96 504 L 96 512 L 96 512 L 88 512 L 32 512 L 32 504 L 32 504 L 32 352 L 32 352 L 16 352 L 0 352 L 1 336 L 1 336 L 8 160 L 8 160 L 200 160 L 200 160 L 201 190 L 201 190 L 188 204 L 188 204 L 186 206 L 186 206 L 185 176 L 185 176 L 23 176 L 23 176 Z M 416 504 L 416 393 L 416 504 L 416 393 L 432 377 L 432 377 L 432 496 L 432 496 L 464 496 L 464 496 L 464 352 L 464 352 L 457 352 L 457 352 L 473 336 L 473 336 L 504 336 L 575 336 L 569 176 L 569 176 L 407 176 L 407 176 L 406 206 L 406 206 L 404 204 L 404 204 L 391 190 L 391 190 L 392 160 L 392 160 L 584 160 L 584 160 L 591 336 L 591 336 L 592 352 L 592 352 L 576 352 L 560 352 L 560 504 L 560 504 L 560 512 L 560 512 L 552 512 L 496 512 L 496 504 L 496 504 L 496 352 L 496 352 L 480 352 L 480 352 L 480 504 L 480 504 L 480 512 L 480 512 L 472 512 L 416 512 L 416 504 L 416 504 Z M 80 352 L 48 352 L 80 352 L 48 352 L 48 496 L 48 496 L 80 496 L 80 496 L 80 352 L 80 352 Z M 488 112 Q 515 111 530 88 Q 542 64 530 40 Q 515 17 488 16 Q 461 17 446 40 Q 434 64 446 88 Q 461 111 488 112 L 488 112 Z M 488 0 Q 524 1 543 32 Q 561 64 543 96 Q 524 127 488 128 Q 452 127 433 96 Q 415 64 433 32 Q 452 1 488 0 L 488 0 Z M 544 496 L 544 352 L 544 496 L 544 352 L 512 352 L 512 352 L 512 496 L 512 496 L 544 496 L 544 496 Z M 222 238 L 163 296 L 222 238 L 163 296 L 429 296 L 429 296 L 370 238 L 370 238 L 365 232 L 365 232 L 376 221 L 376 221 L 382 226 L 382 226 L 454 298 L 454 298 L 459 304 L 459 304 L 454 310 L 454 310 L 382 382 L 382 382 L 376 388 L 376 388 L 365 376 L 365 376 L 370 370 L 370 370 L 429 312 L 429 312 L 163 312 L 163 312 L 222 370 L 222 370 L 227 376 L 227 376 L 216 387 L 216 387 L 210 382 L 210 382 L 138 310 L 138 310 L 133 304 L 133 304 L 138 298 L 138 298 L 210 226 L 210 226 L 216 220 L 216 220 L 227 232 L 227 232 L 222 238 L 222 238 Z" />
</svg>