<svg xmlns="http://www.w3.org/2000/svg" viewBox="0 0 262 512">
  <path d="M 32 144 L 22 212 L 32 144 L 22 212 Q 17 262 48 298 Q 80 334 131 336 Q 182 334 214 298 Q 245 262 240 212 L 231 144 L 231 144 L 32 144 L 32 144 Z M 34 128 L 228 128 L 34 128 L 228 128 L 213 16 L 213 16 L 49 16 L 49 16 L 34 128 L 34 128 Z M 256 209 Q 262 266 228 306 L 228 306 L 228 306 Q 195 347 139 352 L 139 496 L 139 496 L 219 496 L 227 496 L 227 512 L 227 512 L 219 512 L 35 512 L 35 496 L 35 496 L 43 496 L 123 496 L 123 352 L 123 352 Q 67 347 34 306 Q 0 266 7 209 L 35 0 L 35 0 L 227 0 L 227 0 L 256 209 L 256 209 Z" />
</svg>