<svg xmlns="http://www.w3.org/2000/svg" viewBox="0 0 512 448">
  <path d="M 326 54 L 414 51 L 326 54 L 414 51 L 439 136 L 439 136 L 512 186 L 512 186 L 490 248 L 490 248 Q 484 240 478 233 L 493 192 L 493 192 L 430 150 L 430 150 L 425 146 L 425 146 L 424 141 L 424 141 L 402 68 L 402 68 L 326 70 L 326 70 L 321 70 L 321 70 L 316 67 L 316 67 L 256 20 L 256 20 L 196 67 L 196 67 L 191 70 L 191 70 L 186 70 L 186 70 L 110 68 L 110 68 L 89 141 L 89 141 L 87 146 L 87 146 L 82 150 L 82 150 L 19 192 L 19 192 L 34 233 L 34 233 Q 28 240 22 248 L 0 186 L 0 186 L 73 136 L 73 136 L 98 51 L 98 51 L 186 54 L 186 54 L 256 0 L 256 0 L 326 54 L 326 54 Z M 16 416 L 16 432 L 16 416 L 16 432 L 496 432 L 496 432 L 496 416 L 496 416 Q 495 349 463 295 Q 431 241 377 209 Q 323 177 256 176 Q 189 177 135 209 Q 81 241 49 295 Q 17 349 16 416 L 16 416 Z M 0 432 L 0 416 L 0 432 L 0 416 Q 1 344 35 287 Q 69 229 127 195 Q 184 161 256 160 Q 328 161 385 195 Q 443 229 477 287 Q 511 344 512 416 L 512 432 L 512 432 L 512 448 L 512 448 L 496 448 L 0 448 L 0 432 L 0 432 Z M 176 256 Q 191 257 192 272 Q 191 287 176 288 Q 161 287 160 272 Q 161 257 176 256 L 176 256 Z M 112 320 Q 127 321 128 336 Q 127 351 112 352 Q 97 351 96 336 Q 97 321 112 320 L 112 320 Z" />
</svg>