<svg xmlns="http://www.w3.org/2000/svg" viewBox="0 0 384 448">
  <path d="M 8 448 L 0 448 L 8 448 L 0 448 L 0 432 L 0 432 L 8 432 L 384 432 L 384 448 L 384 448 L 376 448 L 8 448 Z M 198 350 L 192 355 L 198 350 L 192 355 L 186 350 L 186 350 L 50 214 L 50 214 L 45 208 L 45 208 L 56 197 L 56 197 L 62 202 L 62 202 L 184 325 L 184 325 L 184 8 L 184 8 L 184 0 L 184 0 L 200 0 L 200 0 L 200 8 L 200 8 L 200 325 L 200 325 L 322 202 L 322 202 L 328 197 L 328 197 L 339 208 L 339 208 L 334 214 L 334 214 L 198 350 L 198 350 Z" />
</svg>