<svg xmlns="http://www.w3.org/2000/svg" viewBox="0 0 512 512">
  <path d="M 256 16 Q 189 17 135 49 L 135 49 L 135 49 Q 81 81 49 135 L 49 135 L 49 135 Q 17 189 16 256 L 16 504 L 16 504 L 16 512 L 16 512 L 0 512 L 0 512 L 0 504 L 0 504 L 0 256 L 0 256 Q 1 184 35 127 Q 69 69 127 35 Q 184 1 256 0 Q 328 1 385 35 Q 443 69 477 127 Q 511 184 512 256 L 512 504 L 512 504 L 512 512 L 512 512 L 496 512 L 496 512 L 496 504 L 496 504 L 496 256 L 496 256 Q 495 189 463 135 Q 431 81 377 49 Q 323 17 256 16 L 256 16 Z M 159 224 L 353 224 L 159 224 L 359 224 L 361 230 L 361 230 L 382 320 L 382 320 L 408 320 L 416 320 L 416 328 L 416 328 L 416 448 L 416 448 L 416 456 L 416 456 L 416 464 L 416 464 L 416 496 L 416 496 L 416 512 L 416 512 L 400 512 L 336 512 L 336 496 L 336 496 L 336 464 L 336 464 L 176 464 L 176 464 L 176 496 L 176 496 L 176 512 L 176 512 L 160 512 L 96 512 L 96 496 L 96 496 L 96 464 L 96 464 L 96 456 L 96 456 L 96 448 L 96 448 L 96 328 L 96 328 L 96 320 L 96 320 L 104 320 L 130 320 L 151 230 L 151 230 L 153 224 L 153 224 L 159 224 L 159 224 Z M 400 448 L 400 336 L 400 448 L 400 336 L 112 336 L 112 336 L 112 448 L 112 448 L 160 448 L 400 448 Z M 352 464 L 352 496 L 352 464 L 352 496 L 400 496 L 400 496 L 400 464 L 400 464 L 352 464 L 352 464 Z M 112 464 L 112 496 L 112 464 L 112 496 L 160 496 L 160 496 L 160 464 L 160 464 L 112 464 L 112 464 Z M 366 320 L 347 240 L 366 320 L 347 240 L 165 240 L 165 240 L 146 320 L 146 320 L 366 320 L 366 320 Z M 176 376 Q 161 377 160 392 Q 161 407 176 408 Q 191 407 192 392 Q 191 377 176 376 L 176 376 Z M 208 392 Q 208 406 199 415 L 199 415 L 199 415 Q 190 424 176 424 Q 162 424 153 415 Q 144 406 144 392 Q 144 378 153 369 Q 162 360 176 360 Q 190 360 199 369 Q 208 378 208 392 L 208 392 Z M 320 392 Q 321 407 336 408 Q 351 407 352 392 Q 351 377 336 376 Q 321 377 320 392 L 320 392 Z M 336 424 Q 322 424 313 415 L 313 415 L 313 415 Q 304 406 304 392 Q 304 378 313 369 Q 322 360 336 360 Q 350 360 359 369 Q 368 378 368 392 Q 368 406 359 415 Q 350 424 336 424 L 336 424 Z" />
</svg>