<svg xmlns="http://www.w3.org/2000/svg" viewBox="0 0 512 512">
  <path d="M 16 140 Q 17 87 52 52 L 52 52 L 52 52 Q 87 17 140 16 Q 193 17 228 52 Q 263 87 265 140 L 265 173 L 265 173 L 265 181 L 265 181 L 281 181 L 281 181 L 281 173 L 281 173 L 281 140 L 281 140 Q 279 81 239 41 Q 200 2 140 0 Q 81 2 41 41 Q 2 81 0 140 Q 2 200 41 240 Q 81 279 140 281 L 152 281 L 152 281 L 165 304 L 165 304 Q 133 339 132 388 L 132 504 L 132 504 L 132 512 L 132 512 L 140 512 L 480 512 L 480 496 L 480 496 L 472 496 L 413 496 Q 451 469 453 420 Q 452 378 423 352 L 424 352 L 424 352 L 424 248 L 424 248 L 456 248 L 459 248 L 462 246 L 462 246 L 510 198 L 510 198 L 512 195 L 512 195 L 512 192 L 512 192 L 512 154 L 512 154 L 512 150 L 512 150 L 509 147 L 509 147 L 445 98 L 445 98 L 443 96 L 443 96 L 440 96 L 416 96 L 416 72 L 416 72 L 416 64 L 416 64 L 408 64 L 400 64 Q 380 65 368 80 Q 356 65 336 64 L 328 64 L 320 64 L 320 72 L 320 72 L 320 88 L 320 88 L 320 96 L 320 96 L 320 104 L 320 104 L 320 148 L 320 148 Q 320 199 302 228 Q 286 255 257 287 Q 257 287 257 287 Q 256 288 255 289 Q 252 293 248 297 L 237 310 L 237 310 Q 223 327 215 349 Q 208 370 208 392 L 208 400 L 208 400 L 224 400 L 224 400 L 224 392 L 224 392 Q 224 373 230 354 Q 237 335 249 321 L 260 308 L 260 308 Q 262 305 265 302 Q 267 300 269 298 Q 269 297 269 297 Q 299 265 316 236 Q 336 203 336 148 L 336 104 L 336 104 L 336 96 L 336 96 L 336 88 L 336 88 L 336 80 L 336 80 Q 358 82 360 104 L 376 104 L 376 104 Q 378 82 400 80 L 400 104 L 400 104 L 400 112 L 400 112 L 408 112 L 437 112 L 496 157 L 496 157 L 496 189 L 496 189 L 453 232 L 453 232 L 416 232 L 408 232 L 408 240 L 408 240 L 408 341 L 408 341 Q 387 328 361 328 Q 347 328 334 332 L 326 335 L 326 335 L 331 350 L 331 350 L 338 348 L 338 348 Q 349 344 361 344 Q 394 345 415 366 Q 436 388 437 420 Q 436 452 415 474 Q 394 495 361 496 L 148 496 L 148 496 L 148 388 L 148 388 Q 150 342 181 311 L 185 307 L 185 307 L 182 302 L 182 302 L 164 269 L 164 269 L 162 265 L 162 265 L 157 265 L 140 265 Q 87 263 52 228 Q 17 193 16 140 L 16 140 Z M 432 160 Q 431 145 416 144 Q 401 145 400 160 Q 401 175 416 176 Q 431 175 432 160 L 432 160 Z" />
</svg>