<svg xmlns="http://www.w3.org/2000/svg" viewBox="0 0 512 448">
  <path d="M 256 16 Q 163 18 97 76 L 97 76 L 97 76 Q 32 134 18 224 L 32 224 L 128 224 L 128 448 L 128 448 L 0 448 L 0 448 L 0 336 L 0 336 L 0 256 L 0 256 Q 1 184 35 127 Q 69 69 127 35 Q 184 1 256 0 Q 328 1 385 35 Q 443 69 477 127 Q 511 184 512 256 L 512 336 L 512 336 L 512 448 L 512 448 L 384 448 L 384 448 L 384 224 L 384 224 L 494 224 L 494 224 Q 480 134 415 76 Q 349 18 256 16 L 256 16 Z M 496 240 L 400 240 L 496 240 L 400 240 L 400 432 L 400 432 L 496 432 L 496 432 L 496 336 L 496 336 L 496 256 L 496 256 Q 496 248 496 240 L 496 240 Z M 17 240 Q 16 248 16 256 L 16 336 L 16 336 L 16 432 L 16 432 L 112 432 L 112 432 L 112 240 L 112 240 L 17 240 L 17 240 Z" />
</svg>