<svg xmlns="http://www.w3.org/2000/svg" viewBox="0 0 640 512">
  <path d="M 157 0 L 168 0 L 157 0 L 173 0 Q 208 1 232 24 Q 255 48 256 83 L 256 112 L 256 112 L 256 128 L 256 128 L 256 163 L 256 163 L 256 164 L 256 164 L 256 169 L 256 169 L 256 169 L 256 169 Q 256 170 256 170 Q 256 170 256 171 Q 258 207 282 231 Q 307 255 344 256 L 349 256 L 358 256 L 358 256 L 358 256 Q 394 256 424 273 Q 455 289 475 318 L 485 334 L 485 334 Q 497 351 518 352 Q 543 351 553 331 Q 564 311 551 290 L 518 242 L 518 242 L 563 198 L 563 198 L 589 218 L 589 218 Q 639 257 640 320 Q 639 374 603 411 Q 566 447 512 448 L 480 448 L 480 448 L 480 512 L 480 512 L 384 512 L 384 512 L 373 448 L 373 448 L 299 448 L 299 448 L 288 512 L 288 512 L 192 512 L 192 512 L 192 444 L 192 444 Q 150 433 123 399 Q 97 366 96 320 L 96 256 L 96 256 L 32 256 L 0 256 L 0 209 L 0 209 L 12 199 L 12 199 L 52 167 L 52 167 L 61 160 L 61 160 L 72 160 L 80 160 Q 107 160 127 175 Q 147 190 156 214 L 152 287 L 152 287 L 152 293 L 152 293 L 155 298 L 155 298 L 179 330 L 179 330 L 189 342 L 189 342 L 214 323 L 214 323 L 205 310 L 205 310 L 184 283 L 184 283 L 192 129 L 192 129 L 192 128 L 192 128 L 192 128 L 192 128 L 192 112 L 192 112 L 192 96 L 192 96 L 176 96 L 96 96 L 96 49 L 96 49 L 108 39 L 108 39 L 148 7 L 148 7 L 157 0 L 157 0 Z M 288 170 L 288 118 L 288 170 L 288 118 Q 300 93 323 79 Q 346 64 374 64 L 376 64 L 387 64 L 396 71 L 396 71 L 436 103 L 436 103 L 448 113 L 448 113 L 448 160 L 448 160 L 416 160 L 345 160 L 335 199 L 335 199 L 331 223 L 331 223 Q 313 218 301 204 Q 289 189 288 170 L 288 170 Z" />
</svg>