<svg xmlns="http://www.w3.org/2000/svg" viewBox="0 0 512 448">
  <path d="M 0 0 L 8 0 L 0 0 L 512 0 L 512 16 L 512 16 L 504 16 L 480 16 L 480 432 L 480 432 L 504 432 L 512 432 L 512 448 L 512 448 L 504 448 L 0 448 L 0 432 L 0 432 L 8 432 L 32 432 L 32 16 L 32 16 L 8 16 L 0 16 L 0 0 L 0 0 Z M 48 16 L 48 432 L 48 16 L 48 432 L 464 432 L 464 432 L 464 16 L 464 16 L 48 16 L 48 16 Z M 264 64 L 264 72 L 264 64 L 264 72 L 264 112 L 264 112 L 344 112 L 352 112 L 352 128 L 352 128 L 344 128 L 264 128 L 264 176 L 264 176 L 376 176 L 384 176 L 384 192 L 384 192 L 376 192 L 264 192 L 264 272 L 264 272 L 264 274 L 264 274 L 336 248 L 336 248 L 337 248 L 400 248 L 400 256 L 400 256 L 400 322 L 400 322 L 400 324 L 400 324 L 398 327 L 398 327 L 356 381 L 356 381 L 353 384 L 353 384 L 349 384 L 159 384 L 156 381 L 156 381 L 114 327 L 114 327 L 112 324 L 112 324 L 112 322 L 112 322 L 112 256 L 112 256 L 112 248 L 112 248 L 120 248 L 176 248 L 248 274 L 248 274 L 248 272 L 248 272 L 248 192 L 248 192 L 144 192 L 136 192 L 136 176 L 136 176 L 144 176 L 248 176 L 248 128 L 248 128 L 176 128 L 168 128 L 168 112 L 168 112 L 176 112 L 248 112 L 248 72 L 248 72 L 248 64 L 248 64 L 264 64 L 264 64 Z M 128 319 L 167 368 L 128 319 L 167 368 L 346 368 L 346 368 L 384 319 L 384 319 L 384 264 L 384 264 L 340 264 L 340 264 L 259 292 L 259 292 L 256 293 L 256 293 L 253 292 L 253 292 L 172 264 L 172 264 L 128 264 L 128 264 L 128 319 L 128 319 Z M 192 320 Q 193 305 208 304 Q 223 305 224 320 Q 223 335 208 336 Q 193 335 192 320 L 192 320 Z M 304 304 Q 319 305 320 320 Q 319 335 304 336 Q 289 335 288 320 Q 289 305 304 304 L 304 304 Z" />
</svg>