<svg xmlns="http://www.w3.org/2000/svg" viewBox="0 0 636 508">
  <path d="M 11 1 L 0 0 L 11 1 L 0 0 L 3 11 L 3 11 L 75 236 L 75 236 L 70 236 L 62 236 L 62 244 L 62 244 L 62 284 L 62 284 L 62 292 L 62 292 L 78 292 L 78 292 L 78 284 L 78 284 L 78 252 L 78 252 L 558 252 L 558 252 L 558 284 L 558 284 L 558 292 L 558 292 L 574 292 L 574 292 L 574 284 L 574 284 L 574 244 L 574 244 L 574 236 L 574 236 L 566 236 L 561 236 L 633 11 L 633 11 L 636 0 L 636 0 L 625 1 L 625 1 L 390 12 L 390 12 L 246 12 L 246 12 L 11 1 L 11 1 Z M 254 28 L 382 28 L 254 28 L 382 28 L 382 236 L 382 236 L 254 236 L 254 236 L 254 28 L 254 28 Z M 238 28 L 238 236 L 238 28 L 238 236 L 92 236 L 92 236 L 22 17 L 22 17 L 238 28 L 238 28 Z M 351 412 Q 358 454 388 480 L 388 480 L 388 480 Q 419 507 462 508 Q 510 507 541 475 Q 573 444 574 396 Q 573 348 541 317 Q 510 285 462 284 Q 414 285 383 317 Q 351 348 350 396 L 286 396 L 286 396 Q 285 348 253 317 Q 222 285 174 284 Q 126 285 95 317 Q 63 348 62 396 Q 63 444 95 475 Q 126 507 174 508 Q 217 507 248 480 Q 278 454 285 412 L 351 412 L 351 412 Z M 366 396 Q 366 396 366 396 L 366 396 L 366 396 Q 366 396 366 396 Q 367 355 394 328 Q 421 301 462 300 Q 503 301 530 328 Q 557 355 558 396 Q 557 437 530 464 Q 503 491 462 492 Q 421 491 394 464 Q 367 437 366 396 L 366 396 L 366 396 Z M 78 396 Q 78 370 91 348 L 91 348 L 91 348 Q 104 326 126 313 Q 149 300 174 300 Q 199 300 222 313 Q 244 326 257 348 Q 270 370 270 396 Q 270 422 257 444 Q 244 466 222 479 Q 199 492 174 492 Q 149 492 126 479 Q 104 466 91 444 Q 78 422 78 396 L 78 396 Z M 182 324 L 182 316 L 182 324 L 182 316 L 166 316 L 166 316 L 166 324 L 166 324 L 166 388 L 166 388 L 102 388 L 94 388 L 94 404 L 94 404 L 102 404 L 166 404 L 166 468 L 166 468 L 166 476 L 166 476 L 182 476 L 182 476 L 182 468 L 182 468 L 182 404 L 182 404 L 246 404 L 254 404 L 254 388 L 254 388 L 246 388 L 182 388 L 182 324 L 182 324 Z M 470 316 L 454 316 L 470 316 L 454 316 L 454 324 L 454 324 L 454 388 L 454 388 L 390 388 L 382 388 L 382 404 L 382 404 L 390 404 L 454 404 L 454 468 L 454 468 L 454 476 L 454 476 L 470 476 L 470 476 L 470 468 L 470 468 L 470 404 L 470 404 L 534 404 L 542 404 L 542 388 L 542 388 L 534 388 L 470 388 L 470 324 L 470 324 L 470 316 L 470 316 Z M 614 17 L 544 236 L 614 17 L 544 236 L 398 236 L 398 236 L 398 28 L 398 28 L 614 17 L 614 17 Z" />
</svg>