<svg xmlns="http://www.w3.org/2000/svg" viewBox="0 0 448 510">
  <path d="M 230 5 L 224 0 L 230 5 L 224 0 L 218 5 L 218 5 L 66 157 L 66 157 L 64 160 L 64 160 L 64 163 L 64 163 L 64 182 L 64 182 L 64 190 L 64 190 L 72 190 L 125 190 L 34 280 L 34 280 L 32 283 L 32 283 L 32 286 L 32 286 L 32 310 L 32 310 L 32 318 L 32 318 L 40 318 L 93 318 L 2 408 L 2 408 L 0 411 L 0 411 L 0 414 L 0 414 L 0 438 L 0 438 L 0 446 L 0 446 L 8 446 L 216 446 L 216 502 L 216 502 L 216 510 L 216 510 L 232 510 L 232 510 L 232 502 L 232 502 L 232 446 L 232 446 L 288 446 L 448 446 L 448 438 L 448 438 L 448 414 L 448 414 L 448 411 L 448 411 L 446 408 L 446 408 L 355 318 L 355 318 L 408 318 L 416 318 L 416 310 L 416 310 L 416 286 L 416 286 L 416 283 L 416 283 L 414 280 L 414 280 L 323 190 L 323 190 L 376 190 L 384 190 L 384 182 L 384 182 L 384 163 L 384 163 L 384 160 L 384 160 L 382 157 L 382 157 L 230 5 L 230 5 Z M 232 430 L 232 198 L 232 430 L 232 198 L 232 190 L 232 190 L 216 190 L 216 190 L 216 198 L 216 198 L 216 430 L 216 430 L 160 430 L 16 430 L 16 417 L 16 417 L 118 316 L 118 316 L 131 302 L 131 302 L 112 302 L 48 302 L 48 289 L 48 289 L 150 188 L 150 188 L 163 174 L 163 174 L 144 174 L 80 174 L 80 166 L 80 166 L 224 22 L 224 22 L 368 166 L 368 166 L 368 174 L 368 174 L 304 174 L 285 174 L 298 188 L 298 188 L 400 289 L 400 289 L 400 302 L 400 302 L 336 302 L 317 302 L 330 316 L 330 316 L 432 417 L 432 417 L 432 430 L 432 430 L 296 430 L 232 430 Z" />
</svg>