<svg xmlns="http://www.w3.org/2000/svg" viewBox="0 0 512 512">
  <path d="M 496 256 Q 496 223 487 192 L 368 192 L 368 192 L 368 213 L 368 213 L 398 242 L 398 242 L 400 245 L 400 245 L 400 248 L 400 248 L 400 312 L 400 312 L 400 320 L 400 320 L 392 320 L 368 320 L 368 360 L 368 360 L 368 363 L 368 363 L 366 366 L 366 366 L 318 414 L 318 414 L 315 416 L 315 416 L 312 416 L 256 416 L 256 408 L 256 408 L 256 320 L 256 320 L 168 320 L 160 320 L 160 312 L 160 312 L 160 224 L 160 224 L 160 221 L 160 221 L 162 218 L 162 218 L 202 178 L 202 178 L 205 176 L 205 176 L 208 176 L 293 176 L 341 128 L 341 128 L 267 128 L 267 128 L 238 158 L 238 158 L 235 160 L 235 160 L 232 160 L 192 160 L 192 152 L 192 152 L 192 87 L 192 87 L 147 42 L 147 42 Q 88 73 52 129 Q 17 185 16 256 Q 17 323 49 377 Q 81 431 135 463 Q 189 495 256 496 Q 323 495 377 463 Q 431 431 463 377 Q 495 323 496 256 L 496 256 Z M 482 176 Q 456 105 396 61 L 396 61 L 396 61 Q 336 17 256 16 Q 206 16 162 35 L 206 78 L 206 78 L 208 81 L 208 81 L 208 84 L 208 84 L 208 144 L 208 144 L 229 144 L 229 144 L 258 114 L 258 114 L 261 112 L 261 112 L 264 112 L 379 112 L 366 126 L 366 126 L 302 190 L 302 190 L 299 192 L 299 192 L 296 192 L 211 192 L 176 227 L 176 227 L 176 304 L 176 304 L 264 304 L 272 304 L 272 312 L 272 312 L 272 400 L 272 400 L 309 400 L 309 400 L 352 357 L 352 357 L 352 312 L 352 312 L 352 304 L 352 304 L 360 304 L 384 304 L 384 251 L 384 251 L 354 222 L 354 222 L 352 219 L 352 219 L 352 216 L 352 216 L 352 184 L 352 184 L 352 176 L 352 176 L 360 176 L 482 176 Z M 0 256 Q 1 186 34 128 L 34 128 L 34 128 Q 68 70 128 34 Q 189 0 256 0 Q 323 0 384 34 Q 444 70 478 128 Q 511 186 512 256 Q 511 326 478 384 Q 444 442 384 478 Q 323 512 256 512 Q 189 512 128 478 Q 68 442 34 384 Q 1 326 0 256 L 0 256 Z" />
</svg>