<svg xmlns="http://www.w3.org/2000/svg" viewBox="0 0 512 512">
  <path d="M 375.2 239.2 L 375.2 239.2 L 392.8 221.6 L 392.8 221.6 L 442.4 172 L 460.8 153.6 L 442.4 135.2 L 376.8 69.6 L 358.4 51.2 L 340 69.6 L 290.4 119.2 L 252 80.8 L 243.2 71.2 L 234.4 80.8 L 182.4 132.8 L 202.4 148.8 L 243.2 108 L 272.8 136.8 L 235.2 174.4 L 255.2 190.4 L 290.4 155.2 L 356.8 221.6 L 329.6 248.8 L 349.6 264.8 L 375.2 239.2 L 375.2 239.2 Z M 256.8 321.6 L 166.4 412 L 84 428 L 100.8 345.6 L 182.4 263.2 L 162.4 247.2 L 76.8 332.8 L 56.8 433.6 L 51.2 460.8 L 78.4 455.2 L 179.2 435.2 L 276.8 337.6 L 256.8 321.6 L 256.8 321.6 Z M 375.2 203.2 L 308.8 136.8 L 358.4 87.2 L 424.8 153.6 L 375.2 203.2 L 375.2 203.2 Z M 25.6 59.2 L 16 51.2 L 0 71.2 L 10.4 79.2 L 486.4 452.8 L 496 460.8 L 512 440.8 L 502.4 432.8 L 25.6 59.2 L 25.6 59.2 Z" />
</svg>