<svg xmlns="http://www.w3.org/2000/svg" viewBox="0 0 624 496">
  <path d="M 32 10 L 20 0 L 32 10 L 20 0 L 0 25 L 0 25 L 13 35 L 13 35 L 592 486 L 592 486 L 604 496 L 604 496 L 624 471 L 624 471 L 612 461 L 612 461 L 32 10 L 32 10 Z M 600 248 Q 585 209 547 157 L 547 157 L 547 157 Q 510 105 450 65 L 450 65 L 450 65 Q 391 26 312 24 Q 237 26 180 62 L 207 83 L 207 83 Q 254 57 312 56 Q 363 57 406 77 Q 449 98 482 131 Q 512 160 533 191 Q 554 222 565 248 Q 549 284 516 327 L 541 347 L 541 347 Q 584 291 600 248 L 600 248 Z M 83 149 Q 40 205 24 248 Q 39 287 77 339 Q 115 391 174 431 Q 233 470 312 472 Q 387 470 445 434 L 417 413 L 417 413 Q 370 439 312 440 Q 261 439 218 419 Q 175 398 142 365 Q 112 336 91 305 Q 70 274 59 248 Q 75 212 108 169 L 83 149 L 83 149 Z M 312 376 Q 337 376 359 367 L 329 343 L 329 343 Q 320 344 312 344 Q 273 343 246 318 Q 219 292 216 254 L 185 229 L 185 229 Q 184 238 184 248 Q 185 302 221 338 Q 258 375 312 376 L 312 376 Z M 440 248 Q 439 194 403 157 L 403 157 L 403 157 Q 366 121 312 120 Q 287 120 265 129 L 296 154 L 296 154 Q 304 152 312 152 Q 351 153 378 178 Q 405 204 408 242 L 439 267 L 439 267 Q 440 258 440 248 L 440 248 Z" />
</svg>