<svg xmlns="http://www.w3.org/2000/svg" viewBox="0 0 384 512">
  <path d="M 16 496 L 16 16 L 16 496 L 16 16 L 208 16 L 208 16 L 208 168 L 208 168 L 208 176 L 208 176 L 216 176 L 368 176 L 368 496 L 368 496 L 16 496 L 16 496 Z M 224 23 L 361 160 L 224 23 L 361 160 L 224 160 L 224 160 L 224 23 L 224 23 Z M 224 0 L 16 0 L 224 0 L 0 0 L 0 16 L 0 16 L 0 496 L 0 496 L 0 512 L 0 512 L 16 512 L 384 512 L 384 496 L 384 496 L 384 160 L 384 160 L 224 0 L 224 0 Z M 304 221 L 293 225 L 304 221 L 293 225 L 165 273 L 165 273 L 160 275 L 160 275 L 160 280 L 160 280 L 160 386 L 160 386 Q 147 376 128 376 Q 108 376 94 388 Q 81 399 80 416 Q 81 433 94 444 Q 108 456 128 456 Q 148 456 162 444 Q 175 433 176 416 L 176 286 L 176 286 L 288 244 L 288 244 L 288 354 L 288 354 Q 275 344 256 344 Q 236 344 222 356 Q 209 367 208 384 Q 209 401 222 412 Q 236 423 256 424 Q 276 423 290 412 Q 303 401 304 384 L 304 232 L 304 232 L 304 220 L 304 221 Z M 256 360 Q 271 361 280 368 L 280 368 L 280 368 Q 288 376 288 384 Q 288 392 280 400 Q 271 407 256 408 Q 241 407 232 400 Q 224 392 224 384 Q 224 376 232 368 Q 241 361 256 360 L 256 360 Z M 128 392 Q 143 393 152 400 L 152 400 L 152 400 Q 160 408 160 416 Q 160 424 152 432 Q 143 439 128 440 Q 113 439 104 432 Q 96 424 96 416 Q 96 408 104 400 Q 113 393 128 392 L 128 392 Z" />
</svg>