<svg xmlns="http://www.w3.org/2000/svg" viewBox="0 0 448 512">
  <path d="M 392 0 Q 416 1 432 16 L 432 16 L 432 16 Q 447 32 448 56 L 448 456 L 448 456 Q 447 480 432 496 Q 416 511 392 512 L 8 512 L 0 512 L 0 496 L 0 496 L 8 496 L 32 496 L 32 416 L 32 416 L 8 416 L 0 416 L 0 408 L 0 408 L 0 8 L 0 8 L 0 0 L 0 0 L 8 0 L 392 0 Z M 48 416 L 48 496 L 48 416 L 48 496 L 392 496 L 392 496 Q 409 496 420 484 Q 432 473 432 456 Q 432 439 420 428 Q 409 416 392 416 L 48 416 L 48 416 Z M 392 400 Q 416 401 432 417 L 432 56 L 432 56 Q 432 39 420 28 Q 409 16 392 16 L 16 16 L 16 16 L 16 400 L 16 400 L 392 400 L 392 400 Z M 240 96 Q 189 97 155 131 L 155 131 L 155 131 Q 121 165 120 216 Q 121 267 155 301 Q 189 335 240 336 Q 264 336 285 327 Q 241 322 213 291 Q 185 260 184 216 Q 185 172 213 141 Q 241 110 285 105 Q 264 96 240 96 L 240 96 Z M 104 216 Q 105 158 144 120 L 144 120 L 144 120 Q 182 81 240 80 Q 287 81 323 108 L 316 122 L 316 122 Q 306 120 296 120 Q 255 121 228 148 Q 201 175 200 216 Q 201 257 228 284 Q 255 311 296 312 Q 306 312 316 310 L 323 324 L 323 324 Q 287 351 240 352 Q 182 351 144 312 Q 105 274 104 216 L 104 216 Z M 303 157 L 316 188 L 303 157 L 316 188 L 350 191 L 350 191 L 369 192 L 369 192 L 355 205 L 355 205 L 329 227 L 329 227 L 337 259 L 337 259 L 341 278 L 341 278 L 325 268 L 325 268 L 296 251 L 296 251 L 267 268 L 267 268 L 251 278 L 251 278 L 255 260 L 255 260 L 263 227 L 263 227 L 238 205 L 238 205 L 223 192 L 223 192 L 242 191 L 242 191 L 276 188 L 276 188 L 289 157 L 289 157 L 296 139 L 296 139 L 303 157 L 303 157 Z M 289 199 L 287 203 L 289 199 L 287 203 L 282 204 L 282 204 L 263 205 L 263 205 L 277 218 L 277 218 L 281 221 L 281 221 L 280 226 L 280 226 L 275 245 L 275 245 L 292 234 L 292 234 L 296 232 L 296 232 L 300 234 L 300 234 L 317 245 L 317 245 L 312 226 L 312 226 L 311 221 L 311 221 L 315 218 L 315 218 L 330 205 L 330 205 L 310 204 L 310 204 L 305 203 L 305 203 L 303 199 L 303 199 L 296 181 L 296 181 L 289 199 L 289 199 Z" />
</svg>