<svg xmlns="http://www.w3.org/2000/svg" viewBox="0 0 352 512">
  <path d="M 192 160 L 192 192 L 192 160 L 192 192 L 192 384 L 192 384 L 192 416 L 192 416 L 224 416 L 320 416 L 320 480 L 320 480 L 128 480 L 128 480 L 128 192 L 128 192 L 128 160 L 128 160 L 96 160 L 45 160 L 160 45 L 160 45 L 275 160 L 275 160 L 224 160 L 192 160 Z M 288 192 L 320 192 L 288 192 L 320 192 L 320 160 L 320 160 L 183 23 L 183 23 L 160 0 L 160 0 L 137 23 L 137 23 L 0 160 L 0 160 L 0 192 L 0 192 L 32 192 L 96 192 L 96 224 L 96 224 L 96 480 L 96 480 L 96 512 L 96 512 L 128 512 L 352 512 L 352 480 L 352 480 L 352 416 L 352 416 L 352 384 L 352 384 L 320 384 L 224 384 L 224 352 L 224 352 L 224 224 L 224 224 L 224 192 L 224 192 L 256 192 L 288 192 Z" />
</svg>