<svg xmlns="http://www.w3.org/2000/svg" viewBox="0 0 576 424">
  <path d="M 304 16 Q 233 18 185 65 L 185 65 L 185 65 Q 138 113 136 184 Q 135 228 106 258 Q 76 287 32 288 L 24 288 L 24 288 L 24 272 L 24 272 L 32 272 L 32 272 Q 69 271 94 246 Q 119 221 120 184 Q 122 106 174 54 Q 226 2 304 0 Q 351 0 390 21 Q 429 42 455 78 L 445 90 L 445 90 Q 424 80 400 80 Q 356 81 326 110 Q 297 140 296 184 Q 297 221 322 246 Q 347 271 384 272 Q 401 272 417 263 Q 433 254 446 242 Q 459 230 466 221 Q 473 213 479 204 Q 479 203 479 203 L 480 202 L 480 202 L 480 203 L 480 203 Q 480 203 480 203 Q 480 203 480 203 Q 481 204 482 205 Q 487 213 494 221 Q 501 230 514 242 Q 527 254 543 263 Q 559 272 576 272 L 576 288 L 576 288 Q 554 287 536 277 Q 517 267 503 254 Q 488 239 480 229 Q 472 239 457 254 Q 443 267 424 277 Q 406 287 384 288 Q 340 287 310 258 Q 281 228 280 184 Q 281 133 315 99 Q 349 65 400 64 Q 412 64 424 66 Q 376 18 304 16 L 304 16 Z M 96 338 L 97 339 L 96 338 L 97 339 Q 97 340 98 341 Q 104 349 110 357 Q 117 366 130 378 Q 143 390 159 399 Q 175 408 192 408 Q 209 408 225 399 Q 241 390 254 378 Q 267 366 274 357 Q 281 349 287 340 Q 287 339 287 339 Q 287 339 287 339 Q 287 339 287 339 Q 287 339 287 339 Q 287 339 287 339 L 288 338 L 288 338 L 289 339 L 289 339 Q 289 340 290 341 Q 295 349 302 357 Q 309 366 322 378 Q 335 390 351 399 Q 367 408 384 408 Q 401 408 417 399 Q 433 390 446 378 Q 459 366 466 357 Q 473 349 479 340 Q 479 339 479 339 L 480 338 L 480 338 L 481 339 L 481 339 Q 481 339 481 339 Q 481 339 481 339 Q 481 339 481 339 Q 481 339 481 339 Q 481 339 481 339 Q 481 339 481 339 Q 481 340 482 341 Q 487 349 494 357 Q 501 366 514 378 Q 527 390 543 399 Q 559 408 576 408 L 576 424 L 576 424 Q 554 423 536 413 Q 517 403 503 390 Q 488 375 480 365 Q 472 375 457 390 Q 443 403 424 413 Q 406 423 384 424 Q 362 423 344 413 Q 325 403 311 390 Q 296 375 288 365 Q 280 375 265 390 Q 251 403 232 413 Q 214 423 192 424 Q 170 423 152 413 Q 133 403 119 390 Q 104 375 96 365 Q 88 375 73 390 Q 59 403 40 413 Q 22 423 0 424 L 0 408 L 0 408 Q 17 408 33 399 Q 49 390 62 378 Q 75 366 82 357 Q 89 349 95 340 Q 95 339 95 339 L 96 338 L 96 338 Z" />
</svg>