<svg xmlns="http://www.w3.org/2000/svg" viewBox="0 0 512 521">
  <path d="M 80 73 Q 81 46 104 31 Q 128 19 152 31 Q 175 46 176 73 Q 175 100 152 115 Q 128 127 104 115 Q 81 100 80 73 L 80 73 Z M 192 73 Q 191 37 160 18 Q 128 0 96 18 Q 65 37 64 73 Q 65 109 96 128 Q 128 146 160 128 Q 191 109 192 73 L 192 73 Z M 21 377 L 76 185 L 21 377 L 76 185 L 168 185 L 168 185 Q 169 177 171 169 L 64 169 L 64 169 L 5 377 L 5 377 L 0 393 L 0 393 L 17 393 L 56 393 L 56 513 L 56 513 L 56 521 L 56 521 L 64 521 L 120 521 L 120 513 L 120 513 L 120 393 L 120 393 L 136 393 L 136 393 L 136 513 L 136 513 L 136 521 L 136 521 L 144 521 L 176 521 L 176 505 L 176 505 L 152 505 L 152 505 L 152 393 L 152 393 L 160 393 L 160 393 L 160 377 L 160 377 L 144 377 L 21 377 Z M 376 521 L 376 513 L 376 521 L 376 513 L 376 393 L 376 393 L 392 393 L 392 393 L 392 513 L 392 513 L 392 521 L 392 521 L 400 521 L 456 521 L 456 513 L 456 513 L 456 393 L 456 393 L 495 393 L 512 393 L 507 377 L 507 377 L 448 169 L 448 169 L 341 169 L 341 169 Q 343 177 344 185 L 436 185 L 436 185 L 491 377 L 491 377 L 448 377 L 352 377 L 352 393 L 352 393 L 360 393 L 360 393 L 360 505 L 360 505 L 336 505 L 336 505 L 336 521 L 336 521 L 368 521 L 376 521 Z M 72 393 L 104 393 L 72 393 L 104 393 L 104 505 L 104 505 L 72 505 L 72 505 L 72 393 L 72 393 Z M 336 73 Q 337 46 360 31 Q 384 19 408 31 Q 431 46 432 73 Q 431 100 408 115 Q 384 127 360 115 Q 337 100 336 73 L 336 73 Z M 448 73 Q 447 37 416 18 Q 384 0 352 18 Q 321 37 320 73 Q 321 109 352 128 Q 384 146 416 128 Q 447 109 448 73 L 448 73 Z M 440 393 L 440 505 L 440 393 L 440 505 L 408 505 L 408 505 L 408 393 L 408 393 L 440 393 L 440 393 Z M 256 153 Q 279 154 291 173 Q 301 193 291 213 Q 279 232 256 233 Q 233 232 221 213 Q 211 193 221 173 Q 233 154 256 153 L 256 153 Z M 256 249 Q 288 248 304 221 Q 320 193 304 165 Q 288 138 256 137 Q 224 138 208 165 Q 192 193 208 221 Q 224 248 256 249 L 256 249 Z M 320 281 L 320 409 L 320 281 L 320 409 L 304 409 L 192 409 L 192 281 L 192 281 L 320 281 L 320 281 Z M 208 425 L 208 513 L 208 425 L 208 513 L 208 521 L 208 521 L 224 521 L 224 521 L 224 513 L 224 513 L 224 425 L 224 425 L 288 425 L 288 425 L 288 513 L 288 513 L 288 521 L 288 521 L 304 521 L 304 521 L 304 513 L 304 513 L 304 425 L 304 425 L 320 425 L 336 425 L 336 409 L 336 409 L 336 281 L 336 281 L 336 265 L 336 265 L 320 265 L 176 265 L 176 281 L 176 281 L 176 409 L 176 409 L 176 425 L 176 425 L 192 425 L 208 425 Z" />
</svg>