<svg xmlns="http://www.w3.org/2000/svg" viewBox="0 0 640 512">
  <path d="M 80 0 L 80 32 L 80 0 L 80 32 L 16 32 L 0 32 L 0 48 L 0 48 L 0 400 L 0 400 L 0 416 L 0 416 L 16 416 L 80 416 L 80 512 L 80 512 L 96 512 L 96 512 L 96 416 L 96 416 L 349 416 L 349 416 Q 343 408 339 400 L 16 400 L 16 400 L 16 48 L 16 48 L 560 48 L 560 48 L 560 160 L 560 160 L 576 160 L 576 160 L 576 48 L 576 48 L 576 32 L 576 32 L 560 32 L 496 32 L 496 0 L 496 0 L 480 0 L 480 0 L 480 32 L 480 32 L 96 32 L 96 32 L 96 0 L 96 0 L 80 0 L 80 0 Z M 432 192 L 430 192 L 432 192 L 430 192 L 428 193 L 428 193 Q 394 212 373 245 Q 353 278 352 320 Q 352 355 367 385 Q 382 414 408 434 L 408 504 L 408 504 L 408 512 L 408 512 L 424 512 L 424 512 L 424 504 L 424 504 L 424 430 L 424 430 L 424 426 L 424 426 L 421 424 L 421 424 Q 396 406 382 379 Q 368 352 368 320 Q 368 283 386 254 Q 404 225 434 208 L 440 208 L 440 208 L 440 288 L 440 288 L 440 291 L 440 291 L 442 294 L 442 294 L 490 342 L 490 342 L 496 347 L 496 347 L 502 342 L 502 342 L 550 294 L 550 294 L 552 291 L 552 291 L 552 288 L 552 288 L 552 208 L 552 208 L 558 208 L 558 208 Q 588 225 606 254 Q 624 283 624 320 Q 624 352 610 379 Q 596 406 571 424 L 568 426 L 568 426 L 568 430 L 568 430 L 568 504 L 568 504 L 568 512 L 568 512 L 584 512 L 584 512 L 584 504 L 584 504 L 584 434 L 584 434 Q 610 414 625 385 Q 640 355 640 320 Q 639 278 619 245 Q 598 212 564 193 L 562 192 L 562 192 L 560 192 L 536 192 L 536 200 L 536 200 L 536 285 L 536 285 L 496 325 L 496 325 L 456 285 L 456 285 L 456 200 L 456 200 L 456 192 L 456 192 L 448 192 L 432 192 Z" />
</svg>