<svg xmlns="http://www.w3.org/2000/svg" viewBox="0 0 512 512">
  <path d="M 16 256 Q 17 189 49 135 L 49 135 L 49 135 Q 81 81 135 49 L 135 49 L 135 49 Q 189 17 256 16 Q 323 17 377 49 Q 431 81 463 135 Q 495 189 496 256 Q 496 272 494 288 Q 486 345 454 391 Q 423 437 374 465 Q 369 478 361 490 Q 421 462 461 410 Q 500 358 510 290 Q 512 273 512 256 Q 511 184 477 127 Q 443 69 385 35 Q 328 1 256 0 Q 184 1 127 35 Q 69 69 35 127 Q 1 184 0 256 Q 0 257 0 258 Q 0 259 0 260 Q 2 338 43 398 Q 84 459 151 490 Q 143 478 138 465 Q 89 437 58 391 Q 26 345 18 288 Q 16 272 16 256 L 16 256 Z M 352 320 L 392 320 L 352 320 L 392 320 Q 388 373 352 408 L 352 320 L 352 320 Z M 256 512 Q 293 511 319 489 L 319 489 L 319 489 Q 345 466 351 431 Q 377 410 393 379 Q 408 348 408 312 L 408 304 L 408 304 L 400 304 L 104 304 L 104 312 L 104 312 Q 104 348 120 379 Q 135 410 161 431 Q 167 466 193 489 Q 219 511 256 512 L 256 512 Z M 120 320 L 160 320 L 120 320 L 160 320 L 160 408 L 160 408 Q 124 373 120 320 L 120 320 Z M 192 320 L 320 320 L 192 320 L 336 320 L 336 336 L 336 336 L 336 416 L 336 416 Q 335 450 313 473 Q 290 495 256 496 Q 222 495 199 473 Q 177 450 176 416 L 176 336 L 176 336 L 176 320 L 176 320 L 192 320 L 192 320 Z M 240 379 Q 243 377 249 376 Q 263 376 275 379 L 283 381 L 283 381 L 287 366 L 287 366 L 279 364 L 279 364 Q 273 362 264 361 L 264 352 L 264 352 L 264 344 L 264 344 L 248 344 L 248 344 L 248 352 L 248 352 L 248 360 L 248 360 L 247 360 L 247 360 Q 239 361 231 366 Q 223 371 220 382 Q 219 390 222 397 Q 225 404 231 407 Q 242 413 253 416 L 254 416 L 254 416 Q 266 419 272 423 Q 275 424 275 426 Q 276 427 276 431 Q 274 437 271 438 Q 268 440 261 440 L 261 440 L 261 440 L 260 440 L 260 440 Q 244 439 230 434 L 223 432 L 223 432 L 218 447 L 218 447 L 226 449 L 226 449 Q 226 449 226 449 Q 235 452 248 455 L 248 461 L 248 461 L 248 469 L 248 469 L 264 469 L 264 469 L 264 461 L 264 461 L 264 456 L 264 456 Q 272 456 279 452 Q 289 446 292 434 Q 293 426 290 419 Q 286 413 281 409 Q 270 403 259 401 L 258 400 L 258 400 Q 246 397 240 394 Q 237 392 237 390 Q 236 389 236 385 Q 237 381 240 379 L 240 379 Z M 184 101 L 184 93 L 184 101 L 184 93 L 168 93 L 168 93 L 168 101 L 168 101 L 168 112 L 168 112 Q 158 113 151 117 Q 134 124 130 141 Q 128 151 132 159 Q 136 166 144 171 Q 157 178 173 182 L 174 183 L 174 183 Q 190 187 200 193 Q 204 196 205 199 Q 207 202 206 209 Q 205 217 195 221 Q 185 225 167 223 Q 158 221 145 216 Q 145 216 145 216 Q 145 216 145 216 Q 145 216 145 216 Q 145 216 145 216 Q 145 216 145 216 Q 145 216 145 216 Q 142 216 140 215 L 132 212 L 132 212 L 128 228 L 128 228 L 135 230 L 135 230 Q 136 230 137 231 Q 138 231 139 231 Q 139 231 139 231 Q 139 231 139 231 Q 139 231 139 231 Q 152 236 165 239 Q 165 239 165 239 Q 165 239 165 239 Q 166 239 166 239 Q 167 239 168 239 L 168 250 L 168 250 L 168 259 L 168 259 L 184 259 L 184 259 L 184 251 L 184 251 L 184 240 L 184 240 Q 193 239 201 236 Q 218 229 222 211 Q 223 201 220 193 Q 216 184 209 180 Q 195 171 178 167 Q 178 167 178 167 Q 178 167 178 167 Q 161 163 152 157 Q 148 154 146 152 Q 145 149 146 143 Q 147 136 157 131 Q 167 126 184 129 Q 187 129 193 130 Q 199 132 203 132 L 207 117 L 207 117 Q 203 116 196 115 Q 190 113 187 113 Q 185 113 184 113 L 184 101 L 184 101 Z M 344 93 L 328 93 L 344 93 L 328 93 L 328 101 L 328 101 L 328 112 L 328 112 Q 318 113 311 117 Q 294 124 290 141 Q 288 151 292 159 Q 296 166 304 171 Q 317 178 333 182 L 334 183 L 334 183 Q 350 187 360 193 Q 364 196 365 199 Q 367 202 366 209 Q 365 217 355 221 Q 345 225 327 223 Q 318 221 305 216 Q 305 216 305 216 Q 305 216 305 216 Q 302 216 300 215 L 292 212 L 292 212 L 288 228 L 288 228 L 295 230 L 295 230 Q 296 230 297 231 Q 298 231 299 231 Q 299 231 299 231 Q 299 231 299 231 Q 299 231 299 231 Q 312 236 325 239 Q 325 239 325 239 Q 325 239 325 239 Q 326 239 328 239 L 328 250 L 328 250 L 328 259 L 328 259 L 344 259 L 344 259 L 344 251 L 344 251 L 344 240 L 344 240 Q 353 239 361 236 Q 378 229 382 211 Q 383 201 380 193 Q 376 184 369 180 Q 355 171 338 167 Q 338 167 338 167 Q 338 167 338 167 Q 321 163 312 157 Q 308 154 306 152 Q 305 149 306 143 Q 307 136 317 131 Q 327 126 344 129 Q 347 129 353 130 Q 359 132 363 132 L 367 117 L 367 117 Q 363 116 356 115 Q 350 113 347 113 Q 346 113 345 113 Q 344 113 344 113 L 344 101 L 344 101 L 344 93 L 344 93 Z" />
</svg>