<svg xmlns="http://www.w3.org/2000/svg" viewBox="0 0 640 512">
  <path d="M 544 224 Q 543 161 513 111 L 513 111 L 513 111 Q 484 60 433 31 L 433 31 L 433 31 Q 383 1 320 0 Q 237 2 177 52 L 190 62 L 190 62 Q 245 17 320 16 Q 408 18 467 77 Q 526 136 528 224 Q 528 272 508 313 L 521 323 L 521 323 Q 544 278 544 224 L 544 224 Z M 528 512 L 508 496 L 528 512 L 508 496 L 495 496 L 495 496 Q 495 496 495 496 Q 495 496 495 496 L 145 496 L 145 496 L 206 417 L 206 417 Q 257 447 320 448 Q 373 448 418 425 L 404 414 L 404 414 Q 365 432 320 432 Q 232 430 173 371 Q 114 312 112 224 Q 112 205 115 186 L 101 175 L 101 175 Q 96 199 96 224 Q 97 282 122 330 Q 148 377 193 408 L 124 496 L 124 496 L 112 512 L 112 512 L 132 512 L 528 512 L 528 512 L 528 512 Z M 320 368 Q 332 368 343 366 L 325 352 L 325 352 Q 323 352 320 352 Q 272 351 238 322 Q 204 294 194 249 L 176 234 L 176 234 Q 182 292 222 329 Q 262 367 320 368 L 320 368 Z M 448 224 Q 448 243 443 261 L 456 272 L 456 272 Q 464 249 464 224 Q 463 163 422 122 Q 381 82 320 80 Q 276 81 242 103 L 256 113 L 256 113 Q 284 96 320 96 Q 374 97 411 133 Q 447 170 448 224 L 448 224 Z M 16 5 L 10 0 L 16 5 L 10 0 L 0 13 L 0 13 L 6 18 L 6 18 L 624 507 L 624 507 L 630 512 L 630 512 L 640 500 L 640 500 L 634 495 L 634 495 L 16 5 L 16 5 Z" />
</svg>