<svg xmlns="http://www.w3.org/2000/svg" viewBox="0 0 512 440">
  <path d="M 136 0 L 144 0 L 136 0 L 376 0 L 376 8 L 376 8 L 376 88 L 376 88 L 432 88 L 432 88 L 512 168 L 512 168 L 512 288 L 512 288 L 512 304 L 512 304 L 512 424 L 512 424 L 512 440 L 512 440 L 496 440 L 0 440 L 0 424 L 0 424 L 0 304 L 0 304 L 0 288 L 0 288 L 0 168 L 0 168 L 80 88 L 80 88 L 136 88 L 136 88 L 136 8 L 136 8 L 136 0 L 136 0 Z M 16 304 L 16 424 L 16 304 L 16 424 L 496 424 L 496 424 L 496 304 L 496 304 L 352 304 L 352 304 L 352 352 L 352 352 L 352 360 L 352 360 L 336 360 L 336 360 L 336 352 L 336 352 L 336 304 L 336 304 L 176 304 L 176 304 L 176 352 L 176 352 L 176 360 L 176 360 L 160 360 L 160 360 L 160 352 L 160 352 L 160 304 L 160 304 L 16 304 L 16 304 Z M 496 288 L 496 175 L 496 288 L 496 175 L 425 104 L 425 104 L 376 104 L 87 104 L 16 175 L 16 175 L 16 288 L 16 288 L 160 288 L 160 288 L 160 240 L 160 240 L 160 232 L 160 232 L 176 232 L 176 232 L 176 240 L 176 240 L 176 288 L 176 288 L 336 288 L 336 288 L 336 240 L 336 240 L 336 232 L 336 232 L 352 232 L 352 232 L 352 240 L 352 240 L 352 288 L 352 288 L 496 288 L 496 288 Z M 360 16 L 152 16 L 360 16 L 152 16 L 152 88 L 152 88 L 360 88 L 360 88 L 360 16 L 360 16 Z" />
</svg>