<svg xmlns="http://www.w3.org/2000/svg" viewBox="0 0 640 512">
  <path d="M 162 0 L 169 0 L 162 0 L 200 0 Q 237 1 262 26 Q 287 51 288 88 L 288 163 L 288 163 Q 288 182 301 195 Q 314 208 333 208 L 341 208 L 341 208 Q 379 208 411 226 Q 444 243 464 275 L 483 305 L 483 305 Q 493 320 511 320 Q 530 319 539 304 Q 548 289 539 271 L 515 228 L 515 228 L 548 196 L 548 196 L 579 214 L 579 214 Q 607 231 624 260 Q 640 288 640 322 Q 639 375 603 411 Q 567 447 514 448 L 496 448 L 496 448 L 496 488 L 496 488 L 496 512 L 496 512 L 472 512 L 371 512 L 368 491 L 368 491 L 363 448 L 363 448 L 309 448 L 309 448 L 304 491 L 304 491 L 301 512 L 301 512 L 280 512 L 176 512 L 176 488 L 176 488 L 176 447 L 176 447 Q 134 440 108 410 Q 81 379 80 336 L 80 304 L 80 304 L 24 304 L 0 304 L 0 280 L 0 280 L 0 232 L 0 232 L 0 220 L 0 220 L 10 212 L 10 212 L 66 172 L 66 172 L 72 168 L 72 168 L 80 168 L 128 168 L 128 216 L 128 216 L 88 216 L 88 216 L 48 244 L 48 244 L 48 256 L 48 256 L 104 256 L 128 256 L 128 280 L 128 280 L 128 288 L 128 288 L 128 336 L 128 336 Q 129 363 147 381 Q 165 399 192 400 L 200 400 L 224 400 L 224 424 L 224 424 L 224 464 L 224 464 L 259 464 L 259 464 L 264 421 L 264 421 L 267 400 L 267 400 L 288 400 L 405 400 L 408 421 L 408 421 L 413 464 L 413 464 L 448 464 L 448 464 L 448 424 L 448 424 L 448 400 L 448 400 L 472 400 L 514 400 Q 547 399 569 377 Q 591 355 592 322 Q 592 313 590 304 Q 584 331 563 349 Q 542 367 511 368 Q 468 367 443 331 L 424 301 L 424 301 Q 394 258 341 256 L 333 256 L 333 256 Q 293 255 267 229 Q 241 203 240 163 L 240 88 L 240 88 Q 240 71 228 60 Q 217 48 200 48 L 176 48 L 176 48 L 144 69 L 144 69 L 144 80 L 144 80 L 184 80 L 208 80 L 208 104 L 208 104 L 208 239 L 208 239 L 223 289 L 223 289 L 230 312 L 230 312 L 184 326 L 184 326 L 177 303 L 177 303 L 161 249 L 161 249 L 160 246 L 160 246 L 160 242 L 160 242 L 160 216 L 160 216 L 160 168 L 160 168 L 160 160 L 160 160 L 160 128 L 160 128 L 120 128 L 96 128 L 96 104 L 96 104 L 96 56 L 96 56 L 96 43 L 96 43 L 107 36 L 107 36 L 156 4 L 156 4 L 162 0 L 162 0 Z M 389 176 L 341 176 L 389 176 L 340 176 L 344 148 L 344 148 L 347 128 L 347 128 L 368 128 L 416 128 L 416 117 L 416 117 L 384 96 L 384 96 L 339 96 L 339 96 Q 329 96 320 101 L 320 88 L 320 88 Q 320 69 314 52 Q 326 48 339 48 L 391 48 L 398 48 L 404 52 L 404 52 L 453 84 L 453 84 L 464 91 L 464 91 L 464 104 L 464 104 L 464 152 L 464 152 L 464 176 L 464 176 L 440 176 L 389 176 Z" />
</svg>