<svg xmlns="http://www.w3.org/2000/svg" viewBox="0 0 640 512">
  <path d="M 148 0 L 145 4 L 148 0 L 145 4 L 108 64 L 108 64 L 0 64 L 0 64 L 0 80 L 0 80 L 416 80 L 416 80 L 416 64 L 416 64 L 308 64 L 308 64 L 271 4 L 271 4 L 268 0 L 268 0 L 264 0 L 148 0 Z M 260 16 L 290 64 L 260 16 L 290 64 L 126 64 L 126 64 L 156 16 L 156 16 L 260 16 L 260 16 Z M 48 120 L 48 112 L 48 120 L 48 112 L 32 112 L 32 112 L 32 120 L 32 120 L 32 504 L 32 504 L 32 512 L 32 512 L 40 512 L 384 512 L 384 504 L 384 504 L 384 120 L 384 120 L 384 112 L 384 112 L 368 112 L 368 112 L 368 120 L 368 120 L 368 496 L 368 496 L 48 496 L 48 496 L 48 120 L 48 120 Z M 168 152 L 152 152 L 168 152 L 152 152 L 152 160 L 152 160 L 152 416 L 152 416 L 152 424 L 152 424 L 168 424 L 168 424 L 168 416 L 168 416 L 168 160 L 168 160 L 168 152 L 168 152 Z M 264 152 L 248 152 L 264 152 L 248 152 L 248 160 L 248 160 L 248 416 L 248 416 L 248 424 L 248 424 L 264 424 L 264 424 L 264 416 L 264 416 L 264 160 L 264 160 L 264 152 L 264 152 Z M 640 128 L 448 128 L 640 128 L 448 128 L 448 144 L 448 144 L 640 144 L 640 144 L 640 128 L 640 128 Z M 608 256 L 448 256 L 608 256 L 448 256 L 448 272 L 448 272 L 608 272 L 608 272 L 608 256 L 608 256 Z M 448 384 L 448 400 L 448 384 L 448 400 L 544 400 L 544 400 L 544 384 L 544 384 L 448 384 L 448 384 Z" />
</svg>