<svg xmlns="http://www.w3.org/2000/svg" viewBox="0 0 637 512">
  <path d="M 437 0 Q 400 1 375 26 L 375 26 L 375 26 Q 350 51 349 88 L 349 148 L 349 148 L 0 402 L 0 402 L 7 416 L 7 416 L 134 384 L 134 384 L 283 384 L 283 384 L 336 512 L 336 512 L 353 512 L 353 512 L 300 384 L 300 384 L 333 384 L 333 384 Q 356 384 377 379 L 432 512 L 432 512 L 449 512 L 449 512 L 392 375 L 392 375 Q 451 355 488 306 Q 524 257 525 192 L 525 148 L 525 148 L 637 120 L 637 120 L 637 84 L 637 84 L 589 48 L 589 48 L 515 48 L 515 48 Q 504 26 484 13 Q 463 0 437 0 L 437 0 Z M 621 108 L 525 132 L 621 108 L 525 132 L 525 88 L 525 88 Q 525 75 522 64 L 584 64 L 584 64 L 621 92 L 621 92 L 621 108 L 621 108 Z M 198 368 L 219 363 L 198 368 L 219 363 Q 285 345 324 294 Q 364 244 365 176 L 365 168 L 365 168 L 365 88 L 365 88 Q 366 57 386 37 Q 406 17 437 16 Q 468 17 488 37 Q 508 57 509 88 L 509 192 L 509 192 Q 507 267 457 316 Q 408 366 333 368 L 198 368 L 198 368 Z M 349 168 L 349 176 L 349 168 L 349 176 Q 348 238 312 285 Q 275 331 215 347 L 43 390 L 43 390 L 349 168 L 349 168 L 349 168 L 349 168 Z M 453 96 Q 452 81 437 80 Q 422 81 421 96 Q 422 111 437 112 Q 452 111 453 96 L 453 96 Z" />
</svg>