<svg xmlns="http://www.w3.org/2000/svg" viewBox="0 0 512 448">
  <path d="M 16 8 L 16 0 L 16 8 L 16 0 L 0 0 L 0 0 L 0 8 L 0 8 L 0 440 L 0 440 L 0 448 L 0 448 L 8 448 L 512 448 L 512 432 L 512 432 L 504 432 L 16 432 L 16 8 L 16 8 Z M 478 110 L 483 104 L 478 110 L 483 104 L 472 93 L 472 93 L 466 98 L 466 98 L 320 245 L 320 245 L 230 154 L 230 154 L 224 149 L 224 149 L 218 154 L 218 154 L 90 282 L 90 282 L 85 288 L 85 288 L 96 299 L 96 299 L 102 294 L 102 294 L 224 171 L 224 171 L 314 262 L 314 262 L 320 267 L 320 267 L 326 262 L 326 262 L 478 110 L 478 110 Z" />
</svg>