<svg xmlns="http://www.w3.org/2000/svg" viewBox="0 0 576 384">
  <path d="M 16 16 L 16 368 L 16 16 L 16 368 L 560 368 L 560 368 L 560 16 L 560 16 L 16 16 L 16 16 Z M 0 0 L 16 0 L 0 0 L 576 0 L 576 16 L 576 16 L 576 368 L 576 368 L 576 384 L 576 384 L 560 384 L 0 384 L 0 368 L 0 368 L 0 16 L 0 16 L 0 0 L 0 0 Z M 256 176 L 256 192 L 256 176 L 256 192 L 96 192 L 96 192 L 96 176 L 96 176 L 256 176 L 256 176 Z M 96 272 L 480 272 L 96 272 L 480 272 L 480 288 L 480 288 L 96 288 L 96 288 L 96 272 L 96 272 Z M 336 112 L 336 192 L 336 112 L 336 192 L 464 192 L 464 192 L 464 112 L 464 112 L 336 112 L 336 112 Z M 320 96 L 336 96 L 320 96 L 480 96 L 480 112 L 480 112 L 480 192 L 480 192 L 480 208 L 480 208 L 464 208 L 320 208 L 320 192 L 320 192 L 320 112 L 320 112 L 320 96 L 320 96 Z" />
</svg>