<svg xmlns="http://www.w3.org/2000/svg" viewBox="0 0 512 512">
  <path d="M 496 256 Q 495 191 464 136 L 464 136 L 464 136 Q 432 81 376 48 Q 319 16 256 16 Q 193 16 136 48 Q 80 81 48 136 Q 17 191 16 256 Q 17 321 48 376 Q 80 431 136 464 Q 193 496 256 496 Q 319 496 376 464 Q 432 431 464 376 Q 495 321 496 256 L 496 256 Z M 0 256 Q 1 186 34 128 L 34 128 L 34 128 Q 68 70 128 34 Q 189 0 256 0 Q 323 0 384 34 Q 444 70 478 128 Q 511 186 512 256 Q 511 326 478 384 Q 444 442 384 478 Q 323 512 256 512 Q 189 512 128 478 Q 68 442 34 384 Q 1 326 0 256 L 0 256 Z M 176 192 Q 191 193 192 208 Q 191 223 176 224 Q 162 223 160 208 Q 162 193 176 192 L 176 192 Z M 320 208 Q 322 193 336 192 Q 351 193 352 208 Q 351 223 336 224 Q 322 223 320 208 L 320 208 Z M 351 388 Q 310 369 256 368 Q 202 369 161 388 L 148 394 L 148 394 L 150 380 L 150 380 Q 154 343 184 320 Q 214 297 256 296 Q 298 297 328 320 Q 358 343 363 380 L 364 394 L 364 394 L 351 388 L 351 388 Z M 256 312 Q 224 313 201 328 L 201 328 L 201 328 Q 177 343 169 368 Q 208 352 256 352 Q 304 352 344 368 Q 335 343 312 328 Q 288 313 256 312 L 256 312 Z" />
</svg>