<svg xmlns="http://www.w3.org/2000/svg" viewBox="0 0 576 512">
  <path d="M 322 239 L 267 239 L 322 239 L 267 239 L 429 56 L 429 56 Q 436 49 446 50 Q 463 52 464 69 Q 464 77 459 83 L 322 239 L 322 239 Z M 344 287 L 495 114 L 344 287 L 495 114 Q 512 95 512 70 Q 511 42 494 24 Q 477 5 450 2 Q 416 0 394 24 L 203 239 L 203 239 L 160 287 L 160 287 L 224 287 L 344 287 Z M 0 511 Q 2 512 45 506 L 45 506 L 45 506 Q 88 500 144 481 L 144 481 L 144 481 Q 200 462 243 423 L 243 423 L 243 423 Q 286 384 288 319 L 176 319 L 176 319 L 0 511 L 0 511 Z M 248 463 L 224 463 L 248 463 L 224 463 L 224 511 L 224 511 L 248 511 L 320 511 L 320 463 L 320 463 L 296 463 L 248 463 Z M 376 463 L 352 463 L 376 463 L 352 463 L 352 511 L 352 511 L 376 511 L 448 511 L 448 463 L 448 463 L 424 463 L 376 463 Z M 504 463 L 480 463 L 504 463 L 480 463 L 480 511 L 480 511 L 504 511 L 576 511 L 576 463 L 576 463 L 552 463 L 504 463 Z" />
</svg>