<svg xmlns="http://www.w3.org/2000/svg" viewBox="0 0 640 512">
  <path d="M 328 8 L 328 0 L 328 8 L 328 0 L 312 0 L 312 0 L 312 8 L 312 8 L 312 48 L 312 48 L 264 48 L 256 48 L 256 64 L 256 64 L 264 64 L 312 64 L 312 124 L 312 124 L 164 217 L 164 217 L 160 220 L 160 220 L 160 224 L 160 224 L 160 496 L 160 496 L 16 496 L 16 496 L 16 364 L 16 364 L 128 290 L 128 290 L 128 270 L 128 270 L 124 273 L 124 273 L 4 353 L 4 353 L 0 356 L 0 356 L 0 360 L 0 360 L 0 504 L 0 504 L 0 512 L 0 512 L 8 512 L 184 512 Q 184 512 184 512 Q 184 512 184 512 L 256 512 L 480 512 Q 480 512 480 512 Q 480 512 480 512 L 632 512 L 640 512 L 640 504 L 640 504 L 640 360 L 640 360 L 640 356 L 640 356 L 636 353 L 636 353 L 516 273 L 516 273 L 512 270 L 512 270 L 512 290 L 512 290 L 624 364 L 624 364 L 624 496 L 624 496 L 480 496 L 480 496 L 480 224 L 480 224 L 480 220 L 480 220 L 476 217 L 476 217 L 328 124 L 328 124 L 328 64 L 328 64 L 376 64 L 384 64 L 384 48 L 384 48 L 376 48 L 328 48 L 328 8 L 328 8 Z M 464 496 L 456 496 L 464 496 L 456 496 Q 456 496 456 496 Q 456 496 456 496 L 384 496 L 384 496 L 384 384 L 384 384 Q 383 357 365 339 Q 347 321 320 320 Q 293 321 275 339 Q 257 357 256 384 L 256 496 L 256 496 L 176 496 L 176 496 L 176 228 L 176 228 L 320 138 L 320 138 L 464 228 L 464 228 L 464 496 L 464 496 Z M 368 384 L 368 496 L 368 384 L 368 496 L 272 496 L 272 496 L 272 384 L 272 384 Q 273 364 286 350 Q 300 337 320 336 Q 340 337 354 350 Q 367 364 368 384 L 368 384 Z" />
</svg>