<svg xmlns="http://www.w3.org/2000/svg" viewBox="0 0 640 512">
  <path d="M 437 430 Q 391 478 320 480 Q 252 478 207 433 Q 162 388 160 320 Q 160 292 187 240 Q 188 237 189 234 L 164 214 L 164 214 Q 130 274 128 320 Q 130 402 184 456 Q 238 510 320 512 Q 362 512 399 495 Q 435 479 462 450 L 437 430 L 437 430 Z M 299 24 Q 273 55 234 107 L 259 126 L 259 126 Q 291 84 315 55 Q 316 54 317 53 Q 318 51 320 49 Q 323 52 325 55 Q 353 89 390 139 Q 427 189 454 240 Q 471 274 477 298 L 512 326 L 512 326 Q 512 325 512 323 Q 512 322 512 320 Q 510 276 479 219 Q 447 162 408 109 Q 368 55 341 24 Q 321 1 320 0 Q 319 1 299 24 L 299 24 Z M 320 400 Q 286 399 263 377 L 263 377 L 263 377 Q 241 354 240 320 L 208 320 L 208 320 Q 209 368 241 399 Q 272 431 320 432 L 320 400 L 320 400 Z M 32 10 L 20 0 L 32 10 L 20 0 L 0 25 L 0 25 L 13 35 L 13 35 L 608 502 L 608 502 L 620 512 L 620 512 L 640 487 L 640 487 L 628 477 L 628 477 L 32 10 L 32 10 Z" />
</svg>