<svg xmlns="http://www.w3.org/2000/svg" viewBox="0 0 640 512">
  <path d="M 385 0 L 380 32 L 385 0 L 380 32 L 160 32 L 153 32 L 152 39 L 152 39 L 80 407 L 80 407 L 78 416 L 78 416 L 88 416 L 480 416 L 480 408 L 480 408 L 480 288 L 480 288 L 480 283 L 480 283 L 475 281 L 475 281 L 361 227 L 361 227 L 402 0 L 402 0 L 385 0 L 385 0 Z M 259 48 L 377 48 L 259 48 L 377 48 L 357 160 L 357 160 L 296 160 L 288 160 L 288 176 L 288 176 L 296 176 L 354 176 L 345 224 L 345 224 L 280 224 L 272 224 L 272 240 L 272 240 L 280 240 L 350 240 L 464 293 L 464 293 L 464 400 L 464 400 L 98 400 L 98 400 L 129 240 L 129 240 L 136 240 L 219 240 L 221 234 L 221 234 L 259 50 L 259 50 L 259 48 L 259 48 Z M 243 48 L 206 224 L 243 48 L 206 224 L 136 224 L 132 224 L 167 48 L 167 48 L 243 48 L 243 48 Z M 640 424 L 640 416 L 640 424 L 640 416 L 624 416 L 624 416 L 624 424 L 624 424 L 624 496 L 624 496 L 8 496 L 0 496 L 0 512 L 0 512 L 8 512 L 640 512 L 640 504 L 640 504 L 640 424 L 640 424 Z" />
</svg>