<svg xmlns="http://www.w3.org/2000/svg" viewBox="0 0 560 504">
  <path d="M 370 31 L 354 49 L 370 31 L 354 49 L 311 101 L 311 101 L 554 393 L 554 393 L 560 400 L 560 400 L 560 408 L 560 408 L 560 480 L 560 480 L 560 504 L 560 504 L 536 504 L 0 504 L 0 480 L 0 480 L 0 408 L 0 408 L 0 400 L 0 400 L 6 393 L 6 393 L 249 101 L 249 101 L 206 49 L 206 49 L 190 31 L 190 31 L 227 0 L 227 0 L 243 18 L 243 18 L 280 63 L 280 63 L 318 18 L 318 18 L 333 0 L 333 0 L 370 31 L 370 31 Z M 48 417 L 48 456 L 48 417 L 48 456 L 118 456 L 118 456 L 261 273 L 261 273 L 280 249 L 280 249 L 299 273 L 299 273 L 442 456 L 442 456 L 512 456 L 512 456 L 512 417 L 512 417 L 280 138 L 280 138 L 48 417 L 48 417 Z M 179 456 L 256 456 L 179 456 L 381 456 L 280 327 L 280 327 L 179 456 L 179 456 Z" />
</svg>