<svg xmlns="http://www.w3.org/2000/svg" viewBox="0 0 384 512">
  <path d="M 200 0 L 185 0 L 200 0 L 185 0 L 193 12 L 193 12 L 204 29 L 204 29 Q 208 34 208 41 Q 206 62 185 64 L 108 64 L 108 64 Q 83 65 66 82 Q 49 99 48 124 Q 48 145 60 160 L 56 160 L 56 160 L 56 161 L 56 161 Q 32 164 16 181 Q 1 199 0 224 L 0 280 L 0 280 L 0 288 L 0 288 L 8 288 L 384 288 L 384 280 L 384 280 L 384 224 L 384 224 Q 383 199 368 181 Q 352 164 328 161 L 328 160 L 328 160 L 320 160 L 318 160 Q 335 141 336 113 Q 335 65 303 33 Q 271 1 223 0 L 200 0 L 200 0 Z M 294 160 L 232 160 L 294 160 L 224 160 L 224 176 L 224 176 L 232 176 L 320 176 Q 340 177 354 190 Q 367 204 368 224 L 368 272 L 368 272 L 16 272 L 16 272 L 16 224 L 16 224 Q 17 204 30 190 Q 44 177 64 176 L 80 176 L 112 176 L 112 160 L 112 160 L 104 160 L 83 160 Q 65 147 64 124 Q 64 105 77 93 Q 89 80 108 80 L 185 80 L 185 80 Q 202 80 213 69 Q 224 58 224 41 Q 224 30 218 20 L 215 16 L 215 16 L 223 16 L 223 16 Q 264 17 292 44 Q 319 72 320 113 Q 319 144 294 160 L 294 160 Z M 64 328 L 64 320 L 64 328 L 64 320 L 48 320 L 48 320 L 48 328 L 48 328 L 48 376 L 48 376 L 48 384 L 48 384 L 56 384 L 89 384 L 104 505 L 104 505 L 105 512 L 105 512 L 112 512 L 279 512 L 280 505 L 280 505 L 295 384 L 295 384 L 328 384 L 336 384 L 336 376 L 336 376 L 336 328 L 336 328 L 336 320 L 336 320 L 320 320 L 320 320 L 320 328 L 320 328 L 320 368 L 320 368 L 288 368 L 281 368 L 280 375 L 280 375 L 265 496 L 265 496 L 119 496 L 119 496 L 104 375 L 104 375 L 103 368 L 103 368 L 96 368 L 64 368 L 64 328 L 64 328 Z" />
</svg>