<svg xmlns="http://www.w3.org/2000/svg" viewBox="0 0 499 448">
  <path d="M 115 443 L 121 438 L 115 443 L 121 438 L 225 334 L 225 334 L 230 328 L 230 328 L 219 317 L 219 317 L 213 322 L 213 322 L 123 413 L 123 413 L 123 8 L 123 8 L 123 0 L 123 0 L 107 0 L 107 0 L 107 8 L 107 8 L 107 413 L 107 413 L 17 322 L 17 322 L 11 317 L 11 317 L 0 328 L 0 328 L 5 334 L 5 334 L 109 438 L 109 438 L 115 443 L 115 443 Z M 291 160 L 419 160 L 291 160 L 435 160 L 435 144 L 435 144 L 435 16 L 435 16 L 435 0 L 435 0 L 419 0 L 275 0 L 275 16 L 275 16 L 275 144 L 275 144 L 275 160 L 275 160 L 291 160 L 291 160 Z M 419 144 L 291 144 L 419 144 L 291 144 L 291 16 L 291 16 L 419 16 L 419 16 L 419 144 L 419 144 Z M 275 448 L 291 448 L 275 448 L 499 448 L 499 432 L 499 432 L 499 240 L 499 240 L 499 224 L 499 224 L 483 224 L 275 224 L 275 240 L 275 240 L 275 432 L 275 432 L 275 448 L 275 448 Z M 483 240 L 483 432 L 483 240 L 483 432 L 291 432 L 291 432 L 291 240 L 291 240 L 483 240 L 483 240 Z" />
</svg>