<svg xmlns="http://www.w3.org/2000/svg" viewBox="0 0 640 512">
  <path d="M 296 0 L 288 0 L 296 0 L 288 0 L 288 8 L 288 8 L 288 504 L 288 504 L 288 512 L 288 512 L 304 512 L 304 512 L 304 504 L 304 504 L 304 16 L 304 16 L 496 16 L 496 16 L 496 200 L 496 200 L 496 208 L 496 208 L 504 208 L 624 208 L 624 504 L 624 504 L 624 512 L 624 512 L 640 512 L 640 512 L 640 504 L 640 504 L 640 200 L 640 200 L 640 192 L 640 192 L 632 192 L 576 192 L 576 104 L 576 104 L 576 96 L 576 96 L 560 96 L 560 96 L 560 104 L 560 104 L 560 192 L 560 192 L 512 192 L 512 192 L 512 8 L 512 8 L 512 0 L 512 0 L 504 0 L 296 0 Z M 360 72 L 360 80 L 360 72 L 360 80 L 360 144 L 360 144 L 360 152 L 360 152 L 368 152 L 440 152 L 440 144 L 440 144 L 440 80 L 440 80 L 440 72 L 440 72 L 432 72 L 360 72 Z M 376 88 L 424 88 L 376 88 L 424 88 L 424 136 L 424 136 L 376 136 L 376 136 L 376 88 L 376 88 Z M 496 264 L 488 264 L 496 264 L 488 264 L 488 272 L 488 272 L 488 336 L 488 336 L 488 344 L 488 344 L 496 344 L 568 344 L 568 336 L 568 336 L 568 272 L 568 272 L 568 264 L 568 264 L 560 264 L 496 264 Z M 504 328 L 504 280 L 504 328 L 504 280 L 552 280 L 552 280 L 552 328 L 552 328 L 504 328 L 504 328 Z M 488 392 L 488 400 L 488 392 L 488 400 L 488 464 L 488 464 L 488 472 L 488 472 L 496 472 L 568 472 L 568 464 L 568 464 L 568 400 L 568 400 L 568 392 L 568 392 L 560 392 L 488 392 Z M 504 408 L 552 408 L 504 408 L 552 408 L 552 456 L 552 456 L 504 456 L 504 456 L 504 408 L 504 408 Z M 368 200 L 360 200 L 368 200 L 360 200 L 360 208 L 360 208 L 360 272 L 360 272 L 360 280 L 360 280 L 368 280 L 440 280 L 440 272 L 440 272 L 440 208 L 440 208 L 440 200 L 440 200 L 432 200 L 368 200 Z M 376 264 L 376 216 L 376 264 L 376 216 L 424 216 L 424 216 L 424 264 L 424 264 L 376 264 L 376 264 Z M 360 328 L 360 336 L 360 328 L 360 336 L 360 400 L 360 400 L 360 408 L 360 408 L 368 408 L 440 408 L 440 400 L 440 400 L 440 336 L 440 336 L 440 328 L 440 328 L 432 328 L 360 328 Z M 376 344 L 424 344 L 376 344 L 424 344 L 424 392 L 424 392 L 376 392 L 376 392 L 376 344 L 376 344 Z M 158 154 L 152 149 L 158 154 L 152 149 L 141 160 L 141 160 L 146 166 L 146 166 L 229 248 L 229 248 L 8 248 L 0 248 L 0 264 L 0 264 L 8 264 L 229 264 L 146 346 L 146 346 L 141 352 L 141 352 L 152 363 L 152 363 L 158 358 L 158 358 L 254 262 L 254 262 L 259 256 L 259 256 L 254 250 L 254 250 L 158 154 L 158 154 Z" />
</svg>