<svg xmlns="http://www.w3.org/2000/svg" viewBox="0 0 448 512">
  <path d="M 336 128 Q 336 120 335 112 L 280 112 L 276 112 L 274 109 L 274 109 L 255 85 L 255 85 L 222 125 L 222 125 L 220 128 L 220 128 L 216 128 L 112 128 L 112 144 L 112 144 Q 113 192 145 223 Q 176 255 224 256 Q 272 255 303 223 Q 335 192 336 144 L 336 128 L 336 128 Z M 284 96 L 331 96 L 284 96 L 331 96 Q 321 61 292 39 L 266 72 L 266 72 L 284 96 L 284 96 Z M 279 30 Q 254 16 224 16 Q 181 17 150 44 Q 120 70 113 112 L 212 112 L 212 112 L 279 30 L 279 30 Z M 96 128 Q 97 74 133 37 L 133 37 L 133 37 Q 170 1 224 0 Q 278 1 315 37 Q 351 74 352 128 L 352 144 L 352 144 Q 351 198 315 235 Q 278 271 224 272 Q 170 271 133 235 Q 97 198 96 144 L 96 128 L 96 128 Z M 22 496 L 426 496 L 22 496 L 426 496 L 372 320 L 372 320 L 312 320 L 312 320 L 312 369 L 312 369 Q 329 372 341 385 Q 352 398 352 416 L 352 456 L 352 456 L 352 464 L 352 464 L 344 464 L 320 464 L 320 448 L 320 448 L 328 448 L 336 448 L 336 416 L 336 416 Q 336 402 327 393 Q 318 384 304 384 Q 290 384 281 393 Q 272 402 272 416 L 272 448 L 272 448 L 280 448 L 288 448 L 288 464 L 288 464 L 280 464 L 256 464 L 256 456 L 256 456 L 256 416 L 256 416 Q 256 398 267 385 Q 279 372 296 369 L 296 320 L 296 320 L 152 320 L 152 320 L 152 369 L 152 369 Q 169 372 181 385 Q 192 398 192 416 Q 191 436 178 450 Q 164 463 144 464 Q 124 463 110 450 Q 97 436 96 416 Q 96 398 107 385 Q 119 372 136 369 L 136 320 L 136 320 L 76 320 L 76 320 L 22 496 L 22 496 Z M 112 416 Q 112 430 121 439 L 121 439 L 121 439 Q 130 448 144 448 Q 158 448 167 439 Q 176 430 176 416 Q 176 402 167 393 Q 158 384 144 384 Q 130 384 121 393 Q 112 402 112 416 L 112 416 Z M 64 304 L 384 304 L 64 304 L 384 304 L 443 496 L 443 496 L 448 512 L 448 512 L 431 512 L 0 512 L 5 496 L 5 496 L 64 304 L 64 304 Z" />
</svg>