<svg xmlns="http://www.w3.org/2000/svg" viewBox="0 0 576 512">
  <path d="M 400 16 L 400 64 L 400 16 L 400 64 L 296 64 L 296 64 L 296 32 L 296 32 L 296 16 L 296 16 L 400 16 L 400 16 Z M 280 76 L 173 160 L 280 76 L 173 160 L 8 160 L 0 160 L 0 168 L 0 168 L 0 504 L 0 504 L 0 512 L 0 512 L 8 512 L 576 512 L 576 504 L 576 504 L 576 168 L 576 168 L 576 160 L 576 160 L 568 160 L 403 160 L 301 80 L 301 80 L 400 80 L 416 80 L 416 64 L 416 64 L 416 16 L 416 16 L 416 0 L 416 0 L 400 0 L 280 0 L 280 16 L 280 16 L 280 32 L 280 32 L 280 64 L 280 64 L 280 76 L 280 76 Z M 336 416 L 336 496 L 336 416 L 336 496 L 240 496 L 240 496 L 240 416 L 240 416 Q 241 396 254 382 Q 268 369 288 368 Q 308 369 322 382 Q 335 396 336 416 L 336 416 Z M 560 496 L 352 496 L 560 496 L 352 496 L 352 416 L 352 416 Q 351 389 333 371 Q 315 353 288 352 Q 261 353 243 371 Q 225 389 224 416 L 224 496 L 224 496 L 16 496 L 16 496 L 16 176 L 16 176 L 176 176 L 179 176 L 181 174 L 181 174 L 288 90 L 288 90 L 395 174 L 395 174 L 397 176 L 397 176 L 400 176 L 560 176 L 560 496 L 560 496 Z M 328 240 Q 327 263 308 275 Q 288 285 268 275 Q 249 263 248 240 Q 249 217 268 205 Q 288 195 308 205 Q 327 217 328 240 L 328 240 Z M 288 184 Q 256 185 240 212 Q 224 240 240 268 Q 256 295 288 296 Q 320 295 336 268 Q 352 240 336 212 Q 320 185 288 184 L 288 184 Z M 72 224 L 64 224 L 72 224 L 64 224 L 64 232 L 64 232 L 64 312 L 64 312 L 64 320 L 64 320 L 72 320 L 160 320 L 160 312 L 160 312 L 160 232 L 160 232 L 160 224 L 160 224 L 152 224 L 72 224 Z M 80 304 L 80 240 L 80 304 L 80 240 L 144 240 L 144 240 L 144 304 L 144 304 L 80 304 L 80 304 Z M 416 224 L 416 232 L 416 224 L 416 232 L 416 312 L 416 312 L 416 320 L 416 320 L 424 320 L 512 320 L 512 312 L 512 312 L 512 232 L 512 232 L 512 224 L 512 224 L 504 224 L 416 224 Z M 432 240 L 496 240 L 432 240 L 496 240 L 496 304 L 496 304 L 432 304 L 432 304 L 432 240 L 432 240 Z M 72 352 L 64 352 L 72 352 L 64 352 L 64 360 L 64 360 L 64 440 L 64 440 L 64 448 L 64 448 L 72 448 L 160 448 L 160 440 L 160 440 L 160 360 L 160 360 L 160 352 L 160 352 L 152 352 L 72 352 Z M 80 432 L 80 368 L 80 432 L 80 368 L 144 368 L 144 368 L 144 432 L 144 432 L 80 432 L 80 432 Z M 416 352 L 416 360 L 416 352 L 416 360 L 416 440 L 416 440 L 416 448 L 416 448 L 424 448 L 512 448 L 512 440 L 512 440 L 512 360 L 512 360 L 512 352 L 512 352 L 504 352 L 416 352 Z M 432 368 L 496 368 L 432 368 L 496 368 L 496 432 L 496 432 L 432 432 L 432 432 L 432 368 L 432 368 Z" />
</svg>