<svg xmlns="http://www.w3.org/2000/svg" viewBox="0 0 422 438">
  <path d="M 225 225 L 230 219 L 225 225 L 230 219 L 225 213 L 225 213 L 17 5 L 17 5 L 11 0 L 11 0 L 0 11 L 0 11 L 5 17 L 5 17 L 208 219 L 208 219 L 5 421 L 5 421 L 0 427 L 0 427 L 11 438 L 11 438 L 17 433 L 17 433 L 225 225 L 225 225 Z M 417 225 L 422 219 L 417 225 L 422 219 L 417 213 L 417 213 L 209 5 L 209 5 L 203 0 L 203 0 L 192 11 L 192 11 L 197 17 L 197 17 L 400 219 L 400 219 L 197 421 L 197 421 L 192 427 L 192 427 L 203 438 L 203 438 L 209 433 L 209 433 L 417 225 L 417 225 Z" />
</svg>