<svg xmlns="http://www.w3.org/2000/svg" viewBox="0 0 512 448">
  <path d="M 112 16 L 112 432 L 112 16 L 112 432 L 16 432 L 16 432 L 16 16 L 16 16 L 112 16 L 112 16 Z M 16 0 L 0 0 L 16 0 L 0 0 L 0 16 L 0 16 L 0 432 L 0 432 L 0 448 L 0 448 L 16 448 L 128 448 L 128 432 L 128 432 L 128 16 L 128 16 L 128 0 L 128 0 L 112 0 L 16 0 Z M 496 16 L 496 432 L 496 16 L 496 432 L 176 432 L 176 432 L 176 16 L 176 16 L 496 16 L 496 16 Z M 176 0 L 160 0 L 176 0 L 160 0 L 160 16 L 160 16 L 160 432 L 160 432 L 160 448 L 160 448 L 176 448 L 512 448 L 512 432 L 512 432 L 512 16 L 512 16 L 512 0 L 512 0 L 496 0 L 176 0 Z M 240 336 Q 240 322 249 313 L 249 313 L 249 313 Q 258 304 272 304 Q 286 304 295 313 Q 304 322 304 336 Q 304 350 295 359 Q 286 368 272 368 Q 258 368 249 359 Q 240 350 240 336 L 240 336 Z M 320 336 Q 319 309 296 294 Q 272 282 248 294 Q 225 309 224 336 Q 225 363 248 378 Q 272 390 296 378 Q 319 363 320 336 L 320 336 Z M 352 304 L 352 320 L 352 304 L 352 320 L 360 320 L 448 320 L 448 304 L 448 304 L 440 304 L 352 304 Z M 352 352 L 352 368 L 352 352 L 352 368 L 360 368 L 448 368 L 448 352 L 448 352 L 440 352 L 352 352 Z M 240 80 L 432 80 L 240 80 L 432 80 L 432 208 L 432 208 L 240 208 L 240 208 L 240 80 L 240 80 Z M 224 64 L 224 80 L 224 64 L 224 80 L 224 208 L 224 208 L 224 224 L 224 224 L 240 224 L 448 224 L 448 208 L 448 208 L 448 80 L 448 80 L 448 64 L 448 64 L 432 64 L 224 64 Z" />
</svg>