<svg xmlns="http://www.w3.org/2000/svg" viewBox="0 0 640 512">
  <path d="M 225 87 Q 229 49 256 25 L 256 25 L 256 25 Q 283 1 321 0 Q 361 1 388 28 Q 415 54 416 94 Q 415 155 366 192 L 334 216 L 334 216 L 636 417 L 636 417 L 640 420 L 640 420 L 640 424 L 640 424 L 640 504 L 640 504 L 640 512 L 640 512 L 632 512 L 0 512 L 0 504 L 0 504 L 0 424 L 0 424 L 0 420 L 0 420 L 4 417 L 4 417 L 315 209 L 315 209 L 357 179 L 357 179 Q 399 147 400 94 Q 399 61 377 39 Q 354 17 321 16 Q 289 17 267 37 Q 244 57 241 89 L 240 97 L 240 97 L 239 105 L 239 105 L 223 103 L 223 103 L 224 95 L 224 95 L 225 87 L 225 87 Z M 320 226 L 16 428 L 320 226 L 16 428 L 16 496 L 16 496 L 624 496 L 624 496 L 624 428 L 624 428 L 320 226 L 320 226 Z" />
</svg>