<svg xmlns="http://www.w3.org/2000/svg" viewBox="0 0 512 512">
  <path d="M 256 512 Q 186 511 128 478 L 128 478 L 128 478 Q 70 444 34 384 Q 0 323 0 256 Q 0 189 34 128 Q 70 68 128 34 Q 186 1 256 0 Q 326 1 384 34 Q 442 68 478 128 Q 512 189 512 256 Q 512 323 478 384 Q 442 444 384 478 Q 326 511 256 512 L 256 512 Z M 273 409 L 385 297 L 273 409 L 385 297 L 402 280 L 402 280 L 368 246 L 368 246 L 351 263 L 351 263 L 280 334 L 280 334 L 280 120 L 280 120 L 280 96 L 280 96 L 232 96 L 232 96 L 232 120 L 232 120 L 232 334 L 232 334 L 161 263 L 161 263 L 144 246 L 144 246 L 110 280 L 110 280 L 127 297 L 127 297 L 239 409 L 239 409 L 256 426 L 256 426 L 273 409 L 273 409 Z" />
</svg>