<svg xmlns="http://www.w3.org/2000/svg" viewBox="0 0 519 519">
  <path d="M 296 89 L 465 190 L 296 89 L 465 190 L 493 248 L 493 248 Q 519 208 510 156 Q 500 105 458 61 Q 413 17 359 9 Q 306 0 266 29 L 296 89 L 296 89 Z M 272 112 L 243 54 L 272 112 L 243 54 Q 217 94 226 146 Q 236 197 278 241 Q 323 285 377 293 Q 430 302 470 273 L 440 213 L 440 213 L 272 112 L 272 112 Z M 89 257 L 108 200 L 89 257 L 108 200 Q 61 210 31 254 Q 1 298 0 359 Q 1 423 33 467 Q 65 511 114 519 L 135 455 L 135 455 L 89 266 L 89 266 L 87 262 L 87 262 L 89 257 L 89 257 Z M 121 263 L 168 452 L 121 263 L 168 452 L 169 456 L 169 456 L 167 461 L 167 461 L 148 518 L 148 518 Q 195 508 225 464 Q 255 420 256 359 Q 255 295 223 251 Q 191 207 142 199 L 121 263 L 121 263 Z" />
</svg>