<svg xmlns="http://www.w3.org/2000/svg" viewBox="0 0 501 516">
  <path d="M 254 210 L 296 230 L 254 210 L 296 230 L 338 271 L 338 271 L 356 290 L 356 290 L 342 312 L 342 312 L 278 408 L 278 408 L 269 421 L 269 421 L 268 421 L 268 421 L 428 498 L 428 498 L 488 478 L 488 478 L 496 476 L 496 476 L 501 491 L 501 491 L 493 494 L 493 494 L 429 515 L 429 515 L 426 516 L 426 516 L 423 514 L 423 514 L 0 309 L 0 309 L 7 295 L 7 295 L 210 393 L 210 393 L 216 386 L 216 386 L 224 372 L 224 372 L 274 298 L 274 298 L 197 222 L 197 222 Q 178 201 179 175 L 195 183 L 195 183 Q 197 198 209 210 L 285 287 L 285 287 L 294 296 L 294 296 L 287 307 L 287 307 L 238 381 L 238 381 L 229 395 L 229 395 L 255 412 L 255 412 L 264 399 L 264 399 L 328 303 L 328 303 L 336 292 L 336 292 L 326 283 L 326 283 L 263 219 L 263 219 L 254 210 L 254 210 Z M 213 138 L 300 179 L 213 138 L 300 179 L 334 166 L 334 166 L 347 161 L 347 161 L 354 173 L 354 173 L 373 206 L 373 206 L 375 210 L 375 210 L 379 212 L 379 212 L 412 231 L 412 231 L 413 231 L 413 231 Q 414 232 415 233 L 435 244 L 435 244 L 449 252 L 449 252 L 465 224 L 465 224 L 451 216 L 451 216 L 402 188 L 402 188 L 399 186 L 399 186 L 396 183 L 396 183 L 345 94 L 345 94 L 338 82 L 338 82 L 324 87 L 324 87 L 223 133 L 223 133 Q 218 135 213 138 L 213 138 Z M 197 131 Q 205 123 217 118 L 318 73 L 318 73 L 344 61 L 344 61 L 359 86 L 359 86 L 410 175 L 410 175 L 459 202 L 459 202 L 473 210 L 473 210 L 487 218 L 487 218 L 479 232 L 479 232 L 463 260 L 463 260 L 455 274 L 455 274 L 441 266 L 441 266 L 427 258 L 427 258 L 405 245 L 405 245 L 135 120 L 135 120 L 122 146 L 122 146 L 119 153 L 119 153 L 104 146 L 104 146 L 108 138 L 108 138 L 121 113 L 121 113 L 96 101 L 96 101 L 88 98 L 88 98 L 95 83 L 95 83 L 102 87 L 102 87 L 128 99 L 128 99 L 140 74 L 140 74 L 143 67 L 143 67 L 158 74 L 158 74 L 154 82 L 154 82 L 142 105 L 142 105 L 197 131 L 197 131 Z M 353 203 L 340 181 L 353 203 L 340 181 L 320 188 L 320 188 L 353 203 L 353 203 Z M 424 86 Q 437 86 446 77 L 446 77 L 446 77 Q 455 68 456 54 Q 455 40 446 31 Q 437 22 424 22 Q 410 22 401 31 Q 392 40 392 54 Q 392 68 401 77 Q 410 86 424 86 L 424 86 Z M 376 54 Q 377 27 400 12 Q 424 0 448 12 Q 471 27 472 54 Q 471 81 448 96 Q 424 108 400 96 Q 377 81 376 54 L 376 54 Z" />
</svg>