<svg xmlns="http://www.w3.org/2000/svg" viewBox="0 0 576 511">
  <path d="M 59 4 L 48 0 L 59 4 L 48 0 L 48 12 L 48 12 L 48 83 L 48 83 Q 2 116 0 175 Q 1 223 33 254 Q 64 286 112 287 L 39 433 L 39 433 L 32 447 L 32 447 L 46 454 L 46 454 L 146 504 L 146 504 L 160 511 L 160 511 L 167 497 L 167 497 L 272 287 L 272 287 L 336 287 L 336 287 L 336 303 L 336 303 L 336 311 L 336 311 L 352 311 L 352 311 L 352 303 L 352 303 L 352 287 L 352 287 L 352 271 L 352 271 L 352 183 L 352 183 L 400 183 L 400 183 L 400 271 L 400 271 L 400 279 L 400 279 L 416 279 L 416 279 L 416 271 L 416 271 L 416 183 L 416 183 L 464 183 L 464 183 L 464 199 L 464 199 L 464 204 L 464 204 L 469 206 L 469 206 L 565 246 L 565 246 L 576 251 L 576 251 L 576 239 L 576 239 L 576 111 L 576 111 L 576 99 L 576 99 L 565 104 L 565 104 L 469 144 L 469 144 L 464 146 L 464 146 L 464 151 L 464 151 L 464 167 L 464 167 L 416 167 L 416 167 L 416 79 L 416 79 L 416 71 L 416 71 L 400 71 L 400 71 L 400 79 L 400 79 L 400 167 L 400 167 L 352 167 L 352 167 L 352 79 L 352 79 L 352 63 L 352 63 L 352 47 L 352 47 L 352 39 L 352 39 L 336 39 L 336 39 L 336 47 L 336 47 L 336 63 L 336 63 L 202 63 L 202 63 L 59 4 L 59 4 Z M 254 287 L 153 490 L 254 287 L 153 490 L 54 440 L 54 440 L 130 287 L 130 287 L 254 287 L 254 287 Z M 480 194 L 480 183 L 480 194 L 480 183 L 480 167 L 480 167 L 480 156 L 480 156 L 560 123 L 560 123 L 560 227 L 560 227 L 480 194 L 480 194 Z M 200 79 L 200 79 L 200 79 L 200 79 L 336 79 L 336 79 L 336 175 L 336 175 L 336 271 L 336 271 L 112 271 L 112 271 Q 71 270 44 243 Q 17 216 16 175 Q 17 134 44 107 Q 71 80 112 79 L 200 79 L 200 79 Z M 160 63 L 112 63 L 160 63 L 112 63 Q 86 63 64 74 L 64 24 L 64 24 L 160 63 L 160 63 Z M 128 175 Q 127 160 112 159 Q 97 160 96 175 Q 97 190 112 191 Q 127 190 128 175 L 128 175 Z M 176 191 Q 191 190 192 175 Q 191 160 176 159 Q 161 160 160 175 Q 161 190 176 191 L 176 191 Z M 256 175 Q 255 160 240 159 Q 225 160 224 175 Q 225 190 240 191 Q 255 190 256 175 L 256 175 Z" />
</svg>