<svg xmlns="http://www.w3.org/2000/svg" viewBox="0 0 512 512">
  <path d="M 344 195 L 407 473 L 344 195 L 407 473 L 416 512 L 416 512 L 423 472 L 423 472 L 509 16 L 509 16 L 512 0 L 512 0 L 496 0 L 0 0 L 4 16 L 4 16 L 88 323 L 88 323 L 96 352 L 96 352 L 105 323 L 105 323 L 135 224 L 135 224 L 144 192 L 144 192 L 151 225 L 151 225 L 184 378 L 184 378 L 192 416 L 192 416 L 200 378 L 200 378 L 233 225 L 233 225 L 240 192 L 240 192 L 250 224 L 250 224 L 279 322 L 279 322 L 288 352 L 288 352 L 296 322 L 296 322 L 327 194 L 327 194 L 336 160 L 336 160 L 344 195 L 344 195 Z M 287 292 L 255 187 L 287 292 L 255 187 L 237 128 L 237 128 L 224 189 L 224 189 L 192 340 L 192 340 L 160 189 L 160 189 L 147 128 L 147 128 L 129 187 L 129 187 L 97 294 L 97 294 L 21 16 L 21 16 L 493 16 L 493 16 L 415 433 L 415 433 L 352 157 L 352 157 L 337 91 L 337 91 L 320 156 L 320 156 L 287 292 L 287 292 Z" />
</svg>