<svg xmlns="http://www.w3.org/2000/svg" viewBox="0 0 352 512">
  <path d="M 336 176 Q 335 228 308 267 Q 302 275 296 283 Q 295 285 293 287 Q 292 288 292 289 Q 273 314 257 342 Q 246 362 243 384 L 259 384 L 259 384 Q 262 366 271 350 Q 286 323 305 298 Q 305 298 305 298 Q 305 298 305 298 Q 305 298 305 298 Q 305 298 305 298 Q 305 298 305 298 Q 305 298 305 298 Q 305 298 305 298 Q 313 287 321 276 Q 351 233 352 176 Q 350 101 300 52 Q 251 2 176 0 Q 101 2 52 52 Q 2 101 0 176 Q 1 233 31 276 Q 39 287 47 297 Q 47 298 47 298 Q 47 298 47 298 Q 47 298 47 298 Q 47 298 47 298 Q 47 298 47 298 Q 47 298 47 298 Q 47 298 47 298 Q 66 323 81 349 Q 90 366 93 384 L 109 384 L 109 384 Q 106 362 95 342 Q 79 313 59 287 Q 59 287 59 287 Q 59 287 59 287 Q 59 287 59 287 Q 59 287 59 287 Q 57 285 56 283 Q 50 275 45 267 Q 17 228 16 176 Q 18 108 63 63 Q 108 18 176 16 Q 244 18 289 63 Q 334 108 336 176 L 336 176 Z M 112 432 L 240 432 L 112 432 L 240 432 L 240 496 L 240 496 L 112 496 L 112 496 L 112 432 L 112 432 Z M 96 432 L 96 496 L 96 432 L 96 496 L 96 512 L 96 512 L 112 512 L 256 512 L 256 496 L 256 496 L 256 432 L 256 432 L 256 416 L 256 416 L 240 416 L 96 416 L 96 432 L 96 432 Z M 184 96 L 184 88 L 184 96 L 184 88 L 168 88 L 168 88 L 168 96 L 168 96 L 168 112 L 168 112 Q 155 113 145 118 Q 125 127 121 147 Q 119 159 123 169 Q 128 178 136 183 Q 152 193 172 198 Q 172 198 172 198 L 174 199 L 174 199 Q 195 204 207 212 Q 212 216 215 221 Q 217 226 216 235 Q 214 247 201 252 Q 192 256 179 256 L 179 256 L 179 256 Q 172 256 165 255 Q 153 252 138 247 Q 137 247 136 247 Q 136 247 136 247 Q 136 247 136 247 Q 135 246 134 246 Q 132 245 131 245 L 123 242 L 123 242 L 118 257 L 118 257 L 126 260 L 126 260 Q 126 260 128 260 Q 129 261 131 262 Q 131 262 131 262 Q 131 262 131 262 Q 131 262 131 262 Q 131 262 131 262 Q 131 262 131 262 Q 131 262 131 262 Q 131 262 131 262 Q 148 268 163 271 Q 163 271 163 271 Q 163 271 163 271 Q 165 271 168 272 Q 168 272 168 272 L 168 288 L 168 288 L 168 296 L 168 296 L 184 296 L 184 296 L 184 288 L 184 288 L 184 272 L 184 272 Q 197 271 207 267 Q 227 259 231 237 Q 233 225 229 215 Q 225 205 216 199 Q 199 189 179 184 L 178 183 L 178 183 Q 178 183 178 183 Q 178 183 178 183 Q 178 183 178 183 Q 178 183 178 183 Q 158 178 145 171 Q 140 167 138 162 Q 135 158 137 150 Q 138 139 152 133 Q 166 127 187 130 Q 191 130 199 132 Q 206 133 210 134 L 214 119 L 214 119 Q 210 117 202 116 Q 194 114 189 114 Q 187 113 184 113 Q 184 113 184 113 L 184 96 L 184 96 Z" />
</svg>