<svg xmlns="http://www.w3.org/2000/svg" viewBox="0 0 445 509">
  <path d="M 343 22 L 320 0 L 343 22 L 320 0 L 275 45 L 275 45 L 297 68 L 297 68 L 323 93 L 323 93 L 32 93 L 0 93 L 0 125 L 0 125 L 0 253 L 0 253 L 0 285 L 0 285 L 64 285 L 64 285 L 64 253 L 64 253 L 64 157 L 64 157 L 323 157 L 323 157 L 297 182 L 297 182 L 275 205 L 275 205 L 320 250 L 320 250 L 343 228 L 343 228 L 423 148 L 423 148 L 445 125 L 445 125 L 423 102 L 423 102 L 343 22 L 343 22 Z M 263 278 L 240 256 L 263 278 L 240 256 L 195 301 L 195 301 L 217 324 L 217 324 L 243 349 L 243 349 L 32 349 L 0 349 L 0 381 L 0 381 L 0 477 L 0 477 L 0 509 L 0 509 L 64 509 L 64 509 L 64 477 L 64 477 L 64 413 L 64 413 L 243 413 L 243 413 L 217 438 L 217 438 L 195 461 L 195 461 L 240 506 L 240 506 L 263 484 L 263 484 L 343 404 L 343 404 L 365 381 L 365 381 L 343 358 L 343 358 L 263 278 L 263 278 Z" />
</svg>