<svg xmlns="http://www.w3.org/2000/svg" viewBox="0 0 640 512">
  <path d="M 224 8 L 224 0 L 224 8 L 224 0 L 208 0 L 208 0 L 208 8 L 208 8 L 208 64 L 208 64 L 112 64 L 96 64 L 96 80 L 96 80 L 96 176 L 96 176 L 96 192 L 96 192 L 112 192 L 544 192 L 544 176 L 544 176 L 544 80 L 544 80 L 544 64 L 544 64 L 528 64 L 432 64 L 432 8 L 432 8 L 432 0 L 432 0 L 416 0 L 416 0 L 416 8 L 416 8 L 416 64 L 416 64 L 224 64 L 224 64 L 224 8 L 224 8 Z M 379 512 L 385 496 L 379 512 L 385 496 L 255 496 L 255 496 L 261 512 L 261 512 L 379 512 L 379 512 Z M 208 80 L 208 120 L 208 80 L 208 120 L 208 128 L 208 128 L 224 128 L 224 128 L 224 120 L 224 120 L 224 80 L 224 80 L 416 80 L 416 80 L 416 120 L 416 120 L 416 128 L 416 128 L 432 128 L 432 128 L 432 120 L 432 120 L 432 80 L 432 80 L 528 80 L 528 80 L 528 176 L 528 176 L 112 176 L 112 176 L 112 80 L 112 80 L 208 80 L 208 80 Z M 112 240 Q 148 241 167 272 Q 185 304 167 336 Q 148 367 112 368 Q 76 367 57 336 Q 39 304 57 272 Q 76 241 112 240 L 112 240 Z M 44 432 L 180 432 L 44 432 L 180 432 L 202 496 L 202 496 L 22 496 L 22 496 L 44 432 L 44 432 Z M 219 496 L 192 416 L 219 496 L 192 416 L 32 416 L 32 416 L 5 496 L 5 496 L 0 512 L 0 512 L 17 512 L 224 512 L 219 496 L 219 496 Z M 192 304 Q 191 259 152 235 Q 112 213 72 235 Q 33 259 32 304 Q 33 349 72 373 Q 112 395 152 373 Q 191 349 192 304 L 192 304 Z M 464 304 Q 465 268 496 249 Q 528 231 560 249 Q 591 268 592 304 Q 591 340 560 359 Q 528 377 496 359 Q 465 340 464 304 L 464 304 Z M 438 496 L 460 432 L 438 496 L 460 432 L 596 432 L 596 432 L 618 496 L 618 496 L 438 496 L 438 496 Z M 608 416 L 448 416 L 608 416 L 448 416 L 421 496 L 421 496 L 416 512 L 416 512 L 433 512 L 640 512 L 635 496 L 635 496 L 608 416 L 608 416 Z M 528 384 Q 573 383 597 344 Q 619 304 597 264 Q 573 225 528 224 Q 483 225 459 264 Q 437 304 459 344 Q 483 383 528 384 L 528 384 Z" />
</svg>