<svg xmlns="http://www.w3.org/2000/svg" viewBox="0 0 384 512">
  <path d="M 16 496 L 16 16 L 16 496 L 16 16 L 208 16 L 208 16 L 208 168 L 208 168 L 208 176 L 208 176 L 216 176 L 368 176 L 368 496 L 368 496 L 16 496 L 16 496 Z M 224 23 L 361 160 L 224 23 L 361 160 L 224 160 L 224 160 L 224 23 L 224 23 Z M 224 0 L 16 0 L 224 0 L 0 0 L 0 16 L 0 16 L 0 496 L 0 496 L 0 512 L 0 512 L 16 512 L 384 512 L 384 496 L 384 496 L 384 160 L 384 160 L 224 0 L 224 0 Z M 200 240 L 184 240 L 200 240 L 184 240 L 184 248 L 184 248 L 184 320 L 184 320 L 112 320 L 104 320 L 104 336 L 104 336 L 112 336 L 184 336 L 184 408 L 184 408 L 184 416 L 184 416 L 200 416 L 200 416 L 200 408 L 200 408 L 200 336 L 200 336 L 272 336 L 280 336 L 280 320 L 280 320 L 272 320 L 200 320 L 200 248 L 200 248 L 200 240 L 200 240 Z" />
</svg>