<svg xmlns="http://www.w3.org/2000/svg" viewBox="0 0 448 448">
  <path d="M 368 400 L 368 48 L 368 400 L 368 48 L 400 48 L 400 48 L 400 400 L 400 400 L 368 400 L 368 400 Z M 320 448 L 368 448 L 320 448 L 448 448 L 448 400 L 448 400 L 448 48 L 448 48 L 448 0 L 448 0 L 400 0 L 320 0 L 320 48 L 320 48 L 320 400 L 320 400 L 320 448 L 320 448 Z M 80 336 L 48 336 L 80 336 L 48 336 L 48 48 L 48 48 L 80 48 L 80 48 L 80 336 L 80 336 Z M 48 384 L 80 384 L 48 384 L 128 384 L 128 336 L 128 336 L 128 48 L 128 48 L 128 0 L 128 0 L 80 0 L 0 0 L 0 48 L 0 48 L 0 336 L 0 336 L 0 384 L 0 384 L 48 384 L 48 384 Z M 240 208 L 208 208 L 240 208 L 208 208 L 208 48 L 208 48 L 240 48 L 240 48 L 240 208 L 240 208 Z M 208 256 L 240 256 L 208 256 L 288 256 L 288 208 L 288 208 L 288 48 L 288 48 L 288 0 L 288 0 L 240 0 L 160 0 L 160 48 L 160 48 L 160 208 L 160 208 L 160 256 L 160 256 L 208 256 L 208 256 Z" />
</svg>