<svg xmlns="http://www.w3.org/2000/svg" viewBox="0 0 600 512">
  <path d="M 7 496 L 19 468 L 7 496 L 19 468 Q 43 403 50 332 Q 57 260 56 192 Q 57 110 84 56 Q 111 2 152 0 L 484 0 L 484 0 L 484 0 L 484 0 Q 486 0 488 0 Q 514 1 535 17 Q 556 34 570 60 Q 599 114 600 192 Q 599 270 570 324 Q 556 350 535 367 Q 514 383 488 384 Q 445 382 418 342 Q 419 329 420 316 Q 447 366 488 368 Q 529 366 556 316 Q 583 267 584 192 Q 583 117 556 68 Q 529 18 488 16 Q 480 16 472 18 Q 437 30 415 78 Q 393 125 392 192 Q 393 266 385 344 Q 377 422 350 492 L 341 512 L 341 512 L 17 512 L 0 512 L 7 496 L 7 496 Z M 152 16 Q 125 15 98 63 Q 73 113 72 192 Q 73 260 66 333 Q 59 407 33 474 L 33 474 L 33 474 Q 33 474 33 474 Q 33 474 33 474 L 24 496 L 24 496 L 331 496 L 331 496 L 335 486 L 335 486 Q 335 486 335 486 Q 361 419 369 343 Q 377 266 376 193 L 376 192 L 376 192 Q 377 114 406 60 Q 421 33 442 16 L 152 16 L 152 16 Z M 509 255 Q 501 263 488 264 Q 475 263 467 255 Q 460 248 456 238 Q 448 218 448 192 Q 448 166 456 146 Q 460 136 467 129 Q 475 121 488 120 Q 501 121 509 129 Q 516 136 520 146 Q 528 166 528 192 Q 528 218 520 238 Q 516 248 509 255 L 509 255 Z M 488 248 Q 498 247 505 232 L 505 232 L 505 232 Q 512 216 512 192 Q 512 168 505 152 Q 498 137 488 136 Q 478 137 471 152 Q 464 168 464 192 Q 464 216 471 232 Q 478 247 488 248 L 488 248 Z M 104 208 Q 105 193 120 192 Q 135 193 136 208 Q 135 223 120 224 Q 105 223 104 208 L 104 208 Z M 168 208 Q 169 193 184 192 Q 199 193 200 208 Q 199 223 184 224 Q 169 223 168 208 L 168 208 Z M 248 192 Q 263 193 264 208 Q 263 223 248 224 Q 233 223 232 208 Q 233 193 248 192 L 248 192 Z M 296 208 Q 297 193 312 192 Q 327 193 328 208 Q 327 223 312 224 Q 297 223 296 208 L 296 208 Z" />
</svg>