<svg xmlns="http://www.w3.org/2000/svg" viewBox="0 0 512 512">
  <path d="M 114.52631 80.8421 L 114.52631 134.73685 L 175.1579 134.73685 L 202.10527 134.73685 L 262.73685 134.73685 L 262.73685 80.8421 L 114.52631 80.8421 L 114.52631 80.8421 Z M 87.57895 134.73685 L 87.57895 80.8421 L 26.947369 80.8421 L 26.947369 134.73685 L 87.57895 134.73685 L 87.57895 134.73685 Z M 26.947369 161.6842 L 26.947369 229.05263 L 87.57895 229.05263 L 114.52631 229.05263 L 175.1579 229.05263 L 175.1579 161.6842 L 26.947369 161.6842 L 26.947369 161.6842 Z M 26.947369 323.3684 L 87.57895 323.3684 L 87.57895 256 L 26.947369 256 L 26.947369 323.3684 L 26.947369 323.3684 Z M 26.947369 350.3158 L 26.947369 404.21054 L 175.1579 404.21054 L 175.1579 350.3158 L 114.52631 350.3158 L 87.57895 350.3158 L 26.947369 350.3158 L 26.947369 350.3158 Z M 114.52631 323.3684 L 215.57895 323.3684 L 215.57895 323.3684 Q 215.57895 337.6842 218.10527 350.3158 L 202.10527 350.3158 L 202.10527 404.21054 L 237.47368 404.21054 Q 245.89473 418.5263 256.8421 431.1579 L 26.947369 431.1579 L 0 431.1579 L 0 404.21054 L 0 80.8421 L 0 53.894737 L 26.947369 53.894737 L 350.3158 53.894737 L 377.26315 53.894737 L 377.26315 80.8421 L 377.26315 149.89473 Q 363.78946 138.10527 350.3158 127.1579 L 350.3158 80.8421 L 289.6842 80.8421 L 289.6842 134.73685 L 341.05264 134.73685 Q 325.05264 148.21053 310.73685 161.6842 L 202.10527 161.6842 L 202.10527 229.05263 L 250.94737 229.05263 Q 241.6842 241.6842 234.10527 256 L 114.52631 256 L 114.52631 323.3684 L 114.52631 323.3684 Z M 405.05264 256.8421 L 384.8421 233.26315 Q 365.4737 211.36842 350.3158 197.89473 Q 335.1579 211.36842 316.6316 232.42105 Q 297.26315 254.3158 282.94736 279.57895 Q 269.4737 304.8421 269.4737 323.3684 Q 270.3158 368.8421 300.6316 400 Q 331.78946 430.3158 377.26315 431.1579 Q 422.73685 430.3158 453.89474 400 Q 484.21054 368.8421 485.05264 323.3684 Q 485.05264 307.3684 474.94736 288 Q 465.6842 268.6316 450.5263 249.26315 Q 440.42105 236.63158 431.1579 227.36842 Q 428.6316 229.89473 425.26315 233.26315 L 405.05264 256.8421 L 405.05264 256.8421 Z M 350.3158 161.6842 Q 350.3158 161.6842 361.26315 170.94737 L 361.26315 170.94737 Q 371.3684 180.21053 386.5263 195.36842 Q 395.78946 204.63158 405.05264 215.57895 Q 416 202.94737 423.57895 196.21053 Q 431.1579 188.63158 431.1579 188.63158 Q 431.1579 188.63158 431.1579 188.63158 Q 432.8421 189.47368 452.21054 209.6842 Q 471.57895 229.89473 490.94736 261.05264 Q 510.3158 291.3684 512 323.3684 Q 510.3158 380.6316 472.42105 418.5263 Q 434.5263 456.42105 377.26315 458.10526 Q 320 456.42105 282.10526 418.5263 Q 244.21053 380.6316 242.52632 323.3684 Q 244.21053 285.4737 270.3158 248.42105 Q 296.42105 211.36842 322.5263 186.94737 Q 348.6316 162.52632 350.3158 161.6842 L 350.3158 161.6842 Z M 351.1579 248.42105 L 361.26315 261.05264 Q 362.94736 262.73685 368.8421 271.1579 Q 375.57895 279.57895 383.1579 289.6842 L 394.10526 304 L 417.6842 287.1579 L 427.78946 278.73685 L 436.21054 289.6842 Q 439.57895 294.73685 442.10526 298.94736 Q 442.10526 299.78946 442.94736 300.6316 L 442.94736 300.6316 Q 454.73685 324.21054 449.6842 349.4737 Q 444.6316 374.73685 422.73685 390.73685 L 422.73685 390.73685 L 422.73685 390.73685 Q 402.5263 404.21054 378.10526 404.21054 Q 346.94736 404.21054 325.05264 384.8421 Q 304 365.4737 303.1579 331.78946 Q 303.1579 314.10526 313.26315 297.26315 Q 323.3684 281.26315 340.21054 261.05264 L 351.1579 248.42105 L 351.1579 248.42105 Z M 421.05264 317.4737 L 399.1579 333.4737 L 388.21054 341.05264 L 380.6316 330.94736 L 391.57895 322.5263 L 380.6316 330.94736 L 380.6316 330.94736 L 380.6316 330.94736 L 380.6316 330.94736 L 380.6316 330.94736 L 379.78946 330.10526 L 378.94736 328.42105 L 374.73685 323.3684 Q 372.21054 320 368.8421 315.78946 Q 365.4737 310.73685 361.26315 305.6842 Q 359.57895 303.1579 357.89474 300.6316 Q 353.6842 295.57895 350.3158 291.3684 Q 341.89474 303.1579 336.8421 310.73685 Q 330.10526 323.3684 330.10526 331.78946 Q 330.94736 354.5263 343.57895 365.4737 Q 356.21054 377.26315 378.10526 377.26315 Q 394.10526 377.26315 407.57895 368 Q 419.3684 359.57895 422.73685 346.10526 Q 426.94736 331.78946 421.05264 317.4737 L 421.05264 317.4737 Z" />
</svg>