<svg xmlns="http://www.w3.org/2000/svg" viewBox="0 0 512 512">
  <path d="M 176 16 Q 201 17 218 32 Q 239 50 240 80 Q 213 79 195 61 Q 177 43 176 16 L 176 16 Z M 288 16 Q 313 17 330 32 Q 351 50 352 80 Q 325 79 307 61 Q 289 43 288 16 L 288 16 Z M 400 16 Q 425 17 442 32 Q 463 50 464 80 Q 437 79 419 61 Q 401 43 400 16 L 400 16 Z M 464 144 Q 463 174 442 192 Q 425 208 400 208 Q 401 181 419 163 Q 437 145 464 144 L 464 144 Z M 352 144 Q 351 174 330 192 Q 313 208 288 208 Q 289 181 307 163 Q 325 145 352 144 L 352 144 Z M 240 144 Q 239 174 218 192 Q 201 208 176 208 Q 177 181 195 163 Q 213 145 240 144 L 240 144 Z M 160 0 L 160 16 L 160 0 L 160 16 Q 161 50 183 73 Q 206 95 240 96 L 256 96 L 256 96 L 256 80 L 256 80 Q 255 46 233 23 Q 210 1 176 0 L 160 0 L 160 0 Z M 272 0 L 272 16 L 272 0 L 272 16 Q 273 50 295 73 Q 318 95 352 96 L 368 96 L 368 96 L 368 80 L 368 80 Q 367 46 345 23 Q 322 1 288 0 L 272 0 L 272 0 Z M 400 0 L 384 0 L 400 0 L 384 0 L 384 16 L 384 16 Q 385 50 407 73 Q 430 95 464 96 L 480 96 L 480 96 L 480 80 L 480 80 Q 479 46 457 23 Q 434 1 400 0 L 400 0 Z M 480 128 L 464 128 L 480 128 L 464 128 Q 430 129 407 151 Q 385 174 384 208 L 384 224 L 384 224 L 400 224 L 400 224 Q 434 223 457 201 Q 479 178 480 144 L 480 128 L 480 128 Z M 352 128 Q 318 129 295 151 L 295 151 L 295 151 Q 273 174 272 208 L 272 224 L 272 224 L 288 224 L 288 224 Q 322 223 345 201 Q 367 178 368 144 L 368 128 L 368 128 L 352 128 L 352 128 Z M 256 128 L 240 128 L 256 128 L 240 128 Q 206 129 183 151 Q 161 174 160 208 L 160 224 L 160 224 L 176 224 L 176 224 Q 210 223 233 201 Q 255 178 256 144 L 256 128 L 256 128 Z M 40 32 L 32 32 L 40 32 L 32 32 L 32 48 L 32 48 L 40 48 L 128 48 L 128 32 L 128 32 L 120 32 L 40 32 Z M 8 104 L 0 104 L 8 104 L 0 104 L 0 120 L 0 120 L 8 120 L 160 120 L 160 104 L 160 104 L 152 104 L 8 104 Z M 32 176 L 32 192 L 32 176 L 32 192 L 40 192 L 128 192 L 128 176 L 128 176 L 120 176 L 32 176 Z M 72 272 Q 71 296 56 312 L 56 312 L 56 312 Q 40 327 16 328 L 16 272 L 16 272 L 72 272 L 72 272 Z M 16 424 L 16 344 L 16 424 L 16 344 Q 47 343 67 323 Q 87 303 88 272 L 424 272 L 424 272 Q 425 303 445 323 Q 465 343 496 344 L 496 424 L 496 424 Q 465 425 445 445 Q 425 465 424 496 L 88 496 L 88 496 Q 87 465 67 445 Q 47 425 16 424 L 16 424 Z M 496 328 Q 472 327 456 312 L 456 312 L 456 312 Q 441 296 440 272 L 496 272 L 496 272 L 496 328 L 496 328 Z M 440 496 Q 441 472 456 456 L 456 456 L 456 456 Q 472 441 496 440 L 496 496 L 496 496 L 440 496 L 440 496 Z M 16 440 Q 40 441 56 456 L 56 456 L 56 456 Q 71 472 72 496 L 16 496 L 16 496 L 16 440 L 16 440 Z M 208 384 Q 209 357 232 342 Q 256 330 280 342 Q 303 357 304 384 Q 303 411 280 426 Q 256 438 232 426 Q 209 411 208 384 L 208 384 Z M 320 384 Q 319 348 288 329 Q 256 311 224 329 Q 193 348 192 384 Q 193 420 224 439 Q 256 457 288 439 Q 319 420 320 384 L 320 384 Z M 16 256 L 0 256 L 16 256 L 0 256 L 0 272 L 0 272 L 0 496 L 0 496 L 0 512 L 0 512 L 16 512 L 512 512 L 512 496 L 512 496 L 512 272 L 512 272 L 512 256 L 512 256 L 496 256 L 16 256 Z" />
</svg>