<svg xmlns="http://www.w3.org/2000/svg" viewBox="0 0 512 512">
  <path d="M 463.59454 70.861595 L 463.59454 65.871346 Q 461.59845 49.902534 445.62964 47.906433 Q 437.64523 47.906433 431.65692 53.894737 L 266.97855 239.53217 L 329.85574 239.53217 L 458.60428 84.834305 L 495.53217 115.77388 L 458.60428 84.834305 Q 463.59454 78.846 463.59454 70.861595 L 463.59454 70.861595 Z M 495.53217 115.77388 L 351.81287 287.4386 L 224.06238 287.4386 L 160.18713 287.4386 L 203.10332 239.53217 L 395.72708 21.957115 Q 415.6881 0.9980507 445.62964 0 Q 473.57504 0.9980507 492.53802 18.962963 Q 510.50293 37.925926 511.50098 65.871346 L 511.50098 69.86355 Q 511.50098 95.81287 495.53217 114.775826 L 495.53217 115.77388 Z M 176.15594 319.37622 L 287.93762 319.37622 Q 285.94153 384.2495 243.02534 423.1735 Q 200.10916 462.09747 144.21832 481.06042 Q 88.327484 500.0234 45.411304 506.0117 Q 2.4951267 512 0.49902534 511.00195 L 176.15594 319.37622 L 176.15594 319.37622 Z" />
</svg>