<svg xmlns="http://www.w3.org/2000/svg" viewBox="0 0 512 512">
  <path d="M 256 16 Q 189 17 135 49 L 135 49 L 135 49 Q 81 81 49 135 L 49 135 L 49 135 Q 17 189 16 256 Q 18 350 77 416 Q 81 422 77 427 Q 71 432 65 427 Q 2 357 0 256 Q 1 184 35 127 Q 69 69 127 35 Q 184 1 256 0 Q 328 1 385 35 Q 443 69 477 127 Q 511 184 512 256 Q 510 357 447 427 Q 441 432 436 427 Q 430 422 435 416 Q 494 350 496 256 Q 495 189 463 135 Q 431 81 377 49 Q 323 17 256 16 L 256 16 Z M 132 157 L 140 161 L 132 157 L 140 161 L 220 201 L 220 201 L 234 208 L 234 208 L 220 215 L 220 215 L 140 255 L 140 255 L 132 259 L 132 259 L 125 245 L 125 245 L 132 241 L 132 241 L 198 208 L 198 208 L 132 175 L 132 175 L 125 172 L 125 172 L 132 157 L 132 157 Z M 372 161 L 380 157 L 372 161 L 380 157 L 387 172 L 387 172 L 380 175 L 380 175 L 314 208 L 314 208 L 380 241 L 380 241 L 387 244 L 387 244 L 380 259 L 380 259 L 372 255 L 372 255 L 292 215 L 292 215 L 278 208 L 278 208 L 292 201 L 292 201 L 372 161 L 372 161 Z M 0 496 Q 1 481 16 480 Q 31 481 32 496 Q 31 511 16 512 Q 1 511 0 496 L 0 496 Z M 496 448 Q 511 449 512 464 Q 511 479 496 480 Q 481 479 480 464 Q 481 449 496 448 L 496 448 Z M 272 400 Q 273 385 288 384 Q 303 385 304 400 Q 303 415 288 416 Q 273 415 272 400 L 272 400 Z M 224 416 Q 239 417 240 432 Q 239 447 224 448 Q 209 447 208 432 Q 209 417 224 416 L 224 416 Z M 173 331 Q 143 349 126 373 L 114 363 L 114 363 Q 131 337 165 317 Q 199 297 256 296 Q 313 297 347 317 Q 380 337 398 363 L 386 373 L 386 373 Q 369 349 339 331 Q 310 313 256 312 Q 202 313 173 331 L 173 331 Z M 336 360 L 336 357 L 336 360 L 336 357 Q 345 363 352 370 L 352 389 L 352 389 Q 352 414 365 435 Q 378 456 401 467 L 444 489 L 444 489 L 448 491 L 448 491 L 448 496 L 448 496 L 448 504 L 448 504 L 448 512 L 448 512 L 440 512 L 64 512 L 64 504 L 64 504 L 64 496 L 64 496 L 64 491 L 64 491 L 68 489 L 68 489 L 111 467 L 111 467 Q 134 456 147 435 Q 160 414 160 389 L 160 371 L 160 371 Q 167 363 176 357 L 176 360 L 176 360 L 176 389 L 176 389 Q 176 419 160 443 Q 145 468 119 482 L 90 496 L 90 496 L 422 496 L 422 496 L 394 482 L 394 482 Q 367 468 352 443 Q 336 419 336 389 L 336 360 L 336 360 Z" />
</svg>