<svg xmlns="http://www.w3.org/2000/svg" viewBox="0 0 512 512">
  <path d="M 344.1722 0 L 320.12524 0 L 320.12524 48.093933 L 344.1722 48.093933 L 382.24658 48.093933 L 339.1624 91.178085 Q 291.06848 49.09589 223.93738 48.093933 Q 148.7906 50.097847 99.69472 100.195694 Q 49.59687 149.29158 47.592957 224.43835 Q 48.594913 292.57144 91.67906 340.66537 Q 133.76125 388.7593 199.89041 398.77887 L 199.89041 399.78082 L 199.89041 399.78082 L 199.89041 399.78082 L 199.89041 399.78082 L 199.89041 400.78278 L 199.89041 400.78278 L 199.89041 400.78278 L 199.89041 401.78473 L 199.89041 401.78473 L 199.89041 401.78473 L 199.89041 402.78668 L 199.89041 402.78668 L 199.89041 402.78668 L 199.89041 402.78668 L 199.89041 403.78864 L 199.89041 403.78864 L 199.89041 403.78864 L 199.89041 404.79062 L 199.89041 404.79062 L 199.89041 404.79062 L 199.89041 405.79257 L 199.89041 405.79257 L 199.89041 405.79257 L 199.89041 405.79257 L 199.89041 406.79453 L 199.89041 406.79453 L 199.89041 406.79453 L 199.89041 407.79648 L 199.89041 407.79648 L 199.89041 407.79648 L 199.89041 408.79843 L 199.89041 408.79843 L 199.89041 408.79843 L 199.89041 408.79843 L 199.89041 409.80038 L 199.89041 409.80038 L 199.89041 409.80038 L 199.89041 410.80234 L 199.89041 410.80234 L 199.89041 410.80234 L 199.89041 411.8043 L 199.89041 411.8043 L 199.89041 411.8043 L 199.89041 411.8043 L 199.89041 412.80627 L 199.89041 412.80627 L 199.89041 412.80627 L 199.89041 413.80823 L 199.89041 413.80823 L 199.89041 413.80823 L 199.89041 414.81018 L 199.89041 414.81018 L 199.89041 414.81018 L 199.89041 414.81018 L 175.84344 414.81018 L 151.79648 414.81018 L 151.79648 462.9041 L 175.84344 462.9041 L 199.89041 462.9041 L 199.89041 462.9041 L 199.89041 463.90607 L 199.89041 463.90607 L 199.89041 463.90607 L 199.89041 463.90607 L 199.89041 463.90607 L 199.89041 464.90802 L 199.89041 464.90802 L 199.89041 464.90802 L 199.89041 464.90802 L 199.89041 464.90802 L 199.89041 465.90997 L 199.89041 465.90997 L 199.89041 465.90997 L 199.89041 465.90997 L 199.89041 465.90997 L 199.89041 466.91193 L 199.89041 466.91193 L 199.89041 466.91193 L 199.89041 466.91193 L 199.89041 466.91193 L 199.89041 467.91388 L 199.89041 467.91388 L 199.89041 467.91388 L 199.89041 467.91388 L 199.89041 467.91388 L 199.89041 468.91586 L 199.89041 468.91586 L 199.89041 468.91586 L 199.89041 468.91586 L 199.89041 468.91586 L 199.89041 469.91782 L 199.89041 469.91782 L 199.89041 469.91782 L 199.89041 469.91782 L 199.89041 469.91782 L 199.89041 470.91977 L 199.89041 470.91977 L 199.89041 470.91977 L 199.89041 470.91977 L 199.89041 470.91977 L 199.89041 471.92172 L 199.89041 471.92172 L 199.89041 471.92172 L 199.89041 471.92172 L 199.89041 471.92172 L 199.89041 472.92368 L 199.89041 472.92368 L 199.89041 472.92368 L 199.89041 472.92368 L 199.89041 473.92563 L 199.89041 473.92563 L 199.89041 473.92563 L 199.89041 473.92563 L 199.89041 473.92563 L 199.89041 474.92758 L 199.89041 474.92758 L 199.89041 474.92758 L 199.89041 474.92758 L 199.89041 474.92758 L 199.89041 475.92953 L 199.89041 475.92953 L 199.89041 475.92953 L 199.89041 475.92953 L 199.89041 475.92953 L 199.89041 475.92953 L 199.89041 475.92953 L 199.89041 475.92953 L 199.89041 476.93152 L 199.89041 476.93152 L 199.89041 476.93152 L 199.89041 476.93152 L 199.89041 476.93152 L 199.89041 476.93152 L 199.89041 476.93152 L 199.89041 476.93152 L 199.89041 476.93152 L 199.89041 476.93152 L 199.89041 477.93347 L 199.89041 477.93347 L 199.89041 477.93347 L 199.89041 477.93347 L 199.89041 477.93347 L 199.89041 477.93347 L 199.89041 477.93347 L 199.89041 477.93347 L 199.89041 477.93347 L 199.89041 477.93347 L 199.89041 478.93542 L 199.89041 478.93542 L 199.89041 478.93542 L 199.89041 478.93542 L 199.89041 478.93542 L 199.89041 478.93542 L 199.89041 478.93542 L 199.89041 478.93542 L 199.89041 478.93542 L 199.89041 478.93542 L 199.89041 479.93738 L 199.89041 479.93738 L 199.89041 479.93738 L 199.89041 479.93738 L 199.89041 479.93738 L 199.89041 479.93738 L 199.89041 479.93738 L 199.89041 479.93738 L 199.89041 479.93738 L 199.89041 479.93738 L 199.89041 480.93933 L 199.89041 480.93933 L 199.89041 480.93933 L 199.89041 480.93933 L 199.89041 480.93933 L 199.89041 480.93933 L 199.89041 480.93933 L 199.89041 480.93933 L 199.89041 480.93933 L 199.89041 480.93933 L 199.89041 481.94128 L 199.89041 481.94128 L 199.89041 481.94128 L 199.89041 481.94128 L 199.89041 481.94128 L 199.89041 481.94128 L 199.89041 481.94128 L 199.89041 481.94128 L 199.89041 481.94128 L 199.89041 481.94128 L 199.89041 482.94324 L 199.89041 482.94324 L 199.89041 482.94324 L 199.89041 482.94324 L 199.89041 482.94324 L 199.89041 482.94324 L 199.89041 482.94324 L 199.89041 482.94324 L 199.89041 482.94324 L 199.89041 482.94324 L 199.89041 483.9452 L 199.89041 483.9452 L 199.89041 483.9452 L 199.89041 483.9452 L 199.89041 483.9452 L 199.89041 483.9452 L 199.89041 483.9452 L 199.89041 483.9452 L 199.89041 483.9452 L 199.89041 483.9452 L 199.89041 484.94717 L 199.89041 484.94717 L 199.89041 484.94717 L 199.89041 484.94717 L 199.89041 484.94717 L 199.89041 484.94717 L 199.89041 484.94717 L 199.89041 484.94717 L 199.89041 484.94717 L 199.89041 484.94717 L 199.89041 485.94913 L 199.89041 485.94913 L 199.89041 485.94913 L 199.89041 485.94913 L 199.89041 485.94913 L 199.89041 485.94913 L 199.89041 485.94913 L 199.89041 485.94913 L 199.89041 485.94913 L 199.89041 485.94913 L 199.89041 486.95108 L 199.89041 486.95108 L 199.89041 486.95108 L 199.89041 486.95108 L 199.89041 486.95108 L 199.89041 486.95108 L 199.89041 486.95108 L 199.89041 486.95108 L 199.89041 486.95108 L 199.89041 486.95108 L 199.89041 487.95303 L 199.89041 487.95303 L 199.89041 487.95303 L 199.89041 487.95303 L 199.89041 487.95303 L 199.89041 487.95303 L 199.89041 487.95303 L 199.89041 487.95303 L 199.89041 487.95303 L 199.89041 487.95303 L 199.89041 487.95303 L 199.89041 487.95303 L 199.89041 487.95303 L 199.89041 487.95303 L 199.89041 487.95303 L 199.89041 487.95303 L 199.89041 487.95303 L 199.89041 487.95303 L 199.89041 487.95303 L 199.89041 487.95303 L 199.89041 487.95303 L 199.89041 487.95303 L 199.89041 487.95303 L 199.89041 487.95303 L 199.89041 487.95303 L 199.89041 487.95303 L 199.89041 487.95303 L 199.89041 487.95303 L 199.89041 487.95303 L 199.89041 487.95303 L 199.89041 487.95303 L 199.89041 487.95303 L 199.89041 487.95303 L 199.89041 487.95303 L 199.89041 487.95303 L 199.89041 487.95303 L 199.89041 487.95303 L 199.89041 487.95303 L 199.89041 487.95303 L 199.89041 487.95303 L 199.89041 487.95303 L 199.89041 487.95303 L 199.89041 487.95303 L 199.89041 487.95303 L 199.89041 487.95303 L 199.89041 487.95303 L 199.89041 487.95303 L 199.89041 487.95303 L 199.89041 487.95303 L 199.89041 487.95303 L 199.89041 487.95303 L 199.89041 487.95303 L 199.89041 487.95303 L 199.89041 487.95303 L 199.89041 487.95303 L 223.93738 487.95303 L 199.89041 487.95303 L 199.89041 512 L 247.98434 512 L 247.98434 488.955 L 223.93738 488.955 L 247.98434 488.955 L 247.98434 488.955 L 247.98434 488.955 L 247.98434 488.955 L 247.98434 488.955 L 247.98434 488.955 L 247.98434 488.955 L 247.98434 488.955 L 247.98434 488.955 L 247.98434 488.955 L 247.98434 488.955 L 247.98434 488.955 L 247.98434 488.955 L 247.98434 488.955 L 247.98434 488.955 L 247.98434 488.955 L 247.98434 488.955 L 247.98434 488.955 L 247.98434 488.955 L 247.98434 488.955 L 247.98434 488.955 L 247.98434 488.955 L 247.98434 488.955 L 247.98434 488.955 L 247.98434 488.955 L 247.98434 488.955 L 247.98434 488.955 L 247.98434 488.955 L 247.98434 488.955 L 247.98434 488.955 L 247.98434 488.955 L 247.98434 488.955 L 247.98434 488.955 L 247.98434 488.955 L 247.98434 488.955 L 247.98434 488.955 L 247.98434 488.955 L 247.98434 488.955 L 247.98434 488.955 L 247.98434 488.955 L 247.98434 488.955 L 247.98434 488.955 L 247.98434 488.955 L 247.98434 488.955 L 247.98434 488.955 L 247.98434 488.955 L 247.98434 488.955 L 247.98434 488.955 L 247.98434 488.955 L 247.98434 488.955 L 247.98434 488.955 L 247.98434 488.955 L 247.98434 488.955 L 247.98434 488.955 L 247.98434 488.955 L 247.98434 488.955 L 247.98434 488.955 L 247.98434 488.955 L 247.98434 487.95303 L 247.98434 487.95303 L 247.98434 487.95303 L 247.98434 487.95303 L 247.98434 487.95303 L 247.98434 487.95303 L 247.98434 486.95108 L 247.98434 486.95108 L 247.98434 486.95108 L 247.98434 486.95108 L 247.98434 486.95108 L 247.98434 486.95108 L 247.98434 485.94913 L 247.98434 485.94913 L 247.98434 485.94913 L 247.98434 485.94913 L 247.98434 485.94913 L 247.98434 485.94913 L 247.98434 485.94913 L 247.98434 485.94913 L 247.98434 485.94913 L 247.98434 485.94913 L 247.98434 485.94913 L 247.98434 485.94913 L 247.98434 485.94913 L 247.98434 485.94913 L 247.98434 485.94913 L 247.98434 484.94717 L 247.98434 484.94717 L 247.98434 484.94717 L 247.98434 484.94717 L 247.98434 484.94717 L 247.98434 484.94717 L 247.98434 484.94717 L 247.98434 484.94717 L 247.98434 484.94717 L 247.98434 484.94717 L 247.98434 484.94717 L 247.98434 484.94717 L 247.98434 483.9452 L 247.98434 483.9452 L 247.98434 483.9452 L 247.98434 483.9452 L 247.98434 483.9452 L 247.98434 483.9452 L 247.98434 483.9452 L 247.98434 483.9452 L 247.98434 483.9452 L 247.98434 483.9452 L 247.98434 483.9452 L 247.98434 482.94324 L 247.98434 482.94324 L 247.98434 482.94324 L 247.98434 482.94324 L 247.98434 482.94324 L 247.98434 482.94324 L 247.98434 482.94324 L 247.98434 482.94324 L 247.98434 482.94324 L 247.98434 482.94324 L 247.98434 481.94128 L 247.98434 481.94128 L 247.98434 481.94128 L 247.98434 481.94128 L 247.98434 481.94128 L 247.98434 481.94128 L 247.98434 481.94128 L 247.98434 481.94128 L 247.98434 481.94128 L 247.98434 481.94128 L 247.98434 480.93933 L 247.98434 480.93933 L 247.98434 480.93933 L 247.98434 480.93933 L 247.98434 480.93933 L 247.98434 480.93933 L 247.98434 480.93933 L 247.98434 480.93933 L 247.98434 480.93933 L 247.98434 479.93738 L 247.98434 479.93738 L 247.98434 479.93738 L 247.98434 479.93738 L 247.98434 479.93738 L 247.98434 479.93738 L 247.98434 479.93738 L 247.98434 479.93738 L 247.98434 478.93542 L 247.98434 478.93542 L 247.98434 478.93542 L 247.98434 478.93542 L 247.98434 478.93542 L 247.98434 478.93542 L 247.98434 478.93542 L 247.98434 478.93542 L 247.98434 477.93347 L 247.98434 477.93347 L 247.98434 477.93347 L 247.98434 477.93347 L 247.98434 477.93347 L 247.98434 477.93347 L 247.98434 477.93347 L 247.98434 476.93152 L 247.98434 476.93152 L 247.98434 476.93152 L 247.98434 476.93152 L 247.98434 476.93152 L 247.98434 476.93152 L 247.98434 476.93152 L 247.98434 475.92953 L 247.98434 475.92953 L 247.98434 475.92953 L 247.98434 475.92953 L 247.98434 475.92953 L 247.98434 474.92758 L 247.98434 474.92758 L 247.98434 474.92758 L 247.98434 474.92758 L 247.98434 474.92758 L 247.98434 474.92758 L 247.98434 474.92758 L 247.98434 473.92563 L 247.98434 473.92563 L 247.98434 473.92563 L 247.98434 473.92563 L 247.98434 473.92563 L 247.98434 473.92563 L 247.98434 472.92368 L 247.98434 472.92368 L 247.98434 472.92368 L 247.98434 472.92368 L 247.98434 472.92368 L 247.98434 471.92172 L 247.98434 471.92172 L 247.98434 471.92172 L 247.98434 471.92172 L 247.98434 471.92172 L 247.98434 470.91977 L 247.98434 470.91977 L 247.98434 470.91977 L 247.98434 470.91977 L 247.98434 470.91977 L 247.98434 470.91977 L 247.98434 470.91977 L 247.98434 470.91977 L 247.98434 469.91782 L 247.98434 469.91782 L 247.98434 469.91782 L 247.98434 469.91782 L 247.98434 469.91782 L 247.98434 469.91782 L 247.98434 468.91586 L 247.98434 468.91586 L 247.98434 468.91586 L 247.98434 468.91586 L 247.98434 468.91586 L 247.98434 467.91388 L 247.98434 467.91388 L 247.98434 467.91388 L 247.98434 467.91388 L 247.98434 467.91388 L 247.98434 467.91388 L 247.98434 466.91193 L 247.98434 466.91193 L 247.98434 466.91193 L 247.98434 466.91193 L 247.98434 466.91193 L 247.98434 465.90997 L 247.98434 465.90997 L 247.98434 465.90997 L 247.98434 465.90997 L 247.98434 465.90997 L 247.98434 464.90802 L 247.98434 464.90802 L 247.98434 464.90802 L 247.98434 464.90802 L 272.0313 464.90802 L 296.07828 464.90802 L 296.07828 416.8141 L 272.0313 416.8141 L 247.98434 416.8141 L 247.98434 416.8141 L 247.98434 416.8141 L 247.98434 415.81213 L 247.98434 415.81213 L 247.98434 415.81213 L 247.98434 414.81018 L 247.98434 414.81018 L 247.98434 414.81018 L 247.98434 413.80823 L 247.98434 413.80823 L 247.98434 413.80823 L 247.98434 412.80627 L 247.98434 412.80627 L 247.98434 412.80627 L 247.98434 411.8043 L 247.98434 411.8043 L 247.98434 411.8043 L 247.98434 410.80234 L 247.98434 410.80234 L 247.98434 410.80234 L 247.98434 409.80038 L 247.98434 409.80038 L 247.98434 409.80038 L 247.98434 409.80038 L 247.98434 408.79843 L 247.98434 408.79843 L 247.98434 408.79843 L 247.98434 407.79648 L 247.98434 407.79648 L 247.98434 407.79648 L 247.98434 406.79453 L 247.98434 406.79453 L 247.98434 406.79453 L 247.98434 406.79453 L 247.98434 405.79257 L 247.98434 405.79257 L 247.98434 405.79257 L 247.98434 404.79062 L 247.98434 404.79062 L 247.98434 403.78864 L 247.98434 403.78864 L 247.98434 402.78668 L 247.98434 402.78668 L 247.98434 402.78668 L 247.98434 401.78473 L 247.98434 401.78473 L 247.98434 401.78473 L 247.98434 400.78278 L 247.98434 400.78278 L 247.98434 400.78278 L 247.98434 399.78082 L 247.98434 399.78082 L 247.98434 399.78082 L 247.98434 399.78082 Q 314.1135 388.7593 356.1957 340.66537 Q 399.27985 292.57144 400.2818 224.43835 Q 399.27985 170.33269 371.22504 127.248535 L 416.3131 82.16047 L 416.3131 120.23483 L 416.3131 144.2818 L 464.40704 144.2818 L 464.40704 120.23483 L 464.40704 24.046967 L 464.40704 0 L 440.36008 0 L 344.1722 0 L 344.1722 0 Z M 223.93738 96.18787 Q 259.00586 96.18787 288.06262 113.22114 L 288.06262 113.22114 Q 317.1194 130.25441 335.1546 160.31311 Q 352.18787 190.37183 352.18787 224.43835 Q 352.18787 258.50488 335.1546 288.5636 Q 317.1194 318.6223 288.06262 335.65558 Q 259.00586 352.68884 223.93738 352.68884 Q 188.86888 352.68884 159.81213 335.65558 Q 130.75539 318.6223 112.72015 288.5636 Q 95.68689 258.50488 95.68689 224.43835 Q 95.68689 190.37183 112.72015 160.31311 Q 130.75539 130.25441 159.81213 113.22114 Q 188.86888 96.18787 223.93738 96.18787 L 223.93738 96.18787 Z" />
</svg>