<svg xmlns="http://www.w3.org/2000/svg" viewBox="0 0 640 512">
  <path d="M 640 0 L 0 0 L 640 0 L 0 0 L 0 48 L 0 48 L 32 48 L 32 48 L 32 96 L 32 96 L 0 96 L 0 96 L 0 144 L 0 144 L 0 368 L 0 368 L 0 416 L 0 416 L 48 416 L 64 416 Q 65 457 92 484 Q 119 511 160 512 Q 201 511 228 484 Q 255 457 256 416 L 384 416 L 384 416 Q 385 457 412 484 Q 439 511 480 512 Q 521 511 548 484 Q 575 457 576 416 L 592 416 L 640 416 L 640 368 L 640 368 L 640 144 L 640 144 L 640 96 L 640 96 L 592 96 L 544 96 Q 544 82 535 73 Q 526 64 512 64 Q 498 64 489 73 Q 480 82 480 96 L 384 96 L 384 96 L 384 48 L 384 48 L 640 48 L 640 48 L 640 0 L 640 0 Z M 336 48 L 336 96 L 336 48 L 336 96 L 280 96 L 280 96 L 280 48 L 280 48 L 336 48 L 336 48 Z M 336 144 L 384 144 L 336 144 L 384 144 L 384 224 L 384 224 L 48 224 L 48 224 L 48 144 L 48 144 L 336 144 L 336 144 Z M 48 368 L 48 272 L 48 368 L 48 272 L 408 272 L 432 272 L 432 248 L 432 248 L 432 144 L 432 144 L 592 144 L 592 144 L 592 368 L 592 368 L 563 368 L 563 368 Q 550 346 529 333 Q 507 320 480 320 Q 453 320 431 333 Q 410 346 397 368 L 243 368 L 243 368 Q 230 346 209 333 Q 187 320 160 320 Q 133 320 111 333 Q 89 346 77 368 L 48 368 L 48 368 Z M 232 48 L 232 96 L 232 48 L 232 96 L 184 96 L 184 96 L 184 48 L 184 48 L 232 48 L 232 48 Z M 136 48 L 136 96 L 136 48 L 136 96 L 80 96 L 80 96 L 80 48 L 80 48 L 136 48 L 136 48 Z M 112 416 Q 113 389 136 374 Q 160 362 184 374 Q 207 389 208 416 Q 207 443 184 458 Q 160 470 136 458 Q 113 443 112 416 L 112 416 Z M 480 368 Q 507 369 522 392 Q 534 416 522 440 Q 507 463 480 464 Q 453 463 438 440 Q 426 416 438 392 Q 453 369 480 368 L 480 368 Z M 560 176 L 464 176 L 560 176 L 464 176 L 464 272 L 464 272 L 560 272 L 560 272 L 560 176 L 560 176 Z" />
</svg>