<svg xmlns="http://www.w3.org/2000/svg" viewBox="0 0 640 384">
  <path d="M 640 8 L 640 376 L 640 8 L 640 376 L 640 384 L 640 384 L 624 384 L 624 384 L 624 376 L 624 376 L 624 8 L 624 8 L 624 0 L 624 0 L 640 0 L 640 0 L 640 8 L 640 8 Z M 512 192 L 506 198 L 512 192 L 506 198 L 354 350 L 354 350 L 349 355 L 349 355 L 337 344 L 337 344 L 343 338 L 343 338 L 481 200 L 481 200 L 8 200 L 0 200 L 0 184 L 0 184 L 8 184 L 481 184 L 343 46 L 343 46 L 337 40 L 337 40 L 349 29 L 349 29 L 354 34 L 354 34 L 506 186 L 506 186 L 512 192 L 512 192 Z" />
</svg>