<svg xmlns="http://www.w3.org/2000/svg" viewBox="0 0 512 512">
  <path d="M 16 496 L 112 496 L 16 496 L 112 496 L 112 512 L 112 512 L 16 512 L 0 512 L 0 496 L 0 496 L 0 16 L 0 16 L 0 0 L 0 0 L 16 0 L 224 0 L 384 160 L 384 160 L 384 304 L 384 304 L 368 304 L 368 304 L 368 176 L 368 176 L 216 176 L 208 176 L 208 168 L 208 168 L 208 16 L 208 16 L 16 16 L 16 16 L 16 496 L 16 496 Z M 361 160 L 224 23 L 361 160 L 224 23 L 224 160 L 224 160 L 361 160 L 361 160 Z M 296 368 L 304 368 L 296 368 L 336 368 Q 356 369 370 382 Q 383 396 384 416 Q 383 436 370 450 Q 356 463 336 464 L 312 464 L 312 464 L 312 504 L 312 504 L 312 512 L 312 512 L 296 512 L 296 512 L 296 504 L 296 504 L 296 456 L 296 456 L 296 376 L 296 376 L 296 368 L 296 368 Z M 312 448 L 336 448 L 312 448 L 336 448 Q 350 448 359 439 Q 368 430 368 416 Q 368 402 359 393 Q 350 384 336 384 L 312 384 L 312 384 L 312 448 L 312 448 Z M 168 368 L 176 368 L 168 368 L 208 368 Q 228 369 242 382 Q 255 396 256 416 Q 255 436 242 450 Q 228 463 208 464 L 184 464 L 184 464 L 184 504 L 184 504 L 184 512 L 184 512 L 168 512 L 168 512 L 168 504 L 168 504 L 168 456 L 168 456 L 168 376 L 168 376 L 168 368 L 168 368 Z M 184 448 L 208 448 L 184 448 L 208 448 Q 222 448 231 439 Q 240 430 240 416 Q 240 402 231 393 Q 222 384 208 384 L 184 384 L 184 384 L 184 448 L 184 448 Z M 416 368 L 424 368 L 416 368 L 512 368 L 512 384 L 512 384 L 504 384 L 472 384 L 472 504 L 472 504 L 472 512 L 472 512 L 456 512 L 456 512 L 456 504 L 456 504 L 456 384 L 456 384 L 424 384 L 416 384 L 416 368 L 416 368 Z" />
</svg>