<svg xmlns="http://www.w3.org/2000/svg" viewBox="0 0 384 512">
  <path d="M 16 16 L 208 16 L 16 16 L 208 16 L 208 168 L 208 168 L 208 176 L 208 176 L 216 176 L 368 176 L 368 496 L 368 496 L 16 496 L 16 496 L 16 16 L 16 16 Z M 224 23 L 361 160 L 224 23 L 361 160 L 224 160 L 224 160 L 224 23 L 224 23 Z M 224 0 L 16 0 L 224 0 L 0 0 L 0 16 L 0 16 L 0 496 L 0 496 L 0 512 L 0 512 L 16 512 L 384 512 L 384 496 L 384 496 L 384 160 L 384 160 L 224 0 L 224 0 Z M 94 305 Q 94 327 110 343 L 181 409 L 181 409 L 192 420 L 192 420 L 203 409 L 203 409 L 274 343 L 274 343 Q 290 327 290 305 Q 290 283 275 268 Q 260 254 238 253 L 235 253 L 235 253 Q 213 254 197 268 L 192 273 L 192 273 L 187 268 L 187 268 Q 171 254 149 253 L 145 253 L 145 253 Q 123 254 109 268 Q 94 283 94 305 L 94 305 Z M 181 285 L 192 295 L 181 285 L 192 295 L 203 285 L 203 285 L 208 280 L 208 280 Q 220 270 235 269 L 238 269 L 238 269 Q 254 270 264 280 Q 274 290 274 305 Q 274 321 263 331 L 192 398 L 192 398 L 121 331 L 121 331 Q 110 320 110 305 Q 110 290 120 280 Q 130 270 146 269 L 149 269 L 149 269 Q 165 270 176 280 L 181 285 L 181 285 Z" />
</svg>