<svg xmlns="http://www.w3.org/2000/svg" viewBox="0 0 396 499">
  <path d="M 5 341 L 0 347 L 5 341 L 0 347 L 11 358 L 11 358 L 17 353 L 17 353 L 32 337 L 32 337 Q 65 368 105 382 Q 145 396 187 395 L 187 483 L 187 483 L 35 483 L 35 483 L 35 499 L 35 499 L 355 499 L 355 499 L 355 483 L 355 483 L 203 483 L 203 483 L 203 394 L 203 394 Q 276 386 332 332 Q 394 267 395 183 Q 396 99 337 32 L 353 17 L 353 17 L 358 11 L 358 11 L 347 0 L 347 0 L 341 5 L 341 5 L 320 26 L 320 26 L 315 32 L 315 32 L 320 38 L 320 38 Q 379 99 379 179 Q 379 259 320 321 Q 259 379 179 379 Q 99 379 38 321 L 32 315 L 32 315 L 26 321 L 26 321 L 5 341 L 5 341 Z M 35 179 Q 35 140 54 107 L 54 107 L 54 107 Q 73 74 107 54 Q 141 35 179 35 Q 217 35 251 54 Q 285 74 304 107 Q 323 140 323 179 Q 323 218 304 251 Q 285 284 251 304 Q 217 323 179 323 Q 141 323 107 304 Q 73 284 54 251 Q 35 218 35 179 L 35 179 Z M 339 179 Q 339 136 318 99 L 318 99 L 318 99 Q 296 62 259 40 Q 221 19 179 19 Q 137 19 99 40 Q 62 62 40 99 Q 19 136 19 179 Q 19 222 40 259 Q 62 296 99 318 Q 137 339 179 339 Q 221 339 259 318 Q 296 296 318 259 Q 339 222 339 179 L 339 179 Z" />
</svg>