<svg xmlns="http://www.w3.org/2000/svg" viewBox="0 0 626 512">
  <path d="M 112 128 Q 112 98 127 72 L 127 72 L 127 72 Q 142 46 168 31 Q 194 16 224 16 Q 254 16 280 31 Q 306 46 321 72 Q 336 98 336 128 Q 336 158 321 184 Q 306 210 280 225 Q 254 240 224 240 Q 194 240 168 225 Q 142 210 127 184 Q 112 158 112 128 L 112 128 Z M 352 496 L 22 496 L 352 496 L 22 496 L 76 320 L 76 320 L 296 320 L 296 320 L 305 304 L 305 304 L 64 304 L 64 304 L 5 496 L 5 496 L 0 512 L 0 512 L 17 512 L 352 512 L 352 496 L 352 496 Z M 224 256 Q 259 256 288 239 L 288 239 L 288 239 Q 317 222 335 192 Q 352 162 352 128 Q 352 94 335 64 Q 317 34 288 17 Q 259 0 224 0 Q 189 0 160 17 Q 131 34 113 64 Q 96 94 96 128 Q 96 162 113 192 Q 131 222 160 239 Q 189 256 224 256 L 224 256 Z M 524 249 L 524 222 L 524 249 L 524 222 L 524 206 L 524 206 L 508 206 L 436 206 L 436 222 L 436 222 L 436 249 L 436 249 Q 424 254 413 262 L 392 249 L 392 249 L 378 241 L 378 241 L 370 255 L 370 255 L 342 305 L 342 305 L 334 319 L 334 319 L 347 327 L 347 327 L 369 339 L 369 339 Q 368 346 368 352 Q 368 358 369 364 L 347 376 L 347 376 L 334 384 L 334 384 L 342 398 L 342 398 L 379 462 L 379 462 L 413 442 L 413 442 Q 424 450 436 455 L 436 481 L 436 481 L 436 497 L 436 497 L 452 497 L 524 497 L 524 481 L 524 481 L 524 455 L 524 455 Q 536 450 546 442 L 581 462 L 581 462 L 618 398 L 618 398 L 626 384 L 626 384 L 613 376 L 613 376 L 591 364 L 591 364 Q 592 358 592 352 Q 592 345 591 339 L 613 327 L 613 327 L 626 319 L 626 319 L 618 305 L 618 305 L 581 241 L 581 241 Q 581 241 581 241 Q 581 241 581 241 L 546 261 L 546 261 Q 536 254 524 249 L 524 249 Z M 576 263 L 605 313 L 576 263 L 605 313 L 583 326 L 583 326 L 574 331 L 574 331 L 575 341 L 575 341 Q 576 344 576 346 Q 576 349 576 352 Q 576 357 575 362 L 574 373 L 574 373 L 583 378 L 583 378 L 605 390 L 605 390 L 576 440 L 576 440 L 554 428 L 554 428 L 545 423 L 545 423 L 537 429 L 537 429 Q 528 435 518 440 L 508 444 L 508 444 L 508 455 L 508 455 L 508 481 L 508 481 L 452 481 L 452 481 L 452 455 L 452 455 L 452 444 L 452 444 L 442 440 L 442 440 Q 432 436 423 429 L 415 423 L 415 423 L 406 428 L 406 428 L 384 440 L 384 440 L 355 390 L 355 390 L 377 378 L 377 378 L 386 373 L 386 373 L 385 362 L 385 362 Q 384 357 384 352 Q 384 346 385 341 L 386 331 L 386 331 L 377 326 L 377 326 L 356 313 L 356 313 L 384 263 L 384 263 L 406 275 L 406 275 L 415 281 L 415 281 L 423 274 L 423 274 Q 432 268 442 263 L 452 259 L 452 259 L 452 249 L 452 249 L 452 223 L 452 223 L 508 223 L 508 223 L 508 249 L 508 249 L 508 259 L 508 259 L 518 264 L 518 264 Q 528 268 537 275 L 545 281 L 545 281 L 554 276 L 554 276 L 576 263 L 576 263 Z M 480 320 Q 494 320 503 329 L 503 329 L 503 329 Q 512 338 512 352 Q 512 365 503 374 Q 494 383 480 384 Q 466 383 457 374 Q 448 365 448 352 Q 448 338 457 329 Q 466 320 480 320 L 480 320 Z M 480 400 Q 507 399 522 376 Q 534 352 522 328 Q 507 305 480 304 Q 453 305 438 328 Q 426 352 438 376 Q 453 399 480 400 L 480 400 Z" />
</svg>