<svg xmlns="http://www.w3.org/2000/svg" viewBox="0 0 448 448">
  <path d="M 16 16 L 16 432 L 16 16 L 16 432 L 432 432 L 432 432 L 432 16 L 432 16 L 16 16 L 16 16 Z M 0 0 L 16 0 L 0 0 L 448 0 L 448 16 L 448 16 L 448 432 L 448 432 L 448 448 L 448 448 L 432 448 L 0 448 L 0 432 L 0 432 L 0 16 L 0 16 L 0 0 L 0 0 Z M 86 112 L 102 112 L 86 112 L 102 112 L 161 331 L 161 331 L 216 142 L 216 142 L 221 128 L 221 128 L 228 128 L 228 128 L 232 142 L 232 142 L 288 331 L 288 331 L 346 112 L 346 112 L 363 112 L 363 112 L 296 362 L 296 362 L 294 368 L 294 368 L 282 368 L 282 368 L 280 362 L 280 362 L 224 172 L 224 172 L 168 362 L 168 362 L 166 368 L 166 368 L 154 368 L 154 368 L 152 362 L 152 362 L 86 112 L 86 112 Z" />
</svg>