<svg xmlns="http://www.w3.org/2000/svg" viewBox="0 0 640 512">
  <path d="M 33 10 L 20 0 L 33 10 L 20 0 L 0 25 L 0 25 L 13 35 L 13 35 L 608 502 L 608 502 L 620 512 L 620 512 L 640 487 L 640 487 L 628 477 L 628 477 L 33 10 L 33 10 Z M 460 448 L 144 448 L 460 448 L 32 448 L 32 336 L 32 336 Q 33 299 53 271 Q 73 243 107 230 L 128 223 L 128 223 L 128 200 L 128 200 L 128 192 L 128 192 Q 128 189 128 186 L 99 163 L 99 163 Q 96 177 96 192 L 96 200 L 96 200 Q 53 216 27 252 Q 1 288 0 336 L 0 448 L 0 448 L 0 480 L 0 480 L 32 480 L 500 480 L 460 448 L 460 448 Z M 256 32 Q 208 33 171 57 L 198 78 L 198 78 Q 224 64 256 64 Q 290 64 318 80 Q 346 96 364 123 L 378 145 L 378 145 L 402 135 L 402 135 Q 420 128 440 128 Q 484 129 514 159 Q 543 188 544 232 L 544 241 L 544 241 L 544 260 L 544 260 L 560 269 L 560 269 Q 582 282 595 303 Q 608 325 608 352 L 608 402 L 608 402 L 640 427 L 640 427 L 640 352 L 640 352 Q 640 316 622 287 Q 605 258 576 241 L 576 232 L 576 232 Q 575 174 536 136 Q 498 98 440 96 Q 414 96 391 105 Q 369 72 334 52 Q 299 32 256 32 L 256 32 Z" />
</svg>