<svg xmlns="http://www.w3.org/2000/svg" viewBox="0 0 512 448">
  <path d="M 16 16 L 16 432 L 16 16 L 16 432 L 496 432 L 496 432 L 496 16 L 496 16 L 16 16 L 16 16 Z M 0 0 L 16 0 L 0 0 L 512 0 L 512 16 L 512 16 L 512 432 L 512 432 L 512 448 L 512 448 L 496 448 L 0 448 L 0 432 L 0 432 L 0 16 L 0 16 L 0 0 L 0 0 Z M 304 160 Q 303 133 280 118 Q 256 106 232 118 Q 209 133 208 160 Q 209 187 232 202 Q 256 214 280 202 Q 303 187 304 160 L 304 160 Z M 166 336 L 346 336 L 166 336 L 346 336 L 325 272 L 325 272 L 188 272 L 188 272 L 166 336 L 166 336 Z M 336 256 L 363 336 L 336 256 L 363 336 L 368 352 L 368 352 L 351 352 L 144 352 L 149 336 L 149 336 L 176 256 L 176 256 L 336 256 L 336 256 Z M 256 96 Q 292 97 311 128 Q 329 160 311 192 Q 292 223 256 224 Q 220 223 201 192 Q 183 160 201 128 Q 220 97 256 96 L 256 96 Z" />
</svg>