<svg xmlns="http://www.w3.org/2000/svg" viewBox="0 0 512 512">
  <path d="M 161.65836 71.73896 Q 161.65836 57.980804 152.81381 49.136276 L 152.81381 49.136276 Q 143.96928 40.291748 130.21114 40.291748 Q 116.45297 40.291748 107.608444 49.136276 Q 98.763916 57.980804 98.763916 71.73896 Q 98.763916 85.49712 107.608444 94.34165 Q 116.45297 103.18618 130.21114 103.18618 Q 143.96928 103.18618 152.81381 94.34165 Q 161.65836 85.49712 161.65836 71.73896 L 161.65836 71.73896 Z M 67.316696 71.73896 Q 68.29942 36.360844 98.763916 17.68906 Q 130.21114 0 161.65836 17.68906 Q 192.12283 36.360844 193.10556 71.73896 Q 192.12283 107.11708 161.65836 125.788864 Q 130.21114 143.47792 98.763916 125.788864 Q 68.29942 107.11708 67.316696 71.73896 L 67.316696 71.73896 Z M 60.43762 323.3167 L 67.316696 323.3167 L 98.763916 323.3167 L 161.65836 323.3167 L 193.10556 323.3167 L 199.98465 323.3167 L 194.08829 197.52783 L 66.33398 197.52783 L 60.43762 323.3167 L 60.43762 323.3167 Z M 200.96738 354.76392 L 193.10556 354.76392 L 193.10556 496.2764 L 193.10556 512 L 161.65836 512 L 161.65836 496.2764 L 161.65836 354.76392 L 98.763916 354.76392 L 98.763916 496.2764 L 98.763916 512 L 67.316696 512 L 67.316696 496.2764 L 67.316696 354.76392 L 59.454895 354.76392 L 28.007677 354.76392 L 28.990402 323.3167 L 35.86948 166.08061 L 224.55278 166.08061 L 231.43185 323.3167 L 232.41458 354.76392 L 200.96738 354.76392 L 200.96738 354.76392 Z M 413.23608 71.73896 Q 413.23608 57.980804 404.39154 49.136276 L 404.39154 49.136276 Q 395.54703 40.291748 381.78888 40.291748 Q 368.0307 40.291748 359.1862 49.136276 Q 350.34164 57.980804 350.34164 71.73896 Q 350.34164 85.49712 359.1862 94.34165 Q 368.0307 103.18618 381.78888 103.18618 Q 395.54703 103.18618 404.39154 94.34165 Q 413.23608 85.49712 413.23608 71.73896 L 413.23608 71.73896 Z M 318.89444 71.73896 Q 319.87717 36.360844 350.34164 17.68906 Q 381.78888 0 413.23608 17.68906 Q 443.70056 36.360844 444.6833 71.73896 Q 443.70056 107.11708 413.23608 125.788864 Q 381.78888 143.47792 350.34164 125.788864 Q 319.87717 107.11708 318.89444 71.73896 L 318.89444 71.73896 Z M 312.01535 323.3167 L 318.89444 323.3167 L 350.34164 323.3167 L 413.23608 323.3167 L 444.6833 323.3167 L 451.56238 323.3167 L 445.66602 197.52783 L 317.9117 197.52783 L 312.01535 323.3167 L 312.01535 323.3167 Z M 452.5451 354.76392 L 444.6833 354.76392 L 444.6833 496.2764 L 444.6833 512 L 413.23608 512 L 413.23608 496.2764 L 413.23608 354.76392 L 350.34164 354.76392 L 350.34164 496.2764 L 350.34164 512 L 318.89444 512 L 318.89444 496.2764 L 318.89444 354.76392 L 311.03262 354.76392 L 279.58542 354.76392 L 280.56815 323.3167 L 287.4472 166.08061 L 476.13052 166.08061 L 483.00958 323.3167 L 483.9923 354.76392 L 452.5451 354.76392 L 452.5451 354.76392 Z" />
</svg>