<svg xmlns="http://www.w3.org/2000/svg" viewBox="0 0 512 512">
  <path d="M 80 16 L 80 192 L 80 16 L 80 192 L 432 192 L 432 192 L 432 71 L 432 71 L 377 16 L 377 16 L 80 16 L 80 16 Z M 448 192 L 496 192 L 448 192 L 512 192 L 512 208 L 512 208 L 512 368 L 512 368 L 512 384 L 512 384 L 496 384 L 0 384 L 0 368 L 0 368 L 0 208 L 0 208 L 0 192 L 0 192 L 16 192 L 64 192 L 64 16 L 64 16 L 64 0 L 64 0 L 80 0 L 384 0 L 448 64 L 448 64 L 448 192 L 448 192 Z M 16 208 L 16 368 L 16 208 L 16 368 L 496 368 L 496 368 L 496 208 L 496 208 L 16 208 L 16 208 Z M 56 416 L 72 416 L 56 416 L 72 416 L 72 504 L 72 504 L 72 512 L 72 512 L 56 512 L 56 512 L 56 504 L 56 504 L 56 416 L 56 416 Z M 152 416 L 168 416 L 152 416 L 168 416 L 168 504 L 168 504 L 168 512 L 168 512 L 152 512 L 152 512 L 152 504 L 152 504 L 152 416 L 152 416 Z M 248 416 L 264 416 L 248 416 L 264 416 L 264 504 L 264 504 L 264 512 L 264 512 L 248 512 L 248 512 L 248 504 L 248 504 L 248 416 L 248 416 Z M 344 416 L 360 416 L 344 416 L 360 416 L 360 504 L 360 504 L 360 512 L 360 512 L 344 512 L 344 512 L 344 504 L 344 504 L 344 416 L 344 416 Z M 440 416 L 456 416 L 440 416 L 456 416 L 456 504 L 456 504 L 456 512 L 456 512 L 440 512 L 440 512 L 440 504 L 440 504 L 440 416 L 440 416 Z M 448 288 L 416 288 L 448 288 L 416 288 L 416 256 L 416 256 L 448 256 L 448 256 L 448 288 L 448 288 Z" />
</svg>