<svg xmlns="http://www.w3.org/2000/svg" viewBox="0 0 480 448">
  <path d="M 32 192 L 16 192 L 32 192 L 16 192 L 16 176 L 16 176 L 16 160 L 16 160 Q 15 159 22 135 Q 28 111 50 80 Q 72 49 117 25 Q 163 1 240 0 Q 317 1 363 25 Q 408 49 430 80 Q 452 111 458 135 Q 465 159 464 160 L 464 176 L 464 176 L 464 192 L 464 192 L 448 192 L 32 192 Z M 448 176 L 448 161 L 448 176 L 448 161 L 448 161 L 448 161 Q 448 160 448 158 Q 447 157 447 156 Q 446 150 443 140 Q 437 118 417 90 Q 398 62 356 39 Q 314 17 240 16 Q 166 17 124 39 Q 82 62 63 90 Q 43 118 37 140 Q 34 150 33 156 Q 32 159 32 160 L 32 161 L 32 161 L 32 176 L 32 176 L 448 176 L 448 176 Z M 32 162 Q 32 162 32 162 L 32 162 L 32 162 Q 32 162 32 162 Q 32 162 32 162 Q 32 162 32 162 L 32 162 Z M 464 240 L 16 240 L 464 240 L 16 240 L 16 304 L 16 304 L 464 304 L 464 304 L 464 240 L 464 240 Z M 0 224 L 16 224 L 0 224 L 480 224 L 480 240 L 480 240 L 480 304 L 480 304 L 480 320 L 480 320 L 464 320 L 0 320 L 0 304 L 0 304 L 0 240 L 0 240 L 0 224 L 0 224 Z M 448 368 L 32 368 L 448 368 L 32 368 L 32 432 L 32 432 L 448 432 L 448 432 L 448 368 L 448 368 Z M 16 352 L 32 352 L 16 352 L 464 352 L 464 368 L 464 368 L 464 432 L 464 432 L 464 448 L 464 448 L 448 448 L 16 448 L 16 432 L 16 432 L 16 368 L 16 368 L 16 352 L 16 352 Z M 128 80 Q 143 81 144 96 Q 143 111 128 112 Q 113 111 112 96 Q 113 81 128 80 L 128 80 Z M 336 96 Q 337 81 352 80 Q 367 81 368 96 Q 367 111 352 112 Q 337 111 336 96 L 336 96 Z M 240 48 Q 255 49 256 64 Q 255 79 240 80 Q 225 79 224 64 Q 225 49 240 48 L 240 48 Z" />
</svg>