<svg xmlns="http://www.w3.org/2000/svg" viewBox="0 0 512 512">
  <path d="M 120.8 87.2 Q 136.8 69.6 138.4 69.6 L 138.4 69.6 Q 138.4 69.6 138.4 69.6 Q 139.2 69.6 152 83.2 Q 164.8 96.8 178.4 117.6 Q 191.2 137.6 192 159.2 Q 192 176.8 185.6 192 L 141.6 192 Q 152 172 141.6 150.4 Q 140 147.2 137.6 144 L 117.6 167.2 Q 116.8 166.4 108.8 156 Q 100.8 146.4 92.8 135.2 Q 84.8 124.8 83.2 123.2 Q 70.4 138.4 64 148.8 Q 57.6 159.2 57.6 168.8 Q 57.6 182.4 64 192 L 19.2 192 Q 12.8 176.8 12.8 159.2 Q 14.4 133.6 31.2 108.8 Q 48.8 84.8 65.6 68 Q 83.2 52 84.8 51.2 Q 84.8 51.2 96 61.6 Q 106.4 71.2 120.8 87.2 L 120.8 87.2 Z M 0 217.6 L 16 217.6 L 19.2 217.6 L 32 217.6 L 185.6 217.6 L 198.4 217.6 L 212.8 217.6 L 217.6 217.6 L 217.6 256 L 199.2 256 L 183.2 300 L 184 300.8 L 254.4 230.4 L 241.6 217.6 L 268.8 190.4 L 281.6 203.2 L 292.8 192 L 280 179.2 L 307.2 152 L 320 164.8 L 331.2 153.6 L 318.4 140.8 L 345.6 113.6 L 358.4 126.4 L 376.8 108 L 382.4 102.4 L 390.4 102.4 L 460.8 102.4 L 468.8 102.4 L 474.4 108 L 506.4 140 L 512 145.6 L 512 153.6 L 512 179.2 L 512 198.4 L 492.8 198.4 L 431.2 198.4 L 249.6 411.2 Q 229.6 435.2 201.6 448 Q 173.6 460.8 141.6 460.8 L 137.6 460.8 Q 79.2 459.2 40 420.8 Q 1.6 381.6 0 323.2 Q 0 312 1.6 300.8 L 9.6 256 L 0 256 L 0 217.6 L 0 217.6 Z M 358.4 180.8 L 347.2 192 L 347.2 192 L 320 219.2 L 320 219.2 L 308.8 230.4 L 308.8 230.4 L 281.6 257.6 L 281.6 257.6 L 199.2 340 L 187.2 352 L 174.4 341.6 L 148.8 322.4 L 136.8 314.4 L 142.4 300.8 L 158.4 256 L 48 256 L 40 307.2 Q 38.4 315.2 38.4 323.2 Q 39.2 365.6 67.2 393.6 Q 95.2 421.6 137.6 422.4 L 141.6 422.4 Q 188.8 421.6 220.8 386.4 L 408 166.4 L 413.6 160 L 422.4 160 L 472 160 L 452.8 140.8 L 398.4 140.8 L 385.6 153.6 L 385.6 153.6 L 358.4 180.8 L 358.4 180.8 L 358.4 180.8 Z M 76.8 300.8 Q 78.4 283.2 96 281.6 Q 113.6 283.2 115.2 300.8 Q 113.6 318.4 96 320 Q 78.4 318.4 76.8 300.8 L 76.8 300.8 Z" />
</svg>