<svg xmlns="http://www.w3.org/2000/svg" viewBox="0 0 512 416">
  <path d="M 352 184 L 304 184 L 352 184 L 96 184 L 96 232 L 96 232 L 96 368 L 96 368 L 48 368 L 48 368 L 48 136 L 48 136 L 304 136 L 352 136 L 352 88 L 352 88 L 352 68 L 352 68 L 444 160 L 444 160 L 352 252 L 352 252 L 352 232 L 352 232 L 352 184 L 352 184 Z M 478 194 L 512 160 L 478 194 L 512 160 L 478 126 L 478 126 L 352 0 L 352 0 L 304 0 L 304 0 L 304 40 L 304 40 L 304 48 L 304 48 L 304 88 L 304 88 L 256 88 L 0 88 L 0 136 L 0 136 L 0 368 L 0 368 L 0 416 L 0 416 L 48 416 L 144 416 L 144 368 L 144 368 L 144 280 L 144 280 L 144 232 L 144 232 L 192 232 L 304 232 L 304 272 L 304 272 L 304 280 L 304 280 L 304 320 L 304 320 L 352 320 L 352 320 L 478 194 L 478 194 Z" />
</svg>