<svg xmlns="http://www.w3.org/2000/svg" viewBox="0 0 638 512">
  <path d="M 350 80 Q 349 116 318 135 Q 286 153 254 135 Q 223 116 222 80 Q 223 44 254 25 Q 286 7 318 25 Q 349 44 350 80 L 350 80 Z M 286 0 Q 252 1 229 23 L 229 23 L 229 23 Q 207 46 206 80 Q 207 112 227 134 Q 247 156 278 160 Q 278 160 278 160 Q 278 160 278 160 L 278 208 L 278 208 L 198 208 L 190 208 L 190 224 L 190 224 L 198 224 L 278 224 L 278 496 L 278 496 L 86 496 L 86 496 L 86 291 L 86 291 L 144 350 L 144 350 L 156 338 L 156 338 L 84 266 L 84 266 L 78 261 L 78 261 L 72 266 L 72 266 Q 72 266 72 266 L 0 338 L 0 338 L 12 350 L 12 350 L 70 291 L 70 291 L 70 504 L 70 504 L 70 512 L 70 512 L 78 512 L 393 512 Q 382 505 373 496 L 294 496 L 294 496 L 294 224 L 294 224 L 374 224 L 382 224 L 382 208 L 382 208 L 374 208 L 294 208 L 294 160 L 294 160 Q 294 160 294 160 Q 294 160 294 160 Q 325 156 345 134 Q 365 112 366 80 Q 365 46 343 23 Q 320 1 286 0 L 286 0 Z M 366 368 Q 366 333 383 304 L 383 304 L 383 304 Q 400 275 430 257 Q 460 240 494 240 Q 528 240 558 257 Q 588 275 605 304 Q 622 333 622 368 Q 622 403 605 432 Q 588 461 558 479 Q 528 496 494 496 Q 460 496 430 479 Q 400 461 383 432 Q 366 403 366 368 L 366 368 Z M 638 368 Q 638 329 619 296 L 619 296 L 619 296 Q 600 263 566 243 Q 532 224 494 224 Q 456 224 422 243 Q 388 263 369 296 Q 350 329 350 368 Q 350 407 369 440 Q 388 473 422 493 Q 456 512 494 512 Q 532 512 566 493 Q 600 473 619 440 Q 638 407 638 368 L 638 368 Z M 556 318 L 561 312 L 556 318 L 561 312 L 550 301 L 550 301 L 544 306 L 544 306 L 494 357 L 494 357 L 444 306 L 444 306 L 438 301 L 438 301 L 427 312 L 427 312 L 432 318 L 432 318 L 483 368 L 483 368 L 432 418 L 432 418 L 427 424 L 427 424 L 438 435 L 438 435 L 444 430 L 444 430 L 494 379 L 494 379 L 544 430 L 544 430 L 550 435 L 550 435 L 561 424 L 561 424 L 556 418 L 556 418 L 505 368 L 505 368 L 556 318 L 556 318 Z" />
</svg>