<svg xmlns="http://www.w3.org/2000/svg" viewBox="0 0 512 448">
  <path d="M 368 176 L 336 176 L 368 176 L 336 176 L 336 144 L 336 144 L 336 96 L 336 96 L 318 96 L 318 96 L 203 224 L 203 224 L 318 352 L 318 352 L 336 352 L 336 352 L 336 304 L 336 304 L 336 272 L 336 272 L 368 272 L 480 272 L 480 176 L 480 176 L 368 176 L 368 176 Z M 368 64 L 368 96 L 368 64 L 368 96 L 368 112 L 368 112 L 368 144 L 368 144 L 400 144 L 512 144 L 512 176 L 512 176 L 512 272 L 512 272 L 512 304 L 512 304 L 480 304 L 368 304 L 368 336 L 368 336 L 368 352 L 368 352 L 368 384 L 368 384 L 336 384 L 304 384 L 160 224 L 160 224 L 304 64 L 304 64 L 336 64 L 368 64 Z M 176 416 L 192 416 L 176 416 L 192 416 L 192 448 L 192 448 L 176 448 L 0 448 L 0 432 L 0 432 L 0 16 L 0 16 L 0 0 L 0 0 L 16 0 L 192 0 L 192 32 L 192 32 L 176 32 L 32 32 L 32 416 L 32 416 L 176 416 L 176 416 Z" />
</svg>