<svg xmlns="http://www.w3.org/2000/svg" viewBox="0 0 512 512">
  <path d="M 264 8 L 264 0 L 264 8 L 264 0 L 248 0 L 248 0 L 248 8 L 248 8 L 248 32 L 248 32 Q 146 37 78 104 Q 9 171 1 272 Q 0 280 0 288 L 16 288 L 512 288 Q 512 280 512 272 Q 503 171 434 104 Q 366 37 264 32 L 264 8 L 264 8 Z M 256 48 Q 354 50 420 113 L 420 113 L 420 113 Q 487 176 496 272 L 17 272 L 17 272 Q 25 176 92 113 Q 158 50 256 48 L 256 48 Z M 264 462 L 264 320 L 264 462 L 264 320 L 248 320 L 248 320 L 248 462 L 248 462 Q 248 477 238 486 Q 229 496 214 496 Q 191 495 182 473 L 176 454 L 176 454 L 173 446 L 173 446 L 158 451 L 158 451 L 160 459 L 160 459 L 167 478 L 167 478 Q 180 510 214 512 Q 235 512 249 498 Q 263 483 264 462 L 264 462 Z" />
</svg>