<svg xmlns="http://www.w3.org/2000/svg" viewBox="0 0 511 508">
  <path d="M 497 0 L 310 375 L 497 0 L 310 375 L 10 294 L 10 294 L 0 291 L 0 291 L 0 302 L 0 302 L 0 372 L 0 372 L 0 388 L 0 388 L 0 436 L 0 436 L 0 452 L 0 452 L 0 500 L 0 500 L 0 508 L 0 508 L 8 508 L 261 508 L 263 504 L 263 504 L 321 388 L 321 388 L 511 8 L 511 8 L 497 0 L 497 0 Z M 16 452 L 80 452 L 16 452 L 88 452 L 88 436 L 88 436 L 80 436 L 16 436 L 16 388 L 16 388 L 80 388 L 88 388 L 88 372 L 88 372 L 80 372 L 16 372 L 16 312 L 16 312 L 302 389 L 302 389 L 251 492 L 251 492 L 16 492 L 16 492 L 16 452 L 16 452 Z" />
</svg>