<svg xmlns="http://www.w3.org/2000/svg" viewBox="0 0 576 448">
  <path d="M 144 0 L 138 0 L 144 0 L 138 0 L 136 6 L 136 6 L 104 114 L 104 114 L 104 112 L 104 112 L 8 112 L 0 112 L 0 120 L 0 120 L 0 168 L 0 168 L 0 176 L 0 176 L 8 176 L 32 176 L 32 352 L 32 352 L 32 368 L 32 368 L 32 432 L 32 432 L 32 448 L 32 448 L 48 448 L 128 448 L 128 432 L 128 432 L 128 368 L 128 368 L 448 368 L 448 368 L 448 432 L 448 432 L 448 448 L 448 448 L 464 448 L 544 448 L 544 432 L 544 432 L 544 368 L 544 368 L 544 352 L 544 352 L 544 176 L 544 176 L 568 176 L 576 176 L 576 168 L 576 168 L 576 120 L 576 120 L 576 112 L 576 112 L 568 112 L 472 112 L 472 114 L 472 114 L 440 6 L 440 6 L 438 0 L 438 0 L 432 0 L 144 0 Z M 528 352 L 464 352 L 528 352 L 48 352 L 48 176 L 48 176 L 528 176 L 528 176 L 528 352 L 528 352 Z M 464 368 L 528 368 L 464 368 L 528 368 L 528 432 L 528 432 L 464 432 L 464 432 L 464 368 L 464 368 Z M 48 368 L 112 368 L 48 368 L 112 368 L 112 432 L 112 432 L 48 432 L 48 432 L 48 368 L 48 368 Z M 476 128 L 560 128 L 476 128 L 560 128 L 560 160 L 560 160 L 544 160 L 486 160 L 476 128 L 476 128 Z M 16 128 L 100 128 L 16 128 L 100 128 L 90 160 L 90 160 L 48 160 L 16 160 L 16 128 L 16 128 Z M 469 160 L 107 160 L 469 160 L 107 160 L 150 16 L 150 16 L 426 16 L 426 16 L 469 160 L 469 160 Z M 112 256 Q 113 241 128 240 Q 143 241 144 256 Q 143 271 128 272 Q 113 271 112 256 L 112 256 Z M 160 256 Q 160 242 151 233 L 151 233 L 151 233 Q 142 224 128 224 Q 114 224 105 233 Q 96 242 96 256 Q 96 270 105 279 Q 114 288 128 288 Q 142 288 151 279 Q 160 270 160 256 L 160 256 Z M 448 240 Q 463 241 464 256 Q 463 271 448 272 Q 433 271 432 256 Q 433 241 448 240 L 448 240 Z M 448 288 Q 462 288 471 279 L 471 279 L 471 279 Q 480 270 480 256 Q 480 242 471 233 Q 462 224 448 224 Q 434 224 425 233 Q 416 242 416 256 Q 416 270 425 279 Q 434 288 448 288 L 448 288 Z" />
</svg>