<svg xmlns="http://www.w3.org/2000/svg" viewBox="0 0 512 512">
  <path d="M 313 119 L 265 19 L 313 119 L 265 19 L 256 0 L 256 0 L 247 19 L 247 19 L 206 104 L 206 104 L 199 119 L 199 119 L 185 111 L 185 111 L 29 17 L 29 17 L 0 0 L 0 0 L 17 29 L 17 29 L 111 185 L 111 185 L 119 199 L 119 199 L 104 206 L 104 206 L 19 247 L 19 247 L 0 256 L 0 256 L 19 265 L 19 265 L 119 313 L 119 313 L 82 418 L 82 418 L 75 437 L 75 437 L 94 430 L 94 430 L 199 393 L 199 393 L 247 494 L 247 494 L 256 512 L 256 512 L 265 494 L 265 494 L 313 393 L 313 393 L 418 430 L 418 430 L 437 437 L 437 437 L 430 418 L 430 418 L 393 313 L 393 313 L 494 265 L 494 265 L 512 256 L 512 256 L 494 247 L 494 247 L 393 199 L 393 199 L 430 94 L 430 94 L 437 75 L 437 75 L 418 82 L 418 82 L 313 119 L 313 119 Z M 411 101 L 378 194 L 411 101 L 378 194 L 373 207 L 373 207 L 386 214 L 386 214 L 475 256 L 475 256 L 386 298 L 386 298 L 373 305 L 373 305 L 378 318 L 378 318 L 411 411 L 411 411 L 318 378 L 318 378 L 305 373 L 305 373 L 298 386 L 298 386 L 256 475 L 256 475 L 214 386 L 214 386 L 207 373 L 207 373 L 194 378 L 194 378 L 101 411 L 101 411 L 134 318 L 134 318 L 139 305 L 139 305 L 126 298 L 126 298 L 37 256 L 37 256 L 126 214 L 126 214 L 142 206 L 142 206 L 133 191 L 133 191 L 46 46 L 46 46 L 191 133 L 191 133 L 206 142 L 206 142 L 214 126 L 214 126 L 256 37 L 256 37 L 298 126 L 298 126 L 305 139 L 305 139 L 318 134 L 318 134 L 411 101 L 411 101 Z" />
</svg>