<svg xmlns="http://www.w3.org/2000/svg" viewBox="0 0 640 512">
  <path d="M 16 5 L 10 0 L 16 5 L 10 0 L 0 13 L 0 13 L 6 18 L 6 18 L 624 507 L 624 507 L 630 512 L 630 512 L 640 500 L 640 500 L 634 495 L 634 495 L 16 5 L 16 5 Z M 576 256 Q 576 208 555 169 L 555 169 L 555 169 Q 535 129 499 102 L 490 115 L 490 115 Q 522 140 541 176 Q 560 212 560 256 Q 560 301 540 338 L 553 348 L 553 348 Q 575 306 576 256 L 576 256 Z M 352 48 L 352 32 L 352 48 L 352 32 L 336 32 L 304 32 L 233 95 L 233 95 L 246 106 L 246 106 L 310 48 L 310 48 L 336 48 L 336 48 L 336 177 L 336 177 L 352 190 L 352 190 L 352 48 L 352 48 Z M 48 176 L 103 176 L 48 176 L 103 176 L 82 160 L 82 160 L 48 160 L 32 160 L 32 176 L 32 176 L 32 336 L 32 336 L 32 352 L 32 352 L 48 352 L 160 352 L 304 480 L 304 480 L 336 480 L 352 480 L 352 464 L 352 464 L 352 373 L 352 373 L 336 360 L 336 360 L 336 464 L 336 464 L 310 464 L 310 464 L 171 340 L 171 340 L 166 336 L 166 336 L 160 336 L 48 336 L 48 176 L 48 176 Z M 464 256 Q 464 266 462 276 L 475 287 L 475 287 Q 480 272 480 256 Q 478 207 442 179 L 432 192 L 432 192 Q 463 215 464 256 L 464 256 Z" />
</svg>