<svg xmlns="http://www.w3.org/2000/svg" viewBox="0 0 640 512">
  <path d="M 427 0 L 432 0 L 427 0 L 456 0 Q 534 2 586 54 Q 638 106 640 184 L 640 218 L 640 218 Q 640 276 613 326 Q 587 376 539 409 L 512 428 L 512 428 L 512 504 L 512 504 L 512 512 L 512 512 L 504 512 L 384 512 L 384 504 L 384 504 L 384 458 L 384 458 Q 375 461 360 464 Q 342 468 320 470 L 320 454 L 320 454 Q 340 452 356 448 Q 371 445 381 443 Q 383 442 385 442 Q 387 441 387 441 L 389 441 L 389 441 L 390 440 L 390 440 L 390 440 L 390 440 Q 390 440 390 440 Q 390 440 390 440 Q 390 440 390 440 Q 390 440 390 440 Q 390 440 390 440 Q 390 440 390 440 L 400 438 L 400 438 L 400 448 L 400 448 L 400 496 L 400 496 L 496 496 L 496 496 L 496 424 L 496 424 L 496 420 L 496 420 L 499 418 L 499 418 L 530 396 L 530 396 Q 575 365 599 319 Q 624 272 624 218 L 624 184 L 624 184 Q 622 113 575 65 Q 527 18 456 16 L 437 16 L 437 16 L 423 44 L 423 44 L 422 46 L 422 46 L 419 47 L 419 47 L 384 61 L 384 61 L 384 112 L 384 112 L 488 112 L 488 112 Q 519 113 539 133 Q 559 153 560 184 L 560 256 L 560 256 L 560 264 L 560 264 L 552 264 L 478 264 L 476 263 L 476 263 L 403 213 L 403 213 Q 349 176 285 176 Q 203 177 143 231 L 16 348 L 16 348 L 16 496 L 16 496 L 272 496 L 272 496 L 272 457 L 272 457 L 103 424 L 103 424 L 96 423 L 96 423 L 96 416 L 96 416 L 96 360 L 96 360 L 96 352 L 96 352 L 112 352 L 112 352 L 112 360 L 112 360 L 112 409 L 112 409 L 282 443 L 282 443 L 288 444 L 288 444 L 288 451 L 288 451 L 288 456 L 288 456 L 288 472 L 288 472 L 288 504 L 288 504 L 288 512 L 288 512 L 280 512 L 0 512 L 0 504 L 0 504 L 0 344 L 0 344 L 0 341 L 0 341 L 3 338 L 3 338 L 132 219 L 132 219 Q 197 161 285 160 Q 354 160 412 200 L 483 248 L 483 248 L 544 248 L 544 248 L 544 184 L 544 184 Q 543 160 528 144 Q 512 129 488 128 L 376 128 L 368 128 L 368 120 L 368 120 L 368 56 L 368 56 L 368 51 L 368 51 L 373 49 L 373 49 L 410 34 L 410 34 L 425 4 L 425 4 L 427 0 L 427 0 Z M 464 48 Q 479 49 480 64 Q 479 79 464 80 Q 449 79 448 64 Q 449 49 464 48 L 464 48 Z" />
</svg>