<svg xmlns="http://www.w3.org/2000/svg" viewBox="0 0 384 448">
  <path d="M 320 0 L 304 0 L 320 0 L 304 0 L 304 48 L 304 48 L 192 48 L 192 48 L 192 64 L 192 64 L 304 64 L 304 64 L 304 194 L 304 194 Q 287 164 258 146 Q 229 128 192 128 Q 138 129 101 165 Q 65 202 64 256 Q 65 310 101 347 Q 138 383 192 384 Q 229 384 258 366 Q 287 348 304 318 L 304 384 L 304 384 L 320 384 L 320 384 L 320 256 L 320 256 L 320 64 L 320 64 L 352 64 L 352 64 L 352 48 L 352 48 L 320 48 L 320 48 L 320 0 L 320 0 Z M 80 256 Q 80 226 95 200 L 95 200 L 95 200 Q 110 174 136 159 Q 162 144 192 144 Q 222 144 248 159 Q 274 174 289 200 Q 304 226 304 256 Q 304 286 289 312 Q 274 338 248 353 Q 222 368 192 368 Q 162 368 136 353 Q 110 338 95 312 Q 80 286 80 256 L 80 256 Z M 384 448 L 384 432 L 384 448 L 384 432 L 0 432 L 0 432 L 0 448 L 0 448 L 384 448 L 384 448 Z" />
</svg>