<svg xmlns="http://www.w3.org/2000/svg" viewBox="0 0 635 508">
  <path d="M 505 90 L 473 19 L 505 90 L 473 19 L 464 0 L 464 0 L 455 19 L 455 19 L 423 90 L 423 90 L 347 71 L 347 71 L 326 66 L 326 66 L 336 85 L 336 85 L 371 155 L 371 155 L 309 202 L 309 202 L 292 215 L 292 215 L 313 219 L 313 219 L 389 235 L 389 235 L 389 284 L 389 284 L 411 315 L 411 315 L 464 271 L 464 271 L 524 321 L 524 321 L 540 335 L 540 335 L 540 313 L 540 313 L 538 235 L 538 235 L 615 219 L 615 219 L 635 215 L 635 215 L 619 202 L 619 202 L 557 155 L 557 155 L 592 85 L 592 85 L 602 66 L 602 66 L 581 71 L 581 71 L 505 90 L 505 90 Z M 572 90 L 543 148 L 572 90 L 543 148 L 537 159 L 537 159 L 547 168 L 547 168 L 598 207 L 598 207 L 535 220 L 535 220 L 522 223 L 522 223 L 523 236 L 523 236 L 524 300 L 524 300 L 474 259 L 474 259 L 464 251 L 464 251 L 454 259 L 454 259 L 404 300 L 404 300 L 406 236 L 406 236 L 406 223 L 406 223 L 393 220 L 393 220 L 330 207 L 330 207 L 381 167 L 381 167 L 391 159 L 391 159 L 385 148 L 385 148 L 356 90 L 356 90 L 419 106 L 419 106 L 432 109 L 432 109 L 437 97 L 437 97 L 464 38 L 464 38 L 491 97 L 491 97 L 496 109 L 496 109 L 509 106 L 509 106 L 572 90 L 572 90 Z M 185 178 L 242 138 L 185 178 L 242 138 L 256 129 L 256 129 L 256 112 L 256 112 L 256 32 L 256 32 L 256 16 L 256 16 L 240 16 L 192 16 L 192 32 L 192 32 L 192 95 L 192 95 L 46 198 L 46 198 L 32 207 L 32 207 L 32 224 L 32 224 L 32 352 L 32 352 L 32 368 L 32 368 L 32 384 L 32 384 L 48 384 L 96 384 L 96 368 L 96 368 L 96 352 L 96 352 L 96 272 L 96 272 L 96 242 L 96 242 L 112 267 L 112 267 L 251 481 L 251 481 L 260 495 L 260 495 L 268 508 L 268 508 L 282 499 L 282 499 L 309 482 L 309 482 L 322 473 L 322 473 L 313 460 L 313 460 L 305 447 L 305 447 L 223 320 L 223 320 L 212 304 L 212 304 L 231 304 L 289 304 L 359 389 L 359 389 L 370 401 L 370 401 L 380 413 L 380 413 L 392 403 L 392 403 L 417 382 L 417 382 L 429 372 L 429 372 L 419 360 L 419 360 L 409 348 L 409 348 L 329 252 L 329 252 L 319 240 L 319 240 L 304 240 L 225 240 L 185 178 L 185 178 Z M 312 256 L 316 262 L 312 256 L 316 262 L 396 358 L 396 358 L 407 370 L 407 370 L 382 391 L 382 391 L 372 378 L 372 378 L 301 294 L 301 294 L 297 288 L 297 288 L 289 288 L 183 288 L 199 313 L 199 313 L 291 455 L 291 455 L 300 469 L 300 469 L 273 486 L 273 486 L 264 473 L 264 473 L 109 234 L 109 234 L 100 219 L 100 219 L 80 232 L 80 232 L 80 352 L 80 352 L 80 368 L 80 368 L 48 368 L 48 368 Q 48 368 48 368 Q 48 368 48 368 Q 48 368 48 368 Q 48 368 48 368 L 48 352 L 48 352 L 48 224 L 48 224 L 48 216 L 48 216 L 55 211 L 55 211 L 80 193 L 80 193 Q 80 193 80 193 Q 80 193 80 193 L 82 192 L 82 192 Q 82 192 82 192 Q 82 192 82 192 L 201 109 L 201 109 L 208 104 L 208 104 L 208 95 L 208 95 L 208 32 L 208 32 L 240 32 L 240 32 L 240 112 L 240 112 L 240 120 L 240 120 L 233 125 L 233 125 L 176 165 L 176 165 L 163 174 L 163 174 L 172 187 L 172 187 L 212 249 L 212 249 L 217 256 L 217 256 L 225 256 L 312 256 Z M 56 48 Q 79 49 91 68 Q 101 88 91 108 Q 79 127 56 128 Q 33 127 21 108 Q 11 88 21 68 Q 33 49 56 48 L 56 48 Z M 112 88 Q 111 56 84 40 Q 56 24 28 40 Q 1 56 0 88 Q 1 120 28 136 Q 56 152 84 136 Q 111 120 112 88 L 112 88 Z" />
</svg>