<svg xmlns="http://www.w3.org/2000/svg" viewBox="0 0 630 505">
  <path d="M 319 2 L 623 162 L 319 2 L 623 162 L 630 166 L 630 166 L 622 180 L 622 180 L 615 176 L 615 176 L 315 18 L 315 18 L 15 176 L 15 176 L 8 180 L 8 180 L 0 166 L 0 166 L 7 162 L 7 162 L 311 2 L 311 2 L 315 0 L 315 0 L 319 2 L 319 2 Z M 205 169 L 211 169 L 205 169 L 425 169 L 427 175 L 427 175 L 457 281 L 457 281 L 491 281 L 507 281 L 507 297 L 507 297 L 507 425 L 507 425 L 507 441 L 507 441 L 507 489 L 507 489 L 507 505 L 507 505 L 491 505 L 427 505 L 427 489 L 427 489 L 427 441 L 427 441 L 203 441 L 203 441 L 203 489 L 203 489 L 203 505 L 203 505 L 187 505 L 123 505 L 123 489 L 123 489 L 123 441 L 123 441 L 123 425 L 123 425 L 123 297 L 123 297 L 123 281 L 123 281 L 139 281 L 173 281 L 203 175 L 203 175 L 205 169 L 205 169 Z M 139 297 L 139 425 L 139 297 L 139 425 L 187 425 L 491 425 L 491 297 L 491 297 L 139 297 L 139 297 Z M 443 489 L 491 489 L 443 489 L 491 489 L 491 441 L 491 441 L 443 441 L 443 441 L 443 489 L 443 489 Z M 187 441 L 139 441 L 187 441 L 139 441 L 139 489 L 139 489 L 187 489 L 187 489 L 187 441 L 187 441 Z M 413 185 L 217 185 L 413 185 L 217 185 L 190 281 L 190 281 L 440 281 L 440 281 L 413 185 L 413 185 Z M 187 361 Q 188 376 203 377 Q 218 376 219 361 Q 218 346 203 345 Q 188 346 187 361 L 187 361 Z M 203 393 Q 189 393 180 384 L 180 384 L 180 384 Q 171 375 171 361 Q 171 347 180 338 Q 189 329 203 329 Q 217 329 226 338 Q 235 347 235 361 Q 235 375 226 384 Q 217 393 203 393 L 203 393 Z M 427 345 Q 412 346 411 361 Q 412 376 427 377 Q 442 376 443 361 Q 442 346 427 345 L 427 345 Z M 459 361 Q 459 375 450 384 L 450 384 L 450 384 Q 441 393 427 393 Q 413 393 404 384 Q 395 375 395 361 Q 395 347 404 338 Q 413 329 427 329 Q 441 329 450 338 Q 459 347 459 361 L 459 361 Z" />
</svg>