<svg xmlns="http://www.w3.org/2000/svg" viewBox="0 0 480 480">
  <path d="M 78 82 L 17 208 L 78 82 L 17 208 L 41 347 L 41 347 L 141 444 L 141 444 L 279 463 L 279 463 L 402 398 L 402 398 L 463 272 L 463 272 L 460 253 L 460 253 Q 415 244 384 212 Q 354 180 346 134 Q 300 127 268 96 Q 236 65 227 20 L 201 17 L 201 17 L 78 82 L 78 82 Z M 198 0 L 241 6 L 198 0 L 241 6 Q 247 53 280 85 Q 312 116 360 120 Q 364 168 395 200 Q 427 233 474 239 L 480 274 L 480 274 L 414 409 L 414 409 L 282 480 L 282 480 L 134 459 L 134 459 L 26 354 L 26 354 L 0 206 L 0 206 L 66 71 L 66 71 L 198 0 L 198 0 Z M 149 347 L 133 331 L 149 347 L 133 331 L 121 320 L 121 320 L 133 309 L 133 309 L 149 293 L 149 293 L 160 281 L 160 281 L 171 293 L 171 293 L 187 309 L 187 309 L 199 320 L 199 320 L 187 331 L 187 331 L 171 347 L 171 347 L 160 359 L 160 359 L 149 347 L 149 347 Z M 165 331 L 171 325 L 165 331 L 171 325 L 176 320 L 176 320 L 171 315 L 171 315 L 165 309 L 165 309 L 160 304 L 160 304 L 155 309 L 155 309 L 149 315 L 149 315 L 144 320 L 144 320 L 149 325 L 149 325 L 155 331 L 155 331 L 160 336 L 160 336 L 165 331 L 165 331 Z M 192 199 L 181 187 L 192 199 L 181 187 L 165 171 L 165 171 L 153 160 L 153 160 L 165 149 L 165 149 L 181 133 L 181 133 L 192 121 L 192 121 L 203 133 L 203 133 L 219 149 L 219 149 L 231 160 L 231 160 L 219 171 L 219 171 L 203 187 L 203 187 L 192 199 L 192 199 Z M 203 165 L 208 160 L 203 165 L 208 160 L 203 155 L 203 155 L 197 149 L 197 149 L 192 144 L 192 144 L 187 149 L 187 149 L 181 155 L 181 155 L 176 160 L 176 160 L 181 165 L 181 165 L 187 171 L 187 171 L 192 176 L 192 176 L 197 171 L 197 171 L 203 165 L 203 165 Z M 341 315 L 325 299 L 341 315 L 325 299 L 313 288 L 313 288 L 325 277 L 325 277 L 341 261 L 341 261 L 352 249 L 352 249 L 363 261 L 363 261 L 379 277 L 379 277 L 391 288 L 391 288 L 379 299 L 379 299 L 363 315 L 363 315 L 352 327 L 352 327 L 341 315 L 341 315 Z M 357 299 L 363 293 L 357 299 L 363 293 L 368 288 L 368 288 L 363 283 L 363 283 L 357 277 L 357 277 L 352 272 L 352 272 L 347 277 L 347 277 L 341 283 L 341 283 L 336 288 L 336 288 L 341 293 L 341 293 L 347 299 L 347 299 L 352 304 L 352 304 L 357 299 L 357 299 Z" />
</svg>