<svg xmlns="http://www.w3.org/2000/svg" viewBox="0 0 512 512">
  <path d="M 16 192 Q 17 268 45 318 Q 74 367 112 368 L 355 368 L 355 368 Q 334 352 320 326 Q 289 272 288 192 Q 289 112 320 58 Q 334 32 355 16 L 112 16 L 112 16 Q 74 17 45 66 Q 17 116 16 192 L 16 192 Z M 333 66 Q 305 116 304 192 Q 305 268 333 318 Q 362 367 400 368 Q 438 367 467 318 Q 495 268 496 192 Q 495 116 467 66 Q 438 17 400 16 Q 362 17 333 66 L 333 66 Z M 496 496 L 496 292 L 496 496 L 496 292 Q 489 310 481 326 Q 466 352 445 368 Q 425 384 400 384 L 112 384 L 112 384 Q 87 384 67 368 Q 46 352 32 326 Q 1 272 0 192 Q 1 112 32 58 Q 46 32 67 16 Q 87 0 112 0 L 400 0 L 400 0 Q 425 0 445 16 Q 466 32 481 58 Q 511 112 512 192 L 512 504 L 512 504 L 512 512 L 512 512 L 504 512 L 160 512 L 160 504 L 160 504 L 160 416 L 160 416 L 176 416 L 176 416 L 176 496 L 176 496 L 496 496 L 496 496 Z M 400 264 Q 387 263 379 255 Q 372 248 368 238 Q 360 218 360 192 Q 360 166 368 146 Q 372 136 379 129 Q 387 121 400 120 Q 413 121 421 129 Q 428 136 432 146 Q 440 166 440 192 Q 440 218 432 238 Q 428 248 421 255 Q 413 263 400 264 L 400 264 Z M 424 192 Q 424 168 417 152 L 417 152 L 417 152 Q 410 137 400 136 Q 390 137 383 152 Q 376 168 376 192 Q 376 216 383 232 Q 390 247 400 248 Q 410 247 417 232 Q 424 216 424 192 L 424 192 Z M 235 136 L 230 142 L 235 136 L 230 142 L 179 192 L 179 192 L 230 242 L 230 242 L 235 248 L 235 248 L 224 259 L 224 259 L 218 254 L 218 254 L 168 203 L 168 203 L 118 254 L 118 254 L 112 259 L 112 259 L 101 248 L 101 248 L 106 242 L 106 242 L 157 192 L 157 192 L 106 142 L 106 142 L 101 136 L 101 136 L 112 125 L 112 125 L 118 130 L 118 130 L 168 181 L 168 181 L 218 130 L 218 130 L 224 125 L 224 125 L 235 136 L 235 136 Z" />
</svg>