<svg xmlns="http://www.w3.org/2000/svg" viewBox="0 0 640 512">
  <path d="M 591 109 Q 592 102 592 96 Q 591 62 569 39 Q 546 17 512 16 Q 478 17 455 39 Q 433 62 432 96 Q 432 102 433 109 L 435 118 L 435 118 L 427 124 L 427 124 Q 401 143 400 176 L 400 240 L 400 240 L 624 240 L 624 240 L 624 176 L 624 176 Q 623 143 597 124 L 589 118 L 589 118 L 591 109 L 591 109 Z M 384 176 Q 386 134 417 111 Q 416 104 416 96 Q 417 55 444 28 Q 471 1 512 0 Q 553 1 580 28 Q 607 55 608 96 Q 608 104 607 111 Q 638 134 640 176 L 640 240 L 640 240 L 640 256 L 640 256 L 624 256 L 520 256 L 520 504 L 520 504 L 520 512 L 520 512 L 504 512 L 504 512 L 504 504 L 504 504 L 504 256 L 504 256 L 400 256 L 384 256 L 384 240 L 384 240 L 384 176 L 384 176 Z M 48 208 L 48 304 L 48 208 L 48 304 L 72 304 L 336 304 L 336 208 L 336 208 L 48 208 L 48 208 Z M 72 320 L 48 320 L 72 320 L 32 320 L 32 304 L 32 304 L 32 208 L 32 208 L 32 192 L 32 192 L 48 192 L 352 192 L 352 208 L 352 208 L 352 304 L 352 304 L 352 320 L 352 320 L 336 320 L 312 320 L 312 384 L 312 384 L 336 384 L 384 384 L 384 400 L 384 400 L 376 400 L 344 400 L 344 504 L 344 504 L 344 512 L 344 512 L 328 512 L 328 512 L 328 504 L 328 504 L 328 400 L 328 400 L 304 400 L 56 400 L 56 504 L 56 504 L 56 512 L 56 512 L 40 512 L 40 512 L 40 504 L 40 504 L 40 400 L 40 400 L 8 400 L 0 400 L 0 384 L 0 384 L 8 384 L 72 384 L 72 320 L 72 320 Z M 88 320 L 88 384 L 88 320 L 88 384 L 296 384 L 296 384 L 296 320 L 296 320 L 88 320 L 88 320 Z" />
</svg>