<svg xmlns="http://www.w3.org/2000/svg" viewBox="0 0 512 512">
  <path d="M 328 8 L 328 0 L 328 8 L 328 0 L 312 0 L 312 0 L 312 8 L 312 8 L 312 56 L 312 56 L 264 56 L 256 56 L 256 72 L 256 72 L 264 72 L 312 72 L 312 120 L 312 120 L 312 128 L 312 128 L 328 128 L 328 128 L 328 120 L 328 120 L 328 72 L 328 72 L 376 72 L 384 72 L 384 56 L 384 56 L 376 56 L 328 56 L 328 8 L 328 8 Z M 242 135 Q 228 131 212 129 Q 202 128 192 128 Q 110 130 56 184 Q 2 238 0 320 Q 2 402 56 456 Q 110 510 192 512 Q 270 510 323 461 Q 334 450 343 438 Q 330 443 315 446 Q 302 448 288 448 Q 220 446 175 401 Q 130 356 128 288 Q 129 241 152 203 Q 176 166 215 146 Q 228 139 242 135 L 242 135 Z M 187 144 Q 152 168 132 206 L 132 206 L 132 206 Q 112 243 112 288 Q 114 363 164 412 Q 213 462 288 464 Q 291 464 293 464 Q 249 495 192 496 Q 117 494 68 444 Q 18 395 16 320 Q 18 247 66 197 Q 114 148 187 144 L 187 144 Z M 424 128 L 408 128 L 424 128 L 408 128 L 408 136 L 408 136 L 408 216 L 408 216 L 328 216 L 320 216 L 320 232 L 320 232 L 328 232 L 408 232 L 408 312 L 408 312 L 408 320 L 408 320 L 424 320 L 424 320 L 424 312 L 424 312 L 424 232 L 424 232 L 504 232 L 512 232 L 512 216 L 512 216 L 504 216 L 424 216 L 424 136 L 424 136 L 424 128 L 424 128 Z" />
</svg>