<svg xmlns="http://www.w3.org/2000/svg" viewBox="0 0 640 512">
  <path d="M 480 224 L 565 139 L 480 224 L 565 139 L 576 128 L 576 128 L 565 117 L 565 117 L 459 11 L 459 11 L 448 0 L 448 0 L 437 11 L 437 11 L 352 96 L 352 96 L 269 124 L 269 124 L 284 136 L 284 136 L 356 112 L 356 112 L 465 220 L 465 220 L 449 266 L 449 266 L 463 277 L 463 277 L 480 224 L 480 224 Z M 394 406 L 109 494 L 394 406 L 109 494 L 101 486 L 101 486 L 239 349 L 239 349 Q 253 360 272 360 Q 297 359 313 342 L 300 332 L 300 332 Q 289 344 272 344 Q 255 344 244 332 Q 233 321 232 304 Q 232 292 238 283 L 226 273 L 226 273 Q 216 287 216 304 Q 217 323 227 338 L 90 475 L 90 475 L 82 468 L 82 468 L 158 220 L 158 220 L 145 209 L 145 209 L 64 472 L 64 472 L 104 512 L 104 512 L 409 418 L 409 418 L 394 406 L 394 406 Z M 474 207 L 369 102 L 474 207 L 369 102 L 448 23 L 448 23 L 553 128 L 553 128 L 474 207 L 474 207 Z M 16 5 L 10 0 L 16 5 L 10 0 L 0 13 L 0 13 L 6 18 L 6 18 L 624 507 L 624 507 L 630 512 L 630 512 L 640 500 L 640 500 L 634 495 L 634 495 L 16 5 L 16 5 Z" />
</svg>