<svg xmlns="http://www.w3.org/2000/svg" viewBox="0 0 576 512">
  <path d="M 296 0 L 296 8 L 296 0 L 296 8 L 296 48 L 296 48 Q 405 53 482 119 Q 559 184 574 286 L 574 288 L 574 288 L 576 304 L 576 304 L 560 304 L 544 304 L 540 299 L 540 299 Q 517 273 480 272 Q 446 273 423 295 Q 401 318 400 352 L 384 352 L 384 352 Q 384 352 384 352 Q 384 352 384 352 L 368 352 L 368 352 Q 367 318 345 295 Q 322 273 288 272 Q 254 273 231 295 Q 209 318 208 352 L 192 352 L 192 352 Q 192 352 192 352 Q 192 352 192 352 L 176 352 L 176 352 Q 175 318 153 295 Q 130 273 96 272 Q 59 273 36 299 L 32 304 L 32 304 L 24 304 L 0 304 L 2 288 L 2 288 L 2 286 L 2 286 Q 17 184 94 119 Q 171 53 280 48 L 280 8 L 280 8 L 280 0 L 280 0 L 296 0 L 296 0 Z M 280 305 Q 284 304 288 304 Q 292 304 296 305 L 296 462 L 296 462 Q 295 483 281 497 Q 267 511 246 512 Q 212 510 199 478 L 192 459 L 192 459 L 190 451 L 190 451 L 205 446 L 205 446 L 208 453 L 208 453 L 214 473 L 214 473 Q 223 495 246 496 Q 261 496 270 486 Q 280 476 280 462 L 280 305 L 280 305 Z M 385 336 Q 392 301 418 279 L 418 279 L 418 279 Q 444 257 480 256 Q 524 257 552 288 L 558 288 L 558 288 Q 543 191 469 129 Q 395 66 288 64 Q 181 66 107 129 Q 33 191 18 288 L 25 288 L 25 288 Q 52 257 96 256 Q 132 257 158 279 Q 184 301 191 336 L 192 336 L 193 336 Q 200 301 226 279 Q 252 257 288 256 Q 324 257 350 279 Q 376 301 383 336 L 384 336 L 385 336 Z" />
</svg>