<svg xmlns="http://www.w3.org/2000/svg" viewBox="0 0 582 522">
  <path d="M 569 312 Q 568 320 566 328 L 551 322 L 551 322 L 443 283 L 443 283 Q 443 283 443 283 Q 443 283 443 283 L 428 277 L 428 277 L 230 205 L 230 205 L 215 200 L 215 200 Q 215 200 215 200 Q 215 200 215 200 L 104 159 L 104 159 L 88 154 L 88 154 Q 92 147 96 140 Q 144 62 227 31 Q 310 0 400 29 Q 400 29 401 29 Q 402 30 402 30 L 408 32 L 408 32 Q 412 33 416 35 Q 499 72 541 148 Q 582 223 569 312 L 569 312 Z M 395 44 Q 372 37 349 42 L 349 42 L 349 42 Q 327 48 310 65 Q 263 115 240 179 L 236 190 L 236 190 L 433 262 L 433 262 L 437 251 L 437 251 Q 461 187 457 119 Q 452 71 410 49 Q 404 47 399 45 Q 398 45 397 45 Q 396 44 395 44 L 395 44 Z M 332 31 Q 265 27 206 58 L 206 58 L 206 58 Q 148 88 112 145 L 220 185 L 220 185 L 225 174 L 225 174 Q 249 106 298 55 Q 313 39 332 31 L 332 31 Z M 448 268 L 554 306 L 448 268 L 554 306 Q 563 240 539 181 Q 514 121 463 81 Q 471 98 472 118 Q 477 189 452 256 L 448 268 L 448 268 Z M 8 506 L 222 506 L 8 506 L 222 506 L 224 501 L 224 501 L 309 268 L 309 268 L 324 274 L 324 274 L 239 506 L 239 506 L 568 506 L 576 506 L 576 522 L 576 522 L 568 522 L 0 522 L 0 506 L 0 506 L 8 506 L 8 506 Z" />
</svg>