<svg xmlns="http://www.w3.org/2000/svg" viewBox="0 0 640 508">
  <path d="M 336 0 L 336 10 L 336 0 L 336 10 L 336 80 L 336 80 L 470 46 L 470 46 L 480 44 L 480 44 L 480 54 L 480 54 L 480 124 L 480 124 L 480 134 L 480 134 L 480 140 L 480 140 L 480 214 L 480 214 L 480 220 L 480 220 Q 480 220 480 220 L 480 294 L 480 294 L 480 300 L 480 300 L 474 302 L 474 302 L 368 328 L 368 328 L 368 364 L 368 364 L 400 364 L 416 364 L 416 380 L 416 380 L 416 444 L 416 444 L 416 460 L 416 460 L 400 460 L 368 460 L 368 500 L 368 500 L 368 508 L 368 508 L 360 508 L 272 508 L 272 500 L 272 500 L 272 460 L 272 460 L 240 460 L 224 460 L 224 444 L 224 444 L 224 380 L 224 380 L 224 364 L 224 364 L 240 364 L 352 364 L 352 322 L 352 322 L 352 316 L 352 316 L 358 314 L 358 314 L 464 288 L 464 288 L 464 224 L 464 224 L 314 262 L 314 262 Q 314 262 314 262 Q 314 262 314 262 L 170 298 L 170 298 L 160 300 L 160 300 L 160 290 L 160 290 L 160 220 L 160 220 L 160 210 L 160 210 Q 160 210 160 210 Q 160 210 160 210 L 160 204 L 160 204 L 160 140 L 160 140 L 160 130 L 160 130 L 160 124 L 160 124 L 160 50 L 160 50 L 160 44 L 160 44 L 166 42 L 166 42 L 326 2 L 326 2 L 336 0 L 336 0 Z M 464 208 L 464 144 L 464 208 L 464 144 L 176 216 L 176 216 L 176 280 L 176 280 L 310 246 L 310 246 L 464 208 L 464 208 Z M 464 64 L 336 96 L 464 64 L 336 96 L 330 98 L 330 98 L 176 136 L 176 136 L 176 200 L 176 200 L 464 128 L 464 128 L 464 64 L 464 64 Z M 176 120 L 320 84 L 176 120 L 320 84 L 320 20 L 320 20 L 176 56 L 176 56 L 176 120 L 176 120 Z M 240 380 L 240 444 L 240 380 L 240 444 L 280 444 L 400 444 L 400 380 L 400 380 L 240 380 L 240 380 Z M 352 460 L 288 460 L 352 460 L 288 460 L 288 492 L 288 492 L 352 492 L 352 492 L 352 460 L 352 460 Z M 272 305 L 288 301 L 272 305 L 288 301 L 288 364 L 288 364 L 272 364 L 272 364 L 272 305 L 272 305 Z M 17 16 L 92 61 L 17 16 L 92 61 L 99 65 L 99 65 L 91 79 L 91 79 L 84 75 L 84 75 L 9 30 L 9 30 L 2 26 L 2 26 L 10 12 L 10 12 L 17 16 L 17 16 Z M 631 30 L 556 75 L 631 30 L 556 75 L 549 79 L 549 79 L 541 65 L 541 65 L 548 61 L 548 61 L 623 16 L 623 16 L 630 12 L 630 12 L 638 26 L 638 26 L 631 30 L 631 30 Z M 8 172 L 88 172 L 8 172 L 96 172 L 96 188 L 96 188 L 88 188 L 0 188 L 0 172 L 0 172 L 8 172 L 8 172 Z M 552 172 L 632 172 L 552 172 L 640 172 L 640 188 L 640 188 L 632 188 L 544 188 L 544 172 L 544 172 L 552 172 L 552 172 Z M 92 283 L 17 328 L 92 283 L 17 328 L 10 332 L 10 332 L 2 318 L 2 318 L 9 314 L 9 314 L 84 269 L 84 269 L 91 265 L 91 265 L 99 279 L 99 279 L 92 283 L 92 283 Z M 556 269 L 631 314 L 556 269 L 631 314 L 638 318 L 638 318 L 630 332 L 630 332 L 623 328 L 623 328 L 548 283 L 548 283 L 541 279 L 541 279 L 549 265 L 549 265 L 556 269 L 556 269 Z" />
</svg>