<svg xmlns="http://www.w3.org/2000/svg" viewBox="0 0 512 512">
  <path d="M 259.65134 152.13947 Q 259.65134 131.04279 249.10301 113.19176 L 249.10301 113.19176 Q 238.55467 95.34073 220.70364 84.7924 Q 202.0412 74.24406 181.75594 74.24406 Q 161.47069 74.24406 142.80824 84.7924 Q 124.957214 95.34073 114.408875 113.19176 Q 103.86054 131.04279 103.86054 152.13947 Q 103.86054 173.23613 114.408875 191.08716 Q 124.957214 208.93819 142.80824 219.48653 Q 161.47069 230.03487 181.75594 230.03487 Q 202.0412 230.03487 220.70364 219.48653 Q 238.55467 208.93819 249.10301 191.08716 Q 259.65134 173.23613 259.65134 152.13947 L 259.65134 152.13947 Z M 34.890648 437.75595 L 328.62125 437.75595 L 292.10776 320.91284 L 71.40412 320.91284 L 34.890648 437.75595 L 34.890648 437.75595 Z M 311.5816 294.9477 L 355.39777 437.75595 L 363.51187 463.72107 L 336.73535 463.72107 L 27.587955 463.72107 L 0 463.72107 L 8.114104 437.75595 L 51.93027 294.9477 L 311.5816 294.9477 L 311.5816 294.9477 Z M 181.75594 48.278923 Q 210.1553 48.278923 233.68622 62.0729 L 233.68622 62.0729 Q 257.2171 75.866875 271.8225 100.20919 Q 285.6165 124.551506 285.6165 152.13947 Q 285.6165 179.72742 271.8225 204.06973 Q 257.2171 228.41205 233.68622 242.20602 Q 210.1553 256 181.75594 256 Q 153.35658 256 129.82567 242.20602 Q 106.29477 228.41205 91.689384 204.06973 Q 77.8954 179.72742 77.8954 152.13947 Q 77.8954 124.551506 91.689384 100.20919 Q 106.29477 75.866875 129.82567 62.0729 Q 153.35658 48.278923 181.75594 48.278923 L 181.75594 48.278923 Z M 388.66562 159.44215 L 398.40253 168.36768 L 441.4073 211.37242 L 484.41205 168.36768 L 494.14896 159.44215 L 512 177.29318 L 503.0745 187.0301 L 460.06973 230.03487 L 503.0745 273.0396 L 512 282.77655 L 494.14896 300.62756 L 484.41205 291.70206 L 441.4073 248.69731 L 398.40253 291.70206 L 388.66562 300.62756 L 370.81458 282.77655 L 379.74008 273.0396 L 422.74484 230.03487 L 379.74008 187.0301 L 370.81458 177.29318 L 388.66562 159.44215 L 388.66562 159.44215 Z" />
</svg>