<svg xmlns="http://www.w3.org/2000/svg" viewBox="0 0 512 512">
  <path d="M 256 16 Q 191 17 136 48 L 136 48 L 136 48 Q 81 80 48 136 Q 16 193 16 256 Q 16 319 48 376 Q 81 432 136 464 Q 191 495 256 496 Q 321 495 376 464 Q 431 432 464 376 Q 496 319 496 256 Q 496 193 464 136 Q 431 80 376 48 Q 321 17 256 16 L 256 16 Z M 512 256 Q 511 326 478 384 L 478 384 L 478 384 Q 444 442 384 478 Q 323 512 256 512 Q 189 512 128 478 Q 68 442 34 384 Q 1 326 0 256 Q 1 186 34 128 Q 68 70 128 34 Q 189 0 256 0 Q 323 0 384 34 Q 444 70 478 128 Q 511 186 512 256 L 512 256 Z M 128 304 L 128 384 L 128 304 L 128 384 L 176 384 L 176 384 L 176 304 L 176 304 L 128 304 L 128 304 Z M 192 304 L 192 384 L 192 304 L 192 384 L 248 384 L 248 384 L 248 304 L 248 304 L 192 304 L 192 304 Z M 320 384 L 320 304 L 320 384 L 320 304 L 264 304 L 264 304 L 264 384 L 264 384 L 320 384 L 320 384 Z M 336 384 L 384 384 L 336 384 L 384 384 L 384 304 L 384 304 L 336 304 L 336 304 L 336 384 L 336 384 Z M 128 288 L 384 288 L 128 288 L 400 288 L 400 304 L 400 304 L 400 384 L 400 384 L 400 400 L 400 400 L 384 400 L 112 400 L 112 384 L 112 384 L 112 304 L 112 304 L 112 288 L 112 288 L 128 288 L 128 288 Z M 160 208 Q 162 193 176 192 Q 191 193 192 208 Q 191 223 176 224 Q 162 223 160 208 L 160 208 Z M 336 192 Q 351 193 352 208 Q 351 223 336 224 Q 322 223 320 208 Q 322 193 336 192 L 336 192 Z" />
</svg>