<svg xmlns="http://www.w3.org/2000/svg" viewBox="0 0 512 512">
  <path d="M 410 207 L 489 128 L 410 207 L 489 128 L 384 23 L 384 23 L 305 102 L 305 102 L 410 207 L 410 207 Z M 401 220 L 292 112 L 401 220 L 292 112 L 109 173 L 109 173 L 18 468 L 18 468 L 26 475 L 26 475 L 163 338 L 163 338 Q 152 323 152 304 Q 153 280 168 264 Q 184 249 208 248 Q 232 249 248 264 Q 263 280 264 304 Q 263 328 248 344 Q 232 359 208 360 Q 189 360 175 349 L 37 486 L 37 486 L 45 494 L 45 494 L 339 403 L 339 403 L 401 220 L 401 220 Z M 352 416 L 40 512 L 352 416 L 40 512 L 0 472 L 0 472 L 96 160 L 96 160 L 288 96 L 288 96 L 373 11 L 373 11 L 384 0 L 384 0 L 395 11 L 395 11 L 501 117 L 501 117 L 512 128 L 512 128 L 501 139 L 501 139 L 416 224 L 416 224 L 352 416 L 352 416 Z M 168 304 Q 169 327 188 339 Q 208 349 228 339 Q 247 327 248 304 Q 247 281 228 269 Q 208 259 188 269 Q 169 281 168 304 L 168 304 Z" />
</svg>