<svg xmlns="http://www.w3.org/2000/svg" viewBox="0 0 512 512">
  <path d="M 387 221 L 376 232 L 387 221 L 376 232 L 365 221 L 365 221 L 291 147 L 291 147 L 280 136 L 280 136 L 291 125 L 291 125 L 405 11 L 405 11 L 416 0 L 416 0 L 427 11 L 427 11 L 501 85 L 501 85 L 512 96 L 512 96 L 501 107 L 501 107 L 387 221 L 387 221 Z M 489 96 L 416 23 L 489 96 L 416 23 L 303 136 L 303 136 L 376 209 L 376 209 L 489 96 L 489 96 Z M 210 290 L 322 178 L 210 290 L 322 178 L 334 190 L 334 190 L 222 302 L 222 302 L 309 389 L 309 389 L 320 400 L 320 400 L 309 411 L 309 411 L 280 440 L 280 440 L 18 507 L 18 507 L 0 512 L 0 512 L 5 494 L 5 494 L 72 232 L 72 232 L 101 203 L 101 203 L 112 192 L 112 192 L 123 203 L 123 203 L 210 290 L 210 290 Z M 272 426 L 297 400 L 272 426 L 297 400 L 112 215 L 112 215 L 86 240 L 86 240 L 22 490 L 22 490 L 272 426 L 272 426 Z" />
</svg>