<svg xmlns="http://www.w3.org/2000/svg" viewBox="0 0 576 518">
  <path d="M 340 246 L 331 227 L 340 246 L 331 227 L 323 247 L 323 247 L 301 304 L 301 304 L 369 347 L 369 347 L 389 360 L 389 360 L 383 383 L 383 383 L 351 495 L 351 495 L 349 502 L 349 502 L 416 502 L 416 502 Q 416 502 416 501 L 447 294 L 447 294 L 384 294 L 364 294 L 355 276 L 355 276 L 340 246 L 340 246 Z M 448 278 L 456 278 L 448 278 L 456 278 L 456 278 L 456 278 L 464 278 L 464 278 L 464 246 L 464 246 L 448 246 L 394 246 L 390 237 L 390 237 L 350 159 L 350 159 L 348 154 L 348 154 L 342 151 L 342 151 L 262 119 L 262 119 L 259 118 L 259 118 L 256 118 L 185 118 L 181 123 L 181 123 L 133 171 L 133 171 L 121 182 L 121 182 L 144 205 L 144 205 L 155 193 L 155 193 L 194 155 L 194 155 L 199 150 L 199 150 L 205 150 L 255 150 L 248 171 L 248 171 L 217 265 L 217 265 Q 212 281 217 297 Q 223 312 237 321 L 323 375 L 323 375 L 333 381 L 333 381 L 330 393 L 330 393 L 305 482 L 305 482 L 299 502 L 299 502 L 332 502 L 332 502 L 335 490 L 335 490 L 367 378 L 367 378 L 371 367 L 371 367 L 360 360 L 360 360 L 292 318 L 292 318 L 281 311 L 281 311 L 286 298 L 286 298 L 316 221 L 316 221 L 329 188 L 329 188 L 345 220 L 345 220 L 370 269 L 370 269 L 374 278 L 374 278 L 384 278 L 448 278 Z M 464 294 L 463 294 L 464 294 L 463 294 L 432 502 L 432 502 L 560 502 L 560 502 L 560 446 L 560 446 L 560 438 L 560 438 L 576 438 L 576 438 L 576 446 L 576 446 L 576 510 L 576 510 L 576 518 L 576 518 L 568 518 L 0 518 L 0 502 L 0 502 L 8 502 L 64 502 Q 64 501 64 501 L 119 202 L 119 202 L 110 193 L 110 193 L 99 182 L 99 182 L 110 171 L 110 171 L 121 159 L 121 159 L 169 111 L 169 111 L 179 102 L 179 102 L 192 102 L 262 102 L 268 104 L 268 104 L 348 136 L 348 136 L 359 141 L 359 141 L 365 152 L 365 152 L 404 230 L 404 230 L 448 230 L 480 230 L 480 246 L 480 246 L 480 278 L 480 278 L 480 294 L 480 294 L 464 294 L 464 294 Z M 133 216 L 80 502 L 133 216 L 80 502 L 117 502 L 117 502 Q 117 502 117 502 Q 117 502 117 502 L 191 344 L 191 344 Q 196 351 203 356 L 135 502 L 135 502 L 170 502 L 170 502 L 230 373 L 230 373 L 244 382 L 244 382 L 188 502 L 188 502 L 282 502 L 282 502 L 289 477 L 289 477 L 315 388 L 315 388 L 228 335 L 228 335 Q 209 322 202 302 Q 195 282 202 260 L 228 182 L 228 182 L 233 166 L 233 166 L 216 166 L 205 166 L 167 205 L 167 205 L 155 216 L 155 216 L 144 227 L 144 227 L 133 216 L 133 216 Z M 336 86 Q 350 86 359 77 L 359 77 L 359 77 Q 368 68 368 54 Q 368 40 359 31 Q 350 22 336 22 Q 322 22 313 31 Q 304 40 304 54 Q 304 68 313 77 Q 322 86 336 86 L 336 86 Z M 288 54 Q 289 27 312 12 Q 336 0 360 12 Q 383 27 384 54 Q 383 81 360 96 Q 336 108 312 96 Q 289 81 288 54 L 288 54 Z" />
</svg>