<svg xmlns="http://www.w3.org/2000/svg" viewBox="0 0 512 512">
  <path d="M 115.2 89.6 L 115.2 122.4 L 268.8 241.6 L 268.8 89.6 L 115.2 89.6 L 115.2 89.6 Z M 76.8 92.8 L 76.8 89.6 L 76.8 51.2 L 115.2 51.2 L 268.8 51.2 L 307.2 51.2 L 307.2 89.6 L 307.2 271.2 L 420.8 360 Q 422.4 356 422.4 352 L 422.4 228.8 Q 405.6 224 395.2 211.2 Q 384 197.6 384 179.2 L 384 129.6 L 357.6 103.2 L 344 89.6 L 371.2 62.4 L 384.8 76 L 455.2 146.4 L 460.8 152 L 460.8 160 L 460.8 352 Q 460.8 369.6 451.2 383.2 L 496.8 418.4 L 512 430.4 L 488 460.8 L 472.8 448.8 L 15.2 93.6 L 0 81.6 L 23.2 51.2 L 38.4 63.2 L 76.8 92.8 L 76.8 92.8 Z M 115.2 422.4 L 268.8 422.4 L 268.8 340 L 307.2 370.4 L 307.2 422.4 L 332.8 422.4 L 332.8 460.8 L 307.2 460.8 L 268.8 460.8 L 115.2 460.8 L 76.8 460.8 L 51.2 460.8 L 51.2 422.4 L 76.8 422.4 L 76.8 188.8 L 115.2 218.4 L 115.2 422.4 L 115.2 422.4 Z" />
</svg>