<svg xmlns="http://www.w3.org/2000/svg" viewBox="0 0 384 512">
  <path d="M 16 496 L 16 16 L 16 496 L 16 16 L 208 16 L 208 16 L 208 168 L 208 168 L 208 176 L 208 176 L 216 176 L 368 176 L 368 496 L 368 496 L 16 496 L 16 496 Z M 224 23 L 361 160 L 224 23 L 361 160 L 224 160 L 224 160 L 224 23 L 224 23 Z M 224 0 L 16 0 L 224 0 L 0 0 L 0 16 L 0 16 L 0 496 L 0 496 L 0 512 L 0 512 L 16 512 L 384 512 L 384 496 L 384 496 L 384 160 L 384 160 L 224 0 L 224 0 Z M 64 64 L 64 80 L 64 64 L 64 80 L 72 80 L 160 80 L 160 64 L 160 64 L 152 64 L 64 64 Z M 64 128 L 64 144 L 64 128 L 64 144 L 72 144 L 160 144 L 160 128 L 160 128 L 152 128 L 64 128 Z M 224 432 L 224 448 L 224 432 L 224 448 L 232 448 L 320 448 L 320 432 L 320 432 L 312 432 L 224 432 Z M 304 240 L 304 336 L 304 240 L 304 336 L 80 336 L 80 336 L 80 240 L 80 240 L 304 240 L 304 240 Z M 80 224 L 64 224 L 80 224 L 64 224 L 64 240 L 64 240 L 64 336 L 64 336 L 64 352 L 64 352 L 80 352 L 320 352 L 320 336 L 320 336 L 320 240 L 320 240 L 320 224 L 320 224 L 304 224 L 80 224 Z" />
</svg>