<svg xmlns="http://www.w3.org/2000/svg" viewBox="0 0 512 448">
  <path d="M 18 224 L 137 16 L 18 224 L 137 16 L 375 16 L 375 16 L 494 224 L 494 224 L 375 432 L 375 432 L 137 432 L 137 432 L 18 224 L 18 224 Z M 128 0 L 0 224 L 128 0 L 0 224 L 128 448 L 128 448 L 384 448 L 384 448 L 512 224 L 512 224 L 384 0 L 384 0 L 128 0 L 128 0 Z M 240 112 L 272 112 L 240 112 L 272 112 L 272 144 L 272 144 L 240 144 L 240 144 L 240 112 L 240 112 Z M 224 96 L 224 112 L 224 96 L 224 112 L 224 144 L 224 144 L 224 160 L 224 160 L 240 160 L 288 160 L 288 144 L 288 144 L 288 112 L 288 112 L 288 96 L 288 96 L 272 96 L 224 96 Z M 152 216 L 144 216 L 152 216 L 144 216 L 144 232 L 144 232 L 152 232 L 368 232 L 368 216 L 368 216 L 360 216 L 152 216 Z M 272 304 L 272 336 L 272 304 L 272 336 L 240 336 L 240 336 L 240 304 L 240 304 L 272 304 L 272 304 Z M 240 288 L 224 288 L 240 288 L 224 288 L 224 304 L 224 304 L 224 336 L 224 336 L 224 352 L 224 352 L 240 352 L 288 352 L 288 336 L 288 336 L 288 304 L 288 304 L 288 288 L 288 288 L 272 288 L 240 288 Z" />
</svg>