<svg xmlns="http://www.w3.org/2000/svg" viewBox="0 0 576 512">
  <path d="M 83 11 L 72 0 L 83 11 L 72 0 L 61 11 L 61 11 L 11 61 L 11 61 L 0 72 L 0 72 L 11 83 L 11 83 L 153 225 L 153 225 L 165 214 L 165 214 L 23 72 L 23 72 L 72 23 L 72 23 L 214 165 L 214 165 L 225 153 L 225 153 L 83 11 L 83 11 Z M 304 408 Q 305 450 332 479 L 332 479 L 332 479 Q 359 508 400 512 L 400 512 L 400 512 L 408 512 L 576 512 L 576 496 L 576 496 L 576 464 L 576 464 L 576 448 L 576 448 L 560 448 L 512 448 L 512 432 L 512 432 L 512 408 L 512 408 Q 511 364 482 334 Q 452 305 408 304 Q 407 304 407 304 Q 406 304 405 304 L 387 323 L 387 323 Q 397 320 408 320 Q 445 321 470 346 Q 495 371 496 408 L 496 448 L 496 448 L 496 464 L 496 464 L 512 464 L 560 464 L 560 496 L 560 496 L 544 496 L 401 496 Q 366 492 344 468 Q 321 444 320 408 Q 320 397 323 387 L 304 405 L 304 405 Q 304 406 304 407 Q 304 407 304 408 L 304 408 Z M 36 494 L 32 512 L 36 494 L 32 512 L 50 508 L 50 508 L 192 472 L 192 472 L 533 131 L 533 131 L 544 120 L 544 120 L 533 109 L 533 109 L 435 11 L 435 11 L 424 0 L 424 0 L 413 11 L 413 11 L 72 352 L 72 352 L 36 494 L 36 494 Z M 54 490 L 86 360 L 54 490 L 86 360 L 346 101 L 346 101 L 443 198 L 443 198 L 184 458 L 184 458 L 54 490 L 54 490 Z M 521 120 L 454 187 L 521 120 L 454 187 L 357 90 L 357 90 L 424 23 L 424 23 L 521 120 L 521 120 Z" />
</svg>