<svg xmlns="http://www.w3.org/2000/svg" viewBox="0 0 512 512">
  <path d="M 501 149 L 512 160 L 501 149 L 512 160 L 501 171 L 501 171 L 171 501 L 171 501 L 160 512 L 160 512 L 149 501 L 149 501 L 11 363 L 11 363 L 0 352 L 0 352 L 11 341 L 11 341 L 341 11 L 341 11 L 352 0 L 352 0 L 363 11 L 363 11 L 501 149 L 501 149 Z M 489 160 L 352 23 L 489 160 L 352 23 L 289 86 L 289 86 L 342 138 L 342 138 L 347 144 L 347 144 L 336 155 L 336 155 L 330 150 L 330 150 L 278 97 L 278 97 L 225 150 L 225 150 L 278 202 L 278 202 L 283 208 L 283 208 L 272 219 L 272 219 L 266 214 L 266 214 L 214 161 L 214 161 L 161 214 L 161 214 L 214 266 L 214 266 L 219 272 L 219 272 L 208 283 L 208 283 L 202 278 L 202 278 L 150 225 L 150 225 L 97 278 L 97 278 L 150 330 L 150 330 L 155 336 L 155 336 L 144 347 L 144 347 L 138 342 L 138 342 L 86 289 L 86 289 L 23 352 L 23 352 L 160 489 L 160 489 L 489 160 L 489 160 Z" />
</svg>