<svg xmlns="http://www.w3.org/2000/svg" viewBox="0 0 640 512">
  <path d="M 32 32 L 32 384 L 32 32 L 32 384 L 70 384 L 70 384 Q 80 356 104 338 Q 128 321 160 320 Q 192 321 216 338 Q 240 356 251 384 L 384 384 L 384 384 L 384 32 L 384 32 L 32 32 L 32 32 Z M 64 416 L 32 416 L 64 416 L 0 416 L 0 384 L 0 384 L 0 32 L 0 32 L 0 0 L 0 0 L 32 0 L 416 0 L 416 32 L 416 32 L 416 96 L 416 96 L 496 96 L 503 96 L 508 102 L 508 102 L 604 214 L 604 214 L 608 218 L 608 218 L 608 224 L 608 224 L 608 384 L 608 384 L 624 384 L 640 384 L 640 416 L 640 416 L 624 416 L 576 416 Q 575 457 548 484 Q 521 511 480 512 Q 439 511 412 484 Q 385 457 384 416 L 256 416 L 256 416 Q 255 457 228 484 Q 201 511 160 512 Q 119 511 92 484 Q 65 457 64 416 L 64 416 Z M 571 224 L 489 128 L 571 224 L 489 128 L 416 128 L 416 128 L 416 224 L 416 224 L 571 224 L 571 224 Z M 416 256 L 416 344 L 416 256 L 416 344 Q 442 321 480 320 Q 512 321 536 338 Q 560 356 571 384 L 576 384 L 576 384 L 576 256 L 576 256 L 416 256 L 416 256 Z M 224 416 Q 223 380 192 361 Q 160 343 128 361 Q 97 380 96 416 Q 97 452 128 471 Q 160 489 192 471 Q 223 452 224 416 L 224 416 Z M 480 480 Q 516 479 535 448 Q 553 416 535 384 Q 516 353 480 352 Q 444 353 425 384 Q 407 416 425 448 Q 444 479 480 480 L 480 480 Z M 320 112 L 320 128 L 320 112 L 320 128 L 320 224 L 320 224 L 320 256 L 320 256 L 320 304 L 320 304 L 320 320 L 320 320 L 288 320 L 288 320 L 288 304 L 288 304 L 288 256 L 288 256 L 256 256 L 224 256 L 224 224 L 224 224 L 224 160 L 224 160 Q 225 128 242 104 Q 260 80 288 70 Q 303 64 320 64 L 320 96 L 320 96 L 320 112 L 320 112 Z M 288 224 L 288 128 L 288 224 L 288 128 L 288 112 L 288 112 L 288 105 L 288 105 Q 258 123 256 160 L 256 224 L 256 224 L 288 224 L 288 224 Z M 160 206 L 160 208 L 160 206 L 160 208 L 160 272 L 160 272 L 160 288 L 160 288 L 128 288 L 128 288 L 128 272 L 128 272 L 128 206 L 128 206 Q 104 200 89 180 Q 75 161 76 135 L 80 79 L 80 79 L 81 63 L 81 63 L 113 65 L 113 65 L 112 81 L 112 81 L 108 137 L 108 137 Q 107 153 118 164 Q 128 176 144 176 Q 160 176 170 164 Q 181 153 180 137 L 176 81 L 176 81 L 175 65 L 175 65 L 207 63 L 207 63 L 208 79 L 208 79 L 212 135 L 212 135 Q 213 161 199 180 Q 184 200 160 206 L 160 206 Z M 160 80 L 160 128 L 160 80 L 160 128 L 160 144 L 160 144 L 128 144 L 128 144 L 128 128 L 128 128 L 128 80 L 128 80 L 128 64 L 128 64 L 160 64 L 160 64 L 160 80 L 160 80 Z" />
</svg>