<svg xmlns="http://www.w3.org/2000/svg" viewBox="0 0 512 512">
  <path d="M 359.5235 162.90909 Q 360.32602 121.17868 386.80878 92.2884 L 386.80878 92.2884 Q 412.489 63.39812 453.41693 57.780563 Q 433.35422 50.557995 410.884 50.557995 Q 356.31348 52.16301 320.20062 88.27586 Q 284.08777 124.38872 282.48276 178.95924 Q 282.48276 192.60188 285.69278 206.2445 Q 317.7931 211.05956 341.06583 233.52979 Q 364.33856 256 370.7586 288.90283 Q 387.6113 295.32288 401.2539 307.3605 Q 406.06897 307.3605 410.884 307.3605 Q 442.18182 307.3605 467.86206 293.71786 Q 494.34482 280.87775 512 258.40753 Q 491.1348 268.84012 465.45456 268.84012 Q 420.5141 268.03763 390.82132 237.54231 Q 361.12854 207.84953 359.5235 162.90909 L 359.5235 162.90909 Z M 268.84012 268.84012 Q 285.69278 269.64264 296.1254 280.07523 L 296.1254 280.07523 Q 307.3605 291.31033 307.3605 307.3605 L 307.3605 326.6207 L 307.3605 345.8809 L 326.6207 345.8809 L 333.04074 345.8809 Q 349.8934 346.68338 360.32602 357.116 Q 371.56113 368.3511 371.56113 384.40125 L 371.56113 422.92163 L 345.8809 422.92163 L 320.20062 422.92163 L 320.20062 422.92163 L 211.05956 422.92163 L 211.05956 422.92163 L 140.43887 422.92163 L 140.43887 422.92163 L 121.17868 422.92163 L 114.75862 422.92163 L 89.07837 422.92163 L 89.07837 397.2414 Q 89.880875 386.00626 97.10345 378.7837 Q 104.32602 371.56113 114.75862 371.56113 L 121.17868 371.56113 L 140.43887 371.56113 L 140.43887 352.30093 L 140.43887 320.20062 Q 141.24138 308.9655 148.46394 301.74295 Q 155.68652 294.5204 166.11913 294.5204 Q 177.35423 294.5204 184.5768 301.74295 Q 191.79938 308.9655 191.79938 319.39813 L 230.31975 318.5956 L 230.31975 307.3605 Q 231.12225 291.31033 241.55486 280.07523 Q 252.78996 269.64264 268.84012 268.84012 L 268.84012 268.84012 Z M 101.918495 461.44202 L 101.918495 461.44202 L 121.17868 461.44202 L 211.05956 461.44202 L 211.05956 461.44202 L 326.6207 461.44202 L 345.8809 461.44202 L 371.56113 461.44202 L 371.56113 461.44202 L 390.82132 461.44202 L 410.0815 461.44202 L 410.0815 442.18182 L 410.0815 384.40125 Q 410.0815 355.511 391.6238 334.64578 Q 373.96866 313.78058 345.8809 308.163 L 345.8809 307.3605 Q 345.07837 274.45767 323.41064 252.78996 Q 301.74295 231.12225 268.84012 230.31975 Q 247.97491 230.31975 230.31975 240.75235 Q 213.46709 250.38245 203.03448 267.2351 Q 186.98433 256 166.11913 256 Q 138.83386 256.80252 121.17868 274.45767 Q 102.721 292.91537 101.918495 320.20062 L 101.918495 334.64578 Q 79.44827 339.46082 65.80564 356.31348 Q 51.3605 373.16614 50.557995 397.2414 L 50.557995 442.18182 L 50.557995 461.44202 L 69.818184 461.44202 L 101.918495 461.44202 L 101.918495 461.44202 Z M 186.98433 191.79938 L 205.442 191.79938 Q 217.47963 193.40439 218.28214 204.6395 L 218.28214 218.28214 Q 235.9373 208.65204 256.80252 205.442 L 256.80252 204.6395 Q 256 182.97179 241.55486 168.52664 Q 227.10971 154.0815 205.442 153.27899 L 186.98433 153.27899 Q 179.76175 136.42633 163.7116 125.99373 Q 148.46394 115.56113 128.40126 114.75862 Q 104.32602 115.56113 87.47335 130.00627 Q 70.62069 143.6489 65.80564 166.11913 L 57.780563 166.11913 Q 32.90282 166.92163 16.852665 182.97179 Q 0.8025078 199.82445 0 223.89969 L 0 243.15988 L 0 281.68024 L 38.520374 281.68024 L 57.780563 281.68024 L 57.780563 281.68024 L 85.86834 281.68024 Q 97.10345 257.605 120.376175 243.15988 L 96.30094 243.15988 L 96.30094 243.15988 L 57.780563 243.15988 L 38.520374 243.15988 L 38.520374 223.89969 Q 40.125393 206.2445 57.780563 204.6395 L 65.80564 204.6395 L 97.10345 204.6395 L 103.52351 174.1442 Q 108.338554 154.88402 128.40126 153.27899 Q 145.25392 154.0815 151.67398 168.52664 L 162.10658 191.79938 L 186.98433 191.79938 L 186.98433 191.79938 Z" />
</svg>