<svg xmlns="http://www.w3.org/2000/svg" viewBox="0 0 488 512">
  <path d="M 104 16 Q 131 17 146 40 Q 158 64 146 88 Q 131 111 104 112 Q 77 111 62 88 Q 50 64 62 40 Q 77 17 104 16 L 104 16 Z M 104 128 Q 140 127 159 96 Q 177 64 159 32 Q 140 1 104 0 Q 68 1 49 32 Q 31 64 49 96 Q 68 127 104 128 L 104 128 Z M 23 176 L 185 176 L 23 176 L 185 176 L 191 336 L 191 336 L 168 336 L 17 336 L 23 176 L 23 176 Z M 96 352 L 112 352 L 96 352 L 112 352 L 112 504 L 112 504 L 112 512 L 112 512 L 120 512 L 176 512 L 176 504 L 176 504 L 176 352 L 176 352 L 192 352 L 208 352 L 207 336 L 207 336 L 200 160 L 200 160 L 8 160 L 8 160 L 1 336 L 1 336 L 0 352 L 0 352 L 16 352 L 32 352 L 32 504 L 32 504 L 32 512 L 32 512 L 40 512 L 96 512 L 96 504 L 96 504 L 96 352 L 96 352 Z M 160 496 L 128 496 L 160 496 L 128 496 L 128 352 L 128 352 L 160 352 L 160 352 L 160 496 L 160 496 Z M 80 352 L 80 496 L 80 352 L 80 496 L 48 496 L 48 496 L 48 352 L 48 352 L 80 352 L 80 352 Z M 360 16 Q 387 17 402 40 Q 414 64 402 88 Q 387 111 360 112 Q 333 111 318 88 Q 306 64 318 40 Q 333 17 360 16 L 360 16 Z M 360 128 Q 396 127 415 96 Q 433 64 415 32 Q 396 1 360 0 Q 324 1 305 32 Q 287 64 305 96 Q 324 127 360 128 L 360 128 Z M 308 176 L 412 176 L 308 176 L 412 176 L 467 368 L 467 368 L 424 368 L 253 368 L 308 176 L 308 176 Z M 352 384 L 368 384 L 352 384 L 368 384 L 368 504 L 368 504 L 368 512 L 368 512 L 376 512 L 432 512 L 432 504 L 432 504 L 432 384 L 432 384 L 471 384 L 488 384 L 483 368 L 483 368 L 424 160 L 424 160 L 296 160 L 296 160 L 237 368 L 237 368 L 232 384 L 232 384 L 249 384 L 288 384 L 288 504 L 288 504 L 288 512 L 288 512 L 296 512 L 352 512 L 352 504 L 352 504 L 352 384 L 352 384 Z M 416 496 L 384 496 L 416 496 L 384 496 L 384 384 L 384 384 L 416 384 L 416 384 L 416 496 L 416 496 Z M 336 384 L 336 496 L 336 384 L 336 496 L 304 496 L 304 496 L 304 384 L 304 384 L 336 384 L 336 384 Z" />
</svg>