<svg xmlns="http://www.w3.org/2000/svg" viewBox="0 0 352 96">
  <path d="M 16 80 L 80 80 L 16 80 L 80 80 L 80 16 L 80 16 L 16 16 L 16 16 L 16 80 L 16 80 Z M 0 96 L 0 80 L 0 96 L 0 80 L 0 16 L 0 16 L 0 0 L 0 0 L 16 0 L 96 0 L 96 16 L 96 16 L 96 80 L 96 80 L 96 96 L 96 96 L 80 96 L 0 96 Z M 144 16 L 144 80 L 144 16 L 144 80 L 208 80 L 208 80 L 208 16 L 208 16 L 144 16 L 144 16 Z M 128 80 L 128 16 L 128 80 L 128 16 L 128 0 L 128 0 L 144 0 L 224 0 L 224 16 L 224 16 L 224 80 L 224 80 L 224 96 L 224 96 L 208 96 L 128 96 L 128 80 L 128 80 Z M 272 16 L 272 80 L 272 16 L 272 80 L 336 80 L 336 80 L 336 16 L 336 16 L 272 16 L 272 16 Z M 256 80 L 256 16 L 256 80 L 256 16 L 256 0 L 256 0 L 272 0 L 352 0 L 352 16 L 352 16 L 352 80 L 352 80 L 352 96 L 352 96 L 336 96 L 256 96 L 256 80 L 256 80 Z" />
</svg>