<svg xmlns="http://www.w3.org/2000/svg" viewBox="0 0 640 192">
  <path d="M 128 176 L 128 16 L 128 176 L 128 16 L 624 16 L 624 16 L 624 176 L 624 176 L 128 176 L 128 176 Z M 112 176 L 16 176 L 112 176 L 16 176 L 16 16 L 16 16 L 112 16 L 112 16 L 112 176 L 112 176 Z M 120 0 L 112 0 L 120 0 L 0 0 L 0 16 L 0 16 L 0 176 L 0 176 L 0 192 L 0 192 L 16 192 L 640 192 L 640 176 L 640 176 L 640 16 L 640 16 L 640 0 L 640 0 L 624 0 L 120 0 Z M 304 96 Q 305 81 320 80 Q 335 81 336 96 Q 335 111 320 112 Q 305 111 304 96 L 304 96 Z M 352 96 Q 352 82 343 73 L 343 73 L 343 73 Q 334 64 320 64 Q 306 64 297 73 Q 288 82 288 96 Q 288 110 297 119 Q 306 128 320 128 Q 334 128 343 119 Q 352 110 352 96 L 352 96 Z M 416 80 Q 431 81 432 96 Q 431 111 416 112 Q 401 111 400 96 Q 401 81 416 80 L 416 80 Z M 416 128 Q 430 128 439 119 L 439 119 L 439 119 Q 448 110 448 96 Q 448 82 439 73 Q 430 64 416 64 Q 402 64 393 73 Q 384 82 384 96 Q 384 110 393 119 Q 402 128 416 128 L 416 128 Z M 496 96 Q 497 81 512 80 Q 527 81 528 96 Q 527 111 512 112 Q 497 111 496 96 L 496 96 Z M 544 96 Q 544 82 535 73 L 535 73 L 535 73 Q 526 64 512 64 Q 498 64 489 73 Q 480 82 480 96 Q 480 110 489 119 Q 498 128 512 128 Q 526 128 535 119 Q 544 110 544 96 L 544 96 Z" />
</svg>