<svg xmlns="http://www.w3.org/2000/svg" viewBox="0 0 408 448">
  <path d="M 0 144 Q 2 83 42 42 L 42 42 L 42 42 Q 83 2 144 0 L 216 0 L 408 0 L 408 16 L 408 16 L 400 16 L 336 16 L 336 440 L 336 440 L 336 448 L 336 448 L 320 448 L 320 448 L 320 440 L 320 440 L 320 16 L 320 16 L 240 16 L 240 16 L 240 272 L 240 272 L 240 288 L 240 288 L 240 440 L 240 440 L 240 448 L 240 448 L 224 448 L 224 448 L 224 440 L 224 440 L 224 288 L 224 288 L 144 288 L 144 288 Q 83 286 42 246 Q 2 205 0 144 L 0 144 Z M 224 272 L 224 16 L 224 272 L 224 16 L 216 16 L 144 16 Q 90 17 53 53 Q 17 90 16 144 Q 17 198 53 235 Q 90 271 144 272 L 224 272 L 224 272 Z" />
</svg>