<svg xmlns="http://www.w3.org/2000/svg" viewBox="0 0 512 448">
  <path d="M 176 40 Q 177 67 195 85 L 195 85 L 195 85 Q 213 103 240 104 L 240 80 L 240 80 Q 239 53 221 35 Q 203 17 176 16 L 176 40 L 176 40 Z M 160 0 L 176 0 L 160 0 L 176 0 Q 210 1 233 23 Q 255 46 256 80 L 256 104 L 256 104 L 256 120 L 256 120 L 240 120 L 240 120 Q 206 119 183 97 Q 161 74 160 40 L 160 16 L 160 16 L 160 0 L 160 0 Z M 176 216 L 176 240 L 176 216 L 176 240 Q 203 239 221 221 Q 239 203 240 176 L 240 152 L 240 152 Q 213 153 195 171 Q 177 189 176 216 L 176 216 Z M 160 256 L 160 240 L 160 256 L 160 240 L 160 216 L 160 216 Q 161 182 183 159 Q 206 137 240 136 L 256 136 L 256 136 L 256 152 L 256 152 L 256 176 L 256 176 Q 255 210 233 233 Q 210 255 176 256 L 160 256 L 160 256 Z M 288 16 L 288 40 L 288 16 L 288 40 Q 289 67 307 85 Q 325 103 352 104 L 352 80 L 352 80 Q 351 53 333 35 Q 315 17 288 16 L 288 16 Z M 288 0 Q 322 1 345 23 L 345 23 L 345 23 Q 367 46 368 80 L 368 104 L 368 104 L 368 120 L 368 120 L 352 120 L 352 120 Q 318 119 295 97 Q 273 74 272 40 L 272 16 L 272 16 L 272 0 L 272 0 L 288 0 L 288 0 Z M 288 216 L 288 240 L 288 216 L 288 240 Q 315 239 333 221 Q 351 203 352 176 L 352 152 L 352 152 Q 325 153 307 171 Q 289 189 288 216 L 288 216 Z M 272 256 L 272 240 L 272 256 L 272 240 L 272 216 L 272 216 Q 273 182 295 159 Q 318 137 352 136 L 368 136 L 368 136 L 368 152 L 368 152 L 368 176 L 368 176 Q 367 210 345 233 Q 322 255 288 256 L 272 256 L 272 256 Z M 400 16 L 400 40 L 400 16 L 400 40 Q 401 67 419 85 Q 437 103 464 104 L 464 80 L 464 80 Q 463 53 445 35 Q 427 17 400 16 L 400 16 Z M 400 0 Q 434 1 457 23 L 457 23 L 457 23 Q 479 46 480 80 L 480 104 L 480 104 L 480 120 L 480 120 L 464 120 L 464 120 Q 430 119 407 97 Q 385 74 384 40 L 384 16 L 384 16 L 384 0 L 384 0 L 400 0 L 400 0 Z M 400 216 L 400 240 L 400 216 L 400 240 Q 427 239 445 221 Q 463 203 464 176 L 464 152 L 464 152 Q 437 153 419 171 Q 401 189 400 216 L 400 216 Z M 384 256 L 384 240 L 384 256 L 384 240 L 384 216 L 384 216 Q 385 182 407 159 Q 430 137 464 136 L 480 136 L 480 136 L 480 152 L 480 152 L 480 176 L 480 176 Q 479 210 457 233 Q 434 255 400 256 L 384 256 L 384 256 Z M 0 120 L 8 120 L 0 120 L 160 120 L 160 136 L 160 136 L 152 136 L 0 136 L 0 120 L 0 120 Z M 40 48 L 120 48 L 40 48 L 128 48 L 128 64 L 128 64 L 120 64 L 32 64 L 32 48 L 32 48 L 40 48 L 40 48 Z M 32 192 L 40 192 L 32 192 L 128 192 L 128 208 L 128 208 L 120 208 L 32 208 L 32 192 L 32 192 Z M 112 412 L 112 432 L 112 412 L 112 432 L 400 432 L 400 432 L 400 412 L 400 412 L 400 400 L 400 400 L 412 397 L 412 397 Q 445 388 467 363 Q 490 338 495 304 L 416 304 L 17 304 Q 22 338 45 363 Q 67 388 100 397 L 112 400 L 112 400 L 112 412 L 112 412 Z M 96 412 Q 58 402 32 373 L 32 373 L 32 373 Q 6 344 1 304 Q 0 296 0 288 L 16 288 L 512 288 Q 512 296 511 304 Q 506 344 480 373 Q 454 402 416 412 L 416 432 L 416 432 L 416 448 L 416 448 L 400 448 L 96 448 L 96 432 L 96 432 L 96 412 L 96 412 Z" />
</svg>