<svg xmlns="http://www.w3.org/2000/svg" viewBox="0 0 634 509">
  <path d="M 450 11 L 427 34 L 450 11 L 427 34 L 416 45 L 416 45 L 427 56 L 427 56 L 438 68 L 438 68 L 566 196 L 566 196 L 578 207 L 578 207 L 589 218 L 589 218 L 600 207 L 600 207 L 623 184 L 623 184 L 634 173 L 634 173 L 623 162 L 623 162 L 612 150 L 612 150 L 484 22 L 484 22 L 472 11 L 472 11 L 461 0 L 461 0 L 450 11 L 450 11 Z M 438 45 L 461 22 L 438 45 L 461 22 L 472 34 L 472 34 L 600 162 L 600 162 L 612 173 L 612 173 L 589 196 L 589 196 L 578 184 L 578 184 L 450 56 L 450 56 L 438 45 L 438 45 Z M 410 85 L 328 167 L 410 85 L 328 167 L 327 167 L 327 167 L 327 167 L 327 167 L 279 215 L 279 215 L 278 217 L 278 217 L 277 219 L 277 219 L 246 377 L 246 377 Q 246 377 246 377 L 131 492 L 131 492 L 125 498 L 125 498 L 137 509 L 137 509 L 142 503 L 142 503 L 149 496 L 149 496 Q 149 496 149 496 Q 149 496 149 496 L 155 491 L 155 491 L 257 388 L 257 388 L 415 357 L 415 357 L 417 356 L 417 356 L 419 355 L 419 355 L 549 224 L 549 224 L 538 213 L 538 213 L 461 290 L 461 290 L 344 173 L 344 173 L 421 96 L 421 96 L 410 85 L 410 85 Z M 292 225 L 333 184 L 292 225 L 333 184 L 450 301 L 450 301 L 409 342 L 409 342 L 263 371 L 263 371 L 292 225 L 292 225 Z M 184 11 L 173 0 L 184 11 L 173 0 L 162 11 L 162 11 L 150 22 L 150 22 L 22 150 L 22 150 L 11 162 L 11 162 L 0 173 L 0 173 L 11 184 L 11 184 L 34 207 L 34 207 L 45 218 L 45 218 L 56 207 L 56 207 L 68 196 L 68 196 L 196 68 L 196 68 L 207 56 L 207 56 L 218 45 L 218 45 L 207 34 L 207 34 L 184 11 L 184 11 Z M 196 45 L 184 56 L 196 45 L 184 56 L 56 184 L 56 184 L 45 196 L 45 196 L 22 173 L 22 173 L 34 162 L 34 162 L 162 34 L 162 34 L 173 22 L 173 22 L 196 45 L 196 45 Z M 294 155 L 224 85 L 294 155 L 224 85 L 213 96 L 213 96 L 283 166 L 283 166 L 294 155 L 294 155 Z M 221 338 L 96 213 L 221 338 L 96 213 L 85 224 L 85 224 L 215 355 L 215 355 L 217 356 L 217 356 Q 217 356 217 356 Q 217 356 217 356 L 221 338 L 221 338 Z M 384 396 L 479 491 L 384 396 L 479 491 L 485 496 L 485 496 Q 485 496 485 496 Q 485 496 485 496 L 492 503 L 492 503 L 498 509 L 498 509 L 509 498 L 509 498 L 503 492 L 503 492 L 403 392 L 403 392 L 384 396 L 384 396 Z" />
</svg>