<svg xmlns="http://www.w3.org/2000/svg" viewBox="0 0 492 512">
  <path d="M 406 0 L 406 8 L 406 0 L 406 8 L 406 36 L 406 36 Q 406 98 434 154 L 439 164 L 439 164 Q 439 164 439 164 Q 439 164 439 164 Q 453 188 465 220 Q 476 251 476 289 Q 476 325 458 366 Q 440 406 395 448 L 97 448 L 97 448 Q 52 406 34 366 Q 16 325 16 289 Q 16 251 27 220 Q 39 188 53 164 Q 53 164 53 164 L 58 154 L 58 154 Q 86 98 86 36 L 86 8 L 86 8 L 86 0 L 86 0 L 70 0 L 70 0 L 70 8 L 70 8 L 70 36 L 70 36 Q 70 94 44 147 L 39 156 L 39 156 Q 24 181 12 215 Q 0 248 0 289 Q 0 329 19 372 Q 39 416 86 460 L 86 512 L 86 512 L 102 512 L 102 512 L 102 464 L 102 464 L 190 464 L 190 464 L 190 512 L 190 512 L 206 512 L 206 512 L 206 464 L 206 464 L 286 464 L 286 464 L 286 512 L 286 512 L 302 512 L 302 512 L 302 464 L 302 464 L 390 464 L 390 464 L 390 512 L 390 512 L 406 512 L 406 512 L 406 460 L 406 460 Q 453 416 473 372 Q 492 329 492 289 Q 492 248 480 215 Q 468 181 453 156 L 448 147 L 448 147 Q 422 94 422 36 L 422 8 L 422 8 L 422 0 L 422 0 L 406 0 L 406 0 Z M 254 96 L 238 96 L 254 96 L 238 96 L 238 104 L 238 104 L 238 264 L 238 264 L 238 272 L 238 272 L 254 272 L 254 272 L 254 264 L 254 264 L 254 104 L 254 104 L 254 96 L 254 96 Z M 230 304 L 230 336 L 230 304 L 230 336 L 262 336 L 262 336 L 262 304 L 262 304 L 230 304 L 230 304 Z" />
</svg>