<svg xmlns="http://www.w3.org/2000/svg" viewBox="0 0 511 511">
  <path d="M 208 16 Q 260 16 304 42 L 304 42 L 304 42 Q 348 67 374 112 Q 400 157 400 208 Q 400 259 374 304 Q 348 349 304 374 Q 260 400 208 400 Q 156 400 112 374 Q 68 349 42 304 Q 16 259 16 208 Q 16 157 42 112 Q 68 67 112 42 Q 156 16 208 16 L 208 16 Z M 208 416 Q 292 414 349 361 L 500 511 L 500 511 L 511 500 L 511 500 L 361 349 L 361 349 Q 414 292 416 208 Q 414 120 355 61 Q 296 2 208 0 Q 120 2 61 61 Q 2 120 0 208 Q 2 296 61 355 Q 120 414 208 416 L 208 416 Z M 288 94 L 278 96 L 288 94 L 278 96 L 214 112 L 214 112 L 208 114 L 208 114 L 208 120 L 208 120 L 208 184 L 208 184 L 208 238 L 208 238 Q 192 225 168 224 Q 144 225 128 238 Q 113 252 112 272 Q 113 292 128 306 Q 144 319 168 320 Q 192 319 208 306 Q 223 292 224 272 L 224 190 L 224 190 L 282 176 L 282 176 L 288 174 L 288 174 L 288 168 L 288 168 L 288 104 L 288 104 L 288 94 L 288 94 Z M 168 240 Q 187 241 197 250 L 197 250 L 197 250 Q 208 260 208 272 Q 208 284 197 294 Q 187 303 168 304 Q 149 303 139 294 Q 128 284 128 272 Q 128 260 139 250 Q 149 241 168 240 L 168 240 Z M 224 174 L 224 126 L 224 174 L 224 126 L 272 114 L 272 114 L 272 162 L 272 162 L 224 174 L 224 174 Z" />
</svg>