<svg xmlns="http://www.w3.org/2000/svg" viewBox="0 0 448 512">
  <path d="M 16 46 Q 16 89 31 128 L 336 128 L 336 128 Q 336 125 336 123 Q 337 90 360 66 L 400 25 L 400 25 L 400 16 L 400 16 L 16 16 L 16 16 L 16 46 L 16 46 Z M 37 144 Q 68 212 134 252 L 195 288 L 195 288 L 428 288 L 428 288 Q 422 264 408 245 L 352 171 L 352 171 Q 343 158 339 144 L 37 144 L 37 144 Z M 431 304 L 222 304 L 431 304 L 222 304 L 251 321 L 251 321 Q 284 341 302 375 Q 320 414 314 456 L 311 473 L 311 473 L 386 413 L 386 413 Q 431 376 432 318 Q 432 311 431 304 L 431 304 Z M 0 46 L 0 16 L 0 46 L 0 16 L 0 0 L 0 0 L 16 0 L 416 0 L 416 16 L 416 16 L 416 32 L 416 32 L 371 77 L 371 77 Q 352 96 352 123 Q 352 144 365 161 L 420 235 L 420 235 Q 448 272 448 318 Q 447 383 396 425 L 307 497 L 307 497 L 288 512 L 288 512 L 292 488 L 292 488 L 298 453 L 298 453 Q 304 416 287 383 Q 272 352 243 335 L 126 266 L 126 266 Q 67 231 34 173 Q 1 115 0 46 L 0 46 Z" />
</svg>