<svg xmlns="http://www.w3.org/2000/svg" viewBox="0 0 448 512">
  <path d="M 0 56 Q 1 32 16 16 L 16 16 L 16 16 Q 32 1 56 0 L 440 0 L 448 0 L 448 8 L 448 8 L 448 408 L 448 408 L 448 416 L 448 416 L 440 416 L 416 416 L 416 496 L 416 496 L 440 496 L 448 496 L 448 512 L 448 512 L 440 512 L 56 512 Q 32 511 16 496 Q 1 480 0 456 L 0 56 L 0 56 Z M 56 416 Q 39 416 28 428 L 28 428 L 28 428 Q 16 439 16 456 Q 16 473 28 484 Q 39 496 56 496 L 400 496 L 400 496 L 400 416 L 400 416 L 56 416 L 56 416 Z M 16 417 Q 32 401 56 400 L 432 400 L 432 400 L 432 16 L 432 16 L 56 16 L 56 16 Q 39 16 28 28 Q 16 39 16 56 L 16 417 L 16 417 Z M 232 129 L 240 137 L 232 129 L 240 137 L 248 129 L 248 129 Q 266 112 290 112 L 293 112 L 293 112 Q 318 113 335 129 Q 351 146 352 171 Q 352 196 334 214 L 251 294 L 251 294 L 240 304 L 240 304 L 229 293 L 229 293 L 146 214 L 146 214 Q 128 196 128 171 Q 129 146 145 129 Q 162 113 187 112 L 189 112 L 189 112 Q 214 112 232 129 L 232 129 Z M 229 148 L 221 141 L 229 148 L 221 141 Q 208 128 190 128 L 187 128 L 187 128 Q 169 128 157 141 Q 144 153 144 171 Q 144 189 157 202 L 240 282 L 240 282 L 323 202 L 323 202 Q 336 189 336 171 Q 336 153 323 141 Q 311 128 293 128 L 290 128 L 290 128 Q 272 128 259 141 L 251 148 L 251 148 L 240 159 L 240 159 L 229 148 L 229 148 Z" />
</svg>