<svg xmlns="http://www.w3.org/2000/svg" viewBox="0 0 512 512">
  <path d="M 160 416 L 144 416 L 160 416 L 0 416 L 0 400 L 0 400 L 0 16 L 0 16 L 0 0 L 0 0 L 16 0 L 512 0 L 512 16 L 512 16 L 512 400 L 512 400 L 512 416 L 512 416 L 496 416 L 304 416 L 176 501 L 176 501 L 160 512 L 160 512 L 160 493 L 160 493 L 160 432 L 160 432 L 160 416 L 160 416 Z M 160 400 L 176 400 L 160 400 L 176 400 L 176 416 L 176 416 L 176 482 L 176 482 L 295 403 L 295 403 L 299 400 L 299 400 L 304 400 L 496 400 L 496 16 L 496 16 L 16 16 L 16 16 L 16 400 L 16 400 L 160 400 L 160 400 Z M 264 296 L 264 304 L 264 296 L 264 304 L 248 304 L 248 304 L 248 296 L 248 296 L 248 123 L 248 123 L 174 198 L 174 198 L 168 203 L 168 203 L 157 192 L 157 192 L 162 186 L 162 186 L 250 98 L 250 98 L 256 93 L 256 93 L 262 98 L 262 98 L 350 186 L 350 186 L 356 192 L 356 192 L 344 203 L 344 203 L 338 198 L 338 198 L 264 123 L 264 123 L 264 296 L 264 296 Z" />
</svg>