<svg xmlns="http://www.w3.org/2000/svg" viewBox="0 0 512 448">
  <path d="M 0 0 L 8 0 L 0 0 L 480 0 L 474 16 L 474 16 L 421 148 L 421 148 Q 462 174 487 217 Q 511 260 512 312 Q 511 352 493 383 Q 476 413 459 431 Q 441 448 440 448 L 136 448 L 136 448 Q 135 448 117 431 Q 100 413 83 383 Q 65 352 64 312 Q 65 260 89 217 Q 113 175 155 149 L 97 19 L 97 19 Q 97 17 96 16 Q 96 16 96 16 L 16 16 L 16 16 L 16 184 L 16 184 L 16 192 L 16 192 L 0 192 L 0 192 L 0 184 L 0 184 L 0 8 L 0 8 L 0 0 L 0 0 Z M 170 144 L 405 144 L 170 144 L 405 144 L 456 16 L 456 16 L 128 16 L 114 16 L 170 144 L 170 144 Z M 416 160 L 160 160 L 416 160 L 160 160 Q 160 160 160 160 Q 160 160 160 160 L 167 160 L 167 160 Q 103 198 85 272 L 491 272 L 491 272 Q 473 198 409 160 L 416 160 L 416 160 Q 416 160 416 160 Q 416 160 416 160 L 416 160 Z M 494 288 L 82 288 L 494 288 L 82 288 Q 80 300 80 312 Q 80 339 90 361 Q 100 383 113 400 Q 126 417 136 427 Q 139 430 141 432 Q 142 432 142 432 L 434 432 L 434 432 Q 436 431 438 429 Q 439 428 440 427 Q 450 417 463 400 Q 476 383 486 361 Q 496 339 496 312 Q 496 300 494 288 L 494 288 Z" />
</svg>