<svg xmlns="http://www.w3.org/2000/svg" viewBox="0 0 512 512">
  <path d="M 161.65836 71.73896 Q 161.65836 57.980804 152.81381 49.136276 L 152.81381 49.136276 Q 143.96928 40.291748 130.21114 40.291748 Q 116.45297 40.291748 107.608444 49.136276 Q 98.763916 57.980804 98.763916 71.73896 Q 98.763916 85.49712 107.608444 94.34165 Q 116.45297 103.18618 130.21114 103.18618 Q 143.96928 103.18618 152.81381 94.34165 Q 161.65836 85.49712 161.65836 71.73896 L 161.65836 71.73896 Z M 67.316696 71.73896 Q 68.29942 36.360844 98.763916 17.68906 Q 130.21114 0 161.65836 17.68906 Q 192.12283 36.360844 193.10556 71.73896 Q 192.12283 107.11708 161.65836 125.788864 Q 130.21114 143.47792 98.763916 125.788864 Q 68.29942 107.11708 67.316696 71.73896 L 67.316696 71.73896 Z M 45.696735 354.76392 L 214.72552 354.76392 L 169.52016 197.52783 L 90.902115 197.52783 L 45.696735 354.76392 L 45.696735 354.76392 Z M 67.316696 166.08061 L 193.10556 166.08061 L 247.15547 354.76392 L 256 386.21112 L 223.57005 386.21112 L 193.10556 386.21112 L 193.10556 496.2764 L 193.10556 512 L 161.65836 512 L 161.65836 496.2764 L 161.65836 386.21112 L 98.763916 386.21112 L 98.763916 496.2764 L 98.763916 512 L 67.316696 512 L 67.316696 496.2764 L 67.316696 386.21112 L 36.852207 386.21112 L 4.422265 386.21112 L 13.266794 354.76392 L 67.316696 166.08061 L 67.316696 166.08061 Z M 256 386.21112 L 264.84454 354.76392 L 318.89444 166.08061 L 444.6833 166.08061 L 498.73322 354.76392 L 507.57773 386.21112 L 475.1478 386.21112 L 444.6833 386.21112 L 444.6833 496.2764 L 444.6833 512 L 413.23608 512 L 413.23608 496.2764 L 413.23608 386.21112 L 350.34164 386.21112 L 350.34164 496.2764 L 350.34164 512 L 318.89444 512 L 318.89444 496.2764 L 318.89444 386.21112 L 288.42993 386.21112 L 256 386.21112 L 256 386.21112 Z M 413.23608 71.73896 Q 413.23608 57.980804 404.39154 49.136276 L 404.39154 49.136276 Q 395.54703 40.291748 381.78888 40.291748 Q 368.0307 40.291748 359.1862 49.136276 Q 350.34164 57.980804 350.34164 71.73896 Q 350.34164 85.49712 359.1862 94.34165 Q 368.0307 103.18618 381.78888 103.18618 Q 395.54703 103.18618 404.39154 94.34165 Q 413.23608 85.49712 413.23608 71.73896 L 413.23608 71.73896 Z M 318.89444 71.73896 Q 319.87717 36.360844 350.34164 17.68906 Q 381.78888 0 413.23608 17.68906 Q 443.70056 36.360844 444.6833 71.73896 Q 443.70056 107.11708 413.23608 125.788864 Q 381.78888 143.47792 350.34164 125.788864 Q 319.87717 107.11708 318.89444 71.73896 L 318.89444 71.73896 Z M 297.27448 354.76392 L 466.30325 354.76392 L 421.0979 197.52783 L 342.47986 197.52783 L 297.27448 354.76392 L 297.27448 354.76392 Z" />
</svg>