<svg xmlns="http://www.w3.org/2000/svg" viewBox="0 0 640 512">
  <path d="M 240 16 L 240 240 L 240 16 L 240 240 L 16 240 L 16 240 L 16 16 L 16 16 L 240 16 L 240 16 Z M 16 0 L 0 0 L 16 0 L 0 0 L 0 16 L 0 16 L 0 240 L 0 240 L 0 256 L 0 256 L 16 256 L 256 256 L 256 240 L 256 240 L 256 16 L 256 16 L 256 0 L 256 0 L 240 0 L 16 0 Z M 624 272 L 624 496 L 624 272 L 624 496 L 400 496 L 400 496 L 400 272 L 400 272 L 624 272 L 624 272 Z M 400 256 L 384 256 L 400 256 L 384 256 L 384 272 L 384 272 L 384 496 L 384 496 L 384 512 L 384 512 L 400 512 L 640 512 L 640 496 L 640 496 L 640 272 L 640 272 L 640 256 L 640 256 L 624 256 L 400 256 Z M 160 288 L 160 400 L 160 288 L 160 400 L 160 416 L 160 416 L 176 416 L 352 416 L 352 400 L 352 400 L 176 400 L 176 400 L 176 288 L 176 288 L 160 288 L 160 288 Z M 480 112 L 480 96 L 480 112 L 480 96 L 464 96 L 288 96 L 288 112 L 288 112 L 464 112 L 464 112 L 464 224 L 464 224 L 480 224 L 480 224 L 480 112 L 480 112 Z M 416 176 L 416 160 L 416 176 L 416 160 L 400 160 L 288 160 L 288 176 L 288 176 L 400 176 L 400 176 L 400 224 L 400 224 L 416 224 L 416 224 L 416 176 L 416 176 Z M 240 336 L 240 288 L 240 336 L 240 288 L 224 288 L 224 288 L 224 336 L 224 336 L 224 352 L 224 352 L 240 352 L 352 352 L 352 336 L 352 336 L 240 336 L 240 336 Z" />
</svg>