<svg xmlns="http://www.w3.org/2000/svg" viewBox="0 0 352 512">
  <path d="M 336 176 Q 335 228 308 267 Q 302 275 296 283 Q 295 285 293 287 Q 292 288 292 289 Q 273 314 257 342 Q 246 362 243 384 L 259 384 L 259 384 Q 262 366 271 350 Q 286 323 305 298 Q 305 298 305 298 Q 305 298 305 298 Q 305 298 305 298 Q 305 298 305 298 Q 305 298 305 298 Q 305 298 305 298 Q 305 298 305 298 Q 313 287 321 276 Q 351 233 352 176 Q 350 101 300 52 Q 251 2 176 0 Q 101 2 52 52 Q 2 101 0 176 Q 1 233 31 276 Q 39 287 47 297 Q 47 298 47 298 Q 47 298 47 298 Q 47 298 47 298 Q 47 298 47 298 Q 47 298 47 298 Q 47 298 47 298 Q 47 298 47 298 Q 66 323 81 349 Q 90 366 93 384 L 109 384 L 109 384 Q 106 362 95 342 Q 79 313 59 287 Q 59 287 59 287 Q 59 287 59 287 Q 59 287 59 287 Q 59 287 59 287 Q 57 285 56 283 Q 50 275 45 267 Q 17 228 16 176 Q 18 108 63 63 Q 108 18 176 16 Q 244 18 289 63 Q 334 108 336 176 L 336 176 Z M 112 432 L 240 432 L 112 432 L 240 432 L 240 496 L 240 496 L 112 496 L 112 496 L 112 432 L 112 432 Z M 96 432 L 96 496 L 96 432 L 96 496 L 96 512 L 96 512 L 112 512 L 256 512 L 256 496 L 256 496 L 256 432 L 256 432 L 256 416 L 256 416 L 240 416 L 96 416 L 96 432 L 96 432 Z M 184 96 L 168 96 L 184 96 L 168 96 L 168 104 L 168 104 L 168 264 L 168 264 L 168 272 L 168 272 L 184 272 L 184 272 L 184 264 L 184 264 L 184 104 L 184 104 L 184 96 L 184 96 Z M 160 336 L 192 336 L 160 336 L 192 336 L 192 304 L 192 304 L 160 304 L 160 304 L 160 336 L 160 336 Z" />
</svg>