<svg xmlns="http://www.w3.org/2000/svg" viewBox="0 0 464 512">
  <path d="M 240 0 L 240 8 L 240 0 L 240 8 L 240 80 L 240 80 L 392 80 L 400 80 L 400 96 L 400 96 L 392 96 L 240 96 L 240 176 L 240 176 L 456 176 L 464 176 L 464 192 L 464 192 L 456 192 L 240 192 L 240 272 L 240 272 L 360 272 L 368 272 L 368 288 L 368 288 L 360 288 L 240 288 L 240 366 L 240 366 L 344 336 L 344 336 L 408 336 L 424 336 L 424 352 L 424 352 L 424 440 L 424 440 L 360 512 L 360 512 L 104 512 L 104 512 L 40 440 L 40 440 L 40 352 L 40 352 L 40 336 L 40 336 L 56 336 L 120 336 L 224 366 L 224 366 L 224 288 L 224 288 L 104 288 L 96 288 L 96 272 L 96 272 L 104 272 L 224 272 L 224 192 L 224 192 L 8 192 L 0 192 L 0 176 L 0 176 L 8 176 L 224 176 L 224 96 L 224 96 L 72 96 L 64 96 L 64 80 L 64 80 L 72 80 L 224 80 L 224 8 L 224 8 L 224 0 L 224 0 L 240 0 L 240 0 Z M 346 352 L 236 383 L 346 352 L 236 383 L 232 385 L 232 385 L 228 383 L 228 383 L 118 352 L 118 352 L 56 352 L 56 352 L 56 434 L 56 434 L 111 496 L 111 496 L 353 496 L 353 496 L 408 434 L 408 434 L 408 352 L 408 352 L 346 352 L 346 352 Z M 144 432 Q 145 447 160 448 Q 175 447 176 432 Q 175 417 160 416 Q 145 417 144 432 L 144 432 Z M 160 464 Q 146 464 137 455 L 137 455 L 137 455 Q 128 446 128 432 Q 128 418 137 409 Q 146 400 160 400 Q 174 400 183 409 Q 192 418 192 432 Q 192 446 183 455 Q 174 464 160 464 L 160 464 Z M 296 432 Q 297 447 312 448 Q 327 447 328 432 Q 327 417 312 416 Q 297 417 296 432 L 296 432 Z M 312 464 Q 298 464 289 455 L 289 455 L 289 455 Q 280 446 280 432 Q 280 418 289 409 Q 298 400 312 400 Q 326 400 335 409 Q 344 418 344 432 Q 344 446 335 455 Q 326 464 312 464 L 312 464 Z" />
</svg>