<svg xmlns="http://www.w3.org/2000/svg" viewBox="0 0 512 512">
  <path d="M 160 416 L 144 416 L 160 416 L 0 416 L 0 400 L 0 400 L 0 16 L 0 16 L 0 0 L 0 0 L 16 0 L 512 0 L 512 16 L 512 16 L 512 400 L 512 400 L 512 416 L 512 416 L 496 416 L 304 416 L 176 501 L 176 501 L 160 512 L 160 512 L 160 493 L 160 493 L 160 432 L 160 432 L 160 416 L 160 416 Z M 160 400 L 176 400 L 160 400 L 176 400 L 176 416 L 176 416 L 176 482 L 176 482 L 295 403 L 295 403 L 299 400 L 299 400 L 304 400 L 496 400 L 496 16 L 496 16 L 16 16 L 16 16 L 16 400 L 16 400 L 160 400 L 160 400 Z M 224 88 L 288 88 L 224 88 L 296 88 L 296 96 L 296 96 L 296 160 L 296 160 L 360 160 L 368 160 L 368 168 L 368 168 L 368 232 L 368 232 L 368 240 L 368 240 L 360 240 L 296 240 L 296 304 L 296 304 L 296 312 L 296 312 L 288 312 L 216 312 L 216 304 L 216 304 L 216 240 L 216 240 L 152 240 L 144 240 L 144 232 L 144 232 L 144 168 L 144 168 L 144 160 L 144 160 L 152 160 L 216 160 L 216 96 L 216 96 L 216 88 L 216 88 L 224 88 L 224 88 Z M 232 168 L 232 176 L 232 168 L 232 176 L 224 176 L 160 176 L 160 224 L 160 224 L 224 224 L 232 224 L 232 232 L 232 232 L 232 296 L 232 296 L 280 296 L 280 296 L 280 232 L 280 232 L 280 224 L 280 224 L 288 224 L 352 224 L 352 176 L 352 176 L 288 176 L 280 176 L 280 168 L 280 168 L 280 104 L 280 104 L 232 104 L 232 104 L 232 168 L 232 168 Z" />
</svg>