<svg xmlns="http://www.w3.org/2000/svg" viewBox="0 0 633 512">
  <path d="M 320 3 L 316 0 L 320 3 L 316 0 L 312 3 L 312 3 L 0 211 L 0 211 L 9 224 L 9 224 L 316 19 L 316 19 L 624 224 L 624 224 L 633 211 L 633 211 L 321 3 L 320 3 Z M 492 272 Q 514 274 516 296 Q 514 318 492 320 Q 470 318 468 296 Q 470 274 492 272 L 492 272 Z M 492 336 Q 515 335 527 316 Q 537 296 527 276 Q 515 257 492 256 Q 469 257 457 276 Q 447 296 457 316 Q 469 335 492 336 L 492 336 Z M 575 489 L 579 496 L 575 489 L 579 496 L 587 510 L 587 510 L 601 502 L 601 502 L 615 494 L 615 494 L 629 486 L 629 486 L 621 472 L 621 472 L 617 465 L 617 465 L 561 364 L 561 364 L 554 352 L 554 352 L 540 352 L 430 352 L 423 364 L 423 364 L 367 465 L 367 465 L 363 472 L 363 472 L 355 486 L 355 486 L 369 494 L 369 494 L 383 502 L 383 502 L 397 509 L 397 509 L 405 495 L 405 495 L 409 488 L 409 488 L 420 469 L 420 469 L 436 440 L 436 440 L 436 473 L 436 473 L 436 496 L 436 496 L 436 512 L 436 512 L 452 512 L 548 512 L 548 496 L 548 496 L 548 473 L 548 473 L 548 440 L 548 440 L 564 469 L 564 469 L 575 488 L 575 489 Z M 532 440 L 532 496 L 532 440 L 532 496 L 452 496 L 452 496 L 452 440 L 452 440 L 452 400 L 452 400 L 440 400 L 440 400 L 422 432 L 422 432 L 395 481 L 395 481 L 391 488 L 391 488 L 377 480 L 377 480 L 381 473 L 381 473 L 437 372 L 437 372 L 439 368 L 439 368 L 444 368 L 545 368 L 547 372 L 547 372 L 603 473 L 603 473 L 607 480 L 607 480 L 593 488 L 593 488 L 589 481 L 589 481 L 562 432 L 562 432 L 544 400 L 544 400 L 532 400 L 532 400 L 532 440 L 532 440 Z M 116 296 Q 118 274 140 272 Q 162 274 164 296 Q 162 318 140 320 Q 118 318 116 296 L 116 296 Z M 180 296 Q 179 273 160 261 Q 140 251 120 261 Q 101 273 100 296 Q 101 319 120 331 Q 140 341 160 331 Q 179 319 180 296 L 180 296 Z M 212 469 L 223 488 L 212 469 L 223 488 L 227 495 L 227 495 L 235 509 L 235 509 L 249 502 L 249 502 L 263 494 L 263 494 L 277 486 L 277 486 L 269 472 L 269 472 L 265 465 L 265 465 L 209 364 L 209 364 L 202 352 L 202 352 L 188 352 L 78 352 L 71 364 L 71 364 L 15 465 L 15 465 L 11 472 L 11 472 L 3 486 L 3 486 L 17 494 L 17 494 L 31 502 L 31 502 L 45 509 L 45 509 L 53 495 L 53 495 L 57 488 L 57 488 L 68 469 L 68 469 L 84 440 L 84 440 L 84 473 L 84 473 L 84 496 L 84 496 L 84 512 L 84 512 L 100 512 L 196 512 L 196 496 L 196 496 L 196 473 L 196 473 L 196 440 L 196 440 L 212 469 L 212 469 Z M 180 496 L 100 496 L 180 496 L 100 496 L 100 440 L 100 440 L 100 400 L 100 400 L 88 400 L 88 400 L 70 432 L 70 432 L 43 481 L 43 481 L 39 488 L 39 488 L 25 480 L 25 480 L 29 473 L 29 473 L 85 372 L 85 372 L 87 368 L 87 368 L 92 368 L 193 368 L 195 372 L 195 372 L 251 473 L 251 473 L 255 480 L 255 480 L 241 488 L 241 488 L 237 481 L 237 481 L 210 432 L 210 432 L 192 400 L 192 400 L 180 400 L 180 400 L 180 440 L 180 440 L 180 496 L 180 496 Z M 316 160 Q 338 162 340 184 Q 338 206 316 208 Q 294 206 292 184 Q 294 162 316 160 L 316 160 Z M 316 224 Q 339 223 351 204 Q 361 184 351 164 Q 339 145 316 144 Q 293 145 281 164 Q 271 184 281 204 Q 293 223 316 224 L 316 224 Z M 385 252 L 378 240 L 385 252 L 378 240 L 364 240 L 254 240 L 247 252 L 247 252 L 209 320 L 209 320 L 221 320 L 221 320 L 224 326 L 224 326 L 261 260 L 261 260 L 263 256 L 263 256 L 268 256 L 369 256 L 371 260 L 371 260 L 408 326 L 408 326 L 411 320 L 411 320 L 423 320 L 423 320 L 385 252 L 385 252 Z M 386 320 L 368 288 L 386 320 L 368 288 L 356 288 L 356 288 L 356 328 L 356 328 L 356 384 L 356 384 Q 356 384 356 384 Q 356 384 356 384 Q 356 384 356 384 Q 356 384 356 384 L 356 400 L 356 400 Q 356 400 356 400 Q 356 400 356 400 L 367 400 L 372 400 L 372 390 L 372 390 Q 372 390 372 390 Q 372 390 372 390 L 372 384 L 372 384 L 372 361 L 372 361 L 372 328 L 372 328 L 388 357 L 388 357 L 389 359 L 389 359 L 399 343 L 399 343 L 386 320 L 386 320 Z M 276 384 L 276 328 L 276 384 L 276 328 L 276 288 L 276 288 L 264 288 L 264 288 L 246 320 L 246 320 L 234 343 L 234 343 L 243 359 L 243 359 L 244 357 L 244 357 L 260 328 L 260 328 L 260 361 L 260 361 L 260 384 L 260 384 Q 260 384 260 384 Q 260 384 260 384 L 260 400 L 260 400 L 265 400 L 276 400 Q 276 400 276 400 Q 276 400 276 400 L 276 384 L 276 384 Q 276 384 276 384 Q 276 384 276 384 L 276 384 Z" />
</svg>