<svg xmlns="http://www.w3.org/2000/svg" viewBox="0 0 512 512">
  <path d="M 160 432 L 160 416 L 160 432 L 160 416 L 144 416 L 0 416 L 0 400 L 0 400 L 0 16 L 0 16 L 0 0 L 0 0 L 16 0 L 512 0 L 512 16 L 512 16 L 512 400 L 512 400 L 512 416 L 512 416 L 496 416 L 304 416 L 176 501 L 176 501 L 160 512 L 160 512 L 160 493 L 160 493 L 160 432 L 160 432 Z M 160 400 L 176 400 L 160 400 L 176 400 L 176 416 L 176 416 L 176 482 L 176 482 L 295 403 L 295 403 L 299 400 L 299 400 L 304 400 L 496 400 L 496 16 L 496 16 L 16 16 L 16 16 L 16 400 L 16 400 L 160 400 L 160 400 Z M 88 128 Q 89 105 108 93 Q 128 83 148 93 Q 167 105 168 128 Q 167 151 148 163 Q 128 173 108 163 Q 89 151 88 128 L 88 128 Z M 128 152 Q 150 150 152 128 Q 150 106 128 104 Q 106 106 104 128 Q 106 150 128 152 L 128 152 Z M 296 123 L 302 131 L 296 123 L 302 131 L 422 291 L 422 291 L 424 293 L 424 293 L 424 296 L 424 296 L 424 312 L 424 312 L 424 320 L 424 320 L 416 320 L 88 320 L 88 312 L 88 312 L 88 296 L 88 296 L 88 293 L 88 293 L 90 291 L 90 291 L 162 211 L 162 211 L 168 204 L 168 204 L 174 210 L 174 210 L 200 236 L 200 236 L 290 131 L 290 131 L 297 123 L 296 123 Z M 296 149 L 206 253 L 296 149 L 206 253 L 201 260 L 201 260 L 194 254 L 194 254 L 168 228 L 168 228 L 104 299 L 104 299 L 104 304 L 104 304 L 408 304 L 408 304 L 408 299 L 408 299 L 296 149 L 296 149 Z" />
</svg>