<svg xmlns="http://www.w3.org/2000/svg" viewBox="0 0 608 496">
  <path d="M 16 103 L 96 23 L 16 103 L 96 23 L 176 103 L 176 103 L 176 120 L 176 120 L 16 120 L 16 120 L 16 103 L 16 103 Z M 85 11 L 0 96 L 85 11 L 0 96 L 0 120 L 0 120 L 0 136 L 0 136 L 16 136 L 88 136 L 88 464 L 88 464 L 88 472 L 88 472 L 96 472 L 312 472 L 312 464 L 312 464 L 312 40 L 312 40 L 504 40 L 504 40 L 504 360 L 504 360 L 432 360 L 416 360 L 416 376 L 416 376 L 416 400 L 416 400 L 501 485 L 501 485 L 512 496 L 512 496 L 523 485 L 523 485 L 608 400 L 608 400 L 608 376 L 608 376 L 608 360 L 608 360 L 592 360 L 520 360 L 520 32 L 520 32 L 520 24 L 520 24 L 512 24 L 296 24 L 296 32 L 296 32 L 296 456 L 296 456 L 104 456 L 104 456 L 104 136 L 104 136 L 176 136 L 192 136 L 192 120 L 192 120 L 192 96 L 192 96 L 107 11 L 107 11 L 96 0 L 96 0 L 85 11 L 85 11 Z M 432 393 L 432 376 L 432 393 L 432 376 L 592 376 L 592 376 L 592 393 L 592 393 L 512 473 L 512 473 L 432 393 L 432 393 Z" />
</svg>