<svg xmlns="http://www.w3.org/2000/svg" viewBox="0 0 618 489">
  <path d="M 281 373 L 294 321 L 281 373 L 294 321 L 309 328 L 309 328 L 300 363 L 300 363 L 382 322 L 382 322 L 394 316 L 394 316 L 402 327 L 402 327 L 457 399 L 457 399 L 476 310 L 476 310 L 479 297 L 479 297 L 492 297 L 492 297 L 583 298 L 583 298 L 525 228 L 525 228 L 517 218 L 517 218 L 525 208 L 525 208 L 583 137 L 583 137 L 492 139 L 492 139 L 479 139 L 479 139 L 476 126 L 476 126 L 457 37 L 457 37 L 416 90 L 416 90 L 402 83 L 402 83 L 453 16 L 453 16 L 466 0 L 466 0 L 470 20 L 470 20 L 492 123 L 492 123 L 597 121 L 597 121 L 618 121 L 618 121 L 604 137 L 604 137 L 537 218 L 537 218 L 604 299 L 604 299 L 618 315 L 618 315 L 597 315 L 597 315 L 492 313 L 492 313 L 470 416 L 470 416 L 466 436 L 466 436 L 453 420 L 453 420 L 389 336 L 389 336 L 295 384 L 295 384 L 276 393 L 276 393 L 282 373 L 281 373 Z M 22 131 L 313 277 L 22 131 L 313 277 L 387 129 L 387 129 L 180 26 L 180 26 L 74 26 L 74 26 L 22 131 L 22 131 Z M 14 145 L 0 138 L 14 145 L 0 138 L 7 124 L 7 124 L 64 10 L 64 10 L 184 10 L 184 10 L 394 115 L 394 115 L 408 122 L 408 122 L 401 136 L 401 136 L 327 284 L 327 284 L 320 298 L 320 298 L 306 291 L 306 291 L 14 145 L 14 145 Z M 109 228 L 123 236 L 109 228 L 123 236 L 22 439 L 22 439 L 79 468 L 79 468 L 181 264 L 181 264 L 195 271 L 195 271 L 93 475 L 93 475 L 86 489 L 86 489 L 72 482 L 72 482 L 14 454 L 14 454 L 0 447 L 0 447 L 7 432 L 7 432 L 109 228 L 109 228 Z" />
</svg>