<svg xmlns="http://www.w3.org/2000/svg" viewBox="0 0 608 512">
  <path d="M 48 160 L 0 160 L 48 160 L 0 160 L 0 120 L 0 120 L 8 112 L 8 112 L 79 35 L 79 35 L 112 0 L 112 0 L 145 35 L 145 35 L 217 112 L 217 112 L 224 120 L 224 120 L 224 160 L 224 160 L 176 160 L 136 160 L 136 432 L 136 432 L 280 432 L 280 432 L 280 56 L 280 56 L 280 32 L 280 32 L 304 32 L 520 32 L 520 56 L 520 56 L 520 212 L 520 212 L 520 352 L 520 352 L 560 352 L 608 352 L 608 392 L 608 392 L 601 400 L 601 400 L 529 477 L 529 477 L 496 512 L 496 512 L 463 477 L 463 477 L 392 400 L 392 400 L 384 392 L 384 392 L 384 352 L 384 352 L 432 352 L 472 352 L 472 212 L 472 212 L 472 80 L 472 80 L 328 80 L 328 80 L 328 456 L 328 456 L 328 480 L 328 480 L 304 480 L 88 480 L 88 456 L 88 456 L 88 160 L 88 160 L 48 160 L 48 160 Z M 151 112 L 112 70 L 151 112 L 112 70 L 73 112 L 73 112 L 151 112 L 151 112 Z M 535 400 L 457 400 L 535 400 L 457 400 L 496 442 L 496 442 L 535 400 L 535 400 Z" />
</svg>