<svg xmlns="http://www.w3.org/2000/svg" viewBox="0 0 512 448">
  <path d="M 11 213 L 0 224 L 11 213 L 0 224 L 11 235 L 11 235 L 139 363 L 139 363 L 151 375 L 151 375 L 173 352 L 173 352 L 162 341 L 162 341 L 61 240 L 61 240 L 336 240 L 352 240 L 352 208 L 352 208 L 336 208 L 61 208 L 162 107 L 162 107 L 173 96 L 173 96 L 151 73 L 151 73 L 139 85 L 139 85 L 11 213 L 11 213 Z M 336 416 L 320 416 L 336 416 L 320 416 L 320 448 L 320 448 L 336 448 L 512 448 L 512 432 L 512 432 L 512 16 L 512 16 L 512 0 L 512 0 L 496 0 L 320 0 L 320 32 L 320 32 L 336 32 L 480 32 L 480 416 L 480 416 L 336 416 L 336 416 Z" />
</svg>