<svg xmlns="http://www.w3.org/2000/svg" viewBox="0 0 448 384">
  <path d="M 16 376 L 16 384 L 16 376 L 16 384 L 0 384 L 0 384 L 0 376 L 0 376 L 0 8 L 0 8 L 0 0 L 0 0 L 16 0 L 16 0 L 16 8 L 16 8 L 16 376 L 16 376 Z M 288 256 L 288 272 L 288 256 L 288 272 L 288 336 L 288 336 L 288 352 L 288 352 L 272 352 L 256 352 L 107 203 L 107 203 L 96 192 L 96 192 L 107 181 L 107 181 L 256 32 L 256 32 L 272 32 L 288 32 L 288 48 L 288 48 L 288 112 L 288 112 L 288 128 L 288 128 L 304 128 L 448 128 L 448 144 L 448 144 L 448 240 L 448 240 L 448 256 L 448 256 L 432 256 L 288 256 Z M 272 256 L 272 240 L 272 256 L 272 240 L 288 240 L 432 240 L 432 144 L 432 144 L 288 144 L 272 144 L 272 128 L 272 128 L 272 48 L 272 48 L 263 48 L 263 48 L 119 192 L 119 192 L 263 336 L 263 336 L 272 336 L 272 336 L 272 256 L 272 256 Z" />
</svg>