<svg xmlns="http://www.w3.org/2000/svg" viewBox="0 0 512 512">
  <path d="M 231 336 L 336 336 L 231 336 L 336 336 Q 344 336 353 335 Q 336 307 336 272 Q 337 218 373 181 Q 410 145 464 144 Q 479 144 494 147 Q 482 90 439 54 Q 396 17 336 16 Q 268 18 223 63 Q 178 108 176 176 L 176 281 L 176 281 L 231 336 L 231 336 Z M 336 0 Q 404 1 452 44 L 452 44 L 452 44 Q 500 87 511 153 Q 512 162 512 171 Q 504 167 496 165 Q 481 160 464 160 Q 416 161 385 193 Q 353 224 352 272 Q 353 306 370 332 Q 375 340 380 346 Q 372 349 363 350 Q 350 352 336 352 L 227 352 L 227 352 L 175 404 L 175 404 Q 191 422 192 448 Q 191 475 173 493 Q 155 511 128 512 Q 101 511 83 493 Q 65 475 64 448 Q 37 447 19 429 Q 1 411 0 384 Q 1 357 19 339 Q 37 321 64 320 Q 90 321 108 337 L 160 285 L 160 285 L 160 176 L 160 176 Q 162 101 212 52 Q 261 2 336 0 L 336 0 Z M 168 296 Q 168 296 168 296 L 168 296 L 168 296 Q 168 296 168 296 L 170 298 L 170 298 L 113 354 L 113 354 L 107 361 L 107 361 L 101 354 L 101 354 Q 87 337 64 336 Q 44 337 30 350 Q 17 364 16 384 Q 17 404 30 418 Q 44 431 64 432 Q 68 432 71 431 L 82 430 L 82 430 L 81 440 L 81 440 Q 80 444 80 448 Q 80 468 94 482 Q 108 495 128 496 Q 148 495 162 482 Q 175 468 176 448 Q 175 425 158 411 L 151 405 L 151 405 L 158 399 L 158 399 L 214 342 L 214 342 L 216 344 L 216 344 Q 216 344 216 344 Q 216 344 216 344 L 168 296 L 168 296 Z M 280 232 Q 280 232 280 232 L 280 232 L 280 232 Q 280 232 280 232 Q 280 232 280 232 Q 280 232 280 232 Q 280 232 280 232 Q 280 232 280 232 L 280 232 Z" />
</svg>