<svg xmlns="http://www.w3.org/2000/svg" viewBox="0 0 400 512">
  <path d="M 272 0 L 400 0 L 272 0 L 400 0 L 400 128 L 400 128 L 368 160 L 368 160 L 321 113 L 321 113 L 295 139 L 295 139 Q 319 176 320 224 Q 319 285 281 329 Q 243 372 184 382 L 184 384 L 184 384 L 184 408 L 184 408 L 208 408 L 232 408 L 232 456 L 232 456 L 208 456 L 184 456 L 184 488 L 184 488 L 184 512 L 184 512 L 136 512 L 136 512 L 136 488 L 136 488 L 136 456 L 136 456 L 112 456 L 88 456 L 88 408 L 88 408 L 112 408 L 136 408 L 136 384 L 136 384 L 136 382 L 136 382 Q 77 372 39 329 Q 1 285 0 224 Q 2 156 47 111 Q 92 66 160 64 Q 221 65 264 102 L 287 79 L 287 79 L 240 32 L 240 32 L 272 0 L 272 0 Z M 256 224 Q 256 198 243 176 L 243 176 L 243 176 Q 230 154 208 141 Q 185 128 160 128 Q 135 128 112 141 Q 90 154 77 176 Q 64 198 64 224 Q 64 250 77 272 Q 90 294 112 307 Q 135 320 160 320 Q 185 320 208 307 Q 230 294 243 272 Q 256 250 256 224 L 256 224 Z" />
</svg>