<svg xmlns="http://www.w3.org/2000/svg" viewBox="0 0 502 448">
  <path d="M 385 10 L 497 122 L 385 10 L 497 122 L 502 128 L 502 128 L 491 139 L 491 139 L 485 134 L 485 134 L 387 35 L 387 35 L 387 440 L 387 440 L 387 448 L 387 448 L 371 448 L 371 448 L 371 440 L 371 440 L 371 35 L 371 35 L 273 134 L 273 134 L 267 139 L 267 139 L 256 128 L 256 128 L 261 122 L 261 122 L 373 10 L 373 10 L 379 5 L 379 5 L 385 10 L 385 10 Z M 129 438 L 123 443 L 129 438 L 123 443 L 117 438 L 117 438 L 5 326 L 5 326 L 0 320 L 0 320 L 11 309 L 11 309 L 17 314 L 17 314 L 115 413 L 115 413 L 115 8 L 115 8 L 115 0 L 115 0 L 131 0 L 131 0 L 131 8 L 131 8 L 131 413 L 131 413 L 229 314 L 229 314 L 235 309 L 235 309 L 246 320 L 246 320 L 241 326 L 241 326 L 129 438 L 129 438 Z" />
</svg>