<svg xmlns="http://www.w3.org/2000/svg" viewBox="0 0 640 448">
  <path d="M 480 0 L 479 0 L 480 0 L 479 0 L 477 1 L 477 1 L 415 24 L 415 24 Q 396 32 384 48 Q 383 48 382 48 Q 382 48 381 48 L 240 48 L 240 48 Q 176 49 132 90 Q 88 130 81 192 L 45 192 L 45 192 Q 33 192 25 183 Q 16 175 16 163 L 16 161 L 16 161 Q 17 142 35 136 L 59 128 L 59 128 L 66 125 L 66 125 L 61 110 L 61 110 L 53 112 L 53 112 L 29 120 L 29 120 Q 2 131 0 161 L 0 163 L 0 163 Q 0 182 13 195 Q 26 208 45 208 L 80 208 L 80 208 L 80 224 L 80 224 Q 80 264 99 296 Q 118 328 149 347 L 183 443 L 183 443 L 185 448 L 185 448 L 191 448 L 272 448 L 272 440 L 272 440 L 272 384 L 272 384 L 320 384 L 384 384 L 384 440 L 384 440 L 384 448 L 384 448 L 392 448 L 471 448 L 473 443 L 473 443 L 495 381 L 495 381 Q 548 367 577 320 L 632 320 L 640 320 L 640 312 L 640 312 L 640 184 L 640 184 L 640 176 L 640 176 L 632 176 L 586 176 Q 566 167 553 149 Q 575 139 587 120 Q 600 101 600 77 L 600 64 L 600 64 L 600 56 L 600 56 L 592 56 L 512 56 L 512 8 L 512 8 L 512 0 L 512 0 L 504 0 L 480 0 Z M 511 72 L 584 72 L 511 72 L 584 72 L 584 77 L 584 77 Q 584 97 573 112 Q 563 128 545 135 Q 528 111 505 92 Q 510 83 511 72 L 511 72 Z M 421 39 L 482 16 L 421 39 L 482 16 L 496 16 L 496 16 L 496 62 L 496 62 Q 496 78 488 90 L 485 96 L 485 96 L 490 101 L 490 101 Q 518 121 536 152 Q 553 179 582 191 L 583 192 L 583 192 L 585 192 L 624 192 L 624 304 L 624 304 L 572 304 L 567 304 L 565 308 L 565 308 Q 539 355 487 366 L 483 367 L 483 367 L 481 371 L 481 371 L 459 432 L 459 432 L 400 432 L 400 432 L 400 376 L 400 376 L 400 368 L 400 368 L 392 368 L 256 368 L 256 376 L 256 376 L 256 432 L 256 432 L 197 432 L 197 432 L 163 339 L 163 339 L 162 336 L 162 336 L 160 335 L 160 335 Q 131 318 114 289 Q 96 260 96 224 L 96 208 L 96 208 Q 98 147 138 106 Q 179 66 240 64 L 381 64 L 381 64 Q 383 64 384 64 Q 386 64 387 64 L 392 64 L 392 64 L 394 61 L 394 61 Q 404 46 421 39 L 421 39 Z M 464 224 Q 479 223 480 208 Q 479 193 464 192 Q 449 193 448 208 Q 449 223 464 224 L 464 224 Z" />
</svg>