<svg xmlns="http://www.w3.org/2000/svg" viewBox="0 0 640 512">
  <path d="M 336 0 L 304 0 L 336 0 L 304 0 L 304 32 L 304 32 L 336 32 L 336 32 L 336 0 L 336 0 Z M 104 144 L 96 144 L 104 144 L 96 144 L 96 152 L 96 152 L 96 205 L 96 205 Q 53 225 27 263 Q 1 302 0 352 Q 2 420 47 465 Q 92 510 160 512 Q 228 510 273 465 Q 318 420 320 352 Q 319 302 293 263 Q 267 225 224 205 L 224 152 L 224 152 L 224 144 L 224 144 L 216 144 L 183 144 L 160 121 L 160 121 L 137 144 L 137 144 L 104 144 L 104 144 Z M 208 199 Q 185 192 160 192 Q 135 192 112 199 L 112 160 L 112 160 L 208 160 L 208 160 L 208 199 L 208 199 Z M 160 208 Q 199 208 232 227 L 232 227 L 232 227 Q 265 246 285 280 Q 304 314 304 352 Q 304 390 285 424 Q 265 458 232 477 Q 199 496 160 496 Q 121 496 88 477 Q 55 458 35 424 Q 16 390 16 352 Q 16 314 35 280 Q 55 246 88 227 Q 121 208 160 208 L 160 208 Z M 345 403 Q 342 414 338 425 Q 358 464 396 488 Q 433 511 480 512 Q 548 510 593 465 Q 638 420 640 352 Q 639 302 613 263 Q 587 225 544 205 L 544 152 L 544 152 L 544 144 L 544 144 L 536 144 L 503 144 L 480 121 L 480 121 L 457 144 L 457 144 L 424 144 L 416 144 L 416 152 L 416 152 L 416 205 L 416 205 Q 364 229 338 279 Q 342 290 345 301 Q 361 260 397 234 Q 433 209 480 208 Q 541 210 582 250 Q 622 291 624 352 Q 622 413 582 454 Q 541 494 480 496 Q 433 495 397 470 Q 361 444 345 403 L 345 403 Z M 528 160 L 528 199 L 528 160 L 528 199 Q 505 192 480 192 Q 455 192 432 199 L 432 160 L 432 160 L 528 160 L 528 160 Z M 56 352 Q 56 324 70 300 L 70 300 L 70 300 Q 84 276 108 262 Q 133 248 160 248 Q 187 248 212 262 Q 236 276 250 300 Q 264 324 264 352 Q 264 380 250 404 Q 236 428 212 442 Q 187 456 160 456 Q 133 456 108 442 Q 84 428 70 404 Q 56 380 56 352 L 56 352 Z M 280 352 Q 280 319 264 292 L 264 292 L 264 292 Q 248 265 220 248 Q 192 232 160 232 Q 128 232 100 248 Q 72 265 56 292 Q 40 319 40 352 Q 40 385 56 412 Q 72 439 100 456 Q 128 472 160 472 Q 192 472 220 456 Q 248 439 264 412 Q 280 385 280 352 L 280 352 Z M 480 248 Q 508 248 532 262 L 532 262 L 532 262 Q 556 276 570 300 Q 584 325 584 352 Q 584 379 570 404 Q 556 428 532 442 Q 508 456 480 456 Q 452 456 428 442 Q 404 428 390 404 Q 376 379 376 352 Q 376 325 390 300 Q 404 276 428 262 Q 452 248 480 248 L 480 248 Z M 480 472 Q 513 472 540 456 L 540 456 L 540 456 Q 567 440 584 412 Q 600 384 600 352 Q 600 320 584 292 Q 567 264 540 248 Q 513 232 480 232 Q 447 232 420 248 Q 393 264 376 292 Q 360 320 360 352 Q 360 384 376 412 Q 393 440 420 456 Q 447 472 480 472 L 480 472 Z M 222 27 L 227 59 L 222 27 L 227 59 L 259 53 L 259 53 L 253 22 L 253 22 L 222 27 L 222 27 Z M 189 66 L 162 83 L 189 66 L 162 83 L 179 110 L 179 110 L 206 93 L 206 93 L 189 66 L 189 66 Z M 451 66 L 434 93 L 451 66 L 434 93 L 461 110 L 461 110 L 478 83 L 478 83 L 451 66 L 451 66 Z M 419 27 L 387 22 L 419 27 L 387 22 L 382 53 L 382 53 L 413 59 L 413 59 L 419 27 L 419 27 Z" />
</svg>