<svg xmlns="http://www.w3.org/2000/svg" viewBox="0 0 645 512">
  <path d="M 323 128 L 323 32 L 323 128 L 323 32 Q 321 30 355 16 Q 389 2 483 0 Q 577 2 611 16 Q 645 30 643 32 L 643 128 L 643 128 L 515 416 L 515 416 L 451 416 L 451 416 L 323 128 L 323 128 Z M 606 31 Q 575 18 483 16 Q 391 18 360 31 Q 345 37 339 40 L 339 125 L 339 125 L 341 129 L 341 129 L 345 128 L 345 128 L 347 136 L 347 136 L 345 128 L 345 128 Q 345 128 345 128 Q 345 128 345 128 Q 345 128 345 128 Q 345 128 345 128 Q 345 128 345 128 Q 345 128 345 128 L 345 128 L 345 128 L 346 128 L 346 128 Q 346 128 347 128 Q 347 128 348 128 Q 350 127 351 127 Q 354 126 357 126 Q 369 123 389 120 Q 430 113 483 112 Q 536 113 577 120 Q 597 123 609 126 Q 614 127 617 128 Q 618 128 619 128 Q 619 128 620 128 L 620 128 L 620 128 L 621 128 L 621 128 Q 621 128 621 128 Q 621 128 621 128 Q 621 128 621 128 L 619 136 L 619 136 L 621 128 L 621 128 L 625 129 L 625 129 L 627 125 L 627 125 L 627 40 L 627 40 Q 621 37 606 31 L 606 31 Z M 348 144 L 400 263 L 348 144 L 400 263 Q 438 257 483 256 Q 528 257 566 262 L 618 144 L 618 144 L 617 144 L 617 144 Q 617 144 617 144 Q 617 144 617 144 Q 617 144 617 144 Q 617 144 617 144 Q 617 144 617 144 Q 617 144 617 144 L 617 144 L 617 144 L 617 144 L 617 144 Q 616 144 616 144 Q 615 143 614 143 Q 611 143 606 141 Q 594 139 575 136 Q 534 129 483 128 Q 432 129 391 136 Q 372 139 361 141 Q 360 141 360 141 Q 357 142 354 143 Q 353 143 352 143 Q 351 143 350 144 Q 350 144 349 144 L 349 144 L 349 144 L 349 144 L 349 144 Q 349 144 349 144 Q 349 144 349 144 Q 349 144 349 144 Q 349 144 349 144 Q 349 144 349 144 Q 349 144 349 144 L 348 144 L 348 144 Z M 461 400 L 505 400 L 461 400 L 505 400 L 559 278 L 559 278 Q 524 272 483 272 Q 442 273 407 278 L 461 400 L 461 400 Z M 71 399 L 3 331 L 71 399 L 3 331 Q 0 331 14 297 Q 28 263 94 195 Q 161 130 195 116 Q 229 102 229 105 Q 229 105 229 105 L 297 173 L 297 173 L 410 467 L 410 467 L 365 512 L 365 512 L 71 399 L 71 399 Z M 203 130 Q 171 143 105 207 Q 41 273 29 304 Q 22 319 20 325 L 80 385 L 80 385 L 84 387 L 84 387 L 87 383 L 87 383 Q 87 383 87 383 Q 87 383 87 383 L 87 383 L 87 383 L 87 382 L 87 382 Q 87 382 87 382 Q 88 382 88 380 Q 89 380 90 378 Q 91 376 93 373 Q 100 363 112 347 Q 136 313 173 274 Q 211 238 245 214 Q 261 202 271 195 Q 276 192 279 190 Q 280 189 281 189 Q 281 189 281 189 L 281 189 L 281 189 L 281 188 L 281 188 Q 281 189 281 188 Q 281 189 281 188 L 285 186 L 285 186 L 283 181 L 283 181 L 224 122 L 224 122 Q 217 123 202 130 L 203 130 Z M 100 393 L 221 439 L 100 393 L 221 439 Q 243 408 275 376 Q 307 345 338 322 L 291 201 L 291 201 L 290 202 L 290 202 Q 290 202 290 202 L 290 202 L 290 202 L 290 202 L 290 202 Q 289 203 289 203 Q 288 203 288 204 Q 287 204 287 204 Q 284 206 280 209 Q 270 215 254 227 Q 221 250 184 286 Q 148 323 125 356 Q 113 372 107 382 Q 105 384 104 386 Q 103 388 102 389 Q 101 390 101 391 L 100 392 L 100 392 L 100 392 L 100 392 Q 100 392 100 392 Q 100 392 100 392 L 100 393 L 100 393 Z M 361 493 L 392 463 L 361 493 L 392 463 L 344 338 L 344 338 Q 315 359 286 387 Q 258 417 236 445 L 361 493 L 361 493 Z" />
</svg>