<svg xmlns="http://www.w3.org/2000/svg" viewBox="0 0 448 512">
  <path d="M 96 416 L 96 16 L 96 416 L 96 16 L 313 16 L 313 16 L 432 135 L 432 135 L 432 416 L 432 416 L 96 416 L 96 416 Z M 448 128 L 320 0 L 448 128 L 320 0 L 96 0 L 80 0 L 80 16 L 80 16 L 80 416 L 80 416 L 80 432 L 80 432 L 96 432 L 448 432 L 448 416 L 448 416 L 448 128 L 448 128 Z M 48 80 L 16 80 L 48 80 L 0 80 L 0 96 L 0 96 L 0 496 L 0 496 L 0 512 L 0 512 L 16 512 L 368 512 L 368 496 L 368 496 L 368 464 L 368 464 L 352 464 L 352 464 L 352 496 L 352 496 L 16 496 L 16 496 L 16 96 L 16 96 L 48 96 L 48 96 L 48 80 L 48 80 Z M 160 144 L 152 144 L 160 144 L 152 144 L 152 152 L 152 152 L 152 216 L 152 216 L 152 280 L 152 280 L 152 344 L 152 344 L 152 352 L 152 352 L 160 352 L 376 352 L 376 344 L 376 344 L 376 280 L 376 280 L 376 216 L 376 216 L 376 152 L 376 152 L 376 144 L 376 144 L 368 144 L 160 144 Z M 168 208 L 168 160 L 168 208 L 168 160 L 216 160 L 216 160 L 216 208 L 216 208 L 168 208 L 168 208 Z M 232 208 L 232 160 L 232 208 L 232 160 L 296 160 L 296 160 L 296 208 L 296 208 L 232 208 L 232 208 Z M 312 208 L 312 160 L 312 208 L 312 160 L 360 160 L 360 160 L 360 208 L 360 208 L 312 208 L 312 208 Z M 304 224 L 360 224 L 304 224 L 360 224 L 360 272 L 360 272 L 304 272 L 168 272 L 168 224 L 168 224 L 224 224 L 304 224 Z M 312 288 L 360 288 L 312 288 L 360 288 L 360 336 L 360 336 L 312 336 L 312 336 L 312 288 L 312 288 Z M 296 288 L 296 336 L 296 288 L 296 336 L 232 336 L 232 336 L 232 288 L 232 288 L 296 288 L 296 288 Z M 216 288 L 216 336 L 216 288 L 216 336 L 168 336 L 168 336 L 168 288 L 168 288 L 216 288 L 216 288 Z" />
</svg>