<svg xmlns="http://www.w3.org/2000/svg" viewBox="0 0 448 512">
  <path d="M 168 0 L 179 0 L 168 0 L 179 0 Q 243 0 286 32 Q 327 63 335 118 Q 357 128 370 147 Q 384 167 384 192 L 384 206 L 384 206 Q 412 216 430 240 Q 447 264 448 296 L 448 392 L 448 392 L 448 400 L 448 400 L 440 400 L 357 400 L 368 392 L 368 392 L 368 384 L 368 384 L 432 384 L 432 384 L 432 296 L 432 296 Q 432 268 416 247 Q 399 227 374 219 L 368 217 L 368 217 L 368 211 L 368 211 L 368 192 L 368 192 Q 368 171 356 155 Q 344 138 325 131 L 320 130 L 320 130 L 320 125 L 320 125 Q 314 73 277 45 Q 242 20 190 16 Q 198 36 200 63 Q 199 89 186 105 Q 172 120 158 127 L 156 128 L 156 128 L 154 128 L 144 128 Q 117 129 99 147 Q 81 165 80 192 L 80 211 L 80 211 L 80 217 L 80 217 L 74 219 L 74 219 Q 49 227 33 247 Q 16 268 16 296 L 16 384 L 16 384 L 80 384 L 80 384 L 80 400 L 80 400 L 8 400 L 0 400 L 0 392 L 0 392 L 0 296 L 0 296 Q 1 264 18 240 Q 36 216 64 206 L 64 192 L 64 192 Q 65 158 87 135 Q 110 113 144 112 L 152 112 L 152 112 Q 164 106 174 94 Q 183 82 184 63 Q 182 35 173 16 Q 173 16 173 16 Q 173 16 173 16 Q 173 16 173 16 Q 173 16 173 16 Q 173 16 173 16 Q 173 16 173 16 Q 172 13 171 11 L 168 0 L 168 0 Z M 166 487 L 188 400 L 166 487 L 188 400 L 192 384 L 192 384 L 176 384 L 112 384 L 112 368 L 112 368 L 112 360 L 112 360 L 268 240 L 268 240 L 288 224 L 288 224 L 282 249 L 282 249 L 260 336 L 260 336 L 256 352 L 256 352 L 273 352 L 336 352 L 336 368 L 336 368 L 336 376 L 336 376 L 180 496 L 180 496 L 160 512 L 160 512 L 166 487 L 166 487 Z M 192 368 L 213 368 L 192 368 L 213 368 L 208 388 L 208 388 L 187 471 L 187 471 L 320 368 L 320 368 L 320 368 L 320 368 L 256 368 L 236 368 L 241 348 L 241 348 L 261 265 L 261 265 L 128 368 L 128 368 L 128 368 L 128 368 L 192 368 L 192 368 Z" />
</svg>