<svg xmlns="http://www.w3.org/2000/svg" viewBox="0 0 502 513">
  <path d="M 251 0 Q 207 1 177 30 L 177 30 L 177 30 Q 148 60 147 104 Q 147 131 160 154 Q 143 173 136 198 L 75 169 L 75 169 L 75 168 L 75 168 L 75 104 L 75 104 L 75 96 L 75 96 L 59 96 L 59 96 L 59 104 L 59 104 L 59 162 L 59 162 L 6 137 L 6 137 L 0 151 L 0 151 L 132 214 L 132 214 Q 131 223 131 232 Q 131 261 143 285 Q 101 328 99 392 Q 100 452 138 494 Q 157 513 183 512 L 319 512 L 319 512 Q 345 513 364 494 Q 402 452 403 392 Q 401 328 359 285 Q 371 261 371 232 Q 371 223 370 214 L 502 151 L 502 151 L 496 137 L 496 137 L 443 162 L 443 162 L 443 104 L 443 104 L 443 96 L 443 96 L 427 96 L 427 96 L 427 104 L 427 104 L 427 168 L 427 168 L 427 169 L 427 169 L 366 198 L 366 198 Q 359 173 342 154 Q 355 131 355 104 Q 354 60 325 30 Q 295 1 251 0 L 251 0 Z M 163 104 Q 164 67 189 42 L 189 42 L 189 42 Q 214 17 251 16 Q 288 17 313 42 Q 338 67 339 104 Q 339 130 326 151 L 322 156 L 322 156 L 327 161 L 327 161 Q 354 189 355 232 Q 355 260 342 283 L 339 288 L 339 288 L 343 292 L 343 292 Q 385 331 387 392 Q 386 446 352 483 Q 339 496 319 496 L 183 496 L 183 496 Q 163 496 150 483 Q 116 446 115 392 Q 117 331 159 292 L 163 288 L 163 288 L 160 283 L 160 283 Q 147 260 147 232 Q 148 190 176 161 L 180 156 L 180 156 L 177 151 L 177 151 Q 163 130 163 104 L 163 104 Z M 267 240 Q 266 225 251 224 Q 236 225 235 240 Q 236 255 251 256 Q 266 255 267 240 L 267 240 Z M 251 336 Q 266 335 267 320 Q 266 305 251 304 Q 236 305 235 320 Q 236 335 251 336 L 251 336 Z M 267 400 Q 266 385 251 384 Q 236 385 235 400 Q 236 415 251 416 Q 266 415 267 400 L 267 400 Z M 219 112 Q 234 111 235 96 Q 234 81 219 80 Q 204 81 203 96 Q 204 111 219 112 L 219 112 Z M 299 96 Q 298 81 283 80 Q 268 81 267 96 Q 268 111 283 112 Q 298 111 299 96 L 299 96 Z M 238 185 L 251 205 L 238 185 L 251 205 L 264 185 L 264 185 L 277 166 L 277 166 Q 283 157 283 146 L 283 144 L 283 144 Q 283 130 274 121 Q 265 112 251 112 Q 237 112 228 121 Q 219 130 219 144 L 219 146 L 219 146 Q 219 157 225 166 L 238 185 L 238 185 Z M 241 162 L 238 157 L 241 162 L 238 157 Q 235 152 235 147 L 235 144 L 235 144 Q 236 130 251 128 Q 266 130 267 144 L 267 147 L 267 147 Q 267 152 264 157 L 261 162 L 261 162 L 251 176 L 251 176 L 241 162 L 241 162 Z" />
</svg>