<svg xmlns="http://www.w3.org/2000/svg" viewBox="0 0 638 457">
  <path d="M 127 25 Q 150 26 162 45 Q 172 65 162 85 Q 150 104 127 105 Q 104 104 92 85 Q 82 65 92 45 Q 104 26 127 25 L 127 25 Z M 127 121 Q 159 120 175 93 Q 191 65 175 37 Q 159 10 127 9 Q 95 10 79 37 Q 63 65 79 93 Q 95 120 127 121 L 127 121 Z M 511 25 Q 534 26 546 45 Q 556 65 546 85 Q 534 104 511 105 Q 488 104 476 85 Q 466 65 476 45 Q 488 26 511 25 L 511 25 Z M 511 121 Q 543 120 559 93 Q 575 65 559 37 Q 543 10 511 9 Q 479 10 463 37 Q 447 65 463 93 Q 479 120 511 121 L 511 121 Z M 71 241 L 71 233 L 71 241 L 71 233 L 55 233 L 55 233 L 55 241 L 55 241 L 55 331 L 55 331 L 18 265 L 18 265 L 60 169 L 60 169 L 200 169 L 200 169 L 207 153 L 207 153 L 55 153 L 50 153 L 48 158 L 48 158 L 1 262 L 1 262 L 0 265 L 0 265 L 2 269 L 2 269 L 55 363 L 55 363 L 55 433 L 55 433 L 55 441 L 55 441 L 63 441 L 199 441 L 199 433 L 199 433 L 199 343 L 199 343 L 183 315 L 183 315 L 183 425 L 183 425 L 71 425 L 71 425 L 71 241 L 71 241 Z M 455 315 L 439 343 L 455 315 L 439 343 L 439 433 L 439 433 L 439 441 L 439 441 L 447 441 L 583 441 L 583 433 L 583 433 L 583 363 L 583 363 L 636 269 L 636 269 L 638 265 L 638 265 L 637 262 L 637 262 L 590 158 L 590 158 L 588 153 L 588 153 L 583 153 L 431 153 L 438 169 L 438 169 L 578 169 L 578 169 L 620 265 L 620 265 L 583 331 L 583 331 L 583 241 L 583 241 L 583 233 L 583 233 L 567 233 L 567 233 L 567 241 L 567 241 L 567 425 L 567 425 L 455 425 L 455 425 L 455 315 L 455 315 Z M 271 73 Q 272 46 295 31 Q 319 19 343 31 Q 366 46 367 73 Q 366 100 343 115 Q 319 127 295 115 Q 272 100 271 73 L 271 73 Z M 383 73 Q 382 37 351 18 Q 319 0 287 18 Q 256 37 255 73 Q 256 109 287 128 Q 319 146 351 128 Q 382 109 383 73 L 383 73 Z M 263 249 L 247 249 L 263 249 L 247 249 L 247 257 L 247 257 L 247 331 L 247 331 L 210 265 L 210 265 L 252 169 L 252 169 L 386 169 L 386 169 L 428 265 L 428 265 L 391 331 L 391 331 L 391 257 L 391 257 L 391 249 L 391 249 L 375 249 L 375 249 L 375 257 L 375 257 L 375 441 L 375 441 L 263 441 L 263 441 L 263 257 L 263 257 L 263 249 L 263 249 Z M 247 363 L 247 449 L 247 363 L 247 449 L 247 457 L 247 457 L 255 457 L 391 457 L 391 449 L 391 449 L 391 363 L 391 363 L 444 269 L 444 269 L 446 265 L 446 265 L 445 262 L 445 262 L 398 158 L 398 158 L 396 153 L 396 153 L 391 153 L 242 153 L 240 158 L 240 158 L 193 262 L 193 262 L 192 265 L 192 265 L 194 269 L 194 269 L 247 363 L 247 363 Z" />
</svg>