<svg xmlns="http://www.w3.org/2000/svg" viewBox="0 0 610 512">
  <path d="M 401 160 L 353 160 L 401 160 L 177 160 L 177 208 L 177 208 L 200 208 L 200 208 L 154 464 L 154 464 L 137 464 L 113 464 L 113 512 L 113 512 L 137 512 L 497 512 L 497 464 L 497 464 L 473 464 L 456 464 L 410 208 L 410 208 L 433 208 L 433 208 L 433 160 L 433 160 L 409 160 L 401 160 Z M 401 128 L 401 102 L 401 128 L 401 102 L 401 96 L 401 96 L 417 96 L 433 96 L 433 64 L 433 64 L 401 48 L 401 48 L 305 0 L 305 0 L 209 48 L 209 48 L 177 64 L 177 64 L 177 96 L 177 96 L 193 96 L 209 96 L 209 102 L 209 102 L 209 128 L 209 128 L 257 128 L 257 128 L 257 96 L 257 96 L 257 78 L 257 78 L 305 54 L 305 54 L 353 78 L 353 78 L 353 96 L 353 96 L 353 128 L 353 128 L 401 128 L 401 128 Z M 353 208 L 361 208 L 353 208 L 361 208 L 407 464 L 407 464 L 337 464 L 337 464 L 337 416 L 337 416 Q 337 402 328 393 Q 319 384 305 384 Q 291 384 282 393 Q 273 402 273 416 L 273 464 L 273 464 L 203 464 L 203 464 L 249 208 L 249 208 L 257 208 L 353 208 Z M 19 2 L 0 46 L 19 2 L 0 46 L 112 94 L 112 94 L 134 104 L 134 104 L 153 60 L 153 60 L 130 50 L 130 50 L 18 2 L 19 2 Z M 153 197 L 134 153 L 153 197 L 134 153 L 112 162 L 112 162 L 0 210 L 0 210 L 18 254 L 18 254 L 130 206 L 130 206 L 153 197 L 153 197 Z M 480 50 L 457 59 L 480 50 L 457 59 L 476 104 L 476 104 L 498 94 L 498 94 L 610 46 L 610 46 L 592 2 L 592 2 L 480 50 L 480 50 Z M 480 206 L 592 254 L 480 206 L 592 254 L 610 210 L 610 210 L 498 162 L 498 162 L 476 152 L 476 152 L 457 197 L 457 197 L 480 206 L 480 206 Z" />
</svg>