<svg xmlns="http://www.w3.org/2000/svg" viewBox="0 0 448 360">
  <path d="M 8 0 L 0 0 L 8 0 L 0 0 L 0 16 L 0 16 L 8 16 L 448 16 L 448 0 L 448 0 L 440 0 L 8 0 Z M 136 160 L 128 160 L 136 160 L 128 160 L 128 176 L 128 176 L 136 176 L 448 176 L 448 160 L 448 160 L 440 160 L 136 160 Z M 128 320 L 128 336 L 128 320 L 128 336 L 136 336 L 448 336 L 448 320 L 448 320 L 440 320 L 128 320 Z M 0 352 L 0 360 L 0 352 L 0 360 L 16 360 L 16 360 L 16 352 L 16 352 L 16 144 L 16 144 L 16 136 L 16 136 L 0 136 L 0 136 L 0 144 L 0 144 L 0 352 L 0 352 Z" />
</svg>