<svg xmlns="http://www.w3.org/2000/svg" viewBox="0 0 451 446">
  <path d="M 355 16 Q 400 17 424 56 Q 446 96 424 136 Q 400 175 355 176 Q 310 175 286 136 Q 264 96 286 56 Q 310 17 355 16 L 355 16 Z M 355 192 Q 381 192 403 179 L 403 179 L 403 179 Q 425 166 438 144 Q 451 121 451 96 Q 451 71 438 48 Q 425 26 403 13 Q 381 0 355 0 Q 329 0 307 13 Q 285 26 272 48 Q 259 71 259 96 Q 259 121 272 144 Q 285 166 307 179 Q 329 192 355 192 L 355 192 Z M 74 332 Q 59 327 48 317 Q 22 295 19 263 Q 17 231 38 205 Q 60 179 92 176 Q 124 174 151 195 Q 151 195 151 195 Q 151 195 151 195 L 387 395 L 387 395 L 369 427 L 369 427 L 74 332 L 74 332 Q 74 332 74 332 Q 74 332 74 332 L 74 332 Z M 37 330 Q 51 341 69 347 L 377 446 L 377 446 L 407 391 L 407 391 L 161 182 L 161 182 Q 129 157 91 160 Q 53 164 26 194 Q 0 226 3 264 Q 7 303 37 330 L 37 330 Z M 115 256 Q 114 271 99 272 Q 84 271 83 256 Q 84 241 99 240 Q 114 241 115 256 L 115 256 Z M 99 224 Q 85 224 76 233 L 76 233 L 76 233 Q 67 242 67 256 Q 67 270 76 279 Q 85 288 99 288 Q 113 288 122 279 Q 131 270 131 256 Q 131 242 122 233 Q 113 224 99 224 L 99 224 Z" />
</svg>