<svg xmlns="http://www.w3.org/2000/svg" viewBox="0 0 512 512">
  <path d="M 118 21 L 233 176 L 118 21 L 233 176 L 253 176 L 253 176 L 123 0 L 123 0 Q 73 26 40 72 Q 8 118 1 176 L 17 176 L 17 176 Q 23 126 50 86 Q 77 45 118 21 L 118 21 Z M 440 112 L 432 112 L 440 112 L 432 112 L 432 120 L 432 120 L 432 208 L 432 208 L 224 208 L 0 208 Q 0 216 1 224 Q 8 300 66 355 Q 97 384 138 400 Q 179 416 224 416 Q 269 416 310 400 Q 351 384 382 355 Q 440 300 447 224 Q 448 216 448 208 L 448 128 L 448 128 L 504 128 L 512 128 L 512 112 L 512 112 L 504 112 L 440 112 Z M 80 432 Q 94 432 103 441 L 103 441 L 103 441 Q 112 450 112 464 Q 112 478 103 487 Q 94 496 80 496 Q 66 496 57 487 Q 48 478 48 464 Q 48 450 57 441 Q 66 432 80 432 L 80 432 Z M 80 512 Q 107 511 122 488 Q 134 464 122 440 Q 107 417 80 416 Q 53 417 38 440 Q 26 464 38 488 Q 53 511 80 512 L 80 512 Z M 368 432 Q 382 432 391 441 L 391 441 L 391 441 Q 400 450 400 464 Q 400 478 391 487 Q 382 496 368 496 Q 354 496 345 487 Q 336 478 336 464 Q 336 450 345 441 Q 354 432 368 432 L 368 432 Z M 368 512 Q 395 511 410 488 Q 422 464 410 440 Q 395 417 368 416 Q 341 417 326 440 Q 314 464 326 488 Q 341 511 368 512 L 368 512 Z M 431 224 Q 424 293 372 343 Q 342 370 304 385 Q 266 400 224 400 Q 182 400 144 385 Q 106 370 77 343 Q 24 293 17 224 L 224 224 L 431 224 Z" />
</svg>