<svg xmlns="http://www.w3.org/2000/svg" viewBox="0 0 512 512">
  <path d="M 0 0 L 512 0 L 0 0 L 512 0 L 512 16 L 512 16 L 0 16 L 0 16 L 0 0 L 0 0 Z M 48 112 L 48 208 L 48 112 L 48 208 L 144 208 L 144 208 L 144 112 L 144 112 L 48 112 L 48 112 Z M 32 96 L 48 96 L 32 96 L 160 96 L 160 112 L 160 112 L 160 208 L 160 208 L 160 224 L 160 224 L 144 224 L 32 224 L 32 208 L 32 208 L 32 112 L 32 112 L 32 96 L 32 96 Z M 48 400 L 48 496 L 48 400 L 48 496 L 144 496 L 144 496 L 144 400 L 144 400 L 48 400 L 48 400 Z M 32 384 L 48 384 L 32 384 L 160 384 L 160 400 L 160 400 L 160 496 L 160 496 L 160 512 L 160 512 L 144 512 L 32 512 L 32 496 L 32 496 L 32 400 L 32 400 L 32 384 L 32 384 Z M 304 112 L 208 112 L 304 112 L 208 112 L 208 208 L 208 208 L 304 208 L 304 208 L 304 112 L 304 112 Z M 208 96 L 304 96 L 208 96 L 320 96 L 320 112 L 320 112 L 320 208 L 320 208 L 320 224 L 320 224 L 304 224 L 192 224 L 192 208 L 192 208 L 192 112 L 192 112 L 192 96 L 192 96 L 208 96 L 208 96 Z M 208 400 L 208 496 L 208 400 L 208 496 L 304 496 L 304 496 L 304 400 L 304 400 L 208 400 L 208 400 Z M 192 384 L 208 384 L 192 384 L 320 384 L 320 400 L 320 400 L 320 496 L 320 496 L 320 512 L 320 512 L 304 512 L 192 512 L 192 496 L 192 496 L 192 400 L 192 400 L 192 384 L 192 384 Z M 464 112 L 368 112 L 464 112 L 368 112 L 368 208 L 368 208 L 464 208 L 464 208 L 464 112 L 464 112 Z M 368 96 L 464 96 L 368 96 L 480 96 L 480 112 L 480 112 L 480 208 L 480 208 L 480 224 L 480 224 L 464 224 L 352 224 L 352 208 L 352 208 L 352 112 L 352 112 L 352 96 L 352 96 L 368 96 L 368 96 Z M 368 400 L 368 496 L 368 400 L 368 496 L 464 496 L 464 496 L 464 400 L 464 400 L 368 400 L 368 400 Z M 352 384 L 368 384 L 352 384 L 480 384 L 480 400 L 480 400 L 480 496 L 480 496 L 480 512 L 480 512 L 464 512 L 352 512 L 352 496 L 352 496 L 352 400 L 352 400 L 352 384 L 352 384 Z M 512 288 L 512 304 L 512 288 L 512 304 L 0 304 L 0 304 L 0 288 L 0 288 L 512 288 L 512 288 Z" />
</svg>