<svg xmlns="http://www.w3.org/2000/svg" viewBox="0 0 448 448">
  <path d="M 432 432 L 432 16 L 432 432 L 432 16 L 16 16 L 16 16 L 16 432 L 16 432 L 432 432 L 432 432 Z M 448 448 L 432 448 L 448 448 L 0 448 L 0 432 L 0 432 L 0 16 L 0 16 L 0 0 L 0 0 L 16 0 L 448 0 L 448 16 L 448 16 L 448 432 L 448 432 L 448 448 L 448 448 Z M 163 301 L 189 275 L 163 301 L 189 275 L 200 264 L 200 264 L 189 253 L 189 253 L 115 179 L 115 179 L 104 168 L 104 168 L 115 157 L 115 157 L 157 115 L 157 115 L 168 104 L 168 104 L 179 115 L 179 115 L 253 189 L 253 189 L 264 200 L 264 200 L 275 189 L 275 189 L 301 163 L 301 163 L 312 152 L 312 152 L 323 163 L 323 163 L 336 176 L 336 176 L 336 320 L 336 320 L 336 336 L 336 336 L 320 336 L 176 336 L 163 323 L 163 323 L 152 312 L 152 312 L 163 301 L 163 301 Z M 211 253 L 223 264 L 211 253 L 223 264 L 211 275 L 211 275 L 175 312 L 175 312 L 183 320 L 183 320 L 320 320 L 320 320 L 320 183 L 320 183 L 312 175 L 312 175 L 275 211 L 275 211 L 264 223 L 264 223 L 253 211 L 253 211 L 168 127 L 168 127 L 127 168 L 127 168 L 211 253 L 211 253 Z" />
</svg>