<svg xmlns="http://www.w3.org/2000/svg" viewBox="0 0 446 518">
  <path d="M 288 244 L 359 177 L 288 244 L 359 177 L 372 165 L 372 165 L 383 154 L 383 154 L 372 143 L 372 143 L 360 131 L 360 131 L 341 111 L 341 111 L 331 102 L 331 102 L 318 102 L 126 102 L 126 118 L 126 118 L 126 150 L 126 150 L 126 166 L 126 166 L 142 166 L 233 166 L 214 182 L 214 182 L 212 183 L 212 183 Q 191 202 189 229 Q 188 256 208 277 L 286 355 L 286 355 L 286 438 L 286 438 L 286 454 L 286 454 L 286 470 L 286 470 L 302 470 L 350 470 L 350 454 L 350 454 L 350 438 L 350 438 L 350 342 L 350 342 L 350 329 L 350 329 L 341 319 L 341 319 L 287 266 L 287 266 L 276 255 L 276 255 L 288 244 L 288 244 Z M 334 335 L 334 342 L 334 335 L 334 342 L 334 438 L 334 438 L 334 454 L 334 454 L 302 454 L 302 454 L 302 438 L 302 438 L 302 355 L 302 355 L 302 349 L 302 349 L 297 344 L 297 344 L 219 266 L 219 266 Q 204 250 205 230 Q 206 210 223 195 L 243 178 L 243 178 L 277 150 L 277 150 L 233 150 L 142 150 L 142 118 L 142 118 L 158 118 L 325 118 L 329 123 L 329 123 L 349 142 L 349 142 L 360 154 L 360 154 L 348 165 L 348 165 L 265 243 L 265 243 L 253 254 L 253 254 L 264 266 L 264 266 L 329 331 L 329 331 L 334 335 L 334 335 Z M 398 22 Q 412 22 421 31 L 421 31 L 421 31 Q 430 40 430 54 Q 430 68 421 77 Q 412 86 398 86 Q 384 86 375 77 Q 366 68 366 54 Q 366 40 375 31 Q 384 22 398 22 L 398 22 Z M 446 54 Q 445 27 422 12 Q 398 0 374 12 Q 351 27 350 54 Q 351 81 374 96 Q 398 108 422 96 Q 445 81 446 54 L 446 54 Z M 146 474 L 153 470 L 146 474 L 153 470 L 144 457 L 144 457 L 137 461 L 137 461 L 103 486 L 103 486 L 12 394 L 12 394 L 0 406 L 0 406 L 97 502 L 97 502 L 101 507 L 101 507 L 107 503 L 107 503 L 146 474 L 146 474 Z M 406 511 L 414 463 L 406 511 L 414 463 L 398 461 L 398 461 L 391 502 L 391 502 L 262 502 L 254 502 L 254 518 L 254 518 L 262 518 L 405 518 L 406 511 L 406 511 Z M 79 359 L 68 371 L 79 359 L 68 371 L 57 382 L 57 382 L 68 393 L 68 393 L 91 416 L 91 416 L 102 427 L 102 427 L 113 416 L 113 416 L 125 405 L 125 405 L 207 322 L 207 322 L 196 311 L 196 311 L 113 393 L 113 393 L 102 405 L 102 405 L 79 382 L 79 382 L 91 371 L 91 371 L 175 287 L 175 287 Q 170 280 166 273 L 79 359 L 79 359 Z" />
</svg>