<svg xmlns="http://www.w3.org/2000/svg" viewBox="0 0 512 512">
  <path d="M 312 16 Q 334 18 336 40 Q 334 62 312 64 L 208 64 L 208 64 L 208 16 L 208 16 L 312 16 L 312 16 Z M 208 0 L 192 0 L 208 0 L 192 0 L 192 16 L 192 16 L 192 32 L 192 32 L 184 32 L 184 32 Q 153 33 133 53 Q 113 73 112 104 L 112 144 L 112 144 L 64 144 L 64 144 L 0 272 L 0 272 L 0 296 L 0 296 L 0 352 L 0 352 L 0 368 L 0 368 L 16 368 L 512 368 L 512 352 L 512 352 L 512 296 L 512 296 L 512 272 L 512 272 L 448 144 L 448 144 L 128 144 L 128 144 L 128 104 L 128 104 Q 129 80 144 64 Q 160 49 184 48 L 192 48 L 192 48 L 192 64 L 192 64 L 192 80 L 192 80 L 208 80 L 312 80 Q 329 80 340 68 Q 352 57 352 40 Q 352 23 340 12 Q 329 0 312 0 L 208 0 L 208 0 Z M 16 352 L 16 304 L 16 352 L 16 304 L 496 304 L 496 304 L 496 352 L 496 352 L 16 352 L 16 352 Z M 16 288 L 16 276 L 16 288 L 16 276 L 74 160 L 74 160 L 112 160 L 438 160 L 496 276 L 496 276 L 496 288 L 496 288 L 16 288 L 16 288 Z M 128 496 L 128 512 L 128 496 L 128 512 L 136 512 L 384 512 L 384 496 L 384 496 L 376 496 L 264 496 L 264 400 L 264 400 L 248 400 L 248 400 L 248 496 L 248 496 L 136 496 L 128 496 Z" />
</svg>