<svg xmlns="http://www.w3.org/2000/svg" viewBox="0 0 640 512">
  <path d="M 106 0 L 257 51 L 106 0 L 257 51 Q 262 29 279 14 Q 296 0 319 0 Q 346 1 365 19 Q 383 37 383 64 Q 383 79 377 91 L 538 144 L 538 144 L 546 147 L 546 147 L 540 162 L 540 162 L 533 160 L 533 160 L 369 105 L 369 105 Q 353 124 327 128 L 327 504 L 327 504 L 327 512 L 327 512 L 319 512 L 95 512 L 95 496 L 95 496 L 103 496 L 311 496 L 311 128 L 311 128 Q 288 124 272 108 Q 257 91 255 67 L 101 16 L 101 16 L 106 0 L 106 0 Z M 319 112 Q 347 111 361 88 Q 374 64 361 40 Q 347 17 319 16 Q 292 17 278 40 Q 265 64 278 88 Q 292 111 319 112 L 319 112 Z M 137 81 L 256 271 L 137 81 L 256 271 L 256 311 L 256 311 L 183 384 L 183 384 L 74 384 L 74 384 L 0 311 L 0 311 L 0 271 L 0 271 L 118 81 L 118 81 L 127 66 L 127 66 L 137 81 L 137 81 Z M 18 272 L 238 272 L 18 272 L 238 272 L 127 96 L 127 96 L 18 272 L 18 272 Z M 16 288 L 16 304 L 16 288 L 16 304 L 80 368 L 80 368 L 176 368 L 176 368 L 240 304 L 240 304 L 240 288 L 240 288 L 16 288 L 16 288 Z M 511 192 L 521 207 L 511 192 L 521 207 L 640 397 L 640 397 L 640 437 L 640 437 L 567 510 L 567 510 L 457 510 L 457 510 L 384 437 L 384 437 L 384 397 L 384 397 L 502 207 L 502 207 L 511 192 L 511 192 Z M 511 222 L 402 398 L 511 222 L 402 398 L 622 398 L 622 398 L 511 222 L 511 222 Z M 400 430 L 464 494 L 400 430 L 464 494 L 560 494 L 560 494 L 624 430 L 624 430 L 624 414 L 624 414 L 400 414 L 400 414 L 400 430 L 400 430 Z" />
</svg>