<svg xmlns="http://www.w3.org/2000/svg" viewBox="0 0 320 447">
  <path d="M 0 0 L 8 0 L 0 0 L 112 0 Q 112 0 112 0 Q 112 0 112 0 L 120 0 L 320 0 L 320 16 L 320 16 L 312 16 L 178 16 Q 212 34 232 65 Q 253 96 256 136 L 312 136 L 320 136 L 320 152 L 320 152 L 312 152 L 256 152 Q 251 210 211 248 Q 171 287 112 288 L 23 288 L 23 288 L 252 433 L 252 433 L 244 447 L 244 447 L 4 295 L 4 295 L 0 292 L 0 292 L 0 288 L 0 288 L 0 280 L 0 280 L 0 272 L 0 272 L 8 272 L 112 272 Q 164 271 200 237 Q 235 203 240 152 L 8 152 L 0 152 L 0 136 L 0 136 L 8 136 L 240 136 Q 235 85 200 51 Q 164 17 112 16 Q 112 16 112 16 Q 112 16 112 16 L 8 16 L 0 16 L 0 0 L 0 0 Z" />
</svg>