<svg xmlns="http://www.w3.org/2000/svg" viewBox="0 0 320 448">
  <path d="M 16 176 L 304 176 L 16 176 L 304 176 L 304 151 L 304 151 L 160 22 L 160 22 L 16 151 L 16 151 L 16 176 L 16 176 Z M 0 144 L 160 0 L 0 144 L 160 0 L 320 144 L 320 144 L 320 176 L 320 176 L 320 192 L 320 192 L 304 192 L 0 192 L 0 176 L 0 176 L 0 144 L 0 144 Z M 16 272 L 16 297 L 16 272 L 16 297 L 160 427 L 160 427 L 304 297 L 304 297 L 304 272 L 304 272 L 16 272 L 16 272 Z M 0 304 L 0 272 L 0 304 L 0 272 L 0 256 L 0 256 L 16 256 L 320 256 L 320 272 L 320 272 L 320 304 L 320 304 L 160 448 L 160 448 L 0 304 L 0 304 Z" />
</svg>