<svg xmlns="http://www.w3.org/2000/svg" viewBox="0 0 576 384">
  <path d="M 0 16 L 0 0 L 0 16 L 0 0 L 16 0 L 576 0 L 576 16 L 576 16 L 576 128 L 576 128 L 576 144 L 576 144 Q 556 145 542 158 Q 529 172 528 192 Q 529 212 542 226 Q 556 239 576 240 L 576 256 L 576 256 L 576 368 L 576 368 L 576 384 L 576 384 L 560 384 L 0 384 L 0 368 L 0 368 L 0 256 L 0 256 L 0 240 L 0 240 Q 20 239 34 226 Q 47 212 48 192 Q 47 172 34 158 Q 20 145 0 144 L 0 128 L 0 128 L 0 16 L 0 16 Z M 16 130 Q 37 136 50 152 L 50 152 L 50 152 Q 64 169 64 192 Q 64 215 50 232 Q 37 248 16 254 L 16 368 L 16 368 L 560 368 L 560 368 L 560 254 L 560 254 Q 539 248 526 232 Q 512 215 512 192 Q 512 169 526 152 Q 539 136 560 130 L 560 16 L 560 16 L 16 16 L 16 16 L 16 130 L 16 130 Z" />
</svg>