<svg xmlns="http://www.w3.org/2000/svg" viewBox="0 0 639 512">
  <path d="M 32 32 L 352 32 L 32 32 L 352 32 L 352 192 L 352 192 Q 367 181 384 173 L 384 32 L 384 32 L 384 0 L 384 0 L 352 0 L 0 0 L 0 32 L 0 32 L 0 480 L 0 480 L 0 512 L 0 512 L 32 512 L 384 512 L 384 480 L 384 480 L 384 467 L 384 467 Q 367 459 352 448 L 352 480 L 352 480 L 256 480 L 256 480 L 256 400 L 256 400 L 256 368 L 256 368 L 224 368 L 128 368 L 128 400 L 128 400 L 128 480 L 128 480 L 32 480 L 32 480 L 32 32 L 32 32 Z M 304 224 L 240 224 L 304 224 L 224 224 L 224 240 L 224 240 L 224 304 L 224 304 L 224 320 L 224 320 L 240 320 L 288 320 Q 289 265 320 224 L 304 224 L 304 224 Z M 160 480 L 160 400 L 160 480 L 160 400 L 224 400 L 224 400 L 224 480 L 224 480 L 160 480 L 160 480 Z M 64 96 L 64 112 L 64 96 L 64 112 L 64 176 L 64 176 L 64 192 L 64 192 L 80 192 L 160 192 L 160 176 L 160 176 L 160 112 L 160 112 L 160 96 L 160 96 L 144 96 L 64 96 Z M 96 128 L 128 128 L 96 128 L 128 128 L 128 160 L 128 160 L 96 160 L 96 160 L 96 128 L 96 128 Z M 240 96 L 224 96 L 240 96 L 224 96 L 224 112 L 224 112 L 224 176 L 224 176 L 224 192 L 224 192 L 240 192 L 320 192 L 320 176 L 320 176 L 320 112 L 320 112 L 320 96 L 320 96 L 304 96 L 240 96 Z M 256 160 L 256 128 L 256 160 L 256 128 L 288 128 L 288 128 L 288 160 L 288 160 L 256 160 L 256 160 Z M 64 224 L 64 240 L 64 224 L 64 240 L 64 304 L 64 304 L 64 320 L 64 320 L 80 320 L 160 320 L 160 304 L 160 304 L 160 240 L 160 240 L 160 224 L 160 224 L 144 224 L 64 224 Z M 96 256 L 128 256 L 96 256 L 128 256 L 128 288 L 128 288 L 96 288 L 96 288 L 96 256 L 96 256 Z M 256 288 L 256 256 L 256 288 L 256 256 L 288 256 L 288 256 L 288 288 L 288 288 L 256 288 L 256 288 Z M 448 224 Q 474 224 496 237 L 496 237 L 496 237 Q 518 250 531 272 Q 544 295 544 320 Q 544 345 531 368 Q 518 391 496 403 Q 474 416 448 416 Q 422 416 400 403 Q 378 391 365 368 Q 352 345 352 320 Q 352 295 365 272 Q 378 250 400 237 Q 422 224 448 224 L 448 224 Z M 448 448 Q 493 447 527 421 L 605 499 L 605 499 L 616 510 L 616 510 L 639 488 L 639 488 L 627 476 L 627 476 L 549 399 L 549 399 Q 575 365 576 320 Q 575 266 539 230 Q 502 194 448 192 Q 394 194 357 230 Q 321 266 320 320 Q 321 375 357 411 Q 394 447 448 448 L 448 448 Z" />
</svg>