<svg xmlns="http://www.w3.org/2000/svg" viewBox="0 0 576 512">
  <path d="M 0 0 L 384 0 L 0 0 L 384 0 L 384 194 L 384 194 Q 359 219 353 256 L 320 256 L 320 256 L 320 224 L 320 224 L 256 224 L 256 224 L 256 288 L 256 288 L 320 288 L 320 288 L 320 320 L 320 320 L 320 512 L 320 512 L 240 512 L 240 512 L 240 384 L 240 384 L 144 384 L 144 384 L 144 512 L 144 512 L 0 512 L 0 512 L 0 0 L 0 0 Z M 128 224 L 64 224 L 128 224 L 64 224 L 64 288 L 64 288 L 128 288 L 128 288 L 128 224 L 128 224 Z M 160 224 L 160 288 L 160 224 L 160 288 L 224 288 L 224 288 L 224 224 L 224 224 L 160 224 L 160 224 Z M 64 96 L 64 160 L 64 96 L 64 160 L 128 160 L 128 160 L 128 96 L 128 96 L 64 96 L 64 96 Z M 224 96 L 160 96 L 224 96 L 160 96 L 160 160 L 160 160 L 224 160 L 224 160 L 224 96 L 224 96 Z M 256 96 L 256 160 L 256 96 L 256 160 L 320 160 L 320 160 L 320 96 L 320 96 L 256 96 L 256 96 Z M 464 240 Q 450 240 441 249 L 441 249 L 441 249 Q 432 258 432 272 L 432 320 L 432 320 L 496 320 L 496 320 L 496 272 L 496 272 Q 496 258 487 249 Q 478 240 464 240 L 464 240 Z M 384 272 Q 385 238 407 215 L 407 215 L 407 215 Q 430 193 464 192 Q 498 193 521 215 Q 543 238 544 272 L 544 320 L 544 320 L 576 320 L 576 320 L 576 512 L 576 512 L 352 512 L 352 512 L 352 320 L 352 320 L 384 320 L 384 320 L 384 272 L 384 272 Z" />
</svg>