<svg xmlns="http://www.w3.org/2000/svg" viewBox="0 0 480 512">
  <path d="M 464 16 L 464 112 L 464 16 L 464 112 L 368 112 L 368 112 L 368 16 L 368 16 L 464 16 L 464 16 Z M 368 0 L 352 0 L 368 0 L 352 0 L 352 16 L 352 16 L 352 112 L 352 112 L 352 128 L 352 128 L 368 128 L 408 128 L 408 320 L 408 320 Q 407 357 382 382 Q 357 407 320 408 L 229 408 L 229 408 L 301 342 L 301 342 L 291 330 L 291 330 L 203 410 L 203 410 L 196 416 L 196 416 L 203 422 L 203 422 L 291 502 L 291 502 L 301 490 L 301 490 L 229 424 L 229 424 L 320 424 L 320 424 Q 364 423 394 394 Q 423 364 424 320 L 424 128 L 424 128 L 464 128 L 480 128 L 480 112 L 480 112 L 480 16 L 480 16 L 480 0 L 480 0 L 464 0 L 368 0 Z M 189 10 L 179 22 L 189 10 L 179 22 L 251 88 L 251 88 L 160 88 L 160 88 Q 116 89 86 118 Q 57 148 56 192 L 56 384 L 56 384 L 16 384 L 0 384 L 0 400 L 0 400 L 0 496 L 0 496 L 0 512 L 0 512 L 16 512 L 128 512 L 128 496 L 128 496 L 128 400 L 128 400 L 128 384 L 128 384 L 112 384 L 72 384 L 72 192 L 72 192 Q 73 155 98 130 Q 123 105 160 104 L 251 104 L 251 104 L 179 170 L 179 170 L 189 182 L 189 182 L 277 102 L 277 102 L 284 96 L 284 96 L 277 90 L 277 90 L 189 10 L 189 10 Z M 16 400 L 112 400 L 16 400 L 112 400 L 112 496 L 112 496 L 16 496 L 16 496 L 16 400 L 16 400 Z" />
</svg>