<svg xmlns="http://www.w3.org/2000/svg" viewBox="0 0 640 448">
  <path d="M 320 64 Q 342 62 344 40 Q 342 18 320 16 Q 298 18 296 40 Q 298 62 320 64 L 320 64 Z M 320 0 Q 343 1 355 20 Q 365 40 355 60 Q 343 79 320 80 Q 297 79 285 60 Q 275 40 285 20 Q 297 1 320 0 L 320 0 Z M 389 108 L 427 176 L 389 108 L 427 176 L 415 176 L 415 176 L 412 182 L 412 182 L 375 116 L 375 116 L 373 112 L 373 112 L 368 112 L 267 112 L 265 116 L 265 116 L 228 182 L 228 182 L 225 176 L 225 176 L 214 176 L 214 176 L 251 108 L 251 108 L 258 96 L 258 96 L 272 96 L 382 96 L 389 108 L 389 108 Z M 390 176 L 403 199 L 390 176 L 403 199 L 393 215 L 393 215 L 392 213 L 392 213 L 376 184 L 376 184 L 376 217 L 376 217 L 376 240 L 376 240 Q 376 240 376 240 Q 376 240 376 240 L 376 256 L 376 256 L 371 256 L 360 256 Q 360 256 360 256 Q 360 256 360 256 Q 360 256 360 256 Q 360 256 360 256 L 360 240 L 360 240 Q 360 240 360 240 Q 360 240 360 240 L 360 184 L 360 184 L 360 144 L 360 144 L 372 144 L 372 144 L 390 176 L 390 176 Z M 280 240 L 280 256 L 280 240 L 280 256 Q 280 256 280 256 Q 280 256 280 256 L 269 256 L 264 256 L 264 246 L 264 246 Q 264 246 264 246 Q 264 246 264 246 L 264 240 L 264 240 L 264 217 L 264 217 L 264 184 L 264 184 L 248 213 L 248 213 L 247 215 L 247 215 L 237 199 L 237 199 L 250 176 L 250 176 L 268 144 L 268 144 L 280 144 L 280 144 L 280 184 L 280 184 L 280 240 L 280 240 Q 280 240 280 240 Q 280 240 280 240 L 280 240 Z M 496 176 Q 518 174 520 152 Q 518 130 496 128 Q 474 130 472 152 Q 474 174 496 176 L 496 176 Z M 496 112 Q 519 113 531 132 Q 541 152 531 172 Q 519 191 496 192 Q 473 191 461 172 Q 451 152 461 132 Q 473 113 496 112 L 496 112 Z M 579 345 L 568 325 L 579 345 L 568 325 L 552 296 L 552 296 L 552 329 L 552 329 L 552 352 L 552 352 L 552 368 L 552 368 L 536 368 L 440 368 L 440 352 L 440 352 L 440 329 L 440 329 L 440 296 L 440 296 L 424 325 L 424 325 L 413 345 L 413 345 L 409 352 L 409 352 L 401 366 L 401 366 L 387 358 L 387 358 L 373 350 L 373 350 L 359 342 L 359 342 L 367 328 L 367 328 L 371 321 L 371 321 L 427 220 L 427 220 L 434 208 L 434 208 L 448 208 L 558 208 L 565 220 L 565 220 L 621 321 L 621 321 L 625 328 L 625 328 L 633 342 L 633 342 L 619 350 L 619 350 L 605 358 L 605 358 L 591 366 L 591 366 L 583 352 L 583 352 L 579 345 L 579 345 Z M 536 296 L 536 256 L 536 296 L 536 256 L 548 256 L 548 256 L 566 288 L 566 288 L 593 337 L 593 337 L 597 344 L 597 344 L 611 336 L 611 336 L 607 329 L 607 329 L 551 228 L 551 228 L 549 224 L 549 224 L 544 224 L 443 224 L 441 228 L 441 228 L 385 329 L 385 329 L 381 336 L 381 336 L 395 344 L 395 344 L 399 337 L 399 337 L 426 288 L 426 288 L 444 256 L 444 256 L 456 256 L 456 256 L 456 296 L 456 296 L 456 352 L 456 352 L 536 352 L 536 352 L 536 296 L 536 296 Z M 8 432 L 632 432 L 8 432 L 640 432 L 640 448 L 640 448 L 632 448 L 0 448 L 0 432 L 0 432 L 8 432 L 8 432 Z M 168 152 Q 166 130 144 128 Q 122 130 120 152 Q 122 174 144 176 Q 166 174 168 152 L 168 152 Z M 104 152 Q 105 129 124 117 Q 144 107 164 117 Q 183 129 184 152 Q 183 175 164 187 Q 144 197 124 187 Q 105 175 104 152 L 104 152 Z M 216 325 L 200 296 L 216 325 L 200 296 L 200 329 L 200 329 L 200 352 L 200 352 L 200 368 L 200 368 L 184 368 L 88 368 L 88 352 L 88 352 L 88 329 L 88 329 L 88 296 L 88 296 L 72 325 L 72 325 L 61 345 L 61 345 L 57 352 L 57 352 L 49 366 L 49 366 L 35 358 L 35 358 L 21 350 L 21 350 L 7 342 L 7 342 L 15 328 L 15 328 L 19 321 L 19 321 L 75 220 L 75 220 L 82 208 L 82 208 L 96 208 L 206 208 L 213 220 L 213 220 L 269 321 L 269 321 L 273 328 L 273 328 L 281 342 L 281 342 L 267 350 L 267 350 L 253 358 L 253 358 L 239 365 L 239 365 L 231 351 L 231 351 L 227 344 L 227 344 L 216 325 L 216 325 Z M 184 352 L 184 296 L 184 352 L 184 296 L 184 256 L 184 256 L 196 256 L 196 256 L 214 288 L 214 288 L 241 337 L 241 337 L 245 344 L 245 344 L 259 336 L 259 336 L 255 329 L 255 329 L 199 228 L 199 228 L 197 224 L 197 224 L 192 224 L 91 224 L 89 228 L 89 228 L 33 329 L 33 329 L 29 336 L 29 336 L 43 344 L 43 344 L 47 337 L 47 337 L 74 288 L 74 288 L 92 256 L 92 256 L 104 256 L 104 256 L 104 296 L 104 296 L 104 352 L 104 352 L 184 352 L 184 352 Z" />
</svg>