<svg xmlns="http://www.w3.org/2000/svg" viewBox="0 0 576 512">
  <path d="M 320 496 L 16 496 L 320 496 L 16 496 L 16 16 L 16 16 L 208 16 L 208 16 L 208 168 L 208 168 L 208 176 L 208 176 L 216 176 L 384 176 L 384 160 L 384 160 L 224 0 L 224 0 L 16 0 L 0 0 L 0 16 L 0 16 L 0 496 L 0 496 L 0 512 L 0 512 L 16 512 L 320 512 L 320 496 L 320 496 Z M 224 23 L 361 160 L 224 23 L 361 160 L 224 160 L 224 160 L 224 23 L 224 23 Z M 464 208 Q 484 209 498 222 L 498 222 L 498 222 Q 511 236 512 256 L 512 320 L 512 320 L 416 320 L 416 320 L 416 256 L 416 256 Q 417 236 430 222 Q 444 209 464 208 L 464 208 Z M 400 256 L 400 320 L 400 256 L 400 320 L 368 320 L 352 320 L 352 336 L 352 336 L 352 496 L 352 496 L 352 512 L 352 512 L 368 512 L 576 512 L 576 496 L 576 496 L 576 336 L 576 336 L 576 320 L 576 320 L 560 320 L 528 320 L 528 256 L 528 256 Q 527 229 509 211 Q 491 193 464 192 Q 437 193 419 211 Q 401 229 400 256 L 400 256 Z M 368 496 L 368 336 L 368 496 L 368 336 L 400 336 L 560 336 L 560 496 L 560 496 L 368 496 L 368 496 Z" />
</svg>