<svg xmlns="http://www.w3.org/2000/svg" viewBox="0 0 576 512">
  <path d="M 64 0 L 64 32 L 64 0 L 64 32 L 0 32 L 0 32 L 0 416 L 0 416 L 576 416 L 576 416 L 576 32 L 576 32 L 512 32 L 512 32 L 512 0 L 512 0 L 448 0 L 448 0 L 448 32 L 448 32 L 128 32 L 128 32 L 128 0 L 128 0 L 64 0 L 64 0 Z M 128 448 L 64 448 L 128 448 L 64 448 L 64 512 L 64 512 L 128 512 L 128 512 L 128 448 L 128 448 Z M 448 448 L 448 512 L 448 448 L 448 512 L 512 512 L 512 512 L 512 448 L 512 448 L 448 448 L 448 448 Z" />
</svg>