<svg xmlns="http://www.w3.org/2000/svg" viewBox="0 0 448 448">
  <path d="M 448 448 L 0 448 L 448 448 L 0 448 L 0 0 L 0 0 L 448 0 L 448 0 L 448 448 L 448 448 Z M 241 377 L 353 265 L 241 377 L 353 265 L 370 248 L 370 248 L 336 214 L 336 214 L 319 231 L 319 231 L 248 302 L 248 302 L 248 88 L 248 88 L 248 64 L 248 64 L 200 64 L 200 64 L 200 88 L 200 88 L 200 302 L 200 302 L 129 231 L 129 231 L 112 214 L 112 214 L 78 248 L 78 248 L 95 265 L 95 265 L 207 377 L 207 377 L 224 394 L 224 394 L 241 377 L 241 377 Z" />
</svg>