<svg xmlns="http://www.w3.org/2000/svg" viewBox="0 0 384 384">
  <path d="M 112 16 L 112 112 L 112 16 L 112 112 L 16 112 L 16 112 L 16 16 L 16 16 L 112 16 L 112 16 Z M 16 0 L 0 0 L 16 0 L 0 0 L 0 16 L 0 16 L 0 112 L 0 112 L 0 128 L 0 128 L 16 128 L 128 128 L 128 112 L 128 112 L 128 16 L 128 16 L 128 0 L 128 0 L 112 0 L 16 0 Z M 368 272 L 368 368 L 368 272 L 368 368 L 272 368 L 272 368 L 272 272 L 272 272 L 368 272 L 368 272 Z M 272 256 L 256 256 L 272 256 L 256 256 L 256 272 L 256 272 L 256 368 L 256 368 L 256 384 L 256 384 L 272 384 L 384 384 L 384 368 L 384 368 L 384 272 L 384 272 L 384 256 L 384 256 L 368 256 L 272 256 Z M 362 10 L 10 362 L 362 10 L 10 362 L 22 374 L 22 374 L 374 22 L 374 22 L 362 10 L 362 10 Z" />
</svg>