<svg xmlns="http://www.w3.org/2000/svg" viewBox="0 0 608 480">
  <path d="M 21 432 L 140 16 L 21 432 L 140 16 L 280 16 L 280 16 L 280 72 L 280 72 L 280 80 L 280 80 L 296 80 L 296 80 L 296 72 L 296 72 L 296 16 L 296 16 L 436 16 L 436 16 L 469 131 L 469 131 Q 477 129 485 129 L 448 0 L 448 0 L 128 0 L 128 0 L 5 432 L 5 432 L 0 448 L 0 448 L 17 448 L 352 448 L 352 432 L 352 432 L 296 432 L 296 432 L 296 376 L 296 376 L 296 368 L 296 368 L 280 368 L 280 368 L 280 376 L 280 376 L 280 432 L 280 432 L 21 432 L 21 432 Z M 296 168 L 296 160 L 296 168 L 296 160 L 280 160 L 280 160 L 280 168 L 280 168 L 280 280 L 280 280 L 280 288 L 280 288 L 296 288 L 296 288 L 296 280 L 296 280 L 296 168 L 296 168 Z M 496 176 Q 516 177 530 190 L 530 190 L 530 190 Q 543 204 544 224 L 544 288 L 544 288 L 448 288 L 448 288 L 448 224 L 448 224 Q 449 204 462 190 Q 476 177 496 176 L 496 176 Z M 432 224 L 432 288 L 432 224 L 432 288 L 400 288 L 384 288 L 384 304 L 384 304 L 384 464 L 384 464 L 384 480 L 384 480 L 400 480 L 608 480 L 608 464 L 608 464 L 608 304 L 608 304 L 608 288 L 608 288 L 592 288 L 560 288 L 560 224 L 560 224 Q 559 197 541 179 Q 523 161 496 160 Q 469 161 451 179 Q 433 197 432 224 L 432 224 Z M 400 304 L 432 304 L 400 304 L 592 304 L 592 464 L 592 464 L 400 464 L 400 464 L 400 304 L 400 304 Z" />
</svg>