<svg xmlns="http://www.w3.org/2000/svg" viewBox="0 0 448 512">
  <path d="M 279 50 L 287 47 L 279 50 L 287 47 L 336 25 L 336 25 L 336 112 L 336 112 L 112 112 L 112 112 L 112 25 L 112 25 L 162 47 L 162 47 L 169 50 L 169 50 L 176 46 L 176 46 L 224 18 L 224 18 L 272 46 L 272 46 L 279 50 L 279 50 Z M 336 128 L 336 144 L 336 128 L 336 144 Q 335 192 303 223 Q 272 255 224 256 Q 176 255 145 223 Q 113 192 112 144 L 112 128 L 112 128 L 336 128 L 336 128 Z M 336 7 L 280 32 L 336 7 L 280 32 L 224 0 L 224 0 L 168 32 L 168 32 L 112 7 L 112 7 L 96 0 L 96 0 L 96 18 L 96 18 L 96 144 L 96 144 Q 97 198 133 235 Q 170 271 224 272 Q 278 271 315 235 Q 351 198 352 144 L 352 18 L 352 18 L 352 0 L 352 0 L 336 7 L 336 7 Z M 76 320 L 372 320 L 76 320 L 372 320 L 426 496 L 426 496 L 22 496 L 22 496 L 76 320 L 76 320 Z M 384 304 L 64 304 L 384 304 L 64 304 L 5 496 L 5 496 L 0 512 L 0 512 L 17 512 L 448 512 L 443 496 L 443 496 L 384 304 L 384 304 Z" />
</svg>