<svg xmlns="http://www.w3.org/2000/svg" viewBox="0 0 512 448">
  <path d="M 320 221 L 320 157 L 320 221 L 320 157 Q 256 131 192 157 L 192 221 L 192 221 L 32 256 L 32 256 L 0 121 L 0 121 Q 15 99 50 71 Q 84 44 135 22 Q 187 1 256 0 Q 325 1 377 22 Q 428 44 462 71 Q 497 99 512 121 L 480 256 L 480 256 L 320 221 L 320 221 Z M 144 157 L 144 125 L 144 157 L 144 125 L 174 113 L 174 113 Q 214 96 256 96 Q 299 96 339 113 L 368 125 L 368 125 L 368 157 L 368 157 L 368 183 L 368 183 L 444 199 L 444 199 L 460 134 L 460 134 Q 434 105 383 78 Q 331 50 256 48 Q 181 50 129 78 Q 78 105 52 133 L 68 199 L 68 199 L 144 183 L 144 183 L 144 157 L 144 157 Z M 32 288 L 96 288 L 32 288 L 96 288 L 96 352 L 96 352 L 32 352 L 32 352 L 32 288 L 32 288 Z M 32 384 L 96 384 L 32 384 L 96 384 L 96 448 L 96 448 L 32 448 L 32 448 L 32 384 L 32 384 Z M 192 288 L 192 352 L 192 288 L 192 352 L 128 352 L 128 352 L 128 288 L 128 288 L 192 288 L 192 288 Z M 224 288 L 288 288 L 224 288 L 288 288 L 288 352 L 288 352 L 224 352 L 224 352 L 224 288 L 224 288 Z M 384 288 L 384 352 L 384 288 L 384 352 L 320 352 L 320 352 L 320 288 L 320 288 L 384 288 L 384 288 Z M 416 288 L 480 288 L 416 288 L 480 288 L 480 352 L 480 352 L 416 352 L 416 352 L 416 288 L 416 288 Z M 480 384 L 480 448 L 480 384 L 480 448 L 416 448 L 416 448 L 416 384 L 416 384 L 480 384 L 480 384 Z M 128 384 L 384 384 L 128 384 L 384 384 L 384 448 L 384 448 L 128 448 L 128 448 L 128 384 L 128 384 Z" />
</svg>