<svg xmlns="http://www.w3.org/2000/svg" viewBox="0 0 512 512">
  <path d="M 16 224 Q 16 192 25 162 L 224 287 L 224 287 L 224 288 L 224 288 L 224 496 L 224 496 L 224 512 L 224 512 L 240 512 L 448 512 L 508 303 L 508 303 Q 510 296 511 288 Q 512 280 512 272 L 512 252 L 512 252 L 512 249 L 512 249 L 509 246 L 509 246 L 440 185 L 440 185 Q 434 107 381 54 Q 327 2 248 0 L 224 0 L 224 0 Q 161 1 111 31 Q 60 60 31 111 Q 1 161 0 224 Q 2 315 64 381 L 64 504 L 64 504 L 64 512 L 64 512 L 80 512 L 80 512 L 80 504 L 80 504 L 80 378 L 80 378 L 80 374 L 80 374 L 78 372 L 78 372 Q 18 310 16 224 L 16 224 Z M 230 272 L 31 147 L 230 272 L 31 147 Q 55 88 106 53 Q 157 17 224 16 L 248 16 L 248 16 Q 321 18 371 67 Q 420 116 424 189 L 424 192 L 424 192 L 427 194 L 427 194 L 496 256 L 496 256 L 496 272 L 496 272 L 240 272 L 230 272 Z M 240 496 L 240 288 L 240 496 L 240 288 L 495 288 L 495 288 Q 494 294 492 299 L 477 352 L 477 352 L 336 352 L 328 352 L 328 368 L 328 368 L 336 368 L 473 368 L 459 416 L 459 416 L 336 416 L 328 416 L 328 432 L 328 432 L 336 432 L 454 432 L 436 496 L 436 496 L 240 496 L 240 496 Z M 336 224 Q 351 223 352 208 Q 351 193 336 192 Q 321 193 320 208 Q 321 223 336 224 L 336 224 Z" />
</svg>