<svg xmlns="http://www.w3.org/2000/svg" viewBox="0 0 512 448">
  <path d="M 194 55 Q 214 18 256 16 Q 298 18 318 55 L 322 63 L 322 63 L 329 58 L 329 58 Q 345 48 365 48 Q 390 48 409 64 Q 427 80 433 106 L 434 112 L 434 112 L 441 112 L 441 112 Q 441 112 442 112 Q 465 113 480 128 Q 495 144 496 168 Q 496 179 492 189 L 489 197 L 489 197 L 504 202 L 504 202 L 507 195 L 507 195 Q 512 182 512 168 Q 511 139 493 119 Q 475 99 447 96 Q 439 68 417 50 Q 395 33 365 32 Q 345 32 328 40 Q 303 2 256 0 Q 209 2 184 40 Q 167 32 148 32 Q 117 33 95 50 Q 73 68 65 96 Q 37 99 19 119 Q 1 139 0 168 Q 0 182 5 195 L 8 202 L 8 202 L 23 197 L 23 197 L 20 189 L 20 189 Q 16 179 16 168 Q 17 144 32 128 Q 47 113 70 112 Q 70 112 71 112 Q 71 112 71 112 L 78 112 L 78 112 L 79 106 L 79 106 Q 85 80 103 64 Q 122 49 148 48 Q 167 48 183 58 L 190 63 L 190 63 L 194 55 L 194 55 Z M 112 400 L 112 390 L 112 400 L 112 390 L 103 385 L 103 385 Q 64 366 40 330 Q 17 294 16 248 L 16 240 L 16 240 L 496 240 L 496 240 L 496 248 L 496 248 Q 495 294 472 330 Q 448 366 409 385 L 400 390 L 400 390 L 400 400 L 400 400 L 400 432 L 400 432 L 112 432 L 112 432 L 112 400 L 112 400 Z M 512 224 L 496 224 L 512 224 L 0 224 L 0 240 L 0 240 L 0 248 L 0 248 Q 1 299 27 339 Q 53 379 96 400 L 96 432 L 96 432 L 96 448 L 96 448 L 112 448 L 416 448 L 416 432 L 416 432 L 416 400 L 416 400 Q 459 379 485 339 Q 511 299 512 248 L 512 240 L 512 240 L 512 224 L 512 224 Z" />
</svg>