<svg xmlns="http://www.w3.org/2000/svg" viewBox="0 0 640 512">
  <path d="M 353 89 L 341 75 L 353 89 L 341 75 Q 316 47 298 30 Q 292 25 288 21 Q 284 25 279 30 Q 260 46 236 74 Q 212 101 194 133 Q 177 164 176 192 Q 177 239 202 276 Q 199 279 196 283 Q 190 279 183 275 Q 160 238 160 192 Q 162 147 193 103 Q 224 59 255 30 Q 286 1 288 0 Q 289 1 304 15 Q 320 29 342 52 Q 343 53 343 53 Q 348 59 353 64 Q 359 58 364 52 Q 383 33 384 32 Q 386 33 409 57 Q 432 82 455 118 Q 478 154 480 192 Q 480 238 457 275 Q 450 279 444 283 Q 441 279 437 276 Q 463 240 464 192 Q 463 169 451 143 Q 438 118 419 94 Q 401 72 388 58 Q 386 56 384 54 Q 376 62 365 75 L 353 89 L 353 89 Z M 238 246 Q 224 225 224 194 Q 224 172 238 150 Q 251 129 275 99 L 282 91 L 282 91 L 288 99 L 288 99 Q 290 102 301 115 Q 311 129 325 146 L 348 176 L 348 176 L 352 181 L 352 181 L 383 140 L 383 140 L 390 132 L 390 132 L 396 140 L 396 140 Q 401 147 404 154 Q 404 154 404 154 Q 404 154 404 154 Q 417 177 416 201 Q 415 226 402 247 Q 395 243 388 239 Q 399 222 400 202 Q 401 181 390 162 L 390 161 L 390 161 Q 390 161 390 161 Q 390 161 390 161 Q 390 160 389 160 Q 389 159 389 159 L 358 199 L 358 199 L 352 207 L 352 207 L 345 199 L 345 199 L 352 194 L 352 194 L 345 199 L 345 199 Q 345 199 345 199 Q 345 199 345 199 Q 345 199 345 199 Q 345 199 345 199 Q 345 199 345 199 Q 345 199 345 199 L 345 199 L 345 199 L 345 198 L 345 198 L 343 196 L 343 196 L 335 186 L 335 186 L 312 156 L 312 156 Q 304 146 297 137 Q 288 125 281 117 Q 261 141 251 159 Q 240 178 240 194 Q 240 221 253 239 Q 245 242 238 246 L 238 246 Z M 112 288 Q 159 289 191 320 Q 197 327 202 334 Q 206 326 210 318 Q 227 290 256 273 Q 285 256 320 256 Q 355 256 384 273 Q 413 290 430 318 Q 434 325 438 334 Q 443 327 449 320 Q 481 289 528 288 Q 576 289 607 321 Q 639 352 640 400 L 640 496 L 640 496 L 640 512 L 640 512 L 624 512 L 0 512 L 0 496 L 0 496 L 0 400 L 0 400 Q 1 352 33 321 Q 64 289 112 288 L 112 288 Z M 624 400 Q 623 359 596 332 L 596 332 L 596 332 Q 569 305 528 304 Q 479 306 451 343 L 434 366 L 434 366 L 423 340 L 423 340 Q 410 310 382 291 Q 355 273 320 272 Q 285 273 258 291 Q 230 310 217 340 L 206 366 L 206 366 L 189 343 L 189 343 Q 161 306 112 304 Q 71 305 44 332 Q 17 359 16 400 L 16 496 L 16 496 L 112 496 L 624 496 L 624 400 L 624 400 Z" />
</svg>