<svg xmlns="http://www.w3.org/2000/svg" viewBox="0 0 640 508">
  <path d="M 328 327 L 497 0 L 328 327 L 497 0 L 511 8 L 511 8 L 255 504 L 255 504 L 253 508 L 253 508 L 248 508 L 0 508 L 0 500 L 0 500 L 0 335 L 0 335 L 0 327 L 0 327 L 8 327 L 328 327 Z M 96 343 L 16 343 L 96 343 L 16 343 L 16 492 L 16 492 L 96 492 L 96 492 L 96 343 L 96 343 Z M 112 343 L 112 492 L 112 343 L 112 492 L 243 492 L 243 492 L 320 343 L 320 343 L 112 343 L 112 343 Z M 624 428 L 400 428 L 624 428 L 400 428 L 400 492 L 400 492 L 624 492 L 624 492 L 624 428 L 624 428 Z M 400 412 L 624 412 L 400 412 L 640 412 L 640 428 L 640 428 L 640 492 L 640 492 L 640 508 L 640 508 L 624 508 L 384 508 L 384 492 L 384 492 L 384 428 L 384 428 L 384 412 L 384 412 L 400 412 L 400 412 Z" />
</svg>