<svg xmlns="http://www.w3.org/2000/svg" viewBox="0 0 512 512">
  <path d="M 256 16 Q 189 17 135 49 L 135 49 L 135 49 Q 81 81 49 135 L 49 135 L 49 135 Q 17 189 16 256 L 16 504 L 16 504 L 16 512 L 16 512 L 0 512 L 0 512 L 0 504 L 0 504 L 0 256 L 0 256 Q 1 184 35 127 Q 69 69 127 35 Q 184 1 256 0 Q 328 1 385 35 Q 443 69 477 127 Q 511 184 512 256 L 512 504 L 512 504 L 512 512 L 512 512 L 496 512 L 496 512 L 496 504 L 496 504 L 496 256 L 496 256 Q 495 189 463 135 Q 431 81 377 49 Q 323 17 256 16 L 256 16 Z M 109 512 Q 109 512 109 512 L 109 512 L 109 512 Q 109 512 109 512 L 114 506 L 114 506 L 173 448 L 173 448 L 128 448 L 112 448 L 112 432 L 112 432 L 112 144 L 112 144 L 112 128 L 112 128 L 128 128 L 400 128 L 400 144 L 400 144 L 400 432 L 400 432 L 400 448 L 400 448 L 384 448 L 339 448 L 398 506 L 398 506 L 403 512 L 403 512 L 381 512 L 381 512 L 317 448 L 317 448 L 195 448 L 195 448 L 131 512 L 131 512 L 109 512 L 109 512 Z M 128 432 L 384 432 L 128 432 L 384 432 L 384 144 L 384 144 L 128 144 L 128 144 L 128 432 L 128 432 Z M 176 192 L 336 192 L 176 192 L 352 192 L 352 208 L 352 208 L 352 304 L 352 304 L 352 320 L 352 320 L 336 320 L 160 320 L 160 304 L 160 304 L 160 208 L 160 208 L 160 192 L 160 192 L 176 192 L 176 192 Z M 272 376 Q 271 361 256 360 Q 241 361 240 376 Q 241 391 256 392 Q 271 391 272 376 L 272 376 Z M 336 208 L 176 208 L 336 208 L 176 208 L 176 304 L 176 304 L 336 304 L 336 304 L 336 208 L 336 208 Z M 224 376 Q 224 362 233 353 L 233 353 L 233 353 Q 242 344 256 344 Q 270 344 279 353 Q 288 362 288 376 Q 288 390 279 399 Q 270 408 256 408 Q 242 408 233 399 Q 224 390 224 376 L 224 376 Z" />
</svg>