<svg xmlns="http://www.w3.org/2000/svg" viewBox="0 0 512 512">
  <path d="M 256 16 Q 191 17 136 48 L 136 48 L 136 48 Q 81 80 48 136 Q 16 193 16 256 Q 16 319 48 376 Q 81 432 136 464 Q 191 495 256 496 Q 321 495 376 464 Q 431 432 464 376 Q 496 319 496 256 Q 496 193 464 136 Q 431 80 376 48 Q 321 17 256 16 L 256 16 Z M 256 512 Q 186 511 128 478 L 128 478 L 128 478 Q 70 444 34 384 Q 0 323 0 256 Q 0 189 34 128 Q 70 68 128 34 Q 186 1 256 0 Q 326 1 384 34 Q 442 68 478 128 Q 512 189 512 256 Q 512 323 478 384 Q 442 444 384 478 Q 326 511 256 512 L 256 512 Z M 224 256 L 224 272 L 224 256 L 224 272 L 208 272 L 144 272 L 144 273 L 144 273 L 256 385 L 256 385 L 368 273 L 368 273 L 368 272 L 368 272 L 304 272 L 288 272 L 288 256 L 288 256 L 288 144 L 288 144 L 224 144 L 224 144 L 224 256 L 224 256 Z M 245 397 L 128 280 L 245 397 L 128 280 L 128 272 L 128 272 L 128 256 L 128 256 L 144 256 L 208 256 L 208 240 L 208 240 L 208 144 L 208 144 L 208 128 L 208 128 L 224 128 L 304 128 L 304 144 L 304 144 L 304 240 L 304 240 L 304 256 L 304 256 L 320 256 L 384 256 L 384 272 L 384 272 L 384 280 L 384 280 L 267 397 L 267 397 L 256 408 L 256 408 L 245 397 L 245 397 Z" />
</svg>