<svg xmlns="http://www.w3.org/2000/svg" viewBox="0 0 640 512">
  <path d="M 72 0 L 64 0 L 72 0 L 64 0 L 64 8 L 64 8 L 64 160 L 64 160 L 16 160 L 0 160 L 0 176 L 0 176 L 0 496 L 0 496 L 0 512 L 0 512 L 16 512 L 640 512 L 640 496 L 640 496 L 640 176 L 640 176 L 640 160 L 640 160 L 624 160 L 576 160 L 576 8 L 576 8 L 576 0 L 576 0 L 568 0 L 72 0 Z M 560 160 L 448 160 L 560 160 L 448 160 L 448 136 L 448 136 L 448 128 L 448 128 L 440 128 L 384 128 L 384 136 L 384 136 L 384 160 L 384 160 L 352 160 L 352 160 L 352 136 L 352 136 L 352 128 L 352 128 L 344 128 L 288 128 L 288 136 L 288 136 L 288 160 L 288 160 L 256 160 L 256 160 L 256 136 L 256 136 L 256 128 L 256 128 L 248 128 L 192 128 L 192 136 L 192 136 L 192 160 L 192 160 L 80 160 L 80 160 L 80 16 L 80 16 L 560 16 L 560 16 L 560 160 L 560 160 Z M 72 176 L 200 176 L 72 176 L 624 176 L 624 496 L 624 496 L 16 496 L 16 496 L 16 176 L 16 176 L 72 176 L 72 176 Z M 400 144 L 432 144 L 400 144 L 432 144 L 432 160 L 432 160 L 400 160 L 400 160 L 400 144 L 400 144 Z M 336 160 L 304 160 L 336 160 L 304 160 L 304 144 L 304 144 L 336 144 L 336 144 L 336 160 L 336 160 Z M 240 144 L 240 160 L 240 144 L 240 160 L 208 160 L 208 160 L 208 144 L 208 144 L 240 144 L 240 144 Z M 176 240 Q 202 240 224 253 L 224 253 L 224 253 Q 246 266 259 288 Q 272 311 272 336 Q 272 361 259 384 Q 246 406 224 419 Q 202 432 176 432 Q 150 432 128 419 Q 106 406 93 384 Q 80 361 80 336 Q 80 311 93 288 Q 106 266 128 253 Q 150 240 176 240 L 176 240 Z M 176 448 Q 206 448 232 433 L 232 433 L 232 433 Q 258 418 273 392 Q 288 366 288 336 Q 288 306 273 280 Q 258 254 232 239 Q 206 224 176 224 Q 146 224 120 239 Q 94 254 79 280 Q 64 306 64 336 Q 64 366 79 392 Q 94 418 120 433 Q 146 448 176 448 L 176 448 Z M 368 336 Q 368 310 381 288 L 381 288 L 381 288 Q 394 266 416 253 Q 439 240 464 240 Q 489 240 512 253 Q 534 266 547 288 Q 560 310 560 336 Q 560 362 547 384 Q 534 406 512 419 Q 489 432 464 432 Q 439 432 416 419 Q 394 406 381 384 Q 368 362 368 336 L 368 336 Z M 576 336 Q 576 306 561 280 L 561 280 L 561 280 Q 546 254 520 239 Q 494 224 464 224 Q 434 224 408 239 Q 382 254 367 280 Q 352 306 352 336 Q 352 366 367 392 Q 382 418 408 433 Q 434 448 464 448 Q 494 448 520 433 Q 546 418 561 392 Q 576 366 576 336 L 576 336 Z" />
</svg>