<svg xmlns="http://www.w3.org/2000/svg" viewBox="0 0 488 512">
  <path d="M 16 496 L 176 496 L 16 496 L 176 496 L 176 512 L 176 512 L 16 512 L 0 512 L 0 496 L 0 496 L 0 16 L 0 16 L 0 0 L 0 0 L 16 0 L 224 0 L 384 160 L 384 160 L 384 304 L 384 304 L 368 304 L 368 304 L 368 176 L 368 176 L 216 176 L 208 176 L 208 168 L 208 168 L 208 16 L 208 16 L 16 16 L 16 16 L 16 496 L 16 496 Z M 361 160 L 224 23 L 361 160 L 224 23 L 224 160 L 224 160 L 361 160 L 361 160 Z M 232 400 Q 232 386 241 377 L 241 377 L 241 377 Q 250 368 264 368 L 280 368 L 280 368 Q 294 368 303 377 Q 312 386 312 400 L 312 416 L 312 416 L 296 416 L 296 416 L 296 400 L 296 400 Q 295 385 280 384 L 264 384 L 264 384 Q 249 385 248 400 L 248 480 L 248 480 Q 249 495 264 496 L 280 496 L 280 496 Q 295 495 296 480 L 296 464 L 296 464 L 288 464 L 280 464 L 280 448 L 280 448 L 288 448 L 312 448 L 312 456 L 312 456 L 312 480 L 312 480 Q 312 494 303 503 Q 294 512 280 512 L 264 512 L 264 512 Q 250 512 241 503 Q 232 494 232 480 L 232 400 L 232 400 Z M 376 376 L 376 504 L 376 376 L 376 504 L 376 512 L 376 512 L 360 512 L 360 512 L 360 504 L 360 504 L 360 376 L 360 376 L 360 368 L 360 368 L 376 368 L 376 368 L 376 376 L 376 376 Z M 432 368 L 480 368 L 432 368 L 488 368 L 488 384 L 488 384 L 480 384 L 440 384 L 440 432 L 440 432 L 480 432 L 488 432 L 488 448 L 488 448 L 480 448 L 440 448 L 440 504 L 440 504 L 440 512 L 440 512 L 424 512 L 424 512 L 424 504 L 424 504 L 424 440 L 424 440 L 424 376 L 424 376 L 424 368 L 424 368 L 432 368 L 432 368 Z" />
</svg>