<svg xmlns="http://www.w3.org/2000/svg" viewBox="0 0 640 512">
  <path d="M 329 41 L 352 64 L 329 41 L 352 64 L 375 41 L 375 41 L 384 32 L 384 32 Q 440 81 461 126 Q 481 170 480 192 Q 478 257 436 302 Q 394 347 329 352 Q 325 352 320 352 Q 315 352 311 352 Q 246 347 204 302 Q 162 257 160 192 Q 161 147 184 108 Q 206 70 236 42 Q 265 14 288 0 L 329 41 L 329 41 Z M 320 320 Q 324 320 327 320 L 327 320 L 327 320 Q 327 320 327 320 Q 353 317 368 300 Q 384 284 384 263 Q 382 228 345 191 Q 331 178 320 168 Q 309 177 295 191 Q 258 228 256 263 Q 256 284 272 300 Q 287 317 313 320 Q 316 320 320 320 L 320 320 Z M 416 263 Q 416 271 415 278 Q 447 243 448 192 Q 449 180 436 148 Q 423 116 385 76 L 375 87 L 375 87 L 352 109 L 352 109 L 329 87 L 329 87 L 284 42 L 284 42 Q 259 61 233 92 Q 194 139 192 192 Q 193 243 226 278 Q 224 271 224 263 Q 226 227 249 196 Q 272 166 295 147 Q 318 129 320 128 Q 322 129 345 147 Q 368 166 391 196 Q 414 227 416 263 L 416 263 Z M 32 256 L 48 256 L 32 256 L 128 256 L 128 288 L 128 288 L 112 288 L 64 288 L 64 384 L 64 384 L 576 384 L 576 384 L 576 288 L 576 288 L 528 288 L 512 288 L 512 256 L 512 256 L 528 256 L 608 256 L 608 272 L 608 272 L 608 384 L 608 384 L 640 384 L 640 384 L 640 416 L 640 416 L 640 480 L 640 480 L 640 512 L 640 512 L 608 512 L 0 512 L 0 480 L 0 480 L 0 416 L 0 416 L 0 384 L 0 384 L 32 384 L 32 384 L 32 272 L 32 272 L 32 256 L 32 256 Z M 32 480 L 608 480 L 32 480 L 608 480 L 608 416 L 608 416 L 576 416 L 32 416 L 32 480 L 32 480 Z M 192 424 Q 214 426 216 448 Q 214 470 192 472 Q 170 470 168 448 Q 170 426 192 424 L 192 424 Z M 296 448 Q 298 426 320 424 Q 342 426 344 448 Q 342 470 320 472 Q 298 470 296 448 L 296 448 Z M 448 424 Q 470 426 472 448 Q 470 470 448 472 Q 426 470 424 448 Q 426 426 448 424 L 448 424 Z" />
</svg>