<svg xmlns="http://www.w3.org/2000/svg" viewBox="0 0 512 512">
  <path d="M 160 416 L 144 416 L 160 416 L 0 416 L 0 400 L 0 400 L 0 16 L 0 16 L 0 0 L 0 0 L 16 0 L 512 0 L 512 16 L 512 16 L 512 400 L 512 400 L 512 416 L 512 416 L 496 416 L 304 416 L 176 501 L 176 501 L 160 512 L 160 512 L 160 493 L 160 493 L 160 432 L 160 432 L 160 416 L 160 416 Z M 160 400 L 176 400 L 160 400 L 176 400 L 176 416 L 176 416 L 176 482 L 176 482 L 295 403 L 295 403 L 299 400 L 299 400 L 304 400 L 496 400 L 496 16 L 496 16 L 16 16 L 16 16 L 16 400 L 16 400 L 160 400 L 160 400 Z M 192 144 Q 207 145 208 160 Q 207 175 192 176 Q 177 175 176 160 Q 177 145 192 144 L 192 144 Z M 320 144 Q 335 145 336 160 Q 335 175 320 176 Q 305 175 304 160 Q 305 145 320 144 L 320 144 Z M 167 245 L 173 251 L 167 245 L 173 251 Q 205 287 256 288 Q 307 287 340 251 L 345 245 L 345 245 L 357 255 L 357 255 L 351 261 L 351 261 Q 315 302 256 304 Q 197 302 161 261 L 155 255 L 155 255 L 167 245 L 167 245 Z" />
</svg>