<svg xmlns="http://www.w3.org/2000/svg" viewBox="0 0 640 512">
  <path d="M 0 120 Q 1 69 35 35 L 35 35 L 35 35 Q 69 1 120 0 L 248 0 L 256 0 L 256 8 L 256 8 L 256 32 L 256 32 L 288 32 L 288 32 L 288 8 L 288 8 L 288 0 L 288 0 L 296 0 L 352 0 L 352 8 L 352 8 L 352 184 L 352 184 L 352 192 L 352 192 L 344 192 L 288 192 L 288 184 L 288 184 L 288 160 L 288 160 L 256 160 L 256 160 L 256 176 L 256 176 L 256 184 L 256 184 L 248 184 L 216 184 L 224 496 L 224 496 L 224 512 L 224 512 L 208 512 L 96 512 L 96 496 L 96 496 L 104 184 L 104 184 L 88 184 L 83 184 L 81 180 L 81 180 L 68 154 L 68 154 L 11 176 L 11 176 L 0 180 L 0 180 L 0 168 L 0 168 L 0 120 L 0 120 Z M 120 184 L 112 496 L 120 184 L 112 496 L 208 496 L 208 496 L 200 184 L 200 184 L 120 184 L 120 184 Z M 240 168 L 240 152 L 240 168 L 240 152 L 240 144 L 240 144 L 248 144 L 304 144 L 304 152 L 304 152 L 304 176 L 304 176 L 336 176 L 336 176 L 336 16 L 336 16 L 304 16 L 304 16 L 304 40 L 304 40 L 304 48 L 304 48 L 296 48 L 240 48 L 240 40 L 240 40 L 240 16 L 240 16 L 120 16 L 120 16 Q 76 17 46 46 Q 17 76 16 120 L 16 157 L 16 157 L 69 137 L 69 137 L 76 134 L 76 134 L 79 141 L 79 141 L 93 168 L 93 168 L 104 168 L 240 168 Z M 640 288 L 640 496 L 640 288 L 640 496 L 640 512 L 640 512 L 624 512 L 352 512 L 352 496 L 352 496 L 352 288 L 352 288 L 440 200 L 440 200 L 440 16 L 440 16 L 440 0 L 440 0 L 456 0 L 552 0 L 552 16 L 552 16 L 552 200 L 552 200 L 640 288 L 640 288 Z M 536 200 L 536 16 L 536 200 L 536 16 L 456 16 L 456 16 L 456 200 L 456 200 L 456 207 L 456 207 L 451 211 L 451 211 L 375 288 L 375 288 L 617 288 L 617 288 L 541 211 L 541 211 L 536 207 L 536 207 L 536 200 L 536 200 Z M 368 352 L 624 352 L 368 352 L 624 352 L 624 304 L 624 304 L 368 304 L 368 304 L 368 352 L 368 352 Z M 368 368 L 368 496 L 368 368 L 368 496 L 448 496 L 448 496 L 448 416 L 448 416 L 448 408 L 448 408 L 464 408 L 464 408 L 464 416 L 464 416 L 464 496 L 464 496 L 624 496 L 624 496 L 624 368 L 624 368 L 368 368 L 368 368 Z M 496 80 Q 481 79 480 64 Q 481 49 496 48 Q 511 49 512 64 Q 511 79 496 80 L 496 80 Z" />
</svg>