<svg xmlns="http://www.w3.org/2000/svg" viewBox="0 0 384 512">
  <path d="M 232 0 L 224 0 L 232 0 L 224 0 L 224 16 L 224 16 L 232 16 L 296 16 L 296 208 L 296 208 L 232 208 L 224 208 L 224 224 L 224 224 L 232 224 L 384 224 L 384 208 L 384 208 L 376 208 L 312 208 L 312 8 L 312 8 L 312 0 L 312 0 L 304 0 L 232 0 Z M 8 288 L 0 288 L 8 288 L 0 288 L 0 304 L 0 304 L 8 304 L 72 304 L 72 496 L 72 496 L 8 496 L 0 496 L 0 512 L 0 512 L 8 512 L 160 512 L 160 496 L 160 496 L 152 496 L 88 496 L 88 296 L 88 296 L 88 288 L 88 288 L 80 288 L 8 288 Z M 16 0 L 16 8 L 16 0 L 16 8 L 16 216 L 16 216 L 16 224 L 16 224 L 24 224 L 176 224 L 176 216 L 176 216 L 176 8 L 176 8 L 176 0 L 176 0 L 168 0 L 16 0 Z M 32 16 L 160 16 L 32 16 L 160 16 L 160 208 L 160 208 L 32 208 L 32 208 L 32 16 L 32 16 Z M 216 288 L 208 288 L 216 288 L 208 288 L 208 296 L 208 296 L 208 504 L 208 504 L 208 512 L 208 512 L 216 512 L 368 512 L 368 504 L 368 504 L 368 296 L 368 296 L 368 288 L 368 288 L 360 288 L 216 288 Z M 224 496 L 224 304 L 224 496 L 224 304 L 352 304 L 352 304 L 352 496 L 352 496 L 224 496 L 224 496 Z" />
</svg>