<svg xmlns="http://www.w3.org/2000/svg" viewBox="0 0 352 512">
  <path d="M 192 336 L 192 320 L 192 336 L 192 320 L 192 96 L 192 96 L 192 80 L 192 80 L 208 80 L 336 80 L 336 16 L 336 16 L 128 16 L 128 16 L 128 320 L 128 320 L 128 336 L 128 336 L 112 336 L 16 336 L 16 345 L 16 345 L 160 489 L 160 489 L 304 345 L 304 345 L 304 336 L 304 336 L 208 336 L 192 336 Z M 320 352 L 171 501 L 320 352 L 171 501 L 160 512 L 160 512 L 149 501 L 149 501 L 0 352 L 0 352 L 0 336 L 0 336 L 0 320 L 0 320 L 16 320 L 112 320 L 112 304 L 112 304 L 112 16 L 112 16 L 112 0 L 112 0 L 128 0 L 352 0 L 352 16 L 352 16 L 352 80 L 352 80 L 352 96 L 352 96 L 336 96 L 208 96 L 208 112 L 208 112 L 208 304 L 208 304 L 208 320 L 208 320 L 224 320 L 320 320 L 320 336 L 320 336 L 320 352 L 320 352 Z" />
</svg>