<svg xmlns="http://www.w3.org/2000/svg" viewBox="0 0 596 448">
  <path d="M 114 0 L 114 8 L 114 0 L 114 8 L 114 277 L 114 277 L 226 240 L 226 240 L 226 8 L 226 8 L 226 0 L 226 0 L 242 0 L 242 0 L 242 8 L 242 8 L 242 234 L 242 234 L 354 197 L 354 197 L 354 8 L 354 8 L 354 0 L 354 0 L 370 0 L 370 0 L 370 8 L 370 8 L 370 192 L 370 192 L 482 154 L 482 154 L 482 8 L 482 8 L 482 0 L 482 0 L 498 0 L 498 0 L 498 8 L 498 8 L 498 149 L 498 149 L 584 120 L 584 120 L 591 118 L 591 118 L 596 133 L 596 133 L 589 136 L 589 136 L 498 166 L 498 166 L 498 440 L 498 440 L 498 448 L 498 448 L 482 448 L 482 448 L 482 440 L 482 440 L 482 171 L 482 171 L 370 208 L 370 208 L 370 440 L 370 440 L 370 448 L 370 448 L 354 448 L 354 448 L 354 440 L 354 440 L 354 214 L 354 214 L 242 251 L 242 251 L 242 440 L 242 440 L 242 448 L 242 448 L 226 448 L 226 448 L 226 440 L 226 440 L 226 256 L 226 256 L 114 294 L 114 294 L 114 440 L 114 440 L 114 448 L 114 448 L 98 448 L 98 448 L 98 440 L 98 440 L 98 299 L 98 299 L 13 328 L 13 328 L 5 330 L 5 330 L 0 315 L 0 315 L 7 312 L 7 312 L 98 282 L 98 282 L 98 8 L 98 8 L 98 0 L 98 0 L 114 0 L 114 0 Z" />
</svg>