<svg xmlns="http://www.w3.org/2000/svg" viewBox="0 0 640 512">
  <path d="M 368 16 L 368 496 L 368 16 L 368 496 L 240 496 L 240 496 L 240 384 L 240 384 L 240 368 L 240 368 L 224 368 L 144 368 L 144 384 L 144 384 L 144 496 L 144 496 L 16 496 L 16 496 L 16 16 L 16 16 L 368 16 L 368 16 Z M 224 496 L 160 496 L 224 496 L 160 496 L 160 384 L 160 384 L 224 384 L 224 384 L 224 496 L 224 496 Z M 16 512 L 144 512 L 16 512 L 384 512 L 384 496 L 384 496 L 384 16 L 384 16 L 384 0 L 384 0 L 368 0 L 0 0 L 0 16 L 0 16 L 0 496 L 0 496 L 0 512 L 0 512 L 16 512 L 16 512 Z M 72 232 L 72 240 L 72 232 L 72 240 L 72 304 L 72 304 L 72 312 L 72 312 L 80 312 L 152 312 L 152 304 L 152 304 L 152 240 L 152 240 L 152 232 L 152 232 L 144 232 L 72 232 Z M 88 248 L 136 248 L 88 248 L 136 248 L 136 296 L 136 296 L 88 296 L 88 296 L 88 248 L 88 248 Z M 240 232 L 232 232 L 240 232 L 232 232 L 232 240 L 232 240 L 232 304 L 232 304 L 232 312 L 232 312 L 240 312 L 312 312 L 312 304 L 312 304 L 312 240 L 312 240 L 312 232 L 312 232 L 304 232 L 240 232 Z M 248 296 L 248 248 L 248 296 L 248 248 L 296 248 L 296 248 L 296 296 L 296 296 L 248 296 L 248 296 Z M 72 104 L 72 112 L 72 104 L 72 112 L 72 176 L 72 176 L 72 184 L 72 184 L 80 184 L 152 184 L 152 176 L 152 176 L 152 112 L 152 112 L 152 104 L 152 104 L 144 104 L 72 104 Z M 88 120 L 136 120 L 88 120 L 136 120 L 136 168 L 136 168 L 88 168 L 88 168 L 88 120 L 88 120 Z M 240 104 L 232 104 L 240 104 L 232 104 L 232 112 L 232 112 L 232 176 L 232 176 L 232 184 L 232 184 L 240 184 L 312 184 L 312 176 L 312 176 L 312 112 L 312 112 L 312 104 L 312 104 L 304 104 L 240 104 Z M 248 168 L 248 120 L 248 168 L 248 120 L 296 120 L 296 120 L 296 168 L 296 168 L 248 168 L 248 168 Z M 624 240 Q 623 267 605 285 L 605 285 L 605 285 Q 587 303 560 304 L 536 304 L 536 304 L 536 288 L 536 288 Q 537 261 555 243 Q 573 225 600 224 L 624 224 L 624 224 L 624 240 L 624 240 Z M 552 320 Q 537 332 528 349 Q 519 332 504 320 L 520 320 L 552 320 Z M 448 304 L 432 304 L 448 304 L 416 304 L 416 320 L 416 320 L 416 336 L 416 336 Q 417 377 448 400 L 432 400 L 416 400 L 416 416 L 416 416 L 416 432 L 416 432 Q 417 466 439 489 Q 462 511 496 512 L 520 512 L 560 512 Q 594 511 617 489 Q 639 466 640 432 L 640 416 L 640 416 L 640 400 L 640 400 L 624 400 L 608 400 Q 639 377 640 336 L 640 320 L 640 320 L 640 304 L 640 304 L 624 304 L 608 304 Q 639 281 640 240 L 640 224 L 640 224 L 640 208 L 640 208 L 624 208 L 600 208 Q 576 208 557 221 Q 538 233 528 253 Q 518 233 499 221 Q 480 208 456 208 L 432 208 L 416 208 L 416 224 L 416 224 L 416 240 L 416 240 Q 417 281 448 304 L 448 304 Z M 520 288 L 520 304 L 520 288 L 520 304 L 496 304 L 496 304 Q 469 303 451 285 Q 433 267 432 240 L 432 224 L 432 224 L 456 224 L 456 224 Q 483 225 501 243 Q 519 261 520 288 L 520 288 Z M 624 336 Q 623 363 605 381 L 605 381 L 605 381 Q 587 399 560 400 L 536 400 L 536 400 L 536 384 L 536 384 Q 537 357 555 339 Q 573 321 600 320 L 624 320 L 624 320 L 624 336 L 624 336 Z M 552 416 Q 537 428 528 445 Q 519 428 504 416 L 520 416 L 552 416 Z M 520 384 L 520 400 L 520 384 L 520 400 L 496 400 L 496 400 Q 469 399 451 381 Q 433 363 432 336 L 432 320 L 432 320 L 456 320 L 456 320 Q 483 321 501 339 Q 519 357 520 384 L 520 384 Z M 624 416 L 624 432 L 624 416 L 624 432 Q 623 459 605 477 Q 587 495 560 496 L 536 496 L 536 496 L 536 480 L 536 480 Q 537 453 555 435 Q 573 417 600 416 L 624 416 L 624 416 Z M 520 496 L 496 496 L 520 496 L 496 496 Q 469 495 451 477 Q 433 459 432 432 L 432 416 L 432 416 L 456 416 L 456 416 Q 483 417 501 435 Q 519 453 520 480 L 520 496 L 520 496 Z M 536 32 L 520 32 L 536 32 L 520 32 L 520 40 L 520 40 L 520 184 L 520 184 L 520 192 L 520 192 L 536 192 L 536 192 L 536 184 L 536 184 L 536 40 L 536 40 L 536 32 L 536 32 Z M 608 72 L 608 64 L 608 72 L 608 64 L 592 64 L 592 64 L 592 72 L 592 72 L 592 152 L 592 152 L 592 160 L 592 160 L 608 160 L 608 160 L 608 152 L 608 152 L 608 72 L 608 72 Z M 464 64 L 448 64 L 464 64 L 448 64 L 448 72 L 448 72 L 448 152 L 448 152 L 448 160 L 448 160 L 464 160 L 464 160 L 464 152 L 464 152 L 464 72 L 464 72 L 464 64 L 464 64 Z" />
</svg>