<svg xmlns="http://www.w3.org/2000/svg" viewBox="0 0 646 480">
  <path d="M 195 160 Q 196 106 232 69 L 232 69 L 232 69 Q 269 33 323 32 Q 377 33 414 69 Q 450 106 451 160 L 451 163 L 451 163 Q 451 175 449 186 L 434 276 L 434 276 L 421 349 L 421 349 Q 419 359 419 368 L 419 372 L 419 372 Q 419 398 430 420 L 371 386 L 371 386 L 367 384 L 367 384 L 363 384 L 279 384 L 275 386 L 275 386 L 216 420 L 216 420 Q 227 398 227 372 L 227 368 L 227 368 Q 227 359 225 349 L 212 276 L 212 276 L 197 186 L 197 186 Q 195 175 195 163 L 195 160 L 195 160 Z M 119 480 L 119 480 L 119 480 L 119 480 Q 120 480 121 480 Q 121 480 122 480 Q 177 479 225 452 L 287 416 L 287 416 L 359 416 L 359 416 L 421 452 L 421 452 Q 469 479 524 480 Q 525 480 527 480 L 527 480 L 527 480 L 528 480 L 528 480 Q 528 480 528 480 Q 567 479 596 455 Q 625 431 633 392 L 643 339 L 643 339 L 646 323 L 646 323 L 614 317 L 614 317 L 611 333 L 611 333 L 601 386 L 601 386 Q 596 413 575 430 Q 555 447 527 448 Q 526 448 525 448 Q 493 446 472 425 Q 452 404 451 372 L 451 368 L 451 368 Q 451 361 452 354 L 455 336 L 455 336 Q 473 351 498 352 Q 522 351 539 337 Q 557 322 562 299 L 567 274 L 567 274 Q 571 252 588 238 Q 604 224 627 224 L 643 224 L 643 224 L 643 192 L 643 192 L 627 192 L 627 192 Q 593 192 567 213 Q 542 234 535 268 L 530 293 L 530 293 Q 524 318 498 320 Q 482 319 472 308 Q 463 297 465 281 Q 465 281 465 281 Q 465 281 465 281 L 481 191 L 481 191 L 481 190 L 481 190 Q 483 177 483 165 L 483 163 L 483 163 L 483 160 L 483 160 Q 481 92 436 47 Q 391 2 323 0 Q 255 2 210 47 Q 165 92 163 160 L 163 163 L 163 163 L 163 165 L 163 165 Q 163 177 165 190 L 165 191 L 165 191 L 181 281 L 181 281 Q 181 281 181 281 Q 181 281 181 281 Q 183 297 174 308 Q 164 319 148 320 Q 122 318 116 293 L 111 268 L 111 268 Q 104 234 79 213 Q 53 193 19 192 L 3 192 L 3 192 L 3 224 L 3 224 L 19 224 L 19 224 Q 42 224 58 238 Q 75 252 79 274 L 84 299 L 84 299 Q 89 323 107 337 Q 124 352 148 352 Q 173 352 191 336 L 194 355 L 194 355 Q 195 361 195 368 L 195 372 L 195 372 Q 194 404 173 425 Q 153 447 121 448 Q 121 448 120 448 Q 119 448 119 448 Q 91 447 71 431 Q 50 414 45 386 L 35 333 L 35 333 L 32 317 L 32 317 L 0 323 L 0 323 L 3 339 L 3 339 L 13 392 L 13 392 Q 21 431 50 455 Q 79 479 118 480 Q 118 480 118 480 L 119 480 L 119 480 Z M 291 272 Q 290 257 275 256 Q 260 257 259 272 Q 260 287 275 288 Q 290 287 291 272 L 291 272 Z M 371 288 Q 386 287 387 272 Q 386 257 371 256 Q 356 257 355 272 Q 356 287 371 288 L 371 288 Z" />
</svg>