<svg xmlns="http://www.w3.org/2000/svg" viewBox="0 0 640 512">
  <path d="M 288 0 L 296 0 L 288 0 L 512 0 L 512 8 L 512 8 L 512 192 L 512 192 L 560 192 L 560 192 L 560 104 L 560 104 L 560 96 L 560 96 L 576 96 L 576 96 L 576 104 L 576 104 L 576 192 L 576 192 L 632 192 L 640 192 L 640 200 L 640 200 L 640 496 L 640 496 L 640 504 L 640 504 L 624 504 L 624 504 L 624 496 L 624 496 L 624 208 L 624 208 L 576 208 L 496 208 L 496 200 L 496 200 L 496 16 L 496 16 L 304 16 L 304 16 L 304 170 L 304 170 L 288 144 L 288 144 L 288 8 L 288 8 L 288 0 L 288 0 Z M 360 72 L 368 72 L 360 72 L 440 72 L 440 80 L 440 80 L 440 144 L 440 144 L 440 152 L 440 152 L 432 152 L 360 152 L 360 144 L 360 144 L 360 80 L 360 80 L 360 72 L 360 72 Z M 376 88 L 376 136 L 376 88 L 376 136 L 424 136 L 424 136 L 424 88 L 424 88 L 376 88 L 376 88 Z M 384 200 L 432 200 L 384 200 L 440 200 L 440 208 L 440 208 L 440 256 L 440 256 L 440 264 L 440 264 L 424 264 L 424 264 L 424 256 L 424 256 L 424 216 L 424 216 L 384 216 L 376 216 L 376 200 L 376 200 L 384 200 L 384 200 Z M 488 264 L 496 264 L 488 264 L 568 264 L 568 272 L 568 272 L 568 336 L 568 336 L 568 344 L 568 344 L 560 344 L 488 344 L 488 336 L 488 336 L 488 272 L 488 272 L 488 264 L 488 264 Z M 504 328 L 552 328 L 504 328 L 552 328 L 552 280 L 552 280 L 504 280 L 504 280 L 504 328 L 504 328 Z M 496 392 L 560 392 L 496 392 L 568 392 L 568 400 L 568 400 L 568 464 L 568 464 L 568 472 L 568 472 L 560 472 L 488 472 L 488 464 L 488 464 L 488 400 L 488 400 L 488 392 L 488 392 L 496 392 L 496 392 Z M 504 456 L 552 456 L 504 456 L 552 456 L 552 408 L 552 408 L 504 408 L 504 408 L 504 456 L 504 456 Z M 470 496 L 480 512 L 470 496 L 480 512 L 461 512 L 0 512 L 10 496 L 10 496 L 231 143 L 231 143 L 240 128 L 240 128 L 249 143 L 249 143 L 470 496 L 470 496 Z M 341 320 L 243 320 L 341 320 L 243 320 L 198 373 L 198 373 L 192 380 L 192 380 L 186 373 L 186 373 L 139 320 L 139 320 L 29 496 L 29 496 L 451 496 L 451 496 L 341 320 L 341 320 Z M 331 304 L 240 158 L 331 304 L 240 158 L 148 306 L 148 306 L 192 356 L 192 356 L 233 307 L 233 307 L 235 304 L 235 304 L 239 304 L 331 304 Z" />
</svg>