<svg xmlns="http://www.w3.org/2000/svg" viewBox="0 0 448 512">
  <path d="M 224 16 Q 267 16 304 37 L 304 37 L 304 37 Q 341 59 363 96 Q 384 134 384 176 Q 384 218 363 256 Q 341 293 304 315 Q 267 336 224 336 Q 181 336 144 315 Q 107 293 85 256 Q 64 218 64 176 Q 64 134 85 96 Q 107 59 144 37 Q 181 16 224 16 L 224 16 Z M 224 352 Q 272 352 312 328 L 312 328 L 312 328 Q 352 305 376 264 Q 400 222 400 176 Q 400 130 376 88 Q 352 47 312 24 Q 272 0 224 0 Q 176 0 136 24 Q 96 47 72 88 Q 48 130 48 176 Q 48 222 72 264 Q 96 305 136 328 Q 176 352 224 352 L 224 352 Z M 184 144 L 168 144 L 184 144 L 168 144 L 168 152 L 168 152 L 168 168 L 168 168 L 152 168 L 144 168 L 144 184 L 144 184 L 152 184 L 168 184 L 168 200 L 168 200 L 168 208 L 168 208 L 184 208 L 184 208 L 184 200 L 184 200 L 184 184 L 184 184 L 200 184 L 208 184 L 208 168 L 208 168 L 200 168 L 184 168 L 184 152 L 184 152 L 184 144 L 184 144 Z M 16 112 L 16 240 L 16 112 L 16 240 L 32 240 L 32 240 L 32 112 L 32 112 L 16 112 L 16 112 Z M 416 112 L 416 240 L 416 112 L 416 240 L 432 240 L 432 240 L 432 112 L 432 112 L 416 112 L 416 112 Z M 60 304 L 48 304 L 60 304 L 48 304 L 4 496 L 4 496 L 0 512 L 0 512 L 16 512 L 448 512 L 444 496 L 444 496 L 400 304 L 400 304 L 388 304 L 388 304 Q 381 312 374 320 L 387 320 L 387 320 L 428 496 L 428 496 L 352 496 L 352 496 L 352 416 L 352 416 L 352 408 L 352 408 L 344 408 L 96 408 L 96 416 L 96 416 L 96 496 L 96 496 L 20 496 L 20 496 L 61 320 L 61 320 L 74 320 L 74 320 Q 67 312 60 304 L 60 304 Z M 112 496 L 112 424 L 112 496 L 112 424 L 336 424 L 336 424 L 336 496 L 336 496 L 280 496 L 280 496 L 280 464 L 280 464 L 280 456 L 280 456 L 264 456 L 264 456 L 264 464 L 264 464 L 264 496 L 264 496 L 184 496 L 184 496 L 184 464 L 184 464 L 184 456 L 184 456 L 168 456 L 168 456 L 168 464 L 168 464 L 168 496 L 168 496 L 112 496 L 112 496 Z M 240 272 L 208 272 L 240 272 L 208 272 Q 167 271 140 244 Q 113 217 112 176 L 112 151 L 112 151 L 151 112 L 151 112 L 297 112 L 297 112 L 336 151 L 336 151 L 336 176 L 336 176 Q 335 217 308 244 Q 281 271 240 272 L 240 272 Z M 144 96 L 96 144 L 144 96 L 96 144 L 96 176 L 96 176 Q 97 224 129 255 Q 160 287 208 288 L 240 288 L 240 288 Q 288 287 319 255 Q 351 224 352 176 L 352 144 L 352 144 L 304 96 L 304 96 L 144 96 L 144 96 Z" />
</svg>