<svg xmlns="http://www.w3.org/2000/svg" viewBox="0 0 448 448">
  <path d="M 16 16 L 16 432 L 16 16 L 16 432 L 432 432 L 432 432 L 432 16 L 432 16 L 16 16 L 16 16 Z M 0 0 L 16 0 L 0 0 L 448 0 L 448 16 L 448 16 L 448 432 L 448 432 L 448 448 L 448 448 L 432 448 L 0 448 L 0 432 L 0 432 L 0 16 L 0 16 L 0 0 L 0 0 Z M 230 98 L 334 202 L 230 98 L 334 202 L 339 208 L 339 208 L 328 219 L 328 219 L 322 214 L 322 214 L 232 123 L 232 123 L 232 344 L 232 344 L 232 352 L 232 352 L 216 352 L 216 352 L 216 344 L 216 344 L 216 123 L 216 123 L 126 214 L 126 214 L 120 219 L 120 219 L 109 208 L 109 208 L 114 202 L 114 202 L 218 98 L 218 98 L 224 93 L 224 93 L 230 98 L 230 98 Z" />
</svg>