<svg xmlns="http://www.w3.org/2000/svg" viewBox="0 0 512 512">
  <path d="M 224 16 L 224 48 L 224 16 L 224 48 Q 224 62 233 71 Q 242 80 256 80 Q 270 80 279 71 Q 288 62 288 48 L 288 16 L 288 16 L 224 16 L 224 16 Z M 208 0 L 224 0 L 208 0 L 304 0 L 304 16 L 304 16 L 304 43 L 304 43 Q 334 50 360 64 L 368 64 L 448 64 L 448 80 L 448 80 L 448 112 L 448 112 Q 448 128 439 139 Q 459 171 467 208 L 496 208 L 512 208 L 512 224 L 512 224 L 512 256 L 512 256 Q 512 276 499 289 Q 486 303 466 304 Q 460 330 448 353 L 448 368 L 448 368 L 448 400 L 448 400 Q 447 420 434 434 Q 420 447 400 448 Q 380 447 366 434 Q 353 420 352 400 L 352 368 L 352 368 L 352 352 L 352 352 L 368 352 L 430 352 Q 443 329 450 302 Q 423 293 417 264 L 303 264 L 303 264 Q 299 285 282 297 L 367 501 L 367 501 L 372 512 L 372 512 L 360 512 L 140 512 L 145 501 L 145 501 L 230 297 L 230 297 Q 213 285 209 264 L 95 264 L 95 264 Q 89 293 62 302 Q 69 329 82 352 L 144 352 L 160 352 L 160 368 L 160 368 L 160 400 L 160 400 Q 159 420 146 434 Q 132 447 112 448 Q 92 447 78 434 Q 65 420 64 400 L 64 368 L 64 368 L 64 353 L 64 353 Q 52 330 46 304 Q 26 303 13 289 Q 0 276 0 256 L 0 224 L 0 224 L 0 208 L 0 208 L 16 208 L 45 208 Q 53 171 73 139 Q 64 128 64 112 L 64 80 L 64 80 L 64 64 L 64 64 L 80 64 L 152 64 Q 178 50 208 43 L 208 16 L 208 16 L 208 0 L 208 0 Z M 416 248 L 416 224 L 416 248 L 416 224 L 416 208 L 416 208 L 432 208 L 451 208 Q 444 177 428 151 Q 416 160 400 160 Q 384 160 372 151 L 295 228 L 295 228 Q 301 237 303 248 L 416 248 L 416 248 Z M 361 140 Q 352 128 352 112 L 352 80 L 352 80 L 352 78 L 352 78 Q 329 65 303 59 Q 294 89 264 95 L 264 209 L 264 209 Q 275 211 284 217 L 361 140 L 361 140 Z M 248 95 Q 218 89 209 59 Q 183 65 160 78 L 160 80 L 160 80 L 160 112 L 160 112 Q 160 128 151 140 L 228 217 L 228 217 Q 237 211 248 209 L 248 95 L 248 95 Z M 140 151 Q 128 160 112 160 Q 96 160 84 151 Q 69 177 61 208 L 80 208 L 96 208 L 96 224 L 96 224 L 96 248 L 96 248 L 209 248 L 209 248 Q 211 237 217 228 L 140 151 L 140 151 Z M 256 304 Q 250 304 245 303 L 164 496 L 164 496 L 348 496 L 348 496 L 267 303 L 267 303 Q 262 304 256 304 L 256 304 Z M 16 224 L 16 256 L 16 224 L 16 256 Q 16 270 25 279 Q 34 288 48 288 Q 62 288 71 279 Q 80 270 80 256 L 80 224 L 80 224 L 16 224 L 16 224 Z M 496 224 L 432 224 L 496 224 L 432 224 L 432 256 L 432 256 Q 432 270 441 279 Q 450 288 464 288 Q 478 288 487 279 Q 496 270 496 256 L 496 224 L 496 224 Z M 80 80 L 80 112 L 80 80 L 80 112 Q 80 126 89 135 Q 98 144 112 144 Q 126 144 135 135 Q 144 126 144 112 L 144 80 L 144 80 L 80 80 L 80 80 Z M 432 80 L 368 80 L 432 80 L 368 80 L 368 112 L 368 112 Q 368 126 377 135 Q 386 144 400 144 Q 414 144 423 135 Q 432 126 432 112 L 432 80 L 432 80 Z M 80 400 Q 80 414 89 423 L 89 423 L 89 423 Q 98 432 112 432 Q 126 432 135 423 Q 144 414 144 400 L 144 368 L 144 368 L 80 368 L 80 368 L 80 400 L 80 400 Z M 368 368 L 368 400 L 368 368 L 368 400 Q 368 414 377 423 Q 386 432 400 432 Q 414 432 423 423 Q 432 414 432 400 L 432 368 L 432 368 L 368 368 L 368 368 Z M 256 288 Q 270 288 279 279 L 279 279 L 279 279 Q 288 270 288 256 Q 288 242 279 233 Q 270 224 256 224 Q 242 224 233 233 Q 224 242 224 256 Q 224 270 233 279 Q 242 288 256 288 L 256 288 Z" />
</svg>