<svg xmlns="http://www.w3.org/2000/svg" viewBox="0 0 484 509">
  <path d="M 242 0 L 254 4 L 242 0 L 254 4 L 461 84 L 461 84 L 480 92 L 480 92 L 481 112 L 481 112 Q 484 150 476 203 Q 468 255 444 312 Q 420 369 374 420 Q 328 471 255 503 L 242 509 L 242 509 L 229 503 L 229 503 Q 156 471 110 420 Q 64 369 40 312 Q 16 255 8 203 Q 0 150 3 112 L 4 92 L 4 92 L 23 84 L 23 84 L 231 4 L 231 4 L 242 0 L 242 0 Z M 298 202 Q 297 178 282 162 L 282 162 L 282 162 Q 266 147 242 146 Q 218 147 202 162 Q 187 178 186 202 Q 188 237 218 253 L 218 322 L 218 322 L 218 346 L 218 346 L 266 346 L 266 346 L 266 322 L 266 322 L 266 253 L 266 253 Q 296 237 298 202 L 298 202 Z" />
</svg>