<svg xmlns="http://www.w3.org/2000/svg" viewBox="0 0 512 448">
  <path d="M 224 0 L 272 64 L 224 0 L 272 64 L 496 64 L 512 64 L 512 80 L 512 80 L 512 432 L 512 432 L 512 448 L 512 448 L 496 448 L 0 448 L 0 432 L 0 432 L 0 16 L 0 16 L 0 0 L 0 0 L 16 0 L 224 0 Z M 272 80 L 264 80 L 272 80 L 264 80 L 259 74 L 259 74 L 216 16 L 216 16 L 16 16 L 16 16 L 16 432 L 16 432 L 496 432 L 496 432 L 496 80 L 496 80 L 272 80 L 272 80 Z M 88 176 Q 89 153 108 141 Q 128 131 148 141 Q 167 153 168 176 Q 167 199 148 211 Q 128 221 108 211 Q 89 199 88 176 L 88 176 Z M 128 200 Q 150 198 152 176 Q 150 154 128 152 Q 106 154 104 176 Q 106 198 128 200 L 128 200 Z M 296 170 L 303 180 L 296 170 L 303 180 L 423 356 L 423 356 L 424 358 L 424 358 L 424 360 L 424 360 L 424 376 L 424 376 L 424 384 L 424 384 L 416 384 L 88 384 L 88 376 L 88 376 L 88 360 L 88 360 L 88 357 L 88 357 L 90 355 L 90 355 L 162 259 L 162 259 L 168 251 L 168 251 L 174 259 L 174 259 L 207 299 L 207 299 L 289 179 L 289 179 L 296 170 L 296 170 Z M 296 198 L 215 317 L 296 198 L 215 317 L 209 325 L 209 325 L 202 317 L 202 317 L 168 277 L 168 277 L 104 363 L 104 363 L 104 368 L 104 368 L 408 368 L 408 368 L 408 363 L 408 363 L 296 198 L 296 198 Z" />
</svg>