<svg xmlns="http://www.w3.org/2000/svg" viewBox="0 0 512 512">
  <path d="M 51.2 51.2 Q 29.6 52 15.2 66.4 L 15.2 66.4 Q 0.8 80.8 0 102.4 L 0 409.6 L 0 409.6 Q 0.8 431.2 15.2 445.6 Q 29.6 460 51.2 460.8 L 316 460.8 Q 300 449.6 288 435.2 L 51.2 435.2 Q 40 435.2 32.8 428 Q 25.6 420.8 25.6 409.6 Q 25.6 398.4 32.8 391.2 Q 40 384 51.2 384 L 261.6 384 Q 257.6 372 256.8 358.4 L 51.2 358.4 Q 36.8 358.4 25.6 365.6 L 25.6 102.4 Q 25.6 91.2 32.8 84 Q 40 76.8 51.2 76.8 L 332.8 76.8 L 332.8 220 Q 344.8 213.6 358.4 210.4 L 358.4 64 L 358.4 51.2 L 345.6 51.2 L 51.2 51.2 L 51.2 51.2 Z M 307.2 345.6 Q 307.2 321.6 319.2 300.8 L 319.2 300.8 Q 331.2 280 352 268 Q 372.8 256 396.8 256 Q 420.8 256 441.6 268 Q 462.4 280 474.4 300.8 Q 486.4 321.6 486.4 345.6 Q 486.4 369.6 474.4 390.4 Q 462.4 411.2 441.6 423.2 Q 420.8 435.2 396.8 435.2 Q 372.8 435.2 352 423.2 Q 331.2 411.2 319.2 390.4 Q 307.2 369.6 307.2 345.6 L 307.2 345.6 Z M 512 345.6 Q 512 314.4 496.8 288 L 496.8 288 Q 481.6 261.6 454.4 245.6 Q 427.2 230.4 396.8 230.4 Q 366.4 230.4 339.2 245.6 Q 312 261.6 296.8 288 Q 281.6 314.4 281.6 345.6 Q 281.6 376.8 296.8 403.2 Q 312 429.6 339.2 445.6 Q 366.4 460.8 396.8 460.8 Q 427.2 460.8 454.4 445.6 Q 481.6 429.6 496.8 403.2 Q 512 376.8 512 345.6 L 512 345.6 Z M 333.6 339.2 L 352 357.6 L 360.8 348 L 360.8 348 L 361.6 348 L 361.6 348 L 361.6 348 L 361.6 348 L 361.6 348 L 361.6 348 L 361.6 347.2 L 361.6 347.2 L 361.6 347.2 L 361.6 347.2 L 362.4 347.2 L 362.4 347.2 L 362.4 347.2 L 362.4 347.2 L 362.4 347.2 L 362.4 347.2 L 362.4 346.4 L 362.4 346.4 L 362.4 346.4 L 362.4 346.4 L 363.2 346.4 L 363.2 346.4 L 363.2 346.4 L 363.2 346.4 L 363.2 346.4 L 363.2 346.4 L 363.2 345.6 L 363.2 345.6 L 363.2 345.6 L 363.2 345.6 L 364 345.6 L 364 345.6 L 364 345.6 L 364 345.6 L 364 345.6 L 364 345.6 L 364 344.8 L 364 344.8 L 364 344.8 L 364 344.8 L 364.8 344.8 L 364.8 344.8 L 364.8 344.8 L 364.8 344.8 L 364.8 344.8 L 364.8 344.8 L 364.8 344 L 364.8 344 L 364.8 344 L 364.8 344 L 365.6 344 L 365.6 344 L 365.6 344 L 365.6 344 L 365.6 344 L 365.6 344 L 365.6 343.2 L 365.6 343.2 L 365.6 343.2 L 365.6 343.2 L 366.4 343.2 L 366.4 343.2 L 366.4 343.2 L 366.4 343.2 L 366.4 343.2 L 366.4 343.2 L 366.4 342.4 L 366.4 342.4 L 366.4 342.4 L 366.4 342.4 L 367.2 342.4 L 367.2 342.4 L 367.2 342.4 L 367.2 342.4 L 367.2 342.4 L 367.2 342.4 L 367.2 341.6 L 367.2 341.6 L 367.2 341.6 L 367.2 341.6 L 368 341.6 L 368 341.6 L 368 341.6 L 368 341.6 L 368 341.6 L 368 341.6 L 368 340.8 L 368 340.8 L 368 340.8 L 368 340.8 L 368.8 340.8 L 368.8 340.8 L 368.8 340.8 L 368.8 340.8 L 368.8 340.8 L 368.8 340.8 L 368.8 340 L 368.8 340 L 368.8 340 L 368.8 340 L 369.6 340 L 369.6 340 L 369.6 340 L 369.6 340 L 369.6 340 L 369.6 340 L 369.6 339.2 L 369.6 339.2 L 369.6 339.2 L 369.6 339.2 L 370.4 339.2 L 370.4 339.2 L 370.4 339.2 L 370.4 339.2 L 370.4 339.2 L 370.4 339.2 L 370.4 338.4 L 370.4 338.4 L 370.4 338.4 L 370.4 338.4 L 371.2 338.4 L 371.2 338.4 L 371.2 338.4 L 371.2 338.4 L 371.2 338.4 L 371.2 338.4 L 371.2 337.6 L 371.2 337.6 L 371.2 337.6 L 371.2 337.6 L 372 337.6 L 372 337.6 L 372 337.6 L 372 337.6 L 372 337.6 L 372 337.6 L 372 336.8 L 372 336.8 L 372 336.8 L 372 336.8 L 372.8 336.8 L 372.8 336.8 L 372.8 336.8 L 372.8 336.8 L 372.8 336.8 L 372.8 336.8 L 372.8 336 L 372.8 336 L 372.8 336 L 372.8 336 L 373.6 336 L 373.6 336 L 373.6 336 L 373.6 336 L 373.6 336 L 373.6 336 L 373.6 335.2 L 373.6 335.2 L 373.6 335.2 L 373.6 335.2 L 374.4 335.2 L 374.4 335.2 L 374.4 335.2 L 374.4 335.2 L 374.4 335.2 L 374.4 335.2 L 374.4 334.4 L 374.4 334.4 L 374.4 334.4 L 374.4 334.4 L 375.2 334.4 L 375.2 334.4 L 375.2 334.4 L 375.2 334.4 L 375.2 334.4 L 375.2 334.4 L 375.2 333.6 L 375.2 333.6 L 375.2 333.6 L 375.2 333.6 L 376 333.6 L 376 333.6 L 376 333.6 L 376 333.6 L 376 333.6 L 376 333.6 L 376 332.8 L 376 332.8 L 376 332.8 L 376 332.8 L 376.8 332.8 L 376.8 332.8 L 376.8 332.8 L 376.8 332.8 L 376.8 332.8 L 376.8 332.8 L 376.8 332 L 376.8 332 L 376.8 332 L 376.8 332 L 377.6 332 L 377.6 396.8 L 377.6 409.6 L 403.2 409.6 L 403.2 396.8 L 403.2 325.6 L 425.6 348 L 441.6 357.6 L 460 339.2 L 450.4 330.4 L 405.6 285.6 L 396.8 276 L 388 285.6 L 396.8 294.4 L 388 285.6 L 388 285.6 L 388 285.6 L 388 285.6 L 388 285.6 L 388 285.6 L 388 285.6 L 388 285.6 L 388 285.6 L 388 285.6 L 388 285.6 L 388 285.6 L 388 285.6 L 388 285.6 L 388 285.6 L 388 285.6 L 388 285.6 L 388 285.6 L 388 285.6 L 388 285.6 L 388 285.6 L 388 285.6 L 388 285.6 L 388 285.6 L 388 285.6 L 388 285.6 L 388 285.6 L 388 285.6 L 388 285.6 L 388 285.6 L 388 285.6 L 388 285.6 L 388 285.6 L 388 285.6 L 388 285.6 L 388 285.6 L 388 285.6 L 388 285.6 L 388 285.6 L 388 285.6 L 388 285.6 L 388 285.6 L 388 285.6 L 388 285.6 L 388 285.6 L 388 285.6 L 388 285.6 L 388 285.6 L 388 285.6 L 388 285.6 L 388 285.6 L 388 285.6 L 388 285.6 L 388 285.6 L 388 285.6 L 388 285.6 L 388 285.6 L 388 285.6 L 388 285.6 L 388 285.6 L 388 285.6 L 388 285.6 L 388 285.6 L 388 285.6 L 388 285.6 L 388 285.6 L 388 285.6 L 388 285.6 L 388 285.6 L 388 285.6 L 388 285.6 L 388 285.6 L 387.2 285.6 L 387.2 285.6 L 387.2 285.6 L 387.2 285.6 L 387.2 285.6 L 387.2 285.6 L 387.2 286.4 L 387.2 286.4 L 387.2 286.4 L 386.4 286.4 L 386.4 286.4 L 386.4 286.4 L 386.4 286.4 L 386.4 286.4 L 386.4 286.4 L 386.4 286.4 L 386.4 287.2 L 386.4 287.2 L 386.4 287.2 L 385.6 287.2 L 385.6 287.2 L 385.6 287.2 L 385.6 287.2 L 385.6 287.2 L 385.6 287.2 L 385.6 287.2 L 385.6 288 L 385.6 288 L 385.6 288 L 384.8 288 L 384.8 288 L 384.8 288 L 384.8 288 L 384.8 288 L 384.8 288 L 384.8 288 L 384.8 288.8 L 384.8 288.8 L 384.8 288.8 L 384 288.8 L 384 288.8 L 384 288.8 L 384 288.8 L 384 288.8 L 384 288.8 L 384 288.8 L 384 289.6 L 384 289.6 L 384 289.6 L 383.2 289.6 L 383.2 289.6 L 383.2 289.6 L 383.2 289.6 L 383.2 289.6 L 383.2 289.6 L 383.2 289.6 L 383.2 290.4 L 383.2 290.4 L 383.2 290.4 L 382.4 290.4 L 382.4 290.4 L 382.4 290.4 L 382.4 290.4 L 382.4 290.4 L 382.4 290.4 L 382.4 290.4 L 382.4 291.2 L 382.4 291.2 L 382.4 291.2 L 381.6 291.2 L 381.6 291.2 L 381.6 291.2 L 381.6 291.2 L 381.6 291.2 L 381.6 291.2 L 381.6 291.2 L 381.6 292 L 381.6 292 L 381.6 292 L 380.8 292 L 380.8 292 L 380.8 292 L 380.8 292 L 380.8 292 L 380.8 292 L 380.8 292 L 380.8 292.8 L 380.8 292.8 L 380.8 292.8 L 380 292.8 L 380 292.8 L 380 292.8 L 380 292.8 L 380 292.8 L 380 292.8 L 380 292.8 L 380 293.6 L 380 293.6 L 380 293.6 L 379.2 293.6 L 379.2 293.6 L 379.2 293.6 L 379.2 293.6 L 379.2 293.6 L 379.2 293.6 L 379.2 293.6 L 379.2 294.4 L 379.2 294.4 L 379.2 294.4 L 378.4 294.4 L 378.4 294.4 L 378.4 294.4 L 378.4 294.4 L 378.4 294.4 L 378.4 294.4 L 378.4 294.4 L 378.4 295.2 L 378.4 295.2 L 378.4 295.2 L 377.6 295.2 L 377.6 295.2 L 377.6 295.2 L 377.6 295.2 L 377.6 295.2 L 377.6 295.2 L 377.6 295.2 L 377.6 296 L 377.6 296 L 377.6 296 L 376.8 296 L 376.8 296 L 376.8 296 L 376.8 296 L 376.8 296 L 376.8 296 L 376.8 296 L 376.8 296.8 L 376.8 296.8 L 376.8 296.8 L 376 296.8 L 376 296.8 L 376 296.8 L 376 296.8 L 376 296.8 L 376 296.8 L 376 296.8 L 376 297.6 L 376 297.6 L 376 297.6 L 375.2 297.6 L 375.2 297.6 L 375.2 297.6 L 375.2 297.6 L 375.2 297.6 L 375.2 297.6 L 375.2 297.6 L 375.2 298.4 L 375.2 298.4 L 375.2 298.4 L 374.4 298.4 L 374.4 298.4 L 374.4 298.4 L 374.4 298.4 L 374.4 298.4 L 374.4 298.4 L 374.4 298.4 L 374.4 299.2 L 374.4 299.2 L 374.4 299.2 L 373.6 299.2 L 373.6 299.2 L 373.6 299.2 L 373.6 299.2 L 373.6 299.2 L 373.6 299.2 L 373.6 299.2 L 373.6 300 L 373.6 300 L 373.6 300 L 372.8 300 L 372.8 300 L 372.8 300 L 372.8 300 L 372.8 300 L 372.8 300 L 372.8 300 L 372.8 300.8 L 372.8 300.8 L 372.8 300.8 L 372 300.8 L 372 300.8 L 372 300.8 L 372 300.8 L 372 300.8 L 372 300.8 L 372 300.8 L 372 301.6 L 372 301.6 L 372 301.6 L 371.2 301.6 L 371.2 301.6 L 371.2 301.6 L 371.2 301.6 L 371.2 301.6 L 371.2 301.6 L 371.2 301.6 L 371.2 302.4 L 371.2 302.4 L 371.2 302.4 L 370.4 302.4 L 370.4 302.4 L 370.4 302.4 L 370.4 302.4 L 370.4 302.4 L 370.4 302.4 L 370.4 302.4 L 370.4 303.2 L 370.4 303.2 L 370.4 303.2 L 369.6 303.2 L 369.6 303.2 L 369.6 303.2 L 369.6 303.2 L 369.6 303.2 L 369.6 303.2 L 369.6 303.2 L 369.6 304 L 369.6 304 L 369.6 304 L 368.8 304 L 368.8 304 L 368.8 304 L 368.8 304 L 368.8 304 L 368.8 304 L 368.8 304 L 368.8 304.8 L 368.8 304.8 L 368.8 304.8 L 368 304.8 L 368 304.8 L 368 304.8 L 368 304.8 L 368 304.8 L 368 304.8 L 368 304.8 L 368 305.6 L 368 305.6 L 368 305.6 L 367.2 305.6 L 367.2 305.6 L 367.2 305.6 L 367.2 305.6 L 367.2 305.6 L 367.2 305.6 L 367.2 305.6 L 367.2 306.4 L 367.2 306.4 L 367.2 306.4 L 366.4 306.4 L 366.4 306.4 L 366.4 306.4 L 366.4 306.4 L 366.4 306.4 L 366.4 306.4 L 366.4 306.4 L 366.4 307.2 L 366.4 307.2 L 366.4 307.2 L 365.6 307.2 L 365.6 307.2 L 365.6 307.2 L 365.6 307.2 L 365.6 307.2 L 365.6 307.2 L 365.6 307.2 L 365.6 308 L 365.6 308 L 365.6 308 L 364.8 308 L 364.8 308 L 364.8 308 L 364.8 308 L 364.8 308 L 364.8 308 L 364.8 308 L 364.8 308.8 L 364.8 308.8 L 364.8 308.8 L 364 308.8 L 364 308.8 L 364 308.8 L 364 308.8 L 364 308.8 L 364 308.8 L 364 308.8 L 364 309.6 L 364 309.6 L 364 309.6 L 363.2 309.6 L 363.2 309.6 L 363.2 309.6 L 363.2 309.6 L 363.2 309.6 L 363.2 309.6 L 363.2 309.6 L 363.2 310.4 L 363.2 310.4 L 363.2 310.4 L 362.4 310.4 L 362.4 310.4 L 362.4 310.4 L 362.4 310.4 L 362.4 310.4 L 362.4 310.4 L 362.4 310.4 L 362.4 311.2 L 362.4 311.2 L 362.4 311.2 L 361.6 311.2 L 361.6 311.2 L 361.6 311.2 L 361.6 311.2 L 361.6 311.2 L 361.6 311.2 L 361.6 311.2 L 361.6 312 L 361.6 312 L 361.6 312 L 360.8 312 L 360.8 312 L 360.8 312 L 360.8 312 L 360.8 312 L 360.8 312 L 360.8 312 L 360.8 312.8 L 360.8 312.8 L 360.8 312.8 L 360 312.8 L 360 312.8 L 360 312.8 L 360 312.8 L 360 312.8 L 360 312.8 L 360 312.8 L 360 313.6 L 360 313.6 L 360 313.6 L 359.2 313.6 L 359.2 313.6 L 359.2 313.6 L 359.2 313.6 L 359.2 313.6 L 359.2 313.6 L 359.2 313.6 L 359.2 314.4 L 359.2 314.4 L 359.2 314.4 L 358.4 314.4 L 358.4 314.4 L 358.4 314.4 L 358.4 314.4 L 358.4 314.4 L 358.4 314.4 L 358.4 314.4 L 358.4 315.2 L 358.4 315.2 L 358.4 315.2 L 357.6 315.2 L 357.6 315.2 L 357.6 315.2 L 357.6 315.2 L 357.6 315.2 L 357.6 315.2 L 357.6 315.2 L 357.6 316 L 357.6 316 L 357.6 316 L 356.8 316 L 356.8 316 L 356.8 316 L 356.8 316 L 356.8 316 L 356.8 316 L 356.8 316 L 356.8 316.8 L 356.8 316.8 L 356.8 316.8 L 356 316.8 L 356 316.8 L 356 316.8 L 356 316.8 L 356 316.8 L 356 316.8 L 356 316.8 L 356 317.6 L 356 317.6 L 356 317.6 L 355.2 317.6 L 355.2 317.6 L 355.2 317.6 L 355.2 317.6 L 355.2 317.6 L 355.2 317.6 L 355.2 317.6 L 355.2 318.4 L 355.2 318.4 L 355.2 318.4 L 354.4 318.4 L 354.4 318.4 L 354.4 318.4 L 354.4 318.4 L 354.4 318.4 L 354.4 318.4 L 354.4 318.4 L 354.4 319.2 L 354.4 319.2 L 354.4 319.2 L 353.6 319.2 L 353.6 319.2 L 353.6 319.2 L 353.6 319.2 L 353.6 319.2 L 353.6 319.2 L 353.6 319.2 L 353.6 320 L 353.6 320 L 353.6 320 L 352.8 320 L 352.8 320 L 352.8 320 L 352.8 320 L 352.8 320 L 352.8 320 L 352.8 320 L 352.8 320.8 L 352.8 320.8 L 352.8 320.8 L 352 320.8 L 333.6 339.2 L 333.6 339.2 Z" />
</svg>