<svg xmlns="http://www.w3.org/2000/svg" viewBox="0 0 320 512">
  <path d="M 224 16 L 224 56 L 224 16 L 224 56 L 224 64 L 224 64 L 216 64 L 96 64 L 96 56 L 96 56 L 96 16 L 96 16 L 16 16 L 16 16 L 16 496 L 16 496 L 304 496 L 304 496 L 304 16 L 304 16 L 224 16 L 224 16 Z M 208 16 L 112 16 L 208 16 L 112 16 L 112 48 L 112 48 L 208 48 L 208 48 L 208 16 L 208 16 Z M 0 0 L 16 0 L 0 0 L 320 0 L 320 16 L 320 16 L 320 496 L 320 496 L 320 512 L 320 512 L 304 512 L 0 512 L 0 496 L 0 496 L 0 16 L 0 16 L 0 0 L 0 0 Z" />
</svg>