<svg xmlns="http://www.w3.org/2000/svg" viewBox="0 0 640 512">
  <path d="M 224 48 L 256 48 L 224 48 L 256 48 L 256 0 L 256 0 L 224 0 L 0 0 L 0 48 L 0 48 L 32 48 L 32 48 L 32 352 L 32 352 Q 33 393 60 420 Q 87 447 128 448 Q 145 448 160 443 L 160 432 L 160 432 L 160 416 L 160 416 L 168 403 L 168 403 L 224 312 L 224 312 L 224 48 L 224 48 Z M 80 48 L 176 48 L 80 48 L 176 48 L 176 160 L 176 160 L 80 160 L 80 160 L 80 48 L 80 48 Z M 80 208 L 176 208 L 80 208 L 176 208 L 176 352 L 176 352 Q 175 372 162 386 Q 148 399 128 400 Q 108 399 94 386 Q 81 372 80 352 L 80 208 L 80 208 Z M 312 0 L 288 0 L 312 0 L 288 0 L 288 48 L 288 48 L 312 48 L 320 48 L 320 217 L 320 217 L 196 419 L 196 419 L 192 425 L 192 425 L 192 432 L 192 432 L 192 488 L 192 488 L 192 512 L 192 512 L 216 512 L 640 512 L 640 488 L 640 488 L 640 432 L 640 432 L 640 425 L 640 425 L 636 419 L 636 419 L 512 217 L 512 217 L 512 48 L 512 48 L 520 48 L 544 48 L 544 0 L 544 0 L 520 0 L 312 0 Z M 464 48 L 464 224 L 464 48 L 464 224 L 464 231 L 464 231 L 468 237 L 468 237 L 519 320 L 519 320 L 313 320 L 313 320 L 364 237 L 364 237 L 368 231 L 368 231 L 368 224 L 368 224 L 368 48 L 368 48 L 464 48 L 464 48 Z M 240 439 L 284 368 L 240 439 L 284 368 L 549 368 L 549 368 L 592 439 L 592 439 L 592 464 L 592 464 L 240 464 L 240 464 L 240 439 L 240 439 Z" />
</svg>