<svg xmlns="http://www.w3.org/2000/svg" viewBox="0 0 512 512">
  <path d="M 16 345 L 16 167 L 16 345 L 16 167 L 167 16 L 167 16 L 345 16 L 345 16 L 496 167 L 496 167 L 496 345 L 496 345 L 345 496 L 345 496 L 167 496 L 167 496 L 16 345 L 16 345 Z M 160 0 L 0 160 L 160 0 L 0 160 L 0 352 L 0 352 L 160 512 L 160 512 L 352 512 L 352 512 L 512 352 L 512 352 L 512 160 L 512 160 L 352 0 L 352 0 L 160 0 L 160 0 Z M 264 160 L 248 160 L 264 160 L 248 160 L 248 168 L 248 168 L 248 248 L 248 248 L 168 248 L 160 248 L 160 264 L 160 264 L 168 264 L 248 264 L 248 344 L 248 344 L 248 352 L 248 352 L 264 352 L 264 352 L 264 344 L 264 344 L 264 264 L 264 264 L 344 264 L 352 264 L 352 248 L 352 248 L 344 248 L 264 248 L 264 168 L 264 168 L 264 160 L 264 160 Z" />
</svg>