<svg xmlns="http://www.w3.org/2000/svg" viewBox="0 0 512 448">
  <path d="M 16 8 L 16 0 L 16 8 L 16 0 L 0 0 L 0 0 L 0 8 L 0 8 L 0 440 L 0 440 L 0 448 L 0 448 L 8 448 L 512 448 L 512 432 L 512 432 L 504 432 L 16 432 L 16 8 L 16 8 Z M 235 75 L 224 64 L 235 75 L 224 64 L 213 75 L 213 75 L 96 192 L 96 192 L 96 336 L 96 336 L 96 352 L 96 352 L 112 352 L 480 352 L 480 336 L 480 336 L 480 208 L 480 208 L 394 108 L 394 108 L 384 96 L 384 96 L 373 107 L 373 107 L 331 149 L 331 149 L 320 160 L 320 160 L 309 149 L 309 149 L 235 75 L 235 75 Z M 331 171 L 383 120 L 331 171 L 383 120 L 464 214 L 464 214 L 464 336 L 464 336 L 112 336 L 112 336 L 112 199 L 112 199 L 224 87 L 224 87 L 309 171 L 309 171 L 320 183 L 320 183 L 331 171 L 331 171 Z" />
</svg>