<svg xmlns="http://www.w3.org/2000/svg" viewBox="0 0 448 486">
  <path d="M 438 121 L 443 115 L 438 121 L 443 115 L 438 109 L 438 109 L 334 5 L 334 5 L 328 0 L 328 0 L 317 11 L 317 11 L 322 17 L 322 17 L 413 107 L 413 107 L 8 107 L 0 107 L 0 123 L 0 123 L 8 123 L 413 123 L 322 213 L 322 213 L 317 219 L 317 219 L 328 230 L 328 230 L 334 225 L 334 225 L 438 121 L 438 121 Z M 10 377 L 114 481 L 10 377 L 114 481 L 120 486 L 120 486 L 131 475 L 131 475 L 126 469 L 126 469 L 35 379 L 35 379 L 440 379 L 448 379 L 448 363 L 448 363 L 440 363 L 35 363 L 126 273 L 126 273 L 131 267 L 131 267 L 120 256 L 120 256 L 114 261 L 114 261 L 10 365 L 10 365 L 5 371 L 5 371 L 10 377 L 10 377 Z" />
</svg>