<svg xmlns="http://www.w3.org/2000/svg" viewBox="0 0 380 507">
  <path d="M 300 16 L 340 16 L 300 16 L 348 16 L 348 0 L 348 0 L 340 0 L 132 0 Q 88 1 58 30 Q 29 60 28 104 Q 29 148 58 178 Q 88 207 132 208 L 188 208 L 188 208 L 188 312 L 188 312 L 188 320 L 188 320 L 204 320 L 204 320 L 204 312 L 204 312 L 204 208 L 204 208 L 204 200 L 204 200 L 204 24 L 204 24 L 204 16 L 204 16 L 284 16 L 284 16 L 284 312 L 284 312 L 284 320 L 284 320 L 300 320 L 300 320 L 300 312 L 300 312 L 300 16 L 300 16 Z M 188 24 L 188 192 L 188 24 L 188 192 L 132 192 L 132 192 Q 95 191 70 166 Q 45 141 44 104 Q 45 67 70 42 Q 95 17 132 16 L 180 16 L 188 16 L 188 24 L 188 24 Z M 105 342 L 111 337 L 105 342 L 111 337 L 101 325 L 101 325 L 95 330 L 95 330 L 7 410 L 7 410 L 0 416 L 0 416 L 7 422 L 7 422 L 95 502 L 95 502 L 101 507 L 101 507 L 111 496 L 111 496 L 105 490 L 105 490 L 33 424 L 33 424 L 372 424 L 380 424 L 380 408 L 380 408 L 372 408 L 33 408 L 105 342 L 105 342 Z" />
</svg>