<svg xmlns="http://www.w3.org/2000/svg" viewBox="0 0 640 512">
  <path d="M 16 5 L 10 0 L 16 5 L 10 0 L 0 13 L 0 13 L 6 18 L 6 18 L 624 507 L 624 507 L 630 512 L 630 512 L 640 500 L 640 500 L 634 495 L 634 495 L 16 5 L 16 5 Z M 544 48 L 544 32 L 544 48 L 544 32 L 528 32 L 153 32 L 173 48 L 173 48 L 528 48 L 528 48 L 528 329 L 528 329 L 544 341 L 544 341 L 544 48 L 544 48 Z M 96 171 L 96 464 L 96 171 L 96 464 L 96 480 L 96 480 L 112 480 L 488 480 L 467 464 L 467 464 L 112 464 L 112 464 L 112 184 L 112 184 L 96 171 L 96 171 Z M 184 400 L 386 400 L 184 400 L 386 400 L 366 384 L 366 384 L 192 384 L 192 384 L 192 247 L 192 247 L 176 234 L 176 234 L 176 392 L 176 392 L 176 400 L 176 400 L 184 400 L 184 400 Z M 464 120 L 464 112 L 464 120 L 464 112 L 456 112 L 312 112 L 312 120 L 312 120 L 312 158 L 312 158 L 328 171 L 328 171 L 328 128 L 328 128 L 448 128 L 448 128 L 448 265 L 448 265 L 464 278 L 464 278 L 464 120 L 464 120 Z M 256 112 L 254 112 L 256 112 L 254 112 L 256 114 L 256 114 L 256 112 L 256 112 Z" />
</svg>