<svg xmlns="http://www.w3.org/2000/svg" viewBox="0 0 512 512">
  <path d="M 16 256 Q 17 189 49 135 L 49 135 L 49 135 Q 81 81 135 49 L 135 49 L 135 49 Q 189 17 256 16 Q 323 17 377 49 Q 431 81 463 135 Q 495 189 496 256 Q 496 272 494 287 L 510 289 L 510 289 Q 512 273 512 256 Q 511 184 477 127 Q 443 69 385 35 Q 328 1 256 0 Q 184 1 127 35 Q 69 69 35 127 Q 1 184 0 256 Q 1 328 35 385 Q 69 443 127 477 Q 184 511 256 512 Q 329 511 388 475 L 380 462 L 380 462 Q 325 495 256 496 Q 189 495 135 463 Q 81 431 49 377 Q 17 323 16 256 L 16 256 Z M 420 281 L 411 276 L 420 281 L 411 276 L 408 286 L 408 286 Q 393 340 352 374 Q 311 407 256 408 Q 201 407 160 374 Q 119 340 104 286 L 88 290 L 88 290 Q 105 349 150 386 Q 195 423 256 424 Q 303 423 342 400 L 398 435 L 398 435 Q 425 450 452 443 Q 480 436 496 410 Q 511 383 504 355 Q 496 327 471 311 L 420 281 L 420 281 Z M 407 421 L 357 390 L 407 421 L 357 390 Q 402 356 421 300 L 462 325 L 462 325 Q 482 337 488 359 Q 494 380 482 401 Q 470 421 448 427 Q 427 432 407 421 L 407 421 Z M 151 186 Q 162 168 176 168 Q 189 168 201 186 Q 212 204 216 226 L 232 223 L 232 223 Q 227 199 214 177 Q 201 155 176 152 Q 150 155 137 177 Q 124 199 120 223 L 135 226 L 135 226 Q 139 204 151 186 L 151 186 Z M 296 226 Q 300 204 311 186 Q 322 168 336 168 Q 349 168 361 186 Q 372 204 376 226 L 392 223 L 392 223 Q 387 199 374 177 Q 361 155 336 152 Q 310 155 297 177 Q 284 199 280 223 L 296 226 L 296 226 Z" />
</svg>