<svg xmlns="http://www.w3.org/2000/svg" viewBox="0 0 448 512">
  <path d="M 184 0 L 184 8 L 184 0 L 184 8 L 184 22 L 184 22 Q 142 36 115 70 Q 89 105 88 152 L 88 160 L 88 160 L 72 160 L 64 160 L 64 176 L 64 176 L 72 176 L 384 176 L 384 160 L 384 160 L 376 160 L 360 160 L 360 152 L 360 152 Q 359 105 333 70 Q 306 36 264 22 L 264 8 L 264 8 L 264 0 L 264 0 L 256 0 L 184 0 Z M 184 39 L 184 88 L 184 39 L 184 88 L 184 96 L 184 96 L 200 96 L 200 96 L 200 88 L 200 88 L 200 16 L 200 16 L 248 16 L 248 16 L 248 88 L 248 88 L 248 96 L 248 96 L 264 96 L 264 96 L 264 88 L 264 88 L 264 39 L 264 39 Q 300 52 321 82 Q 343 112 344 152 L 344 160 L 344 160 L 104 160 L 104 160 L 104 152 L 104 152 Q 105 112 127 82 Q 148 52 184 39 L 184 39 Z M 224 320 Q 274 319 309 288 L 309 288 L 309 288 Q 344 256 351 208 L 335 208 L 335 208 Q 328 250 298 276 Q 267 303 224 304 Q 181 303 150 276 Q 120 250 113 208 L 97 208 L 97 208 Q 104 256 139 288 Q 174 319 224 320 L 224 320 Z M 60 368 L 388 368 L 60 368 L 388 368 L 427 496 L 427 496 L 22 496 L 22 496 L 60 368 L 60 368 Z M 443 496 L 400 352 L 443 496 L 400 352 L 48 352 L 48 352 L 5 496 L 5 496 L 0 512 L 0 512 L 17 512 L 448 512 L 443 496 L 443 496 Z" />
</svg>