<svg xmlns="http://www.w3.org/2000/svg" viewBox="0 0 640 512">
  <path d="M 272 0 L 296 0 L 272 0 L 532 0 L 534 3 L 534 3 L 638 123 L 638 123 L 640 125 L 640 125 L 640 128 L 640 128 L 640 192 L 640 192 L 640 200 L 640 200 L 632 200 L 533 200 L 530 198 L 530 198 L 501 168 L 501 168 L 480 168 L 480 168 L 480 216 L 480 216 L 614 317 L 614 317 L 637 334 L 637 334 L 640 336 L 640 336 L 640 340 L 640 340 L 640 368 L 640 368 L 640 448 L 640 448 L 640 504 L 640 504 L 640 512 L 640 512 L 632 512 L 0 512 L 0 504 L 0 504 L 0 440 L 0 440 L 0 432 L 0 432 L 8 432 L 38 432 L 439 388 L 439 388 L 361 289 L 361 289 L 356 283 L 356 283 L 355 282 L 355 282 L 352 280 L 352 280 L 352 276 L 352 276 L 352 248 L 352 248 L 352 138 L 352 138 L 293 111 L 293 111 L 280 106 L 280 106 L 291 98 L 291 98 L 347 56 L 347 56 L 291 14 L 291 14 L 272 0 L 272 0 Z M 320 16 L 365 50 L 320 16 L 365 50 L 373 56 L 373 56 L 365 62 L 365 62 L 312 102 L 312 102 L 363 125 L 363 125 L 368 127 L 368 127 L 368 132 L 368 132 L 368 248 L 368 248 L 368 272 L 368 272 L 368 272 L 368 272 L 373 279 L 373 279 L 454 382 L 454 382 L 456 384 L 456 384 L 456 387 L 456 387 L 456 395 L 456 395 L 456 403 L 456 403 L 449 403 L 449 403 L 39 448 L 39 448 L 39 448 L 39 448 L 38 448 L 16 448 L 16 496 L 16 496 L 40 496 L 624 496 L 624 448 L 624 448 L 624 368 L 624 368 L 624 344 L 624 344 L 605 330 L 605 330 L 467 226 L 467 226 L 464 224 L 464 224 L 464 220 L 464 220 L 464 160 L 464 160 L 464 152 L 464 152 L 472 152 L 507 152 L 510 154 L 510 154 L 539 184 L 539 184 L 624 184 L 624 184 L 624 131 L 624 131 L 524 16 L 524 16 L 440 16 L 320 16 Z M 320 193 L 320 212 L 320 193 L 320 212 L 161 106 L 161 106 L 43 230 L 43 230 L 191 216 L 191 216 L 213 214 L 213 214 L 198 230 L 198 230 L 123 304 L 123 304 L 332 304 L 332 304 Q 335 312 339 320 L 104 320 L 85 320 L 98 306 L 98 306 L 171 234 L 171 234 L 23 248 L 23 248 L 2 250 L 2 250 L 17 235 L 17 235 L 154 91 L 154 91 L 159 86 L 159 86 L 164 89 L 164 89 L 320 193 L 320 193 Z M 492 65 L 524 81 L 492 65 L 524 81 L 531 84 L 531 84 L 524 99 L 524 99 L 516 95 L 516 95 L 484 79 L 484 79 L 477 76 L 477 76 L 484 61 L 484 61 L 492 65 L 492 65 Z" />
</svg>