<svg xmlns="http://www.w3.org/2000/svg" viewBox="0 0 576 448">
  <path d="M 560 16 L 560 432 L 560 16 L 560 432 L 16 432 L 16 432 L 16 16 L 16 16 L 560 16 L 560 16 Z M 16 0 L 0 0 L 16 0 L 0 0 L 0 16 L 0 16 L 0 432 L 0 432 L 0 448 L 0 448 L 16 448 L 576 448 L 576 432 L 576 432 L 576 16 L 576 16 L 576 0 L 576 0 L 560 0 L 16 0 Z M 279 116 L 273 133 L 279 116 L 273 133 L 214 287 L 214 287 L 175 228 L 175 228 L 172 224 L 172 224 L 168 224 L 80 224 L 80 80 L 80 80 L 496 80 L 496 80 L 496 368 L 496 368 L 80 368 L 80 368 L 80 240 L 80 240 L 164 240 L 164 240 L 209 308 L 209 308 L 218 321 L 218 321 L 223 307 L 223 307 L 281 156 L 281 156 L 321 236 L 321 236 L 323 240 L 323 240 L 328 240 L 416 240 L 416 224 L 416 224 L 408 224 L 333 224 L 287 132 L 287 132 L 279 116 L 279 116 Z M 64 64 L 64 80 L 64 64 L 64 80 L 64 368 L 64 368 L 64 384 L 64 384 L 80 384 L 512 384 L 512 368 L 512 368 L 512 80 L 512 80 L 512 64 L 512 64 L 496 64 L 64 64 Z" />
</svg>