<svg xmlns="http://www.w3.org/2000/svg" viewBox="0 0 448 448">
  <path d="M 16 16 L 16 432 L 16 16 L 16 432 L 432 432 L 432 432 L 432 16 L 432 16 L 16 16 L 16 16 Z M 0 0 L 16 0 L 0 0 L 448 0 L 448 16 L 448 16 L 448 432 L 448 432 L 448 448 L 448 448 L 432 448 L 0 448 L 0 432 L 0 432 L 0 16 L 0 16 L 0 0 L 0 0 Z M 232 109 Q 240 109 249 110 Q 255 111 268 114 Q 280 116 287 118 L 295 120 L 295 120 L 291 135 L 291 135 L 283 133 L 283 133 Q 277 132 265 129 Q 253 127 246 126 Q 211 122 187 132 Q 164 142 161 160 Q 157 182 177 195 Q 198 207 223 212 Q 223 212 223 213 Q 227 214 231 215 Q 231 215 231 215 Q 263 222 289 238 Q 316 257 311 291 Q 304 321 275 332 Q 256 340 232 340 L 232 384 L 232 384 L 216 384 L 216 384 L 216 339 L 216 339 Q 211 338 207 338 Q 207 338 207 338 Q 197 336 184 332 Q 170 328 158 324 Q 158 324 158 324 Q 158 324 158 324 Q 158 324 158 324 Q 154 323 150 321 Q 146 320 142 319 L 147 304 L 147 304 Q 151 305 155 306 Q 159 307 163 309 Q 163 309 163 309 Q 163 309 163 309 Q 164 309 166 309 Q 190 318 210 322 Q 246 327 269 317 Q 291 308 295 288 Q 299 264 280 251 Q 259 238 226 230 Q 223 229 220 228 Q 192 222 168 208 Q 140 190 145 157 Q 152 129 181 117 Q 196 110 216 109 L 216 64 L 216 64 L 232 64 L 232 64 L 232 109 L 232 109 Z" />
</svg>