<svg xmlns="http://www.w3.org/2000/svg" viewBox="0 0 512 512">
  <path d="M 282.4 102.4 Q 304.8 78.4 307.2 76.8 L 307.2 76.8 Q 307.2 76.8 307.2 76.8 Q 308.8 77.6 327.2 96.8 Q 345.6 116 364 145.6 Q 382.4 174.4 384 204.8 Q 382.4 259.2 346.4 295.2 Q 310.4 331.2 256 332.8 Q 201.6 331.2 165.6 295.2 Q 129.6 259.2 128 204.8 Q 129.6 168.8 154.4 133.6 Q 179.2 98.4 204 75.2 Q 228.8 52 230.4 51.2 Q 230.4 51.2 230.4 51.2 Q 231.2 52 246.4 65.6 Q 262.4 79.2 282.4 102.4 L 282.4 102.4 Z M 296 269.6 Q 314.4 256 318.4 235.2 L 318.4 235.2 Q 322.4 213.6 312 192.8 Q 311.2 190.4 309.6 188 Q 308 185.6 306.4 183.2 L 277.6 216.8 Q 276.8 216 265.6 201.6 Q 254.4 187.2 242.4 172 Q 230.4 156.8 228 153.6 Q 210.4 175.2 200.8 190.4 Q 192 205.6 192 219.2 Q 192.8 248.8 211.2 264.8 Q 228.8 281.6 256.8 281.6 Q 278.4 281.6 296 269.6 L 296 269.6 Z M 25.6 256 L 44.8 256 L 83.2 256 L 102.4 256 L 102.4 294.4 L 83.2 294.4 L 64 294.4 L 64 358.4 L 448 358.4 L 448 294.4 L 428.8 294.4 L 409.6 294.4 L 409.6 256 L 428.8 256 L 467.2 256 L 486.4 256 L 486.4 275.2 L 486.4 358.4 L 512 358.4 L 512 396.8 L 512 422.4 L 512 460.8 L 473.6 460.8 L 38.4 460.8 L 0 460.8 L 0 422.4 L 0 396.8 L 0 358.4 L 25.6 358.4 L 25.6 275.2 L 25.6 256 L 25.6 256 Z M 281.6 409.6 Q 281.6 416.8 278.4 422.4 L 336 422.4 Q 332.8 416.8 332.8 409.6 Q 332.8 402.4 336 396.8 L 278.4 396.8 Q 281.6 402.4 281.6 409.6 L 281.6 409.6 Z M 384 409.6 Q 384 416.8 380.8 422.4 L 473.6 422.4 L 473.6 396.8 L 380.8 396.8 Q 384 402.4 384 409.6 L 384 409.6 Z M 131.2 396.8 L 38.4 396.8 L 38.4 422.4 L 131.2 422.4 Q 128 416.8 128 409.6 Q 128 402.4 131.2 396.8 L 131.2 396.8 Z M 176 396.8 Q 179.2 402.4 179.2 409.6 Q 179.2 416.8 176 422.4 L 233.6 422.4 Q 230.4 416.8 230.4 409.6 Q 230.4 402.4 233.6 396.8 L 176 396.8 L 176 396.8 Z" />
</svg>