<svg xmlns="http://www.w3.org/2000/svg" viewBox="0 0 512 512">
  <path d="M 496 256 Q 495 191 464 136 L 464 136 L 464 136 Q 432 81 376 48 Q 319 16 256 16 Q 193 16 136 48 Q 80 81 48 136 Q 17 191 16 256 Q 17 321 48 376 Q 80 431 136 464 Q 193 496 256 496 Q 319 496 376 464 Q 432 431 464 376 Q 495 321 496 256 L 496 256 Z M 0 256 Q 1 186 34 128 L 34 128 L 34 128 Q 68 70 128 34 Q 189 0 256 0 Q 323 0 384 34 Q 444 70 478 128 Q 511 186 512 256 Q 511 326 478 384 Q 444 442 384 478 Q 323 512 256 512 Q 189 512 128 478 Q 68 442 34 384 Q 1 326 0 256 L 0 256 Z M 160 160 L 168 160 L 160 160 L 196 160 L 218 131 L 218 131 L 220 128 L 220 128 L 224 128 L 292 128 L 294 131 L 294 131 L 316 160 L 316 160 L 328 160 L 360 160 L 360 176 L 360 176 L 352 176 L 343 176 L 328 384 L 328 384 L 184 384 L 184 384 L 169 176 L 169 176 L 160 176 L 152 176 L 152 160 L 152 160 L 160 160 L 160 160 Z M 216 160 L 296 160 L 216 160 L 296 160 L 284 144 L 284 144 L 228 144 L 228 144 L 216 160 L 216 160 Z M 327 176 L 185 176 L 327 176 L 185 176 L 199 368 L 199 368 L 313 368 L 313 368 L 327 176 L 327 176 Z" />
</svg>