<svg xmlns="http://www.w3.org/2000/svg" viewBox="0 0 512 512">
  <path d="M 136 0 L 128 0 L 136 0 L 128 0 L 128 8 L 128 8 L 128 72 L 128 72 L 112 72 L 112 72 Q 64 73 33 105 Q 1 136 0 184 L 0 192 L 0 192 L 16 192 L 16 192 L 16 184 L 16 184 Q 17 143 44 116 Q 71 89 112 88 L 128 88 L 128 88 L 128 139 L 128 139 Q 99 153 82 179 Q 64 206 64 240 L 64 496 L 64 496 L 64 512 L 64 512 L 80 512 L 288 512 L 288 496 L 288 496 L 288 240 L 288 240 Q 288 206 270 179 Q 253 153 224 139 L 224 88 L 224 88 L 288 88 L 288 88 L 288 128 L 288 128 L 496 158 L 496 158 L 512 160 L 512 160 L 512 144 L 512 144 L 512 16 L 512 16 L 512 0 L 512 0 L 496 2 L 496 2 L 288 32 L 288 32 L 288 72 L 288 72 L 224 72 L 224 72 L 224 8 L 224 8 L 224 0 L 224 0 L 216 0 L 136 0 Z M 304 80 L 304 46 L 304 80 L 304 46 L 496 18 L 496 18 L 496 142 L 496 142 L 304 114 L 304 114 L 304 80 L 304 80 Z M 212 151 Q 213 151 214 152 Q 240 163 256 186 Q 272 210 272 240 L 272 400 L 272 400 L 80 400 L 80 400 L 80 240 L 80 240 Q 80 210 96 186 Q 112 163 139 152 Q 139 151 140 151 Q 157 144 176 144 Q 195 144 212 151 L 212 151 Z M 208 133 Q 193 128 176 128 Q 159 128 144 133 L 144 16 L 144 16 L 208 16 L 208 16 L 208 133 L 208 133 Z M 80 496 L 80 416 L 80 496 L 80 416 L 272 416 L 272 416 L 272 496 L 272 496 L 80 496 L 80 496 Z" />
</svg>