<svg xmlns="http://www.w3.org/2000/svg" viewBox="0 0 512 512">
  <path d="M 440.8889 71.111115 L 440.8889 440.8889 L 469.33334 440.8889 L 469.33334 71.111115 L 440.8889 71.111115 L 440.8889 71.111115 Z M 398.22223 28.444445 L 440.8889 28.444445 L 469.33334 28.444445 L 512 28.444445 L 512 71.111115 L 512 440.8889 L 512 483.55554 L 469.33334 483.55554 L 440.8889 483.55554 L 398.22223 483.55554 L 398.22223 440.8889 L 398.22223 71.111115 L 398.22223 28.444445 L 398.22223 28.444445 Z M 305.77777 184.88889 L 305.77777 440.8889 L 334.22223 440.8889 L 334.22223 184.88889 L 305.77777 184.88889 L 305.77777 184.88889 Z M 263.1111 142.22223 L 305.77777 142.22223 L 334.22223 142.22223 L 376.8889 142.22223 L 376.8889 184.88889 L 376.8889 440.8889 L 376.8889 483.55554 L 334.22223 483.55554 L 305.77777 483.55554 L 263.1111 483.55554 L 263.1111 440.8889 L 263.1111 184.88889 L 263.1111 142.22223 L 263.1111 142.22223 Z M 199.11111 298.66666 L 170.66667 298.66666 L 170.66667 440.8889 L 199.11111 440.8889 L 199.11111 298.66666 L 199.11111 298.66666 Z M 170.66667 256 L 199.11111 256 L 241.77777 256 L 241.77777 298.66666 L 241.77777 440.8889 L 241.77777 483.55554 L 199.11111 483.55554 L 170.66667 483.55554 L 128 483.55554 L 128 440.8889 L 128 298.66666 L 128 256 L 170.66667 256 L 170.66667 256 Z M 42.666668 412.44446 L 42.666668 440.8889 L 71.111115 440.8889 L 71.111115 412.44446 L 42.666668 412.44446 L 42.666668 412.44446 Z M 0 369.77777 L 42.666668 369.77777 L 71.111115 369.77777 L 113.77778 369.77777 L 113.77778 412.44446 L 113.77778 440.8889 L 113.77778 483.55554 L 71.111115 483.55554 L 42.666668 483.55554 L 0 483.55554 L 0 440.8889 L 0 412.44446 L 0 369.77777 L 0 369.77777 Z" />
</svg>