<svg xmlns="http://www.w3.org/2000/svg" viewBox="0 0 512 512">
  <path d="M 366 46 L 352 32 L 366 46 L 352 32 L 371 28 L 371 28 L 495 3 L 495 3 L 512 0 L 512 0 L 509 17 L 509 17 L 484 141 L 484 141 L 480 160 L 480 160 L 466 146 L 466 146 L 422 102 L 422 102 L 179 345 L 179 345 L 200 416 L 200 416 L 117 499 L 117 499 L 104 512 L 104 512 L 99 495 L 99 495 L 80 432 L 80 432 L 17 413 L 17 413 L 0 408 L 0 408 L 13 395 L 13 395 L 96 312 L 96 312 L 167 333 L 167 333 L 410 90 L 410 90 L 366 46 L 366 46 Z M 161 348 L 101 330 L 161 348 L 101 330 L 30 400 L 30 400 L 85 417 L 85 417 L 93 419 L 93 419 L 95 427 L 95 427 L 112 482 L 112 482 L 182 411 L 182 411 L 164 351 L 164 351 L 161 348 L 161 348 Z M 470 128 L 492 20 L 470 128 L 492 20 L 385 42 L 385 42 L 470 128 L 470 128 Z M 192 64 Q 278 65 343 113 L 331 124 L 331 124 Q 271 81 192 80 Q 108 82 45 130 L 185 270 L 185 270 L 174 281 L 174 281 L 10 118 L 10 118 L 5 112 L 5 112 L 16 101 L 16 101 L 22 106 L 22 106 L 34 119 L 34 119 Q 101 66 192 64 L 192 64 Z M 388 181 L 399 169 L 388 181 L 399 169 Q 447 234 448 320 Q 446 411 393 478 L 406 490 L 406 490 L 411 496 L 411 496 L 400 507 L 400 507 L 394 502 L 394 502 L 231 338 L 231 338 L 242 327 L 242 327 L 382 467 L 382 467 Q 430 404 432 320 Q 431 241 388 181 L 388 181 Z" />
</svg>