<svg xmlns="http://www.w3.org/2000/svg" viewBox="0 0 634 512">
  <path d="M 48 48 L 336 48 L 48 48 L 336 48 L 336 206 L 336 206 Q 357 185 384 173 L 384 48 L 384 48 L 384 0 L 384 0 L 336 0 L 0 0 L 0 48 L 0 48 L 0 464 L 0 464 L 0 512 L 0 512 L 48 512 L 384 512 L 384 467 L 384 467 Q 357 455 336 434 L 336 464 L 336 464 L 240 464 L 240 464 L 240 352 L 240 352 L 144 352 L 144 352 L 144 464 L 144 464 L 48 464 L 48 464 L 48 48 L 48 48 Z M 296 216 L 216 216 L 296 216 L 216 216 L 216 296 L 216 296 L 290 296 L 290 296 Q 292 282 296 270 L 296 216 L 296 216 Z M 88 88 L 88 168 L 88 88 L 88 168 L 168 168 L 168 168 L 168 88 L 168 88 L 88 88 L 88 88 Z M 296 88 L 216 88 L 296 88 L 216 88 L 216 168 L 216 168 L 296 168 L 296 168 L 296 88 L 296 88 Z M 88 216 L 88 296 L 88 216 L 88 296 L 168 296 L 168 296 L 168 216 L 168 216 L 88 216 L 88 216 Z M 448 240 Q 493 242 517 280 Q 539 320 517 360 Q 493 399 448 400 Q 403 399 379 360 Q 357 320 379 280 Q 403 242 448 240 L 448 240 Z M 448 448 Q 489 447 520 426 L 583 489 L 583 489 L 600 506 L 600 506 L 634 472 L 634 472 L 617 455 L 617 455 L 554 392 L 554 392 Q 575 361 576 320 Q 575 266 539 230 Q 502 194 448 192 Q 394 194 357 230 Q 321 266 320 320 Q 321 375 357 411 Q 394 447 448 448 L 448 448 Z" />
</svg>