<svg xmlns="http://www.w3.org/2000/svg" viewBox="0 0 384 512">
  <path d="M 16 16 L 16 496 L 16 16 L 16 496 L 368 496 L 368 496 L 368 16 L 368 16 L 16 16 L 16 16 Z M 0 0 L 16 0 L 0 0 L 384 0 L 384 16 L 384 16 L 384 496 L 384 496 L 384 512 L 384 512 L 368 512 L 0 512 L 0 496 L 0 496 L 0 16 L 0 16 L 0 0 L 0 0 Z M 72 128 L 312 128 L 72 128 L 320 128 L 320 144 L 320 144 L 312 144 L 64 144 L 64 128 L 64 128 L 72 128 L 72 128 Z M 72 224 L 312 224 L 72 224 L 320 224 L 320 240 L 320 240 L 312 240 L 64 240 L 64 224 L 64 224 L 72 224 L 72 224 Z M 72 320 L 216 320 L 72 320 L 224 320 L 224 336 L 224 336 L 216 336 L 64 336 L 64 320 L 64 320 L 72 320 L 72 320 Z" />
</svg>