<svg xmlns="http://www.w3.org/2000/svg" viewBox="0 0 320 480">
  <path d="M 256 112 Q 256 86 243 64 L 243 64 L 243 64 Q 230 42 208 29 Q 185 16 160 16 Q 135 16 112 29 Q 90 42 77 64 Q 64 86 64 112 Q 64 138 77 160 Q 90 182 112 195 Q 135 208 160 208 Q 185 208 208 195 Q 230 182 243 160 Q 256 138 256 112 L 256 112 Z M 272 112 Q 272 143 257 168 L 257 168 L 257 168 Q 242 193 218 208 L 223 208 L 264 208 L 264 224 L 264 224 L 256 224 L 226 224 L 251 352 L 251 352 L 234 352 L 234 352 L 209 224 L 209 224 L 160 224 L 111 224 L 86 352 L 86 352 L 70 352 L 70 352 L 94 224 L 94 224 L 64 224 L 56 224 L 56 208 L 56 208 L 64 208 L 102 208 Q 78 193 63 168 Q 48 143 48 112 Q 49 64 81 33 Q 112 1 160 0 Q 208 1 239 33 Q 271 64 272 112 L 272 112 Z M 16 464 L 304 464 L 16 464 L 304 464 L 304 444 L 304 444 L 265 400 L 265 400 L 55 400 L 55 400 L 16 444 L 16 444 L 16 464 L 16 464 Z M 0 464 L 0 437 L 0 464 L 0 437 L 48 384 L 48 384 L 272 384 L 272 384 L 320 437 L 320 437 L 320 464 L 320 464 L 320 480 L 320 480 L 304 480 L 0 480 L 0 464 L 0 464 Z" />
</svg>