<svg xmlns="http://www.w3.org/2000/svg" viewBox="0 0 576 447">
  <path d="M 498 141 L 469 120 L 498 141 L 469 120 L 467 119 L 467 119 L 464 119 L 432 119 Q 431 119 431 119 Q 430 119 430 119 Q 430 119 430 119 Q 430 119 430 119 L 428 113 L 428 113 Q 418 74 391 45 Q 364 16 326 3 L 322 2 L 322 2 L 319 4 L 319 4 L 291 20 L 291 20 L 286 23 L 286 23 L 288 29 L 288 29 L 303 85 L 303 85 Q 311 112 328 134 L 248 97 L 248 97 Q 226 87 201 87 L 192 87 L 192 87 Q 145 88 115 121 Q 97 96 64 95 Q 37 96 19 114 Q 1 132 0 159 Q 1 186 19 204 Q 37 222 64 223 Q 79 223 91 217 Q 98 244 119 265 L 182 328 L 182 328 L 114 374 L 114 374 L 87 392 L 87 392 L 81 396 L 81 396 L 85 403 L 85 403 L 112 444 L 112 444 L 115 447 L 115 447 L 119 447 L 148 447 L 150 446 L 150 446 L 158 440 L 158 440 L 240 386 L 240 386 L 274 421 L 274 421 L 277 423 L 277 423 L 280 423 L 464 423 L 464 415 L 464 415 L 464 351 L 464 351 L 464 343 L 464 343 L 456 343 L 353 343 L 393 295 L 393 295 L 568 295 L 576 295 L 576 287 L 576 287 L 576 198 L 576 198 L 576 194 L 576 194 L 573 192 L 573 192 L 513 151 L 513 151 Q 519 112 507 75 Q 494 38 465 10 L 456 2 L 456 2 L 454 0 L 454 0 L 450 0 L 450 0 L 422 3 L 422 3 L 416 3 L 416 3 L 415 8 L 415 8 L 411 20 L 411 20 Q 418 27 425 34 Q 425 30 427 26 Q 427 25 427 25 L 429 18 L 429 18 L 448 16 L 448 16 L 455 22 L 455 22 Q 479 46 490 77 Q 502 107 498 141 L 498 141 Z M 64 111 Q 91 112 105 134 Q 88 159 88 191 Q 88 196 88 200 Q 78 207 64 207 Q 44 206 30 193 Q 17 179 16 159 Q 17 139 30 125 Q 44 112 64 111 L 64 111 Z M 228 374 L 149 427 L 228 374 L 149 427 L 143 431 L 143 431 L 123 431 L 123 431 L 103 400 L 103 400 L 123 387 L 123 387 L 194 340 L 194 340 L 228 374 L 228 374 Z M 305 30 L 324 19 L 305 30 L 324 19 Q 357 31 381 57 Q 404 83 413 117 L 414 123 L 414 123 Q 415 125 415 128 L 414 137 L 414 137 L 424 136 L 424 136 Q 428 135 432 135 L 461 135 L 461 135 L 560 202 L 560 202 L 560 279 L 560 279 L 389 279 L 386 279 L 383 282 L 383 282 L 336 339 L 336 339 L 336 319 L 336 319 Q 336 287 319 261 Q 301 236 272 223 L 235 208 L 235 208 L 228 205 L 228 205 L 222 219 L 222 219 L 229 222 L 229 222 L 266 238 L 266 238 Q 291 248 305 270 Q 320 292 320 319 L 320 351 L 320 351 L 320 358 L 320 358 L 320 359 L 320 359 Q 320 359 320 359 Q 320 359 320 359 L 328 359 L 352 359 Q 352 359 352 359 Q 352 359 352 359 L 448 359 L 448 359 L 448 407 L 448 407 L 283 407 L 283 407 L 130 254 L 130 254 Q 105 227 104 191 Q 105 154 130 129 Q 155 104 192 103 L 201 103 L 201 103 Q 222 103 241 112 L 371 171 L 371 171 L 378 174 L 378 174 L 382 167 L 382 167 Q 382 166 382 166 Q 382 166 382 166 L 386 158 L 386 158 L 378 155 L 378 155 Q 378 154 378 154 Q 377 154 377 154 Q 333 129 319 81 L 305 30 L 305 30 Z M 496 207 Q 495 192 480 191 Q 465 192 464 207 Q 465 222 480 223 Q 495 222 496 207 L 496 207 Z" />
</svg>