<svg xmlns="http://www.w3.org/2000/svg" viewBox="0 0 640 448">
  <path d="M 16 8 L 16 0 L 16 8 L 16 0 L 0 0 L 0 0 L 0 8 L 0 8 L 0 296 L 0 296 L 0 376 L 0 376 L 0 440 L 0 440 L 0 448 L 0 448 L 16 448 L 16 448 L 16 440 L 16 440 L 16 384 L 16 384 L 624 384 L 624 384 L 624 440 L 624 440 L 624 448 L 624 448 L 640 448 L 640 448 L 640 440 L 640 440 L 640 376 L 640 376 L 640 296 L 640 296 L 640 200 L 640 200 Q 639 156 610 126 Q 580 97 536 96 L 280 96 L 272 96 L 272 104 L 272 104 L 272 288 L 272 288 L 16 288 L 16 288 L 16 8 L 16 8 Z M 624 368 L 16 368 L 624 368 L 16 368 L 16 304 L 16 304 L 280 304 L 624 304 L 624 368 L 624 368 Z M 624 200 L 624 288 L 624 200 L 624 288 L 288 288 L 288 288 L 288 112 L 288 112 L 536 112 L 536 112 Q 573 113 598 138 Q 623 163 624 200 L 624 200 Z M 80 176 Q 81 140 112 121 Q 144 103 176 121 Q 207 140 208 176 Q 207 212 176 231 Q 144 249 112 231 Q 81 212 80 176 L 80 176 Z M 224 176 Q 223 131 184 107 Q 144 85 104 107 Q 65 131 64 176 Q 65 221 104 245 Q 144 267 184 245 Q 223 221 224 176 L 224 176 Z" />
</svg>