<svg xmlns="http://www.w3.org/2000/svg" viewBox="0 0 448 448">
  <path d="M 16 16 L 16 432 L 16 16 L 16 432 L 432 432 L 432 432 L 432 16 L 432 16 L 16 16 L 16 16 Z M 0 0 L 16 0 L 0 0 L 448 0 L 448 16 L 448 16 L 448 432 L 448 432 L 448 448 L 448 448 L 432 448 L 0 448 L 0 432 L 0 432 L 0 16 L 0 16 L 0 0 L 0 0 Z M 326 166 L 198 294 L 326 166 L 198 294 L 192 299 L 192 299 L 186 294 L 186 294 L 122 230 L 122 230 L 117 224 L 117 224 L 128 213 L 128 213 L 134 218 L 134 218 L 192 277 L 192 277 L 314 154 L 314 154 L 320 149 L 320 149 L 331 160 L 331 160 L 326 166 L 326 166 Z" />
</svg>