<svg xmlns="http://www.w3.org/2000/svg" viewBox="0 0 384 480">
  <path d="M 8 0 L 0 0 L 8 0 L 0 0 L 0 8 L 0 8 L 0 168 L 0 168 L 0 171 L 0 171 L 2 174 L 2 174 L 56 227 L 56 227 L 49 352 L 49 352 L 65 352 L 65 352 L 72 224 L 72 224 L 72 221 L 72 221 L 70 218 L 70 218 L 16 165 L 16 165 L 16 16 L 16 16 L 80 16 L 80 16 L 80 64 L 80 64 L 80 72 L 80 72 L 88 72 L 160 72 L 160 64 L 160 64 L 160 16 L 160 16 L 224 16 L 224 16 L 224 64 L 224 64 L 224 72 L 224 72 L 232 72 L 304 72 L 304 64 L 304 64 L 304 16 L 304 16 L 368 16 L 368 16 L 368 165 L 368 165 L 314 218 L 314 218 L 312 221 L 312 221 L 312 225 L 312 225 L 319 352 L 319 352 L 335 352 L 335 352 L 328 227 L 328 227 L 382 174 L 382 174 L 384 171 L 384 171 L 384 168 L 384 168 L 384 8 L 384 8 L 384 0 L 384 0 L 376 0 L 288 0 L 288 8 L 288 8 L 288 56 L 288 56 L 240 56 L 240 56 L 240 8 L 240 8 L 240 0 L 240 0 L 232 0 L 144 0 L 144 8 L 144 8 L 144 56 L 144 56 L 96 56 L 96 56 L 96 8 L 96 8 L 96 0 L 96 0 L 88 0 L 8 0 Z M 152 184 L 152 248 L 152 184 L 152 248 L 152 256 L 152 256 L 160 256 L 232 256 L 232 248 L 232 248 L 232 184 L 232 184 Q 232 167 220 156 Q 209 144 192 144 Q 175 144 164 156 Q 152 167 152 184 L 152 184 Z M 192 160 Q 214 162 216 184 L 216 240 L 216 240 L 168 240 L 168 240 L 168 184 L 168 184 Q 170 162 192 160 L 192 160 Z M 16 464 L 16 444 L 16 464 L 16 444 L 55 400 L 55 400 L 329 400 L 329 400 L 368 444 L 368 444 L 368 464 L 368 464 L 16 464 L 16 464 Z M 0 464 L 0 480 L 0 464 L 0 480 L 16 480 L 384 480 L 384 464 L 384 464 L 384 437 L 384 437 L 336 384 L 336 384 L 48 384 L 48 384 L 0 437 L 0 437 L 0 464 L 0 464 Z" />
</svg>