<svg xmlns="http://www.w3.org/2000/svg" viewBox="0 0 640 512">
  <path d="M 640 0 L 0 0 L 640 0 L 0 0 L 0 32 L 0 32 L 64 32 L 64 32 L 64 96 L 64 96 L 32 96 L 0 96 L 0 128 L 0 128 L 0 384 L 0 384 L 0 416 L 0 416 L 32 416 L 64 416 Q 65 457 92 484 Q 119 511 160 512 Q 201 511 228 484 Q 255 457 256 416 L 384 416 L 384 416 Q 385 457 412 484 Q 439 511 480 512 Q 521 511 548 484 Q 575 457 576 416 L 608 416 L 640 416 L 640 384 L 640 384 L 640 128 L 640 128 L 640 96 L 640 96 L 608 96 L 544 96 Q 544 82 535 73 Q 526 64 512 64 Q 498 64 489 73 Q 480 82 480 96 L 384 96 L 384 96 L 384 32 L 384 32 L 640 32 L 640 32 L 640 0 L 640 0 Z M 352 32 L 352 96 L 352 32 L 352 96 L 288 96 L 288 96 L 288 32 L 288 32 L 352 32 L 352 32 Z M 352 128 L 384 128 L 352 128 L 384 128 L 384 256 L 384 256 L 32 256 L 32 256 L 32 128 L 32 128 L 64 128 L 352 128 Z M 416 128 L 480 128 L 416 128 L 608 128 L 608 384 L 608 384 L 571 384 L 571 384 Q 560 356 536 338 Q 512 321 480 320 Q 448 321 424 338 Q 400 356 390 384 L 251 384 L 251 384 Q 240 356 216 338 Q 192 321 160 320 Q 128 321 104 338 Q 80 356 70 384 L 32 384 L 32 384 L 32 288 L 32 288 L 400 288 L 416 288 L 416 272 L 416 272 L 416 128 L 416 128 Z M 256 32 L 256 96 L 256 32 L 256 96 L 192 96 L 192 96 L 192 32 L 192 32 L 256 32 L 256 32 Z M 160 32 L 160 96 L 160 32 L 160 96 L 96 96 L 96 96 L 96 32 L 96 32 L 160 32 L 160 32 Z M 480 192 L 544 192 L 480 192 L 544 192 L 544 256 L 544 256 L 480 256 L 480 256 L 480 192 L 480 192 Z M 480 160 L 448 160 L 480 160 L 448 160 L 448 192 L 448 192 L 448 256 L 448 256 L 448 288 L 448 288 L 480 288 L 576 288 L 576 256 L 576 256 L 576 192 L 576 192 L 576 160 L 576 160 L 544 160 L 480 160 Z M 160 352 Q 196 353 215 384 Q 233 416 215 448 Q 196 479 160 480 Q 124 479 105 448 Q 87 416 105 384 Q 124 353 160 352 L 160 352 Z M 416 416 Q 417 380 448 361 Q 480 343 512 361 Q 543 380 544 416 Q 543 452 512 471 Q 480 489 448 471 Q 417 452 416 416 L 416 416 Z" />
</svg>