<svg xmlns="http://www.w3.org/2000/svg" viewBox="0 0 573 512">
  <path d="M 167 135 Q 144 112 144 79 L 144 76 L 144 76 Q 145 43 166 22 Q 188 1 220 0 Q 256 1 279 28 L 288 40 L 288 40 L 297 28 L 297 28 Q 320 1 356 0 Q 388 1 410 22 Q 431 43 432 76 L 432 79 L 432 79 Q 432 112 409 135 L 384 160 L 384 160 L 288 256 L 288 256 L 192 160 L 192 160 L 167 135 L 167 135 Z M 161 304 L 168 304 L 161 304 L 408 304 L 408 328 L 408 328 L 408 375 L 408 375 L 488 324 L 488 324 L 508 311 L 508 311 L 521 331 L 521 331 L 561 395 L 561 395 L 573 415 L 573 415 L 554 428 L 554 428 L 438 508 L 438 508 L 431 512 L 431 512 L 424 512 L 0 512 L 0 464 L 0 464 L 24 464 L 417 464 L 508 401 L 508 401 L 493 377 L 493 377 L 413 428 L 413 428 L 407 432 L 407 432 L 400 432 L 232 432 L 232 384 L 232 384 L 256 384 L 360 384 L 360 352 L 360 352 L 175 352 L 175 352 L 85 412 L 85 412 L 79 416 L 79 416 L 72 416 L 0 416 L 0 368 L 0 368 L 24 368 L 65 368 L 155 308 L 155 308 L 161 304 L 161 304 Z" />
</svg>