<svg xmlns="http://www.w3.org/2000/svg" viewBox="0 0 512 512">
  <path d="M 213 240 L 31 128 L 213 240 L 31 128 L 213 16 L 213 16 L 240 16 L 240 16 L 240 240 L 240 240 L 213 240 L 213 240 Z M 208 256 L 240 256 L 208 256 L 256 256 L 256 240 L 256 240 L 256 136 L 256 136 L 344 136 L 344 136 L 344 160 L 344 160 L 344 176 L 344 176 L 360 176 L 512 176 L 512 160 L 512 160 L 512 96 L 512 96 L 512 80 L 512 80 L 496 80 L 344 80 L 344 96 L 344 96 L 344 120 L 344 120 L 256 120 L 256 120 L 256 16 L 256 16 L 256 0 L 256 0 L 240 0 L 208 0 L 15 119 L 15 119 L 0 128 L 0 128 L 15 137 L 15 137 L 208 256 L 208 256 Z M 360 96 L 496 96 L 360 96 L 496 96 L 496 160 L 496 160 L 360 160 L 360 160 L 360 128 L 360 128 L 360 96 L 360 96 Z M 288 352 L 288 368 L 288 352 L 288 368 L 272 368 L 0 368 L 0 384 L 0 384 L 0 496 L 0 496 L 0 512 L 0 512 L 16 512 L 512 512 L 512 496 L 512 496 L 512 440 L 512 440 L 512 368 L 512 368 L 512 256 L 512 256 L 512 240 L 512 240 L 496 240 L 288 240 L 288 256 L 288 256 L 288 352 L 288 352 Z M 16 384 L 224 384 L 16 384 L 224 384 L 224 496 L 224 496 L 16 496 L 16 496 L 16 384 L 16 384 Z M 496 496 L 240 496 L 496 496 L 240 496 L 240 384 L 240 384 L 288 384 L 496 384 L 496 440 L 496 440 L 496 496 L 496 496 Z M 304 256 L 496 256 L 304 256 L 496 256 L 496 368 L 496 368 L 304 368 L 304 368 L 304 256 L 304 256 Z" />
</svg>