<svg xmlns="http://www.w3.org/2000/svg" viewBox="0 0 512 448">
  <path d="M 512 448 L 512 432 L 512 448 L 512 432 L 0 432 L 0 432 L 0 448 L 0 448 L 512 448 L 512 448 Z M 112 336 L 112 112 L 112 336 L 112 112 L 400 112 L 400 112 L 400 336 L 400 336 L 112 336 L 112 336 Z M 400 352 L 416 352 L 400 352 L 416 352 L 416 336 L 416 336 L 416 112 L 416 112 L 416 96 L 416 96 L 400 96 L 96 96 L 96 112 L 96 112 L 96 336 L 96 336 L 96 352 L 96 352 L 112 352 L 400 352 Z M 0 16 L 512 16 L 0 16 L 512 16 L 512 0 L 512 0 L 0 0 L 0 0 L 0 16 L 0 16 Z" />
</svg>