<svg xmlns="http://www.w3.org/2000/svg" viewBox="0 0 484 484">
  <path d="M 325 5 L 320 10 L 325 5 L 320 10 L 315 5 L 315 5 L 320 0 L 320 0 L 325 5 L 325 5 Z M 474 164 Q 481 171 479 169 Q 479 169 479 169 Q 479 169 479 169 Q 479 169 479 169 Q 479 169 479 169 Q 479 169 479 169 Q 479 169 479 169 L 479 170 L 479 170 L 479 170 L 479 170 Q 478 170 477 171 Q 476 173 472 176 Q 466 182 455 190 Q 440 202 420 209 Q 415 202 409 196 Q 428 192 446 178 Q 456 170 462 165 L 463 164 L 463 164 L 462 163 L 462 163 Q 456 157 445 150 Q 422 132 394 130 Q 371 131 364 134 Q 360 135 359 136 Q 359 136 359 136 Q 359 136 358 136 Q 358 136 358 136 Q 355 139 351 138 L 346 133 L 346 133 Q 345 129 347 126 Q 348 126 348 125 Q 348 125 348 125 Q 349 124 350 120 Q 353 113 354 90 Q 352 61 334 39 Q 327 28 321 22 L 320 21 L 320 21 L 319 22 L 319 22 Q 313 28 306 38 Q 292 56 288 75 Q 282 69 275 64 Q 282 44 293 29 Q 302 18 308 11 Q 309 10 310 9 Q 312 7 312 6 Q 313 6 314 5 L 314 5 L 314 5 L 314 5 L 314 5 Q 314 5 314 5 Q 314 5 314 5 Q 314 5 314 5 Q 314 5 314 5 Q 314 5 314 5 Q 314 5 314 5 L 320 10 L 320 10 Q 326 3 325 4 Q 325 4 325 4 Q 325 4 325 4 Q 325 4 325 4 Q 325 4 325 4 Q 325 4 325 4 Q 325 4 325 4 L 325 5 L 325 5 L 325 5 L 325 5 Q 326 5 327 6 Q 328 8 331 12 Q 338 18 346 30 Q 365 54 368 90 Q 368 100 367 107 Q 393 88 414 65 Q 435 43 445 9 L 447 2 L 447 2 L 462 6 L 462 6 L 460 14 L 460 14 Q 449 49 428 73 Q 407 97 382 116 Q 387 115 394 115 Q 411 116 427 122 Q 442 129 454 137 Q 465 146 472 152 Q 476 155 478 157 Q 478 158 479 159 L 479 159 L 479 159 L 479 159 L 479 159 Q 479 159 479 159 Q 479 159 479 159 Q 479 159 479 159 Q 479 159 479 159 Q 479 159 479 159 Q 479 159 479 159 L 474 164 L 474 164 Z M 474 164 L 479 169 L 474 164 L 479 169 L 484 164 L 484 164 L 479 159 L 479 159 L 474 164 L 474 164 Z M 349 179 L 380 210 L 349 179 L 380 210 L 387 217 L 387 217 Q 423 254 423 302 Q 422 373 357 427 Q 291 480 167 483 Q 77 484 39 445 Q 0 407 1 317 Q 4 193 58 127 Q 111 62 182 61 Q 230 61 267 97 L 274 104 L 274 104 L 305 135 L 305 135 L 349 179 L 349 179 Z M 294 145 L 256 107 L 294 145 L 256 107 Q 224 77 182 76 Q 120 76 70 137 Q 19 197 16 317 Q 16 404 49 435 Q 80 468 167 468 Q 288 465 348 415 Q 408 364 408 302 Q 408 260 377 228 L 339 190 L 339 190 Q 327 181 315 169 Q 303 157 294 145 L 294 145 Z M 172 142 L 142 172 L 172 142 L 142 172 L 137 177 L 137 177 L 126 167 L 126 167 L 131 162 L 131 162 L 161 131 L 161 131 L 167 126 L 167 126 L 177 137 L 177 137 L 172 142 L 172 142 Z M 232 202 L 202 232 L 232 202 L 202 232 L 197 238 L 197 238 L 186 227 L 186 227 L 191 222 L 191 222 L 222 192 L 222 192 L 227 186 L 227 186 L 237 197 L 237 197 L 232 202 L 232 202 Z M 142 232 L 112 262 L 142 232 L 112 262 L 106 268 L 106 268 L 96 257 L 96 257 L 101 252 L 101 252 L 131 222 L 131 222 L 137 216 L 137 216 L 147 227 L 147 227 L 142 232 L 142 232 Z M 292 262 L 262 293 L 292 262 L 262 293 L 257 298 L 257 298 L 246 287 L 246 287 L 252 282 L 252 282 L 282 252 L 282 252 L 287 247 L 287 247 L 298 257 L 298 257 L 292 262 L 292 262 Z M 202 293 L 172 323 L 202 293 L 172 323 L 167 328 L 167 328 L 156 317 L 156 317 L 161 312 L 161 312 L 191 282 L 191 282 L 197 277 L 197 277 L 207 287 L 207 287 L 202 293 L 202 293 Z M 112 323 L 82 353 L 112 323 L 82 353 L 76 358 L 76 358 L 66 348 L 66 348 L 71 342 L 71 342 L 101 312 L 101 312 L 106 307 L 106 307 L 117 317 L 117 317 L 112 323 L 112 323 Z M 353 323 L 322 353 L 353 323 L 322 353 L 317 358 L 317 358 L 307 347 L 307 347 L 312 342 L 312 342 L 342 312 L 342 312 L 347 307 L 347 307 L 358 317 L 358 317 L 353 323 L 353 323 Z M 262 353 L 232 383 L 262 353 L 232 383 L 227 388 L 227 388 L 216 378 L 216 378 L 221 372 L 221 372 L 252 342 L 252 342 L 257 337 L 257 337 L 267 347 L 267 347 L 262 353 L 262 353 Z M 172 383 L 142 413 L 172 383 L 142 413 L 137 418 L 137 418 L 126 408 L 126 408 L 131 402 L 131 402 L 161 372 L 161 372 L 167 367 L 167 367 L 177 378 L 177 378 L 172 383 L 172 383 Z" />
</svg>