<svg xmlns="http://www.w3.org/2000/svg" viewBox="0 0 256 512">
  <path d="M 136 8 L 136 0 L 136 8 L 136 0 L 120 0 L 120 0 L 120 8 L 120 8 L 120 32 L 120 32 L 88 32 L 80 32 L 80 48 L 80 48 L 88 48 L 120 48 L 120 96 L 120 96 L 56 96 L 40 96 L 40 112 L 40 112 L 40 128 L 40 128 L 77 224 L 77 224 L 64 224 L 56 224 L 56 240 L 56 240 L 64 240 L 79 240 L 56 384 L 56 384 L 72 384 L 72 384 L 95 240 L 95 240 L 161 240 L 161 240 L 184 384 L 184 384 L 200 384 L 200 384 L 177 240 L 177 240 L 192 240 L 200 240 L 200 224 L 200 224 L 192 224 L 179 224 L 216 128 L 216 128 L 216 112 L 216 112 L 216 96 L 216 96 L 200 96 L 136 96 L 136 48 L 136 48 L 168 48 L 176 48 L 176 32 L 176 32 L 168 32 L 136 32 L 136 8 L 136 8 Z M 120 112 L 136 112 L 120 112 L 200 112 L 200 125 L 200 125 L 162 224 L 162 224 L 94 224 L 94 224 L 56 125 L 56 125 L 56 112 L 56 112 L 120 112 L 120 112 Z M 48 416 L 44 416 L 48 416 L 44 416 L 42 419 L 42 419 L 2 467 L 2 467 L 0 469 L 0 469 L 0 472 L 0 472 L 0 504 L 0 504 L 0 512 L 0 512 L 8 512 L 256 512 L 256 504 L 256 504 L 256 472 L 256 472 L 256 469 L 256 469 L 254 467 L 254 467 L 214 419 L 214 419 L 212 416 L 212 416 L 208 416 L 48 416 Z M 16 475 L 52 432 L 16 475 L 52 432 L 204 432 L 204 432 L 240 475 L 240 475 L 240 496 L 240 496 L 16 496 L 16 496 L 16 475 L 16 475 Z" />
</svg>