<svg xmlns="http://www.w3.org/2000/svg" viewBox="0 0 512 512">
  <path d="M 235 495 Q 167 488 115 450 L 115 450 L 115 450 Q 63 412 36 352 L 142 352 L 142 352 Q 160 406 187 442 Q 214 478 235 495 L 235 495 Z M 205 439 Q 178 405 159 352 L 353 352 L 353 352 Q 334 405 307 439 Q 284 469 266 484 Q 260 489 256 492 Q 252 489 247 484 Q 229 469 205 439 L 205 439 Z M 144 256 Q 144 212 154 176 L 358 176 L 358 176 Q 368 212 368 256 Q 368 300 358 336 L 154 336 L 154 336 Q 144 300 144 256 L 144 256 Z M 138 176 Q 128 212 128 256 Q 128 300 138 336 L 30 336 L 30 336 Q 16 298 16 256 Q 16 214 30 176 L 138 176 L 138 176 Z M 159 160 Q 178 106 205 73 Q 229 42 247 28 Q 252 23 256 20 Q 260 23 266 28 Q 283 43 307 73 Q 334 106 353 160 L 159 160 L 159 160 Z M 374 176 L 482 176 L 374 176 L 482 176 Q 496 214 496 256 Q 496 298 482 336 L 374 336 L 374 336 Q 384 300 384 256 Q 384 212 374 176 L 374 176 Z M 476 160 L 370 160 L 476 160 L 370 160 Q 352 106 325 70 Q 298 34 278 17 Q 345 24 397 62 Q 449 100 476 160 L 476 160 Z M 142 160 L 36 160 L 142 160 L 36 160 Q 63 100 115 62 Q 167 24 235 17 Q 214 34 187 70 Q 160 106 142 160 L 142 160 Z M 278 495 Q 298 478 325 442 L 325 442 L 325 442 Q 352 406 370 352 L 476 352 L 476 352 Q 449 412 397 450 Q 345 488 278 495 L 278 495 Z M 256 512 Q 326 511 384 478 L 384 478 L 384 478 Q 442 444 478 384 Q 512 323 512 256 Q 512 189 478 128 Q 442 68 384 34 Q 326 1 256 0 Q 186 1 128 34 Q 70 68 34 128 Q 0 189 0 256 Q 0 323 34 384 Q 70 444 128 478 Q 186 511 256 512 L 256 512 Z" />
</svg>