<svg xmlns="http://www.w3.org/2000/svg" viewBox="0 0 576 512">
  <path d="M 16 496 L 272 496 L 16 496 L 272 496 L 272 208 L 272 208 L 16 208 L 16 208 L 16 496 L 16 496 Z M 288 496 L 427 496 L 288 496 L 427 496 L 288 232 L 288 232 L 288 496 L 288 496 Z M 560 157 Q 472 109 416 26 Q 363 79 288 80 Q 213 79 160 26 Q 104 109 16 157 L 16 192 L 16 192 L 560 192 L 560 192 L 560 157 L 560 157 Z M 293 208 L 445 496 L 293 208 L 445 496 L 560 496 L 560 496 L 560 208 L 560 208 L 293 208 L 293 208 Z M 8 143 Q 95 96 149 14 L 150 12 L 150 12 L 158 0 L 158 0 L 167 9 L 167 9 Q 167 10 167 10 Q 168 11 169 12 Q 218 63 288 64 Q 358 63 407 12 Q 407 12 408 11 Q 409 10 409 10 L 418 0 L 418 0 L 426 12 L 426 12 L 427 14 L 427 14 Q 481 96 568 143 L 576 147 L 576 147 L 576 496 L 576 496 L 576 512 L 576 512 L 560 512 L 0 512 L 0 496 L 0 496 L 0 147 L 0 147 L 8 143 L 8 143 Z" />
</svg>