<svg xmlns="http://www.w3.org/2000/svg" viewBox="0 0 512 512">
  <path d="M 128 0 Q 74 1 37 37 L 37 37 L 37 37 Q 1 74 0 128 L 0 192 L 0 192 L 0 207 L 0 207 L 14 214 L 14 214 L 99 253 L 99 253 Q 93 262 89 272 L 53 272 L 53 272 L 33 259 L 33 259 L 20 250 L 20 250 L 2 276 L 2 276 L 15 285 L 15 285 L 39 301 L 39 301 L 43 304 L 43 304 L 48 304 L 81 304 Q 80 312 80 320 L 80 330 L 80 330 L 59 337 L 59 337 L 55 338 L 55 338 L 53 341 L 53 341 L 21 373 L 21 373 L 9 384 L 9 384 L 32 407 L 32 407 L 43 395 L 43 395 L 73 366 L 73 366 L 101 357 L 101 357 L 131 387 L 131 387 L 91 401 L 91 401 L 87 402 L 87 402 L 85 405 L 85 405 L 53 437 L 53 437 L 41 448 L 41 448 L 64 471 L 64 471 L 75 459 L 75 459 L 105 430 L 105 430 L 157 413 L 157 413 L 172 428 L 172 428 L 136 450 L 136 450 L 128 455 L 128 455 L 128 464 L 128 464 L 128 496 L 128 496 L 128 512 L 128 512 L 160 512 L 160 512 L 160 496 L 160 496 L 160 473 L 160 473 L 202 448 L 202 448 L 310 448 L 310 448 L 352 473 L 352 473 L 352 496 L 352 496 L 352 512 L 352 512 L 384 512 L 384 512 L 384 496 L 384 496 L 384 464 L 384 464 L 384 455 L 384 455 L 376 450 L 376 450 L 340 428 L 340 428 L 355 413 L 355 413 L 407 430 L 407 430 L 437 459 L 437 459 L 448 471 L 448 471 L 471 448 L 471 448 L 459 437 L 459 437 L 427 405 L 427 405 L 425 402 L 425 402 L 421 401 L 421 401 L 381 387 L 381 387 L 411 357 L 411 357 L 439 366 L 439 366 L 469 395 L 469 395 L 480 407 L 480 407 L 503 384 L 503 384 L 491 373 L 491 373 L 459 341 L 459 341 L 457 338 L 457 338 L 453 337 L 453 337 L 432 330 L 432 330 L 432 320 L 432 320 Q 432 312 431 304 L 464 304 L 469 304 L 473 301 L 473 301 L 497 285 L 497 285 L 510 276 L 510 276 L 492 250 L 492 250 L 479 259 L 479 259 L 459 272 L 459 272 L 422 272 L 422 272 Q 418 262 413 253 L 498 214 L 498 214 L 512 207 L 512 207 L 512 192 L 512 192 L 512 128 L 512 128 Q 511 74 474 37 Q 438 1 384 0 L 320 0 L 320 0 L 384 64 L 384 64 L 320 64 L 320 64 Q 321 91 339 109 Q 357 127 384 128 L 464 128 L 464 128 L 464 177 L 464 177 L 379 216 L 379 216 Q 353 197 320 193 L 320 144 L 320 144 L 320 128 L 320 128 L 288 128 L 288 128 L 288 144 L 288 144 L 288 192 L 288 192 L 224 192 L 224 192 L 224 144 L 224 144 L 224 128 L 224 128 L 192 128 L 192 128 L 192 144 L 192 144 L 192 193 L 192 193 Q 159 197 133 216 L 48 177 L 48 177 L 48 128 L 48 128 L 128 128 L 128 128 Q 155 127 173 109 Q 191 91 192 64 L 128 64 L 128 64 L 192 0 L 192 0 L 128 0 L 128 0 Z" />
</svg>