<svg xmlns="http://www.w3.org/2000/svg" viewBox="0 0 640 512">
  <path d="M 624 224 L 640 224 L 624 224 L 640 224 L 640 208 L 640 208 L 640 176 L 640 176 L 544 0 L 544 0 L 112 0 L 112 0 L 132 16 L 132 16 L 535 16 L 535 16 L 624 180 L 624 180 L 624 208 L 624 208 L 375 208 L 375 208 L 396 224 L 396 224 L 560 224 L 560 224 L 560 354 L 560 354 L 576 366 L 576 366 L 576 224 L 576 224 L 624 224 L 624 224 Z M 0 176 L 0 208 L 0 176 L 0 208 L 0 224 L 0 224 L 16 224 L 64 224 L 64 504 L 64 504 L 64 512 L 64 512 L 72 512 L 384 512 L 384 504 L 384 504 L 384 398 L 384 398 L 368 386 L 368 386 L 368 496 L 368 496 L 80 496 L 80 496 L 80 224 L 80 224 L 163 224 L 163 224 L 143 208 L 143 208 L 16 208 L 16 208 L 16 180 L 16 180 L 44 130 L 44 130 L 31 120 L 31 120 L 0 176 L 0 176 Z M 304 368 L 144 368 L 304 368 L 144 368 L 144 256 L 144 256 L 128 256 L 128 256 L 128 376 L 128 376 L 128 384 L 128 384 L 136 384 L 320 384 L 320 376 L 320 376 L 320 348 L 320 348 L 304 335 L 304 335 L 304 368 L 304 368 Z M 16 5 L 10 0 L 16 5 L 10 0 L 0 13 L 0 13 L 6 18 L 6 18 L 624 507 L 624 507 L 630 512 L 630 512 L 640 500 L 640 500 L 634 495 L 634 495 L 16 5 L 16 5 Z" />
</svg>