<svg xmlns="http://www.w3.org/2000/svg" viewBox="0 0 576 352">
  <path d="M 136 118 L 147 123 L 136 118 L 147 123 L 155 114 L 155 114 Q 184 77 229 47 Q 274 18 336 16 Q 391 17 433 42 Q 475 66 504 99 Q 533 132 547 157 Q 555 169 558 176 L 558 176 L 558 176 L 558 176 L 558 176 Q 558 176 558 177 Q 554 184 547 195 Q 533 220 504 253 Q 475 286 433 310 Q 391 335 336 336 Q 274 334 229 305 Q 184 275 155 239 L 147 229 L 147 229 L 136 234 L 136 234 L 35 285 L 35 285 L 20 269 L 20 269 L 62 183 L 62 183 L 66 176 L 66 176 L 62 169 L 62 169 L 20 83 L 20 83 L 35 68 L 35 68 L 136 118 L 136 118 Z M 336 352 Q 396 351 441 325 L 441 325 L 441 325 Q 486 298 516 264 L 516 264 L 516 264 Q 546 230 561 204 L 561 204 L 561 204 Q 576 177 576 176 Q 576 175 561 149 Q 546 122 516 88 Q 486 54 441 28 Q 396 1 336 0 Q 269 2 221 34 Q 172 65 143 103 L 32 48 L 32 48 L 0 80 L 0 80 L 48 176 L 48 176 L 0 272 L 0 272 L 32 304 L 32 304 L 143 249 L 143 249 Q 172 287 221 318 Q 269 350 336 352 L 336 352 Z M 416 208 Q 430 208 439 199 L 439 199 L 439 199 Q 448 190 448 176 Q 448 162 439 153 Q 430 144 416 144 Q 402 144 393 153 Q 384 162 384 176 Q 384 190 393 199 Q 402 208 416 208 L 416 208 Z M 400 176 Q 401 161 416 160 Q 431 161 432 176 Q 431 191 416 192 Q 401 191 400 176 L 400 176 Z" />
</svg>