<svg xmlns="http://www.w3.org/2000/svg" viewBox="0 0 512 512">
  <path d="M 256 496 Q 191 495 136 464 L 136 464 L 136 464 Q 81 432 48 376 Q 16 319 16 256 Q 16 193 48 136 Q 81 80 136 48 Q 191 17 256 16 Q 321 17 376 48 Q 431 80 464 136 Q 496 193 496 256 Q 496 319 464 376 Q 431 432 376 464 Q 321 495 256 496 L 256 496 Z M 256 0 Q 186 1 128 34 L 128 34 L 128 34 Q 70 68 34 128 Q 0 189 0 256 Q 0 323 34 384 Q 70 444 128 478 Q 186 511 256 512 Q 326 511 384 478 Q 442 444 478 384 Q 512 323 512 256 Q 512 189 478 128 Q 442 68 384 34 Q 326 1 256 0 L 256 0 Z M 344 352 L 352 352 L 344 352 L 352 352 L 352 344 L 352 344 L 352 200 L 352 200 L 352 192 L 352 192 L 336 192 L 336 192 L 336 200 L 336 200 L 336 325 L 336 325 L 174 162 L 174 162 L 168 157 L 168 157 L 157 168 L 157 168 L 162 174 L 162 174 L 325 336 L 325 336 L 200 336 L 192 336 L 192 352 L 192 352 L 200 352 L 344 352 Z" />
</svg>