<svg xmlns="http://www.w3.org/2000/svg" viewBox="0 0 640 512">
  <path d="M 96 384 Q 132 383 151 352 Q 169 320 151 288 Q 132 257 96 256 Q 60 257 41 288 Q 23 320 41 352 Q 60 383 96 384 L 96 384 Z M 192 512 L 160 416 L 192 512 L 160 416 L 32 416 L 32 416 L 0 512 L 0 512 L 192 512 L 192 512 Z M 320 384 Q 356 383 375 352 Q 393 320 375 288 Q 356 257 320 256 Q 284 257 265 288 Q 247 320 265 352 Q 284 383 320 384 L 320 384 Z M 416 512 L 384 416 L 416 512 L 384 416 L 256 416 L 256 416 L 224 512 L 224 512 L 416 512 L 416 512 Z M 608 320 Q 607 284 576 265 Q 544 247 512 265 Q 481 284 480 320 Q 481 356 512 375 Q 544 393 576 375 Q 607 356 608 320 L 608 320 Z M 608 416 L 480 416 L 608 416 L 480 416 L 448 512 L 448 512 L 640 512 L 640 512 L 608 416 L 608 416 Z M 560 48 L 80 48 L 560 48 L 80 48 L 80 225 L 80 225 Q 52 230 32 248 L 32 48 L 32 48 L 32 0 L 32 0 L 80 0 L 608 0 L 608 48 L 608 48 L 608 248 L 608 248 Q 588 230 560 225 L 560 48 L 560 48 Z" />
</svg>