<svg xmlns="http://www.w3.org/2000/svg" viewBox="0 0 448 512">
  <path d="M 160 96 L 160 128 L 160 96 L 160 128 L 288 128 L 288 128 L 288 96 L 288 96 Q 287 69 269 51 Q 251 33 224 32 Q 197 33 179 51 Q 161 69 160 96 L 160 96 Z M 128 128 L 128 96 L 128 128 L 128 96 Q 129 55 156 28 Q 183 1 224 0 L 240 0 L 240 0 L 240 1 L 240 1 Q 275 8 297 34 Q 319 60 320 96 L 320 128 L 320 128 L 416 128 L 448 128 L 448 160 L 448 160 L 448 480 L 448 480 L 448 512 L 448 512 L 416 512 L 0 512 L 0 480 L 0 480 L 0 160 L 0 160 L 0 128 L 0 128 L 32 128 L 128 128 Z M 128 160 L 32 160 L 128 160 L 32 160 L 32 480 L 32 480 L 416 480 L 416 480 L 416 160 L 416 160 L 320 160 L 128 160 Z M 128 304 L 144 304 L 128 304 L 208 304 L 208 240 L 208 240 L 208 224 L 208 224 L 240 224 L 240 224 L 240 240 L 240 240 L 240 304 L 240 304 L 304 304 L 320 304 L 320 336 L 320 336 L 304 336 L 240 336 L 240 400 L 240 400 L 240 416 L 240 416 L 208 416 L 208 416 L 208 400 L 208 400 L 208 336 L 208 336 L 144 336 L 128 336 L 128 304 L 128 304 Z" />
</svg>