<svg xmlns="http://www.w3.org/2000/svg" viewBox="0 0 448 512">
  <path d="M 128 8 L 128 0 L 128 8 L 128 0 L 112 0 L 112 0 L 112 8 L 112 8 L 112 64 L 112 64 L 16 64 L 0 64 L 0 80 L 0 80 L 0 176 L 0 176 L 0 192 L 0 192 L 0 496 L 0 496 L 0 512 L 0 512 L 16 512 L 448 512 L 448 496 L 448 496 L 448 192 L 448 192 L 448 176 L 448 176 L 448 80 L 448 80 L 448 64 L 448 64 L 432 64 L 336 64 L 336 8 L 336 8 L 336 0 L 336 0 L 320 0 L 320 0 L 320 8 L 320 8 L 320 64 L 320 64 L 128 64 L 128 64 L 128 8 L 128 8 Z M 16 192 L 432 192 L 16 192 L 432 192 L 432 496 L 432 496 L 16 496 L 16 496 L 16 192 L 16 192 Z M 112 80 L 112 120 L 112 80 L 112 120 L 112 128 L 112 128 L 128 128 L 128 128 L 128 120 L 128 120 L 128 80 L 128 80 L 320 80 L 320 80 L 320 120 L 320 120 L 320 128 L 320 128 L 336 128 L 336 128 L 336 120 L 336 120 L 336 80 L 336 80 L 432 80 L 432 80 L 432 176 L 432 176 L 16 176 L 16 176 L 16 80 L 16 80 L 112 80 L 112 80 Z M 231 237 L 224 222 L 231 237 L 224 222 L 217 236 L 217 236 L 186 299 L 186 299 L 116 309 L 116 309 L 100 312 L 100 312 L 112 323 L 112 323 L 162 372 L 162 372 L 150 441 L 150 441 L 148 457 L 148 457 L 162 450 L 162 450 L 224 417 L 224 417 L 286 450 L 286 450 L 300 457 L 300 457 L 298 441 L 298 441 L 286 372 L 286 372 L 336 323 L 336 323 L 348 312 L 348 312 L 332 309 L 332 309 L 262 299 L 262 299 L 231 236 L 231 237 Z M 198 310 L 224 258 L 198 310 L 224 258 L 250 310 L 250 310 L 252 314 L 252 314 L 256 315 L 256 315 L 313 323 L 313 323 L 272 364 L 272 364 L 269 367 L 269 367 L 269 371 L 269 371 L 279 428 L 279 428 L 228 401 L 228 401 L 224 399 L 224 399 L 220 401 L 220 401 L 169 428 L 169 428 L 179 371 L 179 371 L 179 367 L 179 367 L 176 364 L 176 364 L 135 323 L 135 323 L 192 315 L 192 315 L 196 314 L 196 314 L 198 310 L 198 310 Z" />
</svg>