<svg xmlns="http://www.w3.org/2000/svg" viewBox="0 0 448 448">
  <path d="M 224 16 Q 273 16 315 37 L 315 37 L 315 37 Q 357 57 386 93 L 424 144 L 424 144 L 344 144 L 336 144 L 336 160 L 336 160 L 344 160 L 448 160 L 448 152 L 448 152 L 448 56 L 448 56 L 448 48 L 448 48 L 432 48 L 432 48 L 432 56 L 432 56 L 432 128 L 432 128 L 398 84 L 398 84 Q 398 84 398 84 L 398 83 L 398 83 Q 367 45 322 23 Q 277 0 224 0 Q 147 1 90 45 Q 33 88 10 158 L 25 162 L 25 162 Q 46 98 99 57 Q 153 17 224 16 L 224 16 Z M 232 104 L 232 96 L 232 104 L 232 96 L 216 96 L 216 96 L 216 104 L 216 104 L 216 264 L 216 264 L 216 272 L 216 272 L 232 272 L 232 272 L 232 264 L 232 264 L 232 104 L 232 104 Z M 240 304 L 208 304 L 240 304 L 208 304 L 208 336 L 208 336 L 240 336 L 240 336 L 240 304 L 240 304 Z M 0 392 L 0 400 L 0 392 L 0 400 L 16 400 L 16 400 L 16 392 L 16 392 L 16 318 L 16 318 L 51 365 L 51 365 Q 51 365 51 365 Q 51 365 51 365 L 51 365 L 51 365 Q 83 403 127 425 Q 172 448 226 448 Q 302 447 360 403 Q 417 360 440 290 L 424 286 L 424 286 Q 403 350 350 391 Q 297 431 226 432 Q 176 432 135 411 Q 93 391 64 355 L 26 304 L 26 304 L 104 304 L 112 304 L 112 288 L 112 288 L 104 288 L 0 288 L 0 296 L 0 296 L 0 392 L 0 392 Z" />
</svg>