<svg xmlns="http://www.w3.org/2000/svg" viewBox="0 0 575 523">
  <path d="M 343 16 L 343 16 L 343 16 L 343 16 Q 370 16 396 30 Q 423 44 445 66 Q 467 88 481 115 Q 495 141 495 168 Q 495 168 495 168 Q 495 168 495 168 L 495 168 L 495 168 Q 495 168 495 168 Q 495 168 495 168 Q 494 207 473 238 Q 451 268 414 281 L 374 294 L 374 294 L 371 295 L 371 295 L 369 297 L 369 297 L 310 345 L 310 345 Q 282 368 245 368 Q 202 367 173 338 Q 144 309 143 266 Q 143 229 166 201 L 214 142 L 214 142 L 216 140 L 216 140 L 217 137 L 217 137 L 230 97 L 230 97 Q 243 60 273 38 Q 304 17 343 16 L 343 16 L 343 16 Z M 343 0 L 343 0 L 343 0 L 343 0 Q 299 1 264 25 Q 230 50 215 92 L 202 132 L 202 132 L 154 191 L 154 191 Q 127 223 127 266 Q 128 311 156 343 L 5 494 L 5 494 L 0 500 L 0 500 L 11 512 L 11 512 L 17 506 L 17 506 L 168 355 L 168 355 Q 200 383 245 384 Q 287 384 320 357 L 379 309 L 379 309 L 419 296 L 419 296 Q 461 281 485 247 Q 510 212 511 168 L 511 168 L 511 168 Q 510 137 495 107 Q 479 78 456 55 Q 433 32 404 16 Q 374 1 343 0 L 343 0 Z M 431 432 Q 432 396 463 377 Q 495 359 527 377 Q 557 396 559 432 Q 557 468 527 487 Q 495 505 463 487 Q 432 468 431 432 L 431 432 Z M 575 432 Q 573 387 535 363 Q 495 341 455 363 Q 416 387 415 432 Q 416 477 455 501 Q 495 523 535 501 Q 573 477 575 432 L 575 432 Z" />
</svg>