<svg xmlns="http://www.w3.org/2000/svg" viewBox="0 0 512 512">
  <path d="M 256 16 Q 321 17 376 48 L 376 48 L 376 48 Q 431 80 464 136 Q 496 193 496 256 Q 496 319 464 376 Q 431 432 376 464 Q 321 495 256 496 Q 191 495 136 464 Q 81 432 48 376 Q 16 319 16 256 Q 16 193 48 136 Q 81 80 136 48 Q 191 17 256 16 L 256 16 Z M 256 512 Q 326 511 384 478 L 384 478 L 384 478 Q 442 444 478 384 Q 512 323 512 256 Q 512 189 478 128 Q 442 68 384 34 Q 326 1 256 0 Q 186 1 128 34 Q 70 68 34 128 Q 0 189 0 256 Q 0 323 34 384 Q 70 444 128 478 Q 186 511 256 512 L 256 512 Z M 265 113 L 256 96 L 265 113 L 256 96 L 247 113 L 247 113 L 207 189 L 207 189 L 123 203 L 123 203 L 104 207 L 104 207 L 117 220 L 117 220 L 177 282 L 177 282 L 165 366 L 165 366 L 162 385 L 162 385 L 179 377 L 179 377 L 256 339 L 256 339 L 333 377 L 333 377 L 350 386 L 350 386 L 347 366 L 347 366 L 335 282 L 335 282 L 395 221 L 395 221 L 408 207 L 408 207 L 389 203 L 389 203 L 305 189 L 305 189 L 265 113 L 265 113 Z M 302 204 L 376 217 L 302 204 L 376 217 L 324 271 L 324 271 L 318 276 L 318 276 L 319 284 L 319 284 L 330 358 L 330 358 L 263 325 L 263 325 L 256 321 L 256 321 L 249 325 L 249 325 L 182 358 L 182 358 L 193 284 L 193 284 L 194 276 L 194 276 L 188 271 L 188 271 L 136 217 L 136 217 L 210 205 L 210 205 L 218 203 L 218 203 L 221 196 L 221 196 L 256 130 L 256 130 L 291 196 L 291 196 L 295 203 L 295 203 L 302 205 L 302 204 Z" />
</svg>