<svg xmlns="http://www.w3.org/2000/svg" viewBox="0 0 512 448">
  <path d="M 16 8 L 16 0 L 16 8 L 16 0 L 0 0 L 0 0 L 0 8 L 0 8 L 0 440 L 0 440 L 0 448 L 0 448 L 8 448 L 512 448 L 512 432 L 512 432 L 504 432 L 16 432 L 16 8 L 16 8 Z M 368 32 L 352 32 L 368 32 L 304 32 L 304 48 L 304 48 L 304 64 L 304 64 L 304 128 L 304 128 L 304 144 L 304 144 L 304 160 L 304 160 L 320 160 L 368 160 L 368 144 L 368 144 L 368 128 L 368 128 L 368 64 L 368 64 L 368 48 L 368 48 L 368 32 L 368 32 Z M 320 64 L 320 48 L 320 64 L 320 48 L 352 48 L 352 48 L 352 64 L 352 64 L 352 128 L 352 128 L 352 144 L 352 144 L 320 144 L 320 144 L 320 128 L 320 128 L 320 64 L 320 64 Z M 256 112 L 256 128 L 256 112 L 256 128 L 256 192 L 256 192 L 256 208 L 256 208 L 224 208 L 224 208 L 224 192 L 224 192 L 224 128 L 224 128 L 224 112 L 224 112 L 256 112 L 256 112 Z M 160 208 L 160 224 L 160 208 L 160 224 L 160 288 L 160 288 L 160 304 L 160 304 L 128 304 L 128 304 L 128 288 L 128 288 L 128 224 L 128 224 L 128 208 L 128 208 L 160 208 L 160 208 Z M 448 48 L 448 64 L 448 48 L 448 64 L 448 288 L 448 288 L 448 304 L 448 304 L 416 304 L 416 304 L 416 288 L 416 288 L 416 64 L 416 64 L 416 48 L 416 48 L 448 48 L 448 48 Z M 272 128 L 272 112 L 272 128 L 272 112 L 272 96 L 272 96 L 256 96 L 208 96 L 208 112 L 208 112 L 208 128 L 208 128 L 208 192 L 208 192 L 208 208 L 208 208 L 208 224 L 208 224 L 224 224 L 272 224 L 272 208 L 272 208 L 272 192 L 272 192 L 272 128 L 272 128 Z M 176 224 L 176 208 L 176 224 L 176 208 L 176 192 L 176 192 L 160 192 L 112 192 L 112 208 L 112 208 L 112 224 L 112 224 L 112 288 L 112 288 L 112 304 L 112 304 L 112 320 L 112 320 L 128 320 L 176 320 L 176 304 L 176 304 L 176 288 L 176 288 L 176 224 L 176 224 Z M 464 64 L 464 48 L 464 64 L 464 48 L 464 32 L 464 32 L 448 32 L 400 32 L 400 48 L 400 48 L 400 64 L 400 64 L 400 288 L 400 288 L 400 304 L 400 304 L 400 320 L 400 320 L 416 320 L 464 320 L 464 304 L 464 304 L 464 288 L 464 288 L 464 64 L 464 64 Z" />
</svg>