<svg xmlns="http://www.w3.org/2000/svg" viewBox="0 0 511 511">
  <path d="M 505 18 L 488 34 L 505 18 L 488 34 L 488 39 L 488 39 L 488 215 L 488 215 L 488 231 L 488 231 L 472 227 L 472 227 L 424 215 L 424 215 L 408 167 L 408 167 L 360 151 L 360 151 L 344 103 L 344 103 L 296 87 L 296 87 L 284 39 L 284 39 L 280 23 L 280 23 L 297 23 L 477 23 L 494 6 L 494 6 L 499 0 L 499 0 L 511 12 L 511 12 L 505 17 L 505 18 Z M 421 154 L 423 162 L 421 154 L 423 162 L 436 202 L 436 202 L 472 211 L 472 211 L 472 39 L 472 39 L 301 39 L 301 39 L 309 75 L 309 75 L 349 88 L 349 88 L 357 90 L 357 90 L 359 98 L 359 98 L 373 138 L 373 138 L 413 152 L 413 152 L 421 154 L 421 154 Z M 170 138 Q 170 138 170 138 L 170 138 L 170 138 Q 170 138 170 138 Q 170 138 170 138 Q 170 138 170 138 Q 170 138 170 138 Q 126 159 87 183 Q 48 207 24 243 Q 0 279 0 335 Q 3 409 53 459 Q 102 509 176 511 Q 241 510 293 472 Q 346 433 386 375 Q 425 317 450 255 L 434 251 L 434 251 Q 408 315 366 375 Q 328 428 280 461 Q 232 494 176 495 Q 109 493 64 447 Q 19 402 16 335 Q 17 271 49 236 Q 82 199 135 173 Q 154 163 176 153 Q 176 153 176 153 Q 176 153 176 153 Q 176 153 176 153 Q 176 153 176 153 Q 176 153 176 153 Q 176 153 176 153 Q 210 137 242 119 Q 255 112 267 104 L 265 95 L 265 95 L 263 87 L 263 87 Q 219 116 170 138 L 170 138 Z" />
</svg>