<svg xmlns="http://www.w3.org/2000/svg" viewBox="0 0 624 496">
  <path d="M 32 10 L 20 0 L 32 10 L 20 0 L 0 25 L 0 25 L 13 35 L 13 35 L 592 486 L 592 486 L 604 496 L 604 496 L 624 471 L 624 471 L 612 461 L 612 461 L 32 10 L 32 10 Z M 452 440 L 56 440 L 452 440 L 56 440 L 56 127 L 56 127 L 24 102 L 24 102 L 24 440 L 24 440 L 24 472 L 24 472 L 56 472 L 492 472 L 452 440 L 452 440 Z M 568 24 L 132 24 L 568 24 L 132 24 L 172 56 L 172 56 L 568 56 L 568 56 L 568 369 L 568 369 L 600 394 L 600 394 L 600 56 L 600 56 L 600 24 L 600 24 L 568 24 L 568 24 Z M 415 248 L 456 280 L 415 248 L 456 280 L 488 280 L 504 280 L 504 248 L 504 248 L 488 248 L 415 248 Z M 136 248 L 120 248 L 136 248 L 120 248 L 120 280 L 120 280 L 136 280 L 249 280 L 209 248 L 209 248 L 136 248 L 136 248 Z M 296 344 L 280 344 L 296 344 L 280 344 L 280 376 L 280 376 L 296 376 L 371 376 L 330 344 L 330 344 L 296 344 L 296 344 Z M 136 344 L 120 344 L 136 344 L 120 344 L 120 376 L 120 376 L 136 376 L 248 376 L 248 344 L 248 344 L 232 344 L 136 344 Z" />
</svg>