<svg xmlns="http://www.w3.org/2000/svg" viewBox="0 0 576 480">
  <path d="M 16 448 L 0 448 L 16 448 L 0 448 L 0 432 L 0 432 L 0 16 L 0 16 L 0 0 L 0 0 L 16 0 L 336 0 L 448 112 L 448 112 L 448 161 L 448 161 Q 440 160 432 160 L 432 119 L 432 119 L 329 16 L 329 16 L 320 16 L 320 16 L 320 152 L 320 152 Q 319 159 312 160 L 72 160 L 72 160 Q 65 159 64 152 L 64 16 L 64 16 L 16 16 L 16 16 L 16 432 L 16 432 L 285 432 L 285 432 Q 290 440 296 448 L 16 448 L 16 448 Z M 224 208 Q 263 209 288 235 Q 283 242 279 249 Q 258 225 224 224 Q 193 225 173 245 Q 153 265 152 296 Q 153 327 173 347 Q 193 367 224 368 Q 242 368 258 360 Q 259 368 261 376 Q 244 384 224 384 Q 187 383 162 358 Q 137 333 136 296 Q 137 259 162 234 Q 187 209 224 208 L 224 208 Z M 80 16 L 80 144 L 80 16 L 80 144 L 304 144 L 304 144 L 304 16 L 304 16 L 80 16 L 80 16 Z M 432 464 Q 467 464 496 447 L 496 447 L 496 447 Q 525 430 543 400 Q 560 370 560 336 Q 560 302 543 272 Q 525 242 496 225 Q 467 208 432 208 Q 397 208 368 225 Q 339 242 321 272 Q 304 302 304 336 Q 304 370 321 400 Q 339 430 368 447 Q 397 464 432 464 L 432 464 Z M 432 192 Q 471 192 504 211 L 504 211 L 504 211 Q 537 230 557 264 Q 576 298 576 336 Q 576 374 557 408 Q 537 442 504 461 Q 471 480 432 480 Q 393 480 360 461 Q 327 442 307 408 Q 288 374 288 336 Q 288 298 307 264 Q 327 230 360 211 Q 393 192 432 192 L 432 192 Z M 440 261 L 446 266 L 440 261 L 446 266 L 510 330 L 510 330 L 515 336 L 515 336 L 510 342 L 510 342 L 446 406 L 446 406 L 440 412 L 440 412 L 429 400 L 429 400 L 434 394 L 434 394 L 485 344 L 485 344 L 360 344 L 352 344 L 352 328 L 352 328 L 360 328 L 485 328 L 434 278 L 434 278 L 429 272 L 429 272 L 440 261 L 440 261 Z" />
</svg>