<svg xmlns="http://www.w3.org/2000/svg" viewBox="0 0 448 448">
  <path d="M 16 16 L 16 432 L 16 16 L 16 432 L 432 432 L 432 432 L 432 16 L 432 16 L 16 16 L 16 16 Z M 0 0 L 16 0 L 0 0 L 448 0 L 448 16 L 448 16 L 448 432 L 448 432 L 448 448 L 448 448 L 432 448 L 0 448 L 0 432 L 0 432 L 0 16 L 0 16 L 0 0 L 0 0 Z M 232 96 L 232 104 L 232 96 L 232 104 L 232 264 L 232 264 L 232 272 L 232 272 L 216 272 L 216 272 L 216 264 L 216 264 L 216 104 L 216 104 L 216 96 L 216 96 L 232 96 L 232 96 Z M 208 304 L 240 304 L 208 304 L 240 304 L 240 336 L 240 336 L 208 336 L 208 336 L 208 304 L 208 304 Z" />
</svg>