<svg xmlns="http://www.w3.org/2000/svg" viewBox="0 0 640 512">
  <path d="M 533 288 L 560 288 L 533 288 L 576 288 L 576 272 L 576 272 L 576 240 L 576 240 L 576 224 L 576 224 L 560 224 L 533 224 Q 494 221 481 189 Q 468 158 493 128 L 512 109 L 512 109 L 524 98 L 524 98 L 512 86 L 512 86 L 490 64 L 490 64 L 478 52 L 478 52 L 467 64 L 467 64 L 448 83 L 448 83 Q 418 108 387 95 Q 355 82 352 44 L 352 16 L 352 16 L 352 0 L 352 0 L 336 0 L 288 0 L 288 16 L 288 16 L 288 44 L 288 44 Q 287 67 273 82 Q 258 97 238 99 L 254 112 L 254 112 Q 275 105 289 87 Q 303 70 304 44 L 304 16 L 304 16 L 336 16 L 336 16 L 336 44 L 336 44 Q 337 76 358 95 Q 379 115 407 116 Q 435 117 459 94 Q 459 94 459 94 L 478 75 L 478 75 L 501 98 L 501 98 L 482 117 L 482 117 Q 459 141 460 169 Q 461 197 481 218 Q 500 239 533 240 L 560 240 L 560 240 L 560 272 L 560 272 L 533 272 L 533 272 Q 501 273 482 292 L 495 302 L 495 302 Q 510 289 533 288 L 533 288 Z M 145 210 Q 130 223 108 224 L 80 224 L 64 224 L 64 240 L 64 240 L 64 272 L 64 272 L 64 288 L 64 288 L 80 288 L 108 288 Q 146 291 159 323 Q 172 354 147 384 L 128 403 L 128 403 L 116 414 L 116 414 L 128 426 L 128 426 L 139 437 L 139 437 L 150 448 L 150 448 L 162 460 L 162 460 L 173 448 L 173 448 L 192 429 L 192 429 Q 192 429 192 429 Q 192 429 192 429 Q 222 403 253 417 Q 285 430 288 468 L 288 496 L 288 496 L 288 512 L 288 512 L 304 512 L 352 512 L 352 496 L 352 496 L 352 468 L 352 468 Q 353 445 367 430 Q 382 415 402 413 L 386 400 L 386 400 Q 365 407 351 425 Q 337 442 336 469 L 336 496 L 336 496 L 304 496 L 304 496 L 304 469 L 304 469 Q 303 436 282 417 Q 261 397 233 396 Q 205 395 181 418 Q 181 418 181 418 Q 181 418 181 418 Q 181 418 181 418 Q 181 418 181 418 Q 181 418 181 418 Q 181 418 181 418 L 162 437 L 162 437 L 150 426 L 150 426 L 139 414 L 139 414 L 159 395 L 159 395 Q 181 371 180 343 Q 179 315 159 294 Q 140 273 108 272 L 80 272 L 80 272 L 80 240 L 80 240 L 108 240 L 108 240 Q 139 239 158 220 L 145 210 L 145 210 Z M 16 5 L 10 0 L 16 5 L 10 0 L 0 13 L 0 13 L 6 18 L 6 18 L 624 507 L 624 507 L 630 512 L 630 512 L 640 500 L 640 500 L 634 495 L 634 495 L 16 5 L 16 5 Z" />
</svg>