<svg xmlns="http://www.w3.org/2000/svg" viewBox="0 0 511 511">
  <path d="M 269 34 L 269 34 L 269 34 L 269 34 Q 244 61 239 95 L 223 80 L 223 80 L 193 109 L 193 109 Q 163 137 158 175 L 143 160 L 143 160 L 113 188 L 113 188 Q 79 222 78 268 Q 77 313 111 349 L 120 357 L 120 357 Q 120 357 120 357 Q 120 357 120 357 L 17 460 L 17 460 L 0 477 L 0 477 L 34 511 L 34 511 L 51 494 L 51 494 L 154 391 L 154 391 L 162 400 L 162 400 Q 198 434 243 433 Q 289 432 323 398 L 351 368 L 351 368 L 342 359 L 342 359 Q 370 352 391 331 L 431 288 L 431 288 L 421 278 L 421 278 Q 447 272 467 252 L 477 242 L 477 242 L 511 208 L 511 208 L 482 179 L 482 179 Q 480 177 479 176 Q 478 175 477 174 Q 460 159 439 151 Q 471 144 491 120 Q 510 97 511 64 L 511 48 L 511 48 L 511 0 L 511 0 L 463 0 L 447 0 Q 414 1 391 21 Q 367 40 361 72 Q 352 51 337 34 Q 335 32 333 30 L 332 29 L 332 29 L 303 0 L 303 0 L 270 33 L 270 33 L 269 34 L 269 34 Z M 303 68 Q 320 89 322 115 L 322 115 L 322 115 Q 323 140 310 163 L 304 157 L 304 157 Q 286 138 285 113 Q 285 88 303 68 L 303 68 Z M 224 236 Q 205 216 205 191 L 205 191 L 205 191 Q 205 166 222 147 Q 241 167 243 194 Q 245 220 231 243 L 224 236 L 224 236 Z M 145 315 Q 126 296 126 271 L 126 271 L 126 271 Q 125 246 143 226 Q 161 247 163 273 Q 165 299 152 322 L 145 315 L 145 315 Z M 285 368 Q 265 385 240 385 L 240 385 L 240 385 Q 215 385 196 366 L 189 359 L 189 359 Q 212 345 238 348 Q 264 350 285 368 L 285 368 Z M 364 289 L 356 298 L 364 289 L 356 298 Q 341 312 322 313 Q 302 313 287 299 L 268 280 L 268 280 Q 291 266 317 268 Q 344 270 365 289 L 364 289 Z M 348 201 Q 371 188 396 189 L 396 189 L 396 189 Q 422 191 443 208 L 433 218 L 433 218 Q 418 232 399 232 Q 380 232 365 218 L 348 201 L 348 201 Z M 447 48 L 463 48 L 447 48 L 463 48 L 463 64 L 463 64 Q 463 81 451 92 Q 440 104 423 104 L 407 104 L 407 104 L 407 88 L 407 88 Q 407 71 419 60 Q 430 48 447 48 L 447 48 Z" />
</svg>