<svg xmlns="http://www.w3.org/2000/svg" viewBox="0 0 448 512">
  <path d="M 368 99 L 368 144 L 368 99 L 368 144 Q 356 153 319 164 Q 282 175 224 176 Q 166 175 129 164 Q 92 153 80 144 L 80 99 L 80 99 L 48 80 L 48 80 L 48 48 L 48 48 L 224 0 L 224 0 L 400 48 L 400 48 L 400 80 L 400 80 L 368 99 L 368 99 Z M 352 135 L 352 99 L 352 135 L 352 99 L 352 90 L 352 90 L 360 85 L 360 85 L 384 71 L 384 71 L 384 60 L 384 60 L 224 17 L 224 17 L 64 60 L 64 60 L 64 71 L 64 71 L 88 86 L 88 86 L 96 90 L 96 90 L 96 99 L 96 99 L 96 135 L 96 135 Q 111 143 143 151 Q 176 159 224 160 Q 272 159 305 151 Q 337 143 352 135 L 352 135 Z M 214 467 L 224 480 L 214 467 L 224 480 L 234 467 L 234 467 L 240 459 L 240 459 L 224 432 L 224 432 L 208 459 L 208 459 L 214 467 L 214 467 Z M 128 352 L 198 445 L 128 352 L 198 445 L 215 416 L 215 416 L 178 365 L 178 365 L 169 352 L 169 352 L 184 352 L 280 352 L 271 365 L 271 365 L 234 416 L 234 416 L 251 445 L 251 445 L 320 352 L 320 352 L 400 352 L 400 352 L 443 496 L 443 496 L 448 512 L 448 512 L 431 512 L 0 512 L 5 496 L 5 496 L 48 352 L 48 352 L 128 352 L 128 352 Z M 225 401 L 249 368 L 225 401 L 249 368 L 200 368 L 200 368 L 224 401 L 224 401 L 224 400 L 224 400 L 225 401 L 225 401 Z M 328 368 L 237 490 L 328 368 L 237 490 L 232 496 L 232 496 L 427 496 L 427 496 L 388 368 L 388 368 L 328 368 L 328 368 Z M 216 496 L 211 490 L 216 496 L 211 490 L 120 368 L 120 368 L 60 368 L 60 368 L 22 496 L 22 496 L 216 496 L 216 496 Z M 96 183 Q 104 187 112 190 Q 112 191 112 191 Q 112 191 112 192 Q 113 240 145 271 Q 176 303 224 304 Q 272 303 303 271 Q 335 240 336 192 Q 336 191 336 191 Q 336 191 336 190 Q 345 187 352 183 Q 352 188 352 192 Q 351 246 315 283 Q 278 319 224 320 Q 170 319 133 283 Q 97 246 96 192 Q 96 188 96 183 L 96 183 Z M 320 432 L 328 432 L 320 432 L 384 432 L 384 448 L 384 448 L 376 448 L 320 448 L 320 432 L 320 432 Z M 164 65 L 224 95 L 164 65 L 224 95 L 284 65 L 284 65 L 292 61 L 292 61 L 299 76 L 299 76 L 292 79 L 292 79 L 228 111 L 228 111 L 224 113 L 224 113 L 220 111 L 220 111 L 156 79 L 156 79 L 149 76 L 149 76 L 156 61 L 156 61 L 164 65 L 164 65 Z" />
</svg>