<svg xmlns="http://www.w3.org/2000/svg" viewBox="0 0 512 448">
  <path d="M 16 8 L 16 0 L 16 8 L 16 0 L 0 0 L 0 0 L 0 8 L 0 8 L 0 440 L 0 440 L 0 448 L 0 448 L 8 448 L 512 448 L 512 432 L 512 432 L 504 432 L 16 432 L 16 8 L 16 8 Z M 448 80 L 448 96 L 448 80 L 448 96 L 448 320 L 448 320 L 448 336 L 448 336 L 416 336 L 416 336 L 416 320 L 416 320 L 416 96 L 416 96 L 416 80 L 416 80 L 448 80 L 448 80 Z M 256 144 L 256 160 L 256 144 L 256 160 L 256 320 L 256 320 L 256 336 L 256 336 L 224 336 L 224 336 L 224 320 L 224 320 L 224 160 L 224 160 L 224 144 L 224 144 L 256 144 L 256 144 Z M 160 240 L 160 256 L 160 240 L 160 256 L 160 320 L 160 320 L 160 336 L 160 336 L 128 336 L 128 336 L 128 320 L 128 320 L 128 256 L 128 256 L 128 240 L 128 240 L 160 240 L 160 240 Z M 368 192 L 352 192 L 368 192 L 304 192 L 304 208 L 304 208 L 304 224 L 304 224 L 304 320 L 304 320 L 304 336 L 304 336 L 304 352 L 304 352 L 320 352 L 368 352 L 368 336 L 368 336 L 368 320 L 368 320 L 368 224 L 368 224 L 368 208 L 368 208 L 368 192 L 368 192 Z M 320 224 L 320 208 L 320 224 L 320 208 L 352 208 L 352 208 L 352 224 L 352 224 L 352 320 L 352 320 L 352 336 L 352 336 L 320 336 L 320 336 L 320 320 L 320 320 L 320 224 L 320 224 Z M 464 96 L 464 80 L 464 96 L 464 80 L 464 64 L 464 64 L 448 64 L 400 64 L 400 80 L 400 80 L 400 96 L 400 96 L 400 320 L 400 320 L 400 336 L 400 336 L 400 352 L 400 352 L 416 352 L 464 352 L 464 336 L 464 336 L 464 320 L 464 320 L 464 96 L 464 96 Z M 272 160 L 272 144 L 272 160 L 272 144 L 272 128 L 272 128 L 256 128 L 208 128 L 208 144 L 208 144 L 208 160 L 208 160 L 208 320 L 208 320 L 208 336 L 208 336 L 208 352 L 208 352 L 224 352 L 272 352 L 272 336 L 272 336 L 272 320 L 272 320 L 272 160 L 272 160 Z M 176 256 L 176 240 L 176 256 L 176 240 L 176 224 L 176 224 L 160 224 L 112 224 L 112 240 L 112 240 L 112 256 L 112 256 L 112 320 L 112 320 L 112 336 L 112 336 L 112 352 L 112 352 L 128 352 L 176 352 L 176 336 L 176 336 L 176 320 L 176 320 L 176 256 L 176 256 Z" />
</svg>