<svg xmlns="http://www.w3.org/2000/svg" viewBox="0 0 576 512">
  <path d="M 128 8 L 128 0 L 128 8 L 128 0 L 112 0 L 112 0 L 112 8 L 112 8 L 112 64 L 112 64 L 16 64 L 0 64 L 0 80 L 0 80 L 0 176 L 0 176 L 0 192 L 0 192 L 0 496 L 0 496 L 0 512 L 0 512 L 16 512 L 331 512 Q 320 505 311 496 L 16 496 L 16 496 L 16 192 L 16 192 L 352 192 L 448 192 L 448 176 L 448 176 L 448 80 L 448 80 L 448 64 L 448 64 L 432 64 L 336 64 L 336 8 L 336 8 L 336 0 L 336 0 L 320 0 L 320 0 L 320 8 L 320 8 L 320 64 L 320 64 L 128 64 L 128 64 L 128 8 L 128 8 Z M 112 80 L 112 120 L 112 80 L 112 120 L 112 128 L 112 128 L 128 128 L 128 128 L 128 120 L 128 120 L 128 80 L 128 80 L 320 80 L 320 80 L 320 120 L 320 120 L 320 128 L 320 128 L 336 128 L 336 128 L 336 120 L 336 120 L 336 80 L 336 80 L 432 80 L 432 80 L 432 176 L 432 176 L 16 176 L 16 176 L 16 80 L 16 80 L 112 80 L 112 80 Z M 432 240 Q 467 240 496 257 L 496 257 L 496 257 Q 525 274 543 304 Q 560 334 560 368 Q 560 402 543 432 Q 525 462 496 479 Q 467 496 432 496 Q 397 496 368 479 Q 339 462 321 432 Q 304 402 304 368 Q 304 334 321 304 Q 339 274 368 257 Q 397 240 432 240 L 432 240 Z M 432 512 Q 471 512 504 493 L 504 493 L 504 493 Q 537 474 557 440 Q 576 406 576 368 Q 576 330 557 296 Q 537 262 504 243 Q 471 224 432 224 Q 393 224 360 243 Q 327 262 307 296 Q 288 330 288 368 Q 288 406 307 440 Q 327 474 360 493 Q 393 512 432 512 L 432 512 Z M 512 376 L 512 360 L 512 376 L 512 360 L 504 360 L 352 360 L 352 376 L 352 376 L 360 376 L 512 376 Z" />
</svg>