<svg xmlns="http://www.w3.org/2000/svg" viewBox="0 0 448 512">
  <path d="M 16 16 L 16 496 L 16 16 L 16 496 L 432 496 L 432 496 L 432 16 L 432 16 L 16 16 L 16 16 Z M 0 0 L 16 0 L 0 0 L 448 0 L 448 16 L 448 16 L 448 496 L 448 496 L 448 512 L 448 512 L 432 512 L 0 512 L 0 496 L 0 496 L 0 16 L 0 16 L 0 0 L 0 0 Z M 208 432 Q 209 447 224 448 Q 239 447 240 432 Q 239 417 224 416 Q 209 417 208 432 L 208 432 Z M 224 464 Q 210 464 201 455 L 201 455 L 201 455 Q 192 446 192 432 Q 192 418 201 409 Q 210 400 224 400 Q 238 400 247 409 Q 256 418 256 432 Q 256 446 247 455 Q 238 464 224 464 L 224 464 Z" />
</svg>