<svg xmlns="http://www.w3.org/2000/svg" viewBox="0 0 320 512">
  <path d="M 80 64 L 112 48 L 80 64 L 112 48 Q 113 28 126 14 Q 140 1 160 0 Q 180 1 194 14 Q 207 28 208 48 L 240 64 L 240 64 L 240 96 L 240 96 L 256 96 L 256 96 L 256 128 L 256 128 L 256 160 L 256 160 L 278 182 L 278 182 Q 319 224 320 284 L 320 480 L 320 480 L 320 512 L 320 512 L 288 512 L 0 512 L 0 480 L 0 480 L 0 284 L 0 284 Q 1 224 42 182 L 64 160 L 64 160 L 64 128 L 64 128 L 64 96 L 64 96 L 80 96 L 80 96 L 80 64 L 80 64 Z M 112 96 L 208 96 L 112 96 L 208 96 L 208 84 L 208 84 L 194 77 L 194 77 L 176 68 L 176 68 L 176 48 L 176 48 Q 175 33 160 32 Q 145 33 144 48 L 144 68 L 144 68 L 126 77 L 126 77 L 112 84 L 112 84 L 112 96 L 112 96 Z M 96 128 L 96 160 L 96 128 L 96 160 L 224 160 L 224 160 L 224 128 L 224 128 L 208 128 L 96 128 Z M 65 205 Q 33 238 32 284 L 32 288 L 32 288 L 160 288 L 160 288 L 160 320 L 160 320 L 32 320 L 32 320 L 32 384 L 32 384 L 160 384 L 160 384 L 160 416 L 160 416 L 32 416 L 32 416 L 32 480 L 32 480 L 288 480 L 288 480 L 288 284 L 288 284 Q 287 238 255 205 L 243 192 L 243 192 L 224 192 L 77 192 L 65 205 L 65 205 Z" />
</svg>