<svg xmlns="http://www.w3.org/2000/svg" viewBox="0 0 384 512">
  <path d="M 368 16 L 368 176 L 368 16 L 368 176 L 272 176 L 272 176 L 272 104 L 272 104 L 272 96 L 272 96 L 256 96 L 256 96 L 256 104 L 256 104 L 256 176 L 256 176 L 16 176 L 16 176 L 16 16 L 16 16 L 368 16 L 368 16 Z M 256 192 L 256 376 L 256 192 L 256 376 L 256 384 L 256 384 L 272 384 L 272 384 L 272 376 L 272 376 L 272 192 L 272 192 L 368 192 L 368 192 L 368 496 L 368 496 L 16 496 L 16 496 L 16 192 L 16 192 L 256 192 L 256 192 Z M 0 16 L 0 184 L 0 16 L 0 184 L 0 496 L 0 496 L 0 512 L 0 512 L 16 512 L 384 512 L 384 496 L 384 496 L 384 184 L 384 184 L 384 16 L 384 16 L 384 0 L 384 0 L 368 0 L 0 0 L 0 16 L 0 16 Z" />
</svg>