<svg xmlns="http://www.w3.org/2000/svg" viewBox="0 0 640 448">
  <path d="M 16 8 L 16 0 L 16 8 L 16 0 L 0 0 L 0 0 L 0 8 L 0 8 L 0 168 L 0 168 L 0 296 L 0 296 L 0 376 L 0 376 L 0 440 L 0 440 L 0 448 L 0 448 L 16 448 L 16 448 L 16 440 L 16 440 L 16 384 L 16 384 L 624 384 L 624 384 L 624 440 L 624 440 L 624 448 L 624 448 L 640 448 L 640 448 L 640 440 L 640 440 L 640 376 L 640 376 L 640 296 L 640 296 L 640 168 L 640 168 L 640 160 L 640 160 L 632 160 L 16 160 L 16 8 L 16 8 Z M 624 288 L 16 288 L 624 288 L 16 288 L 16 176 L 16 176 L 624 176 L 624 176 L 624 288 L 624 288 Z M 16 304 L 624 304 L 16 304 L 624 304 L 624 368 L 624 368 L 16 368 L 16 368 L 16 304 L 16 304 Z" />
</svg>