<svg xmlns="http://www.w3.org/2000/svg" viewBox="0 0 512 512">
  <path d="M 96 416 L 112 416 L 96 416 L 512 416 L 512 400 L 512 400 L 512 112 L 512 112 L 400 0 L 400 0 L 176 0 L 96 0 L 96 16 L 96 16 L 96 400 L 96 400 L 96 416 L 96 416 Z M 112 16 L 160 16 L 112 16 L 160 16 L 160 136 L 160 136 L 160 144 L 160 144 L 168 144 L 384 144 L 384 136 L 384 136 L 384 16 L 384 16 L 393 16 L 393 16 L 496 119 L 496 119 L 496 400 L 496 400 L 112 400 L 112 400 L 112 16 L 112 16 Z M 368 128 L 176 128 L 368 128 L 176 128 L 176 16 L 176 16 L 368 16 L 368 16 L 368 128 L 368 128 Z M 240 272 Q 241 236 272 217 Q 304 199 336 217 Q 367 236 368 272 Q 367 308 336 327 Q 304 345 272 327 Q 241 308 240 272 L 240 272 Z M 384 272 Q 383 227 344 203 Q 304 181 264 203 Q 225 227 224 272 Q 225 317 264 341 Q 304 363 344 341 Q 383 317 384 272 L 384 272 Z M 16 96 L 0 96 L 16 96 L 0 96 L 0 112 L 0 112 L 0 496 L 0 496 L 0 512 L 0 512 L 16 512 L 416 512 L 416 496 L 416 496 L 416 448 L 416 448 L 400 448 L 400 448 L 400 496 L 400 496 L 16 496 L 16 496 L 16 112 L 16 112 L 64 112 L 64 112 L 64 96 L 64 96 L 16 96 L 16 96 Z" />
</svg>