<svg xmlns="http://www.w3.org/2000/svg" viewBox="0 0 640 512">
  <path d="M 116 0 L 111 0 L 116 0 L 111 0 L 109 4 L 109 4 L 95 29 L 95 29 L 7 189 L 7 189 L 1 200 L 1 200 L 0 202 L 0 202 L 0 204 L 0 204 L 0 216 L 0 216 L 0 408 L 0 408 L 0 416 L 0 416 L 8 416 L 112 416 L 112 408 L 112 408 L 112 230 L 112 230 L 160 143 L 160 143 L 160 504 L 160 504 L 160 512 L 160 512 L 168 512 L 480 512 L 480 504 L 480 504 L 480 143 L 480 143 L 528 230 L 528 230 L 528 408 L 528 408 L 528 416 L 528 416 L 536 416 L 640 416 L 640 408 L 640 408 L 640 216 L 640 216 L 640 204 L 640 204 L 640 202 L 640 202 L 639 200 L 639 200 L 633 189 L 633 189 L 545 29 L 545 29 L 531 4 L 531 4 L 529 0 L 529 0 L 524 0 L 116 0 Z M 109 37 L 120 16 L 109 37 L 120 16 L 144 16 L 225 16 Q 232 51 258 73 Q 284 95 320 96 Q 356 95 382 73 Q 408 51 415 16 L 448 16 L 520 16 L 531 37 L 531 37 L 619 197 L 619 197 L 624 206 L 624 206 L 624 216 L 624 216 L 624 400 L 624 400 L 544 400 L 544 400 L 544 228 L 544 228 L 544 226 L 544 226 L 543 224 L 543 224 L 479 108 L 479 108 L 464 112 L 464 112 L 464 496 L 464 496 L 176 496 L 176 496 L 176 112 L 176 112 L 161 108 L 161 108 L 97 225 L 97 225 L 96 226 L 96 226 L 96 228 L 96 228 L 96 400 L 96 400 L 16 400 L 16 400 L 16 216 L 16 216 L 16 206 L 16 206 L 21 197 L 21 197 L 109 37 L 109 37 Z M 398 16 Q 392 44 371 62 L 371 62 L 371 62 Q 350 79 320 80 Q 290 79 269 62 Q 248 44 242 16 L 398 16 L 398 16 Z" />
</svg>