<svg xmlns="http://www.w3.org/2000/svg" viewBox="0 0 320 512">
  <path d="M 304 160 Q 302 99 262 58 L 262 58 L 262 58 Q 221 18 160 16 Q 99 18 58 58 Q 18 99 16 160 L 16 368 L 16 368 L 152 368 L 152 368 L 152 168 L 152 168 L 152 160 L 152 160 L 168 160 L 168 160 L 168 168 L 168 168 L 168 368 L 168 368 L 304 368 L 304 368 L 304 160 L 304 160 Z M 152 384 L 16 384 L 152 384 L 0 384 L 0 368 L 0 368 L 0 160 L 0 160 Q 2 92 47 47 Q 92 2 160 0 Q 228 2 273 47 Q 318 92 320 160 L 320 368 L 320 368 L 320 384 L 320 384 L 304 384 L 168 384 L 168 504 L 168 504 L 168 512 L 168 512 L 152 512 L 152 512 L 152 504 L 152 504 L 152 384 L 152 384 Z" />
</svg>