<svg xmlns="http://www.w3.org/2000/svg" viewBox="0 0 512 448">
  <path d="M 112 16 L 112 64 L 112 16 L 112 64 L 192 64 L 192 64 L 192 16 L 192 16 L 112 16 L 112 16 Z M 96 64 L 96 16 L 96 64 L 96 16 L 96 0 L 96 0 L 112 0 L 208 0 L 208 16 L 208 16 L 208 64 L 208 64 L 224 64 L 224 64 L 224 80 L 224 80 L 224 96 L 224 96 L 288 96 L 288 96 L 288 80 L 288 80 L 288 64 L 288 64 L 304 64 L 304 64 L 304 16 L 304 16 L 304 0 L 304 0 L 320 0 L 416 0 L 416 16 L 416 16 L 416 64 L 416 64 L 448 64 L 448 64 L 464 192 L 464 192 L 512 272 L 512 272 L 512 432 L 512 432 L 512 448 L 512 448 L 496 448 L 288 448 L 288 432 L 288 432 L 288 256 L 288 256 L 224 256 L 224 256 L 224 432 L 224 432 L 224 448 L 224 448 L 208 448 L 0 448 L 0 432 L 0 432 L 0 272 L 0 272 L 48 192 L 48 192 L 64 64 L 64 64 L 96 64 L 96 64 Z M 96 80 L 78 80 L 96 80 L 78 80 L 64 194 L 64 194 L 64 197 L 64 197 L 62 200 L 62 200 L 16 276 L 16 276 L 16 432 L 16 432 L 208 432 L 208 432 L 208 248 L 208 248 L 208 104 L 208 104 L 208 80 L 208 80 L 192 80 L 96 80 Z M 400 64 L 400 16 L 400 64 L 400 16 L 320 16 L 320 16 L 320 64 L 320 64 L 400 64 L 400 64 Z M 320 80 L 304 80 L 320 80 L 304 80 L 304 104 L 304 104 L 304 248 L 304 248 L 304 432 L 304 432 L 496 432 L 496 432 L 496 276 L 496 276 L 450 200 L 450 200 L 449 197 L 449 197 L 448 194 L 448 194 L 434 80 L 434 80 L 416 80 L 320 80 Z M 224 240 L 288 240 L 224 240 L 288 240 L 288 112 L 288 112 L 224 112 L 224 112 L 224 240 L 224 240 Z" />
</svg>