<svg xmlns="http://www.w3.org/2000/svg" viewBox="0 0 512 448">
  <path d="M 224 0 L 272 64 L 224 0 L 272 64 L 496 64 L 512 64 L 512 80 L 512 80 L 512 432 L 512 432 L 512 448 L 512 448 L 496 448 L 0 448 L 0 432 L 0 432 L 0 16 L 0 16 L 0 0 L 0 0 L 16 0 L 224 0 Z M 272 80 L 264 80 L 272 80 L 264 80 L 259 74 L 259 74 L 216 16 L 216 16 L 16 16 L 16 16 L 16 432 L 16 432 L 496 432 L 496 432 L 496 80 L 496 80 L 272 80 L 272 80 Z M 240 320 Q 269 319 291 302 L 290 302 L 290 302 L 302 291 L 302 291 L 302 291 L 302 291 Q 319 269 320 240 Q 319 206 297 183 Q 274 161 240 160 Q 206 161 183 183 Q 161 206 160 240 Q 161 274 183 297 Q 206 319 240 320 L 240 320 Z M 240 336 Q 199 335 172 308 L 172 308 L 172 308 Q 145 281 144 240 Q 145 199 172 172 Q 199 145 240 144 Q 281 145 308 172 Q 335 199 336 240 Q 335 276 313 302 L 358 347 L 358 347 L 363 352 L 363 352 L 352 364 L 352 364 L 346 358 L 346 358 L 302 313 L 302 313 Q 276 335 240 336 L 240 336 Z" />
</svg>