<svg xmlns="http://www.w3.org/2000/svg" viewBox="0 0 626 512">
  <path d="M 288 215 L 288 220 L 288 215 L 288 220 L 291 224 L 291 224 L 324 272 L 324 272 L 333 257 L 333 257 L 304 215 L 304 215 L 304 16 L 304 16 L 328 16 L 336 16 L 336 0 L 336 0 L 328 0 L 112 0 L 112 16 L 112 16 L 120 16 L 144 16 L 144 215 L 144 215 L 0 423 L 0 423 L 0 496 L 0 496 L 0 512 L 0 512 L 16 512 L 352 512 L 352 496 L 352 496 L 16 496 L 16 496 L 16 428 L 16 428 L 69 352 L 69 352 L 72 352 L 326 352 L 326 352 L 326 352 L 299 336 L 299 336 L 80 336 L 80 336 L 157 224 L 157 224 L 160 220 L 160 220 L 160 215 L 160 215 L 160 16 L 160 16 L 288 16 L 288 16 L 288 215 L 288 215 Z M 524 249 L 524 222 L 524 249 L 524 222 L 524 206 L 524 206 L 508 206 L 436 206 L 436 222 L 436 222 L 436 249 L 436 249 Q 424 254 413 261 L 392 249 L 392 249 L 378 241 L 378 241 L 370 255 L 370 255 L 342 305 L 342 305 L 334 319 L 334 319 L 347 327 L 347 327 L 369 339 L 369 339 Q 368 345 368 352 Q 368 358 369 364 L 347 376 L 347 376 L 334 384 L 334 384 L 342 398 L 342 398 L 379 462 L 379 462 L 413 442 L 413 442 Q 424 450 436 455 L 436 481 L 436 481 L 436 497 L 436 497 L 452 497 L 524 497 L 524 481 L 524 481 L 524 455 L 524 455 Q 536 450 546 442 L 581 462 L 581 462 L 618 398 L 618 398 L 626 384 L 626 384 L 613 376 L 613 376 L 591 364 L 591 364 Q 592 358 592 352 Q 592 345 591 339 L 613 327 L 613 327 L 626 319 L 626 319 L 618 305 L 618 305 L 581 241 L 581 241 Q 581 241 581 241 Q 581 241 581 241 L 546 261 L 546 261 Q 536 254 524 249 L 524 249 Z M 576 263 L 605 313 L 576 263 L 605 313 L 583 326 L 583 326 L 574 331 L 574 331 L 575 341 L 575 341 Q 576 346 576 352 Q 576 357 575 362 L 574 373 L 574 373 L 583 378 L 583 378 L 605 390 L 605 390 L 576 440 L 576 440 L 554 428 L 554 428 L 545 423 L 545 423 L 537 429 L 537 429 Q 528 435 518 440 L 508 444 L 508 444 L 508 455 L 508 455 L 508 481 L 508 481 L 452 481 L 452 481 L 452 455 L 452 455 L 452 444 L 452 444 L 442 440 L 442 440 Q 432 436 423 429 L 415 423 L 415 423 L 406 428 L 406 428 L 384 440 L 384 440 L 355 390 L 355 390 L 377 378 L 377 378 L 386 373 L 386 373 L 385 362 L 385 362 Q 384 357 384 352 Q 384 346 385 341 L 386 331 L 386 331 L 377 326 L 377 326 L 356 313 L 356 313 L 384 263 L 384 263 L 406 275 L 406 275 L 415 281 L 415 281 L 423 274 L 423 274 Q 432 268 442 263 L 452 259 L 452 259 L 452 249 L 452 249 L 452 223 L 452 223 L 508 223 L 508 223 L 508 249 L 508 249 L 508 259 L 508 259 L 518 264 L 518 264 Q 528 268 537 275 L 545 281 L 545 281 L 554 276 L 554 276 L 576 263 L 576 263 Z M 480 320 Q 494 320 503 329 L 503 329 L 503 329 Q 512 338 512 352 Q 512 365 503 374 Q 494 383 480 384 Q 466 383 457 374 Q 448 365 448 352 Q 448 338 457 329 Q 466 320 480 320 L 480 320 Z M 480 400 Q 507 399 522 376 Q 534 352 522 328 Q 507 305 480 304 Q 453 305 438 328 Q 426 352 438 376 Q 453 399 480 400 L 480 400 Z" />
</svg>