<svg xmlns="http://www.w3.org/2000/svg" viewBox="0 0 576 480">
  <path d="M 18 144 L 74 16 L 18 144 L 74 16 L 216 16 L 216 16 L 216 144 L 216 144 L 18 144 L 18 144 Z M 431 144 L 232 144 L 431 144 L 232 144 L 232 16 L 232 16 L 374 16 L 374 16 L 431 144 L 431 144 Z M 16 160 L 352 160 L 16 160 L 448 160 L 448 144 L 448 144 L 384 0 L 384 0 L 64 0 L 64 0 L 0 144 L 0 144 L 0 432 L 0 432 L 0 448 L 0 448 L 16 448 L 296 448 Q 290 440 284 432 L 16 432 L 16 432 L 16 160 L 16 160 Z M 432 208 Q 467 208 496 225 L 496 225 L 496 225 Q 525 242 543 272 Q 560 302 560 336 Q 560 370 543 400 Q 525 430 496 447 Q 467 464 432 464 Q 397 464 368 447 Q 339 430 321 400 Q 304 370 304 336 Q 304 302 321 272 Q 339 242 368 225 Q 397 208 432 208 L 432 208 Z M 432 480 Q 471 480 504 461 L 504 461 L 504 461 Q 537 442 557 408 Q 576 374 576 336 Q 576 298 557 264 Q 537 230 504 211 Q 471 192 432 192 Q 393 192 360 211 Q 327 230 307 264 Q 288 298 288 336 Q 288 374 307 408 Q 327 442 360 461 Q 393 480 432 480 L 432 480 Z M 507 296 L 496 285 L 507 296 L 496 285 L 490 290 L 490 290 L 416 365 L 416 365 L 374 322 L 374 322 L 368 317 L 368 317 L 357 328 L 357 328 L 362 334 L 362 334 L 410 382 L 410 382 L 416 387 L 416 387 L 422 382 L 422 382 L 502 302 L 502 302 L 508 296 L 507 296 Z" />
</svg>