<svg xmlns="http://www.w3.org/2000/svg" viewBox="0 0 512 512">
  <path d="M 112 0 L 112 8 L 112 0 L 112 8 L 112 32 L 112 32 L 192 32 L 192 32 L 192 8 L 192 8 L 192 0 L 192 0 L 208 0 L 208 0 L 208 8 L 208 8 L 208 32 L 208 32 L 304 32 L 304 32 L 304 8 L 304 8 L 304 0 L 304 0 L 320 0 L 320 0 L 320 8 L 320 8 L 320 32 L 320 32 L 400 32 L 400 32 L 400 8 L 400 8 L 400 0 L 400 0 L 416 0 L 416 0 L 416 8 L 416 8 L 416 32 L 416 32 L 416 48 L 416 48 L 416 80 L 416 80 L 416 88 L 416 88 L 416 112 L 416 112 L 432 112 L 448 112 L 448 128 L 448 128 L 448 224 L 448 224 L 464 224 L 480 224 L 480 240 L 480 240 L 480 352 L 480 352 L 496 352 L 512 352 L 512 368 L 512 368 L 512 496 L 512 496 L 512 512 L 512 512 L 496 512 L 0 512 L 0 496 L 0 496 L 0 368 L 0 368 L 0 352 L 0 352 L 16 352 L 32 352 L 32 240 L 32 240 L 32 224 L 32 224 L 48 224 L 64 224 L 64 128 L 64 128 L 64 112 L 64 112 L 80 112 L 96 112 L 96 88 L 96 88 L 96 80 L 96 80 L 96 48 L 96 48 L 96 32 L 96 32 L 96 8 L 96 8 L 96 0 L 96 0 L 112 0 L 112 0 Z M 208 496 L 304 496 L 208 496 L 304 496 L 304 464 L 304 464 Q 303 444 290 430 Q 276 417 256 416 Q 236 417 222 430 Q 209 444 208 464 L 208 496 L 208 496 Z M 320 496 L 400 496 L 320 496 L 400 496 L 400 368 L 400 368 L 384 368 L 112 368 L 112 496 L 112 496 L 192 496 L 192 496 L 192 464 L 192 464 Q 193 437 211 419 Q 229 401 256 400 Q 283 401 301 419 Q 319 437 320 464 L 320 496 L 320 496 Z M 112 80 L 112 88 L 112 80 L 112 88 L 112 112 L 112 112 L 400 112 L 400 112 L 400 88 L 400 88 L 400 80 L 400 80 L 400 48 L 400 48 L 320 48 L 112 48 L 112 80 L 112 80 Z M 416 128 L 400 128 L 416 128 L 352 128 L 352 224 L 352 224 L 384 224 L 432 224 L 432 128 L 432 128 L 416 128 L 416 128 Z M 176 128 L 176 224 L 176 128 L 176 224 L 224 224 L 224 224 L 224 192 L 224 192 Q 224 178 233 169 Q 242 160 256 160 Q 270 160 279 169 Q 288 178 288 192 L 288 224 L 288 224 L 336 224 L 336 224 L 336 128 L 336 128 L 176 128 L 176 128 Z M 272 240 L 240 240 L 272 240 L 128 240 L 128 352 L 128 352 L 208 352 L 208 352 L 208 320 L 208 320 Q 209 300 222 286 Q 236 273 256 272 Q 276 273 290 286 Q 303 300 304 320 L 304 352 L 304 352 L 384 352 L 384 352 L 384 240 L 384 240 L 288 240 L 272 240 Z M 272 192 Q 271 177 256 176 Q 241 177 240 192 L 240 224 L 240 224 L 272 224 L 272 224 L 272 192 L 272 192 Z M 160 224 L 160 128 L 160 224 L 160 128 L 112 128 L 80 128 L 80 224 L 80 224 L 112 224 L 160 224 Z M 288 352 L 288 320 L 288 352 L 288 320 Q 288 306 279 297 Q 270 288 256 288 Q 242 288 233 297 Q 224 306 224 320 L 224 352 L 224 352 L 288 352 L 288 352 Z M 400 240 L 400 352 L 400 240 L 400 352 L 464 352 L 464 352 L 464 240 L 464 240 L 448 240 L 400 240 Z M 80 240 L 64 240 L 80 240 L 48 240 L 48 352 L 48 352 L 112 352 L 112 352 L 112 240 L 112 240 L 80 240 L 80 240 Z M 480 368 L 464 368 L 480 368 L 416 368 L 416 496 L 416 496 L 496 496 L 496 496 L 496 368 L 496 368 L 480 368 L 480 368 Z M 96 496 L 96 368 L 96 496 L 96 368 L 48 368 L 16 368 L 16 496 L 16 496 L 96 496 L 96 496 Z" />
</svg>