<svg xmlns="http://www.w3.org/2000/svg" viewBox="0 0 609 512">
  <path d="M 520 0 L 517 0 L 520 0 L 517 0 L 514 2 L 514 2 L 470 47 L 470 47 Q 470 47 470 47 Q 469 47 469 48 L 468 48 L 468 48 Q 425 49 397 77 Q 369 106 368 148 Q 368 178 383 201 Q 376 200 368 200 Q 319 202 294 241 Q 285 198 253 172 Q 221 145 176 144 Q 101 146 52 196 Q 2 245 0 320 L 0 376 L 0 376 L 0 384 L 0 384 L 8 384 L 130 384 L 57 512 L 57 512 L 76 512 L 76 512 L 148 385 L 148 385 L 149 384 L 149 384 L 184 384 L 184 384 Q 199 384 212 380 L 137 512 L 137 512 L 156 512 L 156 512 L 233 376 L 233 376 L 236 371 L 236 371 Q 269 353 286 319 Q 293 339 309 353 L 293 379 L 293 379 L 293 379 L 293 379 Q 293 379 293 379 Q 293 379 293 379 L 217 512 L 217 512 L 235 512 L 235 512 L 307 387 L 307 387 L 321 363 L 321 363 Q 342 376 368 376 Q 388 376 405 368 L 465 429 L 465 429 L 497 512 L 497 512 L 514 512 L 514 512 L 479 421 L 479 421 L 479 420 L 479 420 L 478 418 L 478 418 L 419 360 L 419 360 Q 436 347 446 329 L 561 413 L 561 413 L 592 512 L 592 512 L 609 512 L 609 512 L 576 406 L 576 406 L 575 403 L 575 403 L 573 402 L 573 402 L 453 314 L 453 314 L 452 313 L 452 313 Q 456 301 456 288 Q 456 264 445 245 Q 456 248 468 248 L 600 248 L 608 248 L 608 240 L 608 240 L 608 184 L 608 184 Q 607 131 574 94 Q 541 57 490 49 L 523 16 L 523 16 L 600 16 L 608 16 L 608 0 L 608 0 L 600 0 L 520 0 Z M 468 64 L 472 64 L 468 64 L 472 64 Q 523 65 557 99 Q 591 133 592 184 L 592 232 L 592 232 L 468 232 L 468 232 Q 432 231 409 207 Q 385 184 384 148 Q 385 112 409 89 Q 432 65 468 64 L 468 64 Z M 512 144 Q 511 129 496 128 Q 481 129 480 144 Q 481 159 496 160 Q 511 159 512 144 L 512 144 Z M 440 288 Q 439 329 404 350 Q 368 370 332 350 Q 297 329 296 288 Q 297 247 332 226 Q 368 206 404 226 Q 439 247 440 288 L 440 288 Z M 176 160 Q 220 161 250 190 L 250 190 L 250 190 Q 279 220 280 264 L 280 272 L 280 272 Q 279 313 252 340 Q 225 367 184 368 L 16 368 L 16 368 L 16 320 L 16 320 Q 18 252 63 207 Q 108 162 176 160 L 176 160 Z" />
</svg>