<svg xmlns="http://www.w3.org/2000/svg" viewBox="0 0 640 448">
  <path d="M 624 16 L 624 114 L 624 16 L 624 114 Q 603 120 590 136 Q 576 153 576 176 Q 576 199 590 216 Q 603 232 624 238 L 624 336 L 624 336 L 112 336 L 112 336 L 112 16 L 112 16 L 624 16 L 624 16 Z M 640 112 L 640 16 L 640 112 L 640 16 L 640 0 L 640 0 L 624 0 L 96 0 L 96 16 L 96 16 L 96 336 L 96 336 L 96 352 L 96 352 L 112 352 L 640 352 L 640 336 L 640 336 L 640 240 L 640 240 L 640 224 L 640 224 Q 620 223 606 210 Q 593 196 592 176 Q 593 156 606 142 Q 620 129 640 128 L 640 112 L 640 112 Z M 496 96 Q 511 95 512 80 Q 511 65 496 64 Q 481 65 480 80 Q 481 95 496 96 L 496 96 Z M 496 160 Q 511 159 512 144 Q 511 129 496 128 Q 481 129 480 144 Q 481 159 496 160 L 496 160 Z M 512 208 Q 511 193 496 192 Q 481 193 480 208 Q 481 223 496 224 Q 511 223 512 208 L 512 208 Z M 496 288 Q 511 287 512 272 Q 511 257 496 256 Q 481 257 480 272 Q 481 287 496 288 L 496 288 Z M 16 64 L 16 56 L 16 64 L 16 56 L 0 56 L 0 56 L 0 64 L 0 64 L 0 440 L 0 440 L 0 448 L 0 448 L 8 448 L 560 448 L 560 432 L 560 432 L 552 432 L 16 432 L 16 64 L 16 64 Z" />
</svg>