<svg xmlns="http://www.w3.org/2000/svg" viewBox="0 0 576 448">
  <path d="M 560 16 L 560 432 L 560 16 L 560 432 L 470 432 L 470 432 L 440 326 L 440 326 L 438 320 L 438 320 L 432 320 L 138 320 L 136 326 L 136 326 L 106 432 L 106 432 L 16 432 L 16 432 L 16 16 L 16 16 L 560 16 L 560 16 Z M 453 432 L 123 432 L 453 432 L 123 432 L 150 336 L 150 336 L 426 336 L 426 336 L 453 432 L 453 432 Z M 16 0 L 0 0 L 16 0 L 0 0 L 0 16 L 0 16 L 0 432 L 0 432 L 0 448 L 0 448 L 16 448 L 576 448 L 576 432 L 576 432 L 576 16 L 576 16 L 576 0 L 576 0 L 560 0 L 16 0 Z M 160 144 Q 187 145 202 168 Q 214 192 202 216 Q 187 239 160 240 Q 133 239 118 216 Q 106 192 118 168 Q 133 145 160 144 L 160 144 Z M 202 240 Q 223 222 224 192 Q 223 162 202 144 L 374 144 L 374 144 Q 353 162 352 192 Q 353 222 374 240 L 202 240 L 202 240 Z M 160 256 L 416 256 L 160 256 L 416 256 Q 443 255 461 237 Q 479 219 480 192 Q 479 165 461 147 Q 443 129 416 128 L 160 128 L 160 128 Q 133 129 115 147 Q 97 165 96 192 Q 97 219 115 237 Q 133 255 160 256 L 160 256 Z M 416 144 Q 443 145 458 168 Q 470 192 458 216 Q 443 239 416 240 Q 389 239 374 216 Q 362 192 374 168 Q 389 145 416 144 L 416 144 Z" />
</svg>