<svg xmlns="http://www.w3.org/2000/svg" viewBox="0 0 640 509">
  <path d="M 400 0 L 406 8 L 400 0 L 406 8 Q 436 46 479 74 Q 505 92 534 109 Q 535 109 536 110 Q 536 110 536 110 Q 536 110 536 110 Q 541 113 545 115 Q 559 124 573 133 Q 615 161 616 212 Q 616 234 607 253 L 589 253 L 589 253 Q 600 235 600 212 Q 599 169 565 146 Q 548 136 531 126 Q 530 125 529 124 Q 498 106 470 87 Q 430 61 400 26 Q 370 61 330 87 Q 302 106 271 124 Q 271 124 271 124 Q 271 124 271 124 Q 270 125 269 125 Q 252 135 235 146 Q 201 169 200 212 Q 200 234 211 253 L 193 253 L 193 253 Q 184 234 184 212 Q 185 161 227 133 Q 245 121 264 110 Q 264 110 264 110 Q 264 110 264 110 Q 265 109 266 109 Q 295 91 321 74 Q 364 46 394 8 L 400 0 L 400 0 Z M 85 6 L 105 21 L 85 6 L 105 21 Q 131 39 145 66 Q 160 94 160 126 L 160 245 L 160 245 L 160 253 L 160 253 L 144 253 L 144 253 L 144 245 L 144 245 L 144 157 L 144 157 L 16 157 L 16 157 L 16 173 L 16 173 L 16 493 L 16 493 L 120 493 L 128 493 L 128 509 L 128 509 L 120 509 L 0 509 L 0 501 L 0 501 L 0 173 L 0 173 L 0 126 L 0 126 Q 0 94 15 66 Q 29 39 55 21 L 75 6 L 75 6 L 80 3 L 80 3 L 85 7 L 85 6 Z M 144 126 Q 143 68 96 34 L 80 23 L 80 23 L 64 34 L 64 34 Q 17 68 16 126 L 16 141 L 16 141 L 144 141 L 144 141 L 144 126 L 144 126 Z M 640 285 L 640 293 L 640 285 L 640 293 L 640 501 L 640 501 L 640 509 L 640 509 L 632 509 L 160 509 L 160 501 L 160 501 L 160 293 L 160 293 L 160 285 L 160 285 L 168 285 L 640 285 Z M 448 413 Q 447 389 429 375 L 400 353 L 400 353 L 371 375 L 371 375 Q 353 389 352 413 L 352 493 L 352 493 L 448 493 L 448 493 L 448 413 L 448 413 Z M 512 493 L 512 397 L 512 493 L 512 397 L 512 381 L 512 381 L 528 381 L 576 381 L 576 397 L 576 397 L 576 493 L 576 493 L 624 493 L 624 493 L 624 301 L 624 301 L 176 301 L 176 301 L 176 493 L 176 493 L 224 493 L 224 493 L 224 397 L 224 397 L 224 381 L 224 381 L 240 381 L 288 381 L 288 397 L 288 397 L 288 493 L 288 493 L 336 493 L 336 493 L 336 413 L 336 413 Q 337 381 362 362 L 400 333 L 400 333 L 438 362 L 438 362 Q 463 381 464 413 L 464 493 L 464 493 L 512 493 L 512 493 Z M 528 493 L 560 493 L 528 493 L 560 493 L 560 397 L 560 397 L 528 397 L 528 397 L 528 493 L 528 493 Z M 272 493 L 272 397 L 272 493 L 272 397 L 240 397 L 240 397 L 240 493 L 240 493 L 272 493 L 272 493 Z" />
</svg>