<svg xmlns="http://www.w3.org/2000/svg" viewBox="0 0 512 512">
  <path d="M 288 104 L 288 96 L 288 104 L 288 96 L 144 96 L 144 96 L 144 16 L 144 16 L 288 16 L 288 16 L 288 0 L 288 0 L 144 0 L 128 0 L 128 16 L 128 16 L 128 96 L 128 96 L 128 104 L 128 104 L 128 112 L 128 112 L 128 272 L 128 272 L 38 339 L 38 339 L 48 352 L 48 352 L 138 285 L 138 285 L 144 280 L 144 280 L 144 272 L 144 272 L 144 112 L 144 112 L 288 112 L 288 112 L 288 104 L 288 104 Z M 38 339 Q 1 369 0 416 Q 1 457 28 484 Q 55 511 96 512 Q 128 512 154 493 L 175 477 L 175 477 Q 171 469 168 462 L 144 480 L 144 480 Q 123 496 96 496 Q 62 495 39 473 Q 17 450 16 416 Q 17 376 48 352 L 38 339 L 38 339 Z M 336 112 L 496 112 L 336 112 L 496 112 L 496 360 L 496 360 L 336 480 L 336 480 Q 315 496 288 496 Q 254 495 231 473 Q 209 450 208 416 Q 209 376 240 352 L 330 285 L 330 285 L 336 280 L 336 280 L 336 272 L 336 272 L 336 112 L 336 112 Z M 320 272 L 230 339 L 320 272 L 230 339 Q 193 369 192 416 Q 193 457 220 484 Q 247 511 288 512 Q 320 512 346 493 L 512 368 L 512 368 L 512 112 L 512 112 L 512 104 L 512 104 L 512 96 L 512 96 L 512 16 L 512 16 L 512 0 L 512 0 L 496 0 L 320 0 L 320 16 L 320 16 L 320 96 L 320 96 L 320 104 L 320 104 L 320 112 L 320 112 L 320 272 L 320 272 Z M 336 96 L 336 16 L 336 96 L 336 16 L 496 16 L 496 16 L 496 96 L 496 96 L 336 96 L 336 96 Z" />
</svg>