<svg xmlns="http://www.w3.org/2000/svg" viewBox="0 0 448 512">
  <path d="M 432 16 L 432 352 L 432 16 L 432 352 L 16 352 L 16 352 L 16 16 L 16 16 L 432 16 L 432 16 Z M 432 368 L 432 496 L 432 368 L 432 496 L 16 496 L 16 496 L 16 368 L 16 368 L 432 368 L 432 368 Z M 16 0 L 0 0 L 16 0 L 0 0 L 0 16 L 0 16 L 0 496 L 0 496 L 0 512 L 0 512 L 16 512 L 448 512 L 448 496 L 448 496 L 448 16 L 448 16 L 448 0 L 448 0 L 432 0 L 16 0 Z M 224 448 Q 209 447 208 432 Q 209 417 224 416 Q 239 417 240 432 Q 239 447 224 448 L 224 448 Z M 192 432 Q 192 446 201 455 L 201 455 L 201 455 Q 210 464 224 464 Q 238 464 247 455 Q 256 446 256 432 Q 256 418 247 409 Q 238 400 224 400 Q 210 400 201 409 Q 192 418 192 432 L 192 432 Z" />
</svg>