<svg xmlns="http://www.w3.org/2000/svg" viewBox="0 0 501 446">
  <path d="M 354 167 L 365 155 L 354 167 L 365 155 L 376 144 L 376 144 L 365 133 L 365 133 L 354 121 L 354 121 L 351 118 L 351 118 L 338 105 L 338 105 L 328 96 L 328 96 L 315 96 L 123 96 L 123 112 L 123 112 L 123 144 L 123 144 L 123 160 L 123 160 L 139 160 L 241 160 L 217 176 L 217 176 L 181 200 L 181 200 Q 152 223 162 254 Q 171 285 208 288 L 299 288 L 315 288 L 315 304 L 315 304 L 315 336 L 315 336 L 315 352 L 315 352 L 315 368 L 315 368 L 331 368 L 379 368 L 379 352 L 379 352 L 379 336 L 379 336 L 379 256 L 379 256 L 379 240 L 379 240 L 379 224 L 379 224 L 363 224 L 296 224 L 312 208 L 312 208 L 354 167 L 354 167 Z M 347 240 L 363 240 L 347 240 L 363 240 L 363 256 L 363 256 L 363 336 L 363 336 L 363 352 L 363 352 L 331 352 L 331 352 L 331 336 L 331 336 L 331 288 L 331 288 L 331 272 L 331 272 L 315 272 L 208 272 Q 183 270 177 249 Q 171 229 190 213 L 250 173 L 250 173 L 294 144 L 294 144 L 241 144 L 139 144 L 139 112 L 139 112 L 155 112 L 322 112 L 326 117 L 326 117 L 339 130 L 339 130 L 342 133 L 342 133 L 354 144 L 354 144 L 342 155 L 342 155 L 285 213 L 285 213 L 258 240 L 258 240 L 296 240 L 347 240 Z M 363 48 Q 363 34 372 25 L 372 25 L 372 25 Q 381 16 395 16 Q 409 16 418 25 Q 427 34 427 48 Q 427 62 418 71 Q 409 80 395 80 Q 381 80 372 71 Q 363 62 363 48 L 363 48 Z M 395 96 Q 422 95 437 72 Q 449 48 437 24 Q 422 1 395 0 Q 368 1 353 24 Q 341 48 353 72 Q 368 95 395 96 L 395 96 Z M 0 239 L 424 444 L 0 239 L 424 444 L 426 446 L 426 446 L 430 445 L 430 445 L 494 424 L 494 424 L 501 421 L 501 421 L 496 406 L 496 406 L 489 408 L 489 408 L 428 429 L 428 429 L 7 225 L 7 225 L 0 239 L 0 239 Z" />
</svg>