<svg xmlns="http://www.w3.org/2000/svg" viewBox="0 0 512 512">
  <path d="M 16 256 Q 17 189 49 135 L 49 135 L 49 135 Q 81 81 135 49 L 135 49 L 135 49 Q 189 17 256 16 Q 323 17 377 49 Q 431 81 463 135 Q 495 189 496 256 Q 495 332 454 391 Q 414 450 347 478 Q 344 489 338 499 Q 415 472 463 407 Q 511 342 512 256 Q 511 184 477 127 Q 443 69 385 35 Q 328 1 256 0 Q 184 1 127 35 Q 69 69 35 127 Q 1 184 0 256 Q 1 342 49 407 Q 97 472 175 499 Q 168 489 165 478 Q 98 450 58 391 Q 17 332 16 256 L 16 256 Z M 411 322 Q 414 313 417 303 Q 408 306 398 310 Q 334 331 256 332 Q 178 331 114 310 Q 105 306 96 303 Q 98 313 101 322 Q 119 371 160 401 L 160 380 L 160 380 Q 135 359 121 329 Q 183 348 256 348 Q 329 348 391 329 Q 377 359 352 381 L 352 401 L 352 401 Q 393 371 411 322 L 411 322 Z M 192 368 L 184 368 L 192 368 L 184 368 L 184 376 L 184 376 L 184 440 L 184 440 Q 185 471 205 491 Q 225 511 256 512 Q 287 511 307 491 Q 327 471 328 440 L 328 376 L 328 376 L 328 368 L 328 368 L 320 368 L 269 368 L 266 370 L 266 370 L 256 381 L 256 381 L 246 370 L 246 370 L 243 368 L 243 368 L 240 368 L 192 368 Z M 237 384 L 248 395 L 237 384 L 248 395 L 248 424 L 248 424 L 248 432 L 248 432 L 264 432 L 264 432 L 264 424 L 264 424 L 264 395 L 264 395 L 275 384 L 275 384 L 312 384 L 312 384 L 312 440 L 312 440 Q 311 464 296 480 Q 280 495 256 496 Q 232 495 216 480 Q 201 464 200 440 L 200 384 L 200 384 L 237 384 L 237 384 Z M 132 157 L 125 172 L 132 157 L 125 172 L 132 175 L 132 175 L 198 208 L 198 208 L 132 241 L 132 241 L 125 244 L 125 244 L 132 259 L 132 259 L 140 255 L 140 255 L 220 215 L 220 215 L 234 208 L 234 208 L 220 201 L 220 201 L 140 161 L 140 161 L 132 157 L 132 157 Z M 372 161 L 292 201 L 372 161 L 292 201 L 278 208 L 278 208 L 292 215 L 292 215 L 372 255 L 372 255 L 380 259 L 380 259 L 387 244 L 387 244 L 380 241 L 380 241 L 314 208 L 314 208 L 380 175 L 380 175 L 387 172 L 387 172 L 380 157 L 380 157 L 372 161 L 372 161 Z" />
</svg>