<svg xmlns="http://www.w3.org/2000/svg" viewBox="0 0 576 512">
  <path d="M 288 227 L 294 222 L 288 227 L 294 222 L 382 134 L 382 134 L 387 128 L 387 128 L 376 117 L 376 117 L 370 122 L 370 122 L 296 197 L 296 197 L 296 8 L 296 8 L 296 0 L 296 0 L 280 0 L 280 0 L 280 8 L 280 8 L 280 197 L 280 197 L 206 122 L 206 122 L 200 117 L 200 117 L 189 128 L 189 128 L 194 134 L 194 134 L 282 222 L 282 222 L 288 227 L 288 227 Z M 288 281 L 196 232 L 288 281 L 196 232 L 182 224 L 182 224 L 177 240 L 177 240 L 147 339 L 147 339 L 48 369 L 48 369 L 32 374 L 32 374 L 40 388 L 40 388 L 81 464 L 81 464 L 99 464 L 99 464 L 55 384 L 55 384 L 152 355 L 152 355 L 160 352 L 160 352 L 163 344 L 163 344 L 192 247 L 192 247 L 281 295 L 281 295 L 288 299 L 288 299 L 296 295 L 296 295 L 385 247 L 385 247 L 414 344 L 414 344 L 416 352 L 416 352 L 424 355 L 424 355 L 521 384 L 521 384 L 477 464 L 477 464 L 496 464 L 496 464 L 536 388 L 536 388 L 544 374 L 544 374 L 528 369 L 528 369 L 429 339 L 429 339 L 399 240 L 399 240 L 394 224 L 394 224 L 380 232 L 380 232 L 288 281 L 288 281 Z M 399 464 Q 392 422 362 396 L 362 396 L 362 396 Q 331 369 288 368 Q 245 369 214 396 Q 184 422 177 464 L 193 464 L 193 464 Q 200 429 226 407 Q 252 385 288 384 Q 324 385 350 407 Q 376 429 383 464 L 399 464 L 399 464 Z M 8 496 L 0 496 L 8 496 L 0 496 L 0 512 L 0 512 L 8 512 L 576 512 L 576 496 L 576 496 L 568 496 L 8 496 Z" />
</svg>