<svg xmlns="http://www.w3.org/2000/svg" viewBox="0 0 640 448">
  <path d="M 96 0 L 96 48 L 96 0 L 96 48 L 96 88 L 96 88 L 96 136 L 96 136 Q 113 136 124 148 Q 136 159 136 176 Q 136 193 124 204 Q 113 216 96 216 L 96 264 L 96 264 L 96 304 L 96 304 L 96 352 L 96 352 L 144 352 L 640 352 L 640 304 L 640 304 L 640 264 L 640 264 L 640 216 L 640 216 Q 623 216 612 204 Q 600 193 600 176 Q 600 159 612 148 Q 623 136 640 136 L 640 88 L 640 88 L 640 48 L 640 48 L 640 0 L 640 0 L 592 0 L 96 0 Z M 184 176 Q 182 128 144 102 L 144 48 L 144 48 L 592 48 L 592 48 L 592 102 L 592 102 Q 554 128 552 176 Q 554 224 592 250 L 592 304 L 592 304 L 144 304 L 144 304 L 144 250 L 144 250 Q 182 224 184 176 L 184 176 Z M 48 88 L 48 64 L 48 88 L 48 64 L 0 64 L 0 64 L 0 88 L 0 88 L 0 424 L 0 424 L 0 448 L 0 448 L 24 448 L 544 448 L 544 400 L 544 400 L 520 400 L 48 400 L 48 88 L 48 88 Z" />
</svg>