<svg xmlns="http://www.w3.org/2000/svg" viewBox="0 0 576 448">
  <path d="M 16 128 Q 17 108 30 94 L 30 94 L 30 94 Q 44 81 64 80 L 288 80 L 288 80 Q 306 80 319 72 Q 332 63 337 50 Q 343 34 344 17 Q 376 20 400 37 Q 430 57 432 96 Q 431 130 408 152 Q 386 175 352 176 L 16 176 L 16 176 L 16 128 L 16 128 Z M 344 1 Q 336 0 328 0 Q 329 24 322 44 Q 315 63 288 64 L 64 64 L 64 64 Q 37 65 19 83 Q 1 101 0 128 L 0 176 L 0 176 L 0 192 L 0 192 L 16 192 L 352 192 Q 393 191 420 164 Q 447 137 448 96 Q 446 52 416 28 Q 385 5 344 1 L 344 1 Z M 64 232 L 64 224 L 64 232 L 64 224 L 48 224 L 48 224 L 48 232 L 48 232 L 48 384 L 48 384 L 8 384 L 0 384 L 0 392 L 0 392 L 0 440 L 0 440 L 0 448 L 0 448 L 8 448 L 576 448 L 576 432 L 576 432 L 568 432 L 16 432 L 16 400 L 16 400 L 56 400 L 576 400 L 576 384 L 576 384 L 568 384 L 384 384 L 384 232 L 384 232 L 384 224 L 384 224 L 368 224 L 368 224 L 368 232 L 368 232 L 368 384 L 368 384 L 320 384 L 320 384 L 320 232 L 320 232 L 320 224 L 320 224 L 304 224 L 304 224 L 304 232 L 304 232 L 304 384 L 304 384 L 256 384 L 256 384 L 256 232 L 256 232 L 256 224 L 256 224 L 240 224 L 240 224 L 240 232 L 240 232 L 240 384 L 240 384 L 192 384 L 192 384 L 192 232 L 192 232 L 192 224 L 192 224 L 176 224 L 176 224 L 176 232 L 176 232 L 176 384 L 176 384 L 128 384 L 128 384 L 128 232 L 128 232 L 128 224 L 128 224 L 112 224 L 112 224 L 112 232 L 112 232 L 112 384 L 112 384 L 64 384 L 64 384 L 64 232 L 64 232 Z" />
</svg>