<svg xmlns="http://www.w3.org/2000/svg" viewBox="0 0 512 512">
  <path d="M 405 16 L 342 107 L 405 16 L 342 107 L 333 120 L 333 120 Q 339 124 346 129 Q 378 150 416 188 Q 454 226 483 283 Q 511 340 512 416 L 512 496 L 512 496 L 512 512 L 512 512 L 496 512 L 0 512 L 0 496 L 0 496 L 0 416 L 0 416 Q 1 340 29 283 Q 58 226 96 188 Q 134 150 166 129 Q 173 124 179 120 L 170 107 L 170 107 L 107 16 L 107 16 L 96 0 L 96 0 L 115 0 L 416 0 L 405 16 L 405 16 Z M 496 416 Q 494 338 464 281 L 464 281 L 464 281 Q 433 225 394 188 L 394 188 L 394 188 Q 354 152 324 134 L 315 128 L 315 128 L 197 128 L 197 128 L 188 134 L 188 134 Q 158 152 118 188 Q 79 225 48 281 Q 18 338 16 416 L 16 496 L 16 496 L 496 496 L 496 496 L 496 416 L 496 416 Z M 319 112 L 320 111 L 319 112 L 320 111 L 386 16 L 386 16 L 127 16 L 127 16 L 192 111 L 192 111 L 193 112 L 193 112 L 319 112 L 319 112 Z M 198 250 L 256 309 L 198 250 L 256 309 L 314 250 L 314 250 L 320 245 L 320 245 L 331 256 L 331 256 L 326 262 L 326 262 L 267 320 L 267 320 L 326 378 L 326 378 L 331 384 L 331 384 L 320 395 L 320 395 L 314 390 L 314 390 L 256 331 L 256 331 L 198 390 L 198 390 L 192 395 L 192 395 L 181 384 L 181 384 L 186 378 L 186 378 L 245 320 L 245 320 L 186 262 L 186 262 L 181 256 L 181 256 L 192 245 L 192 245 L 198 250 L 198 250 Z" />
</svg>