<svg xmlns="http://www.w3.org/2000/svg" viewBox="0 0 512 512">
  <path d="M 243.2 153.6 Q 242.4 117.6 211.2 98.4 Q 179.2 80.8 147.2 98.4 Q 116 117.6 115.2 153.6 Q 116 189.6 147.2 208.8 Q 179.2 226.4 211.2 208.8 Q 242.4 189.6 243.2 153.6 L 243.2 153.6 Z M 52 422.4 L 306.4 422.4 L 279.2 332.8 L 80 332.8 L 52 422.4 L 52 422.4 Z M 307.2 294.4 L 346.4 422.4 L 358.4 460.8 L 318.4 460.8 L 40 460.8 L 0 460.8 L 12 422.4 L 51.2 294.4 L 179.2 294.4 L 307.2 294.4 L 307.2 294.4 Z M 179.2 51.2 Q 207.2 51.2 230.4 64.8 L 230.4 64.8 Q 253.6 78.4 268 102.4 Q 281.6 126.4 281.6 153.6 Q 281.6 180.8 268 204.8 Q 253.6 228.8 230.4 242.4 Q 207.2 256 179.2 256 Q 151.2 256 128 242.4 Q 104.8 228.8 90.4 204.8 Q 76.8 180.8 76.8 153.6 Q 76.8 126.4 90.4 102.4 Q 104.8 78.4 128 64.8 Q 151.2 51.2 179.2 51.2 L 179.2 51.2 Z M 377.6 211.2 L 492.8 211.2 L 512 211.2 L 512 249.6 L 492.8 249.6 L 377.6 249.6 L 358.4 249.6 L 358.4 211.2 L 377.6 211.2 L 377.6 211.2 Z" />
</svg>