<svg xmlns="http://www.w3.org/2000/svg" viewBox="0 0 256 512">
  <path d="M 240 16 L 16 16 L 240 16 L 16 16 L 16 496 L 16 496 L 240 496 L 240 496 L 240 408 L 240 408 L 160 408 L 152 408 L 152 392 L 152 392 L 160 392 L 240 392 L 240 312 L 240 312 L 160 312 L 152 312 L 152 296 L 152 296 L 160 296 L 240 296 L 240 216 L 240 216 L 160 216 L 152 216 L 152 200 L 152 200 L 160 200 L 240 200 L 240 120 L 240 120 L 160 120 L 152 120 L 152 104 L 152 104 L 160 104 L 240 104 L 240 16 L 240 16 Z M 256 392 L 256 408 L 256 392 L 256 408 L 256 496 L 256 496 L 256 512 L 256 512 L 240 512 L 0 512 L 0 496 L 0 496 L 0 16 L 0 16 L 0 0 L 0 0 L 16 0 L 256 0 L 256 16 L 256 16 L 256 104 L 256 104 L 256 120 L 256 120 L 256 200 L 256 200 L 256 216 L 256 216 L 256 296 L 256 296 L 256 312 L 256 312 L 256 392 L 256 392 Z" />
</svg>