<svg xmlns="http://www.w3.org/2000/svg" viewBox="0 0 448 448">
  <path d="M 16 16 L 16 432 L 16 16 L 16 432 L 432 432 L 432 432 L 432 16 L 432 16 L 16 16 L 16 16 Z M 0 0 L 16 0 L 0 0 L 448 0 L 448 16 L 448 16 L 448 432 L 448 432 L 448 448 L 448 448 L 432 448 L 0 448 L 0 432 L 0 432 L 0 16 L 0 16 L 0 0 L 0 0 Z M 144 96 L 152 96 L 144 96 L 264 96 L 264 104 L 264 104 L 264 147 L 264 147 Q 263 172 244 187 L 206 213 L 206 213 L 276 285 L 276 285 L 322 227 L 322 227 L 327 221 L 327 221 L 339 231 L 339 231 L 334 237 L 334 237 L 287 297 L 287 297 L 340 352 L 340 352 L 318 352 L 318 352 L 277 310 L 277 310 L 246 349 L 246 349 L 244 352 L 244 352 L 240 352 L 112 352 L 112 344 L 112 344 L 112 297 L 112 297 Q 113 260 143 238 L 182 211 L 182 211 L 160 188 L 160 188 Q 144 171 144 149 L 144 104 L 144 104 L 144 96 L 144 96 Z M 195 201 L 234 174 L 195 201 L 234 174 Q 248 164 248 147 L 248 112 L 248 112 L 160 112 L 160 112 L 160 149 L 160 149 Q 160 165 171 176 L 195 201 L 195 201 Z M 193 222 L 152 251 L 193 222 L 152 251 Q 129 269 128 297 L 128 336 L 128 336 L 236 336 L 236 336 L 266 298 L 266 298 L 193 222 L 193 222 Z" />
</svg>