<svg xmlns="http://www.w3.org/2000/svg" viewBox="0 0 448 512">
  <path d="M 224 494 L 432 375 L 224 494 L 432 375 L 432 137 L 432 137 L 224 18 L 224 18 L 16 137 L 16 137 L 16 375 L 16 375 L 224 494 L 224 494 Z M 0 128 L 224 0 L 0 128 L 224 0 L 448 128 L 448 128 L 448 384 L 448 384 L 224 512 L 224 512 L 0 384 L 0 384 L 0 128 L 0 128 Z M 88 165 L 144 321 L 88 165 L 144 321 L 144 168 L 144 168 L 144 160 L 144 160 L 160 160 L 160 160 L 160 168 L 160 168 L 160 344 L 160 344 L 160 352 L 160 352 L 152 352 L 138 352 L 137 347 L 137 347 L 80 191 L 80 191 L 80 344 L 80 344 L 80 352 L 80 352 L 64 352 L 64 352 L 64 344 L 64 344 L 64 168 L 64 168 L 64 160 L 64 160 L 72 160 L 86 160 L 88 165 L 88 165 Z M 200 160 L 264 160 L 200 160 L 272 160 L 272 176 L 272 176 L 264 176 L 208 176 L 208 248 L 208 248 L 264 248 L 272 248 L 272 264 L 272 264 L 264 264 L 208 264 L 208 344 L 208 344 L 208 352 L 208 352 L 192 352 L 192 352 L 192 344 L 192 344 L 192 256 L 192 256 L 192 168 L 192 168 L 192 160 L 192 160 L 200 160 L 200 160 Z M 296 160 L 336 160 L 296 160 L 384 160 L 384 176 L 384 176 L 376 176 L 344 176 L 344 344 L 344 344 L 344 352 L 344 352 L 328 352 L 328 352 L 328 344 L 328 344 L 328 176 L 328 176 L 296 176 L 288 176 L 288 160 L 288 160 L 296 160 L 296 160 Z" />
</svg>