<svg xmlns="http://www.w3.org/2000/svg" viewBox="0 0 448 448">
  <path d="M 16 16 L 16 432 L 16 16 L 16 432 L 432 432 L 432 432 L 432 16 L 432 16 L 16 16 L 16 16 Z M 0 0 L 16 0 L 0 0 L 448 0 L 448 16 L 448 16 L 448 432 L 448 432 L 448 448 L 448 448 L 432 448 L 0 448 L 0 432 L 0 432 L 0 16 L 0 16 L 0 0 L 0 0 Z M 112 224 Q 113 272 145 303 L 145 303 L 145 303 Q 176 335 224 336 Q 267 335 297 309 L 220 224 L 220 224 L 242 224 L 242 224 L 308 298 L 308 298 Q 335 267 336 224 Q 335 176 303 145 Q 272 113 224 112 Q 176 113 145 145 Q 113 176 112 224 L 112 224 Z M 352 224 Q 351 275 319 310 L 357 352 L 357 352 L 335 352 L 335 352 L 307 321 L 307 321 Q 273 351 224 352 Q 170 351 133 315 Q 97 278 96 224 Q 97 170 133 133 Q 170 97 224 96 Q 278 97 315 133 Q 351 170 352 224 L 352 224 Z" />
</svg>