<svg xmlns="http://www.w3.org/2000/svg" viewBox="0 0 576 448">
  <path d="M 0 128 L 17 128 L 0 128 L 576 128 L 572 112 L 572 112 L 544 0 L 544 0 L 32 0 L 32 0 L 4 112 L 4 112 L 0 128 L 0 128 Z M 21 112 L 45 16 L 21 112 L 45 16 L 148 16 L 148 16 L 124 112 L 124 112 L 21 112 L 21 112 Z M 412 16 L 436 112 L 412 16 L 436 112 L 140 112 L 140 112 L 164 16 L 164 16 L 280 16 L 280 16 L 280 112 L 280 112 L 296 112 L 296 112 L 296 16 L 296 16 L 412 16 L 412 16 Z M 452 112 L 428 16 L 452 112 L 428 16 L 532 16 L 532 16 L 556 112 L 556 112 L 452 112 L 452 112 Z M 0 216 L 0 232 L 0 216 L 0 232 L 8 232 L 41 232 L 64 393 L 64 393 L 65 400 L 65 400 L 72 400 L 96 400 L 96 440 L 96 440 L 96 448 L 96 448 L 112 448 L 112 448 L 112 440 L 112 440 L 112 400 L 112 400 L 464 400 L 464 400 L 464 440 L 464 440 L 464 448 L 464 448 L 480 448 L 480 448 L 480 440 L 480 440 L 480 400 L 480 400 L 504 400 L 511 400 L 512 393 L 512 393 L 535 232 L 535 232 L 568 232 L 576 232 L 576 216 L 576 216 L 568 216 L 537 216 L 544 169 L 544 169 L 545 160 L 545 160 L 529 160 L 529 160 L 528 167 L 528 167 L 497 384 L 497 384 L 480 384 L 79 384 L 48 167 L 48 167 L 47 160 L 47 160 L 31 160 L 31 160 L 32 169 L 32 169 L 39 216 L 39 216 L 8 216 L 0 216 Z" />
</svg>