<svg xmlns="http://www.w3.org/2000/svg" viewBox="0 0 448 512">
  <path d="M 143 0 L 142 0 L 143 0 L 48 0 L 48 8 L 48 8 L 48 198 L 48 198 L 1 276 L 1 276 L 0 278 L 0 278 L 0 280 L 0 280 L 0 504 L 0 504 L 0 512 L 0 512 L 8 512 L 160 512 L 160 496 L 160 496 L 16 496 L 16 496 L 16 468 L 16 468 L 125 366 L 125 366 L 131 361 L 131 361 L 120 349 L 120 349 L 115 354 L 115 354 L 16 446 L 16 446 L 16 282 L 16 282 L 63 204 L 63 204 L 64 202 L 64 202 L 64 200 L 64 200 L 64 16 L 64 16 L 104 16 L 130 16 L 195 189 L 195 189 L 203 166 L 203 166 L 155 36 L 155 36 Q 156 37 157 38 Q 168 48 184 56 Q 201 64 224 64 Q 247 64 264 56 Q 280 48 291 38 L 292 37 L 292 37 L 193 285 L 193 285 L 192 286 L 192 286 L 192 288 L 192 288 L 192 504 L 192 504 L 192 512 L 192 512 L 200 512 L 448 512 L 448 504 L 448 504 L 448 280 L 448 280 L 448 278 L 448 278 L 447 276 L 447 276 L 400 198 L 400 198 L 400 8 L 400 8 L 400 0 L 400 0 L 392 0 L 300 0 L 298 4 L 298 4 Q 298 4 298 4 Q 298 4 298 4 Q 298 4 298 4 Q 298 4 298 4 Q 298 4 298 4 Q 298 4 298 4 Q 298 4 298 4 Q 298 4 298 4 Q 298 4 298 4 Q 298 4 298 4 Q 298 4 298 4 Q 298 4 298 4 L 298 5 L 298 5 Q 298 5 297 5 Q 297 5 297 6 Q 296 8 294 11 Q 289 17 280 26 Q 262 45 224 48 Q 186 45 168 26 Q 159 17 154 11 Q 152 8 151 6 Q 151 5 150 5 Q 150 5 150 5 L 150 4 L 150 4 Q 150 4 150 4 Q 150 4 150 4 Q 150 4 150 4 Q 150 4 150 4 Q 150 4 150 4 Q 150 4 150 4 Q 150 4 150 4 Q 150 4 150 4 L 148 0 L 148 0 L 143 0 L 143 0 Z M 208 290 L 317 16 L 208 290 L 317 16 L 344 16 L 384 16 L 384 200 L 384 200 L 384 202 L 384 202 L 385 204 L 385 204 L 432 282 L 432 282 L 432 446 L 432 446 L 333 354 L 333 354 L 328 349 L 328 349 L 317 360 L 317 360 L 323 366 L 323 366 L 432 468 L 432 468 L 432 496 L 432 496 L 208 496 L 208 496 L 208 290 L 208 290 Z" />
</svg>