<svg xmlns="http://www.w3.org/2000/svg" viewBox="0 0 448 384">
  <path d="M 368 0 L 396 224 L 368 0 L 396 224 L 380 224 L 380 224 L 354 16 L 354 16 L 94 16 L 94 16 L 68 224 L 68 224 L 52 224 L 52 224 L 80 0 L 80 0 L 368 0 L 368 0 Z M 149 64 L 129 224 L 149 64 L 129 224 L 113 224 L 113 224 L 133 64 L 133 64 L 149 64 L 149 64 Z M 16 272 L 16 368 L 16 272 L 16 368 L 432 368 L 432 368 L 432 272 L 432 272 L 16 272 L 16 272 Z M 0 256 L 16 256 L 0 256 L 448 256 L 448 272 L 448 272 L 448 368 L 448 368 L 448 384 L 448 384 L 432 384 L 0 384 L 0 368 L 0 368 L 0 272 L 0 272 L 0 256 L 0 256 Z" />
</svg>