<svg xmlns="http://www.w3.org/2000/svg" viewBox="0 0 640 505">
  <path d="M 320 0 L 323 2 L 320 0 L 323 2 L 635 122 L 635 122 L 640 124 L 640 124 L 640 129 L 640 129 L 640 497 L 640 497 L 640 505 L 640 505 L 624 505 L 624 505 L 624 497 L 624 497 L 624 135 L 624 135 L 320 18 L 320 18 L 16 135 L 16 135 L 16 497 L 16 497 L 16 505 L 16 505 L 0 505 L 0 505 L 0 497 L 0 497 L 0 129 L 0 129 L 0 124 L 0 124 L 5 122 L 5 122 L 317 2 L 317 2 L 320 0 L 320 0 Z M 96 185 L 104 185 L 96 185 L 544 185 L 544 193 L 544 193 L 544 497 L 544 497 L 544 505 L 544 505 L 536 505 L 536 505 Q 536 505 536 505 Q 536 505 536 505 L 104 505 L 104 505 Q 104 505 104 505 Q 104 505 104 505 L 96 505 L 96 505 L 96 497 L 96 497 L 96 193 L 96 193 L 96 185 L 96 185 Z M 112 489 L 528 489 L 112 489 L 528 489 L 528 409 L 528 409 L 112 409 L 112 409 L 112 489 L 112 489 Z M 528 297 L 112 297 L 528 297 L 112 297 L 112 393 L 112 393 L 528 393 L 528 393 L 528 297 L 528 297 Z M 528 281 L 528 201 L 528 281 L 528 201 L 112 201 L 112 201 L 112 281 L 112 281 L 528 281 L 528 281 Z" />
</svg>