<svg xmlns="http://www.w3.org/2000/svg" viewBox="0 0 640 448">
  <path d="M 528 196 L 528 160 L 528 196 L 528 160 Q 527 126 505 103 Q 482 81 448 80 Q 423 80 404 94 L 389 103 L 389 103 L 381 88 L 381 88 Q 362 55 329 36 Q 296 16 256 16 Q 195 18 154 58 Q 114 99 112 160 L 112 168 L 112 168 L 112 180 L 112 180 L 101 183 L 101 183 Q 63 197 40 229 Q 17 262 16 304 L 16 432 L 16 432 L 144 432 L 624 432 L 624 320 L 624 320 Q 623 280 600 251 Q 577 222 540 212 L 528 208 L 528 208 L 528 196 L 528 196 Z M 0 304 Q 1 256 27 220 L 27 220 L 27 220 Q 53 184 96 168 L 96 160 L 96 160 Q 98 92 143 47 Q 188 2 256 0 Q 297 0 330 18 Q 364 36 386 67 Q 391 73 395 80 Q 400 77 406 74 Q 425 64 448 64 Q 489 65 516 92 Q 543 119 544 160 L 544 196 L 544 196 Q 586 207 613 241 Q 639 274 640 320 L 640 432 L 640 432 L 640 448 L 640 448 L 624 448 L 0 448 L 0 432 L 0 432 L 0 304 L 0 304 Z M 232 200 Q 233 176 248 160 L 248 160 L 248 160 Q 264 145 288 144 L 344 144 L 344 144 Q 371 145 389 163 Q 407 181 408 208 Q 407 242 379 261 L 328 295 L 328 295 L 328 320 L 328 320 L 328 328 L 328 328 L 312 328 L 312 328 L 312 320 L 312 320 L 312 291 L 312 291 L 312 286 L 312 286 L 316 284 L 316 284 L 371 248 L 371 248 Q 391 233 392 208 Q 391 187 378 174 Q 365 160 344 160 L 288 160 L 288 160 Q 271 160 260 172 Q 248 183 248 200 L 248 207 L 248 207 L 232 207 L 232 207 L 232 200 L 232 200 Z M 304 352 L 336 352 L 304 352 L 336 352 L 336 384 L 336 384 L 304 384 L 304 384 L 304 352 L 304 352 Z" />
</svg>