<svg xmlns="http://www.w3.org/2000/svg" viewBox="0 0 640 512">
  <path d="M 16 16 L 368 16 L 16 16 L 368 16 L 368 247 L 368 247 Q 376 239 384 232 L 384 16 L 384 16 L 384 0 L 384 0 L 368 0 L 0 0 L 0 16 L 0 16 L 0 496 L 0 496 L 0 512 L 0 512 L 16 512 L 384 512 L 384 504 L 384 504 Q 376 497 368 489 L 368 496 L 368 496 L 240 496 L 240 496 L 240 384 L 240 384 L 240 368 L 240 368 L 224 368 L 144 368 L 144 384 L 144 384 L 144 496 L 144 496 L 16 496 L 16 496 L 16 16 L 16 16 Z M 160 496 L 160 384 L 160 496 L 160 384 L 224 384 L 224 384 L 224 496 L 224 496 L 160 496 L 160 496 Z M 80 232 L 72 232 L 80 232 L 72 232 L 72 240 L 72 240 L 72 304 L 72 304 L 72 312 L 72 312 L 80 312 L 152 312 L 152 304 L 152 304 L 152 240 L 152 240 L 152 232 L 152 232 L 144 232 L 80 232 Z M 88 296 L 88 248 L 88 296 L 88 248 L 136 248 L 136 248 L 136 296 L 136 296 L 88 296 L 88 296 Z M 232 232 L 232 240 L 232 232 L 232 240 L 232 304 L 232 304 L 232 312 L 232 312 L 240 312 L 312 312 L 312 304 L 312 304 L 312 240 L 312 240 L 312 232 L 312 232 L 304 232 L 232 232 Z M 248 248 L 296 248 L 248 248 L 296 248 L 296 296 L 296 296 L 248 296 L 248 296 L 248 248 L 248 248 Z M 80 104 L 72 104 L 80 104 L 72 104 L 72 112 L 72 112 L 72 176 L 72 176 L 72 184 L 72 184 L 80 184 L 152 184 L 152 176 L 152 176 L 152 112 L 152 112 L 152 104 L 152 104 L 144 104 L 80 104 Z M 88 168 L 88 120 L 88 168 L 88 120 L 136 120 L 136 120 L 136 168 L 136 168 L 88 168 L 88 168 Z M 232 104 L 232 112 L 232 104 L 232 112 L 232 176 L 232 176 L 232 184 L 232 184 L 240 184 L 312 184 L 312 176 L 312 176 L 312 112 L 312 112 L 312 104 L 312 104 L 304 104 L 232 104 Z M 248 120 L 296 120 L 248 120 L 296 120 L 296 168 L 296 168 L 248 168 L 248 168 L 248 120 L 248 120 Z M 496 240 Q 531 240 560 257 L 560 257 L 560 257 Q 589 274 607 304 Q 624 334 624 368 Q 624 402 607 432 Q 589 462 560 479 Q 531 496 496 496 Q 461 496 432 479 Q 403 462 385 432 Q 368 402 368 368 Q 368 334 385 304 Q 403 274 432 257 Q 461 240 496 240 L 496 240 Z M 496 512 Q 535 512 568 493 L 568 493 L 568 493 Q 601 474 621 440 Q 640 406 640 368 Q 640 330 621 296 Q 601 262 568 243 Q 535 224 496 224 Q 457 224 424 243 Q 391 262 371 296 Q 352 330 352 368 Q 352 406 371 440 Q 391 474 424 493 Q 457 512 496 512 L 496 512 Z M 571 328 L 560 317 L 571 328 L 560 317 L 554 322 L 554 322 L 480 397 L 480 397 L 438 354 L 438 354 L 432 349 L 432 349 L 421 360 L 421 360 L 426 366 L 426 366 L 474 414 L 474 414 L 480 419 L 480 419 L 486 414 L 486 414 L 566 334 L 566 334 L 572 328 L 571 328 Z" />
</svg>