<svg xmlns="http://www.w3.org/2000/svg" viewBox="0 0 608 512">
  <path d="M 153 57 L 152 64 L 153 57 L 152 64 L 145 64 L 144 64 Q 124 65 110 78 Q 97 92 96 112 Q 96 124 101 133 L 106 143 L 106 143 L 95 145 L 95 145 Q 75 148 62 164 Q 48 179 48 200 Q 48 219 59 233 L 65 241 L 65 241 L 55 245 L 55 245 Q 38 252 27 268 Q 16 284 16 304 Q 16 326 29 342 Q 41 359 61 365 L 69 368 L 69 368 L 67 375 L 67 375 Q 64 383 64 392 Q 65 416 80 432 Q 96 447 120 448 Q 128 448 135 446 L 143 444 L 143 444 L 145 453 L 145 453 Q 148 471 162 484 Q 176 496 196 496 L 248 496 L 248 496 L 248 448 L 248 448 L 248 444 L 248 444 L 248 64 L 248 64 L 248 16 L 248 16 L 200 16 L 200 16 Q 181 16 168 28 Q 155 39 153 57 L 153 57 Z M 248 512 L 196 512 L 248 512 L 196 512 Q 172 512 155 498 Q 137 485 131 463 Q 126 464 120 464 Q 89 463 69 443 Q 49 423 48 392 Q 48 385 49 378 Q 27 369 14 349 Q 0 329 0 304 Q 2 257 41 234 Q 32 219 32 200 Q 32 175 46 157 Q 60 138 83 131 Q 80 122 80 112 Q 81 86 97 69 Q 113 51 138 48 Q 144 27 160 14 Q 177 0 200 0 L 248 0 L 312 0 Q 335 0 352 14 Q 368 27 374 48 Q 399 51 415 69 Q 431 86 432 112 Q 432 122 429 131 Q 452 138 466 157 Q 480 175 480 200 Q 480 204 480 208 L 464 208 L 464 208 Q 464 204 464 200 Q 464 179 450 164 Q 437 148 417 145 L 406 143 L 406 143 L 411 133 L 411 133 Q 416 124 416 112 Q 415 92 402 78 Q 388 65 368 64 L 368 64 L 368 64 L 361 64 L 361 64 L 360 57 L 360 57 Q 357 39 344 28 Q 331 16 312 16 L 264 16 L 264 16 L 264 64 L 264 64 L 264 444 L 264 444 L 264 448 L 264 448 L 264 496 L 264 496 L 301 496 L 301 496 Q 308 505 315 512 L 264 512 L 248 512 Z M 447 241 L 448 240 L 447 241 L 448 240 L 448 241 L 448 241 L 447 241 L 447 241 Z M 368 464 L 368 493 L 368 464 L 368 493 L 368 512 L 368 512 Q 367 512 352 502 Q 337 491 321 470 Q 305 448 304 416 Q 305 368 337 337 Q 368 305 416 304 L 464 304 L 480 304 L 480 288 L 480 288 L 480 256 L 480 256 L 480 240 L 480 240 L 496 240 L 496 240 L 597 341 L 597 341 L 608 352 L 608 352 L 597 363 L 597 363 L 496 464 L 496 464 L 480 464 L 480 464 L 480 448 L 480 448 L 480 416 L 480 416 L 480 400 L 480 400 L 464 400 L 432 400 Q 405 401 387 419 Q 369 437 368 464 L 368 464 Z M 496 400 L 496 441 L 496 400 L 496 441 L 585 352 L 585 352 L 496 263 L 496 263 L 496 304 L 496 304 L 496 320 L 496 320 L 480 320 L 416 320 Q 375 321 348 348 Q 321 375 320 416 Q 323 455 347 477 Q 350 479 352 481 L 352 464 L 352 464 Q 353 430 375 407 Q 398 385 432 384 L 480 384 L 496 384 L 496 400 L 496 400 Z" />
</svg>