<svg xmlns="http://www.w3.org/2000/svg" viewBox="0 0 640 512">
  <path d="M 320 80 Q 335 79 336 64 Q 335 46 323 29 Q 322 28 322 28 Q 321 26 320 25 Q 319 27 317 29 Q 305 46 304 64 Q 305 79 320 80 L 320 80 Z M 310 12 Q 319 1 320 0 L 320 0 L 320 0 Q 320 0 320 0 Q 321 0 330 12 Q 338 22 345 35 Q 352 49 352 64 Q 352 78 343 87 Q 334 96 320 96 Q 306 96 297 87 Q 288 78 288 64 Q 288 49 295 35 Q 302 22 310 12 L 310 12 Z M 224 112 Q 239 111 240 96 Q 239 78 227 61 Q 225 59 224 57 Q 223 59 221 61 Q 209 78 208 96 Q 209 111 224 112 L 224 112 Z M 214 44 Q 223 32 224 32 Q 225 32 234 44 Q 242 54 249 67 Q 256 81 256 96 Q 256 110 247 119 Q 238 128 224 128 Q 210 128 201 119 Q 192 110 192 96 Q 192 110 183 119 Q 174 128 160 128 Q 146 128 137 119 Q 128 110 128 96 Q 128 110 119 119 Q 110 128 96 128 Q 82 128 73 119 Q 64 110 64 96 Q 64 110 55 119 Q 46 128 32 128 Q 18 128 9 119 Q 0 110 0 96 Q 0 81 7 67 Q 14 54 22 44 Q 31 32 32 32 Q 33 32 42 44 Q 50 54 57 67 Q 64 81 64 96 Q 64 81 71 67 Q 78 54 86 44 Q 95 32 96 32 Q 96 32 96 32 Q 97 32 106 44 Q 114 54 121 67 Q 128 81 128 96 Q 128 81 135 67 Q 142 54 150 44 Q 159 32 160 32 Q 161 32 170 44 Q 178 54 185 67 Q 192 81 192 96 Q 192 81 199 67 Q 206 54 214 44 L 214 44 Z M 176 96 Q 175 78 163 61 Q 161 59 160 57 Q 160 57 160 57 Q 159 59 157 61 Q 145 78 144 96 Q 145 111 160 112 Q 175 111 176 96 L 176 96 Z M 96 112 Q 111 111 112 96 Q 111 78 99 61 Q 97 59 96 57 Q 95 59 93 61 Q 81 78 80 96 Q 81 111 96 112 L 96 112 Z M 48 96 Q 47 78 35 61 Q 33 59 32 57 Q 31 59 29 61 Q 17 78 16 96 Q 17 111 32 112 Q 47 111 48 96 L 48 96 Z M 416 112 Q 431 111 432 96 Q 431 78 419 61 Q 417 59 416 57 Q 415 59 413 61 Q 401 78 400 96 Q 401 111 416 112 L 416 112 Z M 406 44 Q 415 32 416 32 Q 417 32 426 44 Q 434 54 441 67 Q 448 81 448 96 Q 448 81 455 67 Q 462 54 470 44 Q 479 32 480 32 Q 481 32 490 44 Q 498 54 505 67 Q 512 81 512 96 Q 512 81 519 67 Q 526 54 534 44 Q 543 32 544 32 Q 545 32 554 44 Q 562 54 569 67 Q 576 81 576 96 Q 576 81 583 67 Q 590 54 598 44 Q 607 32 608 32 Q 609 32 618 44 Q 626 54 633 67 Q 640 81 640 96 Q 640 110 631 119 Q 622 128 608 128 Q 594 128 585 119 Q 576 110 576 96 Q 576 110 567 119 Q 558 128 544 128 Q 530 128 521 119 Q 512 110 512 96 Q 512 110 503 119 Q 494 128 480 128 Q 466 128 457 119 Q 448 110 448 96 Q 448 110 439 119 Q 430 128 416 128 Q 402 128 393 119 Q 384 110 384 96 Q 384 81 391 67 Q 398 54 406 44 L 406 44 Z M 496 96 Q 495 78 483 61 Q 481 59 480 57 Q 479 59 477 61 Q 465 78 464 96 Q 465 111 480 112 Q 495 111 496 96 L 496 96 Z M 544 112 Q 559 111 560 96 Q 559 78 547 61 Q 545 59 544 57 Q 543 59 541 61 Q 529 78 528 96 Q 529 111 544 112 L 544 112 Z M 624 96 Q 623 78 611 61 Q 609 59 608 57 Q 607 59 605 61 Q 593 78 592 96 Q 593 111 608 112 Q 623 111 624 96 L 624 96 Z M 328 128 L 328 136 L 328 128 L 328 136 L 328 368 L 328 368 L 408 368 L 408 368 L 408 168 L 408 168 L 408 160 L 408 160 L 424 160 L 424 160 L 424 168 L 424 168 L 424 368 L 424 368 L 472 368 L 472 368 L 472 168 L 472 168 L 472 160 L 472 160 L 488 160 L 488 160 L 488 168 L 488 168 L 488 368 L 488 368 L 536 368 L 536 368 L 536 168 L 536 168 L 536 160 L 536 160 L 552 160 L 552 160 L 552 168 L 552 168 L 552 367 L 552 367 Q 573 364 586 349 Q 600 334 600 312 L 600 168 L 600 168 L 600 160 L 600 160 L 616 160 L 616 160 L 616 168 L 616 168 L 616 312 L 616 312 Q 615 343 595 363 Q 575 383 544 384 L 328 384 L 328 384 L 328 496 L 328 496 L 504 496 L 512 496 L 512 512 L 512 512 L 504 512 L 128 512 L 128 496 L 128 496 L 136 496 L 312 496 L 312 384 L 312 384 L 96 384 L 96 384 Q 65 383 45 363 Q 25 343 24 312 L 24 168 L 24 168 L 24 160 L 24 160 L 40 160 L 40 160 L 40 168 L 40 168 L 40 312 L 40 312 Q 40 334 54 349 Q 67 364 88 367 L 88 168 L 88 168 L 88 160 L 88 160 L 104 160 L 104 160 L 104 168 L 104 168 L 104 368 L 104 368 L 152 368 L 152 368 L 152 168 L 152 168 L 152 160 L 152 160 L 168 160 L 168 160 L 168 168 L 168 168 L 168 368 L 168 368 L 216 368 L 216 368 L 216 168 L 216 168 L 216 160 L 216 160 L 232 160 L 232 160 L 232 168 L 232 168 L 232 368 L 232 368 L 312 368 L 312 368 L 312 136 L 312 136 L 312 128 L 312 128 L 328 128 L 328 128 Z" />
</svg>