<svg xmlns="http://www.w3.org/2000/svg" viewBox="0 0 512 512">
  <path d="M 256 16 Q 321 17 376 48 L 376 48 L 376 48 Q 431 80 464 136 Q 496 193 496 256 Q 496 319 464 376 Q 431 432 376 464 Q 321 495 256 496 Q 191 495 136 464 Q 81 432 48 376 Q 16 319 16 256 Q 16 193 48 136 Q 81 80 136 48 Q 191 17 256 16 L 256 16 Z M 256 512 Q 326 511 384 478 L 384 478 L 384 478 Q 442 444 478 384 Q 512 323 512 256 Q 512 189 478 128 Q 442 68 384 34 Q 326 1 256 0 Q 186 1 128 34 Q 70 68 34 128 Q 0 189 0 256 Q 0 323 34 384 Q 70 444 128 478 Q 186 511 256 512 L 256 512 Z M 304 176 L 304 336 L 304 176 L 304 336 L 144 336 L 144 336 L 144 176 L 144 176 L 304 176 L 304 176 Z M 144 160 L 128 160 L 144 160 L 128 160 L 128 176 L 128 176 L 128 336 L 128 336 L 128 352 L 128 352 L 144 352 L 320 352 L 320 336 L 320 336 L 320 301 L 320 301 L 390 320 L 390 320 L 400 323 L 400 323 L 400 312 L 400 312 L 400 200 L 400 200 L 400 190 L 400 190 L 390 192 L 390 192 L 320 211 L 320 211 L 320 176 L 320 176 L 320 160 L 320 160 L 304 160 L 144 160 Z M 320 228 L 384 210 L 320 228 L 384 210 L 384 302 L 384 302 L 320 284 L 320 284 L 320 228 L 320 228 Z" />
</svg>