<svg xmlns="http://www.w3.org/2000/svg" viewBox="0 0 384 512">
  <path d="M 224 0 L 0 0 L 224 0 L 0 0 L 0 512 L 0 512 L 384 512 L 384 512 L 384 160 L 384 160 L 224 160 L 224 160 L 224 0 L 224 0 Z M 256 0 L 256 128 L 256 0 L 256 128 L 384 128 L 384 128 L 256 0 L 256 0 Z M 128 192 L 128 224 L 128 192 L 128 224 L 256 224 L 256 224 L 256 192 L 256 192 L 320 192 L 320 192 L 320 256 L 320 256 L 288 256 L 288 256 L 288 384 L 288 384 L 320 384 L 320 384 L 320 448 L 320 448 L 256 448 L 256 448 L 256 416 L 256 416 L 128 416 L 128 416 L 128 448 L 128 448 L 64 448 L 64 448 L 64 384 L 64 384 L 96 384 L 96 384 L 96 256 L 96 256 L 64 256 L 64 256 L 64 192 L 64 192 L 128 192 L 128 192 Z M 256 256 L 128 256 L 256 256 L 128 256 L 128 384 L 128 384 L 256 384 L 256 384 L 256 256 L 256 256 Z" />
</svg>