<svg xmlns="http://www.w3.org/2000/svg" viewBox="0 0 448 448">
  <path d="M 432 16 L 432 432 L 432 16 L 432 432 L 16 432 L 16 432 L 16 16 L 16 16 L 432 16 L 432 16 Z M 16 0 L 0 0 L 16 0 L 0 0 L 0 16 L 0 16 L 0 432 L 0 432 L 0 448 L 0 448 L 16 448 L 448 448 L 448 432 L 448 432 L 448 16 L 448 16 L 448 0 L 448 0 L 432 0 L 16 0 Z M 112 304 Q 126 304 135 313 L 135 313 L 135 313 Q 144 322 144 336 Q 144 350 135 359 Q 126 368 112 368 Q 98 368 89 359 Q 80 350 80 336 Q 80 322 89 313 Q 98 304 112 304 L 112 304 Z M 112 384 Q 139 383 154 360 Q 166 336 154 312 Q 139 289 112 288 Q 85 289 70 312 Q 58 336 70 360 Q 85 383 112 384 L 112 384 Z M 64 80 Q 149 81 217 122 L 217 122 L 217 122 Q 286 162 326 231 L 326 231 L 326 231 Q 367 299 368 384 L 384 384 L 384 384 Q 383 295 340 223 Q 298 150 225 108 Q 153 65 64 64 L 64 80 L 64 80 Z M 288 384 Q 287 321 257 271 L 257 271 L 257 271 Q 228 220 177 191 L 177 191 L 177 191 Q 127 161 64 160 L 64 176 L 64 176 Q 152 178 211 237 Q 270 296 272 384 L 288 384 L 288 384 Z" />
</svg>