<svg xmlns="http://www.w3.org/2000/svg" viewBox="0 0 512 507">
  <path d="M 64 48 L 192 48 L 64 48 L 192 48 L 192 18 L 192 18 L 64 35 L 64 35 L 64 48 L 64 48 Z M 48 21 L 192 2 L 48 21 L 192 2 L 208 0 L 208 0 L 208 16 L 208 16 L 208 48 L 208 48 L 208 64 L 208 64 L 192 64 L 48 64 L 48 48 L 48 48 L 48 21 L 48 21 Z M 312 192 L 325 192 L 312 192 L 456 192 L 458 205 L 458 205 L 476 301 L 476 301 L 477 304 L 477 304 L 480 320 L 480 320 L 464 320 L 288 320 L 291 304 L 291 304 L 292 301 L 292 301 L 310 205 L 310 205 L 312 192 L 312 192 Z M 461 304 L 458 288 L 461 304 L 458 288 L 443 208 L 443 208 L 325 208 L 325 208 L 310 288 L 310 288 L 307 304 L 307 304 L 324 304 L 461 304 Z M 432 96 Q 431 69 408 54 Q 384 42 360 54 Q 337 69 336 96 Q 337 123 360 138 Q 384 150 408 138 Q 431 123 432 96 L 432 96 Z M 384 32 Q 420 33 439 64 Q 457 96 439 128 Q 420 159 384 160 Q 348 159 329 128 Q 311 96 329 64 Q 348 33 384 32 L 384 32 Z M 64 96 Q 64 88 66 80 L 83 80 L 83 80 Q 80 88 80 96 Q 81 116 94 130 Q 108 143 128 144 Q 148 143 162 130 Q 175 116 176 96 Q 176 88 173 80 L 190 80 L 190 80 Q 192 88 192 96 Q 191 123 173 141 Q 155 159 128 160 Q 101 159 83 141 Q 65 123 64 96 L 64 96 Z M 51 304 L 194 304 L 51 304 L 194 304 L 68 215 L 68 215 L 51 304 L 51 304 Z M 202 290 L 187 208 L 202 290 L 187 208 L 86 208 L 86 208 L 202 290 L 202 290 Z M 56 192 L 200 192 L 56 192 L 200 192 L 221 304 L 221 304 L 224 320 L 224 320 L 208 320 L 32 320 L 35 304 L 35 304 L 56 192 L 56 192 Z M 143 357 L 149 362 L 143 357 L 149 362 L 221 426 L 221 426 L 228 432 L 228 432 L 221 438 L 221 438 L 149 502 L 149 502 L 143 507 L 143 507 L 133 495 L 133 495 L 139 490 L 139 490 L 195 440 L 195 440 L 8 440 L 0 440 L 0 424 L 0 424 L 8 424 L 195 424 L 139 374 L 139 374 L 133 369 L 133 369 L 143 357 L 143 357 Z M 363 362 L 369 357 L 363 362 L 369 357 L 379 369 L 379 369 L 373 374 L 373 374 L 317 424 L 317 424 L 504 424 L 512 424 L 512 440 L 512 440 L 504 440 L 317 440 L 373 490 L 373 490 L 379 495 L 379 495 L 369 507 L 369 507 L 363 502 L 363 502 L 291 438 L 291 438 L 284 432 L 284 432 L 291 426 L 291 426 L 363 362 L 363 362 Z" />
</svg>