<svg xmlns="http://www.w3.org/2000/svg" viewBox="0 0 640 514">
  <path d="M 111 7 Q 108 0 101 3 Q 94 6 97 13 L 127 86 L 127 86 L 44 35 L 44 35 Q 38 32 33 38 Q 30 44 36 49 L 116 98 L 116 98 L 8 98 L 0 98 L 0 106 L 0 106 L 0 506 L 0 506 L 0 514 L 0 514 L 8 514 L 192 514 L 192 498 L 192 498 L 184 498 L 16 498 L 16 114 L 16 114 L 144 114 L 144 114 Q 144 114 144 114 Q 144 114 144 114 L 248 114 L 256 114 L 256 98 L 256 98 L 248 98 L 172 98 L 252 49 L 252 49 Q 258 44 255 38 Q 250 32 244 35 L 162 86 L 162 86 L 193 13 L 193 13 Q 196 6 189 3 Q 182 0 179 7 L 144 86 L 144 86 L 111 7 L 111 7 Z M 368 162 L 418 226 L 368 162 L 418 226 L 392 226 L 336 226 Q 319 226 308 214 Q 296 203 296 186 Q 296 169 308 158 Q 319 146 336 146 Q 356 146 368 162 L 368 162 Z M 280 186 Q 281 210 297 226 L 240 226 L 224 226 L 224 242 L 224 242 L 224 498 L 224 498 L 224 514 L 224 514 L 240 514 L 640 514 L 640 498 L 640 498 L 640 242 L 640 242 L 640 226 L 640 226 L 624 226 L 567 226 Q 583 210 584 186 Q 583 162 567 146 Q 552 131 528 130 Q 500 131 483 152 L 432 219 L 432 219 L 381 152 L 381 152 Q 364 131 336 130 Q 312 131 296 146 Q 281 162 280 186 L 280 186 Z M 240 242 L 336 242 L 240 242 L 424 242 L 424 354 L 424 354 L 240 354 L 240 354 L 240 242 L 240 242 Z M 240 370 L 424 370 L 240 370 L 424 370 L 424 498 L 424 498 L 240 498 L 240 498 L 240 370 L 240 370 Z M 624 370 L 624 498 L 624 370 L 624 498 L 440 498 L 440 498 L 440 370 L 440 370 L 624 370 L 624 370 Z M 440 354 L 440 242 L 440 354 L 440 242 L 472 242 L 624 242 L 624 354 L 624 354 L 440 354 L 440 354 Z M 472 226 L 446 226 L 472 226 L 446 226 L 496 162 L 496 162 Q 508 146 528 146 Q 545 146 556 158 Q 568 169 568 186 Q 568 203 556 214 Q 545 226 528 226 L 472 226 L 472 226 Z" />
</svg>