<svg xmlns="http://www.w3.org/2000/svg" viewBox="0 0 432 512">
  <path d="M 112 16 L 112 112 L 112 16 L 112 112 L 16 112 L 16 112 L 16 16 L 16 16 L 112 16 L 112 16 Z M 16 0 L 0 0 L 16 0 L 0 0 L 0 16 L 0 16 L 0 112 L 0 112 L 0 128 L 0 128 L 16 128 L 56 128 L 56 144 L 56 144 L 56 384 L 56 384 L 16 384 L 0 384 L 0 400 L 0 400 L 0 496 L 0 496 L 0 512 L 0 512 L 16 512 L 128 512 L 128 496 L 128 496 L 128 400 L 128 400 L 128 384 L 128 384 L 112 384 L 72 384 L 72 208 L 72 208 Q 90 241 121 260 Q 153 280 192 280 L 304 280 L 304 280 L 304 320 L 304 320 L 304 336 L 304 336 L 320 336 L 432 336 L 432 320 L 432 320 L 432 224 L 432 224 L 432 208 L 432 208 L 416 208 L 304 208 L 304 224 L 304 224 L 304 264 L 304 264 L 192 264 L 192 264 Q 141 263 107 229 Q 73 195 72 144 L 72 128 L 72 128 L 112 128 L 128 128 L 128 112 L 128 112 L 128 16 L 128 16 L 128 0 L 128 0 L 112 0 L 16 0 Z M 112 400 L 112 496 L 112 400 L 112 496 L 16 496 L 16 496 L 16 400 L 16 400 L 112 400 L 112 400 Z M 320 224 L 416 224 L 320 224 L 416 224 L 416 320 L 416 320 L 320 320 L 320 320 L 320 224 L 320 224 Z" />
</svg>