<svg xmlns="http://www.w3.org/2000/svg" viewBox="0 0 640 448">
  <path d="M 432 16 L 432 432 L 432 16 L 432 432 L 16 432 L 16 432 L 16 16 L 16 16 L 432 16 L 432 16 Z M 16 0 L 0 0 L 16 0 L 0 0 L 0 16 L 0 16 L 0 432 L 0 432 L 0 448 L 0 448 L 16 448 L 448 448 L 448 432 L 448 432 L 448 16 L 448 16 L 448 0 L 448 0 L 432 0 L 16 0 Z M 96 64 L 80 64 L 96 64 L 80 64 L 80 72 L 80 72 L 80 248 L 80 248 L 80 256 L 80 256 L 96 256 L 96 256 L 96 248 L 96 248 L 96 72 L 96 72 L 96 64 L 96 64 Z M 160 64 L 144 64 L 160 64 L 144 64 L 144 72 L 144 72 L 144 248 L 144 248 L 144 256 L 144 256 L 160 256 L 160 256 L 160 248 L 160 248 L 160 72 L 160 72 L 160 64 L 160 64 Z M 604 47 L 611 43 L 604 47 L 611 43 L 603 29 L 603 29 L 596 33 L 596 33 L 516 81 L 516 81 L 509 85 L 509 85 L 517 99 L 517 99 L 524 95 L 524 95 L 604 47 L 604 47 Z M 520 216 L 512 216 L 520 216 L 512 216 L 512 232 L 512 232 L 520 232 L 640 232 L 640 216 L 640 216 L 632 216 L 520 216 Z M 524 353 L 517 349 L 524 353 L 517 349 L 509 363 L 509 363 L 516 367 L 516 367 L 596 415 L 596 415 L 603 419 L 603 419 L 611 405 L 611 405 L 604 401 L 604 401 L 524 353 L 524 353 Z" />
</svg>