<svg xmlns="http://www.w3.org/2000/svg" viewBox="0 0 384 512">
  <path d="M 16 496 L 16 16 L 16 496 L 16 16 L 208 16 L 208 16 L 208 168 L 208 168 L 208 176 L 208 176 L 216 176 L 368 176 L 368 496 L 368 496 L 16 496 L 16 496 Z M 224 23 L 361 160 L 224 23 L 361 160 L 224 160 L 224 160 L 224 23 L 224 23 Z M 224 0 L 16 0 L 224 0 L 0 0 L 0 16 L 0 16 L 0 496 L 0 496 L 0 512 L 0 512 L 16 512 L 384 512 L 384 496 L 384 496 L 384 160 L 384 160 L 224 0 L 224 0 Z M 271 224 L 252 224 L 271 224 L 252 224 L 192 314 L 192 314 L 132 224 L 132 224 L 113 224 L 113 224 L 182 328 L 182 328 L 113 432 L 113 432 L 132 432 L 132 432 L 192 342 L 192 342 L 252 432 L 252 432 L 271 432 L 271 432 L 202 328 L 202 328 L 271 224 L 271 224 Z" />
</svg>