<svg xmlns="http://www.w3.org/2000/svg" viewBox="0 0 384 512">
  <path d="M 368 192 Q 366 117 316 68 L 316 68 L 316 68 Q 267 18 192 16 Q 117 18 68 68 Q 18 117 16 192 Q 17 229 44 282 Q 72 335 109 385 Q 146 435 174 467 Q 185 480 192 488 Q 199 480 210 467 Q 238 435 275 385 Q 312 335 340 282 Q 367 229 368 192 L 368 192 Z M 384 192 Q 382 242 346 304 L 346 304 L 346 304 Q 310 367 268 421 L 268 421 L 268 421 Q 225 475 203 500 Q 192 512 192 512 Q 192 512 181 500 Q 159 475 116 421 Q 74 367 38 304 Q 2 242 0 192 Q 2 110 56 56 Q 110 2 192 0 Q 274 2 328 56 Q 382 110 384 192 L 384 192 Z M 237 96 L 237 96 L 237 96 L 237 96 L 277 136 L 277 136 L 288 148 L 288 148 L 277 159 L 277 159 L 157 279 L 157 279 L 113 286 L 113 286 L 96 288 L 96 288 L 99 272 L 99 272 L 106 227 L 106 227 L 237 96 L 237 96 Z M 237 119 L 215 140 L 237 119 L 215 140 L 244 169 L 244 169 L 266 147 L 266 147 L 237 119 L 237 119 Z M 121 235 L 115 269 L 121 235 L 115 269 L 149 264 L 149 264 L 233 180 L 233 180 L 204 151 L 204 151 L 121 235 L 121 235 Z" />
</svg>