<svg xmlns="http://www.w3.org/2000/svg" viewBox="0 0 640 512">
  <path d="M 32 10 L 20 0 L 32 10 L 20 0 L 0 25 L 0 25 L 13 35 L 13 35 L 608 502 L 608 502 L 620 512 L 620 512 L 640 487 L 640 487 L 628 477 L 628 477 L 32 10 L 32 10 Z M 500 480 L 460 448 L 500 480 L 460 448 L 96 448 L 96 448 L 96 161 L 96 161 L 64 135 L 64 135 L 64 448 L 64 448 L 64 480 L 64 480 L 96 480 L 500 480 Z M 206 85 L 233 106 L 206 85 L 233 106 L 247 64 L 247 64 L 393 64 L 393 64 L 407 106 L 407 106 L 414 128 L 414 128 L 437 128 L 544 128 L 544 351 L 544 351 L 576 377 L 576 377 L 576 128 L 576 128 L 576 96 L 576 96 L 544 96 L 437 96 L 416 32 L 416 32 L 224 32 L 224 32 L 206 85 L 206 85 Z M 213 253 Q 208 270 208 288 Q 209 336 241 367 Q 272 399 320 400 Q 352 400 378 384 L 351 362 L 351 362 Q 336 368 320 368 Q 286 367 263 344 Q 241 322 240 288 Q 240 281 241 275 L 213 253 L 213 253 Z" />
</svg>