<svg xmlns="http://www.w3.org/2000/svg" viewBox="0 0 512 512">
  <path d="M 512 221.86667 L 486.4 221.86667 L 332.8 221.86667 L 307.2 221.86667 L 307.2 170.66667 L 332.8 170.66667 L 424.53333 170.66667 L 369.06668 115.2 Q 322.13333 69.333336 256 68.26667 Q 197.33333 69.333336 151.46666 100.26667 Q 105.6 131.2 83.2 182.4 L 36.266666 162.13333 Q 64 97.066666 122.666664 57.6 Q 181.33333 18.133333 256 17.066668 Q 342.4 18.133333 405.33334 78.933334 L 460.8 134.4 L 460.8 42.666668 L 460.8 17.066668 L 512 17.066668 L 512 42.666668 L 512 196.26666 L 512 221.86667 L 512 221.86667 Z M 0 290.13333 L 25.6 290.13333 L 179.2 290.13333 L 204.8 290.13333 L 204.8 341.33334 L 179.2 341.33334 L 87.46667 341.33334 L 142.93333 396.8 Q 189.86667 442.66666 256 443.73334 Q 314.66666 442.66666 360.53333 411.73334 Q 406.4 380.8 428.8 329.6 L 475.73334 349.86667 Q 446.93332 414.93332 389.33334 454.4 Q 330.66666 493.86667 256 494.93332 Q 169.6 493.86667 106.666664 433.06668 L 51.2 377.6 L 51.2 469.33334 L 51.2 494.93332 L 0 494.93332 L 0 469.33334 L 0 315.73334 L 0 290.13333 L 0 290.13333 Z" />
</svg>