<svg xmlns="http://www.w3.org/2000/svg" viewBox="0 0 512 512">
  <path d="M 320 153.6 Q 319.2 126.4 301.6 108 L 301.6 108 Q 283.2 90.4 256 89.6 Q 228.8 90.4 210.4 108 Q 192.8 126.4 192 153.6 Q 192 175.2 204.8 192 L 231.2 212.8 Q 243.2 217.6 256 217.6 Q 283.2 216.8 300.8 198.4 Q 319.2 180.8 320 153.6 L 320 153.6 Z M 282.4 252.8 L 496.8 418.4 L 512 430.4 L 488.8 460.8 L 473.6 448.8 L 15.2 93.6 L 0 81.6 L 23.2 51.2 L 38.4 63.2 L 153.6 152 Q 155.2 109.6 184 80.8 Q 212.8 52 256 51.2 Q 299.2 52 328.8 80.8 Q 357.6 110.4 358.4 153.6 Q 357.6 189.6 336.8 216 Q 316 243.2 282.4 252.8 L 282.4 252.8 Z M 260 332.8 L 156.8 332.8 L 128.8 422.4 L 373.6 422.4 L 422.4 460.8 L 395.2 460.8 L 116.8 460.8 L 76.8 460.8 L 88.8 422.4 L 128 294.4 L 211.2 294.4 L 260 332.8 L 260 332.8 Z" />
</svg>