<svg xmlns="http://www.w3.org/2000/svg" viewBox="0 0 512 512">
  <path d="M 237.05197 58.053543 L 228.18268 50.796852 L 219.31339 58.053543 L 0 251.56535 L 17.738583 270.91653 L 47.571655 244.30865 L 47.571655 448.30237 L 47.571655 461.20316 L 60.472443 461.20316 L 297.5244 461.20316 Q 280.59213 449.91495 266.88504 434.59528 L 266.88504 435.40158 L 189.48032 435.40158 L 189.48032 306.3937 L 231.40787 306.3937 Q 233.82677 293.49292 239.47087 280.59213 L 176.57953 280.59213 L 163.67874 280.59213 L 163.67874 293.49292 L 163.67874 435.40158 L 73.37323 435.40158 L 73.37323 221.73228 L 228.18268 84.661415 L 325.74487 170.93544 Q 335.42047 162.06615 345.90237 154.00314 L 237.05197 58.053543 L 237.05197 58.053543 Z M 409.6 268.49765 L 428.95117 245.92126 Q 431.3701 242.69606 433.78897 240.27716 Q 434.59528 240.27716 434.59528 240.27716 Q 443.46457 249.14645 453.14017 261.24094 Q 467.65353 279.78583 476.52283 298.33072 Q 486.19843 316.87558 486.19843 332.19528 Q 485.39212 376.54172 456.36536 405.5685 Q 426.5323 434.59528 382.99213 435.40158 Q 339.45197 434.59528 309.6189 405.5685 Q 280.59213 376.54172 279.78583 332.19528 Q 279.78583 314.4567 292.6866 290.26773 Q 306.3937 266.88504 324.93857 245.11496 Q 342.67715 224.95747 357.19055 212.05669 Q 371.70395 224.95747 390.2488 245.92126 L 409.6 268.49765 L 409.6 268.49765 Z M 357.19055 177.38583 Q 355.57794 178.19212 330.58267 201.5748 L 330.58267 201.5748 Q 305.5874 224.95747 280.59213 260.43463 L 280.59213 260.43463 Q 255.59685 295.9118 253.98425 332.19528 Q 255.59685 387.02362 291.8803 423.3071 Q 328.1638 459.59055 382.99213 461.20316 Q 437.82047 459.59055 474.10394 423.3071 Q 510.3874 387.02362 512 332.19528 Q 510.3874 301.5559 491.84253 272.52914 Q 473.29764 243.50237 454.75275 223.34488 Q 436.2079 203.9937 434.59528 203.18741 Q 434.59528 203.18741 427.3386 210.44409 Q 420.08188 216.89449 409.6 228.98898 Q 400.7307 218.50708 391.86142 210.44409 Q 377.34802 195.1244 367.67245 186.25511 Q 357.19055 178.19212 357.19055 177.38583 L 357.19055 177.38583 Z M 357.99686 260.43463 L 347.51495 272.52914 Q 331.38898 291.8803 321.71338 307.2 Q 312.03778 323.326 312.03778 340.25827 Q 312.8441 372.51022 333.80786 391.0551 Q 353.96536 409.6 383.79843 409.6 Q 407.1811 409.6 426.5323 396.69922 L 426.5323 396.69922 L 427.3386 396.69922 Q 447.49606 381.37952 452.33386 357.19055 Q 457.17166 333.0016 445.88345 310.4252 L 445.88345 310.4252 Q 443.46457 305.5874 439.43307 299.9433 L 431.3701 289.46143 L 421.6945 296.7181 L 399.1181 313.6504 L 388.63623 299.9433 Q 385.411 295.9118 382.18582 291.8803 Q 370.89764 276.56064 367.67245 272.52914 L 357.99686 260.43463 L 357.99686 260.43463 Z M 424.91968 326.55118 Q 430.56378 340.25827 426.5323 353.96536 L 426.5323 353.96536 Q 423.3071 366.86615 412.0189 374.92914 Q 399.1181 383.79843 383.79843 383.79843 Q 362.83466 383.79843 350.74014 372.51022 Q 338.64566 362.02835 337.83936 340.25827 Q 337.83936 332.19528 344.28976 320.1008 Q 349.12756 312.03778 357.99686 301.5559 Q 360.41574 305.5874 364.44724 310.4252 Q 366.05984 312.8441 367.67245 315.263 Q 371.70395 320.1008 374.92914 324.93857 Q 378.15433 328.9701 380.57324 332.19528 L 384.60474 337.03308 L 386.21732 338.64566 L 386.21732 339.45197 L 386.21732 339.45197 L 386.21732 339.45197 L 386.21732 339.45197 L 386.21732 339.45197 L 396.69922 331.38898 L 386.21732 339.45197 L 394.2803 349.12756 L 403.9559 341.87088 L 424.91968 326.55118 L 424.91968 326.55118 Z" />
</svg>