<svg xmlns="http://www.w3.org/2000/svg" viewBox="0 0 469 512">
  <path d="M 213 0 L 221 0 L 213 0 L 309 0 L 309 8 L 309 8 L 309 32 L 309 32 L 381 32 L 389 32 L 389 40 L 389 40 L 389 96 L 389 96 L 461 96 L 469 96 L 469 104 L 469 104 L 469 344 L 469 344 Q 467 415 420 463 Q 372 510 301 512 L 293 512 L 293 512 Q 244 512 201 494 Q 157 476 123 442 L 34 352 L 34 352 L 5 324 L 5 324 L 0 318 L 0 318 L 5 313 L 5 313 L 62 256 L 62 256 L 67 250 L 67 250 L 73 256 L 73 256 L 101 284 L 101 284 L 133 316 L 133 316 L 133 40 L 133 40 L 133 32 L 133 32 L 141 32 L 213 32 L 213 8 L 213 8 L 213 0 L 213 0 Z M 309 184 L 309 248 L 309 184 L 309 248 L 309 256 L 309 256 L 293 256 L 293 256 L 293 248 L 293 248 L 293 40 L 293 40 L 293 32 L 293 32 L 293 16 L 293 16 L 229 16 L 229 16 L 229 32 L 229 32 L 229 40 L 229 40 L 229 48 L 229 48 L 229 248 L 229 248 L 229 256 L 229 256 L 213 256 L 213 256 L 213 248 L 213 248 L 213 48 L 213 48 L 149 48 L 149 48 L 149 335 L 149 335 L 135 341 L 135 341 L 90 296 L 90 296 L 67 273 L 67 273 L 22 318 L 22 318 L 45 341 L 45 341 L 134 430 L 134 430 Q 166 462 207 479 Q 248 496 293 496 L 301 496 L 301 496 Q 366 494 409 451 Q 451 409 453 344 L 453 112 L 453 112 L 389 112 L 389 112 L 389 248 L 389 248 L 389 256 L 389 256 L 373 256 L 373 256 L 373 248 L 373 248 L 373 104 L 373 104 L 373 96 L 373 96 L 373 48 L 373 48 L 309 48 L 309 48 L 309 184 L 309 184 Z M 205 324 Q 216 325 217 336 Q 216 347 205 348 Q 194 347 193 336 Q 194 325 205 324 L 205 324 Z M 269 356 Q 280 357 281 368 Q 280 379 269 380 Q 258 379 257 368 Q 258 357 269 356 L 269 356 Z M 385 368 Q 386 357 397 356 Q 408 357 409 368 Q 408 379 397 380 Q 386 379 385 368 L 385 368 Z M 365 420 Q 376 421 377 432 Q 376 443 365 444 Q 354 443 353 432 Q 354 421 365 420 L 365 420 Z M 257 432 Q 258 421 269 420 Q 280 421 281 432 Q 280 443 269 444 Q 258 443 257 432 L 257 432 Z M 173 388 Q 184 389 185 400 Q 184 411 173 412 Q 162 411 161 400 Q 162 389 173 388 L 173 388 Z M 321 336 Q 322 325 333 324 Q 344 325 345 336 Q 344 347 333 348 Q 322 347 321 336 L 321 336 Z" />
</svg>