<svg xmlns="http://www.w3.org/2000/svg" viewBox="0 0 509 512">
  <path d="M 207 18 Q 226 0 252 0 L 253 0 L 253 0 Q 280 1 298 19 Q 316 37 317 65 Q 317 91 298 110 L 59 349 L 59 349 Q 45 363 45 383 Q 46 404 59 418 Q 73 431 94 432 Q 114 432 128 418 L 399 147 L 399 147 Q 418 128 445 128 Q 472 129 490 147 Q 508 165 509 193 Q 509 219 490 238 L 354 375 L 354 375 Q 333 396 333 425 L 333 427 L 333 427 Q 334 457 353 476 Q 372 495 402 496 Q 419 496 434 487 L 497 449 L 497 449 L 505 463 L 505 463 L 442 501 L 442 501 Q 423 512 402 512 Q 366 511 342 487 Q 318 463 317 427 L 317 425 L 317 425 Q 317 389 342 363 L 479 227 L 479 227 Q 493 213 493 193 Q 492 172 479 158 Q 465 145 444 144 Q 424 144 410 158 L 139 429 L 139 429 Q 120 448 94 448 Q 66 447 48 429 Q 30 411 29 383 Q 29 357 48 338 L 287 99 L 287 99 Q 301 85 301 65 Q 300 44 287 30 Q 273 17 252 16 L 252 16 L 252 16 Q 232 16 218 29 L 10 222 L 10 222 L 0 210 L 0 210 L 207 18 L 207 18 Z" />
</svg>