<svg xmlns="http://www.w3.org/2000/svg" viewBox="0 0 640 512">
  <path d="M 107 120 L 28 133 L 107 120 L 28 133 L 74 199 L 74 199 L 80 208 L 80 208 L 74 217 L 74 217 L 28 283 L 28 283 L 107 296 L 107 296 L 118 298 L 118 298 L 120 310 L 120 310 L 133 389 L 133 389 L 160 369 L 160 369 L 160 389 L 160 389 L 136 406 L 136 406 L 121 416 L 121 416 L 118 399 L 118 399 L 104 312 L 104 312 L 18 298 L 18 298 L 0 295 L 0 295 L 10 280 L 10 280 L 61 208 L 61 208 L 10 136 L 10 136 L 0 121 L 0 121 L 18 118 L 18 118 L 104 104 L 104 104 L 118 18 L 118 18 L 121 0 L 121 0 L 136 10 L 136 10 L 208 61 L 208 61 L 280 10 L 280 10 L 295 0 L 295 0 L 298 18 L 298 18 L 308 79 L 308 79 Q 300 83 293 88 L 283 28 L 283 28 L 217 74 L 217 74 L 208 80 L 208 80 L 199 74 L 199 74 L 133 28 L 133 28 L 120 107 L 120 107 L 118 118 L 118 118 L 106 120 L 107 120 Z M 208 112 Q 236 112 258 126 Q 254 133 251 140 Q 232 128 208 128 Q 174 129 151 151 Q 129 174 128 208 Q 130 249 161 273 Q 160 280 160 288 L 160 291 L 160 291 Q 138 278 125 257 Q 112 235 112 208 Q 113 167 140 140 Q 167 113 208 112 L 208 112 Z M 295 416 L 295 416 L 295 416 L 295 416 L 295 416 L 295 416 L 295 416 L 295 416 Z M 368 96 Q 415 98 443 132 Q 447 137 450 142 Q 455 139 459 137 Q 476 128 496 128 Q 530 129 553 151 Q 575 174 576 208 Q 576 213 575 219 Q 575 222 574 225 Q 577 226 580 226 Q 607 234 623 255 Q 639 275 640 304 L 640 368 L 640 368 L 640 384 L 640 384 L 624 384 L 192 384 L 192 368 L 192 368 L 192 288 L 192 288 Q 193 251 215 226 Q 237 200 272 193 L 272 192 L 272 192 Q 273 151 300 124 Q 327 97 368 96 L 368 96 Z M 624 304 Q 623 280 609 263 L 609 263 L 609 263 Q 594 245 571 241 L 555 238 L 555 238 L 558 222 L 558 222 Q 560 215 560 208 Q 559 181 541 163 Q 523 145 496 144 Q 475 144 459 155 L 445 165 L 445 165 L 436 151 L 436 151 Q 413 114 368 112 Q 334 113 311 135 Q 289 158 288 192 L 288 193 L 288 193 L 288 207 L 288 207 L 275 209 L 275 209 Q 246 214 227 236 Q 209 258 208 288 L 208 368 L 208 368 L 288 368 L 624 368 L 624 304 L 624 304 Z M 288 416 L 224 512 L 288 416 L 224 512 L 200 512 L 200 512 L 264 416 L 264 416 L 288 416 L 288 416 Z M 360 416 L 384 416 L 360 416 L 384 416 L 320 512 L 320 512 L 296 512 L 296 512 L 360 416 L 360 416 Z M 480 416 L 416 512 L 480 416 L 416 512 L 392 512 L 392 512 L 456 416 L 456 416 L 480 416 L 480 416 Z M 552 416 L 576 416 L 552 416 L 576 416 L 512 512 L 512 512 L 488 512 L 488 512 L 552 416 L 552 416 Z" />
</svg>