<svg xmlns="http://www.w3.org/2000/svg" viewBox="0 0 512 512">
  <path d="M 224 0 L 205 0 L 224 0 L 205 0 L 218 14 L 218 14 L 224 19 L 224 19 Q 240 35 240 59 L 240 75 L 240 75 Q 240 94 227 107 Q 214 120 195 120 L 183 120 L 160 120 Q 129 121 109 141 Q 89 161 88 192 Q 88 210 96 225 Q 68 230 50 250 Q 33 271 32 300 Q 33 334 56 356 Q 31 364 16 384 Q 0 405 0 432 L 0 504 L 0 504 L 0 512 L 0 512 L 8 512 L 512 512 L 512 504 L 512 504 L 512 432 L 512 432 Q 512 405 496 384 Q 481 364 456 356 Q 479 334 480 300 Q 479 271 462 250 Q 444 230 416 225 Q 424 210 424 192 Q 423 164 406 144 Q 388 124 360 120 Q 358 69 324 35 Q 290 1 239 0 L 224 0 L 224 0 Z M 256 59 Q 256 35 242 16 Q 286 18 314 48 Q 343 78 344 121 Q 344 124 344 127 L 343 136 L 343 136 L 352 136 L 352 136 L 352 136 L 352 136 Q 376 137 392 152 Q 407 168 408 192 Q 408 212 396 227 L 385 240 L 385 240 L 402 240 L 404 240 Q 430 241 447 258 Q 463 275 464 300 Q 462 336 432 353 L 407 367 L 407 367 L 436 368 L 436 368 Q 461 370 478 388 Q 495 406 496 432 L 496 496 L 496 496 L 16 496 L 16 496 L 16 432 L 16 432 Q 17 406 34 388 Q 51 370 77 368 L 105 367 L 105 367 L 80 353 L 80 353 Q 50 336 48 300 Q 49 275 66 258 Q 83 241 108 240 L 110 240 L 127 240 L 116 227 L 116 227 Q 104 212 104 192 Q 105 168 120 152 Q 136 137 160 136 L 183 136 L 195 136 Q 221 135 238 118 Q 255 101 256 75 L 256 58 L 256 59 Z M 192 304 Q 207 303 208 288 Q 207 273 192 272 Q 177 273 176 288 Q 177 303 192 304 L 192 304 Z M 336 288 Q 335 273 320 272 Q 305 273 304 288 Q 305 303 320 304 Q 335 303 336 288 L 336 288 Z M 160 368 L 149 368 L 160 368 L 149 368 L 153 379 L 153 379 L 160 376 L 160 376 Q 151 380 153 379 Q 153 379 153 379 Q 153 379 153 379 Q 153 379 153 379 Q 153 379 153 379 Q 153 379 153 379 Q 153 379 153 379 L 153 379 L 153 379 L 153 380 L 153 380 Q 153 380 153 381 Q 154 381 154 382 Q 155 385 158 390 Q 163 400 175 414 Q 187 427 207 437 Q 227 447 256 448 Q 285 447 305 437 Q 325 427 337 414 Q 349 400 354 390 Q 357 385 358 382 Q 358 381 359 381 Q 359 380 359 380 L 359 379 L 359 379 L 359 379 L 359 379 Q 359 379 359 379 Q 359 379 359 379 Q 359 379 359 379 Q 359 379 359 379 Q 359 379 359 379 L 352 376 L 352 376 L 360 379 L 360 379 L 364 368 L 364 368 L 352 368 L 160 368 Z M 187 403 Q 178 392 173 384 L 339 384 L 339 384 Q 334 392 325 403 Q 315 414 298 423 Q 281 432 256 432 Q 231 432 214 423 Q 197 414 187 403 L 187 403 Z" />
</svg>