<svg xmlns="http://www.w3.org/2000/svg" viewBox="0 0 512 512">
  <path d="M 85.333336 140.44444 Q 79.111115 144.88889 70.22222 150.22223 Q 56.88889 157.33333 39.11111 164.44444 Q 21.333334 170.66667 0 170.66667 L 0 128 Q 27.555555 126.22222 48.88889 112.888885 Q 68.44444 101.333336 84.44444 86.22222 Q 84.44444 85.333336 85.333336 85.333336 L 85.333336 85.333336 L 85.333336 85.333336 L 85.333336 85.333336 Q 102.22222 101.333336 121.77778 112.888885 Q 143.11111 126.22222 170.66667 128 Q 197.33333 126.22222 219.55556 112.888885 Q 239.11111 101.333336 255.11111 86.22222 Q 255.11111 86.22222 255.11111 85.333336 L 256 85.333336 L 256.8889 85.333336 Q 256.8889 86.22222 256.8889 86.22222 Q 272.8889 101.333336 292.44446 112.888885 Q 313.77777 126.22222 341.33334 128 Q 368 126.22222 390.22223 112.888885 Q 409.77777 101.333336 425.77777 86.22222 Q 425.77777 86.22222 425.77777 85.333336 L 426.66666 85.333336 L 427.55554 85.333336 Q 427.55554 86.22222 427.55554 86.22222 Q 443.55554 101.333336 463.1111 112.888885 Q 484.44446 126.22222 512 128 L 512 170.66667 Q 490.66666 170.66667 472.8889 164.44444 Q 455.1111 157.33333 441.77777 150.22223 Q 432.8889 144.88889 426.66666 140.44444 Q 420.44446 144.88889 411.55554 150.22223 Q 398.22223 158.22223 380.44446 164.44444 Q 362.66666 170.66667 341.33334 170.66667 Q 320 170.66667 302.22223 164.44444 Q 284.44446 157.33333 271.1111 150.22223 Q 262.22223 144.88889 256 140.44444 Q 249.77777 144.88889 240.88889 150.22223 Q 227.55556 158.22223 209.77777 164.44444 Q 192 170.66667 170.66667 170.66667 Q 149.33333 170.66667 131.55556 164.44444 Q 113.77778 157.33333 100.44444 150.22223 Q 91.55556 144.88889 85.333336 140.44444 L 85.333336 140.44444 Z M 85.333336 396.44446 Q 79.111115 400.8889 70.22222 406.22223 Q 56.88889 413.33334 39.11111 420.44446 Q 21.333334 426.66666 0 426.66666 L 0 384 Q 27.555555 382.22223 48.88889 368.8889 Q 68.44444 357.33334 84.44444 342.22223 Q 84.44444 341.33334 85.333336 341.33334 L 85.333336 341.33334 L 85.333336 341.33334 L 85.333336 341.33334 Q 102.22222 357.33334 121.77778 368.8889 Q 143.11111 382.22223 170.66667 384 Q 197.33333 382.22223 219.55556 368.8889 Q 239.11111 357.33334 255.11111 342.22223 Q 255.11111 342.22223 255.11111 341.33334 L 256 341.33334 L 256.8889 341.33334 Q 256.8889 342.22223 256.8889 342.22223 Q 272.8889 357.33334 292.44446 368.8889 Q 313.77777 382.22223 341.33334 384 Q 368 382.22223 390.22223 368.8889 Q 409.77777 357.33334 425.77777 342.22223 Q 425.77777 342.22223 425.77777 341.33334 L 425.77777 341.33334 L 426.66666 341.33334 L 427.55554 341.33334 Q 427.55554 342.22223 427.55554 342.22223 Q 443.55554 357.33334 463.1111 368.8889 Q 484.44446 382.22223 512 384 L 512 426.66666 Q 490.66666 426.66666 472.8889 420.44446 Q 455.1111 413.33334 441.77777 406.22223 Q 432.8889 400.8889 426.66666 396.44446 Q 420.44446 400.8889 411.55554 406.22223 Q 398.22223 414.22223 380.44446 420.44446 Q 362.66666 426.66666 341.33334 426.66666 Q 320 426.66666 302.22223 420.44446 Q 284.44446 413.33334 271.1111 406.22223 Q 262.22223 400.8889 256 396.44446 Q 249.77777 400.8889 240.88889 406.22223 Q 227.55556 414.22223 209.77777 420.44446 Q 192 426.66666 170.66667 426.66666 Q 149.33333 426.66666 131.55556 420.44446 Q 113.77778 413.33334 100.44444 406.22223 Q 91.55556 400.8889 85.333336 396.44446 L 85.333336 396.44446 Z M 70.22222 278.22223 Q 56.88889 285.33334 39.11111 292.44446 L 39.11111 292.44446 Q 21.333334 298.66666 0 298.66666 L 0 256 Q 27.555555 254.22223 48.88889 240.88889 Q 68.44444 229.33333 84.44444 214.22223 Q 84.44444 213.33333 85.333336 213.33333 L 85.333336 213.33333 L 85.333336 213.33333 Q 102.22222 229.33333 121.77778 240.88889 Q 143.11111 254.22223 170.66667 256 Q 197.33333 254.22223 219.55556 240.88889 Q 239.11111 229.33333 255.11111 214.22223 Q 255.11111 214.22223 255.11111 213.33333 L 256 213.33333 L 256.8889 213.33333 Q 256.8889 214.22223 256.8889 214.22223 Q 272.8889 229.33333 292.44446 240.88889 Q 313.77777 254.22223 341.33334 256 Q 368 254.22223 390.22223 240.88889 Q 409.77777 229.33333 425.77777 214.22223 Q 425.77777 214.22223 425.77777 213.33333 L 426.66666 213.33333 L 427.55554 213.33333 Q 427.55554 214.22223 427.55554 214.22223 Q 443.55554 229.33333 463.1111 240.88889 Q 484.44446 254.22223 512 256 L 512 298.66666 Q 490.66666 298.66666 472.8889 292.44446 Q 455.1111 285.33334 441.77777 278.22223 Q 432.8889 272.8889 426.66666 268.44446 Q 420.44446 272.8889 411.55554 278.22223 Q 398.22223 286.22223 380.44446 292.44446 Q 362.66666 298.66666 341.33334 298.66666 Q 320 298.66666 302.22223 292.44446 Q 284.44446 285.33334 271.1111 278.22223 Q 262.22223 272.8889 256 268.44446 Q 249.77777 272.8889 240.88889 278.22223 Q 227.55556 286.22223 209.77777 292.44446 Q 192 298.66666 170.66667 298.66666 Q 149.33333 298.66666 131.55556 292.44446 Q 113.77778 285.33334 100.44444 278.22223 Q 91.55556 272.8889 85.333336 268.44446 Q 79.111115 272.8889 70.22222 278.22223 L 70.22222 278.22223 Z" />
</svg>