<svg xmlns="http://www.w3.org/2000/svg" viewBox="0 0 640 512">
  <path d="M 512 192 Q 510 110 456 56 L 456 56 L 456 56 Q 402 2 320 0 Q 238 2 184 57 L 196 67 L 196 67 Q 246 18 320 16 Q 395 18 444 68 Q 494 117 496 192 Q 495 229 468 281 L 481 291 L 481 291 Q 510 236 512 192 L 512 192 Z M 128 196 Q 132 246 168 308 L 168 308 L 168 308 Q 204 370 245 423 L 245 423 L 245 423 Q 287 476 309 500 Q 320 512 320 512 Q 320 512 331 500 Q 342 487 361 465 Q 380 442 402 413 L 390 403 L 390 403 Q 360 441 338 467 Q 327 480 320 488 Q 313 480 302 467 Q 274 435 237 385 Q 200 335 172 282 Q 152 242 146 210 L 128 196 L 128 196 Z M 16 5 L 10 0 L 16 5 L 10 0 L 0 13 L 0 13 L 6 18 L 6 18 L 624 507 L 624 507 L 630 512 L 630 512 L 640 500 L 640 500 L 634 495 L 634 495 L 16 5 L 16 5 Z" />
</svg>