<svg xmlns="http://www.w3.org/2000/svg" viewBox="0 0 448 448">
  <path d="M 16 16 L 16 432 L 16 16 L 16 432 L 432 432 L 432 432 L 432 16 L 432 16 L 16 16 L 16 16 Z M 0 0 L 16 0 L 0 0 L 448 0 L 448 16 L 448 16 L 448 432 L 448 432 L 448 448 L 448 448 L 432 448 L 0 448 L 0 432 L 0 432 L 0 16 L 0 16 L 0 0 L 0 0 Z M 136 96 L 224 96 L 136 96 L 320 96 L 320 112 L 320 112 L 312 112 L 232 112 L 232 336 L 232 336 L 312 336 L 320 336 L 320 352 L 320 352 L 312 352 L 128 352 L 128 336 L 128 336 L 136 336 L 216 336 L 216 112 L 216 112 L 136 112 L 128 112 L 128 96 L 128 96 L 136 96 L 136 96 Z" />
</svg>