<svg xmlns="http://www.w3.org/2000/svg" viewBox="0 0 575 512">
  <path d="M 80 16 L 80 160 L 80 16 L 80 160 L 64 160 L 64 160 L 64 16 L 64 16 L 64 0 L 64 0 L 80 0 L 384 0 L 448 64 L 448 64 L 448 160 L 448 160 L 432 160 L 432 160 L 432 71 L 432 71 L 377 16 L 377 16 L 80 16 L 80 16 Z M 270 208 L 16 208 L 270 208 L 16 208 L 16 400 L 16 400 L 64 400 L 64 400 L 64 336 L 64 336 L 64 320 L 64 320 L 80 320 L 224 320 Q 224 328 225 336 L 80 336 L 80 336 L 80 496 L 80 496 L 432 496 L 432 496 L 432 473 L 432 473 Q 432 473 433 472 Q 434 472 434 472 L 448 486 L 448 486 L 448 496 L 448 496 L 448 512 L 448 512 L 432 512 L 64 512 L 64 496 L 64 496 L 64 416 L 64 416 L 16 416 L 0 416 L 0 400 L 0 400 L 0 208 L 0 208 L 0 192 L 0 192 L 16 192 L 288 192 Q 278 199 270 208 L 270 208 Z M 384 432 Q 414 432 440 417 L 440 417 L 440 417 Q 466 402 481 376 Q 496 350 496 320 Q 496 291 481 264 Q 466 238 440 223 Q 414 208 384 208 Q 354 208 328 223 Q 302 238 287 264 Q 272 291 272 320 Q 272 350 287 376 Q 302 402 328 417 Q 354 432 384 432 L 384 432 Z M 384 448 Q 330 447 293 411 L 293 411 L 293 411 Q 257 375 256 320 Q 257 266 293 230 Q 330 194 384 192 Q 438 194 475 230 Q 511 266 512 320 Q 511 370 480 405 L 570 494 L 570 494 L 575 500 L 575 500 L 564 511 L 564 511 L 558 506 L 558 506 L 469 416 L 469 416 Q 434 447 384 448 L 384 448 Z" />
</svg>