<svg xmlns="http://www.w3.org/2000/svg" viewBox="0 0 440 511">
  <path d="M 228 16 L 296 16 L 228 16 L 296 16 L 372 130 L 372 130 L 372 194 L 372 194 L 316 253 L 316 253 L 326 265 L 326 265 L 386 203 L 386 203 L 388 200 L 388 200 L 388 197 L 388 197 L 388 128 L 388 128 L 388 126 L 388 126 L 387 124 L 387 124 L 307 4 L 307 4 L 304 0 L 304 0 L 300 0 L 220 0 Q 220 0 220 0 Q 220 0 220 0 L 140 0 L 136 0 L 133 4 L 133 4 L 53 124 L 53 124 L 52 126 L 52 126 L 52 128 L 52 128 L 52 197 L 52 197 L 52 200 L 52 200 L 54 203 L 54 203 L 342 506 L 342 506 L 347 511 L 347 511 L 352 507 L 352 507 L 432 455 L 432 455 L 440 449 L 440 449 L 434 443 L 434 443 L 156 138 L 156 138 L 156 104 L 156 104 L 220 104 L 284 104 L 284 138 L 284 138 L 247 178 L 247 178 L 258 190 L 258 190 L 298 146 L 298 146 L 300 144 L 300 144 L 300 141 L 300 141 L 300 96 L 300 96 L 300 88 L 300 88 L 292 88 L 140 88 L 140 96 L 140 96 L 140 141 L 140 141 L 140 144 L 140 144 L 142 146 L 142 146 L 416 447 L 416 447 L 349 491 L 349 491 L 68 194 L 68 194 L 68 130 L 68 130 L 144 16 L 144 16 L 228 16 L 228 16 Q 228 16 228 16 Q 228 16 228 16 L 228 16 Z M 114 324 L 6 443 L 114 324 L 6 443 L 0 450 L 0 450 L 8 455 L 8 455 L 88 508 L 88 508 L 93 511 L 93 511 L 98 506 L 98 506 L 193 407 L 193 407 L 182 395 L 182 395 L 91 490 L 91 490 L 24 446 L 24 446 L 125 336 L 125 336 L 114 324 L 114 324 Z" />
</svg>