<svg xmlns="http://www.w3.org/2000/svg" viewBox="0 0 512 512">
  <path d="M 361.41177 105.411766 L 361.41177 406.58823 L 421.64706 406.58823 L 421.64706 105.411766 L 361.41177 105.411766 L 361.41177 105.411766 Z M 271.05884 15.058824 L 361.41177 15.058824 L 421.64706 15.058824 L 512 15.058824 L 512 105.411766 L 512 406.58823 L 512 496.94116 L 421.64706 496.94116 L 361.41177 496.94116 L 271.05884 496.94116 L 271.05884 406.58823 L 271.05884 105.411766 L 271.05884 15.058824 L 271.05884 15.058824 Z M 90.35294 346.35294 L 90.35294 406.58823 L 150.58824 406.58823 L 150.58824 346.35294 L 90.35294 346.35294 L 90.35294 346.35294 Z M 0 256 L 90.35294 256 L 150.58824 256 L 240.94118 256 L 240.94118 346.35294 L 240.94118 406.58823 L 240.94118 496.94116 L 150.58824 496.94116 L 90.35294 496.94116 L 0 496.94116 L 0 406.58823 L 0 346.35294 L 0 256 L 0 256 Z" />
</svg>