<svg xmlns="http://www.w3.org/2000/svg" viewBox="0 0 384 512">
  <path d="M 16 16 L 208 16 L 16 16 L 208 16 L 208 168 L 208 168 L 208 176 L 208 176 L 216 176 L 368 176 L 368 496 L 368 496 L 16 496 L 16 496 L 16 16 L 16 16 Z M 224 23 L 361 160 L 224 23 L 361 160 L 224 160 L 224 160 L 224 23 L 224 23 Z M 224 0 L 16 0 L 224 0 L 0 0 L 0 16 L 0 16 L 0 496 L 0 496 L 0 512 L 0 512 L 16 512 L 384 512 L 384 496 L 384 496 L 384 160 L 384 160 L 224 0 L 224 0 Z M 200 440 L 200 251 L 200 440 L 200 251 L 274 326 L 274 326 L 280 331 L 280 331 L 291 320 L 291 320 L 286 314 L 286 314 L 198 226 L 198 226 L 192 221 L 192 221 L 186 226 L 186 226 L 98 314 L 98 314 L 93 320 L 93 320 L 104 331 L 104 331 L 110 326 L 110 326 L 184 251 L 184 251 L 184 440 L 184 440 L 184 448 L 184 448 L 200 448 L 200 448 L 200 440 L 200 440 Z" />
</svg>