<svg xmlns="http://www.w3.org/2000/svg" viewBox="0 0 512 512">
  <path d="M 11 267 L 0 256 L 11 267 L 0 256 L 11 245 L 11 245 L 105 151 L 105 151 L 117 139 L 117 139 L 128 151 L 128 151 L 222 245 L 222 245 L 233 256 L 233 256 L 222 267 L 222 267 L 128 361 L 128 361 L 117 373 L 117 373 L 105 361 L 105 361 L 11 267 L 11 267 Z M 117 350 L 211 256 L 117 350 L 211 256 L 117 162 L 117 162 L 23 256 L 23 256 L 117 350 L 117 350 Z M 267 222 L 256 233 L 267 222 L 256 233 L 245 222 L 245 222 L 151 128 L 151 128 L 139 117 L 139 117 L 151 105 L 151 105 L 245 11 L 245 11 L 256 0 L 256 0 L 267 11 L 267 11 L 361 105 L 361 105 L 373 117 L 373 117 L 361 128 L 361 128 L 267 222 L 267 222 Z M 350 117 L 256 23 L 350 117 L 256 23 L 162 117 L 162 117 L 256 211 L 256 211 L 350 117 L 350 117 Z M 290 267 L 279 256 L 290 267 L 279 256 L 290 245 L 290 245 L 384 151 L 384 151 L 395 139 L 395 139 L 407 151 L 407 151 L 501 245 L 501 245 L 512 256 L 512 256 L 501 267 L 501 267 L 407 361 L 407 361 L 395 373 L 395 373 L 384 361 L 384 361 L 290 267 L 290 267 Z M 301 256 L 395 350 L 301 256 L 395 350 L 489 256 L 489 256 L 395 162 L 395 162 L 301 256 L 301 256 Z M 245 290 L 256 279 L 245 290 L 256 279 L 267 290 L 267 290 L 361 384 L 361 384 L 373 395 L 373 395 L 361 407 L 361 407 L 267 501 L 267 501 L 256 512 L 256 512 L 245 501 L 245 501 L 151 407 L 151 407 L 139 395 L 139 395 L 151 384 L 151 384 L 245 290 L 245 290 Z M 256 301 L 162 395 L 256 301 L 162 395 L 256 489 L 256 489 L 350 395 L 350 395 L 256 301 L 256 301 Z" />
</svg>