<svg xmlns="http://www.w3.org/2000/svg" viewBox="0 0 512 512">
  <path d="M 496 256 Q 495 191 464 136 L 464 136 L 464 136 Q 432 81 376 48 Q 319 16 256 16 Q 193 16 136 48 Q 80 81 48 136 Q 17 191 16 256 Q 17 321 48 376 Q 80 431 136 464 Q 193 496 256 496 Q 319 496 376 464 Q 432 431 464 376 Q 495 321 496 256 L 496 256 Z M 0 256 Q 1 186 34 128 L 34 128 L 34 128 Q 68 70 128 34 Q 189 0 256 0 Q 323 0 384 34 Q 444 70 478 128 Q 511 186 512 256 Q 511 326 478 384 Q 444 442 384 478 Q 323 512 256 512 Q 189 512 128 478 Q 68 442 34 384 Q 1 326 0 256 L 0 256 Z M 240 280 Q 242 270 241 272 Q 241 272 241 272 Q 241 272 241 272 Q 241 272 241 272 Q 241 272 241 272 Q 241 272 241 272 Q 241 272 241 272 L 242 272 L 242 272 L 242 272 L 242 272 Q 243 272 243 272 Q 244 272 244 273 Q 247 273 252 274 Q 262 277 275 282 Q 288 287 299 296 Q 311 304 312 320 Q 311 335 299 342 Q 289 348 278 352 Q 289 355 299 362 Q 311 369 312 384 Q 311 400 299 410 Q 288 419 275 423 Q 262 428 252 430 Q 248 431 245 431 Q 244 431 244 431 Q 243 432 242 432 L 241 432 L 241 432 L 241 432 L 241 432 Q 241 432 241 432 Q 241 432 241 432 Q 241 432 241 432 Q 241 432 241 432 Q 241 432 241 432 Q 241 432 241 432 L 240 424 L 240 424 L 239 416 L 239 416 Q 239 416 239 416 Q 239 416 239 416 L 239 416 L 239 416 L 239 416 L 239 416 Q 240 416 241 416 Q 242 415 243 415 Q 245 415 248 414 Q 257 413 269 408 Q 281 404 289 398 Q 296 391 296 384 Q 296 380 289 375 Q 281 369 270 366 Q 258 363 249 361 Q 244 360 242 360 Q 241 360 241 360 Q 240 360 240 360 L 239 360 L 239 360 L 239 360 L 239 360 Q 239 360 239 360 Q 239 360 239 360 Q 239 360 239 360 Q 239 360 239 360 Q 239 360 239 360 Q 239 360 239 360 Q 239 360 239 360 Q 239 360 239 360 L 239 344 L 239 344 Q 239 344 239 344 Q 239 344 239 344 Q 239 344 239 344 Q 239 344 239 344 Q 239 344 239 344 Q 239 344 239 344 Q 239 344 239 344 Q 239 344 239 344 L 239 344 L 239 344 L 240 344 L 240 344 Q 240 344 241 344 Q 241 344 242 344 Q 243 344 245 343 Q 247 343 249 343 Q 258 341 270 338 Q 281 334 289 329 Q 296 324 296 320 Q 296 314 289 308 Q 281 301 269 297 Q 257 292 248 290 Q 247 290 246 290 Q 243 289 241 288 Q 240 288 240 288 Q 239 288 239 288 L 239 288 L 239 288 L 238 288 L 238 288 Q 238 288 238 288 Q 238 288 238 288 Q 238 288 238 288 Q 238 288 238 288 L 240 280 L 240 280 Z M 151 186 Q 140 204 136 226 L 120 223 L 120 223 Q 124 199 138 177 Q 151 154 176 152 Q 201 154 214 177 Q 228 199 232 223 L 216 226 L 216 226 Q 212 204 201 186 Q 189 168 176 168 Q 163 168 151 186 L 151 186 Z M 296 226 L 280 223 L 296 226 L 280 223 Q 284 199 298 177 Q 311 154 336 152 Q 361 154 374 177 Q 388 199 392 223 L 376 226 L 376 226 Q 372 204 361 186 Q 349 168 336 168 Q 323 168 311 186 Q 300 204 296 226 L 296 226 Z" />
</svg>