<svg xmlns="http://www.w3.org/2000/svg" viewBox="0 0 512 512">
  <path d="M 512 512 L 512 0 L 512 512 L 512 0 L 496 0 L 496 0 L 496 512 L 496 512 L 512 512 L 512 512 Z M 400 208 L 16 208 L 400 208 L 16 208 L 16 80 L 16 80 L 400 80 L 400 80 L 400 208 L 400 208 Z M 416 80 L 416 64 L 416 80 L 416 64 L 400 64 L 0 64 L 0 80 L 0 80 L 0 208 L 0 208 L 0 224 L 0 224 L 16 224 L 416 224 L 416 208 L 416 208 L 416 80 L 416 80 Z M 400 432 L 144 432 L 400 432 L 144 432 L 144 304 L 144 304 L 400 304 L 400 304 L 400 432 L 400 432 Z M 416 304 L 416 288 L 416 304 L 416 288 L 400 288 L 128 288 L 128 304 L 128 304 L 128 432 L 128 432 L 128 448 L 128 448 L 144 448 L 416 448 L 416 432 L 416 432 L 416 304 L 416 304 Z" />
</svg>