<svg xmlns="http://www.w3.org/2000/svg" viewBox="0 0 512 512">
  <path d="M 256 496 Q 321 495 376 464 L 376 464 L 376 464 Q 431 432 464 376 Q 496 319 496 256 Q 496 193 464 136 Q 431 80 376 48 Q 321 17 256 16 Q 191 17 136 48 Q 81 80 48 136 Q 16 193 16 256 Q 16 319 48 376 Q 81 432 136 464 Q 191 495 256 496 L 256 496 Z M 256 0 Q 326 1 384 34 L 384 34 L 384 34 Q 442 68 478 128 Q 512 189 512 256 Q 512 323 478 384 Q 442 444 384 478 Q 326 511 256 512 Q 186 511 128 478 Q 70 444 34 384 Q 0 323 0 256 Q 0 189 34 128 Q 70 68 128 34 Q 186 1 256 0 L 256 0 Z M 305 124 L 308 119 L 305 124 L 308 119 L 314 120 L 314 120 L 386 136 L 386 136 L 392 138 L 392 138 L 392 144 L 392 144 L 392 160 L 392 160 Q 392 160 392 160 Q 392 160 392 160 Q 391 225 360 277 Q 329 329 277 360 Q 225 391 160 392 L 144 392 L 138 392 L 136 386 L 136 386 L 120 314 L 120 314 L 119 308 L 119 308 L 124 305 L 124 305 L 196 265 L 196 265 L 202 262 L 202 262 L 206 267 L 206 267 L 235 304 L 235 304 Q 279 279 304 236 L 267 206 L 267 206 L 262 202 L 262 202 L 265 196 L 265 196 L 305 124 L 305 124 Z M 376 160 L 376 150 L 376 160 L 376 150 L 316 137 L 316 137 L 282 198 L 282 198 L 319 227 L 319 227 L 324 231 L 324 231 L 321 237 L 321 237 Q 292 292 237 321 L 232 324 L 232 324 L 227 319 L 227 319 L 198 282 L 198 282 L 137 316 L 137 316 L 150 376 L 150 376 L 160 376 L 160 376 Q 252 374 313 313 Q 374 252 376 160 Q 376 160 376 160 Q 376 160 376 160 L 376 160 Z" />
</svg>