<svg xmlns="http://www.w3.org/2000/svg" viewBox="0 0 448 448">
  <path d="M 32 32 L 32 416 L 32 32 L 32 416 L 416 416 L 416 416 L 416 32 L 416 32 L 32 32 L 32 32 Z M 0 0 L 32 0 L 0 0 L 448 0 L 448 32 L 448 32 L 448 416 L 448 416 L 448 448 L 448 448 L 416 448 L 0 448 L 0 416 L 0 416 L 0 32 L 0 32 L 0 0 L 0 0 Z M 144 128 L 144 256 L 144 128 L 144 256 Q 145 290 167 313 Q 190 335 224 336 Q 258 335 281 313 Q 303 290 304 256 L 304 128 L 304 128 L 304 112 L 304 112 L 336 112 L 336 112 L 336 128 L 336 128 L 336 256 L 336 256 Q 335 299 308 330 Q 282 360 240 367 L 240 368 L 240 368 L 224 368 L 224 368 Q 176 367 145 335 Q 113 304 112 256 L 112 128 L 112 128 L 112 112 L 112 112 L 144 112 L 144 112 L 144 128 L 144 128 Z" />
</svg>