<svg xmlns="http://www.w3.org/2000/svg" viewBox="0 0 512 512">
  <path d="M 405 288 L 459 235 L 405 288 L 459 235 Q 496 195 496 144 Q 496 93 459 54 Q 419 16 368 16 Q 317 16 278 54 L 224 107 L 224 107 L 219 112 L 219 112 L 212 112 L 212 112 Q 133 110 72 168 Q 16 227 16 304 Q 16 381 72 440 Q 131 496 208 496 Q 285 496 344 440 Q 402 379 400 300 L 400 293 L 400 293 L 405 288 L 405 288 Z M 470 246 L 416 300 L 470 246 L 416 300 Q 417 341 402 380 Q 386 419 355 451 Q 291 512 208 512 Q 125 512 61 451 Q 0 387 0 304 Q 0 221 61 157 Q 93 126 132 110 Q 171 95 212 96 L 266 42 L 266 42 Q 311 0 368 0 Q 425 0 470 42 Q 512 86 512 144 Q 512 201 470 246 L 470 246 Z M 171 235 Q 141 266 137 301 L 137 301 L 137 301 Q 133 335 154 358 Q 177 379 211 375 Q 246 371 278 342 Q 307 310 311 275 Q 315 241 294 218 Q 271 197 237 201 Q 202 205 171 235 L 171 235 Z M 305 207 Q 333 236 327 277 L 327 277 L 327 277 Q 322 319 289 353 Q 255 386 213 391 Q 172 397 143 369 Q 115 340 121 299 Q 126 257 159 223 Q 193 190 235 185 Q 276 179 305 207 L 305 207 Z" />
</svg>