<svg xmlns="http://www.w3.org/2000/svg" viewBox="0 0 635 512">
  <path d="M 224 16 Q 254 16 280 31 L 280 31 L 280 31 Q 306 46 321 72 Q 336 98 336 128 Q 336 158 321 184 Q 306 210 280 225 Q 254 240 224 240 Q 194 240 168 225 Q 142 210 127 184 Q 112 158 112 128 Q 112 98 127 72 Q 142 46 168 31 Q 194 16 224 16 L 224 16 Z M 224 256 Q 259 256 288 239 L 288 239 L 288 239 Q 317 222 335 192 Q 352 162 352 128 Q 352 94 335 64 Q 317 34 288 17 Q 259 0 224 0 Q 189 0 160 17 Q 131 34 113 64 Q 96 94 96 128 Q 96 162 113 192 Q 131 222 160 239 Q 189 256 224 256 L 224 256 Z M 76 320 L 372 320 L 76 320 L 372 320 L 426 496 L 426 496 L 22 496 L 22 496 L 76 320 L 76 320 Z M 384 304 L 64 304 L 384 304 L 64 304 L 5 496 L 5 496 L 0 512 L 0 512 L 17 512 L 448 512 L 443 496 L 443 496 L 384 304 L 384 304 Z M 630 150 L 635 144 L 630 150 L 635 144 L 624 133 L 624 133 L 618 138 L 618 138 L 496 261 L 496 261 L 438 202 L 438 202 L 432 197 L 432 197 L 421 208 L 421 208 L 426 214 L 426 214 L 490 278 L 490 278 L 496 283 L 496 283 L 502 278 L 502 278 L 630 150 L 630 150 Z" />
</svg>