<svg xmlns="http://www.w3.org/2000/svg" viewBox="0 0 624 384">
  <path d="M 16 8 L 16 0 L 16 8 L 16 0 L 0 0 L 0 0 L 0 8 L 0 8 L 0 184 L 0 184 L 0 376 L 0 376 L 0 384 L 0 384 L 16 384 L 16 384 L 16 376 L 16 376 L 16 192 L 16 192 L 304 192 L 304 192 L 304 376 L 304 376 L 304 384 L 304 384 L 320 384 L 320 384 L 320 376 L 320 376 L 320 184 L 320 184 L 320 8 L 320 8 L 320 0 L 320 0 L 304 0 L 304 0 L 304 8 L 304 8 L 304 176 L 304 176 L 16 176 L 16 176 L 16 8 L 16 8 Z M 600 0 L 392 0 L 600 0 L 384 0 L 384 16 L 384 16 L 392 16 L 581 16 L 418 178 L 418 178 L 416 181 L 416 181 L 416 192 L 416 192 L 424 192 L 520 192 Q 557 193 582 218 Q 607 243 608 280 Q 607 317 582 342 Q 557 367 520 368 L 447 368 L 447 368 Q 429 368 416 357 Q 403 345 400 328 L 400 327 L 400 327 L 399 319 L 399 319 L 383 321 L 383 321 L 384 329 L 384 329 L 384 330 L 384 330 Q 389 354 406 369 Q 423 383 447 384 L 520 384 L 520 384 Q 562 383 591 356 Q 620 329 624 288 L 624 288 L 624 288 L 624 280 L 624 280 Q 623 236 594 206 Q 564 177 520 176 L 443 176 L 443 176 L 606 14 L 606 14 L 608 11 L 608 11 L 608 0 L 608 0 L 600 0 L 600 0 Z" />
</svg>