<svg xmlns="http://www.w3.org/2000/svg" viewBox="0 0 576 472">
  <path d="M 381 360 L 312 262 L 381 360 L 312 262 Q 320 244 320 224 Q 319 183 292 156 Q 265 129 224 128 Q 183 129 156 156 Q 129 183 128 224 Q 129 265 156 292 Q 183 319 224 320 Q 230 320 235 319 L 304 416 L 304 416 Q 267 432 224 432 Q 136 430 77 371 Q 18 312 16 224 Q 18 136 77 77 Q 136 18 224 16 Q 311 18 369 75 Q 427 131 432 217 Q 432 221 432 224 Q 432 228 432 232 Q 428 307 382 360 L 381 360 Z M 429 376 L 424 376 L 429 376 L 393 376 L 391 373 L 391 373 Q 435 324 446 256 L 447 256 L 560 256 L 560 325 L 560 325 L 429 376 L 429 376 Z M 472 376 L 576 336 L 472 376 L 576 336 L 576 256 L 576 256 L 576 240 L 576 240 L 560 240 L 448 240 Q 448 232 448 224 Q 448 216 448 208 L 448 208 L 448 208 L 464 208 L 576 208 L 576 192 L 576 192 L 576 112 L 576 112 L 348 23 L 348 23 Q 288 0 224 0 Q 161 1 111 31 Q 60 60 31 111 Q 1 161 0 224 Q 1 287 31 337 Q 60 388 111 417 Q 161 447 224 448 Q 271 448 317 435 L 329 452 L 329 452 L 343 472 L 343 472 L 368 472 L 472 472 L 472 376 L 472 376 Z M 447 192 L 446 192 L 447 192 L 446 192 Q 439 146 416 109 Q 393 71 358 44 L 560 123 L 560 123 L 560 192 L 560 192 L 447 192 L 447 192 Z M 80 240 Q 95 239 96 224 Q 95 209 80 208 Q 65 209 64 224 Q 65 239 80 240 L 80 240 Z M 128 128 Q 127 113 112 112 Q 97 113 96 128 Q 97 143 112 144 Q 127 143 128 128 L 128 128 Z M 112 336 Q 127 335 128 320 Q 127 305 112 304 Q 97 305 96 320 Q 97 335 112 336 L 112 336 Z M 144 224 Q 145 179 184 155 Q 224 133 264 155 Q 303 179 304 224 Q 303 269 264 293 Q 224 315 184 293 Q 145 269 144 224 L 144 224 Z M 342 443 L 252 316 L 342 443 L 252 316 Q 285 305 304 277 L 385 392 L 385 392 L 424 392 L 456 392 L 456 456 L 456 456 L 424 456 L 351 456 L 342 443 L 342 443 Z" />
</svg>