<svg xmlns="http://www.w3.org/2000/svg" viewBox="0 0 512 512">
  <path d="M 256 496 Q 321 495 376 464 L 376 464 L 376 464 Q 431 432 464 376 Q 496 319 496 256 Q 496 193 464 136 Q 431 80 376 48 Q 321 17 256 16 Q 191 17 136 48 Q 81 80 48 136 Q 16 193 16 256 Q 16 319 48 376 Q 81 432 136 464 Q 191 495 256 496 L 256 496 Z M 256 0 Q 326 1 384 34 L 384 34 L 384 34 Q 442 68 478 128 Q 512 189 512 256 Q 512 323 478 384 Q 442 444 384 478 Q 326 511 256 512 Q 186 511 128 478 Q 70 444 34 384 Q 0 323 0 256 Q 0 189 34 128 Q 70 68 128 34 Q 186 1 256 0 L 256 0 Z M 344 160 L 352 160 L 344 160 L 352 160 L 352 168 L 352 168 L 352 312 L 352 312 L 352 320 L 352 320 L 336 320 L 336 320 L 336 312 L 336 312 L 336 187 L 336 187 L 174 350 L 174 350 L 168 355 L 168 355 L 157 344 L 157 344 L 162 338 L 162 338 L 325 176 L 325 176 L 200 176 L 192 176 L 192 160 L 192 160 L 200 160 L 344 160 Z" />
</svg>