<svg xmlns="http://www.w3.org/2000/svg" viewBox="0 0 384 512">
  <path d="M 16 496 L 16 16 L 16 496 L 16 16 L 208 16 L 208 16 L 208 168 L 208 168 L 208 176 L 208 176 L 216 176 L 368 176 L 368 496 L 368 496 L 16 496 L 16 496 Z M 224 23 L 361 160 L 224 23 L 361 160 L 224 160 L 224 160 L 224 23 L 224 23 Z M 224 0 L 16 0 L 224 0 L 0 0 L 0 16 L 0 16 L 0 496 L 0 496 L 0 512 L 0 512 L 16 512 L 384 512 L 384 496 L 384 496 L 384 160 L 384 160 L 224 0 L 224 0 Z M 120 224 L 112 224 L 120 224 L 112 224 L 112 232 L 112 232 L 112 360 L 112 360 L 112 440 L 112 440 L 112 448 L 112 448 L 128 448 L 128 448 L 128 440 L 128 440 L 128 368 L 128 368 L 200 368 L 200 368 Q 231 367 251 347 Q 271 327 272 296 Q 271 265 251 245 Q 231 225 200 224 L 120 224 L 120 224 Z M 200 352 L 128 352 L 200 352 L 128 352 L 128 240 L 128 240 L 200 240 L 200 240 Q 224 241 240 256 Q 255 272 256 296 Q 255 320 240 336 Q 224 351 200 352 L 200 352 Z" />
</svg>