<svg xmlns="http://www.w3.org/2000/svg" viewBox="0 0 576 512">
  <path d="M 64 0 L 48 56 L 64 0 L 48 56 L 0 224 L 0 224 L 0 240 L 0 240 L 0 256 L 0 256 L 16 256 L 64 256 L 64 240 L 64 240 L 64 58 L 64 58 L 64 0 L 64 0 Z M 48 114 L 48 240 L 48 114 L 48 240 L 16 240 L 16 240 L 16 226 L 16 226 L 48 114 L 48 114 Z M 288 0 Q 287 0 258 15 L 258 15 L 258 15 Q 230 29 192 58 L 192 58 L 192 58 Q 155 87 126 128 L 126 128 L 126 128 Q 98 170 96 224 Q 95 265 88 309 Q 80 353 72 384 Q 65 415 64 416 L 256 512 L 256 512 L 272 512 L 272 512 L 272 496 L 272 496 L 272 264 L 272 264 L 176 224 L 176 224 L 176 208 L 176 208 L 192 208 L 400 208 L 400 224 L 400 224 L 304 264 L 304 264 L 304 496 L 304 496 L 304 512 L 304 512 L 320 512 L 320 512 L 512 416 L 512 416 Q 511 415 504 384 Q 496 353 488 309 Q 481 265 480 224 Q 479 170 450 128 Q 422 87 384 58 Q 347 29 318 15 Q 290 0 288 0 L 288 0 Z M 493 408 L 320 494 L 493 408 L 320 494 L 320 275 L 320 275 L 406 239 L 406 239 L 416 235 L 416 235 L 416 224 L 416 224 L 416 208 L 416 208 L 416 192 L 416 192 L 400 192 L 160 192 L 160 208 L 160 208 L 160 224 L 160 224 L 160 235 L 160 235 L 170 239 L 170 239 L 256 275 L 256 275 L 256 494 L 256 494 L 83 408 L 83 408 Q 83 407 83 406 Q 84 404 85 401 Q 89 383 96 353 Q 102 324 107 290 Q 112 256 112 224 Q 113 176 139 137 Q 166 98 202 71 Q 238 43 266 29 Q 279 22 287 18 L 288 17 L 288 17 L 289 18 L 289 18 Q 297 22 310 29 Q 338 43 374 71 Q 410 98 436 137 Q 463 175 464 224 Q 464 256 469 290 Q 474 324 480 353 Q 486 383 491 401 Q 492 403 492 405 Q 493 406 493 407 L 493 408 Z M 528 56 L 512 0 L 528 56 L 512 0 L 512 58 L 512 58 L 512 240 L 512 240 L 512 256 L 512 256 L 528 256 L 576 256 L 576 240 L 576 240 L 576 224 L 576 224 L 528 56 L 528 56 Z M 560 226 L 560 240 L 560 226 L 560 240 L 528 240 L 528 240 L 528 114 L 528 114 L 560 226 L 560 226 Z" />
</svg>