<svg xmlns="http://www.w3.org/2000/svg" viewBox="0 0 384 512">
  <path d="M 224 0 L 208 0 L 224 0 L 160 0 L 160 16 L 160 16 L 160 32 L 160 32 L 160 57 L 160 57 L 48 32 L 48 32 L 16 32 L 0 32 L 0 48 L 0 48 L 0 272 L 0 272 L 0 288 L 0 288 L 16 288 L 48 288 L 192 256 L 192 256 L 336 288 L 336 288 L 368 288 L 384 288 L 384 272 L 384 272 L 384 48 L 384 48 L 384 32 L 384 32 L 368 32 L 336 32 L 224 57 L 224 57 L 224 32 L 224 32 L 224 16 L 224 16 L 224 0 L 224 0 Z M 208 60 L 192 64 L 208 60 L 192 64 L 176 60 L 176 60 L 176 32 L 176 32 L 176 16 L 176 16 L 208 16 L 208 16 L 208 32 L 208 32 L 208 60 L 208 60 Z M 224 296 L 208 292 L 224 296 L 208 292 L 208 480 L 208 480 L 208 496 L 208 496 L 176 496 L 176 496 L 176 480 L 176 480 L 176 292 L 176 292 L 160 296 L 160 296 L 160 480 L 160 480 L 160 496 L 160 496 L 160 512 L 160 512 L 176 512 L 224 512 L 224 496 L 224 496 L 224 480 L 224 480 L 224 296 L 224 296 Z M 189 240 L 46 272 L 189 240 L 46 272 L 16 272 L 16 272 L 16 48 L 16 48 L 46 48 L 46 48 L 189 80 L 189 80 Q 192 80 195 80 L 338 48 L 338 48 L 368 48 L 368 48 L 368 272 L 368 272 L 338 272 L 338 272 L 196 240 L 196 240 Q 192 240 189 240 L 189 240 Z" />
</svg>