<svg xmlns="http://www.w3.org/2000/svg" viewBox="0 0 496 496">
  <path d="M 164 8 L 256 57 L 164 8 L 256 57 L 348 8 L 348 8 L 362 0 L 362 0 L 367 16 L 367 16 L 397 115 L 397 115 Q 397 115 397 115 L 384 128 L 384 128 Q 384 128 384 128 Q 384 128 384 128 L 381 120 L 381 120 L 352 23 L 352 23 L 264 71 L 264 71 L 256 75 L 256 75 L 248 71 L 248 71 L 160 23 L 160 23 L 131 120 L 131 120 L 128 128 L 128 128 L 120 131 L 120 131 L 23 160 L 23 160 L 71 249 L 71 249 L 75 256 L 75 256 L 71 264 L 71 264 L 23 352 L 23 352 L 120 381 L 120 381 L 128 384 L 128 384 Q 128 384 128 384 Q 128 384 128 384 L 115 397 L 115 397 Q 115 397 115 397 Q 115 397 115 397 L 16 367 L 16 367 L 0 362 L 0 362 L 8 348 L 8 348 L 57 256 L 57 256 L 8 164 L 8 164 L 0 150 L 0 150 L 16 145 L 16 145 L 115 115 L 115 115 L 145 16 L 145 16 L 150 0 L 150 0 L 164 8 L 164 8 Z M 256 144 Q 304 145 335 177 L 324 188 L 324 188 Q 297 161 256 160 Q 215 161 188 188 Q 161 215 160 256 Q 161 297 188 324 L 177 335 L 177 335 Q 145 304 144 256 Q 145 208 177 177 Q 208 145 256 144 L 256 144 Z M 464 160 Q 465 145 480 144 Q 495 145 496 160 Q 495 175 480 176 Q 465 175 464 160 L 464 160 Z M 400 224 Q 415 225 416 240 Q 415 255 400 256 Q 385 255 384 240 Q 385 225 400 224 L 400 224 Z M 464 320 Q 465 305 480 304 Q 495 305 496 320 Q 495 335 480 336 Q 465 335 464 320 L 464 320 Z M 400 384 Q 415 385 416 400 Q 415 415 400 416 Q 385 415 384 400 Q 385 385 400 384 L 400 384 Z M 160 464 Q 175 465 176 480 Q 175 495 160 496 Q 145 495 144 480 Q 145 465 160 464 L 160 464 Z M 320 464 Q 335 465 336 480 Q 335 495 320 496 Q 305 495 304 480 Q 305 465 320 464 L 320 464 Z M 464 480 Q 465 465 480 464 Q 495 465 496 480 Q 495 495 480 496 Q 465 495 464 480 L 464 480 Z M 240 384 Q 255 385 256 400 Q 255 415 240 416 Q 225 415 224 400 Q 225 385 240 384 L 240 384 Z M 304 320 Q 305 305 320 304 Q 335 305 336 320 Q 335 335 320 336 Q 305 335 304 320 L 304 320 Z" />
</svg>