<svg xmlns="http://www.w3.org/2000/svg" viewBox="0 0 568 493">
  <path d="M 160 21 Q 138 23 136 45 Q 138 67 160 69 Q 182 67 184 45 Q 182 23 160 21 L 160 21 Z M 200 45 Q 199 68 180 80 Q 160 90 140 80 Q 121 68 120 45 Q 121 22 140 10 Q 160 0 180 10 Q 199 22 200 45 L 200 45 Z M 239 93 L 241 89 L 239 93 L 241 89 L 277 25 L 277 25 L 279 21 L 279 21 L 284 21 L 361 21 L 363 25 L 363 25 L 399 89 L 399 89 L 401 93 L 401 93 L 399 97 L 399 97 L 363 161 L 363 161 L 361 165 L 361 165 L 356 165 L 279 165 L 277 161 L 277 161 L 241 97 L 241 97 L 239 93 L 239 93 Z M 289 149 L 351 149 L 289 149 L 351 149 L 383 93 L 383 93 L 351 37 L 351 37 L 289 37 L 289 37 L 257 93 L 257 93 L 289 149 L 289 149 Z M 0 26 L 14 39 L 0 26 L 14 39 L 454 479 L 454 479 L 467 493 L 467 493 L 448 493 L 0 493 L 0 485 L 0 485 L 0 45 L 0 45 L 0 26 L 0 26 Z M 16 64 L 16 477 L 16 64 L 16 477 L 429 477 L 429 477 L 16 64 L 16 64 Z M 492 412 L 428 376 L 492 412 L 428 376 L 424 374 L 424 374 L 424 369 L 424 369 L 424 297 L 424 297 L 424 292 L 424 292 L 428 290 L 428 290 L 492 254 L 492 254 L 496 252 L 496 252 L 500 254 L 500 254 L 564 290 L 564 290 L 568 292 L 568 292 L 568 297 L 568 297 L 568 369 L 568 369 L 568 374 L 568 374 L 564 376 L 564 376 L 500 412 L 500 412 L 496 414 L 496 414 L 492 412 L 492 412 Z M 552 302 L 496 270 L 552 302 L 496 270 L 440 302 L 440 302 L 440 364 L 440 364 L 496 396 L 496 396 L 552 364 L 552 364 L 552 302 L 552 302 Z M 328 269 Q 330 291 352 293 Q 374 291 376 269 Q 374 247 352 245 Q 330 247 328 269 L 328 269 Z M 352 309 Q 329 308 317 289 Q 307 269 317 249 Q 329 230 352 229 Q 375 230 387 249 Q 397 269 387 289 Q 375 308 352 309 L 352 309 Z" />
</svg>