<svg xmlns="http://www.w3.org/2000/svg" viewBox="0 0 512 512">
  <path d="M 64 48 Q 79 47 80 32 Q 79 17 64 16 Q 49 17 48 32 Q 49 47 64 48 L 64 48 Z M 64 0 Q 78 0 87 9 L 87 9 L 87 9 Q 96 18 96 32 Q 96 46 87 55 Q 78 64 64 64 Q 50 64 41 55 Q 32 46 32 32 Q 32 18 41 9 Q 50 0 64 0 L 64 0 Z M 129 460 L 52 383 L 129 460 L 52 383 L 19 476 L 19 476 L 36 494 L 36 494 L 129 460 L 129 460 Z M 146 454 L 223 426 L 146 454 L 223 426 L 86 289 L 86 289 L 58 366 L 58 366 L 146 454 L 146 454 Z M 239 421 L 315 394 L 239 421 L 315 394 L 119 197 L 119 197 L 91 273 L 91 273 Q 93 273 94 274 L 238 418 L 238 418 Q 239 419 239 421 L 239 421 Z M 32 512 L 0 480 L 32 512 L 0 480 L 106 185 L 106 185 L 112 168 L 112 168 L 125 181 L 125 181 L 332 388 L 332 388 L 344 400 L 344 400 L 327 406 L 327 406 L 32 512 L 32 512 Z M 496 160 Q 495 145 480 144 Q 465 145 464 160 Q 465 175 480 176 Q 495 175 496 160 L 496 160 Z M 448 160 Q 448 146 457 137 L 457 137 L 457 137 Q 466 128 480 128 Q 494 128 503 137 Q 512 146 512 160 Q 512 174 503 183 Q 494 192 480 192 Q 466 192 457 183 Q 448 174 448 160 L 448 160 Z M 480 464 Q 495 463 496 448 Q 495 433 480 432 Q 465 433 464 448 Q 465 463 480 464 L 480 464 Z M 480 416 Q 494 416 503 425 L 503 425 L 503 425 Q 512 434 512 448 Q 512 462 503 471 Q 494 480 480 480 Q 466 480 457 471 Q 448 462 448 448 Q 448 434 457 425 Q 466 416 480 416 L 480 416 Z M 256 8 Q 255 37 243 64 L 243 64 L 243 64 Q 230 91 214 112 Q 198 133 186 145 Q 181 151 177 155 Q 176 156 175 156 Q 175 157 174 157 L 174 158 L 174 158 L 173 158 L 173 158 Q 174 158 173 158 Q 173 158 173 158 Q 173 158 173 158 Q 173 158 173 158 Q 173 158 173 158 Q 173 158 173 158 L 168 152 L 168 152 L 173 158 L 173 158 L 168 163 L 168 163 L 157 151 L 157 151 L 163 146 L 163 146 Q 163 146 163 146 Q 163 146 163 146 Q 163 146 163 146 Q 163 146 163 146 L 163 146 L 163 146 L 163 145 L 163 145 Q 164 145 166 143 Q 166 143 166 143 Q 169 140 175 134 Q 186 122 202 102 Q 217 82 228 58 Q 239 33 240 8 L 240 0 L 240 0 L 256 0 L 256 0 L 256 8 L 256 8 Z M 367 349 Q 367 349 367 349 L 367 349 L 367 349 Q 367 349 367 349 Q 367 349 367 349 Q 367 349 367 349 Q 367 349 367 349 Q 367 349 367 349 L 362 355 L 362 355 L 349 346 L 349 346 L 353 340 L 353 340 L 360 344 L 360 344 Q 352 338 353 340 Q 353 340 353 340 Q 353 340 353 340 Q 353 340 353 340 Q 353 340 353 340 Q 353 340 353 339 L 354 339 L 354 339 L 354 338 L 354 338 Q 354 338 355 337 Q 355 337 356 336 Q 359 332 364 326 Q 374 314 393 298 Q 412 282 440 269 Q 468 257 504 256 L 512 256 L 512 256 L 512 272 L 512 272 L 504 272 L 504 272 Q 472 273 447 284 Q 421 295 403 310 Q 385 325 376 337 Q 371 342 369 345 Q 368 347 367 348 L 367 348 L 367 348 L 367 349 L 367 349 Q 367 349 367 349 L 367 349 Z M 493 29 Q 473 46 447 45 Q 428 45 413 57 Q 399 69 396 88 L 389 132 L 389 132 Q 384 160 364 179 Q 343 198 314 200 Q 293 202 277 216 L 269 222 L 269 222 L 263 227 L 263 227 L 253 215 L 253 215 L 259 210 L 259 210 L 267 204 L 267 204 Q 287 187 313 184 Q 337 182 353 167 Q 369 152 373 129 L 380 85 L 380 85 Q 385 60 403 45 Q 422 29 447 29 Q 467 30 482 17 L 499 2 L 499 2 L 509 14 L 509 14 L 493 29 L 493 29 Z" />
</svg>