<svg xmlns="http://www.w3.org/2000/svg" viewBox="0 0 644 516">
  <path d="M 16 4 Q 10 0 4 4 Q 0 10 4 16 L 167 178 L 167 178 L 74 178 L 66 178 L 66 194 L 66 194 L 74 194 L 194 194 L 194 186 L 194 186 L 194 74 L 194 74 L 194 66 L 194 66 L 178 66 L 178 66 L 178 74 L 178 74 L 178 167 L 178 167 L 16 4 L 16 4 Z M 628 4 L 466 167 L 628 4 L 466 167 L 466 74 L 466 74 L 466 66 L 466 66 L 450 66 L 450 66 L 450 74 L 450 74 L 450 186 L 450 186 L 450 194 L 450 194 L 458 194 L 578 194 L 578 178 L 578 178 L 570 178 L 477 178 L 640 16 L 640 16 Q 644 10 640 4 Q 634 0 628 4 L 628 4 Z M 322 178 Q 367 179 391 218 Q 413 258 391 298 Q 367 337 322 338 Q 277 337 253 298 Q 231 258 253 218 Q 277 179 322 178 L 322 178 Z M 322 354 Q 348 354 370 341 L 370 341 L 370 341 Q 392 328 405 306 Q 418 283 418 258 Q 418 233 405 210 Q 392 188 370 175 Q 348 162 322 162 Q 296 162 274 175 Q 252 188 239 210 Q 226 233 226 258 Q 226 283 239 306 Q 252 328 274 341 Q 296 354 322 354 L 322 354 Z M 450 450 L 466 450 L 450 450 L 466 450 L 466 442 L 466 442 L 466 349 L 466 349 L 628 512 L 628 512 Q 634 516 640 512 Q 644 506 640 500 L 477 338 L 477 338 L 570 338 L 578 338 L 578 322 L 578 322 L 570 322 L 450 322 L 450 330 L 450 330 L 450 442 L 450 442 L 450 450 L 450 450 Z M 194 450 L 194 442 L 194 450 L 194 442 L 194 330 L 194 330 L 194 322 L 194 322 L 186 322 L 66 322 L 66 338 L 66 338 L 74 338 L 167 338 L 4 500 L 4 500 Q 0 506 4 512 Q 10 516 16 512 L 178 349 L 178 349 L 178 442 L 178 442 L 178 450 L 178 450 L 194 450 L 194 450 Z" />
</svg>