<svg xmlns="http://www.w3.org/2000/svg" viewBox="0 0 448 448">
  <path d="M 139 308 L 134 304 L 139 308 L 134 304 L 128 304 L 16 304 L 16 144 L 16 144 L 128 144 L 134 144 L 139 140 L 139 140 L 278 16 L 278 16 L 304 16 L 304 16 L 304 432 L 304 432 L 278 432 L 278 432 L 139 308 L 139 308 Z M 0 320 L 16 320 L 0 320 L 128 320 L 272 448 L 272 448 L 304 448 L 320 448 L 320 432 L 320 432 L 320 16 L 320 16 L 320 0 L 320 0 L 304 0 L 272 0 L 128 128 L 128 128 L 16 128 L 0 128 L 0 144 L 0 144 L 0 304 L 0 304 L 0 320 L 0 320 Z M 410 301 Q 446 273 448 224 Q 446 175 410 147 L 400 160 L 400 160 Q 431 183 432 224 Q 431 265 400 288 L 410 301 L 410 301 Z" />
</svg>