<svg xmlns="http://www.w3.org/2000/svg" viewBox="0 0 378 452">
  <path d="M 170 13 L 172 5 L 170 13 L 172 5 L 157 0 L 157 0 L 154 7 L 154 7 L 2 439 L 2 439 L 0 447 L 0 447 L 15 452 L 15 452 L 17 445 L 17 445 L 170 13 L 170 13 Z M 284 4 L 268 0 L 284 4 L 268 0 L 266 8 L 266 8 L 154 440 L 154 440 L 152 448 L 152 448 L 168 452 L 168 452 L 170 444 L 170 444 L 282 12 L 282 12 L 284 4 L 284 4 Z M 378 2 L 362 2 L 378 2 L 362 2 L 362 10 L 362 10 L 362 442 L 362 442 L 362 450 L 362 450 L 378 450 L 378 450 L 378 442 L 378 442 L 378 10 L 378 10 L 378 2 L 378 2 Z" />
</svg>