<svg xmlns="http://www.w3.org/2000/svg" viewBox="0 0 640 512">
  <path d="M 235 16 L 192 16 L 235 16 L 120 16 L 109 37 L 109 37 L 21 197 L 21 197 L 16 206 L 16 206 L 16 216 L 16 216 L 16 400 L 16 400 L 96 400 L 96 400 L 96 228 L 96 228 L 96 226 L 96 226 L 97 224 L 97 224 L 161 108 L 161 108 L 176 112 L 176 112 L 176 304 L 176 304 L 160 304 L 160 304 L 160 143 L 160 143 L 112 230 L 112 230 L 112 408 L 112 408 L 112 416 L 112 416 L 104 416 L 0 416 L 0 408 L 0 408 L 0 216 L 0 216 L 0 204 L 0 204 L 0 202 L 0 202 L 1 200 L 1 200 L 7 189 L 7 189 L 95 29 L 95 29 L 109 4 L 109 4 L 111 0 L 111 0 L 116 0 L 240 0 L 240 0 L 240 0 L 240 0 L 240 0 L 400 0 L 400 0 L 400 0 L 400 0 L 448 0 L 529 0 L 531 4 L 531 4 L 545 29 L 545 29 L 633 189 L 633 189 L 639 200 L 639 200 L 640 202 L 640 202 L 640 204 L 640 204 L 640 216 L 640 216 L 640 408 L 640 408 L 640 416 L 640 416 L 632 416 L 528 416 L 528 408 L 528 408 L 528 230 L 528 230 L 480 143 L 480 143 L 480 304 L 480 304 L 464 304 L 464 304 L 464 112 L 464 112 L 479 108 L 479 108 L 543 225 L 543 225 L 544 226 L 544 226 L 544 228 L 544 228 L 544 400 L 544 400 L 624 400 L 624 400 L 624 216 L 624 216 L 624 206 L 624 206 L 619 197 L 619 197 L 531 37 L 531 37 L 520 16 L 520 16 L 496 16 L 405 16 L 327 172 L 327 172 L 264 304 L 264 304 L 246 304 L 246 304 L 311 168 L 311 168 L 235 16 L 235 16 Z M 160 504 L 160 384 L 160 504 L 160 384 L 176 384 L 176 384 L 176 496 L 176 496 L 464 496 L 464 496 L 464 384 L 464 384 L 480 384 L 480 384 L 480 504 L 480 504 L 480 512 L 480 512 L 472 512 L 160 512 L 160 504 L 160 504 Z M 387 16 L 253 16 L 387 16 L 253 16 L 320 150 L 320 150 L 387 16 L 387 16 Z M 160 336 L 320 336 L 160 336 L 488 336 L 488 352 L 488 352 L 480 352 L 335 352 L 391 436 L 391 436 L 395 442 L 395 442 L 382 451 L 382 451 L 377 445 L 377 445 L 320 359 L 320 359 L 263 445 L 263 445 L 258 451 L 258 451 L 245 442 L 245 442 L 249 436 L 249 436 L 305 352 L 305 352 L 160 352 L 152 352 L 152 336 L 152 336 L 160 336 L 160 336 Z" />
</svg>