<svg xmlns="http://www.w3.org/2000/svg" viewBox="0 0 512 512">
  <path d="M 26.4 59.2 L 16 51.2 L 0 71.2 L 10.4 79.2 L 486.4 452.8 L 496 460.8 L 512 440.8 L 502.4 432.8 L 26.4 59.2 L 26.4 59.2 Z M 323.2 374.4 Q 292 384 256 384 Q 221.6 384 192 374.4 L 184.8 372.8 L 176.8 374.4 L 106.4 396 L 120.8 356.8 L 126.4 341.6 L 115.2 329.6 Q 77.6 292 76.8 243.2 Q 76.8 215.2 90.4 190.4 L 69.6 174.4 Q 51.2 205.6 51.2 243.2 Q 52.8 304 96.8 348 L 75.2 404.8 L 64 435.2 L 95.2 425.6 L 184 399.2 Q 217.6 409.6 256 409.6 Q 304.8 408.8 346.4 392.8 L 323.2 373.6 L 323.2 374.4 Z M 256 76.8 Q 193.6 77.6 144.8 103.2 L 167.2 120.8 Q 206.4 103.2 256 102.4 Q 335.2 104 384.8 145.6 Q 433.6 186.4 435.2 243.2 Q 434.4 280.8 411.2 313.6 L 431.2 329.6 Q 460 291.2 460.8 243.2 Q 460 196.8 432.8 159.2 Q 405.6 121.6 359.2 99.2 Q 313.6 77.6 256 76.8 L 256 76.8 Z" />
</svg>