<svg xmlns="http://www.w3.org/2000/svg" viewBox="0 0 640 512">
  <path d="M 107 120 L 118 118 L 107 120 L 118 118 L 120 107 L 120 107 L 133 28 L 133 28 L 199 74 L 199 74 L 208 80 L 208 80 L 217 74 L 217 74 L 283 28 L 283 28 L 296 107 L 296 107 L 298 118 L 298 118 L 310 120 L 310 120 L 389 133 L 389 133 L 346 194 L 346 194 Q 356 192 367 192 L 406 136 L 406 136 L 416 121 L 416 121 L 399 118 L 399 118 L 312 104 L 312 104 L 298 18 L 298 18 L 295 0 L 295 0 L 280 10 L 280 10 L 208 61 L 208 61 L 136 10 L 136 10 L 121 0 L 121 0 L 118 18 L 118 18 L 104 104 L 104 104 L 18 118 L 18 118 L 0 121 L 0 121 L 10 136 L 10 136 L 61 208 L 61 208 L 10 280 L 10 280 L 0 295 L 0 295 L 18 298 L 18 298 L 104 312 L 104 312 L 118 399 L 118 399 L 121 416 L 121 416 L 136 406 L 136 406 L 163 387 L 163 387 Q 167 373 172 361 L 133 388 L 133 388 L 120 309 L 120 309 L 118 298 L 118 298 L 106 296 L 106 296 L 27 283 L 27 283 L 74 217 L 74 217 L 80 208 L 80 208 L 74 199 L 74 199 L 28 133 L 28 133 L 107 120 L 107 120 Z M 304 208 Q 303 167 276 140 L 276 140 L 276 140 Q 249 113 208 112 Q 167 113 140 140 Q 113 167 112 208 Q 113 249 140 276 Q 167 303 208 304 Q 220 304 231 301 Q 237 299 242 296 Q 244 287 247 278 Q 230 288 208 288 Q 174 287 151 265 Q 129 242 128 208 Q 129 174 151 151 Q 174 129 208 128 Q 242 129 265 151 Q 287 174 288 208 Q 288 215 287 221 Q 295 214 304 209 L 304 208 L 304 208 Z M 368 224 Q 327 225 300 252 L 300 252 L 300 252 Q 273 279 272 320 L 272 321 L 272 321 Q 237 328 215 354 Q 193 380 192 416 L 192 496 L 192 496 L 192 512 L 192 512 L 208 512 L 640 512 L 640 496 L 640 496 L 640 432 L 640 432 Q 639 404 623 383 Q 607 362 580 355 Q 577 354 574 353 Q 575 350 575 347 Q 576 341 576 336 Q 575 302 552 279 Q 530 257 496 256 Q 476 256 459 265 Q 454 267 450 270 Q 447 265 443 260 Q 415 226 368 224 L 368 224 Z M 624 432 L 624 496 L 624 432 L 624 496 L 560 496 L 208 496 L 208 416 L 208 416 Q 209 386 227 364 Q 246 342 275 337 L 288 335 L 288 335 L 288 321 L 288 321 L 288 320 L 288 320 Q 289 286 311 263 Q 334 241 368 240 Q 413 242 436 279 L 445 293 L 445 293 L 459 283 L 459 283 Q 475 272 496 272 Q 523 273 541 291 Q 559 309 560 336 Q 560 343 558 350 L 555 366 L 555 366 L 571 369 L 571 369 Q 594 373 609 391 Q 623 408 624 432 L 624 432 Z" />
</svg>