<svg xmlns="http://www.w3.org/2000/svg" viewBox="0 0 512 512">
  <path d="M 170.66667 159.11111 L 206.22223 194.66667 L 206.22223 195.55556 Q 206.22223 224.88889 218.66667 250.66667 L 210.66667 259.55554 L 140.44444 189.33333 L 47.11111 95.111115 Q 42.666668 106.666664 42.666668 120.888885 Q 40.88889 149.33333 85.333336 204.44444 Q 120 246.22223 172.44444 297.77777 L 142.22223 327.1111 Q 80 267.55554 40.88889 216.88889 Q 0.8888889 167.11111 0 120.888885 Q 1.7777778 86.22222 14.222222 63.11111 Q 26.666666 41.77778 35.555557 32.88889 Q 40 28.444445 40 28.444445 L 170.66667 159.11111 L 170.66667 159.11111 Z M 434.66666 483.55554 L 280.8889 329.77777 L 289.77777 321.77777 Q 315.55554 334.22223 344.8889 334.22223 L 345.77777 334.22223 L 464.8889 453.33334 L 434.66666 483.55554 L 434.66666 483.55554 Z M 481.77777 119.111115 L 512 149.33333 L 512 149.33333 L 425.77777 264 Q 421.33334 270.22223 416 275.55554 L 414.22223 277.33334 Q 385.77777 304.8889 344.8889 305.77777 Q 311.1111 305.77777 285.33334 285.33334 L 103.111115 467.55554 L 88 482.66666 L 57.77778 452.44446 L 72.888885 437.33334 L 255.11111 255.11111 Q 234.66667 229.33333 234.66667 195.55556 Q 235.55556 154.66667 264 126.22222 L 264.8889 124.44444 Q 270.22223 119.111115 276.44446 114.666664 L 391.1111 28.444445 L 421.33334 58.666668 L 302.22223 148.44444 Q 298.66666 151.11111 295.1111 154.66667 L 293.33334 155.55556 Q 277.33334 172.44444 277.33334 195.55556 Q 277.33334 217.77777 293.33334 234.66667 L 305.77777 247.11111 Q 321.77777 263.1111 344.8889 263.1111 Q 368 263.1111 384.8889 247.11111 L 385.77777 245.33333 Q 389.33334 241.77777 392 238.22223 L 481.77777 119.111115 L 481.77777 119.111115 Z M 466.66666 104 L 463.1111 107.55556 L 360 210.66667 L 344.8889 225.77777 L 314.66666 195.55556 L 329.77777 180.44444 L 432.8889 77.333336 L 436.44446 73.77778 L 466.66666 104 L 466.66666 104 Z" />
</svg>