<svg xmlns="http://www.w3.org/2000/svg" viewBox="0 0 640 448">
  <path d="M 16 0 L 0 0 L 16 0 L 0 0 L 0 16 L 0 16 L 0 368 L 0 368 L 0 384 L 0 384 L 16 384 L 288 384 L 288 368 L 288 368 L 16 368 L 16 368 L 16 16 L 16 16 L 288 16 L 288 16 L 288 0 L 288 0 L 16 0 L 16 0 Z M 80 64 L 64 64 L 80 64 L 64 64 L 64 80 L 64 80 L 64 304 L 64 304 L 64 320 L 64 320 L 80 320 L 288 320 L 288 304 L 288 304 L 80 304 L 80 304 L 80 80 L 80 80 L 288 80 L 288 80 L 288 64 L 288 64 L 80 64 L 80 64 Z M 104 432 L 96 432 L 104 432 L 96 432 L 96 448 L 96 448 L 104 448 L 288 448 L 288 432 L 288 432 L 104 432 L 104 432 Z M 624 16 L 624 432 L 624 16 L 624 432 L 336 432 L 336 432 L 336 16 L 336 16 L 624 16 L 624 16 Z M 336 0 L 320 0 L 336 0 L 320 0 L 320 16 L 320 16 L 320 432 L 320 432 L 320 448 L 320 448 L 336 448 L 640 448 L 640 432 L 640 432 L 640 16 L 640 16 L 640 0 L 640 0 L 624 0 L 336 0 Z M 480 368 Q 435 367 411 328 Q 389 288 411 248 Q 435 209 480 208 Q 525 209 549 248 Q 571 288 549 328 Q 525 367 480 368 L 480 368 Z M 384 288 Q 384 314 397 336 L 397 336 L 397 336 Q 410 358 432 371 Q 455 384 480 384 Q 505 384 528 371 Q 550 358 563 336 Q 576 314 576 288 Q 576 262 563 240 Q 550 218 528 205 Q 505 192 480 192 Q 455 192 432 205 Q 410 218 397 240 Q 384 262 384 288 L 384 288 Z M 496 96 Q 495 111 480 112 Q 465 111 464 96 Q 465 81 480 80 Q 495 81 496 96 L 496 96 Z M 480 64 Q 466 64 457 73 L 457 73 L 457 73 Q 448 82 448 96 Q 448 110 457 119 Q 466 128 480 128 Q 494 128 503 119 Q 512 110 512 96 Q 512 82 503 73 Q 494 64 480 64 L 480 64 Z M 480 304 Q 465 303 464 288 Q 465 273 480 272 Q 495 273 496 288 Q 495 303 480 304 L 480 304 Z M 448 288 Q 448 302 457 311 L 457 311 L 457 311 Q 466 320 480 320 Q 494 320 503 311 Q 512 302 512 288 Q 512 274 503 265 Q 494 256 480 256 Q 466 256 457 265 Q 448 274 448 288 L 448 288 Z" />
</svg>