<svg xmlns="http://www.w3.org/2000/svg" viewBox="0 0 448 448">
  <path d="M 16 16 L 16 432 L 16 16 L 16 432 L 432 432 L 432 432 L 432 16 L 432 16 L 16 16 L 16 16 Z M 0 0 L 16 0 L 0 0 L 448 0 L 448 16 L 448 16 L 448 432 L 448 432 L 448 448 L 448 448 L 432 448 L 0 448 L 0 432 L 0 432 L 0 16 L 0 16 L 0 0 L 0 0 Z M 230 138 L 350 258 L 230 138 L 350 258 L 355 264 L 355 264 L 344 275 L 344 275 L 338 270 L 338 270 L 224 155 L 224 155 L 110 270 L 110 270 L 104 275 L 104 275 L 93 264 L 93 264 L 98 258 L 98 258 L 218 138 L 218 138 L 224 133 L 224 133 L 230 138 L 230 138 Z" />
</svg>