<svg xmlns="http://www.w3.org/2000/svg" viewBox="0 0 576 448">
  <path d="M 224 0 L 216 0 L 224 0 L 216 0 L 216 8 L 216 8 L 216 248 L 216 248 L 216 256 L 216 256 L 232 256 L 232 256 L 232 248 L 232 248 L 232 16 L 232 16 L 344 16 L 344 16 L 344 248 L 344 248 L 344 256 L 344 256 L 360 256 L 360 256 L 360 248 L 360 248 L 360 8 L 360 8 L 360 0 L 360 0 L 352 0 L 224 0 Z M 192 41 Q 121 63 77 121 L 77 121 L 77 121 Q 33 179 32 256 L 32 288 L 32 288 L 48 288 L 48 288 L 48 256 L 48 256 Q 49 185 89 132 Q 128 79 192 58 L 192 41 L 192 41 Z M 384 58 Q 447 79 487 132 L 487 132 L 487 132 Q 526 184 528 254 L 528 288 L 528 288 L 544 288 L 544 288 L 544 256 L 544 256 L 544 254 L 544 254 Q 542 177 498 120 Q 454 63 384 41 L 384 58 L 384 58 Z M 16 368 L 16 336 L 16 368 L 16 336 L 560 336 L 560 336 L 560 368 L 560 368 Q 557 370 552 374 Q 537 384 504 397 Q 471 411 418 421 Q 364 431 288 432 Q 212 431 158 421 Q 105 411 72 397 Q 39 384 24 374 Q 19 370 16 368 L 16 368 Z M 576 376 L 576 336 L 576 376 L 576 336 L 576 320 L 576 320 L 560 320 L 0 320 L 0 336 L 0 336 L 0 376 L 0 376 Q 0 377 28 395 Q 57 412 121 429 Q 184 447 288 448 Q 392 447 455 429 Q 519 412 548 395 Q 576 377 576 376 L 576 376 Z" />
</svg>