<svg xmlns="http://www.w3.org/2000/svg" viewBox="0 0 640 448">
  <path d="M 16 432 L 496 432 L 16 432 L 496 432 L 496 432 L 496 432 L 496 381 L 496 381 L 256 28 L 256 28 L 16 381 L 16 381 L 16 432 L 16 432 Z M 457 448 L 16 448 L 457 448 L 0 448 L 0 432 L 0 432 L 0 376 L 0 376 L 246 14 L 246 14 L 256 0 L 256 0 L 266 14 L 266 14 L 413 230 L 413 230 L 470 143 L 470 143 L 480 128 L 480 128 L 490 143 L 490 143 L 640 370 L 640 370 L 640 432 L 640 432 L 640 448 L 640 448 L 624 448 L 457 448 Z M 512 432 L 624 432 L 512 432 L 624 432 L 624 375 L 624 375 L 480 157 L 480 157 L 422 244 L 422 244 L 512 376 L 512 376 L 512 432 L 512 432 Z" />
</svg>