<svg xmlns="http://www.w3.org/2000/svg" viewBox="0 0 480 512">
  <path d="M 248 0 L 232 0 L 248 0 L 232 0 L 232 32 L 232 32 Q 167 37 124 82 Q 82 126 80 192 L 80 285 L 80 285 L 18 363 L 18 363 L 16 365 L 16 365 L 16 368 L 16 368 L 16 408 L 16 408 L 16 416 L 16 416 L 24 416 L 464 416 L 464 408 L 464 408 L 464 368 L 464 368 L 464 365 L 464 365 L 462 363 L 462 363 L 400 285 L 400 285 L 400 192 L 400 192 Q 398 126 356 82 Q 313 37 248 32 L 248 0 L 248 0 Z M 96 192 Q 98 131 138 90 L 138 90 L 138 90 Q 179 50 240 48 Q 301 50 342 90 Q 382 131 384 192 L 384 288 L 384 288 L 384 291 L 384 291 L 386 293 L 386 293 L 448 371 L 448 371 L 448 400 L 448 400 L 32 400 L 32 400 L 32 371 L 32 371 L 94 293 L 94 293 L 96 291 L 96 291 L 96 288 L 96 288 L 96 192 L 96 192 Z M 192 448 L 176 448 L 192 448 L 176 448 Q 176 474 195 493 Q 214 512 240 512 Q 266 512 285 493 Q 304 474 304 448 L 288 448 L 288 448 Q 288 468 274 482 Q 260 496 240 496 Q 220 496 206 482 Q 192 468 192 448 L 192 448 Z M 16 176 Q 16 130 34 90 L 34 90 L 34 90 Q 52 51 84 22 L 74 10 L 74 10 Q 39 41 20 84 Q 0 126 0 176 L 16 176 L 16 176 Z M 396 22 Q 428 51 446 90 L 446 90 L 446 90 Q 464 130 464 176 L 480 176 L 480 176 Q 480 126 460 84 Q 441 41 407 10 L 396 22 L 396 22 Z" />
</svg>