<svg xmlns="http://www.w3.org/2000/svg" viewBox="0 0 512 448">
  <path d="M 8 0 L 0 0 L 8 0 L 0 0 L 0 8 L 0 8 L 0 440 L 0 440 L 0 448 L 0 448 L 16 448 L 16 448 L 16 440 L 16 440 L 16 16 L 16 16 L 101 16 L 101 16 L 154 70 L 154 70 L 155 71 L 155 71 Q 127 105 128 148 Q 129 190 161 223 L 179 242 L 179 242 L 162 258 L 162 258 L 157 264 L 157 264 L 168 275 L 168 275 L 174 270 L 174 270 L 366 78 L 366 78 L 371 72 L 371 72 L 360 61 L 360 61 L 354 66 L 354 66 L 338 83 L 338 83 L 319 65 L 319 65 Q 286 33 244 32 Q 201 31 167 59 L 166 58 L 166 58 L 110 2 L 110 2 L 107 0 L 107 0 L 104 0 L 8 0 Z M 326 95 L 191 230 L 326 95 L 191 230 L 172 212 L 172 212 Q 144 182 144 144 Q 144 106 172 76 Q 202 48 240 48 Q 278 48 308 76 L 326 94 L 326 95 Z M 416 176 Q 415 161 400 160 Q 385 161 384 176 Q 385 191 400 192 Q 415 191 416 176 L 416 176 Z M 336 256 Q 351 255 352 240 Q 351 225 336 224 Q 321 225 320 240 Q 321 255 336 256 L 336 256 Z M 288 304 Q 287 289 272 288 Q 257 289 256 304 Q 257 319 272 320 Q 287 319 288 304 L 288 304 Z M 368 352 Q 383 351 384 336 Q 383 321 368 320 Q 353 321 352 336 Q 353 351 368 352 L 368 352 Z M 304 416 Q 319 415 320 400 Q 319 385 304 384 Q 289 385 288 400 Q 289 415 304 416 L 304 416 Z M 432 288 Q 447 287 448 272 Q 447 257 432 256 Q 417 257 416 272 Q 417 287 432 288 L 432 288 Z M 512 208 Q 511 193 496 192 Q 481 193 480 208 Q 481 223 496 224 Q 511 223 512 208 L 512 208 Z" />
</svg>