<svg xmlns="http://www.w3.org/2000/svg" viewBox="0 0 512 512">
  <path d="M 400 128 L 400 144 L 400 128 L 400 144 L 416 144 L 416 144 Q 450 145 473 167 Q 495 190 496 224 L 496 304 L 496 304 L 416 304 L 16 304 L 16 224 L 16 224 Q 16 197 31 177 Q 46 157 69 149 L 80 145 L 80 145 L 80 134 L 80 134 L 80 112 L 80 112 Q 81 71 108 44 Q 135 17 176 16 Q 227 18 255 57 L 263 69 L 263 69 L 276 61 L 276 61 Q 296 48 320 48 Q 354 49 377 71 Q 399 94 400 128 L 400 128 Z M 0 320 L 16 320 L 0 320 L 512 320 L 512 304 L 512 304 L 512 224 L 512 224 Q 511 183 484 156 Q 457 129 416 128 Q 415 87 388 60 Q 361 33 320 32 Q 291 32 268 48 Q 235 2 176 0 Q 128 1 97 33 Q 65 64 64 112 L 64 134 L 64 134 Q 36 144 18 168 Q 1 192 0 224 L 0 304 L 0 304 L 0 320 L 0 320 Z M 128 400 Q 113 399 112 384 Q 113 369 128 368 Q 143 369 144 384 Q 143 399 128 400 L 128 400 Z M 96 384 Q 96 398 105 407 L 105 407 L 105 407 Q 114 416 128 416 Q 142 416 151 407 Q 160 398 160 384 Q 160 370 151 361 Q 142 352 128 352 Q 114 352 105 361 Q 96 370 96 384 L 96 384 Z M 64 496 Q 49 495 48 480 Q 49 465 64 464 Q 79 465 80 480 Q 79 495 64 496 L 64 496 Z M 32 480 Q 32 494 41 503 L 41 503 L 41 503 Q 50 512 64 512 Q 78 512 87 503 Q 96 494 96 480 Q 96 466 87 457 Q 78 448 64 448 Q 50 448 41 457 Q 32 466 32 480 L 32 480 Z M 272 384 Q 271 399 256 400 Q 241 399 240 384 Q 241 369 256 368 Q 271 369 272 384 L 272 384 Z M 256 352 Q 242 352 233 361 L 233 361 L 233 361 Q 224 370 224 384 Q 224 398 233 407 Q 242 416 256 416 Q 270 416 279 407 Q 288 398 288 384 Q 288 370 279 361 Q 270 352 256 352 L 256 352 Z M 192 496 Q 177 495 176 480 Q 177 465 192 464 Q 207 465 208 480 Q 207 495 192 496 L 192 496 Z M 160 480 Q 160 494 169 503 L 169 503 L 169 503 Q 178 512 192 512 Q 206 512 215 503 Q 224 494 224 480 Q 224 466 215 457 Q 206 448 192 448 Q 178 448 169 457 Q 160 466 160 480 L 160 480 Z M 400 384 Q 399 399 384 400 Q 369 399 368 384 Q 369 369 384 368 Q 399 369 400 384 L 400 384 Z M 384 352 Q 370 352 361 361 L 361 361 L 361 361 Q 352 370 352 384 Q 352 398 361 407 Q 370 416 384 416 Q 398 416 407 407 Q 416 398 416 384 Q 416 370 407 361 Q 398 352 384 352 L 384 352 Z M 320 496 Q 305 495 304 480 Q 305 465 320 464 Q 335 465 336 480 Q 335 495 320 496 L 320 496 Z M 288 480 Q 288 494 297 503 L 297 503 L 297 503 Q 306 512 320 512 Q 334 512 343 503 Q 352 494 352 480 Q 352 466 343 457 Q 334 448 320 448 Q 306 448 297 457 Q 288 466 288 480 L 288 480 Z" />
</svg>