<svg xmlns="http://www.w3.org/2000/svg" viewBox="0 0 512 509">
  <path d="M 16 424 L 16 493 L 16 424 L 16 493 L 108 493 L 108 493 L 250 312 L 250 312 L 256 304 L 256 304 L 262 312 L 262 312 L 404 493 L 404 493 L 496 493 L 496 493 L 496 424 L 496 424 L 256 140 L 256 140 L 16 424 L 16 424 Z M 128 493 L 256 493 L 128 493 L 384 493 L 256 330 L 256 330 L 128 493 L 128 493 Z M 2 416 L 246 128 L 2 416 L 246 128 L 146 10 L 146 10 L 158 0 L 158 0 L 256 116 L 256 116 L 354 0 L 354 0 L 366 10 L 366 10 L 267 128 L 267 128 L 510 416 L 510 416 L 512 418 L 512 418 L 512 421 L 512 421 L 512 501 L 512 501 L 512 509 L 512 509 L 504 509 L 0 509 L 0 501 L 0 501 L 0 421 L 0 421 L 0 419 L 0 419 L 2 416 L 2 416 Z" />
</svg>