<svg xmlns="http://www.w3.org/2000/svg" viewBox="0 0 512 448">
  <path d="M 72 344 L 76 335 L 72 344 L 76 335 L 68 328 L 68 328 Q 17 276 16 208 Q 18 128 85 73 Q 152 18 256 16 Q 360 18 427 73 Q 494 128 496 208 Q 494 288 427 343 Q 360 398 256 400 Q 211 400 171 388 L 166 386 L 166 386 L 162 388 L 162 388 L 42 423 L 42 423 L 72 344 L 72 344 Z M 16 448 L 35 442 L 16 448 L 35 442 L 166 403 L 166 403 Q 209 416 256 416 Q 328 415 385 388 Q 443 360 477 313 Q 511 266 512 208 Q 511 150 477 103 Q 443 56 385 28 Q 328 1 256 0 Q 184 1 127 28 Q 69 56 35 103 Q 1 150 0 208 Q 2 284 57 339 L 23 429 L 23 429 L 16 448 L 16 448 Z M 224 96 L 216 96 L 224 96 L 216 96 L 216 104 L 216 104 L 216 168 L 216 168 L 152 168 L 144 168 L 144 176 L 144 176 L 144 240 L 144 240 L 144 248 L 144 248 L 152 248 L 216 248 L 216 312 L 216 312 L 216 320 L 216 320 L 224 320 L 296 320 L 296 312 L 296 312 L 296 248 L 296 248 L 360 248 L 368 248 L 368 240 L 368 240 L 368 176 L 368 176 L 368 168 L 368 168 L 360 168 L 296 168 L 296 104 L 296 104 L 296 96 L 296 96 L 288 96 L 224 96 Z M 232 176 L 232 112 L 232 176 L 232 112 L 280 112 L 280 112 L 280 176 L 280 176 L 280 184 L 280 184 L 288 184 L 352 184 L 352 232 L 352 232 L 288 232 L 280 232 L 280 240 L 280 240 L 280 304 L 280 304 L 232 304 L 232 304 L 232 240 L 232 240 L 232 232 L 232 232 L 224 232 L 160 232 L 160 184 L 160 184 L 224 184 L 232 184 L 232 176 L 232 176 Z" />
</svg>