<svg xmlns="http://www.w3.org/2000/svg" viewBox="0 0 448 512">
  <path d="M 16 16 L 16 432 L 16 16 L 16 432 L 432 432 L 432 432 L 432 16 L 432 16 L 16 16 L 16 16 Z M 0 0 L 16 0 L 0 0 L 448 0 L 448 16 L 448 16 L 448 432 L 448 432 L 448 448 L 448 448 L 432 448 L 363 448 L 422 506 L 422 506 L 427 512 L 427 512 L 405 512 L 405 512 L 341 448 L 341 448 L 107 448 L 107 448 L 43 512 L 43 512 L 21 512 L 21 512 L 26 506 L 26 506 L 85 448 L 85 448 L 16 448 L 0 448 L 0 432 L 0 432 L 0 16 L 0 16 L 0 0 L 0 0 Z M 224 272 Q 251 273 266 296 Q 278 320 266 344 Q 251 367 224 368 Q 197 367 182 344 Q 170 320 182 296 Q 197 273 224 272 L 224 272 Z M 256 320 Q 256 306 247 297 L 247 297 L 247 297 Q 238 288 224 288 Q 210 288 201 297 Q 192 306 192 320 Q 192 334 201 343 Q 210 352 224 352 Q 238 352 247 343 Q 256 334 256 320 L 256 320 Z M 368 80 L 80 80 L 368 80 L 80 80 L 80 208 L 80 208 L 368 208 L 368 208 L 368 80 L 368 80 Z M 80 64 L 368 64 L 80 64 L 384 64 L 384 80 L 384 80 L 384 208 L 384 208 L 384 224 L 384 224 L 368 224 L 64 224 L 64 208 L 64 208 L 64 80 L 64 80 L 64 64 L 64 64 L 80 64 L 80 64 Z" />
</svg>