<svg xmlns="http://www.w3.org/2000/svg" viewBox="0 0 484 509">
  <path d="M 242 0 L 254 4 L 242 0 L 254 4 L 461 84 L 461 84 L 480 92 L 480 92 L 481 112 L 481 112 Q 484 150 476 203 Q 468 255 444 312 Q 420 369 374 420 Q 328 471 255 503 L 242 509 L 242 509 L 229 503 L 229 503 Q 156 471 110 420 Q 64 369 40 312 Q 16 255 8 203 Q 0 150 3 112 L 4 92 L 4 92 L 23 84 L 23 84 L 231 4 L 231 4 L 242 0 L 242 0 Z M 130 215 Q 130 240 148 259 L 231 341 L 231 341 L 242 353 L 242 353 L 253 341 L 253 341 L 336 259 L 336 259 Q 354 240 354 215 Q 353 189 336 172 Q 319 155 293 154 Q 267 154 249 172 L 242 179 L 242 179 L 235 172 L 235 172 Q 216 154 191 154 Q 165 155 148 172 Q 131 189 130 215 L 130 215 Z" />
</svg>