<svg xmlns="http://www.w3.org/2000/svg" viewBox="0 0 528 448">
  <path d="M 374 0 L 357 0 L 374 0 L 357 0 L 378 64 L 378 64 L 150 64 L 150 64 L 171 0 L 171 0 L 154 0 L 154 0 L 133 64 L 133 64 L 88 64 L 80 64 L 80 80 L 80 80 L 88 80 L 128 80 L 90 192 L 90 192 L 48 192 L 40 192 L 40 208 L 40 208 L 48 208 L 85 208 L 48 320 L 48 320 L 8 320 L 0 320 L 0 336 L 0 336 L 8 336 L 42 336 L 5 448 L 5 448 L 22 448 L 22 448 L 59 336 L 59 336 L 469 336 L 469 336 L 506 448 L 506 448 L 523 448 L 523 448 L 486 336 L 486 336 L 520 336 L 528 336 L 528 320 L 528 320 L 520 320 L 480 320 L 443 208 L 443 208 L 480 208 L 488 208 L 488 192 L 488 192 L 480 192 L 438 192 L 400 80 L 400 80 L 440 80 L 448 80 L 448 64 L 448 64 L 440 64 L 395 64 L 374 0 L 374 0 Z M 384 80 L 421 192 L 384 80 L 421 192 L 107 192 L 107 192 L 144 80 L 144 80 L 384 80 L 384 80 Z M 426 208 L 464 320 L 426 208 L 464 320 L 64 320 L 64 320 L 102 208 L 102 208 L 426 208 L 426 208 Z" />
</svg>