<svg xmlns="http://www.w3.org/2000/svg" viewBox="0 0 512 512">
  <path d="M 0 28.444445 L 21.333334 28.444445 L 320 28.444445 L 341.33334 28.444445 L 341.33334 71.111115 L 320 71.111115 L 312.8889 71.111115 L 312.8889 135.11111 L 312.8889 144 L 306.66666 150.22223 L 200.88889 256 L 240 295.1111 Q 227.55556 322.66666 227.55556 355.55554 Q 228.44444 395.55554 246.22223 428.44446 Q 264 462.22223 294.22223 483.55554 L 21.333334 483.55554 L 0 483.55554 L 0 440.8889 L 21.333334 440.8889 L 28.444445 440.8889 L 28.444445 376.8889 L 28.444445 368 L 34.666668 361.77777 L 140.44444 256 L 34.666668 150.22223 L 28.444445 144 L 28.444445 135.11111 L 28.444445 71.111115 L 21.333334 71.111115 L 0 71.111115 L 0 28.444445 L 0 28.444445 Z M 71.111115 71.111115 L 71.111115 126.22222 L 87.111115 142.22223 L 254.22223 142.22223 L 270.22223 126.22222 L 270.22223 71.111115 L 71.111115 71.111115 L 71.111115 71.111115 Z M 256 355.55554 Q 256 320.8889 272.8889 291.55554 L 272.8889 291.55554 Q 289.77777 262.22223 320 244.44444 Q 350.22223 227.55556 384 227.55556 Q 417.77777 227.55556 448 244.44444 Q 478.22223 262.22223 495.1111 291.55554 Q 512 320.8889 512 355.55554 Q 512 390.22223 495.1111 419.55554 Q 478.22223 448.8889 448 466.66666 Q 417.77777 483.55554 384 483.55554 Q 350.22223 483.55554 320 466.66666 Q 289.77777 448.8889 272.8889 419.55554 Q 256 390.22223 256 355.55554 L 256 355.55554 Z M 398.22223 284.44446 L 369.77777 284.44446 L 369.77777 298.66666 L 369.77777 355.55554 L 369.77777 369.77777 L 384 369.77777 L 426.66666 369.77777 L 440.8889 369.77777 L 440.8889 341.33334 L 426.66666 341.33334 L 398.22223 341.33334 L 398.22223 298.66666 L 398.22223 284.44446 L 398.22223 284.44446 Z" />
</svg>