<svg xmlns="http://www.w3.org/2000/svg" viewBox="0 0 448 448">
  <path d="M 16 16 L 16 432 L 16 16 L 16 432 L 432 432 L 432 432 L 432 16 L 432 16 L 16 16 L 16 16 Z M 0 0 L 16 0 L 0 0 L 448 0 L 448 16 L 448 16 L 448 432 L 448 432 L 448 448 L 448 448 L 432 448 L 0 448 L 0 432 L 0 432 L 0 16 L 0 16 L 0 0 L 0 0 Z M 175 92 L 215 164 L 175 92 L 215 164 L 218 170 L 218 170 L 213 174 L 213 174 L 176 204 L 176 204 Q 201 247 245 272 L 274 235 L 274 235 L 278 230 L 278 230 L 284 233 L 284 233 L 356 273 L 356 273 L 361 276 L 361 276 L 360 282 L 360 282 L 344 354 L 344 354 L 342 360 L 342 360 L 336 360 L 320 360 Q 255 359 203 328 Q 151 297 120 245 Q 89 193 88 128 Q 88 128 88 128 Q 88 128 88 128 L 88 112 L 88 112 L 88 106 L 88 106 L 94 104 L 94 104 L 166 88 L 166 88 L 172 87 L 172 87 L 175 92 L 175 92 Z M 104 128 Q 104 128 104 128 L 104 128 L 104 128 Q 104 128 104 128 Q 106 220 167 281 Q 228 342 320 344 L 330 344 L 330 344 L 343 284 L 343 284 L 282 250 L 282 250 L 253 287 L 253 287 L 249 292 L 249 292 L 243 289 L 243 289 Q 188 260 159 205 L 156 200 L 156 200 L 161 195 L 161 195 L 198 166 L 198 166 L 164 105 L 164 105 L 104 118 L 104 118 L 104 128 L 104 128 Z" />
</svg>