<svg xmlns="http://www.w3.org/2000/svg" viewBox="0 0 562 502">
  <path d="M 149 0 L 153 0 L 149 0 L 163 0 L 162 9 L 162 9 Q 156 60 186 101 Q 215 142 281 144 Q 347 142 376 101 Q 406 60 400 9 L 399 0 L 399 0 L 408 0 L 413 0 L 415 3 L 415 3 Q 448 46 449 104 Q 449 135 438 163 Q 465 168 490 183 Q 539 212 560 262 L 562 266 L 562 266 L 560 269 L 560 269 L 560 270 L 560 270 L 555 278 L 555 278 L 548 272 L 548 272 Q 506 242 456 248 Q 406 253 371 308 Q 341 366 361 412 Q 382 458 429 479 L 437 482 L 437 482 L 432 490 L 432 490 L 432 491 L 432 491 L 430 495 L 430 495 L 426 495 L 426 495 Q 372 502 322 474 Q 298 460 281 441 Q 264 460 240 474 Q 190 502 136 495 L 132 495 L 132 495 L 130 491 L 130 491 L 129 490 L 129 490 L 125 482 L 125 482 L 133 479 L 133 479 Q 180 458 201 412 Q 221 366 191 308 Q 156 252 106 247 Q 56 242 14 272 L 7 278 L 7 278 L 3 270 L 3 270 L 2 269 L 2 269 L 0 266 L 0 266 L 2 262 L 2 262 Q 23 212 72 183 Q 97 168 124 163 Q 113 135 113 104 Q 114 46 147 3 L 149 0 L 149 0 Z M 145 35 Q 129 67 129 104 Q 129 137 142 166 L 147 176 L 147 176 L 136 177 L 136 177 Q 107 181 80 196 Q 48 215 29 245 Q 66 227 108 232 Q 166 238 205 300 Q 239 365 216 418 Q 199 456 164 480 Q 200 478 232 460 Q 258 445 275 423 L 281 415 L 281 415 L 287 423 L 287 423 Q 305 445 330 460 Q 362 478 398 480 Q 363 456 346 418 Q 323 365 357 300 Q 396 238 454 232 Q 495 227 533 245 Q 514 215 482 196 Q 455 181 426 177 L 415 176 L 415 176 L 420 166 L 420 166 Q 433 137 433 104 Q 433 67 417 35 Q 414 77 389 111 Q 354 157 281 160 Q 208 157 174 111 Q 148 77 145 35 L 145 35 Z M 148 424 Q 85 371 74 287 Q 82 285 90 285 Q 100 363 158 411 Q 153 418 148 424 L 148 424 Z M 281 72 Q 249 72 220 82 Q 218 80 217 77 Q 213 73 211 68 Q 244 56 281 56 Q 318 56 352 68 Q 349 73 345 77 Q 344 80 342 82 Q 313 72 281 72 L 281 72 Z M 472 285 Q 480 285 488 287 Q 477 371 415 424 Q 409 418 404 411 Q 462 363 472 285 L 472 285 Z M 281 224 Q 304 225 316 244 Q 326 264 316 284 Q 304 303 281 304 Q 258 303 246 284 Q 236 264 246 244 Q 258 225 281 224 L 281 224 Z M 305 264 Q 303 242 281 240 Q 259 242 257 264 Q 259 286 281 288 Q 303 286 305 264 L 305 264 Z" />
</svg>