<svg xmlns="http://www.w3.org/2000/svg" viewBox="0 0 519 511">
  <path d="M 373 10 L 378 4 L 373 10 L 378 4 L 373 0 L 373 0 L 369 4 L 369 4 L 373 10 L 373 10 Z M 509 147 Q 517 153 515 152 Q 515 152 515 152 Q 515 152 515 152 Q 515 152 515 152 Q 515 152 515 152 Q 515 152 515 152 Q 515 152 515 152 L 515 152 L 515 152 L 515 152 L 515 152 Q 515 152 515 153 Q 514 153 514 154 Q 514 154 514 154 Q 512 155 510 158 Q 505 164 496 171 Q 478 188 446 191 Q 418 191 400 180 Q 383 170 368 153 Q 368 153 368 153 Q 368 153 368 153 Q 368 153 368 153 L 367 152 L 367 152 L 367 152 L 367 152 Q 350 136 339 119 Q 328 101 328 73 Q 331 41 349 23 Q 356 14 362 9 Q 363 8 363 8 Q 365 6 367 5 Q 367 5 368 4 Q 368 4 368 4 L 369 4 L 369 4 L 369 4 L 369 4 Q 369 4 369 4 Q 369 4 369 4 Q 369 4 369 4 L 373 10 L 373 10 Q 379 2 378 4 Q 378 4 378 4 Q 378 4 378 4 Q 378 4 378 4 Q 378 4 378 4 Q 378 4 378 4 Q 378 4 378 4 L 378 4 L 378 4 L 379 4 L 379 4 Q 379 4 380 5 Q 380 5 380 5 Q 381 6 384 9 Q 390 14 398 24 Q 415 44 417 80 Q 417 95 415 104 Q 424 102 439 102 Q 475 104 495 122 Q 505 130 510 136 Q 512 138 514 140 Q 514 140 514 140 Q 515 141 515 142 L 515 142 L 515 142 L 515 142 L 515 142 Q 515 142 515 142 Q 515 142 515 142 Q 515 142 515 142 L 509 147 L 509 147 Z M 509 147 L 515 152 L 509 147 L 515 152 L 519 147 L 519 147 L 515 142 L 515 142 L 509 147 L 509 147 Z M 396 111 Q 396 111 396 111 L 396 111 L 396 111 Q 396 111 396 111 Q 396 111 396 111 Q 396 111 396 111 Q 396 111 396 111 Q 396 111 396 111 L 396 112 L 396 112 L 396 112 L 396 112 L 396 112 L 396 112 Q 396 112 396 111 Q 397 110 398 107 Q 401 101 401 80 Q 399 51 385 34 Q 378 25 374 21 L 373 21 L 373 21 L 373 21 L 373 21 Q 368 25 361 33 Q 346 49 344 73 Q 344 98 353 111 Q 361 125 378 141 Q 395 158 408 166 Q 421 175 446 175 Q 470 173 486 159 Q 494 152 498 147 L 499 147 L 499 147 L 498 147 L 498 147 Q 494 142 485 135 Q 469 120 439 118 Q 418 118 412 121 Q 409 122 408 123 Q 407 123 407 123 L 408 123 L 408 123 L 408 123 L 408 123 L 408 123 L 408 123 Q 408 123 408 123 Q 408 123 408 123 Q 408 123 408 123 Q 408 123 408 123 Q 408 123 408 123 Q 408 123 408 123 L 402 117 L 402 117 Q 395 110 396 111 L 396 111 Z M 296 151 Q 295 128 276 116 Q 256 106 236 116 Q 217 128 216 151 Q 217 174 236 186 Q 256 196 276 186 Q 295 174 296 151 L 296 151 Z M 160 175 Q 159 152 140 140 Q 120 130 100 140 Q 81 152 80 175 Q 81 198 100 210 Q 120 220 140 210 Q 159 198 160 175 L 160 175 Z M 136 311 Q 135 288 116 276 Q 96 266 76 276 Q 57 288 56 311 Q 57 334 76 346 Q 96 356 116 346 Q 135 334 136 311 L 136 311 Z M 104 455 Q 103 432 84 420 Q 64 410 44 420 Q 25 432 24 455 Q 25 478 44 490 Q 64 500 84 490 Q 103 478 104 455 L 104 455 Z M 248 423 Q 247 400 228 388 Q 208 378 188 388 Q 169 400 168 423 Q 169 446 188 458 Q 208 468 228 458 Q 247 446 248 423 L 248 423 Z M 304 399 Q 305 422 324 434 Q 344 444 364 434 Q 383 422 384 399 Q 383 376 364 364 Q 344 354 324 364 Q 305 376 304 399 L 304 399 Z M 272 287 Q 271 264 252 252 Q 232 242 212 252 Q 193 264 192 287 Q 193 310 212 322 Q 232 332 252 322 Q 271 310 272 287 L 272 287 Z M 408 263 Q 407 240 388 228 Q 368 218 348 228 Q 329 240 328 263 Q 329 286 348 298 Q 368 308 388 298 Q 407 286 408 263 L 408 263 Z M 256 95 Q 288 96 304 123 Q 320 151 304 179 Q 288 206 256 207 Q 224 206 208 179 Q 192 151 208 123 Q 224 96 256 95 L 256 95 Z M 64 175 Q 65 143 92 127 Q 120 111 148 127 Q 175 143 176 175 Q 175 207 148 223 Q 120 239 92 223 Q 65 207 64 175 L 64 175 Z M 96 255 Q 128 256 144 283 Q 160 311 144 339 Q 128 366 96 367 Q 64 366 48 339 Q 32 311 48 283 Q 64 256 96 255 L 96 255 Z M 64 399 Q 96 400 112 427 Q 128 455 112 483 Q 96 510 64 511 Q 32 510 16 483 Q 0 455 16 427 Q 32 400 64 399 L 64 399 Z M 208 367 Q 240 368 256 395 Q 272 423 256 451 Q 240 478 208 479 Q 176 478 160 451 Q 144 423 160 395 Q 176 368 208 367 L 208 367 Z M 288 399 Q 289 367 316 351 Q 344 335 372 351 Q 399 367 400 399 Q 399 431 372 447 Q 344 463 316 447 Q 289 431 288 399 L 288 399 Z M 232 231 Q 264 232 280 259 Q 296 287 280 315 Q 264 342 232 343 Q 200 342 184 315 Q 168 287 184 259 Q 200 232 232 231 L 232 231 Z M 312 263 Q 313 231 340 215 Q 368 199 396 215 Q 423 231 424 263 Q 423 295 396 311 Q 368 327 340 311 Q 313 295 312 263 L 312 263 Z" />
</svg>