<svg xmlns="http://www.w3.org/2000/svg" viewBox="0 0 640 512">
  <path d="M 136 0 Q 78 1 40 40 L 40 40 L 40 40 Q 1 78 0 136 L 0 168 L 0 168 L 0 204 L 0 204 L 34 190 L 34 190 L 75 172 L 75 172 L 87 185 L 87 185 L 94 192 L 94 192 L 104 192 L 118 192 L 96 512 L 96 512 L 224 512 L 224 512 L 202 192 L 202 192 L 248 192 L 272 192 L 272 168 L 272 168 L 272 160 L 272 160 L 304 160 L 304 160 L 304 192 L 304 192 L 352 192 L 352 192 L 352 160 L 352 160 Q 352 160 352 160 Q 352 160 352 160 L 352 136 L 352 136 L 352 56 L 352 56 L 352 32 L 352 32 Q 352 32 352 32 Q 352 32 352 32 L 352 0 L 352 0 L 304 0 L 304 0 L 304 32 L 304 32 L 272 32 L 272 32 L 272 24 L 272 24 L 272 0 L 272 0 L 248 0 L 136 0 Z M 304 112 L 248 112 L 304 112 L 224 112 L 224 136 L 224 136 L 224 144 L 224 144 L 114 144 L 114 144 L 97 127 L 97 127 L 86 116 L 86 116 L 71 122 L 71 122 L 48 132 L 48 132 Q 51 96 75 72 Q 100 49 136 48 L 224 48 L 224 48 L 224 56 L 224 56 L 224 80 L 224 80 L 248 80 L 304 80 L 304 112 L 304 112 Z M 400 320 L 592 320 L 400 320 L 592 320 L 592 464 L 592 464 L 480 464 L 480 464 L 480 416 L 480 416 L 480 400 L 480 400 L 448 400 L 448 400 L 448 416 L 448 416 L 448 464 L 448 464 L 400 464 L 400 464 L 400 320 L 400 320 Z M 448 192 L 352 256 L 448 192 L 352 256 L 352 464 L 352 464 L 352 512 L 352 512 L 400 512 L 640 512 L 640 464 L 640 464 L 640 256 L 640 256 L 544 192 L 544 192 L 544 0 L 544 0 L 448 0 L 448 0 L 448 192 L 448 192 Z M 480 48 Q 481 33 496 32 Q 511 33 512 48 Q 511 63 496 64 Q 481 63 480 48 L 480 48 Z" />
</svg>