<svg xmlns="http://www.w3.org/2000/svg" viewBox="0 0 576 512">
  <path d="M 48 16 L 48 416 L 48 16 L 48 416 L 304 416 L 304 416 L 304 16 L 304 16 L 48 16 L 48 16 Z M 48 432 L 48 496 L 48 432 L 48 496 L 304 496 L 304 496 L 304 432 L 304 432 L 48 432 L 48 432 Z M 32 496 L 32 16 L 32 496 L 32 16 L 32 0 L 32 0 L 48 0 L 320 0 L 320 16 L 320 16 L 320 272 L 320 272 L 328 272 L 328 272 Q 359 273 379 293 Q 399 313 400 344 L 400 388 L 400 388 Q 400 407 413 419 Q 425 432 444 432 Q 463 432 475 419 Q 488 407 488 388 L 488 256 L 488 256 Q 457 252 437 230 Q 417 208 416 176 L 416 136 L 416 136 L 416 128 L 416 128 L 424 128 L 448 128 L 448 72 L 448 72 L 448 64 L 448 64 L 464 64 L 464 64 L 464 72 L 464 72 L 464 128 L 464 128 L 528 128 L 528 128 L 528 72 L 528 72 L 528 64 L 528 64 L 544 64 L 544 64 L 544 72 L 544 72 L 544 128 L 544 128 L 568 128 L 576 128 L 576 136 L 576 136 L 576 176 L 576 176 Q 575 208 555 230 Q 535 252 504 256 L 504 388 L 504 388 Q 503 413 486 430 Q 469 447 444 448 Q 419 447 402 430 Q 385 413 384 388 L 384 344 L 384 344 Q 383 320 368 304 Q 352 289 328 288 L 320 288 L 320 288 L 320 496 L 320 496 L 352 496 L 352 496 L 352 512 L 352 512 L 320 512 L 0 512 L 0 496 L 0 496 L 32 496 L 32 496 Z M 544 144 L 528 144 L 544 144 L 432 144 L 432 176 L 432 176 Q 433 203 451 221 Q 469 239 496 240 Q 523 239 541 221 Q 559 203 560 176 L 560 144 L 560 144 L 544 144 L 544 144 Z M 203 110 L 198 117 L 203 110 L 198 117 L 136 200 L 136 200 L 232 200 L 248 200 L 238 213 L 238 213 L 166 309 L 166 309 L 162 315 L 162 315 L 149 306 L 149 306 L 154 299 L 154 299 L 216 216 L 216 216 L 120 216 L 104 216 L 114 203 L 114 203 L 186 107 L 186 107 L 190 101 L 190 101 L 203 110 L 203 110 Z" />
</svg>