<svg xmlns="http://www.w3.org/2000/svg" viewBox="0 0 512 384">
  <path d="M 120 0 L 128 0 L 120 0 L 128 0 L 128 16 L 128 16 L 120 16 L 16 16 L 16 120 L 16 120 L 16 128 L 16 128 L 0 128 L 0 128 L 0 120 L 0 120 L 0 8 L 0 8 L 0 0 L 0 0 L 8 0 L 120 0 Z M 0 264 L 0 256 L 0 264 L 0 256 L 16 256 L 16 256 L 16 264 L 16 264 L 16 368 L 16 368 L 120 368 L 128 368 L 128 384 L 128 384 L 120 384 L 0 384 L 0 376 L 0 376 L 0 264 L 0 264 Z M 392 0 L 504 0 L 392 0 L 512 0 L 512 8 L 512 8 L 512 120 L 512 120 L 512 128 L 512 128 L 496 128 L 496 128 L 496 120 L 496 120 L 496 16 L 496 16 L 392 16 L 384 16 L 384 0 L 384 0 L 392 0 L 392 0 Z M 512 264 L 512 376 L 512 264 L 512 376 L 512 384 L 512 384 L 504 384 L 384 384 L 384 368 L 384 368 L 392 368 L 496 368 L 496 264 L 496 264 L 496 256 L 496 256 L 512 256 L 512 256 L 512 264 L 512 264 Z" />
</svg>