<svg xmlns="http://www.w3.org/2000/svg" viewBox="0 0 496 480">
  <path d="M 314 231 L 478 210 L 314 231 L 478 210 L 478 210 L 478 210 Q 477 202 476 194 Q 458 110 394 56 Q 330 2 240 0 Q 173 1 119 33 Q 65 65 33 119 Q 1 173 0 240 Q 2 334 61 400 L 96 400 L 96 400 L 196 443 L 196 443 Q 208 448 222 448 Q 250 447 269 429 Q 287 410 288 382 L 288 380 L 288 380 Q 288 368 284 357 L 270 320 L 270 320 L 316 320 L 316 320 L 328 378 L 328 378 L 344 473 L 344 473 L 345 480 L 345 480 L 352 480 L 496 480 L 496 472 L 496 472 L 496 376 L 496 376 L 496 312 L 496 312 L 496 304 L 496 304 L 488 304 L 329 304 L 314 231 L 314 231 Z M 298 233 L 313 304 L 298 233 L 313 304 L 264 304 L 264 304 L 246 255 L 246 255 L 240 240 L 240 240 L 256 238 L 256 238 L 298 233 L 298 233 Z M 68 384 Q 18 324 16 240 Q 17 177 47 127 Q 76 76 127 47 Q 177 17 240 16 Q 323 18 383 68 Q 443 118 460 196 L 238 224 L 238 224 L 218 227 L 218 227 L 225 246 L 225 246 L 269 362 L 269 362 Q 272 371 272 380 L 272 382 L 272 382 Q 271 403 257 417 Q 243 431 222 432 Q 211 432 202 428 L 102 385 L 102 385 L 99 384 L 99 384 L 96 384 L 68 384 Z M 160 304 Q 175 305 176 320 Q 175 335 160 336 Q 145 335 144 320 Q 145 305 160 304 L 160 304 Z M 160 352 Q 174 352 183 343 L 183 343 L 183 343 Q 192 334 192 320 Q 192 306 183 297 Q 174 288 160 288 Q 146 288 137 297 Q 128 306 128 320 Q 128 334 137 343 Q 146 352 160 352 L 160 352 Z M 480 368 L 343 368 L 480 368 L 343 368 L 332 320 L 332 320 L 480 320 L 480 320 L 480 368 L 480 368 Z M 359 464 L 346 384 L 359 464 L 346 384 L 480 384 L 480 384 L 480 464 L 480 464 L 359 464 L 359 464 Z" />
</svg>