<svg xmlns="http://www.w3.org/2000/svg" viewBox="0 0 512 512">
  <path d="M 0 0 L 8 0 L 0 0 L 160 0 L 160 8 L 160 8 L 160 144 L 160 144 L 352 144 L 352 144 L 352 8 L 352 8 L 352 0 L 352 0 L 360 0 L 512 0 L 512 8 L 512 8 L 512 152 L 512 152 L 512 160 L 512 160 L 504 160 L 368 160 L 368 352 L 368 352 L 504 352 L 512 352 L 512 360 L 512 360 L 512 504 L 512 504 L 512 512 L 512 512 L 504 512 L 352 512 L 352 504 L 352 504 L 352 368 L 352 368 L 160 368 L 160 368 L 160 504 L 160 504 L 160 512 L 160 512 L 152 512 L 0 512 L 0 504 L 0 504 L 0 360 L 0 360 L 0 352 L 0 352 L 8 352 L 144 352 L 144 160 L 144 160 L 8 160 L 0 160 L 0 152 L 0 152 L 0 8 L 0 8 L 0 0 L 0 0 Z M 144 144 L 144 16 L 144 144 L 144 16 L 16 16 L 16 16 L 16 144 L 16 144 L 144 144 L 144 144 Z M 160 352 L 352 352 L 160 352 L 352 352 L 352 160 L 352 160 L 160 160 L 160 160 L 160 352 L 160 352 Z M 144 368 L 16 368 L 144 368 L 16 368 L 16 496 L 16 496 L 144 496 L 144 496 L 144 368 L 144 368 Z M 368 368 L 368 496 L 368 368 L 368 496 L 496 496 L 496 496 L 496 368 L 496 368 L 368 368 L 368 368 Z M 368 144 L 496 144 L 368 144 L 496 144 L 496 16 L 496 16 L 368 16 L 368 16 L 368 144 L 368 144 Z" />
</svg>