<svg xmlns="http://www.w3.org/2000/svg" viewBox="0 0 448 511">
  <path d="M 235 499 L 224 511 L 235 499 L 224 511 L 213 499 L 213 499 L 85 371 L 85 371 L 73 360 L 73 360 L 96 337 L 96 337 L 107 349 L 107 349 L 208 449 L 208 449 L 208 176 L 208 176 L 208 160 L 208 160 L 240 160 L 240 160 L 240 176 L 240 176 L 240 449 L 240 449 L 341 349 L 341 349 L 352 337 L 352 337 L 375 360 L 375 360 L 363 371 L 363 371 L 235 499 L 235 499 Z M 32 176 L 32 192 L 32 176 L 32 192 L 0 192 L 0 192 L 0 176 L 0 176 L 0 16 L 0 16 L 0 0 L 0 0 L 16 0 L 448 0 L 448 16 L 448 16 L 448 176 L 448 176 L 448 192 L 448 192 L 416 192 L 416 192 L 416 176 L 416 176 L 416 32 L 416 32 L 32 32 L 32 32 L 32 176 L 32 176 Z" />
</svg>