<svg xmlns="http://www.w3.org/2000/svg" viewBox="0 0 484 509">
  <path d="M 242 0 L 254 4 L 242 0 L 254 4 L 461 84 L 461 84 L 480 92 L 480 92 L 481 112 L 481 112 Q 484 150 476 203 Q 468 255 444 312 Q 420 369 374 420 Q 328 471 255 503 L 242 509 L 242 509 L 229 503 L 229 503 Q 156 471 110 420 Q 64 369 40 312 Q 16 255 8 203 Q 0 150 3 112 L 4 92 L 4 92 L 23 84 L 23 84 L 231 4 L 231 4 L 242 0 L 242 0 Z M 147 280 L 130 314 L 147 280 L 130 314 L 258 378 L 258 378 L 258 314 L 258 314 L 306 314 L 306 314 Q 340 313 363 291 Q 385 268 386 234 L 386 186 L 386 186 L 306 186 L 306 186 L 290 154 L 290 154 L 226 154 L 226 154 L 226 218 L 226 218 Q 225 245 207 263 Q 189 281 162 282 Q 154 282 147 280 L 147 280 Z M 130 154 L 130 218 L 130 154 L 130 218 Q 130 232 139 241 Q 148 250 162 250 Q 176 250 185 241 Q 194 232 194 218 L 194 186 L 194 186 L 194 154 L 194 154 L 186 154 L 130 154 Z M 242 202 Q 243 187 258 186 Q 273 187 274 202 Q 273 217 258 218 Q 243 217 242 202 L 242 202 Z" />
</svg>