<svg xmlns="http://www.w3.org/2000/svg" viewBox="0 0 640 512">
  <path d="M 87 108 Q 123 72 181 45 L 181 45 L 181 45 Q 238 17 320 16 Q 402 17 459 45 Q 517 72 553 108 Q 598 150 624 205 L 624 362 L 624 362 L 500 416 L 500 416 L 498 435 L 498 435 L 640 373 L 640 373 L 640 201 L 640 201 Q 612 142 564 97 Q 526 59 466 30 Q 405 2 320 0 Q 235 2 174 30 Q 114 59 76 97 Q 28 142 0 201 L 0 373 L 0 373 L 142 435 L 142 435 L 140 416 L 140 416 L 16 362 L 16 362 L 16 205 L 16 205 Q 42 150 87 108 L 87 108 Z M 168 144 L 160 144 L 168 144 L 160 144 L 160 152 L 160 152 L 160 224 L 160 224 L 176 224 L 176 224 L 176 160 L 176 160 L 464 160 L 464 160 L 464 224 L 464 224 L 480 224 L 480 224 L 480 152 L 480 152 L 480 144 L 480 144 L 472 144 L 168 144 Z M 496 256 L 480 256 L 496 256 L 120 256 L 120 272 L 120 272 L 128 272 L 153 272 L 184 505 L 184 505 L 185 512 L 185 512 L 196 512 L 196 512 L 198 509 L 198 509 L 250 445 L 250 445 L 314 510 L 314 510 L 317 512 L 317 512 L 323 512 L 323 512 L 325 510 L 325 510 L 390 445 L 390 445 L 442 509 L 442 509 L 444 512 L 444 512 L 455 512 L 455 512 L 456 505 L 456 505 L 487 272 L 487 272 L 512 272 L 520 272 L 520 256 L 520 256 L 512 256 L 496 256 Z M 471 272 L 460 352 L 471 272 L 460 352 L 400 272 L 400 272 L 471 272 L 471 272 Z M 367 272 L 320 331 L 367 272 L 320 331 L 273 272 L 273 272 L 367 272 L 367 272 Z M 240 272 L 180 352 L 240 272 L 180 352 L 169 272 L 169 272 L 240 272 L 240 272 Z M 198 484 L 183 378 L 198 484 L 183 378 L 238 433 L 238 433 L 198 484 L 198 484 Z M 320 493 L 260 432 L 320 493 L 260 432 L 320 357 L 320 357 L 380 432 L 380 432 L 320 493 L 320 493 Z M 248 421 L 191 363 L 248 421 L 191 363 L 256 277 L 256 277 L 310 344 L 310 344 L 248 421 L 248 421 Z M 392 421 L 330 344 L 392 421 L 330 344 L 384 277 L 384 277 L 449 363 L 449 363 L 392 421 L 392 421 Z M 402 433 L 457 378 L 402 433 L 457 378 L 443 484 L 443 484 L 402 433 L 402 433 Z" />
</svg>