<svg xmlns="http://www.w3.org/2000/svg" viewBox="0 0 512 448">
  <path d="M 16 16 L 16 432 L 16 16 L 16 432 L 496 432 L 496 432 L 496 16 L 496 16 L 16 16 L 16 16 Z M 0 0 L 16 0 L 0 0 L 512 0 L 512 16 L 512 16 L 512 432 L 512 432 L 512 448 L 512 448 L 496 448 L 0 448 L 0 432 L 0 432 L 0 16 L 0 16 L 0 0 L 0 0 Z M 112 80 L 112 112 L 112 80 L 112 112 L 80 112 L 80 112 L 80 80 L 80 80 L 112 80 L 112 80 Z M 176 80 L 208 80 L 176 80 L 208 80 L 208 112 L 208 112 L 176 112 L 176 112 L 176 80 L 176 80 Z M 304 80 L 304 112 L 304 80 L 304 112 L 272 112 L 272 112 L 272 80 L 272 80 L 304 80 L 304 80 Z" />
</svg>