<svg xmlns="http://www.w3.org/2000/svg" viewBox="0 0 384 502">
  <path d="M 184 250 L 97 496 L 184 250 L 97 496 L 112 502 L 112 502 L 184 298 L 184 298 L 184 435 L 184 435 L 184 443 L 184 443 L 200 443 L 200 443 L 200 435 L 200 435 L 200 252 L 200 252 L 242 134 L 242 134 Q 261 123 284 123 Q 320 124 343 148 Q 367 171 368 207 L 368 435 L 368 435 L 368 443 L 368 443 L 384 443 L 384 443 L 384 435 L 384 435 L 384 207 L 384 207 Q 383 165 355 136 Q 326 108 284 107 Q 266 107 249 113 L 288 6 L 288 6 L 273 0 L 273 0 L 229 124 L 229 124 Q 204 140 192 168 Q 180 141 156 124 Q 131 107 100 107 Q 45 109 16 153 L 16 107 L 16 107 L 0 107 L 0 107 L 0 207 L 0 207 L 0 219 L 0 219 L 0 435 L 0 435 L 0 443 L 0 443 L 16 443 L 16 443 L 16 435 L 16 435 L 16 219 L 16 219 L 16 207 L 16 207 Q 17 171 41 148 Q 64 124 100 123 Q 136 124 159 148 Q 183 171 184 207 L 184 250 L 184 250 Z M 200 204 Q 201 177 217 156 L 200 204 L 200 204 Z" />
</svg>