<svg xmlns="http://www.w3.org/2000/svg" viewBox="0 0 640 512">
  <path d="M 8 0 L 0 0 L 8 0 L 0 0 L 0 16 L 0 16 L 8 16 L 58 16 L 152 378 L 152 378 L 154 384 L 154 384 L 160 384 L 321 384 Q 320 376 320 368 L 166 368 L 166 368 L 145 288 L 145 288 L 339 288 L 339 288 Q 343 280 349 272 L 141 272 L 141 272 L 83 48 L 83 48 L 554 48 L 554 48 L 509 193 L 509 193 Q 517 193 525 194 L 571 48 L 571 48 L 576 32 L 576 32 L 559 32 L 79 32 L 72 6 L 72 6 L 70 0 L 70 0 L 64 0 L 8 0 Z M 176 432 Q 190 432 199 441 L 199 441 L 199 441 Q 208 450 208 464 Q 208 478 199 487 Q 190 496 176 496 Q 162 496 153 487 Q 144 478 144 464 Q 144 450 153 441 Q 162 432 176 432 L 176 432 Z M 176 512 Q 203 511 218 488 Q 230 464 218 440 Q 203 417 176 416 Q 149 417 134 440 Q 122 464 134 488 Q 149 511 176 512 L 176 512 Z M 496 240 Q 531 240 560 257 L 560 257 L 560 257 Q 589 274 607 304 Q 624 334 624 368 Q 624 402 607 432 Q 589 462 560 479 Q 531 496 496 496 Q 461 496 432 479 Q 403 462 385 432 Q 368 402 368 368 Q 368 334 385 304 Q 403 274 432 257 Q 461 240 496 240 L 496 240 Z M 496 512 Q 535 512 568 493 L 568 493 L 568 493 Q 601 474 621 440 Q 640 406 640 368 Q 640 330 621 296 Q 601 262 568 243 Q 535 224 496 224 Q 457 224 424 243 Q 391 262 371 296 Q 352 330 352 368 Q 352 406 371 440 Q 391 474 424 493 Q 457 512 496 512 L 496 512 Z M 571 328 L 560 317 L 571 328 L 560 317 L 554 322 L 554 322 L 480 397 L 480 397 L 438 354 L 438 354 L 432 349 L 432 349 L 421 360 L 421 360 L 426 366 L 426 366 L 474 414 L 474 414 L 480 419 L 480 419 L 486 414 L 486 414 L 566 334 L 566 334 L 572 328 L 571 328 Z" />
</svg>