<svg xmlns="http://www.w3.org/2000/svg" viewBox="0 0 448 448">
  <path d="M 16 16 L 16 432 L 16 16 L 16 432 L 432 432 L 432 432 L 432 16 L 432 16 L 16 16 L 16 16 Z M 0 0 L 16 0 L 0 0 L 448 0 L 448 16 L 448 16 L 448 432 L 448 432 L 448 448 L 448 448 L 432 448 L 0 448 L 0 432 L 0 432 L 0 16 L 0 16 L 0 0 L 0 0 Z M 285 147 L 259 173 L 285 147 L 259 173 L 248 184 L 248 184 L 259 195 L 259 195 L 333 269 L 333 269 L 344 280 L 344 280 L 333 291 L 333 291 L 291 333 L 291 333 L 280 344 L 280 344 L 269 333 L 269 333 L 195 259 L 195 259 L 184 248 L 184 248 L 173 259 L 173 259 L 147 285 L 147 285 L 136 296 L 136 296 L 125 285 L 125 285 L 112 272 L 112 272 L 112 128 L 112 128 L 112 112 L 112 112 L 128 112 L 272 112 L 285 125 L 285 125 L 296 136 L 296 136 L 285 147 L 285 147 Z M 237 195 L 225 184 L 237 195 L 225 184 L 237 173 L 237 173 L 273 136 L 273 136 L 265 128 L 265 128 L 128 128 L 128 128 L 128 265 L 128 265 L 136 273 L 136 273 L 173 237 L 173 237 L 184 225 L 184 225 L 195 237 L 195 237 L 280 321 L 280 321 L 321 280 L 321 280 L 237 195 L 237 195 Z" />
</svg>