<svg xmlns="http://www.w3.org/2000/svg" viewBox="0 0 640 384">
  <path d="M 416 16 L 408 16 L 416 16 L 312 16 L 312 64 L 312 64 L 336 64 L 416 64 L 512 128 L 512 128 L 512 368 L 512 368 L 512 384 L 512 384 L 496 384 L 256 384 L 179 320 L 179 320 L 80 320 L 64 320 L 64 304 L 64 304 L 64 200 L 64 200 L 16 200 L 16 200 L 16 280 L 16 280 L 16 288 L 16 288 L 0 288 L 0 288 L 0 280 L 0 280 L 0 104 L 0 104 L 0 96 L 0 96 L 16 96 L 16 96 L 16 104 L 16 104 L 16 184 L 16 184 L 64 184 L 64 184 L 64 80 L 64 80 L 64 64 L 64 64 L 80 64 L 296 64 L 296 16 L 296 16 L 200 16 L 192 16 L 192 0 L 192 0 L 200 0 L 416 0 L 416 16 L 416 16 Z M 80 184 L 80 200 L 80 184 L 80 200 L 80 304 L 80 304 L 179 304 L 185 304 L 190 308 L 190 308 L 262 368 L 262 368 L 496 368 L 496 368 L 496 137 L 496 137 L 411 80 L 411 80 L 336 80 L 80 80 L 80 184 L 80 184 Z M 176 176 L 176 208 L 176 176 L 176 208 L 208 208 L 208 208 L 208 176 L 208 176 L 176 176 L 176 176 Z M 176 160 L 208 160 L 176 160 L 224 160 L 224 176 L 224 176 L 224 208 L 224 208 L 224 224 L 224 224 L 208 224 L 160 224 L 160 208 L 160 208 L 160 176 L 160 176 L 160 160 L 160 160 L 176 160 L 176 160 Z M 272 176 L 272 208 L 272 176 L 272 208 L 304 208 L 304 208 L 304 176 L 304 176 L 272 176 L 272 176 Z M 256 160 L 272 160 L 256 160 L 320 160 L 320 176 L 320 176 L 320 208 L 320 208 L 320 224 L 320 224 L 304 224 L 256 224 L 256 208 L 256 208 L 256 176 L 256 176 L 256 160 L 256 160 Z M 400 176 L 368 176 L 400 176 L 368 176 L 368 208 L 368 208 L 400 208 L 400 208 L 400 176 L 400 176 Z M 368 160 L 400 160 L 368 160 L 416 160 L 416 176 L 416 176 L 416 208 L 416 208 L 416 224 L 416 224 L 400 224 L 352 224 L 352 208 L 352 208 L 352 176 L 352 176 L 352 160 L 352 160 L 368 160 L 368 160 Z M 560 144 L 560 368 L 560 144 L 560 368 L 624 368 L 624 368 L 624 144 L 624 144 L 560 144 L 560 144 Z M 544 128 L 560 128 L 544 128 L 640 128 L 640 144 L 640 144 L 640 368 L 640 368 L 640 384 L 640 384 L 624 384 L 544 384 L 544 368 L 544 368 L 544 144 L 544 144 L 544 128 L 544 128 Z" />
</svg>