<svg xmlns="http://www.w3.org/2000/svg" viewBox="0 0 315 518">
  <path d="M 169 59 Q 169 44 180 34 L 180 34 L 180 34 Q 190 23 205 23 Q 220 23 230 34 Q 241 44 241 59 Q 241 74 230 84 Q 220 95 205 95 Q 190 95 180 84 Q 169 74 169 59 L 169 59 Z M 257 59 Q 256 30 231 14 Q 205 0 179 14 Q 154 30 153 59 Q 154 88 179 104 Q 205 118 231 104 Q 256 88 257 59 L 257 59 Z M 221 271 L 224 277 L 221 271 L 224 277 L 229 287 L 229 287 L 239 292 L 239 292 L 272 308 L 272 308 L 287 316 L 287 316 L 294 301 L 294 301 L 308 273 L 308 273 L 315 258 L 315 258 L 301 251 L 301 251 L 277 239 L 277 239 L 242 169 L 242 169 L 235 155 L 235 155 L 219 151 L 219 151 L 139 135 L 139 135 L 129 133 L 129 133 L 120 138 L 120 138 L 48 170 L 48 170 L 35 175 L 35 175 L 31 189 L 31 189 L 15 237 L 15 237 L 10 252 L 10 252 L 5 267 L 5 267 L 20 272 L 20 272 L 50 282 L 50 282 L 65 288 L 65 288 L 70 272 L 70 272 L 75 257 L 75 257 L 87 223 L 87 223 L 105 215 L 105 215 L 124 206 L 124 206 L 118 226 L 118 226 L 107 270 L 107 270 Q 99 304 121 330 L 192 407 L 192 407 L 214 488 L 214 488 L 218 503 L 218 503 L 223 518 L 223 518 L 238 514 L 238 514 L 269 506 L 269 506 L 284 502 L 284 502 L 280 486 L 280 486 L 276 471 L 276 471 L 252 383 L 252 383 L 250 375 L 250 375 L 245 369 L 245 369 L 192 312 L 192 312 L 204 273 L 204 273 L 211 250 L 211 250 L 221 271 L 221 271 Z M 235 383 L 236 387 L 235 383 L 236 387 L 260 475 L 260 475 L 265 490 L 265 490 L 234 499 L 234 499 L 230 483 L 230 483 L 208 403 L 208 403 L 207 399 L 207 399 L 204 396 L 204 396 L 133 319 L 133 319 Q 116 299 122 274 L 139 210 L 139 210 L 148 178 L 148 178 L 117 192 L 117 192 L 80 208 L 80 208 L 74 211 L 74 211 L 72 217 L 72 217 L 60 252 L 60 252 L 55 267 L 55 267 L 25 257 L 25 257 L 30 242 L 30 242 L 46 194 L 46 194 L 48 187 L 48 187 L 55 184 L 55 184 L 127 152 L 127 152 L 131 150 L 131 150 L 136 151 L 136 151 L 216 167 L 216 167 L 224 169 L 224 169 L 227 176 L 227 176 L 263 246 L 263 246 L 265 251 L 265 251 L 270 253 L 270 253 L 294 266 L 294 266 L 280 294 L 280 294 L 246 277 L 246 277 L 241 275 L 241 275 L 239 270 L 239 270 L 225 243 L 225 243 L 207 206 L 207 206 L 195 245 L 195 245 L 177 308 L 177 308 L 175 317 L 175 317 L 181 323 L 181 323 L 233 380 L 233 380 L 236 383 L 235 383 Z M 91 343 L 66 405 L 91 343 L 66 405 L 22 448 L 22 448 L 11 460 L 11 460 L 0 471 L 0 471 L 11 482 L 11 482 L 34 505 L 34 505 L 45 516 L 45 516 L 56 505 L 56 505 L 68 494 L 68 494 L 116 446 L 116 446 L 120 441 L 120 441 L 123 435 L 123 435 L 138 396 L 138 396 L 126 383 L 126 383 L 108 429 L 108 429 L 107 432 L 107 432 L 104 434 L 104 434 L 56 482 L 56 482 L 45 494 L 45 494 L 22 471 L 22 471 L 34 460 L 34 460 L 77 416 L 77 416 L 79 414 L 79 414 L 81 411 L 81 411 L 102 356 L 102 356 L 98 351 L 98 351 Q 94 347 91 343 L 91 343 Z" />
</svg>