<svg xmlns="http://www.w3.org/2000/svg" viewBox="0 0 576 448">
  <path d="M 16 16 L 16 432 L 16 16 L 16 432 L 560 432 L 560 432 L 560 16 L 560 16 L 16 16 L 16 16 Z M 0 0 L 16 0 L 0 0 L 576 0 L 576 16 L 576 16 L 576 432 L 576 432 L 576 448 L 576 448 L 560 448 L 0 448 L 0 432 L 0 432 L 0 16 L 0 16 L 0 0 L 0 0 Z M 187 128 L 197 128 L 187 128 L 197 128 L 199 133 L 199 133 L 286 320 L 286 320 L 269 320 L 269 320 L 239 256 L 239 256 L 145 256 L 145 256 L 116 320 L 116 320 L 98 320 L 98 320 L 185 133 L 185 133 L 187 128 L 187 128 Z M 231 240 L 192 155 L 231 240 L 192 155 L 153 240 L 153 240 L 231 240 L 231 240 Z M 312 128 L 320 128 L 312 128 L 384 128 Q 425 129 452 156 Q 479 183 480 224 Q 479 265 452 292 Q 425 319 384 320 L 320 320 L 312 320 L 312 312 L 312 312 L 312 136 L 312 136 L 312 128 L 312 128 Z M 328 144 L 328 304 L 328 144 L 328 304 L 384 304 L 384 304 Q 418 303 441 281 Q 463 258 464 224 Q 463 190 441 167 Q 418 145 384 144 L 328 144 L 328 144 Z" />
</svg>