<svg xmlns="http://www.w3.org/2000/svg" viewBox="0 0 512 512">
  <path d="M 179.2 51.2 L 332.8 51.2 L 332.8 291.2 L 347.2 302.4 Q 358.4 281.6 358.4 256 L 358.4 224 L 358.4 204.8 L 396.8 204.8 L 396.8 224 L 396.8 256 Q 396 295.2 377.6 326.4 L 496.8 418.4 L 512 430.4 L 488.8 460.8 L 473.6 448.8 L 15.2 93.6 L 0 81.6 L 23.2 51.2 L 38.4 63.2 L 179.2 172 L 179.2 51.2 L 179.2 51.2 Z M 286.4 353.6 L 320.8 380.8 Q 300 392 275.2 395.2 L 275.2 422.4 L 313.6 422.4 L 332.8 422.4 L 332.8 460.8 L 313.6 460.8 L 256 460.8 L 198.4 460.8 L 179.2 460.8 L 179.2 422.4 L 198.4 422.4 L 236.8 422.4 L 236.8 395.2 Q 184 387.2 150.4 348.8 Q 116 310.4 115.2 256 L 115.2 224 L 115.2 219.2 L 153.6 248.8 L 153.6 256 Q 154.4 299.2 183.2 328.8 Q 212.8 357.6 256 358.4 Q 272 358.4 286.4 353.6 L 286.4 353.6 Z" />
</svg>