<svg xmlns="http://www.w3.org/2000/svg" viewBox="0 0 384 512">
  <path d="M 0 0 L 16 0 L 0 0 L 384 0 L 384 32 L 384 32 L 368 32 L 352 32 L 352 144 L 352 144 L 352 152 L 352 152 L 346 157 L 346 157 L 218 256 L 218 256 L 346 355 L 346 355 L 352 360 L 352 360 L 352 368 L 352 368 L 352 480 L 352 480 L 368 480 L 384 480 L 384 512 L 384 512 L 368 512 L 0 512 L 0 480 L 0 480 L 16 480 L 32 480 L 32 368 L 32 368 L 32 360 L 32 360 L 38 355 L 38 355 L 166 256 L 166 256 L 38 157 L 38 157 L 32 152 L 32 152 L 32 144 L 32 144 L 32 32 L 32 32 L 16 32 L 0 32 L 0 0 L 0 0 Z M 64 32 L 64 136 L 64 32 L 64 136 L 192 236 L 192 236 L 320 136 L 320 136 L 320 32 L 320 32 L 64 32 L 64 32 Z M 95 352 L 95 352 L 95 352 L 95 352 L 95 352 L 95 352 L 96 352 L 96 352 L 96 352 L 96 352 L 97 352 L 97 352 L 97 352 L 97 352 L 98 352 L 98 352 L 98 352 L 98 352 L 99 352 L 99 352 L 99 352 L 99 352 L 100 352 L 100 352 L 100 352 L 100 352 L 101 352 L 101 352 L 101 352 L 101 352 L 102 352 L 102 352 L 102 352 L 102 352 L 103 352 L 103 352 L 103 352 L 103 352 L 104 352 L 104 352 L 104 352 L 104 352 L 105 352 L 105 352 L 105 352 L 105 352 L 106 352 L 106 352 L 106 352 L 106 352 L 107 352 L 107 352 L 107 352 L 107 352 L 108 352 L 108 352 L 108 352 L 108 352 L 109 352 L 109 352 L 109 352 L 109 352 L 110 352 L 110 352 L 110 352 L 110 352 L 111 352 L 111 352 L 111 352 L 111 352 L 112 352 L 112 352 L 112 352 L 112 352 L 113 352 L 114 352 L 114 352 L 114 352 L 115 352 L 115 352 L 115 352 L 115 352 L 116 352 L 117 352 L 117 352 L 117 352 L 118 352 L 118 352 L 118 352 L 118 352 L 119 352 L 120 352 L 120 352 L 120 352 L 121 352 L 121 352 L 121 352 L 121 352 L 122 352 L 123 352 L 123 352 L 123 352 L 124 352 L 124 352 L 124 352 L 124 352 L 125 352 L 126 352 L 126 352 L 126 352 L 127 352 L 127 352 L 127 352 L 127 352 L 128 352 L 129 352 L 129 352 L 129 352 L 130 352 L 130 352 L 130 352 L 130 352 L 131 352 L 132 352 L 132 352 L 132 352 L 133 352 L 133 352 L 133 352 L 133 352 L 134 352 L 135 352 L 135 352 L 135 352 L 136 352 L 136 352 L 136 352 L 136 352 L 137 352 L 138 352 L 138 352 L 138 352 L 139 352 L 139 352 L 139 352 L 139 352 L 140 352 L 141 352 L 141 352 L 141 352 L 142 352 L 142 352 L 142 352 L 142 352 L 143 352 L 144 352 L 144 352 L 144 352 L 145 352 L 145 352 L 145 352 L 145 352 L 146 352 L 147 352 L 147 352 L 147 352 L 148 352 L 148 352 L 148 352 L 148 352 L 149 352 L 150 352 L 150 352 L 150 352 L 151 352 L 152 352 L 152 352 L 152 352 L 153 352 L 154 352 L 154 352 L 154 352 L 155 352 L 156 352 L 156 352 L 156 352 L 157 352 L 159 352 L 159 352 L 159 352 L 160 352 L 161 352 L 161 352 L 161 352 L 162 352 L 163 352 L 163 352 L 163 352 L 164 352 L 166 352 L 166 352 L 166 352 L 167 352 L 168 352 L 168 352 L 168 352 L 169 352 L 170 352 L 170 352 L 170 352 L 171 352 L 173 352 L 173 352 L 173 352 L 174 352 L 175 352 L 175 352 L 175 352 L 176 352 L 177 352 L 177 352 L 177 352 L 178 352 L 180 352 L 180 352 L 180 352 L 181 352 L 182 352 L 182 352 L 182 352 L 183 352 L 184 352 L 184 352 L 184 352 L 185 352 L 187 352 L 187 352 L 187 352 L 188 352 L 189 352 L 189 352 L 189 352 L 190 352 L 191 352 L 191 352 L 191 352 L 192 352 L 194 352 L 194 352 L 194 352 L 195 352 L 196 352 L 196 352 L 196 352 L 197 352 L 198 352 L 198 352 L 198 352 L 199 352 L 200 352 L 200 352 L 200 352 L 201 352 L 203 352 L 203 352 L 203 352 L 204 352 L 205 352 L 205 352 L 205 352 L 206 352 L 207 352 L 207 352 L 207 352 L 208 352 L 210 352 L 210 352 L 210 352 L 211 352 L 212 352 L 212 352 L 212 352 L 213 352 L 214 352 L 214 352 L 214 352 L 215 352 L 217 352 L 217 352 L 217 352 L 218 352 L 219 352 L 219 352 L 219 352 L 220 352 L 221 352 L 221 352 L 221 352 L 222 352 L 224 352 L 224 352 L 224 352 L 225 352 L 226 352 L 226 352 L 226 352 L 227 352 L 228 352 L 228 352 L 228 352 L 229 352 L 231 352 L 231 352 L 231 352 L 232 352 L 233 352 L 233 352 L 233 352 L 234 352 L 235 352 L 235 352 L 235 352 L 236 352 L 238 352 L 238 352 L 238 352 L 239 352 L 240 352 L 240 352 L 240 352 L 241 352 L 242 352 L 242 352 L 242 352 L 243 352 L 245 352 L 245 352 L 245 352 L 246 352 L 247 352 L 247 352 L 247 352 L 248 352 L 249 352 L 249 352 L 249 352 L 250 352 L 252 352 L 252 352 L 252 352 L 253 352 L 254 352 L 254 352 L 254 352 L 255 352 L 256 352 L 256 352 L 256 352 L 257 352 L 259 352 L 259 352 L 259 352 L 260 352 L 261 352 L 261 352 L 261 352 L 262 352 L 263 352 L 263 352 L 263 352 L 264 352 L 266 352 L 266 352 L 266 352 L 267 352 L 268 352 L 268 352 L 268 352 L 269 352 L 270 352 L 270 352 L 270 352 L 271 352 L 273 352 L 273 352 L 273 352 L 274 352 L 275 352 L 275 352 L 275 352 L 276 352 L 278 352 L 278 352 L 278 352 L 279 352 L 280 352 L 280 352 L 280 352 L 281 352 L 282 352 L 282 352 L 282 352 L 283 352 L 285 352 L 285 352 L 285 352 L 286 352 L 287 352 L 287 352 L 287 352 L 288 352 L 289 352 L 289 352 L 289 352 L 290 352 L 291 352 L 192 276 L 192 276 L 95 352 L 95 352 Z M 64 384 L 64 480 L 64 384 L 64 480 L 320 480 L 320 480 L 320 384 L 320 384 L 320 384 L 320 384 L 319 384 L 318 384 L 318 384 L 318 384 L 317 384 L 317 384 L 317 384 L 317 384 L 316 384 L 315 384 L 315 384 L 315 384 L 314 384 L 314 384 L 314 384 L 314 384 L 313 384 L 312 384 L 312 384 L 312 384 L 311 384 L 311 384 L 311 384 L 311 384 L 310 384 L 309 384 L 309 384 L 309 384 L 308 384 L 308 384 L 308 384 L 308 384 L 307 384 L 306 384 L 306 384 L 306 384 L 305 384 L 305 384 L 305 384 L 305 384 L 304 384 L 303 384 L 303 384 L 303 384 L 302 384 L 302 384 L 302 384 L 302 384 L 301 384 L 300 384 L 300 384 L 300 384 L 299 384 L 299 384 L 299 384 L 299 384 L 298 384 L 297 384 L 297 384 L 297 384 L 296 384 L 296 384 L 296 384 L 296 384 L 295 384 L 294 384 L 294 384 L 294 384 L 293 384 L 293 384 L 293 384 L 293 384 L 292 384 L 291 384 L 291 384 L 291 384 L 290 384 L 290 384 L 290 384 L 290 384 L 289 384 L 287 384 L 287 384 L 287 384 L 286 384 L 285 384 L 285 384 L 285 384 L 284 384 L 283 384 L 283 384 L 283 384 L 282 384 L 280 384 L 280 384 L 280 384 L 279 384 L 278 384 L 278 384 L 278 384 L 277 384 L 276 384 L 276 384 L 276 384 L 275 384 L 273 384 L 273 384 L 273 384 L 272 384 L 271 384 L 271 384 L 271 384 L 270 384 L 269 384 L 269 384 L 269 384 L 268 384 L 266 384 L 266 384 L 266 384 L 265 384 L 264 384 L 264 384 L 264 384 L 263 384 L 262 384 L 262 384 L 262 384 L 261 384 L 259 384 L 259 384 L 259 384 L 258 384 L 257 384 L 257 384 L 257 384 L 256 384 L 255 384 L 255 384 L 255 384 L 254 384 L 252 384 L 252 384 L 252 384 L 251 384 L 250 384 L 250 384 L 250 384 L 249 384 L 248 384 L 248 384 L 248 384 L 247 384 L 245 384 L 245 384 L 245 384 L 244 384 L 243 384 L 243 384 L 243 384 L 242 384 L 241 384 L 241 384 L 241 384 L 240 384 L 238 384 L 238 384 L 238 384 L 237 384 L 236 384 L 236 384 L 236 384 L 235 384 L 234 384 L 234 384 L 234 384 L 233 384 L 231 384 L 231 384 L 231 384 L 230 384 L 229 384 L 229 384 L 229 384 L 228 384 L 227 384 L 227 384 L 227 384 L 226 384 L 224 384 L 224 384 L 224 384 L 223 384 L 222 384 L 222 384 L 222 384 L 221 384 L 220 384 L 220 384 L 220 384 L 219 384 L 217 384 L 217 384 L 217 384 L 216 384 L 215 384 L 215 384 L 215 384 L 214 384 L 213 384 L 213 384 L 213 384 L 212 384 L 210 384 L 210 384 L 210 384 L 209 384 L 208 384 L 208 384 L 208 384 L 207 384 L 206 384 L 206 384 L 206 384 L 205 384 L 203 384 L 203 384 L 203 384 L 202 384 L 201 384 L 201 384 L 201 384 L 200 384 L 199 384 L 199 384 L 199 384 L 198 384 L 196 384 L 196 384 L 196 384 L 195 384 L 194 384 L 194 384 L 194 384 L 193 384 L 192 384 L 192 384 L 192 384 L 191 384 L 189 384 L 189 384 L 189 384 L 188 384 L 187 384 L 187 384 L 187 384 L 186 384 L 185 384 L 185 384 L 185 384 L 184 384 L 182 384 L 182 384 L 182 384 L 181 384 L 180 384 L 180 384 L 180 384 L 179 384 L 178 384 L 178 384 L 178 384 L 177 384 L 175 384 L 175 384 L 175 384 L 174 384 L 173 384 L 173 384 L 173 384 L 172 384 L 171 384 L 171 384 L 171 384 L 170 384 L 168 384 L 168 384 L 168 384 L 167 384 L 166 384 L 166 384 L 166 384 L 165 384 L 164 384 L 164 384 L 164 384 L 163 384 L 161 384 L 161 384 L 161 384 L 160 384 L 159 384 L 159 384 L 159 384 L 158 384 L 157 384 L 157 384 L 157 384 L 156 384 L 154 384 L 154 384 L 154 384 L 153 384 L 152 384 L 152 384 L 152 384 L 151 384 L 150 384 L 150 384 L 150 384 L 149 384 L 148 384 L 148 384 L 148 384 L 147 384 L 147 384 L 147 384 L 147 384 L 146 384 L 145 384 L 145 384 L 145 384 L 144 384 L 144 384 L 144 384 L 144 384 L 143 384 L 142 384 L 142 384 L 142 384 L 141 384 L 141 384 L 141 384 L 141 384 L 140 384 L 139 384 L 139 384 L 139 384 L 138 384 L 138 384 L 138 384 L 138 384 L 137 384 L 136 384 L 136 384 L 136 384 L 135 384 L 135 384 L 135 384 L 135 384 L 134 384 L 133 384 L 133 384 L 133 384 L 132 384 L 132 384 L 132 384 L 132 384 L 131 384 L 130 384 L 130 384 L 130 384 L 129 384 L 129 384 L 129 384 L 129 384 L 128 384 L 127 384 L 127 384 L 127 384 L 126 384 L 126 384 L 126 384 L 126 384 L 125 384 L 124 384 L 124 384 L 124 384 L 123 384 L 123 384 L 123 384 L 123 384 L 122 384 L 121 384 L 121 384 L 121 384 L 120 384 L 120 384 L 120 384 L 120 384 L 119 384 L 118 384 L 118 384 L 118 384 L 117 384 L 117 384 L 117 384 L 117 384 L 116 384 L 115 384 L 115 384 L 115 384 L 114 384 L 114 384 L 114 384 L 114 384 L 113 384 L 112 384 L 112 384 L 112 384 L 111 384 L 111 384 L 111 384 L 111 384 L 110 384 L 110 384 L 110 384 L 110 384 L 109 384 L 109 384 L 109 384 L 109 384 L 108 384 L 108 384 L 108 384 L 108 384 L 107 384 L 107 384 L 107 384 L 107 384 L 106 384 L 106 384 L 106 384 L 106 384 L 105 384 L 105 384 L 105 384 L 105 384 L 104 384 L 104 384 L 104 384 L 104 384 L 103 384 L 103 384 L 103 384 L 103 384 L 102 384 L 102 384 L 102 384 L 102 384 L 101 384 L 101 384 L 101 384 L 101 384 L 100 384 L 100 384 L 100 384 L 100 384 L 99 384 L 99 384 L 99 384 L 99 384 L 98 384 L 98 384 L 98 384 L 98 384 L 97 384 L 97 384 L 97 384 L 97 384 L 96 384 L 96 384 L 96 384 L 96 384 L 95 384 L 95 384 L 95 384 L 95 384 L 94 384 L 94 384 L 94 384 L 94 384 L 93 384 L 93 384 L 93 384 L 93 384 L 92 384 L 92 384 L 92 384 L 92 384 L 91 384 L 91 384 L 91 384 L 91 384 L 90 384 L 90 384 L 90 384 L 90 384 L 89 384 L 89 384 L 89 384 L 89 384 L 88 384 L 88 384 L 88 384 L 88 384 L 87 384 L 87 384 L 87 384 L 87 384 L 87 384 L 87 384 L 86 384 L 86 384 L 86 384 L 86 384 L 85 384 L 85 384 L 85 384 L 85 384 L 85 384 L 85 384 L 84 384 L 84 384 L 84 384 L 84 384 L 83 384 L 83 384 L 83 384 L 83 384 L 83 384 L 83 384 L 82 384 L 82 384 L 82 384 L 82 384 L 81 384 L 81 384 L 81 384 L 81 384 L 81 384 L 81 384 L 80 384 L 80 384 L 80 384 L 80 384 L 79 384 L 79 384 L 79 384 L 79 384 L 79 384 L 79 384 L 78 384 L 78 384 L 78 384 L 78 384 L 77 384 L 77 384 L 77 384 L 77 384 L 77 384 L 77 384 L 76 384 L 76 384 L 76 384 L 76 384 L 75 384 L 75 384 L 75 384 L 75 384 L 75 384 L 75 384 L 74 384 L 74 384 L 74 384 L 74 384 L 73 384 L 73 384 L 73 384 L 73 384 L 73 384 L 73 384 L 73 384 L 73 384 L 72 384 L 72 384 L 72 384 L 72 384 L 72 384 L 72 384 L 71 384 L 71 384 L 71 384 L 71 384 L 71 384 L 71 384 L 70 384 L 70 384 L 70 384 L 70 384 L 70 384 L 70 384 L 70 384 L 70 384 L 69 384 L 69 384 L 69 384 L 69 384 L 69 384 L 69 384 L 68 384 L 68 384 L 68 384 L 68 384 L 68 384 L 68 384 L 67 384 L 67 384 L 67 384 L 67 384 L 67 384 L 67 384 L 67 384 L 67 384 L 66 384 L 66 384 L 66 384 L 66 384 L 66 384 L 66 384 L 65 384 L 65 384 L 65 384 L 65 384 L 65 384 L 65 384 L 64 384 L 64 384 L 64 384 L 64 384 L 64 384 L 64 384 L 64 384 L 64 384 L 63 384 L 63 384 L 63 384 L 63 384 Q 63 384 63 384 Q 63 384 63 384 L 64 384 Z" />
</svg>