<svg xmlns="http://www.w3.org/2000/svg" viewBox="0 0 448 448">
  <path d="M 16 16 L 16 432 L 16 16 L 16 432 L 432 432 L 432 432 L 432 16 L 432 16 L 16 16 L 16 16 Z M 0 0 L 16 0 L 0 0 L 448 0 L 448 16 L 448 16 L 448 432 L 448 432 L 448 448 L 448 448 L 432 448 L 0 448 L 0 432 L 0 432 L 0 16 L 0 16 L 0 0 L 0 0 Z M 110 96 L 130 96 L 110 96 L 130 96 L 224 211 L 224 211 L 318 96 L 318 96 L 338 96 L 338 96 L 234 224 L 234 224 L 338 352 L 338 352 L 318 352 L 318 352 L 224 237 L 224 237 L 130 352 L 130 352 L 110 352 L 110 352 L 214 224 L 214 224 L 110 96 L 110 96 Z" />
</svg>