<svg xmlns="http://www.w3.org/2000/svg" viewBox="0 0 634 512">
  <path d="M 354 0 L 346 0 L 354 0 L 346 0 L 346 8 L 346 8 L 346 396 L 346 396 L 8 488 L 8 488 L 0 490 L 0 490 L 4 506 L 4 506 L 12 504 L 12 504 L 410 395 L 410 395 Q 410 398 410 400 Q 411 448 443 479 Q 474 511 522 512 Q 570 511 601 479 Q 633 448 634 400 Q 633 352 601 321 Q 570 289 522 288 Q 480 289 450 314 Q 421 339 412 378 L 362 392 L 362 392 L 362 16 L 362 16 L 626 16 L 634 16 L 634 0 L 634 0 L 626 0 L 354 0 Z M 522 304 Q 548 304 570 317 L 570 317 L 570 317 Q 592 330 605 352 Q 618 375 618 400 Q 618 425 605 448 Q 592 470 570 483 Q 548 496 522 496 Q 496 496 474 483 Q 452 470 439 448 Q 426 425 426 400 Q 426 375 439 352 Q 452 330 474 317 Q 496 304 522 304 L 522 304 Z" />
</svg>