<svg xmlns="http://www.w3.org/2000/svg" viewBox="0 0 448 512">
  <path d="M 416 352 L 192 352 L 416 352 L 192 352 L 192 32 L 192 32 L 339 32 L 339 32 L 416 109 L 416 109 L 416 352 L 416 352 Z M 448 96 L 352 0 L 448 96 L 352 0 L 192 0 L 160 0 L 160 32 L 160 32 L 160 352 L 160 352 L 160 384 L 160 384 L 192 384 L 448 384 L 448 352 L 448 352 L 448 96 L 448 96 Z M 32 128 L 0 128 L 32 128 L 0 128 L 0 160 L 0 160 L 0 480 L 0 480 L 0 512 L 0 512 L 32 512 L 288 512 L 288 480 L 288 480 L 288 416 L 288 416 L 256 416 L 256 416 L 256 480 L 256 480 L 32 480 L 32 480 L 32 160 L 32 160 L 128 160 L 128 160 L 128 128 L 128 128 L 32 128 L 32 128 Z" />
</svg>