<svg xmlns="http://www.w3.org/2000/svg" viewBox="0 0 630 511">
  <path d="M 6 0 L 0 14 L 6 0 L 0 14 L 144 78 L 144 78 L 151 82 L 151 82 L 158 67 L 158 67 L 150 64 L 150 64 L 6 0 L 6 0 Z M 158 187 L 151 173 L 158 187 L 151 173 L 144 176 L 144 176 L 0 240 L 0 240 L 6 254 L 6 254 L 150 190 L 150 190 L 158 187 L 158 187 Z M 232 175 L 398 175 L 232 175 L 398 175 L 456 495 L 456 495 L 363 495 L 363 495 L 363 431 L 363 431 Q 362 411 349 397 Q 335 384 315 383 Q 295 384 281 397 Q 268 411 267 431 L 267 495 L 267 495 L 174 495 L 174 495 L 232 175 L 232 175 Z M 472 495 L 414 175 L 472 495 L 414 175 L 419 175 L 427 175 L 427 159 L 427 159 L 419 159 L 203 159 L 203 175 L 203 175 L 211 175 L 216 175 L 158 495 L 158 495 L 139 495 L 131 495 L 131 511 L 131 511 L 139 511 L 499 511 L 499 495 L 499 495 L 491 495 L 472 495 Z M 347 495 L 283 495 L 347 495 L 283 495 L 283 431 L 283 431 Q 283 417 292 408 Q 301 399 315 399 Q 329 399 338 408 Q 347 417 347 431 L 347 495 L 347 495 Z M 480 64 L 473 67 L 480 64 L 473 67 L 479 81 L 479 81 L 486 78 L 486 78 L 630 14 L 630 14 L 624 0 L 624 0 L 480 64 L 480 64 Z M 480 190 L 624 254 L 480 190 L 624 254 L 630 240 L 630 240 L 486 176 L 486 176 L 479 172 L 479 172 L 473 187 L 473 187 L 480 190 L 480 190 Z M 319 3 L 315 0 L 319 3 L 315 0 L 311 3 L 311 3 L 199 72 L 199 72 L 192 76 L 192 76 L 200 90 L 200 90 L 207 86 L 207 86 L 219 79 L 219 79 L 219 127 L 219 127 L 235 127 L 235 127 L 235 69 L 235 69 L 315 19 L 315 19 L 395 69 L 395 69 L 395 127 L 395 127 L 411 127 L 411 127 L 411 79 L 411 79 L 423 86 L 423 86 L 430 90 L 430 90 L 438 76 L 438 76 L 431 72 L 431 72 L 319 3 L 319 3 Z" />
</svg>