<svg xmlns="http://www.w3.org/2000/svg" viewBox="0 0 509 512">
  <path d="M 16 112 Q 16 86 29 64 L 29 64 L 29 64 Q 42 42 64 29 Q 87 16 112 16 Q 137 16 160 29 Q 182 42 195 64 Q 208 86 208 112 Q 208 138 195 160 Q 182 182 160 195 Q 137 208 112 208 Q 87 208 64 195 Q 42 182 29 160 Q 16 138 16 112 L 16 112 Z M 224 112 Q 223 64 191 33 L 191 33 L 191 33 Q 160 1 112 0 Q 64 1 33 33 Q 1 64 0 112 Q 1 160 33 191 Q 64 223 112 224 Q 162 223 194 188 L 249 235 L 249 235 L 274 256 L 274 256 L 194 324 L 194 324 Q 162 289 112 288 Q 64 289 33 321 Q 1 352 0 400 Q 1 448 33 479 Q 64 511 112 512 Q 160 511 191 479 Q 223 448 224 400 Q 223 364 204 336 L 509 78 L 509 78 L 499 66 L 499 66 L 287 246 L 287 246 L 262 225 L 262 225 L 204 176 L 204 176 Q 223 148 224 112 L 224 112 Z M 112 304 Q 138 304 160 317 L 160 317 L 160 317 Q 182 330 195 352 Q 208 375 208 400 Q 208 425 195 448 Q 182 470 160 483 Q 138 496 112 496 Q 86 496 64 483 Q 42 470 29 448 Q 16 425 16 400 Q 16 375 29 352 Q 42 330 64 317 Q 86 304 112 304 L 112 304 Z M 311 287 L 499 446 L 311 287 L 499 446 L 509 434 L 509 434 L 324 277 L 324 277 L 311 288 L 311 287 Z" />
</svg>