<svg xmlns="http://www.w3.org/2000/svg" viewBox="0 0 511 511">
  <path d="M 511 12 L 505 18 L 511 12 L 505 18 L 448 74 L 448 74 Q 481 114 480 163 Q 479 212 443 250 L 384 308 L 384 308 Q 384 314 384 319 Q 382 401 328 455 Q 274 509 192 511 Q 110 509 56 455 Q 2 401 0 319 Q 2 237 56 183 Q 110 129 192 127 Q 197 127 203 127 L 262 69 L 262 69 Q 299 32 348 31 Q 397 30 437 63 L 494 6 L 494 6 L 499 0 L 499 0 L 511 12 L 511 12 Z M 402 97 L 425 74 L 402 97 L 425 74 Q 391 46 348 47 Q 306 48 273 80 L 214 139 L 214 139 L 209 144 L 209 144 L 202 143 L 202 143 Q 197 143 192 143 Q 117 145 68 195 Q 18 244 16 319 Q 18 394 68 443 Q 117 493 192 495 Q 267 493 316 443 Q 366 394 368 319 Q 368 314 368 309 L 367 302 L 367 302 L 372 297 L 372 297 L 431 238 L 431 238 Q 463 205 464 163 Q 465 120 437 86 L 414 109 L 414 109 L 408 114 L 408 114 L 397 103 L 397 103 L 402 97 L 402 97 Z M 304 327 Q 303 371 274 401 L 274 401 L 274 401 Q 244 430 200 431 L 192 431 L 192 431 L 192 415 L 192 415 L 200 415 L 200 415 Q 237 414 262 389 Q 287 364 288 327 L 288 319 L 288 319 L 304 319 L 304 319 L 304 327 L 304 327 Z" />
</svg>