<svg xmlns="http://www.w3.org/2000/svg" viewBox="0 0 384 512">
  <path d="M 72 0 L 64 0 L 72 0 L 64 0 L 64 8 L 64 8 L 64 64 L 64 64 L 16 64 L 0 64 L 0 80 L 0 80 L 0 432 L 0 432 L 0 448 L 0 448 L 16 448 L 64 448 L 64 504 L 64 504 L 64 512 L 64 512 L 72 512 L 320 512 L 320 504 L 320 504 L 320 448 L 320 448 L 368 448 L 384 448 L 384 432 L 384 432 L 384 80 L 384 80 L 384 64 L 384 64 L 368 64 L 320 64 L 320 8 L 320 8 L 320 0 L 320 0 L 312 0 L 72 0 Z M 320 432 L 304 432 L 320 432 L 16 432 L 16 80 L 16 80 L 64 80 L 368 80 L 368 432 L 368 432 L 320 432 L 320 432 Z M 80 496 L 80 448 L 80 496 L 80 448 L 304 448 L 304 448 L 304 496 L 304 496 L 80 496 L 80 496 Z M 304 64 L 80 64 L 304 64 L 80 64 L 80 16 L 80 16 L 304 16 L 304 16 L 304 64 L 304 64 Z M 184 177 Q 166 160 142 160 L 139 160 L 139 160 Q 114 161 97 177 Q 81 194 80 219 Q 80 244 98 262 L 181 342 L 181 342 L 192 352 L 192 352 L 203 341 L 203 341 L 286 262 L 286 262 Q 304 244 304 219 Q 303 194 287 177 Q 270 161 245 160 L 243 160 L 243 160 Q 218 160 200 177 L 192 184 L 192 184 L 184 177 L 184 177 Z M 181 196 L 192 207 L 181 196 L 192 207 L 203 196 L 203 196 L 211 189 L 211 189 Q 224 176 242 176 L 245 176 L 245 176 Q 263 176 275 189 Q 288 201 288 219 Q 288 237 275 250 L 192 330 L 192 330 L 109 250 L 109 250 Q 96 237 96 219 Q 96 201 109 189 Q 121 176 139 176 L 142 176 L 142 176 Q 160 176 173 189 L 181 196 L 181 196 Z" />
</svg>