<svg xmlns="http://www.w3.org/2000/svg" viewBox="0 0 576 507">
  <path d="M 8 0 L 0 0 L 8 0 L 0 0 L 0 16 L 0 16 L 8 16 L 576 16 L 576 0 L 576 0 L 568 0 L 8 0 Z M 48 56 L 48 48 L 48 56 L 48 48 L 32 48 L 32 48 L 32 56 L 32 56 L 32 344 L 32 344 Q 33 351 40 352 L 280 352 L 280 352 L 280 405 L 280 405 L 194 490 L 194 490 L 189 496 L 189 496 L 200 507 L 200 507 L 206 502 L 206 502 L 288 419 L 288 419 L 370 502 L 370 502 L 376 507 L 376 507 L 387 496 L 387 496 L 382 490 L 382 490 L 296 405 L 296 405 L 296 352 L 296 352 L 536 352 L 536 352 Q 543 351 544 344 L 544 56 L 544 56 L 544 48 L 544 48 L 528 48 L 528 48 L 528 56 L 528 56 L 528 336 L 528 336 L 288 336 L 48 336 L 48 56 L 48 56 Z" />
</svg>