<svg xmlns="http://www.w3.org/2000/svg" viewBox="0 0 512 503">
  <path d="M 439 112 L 383 0 L 439 112 L 383 0 L 369 8 L 369 8 L 423 115 L 423 115 L 328 223 L 328 223 L 328 140 L 328 140 Q 326 97 290 77 L 283 73 L 283 73 L 279 80 L 279 80 L 256 123 L 256 123 L 233 80 L 233 80 L 229 73 L 229 73 L 222 77 L 222 77 Q 186 97 184 140 L 184 223 L 184 223 L 90 115 L 90 115 L 143 8 L 143 8 L 129 0 L 129 0 L 73 112 L 73 112 Q 71 117 74 121 L 171 232 L 171 232 L 38 197 L 38 197 L 16 130 L 16 130 L 0 135 L 0 135 L 24 207 L 24 207 Q 26 211 30 212 L 168 248 L 168 248 L 30 284 L 30 284 Q 26 285 24 290 L 0 362 L 0 362 L 16 367 L 16 367 L 38 299 L 38 299 L 154 268 L 154 268 L 74 375 L 74 375 Q 71 379 72 383 L 112 503 L 112 503 L 128 498 L 128 498 L 89 382 L 89 382 L 147 305 L 147 305 Q 144 316 144 328 L 144 336 L 144 336 Q 145 382 177 413 Q 209 443 256 444 Q 303 443 335 413 Q 367 382 368 336 L 368 328 L 368 328 Q 368 316 365 305 L 423 382 L 423 382 L 384 498 L 384 498 L 400 503 L 400 503 L 440 383 L 440 383 Q 441 379 438 375 L 358 268 L 358 268 L 474 299 L 474 299 L 496 367 L 496 367 L 512 362 L 512 362 L 488 290 L 488 290 Q 486 285 482 284 L 344 248 L 344 248 L 482 212 L 482 212 Q 486 211 488 207 L 512 135 L 512 135 L 496 129 L 496 129 L 474 197 L 474 197 L 341 232 L 341 232 L 438 121 L 438 121 Q 441 117 439 113 L 439 112 Z M 223 95 L 249 144 L 223 95 L 249 144 L 256 157 L 256 157 L 263 144 L 263 144 L 289 95 L 289 95 Q 311 111 312 140 L 312 249 L 312 249 L 312 253 L 312 253 L 315 256 L 315 256 Q 350 282 352 328 L 352 336 L 352 336 Q 351 375 324 401 Q 297 427 256 428 Q 215 427 188 401 Q 161 375 160 336 L 160 328 L 160 328 Q 162 282 197 256 L 200 253 L 200 253 L 200 249 L 200 249 L 200 140 L 200 140 Q 201 111 223 95 L 223 95 Z M 216 276 L 208 276 L 216 276 L 208 276 L 208 284 L 208 284 L 208 300 L 208 300 L 208 303 L 208 303 L 210 305 L 210 305 L 230 332 L 230 332 L 210 359 L 210 359 L 208 361 L 208 361 L 208 364 L 208 364 L 208 380 L 208 380 L 208 388 L 208 388 L 216 388 L 304 388 L 304 380 L 304 380 L 304 364 L 304 364 L 304 361 L 304 361 L 302 359 L 302 359 L 282 332 L 282 332 L 302 305 L 302 305 L 304 303 L 304 303 L 304 300 L 304 300 L 304 284 L 304 284 L 304 276 L 304 276 L 296 276 L 216 276 Z M 224 297 L 224 292 L 224 297 L 224 292 L 288 292 L 288 292 L 288 297 L 288 297 L 266 327 L 266 327 L 262 332 L 262 332 L 266 337 L 266 337 L 288 367 L 288 367 L 288 372 L 288 372 L 224 372 L 224 372 L 224 367 L 224 367 L 246 337 L 246 337 L 250 332 L 250 332 L 246 327 L 246 327 L 224 297 L 224 297 Z" />
</svg>