<svg xmlns="http://www.w3.org/2000/svg" viewBox="0 0 512 448">
  <path d="M 192 288 L 192 304 L 192 288 L 192 304 L 192 368 L 192 368 L 192 384 L 192 384 L 176 384 L 160 384 L 11 235 L 11 235 L 0 224 L 0 224 L 11 213 L 11 213 L 160 64 L 160 64 L 176 64 L 192 64 L 192 80 L 192 80 L 192 144 L 192 144 L 192 160 L 192 160 L 208 160 L 352 160 L 352 176 L 352 176 L 352 272 L 352 272 L 352 288 L 352 288 L 336 288 L 192 288 Z M 176 288 L 176 272 L 176 288 L 176 272 L 192 272 L 336 272 L 336 176 L 336 176 L 192 176 L 176 176 L 176 160 L 176 160 L 176 80 L 176 80 L 167 80 L 167 80 L 23 224 L 23 224 L 167 368 L 167 368 L 176 368 L 176 368 L 176 288 L 176 288 Z M 328 432 L 496 432 L 328 432 L 496 432 L 496 16 L 496 16 L 328 16 L 320 16 L 320 0 L 320 0 L 328 0 L 512 0 L 512 8 L 512 8 L 512 440 L 512 440 L 512 448 L 512 448 L 504 448 L 320 448 L 320 432 L 320 432 L 328 432 L 328 432 Z" />
</svg>