<svg xmlns="http://www.w3.org/2000/svg" viewBox="0 0 512 512">
  <path d="M 409.6 76.8 L 409.6 51.2 L 384 51.2 L 128 51.2 L 102.4 51.2 L 102.4 69.6 L 128 89.6 L 128 76.8 L 384 76.8 L 384 292 L 409.6 312 L 409.6 76.8 L 409.6 76.8 Z M 128 416 L 128 220 L 102.4 200 L 102.4 431.2 L 102.4 460.8 L 128 445.6 L 256 371.2 L 384 445.6 L 409.6 460.8 L 409.6 442.4 L 354.4 399.2 L 268.8 348.8 L 256 341.6 L 243.2 348.8 L 128 416 L 128 416 Z M 25.6 59.2 L 16 51.2 L 0 71.2 L 10.4 79.2 L 486.4 452.8 L 496 460.8 L 512 440.8 L 502.4 432.8 L 25.6 59.2 L 25.6 59.2 Z" />
</svg>