<svg xmlns="http://www.w3.org/2000/svg" viewBox="0 0 640 509">
  <path d="M 80 387 L 312 433 L 80 387 L 312 433 L 312 50 L 312 50 L 80 18 L 80 18 L 80 387 L 80 387 Z M 328 433 L 560 387 L 328 433 L 560 387 L 560 18 L 560 18 L 328 50 L 328 50 L 328 433 L 328 433 Z M 320 35 L 560 2 L 320 35 L 560 2 L 576 0 L 576 0 L 576 16 L 576 16 L 576 400 L 576 400 L 320 451 L 320 451 L 64 400 L 64 400 L 64 16 L 64 16 L 64 0 L 64 0 L 80 2 L 80 2 L 320 35 L 320 35 Z M 16 31 L 32 33 L 16 31 L 32 33 L 32 49 L 32 49 L 16 47 L 16 47 L 16 432 L 16 432 L 320 493 L 320 493 L 624 432 L 624 432 L 624 47 L 624 47 L 608 49 L 608 49 L 608 33 L 608 33 L 624 31 L 624 31 L 640 29 L 640 29 L 640 45 L 640 45 L 640 445 L 640 445 L 320 509 L 320 509 L 0 445 L 0 445 L 0 45 L 0 45 L 0 29 L 0 29 L 16 31 L 16 31 Z" />
</svg>