<svg xmlns="http://www.w3.org/2000/svg" viewBox="0 0 640 512">
  <path d="M 33 10 L 20 0 L 33 10 L 20 0 L 0 25 L 0 25 L 13 35 L 13 35 L 608 502 L 608 502 L 620 512 L 620 512 L 640 487 L 640 487 L 628 477 L 628 477 L 33 10 L 33 10 Z M 528 336 L 544 336 L 528 336 L 544 336 L 544 304 L 544 304 L 528 304 L 484 304 L 525 336 L 525 336 L 528 336 L 528 336 Z M 528 208 L 544 208 L 528 208 L 544 208 L 544 176 L 544 176 L 528 176 L 322 176 L 363 208 L 363 208 L 528 208 L 528 208 Z M 156 208 L 115 176 L 156 208 L 115 176 L 112 176 L 96 176 L 96 208 L 96 208 L 112 208 L 156 208 Z M 528 48 L 160 48 L 528 48 L 160 48 L 200 80 L 200 80 L 528 80 L 544 80 L 544 48 L 544 48 L 528 48 L 528 48 Z M 318 336 L 278 304 L 318 336 L 278 304 L 112 304 L 96 304 L 96 336 L 96 336 L 112 336 L 318 336 Z M 440 432 L 112 432 L 440 432 L 96 432 L 96 464 L 96 464 L 112 464 L 480 464 L 440 432 L 440 432 Z" />
</svg>