<svg xmlns="http://www.w3.org/2000/svg" viewBox="0 0 512 512">
  <path d="M 256 16 Q 321 17 376 48 L 376 48 L 376 48 Q 431 80 464 136 Q 496 193 496 256 Q 496 319 464 376 Q 431 432 376 464 Q 321 495 256 496 Q 191 495 136 464 Q 81 432 48 376 Q 16 319 16 256 Q 16 193 48 136 Q 81 80 136 48 Q 191 17 256 16 L 256 16 Z M 256 512 Q 326 511 384 478 L 384 478 L 384 478 Q 442 444 478 384 Q 512 323 512 256 Q 512 189 478 128 Q 442 68 384 34 Q 326 1 256 0 Q 186 1 128 34 Q 70 68 34 128 Q 0 189 0 256 Q 0 323 34 384 Q 70 444 128 478 Q 186 511 256 512 L 256 512 Z M 411 231 Q 367 189 312 175 L 312 175 L 312 175 Q 256 161 200 175 L 200 175 L 200 175 Q 145 189 101 231 L 90 241 L 90 241 L 86 246 L 86 246 L 89 251 L 89 251 L 127 308 L 127 308 L 130 313 L 130 313 L 135 312 L 135 312 L 210 291 L 210 291 L 217 289 L 217 289 L 216 282 L 216 282 L 211 240 L 211 240 Q 256 228 301 240 L 296 282 L 296 282 L 295 289 L 295 289 L 302 291 L 302 291 L 377 312 L 377 312 L 382 313 L 382 313 L 385 308 L 385 308 L 423 251 L 423 251 L 426 246 L 426 246 L 422 241 L 422 241 L 411 231 L 411 231 Z M 112 242 Q 175 184 256 184 L 256 184 L 256 184 Q 337 184 400 242 Q 400 242 400 242 Q 400 242 400 242 L 406 248 L 406 248 L 375 295 L 375 295 L 313 277 L 313 277 L 318 235 L 318 235 L 318 228 L 318 228 L 312 227 L 312 227 Q 256 210 200 227 L 194 228 L 194 228 L 195 235 L 195 235 L 199 277 L 199 277 L 137 295 L 137 295 L 107 248 L 107 248 L 113 242 L 112 242 Z" />
</svg>