<svg xmlns="http://www.w3.org/2000/svg" viewBox="0 0 384 512">
  <path d="M 16 496 L 368 496 L 16 496 L 368 496 L 368 176 L 368 176 L 216 176 L 208 176 L 208 168 L 208 168 L 208 16 L 208 16 L 16 16 L 16 16 L 16 496 L 16 496 Z M 361 160 L 224 23 L 361 160 L 224 23 L 224 160 L 224 160 L 361 160 L 361 160 Z M 16 0 L 224 0 L 16 0 L 224 0 L 384 160 L 384 160 L 384 496 L 384 496 L 384 512 L 384 512 L 368 512 L 0 512 L 0 496 L 0 496 L 0 16 L 0 16 L 0 0 L 0 0 L 16 0 L 16 0 Z M 192 416 L 176 416 L 192 416 L 64 416 L 64 400 L 64 400 L 64 344 L 64 344 L 96 224 L 96 224 L 160 224 L 160 224 L 192 344 L 192 344 L 192 400 L 192 400 L 192 416 L 192 416 Z M 108 240 L 80 346 L 108 240 L 80 346 L 80 400 L 80 400 L 176 400 L 176 400 L 176 346 L 176 346 L 148 240 L 148 240 L 108 240 L 108 240 Z M 112 344 L 144 344 L 112 344 L 152 344 L 152 360 L 152 360 L 144 360 L 104 360 L 104 344 L 104 344 L 112 344 L 112 344 Z M 104 32 L 152 32 L 104 32 L 160 32 L 160 48 L 160 48 L 152 48 L 96 48 L 96 32 L 96 32 L 104 32 L 104 32 Z M 104 64 L 152 64 L 104 64 L 160 64 L 160 80 L 160 80 L 152 80 L 96 80 L 96 64 L 96 64 L 104 64 L 104 64 Z M 104 96 L 152 96 L 104 96 L 160 96 L 160 112 L 160 112 L 152 112 L 96 112 L 96 96 L 96 96 L 104 96 L 104 96 Z M 104 128 L 152 128 L 104 128 L 160 128 L 160 144 L 160 144 L 152 144 L 96 144 L 96 128 L 96 128 L 104 128 L 104 128 Z M 104 160 L 152 160 L 104 160 L 160 160 L 160 176 L 160 176 L 152 176 L 96 176 L 96 160 L 96 160 L 104 160 L 104 160 Z M 104 192 L 152 192 L 104 192 L 160 192 L 160 208 L 160 208 L 152 208 L 96 208 L 96 192 L 96 192 L 104 192 L 104 192 Z" />
</svg>