<svg xmlns="http://www.w3.org/2000/svg" viewBox="0 0 640 512">
  <path d="M 16 5 L 10 0 L 16 5 L 10 0 L 0 13 L 0 13 L 6 18 L 6 18 L 624 507 L 624 507 L 630 512 L 630 512 L 640 500 L 640 500 L 634 495 L 634 495 L 16 5 L 16 5 Z M 349 187 L 390 48 L 349 187 L 390 48 L 558 48 L 558 48 L 542 112 L 542 112 L 558 112 L 558 112 L 576 42 L 576 42 L 578 32 L 578 32 L 568 32 L 384 32 L 384 32 L 384 32 L 168 32 L 162 32 L 160 38 L 160 38 Q 160 38 160 38 L 174 49 L 174 49 L 174 48 L 174 48 L 373 48 L 373 48 L 335 176 L 335 176 L 349 187 L 349 187 Z M 305 336 L 291 325 L 305 336 L 291 325 L 250 464 L 250 464 L 168 464 L 160 464 L 160 480 L 160 480 L 168 480 L 256 480 L 256 480 L 256 480 L 344 480 L 352 480 L 352 464 L 352 464 L 344 464 L 267 464 L 305 336 L 305 336 Z" />
</svg>