<svg xmlns="http://www.w3.org/2000/svg" viewBox="0 0 512 512">
  <path d="M 246 13 L 10 308 L 246 13 L 10 308 L 0 320 L 0 320 L 13 330 L 13 330 L 248 506 L 248 506 L 256 512 L 256 512 L 264 506 L 264 506 L 499 330 L 499 330 L 512 320 L 512 320 L 502 308 L 502 308 L 266 13 L 266 13 L 264 10 L 264 10 L 256 0 L 256 0 L 248 10 L 248 10 L 246 13 L 246 13 Z M 248 36 L 248 486 L 248 36 L 248 486 L 23 317 L 23 317 L 248 36 L 248 36 Z M 264 486 L 264 36 L 264 486 L 264 36 L 489 317 L 489 317 L 264 486 L 264 486 Z" />
</svg>