<svg xmlns="http://www.w3.org/2000/svg" viewBox="0 0 640 384">
  <path d="M 392 353 L 234 38 L 392 353 L 234 38 Q 195 61 171 99 L 305 367 L 305 367 Q 312 368 320 368 Q 358 368 392 353 L 392 353 Z M 406 346 Q 445 323 470 285 L 335 17 L 335 17 Q 328 16 320 16 Q 282 16 249 31 L 406 346 L 406 346 Z M 507 235 L 600 281 L 507 235 L 600 281 L 612 265 L 612 265 L 586 239 L 586 239 L 567 220 L 567 220 L 593 212 L 593 212 L 624 203 L 624 203 L 624 181 L 624 181 L 593 172 L 593 172 L 567 164 L 567 164 L 586 145 L 586 145 L 612 119 L 612 119 L 600 103 L 600 103 L 507 149 L 507 149 Q 512 170 512 192 Q 512 214 507 235 L 507 235 Z M 503 250 Q 479 323 413 360 Q 413 360 413 360 Q 413 360 413 360 Q 406 364 399 367 Q 399 367 399 367 Q 399 367 399 367 Q 362 384 320 384 Q 316 384 313 384 Q 313 384 313 384 Q 303 384 294 382 Q 294 382 294 382 Q 294 382 294 382 Q 238 374 196 339 Q 154 303 137 250 L 35 301 L 35 301 L 7 263 L 7 263 L 30 240 L 30 240 L 43 227 L 43 227 L 25 222 L 25 222 L 0 215 L 0 215 L 0 169 L 0 169 L 25 162 L 25 162 L 43 157 L 43 157 L 30 144 L 30 144 L 7 121 L 7 121 L 35 83 L 35 83 L 137 134 L 137 134 Q 161 61 227 24 Q 227 24 227 24 Q 227 24 227 24 Q 234 20 241 17 Q 241 17 241 17 Q 241 17 241 17 Q 278 0 320 0 Q 324 0 327 0 Q 327 0 327 0 Q 337 0 346 2 Q 346 2 346 2 Q 346 2 346 2 Q 402 10 444 45 Q 486 81 503 134 L 605 83 L 605 83 L 633 121 L 633 121 L 610 144 L 610 144 L 597 157 L 597 157 L 615 162 L 615 162 L 640 169 L 640 169 L 640 215 L 640 215 L 615 222 L 615 222 L 597 227 L 597 227 L 610 240 L 610 240 L 633 263 L 633 263 L 605 301 L 605 301 L 503 250 L 503 250 Z M 40 103 L 28 119 L 40 103 L 28 119 L 54 145 L 54 145 L 73 164 L 73 164 L 47 172 L 47 172 L 16 181 L 16 181 L 16 203 L 16 203 L 47 212 L 47 212 L 73 220 L 73 220 L 54 239 L 54 239 L 28 265 L 28 265 L 40 281 L 40 281 L 133 235 L 133 235 Q 128 214 128 192 Q 128 170 133 149 L 40 103 L 40 103 Z M 285 365 L 161 116 L 285 365 L 161 116 Q 144 151 144 192 Q 145 257 184 304 Q 224 351 285 365 L 285 365 Z M 355 19 L 479 268 L 355 19 L 479 268 Q 496 233 496 192 Q 495 127 456 80 Q 416 33 355 19 L 355 19 Z" />
</svg>