<svg xmlns="http://www.w3.org/2000/svg" viewBox="0 0 512 512">
  <path d="M 160 416 L 144 416 L 160 416 L 0 416 L 0 400 L 0 400 L 0 16 L 0 16 L 0 0 L 0 0 L 16 0 L 512 0 L 512 16 L 512 16 L 512 400 L 512 400 L 512 416 L 512 416 L 496 416 L 304 416 L 176 501 L 176 501 L 160 512 L 160 512 L 160 493 L 160 493 L 160 432 L 160 432 L 160 416 L 160 416 Z M 160 400 L 176 400 L 160 400 L 176 400 L 176 416 L 176 416 L 176 482 L 176 482 L 295 403 L 295 403 L 299 400 L 299 400 L 304 400 L 496 400 L 496 16 L 496 16 L 16 16 L 16 16 L 16 400 L 16 400 L 160 400 L 160 400 Z M 264 104 L 264 277 L 264 104 L 264 277 L 338 202 L 338 202 L 344 197 L 344 197 L 355 208 L 355 208 L 350 214 L 350 214 L 262 302 L 262 302 L 256 307 L 256 307 L 250 302 L 250 302 L 162 214 L 162 214 L 156 208 L 156 208 L 168 197 L 168 197 L 174 202 L 174 202 L 248 277 L 248 277 L 248 104 L 248 104 L 248 96 L 248 96 L 264 96 L 264 96 L 264 104 L 264 104 Z" />
</svg>