<svg xmlns="http://www.w3.org/2000/svg" viewBox="0 0 640 512">
  <path d="M 512 512 Q 433 512 362 486 L 362 486 L 362 486 Q 292 461 234 416 L 247 405 L 247 405 Q 302 448 369 472 Q 437 496 512 496 L 531 496 L 531 496 L 558 376 L 558 376 L 436 309 L 436 309 L 377 382 L 377 382 L 369 392 L 369 392 L 357 386 L 357 386 Q 332 373 309 356 L 322 346 L 322 346 Q 343 360 365 372 L 432 288 L 432 288 L 576 368 L 576 368 L 544 512 L 544 512 L 512 512 L 512 512 Z M 80 64 Q 82 196 149 299 L 137 309 L 137 309 Q 66 201 64 64 L 64 32 L 64 32 L 208 0 L 208 0 L 288 144 L 288 144 L 204 211 L 204 211 Q 212 227 222 242 L 209 252 L 209 252 Q 199 235 190 219 L 184 207 L 184 207 L 194 199 L 194 199 L 267 140 L 267 140 L 200 18 L 200 18 L 80 45 L 80 45 L 80 64 L 80 64 Q 80 64 80 64 Q 80 64 80 64 L 80 64 Z M 624 5 L 630 0 L 624 5 L 630 0 L 640 13 L 640 13 L 634 18 L 634 18 L 16 507 L 16 507 L 10 512 L 10 512 L 0 500 L 0 500 L 6 495 L 6 495 L 624 5 L 624 5 Z" />
</svg>