<svg xmlns="http://www.w3.org/2000/svg" viewBox="0 0 448 512">
  <path d="M 16 190 L 124 255 L 16 190 L 124 255 L 126 256 L 126 256 L 128 256 L 322 256 L 324 255 L 324 255 L 432 190 L 432 190 L 432 299 L 432 299 L 318 368 L 318 368 L 130 368 L 130 368 L 16 300 L 16 300 L 16 190 L 16 190 Z M 16 171 L 16 89 L 16 171 L 16 89 L 133 16 L 133 16 L 315 16 L 315 16 L 432 89 L 432 89 L 432 172 L 432 172 L 318 240 L 318 240 L 130 240 L 130 240 L 16 172 L 16 171 Z M 16 423 L 16 318 L 16 423 L 16 318 L 124 383 L 124 383 L 126 384 L 126 384 L 128 384 L 322 384 L 324 383 L 324 383 L 432 318 L 432 318 L 432 423 L 432 423 L 315 496 L 315 496 L 133 496 L 133 496 L 16 423 L 16 423 Z M 128 0 L 0 80 L 128 0 L 0 80 L 0 432 L 0 432 L 128 512 L 128 512 L 320 512 L 320 512 L 448 432 L 448 432 L 448 80 L 448 80 L 320 0 L 320 0 L 128 0 L 128 0 Z" />
</svg>