<svg xmlns="http://www.w3.org/2000/svg" viewBox="0 0 640 512">
  <path d="M 327 146 L 324 144 L 327 146 L 324 144 L 320 144 L 272 144 L 272 46 L 272 46 L 447 16 L 447 16 L 624 76 L 624 76 L 624 164 L 624 164 L 450 207 L 450 207 L 327 146 L 327 146 Z M 256 160 L 272 160 L 256 160 L 320 160 L 448 224 L 448 224 L 640 176 L 640 176 L 640 64 L 640 64 L 448 0 L 448 0 L 256 32 L 256 32 L 256 144 L 256 144 L 256 160 L 256 160 Z M 199 366 L 322 305 L 199 366 L 322 305 L 496 349 L 496 349 L 496 437 L 496 437 L 319 496 L 319 496 L 144 466 L 144 466 L 144 368 L 144 368 L 192 368 L 196 368 L 199 366 L 199 366 Z M 128 352 L 128 368 L 128 352 L 128 368 L 128 480 L 128 480 L 320 512 L 320 512 L 512 448 L 512 448 L 512 336 L 512 336 L 320 288 L 320 288 L 192 352 L 192 352 L 144 352 L 128 352 Z M 0 352 L 0 360 L 0 352 L 0 360 L 0 472 L 0 472 L 0 480 L 0 480 L 8 480 L 96 480 L 96 464 L 96 464 L 16 464 L 16 464 L 16 368 L 16 368 L 96 368 L 96 368 L 96 352 L 96 352 L 8 352 L 0 352 Z M 136 160 L 224 160 L 136 160 L 224 160 L 224 144 L 224 144 L 144 144 L 144 144 L 144 48 L 144 48 L 224 48 L 224 48 L 224 32 L 224 32 L 136 32 L 128 32 L 128 40 L 128 40 L 128 152 L 128 152 L 128 160 L 128 160 L 136 160 L 136 160 Z" />
</svg>