<svg xmlns="http://www.w3.org/2000/svg" viewBox="0 0 640 480">
  <path d="M 300 52 Q 302 34 320 32 Q 338 34 340 52 Q 338 70 320 72 Q 302 70 300 52 L 300 52 Z M 342 99 Q 370 85 372 52 Q 372 30 357 15 Q 342 1 320 0 Q 298 1 283 15 Q 269 30 268 52 Q 270 85 298 99 L 192 192 L 192 192 L 88 171 L 88 171 Q 96 159 96 144 Q 95 124 82 110 Q 68 97 48 96 Q 28 97 14 110 Q 1 124 0 144 Q 0 164 14 177 Q 27 191 46 192 L 48 196 L 48 196 L 176 480 L 176 480 L 464 480 L 464 480 L 592 196 L 592 196 L 594 192 L 594 192 Q 614 191 627 177 Q 640 164 640 144 Q 640 124 626 110 Q 612 97 592 96 Q 572 97 558 110 Q 545 124 544 144 Q 544 159 553 171 L 448 192 L 448 192 L 342 99 L 342 99 Z M 48 192 L 48 192 L 48 192 L 48 192 L 48 192 L 48 192 L 48 192 L 48 192 L 48 192 L 48 192 Z M 439 227 L 454 223 L 439 227 L 454 223 L 553 204 L 553 204 L 443 448 L 443 448 L 197 448 L 197 448 L 87 204 L 87 204 L 186 223 L 186 223 L 201 227 L 201 227 L 213 216 L 213 216 L 320 123 L 320 123 L 427 216 L 427 216 L 439 227 L 439 227 Z M 592 128 Q 607 129 608 144 Q 607 159 592 160 Q 577 159 576 144 Q 577 129 592 128 L 592 128 Z M 320 104 Q 320 104 320 104 L 320 104 L 320 104 Q 320 104 320 104 L 320 104 L 320 104 L 320 104 L 320 104 Z M 32 144 Q 33 129 48 128 Q 63 129 64 144 Q 63 159 48 160 Q 33 159 32 144 L 32 144 Z" />
</svg>