<svg xmlns="http://www.w3.org/2000/svg" viewBox="0 0 448 512">
  <path d="M 112 8 L 112 0 L 112 8 L 112 0 L 96 0 L 96 0 L 96 8 L 96 8 L 96 17 L 96 17 Q 97 44 119 59 L 161 83 L 161 83 Q 175 93 176 111 L 176 120 L 176 120 L 176 128 L 176 128 L 192 128 L 192 128 L 192 120 L 192 120 L 192 111 L 192 111 Q 191 84 169 69 L 128 45 L 128 45 Q 113 35 112 17 L 112 8 L 112 8 Z M 208 8 L 208 0 L 208 8 L 208 0 L 192 0 L 192 0 L 192 8 L 192 8 L 192 17 L 192 17 Q 193 44 215 59 L 257 83 L 257 83 Q 271 93 272 111 L 272 120 L 272 120 L 272 128 L 272 128 L 288 128 L 288 128 L 288 120 L 288 120 L 288 111 L 288 111 Q 287 84 265 69 L 224 45 L 224 45 Q 209 35 208 17 L 208 8 L 208 8 Z M 139 377 Q 164 384 192 384 L 256 384 L 256 384 Q 284 384 309 377 L 338 440 L 338 440 L 160 440 L 160 440 Q 155 410 131 394 L 139 377 L 139 377 Z M 123 371 L 116 387 L 123 371 L 116 387 Q 107 384 96 384 Q 69 385 51 403 Q 33 421 32 448 Q 33 475 51 493 Q 69 511 96 512 Q 121 511 138 496 Q 156 480 159 456 L 345 456 L 345 456 L 366 502 L 366 502 L 370 510 L 370 510 L 384 503 L 384 503 L 381 496 L 381 496 L 325 371 L 325 371 Q 380 350 413 302 Q 447 254 448 192 L 448 176 L 448 176 L 448 160 L 448 160 L 432 160 L 0 160 L 0 176 L 0 176 L 0 192 L 0 192 Q 1 254 35 302 Q 68 350 124 371 L 123 371 Z M 96 400 Q 123 401 138 424 Q 150 448 138 472 Q 123 495 96 496 Q 69 495 54 472 Q 42 448 54 424 Q 69 401 96 400 L 96 400 Z M 16 176 L 432 176 L 16 176 L 432 176 L 432 192 L 432 192 Q 430 267 380 316 Q 331 366 256 368 L 192 368 L 192 368 Q 117 366 68 316 Q 18 267 16 192 L 16 176 L 16 176 Z" />
</svg>