<svg xmlns="http://www.w3.org/2000/svg" viewBox="0 0 576 512">
  <path d="M 272 16 L 304 16 L 272 16 L 304 16 L 304 48 L 304 48 L 272 48 L 272 48 L 272 16 L 272 16 Z M 256 0 L 256 16 L 256 0 L 256 16 L 256 48 L 256 48 L 256 64 L 256 64 L 272 64 L 320 64 L 320 48 L 320 48 L 320 16 L 320 16 L 320 0 L 320 0 L 304 0 L 256 0 Z M 80 80 L 112 80 L 80 80 L 112 80 L 112 112 L 112 112 L 80 112 L 80 112 L 80 80 L 80 80 Z M 64 64 L 64 80 L 64 64 L 64 80 L 64 112 L 64 112 L 64 128 L 64 128 L 80 128 L 128 128 L 128 112 L 128 112 L 128 80 L 128 80 L 128 64 L 128 64 L 112 64 L 64 64 Z M 464 80 L 496 80 L 464 80 L 496 80 L 496 112 L 496 112 L 464 112 L 464 112 L 464 80 L 464 80 Z M 448 64 L 448 80 L 448 64 L 448 80 L 448 112 L 448 112 L 448 128 L 448 128 L 464 128 L 512 128 L 512 112 L 512 112 L 512 80 L 512 80 L 512 64 L 512 64 L 496 64 L 448 64 Z M 560 272 L 560 304 L 560 272 L 560 304 L 528 304 L 528 304 L 528 272 L 528 272 L 560 272 L 560 272 Z M 528 256 L 512 256 L 528 256 L 512 256 L 512 272 L 512 272 L 512 304 L 512 304 L 512 320 L 512 320 L 528 320 L 576 320 L 576 304 L 576 304 L 576 272 L 576 272 L 576 256 L 576 256 L 560 256 L 528 256 Z M 464 464 L 496 464 L 464 464 L 496 464 L 496 496 L 496 496 L 464 496 L 464 496 L 464 464 L 464 464 Z M 448 448 L 448 464 L 448 448 L 448 464 L 448 496 L 448 496 L 448 512 L 448 512 L 464 512 L 512 512 L 512 496 L 512 496 L 512 464 L 512 464 L 512 448 L 512 448 L 496 448 L 448 448 Z M 112 464 L 112 496 L 112 464 L 112 496 L 80 496 L 80 496 L 80 464 L 80 464 L 112 464 L 112 464 Z M 80 448 L 64 448 L 80 448 L 64 448 L 64 464 L 64 464 L 64 496 L 64 496 L 64 512 L 64 512 L 80 512 L 128 512 L 128 496 L 128 496 L 128 464 L 128 464 L 128 448 L 128 448 L 112 448 L 80 448 Z M 48 272 L 48 304 L 48 272 L 48 304 L 16 304 L 16 304 L 16 272 L 16 272 L 48 272 L 48 272 Z M 16 256 L 0 256 L 16 256 L 0 256 L 0 272 L 0 272 L 0 304 L 0 304 L 0 320 L 0 320 L 16 320 L 64 320 L 64 304 L 64 304 L 64 272 L 64 272 L 64 256 L 64 256 L 48 256 L 16 256 Z M 280 288 L 280 432 L 280 288 L 280 432 Q 222 427 184 387 Q 145 347 144 288 Q 146 227 186 186 Q 227 146 288 144 Q 349 146 390 186 Q 430 227 432 288 Q 431 347 392 387 Q 354 427 296 432 L 296 288 L 296 288 L 296 280 L 296 280 L 280 280 L 280 280 L 280 288 L 280 288 Z M 288 448 Q 331 448 368 427 L 368 427 L 368 427 Q 405 405 427 368 Q 448 330 448 288 Q 448 246 427 208 Q 405 171 368 149 Q 331 128 288 128 Q 245 128 208 149 Q 171 171 149 208 Q 128 246 128 288 Q 128 330 149 368 Q 171 405 208 427 Q 245 448 288 448 L 288 448 Z" />
</svg>