<svg xmlns="http://www.w3.org/2000/svg" viewBox="0 0 576 511">
  <path d="M 16 16 L 16 272 L 16 16 L 16 272 L 560 272 L 560 272 L 560 16 L 560 16 L 16 16 L 16 16 Z M 0 0 L 16 0 L 0 0 L 576 0 L 576 16 L 576 16 L 576 272 L 576 272 L 576 288 L 576 288 L 560 288 L 0 288 L 0 272 L 0 272 L 0 16 L 0 16 L 0 0 L 0 0 Z M 80 176 L 80 208 L 80 176 L 80 208 L 112 208 L 112 208 L 112 176 L 112 176 L 80 176 L 80 176 Z M 64 160 L 80 160 L 64 160 L 128 160 L 128 176 L 128 176 L 128 208 L 128 208 L 128 224 L 128 224 L 112 224 L 64 224 L 64 208 L 64 208 L 64 176 L 64 176 L 64 160 L 64 160 Z M 208 80 L 176 80 L 208 80 L 176 80 L 176 112 L 176 112 L 208 112 L 208 112 L 208 80 L 208 80 Z M 176 64 L 208 64 L 176 64 L 224 64 L 224 80 L 224 80 L 224 112 L 224 112 L 224 128 L 224 128 L 208 128 L 160 128 L 160 112 L 160 112 L 160 80 L 160 80 L 160 64 L 160 64 L 176 64 L 176 64 Z M 176 176 L 176 208 L 176 176 L 176 208 L 400 208 L 400 208 L 400 176 L 400 176 L 176 176 L 176 176 Z M 160 160 L 176 160 L 160 160 L 416 160 L 416 176 L 416 176 L 416 208 L 416 208 L 416 224 L 416 224 L 400 224 L 160 224 L 160 208 L 160 208 L 160 176 L 160 176 L 160 160 L 160 160 Z M 496 176 L 464 176 L 496 176 L 464 176 L 464 208 L 464 208 L 496 208 L 496 208 L 496 176 L 496 176 Z M 464 160 L 496 160 L 464 160 L 512 160 L 512 176 L 512 176 L 512 208 L 512 208 L 512 224 L 512 224 L 496 224 L 448 224 L 448 208 L 448 208 L 448 176 L 448 176 L 448 160 L 448 160 L 464 160 L 464 160 Z M 80 80 L 80 112 L 80 80 L 80 112 L 112 112 L 112 112 L 112 80 L 112 80 L 80 80 L 80 80 Z M 64 64 L 80 64 L 64 64 L 128 64 L 128 80 L 128 80 L 128 112 L 128 112 L 128 128 L 128 128 L 112 128 L 64 128 L 64 112 L 64 112 L 64 80 L 64 80 L 64 64 L 64 64 Z M 304 80 L 272 80 L 304 80 L 272 80 L 272 112 L 272 112 L 304 112 L 304 112 L 304 80 L 304 80 Z M 272 64 L 304 64 L 272 64 L 320 64 L 320 80 L 320 80 L 320 112 L 320 112 L 320 128 L 320 128 L 304 128 L 256 128 L 256 112 L 256 112 L 256 80 L 256 80 L 256 64 L 256 64 L 272 64 L 272 64 Z M 368 80 L 368 112 L 368 80 L 368 112 L 400 112 L 400 112 L 400 80 L 400 80 L 368 80 L 368 80 Z M 352 64 L 368 64 L 352 64 L 416 64 L 416 80 L 416 80 L 416 112 L 416 112 L 416 128 L 416 128 L 400 128 L 352 128 L 352 112 L 352 112 L 352 80 L 352 80 L 352 64 L 352 64 Z M 496 80 L 464 80 L 496 80 L 464 80 L 464 112 L 464 112 L 496 112 L 496 112 L 496 80 L 496 80 Z M 464 64 L 496 64 L 464 64 L 512 64 L 512 80 L 512 80 L 512 112 L 512 112 L 512 128 L 512 128 L 496 128 L 448 128 L 448 112 L 448 112 L 448 80 L 448 80 L 448 64 L 448 64 L 464 64 L 464 64 Z M 150 350 L 288 488 L 150 350 L 288 488 L 426 350 L 426 350 L 432 344 L 432 344 L 443 355 L 443 355 L 438 361 L 438 361 L 294 505 L 294 505 L 288 511 L 288 511 L 282 505 L 282 505 L 138 361 L 138 361 L 132 355 L 132 355 L 144 344 L 144 344 L 150 350 L 150 350 Z" />
</svg>