<svg xmlns="http://www.w3.org/2000/svg" viewBox="0 0 512 512">
  <path d="M 465 375 L 379 407 L 465 375 L 379 407 L 377 408 L 377 408 L 375 407 L 375 407 L 177 382 L 177 382 L 168 479 L 168 479 Q 209 496 256 496 Q 324 495 378 462 Q 433 430 465 375 L 465 375 Z M 475 354 Q 496 308 496 256 Q 496 247 495 238 L 403 279 L 403 279 L 401 280 L 401 280 L 399 280 L 399 280 L 260 265 L 260 265 L 185 367 L 185 367 L 375 391 L 375 391 L 475 353 L 475 354 Z M 493 221 Q 479 132 414 75 L 414 75 L 414 75 Q 348 18 256 16 Q 256 16 255 16 Q 255 16 254 16 L 325 74 L 325 74 L 327 75 L 327 75 L 327 77 L 327 77 L 404 261 L 404 261 L 493 221 L 493 221 Z M 231 17 Q 169 24 120 58 L 203 117 L 203 117 L 204 118 L 204 118 L 205 120 L 205 120 L 262 249 L 262 249 L 387 263 L 387 263 L 313 85 L 313 85 L 231 17 L 231 17 Z M 107 68 Q 65 101 41 150 L 41 150 L 41 150 Q 16 198 16 256 Q 17 323 49 377 L 64 287 L 64 287 L 64 285 L 64 285 L 65 284 L 65 284 L 187 125 L 187 125 L 107 68 L 107 68 Z M 62 397 Q 98 446 152 473 L 162 372 L 162 372 L 162 370 L 162 370 L 164 368 L 164 368 L 247 255 L 247 255 L 196 139 L 196 139 L 79 292 L 79 292 L 62 397 L 62 397 Z M 0 256 Q 1 186 34 128 L 34 128 L 34 128 Q 68 70 128 34 Q 189 0 256 0 Q 323 0 384 34 Q 444 70 478 128 Q 511 186 512 256 Q 511 326 478 384 Q 444 442 384 478 Q 323 512 256 512 Q 189 512 128 478 Q 68 442 34 384 Q 1 326 0 256 L 0 256 Z" />
</svg>