<svg xmlns="http://www.w3.org/2000/svg" viewBox="0 0 448 512">
  <path d="M 241 167 L 224 150 L 241 167 L 224 150 L 207 167 L 207 167 L 79 295 L 79 295 L 62 312 L 62 312 L 96 346 L 96 346 L 113 329 L 113 329 L 200 242 L 200 242 L 200 488 L 200 488 L 200 512 L 200 512 L 248 512 L 248 512 L 248 488 L 248 488 L 248 242 L 248 242 L 335 329 L 335 329 L 352 346 L 352 346 L 386 312 L 386 312 L 369 295 L 369 295 L 241 167 L 241 167 Z M 48 168 L 48 48 L 48 168 L 48 48 L 400 48 L 400 48 L 400 168 L 400 168 L 400 192 L 400 192 L 448 192 L 448 192 L 448 168 L 448 168 L 448 24 L 448 24 L 448 0 L 448 0 L 424 0 L 0 0 L 0 24 L 0 24 L 0 168 L 0 168 L 0 192 L 0 192 L 48 192 L 48 192 L 48 168 L 48 168 Z" />
</svg>