<svg xmlns="http://www.w3.org/2000/svg" viewBox="0 0 512 512">
  <path d="M 8 0 L 0 0 L 8 0 L 0 0 L 0 8 L 0 8 L 0 152 L 0 152 L 0 160 L 0 160 L 16 160 L 16 160 L 16 152 L 16 152 L 16 16 L 16 16 L 152 16 L 160 16 L 160 0 L 160 0 L 152 0 L 8 0 Z M 504 0 L 360 0 L 504 0 L 352 0 L 352 16 L 352 16 L 360 16 L 496 16 L 496 152 L 496 152 L 496 160 L 496 160 L 512 160 L 512 160 L 512 152 L 512 152 L 512 8 L 512 8 L 512 0 L 512 0 L 504 0 L 504 0 Z M 0 512 L 8 512 L 0 512 L 160 512 L 160 496 L 160 496 L 152 496 L 16 496 L 16 360 L 16 360 L 16 352 L 16 352 L 0 352 L 0 352 L 0 360 L 0 360 L 0 504 L 0 504 L 0 512 L 0 512 Z M 504 512 L 512 512 L 504 512 L 512 512 L 512 504 L 512 504 L 512 360 L 512 360 L 512 352 L 512 352 L 496 352 L 496 352 L 496 360 L 496 360 L 496 496 L 496 496 L 360 496 L 352 496 L 352 512 L 352 512 L 360 512 L 504 512 Z M 224 224 Q 223 209 208 208 Q 193 209 192 224 Q 193 239 208 240 Q 223 239 224 224 L 224 224 Z M 304 240 Q 319 239 320 224 Q 319 209 304 208 Q 289 209 288 224 Q 289 239 304 240 L 304 240 Z M 256 112 Q 295 112 328 131 L 328 131 L 328 131 Q 361 150 381 184 Q 400 218 400 256 Q 400 294 381 328 Q 361 362 328 381 Q 295 400 256 400 Q 217 400 184 381 Q 151 362 131 328 Q 112 294 112 256 Q 112 218 131 184 Q 151 150 184 131 Q 217 112 256 112 L 256 112 Z M 256 416 Q 299 416 336 395 L 336 395 L 336 395 Q 373 373 395 336 Q 416 298 416 256 Q 416 214 395 176 Q 373 139 336 117 Q 299 96 256 96 Q 213 96 176 117 Q 139 139 117 176 Q 96 214 96 256 Q 96 298 117 336 Q 139 373 176 395 Q 213 416 256 416 L 256 416 Z M 256 320 Q 224 319 208 292 L 194 300 L 194 300 Q 214 334 256 336 Q 298 334 319 300 L 305 292 L 305 292 Q 289 319 256 320 L 256 320 Z" />
</svg>