<svg xmlns="http://www.w3.org/2000/svg" viewBox="0 0 571 438">
  <path d="M 96 5 L 91 0 L 96 5 L 91 0 L 86 5 L 86 5 L 6 77 L 6 77 L 0 82 L 0 82 L 10 94 L 10 94 L 16 89 L 16 89 L 83 29 L 83 29 L 83 409 L 83 409 L 16 349 L 16 349 L 11 344 L 11 344 L 0 356 L 0 356 L 6 361 L 6 361 L 86 433 L 86 433 L 91 438 L 91 438 L 96 433 L 96 433 L 176 361 L 176 361 L 182 356 L 182 356 L 172 344 L 172 344 L 166 349 L 166 349 L 99 409 L 99 409 L 99 29 L 99 29 L 166 89 L 166 89 L 172 94 L 172 94 L 182 82 L 182 82 L 176 77 L 176 77 L 96 5 L 96 5 Z M 259 51 L 251 51 L 259 51 L 251 51 L 251 67 L 251 67 L 259 67 L 571 67 L 571 51 L 571 51 L 563 51 L 259 51 Z M 251 211 L 243 211 L 251 211 L 243 211 L 243 227 L 243 227 L 251 227 L 571 227 L 571 211 L 571 211 L 563 211 L 251 211 Z M 251 371 L 251 387 L 251 371 L 251 387 L 259 387 L 571 387 L 571 371 L 571 371 L 563 371 L 251 371 Z" />
</svg>