<svg xmlns="http://www.w3.org/2000/svg" viewBox="0 0 576 432">
  <path d="M 304 32 Q 236 34 191 79 L 191 79 L 191 79 Q 146 124 144 192 Q 143 240 111 271 Q 80 303 32 304 L 16 304 L 16 304 L 16 272 L 16 272 L 32 272 L 32 272 Q 66 271 89 249 Q 111 226 112 192 Q 114 110 168 56 Q 222 2 304 0 Q 353 0 394 22 Q 435 44 461 82 L 441 105 L 441 105 Q 422 96 400 96 Q 359 97 332 124 Q 305 151 304 192 Q 305 226 328 249 Q 350 271 384 272 Q 416 270 442 251 Q 463 236 480 217 Q 497 236 518 251 Q 544 270 576 272 L 576 304 L 576 304 Q 553 304 534 295 Q 514 287 500 277 Q 488 269 480 262 Q 472 269 460 277 Q 446 287 426 295 Q 407 304 384 304 Q 336 303 305 271 Q 273 240 272 192 Q 273 138 309 101 Q 346 65 400 64 Q 400 64 400 64 Q 400 64 400 64 Q 359 33 304 32 L 304 32 Z M 134 379 Q 160 398 192 400 Q 224 398 250 379 Q 271 364 288 345 Q 305 364 326 379 Q 352 398 384 400 Q 416 398 442 379 Q 463 364 480 345 Q 497 364 518 379 Q 544 398 576 400 L 576 432 L 576 432 Q 553 432 534 423 Q 514 415 500 405 Q 488 397 480 390 Q 472 397 460 405 Q 446 415 426 423 Q 407 432 384 432 Q 361 432 342 423 Q 322 415 308 405 Q 296 397 288 390 Q 280 397 268 405 Q 254 415 234 423 Q 215 432 192 432 Q 169 432 150 423 Q 130 415 116 405 Q 104 397 96 390 Q 88 397 76 405 Q 62 415 42 423 Q 23 432 0 432 L 0 400 L 0 400 Q 32 398 58 379 Q 79 364 96 345 Q 113 364 134 379 L 134 379 Z" />
</svg>