<svg xmlns="http://www.w3.org/2000/svg" viewBox="0 0 510 510">
  <path d="M 452 0 L 457 5 L 452 0 L 457 5 L 505 53 L 505 53 L 510 58 L 510 58 L 505 64 L 505 64 L 454 131 L 454 131 L 452 133 L 452 133 L 449 134 L 449 134 L 372 149 L 372 149 L 321 200 L 321 200 Q 323 223 322 272 Q 321 321 309 376 Q 297 431 265 469 Q 234 508 176 510 Q 101 508 52 458 Q 2 409 0 334 Q 2 276 41 245 Q 79 213 134 201 Q 189 189 238 188 Q 287 187 310 189 L 361 138 L 361 138 L 376 61 L 376 61 L 377 58 L 377 58 L 379 56 L 379 56 L 446 4 L 446 4 L 452 0 L 452 0 Z M 294 204 Q 284 204 270 204 Q 223 203 163 212 Q 102 221 59 250 Q 18 278 16 334 Q 18 402 63 447 Q 108 492 176 494 Q 232 492 260 451 Q 289 408 298 347 Q 308 287 306 240 Q 306 226 306 216 L 242 279 L 242 279 Q 256 295 256 318 Q 255 345 237 363 Q 219 381 192 382 Q 165 381 147 363 Q 129 345 128 318 Q 129 291 147 273 Q 165 255 192 254 Q 215 254 231 267 L 294 204 L 294 204 Z M 378 132 L 444 119 L 378 132 L 444 119 L 489 59 L 489 59 L 451 21 L 451 21 L 391 67 L 391 67 L 378 132 L 378 132 Z M 192 366 Q 219 365 234 342 Q 246 318 234 294 Q 219 271 192 270 Q 165 271 150 294 Q 138 318 150 342 Q 165 365 192 366 L 192 366 Z" />
</svg>