<svg xmlns="http://www.w3.org/2000/svg" viewBox="0 0 538 512">
  <path d="M 356 164 L 278 17 L 356 164 L 278 17 L 269 0 L 269 0 L 260 17 L 260 17 L 183 164 L 183 164 L 19 192 L 19 192 L 0 196 L 0 196 L 13 210 L 13 210 L 129 329 L 129 329 L 106 493 L 106 493 L 103 512 L 103 512 L 120 503 L 120 503 L 269 430 L 269 430 L 418 503 L 418 503 L 435 512 L 435 512 L 433 493 L 433 493 L 409 329 L 409 329 L 525 210 L 525 210 L 538 196 L 538 196 L 519 192 L 519 192 L 356 164 L 356 164 Z M 506 206 L 398 317 L 506 206 L 398 317 L 392 323 L 392 323 L 393 331 L 393 331 L 415 484 L 415 484 L 276 416 L 276 416 L 269 412 L 269 412 L 262 416 L 262 416 L 123 484 L 123 484 L 145 331 L 145 331 L 146 323 L 146 323 L 141 317 L 141 317 L 33 206 L 33 206 L 185 180 L 185 180 L 193 179 L 193 179 L 197 172 L 197 172 L 269 34 L 269 34 L 342 171 L 342 171 L 345 178 L 345 178 L 353 180 L 353 180 L 506 206 L 506 206 Z" />
</svg>