<svg xmlns="http://www.w3.org/2000/svg" viewBox="0 0 640 512">
  <path d="M 16 5 L 10 0 L 16 5 L 10 0 L 0 13 L 0 13 L 6 18 L 6 18 L 624 507 L 624 507 L 630 512 L 630 512 L 640 500 L 640 500 L 634 495 L 634 495 L 16 5 L 16 5 Z M 580 245 Q 618 205 618 154 L 618 154 L 618 154 Q 618 103 580 64 Q 541 26 490 26 Q 439 26 399 64 L 382 81 L 382 81 L 394 92 L 394 92 L 411 75 L 411 75 Q 445 42 490 42 Q 534 42 569 75 Q 602 109 602 154 Q 602 199 569 233 L 498 305 L 498 305 L 510 315 L 510 315 L 580 245 L 580 245 Z M 399 410 L 384 398 L 399 410 L 384 398 Q 355 406 326 399 Q 297 391 275 369 Q 241 333 242 286 L 227 274 L 227 274 Q 220 334 263 381 Q 292 408 328 415 Q 364 423 399 410 L 399 410 Z M 377 132 Q 348 104 312 97 L 312 97 L 312 97 Q 276 89 241 102 L 256 114 L 256 114 Q 285 106 314 113 Q 343 121 365 143 Q 399 179 398 226 L 413 238 L 413 238 Q 420 178 377 132 L 377 132 Z M 142 207 L 130 197 L 142 207 L 130 197 L 60 267 L 60 267 Q 22 307 22 358 Q 22 409 60 448 Q 99 486 150 486 Q 201 486 241 448 L 258 431 L 258 431 L 247 420 L 247 420 L 230 437 L 230 437 Q 195 470 150 470 Q 106 470 71 437 Q 38 403 38 358 Q 38 313 71 279 L 142 207 L 142 207 Z" />
</svg>