<svg xmlns="http://www.w3.org/2000/svg" viewBox="0 0 634 512">
  <path d="M 448 288 Q 414 288 384 275 L 384 416 L 384 416 L 344 416 L 344 416 L 344 250 L 344 250 Q 331 238 320 224 L 280 224 L 280 224 L 280 416 L 280 416 L 232 416 L 232 416 L 232 224 L 232 224 L 168 224 L 168 224 L 168 416 L 168 416 L 128 416 L 128 416 L 128 224 L 128 224 L 64 224 L 64 224 L 64 416 L 64 416 L 0 464 L 0 464 L 0 512 L 0 512 L 512 512 L 512 512 L 512 464 L 512 464 L 448 416 L 448 416 L 448 288 L 448 288 Z M 288 128 Q 289 75 318 35 L 256 0 L 256 0 L 0 144 L 0 144 L 0 192 L 0 192 L 301 192 L 301 192 Q 288 162 288 128 L 288 128 Z M 448 48 Q 493 50 517 88 Q 539 128 517 168 Q 493 207 448 208 Q 403 207 379 168 Q 357 128 379 88 Q 403 50 448 48 L 448 48 Z M 448 256 Q 489 255 520 234 L 583 297 L 583 297 L 600 314 L 600 314 L 634 280 L 634 280 L 617 263 L 617 263 L 554 200 L 554 200 Q 575 169 576 128 Q 575 74 539 38 Q 502 2 448 0 Q 394 2 357 38 Q 321 74 320 128 Q 321 183 357 219 Q 394 255 448 256 L 448 256 Z" />
</svg>