<svg xmlns="http://www.w3.org/2000/svg" viewBox="0 0 512 512">
  <path d="M 496 304 L 496 256 L 496 304 L 496 256 Q 495 189 463 135 Q 431 81 377 49 Q 323 17 256 16 Q 189 17 135 49 Q 81 81 49 135 Q 17 189 16 256 Q 17 322 48 375 Q 79 429 131 461 Q 184 493 250 496 L 297 448 L 297 448 L 297 447 L 297 447 Q 273 422 272 388 Q 273 352 297 329 Q 320 305 356 304 L 496 304 L 496 304 Z M 309 437 L 320 448 L 309 437 L 320 448 L 309 459 L 309 459 L 256 512 L 256 512 Q 184 511 127 477 Q 69 443 35 385 Q 1 328 0 256 Q 1 184 35 127 Q 69 69 127 35 Q 184 1 256 0 Q 328 1 385 35 Q 443 69 477 127 Q 511 184 512 256 L 512 304 L 512 304 L 512 320 L 512 320 L 496 320 L 356 320 Q 327 321 308 340 Q 289 359 288 388 Q 288 416 308 436 L 309 437 L 309 437 Z M 104 320 Q 126 318 128 296 Q 126 274 104 272 Q 82 274 80 296 Q 82 318 104 320 L 104 320 Z M 104 256 Q 127 257 139 276 Q 149 296 139 316 Q 127 335 104 336 Q 81 335 69 316 Q 59 296 69 276 Q 81 257 104 256 L 104 256 Z M 160 168 Q 158 146 136 144 Q 114 146 112 168 Q 114 190 136 192 Q 158 190 160 168 L 160 168 Z M 96 168 Q 97 145 116 133 Q 136 123 156 133 Q 175 145 176 168 Q 175 191 156 203 Q 136 213 116 203 Q 97 191 96 168 L 96 168 Z M 264 128 Q 286 126 288 104 Q 286 82 264 80 Q 242 82 240 104 Q 242 126 264 128 L 264 128 Z M 264 64 Q 287 65 299 84 Q 309 104 299 124 Q 287 143 264 144 Q 241 143 229 124 Q 219 104 229 84 Q 241 65 264 64 L 264 64 Z M 416 168 Q 414 146 392 144 Q 370 146 368 168 Q 370 190 392 192 Q 414 190 416 168 L 416 168 Z M 352 168 Q 353 145 372 133 Q 392 123 412 133 Q 431 145 432 168 Q 431 191 412 203 Q 392 213 372 203 Q 353 191 352 168 L 352 168 Z" />
</svg>