<svg xmlns="http://www.w3.org/2000/svg" viewBox="0 0 310 512">
  <path d="M 155 96 Q 178 95 190 76 Q 200 56 190 36 Q 178 17 155 16 Q 132 17 120 36 Q 110 56 120 76 Q 132 95 155 96 L 155 96 Z M 155 0 Q 187 1 203 28 Q 219 56 203 84 Q 187 111 155 112 Q 123 111 107 84 Q 91 56 107 28 Q 123 1 155 0 L 155 0 Z M 91 128 L 96 128 L 91 128 L 219 128 L 221 133 L 221 133 L 306 309 L 306 309 L 310 316 L 310 316 L 295 323 L 295 323 L 292 316 L 292 316 L 209 144 L 209 144 L 101 144 L 101 144 L 18 316 L 18 316 L 15 323 L 15 323 L 0 316 L 0 316 L 4 309 L 4 309 L 89 133 L 89 133 L 91 128 L 91 128 Z M 99 248 L 99 496 L 99 248 L 99 496 L 131 496 L 131 496 L 131 344 L 131 344 L 131 336 L 131 336 L 139 336 L 179 336 L 179 344 L 179 344 L 179 496 L 179 496 L 211 496 L 211 496 L 211 248 L 211 248 L 211 240 L 211 240 L 227 240 L 227 240 L 227 248 L 227 248 L 227 504 L 227 504 L 227 512 L 227 512 L 219 512 L 163 512 L 163 504 L 163 504 L 163 352 L 163 352 L 147 352 L 147 352 L 147 504 L 147 504 L 147 512 L 147 512 L 139 512 L 83 512 L 83 504 L 83 504 L 83 248 L 83 248 L 83 240 L 83 240 L 99 240 L 99 240 L 99 248 L 99 248 Z" />
</svg>