<svg xmlns="http://www.w3.org/2000/svg" viewBox="0 0 640 384">
  <path d="M 0 16 L 0 0 L 0 16 L 0 0 L 16 0 L 640 0 L 640 16 L 640 16 L 640 128 L 640 128 L 640 144 L 640 144 L 624 144 L 624 144 Q 604 145 590 158 Q 577 172 576 192 Q 577 212 590 226 Q 604 239 624 240 L 640 240 L 640 240 L 640 256 L 640 256 L 640 368 L 640 368 L 640 384 L 640 384 L 624 384 L 0 384 L 0 368 L 0 368 L 0 16 L 0 16 Z M 16 368 L 624 368 L 16 368 L 624 368 L 624 256 L 624 256 Q 597 255 579 237 Q 561 219 560 192 Q 561 165 579 147 Q 597 129 624 128 L 624 16 L 624 16 L 16 16 L 16 16 L 16 368 L 16 368 Z M 464 80 Q 479 81 480 96 Q 479 111 464 112 Q 449 111 448 96 Q 449 81 464 80 L 464 80 Z M 464 144 Q 479 145 480 160 Q 479 175 464 176 Q 449 175 448 160 Q 449 145 464 144 L 464 144 Z M 448 224 Q 449 209 464 208 Q 479 209 480 224 Q 479 239 464 240 Q 449 239 448 224 L 448 224 Z M 464 272 Q 479 273 480 288 Q 479 303 464 304 Q 449 303 448 288 Q 449 273 464 272 L 464 272 Z M 176 64 L 232 64 L 176 64 L 237 64 L 239 68 L 239 68 L 288 152 L 288 152 L 327 152 L 327 152 Q 355 152 375 172 Q 384 181 384 192 Q 384 203 375 212 Q 355 232 327 232 L 288 232 L 288 232 L 239 316 L 239 316 L 237 320 L 237 320 L 232 320 L 165 320 L 168 310 L 168 310 L 194 232 L 194 232 L 156 232 L 156 232 L 134 261 L 134 261 L 132 264 L 132 264 L 128 264 L 86 264 L 88 254 L 88 254 L 104 192 L 104 192 L 88 130 L 88 130 L 86 120 L 86 120 L 96 120 L 132 120 L 134 123 L 134 123 L 156 152 L 156 152 L 194 152 L 194 152 L 168 75 L 168 75 L 165 64 L 165 64 L 176 64 L 176 64 Z M 213 158 L 216 168 L 213 158 L 216 168 L 205 168 L 148 168 L 146 165 L 146 165 L 124 136 L 124 136 L 106 136 L 106 136 L 120 190 L 120 190 L 120 192 L 120 192 L 120 194 L 120 194 L 106 248 L 106 248 L 124 248 L 124 248 L 146 219 L 146 219 L 148 216 L 148 216 L 152 216 L 216 216 L 213 227 L 213 227 L 187 304 L 187 304 L 227 304 L 227 304 L 276 220 L 276 220 L 279 216 L 279 216 L 283 216 L 327 216 Q 349 216 364 201 Q 371 192 364 183 Q 348 168 327 168 L 283 168 L 279 168 L 276 164 L 276 164 L 227 80 L 227 80 L 187 80 L 187 80 L 213 158 L 213 158 Z" />
</svg>