<svg xmlns="http://www.w3.org/2000/svg" viewBox="0 0 352 512">
  <path d="M 160 336 L 160 320 L 160 336 L 160 320 L 160 96 L 160 96 L 160 80 L 160 80 L 144 80 L 16 80 L 16 16 L 16 16 L 224 16 L 224 16 L 224 320 L 224 320 L 224 336 L 224 336 L 240 336 L 336 336 L 336 345 L 336 345 L 192 489 L 192 489 L 48 345 L 48 345 L 48 336 L 48 336 L 144 336 L 160 336 Z M 32 352 L 181 501 L 32 352 L 181 501 L 192 512 L 192 512 L 203 501 L 203 501 L 352 352 L 352 352 L 352 336 L 352 336 L 352 320 L 352 320 L 336 320 L 240 320 L 240 304 L 240 304 L 240 16 L 240 16 L 240 0 L 240 0 L 224 0 L 0 0 L 0 16 L 0 16 L 0 80 L 0 80 L 0 96 L 0 96 L 16 96 L 144 96 L 144 112 L 144 112 L 144 304 L 144 304 L 144 320 L 144 320 L 128 320 L 32 320 L 32 336 L 32 336 L 32 352 L 32 352 Z" />
</svg>