<svg xmlns="http://www.w3.org/2000/svg" viewBox="0 0 384 512">
  <path d="M 16 16 L 16 496 L 16 16 L 16 496 L 368 496 L 368 496 L 368 16 L 368 16 L 16 16 L 16 16 Z M 0 0 L 16 0 L 0 0 L 384 0 L 384 16 L 384 16 L 384 496 L 384 496 L 384 512 L 384 512 L 368 512 L 0 512 L 0 496 L 0 496 L 0 16 L 0 16 L 0 0 L 0 0 Z M 184 177 L 192 185 L 184 177 L 192 185 L 200 177 L 200 177 Q 218 160 242 160 L 245 160 L 245 160 Q 270 161 287 177 Q 303 194 304 219 Q 304 244 286 262 L 203 342 L 203 342 L 192 352 L 192 352 L 181 341 L 181 341 L 98 262 L 98 262 Q 80 244 80 219 Q 81 194 97 177 Q 114 161 139 160 L 142 160 L 142 160 Q 166 160 184 177 L 184 177 Z M 181 196 L 173 189 L 181 196 L 173 189 Q 160 176 142 176 L 139 176 L 139 176 Q 121 176 109 189 Q 96 201 96 219 Q 96 237 109 250 L 192 330 L 192 330 L 275 250 L 275 250 Q 288 237 288 219 Q 288 201 275 189 Q 263 176 245 176 L 242 176 L 242 176 Q 224 176 211 189 L 203 196 L 203 196 L 192 207 L 192 207 L 181 196 L 181 196 Z" />
</svg>