<svg xmlns="http://www.w3.org/2000/svg" viewBox="0 0 512 478">
  <path d="M 136 14 L 216 153 L 136 14 L 216 153 Q 178 176 176 222 L 160 222 L 0 222 Q 0 214 1 206 Q 5 144 35 93 Q 65 42 114 9 Q 121 4 128 0 L 136 14 L 136 14 Z M 195 148 L 122 23 L 195 148 L 122 23 Q 77 53 49 101 Q 21 148 17 206 L 161 206 L 161 206 Q 168 170 195 148 L 195 148 Z M 216 291 L 216 291 L 216 291 L 216 291 Q 234 302 256 302 Q 278 302 296 291 L 296 291 L 296 291 L 304 305 L 304 305 L 384 444 L 384 444 L 384 444 L 384 444 Q 377 448 370 451 Q 318 477 256 478 Q 194 477 142 451 Q 135 448 128 444 L 128 444 L 128 444 L 208 305 L 208 305 L 216 291 L 216 291 Z M 256 462 Q 314 462 362 437 L 290 312 L 290 312 Q 274 318 256 318 Q 238 318 223 312 L 150 437 L 150 437 Q 198 462 256 462 L 256 462 Z M 398 9 Q 447 42 477 93 L 477 93 L 477 93 Q 507 144 512 206 Q 512 214 512 222 L 496 222 L 336 222 Q 334 175 296 153 L 376 14 L 376 14 L 384 0 L 384 0 Q 391 4 398 9 L 398 9 Z M 390 23 L 317 148 L 390 23 L 317 148 Q 344 170 351 206 L 496 206 L 496 206 Q 491 148 463 101 Q 435 53 390 23 L 390 23 Z M 288 222 Q 288 208 279 199 L 279 199 L 279 199 Q 270 190 256 190 Q 242 190 233 199 Q 224 208 224 222 Q 224 236 233 245 Q 242 254 256 254 Q 270 254 279 245 Q 288 236 288 222 L 288 222 Z M 208 222 Q 209 195 232 180 Q 256 168 280 180 Q 303 195 304 222 Q 303 249 280 264 Q 256 276 232 264 Q 209 249 208 222 L 208 222 Z" />
</svg>