<svg xmlns="http://www.w3.org/2000/svg" viewBox="0 0 512 448">
  <path d="M 72 344 L 76 335 L 72 344 L 76 335 L 68 328 L 68 328 Q 17 276 16 208 Q 18 128 85 73 Q 152 18 256 16 Q 360 18 427 73 Q 494 128 496 208 Q 494 288 427 343 Q 360 398 256 400 Q 211 400 171 388 L 166 386 L 166 386 L 162 388 L 162 388 L 42 423 L 42 423 L 72 344 L 72 344 Z M 16 448 L 35 442 L 16 448 L 35 442 L 166 403 L 166 403 Q 209 416 256 416 Q 328 415 385 388 Q 443 360 477 313 Q 511 266 512 208 Q 511 150 477 103 Q 443 56 385 28 Q 328 1 256 0 Q 184 1 127 28 Q 69 56 35 103 Q 1 150 0 208 Q 2 284 57 339 L 23 429 L 23 429 L 16 448 L 16 448 Z M 200 128 Q 199 105 180 93 Q 160 83 140 93 Q 121 105 120 128 Q 121 151 140 163 Q 160 173 180 163 Q 199 151 200 128 L 200 128 Z M 160 104 Q 182 106 184 128 Q 182 150 160 152 Q 138 150 136 128 Q 138 106 160 104 L 160 104 Z M 296 107 L 290 115 L 296 107 L 290 115 L 200 220 L 200 220 L 174 194 L 174 194 L 168 188 L 168 188 L 162 195 L 162 195 L 90 275 L 90 275 L 88 277 L 88 277 L 88 280 L 88 280 L 88 296 L 88 296 L 88 304 L 88 304 L 96 304 L 424 304 L 424 296 L 424 296 L 424 280 L 424 280 L 424 277 L 424 277 L 422 275 L 422 275 L 302 115 L 302 115 L 296 107 L 296 107 Z M 296 133 L 408 283 L 296 133 L 408 283 L 408 288 L 408 288 L 104 288 L 104 288 L 104 283 L 104 283 L 168 212 L 168 212 L 194 238 L 194 238 L 200 244 L 200 244 L 206 237 L 206 237 L 296 133 L 296 133 Z" />
</svg>