<svg xmlns="http://www.w3.org/2000/svg" viewBox="0 0 512 448">
  <path d="M 0 376 L 0 392 L 0 376 L 0 392 L 8 392 L 96 392 L 96 432 L 96 432 L 96 448 L 96 448 L 112 448 L 224 448 L 224 432 L 224 432 L 224 392 L 224 392 L 504 392 L 512 392 L 512 376 L 512 376 L 504 376 L 224 376 L 224 336 L 224 336 L 224 320 L 224 320 L 208 320 L 96 320 L 96 336 L 96 336 L 96 376 L 96 376 L 8 376 L 0 376 Z M 208 392 L 208 432 L 208 392 L 208 432 L 112 432 L 112 432 L 112 392 L 112 392 L 112 376 L 112 376 L 112 336 L 112 336 L 208 336 L 208 336 L 208 376 L 208 376 L 208 392 L 208 392 Z M 0 216 L 0 232 L 0 216 L 0 232 L 8 232 L 288 232 L 288 272 L 288 272 L 288 288 L 288 288 L 304 288 L 416 288 L 416 272 L 416 272 L 416 232 L 416 232 L 504 232 L 512 232 L 512 216 L 512 216 L 504 216 L 416 216 L 416 176 L 416 176 L 416 160 L 416 160 L 400 160 L 288 160 L 288 176 L 288 176 L 288 216 L 288 216 L 8 216 L 0 216 Z M 400 216 L 400 232 L 400 216 L 400 232 L 400 272 L 400 272 L 304 272 L 304 272 L 304 232 L 304 232 L 304 216 L 304 216 L 304 176 L 304 176 L 400 176 L 400 176 L 400 216 L 400 216 Z M 8 56 L 0 56 L 8 56 L 0 56 L 0 72 L 0 72 L 8 72 L 128 72 L 128 112 L 128 112 L 128 128 L 128 128 L 144 128 L 256 128 L 256 112 L 256 112 L 256 72 L 256 72 L 504 72 L 512 72 L 512 56 L 512 56 L 504 56 L 256 56 L 256 16 L 256 16 L 256 0 L 256 0 L 240 0 L 128 0 L 128 16 L 128 16 L 128 56 L 128 56 L 8 56 L 8 56 Z M 240 72 L 240 112 L 240 72 L 240 112 L 144 112 L 144 112 L 144 72 L 144 72 L 144 56 L 144 56 L 144 16 L 144 16 L 240 16 L 240 16 L 240 56 L 240 56 L 240 72 L 240 72 Z" />
</svg>