<svg xmlns="http://www.w3.org/2000/svg" viewBox="0 0 505 512">
  <path d="M 363 0 L 356 32 L 363 0 L 356 32 L 89 32 L 82 32 L 81 39 L 81 39 L 41 270 L 41 270 Q 41 270 41 271 Q 41 271 41 271 L 1 503 L 1 503 L 0 512 L 0 512 L 9 512 L 505 512 L 505 496 L 505 496 L 497 496 L 473 496 L 473 360 L 473 360 L 473 355 L 473 355 L 468 353 L 468 353 L 314 291 L 314 291 L 379 0 L 379 0 L 363 0 L 363 0 Z M 56 280 L 142 280 L 56 280 L 148 280 L 150 274 L 150 274 L 195 48 L 195 48 L 352 48 L 352 48 L 320 192 L 320 192 L 249 192 L 241 192 L 241 208 L 241 208 L 249 208 L 316 208 L 299 288 L 299 288 L 217 288 L 209 288 L 209 304 L 209 304 L 217 304 L 304 304 L 457 365 L 457 365 L 457 496 L 457 496 L 19 496 L 19 496 L 56 280 L 56 280 Z M 178 48 L 135 264 L 178 48 L 135 264 L 59 264 L 59 264 L 96 48 L 96 48 L 178 48 L 178 48 Z" />
</svg>