<svg xmlns="http://www.w3.org/2000/svg" viewBox="0 0 512 384">
  <path d="M 512 56 L 512 48 L 512 56 L 512 48 L 504 48 L 256 48 L 256 8 L 256 8 L 256 0 L 256 0 L 248 0 L 152 0 Q 87 2 45 45 Q 2 87 0 152 L 0 232 L 0 232 Q 2 297 45 339 Q 87 382 152 384 L 160 384 L 312 384 L 312 376 L 312 376 L 312 304 L 312 304 L 320 304 L 328 304 L 328 296 L 328 296 L 328 224 L 328 224 L 352 224 L 360 224 L 360 216 L 360 216 L 360 144 L 360 144 L 504 144 L 512 144 L 512 136 L 512 136 L 512 56 L 512 56 Z M 344 144 L 344 208 L 344 144 L 344 208 L 328 208 L 256 208 L 256 144 L 256 144 L 344 144 L 344 144 Z M 240 208 Q 240 208 240 208 L 240 208 L 240 208 Q 240 208 240 208 L 176 208 L 176 208 L 176 104 L 176 104 L 176 96 L 176 96 L 160 96 L 160 96 L 160 104 L 160 104 L 160 208 L 160 208 L 160 216 L 160 216 L 160 224 L 160 224 L 160 288 L 160 288 L 160 296 L 160 296 L 160 304 L 160 304 L 160 368 L 160 368 L 152 368 L 152 368 Q 94 367 56 328 Q 17 290 16 232 L 16 152 L 16 152 Q 17 94 56 56 Q 94 17 152 16 L 240 16 L 240 16 L 240 48 L 240 48 Q 240 48 240 48 Q 240 48 240 48 L 240 64 L 240 64 Q 240 64 240 64 Q 240 64 240 64 L 240 128 L 240 128 Q 240 128 240 128 Q 240 128 240 128 L 240 144 L 240 144 Q 240 144 240 144 Q 240 144 240 144 L 240 208 L 240 208 Z M 240 224 L 248 224 L 240 224 L 312 224 L 312 288 L 312 288 L 304 288 L 176 288 L 176 224 L 176 224 L 240 224 L 240 224 Z M 256 128 L 256 64 L 256 128 L 256 64 L 496 64 L 496 64 L 496 128 L 496 128 L 360 128 L 256 128 Z M 232 368 L 176 368 L 232 368 L 176 368 L 176 304 L 176 304 L 296 304 L 296 304 L 296 368 L 296 368 L 232 368 L 232 368 Z" />
</svg>