<svg xmlns="http://www.w3.org/2000/svg" viewBox="0 0 512 512">
  <path d="M 128 16 Q 155 17 170 40 Q 182 64 170 88 Q 155 111 128 112 Q 101 111 86 88 Q 74 64 86 40 Q 101 17 128 16 L 128 16 Z M 128 128 Q 164 127 183 96 Q 201 64 183 32 Q 164 1 128 0 Q 92 1 73 32 Q 55 64 73 96 Q 92 127 128 128 L 128 128 Z M 76 176 L 180 176 L 76 176 L 180 176 L 235 368 L 235 368 L 192 368 L 21 368 L 76 176 L 76 176 Z M 120 384 L 136 384 L 120 384 L 136 384 L 136 504 L 136 504 L 136 512 L 136 512 L 144 512 L 200 512 L 200 504 L 200 504 L 200 384 L 200 384 L 239 384 L 312 384 L 312 504 L 312 504 L 312 512 L 312 512 L 320 512 L 376 512 L 376 504 L 376 504 L 376 384 L 376 384 L 392 384 L 392 384 L 392 504 L 392 504 L 392 512 L 392 512 L 400 512 L 456 512 L 456 504 L 456 504 L 456 384 L 456 384 L 495 384 L 512 384 L 507 368 L 507 368 L 448 160 L 448 160 L 320 160 L 320 160 L 261 368 L 261 368 L 256 384 L 256 384 L 251 368 L 251 368 L 192 160 L 192 160 L 64 160 L 64 160 L 5 368 L 5 368 L 0 384 L 0 384 L 17 384 L 56 384 L 56 504 L 56 504 L 56 512 L 56 512 L 64 512 L 120 512 L 120 504 L 120 504 L 120 384 L 120 384 Z M 184 496 L 152 496 L 184 496 L 152 496 L 152 384 L 152 384 L 184 384 L 184 384 L 184 496 L 184 496 Z M 104 384 L 104 496 L 104 384 L 104 496 L 72 496 L 72 496 L 72 384 L 72 384 L 104 384 L 104 384 Z M 384 16 Q 411 17 426 40 Q 438 64 426 88 Q 411 111 384 112 Q 357 111 342 88 Q 330 64 342 40 Q 357 17 384 16 L 384 16 Z M 384 128 Q 420 127 439 96 Q 457 64 439 32 Q 420 1 384 0 Q 348 1 329 32 Q 311 64 329 96 Q 348 127 384 128 L 384 128 Z M 332 176 L 436 176 L 332 176 L 436 176 L 491 368 L 491 368 L 448 368 L 277 368 L 332 176 L 332 176 Z M 440 496 L 408 496 L 440 496 L 408 496 L 408 384 L 408 384 L 440 384 L 440 384 L 440 496 L 440 496 Z M 360 384 L 360 496 L 360 384 L 360 496 L 328 496 L 328 496 L 328 384 L 328 384 L 360 384 L 360 384 Z" />
</svg>