<svg xmlns="http://www.w3.org/2000/svg" viewBox="0 0 640 512">
  <path d="M 96 320 L 80 320 L 96 320 L 0 320 L 0 304 L 0 304 L 0 16 L 0 16 L 0 0 L 0 0 L 16 0 L 416 0 L 416 16 L 416 16 L 416 304 L 416 304 L 416 320 L 416 320 L 400 320 L 224 320 L 112 376 L 112 376 L 96 384 L 96 384 L 96 366 L 96 366 L 96 336 L 96 336 L 96 320 L 96 320 Z M 96 304 L 112 304 L 96 304 L 112 304 L 112 320 L 112 320 L 112 358 L 112 358 L 217 306 L 217 306 L 220 304 L 220 304 L 224 304 L 400 304 L 400 16 L 400 16 L 16 16 L 16 16 L 16 304 L 16 304 L 96 304 L 96 304 Z M 256 432 L 256 352 L 256 432 L 256 352 L 272 352 L 272 352 L 272 432 L 272 432 L 416 432 L 420 432 L 423 434 L 423 434 L 528 486 L 528 486 L 528 448 L 528 448 L 528 432 L 528 432 L 544 432 L 624 432 L 624 144 L 624 144 L 448 144 L 448 144 L 448 128 L 448 128 L 624 128 L 640 128 L 640 144 L 640 144 L 640 432 L 640 432 L 640 448 L 640 448 L 624 448 L 544 448 L 544 464 L 544 464 L 544 494 L 544 494 L 544 512 L 544 512 L 528 504 L 528 504 L 416 448 L 416 448 L 272 448 L 256 448 L 256 432 L 256 432 Z" />
</svg>