<svg xmlns="http://www.w3.org/2000/svg" viewBox="0 0 512 512">
  <path d="M 285.0909 64.48485 Q 262.78787 39.272728 246.30302 23.757576 L 246.30302 23.757576 Q 228.84848 9.212121 227.87878 8.242424 L 227.87878 8.242424 Q 227.87878 8.242424 227.87878 8.242424 Q 225.93939 9.212121 198.78787 34.424244 Q 172.60606 60.60606 145.45454 99.393936 Q 118.30303 137.21213 116.36364 177.93939 Q 118.30303 237.09091 157.09091 276.84848 Q 196.84848 317.57574 256 318.54544 Q 315.15152 317.57574 354.9091 277.81818 Q 393.69696 237.09091 395.63635 177.93939 Q 393.69696 144 374.30304 112 Q 353.9394 80 333.57574 58.666668 Q 313.21213 37.333332 312.24243 36.363636 Q 309.33334 37.333332 285.0909 64.48485 L 285.0909 64.48485 Z M 299.63635 248.72728 Q 280.24243 262.30304 256.9697 262.30304 Q 226.90909 262.30304 206.54546 243.87878 Q 187.15152 226.42424 186.18182 193.45454 Q 186.18182 177.93939 195.87878 161.45454 Q 205.57576 144.9697 225.93939 120.72727 Q 227.87878 124.606064 241.45454 141.09091 Q 254.06061 157.57576 266.66666 174.06061 Q 278.30304 189.57576 279.27274 190.54546 L 311.27274 153.69698 Q 314.18182 158.54546 317.0909 163.39394 Q 317.0909 164.36363 317.0909 164.36363 Q 328.72726 186.66667 323.87878 210.90909 Q 319.0303 234.18182 299.63635 248.72728 L 299.63635 248.72728 Z M 48.484848 298.18182 L 18.424242 289.45456 L 0 348.60605 L 29.09091 357.33334 L 152.24243 396.12122 L 29.09091 434.9091 L 0 444.60605 L 18.424242 503.75757 L 48.484848 494.0606 L 256 429.0909 L 463.51514 494.0606 L 493.57574 503.75757 L 512 443.63635 L 482.9091 434.9091 L 359.75757 396.12122 L 482.9091 357.33334 L 512 348.60605 L 493.57574 288.48486 L 463.51514 298.18182 L 256 364.12122 L 48.484848 298.18182 L 48.484848 298.18182 Z" />
</svg>