<svg xmlns="http://www.w3.org/2000/svg" viewBox="0 0 512 512">
  <path d="M 25.6 59.2 L 16 51.2 L 0 71.2 L 10.4 79.2 L 486.4 452.8 L 496 460.8 L 512 440.8 L 502.4 432.8 L 25.6 59.2 L 25.6 59.2 Z M 486.4 256 Q 484.8 201.6 448.8 165.6 L 448.8 165.6 Q 412.8 129.6 358.4 128 L 294.4 128 L 281.6 128 L 281.6 153.6 L 294.4 153.6 L 358.4 153.6 Q 401.6 154.4 431.2 183.2 Q 460 212.8 460.8 256 Q 460 300 430.4 328.8 L 451.2 344.8 Q 484.8 308.8 486.4 256 L 486.4 256 Z M 364.8 268.8 L 377.6 268.8 L 377.6 243.2 L 364.8 243.2 L 322.4 243.2 L 355.2 268.8 L 364.8 268.8 L 364.8 268.8 Z M 156.8 243.2 L 147.2 243.2 L 134.4 243.2 L 134.4 268.8 L 147.2 268.8 L 189.6 268.8 L 157.6 243.2 L 156.8 243.2 Z M 81.6 183.2 L 61.6 167.2 Q 27.2 203.2 25.6 256 Q 27.2 310.4 63.2 346.4 Q 99.2 382.4 153.6 384 L 217.6 384 L 230.4 384 L 230.4 358.4 L 217.6 358.4 L 153.6 358.4 Q 110.4 357.6 80.8 328.8 Q 52 299.2 51.2 256 Q 52 212 81.6 183.2 L 81.6 183.2 Z" />
</svg>