<svg xmlns="http://www.w3.org/2000/svg" viewBox="0 0 576 512">
  <path d="M 336 128 L 335 144 L 336 128 L 335 144 Q 332 182 309 209 L 278 178 L 278 178 L 275 176 L 275 176 L 272 176 L 173 176 L 171 178 L 171 178 L 140 209 L 140 209 Q 116 182 113 144 L 112 128 L 112 128 L 112 115 L 112 115 L 112 112 L 112 112 L 192 112 L 196 112 L 198 110 L 198 110 L 224 83 L 224 83 L 250 110 L 250 110 L 253 112 L 253 112 L 256 112 L 336 112 L 336 115 L 336 115 L 336 128 L 336 128 Z M 297 221 Q 267 247 224 248 Q 181 247 151 221 L 179 192 L 179 192 L 269 192 L 269 192 L 297 221 L 297 221 Z M 352 112 L 352 104 L 352 112 L 352 104 Q 351 60 322 30 Q 292 1 248 0 L 200 0 L 200 0 Q 156 1 126 30 Q 97 60 96 104 L 96 112 L 96 112 L 64 200 L 64 200 L 64 240 L 64 240 L 96 272 L 96 272 L 96 304 L 96 304 L 144 352 L 144 352 L 176 352 L 176 352 L 208 384 L 208 384 L 240 384 L 240 384 L 272 352 L 272 352 L 304 352 L 304 352 L 352 304 L 352 304 L 352 272 L 352 272 L 384 240 L 384 240 L 384 200 L 384 200 L 352 112 L 352 112 Z M 224 264 Q 273 263 308 232 L 308 232 L 308 232 Q 343 202 350 154 L 368 203 L 368 203 L 368 233 L 368 233 L 341 261 L 341 261 L 336 265 L 336 265 L 336 272 L 336 272 L 336 297 L 336 297 L 297 336 L 297 336 L 272 336 L 265 336 L 261 341 L 261 341 L 233 368 L 233 368 L 215 368 L 215 368 L 187 341 L 187 341 L 183 336 L 183 336 L 176 336 L 151 336 L 112 297 L 112 297 L 112 272 L 112 272 L 112 265 L 112 265 L 107 261 L 107 261 L 80 233 L 80 233 L 80 203 L 80 203 L 98 154 L 98 154 Q 105 202 140 232 Q 175 263 224 264 L 224 264 Z M 336 96 L 259 96 L 336 96 L 259 96 L 232 69 L 232 69 L 232 56 L 232 56 L 232 48 L 232 48 L 216 48 L 216 48 L 216 56 L 216 56 L 216 69 L 216 69 L 189 96 L 189 96 L 112 96 L 112 96 Q 116 62 140 39 Q 165 17 200 16 L 248 16 L 248 16 Q 283 17 308 39 Q 332 62 336 96 L 336 96 Z M 428 400 L 406 487 L 428 400 L 406 487 L 400 512 L 400 512 L 420 496 L 420 496 L 576 376 L 576 376 L 576 368 L 576 368 L 576 352 L 576 352 L 560 352 L 496 352 L 500 336 L 500 336 L 522 249 L 522 249 L 528 224 L 528 224 L 508 240 L 508 240 L 352 360 L 352 360 L 352 368 L 352 368 L 352 384 L 352 384 L 368 384 L 432 384 L 428 400 L 428 400 Z M 368 368 L 368 368 L 368 368 L 368 368 L 501 265 L 501 265 L 481 348 L 481 348 L 476 368 L 476 368 L 496 368 L 560 368 L 560 368 L 560 368 L 427 471 L 427 471 L 448 388 L 448 388 L 453 368 L 453 368 L 432 368 L 368 368 Z M 371 496 L 22 496 L 371 496 L 22 496 L 76 336 L 76 336 L 77 331 L 77 331 L 73 327 L 73 327 L 67 320 L 67 320 L 64 320 L 64 320 L 5 496 L 5 496 L 0 512 L 0 512 L 17 512 L 367 512 L 371 496 L 371 496 Z" />
</svg>