<svg xmlns="http://www.w3.org/2000/svg" viewBox="0 0 484 512">
  <path d="M 236 19 L 242 17 L 236 19 L 242 17 L 248 19 L 248 19 L 455 100 L 455 100 L 465 104 L 465 104 L 466 114 L 466 114 Q 468 151 460 202 Q 453 253 430 308 Q 406 363 362 412 Q 318 460 248 492 L 242 495 L 242 495 L 236 492 L 236 492 Q 166 460 122 412 Q 78 363 55 308 Q 31 253 24 202 Q 16 151 19 114 L 19 104 L 19 104 L 29 100 L 29 100 L 236 19 L 236 19 Z M 482 113 L 480 93 L 482 113 L 480 93 L 461 85 L 461 85 L 254 5 L 254 5 L 242 0 L 242 0 L 230 5 L 230 5 L 23 85 L 23 85 L 4 93 L 4 93 L 3 113 L 3 113 Q 0 151 8 204 Q 16 257 40 314 Q 64 371 110 422 Q 156 474 229 507 L 242 512 L 242 512 L 255 507 L 255 507 Q 328 474 374 422 Q 420 371 444 314 Q 468 257 476 204 Q 484 151 481 113 L 482 113 Z M 250 104 L 250 96 L 250 104 L 250 96 L 234 96 L 234 96 L 234 104 L 234 104 L 234 184 L 234 184 L 90 184 L 82 184 L 82 200 L 82 200 L 90 200 L 234 200 L 234 408 L 234 408 L 234 416 L 234 416 L 250 416 L 250 416 L 250 408 L 250 408 L 250 200 L 250 200 L 394 200 L 402 200 L 402 184 L 402 184 L 394 184 L 250 184 L 250 104 L 250 104 Z" />
</svg>