<svg xmlns="http://www.w3.org/2000/svg" viewBox="0 0 384 512">
  <path d="M 16 496 L 16 16 L 16 496 L 16 16 L 208 16 L 208 16 L 208 168 L 208 168 L 208 176 L 208 176 L 216 176 L 368 176 L 368 496 L 368 496 L 16 496 L 16 496 Z M 224 23 L 361 160 L 224 23 L 361 160 L 224 160 L 224 160 L 224 23 L 224 23 Z M 224 0 L 16 0 L 224 0 L 0 0 L 0 16 L 0 16 L 0 496 L 0 496 L 0 512 L 0 512 L 16 512 L 384 512 L 384 496 L 384 496 L 384 160 L 384 160 L 224 0 L 224 0 Z M 136 224 Q 135 201 116 189 Q 96 179 76 189 Q 57 201 56 224 Q 57 247 76 259 Q 96 269 116 259 Q 135 247 136 224 L 136 224 Z M 96 200 Q 118 202 120 224 Q 118 246 96 248 Q 74 246 72 224 Q 74 202 96 200 L 96 200 Z M 232 266 L 226 275 L 232 266 L 226 275 L 175 348 L 175 348 L 142 314 L 142 314 L 136 308 L 136 308 L 130 315 L 130 315 L 50 411 L 50 411 L 48 413 L 48 413 L 48 416 L 48 416 L 48 440 L 48 440 L 48 448 L 48 448 L 56 448 L 336 448 L 336 440 L 336 440 L 336 416 L 336 416 L 336 414 L 336 414 L 335 411 L 335 411 L 239 275 L 239 275 L 232 266 L 232 266 Z M 232 294 L 320 419 L 232 294 L 320 419 L 320 432 L 320 432 L 64 432 L 64 432 L 64 419 L 64 419 L 137 332 L 137 332 L 170 366 L 170 366 L 177 372 L 177 372 L 183 365 L 183 365 L 232 294 L 232 294 Z" />
</svg>