<svg xmlns="http://www.w3.org/2000/svg" viewBox="0 0 512 463">
  <path d="M 97 236 Q 106 168 154 124 L 154 124 L 154 124 Q 203 81 272 79 Q 272 79 272 79 Q 272 79 272 79 L 288 79 L 376 79 Q 408 79 434 63 Q 459 47 474 21 Q 480 11 483 0 Q 488 11 492 22 Q 512 76 512 140 Q 511 221 479 286 Q 448 352 394 391 Q 340 430 273 431 L 272 431 L 272 431 Q 197 429 148 380 Q 98 330 96 255 Q 59 281 38 320 Q 16 359 16 407 L 16 455 L 16 455 L 16 463 L 16 463 L 0 463 L 0 463 L 0 455 L 0 455 L 0 407 L 0 407 Q 1 352 27 307 Q 53 262 97 236 L 97 236 Z M 112 245 Q 112 250 112 255 Q 114 323 159 368 Q 204 413 272 415 Q 272 415 272 415 Q 272 415 272 415 L 273 415 L 273 415 Q 334 414 384 378 Q 435 342 465 280 Q 495 218 496 140 Q 496 87 481 40 Q 463 65 436 80 Q 409 95 376 95 L 288 95 L 288 95 Q 288 95 288 95 Q 288 95 288 95 L 272 95 L 272 95 Q 212 96 169 133 Q 126 169 115 226 Q 154 207 200 207 L 312 207 L 320 207 L 320 223 L 320 223 L 312 223 L 200 223 Q 152 223 112 245 L 112 245 Z" />
</svg>