<svg xmlns="http://www.w3.org/2000/svg" viewBox="0 0 512 449">
  <path d="M 80 209 L 80 225 L 80 209 L 80 225 L 80 433 L 80 433 L 432 433 L 432 433 L 432 225 L 432 225 L 432 209 L 432 209 L 448 209 L 448 209 Q 468 208 482 195 Q 495 181 496 161 Q 495 121 469 93 Q 443 65 402 48 Q 360 31 320 24 Q 280 17 256 17 Q 232 17 192 24 Q 152 31 110 48 Q 69 65 43 93 Q 17 121 16 161 Q 17 181 30 195 Q 44 208 64 209 L 80 209 L 80 209 Z M 448 433 L 448 449 L 448 433 L 448 449 L 432 449 L 64 449 L 64 433 L 64 433 L 64 241 L 64 241 L 64 225 L 64 225 Q 37 224 19 206 Q 1 188 0 161 Q 3 98 52 63 Q 101 28 161 14 Q 221 0 256 1 Q 291 0 351 14 Q 411 28 460 63 Q 509 98 512 161 Q 511 188 493 206 Q 475 224 448 225 L 448 241 L 448 241 L 448 433 L 448 433 Z" />
</svg>