<svg xmlns="http://www.w3.org/2000/svg" viewBox="0 0 448 512">
  <path d="M 432 16 L 432 416 L 432 16 L 432 416 L 416 416 L 16 416 L 16 16 L 16 16 L 432 16 L 432 16 Z M 416 432 L 432 432 L 416 432 L 448 432 L 448 416 L 448 416 L 448 16 L 448 16 L 448 0 L 448 0 L 432 0 L 0 0 L 0 16 L 0 16 L 0 416 L 0 416 L 0 432 L 0 432 L 16 432 L 32 432 L 32 496 L 32 496 L 32 512 L 32 512 L 48 512 L 416 512 L 416 496 L 416 496 L 416 432 L 416 432 Z M 48 432 L 400 432 L 48 432 L 400 432 L 400 496 L 400 496 L 48 496 L 48 496 L 48 432 L 48 432 Z M 368 80 L 368 256 L 368 80 L 368 256 L 80 256 L 80 256 L 80 80 L 80 80 L 368 80 L 368 80 Z M 80 64 L 64 64 L 80 64 L 64 64 L 64 80 L 64 80 L 64 256 L 64 256 L 64 272 L 64 272 L 80 272 L 384 272 L 384 256 L 384 256 L 384 80 L 384 80 L 384 64 L 384 64 L 368 64 L 80 64 Z M 224 336 L 224 352 L 224 336 L 224 352 L 232 352 L 384 352 L 384 336 L 384 336 L 376 336 L 224 336 Z M 80 368 Q 95 367 96 352 Q 95 337 80 336 Q 65 337 64 352 Q 65 367 80 368 L 80 368 Z" />
</svg>