<svg xmlns="http://www.w3.org/2000/svg" viewBox="0 0 640 320">
  <path d="M 389 240 L 393 243 L 389 240 L 393 243 L 424 264 L 424 264 Q 472 295 528 302 L 528 18 L 528 18 Q 472 25 424 56 L 393 77 L 393 77 L 389 80 L 389 80 L 384 80 L 16 80 L 16 240 L 16 240 L 384 240 L 389 240 Z M 558 304 L 624 304 L 558 304 L 624 304 L 624 16 L 624 16 L 558 16 L 558 16 Q 554 16 551 16 Q 547 16 544 16 L 544 304 L 544 304 Q 547 304 551 304 Q 554 304 558 304 L 558 304 Z M 16 256 L 0 256 L 16 256 L 0 256 L 0 240 L 0 240 L 0 80 L 0 80 L 0 64 L 0 64 L 16 64 L 384 64 L 416 43 L 416 43 Q 480 1 558 0 L 624 0 L 640 0 L 640 16 L 640 16 L 640 304 L 640 304 L 640 320 L 640 320 L 624 320 L 558 320 Q 480 320 416 277 L 384 256 L 384 256 L 16 256 L 16 256 Z M 240 144 L 240 176 L 240 144 L 240 176 L 304 176 L 304 176 L 304 144 L 304 144 L 240 144 L 240 144 Z M 224 128 L 240 128 L 224 128 L 320 128 L 320 144 L 320 144 L 320 176 L 320 176 L 320 192 L 320 192 L 304 192 L 224 192 L 224 176 L 224 176 L 224 144 L 224 144 L 224 128 L 224 128 Z" />
</svg>