<svg xmlns="http://www.w3.org/2000/svg" viewBox="0 0 368 512">
  <path d="M 72 0 L 64 0 L 72 0 L 64 0 L 64 8 L 64 8 L 64 117 L 64 117 L 2 178 L 2 178 L 0 181 L 0 181 L 0 184 L 0 184 L 0 248 L 0 248 L 0 256 L 0 256 L 0 264 L 0 264 L 0 264 L 0 264 Q 4 306 30 335 Q 56 365 96 374 L 96 504 L 96 504 L 96 512 L 96 512 L 112 512 L 112 512 L 112 504 L 112 504 L 112 367 L 112 367 L 112 360 L 112 360 L 105 359 L 105 359 Q 66 353 42 324 Q 17 296 16 256 L 16 248 L 16 248 L 16 187 L 16 187 L 64 139 L 64 139 L 64 216 L 64 216 L 64 224 L 64 224 L 80 224 L 80 224 L 80 216 L 80 216 L 80 16 L 80 16 L 160 16 L 160 16 L 160 48 L 160 48 L 160 56 L 160 56 L 168 56 L 224 56 L 224 80 L 224 80 L 224 88 L 224 88 L 232 88 L 288 88 L 288 112 L 288 112 L 288 120 L 288 120 L 296 120 L 352 120 L 352 160 L 352 160 L 352 168 L 352 168 L 352 248 L 352 248 L 352 256 L 352 256 Q 352 290 335 317 Q 319 344 292 360 L 288 362 L 288 362 L 288 367 L 288 367 L 288 504 L 288 504 L 288 512 L 288 512 L 304 512 L 304 512 L 304 504 L 304 504 L 304 371 L 304 371 Q 333 353 350 323 Q 368 293 368 256 L 368 248 L 368 248 L 368 168 L 368 168 L 368 160 L 368 160 L 368 112 L 368 112 L 368 104 L 368 104 L 360 104 L 304 104 L 304 80 L 304 80 L 304 72 L 304 72 L 296 72 L 240 72 L 240 48 L 240 48 L 240 40 L 240 40 L 232 40 L 176 40 L 176 8 L 176 8 L 176 0 L 176 0 L 168 0 L 72 0 Z" />
</svg>