<svg xmlns="http://www.w3.org/2000/svg" viewBox="0 0 512 448">
  <path d="M 264 16 L 264 216 L 264 16 L 264 216 L 496 216 L 496 216 L 496 16 L 496 16 L 264 16 L 264 16 Z M 248 16 L 16 16 L 248 16 L 16 16 L 16 216 L 16 216 L 248 216 L 248 216 L 248 16 L 248 16 Z M 16 232 L 16 432 L 16 232 L 16 432 L 248 432 L 248 432 L 248 232 L 248 232 L 16 232 L 16 232 Z M 264 432 L 496 432 L 264 432 L 496 432 L 496 232 L 496 232 L 264 232 L 264 232 L 264 432 L 264 432 Z M 0 0 L 16 0 L 0 0 L 512 0 L 512 16 L 512 16 L 512 432 L 512 432 L 512 448 L 512 448 L 496 448 L 0 448 L 0 432 L 0 432 L 0 16 L 0 16 L 0 0 L 0 0 Z" />
</svg>