<svg xmlns="http://www.w3.org/2000/svg" viewBox="0 0 640 512">
  <path d="M 448 0 L 448 43 L 448 0 L 448 43 Q 449 115 500 168 L 521 189 L 521 189 Q 543 212 544 245 L 544 288 L 544 288 L 560 288 L 560 288 L 560 245 L 560 245 Q 559 206 532 177 L 511 156 L 511 156 Q 465 109 464 43 L 464 0 L 464 0 L 448 0 L 448 0 Z M 640 288 L 640 245 L 640 288 L 640 245 Q 639 173 589 121 L 568 100 L 568 100 Q 544 76 544 43 L 544 0 L 544 0 L 528 0 L 528 0 L 528 43 L 528 43 Q 529 83 556 111 L 577 132 L 577 132 Q 623 179 624 245 L 624 288 L 624 288 L 640 288 L 640 288 Z M 0 352 L 0 368 L 0 352 L 0 368 L 0 496 L 0 496 L 0 512 L 0 512 L 16 512 L 512 512 L 512 496 L 512 496 L 512 368 L 512 368 L 512 352 L 512 352 L 496 352 L 0 352 Z M 496 496 L 240 496 L 496 496 L 240 496 L 240 368 L 240 368 L 496 368 L 496 368 L 496 496 L 496 496 Z M 224 496 L 16 496 L 224 496 L 16 496 L 16 368 L 16 368 L 224 368 L 224 368 L 224 496 L 224 496 Z M 640 360 L 640 352 L 640 360 L 640 352 L 624 352 L 624 352 L 624 360 L 624 360 L 624 504 L 624 504 L 624 512 L 624 512 L 640 512 L 640 512 L 640 504 L 640 504 L 640 360 L 640 360 Z M 560 352 L 544 352 L 560 352 L 544 352 L 544 360 L 544 360 L 544 504 L 544 504 L 544 512 L 544 512 L 560 512 L 560 512 L 560 504 L 560 504 L 560 360 L 560 360 L 560 352 L 560 352 Z M 600 360 L 600 352 L 600 360 L 600 352 L 584 352 L 584 352 L 584 360 L 584 360 L 584 504 L 584 504 L 584 512 L 584 512 L 600 512 L 600 512 L 600 504 L 600 504 L 600 360 L 600 360 Z" />
</svg>