<svg xmlns="http://www.w3.org/2000/svg" viewBox="0 0 576 480">
  <path d="M 0 448 L 16 448 L 0 448 L 261 448 L 263 432 L 263 432 L 16 432 L 16 432 L 16 16 L 16 16 L 64 16 L 64 16 L 64 152 L 64 152 Q 65 159 72 160 L 312 160 L 312 160 Q 319 159 320 152 L 320 16 L 320 16 L 329 16 L 329 16 L 432 119 L 432 119 L 432 214 L 432 214 L 448 198 L 448 198 L 448 112 L 448 112 L 336 0 L 336 0 L 16 0 L 0 0 L 0 16 L 0 16 L 0 432 L 0 432 L 0 448 L 0 448 Z M 304 16 L 304 144 L 304 16 L 304 144 L 80 144 L 80 144 L 80 16 L 80 16 L 304 16 L 304 16 Z M 224 368 Q 183 367 162 332 Q 142 296 162 260 Q 183 225 224 224 Q 265 225 286 260 Q 306 296 286 332 Q 265 367 224 368 L 224 368 Z M 136 296 Q 138 346 180 372 Q 224 396 268 372 Q 310 346 312 296 Q 310 246 268 220 Q 224 196 180 220 Q 138 246 136 296 L 136 296 Z M 499 192 L 302 389 L 499 192 L 302 389 L 291 463 L 291 463 L 288 480 L 288 480 L 305 477 L 305 477 L 379 466 L 379 466 L 565 280 L 565 280 L 576 269 L 576 269 L 565 258 L 565 258 L 510 203 L 510 203 L 499 192 L 499 192 Z M 317 396 L 455 259 L 317 396 L 455 259 L 510 313 L 510 313 L 372 451 L 372 451 L 307 461 L 307 461 L 317 396 L 317 396 Z M 553 269 L 521 302 L 553 269 L 521 302 L 466 247 L 466 247 L 499 215 L 499 215 L 553 269 L 553 269 Z" />
</svg>