<svg xmlns="http://www.w3.org/2000/svg" viewBox="0 0 640 512">
  <path d="M 567 190 Q 576 221 576 256 Q 575 328 541 385 Q 507 443 449 477 Q 392 511 320 512 Q 248 511 191 477 Q 133 443 99 385 Q 65 328 64 256 Q 64 221 73 190 Q 54 165 31 119 Q 8 74 1 20 Q 0 10 0 0 Q 0 1 16 10 Q 34 20 72 33 Q 110 45 167 51 Q 233 1 320 0 Q 407 1 473 51 Q 530 45 568 33 Q 606 20 624 10 Q 640 1 640 0 Q 640 10 639 20 Q 632 74 609 119 Q 586 165 567 190 L 567 190 Z M 490 65 Q 539 108 561 170 Q 571 155 583 135 Q 610 88 622 29 Q 610 35 594 41 Q 555 56 490 65 L 490 65 Z M 150 65 Q 85 57 46 41 Q 30 35 18 29 Q 30 88 57 135 Q 69 156 79 170 Q 101 108 150 65 L 150 65 Z M 560 256 Q 559 191 528 136 L 528 136 L 528 136 Q 496 81 440 48 Q 383 16 320 16 Q 257 16 200 48 Q 144 81 112 136 Q 81 191 80 256 Q 81 321 112 376 Q 144 431 200 464 Q 257 496 320 496 Q 383 496 440 464 Q 496 431 528 376 Q 559 321 560 256 L 560 256 Z M 386 413 Q 377 402 360 393 L 360 393 L 360 393 Q 343 384 320 384 Q 297 384 280 393 Q 263 402 254 413 L 249 419 L 249 419 L 237 409 L 237 409 L 242 403 L 242 403 Q 253 390 273 379 Q 292 369 320 368 Q 348 369 367 379 Q 387 390 398 403 L 403 409 L 403 409 L 391 419 L 391 419 L 386 413 L 386 413 Z M 224 272 Q 226 257 240 256 Q 255 257 256 272 Q 255 287 240 288 Q 226 287 224 272 L 224 272 Z M 400 256 Q 415 257 416 272 Q 415 287 400 288 Q 386 287 384 272 Q 386 257 400 256 L 400 256 Z M 187 198 L 195 200 L 187 198 L 195 200 L 291 232 L 291 232 L 298 235 L 298 235 L 293 250 L 293 250 L 285 248 L 285 248 L 189 216 L 189 216 L 182 213 L 182 213 L 187 198 L 187 198 Z M 458 213 L 451 216 L 458 213 L 451 216 L 355 248 L 355 248 L 347 250 L 347 250 L 342 235 L 342 235 L 349 232 L 349 232 L 445 200 L 445 200 L 453 198 L 453 198 L 458 213 L 458 213 Z" />
</svg>