<svg xmlns="http://www.w3.org/2000/svg" viewBox="0 0 384 508">
  <path d="M 90 0 L 93 7 L 90 0 L 93 7 L 108 44 L 108 44 L 120 72 L 120 72 L 132 44 L 132 44 L 147 7 L 147 7 L 151 0 L 151 0 L 158 3 L 158 3 L 232 34 L 232 34 L 239 37 L 239 37 L 236 45 L 236 45 L 220 82 L 220 82 L 148 252 L 148 252 L 208 252 L 208 252 L 208 188 L 208 188 L 208 180 L 208 180 L 216 180 L 304 180 L 304 188 L 304 188 L 304 196 L 304 196 L 376 196 L 384 196 L 384 204 L 384 204 L 384 276 L 384 276 L 384 340 L 384 340 L 384 348 L 384 348 L 384 356 L 384 356 Q 382 421 339 463 Q 297 506 232 508 L 152 508 L 152 508 Q 87 506 45 463 Q 2 421 0 356 L 0 260 L 0 260 L 0 252 L 0 252 L 8 252 L 44 252 L 52 233 L 52 233 L 68 195 L 68 195 L 20 82 L 20 82 L 4 45 L 4 45 L 1 37 L 1 37 L 9 34 L 9 34 L 82 3 L 82 3 L 90 0 L 90 0 Z M 77 175 L 111 93 L 77 175 L 111 93 L 94 50 L 94 50 L 81 21 L 81 21 L 22 46 L 22 46 L 35 75 L 35 75 L 77 175 L 77 175 Z M 61 252 L 131 252 L 61 252 L 131 252 L 206 75 L 206 75 L 218 46 L 218 46 L 159 21 L 159 21 L 147 50 L 147 50 L 67 240 L 67 240 L 61 252 L 61 252 Z M 368 276 L 368 212 L 368 276 L 368 212 L 304 212 L 304 212 L 304 332 L 304 332 L 368 332 L 368 332 L 368 276 L 368 276 Z M 368 348 L 304 348 L 368 348 L 96 348 L 96 332 L 96 332 L 104 332 L 208 332 L 208 268 L 208 268 L 16 268 L 16 268 L 16 356 L 16 356 Q 17 414 56 452 Q 94 491 152 492 L 232 492 L 232 492 Q 290 491 328 452 Q 367 414 368 356 L 368 348 L 368 348 Z M 224 332 L 288 332 L 224 332 L 288 332 L 288 204 L 288 204 L 288 196 L 288 196 L 224 196 L 224 196 L 224 252 L 224 252 L 224 260 L 224 260 L 224 332 L 224 332 Z" />
</svg>