<svg xmlns="http://www.w3.org/2000/svg" viewBox="0 0 512 512">
  <path d="M 112 80 Q 113 46 135 23 L 135 23 L 135 23 Q 158 1 192 0 Q 233 1 256 32 Q 279 1 320 0 Q 354 1 377 23 Q 399 46 400 80 Q 399 121 368 144 Q 399 167 400 208 Q 399 242 377 265 Q 354 287 320 288 Q 286 287 264 265 L 264 423 L 264 423 Q 286 376 328 349 Q 370 321 424 320 L 496 320 L 512 320 L 512 336 L 512 336 Q 510 411 460 460 Q 411 510 336 512 L 264 512 L 176 512 Q 101 510 52 460 Q 2 411 0 336 L 0 320 L 0 320 L 16 320 L 88 320 Q 142 321 184 349 Q 226 376 248 423 L 248 265 L 248 265 Q 226 287 192 288 Q 158 287 135 265 Q 113 242 112 208 Q 113 167 144 144 Q 113 121 112 80 L 112 80 Z M 192 16 Q 165 17 147 35 L 147 35 L 147 35 Q 129 53 128 80 Q 130 119 163 137 L 176 144 L 176 144 L 163 151 L 163 151 Q 130 169 128 208 Q 129 235 147 253 Q 165 271 192 272 Q 231 270 249 237 L 256 224 L 256 224 L 263 237 L 263 237 Q 281 270 320 272 Q 347 271 365 253 Q 383 235 384 208 Q 382 169 349 151 L 336 144 L 336 144 L 349 137 L 349 137 Q 382 119 384 80 Q 383 53 365 35 Q 347 17 320 16 Q 281 18 263 51 L 256 64 L 256 64 L 249 51 L 249 51 Q 231 18 192 16 L 192 16 Z M 248 496 Q 246 428 201 383 L 201 383 L 201 383 Q 156 338 88 336 L 16 336 L 16 336 Q 18 404 63 449 Q 108 494 176 496 L 248 496 L 248 496 Z M 336 496 Q 404 494 449 449 L 449 449 L 449 449 Q 494 404 496 336 L 424 336 L 424 336 Q 356 338 311 383 Q 266 428 264 496 L 336 496 L 336 496 Z M 262 98 L 302 138 L 262 98 L 302 138 L 307 144 L 307 144 L 302 150 L 302 150 L 262 190 L 262 190 L 256 195 L 256 195 L 250 190 L 250 190 L 210 150 L 210 150 L 205 144 L 205 144 L 210 138 L 210 138 L 250 98 L 250 98 L 256 93 L 256 93 L 262 98 L 262 98 Z M 256 173 L 285 144 L 256 173 L 285 144 L 256 115 L 256 115 L 227 144 L 227 144 L 256 173 L 256 173 Z" />
</svg>