<svg xmlns="http://www.w3.org/2000/svg" viewBox="0 0 512 512">
  <path d="M 384 459 L 384 264 L 384 459 L 384 264 L 384 256 L 384 256 L 368 256 L 368 256 L 368 264 L 368 264 L 368 468 L 368 468 Q 317 495 256 496 Q 195 495 144 468 L 144 264 L 144 264 L 144 256 L 144 256 L 128 256 L 128 256 L 128 264 L 128 264 L 128 459 L 128 459 Q 77 426 47 374 Q 17 321 16 256 Q 17 189 49 135 Q 81 81 135 49 Q 189 17 256 16 Q 323 17 377 49 Q 431 81 463 135 Q 495 189 496 256 Q 495 321 465 374 Q 435 426 384 459 L 384 459 Z M 256 512 Q 326 511 384 478 L 384 478 L 384 478 Q 442 444 478 384 Q 512 323 512 256 Q 512 189 478 128 Q 442 68 384 34 Q 326 1 256 0 Q 186 1 128 34 Q 70 68 34 128 Q 0 189 0 256 Q 0 323 34 384 Q 70 444 128 478 Q 186 511 256 512 L 256 512 Z M 304 384 Q 303 404 290 418 L 290 418 L 290 418 Q 276 431 256 432 Q 236 431 222 418 Q 209 404 208 384 L 208 352 L 208 352 Q 209 332 222 318 Q 236 305 256 304 Q 276 305 290 318 Q 303 332 304 352 L 304 384 L 304 384 Z M 256 288 Q 229 289 211 307 L 211 307 L 211 307 Q 193 325 192 352 L 192 384 L 192 384 Q 193 411 211 429 Q 229 447 256 448 Q 283 447 301 429 Q 319 411 320 384 L 320 352 L 320 352 Q 319 325 301 307 Q 283 289 256 288 L 256 288 Z M 119 228 Q 136 199 160 200 Q 183 199 201 228 L 205 235 L 205 235 L 218 227 L 218 227 L 215 220 L 215 220 Q 193 185 160 184 Q 126 185 105 220 L 101 227 L 101 227 L 115 235 L 115 235 L 118 228 L 119 228 Z M 352 200 Q 375 199 393 228 L 397 235 L 397 235 L 410 227 L 410 227 L 407 220 L 407 220 Q 385 185 352 184 Q 318 185 297 220 L 293 227 L 293 227 L 307 235 L 307 235 L 310 228 L 310 228 Q 328 199 351 200 L 352 200 Z" />
</svg>