<svg xmlns="http://www.w3.org/2000/svg" viewBox="0 0 320 448">
  <path d="M 16 288 Q 16 249 35 216 L 35 216 L 35 216 Q 54 183 88 163 Q 122 144 160 144 Q 198 144 232 163 Q 266 183 285 216 Q 304 249 304 288 Q 304 327 285 360 Q 266 393 232 413 Q 198 432 160 432 Q 122 432 88 413 Q 54 393 35 360 Q 16 327 16 288 L 16 288 Z M 101 139 L 235 0 L 101 139 L 235 0 L 213 0 L 213 0 L 47 172 L 47 172 Q 1 221 0 288 Q 2 356 47 401 Q 92 446 160 448 Q 228 446 273 401 Q 318 356 320 288 Q 318 220 273 175 Q 228 130 160 128 Q 128 128 101 139 L 101 139 Z" />
</svg>