<svg xmlns="http://www.w3.org/2000/svg" viewBox="0 0 310 512">
  <path d="M 155 96 Q 178 95 190 76 Q 200 56 190 36 Q 178 17 155 16 Q 132 17 120 36 Q 110 56 120 76 Q 132 95 155 96 L 155 96 Z M 155 0 Q 187 1 203 28 Q 219 56 203 84 Q 187 111 155 112 Q 123 111 107 84 Q 91 56 107 28 Q 123 1 155 0 L 155 0 Z M 117 203 L 115 211 L 117 203 L 115 211 L 62 368 L 62 368 L 83 368 L 248 368 L 195 211 L 195 211 L 193 203 L 193 203 L 208 198 L 208 198 L 211 205 L 211 205 L 267 373 L 267 373 L 270 384 L 270 384 L 259 384 L 227 384 L 227 504 L 227 504 L 227 512 L 227 512 L 219 512 L 163 512 L 163 504 L 163 504 L 163 384 L 163 384 L 147 384 L 147 384 L 147 504 L 147 504 L 147 512 L 147 512 L 139 512 L 83 512 L 83 504 L 83 504 L 83 384 L 83 384 L 51 384 L 40 384 L 43 374 L 43 374 L 99 206 L 99 206 L 102 198 L 102 198 L 117 203 L 117 203 Z M 99 384 L 99 496 L 99 384 L 99 496 L 131 496 L 131 496 L 131 384 L 131 384 L 99 384 L 99 384 Z M 179 496 L 211 496 L 179 496 L 211 496 L 211 384 L 211 384 L 179 384 L 179 384 L 179 496 L 179 496 Z M 96 128 L 214 128 L 96 128 L 219 128 L 221 133 L 221 133 L 306 309 L 306 309 L 310 316 L 310 316 L 295 323 L 295 323 L 292 316 L 292 316 L 209 144 L 209 144 L 101 144 L 101 144 L 18 316 L 18 316 L 15 323 L 15 323 L 0 316 L 0 316 L 4 309 L 4 309 L 89 133 L 89 133 L 91 128 L 91 128 L 96 128 L 96 128 Z" />
</svg>