<svg xmlns="http://www.w3.org/2000/svg" viewBox="0 0 640 512">
  <path d="M 452 267 Q 479 228 480 176 Q 478 108 433 63 Q 388 18 320 16 Q 252 18 207 63 Q 162 108 160 176 Q 161 228 189 267 Q 194 275 200 283 Q 201 285 203 287 Q 203 287 203 287 Q 203 287 203 287 Q 203 287 203 287 Q 203 287 203 287 Q 204 288 204 289 Q 223 314 239 342 Q 250 362 253 384 L 237 384 L 237 384 Q 234 366 225 350 Q 210 323 191 298 Q 191 298 191 298 Q 191 298 191 298 Q 191 298 191 298 Q 191 298 191 298 Q 191 298 191 298 Q 191 298 191 298 Q 183 287 175 276 Q 145 233 144 176 Q 146 101 196 52 Q 245 2 320 0 Q 395 2 444 52 Q 494 101 496 176 Q 495 233 465 276 Q 457 287 449 297 Q 449 298 449 298 Q 449 298 449 298 Q 449 298 449 298 Q 449 298 449 298 Q 449 298 449 298 Q 449 298 449 298 Q 449 298 449 298 Q 449 298 449 298 Q 449 298 449 298 Q 430 323 415 349 Q 406 366 403 384 L 387 384 L 387 384 Q 390 362 401 342 Q 417 313 437 287 Q 439 285 440 283 Q 446 275 452 267 L 452 267 Z M 256 496 L 384 496 L 256 496 L 384 496 L 384 432 L 384 432 L 256 432 L 256 432 L 256 496 L 256 496 Z M 240 416 L 256 416 L 240 416 L 400 416 L 400 432 L 400 432 L 400 496 L 400 496 L 400 512 L 400 512 L 384 512 L 240 512 L 240 496 L 240 496 L 240 432 L 240 432 L 240 416 L 240 416 Z M 328 104 L 328 264 L 328 104 L 328 264 L 328 272 L 328 272 L 312 272 L 312 272 L 312 264 L 312 264 L 312 104 L 312 104 L 312 96 L 312 96 L 328 96 L 328 96 L 328 104 L 328 104 Z M 304 304 L 336 304 L 304 304 L 336 304 L 336 336 L 336 336 L 304 336 L 304 336 L 304 304 L 304 304 Z M 49 4 L 124 49 L 49 4 L 124 49 L 131 53 L 131 53 L 123 67 L 123 67 L 116 63 L 116 63 L 41 18 L 41 18 L 34 14 L 34 14 L 42 0 L 42 0 L 49 4 L 49 4 Z M 599 18 L 524 63 L 599 18 L 524 63 L 517 67 L 517 67 L 509 53 L 509 53 L 516 49 L 516 49 L 591 4 L 591 4 L 598 0 L 598 0 L 606 14 L 606 14 L 599 18 L 599 18 Z M 8 160 L 88 160 L 8 160 L 96 160 L 96 176 L 96 176 L 88 176 L 0 176 L 0 160 L 0 160 L 8 160 L 8 160 Z M 552 160 L 632 160 L 552 160 L 640 160 L 640 176 L 640 176 L 632 176 L 544 176 L 544 160 L 544 160 L 552 160 L 552 160 Z M 124 271 L 49 316 L 124 271 L 49 316 L 42 320 L 42 320 L 34 306 L 34 306 L 41 302 L 41 302 L 116 257 L 116 257 L 123 253 L 123 253 L 131 267 L 131 267 L 124 271 L 124 271 Z M 524 257 L 599 302 L 524 257 L 599 302 L 606 306 L 606 306 L 598 320 L 598 320 L 591 316 L 591 316 L 516 271 L 516 271 L 509 267 L 509 267 L 517 253 L 517 253 L 524 257 L 524 257 Z" />
</svg>