<svg xmlns="http://www.w3.org/2000/svg" viewBox="0 0 576 384">
  <path d="M 0 0 L 0 16 L 0 0 L 0 16 L 0 83 L 0 83 Q 30 95 32 128 Q 30 161 0 173 L 0 368 L 0 368 L 0 384 L 0 384 L 16 384 L 576 384 L 576 368 L 576 368 L 576 173 L 576 173 Q 546 161 544 128 Q 546 95 576 83 L 576 16 L 576 16 L 576 0 L 576 0 L 560 0 L 0 0 Z M 112 336 L 112 328 L 112 336 L 112 328 L 96 328 L 96 328 L 96 336 L 96 336 L 96 368 L 96 368 L 16 368 L 16 368 L 16 272 L 16 272 L 560 272 L 560 272 L 560 368 L 560 368 L 480 368 L 480 368 L 480 336 L 480 336 L 480 328 L 480 328 L 464 328 L 464 328 L 464 336 L 464 336 L 464 368 L 464 368 L 352 368 L 352 368 L 352 336 L 352 336 L 352 328 L 352 328 L 336 328 L 336 328 L 336 336 L 336 336 L 336 368 L 336 368 L 240 368 L 240 368 L 240 336 L 240 336 L 240 328 L 240 328 L 224 328 L 224 328 L 224 336 L 224 336 L 224 368 L 224 368 L 112 368 L 112 368 L 112 336 L 112 336 Z M 48 128 Q 46 91 16 73 L 16 16 L 16 16 L 560 16 L 560 16 L 560 73 L 560 73 Q 530 91 528 128 Q 530 165 560 183 L 560 256 L 560 256 L 16 256 L 16 256 L 16 183 L 16 183 Q 46 165 48 128 L 48 128 Z M 192 64 L 176 64 L 192 64 L 128 64 L 128 80 L 128 80 L 128 96 L 128 96 L 128 160 L 128 160 L 128 176 L 128 176 L 128 192 L 128 192 L 144 192 L 192 192 L 192 176 L 192 176 L 192 160 L 192 160 L 192 96 L 192 96 L 192 80 L 192 80 L 192 64 L 192 64 Z M 144 96 L 144 80 L 144 96 L 144 80 L 176 80 L 176 80 L 176 96 L 176 96 L 176 160 L 176 160 L 176 176 L 176 176 L 144 176 L 144 176 L 144 160 L 144 160 L 144 96 L 144 96 Z M 320 64 L 304 64 L 320 64 L 256 64 L 256 80 L 256 80 L 256 96 L 256 96 L 256 160 L 256 160 L 256 176 L 256 176 L 256 192 L 256 192 L 272 192 L 320 192 L 320 176 L 320 176 L 320 160 L 320 160 L 320 96 L 320 96 L 320 80 L 320 80 L 320 64 L 320 64 Z M 272 96 L 272 80 L 272 96 L 272 80 L 304 80 L 304 80 L 304 96 L 304 96 L 304 160 L 304 160 L 304 176 L 304 176 L 272 176 L 272 176 L 272 160 L 272 160 L 272 96 L 272 96 Z M 448 64 L 432 64 L 448 64 L 384 64 L 384 80 L 384 80 L 384 96 L 384 96 L 384 160 L 384 160 L 384 176 L 384 176 L 384 192 L 384 192 L 400 192 L 448 192 L 448 176 L 448 176 L 448 160 L 448 160 L 448 96 L 448 96 L 448 80 L 448 80 L 448 64 L 448 64 Z M 400 96 L 400 80 L 400 96 L 400 80 L 432 80 L 432 80 L 432 96 L 432 96 L 432 160 L 432 160 L 432 176 L 432 176 L 400 176 L 400 176 L 400 160 L 400 160 L 400 96 L 400 96 Z" />
</svg>