<svg xmlns="http://www.w3.org/2000/svg" viewBox="0 0 512 512">
  <path d="M 184.8 65.6 Q 192 52 208 51.2 L 304 51.2 Q 320 52 327.2 65.6 L 332.8 76.8 L 409.6 76.8 Q 420.8 76.8 428 84 Q 435.2 91.2 435.2 102.4 Q 435.2 113.6 428 120.8 Q 420.8 128 409.6 128 L 122.4 128 L 155.2 153.6 L 409.6 153.6 L 397.6 341.6 L 496.8 418.4 L 512 430.4 L 488 460.8 L 472.8 448.8 L 15.2 93.6 L 0 81.6 L 23.2 51.2 L 38.4 63.2 L 78.4 93.6 Q 84.8 77.6 102.4 76.8 L 179.2 76.8 L 184.8 65.6 L 184.8 65.6 Z M 119.2 424.8 L 106.4 211.2 L 390.4 436 Q 380.8 459.2 354.4 460.8 L 157.6 460.8 Q 142.4 460.8 131.2 450.4 Q 120.8 440 119.2 424.8 L 119.2 424.8 Z" />
</svg>