<svg xmlns="http://www.w3.org/2000/svg" viewBox="0 0 512 448">
  <path d="M 0 0 L 8 0 L 0 0 L 512 0 L 512 16 L 512 16 L 504 16 L 480 16 L 480 432 L 480 432 L 504 432 L 512 432 L 512 448 L 512 448 L 504 448 L 352 448 L 352 432 L 352 432 L 352 320 L 352 320 Q 351 279 324 252 Q 297 225 256 224 Q 215 225 188 252 Q 161 279 160 320 L 160 432 L 160 432 L 160 448 L 160 448 L 144 448 L 0 448 L 0 432 L 0 432 L 8 432 L 32 432 L 32 16 L 32 16 L 8 16 L 0 16 L 0 0 L 0 0 Z M 48 16 L 48 432 L 48 16 L 48 432 L 80 432 L 144 432 L 144 320 L 144 320 Q 145 272 177 241 Q 208 209 256 208 Q 304 209 335 241 Q 367 272 368 320 L 368 432 L 368 432 L 424 432 L 464 432 L 464 16 L 464 16 L 48 16 L 48 16 Z M 104 112 L 408 112 L 104 112 L 416 112 L 416 128 L 416 128 L 408 128 L 96 128 L 96 112 L 96 112 L 104 112 L 104 112 Z" />
</svg>