<svg xmlns="http://www.w3.org/2000/svg" viewBox="0 0 512 512">
  <path d="M 248 0 L 264 0 L 248 0 L 264 0 L 264 48 L 264 48 L 448 48 L 448 48 L 512 120 L 512 120 L 448 192 L 448 192 L 264 192 L 264 192 L 264 240 L 264 240 L 464 240 L 480 240 L 480 256 L 480 256 L 480 368 L 480 368 L 480 384 L 480 384 L 464 384 L 264 384 L 264 512 L 264 512 L 248 512 L 248 512 L 248 384 L 248 384 L 64 384 L 64 384 L 0 312 L 0 312 L 64 240 L 64 240 L 248 240 L 248 240 L 248 192 L 248 192 L 48 192 L 32 192 L 32 176 L 32 176 L 32 64 L 32 64 L 32 48 L 32 48 L 48 48 L 248 48 L 248 0 L 248 0 Z M 441 64 L 48 64 L 441 64 L 48 64 L 48 176 L 48 176 L 441 176 L 441 176 L 491 120 L 491 120 L 441 64 L 441 64 Z M 71 256 L 21 312 L 71 256 L 21 312 L 71 368 L 71 368 L 464 368 L 464 368 L 464 256 L 464 256 L 71 256 L 71 256 Z" />
</svg>