<svg xmlns="http://www.w3.org/2000/svg" viewBox="0 0 512 512">
  <path d="M 256 16 Q 189 17 135 49 L 135 49 L 135 49 Q 81 81 49 135 L 49 135 L 49 135 Q 17 189 16 256 Q 16 272 18 287 L 2 289 L 2 289 Q 0 273 0 256 Q 1 184 35 127 Q 69 69 127 35 Q 184 1 256 0 Q 328 1 385 35 Q 443 69 477 127 Q 511 184 512 256 Q 511 328 477 385 Q 443 443 385 477 Q 328 511 256 512 Q 239 512 223 510 L 225 494 L 225 494 Q 240 496 256 496 Q 323 495 377 463 Q 431 431 463 377 Q 495 323 496 256 Q 495 189 463 135 Q 431 81 377 49 Q 323 17 256 16 L 256 16 Z M 304 342 L 308 345 L 304 342 L 308 345 L 353 375 L 353 375 L 380 361 L 380 361 L 388 357 L 388 357 L 395 372 L 395 372 L 388 375 L 388 375 L 356 391 L 356 391 L 351 393 L 351 393 L 347 391 L 347 391 L 304 362 L 304 362 L 260 391 L 260 391 L 253 395 L 253 395 L 245 382 L 245 382 L 251 377 L 251 377 L 299 345 L 299 345 L 304 342 L 304 342 Z M 140 161 L 220 201 L 140 161 L 220 201 L 234 208 L 234 208 L 220 215 L 220 215 L 140 255 L 140 255 L 132 259 L 132 259 L 125 244 L 125 244 L 132 241 L 132 241 L 198 208 L 198 208 L 132 175 L 132 175 L 125 172 L 125 172 L 132 157 L 132 157 L 140 161 L 140 161 Z M 380 157 L 387 172 L 380 157 L 387 172 L 380 175 L 380 175 L 314 208 L 314 208 L 380 241 L 380 241 L 387 244 L 387 244 L 380 259 L 380 259 L 372 255 L 372 255 L 292 215 L 292 215 L 278 208 L 278 208 L 292 201 L 292 201 L 372 161 L 372 161 L 380 157 L 380 157 Z M 79 389 L 57 455 L 79 389 L 57 455 L 123 433 L 123 433 L 132 430 L 132 430 L 139 437 L 139 437 L 181 478 L 181 478 L 205 307 L 205 307 L 34 331 L 34 331 L 75 373 L 75 373 L 82 380 L 82 380 L 79 389 L 79 389 Z M 0 320 L 20 317 L 0 320 L 20 317 L 208 290 L 208 290 L 224 288 L 224 288 L 222 305 L 222 305 L 195 492 L 195 492 L 192 512 L 192 512 L 178 498 L 178 498 L 128 448 L 128 448 L 51 474 L 51 474 L 32 480 L 32 480 L 38 461 L 38 461 L 64 384 L 64 384 L 14 334 L 14 334 L 0 320 L 0 320 Z" />
</svg>