<svg xmlns="http://www.w3.org/2000/svg" viewBox="0 0 512 512">
  <path d="M 192 0 Q 281 1 353 44 L 353 44 L 353 44 Q 426 86 468 159 L 468 159 L 468 159 Q 511 231 512 320 Q 511 327 504 328 Q 497 327 496 320 Q 495 235 454 167 Q 414 98 345 58 Q 277 17 192 16 Q 185 15 184 8 Q 185 1 192 0 L 192 0 Z M 192 96 Q 255 97 305 127 L 305 127 L 305 127 Q 356 156 385 207 L 385 207 L 385 207 Q 415 257 416 320 Q 415 327 408 328 Q 401 327 400 320 Q 398 232 339 173 Q 280 114 192 112 Q 185 111 184 104 Q 185 97 192 96 L 192 96 Z M 16 304 Q 18 386 72 440 L 72 440 L 72 440 Q 126 494 208 496 Q 261 495 304 470 L 42 208 L 42 208 Q 17 251 16 304 L 16 304 Z M 0 304 Q 1 244 30 197 Q 34 189 39 183 L 50 194 L 50 194 L 178 322 L 178 322 Q 178 322 178 322 Q 178 322 178 322 L 199 302 L 199 302 Q 192 292 192 280 Q 193 263 204 252 Q 215 240 232 240 Q 249 240 260 252 Q 272 263 272 280 Q 272 297 260 308 Q 249 320 232 320 Q 220 320 210 313 L 190 334 L 190 334 Q 190 334 190 334 L 318 462 L 318 462 L 329 473 L 329 473 Q 323 478 316 482 Q 268 511 208 512 Q 120 510 61 451 Q 2 392 0 304 L 0 304 Z M 256 280 Q 254 258 232 256 Q 210 258 208 280 Q 210 302 232 304 Q 254 302 256 280 L 256 280 Z" />
</svg>