<svg xmlns="http://www.w3.org/2000/svg" viewBox="0 0 512 512">
  <path d="M 320 0 L 320 64 L 192 64 L 192 0 L 320 0 L 320 0 Z M 128 152 Q 129 127 151 115 L 192 96 L 320 96 L 361 115 Q 383 127 384 152 Q 383 174 365 186 Q 383 200 384 224 Q 383 250 363 264 Q 383 278 384 304 Q 383 330 363 344 Q 383 358 384 384 Q 383 410 363 424 Q 383 438 384 464 L 384 512 L 128 512 L 128 464 Q 129 438 150 424 Q 129 410 128 384 Q 129 358 150 344 Q 129 330 128 304 Q 129 278 150 264 Q 129 250 128 224 Q 129 200 147 186 Q 129 174 128 152 L 128 152 Z M 192 224 L 192 256 L 320 256 L 320 224 L 192 224 L 192 224 Z M 320 352 L 192 352 L 192 384 L 320 384 L 320 352 L 320 352 Z" />
</svg>