<svg xmlns="http://www.w3.org/2000/svg" viewBox="0 0 576 512">
  <path d="M 104 0 Q 60 1 30 30 L 30 30 L 30 30 Q 1 60 0 104 L 0 504 L 0 504 L 0 512 L 0 512 L 8 512 L 128 512 L 128 504 L 128 504 L 128 496 L 128 496 L 16 496 L 16 496 L 16 192 L 16 192 L 152 192 L 152 192 L 159 176 L 159 176 L 16 176 L 16 176 L 16 104 L 16 104 Q 17 67 42 42 Q 67 17 104 16 Q 141 17 165 41 Q 190 65 192 101 L 194 97 L 194 97 L 207 92 L 207 92 Q 202 52 173 26 Q 145 1 104 0 L 104 0 Z M 371 65 L 368 63 L 371 65 L 368 63 L 365 65 L 365 65 L 221 121 L 221 121 L 218 122 L 218 122 L 217 125 L 217 125 L 161 253 L 161 253 L 160 254 L 160 254 L 160 256 L 160 256 L 160 504 L 160 504 L 160 512 L 160 512 L 168 512 L 576 512 L 576 504 L 576 504 L 576 256 L 576 256 L 576 254 L 576 254 L 575 253 L 575 253 L 519 125 L 519 125 L 518 122 L 518 122 L 515 121 L 515 121 L 371 65 L 371 65 Z M 176 258 L 230 134 L 176 258 L 230 134 L 368 81 L 368 81 L 506 134 L 506 134 L 560 258 L 560 258 L 560 496 L 560 496 L 448 496 L 448 496 L 448 392 L 448 392 L 448 384 L 448 384 L 440 384 L 288 384 L 288 392 L 288 392 L 288 496 L 288 496 L 176 496 L 176 496 L 176 258 L 176 258 Z M 432 496 L 304 496 L 432 496 L 304 496 L 304 400 L 304 400 L 432 400 L 432 400 L 432 496 L 432 496 Z M 320 192 L 304 192 L 320 192 L 304 192 L 304 208 L 304 208 L 304 304 L 304 304 L 304 320 L 304 320 L 320 320 L 432 320 L 432 304 L 432 304 L 432 208 L 432 208 L 432 192 L 432 192 L 416 192 L 320 192 Z M 416 208 L 416 304 L 416 208 L 416 304 L 320 304 L 320 304 L 320 208 L 320 208 L 416 208 L 416 208 Z" />
</svg>