<svg xmlns="http://www.w3.org/2000/svg" viewBox="0 0 384 512">
  <path d="M 18 147 L 120 16 L 18 147 L 120 16 L 264 16 L 264 16 L 366 147 L 366 147 L 268 496 L 268 496 L 116 496 L 116 496 L 18 147 L 18 147 Z M 104 512 L 280 512 L 104 512 L 280 512 L 384 144 L 384 144 L 272 0 L 272 0 L 112 0 L 112 0 L 0 144 L 0 144 L 104 512 L 104 512 Z M 200 104 L 200 96 L 200 104 L 200 96 L 184 96 L 184 96 L 184 104 L 184 104 L 184 176 L 184 176 L 104 176 L 96 176 L 96 192 L 96 192 L 104 192 L 184 192 L 184 344 L 184 344 L 184 352 L 184 352 L 200 352 L 200 352 L 200 344 L 200 344 L 200 192 L 200 192 L 280 192 L 288 192 L 288 176 L 288 176 L 280 176 L 200 176 L 200 104 L 200 104 Z" />
</svg>