<svg xmlns="http://www.w3.org/2000/svg" viewBox="0 0 640 448">
  <path d="M 16 16 L 16 96 L 16 16 L 16 96 L 112 96 L 128 96 L 128 112 L 128 112 L 128 336 L 128 336 L 128 352 L 128 352 L 112 352 L 16 352 L 16 432 L 16 432 L 312 432 L 312 432 L 312 320 L 312 320 Q 274 316 250 289 Q 225 263 224 224 Q 225 185 250 159 Q 274 132 312 128 L 312 16 L 312 16 L 16 16 L 16 16 Z M 328 320 L 328 432 L 328 320 L 328 432 L 624 432 L 624 432 L 624 352 L 624 352 L 528 352 L 512 352 L 512 336 L 512 336 L 512 112 L 512 112 L 512 96 L 512 96 L 528 96 L 624 96 L 624 16 L 624 16 L 328 16 L 328 16 L 328 128 L 328 128 Q 366 132 390 159 Q 415 185 416 224 Q 415 263 390 289 Q 366 316 328 320 L 328 320 Z M 328 144 L 328 304 L 328 144 L 328 304 Q 359 300 379 278 Q 399 256 400 224 Q 399 192 379 170 Q 359 148 328 144 L 328 144 Z M 312 144 Q 281 148 261 170 L 261 170 L 261 170 Q 241 192 240 224 Q 241 256 261 278 Q 281 300 312 304 L 312 144 L 312 144 Z M 16 112 L 16 336 L 16 112 L 16 336 L 112 336 L 112 336 L 112 112 L 112 112 L 16 112 L 16 112 Z M 528 336 L 624 336 L 528 336 L 624 336 L 624 112 L 624 112 L 528 112 L 528 112 L 528 336 L 528 336 Z M 0 0 L 16 0 L 0 0 L 640 0 L 640 16 L 640 16 L 640 432 L 640 432 L 640 448 L 640 448 L 624 448 L 0 448 L 0 432 L 0 432 L 0 16 L 0 16 L 0 0 L 0 0 Z" />
</svg>