<svg xmlns="http://www.w3.org/2000/svg" viewBox="0 0 416 432">
  <path d="M 0 432 L 32 432 L 0 432 L 32 432 L 32 400 L 32 400 L 0 400 L 0 400 L 0 432 L 0 432 Z M 128 432 L 128 400 L 128 432 L 128 400 L 96 400 L 96 400 L 96 432 L 96 432 L 128 432 L 128 432 Z M 224 432 L 224 400 L 224 432 L 224 400 L 192 400 L 192 400 L 192 432 L 192 432 L 224 432 L 224 432 Z M 320 432 L 320 400 L 320 432 L 320 400 L 288 400 L 288 400 L 288 432 L 288 432 L 320 432 L 320 432 Z M 384 432 L 416 432 L 384 432 L 416 432 L 416 400 L 416 400 L 384 400 L 384 400 L 384 432 L 384 432 Z M 144 160 L 128 160 L 144 160 L 48 160 L 48 176 L 48 176 L 48 192 L 48 192 L 197 341 L 197 341 L 208 352 L 208 352 L 219 341 L 219 341 L 368 192 L 368 192 L 368 176 L 368 176 L 368 160 L 368 160 L 352 160 L 272 160 L 272 144 L 272 144 L 272 16 L 272 16 L 272 0 L 272 0 L 256 0 L 144 0 L 144 16 L 144 16 L 144 144 L 144 144 L 144 160 L 144 160 Z M 144 176 L 160 176 L 144 176 L 160 176 L 160 160 L 160 160 L 160 16 L 160 16 L 256 16 L 256 16 L 256 160 L 256 160 L 256 176 L 256 176 L 272 176 L 352 176 L 352 185 L 352 185 L 208 329 L 208 329 L 64 185 L 64 185 L 64 176 L 64 176 L 144 176 L 144 176 Z" />
</svg>