<svg xmlns="http://www.w3.org/2000/svg" viewBox="0 0 512 512">
  <path d="M 256 16 Q 321 17 376 48 L 376 48 L 376 48 Q 431 80 464 136 Q 496 193 496 256 Q 496 319 464 376 Q 431 432 376 464 Q 321 495 256 496 Q 191 495 136 464 Q 81 432 48 376 Q 16 319 16 256 Q 16 193 48 136 Q 81 80 136 48 Q 191 17 256 16 L 256 16 Z M 256 512 Q 326 511 384 478 L 384 478 L 384 478 Q 442 444 478 384 Q 512 323 512 256 Q 512 189 478 128 Q 442 68 384 34 Q 326 1 256 0 Q 186 1 128 34 Q 70 68 34 128 Q 0 189 0 256 Q 0 323 34 384 Q 70 444 128 478 Q 186 511 256 512 L 256 512 Z M 176 128 L 176 136 L 176 128 L 176 136 L 176 181 L 176 181 Q 176 203 192 220 L 214 243 L 214 243 L 175 270 L 175 270 Q 145 292 144 329 L 144 376 L 144 376 L 144 384 L 144 384 L 152 384 L 276 384 L 278 381 L 278 381 L 309 342 L 309 342 L 350 384 L 350 384 L 372 384 L 372 384 L 319 329 L 319 329 L 366 269 L 366 269 L 371 263 L 371 263 L 359 253 L 359 253 L 354 259 L 354 259 L 308 317 L 308 317 L 238 245 L 238 245 L 276 219 L 276 219 Q 295 204 296 179 L 296 136 L 296 136 L 296 128 L 296 128 L 288 128 L 176 128 Z M 227 233 L 203 208 L 227 233 L 203 208 Q 192 197 192 181 L 192 144 L 192 144 L 280 144 L 280 144 L 280 179 L 280 179 Q 280 196 267 205 L 227 233 L 227 233 Z M 225 254 L 298 330 L 225 254 L 298 330 L 268 368 L 268 368 L 160 368 L 160 368 L 160 329 L 160 329 Q 161 300 184 284 L 225 254 L 225 254 Z" />
</svg>