<svg xmlns="http://www.w3.org/2000/svg" viewBox="0 0 576 512">
  <path d="M 128 8 L 128 0 L 128 8 L 128 0 L 112 0 L 112 0 L 112 8 L 112 8 L 112 64 L 112 64 L 16 64 L 0 64 L 0 80 L 0 80 L 0 176 L 0 176 L 0 192 L 0 192 L 0 496 L 0 496 L 0 512 L 0 512 L 16 512 L 253 512 L 256 496 L 256 496 L 16 496 L 16 496 L 16 192 L 16 192 L 384 192 L 448 192 L 448 176 L 448 176 L 448 80 L 448 80 L 448 64 L 448 64 L 432 64 L 336 64 L 336 8 L 336 8 L 336 0 L 336 0 L 320 0 L 320 0 L 320 8 L 320 8 L 320 64 L 320 64 L 128 64 L 128 64 L 128 8 L 128 8 Z M 112 80 L 112 120 L 112 80 L 112 120 L 112 128 L 112 128 L 128 128 L 128 128 L 128 120 L 128 120 L 128 80 L 128 80 L 320 80 L 320 80 L 320 120 L 320 120 L 320 128 L 320 128 L 336 128 L 336 128 L 336 120 L 336 120 L 336 80 L 336 80 L 432 80 L 432 80 L 432 176 L 432 176 L 16 176 L 16 176 L 16 80 L 16 80 L 112 80 L 112 80 Z M 104 384 L 96 384 L 104 384 L 96 384 L 96 400 L 96 400 L 104 400 L 256 400 L 256 384 L 256 384 L 248 384 L 104 384 Z M 96 288 L 96 304 L 96 288 L 96 304 L 104 304 L 352 304 L 352 288 L 352 288 L 344 288 L 96 288 Z M 499 224 L 302 421 L 499 224 L 302 421 L 291 495 L 291 495 L 288 512 L 288 512 L 305 509 L 305 509 L 379 498 L 379 498 L 565 312 L 565 312 L 576 301 L 576 301 L 565 290 L 565 290 L 510 235 L 510 235 L 499 224 L 499 224 Z M 317 428 L 455 290 L 317 428 L 455 290 L 510 345 L 510 345 L 372 483 L 372 483 L 307 493 L 307 493 L 317 428 L 317 428 Z M 553 301 L 521 333 L 553 301 L 521 333 L 466 279 L 466 279 L 499 247 L 499 247 L 553 301 L 553 301 Z" />
</svg>