<svg xmlns="http://www.w3.org/2000/svg" viewBox="0 0 448 448">
  <path d="M 16 16 L 16 112 L 16 16 L 16 112 L 432 112 L 432 112 L 432 16 L 432 16 L 16 16 L 16 16 Z M 0 0 L 16 0 L 0 0 L 448 0 L 448 16 L 448 16 L 448 112 L 448 112 L 448 128 L 448 128 L 432 128 L 416 128 L 416 232 L 416 232 L 416 344 L 416 344 L 416 440 L 416 440 L 416 448 L 416 448 L 400 448 L 400 448 L 400 440 L 400 440 L 400 352 L 400 352 L 280 352 L 176 352 L 176 440 L 176 440 L 176 448 L 176 448 L 160 448 L 160 448 L 160 440 L 160 440 L 160 352 L 160 352 L 48 352 L 48 352 L 48 440 L 48 440 L 48 448 L 48 448 L 32 448 L 32 448 L 32 440 L 32 440 L 32 344 L 32 344 L 32 232 L 32 232 L 32 128 L 32 128 L 16 128 L 0 128 L 0 112 L 0 112 L 0 16 L 0 16 L 0 0 L 0 0 Z M 48 128 L 48 224 L 48 128 L 48 224 L 160 224 L 160 224 L 160 128 L 160 128 L 48 128 L 48 128 Z M 176 128 L 176 224 L 176 128 L 176 224 L 280 224 L 400 224 L 400 128 L 400 128 L 176 128 L 176 128 Z M 168 336 L 272 336 L 168 336 L 272 336 L 272 240 L 272 240 L 168 240 L 48 240 L 48 336 L 48 336 L 168 336 L 168 336 Z M 288 336 L 400 336 L 288 336 L 400 336 L 400 240 L 400 240 L 288 240 L 288 240 L 288 336 L 288 336 Z" />
</svg>