<svg xmlns="http://www.w3.org/2000/svg" viewBox="0 0 512 512">
  <path d="M 288 295 L 512 40 L 288 295 L 512 40 L 472 0 L 472 0 L 217 225 L 217 225 L 228 236 L 228 236 L 471 22 L 471 22 L 490 41 L 490 41 L 276 284 L 276 284 L 287 295 L 288 295 Z M 182 234 L 176 229 L 182 234 L 176 229 L 165 240 L 165 240 L 170 246 L 170 246 L 181 256 L 181 256 L 112 325 L 112 325 L 110 322 L 110 322 L 104 317 L 104 317 L 98 322 L 98 322 L 2 418 L 2 418 L 0 421 L 0 421 L 0 424 L 0 424 L 0 456 L 0 456 L 0 459 L 0 459 L 2 462 L 2 462 L 50 510 L 50 510 L 53 512 L 53 512 L 56 512 L 91 512 L 94 510 L 94 510 L 190 414 L 190 414 L 195 408 L 195 408 L 190 402 L 190 402 L 187 400 L 187 400 L 256 331 L 256 331 L 266 342 L 266 342 L 272 347 L 272 347 L 283 336 L 283 336 L 278 330 L 278 330 L 262 314 L 262 314 L 198 250 L 198 250 L 182 234 L 182 234 Z M 192 267 L 245 320 L 192 267 L 245 320 L 216 349 L 216 349 L 163 296 L 163 296 L 192 267 L 192 267 Z M 123 336 L 152 307 L 123 336 L 152 307 L 205 360 L 205 360 L 176 389 L 176 389 L 123 336 L 123 336 Z M 16 427 L 104 339 L 16 427 L 104 339 L 106 342 L 106 342 L 170 406 L 170 406 L 173 408 L 173 408 L 85 496 L 85 496 L 59 496 L 59 496 L 16 453 L 16 453 L 16 427 L 16 427 Z" />
</svg>