<svg xmlns="http://www.w3.org/2000/svg" viewBox="0 0 384 448">
  <path d="M 84 42 Q 122 16 168 16 L 235 16 L 235 16 Q 271 17 295 41 Q 319 65 320 101 Q 319 136 296 160 L 16 160 L 0 160 L 0 176 L 0 176 L 16 176 L 275 176 Q 273 177 271 178 L 106 256 L 106 256 Q 106 256 105 256 L 16 256 L 0 256 L 0 272 L 0 272 L 16 272 L 81 272 Q 49 302 48 347 Q 49 390 78 418 Q 106 447 149 448 L 216 448 L 216 448 Q 266 448 309 420 L 317 415 L 317 415 L 323 410 L 323 410 L 314 397 L 314 397 L 308 401 L 308 401 L 300 407 L 300 407 Q 262 432 216 432 L 149 432 L 149 432 Q 113 431 89 407 Q 65 383 64 347 Q 64 323 76 303 Q 88 283 109 272 L 368 272 L 384 272 L 384 256 L 384 256 L 368 256 L 143 256 L 278 192 L 278 192 Q 292 186 303 176 L 368 176 L 384 176 L 384 160 L 384 160 L 368 160 L 317 160 Q 336 134 336 101 Q 335 58 306 30 Q 278 1 235 0 L 168 0 L 168 0 Q 118 0 75 28 L 68 33 L 68 33 L 61 38 L 61 38 L 70 51 L 70 51 L 76 47 L 76 47 L 84 42 L 84 42 Z" />
</svg>