<svg xmlns="http://www.w3.org/2000/svg" viewBox="0 0 640 512">
  <path d="M 250 280 L 592 15 L 250 280 L 592 15 L 611 0 L 611 0 L 640 38 L 640 38 L 621 53 L 621 53 L 48 497 L 48 497 L 29 512 L 29 512 L 0 474 L 0 474 L 19 459 L 19 459 L 164 347 L 164 347 Q 117 288 91 217 Q 64 145 64 64 L 64 32 L 64 32 L 208 0 L 208 0 L 288 144 L 288 144 L 204 211 L 204 211 Q 224 248 250 280 L 250 280 Z M 234 416 L 323 346 L 234 416 L 323 346 Q 343 360 365 372 L 432 288 L 432 288 L 576 368 L 576 368 L 544 512 L 544 512 L 512 512 L 512 512 Q 433 512 362 486 Q 292 461 234 416 L 234 416 Z" />
</svg>