<svg xmlns="http://www.w3.org/2000/svg" viewBox="0 0 506 512">
  <path d="M 208 38 L 368 18 L 208 38 L 368 18 L 368 64 L 368 64 L 208 64 L 208 64 L 208 38 L 208 38 Z M 368 2 L 192 24 L 368 2 L 192 24 L 192 64 L 192 64 L 192 80 L 192 80 L 208 80 L 384 80 L 384 64 L 384 64 L 384 16 L 384 16 L 384 0 L 384 0 L 368 2 L 368 2 Z M 365 240 L 208 419 L 365 240 L 208 419 L 208 304 L 208 304 L 208 288 L 208 288 L 192 288 L 16 288 L 16 240 L 16 240 L 40 240 L 365 240 Z M 192 440 L 192 496 L 192 440 L 192 496 L 192 512 L 192 512 L 208 512 L 384 512 L 384 496 L 384 496 L 384 401 L 384 401 L 384 370 L 384 370 L 400 397 L 400 397 L 429 447 L 429 447 L 438 460 L 438 460 L 451 452 L 451 452 L 493 428 L 493 428 L 506 420 L 506 420 L 498 406 L 498 406 L 402 244 L 402 244 L 391 224 L 391 224 L 368 224 L 0 224 L 0 240 L 0 240 L 0 288 L 0 288 L 0 304 L 0 304 L 16 304 L 192 304 L 192 320 L 192 320 L 192 440 L 192 440 Q 192 440 192 440 Q 192 440 192 440 L 192 440 Z M 208 448 L 368 448 L 208 448 L 368 448 L 368 496 L 368 496 L 208 496 L 208 496 L 208 448 L 208 448 Z M 368 432 L 218 432 L 368 432 L 218 432 L 382 245 L 382 245 Q 383 244 383 243 L 389 252 L 389 252 L 485 414 L 485 414 L 443 438 L 443 438 L 398 362 L 398 362 L 392 352 L 392 352 L 368 352 L 368 352 L 368 370 L 368 370 L 368 432 L 368 432 Z M 210 96 Q 208 104 208 112 Q 209 146 231 169 Q 254 191 288 192 Q 322 191 345 169 Q 367 146 368 112 Q 368 104 366 96 L 350 96 L 350 96 Q 352 104 352 112 Q 351 139 333 157 Q 315 175 288 176 Q 261 175 243 157 Q 225 139 224 112 Q 224 104 226 96 L 210 96 L 210 96 Z" />
</svg>