<svg xmlns="http://www.w3.org/2000/svg" viewBox="0 0 512 504">
  <path d="M 400 128 L 400 144 L 400 128 L 400 144 L 416 144 L 416 144 Q 450 145 473 167 Q 495 190 496 224 L 496 304 L 496 304 L 416 304 L 16 304 L 16 224 L 16 224 Q 16 197 31 177 Q 46 157 69 149 L 80 145 L 80 145 L 80 134 L 80 134 L 80 112 L 80 112 Q 81 71 108 44 Q 135 17 176 16 Q 227 18 255 57 L 263 69 L 263 69 L 276 61 L 276 61 Q 296 48 320 48 Q 354 49 377 71 Q 399 94 400 128 L 400 128 Z M 0 320 L 16 320 L 0 320 L 512 320 L 512 304 L 512 304 L 512 224 L 512 224 Q 511 183 484 156 Q 457 129 416 128 Q 415 87 388 60 Q 361 33 320 32 Q 291 32 268 48 Q 235 2 176 0 Q 128 1 97 33 Q 65 64 64 112 L 64 134 L 64 134 Q 36 144 18 168 Q 1 192 0 224 L 0 304 L 0 304 L 0 320 L 0 320 Z M 72 360 L 56 360 L 72 360 L 56 360 L 56 368 L 56 368 L 56 408 L 56 408 L 16 408 L 8 408 L 8 424 L 8 424 L 16 424 L 56 424 L 56 464 L 56 464 L 56 472 L 56 472 L 72 472 L 72 472 L 72 464 L 72 464 L 72 424 L 72 424 L 112 424 L 120 424 L 120 408 L 120 408 L 112 408 L 72 408 L 72 368 L 72 368 L 72 360 L 72 360 Z M 456 368 L 456 360 L 456 368 L 456 360 L 440 360 L 440 360 L 440 368 L 440 368 L 440 408 L 440 408 L 400 408 L 392 408 L 392 424 L 392 424 L 400 424 L 440 424 L 440 464 L 440 464 L 440 472 L 440 472 L 456 472 L 456 472 L 456 464 L 456 464 L 456 424 L 456 424 L 496 424 L 504 424 L 504 408 L 504 408 L 496 408 L 456 408 L 456 368 L 456 368 Z M 264 392 L 248 392 L 264 392 L 248 392 L 248 400 L 248 400 L 248 440 L 248 440 L 208 440 L 200 440 L 200 456 L 200 456 L 208 456 L 248 456 L 248 496 L 248 496 L 248 504 L 248 504 L 264 504 L 264 504 L 264 496 L 264 496 L 264 456 L 264 456 L 304 456 L 312 456 L 312 440 L 312 440 L 304 440 L 264 440 L 264 400 L 264 400 L 264 392 L 264 392 Z" />
</svg>