<svg xmlns="http://www.w3.org/2000/svg" viewBox="0 0 512 512">
  <path d="M 16 123 L 16 144 L 16 123 L 16 144 L 224 144 L 224 144 Q 216 134 216 120 Q 216 103 228 92 Q 239 80 256 80 Q 273 80 284 92 Q 296 103 296 120 Q 296 134 288 144 L 496 144 L 496 144 L 496 123 L 496 123 L 256 18 L 256 18 L 16 123 L 16 123 Z M 256 144 Q 278 142 280 120 Q 278 98 256 96 Q 234 98 232 120 Q 234 142 256 144 L 256 144 Z M 256 160 L 16 160 L 256 160 L 0 160 L 0 144 L 0 144 L 0 112 L 0 112 L 256 0 L 256 0 L 512 112 L 512 112 L 512 144 L 512 144 L 512 160 L 512 160 L 496 160 L 256 160 Z M 80 192 L 80 200 L 80 192 L 80 200 L 80 368 L 80 368 L 184 368 L 184 368 L 184 200 L 184 200 L 184 192 L 184 192 L 200 192 L 200 192 L 200 200 L 200 200 L 200 368 L 200 368 L 312 368 L 312 368 L 312 200 L 312 200 L 312 192 L 312 192 L 328 192 L 328 192 L 328 200 L 328 200 L 328 368 L 328 368 L 432 368 L 432 368 L 432 200 L 432 200 L 432 192 L 432 192 L 448 192 L 448 192 L 448 200 L 448 200 L 448 376 L 448 376 L 448 384 L 448 384 L 440 384 L 64 384 L 64 376 L 64 376 L 64 200 L 64 200 L 64 192 L 64 192 L 80 192 L 80 192 Z M 32 432 L 40 432 L 32 432 L 480 432 L 480 448 L 480 448 L 472 448 L 32 448 L 32 432 L 32 432 Z M 0 496 L 8 496 L 0 496 L 512 496 L 512 512 L 512 512 L 504 512 L 0 512 L 0 496 L 0 496 Z" />
</svg>