<svg xmlns="http://www.w3.org/2000/svg" viewBox="0 0 512 512">
  <path d="M 139 11 L 128 0 L 139 11 L 128 0 L 117 11 L 117 11 L 11 117 L 11 117 L 0 128 L 0 128 L 11 139 L 11 139 L 109 237 L 109 237 L 121 226 L 121 226 L 23 128 L 23 128 L 128 23 L 128 23 L 175 70 L 175 70 L 130 114 L 130 114 L 125 120 L 125 120 L 136 131 L 136 131 L 142 126 L 142 126 L 186 81 L 186 81 L 226 121 L 226 121 L 237 109 L 237 109 L 139 11 L 139 11 Z M 373 501 L 384 512 L 373 501 L 384 512 L 395 501 L 395 501 L 501 395 L 501 395 L 512 384 L 512 384 L 501 373 L 501 373 L 403 275 L 403 275 L 391 286 L 391 286 L 431 326 L 431 326 L 386 370 L 386 370 L 381 376 L 381 376 L 392 387 L 392 387 L 398 382 L 398 382 L 442 337 L 442 337 L 489 384 L 489 384 L 384 489 L 384 489 L 286 391 L 286 391 L 275 403 L 275 403 L 373 501 L 373 501 Z M 4 494 L 0 512 L 4 494 L 0 512 L 18 508 L 18 508 L 160 472 L 160 472 L 501 131 L 501 131 L 512 120 L 512 120 L 501 109 L 501 109 L 403 11 L 403 11 L 392 0 L 392 0 L 381 11 L 381 11 L 40 352 L 40 352 L 4 494 L 4 494 Z M 22 490 L 54 360 L 22 490 L 54 360 L 314 101 L 314 101 L 411 198 L 411 198 L 152 458 L 152 458 L 22 490 L 22 490 Z M 489 120 L 422 187 L 489 120 L 422 187 L 325 90 L 325 90 L 392 23 L 392 23 L 489 120 L 489 120 Z" />
</svg>