<svg xmlns="http://www.w3.org/2000/svg" viewBox="0 0 640 512">
  <path d="M 483 352 L 512 352 L 483 352 L 512 352 L 512 312 L 512 312 Q 512 309 511 304 Q 508 283 491 251 Q 473 219 439 193 L 428 48 L 428 48 L 456 48 L 480 48 L 480 0 L 480 0 L 456 0 L 160 0 L 160 48 L 160 48 L 184 48 L 212 48 L 206 137 L 206 137 L 48 15 L 48 15 L 29 0 L 29 0 L 0 38 L 0 38 L 19 53 L 19 53 L 592 497 L 592 497 L 611 512 L 611 512 L 640 474 L 640 474 L 621 459 L 621 459 L 483 352 L 483 352 Z M 251 172 L 260 48 L 251 172 L 260 48 L 380 48 L 380 48 L 391 196 L 391 196 L 393 218 L 393 218 L 411 231 L 411 231 Q 439 253 452 281 Q 460 296 462 304 L 421 304 L 421 304 L 344 244 L 344 244 L 344 216 L 344 216 L 344 192 L 344 192 L 296 192 L 296 192 L 296 207 L 296 207 L 251 172 L 251 172 Z M 344 367 L 264 304 L 344 367 L 264 304 L 177 304 L 177 304 Q 178 303 178 303 Q 178 302 178 301 Q 181 291 188 278 Q 194 266 202 255 L 165 226 L 165 226 Q 148 247 139 268 Q 130 289 129 304 Q 128 308 128 312 L 128 352 L 128 352 L 176 352 L 296 352 L 296 488 L 296 488 L 296 512 L 296 512 L 344 512 L 344 512 L 344 488 L 344 488 L 344 367 L 344 367 Z" />
</svg>