<svg xmlns="http://www.w3.org/2000/svg" viewBox="0 0 608 480">
  <path d="M 0 0 L 8 0 L 0 0 L 576 0 L 576 16 L 576 16 L 568 16 L 488 16 L 488 112 L 488 112 L 568 112 L 576 112 L 576 128 L 576 128 L 568 128 L 0 128 L 0 112 L 0 112 L 8 112 L 88 112 L 88 16 L 88 16 L 8 16 L 0 16 L 0 0 L 0 0 Z M 352 256 L 352 279 L 352 256 L 352 279 Q 332 242 288 240 Q 257 241 237 261 Q 217 281 216 312 L 216 440 L 216 440 L 216 448 L 216 448 L 208 448 L 104 448 L 104 440 L 104 440 L 104 312 L 104 312 Q 103 281 83 261 Q 63 241 32 240 L 8 240 L 0 240 L 0 224 L 0 224 L 8 224 L 32 224 Q 69 225 94 250 Q 119 275 120 312 L 120 432 L 120 432 L 200 432 L 200 432 L 200 312 L 200 312 Q 201 275 226 250 Q 251 225 288 224 Q 327 225 352 252 L 352 256 L 352 256 Z M 360 16 L 360 112 L 360 16 L 360 112 L 472 112 L 472 112 L 472 16 L 472 16 L 360 16 L 360 16 Z M 344 112 L 344 16 L 344 112 L 344 16 L 232 16 L 232 16 L 232 112 L 232 112 L 344 112 L 344 112 Z M 104 16 L 104 112 L 104 16 L 104 112 L 216 112 L 216 112 L 216 16 L 216 16 L 104 16 L 104 16 Z M 496 176 Q 476 177 462 190 L 462 190 L 462 190 Q 449 204 448 224 L 448 288 L 448 288 L 544 288 L 544 288 L 544 224 L 544 224 Q 543 204 530 190 Q 516 177 496 176 L 496 176 Z M 432 224 Q 433 197 451 179 L 451 179 L 451 179 Q 469 161 496 160 Q 523 161 541 179 Q 559 197 560 224 L 560 288 L 560 288 L 592 288 L 608 288 L 608 304 L 608 304 L 608 464 L 608 464 L 608 480 L 608 480 L 592 480 L 384 480 L 384 464 L 384 464 L 384 304 L 384 304 L 384 288 L 384 288 L 400 288 L 432 288 L 432 224 L 432 224 Z M 400 304 L 400 464 L 400 304 L 400 464 L 592 464 L 592 464 L 592 304 L 592 304 L 560 304 L 400 304 Z" />
</svg>