<svg xmlns="http://www.w3.org/2000/svg" viewBox="0 0 576 320">
  <path d="M 62 152 L 144 152 L 62 152 L 144 152 L 144 64 L 144 64 L 144 56 L 144 56 L 160 56 L 160 56 L 160 64 L 160 64 L 160 152 L 160 152 L 240 152 L 240 152 L 240 64 L 240 64 L 240 56 L 240 56 L 256 56 L 256 56 L 256 64 L 256 64 L 256 152 L 256 152 L 336 152 L 336 152 L 336 64 L 336 64 L 336 56 L 336 56 L 352 56 L 352 56 L 352 64 L 352 64 L 352 152 L 352 152 L 416 152 L 416 152 L 416 32 L 416 32 L 416 16 L 416 16 L 432 16 L 448 16 L 576 160 L 576 160 L 448 304 L 448 304 L 432 304 L 416 304 L 416 288 L 416 288 L 416 168 L 416 168 L 352 168 L 352 168 L 352 256 L 352 256 L 352 264 L 352 264 L 336 264 L 336 264 L 336 256 L 336 256 L 336 168 L 336 168 L 256 168 L 256 168 L 256 256 L 256 256 L 256 264 L 256 264 L 240 264 L 240 264 L 240 256 L 240 256 L 240 168 L 240 168 L 160 168 L 160 168 L 160 256 L 160 256 L 160 264 L 160 264 L 144 264 L 144 264 L 144 256 L 144 256 L 144 168 L 144 168 L 62 168 L 62 168 L 19 284 L 19 284 L 34 299 L 34 299 L 96 258 L 96 258 L 96 277 L 96 277 L 32 320 L 32 320 L 0 288 L 0 288 L 48 160 L 48 160 L 0 32 L 0 32 L 32 0 L 32 0 L 96 43 L 96 43 L 96 62 L 96 62 L 34 21 L 34 21 L 19 36 L 19 36 L 62 152 L 62 152 Z M 432 168 L 432 288 L 432 168 L 432 288 L 441 288 L 441 288 L 555 160 L 555 160 L 441 32 L 441 32 L 432 32 L 432 32 L 432 152 L 432 152 L 432 168 L 432 168 Z" />
</svg>