<svg xmlns="http://www.w3.org/2000/svg" viewBox="0 0 568 512">
  <path d="M 276 50 L 288 66 L 276 50 L 288 66 L 301 50 L 301 50 L 310 38 L 310 38 Q 328 17 356 16 Q 382 17 399 33 Q 415 50 416 76 L 416 79 L 416 79 Q 416 105 398 124 L 373 149 L 373 149 L 288 233 L 288 233 L 203 149 L 203 149 L 179 124 L 179 124 Q 160 105 160 79 L 160 76 L 160 76 Q 161 50 177 33 Q 194 17 220 16 Q 248 16 266 38 L 276 50 L 276 50 Z M 288 256 L 299 245 L 288 256 L 299 245 L 384 160 L 384 160 L 409 135 L 409 135 Q 432 112 432 79 L 432 75 L 432 75 Q 431 43 410 22 Q 388 1 356 0 Q 321 1 298 27 Q 298 28 297 28 L 288 40 L 288 40 L 279 28 L 279 28 Q 278 28 278 27 Q 255 1 220 0 Q 188 1 166 22 Q 145 43 144 76 L 144 79 L 144 79 Q 144 112 167 135 L 192 160 L 192 160 L 277 245 L 277 245 L 288 256 L 288 256 Z M 152 320 L 149 320 L 152 320 L 149 320 L 147 322 L 147 322 L 69 384 L 69 384 L 8 384 L 0 384 L 0 400 L 0 400 L 8 400 L 74 400 L 77 398 L 77 398 L 154 336 L 154 336 L 368 336 L 368 336 L 368 376 L 368 376 L 248 376 L 240 376 L 240 384 L 240 384 L 240 424 L 240 424 L 240 432 L 240 432 L 248 432 L 400 432 L 402 431 L 402 431 L 518 351 L 518 351 L 545 390 L 545 390 L 392 496 L 392 496 L 8 496 L 0 496 L 0 512 L 0 512 L 8 512 L 396 512 L 398 511 L 398 511 L 561 399 L 561 399 L 568 394 L 568 394 L 563 388 L 563 388 L 527 335 L 527 335 L 522 328 L 522 328 L 516 333 L 516 333 L 395 416 L 395 416 L 256 416 L 256 416 L 256 392 L 256 392 L 376 392 L 384 392 L 384 384 L 384 384 L 384 328 L 384 328 L 384 320 L 384 320 L 376 320 L 152 320 Z" />
</svg>