<svg xmlns="http://www.w3.org/2000/svg" viewBox="0 0 504 448">
  <path d="M 424 0 L 416 0 L 424 0 L 416 0 L 416 16 L 416 16 L 424 16 L 448 16 L 448 144 L 448 144 L 416 144 L 416 144 L 416 160 L 416 160 L 456 160 L 504 160 L 504 144 L 504 144 L 496 144 L 464 144 L 464 8 L 464 8 L 464 0 L 464 0 L 456 0 L 424 0 Z M 8 64 L 0 64 L 8 64 L 0 64 L 0 80 L 0 80 L 8 80 L 36 80 L 166 256 L 166 256 L 36 432 L 36 432 L 8 432 L 0 432 L 0 448 L 0 448 L 8 448 L 44 448 L 46 445 L 46 445 L 176 270 L 176 270 L 306 445 L 306 445 L 308 448 L 308 448 L 312 448 L 352 448 L 352 432 L 352 432 L 344 432 L 316 432 L 186 256 L 186 256 L 316 80 L 316 80 L 344 80 L 352 80 L 352 64 L 352 64 L 344 64 L 308 64 L 306 67 L 306 67 L 176 243 L 176 243 L 46 67 L 46 67 L 44 64 L 44 64 L 40 64 L 8 64 Z" />
</svg>