<svg xmlns="http://www.w3.org/2000/svg" viewBox="0 0 384 512">
  <path d="M 218 0 L 224 0 L 218 0 L 288 0 L 288 16 L 288 16 L 280 16 L 230 16 L 202 128 L 202 128 L 376 128 L 384 128 L 384 144 L 384 144 L 376 144 L 0 144 L 0 128 L 0 128 L 8 128 L 186 128 L 216 6 L 216 6 L 218 0 L 218 0 Z M 64 512 L 36 176 L 64 512 L 36 176 L 52 176 L 52 176 L 69 376 L 69 376 Q 128 372 154 355 Q 182 338 199 315 L 202 311 L 202 311 Q 217 290 243 271 Q 270 252 326 248 L 332 176 L 332 176 L 348 176 L 348 176 L 320 512 L 320 512 L 64 512 L 64 512 Z M 325 264 Q 274 268 252 285 Q 230 300 214 321 Q 214 321 214 322 L 211 325 L 211 325 Q 194 349 162 369 Q 131 388 70 392 L 79 496 L 79 496 L 305 496 L 305 496 L 325 264 L 325 264 Z" />
</svg>