<svg xmlns="http://www.w3.org/2000/svg" viewBox="0 0 512 512">
  <path d="M 256 16 Q 321 17 376 48 L 376 48 L 376 48 Q 431 80 464 136 Q 496 193 496 256 Q 496 319 464 376 Q 431 432 376 464 Q 321 495 256 496 Q 191 495 136 464 Q 81 432 48 376 Q 16 319 16 256 Q 16 193 48 136 Q 81 80 136 48 Q 191 17 256 16 L 256 16 Z M 256 512 Q 326 511 384 478 L 384 478 L 384 478 Q 442 444 478 384 Q 512 323 512 256 Q 512 189 478 128 Q 442 68 384 34 Q 326 1 256 0 Q 186 1 128 34 Q 70 68 34 128 Q 0 189 0 256 Q 0 323 34 384 Q 70 444 128 478 Q 186 511 256 512 L 256 512 Z M 192 240 Q 191 225 176 224 Q 162 225 160 240 Q 162 255 176 256 Q 191 255 192 240 L 192 240 Z M 336 256 Q 351 255 352 240 Q 351 225 336 224 Q 322 225 320 240 Q 322 255 336 256 L 336 256 Z M 372 141 L 377 148 L 372 141 L 377 148 L 382 155 L 382 155 L 395 146 L 395 146 L 391 140 L 391 140 L 386 132 L 386 132 Q 372 113 350 111 Q 329 109 312 125 L 282 154 L 282 154 L 277 160 L 277 160 L 288 171 L 288 171 L 294 166 L 294 166 L 323 136 L 323 136 Q 335 125 349 127 Q 363 128 373 141 L 372 141 Z M 120 152 L 120 168 L 120 152 L 120 168 L 128 168 L 200 168 L 200 152 L 200 152 L 192 152 L 120 152 Z M 168 344 L 160 344 L 168 344 L 160 344 L 160 360 L 160 360 L 168 360 L 352 360 L 352 344 L 352 344 L 344 344 L 168 344 Z" />
</svg>