<svg xmlns="http://www.w3.org/2000/svg" viewBox="0 0 512 512">
  <path d="M 466 233 L 489 256 L 466 233 L 489 256 L 256 489 L 256 489 L 233 466 L 233 466 L 221 477 L 221 477 L 245 501 L 245 501 L 256 512 L 256 512 L 267 501 L 267 501 L 501 267 L 501 267 L 512 256 L 512 256 L 501 245 L 501 245 L 477 221 L 477 221 L 466 233 L 466 233 Z M 11 267 L 35 291 L 11 267 L 35 291 L 46 279 L 46 279 L 23 256 L 23 256 L 256 23 L 256 23 L 279 46 L 279 46 L 291 35 L 291 35 L 267 11 L 267 11 L 256 0 L 256 0 L 245 11 L 245 11 L 11 245 L 11 245 L 0 256 L 0 256 L 11 267 L 11 267 Z M 475 139 L 139 475 L 475 139 L 139 475 Q 117 496 88 496 Q 59 496 37 475 Q 16 453 16 424 Q 16 395 37 373 L 373 37 L 373 37 Q 395 16 424 16 Q 453 16 475 37 Q 496 59 496 88 Q 496 117 475 139 L 475 139 Z M 486 150 Q 512 123 512 88 L 512 88 L 512 88 Q 512 53 486 26 Q 459 0 424 0 Q 389 0 362 26 L 26 362 L 26 362 Q 0 389 0 424 Q 0 459 26 486 Q 53 512 88 512 Q 123 512 150 486 L 486 150 L 486 150 Z M 411 140 L 404 125 L 411 140 L 404 125 L 397 129 L 397 129 L 325 161 L 325 161 L 322 162 L 322 162 L 321 164 L 321 164 L 282 234 L 282 234 L 220 265 L 220 265 L 218 266 L 218 266 L 217 268 L 217 268 L 178 338 L 178 338 L 108 377 L 108 377 L 101 381 L 101 381 L 109 395 L 109 395 L 116 391 L 116 391 L 188 351 L 188 351 L 190 350 L 190 350 L 191 348 L 191 348 L 230 278 L 230 278 L 292 247 L 292 247 L 294 246 L 294 246 L 295 244 L 295 244 L 334 174 L 334 174 L 403 143 L 403 143 L 411 140 L 411 140 Z" />
</svg>