<svg xmlns="http://www.w3.org/2000/svg" viewBox="0 0 448 512">
  <path d="M 174 7 L 224 32 L 174 7 L 224 32 L 274 7 L 274 7 L 288 0 L 288 0 L 295 15 L 295 15 L 339 116 L 339 116 Q 341 115 342 115 Q 345 114 348 113 Q 371 103 383 96 Q 389 93 393 91 Q 393 91 394 90 Q 394 90 395 90 L 395 89 L 395 89 L 396 89 L 396 89 Q 396 89 396 89 Q 396 89 396 89 Q 396 89 396 89 Q 396 89 396 89 Q 396 89 396 89 Q 396 89 396 89 Q 396 89 396 89 Q 396 89 396 89 L 402 85 L 402 85 L 411 98 L 411 98 L 404 103 L 404 103 L 400 96 L 400 96 Q 405 104 404 103 Q 404 103 404 103 Q 404 103 404 103 Q 404 103 404 103 Q 404 103 404 103 Q 404 103 404 103 Q 404 103 404 103 L 404 103 L 404 103 L 403 103 L 403 103 Q 403 103 402 104 Q 402 104 401 105 Q 397 107 391 110 Q 378 118 354 127 Q 330 137 297 144 Q 264 152 224 152 Q 138 149 91 127 Q 68 118 56 110 Q 50 107 47 105 Q 46 104 46 104 Q 45 103 44 103 L 44 103 L 44 103 L 43 102 L 43 102 Q 43 102 43 102 Q 43 102 43 102 Q 43 102 43 102 Q 43 102 43 102 Q 43 102 43 102 Q 43 102 43 102 L 48 96 L 48 96 L 43 102 L 43 102 L 37 98 L 37 98 L 46 85 L 46 85 L 53 90 L 53 90 Q 53 90 53 90 Q 53 90 53 90 Q 53 90 53 90 Q 53 90 53 90 L 53 90 L 53 90 L 53 90 L 53 90 Q 54 90 55 91 Q 58 93 64 97 Q 75 103 97 113 Q 102 115 108 117 L 154 15 L 154 15 L 160 0 L 160 0 L 174 7 L 174 7 Z M 280 22 L 231 46 L 280 22 L 231 46 L 224 50 L 224 50 L 217 46 L 217 46 L 168 22 L 168 22 L 123 122 L 123 122 Q 164 135 224 136 Q 282 135 324 121 L 280 22 L 280 22 Z M 96 192 Q 96 178 99 164 Q 106 167 114 169 Q 112 180 112 192 Q 113 240 145 271 Q 176 303 224 304 Q 272 303 303 271 Q 335 240 336 192 Q 336 180 334 168 Q 342 166 349 163 Q 352 177 352 192 Q 352 209 348 224 L 415 224 L 432 224 L 426 240 L 426 240 L 393 320 L 393 320 L 386 336 L 386 336 L 404 336 L 416 336 L 445 496 L 445 496 L 448 512 L 448 512 L 432 512 L 0 512 L 3 496 L 3 496 L 32 336 L 32 336 L 45 336 L 62 336 L 55 320 L 55 320 L 23 240 L 23 240 L 16 224 L 16 224 L 33 224 L 100 224 Q 96 209 96 192 L 96 192 Z M 105 240 L 40 240 L 105 240 L 40 240 L 77 330 L 77 330 L 86 352 L 86 352 L 62 352 L 45 352 L 19 496 L 19 496 L 168 496 L 168 496 L 136 386 L 136 386 L 134 379 L 134 379 L 150 374 L 150 374 L 152 382 L 152 382 L 181 484 L 181 484 L 215 409 L 215 409 L 178 365 L 178 365 L 167 352 L 167 352 L 184 352 L 281 352 L 270 365 L 270 365 L 233 409 L 233 409 L 267 484 L 267 484 L 296 382 L 296 382 L 299 374 L 299 374 L 314 378 L 314 378 L 312 386 L 312 386 L 280 496 L 280 496 L 429 496 L 429 496 L 403 352 L 403 352 L 386 352 L 362 352 L 371 330 L 371 330 L 408 240 L 408 240 L 343 240 L 343 240 Q 328 276 296 298 Q 265 319 224 320 Q 183 319 152 298 Q 120 276 105 240 L 105 240 Z M 224 427 L 193 496 L 224 427 L 193 496 L 255 496 L 255 496 L 224 427 L 224 427 Z M 128 187 L 128 173 L 128 187 L 128 173 Q 136 175 144 176 L 144 187 L 144 187 Q 144 200 153 209 Q 162 218 176 219 L 181 219 L 181 219 Q 203 217 211 197 L 215 184 L 215 184 Q 220 184 224 184 Q 224 184 224 184 Q 228 184 233 184 L 237 197 L 237 197 Q 245 217 268 219 L 272 219 L 272 219 Q 286 218 295 209 Q 304 200 304 187 L 304 175 L 304 175 Q 312 174 320 172 L 320 187 L 320 187 Q 319 207 306 221 Q 292 234 272 235 L 268 235 L 268 235 Q 238 233 224 207 Q 211 233 181 235 L 176 235 L 176 235 Q 156 234 142 221 Q 129 207 128 187 L 128 187 Z M 224 396 L 247 368 L 224 396 L 247 368 L 201 368 L 201 368 L 224 396 L 224 396 Z" />
</svg>