<svg xmlns="http://www.w3.org/2000/svg" viewBox="0 0 448 384">
  <path d="M 192 256 L 192 272 L 192 256 L 192 272 L 192 336 L 192 336 L 192 352 L 192 352 L 176 352 L 160 352 L 11 203 L 11 203 L 0 192 L 0 192 L 11 181 L 11 181 L 160 32 L 160 32 L 176 32 L 192 32 L 192 48 L 192 48 L 192 112 L 192 112 L 192 128 L 192 128 L 208 128 L 352 128 L 352 144 L 352 144 L 352 240 L 352 240 L 352 256 L 352 256 L 336 256 L 192 256 Z M 176 256 L 176 240 L 176 256 L 176 240 L 192 240 L 336 240 L 336 144 L 336 144 L 192 144 L 176 144 L 176 128 L 176 128 L 176 48 L 176 48 L 167 48 L 167 48 L 23 192 L 23 192 L 167 336 L 167 336 L 176 336 L 176 336 L 176 256 L 176 256 Z M 448 376 L 448 384 L 448 376 L 448 384 L 432 384 L 432 384 L 432 376 L 432 376 L 432 8 L 432 8 L 432 0 L 432 0 L 448 0 L 448 0 L 448 8 L 448 8 L 448 376 L 448 376 Z" />
</svg>