<svg xmlns="http://www.w3.org/2000/svg" viewBox="0 0 640 512">
  <path d="M 329 128 Q 353 124 369 107 L 369 107 L 369 107 Q 384 89 385 64 L 536 64 L 536 64 Q 543 63 544 56 Q 543 49 536 48 L 383 48 L 383 48 Q 377 27 360 14 Q 343 0 321 0 Q 298 0 281 14 Q 264 27 259 48 L 104 48 L 104 48 Q 97 49 96 56 Q 97 63 104 64 L 257 64 L 257 64 Q 257 89 273 107 Q 288 124 313 128 L 313 496 L 313 496 L 104 496 L 104 496 Q 97 497 96 504 Q 97 511 104 512 L 321 512 L 537 512 Q 544 511 545 504 Q 544 497 537 496 L 329 496 L 329 496 L 329 128 L 329 128 Z M 369 64 Q 368 91 345 106 Q 321 118 297 106 Q 274 91 273 64 Q 274 37 297 22 Q 321 10 345 22 Q 368 37 369 64 L 369 64 Z M 119 113 L 0 303 L 119 113 L 0 303 L 0 343 L 0 343 L 73 416 L 73 416 L 183 416 L 183 416 L 256 343 L 256 343 L 256 303 L 256 303 L 138 113 L 138 113 L 129 98 L 129 98 L 119 113 L 119 113 Z M 238 304 L 18 304 L 238 304 L 18 304 L 129 128 L 129 128 L 238 304 L 238 304 Z M 240 320 L 240 336 L 240 320 L 240 336 L 176 400 L 176 400 L 80 400 L 80 400 L 16 336 L 16 336 L 16 320 L 16 320 L 240 320 L 240 320 Z M 503 113 L 384 303 L 503 113 L 384 303 L 384 343 L 384 343 L 457 416 L 457 416 L 567 416 L 567 416 L 640 343 L 640 343 L 640 303 L 640 303 L 522 113 L 522 113 L 513 98 L 513 98 L 503 113 L 503 113 Z M 622 304 L 402 304 L 622 304 L 402 304 L 513 128 L 513 128 L 622 304 L 622 304 Z M 624 320 L 624 336 L 624 320 L 624 336 L 560 400 L 560 400 L 464 400 L 464 400 L 400 336 L 400 336 L 400 320 L 400 320 L 624 320 L 624 320 Z" />
</svg>