<svg xmlns="http://www.w3.org/2000/svg" viewBox="0 0 640 512">
  <path d="M 96 272 L 16 272 L 96 272 L 16 272 L 16 192 L 16 192 Q 17 158 39 135 Q 62 113 96 112 Q 96 112 96 112 Q 96 112 96 112 L 97 112 L 111 112 L 113 98 L 113 98 Q 119 63 145 40 Q 171 17 208 16 Q 237 16 260 31 Q 283 46 295 71 L 299 80 L 299 80 L 309 80 L 352 80 Q 386 81 409 103 Q 431 126 432 160 Q 432 178 424 194 Q 433 193 443 192 Q 448 177 448 160 Q 447 119 420 92 Q 393 65 352 64 L 309 64 L 309 64 Q 295 35 269 18 Q 242 0 208 0 Q 165 1 134 28 Q 104 54 97 96 L 96 96 L 96 96 Q 55 97 28 124 Q 1 151 0 192 L 0 272 L 0 272 L 0 288 L 0 288 L 16 288 L 161 288 Q 162 280 164 272 L 96 272 L 96 272 Z M 528 320 L 528 336 L 528 320 L 528 336 L 544 336 L 544 336 Q 578 337 601 359 Q 623 382 624 416 L 624 496 L 624 496 L 544 496 L 144 496 L 144 416 L 144 416 Q 144 389 159 369 Q 174 349 197 341 L 208 337 L 208 337 L 208 325 L 208 325 L 208 304 L 208 304 Q 209 263 236 236 Q 263 209 304 208 Q 355 210 383 249 L 391 261 L 391 261 L 404 253 L 404 253 Q 423 240 448 240 Q 482 241 505 263 Q 527 286 528 320 L 528 320 Z M 128 512 L 144 512 L 128 512 L 640 512 L 640 496 L 640 496 L 640 416 L 640 416 Q 639 375 612 348 Q 585 321 544 320 Q 543 279 516 252 Q 489 225 448 224 Q 419 224 396 240 Q 363 194 304 192 Q 256 193 225 225 Q 193 256 192 304 L 192 326 L 192 326 Q 164 336 146 360 Q 129 384 128 416 L 128 496 L 128 496 L 128 512 L 128 512 Z" />
</svg>