<svg xmlns="http://www.w3.org/2000/svg" viewBox="0 0 640 512">
  <path d="M 624 16 L 624 432 L 624 16 L 624 432 L 16 432 L 16 432 L 16 16 L 16 16 L 624 16 L 624 16 Z M 16 0 L 0 0 L 16 0 L 0 0 L 0 16 L 0 16 L 0 432 L 0 432 L 0 448 L 0 448 L 16 448 L 640 448 L 640 432 L 640 432 L 640 16 L 640 16 L 640 0 L 640 0 L 624 0 L 16 0 Z M 96 496 L 96 512 L 96 496 L 96 512 L 104 512 L 544 512 L 544 496 L 544 496 L 536 496 L 96 496 Z M 80 80 L 560 80 L 80 80 L 560 80 L 560 368 L 560 368 L 80 368 L 80 368 L 80 80 L 80 80 Z M 64 64 L 64 80 L 64 64 L 64 80 L 64 368 L 64 368 L 64 384 L 64 384 L 80 384 L 576 384 L 576 368 L 576 368 L 576 80 L 576 80 L 576 64 L 576 64 L 560 64 L 64 64 Z" />
</svg>