<svg xmlns="http://www.w3.org/2000/svg" viewBox="0 0 512 512">
  <path d="M 192 0 L 199 0 L 192 0 L 320 0 L 321 7 L 321 7 L 325 43 L 325 43 Q 342 48 358 57 L 386 34 L 386 34 L 392 30 L 392 30 L 397 35 L 397 35 L 477 115 L 477 115 L 483 121 L 483 121 L 478 126 L 478 126 L 455 154 L 455 154 Q 464 170 469 188 L 505 191 L 505 191 L 512 192 L 512 192 L 512 199 L 512 199 L 512 313 L 512 313 L 512 320 L 512 320 L 505 321 L 505 321 L 469 324 L 469 324 Q 464 342 455 358 L 478 386 L 478 386 L 483 391 L 483 391 L 477 397 L 477 397 L 397 477 L 397 477 L 391 482 L 391 482 L 386 478 L 386 478 L 358 455 L 358 455 Q 342 464 324 469 L 321 505 L 321 505 L 320 512 L 320 512 L 313 512 L 192 512 L 191 505 L 191 505 L 187 469 L 187 469 Q 170 464 154 455 L 126 478 L 126 478 L 120 482 L 120 482 L 115 477 L 115 477 L 35 397 L 35 397 L 29 392 L 29 392 L 34 386 L 34 386 L 57 358 L 57 358 Q 48 342 43 325 L 7 321 L 7 321 L 0 320 L 0 320 L 0 313 L 0 313 L 0 199 L 0 199 L 0 192 L 0 192 L 7 191 L 7 191 L 43 188 L 43 188 Q 48 170 57 154 L 34 126 L 34 126 L 29 121 L 29 121 L 35 115 L 35 115 L 115 35 L 115 35 L 121 29 L 121 29 L 126 34 L 126 34 L 154 57 L 154 57 Q 170 48 188 43 L 191 7 L 191 7 L 192 0 L 192 0 Z M 206 16 L 203 50 L 206 16 L 203 50 L 202 55 L 202 55 L 197 56 L 197 56 Q 176 63 157 73 L 152 76 L 152 76 L 148 73 L 148 73 L 122 51 L 122 51 L 51 122 L 51 122 L 72 148 L 72 148 L 76 152 L 76 152 L 73 156 L 73 156 Q 63 176 56 197 L 55 202 L 55 202 L 49 203 L 49 203 L 16 206 L 16 206 L 16 306 L 16 306 L 50 309 L 50 309 L 55 310 L 55 310 L 56 315 L 56 315 Q 63 336 73 355 L 76 360 L 76 360 L 73 364 L 73 364 L 51 391 L 51 391 L 122 461 L 122 461 L 148 440 L 148 440 L 152 436 L 152 436 L 156 439 L 156 439 Q 176 449 197 456 L 202 457 L 202 457 L 203 463 L 203 463 L 206 496 L 206 496 L 306 496 L 306 496 L 309 463 L 309 463 L 309 457 L 309 457 L 315 456 L 315 456 Q 336 449 355 439 L 360 436 L 360 436 L 364 440 L 364 440 L 390 461 L 390 461 L 461 391 L 461 391 L 440 365 L 440 365 L 436 360 L 436 360 L 439 356 L 439 356 Q 449 336 456 315 L 457 310 L 457 310 L 463 309 L 463 309 L 496 306 L 496 306 L 496 206 L 496 206 L 463 203 L 463 203 L 457 203 L 457 203 L 456 197 L 456 197 Q 449 176 439 157 L 436 152 L 436 152 L 440 148 L 440 148 L 461 122 L 461 122 L 391 51 L 391 51 L 365 72 L 365 72 L 360 76 L 360 76 L 356 73 L 356 73 Q 336 63 315 56 L 310 55 L 310 55 L 309 49 L 309 49 L 306 16 L 306 16 L 206 16 L 206 16 Z M 112 256 Q 112 217 131 184 L 131 184 L 131 184 Q 150 151 184 131 Q 218 112 256 112 Q 294 112 328 131 Q 362 151 381 184 Q 400 217 400 256 Q 400 295 381 328 Q 362 361 328 381 Q 294 400 256 400 Q 218 400 184 381 Q 150 361 131 328 Q 112 295 112 256 L 112 256 Z M 256 384 Q 291 384 320 367 L 320 367 L 320 367 Q 349 350 367 320 Q 384 290 384 256 Q 384 222 367 192 Q 349 162 320 145 Q 291 128 256 128 Q 221 128 192 145 Q 163 162 145 192 Q 128 222 128 256 Q 128 290 145 320 Q 163 350 192 367 Q 221 384 256 384 L 256 384 Z M 256 176 Q 271 177 272 192 Q 271 207 256 208 Q 241 207 240 192 Q 241 177 256 176 L 256 176 Z M 190 251 Q 181 249 179 240 Q 177 230 184 224 Q 191 218 200 221 Q 209 224 211 233 Q 213 242 206 248 Q 199 254 190 251 L 190 251 Z M 209 321 Q 198 311 205 298 Q 215 287 228 295 Q 239 305 231 317 Q 222 328 209 321 L 209 321 Z M 307 298 Q 314 311 303 321 Q 290 328 281 317 Q 273 305 284 295 Q 297 287 307 298 L 307 298 Z M 332 231 Q 335 240 329 247 Q 323 254 314 252 Q 305 250 302 241 Q 299 232 305 225 Q 311 218 320 220 Q 329 222 332 231 L 332 231 Z" />
</svg>