<svg xmlns="http://www.w3.org/2000/svg" viewBox="0 0 576 507">
  <path d="M 243 8 L 239 15 L 243 8 L 239 15 L 142 187 L 142 187 L 434 187 L 434 187 L 337 15 L 337 15 L 333 8 L 333 8 L 347 0 L 347 0 L 351 7 L 351 7 L 453 187 L 453 187 L 528 187 L 576 187 L 576 203 L 576 203 L 540 203 L 540 203 L 464 507 L 464 507 L 112 507 L 112 507 L 36 203 L 36 203 L 0 203 L 0 203 L 0 187 L 0 187 L 32 187 L 123 187 L 225 7 L 225 7 L 229 0 L 229 0 L 243 8 L 243 8 Z M 524 203 L 53 203 L 524 203 L 53 203 L 125 491 L 125 491 L 452 491 L 452 491 L 524 203 L 524 203 Z M 160 267 Q 145 268 144 283 Q 145 298 160 299 Q 175 298 176 283 Q 175 268 160 267 L 160 267 Z M 192 283 Q 192 297 183 306 L 183 306 L 183 306 Q 174 315 160 315 Q 146 315 137 306 Q 128 297 128 283 Q 128 269 137 260 Q 146 251 160 251 Q 174 251 183 260 Q 192 269 192 283 L 192 283 Z M 400 283 Q 401 298 416 299 Q 431 298 432 283 Q 431 268 416 267 Q 401 268 400 283 L 400 283 Z M 416 315 Q 402 315 393 306 L 393 306 L 393 306 Q 384 297 384 283 Q 384 269 393 260 Q 402 251 416 251 Q 430 251 439 260 Q 448 269 448 283 Q 448 297 439 306 Q 430 315 416 315 L 416 315 Z" />
</svg>