<svg xmlns="http://www.w3.org/2000/svg" viewBox="0 0 504 512">
  <path d="M 80 496 L 16 496 L 80 496 L 16 496 L 16 16 L 16 16 L 208 16 L 208 16 L 208 168 L 208 168 L 208 176 L 208 176 L 216 176 L 368 176 L 368 304 L 368 304 L 384 304 L 384 304 L 384 160 L 384 160 L 224 0 L 224 0 L 16 0 L 0 0 L 0 16 L 0 16 L 0 496 L 0 496 L 0 512 L 0 512 L 16 512 L 80 512 L 80 496 L 80 496 Z M 361 160 L 224 160 L 361 160 L 224 160 L 224 23 L 224 23 L 361 160 L 361 160 Z M 248 376 L 248 368 L 248 376 L 248 368 L 240 368 L 230 368 L 227 372 L 227 372 L 192 432 L 192 432 L 155 372 L 155 372 L 153 368 L 153 368 L 148 368 L 136 368 L 136 376 L 136 376 L 136 504 L 136 504 L 136 512 L 136 512 L 152 512 L 152 512 L 152 504 L 152 504 L 152 398 L 152 398 L 185 452 L 185 452 L 192 464 L 192 464 L 199 452 L 199 452 L 232 396 L 232 396 L 232 504 L 232 504 L 232 512 L 232 512 L 248 512 L 248 512 L 248 504 L 248 504 L 248 376 L 248 376 Z M 440 376 L 440 368 L 440 376 L 440 368 L 424 368 L 424 368 L 424 376 L 424 376 L 424 411 L 424 411 Q 424 441 435 470 L 449 507 L 449 507 L 450 512 L 450 512 L 456 512 L 477 512 L 479 507 L 479 507 L 493 470 L 493 470 Q 504 441 504 411 L 504 376 L 504 376 L 504 368 L 504 368 L 488 368 L 488 368 L 488 376 L 488 376 L 488 411 L 488 411 Q 488 439 478 464 L 467 496 L 467 496 L 462 496 L 462 496 L 450 464 L 450 464 Q 440 439 440 411 L 440 376 L 440 376 Z M 296 400 L 296 480 L 296 400 L 296 480 Q 296 494 305 503 Q 314 512 328 512 L 344 512 L 344 512 Q 358 512 367 503 Q 376 494 376 480 L 376 400 L 376 400 Q 376 386 367 377 Q 358 368 344 368 L 328 368 L 328 368 Q 314 368 305 377 Q 296 386 296 400 L 296 400 Z M 328 384 L 344 384 L 328 384 L 344 384 Q 359 385 360 400 L 360 480 L 360 480 Q 359 495 344 496 L 328 496 L 328 496 Q 313 495 312 480 L 312 400 L 312 400 Q 313 385 328 384 L 328 384 Z" />
</svg>