<svg xmlns="http://www.w3.org/2000/svg" viewBox="0 0 512 512">
  <path d="M 256 496 Q 189 495 135 463 L 135 463 L 135 463 Q 81 431 49 377 L 49 377 L 49 377 Q 17 323 16 256 Q 16 199 40 151 L 40 192 L 40 192 L 40 193 L 40 193 L 41 195 L 41 195 L 73 283 L 73 283 L 74 288 L 74 288 L 80 288 L 214 288 L 216 283 L 216 283 L 248 195 L 248 195 L 248 193 L 248 193 L 248 192 L 248 192 L 248 176 L 248 176 L 264 176 L 264 176 L 264 192 L 264 192 L 264 193 L 264 193 L 265 195 L 265 195 L 297 283 L 297 283 L 298 288 L 298 288 L 304 288 L 438 288 L 440 283 L 440 283 L 472 195 L 472 195 L 472 193 L 472 193 L 472 192 L 472 192 L 472 151 L 472 151 Q 496 199 496 256 Q 495 323 463 377 Q 431 431 377 463 Q 323 495 256 496 L 256 496 Z M 264 160 L 248 160 L 264 160 L 248 160 L 248 136 L 248 136 L 248 128 L 248 128 L 240 128 L 53 128 Q 86 77 138 47 Q 191 17 256 16 Q 321 17 374 47 Q 426 77 459 128 L 272 128 L 264 128 L 264 136 L 264 136 L 264 160 L 264 160 Z M 280 160 L 280 144 L 280 160 L 280 144 L 381 144 L 381 144 L 330 194 L 330 194 L 336 208 L 336 208 L 381 208 L 381 208 L 317 272 L 317 272 L 310 272 L 310 272 L 280 191 L 280 191 L 280 176 L 280 176 L 280 160 L 280 160 Z M 403 144 L 456 144 L 403 144 L 456 144 L 456 191 L 456 191 L 426 272 L 426 272 L 339 272 L 339 272 L 406 206 L 406 206 L 400 192 L 400 192 L 355 192 L 355 192 L 403 144 L 403 144 Z M 232 144 L 232 160 L 232 144 L 232 160 L 232 176 L 232 176 L 232 191 L 232 191 L 202 272 L 202 272 L 115 272 L 115 272 L 182 206 L 182 206 L 176 192 L 176 192 L 131 192 L 131 192 L 179 144 L 179 144 L 232 144 L 232 144 Z M 157 208 L 93 272 L 157 208 L 93 272 L 86 272 L 86 272 L 56 191 L 56 191 L 56 144 L 56 144 L 157 144 L 157 144 L 106 194 L 106 194 L 112 208 L 112 208 L 157 208 L 157 208 Z M 256 512 Q 326 511 384 478 L 384 478 L 384 478 Q 442 444 478 384 Q 512 323 512 256 Q 512 189 478 128 Q 442 68 384 34 Q 326 1 256 0 Q 186 1 128 34 Q 70 68 34 128 Q 0 189 0 256 Q 0 323 34 384 Q 70 444 128 478 Q 186 511 256 512 L 256 512 Z M 256 416 Q 299 415 328 394 L 328 394 L 328 394 Q 358 374 375 349 L 362 339 L 362 339 Q 346 363 319 381 Q 293 399 256 400 Q 219 399 193 381 Q 166 363 151 339 L 138 349 L 138 349 Q 154 374 184 394 Q 214 415 256 416 L 256 416 Z" />
</svg>