<svg xmlns="http://www.w3.org/2000/svg" viewBox="0 0 512 448">
  <path d="M 96 0 L 104 0 L 96 0 L 512 0 L 512 8 L 512 8 L 512 440 L 512 440 L 512 448 L 512 448 L 504 448 L 0 448 L 0 440 L 0 440 L 0 104 L 0 104 L 0 96 L 0 96 L 8 96 L 64 96 L 64 112 L 64 112 L 16 112 L 16 112 L 16 432 L 16 432 L 56 432 L 96 432 L 96 8 L 96 8 L 96 0 L 96 0 Z M 112 16 L 112 432 L 112 16 L 112 432 L 496 432 L 496 432 L 496 16 L 496 16 L 112 16 L 112 16 Z M 352 64 L 360 64 L 352 64 L 448 64 L 448 80 L 448 80 L 440 80 L 352 80 L 352 64 L 352 64 Z M 352 128 L 360 128 L 352 128 L 448 128 L 448 144 L 448 144 L 440 144 L 352 144 L 352 128 L 352 128 Z M 352 192 L 360 192 L 352 192 L 448 192 L 448 208 L 448 208 L 440 208 L 352 208 L 352 192 L 352 192 Z M 160 256 L 168 256 L 160 256 L 448 256 L 448 272 L 448 272 L 440 272 L 160 272 L 160 256 L 160 256 Z M 160 320 L 168 320 L 160 320 L 448 320 L 448 336 L 448 336 L 440 336 L 160 336 L 160 320 L 160 320 Z M 176 80 L 176 192 L 176 80 L 176 192 L 304 192 L 304 192 L 304 80 L 304 80 L 176 80 L 176 80 Z M 160 64 L 176 64 L 160 64 L 320 64 L 320 80 L 320 80 L 320 192 L 320 192 L 320 208 L 320 208 L 304 208 L 160 208 L 160 192 L 160 192 L 160 80 L 160 80 L 160 64 L 160 64 Z" />
</svg>