<svg xmlns="http://www.w3.org/2000/svg" viewBox="0 0 576 512">
  <path d="M 16 496 L 342 496 L 16 496 L 342 496 Q 352 505 362 512 L 16 512 L 0 512 L 0 496 L 0 496 L 0 16 L 0 16 L 0 0 L 0 0 L 16 0 L 224 0 L 384 160 L 384 160 L 384 208 L 384 208 L 368 215 L 368 215 L 368 176 L 368 176 L 216 176 L 208 176 L 208 168 L 208 168 L 208 16 L 208 16 L 16 16 L 16 16 L 16 496 L 16 496 Z M 361 160 L 224 23 L 361 160 L 224 23 L 224 160 L 224 160 L 361 160 L 361 160 Z M 560 291 L 440 244 L 560 291 L 440 244 L 440 492 L 440 492 Q 499 465 530 410 Q 560 356 560 296 L 560 291 L 560 291 Z M 304 291 L 304 296 L 304 291 L 304 296 Q 304 356 334 410 Q 365 465 424 492 L 424 244 L 424 244 L 304 291 L 304 291 Z M 432 512 Q 360 486 324 424 L 324 424 L 324 424 Q 288 363 288 296 L 288 280 L 288 280 L 432 224 L 432 224 L 576 280 L 576 280 L 576 296 L 576 296 Q 576 363 540 424 Q 504 486 432 512 L 432 512 Z" />
</svg>