<svg xmlns="http://www.w3.org/2000/svg" viewBox="0 0 512 512">
  <path d="M 496 16 L 144 16 L 496 16 L 144 16 L 144 96 L 144 96 L 128 96 L 128 96 L 128 16 L 128 16 L 128 0 L 128 0 L 144 0 L 512 0 L 512 16 L 512 16 L 512 368 L 512 368 L 512 384 L 512 384 L 496 384 L 416 384 L 416 368 L 416 368 L 496 368 L 496 368 L 496 16 L 496 16 Z M 368 144 L 16 144 L 368 144 L 16 144 L 16 256 L 16 256 L 368 256 L 368 256 L 368 144 L 368 144 Z M 16 496 L 368 496 L 16 496 L 368 496 L 368 272 L 368 272 L 16 272 L 16 272 L 16 496 L 16 496 Z M 16 128 L 368 128 L 16 128 L 384 128 L 384 144 L 384 144 L 384 496 L 384 496 L 384 512 L 384 512 L 368 512 L 0 512 L 0 496 L 0 496 L 0 144 L 0 144 L 0 128 L 0 128 L 16 128 L 16 128 Z" />
</svg>