<svg xmlns="http://www.w3.org/2000/svg" viewBox="0 0 512 448">
  <path d="M 16 432 L 496 432 L 16 432 L 496 432 L 496 290 L 496 290 L 496 288 L 496 288 L 389 288 L 389 288 L 359 348 L 359 348 L 357 352 L 357 352 L 352 352 L 155 352 L 153 348 L 153 348 L 123 288 L 123 288 L 17 288 L 17 288 L 16 290 L 16 290 L 16 432 L 16 432 Z M 492 272 L 428 16 L 492 272 L 428 16 L 85 16 L 85 16 L 21 272 L 21 272 L 128 272 L 133 272 L 135 276 L 135 276 L 165 336 L 165 336 L 347 336 L 347 336 L 377 276 L 377 276 L 379 272 L 379 272 L 384 272 L 492 272 Z M 0 432 L 0 288 L 0 432 L 0 288 L 72 0 L 72 0 L 440 0 L 440 0 L 512 288 L 512 288 L 512 432 L 512 432 L 512 448 L 512 448 L 496 448 L 0 448 L 0 432 L 0 432 Z" />
</svg>