<svg xmlns="http://www.w3.org/2000/svg" viewBox="0 0 496 512">
  <path d="M 288 0 L 288 1 L 288 0 L 288 1 L 288 0 L 288 0 L 224 0 L 214 0 L 210 9 L 210 9 L 194 41 L 194 41 L 191 47 L 191 47 L 193 53 L 193 53 L 208 99 L 208 99 L 180 134 L 180 134 L 176 138 L 176 138 L 176 144 L 176 144 L 176 184 L 176 184 L 176 196 L 176 196 L 187 199 L 187 199 L 265 223 L 265 223 L 311 253 L 311 253 L 315 256 L 315 256 L 320 256 L 357 256 L 361 253 L 361 253 L 407 223 L 407 223 L 484 199 L 484 199 L 496 196 L 496 196 L 496 184 L 496 184 L 496 144 L 496 144 L 496 138 L 496 138 L 492 134 L 492 134 L 464 99 L 464 99 L 479 53 L 479 53 L 481 47 L 481 47 L 478 41 L 478 41 L 462 9 L 462 9 L 458 0 L 458 0 L 448 0 L 384 0 L 384 1 L 384 1 L 384 0 L 384 0 L 376 0 L 288 0 Z M 307 32 L 365 32 L 307 32 L 365 32 Q 367 32 369 32 L 418 93 L 418 93 L 386 85 L 386 85 Q 354 80 336 105 Q 318 80 286 85 L 254 93 L 254 93 L 304 32 L 304 32 Q 305 32 307 32 L 307 32 Z M 353 174 L 391 195 L 353 174 L 391 195 L 391 195 L 391 195 L 360 215 L 360 215 Q 358 194 336 192 Q 314 194 312 215 L 281 195 L 281 195 L 281 194 L 281 194 L 319 173 L 319 173 Q 330 168 336 158 Q 342 168 353 173 L 353 174 Z M 288 112 Q 303 113 304 128 Q 303 143 288 144 Q 273 143 272 128 Q 273 113 288 112 L 288 112 Z M 368 128 Q 369 113 384 112 Q 399 113 400 128 Q 399 143 384 144 Q 369 143 368 128 L 368 128 Z M 182 231 Q 143 260 120 304 L 120 304 L 120 304 Q 96 347 96 400 L 96 416 L 96 416 L 64 416 L 64 416 L 64 400 L 64 400 Q 64 375 69 352 L 0 352 L 0 352 L 0 400 L 0 400 Q 1 448 33 479 Q 64 511 112 512 L 240 512 L 320 512 L 320 496 L 320 496 Q 319 476 306 462 Q 292 449 272 448 L 240 448 L 224 448 L 224 416 L 224 416 L 240 416 L 272 416 Q 306 417 329 439 Q 351 462 352 496 L 352 512 L 352 512 L 376 512 L 376 512 Q 376 512 376 512 Q 376 512 376 512 L 416 512 L 480 512 L 480 496 L 480 496 Q 479 475 466 462 Q 452 449 432 448 L 416 448 L 416 448 Q 416 448 416 448 Q 416 448 416 448 L 416 376 L 416 376 L 410 381 L 410 381 L 397 390 L 397 390 L 378 365 L 378 365 L 390 355 L 390 355 L 448 312 L 448 312 L 448 303 L 448 303 Q 448 272 428 250 L 421 252 L 421 252 L 379 280 L 379 280 L 367 288 L 367 288 L 352 288 L 306 288 L 293 280 L 293 280 L 251 252 L 251 252 L 183 231 L 182 231 Z M 0 128 L 128 128 L 0 128 L 128 128 L 128 32 L 128 32 L 0 32 L 0 32 L 0 128 L 0 128 Z M 0 160 L 0 224 L 0 160 L 0 224 L 128 224 L 128 224 L 128 160 L 128 160 L 0 160 L 0 160 Z M 0 320 L 78 320 L 0 320 L 78 320 Q 90 285 112 256 L 0 256 L 0 256 L 0 320 L 0 320 Z M 480 296 L 480 295 L 480 296 L 480 295 L 480 296 L 480 296 L 480 296 L 480 296 Z M 326 363 L 310 390 L 326 363 L 310 390 L 296 382 L 296 382 L 216 334 L 216 334 L 202 326 L 202 326 L 219 298 L 219 298 L 232 306 L 232 306 L 312 354 L 312 354 L 326 362 L 326 363 Z" />
</svg>