<svg xmlns="http://www.w3.org/2000/svg" viewBox="0 0 576 521">
  <path d="M 392 64 Q 414 62 416 40 Q 414 18 392 16 Q 370 18 368 40 Q 370 62 392 64 L 392 64 Z M 392 0 Q 415 1 427 20 Q 437 40 427 60 Q 415 79 392 80 Q 369 79 357 60 Q 347 40 357 20 Q 369 1 392 0 L 392 0 Z M 0 96 L 8 96 L 0 96 L 80 96 L 80 104 L 80 104 L 80 136 L 80 136 L 80 162 L 80 162 L 160 22 L 160 22 L 164 16 L 164 16 L 171 20 L 171 20 L 220 47 L 220 47 L 232 26 L 232 26 L 236 20 L 236 20 L 243 24 L 243 24 L 298 56 L 298 56 L 305 60 L 305 60 L 301 67 L 301 67 L 289 87 L 289 87 L 289 87 L 289 87 L 338 115 L 338 115 L 345 119 L 345 119 L 341 126 L 341 126 L 340 127 L 340 127 L 324 134 L 324 134 L 316 137 L 316 137 L 323 125 L 323 125 L 281 101 L 281 101 L 243 168 L 243 168 Q 227 175 213 185 L 283 66 L 283 66 L 242 41 L 242 41 L 234 55 L 234 55 L 234 55 L 234 55 L 230 62 L 230 62 L 166 173 L 166 173 L 162 180 L 162 180 L 148 172 L 148 172 L 152 165 L 152 165 L 212 61 L 212 61 L 170 37 L 170 37 L 79 196 L 79 196 L 64 221 L 64 221 L 64 192 L 64 192 L 64 136 L 64 136 L 64 112 L 64 112 L 16 112 L 16 112 L 16 136 L 16 136 L 16 227 L 16 227 Q 16 269 37 306 Q 58 342 95 364 L 96 365 L 96 365 Q 88 369 82 375 Q 43 350 22 311 Q 0 272 0 227 L 0 136 L 0 136 L 0 104 L 0 104 L 0 96 L 0 96 Z M 325 512 Q 273 511 233 484 Q 236 476 238 468 Q 275 495 325 496 L 472 496 L 496 496 L 496 448 L 496 448 L 376 448 L 368 448 L 368 432 L 368 432 L 376 432 L 528 432 L 528 384 L 528 384 L 376 384 L 368 384 L 368 368 L 368 368 L 376 368 L 560 368 L 560 320 L 560 320 L 544 320 L 368 320 L 368 304 L 368 304 L 376 304 L 528 304 L 528 256 L 528 256 L 504 256 L 312 256 L 309 244 L 309 244 L 317 241 L 317 241 L 361 222 L 361 222 L 383 213 L 383 213 L 365 169 L 365 169 L 343 178 L 343 178 L 267 210 L 267 210 Q 225 228 201 265 Q 177 301 176 347 Q 176 352 176 358 Q 169 355 160 353 Q 160 350 160 347 Q 161 296 188 256 Q 215 215 261 195 L 337 163 L 337 163 L 366 151 L 366 151 L 373 148 L 373 148 L 377 155 L 377 155 L 401 214 L 401 214 L 404 221 L 404 221 L 397 224 L 397 224 L 368 237 L 368 237 L 360 240 L 360 240 L 504 240 L 544 240 L 544 248 L 544 248 L 544 304 L 544 304 L 568 304 L 576 304 L 576 312 L 576 312 L 576 376 L 576 376 L 576 384 L 576 384 L 568 384 L 544 384 L 544 440 L 544 440 L 544 448 L 544 448 L 536 448 L 512 448 L 512 504 L 512 504 L 512 512 L 512 512 L 504 512 L 325 512 Z M 129 328 L 128 328 L 129 328 L 128 328 L 129 327 L 129 327 L 129 328 L 129 328 Z M 192 448 Q 191 421 168 406 Q 144 394 120 406 Q 97 421 96 448 Q 97 475 120 490 Q 144 502 168 490 Q 191 475 192 448 L 192 448 Z M 80 448 Q 81 412 112 393 Q 144 375 176 393 Q 207 412 208 448 Q 207 484 176 503 Q 144 521 112 503 Q 81 484 80 448 L 80 448 Z M 528 144 Q 528 130 519 121 L 519 121 L 519 121 Q 510 112 496 112 Q 482 112 473 121 Q 464 130 464 144 Q 464 158 473 167 Q 482 176 496 176 Q 510 176 519 167 Q 528 158 528 144 L 528 144 Z M 448 144 Q 449 117 472 102 Q 496 90 520 102 Q 543 117 544 144 Q 543 171 520 186 Q 496 198 472 186 Q 449 171 448 144 L 448 144 Z" />
</svg>