<svg xmlns="http://www.w3.org/2000/svg" viewBox="0 0 512 518">
  <path d="M 240 54 Q 240 40 231 31 L 231 31 L 231 31 Q 222 22 208 22 Q 194 22 185 31 Q 176 40 176 54 Q 176 68 185 77 Q 194 86 208 86 Q 222 86 231 77 Q 240 68 240 54 L 240 54 Z M 160 54 Q 161 27 184 12 Q 208 0 232 12 Q 255 27 256 54 Q 255 81 232 96 Q 208 108 184 96 Q 161 81 160 54 L 160 54 Z M 16 198 L 225 198 L 16 198 L 225 198 Q 227 206 229 214 L 16 214 L 16 214 L 16 502 L 16 502 L 496 502 L 496 502 L 496 214 L 496 214 L 411 214 L 411 214 Q 413 206 415 198 L 496 198 L 512 198 L 512 214 L 512 214 L 512 502 L 512 502 L 512 518 L 512 518 L 496 518 L 0 518 L 0 502 L 0 502 L 0 214 L 0 214 L 0 198 L 0 198 L 16 198 L 16 198 Z M 80 278 L 96 278 L 80 278 L 432 278 L 432 294 L 432 294 L 432 422 L 432 422 L 432 438 L 432 438 L 416 438 L 80 438 L 80 422 L 80 422 L 80 294 L 80 294 L 80 278 L 80 278 Z M 96 422 L 416 422 L 96 422 L 416 422 L 416 294 L 416 294 L 96 294 L 96 294 L 96 422 L 96 422 Z M 384 54 Q 399 53 400 38 Q 399 23 384 22 Q 369 23 368 38 Q 369 53 384 54 L 384 54 Z M 384 6 Q 398 6 407 15 L 407 15 L 407 15 Q 416 24 416 38 Q 416 52 407 61 Q 398 70 384 70 Q 370 70 361 61 Q 352 52 352 38 Q 352 24 361 15 Q 370 6 384 6 L 384 6 Z M 368 182 Q 367 155 344 140 Q 320 128 296 140 Q 273 155 272 182 Q 273 209 296 224 Q 320 236 344 224 Q 367 209 368 182 L 368 182 Z M 256 182 Q 257 146 288 127 Q 320 109 352 127 Q 383 146 384 182 Q 383 218 352 237 Q 320 255 288 237 Q 257 218 256 182 L 256 182 Z" />
</svg>