<svg xmlns="http://www.w3.org/2000/svg" viewBox="0 0 576 448">
  <path d="M 331 0 L 336 0 L 331 0 L 576 0 L 576 16 L 576 16 L 568 16 L 341 16 L 247 188 L 247 188 L 245 192 L 245 192 L 240 192 L 0 192 L 0 176 L 0 176 L 8 176 L 235 176 L 329 4 L 329 4 L 331 0 L 331 0 Z M 156 272 L 8 272 L 156 272 L 0 272 L 0 256 L 0 256 L 8 256 L 576 256 L 576 272 L 576 272 L 568 272 L 175 272 L 276 432 L 276 432 L 568 432 L 576 432 L 576 448 L 576 448 L 568 448 L 268 448 L 265 444 L 265 444 L 156 272 L 156 272 Z" />
</svg>