<svg xmlns="http://www.w3.org/2000/svg" viewBox="0 0 640 384">
  <path d="M 0 8 L 0 0 L 0 8 L 0 0 L 16 0 L 16 0 L 16 8 L 16 8 L 16 376 L 16 376 L 16 384 L 16 384 L 0 384 L 0 384 L 0 376 L 0 376 L 0 8 L 0 8 Z M 320 152 L 304 152 L 320 152 L 304 152 L 304 136 L 304 136 L 304 48 L 304 48 L 295 48 L 295 48 L 151 192 L 151 192 L 295 336 L 295 336 L 304 336 L 304 336 L 304 248 L 304 248 L 304 232 L 304 232 L 320 232 L 624 232 L 624 152 L 624 152 L 320 152 L 320 152 Z M 139 181 L 288 32 L 139 181 L 288 32 L 304 32 L 320 32 L 320 48 L 320 48 L 320 120 L 320 120 L 320 136 L 320 136 L 336 136 L 640 136 L 640 152 L 640 152 L 640 232 L 640 232 L 640 248 L 640 248 L 624 248 L 320 248 L 320 264 L 320 264 L 320 336 L 320 336 L 320 352 L 320 352 L 304 352 L 288 352 L 139 203 L 139 203 L 128 192 L 128 192 L 139 181 L 139 181 Z" />
</svg>