<svg xmlns="http://www.w3.org/2000/svg" viewBox="0 0 384 448">
  <path d="M 56 0 L 48 0 L 56 0 L 48 0 L 48 8 L 48 8 L 48 144 L 48 144 L 0 144 L 0 144 L 0 160 L 0 160 L 48 160 L 48 160 L 48 280 L 48 280 L 48 440 L 48 440 L 48 448 L 48 448 L 64 448 L 64 448 L 64 440 L 64 440 L 64 288 L 64 288 L 192 288 L 192 288 Q 249 287 288 251 Q 328 215 335 160 L 384 160 L 384 160 L 384 144 L 384 144 L 336 144 L 336 144 Q 334 83 294 42 Q 253 2 192 0 L 56 0 L 56 0 Z M 320 144 L 64 144 L 320 144 L 64 144 L 64 16 L 64 16 L 192 16 L 192 16 Q 246 17 283 53 Q 319 90 320 144 L 320 144 Z M 64 160 L 319 160 L 64 160 L 319 160 Q 312 208 277 240 Q 242 271 192 272 L 64 272 L 64 272 L 64 160 L 64 160 Z" />
</svg>