<svg xmlns="http://www.w3.org/2000/svg" viewBox="0 0 384 449">
  <path d="M 96 0 L 96 8 L 96 0 L 96 8 L 96 207 L 96 207 L 331 10 L 331 10 L 337 5 L 337 5 L 347 17 L 347 17 L 341 22 L 341 22 L 110 216 L 110 216 L 376 216 L 384 216 L 384 232 L 384 232 L 376 232 L 110 232 L 341 426 L 341 426 L 347 431 L 347 431 L 337 443 L 337 443 L 331 438 L 331 438 L 96 241 L 96 241 L 96 441 L 96 441 L 96 449 L 96 449 L 80 449 L 80 449 L 80 441 L 80 441 L 80 232 L 80 232 L 8 232 L 0 232 L 0 216 L 0 216 L 8 216 L 80 216 L 80 8 L 80 8 L 80 0 L 80 0 L 96 0 L 96 0 Z" />
</svg>