<svg xmlns="http://www.w3.org/2000/svg" viewBox="0 0 640 448">
  <path d="M 8 0 L 0 0 L 8 0 L 0 0 L 0 8 L 0 8 L 0 440 L 0 440 Q 1 447 8 448 Q 15 447 16 440 L 16 16 L 16 16 L 624 16 L 624 16 L 624 440 L 624 440 L 624 448 L 624 448 L 640 448 L 640 448 L 640 440 L 640 440 L 640 8 L 640 8 L 640 0 L 640 0 L 632 0 L 8 0 Z M 160 64 L 144 64 L 160 64 L 144 64 L 144 128 L 144 128 L 64 128 L 64 128 L 64 144 L 64 144 L 144 144 L 144 144 L 144 240 L 144 240 L 64 240 L 64 240 L 64 256 L 64 256 L 144 256 L 144 256 L 144 352 L 144 352 L 64 352 L 64 352 L 64 368 L 64 368 L 144 368 L 144 368 L 144 448 L 144 448 L 160 448 L 160 448 L 160 368 L 160 368 L 256 368 L 256 368 L 256 448 L 256 448 L 272 448 L 272 448 L 272 368 L 272 368 L 368 368 L 368 368 L 368 448 L 368 448 L 384 448 L 384 448 L 384 368 L 384 368 L 480 368 L 480 368 L 480 448 L 480 448 L 496 448 L 496 448 L 496 368 L 496 368 L 576 368 L 576 368 L 576 352 L 576 352 L 496 352 L 496 352 L 496 256 L 496 256 L 576 256 L 576 256 L 576 240 L 576 240 L 496 240 L 496 240 L 496 144 L 496 144 L 576 144 L 576 144 L 576 128 L 576 128 L 496 128 L 496 128 L 496 64 L 496 64 L 480 64 L 480 64 L 480 128 L 480 128 L 384 128 L 384 128 L 384 64 L 384 64 L 368 64 L 368 64 L 368 128 L 368 128 L 272 128 L 272 128 L 272 64 L 272 64 L 256 64 L 256 64 L 256 128 L 256 128 L 160 128 L 160 128 L 160 64 L 160 64 Z M 160 144 L 256 144 L 160 144 L 256 144 L 256 240 L 256 240 L 160 240 L 160 240 L 160 144 L 160 144 Z M 272 144 L 368 144 L 272 144 L 368 144 L 368 240 L 368 240 L 272 240 L 272 240 L 272 144 L 272 144 Z M 384 144 L 480 144 L 384 144 L 480 144 L 480 240 L 480 240 L 384 240 L 384 240 L 384 144 L 384 144 Z M 160 352 L 160 256 L 160 352 L 160 256 L 256 256 L 256 256 L 256 352 L 256 352 L 160 352 L 160 352 Z M 272 352 L 272 256 L 272 352 L 272 256 L 368 256 L 368 256 L 368 352 L 368 352 L 272 352 L 272 352 Z M 384 352 L 384 256 L 384 352 L 384 256 L 480 256 L 480 256 L 480 352 L 480 352 L 384 352 L 384 352 Z" />
</svg>