<svg xmlns="http://www.w3.org/2000/svg" viewBox="0 0 544 512">
  <path d="M 288 16 Q 194 18 129 76 L 129 76 L 129 76 Q 63 135 50 225 L 34 223 L 34 223 Q 48 127 118 64 Q 188 2 288 0 Q 360 1 417 35 Q 475 69 509 127 Q 543 184 544 256 Q 543 328 509 385 Q 475 443 417 477 Q 360 511 288 512 Q 235 512 189 492 Q 143 472 108 438 L 119 426 L 119 426 Q 152 459 195 477 Q 238 496 288 496 Q 355 495 409 463 Q 463 431 495 377 Q 527 323 528 256 Q 527 189 495 135 Q 463 81 409 49 Q 355 17 288 16 L 288 16 Z M 203 168 L 198 174 L 203 168 L 198 174 L 190 181 L 190 181 Q 156 215 108 224 L 105 224 L 105 224 L 97 225 L 97 225 L 95 209 L 95 209 L 103 208 L 103 208 L 105 208 L 105 208 Q 148 200 179 170 L 186 162 L 186 162 L 192 157 L 192 157 L 203 168 L 203 168 Z M 378 174 L 373 168 L 378 174 L 373 168 L 384 157 L 384 157 L 390 162 L 390 162 L 397 170 L 397 170 Q 428 200 471 208 L 473 208 L 473 208 L 481 209 L 481 209 L 479 225 L 479 225 L 471 224 L 471 224 L 468 224 L 468 224 Q 420 215 386 181 L 378 174 L 378 174 Z M 384 272 Q 382 287 368 288 Q 353 287 352 272 Q 353 257 368 256 Q 382 257 384 272 L 384 272 Z M 208 256 Q 222 257 224 272 Q 222 287 208 288 Q 193 287 192 272 Q 193 257 208 256 L 208 256 Z M 200 400 Q 201 366 223 343 L 223 343 L 223 343 Q 246 321 280 320 L 296 320 L 296 320 Q 330 321 353 343 Q 375 366 376 400 L 376 408 L 376 408 L 376 416 L 376 416 L 368 416 L 200 416 L 200 408 L 200 408 L 200 400 L 200 400 Z M 280 336 Q 253 337 235 355 L 235 355 L 235 355 Q 217 373 216 400 L 360 400 L 360 400 Q 359 373 341 355 Q 323 337 296 336 L 280 336 L 280 336 Z M 28 327 Q 17 341 18 359 Q 21 377 33 388 Q 46 400 63 400 L 65 400 L 65 400 Q 82 400 95 388 Q 107 377 110 359 Q 111 341 100 327 L 64 282 L 64 282 L 28 327 L 28 327 Z M 16 317 L 54 269 L 16 317 L 54 269 L 64 256 L 64 256 L 74 269 L 74 269 L 112 317 L 112 317 Q 128 336 125 361 Q 123 385 106 400 Q 89 415 65 416 L 63 416 L 63 416 Q 39 415 22 400 Q 5 385 3 361 Q 0 336 16 317 L 16 317 Z" />
</svg>