<svg xmlns="http://www.w3.org/2000/svg" viewBox="0 0 641 480">
  <path d="M 0 0 L 448 0 L 0 0 L 448 0 L 448 90 L 448 90 L 431 101 L 431 101 Q 410 113 384 137 L 384 64 L 384 64 L 64 64 L 64 64 L 64 192 L 64 192 L 334 192 L 334 192 Q 310 224 297 264 L 264 264 L 264 264 L 264 312 L 264 312 L 288 312 L 288 312 Q 288 316 288 320 Q 290 395 337 448 L 0 448 L 0 448 L 0 0 L 0 0 Z M 168 264 L 168 312 L 168 264 L 168 312 L 216 312 L 216 312 L 216 264 L 216 264 L 168 264 L 168 264 Z M 72 264 L 72 312 L 72 264 L 72 312 L 120 312 L 120 312 L 120 264 L 120 264 L 72 264 L 72 264 Z M 448 128 L 512 192 L 448 128 L 512 192 L 544 160 L 544 160 Q 600 209 621 254 Q 641 298 640 320 Q 638 388 593 433 Q 548 478 480 480 Q 412 478 367 433 Q 322 388 320 320 Q 321 275 344 236 Q 366 198 396 170 Q 425 142 448 128 L 448 128 Z M 544 368 Q 543 344 527 322 L 527 322 L 527 322 Q 512 300 497 286 L 497 286 L 497 286 Q 481 273 480 272 Q 479 273 463 286 Q 448 300 433 322 Q 417 344 416 368 Q 417 395 435 413 Q 453 432 480 432 Q 507 432 525 413 Q 543 395 544 368 L 544 368 Z" />
</svg>