<svg xmlns="http://www.w3.org/2000/svg" viewBox="0 0 448 448">
  <path d="M 16 16 L 16 432 L 16 16 L 16 432 L 432 432 L 432 432 L 432 16 L 432 16 L 16 16 L 16 16 Z M 0 0 L 16 0 L 0 0 L 448 0 L 448 16 L 448 16 L 448 432 L 448 432 L 448 448 L 448 448 L 432 448 L 0 448 L 0 432 L 0 432 L 0 16 L 0 16 L 0 0 L 0 0 Z M 160 154 L 160 134 L 160 154 L 160 134 L 211 97 L 211 97 L 214 96 L 214 96 L 216 96 L 232 96 L 232 104 L 232 104 L 232 336 L 232 336 L 288 336 L 296 336 L 296 352 L 296 352 L 288 352 L 152 352 L 152 336 L 152 336 L 160 336 L 216 336 L 216 114 L 216 114 L 165 150 L 165 150 L 160 154 L 160 154 Z" />
</svg>