<svg xmlns="http://www.w3.org/2000/svg" viewBox="0 0 512 510">
  <path d="M 260 2 L 256 0 L 260 2 L 256 0 L 252 2 L 252 2 L 4 154 L 4 154 L 0 157 L 0 157 L 0 161 L 0 161 L 0 502 L 0 502 L 0 510 L 0 510 L 16 510 L 16 510 L 16 502 L 16 502 L 16 166 L 16 166 L 256 19 L 256 19 L 496 166 L 496 166 L 496 502 L 496 502 L 496 510 L 496 510 L 512 510 L 512 510 L 512 502 L 512 502 L 512 161 L 512 161 L 512 157 L 512 157 L 508 154 L 508 154 L 260 2 L 260 2 Z M 232 166 Q 234 144 256 142 Q 278 144 280 166 Q 278 188 256 190 Q 234 188 232 166 L 232 166 Z M 296 166 Q 295 143 276 131 Q 256 121 236 131 Q 217 143 216 166 Q 217 189 236 201 Q 256 211 276 201 Q 295 189 296 166 L 296 166 Z M 216 294 L 216 286 L 216 294 L 216 286 L 200 286 L 200 286 L 200 294 L 200 294 L 200 502 L 200 502 L 200 510 L 200 510 L 208 510 L 256 510 Q 256 510 256 510 Q 256 510 256 510 L 264 510 L 312 510 L 312 502 L 312 502 L 312 294 L 312 294 L 312 286 L 312 286 L 296 286 L 296 286 L 296 294 L 296 294 L 296 494 L 296 494 L 264 494 L 264 494 L 264 382 L 264 382 L 264 374 L 264 374 Q 264 374 264 374 Q 264 374 264 374 L 248 374 L 248 374 Q 248 374 248 374 Q 248 374 248 374 L 248 382 L 248 382 L 248 494 L 248 494 L 216 494 L 216 494 L 216 294 L 216 294 Z M 205 222 L 200 222 L 205 222 L 200 222 L 198 226 L 198 226 L 137 346 L 137 346 L 133 354 L 133 354 L 148 361 L 148 361 L 151 354 L 151 354 L 210 238 L 210 238 L 302 238 L 302 238 L 361 354 L 361 354 L 364 361 L 364 361 L 379 354 L 379 354 L 375 346 L 375 346 L 314 226 L 314 226 L 312 222 L 312 222 L 307 222 L 205 222 Z" />
</svg>