<svg xmlns="http://www.w3.org/2000/svg" viewBox="0 0 576 512">
  <path d="M 296 20 L 336 35 L 296 20 L 336 35 L 336 111 L 336 111 Q 344 113 352 117 L 352 24 L 352 24 L 288 0 L 288 0 L 233 113 L 233 113 Q 243 110 253 108 L 296 20 L 296 20 Z M 188 137 Q 196 131 204 127 Q 178 112 148 112 Q 84 115 43 172 Q 1 228 0 312 Q 1 396 43 453 Q 84 509 148 512 Q 187 511 218 488 Q 249 511 288 512 Q 327 511 358 488 Q 389 511 428 512 Q 492 509 534 453 Q 575 396 576 312 Q 575 228 534 172 Q 492 115 428 112 Q 398 112 372 127 Q 380 131 388 137 Q 407 128 428 128 Q 483 130 521 181 Q 558 233 560 312 Q 558 391 521 443 Q 483 494 428 496 Q 392 496 363 472 L 358 468 L 358 468 L 353 472 L 353 472 Q 324 496 288 496 Q 252 496 223 472 L 218 468 L 218 468 L 213 472 L 213 472 Q 184 496 148 496 Q 93 494 56 443 Q 18 391 16 312 Q 18 233 56 181 Q 93 129 148 128 Q 169 128 188 137 L 188 137 Z M 288 152 Q 319 152 345 166 L 345 166 L 345 166 Q 371 180 387 205 L 392 211 L 392 211 L 405 202 L 405 202 L 400 196 L 400 196 Q 382 168 353 152 Q 323 136 288 136 Q 253 136 223 152 Q 194 168 176 196 L 171 202 L 171 202 L 184 211 L 184 211 L 189 205 L 189 205 Q 205 180 231 166 Q 257 152 288 152 L 288 152 Z" />
</svg>