<svg xmlns="http://www.w3.org/2000/svg" viewBox="0 0 496 448">
  <path d="M 8 0 L 0 0 L 8 0 L 0 0 L 0 16 L 0 16 L 8 16 L 24 16 L 24 232 L 24 232 L 24 368 L 24 368 Q 25 402 47 425 Q 70 447 104 448 Q 138 447 161 425 Q 183 402 184 368 L 184 232 L 184 232 L 184 16 L 184 16 L 200 16 L 208 16 L 208 0 L 208 0 L 200 0 L 8 0 Z M 40 224 L 40 16 L 40 224 L 40 16 L 168 16 L 168 16 L 168 224 L 168 224 L 40 224 L 40 224 Z M 40 240 L 168 240 L 40 240 L 168 240 L 168 368 L 168 368 Q 167 395 149 413 Q 131 431 104 432 Q 77 431 59 413 Q 41 395 40 368 L 40 240 L 40 240 Z M 296 0 L 288 0 L 296 0 L 288 0 L 288 16 L 288 16 L 296 16 L 312 16 L 312 232 L 312 232 L 312 368 L 312 368 Q 313 402 335 425 Q 358 447 392 448 Q 426 447 449 425 Q 471 402 472 368 L 472 232 L 472 232 L 472 16 L 472 16 L 488 16 L 496 16 L 496 0 L 496 0 L 488 0 L 296 0 Z M 328 224 L 328 16 L 328 224 L 328 16 L 456 16 L 456 16 L 456 224 L 456 224 L 328 224 L 328 224 Z M 328 240 L 456 240 L 328 240 L 456 240 L 456 368 L 456 368 Q 455 395 437 413 Q 419 431 392 432 Q 365 431 347 413 Q 329 395 328 368 L 328 240 L 328 240 Z" />
</svg>