<svg xmlns="http://www.w3.org/2000/svg" viewBox="0 0 640 512">
  <path d="M 112 288 L 80 288 L 112 288 L 80 288 L 48 192 L 48 192 L 32 192 L 32 192 L 26 201 L 26 201 Q 0 240 0 286 Q 1 341 38 378 Q 75 415 130 416 L 184 416 L 184 416 L 256 512 L 256 512 L 384 512 L 384 512 L 384 496 L 384 496 Q 383 476 370 462 Q 356 449 336 448 L 317 398 L 317 398 L 359 361 L 359 361 L 368 352 L 368 352 L 368 320 L 368 320 Q 367 293 349 275 Q 331 257 304 256 L 288 256 L 272 256 L 272 224 L 272 224 L 288 224 L 304 224 Q 330 224 352 237 Q 373 249 386 270 L 432 301 L 432 301 L 432 320 L 432 320 L 432 344 L 432 344 L 480 344 L 480 344 L 480 320 L 480 320 L 480 288 L 480 288 L 480 275 L 480 275 L 469 268 L 469 268 L 425 238 L 425 238 L 464 208 L 464 208 L 576 208 L 576 208 L 597 176 L 597 176 L 552 176 L 549 176 L 546 174 L 546 174 L 517 144 L 517 144 L 488 144 L 480 144 L 480 128 L 480 128 L 488 128 L 523 128 L 526 130 L 526 130 L 555 160 L 555 160 L 608 160 L 640 160 L 640 112 L 640 112 Q 639 78 617 55 Q 594 33 560 32 L 544 32 L 544 32 L 528 0 L 528 0 L 440 0 L 440 0 L 440 0 L 440 0 Q 440 0 440 0 Q 440 0 440 0 Q 414 0 395 15 Q 375 29 366 53 L 352 96 L 352 96 L 320 128 L 320 128 L 279 128 L 279 128 Q 225 129 183 160 Q 142 190 126 242 L 112 288 L 112 288 Z M 480 56 Q 481 41 496 40 Q 511 41 512 56 Q 511 71 496 72 Q 481 71 480 56 L 480 56 Z" />
</svg>