<svg xmlns="http://www.w3.org/2000/svg" viewBox="0 0 511 512">
  <path d="M 94 16 Q 103 37 126 67 L 126 67 L 126 67 Q 150 97 192 116 L 192 133 L 192 133 Q 139 111 112 74 Q 91 47 82 27 Q 71 38 57 57 Q 41 80 29 113 Q 17 147 16 192 Q 17 237 29 271 Q 41 304 57 327 Q 71 346 82 357 Q 91 337 112 310 Q 139 273 192 251 L 192 268 L 192 268 Q 150 287 126 317 Q 103 347 94 369 Q 88 383 88 384 Q 88 384 88 384 Q 87 384 75 373 Q 54 355 28 310 Q 2 265 0 192 Q 2 119 28 74 Q 54 29 75 11 Q 87 0 88 0 Q 88 0 88 0 Q 88 1 94 16 L 94 16 Z M 320 133 L 320 116 L 320 133 L 320 116 Q 362 97 386 67 Q 409 37 418 16 Q 424 1 424 0 Q 425 0 437 11 Q 456 27 480 67 Q 504 106 511 169 L 499 181 L 499 181 L 488 192 L 488 192 L 499 203 L 499 203 L 511 215 L 511 215 Q 504 278 480 317 Q 456 357 437 373 Q 425 384 424 384 Q 424 383 418 368 Q 409 347 386 317 Q 362 287 320 268 L 320 251 L 320 251 Q 373 273 400 310 Q 421 337 430 357 Q 439 348 451 332 Q 465 313 477 286 Q 490 258 494 221 L 477 203 L 477 203 L 465 192 L 465 192 L 477 181 L 477 181 L 494 163 L 494 163 Q 490 126 477 98 Q 465 71 451 52 Q 440 36 430 27 Q 421 47 400 74 Q 373 111 320 133 L 320 133 Z M 240 48 L 240 496 L 240 48 L 240 496 L 272 496 L 272 496 L 272 48 L 272 48 L 240 48 L 240 48 Z M 224 32 L 240 32 L 224 32 L 288 32 L 288 48 L 288 48 L 288 496 L 288 496 L 288 512 L 288 512 L 272 512 L 224 512 L 224 496 L 224 496 L 224 48 L 224 48 L 224 32 L 224 32 Z" />
</svg>