<svg xmlns="http://www.w3.org/2000/svg" viewBox="0 0 512 384">
  <path d="M 16 104 L 256 269 L 16 104 L 256 269 L 496 104 L 496 104 L 496 16 L 496 16 L 16 16 L 16 16 L 16 104 L 16 104 Z M 496 123 L 256 288 L 496 123 L 256 288 L 16 123 L 16 123 L 16 368 L 16 368 L 496 368 L 496 368 L 496 123 L 496 123 Z M 0 368 L 0 112 L 0 368 L 0 112 L 0 16 L 0 16 L 0 0 L 0 0 L 16 0 L 512 0 L 512 16 L 512 16 L 512 112 L 512 112 L 512 368 L 512 368 L 512 384 L 512 384 L 496 384 L 0 384 L 0 368 L 0 368 Z" />
</svg>