<svg xmlns="http://www.w3.org/2000/svg" viewBox="0 0 448 512">
  <path d="M 181 26 Q 195 1 224 0 Q 253 1 267 26 Q 279 16 296 16 Q 314 16 327 27 Q 340 39 343 56 L 344 56 L 344 56 Q 364 57 378 70 Q 391 84 392 104 Q 392 109 391 114 Q 422 126 424 160 L 408 160 L 408 160 Q 406 133 380 128 L 369 127 L 369 127 L 373 117 L 373 117 Q 376 111 376 104 Q 376 90 367 81 Q 358 72 344 72 Q 341 72 338 73 L 328 75 L 328 75 L 328 65 L 328 65 L 328 64 L 328 64 Q 328 64 328 64 Q 328 50 319 41 Q 310 32 296 32 Q 279 33 270 45 L 259 61 L 259 61 L 256 42 L 256 42 Q 250 18 224 16 Q 199 18 193 42 L 189 61 L 189 61 L 178 46 L 178 46 Q 169 33 152 32 Q 138 32 129 41 Q 120 50 120 64 L 120 65 L 120 65 L 120 75 L 120 75 L 110 73 L 110 73 Q 107 72 104 72 Q 90 72 81 81 Q 72 90 72 104 Q 72 115 78 123 L 88 136 L 88 136 L 72 136 L 72 136 Q 48 138 41 160 L 25 160 L 25 160 Q 31 131 59 122 Q 56 113 56 104 Q 57 84 70 70 Q 84 57 104 56 L 105 56 L 105 56 Q 108 39 121 27 Q 134 16 152 16 Q 169 16 181 26 L 181 26 Z M 93 496 L 356 496 L 93 496 L 356 496 L 428 208 L 428 208 L 344 208 L 344 208 L 344 209 L 344 209 L 311 440 L 311 440 L 295 440 L 295 440 L 328 208 L 328 208 L 232 208 L 232 208 Q 232 208 232 208 Q 232 208 232 208 L 232 440 L 232 440 L 216 440 L 216 440 L 216 208 L 216 208 Q 216 208 216 208 Q 216 208 216 208 L 120 208 L 120 208 L 153 440 L 153 440 L 137 440 L 137 440 L 104 209 L 104 209 L 104 208 L 104 208 L 20 208 L 20 208 L 92 496 L 93 496 Z M 368 512 L 80 512 L 368 512 L 80 512 L 4 208 L 4 208 L 0 192 L 0 192 L 17 192 L 448 192 L 444 208 L 444 208 L 368 512 L 368 512 Z" />
</svg>