<svg xmlns="http://www.w3.org/2000/svg" viewBox="0 0 448 448">
  <path d="M 413 192 Q 400 122 349 78 L 349 78 L 349 78 Q 297 33 224 32 Q 170 33 127 58 Q 83 84 58 128 L 112 128 L 128 128 L 128 160 L 128 160 L 112 160 L 0 160 L 0 144 L 0 144 L 0 48 L 0 48 L 0 32 L 0 32 L 32 32 L 32 32 L 32 48 L 32 48 L 32 109 L 32 109 Q 62 59 112 30 Q 162 1 224 0 Q 310 2 371 55 Q 432 109 446 192 L 413 192 L 413 192 Z M 224 416 Q 278 415 321 390 L 321 390 L 321 390 Q 365 364 390 320 L 336 320 L 320 320 L 320 288 L 320 288 L 336 288 L 448 288 L 448 304 L 448 304 L 448 400 L 448 400 L 448 416 L 448 416 L 416 416 L 416 416 L 416 400 L 416 400 L 416 340 L 416 340 Q 386 389 336 418 Q 286 447 224 448 Q 138 446 77 393 Q 16 339 2 256 L 35 256 L 35 256 Q 48 326 99 370 Q 151 415 224 416 L 224 416 Z" />
</svg>