<svg xmlns="http://www.w3.org/2000/svg" viewBox="0 0 384 512">
  <path d="M 16 16 L 16 496 L 16 16 L 16 496 L 368 496 L 368 496 L 368 16 L 368 16 L 16 16 L 16 16 Z M 0 0 L 16 0 L 0 0 L 384 0 L 384 16 L 384 16 L 384 496 L 384 496 L 384 512 L 384 512 L 368 512 L 0 512 L 0 496 L 0 496 L 0 16 L 0 16 L 0 0 L 0 0 Z M 80 80 L 80 144 L 80 80 L 80 144 L 304 144 L 304 144 L 304 80 L 304 80 L 80 80 L 80 80 Z M 64 64 L 80 64 L 64 64 L 320 64 L 320 80 L 320 80 L 320 144 L 320 144 L 320 160 L 320 160 L 304 160 L 64 160 L 64 144 L 64 144 L 64 80 L 64 80 L 64 64 L 64 64 Z M 112 208 L 80 208 L 112 208 L 80 208 L 80 240 L 80 240 L 112 240 L 112 240 L 112 208 L 112 208 Z M 80 192 L 112 192 L 80 192 L 128 192 L 128 208 L 128 208 L 128 240 L 128 240 L 128 256 L 128 256 L 112 256 L 64 256 L 64 240 L 64 240 L 64 208 L 64 208 L 64 192 L 64 192 L 80 192 L 80 192 Z M 80 304 L 80 336 L 80 304 L 80 336 L 112 336 L 112 336 L 112 304 L 112 304 L 80 304 L 80 304 Z M 64 288 L 80 288 L 64 288 L 128 288 L 128 304 L 128 304 L 128 336 L 128 336 L 128 352 L 128 352 L 112 352 L 64 352 L 64 336 L 64 336 L 64 304 L 64 304 L 64 288 L 64 288 Z M 208 400 L 80 400 L 208 400 L 80 400 L 80 432 L 80 432 L 208 432 L 208 432 L 208 400 L 208 400 Z M 80 384 L 208 384 L 80 384 L 224 384 L 224 400 L 224 400 L 224 432 L 224 432 L 224 448 L 224 448 L 208 448 L 64 448 L 64 432 L 64 432 L 64 400 L 64 400 L 64 384 L 64 384 L 80 384 L 80 384 Z M 176 208 L 176 240 L 176 208 L 176 240 L 208 240 L 208 240 L 208 208 L 208 208 L 176 208 L 176 208 Z M 160 192 L 176 192 L 160 192 L 224 192 L 224 208 L 224 208 L 224 240 L 224 240 L 224 256 L 224 256 L 208 256 L 160 256 L 160 240 L 160 240 L 160 208 L 160 208 L 160 192 L 160 192 Z M 208 304 L 176 304 L 208 304 L 176 304 L 176 336 L 176 336 L 208 336 L 208 336 L 208 304 L 208 304 Z M 176 288 L 208 288 L 176 288 L 224 288 L 224 304 L 224 304 L 224 336 L 224 336 L 224 352 L 224 352 L 208 352 L 160 352 L 160 336 L 160 336 L 160 304 L 160 304 L 160 288 L 160 288 L 176 288 L 176 288 Z M 272 208 L 272 240 L 272 208 L 272 240 L 304 240 L 304 240 L 304 208 L 304 208 L 272 208 L 272 208 Z M 256 192 L 272 192 L 256 192 L 320 192 L 320 208 L 320 208 L 320 240 L 320 240 L 320 256 L 320 256 L 304 256 L 256 256 L 256 240 L 256 240 L 256 208 L 256 208 L 256 192 L 256 192 Z M 304 304 L 272 304 L 304 304 L 272 304 L 272 336 L 272 336 L 304 336 L 304 336 L 304 304 L 304 304 Z M 272 288 L 304 288 L 272 288 L 320 288 L 320 304 L 320 304 L 320 336 L 320 336 L 320 352 L 320 352 L 304 352 L 256 352 L 256 336 L 256 336 L 256 304 L 256 304 L 256 288 L 256 288 L 272 288 L 272 288 Z M 272 400 L 272 432 L 272 400 L 272 432 L 304 432 L 304 432 L 304 400 L 304 400 L 272 400 L 272 400 Z M 256 384 L 272 384 L 256 384 L 320 384 L 320 400 L 320 400 L 320 432 L 320 432 L 320 448 L 320 448 L 304 448 L 256 448 L 256 432 L 256 432 L 256 400 L 256 400 L 256 384 L 256 384 Z" />
</svg>