<svg xmlns="http://www.w3.org/2000/svg" viewBox="0 0 512 512">
  <path d="M 256 16 Q 321 17 376 48 L 376 48 L 376 48 Q 431 80 464 136 Q 496 193 496 256 Q 496 319 464 376 Q 431 432 376 464 Q 321 495 256 496 Q 191 495 136 464 Q 81 432 48 376 Q 16 319 16 256 Q 16 193 48 136 Q 81 80 136 48 Q 191 17 256 16 L 256 16 Z M 256 512 Q 326 511 384 478 L 384 478 L 384 478 Q 442 444 478 384 Q 512 323 512 256 Q 512 189 478 128 Q 442 68 384 34 Q 326 1 256 0 Q 186 1 128 34 Q 70 68 34 128 Q 0 189 0 256 Q 0 323 34 384 Q 70 444 128 478 Q 186 511 256 512 L 256 512 Z M 192 224 L 80 224 L 192 224 L 80 224 L 80 192 L 80 192 Q 81 168 96 152 Q 112 137 136 136 Q 137 136 139 136 Q 128 145 128 160 Q 128 174 137 183 Q 146 192 160 192 Q 180 191 189 174 Q 192 182 192 192 L 192 224 L 192 224 Z M 136 120 Q 105 121 85 141 L 85 141 L 85 141 Q 65 161 64 192 L 64 224 L 64 224 L 64 240 L 64 240 L 80 240 L 208 240 L 208 224 L 208 224 L 208 192 L 208 192 Q 207 161 187 141 Q 167 121 136 120 L 136 120 Z M 176 160 Q 175 175 160 176 Q 145 175 144 160 Q 145 145 160 144 Q 175 145 176 160 L 176 160 Z M 376 168 Q 361 167 360 152 Q 361 137 376 136 Q 391 137 392 152 Q 391 167 376 168 L 376 168 Z M 355 128 Q 344 137 344 152 Q 344 166 353 175 Q 362 184 376 184 Q 400 182 407 160 Q 416 174 416 192 L 416 224 L 416 224 L 288 224 L 288 224 L 288 192 L 288 192 Q 289 165 307 147 Q 325 129 352 128 Q 353 128 355 128 L 355 128 Z M 272 192 L 272 224 L 272 192 L 272 224 L 272 240 L 272 240 L 288 240 L 432 240 L 432 224 L 432 224 L 432 192 L 432 192 Q 431 158 409 135 Q 386 113 352 112 Q 318 113 295 135 Q 273 158 272 192 L 272 192 Z M 362 380 Q 318 430 248 432 Q 245 432 242 432 Q 248 404 269 386 Q 290 369 320 368 Q 343 368 362 380 L 362 380 Z M 375 369 Q 351 352 320 352 Q 284 353 258 374 Q 233 396 226 430 Q 171 422 133 383 Q 96 345 90 288 L 407 288 L 407 288 Q 402 334 375 369 L 375 369 Z M 248 448 Q 318 447 366 402 L 366 402 L 366 402 Q 415 358 423 289 L 423 288 L 423 288 L 424 272 L 424 272 L 408 272 L 72 272 L 74 288 L 74 288 L 74 289 L 74 289 Q 81 358 130 402 Q 178 447 248 448 L 248 448 Z" />
</svg>