<svg xmlns="http://www.w3.org/2000/svg" viewBox="0 0 571 512">
  <path d="M 107 0 L 117 0 L 107 0 L 117 0 L 119 5 L 119 5 L 224 256 L 224 256 L 207 256 L 207 256 L 173 176 L 173 176 L 51 176 L 51 176 L 18 256 L 18 256 L 0 256 L 0 256 L 105 5 L 105 5 L 107 0 L 107 0 Z M 167 160 L 112 29 L 167 160 L 112 29 L 57 160 L 57 160 L 167 160 L 167 160 Z M 264 0 L 352 0 L 264 0 L 352 0 Q 379 1 397 19 Q 415 37 416 64 Q 415 95 392 114 Q 417 120 432 139 Q 448 158 448 184 Q 447 215 427 235 Q 407 255 376 256 L 264 256 L 256 256 L 256 248 L 256 248 L 256 120 L 256 120 L 256 8 L 256 8 L 256 0 L 256 0 L 264 0 L 264 0 Z M 400 64 Q 399 44 386 30 L 386 30 L 386 30 Q 372 17 352 16 L 272 16 L 272 16 L 272 112 L 272 112 L 352 112 L 352 112 Q 372 111 386 98 Q 399 84 400 64 L 400 64 Z M 272 240 L 376 240 L 272 240 L 376 240 Q 400 239 416 224 Q 431 208 432 184 Q 431 160 416 144 Q 400 129 376 128 L 352 128 L 272 128 L 272 240 L 272 240 Z M 571 293 L 566 299 L 571 293 L 566 299 L 358 507 L 358 507 L 352 512 L 352 512 L 346 507 L 346 507 L 226 395 L 226 395 L 221 389 L 221 389 L 231 378 L 231 378 L 237 383 L 237 383 L 352 490 L 352 490 L 554 287 L 554 287 L 560 281 L 560 281 L 571 293 L 571 293 Z" />
</svg>