<svg xmlns="http://www.w3.org/2000/svg" viewBox="0 0 640 512">
  <path d="M 16 16 L 368 16 L 16 16 L 368 16 L 368 396 L 368 396 L 384 359 L 384 359 L 384 16 L 384 16 L 384 0 L 384 0 L 368 0 L 0 0 L 0 16 L 0 16 L 0 496 L 0 496 L 0 512 L 0 512 L 16 512 L 317 512 L 324 496 L 324 496 L 240 496 L 240 496 L 240 384 L 240 384 L 240 368 L 240 368 L 224 368 L 144 368 L 144 384 L 144 384 L 144 496 L 144 496 L 16 496 L 16 496 L 16 16 L 16 16 Z M 160 496 L 160 384 L 160 496 L 160 384 L 224 384 L 224 384 L 224 496 L 224 496 L 160 496 L 160 496 Z M 80 232 L 72 232 L 80 232 L 72 232 L 72 240 L 72 240 L 72 304 L 72 304 L 72 312 L 72 312 L 80 312 L 152 312 L 152 304 L 152 304 L 152 240 L 152 240 L 152 232 L 152 232 L 144 232 L 80 232 Z M 88 296 L 88 248 L 88 296 L 88 248 L 136 248 L 136 248 L 136 296 L 136 296 L 88 296 L 88 296 Z M 232 232 L 232 240 L 232 232 L 232 240 L 232 304 L 232 304 L 232 312 L 232 312 L 240 312 L 312 312 L 312 304 L 312 304 L 312 240 L 312 240 L 312 232 L 312 232 L 304 232 L 232 232 Z M 248 248 L 296 248 L 248 248 L 296 248 L 296 296 L 296 296 L 248 296 L 248 296 L 248 248 L 248 248 Z M 80 104 L 72 104 L 80 104 L 72 104 L 72 112 L 72 112 L 72 176 L 72 176 L 72 184 L 72 184 L 80 184 L 152 184 L 152 176 L 152 176 L 152 112 L 152 112 L 152 104 L 152 104 L 144 104 L 80 104 Z M 88 168 L 88 120 L 88 168 L 88 120 L 136 120 L 136 120 L 136 168 L 136 168 L 88 168 L 88 168 Z M 232 104 L 232 112 L 232 104 L 232 112 L 232 176 L 232 176 L 232 184 L 232 184 L 240 184 L 312 184 L 312 176 L 312 176 L 312 112 L 312 112 L 312 104 L 312 104 L 304 104 L 232 104 Z M 248 120 L 296 120 L 248 120 L 296 120 L 296 168 L 296 168 L 248 168 L 248 168 L 248 120 L 248 120 Z M 408 384 L 404 394 L 408 384 L 404 394 L 362 490 L 362 490 L 359 496 L 359 496 L 352 512 L 352 512 L 370 512 L 640 512 L 633 496 L 633 496 L 630 490 L 630 490 L 588 394 L 588 394 L 584 384 L 584 384 L 574 384 L 408 384 Z M 616 496 L 598 496 L 616 496 L 376 496 L 383 480 L 383 480 L 418 400 L 418 400 L 574 400 L 574 400 L 609 480 L 609 480 L 616 496 L 616 496 Z M 432 272 Q 433 236 464 217 Q 496 199 528 217 Q 559 236 560 272 Q 559 308 528 327 Q 496 345 464 327 Q 433 308 432 272 L 432 272 Z M 496 352 Q 541 351 565 312 Q 587 272 565 232 Q 541 193 496 192 Q 451 193 427 232 Q 405 272 427 312 Q 451 351 496 352 L 496 352 Z" />
</svg>