<svg xmlns="http://www.w3.org/2000/svg" viewBox="0 0 512 448">
  <path d="M 16 16 L 16 432 L 16 16 L 16 432 L 496 432 L 496 432 L 496 16 L 496 16 L 16 16 L 16 16 Z M 0 0 L 16 0 L 0 0 L 512 0 L 512 16 L 512 16 L 512 432 L 512 432 L 512 448 L 512 448 L 496 448 L 0 448 L 0 432 L 0 432 L 0 16 L 0 16 L 0 0 L 0 0 Z M 186 143 L 192 148 L 186 143 L 192 148 L 256 213 L 256 213 L 321 148 L 321 148 L 326 142 L 326 142 L 338 154 L 338 154 L 332 159 L 332 159 L 267 224 L 267 224 L 332 289 L 332 289 L 338 294 L 338 294 L 326 306 L 326 306 L 321 300 L 321 300 L 256 235 L 256 235 L 191 300 L 191 300 L 186 306 L 186 306 L 174 294 L 174 294 L 180 289 L 180 289 L 245 224 L 245 224 L 180 159 L 180 159 L 174 154 L 174 154 L 186 142 L 186 143 Z" />
</svg>