<svg xmlns="http://www.w3.org/2000/svg" viewBox="0 0 448 448">
  <path d="M 432 16 L 432 432 L 432 16 L 432 432 L 16 432 L 16 432 L 16 16 L 16 16 L 432 16 L 432 16 Z M 16 0 L 0 0 L 16 0 L 0 0 L 0 16 L 0 16 L 0 432 L 0 432 L 0 448 L 0 448 L 16 448 L 448 448 L 448 432 L 448 432 L 448 16 L 448 16 L 448 0 L 448 0 L 432 0 L 16 0 Z M 96 80 Q 95 65 80 64 Q 65 65 64 80 Q 65 95 80 96 Q 95 95 96 80 L 96 80 Z M 368 96 Q 383 95 384 80 Q 383 65 368 64 Q 353 65 352 80 Q 353 95 368 96 L 368 96 Z M 96 368 Q 95 353 80 352 Q 65 353 64 368 Q 65 383 80 384 Q 95 383 96 368 L 96 368 Z M 368 384 Q 383 383 384 368 Q 383 353 368 352 Q 353 353 352 368 Q 353 383 368 384 L 368 384 Z" />
</svg>