<svg xmlns="http://www.w3.org/2000/svg" viewBox="0 0 576 512">
  <path d="M 80 84 L 80 96 L 80 84 L 80 96 L 496 96 L 496 96 L 496 84 L 496 84 Q 488 65 440 42 Q 393 18 288 16 Q 187 18 137 43 Q 89 66 80 84 L 80 84 Z M 80 256 L 280 256 L 80 256 L 280 256 L 280 112 L 280 112 L 80 112 L 80 112 L 80 256 L 80 256 Z M 296 256 L 496 256 L 296 256 L 496 256 L 496 112 L 496 112 L 296 112 L 296 112 L 296 256 L 296 256 Z M 80 432 L 96 432 L 80 432 L 496 432 L 496 272 L 496 272 L 80 272 L 80 272 L 80 432 L 80 432 Z M 384 448 L 370 448 L 384 448 L 192 448 L 192 496 L 192 496 L 192 512 L 192 512 L 176 512 L 96 512 L 96 496 L 96 496 L 96 448 L 96 448 L 72 448 L 64 448 L 64 440 L 64 440 L 64 82 L 64 82 L 64 79 L 64 79 L 65 78 L 65 78 Q 77 54 130 28 Q 184 2 288 0 Q 399 2 450 28 Q 501 54 511 78 L 512 79 L 512 79 L 512 82 L 512 82 L 512 440 L 512 440 L 512 448 L 512 448 L 504 448 L 480 448 L 480 496 L 480 496 L 480 512 L 480 512 L 464 512 L 384 512 L 384 496 L 384 496 L 384 448 L 384 448 Z M 464 448 L 400 448 L 464 448 L 400 448 L 400 496 L 400 496 L 464 496 L 464 496 L 464 448 L 464 448 Z M 112 448 L 112 496 L 112 448 L 112 496 L 176 496 L 176 496 L 176 448 L 176 448 L 112 448 L 112 448 Z M 120 352 Q 121 329 140 317 Q 160 307 180 317 Q 199 329 200 352 Q 199 375 180 387 Q 160 397 140 387 Q 121 375 120 352 L 120 352 Z M 160 376 Q 182 374 184 352 Q 182 330 160 328 Q 138 330 136 352 Q 138 374 160 376 L 160 376 Z M 416 312 Q 439 313 451 332 Q 461 352 451 372 Q 439 391 416 392 Q 393 391 381 372 Q 371 352 381 332 Q 393 313 416 312 L 416 312 Z M 440 352 Q 438 330 416 328 Q 394 330 392 352 Q 394 374 416 376 Q 438 374 440 352 L 440 352 Z M 224 48 L 352 48 L 224 48 L 360 48 L 360 64 L 360 64 L 352 64 L 216 64 L 216 48 L 216 48 L 224 48 L 224 48 Z M 0 112 L 8 112 L 0 112 L 40 112 L 40 128 L 40 128 L 32 128 L 16 128 L 16 256 L 16 256 L 32 256 L 40 256 L 40 272 L 40 272 L 32 272 L 0 272 L 0 264 L 0 264 L 0 120 L 0 120 L 0 112 L 0 112 Z M 568 112 L 576 112 L 568 112 L 576 112 L 576 120 L 576 120 L 576 264 L 576 264 L 576 272 L 576 272 L 568 272 L 536 272 L 536 256 L 536 256 L 544 256 L 560 256 L 560 128 L 560 128 L 544 128 L 536 128 L 536 112 L 536 112 L 544 112 L 568 112 Z" />
</svg>