<svg xmlns="http://www.w3.org/2000/svg" viewBox="0 0 640 513">
  <path d="M 287 1 L 271 1 L 287 1 L 271 1 L 272 10 L 272 10 L 295 145 L 295 145 L 312 159 L 312 159 L 312 158 L 312 158 Q 312 152 311 147 L 288 8 L 288 8 Q 288 8 288 8 Q 288 8 288 8 L 287 1 L 287 1 Z M 161 223 Q 139 216 127 197 L 105 179 L 105 179 Q 109 206 128 223 Q 148 240 176 241 L 183 241 L 183 241 L 160 223 L 161 223 Z M 174 50 L 189 62 L 174 50 L 189 62 L 190 50 L 190 50 L 191 30 L 191 30 L 192 10 L 192 10 L 192 1 L 192 1 L 176 1 L 176 1 L 176 9 L 176 9 L 175 29 L 175 29 L 174 49 L 174 49 L 174 50 L 174 50 Z M 228 93 L 245 106 L 228 93 L 245 106 L 240 9 L 240 9 L 240 1 L 240 1 L 224 1 L 224 1 L 224 9 L 224 9 L 228 93 L 228 93 Z M 127 13 L 141 24 L 127 13 L 141 24 L 144 10 L 144 10 Q 144 10 144 10 Q 144 10 144 10 L 145 1 L 145 1 L 129 1 L 129 1 L 128 8 L 128 8 Q 128 8 128 8 Q 128 8 128 8 L 127 13 L 127 13 Z M 200 505 L 200 513 L 200 505 L 200 513 L 216 513 L 216 513 L 216 505 L 216 505 L 216 267 L 216 267 L 200 254 L 200 254 L 200 505 L 200 505 Z M 528 17 L 528 1 L 528 17 L 528 1 L 512 1 L 504 1 Q 494 0 466 15 Q 437 29 412 67 Q 386 106 384 177 L 384 216 L 384 216 L 400 228 L 400 228 L 400 177 L 400 177 Q 401 127 415 95 Q 430 64 449 47 Q 468 30 485 23 Q 493 20 498 18 Q 504 17 504 17 Q 504 17 504 17 Q 504 17 504 17 L 512 17 L 512 17 L 512 317 L 512 317 L 528 329 L 528 329 L 528 17 L 528 17 Z M 16 6 L 10 1 L 16 6 L 10 1 L 0 14 L 0 14 L 6 19 L 6 19 L 624 508 L 624 508 L 630 513 L 630 513 L 640 501 L 640 501 L 634 496 L 634 496 L 16 6 L 16 6 Z" />
</svg>