<svg xmlns="http://www.w3.org/2000/svg" viewBox="0 0 607 520">
  <path d="M 119 64 Q 120 41 139 29 Q 159 19 179 29 Q 198 41 199 64 Q 198 87 179 99 Q 159 109 139 99 Q 120 87 119 64 L 119 64 Z M 215 64 Q 214 32 187 16 Q 159 0 131 16 Q 104 32 103 64 Q 104 96 131 112 Q 159 128 187 112 Q 214 96 215 64 L 215 64 Z M 100 136 L 95 136 L 100 136 L 95 136 L 93 140 L 93 140 L 0 316 L 0 316 L 14 324 L 14 324 L 105 152 L 105 152 L 218 152 L 367 152 L 367 184 L 367 184 L 223 184 L 215 184 L 215 192 L 215 192 L 215 248 L 215 248 Q 215 248 215 248 Q 215 248 215 248 L 215 256 L 215 256 L 215 504 L 215 504 L 183 504 L 183 504 L 183 352 L 183 352 L 183 344 L 183 344 L 175 344 L 135 344 L 135 352 L 135 352 L 135 504 L 135 504 L 103 504 L 103 504 L 103 256 L 103 256 L 103 248 L 103 248 L 87 248 L 87 248 L 87 256 L 87 256 L 87 512 L 87 512 L 87 520 L 87 520 L 95 520 L 151 520 L 151 512 L 151 512 L 151 360 L 151 360 L 167 360 L 167 360 L 167 512 L 167 512 L 167 520 L 167 520 L 175 520 L 231 520 L 231 512 L 231 512 L 231 264 L 231 264 Q 231 264 231 264 Q 231 264 231 264 L 231 200 L 231 200 L 375 200 L 383 200 L 383 192 L 383 192 L 383 144 L 383 144 L 383 136 L 383 136 L 375 136 L 303 136 L 303 24 L 303 24 L 591 24 L 591 24 L 591 312 L 591 312 L 303 312 L 303 312 L 303 232 L 303 232 L 287 232 L 287 232 L 287 312 L 287 312 L 287 328 L 287 328 L 303 328 L 607 328 L 607 312 L 607 312 L 607 24 L 607 24 L 607 8 L 607 8 L 591 8 L 287 8 L 287 24 L 287 24 L 287 136 L 287 136 L 218 136 L 100 136 Z" />
</svg>