<svg xmlns="http://www.w3.org/2000/svg" viewBox="0 0 512 448">
  <path d="M 320 160 L 320 144 L 320 160 L 320 144 L 320 80 L 320 80 L 320 64 L 320 64 L 336 64 L 352 64 L 501 213 L 501 213 L 512 224 L 512 224 L 501 235 L 501 235 L 352 384 L 352 384 L 336 384 L 320 384 L 320 368 L 320 368 L 320 304 L 320 304 L 320 288 L 320 288 L 304 288 L 160 288 L 160 272 L 160 272 L 160 176 L 160 176 L 160 160 L 160 160 L 176 160 L 320 160 Z M 336 160 L 336 176 L 336 160 L 336 176 L 320 176 L 176 176 L 176 272 L 176 272 L 320 272 L 336 272 L 336 288 L 336 288 L 336 368 L 336 368 L 345 368 L 345 368 L 489 224 L 489 224 L 345 80 L 345 80 L 336 80 L 336 80 L 336 160 L 336 160 Z M 184 16 L 16 16 L 184 16 L 16 16 L 16 432 L 16 432 L 184 432 L 192 432 L 192 448 L 192 448 L 184 448 L 0 448 L 0 440 L 0 440 L 0 8 L 0 8 L 0 0 L 0 0 L 8 0 L 192 0 L 192 16 L 192 16 L 184 16 L 184 16 Z" />
</svg>