<svg xmlns="http://www.w3.org/2000/svg" viewBox="0 0 384 512">
  <path d="M 200 8 L 200 0 L 200 8 L 200 0 L 184 0 L 184 0 L 184 8 L 184 8 L 184 32 L 184 32 L 72 32 L 64 32 L 64 40 L 64 40 L 64 64 L 64 64 L 40 64 L 32 64 L 32 72 L 32 72 L 32 496 L 32 496 L 8 496 L 0 496 L 0 512 L 0 512 L 8 512 L 384 512 L 384 496 L 384 496 L 376 496 L 352 496 L 352 72 L 352 72 L 352 64 L 352 64 L 344 64 L 320 64 L 320 40 L 320 40 L 320 32 L 320 32 L 312 32 L 200 32 L 200 8 L 200 8 Z M 336 496 L 48 496 L 336 496 L 48 496 L 48 80 L 48 80 L 71 80 L 336 80 L 336 496 L 336 496 Z M 184 48 L 200 48 L 184 48 L 304 48 L 304 64 L 304 64 L 80 64 L 80 64 L 80 48 L 80 48 L 184 48 L 184 48 Z M 96 272 L 160 272 L 96 272 L 160 272 L 160 336 L 160 336 L 96 336 L 96 336 L 96 272 L 96 272 Z M 80 256 L 80 272 L 80 256 L 80 272 L 80 336 L 80 336 L 80 352 L 80 352 L 96 352 L 176 352 L 176 336 L 176 336 L 176 272 L 176 272 L 176 256 L 176 256 L 160 256 L 80 256 Z M 288 144 L 288 168 L 288 144 L 288 168 L 264 168 L 264 168 L 264 144 L 264 144 L 288 144 L 288 144 Z M 224 144 L 248 144 L 224 144 L 248 144 L 248 168 L 248 168 L 224 168 L 224 168 L 224 144 L 224 144 Z M 224 184 L 248 184 L 224 184 L 248 184 L 248 208 L 248 208 L 224 208 L 224 208 L 224 184 L 224 184 Z M 288 208 L 264 208 L 288 208 L 264 208 L 264 184 L 264 184 L 288 184 L 288 184 L 288 208 L 288 208 Z M 224 128 L 208 128 L 224 128 L 208 128 L 208 144 L 208 144 L 208 208 L 208 208 L 208 224 L 208 224 L 224 224 L 304 224 L 304 208 L 304 208 L 304 144 L 304 144 L 304 128 L 304 128 L 288 128 L 224 128 Z M 136 144 L 160 144 L 136 144 L 160 144 L 160 168 L 160 168 L 136 168 L 136 168 L 136 144 L 136 144 Z M 120 168 L 96 168 L 120 168 L 96 168 L 96 144 L 96 144 L 120 144 L 120 144 L 120 168 L 120 168 Z M 120 184 L 120 208 L 120 184 L 120 208 L 96 208 L 96 208 L 96 184 L 96 184 L 120 184 L 120 184 Z M 136 184 L 160 184 L 136 184 L 160 184 L 160 208 L 160 208 L 136 208 L 136 208 L 136 184 L 136 184 Z M 80 128 L 80 144 L 80 128 L 80 144 L 80 208 L 80 208 L 80 224 L 80 224 L 96 224 L 176 224 L 176 208 L 176 208 L 176 144 L 176 144 L 176 128 L 176 128 L 160 128 L 80 128 Z" />
</svg>