<svg xmlns="http://www.w3.org/2000/svg" viewBox="0 0 506 518">
  <path d="M 48 54 Q 48 40 57 31 L 57 31 L 57 31 Q 66 22 80 22 Q 94 22 103 31 Q 112 40 112 54 Q 112 68 103 77 Q 94 86 80 86 Q 66 86 57 77 Q 48 68 48 54 L 48 54 Z M 128 54 Q 127 27 104 12 Q 80 0 56 12 Q 33 27 32 54 Q 33 81 56 96 Q 80 108 104 96 Q 127 81 128 54 L 128 54 Z M 112 272 L 117 280 L 112 272 L 117 280 L 127 294 L 127 294 L 144 294 L 230 294 L 254 400 L 254 400 Q 226 418 224 454 Q 225 481 243 499 Q 261 517 288 518 Q 314 517 332 501 Q 350 484 352 459 L 506 422 L 506 422 L 502 406 L 502 406 L 351 442 L 351 442 Q 346 419 329 405 Q 312 390 288 390 Q 278 390 269 393 L 216 164 L 216 164 L 214 156 L 214 156 L 198 160 L 198 160 L 200 168 L 200 168 L 215 230 L 215 230 L 161 230 L 161 230 L 107 148 L 107 148 L 97 134 L 97 134 L 80 134 L 0 134 L 0 150 L 0 150 L 0 166 L 0 166 L 0 281 L 0 281 Q 0 307 19 326 L 41 349 L 41 349 L 98 405 L 98 405 L 104 443 L 104 443 L 108 467 L 108 467 L 112 491 L 112 491 Q 112 491 112 491 Q 112 491 112 491 L 116 515 L 116 515 L 117 518 L 117 518 L 166 518 L 182 518 L 180 505 L 180 505 L 179 502 L 179 502 L 176 481 L 176 481 Q 176 481 176 481 Q 176 481 176 481 L 172 457 L 172 457 L 168 433 L 168 433 L 160 385 L 160 385 L 158 375 L 158 375 L 151 367 L 151 367 L 96 313 L 96 313 L 96 277 L 96 277 L 96 248 L 96 248 L 112 272 L 112 272 Z M 219 246 L 226 278 L 219 246 L 226 278 L 224 278 L 136 278 L 131 271 L 131 271 L 109 239 L 109 239 L 80 195 L 80 195 L 80 248 L 80 248 L 80 313 L 80 313 L 80 319 L 80 319 L 85 324 L 85 324 L 139 379 L 139 379 L 143 382 L 143 382 L 144 387 L 144 387 L 152 435 L 152 435 L 156 459 L 156 459 L 160 483 L 160 483 Q 160 483 160 483 Q 160 483 160 483 Q 160 483 160 483 Q 160 483 160 483 Q 160 483 160 483 Q 160 483 160 483 L 163 502 L 163 502 L 130 502 L 130 502 L 128 489 L 128 489 Q 128 489 128 489 Q 128 489 128 489 Q 128 489 128 489 Q 128 489 128 489 Q 128 489 128 489 Q 128 489 128 489 L 124 465 L 124 465 L 120 441 L 120 441 L 114 403 L 114 403 L 113 398 L 113 398 L 109 394 L 109 394 L 53 337 L 53 337 L 30 315 L 30 315 Q 16 301 16 281 L 16 166 L 16 166 L 16 150 L 16 150 L 32 150 L 89 150 L 93 157 L 93 157 L 148 239 L 148 239 L 153 246 L 153 246 L 161 246 L 219 246 Z M 0 353 L 0 486 L 0 353 L 0 486 L 0 502 L 0 502 L 0 518 L 0 518 L 16 518 L 64 518 L 64 502 L 64 502 L 64 486 L 64 486 L 64 454 L 64 454 L 64 417 L 64 417 L 48 401 L 48 401 L 48 486 L 48 486 L 48 502 L 48 502 L 16 502 L 16 502 L 16 486 L 16 486 L 16 369 L 16 369 L 0 353 L 0 353 Z M 288 406 Q 315 407 330 430 Q 342 454 330 478 Q 315 501 288 502 Q 261 501 246 478 Q 234 454 246 430 Q 261 407 288 406 L 288 406 Z" />
</svg>