<svg xmlns="http://www.w3.org/2000/svg" viewBox="0 0 637 512">
  <path d="M 317 496 Q 376 495 426 470 L 426 470 L 426 470 Q 476 444 509 400 L 529 400 L 529 400 Q 493 451 439 481 Q 384 511 317 512 Q 245 511 188 477 Q 130 443 96 385 Q 62 328 61 256 Q 61 220 70 187 L 6 19 L 6 19 L 0 5 L 0 5 L 15 8 L 15 8 L 173 45 L 173 45 Q 235 1 317 0 Q 403 1 469 50 Q 534 98 560 176 L 543 176 L 543 176 Q 517 105 457 61 Q 397 17 317 16 Q 249 17 194 50 Q 194 50 194 50 Q 194 50 194 50 Q 185 55 176 62 Q 176 62 176 62 Q 176 62 176 62 Q 112 109 87 187 Q 87 187 87 187 Q 87 187 87 187 Q 83 200 81 214 Q 81 214 81 214 Q 81 214 81 214 Q 77 235 77 256 Q 78 323 110 377 Q 142 431 196 463 Q 250 495 317 496 L 317 496 Z M 78 163 Q 103 100 156 57 L 126 50 L 126 50 Q 89 85 66 131 L 78 163 L 78 163 Z M 107 46 L 74 38 L 107 46 L 74 38 Q 58 57 46 79 L 58 111 L 58 111 Q 78 75 107 46 L 107 46 Z M 26 27 L 38 60 L 26 27 L 38 60 Q 47 47 57 34 L 26 27 L 26 27 Z M 196 220 L 192 227 L 196 220 L 192 227 L 178 219 L 178 219 L 182 212 L 182 212 Q 203 177 237 176 Q 270 177 292 212 L 296 219 L 296 219 L 282 227 L 282 227 L 278 220 L 278 220 Q 260 191 237 192 Q 213 191 196 220 L 196 220 Z M 356 220 L 352 227 L 356 220 L 352 227 L 338 219 L 338 219 L 342 212 L 342 212 Q 363 177 397 176 Q 430 177 452 212 L 456 219 L 456 219 L 442 227 L 442 227 L 438 220 L 438 220 Q 420 191 397 192 Q 373 191 356 220 L 356 220 Z M 340 280 L 341 272 L 340 280 L 341 272 Q 343 262 342 264 Q 342 264 342 264 Q 342 264 342 264 Q 342 264 342 264 L 343 264 L 343 264 L 343 264 L 343 264 Q 344 264 344 264 Q 345 264 345 265 Q 348 265 353 266 Q 363 269 376 274 Q 389 279 400 288 Q 412 296 413 312 Q 412 327 400 334 Q 398 335 397 336 L 621 336 L 621 336 L 621 224 L 621 224 L 525 224 L 525 224 L 525 288 L 525 288 L 573 288 L 581 288 L 581 304 L 581 304 L 573 304 L 509 304 L 509 296 L 509 296 L 509 216 L 509 216 L 509 208 L 509 208 L 517 208 L 637 208 L 637 216 L 637 216 L 637 344 L 637 344 L 637 352 L 637 352 L 629 352 L 397 352 Q 398 352 399 353 Q 399 353 400 354 Q 412 361 413 376 Q 412 392 400 402 Q 389 411 376 416 Q 363 420 353 422 Q 349 423 346 423 Q 345 423 345 424 Q 344 424 343 424 L 342 424 L 342 424 L 342 424 L 342 424 Q 342 424 342 424 Q 342 424 342 424 Q 342 424 342 424 Q 342 424 342 424 Q 342 424 342 424 Q 342 424 342 424 L 341 416 L 341 416 L 340 408 L 340 408 Q 340 408 340 408 Q 340 408 340 408 L 340 408 L 340 408 L 341 408 L 341 408 Q 341 408 342 408 Q 343 408 344 407 Q 346 407 349 406 Q 359 405 370 401 Q 382 396 390 390 Q 397 383 397 376 Q 397 372 390 367 Q 383 362 371 358 Q 359 355 350 353 Q 345 353 343 352 Q 342 352 342 352 Q 341 352 341 352 L 340 352 L 340 352 L 340 352 L 340 352 Q 340 352 340 352 Q 340 352 340 352 Q 340 352 340 352 Q 340 352 340 352 Q 340 352 340 352 Q 340 352 340 352 Q 340 352 340 352 Q 340 352 340 352 L 340 336 L 340 336 Q 340 336 340 336 Q 340 336 340 336 Q 340 336 340 336 Q 340 336 340 336 Q 340 336 340 336 Q 340 336 340 336 Q 340 336 340 336 Q 340 336 340 336 L 340 336 L 340 336 L 341 336 L 341 336 Q 341 336 342 336 Q 342 336 343 336 Q 344 336 346 335 Q 348 335 350 335 Q 359 333 371 330 Q 383 327 390 321 Q 397 316 397 312 Q 397 306 390 300 Q 382 293 370 289 Q 358 284 349 282 Q 348 282 348 282 Q 344 281 342 280 Q 341 280 341 280 Q 340 280 340 280 L 340 280 L 340 280 L 340 280 L 340 280 Q 340 280 340 280 Q 340 280 340 280 Q 340 280 340 280 Q 340 280 340 280 L 340 280 Z" />
</svg>