<svg xmlns="http://www.w3.org/2000/svg" viewBox="0 0 444 448">
  <path d="M 352 0 L 368 0 L 352 0 L 368 0 L 343 112 L 343 112 L 444 112 L 444 112 L 441 128 L 441 128 L 340 128 L 340 128 L 297 320 L 297 320 L 402 320 L 402 320 L 399 336 L 399 336 L 293 336 L 293 336 L 268 448 L 268 448 L 252 448 L 252 448 L 277 336 L 277 336 L 101 336 L 101 336 L 76 448 L 76 448 L 60 448 L 60 448 L 85 336 L 85 336 L 0 336 L 0 336 L 3 320 L 3 320 L 89 320 L 89 320 L 131 128 L 131 128 L 42 128 L 42 128 L 45 112 L 45 112 L 135 112 L 135 112 L 160 0 L 160 0 L 176 0 L 176 0 L 151 112 L 151 112 L 327 112 L 327 112 L 352 0 L 352 0 Z M 148 128 L 105 320 L 148 128 L 105 320 L 281 320 L 281 320 L 323 128 L 323 128 L 148 128 L 148 128 Z" />
</svg>