<svg xmlns="http://www.w3.org/2000/svg" viewBox="0 0 576 512">
  <path d="M 16 16 L 16 400 L 16 16 L 16 400 L 232 400 L 232 400 L 232 400 L 232 400 L 344 400 L 344 400 L 344 400 L 344 400 L 560 400 L 560 400 L 560 16 L 560 16 L 16 16 L 16 16 Z M 223 416 L 16 416 L 223 416 L 0 416 L 0 400 L 0 400 L 0 16 L 0 16 L 0 0 L 0 0 L 16 0 L 576 0 L 576 16 L 576 16 L 576 400 L 576 400 L 576 416 L 576 416 L 560 416 L 353 416 L 367 496 L 367 496 L 440 496 L 448 496 L 448 512 L 448 512 L 440 512 L 128 512 L 128 496 L 128 496 L 136 496 L 209 496 L 222 416 L 223 416 Z M 239 416 L 226 496 L 239 416 L 226 496 L 351 496 L 351 496 L 337 416 L 337 416 L 239 416 L 239 416 Z M 496 80 L 80 80 L 496 80 L 80 80 L 80 336 L 80 336 L 496 336 L 496 336 L 496 80 L 496 80 Z M 80 64 L 496 64 L 80 64 L 512 64 L 512 80 L 512 80 L 512 336 L 512 336 L 512 352 L 512 352 L 496 352 L 64 352 L 64 336 L 64 336 L 64 80 L 64 80 L 64 64 L 64 64 L 80 64 L 80 64 Z M 352 128 L 440 128 L 352 128 L 448 128 L 448 136 L 448 136 L 448 224 L 448 224 L 448 232 L 448 232 L 432 232 L 432 232 L 432 224 L 432 224 L 432 155 L 432 155 L 326 262 L 326 262 L 320 267 L 320 267 L 314 262 L 314 262 L 240 187 L 240 187 L 134 294 L 134 294 L 128 299 L 128 299 L 117 288 L 117 288 L 122 282 L 122 282 L 234 170 L 234 170 L 240 165 L 240 165 L 246 170 L 246 170 L 320 245 L 320 245 L 421 144 L 421 144 L 352 144 L 344 144 L 344 128 L 344 128 L 352 128 L 352 128 Z" />
</svg>