<svg xmlns="http://www.w3.org/2000/svg" viewBox="0 0 635 512">
  <path d="M 352 48 Q 353 28 366 14 L 366 14 L 366 14 Q 380 1 400 0 Q 420 1 434 14 Q 447 28 448 48 L 448 64 L 448 64 L 512 64 L 512 64 L 512 48 L 512 48 Q 513 28 526 14 Q 540 1 560 0 Q 580 1 594 14 Q 607 28 608 48 L 608 56 L 608 56 L 608 64 L 608 64 L 592 64 L 592 64 L 592 56 L 592 56 L 592 48 L 592 48 Q 592 34 583 25 Q 574 16 560 16 Q 546 16 537 25 Q 528 34 528 48 L 528 80 L 528 80 L 573 125 L 573 125 L 629 165 L 629 165 L 635 170 L 635 170 L 631 176 L 631 176 L 607 215 L 607 215 L 603 221 L 603 221 L 596 217 L 596 217 L 576 206 L 576 206 L 576 320 L 576 320 L 576 336 L 576 336 L 560 336 L 376 336 L 376 320 L 376 320 L 376 206 L 376 206 L 356 217 L 356 217 L 349 221 L 349 221 L 345 214 L 345 214 L 321 176 L 321 176 L 317 169 L 317 169 L 323 165 L 323 165 L 379 125 L 379 125 L 432 72 L 432 72 L 432 48 L 432 48 Q 432 34 423 25 Q 414 16 400 16 Q 386 16 377 25 Q 368 34 368 48 L 368 56 L 368 56 L 368 64 L 368 64 L 352 64 L 352 64 L 352 56 L 352 56 L 352 48 L 352 48 Z M 392 135 L 392 320 L 392 135 L 392 320 L 560 320 L 560 320 L 560 135 L 560 135 L 505 80 L 505 80 L 448 80 L 447 80 L 392 135 L 392 135 Z M 304 70 Q 315 62 328 58 L 328 75 L 328 75 Q 320 77 314 82 L 302 92 L 302 92 L 292 80 L 292 80 Q 278 65 256 64 Q 234 65 220 80 L 210 92 L 210 92 L 198 82 L 198 82 Q 185 72 168 72 Q 151 72 138 82 Q 126 93 121 109 L 118 123 L 118 123 L 103 121 L 103 121 Q 100 120 96 120 Q 76 120 62 134 Q 49 148 48 168 Q 48 174 49 180 L 52 192 L 52 192 L 41 198 L 41 198 Q 17 211 16 240 Q 17 269 41 282 L 52 288 L 52 288 L 49 300 L 49 300 Q 48 306 48 312 Q 49 332 62 346 Q 76 359 96 360 Q 100 360 103 359 L 118 357 L 118 357 L 121 371 L 121 371 Q 126 387 138 398 Q 151 408 168 408 Q 185 408 198 398 L 210 388 L 210 388 L 220 400 L 220 400 Q 234 415 256 416 Q 278 415 292 400 L 302 388 L 302 388 L 314 398 L 314 398 Q 327 408 344 408 Q 361 408 374 398 Q 386 387 391 371 L 391 368 L 391 368 L 447 368 L 447 368 Q 436 374 422 376 L 392 506 L 392 506 L 390 512 L 390 512 L 384 512 L 304 512 L 304 504 L 304 504 L 304 448 L 304 448 L 304 440 L 304 440 L 320 440 L 320 440 L 320 448 L 320 448 L 320 496 L 320 496 L 378 496 L 378 496 L 405 378 L 405 378 Q 399 398 383 411 Q 366 424 344 424 Q 321 424 304 410 Q 286 431 256 432 Q 226 431 208 410 Q 191 424 168 424 Q 146 424 129 411 Q 113 398 107 378 L 134 496 L 134 496 L 192 496 L 192 496 L 192 448 L 192 448 L 192 440 L 192 440 L 208 440 L 208 440 L 208 448 L 208 448 L 208 504 L 208 504 L 208 512 L 208 512 L 200 512 L 122 512 L 120 506 L 120 506 L 90 376 L 90 376 Q 65 373 49 355 Q 33 337 32 312 Q 32 304 34 297 Q 2 279 0 240 Q 2 201 34 184 Q 32 176 32 168 Q 33 141 51 123 Q 69 105 96 104 Q 101 104 106 105 Q 111 83 128 70 Q 145 56 168 56 Q 191 56 208 70 Q 226 49 256 48 Q 286 49 304 70 L 304 70 Z M 339 174 L 355 200 L 339 174 L 355 200 L 376 187 L 376 187 L 376 147 L 376 147 L 339 174 L 339 174 Z M 597 200 L 613 174 L 597 200 L 613 174 L 576 147 L 576 147 L 576 187 L 576 187 L 597 200 L 597 200 Z M 448 176 Q 463 177 464 192 Q 463 207 448 208 Q 433 207 432 192 Q 433 177 448 176 L 448 176 Z M 496 192 Q 497 177 512 176 Q 527 177 528 192 Q 527 207 512 208 Q 497 207 496 192 L 496 192 Z" />
</svg>