<svg xmlns="http://www.w3.org/2000/svg" viewBox="0 0 640 384">
  <path d="M 16 16 L 16 368 L 16 16 L 16 368 L 624 368 L 624 368 L 624 16 L 624 16 L 16 16 L 16 16 Z M 0 0 L 16 0 L 0 0 L 640 0 L 640 16 L 640 16 L 640 368 L 640 368 L 640 384 L 640 384 L 624 384 L 0 384 L 0 368 L 0 368 L 0 16 L 0 16 L 0 0 L 0 0 Z M 200 128 L 200 184 L 200 128 L 200 184 L 256 184 L 264 184 L 264 200 L 264 200 L 256 200 L 200 200 L 200 256 L 200 256 L 200 264 L 200 264 L 184 264 L 184 264 L 184 256 L 184 256 L 184 200 L 184 200 L 128 200 L 120 200 L 120 184 L 120 184 L 128 184 L 184 184 L 184 128 L 184 128 L 184 120 L 184 120 L 200 120 L 200 120 L 200 128 L 200 128 Z M 392 240 Q 393 217 412 205 Q 432 195 452 205 Q 471 217 472 240 Q 471 263 452 275 Q 432 285 412 275 Q 393 263 392 240 L 392 240 Z M 432 264 Q 454 262 456 240 Q 454 218 432 216 Q 410 218 408 240 Q 410 262 432 264 L 432 264 Z M 496 104 Q 519 105 531 124 Q 541 144 531 164 Q 519 183 496 184 Q 473 183 461 164 Q 451 144 461 124 Q 473 105 496 104 L 496 104 Z M 520 144 Q 518 122 496 120 Q 474 122 472 144 Q 474 166 496 168 Q 518 166 520 144 L 520 144 Z" />
</svg>