<svg xmlns="http://www.w3.org/2000/svg" viewBox="0 0 507 512">
  <path d="M 327 0 L 315 0 L 327 0 L 299 0 L 299 32 L 299 32 L 315 32 L 327 32 Q 353 33 365 55 L 393 41 L 393 41 Q 372 2 327 0 L 327 0 Z M 136 23 L 119 40 L 136 23 L 119 40 L 63 97 L 63 97 L 46 114 L 46 114 L 63 131 L 63 131 L 68 137 L 68 137 L 29 176 L 29 176 L 12 193 L 12 193 L 29 210 L 29 210 L 57 239 L 57 239 L 18 278 L 18 278 L 0 295 L 0 295 L 18 312 L 18 312 L 159 454 L 159 454 Q 218 511 300 512 L 307 512 L 310 512 Q 310 512 310 512 Q 310 512 310 512 Q 394 509 449 453 Q 505 396 507 312 L 507 306 L 507 306 L 507 306 L 507 306 L 507 148 L 507 148 L 507 108 L 507 108 L 507 84 L 507 84 L 483 84 L 379 84 L 379 108 L 379 108 L 379 148 L 379 148 L 379 153 L 379 153 L 248 23 L 248 23 L 231 6 L 231 6 L 214 23 L 214 23 L 175 62 L 175 62 L 153 40 L 153 40 L 136 23 L 136 23 Z M 458 327 Q 451 386 410 424 L 410 424 L 410 424 Q 368 463 307 464 Q 304 464 301 464 L 291 464 L 291 464 L 291 464 L 291 464 Q 234 460 193 420 L 68 295 L 68 295 L 91 272 L 91 272 L 97 278 L 97 278 L 153 335 L 153 335 L 170 352 L 170 352 L 204 318 L 204 318 L 187 301 L 187 301 L 131 244 L 131 244 L 114 227 L 114 227 Q 114 227 114 227 Q 114 227 114 227 L 108 221 L 108 221 L 80 193 L 80 193 L 102 171 L 102 171 L 114 182 L 114 182 L 210 278 L 210 278 L 227 295 L 227 295 L 261 261 L 261 261 L 244 244 L 244 244 L 148 148 L 148 148 L 131 131 L 131 131 L 119 120 L 119 120 L 114 114 L 114 114 L 136 91 L 136 91 L 158 113 L 158 113 L 175 130 L 175 130 Q 175 130 175 130 Q 175 130 175 130 L 266 222 L 266 222 L 283 239 L 283 239 L 317 205 L 317 205 L 300 188 L 300 188 L 209 96 L 209 96 L 231 73 L 231 73 L 382 224 L 382 224 L 427 224 L 427 224 L 427 211 L 427 211 L 427 148 L 427 148 L 427 132 L 427 132 L 459 132 L 459 132 L 459 148 L 459 148 L 459 306 L 459 306 Q 459 308 459 311 L 458 327 L 458 327 Z M 43 398 L 41 382 L 43 398 L 41 382 L 9 386 L 9 386 L 11 402 L 11 402 L 12 411 L 12 411 Q 17 438 35 456 Q 53 474 80 479 L 89 480 L 89 480 L 105 482 L 105 482 L 109 450 L 109 450 L 93 448 L 93 448 L 85 447 L 85 447 Q 51 440 44 406 L 43 398 L 43 398 Z" />
</svg>