<svg xmlns="http://www.w3.org/2000/svg" viewBox="0 0 454 454">
  <path d="M 11 0 L 17 5 L 11 0 L 17 5 L 179 168 L 179 168 L 179 43 L 179 43 L 179 35 L 179 35 L 195 35 L 195 35 L 195 43 L 195 43 L 195 187 L 195 187 L 195 195 L 195 195 L 187 195 L 35 195 L 35 179 L 35 179 L 43 179 L 168 179 L 5 17 L 5 17 L 0 11 L 0 11 L 11 0 L 11 0 Z M 454 11 L 449 17 L 454 11 L 449 17 L 286 179 L 286 179 L 411 179 L 419 179 L 419 195 L 419 195 L 411 195 L 259 195 L 259 187 L 259 187 L 259 43 L 259 43 L 259 35 L 259 35 L 275 35 L 275 35 L 275 43 L 275 43 L 275 168 L 275 168 L 437 5 L 437 5 L 443 0 L 443 0 L 454 11 L 454 11 Z M 35 259 L 43 259 L 35 259 L 195 259 L 195 267 L 195 267 L 195 411 L 195 411 L 195 419 L 195 419 L 179 419 L 179 419 L 179 411 L 179 411 L 179 286 L 179 286 L 17 449 L 17 449 L 11 454 L 11 454 L 0 443 L 0 443 L 5 437 L 5 437 L 168 275 L 168 275 L 43 275 L 35 275 L 35 259 L 35 259 Z M 259 259 L 267 259 L 259 259 L 419 259 L 419 275 L 419 275 L 411 275 L 286 275 L 449 437 L 449 437 L 454 443 L 454 443 L 443 454 L 443 454 L 437 449 L 437 449 L 275 286 L 275 286 L 275 411 L 275 411 L 275 419 L 275 419 L 259 419 L 259 419 L 259 411 L 259 411 L 259 267 L 259 267 L 259 259 L 259 259 Z" />
</svg>