<svg xmlns="http://www.w3.org/2000/svg" viewBox="0 0 448 512">
  <path d="M 80 167 Q 82 102 122 60 L 122 60 L 122 60 Q 163 18 224 16 Q 285 18 326 60 Q 366 102 368 167 Q 367 207 345 243 Q 323 280 293 309 Q 263 338 239 354 Q 230 361 224 365 Q 218 361 208 354 Q 185 338 155 309 Q 125 280 103 243 Q 81 207 80 167 L 80 167 Z M 224 0 Q 156 2 111 49 L 111 49 L 111 49 Q 66 96 64 167 Q 67 227 105 276 Q 144 325 183 354 Q 221 383 224 384 Q 227 383 265 354 Q 304 325 343 276 Q 381 227 384 167 Q 382 96 337 49 Q 292 2 224 0 L 224 0 Z M 388 368 L 427 496 L 388 368 L 427 496 L 22 496 L 22 496 L 60 368 L 60 368 L 149 368 L 149 368 Q 140 361 131 352 L 48 352 L 48 352 L 5 496 L 5 496 L 0 512 L 0 512 L 17 512 L 448 512 L 443 496 L 443 496 L 400 352 L 400 352 L 317 352 L 317 352 Q 308 361 299 368 L 388 368 L 388 368 Z M 208 240 Q 207 213 189 195 L 189 195 L 189 195 Q 171 177 144 176 L 120 176 L 112 176 L 112 184 L 112 184 L 112 192 L 112 192 Q 113 219 131 237 Q 149 255 176 256 L 200 256 L 208 256 L 208 248 L 208 248 L 208 240 L 208 240 Z M 144 192 Q 164 193 178 206 L 178 206 L 178 206 Q 191 220 192 240 L 176 240 L 176 240 Q 156 239 142 226 Q 129 212 128 192 L 144 192 L 144 192 Z M 304 176 Q 277 177 259 195 L 259 195 L 259 195 Q 241 213 240 240 L 240 248 L 240 248 L 240 256 L 240 256 L 248 256 L 272 256 Q 299 255 317 237 Q 335 219 336 192 L 336 184 L 336 184 L 336 176 L 336 176 L 328 176 L 304 176 Z M 256 240 Q 257 220 270 206 L 270 206 L 270 206 Q 284 193 304 192 L 320 192 L 320 192 Q 319 212 306 226 Q 292 239 272 240 L 256 240 L 256 240 Z" />
</svg>