<svg xmlns="http://www.w3.org/2000/svg" viewBox="0 0 640 512">
  <path d="M 204 0 L 212 0 L 204 0 L 254 0 L 256 22 L 256 22 Q 259 47 277 63 Q 294 79 320 80 Q 346 79 363 63 Q 381 47 384 22 L 386 0 L 386 0 L 408 0 L 436 0 L 443 6 L 443 6 L 452 13 L 452 13 L 596 133 L 596 133 L 621 154 L 621 154 L 640 170 L 640 170 L 624 188 L 624 188 L 602 213 L 602 213 L 546 277 L 546 277 L 526 300 L 526 300 L 510 318 L 510 318 L 492 303 L 492 303 L 480 293 L 480 293 L 480 488 L 480 488 L 480 512 L 480 512 L 456 512 L 160 512 L 160 488 L 160 488 L 160 293 L 160 293 L 148 303 L 148 303 L 130 318 L 130 318 L 114 300 L 114 300 L 94 277 L 94 277 L 38 213 L 38 213 L 16 188 L 16 188 L 0 170 L 0 170 L 19 154 L 19 154 L 44 133 L 44 133 L 188 13 L 188 13 L 197 6 L 197 6 L 204 0 L 204 0 Z M 214 54 L 75 170 L 214 54 L 75 170 L 69 175 L 69 175 L 74 181 L 74 181 L 130 245 L 130 245 L 135 251 L 135 251 L 141 246 L 141 246 L 169 223 L 169 223 L 208 190 L 208 190 L 208 242 L 208 242 L 208 464 L 208 464 L 432 464 L 432 464 L 432 242 L 432 242 L 432 191 L 432 191 L 471 223 L 471 223 L 499 246 L 499 246 L 505 251 L 505 251 L 510 245 L 510 245 L 566 181 L 566 181 L 571 175 L 571 175 L 565 170 L 565 170 L 426 54 L 426 54 Q 413 87 385 107 Q 357 127 320 128 Q 283 127 255 107 Q 227 87 215 54 L 214 54 Z" />
</svg>