<svg xmlns="http://www.w3.org/2000/svg" viewBox="0 0 448 512">
  <path d="M 64 352 L 224 512 L 64 352 L 224 512 L 384 352 L 384 352 L 384 320 L 384 320 L 288 320 L 288 320 L 288 160 L 288 160 L 160 160 L 160 160 L 160 320 L 160 320 L 64 320 L 64 320 L 64 352 L 64 352 Z M 64 160 L 64 64 L 64 160 L 64 64 L 384 64 L 384 64 L 384 160 L 384 160 L 384 192 L 384 192 L 448 192 L 448 192 L 448 160 L 448 160 L 448 32 L 448 32 L 448 0 L 448 0 L 416 0 L 0 0 L 0 32 L 0 32 L 0 160 L 0 160 L 0 192 L 0 192 L 64 192 L 64 192 L 64 160 L 64 160 Z" />
</svg>