<svg xmlns="http://www.w3.org/2000/svg" viewBox="0 0 538 512">
  <path d="M 278 17 L 356 164 L 278 17 L 356 164 L 519 192 L 519 192 L 538 196 L 538 196 L 525 210 L 525 210 L 409 329 L 409 329 L 433 493 L 433 493 L 435 512 L 435 512 L 418 504 L 418 504 L 269 438 L 269 438 L 120 504 L 120 504 L 103 512 L 103 512 L 105 493 L 105 493 L 129 329 L 129 329 L 13 210 L 13 210 L 0 196 L 0 196 L 19 192 L 19 192 L 183 164 L 183 164 L 260 17 L 260 17 L 269 0 L 269 0 L 278 17 L 278 17 Z M 353 180 L 345 178 L 353 180 L 345 178 L 341 171 L 341 171 L 269 34 L 269 34 L 197 171 L 197 171 L 193 178 L 193 178 L 185 180 L 185 180 L 33 206 L 33 206 L 141 317 L 141 317 L 146 323 L 146 323 L 145 331 L 145 331 L 123 486 L 123 486 L 263 424 L 263 424 L 269 421 L 269 421 L 276 424 L 276 424 L 415 486 L 415 486 L 393 331 L 393 331 L 392 323 L 392 323 L 398 317 L 398 317 L 506 206 L 506 206 L 353 180 L 353 180 Z M 277 152 L 277 160 L 277 152 L 277 160 L 277 296 L 277 296 L 277 304 L 277 304 L 261 304 L 261 304 L 261 296 L 261 296 L 261 160 L 261 160 L 261 152 L 261 152 L 277 152 L 277 152 Z M 253 336 L 285 336 L 253 336 L 285 336 L 285 368 L 285 368 L 253 368 L 253 368 L 253 336 L 253 336 Z" />
</svg>