<svg xmlns="http://www.w3.org/2000/svg" viewBox="0 0 576 320">
  <path d="M 512 320 L 240 320 L 512 320 L 240 320 L 260 304 L 260 304 L 512 304 L 512 304 L 512 224 L 512 224 L 512 208 L 512 208 L 512 112 L 512 112 L 512 96 L 512 96 L 512 16 L 512 16 L 369 16 L 369 16 L 373 0 L 373 0 L 512 0 L 528 0 L 528 16 L 528 16 L 528 96 L 528 96 L 560 96 L 576 96 L 576 112 L 576 112 L 576 208 L 576 208 L 576 224 L 576 224 L 560 224 L 528 224 L 528 304 L 528 304 L 528 320 L 528 320 L 512 320 L 512 320 Z M 16 16 L 16 304 L 16 16 L 16 304 L 175 304 L 175 304 L 171 320 L 171 320 L 16 320 L 0 320 L 0 304 L 0 304 L 0 16 L 0 16 L 0 0 L 0 0 L 16 0 L 304 0 L 284 16 L 284 16 L 16 16 L 16 16 Z M 560 112 L 528 112 L 560 112 L 528 112 L 528 208 L 528 208 L 560 208 L 560 208 L 560 112 L 560 112 Z M 214 279 L 236 192 L 214 279 L 236 192 L 240 176 L 240 176 L 224 176 L 160 176 L 160 160 L 160 160 L 160 152 L 160 152 L 316 32 L 316 32 L 336 16 L 336 16 L 330 41 L 330 41 L 308 128 L 308 128 L 304 144 L 304 144 L 321 144 L 384 144 L 384 160 L 384 160 L 384 168 L 384 168 L 228 288 L 228 288 L 208 304 L 208 304 L 214 279 L 214 279 Z M 240 160 L 261 160 L 240 160 L 261 160 L 256 180 L 256 180 L 235 263 L 235 263 L 368 160 L 368 160 L 368 160 L 368 160 L 304 160 L 284 160 L 289 140 L 289 140 L 309 57 L 309 57 L 176 160 L 176 160 L 176 160 L 176 160 L 240 160 L 240 160 Z" />
</svg>