<svg xmlns="http://www.w3.org/2000/svg" viewBox="0 0 576 448">
  <path d="M 560 16 L 560 432 L 560 16 L 560 432 L 16 432 L 16 432 L 16 16 L 16 16 L 560 16 L 560 16 Z M 16 0 L 0 0 L 16 0 L 0 0 L 0 16 L 0 16 L 0 432 L 0 432 L 0 448 L 0 448 L 16 448 L 576 448 L 576 432 L 576 432 L 576 16 L 576 16 L 576 0 L 576 0 L 560 0 L 16 0 Z M 320 128 L 320 136 L 320 128 L 320 136 L 320 312 L 320 312 L 320 320 L 320 320 L 328 320 L 384 320 Q 425 319 452 292 Q 479 265 480 224 Q 479 183 452 156 Q 425 129 384 128 L 328 128 L 320 128 Z M 384 144 Q 418 145 441 167 L 441 167 L 441 167 Q 463 190 464 224 Q 463 258 441 281 Q 418 303 384 304 L 336 304 L 336 304 L 336 144 L 336 144 L 384 144 L 384 144 Z M 128 136 L 128 128 L 128 136 L 128 128 L 112 128 L 112 128 L 112 136 L 112 136 L 112 224 L 112 224 L 112 312 L 112 312 L 112 320 L 112 320 L 128 320 L 128 320 L 128 312 L 128 312 L 128 232 L 128 232 L 256 232 L 256 232 L 256 312 L 256 312 L 256 320 L 256 320 L 272 320 L 272 320 L 272 312 L 272 312 L 272 224 L 272 224 L 272 136 L 272 136 L 272 128 L 272 128 L 256 128 L 256 128 L 256 136 L 256 136 L 256 216 L 256 216 L 128 216 L 128 216 L 128 136 L 128 136 Z" />
</svg>