<svg xmlns="http://www.w3.org/2000/svg" viewBox="0 0 448 448">
  <path d="M 16 432 L 432 432 L 16 432 L 432 432 L 432 16 L 432 16 L 16 16 L 16 16 L 16 432 L 16 432 Z M 0 448 L 0 432 L 0 448 L 0 432 L 0 16 L 0 16 L 0 0 L 0 0 L 16 0 L 448 0 L 448 16 L 448 16 L 448 432 L 448 432 L 448 448 L 448 448 L 432 448 L 0 448 Z M 138 218 L 258 98 L 138 218 L 258 98 L 264 93 L 264 93 L 275 104 L 275 104 L 270 110 L 270 110 L 155 224 L 155 224 L 270 338 L 270 338 L 275 344 L 275 344 L 264 355 L 264 355 L 258 350 L 258 350 L 138 230 L 138 230 L 133 224 L 133 224 L 138 218 L 138 218 Z" />
</svg>