<svg xmlns="http://www.w3.org/2000/svg" viewBox="0 0 448 512">
  <path d="M 432 416 L 432 16 L 432 416 L 432 16 L 215 16 L 215 16 L 96 135 L 96 135 L 96 416 L 96 416 L 432 416 L 432 416 Z M 99 109 L 208 0 L 99 109 L 208 0 L 432 0 L 448 0 L 448 16 L 448 16 L 448 416 L 448 416 L 448 432 L 448 432 L 432 432 L 80 432 L 80 416 L 80 416 L 80 128 L 80 128 L 99 109 L 99 109 Q 99 109 99 109 Q 99 109 99 109 L 99 109 Z M 248 72 L 248 80 L 248 72 L 248 80 L 248 144 L 248 144 L 248 152 L 248 152 L 232 152 L 232 152 L 232 144 L 232 144 L 232 80 L 232 80 L 232 72 L 232 72 L 248 72 L 248 72 Z M 312 72 L 312 80 L 312 72 L 312 80 L 312 144 L 312 144 L 312 152 L 312 152 L 296 152 L 296 152 L 296 144 L 296 144 L 296 80 L 296 80 L 296 72 L 296 72 L 312 72 L 312 72 Z M 376 72 L 376 80 L 376 72 L 376 80 L 376 144 L 376 144 L 376 152 L 376 152 L 360 152 L 360 152 L 360 144 L 360 144 L 360 80 L 360 80 L 360 72 L 360 72 L 376 72 L 376 72 Z M 0 208 L 48 160 L 0 208 L 48 160 L 48 183 L 48 183 L 16 215 L 16 215 L 16 496 L 16 496 L 352 496 L 352 496 L 352 464 L 352 464 L 368 464 L 368 464 L 368 496 L 368 496 L 368 512 L 368 512 L 352 512 L 0 512 L 0 496 L 0 496 L 0 208 L 0 208 Z" />
</svg>