<svg xmlns="http://www.w3.org/2000/svg" viewBox="0 0 512 512">
  <path d="M 224 304 L 208 304 L 224 304 L 208 304 L 208 288 L 208 288 L 208 224 L 208 224 L 208 208 L 208 208 L 208 128 L 208 128 L 208 112 L 208 112 L 208 16 L 208 16 L 208 0 L 208 0 L 192 0 L 0 0 L 0 16 L 0 16 L 0 304 L 0 304 L 0 496 L 0 496 L 0 512 L 0 512 L 16 512 L 512 512 L 512 496 L 512 496 L 512 320 L 512 320 L 512 304 L 512 304 L 496 304 L 224 304 Z M 384 320 L 384 408 L 384 320 L 384 408 L 384 416 L 384 416 L 400 416 L 400 416 L 400 408 L 400 408 L 400 320 L 400 320 L 496 320 L 496 320 L 496 496 L 496 496 L 208 496 L 16 496 L 16 304 L 16 304 L 16 16 L 16 16 L 192 16 L 192 16 L 192 112 L 192 112 L 104 112 L 96 112 L 96 128 L 96 128 L 104 128 L 192 128 L 192 208 L 192 208 L 104 208 L 96 208 L 96 224 L 96 224 L 104 224 L 192 224 L 192 304 L 192 304 L 104 304 L 96 304 L 96 320 L 96 320 L 104 320 L 192 320 L 192 408 L 192 408 L 192 416 L 192 416 L 208 416 L 208 416 L 208 408 L 208 408 L 208 320 L 208 320 L 288 320 L 288 320 L 288 408 L 288 408 L 288 416 L 288 416 L 304 416 L 304 416 L 304 408 L 304 408 L 304 320 L 304 320 L 384 320 L 384 320 Z" />
</svg>