<svg xmlns="http://www.w3.org/2000/svg" viewBox="0 0 512 512">
  <path d="M 496 256 Q 495 189 463 135 L 463 135 L 463 135 Q 431 81 377 49 L 377 49 L 377 49 Q 323 17 256 16 L 248 16 L 248 16 L 248 0 L 248 0 L 256 0 L 256 0 Q 328 1 385 35 Q 443 69 477 127 Q 511 184 512 256 Q 511 328 477 385 Q 443 443 385 477 Q 328 511 256 512 L 248 512 L 248 512 L 248 496 L 248 496 L 256 496 L 256 496 Q 323 495 377 463 Q 431 431 463 377 Q 495 323 496 256 L 496 256 Z M 197 122 L 349 250 L 197 122 L 349 250 L 357 256 L 357 256 L 349 262 L 349 262 L 197 390 L 197 390 L 191 395 L 191 395 L 181 383 L 181 383 L 187 378 L 187 378 L 322 264 L 322 264 L 8 264 L 0 264 L 0 248 L 0 248 L 8 248 L 322 248 L 187 134 L 187 134 L 181 129 L 181 129 L 191 117 L 191 117 L 197 122 L 197 122 Z" />
</svg>