<svg xmlns="http://www.w3.org/2000/svg" viewBox="0 0 448 448">
  <path d="M 112 16 L 112 112 L 112 16 L 112 112 L 16 112 L 16 112 L 16 16 L 16 16 L 112 16 L 112 16 Z M 16 0 L 0 0 L 16 0 L 0 0 L 0 16 L 0 16 L 0 112 L 0 112 L 0 128 L 0 128 L 16 128 L 128 128 L 128 112 L 128 112 L 128 16 L 128 16 L 128 0 L 128 0 L 112 0 L 16 0 Z M 112 176 L 112 272 L 112 176 L 112 272 L 16 272 L 16 272 L 16 176 L 16 176 L 112 176 L 112 176 Z M 16 160 L 0 160 L 16 160 L 0 160 L 0 176 L 0 176 L 0 272 L 0 272 L 0 288 L 0 288 L 16 288 L 128 288 L 128 272 L 128 272 L 128 176 L 128 176 L 128 160 L 128 160 L 112 160 L 16 160 Z M 16 336 L 112 336 L 16 336 L 112 336 L 112 432 L 112 432 L 16 432 L 16 432 L 16 336 L 16 336 Z M 0 320 L 0 336 L 0 320 L 0 336 L 0 432 L 0 432 L 0 448 L 0 448 L 16 448 L 128 448 L 128 432 L 128 432 L 128 336 L 128 336 L 128 320 L 128 320 L 112 320 L 0 320 Z M 272 16 L 272 112 L 272 16 L 272 112 L 176 112 L 176 112 L 176 16 L 176 16 L 272 16 L 272 16 Z M 176 0 L 160 0 L 176 0 L 160 0 L 160 16 L 160 16 L 160 112 L 160 112 L 160 128 L 160 128 L 176 128 L 288 128 L 288 112 L 288 112 L 288 16 L 288 16 L 288 0 L 288 0 L 272 0 L 176 0 Z M 176 176 L 272 176 L 176 176 L 272 176 L 272 272 L 272 272 L 176 272 L 176 272 L 176 176 L 176 176 Z M 160 160 L 160 176 L 160 160 L 160 176 L 160 272 L 160 272 L 160 288 L 160 288 L 176 288 L 288 288 L 288 272 L 288 272 L 288 176 L 288 176 L 288 160 L 288 160 L 272 160 L 160 160 Z M 272 336 L 272 432 L 272 336 L 272 432 L 176 432 L 176 432 L 176 336 L 176 336 L 272 336 L 272 336 Z M 176 320 L 160 320 L 176 320 L 160 320 L 160 336 L 160 336 L 160 432 L 160 432 L 160 448 L 160 448 L 176 448 L 288 448 L 288 432 L 288 432 L 288 336 L 288 336 L 288 320 L 288 320 L 272 320 L 176 320 Z M 336 16 L 432 16 L 336 16 L 432 16 L 432 112 L 432 112 L 336 112 L 336 112 L 336 16 L 336 16 Z M 320 0 L 320 16 L 320 0 L 320 16 L 320 112 L 320 112 L 320 128 L 320 128 L 336 128 L 448 128 L 448 112 L 448 112 L 448 16 L 448 16 L 448 0 L 448 0 L 432 0 L 320 0 Z M 432 176 L 432 272 L 432 176 L 432 272 L 336 272 L 336 272 L 336 176 L 336 176 L 432 176 L 432 176 Z M 336 160 L 320 160 L 336 160 L 320 160 L 320 176 L 320 176 L 320 272 L 320 272 L 320 288 L 320 288 L 336 288 L 448 288 L 448 272 L 448 272 L 448 176 L 448 176 L 448 160 L 448 160 L 432 160 L 336 160 Z M 336 336 L 432 336 L 336 336 L 432 336 L 432 432 L 432 432 L 336 432 L 336 432 L 336 336 L 336 336 Z M 320 320 L 320 336 L 320 320 L 320 336 L 320 432 L 320 432 L 320 448 L 320 448 L 336 448 L 448 448 L 448 432 L 448 432 L 448 336 L 448 336 L 448 320 L 448 320 L 432 320 L 320 320 Z" />
</svg>