<svg xmlns="http://www.w3.org/2000/svg" viewBox="0 0 512 512">
  <path d="M 94 0 Q 54 1 27 27 L 27 27 L 27 27 Q 1 54 0 94 Q 0 122 15 144 L 19 151 L 19 151 L 32 142 L 32 142 L 28 135 L 28 135 Q 16 117 16 94 Q 17 61 39 39 Q 61 17 94 16 Q 125 17 147 37 L 152 42 L 152 42 L 163 30 L 163 30 L 157 25 L 157 25 Q 131 1 94 0 L 94 0 Z M 54 502 L 103 452 L 54 502 L 103 452 Q 165 510 256 512 Q 347 510 409 452 L 458 502 L 458 502 L 464 507 L 464 507 L 475 496 L 475 496 L 470 490 L 470 490 L 420 441 L 420 441 Q 478 379 480 288 Q 479 225 449 175 Q 420 124 369 95 Q 319 65 256 64 Q 193 65 143 95 Q 92 124 63 175 Q 33 225 32 288 Q 34 379 92 441 L 42 490 L 42 490 L 37 496 L 37 496 L 48 507 L 48 507 L 54 502 L 54 502 Z M 256 80 Q 313 80 360 108 L 360 108 L 360 108 Q 407 135 436 184 Q 464 233 464 288 Q 464 343 436 392 Q 407 441 360 468 Q 313 496 256 496 Q 199 496 152 468 Q 105 441 76 392 Q 48 343 48 288 Q 48 233 76 184 Q 105 135 152 108 Q 199 80 256 80 L 256 80 Z M 341 362 L 264 300 L 341 362 L 264 300 L 264 168 L 264 168 L 264 160 L 264 160 Q 264 160 264 160 Q 264 160 264 160 L 248 160 L 248 160 Q 248 160 248 160 Q 248 160 248 160 L 248 168 L 248 168 L 248 304 L 248 304 L 248 308 L 248 308 Q 248 308 248 308 Q 248 308 248 308 L 251 310 L 251 310 Q 251 310 251 310 Q 251 310 251 310 L 331 374 L 331 374 Q 331 374 331 374 Q 331 374 331 374 L 337 379 L 337 379 Q 337 379 337 379 Q 337 379 337 379 L 347 367 L 347 367 Q 347 367 347 367 Q 347 367 347 367 L 341 362 L 341 362 Q 341 362 341 362 Q 341 362 341 362 L 341 362 Z M 355 25 L 349 30 L 355 25 L 349 30 L 360 42 L 360 42 L 366 37 L 366 37 Q 387 17 418 16 Q 451 17 473 39 Q 495 61 496 94 Q 496 117 484 135 L 480 142 L 480 142 L 493 151 L 493 151 L 497 144 L 497 144 Q 512 122 512 94 Q 511 54 485 27 Q 458 1 418 0 Q 381 1 355 25 L 355 25 Z" />
</svg>