<svg xmlns="http://www.w3.org/2000/svg" viewBox="0 0 480 462">
  <path d="M 353 118 Q 379 145 391 178 L 451 156 L 451 156 Q 435 110 398 73 Q 353 29 297 14 Q 240 0 183 14 Q 126 29 81 73 Q 81 73 81 73 Q 81 73 81 73 L 24 15 L 24 15 L 0 39 L 0 39 L 0 199 L 0 199 L 160 199 L 160 199 L 184 175 L 184 175 L 127 118 L 127 118 Q 127 118 127 118 Q 127 118 127 118 Q 176 71 240 71 Q 304 71 353 118 L 353 118 Z M 353 344 Q 304 391 240 391 L 240 391 L 240 391 Q 176 391 127 344 Q 100 318 89 284 L 29 306 L 29 306 Q 45 352 81 389 Q 126 433 183 448 Q 240 462 297 448 Q 353 433 398 389 Q 398 389 398 389 L 456 447 L 456 447 L 480 423 L 480 423 L 480 263 L 480 263 L 320 263 L 320 263 L 296 287 L 296 287 L 353 344 L 353 344 Z" />
</svg>