<svg xmlns="http://www.w3.org/2000/svg" viewBox="0 0 384 512">
  <path d="M 16 16 L 16 496 L 16 16 L 16 496 L 144 496 L 144 496 L 144 384 L 144 384 L 144 368 L 144 368 L 160 368 L 240 368 L 240 384 L 240 384 L 240 496 L 240 496 L 368 496 L 368 496 L 368 16 L 368 16 L 16 16 L 16 16 Z M 160 496 L 224 496 L 160 496 L 224 496 L 224 384 L 224 384 L 160 384 L 160 384 L 160 496 L 160 496 Z M 144 512 L 16 512 L 144 512 L 0 512 L 0 496 L 0 496 L 0 16 L 0 16 L 0 0 L 0 0 L 16 0 L 384 0 L 384 16 L 384 16 L 384 496 L 384 496 L 384 512 L 384 512 L 368 512 L 144 512 Z M 80 232 L 144 232 L 80 232 L 152 232 L 152 240 L 152 240 L 152 304 L 152 304 L 152 312 L 152 312 L 144 312 L 72 312 L 72 304 L 72 304 L 72 240 L 72 240 L 72 232 L 72 232 L 80 232 L 80 232 Z M 88 296 L 136 296 L 88 296 L 136 296 L 136 248 L 136 248 L 88 248 L 88 248 L 88 296 L 88 296 Z M 232 232 L 240 232 L 232 232 L 312 232 L 312 240 L 312 240 L 312 304 L 312 304 L 312 312 L 312 312 L 304 312 L 232 312 L 232 304 L 232 304 L 232 240 L 232 240 L 232 232 L 232 232 Z M 248 248 L 248 296 L 248 248 L 248 296 L 296 296 L 296 296 L 296 248 L 296 248 L 248 248 L 248 248 Z M 104 64 L 104 128 L 104 64 L 104 128 Q 106 150 128 152 Q 150 150 152 128 L 152 64 L 152 64 L 152 56 L 152 56 L 168 56 L 168 56 L 168 64 L 168 64 L 168 128 L 168 128 Q 168 145 156 156 Q 145 168 128 168 Q 111 168 100 156 Q 88 145 88 128 L 88 64 L 88 64 L 88 56 L 88 56 L 104 56 L 104 56 L 104 64 L 104 64 Z M 224 56 L 232 56 L 224 56 L 237 56 L 239 60 L 239 60 L 280 142 L 280 142 L 280 64 L 280 64 L 280 56 L 280 56 L 296 56 L 296 56 L 296 64 L 296 64 L 296 160 L 296 160 L 296 168 L 296 168 L 288 168 L 275 168 L 273 164 L 273 164 L 232 82 L 232 82 L 232 160 L 232 160 L 232 168 L 232 168 L 216 168 L 216 168 L 216 160 L 216 160 L 216 64 L 216 64 L 216 56 L 216 56 L 224 56 L 224 56 Z" />
</svg>