<svg xmlns="http://www.w3.org/2000/svg" viewBox="0 0 640 512">
  <path d="M 320 16 Q 409 18 473 71 L 473 71 L 473 71 Q 538 125 556 210 L 571 206 L 571 206 Q 552 116 484 59 Q 415 2 320 0 Q 225 2 156 59 Q 88 116 69 207 L 85 210 L 85 210 Q 102 125 167 71 Q 231 18 320 16 L 320 16 Z M 259 488 L 255 504 L 259 488 L 255 504 Q 286 512 320 512 Q 354 512 385 504 L 381 488 L 381 488 Q 352 496 320 496 Q 288 496 259 488 L 259 488 Z M 256 365 L 256 338 L 256 365 L 256 338 L 256 318 L 256 318 L 256 302 L 256 302 L 240 302 L 184 302 L 184 315 L 184 315 L 127 257 L 127 257 L 115 246 L 115 246 L 104 235 L 104 235 L 93 246 L 93 246 L 72 267 L 72 267 L 67 262 L 67 262 L 56 251 L 56 251 L 45 262 L 45 262 L 22 285 L 22 285 L 11 296 L 11 296 L 22 307 L 22 307 L 27 312 L 27 312 L 6 333 L 6 333 L 0 339 L 0 339 L 0 349 L 0 349 L 6 355 L 6 355 L 17 367 L 17 367 L 27 376 L 27 376 L 6 397 L 6 397 L 0 403 L 0 403 L 0 413 L 0 413 L 6 419 L 6 419 L 17 431 L 17 431 L 66 479 L 66 479 Q 99 511 144 512 L 145 512 L 145 512 Q 192 511 224 479 Q 255 448 256 401 L 256 388 L 256 388 L 256 383 L 256 383 Q 283 399 320 400 Q 357 399 384 383 L 384 388 L 384 388 L 384 401 L 384 401 Q 385 448 416 479 Q 448 511 495 512 L 496 512 L 496 512 Q 541 511 574 479 L 623 431 L 623 431 L 634 419 L 634 419 L 640 413 L 640 413 L 640 403 L 640 403 L 634 397 L 634 397 L 613 376 L 613 376 L 623 367 L 623 367 L 634 355 L 634 355 L 640 349 L 640 349 L 640 339 L 640 339 L 634 333 L 634 333 L 613 312 L 613 312 L 618 307 L 618 307 L 629 296 L 629 296 L 618 285 L 618 285 L 595 262 L 595 262 L 584 251 L 584 251 L 573 262 L 573 262 L 568 267 L 568 267 L 547 246 L 547 246 L 536 235 L 536 235 L 525 246 L 525 246 L 513 257 L 513 257 L 456 315 L 456 315 L 456 302 L 456 302 L 440 302 L 384 302 L 384 318 L 384 318 L 384 338 L 384 338 L 384 365 L 384 365 Q 357 383 320 384 Q 283 383 256 365 L 256 365 Z M 200 226 Q 204 204 215 186 Q 226 168 240 168 Q 253 168 265 186 Q 276 204 280 226 L 296 223 L 296 223 Q 291 199 278 177 Q 265 155 240 152 Q 214 155 201 177 Q 188 199 184 223 L 199 226 L 200 226 Z M 375 186 Q 386 168 400 168 Q 413 168 425 186 Q 436 204 440 226 L 456 223 L 456 223 Q 451 199 438 177 Q 425 155 400 152 Q 374 155 361 177 Q 348 199 344 223 L 360 226 L 360 226 Q 363 204 375 186 L 375 186 Z M 128 345 L 139 357 L 128 345 L 139 357 L 149 347 L 149 347 L 137 336 L 137 336 L 93 291 L 93 291 L 81 280 L 81 280 L 83 278 L 83 278 L 93 269 L 93 269 L 104 257 L 104 257 L 115 269 L 115 269 L 184 337 L 184 337 L 185 338 L 185 338 L 200 353 L 200 353 L 200 338 L 200 338 L 200 334 L 200 334 L 200 331 L 200 331 L 200 318 L 200 318 L 216 318 L 240 318 L 240 334 L 240 334 L 240 338 L 240 338 L 240 368 L 240 368 L 240 388 L 240 388 L 240 401 L 240 401 Q 239 441 212 468 Q 185 495 145 496 Q 106 495 78 468 L 29 419 L 29 419 L 17 408 L 17 408 L 29 397 L 29 397 L 38 387 L 38 387 L 40 385 L 40 385 L 51 397 L 51 397 L 64 409 L 64 409 L 75 421 L 75 421 L 85 411 L 85 411 L 73 400 L 73 400 L 61 387 L 61 387 L 49 376 L 49 376 L 38 365 L 38 365 L 29 355 L 29 355 L 17 344 L 17 344 L 29 333 L 29 333 L 38 323 L 38 323 L 40 321 L 40 321 L 51 333 L 51 333 L 96 377 L 96 377 L 107 389 L 107 389 L 117 379 L 117 379 L 105 368 L 105 368 L 61 323 L 61 323 L 49 312 L 49 312 L 45 307 L 45 307 L 38 301 L 38 301 L 33 296 L 33 296 L 45 285 L 45 285 L 56 273 L 56 273 L 61 278 L 61 278 L 67 285 L 67 285 L 72 289 L 72 289 L 83 301 L 83 301 L 128 345 L 128 345 Z M 512 345 L 557 301 L 512 345 L 557 301 L 568 289 L 568 289 L 573 285 L 573 285 L 579 278 L 579 278 L 584 273 L 584 273 L 595 285 L 595 285 L 607 296 L 607 296 L 602 301 L 602 301 L 595 307 L 595 307 L 591 312 L 591 312 L 579 323 L 579 323 L 535 368 L 535 368 L 523 379 L 523 379 L 533 389 L 533 389 L 544 377 L 544 377 L 589 333 L 589 333 L 600 321 L 600 321 L 602 323 L 602 323 L 611 333 L 611 333 L 623 344 L 623 344 L 611 355 L 611 355 L 602 365 L 602 365 L 591 376 L 591 376 L 579 387 L 579 387 L 567 400 L 567 400 L 555 411 L 555 411 L 565 421 L 565 421 L 576 409 L 576 409 L 589 397 L 589 397 L 600 385 L 600 385 L 602 387 L 602 387 L 611 397 L 611 397 L 623 408 L 623 408 L 611 419 L 611 419 L 563 468 L 563 468 Q 534 495 495 496 Q 455 495 428 468 Q 401 441 400 401 L 400 388 L 400 388 L 400 368 L 400 368 L 400 338 L 400 338 L 400 334 L 400 334 L 400 318 L 400 318 L 416 318 L 440 318 L 440 331 L 440 331 L 440 334 L 440 334 L 440 338 L 440 338 L 440 353 L 440 353 L 455 338 L 455 338 L 456 337 L 456 337 L 525 269 L 525 269 L 536 257 L 536 257 L 547 269 L 547 269 L 557 278 L 557 278 L 559 280 L 559 280 L 547 291 L 547 291 L 503 336 L 503 336 L 491 347 L 491 347 L 501 357 L 501 357 L 512 345 L 512 345 Z" />
</svg>