<svg xmlns="http://www.w3.org/2000/svg" viewBox="0 0 512 448">
  <path d="M 32 0 L 40 0 L 32 0 L 480 0 L 480 8 L 480 8 L 480 432 L 480 432 L 504 432 L 512 432 L 512 448 L 512 448 L 504 448 L 0 448 L 0 432 L 0 432 L 8 432 L 32 432 L 32 8 L 32 8 L 32 0 L 32 0 Z M 48 432 L 464 432 L 48 432 L 464 432 L 464 16 L 464 16 L 48 16 L 48 16 L 48 432 L 48 432 Z M 96 224 Q 96 181 117 144 L 117 144 L 117 144 Q 139 107 176 85 Q 214 64 256 64 Q 298 64 336 85 Q 373 107 395 144 Q 416 181 416 224 Q 416 267 395 304 Q 373 341 336 363 Q 298 384 256 384 Q 214 384 176 363 Q 139 341 117 304 Q 96 267 96 224 L 96 224 Z M 256 368 Q 295 368 328 349 L 328 349 L 328 349 Q 361 330 381 296 Q 400 262 400 224 Q 400 186 381 152 Q 361 118 328 99 Q 295 80 256 80 Q 217 80 184 99 Q 151 118 131 152 Q 112 186 112 224 Q 112 262 131 296 Q 151 330 184 349 Q 217 368 256 368 L 256 368 Z M 272 224 Q 271 209 256 208 Q 241 209 240 224 Q 241 239 256 240 Q 271 239 272 224 L 272 224 Z M 224 224 Q 224 210 233 201 L 233 201 L 233 201 Q 242 192 256 192 Q 270 192 279 201 Q 288 210 288 224 Q 288 238 279 247 Q 270 256 256 256 Q 242 256 233 247 Q 224 238 224 224 L 224 224 Z" />
</svg>