<svg xmlns="http://www.w3.org/2000/svg" viewBox="0 0 648 512">
  <path d="M 157 0 L 160 0 L 157 0 L 184 0 Q 215 1 235 21 Q 255 41 256 72 L 256 128 L 256 128 L 256 136 L 256 136 L 256 158 L 256 158 Q 257 200 285 227 Q 312 255 354 256 L 364 256 L 364 256 Q 427 257 466 307 L 488 336 L 488 336 Q 500 352 520 352 Q 547 350 557 329 Q 568 307 552 285 L 506 229 L 506 229 L 501 223 L 501 223 L 506 218 L 506 218 L 538 186 L 538 186 L 543 181 L 543 181 L 549 186 L 549 186 L 598 222 L 598 222 Q 647 261 648 323 Q 647 376 611 411 Q 576 447 523 448 L 480 448 L 480 448 L 480 504 L 480 504 L 480 512 L 480 512 L 472 512 L 386 512 L 384 506 L 384 506 L 370 448 L 370 448 L 302 448 L 302 448 L 288 506 L 288 506 L 286 512 L 286 512 L 280 512 L 192 512 L 192 504 L 192 504 L 192 448 L 192 448 Q 151 445 124 417 Q 97 389 96 347 L 96 280 L 96 280 Q 94 258 72 256 L 8 256 L 0 256 L 0 248 L 0 248 L 0 208 L 0 208 L 0 204 L 0 204 L 3 202 L 3 202 L 59 162 L 59 162 L 62 160 L 62 160 L 64 160 L 80 160 Q 112 161 135 178 L 134 193 L 134 193 Q 134 194 134 195 Q 134 196 134 197 Q 112 177 80 176 L 67 176 L 67 176 L 16 212 L 16 212 L 16 240 L 16 240 L 72 240 L 72 240 Q 89 240 100 252 Q 112 263 112 280 L 112 347 L 112 347 Q 113 383 137 407 Q 161 431 197 432 L 200 432 L 208 432 L 208 440 L 208 440 L 208 496 L 208 496 L 274 496 L 274 496 L 288 438 L 288 438 L 290 432 L 290 432 L 296 432 L 382 432 L 384 438 L 384 438 L 398 496 L 398 496 L 464 496 L 464 496 L 464 440 L 464 440 L 464 432 L 464 432 L 472 432 L 523 432 Q 569 431 600 400 Q 631 369 632 323 Q 631 269 588 235 L 545 203 L 545 203 L 523 225 L 523 225 L 564 275 L 564 275 Q 586 305 572 335 Q 558 366 520 368 Q 492 367 475 345 L 454 317 L 454 317 Q 419 273 364 272 L 354 272 L 354 272 Q 305 271 273 239 Q 241 207 240 158 L 240 136 L 240 136 L 240 128 L 240 128 L 240 72 L 240 72 Q 239 48 224 32 Q 208 17 184 16 L 163 16 L 163 16 L 112 52 L 112 52 L 112 80 L 112 80 L 184 80 L 193 80 L 192 89 L 192 89 L 176 255 L 176 255 L 200 317 L 200 317 L 202 325 L 202 325 L 187 330 L 187 330 L 185 323 L 185 323 L 161 259 L 161 259 L 160 257 L 160 257 L 160 255 L 160 255 L 175 96 L 175 96 L 104 96 L 96 96 L 96 88 L 96 88 L 96 48 L 96 48 L 96 44 L 96 44 L 99 42 L 99 42 L 155 2 L 155 2 L 157 0 L 157 0 Z M 352 160 L 352 224 L 352 160 L 352 224 Q 344 224 336 222 L 336 152 L 336 152 L 336 144 L 336 144 L 344 144 L 432 144 L 432 116 L 432 116 L 381 80 L 381 80 L 360 80 L 360 80 Q 336 80 317 93 Q 298 105 288 125 L 288 97 L 288 97 Q 316 65 360 64 L 384 64 L 387 64 L 389 66 L 389 66 L 445 106 L 445 106 L 448 108 L 448 108 L 448 112 L 448 112 L 448 152 L 448 152 L 448 160 L 448 160 L 440 160 L 352 160 Z" />
</svg>