<svg xmlns="http://www.w3.org/2000/svg" viewBox="0 0 448 512">
  <path d="M 8 0 L 0 0 L 8 0 L 0 0 L 0 8 L 0 8 L 0 320 L 0 320 L 0 323 L 0 323 L 2 326 L 2 326 L 32 355 L 32 355 L 32 384 L 32 384 L 32 504 L 32 504 L 32 512 L 32 512 L 40 512 L 352 512 L 352 504 L 352 504 L 352 387 L 352 387 L 446 285 L 446 285 L 448 283 L 448 283 L 448 280 L 448 280 L 448 136 L 448 136 L 448 128 L 448 128 L 440 128 L 384 128 L 384 8 L 384 8 L 384 0 L 384 0 L 376 0 L 8 0 Z M 16 317 L 16 16 L 16 317 L 16 16 L 368 16 L 368 16 L 368 128 L 368 128 L 264 128 L 256 128 L 256 136 L 256 136 L 256 192 L 256 192 L 115 192 L 115 192 L 78 154 L 78 154 L 72 149 L 72 149 L 61 160 L 61 160 L 66 166 L 66 166 L 106 206 L 106 206 L 109 208 L 109 208 L 112 208 L 256 208 L 256 280 L 256 280 L 256 288 L 256 288 L 264 288 L 344 288 L 344 272 L 344 272 L 336 272 L 272 272 L 272 144 L 272 144 L 368 144 L 432 144 L 432 277 L 432 277 L 338 379 L 338 379 L 336 381 L 336 381 L 336 384 L 336 384 L 336 496 L 336 496 L 48 496 L 48 496 L 48 384 L 48 384 L 48 352 L 48 352 L 48 349 L 48 349 L 46 346 L 46 346 L 16 317 L 16 317 Z M 141 338 L 134 333 L 141 338 L 134 333 L 125 346 L 125 346 L 131 351 L 131 351 L 178 384 L 178 384 L 131 418 L 131 418 L 125 422 L 125 422 L 134 435 L 134 435 L 141 431 L 141 431 L 192 394 L 192 394 L 243 431 L 243 431 L 250 435 L 250 435 L 259 422 L 259 422 L 253 418 L 253 418 L 206 384 L 206 384 L 253 351 L 253 351 L 259 346 L 259 346 L 250 333 L 250 333 L 243 338 L 243 338 L 192 374 L 192 374 L 141 338 L 141 338 Z" />
</svg>