<svg xmlns="http://www.w3.org/2000/svg" viewBox="0 0 448 512">
  <path d="M 89 138 L 202 168 L 89 138 L 202 168 L 208 170 L 208 170 L 208 176 L 208 176 L 208 301 L 208 301 L 224 304 L 224 304 L 240 301 L 240 301 L 240 176 L 240 176 L 240 170 L 240 170 L 246 168 L 246 168 L 359 138 L 359 138 Q 359 133 358 128 L 352 128 L 90 128 Q 89 133 89 138 L 89 138 Z M 94 112 L 96 112 L 94 112 L 354 112 Q 340 69 305 43 Q 270 17 224 16 Q 178 17 143 43 Q 108 69 94 112 L 94 112 Z M 368 279 L 362 177 L 368 279 L 362 177 Q 362 177 361 177 Q 360 178 358 179 Q 349 183 337 192 Q 311 209 296 258 L 294 266 L 294 266 L 278 262 L 278 262 L 280 254 L 280 254 Q 287 226 300 208 Q 313 190 327 179 Q 341 169 351 165 Q 355 162 358 161 Q 358 161 358 161 Q 359 161 359 161 Q 360 161 360 161 L 361 160 L 361 160 L 360 154 L 360 154 L 256 182 L 256 182 L 256 298 L 256 298 L 368 279 L 368 279 Z M 80 278 L 192 298 L 80 278 L 192 298 L 192 182 L 192 182 L 88 154 L 88 154 L 87 162 L 87 162 Q 90 163 93 165 Q 103 169 116 179 Q 130 190 143 208 Q 156 226 163 254 L 165 262 L 165 262 L 150 266 L 150 266 L 148 258 L 148 258 Q 133 209 107 192 Q 94 183 86 179 Q 86 179 86 179 Q 86 179 86 179 L 80 272 L 80 272 L 80 278 L 80 278 Z M 224 320 L 223 320 L 224 320 L 223 320 L 223 320 L 223 320 L 197 315 L 197 315 L 63 292 L 63 292 L 64 271 L 64 271 L 64 8 L 64 8 L 64 0 L 64 0 L 72 0 L 104 0 L 104 16 L 104 16 L 96 16 L 80 16 L 80 103 L 80 103 Q 96 57 135 29 Q 173 1 224 0 Q 286 1 328 41 Q 370 81 376 142 L 385 292 L 385 292 L 224 320 L 224 320 Z M 60 368 L 22 496 L 60 368 L 22 496 L 133 496 L 133 496 L 218 410 L 218 410 L 224 405 L 224 405 L 230 410 L 230 410 L 315 496 L 315 496 L 427 496 L 427 496 L 388 368 L 388 368 L 60 368 L 60 368 Z M 293 496 L 224 427 L 293 496 L 224 427 L 155 496 L 155 496 L 293 496 L 293 496 Z M 400 352 L 443 496 L 400 352 L 443 496 L 448 512 L 448 512 L 431 512 L 0 512 L 5 496 L 5 496 L 48 352 L 48 352 L 400 352 L 400 352 Z" />
</svg>