<svg xmlns="http://www.w3.org/2000/svg" viewBox="0 0 384 512">
  <path d="M 16 16 L 16 496 L 16 16 L 16 496 L 368 496 L 368 496 L 368 16 L 368 16 L 16 16 L 16 16 Z M 0 0 L 16 0 L 0 0 L 384 0 L 384 16 L 384 16 L 384 496 L 384 496 L 384 512 L 384 512 L 368 512 L 0 512 L 0 496 L 0 496 L 0 16 L 0 16 L 0 0 L 0 0 Z M 272 264 L 112 264 L 272 264 L 112 264 L 112 400 L 112 400 L 272 400 L 272 400 L 272 264 L 272 264 Z M 112 248 L 272 248 L 112 248 L 272 248 L 272 112 L 272 112 L 112 112 L 112 112 L 112 248 L 112 248 Z M 96 96 L 112 96 L 96 96 L 288 96 L 288 112 L 288 112 L 288 400 L 288 400 L 288 416 L 288 416 L 272 416 L 96 416 L 96 400 L 96 400 L 96 112 L 96 112 L 96 96 L 96 96 Z M 192 40 Q 207 41 208 56 Q 207 71 192 72 Q 177 71 176 56 Q 177 41 192 40 L 192 40 Z M 192 440 Q 207 441 208 456 Q 207 471 192 472 Q 177 471 176 456 Q 177 441 192 440 L 192 440 Z M 152 160 L 152 208 L 152 160 L 152 208 L 232 208 L 232 208 L 232 160 L 232 160 L 152 160 L 152 160 Z M 136 144 L 152 144 L 136 144 L 248 144 L 248 160 L 248 160 L 248 208 L 248 208 L 248 224 L 248 224 L 232 224 L 136 224 L 136 208 L 136 208 L 136 160 L 136 160 L 136 144 L 136 144 Z" />
</svg>