<svg xmlns="http://www.w3.org/2000/svg" viewBox="0 0 512 448">
  <path d="M 224 0 L 272 64 L 224 0 L 272 64 L 496 64 L 512 64 L 512 80 L 512 80 L 512 432 L 512 432 L 512 448 L 512 448 L 496 448 L 0 448 L 0 432 L 0 432 L 0 16 L 0 16 L 0 0 L 0 0 L 16 0 L 224 0 Z M 272 80 L 264 80 L 272 80 L 264 80 L 259 74 L 259 74 L 216 16 L 216 16 L 16 16 L 16 16 L 16 432 L 16 432 L 496 432 L 496 432 L 496 80 L 496 80 L 272 80 L 272 80 Z M 224 128 L 232 128 L 224 128 L 288 128 L 288 136 L 288 136 L 288 166 L 288 166 Q 304 172 318 183 L 344 168 L 344 168 L 351 164 L 351 164 L 355 171 L 355 171 L 379 213 L 379 213 L 383 220 L 383 220 L 376 224 L 376 224 L 350 238 L 350 238 Q 352 247 352 256 Q 352 265 350 273 L 376 288 L 376 288 L 383 292 L 383 292 L 379 299 L 379 299 L 355 341 L 355 341 L 351 348 L 351 348 L 344 344 L 344 344 L 318 329 L 318 329 Q 305 340 288 346 L 288 376 L 288 376 L 288 384 L 288 384 L 280 384 L 224 384 L 224 376 L 224 376 L 224 346 L 224 346 Q 208 340 194 329 L 168 344 L 168 344 L 161 348 L 161 348 L 157 341 L 157 341 L 133 299 L 133 299 L 129 292 L 129 292 L 136 288 L 136 288 L 162 273 L 162 273 Q 160 265 160 256 Q 160 247 162 238 L 136 224 L 136 224 L 129 220 L 129 220 L 133 213 L 133 213 L 157 171 L 157 171 L 161 164 L 161 164 L 168 168 L 168 168 L 194 183 L 194 183 Q 207 172 224 166 L 224 136 L 224 136 L 224 128 L 224 128 Z M 240 144 L 240 171 L 240 144 L 240 171 L 240 177 L 240 177 L 235 179 L 235 179 Q 215 185 200 199 L 195 203 L 195 203 L 191 200 L 191 200 L 167 186 L 167 186 L 151 214 L 151 214 L 175 227 L 175 227 L 179 230 L 179 230 L 178 236 L 178 236 Q 176 246 176 256 Q 176 266 178 276 L 179 282 L 179 282 L 175 285 L 175 285 L 151 298 L 151 298 L 167 326 L 167 326 L 191 312 L 191 312 L 195 309 L 195 309 L 200 313 L 200 313 Q 215 327 235 333 L 240 335 L 240 335 L 240 341 L 240 341 L 240 368 L 240 368 L 272 368 L 272 368 L 272 341 L 272 341 L 272 335 L 272 335 L 277 333 L 277 333 Q 297 327 312 313 L 316 309 L 316 309 L 321 312 L 321 312 L 345 326 L 345 326 L 361 298 L 361 298 L 338 285 L 338 285 L 333 282 L 333 282 L 334 276 L 334 276 Q 336 266 336 256 Q 336 246 334 236 L 333 230 L 333 230 L 338 227 L 338 227 L 361 214 L 361 214 L 345 186 L 345 186 L 322 200 L 322 200 L 317 203 L 317 203 L 312 199 L 312 199 Q 297 185 277 179 L 272 177 L 272 177 L 272 171 L 272 171 L 272 144 L 272 144 L 240 144 L 240 144 Z M 256 280 Q 278 278 280 256 Q 278 234 256 232 Q 234 234 232 256 Q 234 278 256 280 L 256 280 Z M 256 216 Q 279 217 291 236 Q 301 256 291 276 Q 279 295 256 296 Q 233 295 221 276 Q 211 256 221 236 Q 233 217 256 216 L 256 216 Z" />
</svg>