<svg xmlns="http://www.w3.org/2000/svg" viewBox="0 0 576 480">
  <path d="M 432 16 L 16 16 L 432 16 L 16 16 L 16 64 L 16 64 Q 18 152 77 211 Q 136 270 224 272 Q 228 272 232 272 Q 232 272 232 272 Q 230 280 228 288 Q 226 288 224 288 Q 188 288 155 277 L 131 330 L 131 330 Q 144 339 151 352 L 227 352 L 227 352 Q 228 360 230 368 L 158 368 L 158 368 Q 160 376 160 384 Q 159 411 141 429 Q 123 447 96 448 Q 69 447 51 429 Q 33 411 32 384 Q 33 357 51 339 Q 69 321 96 320 Q 107 320 116 323 L 140 271 L 140 271 Q 77 246 39 191 Q 1 135 0 64 L 0 16 L 0 16 L 0 0 L 0 0 L 16 0 L 448 0 L 448 16 L 448 16 L 448 64 L 448 64 Q 448 100 437 133 Q 431 127 424 121 Q 432 94 432 64 L 432 16 L 432 16 Z M 96 432 Q 123 431 138 408 Q 150 384 138 360 Q 123 337 96 336 Q 69 337 54 360 Q 42 384 54 408 Q 69 431 96 432 L 96 432 Z M 449 217 L 437 203 L 449 217 L 437 203 Q 412 175 394 158 Q 388 153 384 149 Q 380 153 375 158 Q 356 174 332 202 Q 308 229 290 261 Q 273 292 272 320 Q 274 381 314 422 Q 355 463 416 464 Q 477 463 518 422 Q 558 381 560 320 Q 559 297 547 271 Q 534 246 515 222 Q 497 200 484 186 Q 482 184 480 182 Q 472 190 461 203 L 449 217 L 449 217 Z M 384 128 Q 385 129 400 143 L 400 143 L 400 143 Q 416 157 438 180 Q 439 181 439 181 Q 444 187 449 192 Q 455 186 460 180 Q 479 161 480 160 Q 480 160 480 160 Q 482 161 505 185 Q 528 209 551 246 Q 574 282 576 320 Q 574 388 529 433 Q 484 478 416 480 Q 348 478 303 433 Q 258 388 256 320 Q 258 275 289 231 Q 320 187 351 158 Q 382 129 384 128 L 384 128 Z M 378 219 L 384 227 L 378 219 L 384 227 Q 386 230 397 243 Q 408 257 421 274 L 444 304 L 444 304 L 448 309 L 448 309 L 479 268 L 479 268 L 486 260 L 486 260 L 492 268 L 492 268 Q 497 275 500 282 Q 500 282 500 282 Q 500 282 500 282 Q 517 313 510 345 Q 504 378 476 398 L 476 398 L 476 398 Q 476 398 476 398 Q 476 398 476 398 Q 449 416 417 416 Q 377 416 349 391 Q 321 366 320 322 Q 320 300 334 278 Q 347 257 371 227 L 378 219 L 378 219 Z M 448 322 L 442 327 L 448 322 L 442 327 Q 442 327 442 327 Q 442 327 442 327 Q 442 327 442 327 Q 442 327 442 327 Q 442 327 442 327 Q 442 327 442 327 L 442 327 L 442 327 L 441 326 L 441 326 L 439 323 L 439 323 L 431 314 L 431 314 L 408 284 L 408 284 Q 401 274 393 265 Q 384 253 378 245 Q 358 269 347 287 Q 336 306 336 322 Q 337 360 360 379 Q 382 400 418 400 Q 445 400 467 385 Q 489 369 495 342 Q 500 316 487 290 L 487 290 L 487 290 Q 487 290 487 290 Q 487 290 487 290 Q 486 289 486 288 Q 486 287 485 287 L 455 327 L 455 327 L 448 335 L 448 335 L 442 327 L 442 327 L 448 322 L 448 322 Z" />
</svg>