<svg xmlns="http://www.w3.org/2000/svg" viewBox="0 0 640 512">
  <path d="M 112 0 L 120 0 L 112 0 L 528 0 L 528 8 L 528 8 L 528 195 L 528 195 Q 520 193 512 192 L 512 16 L 512 16 L 128 16 L 128 16 L 128 192 L 128 192 Q 120 193 112 195 L 112 8 L 112 8 L 112 0 L 112 0 Z M 528 229 Q 531 231 534 233 Q 539 232 544 232 Q 564 232 578 244 Q 593 255 598 273 Q 623 289 624 320 Q 624 324 623 328 Q 639 344 640 368 Q 639 392 623 408 Q 624 412 624 416 Q 623 447 598 463 Q 593 481 578 492 Q 564 504 544 504 Q 539 504 534 503 Q 521 512 504 512 Q 480 511 464 496 Q 449 480 448 456 Q 448 441 456 428 Q 448 416 448 400 Q 448 382 458 368 Q 448 354 448 336 Q 448 321 456 308 Q 448 296 448 280 Q 449 256 464 240 Q 480 225 504 224 Q 508 224 512 225 Q 520 226 528 229 L 528 229 Z M 112 229 Q 120 226 128 225 Q 132 224 136 224 Q 160 225 176 240 Q 191 256 192 280 Q 192 296 185 308 Q 192 321 192 336 Q 192 354 182 368 Q 192 382 192 400 Q 192 416 185 428 Q 192 441 192 456 Q 191 480 176 496 Q 160 511 136 512 Q 119 512 106 503 Q 101 504 96 504 Q 76 504 62 492 Q 47 481 42 463 Q 17 447 16 416 Q 16 412 17 408 Q 1 392 0 368 Q 1 344 17 328 Q 16 324 16 320 Q 17 289 42 273 Q 47 255 62 244 Q 76 232 96 232 Q 101 232 106 233 Q 109 231 112 229 Q 112 229 112 229 L 112 229 Z M 166 308 L 171 300 L 166 308 L 171 300 Q 176 291 176 280 Q 175 263 164 252 Q 153 240 136 240 Q 124 240 114 246 L 109 250 L 109 250 L 103 249 L 103 249 Q 99 248 96 248 Q 66 250 57 277 L 56 283 L 56 283 L 50 286 L 50 286 Q 33 298 32 320 Q 32 323 32 326 L 34 334 L 34 334 L 28 340 L 28 340 Q 16 351 16 368 Q 16 385 28 396 L 34 402 L 34 402 L 32 410 L 32 410 Q 32 413 32 416 Q 33 438 51 450 L 56 453 L 56 453 L 58 459 L 58 459 Q 67 486 96 488 Q 100 488 103 487 L 109 486 L 109 486 L 115 490 L 115 490 Q 124 496 136 496 Q 153 496 164 484 Q 176 473 176 456 Q 176 445 171 436 L 166 428 L 166 428 L 171 420 L 171 420 Q 176 411 176 400 Q 176 387 169 377 L 163 368 L 163 368 L 169 359 L 169 359 Q 176 349 176 336 Q 176 325 171 316 L 166 308 L 166 308 Z M 469 300 L 474 308 L 469 300 L 474 308 L 469 316 L 469 316 Q 464 325 464 336 Q 464 349 471 359 L 478 368 L 478 368 L 471 377 L 471 377 Q 464 387 464 400 Q 464 411 469 420 L 474 428 L 474 428 L 469 436 L 469 436 Q 464 445 464 456 Q 464 473 476 484 Q 487 496 504 496 Q 516 496 526 490 L 531 486 L 531 486 L 537 487 L 537 487 Q 541 488 544 488 Q 573 486 583 459 L 584 453 L 584 453 L 590 450 L 590 450 Q 607 438 608 416 Q 608 413 608 410 L 607 402 L 607 402 L 612 396 L 612 396 Q 624 385 624 368 Q 624 351 612 340 L 607 334 L 607 334 L 608 326 L 608 326 Q 608 323 608 320 Q 607 298 590 286 L 584 283 L 584 283 L 583 277 L 583 277 Q 573 250 544 248 Q 541 248 537 248 L 531 250 L 531 250 L 526 246 L 526 246 Q 516 240 504 240 Q 487 240 476 252 Q 464 263 464 280 Q 464 291 469 300 L 469 300 Z" />
</svg>