<svg xmlns="http://www.w3.org/2000/svg" viewBox="0 0 448 512">
  <path d="M 16 128 L 432 128 L 16 128 L 432 128 L 432 496 L 432 496 L 16 496 L 16 496 L 16 128 L 16 128 Z M 16 112 L 16 16 L 16 112 L 16 16 L 432 16 L 432 16 L 432 112 L 432 112 L 16 112 L 16 112 Z M 448 120 L 448 112 L 448 120 L 448 112 L 448 16 L 448 16 L 448 0 L 448 0 L 432 0 L 0 0 L 0 16 L 0 16 L 0 112 L 0 112 L 0 120 L 0 120 L 0 128 L 0 128 L 0 496 L 0 496 L 0 512 L 0 512 L 16 512 L 448 512 L 448 496 L 448 496 L 448 128 L 448 128 L 448 120 L 448 120 Z M 104 208 L 96 208 L 104 208 L 96 208 L 96 224 L 96 224 L 104 224 L 352 224 L 352 208 L 352 208 L 344 208 L 104 208 Z M 104 304 L 96 304 L 104 304 L 96 304 L 96 320 L 96 320 L 104 320 L 352 320 L 352 304 L 352 304 L 344 304 L 104 304 Z M 104 400 L 96 400 L 104 400 L 96 400 L 96 416 L 96 416 L 104 416 L 256 416 L 256 400 L 256 400 L 248 400 L 104 400 Z" />
</svg>