<svg xmlns="http://www.w3.org/2000/svg" viewBox="0 0 448 448">
  <path d="M 432 16 L 432 432 L 432 16 L 432 432 L 16 432 L 16 432 L 16 16 L 16 16 L 432 16 L 432 16 Z M 16 0 L 0 0 L 16 0 L 0 0 L 0 16 L 0 16 L 0 432 L 0 432 L 0 448 L 0 448 L 16 448 L 448 448 L 448 432 L 448 432 L 448 16 L 448 16 L 448 0 L 448 0 L 432 0 L 16 0 Z M 288 160 L 272 160 L 288 160 L 272 160 L 272 168 L 272 168 L 272 272 L 272 272 L 140 272 L 140 272 L 212 96 L 212 96 L 195 96 L 195 96 L 121 277 L 121 277 L 116 288 L 116 288 L 128 288 L 272 288 L 272 344 L 272 344 L 272 352 L 272 352 L 288 352 L 288 352 L 288 344 L 288 344 L 288 288 L 288 288 L 312 288 L 320 288 L 320 272 L 320 272 L 312 272 L 288 272 L 288 168 L 288 168 L 288 160 L 288 160 Z" />
</svg>