<svg xmlns="http://www.w3.org/2000/svg" viewBox="0 0 511 511">
  <path d="M 208 16 Q 260 16 304 42 L 304 42 L 304 42 Q 348 67 374 112 Q 400 157 400 208 Q 400 259 374 304 Q 348 349 304 374 Q 260 400 208 400 Q 156 400 112 374 Q 68 349 42 304 Q 16 259 16 208 Q 16 157 42 112 Q 68 67 112 42 Q 156 16 208 16 L 208 16 Z M 208 416 Q 292 414 349 361 L 500 511 L 500 511 L 511 500 L 511 500 L 361 349 L 361 349 Q 414 292 416 208 Q 414 120 355 61 Q 296 2 208 0 Q 120 2 61 61 Q 2 120 0 208 Q 2 296 61 355 Q 120 414 208 416 L 208 416 Z M 96 192 L 80 192 L 96 192 L 80 192 L 80 208 L 80 208 L 80 224 L 80 224 L 80 288 L 80 288 L 80 304 L 80 304 L 80 320 L 80 320 L 96 320 L 144 320 L 144 304 L 144 304 L 144 288 L 144 288 L 144 224 L 144 224 L 144 208 L 144 208 L 144 192 L 144 192 L 128 192 L 96 192 Z M 192 96 L 176 96 L 192 96 L 176 96 L 176 112 L 176 112 L 176 128 L 176 128 L 176 288 L 176 288 L 176 304 L 176 304 L 176 320 L 176 320 L 192 320 L 240 320 L 240 304 L 240 304 L 240 288 L 240 288 L 240 128 L 240 128 L 240 112 L 240 112 L 240 96 L 240 96 L 224 96 L 192 96 Z M 288 160 L 272 160 L 288 160 L 272 160 L 272 176 L 272 176 L 272 192 L 272 192 L 272 288 L 272 288 L 272 304 L 272 304 L 272 320 L 272 320 L 288 320 L 336 320 L 336 304 L 336 304 L 336 288 L 336 288 L 336 192 L 336 192 L 336 176 L 336 176 L 336 160 L 336 160 L 320 160 L 288 160 Z M 112 208 L 128 208 L 112 208 L 128 208 L 128 224 L 128 224 L 128 288 L 128 288 L 128 304 L 128 304 L 112 304 L 96 304 L 96 288 L 96 288 L 96 224 L 96 224 L 96 208 L 96 208 L 112 208 L 112 208 Z M 192 288 L 192 128 L 192 288 L 192 128 L 192 112 L 192 112 L 208 112 L 224 112 L 224 128 L 224 128 L 224 288 L 224 288 L 224 304 L 224 304 L 208 304 L 192 304 L 192 288 L 192 288 Z M 320 176 L 320 192 L 320 176 L 320 192 L 320 288 L 320 288 L 320 304 L 320 304 L 304 304 L 288 304 L 288 288 L 288 288 L 288 192 L 288 192 L 288 176 L 288 176 L 304 176 L 320 176 Z" />
</svg>