<svg xmlns="http://www.w3.org/2000/svg" viewBox="0 0 512 448">
  <path d="M 224 0 L 272 64 L 224 0 L 272 64 L 496 64 L 512 64 L 512 80 L 512 80 L 512 432 L 512 432 L 512 448 L 512 448 L 496 448 L 0 448 L 0 432 L 0 432 L 0 16 L 0 16 L 0 0 L 0 0 L 16 0 L 224 0 Z M 272 80 L 264 80 L 272 80 L 264 80 L 259 74 L 259 74 L 216 16 L 216 16 L 16 16 L 16 16 L 16 432 L 16 432 L 496 432 L 496 432 L 496 80 L 496 80 L 272 80 L 272 80 Z M 152 272 L 152 256 L 152 272 L 152 256 L 360 256 L 360 256 L 360 272 L 360 272 L 152 272 L 152 272 Z" />
</svg>