<svg xmlns="http://www.w3.org/2000/svg" viewBox="0 0 512 448">
  <path d="M 16 8 L 16 0 L 16 8 L 16 0 L 0 0 L 0 0 L 0 8 L 0 8 L 0 440 L 0 440 L 0 448 L 0 448 L 8 448 L 512 448 L 512 432 L 512 432 L 504 432 L 16 432 L 16 8 L 16 8 Z M 112 96 L 128 96 L 112 96 L 336 96 L 336 128 L 336 128 L 320 128 L 112 128 L 112 96 L 112 96 Z M 320 144 L 336 144 L 320 144 L 352 144 L 352 128 L 352 128 L 352 96 L 352 96 L 352 80 L 352 80 L 336 80 L 96 80 L 96 96 L 96 96 L 96 128 L 96 128 L 96 144 L 96 144 L 112 144 L 320 144 Z M 112 192 L 128 192 L 112 192 L 272 192 L 272 224 L 272 224 L 256 224 L 112 224 L 112 192 L 112 192 Z M 112 288 L 128 288 L 112 288 L 400 288 L 400 320 L 400 320 L 384 320 L 112 320 L 112 288 L 112 288 Z M 128 176 L 112 176 L 128 176 L 96 176 L 96 192 L 96 192 L 96 224 L 96 224 L 96 240 L 96 240 L 112 240 L 288 240 L 288 224 L 288 224 L 288 192 L 288 192 L 288 176 L 288 176 L 272 176 L 128 176 Z M 128 272 L 112 272 L 128 272 L 96 272 L 96 288 L 96 288 L 96 320 L 96 320 L 96 336 L 96 336 L 112 336 L 416 336 L 416 320 L 416 320 L 416 288 L 416 288 L 416 272 L 416 272 L 400 272 L 128 272 Z" />
</svg>