<svg xmlns="http://www.w3.org/2000/svg" viewBox="0 0 512 512">
  <path d="M 0 248 L 8 248 L 0 248 L 512 248 L 512 264 L 512 264 L 504 264 L 0 264 L 0 248 L 0 248 Z M 245 331 L 256 320 L 245 331 L 256 320 L 267 331 L 267 331 L 416 480 L 416 480 L 416 496 L 416 496 L 416 512 L 416 512 L 400 512 L 96 512 L 96 496 L 96 496 L 96 480 L 96 480 L 245 331 L 245 331 Z M 112 487 L 112 496 L 112 487 L 112 496 L 400 496 L 400 496 L 400 487 L 400 487 L 256 343 L 256 343 L 112 487 L 112 487 Z M 256 192 L 245 181 L 256 192 L 245 181 L 96 32 L 96 32 L 96 16 L 96 16 L 96 0 L 96 0 L 112 0 L 416 0 L 416 16 L 416 16 L 416 32 L 416 32 L 267 181 L 267 181 L 256 192 L 256 192 Z M 112 16 L 112 25 L 112 16 L 112 25 L 256 169 L 256 169 L 400 25 L 400 25 L 400 16 L 400 16 L 112 16 L 112 16 Z" />
</svg>