<svg xmlns="http://www.w3.org/2000/svg" viewBox="0 0 640 192">
  <path d="M 32 0 L 0 0 L 32 0 L 0 0 L 0 64 L 0 64 L 32 64 L 64 64 L 64 128 L 64 128 L 32 128 L 0 128 L 0 192 L 0 192 L 32 192 L 640 192 L 640 128 L 640 128 L 608 128 L 576 128 L 576 64 L 576 64 L 608 64 L 640 64 L 640 0 L 640 0 L 608 0 L 32 0 Z M 128 64 L 288 64 L 128 64 L 288 64 L 288 128 L 288 128 L 128 128 L 128 128 L 128 64 L 128 64 Z M 352 64 L 512 64 L 352 64 L 512 64 L 512 128 L 512 128 L 352 128 L 352 128 L 352 64 L 352 64 Z" />
</svg>