<svg xmlns="http://www.w3.org/2000/svg" viewBox="0 0 384 512">
  <path d="M 368 16 L 368 112 L 368 16 L 368 112 L 16 112 L 16 112 L 16 16 L 16 16 L 368 16 L 368 16 Z M 16 0 L 0 0 L 16 0 L 0 0 L 0 16 L 0 16 L 0 112 L 0 112 L 0 128 L 0 128 L 16 128 L 384 128 L 384 112 L 384 112 L 384 16 L 384 16 L 384 0 L 384 0 L 368 0 L 16 0 Z M 32 416 L 32 496 L 32 416 L 32 496 L 32 512 L 32 512 L 48 512 L 352 512 L 352 496 L 352 496 L 352 160 L 352 160 L 336 160 L 336 160 L 336 496 L 336 496 L 48 496 L 48 496 L 48 416 L 48 416 L 152 416 L 160 416 L 160 400 L 160 400 L 152 400 L 48 400 L 48 320 L 48 320 L 152 320 L 160 320 L 160 304 L 160 304 L 152 304 L 48 304 L 48 224 L 48 224 L 152 224 L 160 224 L 160 208 L 160 208 L 152 208 L 48 208 L 48 160 L 48 160 L 32 160 L 32 160 L 32 208 L 32 208 L 32 224 L 32 224 L 32 304 L 32 304 L 32 320 L 32 320 L 32 400 L 32 400 L 32 416 L 32 416 Z" />
</svg>