<svg xmlns="http://www.w3.org/2000/svg" viewBox="0 0 640 512">
  <path d="M 272 46 L 224 18 L 272 46 L 224 18 L 176 46 L 176 46 L 169 50 L 169 50 L 162 47 L 162 47 L 112 25 L 112 25 L 112 112 L 112 112 L 336 112 L 336 112 L 336 25 L 336 25 L 287 47 L 287 47 L 279 50 L 279 50 L 272 46 L 272 46 Z M 112 144 Q 113 192 145 223 L 145 223 L 145 223 Q 176 255 224 256 Q 272 255 303 223 Q 335 192 336 144 L 336 128 L 336 128 L 112 128 L 112 128 L 112 144 L 112 144 Z M 352 0 L 352 18 L 352 0 L 352 18 L 352 144 L 352 144 Q 351 198 315 235 Q 278 271 224 272 Q 170 271 133 235 Q 97 198 96 144 L 96 18 L 96 18 L 96 0 L 96 0 L 112 7 L 112 7 L 168 32 L 168 32 L 224 0 L 224 0 L 280 32 L 280 32 L 336 7 L 336 7 L 352 0 L 352 0 Z M 22 496 L 426 496 L 22 496 L 426 496 L 372 320 L 372 320 L 76 320 L 76 320 L 22 496 L 22 496 Z M 64 304 L 384 304 L 64 304 L 384 304 L 443 496 L 443 496 L 448 512 L 448 512 L 431 512 L 0 512 L 5 496 L 5 496 L 64 304 L 64 304 Z M 623 512 L 481 512 L 623 512 L 481 512 L 478 503 L 478 503 L 476 496 L 476 496 L 618 496 L 618 496 L 565 336 L 565 336 L 427 336 L 427 336 L 423 320 L 423 320 L 576 320 L 576 320 L 635 496 L 635 496 L 640 512 L 640 512 L 623 512 L 623 512 Z M 432 256 Q 390 255 359 229 Q 364 222 367 215 Q 394 239 432 240 Q 473 239 500 212 Q 527 185 528 144 Q 527 103 500 76 Q 473 49 432 48 Q 405 48 384 61 L 384 54 L 384 54 L 384 43 L 384 43 Q 406 32 432 32 Q 480 33 511 65 Q 543 96 544 144 Q 543 192 511 223 Q 480 255 432 256 L 432 256 Z" />
</svg>