<svg xmlns="http://www.w3.org/2000/svg" viewBox="0 0 512 512">
  <path d="M 149.86565 71.73896 Q 149.86565 57.980804 141.02112 49.136276 L 141.02112 49.136276 Q 132.17659 40.291748 118.41843 40.291748 Q 104.66027 40.291748 95.81574 49.136276 Q 86.97121 57.980804 86.97121 71.73896 Q 86.97121 85.49712 95.81574 94.34165 Q 104.66027 103.18618 118.41843 103.18618 Q 132.17659 103.18618 141.02112 94.34165 Q 149.86565 85.49712 149.86565 71.73896 L 149.86565 71.73896 Z M 55.52399 71.73896 Q 56.506718 36.360844 86.97121 17.68906 Q 118.41843 0 149.86565 17.68906 Q 180.33014 36.360844 181.31287 71.73896 Q 180.33014 107.11708 149.86565 125.788864 Q 118.41843 143.47792 86.97121 125.788864 Q 56.506718 107.11708 55.52399 71.73896 L 55.52399 71.73896 Z M 48.644913 323.3167 L 55.52399 323.3167 L 86.97121 323.3167 L 149.86565 323.3167 L 181.31287 323.3167 L 188.19194 323.3167 L 182.29558 197.52783 L 54.541267 197.52783 L 48.644913 323.3167 L 48.644913 323.3167 Z M 189.17467 354.76392 L 181.31287 354.76392 L 181.31287 496.2764 L 181.31287 512 L 149.86565 512 L 149.86565 496.2764 L 149.86565 354.76392 L 86.97121 354.76392 L 86.97121 496.2764 L 86.97121 512 L 55.52399 512 L 55.52399 496.2764 L 55.52399 354.76392 L 47.66219 354.76392 L 16.214972 354.76392 L 17.197697 323.3167 L 24.076775 166.08061 L 212.76007 166.08061 L 219.63916 323.3167 L 220.62189 354.76392 L 189.17467 354.76392 L 189.17467 354.76392 Z M 401.4434 71.73896 Q 401.4434 57.980804 392.59885 49.136276 L 392.59885 49.136276 Q 383.75433 40.291748 369.99615 40.291748 Q 356.238 40.291748 347.39346 49.136276 Q 338.54895 57.980804 338.54895 71.73896 Q 338.54895 85.49712 347.39346 94.34165 Q 356.238 103.18618 369.99615 103.18618 Q 383.75433 103.18618 392.59885 94.34165 Q 401.4434 85.49712 401.4434 71.73896 L 401.4434 71.73896 Z M 307.1017 71.73896 Q 308.08444 36.360844 338.54895 17.68906 Q 369.99615 0 401.4434 17.68906 Q 431.90787 36.360844 432.8906 71.73896 Q 431.90787 107.11708 401.4434 125.788864 Q 369.99615 143.47792 338.54895 125.788864 Q 308.08444 107.11708 307.1017 71.73896 L 307.1017 71.73896 Z M 285.48178 354.76392 L 454.51056 354.76392 L 409.30518 197.52783 L 330.68713 197.52783 L 285.48178 354.76392 L 285.48178 354.76392 Z M 307.1017 166.08061 L 432.8906 166.08061 L 486.9405 354.76392 L 495.78503 386.21112 L 463.35507 386.21112 L 432.8906 386.21112 L 432.8906 496.2764 L 432.8906 512 L 401.4434 512 L 401.4434 496.2764 L 401.4434 386.21112 L 338.54895 386.21112 L 338.54895 496.2764 L 338.54895 512 L 307.1017 512 L 307.1017 496.2764 L 307.1017 386.21112 L 276.63724 386.21112 L 244.20729 386.21112 L 253.05182 354.76392 L 307.1017 166.08061 L 307.1017 166.08061 Z" />
</svg>