<svg xmlns="http://www.w3.org/2000/svg" viewBox="0 0 320 512">
  <path d="M 256 16 L 256 64 L 256 16 L 256 64 L 64 64 L 64 64 L 64 16 L 64 16 L 256 16 L 256 16 Z M 48 16 L 48 64 L 48 16 L 48 64 L 16 64 L 0 64 L 0 80 L 0 80 L 0 496 L 0 496 L 0 512 L 0 512 L 16 512 L 320 512 L 320 496 L 320 496 L 320 80 L 320 80 L 320 64 L 320 64 L 304 64 L 272 64 L 272 16 L 272 16 L 272 0 L 272 0 L 256 0 L 48 0 L 48 16 L 48 16 Z M 256 80 L 272 80 L 256 80 L 304 80 L 304 496 L 304 496 L 16 496 L 16 496 L 16 80 L 16 80 L 48 80 L 256 80 Z M 128 208 Q 101 207 83 189 L 83 189 L 83 189 Q 65 171 64 144 L 88 144 L 88 144 Q 115 145 133 163 Q 151 181 152 208 L 128 208 L 128 208 Z M 88 128 L 64 128 L 88 128 L 48 128 L 48 144 L 48 144 Q 49 178 71 201 Q 94 223 128 224 L 152 224 L 192 224 Q 226 223 249 201 Q 271 178 272 144 L 272 128 L 272 128 L 256 128 L 232 128 Q 208 128 189 141 Q 170 153 160 173 Q 150 153 131 141 Q 112 128 88 128 L 88 128 Z M 192 208 L 168 208 L 192 208 L 168 208 Q 169 181 187 163 Q 205 145 232 144 L 256 144 L 256 144 Q 255 171 237 189 Q 219 207 192 208 L 192 208 Z M 128 312 Q 101 311 83 293 L 83 293 L 83 293 Q 65 275 64 248 L 88 248 L 88 248 Q 115 249 133 267 Q 151 285 152 312 L 128 312 L 128 312 Z M 88 232 L 64 232 L 88 232 L 48 232 L 48 248 L 48 248 Q 49 282 71 305 Q 94 327 128 328 L 152 328 L 192 328 Q 226 327 249 305 Q 271 282 272 248 L 272 232 L 272 232 L 256 232 L 232 232 Q 208 232 189 245 Q 170 257 160 277 Q 150 257 131 245 Q 112 232 88 232 L 88 232 Z M 192 312 L 168 312 L 192 312 L 168 312 Q 169 285 187 267 Q 205 249 232 248 L 256 248 L 256 248 Q 255 275 237 293 Q 219 311 192 312 L 192 312 Z M 128 416 Q 101 415 83 397 L 83 397 L 83 397 Q 65 379 64 352 L 88 352 L 88 352 Q 115 353 133 371 Q 151 389 152 416 L 128 416 L 128 416 Z M 88 336 L 64 336 L 88 336 L 48 336 L 48 352 L 48 352 Q 49 386 71 409 Q 94 431 128 432 L 152 432 L 152 432 L 152 456 L 152 456 L 152 464 L 152 464 L 168 464 L 168 464 L 168 456 L 168 456 L 168 432 L 168 432 L 192 432 L 192 432 Q 226 431 249 409 Q 271 386 272 352 L 272 336 L 272 336 L 256 336 L 232 336 Q 208 336 189 349 Q 170 361 160 381 Q 150 361 131 349 Q 112 336 88 336 L 88 336 Z M 192 416 L 168 416 L 192 416 L 168 416 Q 169 389 187 371 Q 205 353 232 352 L 256 352 L 256 352 Q 255 379 237 397 Q 219 415 192 416 L 192 416 Z" />
</svg>