<svg xmlns="http://www.w3.org/2000/svg" viewBox="0 0 384 512">
  <path d="M 48 0 L 56 0 L 48 0 L 112 0 L 112 8 L 112 8 L 112 80 L 112 80 Q 113 114 135 137 Q 158 159 192 160 Q 226 159 249 137 Q 271 114 272 80 L 272 8 L 272 8 L 272 0 L 272 0 L 280 0 L 336 0 L 336 8 L 336 8 L 336 135 L 336 135 L 383 253 L 383 253 L 384 254 L 384 254 L 384 256 L 384 256 L 384 504 L 384 504 L 384 512 L 384 512 L 376 512 L 0 512 L 0 504 L 0 504 L 0 256 L 0 256 L 0 255 L 0 255 L 1 253 L 1 253 L 48 135 L 48 135 L 48 8 L 48 8 L 48 0 L 48 0 Z M 192 176 Q 151 175 124 148 L 124 148 L 124 148 Q 97 121 96 80 L 96 16 L 96 16 L 64 16 L 64 16 L 64 136 L 64 136 L 64 138 L 64 138 L 63 139 L 63 139 L 16 258 L 16 258 L 16 496 L 16 496 L 368 496 L 368 496 L 368 258 L 368 258 L 321 139 L 321 139 L 320 138 L 320 138 L 320 136 L 320 136 L 320 16 L 320 16 L 288 16 L 288 16 L 288 80 L 288 80 Q 287 121 260 148 Q 233 175 192 176 L 192 176 Z" />
</svg>