<svg xmlns="http://www.w3.org/2000/svg" viewBox="0 0 640 512">
  <path d="M 197 456 Q 164 417 142 352 L 72 352 L 72 352 Q 91 390 124 416 Q 156 443 197 456 L 197 456 Z M 230 420 Q 244 438 256 449 Q 268 438 282 420 Q 303 393 319 352 L 193 352 L 193 352 Q 209 393 230 420 L 230 420 Z M 176 256 Q 176 282 180 304 L 332 304 L 332 304 Q 320 334 320 368 Q 320 402 332 432 Q 324 445 315 456 Q 327 452 339 447 Q 350 469 366 487 Q 316 512 256 512 Q 184 511 127 477 Q 69 443 35 385 Q 1 328 0 256 Q 1 184 35 127 Q 69 69 127 35 Q 184 1 256 0 Q 347 2 414 55 Q 481 108 504 192 Q 500 192 496 192 Q 456 192 423 208 L 381 208 L 381 208 Q 382 220 383 233 Q 349 262 332 304 Q 336 282 336 256 Q 336 230 332 208 L 180 208 L 180 208 Q 176 230 176 256 L 176 256 Z M 131 208 L 54 208 L 131 208 L 54 208 Q 48 231 48 256 Q 48 281 54 304 L 131 304 L 131 304 Q 128 281 128 256 Q 128 231 131 208 L 131 208 Z M 319 160 Q 303 119 282 92 Q 268 74 256 63 Q 244 74 230 92 Q 209 119 193 160 L 319 160 L 319 160 Z M 441 160 Q 421 122 389 96 L 389 96 L 389 96 Q 356 69 315 57 Q 348 95 370 160 L 441 160 L 441 160 Z M 142 160 Q 164 95 197 57 Q 156 69 123 96 Q 91 122 71 160 L 142 160 L 142 160 Z M 352 368 Q 352 329 371 296 L 371 296 L 371 296 Q 390 263 424 243 Q 458 224 496 224 Q 534 224 568 243 Q 602 263 621 296 Q 640 329 640 368 Q 640 407 621 440 Q 602 473 568 493 Q 534 512 496 512 Q 458 512 424 493 Q 390 473 371 440 Q 352 407 352 368 L 352 368 Z M 609 348 Q 590 320 561 304 L 561 304 L 561 304 Q 531 288 496 288 Q 461 288 431 304 Q 402 320 384 348 L 409 367 L 409 367 Q 439 322 496 320 Q 553 322 583 367 L 609 348 L 609 348 Z M 496 352 Q 455 353 432 384 L 458 403 L 458 403 Q 472 385 496 384 Q 520 385 534 403 L 560 384 L 560 384 Q 537 353 496 352 L 496 352 Z M 496 452 Q 514 450 516 432 Q 514 414 496 412 Q 478 414 476 432 Q 478 450 496 452 L 496 452 Z" />
</svg>