<svg xmlns="http://www.w3.org/2000/svg" viewBox="0 0 576 512">
  <path d="M 280 0 L 296 0 L 280 0 L 296 0 L 296 48 L 296 48 L 376 48 L 383 48 L 384 55 L 384 55 L 444 394 L 444 394 Q 437 399 430 402 L 412 304 L 412 304 L 164 304 L 164 304 L 147 402 L 147 402 Q 139 399 132 394 L 192 55 L 192 55 L 193 48 L 193 48 L 200 48 L 280 48 L 280 0 L 280 0 Z M 167 288 L 409 288 L 167 288 L 409 288 L 369 64 L 369 64 L 207 64 L 207 64 L 167 288 L 167 288 Z M 97 427 Q 97 428 98 429 L 98 429 L 98 429 Q 104 437 110 445 Q 117 454 130 466 Q 143 478 159 487 Q 175 496 192 496 Q 209 496 225 487 Q 241 478 254 466 Q 267 454 274 445 Q 281 437 287 428 Q 287 427 287 427 L 288 426 L 288 426 Q 288 426 288 427 Q 288 427 289 427 Q 289 428 290 429 Q 295 437 302 445 Q 309 454 322 466 Q 335 478 351 487 Q 367 496 384 496 Q 401 496 417 487 Q 433 478 446 466 Q 459 454 466 445 Q 473 437 479 428 Q 479 427 479 427 L 480 426 L 480 426 L 481 427 L 481 427 Q 481 428 482 429 Q 487 437 494 445 Q 501 454 514 466 Q 527 478 543 487 Q 559 496 576 496 L 576 512 L 576 512 Q 554 511 536 501 Q 517 491 503 478 Q 488 463 480 453 Q 472 463 457 478 Q 443 491 424 501 Q 406 511 384 512 Q 362 511 344 501 Q 325 491 311 478 Q 296 463 288 453 Q 280 463 265 478 Q 251 491 232 501 Q 214 511 192 512 Q 170 511 152 501 Q 133 491 119 478 Q 104 463 96 453 Q 88 463 73 478 Q 59 491 40 501 Q 22 511 0 512 L 0 496 L 0 496 Q 17 496 33 487 Q 49 478 62 466 Q 75 454 82 445 Q 89 437 95 428 Q 95 427 95 427 L 96 426 L 96 426 L 97 427 L 97 427 Z" />
</svg>