<svg xmlns="http://www.w3.org/2000/svg" viewBox="0 0 512 512">
  <path d="M 38.4 63.2 L 23.2 51.2 L 0 81.6 L 15.2 93.6 L 473.6 448.8 L 488.8 460.8 L 512 430.4 L 496.8 418.4 L 366.4 317.6 L 368.8 315.2 L 357.6 303.2 Q 384 299.2 404.8 278.4 L 365.6 260.8 L 365.6 260.8 L 404.8 278.4 L 432 252 L 404.8 224.8 L 404.8 224.8 Q 401.6 220.8 398.4 218.4 L 442.4 173.6 L 456 160 L 428.8 132.8 L 415.2 146.4 L 364 197.6 L 363.2 199.2 Q 353.6 196 344 195.2 L 446.4 92.8 L 460 79.2 L 432.8 52 L 419.2 65.6 L 316.8 168 Q 316 158.4 312.8 149.6 L 314.4 148 L 365.6 96.8 L 379.2 83.2 L 352 56 L 338.4 69.6 L 294.4 113.6 Q 291.2 110.4 288 106.4 L 288 106.4 L 260.8 80 L 233.6 106.4 L 251.2 145.6 L 251.2 145.6 L 233.6 106.4 Q 212.8 127.2 208.8 154.4 L 196.8 143.2 L 172.8 167.2 L 38.4 63.2 L 38.4 63.2 Z M 276 199.2 Q 273.6 207.2 268.8 214.4 L 260.8 206.4 Q 248 193.6 245.6 177.6 Q 244 160.8 251.2 145.6 L 276 199.2 L 276 199.2 Z M 276 199.2 L 279.2 205.6 L 279.2 205.6 L 276 199.2 L 276 199.2 L 276 199.2 Z M 276 199.2 L 251.2 145.6 Q 255.2 139.2 260.8 133.6 Q 273.6 147.2 277.6 164.8 Q 281.6 181.6 276 199.2 L 276 199.2 Z M 312.8 236 Q 329.6 230.4 347.2 234.4 L 347.2 234.4 Q 364.8 238.4 377.6 251.2 Q 372 256.8 365.6 260.8 L 312.8 236 L 312.8 236 Z M 312.8 236 L 365.6 260.8 Q 351.2 268 334.4 265.6 Q 318.4 264 305.6 251.2 L 297.6 243.2 Q 304.8 238.4 312.8 236 L 312.8 236 Z M 312.8 236 L 306.4 232.8 L 306.4 232.8 L 312.8 236 L 312.8 236 L 312.8 236 Z M 301.6 365.6 L 118.4 221.6 L 106.4 233.6 L 124.8 272.8 L 124.8 272.8 L 106.4 233.6 Q 80 260.8 80 296.8 Q 80 332.8 106.4 360 L 115.2 368.8 L 115.2 368.8 L 65.6 419.2 L 52 432.8 L 79.2 460 L 92.8 446.4 L 143.2 396 L 152 405.6 Q 179.2 431.2 215.2 431.2 Q 251.2 431.2 278.4 405.6 L 239.2 387.2 L 239.2 387.2 L 278.4 405.6 L 305.6 378.4 L 294.4 366.4 Q 297.6 366.4 300.8 365.6 L 301.6 365.6 Z M 186.4 362.4 Q 203.2 357.6 220.8 360.8 L 220.8 360.8 Q 237.6 364.8 251.2 378.4 Q 245.6 384 239.2 387.2 L 186.4 362.4 L 186.4 362.4 Z M 186.4 362.4 L 180 359.2 L 180 359.2 L 186.4 362.4 L 186.4 362.4 L 186.4 362.4 Z M 186.4 362.4 L 239.2 387.2 Q 224 395.2 208 392.8 Q 192 390.4 179.2 378.4 L 171.2 370.4 Q 178.4 365.6 186.4 362.4 L 186.4 362.4 Z M 149.6 325.6 Q 146.4 333.6 141.6 340.8 L 133.6 332.8 Q 121.6 320 119.2 304 Q 116.8 287.2 124.8 272.8 L 149.6 325.6 L 149.6 325.6 Z M 149.6 325.6 L 152.8 332 L 152.8 332 L 149.6 325.6 L 149.6 325.6 L 149.6 325.6 Z M 149.6 325.6 L 124.8 272.8 Q 128 266.4 133.6 260.8 Q 147.2 274.4 151.2 291.2 Q 154.4 308.8 149.6 325.6 L 149.6 325.6 Z" />
</svg>