<svg xmlns="http://www.w3.org/2000/svg" viewBox="0 0 512 512">
  <path d="M 400 400 L 411 389 L 400 400 L 411 389 L 501 299 L 501 299 L 512 288 L 512 288 L 501 277 L 501 277 L 432 208 L 432 208 L 485 155 L 485 155 L 496 144 L 496 144 L 485 133 L 485 133 L 379 27 L 379 27 L 368 16 L 368 16 L 357 27 L 357 27 L 175 209 L 175 209 Q 184 211 192 215 L 368 39 L 368 39 L 473 144 L 473 144 L 297 320 L 297 320 Q 301 328 303 337 L 320 320 L 320 320 L 389 389 L 389 389 L 400 400 L 400 400 Z M 331 309 L 421 219 L 331 309 L 421 219 L 489 288 L 489 288 L 400 377 L 400 377 L 331 309 L 331 309 Z M 192 192 L 203 181 L 192 192 L 203 181 L 135 112 L 135 112 L 224 23 L 224 23 L 293 91 L 293 91 L 304 80 L 304 80 L 235 11 L 235 11 L 224 0 L 224 0 L 213 11 L 213 11 L 123 101 L 123 101 L 112 112 L 112 112 L 123 123 L 123 123 L 192 192 L 192 192 Z M 256 512 L 264 503 L 256 512 L 264 503 Q 264 502 265 502 Q 266 501 267 500 Q 312 444 309 376 Q 306 308 256 256 Q 204 206 136 203 Q 68 200 12 245 Q 10 247 9 248 Q 9 248 9 248 L 0 256 L 0 256 L 11 267 L 11 267 L 122 378 L 122 378 L 102 399 L 102 399 Q 92 392 80 392 Q 63 392 52 404 Q 40 415 40 432 Q 40 449 52 460 Q 63 472 80 472 Q 97 472 108 460 Q 120 449 120 432 Q 120 420 113 410 L 134 390 L 134 390 L 245 501 L 245 501 L 256 512 L 256 512 Z M 255 489 L 23 257 L 255 489 L 23 257 Q 74 216 136 219 Q 197 222 245 267 Q 290 315 293 376 Q 296 438 255 489 L 255 489 Z M 80 408 Q 102 410 104 432 Q 102 454 80 456 Q 58 454 56 432 Q 58 410 80 408 L 80 408 Z" />
</svg>