<svg xmlns="http://www.w3.org/2000/svg" viewBox="0 0 512 512">
  <path d="M 16 256 Q 17 189 49 135 L 49 135 L 49 135 Q 81 81 135 49 L 135 49 L 135 49 Q 189 17 256 16 Q 323 17 377 49 Q 431 81 463 135 Q 495 189 496 256 L 496 276 L 496 276 L 496 344 L 496 344 L 428 344 L 428 344 Q 399 343 380 324 Q 361 305 360 276 L 360 256 L 360 256 L 360 168 L 360 168 L 360 160 L 360 160 L 344 160 L 344 160 L 344 168 L 344 168 L 344 201 L 344 201 Q 330 178 307 165 Q 284 152 256 152 Q 212 153 182 182 Q 153 212 152 256 Q 153 300 182 330 Q 212 359 256 360 Q 287 360 311 344 Q 335 329 349 303 Q 358 329 379 344 Q 400 360 428 360 L 504 360 L 512 360 L 512 352 L 512 352 L 512 276 L 512 276 L 512 256 L 512 256 Q 511 184 477 127 Q 443 69 385 35 Q 328 1 256 0 Q 184 1 127 35 Q 69 69 35 127 Q 1 184 0 256 Q 1 328 35 385 Q 69 443 127 477 Q 184 511 256 512 L 264 512 L 264 512 L 264 496 L 264 496 L 256 496 L 256 496 Q 189 495 135 463 Q 81 431 49 377 Q 17 323 16 256 L 16 256 Z M 168 256 Q 170 206 212 180 Q 256 156 300 180 Q 342 206 344 256 Q 342 306 300 332 Q 256 356 212 332 Q 170 306 168 256 L 168 256 Z" />
</svg>