<svg xmlns="http://www.w3.org/2000/svg" viewBox="0 0 632 383">
  <path d="M 0 14 L 6 17 L 0 14 L 6 17 Q 146 102 310 103 L 316 103 L 322 103 Q 486 102 626 17 L 632 14 L 632 14 L 624 0 L 624 0 L 618 4 L 618 4 Q 482 86 322 87 L 316 87 L 310 87 Q 151 86 14 4 L 8 0 L 8 0 L 0 14 L 0 14 Z M 108 175 Q 84 170 64 180 L 64 180 L 64 180 Q 43 191 35 213 Q 24 245 30 274 Q 36 304 45 323 Q 55 342 56 342 Q 57 343 76 334 Q 96 326 119 307 Q 142 288 155 257 Q 163 234 154 213 Q 145 192 123 180 L 150 106 L 150 106 Q 143 103 135 101 L 108 175 L 108 175 Z M 308 208 Q 284 211 268 228 L 268 228 L 268 228 Q 253 245 252 269 Q 253 302 269 328 Q 284 353 299 368 Q 315 383 316 383 Q 316 383 316 383 Q 317 383 333 368 Q 348 353 363 328 Q 379 302 380 269 Q 379 244 364 228 Q 348 211 324 207 L 324 127 L 324 127 L 322 127 L 308 127 L 308 207 L 308 208 Z M 509 180 Q 487 192 478 213 L 478 213 L 478 213 Q 469 234 477 257 Q 490 288 513 307 Q 536 326 556 334 Q 575 343 577 343 Q 578 342 587 323 Q 596 304 602 274 Q 608 245 598 213 Q 589 191 568 180 Q 548 170 524 175 L 497 101 L 497 101 Q 490 104 482 106 L 509 180 L 509 180 Z M 110 192 Q 130 200 138 217 L 138 217 L 138 217 Q 146 233 140 251 Q 122 291 88 309 Q 73 318 63 323 Q 57 312 52 296 Q 38 260 50 218 Q 57 201 74 193 Q 91 185 110 192 L 110 192 Z M 316 223 Q 337 224 350 237 L 350 237 L 350 237 Q 364 250 364 269 Q 361 311 335 341 Q 324 354 316 362 Q 308 354 297 341 Q 271 312 268 269 Q 268 250 282 237 Q 295 224 316 223 L 316 223 Z M 582 219 Q 594 260 580 296 Q 575 313 569 323 Q 559 318 544 310 Q 510 291 492 251 Q 486 233 494 217 Q 502 200 522 192 Q 541 186 558 193 Q 575 201 582 219 L 582 219 Z" />
</svg>