<svg xmlns="http://www.w3.org/2000/svg" viewBox="0 0 640 384">
  <path d="M 128 0 L 136 0 L 128 0 L 296 0 L 296 8 L 296 8 L 296 32 L 296 32 L 296 36 L 296 36 L 292 39 L 292 39 Q 265 53 264 80 Q 265 100 280 114 Q 296 127 320 128 Q 345 127 360 114 Q 376 100 376 80 Q 375 53 348 39 L 344 36 L 344 36 L 344 32 L 344 32 L 344 8 L 344 8 L 344 0 L 344 0 L 352 0 L 512 0 L 512 8 L 512 8 L 512 152 L 512 152 L 537 152 L 537 152 Q 553 122 584 120 Q 609 121 624 142 Q 639 162 640 192 Q 640 222 624 242 Q 609 263 584 264 Q 553 262 537 232 L 512 232 L 512 232 L 512 376 L 512 376 L 512 384 L 512 384 L 504 384 L 344 384 L 344 376 L 344 376 L 344 353 L 344 353 L 344 348 L 344 348 L 348 345 L 348 345 Q 375 331 376 304 Q 376 284 360 270 Q 345 257 320 256 Q 296 257 280 270 Q 265 284 264 304 Q 265 331 292 345 L 296 348 L 296 348 L 296 353 L 296 353 L 296 376 L 296 376 L 296 384 L 296 384 L 288 384 L 128 384 L 128 376 L 128 376 L 128 232 L 128 232 L 103 232 L 103 232 Q 87 262 56 264 Q 31 263 16 242 Q 1 222 0 192 Q 0 162 16 142 Q 31 121 56 120 Q 87 122 103 152 L 128 152 L 128 152 L 128 8 L 128 8 L 128 0 L 128 0 Z M 144 16 L 144 160 L 144 16 L 144 160 L 144 168 L 144 168 L 136 168 L 92 168 L 90 163 L 90 163 Q 78 137 56 136 Q 40 136 29 152 Q 17 167 16 192 Q 17 217 29 233 Q 40 248 56 248 Q 78 247 90 221 L 92 216 L 92 216 L 97 216 L 144 216 L 144 224 L 144 224 L 144 368 L 144 368 L 280 368 L 280 368 L 280 357 L 280 357 Q 250 339 248 304 Q 249 276 269 258 Q 290 241 320 240 Q 350 241 370 258 Q 391 276 392 304 Q 390 339 360 357 L 360 368 L 360 368 L 496 368 L 496 368 L 496 224 L 496 224 L 496 216 L 496 216 L 504 216 L 548 216 L 550 221 L 550 221 Q 562 247 584 248 Q 600 248 611 233 Q 623 217 624 192 Q 623 167 611 152 Q 600 136 584 136 Q 562 137 550 163 L 548 168 L 548 168 L 543 168 L 496 168 L 496 160 L 496 160 L 496 16 L 496 16 L 360 16 L 360 16 L 360 27 L 360 27 Q 390 45 392 80 Q 391 108 371 126 Q 350 143 320 144 Q 290 143 269 126 Q 249 108 248 80 Q 250 45 280 27 L 280 16 L 280 16 L 144 16 L 144 16 Z" />
</svg>