<svg xmlns="http://www.w3.org/2000/svg" viewBox="0 0 639 512">
  <path d="M 448 288 Q 431 288 416 285 L 416 352 L 416 352 L 336 352 L 336 352 L 336 242 L 336 242 Q 327 234 320 224 L 304 224 L 304 224 L 304 352 L 304 352 L 208 352 L 208 352 L 208 224 L 208 224 L 176 224 L 176 224 L 176 352 L 176 352 L 96 352 L 96 352 L 96 224 L 96 224 L 64 224 L 64 224 L 64 352 L 64 352 L 48 352 L 48 352 L 48 384 L 48 384 L 64 384 L 464 384 L 464 352 L 464 352 L 448 352 L 448 352 L 448 288 L 448 288 Z M 256 0 L 0 144 L 256 0 L 0 144 L 0 160 L 0 160 L 0 192 L 0 192 L 32 192 L 301 192 Q 295 177 291 160 L 37 160 L 37 160 L 256 37 L 256 37 L 302 63 L 302 63 Q 309 48 318 35 L 256 0 L 256 0 Z M 24 448 L 40 448 L 24 448 L 488 448 L 488 416 L 488 416 L 472 416 L 24 416 L 24 448 L 24 448 Z M 0 480 L 0 512 L 0 480 L 0 512 L 16 512 L 512 512 L 512 480 L 512 480 L 496 480 L 0 480 Z M 448 32 Q 474 32 496 45 L 496 45 L 496 45 Q 518 58 531 80 Q 544 103 544 128 Q 544 153 531 176 Q 518 199 496 211 Q 474 224 448 224 Q 422 224 400 211 Q 378 199 365 176 Q 352 153 352 128 Q 352 103 365 80 Q 378 58 400 45 Q 422 32 448 32 L 448 32 Z M 448 256 Q 493 255 527 229 L 605 307 L 605 307 L 616 318 L 616 318 L 639 296 L 639 296 L 627 284 L 627 284 L 549 207 L 549 207 Q 575 173 576 128 Q 575 74 539 38 Q 502 2 448 0 Q 394 2 357 38 Q 321 74 320 128 Q 321 183 357 219 Q 394 255 448 256 L 448 256 Z" />
</svg>