<svg xmlns="http://www.w3.org/2000/svg" viewBox="0 0 512 448">
  <path d="M 160 64 L 64 64 L 160 64 L 64 64 L 64 384 L 64 384 L 160 384 L 192 384 L 192 448 L 192 448 L 160 448 L 0 448 L 0 416 L 0 416 L 0 32 L 0 32 L 0 0 L 0 0 L 32 0 L 192 0 L 192 64 L 192 64 L 160 64 L 160 64 Z M 169 247 L 147 224 L 169 247 L 147 224 L 169 201 L 169 201 L 297 73 L 297 73 L 320 51 L 320 51 L 365 96 L 365 96 L 343 119 L 343 119 L 269 192 L 269 192 L 480 192 L 512 192 L 512 256 L 512 256 L 480 256 L 269 256 L 343 329 L 343 329 L 365 352 L 365 352 L 320 397 L 320 397 L 297 375 L 297 375 L 169 247 L 169 247 Z" />
</svg>