<svg xmlns="http://www.w3.org/2000/svg" viewBox="0 0 416 512">
  <path d="M 208 0 Q 140 2 95 47 L 95 47 L 95 47 Q 50 92 48 160 Q 48 168 49 177 Q 28 180 14 195 Q 0 210 0 232 L 0 280 L 0 280 L 0 288 L 0 288 L 8 288 L 416 288 L 416 280 L 416 280 L 416 232 L 416 232 Q 416 210 402 195 Q 388 180 367 177 Q 368 168 368 160 Q 366 92 321 47 Q 276 2 208 0 L 208 0 Z M 64 160 Q 66 99 106 58 L 106 58 L 106 58 Q 147 18 208 16 Q 269 18 310 58 Q 350 99 352 160 Q 352 172 350 183 L 349 192 L 349 192 L 358 192 L 360 192 Q 377 192 388 204 Q 400 215 400 232 L 400 272 L 400 272 L 368 272 L 16 272 L 16 232 L 16 232 Q 16 215 28 204 Q 39 192 56 192 L 58 192 L 67 192 L 66 183 L 66 183 Q 64 172 64 160 L 64 160 Z M 199 497 L 208 512 L 199 497 L 208 512 L 218 497 L 218 497 L 331 320 L 331 320 L 312 320 L 312 320 L 208 482 L 208 482 L 104 320 L 104 320 L 85 320 L 85 320 L 199 497 L 199 497 Z" />
</svg>