<svg xmlns="http://www.w3.org/2000/svg" viewBox="0 0 512 512">
  <path d="M 496 256 Q 495 191 464 136 L 464 136 L 464 136 Q 432 81 376 48 Q 319 16 256 16 Q 193 16 136 48 Q 80 81 48 136 Q 17 191 16 256 Q 17 321 48 376 Q 80 431 136 464 Q 193 496 256 496 Q 319 496 376 464 Q 432 431 464 376 Q 495 321 496 256 L 496 256 Z M 0 256 Q 1 186 34 128 L 34 128 L 34 128 Q 68 70 128 34 Q 189 0 256 0 Q 323 0 384 34 Q 444 70 478 128 Q 511 186 512 256 Q 511 326 478 384 Q 444 442 384 478 Q 323 512 256 512 Q 189 512 128 478 Q 68 442 34 384 Q 1 326 0 256 L 0 256 Z M 208 96 L 208 104 L 208 96 L 208 104 L 208 128 L 208 128 L 304 128 L 304 128 L 304 104 L 304 104 L 304 96 L 304 96 L 320 96 L 320 96 L 320 104 L 320 104 L 320 128 L 320 128 L 368 128 L 384 128 L 384 144 L 384 144 L 384 208 L 384 208 L 384 224 L 384 224 L 384 368 L 384 368 L 384 384 L 384 384 L 368 384 L 128 384 L 128 368 L 128 368 L 128 224 L 128 224 L 128 208 L 128 208 L 128 144 L 128 144 L 128 128 L 128 128 L 144 128 L 192 128 L 192 104 L 192 104 L 192 96 L 192 96 L 208 96 L 208 96 Z M 192 168 L 192 144 L 192 168 L 192 144 L 144 144 L 144 144 L 144 208 L 144 208 L 368 208 L 368 208 L 368 144 L 368 144 L 320 144 L 320 144 L 320 168 L 320 168 L 320 176 L 320 176 L 304 176 L 304 176 L 304 168 L 304 168 L 304 144 L 304 144 L 208 144 L 208 144 L 208 168 L 208 168 L 208 176 L 208 176 L 192 176 L 192 176 L 192 168 L 192 168 Z M 368 224 L 144 224 L 368 224 L 144 224 L 144 368 L 144 368 L 368 368 L 368 368 L 368 224 L 368 224 Z" />
</svg>