<svg xmlns="http://www.w3.org/2000/svg" viewBox="0 0 512 512">
  <path d="M 224 121.6 L 243.2 121.6 L 243.2 102.4 L 224 102.4 L 224 121.6 L 224 121.6 Z M 224 132.8 L 236.8 148 L 243.2 141.6 L 243.2 132.8 L 224 132.8 L 224 132.8 Z M 288 132.8 L 268.8 132.8 L 268.8 141.6 L 275.2 148 L 288 132.8 L 288 132.8 Z M 288 121.6 L 288 102.4 L 268.8 102.4 L 268.8 121.6 L 288 121.6 L 288 121.6 Z M 403.2 121.6 L 422.4 121.6 L 422.4 102.4 L 403.2 102.4 L 403.2 121.6 L 403.2 121.6 Z M 403.2 224 L 384 224 L 384 243.2 L 403.2 243.2 L 403.2 224 L 403.2 224 Z M 424.8 224 L 424.8 243.2 L 435.2 243.2 L 440.8 233.6 L 424.8 224 L 424.8 224 Z M 424.8 288 L 440.8 278.4 L 435.2 268.8 L 424.8 268.8 L 424.8 288 L 424.8 288 Z M 403.2 288 L 403.2 268.8 L 384 268.8 L 384 288 L 403.2 288 L 403.2 288 Z M 403.2 390.4 L 403.2 409.6 L 422.4 409.6 L 422.4 390.4 L 403.2 390.4 L 403.2 390.4 Z M 288 390.4 L 268.8 390.4 L 268.8 409.6 L 288 409.6 L 288 390.4 L 288 390.4 Z M 288 379.2 L 275.2 364.8 L 268.8 370.4 L 268.8 379.2 L 288 379.2 L 288 379.2 Z M 224 379.2 L 243.2 379.2 L 243.2 370.4 L 236.8 364.8 L 224 379.2 L 224 379.2 Z M 224 390.4 L 224 409.6 L 243.2 409.6 L 243.2 390.4 L 224 390.4 L 224 390.4 Z M 108.8 390.4 L 89.6 390.4 L 89.6 409.6 L 108.8 409.6 L 108.8 390.4 L 108.8 390.4 Z M 108.8 288 L 128 288 L 128 268.8 L 108.8 268.8 L 108.8 288 L 108.8 288 Z M 88 288 L 88 268.8 L 76.8 268.8 L 71.2 278.4 L 88 288 L 88 288 Z M 88 224 L 71.2 233.6 L 76.8 243.2 L 88 243.2 L 88 224 L 88 224 Z M 108.8 224 L 108.8 243.2 L 128 243.2 L 128 224 L 108.8 224 L 108.8 224 Z M 108.8 121.6 L 108.8 102.4 L 89.6 102.4 L 89.6 121.6 L 108.8 121.6 L 108.8 121.6 Z M 204.8 121.6 L 204.8 132.8 L 243.2 132.8 L 243.2 121.6 L 204.8 121.6 L 204.8 121.6 Z M 211.2 118.4 Q 192.8 134.4 192 160 L 230.4 160 Q 230.4 153.6 236.8 148 L 211.2 118.4 L 211.2 118.4 Z M 192 160 Q 192.8 186.4 212 201.6 L 212 201.6 Q 230.4 217.6 256 217.6 L 256 179.2 Q 243.2 178.4 236.8 172.8 Q 230.4 166.4 230.4 160 L 192 160 L 192 160 Z M 256 217.6 Q 281.6 217.6 300 201.6 L 300 201.6 Q 319.2 186.4 320 160 L 281.6 160 Q 281.6 166.4 275.2 172.8 Q 268.8 178.4 256 179.2 L 256 217.6 L 256 217.6 Z M 320 160 Q 319.2 134.4 300.8 118.4 L 275.2 147.2 Q 281.6 153.6 281.6 160 L 320 160 L 320 160 Z M 307.2 132.8 L 307.2 121.6 L 268.8 121.6 L 268.8 132.8 L 307.2 132.8 L 307.2 132.8 Z M 288 140.8 L 403.2 140.8 L 403.2 102.4 L 288 102.4 L 288 140.8 L 288 140.8 Z M 384 121.6 L 384 224 L 422.4 224 L 422.4 121.6 L 384 121.6 L 384 121.6 Z M 403.2 243.2 L 424.8 243.2 L 424.8 204.8 L 403.2 204.8 L 403.2 243.2 L 403.2 243.2 Z M 440.8 233.6 Q 448.8 223.2 454.4 224 L 454.4 185.6 Q 423.2 188 408 214.4 L 440.8 233.6 L 440.8 233.6 Z M 454.4 224 Q 459.2 223.2 466.4 231.2 Q 472.8 240 473.6 256 L 512 256 Q 512 228.8 496.8 208 Q 481.6 187.2 454.4 185.6 L 454.4 224 L 454.4 224 Z M 473.6 256 Q 472.8 272 466.4 280.8 Q 459.2 288.8 454.4 288 L 454.4 326.4 Q 481.6 324.8 496.8 304 Q 512 284 512 256 L 473.6 256 L 473.6 256 Z M 454.4 288 Q 448 288.8 440.8 278.4 L 408 297.6 Q 423.2 324 454.4 326.4 L 454.4 288 L 454.4 288 Z M 424.8 268.8 L 403.2 268.8 L 403.2 307.2 L 424.8 307.2 L 424.8 268.8 L 424.8 268.8 Z M 384 288 L 384 390.4 L 422.4 390.4 L 422.4 288 L 384 288 L 384 288 Z M 403.2 371.2 L 288 371.2 L 288 409.6 L 403.2 409.6 L 403.2 371.2 L 403.2 371.2 Z M 307.2 390.4 L 307.2 379.2 L 268.8 379.2 L 268.8 390.4 L 307.2 390.4 L 307.2 390.4 Z M 300.8 393.6 Q 319.2 377.6 320 352 L 281.6 352 Q 281.6 358.4 275.2 364.8 L 300.8 393.6 L 300.8 393.6 Z M 320 352 Q 319.2 325.6 300 310.4 L 300 310.4 Q 281.6 294.4 256 294.4 L 256 332.8 Q 268.8 333.6 275.2 339.2 Q 281.6 345.6 281.6 352 L 320 352 L 320 352 Z M 256 294.4 Q 230.4 294.4 212 310.4 L 212 310.4 Q 192.8 325.6 192 352 L 230.4 352 Q 230.4 345.6 236.8 339.2 Q 243.2 333.6 256 332.8 L 256 294.4 L 256 294.4 Z M 192 352 Q 192.8 377.6 211.2 393.6 L 236.8 364.8 Q 230.4 358.4 230.4 352 L 192 352 L 192 352 Z M 204.8 379.2 L 204.8 390.4 L 243.2 390.4 L 243.2 379.2 L 204.8 379.2 L 204.8 379.2 Z M 224 371.2 L 108.8 371.2 L 108.8 409.6 L 224 409.6 L 224 371.2 L 224 371.2 Z M 128 390.4 L 128 288 L 89.6 288 L 89.6 390.4 L 128 390.4 L 128 390.4 Z M 108.8 268.8 L 88 268.8 L 88 307.2 L 108.8 307.2 L 108.8 268.8 L 108.8 268.8 Z M 71.2 278.4 Q 64 288.8 57.6 288 L 57.6 326.4 Q 89.6 324 104 297.6 L 71.2 278.4 L 71.2 278.4 Z M 57.6 288 Q 52.8 288.8 45.6 280.8 Q 39.2 272 38.4 256 L 0 256 Q 0 283.2 15.2 304 Q 30.4 324.8 57.6 326.4 L 57.6 288 L 57.6 288 Z M 38.4 256 Q 39.2 240 45.6 231.2 Q 52.8 223.2 57.6 224 L 57.6 185.6 Q 30.4 187.2 15.2 208 Q 0 228 0 256 L 38.4 256 L 38.4 256 Z M 57.6 224 Q 64 223.2 71.2 233.6 L 104 214.4 Q 89.6 188 57.6 185.6 L 57.6 224 L 57.6 224 Z M 88 243.2 L 108.8 243.2 L 108.8 204.8 L 88 204.8 L 88 243.2 L 88 243.2 Z M 128 224 L 128 121.6 L 89.6 121.6 L 89.6 224 L 128 224 L 128 224 Z M 108.8 140.8 L 224 140.8 L 224 102.4 L 108.8 102.4 L 108.8 140.8 L 108.8 140.8 Z" />
</svg>