<svg xmlns="http://www.w3.org/2000/svg" viewBox="0 0 512 512">
  <path d="M 408 128 L 435.2 128 L 435.2 102.4 L 409.6 102.4 L 384 102.4 L 346.4 102.4 L 318.4 57.6 L 314.4 51.2 L 307.2 51.2 L 204.8 51.2 L 197.6 51.2 L 193.6 57.6 L 165.6 102.4 L 144 102.4 L 176.8 128 L 382.4 128 L 371.2 281.6 L 395.2 300.8 L 408 128 L 408 128 Z M 362.4 405.6 L 360 435.2 L 152 435.2 L 136.8 227.2 L 109.6 205.6 L 128 460.8 L 384 460.8 L 386.4 424 L 362.4 404.8 L 362.4 405.6 Z M 196 102.4 L 212 76.8 L 300 76.8 L 316 102.4 L 196 102.4 L 196 102.4 Z M 25.6 59.2 L 16 51.2 L 0 71.2 L 10.4 79.2 L 486.4 452.8 L 496 460.8 L 512 440.8 L 502.4 432.8 L 25.6 59.2 L 25.6 59.2 Z" />
</svg>