<svg xmlns="http://www.w3.org/2000/svg" viewBox="0 0 526 512">
  <path d="M 24 256 Q 25 189 57 135 L 57 135 L 57 135 Q 89 81 143 49 L 143 49 L 143 49 Q 197 17 264 16 Q 331 17 385 49 Q 439 81 471 135 Q 503 189 504 256 Q 504 288 496 318 L 511 322 L 511 322 Q 520 290 520 256 Q 519 184 485 127 Q 451 69 393 35 Q 336 1 264 0 Q 192 1 135 35 Q 77 69 43 127 Q 9 184 8 256 Q 8 290 17 322 L 32 318 L 32 318 Q 24 288 24 256 L 24 256 Z M 264 496 Q 223 496 187 483 L 181 498 L 181 498 Q 220 512 264 512 Q 308 512 347 498 L 341 483 L 341 483 Q 305 496 264 496 L 264 496 Z M 395 144 L 402 141 L 395 144 L 402 141 L 397 126 L 397 126 L 389 128 L 389 128 Q 359 139 337 154 Q 315 169 306 178 L 301 184 L 301 184 L 312 195 L 312 195 L 318 190 L 318 190 Q 326 181 346 167 Q 366 154 395 144 L 395 144 Z M 104 240 L 104 256 L 104 240 L 104 256 L 112 256 L 232 256 L 232 240 L 232 240 L 224 240 L 104 240 Z M 296 240 L 296 256 L 296 240 L 296 256 L 304 256 L 424 256 L 424 240 L 424 240 L 416 240 L 296 240 Z M 120 349 Q 118 344 114 340 Q 101 328 85 328 Q 69 328 57 340 Q 52 345 49 352 Q 28 348 12 363 Q 0 375 0 391 Q 0 407 12 419 Q 12 420 12 420 Q 13 420 13 421 Q 4 437 7 455 Q 9 474 23 488 Q 37 501 55 504 Q 73 506 89 497 Q 90 497 90 498 Q 91 498 91 499 Q 103 510 119 510 Q 135 510 148 499 Q 163 482 158 462 Q 165 459 170 453 Q 182 441 182 425 Q 182 409 170 397 Q 166 393 161 390 L 205 316 L 205 316 L 194 305 L 194 305 L 120 349 L 120 349 Z M 175 335 L 142 390 L 175 335 L 142 390 L 137 399 L 137 399 L 147 402 L 147 402 Q 154 403 159 408 Q 173 425 159 442 Q 154 447 147 448 L 136 450 L 136 450 L 141 460 L 141 460 Q 147 475 136 487 Q 119 501 102 487 Q 100 485 98 482 L 94 474 L 94 474 L 87 480 L 87 480 Q 74 489 60 488 Q 45 487 34 476 Q 23 465 22 450 Q 21 436 30 424 L 36 416 L 36 416 L 28 412 L 28 412 Q 25 410 23 408 Q 9 391 23 374 Q 36 363 50 369 L 60 374 L 60 374 L 62 364 L 62 364 Q 63 357 68 351 Q 85 337 102 351 Q 107 356 109 363 L 111 374 L 111 374 L 121 368 L 121 368 L 175 335 L 175 335 Z M 321 317 L 365 391 L 321 317 L 365 391 Q 360 393 356 398 Q 344 410 344 426 Q 344 442 356 454 Q 361 460 368 462 Q 364 483 379 499 Q 391 511 407 511 Q 423 511 435 499 Q 436 499 437 498 Q 453 507 471 504 Q 490 502 504 488 Q 517 474 520 456 Q 522 438 513 422 Q 513 421 514 421 Q 514 420 515 420 Q 526 408 526 392 Q 526 376 515 364 Q 498 348 478 353 Q 475 346 469 341 Q 457 329 441 329 Q 425 329 413 341 Q 409 345 406 350 L 332 306 L 332 306 L 321 317 L 321 317 Z M 351 336 L 406 369 L 351 336 L 406 369 L 415 374 L 415 374 L 418 364 L 418 364 Q 419 357 424 352 Q 441 338 458 352 Q 463 358 465 365 L 467 375 L 467 375 L 476 370 L 476 370 Q 491 364 503 375 Q 517 392 503 409 Q 501 411 498 413 L 490 417 L 490 417 L 496 425 L 496 425 Q 505 437 504 451 Q 503 466 492 477 Q 481 488 466 489 Q 452 490 440 481 L 432 475 L 432 475 L 428 483 L 428 483 Q 426 486 424 488 Q 407 502 390 488 Q 379 476 385 461 L 390 451 L 390 451 L 380 449 L 380 449 Q 373 448 367 443 Q 353 426 367 409 Q 372 404 379 402 L 390 400 L 390 400 L 384 391 L 384 391 L 351 336 L 351 336 Z M 126 141 L 134 144 L 126 141 L 134 144 Q 162 154 182 168 Q 202 181 210 190 L 216 195 L 216 195 L 227 184 L 227 184 L 222 178 L 222 178 Q 213 169 191 154 Q 169 139 139 128 L 131 126 L 131 126 L 126 141 L 126 141 Z" />
</svg>