<svg xmlns="http://www.w3.org/2000/svg" viewBox="0 0 640 512">
  <path d="M 256 496 Q 334 495 394 453 Q 397 460 401 467 Q 338 511 256 512 Q 184 511 127 477 Q 69 443 35 385 Q 1 328 0 256 Q 1 184 35 127 Q 69 69 127 35 Q 184 1 256 0 Q 343 1 408 50 Q 473 99 500 177 L 488 195 L 488 195 Q 466 116 404 67 Q 341 18 256 16 Q 189 17 135 49 Q 81 81 49 135 Q 17 189 16 256 Q 17 323 49 377 Q 81 431 135 463 Q 189 495 256 496 L 256 496 Z M 144 144 L 144 208 L 144 144 L 144 208 L 176 208 L 176 208 L 176 144 L 176 144 L 144 144 L 144 144 Z M 128 128 L 144 128 L 128 128 L 192 128 L 192 144 L 192 144 L 192 208 L 192 208 L 192 224 L 192 224 L 176 224 L 128 224 L 128 208 L 128 208 L 128 144 L 128 144 L 128 128 L 128 128 Z M 240 144 L 240 208 L 240 144 L 240 208 L 272 208 L 272 208 L 272 144 L 272 144 L 240 144 L 240 144 Z M 240 128 L 272 128 L 240 128 L 288 128 L 288 144 L 288 144 L 288 208 L 288 208 L 288 224 L 288 224 L 272 224 L 224 224 L 224 208 L 224 208 L 224 144 L 224 144 L 224 128 L 224 128 L 240 128 L 240 128 Z M 336 144 L 336 208 L 336 144 L 336 208 L 368 208 L 368 208 L 368 144 L 368 144 L 336 144 L 336 144 Z M 320 128 L 336 128 L 320 128 L 384 128 L 384 144 L 384 144 L 384 208 L 384 208 L 384 224 L 384 224 L 368 224 L 320 224 L 320 208 L 320 208 L 320 144 L 320 144 L 320 128 L 320 128 Z M 448 344 Q 432 369 432 398 L 432 400 L 432 400 Q 433 441 460 468 Q 487 495 528 496 Q 569 495 596 468 Q 623 441 624 400 L 624 398 L 624 398 Q 624 369 608 344 L 528 221 L 528 221 L 448 344 L 448 344 Z M 435 336 L 519 207 L 435 336 L 519 207 L 528 192 L 528 192 L 538 207 L 538 207 L 622 336 L 622 336 Q 640 364 640 398 L 640 400 L 640 400 Q 639 448 607 479 Q 576 511 528 512 Q 480 511 449 479 Q 417 448 416 400 L 416 398 L 416 398 Q 416 364 435 336 L 435 336 Z" />
</svg>