<svg xmlns="http://www.w3.org/2000/svg" viewBox="0 0 512 512">
  <path d="M 256 496 Q 189 495 135 463 L 135 463 L 135 463 Q 81 431 49 377 L 49 377 L 49 377 Q 17 323 16 256 Q 18 159 81 92 L 420 431 L 420 431 Q 353 494 256 496 L 256 496 Z M 92 81 Q 159 18 256 16 Q 323 17 377 49 Q 431 81 463 135 Q 495 189 496 256 Q 494 353 431 420 L 92 81 L 92 81 Z M 256 512 Q 326 511 384 478 L 384 478 L 384 478 Q 442 444 478 384 Q 512 323 512 256 Q 512 189 478 128 Q 442 68 384 34 Q 326 1 256 0 Q 186 1 128 34 Q 70 68 34 128 Q 0 189 0 256 Q 0 323 34 384 Q 70 444 128 478 Q 186 511 256 512 L 256 512 Z M 296 353 L 281 368 L 296 353 L 281 368 L 231 368 L 231 368 L 192 329 L 192 329 L 192 249 L 192 249 L 160 217 L 160 217 L 130 208 L 130 208 L 123 206 L 123 206 L 118 222 L 118 222 L 126 224 L 126 224 L 176 238 L 176 238 L 176 281 L 176 281 L 127 288 L 127 288 L 119 289 L 119 289 L 121 305 L 121 305 L 129 304 L 129 304 L 176 297 L 176 297 L 176 336 L 176 336 L 177 336 L 177 336 L 140 361 L 140 361 L 133 366 L 133 366 L 142 379 L 142 379 L 149 374 L 149 374 L 188 348 L 188 348 L 224 384 L 224 384 L 288 384 L 288 384 L 308 364 L 308 364 L 296 353 L 296 353 Z M 224 128 L 204 148 L 224 128 L 204 148 L 216 159 L 216 159 L 231 144 L 231 144 L 281 144 L 281 144 L 320 183 L 320 183 L 320 232 L 320 232 L 320 232 L 320 232 L 320 263 L 320 263 L 336 279 L 336 279 L 336 238 L 336 238 L 386 224 L 386 224 L 394 222 L 394 222 L 390 206 L 390 206 L 382 208 L 382 208 L 336 221 L 336 221 L 336 176 L 336 176 L 335 175 L 335 175 L 373 151 L 373 151 L 379 146 L 379 146 L 370 133 L 370 133 L 364 137 L 364 137 L 324 164 L 324 164 L 288 128 L 288 128 L 224 128 L 224 128 Z M 385 288 L 338 281 L 385 288 L 338 281 L 357 300 L 357 300 L 383 304 L 383 304 L 391 305 L 391 305 L 393 289 L 393 289 L 385 288 L 385 288 Z" />
</svg>