<svg xmlns="http://www.w3.org/2000/svg" viewBox="0 0 560 509">
  <path d="M 16 125 Q 17 61 44 7 L 30 0 L 30 0 Q 1 57 0 125 Q 1 193 30 250 L 44 243 L 44 243 Q 17 189 16 125 L 16 125 Z M 96 125 Q 96 170 115 207 L 130 200 L 130 200 Q 112 166 112 125 Q 112 84 130 50 L 115 43 L 115 43 Q 96 80 96 125 L 96 125 Z M 445 43 L 430 50 L 445 43 L 430 50 Q 448 84 448 125 Q 448 166 430 200 L 445 207 L 445 207 Q 464 170 464 125 Q 464 80 445 43 L 445 43 Z M 544 125 Q 543 189 516 243 L 531 250 L 531 250 Q 559 193 560 125 Q 559 57 531 0 L 516 7 L 516 7 Q 543 61 544 125 L 544 125 Z M 280 77 Q 307 78 322 101 Q 334 125 322 149 Q 307 172 280 173 Q 253 172 238 149 Q 226 125 238 101 Q 253 78 280 77 L 280 77 Z M 321 174 Q 343 156 344 125 Q 343 98 325 80 Q 307 62 280 61 Q 253 62 235 80 Q 217 98 216 125 Q 217 156 239 174 L 147 381 L 147 381 L 144 381 L 144 381 L 144 389 L 144 389 L 91 509 L 91 509 L 108 509 L 108 509 L 158 397 L 158 397 L 402 397 L 402 397 L 452 509 L 452 509 L 469 509 L 469 509 L 321 174 L 321 174 Z M 395 381 L 165 381 L 395 381 L 165 381 L 200 301 L 200 301 L 360 301 L 360 301 L 395 381 L 395 381 Z M 353 285 L 207 285 L 353 285 L 207 285 L 253 183 L 253 183 Q 265 189 280 189 Q 295 189 308 183 L 353 285 L 353 285 Z" />
</svg>