<svg xmlns="http://www.w3.org/2000/svg" viewBox="0 0 512 512">
  <path d="M 0 64 L 25.6 64 L 332.8 64 L 358.4 64 L 358.4 89.6 L 358.4 133.6 Q 320 164 288 200 Q 260 230.4 241.6 268.8 L 51.2 268.8 L 51.2 320 L 51.2 371.2 L 239.2 371.2 Q 249.6 400 269.6 422.4 L 25.6 422.4 L 0 422.4 L 0 396.8 L 0 320 L 0 243.2 L 0 217.6 L 0 89.6 L 0 64 L 0 64 Z M 230.4 320 Q 230.4 333.6 232.8 345.6 L 102.4 345.6 L 76.8 345.6 L 76.8 294.4 L 102.4 294.4 L 233.6 294.4 Q 230.4 307.2 230.4 320 L 230.4 320 Z M 410.4 217.6 Q 432.8 193.6 435.2 192 Q 436.8 192.8 455.2 212 Q 473.6 232 492 260.8 Q 510.4 289.6 512 320 Q 510.4 374.4 474.4 410.4 Q 438.4 446.4 384 448 Q 329.6 446.4 293.6 410.4 Q 257.6 374.4 256 320 Q 257.6 284 282.4 248.8 Q 307.2 213.6 332 190.4 Q 356.8 167.2 358.4 166.4 Q 359.2 167.2 374.4 180.8 Q 390.4 195.2 410.4 217.6 L 410.4 217.6 Z M 424 384.8 Q 442.4 371.2 446.4 350.4 L 446.4 350.4 Q 450.4 328.8 440 308 Q 439.2 305.6 437.6 303.2 Q 436 300.8 434.4 298.4 L 405.6 332 Q 404.8 331.2 393.6 316.8 Q 382.4 302.4 370.4 287.2 Q 358.4 272 356 268.8 Q 338.4 290.4 328.8 305.6 Q 320 320.8 320 334.4 Q 320.8 364 339.2 380 Q 356.8 396.8 384.8 396.8 Q 406.4 396.8 424 384.8 L 424 384.8 Z" />
</svg>