<svg xmlns="http://www.w3.org/2000/svg" viewBox="0 0 512 448">
  <path d="M 9 432 L 0 448 L 9 432 L 0 448 L 18 448 L 512 448 L 503 432 L 503 432 L 265 16 L 265 16 L 256 0 L 256 0 L 247 16 L 247 16 L 9 432 L 9 432 Z M 484 432 L 28 432 L 484 432 L 28 432 L 256 32 L 256 32 L 484 432 L 484 432 Z M 264 144 L 248 144 L 264 144 L 248 144 L 248 152 L 248 152 L 248 312 L 248 312 L 248 320 L 248 320 L 264 320 L 264 320 L 264 312 L 264 312 L 264 152 L 264 152 L 264 144 L 264 144 Z M 240 384 L 272 384 L 240 384 L 272 384 L 272 352 L 272 352 L 240 352 L 240 352 L 240 384 L 240 384 Z" />
</svg>