<svg xmlns="http://www.w3.org/2000/svg" viewBox="0 0 635 496">
  <path d="M 524 19 Q 488 37 466 71 L 466 71 L 466 71 Q 445 105 444 148 Q 446 209 486 250 Q 527 290 588 292 Q 598 292 608 290 Q 622 288 635 284 Q 626 296 615 305 Q 566 351 496 352 Q 476 352 457 348 Q 444 332 427 321 Q 459 336 496 336 Q 547 336 587 308 Q 519 306 475 260 Q 430 215 428 148 Q 429 106 447 72 Q 465 38 497 16 L 496 16 L 496 16 Q 428 18 383 63 Q 338 108 336 176 Q 336 196 341 214 Q 332 211 323 210 Q 320 193 320 176 Q 322 101 371 52 Q 421 2 496 0 Q 509 0 522 2 Q 537 4 550 9 Q 537 12 524 19 L 524 19 Z M 176 208 Q 223 210 251 244 Q 255 249 258 254 Q 263 251 267 249 Q 284 240 304 240 Q 338 241 361 263 Q 383 286 384 320 Q 384 325 383 331 Q 383 334 382 337 Q 385 338 388 339 Q 415 346 431 367 Q 447 387 448 416 L 448 480 L 448 480 L 448 496 L 448 496 L 432 496 L 0 496 L 0 480 L 0 480 L 0 400 L 0 400 Q 1 363 23 338 Q 45 312 80 305 L 80 304 L 80 304 Q 81 263 108 236 Q 135 209 176 208 L 176 208 Z M 432 416 Q 431 392 417 375 L 417 375 L 417 375 Q 402 357 379 353 L 363 350 L 363 350 L 366 334 L 366 334 Q 368 327 368 320 Q 367 293 349 275 Q 331 257 304 256 Q 283 256 267 267 L 253 277 L 253 277 L 244 263 L 244 263 Q 221 226 176 224 Q 142 225 119 247 Q 97 270 96 304 L 96 305 L 96 305 L 96 319 L 96 319 L 83 321 L 83 321 Q 54 326 35 348 Q 17 370 16 400 L 16 480 L 16 480 L 96 480 L 432 480 L 432 416 L 432 416 Z" />
</svg>