<svg xmlns="http://www.w3.org/2000/svg" viewBox="0 0 640 512">
  <path d="M 16 104 L 16 77 L 16 104 L 16 77 Q 23 60 65 39 Q 106 18 192 16 Q 278 18 319 39 Q 361 60 368 77 L 368 96 L 368 96 L 384 96 L 384 96 L 384 75 L 384 75 L 384 73 L 384 73 L 383 71 L 383 71 Q 374 50 328 26 Q 283 2 192 0 Q 101 2 56 26 Q 10 50 1 71 L 0 73 L 0 73 L 0 75 L 0 75 L 0 410 L 0 410 L 0 418 L 0 418 L 8 418 L 32 418 L 32 464 L 32 464 L 32 480 L 32 480 L 48 480 L 112 480 L 112 464 L 112 464 L 112 418 L 112 418 L 224 418 L 224 418 L 224 402 L 224 402 L 112 402 L 112 402 L 112 400 L 112 400 L 96 400 L 32 400 L 32 402 L 32 402 L 16 402 L 16 402 L 16 248 L 16 248 L 192 248 L 278 248 L 283 232 L 283 232 L 200 232 L 200 232 L 200 120 L 200 120 L 336 120 L 336 120 L 336 104 L 336 104 L 192 104 L 16 104 Z M 16 120 L 184 120 L 16 120 L 184 120 L 184 232 L 184 232 L 16 232 L 16 232 L 16 120 L 16 120 Z M 48 418 L 96 418 L 48 418 L 96 418 L 96 464 L 96 464 L 48 464 L 48 464 L 48 418 L 48 418 Z M 96 336 Q 81 335 80 320 Q 81 305 96 304 Q 111 305 112 320 Q 111 335 96 336 L 96 336 Z M 64 320 Q 64 334 73 343 L 73 343 L 73 343 Q 82 352 96 352 Q 110 352 119 343 Q 128 334 128 320 Q 128 306 119 297 Q 110 288 96 288 Q 82 288 73 297 Q 64 306 64 320 L 64 320 Z M 384 144 L 384 176 L 384 144 L 384 176 L 512 176 L 512 176 L 512 144 L 512 144 L 384 144 L 384 144 Z M 368 176 L 368 144 L 368 176 L 368 144 L 368 128 L 368 128 L 384 128 L 528 128 L 528 144 L 528 144 L 528 176 L 528 176 L 552 176 L 558 176 L 560 182 L 560 182 L 590 288 L 590 288 L 624 288 L 640 288 L 640 304 L 640 304 L 640 432 L 640 432 L 640 448 L 640 448 L 640 496 L 640 496 L 640 512 L 640 512 L 624 512 L 560 512 L 560 496 L 560 496 L 560 448 L 560 448 L 336 448 L 336 448 L 336 496 L 336 496 L 336 512 L 336 512 L 320 512 L 256 512 L 256 496 L 256 496 L 256 448 L 256 448 L 256 432 L 256 432 L 256 304 L 256 304 L 256 288 L 256 288 L 272 288 L 306 288 L 336 182 L 336 182 L 338 176 L 338 176 L 344 176 L 368 176 Z M 560 432 L 576 432 L 560 432 L 624 432 L 624 304 L 624 304 L 272 304 L 272 304 L 272 432 L 272 432 L 320 432 L 560 432 Z M 576 448 L 576 496 L 576 448 L 576 496 L 624 496 L 624 496 L 624 448 L 624 448 L 576 448 L 576 448 Z M 272 448 L 272 496 L 272 448 L 272 496 L 320 496 L 320 496 L 320 448 L 320 448 L 272 448 L 272 448 Z M 528 192 L 512 192 L 528 192 L 350 192 L 323 288 L 323 288 L 573 288 L 573 288 L 546 192 L 546 192 L 528 192 L 528 192 Z M 320 368 Q 321 383 336 384 Q 351 383 352 368 Q 351 353 336 352 Q 321 353 320 368 L 320 368 Z M 336 400 Q 322 400 313 391 L 313 391 L 313 391 Q 304 382 304 368 Q 304 354 313 345 Q 322 336 336 336 Q 350 336 359 345 Q 368 354 368 368 Q 368 382 359 391 Q 350 400 336 400 L 336 400 Z M 560 352 Q 545 353 544 368 Q 545 383 560 384 Q 575 383 576 368 Q 575 353 560 352 L 560 352 Z M 592 368 Q 592 382 583 391 L 583 391 L 583 391 Q 574 400 560 400 Q 546 400 537 391 Q 528 382 528 368 Q 528 354 537 345 Q 546 336 560 336 Q 574 336 583 345 Q 592 354 592 368 L 592 368 Z" />
</svg>