<svg xmlns="http://www.w3.org/2000/svg" viewBox="0 0 422 512">
  <path d="M 16 16 L 16 112 L 16 16 L 16 112 L 112 112 L 112 112 L 112 16 L 112 16 L 16 16 L 16 16 Z M 0 0 L 16 0 L 0 0 L 128 0 L 128 16 L 128 16 L 128 112 L 128 112 L 128 128 L 128 128 L 112 128 L 72 128 L 72 384 L 72 384 L 112 384 L 128 384 L 128 400 L 128 400 L 128 496 L 128 496 L 128 512 L 128 512 L 112 512 L 0 512 L 0 496 L 0 496 L 0 400 L 0 400 L 0 384 L 0 384 L 16 384 L 56 384 L 56 128 L 56 128 L 16 128 L 0 128 L 0 112 L 0 112 L 0 16 L 0 16 L 0 0 L 0 0 Z M 410 150 L 352 91 L 410 150 L 352 91 L 294 150 L 294 150 L 282 138 L 282 138 L 341 80 L 341 80 L 282 22 L 282 22 L 294 10 L 294 10 L 352 69 L 352 69 L 410 10 L 410 10 L 422 22 L 422 22 L 363 80 L 363 80 L 422 138 L 422 138 L 410 150 L 410 150 Z M 352 192 Q 359 193 360 200 L 360 384 L 360 384 L 400 384 L 416 384 L 416 400 L 416 400 L 416 496 L 416 496 L 416 512 L 416 512 L 400 512 L 288 512 L 288 496 L 288 496 L 288 400 L 288 400 L 288 384 L 288 384 L 304 384 L 344 384 L 344 200 L 344 200 Q 345 193 352 192 L 352 192 Z M 304 496 L 400 496 L 304 496 L 400 496 L 400 400 L 400 400 L 304 400 L 304 400 L 304 496 L 304 496 Z M 112 400 L 16 400 L 112 400 L 16 400 L 16 496 L 16 496 L 112 496 L 112 496 L 112 400 L 112 400 Z" />
</svg>