<svg xmlns="http://www.w3.org/2000/svg" viewBox="0 0 512 384">
  <path d="M 200 0 L 192 0 L 200 0 L 192 0 L 192 16 L 192 16 L 200 16 L 248 16 L 248 80 L 248 80 Q 156 86 95 148 Q 34 211 32 304 L 32 336 L 32 336 L 48 336 L 48 336 L 48 304 L 48 304 Q 50 216 109 157 Q 168 98 256 96 Q 344 98 403 157 Q 462 216 464 304 L 464 336 L 464 336 L 480 336 L 480 336 L 480 304 L 480 304 Q 478 211 417 148 Q 356 86 264 80 L 264 16 L 264 16 L 312 16 L 320 16 L 320 0 L 320 0 L 312 0 L 200 0 Z M 8 368 L 0 368 L 8 368 L 0 368 L 0 384 L 0 384 L 8 384 L 512 384 L 512 368 L 512 368 L 504 368 L 8 368 Z" />
</svg>