<svg xmlns="http://www.w3.org/2000/svg" viewBox="0 0 640 512">
  <path d="M 384 0 L 392 0 L 384 0 L 512 0 L 512 8 L 512 8 L 512 32 L 512 32 L 512 40 L 512 40 L 496 40 L 496 40 L 496 32 L 496 32 L 496 16 L 496 16 L 400 16 L 400 16 L 400 32 L 400 32 L 400 40 L 400 40 L 384 40 L 384 40 L 384 32 L 384 32 L 384 8 L 384 8 L 384 0 L 384 0 Z M 575 192 L 559 192 L 575 192 L 559 192 Q 559 190 560 188 L 560 104 L 560 104 L 508 80 L 508 80 L 387 80 L 387 80 L 340 102 L 340 102 L 322 93 L 322 93 L 384 64 L 384 64 L 511 64 L 511 64 L 576 94 L 576 94 L 576 176 L 576 176 L 576 192 L 576 192 Q 576 192 576 192 L 575 192 L 575 192 Z M 352 192 L 336 192 L 352 192 L 336 192 L 336 154 L 336 154 L 252 112 L 252 112 L 132 112 L 132 112 L 48 154 L 48 154 L 48 192 L 48 192 L 32 192 L 32 192 L 32 144 L 32 144 L 128 96 L 128 96 L 256 96 L 256 96 L 320 128 L 320 128 Q 320 128 320 128 Q 320 128 320 128 L 336 136 L 336 136 Q 336 136 336 136 L 352 144 L 352 144 L 352 192 L 352 192 Z M 608 224 L 640 224 L 608 224 L 640 224 L 640 240 L 640 240 L 606 240 L 606 240 L 576 512 L 576 512 L 64 512 L 64 512 L 34 240 L 34 240 L 0 240 L 0 240 L 0 224 L 0 224 L 32 224 L 48 224 L 48 224 L 48 224 L 592 224 L 592 224 L 592 224 L 592 224 L 608 224 L 608 224 Z M 50 240 L 78 496 L 50 240 L 78 496 L 562 496 L 562 496 L 590 240 L 590 240 L 50 240 L 50 240 Z M 136 0 L 248 0 L 136 0 L 256 0 L 256 8 L 256 8 L 256 48 L 256 48 L 264 48 L 272 48 L 272 64 L 272 64 L 264 64 L 240 64 L 240 56 L 240 56 L 240 16 L 240 16 L 144 16 L 144 16 L 144 56 L 144 56 L 144 64 L 144 64 L 136 64 L 112 64 L 112 48 L 112 48 L 120 48 L 128 48 L 128 8 L 128 8 L 128 0 L 128 0 L 136 0 L 136 0 Z" />
</svg>