<svg xmlns="http://www.w3.org/2000/svg" viewBox="0 0 484 509">
  <path d="M 254 4 L 242 0 L 254 4 L 242 0 L 231 4 L 231 4 L 23 84 L 23 84 L 4 92 L 4 92 L 3 112 L 3 112 Q 0 150 8 203 Q 16 255 40 312 Q 64 369 110 420 Q 156 471 229 503 L 242 509 L 242 509 L 255 503 L 255 503 Q 328 471 374 420 Q 420 369 444 312 Q 468 255 476 203 Q 484 150 481 112 L 480 92 L 480 92 L 461 84 L 461 84 L 254 4 L 254 4 Z M 242 68 Q 242 68 242 68 L 242 68 L 242 68 Q 242 68 242 68 L 418 136 L 418 136 Q 418 167 410 206 Q 403 245 386 286 Q 366 332 331 372 Q 296 412 242 439 L 242 68 L 242 68 Z" />
</svg>