<svg xmlns="http://www.w3.org/2000/svg" viewBox="0 0 448 448">
  <path d="M 18 144 L 74 16 L 18 144 L 74 16 L 189 16 L 189 16 L 162 144 L 162 144 L 144 144 L 18 144 Z M 144 160 L 160 160 L 144 160 L 160 160 L 160 256 L 160 256 L 160 272 L 160 272 L 176 272 L 288 272 L 288 256 L 288 256 L 288 160 L 288 160 L 304 160 L 432 160 L 432 432 L 432 432 L 16 432 L 16 432 L 16 160 L 16 160 L 144 160 L 144 160 Z M 176 160 L 272 160 L 176 160 L 272 160 L 272 256 L 272 256 L 176 256 L 176 256 L 176 160 L 176 160 Z M 286 144 L 259 16 L 286 144 L 259 16 L 374 16 L 374 16 L 430 144 L 430 144 L 304 144 L 286 144 Z M 270 144 L 178 144 L 270 144 L 178 144 L 205 16 L 205 16 L 208 16 L 243 16 L 270 144 L 270 144 Z M 256 0 L 192 0 L 256 0 L 64 0 L 0 144 L 0 144 L 0 432 L 0 432 L 0 448 L 0 448 L 16 448 L 448 448 L 448 432 L 448 432 L 448 144 L 448 144 L 384 0 L 384 0 L 256 0 L 256 0 Z" />
</svg>