<svg xmlns="http://www.w3.org/2000/svg" viewBox="0 0 448 448">
  <path d="M 400 16 L 400 64 L 400 16 L 400 64 L 320 64 L 240 64 L 240 80 L 240 80 L 320 80 L 320 80 Q 368 81 399 113 Q 431 144 432 192 Q 432 200 432 208 L 16 208 L 16 208 Q 16 200 16 192 Q 17 144 49 113 Q 80 81 128 80 L 128 64 L 128 64 L 48 64 L 48 64 L 48 16 L 48 16 L 152 16 L 152 16 L 152 128 L 152 128 L 152 136 L 152 136 L 160 136 L 208 136 L 208 128 L 208 128 L 208 16 L 208 16 L 400 16 L 400 16 Z M 431 224 Q 426 269 412 304 L 36 304 L 36 304 Q 22 269 18 224 L 431 224 L 431 224 Z M 405 320 Q 389 353 371 376 Q 348 406 330 421 Q 321 428 316 431 L 315 432 L 315 432 L 133 432 L 133 432 L 132 431 L 132 431 Q 127 428 118 421 Q 100 406 77 376 Q 59 353 43 320 L 405 320 L 405 320 Z M 168 16 L 192 16 L 168 16 L 192 16 L 192 120 L 192 120 L 168 120 L 168 120 L 168 16 L 168 16 Z M 48 80 L 66 80 L 48 80 L 66 80 Q 36 97 18 126 Q 0 155 0 192 Q 2 280 33 337 Q 64 393 95 421 Q 126 448 128 448 L 320 448 L 320 448 Q 322 448 353 421 Q 384 393 415 337 Q 446 280 448 192 Q 448 155 430 126 Q 412 97 382 80 L 400 80 L 416 80 L 416 64 L 416 64 L 416 16 L 416 16 L 416 0 L 416 0 L 400 0 L 32 0 L 32 16 L 32 16 L 32 64 L 32 64 L 32 80 L 32 80 L 48 80 L 48 80 Z" />
</svg>