<svg xmlns="http://www.w3.org/2000/svg" viewBox="0 0 640 512">
  <path d="M 208 16 L 244 16 L 208 16 L 244 16 L 368 184 L 368 184 L 208 184 L 208 184 L 208 16 L 208 16 Z M 384 200 L 495 200 L 384 200 L 495 200 L 624 246 L 624 246 L 624 266 L 624 266 L 495 312 L 495 312 L 384 312 L 384 312 L 384 312 L 384 312 L 152 312 L 149 312 L 147 314 L 147 314 L 101 352 L 101 352 L 48 352 L 48 352 L 48 264 L 48 264 L 152 264 L 160 264 L 160 248 L 160 248 L 152 248 L 48 248 L 48 160 L 48 160 L 101 160 L 101 160 L 147 198 L 147 198 L 149 200 L 149 200 L 152 200 L 384 200 L 384 200 L 384 200 Z M 32 264 L 32 360 L 32 264 L 32 360 L 32 368 L 32 368 L 40 368 L 107 368 L 109 366 L 109 366 L 155 328 L 155 328 L 192 328 L 192 328 L 192 496 L 192 496 L 184 496 L 184 496 L 184 512 L 184 512 L 192 512 L 248 512 L 248 512 L 248 512 L 304 512 L 312 512 L 312 496 L 312 496 L 304 496 L 264 496 L 388 328 L 388 328 L 496 328 L 499 328 L 635 280 L 635 280 L 640 278 L 640 278 L 640 272 L 640 272 L 640 240 L 640 240 L 640 234 L 640 234 L 635 232 L 635 232 L 499 184 L 499 184 L 497 184 L 388 184 L 264 16 L 264 16 L 304 16 L 312 16 L 312 0 L 312 0 L 304 0 L 248 0 L 248 0 L 248 0 L 200 0 L 184 0 L 184 16 L 184 16 L 192 16 L 192 16 L 192 184 L 192 184 L 155 184 L 155 184 L 109 146 L 109 146 L 107 144 L 107 144 L 104 144 L 32 144 L 32 152 L 32 152 L 32 248 L 32 248 L 8 248 L 0 248 L 0 264 L 0 264 L 8 264 L 32 264 Z M 208 328 L 368 328 L 208 328 L 368 328 L 244 496 L 244 496 L 208 496 L 208 496 L 208 328 L 208 328 Z" />
</svg>