<svg xmlns="http://www.w3.org/2000/svg" viewBox="0 0 384 512">
  <path d="M 192 36 L 192 43 L 192 36 L 192 43 Q 192 71 213 90 L 295 165 L 295 165 Q 330 197 349 239 Q 368 282 368 330 Q 366 400 319 447 Q 272 494 202 496 L 180 496 L 180 496 Q 110 494 64 448 Q 18 402 16 332 Q 16 292 34 258 Q 53 224 86 202 L 104 190 L 104 190 L 104 288 L 104 288 Q 105 312 120 328 Q 136 343 160 344 Q 184 343 200 328 Q 215 312 216 288 L 216 273 L 216 273 Q 216 251 204 233 L 171 183 L 171 183 Q 152 155 152 121 Q 153 72 189 38 L 192 36 L 192 36 Z M 192 14 L 179 26 L 192 14 L 179 26 Q 137 64 136 121 Q 136 160 157 192 L 191 242 L 191 242 Q 200 256 200 273 L 200 288 L 200 288 Q 200 305 188 316 Q 177 328 160 328 Q 143 328 132 316 Q 120 305 120 288 L 120 179 L 120 179 L 120 160 L 120 160 L 104 171 L 104 171 L 77 189 L 77 189 Q 40 213 20 251 Q 0 288 0 332 Q 2 409 53 459 Q 103 510 180 512 L 202 512 L 202 512 Q 279 510 331 459 Q 382 407 384 330 Q 384 279 364 233 Q 343 187 306 153 L 224 78 L 224 78 Q 208 64 208 43 L 208 21 L 208 21 L 208 0 L 208 0 L 192 14 L 192 14 Z" />
</svg>