<svg xmlns="http://www.w3.org/2000/svg" viewBox="0 0 630 501">
  <path d="M 306 13 L 310 6 L 306 13 L 310 6 L 295 0 L 295 0 L 292 7 L 292 7 L 286 19 L 286 19 Q 270 16 252 20 Q 233 25 216 30 L 212 21 L 212 21 L 209 14 L 209 14 L 194 20 L 194 20 L 198 27 L 198 27 L 201 36 L 201 36 Q 166 50 139 69 L 130 54 L 130 54 L 126 47 L 126 47 L 112 55 L 112 55 L 116 62 L 116 62 L 126 78 L 126 78 Q 97 101 77 127 L 72 124 L 72 124 L 65 119 L 65 119 L 56 132 L 56 132 L 62 136 L 62 136 L 67 140 L 67 140 Q 61 148 57 156 Q 42 180 35 201 L 23 195 L 23 195 L 15 191 L 15 191 L 8 205 L 8 205 L 15 209 L 15 209 L 29 216 L 29 216 Q 28 222 26 226 Q 21 244 19 262 Q 18 274 20 285 L 8 291 L 8 291 L 0 294 L 0 294 L 7 309 L 7 309 L 14 305 L 14 305 L 25 301 L 25 301 Q 38 334 72 348 L 68 359 L 68 359 L 64 366 L 64 366 L 79 373 L 79 373 L 82 365 L 82 365 L 88 353 L 88 353 Q 92 353 95 354 Q 131 356 156 335 L 165 344 L 165 344 L 171 350 L 171 350 L 182 339 L 182 339 L 177 333 L 177 333 L 168 324 L 168 324 Q 183 305 187 279 Q 188 270 191 261 L 200 265 L 200 265 L 207 269 L 207 269 L 214 254 L 214 254 L 206 251 L 206 251 L 198 247 L 198 247 Q 199 245 200 243 Q 211 220 248 199 L 251 212 L 251 212 L 253 219 L 253 219 L 269 216 L 269 216 L 267 208 L 267 208 L 263 192 L 263 192 Q 275 187 290 184 Q 308 179 323 169 L 333 175 L 333 175 L 340 179 L 340 179 L 348 165 L 348 165 L 341 161 L 341 161 L 335 157 L 335 157 Q 360 127 354 87 L 366 81 L 366 81 L 374 78 L 374 78 L 367 64 L 367 64 L 360 67 L 360 67 L 349 71 L 349 71 Q 335 37 302 24 L 306 13 L 306 13 Z M 219 138 Q 218 123 203 122 Q 188 123 187 138 Q 188 153 203 154 Q 218 153 219 138 L 219 138 Z M 139 218 Q 138 233 123 234 Q 108 233 107 218 Q 108 203 123 202 Q 138 203 139 218 L 139 218 Z M 123 186 Q 109 186 100 195 L 100 195 L 100 195 Q 91 204 91 218 Q 91 232 100 241 Q 109 250 123 250 Q 137 250 146 241 Q 155 232 155 218 Q 155 204 146 195 Q 137 186 123 186 L 123 186 Z M 171 277 Q 167 306 146 323 L 146 323 L 146 323 Q 125 340 97 338 Q 68 334 51 314 Q 33 293 35 264 Q 37 248 42 231 Q 48 203 70 165 Q 93 125 138 89 Q 183 54 256 36 Q 284 30 307 44 Q 330 59 337 87 Q 343 115 328 138 Q 314 161 286 168 Q 243 179 220 198 Q 197 216 187 234 Q 175 253 171 277 Q 170 277 170 277 Q 170 277 170 277 L 171 277 Z M 321 494 L 335 501 L 321 494 L 335 501 L 338 493 L 338 493 L 344 481 L 344 481 Q 361 484 378 480 Q 397 476 414 470 L 418 479 L 418 479 L 421 487 L 421 487 L 436 480 L 436 480 L 432 473 L 432 473 L 429 464 L 429 464 Q 464 450 491 431 L 500 446 L 500 446 L 505 453 L 505 453 L 518 445 L 518 445 L 514 438 L 514 438 L 504 422 L 504 422 Q 534 399 554 373 L 558 377 L 558 377 L 565 381 L 565 381 L 574 369 L 574 369 L 568 364 L 568 364 L 563 360 L 563 360 Q 569 352 574 344 Q 588 320 595 299 L 607 305 L 607 305 L 615 309 L 615 309 L 622 295 L 622 295 L 615 291 L 615 291 L 601 284 L 601 284 Q 602 278 604 274 Q 609 256 611 238 Q 612 226 610 215 L 622 209 L 622 209 L 630 206 L 630 206 L 623 191 L 623 191 L 616 195 L 616 195 L 605 199 L 605 199 Q 592 166 558 152 L 562 141 L 562 141 L 566 134 L 566 134 L 551 127 L 551 127 L 548 135 L 548 135 L 542 147 L 542 147 Q 538 147 535 146 Q 499 144 474 165 L 465 156 L 465 156 L 459 150 L 459 150 L 448 161 L 448 161 L 453 167 L 453 167 L 462 176 L 462 176 Q 447 195 444 221 Q 442 230 439 239 L 431 235 L 431 235 L 423 231 L 423 231 L 416 246 L 416 246 L 424 249 L 424 249 L 432 253 L 432 253 Q 431 255 430 257 Q 419 280 382 301 L 379 288 L 379 288 L 377 281 L 377 281 L 362 284 L 362 284 L 363 292 L 363 292 L 367 308 L 367 308 Q 355 313 340 316 Q 322 321 308 332 L 297 325 L 297 325 L 290 321 L 290 321 L 282 335 L 282 335 L 289 339 L 289 339 L 296 343 L 296 343 Q 270 373 276 413 L 264 419 L 264 419 L 257 422 L 257 422 L 263 437 L 263 437 L 270 433 L 270 433 L 281 429 L 281 429 Q 295 463 328 476 L 324 487 L 324 487 L 320 494 L 321 494 Z M 395 378 Q 396 363 411 362 Q 426 363 427 378 Q 426 393 411 394 Q 396 393 395 378 L 395 378 Z M 411 410 Q 425 410 434 401 L 434 401 L 434 401 Q 443 392 443 378 Q 443 364 434 355 Q 425 346 411 346 Q 397 346 388 355 Q 379 364 379 378 Q 379 392 388 401 Q 397 410 411 410 L 411 410 Z M 459 223 Q 463 194 484 177 L 484 177 L 484 177 Q 505 160 533 162 Q 562 166 579 186 Q 597 207 595 236 Q 593 252 588 269 Q 582 297 560 335 Q 537 375 492 411 Q 447 446 374 464 Q 346 470 323 456 Q 300 441 293 413 Q 287 385 302 362 Q 316 339 344 332 Q 387 321 410 302 Q 433 284 443 266 Q 455 247 459 223 Q 460 223 460 223 Q 460 223 460 223 L 459 223 Z" />
</svg>