<svg xmlns="http://www.w3.org/2000/svg" viewBox="0 0 576 384">
  <path d="M 368 16 L 368 104 L 368 16 L 368 104 L 368 280 L 368 280 L 368 368 L 368 368 L 16 368 L 16 368 L 16 16 L 16 16 L 368 16 L 368 16 Z M 384 368 L 384 288 L 384 368 L 384 288 L 384 270 L 384 270 L 384 114 L 384 114 L 384 96 L 384 96 L 384 16 L 384 16 L 384 0 L 384 0 L 368 0 L 0 0 L 0 16 L 0 16 L 0 368 L 0 368 L 0 384 L 0 384 L 16 384 L 384 384 L 384 368 L 384 368 Z M 560 358 L 416 286 L 560 358 L 416 286 L 416 304 L 416 304 L 560 376 L 560 376 L 576 384 L 576 384 L 576 366 L 576 366 L 576 18 L 576 18 L 576 0 L 576 0 L 560 8 L 560 8 L 416 80 L 416 80 L 416 98 L 416 98 L 560 26 L 560 26 L 560 358 L 560 358 Z M 152 96 L 144 96 L 152 96 L 144 96 L 144 112 L 144 112 L 152 112 L 261 112 L 98 274 L 98 274 L 93 280 L 93 280 L 104 291 L 104 291 L 110 286 L 110 286 L 272 123 L 272 123 L 272 232 L 272 232 L 272 240 L 272 240 L 288 240 L 288 240 L 288 232 L 288 232 L 288 104 L 288 104 L 288 96 L 288 96 L 280 96 L 152 96 Z" />
</svg>