<svg xmlns="http://www.w3.org/2000/svg" viewBox="0 0 483 483">
  <path d="M 198 315 Q 238 300 261 266 L 261 266 L 261 266 Q 285 232 286 188 L 286 181 L 286 181 Q 285 136 255 106 Q 225 76 181 75 Q 136 76 106 106 Q 76 136 75 181 Q 76 209 95 229 Q 114 248 143 249 Q 172 248 191 229 Q 210 210 211 181 L 211 166 L 211 166 L 166 166 L 166 166 L 166 181 L 166 181 Q 164 201 143 203 Q 122 201 120 181 Q 121 155 138 138 Q 155 121 181 121 Q 206 121 223 138 Q 240 155 241 181 L 241 188 L 241 188 Q 240 227 214 252 Q 189 278 150 279 L 143 279 L 143 279 Q 101 278 74 250 Q 46 222 45 181 Q 47 123 85 85 Q 123 47 181 45 Q 238 47 276 85 Q 315 123 316 181 Q 315 234 282 270 Q 249 307 198 315 L 198 315 Z M 0 181 Q 2 257 53 308 L 53 308 L 53 308 Q 104 359 181 361 Q 244 360 292 323 L 451 483 L 451 483 L 483 451 L 483 451 L 324 292 L 324 292 Q 360 244 362 181 Q 359 104 308 53 Q 257 2 181 0 Q 104 2 53 53 Q 2 104 0 181 L 0 181 Z" />
</svg>