<svg xmlns="http://www.w3.org/2000/svg" viewBox="0 0 512 448">
  <path d="M 102 356 L 113 327 L 102 356 L 113 327 L 91 305 L 91 305 Q 49 262 48 208 Q 49 146 105 98 Q 161 51 256 48 Q 351 51 407 98 Q 463 146 464 208 Q 463 270 407 318 Q 351 365 256 368 Q 216 368 180 357 L 166 353 L 166 353 L 153 357 L 153 357 L 95 374 L 95 374 L 102 356 L 102 356 Z M 16 448 L 74 431 L 16 448 L 74 431 L 166 403 L 166 403 Q 208 416 256 416 Q 328 415 385 388 Q 443 360 477 313 Q 511 266 512 208 Q 511 150 477 103 Q 443 56 385 28 Q 328 1 256 0 Q 184 1 127 28 Q 69 56 35 103 Q 1 150 0 208 Q 2 284 57 339 L 37 392 L 37 392 L 16 448 L 16 448 Z M 152 144 L 133 144 L 152 144 L 133 144 Q 117 144 107 155 Q 96 165 96 181 Q 97 200 112 212 L 142 231 L 142 231 Q 144 233 144 235 Q 144 240 139 240 L 112 240 L 96 240 L 96 272 L 96 272 L 112 272 L 139 272 Q 155 272 165 261 Q 176 251 176 235 Q 175 216 160 205 L 130 185 L 130 185 Q 128 183 128 181 Q 128 176 133 176 L 152 176 L 168 176 L 168 144 L 168 144 L 160 144 L 160 144 Q 160 144 160 144 Q 160 144 160 144 L 152 144 L 152 144 Z M 192 160 L 192 256 L 192 160 L 192 256 L 192 272 L 192 272 L 224 272 L 224 272 L 224 256 L 224 256 L 224 208 L 224 208 L 243 234 L 243 234 L 256 251 L 256 251 L 269 234 L 269 234 L 288 208 L 288 208 L 288 256 L 288 256 L 288 272 L 288 272 L 320 272 L 320 272 L 320 256 L 320 256 L 320 160 L 320 160 L 320 144 L 320 144 L 296 144 L 296 144 L 291 150 L 291 150 L 256 197 L 256 197 L 221 150 L 221 150 L 216 144 L 216 144 L 192 144 L 192 144 L 192 160 L 192 160 Z M 336 181 Q 337 200 352 212 L 382 231 L 382 231 Q 384 233 384 235 Q 384 240 379 240 L 352 240 L 336 240 L 336 272 L 336 272 L 352 272 L 379 272 Q 395 272 405 261 Q 416 251 416 235 Q 415 216 400 205 L 370 185 L 370 185 Q 368 183 368 181 Q 368 176 373 176 L 392 176 L 408 176 L 408 144 L 408 144 L 392 144 L 384 144 Q 384 144 384 144 Q 384 144 384 144 L 373 144 L 373 144 Q 357 145 347 155 Q 336 165 336 181 L 336 181 Z" />
</svg>