<svg xmlns="http://www.w3.org/2000/svg" viewBox="0 0 576 512">
  <path d="M 504 0 L 493 11 L 504 0 L 493 11 L 198 306 L 198 306 L 196 308 L 196 308 L 196 308 L 196 308 Q 182 304 168 304 Q 124 305 94 334 Q 65 364 64 408 L 64 432 L 64 432 L 64 448 L 64 448 L 48 448 L 0 448 L 0 464 L 0 464 L 0 496 L 0 496 L 0 512 L 0 512 L 16 512 L 176 512 L 176 512 L 176 512 Q 217 508 244 479 Q 271 450 272 408 Q 272 394 268 380 L 268 380 L 268 380 L 270 378 L 270 378 L 565 83 L 565 83 L 576 72 L 576 72 L 565 61 L 565 61 L 515 11 L 515 11 L 504 0 L 504 0 Z M 209 318 L 290 237 L 209 318 L 290 237 L 339 286 L 339 286 L 258 367 L 258 367 L 209 318 L 209 318 Z M 168 320 Q 181 320 192 323 L 253 384 L 253 384 Q 256 395 256 408 Q 255 444 232 468 Q 210 492 175 496 L 171 496 L 16 496 L 16 464 L 16 464 L 32 464 L 80 464 L 80 448 L 80 448 L 80 408 L 80 408 Q 81 371 106 346 Q 131 321 168 320 L 168 320 Z M 350 275 L 301 226 L 350 275 L 301 226 L 504 23 L 504 23 L 553 72 L 553 72 L 350 275 L 350 275 Z M 163 11 L 152 0 L 163 11 L 152 0 L 141 11 L 141 11 L 43 109 L 43 109 L 32 120 L 32 120 L 43 131 L 43 131 L 176 264 L 176 264 L 187 253 L 187 253 L 133 198 L 133 198 L 230 101 L 230 101 L 285 155 L 285 155 L 296 144 L 296 144 L 163 11 L 163 11 Z M 421 291 L 490 360 L 421 291 L 490 360 L 522 490 L 522 490 L 392 458 L 392 458 L 323 389 L 323 389 L 312 400 L 312 400 L 384 472 L 384 472 L 526 508 L 526 508 L 544 512 L 544 512 L 540 494 L 540 494 L 504 352 L 504 352 L 432 280 L 432 280 L 421 291 L 421 291 Z M 122 187 L 55 120 L 122 187 L 55 120 L 152 23 L 152 23 L 219 90 L 219 90 L 122 187 L 122 187 Z" />
</svg>