<svg xmlns="http://www.w3.org/2000/svg" viewBox="0 0 640 512">
  <path d="M 382 386 Q 350 429 326 457 Q 323 460 321 463 Q 320 463 320 464 Q 319 462 318 461 Q 316 459 314 457 Q 286 425 250 375 Q 213 326 187 275 Q 169 239 163 213 L 128 186 L 128 186 Q 128 188 128 189 Q 128 191 128 192 Q 130 238 161 295 Q 193 353 232 405 Q 272 457 299 488 Q 319 511 320 512 Q 321 511 341 488 Q 368 458 407 406 L 382 386 L 382 386 Z M 320 0 Q 278 0 241 17 L 241 17 L 241 17 Q 205 33 178 63 L 203 82 L 203 82 Q 249 34 320 32 Q 388 34 433 79 Q 478 124 480 192 Q 480 223 454 275 Q 453 275 453 276 Q 452 277 452 278 L 477 299 L 477 299 Q 510 239 512 192 Q 510 110 456 56 Q 402 2 320 0 L 320 0 Z M 400 192 Q 399 158 377 135 L 377 135 L 377 135 Q 354 113 320 112 Q 289 113 267 132 L 293 153 L 293 153 Q 304 144 320 144 Q 340 145 354 158 Q 368 172 368 192 Q 368 201 365 210 L 390 230 L 390 230 Q 400 213 400 192 L 400 192 Z M 32 10 L 20 0 L 32 10 L 20 0 L 0 25 L 0 25 L 13 35 L 13 35 L 608 502 L 608 502 L 620 512 L 620 512 L 640 487 L 640 487 L 628 477 L 628 477 L 32 10 L 32 10 Z" />
</svg>