<svg xmlns="http://www.w3.org/2000/svg" viewBox="0 0 568 512">
  <path d="M 144 80 Q 145 53 163 35 L 163 35 L 163 35 Q 181 17 208 16 L 328 16 L 328 16 Q 372 17 402 46 Q 431 76 432 120 Q 431 164 402 194 Q 372 223 328 224 L 256 224 L 248 224 L 248 232 L 248 232 L 248 272 L 248 272 L 248 280 L 248 280 L 264 280 L 264 280 L 264 272 L 264 272 L 264 240 L 264 240 L 328 240 L 328 240 Q 379 239 413 205 Q 447 171 448 120 Q 447 69 413 35 Q 379 1 328 0 L 208 0 L 208 0 Q 174 1 151 23 Q 129 46 128 80 Q 129 114 151 137 Q 174 159 208 160 L 296 160 L 304 160 L 304 144 L 304 144 L 296 144 L 208 144 Q 181 143 163 125 Q 145 107 144 80 L 144 80 Z M 152 320 L 149 320 L 152 320 L 149 320 L 147 322 L 147 322 L 69 384 L 69 384 L 8 384 L 0 384 L 0 400 L 0 400 L 8 400 L 74 400 L 77 398 L 77 398 L 154 336 L 154 336 L 368 336 L 368 336 L 368 376 L 368 376 L 248 376 L 240 376 L 240 384 L 240 384 L 240 424 L 240 424 L 240 432 L 240 432 L 248 432 L 400 432 L 402 431 L 402 431 L 518 351 L 518 351 L 545 390 L 545 390 L 392 496 L 392 496 L 8 496 L 0 496 L 0 512 L 0 512 L 8 512 L 396 512 L 398 511 L 398 511 L 561 399 L 561 399 L 568 394 L 568 394 L 563 388 L 563 388 L 527 335 L 527 335 L 522 328 L 522 328 L 516 333 L 516 333 L 395 416 L 395 416 L 256 416 L 256 416 L 256 392 L 256 392 L 376 392 L 384 392 L 384 384 L 384 384 L 384 328 L 384 328 L 384 320 L 384 320 L 376 320 L 152 320 Z" />
</svg>