<svg xmlns="http://www.w3.org/2000/svg" viewBox="0 0 512 512">
  <path d="M 400 35 Q 416 16 441 16 Q 465 17 480 32 Q 495 47 496 71 L 496 75 L 496 75 Q 496 96 482 112 L 348 272 L 348 272 L 200 272 L 200 272 L 400 35 L 400 35 Z M 348 288 L 355 288 L 348 288 L 355 288 L 360 282 L 360 282 L 494 123 L 494 123 Q 512 102 512 75 L 512 71 L 512 71 Q 511 41 491 21 Q 471 1 441 0 Q 409 1 387 25 L 188 262 L 188 262 L 179 272 L 179 272 L 166 288 L 166 288 L 187 288 L 348 288 Z M 15 495 L 0 512 L 15 495 L 0 512 Q 6 512 23 510 Q 63 505 127 486 Q 192 466 248 426 Q 304 386 318 320 L 302 320 L 302 320 Q 292 367 254 400 Q 217 433 166 454 Q 108 477 60 487 Q 50 489 40 491 L 192 320 L 192 320 L 171 320 L 171 320 L 15 495 L 15 495 Z" />
</svg>