<svg xmlns="http://www.w3.org/2000/svg" viewBox="0 0 640 512">
  <path d="M 624 16 L 176 16 L 624 16 L 176 16 L 176 97 L 176 97 Q 168 96 160 96 L 160 16 L 160 16 L 160 0 L 160 0 L 176 0 L 640 0 L 640 16 L 640 16 L 640 400 L 640 400 L 640 416 L 640 416 L 624 416 L 325 416 L 320 400 L 320 400 L 384 400 L 384 400 L 384 328 L 384 328 L 384 320 L 384 320 L 392 320 L 544 320 L 544 328 L 544 328 L 544 400 L 544 400 L 624 400 L 624 400 L 624 16 L 624 16 Z M 528 400 L 528 336 L 528 400 L 528 336 L 400 336 L 400 336 L 400 400 L 400 400 L 528 400 L 528 400 Z M 240 224 Q 239 179 200 155 Q 160 133 120 155 Q 81 179 80 224 Q 81 269 120 293 Q 160 315 200 293 Q 239 269 240 224 L 240 224 Z M 64 224 Q 64 198 77 176 L 77 176 L 77 176 Q 90 154 112 141 Q 135 128 160 128 Q 185 128 208 141 Q 230 154 243 176 Q 256 198 256 224 Q 256 250 243 272 Q 230 294 208 307 Q 185 320 160 320 Q 135 320 112 307 Q 90 294 77 272 Q 64 250 64 224 L 64 224 Z M 22 496 L 299 496 L 22 496 L 299 496 L 260 368 L 260 368 L 60 368 L 60 368 L 22 496 L 22 496 Z M 48 352 L 272 352 L 48 352 L 272 352 L 315 496 L 315 496 L 320 512 L 320 512 L 303 512 L 0 512 L 5 496 L 5 496 L 48 352 L 48 352 Z" />
</svg>