<svg xmlns="http://www.w3.org/2000/svg" viewBox="0 0 576 448">
  <path d="M 16 16 L 560 16 L 16 16 L 560 16 L 560 368 L 560 368 L 460 368 L 460 368 L 469 376 L 469 376 L 478 384 L 478 384 L 560 384 L 576 384 L 576 368 L 576 368 L 576 16 L 576 16 L 576 0 L 576 0 L 560 0 L 0 0 L 0 16 L 0 16 L 0 368 L 0 368 L 0 384 L 0 384 L 16 384 L 98 384 L 107 376 L 107 376 L 116 368 L 116 368 L 16 368 L 16 368 L 16 16 L 16 16 Z M 144 432 L 144 407 L 144 432 L 144 407 L 288 278 L 288 278 L 432 407 L 432 407 L 432 432 L 432 432 L 144 432 L 144 432 Z M 128 400 L 128 432 L 128 400 L 128 432 L 128 448 L 128 448 L 144 448 L 448 448 L 448 432 L 448 432 L 448 400 L 448 400 L 288 256 L 288 256 L 128 400 L 128 400 Z" />
</svg>