<svg xmlns="http://www.w3.org/2000/svg" viewBox="0 0 585 512">
  <path d="M 92 241 L 96 253 L 92 241 L 96 253 L 108 253 L 139 253 L 166 321 L 166 321 L 108 363 L 108 363 L 103 359 L 103 359 Q 51 312 34 252 Q 16 192 34 132 Q 51 72 103 25 L 108 20 L 108 20 L 166 63 L 166 63 L 139 131 L 139 131 L 108 131 L 96 131 L 92 142 L 92 142 Q 78 192 92 241 L 92 241 Z M 185 326 L 150 237 L 185 326 L 150 237 L 108 237 L 108 237 Q 94 192 108 147 L 150 147 L 150 147 L 185 58 L 185 58 L 107 0 L 107 0 L 93 13 L 93 13 Q 37 63 18 128 Q 0 192 18 256 Q 37 321 93 371 L 107 384 L 107 384 L 185 326 L 185 326 Z M 481 352 L 246 352 L 481 352 L 246 352 L 218 16 L 218 16 L 565 16 L 565 16 L 545 96 L 545 96 L 369 96 L 361 96 L 361 112 L 361 112 L 369 112 L 541 112 L 521 192 L 521 192 L 369 192 L 361 192 L 361 208 L 361 208 L 369 208 L 517 208 L 481 352 L 481 352 Z M 497 352 L 581 16 L 497 352 L 581 16 L 585 0 L 585 0 L 569 0 L 201 0 L 202 16 L 202 16 L 230 352 L 230 352 L 217 352 L 201 352 L 201 368 L 201 368 L 201 496 L 201 496 L 201 512 L 201 512 L 217 512 L 553 512 L 553 496 L 553 496 L 553 368 L 553 368 L 553 352 L 553 352 L 537 352 L 497 352 Z M 217 368 L 537 368 L 217 368 L 537 368 L 537 496 L 537 496 L 217 496 L 217 496 L 217 368 L 217 368 Z M 361 416 Q 376 417 377 432 Q 376 447 361 448 Q 346 447 345 432 Q 346 417 361 416 L 361 416 Z M 361 464 Q 375 464 384 455 L 384 455 L 384 455 Q 393 446 393 432 Q 393 418 384 409 Q 375 400 361 400 Q 347 400 338 409 Q 329 418 329 432 Q 329 446 338 455 Q 347 464 361 464 L 361 464 Z" />
</svg>