<svg xmlns="http://www.w3.org/2000/svg" viewBox="0 0 522 512">
  <path d="M 0 0 L 10 0 L 0 0 L 141 0 L 144 2 L 144 2 L 392 250 L 392 250 L 397 256 L 397 256 L 514 256 L 522 256 L 522 272 L 522 272 L 514 272 L 267 272 L 26 334 L 26 334 L 26 410 L 26 410 L 267 496 L 267 496 L 514 496 L 522 496 L 522 512 L 522 512 L 514 512 L 263 512 L 15 424 L 15 424 L 10 422 L 10 422 L 10 416 L 10 416 L 10 328 L 10 328 L 10 322 L 10 322 L 16 320 L 16 320 L 65 308 L 65 308 L 2 10 L 2 10 L 0 0 L 0 0 Z M 135 16 L 20 16 L 135 16 L 20 16 L 80 304 L 80 304 L 264 256 L 264 256 L 265 256 L 375 256 L 135 16 L 135 16 Z M 210 368 L 386 368 L 210 368 L 394 368 L 394 384 L 394 384 L 386 384 L 202 384 L 202 368 L 202 368 L 210 368 L 210 368 Z" />
</svg>