<svg xmlns="http://www.w3.org/2000/svg" viewBox="0 0 512 512">
  <path d="M 400 128 L 400 144 L 400 128 L 400 144 L 416 144 L 416 144 Q 450 145 473 167 Q 495 190 496 224 L 496 304 L 496 304 L 416 304 L 16 304 L 16 224 L 16 224 Q 16 197 31 177 Q 46 157 69 149 L 80 145 L 80 145 L 80 134 L 80 134 L 80 112 L 80 112 Q 81 71 108 44 Q 135 17 176 16 Q 227 18 255 57 L 263 69 L 263 69 L 276 61 L 276 61 Q 296 48 320 48 Q 354 49 377 71 Q 399 94 400 128 L 400 128 Z M 0 320 L 16 320 L 0 320 L 512 320 L 512 304 L 512 304 L 512 224 L 512 224 Q 511 183 484 156 Q 457 129 416 128 Q 415 87 388 60 Q 361 33 320 32 Q 291 32 268 48 Q 235 2 176 0 Q 128 1 97 33 Q 65 64 64 112 L 64 134 L 64 134 Q 36 144 18 168 Q 1 192 0 224 L 0 304 L 0 304 L 0 320 L 0 320 Z M 0 512 L 16 512 L 0 512 L 16 512 L 88 352 L 88 352 L 72 352 L 72 352 L 0 512 L 0 512 Z M 328 352 L 256 512 L 328 352 L 256 512 L 272 512 L 272 512 L 344 352 L 344 352 L 328 352 L 328 352 Z M 184 368 L 184 360 L 184 368 L 184 360 L 168 360 L 168 360 L 168 368 L 168 368 L 168 408 L 168 408 L 128 408 L 120 408 L 120 424 L 120 424 L 128 424 L 168 424 L 168 464 L 168 464 L 168 472 L 168 472 L 184 472 L 184 472 L 184 464 L 184 464 L 184 424 L 184 424 L 224 424 L 232 424 L 232 408 L 232 408 L 224 408 L 184 408 L 184 368 L 184 368 Z M 440 360 L 424 360 L 440 360 L 424 360 L 424 368 L 424 368 L 424 408 L 424 408 L 384 408 L 376 408 L 376 424 L 376 424 L 384 424 L 424 424 L 424 464 L 424 464 L 424 472 L 424 472 L 440 472 L 440 472 L 440 464 L 440 464 L 440 424 L 440 424 L 480 424 L 488 424 L 488 408 L 488 408 L 480 408 L 440 408 L 440 368 L 440 368 L 440 360 L 440 360 Z" />
</svg>