<svg xmlns="http://www.w3.org/2000/svg" viewBox="0 0 448 512">
  <path d="M 160 192 L 144 192 L 160 192 L 64 192 L 64 176 L 64 176 L 64 160 L 64 160 L 213 11 L 213 11 L 224 0 L 224 0 L 235 11 L 235 11 L 384 160 L 384 160 L 384 176 L 384 176 L 384 192 L 384 192 L 368 192 L 288 192 L 288 208 L 288 208 L 288 336 L 288 336 L 288 352 L 288 352 L 272 352 L 160 352 L 160 336 L 160 336 L 160 208 L 160 208 L 160 192 L 160 192 Z M 160 176 L 176 176 L 160 176 L 176 176 L 176 192 L 176 192 L 176 336 L 176 336 L 272 336 L 272 336 L 272 192 L 272 192 L 272 176 L 272 176 L 288 176 L 368 176 L 368 167 L 368 167 L 224 23 L 224 23 L 80 167 L 80 167 L 80 176 L 80 176 L 160 176 L 160 176 Z M 16 328 L 16 496 L 16 328 L 16 496 L 432 496 L 432 496 L 432 328 L 432 328 L 432 320 L 432 320 L 448 320 L 448 320 L 448 328 L 448 328 L 448 504 L 448 504 L 448 512 L 448 512 L 440 512 L 0 512 L 0 504 L 0 504 L 0 328 L 0 328 L 0 320 L 0 320 L 16 320 L 16 320 L 16 328 L 16 328 Z" />
</svg>