<svg xmlns="http://www.w3.org/2000/svg" viewBox="0 0 624 512">
  <path d="M 160 70 Q 224 18 312 16 Q 369 16 416 40 Q 464 63 498 104 L 510 94 L 510 94 Q 475 50 423 25 Q 372 0 312 0 Q 218 2 150 58 L 160 70 L 160 70 Z M 312 496 Q 239 495 182 458 L 182 458 L 182 458 Q 125 421 95 359 L 81 366 L 81 366 Q 113 432 174 471 Q 234 511 312 512 Q 372 512 423 487 Q 475 462 510 418 L 498 408 L 498 408 Q 464 449 416 472 Q 369 496 312 496 L 312 496 Z M 256 400 Q 256 389 271 379 Q 287 369 312 368 Q 337 369 353 379 Q 368 389 368 400 Q 368 411 353 422 Q 337 431 312 432 Q 287 431 271 422 Q 256 411 256 400 L 256 400 Z M 312 352 Q 283 352 263 365 Q 242 377 240 400 Q 242 423 263 435 Q 283 448 312 448 Q 341 448 362 435 Q 382 423 384 400 Q 382 377 362 365 Q 341 352 312 352 L 312 352 Z M 348 176 L 340 162 L 348 176 L 340 162 Q 306 182 304 224 Q 304 238 309 251 L 324 245 L 324 245 Q 320 235 320 224 Q 321 192 348 176 L 348 176 Z M 392 224 Q 391 209 376 208 Q 361 209 360 224 Q 361 235 370 239 L 360 239 L 360 239 L 360 255 L 360 255 L 360 287 L 360 287 L 360 303 L 360 303 L 376 303 L 376 303 L 376 327 L 376 327 L 376 343 L 376 343 L 392 343 L 416 343 L 416 368 L 416 368 L 416 384 L 416 384 L 432 384 L 513 384 Q 559 383 591 351 Q 624 317 624 273 Q 624 229 592 195 Q 592 195 592 195 L 592 195 L 592 195 L 591 194 L 591 194 Q 591 194 591 194 Q 591 194 591 194 L 546 149 L 546 149 L 535 137 L 535 137 L 524 149 L 524 149 L 495 177 L 495 177 L 487 185 L 487 185 L 434 149 L 434 149 L 421 140 L 421 140 L 412 153 L 412 153 L 394 179 L 394 179 L 384 192 L 384 192 L 397 201 L 397 201 L 451 239 L 451 239 L 382 239 L 382 239 Q 391 235 392 224 L 392 224 Z M 580 205 L 581 206 L 580 205 L 581 206 Q 608 235 608 273 Q 608 311 580 340 Q 552 367 513 368 L 448 368 L 432 368 L 432 352 L 432 352 L 432 343 L 432 343 L 432 336 L 432 336 L 448 336 L 472 336 L 472 327 L 472 327 L 456 327 L 392 327 L 392 311 L 392 311 L 392 303 L 392 303 L 392 295 L 392 295 L 408 295 L 472 295 L 472 287 L 472 287 L 456 287 L 376 287 L 376 279 L 376 279 L 376 271 L 376 271 L 376 255 L 376 255 L 392 255 L 484 255 L 484 243 L 484 243 L 478 239 L 478 239 L 466 230 L 466 230 L 420 197 L 420 197 L 407 188 L 407 188 L 416 175 L 416 175 L 425 162 L 425 162 L 522 228 L 522 228 L 538 239 L 538 239 L 538 219 L 538 219 L 538 219 L 538 219 L 518 200 L 518 200 L 507 188 L 507 188 L 518 177 L 518 177 L 524 171 L 524 171 L 535 160 L 535 160 L 546 171 L 546 171 L 580 205 L 580 205 Z M 248 175 L 248 159 L 248 175 L 248 159 L 232 159 L 130 159 L 145 144 L 145 144 L 156 132 L 156 132 L 145 121 L 145 121 L 116 93 L 116 93 L 105 81 L 105 81 L 94 93 L 94 93 L 33 154 L 33 154 Q 33 154 33 154 Q 33 154 33 154 L 32 155 L 32 155 Q 32 155 32 155 Q 32 155 32 155 L 32 155 L 32 155 Q 0 189 0 233 Q 0 277 33 311 Q 65 343 111 344 L 184 344 L 200 344 L 200 328 L 200 328 L 200 303 L 200 303 L 232 303 L 249 303 L 248 287 L 248 287 L 248 263 L 248 263 L 264 263 L 264 263 L 264 247 L 264 247 L 264 215 L 264 215 L 264 199 L 264 199 L 248 199 L 248 199 L 248 175 L 248 175 Z M 105 161 L 91 175 L 105 161 L 91 175 L 110 175 L 232 175 L 232 191 L 232 191 L 232 199 L 232 199 L 232 207 L 232 207 L 216 207 L 152 207 L 152 215 L 152 215 L 168 215 L 232 215 Q 232 215 232 215 L 248 215 L 248 215 L 248 223 L 248 223 L 248 231 L 248 231 L 248 247 L 248 247 Q 248 247 248 247 L 232 247 L 232 247 Q 232 247 232 247 L 168 247 L 152 247 L 152 255 L 152 255 L 168 255 L 232 255 L 232 263 L 232 263 L 232 271 L 232 271 L 232 287 L 232 287 L 216 287 L 152 287 L 152 296 L 152 296 L 168 296 L 168 296 Q 168 296 168 296 L 184 296 L 184 296 L 184 303 L 184 303 L 184 312 L 184 312 L 184 328 L 184 328 L 168 328 L 111 328 Q 72 327 44 300 Q 16 271 16 233 Q 16 195 43 166 L 44 165 L 44 165 L 94 115 L 94 115 L 105 104 L 105 104 L 116 115 L 116 115 L 122 121 L 122 121 L 133 132 L 133 132 L 122 144 L 122 144 L 107 159 L 107 159 L 105 161 L 105 161 Z" />
</svg>