<svg xmlns="http://www.w3.org/2000/svg" viewBox="0 0 512 512">
  <path d="M 264 72 Q 265 48 280 32 L 280 32 L 280 32 Q 296 17 320 16 Q 344 17 360 32 Q 375 48 376 72 L 376 120 L 376 120 L 376 128 L 376 128 L 392 128 L 392 128 L 392 120 L 392 120 L 392 72 L 392 72 Q 391 41 371 21 Q 351 1 320 0 Q 289 1 269 21 Q 249 41 248 72 L 248 288 L 248 288 L 144 288 L 144 288 L 144 232 L 144 232 L 144 224 L 144 224 L 136 224 L 32 224 L 32 240 L 32 240 L 40 240 L 128 240 L 128 288 L 128 288 L 8 288 L 0 288 L 0 296 L 0 296 L 0 344 L 0 344 L 0 352 L 0 352 L 8 352 L 512 352 L 512 344 L 512 344 L 512 296 L 512 296 L 512 288 L 512 288 L 504 288 L 384 288 L 384 240 L 384 240 L 472 240 L 480 240 L 480 224 L 480 224 L 472 224 L 368 224 L 368 232 L 368 232 L 368 288 L 368 288 L 264 288 L 264 288 L 264 72 L 264 72 Z M 16 304 L 128 304 L 16 304 L 496 304 L 496 336 L 496 336 L 16 336 L 16 336 L 16 304 L 16 304 Z M 32 384 L 32 408 L 32 384 L 32 408 Q 33 452 62 482 Q 92 511 136 512 L 376 512 L 376 512 Q 420 511 450 482 Q 479 452 480 408 L 480 384 L 480 384 L 464 384 L 464 384 L 464 408 L 464 408 Q 463 445 438 470 Q 413 495 376 496 L 136 496 L 136 496 Q 99 495 74 470 Q 49 445 48 408 L 48 384 L 48 384 L 32 384 L 32 384 Z" />
</svg>