<svg xmlns="http://www.w3.org/2000/svg" viewBox="0 0 576 480">
  <path d="M 32 448 L 0 448 L 32 448 L 0 448 L 0 416 L 0 416 L 0 32 L 0 32 L 0 0 L 0 0 L 32 0 L 336 0 L 448 112 L 448 112 L 448 161 L 448 161 Q 440 160 432 160 Q 424 160 416 161 L 416 125 L 416 125 L 323 32 L 323 32 L 320 32 L 320 32 L 320 144 L 320 144 L 320 160 L 320 160 L 304 160 L 64 160 L 64 144 L 64 144 L 64 32 L 64 32 L 32 32 L 32 32 L 32 416 L 32 416 L 275 416 L 275 416 Q 284 433 296 448 L 32 448 L 32 448 Z M 224 208 Q 263 209 286 238 Q 276 253 269 270 Q 256 242 224 240 Q 204 240 190 254 Q 177 268 176 288 Q 177 308 190 322 Q 204 335 224 336 Q 243 335 256 323 Q 256 330 256 336 Q 256 348 258 361 Q 242 368 224 368 Q 190 367 167 345 Q 145 322 144 288 Q 145 254 167 231 Q 190 209 224 208 L 224 208 Z M 96 32 L 96 128 L 96 32 L 96 128 L 288 128 L 288 128 L 288 32 L 288 32 L 96 32 L 96 32 Z M 432 448 Q 462 448 488 433 L 488 433 L 488 433 Q 514 418 529 392 Q 544 366 544 336 Q 544 306 529 280 Q 514 254 488 239 Q 462 224 432 224 Q 402 224 376 239 Q 350 254 335 280 Q 320 306 320 336 Q 320 366 335 392 Q 350 418 376 433 Q 402 448 432 448 L 432 448 Z M 432 192 Q 471 192 504 211 L 504 211 L 504 211 Q 537 230 557 264 Q 576 298 576 336 Q 576 374 557 408 Q 537 442 504 461 Q 471 480 432 480 Q 393 480 360 461 Q 327 442 307 408 Q 288 374 288 336 Q 288 298 307 264 Q 327 230 360 211 Q 393 192 432 192 L 432 192 Z M 440 257 L 451 269 L 440 257 L 451 269 L 507 325 L 507 325 L 519 336 L 519 336 L 507 347 L 507 347 L 451 403 L 451 403 L 440 415 L 440 415 L 417 392 L 417 392 L 429 381 L 429 381 L 457 352 L 457 352 L 368 352 L 352 352 L 352 320 L 352 320 L 368 320 L 457 320 L 429 291 L 429 291 L 417 280 L 417 280 L 440 257 L 440 257 Z" />
</svg>