<svg xmlns="http://www.w3.org/2000/svg" viewBox="0 0 384 512">
  <path d="M 16 16 L 208 16 L 16 16 L 208 16 L 208 168 L 208 168 L 208 176 L 208 176 L 216 176 L 368 176 L 368 496 L 368 496 L 16 496 L 16 496 L 16 16 L 16 16 Z M 224 23 L 361 160 L 224 23 L 361 160 L 224 160 L 224 160 L 224 23 L 224 23 Z M 224 0 L 16 0 L 224 0 L 0 0 L 0 16 L 0 16 L 0 496 L 0 496 L 0 512 L 0 512 L 16 512 L 384 512 L 384 496 L 384 496 L 384 160 L 384 160 L 224 0 L 224 0 Z M 200 232 L 200 224 L 200 232 L 200 224 L 184 224 L 184 224 L 184 232 L 184 232 L 184 421 L 184 421 L 110 346 L 110 346 L 104 341 L 104 341 L 93 352 L 93 352 L 98 358 L 98 358 L 186 446 L 186 446 L 192 451 L 192 451 L 198 446 L 198 446 L 286 358 L 286 358 L 292 352 L 292 352 L 280 341 L 280 341 L 274 346 L 274 346 L 200 421 L 200 421 L 200 232 L 200 232 Z" />
</svg>