<svg xmlns="http://www.w3.org/2000/svg" viewBox="0 0 640 512">
  <path d="M 16 16 L 304 16 L 16 16 L 304 16 L 304 144 L 304 144 L 320 144 L 320 144 L 320 16 L 320 16 L 320 0 L 320 0 L 304 0 L 0 0 L 0 16 L 0 16 L 0 464 L 0 464 L 0 480 L 0 480 L 16 480 L 224 480 L 224 464 L 224 464 L 16 464 L 16 464 L 16 16 L 16 16 Z M 224 288 L 184 288 L 224 288 L 176 288 L 176 296 L 176 296 L 176 360 L 176 360 L 176 368 L 176 368 L 184 368 L 224 368 L 224 352 L 224 352 L 192 352 L 192 352 L 192 304 L 192 304 L 224 304 L 224 304 L 224 288 L 224 288 Z M 224 256 L 248 256 L 224 256 L 256 256 L 256 248 L 256 248 L 256 184 L 256 184 L 256 176 L 256 176 L 248 176 L 176 176 L 176 184 L 176 184 L 176 248 L 176 248 L 176 256 L 176 256 L 184 256 L 224 256 Z M 72 176 L 64 176 L 72 176 L 64 176 L 64 184 L 64 184 L 64 248 L 64 248 L 64 256 L 64 256 L 72 256 L 144 256 L 144 248 L 144 248 L 144 184 L 144 184 L 144 176 L 144 176 L 136 176 L 72 176 Z M 80 240 L 80 192 L 80 240 L 80 192 L 128 192 L 128 192 L 128 240 L 128 240 L 80 240 L 80 240 Z M 192 192 L 240 192 L 192 192 L 240 192 L 240 240 L 240 240 L 192 240 L 192 240 L 192 192 L 192 192 Z M 72 64 L 64 64 L 72 64 L 64 64 L 64 72 L 64 72 L 64 136 L 64 136 L 64 144 L 64 144 L 72 144 L 144 144 L 144 136 L 144 136 L 144 72 L 144 72 L 144 64 L 144 64 L 136 64 L 72 64 Z M 80 128 L 80 80 L 80 128 L 80 80 L 128 80 L 128 80 L 128 128 L 128 128 L 80 128 L 80 128 Z M 176 64 L 176 72 L 176 64 L 176 72 L 176 136 L 176 136 L 176 144 L 176 144 L 184 144 L 256 144 L 256 136 L 256 136 L 256 72 L 256 72 L 256 64 L 256 64 L 248 64 L 176 64 Z M 192 80 L 240 80 L 192 80 L 240 80 L 240 128 L 240 128 L 192 128 L 192 128 L 192 80 L 192 80 Z M 72 288 L 64 288 L 72 288 L 64 288 L 64 296 L 64 296 L 64 360 L 64 360 L 64 368 L 64 368 L 72 368 L 144 368 L 144 360 L 144 360 L 144 296 L 144 296 L 144 288 L 144 288 L 136 288 L 72 288 Z M 80 352 L 80 304 L 80 352 L 80 304 L 128 304 L 128 304 L 128 352 L 128 352 L 80 352 L 80 352 Z M 338 176 L 336 182 L 338 176 L 336 182 L 306 288 L 306 288 L 272 288 L 256 288 L 256 304 L 256 304 L 256 432 L 256 432 L 256 448 L 256 448 L 256 496 L 256 496 L 256 512 L 256 512 L 272 512 L 336 512 L 336 496 L 336 496 L 336 448 L 336 448 L 560 448 L 560 448 L 560 496 L 560 496 L 560 512 L 560 512 L 576 512 L 640 512 L 640 496 L 640 496 L 640 448 L 640 448 L 640 432 L 640 432 L 640 304 L 640 304 L 640 288 L 640 288 L 624 288 L 590 288 L 560 182 L 560 182 L 558 176 L 558 176 L 552 176 L 338 176 Z M 272 304 L 624 304 L 272 304 L 624 304 L 624 432 L 624 432 L 576 432 L 272 432 L 272 304 L 272 304 Z M 576 496 L 576 448 L 576 496 L 576 448 L 624 448 L 624 448 L 624 496 L 624 496 L 576 496 L 576 496 Z M 320 448 L 320 496 L 320 448 L 320 496 L 272 496 L 272 496 L 272 448 L 272 448 L 320 448 L 320 448 Z M 546 192 L 573 288 L 546 192 L 573 288 L 323 288 L 323 288 L 350 192 L 350 192 L 546 192 L 546 192 Z M 352 368 Q 351 383 336 384 Q 321 383 320 368 Q 321 353 336 352 Q 351 353 352 368 L 352 368 Z M 336 336 Q 322 336 313 345 L 313 345 L 313 345 Q 304 354 304 368 Q 304 382 313 391 Q 322 400 336 400 Q 350 400 359 391 Q 368 382 368 368 Q 368 354 359 345 Q 350 336 336 336 L 336 336 Z M 560 384 Q 545 383 544 368 Q 545 353 560 352 Q 575 353 576 368 Q 575 383 560 384 L 560 384 Z M 528 368 Q 528 382 537 391 L 537 391 L 537 391 Q 546 400 560 400 Q 574 400 583 391 Q 592 382 592 368 Q 592 354 583 345 Q 574 336 560 336 Q 546 336 537 345 Q 528 354 528 368 L 528 368 Z" />
</svg>