<svg xmlns="http://www.w3.org/2000/svg" viewBox="0 0 512 288">
  <path d="M 496 152 L 16 152 L 496 152 L 16 152 L 16 272 L 16 272 L 496 272 L 496 272 L 496 152 L 496 152 Z M 496 136 L 496 16 L 496 136 L 496 16 L 16 16 L 16 16 L 16 136 L 16 136 L 496 136 L 496 136 Z M 512 136 L 512 144 L 512 136 L 512 144 L 512 152 L 512 152 L 512 272 L 512 272 L 512 288 L 512 288 L 496 288 L 0 288 L 0 272 L 0 272 L 0 152 L 0 152 L 0 144 L 0 144 L 0 136 L 0 136 L 0 16 L 0 16 L 0 0 L 0 0 L 16 0 L 512 0 L 512 16 L 512 16 L 512 136 L 512 136 Z M 64 80 Q 65 65 80 64 Q 95 65 96 80 Q 95 95 80 96 Q 65 95 64 80 L 64 80 Z M 432 64 Q 447 65 448 80 Q 447 95 432 96 Q 417 95 416 80 Q 417 65 432 64 L 432 64 Z M 64 208 Q 65 193 80 192 Q 95 193 96 208 Q 95 223 80 224 Q 65 223 64 208 L 64 208 Z M 432 192 Q 447 193 448 208 Q 447 223 432 224 Q 417 223 416 208 Q 417 193 432 192 L 432 192 Z" />
</svg>