<svg xmlns="http://www.w3.org/2000/svg" viewBox="0 0 576 512">
  <path d="M 60 120 L 17 120 L 60 120 L 17 120 Q 20 87 56 53 Q 93 19 168 16 Q 226 17 261 39 Q 295 61 309 89 L 313 96 L 313 96 L 320 92 L 320 92 Q 354 73 408 72 Q 483 75 520 109 Q 556 143 560 176 L 493 176 L 493 176 L 471 140 L 471 140 L 464 129 L 464 129 L 457 140 L 457 140 L 436 176 L 436 176 L 328 176 L 262 176 L 259 178 L 259 178 L 102 339 L 102 339 Q 82 314 82 267 Q 82 221 128 171 Q 153 146 178 135 L 175 120 L 175 120 L 116 120 L 116 120 L 95 84 L 95 84 L 88 73 L 88 73 L 81 84 L 81 84 L 60 120 L 60 120 Z M 168 0 Q 110 1 73 22 L 73 22 L 73 22 Q 36 43 18 73 L 18 73 L 18 73 Q 0 102 0 128 L 0 136 L 0 136 L 8 136 L 69 136 L 71 132 L 71 132 L 88 104 L 88 104 L 105 132 L 105 132 L 107 136 L 107 136 L 112 136 L 144 136 Q 130 146 116 160 Q 63 218 66 274 Q 69 329 96 356 L 102 362 L 102 362 L 107 356 L 107 356 L 240 221 L 240 221 Q 245 240 246 268 Q 253 349 208 502 L 205 512 L 205 512 L 216 512 L 359 512 L 360 505 L 360 505 Q 366 456 362 403 Q 359 351 348 300 Q 335 241 316 192 L 328 192 L 445 192 L 447 188 L 447 188 L 464 160 L 464 160 L 481 188 L 481 188 L 483 192 L 483 192 L 488 192 L 576 192 L 576 184 L 576 184 Q 576 158 558 129 Q 540 99 503 78 Q 466 57 408 56 Q 355 57 319 75 Q 302 45 264 23 Q 227 1 168 0 L 168 0 Z M 299 192 Q 319 242 332 304 Q 342 351 346 401 Q 350 450 345 496 L 227 496 L 227 496 Q 268 349 262 267 Q 260 231 253 207 L 269 192 L 269 192 L 299 192 L 299 192 Z" />
</svg>