<svg xmlns="http://www.w3.org/2000/svg" viewBox="0 0 569 518">
  <path d="M 139 0 L 131 0 L 139 0 L 131 0 L 131 16 L 131 16 L 139 16 L 280 16 L 5 290 L 5 290 L 0 296 L 0 296 L 11 307 L 11 307 L 17 302 L 17 302 L 291 27 L 291 27 L 291 168 L 291 168 L 291 176 L 291 176 L 307 176 L 307 176 L 307 168 L 307 168 L 307 8 L 307 8 L 307 0 L 307 0 L 299 0 L 139 0 Z M 515 48 Q 529 48 538 57 L 538 57 L 538 57 Q 547 66 547 80 Q 547 94 538 103 Q 529 112 515 112 Q 501 112 492 103 Q 483 94 483 80 Q 483 66 492 57 Q 501 48 515 48 L 515 48 Z M 515 128 Q 542 127 557 104 Q 569 80 557 56 Q 542 33 515 32 Q 488 33 473 56 Q 461 80 473 104 Q 488 127 515 128 L 515 128 Z M 387 176 Q 401 176 410 185 L 410 185 L 410 185 Q 419 194 419 208 Q 419 222 410 231 Q 401 240 387 240 Q 373 240 364 231 Q 355 222 355 208 Q 355 194 364 185 Q 373 176 387 176 L 387 176 Z M 387 256 Q 414 255 429 232 Q 441 208 429 184 Q 414 161 387 160 Q 360 161 345 184 Q 333 208 345 232 Q 360 255 387 256 L 387 256 Z M 355 336 Q 355 322 364 313 L 364 313 L 364 313 Q 373 304 387 304 Q 401 304 410 313 Q 419 322 419 336 Q 419 350 410 359 Q 401 368 387 368 Q 373 368 364 359 Q 355 350 355 336 L 355 336 Z M 435 336 Q 434 309 411 294 Q 387 282 363 294 Q 340 309 339 336 Q 340 363 363 378 Q 387 390 411 378 Q 434 363 435 336 L 435 336 Z M 387 432 Q 401 432 410 441 L 410 441 L 410 441 Q 419 450 419 464 Q 419 478 410 487 Q 401 496 387 496 Q 373 496 364 487 Q 355 478 355 464 Q 355 450 364 441 Q 373 432 387 432 L 387 432 Z M 387 512 Q 414 511 429 488 Q 441 464 429 440 Q 414 417 387 416 Q 360 417 345 440 Q 333 464 345 488 Q 360 511 387 512 L 387 512 Z M 515 432 Q 529 432 538 441 L 538 441 L 538 441 Q 547 450 547 464 Q 547 478 538 487 Q 529 496 515 496 Q 501 496 492 487 Q 483 478 483 464 Q 483 450 492 441 Q 501 432 515 432 L 515 432 Z M 515 512 Q 542 511 557 488 Q 569 464 557 440 Q 542 417 515 416 Q 488 417 473 440 Q 461 464 473 488 Q 488 511 515 512 L 515 512 Z M 227 336 Q 227 322 236 313 L 236 313 L 236 313 Q 245 304 259 304 Q 273 304 282 313 Q 291 322 291 336 Q 291 350 282 359 Q 273 368 259 368 Q 245 368 236 359 Q 227 350 227 336 L 227 336 Z M 307 336 Q 306 309 283 294 Q 259 282 235 294 Q 212 309 211 336 Q 212 363 235 378 Q 259 390 283 378 Q 306 363 307 336 L 307 336 Z M 259 432 Q 273 432 282 441 L 282 441 L 282 441 Q 291 450 291 464 Q 291 478 282 487 Q 273 496 259 496 Q 245 496 236 487 Q 227 478 227 464 Q 227 450 236 441 Q 245 432 259 432 L 259 432 Z M 259 512 Q 286 511 301 488 Q 313 464 301 440 Q 286 417 259 416 Q 232 417 217 440 Q 205 464 217 488 Q 232 511 259 512 L 259 512 Z M 99 464 Q 99 450 108 441 L 108 441 L 108 441 Q 117 432 131 432 Q 145 432 154 441 Q 163 450 163 464 Q 163 478 154 487 Q 145 496 131 496 Q 117 496 108 487 Q 99 478 99 464 L 99 464 Z M 179 464 Q 178 437 155 422 Q 131 410 107 422 Q 84 437 83 464 Q 84 491 107 506 Q 131 518 155 506 Q 178 491 179 464 L 179 464 Z M 515 304 Q 529 304 538 313 L 538 313 L 538 313 Q 547 322 547 336 Q 547 350 538 359 Q 529 368 515 368 Q 501 368 492 359 Q 483 350 483 336 Q 483 322 492 313 Q 501 304 515 304 L 515 304 Z M 515 384 Q 542 383 557 360 Q 569 336 557 312 Q 542 289 515 288 Q 488 289 473 312 Q 461 336 473 360 Q 488 383 515 384 L 515 384 Z M 483 208 Q 483 194 492 185 L 492 185 L 492 185 Q 501 176 515 176 Q 529 176 538 185 Q 547 194 547 208 Q 547 222 538 231 Q 529 240 515 240 Q 501 240 492 231 Q 483 222 483 208 L 483 208 Z M 563 208 Q 562 181 539 166 Q 515 154 491 166 Q 468 181 467 208 Q 468 235 491 250 Q 515 262 539 250 Q 562 235 563 208 L 563 208 Z" />
</svg>