<svg xmlns="http://www.w3.org/2000/svg" viewBox="0 0 509 512">
  <path d="M 445 256 Q 443 174 389 120 L 389 120 L 389 120 Q 335 66 253 64 L 221 64 L 221 64 L 221 0 L 221 0 L 253 0 L 253 0 Q 325 1 383 35 Q 440 69 474 127 Q 508 184 509 256 Q 508 328 474 385 Q 440 443 383 477 Q 325 511 253 512 L 221 512 L 221 512 L 221 448 L 221 448 L 253 448 L 253 448 Q 335 446 389 392 Q 443 338 445 256 L 445 256 Z M 135 121 L 157 99 L 135 121 L 157 99 L 203 144 L 203 144 L 180 167 L 180 167 L 123 224 L 123 224 L 317 224 L 349 224 L 349 288 L 349 288 L 317 288 L 123 288 L 180 345 L 180 345 L 203 368 L 203 368 L 157 413 L 157 413 L 135 391 L 135 391 L 23 279 L 23 279 L 0 256 L 0 256 L 23 233 L 23 233 L 135 121 L 135 121 Z" />
</svg>