<svg xmlns="http://www.w3.org/2000/svg" viewBox="0 0 576 448">
  <path d="M 208 16 Q 140 18 95 63 L 95 63 L 95 63 Q 50 108 48 176 L 48 232 L 48 232 L 48 240 L 48 240 L 32 240 L 32 240 L 32 232 L 32 232 L 32 176 L 32 176 Q 34 101 84 52 Q 133 2 208 0 Q 283 2 332 52 Q 382 101 384 176 L 384 232 L 384 232 L 384 240 L 384 240 L 368 240 L 368 240 L 368 232 L 368 232 L 368 176 L 368 176 Q 366 108 321 63 Q 276 18 208 16 L 208 16 Z M 416 96 L 424 96 L 416 96 L 488 96 Q 525 97 550 122 Q 575 147 576 184 L 576 248 L 576 248 L 576 256 L 576 256 L 568 256 L 488 256 L 488 344 L 488 344 L 488 352 L 488 352 L 480 352 L 336 352 L 336 440 L 336 440 L 336 448 L 336 448 L 328 448 L 240 448 L 240 440 L 240 440 L 240 352 L 240 352 L 176 352 L 176 352 L 176 440 L 176 440 L 176 448 L 176 448 L 168 448 L 80 448 L 80 440 L 80 440 L 80 352 L 80 352 L 8 352 L 0 352 L 0 344 L 0 344 L 0 280 L 0 280 L 0 272 L 0 272 L 8 272 L 416 272 L 416 104 L 416 104 L 416 96 L 416 96 Z M 240 336 L 256 336 L 240 336 L 256 336 L 256 352 L 256 352 L 256 384 L 256 384 L 256 432 L 256 432 L 320 432 L 320 432 L 320 384 L 320 384 L 320 352 L 320 352 L 320 336 L 320 336 L 336 336 L 472 336 L 472 248 L 472 248 L 472 240 L 472 240 L 480 240 L 560 240 L 560 184 L 560 184 Q 559 153 539 133 Q 519 113 488 112 L 432 112 L 432 112 L 432 280 L 432 280 L 432 288 L 432 288 L 424 288 L 16 288 L 16 336 L 16 336 L 80 336 L 96 336 L 96 352 L 96 352 L 96 384 L 96 384 L 96 432 L 96 432 L 160 432 L 160 432 L 160 384 L 160 384 L 160 352 L 160 352 L 160 336 L 160 336 L 176 336 L 240 336 Z M 496 160 Q 511 161 512 176 Q 511 191 496 192 Q 481 191 480 176 Q 481 161 496 160 L 496 160 Z" />
</svg>