<svg xmlns="http://www.w3.org/2000/svg" viewBox="0 0 484 512">
  <path d="M 242 17 L 236 19 L 242 17 L 236 19 L 29 100 L 29 100 L 19 104 L 19 104 L 19 114 L 19 114 Q 16 151 24 202 Q 31 253 55 308 Q 78 363 122 412 Q 166 460 236 492 L 242 495 L 242 495 L 248 492 L 248 492 Q 318 460 362 412 Q 406 363 430 308 Q 453 253 460 202 Q 468 151 466 114 L 465 104 L 465 104 L 455 100 L 455 100 L 248 19 L 248 19 L 242 17 L 242 17 Z M 480 93 L 482 113 L 480 93 L 482 113 Q 484 151 476 204 Q 468 257 444 314 Q 420 371 374 422 Q 328 474 255 507 L 242 512 L 242 512 L 229 507 L 229 507 Q 156 474 110 422 Q 64 371 40 314 Q 16 257 8 204 Q 0 151 3 113 L 4 93 L 4 93 L 23 85 L 23 85 L 230 5 L 230 5 L 242 0 L 242 0 L 254 5 L 254 5 L 461 85 L 461 85 L 480 92 L 480 93 Z" />
</svg>