<svg xmlns="http://www.w3.org/2000/svg" viewBox="0 0 512 512">
  <path d="M 442 143 L 489 96 L 442 143 L 489 96 L 416 23 L 416 23 L 369 70 L 369 70 L 442 143 L 442 143 Z M 431 154 L 358 81 L 431 154 L 358 81 L 174 264 L 174 264 L 150 362 L 150 362 L 248 338 L 248 338 L 431 154 L 431 154 Z M 352 64 L 358 58 L 352 64 L 358 58 L 405 11 L 405 11 L 416 0 L 416 0 L 427 11 L 427 11 L 501 85 L 501 85 L 512 96 L 512 96 L 501 107 L 501 107 L 454 154 L 454 154 L 448 160 L 448 160 L 442 166 L 442 166 L 256 352 L 256 352 L 146 380 L 146 380 L 128 384 L 128 384 L 132 366 L 132 366 L 160 256 L 160 256 L 346 70 L 346 70 L 352 64 L 352 64 Z M 0 72 Q 1 65 8 64 L 216 64 L 224 64 L 224 80 L 224 80 L 216 80 L 16 80 L 16 496 L 16 496 L 432 496 L 432 496 L 432 296 L 432 296 L 432 288 L 432 288 L 448 288 L 448 288 L 448 296 L 448 296 L 448 504 L 448 504 Q 447 511 440 512 L 8 512 L 8 512 Q 1 511 0 504 L 0 72 L 0 72 Z" />
</svg>