<svg xmlns="http://www.w3.org/2000/svg" viewBox="0 0 640 512">
  <path d="M 0 0 L 16 0 L 0 0 L 640 0 L 640 16 L 640 16 L 640 112 L 640 112 L 640 128 L 640 128 L 624 128 L 608 128 L 608 496 L 608 496 L 608 512 L 608 512 L 592 512 L 480 512 L 480 496 L 480 496 L 480 352 L 480 352 Q 478 284 433 239 Q 388 194 320 192 Q 252 194 207 239 Q 162 284 160 352 L 160 496 L 160 496 L 160 512 L 160 512 L 144 512 L 32 512 L 32 496 L 32 496 L 32 128 L 32 128 L 16 128 L 0 128 L 0 112 L 0 112 L 0 16 L 0 16 L 0 0 L 0 0 Z M 64 128 L 64 480 L 64 128 L 64 480 L 128 480 L 128 480 L 128 352 L 128 352 Q 130 270 184 216 Q 238 162 320 160 Q 402 162 456 216 Q 510 270 512 352 L 512 480 L 512 480 L 576 480 L 576 480 L 576 128 L 576 128 L 64 128 L 64 128 Z M 32 32 L 32 96 L 32 32 L 32 96 L 608 96 L 608 96 L 608 32 L 608 32 L 32 32 L 32 32 Z M 320 280 L 342 302 L 320 280 L 342 302 L 365 280 L 365 280 Q 404 315 419 346 Q 433 377 432 392 Q 431 438 401 469 Q 372 500 327 504 Q 323 504 320 504 Q 317 504 313 504 Q 268 500 239 469 Q 209 438 208 392 Q 211 344 242 308 Q 272 272 298 258 L 320 280 L 320 280 Z M 320 472 Q 322 472 324 472 Q 339 470 347 461 Q 355 452 355 441 Q 355 424 331 398 Q 325 393 320 388 Q 315 393 309 398 Q 285 424 285 441 Q 285 452 293 461 Q 301 470 316 472 Q 318 472 320 472 L 320 472 Z M 320 347 Q 321 348 336 360 L 336 360 L 336 360 Q 351 372 367 392 L 367 392 L 367 392 Q 383 412 387 436 Q 400 417 400 392 Q 401 386 394 368 Q 387 349 365 325 L 365 325 L 365 325 L 342 348 L 342 348 L 320 325 L 320 325 L 295 300 L 295 300 Q 280 311 267 328 Q 241 360 240 392 Q 240 417 253 436 Q 257 412 273 392 Q 289 372 304 360 Q 319 348 320 347 L 320 347 Z" />
</svg>