<svg xmlns="http://www.w3.org/2000/svg" viewBox="0 0 512 448">
  <path d="M 78 432 L 434 432 L 78 432 L 434 432 L 494 16 L 494 16 L 18 16 L 18 16 L 78 432 L 78 432 Z M 448 448 L 64 448 L 448 448 L 64 448 L 2 16 L 2 16 L 0 0 L 0 0 L 16 0 L 512 0 L 510 16 L 510 16 L 448 448 L 448 448 Z M 255 163 L 243 176 L 255 163 L 243 176 L 112 176 L 112 176 L 112 336 L 112 336 L 202 336 L 202 336 L 218 352 L 218 352 L 112 352 L 96 352 L 96 336 L 96 336 L 96 176 L 96 176 L 96 160 L 96 160 L 112 160 L 259 160 Q 259 160 259 160 Q 257 162 255 163 L 255 163 Z M 312 175 L 210 277 L 312 175 L 210 277 L 312 378 L 312 378 L 414 277 L 414 277 L 312 175 L 312 175 Z M 312 152 L 323 163 L 312 152 L 323 163 L 425 265 L 425 265 L 436 276 L 436 276 L 425 288 L 425 288 L 323 390 L 323 390 L 312 401 L 312 401 L 301 390 L 301 390 L 199 288 L 199 288 L 188 277 L 188 277 L 199 265 L 199 265 L 301 163 L 301 163 L 312 152 L 312 152 Z" />
</svg>