<svg xmlns="http://www.w3.org/2000/svg" viewBox="0 0 640 512">
  <path d="M 10 0 L 16 5 L 10 0 L 16 5 L 634 495 L 634 495 L 640 500 L 640 500 L 630 512 L 630 512 L 624 507 L 624 507 L 6 18 L 6 18 L 0 13 L 0 13 L 10 0 L 10 0 Z M 187 243 Q 158 259 134 282 L 123 270 L 123 270 Q 146 248 173 232 L 187 243 L 187 243 Z M 358 195 Q 452 208 518 270 L 507 282 L 507 282 Q 455 234 385 216 L 358 194 L 358 195 Z M 196 66 L 181 54 L 196 66 L 181 54 Q 247 32 320 32 Q 414 33 495 67 Q 576 102 638 164 L 626 175 L 626 175 Q 567 116 489 82 Q 410 49 320 48 Q 255 48 196 66 L 196 66 Z M 42 129 L 55 139 L 42 129 L 55 139 Q 33 156 14 175 L 2 164 L 2 164 Q 21 145 42 129 L 42 129 Z M 368 416 Q 367 389 344 374 Q 320 362 296 374 Q 273 389 272 416 Q 273 443 296 458 Q 320 470 344 458 Q 367 443 368 416 L 368 416 Z M 256 416 Q 257 380 288 361 Q 320 343 352 361 Q 383 380 384 416 Q 383 452 352 471 Q 320 489 288 471 Q 257 452 256 416 L 256 416 Z" />
</svg>