<svg xmlns="http://www.w3.org/2000/svg" viewBox="0 0 512 448">
  <path d="M 344 400 L 320 400 L 344 400 L 320 400 L 320 448 L 320 448 L 344 448 L 512 448 L 512 424 L 512 424 L 512 24 L 512 24 L 512 0 L 512 0 L 488 0 L 320 0 L 320 48 L 320 48 L 344 48 L 464 48 L 464 400 L 464 400 L 344 400 L 344 400 Z M 17 207 L 0 224 L 17 207 L 0 224 L 17 241 L 17 241 L 145 369 L 145 369 L 162 386 L 162 386 L 196 352 L 196 352 L 179 335 L 179 335 L 92 248 L 92 248 L 327 248 L 351 248 L 351 200 L 351 200 L 327 200 L 92 200 L 179 113 L 179 113 L 196 96 L 196 96 L 162 62 L 162 62 L 145 79 L 145 79 L 17 207 L 17 207 Z" />
</svg>