<svg xmlns="http://www.w3.org/2000/svg" viewBox="0 0 512 512">
  <path d="M 256 16 Q 321 17 376 48 L 376 48 L 376 48 Q 431 80 464 136 Q 496 193 496 256 Q 496 319 464 376 Q 431 432 376 464 Q 321 495 256 496 Q 191 495 136 464 Q 81 432 48 376 Q 16 319 16 256 Q 16 193 48 136 Q 81 80 136 48 Q 191 17 256 16 L 256 16 Z M 256 512 Q 326 511 384 478 L 384 478 L 384 478 Q 442 444 478 384 Q 512 323 512 256 Q 512 189 478 128 Q 442 68 384 34 Q 326 1 256 0 Q 186 1 128 34 Q 70 68 34 128 Q 0 189 0 256 Q 0 323 34 384 Q 70 444 128 478 Q 186 511 256 512 L 256 512 Z M 318 99 L 321 107 L 318 99 L 321 107 L 322 110 L 322 110 Q 333 139 356 160 Q 354 160 352 160 Q 318 161 295 183 Q 273 206 272 240 Q 273 274 295 297 Q 318 319 352 320 Q 379 320 400 304 L 400 320 L 400 320 L 400 328 L 400 328 L 416 328 L 416 328 L 416 320 L 416 320 L 416 288 L 416 288 Q 432 267 432 240 Q 432 211 415 190 L 422 192 L 422 192 L 430 194 L 430 194 L 434 178 L 434 178 L 426 176 L 426 176 L 417 174 L 417 174 Q 389 168 368 150 Q 347 131 337 104 L 335 101 L 335 101 L 333 94 L 333 94 L 318 99 L 318 99 Z M 192 107 L 194 99 L 192 107 L 194 99 L 179 94 L 179 94 L 177 101 L 177 101 L 175 104 L 175 104 Q 165 131 144 150 Q 123 168 95 174 L 86 176 L 86 176 L 78 178 L 78 178 L 82 194 L 82 194 L 90 192 L 90 192 L 97 190 L 97 190 Q 81 211 80 240 Q 81 267 96 288 L 96 320 L 96 320 L 96 328 L 96 328 L 112 328 L 112 328 L 112 320 L 112 320 L 112 304 L 112 304 Q 133 320 160 320 Q 194 319 216 297 L 216 304 L 216 304 L 216 312 L 216 312 L 232 312 L 232 312 L 232 304 L 232 304 L 232 275 L 232 275 Q 240 259 240 240 Q 239 206 217 183 Q 194 161 160 160 Q 158 160 156 160 Q 179 140 190 110 L 192 107 L 192 107 Z M 160 176 Q 196 177 215 208 Q 233 240 215 272 Q 196 303 160 304 Q 124 303 105 272 Q 87 240 105 208 Q 124 177 160 176 L 160 176 Z M 288 240 Q 289 204 320 185 Q 352 167 384 185 Q 415 204 416 240 Q 415 276 384 295 Q 352 313 320 295 Q 289 276 288 240 L 288 240 Z M 160 272 Q 146 272 137 263 L 137 263 L 137 263 Q 128 254 128 240 Q 128 238 128 236 Q 135 240 144 240 Q 171 238 176 212 Q 191 221 192 240 Q 192 254 183 263 Q 174 272 160 272 L 160 272 Z M 115 222 Q 112 231 112 240 Q 113 260 126 274 Q 140 287 160 288 Q 180 287 194 274 Q 207 260 208 240 Q 208 223 198 211 Q 188 198 173 194 Q 167 192 160 192 Q 155 192 150 193 Q 159 197 160 208 L 160 208 L 160 208 Q 159 223 144 224 Q 139 224 134 221 Q 128 216 128 208 Q 128 206 129 204 Q 126 206 124 208 Q 119 214 115 222 L 115 222 Z M 384 240 Q 384 254 375 263 L 375 263 L 375 263 Q 366 272 352 272 Q 338 272 329 263 Q 320 254 320 240 Q 320 238 320 236 Q 327 240 336 240 Q 363 238 368 212 Q 383 221 384 240 L 384 240 Z M 304 240 Q 305 260 318 274 L 318 274 L 318 274 Q 332 287 352 288 Q 372 287 386 274 Q 399 260 400 240 Q 400 223 390 211 Q 380 198 365 194 Q 359 192 352 192 Q 347 192 342 193 Q 351 197 352 208 Q 351 223 336 224 Q 331 224 326 221 Q 320 216 320 208 Q 320 206 321 204 Q 318 206 316 208 Q 311 214 307 222 Q 304 231 304 240 L 304 240 Z M 256 430 Q 289 429 311 413 L 311 413 L 311 413 Q 334 398 347 379 L 334 369 L 334 369 Q 322 387 302 400 Q 283 413 256 414 Q 229 413 210 400 Q 190 387 179 369 L 166 379 L 166 379 Q 178 398 201 413 Q 223 429 256 430 L 256 430 Z" />
</svg>