<svg xmlns="http://www.w3.org/2000/svg" viewBox="0 0 576 520">
  <path d="M 344 122 Q 344 114 335 94 Q 325 75 311 56 Q 298 38 288 25 Q 278 38 265 56 Q 251 75 242 94 Q 232 114 232 122 Q 233 143 248 158 Q 264 172 288 173 Q 312 172 328 158 Q 343 143 344 122 L 344 122 Z M 216 122 Q 218 98 239 66 L 239 66 L 239 66 Q 261 33 278 13 Q 287 0 288 0 Q 289 0 298 13 Q 315 33 337 66 Q 358 98 360 122 Q 359 150 339 169 Q 319 188 288 189 Q 257 188 237 169 Q 217 150 216 122 L 216 122 Z M 16 136 L 193 136 L 16 136 L 193 136 Q 195 144 197 152 L 16 152 L 16 152 L 16 504 L 16 504 L 400 504 L 400 504 L 400 352 L 400 352 L 400 344 L 400 344 L 408 344 L 560 344 L 560 152 L 560 152 L 379 152 L 379 152 Q 381 144 383 136 L 560 136 L 576 136 L 576 152 L 576 152 L 576 360 L 576 360 L 416 520 L 416 520 L 16 520 L 0 520 L 0 504 L 0 504 L 0 152 L 0 152 L 0 136 L 0 136 L 16 136 L 16 136 Z M 553 360 L 416 360 L 553 360 L 416 360 L 416 497 L 416 497 L 553 360 L 553 360 Z M 72 224 Q 73 239 88 240 Q 103 239 104 224 Q 103 209 88 208 Q 73 209 72 224 L 72 224 Z M 88 256 Q 74 256 65 247 L 65 247 L 65 247 Q 56 238 56 224 Q 56 210 65 201 Q 74 192 88 192 Q 102 192 111 201 Q 120 210 120 224 Q 120 238 111 247 Q 102 256 88 256 L 88 256 Z" />
</svg>