<svg xmlns="http://www.w3.org/2000/svg" viewBox="0 0 576 448">
  <path d="M 56 0 L 48 0 L 56 0 L 48 0 L 48 8 L 48 8 L 48 128 L 48 128 L 16 128 L 0 128 L 0 144 L 0 144 L 0 432 L 0 432 L 0 448 L 0 448 L 16 448 L 384 448 L 384 432 L 384 432 L 384 367 L 384 367 L 384 339 L 384 339 L 384 237 L 384 237 L 384 209 L 384 209 L 384 144 L 384 144 L 384 128 L 384 128 L 368 128 L 64 128 L 64 16 L 64 16 L 312 16 L 320 16 L 320 0 L 320 0 L 312 0 L 56 0 Z M 48 144 L 64 144 L 48 144 L 368 144 L 368 237 L 368 237 L 368 339 L 368 339 L 368 432 L 368 432 L 16 432 L 16 432 L 16 144 L 16 144 L 48 144 L 48 144 Z M 560 424 L 416 363 L 560 424 L 416 363 L 416 380 L 416 380 L 560 441 L 560 441 L 576 448 L 576 448 L 576 431 L 576 431 L 576 145 L 576 145 L 576 128 L 576 128 L 560 135 L 560 135 L 416 196 L 416 196 L 416 213 L 416 213 L 560 152 L 560 152 L 560 424 L 560 424 Z M 64 208 L 64 224 L 64 208 L 64 224 L 72 224 L 320 224 L 320 208 L 320 208 L 312 208 L 64 208 Z" />
</svg>