<svg xmlns="http://www.w3.org/2000/svg" viewBox="0 0 639 512">
  <path d="M 112 128 Q 112 98 127 72 L 127 72 L 127 72 Q 142 46 168 31 Q 194 16 224 16 Q 254 16 280 31 Q 306 46 321 72 Q 336 98 336 128 Q 336 158 321 184 Q 306 210 280 225 Q 254 240 224 240 Q 194 240 168 225 Q 142 210 127 184 Q 112 158 112 128 L 112 128 Z M 352 128 Q 352 93 335 64 L 335 64 L 335 64 Q 318 35 288 17 Q 258 0 224 0 Q 190 0 160 17 Q 130 35 113 64 Q 96 93 96 128 Q 96 163 113 192 Q 130 221 160 239 Q 190 256 224 256 Q 258 256 288 239 Q 318 221 335 192 Q 352 163 352 128 L 352 128 Z M 22 496 L 76 320 L 22 496 L 76 320 L 288 320 L 288 320 Q 288 312 289 304 L 64 304 L 64 304 L 5 496 L 5 496 L 0 512 L 0 512 L 17 512 L 448 512 L 443 496 L 443 496 L 438 480 L 438 480 Q 429 479 421 478 L 426 496 L 426 496 L 22 496 L 22 496 Z M 448 208 Q 478 208 504 223 L 504 223 L 504 223 Q 530 238 545 264 Q 560 291 560 320 Q 560 350 545 376 Q 530 402 504 417 Q 478 432 448 432 Q 418 432 392 417 Q 366 402 351 376 Q 336 350 336 320 Q 336 291 351 264 Q 366 238 392 223 Q 418 208 448 208 L 448 208 Z M 448 448 Q 498 447 533 416 L 622 506 L 622 506 L 628 511 L 628 511 L 639 500 L 639 500 L 634 494 L 634 494 L 544 405 L 544 405 Q 575 370 576 320 Q 575 266 539 230 Q 502 193 448 192 Q 394 193 357 230 Q 321 266 320 320 Q 321 374 357 411 Q 394 447 448 448 L 448 448 Z" />
</svg>