<svg xmlns="http://www.w3.org/2000/svg" viewBox="0 0 512 512">
  <path d="M 369.77777 71.111115 L 28.444445 71.111115 L 28.444445 99.55556 Q 30.222221 172.44444 78.22222 220.44444 Q 126.22222 268.44446 199.11111 270.22223 Q 205.33333 270.22223 212.44444 270.22223 Q 206.22223 283.55554 202.66667 298.66666 Q 201.77777 298.66666 200.88889 298.66666 Q 200 298.66666 199.11111 298.66666 Q 172.44444 298.66666 147.55556 292.44446 L 124.44444 343.1111 Q 130.66667 348.44446 134.22223 355.55554 L 201.77777 355.55554 Q 203.55556 369.77777 208.88889 384 L 142.22223 384 Q 141.33333 408 125.333336 424 Q 109.333336 440 85.333336 440.8889 Q 61.333332 440 45.333332 424 Q 29.333334 408 28.444445 384 Q 29.333334 360 45.333332 344 Q 61.333332 328 85.333336 327.1111 Q 93.333336 327.1111 99.55556 328.8889 L 120.888885 282.66666 Q 66.666664 258.66666 33.77778 210.66667 Q 0.8888889 161.77777 0 99.55556 L 0 71.111115 L 0 42.666668 L 28.444445 42.666668 L 369.77777 42.666668 L 398.22223 42.666668 L 398.22223 71.111115 L 398.22223 99.55556 Q 398.22223 131.55556 388.44446 160.88889 Q 376.8889 150.22223 365.33334 139.55556 Q 369.77777 120 369.77777 99.55556 L 369.77777 71.111115 L 369.77777 71.111115 Z M 85.333336 355.55554 Q 72.888885 355.55554 64.888885 363.55554 L 64.888885 363.55554 Q 56.88889 371.55554 56.88889 384 Q 56.88889 396.44446 64.888885 404.44446 Q 72.888885 412.44446 85.333336 412.44446 Q 97.77778 412.44446 105.77778 404.44446 Q 113.77778 396.44446 113.77778 384 Q 113.77778 371.55554 105.77778 363.55554 Q 97.77778 355.55554 85.333336 355.55554 L 85.333336 355.55554 Z M 399.1111 256.8889 L 377.77777 232 Q 357.33334 208.88889 341.33334 194.66667 Q 325.33334 208.88889 305.77777 231.11111 Q 285.33334 254.22223 270.22223 280.8889 Q 256 307.55554 256 327.1111 Q 256.8889 375.1111 288.8889 408 Q 321.77777 440 369.77777 440.8889 Q 417.77777 440 450.66666 408 Q 482.66666 375.1111 483.55554 327.1111 Q 483.55554 310.22223 472.8889 289.77777 Q 463.1111 269.33334 447.1111 248.88889 Q 436.44446 235.55556 426.66666 225.77777 Q 424 228.44444 420.44446 232 L 399.1111 256.8889 L 399.1111 256.8889 Z M 341.33334 156.44444 Q 341.33334 156.44444 352.8889 166.22223 L 352.8889 166.22223 Q 363.55554 176 379.55554 192 Q 389.33334 201.77777 399.1111 213.33333 Q 410.66666 200 418.66666 192.88889 Q 426.66666 184.88889 426.66666 184.88889 Q 428.44446 185.77777 448.8889 207.11111 Q 469.33334 228.44444 489.77777 261.33334 Q 510.22223 293.33334 512 327.1111 Q 510.22223 387.55554 470.22223 427.55554 Q 430.22223 467.55554 369.77777 469.33334 Q 309.33334 467.55554 269.33334 427.55554 Q 229.33333 387.55554 227.55556 327.1111 Q 229.33333 287.1111 256.8889 248 Q 284.44446 208.88889 312 183.11111 Q 339.55554 157.33333 341.33334 156.44444 L 341.33334 156.44444 Z M 342.22223 248 L 352.8889 261.33334 Q 354.66666 263.1111 360.8889 272 Q 368 280.8889 376 291.55554 L 387.55554 306.66666 L 412.44446 288.8889 L 423.1111 280 L 432 291.55554 Q 435.55554 296.8889 438.22223 301.33334 Q 438.22223 302.22223 439.1111 303.1111 L 439.1111 303.1111 Q 451.55554 328 446.22223 354.66666 Q 440.8889 381.33334 417.77777 398.22223 L 417.77777 398.22223 L 417.77777 398.22223 Q 396.44446 412.44446 370.66666 412.44446 Q 337.77777 412.44446 314.66666 392 Q 292.44446 371.55554 291.55554 336 Q 291.55554 317.33334 302.22223 299.55554 Q 312.8889 282.66666 330.66666 261.33334 L 342.22223 248 L 342.22223 248 Z M 416 320.8889 L 392.8889 337.77777 L 381.33334 345.77777 L 373.33334 335.1111 L 384.8889 326.22223 L 373.33334 335.1111 L 373.33334 335.1111 L 373.33334 335.1111 L 373.33334 335.1111 L 373.33334 335.1111 L 372.44446 334.22223 L 371.55554 332.44446 L 367.1111 327.1111 Q 364.44446 323.55554 360.8889 319.1111 Q 357.33334 313.77777 352.8889 308.44446 Q 351.1111 305.77777 349.33334 303.1111 Q 344.8889 297.77777 341.33334 293.33334 Q 332.44446 305.77777 327.1111 313.77777 Q 320 327.1111 320 336 Q 320.8889 360 334.22223 371.55554 Q 347.55554 384 370.66666 384 Q 387.55554 384 401.77777 374.22223 Q 414.22223 365.33334 417.77777 351.1111 Q 422.22223 336 416 320.8889 L 416 320.8889 Z" />
</svg>