<svg xmlns="http://www.w3.org/2000/svg" viewBox="0 0 640 512">
  <path d="M 464 48 L 384 48 L 464 48 L 384 48 L 384 144 L 384 144 L 320 96 L 320 96 L 256 144 L 256 144 L 256 48 L 256 48 L 176 48 L 176 48 L 176 240 L 176 240 L 464 240 L 464 240 L 464 48 L 464 48 Z M 464 0 L 512 0 L 464 0 L 512 0 L 512 48 L 512 48 L 512 240 L 512 240 L 512 288 L 512 288 L 464 288 L 128 288 L 128 240 L 128 240 L 128 48 L 128 48 L 128 0 L 128 0 L 176 0 L 464 0 Z M 0 320 L 24 320 L 0 320 L 640 320 L 640 368 L 640 368 L 616 368 L 576 368 L 576 464 L 576 464 L 616 464 L 640 464 L 640 512 L 640 512 L 616 512 L 0 512 L 0 464 L 0 464 L 24 464 L 64 464 L 64 368 L 64 368 L 24 368 L 0 368 L 0 320 L 0 320 Z M 112 464 L 296 464 L 112 464 L 296 464 L 296 368 L 296 368 L 112 368 L 112 368 L 112 464 L 112 464 Z M 344 464 L 528 464 L 344 464 L 528 464 L 528 368 L 528 368 L 344 368 L 344 368 L 344 464 L 344 464 Z" />
</svg>