<svg xmlns="http://www.w3.org/2000/svg" viewBox="0 0 512 512">
  <path d="M 0 512 L 4 494 L 0 512 L 4 494 L 40 352 L 40 352 L 381 11 L 381 11 L 392 0 L 392 0 L 403 11 L 403 11 L 501 109 L 501 109 L 512 120 L 512 120 L 501 131 L 501 131 L 160 472 L 160 472 L 18 508 L 18 508 L 0 512 L 0 512 Z M 152 458 L 411 198 L 152 458 L 411 198 L 314 101 L 314 101 L 54 360 L 54 360 L 22 490 L 22 490 L 152 458 L 152 458 Z M 422 187 L 489 120 L 422 187 L 489 120 L 392 23 L 392 23 L 325 90 L 325 90 L 422 187 L 422 187 Z" />
</svg>