<svg xmlns="http://www.w3.org/2000/svg" viewBox="0 0 512 512">
  <path d="M 496 256 Q 495 191 464 136 L 464 136 L 464 136 Q 432 81 376 48 Q 319 16 256 16 Q 193 16 136 48 Q 80 81 48 136 Q 17 191 16 256 Q 17 321 48 376 Q 80 431 136 464 Q 193 496 256 496 Q 319 496 376 464 Q 432 431 464 376 Q 495 321 496 256 L 496 256 Z M 0 256 Q 1 186 34 128 L 34 128 L 34 128 Q 68 70 128 34 Q 189 0 256 0 Q 323 0 384 34 Q 444 70 478 128 Q 511 186 512 256 Q 511 326 478 384 Q 444 442 384 478 Q 323 512 256 512 Q 189 512 128 478 Q 68 442 34 384 Q 1 326 0 256 L 0 256 Z M 358 166 L 166 358 L 358 166 L 166 358 L 160 363 L 160 363 L 149 352 L 149 352 L 154 346 L 154 346 L 346 154 L 346 154 L 352 149 L 352 149 L 363 160 L 363 160 L 358 166 L 358 166 Z M 251 112 L 246 118 L 251 112 L 246 118 L 118 246 L 118 246 L 112 251 L 112 251 L 101 240 L 101 240 L 106 234 L 106 234 L 234 106 L 234 106 L 240 101 L 240 101 L 251 112 L 251 112 Z M 406 278 L 278 406 L 406 278 L 278 406 L 272 411 L 272 411 L 261 400 L 261 400 L 266 394 L 266 394 L 394 266 L 394 266 L 400 261 L 400 261 L 411 272 L 411 272 L 406 278 L 406 278 Z" />
</svg>