<svg xmlns="http://www.w3.org/2000/svg" viewBox="0 0 512 512">
  <path d="M 256 16 Q 321 17 376 48 L 376 48 L 376 48 Q 431 80 464 136 Q 496 193 496 256 Q 496 319 464 376 Q 431 432 376 464 Q 321 495 256 496 Q 191 495 136 464 Q 81 432 48 376 Q 16 319 16 256 Q 16 193 48 136 Q 81 80 136 48 Q 191 17 256 16 L 256 16 Z M 256 512 Q 326 511 384 478 L 384 478 L 384 478 Q 442 444 478 384 Q 512 323 512 256 Q 512 189 478 128 Q 442 68 384 34 Q 326 1 256 0 Q 186 1 128 34 Q 70 68 34 128 Q 0 189 0 256 Q 0 323 34 384 Q 70 444 128 478 Q 186 511 256 512 L 256 512 Z M 336 315 L 362 349 L 336 315 L 362 349 Q 368 357 368 368 Q 368 382 359 391 Q 350 400 336 400 Q 322 400 313 391 Q 304 382 304 368 Q 304 357 310 349 L 336 315 L 336 315 Z M 326 301 L 298 339 L 326 301 L 298 339 Q 288 352 288 368 Q 289 388 302 402 Q 316 416 336 416 Q 356 416 370 402 Q 383 388 384 368 Q 384 352 374 339 L 346 301 L 346 301 L 336 288 L 336 288 L 326 301 L 326 301 Z M 176 224 Q 191 223 192 208 Q 191 193 176 192 Q 162 193 160 208 Q 162 223 176 224 L 176 224 Z M 352 208 Q 351 193 336 192 Q 322 193 320 208 Q 322 223 336 224 Q 351 223 352 208 L 352 208 Z M 151 323 L 146 317 L 151 323 L 146 317 L 133 326 L 133 326 L 138 333 L 138 333 Q 154 358 184 378 Q 214 399 256 400 L 264 400 L 264 400 L 264 384 L 264 384 L 256 384 L 256 384 Q 219 383 193 365 Q 166 347 151 323 L 151 323 Z" />
</svg>