<svg xmlns="http://www.w3.org/2000/svg" viewBox="0 0 640 513">
  <path d="M 48 15 L 29 0 L 48 15 L 29 0 L 0 38 L 0 38 L 19 53 L 19 53 L 592 497 L 592 497 L 611 512 L 611 512 L 640 474 L 640 474 L 621 459 L 621 459 L 410 295 L 410 295 L 485 220 L 485 220 L 469 204 L 469 204 L 373 108 L 373 108 L 357 92 L 357 92 L 265 183 L 265 183 L 48 15 L 48 15 Z M 307 215 L 357 165 L 307 215 L 357 165 L 368 154 L 368 154 L 391 177 L 391 177 L 379 188 L 379 188 L 332 235 L 332 235 L 307 215 L 307 215 Z M 340 365 L 263 304 L 340 365 L 263 304 L 235 332 L 235 332 L 224 343 L 224 343 L 201 321 L 201 321 L 213 309 L 213 309 L 238 284 L 238 284 L 197 252 L 197 252 L 96 353 L 96 353 L 74 462 L 74 462 L 64 513 L 64 513 L 115 502 L 115 502 L 224 481 L 224 481 L 340 365 L 340 365 Z M 379 69 L 395 85 L 379 69 L 395 85 L 491 181 L 491 181 L 507 197 L 507 197 L 542 163 L 542 163 L 576 129 L 576 129 L 542 95 L 542 95 L 482 35 L 482 35 L 448 1 L 448 1 L 414 35 L 414 35 L 379 69 L 379 69 Z M 164 353 L 176 353 L 164 353 L 176 353 L 176 401 L 176 401 L 224 401 L 224 401 L 224 413 L 224 413 L 200 436 L 200 436 L 125 451 L 125 451 L 140 376 L 140 376 L 164 353 L 164 353 Z" />
</svg>