<svg xmlns="http://www.w3.org/2000/svg" viewBox="0 0 512 512">
  <path d="M 0 64 Q 1 189 61 290 L 61 290 L 61 290 Q 121 391 222 451 L 222 451 L 222 451 Q 323 511 448 512 L 480 512 L 480 512 L 512 368 L 512 368 L 368 288 L 368 288 L 301 372 L 301 372 Q 196 316 140 211 L 224 144 L 224 144 L 144 0 L 144 0 L 0 32 L 0 32 L 0 64 L 0 64 Z M 16 45 L 136 18 L 16 45 L 136 18 L 203 140 L 203 140 L 130 199 L 130 199 L 120 207 L 120 207 L 126 219 L 126 219 Q 185 328 294 386 L 305 392 L 305 392 L 314 382 L 314 382 L 372 309 L 372 309 L 494 376 L 494 376 L 467 496 L 467 496 L 448 496 L 448 496 Q 327 495 230 437 Q 133 379 75 282 Q 17 185 16 64 Q 16 64 16 64 Q 16 64 16 64 L 16 45 L 16 45 Z" />
</svg>