<svg xmlns="http://www.w3.org/2000/svg" viewBox="0 0 512 512">
  <path d="M 452 16 Q 422 16 402 35 L 402 35 L 402 35 Q 381 55 379 84 L 377 135 L 377 135 L 428 133 L 428 133 Q 457 131 477 110 Q 496 90 496 61 L 496 16 L 496 16 L 452 16 L 452 16 Z M 452 0 L 512 0 L 452 0 L 512 0 L 512 60 L 512 60 Q 512 97 488 121 Q 465 146 429 149 L 376 151 L 376 151 L 372 152 L 372 152 L 346 178 L 346 178 Q 376 172 406 181 Q 436 190 459 213 L 470 224 L 470 224 L 482 236 L 482 236 L 471 247 L 471 247 L 459 258 L 459 258 Q 430 286 391 286 Q 353 286 323 258 L 294 229 L 294 229 L 244 279 L 244 279 Q 274 274 304 283 Q 334 292 357 315 L 369 326 L 369 326 L 380 338 L 380 338 L 369 349 L 369 349 L 357 360 L 357 360 Q 328 388 290 388 Q 251 388 222 360 L 192 331 L 192 331 L 142 381 L 142 381 Q 172 376 202 385 Q 232 393 256 417 L 267 428 L 267 428 L 278 439 L 278 439 L 267 451 L 267 451 L 255 462 L 255 462 Q 226 490 188 490 Q 149 490 120 462 L 91 433 L 91 433 L 17 507 L 17 507 L 11 512 L 11 512 L 0 501 L 0 501 L 6 495 L 6 495 L 79 421 L 79 421 L 52 394 L 52 394 Q 24 364 24 326 Q 24 288 52 258 L 63 247 L 63 247 L 75 236 L 75 236 L 86 247 L 86 247 L 97 258 L 97 258 Q 119 281 128 310 Q 137 338 133 367 L 181 320 L 181 320 L 154 292 L 154 292 Q 125 263 125 224 Q 125 186 154 156 L 165 145 L 165 145 L 176 134 L 176 134 L 188 145 L 188 145 L 199 157 L 199 157 Q 221 179 230 208 Q 239 236 235 266 L 283 218 L 283 218 L 256 190 L 256 190 Q 227 161 227 123 Q 227 84 256 55 L 267 43 L 267 43 L 278 32 L 278 32 L 290 43 L 290 43 L 301 55 L 301 55 Q 323 77 332 106 Q 341 134 337 164 L 361 140 L 361 140 L 361 136 L 361 136 L 363 83 L 363 83 Q 366 47 391 24 Q 415 0 452 0 L 452 0 Z M 315 186 Q 326 155 320 123 L 320 123 L 320 123 Q 314 91 290 66 L 278 55 L 278 55 L 267 66 L 267 66 Q 243 91 243 122 Q 243 154 267 179 L 294 206 L 294 206 L 314 186 L 315 186 Z M 213 288 Q 225 257 218 225 L 218 225 L 218 225 Q 212 193 188 168 L 176 157 L 176 157 L 165 168 L 165 168 Q 142 192 142 224 Q 142 256 165 281 L 192 308 L 192 308 L 213 288 L 213 288 Z M 111 390 Q 123 359 117 327 L 117 327 L 117 327 Q 110 295 86 270 L 75 258 L 75 258 L 63 270 L 63 270 Q 40 294 40 326 Q 40 358 63 383 L 91 410 L 91 410 L 111 390 L 111 390 Z M 321 202 L 306 218 L 321 202 L 306 218 L 335 247 L 335 247 Q 359 270 391 270 Q 423 270 448 247 L 459 236 L 459 236 L 448 224 L 448 224 Q 421 199 387 193 Q 353 188 321 202 L 321 202 Z M 220 304 L 204 320 L 220 304 L 204 320 L 233 349 L 233 349 Q 258 372 289 372 Q 321 372 346 349 L 357 338 L 357 338 L 346 326 L 346 326 Q 320 301 285 295 Q 251 289 220 304 L 220 304 Z M 118 406 L 102 421 L 118 406 L 102 421 L 131 451 L 131 451 Q 156 474 188 474 Q 220 474 244 451 L 255 439 L 255 439 L 244 428 L 244 428 Q 218 402 184 397 Q 150 391 118 406 L 118 406 Z" />
</svg>