<svg xmlns="http://www.w3.org/2000/svg" viewBox="0 0 640 512">
  <path d="M 528 512 L 508 496 L 528 512 L 508 496 L 416 496 L 416 496 L 416 424 L 416 424 L 400 411 L 400 411 L 400 496 L 400 496 L 336 496 L 144 496 L 144 372 L 144 372 Q 198 415 272 416 Q 328 415 373 390 L 360 379 L 360 379 Q 320 400 272 400 Q 190 398 136 344 Q 82 290 80 208 Q 80 184 85 163 L 72 152 L 72 152 Q 64 179 64 208 Q 64 253 81 291 Q 98 329 128 358 L 128 504 L 128 504 L 128 512 L 128 512 L 136 512 L 528 512 Q 528 512 528 512 Q 528 512 528 512 L 528 512 Z M 480 208 Q 478 120 419 61 L 419 61 L 419 61 Q 360 2 272 0 Q 207 1 156 35 L 170 46 L 170 46 Q 215 17 272 16 Q 354 18 408 72 Q 462 126 464 208 Q 464 241 454 270 L 467 280 L 467 280 Q 480 246 480 208 L 480 208 Z M 349 187 Q 342 162 322 145 L 322 145 L 322 145 Q 302 129 274 128 L 349 187 L 349 187 Z M 220 269 Q 222 271 225 273 L 220 269 L 220 269 Z M 16 5 L 10 0 L 16 5 L 10 0 L 0 13 L 0 13 L 6 18 L 6 18 L 624 507 L 624 507 L 630 512 L 630 512 L 640 500 L 640 500 L 634 495 L 634 495 L 16 5 L 16 5 Z" />
</svg>