<svg xmlns="http://www.w3.org/2000/svg" viewBox="0 0 448 512">
  <path d="M 112 16 L 112 112 L 112 16 L 112 112 L 16 112 L 16 112 L 16 16 L 16 16 L 112 16 L 112 16 Z M 16 0 L 0 0 L 16 0 L 0 0 L 0 16 L 0 16 L 0 112 L 0 112 L 0 128 L 0 128 L 16 128 L 56 128 L 56 192 L 56 192 Q 57 223 77 243 Q 97 263 128 264 L 216 264 L 216 264 L 216 384 L 216 384 L 176 384 L 160 384 L 160 400 L 160 400 L 160 496 L 160 496 L 160 512 L 160 512 L 176 512 L 288 512 L 288 496 L 288 496 L 288 400 L 288 400 L 288 384 L 288 384 L 272 384 L 232 384 L 232 264 L 232 264 L 320 264 L 320 264 Q 351 263 371 243 Q 391 223 392 192 L 392 128 L 392 128 L 432 128 L 448 128 L 448 112 L 448 112 L 448 16 L 448 16 L 448 0 L 448 0 L 432 0 L 320 0 L 320 16 L 320 16 L 320 112 L 320 112 L 320 128 L 320 128 L 336 128 L 376 128 L 376 192 L 376 192 Q 375 216 360 232 Q 344 247 320 248 L 128 248 L 128 248 Q 104 247 88 232 Q 73 216 72 192 L 72 128 L 72 128 L 112 128 L 128 128 L 128 112 L 128 112 L 128 16 L 128 16 L 128 0 L 128 0 L 112 0 L 16 0 Z M 272 400 L 272 496 L 272 400 L 272 496 L 176 496 L 176 496 L 176 400 L 176 400 L 272 400 L 272 400 Z M 336 16 L 432 16 L 336 16 L 432 16 L 432 112 L 432 112 L 336 112 L 336 112 L 336 16 L 336 16 Z" />
</svg>