<svg xmlns="http://www.w3.org/2000/svg" viewBox="0 0 514 448">
  <path d="M 133 0 L 128 0 L 133 0 L 128 0 L 126 4 L 126 4 L 2 220 L 2 220 L 0 224 L 0 224 L 2 228 L 2 228 L 126 444 L 126 444 L 128 448 L 128 448 L 133 448 L 386 448 L 388 444 L 388 444 L 512 228 L 512 228 L 514 224 L 514 224 L 512 220 L 512 220 L 388 4 L 388 4 L 386 0 L 386 0 L 381 0 L 133 0 Z M 18 224 L 138 16 L 18 224 L 138 16 L 376 16 L 376 16 L 496 224 L 496 224 L 376 432 L 376 432 L 138 432 L 138 432 L 18 224 L 18 224 Z M 232 148 Q 225 140 225 128 Q 225 114 234 105 Q 243 96 257 96 Q 271 96 280 105 Q 289 114 289 128 Q 288 145 276 154 Q 269 159 261 160 L 261 160 L 261 160 Q 259 160 257 160 Q 250 160 245 158 Q 237 154 232 148 L 232 148 Z M 209 128 Q 209 148 222 161 L 183 213 L 183 213 Q 173 208 161 208 Q 141 209 127 222 Q 114 236 113 256 Q 114 276 127 290 Q 141 303 161 304 Q 194 302 206 273 L 273 287 L 273 287 Q 273 287 273 287 Q 273 288 273 288 Q 274 308 287 322 Q 301 335 321 336 Q 341 335 355 322 Q 368 308 369 288 Q 368 268 355 254 Q 341 241 321 240 Q 316 240 311 241 L 282 169 L 282 169 Q 304 155 305 128 Q 304 108 291 94 Q 277 81 257 80 Q 237 81 223 94 Q 210 108 209 128 L 209 128 Z M 209 256 Q 209 236 196 223 L 235 171 L 235 171 Q 245 176 257 176 Q 262 176 267 175 L 296 247 L 296 247 Q 282 256 276 271 L 209 257 L 209 257 Q 209 257 209 257 Q 209 256 209 256 L 209 256 Z M 289 288 Q 289 274 298 265 L 298 265 L 298 265 Q 307 256 321 256 Q 335 256 344 265 Q 353 274 353 288 Q 353 302 344 311 Q 335 320 321 320 Q 307 320 298 311 Q 289 302 289 288 L 289 288 Z M 161 224 Q 175 224 184 233 L 184 233 L 184 233 Q 193 242 193 256 Q 193 270 184 279 Q 175 288 161 288 Q 147 288 138 279 Q 129 270 129 256 Q 129 242 138 233 Q 147 224 161 224 L 161 224 Z" />
</svg>