<svg xmlns="http://www.w3.org/2000/svg" viewBox="0 0 640 512">
  <path d="M 560 256 Q 560 227 553 199 L 566 186 L 566 186 Q 576 220 576 256 Q 576 292 567 324 Q 559 327 552 331 Q 551 331 551 330 Q 550 330 549 329 Q 560 294 560 256 L 560 256 Z M 454 455 L 455 455 L 454 455 L 455 455 L 455 456 L 455 456 L 466 466 L 466 466 Q 403 511 320 512 Q 231 510 165 460 L 176 448 L 176 448 Q 238 495 320 496 Q 396 495 454 455 L 454 455 Z M 320 0 Q 382 0 435 27 Q 433 35 432 44 Q 381 17 320 16 Q 253 17 199 49 Q 145 81 113 135 Q 81 189 80 256 Q 80 286 87 315 Q 79 310 69 307 Q 64 282 64 256 Q 65 184 99 127 Q 133 69 191 35 Q 248 1 320 0 L 320 0 Z M 320 400 Q 277 399 248 378 L 248 378 L 248 378 Q 218 358 201 333 L 215 323 L 215 323 Q 230 347 257 365 Q 283 383 320 384 Q 357 383 383 365 Q 410 347 425 323 L 439 333 L 439 333 Q 422 358 392 378 Q 363 399 320 400 L 320 400 Z M 199 228 L 195 235 L 199 228 L 195 235 L 181 227 L 181 227 L 185 220 L 185 220 Q 206 185 240 184 Q 273 185 295 220 L 299 227 L 299 227 L 285 235 L 285 235 L 281 228 L 281 228 Q 263 199 240 200 Q 216 199 199 228 L 199 228 Z M 400 200 Q 376 199 359 228 L 355 235 L 355 235 L 341 227 L 341 227 L 345 220 L 345 220 Q 366 185 400 184 Q 433 185 455 220 L 459 227 L 459 227 L 445 235 L 445 235 L 441 228 L 441 228 Q 423 199 400 200 L 400 200 Z M 48 336 Q 67 336 81 350 L 88 357 L 88 357 L 95 350 L 95 350 Q 109 336 128 336 Q 149 337 162 350 Q 175 363 176 384 Q 176 403 162 417 L 94 486 L 94 486 L 88 491 L 88 491 L 82 486 L 82 486 L 14 417 L 14 417 Q 0 403 0 384 Q 1 363 14 350 Q 27 337 48 336 L 48 336 Z M 16 384 Q 16 397 25 406 L 88 469 L 88 469 L 151 406 L 151 406 Q 160 397 160 384 Q 160 370 151 361 Q 142 352 128 352 Q 115 352 106 361 L 94 374 L 94 374 L 88 379 L 88 379 L 82 374 L 82 374 L 70 361 L 70 361 Q 61 352 48 352 Q 34 352 25 361 Q 16 370 16 384 L 16 384 Z M 464 48 Q 465 27 478 14 L 478 14 L 478 14 Q 491 1 512 0 Q 531 0 545 14 L 552 21 L 552 21 L 559 14 L 559 14 Q 573 0 592 0 Q 613 1 626 14 Q 639 27 640 48 Q 640 67 626 81 L 558 150 L 558 150 L 552 155 L 552 155 L 546 150 L 546 150 L 478 81 L 478 81 Q 464 67 464 48 L 464 48 Z M 512 16 Q 498 16 489 25 L 489 25 L 489 25 Q 480 34 480 48 Q 480 61 489 70 L 552 133 L 552 133 L 615 70 L 615 70 Q 624 61 624 48 Q 624 34 615 25 Q 606 16 592 16 Q 579 16 570 25 L 558 38 L 558 38 L 552 43 L 552 43 L 546 38 L 546 38 L 534 25 L 534 25 Q 525 16 512 16 L 512 16 Z M 545 366 L 552 373 L 545 366 L 552 373 L 559 366 L 559 366 Q 573 352 592 352 Q 613 353 626 366 Q 639 379 640 400 Q 640 419 626 433 L 558 502 L 558 502 L 552 507 L 552 507 L 546 502 L 546 502 L 478 433 L 478 433 Q 464 419 464 400 Q 465 379 478 366 Q 491 353 512 352 Q 531 352 545 366 L 545 366 Z M 480 400 Q 480 413 489 422 L 552 485 L 552 485 L 615 422 L 615 422 Q 624 413 624 400 Q 624 386 615 377 Q 606 368 592 368 Q 579 368 570 377 L 558 390 L 558 390 L 552 396 L 552 396 L 546 390 L 546 390 L 534 377 L 534 377 Q 525 368 512 368 Q 498 368 489 377 Q 480 386 480 400 L 480 400 Z" />
</svg>