<svg xmlns="http://www.w3.org/2000/svg" viewBox="0 0 576 480">
  <path d="M 16 448 L 0 448 L 16 448 L 0 448 L 0 432 L 0 432 L 0 16 L 0 16 L 0 0 L 0 0 L 16 0 L 336 0 L 448 112 L 448 112 L 448 161 L 448 161 Q 440 160 432 160 L 432 119 L 432 119 L 329 16 L 329 16 L 320 16 L 320 16 L 320 152 L 320 152 Q 319 159 312 160 L 72 160 L 72 160 Q 65 159 64 152 L 64 16 L 64 16 L 16 16 L 16 16 L 16 432 L 16 432 L 285 432 L 285 432 Q 290 440 296 448 L 16 448 L 16 448 Z M 224 208 Q 263 209 288 235 Q 283 242 279 249 Q 258 225 224 224 Q 193 225 173 245 Q 153 265 152 296 Q 153 327 173 347 Q 193 367 224 368 Q 242 368 258 360 Q 259 368 261 376 Q 244 384 224 384 Q 187 383 162 358 Q 137 333 136 296 Q 137 259 162 234 Q 187 209 224 208 L 224 208 Z M 80 16 L 80 144 L 80 16 L 80 144 L 304 144 L 304 144 L 304 16 L 304 16 L 80 16 L 80 16 Z M 560 336 Q 560 301 543 272 L 543 272 L 543 272 Q 526 243 496 225 Q 466 208 432 208 Q 398 208 368 225 Q 338 243 321 272 Q 304 301 304 336 Q 304 371 321 400 Q 338 429 368 447 Q 398 464 432 464 Q 466 464 496 447 Q 526 429 543 400 Q 560 371 560 336 L 560 336 Z M 288 336 Q 288 297 307 264 L 307 264 L 307 264 Q 326 231 360 211 Q 394 192 432 192 Q 470 192 504 211 Q 538 231 557 264 Q 576 297 576 336 Q 576 375 557 408 Q 538 441 504 461 Q 470 480 432 480 Q 394 480 360 461 Q 326 441 307 408 Q 288 375 288 336 L 288 336 Z M 494 286 L 443 336 L 494 286 L 443 336 L 494 386 L 494 386 L 499 392 L 499 392 L 488 403 L 488 403 L 482 398 L 482 398 L 432 347 L 432 347 L 382 398 L 382 398 L 376 403 L 376 403 L 365 392 L 365 392 L 370 386 L 370 386 L 421 336 L 421 336 L 370 286 L 370 286 L 365 280 L 365 280 L 376 269 L 376 269 L 382 274 L 382 274 L 432 325 L 432 325 L 482 274 L 482 274 L 488 269 L 488 269 L 499 280 L 499 280 L 494 286 L 494 286 Z" />
</svg>