<svg xmlns="http://www.w3.org/2000/svg" viewBox="0 0 512 512">
  <path d="M 16 232 L 256 397 L 16 232 L 256 397 L 496 232 L 496 232 L 496 200 L 496 200 L 256 20 L 256 20 L 16 200 L 16 200 L 16 232 L 16 232 Z M 496 251 L 256 416 L 496 251 L 256 416 L 16 251 L 16 251 L 16 496 L 16 496 L 496 496 L 496 496 L 496 251 L 496 251 Z M 0 192 L 256 0 L 0 192 L 256 0 L 512 192 L 512 192 L 512 240 L 512 240 L 512 496 L 512 496 L 512 512 L 512 512 L 496 512 L 0 512 L 0 496 L 0 496 L 0 240 L 0 240 L 0 192 L 0 192 Z" />
</svg>