<svg xmlns="http://www.w3.org/2000/svg" viewBox="0 0 512 512">
  <path d="M 160 416 L 144 416 L 160 416 L 0 416 L 0 400 L 0 400 L 0 16 L 0 16 L 0 0 L 0 0 L 16 0 L 512 0 L 512 16 L 512 16 L 512 400 L 512 400 L 512 416 L 512 416 L 496 416 L 304 416 L 176 501 L 176 501 L 160 512 L 160 512 L 160 493 L 160 493 L 160 432 L 160 432 L 160 416 L 160 416 Z M 160 400 L 176 400 L 160 400 L 176 400 L 176 416 L 176 416 L 176 482 L 176 482 L 295 403 L 295 403 L 299 400 L 299 400 L 304 400 L 496 400 L 496 16 L 496 16 L 16 16 L 16 16 L 16 400 L 16 400 L 160 400 L 160 400 Z M 136 152 L 376 152 L 136 152 L 384 152 L 384 168 L 384 168 L 376 168 L 128 168 L 128 152 L 128 152 L 136 152 L 136 152 Z M 136 248 L 280 248 L 136 248 L 288 248 L 288 264 L 288 264 L 280 264 L 128 264 L 128 248 L 128 248 L 136 248 L 136 248 Z" />
</svg>