<svg xmlns="http://www.w3.org/2000/svg" viewBox="0 0 448 448">
  <path d="M 72 0 L 64 0 L 72 0 L 64 0 L 64 8 L 64 8 L 64 224 L 64 224 L 8 224 L 0 224 L 0 240 L 0 240 L 8 240 L 64 240 L 64 440 L 64 440 L 64 448 L 64 448 L 80 448 L 80 448 L 80 440 L 80 440 L 80 240 L 80 240 L 225 240 L 225 240 L 364 445 L 364 445 L 366 448 L 366 448 L 371 448 L 384 448 L 384 440 L 384 440 L 384 240 L 384 240 L 440 240 L 448 240 L 448 224 L 448 224 L 440 224 L 384 224 L 384 8 L 384 8 L 384 0 L 384 0 L 368 0 L 368 0 L 368 8 L 368 8 L 368 224 L 368 224 L 234 224 L 234 224 L 84 4 L 84 4 L 82 0 L 82 0 L 77 0 L 72 0 Z M 245 240 L 368 240 L 245 240 L 368 240 L 368 422 L 368 422 L 245 240 L 245 240 Z M 214 224 L 80 224 L 214 224 L 80 224 L 80 26 L 80 26 L 214 224 L 214 224 Z" />
</svg>