<svg xmlns="http://www.w3.org/2000/svg" viewBox="0 0 640 512">
  <path d="M 320 0 Q 356 1 375 32 Q 393 64 375 96 Q 356 127 320 128 Q 284 127 265 96 Q 247 64 265 32 Q 284 1 320 0 L 320 0 Z M 424 352 L 384 352 L 424 352 L 384 352 L 384 512 L 384 512 L 256 512 L 256 512 L 256 352 L 256 352 L 216 352 L 216 352 L 224 160 L 224 160 L 416 160 L 416 160 L 424 352 L 424 352 Z M 35 32 Q 99 32 154 58 L 154 58 L 154 58 Q 209 83 248 128 L 193 128 L 193 128 L 183 384 L 183 384 L 224 384 L 224 384 L 224 447 L 224 447 Q 175 479 112 480 L 96 480 L 64 480 L 64 448 L 64 448 Q 65 378 104 326 Q 56 288 28 233 Q 1 178 0 112 L 0 64 L 0 64 L 0 32 L 0 32 L 32 32 L 35 32 Z M 447 128 L 392 128 L 447 128 L 392 128 Q 431 83 486 58 Q 541 32 605 32 L 608 32 L 640 32 L 640 64 L 640 64 L 640 112 L 640 112 Q 639 178 612 233 Q 584 288 536 326 Q 575 378 576 448 L 576 480 L 576 480 L 544 480 L 528 480 Q 465 479 416 447 L 416 384 L 416 384 L 457 384 L 457 384 L 447 128 L 447 128 Z" />
</svg>