<svg xmlns="http://www.w3.org/2000/svg" viewBox="0 0 512 438">
  <path d="M 110 0 L 146 54 L 110 0 L 146 54 Q 124 67 95 109 Q 67 152 64 219 Q 67 286 95 329 Q 124 371 146 384 L 110 438 L 110 438 Q 90 425 65 395 Q 39 366 20 321 Q 1 277 0 219 Q 1 161 20 117 Q 39 72 65 43 Q 90 13 110 0 L 110 0 Z M 402 0 Q 422 13 447 43 L 447 43 L 447 43 Q 473 72 492 117 L 492 117 L 492 117 Q 511 161 512 219 Q 511 277 492 321 Q 473 366 447 395 Q 422 425 402 438 L 366 384 L 366 384 Q 388 371 417 329 Q 445 286 448 219 Q 445 152 417 109 Q 388 67 366 54 L 402 0 L 402 0 Z" />
</svg>