<svg xmlns="http://www.w3.org/2000/svg" viewBox="0 0 512 448">
  <path d="M 72 344 L 76 335 L 72 344 L 76 335 L 68 328 L 68 328 Q 17 276 16 208 Q 18 128 85 73 Q 152 18 256 16 Q 360 18 427 73 Q 494 128 496 208 Q 494 288 427 343 Q 360 398 256 400 Q 211 400 171 388 L 166 386 L 166 386 L 162 388 L 162 388 L 42 423 L 42 423 L 72 344 L 72 344 Z M 16 448 L 35 442 L 16 448 L 35 442 L 166 403 L 166 403 Q 209 416 256 416 Q 328 415 385 388 Q 443 360 477 313 Q 511 266 512 208 Q 511 150 477 103 Q 443 56 385 28 Q 328 1 256 0 Q 184 1 127 28 Q 69 56 35 103 Q 1 150 0 208 Q 2 284 57 339 L 23 429 L 23 429 L 16 448 L 16 448 Z M 352 85 L 341 89 L 352 85 L 341 89 L 213 137 L 213 137 L 208 139 L 208 139 L 208 144 L 208 144 L 208 250 L 208 250 Q 195 240 176 240 Q 156 240 142 252 Q 129 263 128 280 Q 129 297 142 308 Q 156 320 176 320 Q 196 320 210 308 Q 223 297 224 280 L 224 150 L 224 150 L 336 108 L 336 108 L 336 218 L 336 218 Q 323 208 304 208 Q 284 208 270 220 Q 257 231 256 248 Q 257 265 270 276 Q 284 287 304 288 Q 324 287 338 276 Q 351 265 352 248 L 352 96 L 352 96 L 352 84 L 352 85 Z M 304 224 Q 319 225 328 232 L 328 232 L 328 232 Q 336 240 336 248 Q 336 256 328 264 Q 319 271 304 272 Q 289 271 280 264 Q 272 256 272 248 Q 272 240 280 232 Q 289 225 304 224 L 304 224 Z M 176 256 Q 191 257 200 264 L 200 264 L 200 264 Q 208 272 208 280 Q 208 288 200 296 Q 191 303 176 304 Q 161 303 152 296 Q 144 288 144 280 Q 144 272 152 264 Q 161 257 176 256 L 176 256 Z" />
</svg>