<svg xmlns="http://www.w3.org/2000/svg" viewBox="0 0 640 512">
  <path d="M 318 284 Q 318 284 318 284 L 318 284 L 318 284 Q 318 284 318 284 Q 300 263 309 241 Q 318 218 346 216 L 368 216 L 384 216 L 384 200 L 384 200 L 384 184 L 384 184 L 384 168 L 384 168 L 368 168 L 346 168 Q 318 166 309 143 Q 300 121 318 100 L 333 85 L 333 85 L 345 73 L 345 73 L 333 62 L 333 62 L 328 56 L 328 56 L 322 51 L 322 51 L 311 39 L 311 39 L 300 51 L 300 51 L 284 66 L 284 66 Q 263 84 241 75 Q 218 66 216 38 L 216 16 L 216 16 L 216 0 L 216 0 L 200 0 L 168 0 L 168 16 L 168 16 L 168 38 L 168 38 Q 166 66 143 75 Q 121 84 100 66 L 85 51 L 85 51 L 73 39 L 73 39 L 62 51 L 62 51 L 51 62 L 51 62 L 39 73 L 39 73 L 51 85 L 51 85 L 66 100 L 66 100 Q 87 123 77 144 Q 66 166 38 168 L 16 168 L 0 168 L 0 184 L 0 184 L 0 200 L 0 200 L 0 216 L 0 216 L 16 216 L 38 216 Q 66 218 75 241 Q 84 263 66 284 L 51 300 L 51 300 L 39 311 L 39 311 L 51 322 L 51 322 L 62 333 L 62 333 L 73 345 L 73 345 L 85 333 L 85 333 L 100 318 L 100 318 Q 121 300 143 309 Q 166 318 168 346 L 168 368 L 168 368 L 168 384 L 168 384 L 184 384 L 216 384 L 216 368 L 216 368 L 216 346 L 216 346 Q 218 318 241 309 Q 263 300 284 318 L 300 333 L 300 333 L 311 345 L 311 345 L 322 333 L 322 333 L 333 322 L 333 322 L 345 311 L 345 311 L 333 300 L 333 300 L 318 284 L 318 284 Z M 322 311 L 311 322 L 322 311 L 311 322 L 296 307 L 296 307 Q 296 307 296 307 Q 296 307 296 307 Q 267 282 235 294 Q 203 307 200 346 L 200 368 L 200 368 L 184 368 L 184 368 L 184 346 L 184 346 Q 181 307 149 294 Q 117 282 88 307 L 73 322 L 73 322 L 62 311 L 62 311 L 77 296 L 77 296 Q 102 267 90 235 Q 77 203 38 200 L 16 200 L 16 200 L 16 184 L 16 184 L 38 184 L 38 184 Q 76 182 91 151 Q 106 119 77 88 L 62 73 L 62 73 L 73 62 L 73 62 L 88 77 L 88 77 Q 88 77 88 77 Q 117 102 149 90 Q 181 77 184 38 L 184 16 L 184 16 L 200 16 L 200 16 L 200 38 L 200 38 Q 203 77 235 90 Q 267 102 296 77 L 311 62 L 311 62 L 317 68 L 317 68 L 322 73 L 322 73 L 307 88 L 307 88 Q 282 117 294 149 Q 307 181 346 184 L 368 184 L 368 184 L 368 200 L 368 200 L 346 200 L 346 200 Q 307 203 294 235 Q 282 267 307 296 Q 307 296 307 296 Q 307 296 307 296 Q 307 296 307 296 L 322 311 L 322 311 Z M 480 336 Q 495 337 496 352 Q 495 367 480 368 Q 465 367 464 352 Q 465 337 480 336 L 480 336 Z M 480 384 Q 494 384 503 375 L 503 375 L 503 375 Q 512 366 512 352 Q 512 338 503 329 Q 494 320 480 320 Q 466 320 457 329 Q 448 338 448 352 Q 448 366 457 375 Q 466 384 480 384 L 480 384 Z M 240 224 Q 255 223 256 208 Q 255 193 240 192 Q 225 193 224 208 Q 225 223 240 224 L 240 224 Z M 160 184 Q 138 182 136 160 Q 138 138 160 136 Q 182 138 184 160 Q 182 182 160 184 L 160 184 Z M 120 160 Q 121 183 140 195 Q 160 205 180 195 Q 199 183 200 160 Q 199 137 180 125 Q 160 115 140 125 Q 121 137 120 160 L 120 160 Z M 368 368 Q 404 365 417 335 L 417 335 L 417 335 Q 430 305 406 278 Q 433 302 463 289 Q 493 276 496 240 Q 498 273 525 287 Q 539 295 556 293 Q 573 291 587 278 Q 563 305 575 335 Q 588 365 624 368 Q 588 371 575 401 Q 563 431 587 459 Q 559 434 529 447 Q 499 460 496 496 Q 493 460 463 447 Q 433 435 406 459 Q 430 431 417 401 Q 404 371 368 368 L 368 368 Z M 480 224 L 480 240 L 480 224 L 480 240 Q 478 265 457 274 Q 436 283 417 266 L 406 255 L 406 255 L 383 278 L 383 278 L 394 289 L 394 289 Q 411 308 402 329 Q 393 350 368 352 L 352 352 L 352 352 L 352 384 L 352 384 L 368 384 L 368 384 Q 393 386 402 407 Q 411 428 394 447 L 383 459 L 383 459 L 406 481 L 406 481 L 417 470 L 417 470 Q 436 453 457 462 Q 478 471 480 496 L 480 512 L 480 512 L 512 512 L 512 512 L 512 496 L 512 496 Q 514 471 535 462 Q 556 453 575 470 L 587 481 L 587 481 L 609 458 L 609 458 L 598 447 L 598 447 Q 581 428 590 407 Q 599 386 624 384 L 640 384 L 640 384 L 640 352 L 640 352 L 624 352 L 624 352 Q 599 350 590 329 Q 581 308 598 289 L 609 278 L 609 278 L 587 255 L 587 255 L 575 266 L 575 266 Q 556 283 535 274 Q 514 265 512 240 L 512 224 L 512 224 L 480 224 L 480 224 Z" />
</svg>