<svg xmlns="http://www.w3.org/2000/svg" viewBox="0 0 508 508">
  <path d="M 440 264 L 473 254 L 440 264 L 473 254 L 508 244 L 508 244 L 508 208 L 508 208 L 508 48 L 508 48 L 508 16 L 508 16 L 508 0 L 508 0 L 492 0 L 302 0 L 289 27 L 289 27 L 273 59 L 273 59 L 259 87 L 259 87 L 252 102 L 252 102 L 266 109 L 266 109 L 323 137 L 323 137 L 337 145 L 337 145 L 345 130 L 345 130 L 359 102 L 359 102 L 362 96 L 362 96 L 396 96 L 412 96 L 412 112 L 412 112 L 412 172 L 412 172 L 223 226 L 223 226 L 211 229 L 211 229 L 202 238 L 202 238 L 152 288 L 152 288 L 108 288 L 92 288 L 92 304 L 92 304 L 92 348 L 92 348 L 34 406 L 34 406 L 11 429 L 11 429 L 0 440 L 0 440 L 11 451 L 11 451 L 57 497 L 57 497 L 68 508 L 68 508 L 79 497 L 79 497 L 102 474 L 102 474 L 261 315 L 261 315 L 357 287 L 357 287 L 396 309 L 396 309 L 410 317 L 410 317 L 418 303 L 418 303 L 440 264 L 440 264 Z M 404 295 L 365 273 L 404 295 L 365 273 L 359 270 L 359 270 L 353 272 L 353 272 L 257 299 L 257 299 L 253 300 L 253 300 L 250 303 L 250 303 L 91 463 L 91 463 L 68 485 L 68 485 L 23 440 L 23 440 L 45 417 L 45 417 L 103 360 L 103 360 L 108 355 L 108 355 L 108 348 L 108 348 L 108 304 L 108 304 L 152 304 L 159 304 L 163 299 L 163 299 L 213 249 L 213 249 L 219 244 L 219 244 L 227 241 L 227 241 L 416 187 L 416 187 L 428 184 L 428 184 L 428 172 L 428 172 L 428 96 L 428 96 L 428 80 L 428 80 L 412 80 L 352 80 L 347 89 L 347 89 L 345 94 L 345 94 L 330 123 L 330 123 L 273 94 L 273 94 L 287 66 L 287 66 L 303 34 L 303 34 L 312 16 L 312 16 L 332 16 L 492 16 L 492 48 L 492 48 L 492 208 L 492 208 L 492 232 L 492 232 L 469 239 L 469 239 L 435 248 L 435 248 L 429 250 L 429 250 L 426 256 L 426 256 L 404 295 L 404 295 Z" />
</svg>