<svg xmlns="http://www.w3.org/2000/svg" viewBox="0 0 576 512">
  <path d="M 514 12 Q 500 5 484 2 Q 472 0 460 0 Q 413 1 378 28 Q 344 56 332 100 Q 340 102 347 105 Q 357 66 387 42 Q 417 17 458 16 Q 435 32 422 56 Q 409 81 408 110 Q 410 159 442 191 Q 474 224 523 225 Q 526 225 529 225 Q 501 245 465 247 Q 469 255 472 263 Q 524 257 558 220 Q 568 208 576 194 Q 564 202 549 206 Q 537 209 523 209 Q 481 208 453 180 Q 425 152 424 110 Q 425 79 441 55 Q 458 30 486 19 Q 499 13 514 12 L 514 12 Z M 251 132 Q 223 98 176 96 Q 135 97 108 124 Q 81 151 80 192 L 80 193 L 80 193 Q 45 200 23 226 Q 1 252 0 288 L 0 368 L 0 368 L 0 384 L 0 384 L 16 384 L 448 384 L 448 368 L 448 368 L 448 304 L 448 304 Q 447 276 431 255 Q 415 234 388 227 Q 385 226 382 225 Q 383 222 383 219 Q 384 213 384 208 Q 383 174 360 151 Q 338 129 304 128 Q 284 128 267 137 Q 262 139 258 142 Q 255 137 251 132 L 251 132 Z M 432 368 L 368 368 L 432 368 L 16 368 L 16 288 L 16 288 Q 17 258 35 236 Q 54 214 83 209 L 96 207 L 96 207 L 96 193 L 96 193 L 96 192 L 96 192 Q 97 158 119 135 Q 142 113 176 112 Q 222 114 245 151 L 253 165 L 253 165 L 267 156 L 267 156 Q 283 144 304 144 Q 331 145 349 163 Q 367 181 368 208 Q 368 215 366 222 L 363 238 L 363 238 L 379 241 L 379 241 Q 402 245 417 263 Q 431 280 432 304 L 432 368 L 432 368 Z M 72 416 L 8 512 L 72 416 L 8 512 L 32 512 L 32 512 L 96 416 L 96 416 L 72 416 L 72 416 Z M 168 416 L 104 512 L 168 416 L 104 512 L 128 512 L 128 512 L 192 416 L 192 416 L 168 416 L 168 416 Z M 288 416 L 264 416 L 288 416 L 264 416 L 200 512 L 200 512 L 224 512 L 224 512 L 288 416 L 288 416 Z M 360 416 L 296 512 L 360 416 L 296 512 L 320 512 L 320 512 L 384 416 L 384 416 L 360 416 L 360 416 Z" />
</svg>