<svg xmlns="http://www.w3.org/2000/svg" viewBox="0 0 504 416">
  <path d="M 16 16 L 16 80 L 16 16 L 16 80 L 40 80 L 80 80 L 80 16 L 80 16 L 16 16 L 16 16 Z M 40 96 L 16 96 L 40 96 L 0 96 L 0 80 L 0 80 L 0 16 L 0 16 L 0 0 L 0 0 L 16 0 L 96 0 L 96 16 L 96 16 L 96 80 L 96 80 L 96 96 L 96 96 L 80 96 L 56 96 L 56 208 L 56 208 L 128 208 L 128 208 L 128 176 L 128 176 L 128 160 L 128 160 L 144 160 L 224 160 L 224 176 L 224 176 L 224 240 L 224 240 L 224 256 L 224 256 L 208 256 L 128 256 L 128 240 L 128 240 L 128 224 L 128 224 L 56 224 L 56 224 L 56 368 L 56 368 L 128 368 L 128 368 L 128 336 L 128 336 L 128 320 L 128 320 L 144 320 L 224 320 L 224 336 L 224 336 L 224 400 L 224 400 L 224 416 L 224 416 L 208 416 L 128 416 L 128 400 L 128 400 L 128 384 L 128 384 L 48 384 L 40 384 L 40 376 L 40 376 L 40 216 L 40 216 L 40 96 L 40 96 Z M 144 368 L 144 384 L 144 368 L 144 384 L 144 400 L 144 400 L 208 400 L 208 400 L 208 336 L 208 336 L 144 336 L 144 336 L 144 368 L 144 368 Z M 144 240 L 208 240 L 144 240 L 208 240 L 208 176 L 208 176 L 144 176 L 144 176 L 144 208 L 144 208 L 144 224 L 144 224 L 144 240 L 144 240 Z M 168 40 L 176 40 L 168 40 L 504 40 L 504 56 L 504 56 L 496 56 L 168 56 L 168 40 L 168 40 Z M 296 200 L 304 200 L 296 200 L 504 200 L 504 216 L 504 216 L 496 216 L 296 216 L 296 200 L 296 200 Z M 296 360 L 304 360 L 296 360 L 504 360 L 504 376 L 504 376 L 496 376 L 296 376 L 296 360 L 296 360 Z" />
</svg>