<svg xmlns="http://www.w3.org/2000/svg" viewBox="0 0 640 507">
  <path d="M 422 5 L 416 0 L 422 5 L 416 0 L 410 5 L 410 5 L 287 129 L 287 129 L 299 139 L 299 139 L 416 22 L 416 22 L 560 166 L 560 166 L 560 171 L 560 171 L 488 171 L 471 171 L 482 184 L 482 184 L 592 319 L 592 319 L 592 331 L 592 331 L 504 331 L 486 331 L 498 344 L 498 344 L 624 482 L 624 482 L 624 491 L 624 491 L 416 491 L 416 491 L 416 507 L 416 507 Q 416 507 416 507 Q 416 507 416 507 L 632 507 L 640 507 L 640 499 L 640 499 L 640 479 L 640 479 L 640 476 L 640 476 L 638 474 L 638 474 L 522 347 L 522 347 L 600 347 L 608 347 L 608 339 L 608 339 L 608 316 L 608 316 L 608 313 L 608 313 L 606 311 L 606 311 L 505 187 L 505 187 L 568 187 L 576 187 L 576 179 L 576 179 L 576 163 L 576 163 L 576 160 L 576 160 L 574 157 L 574 157 L 422 5 L 422 5 Z M 16 259 L 192 112 L 16 259 L 192 112 L 368 259 L 368 259 L 368 491 L 368 491 L 16 491 L 16 491 L 16 259 L 16 259 Z M 0 251 L 0 491 L 0 251 L 0 491 L 0 507 L 0 507 L 16 507 L 384 507 L 384 491 L 384 491 L 384 251 L 384 251 L 192 91 L 192 91 L 0 251 L 0 251 Z M 152 275 L 232 275 L 152 275 L 232 275 L 232 355 L 232 355 L 152 355 L 152 355 L 152 275 L 152 275 Z M 152 259 L 136 259 L 152 259 L 136 259 L 136 275 L 136 275 L 136 355 L 136 355 L 136 371 L 136 371 L 152 371 L 248 371 L 248 355 L 248 355 L 248 275 L 248 275 L 248 259 L 248 259 L 232 259 L 152 259 Z" />
</svg>