<svg xmlns="http://www.w3.org/2000/svg" viewBox="0 0 368 368">
  <path d="M 235 117 L 309 43 L 235 117 L 309 43 L 320 32 L 320 32 L 309 21 L 309 21 L 288 0 L 288 0 L 16 0 L 0 0 L 0 16 L 0 16 L 0 288 L 0 288 L 21 309 L 21 309 L 32 320 L 32 320 L 43 309 L 43 309 L 117 235 L 117 235 L 128 224 L 128 224 L 139 235 L 139 235 L 261 357 L 261 357 L 272 368 L 272 368 L 283 357 L 283 357 L 357 283 L 357 283 L 368 272 L 368 272 L 357 261 L 357 261 L 235 139 L 235 139 L 224 128 L 224 128 L 235 117 L 235 117 Z M 345 272 L 272 345 L 345 272 L 272 345 L 139 213 L 139 213 L 128 201 L 128 201 L 117 213 L 117 213 L 32 297 L 32 297 L 16 281 L 16 281 L 16 16 L 16 16 L 281 16 L 281 16 L 297 32 L 297 32 L 213 117 L 213 117 L 201 128 L 201 128 L 213 139 L 213 139 L 345 272 L 345 272 Z" />
</svg>