<svg xmlns="http://www.w3.org/2000/svg" viewBox="0 0 448 512">
  <path d="M 128 0 L 128 8 L 128 0 L 128 8 L 128 64 L 128 64 L 320 64 L 320 64 L 320 8 L 320 8 L 320 0 L 320 0 L 336 0 L 336 0 L 336 8 L 336 8 L 336 64 L 336 64 L 432 64 L 448 64 L 448 80 L 448 80 L 448 176 L 448 176 L 448 192 L 448 192 L 448 496 L 448 496 L 448 512 L 448 512 L 432 512 L 0 512 L 0 496 L 0 496 L 0 192 L 0 192 L 0 176 L 0 176 L 0 80 L 0 80 L 0 64 L 0 64 L 16 64 L 112 64 L 112 8 L 112 8 L 112 0 L 112 0 L 128 0 L 128 0 Z M 432 192 L 16 192 L 432 192 L 16 192 L 16 496 L 16 496 L 432 496 L 432 496 L 432 192 L 432 192 Z M 112 120 L 112 80 L 112 120 L 112 80 L 16 80 L 16 80 L 16 176 L 16 176 L 432 176 L 432 176 L 432 80 L 432 80 L 336 80 L 336 80 L 336 120 L 336 120 L 336 128 L 336 128 L 320 128 L 320 128 L 320 120 L 320 120 L 320 80 L 320 80 L 128 80 L 128 80 L 128 120 L 128 120 L 128 128 L 128 128 L 112 128 L 112 128 L 112 120 L 112 120 Z M 256 250 L 262 259 L 256 250 L 262 259 L 390 435 L 390 435 L 400 448 L 400 448 L 384 448 L 49 448 L 58 435 L 58 435 L 138 323 L 138 323 L 143 316 L 143 316 L 150 322 L 150 322 L 183 356 L 183 356 L 249 260 L 249 260 L 256 250 L 256 250 Z M 256 278 L 191 373 L 256 278 L 191 373 L 185 380 L 185 380 L 178 374 L 178 374 L 145 340 L 145 340 L 80 432 L 80 432 L 368 432 L 368 432 L 256 278 L 256 278 Z M 96 272 Q 97 287 112 288 Q 127 287 128 272 Q 127 257 112 256 Q 97 257 96 272 L 96 272 Z M 112 304 Q 98 304 89 295 L 89 295 L 89 295 Q 80 286 80 272 Q 80 258 89 249 Q 98 240 112 240 Q 126 240 135 249 Q 144 258 144 272 Q 144 286 135 295 Q 126 304 112 304 L 112 304 Z" />
</svg>