<svg xmlns="http://www.w3.org/2000/svg" viewBox="0 0 320 256">
  <path d="M 53 240 L 16 78 L 53 240 L 16 78 L 16 16 L 16 16 L 112 16 L 112 16 L 112 78 L 112 78 L 75 240 L 75 240 L 53 240 L 53 240 Z M 128 0 L 112 0 L 128 0 L 0 0 L 0 16 L 0 16 L 0 80 L 0 80 L 40 256 L 40 256 L 88 256 L 88 256 L 128 80 L 128 80 L 128 16 L 128 16 L 128 0 L 128 0 Z M 245 240 L 208 78 L 245 240 L 208 78 L 208 16 L 208 16 L 304 16 L 304 16 L 304 78 L 304 78 L 267 240 L 267 240 L 245 240 L 245 240 Z M 320 0 L 304 0 L 320 0 L 192 0 L 192 16 L 192 16 L 192 80 L 192 80 L 232 256 L 232 256 L 280 256 L 280 256 L 320 80 L 320 80 L 320 16 L 320 16 L 320 0 L 320 0 Z" />
</svg>