<svg xmlns="http://www.w3.org/2000/svg" viewBox="0 0 640 448">
  <path d="M 528 196 L 528 160 L 528 196 L 528 160 Q 527 126 505 103 Q 482 81 448 80 Q 423 80 404 94 L 389 103 L 389 103 L 381 88 L 381 88 Q 362 55 329 36 Q 296 16 256 16 Q 195 18 154 58 Q 114 99 112 160 L 112 168 L 112 168 L 112 180 L 112 180 L 101 183 L 101 183 Q 63 197 40 229 Q 17 262 16 304 L 16 432 L 16 432 L 144 432 L 624 432 L 624 320 L 624 320 Q 623 280 600 251 Q 577 222 540 212 L 528 208 L 528 208 L 528 196 L 528 196 Z M 0 304 Q 1 256 27 220 L 27 220 L 27 220 Q 53 184 96 168 L 96 160 L 96 160 Q 98 92 143 47 Q 188 2 256 0 Q 297 0 330 18 Q 364 36 386 67 Q 391 73 395 80 Q 400 77 406 74 Q 425 64 448 64 Q 489 65 516 92 Q 543 119 544 160 L 544 196 L 544 196 Q 586 207 613 241 Q 639 274 640 320 L 640 432 L 640 432 L 640 448 L 640 448 L 624 448 L 0 448 L 0 432 L 0 432 L 0 304 L 0 304 Z M 226 278 L 221 272 L 226 278 L 221 272 L 232 261 L 232 261 L 238 266 L 238 266 L 312 341 L 312 341 L 312 144 L 312 144 L 312 136 L 312 136 L 328 136 L 328 136 L 328 144 L 328 144 L 328 341 L 328 341 L 402 266 L 402 266 L 408 261 L 408 261 L 419 272 L 419 272 L 414 278 L 414 278 L 326 366 L 326 366 L 320 371 L 320 371 L 314 366 L 314 366 L 226 278 L 226 278 Z" />
</svg>