<svg xmlns="http://www.w3.org/2000/svg" viewBox="0 0 640 512">
  <path d="M 232 0 L 224 0 L 232 0 L 224 0 L 224 16 L 224 16 L 232 16 L 296 16 L 296 208 L 296 208 L 232 208 L 224 208 L 224 224 L 224 224 L 232 224 L 381 224 Q 382 223 383 223 Q 384 222 384 222 L 384 208 L 384 208 L 376 208 L 312 208 L 312 8 L 312 8 L 312 0 L 312 0 L 304 0 L 232 0 Z M 216 288 L 208 288 L 216 288 L 208 288 L 208 296 L 208 296 L 208 504 L 208 504 L 208 512 L 208 512 L 216 512 L 368 512 L 368 504 L 368 504 L 368 500 L 368 500 Q 359 492 352 483 L 352 496 L 352 496 L 224 496 L 224 496 L 224 304 L 224 304 L 323 304 L 323 304 Q 326 296 330 288 L 216 288 L 216 288 Z M 8 288 L 0 288 L 8 288 L 0 288 L 0 304 L 0 304 L 8 304 L 72 304 L 72 496 L 72 496 L 8 496 L 0 496 L 0 512 L 0 512 L 8 512 L 160 512 L 160 496 L 160 496 L 152 496 L 88 496 L 88 296 L 88 296 L 88 288 L 88 288 L 80 288 L 8 288 Z M 16 0 L 16 8 L 16 0 L 16 8 L 16 216 L 16 216 L 16 224 L 16 224 L 24 224 L 176 224 L 176 216 L 176 216 L 176 8 L 176 8 L 176 0 L 176 0 L 168 0 L 16 0 Z M 32 16 L 160 16 L 32 16 L 160 16 L 160 208 L 160 208 L 32 208 L 32 208 L 32 16 L 32 16 Z M 496 240 Q 531 240 560 257 L 560 257 L 560 257 Q 589 274 607 304 Q 624 334 624 368 Q 624 402 607 432 Q 589 462 560 479 Q 531 496 496 496 Q 461 496 432 479 Q 403 462 385 432 Q 368 402 368 368 Q 368 334 385 304 Q 403 274 432 257 Q 461 240 496 240 L 496 240 Z M 496 512 Q 535 512 568 493 L 568 493 L 568 493 Q 601 474 621 440 Q 640 406 640 368 Q 640 330 621 296 Q 601 262 568 243 Q 535 224 496 224 Q 457 224 424 243 Q 391 262 371 296 Q 352 330 352 368 Q 352 406 371 440 Q 391 474 424 493 Q 457 512 496 512 L 496 512 Z M 571 328 L 560 317 L 571 328 L 560 317 L 554 322 L 554 322 L 480 397 L 480 397 L 438 354 L 438 354 L 432 349 L 432 349 L 421 360 L 421 360 L 426 366 L 426 366 L 474 414 L 474 414 L 480 419 L 480 419 L 486 414 L 486 414 L 566 334 L 566 334 L 572 328 L 571 328 Z" />
</svg>