<svg xmlns="http://www.w3.org/2000/svg" viewBox="0 0 568 512">
  <path d="M 224 16 L 112 16 L 224 16 L 112 16 L 112 240 L 112 240 L 464 240 L 464 240 L 464 16 L 464 16 L 352 16 L 352 16 L 352 136 L 352 136 L 352 150 L 352 150 L 340 143 L 340 143 L 288 113 L 288 113 L 236 143 L 236 143 L 224 150 L 224 150 L 224 136 L 224 136 L 224 16 L 224 16 Z M 224 0 L 240 0 L 224 0 L 480 0 L 480 16 L 480 16 L 480 240 L 480 240 L 480 256 L 480 256 L 464 256 L 96 256 L 96 240 L 96 240 L 96 16 L 96 16 L 96 0 L 96 0 L 112 0 L 224 0 Z M 336 16 L 240 16 L 336 16 L 240 16 L 240 122 L 240 122 L 284 97 L 284 97 L 288 95 L 288 95 L 292 97 L 292 97 L 336 122 L 336 122 L 336 16 L 336 16 Z M 149 320 L 152 320 L 149 320 L 384 320 L 384 328 L 384 328 L 384 384 L 384 384 L 384 392 L 384 392 L 376 392 L 256 392 L 256 416 L 256 416 L 395 416 L 395 416 L 516 333 L 516 333 L 522 328 L 522 328 L 527 335 L 527 335 L 563 388 L 563 388 L 568 394 L 568 394 L 561 399 L 561 399 L 399 511 L 399 511 L 397 512 L 397 512 L 394 512 L 0 512 L 0 496 L 0 496 L 8 496 L 392 496 L 545 390 L 545 390 L 518 351 L 518 351 L 402 431 L 402 431 L 400 432 L 400 432 L 397 432 L 240 432 L 240 424 L 240 424 L 240 384 L 240 384 L 240 376 L 240 376 L 248 376 L 368 376 L 368 336 L 368 336 L 154 336 L 154 336 L 77 398 L 77 398 L 74 400 L 74 400 L 72 400 L 0 400 L 0 384 L 0 384 L 8 384 L 69 384 L 147 322 L 147 322 L 149 320 L 149 320 Z" />
</svg>