<svg xmlns="http://www.w3.org/2000/svg" viewBox="0 0 640 448">
  <path d="M 411 76 Q 400 92 400 112 L 400 144 L 400 144 L 400 152 L 400 152 L 394 157 L 394 157 Q 369 176 368 208 Q 368 232 383 249 Q 397 266 419 271 L 426 272 L 426 272 L 432 272 L 560 272 Q 574 272 586 267 L 592 264 L 592 264 L 598 259 L 598 259 Q 623 240 624 208 Q 624 208 624 208 Q 624 208 624 208 Q 624 194 619 182 Q 609 169 592 168 Q 578 168 569 177 Q 560 186 560 200 L 560 208 L 560 208 L 544 208 L 544 208 L 544 200 L 544 200 Q 545 180 558 166 Q 571 153 591 152 Q 583 147 573 145 L 560 143 L 560 143 L 560 130 L 560 130 L 560 112 L 560 112 Q 560 97 554 84 L 549 74 L 549 74 L 557 66 L 557 66 L 563 59 L 563 59 L 575 48 L 575 48 L 552 25 L 552 25 L 541 37 L 541 37 L 531 47 L 531 47 L 524 54 L 524 54 L 515 51 L 515 51 Q 506 48 496 48 L 464 48 L 464 48 Q 460 48 456 49 L 448 50 L 448 50 L 443 44 L 443 44 L 433 34 L 433 34 L 421 23 L 421 23 L 399 45 L 399 45 L 409 56 L 409 56 L 418 65 L 418 65 L 411 76 L 411 76 Z M 640 208 Q 640 208 640 208 L 640 208 L 640 208 Q 640 208 640 208 Q 639 249 608 272 L 608 281 L 608 281 L 608 312 L 608 312 L 608 320 L 608 320 L 608 328 L 608 328 L 600 328 L 536 328 L 536 320 L 536 320 L 536 312 L 536 312 L 536 304 L 536 304 L 536 288 L 536 288 L 520 288 L 488 288 L 488 304 L 488 304 L 488 312 L 488 312 L 488 320 L 488 320 L 488 328 L 488 328 L 480 328 L 416 328 L 416 320 L 416 320 L 416 312 L 416 312 L 416 288 L 416 288 L 416 286 L 416 286 Q 388 280 370 259 Q 353 238 352 208 Q 353 167 384 144 L 384 112 L 384 112 Q 384 89 395 71 L 371 62 L 371 62 Q 335 48 295 48 L 216 48 L 216 48 Q 145 50 97 97 Q 50 145 48 216 L 48 224 L 48 224 Q 48 224 48 224 Q 48 224 48 224 L 48 304 L 48 304 L 48 307 L 48 307 L 47 309 L 47 309 L 18 349 L 18 349 L 13 355 L 13 355 L 0 346 L 0 346 L 5 339 L 5 339 L 32 302 L 32 302 L 32 224 L 32 224 Q 32 224 32 224 Q 32 224 32 224 L 32 216 L 32 216 Q 34 138 86 86 Q 138 34 216 32 L 295 32 L 295 32 Q 337 32 377 47 L 378 47 L 378 47 L 376 46 L 376 46 L 388 34 L 388 34 L 410 12 L 410 12 L 421 0 L 421 0 L 433 12 L 433 12 L 444 23 L 444 23 L 454 33 L 454 33 Q 459 32 464 32 L 496 32 L 496 32 Q 508 32 519 36 L 529 25 L 529 25 L 541 14 L 541 14 L 552 3 L 552 3 L 563 14 L 563 14 L 586 37 L 586 37 L 597 48 L 597 48 L 586 59 L 586 59 L 575 71 L 575 71 L 568 77 L 568 77 Q 576 93 576 112 L 576 130 L 576 130 Q 615 139 633 175 Q 640 186 640 200 L 640 208 L 640 208 Z M 592 281 Q 584 285 576 286 Q 568 288 560 288 L 552 288 L 552 288 L 552 296 L 552 296 L 552 304 L 552 304 L 552 312 L 552 312 L 568 312 L 592 312 L 592 299 L 592 299 L 592 296 L 592 296 L 592 281 L 592 281 Z M 472 296 L 472 288 L 472 296 L 472 288 L 456 288 L 432 288 L 432 296 L 432 296 L 432 304 L 432 304 L 432 312 L 432 312 L 448 312 L 472 312 L 472 304 L 472 304 L 472 296 L 472 296 Z M 432 351 Q 436 352 440 352 L 448 352 L 448 352 L 448 440 L 448 440 L 448 448 L 448 448 L 440 448 L 320 448 L 320 440 L 320 440 L 320 339 L 320 339 L 314 341 L 314 341 Q 256 360 198 341 L 192 339 L 192 339 L 192 440 L 192 440 L 192 448 L 192 448 L 184 448 L 64 448 L 64 440 L 64 440 L 64 312 L 64 312 L 64 304 L 64 304 L 80 304 L 80 304 L 80 312 L 80 312 L 80 432 L 80 432 L 176 432 L 176 432 L 176 328 L 176 328 L 176 317 L 176 317 L 187 320 L 187 320 L 203 326 L 203 326 Q 256 343 309 326 L 325 320 L 325 320 L 336 317 L 336 317 L 336 328 L 336 328 L 336 432 L 336 432 L 432 432 L 432 432 L 432 351 L 432 351 Z M 464 96 Q 479 97 480 112 Q 479 127 464 128 Q 449 127 448 112 Q 449 97 464 96 L 464 96 Z M 512 112 Q 513 97 528 96 Q 543 97 544 112 Q 543 127 528 128 Q 513 127 512 112 L 512 112 Z M 456 168 Q 442 168 433 177 L 433 177 L 433 177 Q 424 186 424 200 L 424 208 L 424 208 L 408 208 L 408 208 L 408 200 L 408 200 Q 409 180 422 166 Q 436 153 456 152 Q 476 153 490 166 Q 503 180 504 200 L 504 208 L 504 208 L 488 208 L 488 208 L 488 200 L 488 200 Q 488 186 479 177 Q 470 168 456 168 L 456 168 Z" />
</svg>