<svg xmlns="http://www.w3.org/2000/svg" viewBox="0 0 448 384">
  <path d="M 400 48 L 400 336 L 400 48 L 400 336 L 368 336 L 368 336 L 368 48 L 368 48 L 400 48 L 400 48 Z M 368 0 L 320 0 L 368 0 L 320 0 L 320 48 L 320 48 L 320 336 L 320 336 L 320 384 L 320 384 L 368 384 L 448 384 L 448 336 L 448 336 L 448 48 L 448 48 L 448 0 L 448 0 L 400 0 L 368 0 Z M 240 176 L 240 336 L 240 176 L 240 336 L 208 336 L 208 336 L 208 176 L 208 176 L 240 176 L 240 176 Z M 208 128 L 160 128 L 208 128 L 160 128 L 160 176 L 160 176 L 160 336 L 160 336 L 160 384 L 160 384 L 208 384 L 288 384 L 288 336 L 288 336 L 288 176 L 288 176 L 288 128 L 288 128 L 240 128 L 208 128 Z M 48 304 L 80 304 L 48 304 L 80 304 L 80 336 L 80 336 L 48 336 L 48 336 L 48 304 L 48 304 Z M 0 256 L 0 304 L 0 256 L 0 304 L 0 336 L 0 336 L 0 384 L 0 384 L 48 384 L 128 384 L 128 336 L 128 336 L 128 304 L 128 304 L 128 256 L 128 256 L 80 256 L 0 256 Z" />
</svg>