<svg xmlns="http://www.w3.org/2000/svg" viewBox="0 0 576 512">
  <path d="M 128 8 L 128 0 L 128 8 L 128 0 L 112 0 L 112 0 L 112 8 L 112 8 L 112 64 L 112 64 L 16 64 L 0 64 L 0 80 L 0 80 L 0 176 L 0 176 L 0 192 L 0 192 L 0 496 L 0 496 L 0 512 L 0 512 L 16 512 L 331 512 Q 320 505 311 496 L 16 496 L 16 496 L 16 192 L 16 192 L 352 192 L 448 192 L 448 176 L 448 176 L 448 80 L 448 80 L 448 64 L 448 64 L 432 64 L 336 64 L 336 8 L 336 8 L 336 0 L 336 0 L 320 0 L 320 0 L 320 8 L 320 8 L 320 64 L 320 64 L 128 64 L 128 64 L 128 8 L 128 8 Z M 112 80 L 112 120 L 112 80 L 112 120 L 112 128 L 112 128 L 128 128 L 128 128 L 128 120 L 128 120 L 128 80 L 128 80 L 320 80 L 320 80 L 320 120 L 320 120 L 320 128 L 320 128 L 336 128 L 336 128 L 336 120 L 336 120 L 336 80 L 336 80 L 432 80 L 432 80 L 432 176 L 432 176 L 16 176 L 16 176 L 16 80 L 16 80 L 112 80 L 112 80 Z M 509 471 Q 476 495 432 496 Q 388 495 356 471 L 388 432 L 388 432 L 476 432 L 476 432 L 508 471 L 509 471 Z M 521 460 L 486 419 L 521 460 L 486 419 L 484 416 L 484 416 L 480 416 L 380 416 L 378 419 L 378 419 L 344 460 L 344 460 Q 305 424 304 368 Q 305 314 341 277 Q 378 241 432 240 Q 486 241 523 277 Q 559 314 560 368 Q 559 424 521 460 L 521 460 Z M 576 368 Q 576 329 557 296 L 557 296 L 557 296 Q 538 263 504 243 Q 470 224 432 224 Q 394 224 360 243 Q 326 263 307 296 Q 288 329 288 368 Q 288 407 307 440 Q 326 473 360 493 Q 394 512 432 512 Q 470 512 504 493 Q 538 473 557 440 Q 576 407 576 368 L 576 368 Z M 432 304 Q 446 304 455 313 L 455 313 L 455 313 Q 464 322 464 336 Q 464 350 455 359 Q 446 368 432 368 Q 418 368 409 359 Q 400 350 400 336 Q 400 322 409 313 Q 418 304 432 304 L 432 304 Z M 432 384 Q 459 383 474 360 Q 486 336 474 312 Q 459 289 432 288 Q 405 289 390 312 Q 378 336 390 360 Q 405 383 432 384 L 432 384 Z" />
</svg>