<svg xmlns="http://www.w3.org/2000/svg" viewBox="0 0 448 512">
  <path d="M 16 96 L 16 84 L 16 96 L 16 84 Q 25 66 73 43 Q 123 18 224 16 Q 329 18 376 42 Q 424 65 432 84 L 432 96 L 432 96 L 16 96 L 16 96 Z M 16 112 L 432 112 L 16 112 L 432 112 L 432 256 L 432 256 L 16 256 L 16 256 L 16 112 L 16 112 Z M 16 272 L 432 272 L 16 272 L 432 272 L 432 432 L 432 432 L 416 432 L 16 432 L 16 272 L 16 272 Z M 416 448 L 440 448 L 416 448 L 448 448 L 448 440 L 448 440 L 448 82 L 448 82 L 448 79 L 448 79 L 447 78 L 447 78 Q 437 54 386 28 Q 335 2 224 0 Q 120 2 66 28 Q 13 54 1 78 L 0 79 L 0 79 L 0 82 L 0 82 L 0 440 L 0 440 L 0 448 L 0 448 L 8 448 L 32 448 L 32 496 L 32 496 L 32 512 L 32 512 L 48 512 L 128 512 L 128 496 L 128 496 L 128 448 L 128 448 L 306 448 L 320 448 L 320 496 L 320 496 L 320 512 L 320 512 L 336 512 L 416 512 L 416 496 L 416 496 L 416 448 L 416 448 Z M 400 448 L 400 496 L 400 448 L 400 496 L 336 496 L 336 496 L 336 448 L 336 448 L 400 448 L 400 448 Z M 48 448 L 112 448 L 48 448 L 112 448 L 112 496 L 112 496 L 48 496 L 48 496 L 48 448 L 48 448 Z M 96 392 Q 119 391 131 372 Q 141 352 131 332 Q 119 313 96 312 Q 73 313 61 332 Q 51 352 61 372 Q 73 391 96 392 L 96 392 Z M 72 352 Q 74 330 96 328 Q 118 330 120 352 Q 118 374 96 376 Q 74 374 72 352 L 72 352 Z M 392 352 Q 391 329 372 317 Q 352 307 332 317 Q 313 329 312 352 Q 313 375 332 387 Q 352 397 372 387 Q 391 375 392 352 L 392 352 Z M 352 328 Q 374 330 376 352 Q 374 374 352 376 Q 330 374 328 352 Q 330 330 352 328 L 352 328 Z" />
</svg>