<svg xmlns="http://www.w3.org/2000/svg" viewBox="0 0 502 502">
  <path d="M 17 5 L 11 0 L 17 5 L 11 0 L 0 11 L 0 11 L 5 17 L 5 17 L 117 129 L 117 129 Q 117 129 117 129 L 54 192 L 54 192 L 43 203 L 43 203 L 54 214 L 54 214 L 59 219 L 59 219 L 203 219 L 219 219 L 219 203 L 219 203 L 219 59 L 219 59 L 214 54 L 214 54 L 203 43 L 203 43 L 192 54 L 192 54 L 129 117 L 129 117 Q 129 117 129 117 Q 129 117 129 117 L 17 5 L 17 5 Z M 497 17 L 502 11 L 497 17 L 502 11 L 491 0 L 491 0 L 485 5 L 485 5 L 373 117 L 373 117 Q 373 117 373 117 Q 373 117 373 117 L 310 54 L 310 54 L 299 43 L 299 43 L 288 54 L 288 54 L 283 59 L 283 59 L 283 203 L 283 203 L 283 219 L 283 219 L 299 219 L 443 219 L 448 214 L 448 214 L 459 203 L 459 203 L 448 192 L 448 192 L 385 129 L 385 129 Q 385 129 385 129 Q 385 129 385 129 L 497 17 L 497 17 Z M 129 385 L 192 448 L 129 385 L 192 448 L 203 459 L 203 459 L 214 448 L 214 448 L 219 443 L 219 443 L 219 299 L 219 299 L 219 283 L 219 283 L 203 283 L 59 283 L 54 288 L 54 288 L 43 299 L 43 299 L 54 310 L 54 310 L 117 373 L 117 373 L 5 485 L 5 485 L 0 491 L 0 491 L 11 502 L 11 502 L 17 497 L 17 497 L 129 385 L 129 385 Z M 373 385 L 485 497 L 373 385 L 485 497 L 491 502 L 491 502 L 502 491 L 502 491 L 497 485 L 497 485 L 385 373 L 385 373 L 448 310 L 448 310 L 459 299 L 459 299 L 448 288 L 448 288 L 443 283 L 443 283 L 299 283 L 283 283 L 283 299 L 283 299 L 283 443 L 283 443 L 288 448 L 288 448 L 299 459 L 299 459 L 310 448 L 310 448 L 373 385 L 373 385 Z M 203 66 L 203 203 L 203 66 L 203 203 L 66 203 L 66 203 L 203 66 L 203 66 Z M 203 436 L 66 299 L 203 436 L 66 299 L 203 299 L 203 299 L 203 436 L 203 436 Z M 436 299 L 299 436 L 436 299 L 299 436 L 299 299 L 299 299 L 436 299 L 436 299 Z M 299 66 L 436 203 L 299 66 L 436 203 L 299 203 L 299 203 L 299 66 L 299 66 Z" />
</svg>