<svg xmlns="http://www.w3.org/2000/svg" viewBox="0 0 640 512">
  <path d="M 57 275 L 52 284 L 57 275 L 52 284 L 29 330 L 29 330 L 105 315 L 105 315 L 110 314 L 110 314 L 115 316 L 115 316 Q 157 336 208 336 Q 291 334 345 288 Q 398 242 400 176 Q 398 110 345 64 Q 291 18 208 16 Q 125 18 71 64 Q 18 110 16 176 Q 17 227 50 267 L 57 275 L 57 275 Z M 20 348 L 0 352 L 20 348 L 0 352 L 9 334 L 9 334 L 38 277 L 38 277 Q 1 233 0 176 Q 2 101 61 52 Q 120 2 208 0 Q 296 2 355 52 Q 414 101 416 176 Q 414 251 355 300 Q 296 350 208 352 Q 153 352 108 330 L 20 348 L 20 348 Z M 232 383 Q 240 382 248 381 Q 266 431 315 463 Q 364 495 432 496 Q 483 496 525 476 L 530 474 L 530 474 L 535 475 L 535 475 L 611 490 L 611 490 L 588 444 L 588 444 L 583 435 L 583 435 L 590 427 L 590 427 Q 623 387 624 336 Q 622 273 574 228 Q 525 183 448 177 L 448 176 L 448 176 Q 448 168 447 161 Q 530 167 584 216 Q 638 265 640 336 Q 639 393 602 437 L 631 494 L 631 494 L 640 512 L 640 512 L 620 508 L 620 508 L 532 490 L 532 490 Q 487 512 432 512 Q 359 511 305 475 Q 251 440 232 383 L 232 383 Z M 185 83 L 225 83 L 185 83 L 225 83 Q 245 84 259 97 Q 272 110 273 131 Q 272 156 251 170 L 216 193 L 216 193 L 216 210 L 216 210 L 216 218 L 216 218 L 200 218 L 200 218 L 200 210 L 200 210 L 200 189 L 200 189 L 200 185 L 200 185 L 204 182 L 204 182 L 243 157 L 243 157 Q 256 147 257 131 Q 256 117 247 108 Q 239 99 225 99 L 185 99 L 185 99 Q 162 101 159 125 L 159 130 L 159 130 L 143 130 L 143 130 L 143 125 L 143 125 Q 144 107 156 95 Q 168 83 185 83 L 185 83 Z M 219 233 L 219 255 L 219 233 L 219 255 L 197 255 L 197 255 L 197 233 L 197 233 L 219 233 L 219 233 Z M 523 302 L 432 392 L 523 302 L 432 392 L 427 398 L 427 398 L 421 392 L 421 392 L 373 344 L 373 344 L 384 333 L 384 333 L 427 375 L 427 375 L 512 290 L 512 290 L 523 302 L 523 302 Z" />
</svg>