<svg xmlns="http://www.w3.org/2000/svg" viewBox="0 0 558 448">
  <path d="M 139 308 L 134 304 L 139 308 L 134 304 L 128 304 L 16 304 L 16 144 L 16 144 L 128 144 L 134 144 L 139 140 L 139 140 L 278 16 L 278 16 L 304 16 L 304 16 L 304 432 L 304 432 L 278 432 L 278 432 L 139 308 L 139 308 Z M 0 320 L 16 320 L 0 320 L 128 320 L 272 448 L 272 448 L 304 448 L 320 448 L 320 432 L 320 432 L 320 16 L 320 16 L 320 0 L 320 0 L 304 0 L 272 0 L 128 128 L 128 128 L 16 128 L 0 128 L 0 144 L 0 144 L 0 304 L 0 304 L 0 320 L 0 320 Z M 414 302 L 480 235 L 414 302 L 480 235 L 546 302 L 546 302 L 558 290 L 558 290 L 491 224 L 491 224 L 558 158 L 558 158 L 546 146 L 546 146 L 480 213 L 480 213 L 414 146 L 414 146 L 402 158 L 402 158 L 469 224 L 469 224 L 402 290 L 402 290 L 414 302 L 414 302 Z" />
</svg>