<svg xmlns="http://www.w3.org/2000/svg" viewBox="0 0 448 507">
  <path d="M 230 502 L 224 507 L 230 502 L 224 507 L 218 502 L 218 502 L 82 366 L 82 366 L 77 360 L 77 360 L 88 349 L 88 349 L 94 354 L 94 354 L 216 477 L 216 477 L 216 168 L 216 168 L 216 160 L 216 160 L 232 160 L 232 160 L 232 168 L 232 168 L 232 477 L 232 477 L 354 354 L 354 354 L 360 349 L 360 349 L 371 360 L 371 360 L 366 366 L 366 366 L 230 502 L 230 502 Z M 16 184 L 16 192 L 16 184 L 16 192 L 0 192 L 0 192 L 0 184 L 0 184 L 0 8 L 0 8 L 0 0 L 0 0 L 8 0 L 448 0 L 448 8 L 448 8 L 448 184 L 448 184 L 448 192 L 448 192 L 432 192 L 432 192 L 432 184 L 432 184 L 432 16 L 432 16 L 16 16 L 16 16 L 16 184 L 16 184 Z" />
</svg>