<svg xmlns="http://www.w3.org/2000/svg" viewBox="0 0 576 448">
  <path d="M 352 16 L 352 144 L 352 16 L 352 144 L 224 144 L 224 144 L 224 16 L 224 16 L 352 16 L 352 16 Z M 224 0 L 208 0 L 224 0 L 208 0 L 208 16 L 208 16 L 208 144 L 208 144 L 208 160 L 208 160 L 224 160 L 280 160 L 280 216 L 280 216 L 80 216 L 72 216 L 72 224 L 72 224 L 72 288 L 72 288 L 16 288 L 0 288 L 0 304 L 0 304 L 0 432 L 0 432 L 0 448 L 0 448 L 16 448 L 160 448 L 160 432 L 160 432 L 160 304 L 160 304 L 160 288 L 160 288 L 144 288 L 88 288 L 88 232 L 88 232 L 280 232 L 280 232 L 280 288 L 280 288 L 224 288 L 208 288 L 208 304 L 208 304 L 208 432 L 208 432 L 208 448 L 208 448 L 224 448 L 368 448 L 368 432 L 368 432 L 368 304 L 368 304 L 368 288 L 368 288 L 352 288 L 296 288 L 296 232 L 296 232 L 488 232 L 488 232 L 488 288 L 488 288 L 432 288 L 416 288 L 416 304 L 416 304 L 416 432 L 416 432 L 416 448 L 416 448 L 432 448 L 576 448 L 576 432 L 576 432 L 576 304 L 576 304 L 576 288 L 576 288 L 560 288 L 504 288 L 504 224 L 504 224 L 504 216 L 504 216 L 496 216 L 296 216 L 296 160 L 296 160 L 352 160 L 368 160 L 368 144 L 368 144 L 368 16 L 368 16 L 368 0 L 368 0 L 352 0 L 224 0 Z M 16 432 L 16 304 L 16 432 L 16 304 L 144 304 L 144 304 L 144 432 L 144 432 L 16 432 L 16 432 Z M 224 304 L 352 304 L 224 304 L 352 304 L 352 432 L 352 432 L 224 432 L 224 432 L 224 304 L 224 304 Z M 432 432 L 432 304 L 432 432 L 432 304 L 560 304 L 560 304 L 560 432 L 560 432 L 432 432 L 432 432 Z" />
</svg>