<svg xmlns="http://www.w3.org/2000/svg" viewBox="0 0 384 448">
  <path d="M 48 0 L 56 0 L 48 0 L 184 0 Q 238 1 277 32 Q 317 63 331 112 L 384 112 L 384 112 L 384 128 L 384 128 L 334 128 L 334 128 Q 336 140 336 152 Q 336 173 331 192 L 384 192 L 384 192 L 384 208 L 384 208 L 325 208 L 325 208 Q 308 251 270 277 Q 233 303 184 304 L 64 304 L 64 304 L 64 440 L 64 440 L 64 448 L 64 448 L 48 448 L 48 448 L 48 440 L 48 440 L 48 296 L 48 296 L 48 208 L 48 208 L 0 208 L 0 208 L 0 192 L 0 192 L 48 192 L 48 192 L 48 128 L 48 128 L 0 128 L 0 128 L 0 112 L 0 112 L 48 112 L 48 112 L 48 8 L 48 8 L 48 0 L 48 0 Z M 64 208 L 64 288 L 64 208 L 64 288 L 184 288 L 184 288 Q 226 287 259 266 Q 291 244 308 208 L 64 208 L 64 208 Z M 314 192 Q 320 173 320 152 Q 320 140 318 128 L 64 128 L 64 128 L 64 192 L 64 192 L 314 192 L 314 192 Z M 184 16 L 64 16 L 184 16 L 64 16 L 64 112 L 64 112 L 314 112 L 314 112 Q 300 70 266 43 Q 231 17 184 16 L 184 16 Z" />
</svg>