<svg xmlns="http://www.w3.org/2000/svg" viewBox="0 0 512 448">
  <path d="M 16 16 L 128 16 L 16 16 L 128 16 L 128 432 L 128 432 L 16 432 L 16 432 L 16 16 L 16 16 Z M 496 432 L 144 432 L 496 432 L 144 432 L 144 232 L 144 232 L 496 232 L 496 232 L 496 432 L 496 432 Z M 496 216 L 144 216 L 496 216 L 144 216 L 144 16 L 144 16 L 496 16 L 496 16 L 496 216 L 496 216 Z M 0 432 L 0 448 L 0 432 L 0 448 L 16 448 L 512 448 L 512 432 L 512 432 L 512 16 L 512 16 L 512 0 L 512 0 L 496 0 L 0 0 L 0 16 L 0 16 L 0 432 L 0 432 Z" />
</svg>