<svg xmlns="http://www.w3.org/2000/svg" viewBox="0 0 640 480">
  <path d="M 208 160 Q 209 112 241 81 L 241 81 L 241 81 Q 272 49 320 48 Q 368 49 399 81 Q 431 112 432 160 L 432 163 L 432 163 Q 432 174 430 184 Q 430 184 430 184 Q 430 184 430 184 L 411 290 L 411 290 L 402 339 L 402 339 Q 400 350 400 361 L 400 363 L 400 363 Q 400 378 404 393 L 363 371 L 363 371 L 358 368 L 358 368 L 352 368 L 282 368 L 277 371 L 277 371 L 236 392 L 236 392 Q 240 378 240 363 L 240 361 L 240 361 Q 240 350 238 339 L 229 289 L 229 289 L 210 184 L 210 184 Q 210 184 210 184 Q 210 184 210 184 Q 208 174 208 164 L 208 160 L 208 160 Z M 182 298 Q 184 310 176 319 L 176 319 L 176 319 Q 169 328 157 328 Q 139 327 133 310 L 119 263 L 119 263 Q 109 231 83 212 Q 58 192 24 192 L 0 192 L 0 192 L 0 240 L 0 240 L 24 240 L 24 240 Q 41 240 54 250 Q 68 260 73 277 L 87 323 L 87 323 Q 94 347 113 361 Q 132 376 157 376 Q 176 376 192 367 Q 190 395 170 413 Q 151 431 123 432 Q 98 432 80 417 Q 61 402 56 378 L 48 339 L 48 339 L 1 349 L 1 349 L 9 388 L 9 388 Q 18 429 50 454 Q 81 479 123 480 Q 174 480 219 456 L 294 416 L 294 416 L 346 416 L 346 416 L 421 456 L 421 456 Q 466 480 517 480 L 517 480 L 517 480 Q 559 479 590 454 Q 622 429 631 388 L 640 349 L 640 349 L 593 339 L 593 339 L 584 378 L 584 378 Q 579 402 560 417 Q 542 432 517 432 Q 489 431 469 413 Q 450 395 448 367 Q 464 376 483 376 Q 508 376 527 362 Q 546 347 553 323 L 567 277 L 567 277 Q 572 260 585 250 Q 599 240 616 240 L 640 240 L 640 240 L 640 192 L 640 192 L 616 192 L 616 192 Q 582 193 557 212 Q 531 231 521 263 L 507 310 L 507 310 Q 501 327 483 328 Q 471 328 464 319 Q 456 310 458 298 Q 458 298 458 298 L 477 193 L 477 193 Q 477 193 477 193 Q 477 193 477 193 Q 477 193 477 193 Q 477 193 477 193 Q 480 178 480 164 Q 480 164 480 164 Q 480 164 480 164 L 480 160 L 480 160 Q 478 92 433 47 Q 388 2 320 0 Q 252 2 207 47 Q 162 92 160 160 L 160 163 L 160 163 Q 160 163 160 163 Q 160 163 160 164 Q 160 178 163 193 Q 163 193 163 193 Q 163 193 163 193 Q 163 193 163 193 Q 163 193 163 193 L 182 298 L 182 298 Q 182 298 182 298 L 182 298 Z M 296 268 Q 294 250 276 248 Q 258 250 256 268 Q 258 286 276 288 Q 294 286 296 268 L 296 268 Z M 364 288 Q 382 286 384 268 Q 382 250 364 248 Q 346 250 344 268 Q 346 286 364 288 L 364 288 Z" />
</svg>