<svg xmlns="http://www.w3.org/2000/svg" viewBox="0 0 640 384">
  <path d="M 80 16 L 80 72 L 80 16 L 80 72 L 80 312 L 80 312 L 80 368 L 80 368 L 560 368 L 560 368 L 560 312 L 560 312 L 560 72 L 560 72 L 560 16 L 560 16 L 80 16 L 80 16 Z M 576 16 L 576 64 L 576 16 L 576 64 L 632 64 L 640 64 L 640 72 L 640 72 L 640 312 L 640 312 L 640 320 L 640 320 L 632 320 L 576 320 L 576 368 L 576 368 L 576 384 L 576 384 L 560 384 L 64 384 L 64 368 L 64 368 L 64 320 L 64 320 L 8 320 L 0 320 L 0 312 L 0 312 L 0 72 L 0 72 L 0 64 L 0 64 L 8 64 L 64 64 L 64 16 L 64 16 L 64 0 L 64 0 L 80 0 L 576 0 L 576 16 L 576 16 Z M 576 304 L 624 304 L 576 304 L 624 304 L 624 80 L 624 80 L 576 80 L 576 80 L 576 304 L 576 304 Z M 64 80 L 16 80 L 64 80 L 16 80 L 16 304 L 16 304 L 64 304 L 64 304 L 64 80 L 64 80 Z M 128 64 L 128 320 L 128 64 L 128 320 L 512 320 L 512 320 L 512 64 L 512 64 L 128 64 L 128 64 Z M 112 48 L 128 48 L 112 48 L 528 48 L 528 64 L 528 64 L 528 320 L 528 320 L 528 336 L 528 336 L 512 336 L 112 336 L 112 320 L 112 320 L 112 64 L 112 64 L 112 48 L 112 48 Z M 184 112 L 456 112 L 184 112 L 464 112 L 464 128 L 464 128 L 456 128 L 176 128 L 176 112 L 176 112 L 184 112 L 184 112 Z M 184 184 L 456 184 L 184 184 L 464 184 L 464 200 L 464 200 L 456 200 L 176 200 L 176 184 L 176 184 L 184 184 L 184 184 Z M 184 256 L 456 256 L 184 256 L 464 256 L 464 272 L 464 272 L 456 272 L 176 272 L 176 256 L 176 256 L 184 256 L 184 256 Z" />
</svg>