<svg xmlns="http://www.w3.org/2000/svg" viewBox="0 0 384 512">
  <path d="M 80 80 Q 94 80 103 71 L 103 71 L 103 71 Q 112 62 112 48 Q 112 34 103 25 Q 94 16 80 16 Q 66 16 57 25 Q 48 34 48 48 Q 48 62 57 71 Q 66 80 80 80 L 80 80 Z M 80 0 Q 107 1 122 24 Q 134 48 122 72 Q 107 95 80 96 Q 53 95 38 72 Q 26 48 38 24 Q 53 1 80 0 L 80 0 Z M 117 274 L 112 266 L 117 274 L 112 266 L 96 242 L 96 242 L 96 270 L 96 270 L 96 307 L 96 307 L 151 361 L 151 361 L 158 369 L 158 369 L 160 379 L 160 379 L 168 427 L 168 427 L 172 451 L 172 451 L 176 475 L 176 475 Q 176 475 176 475 Q 176 475 176 475 L 179 496 L 179 496 L 180 499 L 180 499 L 182 512 L 182 512 L 166 512 L 117 512 L 116 509 L 116 509 L 112 485 L 112 485 Q 112 485 112 485 Q 112 485 112 485 L 108 461 L 108 461 L 104 437 L 104 437 L 98 399 L 98 399 L 41 343 L 41 343 L 19 320 L 19 320 Q 0 301 0 275 L 0 160 L 0 160 L 0 144 L 0 144 L 0 128 L 0 128 L 16 128 L 97 128 L 107 142 L 107 142 L 161 224 L 161 224 L 224 224 L 256 224 L 256 240 L 256 240 L 256 272 L 256 272 L 288 272 L 368 272 L 368 112 L 368 112 L 208 112 L 208 112 L 208 192 L 208 192 L 192 192 L 192 192 L 192 112 L 192 112 L 192 96 L 192 96 L 208 96 L 384 96 L 384 112 L 384 112 L 384 272 L 384 272 L 384 288 L 384 288 L 368 288 L 127 288 L 117 274 L 117 274 Z M 192 272 L 208 272 L 192 272 L 240 272 L 240 240 L 240 240 L 224 240 L 153 240 L 148 233 L 148 233 L 93 151 L 93 151 L 89 144 L 89 144 L 80 144 L 16 144 L 16 160 L 16 160 L 16 275 L 16 275 Q 16 294 30 309 L 53 331 L 53 331 L 110 388 L 110 388 L 113 392 L 113 392 L 114 397 L 114 397 L 120 435 L 120 435 L 124 459 L 124 459 L 128 483 L 128 483 Q 128 483 128 483 Q 128 483 128 483 Q 128 483 128 483 Q 128 483 128 483 Q 128 483 128 483 Q 128 483 128 483 L 130 496 L 130 496 L 163 496 L 163 496 L 160 477 L 160 477 Q 160 477 160 477 Q 160 477 160 477 Q 160 477 160 477 Q 160 477 160 477 Q 160 477 160 477 Q 160 477 160 477 L 156 453 L 156 453 L 152 429 L 152 429 L 144 381 L 144 381 L 143 376 L 143 376 L 139 373 L 139 373 L 85 318 L 85 318 L 80 313 L 80 313 L 80 307 L 80 307 L 80 242 L 80 242 L 80 189 L 80 189 L 109 233 L 109 233 L 131 265 L 131 265 L 135 272 L 135 272 L 144 272 L 192 272 Z M 0 480 L 0 347 L 0 480 L 0 347 L 16 363 L 16 363 L 16 480 L 16 480 L 16 496 L 16 496 L 48 496 L 48 496 L 48 480 L 48 480 L 48 395 L 48 395 L 64 411 L 64 411 L 64 448 L 64 448 L 64 480 L 64 480 L 64 496 L 64 496 L 64 512 L 64 512 L 48 512 L 0 512 L 0 496 L 0 496 L 0 480 L 0 480 Z" />
</svg>