<svg xmlns="http://www.w3.org/2000/svg" viewBox="0 0 448 512">
  <path d="M 160 176 Q 133 175 115 157 L 115 157 L 115 157 Q 97 139 96 112 Q 96 100 106 82 Q 117 65 132 49 Q 147 33 158 23 L 160 21 L 160 21 L 162 23 L 162 23 Q 173 33 188 49 Q 203 65 214 82 Q 224 100 224 112 Q 223 139 205 157 Q 187 175 160 176 L 160 176 Z M 160 0 Q 159 1 139 18 L 139 18 L 139 18 Q 120 36 101 62 L 101 62 L 101 62 Q 81 87 80 112 Q 81 146 103 169 Q 126 191 160 192 Q 194 191 217 169 Q 239 146 240 112 Q 239 87 219 62 Q 200 36 181 18 Q 161 1 160 0 L 160 0 Z M 112 240 L 128 240 L 112 240 L 128 240 L 128 288 L 128 288 L 128 296 L 128 296 L 144 296 L 144 296 L 144 288 L 144 288 L 144 240 L 144 240 L 208 240 L 208 240 Q 222 240 231 249 Q 240 258 240 272 L 240 496 L 240 496 L 80 496 L 80 496 L 80 272 L 80 272 Q 80 258 89 249 Q 98 240 112 240 L 112 240 Z M 256 496 L 256 272 L 256 496 L 256 272 Q 255 252 242 238 Q 228 225 208 224 L 112 224 L 112 224 Q 92 225 78 238 Q 65 252 64 272 L 64 496 L 64 496 L 8 496 L 0 496 L 0 512 L 0 512 L 8 512 L 384 512 Q 411 511 429 493 Q 447 475 448 448 Q 447 421 429 403 Q 411 385 384 384 Q 357 385 339 403 Q 321 421 320 448 Q 321 478 342 496 L 256 496 L 256 496 Z M 336 448 Q 337 421 360 406 Q 384 394 408 406 Q 431 421 432 448 Q 431 475 408 490 Q 384 502 360 490 Q 337 475 336 448 L 336 448 Z" />
</svg>