<svg xmlns="http://www.w3.org/2000/svg" viewBox="0 0 641 512">
  <path d="M 256 32 Q 313 33 361 58 L 361 58 L 361 58 Q 409 84 440 127 L 453 119 L 453 119 L 493 160 L 493 160 Q 464 88 401 45 Q 338 1 256 0 Q 184 1 127 35 Q 69 69 35 127 Q 1 184 0 256 Q 1 328 35 385 Q 69 443 127 477 Q 184 511 256 512 Q 307 512 351 494 Q 338 482 327 468 Q 294 480 256 480 Q 193 479 143 449 Q 92 420 63 369 Q 33 319 32 256 Q 33 193 63 143 Q 92 92 143 63 Q 193 33 256 32 L 256 32 Z M 368 144 L 368 128 L 368 144 L 368 128 L 336 128 L 336 128 L 336 144 L 336 144 L 336 208 L 336 208 L 336 221 L 336 221 Q 339 217 343 212 Q 355 197 368 184 L 368 144 L 368 144 Z M 176 144 L 176 128 L 176 144 L 176 128 L 144 128 L 144 128 L 144 144 L 144 144 L 144 208 L 144 208 L 144 224 L 144 224 L 176 224 L 176 224 L 176 208 L 176 208 L 176 144 L 176 144 Z M 272 144 L 272 128 L 272 144 L 272 128 L 240 128 L 240 128 L 240 144 L 240 144 L 240 208 L 240 208 L 240 224 L 240 224 L 272 224 L 272 224 L 272 208 L 272 208 L 272 144 L 272 144 Z M 489 201 L 448 160 L 489 201 L 448 160 Q 425 174 396 202 Q 366 230 344 268 Q 321 307 320 352 Q 322 417 364 462 Q 406 507 471 512 Q 475 512 480 512 Q 485 512 489 512 Q 554 507 596 462 Q 638 417 640 352 Q 641 330 621 286 Q 600 241 544 192 L 535 201 L 535 201 L 512 224 L 512 224 L 489 201 L 489 201 Z M 480 480 Q 476 480 473 480 Q 447 477 432 460 Q 416 444 416 423 Q 418 388 455 351 Q 469 338 480 328 Q 491 337 505 351 Q 542 388 544 423 Q 544 444 528 460 Q 513 477 487 480 Q 484 480 480 480 L 480 480 Z M 576 423 Q 574 387 551 356 L 551 356 L 551 356 Q 528 326 505 307 L 505 307 L 505 307 Q 482 289 480 288 Q 478 289 455 307 Q 432 326 409 356 Q 386 387 384 423 Q 384 431 386 438 Q 353 403 352 352 Q 354 299 393 252 Q 419 221 444 202 L 489 247 L 489 247 L 512 269 L 512 269 L 535 247 L 535 247 L 545 236 L 545 236 Q 583 276 596 308 Q 609 340 608 352 Q 607 403 575 438 Q 576 431 576 423 L 576 423 Z" />
</svg>