<svg xmlns="http://www.w3.org/2000/svg" viewBox="0 0 576 384">
  <path d="M 58 320 L 136 0 L 58 320 L 136 0 L 440 0 L 440 0 L 475 143 L 475 143 Q 475 143 475 143 Q 475 143 475 143 L 479 160 L 479 160 Q 479 160 479 160 Q 479 160 479 160 L 518 320 L 518 320 L 502 320 L 502 320 L 462 156 L 462 156 L 384 136 L 384 136 L 291 168 L 291 168 L 288 168 L 286 168 L 192 136 L 192 136 L 114 156 L 114 156 L 74 320 L 74 320 L 58 320 L 58 320 Z M 119 138 L 190 120 L 119 138 L 190 120 L 193 120 L 195 120 L 288 152 L 288 152 L 382 120 L 382 120 L 384 120 L 386 120 L 457 138 L 457 138 L 427 16 L 427 16 L 149 16 L 149 16 L 119 138 L 119 138 Z M 0 368 L 8 368 L 0 368 L 576 368 L 576 384 L 576 384 L 568 384 L 0 384 L 0 368 L 0 368 Z" />
</svg>