<svg xmlns="http://www.w3.org/2000/svg" viewBox="0 0 509 509">
  <path d="M 416 208 Q 415 278 376 331 L 487 441 L 487 441 L 509 464 L 509 464 L 464 509 L 464 509 L 441 487 L 441 487 L 331 376 L 331 376 Q 278 415 208 416 Q 120 414 61 355 Q 2 296 0 208 Q 2 120 61 61 Q 120 2 208 0 Q 296 2 355 61 Q 414 120 416 208 L 416 208 Z M 232 120 L 232 96 L 232 120 L 232 96 L 184 96 L 184 96 L 184 120 L 184 120 L 184 296 L 184 296 L 184 320 L 184 320 L 232 320 L 232 320 L 232 296 L 232 296 L 232 120 L 232 120 Z M 144 152 L 144 128 L 144 152 L 144 128 L 96 128 L 96 128 L 96 152 L 96 152 L 96 264 L 96 264 L 96 288 L 96 288 L 144 288 L 144 288 L 144 264 L 144 264 L 144 152 L 144 152 Z M 320 184 L 320 160 L 320 184 L 320 160 L 272 160 L 272 160 L 272 184 L 272 184 L 272 232 L 272 232 L 272 256 L 272 256 L 320 256 L 320 256 L 320 232 L 320 232 L 320 184 L 320 184 Z" />
</svg>