<svg xmlns="http://www.w3.org/2000/svg" viewBox="0 0 514 512">
  <path d="M 129 0 Q 75 1 38 37 L 38 37 L 38 37 Q 2 74 1 128 L 1 192 L 1 192 L 1 207 L 1 207 L 15 214 L 15 214 L 100 253 L 100 253 Q 97 258 94 264 L 64 264 L 64 264 L 46 252 L 46 252 L 26 239 L 26 239 L 0 279 L 0 279 L 20 292 L 20 292 L 44 308 L 44 308 L 50 312 L 50 312 L 57 312 L 81 312 Q 81 316 81 320 Q 81 320 81 320 L 81 321 L 81 321 L 57 329 L 57 329 L 52 331 L 52 331 L 48 335 L 48 335 L 24 359 L 24 359 L 7 376 L 7 376 L 41 410 L 41 410 L 58 393 L 58 393 L 78 373 L 78 373 L 108 363 L 108 363 L 126 381 L 126 381 L 89 393 L 89 393 L 84 395 L 84 395 L 80 399 L 80 399 L 48 431 L 48 431 L 31 448 L 31 448 L 65 482 L 65 482 L 82 465 L 82 465 L 110 437 L 110 437 L 164 419 L 164 419 L 166 421 L 166 421 L 141 435 L 141 435 L 129 442 L 129 442 L 129 456 L 129 456 L 129 488 L 129 488 L 129 512 L 129 512 L 177 512 L 177 512 L 177 488 L 177 488 L 177 470 L 177 470 L 215 449 L 215 449 L 215 448 L 215 448 L 300 448 L 300 448 L 299 449 L 299 449 L 337 470 L 337 470 L 337 488 L 337 488 L 337 512 L 337 512 L 385 512 L 385 512 L 385 488 L 385 488 L 385 456 L 385 456 L 385 442 L 385 442 L 373 435 L 373 435 L 348 421 L 348 421 L 350 419 L 350 419 L 404 437 L 404 437 L 432 465 L 432 465 L 449 482 L 449 482 L 483 448 L 483 448 L 466 431 L 466 431 L 434 399 L 434 399 L 430 395 L 430 395 L 425 393 L 425 393 L 388 381 L 388 381 L 406 363 L 406 363 L 436 373 L 436 373 L 456 393 L 456 393 L 473 410 L 473 410 L 507 376 L 507 376 L 490 359 L 490 359 L 466 335 L 466 335 L 462 331 L 462 331 L 457 329 L 457 329 L 433 321 L 433 321 L 433 320 L 433 320 Q 433 316 433 312 L 457 312 L 464 312 L 470 308 L 470 308 L 494 292 L 494 292 L 514 279 L 514 279 L 488 239 L 488 239 L 468 252 L 468 252 L 450 264 L 450 264 L 420 264 L 420 264 Q 417 259 414 253 Q 414 253 414 253 L 499 214 L 499 214 L 513 208 L 513 208 L 513 192 L 513 192 L 513 128 L 513 128 Q 512 74 476 38 Q 439 1 385 0 L 321 0 L 321 0 L 385 64 L 385 64 L 321 64 L 321 64 Q 322 91 340 109 Q 358 127 385 128 L 465 128 L 465 128 L 465 177 L 465 177 L 380 216 L 380 216 Q 354 197 321 193 L 321 152 L 321 152 L 321 128 L 321 128 L 273 128 L 273 128 L 273 152 L 273 152 L 273 192 L 273 192 L 241 192 L 241 192 L 241 152 L 241 152 L 241 128 L 241 128 L 193 128 L 193 128 L 193 152 L 193 152 L 193 193 L 193 193 Q 160 197 134 216 L 49 177 L 49 177 L 49 128 L 49 128 L 129 128 L 129 128 Q 156 127 174 109 Q 192 91 193 64 L 129 64 L 129 64 L 193 0 L 193 0 L 129 0 L 129 0 Z M 273 240 L 305 240 L 273 240 L 305 240 Q 338 241 360 262 Q 383 284 385 316 L 301 400 L 301 400 L 213 400 L 213 400 L 129 316 L 129 316 Q 131 284 154 262 Q 176 241 209 240 L 241 240 L 273 240 Z" />
</svg>