<svg xmlns="http://www.w3.org/2000/svg" viewBox="0 0 641 512">
  <path d="M 24 0 L 0 0 L 24 0 L 0 0 L 0 24 L 0 24 L 0 224 L 0 224 L 0 248 L 0 248 L 0 272 L 0 272 L 0 424 L 0 424 L 0 448 L 0 448 L 24 448 L 314 448 Q 301 426 294 400 L 48 400 L 48 400 L 48 272 L 48 272 L 306 272 L 306 272 Q 318 246 334 224 L 48 224 L 48 224 L 48 48 L 48 48 L 400 48 L 400 48 L 400 155 L 400 155 Q 417 141 431 133 L 448 122 L 448 122 L 448 24 L 448 24 L 448 0 L 448 0 L 424 0 L 24 0 Z M 288 352 Q 288 331 293 312 L 120 312 L 96 312 L 96 360 L 96 360 L 120 360 L 288 360 Q 288 356 288 352 L 288 352 Z M 448 160 Q 425 174 396 202 L 396 202 L 396 202 Q 366 230 344 268 L 344 268 L 344 268 Q 321 307 320 352 Q 322 420 367 465 Q 412 510 480 512 Q 548 510 593 465 Q 638 420 640 352 Q 641 330 621 286 Q 600 241 544 192 L 512 224 L 512 224 L 448 160 L 448 160 Z M 544 400 Q 543 427 525 445 L 525 445 L 525 445 Q 507 464 480 464 Q 453 464 435 445 Q 417 427 416 400 Q 417 376 433 354 Q 448 332 463 318 Q 479 305 480 304 Q 481 305 497 318 Q 512 332 527 354 Q 543 376 544 400 L 544 400 Z" />
</svg>