<svg xmlns="http://www.w3.org/2000/svg" viewBox="0 0 512 512">
  <path d="M 496 256 Q 495 191 464 136 L 464 136 L 464 136 Q 432 81 376 48 Q 319 16 256 16 Q 193 16 136 48 Q 80 81 48 136 Q 17 191 16 256 Q 17 321 48 376 Q 80 431 136 464 Q 193 496 256 496 Q 319 496 376 464 Q 432 431 464 376 Q 495 321 496 256 L 496 256 Z M 0 256 Q 1 186 34 128 L 34 128 L 34 128 Q 68 70 128 34 Q 189 0 256 0 Q 323 0 384 34 Q 444 70 478 128 Q 511 186 512 256 Q 511 326 478 384 Q 444 442 384 478 Q 323 512 256 512 Q 189 512 128 478 Q 68 442 34 384 Q 1 326 0 256 L 0 256 Z M 432 264 L 432 296 L 432 264 L 432 296 L 432 304 L 432 304 L 416 304 L 416 304 L 416 296 L 416 296 L 416 264 L 416 264 L 416 256 L 416 256 L 432 256 L 432 256 L 432 264 L 432 264 Z M 406 374 L 374 406 L 406 374 L 374 406 L 368 411 L 368 411 L 357 400 L 357 400 L 362 394 L 362 394 L 394 362 L 394 362 L 400 357 L 400 357 L 411 368 L 411 368 L 406 374 L 406 374 Z M 248 432 L 280 432 L 248 432 L 288 432 L 288 448 L 288 448 L 280 448 L 240 448 L 240 432 L 240 432 L 248 432 L 248 432 Z M 176 112 L 184 112 L 176 112 L 288 112 L 288 120 L 288 120 L 288 168 L 288 168 L 288 176 L 288 176 L 280 176 L 213 176 L 210 174 L 210 174 L 178 142 L 178 142 L 176 139 L 176 139 L 176 136 L 176 136 L 176 120 L 176 120 L 176 112 L 176 112 Z M 192 128 L 192 133 L 192 128 L 192 133 L 219 160 L 219 160 L 272 160 L 272 160 L 272 128 L 272 128 L 192 128 L 192 128 Z M 152 208 L 184 208 L 152 208 L 192 208 L 192 216 L 192 216 L 192 240 L 192 240 L 208 240 L 208 240 L 208 216 L 208 216 L 208 208 L 208 208 L 216 208 L 251 208 L 254 210 L 254 210 L 318 274 L 318 274 L 320 277 L 320 277 L 320 280 L 320 280 L 320 376 L 320 376 L 320 384 L 320 384 L 312 384 L 213 384 L 210 382 L 210 382 L 181 352 L 181 352 L 88 352 L 80 352 L 80 344 L 80 344 L 80 280 L 80 280 L 80 277 L 80 277 L 82 274 L 82 274 L 146 210 L 146 210 L 149 208 L 149 208 L 152 208 L 152 208 Z M 96 283 L 96 336 L 96 283 L 96 336 L 184 336 L 187 336 L 190 338 L 190 338 L 219 368 L 219 368 L 304 368 L 304 368 L 304 283 L 304 283 L 245 224 L 245 224 L 224 224 L 224 224 L 224 248 L 224 248 L 224 256 L 224 256 L 216 256 L 176 256 L 176 248 L 176 248 L 176 224 L 176 224 L 155 224 L 155 224 L 96 283 L 96 283 Z" />
</svg>