<svg xmlns="http://www.w3.org/2000/svg" viewBox="0 0 456 468">
  <path d="M 196 16 L 268 16 L 196 16 L 268 16 L 268 52 L 268 52 Q 268 67 257 77 Q 247 88 232 88 Q 217 88 207 77 Q 196 67 196 52 L 196 16 L 196 16 Z M 180 0 L 180 16 L 180 0 L 180 16 L 180 52 L 180 52 Q 181 74 195 89 Q 210 103 232 104 Q 254 103 269 89 Q 283 74 284 52 L 284 16 L 284 16 L 284 0 L 284 0 L 268 0 L 180 0 Z M 248 436 L 248 452 L 248 436 L 248 452 L 216 452 L 216 452 L 216 436 L 216 436 Q 217 421 232 420 Q 247 421 248 436 L 248 436 Z M 200 436 L 200 452 L 200 436 L 200 452 L 200 468 L 200 468 L 216 468 L 264 468 L 264 452 L 264 452 L 264 436 L 264 436 Q 264 422 255 413 Q 246 404 232 404 Q 218 404 209 413 Q 200 422 200 436 L 200 436 Z M 424 260 Q 409 259 408 244 Q 409 229 424 228 L 440 228 L 440 228 L 440 260 L 440 260 L 424 260 L 424 260 Z M 440 276 L 456 276 L 440 276 L 456 276 L 456 260 L 456 260 L 456 228 L 456 228 L 456 212 L 456 212 L 440 212 L 424 212 Q 410 212 401 221 Q 392 230 392 244 Q 392 258 401 267 Q 410 276 424 276 L 440 276 L 440 276 Z M 40 268 L 16 268 L 40 268 L 16 268 L 16 220 L 16 220 L 40 220 L 40 220 Q 62 222 64 244 Q 62 266 40 268 L 40 268 Z M 40 204 L 16 204 L 40 204 L 0 204 L 0 220 L 0 220 L 0 268 L 0 268 L 0 284 L 0 284 L 16 284 L 40 284 Q 57 284 68 272 Q 80 261 80 244 Q 80 227 68 216 Q 57 204 40 204 L 40 204 Z M 424 108 L 396 137 L 424 108 L 396 137 Q 384 148 368 148 Q 352 148 339 137 Q 328 124 328 108 Q 328 92 339 80 L 368 52 L 368 52 L 424 108 L 424 108 Z M 379 40 L 368 29 L 379 40 L 368 29 L 357 40 L 357 40 L 328 69 L 328 69 Q 312 86 312 108 Q 312 131 328 148 Q 345 164 368 164 Q 390 164 407 148 L 436 119 L 436 119 L 447 108 L 447 108 L 436 97 L 436 97 L 379 40 L 379 40 Z M 108 391 L 96 402 L 108 391 L 96 402 L 74 380 L 74 380 L 85 369 L 85 369 Q 96 359 108 369 Q 117 380 108 391 L 108 391 Z M 74 357 L 62 369 L 74 357 L 62 369 L 51 380 L 51 380 L 62 391 L 62 391 L 85 414 L 85 414 L 96 425 L 96 425 L 108 414 L 108 414 L 119 402 L 119 402 Q 128 393 128 380 Q 128 367 119 357 Q 109 348 96 348 Q 83 348 74 357 L 74 357 Z M 356 391 Q 347 380 356 368 Q 368 359 379 368 L 390 380 L 390 380 L 368 402 L 368 402 L 356 391 L 356 391 Z M 356 414 L 368 425 L 356 414 L 368 425 L 379 414 L 379 414 L 402 391 L 402 391 L 413 380 L 413 380 L 402 369 L 402 369 L 390 357 L 390 357 Q 381 348 368 348 Q 355 348 345 357 Q 336 367 336 380 Q 336 393 345 403 L 356 414 L 356 414 Z M 74 131 L 51 108 L 74 131 L 51 108 L 96 63 L 96 63 L 119 86 L 119 86 Q 128 95 128 108 Q 128 121 119 131 Q 109 140 96 140 Q 83 140 74 131 L 74 131 Z M 130 74 L 108 52 L 130 74 L 108 52 L 96 40 L 96 40 L 85 52 L 85 52 L 40 97 L 40 97 L 28 108 L 28 108 L 40 120 L 40 120 L 62 142 L 62 142 Q 77 156 96 156 Q 115 156 130 142 Q 144 127 144 108 Q 144 89 130 74 L 130 74 Z" />
</svg>