<svg xmlns="http://www.w3.org/2000/svg" viewBox="0 0 508 508">
  <path d="M 134 145 L 0 12 L 134 145 L 0 12 L 12 0 L 12 0 L 148 136 L 148 136 L 150 139 L 150 139 L 150 142 L 150 142 L 150 198 L 150 198 L 206 198 L 209 198 L 212 200 L 212 200 L 340 328 L 340 328 L 342 331 L 342 331 L 342 334 L 342 334 L 342 390 L 342 390 L 398 390 L 401 390 L 403 392 L 403 392 L 508 496 L 508 496 L 496 507 L 496 507 L 395 406 L 395 406 L 334 406 L 326 406 L 326 398 L 326 398 L 326 337 L 326 337 L 203 214 L 203 214 L 142 214 L 134 214 L 134 206 L 134 206 L 134 145 L 134 145 Z M 102 337 L 0 236 L 102 337 L 0 236 L 12 224 L 12 224 L 116 328 L 116 328 L 118 331 L 118 331 L 118 334 L 118 334 L 118 390 L 118 390 L 174 390 L 177 390 L 180 392 L 180 392 L 284 496 L 284 496 L 272 508 L 272 508 L 171 406 L 171 406 L 110 406 L 102 406 L 102 398 L 102 398 L 102 337 L 102 337 Z M 224 12 L 236 0 L 224 12 L 236 0 L 276 40 L 276 40 L 278 43 L 278 43 L 278 46 L 278 46 L 278 102 L 278 102 L 334 102 L 337 102 L 340 104 L 340 104 L 404 168 L 404 168 L 406 171 L 406 171 L 406 174 L 406 174 L 406 230 L 406 230 L 462 230 L 465 230 L 467 232 L 467 232 L 507 272 L 507 272 L 496 283 L 496 283 L 459 246 L 459 246 L 398 246 L 390 246 L 390 238 L 390 238 L 390 177 L 390 177 L 331 118 L 331 118 L 270 118 L 262 118 L 262 110 L 262 110 L 262 49 L 262 49 L 224 12 L 224 12 Z" />
</svg>