<svg xmlns="http://www.w3.org/2000/svg" viewBox="0 0 512 512">
  <path d="M 331 75 L 267 11 L 331 75 L 267 11 L 256 0 L 256 0 L 245 11 L 245 11 L 181 75 L 181 75 L 91 75 L 75 75 L 75 91 L 75 91 L 75 181 L 75 181 L 11 245 L 11 245 L 0 256 L 0 256 L 11 267 L 11 267 L 75 331 L 75 331 L 75 421 L 75 421 L 75 437 L 75 437 L 91 437 L 181 437 L 245 501 L 245 501 L 256 512 L 256 512 L 267 501 L 267 501 L 331 437 L 331 437 L 421 437 L 437 437 L 437 421 L 437 421 L 437 331 L 437 331 L 501 267 L 501 267 L 512 256 L 512 256 L 501 245 L 501 245 L 437 181 L 437 181 L 437 91 L 437 91 L 437 75 L 437 75 L 421 75 L 331 75 Z M 421 91 L 421 181 L 421 91 L 421 181 L 421 188 L 421 188 L 426 192 L 426 192 L 489 256 L 489 256 L 426 320 L 426 320 L 421 324 L 421 324 L 421 331 L 421 331 L 421 421 L 421 421 L 331 421 L 324 421 L 320 426 L 320 426 L 256 489 L 256 489 L 192 426 L 192 426 L 188 421 L 188 421 L 181 421 L 91 421 L 91 331 L 91 331 L 91 324 L 91 324 L 86 320 L 86 320 L 23 256 L 23 256 L 86 192 L 86 192 L 91 188 L 91 188 L 91 181 L 91 181 L 91 91 L 91 91 L 181 91 L 188 91 L 192 86 L 192 86 L 256 23 L 256 23 L 320 86 L 320 86 L 324 91 L 324 91 L 331 91 L 421 91 Z" />
</svg>