<svg xmlns="http://www.w3.org/2000/svg" viewBox="0 0 512 512">
  <path d="M 26.4 59.2 L 16 51.2 L 0 71.2 L 10.4 79.2 L 486.4 452.8 L 496 460.8 L 512 440.8 L 502.4 432.8 L 26.4 59.2 L 26.4 59.2 Z M 281.6 211.2 L 312 102.4 L 432 102.4 L 419.2 153.6 L 445.6 153.6 L 460.8 92.8 L 464.8 76.8 L 448 76.8 L 115.2 76.8 L 112 76.8 L 144 102.4 L 285.6 102.4 L 260 194.4 L 281.6 211.2 L 281.6 211.2 Z M 252 318.4 L 230.4 300.8 L 200 409.6 L 140.8 409.6 L 128 409.6 L 128 435.2 L 140.8 435.2 L 268.8 435.2 L 281.6 435.2 L 281.6 409.6 L 268.8 409.6 L 226.4 409.6 L 252 318.4 L 252 318.4 Z" />
</svg>