<svg xmlns="http://www.w3.org/2000/svg" viewBox="0 0 448 460">
  <path d="M 2 198 Q 15 112 86 54 Q 136 16 194 8 Q 252 0 307 22 Q 361 43 401 92 L 401 92 L 401 92 Q 401 92 401 92 Q 401 92 401 92 L 432 134 L 432 134 L 432 46 L 432 46 L 432 38 L 432 38 L 448 38 L 448 38 L 448 46 L 448 46 L 448 158 L 448 158 L 448 166 L 448 166 L 440 166 L 320 166 L 320 150 L 320 150 L 328 150 L 424 150 L 388 102 L 388 102 Q 332 34 249 24 Q 167 13 96 66 Q 31 120 19 198 L 2 198 L 2 198 Z M 8 294 L 120 294 L 8 294 L 128 294 L 128 310 L 128 310 L 120 310 L 23 310 L 59 358 L 59 358 Q 115 426 198 436 Q 280 447 351 394 Q 416 340 428 262 L 445 262 L 445 262 Q 432 348 361 407 Q 311 444 253 452 Q 195 460 140 438 Q 85 417 46 368 L 46 368 L 46 368 Q 46 368 46 368 Q 46 368 46 368 L 16 328 L 16 328 L 16 414 L 16 414 L 16 422 L 16 422 L 0 422 L 0 422 L 0 414 L 0 414 L 0 302 L 0 302 L 0 294 L 0 294 L 8 294 L 8 294 Z" />
</svg>