<svg xmlns="http://www.w3.org/2000/svg" viewBox="0 0 640 384">
  <path d="M 16 16 L 16 368 L 16 16 L 16 368 L 312 368 L 312 368 L 312 16 L 312 16 L 16 16 L 16 16 Z M 328 368 L 624 368 L 328 368 L 624 368 L 624 16 L 624 16 L 328 16 L 328 16 L 328 368 L 328 368 Z M 624 0 L 640 0 L 624 0 L 640 0 L 640 16 L 640 16 L 640 368 L 640 368 L 640 384 L 640 384 L 624 384 L 0 384 L 0 368 L 0 368 L 0 16 L 0 16 L 0 0 L 0 0 L 16 0 L 624 0 Z M 488 96 L 488 104 L 488 96 L 488 104 L 488 128 L 488 128 L 544 128 L 568 128 L 568 144 L 568 144 L 560 144 L 549 144 L 497 248 L 497 248 Q 502 251 507 254 L 540 273 L 540 273 L 547 277 L 547 277 L 539 291 L 539 291 L 532 287 L 532 287 L 499 268 L 499 268 Q 492 264 484 259 L 428 287 L 428 287 L 420 291 L 420 291 L 413 277 L 413 277 L 420 273 L 420 273 L 470 248 L 470 248 Q 462 242 455 235 L 426 206 L 426 206 L 421 200 L 421 200 L 432 189 L 432 189 L 438 194 L 438 194 L 467 224 L 467 224 Q 475 232 484 239 L 531 144 L 531 144 L 480 144 L 392 144 L 392 128 L 392 128 L 400 128 L 472 128 L 472 104 L 472 104 L 472 96 L 472 96 L 488 96 L 488 96 Z M 155 96 L 165 96 L 155 96 L 165 96 L 167 101 L 167 101 L 247 285 L 247 285 L 249 288 L 249 288 L 231 288 L 231 288 L 214 248 L 214 248 L 106 248 L 106 248 L 89 288 L 89 288 L 71 288 L 71 288 L 73 285 L 73 285 L 153 101 L 153 101 L 155 96 L 155 96 Z M 160 124 L 113 232 L 160 124 L 113 232 L 207 232 L 207 232 L 160 124 L 160 124 Z" />
</svg>