<svg xmlns="http://www.w3.org/2000/svg" viewBox="0 0 640 512">
  <path d="M 224 16 Q 254 16 280 31 L 280 31 L 280 31 Q 306 46 321 72 Q 336 98 336 128 Q 336 158 321 184 Q 306 210 280 225 Q 254 240 224 240 Q 194 240 168 225 Q 142 210 127 184 Q 112 158 112 128 Q 112 98 127 72 Q 142 46 168 31 Q 194 16 224 16 L 224 16 Z M 76 320 L 321 320 L 76 320 L 321 320 Q 320 312 320 304 L 64 304 L 64 304 L 5 496 L 5 496 L 0 512 L 0 512 L 17 512 L 426 512 Q 416 505 406 496 L 22 496 L 22 496 L 76 320 L 76 320 Z M 352 128 Q 352 93 335 64 L 335 64 L 335 64 Q 318 35 288 17 Q 258 0 224 0 Q 190 0 160 17 Q 130 35 113 64 Q 96 93 96 128 Q 96 163 113 192 Q 130 221 160 239 Q 190 256 224 256 Q 258 256 288 239 Q 318 221 335 192 Q 352 163 352 128 L 352 128 Z M 624 291 L 624 296 L 624 291 L 624 296 Q 624 356 594 410 Q 563 465 504 492 L 504 244 L 504 244 L 624 291 L 624 291 Z M 368 291 L 488 244 L 368 291 L 488 244 L 488 492 L 488 492 Q 429 465 398 410 Q 368 355 368 296 L 368 291 L 368 291 Z M 496 512 Q 568 486 604 424 L 604 424 L 604 424 Q 640 363 640 296 L 640 280 L 640 280 L 496 224 L 496 224 L 352 280 L 352 280 L 352 296 L 352 296 Q 352 363 388 424 Q 424 486 496 512 L 496 512 Z" />
</svg>