<svg xmlns="http://www.w3.org/2000/svg" viewBox="0 0 448 448">
  <path d="M 16 16 L 16 432 L 16 16 L 16 432 L 432 432 L 432 432 L 432 16 L 432 16 L 16 16 L 16 16 Z M 0 0 L 16 0 L 0 0 L 448 0 L 448 16 L 448 16 L 448 432 L 448 432 L 448 448 L 448 448 L 432 448 L 0 448 L 0 432 L 0 432 L 0 16 L 0 16 L 0 0 L 0 0 Z M 64 56 L 128 56 L 64 56 L 392 56 L 392 64 L 392 64 L 392 128 L 392 128 L 392 192 L 392 192 L 392 256 L 392 256 L 392 320 L 392 320 L 392 384 L 392 384 L 392 392 L 392 392 L 384 392 L 56 392 L 56 384 L 56 384 L 56 320 L 56 320 L 56 256 L 56 256 L 56 192 L 56 192 L 56 128 L 56 128 L 56 64 L 56 64 L 56 56 L 56 56 L 64 56 L 64 56 Z M 72 120 L 120 120 L 72 120 L 120 120 L 120 72 L 120 72 L 72 72 L 72 72 L 72 120 L 72 120 Z M 136 120 L 184 120 L 136 120 L 184 120 L 184 72 L 184 72 L 136 72 L 136 72 L 136 120 L 136 120 Z M 200 120 L 248 120 L 200 120 L 248 120 L 248 72 L 248 72 L 200 72 L 200 72 L 200 120 L 200 120 Z M 264 120 L 312 120 L 264 120 L 312 120 L 312 72 L 312 72 L 264 72 L 264 72 L 264 120 L 264 120 Z M 328 120 L 376 120 L 328 120 L 376 120 L 376 72 L 376 72 L 328 72 L 328 72 L 328 120 L 328 120 Z M 328 136 L 328 184 L 328 136 L 328 184 L 376 184 L 376 184 L 376 136 L 376 136 L 328 136 L 328 136 Z M 328 200 L 328 248 L 328 200 L 328 248 L 376 248 L 376 248 L 376 200 L 376 200 L 328 200 L 328 200 Z M 328 264 L 328 312 L 328 264 L 328 312 L 376 312 L 376 312 L 376 264 L 376 264 L 328 264 L 328 264 Z M 328 328 L 328 376 L 328 328 L 328 376 L 376 376 L 376 376 L 376 328 L 376 328 L 328 328 L 328 328 Z M 312 328 L 264 328 L 312 328 L 264 328 L 264 376 L 264 376 L 312 376 L 312 376 L 312 328 L 312 328 Z M 248 328 L 200 328 L 248 328 L 200 328 L 200 376 L 200 376 L 248 376 L 248 376 L 248 328 L 248 328 Z M 184 328 L 136 328 L 184 328 L 136 328 L 136 376 L 136 376 L 184 376 L 184 376 L 184 328 L 184 328 Z M 120 328 L 72 328 L 120 328 L 72 328 L 72 376 L 72 376 L 120 376 L 120 376 L 120 328 L 120 328 Z M 120 312 L 120 264 L 120 312 L 120 264 L 72 264 L 72 264 L 72 312 L 72 312 L 120 312 L 120 312 Z M 120 248 L 120 200 L 120 248 L 120 200 L 72 200 L 72 200 L 72 248 L 72 248 L 120 248 L 120 248 Z M 120 184 L 120 136 L 120 184 L 120 136 L 72 136 L 72 136 L 72 184 L 72 184 L 120 184 L 120 184 Z M 136 184 L 184 184 L 136 184 L 184 184 L 184 136 L 184 136 L 136 136 L 136 136 L 136 184 L 136 184 Z M 200 184 L 248 184 L 200 184 L 248 184 L 248 136 L 248 136 L 200 136 L 200 136 L 200 184 L 200 184 Z M 264 184 L 312 184 L 264 184 L 312 184 L 312 136 L 312 136 L 264 136 L 264 136 L 264 184 L 264 184 Z M 264 200 L 264 248 L 264 200 L 264 248 L 312 248 L 312 248 L 312 200 L 312 200 L 264 200 L 264 200 Z M 264 264 L 264 312 L 264 264 L 264 312 L 312 312 L 312 312 L 312 264 L 312 264 L 264 264 L 264 264 Z M 248 264 L 200 264 L 248 264 L 200 264 L 200 312 L 200 312 L 248 312 L 248 312 L 248 264 L 248 264 Z M 184 264 L 136 264 L 184 264 L 136 264 L 136 312 L 136 312 L 184 312 L 184 312 L 184 264 L 184 264 Z M 184 248 L 184 200 L 184 248 L 184 200 L 136 200 L 136 200 L 136 248 L 136 248 L 184 248 L 184 248 Z M 200 248 L 248 248 L 200 248 L 248 248 L 248 200 L 248 200 L 200 200 L 200 200 L 200 248 L 200 248 Z" />
</svg>