<svg xmlns="http://www.w3.org/2000/svg" viewBox="0 0 576 512">
  <path d="M 352 0 Q 461 2 539 69 L 528 80 L 528 80 Q 455 18 352 16 Q 249 18 176 80 L 165 69 L 165 69 Q 243 2 352 0 L 352 0 Z M 352 112 Q 414 113 459 149 L 448 160 L 448 160 Q 407 129 352 128 Q 297 129 256 160 L 245 149 L 245 149 Q 290 113 352 112 L 352 112 Z M 360 224 L 360 232 L 360 224 L 360 232 L 360 320 L 360 320 L 560 320 L 576 320 L 576 336 L 576 336 L 576 496 L 576 496 L 576 512 L 576 512 L 560 512 L 0 512 L 0 496 L 0 496 L 0 336 L 0 336 L 0 320 L 0 320 L 16 320 L 344 320 L 344 232 L 344 232 L 344 224 L 344 224 L 360 224 L 360 224 Z M 344 336 Q 344 336 344 336 L 344 336 L 344 336 Q 344 336 344 336 L 16 336 L 16 336 L 16 496 L 16 496 L 560 496 L 560 496 L 560 336 L 560 336 L 360 336 L 360 336 Q 360 336 360 336 Q 360 336 360 336 L 344 336 L 344 336 Z M 208 400 L 208 432 L 208 400 L 208 432 L 176 432 L 176 432 L 176 400 L 176 400 L 208 400 L 208 400 Z M 80 400 L 112 400 L 80 400 L 112 400 L 112 432 L 112 432 L 80 432 L 80 432 L 80 400 L 80 400 Z" />
</svg>