<svg xmlns="http://www.w3.org/2000/svg" viewBox="0 0 576 384">
  <path d="M 192 0 L 288 48 L 192 0 L 288 48 L 384 0 L 384 0 L 576 160 L 576 160 Q 576 162 561 195 Q 546 228 516 272 Q 486 316 441 349 Q 396 382 336 384 L 240 384 L 240 384 Q 180 382 135 349 Q 90 316 60 272 Q 30 228 15 195 Q 0 162 0 160 L 192 0 L 192 0 Z M 295 62 Q 288 66 281 62 L 194 19 L 194 19 L 19 165 L 19 165 Q 23 174 29 188 Q 44 220 73 263 Q 102 305 144 336 Q 186 367 240 368 L 336 368 L 336 368 Q 390 367 432 336 Q 474 305 503 263 Q 532 220 547 188 Q 553 174 557 165 L 382 19 L 382 19 L 295 62 L 295 62 Z M 114 171 Q 126 183 150 199 Q 174 215 208 227 Q 243 239 288 240 Q 333 239 368 227 Q 402 215 426 199 Q 450 183 462 171 Q 463 170 465 169 Q 465 169 465 169 L 357 144 L 357 144 Q 355 145 353 145 Q 353 146 352 146 Q 345 148 335 151 Q 312 157 288 158 Q 264 157 242 151 Q 231 148 224 146 Q 223 145 221 145 Q 220 145 219 144 L 111 169 L 111 169 Q 113 170 114 171 L 114 171 Z M 222 128 Q 222 128 222 128 L 222 128 L 222 128 Q 222 128 222 128 Q 222 128 222 128 Q 222 128 222 128 L 222 129 L 222 129 L 224 129 L 224 129 Q 225 130 229 130 Q 235 132 245 135 Q 267 141 288 142 Q 308 141 331 135 Q 341 132 347 130 Q 349 130 350 129 Q 352 129 352 129 L 354 129 L 354 129 L 354 128 L 354 128 Q 354 128 354 128 Q 354 128 354 128 Q 354 128 354 128 Q 354 128 354 128 Q 354 128 354 128 Q 354 128 354 128 Q 354 128 354 128 Q 354 128 354 128 L 358 128 L 358 128 L 482 156 L 482 156 L 486 169 L 486 169 L 480 164 L 480 164 Q 488 170 486 169 Q 486 169 486 169 Q 486 169 486 169 Q 486 169 486 169 Q 486 169 486 169 Q 486 169 486 169 L 486 169 L 486 169 L 485 170 L 485 170 Q 484 171 483 173 Q 479 177 473 183 Q 460 196 434 213 Q 409 230 373 242 Q 336 255 288 256 Q 240 255 203 242 Q 167 230 141 213 Q 116 196 103 183 Q 97 177 93 173 Q 92 171 91 170 L 90 169 L 90 169 L 90 169 L 90 169 Q 90 169 90 169 Q 90 169 90 169 Q 90 169 90 169 L 96 164 L 96 164 L 90 169 L 90 169 L 94 156 L 94 156 L 218 128 L 218 128 L 222 128 L 222 128 Q 222 128 222 128 Q 222 128 222 128 Q 222 128 222 128 L 222 128 Z" />
</svg>