<svg xmlns="http://www.w3.org/2000/svg" viewBox="0 0 384 506">
  <path d="M 115 2 L 106 0 L 115 2 L 106 0 L 104 8 L 104 8 L 32 288 L 32 288 L 31 294 L 31 294 L 37 297 L 37 297 L 53 305 L 53 305 L 57 307 L 57 307 L 61 305 L 61 305 Q 152 241 219 231 Q 286 222 317 234 Q 332 239 342 251 Q 352 264 352 278 Q 352 297 337 314 Q 322 329 302 330 L 160 330 L 152 330 L 152 346 L 152 346 L 160 346 L 302 346 Q 331 345 349 324 Q 355 317 360 309 Q 368 295 368 278 Q 366 238 330 218 Q 281 189 246 154 Q 211 120 188 88 Q 165 56 154 36 Q 149 27 146 21 Q 146 21 146 20 Q 145 19 145 18 Q 144 17 144 16 L 143 15 L 143 15 L 143 15 L 143 15 Q 143 15 143 15 Q 143 15 143 15 Q 143 15 143 15 Q 143 15 143 15 Q 143 15 143 15 Q 143 15 143 15 Q 143 15 143 15 Q 143 15 143 15 L 142 12 L 142 12 L 139 10 L 139 10 L 115 2 L 115 2 Z M 175 98 Q 194 125 223 155 L 223 155 L 223 155 Q 252 185 291 212 Q 251 206 191 221 Q 130 236 55 289 L 49 286 L 49 286 L 118 20 L 118 20 L 130 25 L 130 25 Q 131 25 131 27 Q 131 27 132 27 Q 134 33 140 44 Q 151 65 175 98 L 175 98 Z M 336 394 L 336 442 L 336 394 L 336 442 L 48 442 L 48 442 L 48 394 L 48 394 L 336 394 L 336 394 Z M 48 378 L 32 378 L 48 378 L 32 378 L 32 394 L 32 394 L 32 442 L 32 442 L 16 442 L 0 442 L 0 458 L 0 458 L 0 490 L 0 490 L 0 506 L 0 506 L 16 506 L 384 506 L 384 490 L 384 490 L 384 458 L 384 458 L 384 442 L 384 442 L 368 442 L 352 442 L 352 394 L 352 394 L 352 378 L 352 378 L 336 378 L 48 378 Z M 16 458 L 368 458 L 16 458 L 368 458 L 368 490 L 368 490 L 16 490 L 16 490 L 16 458 L 16 458 Z" />
</svg>