<svg xmlns="http://www.w3.org/2000/svg" viewBox="0 0 448 512">
  <path d="M 80 96 L 80 72 L 80 96 L 80 72 L 80 64 L 80 64 L 96 64 L 96 64 L 96 72 L 96 72 L 96 96 L 96 96 L 134 96 L 156 96 L 139 110 L 139 110 Q 134 115 128 120 Q 88 163 86 202 Q 85 240 100 261 L 175 186 L 175 186 L 162 174 L 162 174 L 157 168 L 157 168 L 168 157 L 168 157 L 174 162 L 174 162 L 186 175 L 186 175 L 231 130 L 231 130 L 233 128 L 233 128 L 237 128 L 368 128 L 368 104 L 368 104 L 368 96 L 368 96 L 384 96 L 384 96 L 384 104 L 384 104 L 384 128 L 384 128 L 431 128 L 431 128 Q 428 102 399 76 Q 371 50 312 48 Q 273 49 248 61 L 242 64 L 242 64 L 238 59 L 238 59 Q 225 41 199 29 Q 174 17 136 16 Q 77 18 49 44 Q 20 70 17 96 L 80 96 L 80 96 Z M 80 112 L 8 112 L 80 112 L 0 112 L 0 104 L 0 104 Q 0 71 33 37 Q 66 3 136 0 Q 175 0 203 13 Q 230 25 247 44 Q 274 32 312 32 Q 382 35 415 69 Q 448 103 448 136 L 448 144 L 448 144 L 440 144 L 275 144 Q 278 159 280 179 Q 285 214 282 258 Q 280 302 265 352 Q 316 357 349 392 Q 383 428 384 480 L 384 496 L 384 496 L 384 512 L 384 512 L 368 512 L 0 512 L 0 496 L 0 496 L 0 480 L 0 480 Q 1 426 37 389 Q 74 353 128 352 L 171 352 L 171 352 Q 190 308 200 268 Q 209 228 213 197 Q 215 181 215 169 L 106 279 L 106 279 L 100 284 L 100 284 L 94 279 L 94 279 Q 71 256 70 209 Q 69 163 114 112 L 96 112 L 80 112 Z M 229 199 Q 223 263 188 352 L 248 352 L 248 352 Q 263 303 266 259 Q 269 215 265 181 Q 262 160 259 144 L 240 144 L 240 144 L 232 152 L 232 152 Q 232 170 229 199 L 229 199 Z M 128 368 Q 80 369 49 401 L 49 401 L 49 401 Q 17 432 16 480 L 16 496 L 16 496 L 368 496 L 368 496 L 368 480 L 368 480 Q 367 432 335 401 Q 304 369 256 368 L 128 368 L 128 368 Z" />
</svg>