<svg xmlns="http://www.w3.org/2000/svg" viewBox="0 0 512 448">
  <path d="M 496 16 L 496 48 L 496 16 L 496 48 L 16 48 L 16 48 L 16 16 L 16 16 L 496 16 L 496 16 Z M 16 0 L 0 0 L 16 0 L 0 0 L 0 16 L 0 16 L 0 48 L 0 48 L 0 64 L 0 64 L 16 64 L 512 64 L 512 48 L 512 48 L 512 16 L 512 16 L 512 0 L 512 0 L 496 0 L 16 0 Z M 24 96 L 6 144 L 24 96 L 6 144 L 0 160 L 0 160 L 17 160 L 512 160 L 506 144 L 506 144 L 488 96 L 488 96 L 471 96 L 471 96 L 489 144 L 489 144 L 23 144 L 23 144 L 41 96 L 41 96 L 24 96 L 24 96 Z M 6 240 L 0 256 L 6 240 L 0 256 L 17 256 L 512 256 L 506 240 L 506 240 L 488 192 L 488 192 L 471 192 L 471 192 L 489 240 L 489 240 L 23 240 L 23 240 L 41 192 L 41 192 L 24 192 L 24 192 L 6 240 L 6 240 Z M 24 288 L 6 336 L 24 288 L 6 336 L 0 352 L 0 352 L 17 352 L 512 352 L 506 336 L 506 336 L 488 288 L 488 288 L 471 288 L 471 288 L 489 336 L 489 336 L 23 336 L 23 336 L 41 288 L 41 288 L 24 288 L 24 288 Z M 6 432 L 0 448 L 6 432 L 0 448 L 17 448 L 512 448 L 506 432 L 506 432 L 488 384 L 488 384 L 471 384 L 471 384 L 489 432 L 489 432 L 23 432 L 23 432 L 41 384 L 41 384 L 24 384 L 24 384 L 6 432 L 6 432 Z" />
</svg>