<svg xmlns="http://www.w3.org/2000/svg" viewBox="0 0 564 448">
  <path d="M 128 448 Q 126 448 97 432 Q 66 415 34 376 Q 3 337 0 272 Q 2 197 52 148 Q 101 98 176 96 L 240 96 L 256 96 L 256 80 L 256 80 L 256 16 L 256 16 L 256 0 L 256 0 L 272 0 L 288 0 L 468 165 L 468 165 L 480 176 L 480 176 L 468 187 L 468 187 L 288 352 L 288 352 L 272 352 L 256 352 L 256 336 L 256 336 L 256 272 L 256 272 L 256 256 L 256 256 L 240 256 L 208 256 Q 160 257 129 289 Q 97 320 96 368 Q 97 400 109 421 Q 125 447 128 448 L 128 448 Z M 75 396 Q 80 401 86 405 Q 80 388 80 368 Q 81 314 117 277 Q 154 241 208 240 L 256 240 L 272 240 L 272 256 L 272 256 L 272 336 L 272 336 L 282 336 L 282 336 L 456 176 L 456 176 L 282 16 L 282 16 L 272 16 L 272 16 L 272 96 L 272 96 L 272 112 L 272 112 L 256 112 L 176 112 Q 108 114 63 159 Q 18 204 16 272 Q 17 315 34 346 Q 51 377 75 396 L 75 396 Z M 379 28 L 373 23 L 379 28 L 373 23 L 384 11 L 384 11 L 389 16 L 389 16 L 557 170 L 557 170 L 564 176 L 564 176 L 557 182 L 557 182 L 389 336 L 389 336 L 384 341 L 384 341 L 373 330 L 373 330 L 379 324 L 379 324 L 540 176 L 540 176 L 379 28 L 379 28 Z" />
</svg>