<svg xmlns="http://www.w3.org/2000/svg" viewBox="0 0 448 505">
  <path d="M 179 18 L 416 342 L 179 18 L 416 342 L 416 473 L 416 473 L 294 473 L 294 473 L 292 470 L 292 470 L 228 398 L 228 398 L 223 393 L 223 393 L 216 393 L 184 393 Q 160 394 144 409 Q 129 425 128 449 Q 129 473 144 489 Q 160 504 184 505 L 432 505 L 448 505 L 448 489 L 448 489 L 448 337 L 448 337 L 448 332 L 448 332 L 445 328 L 445 328 L 205 0 L 205 0 L 179 18 L 179 18 Z M 184 425 L 209 425 L 184 425 L 209 425 L 252 473 L 252 473 L 184 473 L 184 473 Q 162 471 160 449 Q 162 427 184 425 L 184 425 Z M 131 297 L 147 293 L 131 297 L 147 293 L 140 262 L 140 262 L 125 265 L 125 265 L 102 270 L 102 270 Q 56 281 29 315 Q 1 350 0 396 Q 1 456 46 495 L 54 501 L 54 501 L 74 477 L 74 477 L 67 471 L 67 471 Q 33 441 32 396 Q 33 361 54 335 Q 74 309 109 302 L 131 297 L 131 297 Z" />
</svg>