<svg xmlns="http://www.w3.org/2000/svg" viewBox="0 0 448 448">
  <path d="M 432 16 L 432 208 L 432 16 L 432 208 L 224 208 L 224 208 L 224 16 L 224 16 L 432 16 L 432 16 Z M 432 224 L 432 432 L 432 224 L 432 432 L 224 432 L 224 432 L 224 224 L 224 224 L 432 224 L 432 224 Z M 208 208 L 16 208 L 208 208 L 16 208 L 16 16 L 16 16 L 208 16 L 208 16 L 208 208 L 208 208 Z M 16 224 L 208 224 L 16 224 L 208 224 L 208 432 L 208 432 L 16 432 L 16 432 L 16 224 L 16 224 Z M 16 0 L 0 0 L 16 0 L 0 0 L 0 16 L 0 16 L 0 432 L 0 432 L 0 448 L 0 448 L 16 448 L 448 448 L 448 432 L 448 432 L 448 16 L 448 16 L 448 0 L 448 0 L 432 0 L 16 0 Z" />
</svg>