<svg xmlns="http://www.w3.org/2000/svg" viewBox="0 0 640 512">
  <path d="M 304 16 L 80 16 L 304 16 L 80 16 L 80 272 L 80 272 L 304 272 L 304 272 L 304 16 L 304 16 Z M 80 0 L 304 0 L 80 0 L 320 0 L 320 16 L 320 16 L 320 272 L 320 272 L 320 288 L 320 288 L 304 288 L 64 288 L 64 272 L 64 272 L 64 16 L 64 16 L 64 0 L 64 0 L 80 0 L 80 0 Z M 560 112 L 400 112 L 560 112 L 400 112 L 400 272 L 400 272 L 560 272 L 560 272 L 560 112 L 560 112 Z M 400 96 L 560 96 L 400 96 L 576 96 L 576 112 L 576 112 L 576 272 L 576 272 L 576 288 L 576 288 L 560 288 L 384 288 L 384 272 L 384 272 L 384 112 L 384 112 L 384 96 L 384 96 L 400 96 L 400 96 Z M 0 352 L 8 352 L 0 352 L 640 352 L 640 368 L 640 368 L 632 368 L 560 368 L 560 496 L 560 496 L 632 496 L 640 496 L 640 512 L 640 512 L 632 512 L 0 512 L 0 496 L 0 496 L 8 496 L 80 496 L 80 368 L 80 368 L 8 368 L 0 368 L 0 352 L 0 352 Z M 96 496 L 312 496 L 96 496 L 312 496 L 312 368 L 312 368 L 96 368 L 96 368 L 96 496 L 96 496 Z M 328 496 L 544 496 L 328 496 L 544 496 L 544 368 L 544 368 L 328 368 L 328 368 L 328 496 L 328 496 Z" />
</svg>