<svg xmlns="http://www.w3.org/2000/svg" viewBox="0 0 570 506">
  <path d="M 285 0 L 290 4 L 285 0 L 290 4 L 570 244 L 570 244 L 560 256 L 560 256 L 509 213 L 509 213 L 509 498 L 509 498 L 509 506 L 509 506 L 501 506 L 61 506 L 61 498 L 61 498 L 61 213 L 61 213 L 10 256 L 10 256 L 0 244 L 0 244 L 280 4 L 280 4 L 285 0 L 285 0 Z M 285 21 L 77 199 L 285 21 L 77 199 L 77 490 L 77 490 L 493 490 L 493 490 L 493 199 L 493 199 L 285 21 L 285 21 Z M 253 170 L 317 170 L 253 170 L 325 170 L 325 178 L 325 178 L 325 242 L 325 242 L 389 242 L 397 242 L 397 250 L 397 250 L 397 314 L 397 314 L 397 322 L 397 322 L 389 322 L 325 322 L 325 386 L 325 386 L 325 394 L 325 394 L 317 394 L 245 394 L 245 386 L 245 386 L 245 322 L 245 322 L 181 322 L 173 322 L 173 314 L 173 314 L 173 250 L 173 250 L 173 242 L 173 242 L 181 242 L 245 242 L 245 178 L 245 178 L 245 170 L 245 170 L 253 170 L 253 170 Z M 261 250 L 261 258 L 261 250 L 261 258 L 253 258 L 189 258 L 189 306 L 189 306 L 253 306 L 261 306 L 261 314 L 261 314 L 261 378 L 261 378 L 309 378 L 309 378 L 309 314 L 309 314 L 309 306 L 309 306 L 317 306 L 381 306 L 381 258 L 381 258 L 317 258 L 309 258 L 309 250 L 309 250 L 309 186 L 309 186 L 261 186 L 261 186 L 261 250 L 261 250 Z" />
</svg>