<svg xmlns="http://www.w3.org/2000/svg" viewBox="0 0 448 512">
  <path d="M 432 16 L 432 384 L 432 16 L 432 384 L 16 384 L 16 384 L 16 16 L 16 16 L 432 16 L 432 16 Z M 432 400 L 432 496 L 432 400 L 432 496 L 16 496 L 16 496 L 16 400 L 16 400 L 432 400 L 432 400 Z M 16 0 L 0 0 L 16 0 L 0 0 L 0 16 L 0 16 L 0 496 L 0 496 L 0 512 L 0 512 L 16 512 L 448 512 L 448 496 L 448 496 L 448 16 L 448 16 L 448 0 L 448 0 L 432 0 L 16 0 Z M 168 440 L 168 456 L 168 440 L 168 456 L 176 456 L 280 456 L 280 440 L 280 440 L 272 440 L 168 440 Z" />
</svg>