<svg xmlns="http://www.w3.org/2000/svg" viewBox="0 0 496 512">
  <path d="M 352 192 L 352 304 L 352 192 L 352 304 L 384 304 L 384 304 L 384 152 L 384 152 L 232 0 L 232 0 L 32 0 L 0 0 L 0 32 L 0 32 L 0 480 L 0 480 L 0 512 L 0 512 L 32 512 L 176 512 L 176 480 L 176 480 L 32 480 L 32 480 L 32 32 L 32 32 L 192 32 L 192 32 L 192 176 L 192 176 L 192 192 L 192 192 L 208 192 L 352 192 Z M 347 160 L 224 160 L 347 160 L 224 160 L 224 37 L 224 37 L 347 160 L 347 160 Z M 224 392 L 224 472 L 224 392 L 224 472 Q 224 489 236 500 Q 247 512 264 512 L 280 512 L 280 512 Q 297 512 308 500 Q 320 489 320 472 L 320 448 L 320 448 L 320 432 L 320 432 L 304 432 L 272 432 L 272 464 L 272 464 L 288 464 L 288 464 L 288 472 L 288 472 Q 287 479 280 480 L 264 480 L 264 480 Q 257 479 256 472 L 256 392 L 256 392 Q 257 385 264 384 L 280 384 L 280 384 Q 287 385 288 392 L 288 408 L 288 408 L 320 408 L 320 408 L 320 392 L 320 392 Q 320 375 308 364 Q 297 352 280 352 L 264 352 L 264 352 Q 247 352 236 364 Q 224 375 224 392 L 224 392 Z M 384 368 L 384 352 L 384 368 L 384 352 L 352 352 L 352 352 L 352 368 L 352 368 L 352 496 L 352 496 L 352 512 L 352 512 L 384 512 L 384 512 L 384 496 L 384 496 L 384 368 L 384 368 Z M 432 352 L 416 352 L 432 352 L 416 352 L 416 368 L 416 368 L 416 432 L 416 432 L 416 496 L 416 496 L 416 512 L 416 512 L 448 512 L 448 512 L 448 496 L 448 496 L 448 448 L 448 448 L 480 448 L 496 448 L 496 416 L 496 416 L 480 416 L 448 416 L 448 384 L 448 384 L 480 384 L 496 384 L 496 352 L 496 352 L 480 352 L 432 352 Z" />
</svg>