<svg xmlns="http://www.w3.org/2000/svg" viewBox="0 0 640 512">
  <path d="M 16 5 L 10 0 L 16 5 L 10 0 L 0 13 L 0 13 L 6 18 L 6 18 L 624 507 L 624 507 L 630 512 L 630 512 L 640 500 L 640 500 L 634 495 L 634 495 L 16 5 L 16 5 Z M 488 480 L 467 464 L 488 480 L 467 464 L 80 464 L 80 464 L 80 158 L 80 158 L 64 146 L 64 146 L 64 464 L 64 464 L 64 480 L 64 480 L 80 480 L 488 480 Z M 209 77 L 223 87 L 209 77 L 223 87 L 236 48 L 236 48 L 404 48 L 404 48 L 422 101 L 422 101 L 426 112 L 426 112 L 437 112 L 560 112 L 560 354 L 560 354 L 576 366 L 576 366 L 576 112 L 576 112 L 576 96 L 576 96 L 560 96 L 437 96 L 416 32 L 416 32 L 224 32 L 224 32 L 209 77 L 209 77 Z M 211 262 Q 208 274 208 288 Q 209 336 241 367 Q 272 399 320 400 Q 348 400 371 388 L 357 377 L 357 377 Q 340 384 320 384 Q 279 383 252 356 Q 225 329 224 288 Q 224 280 225 273 L 211 262 L 211 262 Z" />
</svg>