<svg xmlns="http://www.w3.org/2000/svg" viewBox="0 0 512 512">
  <path d="M 160 0 L 160 8 L 160 0 L 160 8 L 160 176 L 160 176 L 272 176 L 272 176 Q 286 140 317 118 Q 348 97 388 96 Q 441 97 476 132 Q 511 167 512 220 L 512 320 L 512 320 Q 510 402 456 456 Q 402 510 320 512 Q 266 510 221 483 Q 176 456 147 426 Q 131 411 111 408 Q 99 407 75 407 Q 64 408 56 408 L 56 408 L 56 408 L 56 504 L 56 504 L 56 512 L 56 512 L 48 512 L 0 512 L 0 504 L 0 504 L 0 360 L 0 360 L 0 352 L 0 352 L 8 352 L 176 352 Q 213 351 238 326 Q 263 301 264 264 L 264 220 L 264 220 Q 264 206 267 192 L 152 192 L 144 192 L 144 184 L 144 184 L 144 8 L 144 8 L 144 0 L 144 0 L 160 0 L 160 0 Z M 388 112 Q 342 113 312 144 L 312 144 L 312 144 Q 281 174 280 220 L 280 264 L 280 264 Q 280 278 277 290 Q 313 278 339 283 Q 369 289 390 304 L 391 304 L 391 304 Q 413 318 436 322 Q 458 326 496 307 L 496 220 L 496 220 Q 495 174 464 144 Q 434 113 388 112 L 388 112 Z M 496 325 Q 460 342 434 338 Q 405 333 383 318 L 383 318 L 383 318 Q 362 304 336 298 Q 312 293 269 310 Q 256 336 231 352 Q 207 368 176 368 L 16 368 L 16 368 L 16 496 L 16 496 L 40 496 L 40 496 L 40 400 L 40 400 L 40 392 L 40 392 L 48 392 L 48 392 L 48 400 L 48 400 L 48 392 L 48 392 Q 48 392 48 392 Q 48 392 48 392 Q 48 392 48 392 Q 48 392 48 392 Q 48 392 48 392 Q 48 392 48 392 L 48 392 L 48 392 L 48 392 L 48 392 L 50 392 L 50 392 Q 52 392 54 392 Q 55 392 56 392 Q 57 392 59 392 Q 66 392 74 392 Q 98 391 113 392 Q 139 396 158 415 Q 187 444 229 469 Q 271 494 320 496 Q 393 494 443 446 Q 492 398 496 325 L 496 325 Z" />
</svg>