<svg xmlns="http://www.w3.org/2000/svg" viewBox="0 0 647 512">
  <path d="M 204 103 Q 210 101 216 98 L 386 16 L 386 16 L 632 16 L 640 16 L 640 0 L 640 0 L 632 0 L 384 0 Q 382 0 381 1 L 259 59 L 259 59 Q 257 57 255 55 Q 254 54 254 54 L 253 53 L 253 53 Q 237 37 205 19 Q 172 2 128 0 Q 88 1 59 17 Q 31 32 15 47 Q 0 63 0 64 Q 0 66 25 86 Q 51 106 97 117 Q 53 136 27 175 Q 1 214 0 264 L 0 280 L 0 280 L 0 296 L 0 296 L 16 296 L 32 296 Q 100 294 145 249 Q 190 204 192 136 L 192 120 L 192 120 L 192 109 L 192 109 L 204 103 L 204 103 Z M 198 89 Q 168 103 128 104 Q 73 101 43 79 Q 30 70 22 63 Q 30 55 43 45 Q 59 33 80 25 Q 101 16 128 16 Q 155 16 178 25 Q 200 34 217 45 Q 231 55 240 63 Q 232 70 218 78 Q 217 79 216 79 Q 213 81 209 83 L 197 89 L 198 89 Z M 425 446 Q 388 495 336 496 Q 284 495 247 446 Q 210 397 208 320 Q 210 243 247 194 Q 284 145 336 144 Q 388 145 425 194 Q 462 243 464 320 Q 462 397 425 446 L 425 446 Z M 336 512 Q 397 510 438 456 L 438 456 L 438 456 Q 478 402 480 320 Q 478 238 438 184 Q 397 130 336 128 Q 275 130 234 184 Q 194 238 192 320 Q 194 402 234 456 Q 275 510 336 512 L 336 512 Z M 466 472 Q 506 484 543 478 L 543 478 L 543 478 Q 579 471 605 445 Q 647 398 638 329 Q 628 259 571 198 Q 539 165 501 147 Q 464 129 427 128 Q 438 136 448 146 Q 507 156 560 209 Q 613 267 622 331 Q 630 395 594 434 Q 556 471 496 462 Q 486 461 475 458 Q 471 465 466 472 L 466 472 Z M 16 280 L 16 264 L 16 280 L 16 264 Q 18 203 58 162 Q 99 122 160 120 L 176 120 L 176 120 L 176 136 L 176 136 Q 174 197 134 238 Q 93 278 32 280 L 16 280 L 16 280 Z" />
</svg>