<svg xmlns="http://www.w3.org/2000/svg" viewBox="0 0 640 512">
  <path d="M 352 363 L 352 480 L 352 363 L 352 480 L 128 480 L 128 480 L 128 186 L 128 186 L 96 161 L 96 161 L 96 480 L 96 480 L 64 480 L 64 480 L 64 512 L 64 512 L 96 512 L 416 512 L 416 480 L 416 480 L 384 480 L 384 480 L 384 388 L 384 388 L 352 363 L 352 363 Z M 140 32 L 352 32 L 140 32 L 352 32 L 352 200 L 352 200 L 384 225 L 384 225 L 384 32 L 384 32 L 384 0 L 384 0 L 352 0 L 99 0 L 140 32 L 140 32 Z M 576 136 L 576 129 L 576 136 L 576 129 L 571 124 L 571 124 L 475 36 L 475 36 L 463 25 L 463 25 L 441 49 L 441 49 L 453 60 L 453 60 L 480 84 L 480 84 L 480 160 L 480 160 Q 481 187 499 205 Q 517 223 544 224 L 544 351 L 544 351 L 576 377 L 576 377 L 576 136 L 576 136 Z M 512 114 L 544 143 L 512 114 L 544 143 L 544 192 L 544 192 Q 530 192 521 183 Q 512 174 512 160 L 512 114 L 512 114 Z M 33 10 L 20 0 L 33 10 L 20 0 L 0 25 L 0 25 L 13 35 L 13 35 L 608 502 L 608 502 L 620 512 L 620 512 L 640 487 L 640 487 L 628 477 L 628 477 L 33 10 L 33 10 Z" />
</svg>