<svg xmlns="http://www.w3.org/2000/svg" viewBox="0 0 512 512">
  <path d="M 248 504 L 256 512 L 248 504 L 256 512 L 264 504 L 264 504 L 267 501 L 267 501 L 499 269 L 499 269 L 501 267 L 501 267 L 512 256 L 512 256 L 506 250 L 506 250 L 501 245 L 501 245 L 267 11 L 267 11 L 264 8 L 264 8 L 256 0 L 256 0 L 248 8 L 248 8 L 245 11 L 245 11 L 11 245 L 11 245 L 6 250 L 6 250 L 0 256 L 0 256 L 11 267 L 11 267 L 13 269 L 13 269 L 245 501 L 245 501 L 248 504 L 248 504 Z M 248 481 L 47 281 L 248 481 L 47 281 L 248 350 L 248 350 L 248 481 L 248 481 Z M 23 256 L 248 31 L 23 256 L 248 31 L 248 333 L 248 333 L 23 256 L 23 256 Z M 264 31 L 489 256 L 264 31 L 489 256 L 264 333 L 264 333 L 264 31 L 264 31 Z M 264 350 L 465 281 L 264 350 L 465 281 L 264 481 L 264 481 L 264 350 L 264 350 Z" />
</svg>