<svg xmlns="http://www.w3.org/2000/svg" viewBox="0 0 576 512">
  <path d="M 144 16 L 144 240 L 144 16 L 144 240 L 432 240 L 432 240 L 432 16 L 432 16 L 144 16 L 144 16 Z M 128 0 L 144 0 L 128 0 L 448 0 L 448 16 L 448 16 L 448 240 L 448 240 L 448 256 L 448 256 L 432 256 L 128 256 L 128 240 L 128 240 L 128 16 L 128 16 L 128 0 L 128 0 Z M 16 160 L 96 160 L 16 160 L 96 160 L 96 176 L 96 176 L 16 176 L 16 176 L 16 320 L 16 320 L 560 320 L 560 320 L 560 176 L 560 176 L 480 176 L 480 176 L 480 160 L 480 160 L 560 160 L 576 160 L 576 176 L 576 176 L 576 320 L 576 320 L 576 328 L 576 328 L 576 336 L 576 336 L 576 496 L 576 496 L 576 512 L 576 512 L 560 512 L 0 512 L 0 496 L 0 496 L 0 336 L 0 336 L 0 328 L 0 328 L 0 320 L 0 320 L 0 176 L 0 176 L 0 160 L 0 160 L 16 160 L 16 160 Z M 560 336 L 16 336 L 560 336 L 16 336 L 16 496 L 16 496 L 560 496 L 560 496 L 560 336 L 560 336 Z" />
</svg>