<svg xmlns="http://www.w3.org/2000/svg" viewBox="0 0 512 384">
  <path d="M 498 202 L 512 192 L 498 202 L 512 192 L 498 182 L 498 182 L 240 11 L 240 11 L 224 0 L 224 0 L 224 19 L 224 19 L 224 134 L 224 134 L 16 10 L 16 10 L 0 0 L 0 0 L 0 19 L 0 19 L 0 365 L 0 365 L 0 384 L 0 384 L 16 374 L 16 374 L 224 250 L 224 250 L 224 365 L 224 365 L 224 384 L 224 384 L 240 373 L 240 373 L 498 202 L 498 202 Z M 224 231 L 16 356 L 224 231 L 16 356 L 16 28 L 16 28 L 224 153 L 224 153 L 224 231 L 224 231 Z M 240 354 L 240 30 L 240 354 L 240 30 L 483 192 L 483 192 L 240 354 L 240 354 Z" />
</svg>