<svg xmlns="http://www.w3.org/2000/svg" viewBox="0 0 512 512">
  <path d="M 174 16 Q 194 0 224 0 Q 254 0 274 16 Q 295 31 296 56 Q 294 87 264 103 L 264 128 L 264 128 L 376 128 L 384 128 L 384 136 L 384 136 L 384 248 L 384 248 L 409 248 L 409 248 Q 425 218 456 216 Q 481 217 496 238 Q 511 258 512 288 Q 512 318 496 338 Q 481 359 456 360 Q 425 358 409 328 L 384 328 L 384 328 L 384 504 L 384 504 L 384 512 L 384 512 L 376 512 L 248 512 L 248 504 L 248 504 L 248 466 L 248 466 L 248 460 L 248 460 L 253 458 L 253 458 Q 279 446 280 424 Q 280 408 265 397 Q 249 385 224 384 Q 199 385 184 397 Q 168 408 168 424 Q 169 446 195 458 L 200 460 L 200 460 L 200 466 L 200 466 L 200 504 L 200 504 L 200 512 L 200 512 L 192 512 L 0 512 L 0 504 L 0 504 L 0 320 L 0 320 L 0 312 L 0 312 L 8 312 L 52 312 L 54 317 L 54 317 Q 66 343 88 344 Q 104 344 116 329 Q 127 313 128 288 Q 127 263 116 248 Q 104 232 88 232 Q 66 233 54 259 L 52 264 L 52 264 L 47 264 L 0 264 L 0 256 L 0 256 L 0 136 L 0 136 L 0 128 L 0 128 L 8 128 L 184 128 L 184 103 L 184 103 Q 154 87 152 56 Q 153 31 174 16 L 174 16 Z M 184 29 Q 168 40 168 56 Q 169 78 195 90 L 200 92 L 200 92 L 200 97 L 200 97 L 200 136 L 200 136 L 200 144 L 200 144 L 192 144 L 16 144 L 16 248 L 16 248 L 41 248 L 41 248 Q 57 218 88 216 Q 113 217 128 238 Q 144 258 144 288 Q 144 318 128 338 Q 113 359 88 360 Q 57 358 41 328 L 16 328 L 16 328 L 16 496 L 16 496 L 184 496 L 184 496 L 184 471 L 184 471 Q 154 455 152 424 Q 153 399 174 384 Q 194 369 224 368 Q 254 368 274 384 Q 295 399 296 424 Q 294 455 264 471 L 264 496 L 264 496 L 368 496 L 368 496 L 368 320 L 368 320 L 368 312 L 368 312 L 376 312 L 420 312 L 422 317 L 422 317 Q 434 343 456 344 Q 472 344 483 329 Q 495 313 496 288 Q 495 263 483 248 Q 472 232 456 232 Q 434 233 422 259 L 420 264 L 420 264 L 414 264 L 368 264 L 368 256 L 368 256 L 368 144 L 368 144 L 256 144 L 248 144 L 248 136 L 248 136 L 248 98 L 248 98 L 248 92 L 248 92 L 253 90 L 253 90 Q 279 78 280 56 Q 280 40 265 29 Q 249 17 224 16 Q 199 17 184 29 L 184 29 Z" />
</svg>