<svg xmlns="http://www.w3.org/2000/svg" viewBox="0 0 512 512">
  <path d="M 16 224 Q 18 136 77 77 L 77 77 L 77 77 Q 136 18 224 16 L 248 16 L 248 16 Q 321 18 371 67 Q 420 116 424 189 L 424 192 L 424 192 L 427 194 L 427 194 L 496 256 L 496 256 L 496 320 L 496 320 L 440 320 L 432 320 L 432 328 L 432 328 L 432 432 L 432 432 L 312 432 L 304 432 L 304 440 L 304 440 L 304 504 L 304 504 L 304 512 L 304 512 L 320 512 L 320 512 L 320 504 L 320 504 L 320 448 L 320 448 L 440 448 L 448 448 L 448 440 L 448 440 L 448 336 L 448 336 L 504 336 L 512 336 L 512 328 L 512 328 L 512 252 L 512 252 L 512 249 L 512 249 L 509 246 L 509 246 L 440 185 L 440 185 Q 434 107 381 54 Q 327 2 248 0 L 224 0 L 224 0 Q 161 1 111 31 Q 60 60 31 111 Q 1 161 0 224 Q 2 315 64 381 L 64 504 L 64 504 L 64 512 L 64 512 L 80 512 L 80 512 L 80 504 L 80 504 L 80 378 L 80 378 L 80 374 L 80 374 L 78 372 L 78 372 Q 18 310 16 224 L 16 224 Z M 192 96 L 192 104 L 192 96 L 192 104 L 192 134 L 192 134 Q 176 140 162 151 L 136 136 L 136 136 L 129 132 L 129 132 L 125 139 L 125 139 L 101 181 L 101 181 L 97 188 L 97 188 L 104 192 L 104 192 L 130 206 L 130 206 Q 128 215 128 224 Q 128 233 130 241 L 104 256 L 104 256 L 97 260 L 97 260 L 101 267 L 101 267 L 125 309 L 125 309 L 129 316 L 129 316 L 136 312 L 136 312 L 162 297 L 162 297 Q 175 308 192 314 L 192 344 L 192 344 L 192 352 L 192 352 L 200 352 L 256 352 L 256 344 L 256 344 L 256 314 L 256 314 Q 272 308 286 297 L 312 312 L 312 312 L 319 316 L 319 316 L 323 309 L 323 309 L 347 267 L 347 267 L 351 260 L 351 260 L 344 256 L 344 256 L 318 241 L 318 241 Q 320 233 320 224 Q 320 215 318 206 L 344 192 L 344 192 L 351 188 L 351 188 L 347 181 L 347 181 L 323 139 L 323 139 L 319 132 L 319 132 L 312 136 L 312 136 L 286 151 L 286 151 Q 272 140 256 134 L 256 104 L 256 104 L 256 96 L 256 96 L 248 96 L 192 96 Z M 208 112 L 240 112 L 208 112 L 240 112 L 240 139 L 240 139 L 240 145 L 240 145 L 245 147 L 245 147 Q 265 153 280 167 L 285 171 L 285 171 L 289 168 L 289 168 L 313 154 L 313 154 L 329 182 L 329 182 L 306 195 L 306 195 L 301 198 L 301 198 L 302 204 L 302 204 Q 304 214 304 224 Q 304 234 302 244 L 301 250 L 301 250 L 306 253 L 306 253 L 329 266 L 329 266 L 313 294 L 313 294 L 290 280 L 290 280 L 285 277 L 285 277 L 280 281 L 280 281 Q 265 295 245 301 L 240 303 L 240 303 L 240 309 L 240 309 L 240 336 L 240 336 L 208 336 L 208 336 L 208 309 L 208 309 L 208 303 L 208 303 L 203 301 L 203 301 Q 183 295 168 281 L 164 277 L 164 277 L 159 280 L 159 280 L 135 294 L 135 294 L 119 266 L 119 266 L 143 253 L 143 253 L 147 250 L 147 250 L 146 244 L 146 244 Q 144 234 144 224 Q 144 214 146 204 L 147 198 L 147 198 L 143 195 L 143 195 L 119 182 L 119 182 L 135 154 L 135 154 L 159 168 L 159 168 L 163 171 L 163 171 L 168 167 L 168 167 Q 183 153 203 147 L 208 145 L 208 145 L 208 139 L 208 139 L 208 112 L 208 112 Z M 224 200 Q 246 202 248 224 Q 246 246 224 248 Q 202 246 200 224 Q 202 202 224 200 L 224 200 Z M 224 264 Q 247 263 259 244 Q 269 224 259 204 Q 247 185 224 184 Q 201 185 189 204 Q 179 224 189 244 Q 201 263 224 264 L 224 264 Z" />
</svg>