<svg xmlns="http://www.w3.org/2000/svg" viewBox="0 0 640 512">
  <path d="M 384 190 L 384 172 L 384 190 L 384 172 L 384 160 L 384 160 L 384 144 L 384 144 L 384 128 L 384 128 L 368 128 L 128 128 Q 74 129 37 165 Q 1 202 0 256 L 0 480 L 0 480 L 0 496 L 0 496 L 0 512 L 0 512 L 16 512 L 384 512 L 384 496 L 384 496 L 384 480 L 384 480 L 384 208 L 384 208 L 384 190 L 384 190 Z M 416 496 L 416 512 L 416 496 L 416 512 L 608 512 L 608 512 L 640 480 L 640 480 L 640 416 L 640 416 L 627 403 L 627 403 L 616 392 L 616 392 L 627 381 L 627 381 L 640 368 L 640 368 L 640 304 L 640 304 L 627 291 L 627 291 L 616 280 L 616 280 L 627 269 L 627 269 L 640 256 L 640 256 L 640 190 L 640 190 L 576 160 L 576 160 L 448 160 L 448 160 L 416 175 L 416 175 L 416 193 L 416 193 L 452 176 L 452 176 L 572 176 L 572 176 L 624 200 L 624 200 L 624 249 L 624 249 L 605 269 L 605 269 L 593 280 L 593 280 L 605 291 L 605 291 L 624 311 L 624 311 L 624 361 L 624 361 L 605 381 L 605 381 L 593 392 L 593 392 L 605 403 L 605 403 L 624 423 L 624 423 L 624 473 L 624 473 L 601 496 L 601 496 L 416 496 L 416 496 Z M 64 96 L 80 96 L 64 96 L 256 96 L 256 80 L 256 80 L 240 80 L 224 80 L 224 64 L 224 64 L 224 16 L 224 16 L 224 0 L 224 0 L 208 0 L 96 0 L 96 16 L 96 16 L 96 64 L 96 64 L 96 80 L 96 80 L 80 80 L 64 80 L 64 96 L 64 96 Z M 368 215 L 368 480 L 368 215 L 368 480 L 368 496 L 368 496 L 352 496 L 16 496 L 16 480 L 16 480 L 16 256 L 16 256 Q 17 208 49 177 Q 80 145 128 144 L 352 144 L 368 144 L 368 160 L 368 160 L 368 190 L 368 190 L 368 215 L 368 215 Z M 192 16 L 208 16 L 192 16 L 208 16 L 208 32 L 208 32 L 208 64 L 208 64 L 208 80 L 208 80 L 192 80 L 112 80 L 112 64 L 112 64 L 112 32 L 112 32 L 112 16 L 112 16 L 128 16 L 192 16 Z M 248 208 L 240 208 L 248 208 L 240 208 L 240 216 L 240 216 L 240 224 L 240 224 L 240 352 L 240 352 L 240 360 L 240 360 L 240 368 L 240 368 L 248 368 L 320 368 L 320 360 L 320 360 L 320 352 L 320 352 L 320 224 L 320 224 L 320 216 L 320 216 L 320 208 L 320 208 L 312 208 L 248 208 Z M 256 240 L 256 224 L 256 240 L 256 224 L 272 224 L 304 224 L 304 240 L 304 240 L 304 336 L 304 336 L 304 352 L 304 352 L 288 352 L 256 352 L 256 336 L 256 336 L 256 240 L 256 240 Z M 448 64 L 448 72 L 448 64 L 448 72 L 448 128 L 448 128 L 464 128 L 464 128 L 464 80 L 464 80 L 560 80 L 560 80 L 560 128 L 560 128 L 576 128 L 576 128 L 576 72 L 576 72 L 576 64 L 576 64 L 568 64 L 448 64 Z" />
</svg>