<svg xmlns="http://www.w3.org/2000/svg" viewBox="0 0 576 512">
  <path d="M 249 0 L 256 0 L 249 0 L 327 0 L 328 7 L 328 7 L 336 56 L 336 56 L 384 56 L 384 56 L 384 40 L 384 40 L 384 32 L 384 32 L 400 32 L 400 32 L 400 40 L 400 40 L 400 88 L 400 88 L 408 88 L 416 88 L 416 104 L 416 104 L 408 104 L 400 104 L 400 152 L 400 152 L 400 160 L 400 160 L 384 160 L 384 160 L 384 152 L 384 152 L 384 136 L 384 136 L 350 136 L 350 136 L 358 184 L 358 184 L 474 184 L 474 184 Q 505 185 538 204 Q 554 213 564 226 Q 575 239 576 256 Q 575 273 564 286 Q 553 299 538 308 Q 505 327 474 328 L 358 328 L 358 328 L 350 376 L 350 376 L 384 376 L 384 376 L 384 360 L 384 360 L 384 352 L 384 352 L 392 352 L 400 352 L 400 360 L 400 360 L 400 408 L 400 408 L 408 408 L 416 408 L 416 416 L 416 416 L 416 424 L 416 424 L 408 424 L 400 424 L 400 472 L 400 472 L 400 480 L 400 480 L 392 480 L 384 480 L 384 472 L 384 472 L 384 456 L 384 456 L 336 456 L 336 456 L 328 505 L 328 505 L 327 512 L 327 512 L 320 512 L 249 512 L 248 505 L 248 505 L 240 456 L 240 456 L 192 456 L 184 456 L 184 448 L 184 448 L 184 384 L 184 384 L 184 376 L 184 376 L 192 376 L 226 376 L 217 324 L 217 324 L 135 313 L 135 313 L 120 378 L 120 378 L 118 384 L 118 384 L 112 384 L 58 384 L 56 378 L 56 378 L 39 300 L 39 300 Q 39 300 39 300 Q 39 300 39 300 Q 22 298 11 285 Q 0 273 0 256 Q 0 239 11 227 Q 22 214 39 212 Q 39 212 39 212 L 56 134 L 56 134 L 58 128 L 58 128 L 64 128 L 118 128 L 120 134 L 120 134 L 135 199 L 135 199 L 217 188 L 217 188 L 226 136 L 226 136 L 192 136 L 184 136 L 184 128 L 184 128 L 184 64 L 184 64 L 184 56 L 184 56 L 192 56 L 240 56 L 248 7 L 248 7 L 249 0 L 249 0 Z M 347 120 L 384 120 L 347 120 L 384 120 L 384 104 L 384 104 L 384 88 L 384 88 L 384 72 L 384 72 L 339 72 L 339 72 L 347 120 L 347 120 Z M 237 72 L 200 72 L 237 72 L 200 72 L 200 120 L 200 120 L 229 120 L 229 120 L 237 72 L 237 72 Z M 339 440 L 384 440 L 339 440 L 384 440 L 384 424 L 384 424 L 384 408 L 384 408 L 384 392 L 384 392 L 347 392 L 347 392 L 339 440 L 339 440 Z M 229 392 L 200 392 L 229 392 L 200 392 L 200 440 L 200 440 L 237 440 L 237 440 L 229 392 L 229 392 Z M 313 16 L 263 16 L 313 16 L 263 16 L 234 186 L 234 186 L 247 184 L 247 184 L 247 184 L 247 184 L 248 184 L 342 184 L 313 16 L 313 16 Z M 248 328 L 248 328 L 248 328 L 248 328 L 247 328 L 247 328 L 234 326 L 234 326 L 263 496 L 263 496 L 313 496 L 313 496 L 342 328 L 342 328 L 248 328 L 248 328 Z M 70 144 L 53 221 L 70 144 L 53 221 L 52 226 L 52 226 L 46 227 L 46 227 L 41 228 L 41 228 Q 18 233 16 256 Q 18 279 41 284 L 46 285 L 46 285 L 52 286 L 52 286 L 53 291 L 53 291 L 70 368 L 70 368 L 106 368 L 106 368 L 121 302 L 121 302 L 123 295 L 123 295 L 130 296 L 130 296 L 249 312 L 249 312 L 474 312 L 474 312 Q 500 312 530 295 Q 559 277 560 256 Q 560 246 552 236 Q 544 226 530 218 Q 500 201 474 200 L 249 200 L 249 200 L 130 216 L 130 216 L 123 217 L 123 217 L 121 210 L 121 210 L 106 144 L 106 144 L 70 144 L 70 144 Z" />
</svg>