<svg xmlns="http://www.w3.org/2000/svg" viewBox="0 0 640 480">
  <path d="M 372 52 Q 370 85 342 99 L 448 192 L 448 192 L 552 171 L 552 171 Q 544 159 544 144 Q 545 124 558 110 Q 572 97 592 96 Q 612 97 626 110 Q 639 124 640 144 Q 640 164 626 177 Q 613 191 594 192 L 464 480 L 464 480 L 176 480 L 176 480 L 46 192 L 46 192 Q 27 191 14 177 Q 0 164 0 144 Q 1 124 14 110 Q 28 97 48 96 Q 68 97 82 110 Q 95 124 96 144 Q 96 159 88 171 L 192 192 L 192 192 L 298 99 L 298 99 Q 270 85 268 52 Q 269 30 283 15 Q 298 1 320 0 Q 342 1 357 15 Q 372 30 372 52 L 372 52 Z" />
</svg>