<svg xmlns="http://www.w3.org/2000/svg" viewBox="0 0 448 512">
  <path d="M 432 224 Q 432 167 404 120 L 404 120 L 404 120 Q 377 73 328 44 Q 279 16 224 16 Q 169 16 120 44 Q 71 73 44 120 Q 16 167 16 224 Q 16 281 44 328 Q 71 375 120 404 Q 169 432 224 432 Q 279 432 328 404 Q 377 375 404 328 Q 432 281 432 224 L 432 224 Z M 448 224 Q 447 282 422 330 L 422 330 L 422 330 Q 396 377 351 408 L 420 496 L 420 496 L 432 512 L 432 512 L 412 512 L 16 512 L 28 496 L 28 496 L 97 408 L 97 408 Q 52 377 26 330 Q 1 282 0 224 Q 1 161 31 111 Q 60 60 111 31 Q 161 1 224 0 Q 287 1 337 31 Q 388 60 417 111 Q 447 161 448 224 L 448 224 Z M 224 448 Q 161 447 110 417 L 49 496 L 49 496 L 399 496 L 399 496 L 338 417 L 338 417 Q 287 447 224 448 L 224 448 Z M 352 224 Q 352 189 335 160 L 335 160 L 335 160 Q 318 131 288 113 Q 258 96 224 96 Q 190 96 160 113 Q 130 131 113 160 Q 96 189 96 224 Q 96 259 113 288 Q 130 317 160 335 Q 190 352 224 352 Q 258 352 288 335 Q 318 317 335 288 Q 352 259 352 224 L 352 224 Z M 80 224 Q 80 185 99 152 L 99 152 L 99 152 Q 118 119 152 99 Q 186 80 224 80 Q 262 80 296 99 Q 330 119 349 152 Q 368 185 368 224 Q 368 263 349 296 Q 330 329 296 349 Q 262 368 224 368 Q 186 368 152 349 Q 118 329 99 296 Q 80 263 80 224 L 80 224 Z M 168 224 L 152 224 L 168 224 L 152 224 Q 153 193 173 173 Q 193 153 224 152 L 224 168 L 224 168 Q 200 169 184 184 Q 169 200 168 224 L 168 224 Z" />
</svg>