<svg xmlns="http://www.w3.org/2000/svg" viewBox="0 0 572 448">
  <path d="M 486 6 L 480 0 L 486 6 L 480 0 L 474 6 L 474 6 L 394 86 L 394 86 L 389 91 L 389 91 L 400 103 L 400 103 L 406 97 L 406 97 L 472 31 L 472 31 L 472 418 L 472 418 L 406 351 L 406 351 L 400 346 L 400 346 L 389 357 L 389 357 L 394 363 L 394 363 L 474 443 L 474 443 L 480 448 L 480 448 L 486 443 L 486 443 L 566 363 L 566 363 L 572 357 L 572 357 L 560 346 L 560 346 L 554 351 L 554 351 L 488 418 L 488 418 L 488 31 L 488 31 L 554 97 L 554 97 L 560 103 L 560 103 L 571 91 L 571 91 L 566 86 L 566 86 L 486 6 L 486 6 Z M 8 0 L 0 0 L 8 0 L 0 0 L 0 8 L 0 8 L 0 72 L 0 72 L 0 80 L 0 80 L 16 80 L 16 80 L 16 72 L 16 72 L 16 16 L 16 16 L 152 16 L 152 16 L 152 432 L 152 432 L 72 432 L 64 432 L 64 448 L 64 448 L 72 448 L 256 448 L 256 432 L 256 432 L 248 432 L 168 432 L 168 16 L 168 16 L 304 16 L 304 16 L 304 72 L 304 72 L 304 80 L 304 80 L 320 80 L 320 80 L 320 72 L 320 72 L 320 8 L 320 8 L 320 0 L 320 0 L 312 0 L 8 0 Z" />
</svg>