<svg xmlns="http://www.w3.org/2000/svg" viewBox="0 0 512 512">
  <path d="M 128 0 Q 164 1 183 32 Q 201 64 183 96 Q 164 127 128 128 Q 92 127 73 96 Q 55 64 73 32 Q 92 1 128 0 L 128 0 Z M 74 304 L 112 304 L 144 304 L 182 304 L 178 208 L 78 208 L 74 304 L 74 304 Z M 232 352 L 192 352 L 192 488 L 192 512 L 144 512 L 144 488 L 144 352 L 112 352 L 112 488 L 112 512 L 64 512 L 64 488 L 64 352 L 24 352 L 26 304 L 32 160 L 224 160 L 230 304 L 232 352 L 232 352 Z M 384 0 Q 420 1 439 32 Q 457 64 439 96 Q 420 127 384 128 Q 348 127 329 96 Q 311 64 329 32 Q 348 1 384 0 L 384 0 Z M 330 304 L 368 304 L 400 304 L 438 304 L 434 208 L 334 208 L 330 304 L 330 304 Z M 488 352 L 448 352 L 448 488 L 448 512 L 400 512 L 400 488 L 400 352 L 368 352 L 368 488 L 368 512 L 320 512 L 320 488 L 320 352 L 280 352 L 282 304 L 288 160 L 480 160 L 486 304 L 488 352 L 488 352 Z" />
</svg>