<svg xmlns="http://www.w3.org/2000/svg" viewBox="0 0 640 512">
  <path d="M 256 32 Q 334 33 392 78 L 392 78 L 392 78 Q 450 122 471 194 Q 483 192 496 192 Q 500 192 504 192 Q 504 192 504 192 Q 481 108 414 55 Q 347 2 256 0 Q 184 1 127 35 Q 69 69 35 127 Q 1 184 0 256 Q 1 328 35 385 Q 69 443 127 477 Q 184 511 256 512 Q 316 512 366 487 Q 355 475 347 461 Q 305 480 256 480 Q 193 479 143 449 Q 92 420 63 369 Q 33 319 32 256 Q 33 193 63 143 Q 92 92 143 63 Q 193 33 256 32 L 256 32 Z M 256 144 Q 205 144 160 165 L 160 165 L 160 165 Q 116 185 84 220 L 107 243 L 107 243 Q 135 212 173 194 Q 211 176 256 176 Q 335 178 390 228 Q 403 218 418 210 Q 386 179 345 162 Q 304 144 256 144 L 256 144 Z M 256 240 Q 192 242 154 290 L 177 313 L 177 313 Q 205 274 256 272 Q 303 274 331 308 Q 337 291 346 277 Q 310 241 256 240 L 256 240 Z M 280 368 Q 278 346 256 344 Q 234 346 232 368 Q 234 390 256 392 Q 278 390 280 368 L 280 368 Z M 496 256 Q 526 256 552 271 L 552 271 L 552 271 Q 578 286 593 312 Q 608 338 608 368 Q 608 398 593 424 Q 578 450 552 465 Q 526 480 496 480 Q 466 480 440 465 Q 414 450 399 424 Q 384 398 384 368 Q 384 338 399 312 Q 414 286 440 271 Q 466 256 496 256 L 496 256 Z M 496 512 Q 535 512 568 493 L 568 493 L 568 493 Q 601 474 621 440 Q 640 406 640 368 Q 640 330 621 296 Q 601 262 568 243 Q 535 224 496 224 Q 457 224 424 243 Q 391 262 371 296 Q 352 330 352 368 Q 352 406 371 440 Q 391 474 424 493 Q 457 512 496 512 L 496 512 Z M 592 347 Q 555 306 496 304 Q 437 306 400 347 L 425 368 L 425 368 Q 452 337 496 336 Q 540 337 567 368 L 592 347 L 592 347 Z M 496 360 Q 463 361 441 382 L 466 403 L 466 403 Q 478 392 496 392 Q 514 392 526 403 L 551 382 L 551 382 Q 529 361 496 360 L 496 360 Z M 496 452 Q 514 450 516 432 Q 514 414 496 412 Q 478 414 476 432 Q 478 450 496 452 L 496 452 Z" />
</svg>