<svg xmlns="http://www.w3.org/2000/svg" viewBox="0 0 512 512">
  <path d="M 432.8 460.8 L 400.8 435.2 L 179.2 435.2 L 179.2 384 L 153.6 384 L 153.6 448 L 153.6 460.8 L 166.4 460.8 L 432.8 460.8 L 432.8 460.8 Z M 407.2 309.6 L 427.2 325.6 Q 431.2 320 435.2 312.8 L 435.2 332 L 460.8 352 L 460.8 204.8 Q 460 142.4 436.8 99.2 Q 425.6 78.4 408.8 64.8 Q 392 52 371.2 51.2 L 140.8 51.2 Q 117.6 52 100 67.2 L 120.8 84 Q 131.2 76.8 140.8 76.8 L 320.8 76.8 Q 312 86.4 305.6 99.2 Q 282.4 142.4 281.6 204.8 Q 281.6 208 281.6 211.2 L 308.8 232.8 Q 307.2 219.2 307.2 204.8 Q 308 148 328 111.2 Q 348.8 76 371.2 76.8 Q 393.6 76 414.4 111.2 Q 434.4 148 435.2 204.8 Q 434.4 261.6 414.4 298.4 Q 410.4 304.8 407.2 309.6 L 407.2 309.6 Z M 51.2 204.8 Q 52 267.2 75.2 310.4 Q 86.4 331.2 103.2 344.8 Q 120 357.6 140.8 358.4 L 303.2 358.4 L 270.4 332.8 L 140.8 332.8 Q 118.4 333.6 97.6 298.4 Q 77.6 261.6 76.8 204.8 Q 76.8 192.8 78.4 180.8 L 54.4 162.4 Q 51.2 182.4 51.2 204.8 L 51.2 204.8 Z M 371.2 243.2 Q 363.2 241.6 360 220.8 Q 358.4 213.6 358.4 204.8 Q 358.4 196 360 188.8 Q 363.2 168 371.2 166.4 Q 379.2 168 383.2 188.8 Q 384 196 384 204.8 Q 384 213.6 383.2 220.8 Q 379.2 241.6 371.2 243.2 L 371.2 243.2 Z M 371.2 268.8 Q 380.8 268.8 387.2 264 L 387.2 264 Q 393.6 260 396 256 Q 402.4 248 404.8 240 Q 409.6 224 409.6 204.8 Q 409.6 185.6 404.8 169.6 Q 402.4 161.6 396 153.6 Q 393.6 149.6 387.2 145.6 Q 380.8 140.8 371.2 140.8 Q 361.6 140.8 355.2 145.6 Q 348.8 149.6 346.4 153.6 Q 340 161.6 337.6 169.6 Q 332.8 185.6 332.8 204.8 Q 332.8 224 337.6 240 Q 340 248 346.4 256 Q 348.8 260 355.2 264 Q 361.6 268.8 371.2 268.8 L 371.2 268.8 Z M 25.6 59.2 L 16 51.2 L 0 71.2 L 10.4 79.2 L 486.4 452.8 L 496 460.8 L 512 440.8 L 502.4 432.8 L 25.6 59.2 L 25.6 59.2 Z" />
</svg>