<svg xmlns="http://www.w3.org/2000/svg" viewBox="0 0 576 497">
  <path d="M 412 0 L 405 4 L 412 0 L 405 4 L 356 32 L 356 32 L 344 11 L 344 11 L 340 4 L 340 4 L 333 9 L 333 9 L 278 41 L 278 41 L 271 45 L 271 45 L 275 52 L 275 52 L 287 72 L 287 72 L 287 73 L 287 73 Q 287 73 287 73 Q 287 73 287 73 L 238 101 L 238 101 L 231 105 L 231 105 L 235 111 L 235 111 L 236 112 L 236 112 L 252 119 L 252 119 L 260 122 L 260 122 L 253 110 L 253 110 L 295 86 L 295 86 L 333 153 L 333 153 Q 349 160 363 170 L 293 51 L 293 51 L 334 26 L 334 26 L 342 40 L 342 40 L 342 40 L 342 40 L 346 47 L 346 47 L 410 158 L 410 158 L 414 165 L 414 165 L 428 157 L 428 157 L 424 150 L 424 150 L 364 46 L 364 46 L 406 22 L 406 22 L 497 181 L 497 181 L 512 206 L 512 206 L 512 177 L 512 177 L 512 97 L 512 97 L 560 97 L 560 97 L 560 212 L 560 212 Q 560 254 539 291 Q 518 327 481 349 Q 464 359 445 365 Q 444 373 442 382 Q 466 376 489 363 Q 530 339 553 299 Q 576 259 576 212 L 576 89 L 576 89 L 576 81 L 576 81 L 568 81 L 496 81 L 496 89 L 496 89 L 496 147 L 496 147 L 416 7 L 416 7 L 412 1 L 412 0 Z M 210 136 L 203 133 L 210 136 L 203 133 L 200 140 L 200 140 L 175 199 L 175 199 L 172 206 L 172 206 L 179 209 L 179 209 L 216 225 L 216 225 L 40 225 L 32 225 L 32 233 L 32 233 L 32 289 L 32 289 L 8 289 L 0 289 L 0 297 L 0 297 L 0 361 L 0 361 L 0 369 L 0 369 L 8 369 L 32 369 L 32 425 L 32 425 L 32 433 L 32 433 L 40 433 L 64 433 L 64 489 L 64 489 L 64 497 L 64 497 L 72 497 L 251 497 Q 321 495 368 449 Q 414 402 416 332 Q 415 281 388 241 Q 361 200 315 180 L 210 136 L 210 136 Z M 200 369 L 208 369 L 200 369 L 208 369 L 208 353 L 208 353 L 200 353 L 16 353 L 16 305 L 16 305 L 32 305 L 208 305 L 208 289 L 208 289 L 200 289 L 48 289 L 48 241 L 48 241 L 256 241 L 264 241 L 267 229 L 267 229 L 259 226 L 259 226 L 193 198 L 193 198 L 211 154 L 211 154 L 309 195 L 309 195 Q 351 213 375 250 Q 399 286 400 332 Q 398 395 356 437 Q 314 479 251 481 L 80 481 L 80 481 L 80 433 L 80 433 L 200 433 L 208 433 L 208 417 L 208 417 L 200 417 L 48 417 L 48 369 L 48 369 L 200 369 L 200 369 Z" />
</svg>