<svg xmlns="http://www.w3.org/2000/svg" viewBox="0 0 576 448">
  <path d="M 560 16 L 560 432 L 560 16 L 560 432 L 16 432 L 16 432 L 16 16 L 16 16 L 560 16 L 560 16 Z M 16 0 L 0 0 L 16 0 L 0 0 L 0 16 L 0 16 L 0 432 L 0 432 L 0 448 L 0 448 L 16 448 L 576 448 L 576 432 L 576 432 L 576 16 L 576 16 L 576 0 L 576 0 L 560 0 L 16 0 Z M 80 96 L 80 352 L 80 96 L 80 352 L 96 352 L 96 352 L 96 96 L 96 96 L 80 96 L 80 96 Z M 144 96 L 128 96 L 144 96 L 128 96 L 128 352 L 128 352 L 144 352 L 144 352 L 144 96 L 144 96 Z M 176 96 L 176 352 L 176 96 L 176 352 L 192 352 L 192 352 L 192 96 L 192 96 L 176 96 L 176 96 Z M 256 96 L 240 96 L 256 96 L 240 96 L 240 352 L 240 352 L 256 352 L 256 352 L 256 96 L 256 96 Z M 320 96 L 320 352 L 320 96 L 320 352 L 336 352 L 336 352 L 336 96 L 336 96 L 320 96 L 320 96 Z M 384 96 L 368 96 L 384 96 L 368 96 L 368 352 L 368 352 L 384 352 L 384 352 L 384 96 L 384 96 Z M 432 96 L 432 352 L 432 96 L 432 352 L 448 352 L 448 352 L 448 96 L 448 96 L 432 96 L 432 96 Z M 496 96 L 480 96 L 496 96 L 480 96 L 480 352 L 480 352 L 496 352 L 496 352 L 496 96 L 496 96 Z" />
</svg>