<svg xmlns="http://www.w3.org/2000/svg" viewBox="0 0 448 512">
  <path d="M 160 0 L 288 0 L 160 0 L 292 0 L 295 4 L 295 4 L 332 64 L 332 64 L 448 64 L 448 64 L 448 80 L 448 80 L 0 80 L 0 80 L 0 64 L 0 64 L 116 64 L 116 64 L 153 4 L 153 4 L 156 0 L 156 0 L 160 0 L 160 0 Z M 314 64 L 284 16 L 314 64 L 284 16 L 164 16 L 164 16 L 134 64 L 134 64 L 314 64 L 314 64 Z M 32 504 L 32 112 L 32 504 L 32 112 L 48 112 L 48 112 L 48 496 L 48 496 L 400 496 L 400 496 L 400 112 L 400 112 L 416 112 L 416 112 L 416 504 L 416 504 L 416 512 L 416 512 L 408 512 L 32 512 L 32 504 L 32 504 Z M 224 173 L 230 178 L 224 173 L 230 178 L 310 258 L 310 258 L 315 264 L 315 264 L 304 275 L 304 275 L 298 270 L 298 270 L 232 203 L 232 203 L 232 400 L 232 400 L 216 400 L 216 400 L 216 203 L 216 203 L 150 270 L 150 270 L 144 275 L 144 275 L 133 264 L 133 264 L 138 258 L 138 258 L 218 178 L 218 178 L 224 173 L 224 173 Z" />
</svg>