<svg xmlns="http://www.w3.org/2000/svg" viewBox="0 0 448 448">
  <path d="M 16 16 L 16 432 L 16 16 L 16 432 L 432 432 L 432 432 L 432 16 L 432 16 L 16 16 L 16 16 Z M 0 0 L 16 0 L 0 0 L 448 0 L 448 16 L 448 16 L 448 432 L 448 432 L 448 448 L 448 448 L 432 448 L 0 448 L 0 432 L 0 432 L 0 16 L 0 16 L 0 0 L 0 0 Z M 208 304 L 240 304 L 208 304 L 240 304 L 240 336 L 240 336 L 208 336 L 208 336 L 208 304 L 208 304 Z M 208 240 L 208 208 L 208 240 L 208 208 L 240 208 L 240 208 L 240 240 L 240 240 L 208 240 L 208 240 Z M 208 112 L 240 112 L 208 112 L 240 112 L 240 144 L 240 144 L 208 144 L 208 144 L 208 112 L 208 112 Z" />
</svg>