<svg xmlns="http://www.w3.org/2000/svg" viewBox="0 0 576 480">
  <path d="M 16 16 L 432 16 L 16 16 L 432 16 L 432 214 L 432 214 L 448 198 L 448 198 L 448 16 L 448 16 L 448 0 L 448 0 L 432 0 L 0 0 L 0 16 L 0 16 L 0 432 L 0 432 L 0 448 L 0 448 L 16 448 L 261 448 L 263 432 L 263 432 L 16 432 L 16 432 L 16 16 L 16 16 Z M 368 278 L 368 88 L 368 278 L 368 88 L 368 80 L 368 80 L 360 80 L 216 80 L 216 88 L 216 88 L 216 185 L 216 185 Q 186 193 184 224 Q 184 241 196 252 Q 207 264 224 264 Q 241 264 252 252 Q 264 241 264 224 Q 262 193 232 185 L 232 96 L 232 96 L 352 96 L 352 96 L 352 294 L 352 294 L 368 278 L 368 278 Z M 294 352 L 96 352 L 294 352 L 96 352 L 96 96 L 96 96 L 152 96 L 160 96 L 160 80 L 160 80 L 152 80 L 80 80 L 80 88 L 80 88 L 80 360 L 80 360 L 80 368 L 80 368 L 88 368 L 278 368 L 294 352 L 294 352 Z M 248 224 Q 246 246 224 248 Q 202 246 200 224 Q 202 202 224 200 Q 246 202 248 224 L 248 224 Z M 499 192 L 302 389 L 499 192 L 302 389 L 291 463 L 291 463 L 288 480 L 288 480 L 305 477 L 305 477 L 379 466 L 379 466 L 565 280 L 565 280 L 576 269 L 576 269 L 565 258 L 565 258 L 510 203 L 510 203 L 499 192 L 499 192 Z M 317 396 L 455 258 L 317 396 L 455 258 L 510 313 L 510 313 L 372 451 L 372 451 L 307 461 L 307 461 L 317 396 L 317 396 Z M 553 269 L 521 301 L 553 269 L 521 301 L 466 247 L 466 247 L 499 215 L 499 215 L 553 269 L 553 269 Z" />
</svg>