<svg xmlns="http://www.w3.org/2000/svg" viewBox="0 0 640 512">
  <path d="M 224 240 Q 254 240 280 225 L 280 225 L 280 225 Q 306 210 321 184 Q 336 158 336 128 Q 336 98 321 72 Q 306 46 280 31 Q 254 16 224 16 Q 194 16 168 31 Q 142 46 127 72 Q 112 98 112 128 Q 112 158 127 184 Q 142 210 168 225 Q 194 240 224 240 L 224 240 Z M 76 320 L 22 496 L 76 320 L 22 496 L 322 496 L 322 496 L 320 512 L 320 512 L 17 512 L 0 512 L 5 496 L 5 496 L 64 304 L 64 304 L 384 304 L 384 304 L 397 345 L 397 345 L 384 358 L 384 358 L 372 320 L 372 320 L 76 320 L 76 320 Z M 96 128 Q 96 93 113 64 L 113 64 L 113 64 Q 130 35 160 17 Q 190 0 224 0 Q 258 0 288 17 Q 318 35 335 64 Q 352 93 352 128 Q 352 163 335 192 Q 318 221 288 239 Q 258 256 224 256 Q 190 256 160 239 Q 130 221 113 192 Q 96 163 96 128 L 96 128 Z M 563 224 L 574 235 L 563 224 L 574 235 L 629 290 L 629 290 L 640 301 L 640 301 L 629 312 L 629 312 L 443 498 L 443 498 L 369 509 L 369 509 L 352 512 L 352 512 L 355 495 L 355 495 L 366 421 L 366 421 L 563 224 L 563 224 Z M 381 428 L 371 493 L 381 428 L 371 493 L 436 483 L 436 483 L 574 345 L 574 345 L 519 290 L 519 290 L 381 428 L 381 428 Z M 617 301 L 563 246 L 617 301 L 563 246 L 530 279 L 530 279 L 585 334 L 585 334 L 617 301 L 617 301 Z" />
</svg>