<svg xmlns="http://www.w3.org/2000/svg" viewBox="0 0 640 512">
  <path d="M 16 16 L 240 16 L 16 16 L 240 16 L 240 64 L 240 64 L 256 64 L 256 64 L 256 16 L 256 16 L 256 0 L 256 0 L 240 0 L 0 0 L 0 16 L 0 16 L 0 240 L 0 240 L 0 256 L 0 256 L 16 256 L 128 256 L 128 240 L 128 240 L 16 240 L 16 240 L 16 16 L 16 16 Z M 384 496 L 384 512 L 384 496 L 384 512 L 400 512 L 640 512 L 640 496 L 640 496 L 640 272 L 640 272 L 640 256 L 640 256 L 624 256 L 512 256 L 512 272 L 512 272 L 624 272 L 624 272 L 624 496 L 624 496 L 400 496 L 400 496 L 400 448 L 400 448 L 384 448 L 384 448 L 384 496 L 384 496 Z M 464 112 L 464 400 L 464 112 L 464 400 L 176 400 L 176 400 L 176 112 L 176 112 L 464 112 L 464 112 Z M 176 96 L 160 96 L 176 96 L 160 96 L 160 112 L 160 112 L 160 400 L 160 400 L 160 416 L 160 416 L 176 416 L 480 416 L 480 400 L 480 400 L 480 112 L 480 112 L 480 96 L 480 96 L 464 96 L 176 96 Z M 240 176 L 400 176 L 240 176 L 400 176 L 400 336 L 400 336 L 240 336 L 240 336 L 240 176 L 240 176 Z M 224 160 L 224 176 L 224 160 L 224 176 L 224 336 L 224 336 L 224 352 L 224 352 L 240 352 L 416 352 L 416 336 L 416 336 L 416 176 L 416 176 L 416 160 L 416 160 L 400 160 L 224 160 Z" />
</svg>