<svg xmlns="http://www.w3.org/2000/svg" viewBox="0 0 448 448">
  <path d="M 432 16 L 432 432 L 432 16 L 432 432 L 16 432 L 16 432 L 16 16 L 16 16 L 432 16 L 432 16 Z M 16 0 L 0 0 L 16 0 L 0 0 L 0 16 L 0 16 L 0 432 L 0 432 L 0 448 L 0 448 L 16 448 L 448 448 L 448 432 L 448 432 L 448 16 L 448 16 L 448 0 L 448 0 L 432 0 L 16 0 Z M 320 304 Q 335 305 336 320 Q 335 335 320 336 Q 305 335 304 320 Q 305 305 320 304 L 320 304 Z M 320 352 Q 334 352 343 343 L 343 343 L 343 343 Q 352 334 352 320 Q 352 306 343 297 Q 334 288 320 288 Q 306 288 297 297 Q 288 306 288 320 Q 288 334 297 343 Q 306 352 320 352 L 320 352 Z M 112 128 Q 113 113 128 112 Q 143 113 144 128 Q 143 143 128 144 Q 113 143 112 128 L 112 128 Z M 160 128 Q 160 114 151 105 L 151 105 L 151 105 Q 142 96 128 96 Q 114 96 105 105 Q 96 114 96 128 Q 96 142 105 151 Q 114 160 128 160 Q 142 160 151 151 Q 160 142 160 128 L 160 128 Z" />
</svg>