<svg xmlns="http://www.w3.org/2000/svg" viewBox="0 0 640 448">
  <path d="M 247 35 Q 232 16 209 16 Q 188 17 174 30 Q 161 44 160 65 L 160 112 L 160 112 L 240 112 L 308 112 L 247 35 L 247 35 Z M 144 112 L 144 65 L 144 112 L 144 65 Q 145 37 163 19 Q 181 1 209 0 Q 240 1 259 25 L 320 102 L 320 102 L 381 25 L 381 25 Q 400 1 431 0 Q 459 1 477 19 Q 495 37 496 65 L 496 112 L 496 112 L 624 112 L 640 112 L 640 128 L 640 128 L 640 256 L 640 256 L 576 384 L 576 384 L 400 351 L 400 351 L 400 431 L 400 431 L 400 448 L 400 448 L 384 442 L 384 442 L 320 416 L 320 416 L 256 442 L 256 442 L 240 448 L 240 448 L 240 431 L 240 431 L 240 351 L 240 351 L 64 384 L 64 384 L 0 256 L 0 256 L 0 128 L 0 128 L 0 112 L 0 112 L 16 112 L 144 112 Z M 240 335 L 240 128 L 240 335 L 240 128 L 160 128 L 16 128 L 16 252 L 16 252 L 73 366 L 73 366 L 240 335 L 240 335 Z M 400 335 L 567 366 L 400 335 L 567 366 L 624 252 L 624 252 L 624 128 L 624 128 L 496 128 L 400 128 L 400 335 L 400 335 Z M 400 112 L 480 112 L 400 112 L 480 112 L 480 65 L 480 65 Q 479 44 466 30 Q 452 17 431 16 Q 408 16 393 35 L 332 112 L 332 112 L 384 112 L 400 112 Z M 328 128 L 312 128 L 328 128 L 256 128 L 256 424 L 256 424 L 314 401 L 314 401 L 320 399 L 320 399 L 326 401 L 326 401 L 384 424 L 384 424 L 384 128 L 384 128 L 328 128 L 328 128 Z" />
</svg>