<svg xmlns="http://www.w3.org/2000/svg" viewBox="0 0 570 512">
  <path d="M 355 262 L 362 257 L 355 262 L 362 257 L 362 248 L 362 248 L 362 16 L 362 16 L 490 16 L 490 16 L 490 248 L 490 248 L 490 257 L 490 257 L 497 262 L 497 262 Q 523 279 538 307 Q 554 334 554 368 Q 553 422 517 459 Q 480 495 426 496 Q 372 495 335 459 Q 299 422 298 368 Q 298 334 314 307 Q 329 279 355 262 L 355 262 Z M 506 0 L 490 0 L 506 0 L 346 0 L 346 16 L 346 16 L 346 248 L 346 248 Q 317 268 300 299 Q 282 330 282 368 Q 284 429 324 470 Q 365 510 426 512 Q 487 510 528 470 Q 568 429 570 368 Q 570 330 552 299 Q 535 268 506 248 L 506 16 L 506 16 L 506 0 L 506 0 Z M 378 368 Q 379 341 402 326 Q 426 314 450 326 Q 473 341 474 368 Q 473 395 450 410 Q 426 422 402 410 Q 379 395 378 368 L 378 368 Z M 490 368 Q 489 343 474 325 L 474 325 L 474 325 Q 458 308 434 305 L 434 264 L 434 264 L 434 256 L 434 256 L 418 256 L 418 256 L 418 264 L 418 264 L 418 305 L 418 305 Q 394 308 378 325 Q 363 343 362 368 Q 363 395 381 413 Q 399 431 426 432 Q 453 431 471 413 Q 489 395 490 368 L 490 368 Z M 266 159 L 281 102 L 266 159 L 281 102 L 284 94 L 284 94 L 268 90 L 268 90 L 266 97 L 266 97 L 246 171 L 246 171 L 178 210 L 178 210 L 178 131 L 178 131 L 232 78 L 232 78 L 237 72 L 237 72 L 226 61 L 226 61 L 220 66 L 220 66 L 178 109 L 178 109 L 178 40 L 178 40 L 178 32 L 178 32 L 162 32 L 162 32 L 162 40 L 162 40 L 162 109 L 162 109 L 120 66 L 120 66 L 114 61 L 114 61 L 103 72 L 103 72 L 108 78 L 108 78 L 162 131 L 162 131 L 162 210 L 162 210 L 94 171 L 94 171 L 74 97 L 74 97 L 72 90 L 72 90 L 57 94 L 57 94 L 59 102 L 59 102 L 74 159 L 74 159 L 15 125 L 15 125 L 8 121 L 8 121 L 0 135 L 0 135 L 7 139 L 7 139 L 66 173 L 66 173 L 8 189 L 8 189 L 1 191 L 1 191 L 5 206 L 5 206 L 12 204 L 12 204 L 86 185 L 86 185 L 154 224 L 154 224 L 86 263 L 86 263 L 12 244 L 12 244 L 5 242 L 5 242 L 1 257 L 1 257 L 8 259 L 8 259 L 66 275 L 66 275 L 7 309 L 7 309 L 0 313 L 0 313 L 8 327 L 8 327 L 15 323 L 15 323 L 74 289 L 74 289 L 59 346 L 59 346 L 57 354 L 57 354 L 72 358 L 72 358 L 74 351 L 74 351 L 94 277 L 94 277 L 162 238 L 162 238 L 162 317 L 162 317 L 108 370 L 108 370 L 103 376 L 103 376 L 114 387 L 114 387 L 120 382 L 120 382 L 162 339 L 162 339 L 162 408 L 162 408 L 162 416 L 162 416 L 178 416 L 178 416 L 178 408 L 178 408 L 178 339 L 178 339 L 220 382 L 220 382 L 226 387 L 226 387 L 237 376 L 237 376 L 232 370 L 232 370 L 178 317 L 178 317 L 178 238 L 178 238 L 246 277 L 246 277 L 257 318 L 257 318 Q 261 305 267 293 L 266 289 L 266 289 L 268 290 L 268 290 Q 272 283 276 276 L 274 275 L 274 275 L 277 274 L 277 274 Q 284 263 293 253 L 254 264 L 254 264 L 186 224 L 186 224 L 254 185 L 254 185 L 314 201 L 314 201 L 314 184 L 314 184 L 274 173 L 274 173 L 314 150 L 314 150 L 314 132 L 314 132 L 266 159 L 266 159 Z" />
</svg>