<svg xmlns="http://www.w3.org/2000/svg" viewBox="0 0 512 448">
  <path d="M 496 176 L 16 176 L 496 176 L 16 176 L 16 16 L 16 16 L 496 16 L 496 16 L 496 176 L 496 176 Z M 512 192 L 512 176 L 512 192 L 512 176 L 512 16 L 512 16 L 512 0 L 512 0 L 496 0 L 0 0 L 0 16 L 0 16 L 0 176 L 0 176 L 0 192 L 0 192 L 16 192 L 512 192 Z M 512 440 L 512 264 L 512 440 L 512 264 L 512 256 L 512 256 L 504 256 L 0 256 L 0 264 L 0 264 L 0 440 L 0 440 L 0 448 L 0 448 L 8 448 L 512 448 L 512 440 L 512 440 Z M 16 432 L 16 272 L 16 432 L 16 272 L 496 272 L 496 272 L 496 432 L 496 432 L 16 432 L 16 432 Z" />
</svg>