<svg xmlns="http://www.w3.org/2000/svg" viewBox="0 0 512 512">
  <path d="M 256 16 Q 321 17 376 48 L 376 48 L 376 48 Q 431 80 464 136 Q 496 193 496 256 Q 496 319 464 376 Q 431 432 376 464 Q 321 495 256 496 Q 191 495 136 464 Q 81 432 48 376 Q 16 319 16 256 Q 16 193 48 136 Q 81 80 136 48 Q 191 17 256 16 L 256 16 Z M 256 512 Q 326 511 384 478 L 384 478 L 384 478 Q 442 444 478 384 Q 512 323 512 256 Q 512 189 478 128 Q 442 68 384 34 Q 326 1 256 0 Q 186 1 128 34 Q 70 68 34 128 Q 0 189 0 256 Q 0 323 34 384 Q 70 444 128 478 Q 186 511 256 512 L 256 512 Z M 118 144 L 184 394 L 118 144 L 184 394 L 186 400 L 186 400 L 198 400 L 198 400 L 200 394 L 200 394 L 256 204 L 256 204 L 312 394 L 312 394 L 314 400 L 314 400 L 326 400 L 326 400 L 328 394 L 328 394 L 394 144 L 394 144 L 378 144 L 378 144 L 320 363 L 320 363 L 264 174 L 264 174 L 260 160 L 260 160 L 252 160 L 252 160 L 248 174 L 248 174 L 192 363 L 192 363 L 134 144 L 134 144 L 118 144 L 118 144 Z" />
</svg>