<svg xmlns="http://www.w3.org/2000/svg" viewBox="0 0 640 512">
  <path d="M 16 5 L 10 0 L 16 5 L 10 0 L 0 13 L 0 13 L 6 18 L 6 18 L 624 507 L 624 507 L 630 512 L 630 512 L 640 500 L 640 500 L 634 495 L 634 495 L 16 5 L 16 5 Z M 480 240 L 483 240 L 480 240 L 483 240 L 486 238 L 486 238 L 515 208 L 515 208 L 600 208 L 608 208 L 608 200 L 608 200 L 608 72 L 608 72 L 608 64 L 608 64 L 600 64 L 544 64 L 544 40 L 544 40 L 544 32 L 544 32 L 528 32 L 528 32 L 528 40 L 528 40 L 528 64 L 528 64 L 193 64 L 193 64 L 213 80 L 213 80 L 528 80 L 592 80 L 592 192 L 592 192 L 512 192 L 509 192 L 506 194 L 506 194 L 477 224 L 477 224 L 396 224 L 396 224 L 416 240 L 416 240 L 480 240 L 480 240 Z M 48 224 L 48 133 L 48 224 L 48 133 L 32 120 L 32 120 L 32 232 L 32 232 L 32 240 L 32 240 L 40 240 L 124 240 L 68 464 L 68 464 L 64 480 L 64 480 L 81 480 L 240 480 L 281 317 L 281 317 L 267 306 L 267 306 L 228 464 L 228 464 L 85 464 L 85 464 L 141 240 L 141 240 L 184 240 L 184 240 L 163 224 L 163 224 L 48 224 L 48 224 Z M 536 144 L 544 144 L 536 144 L 544 144 L 544 128 L 544 128 L 536 128 L 274 128 L 294 144 L 294 144 L 536 144 L 536 144 Z" />
</svg>