<svg xmlns="http://www.w3.org/2000/svg" viewBox="0 0 640 512">
  <path d="M 512 375 L 621 459 L 512 375 L 621 459 L 640 474 L 640 474 L 611 512 L 611 512 L 592 497 L 592 497 L 19 53 L 19 53 L 0 38 L 0 38 L 29 0 L 29 0 L 48 15 L 48 15 L 96 52 L 96 52 L 96 32 L 96 32 L 224 32 L 224 32 L 240 0 L 240 0 L 400 0 L 400 0 L 416 32 L 416 32 L 544 32 L 544 32 L 544 96 L 544 96 L 153 96 L 153 96 L 194 128 L 194 128 L 512 128 L 512 128 L 512 375 L 512 375 Z M 304 213 L 336 238 L 304 213 L 336 238 L 336 208 L 336 208 L 336 192 L 336 192 L 304 192 L 304 192 L 304 208 L 304 208 L 304 213 L 304 213 Z M 400 288 L 432 313 L 400 288 L 432 313 L 432 208 L 432 208 L 432 192 L 432 192 L 400 192 L 400 192 L 400 208 L 400 208 L 400 288 L 400 288 Z M 512 499 L 512 512 L 512 499 L 512 512 L 128 512 L 128 512 L 128 197 L 128 197 L 208 260 L 208 260 L 208 432 L 208 432 L 208 448 L 208 448 L 240 448 L 240 448 L 240 432 L 240 432 L 240 285 L 240 285 L 304 336 L 304 336 L 304 432 L 304 432 L 304 448 L 304 448 L 336 448 L 336 448 L 336 432 L 336 432 L 336 361 L 336 361 L 400 411 L 400 411 L 400 432 L 400 432 L 400 448 L 400 448 L 432 448 L 432 448 L 432 436 L 432 436 L 512 499 L 512 499 Z" />
</svg>