<svg xmlns="http://www.w3.org/2000/svg" viewBox="0 0 300 512">
  <path d="M 20 194 L 37 16 L 20 194 L 37 16 L 263 16 L 263 16 L 280 194 L 280 194 Q 283 253 246 294 Q 209 334 150 336 Q 91 334 54 294 Q 17 253 20 194 L 20 194 Z M 158 352 Q 221 347 260 302 L 260 302 L 260 302 Q 300 257 296 193 L 278 0 L 278 0 L 22 0 L 22 0 L 5 193 L 5 193 Q 0 257 40 302 Q 79 347 142 352 L 142 496 L 142 496 L 62 496 L 54 496 L 54 512 L 54 512 L 62 512 L 246 512 L 246 496 L 246 496 L 238 496 L 158 496 L 158 352 L 158 352 Z" />
</svg>