<svg xmlns="http://www.w3.org/2000/svg" viewBox="0 0 448 448">
  <path d="M 432 16 L 432 432 L 432 16 L 432 432 L 16 432 L 16 432 L 16 16 L 16 16 L 432 16 L 432 16 Z M 16 0 L 0 0 L 16 0 L 0 0 L 0 16 L 0 16 L 0 432 L 0 432 L 0 448 L 0 448 L 16 448 L 448 448 L 448 432 L 448 432 L 448 16 L 448 16 L 448 0 L 448 0 L 432 0 L 16 0 Z M 160 120 L 160 136 L 160 120 L 160 136 L 168 136 L 368 136 L 368 120 L 368 120 L 360 120 L 160 120 Z M 160 216 L 160 232 L 160 216 L 160 232 L 168 232 L 368 232 L 368 216 L 368 216 L 360 216 L 160 216 Z M 160 312 L 160 328 L 160 312 L 160 328 L 168 328 L 368 328 L 368 312 L 368 312 L 360 312 L 160 312 Z M 96 112 Q 81 113 80 128 Q 81 143 96 144 Q 111 143 112 128 Q 111 113 96 112 L 96 112 Z M 112 224 Q 111 209 96 208 Q 81 209 80 224 Q 81 239 96 240 Q 111 239 112 224 L 112 224 Z M 96 304 Q 81 305 80 320 Q 81 335 96 336 Q 111 335 112 320 Q 111 305 96 304 L 96 304 Z" />
</svg>