<svg xmlns="http://www.w3.org/2000/svg" viewBox="0 0 448 448">
  <path d="M 340 344 L 432 344 L 340 344 L 432 344 L 432 432 L 432 432 L 16 432 L 16 432 L 16 344 L 16 344 L 108 344 L 340 344 Z M 334 328 L 304 256 L 334 328 L 304 256 L 144 256 L 144 256 L 115 328 L 115 328 L 16 328 L 16 328 L 16 16 L 16 16 L 432 16 L 432 16 L 432 328 L 432 328 L 334 328 L 334 328 Z M 132 328 L 155 272 L 132 328 L 155 272 L 293 272 L 293 272 L 316 328 L 316 328 L 132 328 L 132 328 Z M 448 336 L 448 328 L 448 336 L 448 328 L 448 16 L 448 16 L 448 0 L 448 0 L 432 0 L 0 0 L 0 16 L 0 16 L 0 328 L 0 328 L 0 336 L 0 336 L 0 344 L 0 344 L 0 432 L 0 432 L 0 448 L 0 448 L 16 448 L 448 448 L 448 432 L 448 432 L 448 344 L 448 344 L 448 336 L 448 336 Z M 176 160 Q 177 133 200 118 Q 224 106 248 118 Q 271 133 272 160 Q 271 187 248 202 Q 224 214 200 202 Q 177 187 176 160 L 176 160 Z M 224 224 Q 260 223 279 192 Q 297 160 279 128 Q 260 97 224 96 Q 188 97 169 128 Q 151 160 169 192 Q 188 223 224 224 L 224 224 Z" />
</svg>