<svg xmlns="http://www.w3.org/2000/svg" viewBox="0 0 458 458">
  <path d="M 453 53 L 429 125 L 453 53 L 429 125 Q 458 190 441 256 Q 423 322 373 373 Q 322 423 256 440 Q 190 458 125 429 L 53 453 L 53 453 L 5 405 L 5 405 L 29 333 L 29 333 Q 0 268 17 202 Q 35 136 85 85 Q 136 35 202 17 Q 268 0 333 29 L 405 5 L 405 5 L 453 53 L 453 53 Z M 120 414 L 126 412 L 120 414 L 126 412 L 132 415 L 132 415 Q 190 441 252 425 Q 313 409 361 362 Q 409 313 425 252 Q 441 191 414 132 L 412 127 L 412 127 L 414 120 L 414 120 L 435 57 L 435 57 L 401 23 L 401 23 L 338 44 L 338 44 L 332 46 L 332 46 L 326 44 L 326 44 Q 267 17 206 33 Q 145 49 97 97 Q 49 145 33 206 Q 17 268 44 326 L 46 332 L 46 332 L 44 338 L 44 338 L 23 401 L 23 401 L 57 435 L 57 435 L 120 414 L 120 414 Z M 224 92 L 207 100 L 224 92 L 207 100 Q 132 132 100 207 L 92 224 L 92 224 L 89 232 L 89 232 L 75 225 L 75 225 L 78 218 L 78 218 L 85 201 L 85 201 Q 120 120 201 85 L 218 78 L 218 78 L 225 75 L 225 75 L 231 89 L 231 89 L 224 92 L 224 92 Z" />
</svg>