<svg xmlns="http://www.w3.org/2000/svg" viewBox="0 0 448 448">
  <path d="M 160 31 L 119 99 L 160 31 L 119 99 Q 112 111 112 125 L 112 128 L 112 128 Q 113 148 126 162 Q 140 175 160 176 Q 180 175 194 162 Q 207 148 208 128 L 208 125 L 208 125 Q 208 111 201 99 L 160 31 L 160 31 Z M 151 16 L 160 0 L 151 16 L 160 0 L 169 16 L 169 16 L 214 91 L 214 91 Q 224 107 224 125 L 224 128 L 224 128 Q 223 155 205 173 Q 187 191 160 192 Q 133 191 115 173 Q 97 155 96 128 L 96 125 L 96 125 Q 96 107 105 91 L 151 16 L 151 16 Z M 64 223 L 23 291 L 64 223 L 23 291 Q 16 303 16 317 L 16 320 L 16 320 Q 17 340 30 354 Q 44 367 64 368 Q 84 367 98 354 Q 111 340 112 320 L 112 317 L 112 317 Q 112 303 105 291 L 64 223 L 64 223 Z M 55 208 L 64 192 L 55 208 L 64 192 L 73 208 L 73 208 L 118 283 L 118 283 Q 128 299 128 317 L 128 320 L 128 320 Q 127 347 109 365 Q 91 383 64 384 Q 37 383 19 365 Q 1 347 0 320 L 0 317 L 0 317 Q 0 299 9 283 L 55 208 L 55 208 Z M 227 261 Q 208 289 208 322 Q 209 369 240 400 Q 271 431 318 432 L 322 432 L 322 432 Q 369 431 400 400 Q 431 369 432 322 Q 432 288 413 261 L 320 124 L 320 124 L 227 261 L 227 261 Z M 214 252 L 310 110 L 214 252 L 310 110 L 320 96 L 320 96 L 330 110 L 330 110 L 426 252 L 426 252 Q 448 284 448 322 Q 447 376 411 411 Q 376 447 322 448 L 318 448 L 318 448 Q 264 447 229 411 Q 193 376 192 322 Q 192 284 214 252 L 214 252 Z" />
</svg>