<svg xmlns="http://www.w3.org/2000/svg" viewBox="0 0 448 512">
  <path d="M 232 0 L 217 0 L 232 0 L 217 0 L 225 12 L 225 12 L 236 29 L 236 29 Q 240 34 240 41 Q 238 62 217 64 L 144 64 L 144 64 Q 117 65 99 83 Q 81 101 80 128 Q 80 141 85 152 L 77 152 L 77 152 Q 44 153 23 175 Q 1 196 0 229 L 0 296 L 0 296 L 0 304 L 0 304 L 8 304 L 448 304 L 448 296 L 448 296 L 448 229 L 448 229 Q 447 196 426 175 Q 404 153 371 152 L 360 152 L 360 152 L 360 152 L 360 152 Q 368 137 368 118 Q 367 68 333 35 Q 300 1 250 0 L 232 0 L 232 0 Z M 341 152 L 264 152 L 341 152 L 256 152 L 256 168 L 256 168 L 264 168 L 371 168 Q 397 169 414 186 Q 431 203 432 229 L 432 288 L 432 288 L 16 288 L 16 288 L 16 229 L 16 229 Q 17 203 34 186 Q 51 169 77 168 L 88 168 L 144 168 L 144 152 L 144 152 L 136 152 L 102 152 Q 96 141 96 128 Q 96 108 110 94 Q 124 81 144 80 L 217 80 L 217 80 Q 234 80 245 69 Q 256 58 256 41 Q 256 30 250 20 L 247 16 L 247 16 L 250 16 L 250 16 Q 293 17 322 46 Q 351 75 352 118 Q 352 137 341 152 L 341 152 Z M 32 336 L 32 328 L 32 336 L 32 328 L 16 328 L 16 328 L 16 336 L 16 336 L 16 352 L 16 352 Q 17 393 44 420 Q 71 447 112 448 L 155 448 L 155 448 L 129 500 L 129 500 L 123 512 L 123 512 L 136 512 L 325 512 L 319 500 L 319 500 L 293 448 L 293 448 L 336 448 L 336 448 Q 377 447 404 420 Q 431 393 432 352 L 432 336 L 432 336 L 432 328 L 432 328 L 416 328 L 416 328 L 416 336 L 416 336 L 416 352 L 416 352 Q 415 386 393 409 Q 370 431 336 432 L 280 432 L 267 432 L 273 444 L 273 444 L 299 496 L 299 496 L 149 496 L 149 496 L 175 444 L 175 444 L 181 432 L 181 432 L 168 432 L 112 432 Q 78 431 55 409 Q 33 386 32 352 L 32 336 L 32 336 Z" />
</svg>