<svg xmlns="http://www.w3.org/2000/svg" viewBox="0 0 640 448">
  <path d="M 80 0 Q 46 1 23 23 L 23 23 L 23 23 Q 1 46 0 80 L 0 368 L 0 368 Q 1 402 23 425 Q 46 447 80 448 Q 114 447 137 425 Q 159 402 160 368 L 144 368 L 144 368 Q 143 395 125 413 Q 107 431 80 432 Q 53 431 35 413 Q 17 395 16 368 L 16 80 L 16 80 Q 17 53 35 35 Q 53 17 80 16 Q 107 17 125 35 Q 143 53 144 80 L 160 80 L 160 80 Q 159 46 137 23 Q 114 1 80 0 L 80 0 Z M 224 8 L 224 0 L 224 8 L 224 0 L 208 0 L 208 0 L 208 8 L 208 8 L 208 208 L 208 208 L 208 224 L 208 224 L 208 440 L 208 440 L 208 448 L 208 448 L 224 448 L 224 448 L 224 440 L 224 440 L 224 224 L 224 224 L 384 224 L 384 224 L 384 440 L 384 440 L 384 448 L 384 448 L 400 448 L 400 448 L 400 440 L 400 440 L 400 224 L 400 224 L 400 208 L 400 208 L 400 8 L 400 8 L 400 0 L 400 0 L 384 0 L 384 0 L 384 8 L 384 8 L 384 208 L 384 208 L 224 208 L 224 208 L 224 8 L 224 8 Z M 456 0 L 448 0 L 456 0 L 448 0 L 448 8 L 448 8 L 448 440 L 448 440 L 448 448 L 448 448 L 464 448 L 464 448 L 464 440 L 464 440 L 464 224 L 464 224 L 600 224 L 608 224 L 608 208 L 608 208 L 600 208 L 464 208 L 464 16 L 464 16 L 632 16 L 640 16 L 640 0 L 640 0 L 632 0 L 456 0 Z" />
</svg>