<svg xmlns="http://www.w3.org/2000/svg" viewBox="0 0 576 512">
  <path d="M 288 0 L 64 0 L 288 0 L 64 0 L 64 256 L 64 256 L 48 256 L 0 256 L 0 304 L 0 304 L 0 415 L 0 415 Q 20 414 41 405 Q 44 403 48 401 Q 48 401 48 401 L 48 304 L 48 304 L 528 304 L 528 304 L 528 401 L 528 401 Q 532 403 535 405 Q 556 414 576 415 L 576 304 L 576 304 L 576 256 L 576 256 L 528 256 L 472 256 L 472 98 L 472 98 L 511 137 L 511 137 L 528 154 L 528 154 L 562 120 L 562 120 L 545 103 L 545 103 L 465 23 L 465 23 L 448 6 L 448 6 L 431 23 L 431 23 L 351 103 L 351 103 L 334 120 L 334 120 L 368 154 L 368 154 L 385 137 L 385 137 L 424 98 L 424 98 L 424 256 L 424 256 L 288 256 L 288 256 L 288 0 L 288 0 Z M 79 489 Q 89 483 96 478 Q 103 483 113 489 Q 127 498 148 505 Q 168 512 192 512 Q 216 512 236 505 Q 256 497 271 489 Q 281 483 288 478 Q 295 483 305 489 Q 319 498 340 505 Q 360 512 384 512 Q 408 512 428 505 Q 448 497 463 489 Q 473 483 480 478 Q 487 483 497 489 Q 512 498 532 505 Q 552 512 576 512 L 576 464 L 576 464 Q 545 462 521 447 Q 499 434 481 417 Q 481 417 481 416 L 480 416 L 479 416 Q 479 417 479 417 Q 461 434 439 447 Q 414 462 384 464 Q 353 462 329 447 Q 307 434 289 417 Q 289 417 289 416 L 288 416 L 287 416 Q 287 417 287 417 Q 269 434 247 447 Q 222 462 192 464 Q 161 462 137 447 Q 115 434 97 417 Q 97 417 96 416 L 96 416 L 96 416 L 95 416 L 95 416 Q 95 416 95 417 Q 77 434 55 447 Q 31 462 0 464 L 0 512 L 0 512 Q 24 512 44 505 Q 64 497 79 489 L 79 489 Z" />
</svg>