<svg xmlns="http://www.w3.org/2000/svg" viewBox="0 0 523 518">
  <path d="M 348 88 L 354 93 L 348 88 L 354 93 L 498 205 L 498 205 L 510 215 L 510 215 L 523 224 L 523 224 L 513 237 L 513 237 L 493 262 L 493 262 L 484 275 L 484 275 L 471 265 L 471 265 L 458 255 L 458 255 L 386 199 L 386 199 L 331 224 L 331 224 L 315 231 L 315 231 L 328 242 L 328 242 L 371 277 L 371 277 L 386 290 L 386 290 L 381 309 L 381 309 L 357 413 L 357 413 L 354 429 L 354 429 L 350 444 L 350 444 L 334 441 L 334 441 L 303 434 L 303 434 L 288 430 L 288 430 L 291 414 L 291 414 L 295 399 L 295 399 L 314 314 L 314 314 L 270 277 L 270 277 L 254 264 L 254 264 L 254 285 L 254 285 L 254 294 L 254 294 L 254 317 L 254 317 L 232 324 L 232 324 L 136 356 L 136 356 L 121 362 L 121 362 L 106 367 L 106 367 L 101 351 L 101 351 L 91 321 L 91 321 L 86 306 L 86 306 L 101 301 L 101 301 L 116 295 L 116 295 L 190 271 L 190 271 L 190 218 L 190 218 Q 191 179 225 161 L 247 150 L 247 150 L 271 138 L 271 138 L 248 133 L 248 133 L 245 133 L 245 133 L 232 130 L 232 130 L 225 116 L 225 116 L 193 51 L 193 51 L 185 36 L 185 36 L 200 29 L 200 29 L 228 15 L 228 15 L 243 8 L 243 8 L 250 22 L 250 22 L 276 74 L 276 74 L 340 87 L 340 87 L 348 88 L 348 88 Z M 488 217 L 344 105 L 488 217 L 344 105 L 341 103 L 341 103 L 337 102 L 337 102 L 273 89 L 273 89 L 265 88 L 265 88 L 261 81 L 261 81 L 236 29 L 236 29 L 207 44 L 207 44 L 240 109 L 240 109 L 243 116 L 243 116 L 251 118 L 251 118 L 274 122 L 274 122 L 319 131 L 319 131 L 278 152 L 278 152 L 232 175 L 232 175 Q 207 189 206 218 L 206 271 L 206 271 L 206 283 L 206 283 L 195 286 L 195 286 L 121 311 L 121 311 L 106 316 L 106 316 L 116 346 L 116 346 L 131 341 L 131 341 L 227 309 L 227 309 L 238 306 L 238 306 L 238 294 L 238 294 L 238 264 L 238 264 L 238 230 L 238 230 L 264 252 L 264 252 L 325 302 L 325 302 L 332 308 L 332 308 L 330 318 L 330 318 L 310 403 L 310 403 L 307 418 L 307 418 L 338 425 L 338 425 L 342 410 L 342 410 L 366 306 L 366 306 L 368 296 L 368 296 L 360 290 L 360 290 L 304 243 L 304 243 L 285 227 L 285 227 L 308 216 L 308 216 L 380 185 L 380 185 L 388 181 L 388 181 L 396 187 L 396 187 L 468 243 L 468 243 L 481 252 L 481 252 L 500 227 L 500 227 L 488 217 L 488 217 Z M 462 54 Q 462 40 453 31 L 453 31 L 453 31 Q 444 22 430 22 Q 416 22 407 31 Q 398 40 398 54 Q 398 68 407 77 Q 416 86 430 86 Q 444 86 453 77 Q 462 68 462 54 L 462 54 Z M 382 54 Q 383 27 406 12 Q 430 0 454 12 Q 477 27 478 54 Q 477 81 454 96 Q 430 108 406 96 Q 383 81 382 54 L 382 54 Z M 18 299 L 44 352 L 18 299 L 44 352 L 424 502 L 424 502 L 486 502 L 494 502 L 494 518 L 494 518 L 486 518 L 422 518 Q 420 518 419 517 L 35 365 L 35 365 Q 32 364 31 362 L 4 306 L 4 306 L 0 298 L 0 298 L 15 291 L 15 291 L 18 299 L 18 299 Z" />
</svg>