<svg xmlns="http://www.w3.org/2000/svg" viewBox="0 0 512 512">
  <path d="M 426.4 281.6 L 435.2 281.6 L 435.2 281.6 L 460.8 281.6 L 460.8 256 L 460.8 256 L 460.8 256 L 460.8 230.4 L 435.2 230.4 L 435.2 230.4 L 426.4 230.4 Q 395.2 228 384.8 202.4 Q 374.4 177.6 394.4 153.6 L 400.8 147.2 L 400.8 147.2 L 419.2 129.6 L 400.8 111.2 L 400.8 111.2 L 400.8 111.2 L 382.4 92.8 L 364.8 111.2 L 364.8 111.2 L 358.4 117.6 L 358.4 117.6 Q 334.4 137.6 309.6 127.2 Q 284 116.8 281.6 86.4 L 281.6 76.8 L 281.6 76.8 L 281.6 51.2 L 256 51.2 L 256 51.2 L 256 51.2 L 230.4 51.2 L 230.4 76.8 L 230.4 76.8 L 230.4 86.4 Q 229.6 108 214.4 120 Q 199.2 132.8 180 130.4 L 208 152.8 Q 228 145.6 241.6 128.8 Q 255.2 111.2 256 86.4 L 256 76.8 L 256 76.8 L 256 76.8 L 256 76.8 L 256 76.8 L 256 86.4 Q 257.6 117.6 277.6 136.8 Q 297.6 155.2 325.6 156 Q 352.8 157.6 376 136 L 376 136 L 376 136 L 382.4 128.8 L 382.4 128.8 L 383.2 128.8 L 383.2 129.6 L 383.2 129.6 L 376 136 Q 354.4 159.2 355.2 186.4 Q 356.8 214.4 375.2 234.4 Q 394.4 254.4 425.6 256 L 435.2 256 L 435.2 256 L 435.2 256 L 435.2 256 L 435.2 256 L 426.4 256 Q 390.4 257.6 372 281.6 L 391.2 297.6 Q 404 282.4 426.4 281.6 L 426.4 281.6 Z M 120.8 214.4 Q 108 229.6 86.4 230.4 L 76.8 230.4 L 76.8 230.4 L 51.2 230.4 L 51.2 256 L 51.2 256 L 51.2 256 L 51.2 281.6 L 76.8 281.6 L 76.8 281.6 L 86.4 281.6 Q 116.8 284 127.2 309.6 Q 137.6 334.4 117.6 358.4 L 111.2 364.8 L 111.2 364.8 L 92.8 382.4 L 111.2 400.8 L 111.2 400.8 L 111.2 400.8 L 111.2 400.8 L 129.6 419.2 L 147.2 400.8 L 147.2 400.8 L 153.6 394.4 L 153.6 394.4 Q 177.6 373.6 202.4 384.8 Q 228 395.2 230.4 425.6 L 230.4 435.2 L 230.4 435.2 L 230.4 460.8 L 256 460.8 L 256 460.8 L 256 460.8 L 281.6 460.8 L 281.6 435.2 L 281.6 435.2 L 281.6 426.4 Q 282.4 404 297.6 392 Q 312.8 379.2 332 381.6 L 304 359.2 Q 284 366.4 270.4 384 Q 256.8 400.8 256 426.4 L 256 435.2 L 256 435.2 L 256 435.2 L 256 435.2 L 256 435.2 L 256 426.4 Q 254.4 394.4 234.4 375.2 Q 214.4 356.8 186.4 356 Q 159.2 354.4 136 376.8 L 136 376.8 L 136 376.8 L 136 376.8 L 129.6 383.2 L 129.6 383.2 L 129.6 383.2 L 129.6 383.2 L 129.6 383.2 L 129.6 383.2 L 128.8 382.4 L 129.6 382.4 L 136 376 Q 157.6 352.8 156.8 325.6 Q 155.2 297.6 136.8 277.6 Q 117.6 256.8 86.4 256 L 76.8 256 L 76.8 256 L 76.8 256 L 76.8 256 L 76.8 256 L 86.4 256 Q 121.6 254.4 140.8 230.4 L 120.8 214.4 L 120.8 214.4 Z M 25.6 59.2 L 16 51.2 L 0 71.2 L 10.4 79.2 L 486.4 452.8 L 496 460.8 L 512 440.8 L 502.4 432.8 L 25.6 59.2 L 25.6 59.2 Z" />
</svg>