<svg xmlns="http://www.w3.org/2000/svg" viewBox="0 0 512 512">
  <path d="M 308 169.2 L 312.8 178.8 L 312.8 178.8 L 308 169.2 L 308 169.2 L 308 169.2 Z M 283.2 115.6 Q 287.2 109.2 292.8 103.6 Q 305.6 117.2 309.6 134.8 Q 313.6 151.6 308 169.2 L 283.2 115.6 L 283.2 115.6 Z M 283.2 115.6 L 265.6 76.4 Q 244.8 97.2 240.8 124.4 L 228.8 113.2 L 201.6 140.4 L 220 179.6 L 220 179.6 L 201.6 140.4 Q 186.4 155.6 180 174.8 L 38.4 65.2 L 23.2 53.2 L 0 83.6 L 15.2 95.6 L 473.6 450.8 L 488.8 462.8 L 512 432.4 L 496.8 420.4 L 366.4 319.6 L 373.6 312.4 L 400.8 285.2 L 393.6 278 Q 412.8 272.4 428 258 L 436.8 248.4 L 464 221.2 L 436.8 194.8 L 436.8 194.8 Q 423.2 180.4 405.6 173.2 Q 430.4 167.6 444.8 148.4 Q 460 130 460.8 104.4 L 460.8 91.6 L 460.8 53.2 L 422.4 53.2 L 409.6 53.2 Q 384 54 365.6 69.2 Q 346.4 83.6 340.8 108.4 Q 333.6 90.8 319.2 76.4 L 319.2 76.4 L 292.8 49.2 L 265.6 76.4 L 283.2 115.6 L 283.2 115.6 L 283.2 115.6 Z M 336 295.6 L 297.6 266 Q 325.6 264.4 346.4 285.2 L 337.6 294 Q 336.8 294.8 336 295.6 Q 336 295.6 336 295.6 L 336 295.6 Z M 246.4 226 L 239.2 221.2 L 220 179.6 Q 224 172.4 228.8 167.6 Q 252.8 193.2 246.4 226 L 246.4 226 Z M 239.2 221.2 L 214.4 201.2 Q 214.4 190 220 179.6 L 239.2 221.2 L 239.2 221.2 Z M 283.2 116.4 L 308 169.2 Q 305.6 177.2 300.8 184.4 L 292.8 176.4 Q 280 163.6 277.6 147.6 Q 276 130.8 283.2 115.6 L 283.2 116.4 Z M 138.4 330 L 148 338.8 L 148 338.8 L 65.6 421.2 L 52 434.8 L 79.2 462 L 92.8 448.4 L 175.2 366 L 184 375.6 Q 211.2 401.2 247.2 401.2 Q 283.2 401.2 310.4 375.6 L 271.2 357.2 Q 256 365.2 240 362.8 Q 224 360.4 211.2 348.4 L 203.2 339.6 Q 210.4 334.8 218.4 332.4 L 212 329.2 L 212 329.2 L 218.4 332.4 Q 237.6 326.8 256.8 332.4 L 184.8 274.8 Q 184.8 285.2 181.6 295.6 L 184.8 302 L 184.8 302 L 181.6 295.6 Q 178.4 303.6 173.6 310.8 L 165.6 302.8 Q 144.8 279.6 153.6 250.8 L 122.4 226 Q 108.8 251.6 113.6 280.4 Q 117.6 308.4 138.4 330 L 138.4 330 Z M 271.2 357.2 L 218.4 332.4 L 218.4 332.4 L 271.2 357.2 L 271.2 357.2 L 271.2 357.2 Z M 271.2 357.2 L 310.4 375.6 L 311.2 374.8 L 280.8 350.8 Q 276 354.8 271.2 357.2 L 271.2 357.2 Z M 181.6 295.6 L 181.6 295.6 L 164.8 259.6 L 164.8 259.6 L 181.6 295.6 L 181.6 295.6 Z M 410.4 221.2 L 400.8 230.8 Q 388.8 242 373.6 242 Q 358.4 242 346.4 230.8 L 329.6 213.2 Q 348.8 201.2 370.4 202.8 Q 392.8 205.2 409.6 221.2 L 410.4 221.2 Z M 409.6 91.6 L 422.4 91.6 L 422.4 104.4 Q 422.4 118 412.8 126.8 Q 404 136.4 390.4 136.4 L 377.6 136.4 L 377.6 123.6 Q 377.6 110 387.2 101.2 Q 396 91.6 409.6 91.6 L 409.6 91.6 Z" />
</svg>