<svg xmlns="http://www.w3.org/2000/svg" viewBox="0 0 384 512">
  <path d="M 257 80 L 270 80 L 257 80 L 304 80 L 304 144 L 304 144 L 192 144 L 80 144 L 80 80 L 80 80 L 114 80 L 127 80 L 129 67 L 129 67 Q 134 45 151 31 Q 168 16 192 16 Q 216 16 233 31 Q 250 45 255 67 L 257 80 L 257 80 Z M 114 64 L 80 64 L 114 64 L 64 64 L 64 80 L 64 80 L 64 96 L 64 96 L 8 96 L 0 96 L 0 104 L 0 104 L 0 504 L 0 504 L 0 512 L 0 512 L 8 512 L 384 512 L 384 504 L 384 504 L 384 104 L 384 104 L 384 96 L 384 96 L 376 96 L 320 96 L 320 80 L 320 80 L 320 64 L 320 64 L 304 64 L 270 64 Q 264 36 243 18 Q 222 1 192 0 Q 162 1 141 18 Q 120 36 114 64 L 114 64 Z M 16 112 L 64 112 L 16 112 L 64 112 L 64 144 L 64 144 L 64 160 L 64 160 L 80 160 L 320 160 L 320 144 L 320 144 L 320 112 L 320 112 L 368 112 L 368 112 L 368 496 L 368 496 L 16 496 L 16 496 L 16 112 L 16 112 Z M 192 96 Q 207 95 208 80 Q 207 65 192 64 Q 177 65 176 80 Q 177 95 192 96 L 192 96 Z M 160 216 L 160 232 L 160 216 L 160 232 L 168 232 L 320 232 L 320 216 L 320 216 L 312 216 L 160 216 Z M 160 312 L 160 328 L 160 312 L 160 328 L 168 328 L 320 328 L 320 312 L 320 312 L 312 312 L 160 312 Z M 160 408 L 160 424 L 160 408 L 160 424 L 168 424 L 320 424 L 320 408 L 320 408 L 312 408 L 160 408 Z M 96 432 Q 111 431 112 416 Q 111 401 96 400 Q 81 401 80 416 Q 81 431 96 432 L 96 432 Z M 112 320 Q 111 305 96 304 Q 81 305 80 320 Q 81 335 96 336 Q 111 335 112 320 L 112 320 Z M 96 240 Q 111 239 112 224 Q 111 209 96 208 Q 81 209 80 224 Q 81 239 96 240 L 96 240 Z" />
</svg>