<svg xmlns="http://www.w3.org/2000/svg" viewBox="0 0 384 512">
  <path d="M 0 320 Q 0 288 11 258 Q 64 112 181 10 L 192 0 L 192 0 L 203 10 L 203 10 Q 320 112 373 258 Q 384 288 384 320 Q 382 401 327 456 Q 273 510 192 512 Q 111 510 57 456 Q 2 401 0 320 L 0 320 Z M 191 22 Q 78 122 26 264 Q 16 291 16 320 Q 18 394 68 444 Q 118 494 192 496 Q 266 494 316 444 Q 366 394 368 320 Q 368 291 358 264 Q 306 122 193 22 L 192 21 L 192 21 L 191 22 L 191 22 Z M 203 164 L 221 180 L 203 164 L 221 180 Q 269 222 295 281 L 296 284 L 296 284 Q 304 301 304 320 Q 303 367 271 399 Q 240 431 192 432 Q 144 431 113 399 Q 81 367 80 320 Q 80 301 88 284 L 89 281 L 89 281 Q 115 222 163 180 L 181 164 L 181 164 L 192 155 L 192 155 L 202 164 L 203 164 Z M 174 192 Q 128 232 103 288 L 102 290 L 102 290 Q 96 304 96 319 Q 97 360 124 388 Q 151 415 192 416 Q 233 415 260 388 Q 287 360 288 319 Q 288 304 282 290 L 281 288 L 281 288 Q 256 232 210 192 L 192 176 L 192 176 L 174 192 L 174 192 Z" />
</svg>