<svg xmlns="http://www.w3.org/2000/svg" viewBox="0 0 576 384">
  <path d="M 16 16 L 560 16 L 16 16 L 560 16 L 560 208 L 560 208 L 408 208 L 400 208 L 400 216 L 400 216 L 400 368 L 400 368 L 16 368 L 16 368 L 16 16 L 16 16 Z M 553 224 L 416 361 L 553 224 L 416 361 L 416 224 L 416 224 L 553 224 L 553 224 Z M 576 224 L 576 16 L 576 224 L 576 16 L 576 0 L 576 0 L 560 0 L 0 0 L 0 16 L 0 16 L 0 368 L 0 368 L 0 384 L 0 384 L 16 384 L 416 384 L 576 224 L 576 224 Z M 104 88 Q 103 103 88 104 Q 73 103 72 88 Q 73 73 88 72 Q 103 73 104 88 L 104 88 Z M 88 56 Q 74 56 65 65 L 65 65 L 65 65 Q 56 74 56 88 Q 56 102 65 111 Q 74 120 88 120 Q 102 120 111 111 Q 120 102 120 88 Q 120 74 111 65 Q 102 56 88 56 L 88 56 Z" />
</svg>