<svg xmlns="http://www.w3.org/2000/svg" viewBox="0 0 512 507">
  <path d="M 262 5 L 256 0 L 262 5 L 256 0 L 250 5 L 250 5 L 138 117 L 138 117 L 133 123 L 133 123 L 144 134 L 144 134 L 150 129 L 150 129 L 248 30 L 248 30 L 248 323 L 248 323 L 248 331 L 248 331 L 264 331 L 264 331 L 264 323 L 264 323 L 264 30 L 264 30 L 362 129 L 362 129 L 368 134 L 368 134 L 379 123 L 379 123 L 374 117 L 374 117 L 262 5 L 262 5 Z M 8 27 L 0 27 L 8 27 L 0 27 L 0 35 L 0 35 L 0 499 L 0 499 L 0 507 L 0 507 L 8 507 L 512 507 L 512 499 L 512 499 L 512 35 L 512 35 L 512 27 L 512 27 L 504 27 L 400 27 L 400 43 L 400 43 L 408 43 L 496 43 L 496 491 L 496 491 L 16 491 L 16 491 L 16 43 L 16 43 L 104 43 L 112 43 L 112 27 L 112 27 L 104 27 L 8 27 Z" />
</svg>