<svg xmlns="http://www.w3.org/2000/svg" viewBox="0 0 641 512">
  <path d="M 8 0 L 0 0 L 8 0 L 0 0 L 0 8 L 0 8 L 0 272 L 0 272 L 0 280 L 0 280 L 0 288 L 0 288 L 0 440 L 0 440 L 0 448 L 0 448 L 8 448 L 314 448 Q 309 440 306 432 L 16 432 L 16 432 L 16 288 L 16 288 L 300 288 L 300 288 Q 302 280 306 272 L 16 272 L 16 272 L 16 16 L 16 16 L 432 16 L 432 16 L 432 132 L 432 132 L 448 122 L 448 122 L 448 8 L 448 8 L 448 0 L 448 0 L 440 0 L 8 0 Z M 288 352 L 88 352 L 288 352 L 80 352 L 80 368 L 80 368 L 88 368 L 289 368 Q 288 360 288 352 L 288 352 Z M 501 213 L 448 160 L 501 213 L 448 160 Q 425 174 396 202 Q 366 230 344 269 Q 321 307 320 352 Q 322 420 367 465 Q 412 510 480 512 Q 548 510 593 465 Q 638 420 640 352 Q 641 331 621 286 Q 600 242 544 192 L 523 213 L 523 213 L 512 224 L 512 224 L 501 213 L 501 213 Z M 576 423 Q 574 387 551 356 L 551 356 L 551 356 Q 528 326 505 307 L 505 307 L 505 307 Q 482 289 480 288 Q 478 289 455 307 Q 432 326 409 356 Q 386 387 384 423 Q 384 450 400 472 Q 371 452 353 421 Q 336 390 336 352 Q 336 322 349 295 Q 361 267 381 243 Q 415 202 446 181 L 501 236 L 501 236 L 512 247 L 512 247 L 523 236 L 523 236 L 545 214 L 545 214 Q 592 259 609 297 Q 625 336 624 352 Q 624 390 607 421 Q 589 452 560 472 Q 576 450 576 423 L 576 423 Z M 480 496 Q 445 495 423 474 L 423 474 L 423 474 Q 401 453 400 423 Q 401 401 413 380 Q 425 359 444 340 Q 461 322 475 312 Q 478 310 480 308 Q 482 310 485 312 Q 499 322 517 340 Q 535 359 547 380 Q 559 401 560 423 Q 559 453 537 474 Q 515 495 480 496 L 480 496 Z" />
</svg>