<svg xmlns="http://www.w3.org/2000/svg" viewBox="0 0 448 448">
  <path d="M 432 16 L 432 432 L 432 16 L 432 432 L 16 432 L 16 432 L 16 16 L 16 16 L 432 16 L 432 16 Z M 16 0 L 0 0 L 16 0 L 0 0 L 0 16 L 0 16 L 0 432 L 0 432 L 0 448 L 0 448 L 16 448 L 448 448 L 448 432 L 448 432 L 448 16 L 448 16 L 448 0 L 448 0 L 432 0 L 16 0 Z M 261 144 L 266 150 L 261 144 L 266 150 L 341 224 L 341 224 L 266 298 L 266 298 L 261 304 L 261 304 L 272 315 L 272 315 L 278 310 L 278 310 L 358 230 L 358 230 L 363 224 L 363 224 L 358 218 L 358 218 L 278 138 L 278 138 L 272 132 L 272 132 L 261 144 L 261 144 Z M 182 150 L 187 144 L 182 150 L 187 144 L 176 133 L 176 133 L 170 138 L 170 138 L 90 218 L 90 218 L 85 224 L 85 224 L 90 230 L 90 230 L 170 310 L 170 310 L 176 315 L 176 315 L 187 304 L 187 304 L 182 298 L 182 298 L 107 224 L 107 224 L 182 150 L 182 150 Z" />
</svg>