<svg xmlns="http://www.w3.org/2000/svg" viewBox="0 0 512 512">
  <path d="M 160 224 L 178 224 L 160 224 L 416 224 L 407 208 L 407 208 L 297 16 L 297 16 L 288 0 L 288 0 L 279 16 L 279 16 L 169 208 L 169 208 L 160 224 L 160 224 Z M 288 32 L 388 208 L 288 32 L 388 208 L 188 208 L 188 208 L 288 32 L 288 32 Z M 128 272 Q 158 272 184 287 L 184 287 L 184 287 Q 210 302 225 328 Q 240 354 240 384 Q 240 414 225 440 Q 210 466 184 481 Q 158 496 128 496 Q 98 496 72 481 Q 46 466 31 440 Q 16 414 16 384 Q 16 354 31 328 Q 46 302 72 287 Q 98 272 128 272 L 128 272 Z M 128 512 Q 163 512 192 495 L 192 495 L 192 495 Q 221 478 239 448 Q 256 418 256 384 Q 256 350 239 320 Q 221 290 192 273 Q 163 256 128 256 Q 93 256 64 273 Q 35 290 17 320 Q 0 350 0 384 Q 0 418 17 448 Q 35 478 64 495 Q 93 512 128 512 L 128 512 Z M 496 288 L 496 480 L 496 288 L 496 480 L 304 480 L 304 480 L 304 288 L 304 288 L 496 288 L 496 288 Z M 304 272 L 288 272 L 304 272 L 288 272 L 288 288 L 288 288 L 288 480 L 288 480 L 288 496 L 288 496 L 304 496 L 512 496 L 512 480 L 512 480 L 512 288 L 512 288 L 512 272 L 512 272 L 496 272 L 304 272 Z" />
</svg>