<svg xmlns="http://www.w3.org/2000/svg" viewBox="0 0 512 512">
  <path d="M 112 8 L 112 0 L 112 8 L 112 0 L 96 0 L 96 0 L 96 8 L 96 8 L 96 96 L 96 96 L 8 96 L 0 96 L 0 112 L 0 112 L 8 112 L 96 112 L 96 408 L 96 408 L 96 416 L 96 416 L 104 416 L 352 416 L 352 400 L 352 400 L 112 400 L 112 400 L 112 8 L 112 8 Z M 400 504 L 400 512 L 400 504 L 400 512 L 416 512 L 416 512 L 416 504 L 416 504 L 416 416 L 416 416 L 504 416 L 512 416 L 512 400 L 512 400 L 504 400 L 416 400 L 416 104 L 416 104 L 416 96 L 416 96 L 408 96 L 160 96 L 160 112 L 160 112 L 400 112 L 400 112 L 400 504 L 400 504 Z" />
</svg>