<svg xmlns="http://www.w3.org/2000/svg" viewBox="0 0 512 512">
  <path d="M 264 0 L 264 8 L 264 0 L 264 8 L 264 504 L 264 504 L 264 512 L 264 512 L 248 512 L 248 512 L 248 504 L 248 504 L 248 8 L 248 8 L 248 0 L 248 0 L 264 0 L 264 0 Z M 181 245 L 192 256 L 181 245 L 192 256 L 181 267 L 181 267 L 32 416 L 32 416 L 16 416 L 0 416 L 0 400 L 0 400 L 0 112 L 0 112 L 0 96 L 0 96 L 16 96 L 32 96 L 181 245 L 181 245 Z M 25 112 L 16 112 L 25 112 L 16 112 L 16 400 L 16 400 L 25 400 L 25 400 L 169 256 L 169 256 L 25 112 L 25 112 Z M 320 256 L 331 245 L 320 256 L 331 245 L 480 96 L 480 96 L 496 96 L 512 96 L 512 112 L 512 112 L 512 400 L 512 400 L 512 416 L 512 416 L 496 416 L 480 416 L 331 267 L 331 267 L 320 256 L 320 256 Z M 496 112 L 487 112 L 496 112 L 487 112 L 343 256 L 343 256 L 487 400 L 487 400 L 496 400 L 496 400 L 496 112 L 496 112 Z" />
</svg>