<svg xmlns="http://www.w3.org/2000/svg" viewBox="0 0 542 512">
  <path d="M 259 204 L 312 26 L 259 204 L 312 26 L 320 0 L 320 0 L 299 16 L 299 16 L 0 240 L 0 240 L 0 288 L 0 288 L 113 292 L 113 292 L 129 293 L 129 293 L 125 308 L 125 308 L 72 486 L 72 486 L 64 512 L 64 512 L 86 496 L 86 496 L 384 272 L 384 272 L 384 224 L 384 224 L 271 220 L 271 220 L 255 220 L 255 220 L 260 204 L 259 204 Z M 368 240 L 368 264 L 368 240 L 368 264 L 93 470 L 93 470 L 145 297 L 145 297 L 151 277 L 151 277 L 130 277 L 130 277 L 16 273 L 16 273 L 16 248 L 16 248 L 291 42 L 291 42 L 239 215 L 239 215 L 234 235 L 234 235 L 254 236 L 254 236 L 368 240 L 368 240 Z M 352 448 L 352 448 L 352 448 L 352 448 L 352 449 L 352 449 L 323 512 L 323 512 L 340 512 L 340 512 L 363 464 L 363 464 L 502 464 L 502 464 L 524 512 L 524 512 L 542 512 L 542 512 L 512 449 L 512 449 L 512 448 L 512 448 L 512 448 L 512 448 L 439 293 L 439 293 L 437 288 L 437 288 L 427 288 L 427 288 L 425 293 L 425 293 L 352 448 L 352 448 Z M 494 448 L 370 448 L 494 448 L 370 448 L 432 315 L 432 315 L 494 448 L 494 448 Z" />
</svg>