<svg xmlns="http://www.w3.org/2000/svg" viewBox="0 0 638 512">
  <path d="M 165 0 L 162 0 L 165 0 L 162 0 L 160 2 L 160 2 L 140 18 L 140 18 L 62 82 L 62 82 L 6 128 L 6 128 L 0 133 L 0 133 L 5 139 L 5 139 L 97 250 L 97 250 L 102 257 L 102 257 L 108 252 L 108 252 L 159 210 L 159 210 L 159 504 L 159 504 L 159 512 L 159 512 L 167 512 L 479 512 L 479 504 L 479 504 L 479 210 L 479 210 L 530 252 L 530 252 L 537 257 L 537 257 L 542 250 L 542 250 L 633 139 L 633 139 L 638 133 L 638 133 L 632 128 L 632 128 L 576 82 L 576 82 L 498 18 L 498 18 L 478 2 L 478 2 L 476 0 L 476 0 L 473 0 L 165 0 Z M 223 16 L 223 16 L 223 16 L 223 16 Q 227 54 254 78 Q 280 103 319 104 Q 358 103 384 78 Q 411 54 415 16 L 415 16 L 415 16 L 447 16 L 470 16 L 488 31 L 488 31 L 566 95 L 566 95 L 615 135 L 615 135 L 534 234 L 534 234 L 485 194 L 485 194 L 476 187 L 476 187 L 463 176 L 463 176 L 463 193 L 463 193 L 463 496 L 463 496 L 175 496 L 175 496 L 175 193 L 175 193 L 175 176 L 175 176 L 162 187 L 162 187 L 153 194 L 153 194 L 104 234 L 104 234 L 23 135 L 23 135 L 72 95 L 72 95 L 151 31 L 151 31 L 168 16 L 168 16 L 191 16 L 223 16 Z M 239 16 L 399 16 L 239 16 L 399 16 Q 395 47 373 67 Q 351 87 319 88 Q 287 87 265 67 Q 243 47 239 16 L 239 16 Z" />
</svg>