<svg xmlns="http://www.w3.org/2000/svg" viewBox="0 0 544 512">
  <path d="M 144 272 Q 179 272 208 255 L 208 255 L 208 255 Q 237 238 255 208 Q 272 178 272 144 Q 272 110 255 80 Q 237 50 208 33 Q 179 16 144 16 Q 109 16 80 33 Q 51 50 33 80 Q 16 110 16 144 Q 16 178 33 208 Q 51 238 80 255 Q 109 272 144 272 L 144 272 Z M 288 152 Q 283 210 243 248 L 243 248 L 243 248 Q 203 287 144 288 Q 83 286 42 246 Q 2 205 0 144 Q 2 83 42 42 Q 83 2 144 0 Q 203 1 243 40 Q 283 78 288 136 L 352 136 L 352 136 L 352 128 L 352 128 L 352 112 L 352 112 L 368 112 L 544 112 L 544 128 L 544 128 L 544 160 L 544 160 L 544 176 L 544 176 L 528 176 L 352 176 L 352 160 L 352 160 L 352 152 L 352 152 L 288 152 L 288 152 Z M 528 160 L 528 128 L 528 160 L 528 128 L 368 128 L 368 128 L 368 144 L 368 144 L 368 160 L 368 160 L 528 160 L 528 160 Z M 272 320 L 288 320 L 272 320 L 336 320 L 336 280 L 336 280 L 336 272 L 336 272 L 344 272 L 464 272 L 464 280 L 464 280 L 464 320 L 464 320 L 512 320 L 544 320 L 544 336 L 544 336 L 528 336 L 528 336 L 528 496 L 528 496 L 528 512 L 528 512 L 512 512 L 272 512 L 272 496 L 272 496 L 272 336 L 272 336 L 256 336 L 256 336 L 256 320 L 256 320 L 272 320 L 272 320 Z M 352 320 L 448 320 L 352 320 L 448 320 L 448 288 L 448 288 L 352 288 L 352 288 L 352 320 L 352 320 Z M 512 336 L 288 336 L 512 336 L 288 336 L 288 496 L 288 496 L 512 496 L 512 496 L 512 336 L 512 336 Z M 224 144 Q 223 99 184 75 Q 144 53 104 75 Q 65 99 64 144 Q 65 189 104 213 Q 144 235 184 213 Q 223 189 224 144 L 224 144 Z M 48 144 Q 48 118 61 96 L 61 96 L 61 96 Q 74 74 96 61 Q 119 48 144 48 Q 169 48 192 61 Q 214 74 227 96 Q 240 118 240 144 Q 240 170 227 192 Q 214 214 192 227 Q 169 240 144 240 Q 119 240 96 227 Q 74 214 61 192 Q 48 170 48 144 L 48 144 Z M 0 496 L 224 496 L 0 496 L 224 496 L 224 512 L 224 512 L 0 512 L 0 512 L 0 496 L 0 496 Z M 160 336 L 160 400 L 160 336 L 160 400 L 176 400 L 176 400 Q 190 400 199 391 Q 208 382 208 368 Q 208 354 199 345 Q 190 336 176 336 L 160 336 L 160 336 Z M 176 416 L 160 416 L 176 416 L 160 416 L 160 448 L 160 448 L 160 464 L 160 464 L 144 464 L 32 464 L 32 448 L 32 448 L 32 336 L 32 336 L 32 320 L 32 320 L 48 320 L 176 320 Q 196 321 210 334 Q 223 348 224 368 Q 223 388 210 402 Q 196 415 176 416 L 176 416 Z M 48 336 L 48 448 L 48 336 L 48 448 L 144 448 L 144 448 L 144 416 L 144 416 L 144 400 L 144 400 L 144 336 L 144 336 L 48 336 L 48 336 Z" />
</svg>