<svg xmlns="http://www.w3.org/2000/svg" viewBox="0 0 480 448">
  <path d="M 78 155 Q 99 107 142 78 L 142 78 L 142 78 Q 185 49 240 48 Q 302 49 346 92 L 398 144 L 398 144 L 344 144 L 320 144 L 320 192 L 320 192 L 344 192 L 480 192 L 480 168 L 480 168 L 480 56 L 480 56 L 480 32 L 480 32 L 432 32 L 432 32 L 432 56 L 432 56 L 432 110 L 432 110 L 380 58 L 380 58 Q 321 1 240 0 Q 170 1 115 38 Q 60 75 34 136 L 78 155 L 78 155 Z M 48 338 L 100 390 L 48 338 L 100 390 Q 158 447 240 448 Q 310 447 365 410 Q 419 373 446 312 L 402 293 L 402 293 Q 381 341 338 370 Q 295 399 240 400 Q 178 399 134 356 L 82 304 L 82 304 L 136 304 L 160 304 L 160 256 L 160 256 L 136 256 L 0 256 L 0 280 L 0 280 L 0 392 L 0 392 L 0 416 L 0 416 L 48 416 L 48 416 L 48 392 L 48 392 L 48 338 L 48 338 Z" />
</svg>