<svg xmlns="http://www.w3.org/2000/svg" viewBox="0 0 512 512">
  <path d="M 310 395 L 307 401 L 310 395 L 307 401 L 256 482 L 256 482 L 206 401 L 206 401 L 202 395 L 202 395 L 195 394 L 195 394 Q 115 376 66 325 Q 17 275 16 208 Q 18 128 85 73 Q 152 18 256 16 Q 360 18 427 73 Q 494 128 496 208 Q 495 275 446 325 Q 397 376 317 394 L 310 395 L 310 395 Z M 247 497 L 256 512 L 247 497 L 256 512 L 265 497 L 265 497 L 320 409 L 320 409 Q 405 391 457 336 Q 510 282 512 208 Q 511 150 477 103 Q 443 56 385 28 Q 328 1 256 0 Q 184 1 127 28 Q 69 56 35 103 Q 1 150 0 208 Q 2 282 55 336 Q 107 391 192 409 L 247 497 L 247 497 Z" />
</svg>