<svg xmlns="http://www.w3.org/2000/svg" viewBox="0 0 524 524">
  <path d="M 259 32 Q 296 58 301 106 L 301 106 L 301 106 Q 307 154 282 204 L 300 217 L 300 217 Q 337 176 383 164 Q 428 153 466 178 Q 512 213 518 271 Q 524 329 489 383 Q 489 383 489 383 Q 446 446 380 483 Q 315 520 243 522 Q 171 524 108 481 L 113 474 L 113 474 L 108 481 L 108 481 Q 108 481 108 481 Q 47 435 23 366 Q 0 297 10 221 Q 21 146 64 82 Q 64 82 64 82 Q 64 82 64 82 L 70 86 L 70 86 L 64 82 L 64 82 Q 64 82 64 82 Q 64 82 64 82 Q 101 29 156 14 Q 211 0 259 32 L 259 32 Z M 250 45 Q 209 17 160 30 L 160 30 L 160 30 Q 111 42 77 91 Q 77 91 77 91 Q 77 91 77 91 Q 36 152 26 224 Q 16 295 39 360 Q 61 426 118 468 Q 118 468 118 468 Q 175 507 243 506 Q 310 504 372 470 Q 434 435 476 374 Q 508 324 502 273 Q 496 221 456 191 Q 456 191 456 191 Q 456 191 456 191 Q 425 170 384 181 Q 343 191 307 233 L 302 239 L 302 239 L 296 234 L 296 234 L 267 213 L 267 213 L 262 209 L 262 209 L 265 203 L 265 203 Q 291 154 286 111 Q 281 67 250 45 L 250 45 L 250 45 Z" />
</svg>