<svg xmlns="http://www.w3.org/2000/svg" viewBox="0 0 448 448">
  <path d="M 16 16 L 16 432 L 16 16 L 16 432 L 432 432 L 432 432 L 432 16 L 432 16 L 16 16 L 16 16 Z M 0 0 L 16 0 L 0 0 L 448 0 L 448 16 L 448 16 L 448 432 L 448 432 L 448 448 L 448 448 L 432 448 L 0 448 L 0 432 L 0 432 L 0 16 L 0 16 L 0 0 L 0 0 Z M 96 104 L 96 96 L 96 104 L 96 96 L 108 96 L 108 96 L 111 99 L 111 99 L 224 258 L 224 258 L 338 99 L 338 99 L 340 96 L 340 96 L 352 96 L 352 96 L 352 104 L 352 104 L 352 344 L 352 344 L 352 352 L 352 352 L 336 352 L 336 352 L 336 344 L 336 344 L 336 129 L 336 129 L 231 277 L 231 277 L 224 286 L 224 286 L 218 277 L 218 277 L 112 129 L 112 129 L 112 344 L 112 344 L 112 352 L 112 352 L 96 352 L 96 352 L 96 344 L 96 344 L 96 104 L 96 104 Z" />
</svg>