<svg xmlns="http://www.w3.org/2000/svg" viewBox="0 0 640 451">
  <path d="M 44 4 L 37 0 L 44 4 L 37 0 L 29 14 L 29 14 L 36 18 L 36 18 L 116 66 L 116 66 L 123 70 L 123 70 L 131 56 L 131 56 L 124 52 L 124 52 L 44 4 L 44 4 Z M 604 18 L 611 14 L 604 18 L 611 14 L 603 0 L 603 0 L 596 4 L 596 4 L 516 52 L 516 52 L 509 56 L 509 56 L 517 70 L 517 70 L 524 66 L 524 66 L 604 18 L 604 18 Z M 8 163 L 0 163 L 8 163 L 0 163 L 0 179 L 0 179 L 8 179 L 96 179 L 96 163 L 96 163 L 88 163 L 8 163 Z M 552 163 L 544 163 L 552 163 L 544 163 L 544 179 L 544 179 L 552 179 L 640 179 L 640 163 L 640 163 L 632 163 L 552 163 Z M 464 163 L 464 291 L 464 163 L 464 291 L 480 291 L 480 291 L 480 163 L 480 163 Q 478 95 433 50 Q 388 5 320 3 Q 252 5 207 50 Q 162 95 160 163 L 160 291 L 160 291 L 176 291 L 176 291 L 176 163 L 176 163 Q 178 102 218 61 Q 259 21 320 19 Q 381 21 422 61 Q 462 102 464 163 L 464 163 Z M 112 435 L 112 339 L 112 435 L 112 339 L 528 339 L 528 339 L 528 435 L 528 435 L 112 435 L 112 435 Z M 96 323 L 96 339 L 96 323 L 96 339 L 96 435 L 96 435 L 96 451 L 96 451 L 112 451 L 544 451 L 544 435 L 544 435 L 544 339 L 544 339 L 544 323 L 544 323 L 528 323 L 96 323 Z M 320 83 L 320 67 L 320 83 L 320 67 Q 279 68 252 95 Q 225 122 224 163 L 240 163 L 240 163 Q 241 129 263 106 Q 286 84 320 83 L 320 83 Z" />
</svg>