<svg xmlns="http://www.w3.org/2000/svg" viewBox="0 0 512 512">
  <path d="M 144 0 L 128 0 L 144 0 L 128 0 L 128 64 L 128 64 L 144 64 L 144 64 L 144 0 L 144 0 Z M 272 0 L 256 0 L 272 0 L 256 0 L 256 64 L 256 64 L 272 64 L 272 64 L 272 0 L 272 0 Z M 384 0 L 384 288 L 384 0 L 384 288 L 400 288 L 400 288 L 400 0 L 400 0 L 384 0 L 384 0 Z M 448 0 L 448 288 L 448 0 L 448 288 L 464 288 L 464 288 L 464 0 L 464 0 L 448 0 L 448 0 Z M 320 0 L 320 64 L 320 0 L 320 64 L 336 64 L 336 64 L 336 0 L 336 0 L 320 0 L 320 0 Z M 192 0 L 192 64 L 192 0 L 192 64 L 208 64 L 208 64 L 208 0 L 208 0 L 192 0 L 192 0 Z M 512 0 L 496 0 L 512 0 L 496 0 L 496 288 L 496 288 L 512 288 L 512 288 L 512 0 L 512 0 Z M 336 112 L 336 496 L 336 112 L 336 496 L 16 496 L 16 496 L 16 112 L 16 112 L 336 112 L 336 112 Z M 16 96 L 0 96 L 16 96 L 0 96 L 0 112 L 0 112 L 0 496 L 0 496 L 0 512 L 0 512 L 16 512 L 352 512 L 352 496 L 352 496 L 352 112 L 352 112 L 352 96 L 352 96 L 336 96 L 16 96 Z M 80 176 L 272 176 L 80 176 L 272 176 L 272 240 L 272 240 L 80 240 L 80 240 L 80 176 L 80 176 Z M 64 160 L 64 176 L 64 160 L 64 176 L 64 240 L 64 240 L 64 256 L 64 256 L 80 256 L 288 256 L 288 240 L 288 240 L 288 176 L 288 176 L 288 160 L 288 160 L 272 160 L 64 160 Z M 80 400 L 144 400 L 80 400 L 144 400 L 144 432 L 144 432 L 80 432 L 80 432 L 80 400 L 80 400 Z M 64 384 L 64 400 L 64 384 L 64 400 L 64 432 L 64 432 L 64 448 L 64 448 L 80 448 L 160 448 L 160 432 L 160 432 L 160 400 L 160 400 L 160 384 L 160 384 L 144 384 L 64 384 Z M 272 400 L 272 432 L 272 400 L 272 432 L 208 432 L 208 432 L 208 400 L 208 400 L 272 400 L 272 400 Z M 208 384 L 192 384 L 208 384 L 192 384 L 192 400 L 192 400 L 192 432 L 192 432 L 192 448 L 192 448 L 208 448 L 288 448 L 288 432 L 288 432 L 288 400 L 288 400 L 288 384 L 288 384 L 272 384 L 208 384 Z M 80 304 L 144 304 L 80 304 L 144 304 L 144 336 L 144 336 L 80 336 L 80 336 L 80 304 L 80 304 Z M 64 288 L 64 304 L 64 288 L 64 304 L 64 336 L 64 336 L 64 352 L 64 352 L 80 352 L 160 352 L 160 336 L 160 336 L 160 304 L 160 304 L 160 288 L 160 288 L 144 288 L 64 288 Z M 272 304 L 272 336 L 272 304 L 272 336 L 208 336 L 208 336 L 208 304 L 208 304 L 272 304 L 272 304 Z M 208 288 L 192 288 L 208 288 L 192 288 L 192 304 L 192 304 L 192 336 L 192 336 L 192 352 L 192 352 L 208 352 L 288 352 L 288 336 L 288 336 L 288 304 L 288 304 L 288 288 L 288 288 L 272 288 L 208 288 Z" />
</svg>