<svg xmlns="http://www.w3.org/2000/svg" viewBox="0 0 448 512">
  <path d="M 0 56 Q 1 32 16 16 L 16 16 L 16 16 Q 32 1 56 0 L 440 0 L 448 0 L 448 8 L 448 8 L 448 408 L 448 408 L 448 416 L 448 416 L 440 416 L 416 416 L 416 496 L 416 496 L 440 496 L 448 496 L 448 512 L 448 512 L 440 512 L 56 512 Q 32 511 16 496 Q 1 480 0 456 L 0 56 L 0 56 Z M 56 416 Q 39 416 28 428 L 28 428 L 28 428 Q 16 439 16 456 Q 16 473 28 484 Q 39 496 56 496 L 400 496 L 400 496 L 400 416 L 400 416 L 56 416 L 56 416 Z M 16 417 Q 32 401 56 400 L 432 400 L 432 400 L 432 16 L 432 16 L 56 16 L 56 16 Q 39 16 28 28 Q 16 39 16 56 L 16 417 L 16 417 Z M 216 326 Q 202 312 190 286 L 190 286 L 190 286 Q 178 259 176 216 L 120 216 L 120 216 Q 124 258 150 287 Q 176 317 216 326 L 216 326 Z M 221 306 Q 232 320 240 325 L 240 325 L 240 325 L 241 325 L 241 325 Q 249 320 260 306 Q 270 294 278 272 Q 286 250 288 216 L 192 216 L 192 216 Q 194 250 202 272 Q 211 294 221 306 L 221 306 Z M 192 200 L 288 200 L 192 200 L 288 200 Q 286 166 278 144 Q 269 122 259 110 Q 248 96 240 91 L 240 91 L 240 91 L 239 91 L 239 91 Q 231 96 220 110 Q 210 122 202 144 Q 194 166 192 200 L 192 200 Z M 264 326 Q 304 317 330 287 L 330 287 L 330 287 Q 356 258 360 216 L 304 216 L 304 216 Q 302 259 290 286 Q 278 312 264 326 L 264 326 Z M 304 200 L 360 200 L 304 200 L 360 200 Q 356 158 330 129 Q 304 99 264 90 Q 278 104 290 130 Q 302 157 304 200 L 304 200 Z M 120 200 L 176 200 L 120 200 L 176 200 Q 178 157 190 130 Q 202 104 216 90 Q 176 99 150 129 Q 124 158 120 200 L 120 200 Z M 240 72 Q 277 72 308 90 L 308 90 L 308 90 Q 339 108 358 140 Q 376 172 376 208 Q 376 244 358 276 Q 339 308 308 326 Q 277 344 240 344 Q 203 344 172 326 Q 141 308 122 276 Q 104 244 104 208 Q 104 172 122 140 Q 141 108 172 90 Q 203 72 240 72 L 240 72 Z" />
</svg>