<svg xmlns="http://www.w3.org/2000/svg" viewBox="0 0 512 448">
  <path d="M 224 0 L 272 64 L 224 0 L 272 64 L 496 64 L 512 64 L 512 80 L 512 80 L 512 432 L 512 432 L 512 448 L 512 448 L 496 448 L 0 448 L 0 432 L 0 432 L 0 16 L 0 16 L 0 0 L 0 0 L 16 0 L 224 0 Z M 272 80 L 264 80 L 272 80 L 264 80 L 259 74 L 259 74 L 216 16 L 216 16 L 16 16 L 16 16 L 16 432 L 16 432 L 496 432 L 496 432 L 496 80 L 496 80 L 272 80 L 272 80 Z M 264 360 L 264 368 L 264 360 L 264 368 L 248 368 L 248 368 L 248 360 L 248 360 L 248 171 L 248 171 L 174 246 L 174 246 L 168 251 L 168 251 L 157 240 L 157 240 L 162 234 L 162 234 L 250 146 L 250 146 L 256 141 L 256 141 L 262 146 L 262 146 L 350 234 L 350 234 L 356 240 L 356 240 L 344 251 L 344 251 L 338 246 L 338 246 L 264 171 L 264 171 L 264 360 L 264 360 Z" />
</svg>