<svg xmlns="http://www.w3.org/2000/svg" viewBox="0 0 448 512">
  <path d="M 232 8 L 232 0 L 232 8 L 232 0 L 216 0 L 216 0 L 216 8 L 216 8 L 216 64 L 216 64 L 80 64 L 64 64 L 64 80 L 64 80 L 64 304 L 64 304 L 64 320 L 64 320 L 80 320 L 384 320 L 384 304 L 384 304 L 384 80 L 384 80 L 384 64 L 384 64 L 368 64 L 232 64 L 232 8 L 232 8 Z M 80 80 L 368 80 L 80 80 L 368 80 L 368 304 L 368 304 L 80 304 L 80 304 L 80 80 L 80 80 Z M 32 128 L 16 128 L 32 128 L 16 128 L 16 256 L 16 256 L 32 256 L 32 256 L 32 128 L 32 128 Z M 432 128 L 416 128 L 432 128 L 416 128 L 416 256 L 416 256 L 432 256 L 432 256 L 432 128 L 432 128 Z M 232 232 L 216 232 L 232 232 L 216 232 L 216 280 L 216 280 L 232 280 L 232 280 L 232 232 L 232 232 Z M 22 496 L 60 368 L 22 496 L 60 368 L 388 368 L 388 368 L 427 496 L 427 496 L 368 496 L 368 496 L 368 432 L 368 432 L 368 416 L 368 416 L 352 416 L 80 416 L 80 432 L 80 432 L 80 496 L 80 496 L 22 496 L 22 496 Z M 431 512 L 448 512 L 431 512 L 448 512 L 443 496 L 443 496 L 400 352 L 400 352 L 48 352 L 48 352 L 5 496 L 5 496 L 0 512 L 0 512 L 17 512 L 431 512 Z M 280 232 L 280 280 L 280 232 L 280 280 L 296 280 L 296 280 L 296 232 L 296 232 L 280 232 L 280 232 Z M 152 232 L 152 280 L 152 232 L 152 280 L 168 280 L 168 280 L 168 232 L 168 232 L 152 232 L 152 232 Z M 352 432 L 352 496 L 352 432 L 352 496 L 296 496 L 296 496 L 296 432 L 296 432 L 352 432 L 352 432 Z M 280 432 L 280 496 L 280 432 L 280 496 L 232 496 L 232 496 L 232 432 L 232 432 L 280 432 L 280 432 Z M 216 432 L 216 496 L 216 432 L 216 496 L 168 496 L 168 496 L 168 432 L 168 432 L 216 432 L 216 432 Z M 152 432 L 152 496 L 152 432 L 152 496 L 96 496 L 96 496 L 96 432 L 96 432 L 152 432 L 152 432 Z M 128 117 L 117 128 L 128 117 L 117 128 L 122 134 L 122 134 L 149 160 L 149 160 L 122 186 L 122 186 L 117 192 L 117 192 L 128 203 L 128 203 L 134 198 L 134 198 L 160 171 L 160 171 L 186 198 L 186 198 L 192 203 L 192 203 L 203 192 L 203 192 L 198 186 L 198 186 L 171 160 L 171 160 L 198 134 L 198 134 L 203 128 L 203 128 L 192 117 L 192 117 L 186 122 L 186 122 L 160 149 L 160 149 L 134 122 L 134 122 L 128 117 L 128 117 Z M 262 122 L 256 117 L 262 122 L 256 117 L 245 128 L 245 128 L 250 134 L 250 134 L 277 160 L 277 160 L 250 186 L 250 186 L 245 192 L 245 192 L 256 203 L 256 203 L 262 198 L 262 198 L 288 171 L 288 171 L 314 198 L 314 198 L 320 203 L 320 203 L 331 192 L 331 192 L 326 186 L 326 186 L 299 160 L 299 160 L 326 134 L 326 134 L 331 128 L 331 128 L 320 117 L 320 117 L 314 122 L 314 122 L 288 149 L 288 149 L 262 122 L 262 122 Z" />
</svg>