<svg xmlns="http://www.w3.org/2000/svg" viewBox="0 0 608 480">
  <path d="M 21 432 L 140 16 L 21 432 L 140 16 L 280 16 L 280 16 L 280 72 L 280 72 L 280 80 L 280 80 L 296 80 L 296 80 L 296 72 L 296 72 L 296 16 L 296 16 L 436 16 L 436 16 L 477 161 L 477 161 Q 486 161 495 163 L 448 0 L 448 0 L 128 0 L 128 0 L 5 432 L 5 432 L 0 448 L 0 448 L 17 448 L 328 448 Q 322 440 316 432 L 296 432 L 296 432 L 296 389 L 296 389 Q 293 379 291 368 L 280 368 L 280 368 L 280 376 L 280 376 L 280 432 L 280 432 L 21 432 L 21 432 Z M 296 280 L 296 168 L 296 280 L 296 168 L 296 160 L 296 160 L 280 160 L 280 160 L 280 168 L 280 168 L 280 280 L 280 280 L 280 288 L 280 288 L 295 288 L 295 288 Q 295 286 296 283 L 296 280 L 296 280 Z M 336 336 Q 336 301 353 272 L 353 272 L 353 272 Q 370 243 400 225 Q 430 208 464 208 Q 498 208 528 225 Q 558 243 575 272 Q 592 301 592 336 Q 592 371 575 400 Q 558 429 528 447 Q 498 464 464 464 Q 430 464 400 447 Q 370 429 353 400 Q 336 371 336 336 L 336 336 Z M 608 336 Q 608 297 589 264 L 589 264 L 589 264 Q 570 231 536 211 Q 502 192 464 192 Q 426 192 392 211 Q 358 231 339 264 Q 320 297 320 336 Q 320 375 339 408 Q 358 441 392 461 Q 426 480 464 480 Q 502 480 536 461 Q 570 441 589 408 Q 608 375 608 336 L 608 336 Z M 476 412 L 476 388 L 476 412 L 476 388 L 452 388 L 452 388 L 452 412 L 452 412 L 476 412 L 476 412 Z M 472 248 L 456 248 L 472 248 L 456 248 L 456 256 L 456 256 L 456 352 L 456 352 L 456 360 L 456 360 L 472 360 L 472 360 L 472 352 L 472 352 L 472 256 L 472 256 L 472 248 L 472 248 Z" />
</svg>