<svg xmlns="http://www.w3.org/2000/svg" viewBox="0 0 640 384">
  <path d="M 294 240 L 304 240 L 294 240 L 346 240 L 350 249 L 350 249 L 410 368 L 410 368 L 624 368 L 624 368 L 624 16 L 624 16 L 16 16 L 16 16 L 16 368 L 16 368 L 230 368 L 230 368 L 290 249 L 290 249 L 294 240 L 294 240 Z M 240 384 L 16 384 L 240 384 L 0 384 L 0 368 L 0 368 L 0 16 L 0 16 L 0 0 L 0 0 L 16 0 L 640 0 L 640 16 L 640 16 L 640 368 L 640 368 L 640 384 L 640 384 L 624 384 L 400 384 L 336 256 L 336 256 L 304 256 L 304 256 L 240 384 L 240 384 Z M 176 240 Q 212 239 231 208 Q 249 176 231 144 Q 212 113 176 112 Q 140 113 121 144 Q 103 176 121 208 Q 140 239 176 240 L 176 240 Z M 176 96 Q 221 97 245 136 Q 267 176 245 216 Q 221 255 176 256 Q 131 255 107 216 Q 85 176 107 136 Q 131 97 176 96 L 176 96 Z M 528 176 Q 527 140 496 121 Q 464 103 432 121 Q 401 140 400 176 Q 401 212 432 231 Q 464 249 496 231 Q 527 212 528 176 L 528 176 Z M 384 176 Q 385 131 424 107 Q 464 85 504 107 Q 543 131 544 176 Q 543 221 504 245 Q 464 267 424 245 Q 385 221 384 176 L 384 176 Z" />
</svg>