<svg xmlns="http://www.w3.org/2000/svg" viewBox="0 0 448 512">
  <path d="M 224 16 Q 254 16 280 31 L 280 31 L 280 31 Q 306 46 321 72 Q 336 98 336 128 Q 336 158 321 184 Q 306 210 280 225 Q 254 240 224 240 Q 194 240 168 225 Q 142 210 127 184 Q 112 158 112 128 Q 112 98 127 72 Q 142 46 168 31 Q 194 16 224 16 L 224 16 Z M 224 256 Q 278 255 315 219 L 315 219 L 315 219 Q 351 182 352 128 Q 351 74 315 37 Q 278 1 224 0 Q 178 1 145 27 Q 111 54 100 97 L 46 42 L 46 42 L 40 37 L 40 37 L 29 48 L 29 48 L 34 54 L 34 54 L 93 112 L 93 112 L 34 170 L 34 170 L 29 176 L 29 176 L 40 187 L 40 187 L 46 182 L 46 182 L 96 131 L 96 131 Q 99 185 135 220 Q 170 255 224 256 L 224 256 Z M 144 80 L 144 96 L 144 80 L 144 96 L 144 128 L 144 128 L 144 144 L 144 144 L 160 144 L 304 144 L 304 128 L 304 128 L 304 96 L 304 96 L 304 80 L 304 80 L 288 80 L 144 80 Z M 132 320 L 262 496 L 132 320 L 262 496 L 22 496 L 22 496 L 76 320 L 76 320 L 132 320 L 132 320 Z M 136 304 L 64 304 L 136 304 L 64 304 L 5 496 L 5 496 L 0 512 L 0 512 L 17 512 L 448 512 L 443 496 L 443 496 L 384 304 L 384 304 L 308 304 L 308 304 L 234 403 L 234 403 L 224 416 L 224 416 L 214 403 L 214 403 L 142 307 L 142 307 Q 142 307 142 307 Q 142 307 142 307 L 140 304 L 140 304 L 136 304 L 136 304 L 136 304 L 136 304 Z M 233 430 L 237 426 L 233 430 L 237 426 L 316 320 L 316 320 L 372 320 L 372 320 L 426 496 L 426 496 L 282 496 L 282 496 L 279 491 L 279 491 L 233 430 L 233 430 Z M 160 96 L 288 96 L 160 96 L 288 96 L 288 128 L 288 128 L 160 128 L 160 128 L 160 96 L 160 96 Z" />
</svg>