<svg xmlns="http://www.w3.org/2000/svg" viewBox="0 0 512 512">
  <path d="M 496 256 Q 495 191 464 136 L 464 136 L 464 136 Q 432 81 376 48 Q 319 16 256 16 Q 193 16 136 48 Q 80 81 48 136 Q 17 191 16 256 Q 17 321 48 376 Q 80 431 136 464 Q 193 496 256 496 Q 319 496 376 464 Q 432 431 464 376 Q 495 321 496 256 L 496 256 Z M 0 256 Q 1 186 34 128 L 34 128 L 34 128 Q 68 70 128 34 Q 189 0 256 0 Q 323 0 384 34 Q 444 70 478 128 Q 511 186 512 256 Q 511 326 478 384 Q 444 442 384 478 Q 323 512 256 512 Q 189 512 128 478 Q 68 442 34 384 Q 1 326 0 256 L 0 256 Z M 256 348 Q 183 347 121 329 Q 139 368 175 392 Q 211 415 256 416 Q 302 415 338 392 Q 373 368 391 329 Q 329 347 256 348 L 256 348 Z M 256 332 Q 334 331 398 310 Q 408 306 417 303 Q 414 313 411 322 Q 393 371 352 401 Q 311 431 256 432 Q 202 431 161 401 Q 119 371 101 322 Q 98 313 96 303 Q 105 306 114 310 Q 178 331 256 332 L 256 332 Z M 160 101 L 167 117 L 160 101 L 167 117 L 188 161 L 188 161 L 237 167 L 237 167 L 254 169 L 254 169 L 242 181 L 242 181 L 206 215 L 206 215 L 215 263 L 215 263 L 218 280 L 218 280 L 203 272 L 203 272 L 160 248 L 160 248 L 117 272 L 117 272 L 102 280 L 102 280 L 105 263 L 105 263 L 114 215 L 114 215 L 78 181 L 78 181 L 66 170 L 66 170 L 83 167 L 83 167 L 132 161 L 132 161 L 153 117 L 153 117 L 160 101 L 160 101 Z M 160 139 L 144 172 L 160 139 L 144 172 L 142 176 L 142 176 L 138 176 L 138 176 L 102 181 L 102 181 L 128 206 L 128 206 L 131 209 L 131 209 L 131 214 L 131 214 L 124 250 L 124 250 L 156 232 L 156 232 L 160 230 L 160 230 L 164 232 L 164 232 L 196 250 L 196 250 L 189 214 L 189 214 L 189 209 L 189 209 L 192 206 L 192 206 L 218 181 L 218 181 L 182 176 L 182 176 L 178 176 L 178 176 L 176 172 L 176 172 L 160 139 L 160 139 Z M 359 117 L 380 161 L 359 117 L 380 161 L 429 167 L 429 167 L 446 170 L 446 170 L 434 181 L 434 181 L 398 215 L 398 215 L 407 263 L 407 263 L 410 280 L 410 280 L 395 272 L 395 272 L 352 248 L 352 248 L 309 272 L 309 272 L 294 280 L 294 280 L 297 263 L 297 263 L 306 215 L 306 215 L 270 181 L 270 181 L 258 170 L 258 170 L 275 167 L 275 167 L 324 161 L 324 161 L 345 117 L 345 117 L 352 102 L 352 102 L 359 117 L 359 117 Z M 336 172 L 334 176 L 336 172 L 334 176 L 330 176 L 330 176 L 294 181 L 294 181 L 320 206 L 320 206 L 323 209 L 323 209 L 323 214 L 323 214 L 316 250 L 316 250 L 348 232 L 348 232 L 352 230 L 352 230 L 356 232 L 356 232 L 388 250 L 388 250 L 381 214 L 381 214 L 380 209 L 380 209 L 384 206 L 384 206 L 410 181 L 410 181 L 374 176 L 374 176 L 370 176 L 370 176 L 368 172 L 368 172 L 352 139 L 352 139 L 336 172 L 336 172 Z" />
</svg>