<svg xmlns="http://www.w3.org/2000/svg" viewBox="0 0 512 512">
  <path d="M 304 11 L 298 17 L 304 11 L 298 17 L 291 24 L 291 24 L 488 221 L 488 221 L 495 214 L 495 214 L 501 208 L 501 208 L 512 219 L 512 219 L 506 225 L 506 225 L 494 238 L 494 238 L 382 350 L 382 350 Q 382 350 382 350 Q 382 350 382 350 L 369 363 L 369 363 L 363 368 L 363 368 L 352 357 L 352 357 L 358 351 L 358 351 L 365 344 L 365 344 L 168 147 L 168 147 L 161 154 L 161 154 L 155 160 L 155 160 L 144 149 L 144 149 L 150 143 L 150 143 L 162 130 L 162 130 L 274 18 L 274 18 L 287 6 L 287 6 L 293 0 L 293 0 L 304 11 L 304 11 Z M 179 136 L 376 333 L 179 136 L 376 333 L 477 232 L 477 232 L 280 35 L 280 35 L 179 136 L 179 136 Z M 107 501 L 96 512 L 107 501 L 96 512 L 85 501 L 85 501 L 11 427 L 11 427 L 0 416 L 0 416 L 11 405 L 11 405 L 133 283 L 133 283 L 144 272 L 144 272 L 155 283 L 155 283 L 186 314 L 186 314 L 238 263 L 238 263 L 249 274 L 249 274 L 198 326 L 198 326 L 229 357 L 229 357 L 240 368 L 240 368 L 229 379 L 229 379 L 107 501 L 107 501 Z M 217 368 L 144 295 L 217 368 L 144 295 L 23 416 L 23 416 L 96 489 L 96 489 L 217 368 L 217 368 Z" />
</svg>