<svg xmlns="http://www.w3.org/2000/svg" viewBox="0 0 628 500">
  <path d="M 122 0 L 139 17 L 122 0 L 139 17 L 227 105 L 227 105 L 244 122 L 244 122 L 210 156 L 210 156 L 193 139 L 193 139 L 146 92 L 146 92 L 146 426 L 146 426 L 290 426 L 290 426 L 290 50 L 290 50 L 290 26 L 290 26 L 314 26 L 530 26 L 530 50 L 530 50 L 530 206 L 530 206 L 530 408 L 530 408 L 577 361 L 577 361 L 594 344 L 594 344 L 628 378 L 628 378 L 611 395 L 611 395 L 523 483 L 523 483 L 506 500 L 506 500 L 489 483 L 489 483 L 401 395 L 401 395 L 384 378 L 384 378 L 418 344 L 418 344 L 435 361 L 435 361 L 482 408 L 482 408 L 482 206 L 482 206 L 482 74 L 482 74 L 338 74 L 338 74 L 338 450 L 338 450 L 338 474 L 338 474 L 314 474 L 98 474 L 98 450 L 98 450 L 98 92 L 98 92 L 51 139 L 51 139 L 34 156 L 34 156 L 0 122 L 0 122 L 17 105 L 17 105 L 105 17 L 105 17 L 122 0 L 122 0 Z" />
</svg>