<svg xmlns="http://www.w3.org/2000/svg" viewBox="0 0 573 512">
  <path d="M 421 0 L 413 0 L 421 0 L 413 0 L 413 16 L 413 16 L 421 16 L 513 16 L 317 189 L 317 189 L 195 66 L 195 66 L 190 61 L 190 61 L 184 66 L 184 66 L 0 210 L 0 210 L 10 222 L 10 222 L 188 83 L 188 83 L 311 206 L 311 206 L 317 211 L 317 211 L 322 206 L 322 206 L 525 27 L 525 27 L 525 120 L 525 120 L 525 128 L 525 128 L 541 128 L 541 128 L 541 120 L 541 120 L 541 8 L 541 8 L 541 0 L 541 0 L 533 0 L 421 0 Z M 205 240 L 205 464 L 205 240 L 205 464 L 173 464 L 173 464 L 173 240 L 173 240 L 205 240 L 205 240 Z M 173 224 L 157 224 L 173 224 L 157 224 L 157 240 L 157 240 L 157 464 L 157 464 L 157 480 L 157 480 L 173 480 L 221 480 L 221 464 L 221 464 L 221 240 L 221 240 L 221 224 L 221 224 L 205 224 L 173 224 Z M 77 336 L 77 464 L 77 336 L 77 464 L 45 464 L 45 464 L 45 336 L 45 336 L 77 336 L 77 336 Z M 45 320 L 29 320 L 45 320 L 29 320 L 29 336 L 29 336 L 29 464 L 29 464 L 29 480 L 29 480 L 45 480 L 93 480 L 93 464 L 93 464 L 93 336 L 93 336 L 93 320 L 93 320 L 77 320 L 45 320 Z M 301 368 Q 301 333 318 304 L 318 304 L 318 304 Q 335 275 365 257 Q 395 240 429 240 Q 463 240 493 257 Q 523 275 540 304 Q 557 333 557 368 Q 557 403 540 432 Q 523 461 493 479 Q 463 496 429 496 Q 395 496 365 479 Q 335 461 318 432 Q 301 403 301 368 L 301 368 Z M 573 368 Q 573 329 554 296 L 554 296 L 554 296 Q 535 263 501 243 Q 467 224 429 224 Q 391 224 357 243 Q 323 263 304 296 Q 285 329 285 368 Q 285 407 304 440 Q 323 473 357 493 Q 391 512 429 512 Q 467 512 501 493 Q 535 473 554 440 Q 573 407 573 368 L 573 368 Z M 389 336 Q 389 324 401 318 Q 414 312 429 312 Q 446 313 463 317 L 471 319 L 471 319 L 475 303 L 475 303 L 467 302 L 467 302 Q 453 298 437 297 L 437 280 L 437 280 L 437 272 L 437 272 L 421 272 L 421 272 L 421 280 L 421 280 L 421 296 L 421 296 Q 407 297 394 304 Q 374 312 373 337 Q 377 356 394 363 Q 408 370 424 374 Q 425 374 426 374 L 428 375 L 428 375 Q 446 379 458 385 Q 469 391 469 400 Q 469 413 458 419 Q 445 425 430 424 Q 410 423 391 416 Q 390 416 390 416 Q 390 416 390 416 Q 390 416 390 416 Q 390 416 390 416 Q 390 416 390 416 Q 388 415 386 415 Q 385 414 384 414 L 376 412 L 376 412 L 371 427 L 371 427 L 379 429 L 379 429 Q 381 430 382 430 Q 384 431 385 431 Q 385 431 385 431 Q 386 431 386 431 Q 403 437 421 439 L 421 458 L 421 458 L 421 466 L 421 466 L 437 466 L 437 466 L 437 458 L 437 458 L 437 440 L 437 440 Q 452 439 465 433 Q 484 424 485 400 Q 483 379 466 371 Q 450 364 432 359 L 431 359 L 431 359 Q 413 355 401 349 Q 389 343 389 335 L 389 336 Z" />
</svg>