<svg xmlns="http://www.w3.org/2000/svg" viewBox="0 0 512 512">
  <path d="M 448 208 Q 448 156 422 112 L 422 112 L 422 112 Q 397 68 352 42 Q 307 16 256 16 Q 205 16 160 42 Q 115 68 90 112 Q 64 156 64 208 Q 64 260 90 304 Q 115 348 160 374 Q 205 400 256 400 Q 307 400 352 374 Q 397 348 422 304 Q 448 260 448 208 L 448 208 Z M 48 208 Q 48 151 76 104 L 76 104 L 76 104 Q 103 57 152 28 Q 201 0 256 0 Q 311 0 360 28 Q 409 57 436 104 Q 464 151 464 208 Q 464 265 436 312 Q 409 359 360 388 Q 311 416 256 416 Q 201 416 152 388 Q 103 359 76 312 Q 48 265 48 208 L 48 208 Z M 8 368 L 77 368 L 8 368 L 77 368 Q 85 376 93 384 L 16 384 L 16 384 L 16 496 L 16 496 L 496 496 L 496 496 L 496 384 L 496 384 L 419 384 L 419 384 Q 427 376 435 368 L 504 368 L 512 368 L 512 376 L 512 376 L 512 504 L 512 504 L 512 512 L 512 512 L 504 512 L 0 512 L 0 504 L 0 504 L 0 376 L 0 376 L 0 368 L 0 368 L 8 368 L 8 368 Z M 265 93 L 265 101 L 265 93 L 265 101 L 265 121 L 265 121 Q 268 121 272 122 Q 276 122 285 124 Q 294 126 299 127 L 295 143 L 295 143 Q 290 141 282 140 Q 274 138 269 137 Q 268 137 267 137 Q 266 137 265 137 L 265 137 L 265 137 L 249 137 L 249 137 L 249 136 L 249 136 Q 238 137 229 141 Q 214 149 212 161 Q 211 170 213 175 Q 216 180 222 185 Q 236 193 259 199 L 259 199 L 259 199 Q 259 199 259 199 Q 282 205 301 217 Q 310 223 315 233 Q 320 244 317 258 Q 312 281 291 290 Q 279 295 265 296 L 265 315 L 265 315 L 265 323 L 265 323 L 249 323 L 249 323 L 249 315 L 249 315 L 249 295 L 249 295 Q 245 295 242 295 Q 242 295 242 295 Q 242 295 242 295 Q 225 291 207 284 Q 207 284 207 284 Q 207 284 207 284 Q 207 284 207 284 Q 207 284 207 284 Q 207 284 207 284 Q 207 284 207 284 Q 206 284 205 284 Q 203 283 201 282 L 193 280 L 193 280 L 199 265 L 199 265 L 206 267 L 206 267 Q 207 267 209 268 Q 211 269 212 269 Q 212 269 212 269 Q 212 269 212 269 Q 212 269 212 269 Q 212 269 212 269 Q 213 269 213 269 Q 231 276 245 279 Q 247 279 249 279 L 249 279 L 249 279 L 265 279 L 265 279 L 265 280 L 265 280 Q 276 279 284 276 Q 299 269 302 255 Q 303 245 300 240 Q 298 234 292 229 Q 278 221 255 214 L 253 214 L 253 214 Q 253 214 253 214 Q 231 208 213 198 Q 204 192 199 182 Q 194 171 196 158 Q 201 136 223 127 Q 235 121 249 120 L 249 101 L 249 101 L 249 93 L 249 93 L 265 93 L 265 93 Z M 64 440 L 448 440 L 64 440 L 456 440 L 456 456 L 456 456 L 448 456 L 56 456 L 56 440 L 56 440 L 64 440 L 64 440 Z" />
</svg>