<svg xmlns="http://www.w3.org/2000/svg" viewBox="0 0 640 414">
  <path d="M 448 8 L 447 0 L 448 8 L 447 0 L 439 1 L 439 1 L 151 54 L 151 54 L 145 55 L 145 55 L 144 61 L 144 61 L 136 176 L 136 176 Q 77 187 39 231 Q 1 276 0 338 L 0 406 L 0 406 L 0 414 L 0 414 L 8 414 L 568 414 Q 599 413 619 393 Q 639 373 640 342 Q 638 302 613 272 Q 588 241 557 219 Q 525 198 501 186 Q 489 181 482 178 Q 481 177 480 177 Q 479 176 478 176 L 448 8 L 448 8 Z M 482 195 Q 483 195 483 196 L 483 196 L 483 196 Q 488 198 494 201 Q 517 212 548 233 Q 578 253 601 281 Q 623 309 624 342 Q 623 366 608 382 Q 592 397 568 398 L 515 398 L 515 398 L 324 254 L 324 254 L 476 254 L 476 254 L 488 319 L 488 319 L 490 327 L 490 327 L 505 324 L 505 324 L 504 317 L 504 317 L 482 195 L 482 195 Z M 473 238 L 303 238 L 473 238 L 303 238 L 263 207 L 263 207 Q 219 174 164 174 Q 158 174 153 174 L 160 69 L 160 69 L 434 19 L 434 19 L 473 238 L 473 238 Z M 151 191 Q 151 191 151 191 L 151 191 L 151 191 Q 151 191 152 191 Q 152 191 152 191 Q 152 191 152 191 Q 158 190 164 190 Q 213 190 253 220 L 488 398 L 488 398 L 472 398 L 16 398 L 16 338 L 16 338 Q 17 278 55 237 Q 93 197 151 191 L 151 191 Z" />
</svg>