<svg xmlns="http://www.w3.org/2000/svg" viewBox="0 0 576 512">
  <path d="M 560 16 L 560 96 L 560 16 L 560 96 L 200 96 L 200 96 L 200 48 L 200 48 L 200 16 L 200 16 L 560 16 L 560 16 Z M 112 16 L 184 16 L 112 16 L 184 16 L 184 48 L 184 48 L 184 96 L 184 96 L 112 96 L 112 96 L 112 16 L 112 16 Z M 112 400 L 112 112 L 112 400 L 112 112 L 192 112 L 560 112 L 560 400 L 560 400 L 112 400 L 112 400 Z M 112 0 L 96 0 L 112 0 L 96 0 L 96 16 L 96 16 L 96 400 L 96 400 L 96 416 L 96 416 L 112 416 L 576 416 L 576 400 L 576 400 L 576 16 L 576 16 L 576 0 L 576 0 L 560 0 L 112 0 Z M 16 104 L 16 96 L 16 104 L 16 96 L 0 96 L 0 96 L 0 104 L 0 104 L 0 504 L 0 504 L 0 512 L 0 512 L 8 512 L 480 512 L 480 496 L 480 496 L 472 496 L 16 496 L 16 104 L 16 104 Z" />
</svg>