<svg xmlns="http://www.w3.org/2000/svg" viewBox="0 0 640 384">
  <path d="M 0 0 L 0 32 L 0 0 L 0 32 L 0 352 L 0 352 L 0 384 L 0 384 L 32 384 L 640 384 L 640 352 L 640 352 L 640 272 L 640 272 L 640 240 L 640 240 L 624 240 L 624 240 Q 604 239 590 226 Q 577 212 576 192 Q 577 172 590 158 Q 604 145 624 144 L 640 144 L 640 144 L 640 112 L 640 112 L 640 32 L 640 32 L 640 0 L 640 0 L 608 0 L 0 0 Z M 608 352 L 32 352 L 608 352 L 32 352 L 32 32 L 32 32 L 608 32 L 608 32 L 608 114 L 608 114 Q 580 120 562 141 Q 545 162 544 192 Q 545 222 562 243 Q 580 264 608 270 L 608 352 L 608 352 Z M 480 96 Q 479 81 464 80 Q 449 81 448 96 Q 449 111 464 112 Q 479 111 480 96 L 480 96 Z M 480 160 Q 479 145 464 144 Q 449 145 448 160 Q 449 175 464 176 Q 479 175 480 160 L 480 160 Z M 464 240 Q 479 239 480 224 Q 479 209 464 208 Q 449 209 448 224 Q 449 239 464 240 L 464 240 Z M 480 288 Q 479 273 464 272 Q 449 273 448 288 Q 449 303 464 304 Q 479 303 480 288 L 480 288 Z" />
</svg>