<svg xmlns="http://www.w3.org/2000/svg" viewBox="0 0 576 512">
  <path d="M 176 112 Q 177 71 204 44 L 204 44 L 204 44 Q 231 17 272 16 Q 309 17 335 39 Q 361 62 367 97 L 383 95 L 383 95 Q 376 54 345 27 Q 315 1 272 0 Q 224 1 193 33 Q 161 64 160 112 L 176 112 L 176 112 Z M 384 144 L 388 139 L 384 144 L 388 139 Q 411 113 448 112 L 476 112 L 476 112 L 465 156 L 465 156 L 462 166 L 462 166 L 470 173 L 470 173 Q 501 196 516 230 L 520 240 L 520 240 L 531 240 L 560 240 L 560 368 L 560 368 L 512 368 L 504 368 L 499 374 L 499 374 Q 476 405 442 420 L 432 424 L 432 424 L 432 435 L 432 435 L 432 496 L 432 496 L 336 496 L 336 496 L 336 448 L 336 448 L 344 448 L 352 448 L 352 432 L 352 432 L 344 432 L 224 432 L 224 448 L 224 448 L 232 448 L 240 448 L 240 496 L 240 496 L 144 496 L 144 496 L 144 416 L 144 416 L 144 408 L 144 408 L 138 403 L 138 403 Q 111 383 96 353 Q 80 324 80 288 Q 82 227 122 186 Q 163 146 224 144 L 376 144 L 384 144 Z M 256 464 L 256 448 L 256 464 L 256 448 L 272 448 L 320 448 L 320 464 L 320 464 L 320 496 L 320 496 L 320 512 L 320 512 L 336 512 L 448 512 L 448 496 L 448 496 L 448 435 L 448 435 Q 487 418 512 384 L 560 384 L 576 384 L 576 368 L 576 368 L 576 240 L 576 240 L 576 224 L 576 224 L 560 224 L 531 224 Q 514 185 480 160 L 492 112 L 492 112 L 496 96 L 496 96 L 480 96 L 448 96 Q 404 97 376 128 L 224 128 L 224 128 Q 160 129 116 170 Q 72 210 65 272 L 52 272 L 52 272 Q 37 272 27 261 Q 16 251 16 236 Q 16 221 27 211 Q 37 200 52 200 L 56 200 L 64 200 L 64 184 L 64 184 L 56 184 L 52 184 Q 30 185 15 199 Q 1 214 0 236 Q 1 258 15 273 Q 30 287 52 288 L 64 288 L 64 288 Q 64 328 81 361 Q 98 394 128 416 L 128 496 L 128 496 L 128 512 L 128 512 L 144 512 L 256 512 L 256 496 L 256 496 L 256 464 L 256 464 Z M 416 240 Q 431 241 432 256 Q 431 271 416 272 Q 401 271 400 256 Q 401 241 416 240 L 416 240 Z M 416 288 Q 430 288 439 279 L 439 279 L 439 279 Q 448 270 448 256 Q 448 242 439 233 Q 430 224 416 224 Q 402 224 393 233 Q 384 242 384 256 Q 384 270 393 279 Q 402 288 416 288 L 416 288 Z" />
</svg>