<svg xmlns="http://www.w3.org/2000/svg" viewBox="0 0 576 480">
  <path d="M 432 16 L 16 16 L 432 16 L 16 16 L 16 432 L 16 432 L 320 432 L 320 432 L 320 448 L 320 448 L 16 448 L 0 448 L 0 432 L 0 432 L 0 16 L 0 16 L 0 0 L 0 0 L 16 0 L 448 0 L 448 16 L 448 16 L 448 129 L 448 129 Q 440 131 432 133 L 432 16 L 432 16 Z M 368 224 L 368 256 L 368 224 L 368 256 L 352 256 L 352 256 L 352 96 L 352 96 L 232 96 L 232 96 L 232 185 L 232 185 Q 262 193 264 224 Q 264 241 252 252 Q 241 264 224 264 Q 207 264 196 252 Q 184 241 184 224 Q 186 193 216 185 L 216 88 L 216 88 L 216 80 L 216 80 L 224 80 L 368 80 L 368 88 L 368 88 L 368 224 L 368 224 Z M 320 368 L 88 368 L 320 368 L 80 368 L 80 360 L 80 360 L 80 88 L 80 88 L 80 80 L 80 80 L 88 80 L 160 80 L 160 96 L 160 96 L 152 96 L 96 96 L 96 352 L 96 352 L 320 352 L 320 352 L 320 368 L 320 368 Z M 224 200 Q 202 202 200 224 Q 202 246 224 248 Q 246 246 248 224 Q 246 202 224 200 L 224 200 Z M 464 176 Q 444 177 430 190 L 430 190 L 430 190 Q 417 204 416 224 L 416 288 L 416 288 L 512 288 L 512 288 L 512 224 L 512 224 Q 511 204 498 190 Q 484 177 464 176 L 464 176 Z M 400 224 Q 401 197 419 179 L 419 179 L 419 179 Q 437 161 464 160 Q 491 161 509 179 Q 527 197 528 224 L 528 288 L 528 288 L 560 288 L 576 288 L 576 304 L 576 304 L 576 464 L 576 464 L 576 480 L 576 480 L 560 480 L 352 480 L 352 464 L 352 464 L 352 304 L 352 304 L 352 288 L 352 288 L 368 288 L 400 288 L 400 224 L 400 224 Z M 368 304 L 368 464 L 368 304 L 368 464 L 560 464 L 560 464 L 560 304 L 560 304 L 528 304 L 368 304 Z" />
</svg>