<svg xmlns="http://www.w3.org/2000/svg" viewBox="0 0 512 512">
  <path d="M 16 256 Q 17 189 49 135 L 49 135 L 49 135 Q 81 81 135 49 L 135 49 L 135 49 Q 189 17 256 16 Q 323 17 377 49 Q 431 81 463 135 Q 495 189 496 256 Q 495 332 455 390 Q 415 449 349 477 L 355 492 L 355 492 Q 425 462 468 399 Q 511 337 512 256 Q 511 184 477 127 Q 443 69 385 35 Q 328 1 256 0 Q 184 1 127 35 Q 69 69 35 127 Q 1 184 0 256 Q 1 321 29 375 Q 58 429 107 464 L 117 451 L 117 451 Q 70 418 43 368 Q 17 317 16 256 L 16 256 Z M 176 224 Q 191 223 192 208 Q 191 193 176 192 Q 162 193 160 208 Q 162 223 176 224 L 176 224 Z M 352 208 Q 351 193 336 192 Q 322 193 320 208 Q 322 223 336 224 Q 351 223 352 208 L 352 208 Z M 256 345 L 301 301 L 256 345 L 301 301 L 312 289 L 312 289 L 317 285 L 317 285 L 323 278 L 323 278 L 328 273 L 328 273 L 339 285 L 339 285 L 351 296 L 351 296 L 346 301 L 346 301 L 339 307 L 339 307 L 335 312 L 335 312 L 323 323 L 323 323 L 279 368 L 279 368 L 267 379 L 267 379 L 277 389 L 277 389 L 288 377 L 288 377 L 333 333 L 333 333 L 344 321 L 344 321 L 346 323 L 346 323 L 355 333 L 355 333 L 367 344 L 367 344 L 355 355 L 355 355 L 346 365 L 346 365 L 335 376 L 335 376 L 323 387 L 323 387 L 311 400 L 311 400 L 299 411 L 299 411 L 309 421 L 309 421 L 320 409 L 320 409 L 333 397 L 333 397 L 344 385 L 344 385 L 346 387 L 346 387 L 355 397 L 355 397 L 367 408 L 367 408 L 355 419 L 355 419 L 307 468 L 307 468 Q 278 495 239 496 Q 199 495 172 468 Q 145 441 144 401 L 144 388 L 144 388 L 144 368 L 144 368 L 144 338 L 144 338 L 144 334 L 144 334 L 144 318 L 144 318 L 160 318 L 184 318 L 184 331 L 184 331 L 184 334 L 184 334 L 184 338 L 184 338 L 184 353 L 184 353 L 199 338 L 199 338 L 200 337 L 200 337 L 269 269 L 269 269 L 280 257 L 280 257 L 291 269 L 291 269 L 301 278 L 301 278 L 303 280 L 303 280 L 291 291 L 291 291 L 247 336 L 247 336 L 235 347 L 235 347 L 245 357 L 245 357 L 256 345 L 256 345 Z M 291 246 L 280 235 L 291 246 L 280 235 L 269 246 L 269 246 L 257 257 L 257 257 L 200 315 L 200 315 L 200 302 L 200 302 L 184 302 L 128 302 L 128 318 L 128 318 L 128 338 L 128 338 L 128 368 L 128 368 L 128 388 L 128 388 L 128 401 L 128 401 Q 129 448 161 479 Q 192 511 239 512 Q 285 511 318 479 L 367 431 L 367 431 L 378 419 L 378 419 L 389 408 L 389 408 L 378 397 L 378 397 L 357 376 L 357 376 L 367 367 L 367 367 L 378 355 L 378 355 L 389 344 L 389 344 L 378 333 L 378 333 L 357 312 L 357 312 L 362 307 L 362 307 L 373 296 L 373 296 L 362 285 L 362 285 L 339 262 L 339 262 L 328 251 L 328 251 L 317 262 L 317 262 L 312 267 L 312 267 L 291 246 L 291 246 Z" />
</svg>