<svg xmlns="http://www.w3.org/2000/svg" viewBox="0 0 570 506">
  <path d="M 285 0 L 290 4 L 285 0 L 290 4 L 570 244 L 570 244 L 560 256 L 560 256 L 509 213 L 509 213 L 509 498 L 509 498 L 509 506 L 509 506 L 501 506 L 61 506 L 61 498 L 61 498 L 61 213 L 61 213 L 10 256 L 10 256 L 0 244 L 0 244 L 280 4 L 280 4 L 285 0 L 285 0 Z M 285 21 L 77 199 L 285 21 L 77 199 L 77 490 L 77 490 L 493 490 L 493 490 L 493 199 L 493 199 L 285 21 L 285 21 Z M 285 266 Q 312 265 327 242 Q 339 218 327 194 Q 312 171 285 170 Q 258 171 243 194 Q 231 218 243 242 Q 258 265 285 266 L 285 266 Z M 285 154 Q 321 155 340 186 Q 358 218 340 250 Q 321 281 285 282 Q 249 281 230 250 Q 212 218 230 186 Q 249 155 285 154 L 285 154 Z M 217 330 L 195 394 L 217 330 L 195 394 L 375 394 L 375 394 L 354 330 L 354 330 L 217 330 L 217 330 Z M 365 314 L 392 394 L 365 314 L 392 394 L 397 410 L 397 410 L 380 410 L 173 410 L 178 394 L 178 394 L 205 314 L 205 314 L 365 314 L 365 314 Z" />
</svg>