<svg xmlns="http://www.w3.org/2000/svg" viewBox="0 0 416 505">
  <path d="M 80 130 L 157 186 L 80 130 L 157 186 L 259 186 L 259 186 L 337 130 L 337 130 L 356 116 L 356 116 L 369 106 L 369 106 L 378 119 L 378 119 L 406 158 L 406 158 L 416 171 L 416 171 L 403 180 L 403 180 L 384 194 L 384 194 L 304 252 L 304 252 L 304 282 L 304 282 L 304 298 L 304 298 L 304 322 L 304 322 L 304 323 L 304 323 L 350 376 L 350 376 L 373 402 L 373 402 L 350 428 L 350 428 L 310 474 L 310 474 L 295 493 L 295 493 L 284 505 L 284 505 L 272 494 L 272 494 L 236 463 L 236 463 L 224 453 L 224 453 L 234 441 L 234 441 L 250 422 L 250 422 L 267 402 L 267 402 L 246 378 L 246 378 L 240 378 L 170 378 L 149 402 L 149 402 L 166 422 L 166 422 L 182 441 L 182 441 L 192 453 L 192 453 L 180 463 L 180 463 L 144 494 L 144 494 L 132 505 L 132 505 L 121 493 L 121 493 L 106 474 L 106 474 L 66 428 L 66 428 L 43 402 L 43 402 L 66 376 L 66 376 L 112 323 L 112 323 L 112 322 L 112 322 L 112 298 L 112 298 L 112 282 L 112 282 L 112 252 L 112 252 L 33 194 L 33 194 L 13 180 L 13 180 L 0 171 L 0 171 L 10 158 L 10 158 L 38 119 L 38 119 L 47 106 L 47 106 L 60 116 L 60 116 L 80 130 L 80 130 Z M 128 298 L 128 315 L 128 298 L 128 315 L 182 362 L 182 362 L 234 362 L 234 362 L 288 315 L 288 315 L 288 298 L 288 298 L 128 298 L 128 298 Z M 288 282 L 288 252 L 288 282 L 288 252 L 288 244 L 288 244 L 295 239 L 295 239 L 374 182 L 374 182 L 394 167 L 394 167 L 365 129 L 365 129 L 346 143 L 346 143 L 268 199 L 268 199 L 264 202 L 264 202 L 259 202 L 152 202 L 148 199 L 148 199 L 70 143 L 70 143 L 51 129 L 51 129 L 23 167 L 23 167 L 42 181 L 42 181 L 121 239 L 121 239 L 128 244 L 128 244 L 128 252 L 128 252 L 128 282 L 128 282 L 288 282 L 288 282 Z M 292 333 L 255 365 L 292 333 L 255 365 L 258 368 L 258 368 L 279 392 L 279 392 L 288 402 L 288 402 L 279 413 L 279 413 L 262 433 L 262 433 L 246 451 L 246 451 L 283 482 L 283 482 L 298 464 L 298 464 L 338 418 L 338 418 L 352 402 L 352 402 L 338 386 L 338 386 L 292 334 L 292 334 L 292 333 L 292 333 Z M 161 365 L 125 333 L 161 365 L 125 333 L 124 334 L 124 334 L 78 386 L 78 386 L 64 402 L 64 402 L 78 418 L 78 418 L 118 464 L 118 464 L 133 482 L 133 482 L 170 451 L 170 451 L 154 433 L 154 433 L 137 413 L 137 413 L 128 402 L 128 402 L 137 392 L 137 392 L 158 367 L 158 367 L 161 365 L 161 365 Z M 264 82 Q 263 50 236 34 Q 208 18 180 34 Q 153 50 152 82 Q 153 114 180 130 Q 208 146 236 130 Q 263 114 264 82 L 264 82 Z M 136 82 Q 137 41 172 20 Q 208 0 244 20 Q 279 41 280 82 Q 279 123 244 144 Q 208 164 172 144 Q 137 123 136 82 L 136 82 Z" />
</svg>