<svg xmlns="http://www.w3.org/2000/svg" viewBox="0 0 512 512">
  <path d="M 409.6 312 L 409.6 128 L 435.2 128 L 435.2 102.4 L 409.6 102.4 L 384 102.4 L 346.4 102.4 L 318.4 57.6 L 314.4 51.2 L 307.2 51.2 L 204.8 51.2 L 197.6 51.2 L 193.6 57.6 L 165.6 102.4 L 144 102.4 L 176.8 128 L 384 128 L 384 292 L 409.6 312 L 409.6 312 Z M 409.6 442.4 L 400 435.2 L 384 435.2 L 358.4 435.2 L 128 435.2 L 128 220 L 102.4 200 L 102.4 435.2 L 102.4 460.8 L 128 460.8 L 384 460.8 L 409.6 460.8 L 409.6 442.4 L 409.6 442.4 Z M 166.4 250.4 L 166.4 371.2 L 166.4 384 L 192 384 L 192 371.2 L 192 270.4 L 166.4 250.4 L 166.4 250.4 Z M 243.2 311.2 L 243.2 371.2 L 243.2 384 L 268.8 384 L 268.8 371.2 L 268.8 331.2 L 243.2 311.2 L 243.2 311.2 Z M 345.6 261.6 L 345.6 192 L 345.6 179.2 L 320 179.2 L 320 192 L 320 241.6 L 345.6 261.6 L 345.6 261.6 Z M 196 102.4 L 212 76.8 L 300 76.8 L 316 102.4 L 196 102.4 L 196 102.4 Z M 25.6 59.2 L 16 51.2 L 0 71.2 L 10.4 79.2 L 486.4 452.8 L 496 460.8 L 512 440.8 L 502.4 432.8 L 25.6 59.2 L 25.6 59.2 Z" />
</svg>