<svg xmlns="http://www.w3.org/2000/svg" viewBox="0 0 576 512">
  <path d="M 320 416 L 231 416 L 320 416 L 231 416 L 179 469 L 179 469 L 167 480 L 167 480 L 156 469 L 156 469 L 75 388 L 75 388 L 64 377 L 64 377 L 75 365 L 75 365 L 128 313 L 128 313 L 128 224 L 128 224 L 464 0 L 464 0 L 544 80 L 544 80 L 320 416 L 320 416 Z M 220 405 L 225 400 L 220 405 L 225 400 L 231 400 L 311 400 L 342 354 L 342 354 L 190 202 L 190 202 L 144 233 L 144 233 L 144 313 L 144 313 L 144 319 L 144 319 L 139 324 L 139 324 L 87 377 L 87 377 L 167 457 L 167 457 L 220 405 L 220 405 Z M 351 340 L 523 82 L 351 340 L 523 82 L 462 21 L 462 21 L 204 193 L 204 193 L 351 340 L 351 340 Z M 65 412 L 76 423 L 65 412 L 76 423 L 16 483 L 16 483 L 16 496 L 16 496 L 93 496 L 93 496 L 121 468 L 121 468 L 132 479 L 132 479 L 102 510 L 102 510 L 99 512 L 99 512 L 96 512 L 0 512 L 0 504 L 0 504 L 0 480 L 0 480 L 0 477 L 0 477 L 2 474 L 2 474 L 65 412 L 65 412 Z M 232 496 L 568 496 L 232 496 L 576 496 L 576 512 L 576 512 L 568 512 L 224 512 L 224 496 L 224 496 L 232 496 L 232 496 Z" />
</svg>