<svg xmlns="http://www.w3.org/2000/svg" viewBox="0 0 576 496">
  <path d="M 472 8 L 472 56 L 472 8 L 472 56 L 520 56 L 528 56 L 528 72 L 528 72 L 520 72 L 472 72 L 472 120 L 472 120 L 472 128 L 472 128 L 456 128 L 456 128 L 456 120 L 456 120 L 456 72 L 456 72 L 408 72 L 400 72 L 400 56 L 400 56 L 408 56 L 456 56 L 456 8 L 456 8 L 456 0 L 456 0 L 472 0 L 472 0 L 472 8 L 472 8 Z M 39 240 L 288 351 L 39 240 L 288 351 L 537 240 L 537 240 L 288 130 L 288 130 L 39 240 L 39 240 Z M 288 112 L 556 231 L 288 112 L 556 231 L 576 240 L 576 240 L 556 249 L 556 249 L 288 368 L 288 368 L 20 249 L 20 249 L 0 240 L 0 240 L 20 231 L 20 231 L 288 112 L 288 112 Z M 105 322 L 124 330 L 105 322 L 124 330 L 39 368 L 39 368 L 288 479 L 288 479 L 537 368 L 537 368 L 452 330 L 452 330 L 471 322 L 471 322 L 556 359 L 556 359 L 576 368 L 576 368 L 556 377 L 556 377 L 288 496 L 288 496 L 20 377 L 20 377 L 0 368 L 0 368 L 20 359 L 20 359 L 105 322 L 105 322 Z" />
</svg>