<svg xmlns="http://www.w3.org/2000/svg" viewBox="0 0 576 448">
  <path d="M 0 0 L 576 0 L 0 0 L 576 0 L 576 448 L 576 448 L 0 448 L 0 448 L 0 0 L 0 0 Z M 320 128 L 272 128 L 320 128 L 272 128 L 272 152 L 272 152 L 272 296 L 272 296 L 272 320 L 272 320 L 320 320 L 320 320 L 320 296 L 320 296 L 320 152 L 320 152 L 320 128 L 320 128 Z M 352 128 L 352 152 L 352 128 L 352 152 L 352 232 L 352 232 L 352 296 L 352 296 L 352 320 L 352 320 L 400 320 L 400 320 L 400 296 L 400 296 L 400 256 L 400 256 L 440 256 L 464 256 L 464 208 L 464 208 L 440 208 L 400 208 L 400 176 L 400 176 L 464 176 L 488 176 L 488 128 L 488 128 L 464 128 L 352 128 Z M 128 224 Q 129 204 142 190 L 142 190 L 142 190 Q 156 177 176 176 Q 195 176 208 188 L 240 152 L 240 152 Q 214 129 176 128 Q 135 129 108 156 Q 81 183 80 224 Q 81 265 108 292 Q 135 319 176 320 Q 206 319 229 304 L 240 297 L 240 297 L 240 284 L 240 284 L 240 248 L 240 248 L 240 224 L 240 224 L 192 224 L 192 224 L 192 248 L 192 248 L 192 269 L 192 269 Q 184 272 176 272 Q 156 271 142 258 Q 129 244 128 224 L 128 224 Z" />
</svg>