<svg xmlns="http://www.w3.org/2000/svg" viewBox="0 0 640 512">
  <path d="M 57 275 L 52 284 L 57 275 L 52 284 L 29 330 L 29 330 L 105 315 L 105 315 L 110 314 L 110 314 L 115 316 L 115 316 Q 157 336 208 336 Q 291 334 345 288 Q 398 242 400 176 Q 398 110 345 64 Q 291 18 208 16 Q 125 18 71 64 Q 18 110 16 176 Q 17 227 50 267 L 57 275 L 57 275 Z M 20 348 L 0 352 L 20 348 L 0 352 L 9 334 L 9 334 L 38 277 L 38 277 Q 1 233 0 176 Q 2 101 61 52 Q 120 2 208 0 Q 296 2 355 52 Q 414 101 416 176 Q 414 251 355 300 Q 296 350 208 352 Q 153 352 108 330 L 20 348 L 20 348 Z M 232 383 Q 240 382 248 381 Q 266 431 315 463 Q 364 495 432 496 Q 483 496 525 476 L 530 474 L 530 474 L 535 475 L 535 475 L 611 490 L 611 490 L 588 444 L 588 444 L 583 435 L 583 435 L 590 427 L 590 427 Q 623 387 624 336 Q 622 273 574 228 Q 525 183 448 177 L 448 176 L 448 176 Q 448 168 447 161 Q 530 167 584 216 Q 638 265 640 336 Q 639 393 602 437 L 631 494 L 631 494 L 640 512 L 640 512 L 620 508 L 620 508 L 532 490 L 532 490 Q 487 512 432 512 Q 359 511 305 475 Q 251 440 232 383 L 232 383 Z M 215 91 L 215 106 L 215 91 L 215 106 Q 216 106 218 106 Q 219 106 220 106 Q 224 107 231 108 Q 238 110 242 111 L 239 124 L 239 124 Q 235 123 228 122 Q 222 121 218 120 Q 198 118 186 123 Q 174 129 172 138 Q 171 145 173 149 Q 175 153 180 157 Q 191 163 210 168 Q 210 168 210 168 L 210 168 L 210 168 Q 228 173 244 182 Q 251 187 256 196 Q 260 205 258 216 Q 253 235 235 243 Q 226 246 215 247 L 215 261 L 215 261 L 215 268 L 215 268 L 201 268 L 201 268 L 201 261 L 201 261 L 201 247 L 201 247 Q 199 246 198 246 Q 197 246 196 246 Q 196 246 196 246 Q 183 243 169 238 Q 168 238 167 238 Q 167 238 167 238 Q 167 238 167 238 Q 164 237 162 236 L 156 234 L 156 234 L 160 221 L 160 221 L 167 223 L 167 223 Q 168 223 170 224 Q 171 224 172 224 Q 172 224 172 224 Q 172 224 172 224 Q 172 224 172 224 Q 172 224 172 224 Q 172 224 172 224 Q 172 224 172 224 Q 172 224 172 224 Q 172 224 172 224 Q 172 224 172 225 Q 187 230 198 232 Q 204 233 210 233 L 210 233 L 210 233 Q 222 233 230 230 Q 241 225 243 214 Q 245 206 242 202 Q 241 197 236 194 Q 225 187 206 182 L 204 181 L 204 181 Q 204 181 204 181 Q 186 177 172 169 Q 165 164 160 155 Q 156 147 158 136 Q 162 118 180 110 Q 189 106 201 105 L 201 91 L 201 91 L 201 84 L 201 84 L 215 84 L 215 84 L 215 91 L 215 91 Z" />
</svg>