<svg xmlns="http://www.w3.org/2000/svg" viewBox="0 0 416 512">
  <path d="M 48 0 L 56 0 L 48 0 L 219 0 Q 296 2 347 53 Q 398 104 400 181 Q 400 197 397 212 L 368 385 L 368 385 L 352 383 L 352 383 L 382 209 L 382 209 Q 384 195 384 181 Q 382 111 336 64 Q 289 18 219 16 L 64 16 L 64 16 L 64 35 L 64 35 L 92 49 L 92 49 L 102 54 L 102 54 L 94 62 L 94 62 L 64 91 L 64 91 L 64 243 L 64 243 L 115 280 L 115 280 L 227 194 L 227 194 L 233 189 L 233 189 L 243 201 L 243 201 L 237 206 L 237 206 L 64 340 L 64 340 L 64 343 L 64 343 L 64 368 L 64 368 L 64 384 L 64 384 L 48 384 L 48 384 L 48 368 L 48 368 L 48 343 L 48 343 L 48 338 L 48 338 L 48 336 L 48 336 L 48 336 L 48 336 Q 48 336 48 336 Q 48 336 48 336 Q 48 336 48 336 Q 48 336 48 336 Q 48 336 48 336 Q 48 336 48 336 Q 48 336 48 336 Q 48 336 48 336 Q 48 336 48 336 Q 48 336 48 336 L 48 332 L 48 332 L 51 330 L 51 330 L 102 291 L 102 291 L 51 254 L 51 254 L 48 252 L 48 252 L 48 248 L 48 248 L 48 88 L 48 88 L 48 85 L 48 85 L 50 82 L 50 82 L 75 58 L 75 58 L 52 47 L 52 47 L 48 45 L 48 45 L 48 40 L 48 40 L 48 8 L 48 8 L 48 0 L 48 0 Z M 112 144 Q 113 129 128 128 Q 143 129 144 144 Q 143 159 128 160 Q 113 159 112 144 L 112 144 Z M 16 496 L 400 496 L 16 496 L 400 496 L 400 471 L 400 471 L 361 432 L 361 432 L 55 432 L 55 432 L 16 471 L 16 471 L 16 496 L 16 496 Z M 0 496 L 0 464 L 0 496 L 0 464 L 48 416 L 48 416 L 368 416 L 368 416 L 416 464 L 416 464 L 416 496 L 416 496 L 416 512 L 416 512 L 400 512 L 0 512 L 0 496 L 0 496 Z" />
</svg>