<svg xmlns="http://www.w3.org/2000/svg" viewBox="0 0 512 512">
  <path d="M 16 256 Q 17 189 49 135 L 49 135 L 49 135 Q 81 81 135 49 L 135 49 L 135 49 Q 189 17 256 16 Q 323 17 377 49 Q 431 81 463 135 Q 495 189 496 256 L 496 465 L 496 465 L 487 445 L 487 445 L 473 451 L 473 451 L 497 507 L 497 507 L 512 504 L 512 504 L 512 256 L 512 256 Q 511 184 477 127 Q 443 69 385 35 Q 328 1 256 0 Q 184 1 127 35 Q 69 69 35 127 Q 1 184 0 256 L 0 440 L 0 440 L 15 443 L 15 443 L 39 387 L 39 387 L 25 381 L 25 381 L 16 401 L 16 401 L 16 256 L 16 256 Z M 128 361 L 128 304 L 128 361 L 128 304 L 176 304 L 176 304 L 176 384 L 176 384 L 151 384 L 151 384 L 128 361 L 128 361 Z M 192 384 L 192 304 L 192 384 L 192 304 L 248 304 L 248 304 L 248 384 L 248 384 L 192 384 L 192 384 Z M 304 384 L 288 384 L 304 384 L 264 384 L 264 304 L 264 304 L 320 304 L 320 304 L 320 384 L 320 384 L 304 384 L 304 384 Z M 304 400 L 368 400 L 304 400 L 368 400 L 368 504 L 368 504 L 368 512 L 368 512 L 384 512 L 384 512 L 384 504 L 384 504 L 384 384 L 384 384 L 400 368 L 400 368 L 400 304 L 400 304 L 400 288 L 400 288 L 384 288 L 112 288 L 112 304 L 112 304 L 112 368 L 112 368 L 144 400 L 144 400 L 288 400 L 288 400 L 288 440 L 288 440 L 288 448 L 288 448 L 304 448 L 304 448 L 304 440 L 304 440 L 304 400 L 304 400 Z M 361 384 L 336 384 L 361 384 L 336 384 L 336 304 L 336 304 L 384 304 L 384 304 L 384 361 L 384 361 L 361 384 L 361 384 Z M 176 224 Q 191 223 192 208 Q 191 193 176 192 Q 162 193 160 208 Q 162 223 176 224 L 176 224 Z M 352 208 Q 351 193 336 192 Q 322 193 320 208 Q 322 223 336 224 Q 351 223 352 208 L 352 208 Z M 333 483 Q 297 496 256 496 Q 200 496 153 473 Q 106 450 73 411 L 60 421 L 60 421 Q 96 463 146 487 Q 197 512 256 512 Q 300 512 339 498 L 333 483 L 333 483 Z M 462 380 Q 440 416 408 442 L 418 454 L 418 454 Q 452 426 475 388 L 462 380 L 462 380 Z M 78 264 L 63 229 L 78 264 L 63 229 L 49 235 L 49 235 L 73 291 L 73 291 L 82 312 L 82 312 L 88 290 L 88 290 L 112 202 L 112 202 L 96 198 L 96 198 L 78 264 L 78 264 Z M 368 70 L 352 74 L 368 70 L 352 74 L 376 162 L 376 162 L 382 184 L 382 184 L 391 163 L 391 163 L 415 107 L 415 107 L 401 101 L 401 101 L 386 136 L 386 136 L 368 70 L 368 70 Z" />
</svg>