<svg xmlns="http://www.w3.org/2000/svg" viewBox="0 0 448 448">
  <path d="M 16 16 L 16 432 L 16 16 L 16 432 L 432 432 L 432 432 L 432 16 L 432 16 L 16 16 L 16 16 Z M 0 0 L 16 0 L 0 0 L 448 0 L 448 16 L 448 16 L 448 432 L 448 432 L 448 448 L 448 448 L 432 448 L 0 448 L 0 432 L 0 432 L 0 16 L 0 16 L 0 0 L 0 0 Z M 187 352 L 163 352 L 187 352 L 163 352 L 237 287 L 237 287 Q 230 288 224 288 Q 183 287 156 260 Q 129 233 128 192 Q 129 151 156 124 Q 183 97 224 96 Q 265 97 292 124 Q 319 151 320 192 Q 320 192 320 192 Q 320 192 320 192 Q 320 217 308 238 Q 300 253 287 264 L 187 352 L 187 352 Z M 224 272 Q 269 271 293 232 Q 315 192 293 152 Q 269 113 224 112 Q 179 113 155 152 Q 133 192 155 232 Q 179 271 224 272 L 224 272 Z" />
</svg>