<svg xmlns="http://www.w3.org/2000/svg" viewBox="0 0 640 512">
  <path d="M 64 0 L 64 32 L 64 0 L 64 32 L 0 32 L 0 32 L 0 416 L 0 416 L 384 416 L 384 416 Q 353 375 352 320 Q 354 246 406 200 L 415 192 L 415 192 L 427 192 L 480 192 L 480 224 L 480 224 L 480 288 L 480 288 L 512 312 L 512 312 L 544 288 L 544 288 L 544 224 L 544 224 L 544 192 L 544 192 L 576 192 L 576 192 Q 576 192 576 192 Q 576 192 576 192 L 576 32 L 576 32 L 512 32 L 512 32 L 512 0 L 512 0 L 448 0 L 448 0 L 448 32 L 448 32 L 128 32 L 128 32 L 128 0 L 128 0 L 64 0 L 64 0 Z M 64 448 L 64 512 L 64 448 L 64 512 L 128 512 L 128 512 L 128 448 L 128 448 L 64 448 L 64 448 Z M 427 224 Q 386 261 384 320 Q 386 383 432 420 L 432 512 L 432 512 L 592 512 L 592 512 L 592 420 L 592 420 Q 638 383 640 320 Q 638 261 597 224 L 576 224 L 576 224 L 576 304 L 576 304 L 512 352 L 512 352 L 448 304 L 448 304 L 448 224 L 448 224 L 427 224 L 427 224 Z" />
</svg>