<svg xmlns="http://www.w3.org/2000/svg" viewBox="0 0 512 512">
  <path d="M 112 352 L 112 416 L 112 352 L 112 416 L 112 432 L 112 432 L 96 432 L 48 432 L 48 416 L 48 416 L 48 352 L 48 352 L 16 352 L 16 352 L 16 496 L 16 496 L 496 496 L 496 496 L 496 352 L 496 352 L 464 352 L 464 352 L 464 416 L 464 416 L 464 432 L 464 432 L 448 432 L 400 432 L 400 416 L 400 416 L 400 352 L 400 352 L 384 352 L 384 352 L 384 416 L 384 416 L 384 432 L 384 432 L 368 432 L 320 432 L 320 416 L 320 416 L 320 352 L 320 352 L 272 352 L 272 352 L 272 416 L 272 416 L 272 432 L 272 432 L 256 432 L 208 432 L 208 416 L 208 416 L 208 352 L 208 352 L 192 352 L 192 352 L 192 416 L 192 416 L 192 432 L 192 432 L 176 432 L 128 432 L 128 416 L 128 416 L 128 352 L 128 352 L 112 352 L 112 352 Z M 448 352 L 416 352 L 448 352 L 416 352 L 416 416 L 416 416 L 448 416 L 448 416 L 448 352 L 448 352 Z M 464 336 L 496 336 L 464 336 L 496 336 L 496 298 L 496 298 L 377 238 L 377 238 Q 368 234 368 224 L 368 192 L 368 192 Q 366 117 316 68 Q 267 18 192 16 Q 117 18 68 68 Q 18 117 16 192 L 16 336 L 16 336 L 48 336 L 464 336 Z M 336 416 L 368 416 L 336 416 L 368 416 L 368 352 L 368 352 L 336 352 L 336 352 L 336 416 L 336 416 Z M 256 352 L 224 352 L 256 352 L 224 352 L 224 416 L 224 416 L 256 416 L 256 416 L 256 352 L 256 352 Z M 144 416 L 176 416 L 144 416 L 176 416 L 176 352 L 176 352 L 144 352 L 144 352 L 144 416 L 144 416 Z M 96 352 L 64 352 L 96 352 L 64 352 L 64 416 L 64 416 L 96 416 L 96 416 L 96 352 L 96 352 Z M 512 288 L 512 336 L 512 288 L 512 336 L 512 344 L 512 344 L 512 352 L 512 352 L 512 496 L 512 496 L 512 512 L 512 512 L 496 512 L 0 512 L 0 496 L 0 496 L 0 352 L 0 352 L 0 344 L 0 344 L 0 336 L 0 336 L 0 192 L 0 192 Q 2 110 56 56 Q 110 2 192 0 Q 274 2 328 56 Q 382 110 384 192 L 384 224 L 384 224 L 512 288 L 512 288 Z" />
</svg>