<svg xmlns="http://www.w3.org/2000/svg" viewBox="0 0 640 512">
  <path d="M 16 8 L 16 0 L 16 8 L 16 0 L 0 0 L 0 0 L 0 8 L 0 8 L 0 176 L 0 176 L 0 184 L 0 184 L 0 192 L 0 192 L 0 432 L 0 432 L 0 440 L 0 440 L 0 448 L 0 448 L 0 504 L 0 504 L 0 512 L 0 512 L 16 512 L 16 512 L 16 504 L 16 504 L 16 448 L 16 448 L 624 448 L 624 448 L 624 504 L 624 504 L 624 512 L 624 512 L 640 512 L 640 512 L 640 504 L 640 504 L 640 448 L 640 448 L 640 440 L 640 440 L 640 432 L 640 432 L 640 192 L 640 192 L 640 184 L 640 184 L 640 176 L 640 176 L 640 8 L 640 8 L 640 0 L 640 0 L 624 0 L 624 0 L 624 8 L 624 8 L 624 176 L 624 176 L 16 176 L 16 176 L 16 8 L 16 8 Z M 16 192 L 624 192 L 16 192 L 624 192 L 624 432 L 624 432 L 16 432 L 16 432 L 16 192 L 16 192 Z" />
</svg>