<svg xmlns="http://www.w3.org/2000/svg" viewBox="0 0 512 512">
  <path d="M 164 8 L 256 57 L 164 8 L 256 57 L 348 8 L 348 8 L 362 0 L 362 0 L 367 16 L 367 16 L 397 115 L 397 115 L 496 145 L 496 145 L 512 150 L 512 150 L 504 164 L 504 164 L 455 256 L 455 256 L 504 348 L 504 348 L 512 362 L 512 362 L 496 367 L 496 367 L 397 397 L 397 397 L 367 496 L 367 496 L 362 512 L 362 512 L 348 504 L 348 504 L 256 455 L 256 455 L 164 504 L 164 504 L 150 512 L 150 512 L 145 496 L 145 496 L 115 397 L 115 397 L 16 367 L 16 367 L 0 362 L 0 362 L 8 348 L 8 348 L 57 256 L 57 256 L 8 164 L 8 164 L 0 150 L 0 150 L 16 145 L 16 145 L 115 115 L 115 115 L 145 16 L 145 16 L 150 0 L 150 0 L 164 8 L 164 8 Z M 264 71 L 256 75 L 264 71 L 256 75 L 248 71 L 248 71 L 160 23 L 160 23 L 131 120 L 131 120 L 128 128 L 128 128 L 120 131 L 120 131 L 23 160 L 23 160 L 71 249 L 71 249 L 75 256 L 75 256 L 71 264 L 71 264 L 23 352 L 23 352 L 120 381 L 120 381 L 128 384 L 128 384 L 131 392 L 131 392 L 160 489 L 160 489 L 249 441 L 249 441 L 256 437 L 256 437 L 264 441 L 264 441 L 353 489 L 353 489 L 382 392 L 382 392 L 384 384 L 384 384 L 392 381 L 392 381 L 489 352 L 489 352 L 441 264 L 441 264 L 437 256 L 437 256 L 441 248 L 441 248 L 489 159 L 489 159 L 392 130 L 392 130 L 384 128 L 384 128 L 382 120 L 382 120 L 353 23 L 353 23 L 264 71 L 264 71 Z M 256 144 Q 286 144 312 159 L 312 159 L 312 159 Q 338 174 353 200 Q 368 226 368 256 Q 368 286 353 312 Q 338 338 312 353 Q 286 368 256 368 Q 226 368 200 353 Q 174 338 159 312 Q 144 286 144 256 Q 144 226 159 200 Q 174 174 200 159 Q 226 144 256 144 L 256 144 Z M 352 256 Q 352 230 339 208 L 339 208 L 339 208 Q 326 186 304 173 Q 281 160 256 160 Q 231 160 208 173 Q 186 186 173 208 Q 160 230 160 256 Q 160 282 173 304 Q 186 326 208 339 Q 231 352 256 352 Q 281 352 304 339 Q 326 326 339 304 Q 352 282 352 256 L 352 256 Z" />
</svg>