<svg xmlns="http://www.w3.org/2000/svg" viewBox="0 0 640 448">
  <path d="M 592 48 L 592 102 L 592 48 L 592 102 Q 554 128 552 176 Q 554 224 592 250 L 592 304 L 592 304 L 144 304 L 144 304 L 144 48 L 144 48 L 592 48 L 592 48 Z M 640 88 L 640 48 L 640 88 L 640 48 L 640 0 L 640 0 L 592 0 L 96 0 L 96 48 L 96 48 L 96 304 L 96 304 L 96 352 L 96 352 L 144 352 L 640 352 L 640 304 L 640 304 L 640 264 L 640 264 L 640 216 L 640 216 Q 623 216 612 204 Q 600 193 600 176 Q 600 159 612 148 Q 623 136 640 136 L 640 88 L 640 88 Z M 496 96 Q 511 95 512 80 Q 511 65 496 64 Q 481 65 480 80 Q 481 95 496 96 L 496 96 Z M 496 160 Q 511 159 512 144 Q 511 129 496 128 Q 481 129 480 144 Q 481 159 496 160 L 496 160 Z M 512 208 Q 511 193 496 192 Q 481 193 480 208 Q 481 223 496 224 Q 511 223 512 208 L 512 208 Z M 496 288 Q 511 287 512 272 Q 511 257 496 256 Q 481 257 480 272 Q 481 287 496 288 L 496 288 Z M 48 88 L 48 64 L 48 88 L 48 64 L 0 64 L 0 64 L 0 88 L 0 88 L 0 424 L 0 424 L 0 448 L 0 448 L 24 448 L 544 448 L 544 400 L 544 400 L 520 400 L 48 400 L 48 88 L 48 88 Z" />
</svg>