<svg xmlns="http://www.w3.org/2000/svg" viewBox="0 0 512 448">
  <path d="M 16 16 L 16 256 L 16 16 L 16 256 L 496 256 L 496 256 L 496 16 L 496 16 L 16 16 L 16 16 Z M 16 272 L 16 432 L 16 272 L 16 432 L 496 432 L 496 432 L 496 272 L 496 272 L 16 272 L 16 272 Z M 0 256 L 0 16 L 0 256 L 0 16 L 0 0 L 0 0 L 16 0 L 512 0 L 512 16 L 512 16 L 512 256 L 512 256 L 512 272 L 512 272 L 512 432 L 512 432 L 512 448 L 512 448 L 496 448 L 0 448 L 0 432 L 0 432 L 0 272 L 0 272 L 0 256 L 0 256 Z M 320 336 Q 305 337 304 352 Q 305 367 320 368 Q 335 367 336 352 Q 335 337 320 336 L 320 336 Z M 352 352 Q 352 366 343 375 L 343 375 L 343 375 Q 334 384 320 384 Q 306 384 297 375 Q 288 366 288 352 Q 288 338 297 329 Q 306 320 320 320 Q 334 320 343 329 Q 352 338 352 352 L 352 352 Z M 400 352 Q 401 367 416 368 Q 431 367 432 352 Q 431 337 416 336 Q 401 337 400 352 L 400 352 Z M 416 384 Q 402 384 393 375 L 393 375 L 393 375 Q 384 366 384 352 Q 384 338 393 329 Q 402 320 416 320 Q 430 320 439 329 Q 448 338 448 352 Q 448 366 439 375 Q 430 384 416 384 L 416 384 Z" />
</svg>