<svg xmlns="http://www.w3.org/2000/svg" viewBox="0 0 512 512">
  <path d="M 28.444445 440.8889 L 0 440.8889 L 0 412.44446 L 0 71.111115 L 0 42.666668 L 28.444445 42.666668 L 298.66666 42.666668 L 398.22223 142.22223 L 398.22223 185.77777 Q 391.1111 184.88889 384 184.88889 Q 376.8889 184.88889 369.77777 185.77777 L 369.77777 153.77777 L 287.1111 71.111115 L 284.44446 71.111115 L 284.44446 170.66667 L 284.44446 184.88889 L 270.22223 184.88889 L 71.111115 184.88889 L 56.88889 184.88889 L 56.88889 170.66667 L 56.88889 71.111115 L 28.444445 71.111115 L 28.444445 412.44446 L 244.44444 412.44446 Q 252.44444 427.55554 263.1111 440.8889 L 28.444445 440.8889 L 28.444445 440.8889 Z M 199.11111 227.55556 Q 233.77777 228.44444 254.22223 254.22223 Q 245.33333 267.55554 239.11111 282.66666 Q 227.55556 257.77777 199.11111 256 Q 181.33333 256 168.88889 268.44446 Q 157.33333 280.8889 156.44444 298.66666 Q 157.33333 316.44446 168.88889 328.8889 Q 181.33333 340.44446 199.11111 341.33334 Q 216 340.44446 227.55556 329.77777 Q 227.55556 336 227.55556 341.33334 Q 227.55556 352 229.33333 363.55554 Q 215.11111 369.77777 199.11111 369.77777 Q 168.88889 368.8889 148.44444 349.33334 Q 128.88889 328.8889 128 298.66666 Q 128.88889 268.44446 148.44444 248 Q 168.88889 228.44444 199.11111 227.55556 L 199.11111 227.55556 Z M 85.333336 71.111115 L 85.333336 156.44444 L 256 156.44444 L 256 71.111115 L 85.333336 71.111115 L 85.333336 71.111115 Z M 384 440.8889 Q 410.66666 440.8889 433.77777 427.55554 L 433.77777 427.55554 Q 456.8889 414.22223 470.22223 391.1111 Q 483.55554 368 483.55554 341.33334 Q 483.55554 314.66666 470.22223 291.55554 Q 456.8889 268.44446 433.77777 255.11111 Q 410.66666 241.77777 384 241.77777 Q 357.33334 241.77777 334.22223 255.11111 Q 311.1111 268.44446 297.77777 291.55554 Q 284.44446 314.66666 284.44446 341.33334 Q 284.44446 368 297.77777 391.1111 Q 311.1111 414.22223 334.22223 427.55554 Q 357.33334 440.8889 384 440.8889 L 384 440.8889 Z M 384 213.33333 Q 418.66666 213.33333 448 230.22223 L 448 230.22223 Q 477.33334 247.11111 495.1111 277.33334 Q 512 307.55554 512 341.33334 Q 512 375.1111 495.1111 405.33334 Q 477.33334 435.55554 448 452.44446 Q 418.66666 469.33334 384 469.33334 Q 349.33334 469.33334 320 452.44446 Q 290.66666 435.55554 272.8889 405.33334 Q 256 375.1111 256 341.33334 Q 256 307.55554 272.8889 277.33334 Q 290.66666 247.11111 320 230.22223 Q 349.33334 213.33333 384 213.33333 L 384 213.33333 Z M 391.1111 271.1111 L 400.8889 281.77777 L 400.8889 281.77777 L 401.77777 281.77777 L 401.77777 281.77777 L 401.77777 281.77777 L 401.77777 281.77777 L 401.77777 281.77777 L 401.77777 281.77777 L 401.77777 282.66666 L 401.77777 282.66666 L 401.77777 282.66666 L 401.77777 282.66666 L 402.66666 282.66666 L 402.66666 282.66666 L 402.66666 282.66666 L 402.66666 282.66666 L 402.66666 282.66666 L 402.66666 282.66666 L 402.66666 283.55554 L 402.66666 283.55554 L 402.66666 283.55554 L 402.66666 283.55554 L 403.55554 283.55554 L 403.55554 283.55554 L 403.55554 283.55554 L 403.55554 283.55554 L 403.55554 283.55554 L 403.55554 283.55554 L 403.55554 284.44446 L 403.55554 284.44446 L 403.55554 284.44446 L 403.55554 284.44446 L 404.44446 284.44446 L 404.44446 284.44446 L 404.44446 284.44446 L 404.44446 284.44446 L 404.44446 284.44446 L 404.44446 284.44446 L 404.44446 285.33334 L 404.44446 285.33334 L 404.44446 285.33334 L 404.44446 285.33334 L 405.33334 285.33334 L 405.33334 285.33334 L 405.33334 285.33334 L 405.33334 285.33334 L 405.33334 285.33334 L 405.33334 285.33334 L 405.33334 286.22223 L 405.33334 286.22223 L 405.33334 286.22223 L 405.33334 286.22223 L 406.22223 286.22223 L 406.22223 286.22223 L 406.22223 286.22223 L 406.22223 286.22223 L 406.22223 286.22223 L 406.22223 286.22223 L 406.22223 287.1111 L 406.22223 287.1111 L 406.22223 287.1111 L 406.22223 287.1111 L 407.1111 287.1111 L 407.1111 287.1111 L 407.1111 287.1111 L 407.1111 287.1111 L 407.1111 287.1111 L 407.1111 287.1111 L 407.1111 288 L 407.1111 288 L 407.1111 288 L 407.1111 288 L 408 288 L 408 288 L 408 288 L 408 288 L 408 288 L 408 288 L 408 288.8889 L 408 288.8889 L 408 288.8889 L 408 288.8889 L 408.8889 288.8889 L 408.8889 288.8889 L 408.8889 288.8889 L 408.8889 288.8889 L 408.8889 288.8889 L 408.8889 288.8889 L 408.8889 289.77777 L 408.8889 289.77777 L 408.8889 289.77777 L 408.8889 289.77777 L 409.77777 289.77777 L 409.77777 289.77777 L 409.77777 289.77777 L 409.77777 289.77777 L 409.77777 289.77777 L 409.77777 289.77777 L 409.77777 290.66666 L 409.77777 290.66666 L 409.77777 290.66666 L 409.77777 290.66666 L 410.66666 290.66666 L 410.66666 290.66666 L 410.66666 290.66666 L 410.66666 290.66666 L 410.66666 290.66666 L 410.66666 290.66666 L 410.66666 291.55554 L 410.66666 291.55554 L 410.66666 291.55554 L 410.66666 291.55554 L 411.55554 291.55554 L 411.55554 291.55554 L 411.55554 291.55554 L 411.55554 291.55554 L 411.55554 291.55554 L 411.55554 291.55554 L 411.55554 292.44446 L 411.55554 292.44446 L 411.55554 292.44446 L 411.55554 292.44446 L 412.44446 292.44446 L 412.44446 292.44446 L 412.44446 292.44446 L 412.44446 292.44446 L 412.44446 292.44446 L 412.44446 292.44446 L 412.44446 293.33334 L 412.44446 293.33334 L 412.44446 293.33334 L 412.44446 293.33334 L 413.33334 293.33334 L 413.33334 293.33334 L 413.33334 293.33334 L 413.33334 293.33334 L 413.33334 293.33334 L 413.33334 293.33334 L 413.33334 294.22223 L 413.33334 294.22223 L 413.33334 294.22223 L 413.33334 294.22223 L 414.22223 294.22223 L 414.22223 294.22223 L 414.22223 294.22223 L 414.22223 294.22223 L 414.22223 294.22223 L 414.22223 294.22223 L 414.22223 295.1111 L 414.22223 295.1111 L 414.22223 295.1111 L 414.22223 295.1111 L 415.1111 295.1111 L 415.1111 295.1111 L 415.1111 295.1111 L 415.1111 295.1111 L 415.1111 295.1111 L 415.1111 295.1111 L 415.1111 296 L 415.1111 296 L 415.1111 296 L 415.1111 296 L 416 296 L 416 296 L 416 296 L 416 296 L 416 296 L 416 296 L 416 296.8889 L 416 296.8889 L 416 296.8889 L 416 296.8889 L 416.8889 296.8889 L 416.8889 296.8889 L 416.8889 296.8889 L 416.8889 296.8889 L 416.8889 296.8889 L 416.8889 296.8889 L 416.8889 297.77777 L 416.8889 297.77777 L 416.8889 297.77777 L 416.8889 297.77777 L 417.77777 297.77777 L 417.77777 297.77777 L 417.77777 297.77777 L 417.77777 297.77777 L 417.77777 297.77777 L 417.77777 297.77777 L 417.77777 298.66666 L 417.77777 298.66666 L 417.77777 298.66666 L 417.77777 298.66666 L 418.66666 298.66666 L 418.66666 298.66666 L 418.66666 298.66666 L 418.66666 298.66666 L 418.66666 298.66666 L 418.66666 298.66666 L 418.66666 299.55554 L 418.66666 299.55554 L 418.66666 299.55554 L 418.66666 299.55554 L 419.55554 299.55554 L 419.55554 299.55554 L 419.55554 299.55554 L 419.55554 299.55554 L 419.55554 299.55554 L 419.55554 299.55554 L 419.55554 300.44446 L 419.55554 300.44446 L 419.55554 300.44446 L 419.55554 300.44446 L 420.44446 300.44446 L 420.44446 300.44446 L 420.44446 300.44446 L 420.44446 300.44446 L 420.44446 300.44446 L 420.44446 300.44446 L 420.44446 301.33334 L 420.44446 301.33334 L 420.44446 301.33334 L 420.44446 301.33334 L 421.33334 301.33334 L 421.33334 301.33334 L 421.33334 301.33334 L 421.33334 301.33334 L 421.33334 301.33334 L 421.33334 301.33334 L 421.33334 302.22223 L 421.33334 302.22223 L 421.33334 302.22223 L 421.33334 302.22223 L 422.22223 302.22223 L 422.22223 302.22223 L 422.22223 302.22223 L 422.22223 302.22223 L 422.22223 302.22223 L 422.22223 302.22223 L 422.22223 303.1111 L 422.22223 303.1111 L 422.22223 303.1111 L 422.22223 303.1111 L 423.1111 303.1111 L 423.1111 303.1111 L 423.1111 303.1111 L 423.1111 303.1111 L 423.1111 303.1111 L 423.1111 303.1111 L 423.1111 304 L 423.1111 304 L 423.1111 304 L 423.1111 304 L 424 304 L 424 304 L 424 304 L 424 304 L 424 304 L 424 304 L 424 304.8889 L 424 304.8889 L 424 304.8889 L 424 304.8889 L 424.8889 304.8889 L 424.8889 304.8889 L 424.8889 304.8889 L 424.8889 304.8889 L 424.8889 304.8889 L 424.8889 304.8889 L 424.8889 305.77777 L 424.8889 305.77777 L 424.8889 305.77777 L 424.8889 305.77777 L 425.77777 305.77777 L 425.77777 305.77777 L 425.77777 305.77777 L 425.77777 305.77777 L 425.77777 305.77777 L 425.77777 305.77777 L 425.77777 306.66666 L 425.77777 306.66666 L 425.77777 306.66666 L 425.77777 306.66666 L 426.66666 306.66666 L 426.66666 306.66666 L 426.66666 306.66666 L 426.66666 306.66666 L 426.66666 306.66666 L 426.66666 306.66666 L 426.66666 307.55554 L 426.66666 307.55554 L 426.66666 307.55554 L 426.66666 307.55554 L 427.55554 307.55554 L 427.55554 307.55554 L 427.55554 307.55554 L 427.55554 307.55554 L 427.55554 307.55554 L 427.55554 307.55554 L 427.55554 308.44446 L 427.55554 308.44446 L 427.55554 308.44446 L 427.55554 308.44446 L 428.44446 308.44446 L 428.44446 308.44446 L 428.44446 308.44446 L 428.44446 308.44446 L 428.44446 308.44446 L 428.44446 308.44446 L 428.44446 309.33334 L 428.44446 309.33334 L 428.44446 309.33334 L 428.44446 309.33334 L 429.33334 309.33334 L 429.33334 309.33334 L 429.33334 309.33334 L 429.33334 309.33334 L 429.33334 309.33334 L 429.33334 309.33334 L 429.33334 310.22223 L 429.33334 310.22223 L 429.33334 310.22223 L 429.33334 310.22223 L 430.22223 310.22223 L 430.22223 310.22223 L 430.22223 310.22223 L 430.22223 310.22223 L 430.22223 310.22223 L 430.22223 310.22223 L 430.22223 311.1111 L 430.22223 311.1111 L 430.22223 311.1111 L 430.22223 311.1111 L 431.1111 311.1111 L 431.1111 311.1111 L 431.1111 311.1111 L 431.1111 311.1111 L 431.1111 311.1111 L 431.1111 311.1111 L 431.1111 312 L 431.1111 312 L 431.1111 312 L 431.1111 312 L 432 312 L 432 312 L 432 312 L 432 312 L 432 312 L 432 312 L 432 312.8889 L 432 312.8889 L 432 312.8889 L 432 312.8889 L 432.8889 312.8889 L 432.8889 312.8889 L 432.8889 312.8889 L 432.8889 312.8889 L 432.8889 312.8889 L 432.8889 312.8889 L 432.8889 313.77777 L 432.8889 313.77777 L 432.8889 313.77777 L 432.8889 313.77777 L 433.77777 313.77777 L 433.77777 313.77777 L 433.77777 313.77777 L 433.77777 313.77777 L 433.77777 313.77777 L 433.77777 313.77777 L 433.77777 314.66666 L 433.77777 314.66666 L 433.77777 314.66666 L 433.77777 314.66666 L 434.66666 314.66666 L 434.66666 314.66666 L 434.66666 314.66666 L 434.66666 314.66666 L 434.66666 314.66666 L 434.66666 314.66666 L 434.66666 315.55554 L 434.66666 315.55554 L 434.66666 315.55554 L 434.66666 315.55554 L 435.55554 315.55554 L 435.55554 315.55554 L 435.55554 315.55554 L 435.55554 315.55554 L 435.55554 315.55554 L 435.55554 315.55554 L 435.55554 316.44446 L 435.55554 316.44446 L 435.55554 316.44446 L 435.55554 316.44446 L 436.44446 316.44446 L 436.44446 316.44446 L 436.44446 316.44446 L 436.44446 316.44446 L 436.44446 316.44446 L 436.44446 316.44446 L 436.44446 317.33334 L 436.44446 317.33334 L 436.44446 317.33334 L 436.44446 317.33334 L 437.33334 317.33334 L 437.33334 317.33334 L 437.33334 317.33334 L 437.33334 317.33334 L 437.33334 317.33334 L 437.33334 317.33334 L 437.33334 318.22223 L 437.33334 318.22223 L 437.33334 318.22223 L 437.33334 318.22223 L 438.22223 318.22223 L 438.22223 318.22223 L 438.22223 318.22223 L 438.22223 318.22223 L 438.22223 318.22223 L 438.22223 318.22223 L 438.22223 319.1111 L 438.22223 319.1111 L 438.22223 319.1111 L 438.22223 319.1111 L 439.1111 319.1111 L 439.1111 319.1111 L 439.1111 319.1111 L 439.1111 319.1111 L 439.1111 319.1111 L 439.1111 319.1111 L 439.1111 320 L 439.1111 320 L 439.1111 320 L 439.1111 320 L 440 320 L 440 320 L 440 320 L 440 320 L 440 320 L 440 320 L 440 320.8889 L 440 320.8889 L 440 320.8889 L 440 320.8889 L 440 320.8889 L 440.8889 320.8889 L 440.8889 320.8889 L 440.8889 320.8889 L 440.8889 320.8889 L 440.8889 320.8889 L 440.8889 320.8889 L 440.8889 320.8889 L 440.8889 320.8889 L 440.8889 320.8889 L 440.8889 320.8889 L 440.8889 320.8889 L 440.8889 320.8889 L 440.8889 320.8889 L 440.8889 320.8889 L 440.8889 320.8889 L 440.8889 320.8889 L 440.8889 320.8889 L 440.8889 320.8889 L 440.8889 320.8889 L 440.8889 320.8889 L 440.8889 320.8889 L 440.8889 320.8889 L 440.8889 320.8889 L 440.8889 320.8889 L 440.8889 320.8889 L 440.8889 320.8889 L 440.8889 320.8889 L 440.8889 320.8889 L 440.8889 320.8889 L 440.8889 320.8889 L 440.8889 320.8889 L 440.8889 320.8889 L 440.8889 320.8889 L 440.8889 320.8889 L 440.8889 320.8889 L 440.8889 320.8889 L 440.8889 320.8889 L 440.8889 320.8889 L 440.8889 320.8889 L 440.8889 320.8889 L 440.8889 320.8889 L 440.8889 320.8889 L 440.8889 320.8889 L 440.8889 320.8889 L 440.8889 320.8889 L 440.8889 320.8889 L 440.8889 320.8889 L 440.8889 320.8889 L 440.8889 320.8889 L 440.8889 320.8889 L 440.8889 320.8889 L 440.8889 320.8889 L 440.8889 320.8889 L 440.8889 320.8889 L 440.8889 320.8889 L 440.8889 320.8889 L 440.8889 320.8889 L 440.8889 320.8889 L 440.8889 320.8889 L 440.8889 320.8889 L 440.8889 320.8889 L 440.8889 320.8889 L 440.8889 320.8889 L 440.8889 320.8889 L 440.8889 320.8889 L 440.8889 320.8889 L 440.8889 320.8889 L 440.8889 320.8889 L 440.8889 320.8889 L 440.8889 341.33334 L 450.66666 331.55554 L 461.33334 341.33334 L 450.66666 351.1111 L 400.8889 400.8889 L 391.1111 411.55554 L 370.66666 391.1111 L 381.33334 381.33334 L 406.22223 355.55554 L 327.1111 355.55554 L 312.8889 355.55554 L 312.8889 327.1111 L 327.1111 327.1111 L 406.22223 327.1111 L 406.22223 327.1111 L 406.22223 327.1111 L 406.22223 327.1111 L 406.22223 327.1111 L 406.22223 326.22223 L 406.22223 326.22223 L 406.22223 326.22223 L 406.22223 326.22223 L 405.33334 326.22223 L 405.33334 326.22223 L 405.33334 326.22223 L 405.33334 326.22223 L 405.33334 326.22223 L 405.33334 326.22223 L 405.33334 325.33334 L 405.33334 325.33334 L 405.33334 325.33334 L 405.33334 325.33334 L 404.44446 325.33334 L 404.44446 325.33334 L 404.44446 325.33334 L 404.44446 325.33334 L 404.44446 325.33334 L 404.44446 325.33334 L 404.44446 324.44446 L 404.44446 324.44446 L 404.44446 324.44446 L 404.44446 324.44446 L 403.55554 324.44446 L 403.55554 324.44446 L 403.55554 324.44446 L 403.55554 324.44446 L 403.55554 324.44446 L 403.55554 324.44446 L 403.55554 323.55554 L 403.55554 323.55554 L 403.55554 323.55554 L 403.55554 323.55554 L 402.66666 323.55554 L 402.66666 323.55554 L 402.66666 323.55554 L 402.66666 323.55554 L 402.66666 323.55554 L 402.66666 323.55554 L 402.66666 322.66666 L 402.66666 322.66666 L 402.66666 322.66666 L 402.66666 322.66666 L 401.77777 322.66666 L 401.77777 322.66666 L 401.77777 322.66666 L 401.77777 322.66666 L 401.77777 322.66666 L 401.77777 322.66666 L 401.77777 321.77777 L 401.77777 321.77777 L 401.77777 321.77777 L 401.77777 321.77777 L 400.8889 321.77777 L 400.8889 321.77777 L 400.8889 321.77777 L 400.8889 321.77777 L 400.8889 321.77777 L 400.8889 321.77777 L 400.8889 320.8889 L 400.8889 320.8889 L 400.8889 320.8889 L 400.8889 320.8889 L 400 320.8889 L 400 320.8889 L 400 320.8889 L 400 320.8889 L 400 320.8889 L 400 320.8889 L 400 320 L 400 320 L 400 320 L 400 320 L 399.1111 320 L 399.1111 320 L 399.1111 320 L 399.1111 320 L 399.1111 320 L 399.1111 320 L 399.1111 319.1111 L 399.1111 319.1111 L 399.1111 319.1111 L 399.1111 319.1111 L 398.22223 319.1111 L 398.22223 319.1111 L 398.22223 319.1111 L 398.22223 319.1111 L 398.22223 319.1111 L 398.22223 319.1111 L 398.22223 318.22223 L 398.22223 318.22223 L 398.22223 318.22223 L 398.22223 318.22223 L 397.33334 318.22223 L 397.33334 318.22223 L 397.33334 318.22223 L 397.33334 318.22223 L 397.33334 318.22223 L 397.33334 318.22223 L 397.33334 317.33334 L 397.33334 317.33334 L 397.33334 317.33334 L 397.33334 317.33334 L 396.44446 317.33334 L 396.44446 317.33334 L 396.44446 317.33334 L 396.44446 317.33334 L 396.44446 317.33334 L 396.44446 317.33334 L 396.44446 316.44446 L 396.44446 316.44446 L 396.44446 316.44446 L 396.44446 316.44446 L 395.55554 316.44446 L 395.55554 316.44446 L 395.55554 316.44446 L 395.55554 316.44446 L 395.55554 316.44446 L 395.55554 316.44446 L 395.55554 315.55554 L 395.55554 315.55554 L 395.55554 315.55554 L 395.55554 315.55554 L 394.66666 315.55554 L 394.66666 315.55554 L 394.66666 315.55554 L 394.66666 315.55554 L 394.66666 315.55554 L 394.66666 315.55554 L 394.66666 314.66666 L 394.66666 314.66666 L 394.66666 314.66666 L 394.66666 314.66666 L 393.77777 314.66666 L 393.77777 314.66666 L 393.77777 314.66666 L 393.77777 314.66666 L 393.77777 314.66666 L 393.77777 314.66666 L 393.77777 313.77777 L 393.77777 313.77777 L 393.77777 313.77777 L 393.77777 313.77777 L 392.8889 313.77777 L 392.8889 313.77777 L 392.8889 313.77777 L 392.8889 313.77777 L 392.8889 313.77777 L 392.8889 313.77777 L 392.8889 312.8889 L 392.8889 312.8889 L 392.8889 312.8889 L 392.8889 312.8889 L 392 312.8889 L 392 312.8889 L 392 312.8889 L 392 312.8889 L 392 312.8889 L 392 312.8889 L 392 312 L 392 312 L 392 312 L 392 312 L 391.1111 312 L 391.1111 312 L 391.1111 312 L 391.1111 312 L 391.1111 312 L 391.1111 312 L 391.1111 311.1111 L 391.1111 311.1111 L 391.1111 311.1111 L 391.1111 311.1111 L 390.22223 311.1111 L 390.22223 311.1111 L 390.22223 311.1111 L 390.22223 311.1111 L 390.22223 311.1111 L 390.22223 311.1111 L 390.22223 310.22223 L 390.22223 310.22223 L 390.22223 310.22223 L 390.22223 310.22223 L 389.33334 310.22223 L 389.33334 310.22223 L 389.33334 310.22223 L 389.33334 310.22223 L 389.33334 310.22223 L 389.33334 310.22223 L 389.33334 309.33334 L 389.33334 309.33334 L 389.33334 309.33334 L 389.33334 309.33334 L 388.44446 309.33334 L 388.44446 309.33334 L 388.44446 309.33334 L 388.44446 309.33334 L 370.66666 291.55554 L 391.1111 271.1111 L 391.1111 271.1111 Z" />
</svg>