<svg xmlns="http://www.w3.org/2000/svg" viewBox="0 0 448 448">
  <path d="M 16 432 L 16 16 L 16 432 L 16 16 L 432 16 L 432 16 L 432 432 L 432 432 L 16 432 L 16 432 Z M 0 448 L 16 448 L 0 448 L 448 448 L 448 432 L 448 432 L 448 16 L 448 16 L 448 0 L 448 0 L 432 0 L 0 0 L 0 16 L 0 16 L 0 432 L 0 432 L 0 448 L 0 448 Z M 136 320 L 280 320 L 136 320 L 288 320 L 288 304 L 288 304 L 280 304 L 155 304 L 318 142 L 318 142 L 323 136 L 323 136 L 312 125 L 312 125 L 306 130 L 306 130 L 144 293 L 144 293 L 144 168 L 144 168 L 144 160 L 144 160 L 128 160 L 128 160 L 128 168 L 128 168 L 128 312 L 128 312 L 128 320 L 128 320 L 136 320 L 136 320 Z" />
</svg>