<svg xmlns="http://www.w3.org/2000/svg" viewBox="0 0 512 512">
  <path d="M 16 224 Q 18 136 77 77 L 77 77 L 77 77 Q 136 18 224 16 L 248 16 L 248 16 Q 321 18 371 67 Q 420 116 424 189 L 424 192 L 424 192 L 427 194 L 427 194 L 496 256 L 496 256 L 496 320 L 496 320 L 440 320 L 432 320 L 432 328 L 432 328 L 432 432 L 432 432 L 312 432 L 304 432 L 304 440 L 304 440 L 304 504 L 304 504 L 304 512 L 304 512 L 320 512 L 320 512 L 320 504 L 320 504 L 320 448 L 320 448 L 440 448 L 448 448 L 448 440 L 448 440 L 448 336 L 448 336 L 504 336 L 512 336 L 512 328 L 512 328 L 512 252 L 512 252 L 512 249 L 512 249 L 509 246 L 509 246 L 440 185 L 440 185 Q 434 107 381 54 Q 327 2 248 0 L 224 0 L 224 0 Q 161 1 111 31 Q 60 60 31 111 Q 1 161 0 224 Q 2 315 64 381 L 64 504 L 64 504 L 64 512 L 64 512 L 80 512 L 80 512 L 80 504 L 80 504 L 80 378 L 80 378 L 80 374 L 80 374 L 78 372 L 78 372 Q 18 310 16 224 L 16 224 Z M 336 224 Q 351 223 352 208 Q 351 193 336 192 Q 321 193 320 208 Q 321 223 336 224 L 336 224 Z" />
</svg>