<svg xmlns="http://www.w3.org/2000/svg" viewBox="0 0 640 512">
  <path d="M 16 5 L 10 0 L 16 5 L 10 0 L 0 13 L 0 13 L 6 18 L 6 18 L 624 507 L 624 507 L 630 512 L 630 512 L 640 500 L 640 500 L 634 495 L 634 495 L 16 5 L 16 5 Z M 576 312 L 576 304 L 576 312 L 576 304 L 576 296 L 576 296 L 576 216 L 576 216 L 576 208 L 576 208 L 576 200 L 576 200 L 576 120 L 576 120 L 576 112 L 576 112 L 576 104 L 576 104 L 576 48 L 576 48 L 576 32 L 576 32 L 560 32 L 153 32 L 173 48 L 173 48 L 176 48 L 176 48 L 176 51 L 176 51 L 192 63 L 192 63 L 192 48 L 192 48 L 448 48 L 448 48 L 448 112 L 448 112 L 448 208 L 448 208 L 448 265 L 448 265 L 464 278 L 464 278 L 464 216 L 464 216 L 560 216 L 560 216 L 560 296 L 560 296 L 487 296 L 487 296 L 507 312 L 507 312 L 560 312 L 560 312 L 560 354 L 560 354 L 576 366 L 576 366 L 576 312 L 576 312 Z M 192 304 L 192 247 L 192 304 L 192 247 L 176 234 L 176 234 L 176 296 L 176 296 L 80 296 L 80 296 L 80 216 L 80 216 L 153 216 L 153 216 L 133 200 L 133 200 L 80 200 L 80 200 L 80 158 L 80 158 L 64 146 L 64 146 L 64 200 L 64 200 L 64 208 L 64 208 L 64 216 L 64 216 L 64 296 L 64 296 L 64 304 L 64 304 L 64 312 L 64 312 L 64 392 L 64 392 L 64 400 L 64 400 L 64 408 L 64 408 L 64 464 L 64 464 L 64 480 L 64 480 L 80 480 L 488 480 L 467 464 L 467 464 L 464 464 L 464 464 L 464 461 L 464 461 L 448 449 L 448 449 L 448 464 L 448 464 L 192 464 L 192 464 L 192 400 L 192 400 L 192 304 L 192 304 Z M 464 48 L 560 48 L 464 48 L 560 48 L 560 104 L 560 104 L 464 104 L 464 104 L 464 48 L 464 48 Z M 560 120 L 560 200 L 560 120 L 560 200 L 464 200 L 464 200 L 464 120 L 464 120 L 560 120 L 560 120 Z M 176 464 L 80 464 L 176 464 L 80 464 L 80 408 L 80 408 L 176 408 L 176 408 L 176 464 L 176 464 Z M 80 392 L 80 312 L 80 392 L 80 312 L 176 312 L 176 312 L 176 392 L 176 392 L 80 392 L 80 392 Z" />
</svg>