<svg xmlns="http://www.w3.org/2000/svg" viewBox="0 0 576 506">
  <path d="M 293 4 L 288 0 L 293 4 L 288 0 L 283 3 L 283 3 L 67 155 L 67 155 L 61 160 L 61 160 L 70 173 L 70 173 L 77 169 L 77 169 L 112 144 L 112 144 L 112 246 L 112 246 L 115 247 L 115 247 L 116 248 L 116 248 Q 116 248 116 248 Q 116 248 116 248 Q 116 248 116 248 Q 116 248 116 248 Q 122 253 128 257 L 128 132 L 128 132 L 288 20 L 288 20 L 448 132 L 448 132 L 448 257 L 448 257 Q 452 254 457 251 Q 458 250 460 248 L 464 246 L 464 246 L 464 144 L 464 144 L 499 169 L 499 169 L 506 173 L 506 173 L 515 160 L 515 160 L 509 156 L 509 156 L 293 4 L 293 4 Z M 96 308 L 95 309 L 96 308 L 95 309 Q 95 310 94 311 Q 88 319 82 327 Q 75 336 62 348 Q 49 360 33 369 Q 17 378 0 378 L 0 394 L 0 394 Q 22 393 40 383 Q 59 373 73 360 Q 88 345 96 335 Q 104 345 119 360 Q 133 373 152 383 Q 170 393 192 394 Q 214 393 232 383 Q 251 373 265 360 Q 280 345 288 335 Q 296 345 311 360 Q 325 373 344 383 Q 362 393 384 394 Q 406 393 424 383 Q 443 373 457 360 Q 472 345 480 335 Q 488 345 503 360 Q 517 373 536 383 Q 554 393 576 394 L 576 378 L 576 378 Q 559 378 543 369 Q 527 360 514 348 Q 501 336 494 327 Q 487 319 481 310 Q 481 309 481 309 Q 481 309 481 309 Q 481 309 481 309 L 480 308 L 480 308 L 480 309 L 480 309 Q 479 309 479 310 Q 473 319 466 327 Q 459 336 446 348 Q 433 360 417 369 Q 401 378 384 378 Q 367 378 351 369 Q 335 360 322 348 Q 309 336 302 327 Q 295 319 289 310 Q 289 309 289 309 L 288 308 L 288 308 L 288 309 L 288 309 Q 288 309 288 309 Q 288 309 288 309 Q 287 309 287 310 Q 281 319 274 327 Q 267 336 254 348 Q 241 360 225 369 Q 209 378 192 378 Q 175 378 159 369 Q 143 360 130 348 Q 117 336 110 327 Q 103 319 97 310 Q 97 309 97 309 L 96 308 L 96 308 Z M 97 421 L 96 420 L 97 421 L 96 420 L 95 421 L 95 421 Q 95 422 94 423 Q 88 431 82 439 Q 75 448 62 460 Q 49 472 33 481 Q 17 490 0 490 L 0 506 L 0 506 Q 22 505 40 495 Q 59 485 73 472 Q 88 457 96 447 Q 104 457 119 472 Q 133 485 152 495 Q 170 505 192 506 Q 214 505 232 495 Q 251 485 265 472 Q 280 457 288 447 Q 296 457 311 472 Q 325 485 344 495 Q 362 505 384 506 Q 406 505 424 495 Q 443 485 457 472 Q 472 457 480 447 Q 488 457 503 472 Q 517 485 536 495 Q 554 505 576 506 L 576 490 L 576 490 Q 559 490 543 481 Q 527 472 514 460 Q 501 448 494 439 Q 487 431 481 422 Q 481 421 481 421 L 480 420 L 480 420 L 480 421 L 480 421 Q 479 422 478 423 Q 473 431 466 439 Q 459 448 446 460 Q 433 472 417 481 Q 401 490 384 490 Q 367 490 351 481 Q 335 472 322 460 Q 309 448 302 439 Q 295 431 289 422 Q 289 421 289 421 Q 289 421 288 420 Q 288 420 288 420 L 288 421 L 288 421 Q 287 421 287 422 Q 281 431 274 439 Q 267 448 254 460 Q 241 472 225 481 Q 209 490 192 490 Q 175 490 159 481 Q 143 472 130 460 Q 117 448 110 439 Q 103 431 97 422 Q 97 421 97 421 L 97 421 Z" />
</svg>