<svg xmlns="http://www.w3.org/2000/svg" viewBox="0 0 576 512">
  <path d="M 441 16 Q 416 16 400 35 L 200 272 L 200 272 L 348 272 L 348 272 L 482 112 L 482 112 Q 496 96 496 75 L 496 71 L 496 71 Q 495 47 480 32 Q 465 17 441 16 L 441 16 Z M 355 288 L 348 288 L 355 288 L 166 288 L 179 272 L 179 272 L 188 262 L 188 262 L 387 25 L 387 25 Q 409 1 441 0 Q 471 1 491 21 Q 511 41 512 71 L 512 75 L 512 75 Q 512 102 494 123 L 360 282 L 360 282 L 355 288 L 355 288 Z M 171 320 L 192 320 L 171 320 L 192 320 L 40 491 L 40 491 Q 50 489 60 487 Q 109 477 166 454 Q 217 433 255 400 Q 292 367 302 320 L 318 320 L 318 320 Q 304 386 248 426 Q 192 466 127 486 Q 63 505 23 510 Q 6 512 0 512 L 15 495 L 15 495 L 171 320 L 171 320 Z M 232 496 L 312 496 L 232 496 L 320 496 L 320 512 L 320 512 L 312 512 L 224 512 L 224 496 L 224 496 L 232 496 L 232 496 Z M 360 496 L 440 496 L 360 496 L 448 496 L 448 512 L 448 512 L 440 512 L 352 512 L 352 496 L 352 496 L 360 496 L 360 496 Z M 488 496 L 568 496 L 488 496 L 576 496 L 576 512 L 576 512 L 568 512 L 480 512 L 480 496 L 480 496 L 488 496 L 488 496 Z" />
</svg>