<svg xmlns="http://www.w3.org/2000/svg" viewBox="0 0 640 520">
  <path d="M 232 64 Q 231 41 212 29 Q 192 19 172 29 Q 153 41 152 64 Q 153 87 172 99 Q 192 109 212 99 Q 231 87 232 64 L 232 64 Z M 136 64 Q 137 32 164 16 Q 192 0 220 16 Q 247 32 248 64 Q 247 96 220 112 Q 192 128 164 112 Q 137 96 136 64 L 136 64 Z M 133 136 L 251 136 L 133 136 L 256 136 L 258 141 L 258 141 L 343 317 L 343 317 L 347 324 L 347 324 L 332 331 L 332 331 L 329 324 L 329 324 L 246 152 L 246 152 L 138 152 L 138 152 L 55 324 L 55 324 L 52 331 L 52 331 L 37 324 L 37 324 L 41 317 L 41 317 L 126 141 L 126 141 L 128 136 L 128 136 L 133 136 L 133 136 Z M 136 248 L 136 256 L 136 248 L 136 256 L 136 504 L 136 504 L 168 504 L 168 504 L 168 352 L 168 352 L 168 344 L 168 344 L 176 344 L 216 344 L 216 352 L 216 352 L 216 504 L 216 504 L 248 504 L 248 504 L 248 256 L 248 256 L 248 248 L 248 248 L 264 248 L 264 248 L 264 256 L 264 256 L 264 504 L 264 504 L 632 504 L 640 504 L 640 520 L 640 520 L 632 520 L 0 520 L 0 504 L 0 504 L 8 504 L 120 504 L 120 256 L 120 256 L 120 248 L 120 248 L 136 248 L 136 248 Z M 184 504 L 200 504 L 184 504 L 200 504 L 200 360 L 200 360 L 184 360 L 184 360 L 184 504 L 184 504 Z M 598 147 L 603 153 L 598 147 L 603 153 L 592 163 L 592 163 L 586 158 L 586 158 L 504 69 L 504 69 L 504 416 L 504 416 L 504 424 L 504 424 L 488 424 L 488 424 L 488 416 L 488 416 L 488 69 L 488 69 L 406 158 L 406 158 L 401 163 L 401 163 L 389 153 L 389 153 L 394 147 L 394 147 L 490 43 L 490 43 L 496 36 L 496 36 L 502 43 L 502 43 L 598 147 L 598 147 Z" />
</svg>