<svg xmlns="http://www.w3.org/2000/svg" viewBox="0 0 288 432">
  <path d="M 16 120 Q 17 76 46 46 L 46 46 L 46 46 Q 76 17 120 16 L 168 16 L 168 16 Q 212 17 242 46 Q 271 76 272 120 L 272 126 L 272 126 Q 271 171 235 198 L 139 266 L 139 266 L 136 268 L 136 268 L 136 272 L 136 272 L 136 336 L 136 336 L 136 344 L 136 344 L 152 344 L 152 344 L 152 336 L 152 336 L 152 276 L 152 276 L 244 211 L 244 211 Q 287 179 288 126 L 288 120 L 288 120 Q 287 69 253 35 Q 219 1 168 0 L 120 0 L 120 0 Q 69 1 35 35 Q 1 69 0 120 L 0 128 L 0 128 L 16 128 L 16 128 L 16 120 L 16 120 Z M 160 400 L 128 400 L 160 400 L 128 400 L 128 432 L 128 432 L 160 432 L 160 432 L 160 400 L 160 400 Z" />
</svg>