<svg xmlns="http://www.w3.org/2000/svg" viewBox="0 0 576 448">
  <path d="M 224 256 L 224 184 L 224 256 L 224 184 L 448 184 L 448 184 L 448 256 L 448 256 L 448 336 L 448 336 L 224 336 L 224 336 L 224 256 L 224 256 Z M 224 168 L 224 96 L 224 168 L 224 96 L 224 16 L 224 16 L 448 16 L 448 16 L 448 96 L 448 96 L 448 168 L 448 168 L 224 168 L 224 168 Z M 464 248 L 464 184 L 464 248 L 464 184 L 560 184 L 560 184 L 560 248 L 560 248 L 464 248 L 464 248 Z M 464 168 L 464 104 L 464 168 L 464 104 L 560 104 L 560 104 L 560 168 L 560 168 L 464 168 L 464 168 Z M 576 176 L 576 168 L 576 176 L 576 168 L 576 104 L 576 104 L 576 96 L 576 96 L 576 88 L 576 88 L 576 16 L 576 16 L 576 0 L 576 0 L 560 0 L 96 0 L 96 16 L 96 16 L 96 88 L 96 88 L 96 96 L 96 96 L 96 104 L 96 104 L 96 168 L 96 168 L 96 176 L 96 176 L 96 184 L 96 184 L 96 248 L 96 248 L 96 256 L 96 256 L 96 264 L 96 264 L 96 336 L 96 336 L 96 352 L 96 352 L 112 352 L 576 352 L 576 336 L 576 336 L 576 264 L 576 264 L 576 256 L 576 256 L 576 248 L 576 248 L 576 184 L 576 184 L 576 176 L 576 176 Z M 560 16 L 560 88 L 560 16 L 560 88 L 464 88 L 464 88 L 464 16 L 464 16 L 560 16 L 560 16 Z M 112 16 L 208 16 L 112 16 L 208 16 L 208 88 L 208 88 L 112 88 L 112 88 L 112 16 L 112 16 Z M 112 104 L 208 104 L 112 104 L 208 104 L 208 168 L 208 168 L 112 168 L 112 168 L 112 104 L 112 104 Z M 208 184 L 208 248 L 208 184 L 208 248 L 112 248 L 112 248 L 112 184 L 112 184 L 208 184 L 208 184 Z M 112 336 L 112 264 L 112 336 L 112 264 L 208 264 L 208 264 L 208 336 L 208 336 L 112 336 L 112 336 Z M 560 336 L 464 336 L 560 336 L 464 336 L 464 264 L 464 264 L 560 264 L 560 264 L 560 336 L 560 336 Z M 16 96 L 0 96 L 16 96 L 0 96 L 0 112 L 0 112 L 0 432 L 0 432 L 0 448 L 0 448 L 16 448 L 480 448 L 480 432 L 480 432 L 480 384 L 480 384 L 464 384 L 464 384 L 464 432 L 464 432 L 16 432 L 16 432 L 16 112 L 16 112 L 64 112 L 64 112 L 64 96 L 64 96 L 16 96 L 16 96 Z" />
</svg>