<svg xmlns="http://www.w3.org/2000/svg" viewBox="0 0 507 384">
  <path d="M 0 0 L 8 0 L 0 0 L 164 0 L 167 3 L 167 3 L 292 184 L 292 184 L 477 184 L 477 184 L 410 118 L 410 118 L 405 112 L 405 112 L 416 101 L 416 101 L 422 106 L 422 106 L 502 186 L 502 186 L 507 192 L 507 192 L 502 198 L 502 198 L 422 278 L 422 278 L 416 284 L 416 284 L 405 272 L 405 272 L 410 266 L 410 266 L 477 200 L 477 200 L 292 200 L 292 200 L 167 381 L 167 381 L 164 384 L 164 384 L 160 384 L 0 384 L 0 368 L 0 368 L 8 368 L 156 368 L 278 192 L 278 192 L 156 16 L 156 16 L 96 16 L 0 16 L 0 0 L 0 0 Z" />
</svg>