<svg xmlns="http://www.w3.org/2000/svg" viewBox="0 0 512 512">
  <path d="M 288 16 L 224 16 L 288 16 L 224 16 L 224 42 L 224 42 Q 224 42 224 42 Q 224 42 224 42 L 224 59 L 224 59 Q 224 59 224 59 Q 224 59 224 59 L 224 80 L 224 80 L 288 80 L 288 80 L 288 16 L 288 16 Z M 208 45 L 208 16 L 208 45 L 208 16 L 208 0 L 208 0 L 224 0 L 304 0 L 304 16 L 304 16 L 304 45 L 304 45 Q 365 60 409 103 Q 452 147 467 208 L 496 208 L 512 208 L 512 224 L 512 224 L 512 288 L 512 288 L 512 304 L 512 304 L 496 304 L 467 304 Q 452 365 409 409 Q 365 452 304 467 L 304 496 L 304 496 L 304 512 L 304 512 L 288 512 L 208 512 L 208 496 L 208 496 L 208 467 L 208 467 Q 147 452 103 409 Q 60 365 45 304 L 16 304 L 0 304 L 0 288 L 0 288 L 0 224 L 0 224 L 0 208 L 0 208 L 16 208 L 45 208 Q 60 147 103 103 Q 147 60 208 45 L 208 45 Z M 62 208 L 80 208 L 62 208 L 96 208 L 96 224 L 96 224 L 96 288 L 96 288 L 96 304 L 96 304 L 80 304 L 62 304 Q 76 359 115 397 Q 153 436 208 450 L 208 432 L 208 432 L 208 416 L 208 416 L 224 416 L 304 416 L 304 432 L 304 432 L 304 450 L 304 450 Q 359 436 397 397 Q 436 359 450 304 L 432 304 L 416 304 L 416 288 L 416 288 L 416 224 L 416 224 L 416 208 L 416 208 L 432 208 L 450 208 Q 436 153 397 115 Q 359 76 304 62 L 304 80 L 304 80 L 304 96 L 304 96 L 288 96 L 208 96 L 208 80 L 208 80 L 208 62 L 208 62 Q 153 76 115 115 Q 76 153 62 208 L 62 208 Z M 59 288 L 80 288 L 59 288 L 80 288 L 80 224 L 80 224 L 16 224 L 16 224 L 16 288 L 16 288 L 42 288 L 42 288 Q 42 288 42 288 Q 42 288 42 288 L 59 288 L 59 288 Q 59 288 59 288 Q 59 288 59 288 L 59 288 Z M 224 470 L 224 496 L 224 470 L 224 496 L 288 496 L 288 496 L 288 432 L 288 432 L 224 432 L 224 432 L 224 454 L 224 454 Q 224 454 224 454 Q 224 454 224 454 L 224 470 L 224 470 Q 224 470 224 470 Q 224 470 224 470 L 224 470 Z M 470 288 L 496 288 L 470 288 L 496 288 L 496 224 L 496 224 L 432 224 L 432 224 L 432 288 L 432 288 L 454 288 L 454 288 Q 454 288 454 288 Q 454 288 454 288 L 470 288 L 470 288 Q 470 288 470 288 Q 470 288 470 288 L 470 288 Z" />
</svg>