<svg xmlns="http://www.w3.org/2000/svg" viewBox="0 0 448 448">
  <path d="M 211 0 L 216 0 L 211 0 L 236 0 L 238 5 L 238 5 L 322 208 L 322 208 L 440 208 L 448 208 L 448 224 L 448 224 L 440 224 L 329 224 L 362 304 L 362 304 L 440 304 L 448 304 L 448 320 L 448 320 L 440 320 L 369 320 L 421 448 L 421 448 L 404 448 L 404 448 L 351 320 L 351 320 L 97 320 L 97 320 L 44 448 L 44 448 L 27 448 L 27 448 L 79 320 L 79 320 L 8 320 L 0 320 L 0 304 L 0 304 L 8 304 L 86 304 L 119 224 L 119 224 L 8 224 L 0 224 L 0 208 L 0 208 L 8 208 L 125 208 L 209 5 L 209 5 L 211 0 L 211 0 Z M 226 16 L 221 16 L 226 16 L 221 16 L 143 208 L 143 208 L 305 208 L 305 208 L 226 16 L 226 16 Z M 103 304 L 345 304 L 103 304 L 345 304 L 312 224 L 312 224 L 136 224 L 136 224 L 103 304 L 103 304 Z" />
</svg>