<svg xmlns="http://www.w3.org/2000/svg" viewBox="0 0 576 512">
  <path d="M 240 16 L 336 16 L 240 16 L 336 16 L 336 112 L 336 112 L 240 112 L 240 112 L 240 16 L 240 16 Z M 224 0 L 224 16 L 224 0 L 224 16 L 224 112 L 224 112 L 224 128 L 224 128 L 240 128 L 352 128 L 352 112 L 352 112 L 352 16 L 352 16 L 352 0 L 352 0 L 336 0 L 224 0 Z M 192 64 L 16 64 L 192 64 L 0 64 L 0 80 L 0 80 L 0 496 L 0 496 L 0 512 L 0 512 L 16 512 L 576 512 L 576 496 L 576 496 L 576 80 L 576 80 L 576 64 L 576 64 L 560 64 L 384 64 L 384 80 L 384 80 L 560 80 L 560 80 L 560 496 L 560 496 L 16 496 L 16 496 L 16 80 L 16 80 L 192 80 L 192 80 L 192 64 L 192 64 Z M 240 256 Q 241 229 264 214 Q 288 202 312 214 Q 335 229 336 256 Q 335 283 312 298 Q 288 310 264 298 Q 241 283 240 256 L 240 256 Z M 352 256 Q 351 220 320 201 Q 288 183 256 201 Q 225 220 224 256 Q 225 292 256 311 Q 288 329 320 311 Q 351 292 352 256 L 352 256 Z M 214 368 L 367 368 L 214 368 L 367 368 L 388 432 L 388 432 L 405 432 L 405 432 L 379 352 L 379 352 L 203 352 L 203 352 L 176 432 L 176 432 L 193 432 L 193 432 L 214 368 L 214 368 Z" />
</svg>