<svg xmlns="http://www.w3.org/2000/svg" viewBox="0 0 640 512">
  <path d="M 80 320 L 96 320 L 80 320 L 96 320 L 96 336 L 96 336 L 96 366 L 96 366 L 96 384 L 96 384 L 112 376 L 112 376 L 224 320 L 224 320 L 400 320 L 416 320 L 416 304 L 416 304 L 416 16 L 416 16 L 416 0 L 416 0 L 400 0 L 0 0 L 0 16 L 0 16 L 0 304 L 0 304 L 0 320 L 0 320 L 16 320 L 80 320 Z M 16 304 L 16 16 L 16 304 L 16 16 L 400 16 L 400 16 L 400 304 L 400 304 L 224 304 L 220 304 L 217 306 L 217 306 L 112 358 L 112 358 L 112 320 L 112 320 L 112 304 L 112 304 L 96 304 L 16 304 Z M 256 352 L 256 432 L 256 352 L 256 432 L 256 448 L 256 448 L 272 448 L 416 448 L 528 504 L 528 504 L 544 512 L 544 512 L 544 494 L 544 494 L 544 464 L 544 464 L 544 448 L 544 448 L 560 448 L 640 448 L 640 432 L 640 432 L 640 144 L 640 144 L 640 128 L 640 128 L 624 128 L 448 128 L 448 144 L 448 144 L 624 144 L 624 144 L 624 432 L 624 432 L 544 432 L 528 432 L 528 448 L 528 448 L 528 486 L 528 486 L 423 434 L 423 434 L 420 432 L 420 432 L 416 432 L 272 432 L 272 352 L 272 352 L 256 352 L 256 352 Z M 143 125 L 143 130 L 143 125 L 143 130 L 159 130 L 159 130 L 159 125 L 159 125 Q 162 101 185 99 L 225 99 L 225 99 Q 238 99 247 108 Q 256 117 257 131 Q 256 147 242 157 L 204 182 L 204 182 L 200 185 L 200 185 L 200 189 L 200 189 L 200 210 L 200 210 L 200 218 L 200 218 L 216 218 L 216 218 L 216 210 L 216 210 L 216 193 L 216 193 L 251 170 L 251 170 Q 272 156 273 130 Q 272 110 259 97 Q 245 83 225 83 L 185 83 L 185 83 Q 167 83 156 95 Q 144 107 143 125 L 143 125 Z M 197 233 L 197 255 L 197 233 L 197 255 L 219 255 L 219 255 L 219 233 L 219 233 L 197 233 L 197 233 Z" />
</svg>