<svg xmlns="http://www.w3.org/2000/svg" viewBox="0 0 384 512">
  <path d="M 16 496 L 16 16 L 16 496 L 16 16 L 208 16 L 208 16 L 208 168 L 208 168 L 208 176 L 208 176 L 216 176 L 368 176 L 368 496 L 368 496 L 16 496 L 16 496 Z M 224 23 L 361 160 L 224 23 L 361 160 L 224 160 L 224 160 L 224 23 L 224 23 Z M 224 0 L 16 0 L 224 0 L 0 0 L 0 16 L 0 16 L 0 496 L 0 496 L 0 512 L 0 512 L 16 512 L 384 512 L 384 496 L 384 496 L 384 160 L 384 160 L 224 0 L 224 0 Z M 176 400 Q 142 399 119 377 L 119 377 L 119 377 Q 97 354 96 320 Q 97 286 119 263 Q 142 241 176 240 Q 210 241 233 263 Q 255 286 256 320 Q 255 349 238 371 L 238 371 L 238 371 L 226 382 L 226 382 L 227 382 L 227 382 Q 205 399 176 400 L 176 400 Z M 176 416 Q 212 415 238 393 L 282 438 L 282 438 L 288 444 L 288 444 L 299 432 L 299 432 L 294 427 L 294 427 L 249 382 L 249 382 Q 271 356 272 320 Q 271 279 244 252 Q 217 225 176 224 Q 135 225 108 252 Q 81 279 80 320 Q 81 361 108 388 Q 135 415 176 416 L 176 416 Z" />
</svg>