<svg xmlns="http://www.w3.org/2000/svg" viewBox="0 0 576 506">
  <path d="M 288 0 L 305 17 L 288 0 L 305 17 L 385 97 L 385 97 L 402 114 L 402 114 L 368 148 L 368 148 L 351 131 L 351 131 L 312 92 L 312 92 L 312 322 L 312 322 L 312 346 L 312 346 L 264 346 L 264 346 L 264 322 L 264 322 L 264 92 L 264 92 L 225 131 L 225 131 L 208 148 L 208 148 L 174 114 L 174 114 L 191 97 L 191 97 L 271 17 L 271 17 L 288 0 L 288 0 Z M 48 186 L 192 186 L 48 186 L 192 186 L 192 234 L 192 234 L 48 234 L 48 234 L 48 395 L 48 395 Q 44 397 41 399 Q 20 408 0 409 L 0 234 L 0 234 L 0 186 L 0 186 L 48 186 L 48 186 Z M 576 409 Q 556 408 535 399 Q 532 397 528 395 Q 528 395 528 395 L 528 234 L 528 234 L 384 234 L 384 234 L 384 186 L 384 186 L 528 186 L 576 186 L 576 234 L 576 234 L 576 409 L 576 409 Z M 79 483 Q 64 491 44 499 L 44 499 L 44 499 Q 24 506 0 506 L 0 458 L 0 458 Q 31 456 55 441 Q 77 428 95 411 Q 95 410 96 410 L 96 410 L 96 410 L 96 410 L 96 410 Q 115 428 137 441 Q 161 456 192 458 Q 222 456 247 441 Q 269 428 287 411 Q 287 411 287 410 L 288 410 L 289 410 Q 289 411 289 411 Q 307 428 329 441 Q 353 456 384 458 Q 414 456 439 441 Q 461 428 479 411 Q 479 411 479 410 L 480 410 L 481 410 Q 481 411 481 411 Q 499 428 521 441 Q 545 456 576 458 L 576 506 L 576 506 Q 552 506 532 499 Q 512 491 497 483 Q 487 477 480 472 Q 473 477 463 483 Q 448 492 428 499 Q 408 506 384 506 Q 360 506 340 499 Q 320 491 305 483 Q 295 477 288 472 Q 281 477 271 483 Q 256 492 236 499 Q 216 506 192 506 Q 168 506 148 499 Q 128 491 113 483 Q 103 477 96 472 Q 89 477 79 483 L 79 483 Z" />
</svg>