<svg xmlns="http://www.w3.org/2000/svg" viewBox="0 0 512 512">
  <path d="M 384 459 L 357 432 L 384 459 L 357 432 L 296 432 L 288 432 L 288 424 L 288 424 L 288 360 L 288 360 L 288 357 L 288 357 L 290 354 L 290 354 L 354 290 L 354 290 L 357 288 L 357 288 L 360 288 L 432 288 L 432 296 L 432 296 L 432 320 L 432 320 L 487 320 L 487 320 Q 496 289 496 256 Q 494 167 441 103 Q 388 39 304 21 L 304 104 L 304 104 L 304 107 L 304 107 L 302 110 L 302 110 L 272 139 L 272 139 L 272 216 L 272 216 L 272 224 L 272 224 L 264 224 L 224 224 L 224 312 L 224 312 L 224 320 L 224 320 L 216 320 L 149 320 L 146 318 L 146 318 L 117 288 L 117 288 L 18 288 L 18 288 Q 32 378 97 436 Q 163 494 256 496 Q 327 495 384 459 L 384 459 Z M 120 272 L 123 272 L 120 272 L 123 272 L 126 274 L 126 274 L 155 304 L 155 304 L 208 304 L 208 304 L 208 216 L 208 216 L 208 208 L 208 208 L 216 208 L 256 208 L 256 136 L 256 136 L 256 133 L 256 133 L 258 130 L 258 130 L 288 101 L 288 101 L 288 18 L 288 18 Q 272 16 256 16 Q 189 17 135 49 Q 81 81 49 135 Q 17 189 16 256 Q 16 264 17 272 L 120 272 L 120 272 Z M 397 450 Q 457 406 482 336 L 424 336 L 416 336 L 416 328 L 416 328 L 416 304 L 416 304 L 363 304 L 363 304 L 304 363 L 304 363 L 304 416 L 304 416 L 360 416 L 363 416 L 366 418 L 366 418 L 397 450 L 397 450 Z M 0 256 Q 1 186 34 128 L 34 128 L 34 128 Q 68 70 128 34 Q 189 0 256 0 Q 323 0 384 34 Q 444 70 478 128 Q 511 186 512 256 Q 511 326 478 384 Q 444 442 384 478 Q 323 512 256 512 Q 189 512 128 478 Q 68 442 34 384 Q 1 326 0 256 L 0 256 Z M 336 152 L 336 184 L 336 152 L 336 184 L 336 192 L 336 192 L 320 192 L 320 192 L 320 184 L 320 184 L 320 152 L 320 152 L 320 144 L 320 144 L 336 144 L 336 144 L 336 152 L 336 152 Z M 288 264 L 288 296 L 288 264 L 288 296 L 288 304 L 288 304 L 272 304 L 272 304 L 272 296 L 272 296 L 272 264 L 272 264 L 272 256 L 272 256 L 288 256 L 288 256 L 288 264 L 288 264 Z M 152 352 L 184 352 L 152 352 L 192 352 L 192 368 L 192 368 L 184 368 L 144 368 L 144 352 L 144 352 L 152 352 L 152 352 Z" />
</svg>