<svg xmlns="http://www.w3.org/2000/svg" viewBox="0 0 512 400">
  <path d="M 8 105 L 0 103 L 8 105 L 0 103 L 2 95 L 2 95 L 26 10 L 26 10 L 28 2 L 28 2 L 35 4 L 35 4 L 78 16 L 78 16 L 265 68 L 265 68 L 314 3 L 314 3 L 316 0 L 316 0 L 320 0 L 352 0 Q 411 1 452 44 L 476 70 L 476 70 Q 511 109 512 162 L 512 264 L 512 264 Q 511 322 472 360 Q 434 399 376 400 L 344 400 L 240 400 L 240 392 L 240 392 L 240 328 L 240 328 L 208 328 L 200 328 L 200 320 L 200 320 L 200 258 L 200 258 L 60 268 L 60 268 L 16 271 L 16 271 L 8 272 L 8 272 L 7 264 L 7 264 L 1 176 L 1 176 L 0 168 L 0 168 L 8 167 L 8 167 L 52 164 L 52 164 L 188 154 L 188 154 L 50 116 L 50 116 L 8 105 L 8 105 Z M 53 180 L 17 183 L 53 180 L 17 183 L 23 255 L 23 255 L 59 252 L 59 252 L 207 241 L 207 241 L 216 240 L 216 240 L 216 249 L 216 249 L 216 312 L 216 312 L 248 312 L 256 312 L 256 320 L 256 320 L 256 384 L 256 384 L 312 384 L 376 384 Q 427 383 461 349 Q 495 315 496 264 L 496 162 L 496 162 Q 495 115 464 81 L 440 55 L 440 55 Q 404 17 352 16 L 324 16 L 324 16 L 281 73 L 281 73 L 362 96 L 362 96 L 370 99 L 370 99 L 366 114 L 366 114 L 358 112 L 358 112 L 168 58 L 168 58 L 74 32 L 74 32 L 39 22 L 39 22 L 20 91 L 20 91 L 54 101 L 54 101 L 237 151 L 237 151 L 235 167 L 235 167 L 53 180 L 53 180 Z" />
</svg>