<svg xmlns="http://www.w3.org/2000/svg" viewBox="0 0 509 512">
  <path d="M 353 0 L 346 32 L 353 0 L 346 32 L 341 32 L 97 32 L 94 51 L 94 51 L 6 483 L 6 483 L 0 512 L 0 512 L 29 512 L 509 512 L 509 464 L 509 464 L 485 464 L 477 464 L 477 376 L 477 376 L 477 361 L 477 361 L 464 355 L 464 355 L 337 291 L 337 291 L 402 0 L 402 0 L 353 0 L 353 0 Z M 212 80 L 335 80 L 212 80 L 335 80 L 310 192 L 310 192 L 253 192 L 237 192 L 237 224 L 237 224 L 253 224 L 302 224 L 288 288 L 288 288 L 221 288 L 205 288 L 205 320 L 205 320 L 221 320 L 287 320 L 298 326 L 298 326 L 429 391 L 429 391 L 429 464 L 429 464 L 58 464 L 58 464 L 91 304 L 91 304 L 154 304 L 167 304 L 170 291 L 170 291 L 212 80 L 212 80 Z M 179 80 L 141 272 L 179 80 L 141 272 L 98 272 L 98 272 L 137 80 L 137 80 L 179 80 L 179 80 Z" />
</svg>