<svg xmlns="http://www.w3.org/2000/svg" viewBox="0 0 634 512">
  <path d="M 130 0 L 122 0 L 130 0 L 122 0 L 122 16 L 122 16 L 130 16 L 346 16 L 346 144 L 346 144 L 127 144 L 127 144 L 81 68 L 81 68 L 79 64 L 79 64 L 74 64 L 0 64 L 2 74 L 2 74 L 34 202 L 34 202 L 35 206 L 35 206 L 39 207 L 39 207 L 181 271 L 181 271 L 292 397 L 292 397 L 294 400 L 294 400 L 298 400 L 299 400 L 299 400 L 299 400 L 300 400 L 300 400 L 300 400 L 300 400 L 301 400 L 302 400 L 302 400 L 302 400 L 303 400 L 303 400 L 303 400 L 303 400 L 304 400 L 305 400 L 305 400 L 305 400 L 306 400 L 306 400 L 306 400 L 306 400 L 307 400 L 308 400 L 308 400 L 308 400 L 309 400 L 309 400 L 309 400 L 309 400 L 310 400 L 311 400 L 311 400 L 311 400 L 312 400 L 312 400 L 312 400 L 312 400 L 313 400 L 314 400 L 314 400 L 314 400 L 315 400 L 315 400 L 315 400 L 315 400 L 316 400 L 317 400 L 317 400 L 317 400 L 318 400 L 318 400 L 318 400 L 318 400 L 319 400 L 320 400 L 320 400 L 320 400 L 321 400 L 321 400 L 321 400 L 321 400 L 322 400 L 323 400 L 323 400 L 323 400 L 324 400 L 324 400 L 324 400 L 324 400 L 325 400 L 325 400 L 325 400 L 325 400 L 326 400 L 326 400 L 326 400 L 326 400 L 327 400 L 327 400 L 327 400 L 327 400 L 328 400 L 328 400 L 328 400 L 328 400 L 329 400 L 329 400 L 329 400 L 329 400 L 330 400 L 330 400 L 330 400 L 330 400 L 331 400 L 331 400 L 331 400 L 331 400 L 332 400 L 332 400 L 332 400 L 332 400 L 333 400 L 333 400 L 333 400 L 333 400 L 334 400 L 334 400 L 334 400 L 334 400 L 335 400 L 335 400 L 335 400 L 335 400 L 336 400 L 336 400 L 336 400 L 336 400 L 337 400 L 337 400 L 337 400 L 337 400 L 338 400 L 338 400 L 338 400 L 338 400 L 339 400 L 339 400 L 339 400 L 339 400 L 340 400 L 340 400 L 340 400 L 340 400 L 341 400 L 341 400 L 341 400 L 341 400 L 342 400 L 342 400 L 342 400 L 342 400 L 343 400 L 343 400 L 343 400 L 343 400 L 344 400 L 344 400 L 344 400 L 344 400 L 345 400 L 345 400 L 345 400 L 345 400 L 346 400 L 346 400 L 346 400 L 346 400 L 347 400 L 347 400 L 347 400 L 347 400 L 348 400 L 348 400 L 348 400 L 348 400 L 349 400 L 349 400 L 349 400 L 349 400 L 350 400 L 350 400 L 350 400 L 350 400 L 351 400 L 351 400 L 351 400 L 351 400 L 352 400 L 352 400 L 352 400 L 352 400 L 353 400 L 353 400 L 353 400 L 353 400 L 354 400 L 354 400 L 354 400 L 354 400 L 355 400 L 355 400 L 355 400 L 355 400 L 356 400 L 356 400 L 356 400 L 356 400 L 357 400 L 357 400 L 357 400 L 357 400 L 358 400 L 358 400 L 358 400 L 358 400 L 359 400 L 359 400 L 359 400 L 359 400 L 360 400 L 360 400 L 360 400 L 360 400 L 361 400 L 361 400 L 361 400 L 361 400 L 362 400 L 362 400 L 362 400 L 362 400 L 363 400 L 363 400 L 363 400 L 363 400 L 364 400 L 364 400 L 364 400 L 364 400 L 365 400 L 365 400 L 365 400 L 365 400 L 366 400 L 366 400 L 366 400 L 366 400 L 367 400 L 367 400 L 367 400 L 367 400 L 368 400 L 368 400 L 368 400 L 368 400 L 369 400 L 369 400 L 369 400 L 369 400 L 370 400 L 370 400 L 370 400 L 370 400 L 371 400 L 371 400 L 371 400 L 371 400 L 372 400 L 372 400 L 372 400 L 372 400 L 373 400 L 373 400 L 373 400 L 373 400 L 374 400 L 374 400 L 374 400 L 374 400 L 375 400 L 375 400 L 375 400 L 375 400 L 376 400 L 376 400 L 376 400 L 376 400 L 377 400 L 377 400 L 377 400 L 377 400 L 378 400 L 378 400 L 378 400 L 378 400 L 379 400 L 379 400 L 379 400 L 379 400 L 380 400 L 380 400 L 380 400 L 380 400 L 381 400 L 381 400 L 381 400 L 381 400 L 382 400 L 382 400 L 382 400 L 382 400 L 383 400 L 383 400 L 383 400 L 383 400 L 384 400 L 384 400 L 384 400 L 384 400 L 385 400 L 385 400 L 385 400 L 385 400 L 386 400 L 386 400 L 386 400 L 386 400 L 387 400 L 387 400 L 387 400 L 387 400 L 388 400 L 388 400 L 388 400 L 388 400 L 389 400 L 389 400 L 389 400 L 389 400 L 390 400 L 390 400 L 390 400 L 390 400 L 391 400 L 391 400 L 391 400 L 391 400 L 392 400 L 392 400 L 392 400 L 392 400 L 393 400 L 393 400 L 393 400 L 393 400 L 394 400 L 394 400 L 394 400 L 394 400 L 395 400 L 395 400 L 395 400 L 395 400 L 396 400 L 396 400 L 396 400 L 396 400 L 397 400 L 397 400 L 397 400 L 397 400 L 398 400 L 398 400 L 398 400 L 398 400 L 399 400 L 399 400 L 399 400 L 399 400 L 400 400 L 400 400 L 400 400 L 400 400 L 401 400 L 401 400 L 401 400 L 401 400 L 402 400 L 402 400 L 402 400 L 402 400 L 403 400 L 403 400 L 403 400 L 403 400 L 404 400 L 404 400 L 404 400 L 404 400 L 405 400 L 405 400 L 405 400 L 405 400 L 406 400 L 406 400 L 406 400 L 406 400 L 407 400 L 407 400 L 407 400 L 407 400 L 408 400 L 408 400 L 408 400 L 408 400 L 409 400 L 409 400 L 409 400 L 409 400 L 410 400 L 410 400 L 410 400 L 410 400 L 411 400 L 411 400 L 411 400 L 411 400 L 412 400 L 412 400 L 412 400 L 412 400 L 413 400 L 413 400 L 413 400 L 413 400 L 414 400 L 414 400 L 414 400 L 414 400 L 415 400 L 415 400 L 415 400 L 415 400 L 416 400 L 416 400 L 416 400 L 416 400 L 417 400 L 417 400 L 417 400 L 417 400 L 418 400 L 418 400 L 418 400 L 418 400 L 419 400 L 419 400 L 419 400 L 419 400 L 420 400 L 420 400 L 420 400 L 420 400 L 421 400 L 421 400 L 421 400 L 421 400 L 422 400 L 422 400 L 422 400 L 422 400 L 423 400 L 423 400 L 423 400 L 423 400 L 424 400 L 424 400 L 424 400 L 424 400 L 425 400 L 425 400 L 425 400 L 425 400 L 426 400 L 426 400 L 426 400 L 426 400 L 427 400 L 427 400 L 427 400 L 427 400 L 428 400 L 428 400 L 428 400 L 428 400 L 429 400 L 429 400 L 429 400 L 429 400 L 430 400 L 430 400 L 430 400 L 430 400 L 431 400 L 431 400 L 431 400 L 431 400 L 432 400 L 432 400 L 432 400 L 432 400 L 433 400 L 433 400 L 433 400 L 433 400 L 434 400 L 434 400 L 434 400 L 434 400 L 435 400 L 435 400 L 435 400 L 435 400 L 436 400 L 436 400 L 436 400 L 436 400 L 437 400 L 437 400 L 437 400 L 437 400 L 438 400 L 438 400 L 438 400 L 438 400 L 439 400 L 439 400 L 439 400 L 439 400 L 440 400 L 440 400 L 440 400 L 440 400 L 441 400 L 441 400 L 441 400 L 441 400 L 442 400 L 442 400 L 442 400 L 442 400 L 443 400 L 443 400 L 443 400 L 443 400 L 444 400 L 444 400 L 444 400 L 444 400 L 445 400 L 445 400 L 445 400 L 445 400 L 446 400 L 446 400 L 446 400 L 446 400 L 447 400 L 447 400 L 447 400 L 447 400 L 448 400 L 448 400 L 448 400 L 448 400 L 449 400 L 449 400 L 449 400 L 449 400 L 450 400 L 450 400 L 450 400 L 450 400 L 451 400 L 451 400 L 451 400 L 451 400 L 452 400 L 452 400 L 452 400 L 452 400 L 453 400 L 453 400 L 453 400 L 453 400 L 454 400 L 454 400 L 454 400 L 454 400 L 455 400 L 455 400 L 455 400 L 455 400 L 456 400 L 456 400 L 456 400 L 456 400 L 457 400 L 457 400 L 457 400 L 457 400 L 458 400 L 458 400 L 458 400 L 458 400 L 459 400 L 459 400 L 459 400 L 459 400 L 460 400 L 460 400 L 460 400 L 460 400 L 461 400 L 461 400 L 461 400 L 461 400 L 462 400 L 462 400 L 462 400 L 462 400 L 463 400 L 463 400 L 463 400 L 463 400 L 464 400 L 464 400 L 464 400 L 464 400 L 465 400 L 465 400 L 465 400 L 465 400 L 466 400 L 466 400 L 466 400 L 466 400 L 467 400 L 467 400 L 467 400 L 467 400 L 468 400 L 468 400 L 468 400 L 468 400 L 469 400 L 469 400 L 469 400 L 469 400 L 470 400 L 470 400 L 470 400 L 470 400 L 471 400 L 471 400 L 471 400 L 471 400 L 472 400 L 472 400 L 472 400 L 472 400 L 473 400 L 473 400 L 473 400 L 473 400 L 474 400 L 474 400 L 474 400 L 474 400 L 475 400 L 475 400 L 475 400 L 475 400 L 476 400 L 476 400 L 476 400 L 476 400 L 477 400 L 477 400 L 477 400 L 477 400 L 478 400 L 478 400 L 478 400 L 478 400 L 479 400 L 479 400 L 479 400 L 479 400 L 480 400 L 480 400 L 480 400 L 480 400 L 481 400 L 481 400 L 481 400 L 481 400 L 482 400 L 482 400 L 482 400 L 482 400 L 483 400 L 483 400 L 483 400 L 483 400 L 484 400 L 484 400 L 484 400 L 484 400 L 485 400 L 485 400 L 485 400 L 485 400 L 486 400 L 486 400 L 486 400 L 486 400 L 487 400 L 487 400 L 487 400 L 487 400 L 488 400 L 488 400 L 488 400 L 488 400 L 489 400 L 489 400 L 489 400 L 489 400 L 490 400 L 490 400 L 490 400 L 490 400 L 491 400 L 491 400 L 491 400 L 491 400 L 492 400 L 492 400 L 492 400 L 492 400 L 493 400 L 493 400 L 493 400 L 493 400 L 494 400 L 494 400 L 494 400 L 494 400 L 495 400 L 495 400 L 495 400 L 495 400 L 496 400 L 496 400 L 496 400 L 496 400 L 497 400 L 497 400 L 497 400 L 497 400 L 498 400 L 498 400 L 498 400 L 498 400 L 499 400 L 499 400 L 499 400 L 499 400 L 500 400 L 500 400 L 500 400 L 500 400 L 501 400 L 501 400 L 501 400 L 501 400 L 502 400 L 502 400 L 502 400 L 502 400 L 503 400 L 503 400 L 503 400 L 503 400 L 504 400 L 504 400 L 504 400 L 504 400 L 505 400 L 505 400 L 505 400 L 505 400 L 506 400 L 506 400 L 506 400 L 506 400 L 507 400 L 507 400 L 507 400 L 507 400 L 508 400 L 508 400 L 508 400 L 508 400 L 509 400 L 509 400 L 509 400 L 509 400 L 510 400 L 510 400 L 510 400 L 510 400 L 511 400 L 511 400 L 511 400 L 511 400 L 512 400 L 512 400 L 512 400 L 512 400 L 513 400 L 513 400 L 513 400 L 513 400 L 514 400 L 514 400 L 514 400 L 514 400 L 515 400 L 515 400 L 515 400 L 515 400 L 516 400 L 516 400 L 516 400 L 516 400 L 517 400 L 517 400 L 517 400 L 517 400 L 518 400 L 518 400 L 518 400 L 518 400 L 519 400 L 519 400 L 519 400 L 519 400 L 520 400 L 520 400 L 520 400 L 520 400 L 521 400 L 521 400 L 521 400 L 521 400 L 522 400 L 522 400 L 522 400 L 522 400 L 523 400 L 523 400 L 523 400 L 523 400 L 524 400 L 524 400 L 524 400 L 524 400 L 525 400 L 525 400 L 525 400 L 525 400 L 526 400 L 526 400 L 526 400 L 526 400 L 527 400 L 527 400 L 527 400 L 527 400 L 528 400 L 528 400 L 528 400 L 528 400 L 529 400 L 529 400 L 529 400 L 529 400 L 530 400 L 530 400 L 530 400 L 530 400 L 531 400 L 531 400 L 531 400 L 531 400 L 532 400 L 532 400 L 532 400 L 532 400 L 533 400 L 533 400 L 533 400 L 533 400 L 534 400 L 534 400 L 534 400 L 534 400 L 535 400 L 535 400 L 535 400 L 535 400 L 536 400 L 537 400 L 537 400 L 537 400 L 538 400 L 538 400 L 538 400 L 538 400 L 539 400 L 539 400 L 539 400 L 539 400 L 540 400 L 541 400 L 541 400 L 541 400 L 542 400 L 542 400 L 542 400 L 542 400 L 543 400 L 544 400 L 544 400 L 544 400 L 545 400 L 545 400 L 545 400 L 545 400 L 546 400 L 547 400 L 547 400 L 547 400 L 548 400 L 548 400 L 548 400 L 548 400 L 549 400 L 550 400 L 550 400 L 550 400 L 551 400 L 551 400 L 551 400 L 551 400 L 552 400 L 553 400 L 553 400 L 553 400 L 554 400 L 554 400 L 554 400 L 554 400 L 555 400 L 556 400 L 556 400 L 556 400 L 557 400 L 557 400 L 557 400 L 557 400 L 558 400 L 559 400 L 559 400 L 559 400 L 560 400 L 560 400 L 560 400 L 560 400 L 561 400 L 562 400 L 562 400 L 562 400 L 563 400 L 571 400 L 571 392 L 571 392 L 571 280 L 571 280 Q 569 222 531 184 Q 493 145 435 144 L 363 144 L 363 144 L 363 16 L 363 16 L 563 16 L 571 16 L 571 0 L 571 0 L 563 0 L 130 0 Z M 20 80 L 69 80 L 20 80 L 69 80 L 115 156 L 115 156 L 117 160 L 117 160 L 122 160 L 346 160 L 346 384 L 346 384 L 346 384 L 346 384 L 345 384 L 345 384 L 345 384 L 345 384 L 344 384 L 344 384 L 344 384 L 344 384 L 343 384 L 343 384 L 343 384 L 343 384 L 342 384 L 342 384 L 342 384 L 342 384 L 341 384 L 341 384 L 341 384 L 341 384 L 340 384 L 340 384 L 340 384 L 340 384 L 339 384 L 339 384 L 339 384 L 339 384 L 338 384 L 338 384 L 338 384 L 338 384 L 337 384 L 337 384 L 337 384 L 337 384 L 336 384 L 336 384 L 336 384 L 336 384 L 335 384 L 335 384 L 335 384 L 335 384 L 334 384 L 334 384 L 334 384 L 334 384 L 333 384 L 333 384 L 333 384 L 333 384 L 332 384 L 332 384 L 332 384 L 332 384 L 331 384 L 331 384 L 331 384 L 331 384 L 330 384 L 330 384 L 330 384 L 330 384 L 329 384 L 329 384 L 329 384 L 329 384 L 328 384 L 328 384 L 328 384 L 328 384 L 327 384 L 327 384 L 327 384 L 327 384 L 326 384 L 326 384 L 326 384 L 326 384 L 325 384 L 325 384 L 325 384 L 325 384 L 324 384 L 324 384 L 324 384 L 324 384 L 323 384 L 322 384 L 322 384 L 322 384 L 321 384 L 321 384 L 321 384 L 321 384 L 320 384 L 319 384 L 319 384 L 319 384 L 318 384 L 318 384 L 318 384 L 318 384 L 317 384 L 316 384 L 316 384 L 316 384 L 315 384 L 315 384 L 315 384 L 315 384 L 314 384 L 313 384 L 313 384 L 313 384 L 312 384 L 312 384 L 312 384 L 312 384 L 311 384 L 310 384 L 310 384 L 310 384 L 309 384 L 309 384 L 309 384 L 309 384 L 308 384 L 307 384 L 307 384 L 307 384 L 306 384 L 306 384 L 306 384 L 306 384 L 305 384 L 304 384 L 304 384 L 304 384 L 303 384 L 303 384 L 303 384 L 303 384 L 302 384 L 302 384 L 302 384 L 302 384 L 192 259 L 192 259 L 191 257 L 191 257 L 189 257 L 189 257 L 49 194 L 49 194 L 20 80 L 20 80 Z M 362 384 L 362 384 L 362 384 L 362 384 L 362 160 L 362 160 L 434 160 L 434 160 Q 485 161 519 195 Q 553 229 554 280 L 554 384 L 554 384 Q 554 384 554 384 Q 554 384 554 384 L 553 384 L 553 384 L 553 384 L 553 384 L 552 384 L 552 384 L 552 384 L 552 384 L 551 384 L 550 384 L 550 384 L 550 384 L 549 384 L 549 384 L 549 384 L 549 384 L 548 384 L 547 384 L 547 384 L 547 384 L 546 384 L 546 384 L 546 384 L 546 384 L 545 384 L 544 384 L 544 384 L 544 384 L 543 384 L 543 384 L 543 384 L 543 384 L 542 384 L 541 384 L 541 384 L 541 384 L 540 384 L 540 384 L 540 384 L 540 384 L 539 384 L 538 384 L 538 384 L 538 384 L 537 384 L 537 384 L 537 384 L 537 384 L 536 384 L 536 384 L 536 384 L 536 384 L 535 384 L 535 384 L 535 384 L 535 384 L 534 384 L 534 384 L 534 384 L 534 384 L 533 384 L 533 384 L 533 384 L 533 384 L 532 384 L 532 384 L 532 384 L 532 384 L 531 384 L 531 384 L 531 384 L 531 384 L 530 384 L 530 384 L 530 384 L 530 384 L 529 384 L 529 384 L 529 384 L 529 384 L 528 384 L 528 384 L 528 384 L 528 384 L 527 384 L 527 384 L 527 384 L 527 384 L 526 384 L 526 384 L 526 384 L 526 384 L 525 384 L 525 384 L 525 384 L 525 384 L 524 384 L 524 384 L 524 384 L 524 384 L 523 384 L 523 384 L 523 384 L 523 384 L 522 384 L 522 384 L 522 384 L 522 384 L 521 384 L 521 384 L 521 384 L 521 384 L 520 384 L 520 384 L 520 384 L 520 384 L 519 384 L 519 384 L 519 384 L 519 384 L 518 384 L 518 384 L 518 384 L 518 384 L 517 384 L 517 384 L 517 384 L 517 384 L 516 384 L 516 384 L 516 384 L 516 384 L 515 384 L 515 384 L 515 384 L 515 384 L 514 384 L 514 384 L 514 384 L 514 384 L 513 384 L 513 384 L 513 384 L 513 384 L 512 384 L 512 384 L 512 384 L 512 384 L 511 384 L 511 384 L 511 384 L 511 384 L 510 384 L 510 384 L 510 384 L 510 384 L 509 384 L 509 384 L 509 384 L 509 384 L 508 384 L 508 384 L 508 384 L 508 384 L 507 384 L 507 384 L 507 384 L 507 384 L 506 384 L 506 384 L 506 384 L 506 384 L 505 384 L 505 384 L 505 384 L 505 384 L 504 384 L 504 384 L 504 384 L 504 384 L 503 384 L 503 384 L 503 384 L 503 384 L 502 384 L 502 384 L 502 384 L 502 384 L 501 384 L 501 384 L 501 384 L 501 384 L 500 384 L 500 384 L 500 384 L 500 384 L 499 384 L 499 384 L 499 384 L 499 384 L 498 384 L 498 384 L 498 384 L 498 384 L 497 384 L 497 384 L 497 384 L 497 384 L 496 384 L 496 384 L 496 384 L 496 384 L 495 384 L 495 384 L 495 384 L 495 384 L 494 384 L 494 384 L 494 384 L 494 384 L 493 384 L 493 384 L 493 384 L 493 384 L 492 384 L 492 384 L 492 384 L 492 384 L 491 384 L 491 384 L 491 384 L 491 384 L 490 384 L 490 384 L 490 384 L 490 384 L 489 384 L 489 384 L 489 384 L 489 384 L 488 384 L 488 384 L 488 384 L 488 384 L 487 384 L 487 384 L 487 384 L 487 384 L 486 384 L 486 384 L 486 384 L 486 384 L 485 384 L 485 384 L 485 384 L 485 384 L 484 384 L 484 384 L 484 384 L 484 384 L 483 384 L 483 384 L 483 384 L 483 384 L 482 384 L 482 384 L 482 384 L 482 384 L 481 384 L 481 384 L 481 384 L 481 384 L 480 384 L 480 384 L 480 384 L 480 384 L 479 384 L 479 384 L 479 384 L 479 384 L 478 384 L 478 384 L 478 384 L 478 384 L 477 384 L 477 384 L 477 384 L 477 384 L 476 384 L 476 384 L 476 384 L 476 384 L 475 384 L 475 384 L 475 384 L 475 384 L 474 384 L 474 384 L 474 384 L 474 384 L 473 384 L 473 384 L 473 384 L 473 384 L 472 384 L 472 384 L 472 384 L 472 384 L 471 384 L 471 384 L 471 384 L 471 384 L 470 384 L 470 384 L 470 384 L 470 384 L 469 384 L 469 384 L 469 384 L 469 384 L 468 384 L 468 384 L 468 384 L 468 384 L 467 384 L 467 384 L 467 384 L 467 384 L 466 384 L 466 384 L 466 384 L 466 384 L 465 384 L 465 384 L 465 384 L 465 384 L 464 384 L 464 384 L 464 384 L 464 384 L 463 384 L 463 384 L 463 384 L 463 384 L 462 384 L 462 384 L 462 384 L 462 384 L 461 384 L 461 384 L 461 384 L 461 384 L 460 384 L 460 384 L 460 384 L 460 384 L 459 384 L 459 384 L 459 384 L 459 384 L 458 384 L 458 384 L 458 384 L 458 384 L 457 384 L 457 384 L 457 384 L 457 384 L 456 384 L 456 384 L 456 384 L 456 384 L 455 384 L 455 384 L 455 384 L 455 384 L 454 384 L 454 384 L 454 384 L 454 384 L 453 384 L 453 384 L 453 384 L 453 384 L 452 384 L 452 384 L 452 384 L 452 384 L 451 384 L 451 384 L 451 384 L 451 384 L 450 384 L 450 384 L 450 384 L 450 384 L 449 384 L 449 384 L 449 384 L 449 384 L 448 384 L 448 384 L 448 384 L 448 384 L 447 384 L 447 384 L 447 384 L 447 384 L 446 384 L 446 384 L 446 384 L 446 384 L 445 384 L 445 384 L 445 384 L 445 384 L 444 384 L 444 384 L 444 384 L 444 384 L 443 384 L 443 384 L 443 384 L 443 384 L 442 384 L 442 384 L 442 384 L 442 384 L 441 384 L 441 384 L 441 384 L 441 384 L 440 384 L 440 384 L 440 384 L 440 384 L 439 384 L 439 384 L 439 384 L 439 384 L 438 384 L 438 384 L 438 384 L 438 384 L 437 384 L 437 384 L 437 384 L 437 384 L 436 384 L 436 384 L 436 384 L 436 384 L 435 384 L 435 384 L 435 384 L 435 384 L 434 384 L 434 384 L 434 384 L 434 384 L 433 384 L 433 384 L 433 384 L 433 384 L 432 384 L 432 384 L 432 384 L 432 384 L 431 384 L 431 384 L 431 384 L 431 384 L 430 384 L 430 384 L 430 384 L 430 384 L 429 384 L 429 384 L 429 384 L 429 384 L 428 384 L 428 384 L 428 384 L 428 384 L 427 384 L 427 384 L 427 384 L 427 384 L 426 384 L 426 384 L 426 384 L 426 384 L 425 384 L 425 384 L 425 384 L 425 384 L 424 384 L 424 384 L 424 384 L 424 384 L 423 384 L 423 384 L 423 384 L 423 384 L 422 384 L 422 384 L 422 384 L 422 384 L 421 384 L 421 384 L 421 384 L 421 384 L 420 384 L 420 384 L 420 384 L 420 384 L 419 384 L 419 384 L 419 384 L 419 384 L 418 384 L 418 384 L 418 384 L 418 384 L 417 384 L 417 384 L 417 384 L 417 384 L 416 384 L 416 384 L 416 384 L 416 384 L 415 384 L 415 384 L 415 384 L 415 384 L 414 384 L 414 384 L 414 384 L 414 384 L 413 384 L 413 384 L 413 384 L 413 384 L 412 384 L 412 384 L 412 384 L 412 384 L 411 384 L 411 384 L 411 384 L 411 384 L 410 384 L 410 384 L 410 384 L 410 384 L 409 384 L 409 384 L 409 384 L 409 384 L 408 384 L 408 384 L 408 384 L 408 384 L 407 384 L 407 384 L 407 384 L 407 384 L 406 384 L 406 384 L 406 384 L 406 384 L 405 384 L 405 384 L 405 384 L 405 384 L 404 384 L 404 384 L 404 384 L 404 384 L 403 384 L 403 384 L 403 384 L 403 384 L 402 384 L 402 384 L 402 384 L 402 384 L 401 384 L 401 384 L 401 384 L 401 384 L 400 384 L 400 384 L 400 384 L 400 384 L 399 384 L 399 384 L 399 384 L 399 384 L 398 384 L 398 384 L 398 384 L 398 384 L 397 384 L 397 384 L 397 384 L 397 384 L 396 384 L 396 384 L 396 384 L 396 384 L 395 384 L 395 384 L 395 384 L 395 384 L 394 384 L 394 384 L 394 384 L 394 384 L 393 384 L 393 384 L 393 384 L 393 384 L 392 384 L 392 384 L 392 384 L 392 384 L 391 384 L 391 384 L 391 384 L 391 384 L 390 384 L 390 384 L 390 384 L 390 384 L 389 384 L 389 384 L 389 384 L 389 384 L 388 384 L 388 384 L 388 384 L 388 384 L 387 384 L 387 384 L 387 384 L 387 384 L 386 384 L 386 384 L 386 384 L 386 384 L 385 384 L 385 384 L 385 384 L 385 384 L 384 384 L 384 384 L 384 384 L 384 384 L 383 384 L 383 384 L 383 384 L 383 384 L 382 384 L 382 384 L 382 384 L 382 384 L 381 384 L 381 384 L 381 384 L 381 384 L 380 384 L 380 384 L 380 384 L 380 384 L 379 384 L 379 384 L 379 384 L 379 384 L 378 384 L 378 384 L 378 384 L 378 384 L 377 384 L 377 384 L 377 384 L 377 384 L 376 384 L 376 384 L 376 384 L 376 384 L 375 384 L 375 384 L 375 384 L 375 384 L 374 384 L 374 384 L 374 384 L 374 384 L 373 384 L 373 384 L 373 384 L 373 384 L 372 384 L 372 384 L 372 384 L 372 384 L 371 384 L 371 384 L 371 384 L 371 384 L 370 384 L 370 384 L 370 384 L 370 384 L 369 384 L 369 384 L 369 384 L 369 384 L 368 384 L 368 384 L 368 384 L 368 384 L 367 384 L 367 384 L 367 384 L 367 384 L 366 384 L 366 384 L 366 384 L 366 384 L 365 384 L 365 384 L 365 384 L 365 384 L 364 384 L 364 384 L 364 384 L 364 384 L 363 384 L 363 384 L 363 384 L 363 384 L 362 384 L 362 384 L 362 384 L 362 384 Z M 634 456 L 634 448 L 634 456 L 634 448 L 618 448 L 618 448 L 618 456 L 618 456 L 618 496 L 618 496 L 226 496 L 218 496 L 218 512 L 218 512 L 226 512 L 634 512 L 634 504 L 634 504 L 634 456 L 634 456 Z" />
</svg>