<svg xmlns="http://www.w3.org/2000/svg" viewBox="0 0 512 512">
  <path d="M 384 83 Q 384 83 384 83 Q 354 108 323 95 Q 291 82 288 44 L 288 32 L 288 32 L 288 32 L 288 32 L 288 0 L 288 0 L 256 0 L 256 0 L 256 0 L 256 0 L 256 0 L 256 0 L 224 0 L 224 0 L 224 32 L 224 32 L 224 32 L 224 32 L 224 44 L 224 44 Q 221 82 189 95 Q 158 108 128 83 L 120 75 L 120 75 L 120 75 L 120 75 L 98 52 L 98 52 L 75 75 L 75 75 L 75 75 L 75 75 Q 75 75 75 75 Q 75 75 75 75 Q 75 75 75 75 Q 75 75 75 75 L 75 75 L 75 75 L 52 98 L 52 98 L 75 120 L 75 120 L 75 120 L 75 120 L 83 128 L 83 128 Q 83 128 83 128 Q 83 128 83 128 Q 108 158 95 189 Q 82 221 44 224 L 32 224 L 32 224 L 32 224 L 32 224 L 0 224 L 0 224 L 0 256 L 0 256 L 0 256 L 0 256 L 0 256 L 0 256 L 0 288 L 0 288 L 32 288 L 32 288 L 32 288 L 32 288 L 44 288 L 44 288 Q 82 291 95 323 Q 108 354 83 384 L 75 392 L 75 392 L 75 392 L 75 392 L 52 414 L 52 414 L 75 437 L 75 437 L 75 437 L 75 437 Q 75 437 75 437 Q 75 437 75 437 L 75 437 L 75 437 L 98 460 L 98 460 L 120 437 L 120 437 L 120 437 L 120 437 L 128 429 L 128 429 Q 128 429 128 429 Q 128 429 128 429 Q 158 403 189 417 Q 221 430 224 468 L 224 480 L 224 480 L 224 480 L 224 480 L 224 512 L 224 512 L 256 512 L 256 512 L 256 512 L 256 512 L 256 512 L 256 512 L 288 512 L 288 512 L 288 480 L 288 480 L 288 480 L 288 480 L 288 468 L 288 468 Q 291 430 323 417 Q 354 403 384 429 L 392 437 L 392 437 L 392 437 L 392 437 L 414 460 L 414 460 L 437 437 L 437 437 L 437 437 L 437 437 L 437 437 L 437 437 L 460 414 L 460 414 L 437 392 L 437 392 L 437 392 L 437 392 L 429 384 L 429 384 Q 403 354 417 323 Q 430 291 468 288 L 480 288 L 480 288 L 480 288 L 480 288 L 512 288 L 512 288 L 512 256 L 512 256 L 512 256 L 512 256 L 512 256 L 512 256 L 512 224 L 512 224 L 480 224 L 480 224 L 480 224 L 480 224 L 468 224 L 468 224 Q 430 221 417 189 Q 403 158 429 128 L 437 120 L 437 120 L 437 120 L 437 120 L 460 98 L 460 98 L 437 75 L 437 75 L 437 75 L 437 75 L 437 75 L 437 75 L 414 52 L 414 52 L 392 75 L 392 75 L 392 75 L 392 75 L 384 83 L 384 83 Z M 414 97 L 415 97 L 414 97 L 415 97 L 415 97 L 415 97 L 415 98 L 415 98 L 406 106 L 406 106 Q 379 135 381 169 Q 382 204 405 229 Q 429 254 468 256 L 480 256 L 480 256 L 480 256 L 480 256 L 480 256 L 480 256 L 480 256 L 480 256 L 480 256 L 480 256 L 468 256 L 468 256 Q 429 257 405 283 Q 382 308 381 343 Q 379 377 406 406 L 415 414 L 415 414 L 415 414 L 415 414 L 415 415 L 415 415 L 414 415 L 414 415 L 414 415 L 414 415 L 406 406 L 406 406 Q 377 379 343 380 Q 308 382 283 405 Q 258 429 256 468 L 256 480 L 256 480 L 256 480 L 256 480 L 256 480 L 256 480 L 256 480 L 256 480 L 256 480 L 256 480 L 256 468 L 256 468 Q 254 429 229 405 Q 204 382 169 380 Q 135 379 106 406 Q 106 406 106 406 Q 106 406 106 406 Q 106 406 106 406 Q 106 406 106 406 Q 106 406 106 406 Q 106 406 106 406 L 98 414 L 98 414 L 98 415 L 98 415 L 98 414 L 98 414 Q 98 414 98 414 L 97 414 L 97 414 Q 97 414 97 414 Q 97 414 97 414 L 97 414 L 97 414 L 98 414 L 98 414 L 106 406 L 106 406 Q 133 377 132 342 Q 130 308 107 283 Q 83 257 44 256 L 32 256 L 32 256 L 32 256 L 32 256 L 32 256 L 32 256 L 32 255 L 32 255 L 32 255 L 32 255 L 44 255 L 44 255 Q 83 254 107 229 Q 130 204 132 169 Q 133 135 106 106 Q 106 106 106 106 Q 106 106 106 106 Q 106 106 106 106 Q 106 106 106 106 L 98 97 L 98 97 L 97 97 L 97 97 L 98 97 L 98 97 Q 98 97 98 97 Q 98 97 98 97 Q 98 97 98 97 Q 98 97 98 97 L 98 97 L 98 97 L 98 97 L 98 97 L 106 105 L 106 105 Q 135 132 170 131 Q 204 130 229 106 Q 255 83 256 43 L 256 32 L 256 32 L 256 31 L 256 31 L 256 31 L 256 31 L 256 31 L 256 31 L 256 32 L 256 32 L 256 43 L 256 43 Q 258 83 283 106 Q 308 130 343 131 Q 377 132 406 105 Q 406 105 406 105 Q 406 105 406 105 Q 406 105 406 105 Q 406 105 406 105 L 414 97 L 414 97 L 414 97 L 414 97 Z M 224 208 Q 239 209 240 224 Q 239 239 224 240 Q 209 239 208 224 Q 209 209 224 208 L 224 208 Z M 224 272 Q 251 271 266 248 Q 278 224 266 200 Q 251 177 224 176 Q 197 177 182 200 Q 170 224 182 248 Q 197 271 224 272 L 224 272 Z M 304 328 Q 326 326 328 304 Q 326 282 304 280 Q 282 282 280 304 Q 282 326 304 328 L 304 328 Z" />
</svg>