<svg xmlns="http://www.w3.org/2000/svg" viewBox="0 0 640 512">
  <path d="M 16 5 L 10 0 L 16 5 L 10 0 L 0 13 L 0 13 L 6 18 L 6 18 L 624 507 L 624 507 L 630 512 L 630 512 L 640 500 L 640 500 L 634 495 L 634 495 L 16 5 L 16 5 Z M 576 256 Q 576 202 557 153 L 557 153 L 557 153 Q 539 105 506 67 L 493 78 L 493 78 Q 558 151 560 256 Q 560 302 546 343 L 559 353 L 559 353 Q 576 307 576 256 L 576 256 Z M 480 256 Q 478 182 433 130 L 421 141 L 421 141 Q 463 188 464 256 Q 464 267 463 277 L 477 289 L 477 289 Q 480 273 480 256 L 480 256 Z M 124 193 L 111 183 L 124 193 L 111 183 Q 96 217 96 256 Q 98 330 143 382 L 155 371 L 155 371 Q 113 324 112 256 Q 112 222 124 193 L 124 193 Z M 46 132 L 33 121 L 46 132 L 33 121 Q 1 182 0 256 Q 0 310 19 359 Q 37 407 71 445 L 83 434 L 83 434 Q 18 361 16 256 Q 17 188 46 132 L 46 132 Z" />
</svg>