<svg xmlns="http://www.w3.org/2000/svg" viewBox="0 0 384 512">
  <path d="M 280 345 Q 320 321 344 281 L 344 281 L 344 281 Q 367 241 368 192 Q 366 117 316 68 Q 267 18 192 16 Q 117 18 68 68 Q 18 117 16 192 L 16 368 L 16 368 Q 17 422 53 459 Q 90 495 144 496 Q 198 495 235 459 Q 271 422 272 368 Q 272 364 272 360 L 271 350 L 271 350 L 280 345 L 280 345 Z M 384 192 Q 383 246 357 290 L 357 290 L 357 290 Q 332 333 288 359 Q 288 363 288 368 Q 286 429 246 470 Q 205 510 144 512 Q 83 510 42 470 Q 2 429 0 368 L 0 192 L 0 192 Q 2 110 56 56 Q 110 2 192 0 Q 274 2 328 56 Q 382 110 384 192 L 384 192 Z M 80 192 L 80 228 L 80 192 L 80 228 L 124 257 L 124 257 Q 128 260 128 264 L 128 304 L 128 304 Q 128 308 125 310 L 77 350 L 77 350 L 71 355 L 71 355 L 61 343 L 61 343 L 67 338 L 67 338 L 112 300 L 112 300 L 112 268 L 112 268 L 68 239 L 68 239 Q 64 236 64 232 L 64 192 L 64 192 Q 65 138 101 101 Q 138 65 192 64 Q 246 65 283 101 Q 319 138 320 192 L 320 200 L 320 200 L 320 208 L 320 208 L 304 208 L 304 208 L 304 200 L 304 200 L 304 192 L 304 192 Q 303 144 271 113 Q 240 81 192 80 Q 144 81 113 113 Q 81 144 80 192 L 80 192 Z" />
</svg>