<svg xmlns="http://www.w3.org/2000/svg" viewBox="0 0 640 504">
  <path d="M 344 27 L 344 0 L 344 27 L 344 0 L 296 0 L 296 0 L 296 27 L 296 27 Q 289 29 282 32 Q 256 42 249 72 Q 246 89 253 104 Q 260 118 271 125 Q 292 136 311 141 L 313 142 L 313 142 Q 334 148 341 153 Q 348 160 338 166 Q 330 169 312 167 Q 302 165 288 160 Q 287 160 286 160 Q 284 159 282 158 Q 281 158 280 157 L 257 150 L 257 150 L 242 195 L 242 195 L 264 203 L 264 203 Q 266 204 269 204 Q 269 204 269 205 Q 281 209 296 213 L 296 240 L 296 240 L 344 240 L 344 240 L 344 214 L 344 214 Q 351 212 357 210 Q 384 199 391 168 Q 394 151 388 136 Q 381 122 369 114 Q 348 101 328 96 L 327 96 L 327 96 Q 306 90 298 85 Q 293 79 302 75 Q 311 71 328 73 Q 332 74 339 75 Q 346 76 350 77 L 373 83 L 373 83 L 385 37 L 385 37 L 362 31 L 362 31 Q 355 29 344 27 Q 344 27 344 27 L 344 27 Z M 144 56 L 120 56 L 144 56 L 0 56 L 0 80 L 0 80 L 0 384 L 0 384 L 0 394 L 0 394 L 7 401 L 7 401 L 92 486 L 92 486 L 109 503 L 109 503 L 143 469 L 143 469 L 126 452 L 126 452 L 48 374 L 48 374 L 48 104 L 48 104 L 96 104 L 96 104 L 96 304 L 96 304 L 96 314 L 96 314 L 103 321 L 103 321 L 110 328 L 110 328 L 127 345 L 127 345 L 167 385 L 167 385 L 183 401 L 183 401 L 184 402 L 184 402 L 200 418 L 200 418 L 234 384 L 234 384 L 218 368 L 218 368 L 217 367 L 217 367 L 201 351 L 201 351 L 178 328 L 178 328 L 208 298 L 208 298 L 296 386 L 296 386 L 296 480 L 296 480 L 296 504 L 296 504 L 320 504 L 344 504 L 344 480 L 344 480 L 344 386 L 344 386 L 432 298 L 432 298 L 462 328 L 462 328 L 439 351 L 439 351 Q 439 351 439 351 Q 439 351 439 351 L 423 367 L 423 367 L 406 384 L 406 384 L 440 418 L 440 418 L 457 401 L 457 401 L 473 385 L 473 385 Q 473 385 473 385 Q 473 385 473 385 L 513 345 L 513 345 L 530 328 L 530 328 L 537 321 L 537 321 L 544 314 L 544 314 L 544 304 L 544 304 L 544 104 L 544 104 L 592 104 L 592 104 L 592 374 L 592 374 L 514 452 L 514 452 L 497 469 L 497 469 L 531 503 L 531 503 L 548 486 L 548 486 L 633 401 L 633 401 L 640 394 L 640 394 L 640 384 L 640 384 L 640 80 L 640 80 L 640 56 L 640 56 L 616 56 L 496 56 L 496 80 L 496 80 L 496 294 L 496 294 L 449 247 L 449 247 L 432 230 L 432 230 L 415 247 L 415 247 L 320 342 L 320 342 L 225 247 L 225 247 L 208 230 L 208 230 L 191 247 L 191 247 L 144 294 L 144 294 L 144 80 L 144 80 L 144 56 L 144 56 Z" />
</svg>