<svg xmlns="http://www.w3.org/2000/svg" viewBox="0 0 576 448">
  <path d="M 32 0 L 40 0 L 32 0 L 544 0 L 544 8 L 544 8 L 544 400 L 544 400 L 544 408 L 544 408 L 528 408 L 528 408 L 528 400 L 528 400 L 528 16 L 528 16 L 48 16 L 48 16 L 48 400 L 48 400 L 48 408 L 48 408 L 32 408 L 32 408 L 32 400 L 32 400 L 32 8 L 32 8 L 32 0 L 32 0 Z M 0 432 L 8 432 L 0 432 L 256 432 L 256 360 L 256 360 L 256 352 L 256 352 L 264 352 L 416 352 L 416 360 L 416 360 L 416 432 L 416 432 L 568 432 L 576 432 L 576 448 L 576 448 L 568 448 L 0 448 L 0 432 L 0 432 Z M 400 432 L 400 368 L 400 432 L 400 368 L 272 368 L 272 368 L 272 432 L 272 432 L 400 432 L 400 432 Z" />
</svg>