<svg xmlns="http://www.w3.org/2000/svg" viewBox="0 0 512 512">
  <path d="M 80 512 L 91 501 L 80 512 L 91 501 L 501 91 L 501 91 L 512 80 L 512 80 L 501 69 L 501 69 L 443 11 L 443 11 L 432 0 L 432 0 L 421 11 L 421 11 L 11 421 L 11 421 L 0 432 L 0 432 L 11 443 L 11 443 L 69 501 L 69 501 L 80 512 L 80 512 Z M 432 23 L 489 80 L 432 23 L 489 80 L 354 215 L 354 215 L 297 158 L 297 158 L 432 23 L 432 23 Z M 286 169 L 343 226 L 286 169 L 343 226 L 80 489 L 80 489 L 23 432 L 23 432 L 286 169 L 286 169 Z" />
</svg>