<svg xmlns="http://www.w3.org/2000/svg" viewBox="0 0 512 512">
  <path d="M 87 382 L 94 363 L 80 348 Q 33 301 32 240 Q 34 169 95 118 Q 157 66 256 64 Q 355 66 417 118 Q 478 169 480 240 Q 478 311 417 362 Q 355 414 256 416 Q 213 416 176 404 L 167 402 L 157 404 L 69 431 L 87 382 L 87 382 Z M 16 480 L 55 468 L 166 435 Q 208 448 256 448 Q 328 447 385 420 Q 443 392 477 345 Q 511 298 512 240 Q 511 182 477 135 Q 443 88 385 60 Q 328 33 256 32 Q 184 33 127 60 Q 69 88 35 135 Q 1 182 0 240 Q 2 316 57 371 L 30 442 L 16 480 L 16 480 Z M 196 180 L 196 192 L 196 288 L 196 300 L 220 300 L 220 288 L 220 221 L 246 262 L 256 279 L 266 262 L 292 221 L 292 288 L 292 300 L 316 300 L 316 288 L 316 192 L 316 180 L 304 180 L 296 180 L 289 180 L 286 186 L 256 233 L 226 186 L 223 180 L 216 180 L 208 180 L 196 180 L 196 180 Z M 116 213 Q 116 210 122 206 Q 129 203 142 205 Q 150 206 157 208 L 169 211 L 175 187 L 163 184 Q 160 183 154 182 Q 149 181 146 181 Q 128 178 112 185 Q 97 191 92 209 Q 91 219 95 227 Q 99 236 106 240 Q 118 247 131 250 Q 131 250 131 250 L 133 251 Q 146 255 152 259 Q 155 261 155 262 Q 156 263 156 267 Q 155 272 149 274 Q 143 277 129 276 Q 123 274 114 271 Q 113 271 112 270 Q 111 270 110 270 Q 109 269 107 269 L 96 265 L 88 288 L 100 292 Q 100 292 101 292 Q 102 292 103 293 L 103 293 Q 103 293 104 293 Q 115 297 126 299 L 126 299 Q 144 302 159 296 Q 175 290 179 271 Q 181 261 177 253 Q 173 244 166 239 Q 153 231 140 228 L 139 228 Q 125 224 119 220 Q 116 218 116 217 Q 116 217 116 213 L 116 213 Z M 356 213 Q 356 210 362 206 Q 370 203 382 205 Q 390 206 397 208 L 409 211 L 415 187 L 403 184 Q 400 183 394 182 Q 389 181 386 181 Q 368 178 353 185 Q 337 191 333 209 Q 331 219 335 227 Q 339 236 346 240 Q 358 247 371 250 Q 371 250 371 250 L 373 251 Q 386 255 393 259 Q 395 261 396 262 Q 396 263 396 267 Q 395 272 390 274 Q 383 277 370 276 Q 364 274 354 271 Q 353 271 352 270 L 352 270 Q 351 270 350 270 Q 349 269 348 269 L 336 265 L 329 288 L 340 292 Q 341 292 341 292 Q 342 292 343 293 L 343 293 Q 344 293 344 293 Q 355 297 366 299 L 366 299 Q 384 302 399 296 Q 415 290 419 271 Q 421 261 417 253 Q 413 244 407 239 Q 393 231 380 228 L 379 228 Q 365 224 359 220 Q 356 218 356 217 Q 356 217 356 213 L 356 213 Z" />
</svg>