<svg xmlns="http://www.w3.org/2000/svg" viewBox="0 0 640 384">
  <path d="M 16 0 L 16 8 L 16 0 L 16 8 L 16 176 L 16 176 L 304 176 L 304 176 L 304 8 L 304 8 L 304 0 L 304 0 L 320 0 L 320 0 L 320 8 L 320 8 L 320 184 L 320 184 L 320 376 L 320 376 L 320 384 L 320 384 L 304 384 L 304 384 L 304 376 L 304 376 L 304 192 L 304 192 L 16 192 L 16 192 L 16 376 L 16 376 L 16 384 L 16 384 L 0 384 L 0 384 L 0 376 L 0 376 L 0 184 L 0 184 L 0 8 L 0 8 L 0 0 L 0 0 L 16 0 L 16 0 Z M 496 368 Q 550 367 587 331 L 587 331 L 587 331 Q 623 294 624 240 Q 623 186 587 149 Q 550 113 496 112 Q 442 113 406 149 Q 370 184 368 238 Q 368 238 368 239 Q 368 239 368 240 Q 368 240 368 240 Q 368 240 368 240 Q 369 294 405 331 Q 442 367 496 368 L 496 368 Z M 352 240 Q 352 239 352 238 L 352 238 L 352 238 Q 352 237 352 236 Q 354 188 383 149 L 500 0 L 500 0 L 520 0 L 520 0 L 435 110 L 435 110 Q 463 96 496 96 Q 557 98 598 138 Q 638 179 640 240 Q 638 301 598 342 Q 557 382 496 384 Q 435 382 394 342 Q 354 301 352 240 Q 352 240 352 240 Q 352 240 352 240 L 352 240 Z" />
</svg>