<svg xmlns="http://www.w3.org/2000/svg" viewBox="0 0 640 512">
  <path d="M 624 16 L 624 80 L 624 16 L 624 80 L 16 80 L 16 80 L 16 16 L 16 16 L 624 16 L 624 16 Z M 16 0 L 0 0 L 16 0 L 0 0 L 0 16 L 0 16 L 0 80 L 0 80 L 0 96 L 0 96 L 16 96 L 32 96 L 32 504 L 32 504 L 32 512 L 32 512 L 40 512 L 160 512 L 160 504 L 160 504 L 160 352 L 160 352 Q 162 284 207 239 Q 252 194 320 192 Q 388 194 433 239 Q 478 284 480 352 L 480 504 L 480 504 L 480 512 L 480 512 L 488 512 L 608 512 L 608 504 L 608 504 L 608 96 L 608 96 L 624 96 L 640 96 L 640 80 L 640 80 L 640 16 L 640 16 L 640 0 L 640 0 L 624 0 L 16 0 Z M 48 496 L 48 96 L 48 496 L 48 96 L 592 96 L 592 96 L 592 496 L 592 496 L 496 496 L 496 496 L 496 352 L 496 352 Q 494 277 444 228 Q 395 178 320 176 Q 245 178 196 228 Q 146 277 144 352 L 144 496 L 144 496 L 48 496 L 48 496 Z M 331 299 L 298 266 L 331 299 L 298 266 Q 272 280 242 316 Q 211 352 208 400 Q 209 448 241 479 Q 272 511 320 512 Q 368 511 399 479 Q 431 448 432 400 Q 433 385 419 354 Q 404 323 365 288 L 354 299 L 354 299 L 342 310 L 342 310 L 331 299 L 331 299 Z M 366 310 Q 396 340 406 365 L 406 365 L 406 365 Q 417 390 416 400 Q 415 445 382 473 Q 387 462 387 449 Q 386 424 370 403 Q 354 382 337 369 Q 321 356 320 355 Q 320 355 320 355 Q 319 356 303 369 Q 286 382 270 403 Q 254 424 253 449 Q 253 462 258 473 Q 225 445 224 400 Q 226 360 254 326 Q 275 301 296 286 L 331 322 L 331 322 L 342 333 L 342 333 L 354 322 L 354 322 L 365 310 L 366 310 Z M 320 496 Q 298 496 283 482 L 283 482 L 283 482 Q 269 469 269 449 Q 271 421 298 395 Q 310 383 319 376 L 320 375 L 320 375 L 321 376 L 321 376 Q 330 383 342 395 Q 369 421 371 449 Q 371 469 357 482 Q 342 496 320 496 L 320 496 Z" />
</svg>