<svg xmlns="http://www.w3.org/2000/svg" viewBox="0 0 624 512">
  <path d="M 502 96 L 536 96 L 502 96 L 536 96 L 536 64 L 536 64 L 504 64 L 425 64 L 390 8 L 390 8 L 385 0 L 385 0 L 376 0 L 239 0 L 234 8 L 234 8 L 199 64 L 199 64 L 172 64 L 172 64 L 213 96 L 213 96 L 470 96 L 470 96 L 456 288 L 456 288 L 486 312 L 486 312 L 502 96 L 502 96 Z M 445 443 L 442 480 L 445 443 L 442 480 L 182 480 L 182 480 L 163 220 L 163 220 L 129 193 L 129 193 L 152 512 L 152 512 L 472 512 L 472 512 L 475 466 L 475 466 L 445 442 L 445 443 Z M 237 64 L 257 32 L 237 64 L 257 32 L 367 32 L 367 32 L 387 64 L 387 64 L 237 64 L 237 64 Z M 32 18 L 20 8 L 32 18 L 20 8 L 0 33 L 0 33 L 13 43 L 13 43 L 592 494 L 592 494 L 604 504 L 604 504 L 624 479 L 624 479 L 612 469 L 612 469 L 32 18 L 32 18 Z" />
</svg>