<svg xmlns="http://www.w3.org/2000/svg" viewBox="0 0 512 512">
  <path d="M 331 43 L 353 65 L 331 43 L 353 65 L 364 76 L 364 76 L 353 87 L 353 87 L 267 173 L 267 173 L 256 184 L 256 184 L 267 195 L 267 195 L 317 245 L 317 245 L 328 256 L 328 256 L 339 245 L 339 245 L 425 159 L 425 159 L 436 148 L 436 148 L 447 159 L 447 159 L 469 181 L 469 181 L 480 192 L 480 192 L 491 181 L 491 181 L 512 160 L 512 160 L 512 16 L 512 16 L 512 0 L 512 0 L 496 0 L 352 0 L 331 21 L 331 21 L 320 32 L 320 32 L 331 43 L 331 43 Z M 375 87 L 387 76 L 375 87 L 387 76 L 375 65 L 375 65 L 343 32 L 343 32 L 359 16 L 359 16 L 496 16 L 496 16 L 496 153 L 496 153 L 480 169 L 480 169 L 447 137 L 447 137 L 436 125 L 436 125 L 425 137 L 425 137 L 328 233 L 328 233 L 279 184 L 279 184 L 375 87 L 375 87 Z M 181 469 L 159 447 L 181 469 L 159 447 L 148 436 L 148 436 L 159 425 L 159 425 L 245 339 L 245 339 L 256 328 L 256 328 L 245 317 L 245 317 L 195 267 L 195 267 L 184 256 L 184 256 L 173 267 L 173 267 L 87 353 L 87 353 L 76 364 L 76 364 L 65 353 L 65 353 L 43 331 L 43 331 L 32 320 L 32 320 L 21 331 L 21 331 L 0 352 L 0 352 L 0 496 L 0 496 L 0 512 L 0 512 L 16 512 L 160 512 L 181 491 L 181 491 L 192 480 L 192 480 L 181 469 L 181 469 Z M 137 425 L 125 436 L 137 425 L 125 436 L 137 447 L 137 447 L 169 480 L 169 480 L 153 496 L 153 496 L 16 496 L 16 496 L 16 359 L 16 359 L 32 343 L 32 343 L 65 375 L 65 375 L 76 387 L 76 387 L 87 375 L 87 375 L 184 279 L 184 279 L 233 328 L 233 328 L 137 425 L 137 425 Z" />
</svg>