<svg xmlns="http://www.w3.org/2000/svg" viewBox="0 0 640 512">
  <path d="M 512 16 L 512 0 L 512 16 L 512 0 L 496 0 L 128 0 L 128 13 L 128 13 L 144 25 L 144 25 L 144 16 L 144 16 L 496 16 L 496 16 L 496 303 L 496 303 L 512 316 L 512 316 L 512 16 L 512 16 Z M 144 484 L 144 209 L 144 484 L 144 209 L 128 196 L 128 196 L 128 493 L 128 493 L 128 512 L 128 512 L 144 503 L 144 503 L 320 400 L 320 400 L 496 503 L 496 503 L 512 512 L 512 512 L 512 499 L 512 499 L 484 477 L 484 477 L 328 386 L 328 386 L 320 382 L 320 382 L 312 386 L 312 386 L 144 484 L 144 484 Z M 16 5 L 10 0 L 16 5 L 10 0 L 0 13 L 0 13 L 6 18 L 6 18 L 624 507 L 624 507 L 630 512 L 630 512 L 640 500 L 640 500 L 634 495 L 634 495 L 16 5 L 16 5 Z" />
</svg>