<svg xmlns="http://www.w3.org/2000/svg" viewBox="0 0 640 480">
  <path d="M 112 0 L 106 0 L 112 0 L 106 0 L 104 6 L 104 6 L 58 160 L 58 160 L 16 160 L 0 160 L 0 176 L 0 176 L 0 352 L 0 352 L 0 368 L 0 368 L 0 432 L 0 432 L 0 448 L 0 448 L 16 448 L 96 448 L 96 432 L 96 432 L 96 368 L 96 368 L 323 368 L 323 368 Q 321 360 321 352 L 96 352 L 16 352 L 16 176 L 16 176 L 423 176 L 423 176 Q 438 169 455 165 L 408 6 L 408 6 L 406 0 L 406 0 L 400 0 L 112 0 Z M 16 368 L 80 368 L 16 368 L 80 368 L 80 432 L 80 432 L 16 432 L 16 432 L 16 368 L 16 368 Z M 437 160 L 432 160 L 437 160 L 75 160 L 118 16 L 118 16 L 394 16 L 394 16 L 437 160 L 437 160 Z M 80 256 Q 81 241 96 240 Q 111 241 112 256 Q 111 271 96 272 Q 81 271 80 256 L 80 256 Z M 128 256 Q 128 242 119 233 L 119 233 L 119 233 Q 110 224 96 224 Q 82 224 73 233 Q 64 242 64 256 Q 64 270 73 279 Q 82 288 96 288 Q 110 288 119 279 Q 128 270 128 256 L 128 256 Z M 496 208 Q 531 208 560 225 L 560 225 L 560 225 Q 589 242 607 272 Q 624 302 624 336 Q 624 370 607 400 Q 589 430 560 447 Q 531 464 496 464 Q 461 464 432 447 Q 403 430 385 400 Q 368 370 368 336 Q 368 302 385 272 Q 403 242 432 225 Q 461 208 496 208 L 496 208 Z M 496 480 Q 535 480 568 461 L 568 461 L 568 461 Q 601 442 621 408 Q 640 374 640 336 Q 640 298 621 264 Q 601 230 568 211 Q 535 192 496 192 Q 457 192 424 211 Q 391 230 371 264 Q 352 298 352 336 Q 352 374 371 408 Q 391 442 424 461 Q 457 480 496 480 L 496 480 Z M 521 249 L 503 266 L 521 249 L 503 266 L 419 346 L 419 346 L 404 360 L 404 360 L 424 360 L 476 360 L 468 398 L 468 398 L 463 423 L 463 423 L 481 406 L 481 406 L 565 326 L 565 326 L 580 312 L 580 312 L 560 312 L 508 312 L 516 274 L 516 274 L 521 249 L 521 249 Z M 444 344 L 495 295 L 444 344 L 495 295 L 491 318 L 491 318 L 489 328 L 489 328 L 499 328 L 540 328 L 489 377 L 489 377 L 493 354 L 493 354 L 495 344 L 495 344 L 486 344 L 444 344 Z" />
</svg>