<svg xmlns="http://www.w3.org/2000/svg" viewBox="0 0 512 512">
  <path d="M 256 16 Q 321 17 376 48 L 376 48 L 376 48 Q 431 80 464 136 Q 496 193 496 256 Q 496 319 464 376 Q 431 432 376 464 Q 321 495 256 496 Q 191 495 136 464 Q 81 432 48 376 Q 16 319 16 256 Q 16 193 48 136 Q 81 80 136 48 Q 191 17 256 16 L 256 16 Z M 256 512 Q 326 511 384 478 L 384 478 L 384 478 Q 442 444 478 384 Q 512 323 512 256 Q 512 189 478 128 Q 442 68 384 34 Q 326 1 256 0 Q 186 1 128 34 Q 70 68 34 128 Q 0 189 0 256 Q 0 323 34 384 Q 70 444 128 478 Q 186 511 256 512 L 256 512 Z M 183 113 L 179 107 L 183 113 L 179 107 L 172 111 L 172 111 Q 134 133 111 171 Q 89 209 88 256 L 88 264 L 88 264 L 96 264 L 193 264 Q 192 260 192 256 Q 192 252 193 248 L 104 248 L 104 248 Q 107 210 125 179 Q 143 148 173 129 L 217 205 L 217 205 Q 224 200 231 197 L 183 113 L 183 113 Z M 281 197 Q 288 200 295 205 L 339 129 L 339 129 Q 369 148 387 179 Q 405 210 408 248 L 320 248 L 320 248 Q 320 252 320 256 Q 320 260 320 264 L 416 264 L 424 264 L 424 256 L 424 256 Q 423 209 401 171 Q 378 133 340 111 L 333 107 L 333 107 L 329 113 L 329 113 L 281 197 L 281 197 Z M 295 307 Q 288 312 281 315 L 325 392 L 325 392 Q 294 408 256 408 Q 218 408 187 392 L 231 315 L 231 315 Q 224 312 217 307 L 169 391 L 169 391 L 165 398 L 165 398 L 172 402 L 172 402 Q 210 423 256 424 Q 302 423 340 402 L 347 398 L 347 398 L 343 391 L 343 391 L 295 307 L 295 307 Z M 272 256 Q 271 271 256 272 Q 241 271 240 256 Q 241 241 256 240 Q 271 241 272 256 L 272 256 Z M 256 224 Q 242 224 233 233 L 233 233 L 233 233 Q 224 242 224 256 Q 224 270 233 279 Q 242 288 256 288 Q 270 288 279 279 Q 288 270 288 256 Q 288 242 279 233 Q 270 224 256 224 L 256 224 Z" />
</svg>