<svg xmlns="http://www.w3.org/2000/svg" viewBox="0 0 512 512">
  <path d="M 280 88 Q 281 57 301 37 L 301 37 L 301 37 Q 321 17 352 16 Q 383 17 403 37 Q 423 57 424 88 L 424 128 L 424 128 Q 391 131 372 150 Q 352 169 352 203 Q 353 226 375 258 Q 398 291 432 320 Q 466 291 489 258 Q 511 226 512 203 Q 512 169 492 150 Q 473 131 440 128 L 440 88 L 440 88 Q 439 51 414 26 Q 389 1 352 0 Q 315 1 290 26 Q 265 51 264 88 L 264 177 L 264 177 Q 250 154 227 141 Q 204 128 176 128 Q 132 129 102 158 Q 73 188 72 232 L 72 256 L 72 256 Q 39 259 20 278 Q 0 297 0 331 Q 1 354 23 386 Q 46 419 80 448 Q 114 419 137 386 Q 159 354 160 331 Q 160 297 140 278 Q 121 259 88 256 L 88 232 L 88 232 Q 89 195 114 170 Q 139 145 176 144 Q 213 145 238 170 Q 263 195 264 232 L 264 280 L 264 280 L 264 288 L 264 288 L 264 504 L 264 504 L 264 512 L 264 512 L 280 512 L 280 512 L 280 504 L 280 504 L 280 288 L 280 288 L 280 280 L 280 280 L 280 232 L 280 232 L 280 88 L 280 88 Z M 424 144 L 424 200 L 424 144 L 424 200 L 424 208 L 424 208 L 440 208 L 440 208 L 440 200 L 440 200 L 440 144 L 440 144 Q 465 147 479 160 Q 495 174 496 203 Q 496 218 475 249 Q 458 274 432 299 Q 406 274 389 249 Q 368 218 368 203 Q 369 174 385 160 Q 399 147 424 144 L 424 144 Z M 33 288 Q 47 275 72 272 L 72 328 L 72 328 L 72 336 L 72 336 L 88 336 L 88 336 L 88 328 L 88 328 L 88 272 L 88 272 Q 113 275 127 288 Q 143 302 144 331 Q 144 346 123 377 Q 106 402 80 427 Q 54 402 37 377 Q 16 346 16 331 Q 17 302 33 288 L 33 288 Z" />
</svg>