<svg xmlns="http://www.w3.org/2000/svg" viewBox="0 0 640 448">
  <path d="M 32 32 L 32 96 L 32 32 L 32 96 L 96 96 L 128 96 L 128 128 L 128 128 L 128 320 L 128 320 L 128 352 L 128 352 L 96 352 L 32 352 L 32 416 L 32 416 L 304 416 L 304 416 L 304 319 L 304 319 Q 269 312 247 286 Q 225 260 224 224 Q 225 188 247 162 Q 269 136 304 129 L 304 32 L 304 32 L 32 32 L 32 32 Z M 336 319 L 336 416 L 336 319 L 336 416 L 608 416 L 608 416 L 608 352 L 608 352 L 544 352 L 512 352 L 512 320 L 512 320 L 512 128 L 512 128 L 512 96 L 512 96 L 544 96 L 608 96 L 608 32 L 608 32 L 336 32 L 336 32 L 336 129 L 336 129 Q 371 136 393 162 Q 415 188 416 224 Q 415 260 393 286 Q 371 312 336 319 L 336 319 Z M 336 162 L 336 286 L 336 162 L 336 286 Q 357 280 370 264 Q 384 247 384 224 Q 384 201 370 184 Q 357 168 336 162 L 336 162 Z M 304 162 Q 283 168 270 184 L 270 184 L 270 184 Q 256 201 256 224 Q 256 247 270 264 Q 283 280 304 286 L 304 162 L 304 162 Z M 32 128 L 32 320 L 32 128 L 32 320 L 96 320 L 96 320 L 96 128 L 96 128 L 32 128 L 32 128 Z M 544 320 L 608 320 L 544 320 L 608 320 L 608 128 L 608 128 L 544 128 L 544 128 L 544 320 L 544 320 Z M 0 0 L 32 0 L 0 0 L 640 0 L 640 32 L 640 32 L 640 416 L 640 416 L 640 448 L 640 448 L 608 448 L 0 448 L 0 416 L 0 416 L 0 32 L 0 32 L 0 0 L 0 0 Z" />
</svg>