<svg xmlns="http://www.w3.org/2000/svg" viewBox="0 0 512 448">
  <path d="M 32 0 L 224 0 L 32 0 L 224 0 L 272 64 L 272 64 L 480 64 L 512 64 L 512 96 L 512 96 L 512 416 L 512 416 L 512 448 L 512 448 L 480 448 L 0 448 L 0 416 L 0 416 L 0 32 L 0 32 L 0 0 L 0 0 L 32 0 L 32 0 Z M 272 96 L 256 96 L 272 96 L 256 96 L 246 83 L 246 83 L 208 32 L 208 32 L 32 32 L 32 32 L 32 416 L 32 416 L 480 416 L 480 416 L 480 96 L 480 96 L 272 96 L 272 96 Z M 235 331 L 224 343 L 235 331 L 224 343 L 213 331 L 213 331 L 141 259 L 141 259 L 163 237 L 163 237 L 224 297 L 224 297 L 349 173 L 349 173 L 371 195 L 371 195 L 235 331 L 235 331 Z" />
</svg>