<svg xmlns="http://www.w3.org/2000/svg" viewBox="0 0 512 512">
  <path d="M 256 16 Q 189 17 135 49 L 135 49 L 135 49 Q 81 81 49 135 L 49 135 L 49 135 Q 17 189 16 256 Q 17 332 58 391 Q 98 450 165 478 Q 168 489 175 499 Q 97 472 49 407 Q 1 342 0 256 Q 1 184 35 127 Q 69 69 127 35 Q 184 1 256 0 Q 328 1 385 35 Q 443 69 477 127 Q 511 184 512 256 Q 511 342 463 407 Q 415 472 338 499 Q 344 489 347 478 Q 414 450 454 391 Q 495 332 496 256 Q 495 189 463 135 Q 431 81 377 49 Q 323 17 256 16 L 256 16 Z M 312 208 Q 336 207 352 192 L 352 192 L 352 192 Q 367 176 368 152 Q 368 131 354 116 Q 341 100 321 97 Q 335 108 336 128 Q 336 145 324 156 Q 313 168 296 168 Q 267 166 258 139 Q 256 145 256 152 Q 257 176 272 192 Q 288 207 312 208 L 312 208 Z M 312 80 Q 353 81 374 116 Q 394 152 374 188 Q 353 223 312 224 Q 271 223 250 188 Q 230 152 250 116 Q 271 81 312 80 L 312 80 Z M 184 368 L 192 368 L 184 368 L 243 368 L 246 370 L 246 370 L 256 381 L 256 381 L 266 370 L 266 370 L 269 368 L 269 368 L 272 368 L 328 368 L 328 376 L 328 376 L 328 440 L 328 440 Q 327 471 307 491 Q 287 511 256 512 Q 225 511 205 491 Q 185 471 184 440 L 184 376 L 184 376 L 184 368 L 184 368 Z M 248 395 L 237 384 L 248 395 L 237 384 L 200 384 L 200 384 L 200 440 L 200 440 Q 201 464 216 480 Q 232 495 256 496 Q 280 495 296 480 Q 311 464 312 440 L 312 384 L 312 384 L 275 384 L 275 384 L 264 395 L 264 395 L 264 424 L 264 424 L 264 432 L 264 432 L 248 432 L 248 432 L 248 424 L 248 424 L 248 395 L 248 395 Z M 176 224 Q 175 197 152 182 Q 128 170 104 182 Q 81 197 80 224 Q 81 251 104 266 Q 128 278 152 266 Q 175 251 176 224 L 176 224 Z M 64 224 Q 65 188 96 169 Q 128 151 160 169 Q 191 188 192 224 Q 191 260 160 279 Q 128 297 96 279 Q 65 260 64 224 L 64 224 Z M 296 152 Q 318 150 320 128 Q 318 106 296 104 Q 274 106 272 128 Q 274 150 296 152 L 296 152 Z M 128 208 Q 143 209 144 224 Q 143 239 128 240 Q 113 239 112 224 Q 113 209 128 208 L 128 208 Z M 387 229 L 391 236 L 387 229 L 391 236 Q 408 267 408 304 Q 406 372 358 414 L 351 419 L 351 419 L 341 407 L 341 407 L 347 401 L 347 401 Q 390 364 392 304 Q 392 275 381 251 L 155 371 L 155 371 Q 160 379 166 386 L 171 392 L 171 392 L 158 402 L 158 402 L 153 396 L 153 396 Q 144 385 137 372 L 133 365 L 133 365 L 140 361 L 140 361 L 380 233 L 380 233 L 387 229 L 387 229 Z" />
</svg>