<svg xmlns="http://www.w3.org/2000/svg" viewBox="0 0 458 472">
  <path d="M 390 84 Q 428 128 419 200 Q 409 277 341 348 Q 270 416 193 426 Q 135 434 94 410 L 147 313 L 147 313 L 336 188 L 336 188 L 340 185 L 340 185 L 342 181 L 342 181 L 390 84 L 390 84 Z M 365 63 L 315 163 L 365 63 L 315 163 L 126 289 L 126 289 L 123 291 L 123 291 L 121 295 L 121 295 L 69 389 L 69 389 Q 29 345 39 272 Q 49 195 117 124 Q 188 56 265 46 Q 324 38 365 63 L 365 63 Z M 392 43 Q 331 0 249 16 L 249 16 L 249 16 Q 166 32 95 102 Q 45 152 22 211 Q 0 269 6 323 Q 13 377 50 415 Q 51 417 53 419 Q 62 427 72 434 Q 75 436 78 437 Q 78 438 79 438 Q 79 438 79 438 Q 79 438 79 438 Q 140 472 218 454 Q 296 436 363 371 Q 413 320 436 262 Q 458 203 452 149 Q 445 95 408 57 Q 408 57 408 57 Q 407 55 405 54 Q 400 50 395 46 Q 395 45 395 45 Q 394 44 393 44 Q 393 44 393 44 Q 392 43 392 43 L 392 43 Z" />
</svg>