<svg xmlns="http://www.w3.org/2000/svg" viewBox="0 0 512 448">
  <path d="M 72 344 L 76 335 L 72 344 L 76 335 L 68 328 L 68 328 Q 17 276 16 208 Q 18 128 85 73 Q 152 18 256 16 Q 360 18 427 73 Q 494 128 496 208 Q 494 288 427 343 Q 360 398 256 400 Q 211 400 171 388 L 166 386 L 166 386 L 162 388 L 162 388 L 42 423 L 42 423 L 72 344 L 72 344 Z M 16 448 L 35 442 L 16 448 L 35 442 L 166 403 L 166 403 Q 209 416 256 416 Q 328 415 385 388 Q 443 360 477 313 Q 511 266 512 208 Q 511 150 477 103 Q 443 56 385 28 Q 328 1 256 0 Q 184 1 127 28 Q 69 56 35 103 Q 1 150 0 208 Q 2 284 57 339 L 23 429 L 23 429 L 16 448 L 16 448 Z M 264 112 L 248 112 L 264 112 L 248 112 L 248 120 L 248 120 L 248 200 L 248 200 L 168 200 L 160 200 L 160 216 L 160 216 L 168 216 L 248 216 L 248 296 L 248 296 L 248 304 L 248 304 L 264 304 L 264 304 L 264 296 L 264 296 L 264 216 L 264 216 L 344 216 L 352 216 L 352 200 L 352 200 L 344 200 L 264 200 L 264 120 L 264 120 L 264 112 L 264 112 Z" />
</svg>