<svg xmlns="http://www.w3.org/2000/svg" viewBox="0 0 640 512">
  <path d="M 160 0 L 256 0 L 160 0 L 260 0 L 263 4 L 263 4 L 300 64 L 300 64 L 416 64 L 416 64 L 416 80 L 416 80 L 0 80 L 0 80 L 0 64 L 0 64 L 116 64 L 116 64 L 153 4 L 153 4 L 156 0 L 156 0 L 160 0 L 160 0 Z M 282 64 L 252 16 L 282 64 L 252 16 L 165 16 L 165 16 L 135 64 L 135 64 L 282 64 L 282 64 Z M 448 128 L 640 128 L 448 128 L 640 128 L 640 144 L 640 144 L 448 144 L 448 144 L 448 128 L 448 128 Z M 448 256 L 608 256 L 448 256 L 608 256 L 608 272 L 608 272 L 448 272 L 448 272 L 448 256 L 448 256 Z M 544 384 L 544 400 L 544 384 L 544 400 L 448 400 L 448 400 L 448 384 L 448 384 L 544 384 L 544 384 Z M 64 505 L 31 112 L 64 505 L 31 112 L 47 112 L 47 112 L 79 496 L 79 496 L 337 496 L 337 496 L 369 112 L 369 112 L 385 112 L 385 112 L 352 505 L 352 505 L 351 512 L 351 512 L 344 512 L 65 512 L 64 505 L 64 505 Z" />
</svg>