<svg xmlns="http://www.w3.org/2000/svg" viewBox="0 0 512 512">
  <path d="M 256 16 Q 321 17 376 48 L 376 48 L 376 48 Q 431 80 464 136 Q 496 193 496 256 Q 496 319 464 376 Q 431 432 376 464 Q 321 495 256 496 Q 191 495 136 464 Q 81 432 48 376 Q 16 319 16 256 Q 16 193 48 136 Q 81 80 136 48 Q 191 17 256 16 L 256 16 Z M 256 512 Q 326 511 384 478 L 384 478 L 384 478 Q 442 444 478 384 Q 512 323 512 256 Q 512 189 478 128 Q 442 68 384 34 Q 326 1 256 0 Q 186 1 128 34 Q 70 68 34 128 Q 0 189 0 256 Q 0 323 34 384 Q 70 444 128 478 Q 186 511 256 512 L 256 512 Z M 222 83 L 209 86 L 222 83 L 209 86 Q 152 103 117 149 Q 81 194 80 256 Q 81 318 117 363 Q 152 409 209 426 L 222 429 L 222 429 L 227 418 L 227 418 Q 236 401 256 400 Q 275 401 284 418 L 290 429 L 290 429 L 303 426 L 303 426 Q 360 409 395 363 Q 431 318 432 256 Q 431 194 395 149 Q 360 103 303 86 L 291 83 L 291 83 L 285 94 L 285 94 Q 276 111 256 112 Q 236 111 228 95 L 222 83 L 222 83 Z M 213 102 Q 227 127 256 128 Q 285 127 299 102 Q 350 117 383 158 Q 415 200 416 256 Q 415 312 383 354 Q 350 395 299 410 Q 285 385 256 384 Q 227 385 213 410 Q 162 395 129 354 Q 97 312 96 256 Q 97 200 129 158 Q 162 117 213 102 L 213 102 Z M 204 180 L 180 180 L 204 180 L 180 180 L 180 204 L 180 204 L 204 204 L 204 204 L 204 180 L 204 180 Z M 204 244 L 180 244 L 204 244 L 180 244 L 180 268 L 180 268 L 204 268 L 204 268 L 204 244 L 204 244 Z M 180 308 L 180 332 L 180 308 L 180 332 L 204 332 L 204 332 L 204 308 L 204 308 L 180 308 L 180 308 Z M 268 204 L 268 180 L 268 204 L 268 180 L 244 180 L 244 180 L 244 204 L 244 204 L 268 204 L 268 204 Z M 268 332 L 268 308 L 268 332 L 268 308 L 244 308 L 244 308 L 244 332 L 244 332 L 268 332 L 268 332 Z M 308 180 L 308 204 L 308 180 L 308 204 L 332 204 L 332 204 L 332 180 L 332 180 L 308 180 L 308 180 Z M 244 244 L 244 268 L 244 244 L 244 268 L 268 268 L 268 268 L 268 244 L 268 244 L 244 244 L 244 244 Z M 332 244 L 308 244 L 332 244 L 308 244 L 308 268 L 308 268 L 332 268 L 332 268 L 332 244 L 332 244 Z M 308 308 L 308 332 L 308 308 L 308 332 L 332 332 L 332 332 L 332 308 L 332 308 L 308 308 L 308 308 Z" />
</svg>