<svg xmlns="http://www.w3.org/2000/svg" viewBox="0 0 512 512">
  <path d="M 256 0 Q 296 0 332 12 L 319 24 L 319 24 Q 289 16 256 16 Q 189 17 135 49 Q 81 81 49 135 Q 17 189 16 256 Q 17 323 49 377 Q 81 431 135 463 Q 189 495 256 496 Q 323 495 377 463 Q 431 431 463 377 Q 495 323 496 256 Q 496 223 488 193 L 501 180 L 501 180 Q 512 216 512 256 Q 511 328 477 385 Q 443 443 385 477 Q 328 511 256 512 Q 184 511 127 477 Q 69 443 35 385 Q 1 328 0 256 Q 1 184 35 127 Q 69 69 127 35 Q 184 1 256 0 L 256 0 Z M 256 88 Q 269 88 281 90 L 284 107 L 284 107 Q 270 104 256 104 Q 191 106 149 149 Q 106 191 104 256 Q 106 321 149 363 Q 191 406 256 408 Q 321 406 363 363 Q 406 321 408 256 Q 408 242 405 228 L 422 231 L 422 231 Q 424 243 424 256 Q 422 327 375 375 Q 327 422 256 424 Q 185 422 137 375 Q 90 327 88 256 Q 90 185 137 137 Q 185 90 256 88 L 256 88 Z M 270 185 L 255 200 L 270 185 L 255 200 Q 232 201 216 216 Q 201 232 200 255 L 199 256 L 199 256 L 200 257 L 200 257 Q 201 280 216 296 Q 232 311 255 312 L 256 313 L 256 313 L 257 312 L 257 312 Q 280 311 296 296 Q 311 280 312 257 L 327 242 L 327 242 Q 328 249 328 256 Q 327 287 307 307 Q 287 327 256 328 Q 225 327 205 307 Q 185 287 184 256 Q 185 225 205 205 Q 225 185 256 184 Q 263 184 270 186 L 270 185 Z M 407 94 L 381 30 L 407 94 L 381 30 L 329 83 L 329 83 L 341 159 L 341 159 L 407 94 L 407 94 Z M 353 171 L 429 184 L 353 171 L 429 184 L 482 131 L 482 131 L 418 106 L 418 106 L 353 171 L 353 171 Z M 339 185 L 262 262 L 339 185 L 262 262 L 256 267 L 256 267 L 245 256 L 245 256 L 250 250 L 250 250 L 328 173 L 328 173 L 312 81 L 312 81 L 311 77 L 311 77 L 314 74 L 314 74 L 378 10 L 378 10 L 387 2 L 387 2 L 391 13 L 391 13 L 422 90 L 422 90 L 499 121 L 499 121 L 510 125 L 510 125 L 502 134 L 502 134 L 438 198 L 438 198 L 435 201 L 435 201 L 431 200 L 431 200 L 339 185 L 339 185 Z" />
</svg>