<svg xmlns="http://www.w3.org/2000/svg" viewBox="0 0 512 384">
  <path d="M 128 0 L 136 0 L 128 0 L 384 0 L 384 8 L 384 8 L 384 64 L 384 64 L 440 64 L 448 64 L 448 72 L 448 72 L 448 128 L 448 128 L 504 128 L 512 128 L 512 136 L 512 136 L 512 376 L 512 376 L 512 384 L 512 384 L 504 384 L 0 384 L 0 376 L 0 376 L 0 136 L 0 136 L 0 128 L 0 128 L 8 128 L 64 128 L 64 72 L 64 72 L 64 64 L 64 64 L 72 64 L 128 64 L 128 8 L 128 8 L 128 0 L 128 0 Z M 144 16 L 144 72 L 144 16 L 144 72 L 144 80 L 144 80 L 136 80 L 80 80 L 80 136 L 80 136 L 80 144 L 80 144 L 72 144 L 16 144 L 16 368 L 16 368 L 104 368 L 104 368 L 104 264 L 104 264 L 104 256 L 104 256 L 120 256 L 120 256 L 120 264 L 120 264 L 120 368 L 120 368 L 200 368 L 200 368 L 200 264 L 200 264 L 200 256 L 200 256 L 216 256 L 216 256 L 216 264 L 216 264 L 216 368 L 216 368 L 296 368 L 296 368 L 296 264 L 296 264 L 296 256 L 296 256 L 312 256 L 312 256 L 312 264 L 312 264 L 312 368 L 312 368 L 392 368 L 392 368 L 392 264 L 392 264 L 392 256 L 392 256 L 408 256 L 408 256 L 408 264 L 408 264 L 408 368 L 408 368 L 496 368 L 496 368 L 496 144 L 496 144 L 440 144 L 432 144 L 432 136 L 432 136 L 432 80 L 432 80 L 376 80 L 368 80 L 368 72 L 368 72 L 368 16 L 368 16 L 144 16 L 144 16 Z" />
</svg>