<svg xmlns="http://www.w3.org/2000/svg" viewBox="0 0 512 512">
  <path d="M 112 464 L 48 464 L 112 464 L 48 464 L 48 48 L 48 48 L 224 48 L 224 48 L 224 160 L 224 160 L 336 160 L 336 160 L 336 304 L 336 304 L 384 304 L 384 304 L 384 128 L 384 128 L 256 0 L 256 0 L 48 0 L 0 0 L 0 48 L 0 48 L 0 464 L 0 464 L 0 512 L 0 512 L 48 512 L 112 512 L 112 464 L 112 464 Z M 288 352 L 288 368 L 288 352 L 288 368 L 288 448 L 288 448 L 288 496 L 288 496 L 288 512 L 288 512 L 320 512 L 320 512 L 320 496 L 320 496 L 320 464 L 320 464 L 336 464 L 336 464 Q 360 463 376 448 Q 391 432 392 408 Q 391 384 376 368 Q 360 353 336 352 L 304 352 L 288 352 Z M 320 432 L 320 384 L 320 432 L 320 384 L 336 384 L 336 384 Q 358 386 360 408 Q 358 430 336 432 L 320 432 L 320 432 Z M 160 352 L 160 368 L 160 352 L 160 368 L 160 448 L 160 448 L 160 496 L 160 496 L 160 512 L 160 512 L 192 512 L 192 512 L 192 496 L 192 496 L 192 464 L 192 464 L 208 464 L 208 464 Q 232 463 248 448 Q 263 432 264 408 Q 263 384 248 368 Q 232 353 208 352 L 176 352 L 160 352 Z M 192 432 L 192 384 L 192 432 L 192 384 L 208 384 L 208 384 Q 230 386 232 408 Q 230 430 208 432 L 192 432 L 192 432 Z M 416 352 L 416 384 L 416 352 L 416 384 L 432 384 L 448 384 L 448 496 L 448 496 L 448 512 L 448 512 L 480 512 L 480 512 L 480 496 L 480 496 L 480 384 L 480 384 L 496 384 L 512 384 L 512 352 L 512 352 L 496 352 L 416 352 Z" />
</svg>