<svg xmlns="http://www.w3.org/2000/svg" viewBox="0 0 512 512">
  <path d="M 87 352 Q 75 314 84 257 L 84 257 L 84 257 Q 94 201 149 143 Q 181 111 230 88 Q 278 65 332 50 Q 378 37 420 29 Q 462 21 494 18 Q 491 50 483 92 Q 475 134 462 180 Q 456 202 448 224 L 299 224 L 299 224 L 350 173 L 350 173 L 356 167 L 356 167 L 345 156 L 345 156 L 339 162 L 339 162 L 110 391 L 110 391 Q 93 373 87 352 L 87 352 Z M 110 413 Q 130 433 156 441 Q 198 454 258 443 Q 319 433 380 375 Q 423 330 450 264 Q 477 198 492 130 Q 506 63 511 16 Q 511 8 512 0 Q 505 1 496 2 Q 449 6 381 20 Q 314 35 248 62 Q 182 89 137 132 Q 79 193 69 254 Q 58 314 71 356 Q 79 382 99 402 L 6 495 L 6 495 L 0 501 L 0 501 L 12 512 L 12 512 L 17 506 L 17 506 L 110 413 L 110 413 Z M 121 402 L 187 336 L 121 402 L 187 336 L 392 336 L 392 336 Q 381 351 369 363 Q 311 418 255 428 Q 198 437 160 425 Q 139 419 121 402 L 121 402 Z M 403 320 L 203 320 L 403 320 L 203 320 L 283 240 L 283 240 L 442 240 L 442 240 Q 426 284 403 320 L 403 320 Z" />
</svg>