<svg xmlns="http://www.w3.org/2000/svg" viewBox="0 0 320 448">
  <path d="M 8 0 L 0 0 L 8 0 L 0 0 L 0 8 L 0 8 L 0 248 L 0 248 L 0 440 L 0 440 L 0 448 L 0 448 L 16 448 L 16 448 L 16 440 L 16 440 L 16 256 L 16 256 L 176 256 L 183 256 L 185 260 L 185 260 L 301 448 L 301 448 L 320 448 L 320 448 L 201 256 L 201 256 Q 252 251 286 215 Q 319 180 320 128 Q 319 74 283 37 Q 246 1 192 0 L 8 0 L 8 0 Z M 176 240 L 16 240 L 176 240 L 16 240 L 16 16 L 16 16 L 192 16 L 192 16 Q 240 17 271 49 Q 303 80 304 128 Q 303 176 271 207 Q 240 239 192 240 L 176 240 L 176 240 Z" />
</svg>