<svg xmlns="http://www.w3.org/2000/svg" viewBox="0 0 512 512">
  <path d="M 132.24432 93.37522 Q 133.13788 65.67539 151.90227 46.910995 L 151.90227 46.910995 Q 170.66667 28.146597 198.36649 27.253054 L 201.04712 27.253054 Q 228.74695 27.253054 248.40489 46.910995 L 257.3403 54.95288 L 266.27576 46.910995 Q 285.9337 27.253054 313.6335 27.253054 L 316.31415 27.253054 Q 344.01395 28.146597 362.77835 46.910995 Q 381.54276 65.67539 382.4363 93.37522 Q 382.4363 121.07504 361.88483 140.73299 L 269.8499 230.08727 L 257.3403 241.70332 L 244.83072 230.08727 L 152.7958 140.73299 Q 132.24432 121.07504 132.24432 93.37522 L 132.24432 93.37522 Z M 143.86038 298.89005 L 150.11519 298.89005 L 343.12042 298.89005 L 364.56546 298.89005 L 364.56546 320.33508 L 364.56546 362.33157 L 436.04886 316.7609 L 453.9197 305.14484 L 465.53577 323.01572 L 501.2775 380.20245 L 512 398.0733 L 495.02267 409.68936 L 391.37173 481.17276 L 385.11694 484.74695 L 378.86212 484.74695 L 21.445026 484.74695 L 0 484.74695 L 0 441.8569 L 21.445026 441.8569 L 372.60733 441.8569 L 453.9197 385.5637 L 440.51657 364.11868 L 369.03317 409.68936 L 363.6719 413.26352 L 357.4171 413.26352 L 328.82373 413.26352 L 285.9337 413.26352 L 264.48865 413.26352 L 228.74695 413.26352 L 207.30193 413.26352 L 207.30193 370.37347 L 228.74695 370.37347 L 264.48865 370.37347 L 285.9337 370.37347 L 321.67538 370.37347 L 321.67538 341.7801 L 156.36998 341.7801 L 75.95113 395.39267 L 70.589874 398.96683 L 64.335075 398.96683 L 21.445026 398.96683 L 0 398.96683 L 0 356.07678 L 21.445026 356.07678 L 58.08028 356.07678 L 138.49913 302.46423 L 143.86038 298.89005 L 143.86038 298.89005 Z" />
</svg>