<svg xmlns="http://www.w3.org/2000/svg" viewBox="0 0 448 512">
  <path d="M 128 8 L 128 0 L 128 8 L 128 0 L 112 0 L 112 0 L 112 8 L 112 8 L 112 64 L 112 64 L 16 64 L 0 64 L 0 80 L 0 80 L 0 176 L 0 176 L 0 192 L 0 192 L 0 496 L 0 496 L 0 512 L 0 512 L 16 512 L 448 512 L 448 496 L 448 496 L 448 192 L 448 192 L 448 176 L 448 176 L 448 80 L 448 80 L 448 64 L 448 64 L 432 64 L 336 64 L 336 8 L 336 8 L 336 0 L 336 0 L 320 0 L 320 0 L 320 8 L 320 8 L 320 64 L 320 64 L 128 64 L 128 64 L 128 8 L 128 8 Z M 16 192 L 432 192 L 16 192 L 432 192 L 432 496 L 432 496 L 16 496 L 16 496 L 16 192 L 16 192 Z M 112 80 L 112 120 L 112 80 L 112 120 L 112 128 L 112 128 L 128 128 L 128 128 L 128 120 L 128 120 L 128 80 L 128 80 L 320 80 L 320 80 L 320 120 L 320 120 L 320 128 L 320 128 L 336 128 L 336 128 L 336 120 L 336 120 L 336 80 L 336 80 L 432 80 L 432 80 L 432 176 L 432 176 L 16 176 L 16 176 L 16 80 L 16 80 L 112 80 L 112 80 Z M 272 229 L 266 234 L 272 229 L 266 234 L 129 372 L 129 372 L 127 374 L 127 374 L 127 376 L 127 376 L 112 438 L 112 438 L 109 451 L 109 451 L 122 448 L 122 448 L 184 433 L 184 433 L 186 433 L 186 433 L 188 431 L 188 431 L 326 294 L 326 294 L 331 288 L 331 288 L 326 282 L 326 282 L 278 234 L 278 234 L 272 228 L 272 229 Z M 142 382 L 232 291 L 142 382 L 232 291 L 269 328 L 269 328 L 178 418 L 178 418 L 131 429 L 131 429 L 142 382 L 142 382 Z M 309 288 L 280 317 L 309 288 L 280 317 L 243 280 L 243 280 L 272 251 L 272 251 L 309 288 L 309 288 Z" />
</svg>