<svg xmlns="http://www.w3.org/2000/svg" viewBox="0 0 511 511">
  <path d="M 127 351 Q 115 351 103 350 L 74 379 L 74 379 Q 132 429 215 431 Q 307 429 368 368 Q 429 307 431 215 Q 429 132 379 74 L 350 103 L 350 103 Q 351 115 351 127 Q 350 190 320 240 Q 291 291 240 320 Q 190 350 127 351 L 127 351 Z M 63 390 L 24 429 L 63 390 L 24 429 Q 100 493 207 495 Q 287 494 352 456 Q 417 417 456 352 Q 494 287 495 207 Q 493 100 429 24 L 390 63 L 390 63 Q 445 126 447 215 Q 446 280 415 332 Q 384 384 332 415 Q 280 446 215 447 Q 126 445 63 390 L 63 390 Z M 335 127 Q 335 112 333 97 L 419 12 L 419 12 L 430 0 L 430 0 Q 435 6 440 12 Q 509 94 511 207 Q 510 292 469 360 Q 429 429 360 469 Q 292 510 207 511 Q 94 509 12 440 Q 6 435 0 430 L 11 419 L 11 419 L 97 333 L 97 333 Q 112 335 127 335 Q 215 333 274 274 Q 333 215 335 127 L 335 127 Z" />
</svg>