<svg xmlns="http://www.w3.org/2000/svg" viewBox="0 0 448 512">
  <path d="M 208 0 L 193 0 L 208 0 L 193 0 L 201 12 L 201 12 L 212 29 L 212 29 Q 216 34 216 41 Q 214 62 193 64 L 152 64 L 152 64 Q 125 65 107 83 Q 89 101 88 128 L 80 128 L 80 128 Q 46 129 23 151 Q 1 174 0 208 L 0 280 L 0 280 L 0 288 L 0 288 L 8 288 L 448 288 L 448 280 L 448 280 L 448 208 L 448 208 Q 447 174 425 151 Q 402 129 368 128 L 360 128 L 360 128 Q 360 127 360 127 Q 360 126 360 125 Q 359 72 323 37 Q 288 1 235 0 L 208 0 L 208 0 Z M 226 20 L 223 16 L 226 20 L 223 16 L 235 16 L 235 16 Q 281 17 312 48 Q 343 79 344 125 Q 344 130 343 135 L 342 144 L 342 144 L 351 144 L 368 144 Q 395 145 413 163 Q 431 181 432 208 L 432 272 L 432 272 L 16 272 L 16 272 L 16 208 L 16 208 Q 17 181 35 163 Q 53 145 80 144 L 97 144 L 106 144 L 104 135 L 104 135 Q 104 132 104 128 Q 105 108 118 94 Q 132 81 152 80 L 193 80 L 193 80 Q 210 80 221 69 Q 232 58 232 41 Q 232 30 226 20 L 226 20 Z M 96 512 L 352 512 L 96 512 L 352 512 L 379 320 L 379 320 L 363 320 L 363 320 L 338 496 L 338 496 L 272 496 L 272 496 L 287 320 L 287 320 L 271 320 L 271 320 L 256 495 L 256 495 Q 256 495 256 496 Q 256 496 256 496 L 192 496 L 192 496 Q 192 496 192 496 Q 192 496 192 495 L 177 320 L 177 320 L 161 320 L 161 320 L 176 496 L 176 496 L 110 496 L 110 496 L 85 320 L 85 320 L 69 320 L 69 320 L 96 512 L 96 512 Z" />
</svg>