<svg xmlns="http://www.w3.org/2000/svg" viewBox="0 0 640 512">
  <path d="M 117 0 L 132 0 L 117 0 L 264 0 L 264 24 L 264 24 Q 265 48 280 64 Q 296 79 320 80 Q 344 79 360 64 Q 375 48 376 24 L 376 0 L 376 0 L 400 0 L 523 0 L 529 12 L 529 12 L 543 37 L 543 37 L 631 197 L 631 197 L 637 208 L 637 208 L 640 214 L 640 214 L 640 220 L 640 220 L 640 232 L 640 232 L 640 424 L 640 424 L 640 448 L 640 448 L 616 448 L 496 448 L 496 424 L 496 424 L 496 251 L 496 251 L 480 221 L 480 221 L 480 488 L 480 488 L 480 512 L 480 512 L 456 512 L 160 512 L 160 488 L 160 488 L 160 221 L 160 221 L 144 251 L 144 251 L 144 424 L 144 424 L 144 448 L 144 448 L 120 448 L 0 448 L 0 424 L 0 424 L 0 232 L 0 232 L 0 220 L 0 220 L 0 214 L 0 214 L 3 208 L 3 208 L 9 197 L 9 197 L 97 37 L 97 37 L 111 12 L 111 12 L 117 0 L 117 0 Z M 146 48 L 139 60 L 146 48 L 139 60 L 51 220 L 51 220 L 48 226 L 48 226 L 48 232 L 48 232 L 48 400 L 48 400 L 96 400 L 96 400 L 96 244 L 96 244 L 96 238 L 96 238 L 99 233 L 99 233 L 163 116 L 163 116 L 208 128 L 208 128 L 208 464 L 208 464 L 432 464 L 432 464 L 432 128 L 432 128 L 477 116 L 477 116 L 541 233 L 541 233 L 544 238 L 544 238 L 544 244 L 544 244 L 544 400 L 544 400 L 592 400 L 592 400 L 592 232 L 592 232 L 592 226 L 592 226 L 589 220 L 589 220 L 501 60 L 501 60 L 494 48 L 494 48 L 480 48 L 421 48 Q 412 83 385 105 Q 358 127 320 128 Q 282 127 255 105 Q 228 83 219 48 L 196 48 L 146 48 Z" />
</svg>