<svg xmlns="http://www.w3.org/2000/svg" viewBox="0 0 512 416">
  <path d="M 160 184 L 208 184 L 160 184 L 416 184 L 416 232 L 416 232 L 416 368 L 416 368 L 464 368 L 464 368 L 464 136 L 464 136 L 208 136 L 160 136 L 160 88 L 160 88 L 160 68 L 160 68 L 68 160 L 68 160 L 160 252 L 160 252 L 160 232 L 160 232 L 160 184 L 160 184 Z M 34 194 L 0 160 L 34 194 L 0 160 L 34 126 L 34 126 L 160 0 L 160 0 L 208 0 L 208 0 L 208 40 L 208 40 L 208 48 L 208 48 L 208 88 L 208 88 L 256 88 L 512 88 L 512 136 L 512 136 L 512 368 L 512 368 L 512 416 L 512 416 L 464 416 L 368 416 L 368 368 L 368 368 L 368 280 L 368 280 L 368 232 L 368 232 L 320 232 L 208 232 L 208 272 L 208 272 L 208 280 L 208 280 L 208 320 L 208 320 L 160 320 L 160 320 L 34 194 L 34 194 Z" />
</svg>