<svg xmlns="http://www.w3.org/2000/svg" viewBox="0 0 512 512">
  <path d="M 11 267 L 0 256 L 11 267 L 0 256 L 11 245 L 11 245 L 245 11 L 245 11 L 256 0 L 256 0 L 267 11 L 267 11 L 501 245 L 501 245 L 512 256 L 512 256 L 501 267 L 501 267 L 267 501 L 267 501 L 256 512 L 256 512 L 245 501 L 245 501 L 11 267 L 11 267 Z M 23 256 L 256 489 L 23 256 L 256 489 L 489 256 L 489 256 L 256 23 L 256 23 L 23 256 L 23 256 Z M 310 146 L 382 218 L 310 146 L 382 218 L 387 224 L 387 224 L 382 230 L 382 230 L 310 302 L 310 302 L 304 307 L 304 307 L 293 296 L 293 296 L 298 290 L 298 290 L 357 232 L 357 232 L 200 232 L 200 232 L 200 328 L 200 328 L 200 336 L 200 336 L 184 336 L 184 336 L 184 328 L 184 328 L 184 224 L 184 224 L 184 216 L 184 216 L 192 216 L 357 216 L 298 158 L 298 158 L 293 152 L 293 152 L 304 141 L 304 141 L 310 146 L 310 146 Z" />
</svg>