<svg xmlns="http://www.w3.org/2000/svg" viewBox="0 0 640 512">
  <path d="M 443 360 L 217 490 L 443 360 L 217 490 L 22 153 L 22 153 L 248 22 L 248 22 L 443 360 L 443 360 Z M 240 8 L 0 147 L 240 8 L 0 147 L 203 498 L 203 498 L 211 512 L 211 512 L 225 504 L 225 504 L 451 373 L 451 373 L 465 365 L 465 365 L 457 352 L 457 352 L 262 14 L 262 14 L 254 0 L 254 0 L 240 8 L 240 8 Z M 320 496 L 320 512 L 320 496 L 320 512 L 336 512 L 640 512 L 640 496 L 640 496 L 640 80 L 640 80 L 640 64 L 640 64 L 624 64 L 328 64 L 337 80 L 337 80 L 624 80 L 624 80 L 624 496 L 624 496 L 336 496 L 336 496 L 336 477 L 336 477 L 320 486 L 320 486 L 320 496 L 320 496 Z" />
</svg>