<svg xmlns="http://www.w3.org/2000/svg" viewBox="0 0 512 512">
  <path d="M 496 256 Q 495 191 464 136 L 464 136 L 464 136 Q 432 81 376 48 Q 319 16 256 16 Q 193 16 136 48 Q 80 81 48 136 Q 17 191 16 256 Q 17 321 48 376 Q 80 431 136 464 Q 193 496 256 496 Q 319 496 376 464 Q 432 431 464 376 Q 495 321 496 256 L 496 256 Z M 0 256 Q 1 186 34 128 L 34 128 L 34 128 Q 68 70 128 34 Q 189 0 256 0 Q 323 0 384 34 Q 444 70 478 128 Q 511 186 512 256 Q 511 326 478 384 Q 444 442 384 478 Q 323 512 256 512 Q 189 512 128 478 Q 68 442 34 384 Q 1 326 0 256 L 0 256 Z M 304 352 Q 303 332 290 318 L 290 318 L 290 318 Q 276 305 256 304 Q 236 305 222 318 Q 209 332 208 352 L 208 384 L 208 384 Q 209 404 222 418 Q 236 431 256 432 Q 276 431 290 418 Q 303 404 304 384 L 304 352 L 304 352 Z M 192 352 Q 193 325 211 307 L 211 307 L 211 307 Q 229 289 256 288 Q 283 289 301 307 Q 319 325 320 352 L 320 384 L 320 384 Q 319 411 301 429 Q 283 447 256 448 Q 229 447 211 429 Q 193 411 192 384 L 192 352 L 192 352 Z M 160 224 Q 162 209 176 208 Q 191 209 192 224 Q 191 239 176 240 Q 162 239 160 224 L 160 224 Z M 336 208 Q 351 209 352 224 Q 351 239 336 240 Q 322 239 320 224 Q 322 209 336 208 L 336 208 Z M 201 128 L 193 128 L 201 128 L 193 128 Q 143 132 110 167 L 104 173 L 104 173 L 93 162 L 93 162 L 98 156 L 98 156 Q 135 117 192 112 L 200 112 L 200 112 L 201 128 L 201 128 Z M 320 128 L 312 128 L 320 128 L 312 128 L 313 112 L 313 112 L 321 112 L 321 112 Q 377 117 414 156 L 419 162 L 419 162 L 408 173 L 408 173 L 402 167 L 402 167 Q 369 132 320 128 L 320 128 Z" />
</svg>