<svg xmlns="http://www.w3.org/2000/svg" viewBox="0 0 640 512">
  <path d="M 496 16 L 496 272 L 496 16 L 496 272 L 144 272 L 144 272 L 144 16 L 144 16 L 256 16 L 256 16 L 256 124 L 256 124 L 256 144 L 256 144 L 272 132 L 272 132 L 320 96 L 320 96 L 368 132 L 368 132 L 384 144 L 384 144 L 384 124 L 384 124 L 384 16 L 384 16 L 496 16 L 496 16 Z M 272 16 L 368 16 L 272 16 L 368 16 L 368 112 L 368 112 L 330 83 L 330 83 L 320 76 L 320 76 L 310 83 L 310 83 L 272 112 L 272 112 L 272 16 L 272 16 Z M 496 0 L 384 0 L 496 0 L 128 0 L 128 16 L 128 16 L 128 272 L 128 272 L 128 288 L 128 288 L 144 288 L 512 288 L 512 272 L 512 272 L 512 16 L 512 16 L 512 0 L 512 0 L 496 0 L 496 0 Z M 624 416 Q 623 450 601 473 L 601 473 L 601 473 Q 578 495 544 496 L 96 496 L 96 496 Q 62 495 39 473 Q 17 450 16 416 Q 17 382 39 359 Q 62 337 96 336 L 544 336 L 544 336 Q 578 337 601 359 Q 623 382 624 416 L 624 416 Z M 96 320 Q 55 321 28 348 L 28 348 L 28 348 Q 1 375 0 416 Q 1 457 28 484 Q 55 511 96 512 L 544 512 L 544 512 Q 585 511 612 484 Q 639 457 640 416 Q 639 375 612 348 Q 585 321 544 320 L 96 320 L 96 320 Z M 112 384 Q 126 384 135 393 L 135 393 L 135 393 Q 144 402 144 416 Q 144 430 135 439 Q 126 448 112 448 Q 98 448 89 439 Q 80 430 80 416 Q 80 402 89 393 Q 98 384 112 384 L 112 384 Z M 112 464 Q 139 463 154 440 Q 166 416 154 392 Q 139 369 112 368 Q 85 369 70 392 Q 58 416 70 440 Q 85 463 112 464 L 112 464 Z M 288 416 Q 288 402 297 393 L 297 393 L 297 393 Q 306 384 320 384 Q 334 384 343 393 Q 352 402 352 416 Q 352 430 343 439 Q 334 448 320 448 Q 306 448 297 439 Q 288 430 288 416 L 288 416 Z M 368 416 Q 367 389 344 374 Q 320 362 296 374 Q 273 389 272 416 Q 273 443 296 458 Q 320 470 344 458 Q 367 443 368 416 L 368 416 Z M 528 384 Q 542 384 551 393 L 551 393 L 551 393 Q 560 402 560 416 Q 560 430 551 439 Q 542 448 528 448 Q 514 448 505 439 Q 496 430 496 416 Q 496 402 505 393 Q 514 384 528 384 L 528 384 Z M 528 464 Q 555 463 570 440 Q 582 416 570 392 Q 555 369 528 368 Q 501 369 486 392 Q 474 416 486 440 Q 501 463 528 464 L 528 464 Z" />
</svg>