<svg xmlns="http://www.w3.org/2000/svg" viewBox="0 0 640 512">
  <path d="M 320 256 L 331 245 L 320 256 L 331 245 L 437 139 L 437 139 L 448 128 L 448 128 L 437 117 L 437 117 L 331 11 L 331 11 L 320 0 L 320 0 L 309 11 L 309 11 L 203 117 L 203 117 L 192 128 L 192 128 L 203 139 L 203 139 L 309 245 L 309 245 L 320 256 L 320 256 Z M 320 23 L 425 128 L 320 23 L 425 128 L 320 233 L 320 233 L 215 128 L 215 128 L 320 23 L 320 23 Z M 96 72 Q 95 65 88 64 L 8 64 L 8 64 Q 1 65 0 72 L 0 384 L 0 384 Q 0 387 2 390 L 122 510 L 122 510 L 134 498 L 134 498 L 16 381 L 16 381 L 16 80 L 16 80 L 80 80 L 80 80 L 80 288 L 80 288 Q 80 291 82 294 L 93 305 L 93 305 L 98 310 L 98 310 L 178 390 L 178 390 L 186 398 L 186 398 L 192 403 L 192 403 L 203 392 L 203 392 L 198 386 L 198 386 L 190 378 L 190 378 L 115 304 L 115 304 L 152 260 L 152 260 L 288 395 L 288 395 L 288 504 L 288 504 L 288 512 L 288 512 L 304 512 L 304 512 L 304 504 L 304 504 L 304 392 L 304 392 L 304 389 L 304 389 L 302 386 L 302 386 L 158 242 L 158 242 L 152 236 L 152 236 L 146 243 L 146 243 L 104 292 L 104 292 L 96 285 L 96 285 L 96 72 L 96 72 Z M 552 64 Q 545 65 544 72 L 544 285 L 544 285 L 537 292 L 537 292 L 494 243 L 494 243 L 489 236 L 489 236 L 482 242 L 482 242 L 338 386 L 338 386 L 336 389 L 336 389 L 336 392 L 336 392 L 336 504 L 336 504 L 336 512 L 336 512 L 352 512 L 352 512 L 352 504 L 352 504 L 352 395 L 352 395 L 488 260 L 488 260 L 525 304 L 525 304 L 450 378 L 450 378 L 442 386 L 442 386 L 437 392 L 437 392 L 448 403 L 448 403 L 454 398 L 454 398 L 462 390 L 462 390 L 542 310 L 542 310 L 547 304 L 547 304 L 558 294 L 558 294 Q 560 291 560 288 L 560 80 L 560 80 L 624 80 L 624 80 L 624 381 L 624 381 L 506 498 L 506 498 L 518 510 L 518 510 L 638 390 L 638 390 Q 640 387 640 384 L 640 72 L 640 72 Q 639 65 632 64 L 552 64 L 552 64 Z" />
</svg>