<svg xmlns="http://www.w3.org/2000/svg" viewBox="0 0 576 448">
  <path d="M 340 288 L 335 295 L 340 288 L 335 295 Q 311 328 274 348 Q 237 368 192 368 Q 158 368 128 356 L 128 296 L 128 296 L 128 288 L 128 288 L 112 288 L 112 288 L 112 296 L 112 296 L 112 349 L 112 349 Q 69 326 43 285 Q 17 244 16 192 Q 18 117 68 68 Q 117 18 192 16 Q 237 16 274 36 Q 311 56 335 89 L 340 96 L 340 96 L 348 96 L 464 96 Q 505 97 532 124 Q 559 151 560 192 L 560 200 L 560 200 L 560 288 L 560 288 L 348 288 L 340 288 Z M 503 304 L 560 304 L 503 304 L 560 304 L 560 394 L 560 394 L 503 304 L 503 304 Z M 348 304 L 484 304 L 348 304 L 484 304 L 561 425 L 561 425 L 576 448 L 576 448 L 576 421 L 576 421 L 576 304 L 576 304 L 576 288 L 576 288 L 576 192 L 576 192 Q 575 144 543 113 Q 512 81 464 80 L 348 80 L 348 80 Q 321 43 281 22 Q 241 0 192 0 Q 110 2 56 56 Q 2 110 0 192 Q 1 251 31 297 Q 62 343 112 367 L 112 440 L 112 440 L 112 448 L 112 448 L 128 448 L 128 448 L 128 440 L 128 440 L 128 373 L 128 373 Q 158 384 192 384 Q 208 384 224 381 L 224 440 L 224 440 L 224 448 L 224 448 L 240 448 L 240 448 L 240 440 L 240 440 L 240 378 L 240 378 Q 308 359 348 304 L 348 304 Z M 448 208 Q 463 207 464 192 Q 463 177 448 176 Q 433 177 432 192 Q 433 207 448 208 L 448 208 Z" />
</svg>