<svg xmlns="http://www.w3.org/2000/svg" viewBox="0 0 576 457">
  <path d="M 464 73 Q 465 46 488 31 Q 512 19 536 31 Q 559 46 560 73 Q 559 100 536 115 Q 512 127 488 115 Q 465 100 464 73 L 464 73 Z M 576 73 Q 575 37 544 18 Q 512 0 480 18 Q 449 37 448 73 Q 449 109 480 128 Q 512 146 544 128 Q 575 109 576 73 L 576 73 Z M 512 185 L 512 169 L 512 185 L 512 169 Q 504 169 496 168 L 496 177 L 496 177 L 256 342 L 256 342 L 16 177 L 16 177 L 16 89 L 16 89 L 417 89 L 417 89 Q 416 81 416 73 L 16 73 L 0 73 L 0 89 L 0 89 L 0 185 L 0 185 L 0 441 L 0 441 L 0 457 L 0 457 L 16 457 L 512 457 L 512 441 L 512 441 L 512 185 L 512 185 Z M 496 196 L 496 441 L 496 196 L 496 441 L 16 441 L 16 441 L 16 196 L 16 196 L 256 361 L 256 361 L 496 196 L 496 196 Z" />
</svg>