<svg xmlns="http://www.w3.org/2000/svg" viewBox="0 0 624 511">
  <path d="M 552 304 L 568 304 L 552 304 L 568 304 L 568 272 L 568 272 L 552 272 L 472 272 L 472 192 L 472 192 L 472 183 L 472 183 L 531 123 L 531 123 L 543 112 L 543 112 L 520 89 L 520 89 L 509 101 L 509 101 L 449 160 L 449 160 L 440 160 L 294 160 L 334 192 L 334 192 L 440 192 L 440 192 L 440 272 L 440 272 L 440 276 L 440 276 L 476 304 L 476 304 L 552 304 L 552 304 Z M 403 410 Q 373 441 328 447 L 328 350 L 328 350 L 296 325 L 296 325 L 296 447 L 296 447 Q 248 440 216 405 Q 185 370 184 320 L 184 304 L 184 304 L 184 272 L 184 272 L 184 237 L 184 237 L 152 211 L 152 211 L 152 272 L 152 272 L 72 272 L 56 272 L 56 304 L 56 304 L 72 304 L 152 304 L 152 320 L 152 320 Q 153 366 175 403 L 101 477 L 101 477 L 89 488 L 89 488 L 112 511 L 112 511 L 123 499 L 123 499 L 194 428 L 194 428 Q 240 478 312 480 Q 383 478 429 430 L 403 410 L 403 410 Z M 216 99 L 253 128 L 216 99 L 253 128 L 376 128 L 408 128 L 408 96 L 408 96 Q 407 55 380 28 Q 353 1 312 0 Q 271 1 244 28 Q 217 55 216 96 L 216 99 L 216 99 Z M 312 32 Q 339 33 357 51 L 357 51 L 357 51 Q 375 69 376 96 L 248 96 L 248 96 Q 249 69 267 51 Q 285 33 312 32 L 312 32 Z M 32 18 L 20 8 L 32 18 L 20 8 L 0 33 L 0 33 L 13 43 L 13 43 L 592 494 L 592 494 L 604 504 L 604 504 L 624 479 L 624 479 L 612 469 L 612 469 L 32 18 L 32 18 Z" />
</svg>