<svg xmlns="http://www.w3.org/2000/svg" viewBox="0 0 512 512">
  <path d="M 160 432 L 160 416 L 160 432 L 160 416 L 144 416 L 0 416 L 0 400 L 0 400 L 0 16 L 0 16 L 0 0 L 0 0 L 16 0 L 512 0 L 512 16 L 512 16 L 512 400 L 512 400 L 512 416 L 512 416 L 496 416 L 304 416 L 176 501 L 176 501 L 160 512 L 160 512 L 160 493 L 160 493 L 160 432 L 160 432 Z M 160 400 L 176 400 L 160 400 L 176 400 L 176 416 L 176 416 L 176 482 L 176 482 L 295 403 L 295 403 L 299 400 L 299 400 L 304 400 L 496 400 L 496 16 L 496 16 L 16 16 L 16 16 L 16 400 L 16 400 L 160 400 L 160 400 Z M 223 156 L 256 209 L 223 156 L 256 209 L 289 156 L 289 156 L 292 152 L 292 152 L 296 152 L 312 152 L 312 160 L 312 160 L 312 256 L 312 256 L 312 264 L 312 264 L 296 264 L 296 264 L 296 256 L 296 256 L 296 175 L 296 175 L 263 228 L 263 228 L 256 239 L 256 239 L 249 228 L 249 228 L 216 175 L 216 175 L 216 256 L 216 256 L 216 264 L 216 264 L 200 264 L 200 264 L 200 256 L 200 256 L 200 160 L 200 160 L 200 152 L 200 152 L 208 152 L 220 152 L 223 156 L 223 156 Z M 373 152 L 392 152 L 373 152 L 400 152 L 400 168 L 400 168 L 392 168 L 373 168 Q 361 169 360 181 Q 360 188 366 192 L 395 211 L 395 211 Q 408 220 408 235 Q 408 247 399 255 Q 391 264 379 264 L 352 264 L 344 264 L 344 248 L 344 248 L 352 248 L 379 248 Q 391 247 392 235 Q 392 228 386 225 L 357 205 L 357 205 Q 345 196 344 181 Q 344 169 353 161 Q 361 152 373 152 L 373 152 Z M 104 181 Q 104 169 112 160 L 112 160 L 112 160 Q 121 152 133 152 L 152 152 L 160 152 L 160 168 L 160 168 L 152 168 L 133 168 Q 121 169 120 181 Q 120 188 126 192 L 155 211 L 155 211 Q 168 220 168 235 Q 168 247 159 255 Q 151 264 139 264 L 112 264 L 104 264 L 104 248 L 104 248 L 112 248 L 139 248 Q 151 247 152 235 Q 152 228 146 225 L 117 205 L 117 205 Q 105 196 104 181 L 104 181 Z" />
</svg>