<svg xmlns="http://www.w3.org/2000/svg" viewBox="0 0 512 448">
  <path d="M 72 344 L 76 335 L 72 344 L 76 335 L 68 328 L 68 328 Q 17 276 16 208 Q 18 128 85 73 Q 152 18 256 16 Q 360 18 427 73 Q 494 128 496 208 Q 494 288 427 343 Q 360 398 256 400 Q 211 400 171 388 L 166 386 L 166 386 L 162 388 L 162 388 L 42 423 L 42 423 L 72 344 L 72 344 Z M 16 448 L 35 442 L 16 448 L 35 442 L 166 403 L 166 403 Q 209 416 256 416 Q 328 415 385 388 Q 443 360 477 313 Q 511 266 512 208 Q 511 150 477 103 Q 443 56 385 28 Q 328 1 256 0 Q 184 1 127 28 Q 69 56 35 103 Q 1 150 0 208 Q 2 284 57 339 L 23 429 L 23 429 L 16 448 L 16 448 Z M 301 112 L 170 243 L 301 112 L 170 243 L 163 288 L 163 288 L 160 304 L 160 304 L 177 302 L 177 302 L 221 295 L 221 295 L 341 175 L 341 175 L 352 164 L 352 164 L 341 152 L 341 152 L 301 112 L 301 112 L 301 112 L 301 112 Z M 301 135 L 330 164 L 301 135 L 330 164 L 308 185 L 308 185 L 279 156 L 279 156 L 301 135 L 301 135 Z M 185 251 L 268 167 L 185 251 L 268 167 L 297 196 L 297 196 L 213 280 L 213 280 L 179 285 L 179 285 L 185 251 L 185 251 Z" />
</svg>