<svg xmlns="http://www.w3.org/2000/svg" viewBox="0 0 592 512">
  <path d="M 88 8 L 88 0 L 88 8 L 88 0 L 72 0 L 72 0 L 72 8 L 72 8 Q 73 48 85 69 Q 98 90 114 102 Q 114 102 114 102 L 114 102 L 114 102 Q 129 114 139 131 Q 150 147 150 184 L 150 192 L 150 192 L 166 192 L 166 192 L 166 184 L 166 184 Q 166 144 153 123 Q 140 102 125 90 Q 125 90 125 90 L 125 90 L 125 90 Q 109 78 99 61 Q 89 45 88 8 L 88 8 Z M 186 8 L 186 0 L 186 8 L 186 0 L 170 0 L 170 0 L 170 8 L 170 8 Q 170 48 183 69 Q 196 90 211 102 Q 211 102 211 102 L 212 102 L 212 102 Q 227 114 237 131 Q 247 147 248 184 L 248 192 L 248 192 L 264 192 L 264 192 L 264 184 L 264 184 Q 264 144 251 123 Q 238 102 222 90 Q 222 90 222 90 L 222 90 L 222 90 Q 207 78 197 61 Q 186 45 186 8 L 186 8 Z M 8 256 L 0 256 L 8 256 L 0 256 L 0 272 L 0 272 L 8 272 L 43 272 L 44 285 L 44 285 Q 48 348 81 397 Q 115 446 168 473 L 168 496 L 168 496 L 168 512 L 168 512 L 184 512 L 424 512 L 424 496 L 424 496 L 424 473 L 424 473 Q 477 446 511 397 Q 544 348 548 285 L 549 272 L 549 272 L 584 272 L 592 272 L 592 256 L 592 256 L 584 256 L 550 256 L 551 240 L 551 240 L 552 224 L 552 224 L 536 224 L 40 224 L 41 240 L 41 240 L 42 256 L 42 256 L 8 256 L 8 256 Z M 499 192 L 515 192 L 499 192 L 515 192 Q 504 157 475 135 Q 447 113 408 112 Q 369 113 340 135 Q 312 157 301 192 L 317 192 L 317 192 Q 328 164 352 146 Q 376 129 408 128 Q 440 129 464 146 Q 488 164 498 192 L 499 192 Z M 184 473 L 184 463 L 184 473 L 184 463 L 175 459 L 175 459 Q 126 434 95 388 Q 64 343 60 284 L 57 240 L 57 240 L 535 240 L 535 240 L 532 284 L 532 284 Q 528 343 497 388 Q 466 434 417 459 L 408 463 L 408 463 L 408 473 L 408 473 L 408 496 L 408 496 L 184 496 L 184 496 L 184 473 L 184 473 Z" />
</svg>