<svg xmlns="http://www.w3.org/2000/svg" viewBox="0 0 640 448">
  <path d="M 48 48 L 48 96 L 48 48 L 48 96 L 80 96 L 128 96 L 128 144 L 128 144 L 128 304 L 128 304 L 128 352 L 128 352 L 80 352 L 48 352 L 48 400 L 48 400 L 296 400 L 296 400 L 296 333 L 296 333 Q 257 324 233 295 Q 209 265 208 224 Q 209 183 233 153 Q 257 124 296 115 L 296 48 L 296 48 L 48 48 L 48 48 Z M 344 333 L 344 400 L 344 333 L 344 400 L 592 400 L 592 400 L 592 352 L 592 352 L 560 352 L 512 352 L 512 304 L 512 304 L 512 144 L 512 144 L 512 96 L 512 96 L 560 96 L 592 96 L 592 48 L 592 48 L 344 48 L 344 48 L 344 115 L 344 115 Q 383 124 407 153 Q 431 183 432 224 Q 431 265 407 295 Q 383 324 344 333 L 344 333 Z M 344 165 L 344 283 L 344 165 L 344 283 Q 362 276 373 260 Q 384 244 384 224 Q 384 204 373 188 Q 362 172 344 165 L 344 165 Z M 296 165 Q 278 172 267 188 L 267 188 L 267 188 Q 256 203 256 224 Q 256 244 267 260 Q 278 276 296 283 L 296 164 L 296 165 Z M 48 144 L 48 304 L 48 144 L 48 304 L 80 304 L 80 304 L 80 144 L 80 144 L 48 144 L 48 144 Z M 560 304 L 592 304 L 560 304 L 592 304 L 592 144 L 592 144 L 560 144 L 560 144 L 560 304 L 560 304 Z M 0 0 L 48 0 L 0 0 L 640 0 L 640 48 L 640 48 L 640 400 L 640 400 L 640 448 L 640 448 L 592 448 L 0 448 L 0 400 L 0 400 L 0 48 L 0 48 L 0 0 L 0 0 Z" />
</svg>