<svg xmlns="http://www.w3.org/2000/svg" viewBox="0 0 640 512">
  <path d="M 0 0 L 8 0 L 0 0 L 640 0 L 640 8 L 640 8 L 640 152 L 640 152 L 640 160 L 640 160 L 624 160 L 624 160 L 624 152 L 624 152 L 624 16 L 624 16 L 16 16 L 16 16 L 16 152 L 16 152 L 16 160 L 16 160 L 0 160 L 0 160 L 0 152 L 0 152 L 0 8 L 0 8 L 0 0 L 0 0 Z M 512 80 L 512 88 L 512 80 L 512 88 L 512 504 L 512 504 L 512 512 L 512 512 L 504 512 L 128 512 L 128 504 L 128 504 L 128 88 L 128 88 L 128 80 L 128 80 L 144 80 L 144 80 L 144 88 L 144 88 L 144 496 L 144 496 L 496 496 L 496 496 L 496 88 L 496 88 L 496 80 L 496 80 L 512 80 L 512 80 Z M 320 200 Q 282 201 257 222 L 257 222 L 257 222 Q 233 242 232 272 Q 233 302 257 322 Q 282 343 320 344 Q 358 343 383 322 Q 407 302 408 272 Q 407 242 383 222 Q 358 201 320 200 L 320 200 Z M 424 272 Q 423 310 393 335 L 393 335 L 393 335 Q 363 359 320 360 Q 277 359 247 335 Q 217 310 216 272 Q 217 234 247 209 Q 277 185 320 184 Q 363 185 393 209 Q 423 234 424 272 L 424 272 Z M 472 392 Q 471 399 464 400 L 456 400 L 456 400 Q 432 401 416 416 Q 401 432 400 456 L 400 464 L 400 464 Q 399 471 392 472 Q 385 471 384 464 L 384 456 L 384 456 Q 385 425 405 405 Q 425 385 456 384 L 464 384 L 464 384 Q 471 385 472 392 L 472 392 Z M 176 384 L 184 384 L 176 384 L 184 384 Q 215 385 235 405 Q 255 425 256 456 L 256 464 L 256 464 Q 255 471 248 472 Q 241 471 240 464 L 240 456 L 240 456 Q 239 432 224 416 Q 208 401 184 400 L 176 400 L 176 400 Q 169 399 168 392 Q 169 385 176 384 L 176 384 Z" />
</svg>