<svg xmlns="http://www.w3.org/2000/svg" viewBox="0 0 368 368">
  <path d="M 133 251 L 59 325 L 133 251 L 59 325 L 48 336 L 48 336 L 59 347 L 59 347 L 80 368 L 80 368 L 352 368 L 368 368 L 368 352 L 368 352 L 368 80 L 368 80 L 347 59 L 347 59 L 336 48 L 336 48 L 325 59 L 325 59 L 251 133 L 251 133 L 240 144 L 240 144 L 229 133 L 229 133 L 107 11 L 107 11 L 96 0 L 96 0 L 85 11 L 85 11 L 11 85 L 11 85 L 0 96 L 0 96 L 11 107 L 11 107 L 133 229 L 133 229 L 144 240 L 144 240 L 133 251 L 133 251 Z M 23 96 L 96 23 L 23 96 L 96 23 L 229 155 L 229 155 L 240 167 L 240 167 L 251 155 L 251 155 L 336 71 L 336 71 L 352 87 L 352 87 L 352 352 L 352 352 L 87 352 L 87 352 L 71 336 L 71 336 L 155 251 L 155 251 L 167 240 L 167 240 L 155 229 L 155 229 L 23 96 L 23 96 Z" />
</svg>