<svg xmlns="http://www.w3.org/2000/svg" viewBox="0 0 640 512">
  <path d="M 56 0 Q 32 1 16 16 L 16 16 L 16 16 Q 1 32 0 56 L 0 456 L 0 456 Q 1 480 16 496 Q 32 511 56 512 L 395 512 L 395 512 Q 384 505 375 496 L 56 496 L 56 496 Q 39 496 28 484 Q 16 473 16 456 Q 16 439 28 428 Q 39 416 56 416 L 327 416 L 327 416 Q 324 408 323 400 L 56 400 L 56 400 Q 32 401 16 417 L 16 56 L 16 56 Q 16 39 28 28 Q 39 16 56 16 L 432 16 L 432 16 L 432 204 L 432 204 Q 440 201 448 199 L 448 8 L 448 8 L 448 0 L 448 0 L 440 0 L 56 0 Z M 496 240 Q 531 240 560 257 L 560 257 L 560 257 Q 589 274 607 304 Q 624 334 624 368 Q 624 402 607 432 Q 589 462 560 479 Q 531 496 496 496 Q 461 496 432 479 Q 403 462 385 432 Q 368 402 368 368 Q 368 334 385 304 Q 403 274 432 257 Q 461 240 496 240 L 496 240 Z M 496 512 Q 535 512 568 493 L 568 493 L 568 493 Q 601 474 621 440 Q 640 406 640 368 Q 640 330 621 296 Q 601 262 568 243 Q 535 224 496 224 Q 457 224 424 243 Q 391 262 371 296 Q 352 330 352 368 Q 352 406 371 440 Q 391 474 424 493 Q 457 512 496 512 L 496 512 Z M 504 293 L 493 304 L 504 293 L 493 304 L 498 310 L 498 310 L 549 360 L 549 360 L 424 360 L 416 360 L 416 376 L 416 376 L 424 376 L 549 376 L 498 426 L 498 426 L 493 432 L 493 432 L 504 443 L 504 443 L 510 438 L 510 438 L 574 374 L 574 374 L 579 368 L 579 368 L 574 362 L 574 362 L 510 298 L 510 298 L 504 292 L 504 293 Z" />
</svg>