<svg xmlns="http://www.w3.org/2000/svg" viewBox="0 0 640 511">
  <path d="M 192 0 L 198 6 L 192 0 L 198 6 L 326 142 L 326 142 L 328 145 L 328 145 L 328 148 L 328 148 L 328 167 L 328 167 L 328 175 L 328 175 L 320 175 L 269 175 L 358 257 L 358 257 L 360 260 L 360 260 L 360 263 L 360 263 L 360 287 L 360 287 L 360 295 L 360 295 L 352 295 L 299 295 L 382 377 L 382 377 L 384 380 L 384 380 L 384 383 L 384 383 L 384 407 L 384 407 L 384 415 L 384 415 L 376 415 L 200 415 L 200 503 L 200 503 L 200 511 L 200 511 L 184 511 L 184 511 L 184 503 L 184 503 L 184 415 L 184 415 L 8 415 L 0 415 L 0 407 L 0 407 L 0 383 L 0 383 L 0 380 L 0 380 L 2 377 L 2 377 L 85 295 L 85 295 L 32 295 L 24 295 L 24 287 L 24 287 L 24 263 L 24 263 L 24 260 L 24 260 L 27 257 L 27 257 L 116 175 L 116 175 L 64 175 L 56 175 L 56 167 L 56 167 L 56 148 L 56 148 L 56 145 L 56 145 L 58 142 L 58 142 L 186 6 L 186 6 L 192 0 L 192 0 Z M 368 399 L 368 386 L 368 399 L 368 386 L 274 293 L 274 293 L 261 279 L 261 279 L 280 279 L 344 279 L 344 267 L 344 267 L 243 173 L 243 173 L 228 159 L 228 159 L 248 159 L 312 159 L 312 151 L 312 151 L 192 24 L 192 24 L 72 151 L 72 151 L 72 159 L 72 159 L 136 159 L 157 159 L 142 173 L 142 173 L 40 267 L 40 267 L 40 279 L 40 279 L 104 279 L 123 279 L 110 293 L 110 293 L 16 386 L 16 386 L 16 399 L 16 399 L 184 399 L 184 399 L 184 199 L 184 199 L 184 191 L 184 191 L 200 191 L 200 191 L 200 199 L 200 199 L 200 399 L 200 399 L 368 399 L 368 399 Z M 448 0 L 454 6 L 448 0 L 454 6 L 582 142 L 582 142 L 584 145 L 584 145 L 584 148 L 584 148 L 584 167 L 584 167 L 584 175 L 584 175 L 576 175 L 525 175 L 614 257 L 614 257 L 616 260 L 616 260 L 616 263 L 616 263 L 616 287 L 616 287 L 616 295 L 616 295 L 608 295 L 555 295 L 638 377 L 638 377 L 640 380 L 640 380 L 640 383 L 640 383 L 640 407 L 640 407 L 640 415 L 640 415 L 632 415 L 456 415 L 456 503 L 456 503 L 456 511 L 456 511 L 440 511 L 440 511 L 440 503 L 440 503 L 440 415 L 440 415 L 440 399 L 440 399 L 440 199 L 440 199 L 440 191 L 440 191 L 456 191 L 456 191 L 456 199 L 456 199 L 456 399 L 456 399 L 624 399 L 624 399 L 624 386 L 624 386 L 530 292 L 530 292 L 517 279 L 517 279 L 536 279 L 600 279 L 600 267 L 600 267 L 499 173 L 499 173 L 484 159 L 484 159 L 504 159 L 568 159 L 568 151 L 568 151 L 448 24 L 448 24 L 358 119 L 358 119 L 352 125 L 352 125 L 341 114 L 341 114 L 346 108 L 346 108 L 442 6 L 442 6 L 448 0 L 448 0 Z" />
</svg>