<svg xmlns="http://www.w3.org/2000/svg" viewBox="0 0 632 500">
  <path d="M 391 0 L 388 8 L 391 0 L 388 8 L 228 488 L 228 488 L 226 495 L 226 495 L 241 500 L 241 500 L 244 493 L 244 493 L 404 13 L 404 13 L 406 5 L 406 5 L 391 0 L 391 0 Z M 481 130 L 487 136 L 481 130 L 487 136 L 608 250 L 608 250 L 487 364 L 487 364 L 481 370 L 481 370 L 492 381 L 492 381 L 497 376 L 497 376 L 625 256 L 625 256 L 632 250 L 632 250 L 625 244 L 625 244 L 497 124 L 497 124 L 492 119 L 492 119 L 481 131 L 481 130 Z M 140 119 L 135 124 L 140 119 L 135 124 L 7 244 L 7 244 L 0 250 L 0 250 L 7 256 L 7 256 L 135 376 L 135 376 L 140 381 L 140 381 L 151 370 L 151 370 L 145 364 L 145 364 L 24 250 L 24 250 L 146 136 L 146 136 L 151 130 L 151 130 L 140 119 L 140 119 Z" />
</svg>