<svg xmlns="http://www.w3.org/2000/svg" viewBox="0 0 512 512">
  <path d="M 23 279 L 0 256 L 23 279 L 0 256 L 23 233 L 23 233 L 94 162 L 94 162 L 117 139 L 117 139 L 139 162 L 139 162 L 211 233 L 211 233 L 233 256 L 233 256 L 211 279 L 211 279 L 139 350 L 139 350 L 117 373 L 117 373 L 94 350 L 94 350 L 23 279 L 23 279 Z M 188 256 L 117 185 L 188 256 L 117 185 L 45 256 L 45 256 L 117 327 L 117 327 L 188 256 L 188 256 Z M 162 373 L 233 301 L 162 373 L 233 301 L 256 279 L 256 279 L 279 301 L 279 301 L 350 373 L 350 373 L 373 395 L 373 395 L 350 418 L 350 418 L 279 489 L 279 489 L 256 512 L 256 512 L 233 489 L 233 489 L 162 418 L 162 418 L 139 395 L 139 395 L 162 373 L 162 373 Z M 185 395 L 256 467 L 185 395 L 256 467 L 327 395 L 327 395 L 256 324 L 256 324 L 185 395 L 185 395 Z M 233 211 L 162 139 L 233 211 L 162 139 L 139 117 L 139 117 L 162 94 L 162 94 L 233 23 L 233 23 L 256 0 L 256 0 L 279 23 L 279 23 L 350 94 L 350 94 L 373 117 L 373 117 L 350 139 L 350 139 L 279 211 L 279 211 L 256 233 L 256 233 L 233 211 L 233 211 Z M 185 117 L 256 188 L 185 117 L 256 188 L 327 117 L 327 117 L 256 45 L 256 45 L 185 117 L 185 117 Z M 301 233 L 373 162 L 301 233 L 373 162 L 395 139 L 395 139 L 418 162 L 418 162 L 489 233 L 489 233 L 512 256 L 512 256 L 489 279 L 489 279 L 418 350 L 418 350 L 395 373 L 395 373 L 373 350 L 373 350 L 301 279 L 301 279 L 279 256 L 279 256 L 301 233 L 301 233 Z M 324 256 L 395 327 L 324 256 L 395 327 L 467 256 L 467 256 L 395 185 L 395 185 L 324 256 L 324 256 Z" />
</svg>