<svg xmlns="http://www.w3.org/2000/svg" viewBox="0 0 512 512">
  <path d="M 40 240 L 64 240 L 40 240 L 64 240 L 64 71 L 64 71 L 64 69 L 64 69 L 65 67 L 65 67 Q 75 46 121 24 Q 167 2 256 0 Q 350 2 394 24 Q 438 47 447 67 L 448 69 L 448 69 L 448 71 L 448 71 L 448 240 L 448 240 L 472 240 L 480 240 L 480 248 L 480 248 L 480 440 L 480 440 L 480 448 L 480 448 L 472 448 L 448 448 L 448 496 L 448 496 L 448 512 L 448 512 L 432 512 L 352 512 L 352 496 L 352 496 L 352 448 L 352 448 L 160 448 L 160 448 L 160 496 L 160 496 L 160 512 L 160 512 L 144 512 L 64 512 L 64 496 L 64 496 L 64 448 L 64 448 L 40 448 L 32 448 L 32 440 L 32 440 L 32 248 L 32 248 L 32 240 L 32 240 L 40 240 L 40 240 Z M 352 432 L 368 432 L 352 432 L 464 432 L 464 256 L 464 256 L 264 256 L 48 256 L 48 432 L 48 432 L 64 432 L 352 432 Z M 368 448 L 368 496 L 368 448 L 368 496 L 432 496 L 432 496 L 432 448 L 432 448 L 368 448 L 368 448 Z M 80 448 L 80 496 L 80 448 L 80 496 L 144 496 L 144 496 L 144 448 L 144 448 L 80 448 L 80 448 Z M 432 112 L 264 112 L 432 112 L 264 112 L 264 240 L 264 240 L 432 240 L 432 240 L 432 112 L 432 112 Z M 80 240 L 248 240 L 80 240 L 248 240 L 248 112 L 248 112 L 80 112 L 80 112 L 80 240 L 80 240 Z M 248 96 L 264 96 L 248 96 L 432 96 L 432 73 L 432 73 Q 425 57 385 38 Q 345 18 256 16 Q 170 18 128 39 Q 88 58 80 73 L 80 96 L 80 96 L 248 96 L 248 96 Z M 88 344 Q 89 321 108 309 Q 128 299 148 309 Q 167 321 168 344 Q 167 367 148 379 Q 128 389 108 379 Q 89 367 88 344 L 88 344 Z M 128 368 Q 150 366 152 344 Q 150 322 128 320 Q 106 322 104 344 Q 106 366 128 368 L 128 368 Z M 344 344 Q 345 321 364 309 Q 384 299 404 309 Q 423 321 424 344 Q 423 367 404 379 Q 384 389 364 379 Q 345 367 344 344 L 344 344 Z M 384 368 Q 406 366 408 344 Q 406 322 384 320 Q 362 322 360 344 Q 362 366 384 368 L 384 368 Z M 192 48 L 320 48 L 192 48 L 328 48 L 328 64 L 328 64 L 320 64 L 184 64 L 184 48 L 184 48 L 192 48 L 192 48 Z M 0 96 L 8 96 L 0 96 L 40 96 L 40 112 L 40 112 L 32 112 L 16 112 L 16 208 L 16 208 L 32 208 L 40 208 L 40 224 L 40 224 L 32 224 L 0 224 L 0 216 L 0 216 L 0 104 L 0 104 L 0 96 L 0 96 Z M 504 96 L 512 96 L 504 96 L 512 96 L 512 104 L 512 104 L 512 216 L 512 216 L 512 224 L 512 224 L 504 224 L 472 224 L 472 208 L 472 208 L 480 208 L 496 208 L 496 112 L 496 112 L 480 112 L 472 112 L 472 96 L 472 96 L 480 96 L 504 96 Z" />
</svg>