<svg xmlns="http://www.w3.org/2000/svg" viewBox="0 0 512 512">
  <path d="M 438 412 L 437 410 L 438 412 L 437 410 L 358 272 L 358 272 L 316 344 L 316 344 L 229 495 L 229 495 Q 242 496 256 496 Q 311 496 358 473 Q 405 451 438 412 L 438 412 Z M 449 399 Q 495 337 496 256 Q 496 214 482 176 L 480 176 L 321 176 L 362 248 L 362 248 L 449 399 L 449 399 Z M 302 176 L 218 176 L 302 176 L 210 176 L 168 249 L 168 249 L 164 256 L 164 256 L 206 329 L 206 329 L 210 336 L 210 336 Q 210 336 210 336 Q 210 336 210 336 Q 210 336 210 336 Q 210 336 210 336 L 294 336 L 302 336 Q 302 336 302 336 Q 302 336 302 336 L 344 263 L 344 263 L 348 256 L 348 256 Q 348 256 348 256 Q 348 256 348 256 L 306 183 L 306 183 L 302 176 L 302 176 Z M 191 336 L 150 264 L 191 336 L 150 264 L 63 114 L 63 114 Q 17 175 16 256 Q 16 298 30 336 L 32 336 L 191 336 Z M 74 100 L 75 102 L 74 100 L 75 102 L 154 240 L 154 240 L 196 168 L 196 168 L 283 18 L 283 18 Q 270 16 256 16 Q 201 16 154 39 Q 107 61 74 100 L 74 100 Z M 213 490 L 293 352 L 213 490 L 293 352 L 210 352 L 36 352 Q 60 407 106 443 Q 152 480 212 492 L 213 490 L 213 490 Z M 476 160 Q 452 105 406 69 L 406 69 L 406 69 Q 360 32 300 20 L 299 22 L 299 22 L 219 160 L 219 160 L 302 160 L 476 160 Z M 0 256 Q 1 186 34 128 L 34 128 L 34 128 Q 68 70 128 34 Q 189 0 256 0 Q 323 0 384 34 Q 444 70 478 128 Q 511 186 512 256 Q 511 326 478 384 Q 444 442 384 478 Q 323 512 256 512 Q 189 512 128 478 Q 68 442 34 384 Q 1 326 0 256 L 0 256 Z" />
</svg>