<svg xmlns="http://www.w3.org/2000/svg" viewBox="0 0 512 512">
  <path d="M 176 0 L 184 0 L 176 0 L 256 0 L 256 8 L 256 8 L 256 232 L 256 232 L 504 232 L 512 232 L 512 240 L 512 240 L 512 504 L 512 504 L 512 512 L 512 512 L 504 512 L 400 512 L 400 504 L 400 504 L 400 408 L 400 408 L 224 408 L 224 408 L 224 504 L 224 504 L 224 512 L 224 512 L 216 512 L 96 512 L 96 504 L 96 504 L 96 221 L 96 221 L 4 175 L 4 175 L 0 173 L 0 173 L 0 168 L 0 168 L 0 72 L 0 72 L 0 64 L 0 64 L 8 64 L 176 64 L 176 8 L 176 8 L 176 0 L 176 0 Z M 192 16 L 192 72 L 192 16 L 192 72 L 192 80 L 192 80 L 184 80 L 16 80 L 16 163 L 16 163 L 108 209 L 108 209 L 112 211 L 112 211 L 112 216 L 112 216 L 112 245 L 112 245 L 146 233 L 146 233 L 149 232 L 149 232 L 151 232 L 151 232 L 203 248 L 203 248 L 240 234 L 240 234 L 240 16 L 240 16 L 192 16 L 192 16 Z M 112 316 L 143 305 L 112 316 L 143 305 L 147 303 L 147 303 L 150 305 L 150 305 L 180 319 L 180 319 L 219 305 L 219 305 L 222 303 L 222 303 L 225 305 L 225 305 L 256 319 L 256 319 L 295 305 L 295 305 L 298 303 L 298 303 L 301 305 L 301 305 L 332 319 L 332 319 L 371 305 L 371 305 L 374 303 L 374 303 L 377 305 L 377 305 L 408 319 L 408 319 L 447 305 L 447 305 L 450 303 L 450 303 L 453 305 L 453 305 L 483 319 L 483 319 L 496 315 L 496 315 L 496 248 L 496 248 L 250 248 L 250 248 L 206 264 L 206 264 L 203 264 L 201 264 L 149 248 L 149 248 L 112 262 L 112 262 L 112 316 L 112 316 Z M 112 334 L 112 404 L 112 334 L 112 404 L 141 393 L 141 393 L 144 392 L 144 392 L 147 392 L 147 392 L 192 408 L 192 408 L 208 402 L 208 402 L 208 400 L 208 400 L 208 392 L 208 392 L 216 392 L 416 392 L 416 400 L 416 400 L 416 408 L 416 408 L 462 393 L 462 393 L 464 392 L 464 392 L 467 393 L 467 393 L 496 404 L 496 404 L 496 332 L 496 332 L 486 336 L 486 336 L 483 337 L 483 337 L 479 335 L 479 335 L 449 321 L 449 321 L 410 336 L 410 336 L 407 337 L 407 337 L 404 335 L 404 335 L 373 321 L 373 321 L 334 336 L 334 336 L 331 337 L 331 337 L 328 335 L 328 335 L 297 321 L 297 321 L 258 336 L 258 336 L 255 337 L 255 337 L 252 335 L 252 335 L 221 321 L 221 321 L 183 336 L 183 336 L 179 337 L 179 337 L 176 335 L 176 335 L 146 321 L 146 321 L 112 334 L 112 334 Z M 496 421 L 464 409 L 496 421 L 464 409 L 419 424 L 419 424 L 416 424 L 416 424 L 416 496 L 416 496 L 496 496 L 496 496 L 496 421 L 496 421 Z M 208 419 L 195 424 L 208 419 L 195 424 L 192 424 L 190 424 L 144 409 L 144 409 L 112 421 L 112 421 L 112 496 L 112 496 L 208 496 L 208 496 L 208 419 L 208 419 Z M 176 128 Q 161 129 160 144 Q 161 159 176 160 Q 191 159 192 144 Q 191 129 176 128 L 176 128 Z M 208 144 Q 208 158 199 167 L 199 167 L 199 167 Q 190 176 176 176 Q 162 176 153 167 Q 144 158 144 144 Q 144 130 153 121 Q 162 112 176 112 Q 190 112 199 121 Q 208 130 208 144 L 208 144 Z" />
</svg>