<svg xmlns="http://www.w3.org/2000/svg" viewBox="0 0 576 448">
  <path d="M 264 0 L 342 64 L 264 0 L 342 64 Q 420 69 472 107 Q 524 146 550 183 Q 576 221 576 224 Q 576 227 550 265 Q 524 302 472 341 Q 420 379 342 384 L 264 448 L 264 448 L 224 424 L 224 424 L 232 359 L 232 359 Q 185 335 155 303 L 32 352 L 32 352 L 0 320 L 0 320 L 48 224 L 48 224 L 0 128 L 0 128 L 32 96 L 32 96 L 151 149 L 151 149 Q 182 115 232 89 L 224 24 L 224 24 L 264 0 L 264 0 Z M 548 208 Q 534 186 506 157 Q 478 127 437 105 Q 396 82 341 80 L 336 80 L 336 80 L 332 77 L 332 77 L 263 20 L 263 20 L 241 32 L 241 32 L 248 87 L 248 87 L 249 98 L 249 98 L 239 103 L 239 103 Q 192 128 162 161 L 154 169 L 154 169 L 144 164 L 144 164 L 36 115 L 36 115 L 20 131 L 20 131 L 62 217 L 62 217 L 66 224 L 66 224 L 62 231 L 62 231 L 20 317 L 20 317 L 36 333 L 36 333 L 149 288 L 149 288 L 159 284 L 159 284 L 166 292 L 166 292 Q 195 322 239 345 L 249 350 L 249 350 L 248 361 L 248 361 L 241 416 L 241 416 L 263 429 L 263 429 L 332 372 L 332 372 L 336 368 L 336 368 L 341 368 L 341 368 Q 396 366 437 343 Q 478 321 506 291 Q 534 262 548 240 Q 554 230 558 224 Q 554 218 548 208 L 548 208 Z M 562 231 Q 562 231 562 231 Q 562 231 562 231 L 562 231 Z M 416 192 Q 430 192 439 201 L 439 201 L 439 201 Q 448 210 448 224 Q 448 238 439 247 Q 430 256 416 256 Q 402 256 393 247 Q 384 238 384 224 Q 384 210 393 201 Q 402 192 416 192 L 416 192 Z M 432 224 Q 431 209 416 208 Q 401 209 400 224 Q 401 239 416 240 Q 431 239 432 224 L 432 224 Z" />
</svg>