<svg xmlns="http://www.w3.org/2000/svg" viewBox="0 0 317 512">
  <path d="M 200 0 L 200 8 L 200 0 L 200 8 L 200 64 L 200 64 Q 267 66 317 102 L 307 115 L 307 115 Q 261 81 198 80 Q 120 82 69 132 Q 18 181 16 256 Q 18 331 69 380 Q 120 430 198 432 Q 261 431 307 397 L 317 410 L 317 410 Q 267 446 200 448 L 200 504 L 200 504 L 200 512 L 200 512 L 184 512 L 184 512 L 184 504 L 184 504 L 184 447 L 184 447 Q 105 441 54 387 Q 2 334 0 256 Q 2 178 54 125 Q 105 71 184 65 L 184 8 L 184 8 L 184 0 L 184 0 L 200 0 L 200 0 Z" />
</svg>