<svg xmlns="http://www.w3.org/2000/svg" viewBox="0 0 512 511">
  <path d="M 209 79 L 209 62 L 209 79 L 209 62 L 209 31 L 209 31 L 209 23 L 209 23 L 225 23 L 225 23 L 225 31 L 225 31 L 225 59 L 225 59 L 225 75 L 225 75 L 225 137 L 225 137 L 225 153 L 225 153 L 225 223 L 225 223 L 257 223 L 512 223 L 511 239 L 511 239 L 508 284 L 508 284 Q 504 347 471 396 Q 437 445 384 472 L 384 495 L 384 495 L 384 511 L 384 511 L 368 511 L 128 511 L 128 495 L 128 495 L 128 472 L 128 472 Q 75 445 41 396 Q 8 347 4 284 L 1 239 L 1 239 L 0 223 L 0 223 L 16 223 L 161 223 L 161 157 L 161 157 L 17 167 L 17 167 L 9 168 L 9 168 L 7 152 L 7 152 L 15 151 L 15 151 L 160 141 L 160 141 L 160 89 L 160 89 L 20 119 L 20 119 L 12 121 L 12 121 L 8 105 L 8 105 L 16 103 L 16 103 L 161 73 L 161 73 L 161 47 L 161 47 L 161 39 L 161 39 L 177 39 L 177 39 L 177 47 L 177 47 L 177 69 L 177 69 L 177 86 L 177 86 L 177 140 L 177 140 L 177 156 L 177 156 L 177 223 L 177 223 L 209 223 L 209 223 L 209 154 L 209 154 L 209 138 L 209 138 L 209 79 L 209 79 Z M 209 239 L 177 239 L 209 239 L 17 239 L 20 283 L 20 283 Q 24 342 55 387 Q 86 433 135 458 L 144 462 L 144 462 L 144 472 L 144 472 L 144 495 L 144 495 L 368 495 L 368 495 L 368 472 L 368 472 L 368 462 L 368 462 L 377 458 L 377 458 Q 426 433 457 387 Q 488 342 492 283 L 495 239 L 495 239 L 225 239 L 209 239 Z M 257 135 L 496 119 L 257 135 L 496 119 L 504 118 L 504 118 L 505 135 L 505 135 L 497 135 L 497 135 L 257 151 L 257 151 L 257 135 L 257 135 Z M 257 52 L 494 1 L 257 52 L 494 1 L 502 0 L 502 0 L 505 15 L 505 15 L 498 17 L 498 17 L 257 68 L 257 68 L 257 52 L 257 52 Z" />
</svg>