<svg xmlns="http://www.w3.org/2000/svg" viewBox="0 0 512 497">
  <path d="M 256 0 L 259 0 L 256 0 L 259 0 L 507 88 L 507 88 L 512 90 L 512 90 L 512 96 L 512 96 L 512 384 L 512 384 L 512 389 L 512 389 L 507 391 L 507 391 L 259 495 L 259 495 L 256 497 L 256 497 L 253 495 L 253 495 L 5 391 L 5 391 L 0 389 L 0 389 L 0 384 L 0 384 L 0 96 L 0 96 L 0 90 L 0 90 L 5 89 L 5 89 L 253 1 L 253 1 L 256 0 L 256 0 Z M 16 379 L 248 476 L 16 379 L 248 476 L 248 205 L 248 205 L 16 108 L 16 108 L 16 379 L 16 379 Z M 264 476 L 496 379 L 264 476 L 496 379 L 496 108 L 496 108 L 264 205 L 264 205 L 264 476 L 264 476 Z M 256 17 L 30 97 L 256 17 L 30 97 L 256 191 L 256 191 L 482 97 L 482 97 L 256 17 L 256 17 Z" />
</svg>