<svg xmlns="http://www.w3.org/2000/svg" viewBox="0 0 448 512">
  <path d="M 160 352 L 144 352 L 160 352 L 64 352 L 64 336 L 64 336 L 64 320 L 64 320 L 213 171 L 213 171 L 224 160 L 224 160 L 235 171 L 235 171 L 384 320 L 384 320 L 384 336 L 384 336 L 384 352 L 384 352 L 368 352 L 288 352 L 288 368 L 288 368 L 288 496 L 288 496 L 288 512 L 288 512 L 272 512 L 160 512 L 160 496 L 160 496 L 160 368 L 160 368 L 160 352 L 160 352 Z M 160 336 L 176 336 L 160 336 L 176 336 L 176 352 L 176 352 L 176 496 L 176 496 L 272 496 L 272 496 L 272 352 L 272 352 L 272 336 L 272 336 L 288 336 L 368 336 L 368 327 L 368 327 L 224 183 L 224 183 L 80 327 L 80 327 L 80 336 L 80 336 L 160 336 L 160 336 Z M 16 184 L 16 192 L 16 184 L 16 192 L 0 192 L 0 192 L 0 184 L 0 184 L 0 8 L 0 8 Q 1 1 8 0 L 440 0 L 440 0 Q 447 1 448 8 L 448 184 L 448 184 L 448 192 L 448 192 L 432 192 L 432 192 L 432 184 L 432 184 L 432 16 L 432 16 L 16 16 L 16 16 L 16 184 L 16 184 Z" />
</svg>