<svg xmlns="http://www.w3.org/2000/svg" viewBox="0 0 512 512">
  <path d="M 256 496 Q 264 496 272 496 L 272 512 L 272 512 Q 264 512 256 512 Q 184 511 127 477 Q 69 443 35 385 Q 1 328 0 256 Q 1 184 35 127 Q 69 69 127 35 Q 184 1 256 0 Q 328 1 385 35 Q 443 69 477 127 Q 511 184 512 256 Q 511 317 486 369 Q 460 420 416 456 L 416 435 L 416 435 Q 453 402 474 356 Q 496 310 496 256 Q 495 189 463 135 Q 431 81 377 49 Q 323 17 256 16 Q 189 17 135 49 Q 81 81 49 135 Q 17 189 16 256 Q 17 323 49 377 Q 81 431 135 463 Q 189 495 256 496 L 256 496 Z M 136 219 L 133 226 L 136 219 L 133 226 L 118 221 L 118 221 L 120 213 L 120 213 Q 126 196 147 175 Q 169 154 208 152 L 216 152 L 216 152 L 216 168 L 216 168 L 208 168 L 208 168 Q 176 170 158 187 Q 140 204 135 219 L 136 219 Z M 129 309 L 134 315 L 129 309 L 134 315 Q 152 338 182 357 Q 213 375 256 376 Q 299 375 330 357 Q 360 338 378 315 L 383 309 L 383 309 L 395 319 L 395 319 L 390 325 L 390 325 Q 388 328 386 330 Q 385 331 384 332 L 384 504 L 384 504 L 384 512 L 384 512 L 368 512 L 368 512 L 368 504 L 368 504 L 368 349 L 368 349 Q 348 367 320 379 L 320 472 L 320 472 L 320 480 L 320 480 L 304 480 L 304 480 L 304 472 L 304 472 L 304 385 L 304 385 Q 282 392 256 392 Q 208 391 175 371 Q 141 350 122 325 L 117 319 L 117 319 L 129 309 L 129 309 Z M 304 168 L 296 168 L 304 168 L 296 168 L 296 152 L 296 152 L 304 152 L 304 152 Q 343 154 365 175 Q 386 196 392 213 L 394 221 L 394 221 L 379 226 L 379 226 L 376 219 L 376 219 Q 372 204 354 187 Q 336 170 304 168 L 304 168 Z" />
</svg>