<svg xmlns="http://www.w3.org/2000/svg" viewBox="0 0 615 512">
  <path d="M 512 0 L 498 0 L 512 0 L 498 0 L 491 12 L 491 12 L 470 48 L 470 48 Q 426 50 398 79 Q 369 108 368 152 Q 368 175 378 195 Q 365 192 352 192 Q 314 193 288 216 Q 275 180 244 159 Q 213 137 173 136 Q 99 138 51 187 Q 2 235 0 309 L 0 360 L 0 360 L 0 384 L 0 384 L 24 384 L 120 384 L 49 508 L 49 508 L 47 512 L 47 512 L 102 512 L 102 512 L 175 384 L 175 384 L 184 384 L 184 384 Q 192 384 201 383 L 129 508 L 129 508 L 127 512 L 127 512 L 182 512 L 182 512 L 276 347 L 276 347 Q 283 356 292 363 L 287 371 L 287 371 L 287 371 L 287 371 L 209 508 L 209 508 L 207 512 L 207 512 L 262 512 L 262 512 L 329 395 L 329 395 L 336 383 L 336 383 Q 344 384 352 384 Q 373 384 390 376 L 435 421 L 435 421 L 470 512 L 470 512 L 521 512 L 521 512 L 478 400 L 478 400 L 477 395 L 477 395 L 473 391 L 473 391 L 428 346 L 428 346 Q 432 342 434 337 L 532 407 L 532 407 L 565 512 L 565 512 L 615 512 L 615 512 L 575 385 L 575 385 L 572 377 L 572 377 L 566 372 L 566 372 L 454 292 L 454 292 L 448 288 L 448 288 L 448 288 L 448 288 Q 448 268 441 251 Q 456 256 472 256 L 584 256 L 608 256 L 608 232 L 608 232 L 608 182 L 608 182 Q 607 138 584 104 Q 560 71 521 56 L 526 48 L 526 48 L 584 48 L 608 48 L 608 0 L 608 0 L 584 0 L 512 0 Z M 472 96 L 474 96 L 472 96 L 474 96 Q 511 97 535 121 Q 559 145 560 182 L 560 208 L 560 208 L 472 208 L 472 208 Q 448 207 432 192 Q 417 176 416 152 Q 417 128 432 112 Q 448 97 472 96 L 472 96 Z M 352 336 Q 325 335 310 312 Q 298 288 310 264 Q 325 241 352 240 Q 379 241 394 264 Q 406 288 394 312 Q 379 335 352 336 L 352 336 Z M 48 309 Q 49 256 85 221 L 85 221 L 85 221 Q 120 185 173 184 Q 205 185 226 206 Q 247 227 248 259 L 248 272 L 248 272 Q 247 299 229 317 Q 211 335 184 336 L 48 336 L 48 336 L 48 309 L 48 309 Z M 520 144 Q 518 122 496 120 Q 474 122 472 144 Q 474 166 496 168 Q 518 166 520 144 L 520 144 Z" />
</svg>