<svg xmlns="http://www.w3.org/2000/svg" viewBox="0 0 614 521">
  <path d="M 99 73 Q 100 46 123 31 Q 147 19 171 31 Q 194 46 195 73 Q 194 100 171 115 Q 147 127 123 115 Q 100 100 99 73 L 99 73 Z M 211 73 Q 210 37 179 18 Q 147 0 115 18 Q 84 37 83 73 Q 84 109 115 128 Q 147 146 179 128 Q 210 109 211 73 L 211 73 Z M 210 262 L 207 254 L 210 262 L 207 254 L 192 261 L 192 261 L 196 268 L 196 268 L 254 393 L 254 393 L 219 393 L 40 393 L 98 268 L 98 268 L 102 261 L 102 261 L 87 254 L 87 254 L 84 262 L 84 262 L 20 398 L 20 398 L 14 409 L 14 409 L 27 409 L 67 409 L 67 513 L 67 513 L 67 521 L 67 521 L 75 521 L 131 521 L 131 513 L 131 513 L 131 409 L 131 409 L 163 409 L 163 409 L 163 513 L 163 513 L 163 521 L 163 521 L 171 521 L 227 521 L 227 513 L 227 513 L 227 409 L 227 409 L 267 409 L 280 409 L 274 398 L 274 398 L 210 262 L 210 262 Z M 83 409 L 115 409 L 83 409 L 115 409 L 115 505 L 115 505 L 83 505 L 83 505 L 83 409 L 83 409 Z M 211 409 L 211 505 L 211 409 L 211 505 L 179 505 L 179 505 L 179 409 L 179 409 L 211 409 L 211 409 Z M 91 169 L 89 173 L 91 169 L 89 173 L 4 317 L 4 317 L 0 324 L 0 324 L 14 332 L 14 332 L 18 325 L 18 325 L 101 185 L 101 185 L 194 185 L 194 185 L 276 325 L 276 325 L 280 332 L 280 332 L 294 324 L 294 324 L 290 317 L 290 317 L 205 173 L 205 173 L 203 169 L 203 169 L 198 169 L 91 169 Z M 419 73 Q 420 46 443 31 Q 467 19 491 31 Q 514 46 515 73 Q 514 100 491 115 Q 467 127 443 115 Q 420 100 419 73 L 419 73 Z M 531 73 Q 530 37 499 18 Q 467 0 435 18 Q 404 37 403 73 Q 404 109 435 128 Q 467 146 499 128 Q 530 109 531 73 L 531 73 Z M 408 169 L 403 169 L 408 169 L 403 169 L 401 173 L 401 173 L 324 317 L 324 317 L 320 324 L 320 324 L 334 332 L 334 332 L 338 325 L 338 325 L 413 185 L 413 185 L 521 185 L 521 185 L 596 325 L 596 325 L 600 332 L 600 332 L 614 324 L 614 324 L 610 317 L 610 317 L 533 173 L 533 173 L 531 169 L 531 169 L 526 169 L 408 169 Z M 403 289 L 387 289 L 403 289 L 387 289 L 387 297 L 387 297 L 387 513 L 387 513 L 387 521 L 387 521 L 395 521 L 451 521 L 451 513 L 451 513 L 451 393 L 451 393 L 483 393 L 483 393 L 483 513 L 483 513 L 483 521 L 483 521 L 491 521 L 547 521 L 547 513 L 547 513 L 547 297 L 547 297 L 547 289 L 547 289 L 531 289 L 531 289 L 531 297 L 531 297 L 531 505 L 531 505 L 499 505 L 499 505 L 499 385 L 499 385 L 499 377 L 499 377 L 491 377 L 435 377 L 435 385 L 435 385 L 435 505 L 435 505 L 403 505 L 403 505 L 403 297 L 403 297 L 403 289 L 403 289 Z" />
</svg>