<svg xmlns="http://www.w3.org/2000/svg" viewBox="0 0 576 448">
  <path d="M 176 16 L 176 176 L 176 16 L 176 176 L 16 176 L 16 176 L 16 16 L 16 16 L 176 16 L 176 16 Z M 16 0 L 0 0 L 16 0 L 0 0 L 0 16 L 0 16 L 0 176 L 0 176 L 0 192 L 0 192 L 16 192 L 180 192 L 224 266 L 224 266 L 224 272 L 224 272 L 224 432 L 224 432 L 224 448 L 224 448 L 240 448 L 416 448 L 416 432 L 416 432 L 416 272 L 416 272 L 416 256 L 416 256 L 400 256 L 237 256 L 192 182 L 192 182 L 192 176 L 192 176 L 192 104 L 192 104 L 384 104 L 384 104 L 384 176 L 384 176 L 384 192 L 384 192 L 400 192 L 576 192 L 576 176 L 576 176 L 576 16 L 576 16 L 576 0 L 576 0 L 560 0 L 384 0 L 384 16 L 384 16 L 384 88 L 384 88 L 192 88 L 192 88 L 192 16 L 192 16 L 192 0 L 192 0 L 176 0 L 16 0 Z M 400 272 L 400 432 L 400 272 L 400 432 L 240 432 L 240 432 L 240 272 L 240 272 L 400 272 L 400 272 Z M 400 16 L 560 16 L 400 16 L 560 16 L 560 176 L 560 176 L 400 176 L 400 176 L 400 16 L 400 16 Z" />
</svg>