<svg xmlns="http://www.w3.org/2000/svg" viewBox="0 0 642 480">
  <path d="M 160 0 L 393 87 L 160 0 L 393 87 L 497 36 L 497 36 Q 520 24 546 23 L 598 19 L 598 19 Q 619 19 631 35 Q 642 50 636 70 Q 607 143 538 179 L 256 320 L 256 320 L 96 320 L 96 320 L 11 221 L 11 221 L 0 208 L 0 208 L 15 201 L 15 201 L 64 176 L 64 176 L 136 216 L 136 216 L 226 171 L 226 171 L 243 163 L 243 163 L 227 153 L 227 153 L 80 58 L 80 58 L 64 48 L 64 48 L 81 40 L 81 40 L 160 0 L 160 0 Z M 530 165 Q 594 132 621 64 Q 624 53 618 44 Q 611 35 599 35 L 547 38 L 547 38 Q 524 40 504 50 L 400 102 L 400 102 L 394 105 L 394 105 L 388 102 L 388 102 L 161 17 L 161 17 L 96 50 L 96 50 L 251 149 L 251 149 L 275 164 L 275 164 L 250 177 L 250 177 L 143 230 L 143 230 L 136 234 L 136 234 L 128 230 L 128 230 L 64 194 L 64 194 L 26 213 L 26 213 L 103 304 L 103 304 L 252 304 L 252 304 L 530 165 L 530 165 Z M 8 464 L 632 464 L 8 464 L 640 464 L 640 480 L 640 480 L 632 480 L 0 480 L 0 464 L 0 464 L 8 464 L 8 464 Z" />
</svg>