<svg xmlns="http://www.w3.org/2000/svg" viewBox="0 0 512 512">
  <path d="M 16 224 Q 18 136 77 77 L 77 77 L 77 77 Q 136 18 224 16 L 248 16 L 248 16 Q 321 18 371 67 Q 420 116 424 189 L 424 192 L 424 192 L 427 194 L 427 194 L 496 256 L 496 256 L 496 320 L 496 320 L 440 320 L 432 320 L 432 328 L 432 328 L 432 432 L 432 432 L 312 432 L 304 432 L 304 440 L 304 440 L 304 504 L 304 504 L 304 512 L 304 512 L 320 512 L 320 512 L 320 504 L 320 504 L 320 448 L 320 448 L 440 448 L 448 448 L 448 440 L 448 440 L 448 336 L 448 336 L 504 336 L 512 336 L 512 328 L 512 328 L 512 252 L 512 252 L 512 249 L 512 249 L 509 246 L 509 246 L 440 185 L 440 185 Q 434 107 381 54 Q 327 2 248 0 L 224 0 L 224 0 Q 161 1 111 31 Q 60 60 31 111 Q 1 161 0 224 Q 2 315 64 381 L 64 504 L 64 504 L 64 512 L 64 512 L 80 512 L 80 512 L 80 504 L 80 504 L 80 378 L 80 378 L 80 374 L 80 374 L 78 372 L 78 372 Q 18 310 16 224 L 16 224 Z M 194 114 Q 204 97 224 96 Q 244 97 254 114 L 258 121 L 258 121 L 265 117 L 265 117 Q 271 113 279 113 Q 296 114 305 127 L 307 132 L 307 132 L 313 131 L 313 131 Q 315 130 318 130 Q 332 131 342 141 Q 352 150 352 165 L 352 201 L 352 201 L 264 201 L 256 201 L 256 209 L 256 209 L 256 261 L 256 261 L 232 261 L 224 261 L 224 277 L 224 277 L 232 277 L 272 277 L 272 269 L 272 269 L 272 216 L 272 216 L 360 216 L 368 216 L 368 208 L 368 208 L 368 165 L 368 165 Q 368 144 353 129 Q 339 115 318 114 Q 316 114 315 114 Q 302 98 279 97 Q 271 97 264 100 Q 249 81 224 80 Q 199 81 184 100 Q 177 97 169 97 Q 152 97 140 107 Q 128 117 124 132 Q 105 135 93 149 Q 81 163 80 183 Q 81 213 106 227 Q 107 248 121 262 Q 135 276 156 277 L 165 277 L 165 277 L 165 312 L 165 312 L 165 320 L 165 320 L 181 320 L 181 320 L 181 312 L 181 312 L 181 269 L 181 269 L 181 261 L 181 261 L 173 261 L 156 261 Q 141 261 132 251 Q 122 241 122 226 Q 122 224 122 223 L 122 217 L 122 217 L 117 215 L 117 215 Q 97 206 96 183 Q 96 168 106 158 Q 116 148 131 148 L 131 148 L 131 148 L 138 148 L 138 148 L 139 141 L 139 141 Q 143 115 169 113 Q 177 113 183 117 L 190 121 L 190 121 L 194 114 L 194 114 Z" />
</svg>