<svg xmlns="http://www.w3.org/2000/svg" viewBox="0 0 512 448">
  <path d="M 496 16 L 16 16 L 496 16 L 16 16 L 16 96 L 16 96 L 32 96 L 496 96 L 496 16 L 496 16 Z M 480 112 L 464 112 L 480 112 L 0 112 L 0 96 L 0 96 L 0 16 L 0 16 L 0 0 L 0 0 L 16 0 L 512 0 L 512 16 L 512 16 L 512 96 L 512 96 L 512 112 L 512 112 L 496 112 L 480 112 Z M 160 192 L 168 192 L 160 192 L 352 192 L 352 208 L 352 208 L 344 208 L 160 208 L 160 192 L 160 192 Z M 464 144 L 480 144 L 464 144 L 480 144 L 480 432 L 480 432 L 480 448 L 480 448 L 464 448 L 32 448 L 32 432 L 32 432 L 32 144 L 32 144 L 48 144 L 48 144 L 48 432 L 48 432 L 464 432 L 464 432 L 464 144 L 464 144 Z" />
</svg>