<svg xmlns="http://www.w3.org/2000/svg" viewBox="0 0 632 384">
  <path d="M 16 8 L 16 0 L 16 8 L 16 0 L 0 0 L 0 0 L 0 8 L 0 8 L 0 184 L 0 184 L 0 376 L 0 376 L 0 384 L 0 384 L 16 384 L 16 384 L 16 376 L 16 376 L 16 192 L 16 192 L 304 192 L 304 192 L 304 376 L 304 376 L 304 384 L 304 384 L 320 384 L 320 384 L 320 376 L 320 376 L 320 184 L 320 184 L 320 8 L 320 8 L 320 0 L 320 0 L 304 0 L 304 0 L 304 8 L 304 8 L 304 176 L 304 176 L 16 176 L 16 176 L 16 8 L 16 8 Z M 501 16 L 505 16 L 501 16 L 505 16 Q 546 17 572 44 Q 599 70 600 111 Q 600 149 574 176 L 386 370 L 386 370 L 384 373 L 384 373 L 384 384 L 384 384 L 392 384 L 632 384 L 632 368 L 632 368 L 624 368 L 411 368 L 585 187 L 585 187 Q 612 158 616 119 L 616 119 L 616 119 L 616 111 L 616 111 Q 615 64 584 32 Q 552 1 505 0 L 501 0 L 501 0 Q 453 0 417 31 L 395 50 L 395 50 L 389 55 L 389 55 L 399 67 L 399 67 L 405 62 L 405 62 L 427 43 L 427 43 Q 459 16 501 16 L 501 16 Z" />
</svg>