<svg xmlns="http://www.w3.org/2000/svg" viewBox="0 0 640 448">
  <path d="M 128 0 L 123 0 L 128 0 L 123 0 L 121 5 L 121 5 L 59 160 L 59 160 L 16 160 L 0 160 L 0 176 L 0 176 L 0 352 L 0 352 L 0 368 L 0 368 L 16 368 L 65 368 Q 72 403 98 425 Q 124 447 160 448 Q 196 447 222 425 Q 248 403 255 368 L 385 368 L 385 368 Q 392 403 418 425 Q 444 447 480 448 Q 517 447 542 425 Q 568 403 575 368 L 624 368 L 640 368 L 640 352 L 640 352 L 640 176 L 640 176 L 640 160 L 640 160 L 624 160 L 516 160 L 390 3 L 390 3 L 388 0 L 388 0 L 384 0 L 128 0 Z M 576 352 Q 575 311 548 284 L 548 284 L 548 284 Q 521 257 480 256 Q 439 257 412 284 Q 385 311 384 352 L 256 352 L 256 352 Q 255 311 228 284 Q 201 257 160 256 Q 119 257 92 284 Q 65 311 64 352 L 16 352 L 16 352 L 16 176 L 16 176 L 128 176 L 128 176 L 128 160 L 128 160 L 76 160 L 76 160 L 133 16 L 133 16 L 380 16 L 380 16 L 495 160 L 495 160 L 448 160 L 448 160 L 448 176 L 448 176 L 624 176 L 624 176 L 624 352 L 624 352 L 576 352 L 576 352 Z M 160 272 Q 205 273 229 312 Q 251 352 229 392 Q 205 431 160 432 Q 115 431 91 392 Q 69 352 91 312 Q 115 273 160 272 L 160 272 Z M 400 352 Q 401 307 440 283 Q 480 261 520 283 Q 559 307 560 352 Q 559 397 520 421 Q 480 443 440 421 Q 401 397 400 352 L 400 352 Z M 334 66 L 340 42 L 334 66 L 340 42 L 321 58 L 321 58 L 187 173 L 187 173 L 170 187 L 170 187 L 192 187 L 259 187 L 242 254 L 242 254 L 236 278 L 236 278 L 255 262 L 255 262 L 389 147 L 389 147 L 406 133 L 406 133 L 384 133 L 317 133 L 334 66 L 334 66 Z M 269 171 L 214 171 L 269 171 L 214 171 L 313 86 L 313 86 L 299 139 L 299 139 L 297 149 L 297 149 L 307 149 L 362 149 L 263 234 L 263 234 L 277 181 L 277 181 L 279 171 L 279 171 L 269 171 L 269 171 Z" />
</svg>