<svg xmlns="http://www.w3.org/2000/svg" viewBox="0 0 512 480">
  <path d="M 0 0 L 8 0 L 0 0 L 120 0 Q 178 1 216 40 Q 255 78 256 136 Q 255 189 222 226 Q 190 263 139 271 L 198 448 L 198 448 L 181 448 L 181 448 L 122 272 L 122 272 Q 122 272 121 272 Q 121 272 120 272 L 16 272 L 16 272 L 16 448 L 16 448 L 0 448 L 0 448 L 0 264 L 0 264 L 0 8 L 0 8 L 0 0 L 0 0 Z M 16 256 L 120 256 L 16 256 L 120 256 Q 171 255 205 221 Q 239 187 240 136 Q 239 85 205 51 Q 171 17 120 16 L 16 16 L 16 16 L 16 256 L 16 256 Z M 296 128 L 400 128 L 296 128 L 400 128 Q 448 129 479 161 Q 511 192 512 240 Q 511 288 479 319 Q 448 351 400 352 L 304 352 L 304 352 L 304 472 L 304 472 L 304 480 L 304 480 L 288 480 L 288 480 L 288 472 L 288 472 L 288 352 L 288 352 L 288 336 L 288 336 L 288 136 L 288 136 L 288 128 L 288 128 L 296 128 L 296 128 Z M 400 336 Q 441 335 468 308 L 468 308 L 468 308 Q 495 281 496 240 Q 495 199 468 172 Q 441 145 400 144 L 304 144 L 304 144 L 304 336 L 304 336 L 400 336 L 400 336 Z" />
</svg>