<svg xmlns="http://www.w3.org/2000/svg" viewBox="0 0 576 448">
  <path d="M 440 16 L 440 64 L 440 16 L 440 64 L 464 64 L 480 64 L 480 80 L 480 80 L 480 112 L 480 112 L 480 128 L 480 128 L 464 128 L 440 128 L 440 168 L 440 168 L 560 168 L 560 168 L 560 16 L 560 16 L 440 16 L 440 16 Z M 400 128 L 384 128 L 400 128 L 384 128 L 384 112 L 384 112 L 384 80 L 384 80 L 384 64 L 384 64 L 400 64 L 424 64 L 424 16 L 424 16 L 280 16 L 280 16 L 280 64 L 280 64 L 304 64 L 320 64 L 320 80 L 320 80 L 320 112 L 320 112 L 320 128 L 320 128 L 304 128 L 280 128 L 280 168 L 280 168 L 424 168 L 424 168 L 424 128 L 424 128 L 400 128 L 400 128 Z M 264 64 L 264 16 L 264 64 L 264 16 L 152 16 L 152 16 L 152 64 L 152 64 L 176 64 L 192 64 L 192 80 L 192 80 L 192 112 L 192 112 L 192 128 L 192 128 L 176 128 L 152 128 L 152 168 L 152 168 L 264 168 L 264 168 L 264 128 L 264 128 L 240 128 L 224 128 L 224 112 L 224 112 L 224 80 L 224 80 L 224 64 L 224 64 L 240 64 L 264 64 Z M 112 128 L 96 128 L 112 128 L 96 128 L 96 112 L 96 112 L 96 80 L 96 80 L 96 64 L 96 64 L 112 64 L 136 64 L 136 16 L 136 16 L 16 16 L 16 16 L 16 168 L 16 168 L 136 168 L 136 168 L 136 128 L 136 128 L 112 128 L 112 128 Z M 144 0 L 272 0 L 144 0 L 576 0 L 576 16 L 576 16 L 576 176 L 576 176 L 576 432 L 576 432 L 576 448 L 576 448 L 560 448 L 0 448 L 0 432 L 0 432 L 0 176 L 0 176 L 0 16 L 0 16 L 0 0 L 0 0 L 16 0 L 144 0 Z M 16 184 L 16 432 L 16 184 L 16 432 L 136 432 L 136 432 L 136 384 L 136 384 L 112 384 L 96 384 L 96 368 L 96 368 L 96 336 L 96 336 L 96 320 L 96 320 L 112 320 L 136 320 L 136 288 L 136 288 L 112 288 L 96 288 L 96 272 L 96 272 L 96 240 L 96 240 L 96 224 L 96 224 L 112 224 L 136 224 L 136 184 L 136 184 L 16 184 L 16 184 Z M 152 432 L 264 432 L 152 432 L 264 432 L 264 384 L 264 384 L 240 384 L 224 384 L 224 368 L 224 368 L 224 336 L 224 336 L 224 320 L 224 320 L 240 320 L 264 320 L 264 288 L 264 288 L 240 288 L 224 288 L 224 272 L 224 272 L 224 240 L 224 240 L 224 224 L 224 224 L 240 224 L 264 224 L 264 184 L 264 184 L 152 184 L 152 184 L 152 224 L 152 224 L 176 224 L 192 224 L 192 240 L 192 240 L 192 272 L 192 272 L 192 288 L 192 288 L 176 288 L 152 288 L 152 320 L 152 320 L 176 320 L 192 320 L 192 336 L 192 336 L 192 368 L 192 368 L 192 384 L 192 384 L 176 384 L 152 384 L 152 432 L 152 432 Z M 280 384 L 280 432 L 280 384 L 280 432 L 424 432 L 424 432 L 424 384 L 424 384 L 400 384 L 384 384 L 384 368 L 384 368 L 384 336 L 384 336 L 384 320 L 384 320 L 400 320 L 424 320 L 424 184 L 424 184 L 280 184 L 280 184 L 280 224 L 280 224 L 304 224 L 320 224 L 320 240 L 320 240 L 320 272 L 320 272 L 320 288 L 320 288 L 304 288 L 280 288 L 280 320 L 280 320 L 304 320 L 320 320 L 320 336 L 320 336 L 320 368 L 320 368 L 320 384 L 320 384 L 304 384 L 280 384 Z M 440 320 L 464 320 L 440 320 L 480 320 L 480 336 L 480 336 L 480 368 L 480 368 L 480 384 L 480 384 L 464 384 L 440 384 L 440 432 L 440 432 L 560 432 L 560 432 L 560 184 L 560 184 L 440 184 L 440 184 L 440 320 L 440 320 Z M 112 80 L 112 112 L 112 80 L 112 112 L 176 112 L 176 112 L 176 80 L 176 80 L 112 80 L 112 80 Z M 112 272 L 176 272 L 112 272 L 176 272 L 176 240 L 176 240 L 112 240 L 112 240 L 112 272 L 112 272 Z M 112 336 L 112 368 L 112 336 L 112 368 L 176 368 L 176 368 L 176 336 L 176 336 L 112 336 L 112 336 Z M 240 112 L 304 112 L 240 112 L 304 112 L 304 80 L 304 80 L 240 80 L 240 80 L 240 112 L 240 112 Z M 240 240 L 240 272 L 240 240 L 240 272 L 304 272 L 304 272 L 304 240 L 304 240 L 240 240 L 240 240 Z M 240 368 L 304 368 L 240 368 L 304 368 L 304 336 L 304 336 L 240 336 L 240 336 L 240 368 L 240 368 Z M 400 80 L 400 112 L 400 80 L 400 112 L 464 112 L 464 112 L 464 80 L 464 80 L 400 80 L 400 80 Z M 400 368 L 464 368 L 400 368 L 464 368 L 464 336 L 464 336 L 400 336 L 400 336 L 400 368 L 400 368 Z" />
</svg>