<svg xmlns="http://www.w3.org/2000/svg" viewBox="0 0 448 512">
  <path d="M 432 496 L 80 496 L 432 496 L 80 496 L 80 336 L 80 336 L 64 336 L 64 336 L 64 496 L 64 496 L 64 512 L 64 512 L 80 512 L 448 512 L 448 496 L 448 496 L 448 160 L 448 160 L 288 0 L 288 0 L 80 0 L 64 0 L 64 16 L 64 16 L 64 256 L 64 256 L 80 256 L 80 256 L 80 16 L 80 16 L 272 16 L 272 16 L 272 168 L 272 168 L 272 176 L 272 176 L 280 176 L 432 176 L 432 496 L 432 496 Z M 425 160 L 288 160 L 425 160 L 288 160 L 288 23 L 288 23 L 425 160 L 425 160 Z M 263 228 L 256 213 L 263 228 L 256 213 L 249 229 L 249 229 L 191 359 L 191 359 L 151 292 L 151 292 L 148 288 L 148 288 L 144 288 L 0 288 L 0 304 L 0 304 L 8 304 L 140 304 L 185 380 L 185 380 L 193 393 L 193 393 L 199 379 L 199 379 L 257 251 L 257 251 L 281 300 L 281 300 L 283 304 L 283 304 L 288 304 L 360 304 L 360 288 L 360 288 L 352 288 L 293 288 L 263 228 L 263 228 Z" />
</svg>