<svg xmlns="http://www.w3.org/2000/svg" viewBox="0 0 454 460">
  <path d="M 358 394 Q 287 447 205 436 L 205 436 L 205 436 Q 122 426 66 358 Q 13 287 24 205 Q 34 122 102 66 Q 173 13 255 24 Q 338 34 394 102 L 430 150 L 430 150 L 302 150 L 294 150 L 294 166 L 294 166 L 302 166 L 454 166 L 454 158 L 454 158 L 454 14 L 454 14 L 454 6 L 454 6 L 438 6 L 438 6 L 438 14 L 438 14 L 438 134 L 438 134 L 407 92 L 407 92 Q 407 92 407 92 Q 407 92 407 92 L 407 92 L 407 92 Q 367 43 313 22 Q 258 0 200 8 Q 142 16 92 54 Q 43 93 22 147 Q 0 202 8 260 Q 16 318 54 368 Q 93 417 147 438 Q 202 460 260 452 Q 318 444 368 407 Q 405 377 426 338 L 412 330 L 412 330 Q 392 367 358 394 L 358 394 Z" />
</svg>