<svg xmlns="http://www.w3.org/2000/svg" viewBox="0 0 640 512">
  <path d="M 208 128 Q 208 98 223 72 L 223 72 L 223 72 Q 238 46 264 31 Q 290 16 320 16 Q 350 16 376 31 Q 402 46 417 72 Q 432 98 432 128 Q 432 158 417 184 Q 402 210 376 225 Q 350 240 320 240 Q 290 240 264 225 Q 238 210 223 184 Q 208 158 208 128 L 208 128 Z M 448 128 Q 448 93 431 64 L 431 64 L 431 64 Q 414 35 384 17 Q 354 0 320 0 Q 286 0 256 17 Q 226 35 209 64 Q 192 93 192 128 Q 192 163 209 192 Q 226 221 256 239 Q 286 256 320 256 Q 354 256 384 239 Q 414 221 431 192 Q 448 163 448 128 L 448 128 Z M 96 72 Q 95 65 88 64 L 8 64 L 8 64 Q 1 65 0 72 L 0 384 L 0 384 Q 0 387 2 390 L 122 510 L 122 510 L 134 498 L 134 498 L 16 381 L 16 381 L 16 80 L 16 80 L 80 80 L 80 80 L 80 288 L 80 288 Q 80 291 82 294 L 93 305 L 93 305 L 98 310 L 98 310 L 178 390 L 178 390 L 186 398 L 186 398 L 192 403 L 192 403 L 203 392 L 203 392 L 198 386 L 198 386 L 190 378 L 190 378 L 115 304 L 115 304 L 152 260 L 152 260 L 288 395 L 288 395 L 288 504 L 288 504 L 288 512 L 288 512 L 304 512 L 304 512 L 304 504 L 304 504 L 304 392 L 304 392 L 304 389 L 304 389 L 302 386 L 302 386 L 158 242 L 158 242 L 152 236 L 152 236 L 146 243 L 146 243 L 104 292 L 104 292 L 96 285 L 96 285 L 96 72 L 96 72 Z M 552 64 Q 545 65 544 72 L 544 285 L 544 285 L 537 292 L 537 292 L 494 243 L 494 243 L 489 236 L 489 236 L 482 242 L 482 242 L 338 386 L 338 386 L 336 389 L 336 389 L 336 392 L 336 392 L 336 504 L 336 504 L 336 512 L 336 512 L 352 512 L 352 512 L 352 504 L 352 504 L 352 395 L 352 395 L 488 260 L 488 260 L 525 304 L 525 304 L 450 378 L 450 378 L 442 386 L 442 386 L 437 392 L 437 392 L 448 403 L 448 403 L 454 398 L 454 398 L 462 390 L 462 390 L 542 310 L 542 310 L 547 304 L 547 304 L 558 294 L 558 294 Q 560 291 560 288 L 560 80 L 560 80 L 624 80 L 624 80 L 624 381 L 624 381 L 506 498 L 506 498 L 518 510 L 518 510 L 638 390 L 638 390 Q 640 387 640 384 L 640 72 L 640 72 Q 639 65 632 64 L 552 64 L 552 64 Z" />
</svg>