<svg xmlns="http://www.w3.org/2000/svg" viewBox="0 0 512 512">
  <path d="M 349 52 L 313 124 L 349 52 L 313 124 Q 287 112 256 112 Q 225 112 199 124 L 163 52 L 163 52 L 156 38 L 156 38 Q 156 38 156 38 Q 156 38 156 38 Q 163 34 171 32 Q 211 16 256 16 Q 301 16 341 32 Q 349 34 356 38 Q 356 38 356 38 Q 356 38 356 38 L 349 52 L 349 52 Z M 149 23 L 149 24 L 149 23 L 149 24 L 149 23 L 149 23 L 142 27 L 142 27 L 134 30 L 134 30 L 134 31 L 134 31 L 134 31 L 134 31 Q 68 67 31 134 L 31 134 L 31 134 L 30 134 L 30 134 L 27 142 L 27 142 L 23 149 L 23 149 L 23 149 L 23 149 L 23 149 L 23 149 Q 0 198 0 256 L 0 272 L 0 272 L 0 288 L 0 288 L 0 384 L 0 384 L 0 400 L 0 400 L 0 496 L 0 496 L 0 512 L 0 512 L 16 512 L 128 512 L 128 496 L 128 496 L 128 400 L 128 400 L 128 384 L 128 384 L 128 288 L 128 288 L 128 272 L 128 272 L 128 256 L 128 256 Q 128 229 139 205 L 141 199 L 141 199 L 145 193 L 145 193 Q 162 162 192 145 L 199 141 L 199 141 L 205 139 L 205 139 Q 229 128 256 128 Q 283 128 307 139 L 313 141 L 313 141 L 319 145 L 319 145 Q 350 162 367 193 L 371 199 L 371 199 L 373 205 L 373 205 Q 384 229 384 256 L 384 272 L 384 272 L 384 288 L 384 288 L 384 384 L 384 384 L 384 400 L 384 400 L 384 496 L 384 496 L 384 512 L 384 512 L 400 512 L 512 512 L 512 496 L 512 496 L 512 400 L 512 400 L 512 384 L 512 384 L 512 288 L 512 288 L 512 272 L 512 272 L 512 256 L 512 256 Q 511 198 489 149 L 488 149 L 488 149 L 489 149 L 489 149 L 485 142 L 485 142 L 482 134 L 482 134 L 481 134 L 481 134 L 481 134 L 481 134 Q 444 68 378 31 L 377 31 L 377 31 L 378 30 L 378 30 L 370 27 L 370 27 L 363 23 L 363 23 L 363 23 L 363 23 L 363 23 L 363 23 Q 314 0 256 0 Q 198 0 149 23 L 149 23 Z M 38 156 Q 38 156 38 156 L 38 156 L 38 156 Q 38 156 38 156 Q 38 156 38 156 Q 38 156 38 156 L 52 163 L 52 163 L 124 199 L 124 199 Q 112 225 112 256 L 112 272 L 112 272 L 96 272 L 16 272 L 16 256 L 16 256 Q 16 211 32 171 Q 34 163 38 156 L 38 156 Z M 185 131 Q 185 131 185 131 L 185 131 L 185 131 Q 185 131 185 131 Q 151 151 131 185 Q 131 185 131 185 Q 131 185 131 185 L 59 149 L 59 149 L 45 142 L 45 142 Q 49 135 53 128 Q 82 82 128 53 Q 134 49 142 45 L 149 59 L 149 59 L 185 131 L 185 131 Z M 381 185 Q 361 151 327 131 Q 327 131 327 131 Q 327 131 327 131 L 363 59 L 363 59 L 370 45 L 370 45 Q 370 45 370 45 Q 370 45 370 45 Q 377 49 384 53 Q 430 82 459 128 Q 463 134 467 142 L 453 149 L 453 149 L 381 185 L 381 185 Q 381 185 381 185 Q 381 185 381 185 L 381 185 Z M 474 156 Q 474 156 474 156 Q 477 163 480 171 Q 496 211 496 256 L 496 272 L 496 272 L 480 272 L 400 272 L 400 256 L 400 256 Q 400 225 388 199 L 460 163 L 460 163 L 474 156 L 474 156 Z M 400 288 L 416 288 L 400 288 L 496 288 L 496 304 L 496 304 L 496 368 L 496 368 L 496 384 L 496 384 L 480 384 L 400 384 L 400 368 L 400 368 L 400 304 L 400 304 L 400 288 L 400 288 Z M 16 400 L 32 400 L 16 400 L 112 400 L 112 416 L 112 416 L 112 480 L 112 480 L 112 496 L 112 496 L 96 496 L 16 496 L 16 480 L 16 480 L 16 416 L 16 416 L 16 400 L 16 400 Z M 400 400 L 416 400 L 400 400 L 496 400 L 496 416 L 496 416 L 496 480 L 496 480 L 496 496 L 496 496 L 480 496 L 400 496 L 400 480 L 400 480 L 400 416 L 400 416 L 400 400 L 400 400 Z M 112 288 L 112 304 L 112 288 L 112 304 L 112 368 L 112 368 L 112 384 L 112 384 L 96 384 L 16 384 L 16 368 L 16 368 L 16 304 L 16 304 L 16 288 L 16 288 L 32 288 L 112 288 Z M 264 184 L 264 176 L 264 184 L 264 176 L 248 176 L 248 176 L 248 184 L 248 184 L 248 472 L 248 472 L 248 480 L 248 480 L 264 480 L 264 480 L 264 472 L 264 472 L 264 184 L 264 184 Z M 192 216 L 192 208 L 192 216 L 192 208 L 176 208 L 176 208 L 176 216 L 176 216 L 176 472 L 176 472 L 176 480 L 176 480 L 192 480 L 192 480 L 192 472 L 192 472 L 192 216 L 192 216 Z M 336 216 L 336 208 L 336 216 L 336 208 L 320 208 L 320 208 L 320 216 L 320 216 L 320 472 L 320 472 L 320 480 L 320 480 L 336 480 L 336 480 L 336 472 L 336 472 L 336 216 L 336 216 Z" />
</svg>