<svg xmlns="http://www.w3.org/2000/svg" viewBox="0 0 576 507">
  <path d="M 296 251 L 296 243 L 296 251 L 296 243 L 296 30 L 296 30 L 370 105 L 370 105 L 376 110 L 376 110 L 387 99 L 387 99 L 382 93 L 382 93 L 294 5 L 294 5 L 288 0 L 288 0 L 282 5 L 282 5 L 194 93 L 194 93 L 189 99 L 189 99 L 200 110 L 200 110 L 206 105 L 206 105 L 280 30 L 280 30 L 280 243 L 280 243 L 280 251 L 280 251 L 296 251 L 296 251 Z M 96 293 L 95 294 L 96 293 L 95 294 Q 95 295 94 296 Q 88 304 82 312 Q 75 321 62 333 Q 49 345 33 354 Q 17 363 0 363 L 0 379 L 0 379 Q 22 378 40 368 Q 59 358 73 345 Q 88 330 96 320 Q 104 330 119 345 Q 133 358 152 368 Q 170 378 192 379 Q 214 378 232 368 Q 251 358 265 345 Q 280 330 288 320 Q 296 330 311 345 Q 325 358 344 368 Q 362 378 384 379 Q 406 378 424 368 Q 443 358 457 345 Q 472 330 480 320 Q 488 330 503 345 Q 517 358 536 368 Q 554 378 576 379 L 576 363 L 576 363 Q 559 363 543 354 Q 527 345 514 333 Q 501 321 494 312 Q 487 304 481 295 Q 481 294 481 294 Q 481 294 481 294 Q 481 294 481 294 L 480 293 L 480 293 L 480 294 L 480 294 Q 479 294 479 295 Q 473 304 466 312 Q 459 321 446 333 Q 433 345 417 354 Q 401 363 384 363 Q 367 363 351 354 Q 335 345 322 333 Q 309 321 302 312 Q 295 304 289 295 Q 289 294 289 294 L 288 293 L 288 293 L 288 294 L 288 294 Q 288 294 288 294 Q 288 294 288 294 Q 287 294 287 295 Q 281 304 274 312 Q 267 321 254 333 Q 241 345 225 354 Q 209 363 192 363 Q 175 363 159 354 Q 143 345 130 333 Q 117 321 110 312 Q 103 304 97 295 Q 97 294 97 294 L 96 293 L 96 293 Z M 97 422 L 96 421 L 97 422 L 96 421 L 95 422 L 95 422 Q 95 423 94 424 Q 88 432 82 440 Q 75 449 62 461 Q 49 473 33 482 Q 17 491 0 491 L 0 507 L 0 507 Q 22 506 40 496 Q 59 486 73 473 Q 88 458 96 448 Q 104 458 119 473 Q 133 486 152 496 Q 170 506 192 507 Q 214 506 232 496 Q 251 486 265 473 Q 280 458 288 448 Q 296 458 311 473 Q 325 486 344 496 Q 362 506 384 507 Q 406 506 424 496 Q 443 486 457 473 Q 472 458 480 448 Q 488 458 503 473 Q 517 486 536 496 Q 554 506 576 507 L 576 491 L 576 491 Q 559 491 543 482 Q 527 473 514 461 Q 501 449 494 440 Q 487 432 481 423 Q 481 422 481 422 L 480 421 L 480 421 L 480 422 L 480 422 Q 479 422 479 423 Q 473 432 466 440 Q 459 449 446 461 Q 433 473 417 482 Q 401 491 384 491 Q 367 491 351 482 Q 335 473 322 461 Q 309 449 302 440 Q 295 432 289 423 Q 289 422 289 422 Q 289 422 288 421 Q 288 421 288 421 L 288 422 L 288 422 Q 287 423 286 424 Q 281 432 274 440 Q 267 449 254 461 Q 241 473 225 482 Q 209 491 192 491 Q 175 491 159 482 Q 143 473 130 461 Q 117 449 110 440 Q 103 432 97 423 Q 97 422 97 422 L 97 422 Z" />
</svg>