<svg xmlns="http://www.w3.org/2000/svg" viewBox="0 0 640 512">
  <path d="M 516 16 L 560 16 L 516 16 L 560 16 L 560 61 L 560 61 Q 560 90 541 110 Q 521 131 492 133 L 441 135 L 441 135 L 443 84 L 443 84 Q 445 55 466 35 Q 486 16 516 16 L 516 16 Z M 516 0 Q 479 0 455 24 L 455 24 L 455 24 Q 430 47 427 84 L 425 136 L 425 136 L 424 140 L 424 140 L 401 164 L 401 164 Q 405 134 396 106 Q 387 77 365 55 L 354 43 L 354 43 L 342 32 L 342 32 L 331 43 L 331 43 L 320 55 L 320 55 Q 300 75 294 100 Q 288 126 296 152 L 331 179 L 331 179 L 331 179 L 331 179 Q 307 154 307 122 Q 307 91 331 66 L 342 55 L 342 55 L 353 66 L 353 66 Q 378 91 384 123 Q 390 155 378 186 L 361 203 L 361 203 L 374 213 L 374 213 L 385 202 L 385 202 Q 417 188 451 193 Q 485 199 512 224 L 523 236 L 523 236 L 512 247 L 512 247 Q 483 274 446 270 L 466 286 L 466 286 Q 498 282 523 258 L 535 247 L 535 247 L 546 236 L 546 236 L 535 224 L 535 224 L 523 213 L 523 213 Q 500 190 470 181 Q 440 172 410 178 L 436 151 L 436 151 L 440 151 L 440 151 L 493 149 L 493 149 Q 529 146 552 121 Q 576 97 576 60 L 576 0 L 576 0 L 516 0 L 516 0 Z M 259 306 L 197 367 L 259 306 L 197 367 Q 202 338 193 309 Q 183 281 161 258 L 150 247 L 150 247 L 139 236 L 139 236 L 127 247 L 127 247 L 116 258 L 116 258 Q 88 288 88 326 Q 88 365 116 394 L 143 421 L 143 421 L 70 495 L 70 495 L 64 501 L 64 501 L 75 512 L 75 512 L 81 506 L 81 506 L 155 433 L 155 433 L 184 462 L 184 462 Q 213 490 252 490 Q 290 490 320 462 L 331 451 L 331 451 L 342 439 L 342 439 L 331 428 L 331 428 L 320 417 L 320 417 Q 296 394 266 385 Q 236 376 206 381 L 272 316 L 272 316 L 259 306 L 259 306 Z M 175 390 L 155 410 L 175 390 L 155 410 L 127 383 L 127 383 Q 104 358 104 326 Q 104 294 127 270 L 138 258 L 138 258 L 150 270 L 150 270 Q 174 295 180 327 Q 187 359 175 390 L 175 390 Z M 182 406 Q 214 391 248 397 L 248 397 L 248 397 Q 282 402 308 428 L 320 439 L 320 439 L 308 450 L 308 450 Q 284 474 252 474 Q 220 474 195 450 L 166 421 L 166 421 L 182 405 L 182 406 Z M 16 5 L 10 0 L 16 5 L 10 0 L 0 13 L 0 13 L 6 18 L 6 18 L 624 507 L 624 507 L 630 512 L 630 512 L 640 500 L 640 500 L 634 495 L 634 495 L 16 5 L 16 5 Z" />
</svg>