<svg xmlns="http://www.w3.org/2000/svg" viewBox="0 0 496 512">
  <path d="M 296 0 L 376 0 L 296 0 L 384 0 L 384 1 L 384 1 L 384 0 L 384 0 L 448 0 L 458 0 L 462 9 L 462 9 L 478 41 L 478 41 L 481 47 L 481 47 L 479 53 L 479 53 L 464 99 L 464 99 L 492 134 L 492 134 L 496 138 L 496 138 L 496 144 L 496 144 L 496 184 L 496 184 L 496 196 L 496 196 L 485 199 L 485 199 L 407 223 L 407 223 L 361 253 L 361 253 L 357 256 L 357 256 L 352 256 L 315 256 L 311 253 L 311 253 L 265 223 L 265 223 L 188 199 L 188 199 L 176 196 L 176 196 L 176 184 L 176 184 L 176 144 L 176 144 L 176 138 L 176 138 L 180 134 L 180 134 L 208 99 L 208 99 L 193 53 L 193 53 L 191 47 L 191 47 L 194 41 L 194 41 L 210 9 L 210 9 L 214 0 L 214 0 L 224 0 L 288 0 L 288 1 L 288 1 L 288 0 L 288 0 L 296 0 L 296 0 Z M 234 32 L 225 49 L 234 32 L 225 49 L 232 69 L 232 69 L 262 32 L 262 32 L 234 32 L 234 32 Z M 447 49 L 438 32 L 447 49 L 438 32 L 410 32 L 410 32 L 440 69 L 440 69 L 447 49 L 447 49 Z M 208 150 L 208 172 L 208 150 L 208 172 L 257 187 L 257 187 L 307 147 L 307 147 Q 318 137 316 123 Q 312 111 302 106 Q 291 101 279 107 L 208 150 L 208 150 L 208 149 L 208 149 L 208 150 L 208 150 Z M 336 93 Q 348 78 367 73 L 367 73 L 367 73 Q 386 69 405 78 L 368 32 L 368 32 L 304 32 L 304 32 L 267 78 L 267 78 Q 286 69 305 73 Q 324 78 336 93 L 336 93 Z M 336 163 Q 332 168 327 172 L 290 201 L 290 201 L 312 215 L 312 215 Q 314 194 336 192 Q 358 194 360 215 L 382 201 L 382 201 L 345 172 L 345 172 Q 340 168 336 163 L 336 163 Z M 415 187 L 464 172 L 415 187 L 464 172 L 464 150 L 464 150 L 464 150 L 464 150 L 464 150 L 464 150 L 393 107 L 393 107 Q 381 101 371 106 Q 360 111 357 123 Q 354 137 365 147 L 415 187 L 415 187 Z M 128 267 Q 147 245 171 228 L 178 230 L 178 230 L 213 241 L 213 241 Q 168 262 140 304 Q 113 346 112 400 L 112 416 L 112 416 L 80 416 L 80 416 L 80 400 L 80 400 Q 80 375 86 352 L 32 352 L 32 352 L 32 400 L 32 400 Q 33 434 55 457 Q 78 479 112 480 L 320 480 L 320 480 Q 320 466 311 457 Q 302 448 288 448 L 240 448 L 224 448 L 224 416 L 224 416 L 240 416 L 288 416 Q 315 417 333 435 Q 351 453 352 480 L 448 480 L 448 480 Q 448 466 439 457 Q 430 448 416 448 L 400 448 L 384 448 L 384 416 L 384 416 L 400 416 L 416 416 Q 443 417 461 435 Q 479 453 480 480 L 480 496 L 480 496 L 480 512 L 480 512 L 464 512 L 112 512 Q 64 511 33 479 Q 1 448 0 400 L 0 48 L 0 48 L 0 32 L 0 32 L 16 32 L 128 32 L 128 48 L 128 48 L 128 267 L 128 267 Z M 448 318 Q 448 280 425 251 L 457 241 L 457 241 Q 480 276 480 318 L 480 336 L 480 336 L 480 346 L 480 346 L 471 350 L 471 350 L 407 382 L 407 382 L 397 388 L 397 388 L 389 379 L 389 379 L 357 347 L 357 347 L 345 336 L 345 336 L 357 325 L 357 325 L 389 293 L 389 293 L 400 281 L 400 281 L 423 304 L 423 304 L 411 315 L 411 315 L 391 336 L 391 336 L 403 349 L 403 349 L 448 326 L 448 326 L 448 318 L 448 318 Z M 96 320 L 96 320 L 96 320 L 96 320 L 96 256 L 96 256 L 32 256 L 32 256 L 32 320 L 32 320 L 96 320 L 96 320 Z M 96 160 L 32 160 L 96 160 L 32 160 L 32 224 L 32 224 L 96 224 L 96 224 L 96 160 L 96 160 Z M 96 128 L 96 64 L 96 128 L 96 64 L 32 64 L 32 64 L 32 128 L 32 128 L 96 128 L 96 128 Z M 315 347 L 283 379 L 315 347 L 283 379 L 275 388 L 275 388 L 265 382 L 265 382 L 201 350 L 201 350 L 186 343 L 186 343 L 201 314 L 201 314 L 215 322 L 215 322 L 269 348 L 269 348 L 281 337 L 281 337 L 243 303 L 243 303 L 231 292 L 231 292 L 252 268 L 252 268 L 264 279 L 264 279 L 315 324 L 315 324 L 327 335 L 327 335 L 315 347 L 315 347 Z M 272 128 Q 273 113 288 112 Q 303 113 304 128 Q 303 143 288 144 Q 273 143 272 128 L 272 128 Z M 384 112 Q 399 113 400 128 Q 399 143 384 144 Q 369 143 368 128 Q 369 113 384 112 L 384 112 Z" />
</svg>