<svg xmlns="http://www.w3.org/2000/svg" viewBox="0 0 448 512">
  <path d="M 89 0 L 96 0 L 89 0 L 359 0 L 360 7 L 360 7 L 389 160 L 389 160 L 373 160 L 373 160 L 345 16 L 345 16 L 103 16 L 103 16 L 75 160 L 75 160 L 59 160 L 59 160 L 88 7 L 88 7 L 89 0 L 89 0 Z M 0 192 L 24 192 L 0 192 L 448 192 L 448 208 L 448 208 L 422 208 L 422 208 L 384 512 L 384 512 L 64 512 L 64 512 L 26 208 L 26 208 L 0 208 L 0 208 L 0 192 L 0 192 Z M 42 208 L 78 496 L 42 208 L 78 496 L 370 496 L 370 496 L 406 208 L 406 208 L 42 208 L 42 208 Z" />
</svg>