<svg xmlns="http://www.w3.org/2000/svg" viewBox="0 0 576 512">
  <path d="M 208 282 L 208 288 L 208 282 L 208 288 L 208 361 L 208 361 L 260 406 L 260 406 Q 264 422 270 436 L 192 368 L 192 368 L 192 288 L 192 288 L 0 64 L 0 64 L 0 16 L 0 16 L 0 0 L 0 0 L 16 0 L 512 0 L 512 16 L 512 16 L 512 64 L 512 64 L 400 195 L 400 195 Q 386 197 372 202 L 496 58 L 496 58 L 496 16 L 496 16 L 16 16 L 16 16 L 16 58 L 16 58 L 204 278 L 204 278 L 208 282 L 208 282 Z M 432 496 Q 467 496 496 479 L 496 479 L 496 479 Q 525 462 543 432 Q 560 402 560 368 Q 560 334 543 304 Q 525 274 496 257 Q 467 240 432 240 Q 397 240 368 257 Q 339 274 321 304 Q 304 334 304 368 Q 304 402 321 432 Q 339 462 368 479 Q 397 496 432 496 L 432 496 Z M 432 224 Q 471 224 504 243 L 504 243 L 504 243 Q 537 262 557 296 Q 576 330 576 368 Q 576 406 557 440 Q 537 474 504 493 Q 471 512 432 512 Q 393 512 360 493 Q 327 474 307 440 Q 288 406 288 368 Q 288 330 307 296 Q 327 262 360 243 Q 393 224 432 224 L 432 224 Z M 404 318 Q 391 324 392 336 Q 392 343 404 349 Q 415 354 433 359 Q 433 359 434 359 L 435 359 L 435 359 Q 453 364 469 371 Q 486 379 488 400 Q 487 424 468 433 Q 454 439 440 440 L 440 458 L 440 458 L 440 466 L 440 466 L 424 466 L 424 466 L 424 458 L 424 458 L 424 440 L 424 440 Q 405 437 388 431 Q 388 431 388 431 Q 388 431 388 431 Q 388 431 388 431 Q 386 430 384 430 Q 383 429 382 429 L 374 427 L 374 427 L 379 412 L 379 412 L 386 414 L 386 414 Q 388 414 389 415 Q 391 415 393 416 Q 393 416 393 416 Q 393 416 393 416 Q 393 416 393 416 Q 393 416 393 416 Q 393 416 393 416 Q 413 423 432 424 Q 447 425 460 419 Q 472 413 472 400 Q 472 391 461 385 Q 449 379 430 375 L 428 374 L 428 374 Q 411 370 396 363 Q 379 356 376 337 Q 377 312 396 304 Q 410 297 424 296 L 424 280 L 424 280 L 424 272 L 424 272 L 440 272 L 440 272 L 440 280 L 440 280 L 440 297 L 440 297 Q 455 298 470 302 L 477 303 L 477 303 L 474 319 L 474 319 L 466 317 L 466 317 Q 449 313 432 312 Q 417 312 403 318 L 404 318 Z" />
</svg>