<svg xmlns="http://www.w3.org/2000/svg" viewBox="0 0 640 512">
  <path d="M 104 0 L 248 0 L 104 0 L 256 0 L 256 16 L 256 16 L 248 16 L 123 16 L 291 184 L 291 184 L 349 184 L 349 184 L 506 26 L 506 26 L 512 21 L 512 21 L 523 32 L 523 32 L 518 38 L 518 38 L 358 198 L 358 198 L 355 200 L 355 200 L 352 200 L 285 200 L 282 198 L 282 198 L 112 27 L 112 27 L 112 152 L 112 152 L 112 160 L 112 160 L 96 160 L 96 160 L 96 152 L 96 152 L 96 8 L 96 8 L 96 0 L 96 0 L 104 0 L 104 0 Z M 416 464 L 416 384 L 416 464 L 416 384 Q 320 353 224 384 L 224 464 L 224 464 L 64 512 L 64 512 L 0 384 L 0 384 Q 19 359 63 325 Q 106 292 171 267 Q 237 241 320 240 Q 403 241 469 267 Q 534 292 577 325 Q 621 359 640 384 L 576 512 L 576 512 L 416 464 L 416 464 Z M 208 384 L 208 373 L 208 384 L 208 373 L 219 369 L 219 369 Q 320 336 421 369 L 432 373 L 432 373 L 432 384 L 432 384 L 432 452 L 432 452 L 568 493 L 568 493 L 621 386 L 621 386 Q 600 361 558 331 Q 517 301 456 279 Q 396 257 320 256 Q 244 257 184 279 Q 123 301 82 331 Q 40 361 19 386 L 72 493 L 72 493 L 208 452 L 208 452 L 208 384 L 208 384 Z" />
</svg>