<svg xmlns="http://www.w3.org/2000/svg" viewBox="0 0 512 448">
  <path d="M 224 0 L 272 64 L 224 0 L 272 64 L 496 64 L 512 64 L 512 80 L 512 80 L 512 432 L 512 432 L 512 448 L 512 448 L 496 448 L 0 448 L 0 432 L 0 432 L 0 16 L 0 16 L 0 0 L 0 0 L 16 0 L 224 0 Z M 272 80 L 264 80 L 272 80 L 264 80 L 259 74 L 259 74 L 216 16 L 216 16 L 16 16 L 16 16 L 16 432 L 16 432 L 496 432 L 496 432 L 496 80 L 496 80 L 272 80 L 272 80 Z M 264 160 L 264 168 L 264 160 L 264 168 L 264 248 L 264 248 L 344 248 L 352 248 L 352 264 L 352 264 L 344 264 L 264 264 L 264 344 L 264 344 L 264 352 L 264 352 L 248 352 L 248 352 L 248 344 L 248 344 L 248 264 L 248 264 L 168 264 L 160 264 L 160 248 L 160 248 L 168 248 L 248 248 L 248 168 L 248 168 L 248 160 L 248 160 L 264 160 L 264 160 Z" />
</svg>