<svg xmlns="http://www.w3.org/2000/svg" viewBox="0 0 512 448">
  <path d="M 16 0 L 16 8 L 16 0 L 16 8 L 16 432 L 16 432 L 504 432 L 512 432 L 512 448 L 512 448 L 504 448 L 0 448 L 0 440 L 0 440 L 0 8 L 0 8 L 0 0 L 0 0 L 16 0 L 16 0 Z M 336 80 L 312 80 L 336 80 L 272 80 L 272 208 L 272 208 L 296 208 L 336 208 L 336 80 L 336 80 Z M 336 64 L 352 64 L 336 64 L 352 64 L 352 80 L 352 80 L 352 208 L 352 208 L 352 224 L 352 224 L 336 224 L 312 224 L 312 280 L 312 280 L 312 288 L 312 288 L 296 288 L 296 288 L 296 280 L 296 280 L 296 224 L 296 224 L 272 224 L 256 224 L 256 208 L 256 208 L 256 80 L 256 80 L 256 64 L 256 64 L 272 64 L 296 64 L 296 8 L 296 8 L 296 0 L 296 0 L 312 0 L 312 0 L 312 8 L 312 8 L 312 64 L 312 64 L 336 64 L 336 64 Z M 440 176 L 424 176 L 440 176 L 400 176 L 400 272 L 400 272 L 424 272 L 464 272 L 464 176 L 464 176 L 440 176 L 440 176 Z M 440 160 L 464 160 L 440 160 L 480 160 L 480 176 L 480 176 L 480 272 L 480 272 L 480 288 L 480 288 L 464 288 L 440 288 L 440 344 L 440 344 L 440 352 L 440 352 L 424 352 L 424 352 L 424 344 L 424 344 L 424 288 L 424 288 L 400 288 L 384 288 L 384 272 L 384 272 L 384 176 L 384 176 L 384 160 L 384 160 L 400 160 L 424 160 L 424 104 L 424 104 L 424 96 L 424 96 L 440 96 L 440 96 L 440 104 L 440 104 L 440 160 L 440 160 Z M 168 112 L 144 112 L 168 112 L 144 112 L 144 272 L 144 272 L 168 272 L 208 272 L 208 112 L 208 112 L 184 112 L 168 112 Z M 168 96 L 168 40 L 168 96 L 168 40 L 168 32 L 168 32 L 184 32 L 184 32 L 184 40 L 184 40 L 184 96 L 184 96 L 208 96 L 224 96 L 224 112 L 224 112 L 224 272 L 224 272 L 224 288 L 224 288 L 208 288 L 184 288 L 184 344 L 184 344 L 184 352 L 184 352 L 168 352 L 168 352 L 168 344 L 168 344 L 168 288 L 168 288 L 144 288 L 128 288 L 128 272 L 128 272 L 128 112 L 128 112 L 128 96 L 128 96 L 144 96 L 168 96 Z" />
</svg>