<svg xmlns="http://www.w3.org/2000/svg" viewBox="0 0 443 507">
  <path d="M 299 272 Q 249 271 214 240 L 203 229 L 203 229 Q 172 194 171 144 Q 172 90 208 53 Q 245 17 299 16 Q 353 17 390 53 Q 426 90 427 144 Q 426 198 390 235 Q 353 271 299 272 L 299 272 Z M 155 144 Q 156 201 192 240 L 67 365 L 67 365 L 56 376 L 56 376 L 5 426 L 5 426 L 0 432 L 0 432 L 5 438 L 5 438 L 69 502 L 69 502 L 75 507 L 75 507 L 86 496 L 86 496 L 81 490 L 81 490 L 22 432 L 22 432 L 67 387 L 67 387 L 125 446 L 125 446 L 131 451 L 131 451 L 142 440 L 142 440 L 137 434 L 137 434 L 78 376 L 78 376 L 203 251 L 203 251 Q 242 287 299 288 Q 360 286 401 246 Q 441 205 443 144 Q 441 83 401 42 Q 360 2 299 0 Q 238 2 197 42 Q 157 83 155 144 L 155 144 Z" />
</svg>