<svg xmlns="http://www.w3.org/2000/svg" viewBox="0 0 634 511">
  <path d="M 182 11 L 219 69 L 182 11 L 219 69 L 287 54 L 287 54 L 299 51 L 299 51 L 296 64 L 296 64 L 280 136 L 280 136 L 265 133 L 265 133 L 278 72 L 278 72 L 217 85 L 217 85 L 212 86 L 212 86 L 209 82 L 209 82 L 175 30 L 175 30 L 141 82 L 141 82 L 138 86 L 138 86 L 133 85 L 133 85 L 72 72 L 72 72 L 85 133 L 85 133 L 87 138 L 87 138 L 82 141 L 82 141 L 30 175 L 30 175 L 82 209 L 82 209 L 86 212 L 86 212 L 85 217 L 85 217 L 72 278 L 72 278 L 133 265 L 133 265 L 136 280 L 136 280 L 64 296 L 64 296 L 51 299 L 51 299 L 54 287 L 54 287 L 68 219 L 68 219 L 11 182 L 11 182 L 0 175 L 0 175 L 11 168 L 11 168 L 69 131 L 69 131 L 54 64 L 54 64 L 52 52 L 52 52 L 64 54 L 64 54 L 131 68 L 131 68 L 168 11 L 168 11 L 175 0 L 175 0 L 182 11 L 182 11 Z M 399 101 L 404 105 L 399 101 L 404 105 L 628 297 L 628 297 L 634 302 L 634 302 L 624 314 L 624 314 L 618 309 L 618 309 L 575 272 L 575 272 L 575 503 L 575 503 L 575 511 L 575 511 L 567 511 L 223 511 L 223 503 L 223 503 L 223 272 L 223 272 L 180 309 L 180 309 L 174 314 L 174 314 L 164 302 L 164 302 L 170 297 L 170 297 L 394 105 L 394 105 L 399 101 L 399 101 Z M 399 122 L 239 259 L 399 122 L 239 259 L 239 495 L 239 495 L 559 495 L 559 495 L 559 259 L 559 259 L 399 122 L 399 122 Z M 343 271 L 455 271 L 343 271 L 463 271 L 463 279 L 463 279 L 463 391 L 463 391 L 463 399 L 463 399 L 455 399 L 335 399 L 335 391 L 335 391 L 335 279 L 335 279 L 335 271 L 335 271 L 343 271 L 343 271 Z M 351 383 L 447 383 L 351 383 L 447 383 L 447 287 L 447 287 L 351 287 L 351 287 L 351 383 L 351 383 Z M 173 126 Q 145 125 130 149 Q 116 173 130 198 Q 145 221 173 221 Q 201 221 216 198 Q 230 173 216 149 Q 201 125 173 126 L 173 126 Z M 237 173 Q 236 209 205 228 Q 173 245 141 228 Q 111 209 109 173 Q 111 137 141 118 Q 173 101 205 118 Q 236 137 237 173 L 237 173 Z" />
</svg>