<svg xmlns="http://www.w3.org/2000/svg" viewBox="0 0 512 512">
  <path d="M 10 461 L 0 512 L 10 461 L 0 512 L 51 502 L 51 502 L 160 480 L 160 480 L 421 219 L 421 219 L 405 203 L 405 203 L 309 107 L 309 107 L 293 91 L 293 91 L 32 352 L 32 352 L 10 461 L 10 461 Z M 315 69 L 331 85 L 315 69 L 331 85 L 427 181 L 427 181 L 443 197 L 443 197 L 478 162 L 478 162 L 512 128 L 512 128 L 478 94 L 478 94 L 418 34 L 418 34 L 384 0 L 384 0 L 350 34 L 350 34 L 315 69 L 315 69 Z M 100 352 L 112 352 L 100 352 L 112 352 L 112 400 L 112 400 L 160 400 L 160 400 L 160 412 L 160 412 L 136 436 L 136 436 L 61 451 L 61 451 L 76 376 L 76 376 L 100 352 L 100 352 Z M 327 176 L 315 187 L 327 176 L 315 187 L 171 331 L 171 331 L 160 343 L 160 343 L 137 320 L 137 320 L 149 309 L 149 309 L 293 165 L 293 165 L 304 153 L 304 153 L 327 176 L 327 176 Z" />
</svg>