<svg xmlns="http://www.w3.org/2000/svg" viewBox="0 0 576 512">
  <path d="M 16 496 L 258 496 L 16 496 L 258 496 L 256 512 L 256 512 L 16 512 L 0 512 L 0 496 L 0 496 L 0 16 L 0 16 L 0 0 L 0 0 L 16 0 L 224 0 L 384 160 L 384 160 L 384 294 L 384 294 L 368 310 L 368 310 L 368 176 L 368 176 L 216 176 L 208 176 L 208 168 L 208 168 L 208 16 L 208 16 L 16 16 L 16 16 L 16 496 L 16 496 Z M 361 160 L 224 23 L 361 160 L 224 23 L 224 160 L 224 160 L 361 160 L 361 160 Z M 499 224 L 510 235 L 499 224 L 510 235 L 565 290 L 565 290 L 576 301 L 576 301 L 565 312 L 565 312 L 379 498 L 379 498 L 305 509 L 305 509 L 288 512 L 288 512 L 291 495 L 291 495 L 302 421 L 302 421 L 499 224 L 499 224 Z M 317 428 L 307 493 L 317 428 L 307 493 L 372 483 L 372 483 L 510 345 L 510 345 L 455 290 L 455 290 L 317 428 L 317 428 Z M 553 301 L 499 246 L 553 301 L 499 246 L 466 279 L 466 279 L 521 334 L 521 334 L 553 301 L 553 301 Z" />
</svg>