<svg xmlns="http://www.w3.org/2000/svg" viewBox="0 0 640 512">
  <path d="M 136 0 L 128 0 L 136 0 L 128 0 L 128 8 L 128 8 L 128 96 L 128 96 L 16 96 L 0 96 L 0 112 L 0 112 L 0 264 L 0 264 L 0 464 L 0 464 L 0 480 L 0 480 L 16 480 L 360 480 Q 354 472 348 464 L 16 464 L 16 464 L 16 272 L 16 272 L 176 272 L 176 272 L 176 336 L 176 336 L 176 352 L 176 352 L 192 352 L 321 352 Q 321 344 323 336 L 192 336 L 192 336 L 192 272 L 192 272 L 349 272 L 349 272 Q 354 264 360 256 L 352 256 L 16 256 L 16 112 L 16 112 L 136 112 L 496 112 L 496 192 L 496 192 Q 504 192 512 193 L 512 112 L 512 112 L 512 96 L 512 96 L 496 96 L 384 96 L 384 8 L 384 8 L 384 0 L 384 0 L 376 0 L 136 0 Z M 368 96 L 144 96 L 368 96 L 144 96 L 144 16 L 144 16 L 368 16 L 368 16 L 368 96 L 368 96 Z M 496 240 Q 531 240 560 257 L 560 257 L 560 257 Q 589 274 607 304 Q 624 334 624 368 Q 624 402 607 432 Q 589 462 560 479 Q 531 496 496 496 Q 461 496 432 479 Q 403 462 385 432 Q 368 402 368 368 Q 368 334 385 304 Q 403 274 432 257 Q 461 240 496 240 L 496 240 Z M 496 512 Q 535 512 568 493 L 568 493 L 568 493 Q 601 474 621 440 Q 640 406 640 368 Q 640 330 621 296 Q 601 262 568 243 Q 535 224 496 224 Q 457 224 424 243 Q 391 262 371 296 Q 352 330 352 368 Q 352 406 371 440 Q 391 474 424 493 Q 457 512 496 512 L 496 512 Z M 504 288 L 488 288 L 504 288 L 488 288 L 488 296 L 488 296 L 488 368 L 488 368 L 488 376 L 488 376 L 496 376 L 560 376 L 560 360 L 560 360 L 552 360 L 504 360 L 504 296 L 504 296 L 504 288 L 504 288 Z" />
</svg>