<svg xmlns="http://www.w3.org/2000/svg" viewBox="0 0 624 496">
  <path d="M 32 10 L 20 0 L 32 10 L 20 0 L 0 25 L 0 25 L 13 35 L 13 35 L 592 486 L 592 486 L 604 496 L 604 496 L 624 471 L 624 471 L 612 461 L 612 461 L 32 10 L 32 10 Z M 371 376 L 56 376 L 371 376 L 56 376 L 56 127 L 56 127 L 24 102 L 24 102 L 24 120 L 24 120 L 24 376 L 24 376 L 24 408 L 24 408 L 56 408 L 411 408 L 371 376 L 371 376 Z M 504 88 L 213 88 L 504 88 L 213 88 L 253 120 L 253 120 L 504 120 L 504 120 L 504 318 L 504 318 L 536 343 L 536 343 L 536 120 L 536 120 L 536 88 L 536 88 L 504 88 L 504 88 Z M 568 184 L 568 216 L 568 184 L 568 216 L 568 280 L 568 280 L 568 312 L 568 312 L 600 312 L 600 312 L 600 280 L 600 280 L 600 216 L 600 216 L 600 184 L 600 184 L 568 184 L 568 184 Z" />
</svg>