<svg xmlns="http://www.w3.org/2000/svg" viewBox="0 0 512 512">
  <path d="M 256 496 Q 321 495 376 464 L 376 464 L 376 464 Q 431 432 464 376 Q 496 319 496 256 Q 496 193 464 136 Q 431 80 376 48 Q 321 17 256 16 Q 191 17 136 48 Q 81 80 48 136 Q 16 193 16 256 Q 16 319 48 376 Q 81 432 136 464 Q 191 495 256 496 L 256 496 Z M 256 0 Q 326 1 384 34 L 384 34 L 384 34 Q 442 68 478 128 Q 512 189 512 256 Q 512 323 478 384 Q 442 444 384 478 Q 326 511 256 512 Q 186 511 128 478 Q 70 444 34 384 Q 0 323 0 256 Q 0 189 34 128 Q 70 68 128 34 Q 186 1 256 0 L 256 0 Z M 352 208 Q 350 223 336 224 Q 321 223 320 208 Q 321 193 336 192 Q 350 193 352 208 L 352 208 Z M 176 192 Q 190 193 192 208 Q 190 223 176 224 Q 161 223 160 208 Q 161 193 176 192 L 176 192 Z M 248 320 L 256 320 L 248 320 L 256 320 Q 327 323 374 387 L 379 394 L 379 394 L 366 403 L 366 403 L 362 397 L 362 397 Q 317 338 256 336 L 248 336 L 248 336 L 248 320 L 248 320 Z M 151 355 Q 145 364 146 375 Q 151 398 175 400 L 177 400 L 177 400 Q 201 398 206 375 Q 207 364 201 355 L 176 317 L 176 317 L 151 354 L 151 355 Z M 138 346 L 166 302 L 138 346 L 166 302 L 176 288 L 176 288 L 186 302 L 186 302 L 214 346 L 214 346 Q 224 360 222 377 Q 219 394 206 405 Q 194 416 177 416 L 175 416 L 175 416 Q 158 416 146 405 Q 133 394 130 377 Q 128 360 138 346 L 138 346 Z" />
</svg>