<svg xmlns="http://www.w3.org/2000/svg" viewBox="0 0 507 439">
  <path d="M 410 17 L 405 11 L 410 17 L 405 11 L 416 0 L 416 0 L 422 5 L 422 5 L 502 85 L 502 85 L 507 91 L 507 91 L 502 97 L 502 97 L 422 177 L 422 177 L 416 183 L 416 183 L 405 171 L 405 171 L 410 165 L 410 165 L 477 99 L 477 99 L 323 99 L 323 99 L 203 219 L 203 219 L 323 339 L 323 339 L 477 339 L 477 339 L 410 273 L 410 273 L 405 267 L 405 267 L 416 256 L 416 256 L 422 261 L 422 261 L 502 341 L 502 341 L 507 347 L 507 347 L 502 353 L 502 353 L 422 433 L 422 433 L 416 439 L 416 439 L 405 427 L 405 427 L 410 421 L 410 421 L 477 355 L 477 355 L 320 355 L 317 355 L 314 353 L 314 353 L 189 227 L 189 227 L 8 227 L 0 227 L 0 211 L 0 211 L 8 211 L 189 211 L 314 85 L 314 85 L 317 83 L 317 83 L 320 83 L 477 83 L 410 17 L 410 17 Z" />
</svg>