<svg xmlns="http://www.w3.org/2000/svg" viewBox="0 0 512 512">
  <path d="M 16 240 L 16 368 L 16 240 L 16 368 L 218 368 L 218 368 L 248 278 L 248 278 L 250 272 L 250 272 L 256 272 L 464 272 L 464 240 L 464 240 Q 463 177 433 127 Q 404 76 353 47 Q 303 17 240 16 Q 177 17 127 47 Q 76 76 47 127 Q 17 177 16 240 L 16 240 Z M 480 240 L 480 272 L 480 240 L 480 272 L 504 272 L 512 272 L 512 288 L 512 288 L 504 288 L 368 288 L 368 496 L 368 496 L 472 496 L 480 496 L 480 512 L 480 512 L 472 512 L 357 512 L 355 510 L 355 510 L 221 384 L 221 384 L 8 384 L 0 384 L 0 376 L 0 376 L 0 240 L 0 240 Q 1 173 33 119 Q 65 65 119 33 Q 173 1 240 0 Q 307 1 361 33 Q 415 65 447 119 Q 479 173 480 240 L 480 240 Z M 262 288 L 233 374 L 262 288 L 233 374 L 352 486 L 352 486 L 352 288 L 352 288 L 262 288 L 262 288 Z M 144 104 L 144 176 L 144 104 L 144 176 Q 144 190 153 199 Q 162 208 176 208 Q 190 208 199 199 Q 208 190 208 176 L 208 104 L 208 104 L 208 96 L 208 96 L 224 96 L 224 96 L 224 104 L 224 104 L 224 176 L 224 176 Q 223 196 210 210 Q 196 223 176 224 Q 156 223 142 210 Q 129 196 128 176 L 128 104 L 128 104 L 128 96 L 128 96 L 144 96 L 144 96 L 144 104 L 144 104 Z M 264 96 L 272 96 L 264 96 L 277 96 L 279 100 L 279 100 L 336 200 L 336 200 L 336 104 L 336 104 L 336 96 L 336 96 L 352 96 L 352 96 L 352 104 L 352 104 L 352 216 L 352 216 L 352 224 L 352 224 L 344 224 L 331 224 L 329 220 L 329 220 L 272 120 L 272 120 L 272 216 L 272 216 L 272 224 L 272 224 L 256 224 L 256 224 L 256 216 L 256 216 L 256 104 L 256 104 L 256 96 L 256 96 L 264 96 L 264 96 Z" />
</svg>