<svg xmlns="http://www.w3.org/2000/svg" viewBox="0 0 512 384">
  <path d="M 496 16 L 496 144 L 496 16 L 496 144 L 320 144 L 320 144 L 320 16 L 320 16 L 496 16 L 496 16 Z M 16 16 L 304 16 L 16 16 L 304 16 L 304 144 L 304 144 L 16 144 L 16 144 L 16 16 L 16 16 Z M 16 0 L 0 0 L 16 0 L 0 0 L 0 16 L 0 16 L 0 144 L 0 144 L 0 160 L 0 160 L 16 160 L 512 160 L 512 144 L 512 144 L 512 16 L 512 16 L 512 0 L 512 0 L 496 0 L 16 0 Z M 496 240 L 496 368 L 496 240 L 496 368 L 192 368 L 192 368 L 192 240 L 192 240 L 496 240 L 496 240 Z M 16 240 L 176 240 L 16 240 L 176 240 L 176 368 L 176 368 L 16 368 L 16 368 L 16 240 L 16 240 Z M 16 224 L 0 224 L 16 224 L 0 224 L 0 240 L 0 240 L 0 368 L 0 368 L 0 384 L 0 384 L 16 384 L 512 384 L 512 368 L 512 368 L 512 240 L 512 240 L 512 224 L 512 224 L 496 224 L 16 224 Z" />
</svg>