<svg xmlns="http://www.w3.org/2000/svg" viewBox="0 0 256 512">
  <path d="M 192 352 L 176 352 L 192 352 L 176 352 L 176 336 L 176 336 L 176 176 L 176 176 L 176 160 L 176 160 L 192 160 L 256 160 L 256 144 L 256 144 L 256 128 L 256 128 L 139 11 L 139 11 L 128 0 L 128 0 L 117 11 L 117 11 L 0 128 L 0 128 L 0 144 L 0 144 L 0 160 L 0 160 L 16 160 L 80 160 L 80 176 L 80 176 L 80 336 L 80 336 L 80 352 L 80 352 L 64 352 L 0 352 L 0 368 L 0 368 L 0 384 L 0 384 L 117 501 L 117 501 L 128 512 L 128 512 L 139 501 L 139 501 L 256 384 L 256 384 L 256 368 L 256 368 L 256 352 L 256 352 L 240 352 L 192 352 Z M 240 368 L 240 377 L 240 368 L 240 377 L 128 489 L 128 489 L 16 377 L 16 377 L 16 368 L 16 368 L 80 368 L 96 368 L 96 352 L 96 352 L 96 160 L 96 160 L 96 144 L 96 144 L 80 144 L 16 144 L 16 135 L 16 135 L 128 23 L 128 23 L 240 135 L 240 135 L 240 144 L 240 144 L 176 144 L 160 144 L 160 160 L 160 160 L 160 352 L 160 352 L 160 368 L 160 368 L 176 368 L 240 368 Z" />
</svg>