<svg xmlns="http://www.w3.org/2000/svg" viewBox="0 0 640 512">
  <path d="M 16 5 L 10 0 L 16 5 L 10 0 L 0 13 L 0 13 L 6 18 L 6 18 L 624 507 L 624 507 L 630 512 L 630 512 L 640 500 L 640 500 L 634 495 L 634 495 L 16 5 L 16 5 Z M 467 464 L 48 464 L 467 464 L 48 464 L 48 133 L 48 133 L 32 120 L 32 120 L 32 464 L 32 464 L 32 480 L 32 480 L 48 480 L 488 480 L 467 464 L 467 464 Z M 592 32 L 153 32 L 592 32 L 153 32 L 173 48 L 173 48 L 592 48 L 592 48 L 592 379 L 592 379 L 608 392 L 608 392 L 608 48 L 608 48 L 608 32 L 608 32 L 592 32 L 592 32 Z M 457 272 L 477 288 L 457 272 L 477 288 L 496 288 L 504 288 L 504 272 L 504 272 L 496 272 L 457 272 Z M 144 272 L 136 272 L 144 272 L 136 272 L 136 288 L 136 288 L 144 288 L 244 288 L 224 272 L 224 272 L 144 272 L 144 272 Z M 304 368 L 296 368 L 304 368 L 296 368 L 296 384 L 296 384 L 304 384 L 366 384 L 346 368 L 346 368 L 304 368 L 304 368 Z M 144 368 L 136 368 L 144 368 L 136 368 L 136 384 L 136 384 L 144 384 L 248 384 L 248 368 L 248 368 L 240 368 L 144 368 Z" />
</svg>