<svg xmlns="http://www.w3.org/2000/svg" viewBox="0 0 480 504">
  <path d="M 363 57 Q 357 35 340 20 L 340 20 L 340 20 Q 324 6 301 3 L 273 0 L 273 0 L 271 16 L 271 16 L 299 19 L 299 19 Q 336 25 347 61 L 352 82 L 352 82 L 368 78 L 368 78 L 363 57 L 363 57 Z M 2 392 Q 5 417 22 434 L 22 434 L 22 434 Q 39 451 64 454 L 79 456 L 79 456 L 81 440 L 81 440 L 66 438 L 66 438 Q 47 436 34 422 Q 20 409 18 390 L 16 375 L 16 375 L 0 377 L 0 377 L 2 392 L 2 392 Z M 117 44 L 111 50 L 117 44 L 111 50 L 55 107 L 55 107 L 49 112 L 49 112 L 55 118 L 55 118 L 72 135 L 72 135 L 21 186 L 21 186 L 15 192 L 15 192 L 21 197 L 21 197 L 60 237 L 60 237 L 9 288 L 9 288 L 4 293 L 4 293 L 9 299 L 9 299 L 161 452 L 161 452 Q 207 497 272 503 L 272 504 L 272 504 L 280 504 L 295 504 Q 373 503 426 451 Q 478 399 480 320 L 480 136 L 480 136 L 480 96 L 480 96 L 480 88 L 480 88 L 472 88 L 384 88 L 384 96 L 384 96 L 384 136 L 384 136 L 384 198 L 384 198 L 202 16 L 202 16 L 196 10 L 196 10 L 190 16 L 190 16 L 140 67 L 140 67 L 123 50 L 123 50 L 117 44 L 117 44 Z M 151 78 L 196 33 L 151 78 L 196 33 L 386 223 L 386 223 L 400 237 L 400 237 L 400 218 L 400 218 L 400 136 L 400 136 L 400 104 L 400 104 L 464 104 L 464 104 L 464 136 L 464 136 L 464 320 L 464 320 Q 462 392 414 439 Q 367 487 295 488 L 284 488 L 280 488 Q 217 484 172 440 L 26 293 L 26 293 L 72 248 L 72 248 L 73 249 L 73 249 L 173 349 L 173 349 L 178 355 L 178 355 L 190 343 L 190 343 L 184 338 L 184 338 L 84 238 L 84 238 L 78 232 L 78 232 Q 78 232 78 232 Q 78 232 78 232 L 77 231 L 77 231 L 38 191 L 38 191 L 83 146 L 83 146 L 86 150 L 86 150 L 92 155 L 92 155 L 167 231 L 167 231 L 171 234 L 171 234 L 229 292 L 229 292 L 235 298 L 235 298 L 246 287 L 246 287 L 241 281 L 241 281 L 188 229 L 188 229 Q 188 229 188 229 Q 188 229 188 229 L 179 219 L 179 219 L 72 112 L 72 112 L 117 67 L 117 67 L 143 93 L 143 93 Q 143 93 143 93 L 149 99 L 149 99 L 286 236 L 286 236 L 291 241 L 291 241 L 303 230 L 303 230 L 297 224 L 297 224 L 279 207 L 279 207 Q 279 207 279 207 Q 279 207 279 207 L 269 197 L 269 197 L 151 78 L 151 78 Z" />
</svg>