<svg xmlns="http://www.w3.org/2000/svg" viewBox="0 0 640 512">
  <path d="M 630 35 L 581 205 L 630 35 L 581 205 Q 580 204 579 203 Q 607 228 623 262 Q 640 296 640 336 Q 638 411 588 460 Q 539 510 464 512 L 224 512 L 224 512 Q 156 510 111 465 Q 66 420 64 352 L 64 253 L 64 253 L 7 213 L 7 213 L 0 208 L 0 208 L 0 200 L 0 200 L 0 112 L 0 112 L 0 101 L 0 101 L 0 81 L 0 81 L 16 93 L 16 93 L 25 99 L 25 99 L 96 149 L 96 149 L 167 99 L 167 99 L 176 93 L 176 93 L 192 81 L 192 81 L 192 101 L 192 101 L 192 112 L 192 112 L 192 200 L 192 200 L 192 208 L 192 208 L 185 213 L 185 213 L 128 253 L 128 253 L 128 347 L 128 347 L 128 368 L 128 368 L 144 355 L 144 355 L 323 210 L 323 210 Q 384 161 463 160 Q 477 160 491 162 L 616 27 L 616 27 L 640 0 L 640 0 L 630 35 L 630 35 Z M 509 166 Q 541 175 567 194 L 606 61 L 606 61 L 509 166 L 509 166 Z M 96 168 L 87 162 L 96 168 L 87 162 L 16 112 L 16 112 L 16 200 L 16 200 L 73 240 L 73 240 L 80 245 L 80 245 L 80 253 L 80 253 L 80 352 L 80 352 Q 82 413 122 454 Q 163 494 224 496 L 464 496 L 464 496 Q 532 494 577 449 Q 622 404 624 336 Q 622 268 577 223 Q 531 178 463 176 Q 390 177 333 222 L 138 380 L 138 380 L 112 402 L 112 402 L 112 368 L 112 368 L 112 253 L 112 253 L 112 245 L 112 245 L 119 240 L 119 240 L 176 200 L 176 200 L 176 112 L 176 112 L 105 162 L 105 162 L 96 168 L 96 168 Z M 480 304 Q 481 289 496 288 Q 511 289 512 304 Q 511 319 496 320 Q 481 319 480 304 L 480 304 Z" />
</svg>