<svg xmlns="http://www.w3.org/2000/svg" viewBox="0 0 576 384">
  <path d="M 96 62 Q 103 67 113 73 Q 128 82 148 89 Q 168 96 192 96 Q 216 96 236 89 Q 256 81 271 73 Q 281 67 288 62 Q 295 67 305 73 Q 320 82 340 89 Q 360 96 384 96 Q 408 96 428 89 Q 448 81 463 73 Q 473 67 480 62 Q 487 67 497 73 Q 512 82 532 89 Q 552 96 576 96 L 576 48 L 576 48 Q 546 46 521 31 Q 499 18 481 1 Q 481 1 481 0 L 480 0 L 479 0 Q 479 1 479 1 Q 461 18 439 31 Q 414 46 384 48 Q 353 46 329 31 Q 307 18 289 1 Q 289 1 289 0 L 288 0 L 287 0 Q 287 1 287 1 Q 269 18 247 31 Q 222 46 192 48 Q 161 46 137 31 Q 115 18 98 1 Q 97 1 96 0 L 96 0 L 96 0 L 96 0 L 96 0 Q 96 0 96 0 Q 96 0 96 0 Q 95 0 95 1 Q 77 18 55 31 Q 30 46 0 48 L 0 96 L 0 96 Q 24 96 44 89 Q 64 81 79 73 Q 89 67 96 62 L 96 62 Z M 96 350 Q 103 355 113 361 Q 128 370 148 377 Q 168 384 192 384 Q 216 384 236 377 Q 256 369 271 361 Q 281 355 288 350 Q 295 355 305 361 Q 320 370 340 377 Q 360 384 384 384 Q 408 384 428 377 Q 448 369 463 361 Q 473 355 480 350 Q 487 355 497 361 Q 512 370 532 377 Q 552 384 576 384 L 576 336 L 576 336 Q 546 334 521 319 Q 499 306 481 289 Q 481 289 481 288 L 480 288 L 479 288 Q 479 288 479 288 Q 479 288 479 288 Q 479 289 479 289 Q 461 306 439 319 Q 414 334 384 336 Q 353 334 329 319 Q 307 306 289 289 Q 289 289 289 288 L 288 288 L 287 288 Q 287 289 287 289 Q 269 306 247 319 Q 222 334 192 336 Q 161 334 137 319 Q 115 306 98 289 Q 97 289 96 288 L 96 288 L 96 288 L 96 288 L 96 288 Q 96 288 96 288 Q 96 288 96 288 Q 95 288 95 289 Q 77 306 55 319 Q 30 334 0 336 L 0 384 L 0 384 Q 24 384 44 377 Q 64 369 79 361 Q 89 355 96 350 L 96 350 Z M 79 217 Q 89 211 96 206 Q 103 211 113 217 Q 127 226 148 233 Q 168 240 192 240 Q 216 240 236 233 Q 256 225 271 217 Q 281 211 288 206 Q 295 211 305 217 Q 319 226 340 233 Q 360 240 384 240 Q 408 240 428 233 Q 448 225 463 217 Q 473 211 480 206 Q 487 211 497 217 Q 512 226 532 233 Q 552 240 576 240 L 576 192 L 576 192 Q 545 190 521 175 Q 499 162 481 145 Q 481 145 481 144 L 480 144 L 479 144 Q 479 145 479 145 Q 461 162 439 175 Q 414 190 384 192 Q 353 190 329 175 Q 307 162 289 145 Q 289 145 289 144 L 288 144 L 287 144 Q 287 145 287 145 Q 269 162 247 175 Q 222 190 192 192 Q 161 190 137 175 Q 115 162 97 145 Q 97 145 96 144 L 96 144 L 96 144 L 95 144 L 95 144 Q 95 144 95 145 Q 77 162 55 175 Q 31 190 0 192 L 0 240 L 0 240 Q 24 240 44 233 Q 64 225 79 217 L 79 217 Z" />
</svg>