<svg xmlns="http://www.w3.org/2000/svg" viewBox="0 0 512 512">
  <path d="M 51.2 128 Q 40 128 32.8 135.2 L 32.8 135.2 Q 25.6 142.4 25.6 153.6 Q 27.2 173.6 46.4 178.4 Q 57.6 159.2 74.4 143.2 Q 68 128.8 51.2 128 L 51.2 128 Z M 35.2 202.4 Q 20 196.8 9.6 184 L 9.6 184 Q 0 171.2 0 153.6 Q 0.8 132 15.2 117.6 Q 29.6 103.2 51.2 102.4 Q 80.8 104 95.2 127.2 Q 132 103.2 179.2 102.4 Q 227.2 103.2 264 128 Q 273.6 134.4 281.6 141.6 L 344 189.6 L 332.8 230.4 L 358.4 249.6 L 393.6 228.8 L 492 304 L 512 320 L 495.2 339.2 L 435.2 409.6 L 304.8 344.8 Q 284 374.4 251.2 392 Q 218.4 409.6 179.2 409.6 Q 113.6 408 70.4 364.8 Q 27.2 321.6 25.6 256 Q 25.6 227.2 35.2 202.4 L 35.2 202.4 Z M 392 259.2 L 372 271.2 L 356.8 280.8 L 343.2 270.4 L 317.6 251.2 L 303.2 240.8 L 308 224 L 314.4 199.2 L 266.4 161.6 L 265.6 161.6 L 264.8 160.8 Q 257.6 154.4 249.6 149.6 L 264 128 L 249.6 149.6 Q 219.2 128.8 179.2 128 Q 124.8 129.6 88.8 165.6 Q 52.8 201.6 51.2 256 Q 52.8 310.4 88.8 346.4 Q 124.8 382.4 179.2 384 Q 212 384 239.2 368.8 Q 266.4 354.4 284 329.6 L 296.8 312 L 316 321.6 L 428.8 377.6 L 475.2 324 L 392 259.2 L 392 259.2 Z M 179.2 230.4 Q 168 230.4 160.8 237.6 L 160.8 237.6 Q 153.6 244.8 153.6 256 Q 153.6 267.2 160.8 274.4 Q 168 281.6 179.2 281.6 Q 190.4 281.6 197.6 274.4 Q 204.8 267.2 204.8 256 Q 204.8 244.8 197.6 237.6 Q 190.4 230.4 179.2 230.4 L 179.2 230.4 Z M 230.4 256 Q 229.6 284.8 204.8 300 Q 179.2 314.4 153.6 300 Q 128.8 284.8 128 256 Q 128.8 227.2 153.6 212 Q 179.2 197.6 204.8 212 Q 229.6 227.2 230.4 256 L 230.4 256 Z" />
</svg>