<svg xmlns="http://www.w3.org/2000/svg" viewBox="0 0 640 512">
  <path d="M 8 0 L 0 0 L 8 0 L 0 0 L 0 16 L 0 16 L 8 16 L 58 16 L 152 378 L 152 378 L 154 384 L 154 384 L 160 384 L 321 384 Q 320 376 320 368 L 166 368 L 166 368 L 145 288 L 145 288 L 339 288 L 339 288 Q 343 280 349 272 L 141 272 L 141 272 L 83 48 L 83 48 L 554 48 L 554 48 L 509 193 L 509 193 Q 517 193 525 194 L 571 48 L 571 48 L 576 32 L 576 32 L 559 32 L 79 32 L 72 6 L 72 6 L 70 0 L 70 0 L 64 0 L 8 0 Z M 176 432 Q 190 432 199 441 L 199 441 L 199 441 Q 208 450 208 464 Q 208 478 199 487 Q 190 496 176 496 Q 162 496 153 487 Q 144 478 144 464 Q 144 450 153 441 Q 162 432 176 432 L 176 432 Z M 176 512 Q 203 511 218 488 Q 230 464 218 440 Q 203 417 176 416 Q 149 417 134 440 Q 122 464 134 488 Q 149 511 176 512 L 176 512 Z M 368 368 Q 368 333 385 304 L 385 304 L 385 304 Q 402 275 432 257 Q 462 240 496 240 Q 530 240 560 257 Q 590 275 607 304 Q 624 333 624 368 Q 624 403 607 432 Q 590 461 560 479 Q 530 496 496 496 Q 462 496 432 479 Q 402 461 385 432 Q 368 403 368 368 L 368 368 Z M 640 368 Q 640 329 621 296 L 621 296 L 621 296 Q 602 263 568 243 Q 534 224 496 224 Q 458 224 424 243 Q 390 263 371 296 Q 352 329 352 368 Q 352 407 371 440 Q 390 473 424 493 Q 458 512 496 512 Q 534 512 568 493 Q 602 473 621 440 Q 640 407 640 368 L 640 368 Z M 421 360 L 432 371 L 421 360 L 432 371 L 438 366 L 438 366 L 488 315 L 488 315 L 488 440 L 488 440 L 488 448 L 488 448 L 504 448 L 504 448 L 504 440 L 504 440 L 504 315 L 504 315 L 554 366 L 554 366 L 560 371 L 560 371 L 571 360 L 571 360 L 566 354 L 566 354 L 502 290 L 502 290 L 496 285 L 496 285 L 490 290 L 490 290 L 426 354 L 426 354 L 420 360 L 421 360 Z" />
</svg>