<svg xmlns="http://www.w3.org/2000/svg" viewBox="0 0 512 512">
  <path d="M 496 256 Q 496 227 489 200 L 432 200 L 432 200 Q 432 204 432 208 Q 431 245 406 270 Q 381 295 344 296 Q 333 296 323 294 L 326 298 L 326 298 L 356 313 L 356 313 L 360 315 L 360 315 L 360 320 L 360 320 L 360 352 L 360 352 L 360 357 L 360 357 L 356 359 L 356 359 L 333 371 L 333 371 L 358 403 L 358 403 L 363 409 L 363 409 L 351 419 L 351 419 L 346 413 L 346 413 L 318 378 L 318 378 L 298 388 L 298 388 L 311 421 L 311 421 L 314 428 L 314 428 L 300 434 L 300 434 L 297 427 L 297 427 L 284 395 L 284 395 L 264 405 L 264 405 L 264 432 L 264 432 L 264 440 L 264 440 L 248 440 L 248 440 L 248 432 L 248 432 L 248 405 L 248 405 L 228 395 L 228 395 L 215 427 L 215 427 L 212 434 L 212 434 L 198 429 L 198 429 L 201 421 L 201 421 L 214 388 L 214 388 L 194 378 L 194 378 L 166 413 L 166 413 L 161 419 L 161 419 L 149 409 L 149 409 L 154 403 L 154 403 L 180 371 L 180 371 L 156 359 L 156 359 L 152 357 L 152 357 L 152 352 L 152 352 L 152 320 L 152 320 L 152 315 L 152 315 L 156 313 L 156 313 L 186 298 L 186 298 L 189 294 L 189 294 Q 179 296 168 296 Q 131 295 106 270 Q 81 245 80 208 Q 80 204 80 200 L 23 200 L 23 200 Q 16 227 16 256 Q 17 323 49 377 Q 81 431 135 463 Q 189 495 256 496 Q 323 495 377 463 Q 431 431 463 377 Q 495 323 496 256 L 496 256 Z M 240 206 Q 238 176 218 156 L 218 156 L 218 156 Q 198 137 168 136 Q 137 137 117 157 Q 97 177 96 208 Q 97 239 117 259 Q 137 279 168 280 Q 184 280 197 274 Q 199 273 201 273 L 240 206 L 240 206 Z M 208 130 Q 249 152 256 200 L 256 200 L 256 200 Q 263 152 304 130 L 297 116 L 297 116 L 293 108 L 293 108 L 308 101 L 308 101 L 311 108 L 311 108 L 319 124 L 319 124 Q 331 120 344 120 L 344 96 L 344 96 L 344 88 L 344 88 L 360 88 L 360 88 L 360 96 L 360 96 L 360 121 L 360 121 Q 374 124 386 131 L 393 116 L 393 116 L 396 109 L 396 109 L 411 116 L 411 116 L 407 124 L 407 124 L 399 140 L 399 140 Q 421 157 429 184 L 485 184 L 485 184 Q 461 110 399 63 Q 338 17 256 16 Q 174 17 113 63 Q 51 110 27 184 L 83 184 L 83 184 Q 91 157 113 140 L 105 124 L 105 124 L 101 116 L 101 116 L 116 109 L 116 109 L 119 116 L 119 116 L 126 131 L 126 131 Q 138 124 152 121 L 152 96 L 152 96 L 152 88 L 152 88 L 168 88 L 168 88 L 168 96 L 168 96 L 168 120 L 168 120 Q 181 120 193 124 L 201 109 L 201 109 L 204 101 L 204 101 L 219 109 L 219 109 L 215 116 L 215 116 L 208 130 L 208 130 Z M 344 136 Q 314 137 294 156 L 294 156 L 294 156 Q 274 176 272 206 L 311 273 L 311 273 Q 313 273 315 274 Q 328 280 344 280 Q 375 279 395 259 Q 415 239 416 208 Q 415 177 395 157 Q 375 137 344 136 L 344 136 Z M 0 256 Q 1 186 34 128 L 34 128 L 34 128 Q 68 70 128 34 Q 189 0 256 0 Q 323 0 384 34 Q 444 70 478 128 Q 511 186 512 256 Q 511 326 478 384 Q 444 442 384 478 Q 323 512 256 512 Q 189 512 128 478 Q 68 442 34 384 Q 1 326 0 256 L 0 256 Z M 253 216 L 199 308 L 253 216 L 199 308 L 198 310 L 198 310 L 196 311 L 196 311 L 168 325 L 168 325 L 168 347 L 168 347 L 256 391 L 256 391 L 344 347 L 344 347 L 344 325 L 344 325 L 316 311 L 316 311 L 314 310 L 314 310 L 313 308 L 313 308 L 259 216 L 259 216 L 253 216 L 253 216 Z M 160 208 Q 161 193 176 192 Q 191 193 192 208 Q 191 223 176 224 Q 161 223 160 208 L 160 208 Z M 336 192 Q 351 193 352 208 Q 351 223 336 224 Q 321 223 320 208 Q 321 193 336 192 L 336 192 Z" />
</svg>