<svg xmlns="http://www.w3.org/2000/svg" viewBox="0 0 512 512">
  <path d="M 384 83 Q 354 108 323 95 L 323 95 L 323 95 Q 291 82 288 44 L 288 16 L 288 16 L 288 0 L 288 0 L 272 0 L 224 0 L 224 16 L 224 16 L 224 44 L 224 44 Q 221 82 189 95 Q 158 108 128 83 L 109 64 L 109 64 L 98 52 L 98 52 L 86 64 L 86 64 L 75 75 L 75 75 L 64 86 L 64 86 L 52 98 L 52 98 L 64 109 L 64 109 L 83 128 L 83 128 Q 108 158 95 189 Q 82 221 44 224 L 16 224 L 0 224 L 0 240 L 0 240 L 0 272 L 0 272 L 0 288 L 0 288 L 16 288 L 44 288 Q 82 291 95 323 Q 108 354 83 384 L 64 403 L 64 403 L 52 414 L 52 414 L 64 426 L 64 426 L 75 437 L 75 437 L 86 448 L 86 448 L 98 460 L 98 460 L 109 448 L 109 448 L 128 429 L 128 429 Q 128 429 128 429 Q 128 429 128 429 Q 158 403 189 417 Q 221 430 224 468 L 224 496 L 224 496 L 224 512 L 224 512 L 240 512 L 288 512 L 288 496 L 288 496 L 288 468 L 288 468 Q 291 430 323 417 Q 354 403 384 429 L 403 448 L 403 448 L 414 460 L 414 460 L 426 448 L 426 448 L 448 426 L 448 426 L 460 414 L 460 414 L 448 403 L 448 403 L 429 384 L 429 384 Q 403 354 417 323 Q 430 291 468 288 L 496 288 L 512 288 L 512 272 L 512 272 L 512 240 L 512 240 L 512 224 L 512 224 L 496 224 L 468 224 Q 430 221 417 189 Q 403 158 429 128 L 448 109 L 448 109 L 460 98 L 460 98 L 448 86 L 448 86 L 426 64 L 426 64 L 414 52 L 414 52 L 403 64 L 403 64 L 384 83 L 384 83 Z M 414 75 L 437 98 L 414 75 L 437 98 L 418 117 L 418 117 Q 395 141 396 169 Q 397 197 417 218 Q 436 239 469 240 L 496 240 L 496 240 L 496 272 L 496 272 L 469 272 L 469 272 Q 436 273 417 294 Q 397 315 396 343 Q 395 371 418 395 L 437 414 L 437 414 L 414 437 L 414 437 L 395 418 L 395 418 Q 371 395 343 396 Q 315 397 294 417 Q 273 436 272 469 L 272 496 L 272 496 L 240 496 L 240 496 L 240 469 L 240 469 Q 239 436 218 417 Q 197 397 169 396 Q 141 395 117 418 Q 117 418 117 418 Q 117 418 117 418 Q 117 418 117 418 L 98 437 L 98 437 L 86 426 L 86 426 L 75 414 L 75 414 L 95 395 L 95 395 Q 117 371 116 343 Q 115 315 95 294 Q 76 273 44 272 L 16 272 L 16 272 L 16 240 L 16 240 L 44 240 L 44 240 Q 76 239 95 218 Q 115 197 116 169 Q 117 141 94 117 Q 94 117 94 117 L 75 98 L 75 98 L 86 86 L 86 86 L 98 75 L 98 75 L 117 95 L 117 95 Q 141 117 169 116 Q 197 115 218 95 Q 239 76 240 44 L 240 16 L 240 16 L 272 16 L 272 16 L 272 44 L 272 44 Q 273 76 294 95 Q 315 115 343 116 Q 371 117 395 94 Q 395 94 395 94 L 414 75 L 414 75 Z M 224 192 Q 238 192 247 201 L 247 201 L 247 201 Q 256 210 256 224 Q 256 238 247 247 Q 238 256 224 256 Q 210 256 201 247 Q 192 238 192 224 Q 192 210 201 201 Q 210 192 224 192 L 224 192 Z M 224 272 Q 251 271 266 248 Q 278 224 266 200 Q 251 177 224 176 Q 197 177 182 200 Q 170 224 182 248 Q 197 271 224 272 L 224 272 Z M 304 320 Q 319 319 320 304 Q 319 289 304 288 Q 289 289 288 304 Q 289 319 304 320 L 304 320 Z" />
</svg>