<svg xmlns="http://www.w3.org/2000/svg" viewBox="0 0 512 510">
  <path d="M 501 17 L 509 15 L 501 17 L 509 15 L 505 0 L 505 0 L 497 2 L 497 2 L 6 118 L 6 118 L 0 120 L 0 120 L 0 126 L 0 126 Q 0 126 0 126 Q 0 126 0 126 L 0 142 L 0 142 L 0 238 L 0 238 L 0 246 L 0 246 L 0 494 L 0 494 L 0 510 L 0 510 L 16 510 L 512 510 L 512 494 L 512 494 L 512 142 L 512 142 L 512 126 L 512 126 L 496 126 L 43 126 L 501 17 L 501 17 Z M 16 142 L 496 142 L 16 142 L 496 142 L 496 494 L 496 494 L 16 494 L 16 494 L 16 246 L 16 246 L 16 238 L 16 238 L 16 142 L 16 142 Z M 352 398 Q 307 397 283 358 Q 261 318 283 278 Q 307 239 352 238 Q 397 239 421 278 Q 443 318 421 358 Q 397 397 352 398 L 352 398 Z M 352 222 Q 326 222 304 235 L 304 235 L 304 235 Q 282 248 269 270 Q 256 293 256 318 Q 256 343 269 366 Q 282 388 304 401 Q 326 414 352 414 Q 378 414 400 401 Q 422 388 435 366 Q 448 343 448 318 Q 448 293 435 270 Q 422 248 400 235 Q 378 222 352 222 L 352 222 Z M 88 238 L 80 238 L 88 238 L 80 238 L 80 254 L 80 254 L 88 254 L 208 254 L 208 238 L 208 238 L 200 238 L 88 238 Z M 72 310 L 64 310 L 72 310 L 64 310 L 64 326 L 64 326 L 72 326 L 224 326 L 224 310 L 224 310 L 216 310 L 72 310 Z M 88 382 L 80 382 L 88 382 L 80 382 L 80 398 L 80 398 L 88 398 L 208 398 L 208 382 L 208 382 L 200 382 L 88 382 Z" />
</svg>