<svg xmlns="http://www.w3.org/2000/svg" viewBox="0 0 640 512">
  <path d="M 534 0 L 383 51 L 534 0 L 383 51 Q 378 29 361 14 Q 344 0 321 0 Q 294 1 275 19 Q 257 37 257 64 Q 257 79 263 91 L 102 144 L 102 144 L 95 147 L 95 147 L 100 162 L 100 162 L 107 160 L 107 160 L 271 105 L 271 105 Q 287 124 313 127 L 313 504 L 313 504 L 313 512 L 313 512 L 321 512 L 545 512 L 545 496 L 545 496 L 537 496 L 329 496 L 329 128 L 329 128 Q 352 124 368 108 Q 383 91 385 67 L 539 16 L 539 16 L 534 0 L 534 0 Z M 321 16 Q 348 17 362 40 Q 375 64 362 88 Q 348 111 321 112 Q 293 111 279 88 Q 266 64 279 40 Q 293 17 321 16 L 321 16 Z M 503 81 L 384 271 L 503 81 L 384 271 L 384 311 L 384 311 L 457 384 L 457 384 L 567 384 L 567 384 L 640 311 L 640 311 L 640 271 L 640 271 L 522 81 L 522 81 L 513 66 L 513 66 L 503 81 L 503 81 Z M 622 272 L 402 272 L 622 272 L 402 272 L 513 96 L 513 96 L 622 272 L 622 272 Z M 624 288 L 624 304 L 624 288 L 624 304 L 560 368 L 560 368 L 464 368 L 464 368 L 400 304 L 400 304 L 400 288 L 400 288 L 624 288 L 624 288 Z M 129 192 L 119 207 L 129 192 L 119 207 L 0 397 L 0 397 L 0 437 L 0 437 L 74 510 L 74 510 L 183 510 L 183 510 L 256 437 L 256 437 L 256 397 L 256 397 L 138 207 L 138 207 L 129 192 L 129 192 Z M 129 222 L 238 398 L 129 222 L 238 398 L 18 398 L 18 398 L 129 222 L 129 222 Z M 240 430 L 176 494 L 240 430 L 176 494 L 80 494 L 80 494 L 16 430 L 16 430 L 16 414 L 16 414 L 240 414 L 240 414 L 240 430 L 240 430 Z" />
</svg>