<svg xmlns="http://www.w3.org/2000/svg" viewBox="0 0 448 448">
  <path d="M 16 432 L 16 16 L 16 432 L 16 16 L 432 16 L 432 16 L 432 432 L 432 432 L 16 432 L 16 432 Z M 0 448 L 16 448 L 0 448 L 448 448 L 448 432 L 448 432 L 448 16 L 448 16 L 448 0 L 448 0 L 432 0 L 0 0 L 0 16 L 0 16 L 0 432 L 0 432 L 0 448 L 0 448 Z M 112 112 L 144 112 L 112 112 L 144 112 L 144 128 L 144 128 L 144 256 L 144 256 L 144 272 L 144 272 L 112 272 L 112 272 L 112 256 L 112 256 L 112 128 L 112 128 L 112 112 L 112 112 Z M 160 256 L 160 128 L 160 256 L 160 128 L 160 112 L 160 112 L 160 96 L 160 96 L 144 96 L 96 96 L 96 112 L 96 112 L 96 128 L 96 128 L 96 256 L 96 256 L 96 272 L 96 272 L 96 288 L 96 288 L 112 288 L 160 288 L 160 272 L 160 272 L 160 256 L 160 256 Z M 336 128 L 336 320 L 336 128 L 336 320 L 336 336 L 336 336 L 304 336 L 304 336 L 304 320 L 304 320 L 304 128 L 304 128 L 304 112 L 304 112 L 336 112 L 336 112 L 336 128 L 336 128 Z M 352 96 L 336 96 L 352 96 L 288 96 L 288 112 L 288 112 L 288 128 L 288 128 L 288 320 L 288 320 L 288 336 L 288 336 L 288 352 L 288 352 L 304 352 L 352 352 L 352 336 L 352 336 L 352 320 L 352 320 L 352 128 L 352 128 L 352 112 L 352 112 L 352 96 L 352 96 Z M 240 128 L 240 192 L 240 128 L 240 192 L 240 208 L 240 208 L 208 208 L 208 208 L 208 192 L 208 192 L 208 128 L 208 128 L 208 112 L 208 112 L 240 112 L 240 112 L 240 128 L 240 128 Z M 256 128 L 256 112 L 256 128 L 256 112 L 256 96 L 256 96 L 240 96 L 192 96 L 192 112 L 192 112 L 192 128 L 192 128 L 192 192 L 192 192 L 192 208 L 192 208 L 192 224 L 192 224 L 208 224 L 256 224 L 256 208 L 256 208 L 256 192 L 256 192 L 256 128 L 256 128 Z" />
</svg>