<svg xmlns="http://www.w3.org/2000/svg" viewBox="0 0 384 512">
  <path d="M 0 0 L 8 0 L 0 0 L 384 0 L 384 8 L 384 8 L 384 504 L 384 504 L 384 512 L 384 512 L 376 512 L 0 512 L 0 504 L 0 504 L 0 8 L 0 8 L 0 0 L 0 0 Z M 16 483 L 182 256 L 16 483 L 182 256 L 16 30 L 16 30 L 16 482 L 16 483 Z M 26 496 L 358 496 L 26 496 L 358 496 L 192 270 L 192 270 L 26 496 L 26 496 Z M 202 256 L 368 483 L 202 256 L 368 483 L 368 30 L 368 30 L 202 256 L 202 256 Z M 358 16 L 26 16 L 358 16 L 26 16 L 192 243 L 192 243 L 358 16 L 358 16 Z" />
</svg>