<svg xmlns="http://www.w3.org/2000/svg" viewBox="0 0 640 512">
  <path d="M 352 80 Q 353 46 375 23 L 375 23 L 375 23 Q 398 1 432 0 L 504 0 L 507 0 L 510 2 L 510 2 L 547 40 L 547 40 L 568 40 L 568 40 Q 599 41 619 61 Q 639 81 640 112 L 640 184 L 640 184 L 640 192 L 640 192 L 632 192 L 603 192 L 574 222 L 574 222 L 571 224 L 571 224 L 568 224 L 475 224 L 424 272 L 424 272 L 468 297 L 468 297 L 472 299 L 472 299 L 472 304 L 472 304 L 472 336 L 472 336 L 472 344 L 472 344 L 456 344 L 456 344 L 456 336 L 456 336 L 456 309 L 456 309 L 411 283 L 411 283 L 411 284 L 411 284 Q 408 276 404 268 L 467 210 L 467 210 L 469 208 L 469 208 L 472 208 L 565 208 L 581 192 L 581 192 L 544 192 L 541 192 L 538 190 L 538 190 L 509 160 L 509 160 L 480 160 L 472 160 L 472 144 L 472 144 L 480 144 L 515 144 L 518 146 L 518 146 L 547 176 L 547 176 L 597 176 L 624 176 L 624 112 L 624 112 Q 623 88 608 72 Q 592 57 568 56 L 544 56 L 541 56 L 538 54 L 538 54 L 501 16 L 501 16 L 432 16 L 432 16 Q 405 17 387 35 Q 369 53 368 80 L 368 88 L 368 88 L 368 92 L 368 92 L 365 94 L 365 94 L 309 142 L 309 142 L 307 144 L 307 144 L 304 144 L 264 144 Q 213 145 179 179 Q 145 213 144 264 L 144 288 L 144 288 L 144 296 L 144 296 L 136 296 L 83 296 L 81 292 L 81 292 L 36 202 L 36 202 L 31 212 L 31 212 Q 16 242 16 276 Q 17 332 55 369 Q 92 407 148 408 L 208 408 L 208 408 L 208 360 L 208 360 L 208 352 L 208 352 L 224 352 L 224 352 L 224 360 L 224 360 L 224 413 L 224 413 L 300 496 L 300 496 L 400 496 L 400 496 L 400 480 L 400 480 Q 400 466 391 457 Q 382 448 368 448 L 360 448 L 354 448 L 352 442 L 352 442 L 336 386 L 336 386 L 335 383 L 335 383 L 337 380 L 337 380 L 368 318 L 368 318 Q 367 288 346 269 Q 326 249 296 248 L 288 248 L 288 248 L 288 232 L 288 232 L 296 232 L 296 232 Q 333 233 358 258 Q 383 283 384 320 L 384 322 L 384 322 L 383 324 L 383 324 L 353 385 L 353 385 L 366 432 L 366 432 L 368 432 L 368 432 Q 388 433 402 446 Q 415 460 416 480 L 416 504 L 416 504 L 416 512 L 416 512 L 408 512 L 293 512 L 290 509 L 290 509 L 213 424 L 213 424 L 148 424 L 148 424 Q 85 422 43 381 Q 2 339 0 276 Q 0 238 17 204 L 25 188 L 25 188 L 27 184 L 27 184 L 32 184 L 45 184 L 47 188 L 47 188 L 93 280 L 93 280 L 128 280 L 128 280 L 128 264 L 128 264 Q 129 206 168 168 Q 206 129 264 128 L 301 128 L 301 128 L 352 84 L 352 84 L 352 80 L 352 80 Z M 496 64 Q 511 65 512 80 Q 511 95 496 96 Q 481 95 480 80 Q 481 65 496 64 L 496 64 Z" />
</svg>