<svg xmlns="http://www.w3.org/2000/svg" viewBox="0 0 512 512">
  <path d="M 12.8 192 L 0 192 L 0 217.6 L 12.8 217.6 L 51.2 217.6 L 51.2 294.4 L 12.8 294.4 L 0 294.4 L 0 320 L 12.8 320 L 51.2 320 L 64 320 L 76.8 320 L 243.2 320 L 256 320 L 268.8 320 L 435.2 320 L 448 320 L 460.8 320 L 499.2 320 L 512 320 L 512 294.4 L 499.2 294.4 L 460.8 294.4 L 460.8 217.6 L 499.2 217.6 L 512 217.6 L 512 192 L 499.2 192 L 460.8 192 L 448 192 L 435.2 192 L 268.8 192 L 256 192 L 243.2 192 L 76.8 192 L 64 192 L 51.2 192 L 12.8 192 L 12.8 192 Z M 76.8 217.6 L 243.2 217.6 L 243.2 294.4 L 76.8 294.4 L 76.8 217.6 L 76.8 217.6 Z M 268.8 217.6 L 435.2 217.6 L 435.2 294.4 L 268.8 294.4 L 268.8 217.6 L 268.8 217.6 Z" />
</svg>