<svg xmlns="http://www.w3.org/2000/svg" viewBox="0 0 448 512">
  <path d="M 331 160 Q 320 195 292 217 L 292 217 L 292 217 Q 263 239 224 240 Q 185 239 156 217 Q 128 195 117 160 L 331 160 L 331 160 Z M 96 160 L 100 160 L 96 160 L 100 160 Q 111 202 145 229 Q 178 255 224 256 Q 270 255 303 229 Q 337 202 348 160 L 352 160 L 368 160 L 368 144 L 368 144 L 368 80 L 368 80 L 368 64 L 368 64 L 352 64 L 335 64 Q 318 35 289 18 Q 260 0 224 0 Q 188 0 159 18 Q 130 35 113 64 L 96 64 L 80 64 L 80 80 L 80 80 L 80 144 L 80 144 L 80 160 L 80 160 L 96 160 L 96 160 Z M 224 16 Q 283 18 316 64 L 132 64 L 132 64 Q 165 18 224 16 L 224 16 Z M 352 80 L 352 144 L 352 80 L 352 144 L 96 144 L 96 144 L 96 80 L 96 80 L 352 80 L 352 80 Z M 128 104 L 120 104 L 128 104 L 120 104 L 120 120 L 120 120 L 128 120 L 328 120 L 328 104 L 328 104 L 320 104 L 128 104 Z M 76 320 L 372 320 L 76 320 L 372 320 L 426 496 L 426 496 L 22 496 L 22 496 L 76 320 L 76 320 Z M 384 304 L 64 304 L 384 304 L 64 304 L 5 496 L 5 496 L 0 512 L 0 512 L 17 512 L 448 512 L 443 496 L 443 496 L 384 304 L 384 304 Z M 327 365 L 320 349 L 327 365 L 320 349 L 313 365 L 313 365 L 273 453 L 273 453 L 270 458 L 270 458 L 274 462 L 274 462 L 282 470 L 282 470 L 287 474 L 287 474 L 292 471 L 292 471 L 327 450 L 327 450 L 346 470 L 346 470 L 352 475 L 352 475 L 358 470 L 358 470 L 366 462 L 366 462 L 370 458 L 370 458 L 367 453 L 367 453 L 327 365 L 327 365 Z M 324 433 L 290 454 L 324 433 L 290 454 L 320 387 L 320 387 L 348 448 L 348 448 L 334 434 L 334 434 L 329 430 L 329 430 L 324 433 L 324 433 Z" />
</svg>