<svg xmlns="http://www.w3.org/2000/svg" viewBox="0 0 480 448">
  <path d="M 336 16 L 336 64 L 336 16 L 336 64 L 336 80 L 336 80 L 336 432 L 336 432 L 16 432 L 16 432 L 16 16 L 16 16 L 336 16 L 336 16 Z M 352 324 L 352 80 L 352 324 L 352 80 L 464 80 L 464 80 L 464 275 L 464 275 L 352 324 L 352 324 Z M 352 432 L 352 341 L 352 432 L 352 341 L 475 287 L 475 287 L 480 285 L 480 285 L 480 280 L 480 280 L 480 72 L 480 72 L 480 64 L 480 64 L 472 64 L 352 64 L 352 16 L 352 16 L 352 0 L 352 0 L 336 0 L 0 0 L 0 16 L 0 16 L 0 432 L 0 432 L 0 448 L 0 448 L 16 448 L 352 448 L 352 432 L 352 432 Z M 112 104 L 112 96 L 112 104 L 112 96 L 96 96 L 96 96 L 96 104 L 96 104 L 96 344 L 96 344 L 96 352 L 96 352 L 112 352 L 112 352 L 112 344 L 112 344 L 112 104 L 112 104 Z M 184 104 L 184 96 L 184 104 L 184 96 L 168 96 L 168 96 L 168 104 L 168 104 L 168 344 L 168 344 L 168 352 L 168 352 L 184 352 L 184 352 L 184 344 L 184 344 L 184 104 L 184 104 Z M 256 104 L 256 96 L 256 104 L 256 96 L 240 96 L 240 96 L 240 104 L 240 104 L 240 344 L 240 344 L 240 352 L 240 352 L 256 352 L 256 352 L 256 344 L 256 344 L 256 104 L 256 104 Z" />
</svg>