<svg xmlns="http://www.w3.org/2000/svg" viewBox="0 0 508 512">
  <path d="M 190 0 L 206 0 L 190 0 L 318 0 L 318 16 L 318 16 L 318 145 L 318 145 L 430 81 L 430 81 L 444 73 L 444 73 L 452 87 L 452 87 L 500 170 L 500 170 L 508 184 L 508 184 L 494 192 L 494 192 L 382 256 L 382 256 L 494 321 L 494 321 L 508 329 L 508 329 L 500 343 L 500 343 L 452 426 L 452 426 L 444 440 L 444 440 L 430 432 L 430 432 L 318 367 L 318 367 L 318 496 L 318 496 L 318 512 L 318 512 L 302 512 L 190 512 L 190 496 L 190 496 L 190 367 L 190 367 L 78 431 L 78 431 L 64 439 L 64 439 L 56 426 L 56 426 L 8 342 L 8 342 L 0 329 L 0 329 L 14 321 L 14 321 L 126 256 L 126 256 L 14 191 L 14 191 L 0 183 L 0 183 L 8 170 L 8 170 L 56 86 L 56 86 L 64 73 L 64 73 L 78 81 L 78 81 L 190 145 L 190 145 L 190 16 L 190 16 L 190 0 L 190 0 Z M 222 32 L 222 173 L 222 32 L 222 173 L 222 201 L 222 201 L 198 187 L 198 187 L 76 116 L 76 116 L 44 172 L 44 172 L 166 242 L 166 242 L 190 256 L 190 256 L 166 270 L 166 270 L 44 340 L 44 340 L 76 396 L 76 396 L 198 325 L 198 325 L 222 311 L 222 311 L 222 339 L 222 339 L 222 480 L 222 480 L 286 480 L 286 480 L 286 339 L 286 339 L 286 311 L 286 311 L 310 325 L 310 325 L 432 396 L 432 396 L 464 340 L 464 340 L 342 270 L 342 270 L 318 256 L 318 256 L 342 242 L 342 242 L 464 172 L 464 172 L 432 116 L 432 116 L 310 187 L 310 187 L 286 201 L 286 201 L 286 173 L 286 173 L 286 32 L 286 32 L 222 32 L 222 32 Z" />
</svg>