<svg xmlns="http://www.w3.org/2000/svg" viewBox="0 0 572 510">
  <path d="M 103 0 L 113 12 L 103 0 L 113 12 L 33 86 L 33 86 L 468 86 L 468 86 Q 512 87 542 116 Q 571 146 572 190 L 572 246 L 572 246 L 572 254 L 572 254 L 556 254 L 556 254 L 556 246 L 556 246 L 556 190 L 556 190 Q 555 153 530 128 Q 505 103 468 102 L 33 102 L 33 102 L 113 176 L 113 176 L 103 188 L 103 188 L 7 100 L 7 100 L 0 94 L 0 94 L 7 88 L 7 88 L 103 0 L 103 0 Z M 76 510 L 60 510 L 76 510 L 60 510 L 62 494 L 62 494 L 92 286 L 92 286 L 284 158 L 284 158 L 476 286 L 476 286 L 506 494 L 506 494 L 508 510 L 508 510 L 492 510 L 76 510 Z M 382 494 L 292 347 L 382 494 L 292 347 L 292 494 L 292 494 L 382 494 L 382 494 Z M 276 183 L 107 295 L 276 183 L 107 295 L 79 494 L 79 494 L 276 494 L 276 494 L 276 183 L 276 183 Z M 461 295 L 292 183 L 461 295 L 292 183 L 292 316 L 292 316 L 401 494 L 401 494 L 490 494 L 490 494 L 461 295 L 461 295 Z" />
</svg>