<svg xmlns="http://www.w3.org/2000/svg" viewBox="0 0 448 384">
  <path d="M 256 128 L 256 112 L 256 128 L 256 112 L 256 48 L 256 48 L 256 32 L 256 32 L 272 32 L 288 32 L 437 181 L 437 181 L 448 192 L 448 192 L 437 203 L 437 203 L 288 352 L 288 352 L 272 352 L 256 352 L 256 336 L 256 336 L 256 272 L 256 272 L 256 256 L 256 256 L 240 256 L 96 256 L 96 240 L 96 240 L 96 144 L 96 144 L 96 128 L 96 128 L 112 128 L 256 128 Z M 272 128 L 272 144 L 272 128 L 272 144 L 256 144 L 112 144 L 112 240 L 112 240 L 256 240 L 272 240 L 272 256 L 272 256 L 272 336 L 272 336 L 281 336 L 281 336 L 425 192 L 425 192 L 281 48 L 281 48 L 272 48 L 272 48 L 272 128 L 272 128 Z M 0 8 L 0 0 L 0 8 L 0 0 L 16 0 L 16 0 L 16 8 L 16 8 L 16 376 L 16 376 L 16 384 L 16 384 L 0 384 L 0 384 L 0 376 L 0 376 L 0 8 L 0 8 Z" />
</svg>