<svg xmlns="http://www.w3.org/2000/svg" viewBox="0 0 512 512">
  <path d="M 267 11 L 323 67 L 267 11 L 323 67 L 421 67 L 437 67 L 437 83 L 437 83 L 437 181 L 437 181 L 501 245 L 501 245 L 512 256 L 512 256 L 501 267 L 501 267 L 437 331 L 437 331 L 437 429 L 437 429 L 437 445 L 437 445 L 421 445 L 323 445 L 267 501 L 267 501 L 256 512 L 256 512 L 245 501 L 245 501 L 189 445 L 189 445 L 91 445 L 75 445 L 75 429 L 75 429 L 75 331 L 75 331 L 11 267 L 11 267 L 0 256 L 0 256 L 11 245 L 11 245 L 75 181 L 75 181 L 75 83 L 75 83 L 75 67 L 75 67 L 91 67 L 189 67 L 245 11 L 245 11 L 256 0 L 256 0 L 267 11 L 267 11 Z M 323 83 L 316 83 L 323 83 L 316 83 L 312 78 L 312 78 L 256 23 L 256 23 L 200 78 L 200 78 L 196 83 L 196 83 L 189 83 L 91 83 L 91 181 L 91 181 L 91 188 L 91 188 L 86 192 L 86 192 L 23 256 L 23 256 L 86 320 L 86 320 L 91 324 L 91 324 L 91 331 L 91 331 L 91 429 L 91 429 L 189 429 L 196 429 L 200 434 L 200 434 L 256 489 L 256 489 L 312 434 L 312 434 L 316 429 L 316 429 L 323 429 L 421 429 L 421 331 L 421 331 L 421 324 L 421 324 L 426 320 L 426 320 L 489 256 L 489 256 L 426 192 L 426 192 L 421 188 L 421 188 L 421 181 L 421 181 L 421 83 L 421 83 L 323 83 L 323 83 Z M 168 184 Q 169 160 184 144 L 184 144 L 184 144 Q 200 129 224 128 L 280 128 L 280 128 Q 307 129 325 147 Q 343 165 344 192 L 344 200 L 344 200 L 344 200 L 344 200 Q 339 228 315 245 L 264 279 L 264 279 L 264 304 L 264 304 L 264 312 L 264 312 L 248 312 L 248 312 L 248 304 L 248 304 L 248 275 L 248 275 L 248 270 L 248 270 L 252 268 L 252 268 L 307 232 L 307 232 Q 327 217 328 192 Q 327 171 314 158 Q 301 144 280 144 L 224 144 L 224 144 Q 207 144 196 156 Q 184 167 184 184 L 184 191 L 184 191 L 168 191 L 168 191 L 168 184 L 168 184 Z M 240 336 L 272 336 L 240 336 L 272 336 L 272 368 L 272 368 L 240 368 L 240 368 L 240 336 L 240 336 Z" />
</svg>