<svg xmlns="http://www.w3.org/2000/svg" viewBox="0 0 640 512">
  <path d="M 328 0 L 328 8 L 328 0 L 328 8 L 328 96 L 328 96 L 528 96 L 544 96 L 544 112 L 544 112 L 544 496 L 544 496 L 544 512 L 544 512 L 528 512 L 96 512 L 96 496 L 96 496 L 96 112 L 96 112 L 96 96 L 96 96 L 112 96 L 312 96 L 312 8 L 312 8 L 312 0 L 312 0 L 328 0 L 328 0 Z M 112 112 L 112 496 L 112 112 L 112 496 L 528 496 L 528 496 L 528 112 L 528 112 L 328 112 L 112 112 Z M 200 400 L 248 400 L 200 400 L 256 400 L 256 416 L 256 416 L 248 416 L 192 416 L 192 400 L 192 400 L 200 400 L 200 400 Z M 296 400 L 344 400 L 296 400 L 352 400 L 352 416 L 352 416 L 344 416 L 288 416 L 288 400 L 288 400 L 296 400 L 296 400 Z M 392 400 L 440 400 L 392 400 L 448 400 L 448 416 L 448 416 L 440 416 L 384 416 L 384 400 L 384 400 L 392 400 L 392 400 Z M 224 216 Q 201 217 189 236 Q 179 256 189 276 Q 201 295 224 296 Q 247 295 259 276 Q 269 256 259 236 Q 247 217 224 216 L 224 216 Z M 280 256 Q 279 288 252 304 Q 224 320 196 304 Q 169 288 168 256 Q 169 224 196 208 Q 224 192 252 208 Q 279 224 280 256 L 280 256 Z M 376 256 Q 377 279 396 291 Q 416 301 436 291 Q 455 279 456 256 Q 455 233 436 221 Q 416 211 396 221 Q 377 233 376 256 L 376 256 Z M 416 312 Q 384 311 368 284 Q 352 256 368 228 Q 384 201 416 200 Q 448 201 464 228 Q 480 256 464 284 Q 448 311 416 312 L 416 312 Z M 16 224 L 64 224 L 16 224 L 64 224 L 64 240 L 64 240 L 16 240 L 16 240 L 16 400 L 16 400 L 64 400 L 64 400 L 64 416 L 64 416 L 16 416 L 0 416 L 0 400 L 0 400 L 0 240 L 0 240 L 0 224 L 0 224 L 16 224 L 16 224 Z M 624 400 L 624 240 L 624 400 L 624 240 L 576 240 L 576 240 L 576 224 L 576 224 L 624 224 L 640 224 L 640 240 L 640 240 L 640 400 L 640 400 L 640 416 L 640 416 L 624 416 L 576 416 L 576 400 L 576 400 L 624 400 L 624 400 Z" />
</svg>