<svg xmlns="http://www.w3.org/2000/svg" viewBox="0 0 609 480">
  <path d="M 144 48 L 144 96 L 144 48 L 144 96 L 200 96 L 304 96 L 304 48 L 304 48 L 144 48 L 144 48 Z M 96 96 L 96 48 L 96 96 L 96 48 L 48 48 L 48 48 L 48 96 L 48 96 L 96 96 L 96 96 Z M 48 144 L 48 200 L 48 144 L 48 200 L 200 200 L 200 200 L 200 144 L 200 144 L 48 144 L 48 144 Z M 48 304 L 96 304 L 48 304 L 96 304 L 96 248 L 96 248 L 48 248 L 48 248 L 48 304 L 48 304 Z M 48 352 L 48 400 L 48 352 L 48 400 L 200 400 L 200 400 L 200 352 L 200 352 L 144 352 L 48 352 Z M 144 304 L 257 304 L 144 304 L 257 304 Q 256 312 256 320 Q 256 336 259 352 L 248 352 L 248 352 L 248 400 L 248 400 L 274 400 L 274 400 Q 286 427 305 448 L 48 448 L 0 448 L 0 400 L 0 400 L 0 48 L 0 48 L 0 0 L 0 0 L 48 0 L 448 0 L 448 48 L 448 48 L 448 115 L 448 115 L 421 87 L 421 87 L 399 101 L 399 101 Q 375 115 344 144 L 248 144 L 248 144 L 248 200 L 248 200 L 297 200 L 297 200 Q 281 222 271 248 L 144 248 L 144 248 L 144 304 L 144 304 Z M 400 96 L 400 48 L 400 96 L 400 48 L 352 48 L 352 48 L 352 96 L 352 96 L 400 96 L 400 96 Z M 416 128 L 480 192 L 416 128 L 480 192 L 512 160 L 512 160 Q 568 209 589 254 Q 609 298 608 320 Q 606 388 561 433 Q 516 478 448 480 Q 380 478 335 433 Q 290 388 288 320 Q 289 275 312 236 Q 334 198 364 170 Q 393 142 416 128 L 416 128 Z M 512 368 Q 511 344 495 322 L 495 322 L 495 322 Q 480 300 465 286 L 465 286 L 465 286 Q 449 273 448 272 Q 447 273 431 286 Q 416 300 401 322 Q 385 344 384 368 Q 385 395 403 413 Q 421 432 448 432 Q 475 432 493 413 Q 511 395 512 368 L 512 368 Z" />
</svg>