<svg xmlns="http://www.w3.org/2000/svg" viewBox="0 0 639 508">
  <path d="M 328 327 L 497 0 L 328 327 L 497 0 L 511 8 L 511 8 L 255 504 L 255 504 L 253 508 L 253 508 L 248 508 L 0 508 L 0 500 L 0 500 L 0 335 L 0 335 L 0 327 L 0 327 L 8 327 L 328 327 Z M 320 343 L 112 343 L 320 343 L 112 343 L 112 492 L 112 492 L 243 492 L 243 492 L 320 343 L 320 343 Z M 16 343 L 16 492 L 16 343 L 16 492 L 96 492 L 96 492 L 96 343 L 96 343 L 16 343 L 16 343 Z M 631 327 L 639 327 L 631 327 L 639 327 L 639 335 L 639 335 L 639 500 L 639 500 L 639 508 L 639 508 L 631 508 L 386 508 L 384 504 L 384 504 L 342 422 L 342 422 L 351 405 L 351 405 L 396 492 L 396 492 L 527 492 L 527 492 L 527 343 L 527 343 L 383 343 L 383 343 L 391 327 L 391 327 L 631 327 L 631 327 Z M 290 287 L 272 287 L 290 287 L 272 287 L 128 8 L 128 8 L 142 0 L 142 0 L 290 287 L 290 287 Z M 543 343 L 543 492 L 543 343 L 543 492 L 623 492 L 623 492 L 623 343 L 623 343 L 543 343 L 543 343 Z" />
</svg>