<svg xmlns="http://www.w3.org/2000/svg" viewBox="0 0 512 512">
  <path d="M 371.2 89.6 L 307.2 89.6 L 307.2 166.4 L 256 128 L 204.8 166.4 L 204.8 89.6 L 140.8 89.6 L 140.8 243.2 L 371.2 243.2 L 371.2 89.6 L 371.2 89.6 Z M 371.2 51.2 L 409.6 51.2 L 409.6 89.6 L 409.6 243.2 L 409.6 281.6 L 371.2 281.6 L 140.8 281.6 L 102.4 281.6 L 102.4 243.2 L 102.4 89.6 L 102.4 51.2 L 140.8 51.2 L 204.8 51.2 L 307.2 51.2 L 371.2 51.2 L 371.2 51.2 Z M 0 307.2 L 19.2 307.2 L 51.2 307.2 L 70.4 307.2 L 89.6 307.2 L 236.8 307.2 L 256 307.2 L 275.2 307.2 L 422.4 307.2 L 441.6 307.2 L 460.8 307.2 L 492.8 307.2 L 512 307.2 L 512 345.6 L 492.8 345.6 L 460.8 345.6 L 460.8 422.4 L 492.8 422.4 L 512 422.4 L 512 460.8 L 492.8 460.8 L 460.8 460.8 L 441.6 460.8 L 422.4 460.8 L 275.2 460.8 L 256 460.8 L 236.8 460.8 L 89.6 460.8 L 70.4 460.8 L 51.2 460.8 L 19.2 460.8 L 0 460.8 L 0 422.4 L 19.2 422.4 L 51.2 422.4 L 51.2 345.6 L 19.2 345.6 L 0 345.6 L 0 307.2 L 0 307.2 Z M 89.6 422.4 L 236.8 422.4 L 236.8 345.6 L 89.6 345.6 L 89.6 422.4 L 89.6 422.4 Z M 275.2 422.4 L 422.4 422.4 L 422.4 345.6 L 275.2 345.6 L 275.2 422.4 L 275.2 422.4 Z" />
</svg>