<svg xmlns="http://www.w3.org/2000/svg" viewBox="0 0 448 512">
  <path d="M 160 112 Q 161 85 179 67 L 179 67 L 179 67 Q 197 49 224 48 Q 251 49 269 67 Q 287 85 288 112 L 288 160 L 288 160 L 160 160 L 160 160 L 160 112 L 160 112 Z M 112 160 L 0 160 L 112 160 L 0 160 L 0 512 L 0 512 L 448 512 L 448 512 L 448 160 L 448 160 L 336 160 L 336 160 L 336 112 L 336 112 Q 335 64 303 33 Q 272 1 224 0 Q 176 1 145 33 Q 113 64 112 112 L 112 160 L 112 160 Z M 144 312 L 200 312 L 144 312 L 200 312 L 200 256 L 200 256 L 200 232 L 200 232 L 248 232 L 248 232 L 248 256 L 248 256 L 248 312 L 248 312 L 304 312 L 328 312 L 328 360 L 328 360 L 304 360 L 248 360 L 248 416 L 248 416 L 248 440 L 248 440 L 200 440 L 200 440 L 200 416 L 200 416 L 200 360 L 200 360 L 144 360 L 120 360 L 120 312 L 120 312 L 144 312 L 144 312 Z" />
</svg>