<svg xmlns="http://www.w3.org/2000/svg" viewBox="0 0 576 448">
  <path d="M 424 192 L 427 192 L 424 192 L 427 192 L 429 190 L 429 190 L 507 128 L 507 128 L 568 128 L 576 128 L 576 112 L 576 112 L 568 112 L 502 112 L 499 114 L 499 114 L 422 176 L 422 176 L 208 176 L 208 176 L 208 136 L 208 136 L 328 136 L 336 136 L 336 128 L 336 128 L 336 88 L 336 88 L 336 80 L 336 80 L 328 80 L 176 80 L 174 81 L 174 81 L 58 161 L 58 161 L 31 122 L 31 122 L 185 16 L 185 16 L 568 16 L 576 16 L 576 0 L 576 0 L 568 0 L 180 0 L 178 1 L 178 1 L 15 113 L 15 113 L 8 118 L 8 118 L 13 124 L 13 124 L 49 177 L 49 177 L 54 184 L 54 184 L 60 179 L 60 179 L 181 96 L 181 96 L 320 96 L 320 96 L 320 120 L 320 120 L 200 120 L 192 120 L 192 128 L 192 128 L 192 184 L 192 184 L 192 192 L 192 192 L 200 192 L 424 192 Z M 152 256 L 149 256 L 152 256 L 149 256 L 147 258 L 147 258 L 69 320 L 69 320 L 8 320 L 0 320 L 0 336 L 0 336 L 8 336 L 74 336 L 77 334 L 77 334 L 154 272 L 154 272 L 368 272 L 368 272 L 368 312 L 368 312 L 248 312 L 240 312 L 240 320 L 240 320 L 240 360 L 240 360 L 240 368 L 240 368 L 248 368 L 400 368 L 402 367 L 402 367 L 518 287 L 518 287 L 545 326 L 545 326 L 392 432 L 392 432 L 8 432 L 0 432 L 0 448 L 0 448 L 8 448 L 396 448 L 398 447 L 398 447 L 561 335 L 561 335 L 568 330 L 568 330 L 563 324 L 563 324 L 527 271 L 527 271 L 522 264 L 522 264 L 516 269 L 516 269 L 395 352 L 395 352 L 256 352 L 256 352 L 256 328 L 256 328 L 376 328 L 384 328 L 384 320 L 384 320 L 384 264 L 384 264 L 384 256 L 384 256 L 376 256 L 152 256 Z" />
</svg>