<svg xmlns="http://www.w3.org/2000/svg" viewBox="0 0 640 384">
  <path d="M 209 0 Q 206 0 204 2 L 144 52 L 144 52 L 144 73 L 144 73 L 212 16 L 212 16 L 277 16 L 277 16 L 294 0 L 294 0 L 209 0 L 209 0 Z M 112 288 L 135 288 L 112 288 L 135 288 L 185 338 L 185 338 L 191 344 L 191 344 Q 191 344 191 344 L 220 373 L 220 373 L 225 378 L 225 378 L 231 373 L 231 373 L 268 336 L 268 336 L 311 379 L 311 379 L 317 384 L 317 384 L 323 379 L 323 379 L 379 322 L 379 322 L 405 348 L 405 348 L 411 353 L 411 353 L 417 348 L 417 348 L 476 288 L 476 288 L 480 288 L 528 288 L 528 320 L 528 320 L 528 336 L 528 336 L 544 336 L 640 336 L 640 320 L 640 320 L 640 80 L 640 80 L 640 64 L 640 64 L 624 64 L 528 64 L 528 80 L 528 80 L 528 272 L 528 272 L 488 272 L 488 272 L 484 269 L 484 269 L 361 146 L 361 146 L 375 132 L 375 132 L 381 126 L 381 126 L 370 115 L 370 115 L 364 120 L 364 120 L 260 225 L 260 225 L 195 160 L 195 160 L 347 16 L 347 16 L 426 16 L 426 16 L 496 75 L 496 75 L 496 54 L 496 54 L 435 2 L 435 2 L 432 0 L 432 0 L 429 0 L 341 0 L 338 2 L 338 2 L 178 154 L 178 154 L 172 160 L 172 160 L 178 166 L 178 166 L 254 242 L 254 242 L 260 248 L 260 248 L 265 242 L 265 242 L 350 157 L 350 157 L 467 274 L 467 274 L 411 331 L 411 331 L 385 305 L 385 305 L 379 299 L 379 299 L 373 305 L 373 305 L 316 362 L 316 362 L 273 319 L 273 319 L 268 313 L 268 313 L 262 319 L 262 319 L 225 356 L 225 356 L 181 311 L 181 311 Q 181 311 181 311 Q 181 311 181 311 L 144 274 L 144 274 L 142 272 L 142 272 L 138 272 L 112 272 L 112 80 L 112 80 L 112 64 L 112 64 L 96 64 L 0 64 L 0 80 L 0 80 L 0 320 L 0 320 L 0 336 L 0 336 L 16 336 L 112 336 L 112 320 L 112 320 L 112 288 L 112 288 Z M 96 80 L 96 320 L 96 80 L 96 320 L 16 320 L 16 320 L 16 80 L 16 80 L 96 80 L 96 80 Z M 624 80 L 624 320 L 624 80 L 624 320 L 544 320 L 544 320 L 544 80 L 544 80 L 624 80 L 624 80 Z" />
</svg>