<svg xmlns="http://www.w3.org/2000/svg" viewBox="0 0 448 512">
  <path d="M 124 0 Q 99 1 82 18 L 82 18 L 82 18 Q 65 35 64 60 Q 66 96 96 113 L 96 152 L 96 152 L 96 160 L 96 160 L 96 176 L 96 176 Q 97 230 133 267 Q 170 303 224 304 Q 278 303 315 267 Q 351 230 352 176 L 352 160 L 352 160 L 352 152 L 352 152 L 352 113 L 352 113 Q 382 96 384 60 Q 383 35 366 18 Q 349 1 324 0 Q 290 1 273 28 Q 256 1 222 0 Q 191 1 173 26 Q 156 1 124 0 L 124 0 Z M 112 176 L 112 160 L 112 176 L 112 160 L 336 160 L 336 160 L 336 176 L 336 176 Q 335 224 303 255 Q 272 287 224 288 Q 176 287 145 255 Q 113 224 112 176 L 112 176 Z M 80 60 Q 80 41 93 29 L 93 29 L 93 29 Q 105 16 124 16 Q 155 18 166 46 L 181 46 L 181 46 Q 192 18 222 16 Q 238 16 250 26 Q 262 35 265 51 L 281 51 L 281 51 Q 285 35 296 26 Q 308 16 324 16 Q 343 16 355 29 Q 368 41 368 60 Q 366 89 341 101 L 336 103 L 336 103 L 336 108 L 336 108 L 336 144 L 336 144 L 112 144 L 112 144 L 112 108 L 112 108 L 112 103 L 112 103 L 107 101 L 107 101 Q 82 89 80 60 L 80 60 Z M 352 368 L 368 368 L 352 368 L 388 368 L 427 496 L 427 496 L 144 496 L 144 496 L 144 410 L 144 410 L 318 340 L 318 340 L 352 327 L 352 327 L 352 352 L 352 352 L 352 368 L 352 368 Z M 313 326 L 224 360 L 313 326 L 224 360 L 96 310 L 96 310 L 80 304 L 80 304 L 80 321 L 80 321 L 80 336 L 80 336 L 80 352 L 80 352 L 64 352 L 48 352 L 5 496 L 5 496 L 0 512 L 0 512 L 17 512 L 448 512 L 443 496 L 443 496 L 400 352 L 400 352 L 384 352 L 368 352 L 368 336 L 368 336 L 368 321 L 368 321 L 368 304 L 368 304 L 352 310 L 352 310 L 325 321 L 325 321 L 325 321 L 325 321 L 313 326 L 313 326 Z M 204 369 L 133 397 L 204 369 L 133 397 L 128 399 L 128 399 L 128 405 L 128 405 L 128 496 L 128 496 L 22 496 L 22 496 L 60 368 L 60 368 L 80 368 L 96 368 L 96 352 L 96 352 L 96 327 L 96 327 L 204 369 L 204 369 Z M 240 444 Q 251 443 252 432 Q 251 421 240 420 Q 229 421 228 432 Q 229 443 240 444 L 240 444 Z M 316 432 Q 315 421 304 420 Q 293 421 292 432 Q 293 443 304 444 Q 315 443 316 432 L 316 432 Z" />
</svg>