<svg xmlns="http://www.w3.org/2000/svg" viewBox="0 0 576 504">
  <path d="M 245 43 L 256 22 L 245 43 L 256 22 L 214 0 L 214 0 L 203 21 L 203 21 L 118 184 L 118 184 L 82 184 L 0 184 L 0 232 L 0 232 L 44 232 L 44 232 L 112 504 L 112 504 L 464 504 L 464 504 L 532 232 L 532 232 L 576 232 L 576 232 L 576 184 L 576 184 L 544 184 L 458 184 L 373 21 L 373 21 L 362 0 L 362 0 L 320 22 L 320 22 L 331 43 L 331 43 L 404 184 L 404 184 L 172 184 L 172 184 L 245 43 L 245 43 Z M 94 232 L 483 232 L 94 232 L 483 232 L 427 456 L 427 456 L 150 456 L 150 456 L 94 232 L 94 232 Z M 224 320 L 200 320 L 224 320 L 200 320 L 200 368 L 200 368 L 224 368 L 376 368 L 376 320 L 376 320 L 352 320 L 224 320 Z" />
</svg>