<svg xmlns="http://www.w3.org/2000/svg" viewBox="0 0 512 448">
  <path d="M 224 0 L 272 64 L 224 0 L 272 64 L 496 64 L 512 64 L 512 80 L 512 80 L 512 432 L 512 432 L 512 448 L 512 448 L 496 448 L 0 448 L 0 432 L 0 432 L 0 16 L 0 16 L 0 0 L 0 0 L 16 0 L 224 0 Z M 272 80 L 264 80 L 272 80 L 264 80 L 259 74 L 259 74 L 216 16 L 216 16 L 16 16 L 16 16 L 16 432 L 16 432 L 496 432 L 496 432 L 496 80 L 496 80 L 272 80 L 272 80 Z M 248 177 L 256 185 L 248 177 L 256 185 L 264 177 L 264 177 Q 282 160 306 160 L 309 160 L 309 160 Q 334 161 351 177 Q 367 194 368 219 Q 368 244 350 262 L 267 342 L 267 342 L 256 352 L 256 352 L 245 341 L 245 341 L 162 262 L 162 262 Q 144 244 144 219 Q 145 194 161 177 Q 178 161 203 160 L 205 160 L 205 160 Q 230 160 248 177 L 248 177 Z M 245 196 L 237 189 L 245 196 L 237 189 Q 224 176 206 176 L 203 176 L 203 176 Q 185 176 173 189 Q 160 201 160 219 Q 160 237 173 250 L 256 330 L 256 330 L 339 250 L 339 250 Q 352 237 352 219 Q 352 201 339 189 Q 327 176 309 176 L 306 176 L 306 176 Q 288 176 275 189 L 267 196 L 267 196 L 256 207 L 256 207 L 245 196 L 245 196 Z" />
</svg>