<svg xmlns="http://www.w3.org/2000/svg" viewBox="0 0 640 384">
  <path d="M 256 16 L 256 368 L 256 16 L 256 368 L 16 368 L 16 368 L 16 16 L 16 16 L 256 16 L 256 16 Z M 272 16 L 624 16 L 272 16 L 624 16 L 624 368 L 624 368 L 272 368 L 272 368 L 272 16 L 272 16 Z M 16 0 L 0 0 L 16 0 L 0 0 L 0 16 L 0 16 L 0 368 L 0 368 L 0 384 L 0 384 L 16 384 L 640 384 L 640 368 L 640 368 L 640 16 L 640 16 L 640 0 L 640 0 L 624 0 L 16 0 Z M 208 80 L 208 304 L 208 80 L 208 304 L 80 304 L 80 304 L 80 80 L 80 80 L 208 80 L 208 80 Z M 80 64 L 64 64 L 80 64 L 64 64 L 64 80 L 64 80 L 64 304 L 64 304 L 64 320 L 64 320 L 80 320 L 224 320 L 224 304 L 224 304 L 224 80 L 224 80 L 224 64 L 224 64 L 208 64 L 80 64 Z" />
</svg>