<svg xmlns="http://www.w3.org/2000/svg" viewBox="0 0 294 512">
  <path d="M 147 112 Q 174 111 189 88 Q 201 64 189 40 Q 174 17 147 16 Q 120 17 105 40 Q 93 64 105 88 Q 120 111 147 112 L 147 112 Z M 147 0 Q 183 1 202 32 Q 220 64 202 96 Q 183 127 147 128 Q 111 127 92 96 Q 74 64 92 32 Q 111 1 147 0 L 147 0 Z M 83 160 L 88 160 L 83 160 L 211 160 L 213 164 L 213 164 L 290 308 L 290 308 L 294 315 L 294 315 L 280 323 L 280 323 L 276 316 L 276 316 L 201 176 L 201 176 L 93 176 L 93 176 L 18 316 L 18 316 L 14 323 L 14 323 L 0 315 L 0 315 L 4 308 L 4 308 L 81 164 L 81 164 L 83 160 L 83 160 Z M 83 288 L 83 496 L 83 288 L 83 496 L 115 496 L 115 496 L 115 376 L 115 376 L 115 368 L 115 368 L 123 368 L 179 368 L 179 376 L 179 376 L 179 496 L 179 496 L 211 496 L 211 496 L 211 288 L 211 288 L 211 280 L 211 280 L 227 280 L 227 280 L 227 288 L 227 288 L 227 504 L 227 504 L 227 512 L 227 512 L 219 512 L 163 512 L 163 504 L 163 504 L 163 384 L 163 384 L 131 384 L 131 384 L 131 504 L 131 504 L 131 512 L 131 512 L 123 512 L 67 512 L 67 504 L 67 504 L 67 288 L 67 288 L 67 280 L 67 280 L 83 280 L 83 280 L 83 288 L 83 288 Z" />
</svg>