<svg xmlns="http://www.w3.org/2000/svg" viewBox="0 0 512 512">
  <path d="M 474 6 L 468 12 L 474 6 L 468 12 Q 475 5 474 6 Q 474 6 474 6 Q 474 6 474 6 Q 474 6 474 6 L 474 6 L 474 6 L 474 7 L 474 7 Q 474 7 474 7 Q 475 7 475 8 Q 477 10 480 14 Q 486 21 493 34 Q 510 60 512 107 Q 511 172 469 227 Q 428 281 356 349 Q 356 349 356 350 Q 356 350 356 350 Q 356 350 356 350 L 303 402 L 303 402 L 297 408 L 297 408 L 292 402 L 292 402 L 200 310 L 200 310 L 17 506 L 17 506 L 12 512 L 12 512 L 0 501 L 0 501 L 5 495 L 5 495 L 194 293 L 194 293 Q 194 293 194 293 L 462 6 L 462 6 L 468 0 L 468 0 L 474 6 L 474 6 Z M 468 24 L 211 299 L 468 24 L 211 299 L 297 385 L 297 385 L 344 339 L 344 339 Q 344 339 344 339 Q 417 270 456 217 Q 496 166 496 107 Q 494 65 479 41 Q 473 30 467 24 L 468 24 Z" />
</svg>