<svg xmlns="http://www.w3.org/2000/svg" viewBox="0 0 500 512">
  <path d="M 183 93 L 191 90 L 183 93 L 191 90 L 192 82 L 192 82 L 207 16 L 207 16 L 293 16 L 293 16 L 307 82 L 307 82 L 309 90 L 309 90 L 317 93 L 317 93 Q 339 102 357 117 L 364 122 L 364 122 L 372 119 L 372 119 L 436 99 L 436 99 L 479 173 L 479 173 L 429 219 L 429 219 L 423 224 L 423 224 L 424 233 L 424 233 Q 426 244 426 256 Q 426 268 424 279 L 423 287 L 423 287 L 429 293 L 429 293 L 479 338 L 479 338 L 436 413 L 436 413 L 372 393 L 372 393 L 364 390 L 364 390 L 357 396 L 357 396 Q 339 410 317 419 L 309 422 L 309 422 L 308 430 L 308 430 L 293 496 L 293 496 L 207 496 L 207 496 L 193 430 L 193 430 L 191 422 L 191 422 L 183 419 L 183 419 Q 161 410 143 396 L 136 390 L 136 390 L 128 393 L 128 393 L 64 413 L 64 413 L 21 339 L 21 339 L 71 293 L 71 293 L 77 288 L 77 288 L 76 279 L 76 279 Q 74 268 74 256 Q 74 244 76 233 L 77 225 L 77 225 L 71 219 L 71 219 L 21 173 L 21 173 L 64 99 L 64 99 L 128 119 L 128 119 L 136 122 L 136 122 L 143 117 L 143 117 Q 161 102 183 93 L 183 93 Z M 306 0 L 194 0 L 306 0 L 194 0 L 177 78 L 177 78 Q 153 88 133 104 L 56 80 L 56 80 L 0 177 L 0 177 L 60 231 L 60 231 Q 58 243 58 256 Q 58 269 60 281 L 0 336 L 0 336 L 56 433 L 56 433 L 133 408 L 133 408 Q 153 424 177 434 L 194 512 L 194 512 L 306 512 L 306 512 L 323 434 L 323 434 Q 347 424 367 408 L 444 433 L 444 433 L 500 336 L 500 336 L 440 282 L 440 282 Q 442 269 442 256 Q 442 243 440 231 L 500 177 L 500 177 L 444 80 L 444 80 L 367 104 L 367 104 Q 347 88 323 78 L 306 0 L 306 0 Z M 274 161 L 275 153 L 274 161 L 275 153 L 259 151 L 259 151 L 258 159 L 258 159 L 226 351 L 226 351 L 225 359 L 225 359 L 241 361 L 241 361 L 242 353 L 242 353 L 274 161 L 274 161 Z M 176 222 L 181 216 L 176 222 L 181 216 L 170 205 L 170 205 L 164 210 L 164 210 L 124 250 L 124 250 L 119 256 L 119 256 L 124 262 L 124 262 L 164 302 L 164 302 L 170 308 L 170 308 L 181 296 L 181 296 L 176 290 L 176 290 L 141 256 L 141 256 L 176 222 L 176 222 Z M 336 210 L 330 205 L 336 210 L 330 205 L 319 216 L 319 216 L 324 222 L 324 222 L 359 256 L 359 256 L 324 290 L 324 290 L 319 296 L 319 296 L 330 307 L 330 307 L 336 302 L 336 302 L 376 262 L 376 262 L 381 256 L 381 256 L 376 250 L 376 250 L 336 210 L 336 210 Z" />
</svg>