<svg xmlns="http://www.w3.org/2000/svg" viewBox="0 0 512 512">
  <path d="M 496 256 Q 495 191 464 136 L 464 136 L 464 136 Q 432 81 376 48 Q 319 16 256 16 Q 193 16 136 48 Q 80 81 48 136 Q 17 191 16 256 Q 17 321 48 376 Q 80 431 136 464 Q 193 496 256 496 Q 319 496 376 464 Q 432 431 464 376 Q 495 321 496 256 L 496 256 Z M 0 256 Q 1 186 34 128 L 34 128 L 34 128 Q 68 70 128 34 Q 189 0 256 0 Q 323 0 384 34 Q 444 70 478 128 Q 511 186 512 256 Q 511 326 478 384 Q 444 442 384 478 Q 323 512 256 512 Q 189 512 128 478 Q 68 442 34 384 Q 1 326 0 256 L 0 256 Z M 280 136 L 280 376 L 280 136 L 280 376 L 280 384 L 280 384 L 264 384 L 264 384 L 264 376 L 264 376 L 264 136 L 264 136 L 264 128 L 264 128 L 280 128 L 280 128 L 280 136 L 280 136 Z M 152 168 L 152 344 L 152 168 L 152 344 L 152 352 L 152 352 L 136 352 L 136 352 L 136 344 L 136 344 L 136 168 L 136 168 L 136 160 L 136 160 L 152 160 L 152 160 L 152 168 L 152 168 Z M 344 192 L 344 320 L 344 192 L 344 320 L 344 328 L 344 328 L 328 328 L 328 328 L 328 320 L 328 320 L 328 192 L 328 192 L 328 184 L 328 184 L 344 184 L 344 184 L 344 192 L 344 192 Z M 216 208 L 216 304 L 216 208 L 216 304 L 216 312 L 216 312 L 200 312 L 200 312 L 200 304 L 200 304 L 200 208 L 200 208 L 200 200 L 200 200 L 216 200 L 216 200 L 216 208 L 216 208 Z M 408 232 L 408 280 L 408 232 L 408 280 L 408 288 L 408 288 L 392 288 L 392 288 L 392 280 L 392 280 L 392 232 L 392 232 L 392 224 L 392 224 L 408 224 L 408 224 L 408 232 L 408 232 Z" />
</svg>