<svg xmlns="http://www.w3.org/2000/svg" viewBox="0 0 576 512">
  <path d="M 368 16 L 16 16 L 368 16 L 16 16 L 16 496 L 16 496 L 311 496 L 311 496 Q 320 505 331 512 L 16 512 L 0 512 L 0 496 L 0 496 L 0 16 L 0 16 L 0 0 L 0 0 L 16 0 L 384 0 L 384 16 L 384 16 L 384 199 L 384 199 Q 376 201 368 204 L 368 16 L 368 16 Z M 64 128 L 72 128 L 64 128 L 320 128 L 320 144 L 320 144 L 312 144 L 64 144 L 64 128 L 64 128 Z M 72 224 L 280 224 L 72 224 L 288 224 L 288 240 L 288 240 L 280 240 L 64 240 L 64 224 L 64 224 L 72 224 L 72 224 Z M 72 320 L 216 320 L 72 320 L 224 320 L 224 336 L 224 336 L 216 336 L 64 336 L 64 320 L 64 320 L 72 320 L 72 320 Z M 560 368 Q 560 333 543 304 L 543 304 L 543 304 Q 526 275 496 257 Q 466 240 432 240 Q 398 240 368 257 Q 338 275 321 304 Q 304 333 304 368 Q 304 403 321 432 Q 338 461 368 479 Q 398 496 432 496 Q 466 496 496 479 Q 526 461 543 432 Q 560 403 560 368 L 560 368 Z M 288 368 Q 288 329 307 296 L 307 296 L 307 296 Q 326 263 360 243 Q 394 224 432 224 Q 470 224 504 243 Q 538 263 557 296 Q 576 329 576 368 Q 576 407 557 440 Q 538 473 504 493 Q 470 512 432 512 Q 394 512 360 493 Q 326 473 307 440 Q 288 407 288 368 L 288 368 Z M 444 292 L 444 316 L 444 292 L 444 316 L 420 316 L 420 316 L 420 292 L 420 292 L 444 292 L 444 292 Z M 408 456 L 408 440 L 408 456 L 408 440 L 416 440 L 424 440 L 424 360 L 424 360 L 416 360 L 408 360 L 408 344 L 408 344 L 416 344 L 440 344 L 440 352 L 440 352 L 440 440 L 440 440 L 448 440 L 456 440 L 456 456 L 456 456 L 448 456 L 408 456 Z" />
</svg>