<svg xmlns="http://www.w3.org/2000/svg" viewBox="0 0 576 512">
  <path d="M 0 176 Q 1 127 39 87 L 39 87 L 39 87 Q 78 48 143 24 L 143 24 L 143 24 Q 208 1 288 0 L 288 16 L 288 16 Q 212 17 151 38 Q 89 59 53 95 Q 17 131 16 176 Q 17 217 47 251 Q 78 284 131 307 Q 131 307 131 307 Q 140 310 149 314 Q 149 314 149 314 Q 149 314 149 314 Q 211 335 288 336 Q 364 335 425 314 Q 487 293 523 257 Q 559 221 560 176 Q 559 124 511 84 Q 462 44 384 26 L 384 10 L 384 10 Q 469 29 522 73 Q 574 118 576 176 Q 575 225 537 265 Q 498 305 433 328 Q 368 351 288 352 Q 242 352 201 344 Q 231 372 232 415 Q 231 456 204 484 Q 176 511 135 512 L 40 512 L 32 512 L 32 496 L 32 496 L 40 496 L 135 496 Q 169 495 192 472 Q 215 449 216 415 Q 216 392 204 372 Q 192 353 171 343 L 141 327 L 141 327 Q 77 304 39 264 Q 1 225 0 176 L 0 176 Z M 344 8 L 344 16 L 344 8 L 344 16 L 344 72 L 344 72 L 400 72 L 408 72 L 408 88 L 408 88 L 400 88 L 344 88 L 344 144 L 344 144 L 344 152 L 344 152 L 328 152 L 328 152 L 328 144 L 328 144 L 328 88 L 328 88 L 272 88 L 264 88 L 264 72 L 264 72 L 272 72 L 328 72 L 328 16 L 328 16 L 328 8 L 328 8 L 344 8 L 344 8 Z M 504 368 L 504 424 L 504 368 L 504 424 L 560 424 L 568 424 L 568 440 L 568 440 L 560 440 L 504 440 L 504 496 L 504 496 L 504 504 L 504 504 L 488 504 L 488 504 L 488 496 L 488 496 L 488 440 L 488 440 L 432 440 L 424 440 L 424 424 L 424 424 L 432 424 L 488 424 L 488 368 L 488 368 L 488 360 L 488 360 L 504 360 L 504 360 L 504 368 L 504 368 Z" />
</svg>