<svg xmlns="http://www.w3.org/2000/svg" viewBox="0 0 400 512">
  <path d="M 80 0 L 72 0 L 80 0 L 72 0 L 72 8 L 72 8 L 72 232 L 72 232 L 72 240 L 72 240 L 72 247 L 72 247 L 3 306 L 3 306 L 0 308 L 0 308 L 0 312 L 0 312 L 0 366 L 0 366 Q 0 403 18 434 Q 36 465 69 484 L 87 494 L 87 494 Q 118 512 154 512 L 296 512 L 296 512 Q 340 511 370 482 Q 399 452 400 408 L 400 392 L 400 392 L 400 304 L 400 304 L 400 256 L 400 256 L 400 248 L 400 248 L 392 248 L 336 248 L 336 224 L 336 224 L 336 216 L 336 216 L 328 216 L 264 216 L 264 192 L 264 192 L 264 184 L 264 184 L 256 184 L 176 184 L 176 8 L 176 8 L 176 0 L 176 0 L 168 0 L 80 0 Z M 72 268 L 72 344 L 72 268 L 72 344 L 72 352 L 72 352 L 88 352 L 88 352 L 88 344 L 88 344 L 88 255 L 88 255 L 88 251 L 88 251 L 88 240 L 88 240 L 88 232 L 88 232 L 88 16 L 88 16 L 160 16 L 160 16 L 160 192 L 160 192 L 160 200 L 160 200 L 168 200 L 248 200 L 248 224 L 248 224 L 248 232 L 248 232 L 256 232 L 320 232 L 320 256 L 320 256 L 320 264 L 320 264 L 328 264 L 384 264 L 384 304 L 384 304 L 384 392 L 384 392 L 384 408 L 384 408 Q 383 445 358 470 Q 333 495 296 496 L 154 496 L 154 496 Q 122 496 95 480 L 77 470 L 77 470 Q 48 453 32 426 Q 16 398 16 366 L 16 316 L 16 316 L 72 268 L 72 268 Z" />
</svg>