<svg xmlns="http://www.w3.org/2000/svg" viewBox="0 0 448 448">
  <path d="M 16 16 L 16 432 L 16 16 L 16 432 L 432 432 L 432 432 L 432 16 L 432 16 L 16 16 L 16 16 Z M 0 0 L 16 0 L 0 0 L 448 0 L 448 16 L 448 16 L 448 432 L 448 432 L 448 448 L 448 448 L 432 448 L 0 448 L 0 432 L 0 432 L 0 16 L 0 16 L 0 0 L 0 0 Z M 152 96 L 256 96 L 152 96 L 256 96 Q 293 97 318 122 Q 343 147 344 184 L 344 192 L 344 192 L 344 192 L 344 192 Q 340 226 316 249 Q 291 271 256 272 L 160 272 L 160 272 L 160 344 L 160 344 L 160 352 L 160 352 L 144 352 L 144 352 L 144 344 L 144 344 L 144 272 L 144 272 L 144 256 L 144 256 L 144 104 L 144 104 L 144 96 L 144 96 L 152 96 L 152 96 Z M 256 256 Q 287 255 307 235 L 307 235 L 307 235 Q 327 215 328 184 Q 327 153 307 133 Q 287 113 256 112 L 160 112 L 160 112 L 160 256 L 160 256 L 256 256 L 256 256 Z" />
</svg>