<svg xmlns="http://www.w3.org/2000/svg" viewBox="0 0 631 520">
  <path d="M 181 27 L 213 98 L 181 27 L 213 98 L 289 79 L 289 79 L 310 74 L 310 74 L 300 93 L 300 93 L 265 163 L 265 163 L 327 210 L 327 210 L 344 223 L 344 223 L 323 228 L 323 228 L 247 244 L 247 244 L 248 322 L 248 322 L 248 343 L 248 343 L 232 329 L 232 329 L 172 279 L 172 279 L 112 329 L 112 329 L 96 343 L 96 343 L 96 322 L 96 322 L 97 244 L 97 244 L 21 228 L 21 228 L 0 223 L 0 223 L 17 210 L 17 210 L 79 163 L 79 163 L 44 93 L 44 93 L 34 74 L 34 74 L 55 79 L 55 79 L 131 98 L 131 98 L 163 27 L 163 27 L 172 8 L 172 8 L 181 27 L 181 27 Z M 217 114 L 204 117 L 217 114 L 204 117 L 199 105 L 199 105 L 172 46 L 172 46 L 145 105 L 145 105 L 140 117 L 140 117 L 127 114 L 127 114 L 64 98 L 64 98 L 93 156 L 93 156 L 99 167 L 99 167 L 89 176 L 89 176 L 38 215 L 38 215 L 101 228 L 101 228 L 114 231 L 114 231 L 114 244 L 114 244 L 112 308 L 112 308 L 162 267 L 162 267 L 172 259 L 172 259 L 182 267 L 182 267 L 232 308 L 232 308 L 231 244 L 231 244 L 230 231 L 230 231 L 243 228 L 243 228 L 306 215 L 306 215 L 255 176 L 255 176 L 245 167 L 245 167 L 251 156 L 251 156 L 280 98 L 280 98 L 217 114 L 217 114 Z M 516 64 Q 515 41 496 29 Q 476 19 456 29 Q 437 41 436 64 Q 437 87 456 99 Q 476 109 496 99 Q 515 87 516 64 L 516 64 Z M 420 64 Q 421 32 448 16 Q 476 0 504 16 Q 531 32 532 64 Q 531 96 504 112 Q 476 128 448 112 Q 421 96 420 64 L 420 64 Z M 436 219 L 383 376 L 436 219 L 383 376 L 404 376 L 569 376 L 516 219 L 516 219 L 514 211 L 514 211 L 529 206 L 529 206 L 532 213 L 532 213 L 588 381 L 588 381 L 591 392 L 591 392 L 580 392 L 548 392 L 548 512 L 548 512 L 548 520 L 548 520 L 540 520 L 484 520 L 484 512 L 484 512 L 484 392 L 484 392 L 468 392 L 468 392 L 468 512 L 468 512 L 468 520 L 468 520 L 460 520 L 404 520 L 404 512 L 404 512 L 404 392 L 404 392 L 372 392 L 361 392 L 364 382 L 364 382 L 420 214 L 420 214 L 423 206 L 423 206 L 438 211 L 438 211 L 436 219 L 436 219 Z M 420 504 L 452 504 L 420 504 L 452 504 L 452 392 L 452 392 L 420 392 L 420 392 L 420 504 L 420 504 Z M 500 392 L 500 504 L 500 392 L 500 504 L 532 504 L 532 504 L 532 392 L 532 392 L 500 392 L 500 392 Z M 412 136 L 417 136 L 412 136 L 540 136 L 542 141 L 542 141 L 627 317 L 627 317 L 631 324 L 631 324 L 616 331 L 616 331 L 613 324 L 613 324 L 530 152 L 530 152 L 422 152 L 422 152 L 339 324 L 339 324 L 336 331 L 336 331 L 321 324 L 321 324 L 325 317 L 325 317 L 410 141 L 410 141 L 412 136 L 412 136 Z" />
</svg>