<svg xmlns="http://www.w3.org/2000/svg" viewBox="0 0 448 512">
  <path d="M 230 350 L 224 355 L 230 350 L 224 355 L 218 350 L 218 350 L 82 214 L 82 214 L 77 208 L 77 208 L 88 197 L 88 197 L 94 202 L 94 202 L 216 325 L 216 325 L 216 8 L 216 8 L 216 0 L 216 0 L 232 0 L 232 0 L 232 8 L 232 8 L 232 325 L 232 325 L 354 202 L 354 202 L 360 197 L 360 197 L 371 208 L 371 208 L 366 214 L 366 214 L 230 350 L 230 350 Z M 16 328 L 16 496 L 16 328 L 16 496 L 432 496 L 432 496 L 432 328 L 432 328 L 432 320 L 432 320 L 448 320 L 448 320 L 448 328 L 448 328 L 448 504 L 448 504 L 448 512 L 448 512 L 440 512 L 0 512 L 0 504 L 0 504 L 0 328 L 0 328 L 0 320 L 0 320 L 16 320 L 16 320 L 16 328 L 16 328 Z" />
</svg>