<svg xmlns="http://www.w3.org/2000/svg" viewBox="0 0 637 506">
  <path d="M 290 4 L 285 0 L 290 4 L 285 0 L 280 4 L 280 4 L 0 244 L 0 244 L 10 256 L 10 256 L 61 213 L 61 213 L 61 498 L 61 498 L 61 506 L 61 506 L 69 506 L 392 506 Q 381 499 372 490 L 77 490 L 77 490 L 77 199 L 77 199 L 285 21 L 285 21 L 479 187 L 479 187 Q 486 186 493 186 Q 498 186 503 186 L 290 4 L 290 4 Z M 364 242 L 325 242 L 364 242 L 325 242 L 325 178 L 325 178 L 325 170 L 325 170 L 317 170 L 245 170 L 245 178 L 245 178 L 245 242 L 245 242 L 181 242 L 173 242 L 173 250 L 173 250 L 173 314 L 173 314 L 173 322 L 173 322 L 181 322 L 245 322 L 245 386 L 245 386 L 245 394 L 245 394 L 253 394 L 320 394 Q 318 382 317 370 L 309 370 L 309 370 L 309 378 L 309 378 L 261 378 L 261 378 L 261 314 L 261 314 L 261 306 L 261 306 L 253 306 L 189 306 L 189 258 L 189 258 L 253 258 L 261 258 L 261 250 L 261 250 L 261 186 L 261 186 L 309 186 L 309 186 L 309 250 L 309 250 L 309 258 L 309 258 L 317 258 L 351 258 Q 357 250 364 242 L 364 242 Z M 493 234 Q 528 234 557 251 L 557 251 L 557 251 Q 586 268 604 298 Q 621 328 621 362 Q 621 396 604 426 Q 586 456 557 473 Q 528 490 493 490 Q 458 490 429 473 Q 400 456 382 426 Q 365 396 365 362 Q 365 328 382 298 Q 400 268 429 251 Q 458 234 493 234 L 493 234 Z M 493 506 Q 532 506 565 487 L 565 487 L 565 487 Q 598 468 618 434 Q 637 400 637 362 Q 637 324 618 290 Q 598 256 565 237 Q 532 218 493 218 Q 454 218 421 237 Q 388 256 368 290 Q 349 324 349 362 Q 349 400 368 434 Q 388 468 421 487 Q 454 506 493 506 L 493 506 Z M 568 322 L 557 311 L 568 322 L 557 311 L 551 316 L 551 316 L 477 391 L 477 391 L 435 348 L 435 348 L 429 343 L 429 343 L 418 354 L 418 354 L 423 360 L 423 360 L 471 408 L 471 408 L 477 413 L 477 413 L 483 408 L 483 408 L 563 328 L 563 328 L 569 322 L 568 322 Z" />
</svg>