<svg xmlns="http://www.w3.org/2000/svg" viewBox="0 0 512 512">
  <path d="M 16 256 Q 17 189 49 135 L 49 135 L 49 135 Q 81 81 135 49 L 135 49 L 135 49 Q 189 17 256 16 Q 323 17 377 49 Q 431 81 463 135 Q 495 189 496 256 Q 496 312 473 359 Q 450 406 411 439 L 421 452 L 421 452 Q 463 416 487 366 Q 512 315 512 256 Q 511 184 477 127 Q 443 69 385 35 Q 328 1 256 0 Q 184 1 127 35 Q 69 69 35 127 Q 1 184 0 256 Q 1 327 34 384 Q 67 441 124 475 L 132 462 L 132 462 Q 79 429 48 376 Q 17 322 16 256 L 16 256 Z M 176 160 Q 191 159 192 144 Q 191 129 176 128 Q 162 129 160 144 Q 162 159 176 160 L 176 160 Z M 336 160 Q 351 159 352 144 Q 351 129 336 128 Q 322 129 320 144 Q 322 159 336 160 L 336 160 Z M 224 247 Q 184 237 165 218 L 155 230 L 155 230 Q 177 252 224 263 L 224 320 L 224 320 L 176 320 L 168 320 L 168 328 L 168 328 L 168 504 L 168 504 L 168 512 L 168 512 L 176 512 L 323 512 L 325 510 L 325 510 L 389 454 L 389 454 L 396 448 L 396 448 L 390 442 L 390 442 L 358 410 L 358 410 L 353 406 L 353 406 L 347 410 L 347 410 L 296 446 L 296 446 L 232 404 L 232 404 L 232 384 L 232 384 L 264 384 L 264 384 L 264 400 L 264 400 L 264 408 L 264 408 L 272 408 L 328 408 L 328 400 L 328 400 L 328 328 L 328 328 L 328 320 L 328 320 L 320 320 L 288 320 L 288 263 L 288 263 Q 335 252 357 230 L 347 218 L 347 218 Q 328 237 288 247 L 288 216 L 288 216 L 288 208 L 288 208 L 280 208 L 224 208 L 224 216 L 224 216 L 224 247 L 224 247 Z M 272 320 L 240 320 L 272 320 L 240 320 L 240 224 L 240 224 L 272 224 L 272 224 L 272 320 L 272 320 Z M 184 336 L 312 336 L 184 336 L 312 336 L 312 392 L 312 392 L 280 392 L 280 392 L 280 376 L 280 376 L 280 368 L 280 368 L 272 368 L 216 368 L 216 376 L 216 376 L 216 408 L 216 408 L 216 412 L 216 412 L 220 415 L 220 415 L 292 463 L 292 463 L 296 466 L 296 466 L 301 463 L 301 463 L 351 426 L 351 426 L 372 448 L 372 448 L 317 496 L 317 496 L 184 496 L 184 496 L 184 336 L 184 336 Z" />
</svg>