<svg xmlns="http://www.w3.org/2000/svg" viewBox="0 0 300 512">
  <path d="M 25 144 L 20 194 L 25 144 L 20 194 Q 17 253 54 294 Q 91 334 150 336 Q 209 334 246 294 Q 283 253 280 194 L 275 144 L 275 144 L 25 144 L 25 144 Z M 27 128 L 274 128 L 27 128 L 274 128 L 263 16 L 263 16 L 37 16 L 37 16 L 26 128 L 27 128 Z M 296 193 Q 300 257 260 302 L 260 302 L 260 302 Q 221 347 158 352 L 158 496 L 158 496 L 238 496 L 246 496 L 246 512 L 246 512 L 238 512 L 54 512 L 54 496 L 54 496 L 62 496 L 142 496 L 142 352 L 142 352 Q 79 347 40 302 Q 0 257 5 193 L 22 0 L 22 0 L 278 0 L 278 0 L 296 193 L 296 193 Z" />
</svg>