<svg xmlns="http://www.w3.org/2000/svg" viewBox="0 0 320 507">
  <path d="M 166 5 L 160 0 L 166 5 L 160 0 L 154 5 L 154 5 L 90 69 L 90 69 L 85 75 L 85 75 L 96 86 L 96 86 L 102 81 L 102 81 L 152 30 L 152 30 L 152 123 L 152 123 L 96 123 L 88 123 L 88 139 L 88 139 L 96 139 L 152 139 L 152 187 L 152 187 Q 87 192 44 237 Q 2 281 0 347 Q 2 415 47 460 Q 92 505 160 507 Q 228 505 273 460 Q 318 415 320 347 Q 318 281 276 237 Q 233 192 168 187 L 168 139 L 168 139 L 224 139 L 232 139 L 232 123 L 232 123 L 224 123 L 168 123 L 168 30 L 168 30 L 218 81 L 218 81 L 224 86 L 224 86 L 235 75 L 235 75 L 230 69 L 230 69 L 166 5 L 166 5 Z M 160 491 Q 121 491 88 472 L 88 472 L 88 472 Q 55 453 35 419 Q 16 385 16 347 Q 16 309 35 275 Q 55 241 88 222 Q 121 203 160 203 Q 199 203 232 222 Q 265 241 285 275 Q 304 309 304 347 Q 304 385 285 419 Q 265 453 232 472 Q 199 491 160 491 L 160 491 Z" />
</svg>