<svg xmlns="http://www.w3.org/2000/svg" viewBox="0 0 512 512">
  <path d="M 0 365.7143 L 0 372.57144 L 2.2857144 379.42856 L 36.57143 365.7143 Q 12.571428 374.85715 6.857143 377.14285 Q 1.1428572 379.42856 2.2857144 379.42856 L 2.2857144 379.42856 L 2.2857144 379.42856 L 2.2857144 379.42856 L 3.4285715 380.57144 Q 3.4285715 380.57144 3.4285715 381.7143 Q 4.571429 384 5.714286 387.42856 Q 9.142858 393.14285 16 403.42856 Q 27.428572 422.85715 57.142857 449.14285 Q 85.71429 474.2857 134.85715 492.57144 Q 184 510.85715 256 512 Q 328 510.85715 377.14285 492.57144 Q 426.2857 474.2857 454.85715 449.14285 Q 484.57144 422.85715 496 403.42856 Q 502.85715 393.14285 506.2857 387.42856 Q 506.2857 385.14285 507.42856 384 Q 507.42856 382.85715 508.57144 381.7143 Q 508.57144 380.57144 508.57144 380.57144 L 509.7143 379.42856 L 509.7143 379.42856 L 509.7143 379.42856 L 509.7143 379.42856 Q 510.85715 379.42856 505.14285 377.14285 Q 499.42856 374.85715 475.42856 365.7143 L 509.7143 379.42856 L 512 372.57144 L 512 365.7143 L 512 118.85714 Q 508.57144 80 482.2857 59.42857 Q 458.2857 38.857143 424 26.285715 Q 354.2857 1.1428572 256 0 Q 157.71428 1.1428572 88 26.285715 Q 53.714287 38.857143 29.714285 59.42857 Q 3.4285715 80 0 118.85714 L 0 365.7143 L 0 365.7143 Z M 475.42856 365.7143 Q 476.57144 368 457.14285 394.2857 L 457.14285 394.2857 Q 438.85715 420.57144 390.85715 446.85715 L 390.85715 446.85715 Q 342.85715 473.14285 256 475.42856 Q 169.14285 473.14285 121.14286 446.85715 Q 73.14286 420.57144 54.857143 394.2857 Q 35.42857 368 36.57143 365.7143 L 36.57143 184 Q 59.42857 201.14285 88 211.42857 Q 157.71428 236.57143 256 237.71428 Q 354.2857 236.57143 424 211.42857 Q 453.7143 200 475.42856 184 L 475.42856 365.7143 L 475.42856 365.7143 Z M 475.42856 118.85714 Q 474.2857 144 440 163.42857 L 313.14285 116.57143 L 283.42856 37.714287 Q 365.7143 41.142857 419.42856 64 Q 473.14285 86.85714 475.42856 118.85714 L 475.42856 118.85714 Z M 36.57143 118.85714 Q 38.857143 85.71429 97.14286 61.714287 L 97.14286 61.714287 Q 154.28572 38.857143 243.42857 36.57143 L 259.42856 77.71429 L 164.57143 110.85714 L 161.14285 112 L 157.71428 114.28571 L 93.71429 173.71428 Q 38.857143 152 36.57143 118.85714 L 36.57143 118.85714 Z M 133.71428 187.42857 L 180.57143 144 L 272 112 L 282.2857 137.14285 L 284.57144 145.14285 L 292.57144 147.42857 L 389.7143 184 Q 332.57144 201.14285 256 201.14285 Q 187.42857 201.14285 133.71428 187.42857 L 133.71428 187.42857 Z" />
</svg>