<svg xmlns="http://www.w3.org/2000/svg" viewBox="0 0 512 512">
  <path d="M 256 16 Q 321 17 376 48 L 376 48 L 376 48 Q 431 80 464 136 Q 496 193 496 256 Q 496 319 464 376 Q 431 432 376 464 Q 321 495 256 496 Q 191 495 136 464 Q 81 432 48 376 Q 16 319 16 256 Q 16 193 48 136 Q 81 80 136 48 Q 191 17 256 16 L 256 16 Z M 256 512 Q 326 511 384 478 L 384 478 L 384 478 Q 442 444 478 384 Q 512 323 512 256 Q 512 189 478 128 Q 442 68 384 34 Q 326 1 256 0 Q 186 1 128 34 Q 70 68 34 128 Q 0 189 0 256 Q 0 323 34 384 Q 70 444 128 478 Q 186 511 256 512 L 256 512 Z M 224 256 L 224 240 L 224 256 L 224 240 L 208 240 L 144 240 L 144 239 L 144 239 L 256 127 L 256 127 L 368 239 L 368 239 L 368 240 L 368 240 L 304 240 L 288 240 L 288 256 L 288 256 L 288 368 L 288 368 L 224 368 L 224 368 L 224 256 L 224 256 Z M 245 115 L 128 232 L 245 115 L 128 232 L 128 240 L 128 240 L 128 256 L 128 256 L 144 256 L 208 256 L 208 272 L 208 272 L 208 368 L 208 368 L 208 384 L 208 384 L 224 384 L 304 384 L 304 368 L 304 368 L 304 272 L 304 272 L 304 256 L 304 256 L 320 256 L 384 256 L 384 240 L 384 240 L 384 232 L 384 232 L 267 115 L 267 115 L 256 104 L 256 104 L 245 115 L 245 115 Z" />
</svg>