<svg xmlns="http://www.w3.org/2000/svg" viewBox="0 0 640 512">
  <path d="M 236 120 L 416 0 L 236 120 L 416 0 L 608 128 L 608 128 L 638 320 L 638 320 L 640 336 L 640 336 L 624 336 L 463 336 L 461 320 L 461 320 L 621 320 L 621 320 L 593 137 L 593 137 L 416 19 L 416 19 L 251 130 L 251 130 L 246 127 L 246 127 L 236 120 L 236 120 Z M 16 512 L 0 512 L 16 512 L 0 512 L 2 496 L 2 496 L 32 288 L 32 288 L 224 160 L 224 160 L 416 288 L 416 288 L 446 496 L 446 496 L 448 512 L 448 512 L 432 512 L 16 512 Z M 322 496 L 232 349 L 322 496 L 232 349 L 232 496 L 232 496 L 322 496 L 322 496 Z M 216 185 L 47 297 L 216 185 L 47 297 L 18 496 L 18 496 L 216 496 L 216 496 L 216 185 L 216 185 Z M 401 297 L 232 185 L 401 297 L 232 185 L 232 318 L 232 318 L 341 496 L 341 496 L 430 496 L 430 496 L 401 297 L 401 297 Z" />
</svg>