<svg xmlns="http://www.w3.org/2000/svg" viewBox="0 0 576 512">
  <path d="M 0 352 Q 8 349 15 345 Q 86 312 124 285 Q 162 259 180 236 Q 199 213 211 190 Q 211 190 211 190 Q 224 166 245 139 Q 267 112 314 78 Q 360 44 448 0 L 566 147 L 566 147 L 576 160 L 576 160 Q 569 164 561 167 Q 480 209 436 242 Q 393 274 372 300 Q 351 327 339 350 Q 339 350 339 350 Q 339 350 339 350 Q 326 373 307 397 Q 288 421 247 449 Q 206 477 128 512 L 10 365 L 10 365 L 0 352 L 0 352 Z M 76 421 Q 162 375 210 327 L 210 327 L 210 327 Q 258 278 290 232 L 294 227 L 294 227 Q 327 178 373 138 Q 415 100 489 76 L 444 20 L 444 20 Q 384 51 346 76 Q 308 100 285 121 Q 262 142 249 160 Q 236 179 226 196 L 225 198 L 225 198 Q 224 199 224 199 Q 214 216 201 235 Q 188 253 166 273 Q 145 292 111 313 Q 77 334 25 358 L 76 421 L 76 421 Z M 86 434 L 133 492 L 86 434 L 133 492 Q 186 467 220 447 Q 254 426 273 409 Q 292 391 304 375 Q 315 359 325 342 L 326 340 L 326 340 Q 336 322 351 301 Q 366 281 392 257 Q 416 235 454 210 Q 493 185 551 155 L 499 90 L 499 90 Q 424 113 383 150 Q 340 188 306 237 L 303 241 L 303 241 Q 270 288 222 337 Q 173 387 86 434 L 86 434 Z" />
</svg>