<svg xmlns="http://www.w3.org/2000/svg" viewBox="0 0 502 502">
  <path d="M 451 219 L 459 219 L 451 219 L 459 219 L 459 203 L 459 203 L 451 203 L 310 203 L 497 17 L 497 17 L 502 11 L 502 11 L 491 0 L 491 0 L 485 5 L 485 5 L 299 192 L 299 192 L 299 51 L 299 51 L 299 43 L 299 43 L 283 43 L 283 43 L 283 51 L 283 51 L 283 211 L 283 211 L 283 219 L 283 219 L 291 219 L 451 219 Z M 51 283 L 43 283 L 51 283 L 43 283 L 43 299 L 43 299 L 51 299 L 192 299 L 5 485 L 5 485 L 0 491 L 0 491 L 11 502 L 11 502 L 17 497 L 17 497 L 203 310 L 203 310 L 203 451 L 203 451 L 203 459 L 203 459 L 219 459 L 219 459 L 219 451 L 219 451 L 219 291 L 219 291 L 219 283 L 219 283 L 211 283 L 51 283 Z" />
</svg>