<svg xmlns="http://www.w3.org/2000/svg" viewBox="0 0 510 522">
  <path d="M 407 6 L 401 0 L 407 6 L 401 0 L 395 6 L 395 6 L 216 185 L 216 185 L 216 186 L 216 186 L 215 187 L 215 187 L 120 338 L 120 338 L 26 432 L 26 432 L 17 422 L 17 422 L 11 417 L 11 417 L 0 428 L 0 428 L 5 434 L 5 434 L 76 504 L 76 504 L 81 510 L 81 510 L 93 498 L 93 498 L 87 493 L 87 493 L 77 483 L 77 483 L 171 389 L 171 389 L 322 294 L 322 294 L 323 293 L 323 293 L 324 293 L 324 293 L 503 114 L 503 114 L 509 108 L 509 108 L 503 102 L 503 102 L 407 6 L 407 6 Z M 37 443 L 122 358 L 37 443 L 122 358 L 151 387 L 151 387 L 66 472 L 66 472 L 37 443 L 37 443 Z M 133 347 L 228 196 L 133 347 L 228 196 L 401 23 L 401 23 L 486 108 L 486 108 L 313 281 L 313 281 L 162 376 L 162 376 L 133 347 L 133 347 Z M 366 431 Q 367 395 398 376 Q 430 358 462 376 Q 493 395 494 431 Q 493 467 462 486 Q 430 504 398 486 Q 367 467 366 431 L 366 431 Z M 510 431 Q 509 386 470 362 Q 430 340 390 362 Q 351 386 350 431 Q 351 476 390 500 Q 430 522 470 500 Q 509 476 510 431 L 510 431 Z" />
</svg>