<svg xmlns="http://www.w3.org/2000/svg" viewBox="0 0 640 512">
  <path d="M 87 198 Q 108 118 171 68 L 171 68 L 171 68 Q 234 18 320 16 Q 406 18 469 68 Q 532 118 553 198 Q 554 198 555 198 Q 563 200 570 201 Q 549 113 482 57 Q 414 2 320 0 Q 226 2 158 57 Q 91 113 70 201 Q 77 200 85 198 Q 86 198 87 198 L 87 198 Z M 108 369 Q 101 373 94 376 Q 127 438 186 474 Q 246 511 320 512 Q 394 511 454 474 Q 513 438 546 376 Q 539 373 532 369 Q 501 426 445 461 Q 390 495 320 496 Q 250 495 195 461 Q 139 426 108 369 L 108 369 Z M 200 226 Q 204 204 215 186 Q 226 168 240 168 Q 253 168 265 186 Q 276 204 280 226 L 296 223 L 296 223 Q 291 199 278 177 Q 265 155 240 152 Q 214 155 201 177 Q 188 199 184 223 L 199 226 L 200 226 Z M 360 226 Q 364 204 375 186 Q 386 168 400 168 Q 413 168 425 186 Q 436 204 440 226 L 456 223 L 456 223 Q 451 199 438 177 Q 425 155 400 152 Q 374 155 361 177 Q 348 199 344 223 L 360 226 L 360 226 Z M 28 324 Q 16 311 16 294 L 16 294 L 16 294 Q 16 278 28 265 Q 28 265 28 265 Q 30 263 43 258 Q 55 253 72 250 Q 92 246 109 243 Q 106 260 102 280 Q 99 297 94 309 Q 89 322 86 325 Q 74 336 58 336 Q 41 336 28 324 L 28 324 Z M 16 254 Q 0 272 0 294 L 0 294 L 0 294 Q 0 317 17 335 Q 35 352 57 352 Q 80 352 98 336 Q 108 323 115 295 Q 122 266 126 240 Q 127 231 128 224 Q 121 225 112 226 Q 86 230 57 237 Q 28 244 16 254 L 16 254 Z M 612 265 Q 624 278 624 294 L 624 294 L 624 294 Q 624 311 612 324 Q 599 336 582 336 Q 566 336 554 325 Q 551 322 546 309 Q 542 297 538 280 Q 534 260 531 243 Q 548 246 568 250 Q 584 253 597 258 Q 610 263 612 265 Q 612 265 612 265 Q 612 265 612 265 L 612 265 Z M 529 226 Q 523 226 519 225 L 519 225 L 519 225 Q 515 224 512 224 Q 513 231 514 240 Q 518 266 525 294 Q 532 323 543 336 Q 560 352 583 352 Q 605 352 623 335 Q 640 317 640 294 Q 640 271 624 254 Q 612 243 583 237 Q 554 230 529 226 L 529 226 Z M 320 348 Q 393 347 455 329 Q 437 368 402 392 Q 366 415 320 416 Q 275 415 239 392 Q 203 368 185 329 Q 247 347 320 348 L 320 348 Z M 320 332 Q 242 331 178 310 Q 169 306 160 303 Q 162 313 165 322 Q 183 371 225 401 Q 266 431 320 432 Q 375 431 416 401 Q 457 371 475 322 Q 478 313 480 303 Q 472 306 462 310 Q 398 331 320 332 L 320 332 Z" />
</svg>