<svg xmlns="http://www.w3.org/2000/svg" viewBox="0 0 512 512">
  <path d="M 256 16 Q 189 17 135 49 L 135 49 L 135 49 Q 81 81 49 135 L 49 135 L 49 135 Q 17 189 16 256 Q 16 275 19 292 Q 130 335 256 336 Q 382 335 493 292 Q 495 279 496 264 L 416 264 L 408 264 L 408 248 L 408 248 L 416 248 L 512 248 L 512 256 L 512 256 Q 512 278 508 299 L 508 303 L 508 303 L 504 305 L 504 305 L 503 306 L 503 306 L 502 306 L 502 306 L 502 306 L 502 306 Q 387 351 256 352 Q 132 351 22 311 Q 43 392 106 443 Q 169 494 256 496 Q 318 495 369 468 Q 421 440 454 392 L 400 392 L 392 392 L 392 376 L 392 376 L 400 376 L 469 376 L 475 388 L 475 388 Q 441 445 384 478 Q 327 511 256 512 Q 184 511 127 477 Q 69 443 35 385 Q 1 328 0 256 Q 1 184 35 127 Q 69 69 127 35 Q 184 1 256 0 Q 315 0 366 25 Q 416 49 452 91 L 446 104 L 446 104 L 360 104 L 352 104 L 352 88 L 352 88 L 360 88 L 427 88 Q 394 54 351 35 Q 307 16 256 16 L 256 16 Z M 344 144 L 352 144 L 344 144 L 456 144 L 456 160 L 456 160 L 448 160 L 344 160 L 344 144 L 344 144 Z M 344 192 L 352 192 L 344 192 L 456 192 L 456 208 L 456 208 L 448 208 L 344 208 L 344 192 L 344 192 Z M 192 224 Q 228 223 247 192 Q 265 160 247 128 Q 228 97 192 96 Q 156 97 137 128 Q 119 160 137 192 Q 156 223 192 224 L 192 224 Z M 192 80 Q 237 81 261 120 Q 283 160 261 200 Q 237 239 192 240 Q 147 239 123 200 Q 101 160 123 120 Q 147 81 192 80 L 192 80 Z M 192 144 Q 207 145 208 160 Q 207 175 192 176 Q 177 175 176 160 Q 177 145 192 144 L 192 144 Z" />
</svg>