<svg xmlns="http://www.w3.org/2000/svg" viewBox="0 0 384 512">
  <path d="M 16 16 L 16 496 L 16 16 L 16 496 L 368 496 L 368 496 L 368 16 L 368 16 L 16 16 L 16 16 Z M 0 0 L 16 0 L 0 0 L 384 0 L 384 16 L 384 16 L 384 496 L 384 496 L 384 512 L 384 512 L 368 512 L 0 512 L 0 496 L 0 496 L 0 16 L 0 16 L 0 0 L 0 0 Z M 80 80 L 80 176 L 80 80 L 80 176 L 304 176 L 304 176 L 304 80 L 304 80 L 80 80 L 80 80 Z M 64 64 L 80 64 L 64 64 L 320 64 L 320 80 L 320 80 L 320 176 L 320 176 L 320 192 L 320 192 L 304 192 L 64 192 L 64 176 L 64 176 L 64 80 L 64 80 L 64 64 L 64 64 Z M 192 432 Q 218 432 240 419 L 240 419 L 240 419 Q 262 406 275 384 Q 288 361 288 336 Q 288 311 275 288 Q 262 266 240 253 Q 218 240 192 240 Q 166 240 144 253 Q 122 266 109 288 Q 96 311 96 336 Q 96 361 109 384 Q 122 406 144 419 Q 166 432 192 432 L 192 432 Z M 192 224 Q 222 224 248 239 L 248 239 L 248 239 Q 274 254 289 280 Q 304 306 304 336 Q 304 366 289 392 Q 274 418 248 433 Q 222 448 192 448 Q 162 448 136 433 Q 110 418 95 392 Q 80 366 80 336 Q 80 306 95 280 Q 110 254 136 239 Q 162 224 192 224 L 192 224 Z M 208 336 Q 207 321 192 320 Q 177 321 176 336 Q 177 351 192 352 Q 207 351 208 336 L 208 336 Z M 160 336 Q 160 322 169 313 L 169 313 L 169 313 Q 178 304 192 304 Q 206 304 215 313 Q 224 322 224 336 Q 224 350 215 359 Q 206 368 192 368 Q 178 368 169 359 Q 160 350 160 336 L 160 336 Z" />
</svg>