<svg xmlns="http://www.w3.org/2000/svg" viewBox="0 0 512 480">
  <path d="M 460 382 L 452 395 L 460 382 L 452 395 L 465 404 L 465 404 L 496 425 L 496 425 L 496 464 L 496 464 L 380 464 L 16 464 L 16 425 L 16 425 L 47 404 L 47 404 L 60 395 L 60 395 L 52 382 L 52 382 Q 17 326 16 256 Q 17 189 49 135 Q 81 81 135 49 Q 189 17 256 16 Q 323 17 377 49 Q 431 81 463 135 Q 495 189 496 256 Q 495 326 460 382 L 460 382 Z M 512 464 L 512 416 L 512 464 L 512 416 L 474 391 L 474 391 Q 511 331 512 256 Q 511 184 477 127 Q 443 69 385 35 Q 328 1 256 0 Q 184 1 127 35 Q 69 69 35 127 Q 1 184 0 256 Q 1 331 38 391 L 0 416 L 0 416 L 0 464 L 0 464 L 0 480 L 0 480 L 16 480 L 512 480 L 512 464 L 512 464 Z M 400 256 Q 400 275 395 293 L 319 268 L 319 268 Q 320 262 320 256 Q 319 228 300 209 L 347 144 L 347 144 Q 398 186 400 256 L 400 256 Z M 314 283 L 390 308 L 314 283 L 390 308 Q 375 347 341 372 Q 308 397 264 400 L 264 320 L 264 320 Q 299 314 314 283 L 314 283 Z M 248 320 L 248 400 L 248 320 L 248 400 Q 204 397 171 372 Q 137 347 122 308 L 198 283 L 198 283 Q 213 314 248 320 L 248 320 Z M 112 256 Q 114 186 165 144 L 203 197 L 203 197 L 212 209 L 212 209 Q 193 228 192 256 Q 192 262 193 268 L 117 293 L 117 293 Q 112 275 112 256 L 112 256 Z M 256 192 Q 239 192 225 200 L 216 187 L 216 187 L 178 135 L 178 135 Q 212 113 256 112 Q 300 113 334 135 L 287 200 L 287 200 Q 273 192 256 192 L 256 192 Z M 416 256 Q 416 213 395 176 L 395 176 L 395 176 Q 373 139 336 117 Q 298 96 256 96 Q 214 96 176 117 Q 139 139 117 176 Q 96 213 96 256 Q 96 299 117 336 Q 139 373 176 395 Q 214 416 256 416 Q 298 416 336 395 Q 373 373 395 336 Q 416 299 416 256 L 416 256 Z M 208 256 Q 209 229 232 214 Q 256 202 280 214 Q 303 229 304 256 Q 303 283 280 298 Q 256 310 232 298 Q 209 283 208 256 L 208 256 Z" />
</svg>