<svg xmlns="http://www.w3.org/2000/svg" viewBox="0 0 272 448">
  <path d="M 16 0 L 16 8 L 16 0 L 16 8 L 16 440 L 16 440 L 16 448 L 16 448 L 0 448 L 0 448 L 0 440 L 0 440 L 0 8 L 0 8 L 0 0 L 0 0 L 16 0 L 16 0 Z M 144 0 L 144 8 L 144 0 L 144 8 L 144 440 L 144 440 L 144 448 L 144 448 L 128 448 L 128 448 L 128 440 L 128 440 L 128 8 L 128 8 L 128 0 L 128 0 L 144 0 L 144 0 Z M 272 8 L 272 440 L 272 8 L 272 440 L 272 448 L 272 448 L 256 448 L 256 448 L 256 440 L 256 440 L 256 8 L 256 8 L 256 0 L 256 0 L 272 0 L 272 0 L 272 8 L 272 8 Z" />
</svg>