<svg xmlns="http://www.w3.org/2000/svg" viewBox="0 0 578 384">
  <path d="M 263 272 L 273 272 L 263 272 L 315 272 L 319 281 L 319 281 L 363 368 L 363 368 L 401 368 L 401 368 Q 469 367 514 326 Q 559 286 561 208 Q 563 127 507 74 Q 477 48 424 32 Q 371 16 289 16 Q 207 16 154 32 Q 101 48 72 74 Q 15 127 17 208 Q 19 286 64 326 Q 109 367 177 368 L 215 368 L 215 368 L 259 281 L 259 281 L 263 272 L 263 272 Z M 225 384 L 177 384 L 225 384 L 177 384 Q 103 384 53 338 Q 3 293 1 208 Q 0 151 26 104 Q 52 57 115 29 Q 178 1 289 0 Q 400 1 463 29 Q 526 57 552 104 Q 578 151 577 208 Q 575 293 525 338 Q 475 384 401 384 L 353 384 L 353 384 L 305 288 L 305 288 L 273 288 L 273 288 L 225 384 L 225 384 Z M 161 240 Q 188 239 203 216 Q 215 192 203 168 Q 188 145 161 144 Q 134 145 119 168 Q 107 192 119 216 Q 134 239 161 240 L 161 240 Z M 161 128 Q 197 129 216 160 Q 234 192 216 224 Q 197 255 161 256 Q 125 255 106 224 Q 88 192 106 160 Q 125 129 161 128 L 161 128 Z M 465 192 Q 464 165 441 150 Q 417 138 393 150 Q 370 165 369 192 Q 370 219 393 234 Q 417 246 441 234 Q 464 219 465 192 L 465 192 Z M 353 192 Q 354 156 385 137 Q 417 119 449 137 Q 480 156 481 192 Q 480 228 449 247 Q 417 265 385 247 Q 354 228 353 192 L 353 192 Z" />
</svg>