<svg xmlns="http://www.w3.org/2000/svg" viewBox="0 0 384 512">
  <path d="M 368 16 L 368 496 L 368 16 L 368 496 L 16 496 L 16 496 L 16 16 L 16 16 L 368 16 L 368 16 Z M 16 0 L 0 0 L 16 0 L 0 0 L 0 16 L 0 16 L 0 496 L 0 496 L 0 512 L 0 512 L 16 512 L 384 512 L 384 496 L 384 496 L 384 16 L 384 16 L 384 0 L 384 0 L 368 0 L 16 0 Z M 200 327 Q 216 336 235 336 Q 264 335 284 316 Q 303 296 304 267 Q 304 245 292 228 Q 280 211 261 203 Q 261 200 261 197 Q 260 168 241 148 Q 221 129 192 128 Q 163 129 143 148 Q 124 168 123 197 Q 123 200 123 203 Q 104 211 92 228 Q 80 245 80 267 Q 81 296 100 316 Q 120 335 149 336 Q 168 336 184 327 L 184 368 L 184 368 L 160 368 L 152 368 L 152 384 L 152 384 L 160 384 L 232 384 L 232 368 L 232 368 L 224 368 L 200 368 L 200 327 L 200 327 Z M 139 197 Q 139 175 154 160 L 154 160 L 154 160 Q 169 145 192 144 Q 215 145 230 160 Q 245 175 245 197 Q 245 202 244 207 L 243 214 L 243 214 L 250 216 L 250 216 Q 267 221 277 235 Q 288 248 288 267 Q 287 289 272 304 Q 257 319 235 320 Q 212 319 197 305 L 192 299 L 192 299 L 186 305 L 186 305 Q 171 319 149 320 Q 127 319 112 304 Q 97 289 96 267 Q 96 249 107 235 Q 117 221 134 216 L 141 214 L 141 214 L 140 207 L 140 207 Q 139 202 139 197 L 139 197 Z" />
</svg>