<svg xmlns="http://www.w3.org/2000/svg" viewBox="0 0 469 512">
  <path d="M 221 0 L 213 0 L 221 0 L 213 0 L 213 8 L 213 8 L 213 32 L 213 32 L 141 32 L 133 32 L 133 40 L 133 40 L 133 316 L 133 316 L 101 284 L 101 284 L 73 256 L 73 256 L 67 251 L 67 251 L 62 256 L 62 256 L 5 313 L 5 313 L 0 318 L 0 318 L 5 324 L 5 324 L 34 352 L 34 352 L 123 442 L 123 442 Q 157 476 201 494 Q 244 512 293 512 L 301 512 L 301 512 Q 373 510 420 463 Q 467 416 469 344 L 469 104 L 469 104 L 469 96 L 469 96 L 461 96 L 389 96 L 389 40 L 389 40 L 389 32 L 389 32 L 381 32 L 309 32 L 309 8 L 309 8 L 309 0 L 309 0 L 301 0 L 221 0 Z M 309 48 L 373 48 L 309 48 L 373 48 L 373 96 L 373 96 L 373 104 L 373 104 L 373 248 L 373 248 L 373 256 L 373 256 L 389 256 L 389 256 L 389 248 L 389 248 L 389 112 L 389 112 L 453 112 L 453 112 L 453 344 L 453 344 Q 451 409 408 451 Q 366 494 301 496 L 293 496 L 293 496 Q 248 496 207 479 Q 166 462 134 430 L 45 341 L 45 341 L 22 318 L 22 318 L 67 273 L 67 273 L 90 296 L 90 296 L 135 341 L 135 341 L 149 335 L 149 335 L 149 48 L 149 48 L 213 48 L 213 48 L 213 248 L 213 248 L 213 256 L 213 256 L 229 256 L 229 256 L 229 248 L 229 248 L 229 48 L 229 48 L 229 40 L 229 40 L 229 32 L 229 32 L 229 16 L 229 16 L 293 16 L 293 16 L 293 32 L 293 32 L 293 40 L 293 40 L 293 248 L 293 248 L 293 256 L 293 256 L 309 256 L 309 256 L 309 248 L 309 248 L 309 184 L 309 184 L 309 48 L 309 48 Z" />
</svg>