<svg xmlns="http://www.w3.org/2000/svg" viewBox="0 0 524 515">
  <path d="M 252 34 Q 269 59 277 103 Q 307 88 341 96 Q 357 100 370 108 Q 404 87 445 96 Q 485 107 504 140 Q 524 173 515 212 L 459 436 L 459 436 Q 448 476 415 495 Q 382 515 343 506 Q 327 502 314 494 Q 305 499 296 503 Q 280 509 262 509 Q 244 509 228 503 Q 218 499 210 494 Q 197 502 181 506 Q 141 515 109 495 Q 76 476 65 436 L 9 212 L 9 212 Q 0 172 20 140 Q 39 107 79 96 Q 120 87 154 108 Q 165 101 179 97 Q 179 97 180 97 Q 181 96 181 96 Q 182 96 183 96 L 183 96 L 183 96 L 198 92 L 198 92 L 199 93 L 199 93 Q 223 92 244 101 Q 237 69 224 51 Q 216 38 210 31 Q 207 28 205 27 Q 204 26 204 25 L 204 25 L 204 25 Q 204 25 204 25 Q 204 25 204 25 L 214 13 L 214 13 Q 221 4 223 2 Q 225 0 224 1 Q 224 1 224 1 Q 224 1 224 1 Q 224 1 224 1 Q 224 1 224 1 L 225 1 L 225 1 L 225 2 L 225 2 Q 226 2 226 2 Q 227 3 227 3 Q 230 5 233 10 Q 241 18 252 33 L 252 34 Z M 191 127 L 191 127 L 191 127 L 191 127 Q 164 134 151 156 Q 138 178 144 205 L 182 355 L 182 355 L 185 371 L 185 371 L 154 378 L 154 378 L 151 363 L 151 363 L 113 212 L 113 212 Q 103 167 129 131 Q 109 122 87 127 Q 60 134 47 156 Q 34 178 40 205 L 96 429 L 96 429 Q 103 455 125 468 Q 147 481 174 475 Q 189 471 200 462 L 210 453 L 210 453 L 220 462 L 220 462 Q 229 469 240 473 Q 240 473 240 473 Q 240 473 240 473 Q 250 477 262 477 Q 262 477 262 477 Q 262 477 262 477 Q 274 477 284 473 Q 284 473 284 473 Q 295 469 304 462 L 314 453 L 314 453 L 324 462 L 324 462 Q 335 471 350 475 Q 377 481 399 468 Q 421 455 428 429 L 484 205 L 484 205 Q 490 178 477 156 Q 464 134 437 127 Q 405 120 380 140 L 370 149 L 370 149 L 360 140 L 360 140 Q 349 131 334 127 Q 298 120 273 143 L 262 154 L 262 154 L 251 143 L 251 143 Q 226 120 191 127 L 191 127 Z M 262 509 Q 262 509 262 509 L 262 509 L 262 509 Q 262 509 262 509 L 262 493 L 262 493 L 262 509 L 262 509 Q 262 509 262 509 Q 262 509 262 509 L 262 509 Z" />
</svg>