<svg xmlns="http://www.w3.org/2000/svg" viewBox="0 0 448 448">
  <path d="M 16 16 L 16 432 L 16 16 L 16 432 L 432 432 L 432 432 L 432 16 L 432 16 L 16 16 L 16 16 Z M 0 0 L 16 0 L 0 0 L 448 0 L 448 16 L 448 16 L 448 432 L 448 432 L 448 448 L 448 448 L 432 448 L 0 448 L 0 432 L 0 432 L 0 16 L 0 16 L 0 0 L 0 0 Z M 136 96 L 224 96 L 136 96 L 224 96 Q 278 97 315 133 Q 351 170 352 224 Q 351 278 315 315 Q 278 351 224 352 L 136 352 L 128 352 L 128 344 L 128 344 L 128 104 L 128 104 L 128 96 L 128 96 L 136 96 L 136 96 Z M 144 336 L 224 336 L 144 336 L 224 336 Q 272 335 303 303 Q 335 272 336 224 Q 335 176 303 145 Q 272 113 224 112 L 144 112 L 144 112 L 144 336 L 144 336 Z" />
</svg>