<svg xmlns="http://www.w3.org/2000/svg" viewBox="0 0 576 512">
  <path d="M 400 64 Q 402 50 371 33 Q 339 17 288 16 Q 237 17 205 33 Q 174 50 176 64 Q 175 74 192 87 Q 187 94 184 102 Q 161 85 160 64 Q 161 37 197 19 Q 234 1 288 0 Q 342 1 379 19 Q 415 37 416 64 Q 415 85 392 102 Q 389 94 385 87 Q 401 74 400 64 L 400 64 Z M 288 208 Q 324 207 343 176 Q 361 144 343 112 Q 324 81 288 80 Q 252 81 233 112 Q 215 144 233 176 Q 252 207 288 208 L 288 208 Z M 288 64 Q 333 65 357 104 Q 379 144 357 184 Q 333 223 288 224 Q 243 223 219 184 Q 197 144 219 104 Q 243 65 288 64 L 288 64 Z M 63 346 L 66 352 L 63 346 L 66 352 L 63 359 L 63 359 L 16 460 L 16 460 L 16 496 L 16 496 L 104 496 L 104 496 L 224 256 L 224 256 L 225 256 L 225 256 L 145 176 L 145 176 L 32 176 L 32 176 L 32 277 L 32 277 L 63 346 L 63 346 Z M 248 256 L 328 256 L 248 256 L 328 256 L 424 160 L 424 160 L 544 160 L 560 160 L 560 176 L 560 176 L 560 280 L 560 280 L 528 352 L 528 352 L 576 456 L 576 456 L 576 496 L 576 496 L 576 512 L 576 512 L 560 512 L 0 512 L 0 496 L 0 496 L 0 456 L 0 456 L 48 352 L 48 352 L 16 280 L 16 280 L 16 176 L 16 176 L 16 160 L 16 160 L 32 160 L 152 160 L 248 256 L 248 256 Z M 351 256 L 352 256 L 351 256 L 352 256 L 472 496 L 472 496 L 560 496 L 560 496 L 560 460 L 560 460 L 514 359 L 514 359 L 511 352 L 511 352 L 513 346 L 513 346 L 544 277 L 544 277 L 544 176 L 544 176 L 431 176 L 431 176 L 351 256 L 351 256 Z M 122 496 L 454 496 L 122 496 L 454 496 L 342 272 L 342 272 L 234 272 L 234 272 L 122 496 L 122 496 Z" />
</svg>