<svg xmlns="http://www.w3.org/2000/svg" viewBox="0 0 576 448">
  <path d="M 190 181 Q 211 111 241 70 L 241 70 L 241 70 Q 270 29 285 17 Q 286 16 288 16 Q 290 16 291 17 Q 306 29 336 70 Q 365 111 386 181 Q 393 177 400 172 Q 378 101 348 59 Q 317 18 302 5 Q 296 0 288 0 Q 280 0 274 5 Q 259 18 228 59 Q 198 101 176 172 Q 183 177 190 181 L 190 181 Z M 0 176 Q 6 256 49 320 L 49 320 L 49 320 Q 91 383 160 418 Q 220 448 287 448 L 289 448 L 289 448 Q 356 448 416 418 Q 485 383 527 320 Q 570 256 576 176 Q 576 168 576 160 L 560 160 L 560 160 Q 480 161 416 200 Q 368 229 335 274 Q 302 319 288 374 Q 274 319 241 274 Q 208 229 160 200 Q 96 161 16 160 L 0 160 L 0 160 Q 0 168 0 176 L 0 176 Z M 160 400 Q 98 366 60 308 L 60 308 L 60 308 Q 22 249 17 176 Q 97 178 160 219 Q 213 254 245 309 Q 277 364 280 432 Q 214 429 160 400 L 160 400 Z M 560 176 Q 555 247 519 303 L 519 303 L 519 303 Q 483 360 425 394 L 425 394 L 425 394 Q 367 429 296 432 Q 299 364 331 309 Q 363 254 416 219 Q 479 177 559 176 L 560 176 Z" />
</svg>