<svg xmlns="http://www.w3.org/2000/svg" viewBox="0 0 640 512">
  <path d="M 496 16 Q 531 16 560 33 L 560 33 L 560 33 Q 589 50 607 80 Q 624 110 624 144 Q 624 178 607 208 Q 589 238 560 255 Q 531 272 496 272 Q 461 272 432 255 Q 403 238 385 208 Q 368 178 368 144 Q 368 110 385 80 Q 403 50 432 33 Q 461 16 496 16 L 496 16 Z M 496 288 Q 535 288 568 269 L 568 269 L 568 269 Q 601 250 621 216 Q 640 182 640 144 Q 640 106 621 72 Q 601 38 568 19 Q 535 0 496 0 Q 457 0 424 19 Q 391 38 371 72 Q 352 106 352 144 Q 352 182 371 216 Q 391 250 424 269 Q 457 288 496 288 L 496 288 Z M 504 64 L 488 64 L 504 64 L 488 64 L 488 72 L 488 72 L 488 144 L 488 144 L 488 152 L 488 152 L 496 152 L 560 152 L 560 136 L 560 136 L 552 136 L 504 136 L 504 72 L 504 72 L 504 64 L 504 64 Z M 512 336 Q 512 328 511 319 Q 504 320 496 320 L 495 320 L 495 320 Q 496 328 496 336 Q 495 379 478 410 Q 461 441 438 460 Q 432 465 427 469 Q 432 452 432 432 Q 431 378 395 341 Q 358 305 304 304 L 224 304 L 208 304 L 208 320 L 208 320 L 208 400 L 208 400 L 198 400 L 198 400 L 24 240 L 24 240 L 198 80 L 198 80 L 208 80 L 208 80 L 208 160 L 208 160 L 208 176 L 208 176 L 224 176 L 323 176 Q 321 168 321 160 L 240 160 L 224 160 L 224 144 L 224 144 L 224 80 L 224 80 L 224 64 L 224 64 L 208 64 L 192 64 L 12 229 L 12 229 L 0 240 L 0 240 L 12 251 L 12 251 L 192 416 L 192 416 L 208 416 L 224 416 L 224 400 L 224 400 L 224 336 L 224 336 L 224 320 L 224 320 L 240 320 L 304 320 Q 352 321 383 353 Q 415 384 416 432 Q 415 464 403 485 Q 387 511 384 512 Q 386 512 415 496 Q 446 479 478 440 Q 509 401 512 336 L 512 336 Z" />
</svg>