<svg xmlns="http://www.w3.org/2000/svg" viewBox="0 0 522 510">
  <path d="M 397 0 L 417 12 L 397 0 L 417 12 L 485 55 L 485 55 L 505 68 L 505 68 L 492 88 L 492 88 L 270 441 L 270 441 Q 249 473 217 491 Q 185 509 146 510 Q 84 508 42 467 Q 1 425 0 362 L 0 359 L 0 359 Q 0 314 24 277 L 44 291 L 44 291 L 24 277 L 24 277 L 58 227 L 58 227 L 71 207 L 71 207 L 91 220 L 91 220 L 158 264 L 158 264 L 178 277 L 178 277 L 165 297 L 165 297 L 131 348 L 131 348 Q 128 353 128 360 L 128 363 L 128 363 Q 129 380 146 382 Q 156 381 162 373 L 384 20 L 384 20 L 397 0 L 397 0 Z M 367 138 L 202 399 L 367 138 L 202 399 Q 182 429 146 430 Q 118 429 99 410 Q 80 391 80 363 L 80 359 L 80 359 Q 80 339 91 321 L 111 291 L 111 291 L 84 273 L 84 273 L 64 304 L 64 304 Q 48 329 48 359 L 48 363 L 48 363 Q 48 405 76 433 Q 104 461 146 462 Q 200 460 229 416 L 392 157 L 392 157 L 367 138 L 367 138 Z M 431 462 Q 445 462 454 453 L 454 453 L 454 453 Q 463 444 463 430 Q 463 416 454 407 Q 445 398 431 398 Q 417 398 408 407 Q 399 416 399 430 Q 399 444 408 453 Q 417 462 431 462 L 431 462 Z M 431 350 Q 476 351 500 390 Q 522 430 500 470 Q 476 509 431 510 Q 386 509 362 470 Q 340 430 362 390 Q 386 351 431 350 L 431 350 Z" />
</svg>