<svg xmlns="http://www.w3.org/2000/svg" viewBox="0 0 592 512">
  <path d="M 304 0 L 304 8 L 304 0 L 304 8 L 304 504 L 304 504 L 304 512 L 304 512 L 288 512 L 288 512 L 288 504 L 288 504 L 288 8 L 288 8 L 288 0 L 288 0 L 304 0 L 304 0 Z M 496 64 L 496 72 L 496 64 L 496 72 L 496 440 L 496 440 L 496 448 L 496 448 L 480 448 L 480 448 L 480 440 L 480 440 L 480 72 L 480 72 L 480 64 L 480 64 L 496 64 L 496 64 Z M 208 96 L 208 104 L 208 96 L 208 104 L 208 408 L 208 408 L 208 416 L 208 416 L 192 416 L 192 416 L 192 408 L 192 408 L 192 104 L 192 104 L 192 96 L 192 96 L 208 96 L 208 96 Z M 400 128 L 400 136 L 400 128 L 400 136 L 400 376 L 400 376 L 400 384 L 400 384 L 384 384 L 384 384 L 384 376 L 384 376 L 384 136 L 384 136 L 384 128 L 384 128 L 400 128 L 400 128 Z M 112 192 L 112 200 L 112 192 L 112 200 L 112 312 L 112 312 L 112 320 L 112 320 L 96 320 L 96 320 L 96 312 L 96 312 L 96 200 L 96 200 L 96 192 L 96 192 L 112 192 L 112 192 Z M 16 224 L 16 232 L 16 224 L 16 232 L 16 280 L 16 280 L 16 288 L 16 288 L 0 288 L 0 288 L 0 280 L 0 280 L 0 232 L 0 232 L 0 224 L 0 224 L 16 224 L 16 224 Z M 592 224 L 592 232 L 592 224 L 592 232 L 592 280 L 592 280 L 592 288 L 592 288 L 576 288 L 576 288 L 576 280 L 576 280 L 576 232 L 576 232 L 576 224 L 576 224 L 592 224 L 592 224 Z" />
</svg>