<svg xmlns="http://www.w3.org/2000/svg" viewBox="0 0 576 480">
  <path d="M 432 16 L 16 16 L 432 16 L 16 16 L 16 432 L 16 432 L 285 432 L 285 432 Q 290 440 296 448 L 16 448 L 0 448 L 0 432 L 0 432 L 0 16 L 0 16 L 0 0 L 0 0 L 16 0 L 448 0 L 448 16 L 448 16 L 448 161 L 448 161 Q 440 160 432 160 L 432 16 L 432 16 Z M 224 64 Q 277 65 317 94 L 317 94 L 317 94 Q 357 123 375 170 Q 367 172 360 176 Q 344 133 308 107 Q 272 81 224 80 Q 163 82 122 122 Q 82 163 80 224 Q 82 285 122 326 Q 163 366 224 368 Q 242 368 258 364 Q 259 372 261 380 Q 243 384 224 384 Q 156 382 111 337 Q 66 292 64 224 Q 66 156 111 111 Q 156 66 224 64 L 224 64 Z M 240 224 Q 239 209 224 208 Q 209 209 208 224 Q 209 239 224 240 Q 239 239 240 224 L 240 224 Z M 192 224 Q 192 210 201 201 L 201 201 L 201 201 Q 210 192 224 192 Q 238 192 247 201 Q 256 210 256 224 Q 256 238 247 247 Q 238 256 224 256 Q 210 256 201 247 Q 192 238 192 224 L 192 224 Z M 560 336 Q 560 301 543 272 L 543 272 L 543 272 Q 526 243 496 225 Q 466 208 432 208 Q 398 208 368 225 Q 338 243 321 272 Q 304 301 304 336 Q 304 371 321 400 Q 338 429 368 447 Q 398 464 432 464 Q 466 464 496 447 Q 526 429 543 400 Q 560 371 560 336 L 560 336 Z M 288 336 Q 288 297 307 264 L 307 264 L 307 264 Q 326 231 360 211 Q 394 192 432 192 Q 470 192 504 211 Q 538 231 557 264 Q 576 297 576 336 Q 576 375 557 408 Q 538 441 504 461 Q 470 480 432 480 Q 394 480 360 461 Q 326 441 307 408 Q 288 375 288 336 L 288 336 Z M 440 264 L 440 328 L 440 264 L 440 328 L 504 328 L 512 328 L 512 344 L 512 344 L 504 344 L 440 344 L 440 408 L 440 408 L 440 416 L 440 416 L 424 416 L 424 416 L 424 408 L 424 408 L 424 344 L 424 344 L 360 344 L 352 344 L 352 328 L 352 328 L 360 328 L 424 328 L 424 264 L 424 264 L 424 256 L 424 256 L 440 256 L 440 256 L 440 264 L 440 264 Z" />
</svg>