<svg xmlns="http://www.w3.org/2000/svg" viewBox="0 0 448 512">
  <path d="M 192 288 L 192 336 L 192 288 L 192 336 L 144 336 L 116 336 L 224 444 L 224 444 L 332 336 L 332 336 L 304 336 L 256 336 L 256 288 L 256 288 L 256 208 L 256 208 L 192 208 L 192 208 L 192 288 L 192 288 Z M 190 478 L 64 352 L 190 478 L 64 352 L 64 336 L 64 336 L 64 288 L 64 288 L 96 288 L 144 288 L 144 240 L 144 240 L 144 208 L 144 208 L 144 160 L 144 160 L 192 160 L 304 160 L 304 208 L 304 208 L 304 240 L 304 240 L 304 288 L 304 288 L 336 288 L 384 288 L 384 336 L 384 336 L 384 352 L 384 352 L 258 478 L 258 478 L 224 512 L 224 512 L 190 478 L 190 478 Z M 400 168 L 400 48 L 400 168 L 400 48 L 48 48 L 48 48 L 48 168 L 48 168 L 48 192 L 48 192 L 0 192 L 0 192 L 0 168 L 0 168 L 0 24 L 0 24 L 0 0 L 0 0 L 24 0 L 448 0 L 448 24 L 448 24 L 448 168 L 448 168 L 448 192 L 448 192 L 400 192 L 400 192 L 400 168 L 400 168 Z" />
</svg>