<svg xmlns="http://www.w3.org/2000/svg" viewBox="0 0 484 512">
  <path d="M 236 19 L 242 17 L 236 19 L 242 17 L 248 19 L 248 19 L 455 100 L 455 100 L 465 104 L 465 104 L 466 114 L 466 114 Q 468 151 460 202 Q 453 253 430 308 Q 406 363 362 412 Q 318 460 248 492 L 242 495 L 242 495 L 236 492 L 236 492 Q 166 460 122 412 Q 78 363 55 308 Q 31 253 24 202 Q 16 151 19 114 L 19 104 L 19 104 L 29 100 L 29 100 L 236 19 L 236 19 Z M 482 113 L 480 93 L 482 113 L 480 93 L 461 85 L 461 85 L 254 5 L 254 5 L 242 0 L 242 0 L 230 5 L 230 5 L 23 85 L 23 85 L 4 93 L 4 93 L 3 113 L 3 113 Q 0 151 8 204 Q 16 257 40 314 Q 64 371 110 422 Q 156 474 229 507 L 242 512 L 242 512 L 255 507 L 255 507 Q 328 474 374 422 Q 420 371 444 314 Q 468 257 476 204 Q 484 151 481 113 L 482 113 Z M 242 176 Q 256 176 265 185 L 265 185 L 265 185 Q 274 194 274 208 Q 274 222 265 231 Q 256 240 242 240 Q 228 240 219 231 Q 210 222 210 208 Q 210 194 219 185 Q 228 176 242 176 L 242 176 Z M 290 208 Q 289 188 276 174 L 276 174 L 276 174 Q 262 161 242 160 Q 222 161 208 174 Q 195 188 194 208 Q 194 226 205 239 Q 217 252 234 255 L 234 328 L 234 328 L 234 336 L 234 336 L 250 336 L 250 336 L 250 328 L 250 328 L 250 255 L 250 255 Q 267 252 279 239 Q 290 226 290 208 L 290 208 Z" />
</svg>