<svg xmlns="http://www.w3.org/2000/svg" viewBox="0 0 641 448">
  <path d="M 304 32 L 410 32 L 304 32 L 410 32 L 419 77 L 419 77 Q 425 72 431 69 L 448 58 L 448 58 L 443 32 L 443 32 L 518 32 L 518 32 L 531 96 L 531 96 L 542 85 L 542 85 L 565 103 L 565 103 L 565 104 L 565 104 L 544 0 L 544 0 L 424 0 L 424 0 Q 424 0 424 0 Q 424 0 423 0 L 288 0 L 288 0 Q 288 0 288 0 Q 288 0 288 0 Q 288 0 288 0 Q 288 0 288 0 L 152 0 L 152 0 Q 152 0 152 0 Q 152 0 152 0 L 32 0 L 32 0 L 6 128 L 6 128 L 0 160 L 0 160 L 33 160 L 128 160 L 128 160 L 128 160 L 288 160 L 334 160 Q 338 154 343 148 Q 352 138 361 128 L 304 128 L 304 128 L 304 32 L 304 32 Z M 337 416 Q 324 401 314 384 L 92 384 L 92 384 L 70 192 L 70 192 L 38 192 L 38 192 L 41 224 L 41 224 L 16 224 L 0 224 L 0 256 L 0 256 L 16 256 L 45 256 L 64 417 L 64 417 L 64 432 L 64 432 L 64 448 L 64 448 L 96 448 L 96 448 L 96 432 L 96 432 L 96 416 L 96 416 L 337 416 L 337 416 Z M 272 32 L 272 128 L 272 32 L 272 128 L 147 128 L 147 128 L 165 32 L 165 32 L 272 32 L 272 32 Z M 133 32 L 115 128 L 133 32 L 115 128 L 39 128 L 39 128 L 58 32 L 58 32 L 133 32 L 133 32 Z M 489 137 L 448 96 L 489 137 L 448 96 Q 425 110 396 138 Q 366 166 344 204 Q 321 243 320 288 Q 322 353 364 398 Q 406 443 471 448 Q 475 448 480 448 Q 485 448 489 448 Q 554 443 596 398 Q 638 353 640 288 Q 641 266 621 222 Q 600 177 544 128 L 535 137 L 535 137 L 512 160 L 512 160 L 489 137 L 489 137 Z M 480 416 Q 476 416 473 416 Q 447 413 432 396 Q 416 380 416 359 Q 418 324 455 287 Q 469 274 480 264 Q 491 274 505 287 Q 542 324 544 359 Q 544 380 528 396 Q 513 413 487 416 Q 484 416 480 416 L 480 416 Z M 576 359 Q 574 323 551 292 L 551 292 L 551 292 Q 528 262 505 243 L 505 243 L 505 243 Q 482 225 480 224 L 480 224 L 480 224 Q 480 224 480 224 Q 478 225 455 243 Q 432 262 409 292 Q 386 323 384 359 Q 384 367 386 374 Q 353 339 352 288 Q 354 235 393 188 Q 419 157 444 138 L 489 183 L 489 183 L 512 205 L 512 205 L 535 183 L 535 183 L 545 172 L 545 172 Q 583 212 596 244 Q 609 276 608 288 Q 607 339 575 374 Q 576 367 576 359 L 576 359 Z" />
</svg>