<svg xmlns="http://www.w3.org/2000/svg" viewBox="0 0 512 512">
  <path d="M 263 41 L 0 304 L 263 41 L 0 304 L 0 400 L 0 400 L 112 512 L 112 512 L 208 512 L 208 512 L 471 249 L 471 249 Q 489 240 501 223 Q 512 206 512 184 Q 512 167 505 152 Q 512 137 512 120 Q 512 95 498 77 Q 484 58 461 51 Q 454 28 435 14 Q 417 0 392 0 Q 375 0 360 8 Q 345 0 328 0 Q 306 0 289 11 Q 272 23 263 41 L 263 41 Z M 278 48 Q 293 18 328 16 Q 344 16 356 24 L 360 26 L 360 26 L 364 24 L 364 24 Q 377 16 392 16 Q 412 16 427 28 Q 442 40 447 59 L 448 64 L 448 64 L 453 65 L 453 65 Q 472 70 484 85 Q 496 100 496 120 Q 496 136 489 148 L 486 152 L 486 152 L 489 156 L 489 156 Q 496 169 496 184 Q 494 219 464 235 Q 415 201 352 200 Q 329 200 307 205 Q 312 183 312 160 Q 311 97 278 48 L 278 48 Z M 16 393 L 16 336 L 16 393 L 16 336 Q 59 359 112 360 Q 179 359 230 321 Q 281 284 302 223 Q 326 216 352 216 Q 408 217 452 246 L 201 496 L 201 496 L 119 496 L 119 496 L 16 393 L 16 393 Z M 16 311 L 267 60 L 16 311 L 267 60 Q 295 104 296 160 Q 296 188 288 214 Q 270 272 222 307 Q 175 343 112 344 Q 59 343 16 317 L 16 311 L 16 311 Z" />
</svg>