<svg xmlns="http://www.w3.org/2000/svg" viewBox="0 0 448 448">
  <path d="M 16 16 L 16 432 L 16 16 L 16 432 L 432 432 L 432 432 L 432 16 L 432 16 L 16 16 L 16 16 Z M 0 0 L 16 0 L 0 0 L 448 0 L 448 16 L 448 16 L 448 432 L 448 432 L 448 448 L 448 448 L 432 448 L 0 448 L 0 432 L 0 432 L 0 16 L 0 16 L 0 0 L 0 0 Z M 112 336 L 144 336 L 112 336 L 144 336 L 144 320 L 144 320 L 144 224 L 144 224 L 144 208 L 144 208 L 112 208 L 112 208 L 112 224 L 112 224 L 112 320 L 112 320 L 112 336 L 112 336 Z M 160 192 L 160 208 L 160 192 L 160 208 L 160 224 L 160 224 L 160 320 L 160 320 L 160 336 L 160 336 L 160 352 L 160 352 L 144 352 L 96 352 L 96 336 L 96 336 L 96 320 L 96 320 L 96 224 L 96 224 L 96 208 L 96 208 L 96 192 L 96 192 L 112 192 L 160 192 Z M 208 336 L 240 336 L 208 336 L 240 336 L 240 320 L 240 320 L 240 128 L 240 128 L 240 112 L 240 112 L 208 112 L 208 112 L 208 128 L 208 128 L 208 320 L 208 320 L 208 336 L 208 336 Z M 304 336 L 336 336 L 304 336 L 336 336 L 336 320 L 336 320 L 336 288 L 336 288 L 336 272 L 336 272 L 304 272 L 304 272 L 304 288 L 304 288 L 304 320 L 304 320 L 304 336 L 304 336 Z M 192 320 L 192 128 L 192 320 L 192 128 L 192 112 L 192 112 L 192 96 L 192 96 L 208 96 L 256 96 L 256 112 L 256 112 L 256 128 L 256 128 L 256 320 L 256 320 L 256 336 L 256 336 L 256 352 L 256 352 L 240 352 L 192 352 L 192 336 L 192 336 L 192 320 L 192 320 Z M 288 320 L 288 288 L 288 320 L 288 288 L 288 272 L 288 272 L 288 256 L 288 256 L 304 256 L 352 256 L 352 272 L 352 272 L 352 288 L 352 288 L 352 320 L 352 320 L 352 336 L 352 336 L 352 352 L 352 352 L 336 352 L 288 352 L 288 336 L 288 336 L 288 320 L 288 320 Z" />
</svg>