<svg xmlns="http://www.w3.org/2000/svg" viewBox="0 0 640 448">
  <path d="M 544 9 Q 529 5 513 3 Q 497 0 480 0 Q 389 2 327 61 Q 265 119 257 208 Q 265 209 272 211 Q 279 127 337 73 Q 395 18 480 16 Q 483 16 486 16 Q 439 44 412 91 Q 384 137 384 195 Q 386 282 443 340 Q 500 399 586 403 Q 539 431 480 432 Q 406 431 352 388 L 352 408 L 352 408 Q 408 447 480 448 Q 558 447 616 402 Q 629 392 640 381 Q 625 385 610 386 Q 601 387 591 387 Q 510 385 456 331 Q 402 277 400 195 Q 400 135 432 89 Q 463 42 515 19 Q 529 13 544 9 L 544 9 Z M 64 256 Q 37 257 19 275 L 19 275 L 19 275 Q 1 293 0 320 L 0 368 L 0 368 L 0 384 L 0 384 L 16 384 L 320 384 L 320 368 L 320 368 L 320 312 L 320 312 Q 319 281 299 261 Q 279 241 248 240 Q 238 240 229 242 Q 224 244 220 246 Q 218 240 215 235 Q 205 216 186 204 Q 167 192 144 192 Q 114 193 93 210 Q 72 228 66 256 Q 65 256 65 256 Q 64 256 64 256 L 64 256 Z M 304 312 L 304 368 L 304 312 L 304 368 L 248 368 L 16 368 L 16 320 L 16 320 Q 17 300 30 286 Q 44 273 64 272 Q 64 272 65 272 Q 65 272 65 272 L 79 272 L 79 272 L 81 259 L 81 259 Q 86 237 103 223 Q 120 208 144 208 Q 165 208 181 220 Q 198 232 205 251 L 210 267 L 210 267 L 226 261 L 226 261 Q 236 256 248 256 Q 272 257 288 272 Q 303 288 304 312 L 304 312 Z" />
</svg>