<svg xmlns="http://www.w3.org/2000/svg" viewBox="0 0 576 448">
  <path d="M 576 0 L 0 0 L 576 0 L 0 0 L 0 448 L 0 448 L 576 448 L 576 448 L 576 0 L 576 0 Z M 120 208 L 296 208 L 120 208 L 320 208 L 320 256 L 320 256 L 296 256 L 96 256 L 96 208 L 96 208 L 120 208 L 120 208 Z M 376 208 L 456 208 L 376 208 L 480 208 L 480 256 L 480 256 L 456 256 L 352 256 L 352 208 L 352 208 L 376 208 L 376 208 Z M 120 304 L 200 304 L 120 304 L 224 304 L 224 352 L 224 352 L 200 352 L 96 352 L 96 304 L 96 304 L 120 304 L 120 304 Z M 280 304 L 456 304 L 280 304 L 480 304 L 480 352 L 480 352 L 456 352 L 256 352 L 256 304 L 256 304 L 280 304 L 280 304 Z" />
</svg>