<svg xmlns="http://www.w3.org/2000/svg" viewBox="0 0 458 458">
  <path d="M 386 97 L 347 176 L 386 97 L 347 176 L 344 181 L 344 181 L 338 185 L 338 185 L 151 310 L 151 310 L 106 391 L 106 391 Q 141 410 191 403 Q 262 394 329 329 Q 394 262 403 191 Q 411 133 386 97 L 386 97 Z M 348 65 Q 315 48 268 55 Q 196 64 129 129 Q 64 196 55 268 Q 48 322 70 357 L 112 281 L 112 281 L 115 276 L 115 276 L 120 273 L 120 273 L 306 149 L 306 149 L 348 65 L 348 65 Z M 408 50 Q 445 88 452 142 L 452 142 L 452 142 Q 458 196 436 255 L 436 255 L 436 255 Q 413 313 363 363 Q 313 413 255 436 Q 196 458 142 452 Q 88 445 50 408 Q 13 370 6 316 Q 0 262 22 203 Q 45 145 95 95 Q 145 45 203 22 Q 262 0 316 6 Q 370 13 408 50 L 408 50 Z" />
</svg>