<svg xmlns="http://www.w3.org/2000/svg" viewBox="0 0 637 444">
  <path d="M 103 35 L 186 124 L 103 35 L 186 124 L 589 124 L 637 124 L 637 140 L 637 140 L 637 204 L 637 204 L 637 220 L 637 220 L 621 220 L 144 220 L 130 205 L 130 205 L 33 101 L 33 101 L 11 78 L 11 78 L 0 66 L 0 66 L 12 55 L 12 55 L 58 11 L 58 11 L 70 0 L 70 0 L 81 12 L 81 12 L 103 35 L 103 35 Z M 589 140 L 186 140 L 589 140 L 186 140 Q 179 140 174 135 L 91 46 L 91 46 L 69 23 L 69 23 L 23 67 L 23 67 L 44 90 L 44 90 L 142 194 L 142 194 L 151 204 L 151 204 L 165 204 L 621 204 L 621 140 L 621 140 L 589 140 L 589 140 Z M 269 396 Q 269 382 260 373 L 260 373 L 260 373 Q 251 364 237 364 Q 223 364 214 373 Q 205 382 205 396 Q 205 410 214 419 Q 223 428 237 428 Q 251 428 260 419 Q 269 410 269 396 L 269 396 Z M 285 396 Q 284 416 271 430 L 271 430 L 271 430 Q 257 443 237 444 Q 217 443 203 430 Q 190 416 189 396 Q 190 376 203 362 Q 217 349 237 348 Q 259 349 273 364 L 350 315 L 350 315 L 250 252 L 250 252 L 280 252 L 280 252 L 365 306 L 365 306 L 450 252 L 450 252 L 480 252 L 480 252 L 380 315 L 380 315 L 457 364 L 457 364 Q 471 349 493 348 Q 513 349 527 362 Q 540 376 541 396 Q 540 416 527 430 Q 513 443 493 444 Q 473 443 459 430 Q 446 416 445 396 Q 445 386 449 378 L 365 325 L 365 325 L 281 378 L 281 378 Q 285 386 285 396 L 285 396 Z M 493 428 Q 507 428 516 419 L 516 419 L 516 419 Q 525 410 525 396 Q 525 382 516 373 Q 507 364 493 364 Q 479 364 470 373 Q 461 382 461 396 Q 461 410 470 419 Q 479 428 493 428 L 493 428 Z" />
</svg>