<svg xmlns="http://www.w3.org/2000/svg" viewBox="0 0 518 519">
  <path d="M 372 59 Q 372 44 383 34 L 383 34 L 383 34 Q 393 23 408 23 Q 423 23 433 34 Q 444 44 444 59 Q 444 74 433 84 Q 423 95 408 95 Q 393 95 383 84 Q 372 74 372 59 L 372 59 Z M 460 59 Q 459 30 434 14 Q 408 0 382 14 Q 357 30 356 59 Q 357 88 382 104 Q 408 118 434 104 Q 459 88 460 59 L 460 59 Z M 424 271 L 427 277 L 424 271 L 427 277 L 432 287 L 432 287 L 442 292 L 442 292 L 475 308 L 475 308 L 490 316 L 490 316 L 497 301 L 497 301 L 511 273 L 511 273 L 518 258 L 518 258 L 504 251 L 504 251 L 480 239 L 480 239 L 445 169 L 445 169 L 438 155 L 438 155 L 422 151 L 422 151 L 342 135 L 342 135 L 332 133 L 332 133 L 323 138 L 323 138 L 251 170 L 251 170 L 238 175 L 238 175 L 234 189 L 234 189 L 218 237 L 218 237 L 213 252 L 213 252 L 208 267 L 208 267 L 223 272 L 223 272 L 253 282 L 253 282 L 268 287 L 268 287 L 273 272 L 273 272 L 279 257 L 279 257 L 290 222 L 290 222 L 308 215 L 308 215 L 327 206 L 327 206 L 321 226 L 321 226 L 310 270 L 310 270 Q 302 303 324 330 L 395 407 L 395 407 L 417 487 L 417 487 L 422 503 L 422 503 L 426 518 L 426 518 L 441 514 L 441 514 L 472 506 L 472 506 L 487 501 L 487 501 L 483 486 L 483 486 L 479 471 L 479 471 L 455 383 L 455 383 L 453 375 L 453 375 L 448 369 L 448 369 L 395 312 L 395 312 L 407 273 L 407 273 L 414 250 L 414 250 L 424 271 L 424 271 Z M 438 383 L 439 387 L 438 383 L 439 387 L 463 475 L 463 475 L 468 490 L 468 490 L 437 499 L 437 499 L 433 483 L 433 483 L 411 403 L 411 403 L 410 399 L 410 399 L 407 396 L 407 396 L 336 319 L 336 319 Q 319 299 325 274 L 342 210 L 342 210 L 351 178 L 351 178 L 320 192 L 320 192 L 283 208 L 283 208 L 277 211 L 277 211 L 275 217 L 275 217 L 263 252 L 263 252 L 258 267 L 258 267 L 228 257 L 228 257 L 233 242 L 233 242 L 249 194 L 249 194 L 251 187 L 251 187 L 257 184 L 257 184 L 329 152 L 329 152 L 334 150 L 334 150 L 339 151 L 339 151 L 419 167 L 419 167 L 427 169 L 427 169 L 430 176 L 430 176 L 465 246 L 465 246 L 468 251 L 468 251 L 473 253 L 473 253 L 497 266 L 497 266 L 482 294 L 482 294 L 449 277 L 449 277 L 444 275 L 444 275 L 442 270 L 442 270 L 428 243 L 428 243 L 410 206 L 410 206 L 398 245 L 398 245 L 380 308 L 380 308 L 378 317 L 378 317 L 384 323 L 384 323 L 436 380 L 436 380 L 439 383 L 438 383 Z M 294 343 L 269 405 L 294 343 L 269 405 L 225 448 L 225 448 L 214 460 L 214 460 L 203 471 L 203 471 L 214 482 L 214 482 L 237 505 L 237 505 L 248 516 L 248 516 L 259 505 L 259 505 L 271 494 L 271 494 L 319 446 L 319 446 L 323 441 L 323 441 L 326 435 L 326 435 L 341 396 L 341 396 L 329 383 L 329 383 L 311 429 L 311 429 L 309 432 L 309 432 L 307 434 L 307 434 L 259 482 L 259 482 L 248 494 L 248 494 L 225 471 L 225 471 L 237 460 L 237 460 L 280 416 L 280 416 L 282 414 L 282 414 L 284 411 L 284 411 L 305 356 L 305 356 L 301 351 L 301 351 Q 297 347 294 343 L 294 343 Z M 185 359 L 105 497 L 185 359 L 105 497 L 22 449 L 22 449 L 102 310 L 102 310 L 185 358 L 185 359 Z M 110 297 L 96 289 L 110 297 L 96 289 L 88 303 L 88 303 L 8 441 L 8 441 L 0 455 L 0 455 L 14 463 L 14 463 L 97 511 L 97 511 L 111 519 L 111 519 L 119 505 L 119 505 L 159 436 L 159 436 Q 159 436 159 436 Q 159 436 159 436 L 236 302 L 236 302 L 222 294 L 222 294 L 193 345 L 193 345 Q 193 345 193 345 Q 193 345 193 345 L 110 297 L 110 297 Z" />
</svg>