<svg xmlns="http://www.w3.org/2000/svg" viewBox="0 0 512 384">
  <path d="M 0 0 L 8 0 L 0 0 L 348 0 L 351 4 L 351 4 L 511 236 L 511 236 L 512 238 L 512 238 L 512 240 L 512 240 L 512 376 L 512 376 L 512 384 L 512 384 L 496 384 L 496 384 L 496 376 L 496 376 L 496 243 L 496 243 L 340 16 L 340 16 L 16 16 L 16 16 L 16 80 L 16 80 L 240 80 L 240 80 Q 267 81 285 99 Q 303 117 304 144 Q 303 171 285 189 Q 267 207 240 208 L 80 208 L 80 208 L 80 272 L 80 272 L 272 272 L 275 272 L 277 274 L 277 274 L 365 338 L 365 338 L 368 340 L 368 340 L 368 344 L 368 344 L 368 376 L 368 376 L 368 384 L 368 384 L 352 384 L 352 384 L 352 376 L 352 376 L 352 348 L 352 348 L 269 288 L 269 288 L 72 288 L 64 288 L 64 280 L 64 280 L 64 200 L 64 200 L 64 192 L 64 192 L 72 192 L 240 192 Q 260 191 274 178 Q 287 164 288 144 Q 287 124 274 110 Q 260 97 240 96 L 8 96 L 0 96 L 0 88 L 0 88 L 0 8 L 0 8 L 0 0 L 0 0 Z" />
</svg>