<svg xmlns="http://www.w3.org/2000/svg" viewBox="0 0 352 512">
  <path d="M 192 352 L 192 320 L 192 352 L 192 320 L 192 128 L 192 128 L 192 96 L 192 96 L 224 96 L 320 96 L 320 32 L 320 32 L 128 32 L 128 32 L 128 320 L 128 320 L 128 352 L 128 352 L 96 352 L 45 352 L 160 467 L 160 467 L 275 352 L 275 352 L 224 352 L 192 352 Z M 288 320 L 320 320 L 288 320 L 320 320 L 320 352 L 320 352 L 183 489 L 183 489 L 160 512 L 160 512 L 137 489 L 137 489 L 0 352 L 0 352 L 0 320 L 0 320 L 32 320 L 96 320 L 96 288 L 96 288 L 96 32 L 96 32 L 96 0 L 96 0 L 128 0 L 352 0 L 352 32 L 352 32 L 352 96 L 352 96 L 352 128 L 352 128 L 320 128 L 224 128 L 224 160 L 224 160 L 224 288 L 224 288 L 224 320 L 224 320 L 256 320 L 288 320 Z" />
</svg>