<svg xmlns="http://www.w3.org/2000/svg" viewBox="0 0 568 512">
  <path d="M 272 16 Q 307 16 336 33 L 336 33 L 336 33 Q 365 50 383 80 Q 400 110 400 144 Q 400 178 383 208 Q 365 238 336 255 Q 307 272 272 272 Q 237 272 208 255 Q 179 238 161 208 Q 144 178 144 144 Q 144 110 161 80 Q 179 50 208 33 Q 237 16 272 16 L 272 16 Z M 272 288 Q 311 288 344 269 L 344 269 L 344 269 Q 377 250 397 216 Q 416 182 416 144 Q 416 106 397 72 Q 377 38 344 19 Q 311 0 272 0 Q 233 0 200 19 Q 167 38 147 72 Q 128 106 128 144 Q 128 182 147 216 Q 167 250 200 269 Q 233 288 272 288 L 272 288 Z M 244 94 Q 257 88 272 88 Q 289 89 306 93 L 314 95 L 314 95 L 318 79 L 318 79 L 310 78 L 310 78 Q 296 74 280 73 L 280 56 L 280 56 L 280 48 L 280 48 L 264 48 L 264 48 L 264 56 L 264 56 L 264 72 L 264 72 Q 250 73 237 80 Q 217 88 216 113 Q 219 132 236 139 Q 251 146 267 150 Q 268 150 269 150 L 270 151 L 270 151 Q 289 155 301 161 Q 312 167 312 176 Q 312 189 300 195 Q 287 200 272 200 Q 253 199 233 192 Q 233 192 233 192 Q 233 192 233 192 Q 233 192 233 192 Q 231 191 229 191 Q 228 190 226 190 L 219 187 L 219 187 L 214 203 L 214 203 L 222 205 L 222 205 Q 223 205 225 206 Q 227 206 228 207 Q 228 207 228 207 Q 228 207 228 207 Q 228 207 229 207 Q 245 213 264 215 L 264 234 L 264 234 L 264 242 L 264 242 L 280 242 L 280 242 L 280 234 L 280 234 L 280 216 L 280 216 Q 294 215 308 209 Q 327 200 328 176 Q 326 155 309 147 Q 293 139 275 135 L 274 135 L 274 135 Q 256 131 244 125 Q 232 119 232 111 Q 232 100 244 94 L 244 94 Z M 152 320 L 149 320 L 152 320 L 149 320 L 147 322 L 147 322 L 69 384 L 69 384 L 8 384 L 0 384 L 0 400 L 0 400 L 8 400 L 74 400 L 77 398 L 77 398 L 154 336 L 154 336 L 368 336 L 368 336 L 368 376 L 368 376 L 248 376 L 240 376 L 240 384 L 240 384 L 240 424 L 240 424 L 240 432 L 240 432 L 248 432 L 400 432 L 402 431 L 402 431 L 518 351 L 518 351 L 545 390 L 545 390 L 392 496 L 392 496 L 8 496 L 0 496 L 0 512 L 0 512 L 8 512 L 396 512 L 398 511 L 398 511 L 561 399 L 561 399 L 568 394 L 568 394 L 563 388 L 563 388 L 527 335 L 527 335 L 522 328 L 522 328 L 516 333 L 516 333 L 395 416 L 395 416 L 256 416 L 256 416 L 256 392 L 256 392 L 376 392 L 384 392 L 384 384 L 384 384 L 384 328 L 384 328 L 384 320 L 384 320 L 376 320 L 152 320 Z" />
</svg>