<svg xmlns="http://www.w3.org/2000/svg" viewBox="0 0 528 512">
  <path d="M 99 501 L 88 512 L 99 501 L 88 512 L 77 501 L 77 501 L 19 443 L 19 443 L 8 432 L 8 432 L 19 421 L 19 421 L 429 11 L 429 11 L 440 0 L 440 0 L 451 11 L 451 11 L 509 69 L 509 69 L 520 80 L 520 80 L 509 91 L 509 91 L 99 501 L 99 501 Z M 497 80 L 440 23 L 497 80 L 440 23 L 305 158 L 305 158 L 362 215 L 362 215 L 497 80 L 497 80 Z M 31 432 L 88 489 L 31 432 L 88 489 L 351 226 L 351 226 L 294 169 L 294 169 L 31 432 L 31 432 Z M 80 64 L 80 120 L 80 64 L 80 120 L 136 120 L 144 120 L 144 136 L 144 136 L 136 136 L 80 136 L 80 192 L 80 192 L 80 200 L 80 200 L 64 200 L 64 200 L 64 192 L 64 192 L 64 136 L 64 136 L 8 136 L 0 136 L 0 120 L 0 120 L 8 120 L 64 120 L 64 64 L 64 64 L 64 56 L 64 56 L 80 56 L 80 56 L 80 64 L 80 64 Z M 464 312 L 464 320 L 464 312 L 464 320 L 464 376 L 464 376 L 520 376 L 528 376 L 528 392 L 528 392 L 520 392 L 464 392 L 464 448 L 464 448 L 464 456 L 464 456 L 448 456 L 448 456 L 448 448 L 448 448 L 448 392 L 448 392 L 392 392 L 384 392 L 384 376 L 384 376 L 392 376 L 448 376 L 448 320 L 448 320 L 448 312 L 448 312 L 464 312 L 464 312 Z M 208 32 L 208 56 L 208 32 L 208 56 L 232 56 L 240 56 L 240 72 L 240 72 L 232 72 L 208 72 L 208 96 L 208 96 L 208 104 L 208 104 L 192 104 L 192 104 L 192 96 L 192 96 L 192 72 L 192 72 L 168 72 L 160 72 L 160 56 L 160 56 L 168 56 L 192 56 L 192 32 L 192 32 L 192 24 L 192 24 L 208 24 L 208 24 L 208 32 L 208 32 Z" />
</svg>