<svg xmlns="http://www.w3.org/2000/svg" viewBox="0 0 640 512">
  <path d="M 80 224 L 427 224 L 80 224 L 427 224 Q 431 216 436 208 L 16 208 L 16 208 L 16 180 L 16 180 L 106 16 L 106 16 L 535 16 L 535 16 L 624 180 L 624 180 L 624 208 L 624 208 L 620 208 L 620 208 Q 625 216 629 224 L 640 224 L 640 224 L 640 208 L 640 208 L 640 176 L 640 176 L 544 0 L 544 0 L 96 0 L 96 0 L 0 176 L 0 176 L 0 208 L 0 208 L 0 224 L 0 224 L 16 224 L 64 224 L 64 504 L 64 504 Q 65 511 72 512 L 376 512 L 376 512 Q 383 511 384 504 L 384 256 L 384 256 L 368 256 L 368 256 L 368 496 L 368 496 L 80 496 L 80 496 L 80 224 L 80 224 Z M 128 360 Q 130 382 152 384 L 296 384 L 296 384 Q 318 382 320 360 L 320 256 L 320 256 L 304 256 L 304 256 L 304 360 L 304 360 Q 303 367 296 368 L 152 368 L 152 368 Q 145 367 144 360 L 144 256 L 144 256 L 128 256 L 128 256 L 128 360 L 128 360 Z M 528 208 Q 548 209 562 222 L 562 222 L 562 222 Q 575 236 576 256 L 576 320 L 576 320 L 480 320 L 480 320 L 480 256 L 480 256 Q 481 236 494 222 Q 508 209 528 208 L 528 208 Z M 464 256 L 464 320 L 464 256 L 464 320 L 432 320 L 416 320 L 416 336 L 416 336 L 416 496 L 416 496 L 416 512 L 416 512 L 432 512 L 640 512 L 640 496 L 640 496 L 640 336 L 640 336 L 640 320 L 640 320 L 624 320 L 592 320 L 592 256 L 592 256 Q 591 229 573 211 Q 555 193 528 192 Q 501 193 483 211 Q 465 229 464 256 L 464 256 Z M 432 336 L 464 336 L 432 336 L 624 336 L 624 496 L 624 496 L 432 496 L 432 496 L 432 336 L 432 336 Z" />
</svg>