<svg xmlns="http://www.w3.org/2000/svg" viewBox="0 0 640 448">
  <path d="M 320 239 L 130 173 L 320 239 L 130 173 L 323 100 L 323 100 L 330 98 L 330 98 L 325 83 L 325 83 L 317 85 L 317 85 L 106 164 L 106 164 L 16 133 L 16 133 L 16 123 L 16 123 L 320 17 L 320 17 L 624 123 L 624 123 L 624 133 L 624 133 L 320 239 L 320 239 Z M 108 182 L 320 256 L 108 182 L 320 256 L 640 144 L 640 144 L 640 112 L 640 112 L 320 0 L 320 0 L 0 112 L 0 112 L 0 144 L 0 144 L 92 176 L 92 176 L 58 216 L 58 216 L 56 218 L 56 218 L 56 221 L 56 221 L 56 287 L 56 287 L 48 327 L 48 327 Q 40 365 18 396 L 8 411 L 8 411 L 1 421 L 1 421 L 12 424 L 12 424 L 86 445 L 86 445 L 96 447 L 96 447 L 96 437 L 96 437 L 96 398 L 96 398 Q 96 350 79 306 L 72 287 L 72 287 L 72 224 L 72 224 L 108 182 L 108 182 Z M 159 236 L 143 231 L 159 236 L 143 231 L 128 376 L 128 376 Q 130 404 184 425 Q 238 447 320 448 Q 402 447 456 425 Q 510 404 512 376 L 497 231 L 497 231 L 481 236 L 481 236 L 496 377 L 496 377 Q 497 380 487 390 Q 475 401 450 410 Q 399 431 320 432 Q 241 431 190 410 Q 165 401 154 390 Q 143 380 144 377 L 159 236 L 159 236 Z M 66 317 Q 80 357 80 398 L 80 426 L 80 426 L 27 411 L 27 411 L 32 406 L 32 406 Q 55 371 64 330 L 66 317 L 66 317 Z" />
</svg>