<svg xmlns="http://www.w3.org/2000/svg" viewBox="0 0 512 512">
  <path d="M 80 0 L 80 8 L 80 0 L 80 8 L 80 64 L 80 64 L 504 64 L 512 64 L 512 80 L 512 80 L 504 80 L 80 80 L 80 504 L 80 504 L 80 512 L 80 512 L 64 512 L 64 512 L 64 504 L 64 504 L 64 80 L 64 80 L 8 80 L 0 80 L 0 64 L 0 64 L 8 64 L 64 64 L 64 8 L 64 8 L 64 0 L 64 0 L 80 0 L 80 0 Z M 144 144 L 144 368 L 144 144 L 144 368 L 464 368 L 464 368 L 464 144 L 464 144 L 144 144 L 144 144 Z M 128 128 L 144 128 L 128 128 L 480 128 L 480 144 L 480 144 L 480 368 L 480 368 L 480 384 L 480 384 L 464 384 L 128 384 L 128 368 L 128 368 L 128 144 L 128 144 L 128 128 L 128 128 Z" />
</svg>