<svg xmlns="http://www.w3.org/2000/svg" viewBox="0 0 576 384">
  <path d="M 16 112 L 176 112 L 16 112 L 176 112 L 176 103 L 176 103 L 96 23 L 96 23 L 16 103 L 16 103 L 16 112 L 16 112 Z M 0 96 L 85 11 L 0 96 L 85 11 L 96 0 L 96 0 L 107 11 L 107 11 L 192 96 L 192 96 L 192 112 L 192 112 L 192 128 L 192 128 L 176 128 L 104 128 L 104 336 L 104 336 L 312 336 L 320 336 L 320 352 L 320 352 L 312 352 L 88 352 L 88 344 L 88 344 L 88 128 L 88 128 L 16 128 L 0 128 L 0 112 L 0 112 L 0 96 L 0 96 Z M 400 272 L 400 281 L 400 272 L 400 281 L 480 361 L 480 361 L 560 281 L 560 281 L 560 272 L 560 272 L 400 272 L 400 272 Z M 384 288 L 384 272 L 384 288 L 384 272 L 384 256 L 384 256 L 400 256 L 472 256 L 472 48 L 472 48 L 264 48 L 256 48 L 256 32 L 256 32 L 264 32 L 488 32 L 488 40 L 488 40 L 488 256 L 488 256 L 560 256 L 576 256 L 576 272 L 576 272 L 576 288 L 576 288 L 491 373 L 491 373 L 480 384 L 480 384 L 469 373 L 469 373 L 384 288 L 384 288 Z" />
</svg>