<svg xmlns="http://www.w3.org/2000/svg" viewBox="0 0 473 448">
  <path d="M 123 443 L 129 438 L 123 443 L 129 438 L 241 326 L 241 326 L 246 320 L 246 320 L 235 309 L 235 309 L 229 314 L 229 314 L 131 413 L 131 413 L 131 8 L 131 8 L 131 0 L 131 0 L 115 0 L 115 0 L 115 8 L 115 8 L 115 413 L 115 413 L 17 314 L 17 314 L 11 309 L 11 309 L 0 320 L 0 320 L 5 326 L 5 326 L 117 438 L 117 438 L 123 443 L 123 443 Z M 299 0 L 299 16 L 299 0 L 299 16 L 307 16 L 440 16 L 301 171 L 301 171 L 299 173 L 299 173 L 299 176 L 299 176 L 299 184 L 299 184 L 299 192 L 299 192 L 307 192 L 459 192 L 459 176 L 459 176 L 451 176 L 318 176 L 457 21 L 457 21 L 459 19 L 459 19 L 459 16 L 459 16 L 459 8 L 459 8 L 459 0 L 459 0 L 451 0 L 299 0 Z M 372 261 L 285 448 L 372 261 L 285 448 L 303 448 L 303 448 L 325 400 L 325 400 L 433 400 L 433 400 L 456 448 L 456 448 L 473 448 L 473 448 L 386 261 L 386 261 L 384 256 L 384 256 L 374 256 L 374 256 L 372 261 L 372 261 Z M 379 283 L 426 384 L 379 283 L 426 384 L 332 384 L 332 384 L 379 283 L 379 283 Z" />
</svg>