<svg xmlns="http://www.w3.org/2000/svg" viewBox="0 0 576 440">
  <path d="M 408 0 L 400 0 L 408 0 L 400 0 L 400 16 L 400 16 L 408 16 L 528 16 L 528 0 L 528 0 L 520 0 L 408 0 Z M 288 295 L 39 184 L 288 295 L 39 184 L 288 74 L 288 74 L 537 184 L 537 184 L 288 295 L 288 295 Z M 556 175 L 288 56 L 556 175 L 288 56 L 20 175 L 20 175 L 0 184 L 0 184 L 20 193 L 20 193 L 288 312 L 288 312 L 556 193 L 556 193 L 576 184 L 576 184 L 556 175 L 556 175 Z M 124 274 L 105 265 L 124 274 L 105 265 L 20 303 L 20 303 L 0 312 L 0 312 L 20 321 L 20 321 L 288 440 L 288 440 L 556 321 L 556 321 L 576 312 L 576 312 L 556 303 L 556 303 L 471 266 L 471 266 L 452 274 L 452 274 L 537 312 L 537 312 L 288 423 L 288 423 L 39 312 L 39 312 L 124 274 L 124 274 Z" />
</svg>