<svg xmlns="http://www.w3.org/2000/svg" viewBox="0 0 507 448">
  <path d="M 502 230 L 507 224 L 502 230 L 507 224 L 502 218 L 502 218 L 366 82 L 366 82 L 360 77 L 360 77 L 349 88 L 349 88 L 354 94 L 354 94 L 477 216 L 477 216 L 168 216 L 160 216 L 160 232 L 160 232 L 168 232 L 477 232 L 354 354 L 354 354 L 349 360 L 349 360 L 360 371 L 360 371 L 366 366 L 366 366 L 502 230 L 502 230 Z M 184 16 L 192 16 L 184 16 L 192 16 L 192 0 L 192 0 L 184 0 L 0 0 L 0 8 L 0 8 L 0 440 L 0 440 L 0 448 L 0 448 L 8 448 L 192 448 L 192 432 L 192 432 L 184 432 L 16 432 L 16 16 L 16 16 L 184 16 L 184 16 Z" />
</svg>