<svg xmlns="http://www.w3.org/2000/svg" viewBox="0 0 512 320">
  <path d="M 336 120 L 320 120 L 336 120 L 16 120 L 16 200 L 16 200 L 320 200 L 336 200 L 336 216 L 336 216 L 336 304 L 336 304 L 345 304 L 345 304 L 489 160 L 489 160 L 345 16 L 345 16 L 336 16 L 336 16 L 336 104 L 336 104 L 336 120 L 336 120 Z M 352 0 L 501 149 L 352 0 L 501 149 L 512 160 L 512 160 L 501 171 L 501 171 L 352 320 L 352 320 L 336 320 L 320 320 L 320 304 L 320 304 L 320 232 L 320 232 L 320 216 L 320 216 L 304 216 L 0 216 L 0 200 L 0 200 L 0 120 L 0 120 L 0 104 L 0 104 L 16 104 L 320 104 L 320 88 L 320 88 L 320 16 L 320 16 L 320 0 L 320 0 L 336 0 L 352 0 Z" />
</svg>