<svg xmlns="http://www.w3.org/2000/svg" viewBox="0 0 512 512">
  <path d="M 256 496 Q 323 495 377 463 L 377 463 L 377 463 Q 431 431 463 377 L 463 377 L 463 377 Q 495 323 496 256 L 496 248 L 496 248 L 512 248 L 512 248 L 512 256 L 512 256 Q 511 328 477 385 Q 443 443 385 477 Q 328 511 256 512 Q 184 511 127 477 Q 69 443 35 385 Q 1 328 0 256 L 0 248 L 0 248 L 16 248 L 16 248 L 16 256 L 16 256 Q 17 323 49 377 Q 81 431 135 463 Q 189 495 256 496 L 256 496 Z M 390 197 L 262 349 L 390 197 L 262 349 L 256 357 L 256 357 L 250 349 L 250 349 L 122 197 L 122 197 L 117 191 L 117 191 L 129 181 L 129 181 L 134 187 L 134 187 L 248 322 L 248 322 L 248 8 L 248 8 L 248 0 L 248 0 L 264 0 L 264 0 L 264 8 L 264 8 L 264 322 L 264 322 L 378 187 L 378 187 L 383 181 L 383 181 L 395 191 L 395 191 L 390 197 L 390 197 Z" />
</svg>