<svg xmlns="http://www.w3.org/2000/svg" viewBox="0 0 512 512">
  <path d="M 468 253 Q 447 274 421 285 Q 404 291 386 295 Q 386 295 386 295 Q 351 301 324 324 Q 299 352 294 391 Q 285 436 252 469 Q 210 510 148 512 L 16 512 L 0 512 L 0 496 L 0 496 L 0 364 L 0 364 Q 0 334 11 307 Q 22 281 43 259 Q 77 226 121 218 Q 160 213 188 188 Q 211 161 217 126 Q 221 108 227 91 Q 238 65 259 43 Q 281 22 307 11 Q 334 0 364 0 L 496 0 L 512 0 L 512 16 L 512 16 L 512 148 L 512 148 Q 510 211 468 253 L 468 253 Z M 364 16 Q 337 16 314 26 Q 314 26 314 26 Q 314 26 314 26 Q 290 36 271 55 Q 252 74 242 98 Q 242 98 242 98 Q 242 98 242 98 Q 236 112 233 128 Q 233 128 233 128 Q 233 128 233 128 Q 233 128 233 128 Q 233 128 233 128 Q 231 137 228 146 Q 222 174 199 200 Q 183 215 163 223 Q 144 231 124 234 L 124 234 L 124 234 Q 124 234 124 234 Q 124 234 124 234 Q 84 241 55 271 Q 36 290 26 314 Q 26 314 26 314 Q 26 314 26 314 Q 16 337 16 364 L 16 496 L 16 496 L 148 496 L 148 496 Q 204 495 241 458 L 251 469 L 251 469 L 241 458 L 241 458 Q 271 428 278 388 L 278 388 L 278 388 Q 278 388 278 388 Q 278 388 278 388 Q 281 368 289 349 Q 297 329 313 313 Q 338 290 366 284 Q 375 281 384 279 Q 384 279 384 279 Q 400 276 415 270 Q 415 270 415 270 Q 415 270 415 270 Q 438 261 457 242 Q 457 242 457 242 Q 457 242 457 242 Q 495 204 496 148 L 496 16 L 496 16 L 364 16 L 364 16 Z M 400 128 Q 401 113 416 112 Q 431 113 432 128 Q 431 143 416 144 Q 401 143 400 128 L 400 128 Z M 336 192 Q 337 177 352 176 Q 367 177 368 192 Q 367 207 352 208 Q 337 207 336 192 L 336 192 Z M 176 352 Q 177 337 192 336 Q 207 337 208 352 Q 207 367 192 368 Q 177 367 176 352 L 176 352 Z M 128 400 Q 143 401 144 416 Q 143 431 128 432 Q 113 431 112 416 Q 113 401 128 400 L 128 400 Z M 176 416 Q 177 401 192 400 Q 207 401 208 416 Q 207 431 192 432 Q 177 431 176 416 L 176 416 Z M 416 176 Q 431 177 432 192 Q 431 207 416 208 Q 401 207 400 192 Q 401 177 416 176 L 416 176 Z" />
</svg>