<svg xmlns="http://www.w3.org/2000/svg" viewBox="0 0 640 448">
  <path d="M 640 0 L 96 0 L 640 0 L 96 0 L 96 352 L 96 352 L 640 352 L 640 352 L 640 224 L 640 224 Q 620 223 606 210 Q 593 196 592 176 Q 593 156 606 142 Q 620 129 640 128 L 640 0 L 640 0 Z M 512 80 Q 513 65 528 64 Q 543 65 544 80 Q 543 95 528 96 Q 513 95 512 80 L 512 80 Z M 512 144 Q 513 129 528 128 Q 543 129 544 144 Q 543 159 528 160 Q 513 159 512 144 L 512 144 Z M 528 192 Q 543 193 544 208 Q 543 223 528 224 Q 513 223 512 208 Q 513 193 528 192 L 528 192 Z M 512 272 Q 513 257 528 256 Q 543 257 544 272 Q 543 287 528 288 Q 513 287 512 272 L 512 272 Z M 48 88 L 48 64 L 48 88 L 48 64 L 0 64 L 0 64 L 0 88 L 0 88 L 0 424 L 0 424 L 0 448 L 0 448 L 24 448 L 544 448 L 544 400 L 544 400 L 520 400 L 48 400 L 48 88 L 48 88 Z" />
</svg>