<svg xmlns="http://www.w3.org/2000/svg" viewBox="0 0 294 512">
  <path d="M 147 112 Q 174 111 189 88 Q 201 64 189 40 Q 174 17 147 16 Q 120 17 105 40 Q 93 64 105 88 Q 120 111 147 112 L 147 112 Z M 147 0 Q 183 1 202 32 Q 220 64 202 96 Q 183 127 147 128 Q 111 127 92 96 Q 74 64 92 32 Q 111 1 147 0 L 147 0 Z M 207 245 L 210 253 L 207 245 L 210 253 L 274 389 L 274 389 L 280 400 L 280 400 L 267 400 L 227 400 L 227 504 L 227 504 L 227 512 L 227 512 L 219 512 L 163 512 L 163 504 L 163 504 L 163 400 L 163 400 L 131 400 L 131 400 L 131 504 L 131 504 L 131 512 L 131 512 L 123 512 L 67 512 L 67 504 L 67 504 L 67 400 L 67 400 L 27 400 L 14 400 L 20 389 L 20 389 L 84 253 L 84 253 L 87 245 L 87 245 L 102 252 L 102 252 L 98 259 L 98 259 L 40 384 L 40 384 L 75 384 L 254 384 L 196 259 L 196 259 L 192 252 L 192 252 L 207 245 L 207 245 Z M 115 400 L 83 400 L 115 400 L 83 400 L 83 496 L 83 496 L 115 496 L 115 496 L 115 400 L 115 400 Z M 179 400 L 179 496 L 179 400 L 179 496 L 211 496 L 211 496 L 211 400 L 211 400 L 179 400 L 179 400 Z M 96 160 L 198 160 L 96 160 L 203 160 L 205 164 L 205 164 L 290 308 L 290 308 L 294 315 L 294 315 L 280 323 L 280 323 L 276 316 L 276 316 L 194 176 L 194 176 L 101 176 L 101 176 L 18 316 L 18 316 L 14 323 L 14 323 L 0 315 L 0 315 L 4 308 L 4 308 L 89 164 L 89 164 L 91 160 L 91 160 L 96 160 L 96 160 Z" />
</svg>