<svg xmlns="http://www.w3.org/2000/svg" viewBox="0 0 511 511">
  <path d="M 208 32 Q 256 32 296 56 L 296 56 L 296 56 Q 336 79 360 120 Q 384 162 384 208 Q 384 254 360 296 Q 336 337 296 360 Q 256 384 208 384 Q 160 384 120 360 Q 80 337 56 296 Q 32 254 32 208 Q 32 162 56 120 Q 80 79 120 56 Q 160 32 208 32 L 208 32 Z M 208 416 Q 287 414 343 366 L 488 511 L 488 511 L 511 488 L 511 488 L 366 343 L 366 343 Q 414 287 416 208 Q 414 120 355 61 Q 296 2 208 0 Q 120 2 61 61 Q 2 120 0 208 Q 2 296 61 355 Q 120 414 208 416 L 208 416 Z M 288 91 L 268 97 L 288 91 L 268 97 L 212 113 L 212 113 L 200 116 L 200 116 L 200 128 L 200 128 L 200 192 L 200 192 Q 200 192 200 192 Q 200 192 200 192 L 200 214 L 200 214 Q 187 208 172 208 Q 147 209 130 222 Q 113 236 112 256 Q 113 276 130 290 Q 147 303 172 304 Q 197 303 214 290 Q 231 276 232 256 Q 232 256 232 256 Q 232 256 232 256 L 232 204 L 232 204 L 276 191 L 276 191 L 288 188 L 288 188 L 288 176 L 288 176 L 288 112 L 288 112 L 288 91 L 288 91 Z M 194 247 Q 201 253 200 256 Q 200 256 200 256 Q 200 256 200 256 Q 201 259 194 265 Q 187 271 172 272 Q 157 271 150 265 Q 143 259 144 256 Q 143 253 150 247 Q 157 241 172 240 Q 187 241 194 247 L 194 247 Z M 232 171 L 232 140 L 232 171 L 232 140 L 256 133 L 256 133 L 256 164 L 256 164 L 232 171 L 232 171 Z" />
</svg>