<svg xmlns="http://www.w3.org/2000/svg" viewBox="0 0 512 512">
  <path d="M 131 144 L 381 144 L 131 144 L 381 144 L 256 273 L 256 273 L 256 273 L 256 273 L 131 144 L 131 144 Z M 115 128 L 16 26 L 115 128 L 16 26 L 16 16 L 16 16 L 496 16 L 496 16 L 496 26 L 496 26 L 397 128 L 397 128 L 115 128 L 115 128 Z M 245 285 L 248 288 L 245 285 L 248 288 L 248 496 L 248 496 L 136 496 L 128 496 L 128 512 L 128 512 L 136 512 L 384 512 L 384 496 L 384 496 L 376 496 L 264 496 L 264 288 L 264 288 L 267 285 L 267 285 L 512 32 L 512 32 L 512 16 L 512 16 L 512 0 L 512 0 L 496 0 L 0 0 L 0 16 L 0 16 L 0 32 L 0 32 L 245 285 L 245 285 Z" />
</svg>