<svg xmlns="http://www.w3.org/2000/svg" viewBox="0 0 511 511">
  <path d="M 336 10 L 341 4 L 336 10 L 341 4 L 336 0 L 336 0 L 331 4 L 331 4 L 336 10 L 336 10 Z M 501 172 Q 509 166 507 168 Q 507 168 507 168 Q 507 168 507 168 Q 507 168 507 168 Q 507 168 507 168 Q 507 168 507 168 Q 507 168 507 168 L 507 168 L 507 168 L 507 167 L 507 167 Q 507 167 507 167 Q 506 166 506 165 Q 505 165 505 164 Q 503 162 501 160 Q 495 153 483 144 Q 460 123 417 120 Q 399 120 388 123 Q 391 112 391 94 Q 390 72 383 55 Q 375 39 366 27 Q 356 16 349 10 Q 346 7 344 6 Q 343 6 343 5 Q 342 5 342 5 Q 342 4 341 4 L 341 4 L 341 4 L 341 4 L 341 4 Q 341 4 341 4 Q 341 4 341 4 Q 341 4 341 4 L 336 10 L 336 10 Q 330 2 331 4 Q 331 4 331 4 Q 331 4 331 4 Q 331 4 331 4 Q 331 4 331 4 Q 331 4 331 4 Q 331 4 331 4 L 331 4 L 331 4 L 331 4 L 331 4 Q 330 5 329 5 Q 329 5 329 6 Q 327 7 324 10 Q 318 16 310 27 Q 291 48 288 85 Q 288 117 302 136 Q 279 127 253 127 Q 214 127 182 148 Q 150 169 134 205 L 9 489 L 9 489 L 0 511 L 0 511 L 22 502 L 22 502 L 306 377 L 306 377 Q 342 361 363 329 Q 384 297 384 258 Q 384 232 375 209 Q 394 223 426 223 Q 463 220 485 200 Q 495 191 501 184 Q 504 181 506 179 Q 506 178 507 178 L 507 177 L 507 177 L 507 177 L 507 177 Q 507 177 507 177 Q 507 177 507 177 Q 507 177 507 177 Q 507 177 507 177 Q 507 177 507 177 Q 507 177 507 177 L 501 172 L 501 172 Z M 501 172 L 507 168 L 501 172 L 507 168 L 511 172 L 511 172 L 507 177 L 507 177 L 501 172 L 501 172 Z M 368 131 L 374 137 L 368 131 L 374 137 Q 381 144 380 143 Q 380 143 380 143 Q 380 143 380 143 Q 380 143 380 143 Q 380 143 380 143 L 380 143 L 380 143 L 379 143 L 379 143 Q 379 143 379 143 Q 379 143 380 143 Q 381 142 385 140 Q 393 137 417 136 Q 453 139 474 157 Q 484 165 489 171 Q 490 172 491 173 Q 490 173 490 173 Q 490 173 489 174 Q 484 180 475 188 Q 455 205 426 207 Q 397 207 383 195 Q 370 186 357 172 Q 355 170 353 168 Q 351 165 348 163 Q 343 158 339 154 Q 325 141 316 129 Q 304 114 304 85 Q 306 56 322 36 Q 330 27 335 22 L 336 21 L 336 21 Q 337 21 338 22 Q 338 22 338 22 Q 345 27 353 38 Q 372 58 375 94 Q 374 118 371 126 Q 369 129 369 131 Q 368 131 368 131 Q 368 131 368 131 Q 368 132 368 132 L 368 132 L 368 132 L 368 132 L 368 132 L 368 131 L 368 131 Q 368 131 368 131 Q 368 131 368 131 Q 368 131 368 131 Q 368 131 368 131 Q 368 131 368 131 Q 368 131 368 131 L 368 131 Z M 31 480 L 145 219 L 31 480 L 145 219 L 186 261 L 186 261 L 192 266 L 192 266 L 203 255 L 203 255 L 198 249 L 198 249 L 152 204 L 152 204 Q 167 176 194 159 Q 221 143 253 143 Q 302 144 334 177 Q 367 209 368 258 Q 368 292 349 320 Q 331 348 299 363 L 174 418 L 174 418 L 174 417 L 174 417 L 134 377 L 134 377 L 128 372 L 128 372 L 117 383 L 117 383 L 122 389 L 122 389 L 158 424 L 158 424 L 31 480 L 31 480 Z" />
</svg>