<svg xmlns="http://www.w3.org/2000/svg" viewBox="0 0 480 462">
  <path d="M 391 178 Q 379 144 353 118 Q 304 71 240 71 Q 176 71 127 118 L 110 135 L 110 135 L 144 135 L 176 135 L 176 199 L 176 199 L 144 199 L 0 199 L 0 167 L 0 167 L 0 55 L 0 55 L 0 23 L 0 23 L 64 23 L 64 23 L 64 55 L 64 55 L 64 90 L 64 90 L 81 73 L 81 73 Q 126 29 183 14 Q 240 0 297 14 Q 353 29 398 73 Q 435 110 451 156 L 391 178 L 391 178 Z M 416 372 L 398 389 L 416 372 L 398 389 Q 398 389 398 389 Q 398 389 398 389 Q 353 433 297 448 Q 240 462 183 448 Q 126 433 82 389 Q 45 352 29 306 L 89 284 L 89 284 Q 100 317 127 344 Q 176 391 240 391 Q 304 391 353 344 L 353 344 L 353 344 L 370 327 L 370 327 L 336 327 L 304 327 L 304 263 L 304 263 L 336 263 L 480 263 L 480 295 L 480 295 L 480 407 L 480 407 L 480 439 L 480 439 L 416 439 L 416 439 L 416 407 L 416 407 L 416 372 L 416 372 Z" />
</svg>