<svg xmlns="http://www.w3.org/2000/svg" viewBox="0 0 576 512">
  <path d="M 0 0 L 8 0 L 0 0 L 256 0 L 256 8 L 256 8 L 256 504 L 256 504 L 256 512 L 256 512 L 240 512 L 240 512 L 240 504 L 240 504 L 240 464 L 240 464 L 16 464 L 16 464 L 16 504 L 16 504 L 16 512 L 16 512 L 0 512 L 0 512 L 0 504 L 0 504 L 0 8 L 0 8 L 0 0 L 0 0 Z M 240 112 L 16 112 L 240 112 L 16 112 L 16 448 L 16 448 L 240 448 L 240 448 L 240 112 L 240 112 Z M 240 96 L 240 16 L 240 96 L 240 16 L 16 16 L 16 16 L 16 96 L 16 96 L 240 96 L 240 96 Z M 176 216 L 184 216 L 176 216 L 224 216 L 224 232 L 224 232 L 216 232 L 192 232 L 192 312 L 192 312 L 216 312 L 224 312 L 224 328 L 224 328 L 216 328 L 176 328 L 176 320 L 176 320 L 176 224 L 176 224 L 176 216 L 176 216 Z M 320 0 L 328 0 L 320 0 L 576 0 L 576 8 L 576 8 L 576 504 L 576 504 L 576 512 L 576 512 L 560 512 L 560 512 L 560 504 L 560 504 L 560 464 L 560 464 L 336 464 L 336 464 L 336 504 L 336 504 L 336 512 L 336 512 L 320 512 L 320 512 L 320 504 L 320 504 L 320 8 L 320 8 L 320 0 L 320 0 Z M 560 112 L 336 112 L 560 112 L 336 112 L 336 448 L 336 448 L 560 448 L 560 448 L 560 112 L 560 112 Z M 560 96 L 560 16 L 560 96 L 560 16 L 336 16 L 336 16 L 336 96 L 336 96 L 560 96 L 560 96 Z M 496 216 L 504 216 L 496 216 L 544 216 L 544 232 L 544 232 L 536 232 L 512 232 L 512 312 L 512 312 L 536 312 L 544 312 L 544 328 L 544 328 L 536 328 L 496 328 L 496 320 L 496 320 L 496 224 L 496 224 L 496 216 L 496 216 Z" />
</svg>