<svg xmlns="http://www.w3.org/2000/svg" viewBox="0 0 576 448">
  <path d="M 304 0 L 368 64 L 304 0 L 368 64 L 560 64 L 576 64 L 576 80 L 576 80 L 576 336 L 576 336 L 576 352 L 576 352 L 560 352 L 96 352 L 96 336 L 96 336 L 96 16 L 96 16 L 96 0 L 96 0 L 112 0 L 304 0 Z M 368 80 L 361 80 L 368 80 L 361 80 L 357 75 L 357 75 L 297 16 L 297 16 L 112 16 L 112 16 L 112 336 L 112 336 L 560 336 L 560 336 L 560 80 L 560 80 L 368 80 L 368 80 Z M 16 96 L 64 96 L 16 96 L 64 96 L 64 112 L 64 112 L 16 112 L 16 112 L 16 432 L 16 432 L 464 432 L 464 432 L 464 384 L 464 384 L 480 384 L 480 384 L 480 432 L 480 432 L 480 448 L 480 448 L 464 448 L 0 448 L 0 432 L 0 432 L 0 112 L 0 112 L 0 96 L 0 96 L 16 96 L 16 96 Z" />
</svg>