<svg xmlns="http://www.w3.org/2000/svg" viewBox="0 0 452 498">
  <path d="M 230 2 L 226 0 L 230 2 L 226 0 L 222 2 L 222 2 L 214 7 L 214 7 Q 181 26 144 28 Q 107 30 73 15 L 61 10 L 61 10 L 55 7 L 55 7 L 51 12 L 51 12 L 3 76 L 3 76 L 0 80 L 0 80 L 3 85 L 3 85 L 10 97 L 10 97 Q 34 139 34 188 L 34 196 L 34 196 Q 34 231 21 264 L 9 293 L 9 293 Q 2 311 2 331 Q 2 362 19 387 Q 35 413 63 425 L 223 496 L 223 496 L 226 498 L 226 498 L 229 496 L 229 496 L 389 425 L 389 425 Q 417 412 433 387 Q 450 362 450 331 Q 450 311 443 293 L 431 264 L 431 264 Q 418 231 418 196 L 418 188 L 418 188 Q 418 139 442 97 L 449 85 L 449 85 L 452 80 L 452 80 L 448 76 L 448 76 L 400 12 L 400 12 L 396 7 L 396 7 L 391 10 L 391 10 L 379 15 L 379 15 Q 345 30 308 28 Q 271 26 238 7 L 230 2 L 230 2 Z M 222 21 L 226 18 L 222 21 L 226 18 L 230 21 L 230 21 Q 266 42 307 44 Q 347 47 386 30 L 391 27 L 391 27 L 432 82 L 432 82 L 428 89 L 428 89 Q 407 126 403 169 L 49 169 L 49 169 Q 45 126 24 89 L 20 82 L 20 82 L 61 27 L 61 27 L 66 30 L 66 30 Q 105 47 145 44 Q 186 42 222 21 L 222 21 Z M 50 185 L 402 185 L 50 185 L 402 185 Q 402 186 402 187 Q 402 187 402 188 L 402 196 L 402 196 Q 402 234 416 270 L 428 299 L 428 299 Q 434 315 434 331 Q 434 358 420 379 Q 406 400 382 411 L 226 480 L 226 480 L 70 411 L 70 411 Q 46 400 32 379 Q 18 358 18 331 Q 18 315 24 299 L 36 270 L 36 270 Q 50 235 50 196 L 50 188 L 50 188 Q 50 187 50 187 Q 50 186 50 185 L 50 185 Z" />
</svg>