<svg xmlns="http://www.w3.org/2000/svg" viewBox="0 0 448 512">
  <path d="M 336 128 Q 336 120 335 112 L 280 112 L 276 112 L 274 109 L 274 109 L 255 85 L 255 85 L 222 125 L 222 125 L 220 128 L 220 128 L 216 128 L 112 128 L 112 136 L 112 136 L 112 144 L 112 144 Q 113 192 145 223 Q 176 255 224 256 Q 272 255 303 223 Q 335 192 336 144 L 336 136 L 336 136 L 336 128 L 336 128 Q 336 128 336 128 Q 336 128 336 128 L 336 128 Z M 352 128 L 352 136 L 352 128 L 352 136 L 352 144 L 352 144 L 352 196 L 352 196 L 413 242 L 413 242 L 416 244 L 416 244 L 416 248 L 416 248 L 416 280 L 416 280 L 416 288 L 416 288 L 408 288 L 320 288 L 320 272 L 320 272 L 328 272 L 400 272 L 400 252 L 400 252 L 339 206 L 339 206 L 337 205 L 337 205 Q 320 235 291 253 Q 261 272 224 272 Q 187 272 157 253 Q 128 235 111 205 L 96 128 L 96 128 Q 97 74 133 37 Q 170 1 224 0 Q 278 1 315 37 Q 351 74 352 128 L 352 128 Z M 109 206 L 48 252 L 109 206 L 48 252 L 48 272 L 48 272 L 120 272 L 128 272 L 128 288 L 128 288 L 120 288 L 32 288 L 32 280 L 32 280 L 32 248 L 32 248 L 32 244 L 32 244 L 35 242 L 35 242 L 96 196 L 96 196 L 96 144 L 96 144 L 96 136 L 96 136 L 96 128 L 96 128 L 111 205 L 111 205 L 109 206 L 109 206 Z M 284 96 L 331 96 L 284 96 L 331 96 Q 321 61 292 39 L 266 72 L 266 72 L 284 96 L 284 96 Z M 279 30 Q 254 16 224 16 Q 181 17 150 44 Q 120 70 113 112 L 212 112 L 212 112 L 279 30 L 279 30 Z M 169 304 L 184 304 L 169 304 L 280 304 L 271 317 L 271 317 L 233 369 L 233 369 L 257 415 L 257 415 L 304 320 L 304 320 L 384 320 L 384 320 L 443 496 L 443 496 L 448 512 L 448 512 L 431 512 L 0 512 L 5 496 L 5 496 L 64 320 L 64 320 L 144 320 L 144 320 L 192 415 L 192 415 L 215 369 L 215 369 L 178 317 L 178 317 L 169 304 L 169 304 Z M 249 320 L 200 320 L 249 320 L 200 320 L 223 353 L 223 353 L 224 350 L 224 350 L 225 353 L 225 353 L 249 320 L 249 320 Z M 210 487 L 134 336 L 210 487 L 134 336 L 76 336 L 76 336 L 22 496 L 22 496 L 214 496 L 214 496 L 210 487 L 210 487 Z M 201 433 L 215 462 L 201 433 L 215 462 L 224 480 L 224 480 L 233 462 L 233 462 L 248 433 L 248 433 L 224 386 L 224 386 L 201 433 L 201 433 Z M 234 496 L 426 496 L 234 496 L 426 496 L 373 336 L 373 336 L 314 336 L 314 336 L 238 487 L 238 487 L 234 496 L 234 496 Z" />
</svg>