<svg xmlns="http://www.w3.org/2000/svg" viewBox="0 0 640 512">
  <path d="M 312 0 L 328 0 L 312 0 L 328 0 L 328 32 L 328 32 Q 393 37 436 82 Q 478 126 480 192 L 480 285 L 480 285 L 542 363 L 542 363 L 544 365 L 544 365 L 544 368 L 544 368 L 544 408 L 544 408 L 544 416 L 544 416 L 536 416 L 96 416 L 96 408 L 96 408 L 96 368 L 96 368 L 96 365 L 96 365 L 98 363 L 98 363 L 160 285 L 160 285 L 160 192 L 160 192 Q 162 126 204 82 Q 247 37 312 32 L 312 0 L 312 0 Z M 320 48 Q 259 50 218 90 L 218 90 L 218 90 Q 178 131 176 192 L 176 288 L 176 288 L 176 291 L 176 291 L 174 293 L 174 293 L 112 371 L 112 371 L 112 400 L 112 400 L 528 400 L 528 400 L 528 371 L 528 371 L 466 293 L 466 293 L 464 291 L 464 291 L 464 288 L 464 288 L 464 192 L 464 192 Q 462 131 422 90 Q 381 50 320 48 L 320 48 Z M 286 482 Q 300 496 320 496 Q 340 496 354 482 Q 368 468 368 448 L 384 448 L 384 448 Q 384 474 365 493 Q 346 512 320 512 Q 294 512 275 493 Q 256 474 256 448 L 272 448 L 272 448 Q 272 468 286 482 L 286 482 Z M 0 176 L 8 176 L 0 176 L 112 176 L 112 192 L 112 192 L 104 192 L 0 192 L 0 176 L 0 176 Z M 536 176 L 632 176 L 536 176 L 640 176 L 640 192 L 640 192 L 632 192 L 528 192 L 528 176 L 528 176 L 536 176 L 536 176 Z M 611 44 L 604 47 L 611 44 L 604 47 L 524 87 L 524 87 L 516 91 L 516 91 L 509 76 L 509 76 L 516 73 L 516 73 L 596 33 L 596 33 L 604 29 L 604 29 L 611 44 L 611 44 Z M 36 47 L 29 44 L 36 47 L 29 44 L 36 29 L 36 29 L 44 33 L 44 33 L 124 73 L 124 73 L 131 77 L 131 77 L 124 91 L 124 91 L 116 87 L 116 87 L 36 47 L 36 47 Z" />
</svg>