<svg xmlns="http://www.w3.org/2000/svg" viewBox="0 0 640 512">
  <path d="M 320 32 Q 334 32 343 41 L 343 41 L 343 41 Q 352 50 352 64 Q 352 78 343 87 Q 334 96 320 96 Q 306 96 297 87 Q 288 78 288 64 Q 288 50 297 41 Q 306 32 320 32 L 320 32 Z M 320 128 Q 356 127 375 96 Q 393 64 375 32 Q 356 1 320 0 Q 284 1 265 32 Q 247 64 265 96 Q 284 127 320 128 L 320 128 Z M 280 192 L 360 192 L 280 192 L 360 192 L 406 352 L 406 352 L 234 352 L 234 352 L 280 192 L 280 192 Z M 384 160 L 256 160 L 384 160 L 256 160 L 201 352 L 201 352 L 192 384 L 192 384 L 225 384 L 256 384 L 256 496 L 256 496 L 256 512 L 256 512 L 288 512 L 288 512 L 288 496 L 288 496 L 288 384 L 288 384 L 352 384 L 352 384 L 352 496 L 352 496 L 352 512 L 352 512 L 384 512 L 384 512 L 384 496 L 384 496 L 384 384 L 384 384 L 415 384 L 448 384 L 439 352 L 439 352 L 384 160 L 384 160 Z M 35 32 L 16 32 L 35 32 L 0 32 L 0 48 L 0 48 L 0 112 L 0 112 Q 1 178 28 233 Q 56 288 104 326 Q 65 378 64 448 L 64 464 L 64 464 L 64 480 L 64 480 L 80 480 L 112 480 Q 175 479 224 447 L 224 416 L 224 416 L 213 416 L 213 416 Q 169 447 112 448 L 96 448 L 96 448 Q 97 389 130 345 L 139 332 L 139 332 L 148 320 L 148 320 L 136 310 L 136 310 L 124 301 L 124 301 Q 81 267 57 219 Q 32 170 32 112 L 32 64 L 32 64 L 35 64 L 35 64 Q 92 64 141 87 Q 190 110 226 151 L 236 115 L 236 115 Q 197 76 145 54 Q 94 32 35 32 L 35 32 Z M 528 448 Q 471 447 427 416 L 416 416 L 416 416 L 416 447 L 416 447 Q 465 479 528 480 L 560 480 L 576 480 L 576 464 L 576 464 L 576 448 L 576 448 Q 575 378 536 326 Q 584 288 612 233 Q 639 178 640 112 L 640 48 L 640 48 L 640 32 L 640 32 L 624 32 L 605 32 Q 546 32 495 54 Q 443 76 404 115 L 415 151 L 415 151 Q 450 110 499 87 Q 548 64 605 64 L 608 64 L 608 64 L 608 112 L 608 112 Q 608 170 583 218 Q 559 267 517 301 L 504 310 L 504 310 L 492 320 L 492 320 L 501 332 L 501 332 L 511 344 L 511 344 Q 543 389 544 448 L 528 448 L 528 448 Z" />
</svg>