<svg xmlns="http://www.w3.org/2000/svg" viewBox="0 0 510 511">
  <path d="M 227 0 Q 207 12 180 38 L 180 38 L 180 38 Q 153 63 133 98 L 133 98 L 133 98 Q 112 134 111 175 Q 113 236 154 277 Q 195 318 257 320 Q 318 318 359 277 Q 400 236 402 175 Q 403 155 385 115 Q 366 74 315 29 L 286 58 L 286 58 L 227 0 L 227 0 Z M 315 218 Q 314 243 298 259 L 298 259 L 298 259 Q 281 276 257 277 Q 232 276 215 259 Q 199 243 198 218 Q 199 196 213 176 Q 227 156 241 144 Q 255 131 257 131 Q 258 131 272 144 Q 286 156 300 176 Q 314 196 315 218 L 315 218 Z M 39 297 L 16 289 L 39 297 L 16 289 L 0 335 L 0 335 L 23 343 L 23 343 L 184 400 L 184 400 L 23 457 L 23 457 L 0 466 L 0 466 L 16 511 L 16 511 L 39 503 L 39 503 L 255 426 L 255 426 L 471 503 L 471 503 L 494 511 L 494 511 L 510 466 L 510 466 L 487 457 L 487 457 L 326 400 L 326 400 L 487 343 L 487 343 L 510 335 L 510 335 L 494 289 L 494 289 L 471 297 L 471 297 L 255 375 L 255 375 L 39 297 L 39 297 Z" />
</svg>