<svg xmlns="http://www.w3.org/2000/svg" viewBox="0 0 512 512">
  <path d="M 4 494 L 0 512 L 4 494 L 0 512 L 18 508 L 18 508 L 408 410 L 408 410 L 424 406 L 424 406 L 512 384 L 512 384 Q 511 277 460 190 Q 408 104 322 52 Q 235 1 128 0 L 106 88 L 106 88 L 102 104 L 102 104 L 4 494 L 4 494 Z M 496 372 L 424 390 L 496 372 L 424 390 Q 420 307 380 240 Q 339 173 272 132 Q 205 92 122 88 L 140 16 L 140 16 Q 238 20 317 68 Q 396 116 444 195 Q 492 274 496 372 L 496 372 Z M 408 394 L 22 490 L 408 394 L 22 490 L 119 104 L 119 104 Q 199 107 263 145 Q 328 184 367 249 Q 405 314 408 394 L 408 394 Z M 176 280 Q 199 279 211 260 Q 221 240 211 220 Q 199 201 176 200 Q 153 201 141 220 Q 131 240 141 260 Q 153 279 176 280 L 176 280 Z M 152 240 Q 154 218 176 216 Q 198 218 200 240 Q 198 262 176 264 Q 154 262 152 240 L 152 240 Z M 312 336 Q 311 313 292 301 Q 272 291 252 301 Q 233 313 232 336 Q 233 359 252 371 Q 272 381 292 371 Q 311 359 312 336 L 312 336 Z M 272 312 Q 294 314 296 336 Q 294 358 272 360 Q 250 358 248 336 Q 250 314 272 312 L 272 312 Z M 144 408 Q 167 407 179 388 Q 189 368 179 348 Q 167 329 144 328 Q 121 329 109 348 Q 99 368 109 388 Q 121 407 144 408 L 144 408 Z M 120 368 Q 122 346 144 344 Q 166 346 168 368 Q 166 390 144 392 Q 122 390 120 368 L 120 368 Z" />
</svg>