<svg xmlns="http://www.w3.org/2000/svg" viewBox="0 0 363 520">
  <path d="M 147 64 Q 148 41 167 29 Q 187 19 207 29 Q 226 41 227 64 Q 226 87 207 99 Q 187 109 167 99 Q 148 87 147 64 L 147 64 Z M 243 64 Q 242 32 215 16 Q 187 0 159 16 Q 132 32 131 64 Q 132 96 159 112 Q 187 128 215 112 Q 242 96 243 64 L 243 64 Z M 99 256 L 99 248 L 99 256 L 99 248 L 83 248 L 83 248 L 83 256 L 83 256 L 83 512 L 83 512 L 83 520 L 83 520 L 91 520 L 147 520 L 147 512 L 147 512 L 147 360 L 147 360 L 163 360 L 163 360 L 163 512 L 163 512 L 163 520 L 163 520 L 171 520 L 227 520 L 227 512 L 227 512 L 227 256 L 227 256 L 227 248 L 227 248 L 211 248 L 211 248 L 211 256 L 211 256 L 211 504 L 211 504 L 179 504 L 179 504 L 179 352 L 179 352 L 179 344 L 179 344 L 171 344 L 131 344 L 131 352 L 131 352 L 131 504 L 131 504 L 99 504 L 99 504 L 99 256 L 99 256 Z M 323 344 Q 345 346 347 368 L 347 512 L 347 512 L 347 520 L 347 520 L 363 520 L 363 520 L 363 512 L 363 512 L 363 368 L 363 368 Q 363 351 351 340 Q 340 328 323 328 Q 306 328 295 340 Q 283 351 283 368 L 283 384 L 283 384 L 283 392 L 283 392 L 299 392 L 299 392 L 299 384 L 299 384 L 299 368 L 299 368 Q 301 346 323 344 L 323 344 Z M 96 136 Q 91 136 89 141 L 4 317 L 4 317 L 0 324 L 0 324 L 15 331 L 15 331 L 18 324 L 18 324 L 101 152 L 101 152 L 210 152 L 210 152 L 308 300 L 308 300 L 313 307 L 313 307 L 326 298 L 326 298 L 322 292 L 322 292 L 221 140 L 221 140 Q 218 136 214 136 L 96 136 L 96 136 Z" />
</svg>