<svg xmlns="http://www.w3.org/2000/svg" viewBox="0 0 640 512">
  <path d="M 295 60 L 286 48 L 295 60 L 286 48 Q 272 32 252 32 Q 233 32 221 45 Q 208 57 208 76 L 208 79 L 208 79 Q 208 98 222 113 L 247 137 L 247 137 L 320 211 L 320 211 L 393 137 L 393 137 L 418 112 L 418 112 Q 432 98 432 79 L 432 76 L 432 76 Q 432 57 419 45 Q 407 32 388 32 Q 368 32 354 48 L 345 60 L 345 60 L 320 91 L 320 91 L 295 60 L 295 60 Z M 416 160 L 343 233 L 416 160 L 343 233 L 320 256 L 320 256 L 297 233 L 297 233 L 224 160 L 224 160 L 199 135 L 199 135 Q 176 112 176 79 L 176 75 L 176 75 Q 177 43 198 22 Q 220 1 252 0 Q 278 0 298 16 Q 305 21 311 28 L 320 40 L 320 40 L 329 28 L 329 28 Q 335 21 342 16 Q 362 0 388 0 Q 420 1 442 22 Q 463 43 464 76 L 464 79 L 464 79 Q 464 112 441 135 L 416 160 L 416 160 Z M 112 64 L 128 64 L 112 64 L 128 64 L 128 80 L 128 80 L 128 265 L 128 265 L 165 229 L 165 229 L 176 217 L 176 217 L 187 229 L 187 229 L 320 361 L 320 361 L 453 229 L 453 229 L 464 217 L 464 217 L 475 229 L 475 229 L 512 265 L 512 265 L 512 80 L 512 80 L 512 64 L 512 64 L 528 64 L 640 64 L 640 80 L 640 80 L 640 384 L 640 384 L 640 391 L 640 391 L 635 395 L 635 395 L 531 499 L 531 499 L 520 511 L 520 511 L 497 488 L 497 488 L 509 477 L 509 477 L 608 377 L 608 377 L 608 96 L 608 96 L 544 96 L 544 96 L 544 288 L 544 288 L 544 295 L 544 295 L 543 296 L 543 296 L 539 299 L 539 299 L 531 307 L 531 307 L 459 379 L 459 379 L 448 391 L 448 391 L 443 395 L 443 395 L 432 407 L 432 407 L 409 384 L 409 384 L 421 373 L 421 373 L 425 368 L 425 368 L 437 357 L 437 357 L 497 296 L 497 296 L 464 263 L 464 263 L 336 391 L 336 391 L 336 496 L 336 496 L 336 512 L 336 512 L 304 512 L 304 512 L 304 496 L 304 496 L 304 391 L 304 391 L 176 263 L 176 263 L 143 296 L 143 296 L 203 357 L 203 357 Q 203 357 203 357 Q 203 357 203 357 L 219 373 L 219 373 L 231 384 L 231 384 L 208 407 L 208 407 L 197 395 L 197 395 L 181 379 L 181 379 Q 181 379 181 379 L 109 307 L 109 307 L 101 299 L 101 299 L 97 296 L 97 296 L 96 295 L 96 295 L 96 288 L 96 288 L 96 96 L 96 96 L 32 96 L 32 96 L 32 377 L 32 377 L 131 477 L 131 477 L 143 488 L 143 488 L 120 511 L 120 511 L 109 499 L 109 499 L 5 395 L 5 395 L 0 391 L 0 391 L 0 384 L 0 384 L 0 80 L 0 80 L 0 64 L 0 64 L 16 64 L 112 64 Z" />
</svg>