<svg xmlns="http://www.w3.org/2000/svg" viewBox="0 0 640 512">
  <path d="M 512 160 L 512 17 L 512 160 L 512 17 L 512 0 L 512 0 L 496 4 L 496 4 L 336 48 L 336 48 L 336 128 L 336 128 L 336 177 L 336 177 L 365 200 L 365 200 L 512 160 L 512 160 Z M 336 360 L 336 391 L 336 360 L 336 391 Q 321 373 296 363 Q 271 352 240 352 Q 192 353 161 375 Q 129 398 128 432 Q 129 466 161 489 Q 192 511 240 512 Q 288 511 319 489 Q 351 466 352 432 L 352 373 L 352 373 L 336 360 L 336 360 Z M 352 128 L 352 60 L 352 128 L 352 60 L 496 21 L 496 21 L 496 148 L 496 148 L 352 187 L 352 187 L 352 128 L 352 128 Z M 310 389 Q 336 408 336 432 Q 336 456 310 476 Q 283 495 240 496 Q 197 495 170 476 Q 144 456 144 432 Q 144 408 170 389 Q 197 369 240 368 Q 283 369 310 389 L 310 389 Z M 16 5 L 10 0 L 16 5 L 10 0 L 0 13 L 0 13 L 6 18 L 6 18 L 624 507 L 624 507 L 630 512 L 630 512 L 640 500 L 640 500 L 634 495 L 634 495 L 16 5 L 16 5 Z" />
</svg>