<svg xmlns="http://www.w3.org/2000/svg" viewBox="0 0 464 464">
  <path d="M 176 16 L 16 16 L 176 16 L 16 16 L 16 176 L 16 176 L 176 176 L 176 176 L 176 16 L 176 16 Z M 16 0 L 176 0 L 16 0 L 192 0 L 192 16 L 192 16 L 192 176 L 192 176 L 192 192 L 192 192 L 176 192 L 0 192 L 0 176 L 0 176 L 0 16 L 0 16 L 0 0 L 0 0 L 16 0 L 16 0 Z M 176 272 L 16 272 L 176 272 L 16 272 L 16 432 L 16 432 L 176 432 L 176 432 L 176 272 L 176 272 Z M 16 256 L 176 256 L 16 256 L 192 256 L 192 272 L 192 272 L 192 432 L 192 432 L 192 448 L 192 448 L 176 448 L 0 448 L 0 432 L 0 432 L 0 272 L 0 272 L 0 256 L 0 256 L 16 256 L 16 256 Z M 272 16 L 272 176 L 272 16 L 272 176 L 432 176 L 432 176 L 432 16 L 432 16 L 272 16 L 272 16 Z M 256 0 L 272 0 L 256 0 L 448 0 L 448 16 L 448 16 L 448 176 L 448 176 L 448 192 L 448 192 L 432 192 L 256 192 L 256 176 L 256 176 L 256 16 L 256 16 L 256 0 L 256 0 Z M 360 240 L 360 248 L 360 240 L 360 248 L 360 344 L 360 344 L 456 344 L 464 344 L 464 360 L 464 360 L 456 360 L 360 360 L 360 456 L 360 456 L 360 464 L 360 464 L 344 464 L 344 464 L 344 456 L 344 456 L 344 360 L 344 360 L 248 360 L 240 360 L 240 344 L 240 344 L 248 344 L 344 344 L 344 248 L 344 248 L 344 240 L 344 240 L 360 240 L 360 240 Z" />
</svg>