<svg xmlns="http://www.w3.org/2000/svg" viewBox="0 0 640 512">
  <path d="M 251 129 L 245 134 L 251 129 L 245 134 L 149 222 L 149 222 L 144 227 L 144 227 L 139 222 L 139 222 L 43 134 L 43 134 L 37 129 L 37 129 L 48 117 L 48 117 L 53 122 L 53 122 L 136 198 L 136 198 L 136 8 L 136 8 L 136 0 L 136 0 L 152 0 L 152 0 L 152 8 L 152 8 L 152 198 L 152 198 L 235 122 L 235 122 L 241 117 L 241 117 L 251 129 L 251 129 Z M 0 496 L 8 496 L 0 496 L 640 496 L 640 512 L 640 512 L 632 512 L 0 512 L 0 496 L 0 496 Z M 178 464 L 162 464 L 178 464 L 162 464 L 192 256 L 192 256 L 384 128 L 384 128 L 576 256 L 576 256 L 606 464 L 606 464 L 590 464 L 590 464 L 561 265 L 561 265 L 392 153 L 392 153 L 392 286 L 392 286 L 501 464 L 501 464 L 482 464 L 482 464 L 392 317 L 392 317 L 392 464 L 392 464 L 376 464 L 376 464 L 376 153 L 376 153 L 207 265 L 207 265 L 178 464 L 178 464 Z" />
</svg>