<svg xmlns="http://www.w3.org/2000/svg" viewBox="0 0 416 416">
  <path d="M 0 384 L 0 416 L 0 384 L 0 416 L 32 416 L 32 416 L 32 384 L 32 384 L 0 384 L 0 384 Z M 96 32 L 128 32 L 96 32 L 128 32 L 128 0 L 128 0 L 96 0 L 96 0 L 96 32 L 96 32 Z M 96 416 L 128 416 L 96 416 L 128 416 L 128 384 L 128 384 L 96 384 L 96 384 L 96 416 L 96 416 Z M 96 192 L 96 224 L 96 192 L 96 224 L 128 224 L 128 224 L 128 192 L 128 192 L 96 192 L 96 192 Z M 288 416 L 320 416 L 288 416 L 320 416 L 320 384 L 320 384 L 288 384 L 288 384 L 288 416 L 288 416 Z M 288 0 L 288 32 L 288 0 L 288 32 L 320 32 L 320 32 L 320 0 L 320 0 L 288 0 L 288 0 Z M 288 224 L 320 224 L 288 224 L 320 224 L 320 192 L 320 192 L 288 192 L 288 192 L 288 224 L 288 224 Z M 192 384 L 192 416 L 192 384 L 192 416 L 224 416 L 224 416 L 224 384 L 224 384 L 192 384 L 192 384 Z M 192 32 L 224 32 L 192 32 L 224 32 L 224 0 L 224 0 L 192 0 L 192 0 L 192 32 L 192 32 Z M 192 192 L 192 224 L 192 192 L 192 224 L 224 224 L 224 224 L 224 192 L 224 192 L 192 192 L 192 192 Z M 384 416 L 416 416 L 384 416 L 416 416 L 416 384 L 416 384 L 384 384 L 384 384 L 384 416 L 384 416 Z M 384 32 L 416 32 L 384 32 L 416 32 L 416 0 L 416 0 L 384 0 L 384 0 L 384 32 L 384 32 Z M 0 0 L 0 32 L 0 0 L 0 32 L 32 32 L 32 32 L 32 0 L 32 0 L 0 0 L 0 0 Z M 384 224 L 416 224 L 384 224 L 416 224 L 416 192 L 416 192 L 384 192 L 384 192 L 384 224 L 384 224 Z M 0 192 L 0 224 L 0 192 L 0 224 L 32 224 L 32 224 L 32 192 L 32 192 L 0 192 L 0 192 Z M 192 320 L 224 320 L 192 320 L 224 320 L 224 288 L 224 288 L 192 288 L 192 288 L 192 320 L 192 320 Z M 384 288 L 384 320 L 384 288 L 384 320 L 416 320 L 416 320 L 416 288 L 416 288 L 384 288 L 384 288 Z M 0 320 L 32 320 L 0 320 L 32 320 L 32 288 L 32 288 L 0 288 L 0 288 L 0 320 L 0 320 Z M 384 96 L 384 128 L 384 96 L 384 128 L 416 128 L 416 128 L 416 96 L 416 96 L 384 96 L 384 96 Z M 0 128 L 32 128 L 0 128 L 32 128 L 32 96 L 32 96 L 0 96 L 0 96 L 0 128 L 0 128 Z M 192 96 L 192 128 L 192 96 L 192 128 L 224 128 L 224 128 L 224 96 L 224 96 L 192 96 L 192 96 Z" />
</svg>