<svg xmlns="http://www.w3.org/2000/svg" viewBox="0 0 640 480">
  <path d="M 16 16 L 432 16 L 16 16 L 432 16 L 432 194 L 432 194 Q 440 196 448 199 L 448 16 L 448 16 L 448 0 L 448 0 L 432 0 L 0 0 L 0 16 L 0 16 L 0 432 L 0 432 L 0 448 L 0 448 L 16 448 L 224 448 L 224 432 L 224 432 L 16 432 L 16 432 L 16 16 L 16 16 Z M 96 72 L 96 64 L 96 72 L 96 64 L 80 64 L 80 64 L 80 72 L 80 72 L 80 248 L 80 248 L 80 256 L 80 256 L 96 256 L 96 256 L 96 248 L 96 248 L 96 72 L 96 72 Z M 160 72 L 160 64 L 160 72 L 160 64 L 144 64 L 144 64 L 144 72 L 144 72 L 144 248 L 144 248 L 144 256 L 144 256 L 160 256 L 160 256 L 160 248 L 160 248 L 160 72 L 160 72 Z M 336 312 Q 337 281 357 261 L 357 261 L 357 261 Q 377 241 408 240 Q 453 242 473 280 L 477 290 L 477 290 L 485 282 L 485 282 Q 496 272 512 272 Q 529 272 540 284 Q 551 295 552 312 L 552 312 L 552 312 L 552 320 L 552 320 L 559 320 L 559 320 Q 587 324 605 344 Q 623 363 624 392 L 624 464 L 624 464 L 552 464 L 272 464 L 272 392 L 272 392 Q 273 365 288 346 Q 304 327 330 321 L 336 320 L 336 320 L 336 313 L 336 313 Q 336 313 336 313 Q 336 312 336 312 L 336 312 Z M 408 224 Q 372 225 347 248 L 347 248 L 347 248 Q 323 272 320 307 Q 292 316 274 338 Q 257 361 256 392 L 256 472 L 256 472 L 256 480 L 256 480 L 264 480 L 640 480 L 640 472 L 640 472 L 640 392 L 640 392 Q 639 359 619 335 Q 599 312 568 305 Q 565 284 549 270 Q 534 256 512 256 Q 495 256 482 265 Q 457 226 408 224 L 408 224 Z" />
</svg>