<svg xmlns="http://www.w3.org/2000/svg" viewBox="0 0 512 512">
  <path d="M 8 0 L 0 0 L 8 0 L 0 0 L 0 8 L 0 8 L 0 32 L 0 32 L 0 33 L 0 33 L 0 33 L 0 33 L 32 232 L 32 232 L 0 382 L 0 382 L 0 383 L 0 383 L 0 384 L 0 384 L 0 440 L 0 440 L 0 504 L 0 504 L 0 512 L 0 512 L 8 512 L 120 512 L 120 504 L 120 504 L 120 448 L 120 448 L 142 448 L 142 448 L 268 511 L 268 511 L 270 512 L 270 512 L 272 512 L 512 512 L 512 496 L 512 496 L 504 496 L 480 496 L 480 432 L 480 432 L 480 427 L 480 427 L 476 425 L 476 425 L 272 300 L 272 300 L 272 8 L 272 8 L 272 0 L 272 0 L 264 0 L 8 0 Z M 16 448 L 104 448 L 16 448 L 104 448 L 104 496 L 104 496 L 16 496 L 16 496 L 16 448 L 16 448 Z M 112 432 L 16 432 L 112 432 L 16 432 L 16 385 L 16 385 L 48 234 L 48 234 L 48 232 L 48 232 L 48 231 L 48 231 L 16 31 L 16 31 L 16 16 L 16 16 L 112 16 L 112 16 L 112 248 L 112 248 L 112 256 L 112 256 L 128 256 L 128 256 L 128 248 L 128 248 L 128 16 L 128 16 L 256 16 L 256 16 L 256 304 L 256 304 L 256 309 L 256 309 L 260 311 L 260 311 L 464 437 L 464 437 L 464 496 L 464 496 L 274 496 L 274 496 L 148 433 L 148 433 L 146 432 L 146 432 L 144 432 L 112 432 Z" />
</svg>