<svg xmlns="http://www.w3.org/2000/svg" viewBox="0 0 512 512">
  <path d="M 336 16 L 16 16 L 336 16 L 16 16 L 16 336 L 16 336 L 128 336 L 128 336 L 128 352 L 128 352 L 16 352 L 0 352 L 0 336 L 0 336 L 0 16 L 0 16 L 0 0 L 0 0 L 16 0 L 352 0 L 352 16 L 352 16 L 352 128 L 352 128 L 336 128 L 336 128 L 336 16 L 336 16 Z M 288 128 L 272 128 L 288 128 L 272 128 L 272 80 L 272 80 L 80 80 L 80 80 L 80 272 L 80 272 L 128 272 L 128 272 L 128 288 L 128 288 L 80 288 L 64 288 L 64 272 L 64 272 L 64 80 L 64 80 L 64 64 L 64 64 L 80 64 L 288 64 L 288 80 L 288 80 L 288 128 L 288 128 Z M 160 160 L 176 160 L 160 160 L 512 160 L 512 176 L 512 176 L 512 496 L 512 496 L 512 512 L 512 512 L 496 512 L 160 512 L 160 496 L 160 496 L 160 176 L 160 176 L 160 160 L 160 160 Z M 176 176 L 176 496 L 176 176 L 176 496 L 496 496 L 496 496 L 496 176 L 496 176 L 176 176 L 176 176 Z" />
</svg>