<svg xmlns="http://www.w3.org/2000/svg" viewBox="0 0 512 512">
  <path d="M 256 16 Q 321 17 376 48 L 376 48 L 376 48 Q 431 80 464 136 Q 496 193 496 256 Q 496 319 464 376 Q 431 432 376 464 Q 321 495 256 496 Q 191 495 136 464 Q 81 432 48 376 Q 16 319 16 256 Q 16 193 48 136 Q 81 80 136 48 Q 191 17 256 16 L 256 16 Z M 256 512 Q 326 511 384 478 L 384 478 L 384 478 Q 442 444 478 384 Q 512 323 512 256 Q 512 189 478 128 Q 442 68 384 34 Q 326 1 256 0 Q 186 1 128 34 Q 70 68 34 128 Q 0 189 0 256 Q 0 323 34 384 Q 70 444 128 478 Q 186 511 256 512 L 256 512 Z M 160 199 L 256 117 L 160 199 L 256 117 L 352 199 L 352 199 L 352 208 L 352 208 L 160 208 L 160 208 L 160 199 L 160 199 Z M 256 96 L 144 192 L 256 96 L 144 192 L 144 208 L 144 208 L 144 224 L 144 224 L 160 224 L 368 224 L 368 208 L 368 208 L 368 192 L 368 192 L 256 96 L 256 96 Z M 160 313 L 160 304 L 160 313 L 160 304 L 352 304 L 352 304 L 352 313 L 352 313 L 256 395 L 256 395 L 160 313 L 160 313 Z M 256 416 L 368 320 L 256 416 L 368 320 L 368 304 L 368 304 L 368 288 L 368 288 L 352 288 L 144 288 L 144 304 L 144 304 L 144 320 L 144 320 L 256 416 L 256 416 Z" />
</svg>