<svg xmlns="http://www.w3.org/2000/svg" viewBox="0 0 512 512">
  <path d="M 484 35 L 476 48 L 484 35 L 476 48 L 467 62 L 467 62 L 419 137 L 419 137 L 410 151 L 410 151 L 402 164 L 402 164 L 388 156 L 388 156 L 381 151 L 381 151 L 354 192 L 354 192 L 334 192 L 334 192 L 368 142 L 368 142 L 361 138 L 361 138 L 348 130 L 348 130 L 356 116 L 356 116 L 365 103 L 365 103 L 413 27 L 413 27 L 422 14 L 422 14 L 430 0 L 430 0 L 444 9 L 444 9 L 471 26 L 471 26 L 484 35 L 484 35 Z M 262 153 L 248 192 L 262 153 L 248 192 L 232 192 L 232 192 L 246 148 L 246 148 L 240 147 L 240 147 L 225 143 L 225 143 L 229 127 L 229 127 L 233 112 L 233 112 L 255 32 L 255 32 L 259 17 L 259 17 L 263 1 L 263 1 L 279 6 L 279 6 L 310 14 L 310 14 L 325 18 L 325 18 L 321 34 L 321 34 L 316 49 L 316 49 L 295 128 L 295 128 L 291 144 L 291 144 L 286 159 L 286 159 L 271 155 L 271 155 L 262 153 L 262 153 Z M 244 131 L 275 140 L 244 131 L 275 140 L 280 124 L 280 124 L 301 45 L 301 45 L 305 29 L 305 29 L 274 21 L 274 21 L 270 36 L 270 36 L 249 116 L 249 116 L 244 131 L 244 131 Z M 462 40 L 435 22 L 462 40 L 435 22 L 427 36 L 427 36 L 379 111 L 379 111 L 370 125 L 370 125 L 397 142 L 397 142 L 406 129 L 406 129 L 454 53 L 454 53 L 462 40 L 462 40 Z M 16 240 L 16 320 L 16 240 L 16 320 Q 18 381 58 422 Q 99 462 160 464 L 288 464 L 288 464 Q 349 462 390 422 Q 430 381 432 320 L 432 240 L 432 240 L 424 240 L 168 240 L 168 296 L 168 296 L 168 312 L 168 312 L 152 312 L 120 312 L 120 296 L 120 296 L 120 272 L 120 272 L 104 272 L 104 272 L 104 328 L 104 328 L 104 344 L 104 344 L 88 344 L 56 344 L 56 328 L 56 328 L 56 240 L 56 240 L 16 240 L 16 240 Z M 16 224 L 56 224 L 16 224 L 512 224 L 512 240 L 512 240 L 504 240 L 448 240 L 448 320 L 448 320 Q 448 360 431 393 Q 414 426 384 448 L 384 504 L 384 504 L 384 512 L 384 512 L 368 512 L 368 512 L 368 504 L 368 504 L 368 459 L 368 459 Q 332 480 288 480 L 160 480 L 160 480 Q 116 480 80 459 L 80 504 L 80 504 L 80 512 L 80 512 L 64 512 L 64 512 L 64 504 L 64 504 L 64 448 L 64 448 Q 34 426 17 393 Q 0 360 0 320 L 0 240 L 0 240 L 0 224 L 0 224 L 16 224 L 16 224 Z M 72 256 L 72 312 L 72 256 L 72 312 L 72 328 L 72 328 L 88 328 L 88 328 L 88 312 L 88 312 L 88 272 L 88 272 L 88 256 L 88 256 L 104 256 L 136 256 L 136 272 L 136 272 L 136 280 L 136 280 L 136 296 L 136 296 L 152 296 L 152 296 L 152 280 L 152 280 L 152 256 L 152 256 L 152 240 L 152 240 L 136 240 L 72 240 L 72 256 L 72 256 Z" />
</svg>