<svg xmlns="http://www.w3.org/2000/svg" viewBox="0 0 512 512">
  <path d="M 145 80 L 154 80 L 145 80 L 154 80 L 159 72 L 159 72 Q 174 47 199 31 Q 224 16 256 16 Q 287 16 313 31 Q 338 47 353 72 L 358 80 L 358 80 L 367 80 L 368 80 Q 422 81 458 117 Q 494 154 496 208 Q 494 262 458 299 Q 422 335 368 336 L 334 336 L 328 336 L 323 341 L 323 341 Q 296 367 256 368 Q 216 367 189 341 L 184 336 L 184 336 L 177 336 L 144 336 Q 90 335 53 299 Q 17 262 16 208 Q 17 154 53 117 Q 90 81 144 80 L 145 80 L 145 80 Z M 256 0 Q 220 0 191 18 L 191 18 L 191 18 Q 162 35 145 64 L 144 64 L 144 64 Q 83 66 42 106 Q 2 147 0 208 Q 2 269 42 310 Q 83 350 144 352 L 178 352 L 178 352 Q 209 383 256 384 Q 303 383 334 352 L 368 352 L 368 352 Q 429 350 470 310 Q 510 269 512 208 Q 510 147 470 106 Q 429 66 368 64 L 367 64 L 367 64 Q 350 35 321 18 Q 292 0 256 0 L 256 0 Z M 168 456 L 120 456 L 168 456 L 120 456 L 120 408 L 120 408 L 168 408 L 168 408 L 168 456 L 168 456 Z M 120 392 L 104 392 L 120 392 L 104 392 L 104 408 L 104 408 L 104 456 L 104 456 L 104 472 L 104 472 L 120 472 L 184 472 L 184 456 L 184 456 L 184 408 L 184 408 L 184 392 L 184 392 L 168 392 L 120 392 Z M 48 464 L 48 496 L 48 464 L 48 496 L 16 496 L 16 496 L 16 464 L 16 464 L 48 464 L 48 464 Z M 16 448 L 0 448 L 16 448 L 0 448 L 0 464 L 0 464 L 0 496 L 0 496 L 0 512 L 0 512 L 16 512 L 64 512 L 64 496 L 64 496 L 64 464 L 64 464 L 64 448 L 64 448 L 48 448 L 16 448 Z" />
</svg>