<svg xmlns="http://www.w3.org/2000/svg" viewBox="0 0 473 448">
  <path d="M 299 0 L 307 0 L 299 0 L 459 0 L 459 8 L 459 8 L 459 16 L 459 16 L 459 19 L 459 19 L 457 21 L 457 21 L 318 176 L 318 176 L 451 176 L 459 176 L 459 192 L 459 192 L 451 192 L 299 192 L 299 184 L 299 184 L 299 176 L 299 176 L 299 173 L 299 173 L 301 171 L 301 171 L 440 16 L 440 16 L 307 16 L 299 16 L 299 0 L 299 0 Z M 123 5 L 129 10 L 123 5 L 129 10 L 241 122 L 241 122 L 246 128 L 246 128 L 235 139 L 235 139 L 229 134 L 229 134 L 131 35 L 131 35 L 131 440 L 131 440 L 131 448 L 131 448 L 115 448 L 115 448 L 115 440 L 115 440 L 115 35 L 115 35 L 17 134 L 17 134 L 11 139 L 11 139 L 0 128 L 0 128 L 5 122 L 5 122 L 117 10 L 117 10 L 123 5 L 123 5 Z M 372 261 L 374 256 L 372 261 L 374 256 L 384 256 L 384 256 L 386 261 L 386 261 L 473 448 L 473 448 L 456 448 L 456 448 L 433 400 L 433 400 L 325 400 L 325 400 L 302 448 L 302 448 L 285 448 L 285 448 L 372 261 L 372 261 Z M 379 283 L 332 384 L 379 283 L 332 384 L 426 384 L 426 384 L 379 283 L 379 283 Z" />
</svg>