<svg xmlns="http://www.w3.org/2000/svg" viewBox="0 0 512 446">
  <path d="M 364 0 L 356 14 L 364 0 L 356 14 Q 374 23 398 41 Q 421 59 444 86 Q 466 113 481 147 Q 495 181 496 223 Q 495 265 481 299 Q 466 333 444 360 Q 421 387 398 405 Q 374 423 356 432 L 364 446 L 364 446 Q 383 437 408 418 Q 433 398 456 370 Q 480 342 496 305 Q 511 268 512 223 Q 511 178 496 141 Q 480 104 456 76 Q 433 48 408 28 Q 383 9 364 0 L 364 0 Z M 148 0 Q 129 9 104 28 L 104 28 L 104 28 Q 79 47 56 76 Q 32 104 16 141 Q 1 178 0 223 Q 1 268 16 305 Q 32 342 56 370 Q 79 398 104 418 Q 129 437 148 446 L 156 432 L 156 432 Q 138 423 114 405 Q 91 387 68 360 Q 46 333 31 299 Q 17 265 16 223 Q 17 181 31 147 Q 46 113 68 86 Q 91 59 114 41 Q 138 23 156 14 L 148 0 L 148 0 Z" />
</svg>