<svg xmlns="http://www.w3.org/2000/svg" viewBox="0 0 511 511">
  <path d="M 208 16 Q 260 16 304 42 L 304 42 L 304 42 Q 348 67 374 112 Q 400 157 400 208 Q 400 259 374 304 Q 348 349 304 374 Q 260 400 208 400 Q 156 400 112 374 Q 68 349 42 304 Q 16 259 16 208 Q 16 157 42 112 Q 68 67 112 42 Q 156 16 208 16 L 208 16 Z M 208 416 Q 292 414 349 361 L 500 511 L 500 511 L 511 500 L 511 500 L 361 349 L 361 349 Q 414 292 416 208 Q 414 120 355 61 Q 296 2 208 0 Q 120 2 61 61 Q 2 120 0 208 Q 2 296 61 355 Q 120 414 208 416 L 208 416 Z M 104 216 L 312 216 L 104 216 L 312 216 L 312 200 L 312 200 L 104 200 L 104 200 L 104 216 L 104 216 Z" />
</svg>