<svg xmlns="http://www.w3.org/2000/svg" viewBox="0 0 640 480">
  <path d="M 284 52 Q 285 37 295 27 L 295 27 L 295 27 Q 305 16 320 16 Q 335 16 346 27 Q 356 37 356 52 Q 356 67 346 77 Q 335 88 320 88 Q 305 88 295 77 Q 285 67 284 52 L 284 52 Z M 323 104 L 438 204 L 323 104 L 438 204 L 443 209 L 443 209 L 451 208 L 451 208 L 566 185 L 566 185 Q 571 188 577 190 L 454 464 L 454 464 L 186 464 L 186 464 L 63 190 L 63 190 Q 69 188 74 185 L 189 208 L 189 208 L 197 209 L 197 209 L 202 204 L 202 204 L 317 104 L 317 104 Q 319 104 320 104 Q 320 104 320 104 Q 322 104 323 104 L 323 104 Z M 46 192 L 176 480 L 46 192 L 176 480 L 464 480 L 464 480 L 594 192 L 594 192 Q 613 191 626 177 Q 640 164 640 144 Q 639 124 626 110 Q 612 97 592 96 Q 572 97 558 110 Q 545 124 544 144 Q 544 159 552 171 L 448 192 L 448 192 L 342 99 L 342 99 Q 370 85 372 52 Q 372 30 357 15 Q 342 1 320 0 Q 298 1 283 15 Q 269 30 268 52 Q 270 85 298 99 L 192 192 L 192 192 L 88 171 L 88 171 Q 96 159 96 144 Q 95 124 82 110 Q 68 97 48 96 Q 28 97 14 110 Q 1 124 0 144 Q 0 164 14 177 Q 27 191 46 192 L 46 192 Z M 592 112 Q 606 112 615 121 L 615 121 L 615 121 Q 624 130 624 144 Q 624 158 615 167 Q 606 176 592 176 Q 578 176 569 167 Q 560 158 560 144 Q 560 130 569 121 Q 578 112 592 112 L 592 112 Z M 16 144 Q 16 130 25 121 L 25 121 L 25 121 Q 34 112 48 112 Q 62 112 71 121 Q 80 130 80 144 Q 80 158 71 167 Q 62 176 48 176 Q 34 176 25 167 Q 16 158 16 144 L 16 144 Z" />
</svg>