<svg xmlns="http://www.w3.org/2000/svg" viewBox="0 0 576 510">
  <path d="M 576 239 L 575 116 L 576 239 L 575 116 L 479 116 L 479 116 L 479 135 L 479 135 L 419 2 L 419 2 L 361 29 L 361 29 L 348 0 L 348 0 L 260 39 L 260 39 L 273 68 L 273 68 L 215 95 L 215 95 L 218 101 L 218 101 L 227 105 L 227 105 L 262 120 L 262 120 L 257 111 L 257 111 L 286 97 L 286 97 L 306 140 L 306 140 L 326 149 L 326 149 Q 339 154 351 162 L 303 55 L 303 55 L 332 42 L 332 42 L 398 188 L 398 188 L 427 174 L 427 174 L 374 58 L 374 58 L 403 45 L 403 45 L 485 224 L 485 224 L 512 222 L 512 222 L 511 148 L 511 148 L 543 148 L 543 148 L 544 240 L 544 240 Q 544 282 522 317 Q 499 352 460 370 Q 452 374 444 376 Q 441 395 434 412 Q 454 408 474 399 Q 521 377 549 334 Q 576 292 576 239 L 576 239 Z M 214 134 L 200 127 L 214 134 L 200 127 L 193 142 L 193 142 L 167 200 L 167 200 L 161 215 L 161 215 L 175 221 L 175 221 L 178 222 L 178 222 L 48 222 L 32 222 L 32 238 L 32 238 L 32 286 L 32 286 L 16 286 L 0 286 L 0 302 L 0 302 L 0 366 L 0 366 L 0 382 L 0 382 L 16 382 L 32 382 L 32 430 L 32 430 L 32 446 L 32 446 L 48 446 L 64 446 L 64 494 L 64 494 L 64 510 L 64 510 L 80 510 L 242 510 Q 316 509 365 459 Q 414 410 416 336 Q 415 284 388 241 Q 360 199 313 177 L 214 133 L 214 134 Z M 32 350 L 32 318 L 32 350 L 32 318 L 48 318 L 64 318 Q 64 318 64 318 Q 64 318 64 318 L 80 318 L 192 318 L 192 286 L 192 286 L 176 286 L 64 286 L 64 254 L 64 254 L 253 254 L 261 254 L 270 228 L 270 228 L 260 224 L 260 224 L 203 198 L 203 198 L 216 169 L 216 169 L 300 206 L 300 206 Q 339 224 361 259 Q 384 294 384 336 Q 383 397 342 437 Q 302 477 242 478 L 96 478 L 96 478 L 96 446 L 96 446 L 112 446 L 192 446 L 192 414 L 192 414 L 176 414 L 96 414 Q 96 414 96 414 Q 96 414 96 414 L 80 414 L 64 414 L 64 382 L 64 382 L 80 382 L 192 382 L 192 350 L 192 350 L 176 350 L 64 350 Q 64 350 64 350 Q 64 350 64 350 L 48 350 L 32 350 Z" />
</svg>