<svg xmlns="http://www.w3.org/2000/svg" viewBox="0 0 636 457">
  <path d="M 318 16 Q 228 17 149 50 L 149 50 L 149 50 Q 71 84 12 143 L 0 132 L 0 132 Q 62 70 143 35 Q 224 1 318 0 Q 412 1 493 35 Q 574 70 636 132 L 624 143 L 624 143 Q 565 84 487 50 Q 408 17 318 16 L 318 16 Z M 318 176 Q 264 176 216 196 L 216 196 L 216 196 Q 168 215 132 250 L 121 238 L 121 238 Q 160 202 210 181 Q 260 160 318 160 Q 376 160 426 181 Q 476 202 516 238 L 505 250 L 505 250 Q 468 215 420 196 Q 372 176 318 176 L 318 176 Z M 366 384 Q 365 357 342 342 Q 318 330 294 342 Q 271 357 270 384 Q 271 411 294 426 Q 318 438 342 426 Q 365 411 366 384 L 366 384 Z M 254 384 Q 255 348 286 329 Q 318 311 350 329 Q 381 348 382 384 Q 381 420 350 439 Q 318 457 286 439 Q 255 420 254 384 L 254 384 Z" />
</svg>