<svg xmlns="http://www.w3.org/2000/svg" viewBox="0 0 512 448">
  <path d="M 112 0 L 106 0 L 112 0 L 106 0 L 104 6 L 104 6 L 58 160 L 58 160 L 16 160 L 0 160 L 0 176 L 0 176 L 0 352 L 0 352 L 0 368 L 0 368 L 0 432 L 0 432 L 0 448 L 0 448 L 16 448 L 96 448 L 96 432 L 96 432 L 96 368 L 96 368 L 416 368 L 416 368 L 416 432 L 416 432 L 416 448 L 416 448 L 432 448 L 512 448 L 512 432 L 512 432 L 512 368 L 512 368 L 512 352 L 512 352 L 512 176 L 512 176 L 512 160 L 512 160 L 496 160 L 454 160 L 408 6 L 408 6 L 406 0 L 406 0 L 400 0 L 112 0 Z M 496 352 L 432 352 L 496 352 L 16 352 L 16 176 L 16 176 L 496 176 L 496 176 L 496 352 L 496 352 Z M 432 368 L 496 368 L 432 368 L 496 368 L 496 432 L 496 432 L 432 432 L 432 432 L 432 368 L 432 368 Z M 16 368 L 80 368 L 16 368 L 80 368 L 80 432 L 80 432 L 16 432 L 16 432 L 16 368 L 16 368 Z M 437 160 L 75 160 L 437 160 L 75 160 L 118 16 L 118 16 L 394 16 L 394 16 L 437 160 L 437 160 Z M 80 256 Q 81 241 96 240 Q 111 241 112 256 Q 111 271 96 272 Q 81 271 80 256 L 80 256 Z M 128 256 Q 128 242 119 233 L 119 233 L 119 233 Q 110 224 96 224 Q 82 224 73 233 Q 64 242 64 256 Q 64 270 73 279 Q 82 288 96 288 Q 110 288 119 279 Q 128 270 128 256 L 128 256 Z M 416 240 Q 431 241 432 256 Q 431 271 416 272 Q 401 271 400 256 Q 401 241 416 240 L 416 240 Z M 416 288 Q 430 288 439 279 L 439 279 L 439 279 Q 448 270 448 256 Q 448 242 439 233 Q 430 224 416 224 Q 402 224 393 233 Q 384 242 384 256 Q 384 270 393 279 Q 402 288 416 288 L 416 288 Z" />
</svg>