<svg xmlns="http://www.w3.org/2000/svg" viewBox="0 0 576 384">
  <path d="M 560 16 L 560 368 L 560 16 L 560 368 L 16 368 L 16 368 L 16 16 L 16 16 L 560 16 L 560 16 Z M 16 0 L 0 0 L 16 0 L 0 0 L 0 16 L 0 16 L 0 368 L 0 368 L 0 384 L 0 384 L 16 384 L 576 384 L 576 368 L 576 368 L 576 16 L 576 16 L 576 0 L 576 0 L 560 0 L 16 0 Z M 544 120 L 544 104 L 544 120 L 544 104 L 536 104 L 528 104 Q 504 103 488 88 Q 473 72 472 48 L 472 40 L 472 40 L 472 32 L 472 32 L 456 32 L 456 32 L 456 40 L 456 40 L 456 48 L 456 48 Q 457 79 477 99 Q 497 119 528 120 L 536 120 L 544 120 Z M 40 120 L 48 120 L 40 120 L 48 120 Q 79 119 99 99 Q 119 79 120 48 L 120 40 L 120 40 L 120 32 L 120 32 L 104 32 L 104 32 L 104 40 L 104 40 L 104 48 L 104 48 Q 103 72 88 88 Q 72 103 48 104 L 40 104 L 32 104 L 32 120 L 32 120 L 40 120 L 40 120 Z M 544 264 L 536 264 L 544 264 L 528 264 Q 497 265 477 285 Q 457 305 456 336 L 456 344 L 456 344 L 456 352 L 456 352 L 472 352 L 472 352 L 472 344 L 472 344 L 472 336 L 472 336 Q 473 312 488 296 Q 504 281 528 280 L 536 280 L 544 280 L 544 264 L 544 264 Z M 40 264 L 32 264 L 40 264 L 32 264 L 32 280 L 32 280 L 40 280 L 48 280 Q 72 281 88 296 Q 103 312 104 336 L 104 344 L 104 344 L 104 352 L 104 352 L 120 352 L 120 352 L 120 344 L 120 344 L 120 336 L 120 336 Q 119 305 99 285 Q 79 265 48 264 L 40 264 L 40 264 Z M 288 80 Q 318 80 344 95 L 344 95 L 344 95 Q 370 110 385 136 Q 400 162 400 192 Q 400 222 385 248 Q 370 274 344 289 Q 318 304 288 304 Q 258 304 232 289 Q 206 274 191 248 Q 176 222 176 192 Q 176 162 191 136 Q 206 110 232 95 Q 258 80 288 80 L 288 80 Z M 288 320 Q 323 320 352 303 L 352 303 L 352 303 Q 381 286 399 256 Q 416 226 416 192 Q 416 158 399 128 Q 381 98 352 81 Q 323 64 288 64 Q 253 64 224 81 Q 195 98 177 128 Q 160 158 160 192 Q 160 226 177 256 Q 195 286 224 303 Q 253 320 288 320 L 288 320 Z M 272 136 L 264 136 L 272 136 L 264 136 L 264 152 L 264 152 L 272 152 L 280 152 L 280 232 L 280 232 L 264 232 L 256 232 L 256 248 L 256 248 L 264 248 L 320 248 L 320 232 L 320 232 L 312 232 L 296 232 L 296 144 L 296 144 L 296 136 L 296 136 L 288 136 L 272 136 Z" />
</svg>