<svg xmlns="http://www.w3.org/2000/svg" viewBox="0 0 448 448">
  <path d="M 432 16 L 432 432 L 432 16 L 432 432 L 16 432 L 16 432 L 16 16 L 16 16 L 432 16 L 432 16 Z M 16 0 L 0 0 L 16 0 L 0 0 L 0 16 L 0 16 L 0 432 L 0 432 L 0 448 L 0 448 L 16 448 L 448 448 L 448 432 L 448 432 L 448 16 L 448 16 L 448 0 L 448 0 L 432 0 L 16 0 Z M 144 64 L 128 64 L 144 64 L 128 64 L 128 72 L 128 72 L 128 128 L 128 128 L 88 128 L 72 128 L 72 144 L 72 144 L 72 176 L 72 176 L 72 192 L 72 192 L 88 192 L 200 192 L 200 176 L 200 176 L 200 144 L 200 144 L 200 128 L 200 128 L 184 128 L 144 128 L 144 72 L 144 72 L 144 64 L 144 64 Z M 144 144 L 184 144 L 144 144 L 184 144 L 184 176 L 184 176 L 88 176 L 88 176 L 88 144 L 88 144 L 128 144 L 144 144 Z M 144 224 L 128 224 L 144 224 L 128 224 L 128 232 L 128 232 L 128 376 L 128 376 L 128 384 L 128 384 L 144 384 L 144 384 L 144 376 L 144 376 L 144 232 L 144 232 L 144 224 L 144 224 Z M 320 72 L 320 64 L 320 72 L 320 64 L 304 64 L 304 64 L 304 72 L 304 72 L 304 224 L 304 224 L 264 224 L 248 224 L 248 240 L 248 240 L 248 272 L 248 272 L 248 288 L 248 288 L 264 288 L 376 288 L 376 272 L 376 272 L 376 240 L 376 240 L 376 224 L 376 224 L 360 224 L 320 224 L 320 72 L 320 72 Z M 304 240 L 320 240 L 304 240 L 360 240 L 360 272 L 360 272 L 264 272 L 264 272 L 264 240 L 264 240 L 304 240 L 304 240 Z M 320 328 L 320 320 L 320 328 L 320 320 L 304 320 L 304 320 L 304 328 L 304 328 L 304 376 L 304 376 L 304 384 L 304 384 L 320 384 L 320 384 L 320 376 L 320 376 L 320 328 L 320 328 Z" />
</svg>