<svg xmlns="http://www.w3.org/2000/svg" viewBox="0 0 208 448">
  <path d="M 72 0 L 64 0 L 72 0 L 64 0 L 64 8 L 64 8 L 64 157 L 64 157 L 2 218 L 2 218 L 0 221 L 0 221 L 0 227 L 0 227 L 2 230 L 2 230 L 64 291 L 64 291 L 64 440 L 64 440 L 64 448 L 64 448 L 72 448 L 208 448 L 208 432 L 208 432 L 200 432 L 80 432 L 80 288 L 80 288 L 80 285 L 80 285 L 78 282 L 78 282 L 19 224 L 19 224 L 78 166 L 78 166 L 80 163 L 80 163 L 80 160 L 80 160 L 80 16 L 80 16 L 200 16 L 208 16 L 208 0 L 208 0 L 200 0 L 72 0 Z" />
</svg>