<svg xmlns="http://www.w3.org/2000/svg" viewBox="0 0 384 512">
  <path d="M 255 67 Q 250 45 233 31 L 233 31 L 233 31 Q 216 16 192 16 Q 168 16 151 31 Q 134 45 129 67 L 127 80 L 127 80 L 114 80 L 80 80 L 80 144 L 80 144 L 192 144 L 304 144 L 304 80 L 304 80 L 270 80 L 257 80 L 255 67 L 255 67 Z M 80 64 L 114 64 L 80 64 L 114 64 Q 120 36 141 18 Q 162 1 192 0 Q 222 1 243 18 Q 264 36 270 64 L 304 64 L 320 64 L 320 80 L 320 80 L 320 96 L 320 96 L 376 96 L 384 96 L 384 104 L 384 104 L 384 504 L 384 504 L 384 512 L 384 512 L 376 512 L 0 512 L 0 504 L 0 504 L 0 104 L 0 104 L 0 96 L 0 96 L 8 96 L 64 96 L 64 80 L 64 80 L 64 64 L 64 64 L 80 64 L 80 64 Z M 64 112 L 16 112 L 64 112 L 16 112 L 16 496 L 16 496 L 368 496 L 368 496 L 368 112 L 368 112 L 320 112 L 320 112 L 320 144 L 320 144 L 320 160 L 320 160 L 304 160 L 64 160 L 64 144 L 64 144 L 64 112 L 64 112 Z M 176 80 Q 177 65 192 64 Q 207 65 208 80 Q 207 95 192 96 Q 177 95 176 80 L 176 80 Z M 158 238 L 102 294 L 158 238 L 102 294 L 96 299 L 96 299 L 90 294 L 90 294 L 66 270 L 66 270 L 61 264 L 61 264 L 72 253 L 72 253 L 78 258 L 78 258 L 96 277 L 96 277 L 146 226 L 146 226 L 152 221 L 152 221 L 163 232 L 163 232 L 158 238 L 158 238 Z M 192 256 L 200 256 L 192 256 L 320 256 L 320 272 L 320 272 L 312 272 L 192 272 L 192 256 L 192 256 Z M 160 376 L 168 376 L 160 376 L 320 376 L 320 392 L 320 392 L 312 392 L 160 392 L 160 376 L 160 376 Z M 96 368 Q 111 369 112 384 Q 111 399 96 400 Q 81 399 80 384 Q 81 369 96 368 L 96 368 Z" />
</svg>