<svg xmlns="http://www.w3.org/2000/svg" viewBox="0 0 512 512">
  <path d="M 264 8 L 264 96 L 264 8 L 264 96 L 264 104 L 264 104 L 248 104 L 248 104 L 248 96 L 248 96 L 248 8 L 248 8 L 248 0 L 248 0 L 264 0 L 264 0 L 264 8 L 264 8 Z M 264 416 L 264 504 L 264 416 L 264 504 L 264 512 L 264 512 L 248 512 L 248 512 L 248 504 L 248 504 L 248 416 L 248 416 L 248 408 L 248 408 L 264 408 L 264 408 L 264 416 L 264 416 Z M 0 248 L 8 248 L 0 248 L 104 248 L 104 264 L 104 264 L 96 264 L 0 264 L 0 248 L 0 248 Z M 416 248 L 504 248 L 416 248 L 512 248 L 512 264 L 512 264 L 504 264 L 408 264 L 408 248 L 408 248 L 416 248 L 416 248 Z M 442 84 L 436 89 L 442 84 L 436 89 L 374 151 L 374 151 L 368 157 L 368 157 L 357 146 L 357 146 L 362 140 L 362 140 L 425 78 L 425 78 L 430 72 L 430 72 L 442 83 L 442 84 Z M 147 378 L 85 440 L 147 378 L 85 440 L 79 446 L 79 446 L 68 434 L 68 434 L 74 429 L 74 429 L 136 366 L 136 366 L 142 361 L 142 361 L 153 372 L 153 372 L 147 378 L 147 378 Z M 74 67 L 80 72 L 74 67 L 80 72 L 147 140 L 147 140 L 153 146 L 153 146 L 142 157 L 142 157 L 136 151 L 136 151 L 68 84 L 68 84 L 62 78 L 62 78 L 74 67 L 74 67 Z M 374 366 L 436 429 L 374 366 L 436 429 L 442 434 L 442 434 L 430 446 L 430 446 L 425 440 L 425 440 L 362 378 L 362 378 L 357 372 L 357 372 L 368 361 L 368 361 L 374 366 L 374 366 Z" />
</svg>