<svg xmlns="http://www.w3.org/2000/svg" viewBox="0 0 640 512">
  <path d="M 624 224 L 640 224 L 624 224 L 640 224 L 640 208 L 640 208 L 640 176 L 640 176 L 544 0 L 544 0 L 96 0 L 96 0 L 0 176 L 0 176 L 0 208 L 0 208 L 0 224 L 0 224 L 16 224 L 64 224 L 64 504 L 64 504 L 64 512 L 64 512 L 72 512 L 384 512 L 384 504 L 384 504 L 384 256 L 384 256 L 368 256 L 368 256 L 368 496 L 368 496 L 80 496 L 80 496 L 80 224 L 80 224 L 560 224 L 560 224 L 560 496 L 560 496 L 512 496 L 512 496 L 512 256 L 512 256 L 496 256 L 496 256 L 496 504 L 496 504 L 496 512 L 496 512 L 504 512 L 576 512 L 576 504 L 576 504 L 576 224 L 576 224 L 624 224 L 624 224 Z M 106 16 L 535 16 L 106 16 L 535 16 L 624 180 L 624 180 L 624 208 L 624 208 L 16 208 L 16 208 L 16 180 L 16 180 L 106 16 L 106 16 Z M 128 376 L 128 384 L 128 376 L 128 384 L 136 384 L 320 384 L 320 376 L 320 376 L 320 256 L 320 256 L 304 256 L 304 256 L 304 368 L 304 368 L 144 368 L 144 368 L 144 256 L 144 256 L 128 256 L 128 256 L 128 376 L 128 376 Z" />
</svg>