<svg xmlns="http://www.w3.org/2000/svg" viewBox="0 0 448 448">
  <path d="M 160 432 Q 99 430 58 390 L 58 390 L 58 390 Q 18 349 16 288 Q 17 220 44 169 Q 71 118 113 84 Q 156 50 201 33 Q 245 16 280 16 Q 316 19 348 41 Q 363 52 372 59 Q 376 63 379 65 Q 379 66 380 66 Q 380 67 380 67 L 381 67 L 381 67 Q 381 67 381 67 Q 381 67 381 67 Q 381 67 381 67 Q 381 67 381 67 Q 381 67 381 67 Q 381 67 381 67 Q 381 67 381 67 Q 381 67 381 67 Q 381 67 381 67 Q 381 67 381 67 Q 381 67 381 67 Q 381 67 381 67 Q 381 67 381 67 Q 381 67 381 67 Q 381 67 381 67 Q 381 67 381 67 Q 381 67 381 67 Q 381 67 381 68 L 381 68 L 381 68 Q 381 68 382 69 Q 382 69 383 70 Q 385 72 389 76 Q 396 85 407 100 Q 429 132 432 168 Q 432 203 415 247 Q 398 292 364 335 Q 330 377 279 404 Q 228 431 160 432 L 160 432 Z M 0 288 Q 2 356 47 401 L 47 401 L 47 401 Q 92 446 160 448 Q 256 446 320 397 Q 384 349 416 284 Q 448 220 448 168 Q 447 139 433 114 Q 420 89 407 73 Q 393 57 392 56 Q 391 55 375 41 Q 359 28 334 15 Q 309 1 280 0 Q 228 0 164 32 Q 99 64 51 128 Q 2 192 0 288 L 0 288 Z M 234 81 Q 234 81 234 81 L 234 81 L 234 81 Q 234 81 234 81 Q 234 81 234 81 Q 234 81 234 81 Q 234 81 234 81 Q 234 81 234 81 L 234 81 L 234 81 L 234 82 L 234 82 Q 234 83 234 84 Q 234 87 233 92 Q 233 103 234 120 Q 235 136 241 154 Q 247 172 261 187 Q 276 201 294 207 Q 312 213 328 214 Q 345 215 356 215 Q 361 214 364 214 Q 365 214 366 214 L 367 214 L 367 214 L 367 214 L 367 214 Q 367 214 367 214 Q 367 214 367 214 Q 367 214 367 214 Q 367 214 367 214 Q 367 214 367 214 L 366 206 L 366 206 Q 376 207 374 207 Q 374 207 374 207 Q 374 207 374 207 Q 374 207 374 207 Q 374 207 374 207 Q 374 207 374 207 Q 374 207 374 207 L 374 206 L 374 206 L 374 206 L 374 206 Q 374 205 374 204 Q 374 201 375 195 Q 375 185 374 168 Q 373 152 367 134 Q 361 116 347 101 Q 332 87 314 81 Q 296 75 280 74 Q 263 72 253 73 Q 247 74 244 74 Q 243 74 242 74 L 242 74 L 242 74 L 241 74 L 241 74 Q 241 74 241 74 Q 241 74 241 74 Q 241 74 241 74 L 242 82 L 242 82 Q 232 81 234 81 L 234 81 Z M 366 206 L 374 207 L 366 206 L 374 207 L 373 213 L 373 213 L 367 214 L 367 214 L 366 206 L 366 206 Z M 249 93 Q 249 93 249 93 L 249 93 L 249 93 Q 249 91 250 90 Q 251 89 253 89 Q 263 89 278 90 Q 310 91 335 113 Q 357 138 358 170 Q 359 185 359 195 Q 359 195 359 195 Q 359 197 358 199 Q 357 199 355 199 Q 345 199 330 198 Q 298 197 273 175 Q 251 150 250 118 Q 249 103 249 93 L 249 93 Z M 241 74 L 242 82 L 241 74 L 242 82 L 234 81 L 234 81 L 235 75 L 235 75 L 241 74 L 241 74 Z" />
</svg>