<svg xmlns="http://www.w3.org/2000/svg" viewBox="0 0 512 512">
  <path d="M 144 0 L 128 0 L 144 0 L 128 0 L 128 64 L 128 64 L 144 64 L 144 64 L 144 0 L 144 0 Z M 272 0 L 256 0 L 272 0 L 256 0 L 256 64 L 256 64 L 272 64 L 272 64 L 272 0 L 272 0 Z M 384 0 L 384 288 L 384 0 L 384 288 L 400 288 L 400 288 L 400 0 L 400 0 L 384 0 L 384 0 Z M 448 0 L 448 288 L 448 0 L 448 288 L 464 288 L 464 288 L 464 0 L 464 0 L 448 0 L 448 0 Z M 320 0 L 320 64 L 320 0 L 320 64 L 336 64 L 336 64 L 336 0 L 336 0 L 320 0 L 320 0 Z M 192 0 L 192 64 L 192 0 L 192 64 L 208 64 L 208 64 L 208 0 L 208 0 L 192 0 L 192 0 Z M 512 0 L 496 0 L 512 0 L 496 0 L 496 288 L 496 288 L 512 288 L 512 288 L 512 0 L 512 0 Z M 336 112 L 336 496 L 336 112 L 336 496 L 16 496 L 16 496 L 16 112 L 16 112 L 336 112 L 336 112 Z M 16 96 L 0 96 L 16 96 L 0 96 L 0 112 L 0 112 L 0 496 L 0 496 L 0 512 L 0 512 L 16 512 L 352 512 L 352 496 L 352 496 L 352 112 L 352 112 L 352 96 L 352 96 L 336 96 L 16 96 Z M 80 176 L 272 176 L 80 176 L 272 176 L 272 432 L 272 432 L 80 432 L 80 432 L 80 176 L 80 176 Z M 64 160 L 64 176 L 64 160 L 64 176 L 64 432 L 64 432 L 64 448 L 64 448 L 80 448 L 288 448 L 288 432 L 288 432 L 288 176 L 288 176 L 288 160 L 288 160 L 272 160 L 64 160 Z" />
</svg>