<svg xmlns="http://www.w3.org/2000/svg" viewBox="0 0 632 512">
  <path d="M 336 128 Q 336 98 321 72 L 321 72 L 321 72 Q 306 46 280 31 Q 254 16 224 16 Q 194 16 168 31 Q 142 46 127 72 Q 112 98 112 128 Q 112 158 127 184 Q 142 210 168 225 Q 194 240 224 240 Q 254 240 280 225 Q 306 210 321 184 Q 336 158 336 128 L 336 128 Z M 22 496 L 426 496 L 22 496 L 426 496 L 372 320 L 372 320 L 76 320 L 76 320 L 22 496 L 22 496 Z M 384 304 L 443 496 L 384 304 L 443 496 L 448 512 L 448 512 L 431 512 L 0 512 L 5 496 L 5 496 L 64 304 L 64 304 L 384 304 L 384 304 Z M 224 0 Q 259 0 288 17 L 288 17 L 288 17 Q 317 34 335 64 Q 352 94 352 128 Q 352 162 335 192 Q 317 222 288 239 Q 259 256 224 256 Q 189 256 160 239 Q 131 222 113 192 Q 96 162 96 128 Q 96 94 113 64 Q 131 34 160 17 Q 189 0 224 0 L 224 0 Z M 424 216 L 424 200 L 424 216 L 424 200 L 632 200 L 632 200 L 632 216 L 632 216 L 424 216 L 424 216 Z" />
</svg>