<svg xmlns="http://www.w3.org/2000/svg" viewBox="0 0 448 448">
  <path d="M 16 16 L 16 432 L 16 16 L 16 432 L 432 432 L 432 432 L 432 16 L 432 16 L 16 16 L 16 16 Z M 0 0 L 16 0 L 0 0 L 448 0 L 448 16 L 448 16 L 448 432 L 448 432 L 448 448 L 448 448 L 432 448 L 0 448 L 0 432 L 0 432 L 0 16 L 0 16 L 0 0 L 0 0 Z M 104 112 L 224 112 L 104 112 L 352 112 L 352 128 L 352 128 L 344 128 L 232 128 L 232 360 L 232 360 L 232 368 L 232 368 L 216 368 L 216 368 L 216 360 L 216 360 L 216 128 L 216 128 L 104 128 L 96 128 L 96 112 L 96 112 L 104 112 L 104 112 Z" />
</svg>