<svg xmlns="http://www.w3.org/2000/svg" viewBox="0 0 640 512">
  <path d="M 104 0 L 96 0 L 104 0 L 96 0 L 96 8 L 96 8 L 96 136 L 96 136 L 96 144 L 96 144 L 112 144 L 112 144 L 112 136 L 112 136 L 112 16 L 112 16 L 283 16 L 283 16 L 348 160 L 348 160 L 347 160 L 303 160 L 303 176 L 303 176 L 311 176 L 363 176 L 363 176 L 363 176 L 364 176 L 372 176 L 372 176 L 372 176 L 373 176 L 381 176 L 381 176 L 381 176 L 382 176 L 390 176 L 390 176 L 390 176 L 391 176 L 399 176 L 399 176 L 399 176 L 400 176 L 408 176 L 408 176 L 408 176 L 409 176 L 417 176 L 417 176 L 417 176 L 418 176 L 426 176 L 426 176 L 426 176 L 427 176 L 435 176 L 435 176 L 435 176 L 436 176 L 444 176 L 444 176 L 444 176 L 445 176 L 453 176 L 453 176 L 453 176 L 454 176 L 460 176 L 460 176 L 460 176 L 461 176 L 464 176 L 464 176 L 464 176 L 465 176 L 468 176 L 468 176 L 468 176 L 469 176 L 472 176 L 472 176 L 472 176 L 473 176 L 476 176 L 476 176 L 476 176 L 477 176 L 480 176 L 480 176 L 480 176 L 481 176 L 484 176 L 484 176 L 484 176 L 485 176 L 488 176 L 488 176 L 488 176 L 489 176 L 492 176 L 492 176 L 492 176 L 493 176 L 496 176 L 496 176 L 496 176 L 497 176 L 500 176 L 500 176 L 500 176 L 501 176 L 503 176 L 503 176 L 503 176 Q 504 176 504 176 Q 504 176 504 176 L 504 176 L 504 176 L 505 176 L 508 176 L 508 176 L 508 176 L 509 176 L 512 176 L 512 176 L 512 176 L 513 176 L 514 176 L 514 176 L 514 176 L 515 176 L 517 176 L 517 176 L 517 176 L 518 176 L 519 176 L 519 176 L 519 176 L 520 176 L 521 176 L 521 176 L 521 176 L 522 176 L 524 176 L 524 176 L 524 176 L 525 176 L 526 176 L 526 176 L 526 176 L 527 176 L 528 176 L 528 176 L 528 176 L 529 176 L 531 176 L 531 176 L 531 176 L 532 176 L 533 176 L 533 176 L 533 176 L 534 176 L 535 176 L 535 176 L 535 176 L 536 176 L 538 176 L 538 176 L 538 176 L 539 176 L 540 176 L 540 176 L 540 176 L 541 176 L 542 176 L 542 176 L 542 176 L 543 176 L 545 176 L 545 176 L 545 176 L 546 176 L 547 176 L 547 176 L 547 176 L 548 176 L 549 176 L 549 176 L 549 176 L 550 176 L 551 176 L 551 176 L 551 176 L 552 176 L 552 176 L 552 176 L 552 176 L 553 176 L 554 176 L 554 176 L 554 176 L 555 176 L 555 176 L 555 176 L 555 176 L 556 176 L 557 176 L 557 176 L 557 176 L 558 176 L 558 176 L 558 176 L 558 176 L 559 176 L 560 176 L 560 176 L 560 176 L 561 176 L 561 176 L 561 176 L 561 176 L 562 176 L 563 176 L 563 176 L 563 176 L 564 176 L 564 176 L 564 176 L 564 176 L 565 176 L 566 176 L 566 176 L 566 176 L 567 176 L 567 176 L 567 176 L 567 176 L 568 176 L 569 176 L 569 176 L 569 176 L 570 176 L 570 176 L 570 176 L 570 176 L 571 176 L 572 176 L 572 176 L 572 176 L 573 176 L 573 176 L 573 176 L 573 176 L 574 176 L 575 176 L 575 176 L 575 176 L 576 176 L 576 176 L 576 176 L 576 176 L 577 176 L 577 176 L 577 176 L 577 176 L 578 176 L 578 176 L 578 176 L 578 176 L 579 176 L 579 176 L 579 176 L 579 176 L 580 176 L 580 176 L 580 176 L 580 176 L 581 176 L 581 176 L 581 176 L 581 176 L 582 176 L 582 176 L 582 176 L 582 176 L 583 176 L 583 176 L 583 176 L 583 176 L 584 176 L 584 176 L 584 176 L 584 176 L 585 176 L 585 176 L 585 176 L 585 176 L 586 176 L 586 176 L 586 176 L 586 176 L 587 176 L 587 176 L 587 176 L 587 176 L 588 176 L 588 176 L 588 176 L 588 176 L 589 176 L 589 176 L 589 176 L 589 176 L 590 176 L 590 176 L 590 176 L 590 176 L 591 176 L 591 176 L 591 176 L 591 176 L 592 176 L 592 176 L 592 176 L 592 176 L 593 176 L 593 176 L 593 176 L 593 176 L 594 176 L 594 176 L 594 176 L 594 176 L 595 176 L 595 176 L 595 176 L 595 176 L 596 176 L 596 176 L 596 176 L 596 176 L 597 176 L 597 176 L 597 176 L 597 176 L 598 176 L 598 176 L 598 176 L 598 176 L 599 176 L 599 176 L 599 176 L 599 176 L 599 176 L 599 176 L 600 176 L 600 176 L 600 176 L 600 176 L 601 176 L 601 176 L 601 176 L 601 176 L 601 176 L 601 176 L 602 176 L 602 176 L 602 176 L 602 176 L 603 176 L 603 176 L 603 176 L 603 176 L 603 176 L 603 176 L 604 176 L 604 176 L 604 176 L 604 176 L 605 176 L 605 176 L 605 176 L 605 176 L 605 176 L 605 176 L 606 176 L 606 176 L 606 176 L 606 176 L 607 176 L 607 176 L 607 176 L 607 176 L 607 176 L 607 176 L 608 176 L 608 176 L 608 176 L 608 176 L 609 176 L 609 176 L 609 176 L 609 176 L 609 176 L 609 176 L 610 176 L 610 176 L 610 176 L 610 176 L 611 176 L 611 176 L 611 176 L 611 176 L 611 176 L 611 176 L 612 176 L 612 176 L 612 176 L 612 176 L 612 176 L 612 176 L 613 176 L 613 176 L 613 176 L 613 176 L 613 176 L 613 176 L 614 176 L 614 176 L 614 176 L 614 176 L 614 176 L 614 176 L 614 176 L 614 176 L 615 176 L 615 176 L 615 176 L 615 176 L 615 176 L 615 176 L 616 176 L 616 176 L 616 176 L 616 176 L 616 176 L 616 176 L 617 176 L 617 176 L 617 176 L 617 176 L 617 176 L 617 176 L 617 176 L 617 176 L 618 176 L 618 176 L 618 176 L 618 176 L 618 176 L 618 176 L 619 176 L 619 176 L 619 176 L 619 176 L 619 176 L 619 176 L 620 176 L 620 176 L 620 176 L 620 176 L 620 176 L 620 176 L 620 176 L 620 176 L 621 176 L 621 176 L 621 176 L 621 176 L 621 176 L 621 176 L 622 176 L 622 176 L 622 176 L 622 176 L 622 176 L 622 176 L 622 176 L 622 176 L 623 176 L 623 176 L 623 176 L 623 176 L 623 176 L 623 176 L 623 176 L 623 176 L 623 176 L 623 176 Q 623 176 623 176 Q 623 176 623 176 L 623 260 L 623 260 L 557 320 L 557 320 L 352 320 L 352 320 L 352 290 L 352 290 L 352 283 L 352 283 L 345 282 L 345 282 L 313 279 L 313 279 L 333 255 L 333 255 L 338 249 L 338 249 L 333 244 L 333 244 L 268 179 L 268 179 L 263 174 L 263 174 L 257 179 L 257 179 L 233 199 L 233 199 L 230 167 L 230 167 L 229 160 L 229 160 L 222 160 L 123 160 L 122 167 L 122 167 L 119 199 L 119 199 L 95 179 L 95 179 L 89 174 L 89 174 L 84 179 L 84 179 L 19 244 L 19 244 L 14 249 L 14 249 L 19 255 L 19 255 L 39 279 L 39 279 L 7 282 L 7 282 L 0 283 L 0 283 L 0 290 L 0 290 L 0 382 L 0 382 L 0 389 L 0 389 L 7 390 L 7 390 L 39 393 L 39 393 L 19 417 L 19 417 L 14 423 L 14 423 L 19 428 L 19 428 L 84 493 L 84 493 L 89 498 L 89 498 L 95 493 L 95 493 L 119 473 L 119 473 L 122 505 L 122 505 L 123 512 L 123 512 L 130 512 L 229 512 L 230 505 L 230 505 L 233 473 L 233 473 L 257 493 L 257 493 L 263 498 L 263 498 L 268 493 L 268 493 L 333 428 L 333 428 L 338 423 L 338 423 L 333 417 L 333 417 L 313 393 L 313 393 L 344 390 L 344 390 L 352 389 L 352 389 L 352 382 L 352 382 L 352 336 L 352 336 L 560 336 L 563 336 L 565 334 L 565 334 L 637 270 L 637 270 L 640 268 L 640 268 L 640 264 L 640 264 L 640 168 L 640 168 L 640 160 L 640 160 L 632 160 L 632 160 L 632 168 L 632 168 L 632 160 L 632 160 Q 632 160 632 160 Q 632 160 632 160 Q 632 160 632 160 Q 632 160 632 160 Q 632 160 632 160 Q 632 160 632 160 Q 632 160 632 160 Q 632 160 632 160 Q 632 160 632 160 Q 632 160 632 160 Q 632 160 632 160 Q 632 160 632 160 Q 632 160 632 160 Q 632 160 632 160 Q 632 160 632 160 Q 632 160 632 160 Q 632 160 632 160 Q 632 160 632 160 Q 632 160 632 160 Q 632 160 632 160 Q 632 160 632 160 Q 632 160 632 160 Q 632 160 632 160 Q 632 160 632 160 Q 632 160 632 160 Q 632 160 632 160 Q 632 160 632 160 Q 632 160 632 160 Q 631 160 631 160 Q 631 160 631 160 Q 631 160 631 160 Q 631 160 631 160 Q 631 160 631 160 Q 631 160 631 160 Q 631 160 631 160 Q 631 160 631 160 Q 631 160 631 160 Q 631 160 631 160 Q 631 160 631 160 Q 631 160 631 160 Q 631 160 631 160 Q 631 160 631 160 Q 631 160 631 160 Q 631 160 631 160 Q 631 160 631 160 Q 631 160 631 160 Q 631 160 631 160 Q 631 160 631 160 Q 630 160 630 160 Q 630 160 630 160 Q 630 160 630 160 Q 630 160 630 160 L 630 160 L 630 160 L 630 160 L 630 160 L 630 160 L 630 160 L 630 160 L 630 160 L 630 160 L 630 160 L 630 160 L 630 160 L 630 160 L 630 160 L 630 160 L 630 160 L 629 160 L 629 160 L 629 160 L 629 160 L 629 160 L 629 160 L 629 160 L 629 160 L 629 160 L 629 160 L 629 160 L 629 160 L 629 160 L 629 160 L 629 160 L 629 160 L 629 160 L 629 160 L 628 160 L 628 160 L 628 160 L 628 160 L 628 160 L 628 160 L 628 160 L 628 160 L 628 160 L 628 160 L 627 160 L 627 160 L 627 160 L 627 160 L 627 160 L 627 160 L 627 160 L 627 160 L 627 160 L 627 160 L 626 160 L 626 160 L 626 160 L 626 160 L 626 160 L 626 160 L 626 160 L 626 160 L 626 160 L 626 160 L 625 160 L 625 160 L 625 160 L 625 160 L 625 160 L 625 160 L 625 160 L 625 160 L 625 160 L 625 160 L 624 160 L 624 160 L 624 160 L 624 160 L 624 160 L 624 160 L 624 160 L 624 160 L 624 160 L 624 160 L 623 160 L 623 160 L 623 160 L 623 160 L 623 160 L 623 160 L 623 160 L 623 160 L 623 160 L 623 160 L 622 160 L 622 160 L 622 160 L 622 160 L 622 160 L 622 160 L 622 160 L 622 160 L 621 160 L 621 160 L 621 160 L 621 160 L 621 160 L 621 160 L 620 160 L 620 160 L 620 160 L 620 160 L 620 160 L 620 160 L 620 160 L 620 160 L 619 160 L 619 160 L 619 160 L 619 160 L 619 160 L 619 160 L 618 160 L 618 160 L 618 160 L 618 160 L 618 160 L 618 160 L 617 160 L 617 160 L 617 160 L 617 160 L 617 160 L 617 160 L 617 160 L 617 160 L 616 160 L 616 160 L 616 160 L 616 160 L 616 160 L 616 160 L 615 160 L 615 160 L 615 160 L 615 160 L 615 160 L 615 160 L 614 160 L 614 160 L 614 160 L 614 160 L 614 160 L 614 160 L 614 160 L 614 160 L 613 160 L 613 160 L 613 160 L 613 160 L 613 160 L 613 160 L 612 160 L 612 160 L 612 160 L 612 160 L 612 160 L 612 160 L 611 160 L 611 160 L 611 160 L 611 160 L 610 160 L 610 160 L 610 160 L 610 160 L 610 160 L 610 160 L 609 160 L 609 160 L 609 160 L 609 160 L 608 160 L 608 160 L 608 160 L 608 160 L 608 160 L 608 160 L 607 160 L 607 160 L 607 160 L 607 160 L 606 160 L 606 160 L 606 160 L 606 160 L 606 160 L 606 160 L 605 160 L 605 160 L 605 160 L 605 160 L 604 160 L 604 160 L 604 160 L 604 160 L 604 160 L 604 160 L 603 160 L 603 160 L 603 160 L 603 160 L 602 160 L 602 160 L 602 160 L 602 160 L 602 160 L 602 160 L 601 160 L 601 160 L 601 160 L 601 160 L 600 160 L 600 160 L 600 160 L 600 160 L 600 160 L 600 160 L 599 160 L 599 160 L 599 160 L 599 160 L 598 160 L 598 160 L 598 160 L 598 160 L 598 160 L 598 160 L 597 160 L 597 160 L 597 160 L 597 160 L 596 160 L 596 160 L 596 160 L 596 160 L 595 160 L 595 160 L 595 160 L 595 160 L 594 160 L 594 160 L 594 160 L 594 160 L 593 160 L 593 160 L 593 160 L 593 160 L 592 160 L 592 160 L 592 160 L 592 160 L 591 160 L 591 160 L 591 160 L 591 160 L 590 160 L 590 160 L 590 160 L 590 160 L 589 160 L 589 160 L 589 160 L 589 160 L 588 160 L 588 160 L 588 160 L 588 160 L 587 160 L 587 160 L 587 160 L 587 160 L 586 160 L 586 160 L 586 160 L 586 160 L 585 160 L 585 160 L 585 160 L 585 160 L 584 160 L 584 160 L 584 160 L 584 160 L 583 160 L 583 160 L 583 160 L 583 160 L 582 160 L 582 160 L 582 160 L 582 160 L 581 160 L 581 160 L 581 160 L 581 160 L 580 160 L 580 160 L 580 160 L 580 160 L 579 160 L 579 160 L 579 160 L 579 160 L 578 160 L 578 160 L 578 160 L 578 160 L 577 160 L 577 160 L 577 160 L 577 160 L 576 160 L 575 160 L 575 160 L 575 160 L 574 160 L 574 160 L 574 160 L 574 160 L 573 160 L 572 160 L 572 160 L 572 160 L 571 160 L 571 160 L 571 160 L 571 160 L 570 160 L 569 160 L 569 160 L 569 160 L 568 160 L 568 160 L 568 160 L 568 160 L 567 160 L 566 160 L 566 160 L 566 160 L 565 160 L 565 160 L 565 160 L 565 160 L 564 160 L 563 160 L 563 160 L 563 160 L 562 160 L 562 160 L 562 160 L 562 160 L 561 160 L 560 160 L 560 160 L 560 160 L 559 160 L 559 160 L 559 160 L 559 160 L 558 160 L 557 160 L 557 160 L 557 160 L 556 160 L 556 160 L 556 160 L 556 160 L 555 160 L 554 160 L 554 160 L 554 160 L 553 160 L 553 160 L 553 160 L 553 160 L 552 160 L 551 160 L 551 160 L 551 160 L 550 160 L 550 160 L 550 160 L 550 160 L 549 160 L 548 160 L 548 160 L 548 160 L 547 160 L 546 160 L 546 160 L 546 160 L 545 160 L 543 160 L 543 160 L 543 160 L 542 160 L 541 160 L 541 160 L 541 160 L 540 160 L 539 160 L 539 160 L 539 160 L 538 160 L 536 160 L 536 160 L 536 160 L 535 160 L 534 160 L 534 160 L 534 160 L 533 160 L 532 160 L 532 160 L 532 160 L 531 160 L 529 160 L 529 160 L 529 160 L 528 160 L 527 160 L 527 160 L 527 160 L 526 160 L 525 160 L 525 160 L 525 160 L 524 160 L 522 160 L 522 160 L 522 160 L 521 160 L 520 160 L 520 160 L 520 160 L 519 160 L 518 160 L 518 160 L 518 160 L 517 160 L 515 160 L 515 160 L 515 160 L 514 160 L 513 160 L 513 160 L 513 160 L 512 160 L 512 160 L 512 75 L 512 75 L 542 46 L 542 46 Q 547 40 542 34 Q 536 30 531 34 L 499 66 L 499 66 L 496 69 L 496 69 L 496 72 L 496 72 L 496 160 L 496 160 L 496 160 L 496 160 L 495 160 L 492 160 L 492 160 L 492 160 L 491 160 L 488 160 L 488 160 L 488 160 L 487 160 L 484 160 L 484 160 L 484 160 L 483 160 L 480 160 L 480 160 L 480 160 L 479 160 L 476 160 L 476 160 L 476 160 L 475 160 L 472 160 L 472 160 L 472 160 L 471 160 L 468 160 L 468 160 L 468 160 L 467 160 L 464 160 L 464 160 L 464 160 L 463 160 L 460 160 L 460 160 L 460 160 L 459 160 L 452 160 L 452 160 L 452 160 L 451 160 L 443 160 L 443 160 L 443 160 L 442 160 L 434 160 L 434 160 L 434 160 L 433 160 L 425 160 L 425 160 L 425 160 L 424 160 L 416 160 L 416 160 L 416 160 L 415 160 L 407 160 L 407 160 L 407 160 L 406 160 L 398 160 L 398 160 L 398 160 L 397 160 L 389 160 L 389 160 L 389 160 L 388 160 L 380 160 L 380 160 L 380 160 L 379 160 L 371 160 L 371 160 L 371 160 L 370 160 L 366 160 L 295 5 L 295 5 L 293 0 L 293 0 L 288 0 L 104 0 Z M 336 320 L 336 336 L 336 320 L 336 336 L 336 375 L 336 375 L 303 378 L 303 378 L 299 378 L 299 378 L 297 383 L 297 383 Q 296 386 295 388 L 293 393 L 293 393 L 296 397 L 296 397 L 316 422 L 316 422 L 262 477 L 262 477 L 236 456 L 236 456 L 233 453 L 233 453 L 228 455 L 228 455 Q 226 456 223 457 L 218 459 L 218 459 L 218 464 L 218 464 L 215 496 L 215 496 L 137 496 L 137 496 L 134 463 L 134 463 L 134 459 L 134 459 L 129 457 L 129 457 Q 126 456 124 455 L 119 453 L 119 453 L 115 456 L 115 456 L 90 476 L 90 476 L 36 422 L 36 422 L 56 397 L 56 397 L 59 393 L 59 393 L 57 388 L 57 388 Q 56 386 55 383 L 53 378 L 53 378 L 49 378 L 49 378 L 16 375 L 16 375 L 16 297 L 16 297 L 49 294 L 49 294 L 54 294 L 54 294 L 55 289 L 55 289 Q 56 286 58 284 L 60 279 L 60 279 L 56 275 L 56 275 L 36 250 L 36 250 L 90 196 L 90 196 L 116 216 L 116 216 L 119 219 L 119 219 L 124 217 L 124 217 Q 126 216 129 215 Q 129 215 129 215 L 134 213 L 134 213 L 134 209 L 134 209 L 138 176 L 138 176 L 215 176 L 215 176 L 218 209 L 218 209 L 219 213 L 219 213 L 223 215 L 223 215 Q 226 216 229 217 L 233 219 L 233 219 L 237 216 L 237 216 L 262 196 L 262 196 L 317 250 L 317 250 L 296 276 L 296 276 L 293 279 L 293 279 L 295 284 L 295 284 Q 296 286 297 289 L 299 294 L 299 294 L 304 294 L 304 294 L 336 297 L 336 297 L 336 320 L 336 320 Z M 536 384 Q 568 385 584 412 Q 600 440 584 468 Q 568 495 536 496 Q 504 495 488 468 Q 472 440 488 412 Q 504 385 536 384 L 536 384 Z M 536 512 Q 577 511 598 476 Q 618 440 598 404 Q 577 369 536 368 Q 495 369 474 404 Q 454 440 474 476 Q 495 511 536 512 L 536 512 Z M 240 336 Q 239 372 208 391 Q 176 409 144 391 Q 113 372 112 336 Q 113 300 144 281 Q 176 263 208 281 Q 239 300 240 336 L 240 336 Z M 176 256 Q 131 257 107 296 Q 85 336 107 376 Q 131 415 176 416 Q 221 415 245 376 Q 267 336 245 296 Q 221 257 176 256 L 176 256 Z" />
</svg>