<svg xmlns="http://www.w3.org/2000/svg" viewBox="0 0 448 448">
  <path d="M 432 176 L 16 176 L 432 176 L 16 176 L 16 272 L 16 272 L 432 272 L 432 272 L 432 176 L 432 176 Z M 448 272 L 448 288 L 448 272 L 448 288 L 432 288 L 0 288 L 0 272 L 0 272 L 0 176 L 0 176 L 0 160 L 0 160 L 16 160 L 448 160 L 448 176 L 448 176 L 448 272 L 448 272 Z M 240 336 L 16 336 L 240 336 L 16 336 L 16 432 L 16 432 L 240 432 L 240 432 L 240 336 L 240 336 Z M 256 432 L 256 448 L 256 432 L 256 448 L 240 448 L 0 448 L 0 432 L 0 432 L 0 336 L 0 336 L 0 320 L 0 320 L 16 320 L 256 320 L 256 336 L 256 336 L 256 432 L 256 432 Z M 368 112 L 368 16 L 368 112 L 368 16 L 16 16 L 16 16 L 16 112 L 16 112 L 368 112 L 368 112 Z M 384 128 L 368 128 L 384 128 L 0 128 L 0 112 L 0 112 L 0 16 L 0 16 L 0 0 L 0 0 L 16 0 L 384 0 L 384 16 L 384 16 L 384 112 L 384 112 L 384 128 L 384 128 Z" />
</svg>