<svg xmlns="http://www.w3.org/2000/svg" viewBox="0 0 512 512">
  <path d="M 160 416 L 144 416 L 160 416 L 0 416 L 0 400 L 0 400 L 0 16 L 0 16 L 0 0 L 0 0 L 16 0 L 512 0 L 512 16 L 512 16 L 512 400 L 512 400 L 512 416 L 512 416 L 496 416 L 304 416 L 176 501 L 176 501 L 160 512 L 160 512 L 160 493 L 160 493 L 160 432 L 160 432 L 160 416 L 160 416 Z M 160 400 L 176 400 L 160 400 L 176 400 L 176 416 L 176 416 L 176 482 L 176 482 L 295 403 L 295 403 L 299 400 L 299 400 L 304 400 L 496 400 L 496 16 L 496 16 L 16 16 L 16 16 L 16 400 L 16 400 L 160 400 L 160 400 Z M 301 112 L 301 112 L 301 112 L 301 112 L 341 152 L 341 152 L 352 164 L 352 164 L 341 175 L 341 175 L 221 295 L 221 295 L 177 302 L 177 302 L 160 304 L 160 304 L 163 288 L 163 288 L 170 243 L 170 243 L 301 112 L 301 112 Z M 301 135 L 279 156 L 301 135 L 279 156 L 308 185 L 308 185 L 329 163 L 329 163 L 301 135 L 301 135 Z M 185 251 L 179 285 L 185 251 L 179 285 L 213 280 L 213 280 L 297 196 L 297 196 L 268 167 L 268 167 L 185 251 L 185 251 Z" />
</svg>