<svg xmlns="http://www.w3.org/2000/svg" viewBox="0 0 576 512">
  <path d="M 156 0 L 160 0 L 156 0 L 292 0 L 295 4 L 295 4 L 332 64 L 332 64 L 448 64 L 448 64 L 448 80 L 448 80 L 0 80 L 0 80 L 0 64 L 0 64 L 116 64 L 116 64 L 153 4 L 153 4 L 156 0 L 156 0 Z M 284 16 L 164 16 L 284 16 L 164 16 L 134 64 L 134 64 L 314 64 L 314 64 L 284 16 L 284 16 Z M 24 113 L 24 112 L 24 113 L 24 112 L 40 112 L 40 112 L 79 496 L 79 496 L 311 496 L 311 496 Q 320 505 331 512 L 72 512 L 65 512 L 64 505 L 64 505 L 24 113 L 24 113 Z M 416 193 Q 407 193 400 195 L 408 112 L 408 112 L 424 112 L 424 112 L 424 113 L 424 113 L 416 193 L 416 193 Z M 432 496 Q 467 496 496 479 L 496 479 L 496 479 Q 525 462 543 432 Q 560 402 560 368 Q 560 334 543 304 Q 525 274 496 257 Q 467 240 432 240 Q 397 240 368 257 Q 339 274 321 304 Q 304 334 304 368 Q 304 402 321 432 Q 339 462 368 479 Q 397 496 432 496 L 432 496 Z M 432 224 Q 471 224 504 243 L 504 243 L 504 243 Q 537 262 557 296 Q 576 330 576 368 Q 576 406 557 440 Q 537 474 504 493 Q 471 512 432 512 Q 393 512 360 493 Q 327 474 307 440 Q 288 406 288 368 Q 288 330 307 296 Q 327 262 360 243 Q 393 224 432 224 L 432 224 Z M 440 288 L 440 296 L 440 288 L 440 296 L 440 360 L 440 360 L 488 360 L 496 360 L 496 376 L 496 376 L 488 376 L 424 376 L 424 368 L 424 368 L 424 296 L 424 296 L 424 288 L 424 288 L 440 288 L 440 288 Z" />
</svg>