<svg xmlns="http://www.w3.org/2000/svg" viewBox="0 0 640 512">
  <path d="M 0 0 L 8 0 L 0 0 L 128 0 L 128 8 L 128 8 L 128 416 L 128 416 L 224 416 L 640 416 L 640 432 L 640 432 L 632 432 L 548 432 Q 560 445 560 464 Q 559 484 546 498 Q 532 511 512 512 Q 492 511 478 498 Q 465 484 464 464 Q 464 445 476 432 L 260 432 L 260 432 Q 272 445 272 464 Q 271 484 258 498 Q 244 511 224 512 Q 204 511 190 498 Q 177 484 176 464 Q 176 445 188 432 L 120 432 L 112 432 L 112 424 L 112 424 L 112 16 L 112 16 L 8 16 L 0 16 L 0 0 L 0 0 Z M 512 432 Q 498 432 489 441 L 489 441 L 489 441 Q 480 450 480 464 Q 480 478 489 487 Q 498 496 512 496 Q 526 496 535 487 Q 544 478 544 464 Q 544 450 535 441 Q 526 432 512 432 L 512 432 Z M 192 464 Q 192 478 201 487 L 201 487 L 201 487 Q 210 496 224 496 Q 238 496 247 487 Q 256 478 256 464 Q 256 450 247 441 Q 238 432 224 432 Q 210 432 201 441 Q 192 450 192 464 L 192 464 Z" />
</svg>