<svg xmlns="http://www.w3.org/2000/svg" viewBox="0 0 576 448">
  <path d="M 312 72 Q 313 48 328 32 L 328 32 L 328 32 Q 344 17 368 16 Q 392 17 408 32 Q 423 48 424 72 Q 424 73 424 74 Q 424 75 424 77 L 423 84 L 423 84 L 430 85 L 430 85 Q 489 96 526 111 Q 544 118 554 122 Q 558 124 560 125 L 560 187 L 560 187 L 388 281 L 388 281 L 380 286 L 380 286 L 386 293 L 386 293 L 506 445 L 506 445 L 508 448 L 508 448 L 512 448 L 576 448 L 576 432 L 576 432 L 568 432 L 516 432 L 404 291 L 404 291 L 572 199 L 572 199 L 576 197 L 576 197 L 576 192 L 576 192 L 576 120 L 576 120 L 576 115 L 576 115 L 572 113 L 572 113 L 568 120 L 568 120 Q 573 111 572 113 Q 572 113 572 113 Q 572 113 572 113 Q 572 113 572 113 Q 572 113 572 113 Q 572 113 572 113 Q 572 113 572 113 L 572 113 L 572 113 L 571 112 L 571 112 Q 571 112 570 112 Q 569 112 569 111 Q 566 110 561 108 Q 550 103 532 96 Q 496 81 440 70 Q 439 41 418 21 Q 398 1 368 0 Q 339 1 319 19 Q 299 37 296 65 L 238 76 L 238 76 Q 133 98 67 177 Q 2 256 0 364 L 0 440 L 0 440 L 0 448 L 0 448 L 8 448 L 384 448 L 384 440 L 384 440 L 384 376 L 384 376 L 384 368 L 384 368 L 376 368 L 321 368 L 324 364 L 324 364 Q 344 339 344 307 L 344 303 L 344 303 Q 343 266 318 242 Q 294 217 257 216 Q 221 217 195 242 L 154 282 L 154 282 L 149 288 L 149 288 L 160 299 L 160 299 L 166 294 L 166 294 L 207 253 L 207 253 Q 228 232 257 232 Q 287 233 307 253 Q 327 273 328 303 L 328 307 L 328 307 Q 328 333 312 354 L 298 371 L 298 371 L 287 384 L 287 384 L 304 384 L 368 384 L 368 432 L 368 432 L 16 432 L 16 432 L 16 364 L 16 364 Q 18 262 80 187 Q 141 113 241 92 L 305 80 L 305 80 L 312 79 L 312 79 L 312 72 L 312 72 Z M 368 96 Q 383 95 384 80 Q 383 65 368 64 Q 353 65 352 80 Q 353 95 368 96 L 368 96 Z" />
</svg>