<svg xmlns="http://www.w3.org/2000/svg" viewBox="0 0 641 448">
  <path d="M 32 0 L 0 128 L 32 0 L 0 128 L 115 128 L 115 128 L 141 0 L 141 0 L 32 0 L 32 0 Z M 272 128 L 272 0 L 272 128 L 272 0 L 173 0 L 173 0 L 148 128 L 148 128 L 272 128 L 272 128 Z M 304 128 L 361 128 L 304 128 L 361 128 Q 391 96 418 77 L 403 0 L 403 0 L 304 0 L 304 0 L 304 128 L 304 128 Z M 565 103 Q 568 106 571 109 L 544 0 L 544 0 L 436 0 L 436 0 L 447 59 L 447 59 L 453 55 L 453 55 L 512 115 L 512 115 L 542 85 L 542 85 L 565 103 L 565 103 Z M 80 160 L 32 160 L 80 160 L 32 160 L 36 192 L 36 192 L 24 192 L 0 192 L 0 240 L 0 240 L 24 240 L 42 240 L 64 416 L 64 416 L 64 424 L 64 424 L 64 448 L 64 448 L 112 448 L 112 448 L 112 424 L 112 424 L 112 416 L 112 416 L 337 416 L 337 416 Q 318 395 306 368 L 106 368 L 106 368 L 86 208 L 86 208 L 306 208 L 306 208 Q 318 182 334 160 L 80 160 L 80 160 Z M 448 96 Q 425 110 396 138 L 396 138 L 396 138 Q 366 166 344 204 L 344 204 L 344 204 Q 321 243 320 288 Q 322 356 367 401 Q 412 446 480 448 Q 548 446 593 401 Q 638 356 640 288 Q 641 266 621 222 Q 600 177 544 128 L 512 160 L 512 160 L 448 96 L 448 96 Z M 544 336 Q 543 363 525 381 L 525 381 L 525 381 Q 507 400 480 400 Q 453 400 435 381 Q 417 363 416 336 Q 417 312 433 290 Q 448 268 463 254 Q 479 241 480 240 Q 481 241 497 254 Q 512 268 527 290 Q 543 312 544 336 L 544 336 Z" />
</svg>