<svg xmlns="http://www.w3.org/2000/svg" viewBox="0 0 640 384">
  <path d="M 480 16 L 480 224 L 480 16 L 480 224 L 464 224 L 464 224 L 464 16 L 464 16 L 80 16 L 80 16 L 80 224 L 80 224 L 64 224 L 64 224 L 64 16 L 64 16 L 64 0 L 64 0 L 80 0 L 576 0 L 576 16 L 576 16 L 576 224 L 576 224 L 560 224 L 560 224 L 560 16 L 560 16 L 480 16 L 480 16 Z M 0 256 L 8 256 L 0 256 L 640 256 L 640 272 L 640 272 L 632 272 L 608 272 L 608 368 L 608 368 L 608 384 L 608 384 L 592 384 L 32 384 L 32 368 L 32 368 L 32 272 L 32 272 L 8 272 L 0 272 L 0 256 L 0 256 Z M 48 272 L 48 368 L 48 272 L 48 368 L 592 368 L 592 368 L 592 272 L 592 272 L 48 272 L 48 272 Z" />
</svg>