<svg xmlns="http://www.w3.org/2000/svg" viewBox="0 0 512 448">
  <path d="M 16 16 L 16 128 L 16 16 L 16 128 L 128 128 L 128 128 L 128 16 L 128 16 L 16 16 L 16 16 Z M 16 144 L 16 432 L 16 144 L 16 432 L 128 432 L 128 432 L 128 144 L 128 144 L 16 144 L 16 144 Z M 144 144 L 144 432 L 144 144 L 144 432 L 496 432 L 496 432 L 496 144 L 496 144 L 144 144 L 144 144 Z M 496 128 L 496 16 L 496 128 L 496 16 L 144 16 L 144 16 L 144 128 L 144 128 L 496 128 L 496 128 Z M 0 0 L 16 0 L 0 0 L 512 0 L 512 16 L 512 16 L 512 432 L 512 432 L 512 448 L 512 448 L 496 448 L 0 448 L 0 432 L 0 432 L 0 16 L 0 16 L 0 0 L 0 0 Z M 440 259 L 434 254 L 440 259 L 434 254 L 408 227 L 408 227 L 408 336 L 408 336 L 408 344 L 408 344 L 400 344 L 291 344 L 318 370 L 318 370 L 323 376 L 323 376 L 312 387 L 312 387 L 306 382 L 306 382 L 266 342 L 266 342 L 261 336 L 261 336 L 266 330 L 266 330 L 306 290 L 306 290 Q 312 286 318 290 Q 322 296 318 301 L 291 328 L 291 328 L 392 328 L 392 328 L 392 227 L 392 227 L 366 254 L 366 254 Q 360 258 354 254 Q 350 248 354 242 L 394 202 L 394 202 L 400 197 L 400 197 L 406 202 L 406 202 L 446 242 L 446 242 L 452 248 L 452 248 L 440 259 L 440 259 Z" />
</svg>