<svg xmlns="http://www.w3.org/2000/svg" viewBox="0 0 512 448">
  <path d="M 352 16 L 352 144 L 352 16 L 352 144 L 496 144 L 496 144 L 496 16 L 496 16 L 352 16 L 352 16 Z M 336 16 L 176 16 L 336 16 L 176 16 L 176 144 L 176 144 L 336 144 L 336 144 L 336 16 L 336 16 Z M 160 16 L 16 16 L 160 16 L 16 16 L 16 144 L 16 144 L 160 144 L 160 144 L 160 16 L 160 16 Z M 16 160 L 16 288 L 16 160 L 16 288 L 160 288 L 160 288 L 160 160 L 160 160 L 16 160 L 16 160 Z M 16 304 L 16 432 L 16 304 L 16 432 L 160 432 L 160 432 L 160 304 L 160 304 L 16 304 L 16 304 Z M 176 432 L 336 432 L 176 432 L 336 432 L 336 304 L 336 304 L 176 304 L 176 304 L 176 432 L 176 432 Z M 352 432 L 496 432 L 352 432 L 496 432 L 496 304 L 496 304 L 352 304 L 352 304 L 352 432 L 352 432 Z M 496 288 L 496 160 L 496 288 L 496 160 L 352 160 L 352 160 L 352 288 L 352 288 L 496 288 L 496 288 Z M 0 0 L 16 0 L 0 0 L 512 0 L 512 16 L 512 16 L 512 432 L 512 432 L 512 448 L 512 448 L 496 448 L 0 448 L 0 432 L 0 432 L 0 16 L 0 16 L 0 0 L 0 0 Z M 176 288 L 336 288 L 176 288 L 336 288 L 336 160 L 336 160 L 176 160 L 176 160 L 176 288 L 176 288 Z" />
</svg>