<svg xmlns="http://www.w3.org/2000/svg" viewBox="0 0 512 512">
  <path d="M 25.6 59.2 L 16 51.2 L 0 71.2 L 10.4 79.2 L 486.4 452.8 L 496 460.8 L 512 440.8 L 502.4 432.8 L 25.6 59.2 L 25.6 59.2 Z M 486.4 256 Q 474.4 224.8 444 183.2 L 444 183.2 Q 414.4 141.6 366.4 109.6 L 366.4 109.6 Q 319.2 78.4 256 76.8 Q 196 78.4 150.4 107.2 L 172 124 Q 209.6 103.2 256 102.4 Q 296.8 103.2 331.2 119.2 Q 365.6 136 392 162.4 Q 416 185.6 432.8 210.4 Q 449.6 235.2 458.4 256 Q 445.6 284.8 419.2 319.2 L 439.2 335.2 Q 473.6 290.4 486.4 256 L 486.4 256 Z M 72.8 176.8 Q 38.4 221.6 25.6 256 Q 37.6 287.2 68 328.8 Q 98.4 370.4 145.6 402.4 Q 192.8 433.6 256 435.2 Q 316 433.6 362.4 404.8 L 340 388 Q 302.4 408.8 256 409.6 Q 215.2 408.8 180.8 392.8 Q 146.4 376 120 349.6 Q 96 326.4 79.2 301.6 Q 62.4 276.8 53.6 256 Q 66.4 227.2 92.8 192.8 L 72.8 176.8 L 72.8 176.8 Z M 256 358.4 Q 276 358.4 293.6 351.2 L 269.6 332 Q 262.4 332.8 256 332.8 Q 224.8 332 203.2 312 Q 181.6 291.2 179.2 260.8 L 154.4 240.8 Q 153.6 248 153.6 256 Q 154.4 299.2 183.2 328 Q 212.8 357.6 256 358.4 L 256 358.4 Z M 358.4 256 Q 357.6 212.8 328.8 183.2 L 328.8 183.2 Q 299.2 154.4 256 153.6 Q 236 153.6 218.4 160.8 L 243.2 180.8 Q 249.6 179.2 256 179.2 Q 287.2 180 308.8 200 Q 330.4 220.8 332.8 251.2 L 357.6 271.2 Q 358.4 264 358.4 256 L 358.4 256 Z" />
</svg>