<svg xmlns="http://www.w3.org/2000/svg" viewBox="0 0 634 512">
  <path d="M 384 0 L 0 0 L 384 0 L 0 0 L 0 512 L 0 512 L 144 512 L 144 512 L 144 384 L 144 384 L 240 384 L 240 384 L 240 512 L 240 512 L 384 512 L 384 512 L 384 467 L 384 467 Q 341 447 315 409 Q 289 370 288 320 Q 288 303 291 288 L 256 288 L 256 288 L 256 224 L 256 224 L 320 224 L 320 224 Q 345 190 384 173 L 384 0 L 384 0 Z M 64 224 L 128 224 L 64 224 L 128 224 L 128 288 L 128 288 L 64 288 L 64 288 L 64 224 L 64 224 Z M 224 224 L 224 288 L 224 224 L 224 288 L 160 288 L 160 288 L 160 224 L 160 224 L 224 224 L 224 224 Z M 128 96 L 128 160 L 128 96 L 128 160 L 64 160 L 64 160 L 64 96 L 64 96 L 128 96 L 128 96 Z M 160 96 L 224 96 L 160 96 L 224 96 L 224 160 L 224 160 L 160 160 L 160 160 L 160 96 L 160 96 Z M 320 96 L 320 160 L 320 96 L 320 160 L 256 160 L 256 160 L 256 96 L 256 96 L 320 96 L 320 96 Z M 448 240 Q 493 242 517 280 Q 539 320 517 360 Q 493 399 448 400 Q 403 399 379 360 Q 357 320 379 280 Q 403 242 448 240 L 448 240 Z M 448 448 Q 489 447 520 426 L 583 489 L 583 489 L 600 506 L 600 506 L 634 472 L 634 472 L 617 455 L 617 455 L 554 392 L 554 392 Q 575 361 576 320 Q 575 266 539 230 Q 502 194 448 192 Q 394 194 357 230 Q 321 266 320 320 Q 321 375 357 411 Q 394 447 448 448 L 448 448 Z" />
</svg>