<svg xmlns="http://www.w3.org/2000/svg" viewBox="0 0 512 512">
  <path d="M 354 96 Q 338 96 325 104 L 342 132 L 325 104 L 271 138 L 238 83 L 291 50 Q 291 50 291 50 Q 291 50 291 50 L 312 112 L 325 104 Q 332 100 341 97 L 321 37 Q 337 32 354 32 Q 395 33 426 56 L 380 103 Q 387 106 393 112 Q 377 97 354 96 L 354 96 Z M 403 125 L 449 79 Q 472 110 473 151 L 473 157 Q 473 189 457 217 Q 442 245 415 262 L 86 468 L 52 414 L 82 395 L 143 432 L 173 413 L 112 376 L 185 330 L 246 368 L 276 349 L 216 311 L 293 263 L 353 301 L 383 282 L 323 244 L 381 208 Q 391 201 398 192 L 460 212 Q 467 198 470 182 L 409 162 Q 409 159 409 157 L 409 151 Q 409 137 402 125 L 403 125 Z M 288 165 L 342 132 Q 347 128 354 128 Q 375 130 377 151 L 377 157 Q 377 172 364 181 L 35 387 L 7 404 L 24 431 L 58 485 L 75 512 L 103 495 L 431 290 Q 466 267 485 233 Q 505 198 505 157 L 505 151 Q 503 87 461 44 Q 418 2 354 0 Q 311 0 274 23 L 221 56 L 194 73 L 211 100 L 244 155 L 261 182 L 289 165 L 288 165 Z" />
</svg>