<svg xmlns="http://www.w3.org/2000/svg" viewBox="0 0 352 512">
  <path d="M 308 267 Q 335 228 336 176 Q 334 108 289 63 Q 244 18 176 16 Q 108 18 63 63 Q 18 108 16 176 Q 17 228 45 267 Q 50 275 56 283 Q 57 285 59 287 Q 59 287 59 287 Q 59 287 59 287 Q 59 287 59 287 Q 59 287 59 287 Q 60 288 60 289 Q 79 314 95 342 Q 106 362 109 384 L 93 384 L 93 384 Q 90 366 81 350 Q 66 323 47 298 Q 47 298 47 298 Q 47 298 47 298 Q 47 298 47 298 Q 47 298 47 298 Q 47 298 47 298 Q 47 298 47 298 Q 47 298 47 298 Q 39 287 31 276 Q 1 233 0 176 Q 2 101 52 52 Q 101 2 176 0 Q 251 2 300 52 Q 350 101 352 176 Q 351 233 321 276 Q 313 287 305 297 Q 305 298 305 298 Q 305 298 305 298 Q 305 298 305 298 Q 305 298 305 298 Q 305 298 305 298 Q 286 323 271 349 Q 262 366 259 384 L 243 384 L 243 384 Q 246 362 257 342 Q 273 313 293 287 Q 295 285 296 283 Q 302 275 308 267 L 308 267 Z M 168 80 Q 131 81 106 106 L 106 106 L 106 106 Q 81 131 80 168 L 64 168 L 64 168 Q 65 124 94 94 Q 124 65 168 64 L 168 80 L 168 80 Z M 112 432 L 112 496 L 112 432 L 112 496 L 240 496 L 240 496 L 240 432 L 240 432 L 112 432 L 112 432 Z M 96 432 L 96 416 L 96 432 L 96 416 L 112 416 L 256 416 L 256 432 L 256 432 L 256 496 L 256 496 L 256 512 L 256 512 L 240 512 L 96 512 L 96 496 L 96 496 L 96 432 L 96 432 Z" />
</svg>