<svg xmlns="http://www.w3.org/2000/svg" viewBox="0 0 512 448">
  <path d="M 496 16 L 496 432 L 496 16 L 496 432 L 16 432 L 16 432 L 16 16 L 16 16 L 496 16 L 496 16 Z M 512 0 L 496 0 L 512 0 L 0 0 L 0 16 L 0 16 L 0 432 L 0 432 L 0 448 L 0 448 L 16 448 L 512 448 L 512 432 L 512 432 L 512 16 L 512 16 L 512 0 L 512 0 Z M 400 80 L 400 112 L 400 80 L 400 112 L 432 112 L 432 112 L 432 80 L 432 80 L 400 80 L 400 80 Z M 336 80 L 304 80 L 336 80 L 304 80 L 304 112 L 304 112 L 336 112 L 336 112 L 336 80 L 336 80 Z M 208 80 L 208 112 L 208 80 L 208 112 L 240 112 L 240 112 L 240 80 L 240 80 L 208 80 L 208 80 Z" />
</svg>