<svg xmlns="http://www.w3.org/2000/svg" viewBox="0 0 512 512">
  <path d="M 204.8 76.8 Q 250.4 77.6 288 97.6 L 288 97.6 Q 326.4 117.6 351.2 152.8 Q 352.8 151.2 354.4 149.6 Q 356.8 148 358.4 146.4 Q 376.8 160.8 393.6 176.8 Q 369.6 120 319.2 86.4 Q 269.6 52 204.8 51.2 Q 147.2 52 101.6 79.2 Q 55.2 106.4 28 152.8 Q 0.8 198.4 0 256 Q 0.8 313.6 28 359.2 Q 55.2 405.6 101.6 432.8 Q 147.2 460 204.8 460.8 Q 244.8 460.8 280.8 446.4 Q 270.4 436.8 261.6 426.4 Q 234.4 435.2 204.8 435.2 Q 154.4 434.4 114.4 410.4 Q 73.6 387.2 50.4 346.4 Q 26.4 306.4 25.6 256 Q 26.4 205.6 50.4 165.6 Q 73.6 124.8 114.4 101.6 Q 154.4 77.6 204.8 76.8 L 204.8 76.8 Z M 294.4 166.4 L 294.4 153.6 L 268.8 153.6 L 268.8 166.4 L 268.8 217.6 L 268.8 230.4 L 273.6 230.4 Q 280.8 221.6 288 212.8 Q 291.2 208.8 294.4 205.6 L 294.4 166.4 L 294.4 166.4 Z M 140.8 166.4 L 140.8 153.6 L 115.2 153.6 L 115.2 166.4 L 115.2 217.6 L 115.2 230.4 L 140.8 230.4 L 140.8 217.6 L 140.8 166.4 L 140.8 166.4 Z M 217.6 166.4 L 217.6 153.6 L 192 153.6 L 192 166.4 L 192 217.6 L 192 230.4 L 217.6 230.4 L 217.6 217.6 L 217.6 166.4 L 217.6 166.4 Z M 410.4 269.6 L 429.6 247.2 Q 432 244 434.4 241.6 Q 435.2 241.6 435.2 241.6 Q 444 250.4 453.6 262.4 Q 468 280.8 476.8 299.2 Q 486.4 317.6 486.4 332.8 Q 485.6 376.8 456.8 405.6 Q 427.2 434.4 384 435.2 Q 340.8 434.4 311.2 405.6 Q 282.4 376.8 281.6 332.8 Q 281.6 315.2 294.4 291.2 Q 308 268 326.4 246.4 Q 344 226.4 358.4 213.6 Q 372.8 226.4 391.2 247.2 L 410.4 269.6 L 410.4 269.6 Z M 358.4 179.2 Q 356.8 180 332 203.2 L 332 203.2 Q 307.2 226.4 282.4 261.6 L 282.4 261.6 Q 257.6 296.8 256 332.8 Q 257.6 387.2 293.6 423.2 Q 329.6 459.2 384 460.8 Q 438.4 459.2 474.4 423.2 Q 510.4 387.2 512 332.8 Q 510.4 302.4 492 273.6 Q 473.6 244.8 455.2 224.8 Q 436.8 205.6 435.2 204.8 Q 435.2 204.8 428 212 Q 420.8 218.4 410.4 230.4 Q 401.6 220 392.8 212 Q 378.4 196.8 368.8 188 Q 358.4 180 358.4 179.2 L 358.4 179.2 Z M 359.2 261.6 L 348.8 273.6 Q 332.8 292.8 323.2 308 Q 313.6 324 313.6 340.8 Q 314.4 372.8 335.2 391.2 Q 355.2 409.6 384.8 409.6 Q 408 409.6 427.2 396.8 L 427.2 396.8 L 428 396.8 Q 448 381.6 452.8 357.6 Q 457.6 333.6 446.4 311.2 L 446.4 311.2 Q 444 306.4 440 300.8 L 432 290.4 L 422.4 297.6 L 400 314.4 L 389.6 300.8 Q 386.4 296.8 383.2 292.8 Q 372 277.6 368.8 273.6 L 359.2 261.6 L 359.2 261.6 Z M 425.6 327.2 Q 431.2 340.8 427.2 354.4 L 427.2 354.4 Q 424 367.2 412.8 375.2 Q 400 384 384.8 384 Q 364 384 352 372.8 Q 340 362.4 339.2 340.8 Q 339.2 332.8 345.6 320.8 Q 350.4 312.8 359.2 302.4 Q 361.6 306.4 365.6 311.2 Q 367.2 313.6 368.8 316 Q 372.8 320.8 376 325.6 Q 379.2 329.6 381.6 332.8 L 385.6 337.6 L 387.2 339.2 L 387.2 340 L 387.2 340 L 387.2 340 L 387.2 340 L 387.2 340 L 397.6 332 L 387.2 340 L 395.2 349.6 L 404.8 342.4 L 425.6 327.2 L 425.6 327.2 Z" />
</svg>