<svg xmlns="http://www.w3.org/2000/svg" viewBox="0 0 512 512">
  <path d="M 224 0 L 232 0 L 224 0 L 288 0 L 288 16 L 288 16 L 280 16 L 224 16 L 224 0 L 224 0 Z M 472 128 L 472 136 L 472 128 L 472 136 L 472 168 L 472 168 L 504 168 L 512 168 L 512 184 L 512 184 L 504 184 L 472 184 L 472 216 L 472 216 L 472 224 L 472 224 L 456 224 L 456 224 L 456 216 L 456 216 L 456 184 L 456 184 L 424 184 L 416 184 L 416 168 L 416 168 L 424 168 L 456 168 L 456 136 L 456 136 L 456 128 L 456 128 L 472 128 L 472 128 Z M 56 352 L 56 360 L 56 352 L 56 360 L 56 392 L 56 392 L 88 392 L 96 392 L 96 408 L 96 408 L 88 408 L 56 408 L 56 440 L 56 440 L 56 448 L 56 448 L 40 448 L 40 448 L 40 440 L 40 440 L 40 408 L 40 408 L 8 408 L 0 408 L 0 392 L 0 392 L 8 392 L 40 392 L 40 360 L 40 360 L 40 352 L 40 352 L 56 352 L 56 352 Z M 96 448 L 104 448 L 96 448 L 416 448 L 416 456 L 416 456 L 416 504 L 416 504 L 416 512 L 416 512 L 400 512 L 400 512 L 400 504 L 400 504 L 400 464 L 400 464 L 112 464 L 112 464 L 112 504 L 112 504 L 112 512 L 112 512 L 96 512 L 96 512 L 96 504 L 96 504 L 96 456 L 96 456 L 96 448 L 96 448 Z M 168 384 L 344 384 L 168 384 L 352 384 L 352 400 L 352 400 L 344 400 L 160 400 L 160 384 L 160 384 L 168 384 L 168 384 Z M 160 320 L 168 320 L 160 320 L 352 320 L 352 336 L 352 336 L 344 336 L 160 336 L 160 320 L 160 320 Z M 104 256 L 408 256 L 104 256 L 416 256 L 416 272 L 416 272 L 408 272 L 96 272 L 96 256 L 96 256 L 104 256 L 104 256 Z M 128 192 L 136 192 L 128 192 L 384 192 L 384 208 L 384 208 L 376 208 L 128 208 L 128 192 L 128 192 Z M 200 128 L 312 128 L 200 128 L 320 128 L 320 144 L 320 144 L 312 144 L 192 144 L 192 128 L 192 128 L 200 128 L 200 128 Z M 224 64 L 288 64 L 224 64 L 296 64 L 296 80 L 296 80 L 288 80 L 216 80 L 216 64 L 216 64 L 224 64 L 224 64 Z" />
</svg>