<svg xmlns="http://www.w3.org/2000/svg" viewBox="0 0 384 512">
  <path d="M 81 459 L 73 453 L 81 459 L 73 453 L 64 458 L 64 458 L 16 485 L 16 485 L 16 27 L 16 27 L 64 54 L 64 54 L 73 59 L 73 59 L 81 53 L 81 53 L 129 19 L 129 19 L 184 54 L 184 54 L 192 59 L 192 59 L 201 54 L 201 54 L 255 19 L 255 19 L 303 53 L 303 53 L 311 59 L 311 59 L 320 54 L 320 54 L 368 27 L 368 27 L 368 485 L 368 485 L 320 458 L 320 458 L 311 453 L 311 453 L 303 459 L 303 459 L 255 493 L 255 493 L 201 459 L 201 459 L 192 453 L 192 453 L 184 459 L 184 459 L 129 493 L 129 493 L 81 459 L 81 459 Z M 0 512 L 16 503 L 0 512 L 16 503 L 72 472 L 72 472 L 128 512 L 128 512 L 192 472 L 192 472 L 256 512 L 256 512 L 312 472 L 312 472 L 368 503 L 368 503 L 384 512 L 384 512 L 384 494 L 384 494 L 384 18 L 384 18 L 384 0 L 384 0 L 368 9 L 368 9 L 312 40 L 312 40 L 256 0 L 256 0 L 192 40 L 192 40 L 128 0 L 128 0 L 72 40 L 72 40 L 16 9 L 16 9 L 0 0 L 0 0 L 0 18 L 0 18 L 0 494 L 0 494 L 0 512 L 0 512 Z M 96 152 L 88 152 L 96 152 L 88 152 L 88 168 L 88 168 L 96 168 L 296 168 L 296 152 L 296 152 L 288 152 L 96 152 Z M 88 344 L 88 360 L 88 344 L 88 360 L 96 360 L 296 360 L 296 344 L 296 344 L 288 344 L 88 344 Z M 96 248 L 88 248 L 96 248 L 88 248 L 88 264 L 88 264 L 96 264 L 296 264 L 296 248 L 296 248 L 288 248 L 96 248 Z" />
</svg>