<svg xmlns="http://www.w3.org/2000/svg" viewBox="0 0 576 448">
  <path d="M 560 16 L 560 432 L 560 16 L 560 432 L 16 432 L 16 432 L 16 16 L 16 16 L 560 16 L 560 16 Z M 16 0 L 0 0 L 16 0 L 0 0 L 0 16 L 0 16 L 0 432 L 0 432 L 0 448 L 0 448 L 16 448 L 576 448 L 576 432 L 576 432 L 576 16 L 576 16 L 576 0 L 576 0 L 560 0 L 16 0 Z M 192 120 L 192 136 L 192 120 L 192 136 L 200 136 L 448 136 L 448 120 L 448 120 L 440 120 L 192 120 Z M 192 216 L 192 232 L 192 216 L 192 232 L 200 232 L 448 232 L 448 216 L 448 216 L 440 216 L 192 216 Z M 192 312 L 192 328 L 192 312 L 192 328 L 200 328 L 448 328 L 448 312 L 448 312 L 440 312 L 192 312 Z M 128 112 Q 113 113 112 128 Q 113 143 128 144 Q 143 143 144 128 Q 143 113 128 112 L 128 112 Z M 144 224 Q 143 209 128 208 Q 113 209 112 224 Q 113 239 128 240 Q 143 239 144 224 L 144 224 Z M 128 304 Q 113 305 112 320 Q 113 335 128 336 Q 143 335 144 320 Q 143 305 128 304 L 128 304 Z" />
</svg>