<svg xmlns="http://www.w3.org/2000/svg" viewBox="0 0 512 448">
  <path d="M 83 240 L 20 0 L 83 240 L 20 0 L 36 0 L 36 0 L 100 240 L 100 240 L 190 240 L 190 240 L 244 6 L 244 6 L 246 0 L 246 0 L 252 0 L 266 0 L 268 6 L 268 6 L 322 240 L 322 240 L 412 240 L 412 240 L 476 0 L 476 0 L 492 0 L 492 0 L 429 240 L 429 240 L 504 240 L 512 240 L 512 256 L 512 256 L 504 256 L 425 256 L 376 442 L 376 442 L 374 448 L 374 448 L 368 448 L 354 448 L 352 442 L 352 442 L 309 256 L 309 256 L 203 256 L 203 256 L 160 442 L 160 442 L 158 448 L 158 448 L 152 448 L 138 448 L 136 442 L 136 442 L 87 256 L 87 256 L 8 256 L 0 256 L 0 240 L 0 240 L 8 240 L 83 240 Z M 104 256 L 148 423 L 104 256 L 148 423 L 186 256 L 186 256 L 104 256 L 104 256 Z M 207 240 L 306 240 L 207 240 L 306 240 L 256 26 L 256 26 L 207 240 L 207 240 Z M 326 256 L 364 423 L 326 256 L 364 423 L 408 256 L 408 256 L 326 256 L 326 256 Z" />
</svg>