<svg xmlns="http://www.w3.org/2000/svg" viewBox="0 0 512 512">
  <path d="M 256 80 Q 270 80 279 71 L 279 71 L 279 71 Q 288 62 288 48 Q 288 34 279 25 Q 270 16 256 16 Q 242 16 233 25 Q 224 34 224 48 Q 224 62 233 71 Q 242 80 256 80 L 256 80 Z M 248 95 Q 231 92 219 79 L 219 79 L 219 79 Q 208 66 208 48 Q 209 28 222 14 Q 236 1 256 0 Q 276 1 290 14 Q 303 28 304 48 Q 304 66 293 79 Q 281 92 264 95 L 264 139 L 264 139 L 380 81 L 380 81 L 386 78 L 386 78 L 390 82 L 390 82 L 510 202 L 510 202 L 512 205 L 512 205 L 512 208 L 512 208 L 512 216 L 512 216 L 512 224 L 512 224 L 504 224 L 366 224 Q 318 224 277 198 L 264 190 L 264 190 L 264 363 L 264 363 L 323 331 L 323 331 Q 351 315 352 282 L 352 264 L 352 264 L 352 256 L 352 256 L 368 256 L 368 256 L 368 264 L 368 264 L 368 282 L 368 282 Q 367 324 331 345 L 273 377 L 273 377 L 299 391 L 299 391 Q 335 412 336 454 L 336 472 L 336 472 L 336 480 L 336 480 L 320 480 L 320 480 L 320 472 L 320 472 L 320 454 L 320 454 Q 319 421 291 405 L 264 390 L 264 390 L 264 448 L 264 448 L 264 512 L 264 512 L 248 512 L 248 512 L 248 448 L 248 448 L 248 390 L 248 390 L 221 405 L 221 405 Q 193 421 192 454 L 192 472 L 192 472 L 192 480 L 192 480 L 176 480 L 176 480 L 176 472 L 176 472 L 176 454 L 176 454 Q 177 412 214 391 L 239 377 L 239 377 L 182 345 L 182 345 Q 145 324 144 282 L 144 264 L 144 264 L 144 256 L 144 256 L 160 256 L 160 256 L 160 264 L 160 264 L 160 282 L 160 282 Q 161 315 189 331 L 248 363 L 248 363 L 248 190 L 248 190 L 235 198 L 235 198 Q 194 224 146 224 L 8 224 L 0 224 L 0 216 L 0 216 L 0 208 L 0 208 L 0 205 L 0 205 L 2 202 L 2 202 L 122 82 L 122 82 L 126 78 L 126 78 L 132 81 L 132 81 L 248 139 L 248 139 L 248 95 L 248 95 Z M 248 157 L 130 98 L 248 157 L 130 98 L 19 208 L 19 208 L 146 208 L 146 208 Q 190 208 227 185 L 248 172 L 248 172 L 248 157 L 248 157 Z M 264 172 L 285 185 L 264 172 L 285 185 Q 322 208 366 208 L 493 208 L 493 208 L 382 98 L 382 98 L 264 157 L 264 157 L 264 172 L 264 172 Z" />
</svg>