<svg xmlns="http://www.w3.org/2000/svg" viewBox="0 0 640 448">
  <path d="M 624 16 L 624 336 L 624 16 L 624 336 L 112 336 L 112 336 L 112 16 L 112 16 L 624 16 L 624 16 Z M 112 0 L 96 0 L 112 0 L 96 0 L 96 16 L 96 16 L 96 336 L 96 336 L 96 352 L 96 352 L 112 352 L 640 352 L 640 336 L 640 336 L 640 16 L 640 16 L 640 0 L 640 0 L 624 0 L 112 0 Z M 64 96 L 16 96 L 64 96 L 0 96 L 0 112 L 0 112 L 0 432 L 0 432 L 0 448 L 0 448 L 16 448 L 544 448 L 544 432 L 544 432 L 544 384 L 544 384 L 528 384 L 528 384 L 528 432 L 528 432 L 16 432 L 16 432 L 16 112 L 16 112 L 64 112 L 64 112 L 64 96 L 64 96 Z M 288 176 Q 289 131 328 107 Q 368 85 408 107 Q 447 131 448 176 Q 447 221 408 245 Q 368 267 328 245 Q 289 221 288 176 L 288 176 Z M 464 176 Q 464 150 451 128 L 451 128 L 451 128 Q 438 106 416 93 Q 393 80 368 80 Q 343 80 320 93 Q 298 106 285 128 Q 272 150 272 176 Q 272 202 285 224 Q 298 246 320 259 Q 343 272 368 272 Q 393 272 416 259 Q 438 246 451 224 Q 464 202 464 176 L 464 176 Z M 600 128 L 600 112 L 600 128 L 600 112 L 592 112 L 584 112 Q 560 111 544 96 Q 529 80 528 56 L 528 48 L 528 48 L 528 40 L 528 40 L 512 40 L 512 40 L 512 48 L 512 48 L 512 56 L 512 56 Q 513 87 533 107 Q 553 127 584 128 L 592 128 L 600 128 Z M 144 128 L 152 128 L 144 128 L 152 128 Q 183 127 203 107 Q 223 87 224 56 L 224 48 L 224 48 L 224 40 L 224 40 L 208 40 L 208 40 L 208 48 L 208 48 L 208 56 L 208 56 Q 207 80 192 96 Q 176 111 152 112 L 144 112 L 136 112 L 136 128 L 136 128 L 144 128 L 144 128 Z M 600 224 L 592 224 L 600 224 L 584 224 Q 553 225 533 245 Q 513 265 512 296 L 512 304 L 512 304 L 512 312 L 512 312 L 528 312 L 528 312 L 528 304 L 528 304 L 528 296 L 528 296 Q 529 272 544 256 Q 560 241 584 240 L 592 240 L 600 240 L 600 224 L 600 224 Z M 144 224 L 136 224 L 144 224 L 136 224 L 136 240 L 136 240 L 144 240 L 152 240 Q 176 241 192 256 Q 207 272 208 296 L 208 304 L 208 304 L 208 312 L 208 312 L 224 312 L 224 312 L 224 304 L 224 304 L 224 296 L 224 296 Q 223 265 203 245 Q 183 225 152 224 L 144 224 L 144 224 Z" />
</svg>