<svg xmlns="http://www.w3.org/2000/svg" viewBox="0 0 152 448">
  <path d="M 40 16 L 40 112 L 40 16 L 40 112 L 136 112 L 136 112 L 136 16 L 136 16 L 40 16 L 40 16 Z M 24 0 L 40 0 L 24 0 L 152 0 L 152 16 L 152 16 L 152 112 L 152 112 L 152 128 L 152 128 L 136 128 L 24 128 L 24 112 L 24 112 L 24 16 L 24 16 L 24 0 L 24 0 Z M 55 432 L 136 300 L 55 432 L 136 300 L 136 240 L 136 240 L 53 240 L 53 240 L 19 432 L 19 432 L 55 432 L 55 432 Z M 3 432 L 40 224 L 3 432 L 40 224 L 136 224 L 152 224 L 152 240 L 152 240 L 152 304 L 152 304 L 64 448 L 64 448 L 16 448 L 0 448 L 3 432 L 3 432 Z" />
</svg>