<svg xmlns="http://www.w3.org/2000/svg" viewBox="0 0 512 512">
  <path d="M 427.73334 170.66667 L 384 170.66667 L 358.4 170.66667 L 358.4 221.86667 L 384 221.86667 L 486.4 221.86667 L 512 221.86667 L 512 196.26666 L 512 93.86667 L 512 68.26667 L 460.8 68.26667 L 460.8 93.86667 L 460.8 131.2 Q 425.6 91.73333 391.46667 64 Q 339.2 18.133333 256 17.066668 Q 176 18.133333 114.13333 62.933334 Q 52.266666 107.73333 26.666666 179.2 L 75.73333 196.26666 Q 94.933334 139.73334 144 104.53333 Q 193.06667 69.333336 256 68.26667 Q 289.06668 68.26667 313.6 77.86667 Q 338.13333 86.4 359.46667 103.46667 Q 391.46667 129.06667 427.73334 170.66667 L 427.73334 170.66667 Z M 281.6 145.06667 L 281.6 119.46667 L 230.4 119.46667 L 230.4 145.06667 L 230.4 264.53333 L 230.4 290.13333 L 281.6 290.13333 L 281.6 264.53333 L 281.6 145.06667 L 281.6 145.06667 Z M 281.6 375.46667 L 281.6 324.26666 L 230.4 324.26666 L 230.4 375.46667 L 281.6 375.46667 L 281.6 375.46667 Z M 0 443.73334 L 51.2 443.73334 L 51.2 418.13333 L 51.2 377.6 Q 87.46667 419.2 121.6 448 Q 148.26666 470.4 181.33333 482.13333 Q 213.33333 494.93332 256 494.93332 Q 336 493.86667 397.86667 449.06668 Q 459.73334 404.26666 485.33334 332.8 L 436.26666 315.73334 Q 417.06668 372.26666 368 407.46667 Q 318.93332 442.66666 256 443.73334 Q 222.93333 443.73334 198.4 434.13333 Q 173.86667 425.6 153.6 408.53333 Q 124.8 384 90.666664 345.6 Q 90.666664 344.53333 90.666664 344.53333 L 90.666664 344.53333 L 90.666664 344.53333 L 87.46667 341.33334 L 128 341.33334 L 153.6 341.33334 L 153.6 290.13333 L 128 290.13333 L 25.6 290.13333 L 0 290.13333 L 0 315.73334 L 0 418.13333 L 0 443.73334 L 0 443.73334 Z" />
</svg>