<svg xmlns="http://www.w3.org/2000/svg" viewBox="0 0 640 512">
  <path d="M 592 16 L 592 389 L 592 16 L 592 389 L 608 402 L 608 402 L 608 400 L 608 400 L 608 16 L 608 16 L 608 0 L 608 0 L 592 0 L 32 0 L 32 0 L 32 0 L 99 0 L 99 0 L 119 16 L 119 16 L 592 16 L 592 16 Z M 32 110 L 32 400 L 32 110 L 32 400 L 32 416 L 32 416 L 48 416 L 255 416 L 241 496 L 241 496 L 168 496 L 160 496 L 160 512 L 160 512 L 168 512 L 480 512 L 480 496 L 480 496 L 472 496 L 399 496 L 386 416 L 386 416 L 419 416 L 419 416 L 399 400 L 399 400 L 376 400 L 376 400 L 376 400 L 376 400 L 264 400 L 264 400 L 264 400 L 264 400 L 48 400 L 48 400 L 48 123 L 48 123 L 32 110 L 32 110 Z M 112 352 L 338 352 L 112 352 L 338 352 L 318 336 L 318 336 L 112 336 L 112 336 L 112 174 L 112 174 L 96 161 L 96 161 L 96 336 L 96 336 L 96 352 L 96 352 L 112 352 L 112 352 Z M 544 336 L 544 80 L 544 336 L 544 80 L 544 64 L 544 64 L 528 64 L 180 64 L 200 80 L 200 80 L 528 80 L 528 80 L 528 336 L 528 336 L 524 336 L 524 336 L 544 352 L 544 352 L 544 336 L 544 336 Z M 257 496 L 271 416 L 257 496 L 271 416 L 369 416 L 369 416 L 382 496 L 382 496 L 257 496 L 257 496 Z M 16 5 L 10 0 L 16 5 L 10 0 L 0 13 L 0 13 L 6 18 L 6 18 L 624 507 L 624 507 L 630 512 L 630 512 L 640 500 L 640 500 L 634 495 L 634 495 L 16 5 L 16 5 Z" />
</svg>