<svg xmlns="http://www.w3.org/2000/svg" viewBox="0 0 641 480">
  <path d="M 48 48 L 400 48 L 48 48 L 400 48 L 400 123 L 400 123 Q 417 109 431 101 L 448 90 L 448 90 L 448 48 L 448 48 L 448 0 L 448 0 L 400 0 L 0 0 L 0 48 L 0 48 L 0 400 L 0 400 L 0 448 L 0 448 L 48 448 L 337 448 Q 318 427 306 400 L 48 400 L 48 400 L 48 48 L 48 48 Z M 144 120 L 144 96 L 144 120 L 144 96 L 96 96 L 96 96 L 96 120 L 96 120 L 96 232 L 96 232 L 96 256 L 96 256 L 144 256 L 144 256 L 144 232 L 144 232 L 144 120 L 144 120 Z M 240 120 L 240 96 L 240 120 L 240 96 L 192 96 L 192 96 L 192 120 L 192 120 L 192 232 L 192 232 L 192 256 L 192 256 L 240 256 L 240 256 L 240 232 L 240 232 L 240 120 L 240 120 Z M 448 128 Q 425 142 396 170 L 396 170 L 396 170 Q 366 198 344 236 L 344 236 L 344 236 Q 321 275 320 320 Q 322 388 367 433 Q 412 478 480 480 Q 548 478 593 433 Q 638 388 640 320 Q 641 298 621 254 Q 600 209 544 160 L 512 192 L 512 192 L 448 128 L 448 128 Z M 544 368 Q 543 395 525 413 L 525 413 L 525 413 Q 507 432 480 432 Q 453 432 435 413 Q 417 395 416 368 Q 417 344 433 322 Q 448 300 463 286 Q 479 273 480 272 Q 481 273 497 286 Q 512 300 527 322 Q 543 344 544 368 L 544 368 Z" />
</svg>