<svg xmlns="http://www.w3.org/2000/svg" viewBox="0 0 400 512">
  <path d="M 80 512 L 72 512 L 80 512 L 72 512 L 72 504 L 72 504 L 72 280 L 72 280 L 72 272 L 72 272 L 72 265 L 72 265 L 3 206 L 3 206 L 0 204 L 0 204 L 0 200 L 0 200 L 0 146 L 0 146 Q 0 109 18 78 Q 36 47 69 28 L 87 18 L 87 18 Q 118 0 154 0 L 296 0 L 296 0 Q 340 1 370 30 Q 399 60 400 104 L 400 120 L 400 120 L 400 208 L 400 208 L 400 256 L 400 256 L 400 264 L 400 264 L 392 264 L 336 264 L 336 288 L 336 288 L 336 296 L 336 296 L 328 296 L 264 296 L 264 320 L 264 320 L 264 328 L 264 328 L 256 328 L 176 328 L 176 504 L 176 504 L 176 512 L 176 512 L 168 512 L 80 512 Z M 72 244 L 72 168 L 72 244 L 72 168 L 72 160 L 72 160 L 88 160 L 88 160 L 88 168 L 88 168 L 88 257 L 88 257 L 88 261 L 88 261 L 88 272 L 88 272 L 88 280 L 88 280 L 88 496 L 88 496 L 160 496 L 160 496 L 160 320 L 160 320 L 160 312 L 160 312 L 168 312 L 248 312 L 248 288 L 248 288 L 248 280 L 248 280 L 256 280 L 320 280 L 320 256 L 320 256 L 320 248 L 320 248 L 328 248 L 384 248 L 384 208 L 384 208 L 384 120 L 384 120 L 384 104 L 384 104 Q 383 67 358 42 Q 333 17 296 16 L 154 16 L 154 16 Q 122 16 95 32 L 77 42 L 77 42 Q 48 59 32 86 Q 16 114 16 146 L 16 196 L 16 196 L 72 244 L 72 244 Z" />
</svg>