<svg xmlns="http://www.w3.org/2000/svg" viewBox="0 0 640 512">
  <path d="M 576 16 L 576 0 L 576 16 L 576 0 L 560 0 L 112 0 L 132 16 L 132 16 L 560 16 L 560 16 L 560 354 L 560 354 L 576 366 L 576 366 L 576 16 L 576 16 Z M 64 146 L 64 400 L 64 146 L 64 400 L 64 416 L 64 416 L 80 416 L 224 416 L 224 432 L 224 432 L 224 493 L 224 493 L 224 512 L 224 512 L 240 501 L 240 501 L 368 416 L 368 416 L 407 416 L 407 416 L 386 400 L 386 400 L 368 400 L 363 400 L 359 403 L 359 403 L 240 482 L 240 482 L 240 416 L 240 416 L 240 400 L 240 400 L 224 400 L 80 400 L 80 158 L 80 158 L 64 146 L 64 146 Z M 16 5 L 10 0 L 16 5 L 10 0 L 0 13 L 0 13 L 6 18 L 6 18 L 624 507 L 624 507 L 630 512 L 630 512 L 640 500 L 640 500 L 634 495 L 634 495 L 16 5 L 16 5 Z" />
</svg>