<svg xmlns="http://www.w3.org/2000/svg" viewBox="0 0 640 512">
  <path d="M 16 5 L 10 0 L 16 5 L 10 0 L 0 13 L 0 13 L 6 18 L 6 18 L 624 507 L 624 507 L 630 512 L 630 512 L 640 500 L 640 500 L 634 495 L 634 495 L 16 5 L 16 5 Z M 467 464 L 187 464 L 467 464 L 187 464 L 311 341 L 311 341 L 298 331 L 298 331 L 288 341 L 288 341 L 202 254 L 202 254 L 191 246 L 191 246 L 186 250 L 186 250 L 80 357 L 80 357 L 80 158 L 80 158 L 64 146 L 64 146 L 64 464 L 64 464 L 64 480 L 64 480 L 80 480 L 488 480 L 467 464 L 467 464 Z M 560 32 L 153 32 L 560 32 L 153 32 L 173 48 L 173 48 L 560 48 L 560 48 L 560 293 L 560 293 L 454 186 L 454 186 L 448 181 L 448 181 L 442 186 L 442 186 L 401 228 L 401 228 L 413 238 L 413 238 L 448 203 L 448 203 L 560 315 L 560 315 L 560 354 L 560 354 L 576 366 L 576 366 L 576 48 L 576 48 L 576 32 L 576 32 L 560 32 L 560 32 Z M 80 379 L 192 267 L 80 379 L 192 267 L 277 352 L 277 352 L 165 464 L 165 464 L 80 464 L 80 464 L 80 379 L 80 379 Z" />
</svg>