<svg xmlns="http://www.w3.org/2000/svg" viewBox="0 0 608 480">
  <path d="M 32 144 L 0 144 L 32 144 L 0 144 L 0 112 L 0 112 L 0 104 L 0 104 L 74 24 L 74 24 L 96 0 L 96 0 L 118 24 L 118 24 L 192 104 L 192 104 L 192 112 L 192 112 L 192 144 L 192 144 L 160 144 L 112 144 L 112 432 L 112 432 L 288 432 L 288 432 L 288 32 L 288 32 L 288 16 L 288 16 L 304 16 L 528 16 L 528 32 L 528 32 L 528 336 L 528 336 L 576 336 L 608 336 L 608 368 L 608 368 L 608 376 L 608 376 L 534 456 L 534 456 L 512 480 L 512 480 L 490 456 L 490 456 L 416 376 L 416 376 L 416 368 L 416 368 L 416 336 L 416 336 L 448 336 L 496 336 L 496 48 L 496 48 L 320 48 L 320 48 L 320 448 L 320 448 L 320 464 L 320 464 L 304 464 L 80 464 L 80 448 L 80 448 L 80 144 L 80 144 L 32 144 L 32 144 Z M 512 368 L 452 368 L 512 368 L 452 368 L 512 433 L 512 433 L 572 368 L 572 368 L 512 368 L 512 368 Q 512 368 512 368 Q 512 368 512 368 Q 512 368 512 368 Q 512 368 512 368 L 512 368 Z M 156 112 L 96 47 L 156 112 L 96 47 L 36 112 L 36 112 L 156 112 L 156 112 Z" />
</svg>