<svg xmlns="http://www.w3.org/2000/svg" viewBox="0 0 576 448">
  <path d="M 264 40 Q 266 18 288 16 Q 310 18 312 40 Q 310 62 288 64 Q 266 62 264 40 L 264 40 Z M 294 80 L 370 231 L 294 80 L 370 231 L 379 249 L 379 249 L 394 237 L 394 237 L 516 139 L 516 139 Q 518 140 520 141 L 467 432 L 467 432 L 109 432 L 109 432 L 56 141 L 56 141 Q 58 140 60 139 L 182 237 L 182 237 L 198 249 L 198 249 L 206 231 L 206 231 L 282 80 L 282 80 Q 285 80 288 80 Q 291 80 294 80 L 294 80 Z M 504 128 L 397 214 L 504 128 L 397 214 L 384 224 L 384 224 L 377 209 L 377 209 L 309 74 L 309 74 Q 327 62 328 40 Q 328 23 316 12 Q 305 0 288 0 Q 271 0 260 12 Q 248 23 248 40 Q 249 63 267 74 L 199 209 L 199 209 L 192 224 L 192 224 L 179 214 L 179 214 L 72 128 L 72 128 Q 80 118 80 104 Q 80 87 68 76 Q 57 64 40 64 Q 23 64 12 76 Q 0 87 0 104 Q 0 121 12 132 Q 23 144 40 144 L 41 144 L 41 144 L 96 448 L 96 448 L 480 448 L 480 448 L 535 144 L 535 144 Q 535 144 536 144 Q 536 144 536 144 Q 553 144 564 132 Q 576 121 576 104 Q 576 87 564 76 Q 553 64 536 64 Q 519 64 508 76 Q 496 87 496 104 Q 496 118 504 128 L 504 128 Z M 40 80 Q 62 82 64 104 Q 62 126 40 128 Q 18 126 16 104 Q 18 82 40 80 L 40 80 Z M 512 104 Q 514 82 536 80 Q 558 82 560 104 Q 558 126 536 128 Q 514 126 512 104 L 512 104 Z" />
</svg>