<svg xmlns="http://www.w3.org/2000/svg" viewBox="0 0 512 512">
  <path d="M 205 307 L 197 305 L 205 307 L 197 305 L 51 256 L 51 256 L 197 207 L 197 207 L 205 205 L 205 205 L 207 197 L 207 197 L 256 51 L 256 51 L 305 197 L 305 197 L 307 205 L 307 205 L 315 207 L 315 207 L 461 256 L 461 256 L 315 305 L 315 305 L 307 307 L 307 307 L 305 315 L 305 315 L 256 461 L 256 461 L 207 315 L 207 315 L 205 307 L 205 307 Z M 25 264 L 192 320 L 25 264 L 192 320 L 248 487 L 248 487 L 256 512 L 256 512 L 264 487 L 264 487 L 320 320 L 320 320 L 487 264 L 487 264 L 512 256 L 512 256 L 487 248 L 487 248 L 320 192 L 320 192 L 264 25 L 264 25 L 256 0 L 256 0 L 248 25 L 248 25 L 192 192 L 192 192 L 25 248 L 25 248 L 0 256 L 0 256 L 25 264 L 25 264 Z M 360 349 L 349 360 L 360 349 L 349 360 L 354 366 L 354 366 L 434 446 L 434 446 L 440 451 L 440 451 L 451 440 L 451 440 L 446 434 L 446 434 L 366 354 L 366 354 L 360 349 L 360 349 Z M 354 146 L 349 152 L 354 146 L 349 152 L 360 163 L 360 163 L 366 158 L 366 158 L 446 78 L 446 78 L 451 72 L 451 72 L 440 61 L 440 61 L 434 66 L 434 66 L 354 146 L 354 146 Z M 72 61 L 61 72 L 72 61 L 61 72 L 66 78 L 66 78 L 146 158 L 146 158 L 152 163 L 152 163 L 163 152 L 163 152 L 158 146 L 158 146 L 78 66 L 78 66 L 72 61 L 72 61 Z M 66 434 L 61 440 L 66 434 L 61 440 L 72 451 L 72 451 L 78 446 L 78 446 L 158 366 L 158 366 L 163 360 L 163 360 L 152 349 L 152 349 L 146 354 L 146 354 L 66 434 L 66 434 Z" />
</svg>