<svg xmlns="http://www.w3.org/2000/svg" viewBox="0 0 512 480">
  <path d="M 128 0 L 136 0 L 128 0 L 384 0 L 384 8 L 384 8 L 384 96 L 384 96 L 496 96 L 512 96 L 512 112 L 512 112 L 512 464 L 512 464 L 512 480 L 512 480 L 496 480 L 0 480 L 0 464 L 0 464 L 0 112 L 0 112 L 0 96 L 0 96 L 16 96 L 128 96 L 128 8 L 128 8 L 128 0 L 128 0 Z M 368 16 L 144 16 L 368 16 L 144 16 L 144 96 L 144 96 L 368 96 L 368 96 L 368 16 L 368 16 Z M 104 112 L 104 464 L 104 112 L 104 464 L 408 464 L 408 464 L 408 112 L 408 112 L 376 112 L 104 112 Z M 88 464 L 88 112 L 88 464 L 88 112 L 16 112 L 16 112 L 16 464 L 16 464 L 88 464 L 88 464 Z M 424 112 L 424 464 L 424 112 L 424 464 L 496 464 L 496 464 L 496 112 L 496 112 L 424 112 L 424 112 Z M 224 176 L 288 176 L 224 176 L 296 176 L 296 184 L 296 184 L 296 248 L 296 248 L 360 248 L 368 248 L 368 256 L 368 256 L 368 320 L 368 320 L 368 328 L 368 328 L 360 328 L 296 328 L 296 392 L 296 392 L 296 400 L 296 400 L 288 400 L 216 400 L 216 392 L 216 392 L 216 328 L 216 328 L 152 328 L 144 328 L 144 320 L 144 320 L 144 256 L 144 256 L 144 248 L 144 248 L 152 248 L 216 248 L 216 184 L 216 184 L 216 176 L 216 176 L 224 176 L 224 176 Z M 232 256 L 232 264 L 232 256 L 232 264 L 224 264 L 160 264 L 160 312 L 160 312 L 224 312 L 232 312 L 232 320 L 232 320 L 232 384 L 232 384 L 280 384 L 280 384 L 280 320 L 280 320 L 280 312 L 280 312 L 288 312 L 352 312 L 352 264 L 352 264 L 288 264 L 280 264 L 280 256 L 280 256 L 280 192 L 280 192 L 232 192 L 232 192 L 232 256 L 232 256 Z" />
</svg>