<svg xmlns="http://www.w3.org/2000/svg" viewBox="0 0 512 512">
  <path d="M 160 416 L 144 416 L 160 416 L 0 416 L 0 400 L 0 400 L 0 16 L 0 16 L 0 0 L 0 0 L 16 0 L 512 0 L 512 16 L 512 16 L 512 400 L 512 400 L 512 416 L 512 416 L 496 416 L 304 416 L 176 501 L 176 501 L 160 512 L 160 512 L 160 493 L 160 493 L 160 432 L 160 432 L 160 416 L 160 416 Z M 160 400 L 176 400 L 160 400 L 176 400 L 176 416 L 176 416 L 176 482 L 176 482 L 295 403 L 295 403 L 299 400 L 299 400 L 304 400 L 496 400 L 496 16 L 496 16 L 16 16 L 16 16 L 16 400 L 16 400 L 160 400 L 160 400 Z M 224 128 L 144 128 L 224 128 L 144 128 L 144 208 L 144 208 L 224 208 L 224 208 L 224 176 L 224 176 L 224 168 L 224 168 L 224 128 L 224 128 Z M 144 224 L 128 224 L 144 224 L 128 224 L 128 208 L 128 208 L 128 128 L 128 128 L 128 112 L 128 112 L 144 112 L 240 112 L 240 128 L 240 128 L 240 168 L 240 168 L 240 176 L 240 176 L 240 208 L 240 208 L 240 224 L 240 224 L 240 272 L 240 272 L 240 278 L 240 278 L 235 279 L 235 279 L 171 303 L 171 303 L 163 306 L 163 306 L 158 291 L 158 291 L 165 288 L 165 288 L 224 267 L 224 267 L 224 224 L 224 224 L 144 224 L 144 224 Z M 368 128 L 288 128 L 368 128 L 288 128 L 288 208 L 288 208 L 368 208 L 368 208 L 368 176 L 368 176 L 368 168 L 368 168 L 368 128 L 368 128 Z M 288 224 L 272 224 L 288 224 L 272 224 L 272 208 L 272 208 L 272 128 L 272 128 L 272 112 L 272 112 L 288 112 L 384 112 L 384 128 L 384 128 L 384 168 L 384 168 L 384 176 L 384 176 L 384 208 L 384 208 L 384 224 L 384 224 L 384 272 L 384 272 L 384 278 L 384 278 L 379 279 L 379 279 L 315 303 L 315 303 L 307 306 L 307 306 L 302 291 L 302 291 L 309 288 L 309 288 L 368 267 L 368 267 L 368 224 L 368 224 L 288 224 L 288 224 Z" />
</svg>