<svg xmlns="http://www.w3.org/2000/svg" viewBox="0 0 448 512">
  <path d="M 232 0 L 232 8 L 232 0 L 232 8 L 232 56 L 232 56 L 288 56 L 296 56 L 296 72 L 296 72 L 288 72 L 232 72 L 232 160 L 232 160 L 440 160 L 448 160 L 448 168 L 448 168 L 448 224 L 448 224 L 448 226 L 448 226 L 447 227 L 447 227 L 381 384 L 381 384 L 364 384 L 364 384 L 432 222 L 432 222 L 432 176 L 432 176 L 232 176 L 16 176 L 16 222 L 16 222 L 84 384 L 84 384 L 67 384 L 67 384 L 1 227 L 1 227 L 0 226 L 0 226 L 0 224 L 0 224 L 0 168 L 0 168 L 0 160 L 0 160 L 8 160 L 216 160 L 216 72 L 216 72 L 160 72 L 152 72 L 152 56 L 152 56 L 160 56 L 216 56 L 216 8 L 216 8 L 216 0 L 216 0 L 232 0 L 232 0 Z M 48 496 L 400 496 L 48 496 L 400 496 L 400 476 L 400 476 L 361 432 L 361 432 L 87 432 L 87 432 L 48 476 L 48 476 L 48 496 L 48 496 Z M 32 496 L 32 469 L 32 496 L 32 469 L 80 416 L 80 416 L 368 416 L 368 416 L 416 469 L 416 469 L 416 496 L 416 496 L 416 512 L 416 512 L 400 512 L 32 512 L 32 496 L 32 496 Z" />
</svg>