<svg xmlns="http://www.w3.org/2000/svg" viewBox="0 0 640 512">
  <path d="M 328 28 L 248 372 L 328 28 L 248 372 L 246 383 L 246 383 L 469 160 L 469 160 L 330 22 L 330 22 L 330 21 L 330 21 L 328 28 L 328 28 Z M 239 415 L 236 415 L 239 415 L 236 415 L 142 510 L 142 510 L 139 512 L 139 512 L 136 512 L 80 512 L 80 504 L 80 504 L 80 318 L 80 318 L 12 359 L 12 359 L 0 366 L 0 366 L 0 352 L 0 352 L 0 256 L 0 256 L 0 242 L 0 242 L 12 249 L 12 249 L 80 290 L 80 290 L 80 160 L 80 160 L 8 160 L 0 160 L 0 144 L 0 144 L 8 144 L 96 144 L 96 152 L 96 152 L 96 290 L 96 290 L 164 249 L 164 249 L 176 242 L 176 242 L 176 256 L 176 256 L 176 352 L 176 352 L 176 366 L 176 366 L 164 359 L 164 359 L 96 318 L 96 318 L 96 496 L 96 496 L 133 496 L 133 496 L 225 404 L 225 404 L 225 402 L 225 402 L 233 369 L 233 369 L 313 25 L 313 25 L 319 0 L 319 0 L 344 0 L 640 0 L 640 16 L 640 16 L 640 32 L 640 32 L 640 296 L 640 296 L 640 321 L 640 321 L 615 327 L 615 327 L 271 407 L 271 407 L 239 415 L 239 415 Z M 480 171 L 257 394 L 480 171 L 257 394 L 268 392 L 268 392 L 612 312 L 612 312 L 619 310 L 619 310 L 618 310 L 618 310 L 480 171 L 480 171 Z M 624 32 L 624 27 L 624 32 L 624 27 L 491 160 L 491 160 L 624 293 L 624 293 L 624 32 L 624 32 Z M 608 16 L 347 16 L 608 16 L 347 16 L 480 149 L 480 149 L 613 16 L 613 16 L 608 16 L 608 16 Z M 16 270 L 16 338 L 16 270 L 16 338 L 73 304 L 73 304 L 16 270 L 16 270 Z M 160 338 L 160 270 L 160 338 L 160 270 L 104 304 L 104 304 L 160 338 L 160 338 Z" />
</svg>