<svg xmlns="http://www.w3.org/2000/svg" viewBox="0 0 448 448">
  <path d="M 16 16 L 16 432 L 16 16 L 16 432 L 432 432 L 432 432 L 432 16 L 432 16 L 16 16 L 16 16 Z M 0 0 L 16 0 L 0 0 L 448 0 L 448 16 L 448 16 L 448 432 L 448 432 L 448 448 L 448 448 L 432 448 L 0 448 L 0 432 L 0 432 L 0 16 L 0 16 L 0 0 L 0 0 Z M 136 96 L 312 96 L 136 96 L 320 96 L 320 112 L 320 112 L 312 112 L 144 112 L 144 216 L 144 216 L 272 216 L 280 216 L 280 232 L 280 232 L 272 232 L 144 232 L 144 336 L 144 336 L 312 336 L 320 336 L 320 352 L 320 352 L 312 352 L 128 352 L 128 344 L 128 344 L 128 224 L 128 224 L 128 104 L 128 104 L 128 96 L 128 96 L 136 96 L 136 96 Z" />
</svg>