<svg xmlns="http://www.w3.org/2000/svg" viewBox="0 0 608 512">
  <path d="M 0 120 L 112 0 L 0 120 L 112 0 L 224 120 L 224 120 L 224 160 L 224 160 L 144 160 L 144 160 L 144 416 L 144 416 L 272 416 L 272 416 L 272 64 L 272 64 L 272 32 L 272 32 L 304 32 L 528 32 L 528 64 L 528 64 L 528 352 L 528 352 L 608 352 L 608 352 L 608 392 L 608 392 L 496 512 L 496 512 L 384 392 L 384 392 L 384 352 L 384 352 L 464 352 L 464 352 L 464 96 L 464 96 L 336 96 L 336 96 L 336 448 L 336 448 L 336 480 L 336 480 L 304 480 L 80 480 L 80 448 L 80 448 L 80 160 L 80 160 L 0 160 L 0 160 L 0 120 L 0 120 Z" />
</svg>