<svg xmlns="http://www.w3.org/2000/svg" viewBox="0 0 576 512">
  <path d="M 448 16 Q 400 17 369 49 L 369 49 L 369 49 Q 337 80 336 128 L 336 192 L 336 192 L 432 192 L 448 192 L 448 208 L 448 208 L 448 496 L 448 496 L 448 512 L 448 512 L 432 512 L 0 512 L 0 496 L 0 496 L 0 208 L 0 208 L 0 192 L 0 192 L 16 192 L 320 192 L 320 128 L 320 128 Q 321 74 357 37 Q 394 1 448 0 Q 502 1 539 37 Q 575 74 576 128 L 576 216 L 576 216 L 576 224 L 576 224 L 560 224 L 560 224 L 560 216 L 560 216 L 560 128 L 560 128 Q 559 80 527 49 Q 496 17 448 16 L 448 16 Z M 16 208 L 16 496 L 16 208 L 16 496 L 432 496 L 432 496 L 432 208 L 432 208 L 336 208 L 16 208 Z M 272 336 L 176 336 L 272 336 L 176 336 L 176 368 L 176 368 L 272 368 L 272 368 L 272 336 L 272 336 Z M 288 320 L 288 336 L 288 320 L 288 336 L 288 368 L 288 368 L 288 384 L 288 384 L 272 384 L 160 384 L 160 368 L 160 368 L 160 336 L 160 336 L 160 320 L 160 320 L 176 320 L 288 320 Z" />
</svg>