<svg xmlns="http://www.w3.org/2000/svg" viewBox="0 0 640 512">
  <path d="M 16 5 L 10 0 L 16 5 L 10 0 L 0 13 L 0 13 L 6 18 L 6 18 L 624 507 L 624 507 L 630 512 L 630 512 L 640 500 L 640 500 L 634 495 L 634 495 L 16 5 L 16 5 Z M 523 258 L 535 247 L 523 258 L 535 247 L 546 236 L 546 236 L 535 224 L 535 224 L 523 213 L 523 213 Q 500 190 470 181 Q 440 172 410 178 L 566 22 L 566 22 L 571 16 L 571 16 L 560 5 L 560 5 L 554 10 L 554 10 L 401 164 L 401 164 Q 405 134 396 106 Q 387 77 365 55 L 354 43 L 354 43 L 342 32 L 342 32 L 331 43 L 331 43 L 320 55 L 320 55 Q 283 94 294 144 L 318 163 L 318 163 Q 305 139 308 113 Q 311 86 331 66 L 342 55 L 342 55 L 353 66 L 353 66 Q 378 91 384 123 Q 390 155 378 186 L 365 200 L 365 200 L 377 210 L 377 210 L 385 202 L 385 202 Q 417 188 451 193 Q 485 199 512 224 L 523 236 L 523 236 L 512 247 L 512 247 Q 487 271 455 270 L 473 285 L 473 285 Q 501 280 523 258 L 523 258 Z M 197 367 Q 202 338 193 309 L 193 309 L 193 309 Q 183 281 161 258 L 150 247 L 150 247 L 139 236 L 139 236 L 127 247 L 127 247 L 116 258 L 116 258 Q 88 288 88 326 Q 88 365 116 394 L 143 421 L 143 421 L 70 495 L 70 495 L 64 501 L 64 501 L 75 512 L 75 512 L 81 506 L 81 506 L 155 433 L 155 433 L 184 462 L 184 462 Q 213 490 252 490 Q 290 490 320 462 L 331 451 L 331 451 L 342 439 L 342 439 L 331 428 L 331 428 L 320 417 L 320 417 Q 296 394 266 385 Q 236 376 206 381 L 275 312 L 275 312 L 263 302 L 263 302 L 197 367 L 197 367 Z M 430 62 L 478 14 L 430 62 L 478 14 L 466 2 L 466 2 L 418 50 L 418 50 L 413 56 L 413 56 L 424 67 L 424 67 L 430 62 L 430 62 Z M 526 158 L 574 110 L 526 158 L 574 110 L 562 98 L 562 98 L 514 146 L 514 146 L 509 152 L 509 152 L 520 163 L 520 163 L 526 158 L 526 158 Z M 150 270 Q 174 295 180 327 L 180 327 L 180 327 Q 187 359 175 390 L 155 410 L 155 410 L 127 383 L 127 383 Q 104 358 104 326 Q 104 294 127 270 L 138 258 L 138 258 L 150 270 L 150 270 Z M 166 421 L 182 406 L 166 421 L 182 406 Q 214 391 248 397 Q 282 402 308 428 L 320 439 L 320 439 L 308 451 L 308 451 Q 284 474 252 474 Q 220 474 195 451 L 166 421 L 166 421 Z" />
</svg>