<svg xmlns="http://www.w3.org/2000/svg" viewBox="0 0 640 512">
  <path d="M 128 0 Q 74 1 37 37 L 37 37 L 37 37 Q 1 74 0 128 L 0 168 L 0 168 L 0 191 L 0 191 L 22 183 L 22 183 L 72 164 L 72 164 L 82 183 L 82 183 L 86 192 L 86 192 L 96 192 L 103 192 L 97 480 L 97 480 L 96 512 L 96 512 L 128 512 L 224 512 L 223 480 L 223 480 L 217 192 L 217 192 L 240 192 L 256 192 L 256 176 L 256 176 L 256 160 L 256 160 L 320 160 L 320 160 L 320 192 L 320 192 L 352 192 L 352 192 L 352 0 L 352 0 L 320 0 L 320 0 L 320 32 L 320 32 L 256 32 L 256 32 L 256 16 L 256 16 L 256 0 L 256 0 L 240 0 L 128 0 Z M 320 64 L 320 128 L 320 64 L 320 128 L 240 128 L 224 128 L 224 144 L 224 144 L 224 160 L 224 160 L 216 160 L 106 160 L 94 137 L 94 137 L 88 124 L 88 124 L 74 129 L 74 129 L 32 145 L 32 145 L 32 128 L 32 128 Q 33 87 60 60 Q 87 33 128 32 L 224 32 L 224 32 L 224 48 L 224 48 L 224 64 L 224 64 L 240 64 L 320 64 Z M 185 192 L 191 480 L 185 192 L 191 480 L 129 480 L 129 480 L 135 192 L 135 192 L 185 192 L 185 192 Z M 560 205 L 560 32 L 560 205 L 560 32 L 560 0 L 560 0 L 528 0 L 432 0 L 432 32 L 432 32 L 432 205 L 432 205 L 352 272 L 352 272 L 352 480 L 352 480 L 352 512 L 352 512 L 384 512 L 640 512 L 640 480 L 640 480 L 640 272 L 640 272 L 560 205 L 560 205 Z M 528 32 L 528 205 L 528 32 L 528 205 L 528 220 L 528 220 L 540 230 L 540 230 L 608 287 L 608 287 L 608 288 L 608 288 L 384 288 L 384 288 L 384 287 L 384 287 L 453 230 L 453 230 L 464 220 L 464 220 L 464 205 L 464 205 L 464 32 L 464 32 L 528 32 L 528 32 Z M 384 320 L 608 320 L 384 320 L 608 320 L 608 480 L 608 480 L 480 480 L 480 480 L 480 416 L 480 416 L 480 400 L 480 400 L 448 400 L 448 400 L 448 416 L 448 416 L 448 480 L 448 480 L 384 480 L 384 480 L 384 320 L 384 320 Z M 512 80 Q 511 65 496 64 Q 481 65 480 80 Q 481 95 496 96 Q 511 95 512 80 L 512 80 Z" />
</svg>