<svg xmlns="http://www.w3.org/2000/svg" viewBox="0 0 512 512">
  <path d="M 160 416 L 144 416 L 160 416 L 0 416 L 0 400 L 0 400 L 0 16 L 0 16 L 0 0 L 0 0 L 16 0 L 512 0 L 512 16 L 512 16 L 512 400 L 512 400 L 512 416 L 512 416 L 496 416 L 304 416 L 176 501 L 176 501 L 160 512 L 160 512 L 160 493 L 160 493 L 160 432 L 160 432 L 160 416 L 160 416 Z M 160 400 L 176 400 L 160 400 L 176 400 L 176 416 L 176 416 L 176 482 L 176 482 L 295 403 L 295 403 L 299 400 L 299 400 L 304 400 L 496 400 L 496 16 L 496 16 L 16 16 L 16 16 L 16 400 L 16 400 L 160 400 L 160 400 Z M 72 240 L 312 240 L 72 240 L 320 240 L 320 256 L 320 256 L 312 256 L 64 256 L 64 240 L 64 240 L 72 240 L 72 240 Z M 376 240 L 440 240 L 376 240 L 448 240 L 448 256 L 448 256 L 440 256 L 368 256 L 368 240 L 368 240 L 376 240 L 376 240 Z M 72 304 L 168 304 L 72 304 L 176 304 L 176 320 L 176 320 L 168 320 L 64 320 L 64 304 L 64 304 L 72 304 L 72 304 Z M 232 304 L 440 304 L 232 304 L 448 304 L 448 320 L 448 320 L 440 320 L 224 320 L 224 304 L 224 304 L 232 304 L 232 304 Z" />
</svg>