<svg xmlns="http://www.w3.org/2000/svg" viewBox="0 0 524 516">
  <path d="M 284 100 Q 275 60 258 35 Q 248 19 240 10 Q 236 6 234 3 Q 233 3 233 3 Q 233 2 232 2 Q 232 1 231 1 L 231 0 L 231 0 L 230 0 L 230 0 L 230 0 L 230 0 Q 230 0 230 0 Q 230 0 230 0 Q 230 0 230 0 Q 230 0 230 0 L 214 17 L 214 17 Q 202 30 200 33 Q 197 35 198 35 Q 198 35 198 35 Q 198 35 198 35 Q 198 35 198 35 Q 198 35 198 35 Q 198 35 198 35 Q 198 35 198 35 L 198 35 L 198 35 Q 198 35 199 36 Q 200 38 203 41 Q 210 48 218 60 Q 228 76 234 98 Q 210 90 183 97 Q 183 97 183 97 Q 183 97 183 97 Q 183 97 183 97 Q 183 97 183 97 Q 167 101 154 109 Q 120 88 79 97 Q 39 108 20 141 Q 0 173 9 213 L 65 437 L 65 437 Q 76 477 109 496 Q 142 516 181 507 Q 197 503 210 495 Q 219 500 228 504 Q 244 510 262 510 Q 262 510 262 510 Q 262 510 262 510 L 262 486 L 262 486 L 262 510 L 262 510 Q 262 510 262 510 Q 262 510 262 510 Q 280 510 296 504 Q 305 500 314 495 Q 327 503 343 507 Q 383 516 415 496 Q 448 477 459 437 L 515 213 L 515 213 Q 524 174 504 141 Q 485 108 445 97 Q 404 88 370 109 Q 357 101 341 97 Q 311 90 284 100 L 284 100 Z M 90 143 Q 106 140 121 146 Q 105 177 113 213 L 147 348 L 147 348 L 152 371 L 152 371 L 199 359 L 199 359 L 193 336 L 193 336 L 159 202 L 159 202 Q 155 182 164 166 Q 173 150 192 144 Q 193 144 193 144 Q 194 144 194 143 Q 224 137 243 160 L 262 183 L 262 183 L 281 160 L 281 160 Q 300 137 330 143 Q 344 147 353 157 L 370 175 L 370 175 L 387 157 L 387 157 Q 406 138 434 143 Q 453 149 463 165 Q 473 182 468 202 L 412 426 L 412 426 Q 407 445 391 455 Q 374 465 354 460 Q 340 457 331 447 L 314 429 L 314 429 L 297 447 L 297 447 Q 296 447 296 448 Q 296 448 296 448 Q 296 448 296 448 Q 296 448 296 448 Q 289 455 279 459 Q 279 459 279 459 Q 279 459 279 459 Q 271 462 262 462 Q 262 462 262 462 Q 253 462 245 459 Q 245 459 245 459 Q 245 459 245 459 Q 235 455 228 448 Q 228 448 228 448 Q 228 448 228 448 Q 228 448 228 447 L 210 429 L 210 429 L 193 447 L 193 447 Q 184 457 170 461 Q 150 465 133 455 Q 117 445 112 426 L 56 202 L 56 202 Q 51 182 61 165 Q 71 149 90 143 L 90 143 Z" />
</svg>