<svg xmlns="http://www.w3.org/2000/svg" viewBox="0 0 448 512">
  <path d="M 112 144 L 336 144 L 112 144 L 336 144 L 336 67 L 336 67 L 224 18 L 224 18 L 112 67 L 112 67 L 112 144 L 112 144 Z M 96 144 L 96 56 L 96 144 L 96 56 L 224 0 L 224 0 L 352 56 L 352 56 L 352 144 L 352 144 L 352 160 L 352 160 Q 352 160 352 160 Q 352 160 352 160 L 352 176 L 352 176 Q 351 230 315 267 Q 278 303 224 304 Q 170 303 133 267 Q 97 230 96 176 L 96 160 L 96 160 Q 96 160 96 160 Q 96 160 96 160 L 96 144 L 96 144 Z M 112 160 Q 112 160 112 160 L 112 160 L 112 160 Q 112 160 112 160 L 112 176 L 112 176 Q 112 184 113 192 L 211 192 L 211 192 L 227 160 L 227 160 L 112 160 L 112 160 Z M 245 160 L 223 204 L 245 160 L 223 204 L 221 208 L 221 208 L 216 208 L 117 208 Q 128 243 156 265 Q 185 287 224 288 Q 272 287 303 255 Q 335 224 336 176 L 336 160 L 336 160 Q 336 160 336 160 Q 336 160 336 160 L 245 160 L 245 160 Z M 224 447 L 212 435 L 224 447 L 212 435 L 119 336 L 119 336 L 76 336 L 76 336 L 22 496 L 22 496 L 426 496 L 426 496 L 373 336 L 373 336 L 329 336 L 329 336 L 236 435 L 236 435 L 224 447 L 224 447 Z M 322 320 L 384 320 L 322 320 L 384 320 L 443 496 L 443 496 L 448 512 L 448 512 L 431 512 L 0 512 L 5 496 L 5 496 L 64 320 L 64 320 L 126 320 L 126 320 L 213 412 L 213 412 L 224 424 L 224 424 L 235 412 L 235 412 L 322 320 L 322 320 Z M 232 48 L 232 72 L 232 48 L 232 72 L 256 72 L 264 72 L 264 88 L 264 88 L 256 88 L 232 88 L 232 112 L 232 112 L 232 120 L 232 120 L 216 120 L 216 120 L 216 112 L 216 112 L 216 88 L 216 88 L 192 88 L 184 88 L 184 72 L 184 72 L 192 72 L 216 72 L 216 48 L 216 48 L 216 40 L 216 40 L 232 40 L 232 40 L 232 48 L 232 48 Z" />
</svg>