<svg xmlns="http://www.w3.org/2000/svg" viewBox="0 0 640 512">
  <path d="M 432 32 Q 412 33 398 46 L 398 46 L 398 46 Q 385 60 384 80 L 384 96 L 384 96 L 384 104 L 384 104 L 378 109 L 378 109 L 314 157 L 314 157 L 309 160 L 309 160 L 304 160 L 272 160 Q 224 161 193 193 Q 161 224 160 272 L 160 288 L 160 288 L 160 304 L 160 304 L 144 304 L 84 304 L 81 292 L 81 292 L 56 205 L 56 205 L 51 213 L 51 213 Q 32 244 32 281 Q 33 331 67 365 Q 101 399 151 400 L 192 400 L 192 400 L 192 368 L 192 368 L 192 352 L 192 352 L 224 352 L 224 352 L 224 368 L 224 368 L 224 409 L 224 409 L 295 480 L 295 480 L 384 480 L 384 480 L 384 472 L 384 472 Q 382 450 360 448 L 352 448 L 341 448 L 337 437 L 337 437 L 321 389 L 321 389 L 319 382 L 319 382 L 322 376 L 322 376 L 352 324 L 352 324 L 352 312 L 352 312 Q 351 288 336 272 Q 320 257 296 256 L 272 256 L 272 256 L 272 224 L 272 224 L 296 224 L 296 224 Q 333 225 358 250 Q 383 275 384 312 L 384 328 L 384 328 L 384 332 L 384 332 L 382 336 L 382 336 L 353 386 L 353 386 L 364 416 L 364 416 Q 386 418 401 434 Q 415 449 416 472 L 416 496 L 416 496 L 416 512 L 416 512 L 400 512 L 281 512 L 277 507 L 277 507 L 201 432 L 201 432 L 151 432 L 151 432 Q 87 430 44 388 Q 2 345 0 281 Q 0 236 23 197 L 41 168 L 41 168 L 45 160 L 45 160 L 55 160 L 76 160 L 80 172 L 80 172 L 108 272 L 108 272 L 128 272 L 128 272 Q 130 211 170 170 Q 211 130 272 128 L 299 128 L 299 128 L 352 88 L 352 88 L 352 80 L 352 80 Q 353 46 375 23 Q 398 1 432 0 L 435 0 L 538 0 L 543 10 L 543 10 L 553 32 L 553 32 L 560 32 L 560 32 Q 594 33 617 55 Q 639 78 640 112 L 640 176 L 640 176 L 640 192 L 640 192 L 624 192 L 599 192 L 571 219 L 571 219 L 567 224 L 567 224 L 560 224 L 471 224 L 429 266 L 429 266 L 472 290 L 472 290 L 480 295 L 480 295 L 480 304 L 480 304 L 480 336 L 480 336 L 480 352 L 480 352 L 448 352 L 448 352 L 448 336 L 448 336 L 448 313 L 448 313 L 415 294 L 415 294 Q 411 270 399 250 L 453 197 L 453 197 L 457 192 L 457 192 L 464 192 L 537 192 L 533 187 L 533 187 L 505 160 L 505 160 L 480 160 L 464 160 L 464 128 L 464 128 L 480 128 L 519 128 L 523 133 L 523 133 L 551 160 L 551 160 L 585 160 L 608 160 L 608 112 L 608 112 Q 607 92 594 78 Q 580 65 560 64 L 542 64 L 532 64 L 527 55 L 527 55 L 518 32 L 518 32 L 435 32 L 432 32 Z M 480 80 Q 481 65 496 64 Q 511 65 512 80 Q 511 95 496 96 Q 481 95 480 80 L 480 80 Z" />
</svg>