<svg xmlns="http://www.w3.org/2000/svg" viewBox="0 0 512 512">
  <path d="M 363 0 L 376 0 L 363 0 L 485 0 L 479 12 L 479 12 L 463 44 L 463 44 L 460 51 L 460 51 L 445 44 L 445 44 L 449 36 L 449 36 L 459 16 L 459 16 L 389 16 L 389 16 L 399 36 L 399 36 L 403 44 L 403 44 L 389 51 L 389 51 L 385 44 L 385 44 L 369 12 L 369 12 L 363 0 L 363 0 Z M 16 392 L 16 400 L 16 392 L 16 400 L 16 459 L 16 459 L 36 449 L 36 449 L 44 445 L 44 445 L 51 460 L 51 460 L 44 463 L 44 463 L 12 479 L 12 479 L 0 485 L 0 485 L 0 472 L 0 472 L 0 464 L 0 464 L 0 400 L 0 400 L 0 392 L 0 392 L 0 376 L 0 376 L 0 363 L 0 363 L 12 369 L 12 369 L 44 385 L 44 385 L 51 389 L 51 389 L 44 403 L 44 403 L 36 399 L 36 399 L 16 389 L 16 389 L 16 392 L 16 392 Z M 424 80 Q 393 81 373 101 L 373 101 L 373 101 Q 353 121 352 152 Q 352 189 336 225 Q 320 260 290 290 Q 260 320 225 336 Q 189 352 152 352 Q 121 353 101 373 Q 81 393 80 424 Q 81 455 101 475 Q 121 495 152 496 Q 222 495 284 467 Q 345 439 392 392 Q 439 345 467 284 Q 495 222 496 152 Q 495 121 475 101 Q 455 81 424 80 L 424 80 Z M 424 64 Q 461 65 486 90 L 486 90 L 486 90 Q 511 115 512 152 Q 511 226 482 290 Q 452 355 403 403 Q 355 452 290 482 Q 226 511 152 512 Q 115 511 90 486 Q 65 461 64 424 Q 65 387 90 362 Q 115 337 152 336 Q 185 336 218 321 Q 251 306 279 279 Q 306 251 321 218 Q 336 185 336 152 Q 337 115 362 90 Q 387 65 424 64 L 424 64 Z M 400 168 Q 399 233 368 285 L 368 285 L 368 285 Q 337 337 285 368 L 285 368 L 285 368 Q 233 399 168 400 L 160 400 L 160 400 L 160 384 L 160 384 L 168 384 L 168 384 Q 260 382 321 321 Q 382 260 384 168 L 384 160 L 384 160 L 400 160 L 400 160 L 400 168 L 400 168 Z" />
</svg>