<svg xmlns="http://www.w3.org/2000/svg" viewBox="0 0 512 512">
  <path d="M 256 16 Q 226 16 202 30 L 202 30 L 202 30 Q 177 44 162 67 L 157 75 L 157 75 L 150 69 L 150 69 Q 128 49 96 48 Q 62 49 39 71 Q 17 94 16 128 Q 16 139 19 150 L 19 150 L 19 150 L 19 150 L 19 150 Q 25 174 35 206 Q 46 238 58 269 Q 70 300 79 320 Q 79 320 79 320 Q 81 326 83 330 Q 84 333 85 335 L 85 336 L 85 336 L 150 336 L 150 336 L 120 169 L 120 169 L 119 162 L 119 162 L 134 159 L 134 159 L 136 167 L 136 167 L 167 336 L 167 336 L 248 336 L 248 336 L 248 136 L 248 136 L 248 128 L 248 128 L 264 128 L 264 128 L 264 136 L 264 136 L 264 336 L 264 336 L 345 336 L 345 336 L 376 167 L 376 167 L 377 159 L 377 159 L 393 162 L 393 162 L 392 170 L 392 170 L 362 336 L 362 336 L 427 336 L 427 336 L 427 335 L 427 335 Q 428 333 429 330 Q 431 326 433 320 Q 442 300 454 269 Q 466 238 477 206 Q 487 174 493 150 L 493 150 L 493 150 L 493 150 L 493 150 Q 496 139 496 128 Q 495 94 473 72 Q 450 49 416 48 Q 384 49 362 69 L 355 75 L 355 75 L 350 67 L 350 67 Q 335 44 310 30 Q 286 16 256 16 L 256 16 Z M 432 344 L 439 347 L 432 344 L 439 347 L 437 352 L 437 352 L 432 352 L 75 352 L 73 347 L 73 347 L 80 344 L 80 344 L 73 347 L 73 347 Q 73 347 73 347 Q 73 347 73 347 Q 73 347 73 347 L 73 347 L 73 347 L 72 346 L 72 346 L 70 341 L 70 341 Q 68 337 65 330 Q 65 328 64 326 Q 55 306 43 275 Q 31 244 20 212 Q 9 179 4 154 Q 0 141 0 128 Q 1 87 28 60 Q 55 33 96 32 Q 129 33 154 51 Q 191 2 256 0 Q 321 2 358 51 Q 383 33 416 32 Q 457 33 484 60 Q 511 87 512 128 Q 512 141 509 154 Q 503 179 492 212 Q 480 244 469 275 Q 457 306 448 326 Q 447 328 447 330 Q 444 337 442 342 L 440 346 L 440 346 L 440 347 L 440 347 L 439 347 L 439 347 Q 439 347 439 347 Q 439 347 439 347 Q 439 347 439 347 Q 439 347 439 347 Q 439 347 439 347 Q 439 347 439 347 L 432 344 L 432 344 Z M 64 384 L 80 384 L 64 384 L 80 384 L 80 496 L 80 496 L 432 496 L 432 496 L 432 384 L 432 384 L 448 384 L 448 384 L 448 496 L 448 496 L 448 512 L 448 512 L 432 512 L 64 512 L 64 496 L 64 496 L 64 384 L 64 384 Z" />
</svg>