<svg xmlns="http://www.w3.org/2000/svg" viewBox="0 0 576 512">
  <path d="M 16 16 L 368 16 L 16 16 L 368 16 L 368 256 L 368 256 Q 368 226 384 203 L 384 16 L 384 16 L 384 0 L 384 0 L 368 0 L 0 0 L 0 16 L 0 16 L 0 496 L 0 496 L 0 512 L 0 512 L 16 512 L 320 512 L 320 496 L 320 496 L 240 496 L 240 496 L 240 384 L 240 384 L 240 368 L 240 368 L 224 368 L 144 368 L 144 384 L 144 384 L 144 496 L 144 496 L 16 496 L 16 496 L 16 16 L 16 16 Z M 160 496 L 160 384 L 160 496 L 160 384 L 224 384 L 224 384 L 224 496 L 224 496 L 160 496 L 160 496 Z M 80 232 L 72 232 L 80 232 L 72 232 L 72 240 L 72 240 L 72 304 L 72 304 L 72 312 L 72 312 L 80 312 L 152 312 L 152 304 L 152 304 L 152 240 L 152 240 L 152 232 L 152 232 L 144 232 L 80 232 Z M 88 296 L 88 248 L 88 296 L 88 248 L 136 248 L 136 248 L 136 296 L 136 296 L 88 296 L 88 296 Z M 232 232 L 232 240 L 232 232 L 232 240 L 232 304 L 232 304 L 232 312 L 232 312 L 240 312 L 312 312 L 312 304 L 312 304 L 312 240 L 312 240 L 312 232 L 312 232 L 304 232 L 232 232 Z M 248 248 L 296 248 L 248 248 L 296 248 L 296 296 L 296 296 L 248 296 L 248 296 L 248 248 L 248 248 Z M 80 104 L 72 104 L 80 104 L 72 104 L 72 112 L 72 112 L 72 176 L 72 176 L 72 184 L 72 184 L 80 184 L 152 184 L 152 176 L 152 176 L 152 112 L 152 112 L 152 104 L 152 104 L 144 104 L 80 104 Z M 88 168 L 88 120 L 88 168 L 88 120 L 136 120 L 136 120 L 136 168 L 136 168 L 88 168 L 88 168 Z M 232 104 L 232 112 L 232 104 L 232 112 L 232 176 L 232 176 L 232 184 L 232 184 L 240 184 L 312 184 L 312 176 L 312 176 L 312 112 L 312 112 L 312 104 L 312 104 L 304 104 L 232 104 Z M 248 120 L 296 120 L 248 120 L 296 120 L 296 168 L 296 168 L 248 168 L 248 168 L 248 120 L 248 120 Z M 464 208 Q 484 209 498 222 L 498 222 L 498 222 Q 511 236 512 256 L 512 320 L 512 320 L 416 320 L 416 320 L 416 256 L 416 256 Q 417 236 430 222 Q 444 209 464 208 L 464 208 Z M 400 256 L 400 320 L 400 256 L 400 320 L 368 320 L 352 320 L 352 336 L 352 336 L 352 496 L 352 496 L 352 512 L 352 512 L 368 512 L 576 512 L 576 496 L 576 496 L 576 336 L 576 336 L 576 320 L 576 320 L 560 320 L 528 320 L 528 256 L 528 256 Q 527 229 509 211 Q 491 193 464 192 Q 437 193 419 211 Q 401 229 400 256 L 400 256 Z M 368 496 L 368 336 L 368 496 L 368 336 L 400 336 L 560 336 L 560 496 L 560 496 L 368 496 L 368 496 Z" />
</svg>