<svg xmlns="http://www.w3.org/2000/svg" viewBox="0 0 640 512">
  <path d="M 0 0 L 0 48 L 0 0 L 0 48 L 32 48 L 32 48 L 32 96 L 32 96 L 0 96 L 0 96 L 0 224 L 0 224 L 384 224 L 384 224 L 384 96 L 384 96 L 384 80 L 384 80 L 384 48 L 384 48 L 640 48 L 640 48 L 640 0 L 640 0 L 0 0 L 0 0 Z M 0 256 L 0 416 L 0 256 L 0 416 L 64 416 L 64 416 Q 65 457 92 484 Q 119 511 160 512 Q 201 511 228 484 Q 255 457 256 416 L 384 416 L 384 416 Q 385 457 412 484 Q 439 511 480 512 Q 521 511 548 484 Q 575 457 576 416 L 640 416 L 640 416 L 640 256 L 640 256 L 640 128 L 640 128 L 640 96 L 640 96 L 608 96 L 560 96 Q 560 82 551 73 Q 542 64 528 64 Q 514 64 505 73 Q 496 82 496 96 L 448 96 L 416 96 L 416 240 L 416 240 L 416 256 L 416 256 L 400 256 L 0 256 Z M 280 48 L 336 48 L 280 48 L 336 48 L 336 96 L 336 96 L 280 96 L 280 96 L 280 48 L 280 48 Z M 232 96 L 184 96 L 232 96 L 184 96 L 184 48 L 184 48 L 232 48 L 232 48 L 232 96 L 232 96 Z M 80 48 L 136 48 L 80 48 L 136 48 L 136 96 L 136 96 L 80 96 L 80 96 L 80 48 L 80 48 Z M 576 160 L 576 256 L 576 160 L 576 256 L 480 256 L 480 256 L 480 160 L 480 160 L 576 160 L 576 160 Z M 160 368 Q 187 369 202 392 Q 214 416 202 440 Q 187 463 160 464 Q 133 463 118 440 Q 106 416 118 392 Q 133 369 160 368 L 160 368 Z M 432 416 Q 433 389 456 374 Q 480 362 504 374 Q 527 389 528 416 Q 527 443 504 458 Q 480 470 456 458 Q 433 443 432 416 L 432 416 Z" />
</svg>