<svg xmlns="http://www.w3.org/2000/svg" viewBox="0 0 576 448">
  <path d="M 560 16 L 560 197 L 560 16 L 560 197 L 470 106 L 470 106 L 464 101 L 464 101 L 458 106 L 458 106 L 304 261 L 304 261 L 214 170 L 214 170 L 208 165 L 208 165 L 202 170 L 202 170 L 112 261 L 112 261 L 112 16 L 112 16 L 560 16 L 560 16 Z M 112 336 L 112 283 L 112 336 L 112 283 L 208 187 L 208 187 L 293 272 L 293 272 L 229 336 L 229 336 Q 229 336 229 336 Q 229 336 229 336 L 112 336 L 112 336 Z M 560 336 L 251 336 L 560 336 L 251 336 L 310 278 L 310 278 L 464 123 L 464 123 L 560 219 L 560 219 L 560 336 L 560 336 Z M 112 0 L 96 0 L 112 0 L 96 0 L 96 16 L 96 16 L 96 336 L 96 336 L 96 352 L 96 352 L 112 352 L 576 352 L 576 336 L 576 336 L 576 16 L 576 16 L 576 0 L 576 0 L 560 0 L 112 0 Z M 248 96 Q 246 118 224 120 Q 202 118 200 96 Q 202 74 224 72 Q 246 74 248 96 L 248 96 Z M 224 56 Q 201 57 189 76 Q 179 96 189 116 Q 201 135 224 136 Q 247 135 259 116 Q 269 96 259 76 Q 247 57 224 56 L 224 56 Z M 16 96 L 0 96 L 16 96 L 0 96 L 0 112 L 0 112 L 0 432 L 0 432 L 0 448 L 0 448 L 16 448 L 480 448 L 480 432 L 480 432 L 480 384 L 480 384 L 464 384 L 464 384 L 464 432 L 464 432 L 16 432 L 16 432 L 16 112 L 16 112 L 64 112 L 64 112 L 64 96 L 64 96 L 16 96 L 16 96 Z" />
</svg>