<svg xmlns="http://www.w3.org/2000/svg" viewBox="0 0 534 512">
  <path d="M 459 400 Q 426 444 376 470 L 376 470 L 376 470 Q 326 495 267 496 Q 208 495 158 470 Q 108 444 75 400 L 123 400 L 123 400 L 155 448 L 155 448 L 379 448 L 379 448 L 411 400 L 411 400 L 459 400 L 459 400 Z M 470 384 L 467 384 L 470 384 L 411 384 L 411 293 L 411 293 L 507 242 L 507 242 Q 507 249 507 256 Q 506 328 470 384 L 470 384 Z M 505 225 L 411 275 L 505 225 L 411 275 L 411 272 L 411 272 L 411 256 L 411 256 L 395 256 L 123 256 L 123 272 L 123 272 L 123 275 L 123 275 L 29 225 L 29 225 Q 43 134 108 76 Q 174 18 267 16 Q 360 18 426 76 Q 491 134 505 225 L 505 225 Z M 520 217 Q 504 123 434 62 L 434 62 L 434 62 Q 365 2 267 0 Q 169 2 100 62 Q 30 123 14 217 L 8 213 L 8 213 L 0 227 L 0 227 L 7 231 L 7 231 L 12 234 L 12 234 Q 11 245 11 256 Q 12 327 46 385 Q 80 443 138 477 Q 195 511 267 512 Q 339 511 396 477 Q 454 443 488 385 Q 522 327 523 256 Q 523 245 522 234 L 527 231 L 527 231 L 534 227 L 534 227 L 526 213 L 526 213 L 520 217 L 520 217 Z M 27 242 L 123 293 L 27 242 L 123 293 L 123 384 L 123 384 L 67 384 L 64 384 Q 28 328 27 256 Q 27 249 27 242 L 27 242 Z M 395 272 L 395 395 L 395 272 L 395 395 L 370 432 L 370 432 L 164 432 L 164 432 L 139 395 L 139 395 L 139 272 L 139 272 L 395 272 L 395 272 Z M 163 312 L 163 328 L 163 312 L 163 328 L 171 328 L 371 328 L 371 312 L 371 312 L 363 312 L 163 312 Z M 163 376 L 163 392 L 163 376 L 163 392 L 171 392 L 371 392 L 371 376 L 371 376 L 363 376 L 163 376 Z M 219 168 L 227 168 L 219 168 L 227 168 L 227 152 L 227 152 L 219 152 L 219 152 Q 179 153 153 165 Q 127 176 117 186 L 112 192 L 112 192 L 123 203 L 123 203 L 129 198 L 129 198 Q 136 190 159 179 Q 182 169 219 168 L 219 168 Z M 405 198 L 411 203 L 405 198 L 411 203 L 422 192 L 422 192 L 417 186 L 417 186 Q 407 176 381 165 Q 355 153 315 152 L 307 152 L 307 152 L 307 168 L 307 168 L 315 168 L 315 168 Q 352 169 375 179 Q 398 190 405 198 L 405 198 Z" />
</svg>