<svg xmlns="http://www.w3.org/2000/svg" viewBox="0 0 512 512">
  <path d="M 461 125 L 449 136 L 461 125 L 449 136 L 461 147 L 461 147 L 467 154 L 467 154 L 426 171 L 426 171 L 439 183 L 439 183 L 480 166 L 480 166 L 496 160 L 496 160 L 484 148 L 484 148 L 483 147 L 483 147 L 472 136 L 472 136 L 483 125 L 483 125 L 499 109 L 499 109 L 512 96 L 512 96 L 495 90 L 495 90 L 482 86 L 482 86 L 493 33 L 493 33 L 496 16 L 496 16 L 479 19 L 479 19 L 426 30 L 426 30 L 422 17 L 422 17 L 416 0 L 416 0 L 403 13 L 403 13 L 387 29 L 387 29 L 376 40 L 376 40 L 365 29 L 365 29 L 364 28 L 364 28 L 352 16 L 352 16 L 346 32 L 346 32 L 329 73 L 329 73 L 341 86 L 341 86 L 358 45 L 358 45 L 365 51 L 365 51 L 376 63 L 376 63 L 387 51 L 387 51 L 409 30 L 409 30 L 411 35 L 411 35 L 415 48 L 415 48 L 429 46 L 429 46 L 476 36 L 476 36 L 466 83 L 466 83 L 464 97 L 464 97 L 477 101 L 477 101 L 482 103 L 482 103 L 461 125 L 461 125 Z M 135 496 L 16 377 L 135 496 L 16 377 L 16 263 L 16 263 L 199 80 L 199 80 L 313 80 L 313 80 L 432 199 L 432 199 L 432 313 L 432 313 L 249 496 L 249 496 L 135 496 L 135 496 Z M 0 384 L 128 512 L 0 384 L 128 512 L 256 512 L 256 512 L 448 320 L 448 320 L 448 192 L 448 192 L 320 64 L 320 64 L 192 64 L 192 64 L 0 256 L 0 256 L 0 384 L 0 384 Z M 166 218 L 160 213 L 166 218 L 160 213 L 149 224 L 149 224 L 154 230 L 154 230 L 186 262 L 186 262 L 192 267 L 192 267 L 198 262 L 198 262 L 230 230 L 230 230 L 235 224 L 235 224 L 224 213 L 224 213 L 218 218 L 218 218 L 192 245 L 192 245 L 166 218 L 166 218 Z M 102 314 L 96 309 L 102 314 L 96 309 L 85 320 L 85 320 L 90 326 L 90 326 L 122 358 L 122 358 L 128 363 L 128 363 L 134 358 L 134 358 L 166 326 L 166 326 L 171 320 L 171 320 L 160 309 L 160 309 L 154 314 L 154 314 L 128 341 L 128 341 L 102 314 L 102 314 Z M 230 314 L 224 309 L 230 314 L 224 309 L 213 320 L 213 320 L 218 326 L 218 326 L 250 358 L 250 358 L 256 363 L 256 363 L 262 358 L 262 358 L 294 326 L 294 326 L 300 320 L 300 320 L 288 309 L 288 309 L 282 314 L 282 314 L 256 341 L 256 341 L 230 314 L 230 314 Z M 166 410 L 160 405 L 166 410 L 160 405 L 149 416 L 149 416 L 154 422 L 154 422 L 186 454 L 186 454 L 192 459 L 192 459 L 198 454 L 198 454 L 230 422 L 230 422 L 235 416 L 235 416 L 224 405 L 224 405 L 218 410 L 218 410 L 192 437 L 192 437 L 166 410 L 166 410 Z" />
</svg>