<svg xmlns="http://www.w3.org/2000/svg" viewBox="0 0 448 448">
  <path d="M 16 16 L 16 432 L 16 16 L 16 432 L 432 432 L 432 432 L 432 16 L 432 16 L 16 16 L 16 16 Z M 0 0 L 16 0 L 0 0 L 448 0 L 448 16 L 448 16 L 448 432 L 448 432 L 448 448 L 448 448 L 432 448 L 0 448 L 0 432 L 0 432 L 0 16 L 0 16 L 0 0 L 0 0 Z M 144 128 Q 143 113 128 112 Q 113 113 112 128 Q 113 143 128 144 Q 143 143 144 128 L 144 128 Z M 96 128 Q 96 114 105 105 L 105 105 L 105 105 Q 114 96 128 96 Q 142 96 151 105 Q 160 114 160 128 Q 160 142 151 151 Q 142 160 128 160 Q 114 160 105 151 Q 96 142 96 128 L 96 128 Z M 224 240 Q 239 239 240 224 Q 239 209 224 208 Q 209 209 208 224 Q 209 239 224 240 L 224 240 Z M 224 192 Q 238 192 247 201 L 247 201 L 247 201 Q 256 210 256 224 Q 256 238 247 247 Q 238 256 224 256 Q 210 256 201 247 Q 192 238 192 224 Q 192 210 201 201 Q 210 192 224 192 L 224 192 Z M 336 320 Q 335 305 320 304 Q 305 305 304 320 Q 305 335 320 336 Q 335 335 336 320 L 336 320 Z M 288 320 Q 288 306 297 297 L 297 297 L 297 297 Q 306 288 320 288 Q 334 288 343 297 Q 352 306 352 320 Q 352 334 343 343 Q 334 352 320 352 Q 306 352 297 343 Q 288 334 288 320 L 288 320 Z" />
</svg>