<svg xmlns="http://www.w3.org/2000/svg" viewBox="0 0 574 390">
  <path d="M 105 5 L 99 0 L 105 5 L 99 0 L 93 5 L 93 5 L 5 93 L 5 93 L 0 99 L 0 99 L 11 110 L 11 110 L 17 105 L 17 105 L 91 30 L 91 30 L 91 347 L 91 347 L 91 355 L 91 355 L 99 355 L 323 355 L 323 339 L 323 339 L 315 339 L 107 339 L 107 30 L 107 30 L 181 105 L 181 105 L 187 110 L 187 110 L 198 99 L 198 99 L 193 93 L 193 93 L 105 5 L 105 5 Z M 469 385 L 475 390 L 469 385 L 475 390 L 481 385 L 481 385 L 569 297 L 569 297 L 574 291 L 574 291 L 563 280 L 563 280 L 557 285 L 557 285 L 483 360 L 483 360 L 483 43 L 483 43 L 483 35 L 483 35 L 475 35 L 251 35 L 251 51 L 251 51 L 259 51 L 467 51 L 467 360 L 467 360 L 393 285 L 393 285 L 387 280 L 387 280 L 376 291 L 376 291 L 381 297 L 381 297 L 469 385 L 469 385 Z" />
</svg>