<svg xmlns="http://www.w3.org/2000/svg" viewBox="0 0 640 432">
  <path d="M 448 304 L 448 368 L 448 304 L 448 368 L 48 368 L 32 368 L 32 384 L 32 384 L 32 416 L 32 416 L 32 432 L 32 432 L 48 432 L 640 432 L 640 416 L 640 416 L 640 384 L 640 384 L 640 368 L 640 368 L 640 288 L 640 288 L 640 272 L 640 272 L 640 208 L 640 208 L 257 16 L 257 16 Q 224 0 188 0 Q 145 0 109 22 Q 73 43 52 80 L 8 162 L 8 162 L 0 176 L 0 176 L 16 180 L 16 180 L 48 188 L 48 188 L 48 296 L 48 296 L 48 304 L 48 304 L 56 304 L 448 304 Z M 448 288 L 64 288 L 448 288 L 64 288 L 64 192 L 64 192 L 448 288 L 448 288 Z M 624 368 L 464 368 L 624 368 L 464 368 L 464 288 L 464 288 L 464 276 L 464 276 L 452 273 L 452 273 L 24 166 L 24 166 L 66 88 L 66 88 Q 85 54 117 35 Q 149 16 188 16 Q 220 16 249 31 L 624 218 L 624 218 L 624 272 L 624 272 L 624 288 L 624 288 L 624 368 L 624 368 Z M 464 384 L 624 384 L 464 384 L 624 384 L 624 416 L 624 416 L 48 416 L 48 416 L 48 384 L 48 384 L 448 384 L 464 384 Z" />
</svg>