<svg xmlns="http://www.w3.org/2000/svg" viewBox="0 0 512 512">
  <path d="M 184 152 Q 243 96 320 96 L 320 24 L 320 24 L 320 0 L 320 0 L 352 0 L 440 0 Q 471 1 491 21 Q 511 41 512 72 L 512 96 L 512 96 L 488 96 L 448 96 Q 396 94 368 53 L 368 102 L 368 102 Q 417 115 456 152 Q 512 211 512 288 Q 512 328 491 380 Q 469 432 420 471 Q 371 510 288 512 Q 178 509 112 490 Q 46 471 44 469 L 0 448 L 0 448 L 0 384 L 0 384 L 25 366 L 25 366 Q 50 346 66 322 Q 82 297 96 270 Q 96 270 96 270 Q 111 240 131 210 Q 151 180 184 152 L 184 152 Z M 400 288 Q 399 336 367 367 L 367 367 L 367 367 Q 336 399 288 400 L 288 432 L 288 432 Q 349 430 390 390 Q 430 349 432 288 L 400 288 L 400 288 Z" />
</svg>