<svg xmlns="http://www.w3.org/2000/svg" viewBox="0 0 448 512">
  <path d="M 136 0 L 128 0 L 136 0 L 128 0 L 128 8 L 128 8 L 128 96 L 128 96 L 64 96 L 64 96 L 3 400 L 3 400 L 0 416 L 0 416 L 16 416 L 448 416 L 445 400 L 445 400 L 384 96 L 384 96 L 320 96 L 320 96 L 320 8 L 320 8 L 320 0 L 320 0 L 312 0 L 136 0 Z M 304 96 L 144 96 L 304 96 L 144 96 L 144 16 L 144 16 L 304 16 L 304 16 L 304 96 L 304 96 Z M 136 112 L 312 112 L 136 112 L 371 112 L 429 400 L 429 400 L 20 400 L 20 400 L 77 112 L 77 112 L 136 112 L 136 112 Z M 160 448 Q 161 475 179 493 L 179 493 L 179 493 Q 197 511 224 512 Q 251 511 269 493 Q 287 475 288 448 L 272 448 L 272 448 Q 271 468 258 482 Q 244 495 224 496 Q 204 495 190 482 Q 177 468 176 448 L 160 448 L 160 448 Z" />
</svg>