<svg xmlns="http://www.w3.org/2000/svg" viewBox="0 0 512 512">
  <path d="M 204.8 460.8 Q 244.8 460.8 280.8 446.4 Q 256.8 424.8 244 396 Q 230.4 367.2 230.4 332.8 Q 231.2 304.8 243.2 278.4 Q 255.2 252.8 273.6 230.4 L 256 230.4 L 256 204.8 L 256 179.2 L 256 153.6 L 307.2 153.6 L 307.2 179.2 L 307.2 192 Q 331.2 168 358.4 146.4 Q 376.8 160.8 393.6 176.8 Q 369.6 120 319.2 86.4 Q 269.6 52 204.8 51.2 Q 147.2 52 101.6 79.2 Q 55.2 106.4 28 152.8 Q 0.8 198.4 0 256 Q 0.8 313.6 28 359.2 Q 55.2 405.6 101.6 432.8 Q 147.2 460 204.8 460.8 L 204.8 460.8 Z M 153.6 179.2 L 153.6 204.8 L 153.6 230.4 L 102.4 230.4 L 102.4 204.8 L 102.4 179.2 L 102.4 153.6 L 153.6 153.6 L 153.6 179.2 L 153.6 179.2 Z M 230.4 179.2 L 230.4 204.8 L 230.4 230.4 L 179.2 230.4 L 179.2 204.8 L 179.2 179.2 L 179.2 153.6 L 230.4 153.6 L 230.4 179.2 L 230.4 179.2 Z M 410.4 230.4 Q 390.4 207.2 374.4 193.6 L 374.4 193.6 Q 359.2 180 358.4 179.2 Q 356.8 180 332 203.2 Q 307.2 226.4 282.4 261.6 Q 257.6 296.8 256 332.8 Q 257.6 387.2 293.6 423.2 Q 329.6 459.2 384 460.8 Q 438.4 459.2 474.4 423.2 Q 510.4 387.2 512 332.8 Q 510.4 302.4 492 273.6 Q 473.6 244 455.2 224.8 Q 436.8 205.6 435.2 204.8 Q 432.8 205.6 410.4 230.4 L 410.4 230.4 Z M 424 397.6 Q 406.4 409.6 384.8 409.6 Q 356.8 409.6 339.2 392.8 Q 320.8 376.8 320 347.2 Q 320 333.6 328.8 318.4 Q 338.4 303.2 356 281.6 Q 358.4 284.8 370.4 300 Q 382.4 315.2 393.6 329.6 Q 404.8 344 405.6 344.8 L 434.4 311.2 Q 436 313.6 437.6 316 Q 439.2 318.4 440 320.8 Q 450.4 341.6 446.4 363.2 Q 442.4 384 424 397.6 L 424 397.6 Z" />
</svg>