<svg xmlns="http://www.w3.org/2000/svg" viewBox="0 0 640 512">
  <path d="M 32 10 L 20 0 L 32 10 L 20 0 L 0 25 L 0 25 L 13 35 L 13 35 L 608 502 L 608 502 L 620 512 L 620 512 L 640 487 L 640 487 L 628 477 L 628 477 L 32 10 L 32 10 Z M 480 240 L 487 240 L 480 240 L 487 240 L 491 235 L 491 235 L 519 208 L 519 208 L 592 208 L 608 208 L 608 192 L 608 192 L 608 80 L 608 80 L 608 64 L 608 64 L 592 64 L 544 64 L 544 48 L 544 48 L 544 32 L 544 32 L 512 32 L 512 32 L 512 48 L 512 48 L 512 64 L 512 64 L 180 64 L 180 64 L 221 96 L 221 96 L 512 96 L 576 96 L 576 176 L 576 176 L 512 176 L 505 176 L 501 181 L 501 181 L 473 208 L 473 208 L 363 208 L 363 208 L 403 240 L 403 240 L 480 240 L 480 240 Z M 255 287 L 215 448 L 255 287 L 215 448 L 105 448 L 105 448 L 157 240 L 157 240 L 197 240 L 197 240 L 156 208 L 156 208 L 132 208 L 64 208 L 64 135 L 64 135 L 32 110 L 32 110 L 32 224 L 32 224 L 32 240 L 32 240 L 48 240 L 124 240 L 72 448 L 72 448 L 64 480 L 64 480 L 97 480 L 240 480 L 283 308 L 283 308 L 255 287 L 255 287 Z" />
</svg>