<svg xmlns="http://www.w3.org/2000/svg" viewBox="0 0 512 512">
  <path d="M 332.8 204.8 Q 333.6 154.4 348.8 120 L 348.8 120 Q 364.8 84.8 388.8 77.6 Q 392.8 76.8 396.8 76.8 Q 424 78.4 442.4 114.4 Q 460 150.4 460.8 204.8 Q 460.8 244.8 450.4 276 Q 440 306.4 422.4 322.4 L 442.4 338.4 Q 456.8 324 464.8 306.4 Q 485.6 264 486.4 204.8 Q 485.6 145.6 464.8 103.2 Q 455.2 82.4 438.4 67.2 Q 421.6 52 396.8 51.2 Q 395.2 51.2 393.6 51.2 L 393.6 51.2 L 128 51.2 Q 111.2 51.2 96.8 64.8 L 116.8 80.8 Q 124 76.8 128 76.8 L 345.6 76.8 Q 335.2 88.8 328.8 103.2 Q 308 145.6 307.2 204.8 Q 307.2 217.6 307.2 230.4 Q 307.2 231.2 307.2 231.2 L 332 251.2 Q 332.8 227.2 332.8 204.8 L 332.8 204.8 Z M 297.6 354.4 Q 290.4 396.8 275.2 435.2 L 275.2 435.2 L 44.8 435.2 L 44.8 435.2 Q 65.6 379.2 72 319.2 Q 77.6 259.2 76.8 204.8 Q 76.8 192 77.6 180.8 L 54.4 161.6 Q 51.2 182.4 51.2 204.8 Q 52 259.2 46.4 316.8 Q 40.8 373.6 20.8 425.6 L 16.8 435.2 L 6.4 460.8 L 34.4 460.8 L 292 460.8 L 299.2 444.8 Q 312.8 410.4 320 372 L 297.6 354.4 L 297.6 354.4 Z M 385.6 220.8 Q 384 213.6 384 204.8 Q 384 196 385.6 188.8 Q 388.8 168 396.8 166.4 Q 404.8 168 408.8 188.8 Q 409.6 196 409.6 204.8 Q 409.6 213.6 408.8 220.8 Q 404.8 241.6 396.8 243.2 Q 388.8 241.6 385.6 220.8 L 385.6 220.8 Z M 421.6 256 Q 428 248 430.4 240 Q 435.2 224 435.2 204.8 Q 435.2 185.6 430.4 169.6 Q 428 161.6 421.6 153.6 Q 419.2 149.6 412.8 145.6 Q 406.4 140.8 396.8 140.8 Q 387.2 140.8 380.8 145.6 Q 374.4 149.6 372 153.6 Q 365.6 161.6 363.2 169.6 Q 358.4 185.6 358.4 204.8 Q 358.4 224 363.2 240 Q 365.6 248 372 256 Q 374.4 260 380.8 264 Q 387.2 268.8 396.8 268.8 Q 406.4 268.8 412.8 264 Q 419.2 260 421.6 256 L 421.6 256 Z M 26.4 59.2 L 16 51.2 L 0 71.2 L 10.4 79.2 L 486.4 452.8 L 496 460.8 L 512 440.8 L 502.4 432.8 L 26.4 59.2 L 26.4 59.2 Z" />
</svg>