<svg xmlns="http://www.w3.org/2000/svg" viewBox="0 0 640 512">
  <path d="M 388 401 L 373 390 L 388 401 L 373 390 Q 348 400 320 400 Q 259 398 218 358 Q 178 317 176 256 L 176 234 L 176 234 L 160 221 L 160 221 L 160 256 L 160 256 Q 162 322 204 366 Q 247 411 312 416 L 312 496 L 312 496 L 232 496 L 224 496 L 224 512 L 224 512 L 232 512 L 416 512 L 416 496 L 416 496 L 408 496 L 328 496 L 328 416 L 328 416 Q 360 414 388 401 L 388 401 Z M 240 101 L 240 16 L 240 101 L 240 16 L 400 16 L 400 16 L 400 227 L 400 227 L 416 240 L 416 240 L 416 16 L 416 16 L 416 0 L 416 0 L 400 0 L 224 0 L 224 16 L 224 16 L 224 89 L 224 89 L 240 101 L 240 101 Z M 477 288 Q 480 272 480 256 L 480 200 L 480 200 L 480 192 L 480 192 L 464 192 L 464 192 L 464 200 L 464 200 L 464 256 L 464 256 Q 464 267 463 277 L 477 288 L 477 288 Z M 16 5 L 10 0 L 16 5 L 10 0 L 0 13 L 0 13 L 6 18 L 6 18 L 624 507 L 624 507 L 630 512 L 630 512 L 640 500 L 640 500 L 634 495 L 634 495 L 16 5 L 16 5 Z" />
</svg>