<svg xmlns="http://www.w3.org/2000/svg" viewBox="0 0 452 452">
  <path d="M 209 243 L 226 260 L 209 243 L 226 260 L 243 243 L 243 243 L 435 51 L 435 51 L 452 34 L 452 34 L 418 0 L 418 0 L 401 17 L 401 17 L 226 192 L 226 192 L 51 17 L 51 17 L 34 0 L 34 0 L 0 34 L 0 34 L 17 51 L 17 51 L 209 243 L 209 243 Z M 209 435 L 226 452 L 209 435 L 226 452 L 243 435 L 243 435 L 435 243 L 435 243 L 452 226 L 452 226 L 418 192 L 418 192 L 401 209 L 401 209 L 226 384 L 226 384 L 51 209 L 51 209 L 34 192 L 34 192 L 0 226 L 0 226 L 17 243 L 17 243 L 209 435 L 209 435 Z" />
</svg>