<svg xmlns="http://www.w3.org/2000/svg" viewBox="0 0 512 512">
  <path d="M 358.69766 73.42635 Q 365.6434 42.666668 389.45737 24.806202 L 389.45737 24.806202 Q 412.27908 5.9534883 444.031 4.9612403 L 459.90698 4.9612403 L 507.53488 4.9612403 L 507.53488 52.589146 L 507.53488 68.46512 Q 506.54263 100.21706 488.68216 123.03876 Q 469.82947 146.8527 440.062 153.79845 Q 460.89923 162.72868 478.7597 179.5969 L 478.7597 179.5969 L 511.50388 213.33333 L 478.7597 247.06976 L 466.85272 258.97675 Q 448 276.83722 424.18604 282.7907 L 433.11627 292.71317 L 399.37985 325.45737 L 388.46512 337.36435 Q 369.6124 355.2248 345.79846 362.17053 L 354.72867 371.10077 L 320.99225 404.83722 L 272.3721 382.0155 Q 280.3101 378.0465 287.25583 371.10077 Q 270.3876 354.23254 249.55038 349.27133 Q 227.72093 344.3101 206.88373 351.25583 L 198.94574 347.28683 L 198.94574 347.28683 L 206.88373 351.25583 Q 196.96124 354.23254 188.031 361.17828 L 197.95349 371.10077 Q 213.82945 385.9845 233.67442 388.96124 Q 253.51938 391.938 272.3721 382.0155 L 320.99225 404.83722 Q 287.25583 437.5814 242.60464 437.5814 Q 197.95349 437.5814 164.21706 404.83722 L 153.30232 393.9225 L 51.100777 495.13177 L 34.23256 512 L 0.49612403 478.26358 L 17.364342 461.39536 L 119.565895 360.18604 L 119.565895 360.18604 L 107.65891 348.27908 Q 75.906975 314.54263 75.906975 269.89148 Q 75.906975 225.24031 107.65891 191.50388 L 130.48062 240.12402 Q 120.558136 257.9845 123.53488 278.82172 Q 126.51163 298.66666 141.39536 314.54263 L 151.31783 324.46512 Q 158.26357 315.53488 161.24031 305.6124 L 165.2093 313.55038 L 165.2093 313.55038 L 161.24031 305.6124 Q 167.1938 284.7752 163.22481 262.94574 Q 158.26357 242.10852 141.39536 225.24031 Q 134.44962 232.18605 130.48062 240.12402 L 107.65891 191.50388 L 141.39536 157.76744 L 155.28682 171.65892 Q 161.24031 138.91473 186.04651 113.11628 L 208.86821 161.73643 Q 198.94574 179.5969 201.92249 200.43411 Q 204.89923 220.27907 219.78294 236.15504 L 230.69768 246.07751 Q 236.65117 237.1473 239.62791 227.22481 L 243.5969 235.1628 L 243.5969 235.1628 L 239.62791 227.22481 Q 246.57364 205.39536 241.6124 184.55814 Q 236.65117 162.72868 219.78294 145.86046 Q 213.82945 152.8062 208.86821 160.74419 L 187.03876 112.12403 L 219.78294 79.379845 L 234.66667 93.27132 Q 239.62791 59.534885 265.42636 33.736435 L 287.25583 82.35659 Q 278.3256 101.209305 280.3101 121.05426 Q 283.28683 141.89148 299.16278 157.76744 L 309.08527 167.68993 Q 315.03876 158.75969 318.0155 148.8372 L 323.969 160.74419 L 323.969 160.74419 L 318.0155 148.8372 Q 324.96124 127.00775 320 106.17054 Q 315.03876 84.34109 299.16278 67.47287 Q 292.21704 74.4186 287.25583 82.35659 L 265.42636 33.736435 L 299.16278 0 L 331.90698 33.736435 L 331.90698 33.736435 Q 349.76746 51.5969 358.69766 73.42635 L 358.69766 73.42635 Z M 287.25583 82.35659 L 318.0155 148.8372 L 318.0155 148.8372 L 287.25583 82.35659 L 287.25583 82.35659 L 287.25583 82.35659 Z M 208.86821 161.73643 L 239.62791 227.22481 L 239.62791 227.22481 L 208.86821 161.73643 L 208.86821 161.73643 L 208.86821 161.73643 Z M 130.48062 240.12402 L 161.24031 305.6124 L 161.24031 305.6124 L 130.48062 240.12402 L 130.48062 240.12402 L 130.48062 240.12402 Z M 272.3721 382.0155 L 206.88373 351.25583 L 206.88373 351.25583 L 272.3721 382.0155 L 272.3721 382.0155 L 272.3721 382.0155 Z M 365.6434 292.71317 Q 344.8062 271.87598 317.02325 268.89923 L 317.02325 268.89923 Q 290.23254 266.91473 266.4186 281.79846 L 287.25583 303.6279 Q 302.13953 317.51938 320.99225 317.51938 Q 339.84497 317.51938 354.72867 303.6279 L 365.6434 292.71317 L 365.6434 292.71317 Z M 445.02325 213.33333 Q 423.1938 193.48837 396.4031 190.51163 L 396.4031 190.51163 Q 368.62015 188.52713 344.8062 203.41086 L 365.6434 225.24031 Q 380.52713 239.13179 399.37985 239.13179 Q 418.23254 239.13179 433.11627 225.24031 L 445.02325 213.33333 L 445.02325 213.33333 Z M 444.031 52.589146 Q 427.16278 52.589146 416.24805 64.496124 L 416.24805 64.496124 Q 404.3411 75.41085 404.3411 92.27907 L 404.3411 108.15504 L 420.21704 108.15504 Q 437.08527 108.15504 448 96.24806 Q 459.90698 85.333336 459.90698 68.46512 L 459.90698 52.589146 L 444.031 52.589146 L 444.031 52.589146 Z" />
</svg>