<svg xmlns="http://www.w3.org/2000/svg" viewBox="0 0 511 503">
  <path d="M 481 54 L 507 72 L 481 54 L 507 72 L 490 98 L 490 98 L 270 426 L 270 426 Q 249 457 217 474 Q 185 491 148 492 Q 84 490 43 448 Q 1 406 0 343 L 0 340 L 0 340 Q 0 297 23 261 L 48 221 L 48 221 L 65 194 L 65 194 L 92 211 L 92 211 L 146 245 L 146 245 L 173 262 L 173 262 L 156 289 L 156 289 L 131 329 L 131 329 Q 128 334 128 341 L 128 344 L 128 344 Q 129 362 147 364 Q 157 363 163 355 L 383 27 L 383 27 L 401 0 L 401 0 L 428 18 L 428 18 L 481 54 L 481 54 Z M 410 45 L 371 103 L 410 45 L 371 103 L 422 141 L 422 141 L 463 80 L 463 80 L 410 45 L 410 45 Z M 353 129 L 190 373 L 353 129 L 190 373 Q 174 395 147 396 Q 125 395 111 381 Q 96 366 96 344 L 96 341 L 96 341 Q 96 325 104 312 L 129 272 L 129 272 L 75 238 L 75 238 L 50 278 L 50 278 Q 32 306 32 340 L 32 343 L 32 343 Q 33 393 65 426 Q 98 459 147 460 Q 177 459 202 446 Q 227 433 243 409 L 404 168 L 404 168 L 353 129 L 353 129 Z M 479 412 Q 478 385 455 370 Q 431 358 407 370 Q 384 385 383 412 Q 384 439 407 454 Q 431 466 455 454 Q 478 439 479 412 L 479 412 Z M 351 412 Q 352 367 391 343 Q 431 321 471 343 Q 510 367 511 412 Q 510 457 471 481 Q 431 503 391 481 Q 352 457 351 412 L 351 412 Z" />
</svg>