<svg xmlns="http://www.w3.org/2000/svg" viewBox="0 0 640 512">
  <path d="M 252 49 Q 256 56 256 64 Q 256 78 247 87 Q 238 96 224 96 L 224 96 L 224 96 Q 210 96 201 87 Q 192 78 192 64 Q 192 56 196 49 L 215 16 L 215 16 L 224 0 L 224 0 L 233 16 L 233 16 L 252 49 L 252 49 Z M 210 57 Q 208 60 208 64 Q 209 79 224 80 L 224 80 L 224 80 Q 239 79 240 64 Q 240 60 238 57 L 224 32 L 224 32 L 210 57 L 210 57 L 196 49 L 196 49 L 210 57 L 210 57 Z M 444 49 Q 448 56 448 64 Q 448 78 439 87 Q 430 96 416 96 L 416 96 L 416 96 Q 402 96 393 87 Q 384 78 384 64 Q 384 56 388 49 L 407 16 L 407 16 L 416 0 L 416 0 L 425 16 L 425 16 L 444 49 L 444 49 Z M 416 32 L 402 57 L 416 32 L 402 57 Q 400 60 400 64 Q 401 79 416 80 L 416 80 L 416 80 Q 431 79 432 64 Q 432 60 430 57 L 416 32 L 416 32 Z M 32 32 L 18 57 L 32 32 L 18 57 Q 16 60 16 64 Q 17 79 32 80 L 32 80 L 32 80 Q 47 79 48 64 Q 48 60 46 57 L 32 32 L 32 32 Z M 23 16 L 32 0 L 23 16 L 32 0 L 41 16 L 41 16 L 60 49 L 60 49 Q 64 56 64 64 Q 64 78 55 87 Q 46 96 32 96 L 32 96 L 32 96 Q 18 96 9 87 Q 0 78 0 64 Q 0 56 4 49 L 23 16 L 23 16 Z M 128 32 L 114 57 L 128 32 L 114 57 Q 112 60 112 64 Q 113 79 128 80 L 128 80 L 128 80 Q 143 79 144 64 Q 144 60 142 57 L 128 32 L 128 32 Z M 119 16 L 128 0 L 119 16 L 128 0 L 137 16 L 137 16 L 156 49 L 156 49 Q 160 56 160 64 Q 160 78 151 87 Q 142 96 128 96 L 128 96 L 128 96 Q 114 96 105 87 Q 96 78 96 64 Q 96 56 100 49 L 119 16 L 119 16 Z M 311 16 L 320 0 L 311 16 L 320 0 L 329 16 L 329 16 L 348 49 L 348 49 Q 352 56 352 64 Q 352 78 343 87 Q 334 96 320 96 L 320 96 L 320 96 Q 306 96 297 87 Q 288 78 288 64 Q 288 56 292 49 L 311 16 L 311 16 Z M 320 32 L 306 57 L 320 32 L 306 57 Q 304 60 304 64 Q 305 79 320 80 L 320 80 L 320 80 Q 335 79 336 64 Q 336 60 334 57 L 320 32 L 320 32 Z M 512 32 L 498 57 L 512 32 L 498 57 Q 496 60 496 64 Q 497 79 512 80 L 512 80 L 512 80 Q 527 79 528 64 Q 528 60 526 57 L 512 32 L 512 32 Z M 503 16 L 512 0 L 503 16 L 512 0 L 521 16 L 521 16 L 540 49 L 540 49 Q 544 56 544 64 Q 544 78 535 87 Q 526 96 512 96 L 512 96 L 512 96 Q 498 96 489 87 Q 480 78 480 64 Q 480 56 484 49 L 503 16 L 503 16 Z M 608 32 L 594 57 L 608 32 L 594 57 Q 592 60 592 64 Q 593 79 608 80 L 608 80 L 608 80 Q 623 79 624 64 Q 624 60 622 57 L 608 32 L 608 32 Z M 599 16 L 608 0 L 599 16 L 608 0 L 617 16 L 617 16 L 636 49 L 636 49 Q 640 56 640 64 Q 640 78 631 87 Q 622 96 608 96 L 608 96 L 608 96 Q 594 96 585 87 Q 576 78 576 64 Q 576 56 580 49 L 599 16 L 599 16 Z M 40 128 L 40 136 L 40 128 L 40 136 L 40 312 L 40 312 Q 41 336 56 352 Q 72 367 96 368 L 120 368 L 120 368 L 120 136 L 120 136 L 120 128 L 120 128 L 136 128 L 136 128 L 136 136 L 136 136 L 136 368 L 136 368 L 216 368 L 216 368 L 216 136 L 216 136 L 216 128 L 216 128 L 232 128 L 232 128 L 232 136 L 232 136 L 232 368 L 232 368 L 312 368 L 312 368 L 312 136 L 312 136 L 312 128 L 312 128 L 328 128 L 328 128 L 328 136 L 328 136 L 328 368 L 328 368 L 408 368 L 408 368 L 408 136 L 408 136 L 408 128 L 408 128 L 424 128 L 424 128 L 424 136 L 424 136 L 424 368 L 424 368 L 504 368 L 504 368 L 504 136 L 504 136 L 504 128 L 504 128 L 520 128 L 520 128 L 520 136 L 520 136 L 520 368 L 520 368 L 544 368 L 544 368 Q 568 367 584 352 Q 599 336 600 312 L 600 136 L 600 136 L 600 128 L 600 128 L 616 128 L 616 128 L 616 136 L 616 136 L 616 312 L 616 312 Q 615 343 595 363 Q 575 383 544 384 L 328 384 L 328 384 L 328 496 L 328 496 L 504 496 L 512 496 L 512 512 L 512 512 L 504 512 L 128 512 L 128 496 L 128 496 L 136 496 L 312 496 L 312 384 L 312 384 L 96 384 L 96 384 Q 65 383 45 363 Q 25 343 24 312 L 24 136 L 24 136 L 24 128 L 24 128 L 40 128 L 40 128 Z" />
</svg>