<svg xmlns="http://www.w3.org/2000/svg" viewBox="0 0 512 384">
  <path d="M 496 16 L 496 112 L 496 16 L 496 112 L 16 112 L 16 112 L 16 16 L 16 16 L 496 16 L 496 16 Z M 16 0 L 0 0 L 16 0 L 0 0 L 0 16 L 0 16 L 0 112 L 0 112 L 0 128 L 0 128 L 16 128 L 512 128 L 512 112 L 512 112 L 512 16 L 512 16 L 512 0 L 512 0 L 496 0 L 16 0 Z M 0 256 L 0 264 L 0 256 L 0 264 L 0 376 L 0 376 L 0 384 L 0 384 L 8 384 L 512 384 L 512 376 L 512 376 L 512 264 L 512 264 L 512 256 L 512 256 L 504 256 L 390 256 L 388 257 L 388 257 L 320 302 L 320 302 L 252 257 L 252 257 L 250 256 L 250 256 L 248 256 L 0 256 Z M 16 272 L 246 272 L 16 272 L 246 272 L 316 319 L 316 319 L 320 322 L 320 322 L 324 319 L 324 319 L 394 272 L 394 272 L 496 272 L 496 272 L 496 368 L 496 368 L 16 368 L 16 368 L 16 272 L 16 272 Z M 131 161 L 128 159 L 131 161 L 128 159 L 125 161 L 125 161 L 13 209 L 13 209 L 5 212 L 5 212 L 12 227 L 12 227 L 19 223 L 19 223 L 128 177 L 128 177 L 253 224 L 253 224 L 256 225 L 256 225 L 259 224 L 259 224 L 384 177 L 384 177 L 493 223 L 493 223 L 500 227 L 500 227 L 506 212 L 506 212 L 499 209 L 499 209 L 387 161 L 387 161 L 384 159 L 384 159 L 381 161 L 381 161 L 256 208 L 256 208 L 131 161 L 131 161 Z" />
</svg>