<svg xmlns="http://www.w3.org/2000/svg" viewBox="0 0 445 384">
  <path d="M 64 32 L 64 0 L 64 32 L 64 0 L 0 0 L 0 0 L 0 32 L 0 32 L 0 352 L 0 352 L 0 384 L 0 384 L 64 384 L 64 384 L 64 352 L 64 352 L 64 32 L 64 32 Z M 423 215 L 445 192 L 423 215 L 445 192 L 423 169 L 423 169 L 295 41 L 295 41 L 272 19 L 272 19 L 227 64 L 227 64 L 249 87 L 249 87 L 323 160 L 323 160 L 160 160 L 128 160 L 128 224 L 128 224 L 160 224 L 323 224 L 249 297 L 249 297 L 227 320 L 227 320 L 272 365 L 272 365 L 295 343 L 295 343 L 423 215 L 423 215 Z" />
</svg>