<svg xmlns="http://www.w3.org/2000/svg" viewBox="0 0 512 512">
  <path d="M 512 256 Q 511 186 478 128 L 478 128 L 478 128 Q 444 70 384 34 Q 323 0 256 0 Q 189 0 128 34 Q 68 70 34 128 Q 1 186 0 256 Q 1 326 34 384 Q 68 442 128 478 Q 189 512 256 512 Q 323 512 384 478 Q 444 442 478 384 Q 511 326 512 256 L 512 256 Z M 103 239 L 215 127 L 103 239 L 215 127 L 232 110 L 232 110 L 266 144 L 266 144 L 249 161 L 249 161 L 178 232 L 178 232 L 392 232 L 416 232 L 416 280 L 416 280 L 392 280 L 178 280 L 249 351 L 249 351 L 266 368 L 266 368 L 232 402 L 232 402 L 215 385 L 215 385 L 103 273 L 103 273 L 86 256 L 86 256 L 103 239 L 103 239 Z" />
</svg>