<svg xmlns="http://www.w3.org/2000/svg" viewBox="0 0 640 512">
  <path d="M 16 5 L 10 0 L 16 5 L 10 0 L 0 13 L 0 13 L 6 18 L 6 18 L 624 507 L 624 507 L 630 512 L 630 512 L 640 500 L 640 500 L 634 495 L 634 495 L 16 5 L 16 5 Z M 346 368 L 328 368 L 346 368 L 320 368 L 320 384 L 320 384 L 328 384 L 366 384 L 346 368 L 346 368 Z M 454 182 L 417 241 L 454 182 L 417 241 L 430 251 L 430 251 L 479 172 L 479 172 L 490 154 L 490 154 L 470 160 L 470 160 L 357 194 L 357 194 L 373 206 L 373 206 L 454 182 L 454 182 Z M 304 136 L 304 120 L 304 136 L 304 120 Q 303 83 278 58 Q 253 33 216 32 Q 190 32 169 45 L 183 56 L 183 56 Q 198 48 216 48 Q 247 49 267 69 Q 287 89 288 120 L 288 136 L 288 136 Q 288 137 288 137 Q 288 138 288 139 L 304 152 L 304 152 Q 304 144 304 136 Q 304 136 304 136 L 304 136 Z M 118 264 L 112 266 L 118 264 L 112 266 L 112 272 L 112 272 L 112 472 L 112 472 L 112 480 L 112 480 L 120 480 L 197 480 L 199 476 L 199 476 L 239 401 L 239 401 Q 261 358 276 313 L 262 302 L 262 302 Q 248 350 225 393 L 187 464 L 187 464 L 128 464 L 128 464 L 128 278 L 128 278 L 203 256 L 203 256 L 188 244 L 188 244 L 118 264 L 118 264 Z M 632 384 L 640 384 L 632 384 L 640 384 L 640 368 L 640 368 L 632 368 L 578 368 L 598 384 L 598 384 L 632 384 L 632 384 Z M 568 304 Q 575 303 576 296 Q 575 289 568 288 L 477 288 L 477 288 L 497 304 L 497 304 L 568 304 L 568 304 Z M 8 368 L 0 368 L 8 368 L 0 368 L 0 384 L 0 384 L 8 384 L 64 384 L 64 368 L 64 368 L 56 368 L 8 368 Z" />
</svg>