<svg xmlns="http://www.w3.org/2000/svg" viewBox="0 0 640 512">
  <path d="M 424 8 L 424 0 L 424 8 L 424 0 L 408 0 L 408 0 L 408 8 L 408 8 L 408 32 L 408 32 L 232 32 L 232 32 L 232 8 L 232 8 L 232 0 L 232 0 L 216 0 L 216 0 L 216 8 L 216 8 L 216 32 L 216 32 L 48 32 L 32 32 L 32 48 L 32 48 L 32 368 L 32 368 L 0 368 L 0 368 L 0 384 L 0 384 L 32 384 L 312 384 L 312 504 L 312 504 L 312 512 L 312 512 L 328 512 L 328 512 L 328 504 L 328 504 L 328 384 L 328 384 L 592 384 L 640 384 L 640 368 L 640 368 L 608 368 L 608 368 L 608 48 L 608 48 L 608 32 L 608 32 L 592 32 L 424 32 L 424 8 L 424 8 Z M 328 368 L 312 368 L 328 368 L 48 368 L 48 48 L 48 48 L 216 48 L 216 48 L 216 128 L 216 128 L 192 128 L 184 128 L 184 144 L 184 144 L 192 144 L 264 144 L 264 128 L 264 128 L 256 128 L 232 128 L 232 48 L 232 48 L 408 48 L 408 48 L 408 128 L 408 128 L 384 128 L 376 128 L 376 144 L 376 144 L 384 144 L 456 144 L 456 128 L 456 128 L 448 128 L 424 128 L 424 48 L 424 48 L 592 48 L 592 48 L 592 368 L 592 368 L 328 368 L 328 368 Z" />
</svg>