<svg xmlns="http://www.w3.org/2000/svg" viewBox="0 0 640 512">
  <path d="M 33 10 L 20 0 L 33 10 L 20 0 L 0 25 L 0 25 L 13 35 L 13 35 L 608 502 L 608 502 L 620 512 L 620 512 L 640 487 L 640 487 L 628 477 L 628 477 L 33 10 L 33 10 Z M 500 480 L 460 448 L 500 480 L 460 448 L 61 448 L 61 448 L 32 419 L 32 419 L 32 416 L 32 416 L 419 416 L 419 416 L 379 384 L 379 384 L 32 384 L 0 384 L 0 416 L 0 416 L 0 432 L 0 432 L 48 480 L 48 480 L 500 480 L 500 480 Z M 544 352 L 545 352 L 544 352 L 576 352 L 576 64 L 576 64 L 576 32 L 576 32 L 544 32 L 139 32 L 180 64 L 180 64 L 544 64 L 544 64 L 544 352 L 544 352 Z M 64 136 L 64 352 L 64 136 L 64 352 L 96 352 L 96 352 L 96 161 L 96 161 L 64 136 L 64 136 Z" />
</svg>