<svg xmlns="http://www.w3.org/2000/svg" viewBox="0 0 634 506">
  <path d="M 125 0 L 148 22 L 125 0 L 148 22 L 228 102 L 228 102 L 250 125 L 250 125 L 205 170 L 205 170 L 182 148 L 182 148 L 157 122 L 157 122 L 157 413 L 157 413 L 285 413 L 285 413 L 285 61 L 285 61 L 285 29 L 285 29 L 317 29 L 541 29 L 541 61 L 541 61 L 541 384 L 541 384 L 566 358 L 566 358 L 589 336 L 589 336 L 634 381 L 634 381 L 612 404 L 612 404 L 532 484 L 532 484 L 509 506 L 509 506 L 486 484 L 486 484 L 406 404 L 406 404 L 384 381 L 384 381 L 429 336 L 429 336 L 452 358 L 452 358 L 477 384 L 477 384 L 477 93 L 477 93 L 349 93 L 349 93 L 349 445 L 349 445 L 349 477 L 349 477 L 317 477 L 93 477 L 93 445 L 93 445 L 93 122 L 93 122 L 68 148 L 68 148 L 45 170 L 45 170 L 0 125 L 0 125 L 22 102 L 22 102 L 102 22 L 102 22 L 125 0 L 125 0 Z" />
</svg>