<svg xmlns="http://www.w3.org/2000/svg" viewBox="0 0 384 512">
  <path d="M 200 0 L 184 0 L 200 0 L 184 0 L 184 8 L 184 8 L 184 32 L 184 32 L 184 32 L 184 32 Q 137 36 104 67 Q 72 98 65 144 L 40 144 L 32 144 L 32 160 L 32 160 L 40 160 L 352 160 L 352 144 L 352 144 L 344 144 L 319 144 Q 312 98 280 67 Q 247 36 200 32 L 200 32 L 200 32 L 200 8 L 200 8 L 200 0 L 200 0 Z M 192 48 Q 235 49 266 76 L 266 76 L 266 76 Q 296 102 303 144 L 81 144 L 81 144 Q 88 102 118 76 Q 149 49 192 48 L 192 48 Z M 272 320 Q 271 275 232 251 Q 192 229 152 251 Q 113 275 112 320 Q 113 365 152 389 Q 192 411 232 389 Q 271 365 272 320 L 272 320 Z M 192 256 Q 228 257 247 288 Q 265 320 247 352 Q 228 383 192 384 Q 156 383 137 352 Q 119 320 137 288 Q 156 257 192 256 L 192 256 Z M 40 496 L 32 496 L 40 496 L 32 496 L 32 512 L 32 512 L 40 512 L 352 512 L 352 496 L 352 496 L 344 496 L 320 496 L 320 392 L 320 392 L 376 392 L 384 392 L 384 384 L 384 384 L 384 256 L 384 256 L 384 248 L 384 248 L 376 248 L 320 248 L 320 192 L 320 192 L 304 192 L 304 192 L 304 256 L 304 256 L 304 384 L 304 384 L 304 496 L 304 496 L 80 496 L 80 496 L 80 384 L 80 384 L 80 256 L 80 256 L 80 192 L 80 192 L 64 192 L 64 192 L 64 248 L 64 248 L 8 248 L 0 248 L 0 256 L 0 256 L 0 384 L 0 384 L 0 392 L 0 392 L 8 392 L 64 392 L 64 496 L 64 496 L 40 496 L 40 496 Z M 64 376 L 16 376 L 64 376 L 16 376 L 16 264 L 16 264 L 64 264 L 64 264 L 64 376 L 64 376 Z M 320 376 L 320 264 L 320 376 L 320 264 L 368 264 L 368 264 L 368 376 L 368 376 L 320 376 L 320 376 Z" />
</svg>