<svg xmlns="http://www.w3.org/2000/svg" viewBox="0 0 640 512">
  <path d="M 576 128 L 576 125 L 576 128 L 576 125 L 573 122 L 573 122 L 477 34 L 477 34 L 472 29 L 472 29 L 461 41 L 461 41 L 467 46 L 467 46 L 496 73 L 496 73 L 496 168 L 496 168 Q 497 192 512 208 Q 528 223 552 224 L 560 224 L 560 224 L 560 364 L 560 364 L 576 377 L 576 377 L 576 128 L 576 128 Z M 384 388 L 368 376 L 384 388 L 368 376 L 368 416 L 368 416 L 112 416 L 112 416 L 112 173 L 112 173 L 96 161 L 96 161 L 96 496 L 96 496 L 64 496 L 64 496 L 64 512 L 64 512 L 96 512 L 416 512 L 416 496 L 416 496 L 384 496 L 384 496 L 384 388 L 384 388 Z M 384 225 L 384 16 L 384 225 L 384 16 L 384 0 L 384 0 L 368 0 L 99 0 L 119 16 L 119 16 L 368 16 L 368 16 L 368 212 L 368 212 L 384 225 L 384 225 Z M 368 432 L 368 496 L 368 432 L 368 496 L 112 496 L 112 496 L 112 432 L 112 432 L 368 432 L 368 432 Z M 560 208 L 552 208 L 560 208 L 552 208 Q 535 208 524 196 Q 512 185 512 168 L 512 88 L 512 88 L 560 132 L 560 132 L 560 208 L 560 208 Z M 16 5 L 10 0 L 16 5 L 10 0 L 0 13 L 0 13 L 6 18 L 6 18 L 624 507 L 624 507 L 630 512 L 630 512 L 640 500 L 640 500 L 634 495 L 634 495 L 16 5 L 16 5 Z" />
</svg>