<svg xmlns="http://www.w3.org/2000/svg" viewBox="0 0 640 512">
  <path d="M 499 0 L 495 0 L 499 0 L 495 0 L 492 3 L 492 3 L 256 312 L 256 312 L 256 232 L 256 232 L 256 224 L 256 224 L 248 224 L 0 224 L 0 232 L 0 232 L 0 360 L 0 360 Q 2 425 45 467 Q 87 510 152 512 L 162 512 L 162 512 Q 201 512 234 494 Q 268 475 289 443 L 535 64 L 535 64 L 632 64 L 640 64 L 640 56 L 640 56 L 640 8 L 640 8 L 640 0 L 640 0 L 632 0 L 499 0 Z M 367 193 L 503 16 L 367 193 L 503 16 L 624 16 L 624 16 L 624 48 L 624 48 L 531 48 L 526 48 L 524 52 L 524 52 L 411 226 L 411 226 L 367 193 L 367 193 Z M 357 206 L 402 240 L 357 206 L 402 240 L 276 434 L 276 434 Q 257 463 227 480 Q 197 496 162 496 L 152 496 L 152 496 Q 94 495 56 456 Q 17 418 16 360 L 16 240 L 16 240 L 240 240 L 240 240 L 240 336 L 240 336 L 240 360 L 240 360 L 254 341 L 254 341 L 357 206 L 357 206 Z" />
</svg>