<svg xmlns="http://www.w3.org/2000/svg" viewBox="0 0 512 480">
  <path d="M 472 8 L 472 0 L 472 8 L 472 0 L 456 0 L 456 0 L 456 8 L 456 8 L 456 40 L 456 40 L 424 40 L 416 40 L 416 56 L 416 56 L 424 56 L 456 56 L 456 88 L 456 88 L 456 96 L 456 96 L 472 96 L 472 96 L 472 88 L 472 88 L 472 56 L 472 56 L 504 56 L 512 56 L 512 40 L 512 40 L 504 40 L 472 40 L 472 8 L 472 8 Z M 56 232 L 56 224 L 56 232 L 56 224 L 40 224 L 40 224 L 40 232 L 40 232 L 40 264 L 40 264 L 8 264 L 0 264 L 0 280 L 0 280 L 8 280 L 40 280 L 40 312 L 40 312 L 40 320 L 40 320 L 56 320 L 56 320 L 56 312 L 56 312 L 56 280 L 56 280 L 88 280 L 96 280 L 96 264 L 96 264 L 88 264 L 56 264 L 56 232 L 56 232 Z M 104 416 L 96 416 L 104 416 L 96 416 L 96 424 L 96 424 L 96 472 L 96 472 L 96 480 L 96 480 L 112 480 L 112 480 L 112 472 L 112 472 L 112 432 L 112 432 L 400 432 L 400 432 L 400 472 L 400 472 L 400 480 L 400 480 L 416 480 L 416 480 L 416 472 L 416 472 L 416 424 L 416 424 L 416 416 L 416 416 L 408 416 L 104 416 Z" />
</svg>