<svg xmlns="http://www.w3.org/2000/svg" viewBox="0 0 448 448">
  <path d="M 16 16 L 16 74 L 16 16 L 16 74 L 74 74 L 74 74 L 74 16 L 74 16 L 16 16 L 16 16 Z M 16 136 L 16 193 L 16 136 L 16 193 L 74 193 L 74 193 L 74 136 L 74 136 L 16 136 L 16 136 Z M 0 239 L 16 239 L 0 239 L 90 239 L 90 255 L 90 255 L 90 313 L 90 313 L 90 329 L 90 329 L 74 329 L 0 329 L 0 313 L 0 313 L 0 255 L 0 255 L 0 239 L 0 239 Z M 74 313 L 74 255 L 74 313 L 74 255 L 16 255 L 16 255 L 16 313 L 16 313 L 74 313 L 74 313 Z M 16 374 L 16 432 L 16 374 L 16 432 L 74 432 L 74 432 L 74 374 L 74 374 L 16 374 L 16 374 Z M 90 0 L 90 16 L 90 0 L 90 16 L 90 74 L 90 74 L 90 90 L 90 90 L 74 90 L 0 90 L 0 74 L 0 74 L 0 16 L 0 16 L 0 0 L 0 0 L 16 0 L 90 0 Z M 90 120 L 90 136 L 90 120 L 90 136 L 90 193 L 90 193 L 90 209 L 90 209 L 74 209 L 0 209 L 0 193 L 0 193 L 0 136 L 0 136 L 0 120 L 0 120 L 16 120 L 90 120 Z M 90 358 L 90 374 L 90 358 L 90 374 L 90 432 L 90 432 L 90 448 L 90 448 L 74 448 L 0 448 L 0 432 L 0 432 L 0 374 L 0 374 L 0 358 L 0 358 L 16 358 L 90 358 Z M 136 16 L 136 74 L 136 16 L 136 74 L 193 74 L 193 74 L 193 16 L 193 16 L 136 16 L 136 16 Z M 136 136 L 136 193 L 136 136 L 136 193 L 193 193 L 193 193 L 193 136 L 193 136 L 136 136 L 136 136 Z M 120 239 L 136 239 L 120 239 L 209 239 L 209 255 L 209 255 L 209 313 L 209 313 L 209 329 L 209 329 L 193 329 L 120 329 L 120 313 L 120 313 L 120 255 L 120 255 L 120 239 L 120 239 Z M 193 313 L 193 255 L 193 313 L 193 255 L 136 255 L 136 255 L 136 313 L 136 313 L 193 313 L 193 313 Z M 136 375 L 136 432 L 136 375 L 136 432 L 193 432 L 193 432 L 193 375 L 193 375 L 136 375 L 136 375 Z M 209 0 L 209 16 L 209 0 L 209 16 L 209 74 L 209 74 L 209 90 L 209 90 L 193 90 L 120 90 L 120 74 L 120 74 L 120 16 L 120 16 L 120 0 L 120 0 L 136 0 L 209 0 Z M 209 120 L 209 136 L 209 120 L 209 136 L 209 193 L 209 193 L 209 209 L 209 209 L 193 209 L 120 209 L 120 193 L 120 193 L 120 136 L 120 136 L 120 120 L 120 120 L 136 120 L 209 120 Z M 209 358 L 209 374 L 209 358 L 209 374 L 209 432 L 209 432 L 209 448 L 209 448 L 193 448 L 120 448 L 120 432 L 120 432 L 120 374 L 120 374 L 120 358 L 120 358 L 136 358 L 209 358 Z M 313 16 L 255 16 L 313 16 L 255 16 L 255 74 L 255 74 L 313 74 L 313 74 L 313 16 L 313 16 Z M 313 136 L 255 136 L 313 136 L 255 136 L 255 193 L 255 193 L 313 193 L 313 193 L 313 136 L 313 136 Z M 239 255 L 239 239 L 239 255 L 239 239 L 255 239 L 329 239 L 329 255 L 329 255 L 329 313 L 329 313 L 329 329 L 329 329 L 313 329 L 239 329 L 239 313 L 239 313 L 239 255 L 239 255 Z M 255 313 L 313 313 L 255 313 L 313 313 L 313 255 L 313 255 L 255 255 L 255 255 L 255 313 L 255 313 Z M 313 374 L 255 374 L 313 374 L 255 374 L 255 432 L 255 432 L 313 432 L 313 432 L 313 374 L 313 374 Z M 313 0 L 329 0 L 313 0 L 329 0 L 329 16 L 329 16 L 329 74 L 329 74 L 329 90 L 329 90 L 313 90 L 239 90 L 239 74 L 239 74 L 239 16 L 239 16 L 239 0 L 239 0 L 255 0 L 313 0 Z M 313 120 L 329 120 L 313 120 L 329 120 L 329 136 L 329 136 L 329 193 L 329 193 L 329 209 L 329 209 L 313 209 L 239 209 L 239 193 L 239 193 L 239 136 L 239 136 L 239 120 L 239 120 L 255 120 L 313 120 Z M 313 358 L 329 358 L 313 358 L 329 358 L 329 374 L 329 374 L 329 432 L 329 432 L 329 448 L 329 448 L 313 448 L 239 448 L 239 432 L 239 432 L 239 374 L 239 374 L 239 358 L 239 358 L 255 358 L 313 358 Z M 374 16 L 374 74 L 374 16 L 374 74 L 432 74 L 432 74 L 432 16 L 432 16 L 374 16 L 374 16 Z M 374 136 L 374 193 L 374 136 L 374 193 L 432 193 L 432 193 L 432 136 L 432 136 L 374 136 L 374 136 Z M 358 239 L 374 239 L 358 239 L 448 239 L 448 255 L 448 255 L 448 313 L 448 313 L 448 329 L 448 329 L 432 329 L 358 329 L 358 313 L 358 313 L 358 255 L 358 255 L 358 239 L 358 239 Z M 432 313 L 432 255 L 432 313 L 432 255 L 374 255 L 374 255 L 374 313 L 374 313 L 432 313 L 432 313 Z M 374 374 L 374 432 L 374 374 L 374 432 L 432 432 L 432 432 L 432 374 L 432 374 L 374 374 L 374 374 Z M 448 0 L 448 16 L 448 0 L 448 16 L 448 74 L 448 74 L 448 90 L 448 90 L 432 90 L 358 90 L 358 74 L 358 74 L 358 16 L 358 16 L 358 0 L 358 0 L 374 0 L 448 0 Z M 448 120 L 448 136 L 448 120 L 448 136 L 448 193 L 448 193 L 448 209 L 448 209 L 432 209 L 358 209 L 358 193 L 358 193 L 358 136 L 358 136 L 358 120 L 358 120 L 374 120 L 448 120 Z M 448 358 L 448 374 L 448 358 L 448 374 L 448 432 L 448 432 L 448 448 L 448 448 L 432 448 L 358 448 L 358 432 L 358 432 L 358 374 L 358 374 L 358 358 L 358 358 L 374 358 L 448 358 Z" />
</svg>