<svg xmlns="http://www.w3.org/2000/svg" viewBox="0 0 640 480">
  <path d="M 512 0 L 0 0 L 512 0 L 0 0 L 0 448 L 0 448 L 384 448 L 384 448 L 384 384 L 384 384 L 360 384 L 360 384 L 360 320 L 360 320 L 384 320 L 384 320 L 384 256 L 384 256 L 360 256 L 360 256 L 360 192 L 360 192 L 427 192 L 427 192 Q 439 167 461 150 Q 483 133 512 129 L 512 0 L 512 0 Z M 152 64 L 152 128 L 152 64 L 152 128 L 64 128 L 64 128 L 64 64 L 64 64 L 152 64 L 152 64 Z M 208 64 L 296 64 L 208 64 L 296 64 L 296 128 L 296 128 L 208 128 L 208 128 L 208 64 L 208 64 Z M 448 64 L 448 128 L 448 64 L 448 128 L 360 128 L 360 128 L 360 64 L 360 64 L 448 64 L 448 64 Z M 64 192 L 152 192 L 64 192 L 152 192 L 152 256 L 152 256 L 64 256 L 64 256 L 64 192 L 64 192 Z M 296 192 L 296 256 L 296 192 L 296 256 L 208 256 L 208 256 L 208 192 L 208 192 L 296 192 L 296 192 Z M 152 320 L 152 384 L 152 320 L 152 384 L 64 384 L 64 384 L 64 320 L 64 320 L 152 320 L 152 320 Z M 208 320 L 296 320 L 208 320 L 296 320 L 296 384 L 296 384 L 208 384 L 208 384 L 208 320 L 208 320 Z M 496 240 Q 496 226 505 217 L 505 217 L 505 217 Q 514 208 528 208 Q 542 208 551 217 Q 560 226 560 240 L 608 240 L 608 240 Q 607 206 585 183 Q 562 161 528 160 Q 494 161 471 183 Q 449 206 448 240 L 448 288 L 448 288 L 416 288 L 416 288 L 416 480 L 416 480 L 640 480 L 640 480 L 640 288 L 640 288 L 608 288 L 496 288 L 496 240 L 496 240 Z" />
</svg>