<svg xmlns="http://www.w3.org/2000/svg" viewBox="0 0 512 512">
  <path d="M 256 16 Q 321 17 376 48 L 376 48 L 376 48 Q 431 80 464 136 Q 496 193 496 256 Q 496 319 464 376 Q 431 432 376 464 Q 321 495 256 496 Q 191 495 136 464 Q 81 432 48 376 Q 16 319 16 256 Q 16 193 48 136 Q 81 80 136 48 Q 191 17 256 16 L 256 16 Z M 256 512 Q 326 511 384 478 L 384 478 L 384 478 Q 442 444 478 384 Q 512 323 512 256 Q 512 189 478 128 Q 442 68 384 34 Q 326 1 256 0 Q 186 1 128 34 Q 70 68 34 128 Q 0 189 0 256 Q 0 323 34 384 Q 70 444 128 478 Q 186 511 256 512 L 256 512 Z M 211 128 L 209 132 L 211 128 L 209 132 L 195 160 L 195 160 L 136 160 L 128 160 L 128 168 L 128 168 L 128 344 L 128 344 L 128 352 L 128 352 L 136 352 L 384 352 L 384 344 L 384 344 L 384 168 L 384 168 L 384 160 L 384 160 L 376 160 L 317 160 L 303 132 L 303 132 L 301 128 L 301 128 L 296 128 L 211 128 Z M 221 144 L 291 144 L 221 144 L 291 144 L 305 172 L 305 172 L 307 176 L 307 176 L 312 176 L 368 176 L 368 336 L 368 336 L 144 336 L 144 336 L 144 176 L 144 176 L 200 176 L 205 176 L 207 172 L 207 172 L 221 144 L 221 144 Z M 256 304 Q 283 303 298 280 Q 310 256 298 232 Q 283 209 256 208 Q 229 209 214 232 Q 202 256 214 280 Q 229 303 256 304 L 256 304 Z M 224 256 Q 224 242 233 233 L 233 233 L 233 233 Q 242 224 256 224 Q 270 224 279 233 Q 288 242 288 256 Q 288 270 279 279 Q 270 288 256 288 Q 242 288 233 279 Q 224 270 224 256 L 224 256 Z" />
</svg>