<svg xmlns="http://www.w3.org/2000/svg" viewBox="0 0 288 512">
  <path d="M 8 0 L 0 0 L 8 0 L 0 0 L 0 8 L 0 8 L 0 96 L 0 96 L 0 112 L 0 112 L 0 448 L 0 448 L 0 464 L 0 464 L 0 504 L 0 504 L 0 512 L 0 512 L 16 512 L 16 512 L 16 504 L 16 504 L 16 464 L 16 464 L 272 464 L 272 464 L 272 504 L 272 504 L 272 512 L 272 512 L 288 512 L 288 512 L 288 504 L 288 504 L 288 464 L 288 464 L 288 448 L 288 448 L 288 112 L 288 112 L 288 96 L 288 96 L 288 8 L 288 8 L 288 0 L 288 0 L 280 0 L 8 0 Z M 16 448 L 16 112 L 16 448 L 16 112 L 272 112 L 272 112 L 272 448 L 272 448 L 16 448 L 16 448 Z M 16 96 L 16 16 L 16 96 L 16 16 L 272 16 L 272 16 L 272 96 L 272 96 L 16 96 L 16 96 Z M 216 216 L 208 216 L 216 216 L 208 216 L 208 224 L 208 224 L 208 320 L 208 320 L 208 328 L 208 328 L 216 328 L 256 328 L 256 312 L 256 312 L 248 312 L 224 312 L 224 232 L 224 232 L 248 232 L 256 232 L 256 216 L 256 216 L 248 216 L 216 216 Z" />
</svg>