<svg xmlns="http://www.w3.org/2000/svg" viewBox="0 0 512 448">
  <path d="M 224 0 L 272 64 L 224 0 L 272 64 L 496 64 L 512 64 L 512 80 L 512 80 L 512 432 L 512 432 L 512 448 L 512 448 L 496 448 L 0 448 L 0 432 L 0 432 L 0 16 L 0 16 L 0 0 L 0 0 L 16 0 L 224 0 Z M 272 80 L 264 80 L 272 80 L 264 80 L 259 74 L 259 74 L 216 16 L 216 16 L 16 16 L 16 16 L 16 432 L 16 432 L 496 432 L 496 432 L 496 80 L 496 80 L 272 80 L 272 80 Z M 96 224 L 96 288 L 96 224 L 96 288 L 160 288 L 160 288 L 160 224 L 160 224 L 96 224 L 96 224 Z M 80 208 L 96 208 L 80 208 L 176 208 L 176 224 L 176 224 L 176 288 L 176 288 L 176 304 L 176 304 L 160 304 L 80 304 L 80 288 L 80 288 L 80 224 L 80 224 L 80 208 L 80 208 Z M 224 224 L 224 288 L 224 224 L 224 288 L 288 288 L 288 288 L 288 224 L 288 224 L 224 224 L 224 224 Z M 208 208 L 224 208 L 208 208 L 304 208 L 304 224 L 304 224 L 304 288 L 304 288 L 304 304 L 304 304 L 288 304 L 208 304 L 208 288 L 208 288 L 208 224 L 208 224 L 208 208 L 208 208 Z M 416 224 L 352 224 L 416 224 L 352 224 L 352 288 L 352 288 L 416 288 L 416 288 L 416 224 L 416 224 Z M 352 208 L 416 208 L 352 208 L 432 208 L 432 224 L 432 224 L 432 288 L 432 288 L 432 304 L 432 304 L 416 304 L 336 304 L 336 288 L 336 288 L 336 224 L 336 224 L 336 208 L 336 208 L 352 208 L 352 208 Z" />
</svg>