<svg xmlns="http://www.w3.org/2000/svg" viewBox="0 0 576 512">
  <path d="M 280 0 L 288 0 L 280 0 L 384 0 L 384 16 L 384 16 L 376 16 L 296 16 L 296 96 L 296 96 L 376 96 L 384 96 L 384 112 L 384 112 L 376 112 L 296 112 L 296 224 L 296 224 Q 327 228 347 250 Q 367 272 368 304 Q 367 338 345 361 Q 322 383 288 384 Q 254 383 231 361 Q 209 338 208 304 Q 209 272 229 250 Q 249 228 280 224 L 280 104 L 280 104 L 280 8 L 280 8 L 280 0 L 280 0 Z M 224 304 Q 225 340 256 359 Q 288 377 320 359 Q 351 340 352 304 Q 351 268 320 249 Q 288 231 256 249 Q 225 268 224 304 L 224 304 Z M 130 322 Q 155 346 187 352 Q 191 360 196 368 Q 194 368 192 368 Q 170 367 152 357 Q 133 347 119 334 Q 104 319 96 309 Q 88 319 73 334 Q 59 347 40 357 Q 22 367 0 368 L 0 352 L 0 352 Q 17 352 33 343 Q 49 334 62 322 Q 75 310 82 301 Q 89 293 95 284 Q 95 283 95 283 L 96 282 L 96 282 L 97 283 L 97 283 Q 97 283 97 283 Q 97 283 97 283 Q 97 284 98 285 Q 103 293 110 301 Q 117 310 130 322 L 130 322 Z M 384 368 Q 382 368 380 368 Q 385 360 389 352 Q 421 346 446 322 Q 459 310 466 301 Q 473 292 479 284 Q 479 283 479 283 Q 479 283 479 283 Q 479 283 479 283 Q 479 283 479 283 Q 479 283 479 283 L 480 282 L 480 282 L 480 283 L 480 283 Q 480 283 480 283 Q 480 283 480 283 Q 481 284 482 285 Q 487 293 494 301 Q 501 310 514 322 Q 527 334 543 343 Q 559 352 576 352 L 576 368 L 576 368 Q 554 367 536 357 Q 517 347 503 334 Q 488 319 480 309 Q 472 319 457 334 Q 443 347 424 357 Q 406 367 384 368 L 384 368 Z M 97 427 Q 97 428 98 429 L 98 429 L 98 429 Q 104 437 110 445 Q 117 454 130 466 Q 143 478 159 487 Q 175 496 192 496 Q 209 496 225 487 Q 241 478 254 466 Q 267 454 274 445 Q 281 437 287 428 Q 287 427 287 427 L 288 426 L 288 426 L 289 427 L 289 427 Q 289 428 290 429 Q 295 437 302 445 Q 309 454 322 466 Q 335 478 351 487 Q 367 496 384 496 Q 401 496 417 487 Q 433 478 446 466 Q 459 454 466 445 Q 473 437 479 428 Q 479 427 479 427 Q 479 427 479 427 Q 479 427 479 427 Q 479 427 479 427 Q 479 427 479 427 L 480 426 L 480 426 L 481 427 L 481 427 Q 481 427 481 427 Q 481 427 481 427 Q 481 427 481 427 Q 481 427 481 427 Q 481 428 482 429 Q 487 437 494 445 Q 501 454 514 466 Q 527 478 543 487 Q 559 496 576 496 L 576 512 L 576 512 Q 554 511 536 501 Q 517 491 503 478 Q 488 463 480 453 Q 472 463 457 478 Q 443 491 424 501 Q 406 511 384 512 Q 362 511 344 501 Q 325 491 311 478 Q 296 463 288 453 Q 280 463 265 478 Q 251 491 232 501 Q 214 511 192 512 Q 170 511 152 501 Q 133 491 119 478 Q 104 463 96 453 Q 88 463 73 478 Q 59 491 40 501 Q 22 511 0 512 L 0 496 L 0 496 Q 17 496 33 487 Q 49 478 62 466 Q 75 454 82 445 Q 89 437 95 428 Q 95 427 95 427 Q 95 427 95 427 Q 95 427 95 427 L 96 426 L 96 426 L 97 427 L 97 427 Z" />
</svg>