<svg xmlns="http://www.w3.org/2000/svg" viewBox="0 0 504 512">
  <path d="M 352 192 L 352 304 L 352 192 L 352 304 L 384 304 L 384 304 L 384 152 L 384 152 L 232 0 L 232 0 L 32 0 L 0 0 L 0 32 L 0 32 L 0 480 L 0 480 L 0 512 L 0 512 L 32 512 L 112 512 L 112 480 L 112 480 L 32 480 L 32 480 L 32 32 L 32 32 L 192 32 L 192 32 L 192 176 L 192 176 L 192 192 L 192 192 L 208 192 L 352 192 Z M 347 160 L 224 160 L 347 160 L 224 160 L 224 37 L 224 37 L 347 160 L 347 160 Z M 160 352 L 160 368 L 160 352 L 160 368 L 160 432 L 160 432 L 160 496 L 160 496 L 160 512 L 160 512 L 176 512 L 256 512 L 256 480 L 256 480 L 240 480 L 192 480 L 192 448 L 192 448 L 224 448 L 240 448 L 240 416 L 240 416 L 224 416 L 192 416 L 192 384 L 192 384 L 240 384 L 256 384 L 256 352 L 256 352 L 240 352 L 160 352 Z M 304 352 L 288 352 L 304 352 L 288 352 L 288 368 L 288 368 L 288 448 L 288 448 L 288 496 L 288 496 L 288 512 L 288 512 L 320 512 L 320 512 L 320 496 L 320 496 L 320 464 L 320 464 L 336 464 L 336 464 Q 360 463 376 448 Q 391 432 392 408 Q 391 384 376 368 Q 360 353 336 352 L 304 352 L 304 352 Z M 336 432 L 320 432 L 336 432 L 320 432 L 320 384 L 320 384 L 336 384 L 336 384 Q 358 386 360 408 Q 358 430 336 432 L 336 432 Z M 454 352 Q 434 352 421 365 L 421 365 L 421 365 Q 408 378 408 398 Q 409 425 433 439 L 464 454 L 464 454 Q 472 458 472 466 Q 471 479 458 480 L 424 480 L 408 480 L 408 512 L 408 512 L 424 512 L 458 512 Q 478 512 491 499 Q 504 486 504 466 Q 503 439 479 426 L 448 410 L 448 410 Q 440 406 440 398 Q 441 385 454 384 L 480 384 L 496 384 L 496 352 L 496 352 L 480 352 L 454 352 Z" />
</svg>