<svg xmlns="http://www.w3.org/2000/svg" viewBox="0 0 512 512">
  <path d="M 224 80 L 288 80 L 224 80 L 288 80 L 288 16 L 288 16 L 224 16 L 224 16 L 224 80 L 224 80 Z M 208 96 L 208 80 L 208 96 L 208 80 L 208 16 L 208 16 L 208 0 L 208 0 L 224 0 L 304 0 L 304 16 L 304 16 L 304 80 L 304 80 L 304 96 L 304 96 L 288 96 L 208 96 Z M 80 224 L 16 224 L 80 224 L 16 224 L 16 288 L 16 288 L 80 288 L 80 288 L 80 224 L 80 224 Z M 16 208 L 80 208 L 16 208 L 96 208 L 96 224 L 96 224 L 96 288 L 96 288 L 96 304 L 96 304 L 80 304 L 0 304 L 0 288 L 0 288 L 0 224 L 0 224 L 0 208 L 0 208 L 16 208 L 16 208 Z M 224 432 L 224 496 L 224 432 L 224 496 L 288 496 L 288 496 L 288 432 L 288 432 L 224 432 L 224 432 Z M 208 496 L 208 432 L 208 496 L 208 432 L 208 416 L 208 416 L 224 416 L 304 416 L 304 432 L 304 432 L 304 496 L 304 496 L 304 512 L 304 512 L 288 512 L 208 512 L 208 496 L 208 496 Z M 432 224 L 432 288 L 432 224 L 432 288 L 496 288 L 496 288 L 496 224 L 496 224 L 432 224 L 432 224 Z M 416 208 L 432 208 L 416 208 L 512 208 L 512 224 L 512 224 L 512 288 L 512 288 L 512 304 L 512 304 L 496 304 L 416 304 L 416 288 L 416 288 L 416 224 L 416 224 L 416 208 L 416 208 Z M 109 358 L 64 403 L 109 358 L 64 403 L 109 448 L 109 448 L 154 403 L 154 403 L 109 358 L 109 358 Z M 52 392 L 98 347 L 52 392 L 98 347 L 109 335 L 109 335 L 120 347 L 120 347 L 166 392 L 166 392 L 177 403 L 177 403 L 166 414 L 166 414 L 120 460 L 120 460 L 109 471 L 109 471 L 98 460 L 98 460 L 52 414 L 52 414 L 41 403 L 41 403 L 52 392 L 52 392 Z M 358 403 L 403 448 L 358 403 L 403 448 L 448 403 L 448 403 L 403 358 L 403 358 L 358 403 L 358 403 Z M 392 460 L 347 414 L 392 460 L 347 414 L 335 403 L 335 403 L 347 392 L 347 392 L 392 347 L 392 347 L 403 335 L 403 335 L 414 347 L 414 347 L 460 392 L 460 392 L 471 403 L 471 403 L 460 414 L 460 414 L 414 460 L 414 460 L 403 471 L 403 471 L 392 460 L 392 460 Z M 109 154 L 154 109 L 109 154 L 154 109 L 109 64 L 109 64 L 64 109 L 64 109 L 109 154 L 109 154 Z M 109 177 L 98 166 L 109 177 L 98 166 L 52 120 L 52 120 L 41 109 L 41 109 L 52 98 L 52 98 L 98 52 L 98 52 L 109 41 L 109 41 L 120 52 L 120 52 L 166 98 L 166 98 L 177 109 L 177 109 L 166 120 L 166 120 L 120 166 L 120 166 L 109 177 L 109 177 Z" />
</svg>