<svg xmlns="http://www.w3.org/2000/svg" viewBox="0 0 585 512">
  <path d="M 512 112 Q 539 111 554 88 Q 566 64 554 40 Q 539 17 512 16 Q 485 17 470 40 Q 458 64 470 88 Q 485 111 512 112 L 512 112 Z M 512 0 Q 548 1 567 32 Q 585 64 567 96 Q 548 127 512 128 Q 476 127 457 96 Q 439 64 457 32 Q 476 1 512 0 L 512 0 Z M 224 496 Q 312 494 371 435 L 371 435 L 371 435 Q 430 376 432 288 Q 431 213 386 158 Q 342 103 272 86 L 280 143 L 280 143 L 280 147 L 280 147 L 278 149 L 278 149 L 187 256 L 187 256 L 211 280 L 211 280 L 320 280 L 328 280 L 328 288 L 328 288 L 328 352 L 328 352 L 328 354 L 328 354 L 327 356 L 327 356 L 271 460 L 271 460 L 269 464 L 269 464 L 264 464 L 216 464 L 216 456 L 216 456 L 216 392 L 216 392 L 192 392 L 184 392 L 184 384 L 184 384 L 184 323 L 184 323 L 125 264 L 125 264 L 64 264 L 61 264 L 58 262 L 58 262 L 25 228 L 25 228 Q 16 257 16 288 Q 18 376 77 435 Q 136 494 224 496 L 224 496 Z M 31 211 L 67 248 L 31 211 L 67 248 L 128 248 L 131 248 L 134 250 L 134 250 L 198 314 L 198 314 L 200 317 L 200 317 L 200 320 L 200 320 L 200 376 L 200 376 L 224 376 L 232 376 L 232 384 L 232 384 L 232 448 L 232 448 L 259 448 L 259 448 L 312 350 L 312 350 L 312 296 L 312 296 L 208 296 L 205 296 L 202 294 L 202 294 L 170 262 L 170 262 L 165 257 L 165 257 L 170 251 L 170 251 L 264 142 L 264 142 L 255 83 L 255 83 Q 240 80 224 80 Q 157 81 106 117 Q 54 153 31 211 L 31 211 Z M 269 69 Q 347 86 397 146 L 397 146 L 397 146 Q 446 205 448 288 Q 447 351 417 401 Q 388 452 337 481 Q 287 511 224 512 Q 161 511 111 481 Q 60 452 31 401 Q 1 351 0 288 Q 1 225 31 175 Q 60 124 111 95 Q 161 65 224 64 Q 239 64 253 66 Q 261 67 269 69 L 269 69 L 269 69 Z" />
</svg>