<svg xmlns="http://www.w3.org/2000/svg" viewBox="0 0 568 512">
  <path d="M 353 225 L 342 230 L 353 225 L 342 230 L 344 242 L 344 242 L 349 272 L 349 272 L 227 272 L 227 272 L 232 242 L 232 242 L 234 230 L 234 230 L 224 225 L 224 225 Q 194 209 177 184 Q 160 159 160 128 Q 161 82 197 49 Q 232 17 288 16 Q 344 17 379 49 Q 415 82 416 128 Q 416 159 399 184 Q 382 209 353 225 L 353 225 Z M 368 288 L 365 272 L 368 288 L 365 272 L 360 239 L 360 239 Q 393 222 412 193 Q 432 164 432 128 Q 430 74 390 37 Q 349 1 288 0 Q 227 1 186 37 Q 146 74 144 128 Q 144 164 164 193 Q 183 222 216 239 L 211 272 L 211 272 L 208 288 L 208 288 L 224 288 L 368 288 Z M 256 144 Q 255 159 240 160 Q 225 159 224 144 Q 225 129 240 128 Q 255 129 256 144 L 256 144 Z M 240 112 Q 226 112 217 121 L 217 121 L 217 121 Q 208 130 208 144 Q 208 158 217 167 Q 226 176 240 176 Q 254 176 263 167 Q 272 158 272 144 Q 272 130 263 121 Q 254 112 240 112 L 240 112 Z M 336 160 Q 321 159 320 144 Q 321 129 336 128 Q 351 129 352 144 Q 351 159 336 160 L 336 160 Z M 304 144 Q 304 158 313 167 L 313 167 L 313 167 Q 322 176 336 176 Q 350 176 359 167 Q 368 158 368 144 Q 368 130 359 121 Q 350 112 336 112 Q 322 112 313 121 Q 304 130 304 144 L 304 144 Z M 152 320 L 149 320 L 152 320 L 149 320 L 147 322 L 147 322 L 69 384 L 69 384 L 8 384 L 0 384 L 0 400 L 0 400 L 8 400 L 74 400 L 77 398 L 77 398 L 154 336 L 154 336 L 368 336 L 368 336 L 368 376 L 368 376 L 248 376 L 240 376 L 240 384 L 240 384 L 240 424 L 240 424 L 240 432 L 240 432 L 248 432 L 400 432 L 402 431 L 402 431 L 518 351 L 518 351 L 545 390 L 545 390 L 392 496 L 392 496 L 8 496 L 0 496 L 0 512 L 0 512 L 8 512 L 396 512 L 398 511 L 398 511 L 561 399 L 561 399 L 568 394 L 568 394 L 563 388 L 563 388 L 527 335 L 527 335 L 522 328 L 522 328 L 516 333 L 516 333 L 395 416 L 395 416 L 256 416 L 256 416 L 256 392 L 256 392 L 376 392 L 384 392 L 384 384 L 384 384 L 384 328 L 384 328 L 384 320 L 384 320 L 376 320 L 152 320 Z" />
</svg>