<svg xmlns="http://www.w3.org/2000/svg" viewBox="0 0 640 512">
  <path d="M 496 256 L 496 258 L 496 256 L 496 258 L 512 246 L 512 246 Q 508 176 474 121 Q 439 66 382 33 Q 326 1 256 0 Q 184 1 127 35 Q 69 69 35 127 Q 1 184 0 256 Q 1 328 35 385 Q 69 443 127 477 Q 184 511 256 512 Q 317 512 368 486 Q 419 461 455 418 L 455 416 L 455 416 L 435 416 L 435 416 Q 402 453 356 474 Q 310 496 256 496 Q 189 495 135 463 Q 81 431 49 377 Q 17 323 16 256 Q 17 189 49 135 Q 81 81 135 49 Q 189 17 256 16 Q 323 17 377 49 Q 431 81 463 135 Q 495 189 496 256 L 496 256 Z M 144 144 L 176 144 L 144 144 L 176 144 L 176 208 L 176 208 L 144 208 L 144 208 L 144 144 L 144 144 Z M 128 128 L 128 144 L 128 128 L 128 144 L 128 208 L 128 208 L 128 224 L 128 224 L 144 224 L 192 224 L 192 208 L 192 208 L 192 144 L 192 144 L 192 128 L 192 128 L 176 128 L 128 128 Z M 240 144 L 272 144 L 240 144 L 272 144 L 272 208 L 272 208 L 240 208 L 240 208 L 240 144 L 240 144 Z M 240 128 L 224 128 L 240 128 L 224 128 L 224 144 L 224 144 L 224 208 L 224 208 L 224 224 L 224 224 L 240 224 L 288 224 L 288 208 L 288 208 L 288 144 L 288 144 L 288 128 L 288 128 L 272 128 L 240 128 Z M 336 144 L 368 144 L 336 144 L 368 144 L 368 208 L 368 208 L 336 208 L 336 208 L 336 144 L 336 144 Z M 320 128 L 320 144 L 320 128 L 320 144 L 320 208 L 320 208 L 320 224 L 320 224 L 336 224 L 384 224 L 384 208 L 384 208 L 384 144 L 384 144 L 384 128 L 384 128 L 368 128 L 320 128 Z M 470 487 L 464 512 L 470 487 L 464 512 L 484 496 L 484 496 L 640 376 L 640 376 L 640 368 L 640 368 L 640 352 L 640 352 L 624 352 L 560 352 L 564 336 L 564 336 L 586 249 L 586 249 L 592 224 L 592 224 L 572 240 L 572 240 L 416 360 L 416 360 L 416 368 L 416 368 L 416 384 L 416 384 L 432 384 L 496 384 L 492 400 L 492 400 L 470 487 L 470 487 Z M 496 368 L 432 368 L 496 368 L 432 368 L 432 368 L 432 368 L 565 265 L 565 265 L 545 348 L 545 348 L 540 368 L 540 368 L 560 368 L 624 368 L 624 368 L 624 368 L 491 471 L 491 471 L 512 388 L 512 388 L 517 368 L 517 368 L 496 368 L 496 368 Z" />
</svg>