<svg xmlns="http://www.w3.org/2000/svg" viewBox="0 0 640 384">
  <path d="M 0 0 L 640 0 L 0 0 L 640 0 L 640 144 L 640 144 Q 620 145 606 158 Q 593 172 592 192 Q 593 212 606 226 Q 620 239 640 240 L 640 384 L 640 384 L 0 384 L 0 384 L 0 0 L 0 0 Z M 448 64 Q 447 49 432 48 Q 417 49 416 64 Q 417 79 432 80 Q 447 79 448 64 L 448 64 Z M 448 128 Q 447 113 432 112 Q 417 113 416 128 Q 417 143 432 144 Q 447 143 448 128 L 448 128 Z M 432 208 Q 447 207 448 192 Q 447 177 432 176 Q 417 177 416 192 Q 417 207 432 208 L 432 208 Z M 448 256 Q 447 241 432 240 Q 417 241 416 256 Q 417 271 432 272 Q 447 271 448 256 L 448 256 Z M 432 336 Q 447 335 448 320 Q 447 305 432 304 Q 417 305 416 320 Q 417 335 432 336 L 432 336 Z" />
</svg>