<svg xmlns="http://www.w3.org/2000/svg" viewBox="0 0 384 512">
  <path d="M 17 224 L 0 224 L 17 224 L 0 224 L 5 208 L 5 208 L 64 0 L 64 0 L 320 0 L 320 0 L 379 208 L 379 208 L 384 224 L 384 224 L 367 224 L 17 224 Z M 363 208 L 308 16 L 363 208 L 308 16 L 76 16 L 76 16 L 21 208 L 21 208 L 363 208 L 363 208 Z M 72 496 L 184 496 L 72 496 L 184 496 L 184 256 L 184 256 L 200 256 L 200 256 L 200 496 L 200 496 L 312 496 L 320 496 L 320 512 L 320 512 L 312 512 L 64 512 L 64 496 L 64 496 L 72 496 L 72 496 Z" />
</svg>