<svg xmlns="http://www.w3.org/2000/svg" viewBox="0 0 512 448">
  <path d="M 176 0 L 176 16 L 176 0 L 176 16 L 176 32 L 176 32 L 176 48 L 176 48 L 192 48 L 240 48 L 240 32 L 240 32 L 240 16 L 240 16 L 240 0 L 240 0 L 224 0 L 176 0 Z M 200 32 L 192 32 L 200 32 L 192 32 L 192 16 L 192 16 L 200 16 L 224 16 L 224 32 L 224 32 L 216 32 L 200 32 Z M 192 88 L 200 88 L 192 88 L 224 88 L 224 104 L 224 104 L 216 104 L 192 104 L 192 88 L 192 88 Z M 32 144 L 32 160 L 32 144 L 32 160 L 32 176 L 32 176 L 32 192 L 32 192 L 48 192 L 96 192 L 96 176 L 96 176 L 96 160 L 96 160 L 96 144 L 96 144 L 80 144 L 32 144 Z M 56 176 L 48 176 L 56 176 L 48 176 L 48 160 L 48 160 L 56 160 L 80 160 L 80 176 L 80 176 L 72 176 L 56 176 Z M 224 144 L 224 160 L 224 144 L 224 160 L 224 176 L 224 176 L 224 192 L 224 192 L 240 192 L 288 192 L 288 176 L 288 176 L 288 160 L 288 160 L 288 144 L 288 144 L 272 144 L 224 144 Z M 248 176 L 240 176 L 248 176 L 240 176 L 240 160 L 240 160 L 248 160 L 272 160 L 272 176 L 272 176 L 264 176 L 248 176 Z M 128 144 L 128 160 L 128 144 L 128 160 L 128 176 L 128 176 L 128 192 L 128 192 L 144 192 L 192 192 L 192 176 L 192 176 L 192 160 L 192 160 L 192 144 L 192 144 L 176 144 L 128 144 Z M 152 176 L 144 176 L 152 176 L 144 176 L 144 160 L 144 160 L 152 160 L 176 160 L 176 176 L 176 176 L 168 176 L 152 176 Z M 96 88 L 104 88 L 96 88 L 128 88 L 128 104 L 128 104 L 120 104 L 96 104 L 96 88 L 96 88 Z M 320 144 L 320 160 L 320 144 L 320 160 L 320 176 L 320 176 L 320 192 L 320 192 L 336 192 L 384 192 L 384 176 L 384 176 L 384 160 L 384 160 L 384 144 L 384 144 L 368 144 L 320 144 Z M 344 176 L 336 176 L 344 176 L 336 176 L 336 160 L 336 160 L 344 160 L 368 160 L 368 176 L 368 176 L 360 176 L 344 176 Z M 288 88 L 296 88 L 288 88 L 320 88 L 320 104 L 320 104 L 312 104 L 288 104 L 288 88 L 288 88 Z M 416 144 L 416 160 L 416 144 L 416 160 L 416 176 L 416 176 L 416 192 L 416 192 L 432 192 L 480 192 L 480 176 L 480 176 L 480 160 L 480 160 L 480 144 L 480 144 L 464 144 L 416 144 Z M 440 176 L 432 176 L 440 176 L 432 176 L 432 160 L 432 160 L 440 160 L 464 160 L 464 176 L 464 176 L 456 176 L 440 176 Z M 384 88 L 392 88 L 384 88 L 416 88 L 416 104 L 416 104 L 408 104 L 384 104 L 384 88 L 384 88 Z M 288 16 L 296 16 L 288 16 L 320 16 L 320 32 L 320 32 L 312 32 L 288 32 L 288 16 L 288 16 Z M 200 72 L 192 72 L 200 72 L 176 72 L 176 88 L 176 88 L 176 104 L 176 104 L 176 120 L 176 120 L 192 120 L 240 120 L 240 104 L 240 104 L 240 88 L 240 88 L 240 72 L 240 72 L 224 72 L 200 72 Z M 104 72 L 96 72 L 104 72 L 80 72 L 80 88 L 80 88 L 80 104 L 80 104 L 80 120 L 80 120 L 96 120 L 144 120 L 144 104 L 144 104 L 144 88 L 144 88 L 144 72 L 144 72 L 128 72 L 104 72 Z M 296 72 L 288 72 L 296 72 L 272 72 L 272 88 L 272 88 L 272 104 L 272 104 L 272 120 L 272 120 L 288 120 L 336 120 L 336 104 L 336 104 L 336 88 L 336 88 L 336 72 L 336 72 L 320 72 L 296 72 Z M 392 72 L 384 72 L 392 72 L 368 72 L 368 88 L 368 88 L 368 104 L 368 104 L 368 120 L 368 120 L 384 120 L 432 120 L 432 104 L 432 104 L 432 88 L 432 88 L 432 72 L 432 72 L 416 72 L 392 72 Z M 296 0 L 288 0 L 296 0 L 272 0 L 272 16 L 272 16 L 272 32 L 272 32 L 272 48 L 272 48 L 288 48 L 336 48 L 336 32 L 336 32 L 336 16 L 336 16 L 336 0 L 336 0 L 320 0 L 296 0 Z M 112 400 L 112 390 L 112 400 L 112 390 L 103 385 L 103 385 Q 64 366 40 330 Q 17 294 16 248 L 16 240 L 16 240 L 496 240 L 496 240 L 496 248 L 496 248 Q 495 294 472 330 Q 448 366 409 385 L 400 390 L 400 390 L 400 400 L 400 400 L 400 432 L 400 432 L 112 432 L 112 432 L 112 400 L 112 400 Z M 512 224 L 496 224 L 512 224 L 0 224 L 0 240 L 0 240 L 0 248 L 0 248 Q 1 299 27 339 Q 53 379 96 400 L 96 432 L 96 432 L 96 448 L 96 448 L 112 448 L 416 448 L 416 432 L 416 432 L 416 400 L 416 400 Q 459 379 485 339 Q 511 299 512 248 L 512 240 L 512 240 L 512 224 L 512 224 Z" />
</svg>