<svg xmlns="http://www.w3.org/2000/svg" viewBox="0 0 640 448">
  <path d="M 144 88 Q 145 57 165 37 L 165 37 L 165 37 Q 185 17 216 16 Q 247 17 267 37 Q 287 57 288 88 L 288 104 L 288 104 Q 288 144 282 184 L 118 232 L 118 232 L 112 234 L 112 234 L 112 240 L 112 240 L 112 440 L 112 440 L 112 448 L 112 448 L 120 448 L 197 448 L 199 444 L 199 444 L 239 369 L 239 369 Q 272 307 287 238 L 292 217 L 292 217 Q 294 207 296 197 Q 296 197 296 196 L 454 150 L 454 150 L 385 260 L 385 260 L 378 272 L 378 272 L 392 272 L 568 272 Q 575 271 576 264 Q 575 257 568 256 L 406 256 L 406 256 L 479 140 L 479 140 L 490 122 L 490 122 L 470 128 L 470 128 L 299 179 L 299 179 Q 304 142 304 104 L 304 88 L 304 88 Q 303 51 278 26 Q 253 1 216 0 Q 179 1 154 26 Q 129 51 128 88 L 128 128 L 128 128 Q 129 135 136 136 Q 143 135 144 128 L 144 88 L 144 88 Z M 128 246 L 278 202 L 128 246 L 278 202 Q 278 204 277 207 Q 277 210 276 213 L 271 235 L 271 235 Q 256 301 225 361 L 187 432 L 187 432 L 128 432 L 128 432 L 128 246 L 128 246 Z M 8 336 L 0 336 L 8 336 L 0 336 L 0 352 L 0 352 L 8 352 L 64 352 L 64 336 L 64 336 L 56 336 L 8 336 Z M 328 336 L 320 336 L 328 336 L 320 336 L 320 352 L 320 352 L 328 352 L 640 352 L 640 336 L 640 336 L 632 336 L 328 336 Z" />
</svg>