<svg xmlns="http://www.w3.org/2000/svg" viewBox="0 0 448 512">
  <path d="M 216 507 L 224 512 L 216 507 L 224 512 L 232 507 L 232 507 L 448 384 L 448 384 L 448 131 L 448 131 L 448 122 L 448 122 L 440 117 L 440 117 L 224 0 L 224 0 L 8 120 L 8 120 L 0 125 L 0 125 L 0 134 L 0 134 L 0 384 L 0 384 L 216 507 L 216 507 Z M 16 375 L 16 144 L 16 375 L 16 144 L 216 261 L 216 261 L 216 489 L 216 489 L 16 375 L 16 375 Z M 24 130 L 224 18 L 24 130 L 224 18 L 424 127 L 424 127 L 224 247 L 224 247 L 24 130 L 24 130 Z M 432 140 L 432 375 L 432 140 L 432 375 L 232 489 L 232 489 L 232 261 L 232 261 L 432 140 L 432 140 Z" />
</svg>