<svg xmlns="http://www.w3.org/2000/svg" viewBox="0 0 416 448">
  <path d="M 200 440 L 200 448 L 200 440 L 200 448 L 216 448 L 216 448 L 216 440 L 216 440 L 216 8 L 216 8 L 216 0 L 216 0 L 200 0 L 200 0 L 200 8 L 200 8 L 200 440 L 200 440 Z M 32 432 L 32 400 L 32 432 L 32 400 L 0 400 L 0 400 L 0 432 L 0 432 L 32 432 L 32 432 Z M 416 432 L 416 400 L 416 432 L 416 400 L 384 400 L 384 400 L 384 432 L 384 432 L 416 432 L 416 432 Z M 32 336 L 32 304 L 32 336 L 32 304 L 0 304 L 0 304 L 0 336 L 0 336 L 32 336 L 32 336 Z M 416 336 L 416 304 L 416 336 L 416 304 L 384 304 L 384 304 L 384 336 L 384 336 L 416 336 L 416 336 Z M 384 144 L 416 144 L 384 144 L 416 144 L 416 112 L 416 112 L 384 112 L 384 112 L 384 144 L 384 144 Z M 32 144 L 32 112 L 32 144 L 32 112 L 0 112 L 0 112 L 0 144 L 0 144 L 32 144 L 32 144 Z M 384 240 L 416 240 L 384 240 L 416 240 L 416 208 L 416 208 L 384 208 L 384 208 L 384 240 L 384 240 Z M 32 240 L 32 208 L 32 240 L 32 208 L 0 208 L 0 208 L 0 240 L 0 240 L 32 240 L 32 240 Z M 384 48 L 416 48 L 384 48 L 416 48 L 416 16 L 416 16 L 384 16 L 384 16 L 384 48 L 384 48 Z M 0 48 L 32 48 L 0 48 L 32 48 L 32 16 L 32 16 L 0 16 L 0 16 L 0 48 L 0 48 Z M 288 240 L 320 240 L 288 240 L 320 240 L 320 208 L 320 208 L 288 208 L 288 208 L 288 240 L 288 240 Z M 320 48 L 320 16 L 320 48 L 320 16 L 288 16 L 288 16 L 288 48 L 288 48 L 320 48 L 320 48 Z M 288 432 L 320 432 L 288 432 L 320 432 L 320 400 L 320 400 L 288 400 L 288 400 L 288 432 L 288 432 Z M 128 48 L 128 16 L 128 48 L 128 16 L 96 16 L 96 16 L 96 48 L 96 48 L 128 48 L 128 48 Z M 96 432 L 128 432 L 96 432 L 128 432 L 128 400 L 128 400 L 96 400 L 96 400 L 96 432 L 96 432 Z M 128 240 L 128 208 L 128 240 L 128 208 L 96 208 L 96 208 L 96 240 L 96 240 L 128 240 L 128 240 Z" />
</svg>