<svg xmlns="http://www.w3.org/2000/svg" viewBox="0 0 448 448">
  <path d="M 160 0 L 160 8 L 160 0 L 160 8 L 160 152 L 160 152 L 160 160 L 160 160 L 152 160 L 0 160 L 0 144 L 0 144 L 8 144 L 144 144 L 144 8 L 144 8 L 144 0 L 144 0 L 160 0 L 160 0 Z M 304 0 L 304 8 L 304 0 L 304 8 L 304 144 L 304 144 L 440 144 L 448 144 L 448 160 L 448 160 L 440 160 L 288 160 L 288 152 L 288 152 L 288 8 L 288 8 L 288 0 L 288 0 L 304 0 L 304 0 Z M 0 288 L 8 288 L 0 288 L 160 288 L 160 296 L 160 296 L 160 440 L 160 440 L 160 448 L 160 448 L 144 448 L 144 448 L 144 440 L 144 440 L 144 304 L 144 304 L 8 304 L 0 304 L 0 288 L 0 288 Z M 288 288 L 296 288 L 288 288 L 448 288 L 448 304 L 448 304 L 440 304 L 304 304 L 304 440 L 304 440 L 304 448 L 304 448 L 288 448 L 288 448 L 288 440 L 288 440 L 288 296 L 288 296 L 288 288 L 288 288 Z" />
</svg>