<svg xmlns="http://www.w3.org/2000/svg" viewBox="0 0 576 512">
  <path d="M 0 80 Q 1 46 23 23 L 23 23 L 23 23 Q 46 1 80 0 L 88 0 L 96 0 L 96 16 L 96 16 L 88 16 L 80 16 Q 53 17 35 35 Q 17 53 16 80 L 16 96 L 16 96 L 112 96 L 128 96 L 128 112 L 128 112 L 128 208 L 128 208 L 128 224 L 128 224 L 112 224 L 0 224 L 0 208 L 0 208 L 0 160 L 0 160 L 0 112 L 0 112 L 0 96 L 0 96 L 0 80 L 0 80 Z M 16 112 L 16 160 L 16 112 L 16 160 L 16 208 L 16 208 L 112 208 L 112 208 L 112 112 L 112 112 L 16 112 L 16 112 Z M 160 80 Q 161 46 183 23 L 183 23 L 183 23 Q 206 1 240 0 L 248 0 L 256 0 L 256 16 L 256 16 L 248 16 L 240 16 Q 213 17 195 35 Q 177 53 176 80 L 176 96 L 176 96 L 272 96 L 288 96 L 288 112 L 288 112 L 288 208 L 288 208 L 288 224 L 288 224 L 272 224 L 160 224 L 160 208 L 160 208 L 160 160 L 160 160 L 160 112 L 160 112 L 160 96 L 160 96 L 160 80 L 160 80 Z M 176 160 L 176 208 L 176 160 L 176 208 L 272 208 L 272 208 L 272 112 L 272 112 L 176 112 L 176 112 L 176 160 L 176 160 Z M 576 432 Q 575 466 553 489 L 553 489 L 553 489 Q 530 511 496 512 L 488 512 L 480 512 L 480 496 L 480 496 L 488 496 L 496 496 Q 523 495 541 477 Q 559 459 560 432 L 560 416 L 560 416 L 464 416 L 448 416 L 448 400 L 448 400 L 448 304 L 448 304 L 448 288 L 448 288 L 464 288 L 576 288 L 576 304 L 576 304 L 576 352 L 576 352 L 576 400 L 576 400 L 576 416 L 576 416 L 576 432 L 576 432 Z M 560 400 L 560 352 L 560 400 L 560 352 L 560 304 L 560 304 L 464 304 L 464 304 L 464 400 L 464 400 L 560 400 L 560 400 Z M 416 432 Q 415 466 393 489 L 393 489 L 393 489 Q 370 511 336 512 L 328 512 L 320 512 L 320 496 L 320 496 L 328 496 L 336 496 Q 363 495 381 477 Q 399 459 400 432 L 400 416 L 400 416 L 304 416 L 288 416 L 288 400 L 288 400 L 288 304 L 288 304 L 288 288 L 288 288 L 304 288 L 416 288 L 416 304 L 416 304 L 416 352 L 416 352 L 416 400 L 416 400 L 416 416 L 416 416 L 416 432 L 416 432 Z M 400 352 L 400 304 L 400 352 L 400 304 L 304 304 L 304 304 L 304 400 L 304 400 L 400 400 L 400 400 L 400 352 L 400 352 Z" />
</svg>