<svg xmlns="http://www.w3.org/2000/svg" viewBox="0 0 640 508">
  <path d="M 377 77 L 415 8 L 377 77 L 415 8 L 401 0 L 401 0 L 361 72 L 361 72 L 359 75 L 359 75 L 360 79 L 360 79 L 375 121 L 375 121 L 320 157 L 320 157 L 320 134 L 320 134 L 320 102 L 320 102 L 296 102 L 296 102 L 296 60 L 296 60 L 296 52 L 296 52 L 280 52 L 280 52 L 280 60 L 280 60 L 280 102 L 280 102 L 256 102 L 256 102 L 256 134 L 256 134 L 256 157 L 256 157 L 202 121 L 202 121 L 216 79 L 216 79 L 217 75 L 217 75 L 215 72 L 215 72 L 175 0 L 175 0 L 161 8 L 161 8 L 199 77 L 199 77 L 184 122 L 184 122 L 183 127 L 183 127 L 188 131 L 188 131 L 250 172 L 250 172 L 76 198 L 76 198 Q 43 203 22 227 Q 1 251 0 285 Q 1 324 26 347 Q 51 371 86 372 Q 120 373 149 347 L 256 253 L 256 253 L 256 273 L 256 273 L 202 326 L 202 326 L 200 329 L 200 329 L 200 332 L 200 332 L 200 378 L 200 378 L 161 448 L 161 448 L 175 456 L 175 456 L 215 384 L 215 384 L 216 382 L 216 382 L 216 380 L 216 380 L 216 335 L 216 335 L 256 295 L 256 295 L 256 357 L 256 357 L 256 389 L 256 389 L 320 389 L 320 389 L 320 357 L 320 357 L 320 295 L 320 295 L 338 314 L 338 314 L 350 302 L 350 302 L 320 273 L 320 273 L 320 253 L 320 253 L 347 276 L 347 276 L 353 282 L 353 282 L 363 270 L 363 270 L 357 264 L 357 264 L 320 232 L 320 232 L 320 187 L 320 187 L 497 214 L 497 214 Q 497 214 497 214 Q 497 214 497 214 L 498 214 L 498 214 Q 504 215 510 217 L 517 219 L 517 219 L 522 204 L 522 204 L 515 201 L 515 201 Q 507 199 500 198 L 326 172 L 326 172 L 389 131 L 389 131 L 394 127 L 394 127 L 392 122 L 392 122 L 377 77 L 377 77 Z M 256 187 L 256 232 L 256 187 L 256 232 L 138 335 L 138 335 Q 138 335 138 335 Q 138 335 138 335 Q 114 357 86 356 Q 58 355 38 336 Q 17 317 16 285 Q 17 257 34 237 Q 51 218 78 214 Q 78 214 78 214 L 79 214 L 79 214 L 256 187 L 256 187 Z M 392 372 L 384 372 L 392 372 L 384 372 L 384 388 L 384 388 L 392 388 L 424 388 L 424 452 L 424 452 L 392 452 L 384 452 L 384 468 L 384 468 L 392 468 L 424 468 L 424 500 L 424 500 L 424 508 L 424 508 L 440 508 L 440 508 L 440 500 L 440 500 L 440 468 L 440 468 L 504 468 L 504 468 L 504 500 L 504 500 L 504 508 L 504 508 L 520 508 L 520 508 L 520 500 L 520 500 L 520 468 L 520 468 L 584 468 L 584 468 L 584 500 L 584 500 L 584 508 L 584 508 L 600 508 L 600 508 L 600 500 L 600 500 L 600 468 L 600 468 L 632 468 L 640 468 L 640 452 L 640 452 L 632 452 L 600 452 L 600 388 L 600 388 L 632 388 L 640 388 L 640 372 L 640 372 L 632 372 L 600 372 L 600 308 L 600 308 L 632 308 L 640 308 L 640 292 L 640 292 L 632 292 L 600 292 L 600 260 L 600 260 L 600 252 L 600 252 L 584 252 L 584 252 L 584 260 L 584 260 L 584 292 L 584 292 L 520 292 L 520 292 L 520 260 L 520 260 L 520 252 L 520 252 L 504 252 L 504 252 L 504 260 L 504 260 L 504 292 L 504 292 L 440 292 L 440 292 L 440 260 L 440 260 L 440 252 L 440 252 L 424 252 L 424 252 L 424 260 L 424 260 L 424 292 L 424 292 L 392 292 L 384 292 L 384 308 L 384 308 L 392 308 L 424 308 L 424 372 L 424 372 L 392 372 L 392 372 Z M 584 388 L 584 452 L 584 388 L 584 452 L 520 452 L 520 452 L 520 388 L 520 388 L 584 388 L 584 388 Z M 584 308 L 584 372 L 584 308 L 584 372 L 520 372 L 520 372 L 520 308 L 520 308 L 584 308 L 584 308 Z M 440 388 L 504 388 L 440 388 L 504 388 L 504 452 L 504 452 L 440 452 L 440 452 L 440 388 L 440 388 Z M 440 372 L 440 308 L 440 372 L 440 308 L 504 308 L 504 308 L 504 372 L 504 372 L 440 372 L 440 372 Z M 272 357 L 272 134 L 272 357 L 272 134 L 272 118 L 272 118 L 304 118 L 304 118 L 304 134 L 304 134 L 304 357 L 304 357 L 304 373 L 304 373 L 272 373 L 272 373 L 272 357 L 272 357 Z" />
</svg>