<svg xmlns="http://www.w3.org/2000/svg" viewBox="0 0 484 509">
  <path d="M 242 0 L 254 4 L 242 0 L 254 4 L 461 84 L 461 84 L 480 92 L 480 92 L 481 112 L 481 112 Q 484 150 476 203 Q 468 255 444 312 Q 420 369 374 420 Q 328 471 255 503 L 242 509 L 242 509 L 229 503 L 229 503 Q 156 471 110 420 Q 64 369 40 312 Q 16 255 8 203 Q 0 150 3 112 L 4 92 L 4 92 L 23 84 L 23 84 L 231 4 L 231 4 L 242 0 L 242 0 Z M 340 186 L 306 152 L 340 186 L 306 152 L 289 169 L 289 169 L 242 216 L 242 216 L 195 169 L 195 169 L 178 152 L 178 152 L 144 186 L 144 186 L 161 203 L 161 203 L 208 250 L 208 250 L 161 297 L 161 297 L 144 314 L 144 314 L 178 348 L 178 348 L 195 331 L 195 331 L 242 284 L 242 284 L 289 331 L 289 331 L 306 348 L 306 348 L 340 314 L 340 314 L 323 297 L 323 297 L 276 250 L 276 250 L 323 203 L 323 203 L 340 186 L 340 186 Z" />
</svg>