<svg xmlns="http://www.w3.org/2000/svg" viewBox="0 0 448 512">
  <path d="M 156 0 L 160 0 L 156 0 L 292 0 L 295 4 L 295 4 L 332 64 L 332 64 L 448 64 L 448 64 L 448 80 L 448 80 L 0 80 L 0 80 L 0 64 L 0 64 L 116 64 L 116 64 L 153 4 L 153 4 L 156 0 L 156 0 Z M 284 16 L 164 16 L 284 16 L 164 16 L 134 64 L 134 64 L 314 64 L 314 64 L 284 16 L 284 16 Z M 24 113 L 24 112 L 24 113 L 24 112 L 40 112 L 40 112 L 79 496 L 79 496 L 369 496 L 369 496 L 408 112 L 408 112 L 424 112 L 424 112 L 424 113 L 424 113 L 384 505 L 384 505 L 383 512 L 383 512 L 376 512 L 65 512 L 64 505 L 64 505 L 24 113 L 24 113 Z" />
</svg>