<svg xmlns="http://www.w3.org/2000/svg" viewBox="0 0 512 512">
  <path d="M 16 496 L 336 496 L 16 496 L 336 496 L 336 384 L 336 384 L 352 384 L 352 384 L 352 496 L 352 496 L 352 512 L 352 512 L 336 512 L 0 512 L 0 496 L 0 496 L 0 176 L 0 176 L 0 160 L 0 160 L 16 160 L 128 160 L 128 176 L 128 176 L 16 176 L 16 176 L 16 496 L 16 496 Z M 160 352 L 160 336 L 160 352 L 160 336 L 160 16 L 160 16 L 160 0 L 160 0 L 176 0 L 512 0 L 512 16 L 512 16 L 512 336 L 512 336 L 512 352 L 512 352 L 496 352 L 160 352 Z M 176 336 L 496 336 L 176 336 L 496 336 L 496 16 L 496 16 L 176 16 L 176 16 L 176 336 L 176 336 Z" />
</svg>