<svg xmlns="http://www.w3.org/2000/svg" viewBox="0 0 638 512">
  <path d="M 565 9 Q 547 11 531 17 Q 494 32 471 65 Q 449 98 448 140 Q 449 196 487 233 Q 524 271 580 272 Q 593 272 606 270 Q 623 266 638 259 Q 627 273 613 284 Q 570 319 512 320 Q 506 320 500 320 Q 483 305 462 297 L 462 295 L 462 295 Q 485 304 512 304 Q 548 304 578 288 Q 516 286 475 244 Q 434 202 432 140 Q 432 101 450 69 Q 468 37 498 17 Q 442 23 406 63 Q 369 103 368 160 Q 368 179 373 197 Q 364 195 356 194 Q 352 177 352 160 Q 354 92 399 47 Q 444 2 512 0 Q 521 0 529 1 Q 548 3 565 9 L 565 9 Z M 261 260 Q 289 226 336 224 Q 377 225 404 252 Q 431 279 432 320 L 432 321 L 432 321 Q 467 328 489 354 Q 511 380 512 416 L 512 496 L 512 496 L 512 512 L 512 512 L 496 512 L 64 512 L 64 496 L 64 496 L 64 432 L 64 432 Q 65 404 81 383 Q 97 362 124 355 Q 127 354 130 353 Q 129 350 129 347 Q 128 341 128 336 Q 129 302 151 279 Q 174 257 208 256 Q 228 256 245 265 Q 249 267 254 270 Q 257 265 261 260 L 261 260 Z M 80 496 L 144 496 L 80 496 L 496 496 L 496 416 L 496 416 Q 495 386 477 364 Q 458 342 429 337 L 416 335 L 416 335 L 416 321 L 416 321 L 416 320 L 416 320 Q 415 286 393 263 Q 370 241 336 240 Q 291 242 268 279 L 259 293 L 259 293 L 245 283 L 245 283 Q 229 272 208 272 Q 181 273 163 291 Q 145 309 144 336 Q 144 343 146 350 L 149 366 L 149 366 L 133 369 L 133 369 Q 110 373 95 391 Q 80 408 80 432 L 80 496 L 80 496 Z M 233 144 L 223 144 L 233 144 L 223 144 L 219 135 L 219 135 Q 202 98 160 96 Q 136 97 119 111 Q 102 125 97 147 L 95 160 L 95 160 L 82 160 L 72 160 Q 48 161 32 177 Q 17 192 16 216 L 16 272 L 16 272 L 72 272 L 88 272 Q 88 272 88 272 L 116 272 L 116 272 Q 111 280 107 288 L 72 288 L 72 288 Q 72 288 72 288 Q 72 288 72 288 L 16 288 L 0 288 L 0 272 L 0 272 L 0 216 L 0 216 Q 1 185 21 165 Q 41 145 72 144 L 82 144 L 82 144 Q 88 116 109 98 Q 130 81 160 80 Q 185 80 204 93 Q 224 107 233 128 L 256 128 L 256 128 Q 283 129 301 147 Q 319 165 320 192 L 320 193 L 320 193 Q 312 194 304 196 L 304 192 L 304 192 Q 303 172 290 158 Q 276 145 256 144 L 233 144 L 233 144 Z" />
</svg>