<svg xmlns="http://www.w3.org/2000/svg" viewBox="0 0 640 512">
  <path d="M 224 0 L 224 16 L 224 0 L 224 16 L 232 16 L 296 16 L 296 208 L 296 208 L 232 208 L 224 208 L 224 224 L 224 224 L 232 224 L 384 224 L 384 208 L 384 208 L 376 208 L 312 208 L 312 8 L 312 8 L 312 0 L 312 0 L 304 0 L 224 0 Z M 0 288 L 0 304 L 0 288 L 0 304 L 8 304 L 72 304 L 72 496 L 72 496 L 8 496 L 0 496 L 0 512 L 0 512 L 8 512 L 160 512 L 160 496 L 160 496 L 152 496 L 88 496 L 88 296 L 88 296 L 88 288 L 88 288 L 80 288 L 0 288 Z M 24 0 L 16 0 L 24 0 L 16 0 L 16 8 L 16 8 L 16 216 L 16 216 L 16 224 L 16 224 L 24 224 L 176 224 L 176 216 L 176 216 L 176 8 L 176 8 L 176 0 L 176 0 L 168 0 L 24 0 Z M 32 208 L 32 16 L 32 208 L 32 16 L 160 16 L 160 16 L 160 208 L 160 208 L 32 208 L 32 208 Z M 208 288 L 208 296 L 208 288 L 208 296 L 208 504 L 208 504 L 208 512 L 208 512 L 216 512 L 368 512 L 368 504 L 368 504 L 368 296 L 368 296 L 368 288 L 368 288 L 360 288 L 208 288 Z M 224 304 L 352 304 L 224 304 L 352 304 L 352 496 L 352 496 L 224 496 L 224 496 L 224 304 L 224 304 Z M 528 208 Q 548 209 562 222 L 562 222 L 562 222 Q 575 236 576 256 L 576 320 L 576 320 L 480 320 L 480 320 L 480 256 L 480 256 Q 481 236 494 222 Q 508 209 528 208 L 528 208 Z M 464 256 L 464 320 L 464 256 L 464 320 L 432 320 L 416 320 L 416 336 L 416 336 L 416 496 L 416 496 L 416 512 L 416 512 L 432 512 L 640 512 L 640 496 L 640 496 L 640 336 L 640 336 L 640 320 L 640 320 L 624 320 L 592 320 L 592 256 L 592 256 Q 591 229 573 211 Q 555 193 528 192 Q 501 193 483 211 Q 465 229 464 256 L 464 256 Z M 432 336 L 464 336 L 432 336 L 624 336 L 624 496 L 624 496 L 432 496 L 432 496 L 432 336 L 432 336 Z" />
</svg>