<svg xmlns="http://www.w3.org/2000/svg" viewBox="0 0 512 517">
  <path d="M 8 0 L 216 0 L 8 0 L 224 0 L 224 16 L 224 16 L 216 16 L 0 16 L 0 0 L 0 0 L 8 0 L 8 0 Z M 8 80 L 104 80 L 8 80 L 224 80 L 224 96 L 224 96 L 216 96 L 120 96 L 120 216 L 120 216 L 120 224 L 120 224 L 104 224 L 104 224 L 104 216 L 104 216 L 104 96 L 104 96 L 8 96 L 0 96 L 0 80 L 0 80 L 8 80 L 8 80 Z M 512 6 L 512 16 L 512 6 L 512 16 L 512 176 L 512 176 Q 512 176 512 176 Q 512 176 512 176 Q 511 196 493 210 Q 475 223 448 224 Q 421 223 403 210 Q 385 196 384 176 Q 385 156 403 142 Q 421 129 448 128 Q 478 129 496 144 L 496 26 L 496 26 L 352 55 L 352 55 L 352 208 L 352 208 Q 352 208 352 208 Q 352 208 352 208 Q 351 228 333 242 Q 315 255 288 256 Q 261 255 243 242 Q 225 228 224 208 Q 225 188 243 174 Q 261 161 288 160 Q 318 161 336 176 L 336 48 L 336 48 L 336 41 L 336 41 L 342 40 L 342 40 L 502 8 L 502 8 L 512 6 L 512 6 Z M 484 155 Q 470 145 448 144 Q 426 145 412 155 Q 400 165 400 176 Q 400 187 412 197 Q 426 207 448 208 Q 470 207 484 197 Q 496 187 496 176 Q 496 176 496 176 Q 496 176 496 176 Q 496 165 484 155 L 484 155 Z M 324 187 Q 310 177 288 176 Q 266 177 252 187 Q 240 197 240 208 Q 240 219 252 229 Q 266 239 288 240 Q 310 239 324 229 Q 336 219 336 208 Q 336 208 336 208 Q 336 208 336 208 Q 336 197 324 187 L 324 187 Z M 328 352 Q 350 350 352 328 Q 350 306 328 304 Q 306 306 304 328 Q 306 350 328 352 L 328 352 Z M 328 288 Q 351 289 363 308 Q 373 328 363 348 Q 351 367 328 368 Q 305 367 293 348 Q 283 328 293 308 Q 305 289 328 288 L 328 288 Z M 510 302 L 302 510 L 510 302 L 302 510 L 290 498 L 290 498 L 498 290 L 498 290 L 510 302 L 510 302 Z M 496 472 Q 494 450 472 448 Q 450 450 448 472 Q 450 494 472 496 Q 494 494 496 472 L 496 472 Z M 432 472 Q 433 449 452 437 Q 472 427 492 437 Q 511 449 512 472 Q 511 495 492 507 Q 472 517 452 507 Q 433 495 432 472 L 432 472 Z M 32 256 L 128 256 L 32 256 L 136 256 L 136 264 L 136 264 L 136 302 L 136 302 Q 136 331 115 352 L 91 376 L 91 376 L 152 437 L 152 437 L 202 386 L 202 386 L 214 398 L 214 398 L 163 448 L 163 448 L 214 498 L 214 498 L 202 510 L 202 510 L 152 459 L 152 459 L 102 510 L 102 510 L 99 512 L 99 512 L 96 512 L 8 512 L 8 504 L 8 504 L 8 480 L 8 480 Q 9 437 39 406 L 69 376 L 69 376 L 45 352 L 45 352 Q 24 331 24 302 L 24 264 L 24 264 L 24 256 L 24 256 L 32 256 L 32 256 Z M 104 341 Q 120 325 120 302 L 120 272 L 120 272 L 40 272 L 40 272 L 40 302 L 40 302 Q 40 325 56 341 L 80 365 L 80 365 L 104 341 L 104 341 Z M 50 418 Q 25 443 24 480 L 24 496 L 24 496 L 93 496 L 93 496 L 141 448 L 141 448 L 80 387 L 80 387 L 50 418 L 50 418 Z" />
</svg>