<svg xmlns="http://www.w3.org/2000/svg" viewBox="0 0 512 448">
  <path d="M 16 0 L 16 8 L 16 0 L 16 8 L 16 432 L 16 432 L 504 432 L 512 432 L 512 448 L 512 448 L 504 448 L 0 448 L 0 440 L 0 440 L 0 8 L 0 8 L 0 0 L 0 0 L 16 0 L 16 0 Z M 352 32 L 360 32 L 352 32 L 480 32 L 480 40 L 480 40 L 480 152 L 480 152 L 480 160 L 480 160 L 464 160 L 464 160 L 464 152 L 464 152 L 464 59 L 464 59 L 294 230 L 294 230 L 288 235 L 288 235 L 282 230 L 282 230 L 208 155 L 208 155 L 110 254 L 110 254 L 104 259 L 104 259 L 93 248 L 93 248 L 98 242 L 98 242 L 202 138 L 202 138 L 208 133 L 208 133 L 214 138 L 214 138 L 288 213 L 288 213 L 453 48 L 453 48 L 360 48 L 352 48 L 352 32 L 352 32 Z M 360 352 L 352 352 L 360 352 L 352 352 L 352 336 L 352 336 L 360 336 L 453 336 L 362 246 L 362 246 L 357 240 L 357 240 L 368 229 L 368 229 L 374 234 L 374 234 L 464 325 L 464 325 L 464 232 L 464 232 L 464 224 L 464 224 L 480 224 L 480 224 L 480 232 L 480 232 L 480 344 L 480 344 L 480 352 L 480 352 L 472 352 L 360 352 Z" />
</svg>