<svg xmlns="http://www.w3.org/2000/svg" viewBox="0 0 512 512">
  <path d="M 496 256 Q 495 191 464 136 L 464 136 L 464 136 Q 432 81 376 48 Q 319 16 256 16 Q 193 16 136 48 Q 80 81 48 136 Q 17 191 16 256 Q 17 321 48 376 Q 80 431 136 464 Q 193 496 256 496 Q 319 496 376 464 Q 432 431 464 376 Q 495 321 496 256 L 496 256 Z M 0 256 Q 1 186 34 128 L 34 128 L 34 128 Q 68 70 128 34 Q 189 0 256 0 Q 323 0 384 34 Q 444 70 478 128 Q 511 186 512 256 Q 511 326 478 384 Q 444 442 384 478 Q 323 512 256 512 Q 189 512 128 478 Q 68 442 34 384 Q 1 326 0 256 L 0 256 Z M 192 144 Q 219 145 237 163 L 237 163 L 237 163 Q 255 181 256 208 L 256 216 L 256 216 L 256 224 L 256 224 L 240 224 L 240 224 L 240 216 L 240 216 L 240 208 L 240 208 Q 239 188 226 174 Q 212 161 192 160 Q 172 161 158 174 Q 145 188 144 208 L 144 304 L 144 304 Q 145 324 158 338 Q 172 351 192 352 Q 212 351 226 338 Q 239 324 240 304 L 240 288 L 240 288 L 200 288 L 192 288 L 192 272 L 192 272 L 200 272 L 256 272 L 256 280 L 256 280 L 256 304 L 256 304 Q 255 331 237 349 Q 219 367 192 368 Q 165 367 147 349 Q 129 331 128 304 L 128 208 L 128 208 Q 129 181 147 163 Q 165 145 192 144 L 192 144 Z M 288 144 L 296 144 L 288 144 L 384 144 L 384 160 L 384 160 L 376 160 L 304 160 L 304 256 L 304 256 L 360 256 L 368 256 L 368 272 L 368 272 L 360 272 L 304 272 L 304 360 L 304 360 L 304 368 L 304 368 L 288 368 L 288 368 L 288 360 L 288 360 L 288 272 L 288 272 L 288 256 L 288 256 L 288 152 L 288 152 L 288 144 L 288 144 Z" />
</svg>