<svg xmlns="http://www.w3.org/2000/svg" viewBox="0 0 454 513">
  <path d="M 62 438 Q 17 381 19 240 L 19 16 L 19 16 L 227 16 L 435 16 L 435 240 L 435 240 Q 437 381 392 438 Q 371 467 331 481 Q 291 496 227 496 Q 163 496 123 481 Q 83 467 62 438 L 62 438 Z M 3 240 Q 0 383 49 448 L 49 448 L 49 448 Q 98 513 227 512 Q 357 513 405 448 Q 454 383 451 240 L 451 16 L 451 16 L 451 0 L 451 0 L 435 0 L 3 0 L 3 16 L 3 16 L 3 240 L 3 240 Z M 179 224 Q 178 244 165 258 L 165 258 L 165 258 Q 151 271 131 272 Q 111 271 97 258 Q 84 244 83 224 L 83 192 L 83 192 L 179 192 L 179 192 L 179 224 L 179 224 Z M 131 288 Q 158 287 176 269 L 176 269 L 176 269 Q 194 251 195 224 L 195 192 L 195 192 L 195 176 L 195 176 L 179 176 L 67 176 L 67 192 L 67 192 L 67 224 L 67 224 Q 68 251 86 269 Q 104 287 131 288 L 131 288 Z M 371 224 Q 370 244 357 258 L 357 258 L 357 258 Q 343 271 323 272 Q 303 271 289 258 Q 276 244 275 224 L 275 192 L 275 192 L 371 192 L 371 192 L 371 224 L 371 224 Z M 323 288 Q 350 287 368 269 L 368 269 L 368 269 Q 386 251 387 224 L 387 192 L 387 192 L 387 176 L 387 176 L 371 176 L 259 176 L 259 192 L 259 192 L 259 224 L 259 224 Q 260 251 278 269 Q 296 287 323 288 L 323 288 Z M 163 112 Q 178 111 179 96 Q 178 81 163 80 Q 148 81 147 96 Q 148 111 163 112 L 163 112 Z M 243 128 Q 242 113 227 112 Q 212 113 211 128 Q 212 143 227 144 Q 242 143 243 128 L 243 128 Z M 211 320 Q 210 305 195 304 Q 180 305 179 320 Q 180 335 195 336 Q 210 335 211 320 L 211 320 Z M 211 384 Q 210 369 195 368 Q 180 369 179 384 Q 180 399 195 400 Q 210 399 211 384 L 211 384 Z M 195 464 Q 210 463 211 448 Q 210 433 195 432 Q 180 433 179 448 Q 180 463 195 464 L 195 464 Z M 259 464 Q 274 463 275 448 Q 274 433 259 432 Q 244 433 243 448 Q 244 463 259 464 L 259 464 Z M 259 400 Q 274 399 275 384 Q 274 369 259 368 Q 244 369 243 384 Q 244 399 259 400 L 259 400 Z M 259 336 Q 274 335 275 320 Q 274 305 259 304 Q 244 305 243 320 Q 244 335 259 336 L 259 336 Z M 307 96 Q 306 81 291 80 Q 276 81 275 96 Q 276 111 291 112 Q 306 111 307 96 L 307 96 Z" />
</svg>