<svg xmlns="http://www.w3.org/2000/svg" viewBox="0 0 448 448">
  <path d="M 16 16 L 16 432 L 16 16 L 16 432 L 432 432 L 432 432 L 432 16 L 432 16 L 16 16 L 16 16 Z M 0 0 L 16 0 L 0 0 L 448 0 L 448 16 L 448 16 L 448 432 L 448 432 L 448 448 L 448 448 L 432 448 L 0 448 L 0 432 L 0 432 L 0 16 L 0 16 L 0 0 L 0 0 Z M 176 320 L 216 320 L 176 320 L 216 320 L 216 192 L 216 192 L 192 192 L 184 192 L 184 176 L 184 176 L 192 176 L 232 176 L 232 184 L 232 184 L 232 320 L 232 320 L 272 320 L 280 320 L 280 336 L 280 336 L 272 336 L 168 336 L 168 320 L 168 320 L 176 320 L 176 320 Z M 240 112 L 240 144 L 240 112 L 240 144 L 208 144 L 208 144 L 208 112 L 208 112 L 240 112 L 240 112 Z" />
</svg>