<svg xmlns="http://www.w3.org/2000/svg" viewBox="0 0 512 448">
  <path d="M 16 256 Q 17 189 49 135 L 49 135 L 49 135 Q 81 81 135 49 L 135 49 L 135 49 Q 189 17 256 16 Q 323 17 377 49 Q 431 81 463 135 Q 495 189 496 256 L 496 344 L 496 344 L 496 352 L 496 352 L 512 352 L 512 352 L 512 344 L 512 344 L 512 256 L 512 256 Q 511 184 477 127 Q 443 69 385 35 Q 328 1 256 0 Q 184 1 127 35 Q 69 69 35 127 Q 1 184 0 256 L 0 344 L 0 344 L 0 352 L 0 352 L 16 352 L 16 352 L 16 344 L 16 344 L 16 256 L 16 256 Z M 160 240 L 160 432 L 160 240 L 160 432 L 64 432 L 64 432 L 64 240 L 64 240 L 160 240 L 160 240 Z M 64 224 L 48 224 L 64 224 L 48 224 L 48 240 L 48 240 L 48 432 L 48 432 L 48 448 L 48 448 L 64 448 L 176 448 L 176 432 L 176 432 L 176 240 L 176 240 L 176 224 L 176 224 L 160 224 L 64 224 Z M 352 240 L 448 240 L 352 240 L 448 240 L 448 432 L 448 432 L 352 432 L 352 432 L 352 240 L 352 240 Z M 448 224 L 352 224 L 448 224 L 336 224 L 336 240 L 336 240 L 336 432 L 336 432 L 336 448 L 336 448 L 352 448 L 464 448 L 464 432 L 464 432 L 464 240 L 464 240 L 464 224 L 464 224 L 448 224 L 448 224 Z" />
</svg>