<svg xmlns="http://www.w3.org/2000/svg" viewBox="0 0 572 512">
  <path d="M 332 345 L 332 369 L 332 345 L 332 369 L 332 496 L 332 496 L 412 496 L 412 496 L 412 249 L 412 249 L 408 247 L 408 247 L 314 192 L 314 192 L 311 192 L 284 192 L 284 363 L 284 363 Q 297 360 310 355 L 332 345 L 332 345 Z M 268 366 L 268 192 L 268 366 L 268 192 L 180 192 L 101 192 Q 82 192 69 180 Q 56 168 53 150 L 52 142 L 52 142 L 50 126 L 50 126 L 18 130 L 18 130 L 20 146 L 20 146 L 21 154 L 21 154 Q 28 198 67 217 L 76 221 L 76 221 L 76 231 L 76 231 L 76 496 L 76 496 L 156 496 L 156 496 L 156 369 L 156 369 L 156 345 L 156 345 L 178 355 L 178 355 Q 209 368 244 368 Q 256 368 268 366 L 268 366 Z M 422 189 L 424 176 L 422 189 L 424 176 L 437 176 L 500 176 Q 524 175 540 160 Q 555 144 556 120 L 556 80 L 556 80 L 492 80 L 485 80 L 481 75 L 481 75 L 453 48 L 453 48 L 396 48 L 388 48 L 383 42 L 383 42 L 364 16 L 364 16 L 354 16 L 354 16 L 326 179 L 326 179 L 326 181 L 326 181 L 414 232 L 414 232 L 422 189 L 422 189 Z M 2 132 L 0 116 L 2 132 L 0 116 L 16 114 L 16 114 L 48 110 L 48 110 L 64 108 L 64 108 L 66 124 L 66 124 L 68 140 L 68 140 L 69 148 L 69 148 Q 74 174 101 176 L 148 176 L 276 176 L 63 14 L 63 14 L 73 2 L 73 2 L 303 176 L 303 176 L 311 176 L 311 176 L 340 0 L 340 0 L 372 0 L 372 0 L 396 32 L 396 32 L 460 32 L 460 32 L 492 64 L 492 64 L 556 64 L 572 64 L 572 80 L 572 80 L 572 120 L 572 120 Q 571 151 551 171 Q 531 191 500 192 L 460 192 L 437 192 L 428 248 L 428 248 L 428 496 L 428 496 L 428 512 L 428 512 L 412 512 L 316 512 L 316 496 L 316 496 L 316 387 L 316 387 L 316 369 L 316 369 Q 308 373 300 375 Q 273 384 244 384 Q 215 384 188 375 Q 180 373 172 369 L 172 387 L 172 387 L 172 496 L 172 496 L 172 512 L 172 512 L 156 512 L 60 512 L 60 496 L 60 496 L 60 231 L 60 231 Q 14 209 5 156 L 4 148 L 4 148 L 2 132 L 2 132 Z M 440 80 Q 451 81 452 92 Q 451 103 440 104 Q 429 103 428 92 Q 429 81 440 80 L 440 80 Z" />
</svg>