<svg xmlns="http://www.w3.org/2000/svg" viewBox="0 0 576 512">
  <path d="M 224 0 L 232 0 L 224 0 L 576 0 L 576 8 L 576 8 L 576 440 L 576 440 L 576 448 L 576 448 L 576 504 L 576 504 Q 575 511 568 512 Q 561 511 560 504 L 560 448 L 560 448 L 312 448 L 304 448 L 304 440 L 304 440 L 304 368 L 304 368 L 304 367 L 304 367 L 304 366 L 304 366 L 336 264 L 336 264 L 282 16 L 282 16 L 240 16 L 240 16 L 240 192 L 240 192 L 224 192 L 224 192 L 224 8 L 224 8 L 224 0 L 224 0 Z M 298 16 L 352 262 L 298 16 L 352 262 L 352 264 L 352 264 L 352 266 L 352 266 L 320 369 L 320 369 L 320 432 L 320 432 L 560 432 L 560 432 L 560 16 L 560 16 L 298 16 L 298 16 Z M 240 320 L 240 504 L 240 320 L 240 504 Q 239 511 232 512 Q 225 511 224 504 L 224 320 L 224 320 L 240 320 L 240 320 Z M 157 224 L 224 224 L 157 224 L 256 224 L 256 240 L 256 240 L 256 272 L 256 272 L 256 288 L 256 288 L 240 288 L 131 288 L 128 285 L 128 285 L 121 279 L 121 279 L 112 269 L 112 269 L 112 288 L 112 288 L 112 292 L 112 292 L 112 341 L 112 341 L 154 397 L 154 397 L 160 405 L 160 405 L 160 416 L 160 416 L 160 480 L 160 480 L 160 496 L 160 496 L 160 512 L 160 512 L 144 512 L 96 512 L 96 496 L 96 496 L 96 480 L 96 480 L 96 427 L 96 427 L 80 405 L 80 405 L 64 384 L 64 384 L 64 411 L 64 411 L 64 480 L 64 480 L 64 496 L 64 496 L 64 512 L 64 512 L 48 512 L 0 512 L 0 496 L 0 496 L 0 480 L 0 480 L 0 299 L 0 299 Q 0 299 0 299 Q 0 299 0 299 L 0 288 L 0 288 L 0 192 L 0 192 L 0 176 L 0 176 L 0 160 L 0 160 L 16 160 L 93 160 L 103 169 L 103 169 L 157 224 L 157 224 Z M 240 240 L 224 240 L 240 240 L 151 240 L 146 235 L 146 235 L 91 181 L 91 181 L 87 176 L 87 176 L 80 176 L 16 176 L 16 192 L 16 192 L 16 288 L 16 288 L 16 293 L 16 293 Q 16 293 16 293 Q 16 293 16 293 L 16 299 L 16 299 L 16 480 L 16 480 L 16 496 L 16 496 L 48 496 L 48 496 L 48 480 L 48 480 L 48 384 L 48 384 L 48 336 L 48 336 L 77 374 L 77 374 L 109 417 L 109 417 L 112 421 L 112 421 L 112 427 L 112 427 L 112 480 L 112 480 L 112 496 L 112 496 L 144 496 L 144 496 L 144 480 L 144 480 L 144 416 L 144 416 L 144 411 L 144 411 L 141 406 L 141 406 L 99 351 L 99 351 L 96 347 L 96 347 L 96 341 L 96 341 L 96 269 L 96 269 L 96 231 L 96 231 L 123 258 L 123 258 L 133 267 L 133 267 L 137 272 L 137 272 L 144 272 L 240 272 L 240 240 L 240 240 Z M 64 112 Q 78 112 87 103 L 87 103 L 87 103 Q 96 94 96 80 Q 96 66 87 57 Q 78 48 64 48 Q 50 48 41 57 Q 32 66 32 80 Q 32 94 41 103 Q 50 112 64 112 L 64 112 Z M 16 80 Q 17 53 40 38 Q 64 26 88 38 Q 111 53 112 80 Q 111 107 88 122 Q 64 134 40 122 Q 17 107 16 80 L 16 80 Z" />
</svg>