<svg xmlns="http://www.w3.org/2000/svg" viewBox="0 0 448 448">
  <path d="M 0 0 L 8 0 L 0 0 L 144 0 L 144 8 L 144 8 L 144 224 L 144 224 Q 145 258 167 281 Q 190 303 224 304 Q 258 303 281 281 Q 303 258 304 224 L 304 8 L 304 8 L 304 0 L 304 0 L 312 0 L 448 0 L 448 8 L 448 8 L 448 224 L 448 224 Q 447 287 417 337 Q 388 388 337 417 Q 287 447 224 448 Q 161 447 111 417 Q 60 388 31 337 Q 1 287 0 224 L 0 8 L 0 8 L 0 0 L 0 0 Z M 16 16 L 16 112 L 16 16 L 16 112 L 128 112 L 128 112 L 128 16 L 128 16 L 16 16 L 16 16 Z M 16 224 Q 18 312 77 371 L 77 371 L 77 371 Q 136 430 224 432 Q 312 430 371 371 Q 430 312 432 224 L 432 128 L 432 128 L 320 128 L 320 128 L 320 224 L 320 224 Q 319 265 292 292 Q 265 319 224 320 Q 183 319 156 292 Q 129 265 128 224 L 128 128 L 128 128 L 16 128 L 16 128 L 16 224 L 16 224 Z M 432 112 L 432 16 L 432 112 L 432 16 L 320 16 L 320 16 L 320 112 L 320 112 L 432 112 L 432 112 Z" />
</svg>