<svg xmlns="http://www.w3.org/2000/svg" viewBox="0 0 576 448">
  <path d="M 560 128 Q 561 82 485 49 Q 445 32 391 24 L 376 127 L 376 127 L 415 221 L 415 221 L 418 228 L 418 228 Q 456 220 486 207 Q 561 174 560 128 L 560 128 Z M 401 227 L 361 131 L 401 227 L 361 131 L 360 130 L 360 130 L 290 152 L 290 152 L 288 152 L 286 152 L 216 130 L 216 130 L 215 131 L 215 131 L 175 227 L 175 227 L 174 231 L 174 231 Q 226 240 288 240 Q 350 240 402 231 L 401 227 L 401 227 Z M 362 112 L 375 21 L 362 112 L 375 21 Q 334 16 288 16 Q 242 16 201 21 L 214 113 L 214 113 L 288 136 L 288 136 L 362 112 L 362 112 Z M 91 207 Q 120 220 158 228 L 161 221 L 161 221 L 200 127 L 200 127 L 185 24 L 185 24 Q 131 32 91 49 Q 15 82 16 128 Q 15 174 91 207 L 91 207 Z M 576 128 L 576 320 L 576 128 L 576 320 Q 573 381 492 414 Q 410 448 288 448 Q 166 448 84 414 Q 3 381 0 320 L 0 128 L 0 128 Q 3 68 84 34 Q 166 1 288 0 Q 410 1 492 34 Q 573 68 576 128 L 576 128 Z M 560 174 Q 529 213 456 234 L 456 234 L 456 234 Q 384 256 288 256 Q 192 256 120 234 Q 47 213 16 174 L 16 320 L 16 320 Q 16 366 91 399 Q 168 431 288 432 Q 408 431 485 399 Q 560 366 560 320 L 560 174 L 560 174 Z" />
</svg>