<svg xmlns="http://www.w3.org/2000/svg" viewBox="0 0 512 512">
  <path d="M 384 329 Q 434 313 464 272 L 464 272 L 464 272 Q 495 231 496 176 Q 494 108 449 63 Q 404 18 336 16 Q 281 17 240 48 Q 199 78 183 128 Q 180 128 176 128 Q 171 128 167 128 Q 183 72 229 36 Q 274 1 336 0 Q 411 2 460 52 Q 510 101 512 176 Q 511 238 476 283 Q 440 329 384 345 Q 384 341 384 336 Q 384 332 384 329 L 384 329 Z M 336 336 Q 336 293 315 256 L 315 256 L 315 256 Q 293 219 256 197 Q 218 176 176 176 Q 134 176 96 197 Q 59 219 37 256 Q 16 293 16 336 Q 16 379 37 416 Q 59 453 96 475 Q 134 496 176 496 Q 218 496 256 475 Q 293 453 315 416 Q 336 379 336 336 L 336 336 Z M 0 336 Q 0 288 24 248 L 24 248 L 24 248 Q 47 208 88 184 Q 130 160 176 160 Q 222 160 264 184 Q 305 208 328 248 Q 352 288 352 336 Q 352 384 328 424 Q 305 464 264 488 Q 222 512 176 512 Q 130 512 88 488 Q 47 464 24 424 Q 0 384 0 336 L 0 336 Z M 168 240 L 168 280 L 168 240 L 168 280 L 208 280 L 216 280 L 216 296 L 216 296 L 208 296 L 168 296 L 168 336 L 168 336 L 168 344 L 168 344 L 152 344 L 152 344 L 152 336 L 152 336 L 152 296 L 152 296 L 112 296 L 104 296 L 104 280 L 104 280 L 112 280 L 152 280 L 152 240 L 152 240 L 152 232 L 152 232 L 168 232 L 168 232 L 168 240 L 168 240 Z M 360 80 L 360 120 L 360 80 L 360 120 L 400 120 L 408 120 L 408 136 L 408 136 L 400 136 L 360 136 L 360 176 L 360 176 L 360 184 L 360 184 L 344 184 L 344 184 L 344 176 L 344 176 L 344 136 L 344 136 L 304 136 L 296 136 L 296 120 L 296 120 L 304 120 L 344 120 L 344 80 L 344 80 L 344 72 L 344 72 L 360 72 L 360 72 L 360 80 L 360 80 Z" />
</svg>