<svg xmlns="http://www.w3.org/2000/svg" viewBox="0 0 448 512">
  <path d="M 432 16 L 432 496 L 432 16 L 432 496 L 16 496 L 16 496 L 16 16 L 16 16 L 432 16 L 432 16 Z M 16 0 L 0 0 L 16 0 L 0 0 L 0 16 L 0 16 L 0 496 L 0 496 L 0 512 L 0 512 L 16 512 L 448 512 L 448 496 L 448 496 L 448 16 L 448 16 L 448 0 L 448 0 L 432 0 L 16 0 Z M 96 384 L 96 400 L 96 384 L 96 400 L 104 400 L 352 400 L 352 384 L 352 384 L 344 384 L 96 384 Z M 96 184 Q 96 188 96 192 L 96 192 L 96 192 Q 96 192 96 192 Q 96 196 96 200 Q 101 251 136 285 Q 172 319 224 320 Q 276 319 312 285 Q 347 251 352 200 Q 352 196 352 192 Q 352 188 352 184 Q 347 133 312 99 Q 276 65 224 64 Q 172 65 136 99 Q 101 133 96 184 L 96 184 Z M 112 200 L 168 200 L 112 200 L 168 200 Q 173 261 193 289 Q 198 297 202 302 Q 165 294 140 266 Q 116 239 112 200 L 112 200 Z M 336 200 Q 332 239 308 266 L 308 266 L 308 266 Q 283 294 246 302 Q 250 297 255 289 Q 275 261 280 200 L 336 200 L 336 200 Z M 336 184 L 280 184 L 336 184 L 280 184 Q 275 123 255 95 Q 250 87 246 82 Q 283 90 308 118 Q 332 145 336 184 L 336 184 Z M 112 184 Q 116 145 140 118 L 140 118 L 140 118 Q 165 90 202 82 Q 198 88 193 95 Q 173 123 168 184 L 112 184 L 112 184 Z M 207 103 Q 215 90 222 84 Q 222 84 222 84 Q 223 83 224 82 Q 225 83 226 84 Q 226 84 226 84 Q 232 90 241 103 Q 259 128 264 184 L 184 184 L 184 184 Q 188 128 207 103 L 207 103 Z M 264 200 Q 260 256 241 281 Q 233 294 226 300 Q 225 301 224 302 Q 223 301 222 300 Q 216 294 207 281 Q 189 256 184 200 L 264 200 L 264 200 Z" />
</svg>