<svg xmlns="http://www.w3.org/2000/svg" viewBox="0 0 512 480">
  <path d="M 16 256 Q 17 189 49 135 L 49 135 L 49 135 Q 81 81 135 49 L 135 49 L 135 49 Q 189 17 256 16 Q 315 17 364 42 Q 414 67 447 111 L 452 117 L 452 117 L 465 107 L 465 107 L 460 101 L 460 101 Q 424 54 372 27 Q 319 1 256 0 Q 184 1 127 35 Q 69 69 35 127 Q 1 184 0 256 L 0 312 L 0 312 L 0 320 L 0 320 L 16 320 L 16 320 L 16 312 L 16 312 L 16 256 L 16 256 Z M 501 181 L 499 173 L 501 181 L 499 173 L 483 178 L 483 178 L 486 186 L 486 186 Q 496 219 496 256 L 496 312 L 496 312 L 496 320 L 496 320 L 512 320 L 512 320 L 512 312 L 512 312 L 512 256 L 512 256 Q 512 217 501 181 L 501 181 Z M 256 80 Q 210 80 172 102 L 181 115 L 181 115 Q 215 96 256 96 Q 324 98 369 143 Q 414 188 416 256 L 416 281 L 416 281 Q 416 333 408 384 L 424 384 L 424 384 Q 432 333 432 281 L 432 256 L 432 256 Q 430 181 380 132 Q 331 82 256 80 L 256 80 Z M 133 130 Q 82 180 80 256 L 80 281 L 80 281 Q 80 334 64 384 L 81 384 L 81 384 Q 96 334 96 281 L 96 256 L 96 256 Q 98 188 143 143 L 133 130 L 133 130 Z M 256 160 Q 215 161 188 188 L 188 188 L 188 188 Q 161 215 160 256 L 160 281 L 160 281 Q 160 350 138 416 L 154 416 L 154 416 Q 176 350 176 281 L 176 256 L 176 256 Q 177 222 200 199 Q 222 177 256 176 Q 290 177 313 199 Q 335 222 336 256 L 336 281 L 336 281 Q 336 349 320 416 L 337 416 L 337 416 Q 352 349 352 281 L 352 256 L 352 256 Q 351 215 324 188 Q 297 161 256 160 L 256 160 Z M 264 256 L 248 256 L 264 256 L 248 256 L 248 281 L 248 281 Q 248 374 214 462 L 209 477 L 209 477 L 207 480 L 207 480 L 225 480 L 225 480 L 229 468 L 229 468 Q 264 377 264 281 L 264 256 L 264 256 Z" />
</svg>