<svg xmlns="http://www.w3.org/2000/svg" viewBox="0 0 641 512">
  <path d="M 308 140 Q 307 121 299 102 L 259 14 L 259 14 L 253 0 L 253 0 L 239 6 L 239 6 L 150 46 L 150 46 Q 129 55 115 71 Q 100 86 91 108 L 91 108 L 91 108 Q 83 129 84 151 Q 84 163 87 175 Q 95 203 87 230 Q 75 256 50 272 Q 40 278 32 287 Q 17 302 8 324 Q 0 345 1 367 Q 2 389 11 410 L 50 498 L 50 498 L 56 512 L 56 512 L 71 506 L 71 506 L 97 494 L 97 494 L 97 477 L 97 477 L 64 491 L 64 491 L 25 403 L 25 403 Q 17 385 17 367 Q 17 367 17 367 Q 17 367 17 367 Q 16 348 23 329 Q 30 311 43 298 Q 43 298 43 298 Q 43 298 43 298 Q 50 290 59 284 Q 59 284 59 284 Q 59 284 59 284 L 59 284 L 59 284 Q 86 268 101 235 Q 111 201 102 171 Q 102 171 102 171 Q 102 171 102 171 L 102 171 L 102 171 Q 100 161 100 151 Q 100 151 100 151 Q 100 151 100 151 Q 99 132 106 114 Q 106 114 106 114 L 106 113 L 106 113 Q 113 95 126 82 Q 126 82 126 82 Q 126 82 126 82 Q 139 68 157 60 L 245 21 L 245 21 L 284 109 L 284 109 Q 297 139 290 169 Q 292 168 294 165 Q 302 158 308 140 L 308 140 Z M 550 285 Q 576 274 597 253 Q 639 211 641 148 L 641 16 L 641 16 L 641 0 L 641 0 L 625 0 L 493 0 Q 463 0 436 11 Q 410 22 389 43 Q 367 65 356 91 Q 350 108 346 126 Q 346 126 346 126 Q 340 161 317 188 Q 289 213 251 218 Q 206 226 172 259 Q 151 281 140 307 Q 129 334 129 364 L 129 496 L 129 496 L 129 512 L 129 512 L 145 512 L 277 512 Q 339 510 381 470 Q 414 436 423 391 Q 428 352 453 324 Q 480 301 515 295 Q 533 291 550 285 L 550 285 Z M 625 16 L 625 148 L 625 16 L 625 148 Q 624 204 586 242 Q 586 242 586 242 Q 586 242 586 242 Q 567 260 544 270 Q 544 270 544 270 Q 544 270 544 270 Q 529 276 513 279 Q 513 279 513 279 Q 504 281 495 284 Q 467 290 442 313 Q 426 329 418 349 Q 410 368 407 388 Q 407 388 407 388 Q 407 388 407 388 L 407 388 L 407 388 Q 400 428 370 458 Q 333 495 277 496 L 145 496 L 145 496 L 145 364 L 145 364 Q 145 337 155 314 Q 155 314 155 314 Q 155 314 155 314 Q 165 290 184 271 Q 213 241 253 234 Q 253 234 253 234 Q 253 234 253 234 L 253 234 L 253 234 Q 273 231 292 223 Q 312 215 328 200 Q 351 174 357 147 Q 360 137 362 129 Q 362 129 362 129 Q 362 129 362 129 Q 362 129 362 129 Q 362 129 362 129 Q 362 128 362 128 Q 365 112 371 98 Q 371 98 371 98 Q 371 98 371 98 Q 381 74 400 55 Q 419 36 443 26 Q 443 26 443 26 Q 443 26 443 26 Q 466 16 493 16 L 625 16 L 625 16 Z M 545 144 Q 560 143 561 128 Q 560 113 545 112 Q 530 113 529 128 Q 530 143 545 144 L 545 144 Z M 481 208 Q 496 207 497 192 Q 496 177 481 176 Q 466 177 465 192 Q 466 207 481 208 L 481 208 Z M 321 368 Q 336 367 337 352 Q 336 337 321 336 Q 306 337 305 352 Q 306 367 321 368 L 321 368 Z M 273 416 Q 272 401 257 400 Q 242 401 241 416 Q 242 431 257 432 Q 272 431 273 416 L 273 416 Z M 321 432 Q 336 431 337 416 Q 336 401 321 400 Q 306 401 305 416 Q 306 431 321 432 L 321 432 Z M 561 192 Q 560 177 545 176 Q 530 177 529 192 Q 530 207 545 208 Q 560 207 561 192 L 561 192 Z" />
</svg>