<svg xmlns="http://www.w3.org/2000/svg" viewBox="0 0 641 480">
  <path d="M 16 16 L 432 16 L 16 16 L 432 16 L 432 100 L 432 100 L 448 90 L 448 90 L 448 16 L 448 16 L 448 0 L 448 0 L 432 0 L 0 0 L 0 16 L 0 16 L 0 432 L 0 432 L 0 448 L 0 448 L 16 448 L 337 448 Q 330 440 324 432 L 16 432 L 16 432 L 16 16 L 16 16 Z M 96 72 L 96 64 L 96 72 L 96 64 L 80 64 L 80 64 L 80 72 L 80 72 L 80 248 L 80 248 L 80 256 L 80 256 L 96 256 L 96 256 L 96 248 L 96 248 L 96 72 L 96 72 Z M 160 72 L 160 64 L 160 72 L 160 64 L 144 64 L 144 64 L 144 72 L 144 72 L 144 248 L 144 248 L 144 256 L 144 256 L 160 256 L 160 256 L 160 248 L 160 248 L 160 72 L 160 72 Z M 501 181 L 448 128 L 501 181 L 448 128 Q 425 142 396 170 Q 366 198 344 237 Q 321 275 320 320 Q 322 388 367 433 Q 412 478 480 480 Q 548 478 593 433 Q 638 388 640 320 Q 641 299 621 254 Q 600 210 544 160 L 523 181 L 523 181 L 512 192 L 512 192 L 501 181 L 501 181 Z M 576 391 Q 574 355 551 324 L 551 324 L 551 324 Q 528 294 505 275 L 505 275 L 505 275 Q 482 257 480 256 Q 478 257 455 275 Q 432 294 409 324 Q 386 355 384 391 Q 384 418 400 440 Q 371 420 353 389 Q 336 358 336 320 Q 336 290 349 263 Q 361 235 381 211 Q 415 170 446 149 L 501 204 L 501 204 L 512 215 L 512 215 L 523 204 L 523 204 L 545 182 L 545 182 Q 592 227 609 265 Q 625 304 624 320 Q 624 358 607 389 Q 589 420 560 440 Q 576 418 576 391 L 576 391 Z M 480 464 Q 445 463 423 442 L 423 442 L 423 442 Q 401 421 400 391 Q 401 369 413 348 Q 425 327 444 308 Q 461 290 475 280 Q 478 278 480 276 Q 482 278 485 280 Q 499 290 517 308 Q 535 327 547 348 Q 559 369 560 391 Q 559 421 537 442 Q 515 463 480 464 L 480 464 Z" />
</svg>