<svg xmlns="http://www.w3.org/2000/svg" viewBox="0 0 448 512">
  <path d="M 432 16 L 432 496 L 432 16 L 432 496 L 16 496 L 16 496 L 16 16 L 16 16 L 432 16 L 432 16 Z M 16 0 L 0 0 L 16 0 L 0 0 L 0 16 L 0 16 L 0 496 L 0 496 L 0 512 L 0 512 L 16 512 L 448 512 L 448 496 L 448 496 L 448 16 L 448 16 L 448 0 L 448 0 L 432 0 L 16 0 Z M 192 120 L 192 136 L 192 120 L 192 136 L 200 136 L 384 136 L 384 120 L 384 120 L 376 120 L 192 120 Z M 192 248 L 192 264 L 192 248 L 192 264 L 200 264 L 384 264 L 384 248 L 384 248 L 376 248 L 192 248 Z M 192 376 L 192 392 L 192 376 L 192 392 L 200 392 L 384 392 L 384 376 L 384 376 L 376 376 L 192 376 Z M 136 344 L 120 344 L 136 344 L 56 344 L 56 360 L 56 360 L 56 408 L 56 408 L 56 424 L 56 424 L 72 424 L 136 424 L 136 408 L 136 408 L 136 360 L 136 360 L 136 344 L 136 344 Z M 72 360 L 88 360 L 72 360 L 120 360 L 120 376 L 120 376 L 120 392 L 120 392 L 120 408 L 120 408 L 104 408 L 72 408 L 72 392 L 72 392 L 72 376 L 72 376 L 72 360 L 72 360 Z M 56 88 L 56 104 L 56 88 L 56 104 L 56 152 L 56 152 L 56 168 L 56 168 L 72 168 L 136 168 L 136 152 L 136 152 L 136 104 L 136 104 L 136 88 L 136 88 L 120 88 L 56 88 Z M 88 104 L 104 104 L 88 104 L 120 104 L 120 120 L 120 120 L 120 136 L 120 136 L 120 152 L 120 152 L 104 152 L 72 152 L 72 136 L 72 136 L 72 120 L 72 120 L 72 104 L 72 104 L 88 104 L 88 104 Z M 158 230 L 163 224 L 158 230 L 163 224 L 152 213 L 152 213 L 146 218 L 146 218 L 96 269 L 96 269 L 70 242 L 70 242 L 64 237 L 64 237 L 53 248 L 53 248 L 58 254 L 58 254 L 90 286 L 90 286 L 96 291 L 96 291 L 102 286 L 102 286 L 158 230 L 158 230 Z" />
</svg>