<svg xmlns="http://www.w3.org/2000/svg" viewBox="0 0 640 512">
  <path d="M 176 16 L 176 112 L 176 16 L 176 112 L 272 112 L 272 112 L 272 16 L 272 16 L 176 16 L 176 16 Z M 160 0 L 176 0 L 160 0 L 288 0 L 288 16 L 288 16 L 288 112 L 288 112 L 288 119 L 288 119 L 311 195 L 311 195 Q 323 192 336 192 Q 393 194 425 236 L 512 180 L 512 180 L 512 176 L 512 176 L 512 80 L 512 80 L 512 64 L 512 64 L 528 64 L 640 64 L 640 80 L 640 80 L 640 176 L 640 176 L 640 192 L 640 192 L 624 192 L 522 192 L 434 250 L 434 250 Q 448 274 448 304 Q 448 326 440 345 L 522 384 L 522 384 L 528 384 L 640 384 L 640 400 L 640 400 L 640 496 L 640 496 L 640 512 L 640 512 L 624 512 L 512 512 L 512 496 L 512 496 L 512 400 L 512 400 L 512 397 L 512 397 L 433 359 L 433 359 Q 419 385 393 400 Q 368 416 336 416 Q 291 415 259 386 Q 228 357 224 312 L 128 312 L 128 312 L 128 352 L 128 352 L 128 368 L 128 368 L 112 368 L 0 368 L 0 352 L 0 352 L 0 256 L 0 256 L 0 240 L 0 240 L 16 240 L 128 240 L 128 256 L 128 256 L 128 296 L 128 296 L 224 296 L 224 296 Q 227 262 246 237 Q 266 211 296 199 L 274 128 L 274 128 L 272 128 L 160 128 L 160 112 L 160 112 L 160 16 L 160 16 L 160 0 L 160 0 Z M 112 256 L 16 256 L 112 256 L 16 256 L 16 352 L 16 352 L 112 352 L 112 352 L 112 256 L 112 256 Z M 624 80 L 528 80 L 624 80 L 528 80 L 528 176 L 528 176 L 624 176 L 624 176 L 624 80 L 624 80 Z M 528 400 L 528 496 L 528 400 L 528 496 L 624 496 L 624 496 L 624 400 L 624 400 L 528 400 L 528 400 Z M 336 400 Q 362 400 384 387 L 384 387 L 384 387 Q 406 374 419 352 Q 432 329 432 304 Q 432 279 419 256 Q 406 234 384 221 Q 362 208 336 208 Q 310 208 288 221 Q 266 234 253 256 Q 240 279 240 304 Q 240 329 253 352 Q 266 374 288 387 Q 310 400 336 400 L 336 400 Z" />
</svg>