<svg xmlns="http://www.w3.org/2000/svg" viewBox="0 0 640 480">
  <path d="M 112 16 L 112 112 L 112 16 L 112 112 L 208 112 L 208 112 L 208 16 L 208 16 L 112 16 L 112 16 Z M 96 0 L 112 0 L 96 0 L 224 0 L 224 16 L 224 16 L 224 112 L 224 112 L 224 128 L 224 128 L 208 128 L 168 128 L 168 240 L 168 240 L 472 240 L 472 240 L 472 128 L 472 128 L 432 128 L 416 128 L 416 112 L 416 112 L 416 16 L 416 16 L 416 0 L 416 0 L 432 0 L 544 0 L 544 16 L 544 16 L 544 112 L 544 112 L 544 128 L 544 128 L 528 128 L 488 128 L 488 240 L 488 240 L 632 240 L 640 240 L 640 256 L 640 256 L 632 256 L 328 256 L 328 352 L 328 352 L 368 352 L 384 352 L 384 368 L 384 368 L 384 464 L 384 464 L 384 480 L 384 480 L 368 480 L 256 480 L 256 464 L 256 464 L 256 368 L 256 368 L 256 352 L 256 352 L 272 352 L 312 352 L 312 256 L 312 256 L 8 256 L 0 256 L 0 240 L 0 240 L 8 240 L 152 240 L 152 128 L 152 128 L 112 128 L 96 128 L 96 112 L 96 112 L 96 16 L 96 16 L 96 0 L 96 0 Z M 528 112 L 528 16 L 528 112 L 528 16 L 432 16 L 432 16 L 432 112 L 432 112 L 472 112 L 528 112 Z M 272 368 L 272 464 L 272 368 L 272 464 L 368 464 L 368 464 L 368 368 L 368 368 L 272 368 L 272 368 Z" />
</svg>