<svg xmlns="http://www.w3.org/2000/svg" viewBox="0 0 636 502">
  <path d="M 423 0 L 199 496 L 423 0 L 199 496 L 213 502 L 213 502 L 437 6 L 437 6 L 423 0 L 423 0 Z M 0 91 L 151 406 L 0 91 L 151 406 L 153 411 L 153 411 L 163 411 L 163 411 L 165 407 L 165 407 L 316 91 L 316 91 L 299 91 L 299 91 L 158 385 L 158 385 L 17 91 L 17 91 L 0 91 L 0 91 Z M 473 91 L 471 96 L 473 91 L 471 96 L 320 411 L 320 411 L 337 411 L 337 411 L 376 331 L 376 331 L 580 331 L 580 331 L 619 411 L 619 411 L 636 411 L 636 411 L 485 96 L 485 96 L 483 91 L 483 91 L 473 91 L 473 91 Z M 573 315 L 383 315 L 573 315 L 383 315 L 478 118 L 478 118 L 573 315 L 573 315 Z" />
</svg>