<svg xmlns="http://www.w3.org/2000/svg" viewBox="0 0 640 512">
  <path d="M 624 16 L 272 16 L 624 16 L 272 16 L 272 128 L 272 128 L 256 128 L 256 128 L 256 16 L 256 16 L 256 0 L 256 0 L 272 0 L 640 0 L 640 16 L 640 16 L 640 496 L 640 496 L 640 512 L 640 512 L 624 512 L 384 512 L 384 496 L 384 496 L 624 496 L 624 496 L 624 16 L 624 16 Z M 550 322 L 555 328 L 550 322 L 555 328 L 544 339 L 544 339 L 538 334 L 538 334 L 488 283 L 488 283 L 488 440 L 488 440 L 488 448 L 488 448 L 472 448 L 472 448 L 472 440 L 472 440 L 472 283 L 472 283 L 422 334 L 422 334 L 416 339 L 416 339 L 405 328 L 405 328 L 410 322 L 410 322 L 474 258 L 474 258 L 480 253 L 480 253 L 486 258 L 486 258 L 550 322 L 550 322 Z M 16 176 L 16 272 L 16 176 L 16 272 L 32 272 L 368 272 L 368 176 L 368 176 L 16 176 L 16 176 Z M 32 288 L 16 288 L 32 288 L 0 288 L 0 272 L 0 272 L 0 176 L 0 176 L 0 160 L 0 160 L 16 160 L 384 160 L 384 176 L 384 176 L 384 272 L 384 272 L 384 288 L 384 288 L 368 288 L 352 288 L 352 496 L 352 496 L 352 512 L 352 512 L 336 512 L 32 512 L 32 496 L 32 496 L 32 288 L 32 288 Z M 336 288 L 272 288 L 336 288 L 272 288 L 272 328 L 272 328 L 272 336 L 272 336 L 264 336 L 112 336 L 112 328 L 112 328 L 112 288 L 112 288 L 48 288 L 48 288 L 48 496 L 48 496 L 336 496 L 336 496 L 336 288 L 336 288 Z M 128 288 L 128 320 L 128 288 L 128 320 L 256 320 L 256 320 L 256 288 L 256 288 L 128 288 L 128 288 Z" />
</svg>