<svg xmlns="http://www.w3.org/2000/svg" viewBox="0 0 500 500">
  <path d="M 404 5 L 402 12 L 404 5 L 402 12 L 396 31 L 396 31 Q 445 48 466 97 L 488 90 L 488 90 L 496 88 L 496 88 L 500 104 L 500 104 L 492 106 L 492 106 L 471 112 L 471 112 L 471 113 L 471 113 Q 482 166 450 207 L 464 220 L 464 220 L 469 226 L 469 226 L 458 237 L 458 237 L 452 232 L 452 232 L 440 219 L 440 219 Q 418 240 387 247 Q 366 252 350 259 L 354 272 L 354 272 L 356 280 L 356 280 L 341 284 L 341 284 L 338 276 L 338 276 L 335 265 L 335 265 Q 308 279 292 295 Q 276 311 268 326 Q 267 328 266 330 L 285 339 L 285 339 L 293 342 L 293 342 L 286 357 L 286 357 L 279 353 L 279 353 L 258 345 L 258 345 Q 252 359 250 374 Q 245 413 219 440 L 232 452 L 232 452 L 238 458 L 238 458 L 226 469 L 226 469 L 220 464 L 220 464 L 207 450 L 207 450 Q 173 477 128 473 Q 120 473 112 471 L 106 492 L 106 492 L 103 500 L 103 500 L 88 495 L 88 495 L 90 488 L 90 488 L 96 466 L 96 466 Q 52 447 34 403 L 12 410 L 12 410 L 4 412 L 4 412 L 0 397 L 0 397 L 8 394 L 8 394 L 29 388 L 29 388 Q 25 371 27 352 Q 30 320 40 288 L 23 281 L 23 281 L 16 278 L 16 278 L 22 264 L 22 264 L 29 267 L 29 267 L 46 273 L 46 273 Q 58 240 76 210 Q 83 199 91 187 L 77 176 L 77 176 L 71 171 L 71 171 L 81 159 L 81 159 L 87 164 L 87 164 L 100 174 L 100 174 Q 129 136 174 102 L 163 86 L 163 86 L 159 80 L 159 80 L 172 71 L 172 71 L 177 78 L 177 78 L 187 93 L 187 93 Q 225 67 275 48 L 267 29 L 267 29 L 263 22 L 263 22 L 278 16 L 278 16 L 281 23 L 281 23 L 290 42 L 290 42 Q 312 35 337 29 Q 359 24 381 28 L 386 8 L 386 8 L 389 0 L 389 0 L 404 5 L 404 5 Z M 234 372 L 234 372 L 234 372 L 234 372 Q 239 342 254 317 Q 267 294 297 270 Q 327 246 384 232 Q 423 221 444 189 Q 464 156 456 116 Q 446 77 413 57 Q 381 36 341 44 Q 242 69 181 117 Q 121 165 90 219 Q 51 282 42 353 Q 40 394 64 424 Q 89 453 129 458 Q 170 460 199 436 Q 228 412 233 372 L 233 372 L 234 372 Z M 234 186 Q 219 187 218 202 Q 219 217 234 218 Q 249 217 250 202 Q 249 187 234 186 L 234 186 Z M 266 202 Q 266 216 257 225 L 257 225 L 257 225 Q 248 234 234 234 Q 220 234 211 225 Q 202 216 202 202 Q 202 188 211 179 Q 220 170 234 170 Q 248 170 257 179 Q 266 188 266 202 L 266 202 Z M 154 266 Q 181 267 196 290 Q 208 314 196 338 Q 181 361 154 362 Q 127 361 112 338 Q 100 314 112 290 Q 127 267 154 266 L 154 266 Z M 186 314 Q 186 300 177 291 L 177 291 L 177 291 Q 168 282 154 282 Q 140 282 131 291 Q 122 300 122 314 Q 122 328 131 337 Q 140 346 154 346 Q 168 346 177 337 Q 186 328 186 314 L 186 314 Z" />
</svg>