<svg xmlns="http://www.w3.org/2000/svg" viewBox="0 0 641 508">
  <path d="M 145 0 L 156 5 L 145 0 L 156 5 L 236 37 L 236 37 L 241 39 L 241 39 L 241 44 L 241 44 L 241 268 L 241 268 L 225 268 L 225 268 L 225 49 L 225 49 L 161 24 L 161 24 L 161 268 L 161 268 L 145 268 L 145 268 L 145 12 L 145 12 L 145 0 L 145 0 Z M 303 202 L 283 230 L 303 202 L 283 230 L 319 62 L 319 62 L 273 71 L 273 71 L 273 55 L 273 55 L 327 44 L 327 44 L 339 42 L 339 42 L 337 54 L 337 54 L 307 196 L 307 196 L 303 202 L 303 202 Z M 369 171 Q 360 175 352 179 L 369 90 L 369 90 L 371 83 L 371 83 L 387 86 L 387 86 L 385 94 L 385 94 L 369 171 L 369 171 Z M 113 300 L 257 300 L 113 300 L 257 300 L 257 316 L 257 316 L 113 316 L 104 316 L 99 308 L 99 308 L 56 236 L 56 236 L 21 236 L 21 236 L 78 492 L 78 492 L 257 492 L 257 492 L 257 508 L 257 508 L 65 508 L 65 508 L 5 236 L 5 236 L 1 220 L 1 220 L 17 220 L 65 220 L 113 300 L 113 300 Z M 20 188 L 1 94 L 20 188 L 1 94 L 0 86 L 0 86 L 15 83 L 15 83 L 17 91 L 17 91 L 36 188 L 36 188 L 20 188 L 20 188 Z M 83 202 L 82 200 L 83 202 L 82 200 L 57 45 L 57 45 L 56 40 L 56 40 L 61 37 L 61 37 L 113 11 L 113 11 L 113 29 L 113 29 L 74 49 L 74 49 L 103 230 L 103 230 L 83 202 L 83 202 Z M 305 300 Q 304 298 318 273 L 318 273 L 318 273 Q 332 248 367 223 L 367 223 L 367 223 Q 402 198 465 196 Q 528 198 563 223 Q 598 248 612 273 Q 626 298 625 300 L 625 332 L 625 332 L 641 332 L 641 332 L 641 348 L 641 348 L 641 412 L 641 412 L 641 428 L 641 428 L 625 428 L 625 428 L 625 500 L 625 500 L 625 508 L 625 508 L 617 508 L 305 508 L 305 500 L 305 500 L 305 428 L 305 428 L 289 428 L 289 428 L 289 412 L 289 412 L 289 348 L 289 348 L 289 332 L 289 332 L 305 332 L 305 332 L 305 300 L 305 300 Z M 609 303 Q 609 302 609 302 L 609 302 L 609 302 Q 609 301 609 301 Q 607 298 604 291 Q 597 277 581 259 Q 566 241 537 227 Q 509 213 465 212 Q 421 213 393 227 Q 365 241 349 259 Q 333 277 326 291 Q 323 298 322 301 Q 322 302 321 302 Q 321 302 321 303 L 321 332 L 321 332 L 609 332 L 609 332 L 609 303 L 609 303 Z M 305 412 L 313 412 L 305 412 L 625 412 L 625 348 L 625 348 L 609 348 L 305 348 L 305 412 L 305 412 Z M 321 428 L 321 492 L 321 428 L 321 492 L 609 492 L 609 492 L 609 428 L 609 428 L 321 428 L 321 428 Z M 395 260 Q 394 269 385 270 Q 376 269 375 260 Q 376 251 385 250 Q 394 251 395 260 L 395 260 Z M 465 254 Q 456 253 455 244 Q 456 235 465 234 Q 474 235 475 244 Q 474 253 465 254 L 465 254 Z M 555 260 Q 554 269 545 270 Q 536 269 535 260 Q 536 251 545 250 Q 554 251 555 260 L 555 260 Z" />
</svg>