<svg xmlns="http://www.w3.org/2000/svg" viewBox="0 0 512 416">
  <path d="M 336 224 L 320 224 L 336 224 L 80 224 L 80 208 L 80 208 L 80 16 L 80 16 L 16 16 L 16 16 L 16 288 L 16 288 L 320 288 L 336 288 L 336 304 L 336 304 L 336 400 L 336 400 L 345 400 L 345 400 L 489 256 L 489 256 L 345 112 L 345 112 L 336 112 L 336 112 L 336 208 L 336 208 L 336 224 L 336 224 Z M 352 96 L 501 245 L 352 96 L 501 245 L 512 256 L 512 256 L 501 267 L 501 267 L 352 416 L 352 416 L 336 416 L 320 416 L 320 400 L 320 400 L 320 320 L 320 320 L 320 304 L 320 304 L 304 304 L 0 304 L 0 288 L 0 288 L 0 16 L 0 16 L 0 0 L 0 0 L 16 0 L 96 0 L 96 16 L 96 16 L 96 192 L 96 192 L 96 208 L 96 208 L 112 208 L 320 208 L 320 192 L 320 192 L 320 112 L 320 112 L 320 96 L 320 96 L 336 96 L 352 96 Z" />
</svg>