<svg xmlns="http://www.w3.org/2000/svg" viewBox="0 0 416 512">
  <path d="M 71 104 Q 79 98 80 80 Q 80 73 74 61 Q 68 49 59 38 Q 53 30 48 24 Q 43 30 37 38 Q 28 49 22 61 Q 16 73 16 80 Q 16 94 25 103 Q 34 112 48 112 Q 63 112 71 104 L 71 104 Z M 37 12 Q 47 1 48 0 L 48 0 L 48 0 Q 48 0 48 0 Q 49 0 59 12 Q 70 25 83 44 Q 95 63 96 80 Q 95 104 82 116 Q 68 128 48 128 Q 28 127 14 114 Q 1 100 0 80 Q 1 63 13 44 Q 26 25 37 12 L 37 12 Z M 240 80 Q 240 73 234 61 Q 228 49 219 38 Q 213 30 208 24 Q 203 30 197 38 Q 188 49 182 61 Q 176 73 176 80 Q 176 94 185 103 Q 194 112 208 112 Q 223 112 231 104 Q 239 98 240 80 L 240 80 Z M 160 80 Q 161 63 173 44 L 173 44 L 173 44 Q 186 25 197 12 Q 207 0 208 0 Q 209 0 219 12 Q 230 25 243 44 Q 255 63 256 80 Q 255 104 242 116 Q 228 128 208 128 Q 188 127 174 114 Q 161 100 160 80 L 160 80 Z M 98 176 L 104 176 L 98 176 L 318 176 L 320 182 L 320 182 L 350 288 L 350 288 L 384 288 L 400 288 L 400 304 L 400 304 L 400 432 L 400 432 L 400 448 L 400 448 L 400 496 L 400 496 L 400 512 L 400 512 L 384 512 L 320 512 L 320 496 L 320 496 L 320 448 L 320 448 L 96 448 L 96 448 L 96 496 L 96 496 L 96 512 L 96 512 L 80 512 L 16 512 L 16 496 L 16 496 L 16 448 L 16 448 L 16 432 L 16 432 L 16 304 L 16 304 L 16 288 L 16 288 L 32 288 L 66 288 L 96 182 L 96 182 L 98 176 L 98 176 Z M 384 432 L 384 304 L 384 432 L 384 304 L 32 304 L 32 304 L 32 432 L 32 432 L 80 432 L 384 432 Z M 336 496 L 384 496 L 336 496 L 384 496 L 384 448 L 384 448 L 336 448 L 336 448 L 336 496 L 336 496 Z M 80 448 L 32 448 L 80 448 L 32 448 L 32 496 L 32 496 L 80 496 L 80 496 L 80 448 L 80 448 Z M 306 192 L 110 192 L 306 192 L 110 192 L 83 288 L 83 288 L 333 288 L 333 288 L 306 192 L 306 192 Z M 80 368 Q 81 383 96 384 Q 111 383 112 368 Q 111 353 96 352 Q 81 353 80 368 L 80 368 Z M 96 400 Q 82 400 73 391 L 73 391 L 73 391 Q 64 382 64 368 Q 64 354 73 345 Q 82 336 96 336 Q 110 336 119 345 Q 128 354 128 368 Q 128 382 119 391 Q 110 400 96 400 L 96 400 Z M 320 352 Q 305 353 304 368 Q 305 383 320 384 Q 335 383 336 368 Q 335 353 320 352 L 320 352 Z M 352 368 Q 352 382 343 391 L 343 391 L 343 391 Q 334 400 320 400 Q 306 400 297 391 Q 288 382 288 368 Q 288 354 297 345 Q 306 336 320 336 Q 334 336 343 345 Q 352 354 352 368 L 352 368 Z M 400 80 Q 400 73 394 61 Q 388 49 379 38 Q 373 30 368 24 Q 363 30 357 38 Q 348 49 342 61 Q 336 73 336 80 Q 336 94 345 103 Q 354 112 368 112 Q 383 112 391 104 Q 399 98 400 80 L 400 80 Z M 320 80 Q 321 63 333 44 L 333 44 L 333 44 Q 346 25 357 12 Q 367 0 368 0 Q 369 0 379 12 Q 390 25 403 44 Q 415 63 416 80 Q 415 104 402 116 Q 388 128 368 128 Q 348 127 334 114 Q 321 100 320 80 L 320 80 Z" />
</svg>