<svg xmlns="http://www.w3.org/2000/svg" viewBox="0 0 512 506">
  <path d="M 210 33 Q 217 20 229 10 L 229 10 L 229 10 Q 241 0 256 0 Q 271 0 283 10 Q 295 20 302 33 Q 319 62 320 89 L 320 168 L 320 168 L 320 177 L 320 177 L 508 281 L 508 281 L 512 283 L 512 283 L 512 288 L 512 288 L 512 376 L 512 376 L 512 386 L 512 386 L 502 384 L 502 384 L 320 333 L 320 333 L 320 344 L 320 344 L 320 388 L 320 388 L 381 433 L 381 433 L 384 436 L 384 436 L 384 440 L 384 440 L 384 496 L 384 496 L 384 506 L 384 506 L 374 503 L 374 503 L 256 472 L 256 472 L 138 504 L 138 504 L 128 506 L 128 506 L 128 496 L 128 496 L 128 440 L 128 440 L 128 436 L 128 436 L 131 433 L 131 433 L 192 388 L 192 388 L 192 344 L 192 344 L 192 333 L 192 333 L 10 384 L 10 384 L 0 386 L 0 386 L 0 376 L 0 376 L 0 288 L 0 288 L 0 283 L 0 283 L 4 281 L 4 281 L 192 177 L 192 177 L 192 168 L 192 168 L 192 89 L 192 89 Q 193 62 210 33 L 210 33 Z M 208 168 L 208 182 L 208 168 L 208 182 L 208 312 L 208 312 L 208 323 L 208 323 L 208 344 L 208 344 L 208 392 L 208 392 L 208 396 L 208 396 L 205 398 L 205 398 L 144 444 L 144 444 L 144 486 L 144 486 L 254 456 L 254 456 L 256 456 L 258 456 L 368 486 L 368 486 L 368 444 L 368 444 L 307 398 L 307 398 L 304 396 L 304 396 L 304 392 L 304 392 L 304 344 L 304 344 L 304 323 L 304 323 L 304 312 L 304 312 L 304 187 L 304 187 L 304 182 L 304 182 L 304 168 L 304 168 L 304 89 L 304 89 Q 303 67 289 42 Q 274 17 256 16 Q 239 17 223 42 Q 208 67 208 89 L 208 168 L 208 168 Z M 192 195 L 16 293 L 192 195 L 16 293 L 16 365 L 16 365 L 192 317 L 192 317 L 192 195 L 192 195 Z M 320 317 L 496 365 L 320 317 L 496 365 L 496 293 L 496 293 L 320 195 L 320 195 L 320 317 L 320 317 Z" />
</svg>