<svg xmlns="http://www.w3.org/2000/svg" viewBox="0 0 640 512">
  <path d="M 544 272 L 544 224 L 544 272 L 544 224 L 431 220 L 431 220 L 415 220 L 415 220 L 420 204 L 420 204 L 472 26 L 472 26 L 480 0 L 480 0 L 459 16 L 459 16 L 291 142 L 291 142 L 304 152 L 304 152 L 451 42 L 451 42 L 399 215 L 399 215 L 397 225 L 397 225 L 410 235 L 410 235 L 414 236 L 414 236 L 528 240 L 528 240 L 528 264 L 528 264 L 486 295 L 486 295 L 499 306 L 499 306 L 544 272 L 544 272 Z M 172 231 L 160 240 L 172 231 L 160 240 L 160 288 L 160 288 L 248 291 L 248 291 L 227 274 L 227 274 L 176 273 L 176 273 L 176 248 L 176 248 L 185 241 L 185 241 L 172 231 L 172 231 Z M 282 318 L 232 486 L 282 318 L 232 486 L 224 512 L 224 512 L 246 496 L 246 496 L 380 395 L 380 395 L 367 385 L 367 385 L 253 470 L 253 470 L 295 328 L 295 328 L 282 318 L 282 318 Z M 16 5 L 10 0 L 16 5 L 10 0 L 0 13 L 0 13 L 6 18 L 6 18 L 624 507 L 624 507 L 630 512 L 630 512 L 640 500 L 640 500 L 634 495 L 634 495 L 16 5 L 16 5 Z" />
</svg>