<svg xmlns="http://www.w3.org/2000/svg" viewBox="0 0 640 512">
  <path d="M 80 320 L 96 320 L 80 320 L 96 320 L 96 336 L 96 336 L 96 366 L 96 366 L 96 384 L 96 384 L 112 376 L 112 376 L 224 320 L 224 320 L 400 320 L 416 320 L 416 304 L 416 304 L 416 16 L 416 16 L 416 0 L 416 0 L 400 0 L 0 0 L 0 16 L 0 16 L 0 304 L 0 304 L 0 320 L 0 320 L 16 320 L 80 320 Z M 16 304 L 16 16 L 16 304 L 16 16 L 400 16 L 400 16 L 400 304 L 400 304 L 224 304 L 220 304 L 217 306 L 217 306 L 112 358 L 112 358 L 112 320 L 112 320 L 112 304 L 112 304 L 96 304 L 16 304 Z M 256 352 L 256 432 L 256 352 L 256 432 L 256 448 L 256 448 L 272 448 L 416 448 L 528 504 L 528 504 L 544 512 L 544 512 L 544 494 L 544 494 L 544 464 L 544 464 L 544 448 L 544 448 L 560 448 L 640 448 L 640 432 L 640 432 L 640 144 L 640 144 L 640 128 L 640 128 L 624 128 L 448 128 L 448 144 L 448 144 L 624 144 L 624 144 L 624 432 L 624 432 L 544 432 L 528 432 L 528 448 L 528 448 L 528 486 L 528 486 L 423 434 L 423 434 L 420 432 L 420 432 L 416 432 L 272 432 L 272 352 L 272 352 L 256 352 L 256 352 Z M 215 85 L 215 78 L 215 85 L 215 78 L 201 78 L 201 78 L 201 85 L 201 85 L 201 97 L 201 97 Q 191 98 183 102 Q 167 108 163 125 Q 161 134 165 142 Q 169 150 176 154 Q 189 162 205 166 L 206 166 L 206 166 Q 223 170 232 176 Q 237 179 238 183 Q 240 186 239 193 Q 237 202 227 206 Q 217 210 199 208 Q 189 206 177 202 Q 177 202 176 201 Q 176 201 176 201 Q 176 201 176 201 Q 176 201 176 201 Q 176 201 176 201 Q 175 201 174 201 Q 173 200 172 200 L 165 198 L 165 198 L 161 211 L 161 211 L 167 213 L 167 213 Q 168 214 170 214 Q 170 214 171 215 Q 171 215 171 215 Q 171 215 171 215 Q 171 215 171 215 Q 171 215 171 215 Q 185 220 197 222 Q 197 222 197 222 Q 197 222 198 222 Q 199 222 201 223 L 201 235 L 201 235 L 201 242 L 201 242 L 215 242 L 215 242 L 215 235 L 215 235 L 215 223 L 215 223 Q 225 222 233 219 Q 249 213 253 195 Q 255 185 251 177 Q 247 169 240 165 Q 227 156 211 152 Q 210 152 210 152 L 210 152 L 210 152 Q 210 152 210 152 Q 193 148 184 142 Q 179 139 178 136 Q 176 133 177 127 Q 178 120 189 115 Q 200 110 217 112 Q 220 113 226 114 Q 232 115 235 116 L 239 102 L 239 102 Q 235 101 229 100 Q 222 99 219 98 Q 219 98 218 98 Q 217 98 215 98 L 215 85 L 215 85 Z" />
</svg>