<svg xmlns="http://www.w3.org/2000/svg" viewBox="0 0 640 512">
  <path d="M 592 16 L 176 16 L 592 16 L 176 16 L 176 336 L 176 336 L 197 336 L 197 336 L 202 330 L 202 330 L 442 90 L 442 90 L 448 85 L 448 85 L 454 90 L 454 90 L 526 162 L 526 162 L 509 168 L 509 168 L 448 107 L 448 107 L 219 336 L 219 336 L 400 336 L 400 336 L 400 352 L 400 352 L 176 352 L 160 352 L 160 336 L 160 336 L 160 16 L 160 16 L 160 0 L 160 0 L 176 0 L 608 0 L 608 16 L 608 16 L 608 135 L 608 135 L 592 140 L 592 140 L 592 16 L 592 16 Z M 264 96 Q 266 118 288 120 Q 310 118 312 96 Q 310 74 288 72 Q 266 74 264 96 L 264 96 Z M 288 136 Q 265 135 253 116 Q 243 96 253 76 Q 265 57 288 56 Q 311 57 323 76 Q 333 96 323 116 Q 311 135 288 136 L 288 136 Z M 128 96 L 128 112 L 128 96 L 128 112 L 128 192 L 128 192 L 128 272 L 128 272 L 128 344 L 128 344 L 128 384 L 128 384 L 128 432 L 128 432 L 297 432 L 297 432 Q 292 439 290 448 L 128 448 L 0 448 L 0 432 L 0 432 L 0 352 L 0 352 L 0 344 L 0 344 L 0 336 L 0 336 L 0 280 L 0 280 L 0 272 L 0 272 L 0 264 L 0 264 L 0 200 L 0 200 L 0 192 L 0 192 L 0 184 L 0 184 L 0 112 L 0 112 L 0 96 L 0 96 L 16 96 L 128 96 Z M 16 352 L 16 432 L 16 352 L 16 432 L 112 432 L 112 432 L 112 352 L 112 352 L 16 352 L 16 352 Z M 16 336 L 112 336 L 16 336 L 112 336 L 112 280 L 112 280 L 16 280 L 16 280 L 16 336 L 16 336 Z M 16 264 L 112 264 L 16 264 L 112 264 L 112 200 L 112 200 L 16 200 L 16 200 L 16 264 L 16 264 Z M 16 184 L 112 184 L 16 184 L 112 184 L 112 112 L 112 112 L 16 112 L 16 112 L 16 184 L 16 184 Z M 640 157 L 640 168 L 640 157 L 640 168 L 640 240 L 640 240 L 640 392 L 640 392 Q 640 393 640 394 Q 640 397 640 400 Q 639 420 621 434 Q 603 447 576 448 Q 549 447 531 434 Q 513 420 512 400 Q 513 380 531 366 Q 549 352 576 352 Q 606 353 624 368 L 624 251 L 624 251 L 448 310 L 448 310 L 448 464 L 448 464 Q 448 464 448 464 Q 448 464 448 464 Q 447 484 429 498 Q 411 511 384 512 Q 357 511 339 498 Q 321 484 320 464 Q 321 444 339 430 Q 357 416 384 416 Q 414 417 432 432 L 432 304 L 432 304 L 432 232 L 432 232 L 432 226 L 432 226 L 438 224 L 438 224 L 630 160 L 630 160 L 640 157 L 640 157 Z M 420 443 Q 406 433 384 432 Q 362 432 348 443 Q 336 453 336 464 Q 336 475 348 485 Q 362 495 384 496 Q 406 495 420 485 Q 432 475 432 464 Q 432 453 420 443 L 420 443 Z M 448 293 L 624 234 L 448 293 L 624 234 L 624 179 L 624 179 L 448 238 L 448 238 L 448 293 L 448 293 Z M 624 400 Q 624 389 612 379 Q 598 369 576 368 Q 554 368 540 379 Q 528 389 528 400 Q 528 411 540 421 Q 554 431 576 432 Q 598 431 612 421 Q 624 411 624 400 L 624 400 Z" />
</svg>