<svg xmlns="http://www.w3.org/2000/svg" viewBox="0 0 512 512">
  <path d="M 512 0 L 0 0 L 512 0 L 0 0 L 0 16 L 0 16 L 512 16 L 512 16 L 512 0 L 512 0 Z M 208 112 L 208 496 L 208 112 L 208 496 L 80 496 L 80 496 L 80 112 L 80 112 L 208 112 L 208 112 Z M 80 96 L 64 96 L 80 96 L 64 96 L 64 112 L 64 112 L 64 496 L 64 496 L 64 512 L 64 512 L 80 512 L 224 512 L 224 496 L 224 496 L 224 112 L 224 112 L 224 96 L 224 96 L 208 96 L 80 96 Z M 432 112 L 432 368 L 432 112 L 432 368 L 304 368 L 304 368 L 304 112 L 304 112 L 432 112 L 432 112 Z M 304 96 L 288 96 L 304 96 L 288 96 L 288 112 L 288 112 L 288 368 L 288 368 L 288 384 L 288 384 L 304 384 L 448 384 L 448 368 L 448 368 L 448 112 L 448 112 L 448 96 L 448 96 L 432 96 L 304 96 Z" />
</svg>