<svg xmlns="http://www.w3.org/2000/svg" viewBox="0 0 502 448">
  <path d="M 134 64 L 145 53 L 134 64 L 145 53 L 198 0 L 198 0 L 422 0 L 438 0 L 438 16 L 438 16 L 438 112 L 438 112 L 438 128 L 438 128 L 422 128 L 198 128 L 145 75 L 145 75 L 134 64 L 134 64 Z M 422 112 L 422 16 L 422 112 L 422 16 L 205 16 L 205 16 L 157 64 L 157 64 L 205 112 L 205 112 L 422 112 L 422 112 Z M 86 64 Q 86 50 77 41 L 77 41 L 77 41 Q 68 32 54 32 Q 40 32 31 41 Q 22 50 22 64 Q 22 78 31 87 Q 40 96 54 96 Q 68 96 77 87 Q 86 78 86 64 L 86 64 Z M 6 64 Q 7 37 30 22 Q 54 10 78 22 Q 101 37 102 64 Q 101 91 78 106 Q 54 118 30 106 Q 7 91 6 64 L 6 64 Z M 86 224 Q 86 210 77 201 L 77 201 L 77 201 Q 68 192 54 192 Q 40 192 31 201 Q 22 210 22 224 Q 22 238 31 247 Q 40 256 54 256 Q 68 256 77 247 Q 86 238 86 224 L 86 224 Z M 6 224 Q 7 197 30 182 Q 54 170 78 182 Q 101 197 102 224 Q 101 251 78 266 Q 54 278 30 266 Q 7 251 6 224 L 6 224 Z M 54 352 Q 40 352 31 361 L 31 361 L 31 361 Q 22 370 22 384 Q 22 398 31 407 Q 40 416 54 416 Q 68 416 77 407 Q 86 398 86 384 Q 86 370 77 361 Q 68 352 54 352 L 54 352 Z M 54 432 Q 27 431 12 408 Q 0 384 12 360 Q 27 337 54 336 Q 81 337 96 360 Q 108 384 96 408 Q 81 431 54 432 L 54 432 Z M 134 384 L 145 373 L 134 384 L 145 373 L 198 320 L 198 320 L 422 320 L 438 320 L 438 336 L 438 336 L 438 432 L 438 432 L 438 448 L 438 448 L 422 448 L 198 448 L 145 395 L 145 395 L 134 384 L 134 384 Z M 422 432 L 422 336 L 422 432 L 422 336 L 205 336 L 205 336 L 157 384 L 157 384 L 205 432 L 205 432 L 422 432 L 422 432 Z M 145 235 L 134 224 L 145 235 L 134 224 L 145 213 L 145 213 L 198 160 L 198 160 L 486 160 L 502 160 L 502 176 L 502 176 L 502 272 L 502 272 L 502 288 L 502 288 L 486 288 L 198 288 L 145 235 L 145 235 Z M 205 272 L 486 272 L 205 272 L 486 272 L 486 176 L 486 176 L 205 176 L 205 176 L 157 224 L 157 224 L 205 272 L 205 272 Z" />
</svg>