<svg xmlns="http://www.w3.org/2000/svg" viewBox="0 0 452 460">
  <path d="M 216 32 L 256 32 L 216 32 L 256 32 L 256 52 L 256 52 Q 254 70 236 72 Q 218 70 216 52 L 216 32 L 216 32 Z M 184 0 L 184 32 L 184 0 L 184 32 L 184 52 L 184 52 Q 185 74 199 89 Q 214 103 236 104 Q 258 103 273 89 Q 287 74 288 52 L 288 32 L 288 32 L 288 0 L 288 0 L 256 0 L 184 0 Z M 212 436 L 212 460 L 212 436 L 212 460 L 236 460 L 260 460 L 260 436 L 260 436 Q 258 414 236 412 Q 214 414 212 436 L 212 436 Z M 428 220 Q 406 222 404 244 Q 406 266 428 268 L 452 268 L 452 268 L 452 244 L 452 244 L 452 220 L 452 220 L 428 220 L 428 220 Z M 44 256 L 32 256 L 44 256 L 32 256 L 32 232 L 32 232 L 44 232 L 44 232 Q 55 233 56 244 Q 55 255 44 256 L 44 256 Z M 44 200 L 32 200 L 44 200 L 0 200 L 0 232 L 0 232 L 0 256 L 0 256 L 0 288 L 0 288 L 32 288 L 44 288 Q 63 288 75 275 Q 88 263 88 244 Q 88 225 75 213 Q 63 200 44 200 L 44 200 Z M 406 108 L 389 125 L 406 108 L 389 125 Q 372 139 355 125 Q 341 108 355 91 L 372 74 L 372 74 L 406 108 L 406 108 Z M 394 52 L 372 29 L 394 52 L 372 29 L 349 52 L 349 52 L 332 69 L 332 69 Q 316 86 316 108 Q 316 131 332 148 Q 349 164 372 164 Q 394 164 411 148 L 428 131 L 428 131 L 451 108 L 451 108 L 428 86 L 428 86 L 394 52 L 394 52 Z M 61 380 L 80 400 L 61 380 L 80 400 L 100 419 L 100 419 L 120 400 L 120 400 Q 128 391 128 380 Q 128 369 120 360 Q 111 352 100 352 Q 89 352 80 360 L 61 380 L 61 380 Z M 381 389 L 398 372 L 381 389 L 398 372 L 381 355 L 381 355 Q 364 341 347 355 Q 333 372 347 389 L 364 406 L 364 406 L 381 389 L 381 389 Z M 89 120 L 78 108 L 89 120 L 78 108 L 100 86 L 100 86 L 112 97 L 112 97 Q 121 108 112 120 Q 100 129 89 120 L 89 120 Z M 134 74 L 123 63 L 134 74 L 123 63 L 100 40 L 100 40 L 78 63 L 78 63 L 55 86 L 55 86 L 32 108 L 32 108 L 55 131 L 55 131 L 66 142 L 66 142 Q 81 156 100 156 Q 119 156 134 142 Q 148 127 148 108 Q 148 89 134 74 L 134 74 Z" />
</svg>