<svg xmlns="http://www.w3.org/2000/svg" viewBox="0 0 450 453">
  <path d="M 0 0 L 8 0 L 0 0 L 120 0 Q 178 1 216 40 Q 255 78 256 136 Q 255 189 222 226 Q 190 263 139 271 L 198 448 L 198 448 L 181 448 L 181 448 L 122 272 L 122 272 Q 122 272 121 272 Q 121 272 120 272 L 16 272 L 16 272 L 16 448 L 16 448 L 0 448 L 0 448 L 0 264 L 0 264 L 0 8 L 0 8 L 0 0 L 0 0 Z M 16 256 L 120 256 L 16 256 L 120 256 Q 171 255 205 221 Q 239 187 240 136 Q 239 85 205 51 Q 171 17 120 16 L 16 16 L 16 16 L 16 256 L 16 256 Z M 289 222 Q 287 240 291 250 Q 296 261 306 269 Q 328 284 361 294 Q 362 294 362 294 L 363 294 L 363 294 Q 397 304 424 323 Q 437 334 444 350 Q 450 366 447 388 Q 440 424 409 439 Q 379 453 338 446 Q 338 446 338 446 Q 338 446 338 446 Q 324 443 307 436 Q 295 432 286 428 Q 286 428 286 428 Q 281 426 277 425 L 270 422 L 270 422 L 275 407 L 275 407 L 283 410 L 283 410 Q 287 412 292 414 Q 292 414 292 414 Q 292 414 292 414 Q 301 417 312 421 Q 329 428 341 430 Q 378 436 402 425 Q 426 413 431 386 Q 433 367 429 356 Q 424 344 414 336 Q 392 320 358 309 L 355 309 L 355 309 Q 355 308 354 308 Q 322 299 297 282 Q 283 272 277 257 Q 270 241 273 220 Q 279 186 310 171 Q 341 156 382 162 Q 389 164 402 166 Q 415 169 422 172 L 430 174 L 430 174 L 425 189 L 425 189 L 418 187 L 418 187 Q 411 185 398 182 Q 386 179 379 178 Q 342 172 317 185 Q 293 198 289 222 L 289 222 Z" />
</svg>