<svg xmlns="http://www.w3.org/2000/svg" viewBox="0 0 576 512">
  <path d="M 192 0 Q 145 1 114 32 L 114 32 L 114 32 Q 82 63 80 109 L 49 195 L 49 195 L 48 197 L 48 197 L 48 200 L 48 200 L 48 240 L 48 240 L 48 247 L 48 247 L 53 251 L 53 251 L 80 279 L 80 279 L 80 304 L 80 304 L 80 311 L 80 311 L 85 315 L 85 315 L 133 363 L 133 363 L 137 368 L 137 368 L 144 368 L 169 368 L 197 395 L 197 395 L 201 400 L 201 400 L 208 400 L 247 400 L 251 395 L 251 395 L 279 368 L 279 368 L 304 368 L 311 368 L 315 363 L 315 363 L 363 315 L 363 315 L 368 311 L 368 311 L 368 304 L 368 304 L 368 279 L 368 279 L 395 251 L 395 251 L 400 247 L 400 247 L 400 240 L 400 240 L 400 200 L 400 200 L 400 197 L 400 197 L 399 195 L 399 195 L 368 109 L 368 109 Q 366 63 334 32 Q 303 1 256 0 L 192 0 L 192 0 Z M 114 96 Q 120 68 141 50 L 141 50 L 141 50 Q 162 33 192 32 L 256 32 L 256 32 Q 286 33 307 50 Q 328 68 334 96 L 263 96 L 263 96 L 235 69 L 235 69 L 224 57 L 224 57 L 213 69 L 213 69 L 185 96 L 185 96 L 114 96 L 114 96 Z M 128 128 L 192 128 L 128 128 L 199 128 L 203 123 L 203 123 L 224 103 L 224 103 L 245 123 L 245 123 L 249 128 L 249 128 L 256 128 L 320 128 L 320 144 L 320 144 Q 319 182 295 209 L 267 181 L 267 181 L 263 176 L 263 176 L 256 176 L 185 176 L 181 181 L 181 181 L 153 209 L 153 209 Q 129 182 128 144 L 128 128 L 128 128 Z M 249 208 L 270 228 L 249 208 L 270 228 Q 249 240 224 240 Q 199 240 178 228 L 199 208 L 199 208 L 249 208 L 249 208 Z M 97 157 Q 103 207 138 239 L 138 239 L 138 239 Q 173 271 224 272 Q 275 271 310 239 Q 345 207 351 157 L 368 203 L 368 203 L 368 233 L 368 233 L 341 261 L 341 261 L 336 265 L 336 265 L 336 272 L 336 272 L 336 297 L 336 297 L 297 336 L 297 336 L 272 336 L 265 336 L 261 341 L 261 341 L 233 368 L 233 368 L 215 368 L 215 368 L 187 341 L 187 341 L 183 336 L 183 336 L 176 336 L 151 336 L 112 297 L 112 297 L 112 272 L 112 272 L 112 265 L 112 265 L 107 261 L 107 261 L 80 233 L 80 233 L 80 203 L 80 203 L 97 157 L 97 157 Z M 59 335 L 11 480 L 59 335 L 11 480 L 0 512 L 0 512 L 34 512 L 365 512 L 370 480 L 370 480 L 44 480 L 44 480 L 84 360 L 84 360 L 62 338 L 62 338 L 59 335 L 59 335 Z M 497 224 L 493 229 L 497 224 L 493 229 L 357 365 L 357 365 L 352 369 L 352 369 L 352 376 L 352 376 L 352 384 L 352 384 L 352 400 L 352 400 L 368 400 L 414 400 L 400 494 L 400 494 L 398 512 L 398 512 L 416 512 L 431 512 L 435 507 L 435 507 L 571 371 L 571 371 L 576 367 L 576 367 L 576 360 L 576 360 L 576 352 L 576 352 L 576 336 L 576 336 L 560 336 L 514 336 L 528 242 L 528 242 L 530 224 L 530 224 L 512 224 L 497 224 Z M 491 276 L 480 350 L 491 276 L 480 350 L 478 368 L 478 368 L 496 368 L 529 368 L 437 460 L 437 460 L 448 386 L 448 386 L 450 368 L 450 368 L 432 368 L 399 368 L 491 276 L 491 276 Z" />
</svg>