<svg xmlns="http://www.w3.org/2000/svg" viewBox="0 0 640 448">
  <path d="M 72 104 Q 74 54 116 28 Q 160 4 204 28 Q 246 54 248 104 Q 246 154 204 180 Q 160 204 116 180 Q 74 154 72 104 L 72 104 Z M 264 104 Q 264 76 250 52 L 250 52 L 250 52 Q 236 28 212 14 Q 187 0 160 0 Q 133 0 108 14 Q 84 28 70 52 Q 56 76 56 104 Q 56 132 70 156 Q 84 180 108 194 Q 133 208 160 208 Q 187 208 212 194 Q 236 180 250 156 Q 264 132 264 104 L 264 104 Z M 392 104 Q 394 54 436 28 Q 480 4 524 28 Q 566 54 568 104 Q 566 154 524 180 Q 480 204 436 180 Q 394 154 392 104 L 392 104 Z M 584 104 Q 584 76 570 52 L 570 52 L 570 52 Q 556 28 532 14 Q 507 0 480 0 Q 453 0 428 14 Q 404 28 390 52 Q 376 76 376 104 Q 376 132 390 156 Q 404 180 428 194 Q 453 208 480 208 Q 507 208 532 194 Q 556 180 570 156 Q 584 132 584 104 L 584 104 Z M 76 272 L 244 272 L 76 272 L 244 272 L 298 432 L 298 432 L 22 432 L 22 432 L 76 272 L 76 272 Z M 256 256 L 64 256 L 256 256 L 64 256 L 5 432 L 5 432 L 0 448 L 0 448 L 17 448 L 320 448 L 315 432 L 315 432 L 256 256 L 256 256 Z M 342 272 L 618 272 L 342 272 L 618 272 L 565 432 L 565 432 L 396 432 L 396 432 L 342 272 L 342 272 Z M 384 448 L 576 448 L 384 448 L 576 448 L 635 272 L 635 272 L 640 256 L 640 256 L 623 256 L 320 256 L 325 272 L 325 272 L 384 448 L 384 448 Z" />
</svg>