<svg xmlns="http://www.w3.org/2000/svg" viewBox="0 0 512 512">
  <path d="M 256 57 L 164 8 L 256 57 L 164 8 L 150 0 L 150 0 L 145 16 L 145 16 L 115 115 L 115 115 L 16 145 L 16 145 L 0 150 L 0 150 L 8 164 L 8 164 L 57 256 L 57 256 L 8 348 L 8 348 L 0 362 L 0 362 L 16 367 L 16 367 L 115 397 L 115 397 L 145 496 L 145 496 L 150 512 L 150 512 L 164 504 L 164 504 L 256 455 L 256 455 L 348 504 L 348 504 L 362 512 L 362 512 L 367 496 L 367 496 L 397 397 L 397 397 L 496 367 L 496 367 L 512 362 L 512 362 L 504 348 L 504 348 L 455 256 L 455 256 L 504 164 L 504 164 L 512 150 L 512 150 L 496 145 L 496 145 L 397 115 L 397 115 L 367 16 L 367 16 L 362 0 L 362 0 L 348 8 L 348 8 L 256 57 L 256 57 Z M 352 23 L 381 120 L 352 23 L 381 120 L 384 128 L 384 128 L 392 131 L 392 131 L 489 160 L 489 160 L 441 249 L 441 249 L 437 256 L 437 256 L 441 264 L 441 264 L 489 353 L 489 353 L 392 382 L 392 382 L 384 384 L 384 384 L 381 392 L 381 392 L 352 489 L 352 489 L 264 441 L 264 441 L 256 437 L 256 437 L 248 441 L 248 441 L 159 489 L 159 489 L 130 392 L 130 392 L 128 384 L 128 384 L 120 382 L 120 382 L 23 353 L 23 353 L 71 264 L 71 264 L 75 256 L 75 256 L 71 249 L 71 249 L 23 160 L 23 160 L 120 131 L 120 131 L 128 128 L 128 128 L 131 120 L 131 120 L 160 23 L 160 23 L 249 71 L 249 71 L 256 75 L 256 75 L 264 71 L 264 71 L 353 23 L 352 23 Z M 400 256 Q 400 217 381 184 L 381 184 L 381 184 Q 362 151 328 131 Q 294 112 256 112 Q 218 112 184 131 Q 150 151 131 184 Q 112 217 112 256 Q 112 295 131 328 Q 150 361 184 381 Q 218 400 256 400 Q 294 400 328 381 Q 362 361 381 328 Q 400 295 400 256 L 400 256 Z M 256 128 Q 291 128 320 145 L 320 145 L 320 145 Q 349 162 367 192 Q 384 222 384 256 Q 384 290 367 320 Q 349 350 320 367 Q 291 384 256 384 Q 221 384 192 367 Q 163 350 145 320 Q 128 290 128 256 Q 128 222 145 192 Q 163 162 192 145 Q 221 128 256 128 L 256 128 Z M 256 338 Q 221 337 198 314 L 198 314 L 198 314 Q 175 291 174 256 Q 175 225 193 203 Q 212 181 241 175 Q 221 200 220 234 Q 221 269 242 295 Q 263 320 296 328 Q 278 338 256 338 L 256 338 Z M 236 234 Q 238 197 264 174 Q 273 167 284 162 Q 272 159 259 158 Q 258 158 258 158 Q 257 158 256 158 Q 214 159 187 187 Q 159 214 158 256 Q 159 298 187 325 Q 214 353 256 354 Q 294 353 321 329 Q 330 321 337 311 Q 327 313 316 314 Q 316 314 315 314 Q 315 314 314 314 Q 281 312 259 290 Q 237 268 236 234 L 236 234 Z" />
</svg>