<svg xmlns="http://www.w3.org/2000/svg" viewBox="0 0 576 512">
  <path d="M 64 0 L 64 32 L 64 0 L 64 32 L 48 32 L 0 32 L 0 80 L 0 80 L 0 368 L 0 368 L 0 416 L 0 416 L 48 416 L 64 416 L 64 512 L 64 512 L 112 512 L 112 512 L 112 416 L 112 416 L 464 416 L 464 416 L 464 512 L 464 512 L 512 512 L 512 512 L 512 416 L 512 416 L 528 416 L 576 416 L 576 368 L 576 368 L 576 80 L 576 80 L 576 32 L 576 32 L 528 32 L 512 32 L 512 0 L 512 0 L 464 0 L 464 0 L 464 32 L 464 32 L 112 32 L 112 32 L 112 0 L 112 0 L 64 0 L 64 0 Z M 528 80 L 528 368 L 528 80 L 528 368 L 48 368 L 48 368 L 48 80 L 48 80 L 528 80 L 528 80 Z" />
</svg>