<svg xmlns="http://www.w3.org/2000/svg" viewBox="0 0 640 512">
  <path d="M 192 208 Q 209 208 224 213 L 224 265 L 224 265 Q 210 256 192 256 Q 165 257 147 275 Q 129 293 128 320 Q 129 347 147 365 Q 165 383 192 384 Q 210 384 224 375 L 224 427 L 224 427 Q 209 432 192 432 Q 144 431 113 399 Q 81 367 80 320 Q 81 272 113 241 Q 144 209 192 208 L 192 208 Z M 224 152 Q 212 167 192 168 Q 175 168 164 156 Q 152 145 152 128 Q 152 111 164 100 Q 175 88 192 88 Q 212 89 224 104 L 224 152 L 224 152 Z M 48 48 L 48 464 L 48 48 L 48 464 L 224 464 L 224 464 L 224 512 L 224 512 L 48 512 L 0 512 L 0 464 L 0 464 L 0 48 L 0 48 L 0 0 L 0 0 L 48 0 L 224 0 L 224 48 L 224 48 L 48 48 L 48 48 Z M 304 48 L 304 464 L 304 48 L 304 464 L 592 464 L 592 464 L 592 48 L 592 48 L 304 48 L 304 48 Z M 256 0 L 304 0 L 256 0 L 640 0 L 640 48 L 640 48 L 640 464 L 640 464 L 640 512 L 640 512 L 592 512 L 256 512 L 256 464 L 256 464 L 256 48 L 256 48 L 256 0 L 256 0 Z M 448 88 Q 471 89 483 108 Q 493 128 483 148 Q 471 167 448 168 Q 425 167 413 148 Q 403 128 413 108 Q 425 89 448 88 L 448 88 Z M 336 320 Q 336 290 351 264 L 351 264 L 351 264 Q 366 238 392 223 Q 418 208 448 208 Q 478 208 504 223 Q 530 238 545 264 Q 560 290 560 320 Q 560 350 545 376 Q 530 402 504 417 Q 478 432 448 432 Q 418 432 392 417 Q 366 402 351 376 Q 336 350 336 320 L 336 320 Z M 448 384 Q 484 383 503 352 Q 521 320 503 288 Q 484 257 448 256 Q 412 257 393 288 Q 375 320 393 352 Q 412 383 448 384 L 448 384 Z" />
</svg>