<svg xmlns="http://www.w3.org/2000/svg" viewBox="0 0 448 512">
  <path d="M 144 96 L 144 128 L 144 96 L 144 128 L 304 128 L 304 128 L 304 96 L 304 96 Q 303 62 281 39 Q 258 17 224 16 Q 190 17 167 39 Q 145 62 144 96 L 144 96 Z M 128 144 L 16 144 L 128 144 L 16 144 L 16 496 L 16 496 L 432 496 L 432 496 L 432 144 L 432 144 L 320 144 L 320 144 L 320 232 L 320 232 L 320 240 L 320 240 L 304 240 L 304 240 L 304 232 L 304 232 L 304 144 L 304 144 L 144 144 L 144 144 L 144 232 L 144 232 L 144 240 L 144 240 L 128 240 L 128 240 L 128 232 L 128 232 L 128 144 L 128 144 Z M 128 128 L 128 96 L 128 128 L 128 96 Q 129 55 156 28 Q 183 1 224 0 Q 265 1 292 28 Q 319 55 320 96 L 320 128 L 320 128 L 432 128 L 448 128 L 448 144 L 448 144 L 448 496 L 448 496 L 448 512 L 448 512 L 432 512 L 0 512 L 0 496 L 0 496 L 0 144 L 0 144 L 0 128 L 0 128 L 16 128 L 128 128 Z" />
</svg>