<svg xmlns="http://www.w3.org/2000/svg" viewBox="0 0 498 499">
  <path d="M 212 0 L 217 0 L 212 0 L 286 0 L 288 4 L 288 4 L 392 179 L 392 179 L 408 102 L 408 102 L 410 95 L 410 95 L 425 98 L 425 98 L 424 106 L 424 106 L 404 200 L 404 200 L 403 209 L 403 209 L 394 206 L 394 206 L 303 176 L 303 176 L 295 173 L 295 173 L 300 158 L 300 158 L 308 160 L 308 160 L 376 183 L 376 183 L 276 16 L 276 16 L 222 16 L 222 16 L 156 127 L 156 127 L 142 119 L 142 119 L 210 4 L 210 4 L 212 0 L 212 0 Z M 413 245 L 426 237 L 413 245 L 426 237 L 496 354 L 496 354 L 498 358 L 498 358 L 496 362 L 496 362 L 456 428 L 456 428 L 454 432 L 454 432 L 450 432 L 238 432 L 295 482 L 295 482 L 301 487 L 301 487 L 290 499 L 290 499 L 284 494 L 284 494 L 212 430 L 212 430 L 205 424 L 205 424 L 212 418 L 212 418 L 284 354 L 284 354 L 290 349 L 290 349 L 301 361 L 301 361 L 295 366 L 295 366 L 238 416 L 238 416 L 445 416 L 445 416 L 480 358 L 480 358 L 413 245 L 413 245 Z M 109 173 L 36 198 L 109 173 L 36 198 L 28 200 L 28 200 L 23 185 L 23 185 L 31 183 L 31 183 L 122 152 L 122 152 L 130 150 L 130 150 L 132 158 L 132 158 L 152 253 L 152 253 L 153 261 L 153 261 L 138 264 L 138 264 L 136 256 L 136 256 L 121 185 L 121 185 L 18 358 L 18 358 L 53 416 L 53 416 L 169 416 L 169 416 L 169 432 L 169 432 L 49 432 L 44 432 L 42 428 L 42 428 L 2 362 L 2 362 L 0 358 L 0 358 L 2 354 L 2 354 L 109 173 L 109 173 Z" />
</svg>