<svg xmlns="http://www.w3.org/2000/svg" viewBox="0 0 640 512">
  <path d="M 16 5 L 10 0 L 16 5 L 10 0 L 0 13 L 0 13 L 6 18 L 6 18 L 624 507 L 624 507 L 630 512 L 630 512 L 640 500 L 640 500 L 634 495 L 634 495 L 16 5 L 16 5 Z M 576 96 L 576 48 L 576 96 L 576 48 L 576 32 L 576 32 L 560 32 L 153 32 L 173 48 L 173 48 L 560 48 L 560 48 L 560 90 L 560 90 L 425 247 L 425 247 L 438 257 L 438 257 L 576 96 L 576 96 Z M 368 386 L 368 477 L 368 386 L 368 477 L 272 393 L 272 393 L 272 310 L 272 310 L 256 297 L 256 297 L 256 400 L 256 400 L 368 498 L 368 498 L 384 512 L 384 512 L 384 491 L 384 491 L 384 398 L 384 398 L 368 386 L 368 386 Z" />
</svg>