<svg xmlns="http://www.w3.org/2000/svg" viewBox="0 0 634 523">
  <path d="M 202 91 Q 201 55 170 36 Q 138 18 106 36 Q 75 55 74 91 Q 75 127 106 146 Q 138 164 170 146 Q 201 127 202 91 L 202 91 Z M 58 91 Q 59 46 98 22 Q 138 0 178 22 Q 217 46 218 91 Q 217 136 178 160 Q 138 182 98 160 Q 59 136 58 91 L 58 91 Z M 314 315 Q 359 314 383 275 Q 405 235 383 195 Q 359 156 314 155 Q 269 156 245 195 Q 223 235 245 275 Q 269 314 314 315 L 314 315 Z M 314 139 Q 340 139 362 152 L 362 152 L 362 152 Q 384 165 397 187 Q 410 210 410 235 Q 410 260 397 283 Q 384 305 362 318 Q 340 331 314 331 Q 288 331 266 318 Q 244 305 231 283 Q 218 260 218 235 Q 218 210 231 187 Q 244 165 266 152 Q 288 139 314 139 L 314 139 Z M 182 379 L 144 507 L 182 379 L 144 507 L 442 507 L 442 507 L 442 523 L 442 523 L 139 523 L 122 523 L 127 507 L 127 507 L 170 363 L 170 363 L 378 363 L 378 363 L 378 379 L 378 379 L 182 379 L 182 379 Z M 190 203 Q 188 211 187 219 L 53 219 L 53 219 L 17 315 L 17 315 L 0 315 L 0 315 L 42 203 L 42 203 L 190 203 L 190 203 Z M 438 203 L 586 203 L 438 203 L 586 203 L 628 315 L 628 315 L 611 315 L 611 315 L 575 219 L 575 219 L 441 219 L 441 219 Q 440 211 438 203 L 438 203 Z M 570 91 Q 569 55 538 36 Q 506 18 474 36 Q 443 55 442 91 Q 443 127 474 146 Q 506 164 538 146 Q 569 127 570 91 L 570 91 Z M 426 91 Q 427 46 466 22 Q 506 0 546 22 Q 585 46 586 91 Q 585 136 546 160 Q 506 182 466 160 Q 427 136 426 91 L 426 91 Z M 490 299 L 554 299 L 490 299 L 562 299 L 562 307 L 562 307 L 562 371 L 562 371 L 626 371 L 634 371 L 634 379 L 634 379 L 634 443 L 634 443 L 634 451 L 634 451 L 626 451 L 562 451 L 562 515 L 562 515 L 562 523 L 562 523 L 554 523 L 482 523 L 482 515 L 482 515 L 482 451 L 482 451 L 418 451 L 410 451 L 410 443 L 410 443 L 410 379 L 410 379 L 410 371 L 410 371 L 418 371 L 482 371 L 482 307 L 482 307 L 482 299 L 482 299 L 490 299 L 490 299 Z M 498 379 L 498 387 L 498 379 L 498 387 L 490 387 L 426 387 L 426 435 L 426 435 L 490 435 L 498 435 L 498 443 L 498 443 L 498 507 L 498 507 L 546 507 L 546 507 L 546 443 L 546 443 L 546 435 L 546 435 L 554 435 L 618 435 L 618 387 L 618 387 L 554 387 L 546 387 L 546 379 L 546 379 L 546 315 L 546 315 L 498 315 L 498 315 L 498 379 L 498 379 Z" />
</svg>