<svg xmlns="http://www.w3.org/2000/svg" viewBox="0 0 384 512">
  <path d="M 368 192 Q 366 117 316 68 L 316 68 L 316 68 Q 267 18 192 16 Q 117 18 68 68 Q 18 117 16 192 Q 17 229 44 282 Q 72 335 109 385 Q 146 435 174 467 Q 185 480 192 488 Q 199 480 210 467 Q 238 435 275 385 Q 312 335 340 282 Q 367 229 368 192 L 368 192 Z M 384 192 Q 382 242 346 304 L 346 304 L 346 304 Q 310 367 268 421 L 268 421 L 268 421 Q 225 475 203 500 Q 192 512 192 512 Q 192 512 181 500 Q 159 475 116 421 Q 74 367 38 304 Q 2 242 0 192 Q 2 110 56 56 Q 110 2 192 0 Q 274 2 328 56 Q 382 110 384 192 L 384 192 Z M 200 96 L 200 104 L 200 96 L 200 104 L 200 184 L 200 184 L 280 184 L 288 184 L 288 200 L 288 200 L 280 200 L 200 200 L 200 280 L 200 280 L 200 288 L 200 288 L 184 288 L 184 288 L 184 280 L 184 280 L 184 200 L 184 200 L 104 200 L 96 200 L 96 184 L 96 184 L 104 184 L 184 184 L 184 104 L 184 104 L 184 96 L 184 96 L 200 96 L 200 96 Z" />
</svg>