<svg xmlns="http://www.w3.org/2000/svg" viewBox="0 0 640 512">
  <path d="M 224 16 L 224 327 L 224 16 L 224 327 L 208 350 L 208 350 L 208 176 L 208 176 L 48 176 L 48 176 L 48 352 L 48 352 Q 49 386 71 409 Q 94 431 128 432 Q 145 432 160 425 L 160 432 L 160 432 L 160 443 L 160 443 Q 145 448 128 448 Q 87 447 60 420 Q 33 393 32 352 L 32 16 L 32 16 L 0 16 L 0 16 L 0 0 L 0 0 L 40 0 L 256 0 L 256 16 L 256 16 L 224 16 L 224 16 Z M 48 160 L 208 160 L 48 160 L 208 160 L 208 16 L 208 16 L 48 16 L 48 16 L 48 160 L 48 160 Z M 352 224 L 352 227 L 352 224 L 352 227 L 351 229 L 351 229 L 287 320 L 287 320 L 545 320 L 545 320 L 482 229 L 482 229 L 480 227 L 480 227 L 480 224 L 480 224 L 480 16 L 480 16 L 352 16 L 352 16 L 352 224 L 352 224 Z M 276 336 L 208 435 L 276 336 L 208 435 L 208 496 L 208 496 L 624 496 L 624 496 L 624 435 L 624 435 L 556 336 L 556 336 L 276 336 L 276 336 Z M 496 16 L 496 222 L 496 16 L 496 222 L 639 427 L 639 427 L 640 430 L 640 430 L 640 432 L 640 432 L 640 504 L 640 504 L 640 512 L 640 512 L 632 512 L 192 512 L 192 504 L 192 504 L 192 432 L 192 432 L 192 430 L 192 430 L 193 427 L 193 427 L 336 222 L 336 222 L 336 16 L 336 16 L 312 16 L 304 16 L 304 0 L 304 0 L 312 0 L 528 0 L 528 16 L 528 16 L 520 16 L 496 16 Z" />
</svg>