<svg xmlns="http://www.w3.org/2000/svg" viewBox="0 0 512 512">
  <path d="M 16 256 Q 17 189 49 135 L 49 135 L 49 135 Q 81 81 135 49 L 135 49 L 135 49 Q 189 17 256 16 Q 310 16 355 37 L 362 23 L 362 23 Q 313 0 256 0 Q 184 1 127 35 Q 69 69 35 127 Q 1 184 0 256 Q 1 328 35 385 Q 69 443 127 477 Q 184 511 256 512 Q 328 511 385 477 Q 443 443 477 385 Q 511 328 512 256 Q 512 199 489 150 L 475 157 L 475 157 Q 496 202 496 256 Q 495 323 463 377 Q 431 431 377 463 Q 323 495 256 496 Q 189 495 135 463 Q 81 431 49 377 Q 17 323 16 256 L 16 256 Z M 224 384 Q 224 370 233 361 L 233 361 L 233 361 Q 242 352 256 352 Q 270 352 279 361 Q 288 370 288 384 Q 288 398 279 407 Q 270 416 256 416 Q 242 416 233 407 Q 224 398 224 384 L 224 384 Z M 304 384 Q 303 357 280 342 Q 256 330 232 342 Q 209 357 208 384 Q 209 411 232 426 Q 256 438 280 426 Q 303 411 304 384 L 304 384 Z M 352 272 Q 328 273 311 244 L 307 237 L 307 237 L 293 245 L 293 245 L 297 252 L 297 252 Q 318 288 352 288 Q 385 287 407 252 L 411 245 L 411 245 L 397 237 L 397 237 L 393 244 L 393 244 Q 375 273 352 272 L 352 272 Z M 119 244 L 115 237 L 119 244 L 115 237 L 101 245 L 101 245 L 105 252 L 105 252 Q 126 288 160 288 Q 193 287 215 252 L 219 245 L 219 245 L 205 237 L 205 237 L 201 244 L 201 244 Q 183 273 160 272 Q 136 273 119 244 L 119 244 Z M 288 96 L 288 112 L 288 96 L 288 112 L 296 112 L 363 112 L 291 170 L 291 170 L 288 172 L 288 172 L 288 176 L 288 176 L 288 184 L 288 184 L 288 192 L 288 192 L 296 192 L 384 192 L 384 176 L 384 176 L 376 176 L 309 176 L 381 118 L 381 118 L 384 116 L 384 116 L 384 112 L 384 112 L 384 104 L 384 104 L 384 96 L 384 96 L 376 96 L 288 96 Z M 424 0 L 416 0 L 424 0 L 416 0 L 416 16 L 416 16 L 424 16 L 491 16 L 419 74 L 419 74 L 416 76 L 416 76 L 416 80 L 416 80 L 416 88 L 416 88 L 416 96 L 416 96 L 424 96 L 512 96 L 512 80 L 512 80 L 504 80 L 437 80 L 509 22 L 509 22 L 512 20 L 512 20 L 512 16 L 512 16 L 512 8 L 512 8 L 512 0 L 512 0 L 504 0 L 424 0 Z" />
</svg>