<svg xmlns="http://www.w3.org/2000/svg" viewBox="0 0 512 447">
  <path d="M 508 14 L 407 79 L 508 14 L 407 79 Q 455 92 483 115 Q 511 139 512 175 L 512 335 L 512 335 Q 509 384 437 415 Q 428 419 419 422 Q 351 446 256 447 Q 161 446 93 422 Q 84 419 75 415 Q 3 384 0 335 L 0 175 L 0 175 Q 3 116 75 89 Q 147 63 256 63 Q 328 63 385 74 L 500 0 L 500 0 L 508 14 L 508 14 Z M 16 215 L 16 335 L 16 215 L 16 335 Q 15 369 81 400 Q 83 401 84 401 Q 86 402 88 403 L 88 260 L 88 260 Q 39 242 16 215 L 16 215 Z M 104 266 L 104 409 L 104 266 L 104 409 Q 165 429 248 431 L 248 287 L 248 287 Q 166 285 104 266 L 104 266 Z M 264 287 L 264 431 L 264 287 L 264 431 Q 347 429 408 409 L 408 266 L 408 266 Q 346 285 264 287 L 264 287 Z M 424 260 L 424 403 L 424 260 L 424 403 Q 427 402 431 400 Q 497 369 496 335 L 496 215 L 496 215 Q 473 242 424 260 L 424 260 Z M 496 175 Q 496 130 431 104 Q 412 96 388 91 L 236 190 L 236 190 L 230 194 L 230 194 L 221 181 L 221 181 L 228 176 L 228 176 L 366 87 L 366 87 Q 316 79 256 79 Q 149 79 81 104 Q 16 130 16 175 Q 15 209 81 240 Q 150 270 256 271 Q 362 270 431 240 Q 497 209 496 175 L 496 175 Z" />
</svg>