<svg xmlns="http://www.w3.org/2000/svg" viewBox="0 0 384 512">
  <path d="M 224 128 L 224 187 L 224 128 L 224 187 L 368 148 L 368 148 L 368 21 L 368 21 L 224 60 L 224 60 L 224 128 L 224 128 Z M 208 128 L 208 48 L 208 128 L 208 48 L 368 4 L 368 4 L 384 0 L 384 0 L 384 17 L 384 17 L 384 160 L 384 160 L 224 204 L 224 204 L 224 432 L 224 432 Q 223 466 191 489 Q 160 511 112 512 Q 64 511 33 489 Q 1 466 0 432 Q 1 398 33 375 Q 64 353 112 352 Q 143 352 168 363 Q 193 373 208 391 L 208 208 L 208 208 L 208 191 L 208 191 L 208 128 L 208 128 Z M 182 389 Q 155 369 112 368 Q 69 369 42 389 Q 16 408 16 432 Q 16 456 42 476 Q 69 495 112 496 Q 155 495 182 476 Q 208 456 208 432 Q 208 408 182 389 L 182 389 Z" />
</svg>