<svg xmlns="http://www.w3.org/2000/svg" viewBox="0 0 571 512">
  <path d="M 368 352 L 368 496 L 368 352 L 368 496 L 16 496 L 16 496 L 16 16 L 16 16 L 208 16 L 208 16 L 208 168 L 208 168 L 208 176 L 208 176 L 216 176 L 368 176 L 368 256 L 368 256 L 384 256 L 384 256 L 384 160 L 384 160 L 224 0 L 224 0 L 16 0 L 0 0 L 0 16 L 0 16 L 0 496 L 0 496 L 0 512 L 0 512 L 16 512 L 384 512 L 384 496 L 384 496 L 384 352 L 384 352 L 368 352 L 368 352 Z M 361 160 L 224 160 L 361 160 L 224 160 L 224 23 L 224 23 L 361 160 L 361 160 Z M 454 186 L 448 181 L 454 186 L 448 181 L 437 192 L 437 192 L 442 198 L 442 198 L 541 296 L 541 296 L 200 296 L 192 296 L 192 312 L 192 312 L 200 312 L 541 312 L 442 410 L 442 410 L 437 416 L 437 416 L 448 427 L 448 427 L 454 422 L 454 422 L 566 310 L 566 310 L 571 304 L 571 304 L 566 298 L 566 298 L 454 186 L 454 186 Z" />
</svg>