<svg xmlns="http://www.w3.org/2000/svg" viewBox="0 0 448 448">
  <path d="M 16 16 L 16 432 L 16 16 L 16 432 L 432 432 L 432 432 L 432 16 L 432 16 L 16 16 L 16 16 Z M 0 0 L 16 0 L 0 0 L 448 0 L 448 16 L 448 16 L 448 432 L 448 432 L 448 448 L 448 448 L 432 448 L 0 448 L 0 432 L 0 432 L 0 16 L 0 16 L 0 0 L 0 0 Z M 219 96 L 229 96 L 219 96 L 229 96 L 231 101 L 231 101 L 350 352 L 350 352 L 333 352 L 333 352 L 302 288 L 302 288 L 146 288 L 146 288 L 115 352 L 115 352 L 98 352 L 98 352 L 217 101 L 217 101 L 219 96 L 219 96 Z M 295 272 L 224 123 L 295 272 L 224 123 L 153 272 L 153 272 L 295 272 L 295 272 Z" />
</svg>