<svg xmlns="http://www.w3.org/2000/svg" viewBox="0 0 384 512">
  <path d="M 72 0 L 64 0 L 72 0 L 64 0 L 64 8 L 64 8 L 64 64 L 64 64 L 16 64 L 0 64 L 0 80 L 0 80 L 0 432 L 0 432 L 0 448 L 0 448 L 16 448 L 64 448 L 64 504 L 64 504 L 64 512 L 64 512 L 72 512 L 320 512 L 320 504 L 320 504 L 320 448 L 320 448 L 368 448 L 384 448 L 384 432 L 384 432 L 384 80 L 384 80 L 384 64 L 384 64 L 368 64 L 320 64 L 320 8 L 320 8 L 320 0 L 320 0 L 312 0 L 72 0 Z M 320 432 L 304 432 L 320 432 L 16 432 L 16 80 L 16 80 L 64 80 L 368 80 L 368 432 L 368 432 L 320 432 L 320 432 Z M 304 448 L 304 496 L 304 448 L 304 496 L 80 496 L 80 496 L 80 448 L 80 448 L 304 448 L 304 448 Z M 304 64 L 80 64 L 304 64 L 80 64 L 80 16 L 80 16 L 304 16 L 304 16 L 304 64 L 304 64 Z M 80 256 Q 81 241 96 240 Q 111 241 112 256 Q 111 271 96 272 Q 81 271 80 256 L 80 256 Z M 128 256 Q 128 242 119 233 L 119 233 L 119 233 Q 110 224 96 224 Q 82 224 73 233 Q 64 242 64 256 Q 64 270 73 279 Q 82 288 96 288 Q 110 288 119 279 Q 128 270 128 256 L 128 256 Z M 144 336 Q 159 337 160 352 Q 159 367 144 368 Q 129 367 128 352 Q 129 337 144 336 L 144 336 Z M 144 384 Q 158 384 167 375 L 167 375 L 167 375 Q 176 366 176 352 Q 176 338 167 329 Q 158 320 144 320 Q 130 320 121 329 Q 112 338 112 352 Q 112 366 121 375 Q 130 384 144 384 L 144 384 Z M 128 160 Q 129 145 144 144 Q 159 145 160 160 Q 159 175 144 176 Q 129 175 128 160 L 128 160 Z M 176 160 Q 176 146 167 137 L 167 137 L 167 137 Q 158 128 144 128 Q 130 128 121 137 Q 112 146 112 160 Q 112 174 121 183 Q 130 192 144 192 Q 158 192 167 183 Q 176 174 176 160 L 176 160 Z M 240 336 Q 255 337 256 352 Q 255 367 240 368 Q 225 367 224 352 Q 225 337 240 336 L 240 336 Z M 240 384 Q 254 384 263 375 L 263 375 L 263 375 Q 272 366 272 352 Q 272 338 263 329 Q 254 320 240 320 Q 226 320 217 329 Q 208 338 208 352 Q 208 366 217 375 Q 226 384 240 384 L 240 384 Z M 224 160 Q 225 145 240 144 Q 255 145 256 160 Q 255 175 240 176 Q 225 175 224 160 L 224 160 Z M 272 160 Q 272 146 263 137 L 263 137 L 263 137 Q 254 128 240 128 Q 226 128 217 137 Q 208 146 208 160 Q 208 174 217 183 Q 226 192 240 192 Q 254 192 263 183 Q 272 174 272 160 L 272 160 Z M 192 232 Q 214 234 216 256 Q 214 278 192 280 Q 170 278 168 256 Q 170 234 192 232 L 192 232 Z M 192 296 Q 215 295 227 276 Q 237 256 227 236 Q 215 217 192 216 Q 169 217 157 236 Q 147 256 157 276 Q 169 295 192 296 L 192 296 Z M 272 256 Q 273 241 288 240 Q 303 241 304 256 Q 303 271 288 272 Q 273 271 272 256 L 272 256 Z M 320 256 Q 320 242 311 233 L 311 233 L 311 233 Q 302 224 288 224 Q 274 224 265 233 Q 256 242 256 256 Q 256 270 265 279 Q 274 288 288 288 Q 302 288 311 279 Q 320 270 320 256 L 320 256 Z" />
</svg>