<svg xmlns="http://www.w3.org/2000/svg" viewBox="0 0 512 512">
  <path d="M 282 378 L 8 104 L 282 378 L 8 104 L 1 16 L 1 16 L 0 0 L 0 0 L 16 1 L 16 1 L 104 8 L 104 8 L 256 160 L 256 160 L 267 171 L 267 171 L 341 245 L 341 245 L 352 256 L 352 256 L 378 282 L 378 282 L 367 293 L 367 293 L 97 24 L 97 24 L 17 17 L 17 17 L 24 97 L 24 97 L 293 367 L 293 367 L 282 378 L 282 378 Z M 440 277 L 446 282 L 440 277 L 446 282 L 478 314 L 478 314 L 482 318 L 482 318 L 479 323 L 479 323 L 450 390 L 450 390 L 507 447 L 507 447 L 512 453 L 512 453 L 507 459 L 507 459 L 459 507 L 459 507 L 453 512 L 453 512 L 447 507 L 447 507 L 390 450 L 390 450 L 323 480 L 323 480 L 318 482 L 318 482 L 314 478 L 314 478 L 282 446 L 282 446 L 277 440 L 277 440 L 282 434 L 282 434 L 434 282 L 434 282 L 440 277 L 440 277 Z M 463 322 L 440 299 L 463 322 L 440 299 L 299 440 L 299 440 L 322 463 L 322 463 L 389 433 L 389 433 L 394 431 L 394 431 L 398 434 L 398 434 L 453 490 L 453 490 L 490 453 L 490 453 L 434 398 L 434 398 L 431 394 L 431 394 L 433 389 L 433 389 L 463 322 L 463 322 Z M 106 310 L 138 279 L 106 310 L 138 279 L 149 290 L 149 290 L 117 322 L 117 322 L 191 395 L 191 395 L 222 363 L 222 363 L 234 375 L 234 375 L 202 406 L 202 406 L 230 434 L 230 434 L 236 440 L 236 440 L 230 446 L 230 446 L 198 478 L 198 478 L 194 482 L 194 482 L 189 479 L 189 479 L 122 450 L 122 450 L 65 507 L 65 507 L 59 512 L 59 512 L 54 507 L 54 507 L 6 459 L 6 459 L 0 453 L 0 453 L 6 447 L 6 447 L 63 390 L 63 390 L 33 323 L 33 323 L 31 318 L 31 318 L 35 314 L 35 314 L 67 282 L 67 282 L 72 277 L 72 277 L 78 282 L 78 282 L 106 310 L 106 310 Z M 504 104 L 375 233 L 504 104 L 375 233 L 363 222 L 363 222 L 489 97 L 489 97 L 495 17 L 495 17 L 415 24 L 415 24 L 290 149 L 290 149 L 279 137 L 279 137 L 408 8 L 408 8 L 496 1 L 496 1 L 512 0 L 512 0 L 511 16 L 511 16 L 504 104 L 504 104 Z M 50 322 L 80 389 L 50 322 L 80 389 L 82 394 L 82 394 L 78 398 L 78 398 L 23 453 L 23 453 L 59 490 L 59 490 L 114 434 L 114 434 L 118 431 L 118 431 L 123 433 L 123 433 L 190 463 L 190 463 L 213 440 L 213 440 L 72 299 L 72 299 L 50 322 L 50 322 Z" />
</svg>