<svg xmlns="http://www.w3.org/2000/svg" viewBox="0 0 640 448">
  <path d="M 528 208 L 540 212 L 528 208 L 540 212 Q 577 222 600 251 Q 623 280 624 320 L 624 432 L 624 432 L 512 432 L 16 432 L 16 304 L 16 304 Q 17 262 40 229 Q 63 197 101 183 L 112 180 L 112 180 L 112 168 L 112 168 L 112 160 L 112 160 Q 114 99 154 58 Q 195 18 256 16 Q 296 16 329 36 Q 362 55 381 88 L 389 103 L 389 103 L 404 94 L 404 94 Q 423 80 448 80 Q 482 81 504 103 Q 527 126 528 160 L 528 196 L 528 196 L 528 208 L 528 208 Z M 96 168 Q 53 184 27 220 L 27 220 L 27 220 Q 1 256 0 304 L 0 432 L 0 432 L 0 448 L 0 448 L 16 448 L 640 448 L 640 432 L 640 432 L 640 320 L 640 320 Q 639 274 613 241 Q 586 207 544 196 L 544 160 L 544 160 Q 543 119 516 92 Q 489 65 448 64 Q 425 64 406 74 Q 400 77 395 80 Q 391 73 386 67 Q 364 36 330 18 Q 297 0 256 0 Q 188 2 143 47 Q 98 92 96 160 L 96 168 L 96 168 Z" />
</svg>