<svg xmlns="http://www.w3.org/2000/svg" viewBox="0 0 511 511">
  <path d="M 208 16 Q 260 16 304 42 L 304 42 L 304 42 Q 348 67 374 112 Q 400 157 400 208 Q 400 259 374 304 Q 348 349 304 374 Q 260 400 208 400 Q 156 400 112 374 Q 68 349 42 304 Q 16 259 16 208 Q 16 157 42 112 Q 68 67 112 42 Q 156 16 208 16 L 208 16 Z M 208 416 Q 292 414 349 361 L 500 511 L 500 511 L 511 500 L 511 500 L 361 349 L 361 349 Q 414 292 416 208 Q 414 120 355 61 Q 296 2 208 0 Q 120 2 61 61 Q 2 120 0 208 Q 2 296 61 355 Q 120 414 208 416 L 208 416 Z M 261 220 Q 250 245 235 267 Q 220 289 208 303 L 208 303 L 208 303 L 208 303 L 208 303 Q 196 289 181 267 Q 166 245 155 220 Q 144 196 144 176 Q 145 149 163 131 Q 181 113 208 112 Q 235 113 253 131 Q 271 149 272 176 Q 272 196 261 220 L 261 220 Z M 218 316 Q 237 294 261 255 L 261 255 L 261 255 Q 286 215 288 176 Q 287 142 265 119 Q 242 97 208 96 Q 174 97 151 119 Q 129 142 128 176 Q 130 215 155 255 Q 179 294 198 316 Q 208 328 208 328 Q 208 328 208 328 Q 208 328 219 316 L 218 316 Z M 224 176 Q 223 161 208 160 Q 193 161 192 176 Q 193 191 208 192 Q 223 191 224 176 L 224 176 Z" />
</svg>