<svg xmlns="http://www.w3.org/2000/svg" viewBox="0 0 512 512">
  <path d="M 16 167 L 16 56 L 16 167 L 16 56 L 16 48 L 16 48 L 0 48 L 0 48 L 0 56 L 0 56 L 0 184 L 0 184 L 0 192 L 0 192 L 8 192 L 144 192 L 144 176 L 144 176 L 136 176 L 30 176 Q 56 105 116 61 Q 176 17 256 16 Q 323 17 377 49 Q 431 81 463 135 Q 495 189 496 256 Q 495 323 463 377 Q 431 431 377 463 Q 323 495 256 496 Q 200 496 153 473 Q 106 450 73 411 L 67 405 L 67 405 L 55 415 L 55 415 L 60 421 L 60 421 Q 96 463 146 487 Q 197 512 256 512 Q 328 511 385 477 Q 443 443 477 385 Q 511 328 512 256 Q 511 184 477 127 Q 443 69 385 35 Q 328 1 256 0 Q 172 1 108 47 Q 44 92 16 167 L 16 167 Z M 264 128 L 248 128 L 264 128 L 248 128 L 248 136 L 248 136 L 248 256 L 248 256 L 248 259 L 248 259 L 250 262 L 250 262 L 338 350 L 338 350 L 344 355 L 344 355 L 355 344 L 355 344 L 350 338 L 350 338 L 264 253 L 264 253 L 264 136 L 264 136 L 264 128 L 264 128 Z" />
</svg>