<svg xmlns="http://www.w3.org/2000/svg" viewBox="0 0 640 512">
  <path d="M 336 128 Q 336 158 321 184 L 321 184 L 321 184 Q 306 210 280 225 Q 254 240 224 240 Q 194 240 168 225 Q 142 210 127 184 Q 112 158 112 128 Q 112 98 127 72 Q 142 46 168 31 Q 194 16 224 16 Q 254 16 280 31 Q 306 46 321 72 Q 336 98 336 128 L 336 128 Z M 224 0 Q 189 0 160 17 L 160 17 L 160 17 Q 131 34 113 64 Q 96 94 96 128 Q 96 162 113 192 Q 131 222 160 239 Q 189 256 224 256 Q 259 256 288 239 Q 317 222 335 192 Q 352 162 352 128 Q 352 94 335 64 Q 317 34 288 17 Q 259 0 224 0 L 224 0 Z M 76 320 L 136 320 L 76 320 L 136 320 L 136 369 L 136 369 Q 119 372 107 385 Q 96 398 96 416 Q 97 436 110 450 Q 124 463 144 464 Q 164 463 178 450 Q 191 436 192 416 Q 192 398 181 385 Q 169 372 152 369 L 152 320 L 152 320 L 296 320 L 296 320 L 296 369 L 296 369 Q 279 372 267 385 Q 256 398 256 416 L 256 456 L 256 456 L 256 464 L 256 464 L 264 464 L 288 464 L 288 448 L 288 448 L 280 448 L 272 448 L 272 416 L 272 416 Q 272 402 281 393 Q 290 384 304 384 Q 318 384 327 393 Q 336 402 336 416 L 336 448 L 336 448 L 328 448 L 320 448 L 320 464 L 320 464 L 328 464 L 352 464 L 352 456 L 352 456 L 352 416 L 352 416 Q 352 398 341 385 Q 329 372 312 369 L 312 320 L 312 320 L 372 320 L 372 320 L 426 496 L 426 496 L 22 496 L 22 496 L 76 320 L 76 320 Z M 176 416 Q 176 430 167 439 L 167 439 L 167 439 Q 158 448 144 448 Q 130 448 121 439 Q 112 430 112 416 Q 112 402 121 393 Q 130 384 144 384 Q 158 384 167 393 Q 176 402 176 416 L 176 416 Z M 384 304 L 64 304 L 384 304 L 64 304 L 5 496 L 5 496 L 0 512 L 0 512 L 17 512 L 448 512 L 443 496 L 443 496 L 384 304 L 384 304 Z M 624 224 L 640 224 L 624 224 L 640 224 L 640 208 L 640 208 L 640 16 L 640 16 L 640 0 L 640 0 L 624 0 L 384 0 L 384 16 L 384 16 L 384 208 L 384 208 L 384 224 L 384 224 L 400 224 L 448 224 L 448 240 L 448 240 L 448 276 L 448 276 L 448 280 L 448 280 L 448 296 L 448 296 L 461 286 L 461 286 L 464 284 L 464 284 L 544 224 L 544 224 L 624 224 L 624 224 Z M 534 211 L 464 264 L 534 211 L 464 264 L 464 224 L 464 224 L 464 208 L 464 208 L 448 208 L 400 208 L 400 16 L 400 16 L 624 16 L 624 16 L 624 208 L 624 208 L 544 208 L 539 208 L 534 211 L 534 211 Z" />
</svg>