<svg xmlns="http://www.w3.org/2000/svg" viewBox="0 0 384 512">
  <path d="M 16 496 L 16 16 L 16 496 L 16 16 L 208 16 L 208 16 L 208 168 L 208 168 L 208 176 L 208 176 L 216 176 L 368 176 L 368 496 L 368 496 L 16 496 L 16 496 Z M 224 23 L 361 160 L 224 23 L 361 160 L 224 160 L 224 160 L 224 23 L 224 23 Z M 224 0 L 16 0 L 224 0 L 0 0 L 0 16 L 0 16 L 0 496 L 0 496 L 0 512 L 0 512 L 16 512 L 384 512 L 384 496 L 384 496 L 384 160 L 384 160 L 224 0 L 224 0 Z M 240 272 L 240 299 L 240 272 L 240 299 L 240 304 L 240 304 L 240 368 L 240 368 L 240 374 L 240 374 L 240 400 L 240 400 L 96 400 L 96 400 L 96 272 L 96 272 L 240 272 L 240 272 Z M 256 400 L 256 380 L 256 400 L 256 380 L 309 399 L 309 399 L 320 404 L 320 404 L 320 392 L 320 392 L 320 280 L 320 280 L 320 269 L 320 269 L 309 273 L 309 273 L 256 293 L 256 293 L 256 272 L 256 272 L 256 256 L 256 256 L 240 256 L 80 256 L 80 272 L 80 272 L 80 400 L 80 400 L 80 416 L 80 416 L 96 416 L 256 416 L 256 400 L 256 400 Z M 304 381 L 256 363 L 304 381 L 256 363 L 256 310 L 256 310 L 304 292 L 304 292 L 304 381 L 304 381 Z" />
</svg>