<svg xmlns="http://www.w3.org/2000/svg" viewBox="0 0 448 448">
  <path d="M 16 16 L 16 432 L 16 16 L 16 432 L 432 432 L 432 432 L 432 16 L 432 16 L 16 16 L 16 16 Z M 0 0 L 16 0 L 0 0 L 448 0 L 448 16 L 448 16 L 448 432 L 448 432 L 448 448 L 448 448 L 432 448 L 0 448 L 0 432 L 0 432 L 0 16 L 0 16 L 0 0 L 0 0 Z M 136 96 L 240 96 L 136 96 L 240 96 Q 277 97 302 122 Q 327 147 328 184 L 328 192 L 328 192 L 328 192 L 328 192 Q 324 226 300 249 Q 275 271 240 272 L 144 272 L 144 272 L 144 344 L 144 344 L 144 352 L 144 352 L 128 352 L 128 352 L 128 344 L 128 344 L 128 264 L 128 264 L 128 104 L 128 104 L 128 96 L 128 96 L 136 96 L 136 96 Z M 240 256 Q 271 255 291 235 L 291 235 L 291 235 Q 311 215 312 184 Q 311 153 291 133 Q 271 113 240 112 L 144 112 L 144 112 L 144 256 L 144 256 L 240 256 L 240 256 Z" />
</svg>