<svg xmlns="http://www.w3.org/2000/svg" viewBox="0 0 448 448">
  <path d="M 432 16 L 432 432 L 432 16 L 432 432 L 16 432 L 16 432 L 16 16 L 16 16 L 432 16 L 432 16 Z M 16 0 L 0 0 L 16 0 L 0 0 L 0 16 L 0 16 L 0 432 L 0 432 L 0 448 L 0 448 L 16 448 L 448 448 L 448 432 L 448 432 L 448 16 L 448 16 L 448 0 L 448 0 L 432 0 L 16 0 Z M 232 96 L 216 96 L 232 96 L 216 96 Q 189 97 171 115 Q 153 133 152 160 Q 153 195 181 213 Q 161 222 149 239 Q 136 257 136 280 Q 137 311 157 331 Q 177 351 208 352 L 240 352 L 240 352 Q 271 351 291 331 Q 311 311 312 280 Q 312 257 299 239 Q 287 222 267 213 Q 295 195 296 160 Q 295 133 277 115 Q 259 97 232 96 L 232 96 Z M 216 208 Q 196 207 182 194 L 182 194 L 182 194 Q 169 180 168 160 Q 169 140 182 126 Q 196 113 216 112 L 232 112 L 232 112 Q 252 113 266 126 Q 279 140 280 160 Q 279 180 266 194 Q 252 207 232 208 Q 232 208 232 208 Q 232 208 232 208 L 216 208 L 216 208 Q 216 208 216 208 Q 216 208 216 208 L 216 208 Z M 216 224 Q 216 224 216 224 L 216 224 L 216 224 Q 216 224 216 224 L 232 224 L 232 224 Q 232 224 232 224 Q 232 224 232 224 L 240 224 L 240 224 Q 264 225 280 240 Q 295 256 296 280 Q 295 304 280 320 Q 264 335 240 336 L 208 336 L 208 336 Q 184 335 168 320 Q 153 304 152 280 Q 153 256 168 240 Q 184 225 208 224 L 216 224 L 216 224 Z" />
</svg>