<svg xmlns="http://www.w3.org/2000/svg" viewBox="0 0 544 512">
  <path d="M 231 416 L 320 416 L 231 416 L 320 416 L 544 80 L 544 80 L 464 0 L 464 0 L 128 224 L 128 224 L 128 313 L 128 313 L 75 365 L 75 365 L 64 377 L 64 377 L 75 388 L 75 388 L 156 469 L 156 469 L 167 480 L 167 480 L 179 469 L 179 469 L 231 416 L 231 416 Z M 167 457 L 87 377 L 167 457 L 87 377 L 139 324 L 139 324 L 144 319 L 144 319 L 144 313 L 144 313 L 144 232 L 144 232 L 190 202 L 190 202 L 342 354 L 342 354 L 311 400 L 311 400 L 231 400 L 225 400 L 220 405 L 220 405 L 167 457 L 167 457 Z M 204 193 L 462 21 L 204 193 L 462 21 L 523 82 L 523 82 L 351 340 L 351 340 L 204 193 L 204 193 Z M 2 474 L 0 477 L 2 474 L 0 477 L 0 480 L 0 480 L 0 504 L 0 504 L 0 512 L 0 512 L 8 512 L 99 512 L 102 510 L 102 510 L 132 479 L 132 479 L 121 468 L 121 468 L 93 496 L 93 496 L 16 496 L 16 496 L 16 483 L 16 483 L 76 423 L 76 423 L 65 412 L 65 412 L 2 474 L 2 474 Z" />
</svg>