<svg xmlns="http://www.w3.org/2000/svg" viewBox="0 0 512 512">
  <path d="M 144.92203 464.27118 L 138.84746 464.27118 L 135.37627 459.9322 L 10.413559 334.96948 L 0 325.42374 L 10.413559 315.87796 L 135.37627 190.91525 L 138.84746 186.57628 L 144.92203 186.57628 L 186.57628 186.57628 L 200.46101 186.57628 L 200.46101 200.46101 L 200.46101 242.11525 L 214.34576 242.11525 L 228.23051 242.11525 L 283.7695 242.11525 L 297.65424 242.11525 L 325.42374 242.11525 L 339.30847 242.11525 L 339.30847 256 L 339.30847 297.65424 L 361.0034 297.65424 L 472.08136 186.57628 L 361.0034 75.49831 L 339.30847 75.49831 L 339.30847 117.15254 L 339.30847 131.0373 L 325.42374 131.0373 L 228.23051 131.0373 L 214.34576 131.0373 L 214.34576 103.2678 L 228.23051 103.2678 L 311.53897 103.2678 L 311.53897 61.61356 L 311.53897 47.728813 L 325.42374 47.728813 L 367.07797 47.728813 L 373.15256 47.728813 L 376.62372 52.067795 L 501.58643 177.0305 L 512 186.57628 L 501.58643 196.12204 L 376.62372 321.08475 L 373.15256 325.42374 L 367.07797 325.42374 L 325.42374 325.42374 L 311.53897 325.42374 L 311.53897 311.53897 L 311.53897 269.88474 L 297.65424 269.88474 L 283.7695 269.88474 L 228.23051 269.88474 L 214.34576 269.88474 L 186.57628 269.88474 L 172.69153 269.88474 L 172.69153 256 L 172.69153 214.34576 L 150.99661 214.34576 L 39.918644 325.42374 L 150.99661 436.5017 L 172.69153 436.5017 L 172.69153 394.84744 L 172.69153 380.9627 L 186.57628 380.9627 L 283.7695 380.9627 L 297.65424 380.9627 L 297.65424 408.7322 L 283.7695 408.7322 L 200.46101 408.7322 L 200.46101 450.38644 L 200.46101 464.27118 L 186.57628 464.27118 L 144.92203 464.27118 L 144.92203 464.27118 Z" />
</svg>