<svg xmlns="http://www.w3.org/2000/svg" viewBox="0 0 512 512">
  <path d="M 472 0 L 472 8 L 472 0 L 472 8 L 472 40 L 472 40 L 504 40 L 512 40 L 512 56 L 512 56 L 504 56 L 472 56 L 472 88 L 472 88 L 472 96 L 472 96 L 456 96 L 456 96 L 456 88 L 456 88 L 456 56 L 456 56 L 424 56 L 416 56 L 416 40 L 416 40 L 424 40 L 456 40 L 456 8 L 456 8 L 456 0 L 456 0 L 472 0 L 472 0 Z M 56 128 L 56 136 L 56 128 L 56 136 L 56 168 L 56 168 L 88 168 L 96 168 L 96 184 L 96 184 L 88 184 L 56 184 L 56 216 L 56 216 L 56 224 L 56 224 L 40 224 L 40 224 L 40 216 L 40 216 L 40 184 L 40 184 L 8 184 L 0 184 L 0 168 L 0 168 L 8 168 L 40 168 L 40 136 L 40 136 L 40 128 L 40 128 L 56 128 L 56 128 Z M 96 448 L 104 448 L 96 448 L 416 448 L 416 456 L 416 456 L 416 504 L 416 504 L 416 512 L 416 512 L 400 512 L 400 512 L 400 504 L 400 504 L 400 464 L 400 464 L 112 464 L 112 464 L 112 504 L 112 504 L 112 512 L 112 512 L 96 512 L 96 512 L 96 504 L 96 504 L 96 456 L 96 456 L 96 448 L 96 448 Z M 168 384 L 344 384 L 168 384 L 352 384 L 352 400 L 352 400 L 344 400 L 160 400 L 160 384 L 160 384 L 168 384 L 168 384 Z M 160 320 L 168 320 L 160 320 L 352 320 L 352 336 L 352 336 L 344 336 L 160 336 L 160 320 L 160 320 Z M 104 256 L 408 256 L 104 256 L 416 256 L 416 272 L 416 272 L 408 272 L 96 272 L 96 256 L 96 256 L 104 256 L 104 256 Z M 128 192 L 136 192 L 128 192 L 384 192 L 384 208 L 384 208 L 376 208 L 128 208 L 128 192 L 128 192 Z M 200 128 L 312 128 L 200 128 L 320 128 L 320 144 L 320 144 L 312 144 L 192 144 L 192 128 L 192 128 L 200 128 L 200 128 Z M 224 0 L 232 0 L 224 0 L 288 0 L 288 16 L 288 16 L 280 16 L 224 16 L 224 0 L 224 0 Z M 224 64 L 288 64 L 224 64 L 296 64 L 296 80 L 296 80 L 288 80 L 216 80 L 216 64 L 216 64 L 224 64 L 224 64 Z" />
</svg>