<svg xmlns="http://www.w3.org/2000/svg" viewBox="0 0 624 512">
  <path d="M 504 320 L 504 312 L 504 320 L 504 312 Q 504 294 487 258 Q 469 223 431 193 L 419 32 L 419 32 L 440 32 L 456 32 L 456 0 L 456 0 L 440 0 L 168 0 L 168 32 L 168 32 L 184 32 L 206 32 L 201 87 L 201 87 L 232 111 L 232 111 L 238 32 L 238 32 L 386 32 L 386 32 L 399 195 L 399 195 L 400 210 L 400 210 L 412 218 L 412 218 Q 444 243 459 273 Q 466 288 469 299 L 504 326 L 504 326 L 504 320 L 504 320 Z M 162 219 Q 140 245 130 271 L 130 271 L 130 271 Q 120 296 120 312 L 120 320 L 120 320 L 120 352 L 120 352 L 152 352 L 296 352 L 296 496 L 296 496 L 296 512 L 296 512 L 328 512 L 328 512 L 328 496 L 328 496 L 328 352 L 328 352 L 330 352 L 330 352 L 290 320 L 290 320 L 152 320 L 152 320 L 152 312 L 152 312 Q 152 312 152 312 Q 152 312 152 312 Q 151 301 166 270 Q 174 254 187 239 L 162 219 L 162 219 Z M 32 18 L 20 8 L 32 18 L 20 8 L 0 33 L 0 33 L 13 43 L 13 43 L 592 494 L 592 494 L 604 504 L 604 504 L 624 479 L 624 479 L 612 469 L 612 469 L 32 18 L 32 18 Z" />
</svg>