<svg xmlns="http://www.w3.org/2000/svg" viewBox="0 0 512 512">
  <path d="M 224 32 L 224 96 L 227 96 L 285 96 L 288 96 L 288 32 L 224 32 L 224 32 Z M 192 102 L 192 96 L 192 32 L 192 0 L 224 0 L 288 0 L 320 0 L 320 32 L 320 96 L 320 102 Q 330 106 338 112 L 352 120 Q 383 141 384 179 Q 384 195 377 209 Q 384 223 384 240 Q 384 257 377 272 Q 384 287 384 304 Q 384 321 377 336 Q 384 351 384 368 Q 384 388 375 404 Q 384 420 384 440 L 384 480 L 384 512 L 352 512 L 160 512 L 128 512 L 128 480 L 128 440 Q 128 420 138 404 Q 128 388 128 368 Q 128 351 136 336 Q 128 321 128 304 Q 128 287 136 272 Q 128 257 128 240 Q 128 223 135 209 Q 128 195 128 179 Q 129 141 160 120 L 174 112 Q 182 106 192 102 L 192 102 Z M 227 128 Q 207 128 191 139 L 177 147 Q 161 158 160 179 Q 160 187 163 194 Q 167 203 175 209 Q 167 215 163 225 Q 160 232 160 240 Q 160 248 163 254 Q 167 265 176 272 Q 167 279 163 290 Q 160 296 160 304 Q 160 312 163 318 Q 167 329 176 336 Q 167 343 163 354 Q 160 360 160 368 Q 160 374 162 379 Q 167 396 183 404 Q 167 412 162 429 Q 160 434 160 440 L 160 448 L 160 480 L 192 480 L 320 480 L 352 480 L 352 448 L 352 440 Q 352 434 350 429 Q 345 412 329 404 Q 345 396 350 379 Q 352 374 352 368 Q 352 360 349 354 Q 345 343 336 336 Q 345 329 349 318 Q 352 311 352 304 Q 352 297 349 290 Q 345 279 336 272 Q 345 265 349 254 Q 352 247 352 240 Q 352 232 349 225 Q 345 215 337 209 Q 345 203 349 193 Q 352 186 352 179 Q 351 158 335 147 L 321 138 Q 305 128 285 128 L 227 128 L 227 128 Z M 192 224 L 320 224 L 320 256 L 192 256 L 192 224 L 192 224 Z M 320 352 L 320 384 L 192 384 L 192 352 L 320 352 L 320 352 Z" />
</svg>