<svg xmlns="http://www.w3.org/2000/svg" viewBox="0 0 384 512">
  <path d="M 16 496 L 16 16 L 16 496 L 16 16 L 208 16 L 208 16 L 208 168 L 208 168 L 208 176 L 208 176 L 216 176 L 368 176 L 368 496 L 368 496 L 16 496 L 16 496 Z M 224 23 L 361 160 L 224 23 L 361 160 L 224 160 L 224 160 L 224 23 L 224 23 Z M 224 0 L 16 0 L 224 0 L 0 0 L 0 16 L 0 16 L 0 496 L 0 496 L 0 512 L 0 512 L 16 512 L 384 512 L 384 496 L 384 496 L 384 160 L 384 160 L 224 0 L 224 0 Z M 315 240 L 298 240 L 315 240 L 298 240 L 248 411 L 248 411 L 200 246 L 200 246 L 198 240 L 198 240 L 186 240 L 186 240 L 184 246 L 184 246 L 136 411 L 136 411 L 86 240 L 86 240 L 69 240 L 69 240 L 128 442 L 128 442 L 130 448 L 130 448 L 142 448 L 142 448 L 144 442 L 144 442 L 192 277 L 192 277 L 240 442 L 240 442 L 242 448 L 242 448 L 254 448 L 254 448 L 256 442 L 256 442 L 315 240 L 315 240 Z" />
</svg>