<svg xmlns="http://www.w3.org/2000/svg" viewBox="0 0 512 512">
  <path d="M 240 272 L 240 256 L 240 272 L 240 256 L 240 17 L 240 17 Q 144 25 81 92 Q 18 158 16 256 Q 17 323 49 377 Q 81 431 135 463 Q 189 495 256 496 Q 354 494 420 431 Q 487 368 496 272 L 256 272 L 240 272 Z M 512 272 Q 507 340 472 394 L 472 394 L 472 394 Q 437 448 381 480 L 381 480 L 381 480 Q 325 511 256 512 Q 184 511 127 477 Q 69 443 35 385 Q 1 328 0 256 Q 1 187 32 131 Q 64 75 118 40 Q 172 5 240 1 Q 248 0 256 0 L 256 16 L 256 16 L 256 240 L 256 240 L 256 256 L 256 256 L 272 256 L 512 256 Q 512 264 512 272 L 512 272 Z" />
</svg>