<svg xmlns="http://www.w3.org/2000/svg" viewBox="0 0 512 320">
  <path d="M 400 16 L 400 304 L 400 16 L 400 304 L 272 304 L 272 304 L 272 16 L 272 16 L 400 16 L 400 16 Z M 272 0 L 256 0 L 272 0 L 256 0 L 256 16 L 256 16 L 256 304 L 256 304 L 256 320 L 256 320 L 272 320 L 416 320 L 416 304 L 416 304 L 416 168 L 416 168 L 504 168 L 512 168 L 512 152 L 512 152 L 504 152 L 416 152 L 416 16 L 416 16 L 416 0 L 416 0 L 400 0 L 272 0 Z M 0 168 L 8 168 L 0 168 L 224 168 L 224 152 L 224 152 L 8 152 L 0 152 L 0 168 L 0 168 Z" />
</svg>