<svg xmlns="http://www.w3.org/2000/svg" viewBox="0 0 504 512">
  <path d="M 352 192 L 352 304 L 352 192 L 352 304 L 384 304 L 384 304 L 384 152 L 384 152 L 232 0 L 232 0 L 32 0 L 0 0 L 0 32 L 0 32 L 0 480 L 0 480 L 0 512 L 0 512 L 32 512 L 144 512 L 144 480 L 144 480 L 32 480 L 32 480 L 32 32 L 32 32 L 192 32 L 192 32 L 192 176 L 192 176 L 192 192 L 192 192 L 208 192 L 352 192 Z M 347 160 L 224 160 L 347 160 L 224 160 L 224 37 L 224 37 L 347 160 L 347 160 Z M 224 368 L 224 352 L 224 368 L 224 352 L 192 352 L 192 352 L 192 368 L 192 368 Q 192 389 204 406 L 221 432 L 221 432 L 204 458 L 204 458 Q 192 475 192 496 L 192 512 L 192 512 L 224 512 L 224 512 L 224 496 L 224 496 Q 224 485 230 476 L 240 461 L 240 461 L 250 476 L 250 476 Q 256 485 256 496 L 256 512 L 256 512 L 288 512 L 288 512 L 288 496 L 288 496 Q 288 475 276 458 L 259 432 L 259 432 L 276 406 L 276 406 Q 288 389 288 368 L 288 352 L 288 352 L 256 352 L 256 352 L 256 368 L 256 368 Q 256 379 250 388 L 240 403 L 240 403 L 230 389 L 230 389 Q 224 379 224 368 L 224 368 Z M 320 512 L 336 512 L 320 512 L 392 512 L 392 480 L 392 480 L 376 480 L 352 480 L 352 368 L 352 368 L 352 352 L 352 352 L 320 352 L 320 352 L 320 368 L 320 368 L 320 496 L 320 496 L 320 512 L 320 512 Z M 408 398 Q 409 425 433 439 L 464 454 L 464 454 Q 472 458 472 466 Q 471 479 458 480 L 432 480 L 416 480 L 416 512 L 416 512 L 432 512 L 458 512 Q 478 512 491 499 Q 504 486 504 466 Q 503 439 479 426 L 448 410 L 448 410 Q 440 406 440 398 Q 441 385 454 384 L 480 384 L 496 384 L 496 352 L 496 352 L 480 352 L 454 352 Q 434 352 421 365 Q 408 378 408 398 L 408 398 Z" />
</svg>