<svg xmlns="http://www.w3.org/2000/svg" viewBox="0 0 512 512">
  <path d="M 160 416 L 144 416 L 160 416 L 0 416 L 0 400 L 0 400 L 0 16 L 0 16 L 0 0 L 0 0 L 16 0 L 512 0 L 512 16 L 512 16 L 512 400 L 512 400 L 512 416 L 512 416 L 496 416 L 304 416 L 176 501 L 176 501 L 160 512 L 160 512 L 160 493 L 160 493 L 160 432 L 160 432 L 160 416 L 160 416 Z M 160 400 L 176 400 L 160 400 L 176 400 L 176 416 L 176 416 L 176 482 L 176 482 L 295 403 L 295 403 L 299 400 L 299 400 L 304 400 L 496 400 L 496 16 L 496 16 L 16 16 L 16 16 L 16 400 L 16 400 L 160 400 L 160 400 Z M 352 85 L 352 96 L 352 85 L 352 96 L 352 248 L 352 248 Q 351 265 338 276 Q 324 288 304 288 Q 284 288 270 276 Q 257 265 256 248 Q 257 231 270 220 Q 284 208 304 208 Q 323 208 336 218 L 336 108 L 336 108 L 224 150 L 224 150 L 224 280 L 224 280 Q 223 297 210 308 Q 196 320 176 320 Q 156 320 142 308 Q 129 297 128 280 Q 129 263 142 252 Q 156 240 176 240 Q 195 240 208 250 L 208 144 L 208 144 L 208 139 L 208 139 L 213 137 L 213 137 L 341 89 L 341 89 L 352 85 L 352 85 Z M 304 224 Q 289 225 280 232 L 280 232 L 280 232 Q 272 240 272 248 Q 272 256 280 264 Q 289 271 304 272 Q 319 271 328 264 Q 336 256 336 248 Q 336 240 328 232 Q 319 225 304 224 L 304 224 Z M 176 256 Q 161 257 152 264 L 152 264 L 152 264 Q 144 272 144 280 Q 144 288 152 296 Q 161 303 176 304 Q 191 303 200 296 Q 208 288 208 280 Q 208 272 200 264 Q 191 257 176 256 L 176 256 Z" />
</svg>