<svg xmlns="http://www.w3.org/2000/svg" viewBox="0 0 478 459">
  <path d="M 412 357 Q 356 425 273 435 L 273 435 L 273 435 Q 191 446 120 393 Q 86 366 66 329 L 52 337 L 52 337 Q 73 376 110 406 Q 160 444 218 451 Q 276 459 331 437 Q 385 416 425 367 Q 462 317 470 259 Q 478 201 456 146 Q 435 92 386 53 Q 316 0 234 5 Q 152 11 91 70 L 102 81 L 102 81 Q 159 26 235 21 Q 311 17 376 65 Q 444 121 454 204 Q 465 286 412 357 L 412 357 Z M 29 8 L 18 19 L 29 8 L 18 19 L 0 37 L 0 37 L 0 165 L 0 165 L 0 181 L 0 181 L 16 181 L 144 181 L 162 163 L 162 163 L 173 152 L 173 152 L 162 141 L 162 141 L 40 19 L 40 19 L 29 8 L 29 8 Z M 29 31 L 150 152 L 29 31 L 150 152 L 137 165 L 137 165 L 16 165 L 16 165 L 16 44 L 16 44 L 29 31 L 29 31 Z" />
</svg>