<svg xmlns="http://www.w3.org/2000/svg" viewBox="0 0 512 511">
  <path d="M 256 0 L 261 3 L 256 0 L 261 3 L 325 50 L 325 50 L 329 54 L 329 54 L 328 59 L 328 59 L 317 91 L 317 91 Q 358 121 360 175 Q 358 229 317 260 L 328 292 L 328 292 L 329 298 L 329 298 L 325 301 L 325 301 L 264 347 L 264 347 L 264 371 L 264 371 L 317 339 L 317 339 Q 360 312 384 269 Q 408 226 408 175 Q 408 144 398 115 L 384 74 L 384 74 L 379 57 L 379 57 L 395 64 L 395 64 L 397 64 L 397 64 Q 450 88 481 134 Q 511 181 512 239 Q 512 287 490 328 Q 469 369 430 396 L 405 414 L 405 414 L 400 417 L 400 417 L 396 414 L 396 414 L 312 360 L 312 360 L 271 385 L 271 385 L 339 427 L 339 427 Q 345 423 352 423 Q 374 425 376 447 Q 374 469 352 471 Q 330 469 328 447 Q 328 443 329 439 L 264 399 L 264 399 L 264 448 L 264 448 Q 286 455 288 479 Q 288 493 279 502 Q 270 511 256 511 Q 242 511 233 502 Q 224 493 224 479 Q 226 455 248 448 L 248 399 L 248 399 L 183 439 L 183 439 Q 184 443 184 447 Q 182 469 160 471 Q 138 469 136 447 Q 138 425 160 423 Q 167 423 173 427 L 241 385 L 241 385 L 200 360 L 200 360 L 116 414 L 116 414 L 112 417 L 112 417 L 107 414 L 107 414 L 82 396 L 82 396 Q 43 369 22 328 Q 0 287 0 239 Q 1 181 31 134 Q 62 88 116 64 L 117 64 L 117 64 L 133 57 L 133 57 L 128 74 L 128 74 L 114 115 L 114 115 Q 104 144 104 175 Q 104 226 129 269 Q 153 312 196 339 L 248 371 L 248 371 L 248 347 L 248 347 L 187 301 L 187 301 L 183 298 L 183 298 L 184 292 L 184 292 L 195 260 L 195 260 Q 154 229 152 175 Q 154 121 195 91 L 184 59 L 184 59 L 183 54 L 183 54 L 187 50 L 187 50 L 251 3 L 251 3 L 256 0 L 256 0 Z M 201 107 Q 169 132 168 175 Q 169 218 201 244 L 211 213 L 211 213 Q 223 175 211 137 L 200 107 L 201 107 Z M 311 244 Q 343 218 344 175 Q 343 132 312 107 L 301 137 L 301 137 Q 289 175 301 213 L 311 244 L 311 244 Z M 202 60 L 226 132 L 202 60 L 226 132 Q 240 175 226 218 L 201 292 L 201 292 L 256 333 L 256 333 L 311 292 L 311 292 L 286 218 L 286 218 Q 272 175 286 132 L 311 60 L 311 60 L 256 20 L 256 20 L 202 60 L 202 60 Z M 168 447 Q 167 440 160 439 Q 153 440 152 447 Q 153 454 160 455 Q 167 454 168 447 L 168 447 Z M 272 479 Q 271 464 256 463 Q 241 464 240 479 Q 241 494 256 495 Q 271 494 272 479 L 272 479 Z M 352 455 Q 359 454 360 447 Q 359 440 352 439 Q 345 440 344 447 Q 345 454 352 455 L 352 455 Z M 185 351 Q 139 322 114 276 L 114 276 L 114 276 Q 88 230 88 175 Q 88 142 99 110 L 106 87 L 106 87 Q 64 110 40 150 Q 16 191 16 239 Q 16 283 36 320 Q 56 358 91 383 L 112 397 L 112 397 L 185 351 L 185 351 Z M 400 397 L 421 383 L 400 397 L 421 383 Q 456 358 476 320 Q 496 283 496 239 Q 496 191 472 150 Q 448 110 406 87 L 413 110 L 413 110 Q 424 142 424 175 Q 424 230 398 276 Q 373 322 327 351 L 400 397 L 400 397 Z" />
</svg>