<svg xmlns="http://www.w3.org/2000/svg" viewBox="0 0 640 512">
  <path d="M 48 15 L 29 0 L 48 15 L 29 0 L 0 38 L 0 38 L 19 53 L 19 53 L 592 497 L 592 497 L 611 512 L 611 512 L 640 474 L 640 474 L 621 459 L 621 459 L 440 319 L 440 319 Q 469 314 492 292 L 502 282 L 502 282 L 536 248 L 536 248 L 507 219 L 507 219 Q 505 217 504 216 Q 503 215 502 214 Q 499 212 497 210 L 553 153 L 553 153 L 570 136 L 570 136 L 536 102 L 536 102 L 519 119 L 519 119 L 455 183 L 455 183 L 452 186 L 452 186 Q 440 183 428 182 L 558 52 L 558 52 L 575 35 L 575 35 L 541 1 L 541 1 L 524 18 L 524 18 L 394 148 L 394 148 Q 393 136 390 124 L 393 121 L 393 121 L 457 57 L 457 57 L 474 40 L 474 40 L 440 6 L 440 6 L 423 23 L 423 23 L 367 80 L 367 80 Q 364 77 362 74 Q 360 72 358 70 L 357 69 L 357 69 L 328 40 L 328 40 L 295 73 L 295 73 L 294 74 L 294 74 L 294 74 L 294 74 Q 269 101 264 135 L 248 120 L 248 120 L 219 147 L 219 147 L 48 15 L 48 15 Z M 385 399 L 152 215 L 385 399 L 152 215 L 138 228 L 138 228 Q 104 262 103 308 Q 102 353 136 389 L 145 397 L 145 397 Q 145 397 145 397 Q 145 397 145 397 L 82 460 L 82 460 L 65 477 L 65 477 L 99 511 L 99 511 L 116 494 L 116 494 L 179 431 L 179 431 L 187 440 L 187 440 Q 223 474 268 473 Q 314 472 348 438 L 376 408 L 376 408 Q 376 408 376 408 Q 376 408 376 408 L 385 399 L 385 399 Z M 170 355 Q 152 336 151 311 L 151 311 L 151 311 Q 151 286 168 266 Q 186 287 188 313 Q 191 339 177 362 L 170 355 L 170 355 Z M 310 408 Q 290 425 265 425 L 265 425 L 265 425 Q 240 424 221 406 L 214 399 L 214 399 Q 237 385 263 388 Q 289 390 310 408 L 310 408 Z M 335 203 L 329 197 L 335 203 L 329 197 Q 311 178 310 153 Q 310 128 328 108 Q 345 129 347 154 Q 348 180 335 203 L 335 203 Z M 468 248 L 458 258 L 468 248 L 458 258 Q 443 272 424 272 Q 405 272 390 258 L 373 241 L 373 241 Q 396 227 421 229 Q 447 231 468 248 L 468 248 Z" />
</svg>