<svg xmlns="http://www.w3.org/2000/svg" viewBox="0 0 512 512">
  <path d="M 256 496 Q 321 495 376 464 L 376 464 L 376 464 Q 431 432 464 376 Q 496 319 496 256 Q 496 193 464 136 Q 431 80 376 48 Q 321 17 256 16 Q 191 17 136 48 Q 81 80 48 136 Q 16 193 16 256 Q 16 319 48 376 Q 81 432 136 464 Q 191 495 256 496 L 256 496 Z M 256 0 Q 326 1 384 34 L 384 34 L 384 34 Q 442 68 478 128 Q 512 189 512 256 Q 512 323 478 384 Q 442 444 384 478 Q 326 511 256 512 Q 186 511 128 478 Q 70 444 34 384 Q 0 323 0 256 Q 0 189 34 128 Q 70 68 128 34 Q 186 1 256 0 L 256 0 Z M 195 179 L 184 168 L 195 179 L 184 168 L 195 157 L 195 157 L 208 144 L 208 144 L 352 144 L 368 144 L 368 160 L 368 160 L 368 304 L 368 304 L 355 317 L 355 317 L 344 328 L 344 328 L 333 317 L 333 317 L 307 291 L 307 291 L 296 280 L 296 280 L 285 291 L 285 291 L 211 365 L 211 365 L 200 376 L 200 376 L 189 365 L 189 365 L 147 323 L 147 323 L 136 312 L 136 312 L 147 301 L 147 301 L 221 227 L 221 227 L 232 216 L 232 216 L 221 205 L 221 205 L 195 179 L 195 179 Z M 243 227 L 159 312 L 243 227 L 159 312 L 200 353 L 200 353 L 285 269 L 285 269 L 296 257 L 296 257 L 307 269 L 307 269 L 344 305 L 344 305 L 352 297 L 352 297 L 352 160 L 352 160 L 215 160 L 215 160 L 207 168 L 207 168 L 243 205 L 243 205 L 255 216 L 255 216 L 243 227 L 243 227 Z" />
</svg>