<svg xmlns="http://www.w3.org/2000/svg" viewBox="0 0 640 512">
  <path d="M 112 0 L 96 0 L 112 0 L 96 0 L 96 16 L 96 16 L 96 145 L 96 145 L 90 150 L 90 150 L 22 218 L 22 218 L 12 228 L 12 228 L 21 240 L 21 240 L 33 254 L 33 254 L 14 256 L 14 256 L 0 258 L 0 258 L 0 272 L 0 272 L 0 368 L 0 368 L 0 383 L 0 383 L 14 384 L 14 384 L 33 386 L 33 386 L 21 400 L 21 400 L 12 412 L 12 412 L 22 422 L 22 422 L 90 490 L 90 490 L 100 500 L 100 500 L 112 491 L 112 491 L 126 479 L 126 479 L 128 498 L 128 498 L 129 512 L 129 512 L 144 512 L 254 512 L 256 498 L 256 498 L 258 479 L 258 479 L 272 491 L 272 491 L 284 500 L 284 500 L 294 490 L 294 490 L 362 422 L 362 422 L 372 412 L 372 412 L 363 400 L 363 400 L 351 386 L 351 386 L 369 384 L 369 384 L 384 382 L 384 382 L 384 368 L 384 368 L 384 352 L 384 352 L 544 352 L 549 352 L 554 348 L 554 348 L 634 284 L 634 284 L 640 280 L 640 280 L 640 272 L 640 272 L 640 176 L 640 176 L 640 160 L 640 160 L 624 160 L 624 160 L 624 176 L 624 176 L 624 160 L 624 160 Q 624 160 624 160 Q 624 160 624 160 Q 624 160 624 160 Q 624 160 624 160 Q 624 160 624 160 Q 624 160 624 160 Q 624 160 624 160 Q 624 160 624 160 Q 624 160 624 160 Q 624 160 624 160 Q 624 160 624 160 Q 624 160 624 160 Q 624 160 624 160 Q 624 160 624 160 Q 624 160 624 160 Q 624 160 624 160 Q 624 160 624 160 Q 624 160 624 160 Q 624 160 624 160 Q 624 160 624 160 Q 624 160 624 160 Q 624 160 624 160 Q 624 160 624 160 Q 624 160 624 160 Q 624 160 624 160 Q 624 160 624 160 Q 624 160 624 160 Q 624 160 624 160 Q 624 160 624 160 Q 624 160 624 160 Q 623 160 623 160 Q 623 160 623 160 Q 623 160 623 160 Q 623 160 623 160 Q 623 160 623 160 Q 623 160 623 160 Q 623 160 623 160 Q 623 160 623 160 Q 623 160 623 160 Q 623 160 623 160 Q 623 160 623 160 Q 623 160 623 160 Q 623 160 623 160 Q 623 160 623 160 Q 623 160 623 160 Q 623 160 623 160 Q 623 160 623 160 Q 623 160 623 160 Q 623 160 623 160 Q 623 160 623 160 Q 622 160 622 160 Q 622 160 622 160 L 622 160 L 622 160 L 622 160 L 622 160 L 622 160 L 622 160 L 622 160 L 622 160 L 622 160 L 622 160 L 622 160 L 622 160 L 622 160 L 622 160 L 622 160 L 622 160 L 622 160 L 622 160 L 621 160 L 621 160 L 621 160 L 621 160 L 621 160 L 621 160 L 621 160 L 621 160 L 621 160 L 621 160 L 621 160 L 621 160 L 621 160 L 621 160 L 621 160 L 621 160 L 620 160 L 620 160 L 620 160 L 620 160 L 620 160 L 620 160 L 620 160 L 620 160 L 620 160 L 620 160 L 619 160 L 619 160 L 619 160 L 619 160 L 619 160 L 619 160 L 619 160 L 619 160 L 619 160 L 619 160 L 618 160 L 618 160 L 618 160 L 618 160 L 618 160 L 618 160 L 618 160 L 618 160 L 618 160 L 618 160 L 617 160 L 617 160 L 617 160 L 617 160 L 617 160 L 617 160 L 617 160 L 617 160 L 617 160 L 617 160 L 616 160 L 616 160 L 616 160 L 616 160 L 616 160 L 616 160 L 616 160 L 616 160 L 616 160 L 616 160 L 615 160 L 615 160 L 615 160 L 615 160 L 615 160 L 615 160 L 615 160 L 615 160 L 614 160 L 614 160 L 614 160 L 614 160 L 614 160 L 614 160 L 614 160 L 614 160 L 613 160 L 613 160 L 613 160 L 613 160 L 613 160 L 613 160 L 612 160 L 612 160 L 612 160 L 612 160 L 612 160 L 612 160 L 611 160 L 611 160 L 611 160 L 611 160 L 611 160 L 611 160 L 611 160 L 611 160 L 610 160 L 610 160 L 610 160 L 610 160 L 610 160 L 610 160 L 609 160 L 609 160 L 609 160 L 609 160 L 609 160 L 609 160 L 608 160 L 608 160 L 608 160 L 608 160 L 608 160 L 608 160 L 608 160 L 608 160 L 607 160 L 607 160 L 607 160 L 607 160 L 607 160 L 607 160 L 606 160 L 606 160 L 606 160 L 606 160 L 606 160 L 606 160 L 605 160 L 605 160 L 605 160 L 605 160 L 605 160 L 605 160 L 604 160 L 604 160 L 604 160 L 604 160 L 603 160 L 603 160 L 603 160 L 603 160 L 603 160 L 603 160 L 602 160 L 602 160 L 602 160 L 602 160 L 601 160 L 601 160 L 601 160 L 601 160 L 601 160 L 601 160 L 600 160 L 600 160 L 600 160 L 600 160 L 599 160 L 599 160 L 599 160 L 599 160 L 599 160 L 599 160 L 598 160 L 598 160 L 598 160 L 598 160 L 597 160 L 597 160 L 597 160 L 597 160 L 597 160 L 597 160 L 596 160 L 596 160 L 596 160 L 596 160 L 595 160 L 595 160 L 595 160 L 595 160 L 595 160 L 595 160 L 594 160 L 594 160 L 594 160 L 594 160 L 593 160 L 593 160 L 593 160 L 593 160 L 593 160 L 593 160 L 592 160 L 592 160 L 592 160 L 592 160 L 591 160 L 591 160 L 591 160 L 591 160 L 590 160 L 590 160 L 590 160 L 590 160 L 589 160 L 589 160 L 589 160 L 589 160 L 588 160 L 588 160 L 588 160 L 588 160 L 587 160 L 587 160 L 587 160 L 587 160 L 586 160 L 586 160 L 586 160 L 586 160 L 585 160 L 585 160 L 585 160 L 585 160 L 584 160 L 584 160 L 584 160 L 584 160 L 583 160 L 583 160 L 583 160 L 583 160 L 582 160 L 582 160 L 582 160 L 582 160 L 581 160 L 581 160 L 581 160 L 581 160 L 580 160 L 580 160 L 580 160 L 580 160 L 579 160 L 579 160 L 579 160 L 579 160 L 578 160 L 578 160 L 578 160 L 578 160 L 577 160 L 577 160 L 577 160 L 577 160 L 576 160 L 576 160 L 576 160 L 576 160 L 575 160 L 575 160 L 575 160 L 575 160 L 574 160 L 574 160 L 574 160 L 574 160 L 573 160 L 573 160 L 573 160 L 573 160 L 572 160 L 572 160 L 572 160 L 572 160 L 571 160 L 571 160 L 571 160 L 571 160 L 570 160 L 570 160 L 570 160 L 570 160 L 569 160 L 568 160 L 568 160 L 568 160 L 567 160 L 567 160 L 567 160 L 567 160 L 566 160 L 565 160 L 565 160 L 565 160 L 564 160 L 564 160 L 564 160 L 564 160 L 563 160 L 562 160 L 562 160 L 562 160 L 561 160 L 561 160 L 561 160 L 561 160 L 560 160 L 559 160 L 559 160 L 559 160 L 558 160 L 558 160 L 558 160 L 558 160 L 557 160 L 556 160 L 556 160 L 556 160 L 555 160 L 555 160 L 555 160 L 555 160 L 554 160 L 553 160 L 553 160 L 553 160 L 552 160 L 552 160 L 552 160 L 552 160 L 551 160 L 550 160 L 550 160 L 550 160 L 549 160 L 549 160 L 549 160 L 549 160 L 548 160 L 547 160 L 547 160 L 547 160 L 546 160 L 546 160 L 546 160 L 546 160 L 545 160 L 544 160 L 544 160 L 544 160 L 543 160 L 542 160 L 542 160 L 542 160 L 541 160 L 539 160 L 539 160 L 539 160 L 538 160 L 537 160 L 537 160 L 537 160 L 536 160 L 535 160 L 535 160 L 535 160 L 534 160 L 532 160 L 532 160 L 532 160 L 531 160 L 530 160 L 530 160 L 530 160 L 529 160 L 528 160 L 528 160 L 528 160 L 527 160 L 525 160 L 525 160 L 525 160 L 524 160 L 523 160 L 523 160 L 523 160 L 522 160 L 521 160 L 521 160 L 521 160 L 520 160 L 518 160 L 518 160 L 518 160 L 517 160 L 516 160 L 516 160 L 516 160 L 515 160 L 514 160 L 514 160 L 514 160 L 513 160 L 512 160 L 512 87 L 512 87 L 540 59 L 540 59 L 551 48 L 551 48 L 528 25 L 528 25 L 517 37 L 517 37 L 485 69 L 485 69 L 480 73 L 480 73 L 480 80 L 480 80 L 480 160 L 480 160 Q 480 160 480 160 Q 480 160 480 160 L 479 160 L 478 160 L 478 160 L 478 160 L 477 160 L 474 160 L 474 160 L 474 160 L 473 160 L 470 160 L 470 160 L 470 160 L 469 160 L 466 160 L 466 160 L 466 160 L 465 160 L 462 160 L 462 160 L 462 160 L 461 160 L 457 160 L 457 160 L 457 160 L 456 160 L 448 160 L 448 160 L 448 160 L 447 160 L 439 160 L 439 160 L 439 160 L 438 160 L 430 160 L 430 160 L 430 160 L 429 160 L 421 160 L 421 160 L 421 160 L 420 160 L 412 160 L 412 160 L 412 160 L 411 160 L 403 160 L 403 160 L 403 160 L 402 160 L 394 160 L 394 160 L 394 160 L 393 160 L 385 160 L 385 160 L 385 160 L 384 160 L 379 160 Q 379 160 379 160 Q 379 160 379 160 L 311 9 L 311 9 L 306 0 L 306 0 L 296 0 L 112 0 Z M 384 320 L 384 272 L 384 320 L 384 272 L 384 258 L 384 258 L 370 256 L 370 256 L 351 254 L 351 254 L 363 240 L 363 240 L 372 228 L 372 228 L 362 218 L 362 218 L 336 192 L 336 192 L 336 192 L 336 192 L 337 192 L 363 192 L 363 192 L 363 192 L 364 192 L 368 192 L 368 192 L 368 192 Q 369 192 369 192 Q 369 192 369 192 L 370 192 L 372 192 L 372 192 L 372 192 L 373 192 L 381 192 L 381 192 L 381 192 L 382 192 L 390 192 L 390 192 L 390 192 L 391 192 L 399 192 L 399 192 L 399 192 L 400 192 L 408 192 L 408 192 L 408 192 L 409 192 L 417 192 L 417 192 L 417 192 L 418 192 L 426 192 L 426 192 L 426 192 L 427 192 L 435 192 L 435 192 L 435 192 L 436 192 L 444 192 L 444 192 L 444 192 L 445 192 L 453 192 L 453 192 L 453 192 L 454 192 L 460 192 L 460 192 L 460 192 L 461 192 L 464 192 L 464 192 L 464 192 L 465 192 L 468 192 L 468 192 L 468 192 L 469 192 L 472 192 L 472 192 L 472 192 L 473 192 L 476 192 L 476 192 L 476 192 L 477 192 L 480 192 L 480 192 L 480 192 L 481 192 L 484 192 L 484 192 L 484 192 L 485 192 L 488 192 L 488 192 L 488 192 L 489 192 L 492 192 L 492 192 L 492 192 L 493 192 L 496 192 L 496 192 L 496 192 L 497 192 L 500 192 L 500 192 L 500 192 L 501 192 L 504 192 L 504 192 L 504 192 L 505 192 L 508 192 L 508 192 L 508 192 L 509 192 L 511 192 L 511 192 L 511 192 L 512 192 L 513 192 L 513 192 L 513 192 L 514 192 L 516 192 L 516 192 L 516 192 L 517 192 L 518 192 L 518 192 L 518 192 L 519 192 L 520 192 L 520 192 L 520 192 L 521 192 L 523 192 L 523 192 L 523 192 L 524 192 L 525 192 L 525 192 L 525 192 L 526 192 L 527 192 L 527 192 L 527 192 L 528 192 L 530 192 L 530 192 L 530 192 L 531 192 L 532 192 L 532 192 L 532 192 L 533 192 L 534 192 L 534 192 L 534 192 L 535 192 L 537 192 L 537 192 L 537 192 L 538 192 L 539 192 L 539 192 L 539 192 L 540 192 L 541 192 L 541 192 L 541 192 L 542 192 L 544 192 L 544 192 L 544 192 L 545 192 L 546 192 L 546 192 L 546 192 L 547 192 L 547 192 L 547 192 L 547 192 L 548 192 L 549 192 L 549 192 L 549 192 L 550 192 L 550 192 L 550 192 L 550 192 L 551 192 L 552 192 L 552 192 L 552 192 L 553 192 L 553 192 L 553 192 L 553 192 L 554 192 L 555 192 L 555 192 L 555 192 L 556 192 L 556 192 L 556 192 L 556 192 L 557 192 L 558 192 L 558 192 L 558 192 L 559 192 L 559 192 L 559 192 L 559 192 L 560 192 L 561 192 L 561 192 L 561 192 L 562 192 L 562 192 L 562 192 L 562 192 L 563 192 L 564 192 L 564 192 L 564 192 L 565 192 L 565 192 L 565 192 L 565 192 L 566 192 L 567 192 L 567 192 L 567 192 L 568 192 L 568 192 L 568 192 L 568 192 L 569 192 L 570 192 L 570 192 L 570 192 L 571 192 L 571 192 L 571 192 L 571 192 L 572 192 L 572 192 L 572 192 L 572 192 L 573 192 L 573 192 L 573 192 L 573 192 L 574 192 L 574 192 L 574 192 L 574 192 L 575 192 L 575 192 L 575 192 L 575 192 L 576 192 L 576 192 L 576 192 L 576 192 L 577 192 L 577 192 L 577 192 L 577 192 L 578 192 L 578 192 L 578 192 L 578 192 L 579 192 L 579 192 L 579 192 L 579 192 L 580 192 L 580 192 L 580 192 L 580 192 L 581 192 L 581 192 L 581 192 L 581 192 L 582 192 L 582 192 L 582 192 L 582 192 L 583 192 L 583 192 L 583 192 L 583 192 L 584 192 L 584 192 L 584 192 L 584 192 L 585 192 L 585 192 L 585 192 L 585 192 L 586 192 L 586 192 L 586 192 L 586 192 L 587 192 L 587 192 L 587 192 L 587 192 L 588 192 L 588 192 L 588 192 L 588 192 L 589 192 L 589 192 L 589 192 L 589 192 L 590 192 L 590 192 L 590 192 L 590 192 L 591 192 L 591 192 L 591 192 L 591 192 L 592 192 L 592 192 L 592 192 L 592 192 L 593 192 L 593 192 L 593 192 L 593 192 L 593 192 L 593 192 L 594 192 L 594 192 L 594 192 L 594 192 L 595 192 L 595 192 L 595 192 L 595 192 L 595 192 L 595 192 L 596 192 L 596 192 L 596 192 L 596 192 L 597 192 L 597 192 L 597 192 L 597 192 L 597 192 L 597 192 L 598 192 L 598 192 L 598 192 L 598 192 L 599 192 L 599 192 L 599 192 L 599 192 L 599 192 L 599 192 L 600 192 L 600 192 L 600 192 L 600 192 L 601 192 L 601 192 L 601 192 L 601 192 L 601 192 L 601 192 L 602 192 L 602 192 L 602 192 L 602 192 L 603 192 L 603 192 L 603 192 L 603 192 L 603 192 L 603 192 L 604 192 L 604 192 L 604 192 L 604 192 L 605 192 L 605 192 L 605 192 L 605 192 L 605 192 L 605 192 L 606 192 L 606 192 L 606 192 L 606 192 L 606 192 L 606 192 L 607 192 L 607 192 L 607 192 L 607 192 L 607 192 L 607 192 L 607 192 L 607 192 L 608 192 L 608 192 Q 608 192 608 192 Q 608 192 608 192 L 608 264 L 608 264 L 538 320 L 538 320 L 384 320 L 384 320 Z M 304 160 L 294 150 L 304 160 L 294 150 L 284 140 L 284 140 L 272 149 L 272 149 L 258 161 L 258 161 L 256 143 L 256 143 L 255 128 L 255 128 L 240 128 L 130 128 L 128 142 L 128 142 L 128 143 L 128 143 L 128 32 L 128 32 L 286 32 L 286 32 L 343 160 L 343 160 L 342 160 L 302 160 L 302 160 L 304 160 Z M 512 416 Q 526 416 535 425 L 535 425 L 535 425 Q 544 434 544 448 Q 544 462 535 471 Q 526 480 512 480 Q 498 480 489 471 Q 480 462 480 448 Q 480 434 489 425 Q 498 416 512 416 L 512 416 Z M 512 512 Q 548 511 567 480 Q 585 448 567 416 Q 548 385 512 384 Q 476 385 457 416 Q 439 448 457 480 Q 476 511 512 512 L 512 512 Z M 156 187 L 158 160 L 156 187 L 158 160 L 225 160 L 225 160 L 228 187 L 228 187 L 229 197 L 229 197 L 238 201 L 238 201 Q 241 202 243 203 L 252 207 L 252 207 L 260 201 L 260 201 L 281 183 L 281 183 L 329 231 L 329 231 L 311 252 L 311 252 L 305 260 L 305 260 L 309 269 L 309 269 Q 310 271 311 273 Q 311 273 311 274 L 315 283 L 315 283 L 325 284 L 325 284 L 352 287 L 352 287 L 352 354 L 352 354 L 325 356 L 325 356 L 315 357 L 315 357 L 311 366 L 311 366 Q 310 369 309 372 L 305 381 L 305 381 L 311 388 L 311 388 L 329 410 L 329 410 L 281 457 L 281 457 L 260 440 L 260 440 L 252 433 L 252 433 L 243 437 L 243 437 Q 241 438 239 439 Q 239 439 238 440 L 229 443 L 229 443 L 228 453 L 228 453 L 226 480 L 226 480 L 159 480 L 159 480 L 156 453 L 156 453 L 155 443 L 155 443 L 146 439 L 146 439 Q 143 438 141 437 L 132 433 L 132 433 L 124 439 L 124 439 L 103 457 L 103 457 L 55 409 L 55 409 L 73 388 L 73 388 L 79 381 L 79 381 L 75 372 L 75 372 Q 74 369 73 367 Q 73 367 73 366 L 69 357 L 69 357 L 59 356 L 59 356 L 32 354 L 32 354 L 32 287 L 32 287 L 59 284 L 59 284 L 69 283 L 69 283 L 73 274 L 73 274 Q 74 271 75 268 L 79 259 L 79 259 L 73 252 L 73 252 L 55 231 L 55 231 L 103 183 L 103 183 L 124 201 L 124 201 L 132 207 L 132 207 L 141 203 L 141 203 Q 143 202 145 201 Q 145 201 146 201 L 155 197 L 155 197 L 156 187 L 156 187 Z M 246 320 Q 245 351 219 367 Q 192 382 165 367 Q 139 351 138 320 Q 139 289 165 273 Q 192 258 219 273 Q 245 289 246 320 L 246 320 Z M 192 234 Q 143 235 117 277 Q 94 320 117 363 Q 143 405 192 406 Q 241 405 267 363 Q 290 320 267 277 Q 241 235 192 234 L 192 234 Z" />
</svg>