<svg xmlns="http://www.w3.org/2000/svg" viewBox="0 0 576 448">
  <path d="M 16 16 L 16 432 L 16 16 L 16 432 L 560 432 L 560 432 L 560 16 L 560 16 L 16 16 L 16 16 Z M 0 0 L 16 0 L 0 0 L 576 0 L 576 16 L 576 16 L 576 432 L 576 432 L 576 448 L 576 448 L 560 448 L 0 448 L 0 432 L 0 432 L 0 16 L 0 16 L 0 0 L 0 0 Z M 320 248 Q 321 280 348 296 Q 376 312 404 296 Q 431 280 432 248 Q 431 216 404 200 Q 376 184 348 200 Q 321 216 320 248 L 320 248 Z M 376 176 Q 411 177 432 203 L 432 136 L 432 136 L 432 128 L 432 128 L 448 128 L 448 128 L 448 136 L 448 136 L 448 248 L 448 248 L 448 312 L 448 312 L 448 320 L 448 320 L 432 320 L 432 320 L 432 312 L 432 312 L 432 293 L 432 293 Q 411 319 376 320 Q 345 319 325 299 Q 305 279 304 248 Q 305 217 325 197 Q 345 177 376 176 L 376 176 Z M 183 128 L 188 128 L 183 128 L 201 128 L 203 133 L 203 133 L 284 320 L 284 320 L 267 320 L 267 320 L 246 272 L 246 272 L 138 272 L 138 272 L 117 320 L 117 320 L 100 320 L 100 320 L 181 133 L 181 133 L 183 128 L 183 128 Z M 145 256 L 239 256 L 145 256 L 239 256 L 192 148 L 192 148 L 145 256 L 145 256 Z" />
</svg>