<svg xmlns="http://www.w3.org/2000/svg" viewBox="0 0 633 512">
  <path d="M 138 144 Q 174 143 193 112 Q 211 80 193 48 Q 174 17 138 16 Q 102 17 83 48 Q 65 80 83 112 Q 102 143 138 144 L 138 144 Z M 138 0 Q 183 1 207 40 Q 229 80 207 120 Q 183 159 138 160 Q 93 159 69 120 Q 47 80 69 40 Q 93 1 138 0 L 138 0 Z M 394 224 Q 393 179 354 155 Q 314 133 274 155 Q 235 179 234 224 Q 235 269 274 293 Q 314 315 354 293 Q 393 269 394 224 L 394 224 Z M 218 224 Q 218 198 231 176 L 231 176 L 231 176 Q 244 154 266 141 Q 289 128 314 128 Q 339 128 362 141 Q 384 154 397 176 Q 410 198 410 224 Q 410 250 397 272 Q 384 294 362 307 Q 339 320 314 320 Q 289 320 266 307 Q 244 294 231 272 Q 218 250 218 224 L 218 224 Z M 144 496 L 386 496 L 144 496 L 386 496 L 395 512 L 395 512 L 139 512 L 122 512 L 127 496 L 127 496 L 170 352 L 170 352 L 341 352 L 341 352 L 335 359 L 335 359 L 350 368 L 350 368 L 182 368 L 182 368 L 144 496 L 144 496 Z M 608 251 L 594 259 L 608 251 L 594 259 L 575 208 L 575 208 L 441 208 L 441 208 Q 440 200 438 192 L 586 192 L 586 192 L 608 251 L 608 251 Z M 42 192 L 190 192 L 42 192 L 190 192 Q 188 200 187 208 L 53 208 L 53 208 L 17 304 L 17 304 L 0 304 L 0 304 L 42 192 L 42 192 Z M 506 144 Q 542 143 561 112 Q 579 80 561 48 Q 542 17 506 16 Q 470 17 451 48 Q 433 80 451 112 Q 470 143 506 144 L 506 144 Z M 506 0 Q 551 1 575 40 Q 597 80 575 120 Q 551 159 506 160 Q 461 159 437 120 Q 415 80 437 40 Q 461 1 506 0 L 506 0 Z M 474 256 L 482 256 L 474 256 L 538 256 L 538 264 L 538 264 L 538 294 L 538 294 Q 554 300 568 311 L 594 296 L 594 296 L 601 292 L 601 292 L 605 299 L 605 299 L 629 341 L 629 341 L 633 348 L 633 348 L 626 352 L 626 352 L 600 367 L 600 367 Q 602 375 602 384 Q 602 393 600 402 L 626 416 L 626 416 L 633 420 L 633 420 L 629 427 L 629 427 L 605 469 L 605 469 L 601 476 L 601 476 L 594 472 L 594 472 L 568 457 L 568 457 Q 555 468 538 474 L 538 504 L 538 504 L 538 512 L 538 512 L 530 512 L 474 512 L 474 504 L 474 504 L 474 474 L 474 474 Q 458 468 444 457 L 418 472 L 418 472 L 411 476 L 411 476 L 407 469 L 407 469 L 383 427 L 383 427 L 379 420 L 379 420 L 386 416 L 386 416 L 412 402 L 412 402 Q 410 393 410 384 Q 410 375 412 367 L 386 352 L 386 352 L 379 348 L 379 348 L 383 341 L 383 341 L 407 299 L 407 299 L 411 292 L 411 292 L 418 296 L 418 296 L 444 311 L 444 311 Q 457 300 474 294 L 474 264 L 474 264 L 474 256 L 474 256 Z M 490 272 L 490 299 L 490 272 L 490 299 L 490 305 L 490 305 L 485 307 L 485 307 Q 465 313 450 327 L 446 331 L 446 331 L 441 328 L 441 328 L 417 314 L 417 314 L 401 342 L 401 342 L 425 355 L 425 355 L 429 358 L 429 358 L 428 364 L 428 364 Q 426 374 426 384 Q 426 394 428 404 L 429 410 L 429 410 L 425 413 L 425 413 L 401 426 L 401 426 L 417 454 L 417 454 L 441 440 L 441 440 L 445 437 L 445 437 L 450 441 L 450 441 Q 465 455 485 461 L 490 463 L 490 463 L 490 469 L 490 469 L 490 496 L 490 496 L 522 496 L 522 496 L 522 469 L 522 469 L 522 463 L 522 463 L 527 461 L 527 461 Q 547 455 562 441 L 567 437 L 567 437 L 572 440 L 572 440 L 595 454 L 595 454 L 611 426 L 611 426 L 588 413 L 588 413 L 583 410 L 583 410 L 584 404 L 584 404 Q 586 394 586 384 Q 586 374 584 364 L 583 358 L 583 358 L 588 355 L 588 355 L 611 342 L 611 342 L 595 314 L 595 314 L 572 328 L 572 328 L 567 331 L 567 331 L 562 327 L 562 327 Q 547 313 527 307 L 522 305 L 522 305 L 522 299 L 522 299 L 522 272 L 522 272 L 490 272 L 490 272 Z M 506 408 Q 528 406 530 384 Q 528 362 506 360 Q 484 362 482 384 Q 484 406 506 408 L 506 408 Z M 506 344 Q 529 345 541 364 Q 551 384 541 404 Q 529 423 506 424 Q 483 423 471 404 Q 461 384 471 364 Q 483 345 506 344 L 506 344 Z" />
</svg>