<svg xmlns="http://www.w3.org/2000/svg" viewBox="0 0 512 448">
  <path d="M 496 16 L 496 432 L 496 16 L 496 432 L 224 432 L 224 432 L 224 16 L 224 16 L 496 16 L 496 16 Z M 16 16 L 208 16 L 16 16 L 208 16 L 208 432 L 208 432 L 16 432 L 16 432 L 16 16 L 16 16 Z M 16 0 L 0 0 L 16 0 L 0 0 L 0 16 L 0 16 L 0 432 L 0 432 L 0 448 L 0 448 L 16 448 L 512 448 L 512 432 L 512 432 L 512 16 L 512 16 L 512 0 L 512 0 L 496 0 L 16 0 Z M 160 64 L 64 64 L 160 64 L 64 64 L 64 80 L 64 80 L 160 80 L 160 80 L 160 64 L 160 64 Z M 64 128 L 64 144 L 64 128 L 64 144 L 160 144 L 160 144 L 160 128 L 160 128 L 64 128 L 64 128 Z M 160 192 L 64 192 L 160 192 L 64 192 L 64 208 L 64 208 L 160 208 L 160 208 L 160 192 L 160 192 Z" />
</svg>