<svg xmlns="http://www.w3.org/2000/svg" viewBox="0 0 512 512">
  <path d="M 496 16 L 496 80 L 496 16 L 496 80 L 152 80 L 16 80 L 16 16 L 16 16 L 496 16 L 496 16 Z M 16 96 L 136 96 L 16 96 L 136 96 L 136 176 L 136 176 L 136 192 L 136 192 L 136 257 L 136 257 Q 119 260 107 273 Q 96 286 96 304 Q 96 323 108 336 Q 109 337 110 338 Q 124 351 144 352 Q 166 351 180 336 Q 192 323 192 304 Q 192 286 180 273 Q 169 260 152 257 L 152 192 L 152 192 L 152 176 L 152 176 L 152 96 L 152 96 L 496 96 L 512 96 L 512 80 L 512 80 L 512 16 L 512 16 L 512 0 L 512 0 L 496 0 L 0 0 L 0 16 L 0 16 L 0 80 L 0 80 L 0 96 L 0 96 L 16 96 L 16 96 Z M 144 272 Q 158 272 167 281 L 167 281 L 167 281 Q 176 290 176 304 Q 176 318 167 327 Q 158 336 144 336 Q 130 336 121 327 Q 112 318 112 304 Q 112 290 121 281 Q 130 272 144 272 L 144 272 Z M 8 176 L 0 176 L 8 176 L 0 176 L 0 192 L 0 192 L 8 192 L 104 192 L 104 176 L 104 176 L 8 176 L 8 176 Z M 8 336 L 0 336 L 8 336 L 0 336 L 0 352 L 0 352 L 8 352 L 80 352 Q 74 345 71 336 L 8 336 L 8 336 Z M 504 352 L 512 352 L 504 352 L 512 352 L 512 336 L 512 336 L 504 336 L 217 336 Q 214 345 208 352 L 504 352 L 504 352 Z M 504 192 L 512 192 L 504 192 L 512 192 L 512 176 L 512 176 L 504 176 L 184 176 L 184 192 L 184 192 L 504 192 L 504 192 Z M 0 496 L 0 512 L 0 496 L 0 512 L 8 512 L 512 512 L 512 496 L 512 496 L 504 496 L 0 496 Z" />
</svg>