<svg xmlns="http://www.w3.org/2000/svg" viewBox="0 0 638 512">
  <path d="M 128 0 L 136 0 L 128 0 L 325 0 L 327 4 L 327 4 L 423 188 L 423 188 L 427 195 L 427 195 L 413 203 L 413 203 L 409 196 L 409 196 L 315 16 L 315 16 L 144 16 L 144 16 L 144 104 L 144 104 L 144 112 L 144 112 L 128 112 L 128 112 L 128 104 L 128 104 L 128 8 L 128 8 L 128 0 L 128 0 Z M 538 235 L 626 131 L 538 235 L 626 131 L 638 141 L 638 141 L 552 243 L 552 243 L 552 397 L 552 397 L 638 499 L 638 499 L 626 509 L 626 509 L 538 405 L 538 405 L 536 403 L 536 403 L 536 400 L 536 400 L 536 320 L 536 320 L 446 320 L 446 320 Q 479 352 480 400 Q 479 448 447 479 Q 416 511 368 512 L 112 512 L 112 512 Q 64 511 33 479 Q 1 448 0 400 Q 0 366 18 339 Q 35 313 64 299 L 64 152 L 64 152 L 64 144 L 64 144 L 72 144 L 140 144 L 142 147 L 142 147 L 212 224 L 212 224 L 424 224 L 432 224 L 432 232 L 432 232 L 432 304 L 432 304 L 536 304 L 536 304 L 536 240 L 536 240 L 536 237 L 536 237 L 538 235 L 538 235 Z M 80 160 L 80 293 L 80 160 L 80 293 Q 95 288 112 288 L 368 288 L 368 288 Q 394 288 416 299 L 416 240 L 416 240 L 208 240 L 204 240 L 202 237 L 202 237 L 132 160 L 132 160 L 80 160 L 80 160 Z M 368 304 L 112 304 L 368 304 L 112 304 Q 71 305 44 332 Q 17 359 16 400 Q 17 441 44 468 Q 71 495 112 496 L 368 496 L 368 496 Q 409 495 436 468 Q 463 441 464 400 Q 463 359 436 332 Q 409 305 368 304 L 368 304 Z M 384 384 Q 399 385 400 400 Q 399 415 384 416 Q 369 415 368 400 Q 369 385 384 384 L 384 384 Z M 80 400 Q 81 385 96 384 Q 111 385 112 400 Q 111 415 96 416 Q 81 415 80 400 L 80 400 Z M 192 384 Q 207 385 208 400 Q 207 415 192 416 Q 177 415 176 400 Q 177 385 192 384 L 192 384 Z M 272 400 Q 273 385 288 384 Q 303 385 304 400 Q 303 415 288 416 Q 273 415 272 400 L 272 400 Z" />
</svg>