<svg xmlns="http://www.w3.org/2000/svg" viewBox="0 0 512 512">
  <path d="M 256 16 Q 321 17 376 48 L 376 48 L 376 48 Q 431 80 464 136 Q 496 193 496 256 Q 496 319 464 376 Q 431 432 376 464 Q 321 495 256 496 Q 191 495 136 464 Q 81 432 48 376 Q 16 319 16 256 Q 16 193 48 136 Q 81 80 136 48 Q 191 17 256 16 L 256 16 Z M 256 512 Q 326 511 384 478 L 384 478 L 384 478 Q 442 444 478 384 Q 512 323 512 256 Q 512 189 478 128 Q 442 68 384 34 Q 326 1 256 0 Q 186 1 128 34 Q 70 68 34 128 Q 0 189 0 256 Q 0 323 34 384 Q 70 444 128 478 Q 186 511 256 512 L 256 512 Z M 207 124 L 204 119 L 207 124 L 204 119 L 198 120 L 198 120 L 126 136 L 126 136 L 120 138 L 120 138 L 120 144 L 120 144 L 120 160 L 120 160 Q 120 160 120 160 Q 120 160 120 160 Q 121 225 152 277 Q 183 329 235 360 Q 287 391 352 392 L 368 392 L 374 392 L 376 386 L 376 386 L 392 314 L 392 314 L 393 308 L 393 308 L 388 305 L 388 305 L 316 265 L 316 265 L 310 262 L 310 262 L 306 267 L 306 267 L 276 304 L 276 304 Q 233 279 208 236 L 245 206 L 245 206 L 250 202 L 250 202 L 247 196 L 247 196 L 207 124 L 207 124 Z M 136 160 L 136 150 L 136 160 L 136 150 L 196 137 L 196 137 L 230 198 L 230 198 L 193 227 L 193 227 L 188 231 L 188 231 L 191 237 L 191 237 Q 220 292 275 321 L 281 324 L 281 324 L 285 319 L 285 319 L 314 282 L 314 282 L 375 316 L 375 316 L 362 376 L 362 376 L 352 376 L 352 376 Q 260 374 199 313 Q 138 252 136 160 Q 136 160 136 160 Q 136 160 136 160 L 136 160 Z" />
</svg>