<svg xmlns="http://www.w3.org/2000/svg" viewBox="0 0 640 448">
  <path d="M 8 0 L 0 0 L 8 0 L 0 0 L 0 8 L 0 8 L 0 72 L 0 72 L 0 80 L 0 80 L 16 80 L 16 80 L 16 72 L 16 72 L 16 16 L 16 16 L 184 16 L 184 16 L 184 432 L 184 432 L 104 432 L 96 432 L 96 448 L 96 448 L 104 448 L 288 448 L 288 432 L 288 432 L 280 432 L 200 432 L 200 16 L 200 16 L 368 16 L 368 16 L 368 72 L 368 72 L 368 80 L 368 80 L 384 80 L 384 80 L 384 72 L 384 72 L 384 8 L 384 8 L 384 0 L 384 0 L 376 0 L 8 0 Z M 328 192 L 320 192 L 328 192 L 320 192 L 320 200 L 320 200 L 320 264 L 320 264 L 320 272 L 320 272 L 336 272 L 336 272 L 336 264 L 336 264 L 336 208 L 336 208 L 472 208 L 472 208 L 472 432 L 472 432 L 392 432 L 384 432 L 384 448 L 384 448 L 392 448 L 576 448 L 576 432 L 576 432 L 568 432 L 488 432 L 488 208 L 488 208 L 624 208 L 624 208 L 624 264 L 624 264 L 624 272 L 624 272 L 640 272 L 640 272 L 640 264 L 640 264 L 640 200 L 640 200 L 640 192 L 640 192 L 632 192 L 328 192 Z" />
</svg>