<svg xmlns="http://www.w3.org/2000/svg" viewBox="0 0 512 512">
  <path d="M 243.2 102.4 L 328 102.4 L 335.2 140 Q 346.4 130.4 357.6 120.8 L 354.4 102.4 L 414.4 102.4 L 424.8 154.4 Q 427.2 152 429.6 149.6 L 429.6 149.6 Q 431.2 148.8 432.8 147.2 Q 433.6 146.4 435.2 144.8 Q 444 152.8 452 160 L 435.2 76.8 L 339.2 76.8 Q 339.2 76.8 339.2 76.8 Q 339.2 76.8 338.4 76.8 L 230.4 76.8 L 230.4 76.8 L 230.4 76.8 L 121.6 76.8 Q 121.6 76.8 121.6 76.8 Q 121.6 76.8 121.6 76.8 L 25.6 76.8 L 4.8 179.2 L 0 204.8 L 26.4 204.8 L 27.2 204.8 L 52.8 204.8 L 102.4 204.8 L 102.4 204.8 L 230.4 204.8 L 273.6 204.8 Q 280.8 196 288 187.2 Q 288.8 186.4 289.6 184.8 Q 292 182.4 295.2 179.2 L 243.2 179.2 L 243.2 102.4 L 243.2 102.4 Z M 269.6 409.6 Q 259.2 397.6 251.2 384 L 73.6 384 L 56 230.4 L 30.4 230.4 L 32.8 256 L 12.8 256 L 0 256 L 0 281.6 L 12.8 281.6 L 36 281.6 L 51.2 410.4 L 51.2 422.4 L 51.2 435.2 L 76.8 435.2 L 76.8 422.4 L 76.8 409.6 L 269.6 409.6 L 269.6 409.6 Z M 217.6 102.4 L 217.6 179.2 L 117.6 179.2 L 132 102.4 L 217.6 102.4 L 217.6 102.4 Z M 106.4 102.4 L 92 179.2 L 31.2 179.2 L 46.4 102.4 L 106.4 102.4 L 106.4 102.4 Z M 410.4 244 L 429.6 221.6 Q 432 218.4 434.4 216 Q 435.2 216 435.2 216 Q 444 224.8 453.6 236.8 Q 468 255.2 476.8 273.6 Q 486.4 292 486.4 307.2 Q 485.6 351.2 456.8 380 Q 427.2 408.8 384 409.6 Q 340.8 408.8 311.2 380 Q 282.4 351.2 281.6 307.2 Q 281.6 289.6 294.4 265.6 Q 308 242.4 326.4 220.8 Q 344 200.8 358.4 188 Q 372.8 200.8 391.2 221.6 L 410.4 244 L 410.4 244 Z M 358.4 153.6 Q 356.8 154.4 332 177.6 L 332 177.6 Q 307.2 200.8 282.4 236 L 282.4 236 Q 257.6 271.2 256 307.2 Q 257.6 361.6 293.6 397.6 Q 329.6 433.6 384 435.2 Q 438.4 433.6 474.4 397.6 Q 510.4 361.6 512 307.2 Q 510.4 276.8 492 248 Q 473.6 219.2 455.2 199.2 Q 436.8 180 435.2 179.2 Q 435.2 179.2 428 186.4 Q 420.8 192.8 410.4 204.8 Q 401.6 194.4 392.8 186.4 Q 378.4 171.2 368.8 162.4 Q 358.4 154.4 358.4 153.6 L 358.4 153.6 Z M 359.2 236 L 348.8 248 Q 332.8 267.2 323.2 282.4 Q 313.6 298.4 313.6 315.2 Q 314.4 347.2 335.2 365.6 Q 355.2 384 384.8 384 Q 408 384 427.2 371.2 L 427.2 371.2 L 428 371.2 Q 448 356 452.8 332 Q 457.6 308 446.4 285.6 L 446.4 285.6 Q 444 280.8 440 275.2 L 432 264.8 L 422.4 272 L 400 288.8 L 389.6 275.2 Q 386.4 271.2 383.2 267.2 Q 372 252 368.8 248 L 359.2 236 L 359.2 236 Z M 425.6 301.6 Q 431.2 315.2 427.2 328.8 L 427.2 328.8 Q 424 341.6 412.8 349.6 Q 400 358.4 384.8 358.4 Q 364 358.4 352 347.2 Q 340 336.8 339.2 315.2 Q 339.2 307.2 345.6 295.2 Q 350.4 287.2 359.2 276.8 Q 361.6 280.8 365.6 285.6 Q 367.2 288 368.8 290.4 Q 372.8 295.2 376 300 Q 379.2 304 381.6 307.2 L 385.6 312 L 387.2 313.6 L 387.2 314.4 L 387.2 314.4 L 387.2 314.4 L 387.2 314.4 L 387.2 314.4 L 397.6 306.4 L 387.2 314.4 L 395.2 324 L 404.8 316.8 L 425.6 301.6 L 425.6 301.6 Z" />
</svg>