<svg xmlns="http://www.w3.org/2000/svg" viewBox="0 0 489 508">
  <path d="M 254 33 Q 333 16 446 35 L 448 35 L 448 35 L 318 165 L 318 165 Q 267 110 254 33 L 254 33 Z M 252 17 Q 252 17 252 17 Q 244 18 236 20 Q 236 20 236 20 Q 236 20 236 20 Q 215 25 196 32 Q 136 55 97 94 Q 97 94 97 94 Q 97 94 97 94 Q 91 99 86 105 Q 86 105 86 105 Q 86 105 86 105 Q 67 126 53 149 Q 26 194 14 244 Q 14 244 14 244 Q 14 244 14 244 Q 12 252 10 260 Q 10 260 10 260 Q 10 260 10 260 Q 0 314 1 365 Q 3 416 11 458 L 16 480 L 16 480 L 37 483 L 37 483 Q 192 508 290 470 Q 388 431 433 353 Q 477 277 483 194 Q 489 110 475 44 L 470 22 L 470 22 L 449 19 L 449 19 Q 334 0 252 17 L 252 17 Z M 26 262 Q 102 275 157 326 L 27 455 L 27 455 L 27 455 L 27 455 Q 18 414 17 364 Q 16 314 26 262 L 26 262 Z M 38 467 L 168 337 L 38 467 L 168 337 Q 219 392 232 469 Q 153 486 40 467 L 38 467 L 38 467 Z M 248 466 Q 234 384 179 326 L 243 262 L 243 262 L 378 397 L 378 397 Q 341 433 285 455 Q 267 461 248 466 L 248 466 Z M 389 386 L 254 251 L 389 386 L 254 251 L 318 187 L 318 187 Q 375 241 456 256 Q 445 303 419 345 Q 406 367 389 386 L 389 386 Z M 460 240 Q 384 227 329 176 L 459 47 L 459 47 L 459 47 L 459 47 Q 468 88 469 138 Q 470 188 460 240 L 460 240 Z M 30 246 Q 41 199 67 157 Q 80 135 97 116 L 232 251 L 232 251 L 168 315 L 168 315 Q 111 261 30 246 L 30 246 Z M 108 105 Q 145 69 202 47 Q 219 41 238 36 Q 252 118 307 176 L 243 240 L 243 240 L 108 105 L 108 105 Z" />
</svg>