<svg xmlns="http://www.w3.org/2000/svg" viewBox="0 0 512 448">
  <path d="M 128 16 L 128 64 L 128 16 L 128 64 L 128 112 L 128 112 L 496 112 L 496 112 L 496 16 L 496 16 L 128 16 L 128 16 Z M 112 16 L 16 16 L 112 16 L 16 16 L 16 112 L 16 112 L 112 112 L 112 112 L 112 64 L 112 64 L 112 16 L 112 16 Z M 16 128 L 16 432 L 16 128 L 16 432 L 496 432 L 496 432 L 496 128 L 496 128 L 120 128 L 16 128 Z M 0 0 L 16 0 L 0 0 L 512 0 L 512 16 L 512 16 L 512 432 L 512 432 L 512 448 L 512 448 L 496 448 L 0 448 L 0 432 L 0 432 L 0 16 L 0 16 L 0 0 L 0 0 Z" />
</svg>