<svg xmlns="http://www.w3.org/2000/svg" viewBox="0 0 576 512">
  <path d="M 0 272 L 11 283 L 0 272 L 11 283 L 32 304 L 32 304 Q 32 304 32 304 Q 32 304 32 304 Q 32 304 32 304 Q 32 304 32 304 L 229 501 L 229 501 L 240 512 L 240 512 L 251 501 L 251 501 L 501 251 L 501 251 L 512 240 L 512 240 L 501 229 L 501 229 L 283 11 L 283 11 L 272 0 L 272 0 L 261 11 L 261 11 L 158 114 L 158 114 L 54 10 L 54 10 L 48 5 L 48 5 L 37 16 L 37 16 L 42 22 L 42 22 L 146 126 L 146 126 L 11 261 L 11 261 L 0 272 L 0 272 Z M 240 489 L 55 304 L 240 489 L 55 304 L 425 304 L 425 304 L 240 489 L 240 489 Z M 39 288 L 23 272 L 39 288 L 23 272 L 158 137 L 158 137 L 242 222 L 242 222 L 248 227 L 248 227 L 259 216 L 259 216 L 254 210 L 254 210 L 169 126 L 169 126 L 272 23 L 272 23 L 489 240 L 489 240 L 441 288 L 441 288 L 39 288 L 39 288 Z M 470 425 L 512 352 L 470 425 L 512 352 L 554 425 L 554 425 Q 560 436 560 449 Q 559 469 546 482 Q 533 495 513 496 L 511 496 L 511 496 Q 491 495 478 482 Q 465 469 464 449 Q 464 436 470 425 L 470 425 Z M 456 418 Q 448 432 448 449 Q 449 476 467 494 Q 484 511 511 512 L 513 512 L 513 512 Q 540 511 557 494 Q 575 476 576 449 Q 576 432 568 417 L 521 336 L 521 336 L 512 320 L 512 320 L 503 336 L 503 336 L 456 417 L 456 418 Z" />
</svg>