<svg xmlns="http://www.w3.org/2000/svg" viewBox="0 0 633 480">
  <path d="M 32 0 L 64 0 L 32 0 L 212 0 L 221 18 L 221 18 L 292 160 L 292 160 L 320 160 L 320 160 L 320 96 L 320 96 L 320 64 L 320 64 L 384 64 L 384 64 L 384 96 L 384 96 L 384 160 L 384 160 L 448 160 L 448 160 L 448 256 L 448 256 L 512 256 L 512 256 L 512 192 L 512 192 L 512 181 L 512 181 L 519 172 L 519 172 L 583 92 L 583 92 L 633 132 L 633 132 L 576 203 L 576 203 L 576 256 L 576 256 L 576 320 L 576 320 L 576 371 L 576 371 L 631 425 L 631 425 L 585 471 L 585 471 L 521 407 L 521 407 L 512 397 L 512 397 L 512 384 L 512 384 L 512 320 L 512 320 L 469 320 L 469 320 Q 480 342 480 368 Q 479 416 447 447 Q 416 479 368 480 L 112 480 L 112 480 Q 64 479 33 447 Q 1 416 0 368 Q 1 321 32 290 L 32 224 L 32 224 L 32 160 L 32 160 L 32 32 L 32 32 L 32 0 L 32 0 Z M 112 320 Q 92 321 78 334 L 78 334 L 78 334 Q 65 348 64 368 Q 65 388 78 402 Q 92 415 112 416 L 368 416 L 368 416 Q 388 415 402 402 Q 415 388 416 368 Q 415 348 402 334 Q 388 321 368 320 L 112 320 L 112 320 Z M 172 64 L 96 64 L 172 64 L 96 64 L 96 160 L 96 160 L 220 160 L 220 160 L 172 64 L 172 64 Z M 120 344 Q 142 346 144 368 Q 142 390 120 392 Q 98 390 96 368 Q 98 346 120 344 L 120 344 Z M 336 368 Q 338 346 360 344 Q 382 346 384 368 Q 382 390 360 392 Q 338 390 336 368 L 336 368 Z M 280 344 Q 302 346 304 368 Q 302 390 280 392 Q 258 390 256 368 Q 258 346 280 344 L 280 344 Z M 176 368 Q 178 346 200 344 Q 222 346 224 368 Q 222 390 200 392 Q 178 390 176 368 L 176 368 Z" />
</svg>