<svg xmlns="http://www.w3.org/2000/svg" viewBox="0 0 472 512">
  <path d="M 16 16 L 16 496 L 16 16 L 16 496 L 400 496 L 400 496 L 400 16 L 400 16 L 16 16 L 16 16 Z M 0 0 L 16 0 L 0 0 L 416 0 L 416 16 L 416 16 L 416 496 L 416 496 L 416 512 L 416 512 L 400 512 L 0 512 L 0 496 L 0 496 L 0 16 L 0 16 L 0 0 L 0 0 Z M 472 80 L 472 144 L 472 80 L 472 144 L 472 152 L 472 152 L 456 152 L 456 152 L 456 144 L 456 144 L 456 80 L 456 80 L 456 72 L 456 72 L 472 72 L 472 72 L 472 80 L 472 80 Z M 472 200 L 472 208 L 472 200 L 472 208 L 472 272 L 472 272 L 472 280 L 472 280 L 456 280 L 456 280 L 456 272 L 456 272 L 456 208 L 456 208 L 456 200 L 456 200 L 472 200 L 472 200 Z M 472 336 L 472 400 L 472 336 L 472 400 L 472 408 L 472 408 L 456 408 L 456 408 L 456 400 L 456 400 L 456 336 L 456 336 L 456 328 L 456 328 L 472 328 L 472 328 L 472 336 L 472 336 Z M 118 368 L 101 368 L 118 368 L 101 368 L 128 288 L 128 288 L 288 288 L 288 288 L 315 368 L 315 368 L 298 368 L 298 368 L 277 304 L 277 304 L 140 304 L 140 304 L 118 368 L 118 368 Z M 256 192 Q 255 165 232 150 Q 208 138 184 150 Q 161 165 160 192 Q 161 219 184 234 Q 208 246 232 234 Q 255 219 256 192 L 256 192 Z M 144 192 Q 145 156 176 137 Q 208 119 240 137 Q 271 156 272 192 Q 271 228 240 247 Q 208 265 176 247 Q 145 228 144 192 L 144 192 Z" />
</svg>