<svg xmlns="http://www.w3.org/2000/svg" viewBox="0 0 640 384">
  <path d="M 176 160 Q 175 165 184 173 Q 193 182 213 190 Q 254 207 320 208 Q 355 208 385 202 Q 384 199 384 195 Q 384 176 397 163 L 400 160 L 400 160 L 397 157 L 397 157 Q 394 154 392 151 Q 354 160 320 160 Q 284 160 243 150 Q 209 141 181 121 Q 176 139 176 160 L 176 160 Z M 384 125 Q 384 106 397 93 L 397 93 L 397 93 Q 410 80 429 80 Q 435 80 441 82 Q 421 52 390 34 Q 358 16 320 16 Q 274 17 239 41 Q 204 65 187 105 Q 212 125 248 134 Q 286 144 320 144 Q 350 144 385 136 Q 384 131 384 125 L 384 125 Z M 320 0 Q 369 1 408 26 L 408 26 L 408 26 Q 446 52 466 94 L 467 93 L 467 93 Q 480 80 499 80 Q 518 80 531 93 Q 544 106 544 125 Q 544 144 531 157 L 528 160 L 528 160 L 531 163 L 531 163 Q 540 172 543 185 L 635 222 L 635 222 L 640 224 L 640 224 L 640 229 L 640 229 L 640 256 L 640 256 Q 640 283 615 306 Q 590 329 546 347 Q 502 364 445 374 Q 387 384 320 384 Q 253 384 195 374 Q 138 364 94 347 Q 50 329 25 306 Q 0 283 0 256 L 0 229 L 0 229 L 0 224 L 0 224 L 5 222 L 5 222 L 160 160 L 160 160 Q 162 92 207 47 Q 252 2 320 0 L 320 0 Z M 499 240 Q 480 240 467 227 L 464 224 L 464 224 L 461 227 L 461 227 Q 448 240 429 240 Q 403 239 390 218 Q 358 224 320 224 Q 252 223 207 205 Q 185 196 173 185 Q 168 180 165 175 L 16 235 L 16 235 L 16 256 L 16 256 Q 15 274 36 294 Q 58 315 100 332 Q 142 349 198 358 Q 254 368 320 368 Q 386 368 442 358 Q 498 349 540 332 Q 582 315 604 294 Q 625 274 624 256 L 624 235 L 624 235 L 543 203 L 543 203 Q 540 219 528 229 Q 516 240 499 240 L 499 240 Z M 429 96 Q 417 96 409 105 L 409 105 L 409 105 Q 400 113 400 125 Q 400 137 409 146 L 417 154 L 417 154 L 423 160 L 423 160 L 417 166 L 417 166 L 409 174 L 409 174 Q 400 183 400 195 Q 400 207 409 216 Q 417 224 429 224 Q 441 224 450 216 L 458 207 L 458 207 L 464 201 L 464 201 L 470 207 L 470 207 L 478 216 L 478 216 Q 487 224 499 224 Q 511 224 520 216 Q 528 207 528 195 Q 528 183 520 174 L 511 166 L 511 166 L 506 160 L 506 160 L 511 154 L 511 154 L 520 146 L 520 146 Q 528 137 528 125 Q 528 113 520 105 Q 511 96 499 96 Q 487 96 478 105 L 470 113 L 470 113 L 464 119 L 464 119 L 458 113 L 458 113 L 450 105 L 450 105 Q 441 96 429 96 L 429 96 Z M 470 134 L 490 154 L 470 134 L 490 154 L 496 160 L 496 160 L 490 166 L 490 166 L 470 187 L 470 187 L 464 192 L 464 192 L 458 187 L 458 187 L 437 166 L 437 166 L 432 160 L 432 160 L 437 154 L 437 154 L 458 134 L 458 134 L 464 128 L 464 128 L 470 134 L 470 134 Z M 455 160 L 464 170 L 455 160 L 464 170 L 474 160 L 474 160 L 464 151 L 464 151 L 455 160 L 455 160 Z" />
</svg>