<svg xmlns="http://www.w3.org/2000/svg" viewBox="0 0 640 512">
  <path d="M 128 128 Q 128 102 141 80 L 141 80 L 141 80 Q 154 58 176 45 Q 199 32 224 32 Q 249 32 272 45 Q 294 58 307 80 Q 320 102 320 128 Q 320 154 307 176 Q 294 198 272 211 Q 249 224 224 224 Q 199 224 176 211 Q 154 198 141 176 Q 128 154 128 128 L 128 128 Z M 352 128 Q 352 93 335 64 L 335 64 L 335 64 Q 318 35 288 17 Q 258 0 224 0 Q 190 0 160 17 Q 130 35 113 64 Q 96 93 96 128 Q 96 163 113 192 Q 130 221 160 239 Q 190 256 224 256 Q 258 256 288 239 Q 318 221 335 192 Q 352 163 352 128 L 352 128 Z M 43 480 L 88 336 L 43 480 L 88 336 L 323 336 L 323 336 Q 321 320 320 304 L 64 304 L 64 304 L 10 480 L 10 480 L 0 512 L 0 512 L 34 512 L 426 512 Q 406 498 390 480 L 43 480 L 43 480 Z M 608 302 Q 606 352 582 398 L 582 398 L 582 398 Q 558 444 512 470 L 512 265 L 512 265 L 608 302 L 608 302 Z M 384 302 L 480 265 L 384 302 L 480 265 L 480 470 L 480 470 Q 434 444 410 398 Q 386 352 384 302 L 384 302 Z M 496 512 Q 568 486 604 424 L 604 424 L 604 424 Q 640 363 640 296 L 640 280 L 640 280 L 496 224 L 496 224 L 352 280 L 352 280 L 352 296 L 352 296 Q 352 363 388 424 Q 424 486 496 512 L 496 512 Z" />
</svg>