<svg xmlns="http://www.w3.org/2000/svg" viewBox="0 0 256 512">
  <path d="M 72 0 L 64 0 L 72 0 L 64 0 L 64 8 L 64 8 L 64 92 L 64 92 Q 58 94 52 97 L 39 103 L 39 103 Q 2 122 0 164 Q 1 192 19 211 Q 1 229 0 256 Q 1 286 22 304 Q 1 322 0 352 Q 1 382 22 400 Q 1 418 0 448 L 0 504 L 0 504 L 0 512 L 0 512 L 8 512 L 256 512 L 256 504 L 256 504 L 256 448 L 256 448 Q 255 418 234 400 Q 255 382 256 352 Q 255 322 234 304 Q 255 286 256 256 Q 255 229 237 211 Q 255 192 256 164 Q 254 122 217 103 L 204 97 L 204 97 Q 198 94 192 92 L 192 8 L 192 8 L 192 0 L 192 0 L 184 0 L 72 0 Z M 165 104 Q 182 104 197 111 L 210 117 L 210 117 Q 239 132 240 164 Q 239 190 220 205 L 212 211 L 212 211 L 221 217 L 221 217 Q 239 232 240 256 Q 239 283 217 297 L 205 304 L 205 304 L 217 311 L 217 311 Q 239 325 240 352 Q 239 379 217 393 L 205 400 L 205 400 L 217 407 L 217 407 Q 239 421 240 448 L 240 496 L 240 496 L 16 496 L 16 496 L 16 448 L 16 448 Q 17 421 39 407 L 51 400 L 51 400 L 39 393 L 39 393 Q 17 379 16 352 Q 17 325 39 311 L 51 304 L 51 304 L 39 297 L 39 297 Q 17 283 16 256 Q 17 231 35 217 L 44 211 L 44 211 L 36 205 L 36 205 Q 17 190 16 164 Q 17 132 46 117 L 59 111 L 59 111 Q 74 104 91 104 L 165 104 L 165 104 Z M 165 88 L 91 88 L 165 88 L 80 88 L 80 16 L 80 16 L 176 16 L 176 16 L 176 88 L 176 88 L 165 88 L 165 88 Z M 64 208 L 64 224 L 64 208 L 64 224 L 192 224 L 192 224 L 192 208 L 192 208 L 64 208 L 64 208 Z M 192 368 L 64 368 L 192 368 L 64 368 L 64 384 L 64 384 L 192 384 L 192 384 L 192 368 L 192 368 Z" />
</svg>