<svg xmlns="http://www.w3.org/2000/svg" viewBox="0 0 504 512">
  <path d="M 16 496 L 112 496 L 16 496 L 112 496 L 112 512 L 112 512 L 16 512 L 0 512 L 0 496 L 0 496 L 0 16 L 0 16 L 0 0 L 0 0 L 16 0 L 224 0 L 384 160 L 384 160 L 384 304 L 384 304 L 368 304 L 368 304 L 368 176 L 368 176 L 216 176 L 208 176 L 208 168 L 208 168 L 208 16 L 208 16 L 16 16 L 16 16 L 16 496 L 16 496 Z M 361 160 L 224 23 L 361 160 L 224 23 L 224 160 L 224 160 L 361 160 L 361 160 Z M 408 368 L 408 376 L 408 368 L 408 376 L 408 504 L 408 504 L 408 512 L 408 512 L 392 512 L 392 512 L 392 504 L 392 504 L 392 398 L 392 398 L 359 460 L 359 460 L 352 473 L 352 473 L 345 460 L 345 460 L 312 400 L 312 400 L 312 504 L 312 504 L 312 512 L 312 512 L 296 512 L 296 512 L 296 504 L 296 504 L 296 376 L 296 376 L 296 368 L 296 368 L 304 368 L 313 368 L 315 372 L 315 372 L 352 439 L 352 439 L 387 372 L 387 372 L 390 368 L 390 368 L 394 368 L 408 368 Z M 184 368 L 184 376 L 184 368 L 184 376 Q 184 390 192 401 L 208 426 L 208 426 L 225 401 L 225 401 Q 232 390 232 376 L 232 368 L 232 368 L 248 368 L 248 368 L 248 376 L 248 376 Q 248 394 238 410 L 218 440 L 218 440 L 238 470 L 238 470 Q 248 486 248 504 L 248 512 L 248 512 L 232 512 L 232 512 L 232 504 L 232 504 Q 232 490 225 479 L 208 454 L 208 454 L 192 479 L 192 479 Q 184 490 184 504 L 184 512 L 184 512 L 168 512 L 168 512 L 168 504 L 168 504 Q 168 486 178 470 L 198 440 L 198 440 L 178 410 L 178 410 Q 168 394 168 376 L 168 368 L 168 368 L 184 368 L 184 368 Z M 456 512 L 456 504 L 456 512 L 456 504 L 456 376 L 456 376 L 456 368 L 456 368 L 472 368 L 472 368 L 472 376 L 472 376 L 472 496 L 472 496 L 496 496 L 504 496 L 504 512 L 504 512 L 496 512 L 456 512 Z" />
</svg>