<svg xmlns="http://www.w3.org/2000/svg" viewBox="0 0 448 512">
  <path d="M 279 30 L 212 112 L 279 30 L 212 112 L 113 112 L 113 112 Q 120 70 150 44 Q 181 17 224 16 Q 254 16 279 30 L 279 30 Z M 292 39 Q 321 61 331 96 L 284 96 L 284 96 L 266 72 L 266 72 L 292 39 L 292 39 Z M 222 125 L 255 85 L 222 125 L 255 85 L 274 109 L 274 109 L 276 112 L 276 112 L 280 112 L 335 112 Q 336 120 336 128 L 336 136 L 336 136 L 336 144 L 336 144 Q 335 192 303 223 Q 272 255 224 256 Q 176 255 145 223 Q 113 192 112 144 L 112 136 L 112 136 L 112 128 L 112 128 L 216 128 L 220 128 L 222 125 L 222 125 Z M 224 0 Q 170 1 133 37 L 133 37 L 133 37 Q 97 74 96 128 L 96 136 L 96 136 L 96 144 L 96 144 L 96 180 L 96 180 L 35 226 L 35 226 L 32 228 L 32 228 L 32 232 L 32 232 L 32 264 L 32 264 L 32 272 L 32 272 L 40 272 L 128 272 L 128 256 L 128 256 L 120 256 L 48 256 L 48 236 L 48 236 L 106 193 L 106 193 Q 121 228 152 250 Q 183 271 224 272 Q 265 271 296 250 Q 327 228 342 193 L 400 236 L 400 236 L 400 256 L 400 256 L 328 256 L 320 256 L 320 272 L 320 272 L 328 272 L 416 272 L 416 264 L 416 264 L 416 232 L 416 232 L 416 228 L 416 228 L 413 226 L 413 226 L 352 180 L 352 180 L 352 144 L 352 144 L 352 136 L 352 136 L 352 128 L 352 128 Q 351 74 315 37 Q 278 1 224 0 L 224 0 Z M 22 496 L 76 320 L 22 496 L 76 320 L 136 320 L 136 320 L 136 369 L 136 369 Q 119 372 107 385 Q 96 398 96 416 Q 97 436 110 450 Q 124 463 144 464 Q 164 463 178 450 Q 191 436 192 416 Q 192 398 181 385 Q 169 372 152 369 L 152 320 L 152 320 L 296 320 L 296 320 L 296 369 L 296 369 Q 279 372 267 385 Q 256 398 256 416 L 256 456 L 256 456 L 256 464 L 256 464 L 264 464 L 288 464 L 288 448 L 288 448 L 280 448 L 272 448 L 272 416 L 272 416 Q 272 402 281 393 Q 290 384 304 384 Q 318 384 327 393 Q 336 402 336 416 L 336 448 L 336 448 L 328 448 L 320 448 L 320 464 L 320 464 L 328 464 L 352 464 L 352 456 L 352 456 L 352 416 L 352 416 Q 352 398 341 385 Q 329 372 312 369 L 312 320 L 312 320 L 372 320 L 372 320 L 426 496 L 426 496 L 22 496 L 22 496 Z M 176 416 Q 176 430 167 439 L 167 439 L 167 439 Q 158 448 144 448 Q 130 448 121 439 Q 112 430 112 416 Q 112 402 121 393 Q 130 384 144 384 Q 158 384 167 393 Q 176 402 176 416 L 176 416 Z M 64 304 L 5 496 L 64 304 L 5 496 L 0 512 L 0 512 L 17 512 L 448 512 L 443 496 L 443 496 L 384 304 L 384 304 L 64 304 L 64 304 Z" />
</svg>