<svg xmlns="http://www.w3.org/2000/svg" viewBox="0 0 448 448">
  <path d="M 352 416 L 352 32 L 352 416 L 352 32 L 416 32 L 416 32 L 416 416 L 416 416 L 352 416 L 352 416 Z M 320 448 L 352 448 L 320 448 L 448 448 L 448 416 L 448 416 L 448 32 L 448 32 L 448 0 L 448 0 L 416 0 L 320 0 L 320 32 L 320 32 L 320 416 L 320 416 L 320 448 L 320 448 Z M 96 352 L 32 352 L 96 352 L 32 352 L 32 32 L 32 32 L 96 32 L 96 32 L 96 352 L 96 352 Z M 32 384 L 96 384 L 32 384 L 128 384 L 128 352 L 128 352 L 128 32 L 128 32 L 128 0 L 128 0 L 96 0 L 0 0 L 0 32 L 0 32 L 0 352 L 0 352 L 0 384 L 0 384 L 32 384 L 32 384 Z M 256 224 L 192 224 L 256 224 L 192 224 L 192 32 L 192 32 L 256 32 L 256 32 L 256 224 L 256 224 Z M 192 256 L 256 256 L 192 256 L 288 256 L 288 224 L 288 224 L 288 32 L 288 32 L 288 0 L 288 0 L 256 0 L 160 0 L 160 32 L 160 32 L 160 224 L 160 224 L 160 256 L 160 256 L 192 256 L 192 256 Z" />
</svg>