<svg xmlns="http://www.w3.org/2000/svg" viewBox="0 0 512 512">
  <path d="M 448 512 Q 323 511 222 451 L 222 451 L 222 451 Q 121 391 61 290 L 61 290 L 61 290 Q 1 189 0 64 L 0 32 L 0 32 L 144 0 L 144 0 L 224 144 L 224 144 L 140 211 L 140 211 Q 196 316 301 372 L 368 288 L 368 288 L 512 368 L 512 368 L 480 512 L 480 512 L 448 512 L 448 512 Z M 16 64 Q 16 64 16 64 L 16 64 L 16 64 Q 16 64 16 64 Q 17 185 75 282 Q 133 379 230 437 Q 327 495 448 496 L 467 496 L 467 496 L 494 376 L 494 376 L 372 309 L 372 309 L 313 382 L 313 382 L 305 392 L 305 392 L 293 386 L 293 386 Q 185 327 126 219 L 120 207 L 120 207 L 130 199 L 130 199 L 203 140 L 203 140 L 136 18 L 136 18 L 16 45 L 16 45 L 16 64 L 16 64 Z M 416 16 L 416 24 L 416 16 L 416 24 L 416 104 L 416 104 L 496 104 L 504 104 L 504 120 L 504 120 L 496 120 L 416 120 L 416 200 L 416 200 L 416 208 L 416 208 L 400 208 L 400 208 L 400 200 L 400 200 L 400 120 L 400 120 L 320 120 L 312 120 L 312 104 L 312 104 L 320 104 L 400 104 L 400 24 L 400 24 L 400 16 L 400 16 L 416 16 L 416 16 Z" />
</svg>