<svg xmlns="http://www.w3.org/2000/svg" viewBox="0 0 576 512">
  <path d="M 368 16 L 16 16 L 368 16 L 16 16 L 16 496 L 16 496 L 144 496 L 144 496 L 144 384 L 144 384 L 144 368 L 144 368 L 160 368 L 240 368 L 240 384 L 240 384 L 240 496 L 240 496 L 342 496 L 342 496 Q 352 505 362 512 L 240 512 L 0 512 L 0 496 L 0 496 L 0 16 L 0 16 L 0 0 L 0 0 L 16 0 L 384 0 L 384 16 L 384 16 L 384 208 L 384 208 L 368 215 L 368 215 L 368 16 L 368 16 Z M 257 312 L 240 312 L 257 312 L 232 312 L 232 304 L 232 304 L 232 240 L 232 240 L 232 232 L 232 232 L 240 232 L 256 232 L 256 248 L 256 248 L 248 248 L 248 248 L 248 296 L 248 296 L 256 296 L 256 296 L 256 304 L 256 304 Q 256 305 256 307 Q 256 307 256 307 Q 256 309 257 312 L 257 312 Z M 224 496 L 224 384 L 224 496 L 224 384 L 160 384 L 160 384 L 160 496 L 160 496 L 224 496 L 224 496 Z M 72 232 L 80 232 L 72 232 L 152 232 L 152 240 L 152 240 L 152 304 L 152 304 L 152 312 L 152 312 L 144 312 L 72 312 L 72 304 L 72 304 L 72 240 L 72 240 L 72 232 L 72 232 Z M 88 248 L 88 296 L 88 248 L 88 296 L 136 296 L 136 296 L 136 248 L 136 248 L 88 248 L 88 248 Z M 72 104 L 80 104 L 72 104 L 152 104 L 152 112 L 152 112 L 152 176 L 152 176 L 152 184 L 152 184 L 144 184 L 72 184 L 72 176 L 72 176 L 72 112 L 72 112 L 72 104 L 72 104 Z M 88 120 L 88 168 L 88 120 L 88 168 L 136 168 L 136 168 L 136 120 L 136 120 L 88 120 L 88 120 Z M 240 104 L 304 104 L 240 104 L 312 104 L 312 112 L 312 112 L 312 176 L 312 176 L 312 184 L 312 184 L 304 184 L 232 184 L 232 176 L 232 176 L 232 112 L 232 112 L 232 104 L 232 104 L 240 104 L 240 104 Z M 248 168 L 296 168 L 248 168 L 296 168 L 296 120 L 296 120 L 248 120 L 248 120 L 248 168 L 248 168 Z M 560 291 L 440 244 L 560 291 L 440 244 L 440 492 L 440 492 Q 499 465 530 410 Q 560 356 560 296 L 560 291 L 560 291 Z M 304 291 L 304 296 L 304 291 L 304 296 Q 304 356 334 410 Q 365 465 424 492 L 424 244 L 424 244 L 304 291 L 304 291 Z M 432 512 Q 360 486 324 424 L 324 424 L 324 424 Q 288 363 288 296 L 288 280 L 288 280 L 432 224 L 432 224 L 576 280 L 576 280 L 576 296 L 576 296 Q 576 363 540 424 Q 504 486 432 512 L 432 512 Z" />
</svg>