<svg xmlns="http://www.w3.org/2000/svg" viewBox="0 0 640 512">
  <path d="M 16 5 L 10 0 L 16 5 L 10 0 L 0 13 L 0 13 L 6 18 L 6 18 L 624 507 L 624 507 L 630 512 L 630 512 L 640 500 L 640 500 L 634 495 L 634 495 L 16 5 L 16 5 Z M 608 256 Q 593 296 554 349 L 541 339 L 541 339 Q 576 293 591 256 Q 579 229 557 194 Q 534 160 501 128 Q 466 93 421 71 Q 375 49 320 48 Q 258 49 209 76 L 195 66 L 195 66 Q 250 33 320 32 Q 399 34 458 73 Q 518 113 555 165 Q 593 217 608 256 L 608 256 Z M 86 163 L 99 173 L 86 163 L 99 173 Q 64 219 49 256 Q 61 283 83 318 Q 106 352 139 385 Q 174 419 219 441 Q 265 463 320 464 Q 382 463 431 436 L 445 447 L 445 447 Q 391 479 320 480 Q 241 478 182 439 Q 123 399 85 347 Q 47 295 32 256 Q 47 216 86 163 L 86 163 Z M 320 368 Q 332 368 343 366 L 325 352 L 325 352 Q 323 352 320 352 Q 284 351 258 329 Q 232 307 226 273 L 208 259 L 208 259 Q 210 306 242 336 Q 273 367 320 368 L 320 368 Z M 320 144 Q 308 144 297 146 L 315 160 L 315 160 Q 317 160 320 160 Q 356 161 382 183 Q 408 205 415 239 L 432 253 L 432 253 Q 430 206 398 176 Q 367 145 320 144 L 320 144 Z" />
</svg>