<svg xmlns="http://www.w3.org/2000/svg" viewBox="0 0 512 521">
  <path d="M 256 9 L 256 17 L 256 9 L 256 17 Q 257 65 293 93 L 309 104 L 309 104 Q 351 137 352 193 L 352 201 L 352 201 L 336 201 L 336 201 L 336 193 L 336 193 Q 335 145 299 117 L 283 106 L 283 106 Q 241 73 240 17 L 240 9 L 240 9 L 256 9 L 256 9 Z M 128 169 L 256 265 L 128 169 L 256 265 L 272 265 L 512 265 L 512 281 L 512 281 L 512 505 L 512 505 L 512 521 L 512 521 L 496 521 L 0 521 L 0 505 L 0 505 L 0 345 L 0 345 L 0 265 L 0 265 L 0 185 L 0 185 L 0 169 L 0 169 L 16 169 L 128 169 Z M 272 281 L 256 281 L 272 281 L 16 281 L 16 345 L 16 345 L 16 505 L 16 505 L 496 505 L 496 505 L 496 281 L 496 281 L 272 281 L 272 281 Z M 229 265 L 123 185 L 229 265 L 123 185 L 16 185 L 16 185 L 16 265 L 16 265 L 229 265 L 229 265 Z M 384 17 Q 385 65 421 93 L 437 104 L 437 104 Q 479 137 480 193 L 480 201 L 480 201 L 464 201 L 464 201 L 464 193 L 464 193 Q 463 145 427 117 L 411 106 L 411 106 Q 369 73 368 17 L 368 9 L 368 9 L 384 9 L 384 9 L 384 17 L 384 17 Z M 120 329 L 120 337 L 120 329 L 120 337 L 120 449 L 120 449 L 120 457 L 120 457 L 104 457 L 104 457 L 104 449 L 104 449 L 104 337 L 104 337 L 104 329 L 104 329 L 120 329 L 120 329 Z M 216 329 L 216 337 L 216 329 L 216 337 L 216 449 L 216 449 L 216 457 L 216 457 L 200 457 L 200 457 L 200 449 L 200 449 L 200 337 L 200 337 L 200 329 L 200 329 L 216 329 L 216 329 Z M 312 329 L 312 337 L 312 329 L 312 337 L 312 449 L 312 449 L 312 457 L 312 457 L 296 457 L 296 457 L 296 449 L 296 449 L 296 337 L 296 337 L 296 329 L 296 329 L 312 329 L 312 329 Z M 408 329 L 408 337 L 408 329 L 408 337 L 408 449 L 408 449 L 408 457 L 408 457 L 392 457 L 392 457 L 392 449 L 392 449 L 392 337 L 392 337 L 392 329 L 392 329 L 408 329 L 408 329 Z M 112 73 Q 111 46 88 31 Q 64 19 40 31 Q 17 46 16 73 Q 17 100 40 115 Q 64 127 88 115 Q 111 100 112 73 L 112 73 Z M 0 73 Q 1 37 32 18 Q 64 0 96 18 Q 127 37 128 73 Q 127 109 96 128 Q 64 146 32 128 Q 1 109 0 73 L 0 73 Z" />
</svg>