<svg xmlns="http://www.w3.org/2000/svg" viewBox="0 0 572 501">
  <path d="M 118 92 L 79 0 L 118 92 L 79 0 L 65 6 L 65 6 L 103 96 L 103 96 Q 75 109 66 139 L 37 139 L 37 139 L 15 95 L 15 95 L 1 103 L 1 103 L 25 151 L 25 151 L 27 155 L 27 155 L 32 155 L 64 155 Q 64 155 64 155 Q 64 155 64 155 L 64 214 L 64 214 L 12 244 L 12 244 L 9 246 L 9 246 L 8 250 L 8 250 L 0 306 L 0 306 L 16 308 L 16 308 L 23 256 L 23 256 L 65 232 L 65 232 Q 70 254 87 268 Q 104 283 128 283 Q 152 283 169 268 Q 186 254 191 232 L 233 256 L 233 256 L 240 308 L 240 308 L 256 306 L 256 306 L 248 250 L 248 250 L 247 246 L 247 246 L 244 244 L 244 244 L 192 214 L 192 214 L 192 155 L 192 155 Q 192 155 192 155 Q 192 155 192 155 L 224 155 L 229 155 L 231 151 L 231 151 L 255 103 L 255 103 L 241 95 L 241 95 L 219 139 L 219 139 L 190 139 L 190 139 Q 181 109 153 96 L 191 6 L 191 6 L 177 0 L 177 0 L 138 92 L 138 92 Q 133 91 128 91 Q 123 91 118 92 L 118 92 Z M 176 155 L 176 219 L 176 155 L 176 219 Q 175 239 162 253 Q 148 266 128 267 Q 108 266 94 253 Q 81 239 80 219 L 80 155 L 80 155 Q 81 135 94 121 Q 108 108 128 107 Q 148 108 162 121 Q 175 135 176 155 L 176 155 Z M 446 386 Q 435 404 416 408 L 416 408 L 416 408 Q 398 413 380 404 Q 362 393 358 375 Q 353 356 362 338 L 394 283 L 394 283 Q 405 265 423 260 Q 442 255 460 265 Q 477 276 482 294 Q 487 313 478 331 L 446 386 L 446 386 Z M 381 275 Q 381 275 381 275 L 381 275 L 381 275 Q 381 275 381 275 L 351 326 L 351 326 L 291 326 L 287 326 L 285 329 L 285 329 L 250 373 L 250 373 L 262 383 L 262 383 L 295 342 L 295 342 L 343 342 L 343 342 Q 336 364 344 385 Q 352 405 372 418 Q 393 429 414 425 Q 436 422 452 405 L 476 446 L 476 446 L 456 495 L 456 495 L 471 501 L 471 501 L 492 449 L 492 449 L 494 445 L 494 445 L 492 442 L 492 442 L 462 390 L 462 390 L 491 339 L 491 339 Q 491 339 491 339 Q 491 339 491 339 L 519 355 L 519 355 L 523 357 L 523 357 L 528 354 L 528 354 L 572 325 L 572 325 L 564 311 L 564 311 L 523 338 L 523 338 L 498 324 L 498 324 Q 505 293 487 268 L 565 209 L 565 209 L 556 196 L 556 196 L 476 257 L 476 257 Q 472 254 468 251 Q 464 249 459 247 L 471 148 L 471 148 L 456 146 L 456 146 L 444 243 L 444 243 Q 413 240 390 262 L 365 247 L 365 247 L 368 199 L 368 199 L 352 198 L 352 198 L 349 251 L 349 251 L 348 256 L 348 256 L 353 259 L 353 259 L 380 275 L 381 275 Z" />
</svg>