<svg xmlns="http://www.w3.org/2000/svg" viewBox="0 0 512 461">
  <path d="M 320 205 L 320 133 L 320 205 L 320 133 Q 256 107 192 133 L 192 205 L 192 205 L 32 224 L 32 224 L 0 121 L 0 121 Q 15 99 50 71 Q 84 44 135 22 Q 187 1 256 0 Q 325 1 377 22 Q 428 44 462 71 Q 497 99 512 121 L 480 224 L 480 224 L 320 205 L 320 205 Z M 160 133 L 160 112 L 160 133 L 160 112 L 180 103 L 180 103 Q 256 73 332 103 L 352 112 L 352 112 L 352 133 L 352 133 L 352 177 L 352 177 L 457 189 L 457 189 L 476 128 L 476 128 Q 451 97 395 66 Q 339 34 256 32 Q 173 34 117 66 Q 61 97 36 128 L 55 189 L 55 189 L 160 177 L 160 177 L 160 133 L 160 133 Z M 56 259 L 120 259 L 56 259 L 133 259 L 133 272 L 133 272 L 133 336 L 133 336 L 133 349 L 133 349 L 120 349 L 43 349 L 43 336 L 43 336 L 43 272 L 43 272 L 43 259 L 43 259 L 56 259 L 56 259 Z M 69 323 L 107 323 L 69 323 L 107 323 L 107 285 L 107 285 L 69 285 L 69 285 L 69 323 L 69 323 Z M 56 371 L 120 371 L 56 371 L 133 371 L 133 384 L 133 384 L 133 448 L 133 448 L 133 461 L 133 461 L 120 461 L 43 461 L 43 448 L 43 448 L 43 384 L 43 384 L 43 371 L 43 371 L 56 371 L 56 371 Z M 69 435 L 107 435 L 69 435 L 107 435 L 107 397 L 107 397 L 69 397 L 69 397 L 69 435 L 69 435 Z M 392 371 L 456 371 L 392 371 L 469 371 L 469 384 L 469 384 L 469 448 L 469 448 L 469 461 L 469 461 L 456 461 L 379 461 L 379 448 L 379 448 L 379 384 L 379 384 L 379 371 L 379 371 L 392 371 L 392 371 Z M 405 435 L 443 435 L 405 435 L 443 435 L 443 397 L 443 397 L 405 397 L 405 397 L 405 435 L 405 435 Z M 155 371 L 168 371 L 155 371 L 357 371 L 357 384 L 357 384 L 357 448 L 357 448 L 357 461 L 357 461 L 344 461 L 155 461 L 155 448 L 155 448 L 155 384 L 155 384 L 155 371 L 155 371 Z M 181 397 L 181 435 L 181 397 L 181 435 L 331 435 L 331 435 L 331 397 L 331 397 L 181 397 L 181 397 Z M 155 259 L 168 259 L 155 259 L 245 259 L 245 272 L 245 272 L 245 336 L 245 336 L 245 349 L 245 349 L 232 349 L 155 349 L 155 336 L 155 336 L 155 272 L 155 272 L 155 259 L 155 259 Z M 181 285 L 181 323 L 181 285 L 181 323 L 219 323 L 219 323 L 219 285 L 219 285 L 181 285 L 181 285 Z M 280 259 L 344 259 L 280 259 L 357 259 L 357 272 L 357 272 L 357 336 L 357 336 L 357 349 L 357 349 L 344 349 L 267 349 L 267 336 L 267 336 L 267 272 L 267 272 L 267 259 L 267 259 L 280 259 L 280 259 Z M 293 323 L 331 323 L 293 323 L 331 323 L 331 285 L 331 285 L 293 285 L 293 285 L 293 323 L 293 323 Z M 379 259 L 392 259 L 379 259 L 469 259 L 469 272 L 469 272 L 469 336 L 469 336 L 469 349 L 469 349 L 456 349 L 379 349 L 379 336 L 379 336 L 379 272 L 379 272 L 379 259 L 379 259 Z M 405 285 L 405 323 L 405 285 L 405 323 L 443 323 L 443 323 L 443 285 L 443 285 L 405 285 L 405 285 Z" />
</svg>