<svg xmlns="http://www.w3.org/2000/svg" viewBox="0 0 448 512">
  <path d="M 235 165 L 224 153 L 235 165 L 224 153 L 213 165 L 213 165 L 85 293 L 85 293 L 73 304 L 73 304 L 96 327 L 96 327 L 107 315 L 107 315 L 208 215 L 208 215 L 208 496 L 208 496 L 208 512 L 208 512 L 240 512 L 240 512 L 240 496 L 240 496 L 240 215 L 240 215 L 341 315 L 341 315 L 352 327 L 352 327 L 375 304 L 375 304 L 363 293 L 363 293 L 235 165 L 235 165 Z M 32 176 L 32 32 L 32 176 L 32 32 L 416 32 L 416 32 L 416 176 L 416 176 L 416 192 L 416 192 L 448 192 L 448 192 L 448 176 L 448 176 L 448 16 L 448 16 L 448 0 L 448 0 L 432 0 L 0 0 L 0 16 L 0 16 L 0 176 L 0 176 L 0 192 L 0 192 L 32 192 L 32 192 L 32 176 L 32 176 Z" />
</svg>