<svg xmlns="http://www.w3.org/2000/svg" viewBox="0 0 576 512">
  <path d="M 320 8 L 320 0 L 320 8 L 320 0 L 304 0 L 304 0 L 304 8 L 304 8 L 304 24 L 304 24 L 302 24 L 302 24 L 38 96 L 38 96 L 32 98 L 32 98 L 32 104 L 32 104 L 32 376 L 32 376 L 32 384 L 32 384 L 40 384 L 512 384 L 512 376 L 512 376 L 512 248 L 512 248 L 512 242 L 512 242 L 506 240 L 506 240 L 320 194 L 320 194 L 320 136 L 320 136 L 320 8 L 320 8 Z M 48 110 L 304 40 L 48 110 L 304 40 L 304 128 L 304 128 L 248 128 L 240 128 L 240 144 L 240 144 L 248 144 L 304 144 L 304 192 L 304 192 L 248 192 L 240 192 L 240 208 L 240 208 L 248 208 L 311 208 L 496 254 L 496 254 L 496 368 L 496 368 L 48 368 L 48 368 L 48 110 L 48 110 Z M 128 424 L 128 416 L 128 424 L 128 416 L 112 416 L 112 416 L 112 424 L 112 424 L 112 496 L 112 496 L 8 496 L 0 496 L 0 512 L 0 512 L 8 512 L 576 512 L 576 504 L 576 504 L 576 440 L 576 440 L 576 432 L 576 432 L 560 432 L 560 432 L 560 440 L 560 440 L 560 496 L 560 496 L 416 496 L 416 496 L 416 424 L 416 424 L 416 416 L 416 416 L 400 416 L 400 416 L 400 424 L 400 424 L 400 496 L 400 496 L 128 496 L 128 496 L 128 424 L 128 424 Z" />
</svg>