<svg xmlns="http://www.w3.org/2000/svg" viewBox="0 0 448 512">
  <path d="M 128 0 L 128 8 L 128 0 L 128 8 L 128 64 L 128 64 L 320 64 L 320 64 L 320 8 L 320 8 L 320 0 L 320 0 L 336 0 L 336 0 L 336 8 L 336 8 L 336 64 L 336 64 L 432 64 L 448 64 L 448 80 L 448 80 L 448 176 L 448 176 L 448 192 L 448 192 L 448 496 L 448 496 L 448 512 L 448 512 L 432 512 L 0 512 L 0 496 L 0 496 L 0 192 L 0 192 L 0 176 L 0 176 L 0 80 L 0 80 L 0 64 L 0 64 L 16 64 L 112 64 L 112 8 L 112 8 L 112 0 L 112 0 L 128 0 L 128 0 Z M 432 192 L 16 192 L 432 192 L 16 192 L 16 496 L 16 496 L 432 496 L 432 496 L 432 192 L 432 192 Z M 112 120 L 112 80 L 112 120 L 112 80 L 16 80 L 16 80 L 16 176 L 16 176 L 432 176 L 432 176 L 432 80 L 432 80 L 336 80 L 336 80 L 336 120 L 336 120 L 336 128 L 336 128 L 320 128 L 320 128 L 320 120 L 320 120 L 320 80 L 320 80 L 128 80 L 128 80 L 128 120 L 128 120 L 128 128 L 128 128 L 112 128 L 112 128 L 112 120 L 112 120 Z M 376 288 L 368 288 L 376 288 L 168 288 L 168 272 L 168 272 L 176 272 L 376 272 L 376 288 L 376 288 Z M 272 416 L 80 416 L 272 416 L 72 416 L 72 400 L 72 400 L 80 400 L 280 400 L 280 416 L 280 416 L 272 416 L 272 416 Z M 120 264 L 72 264 L 120 264 L 72 264 L 72 312 L 72 312 L 120 312 L 120 312 L 120 264 L 120 264 Z M 72 248 L 120 248 L 72 248 L 136 248 L 136 264 L 136 264 L 136 312 L 136 312 L 136 328 L 136 328 L 120 328 L 56 328 L 56 312 L 56 312 L 56 264 L 56 264 L 56 248 L 56 248 L 72 248 L 72 248 Z M 328 392 L 328 440 L 328 392 L 328 440 L 376 440 L 376 440 L 376 392 L 376 392 L 328 392 L 328 392 Z M 312 376 L 328 376 L 312 376 L 392 376 L 392 392 L 392 392 L 392 440 L 392 440 L 392 456 L 392 456 L 376 456 L 312 456 L 312 440 L 312 440 L 312 392 L 312 392 L 312 376 L 312 376 Z" />
</svg>