<svg xmlns="http://www.w3.org/2000/svg" viewBox="0 0 448 512">
  <path d="M 65 168 L 0 368 L 65 168 L 0 368 L 49 512 L 49 512 L 162 512 L 162 512 L 208 368 L 208 368 L 145 168 L 145 168 L 167 82 L 167 82 Q 169 74 169 66 L 169 64 L 169 64 Q 169 37 151 19 Q 132 1 105 0 Q 78 1 60 19 Q 42 37 41 64 L 41 66 L 41 66 Q 41 74 43 82 L 65 168 L 65 168 Z M 152 78 L 131 160 L 152 78 L 131 160 L 80 160 L 80 160 L 59 78 L 59 78 Q 57 72 57 66 L 57 64 L 57 64 Q 58 44 71 30 Q 85 17 105 16 Q 126 17 139 30 Q 153 44 153 64 L 153 66 L 153 66 Q 153 72 152 78 L 152 78 Z M 131 176 L 191 368 L 131 176 L 191 368 L 150 496 L 150 496 L 61 496 L 61 496 L 17 368 L 17 368 L 80 176 L 80 176 L 131 176 L 131 176 Z M 304 168 L 240 368 L 304 168 L 240 368 L 288 512 L 288 512 L 400 512 L 400 512 L 448 368 L 448 368 L 384 168 L 384 168 L 406 82 L 406 82 Q 408 74 408 66 L 408 64 L 408 64 Q 407 37 389 19 Q 371 1 344 0 Q 317 1 299 19 Q 281 37 280 64 L 280 66 L 280 66 Q 280 74 282 82 L 304 168 L 304 168 Z M 391 78 L 370 160 L 391 78 L 370 160 L 319 160 L 319 160 L 298 78 L 298 78 Q 296 72 296 66 L 296 64 L 296 64 Q 297 44 310 30 Q 324 17 344 16 Q 364 17 378 30 Q 391 44 392 64 L 392 66 L 392 66 Q 392 72 391 78 L 391 78 Z M 431 368 L 389 496 L 431 368 L 389 496 L 299 496 L 299 496 L 257 368 L 257 368 L 318 176 L 318 176 L 370 176 L 370 176 L 431 368 L 431 368 Z" />
</svg>