<svg xmlns="http://www.w3.org/2000/svg" viewBox="0 0 512 448">
  <path d="M 72 344 L 76 335 L 72 344 L 76 335 L 68 328 L 68 328 Q 17 276 16 208 Q 18 128 85 73 Q 152 18 256 16 Q 360 18 427 73 Q 494 128 496 208 Q 494 288 427 343 Q 360 398 256 400 Q 211 400 171 388 L 166 386 L 166 386 L 162 388 L 162 388 L 42 423 L 42 423 L 72 344 L 72 344 Z M 16 448 L 35 442 L 16 448 L 35 442 L 166 403 L 166 403 Q 209 416 256 416 Q 328 415 385 388 Q 443 360 477 313 Q 511 266 512 208 Q 511 150 477 103 Q 443 56 385 28 Q 328 1 256 0 Q 184 1 127 28 Q 69 56 35 103 Q 1 150 0 208 Q 2 284 57 339 L 23 429 L 23 429 L 16 448 L 16 448 Z M 264 112 L 264 104 L 264 112 L 264 104 L 248 104 L 248 104 L 248 112 L 248 112 L 248 128 L 248 128 Q 235 129 225 134 Q 205 143 201 163 Q 199 175 203 185 Q 208 194 216 199 Q 232 209 252 214 Q 252 214 252 214 L 254 215 L 254 215 Q 275 220 287 228 Q 292 232 295 237 Q 297 242 296 251 Q 294 263 281 268 Q 272 272 259 272 L 259 272 L 259 272 Q 252 272 245 271 Q 233 268 218 263 Q 217 263 216 262 Q 216 262 216 262 Q 215 262 214 262 Q 212 261 211 261 L 203 258 L 203 258 L 198 273 L 198 273 L 206 276 L 206 276 Q 206 276 208 276 Q 209 277 211 278 Q 211 278 211 278 Q 211 278 211 278 Q 211 278 211 278 Q 211 278 211 278 Q 211 278 211 278 Q 211 278 211 278 Q 211 278 211 278 Q 228 284 243 287 Q 243 287 243 287 Q 243 287 243 287 Q 245 287 248 288 Q 248 288 248 288 L 248 304 L 248 304 L 248 312 L 248 312 L 264 312 L 264 312 L 264 304 L 264 304 L 264 288 L 264 288 Q 277 287 287 283 Q 307 275 311 253 Q 313 241 309 231 Q 305 221 296 215 Q 279 205 259 199 L 258 199 L 258 199 Q 258 199 258 199 Q 238 194 225 186 Q 220 183 218 178 Q 215 174 217 166 Q 218 155 232 149 Q 246 143 267 145 Q 271 146 279 148 Q 286 149 290 150 L 294 135 L 294 135 Q 290 133 282 132 Q 274 130 270 130 Q 267 129 264 129 Q 264 129 264 129 L 264 112 L 264 112 Z" />
</svg>