<svg xmlns="http://www.w3.org/2000/svg" viewBox="0 0 508 512">
  <path d="M 16 256 Q 17 189 49 135 L 49 135 L 49 135 Q 81 81 135 49 L 135 49 L 135 49 Q 189 17 256 16 L 264 16 L 264 16 L 264 0 L 264 0 L 256 0 L 256 0 Q 184 1 127 35 Q 69 69 35 127 Q 1 184 0 256 Q 1 328 35 385 Q 69 443 127 477 Q 184 511 256 512 L 264 512 L 264 512 L 264 496 L 264 496 L 256 496 L 256 496 Q 189 495 135 463 Q 81 431 49 377 Q 17 323 16 256 L 16 256 Z M 349 122 L 343 117 L 349 122 L 343 117 L 333 129 L 333 129 L 339 134 L 339 134 L 474 248 L 474 248 L 168 248 L 160 248 L 160 264 L 160 264 L 168 264 L 474 264 L 339 378 L 339 378 L 333 383 L 333 383 L 343 395 L 343 395 L 349 390 L 349 390 L 501 262 L 501 262 L 508 256 L 508 256 L 501 250 L 501 250 L 349 122 L 349 122 Z" />
</svg>