<svg xmlns="http://www.w3.org/2000/svg" viewBox="0 0 504 512">
  <path d="M 296 0 L 288 0 L 296 0 L 214 0 L 210 9 L 210 9 L 194 41 L 194 41 L 191 47 L 191 47 L 193 53 L 193 53 L 207 96 L 207 96 L 173 137 L 173 137 L 168 144 L 168 144 L 168 152 L 168 152 L 168 192 L 168 192 L 168 210 L 168 210 L 185 215 L 185 215 L 262 238 L 262 238 L 307 268 L 307 268 L 313 272 L 313 272 L 320 272 L 359 272 L 365 268 L 365 268 L 410 238 L 410 238 L 487 215 L 487 215 L 504 210 L 504 210 L 504 192 L 504 192 L 504 152 L 504 152 L 504 144 L 504 144 L 499 138 L 499 138 L 466 93 L 466 93 L 479 53 L 479 53 L 481 47 L 481 47 L 478 41 L 478 41 L 462 9 L 462 9 L 458 0 L 458 0 L 448 0 L 296 0 Z M 216 161 L 241 130 L 216 161 L 241 130 L 279 107 L 279 107 Q 291 101 302 106 Q 312 110 316 123 Q 318 137 307 147 L 257 186 L 257 186 L 216 174 L 216 174 L 216 161 L 216 161 Z M 336 93 Q 317 71 288 72 L 307 48 L 307 48 L 372 48 L 372 48 L 390 73 L 390 73 Q 357 68 336 93 L 336 93 Z M 336 163 Q 340 168 345 172 L 381 200 L 381 200 L 360 214 L 360 214 Q 356 194 336 192 Q 316 194 312 214 L 292 200 L 292 200 L 327 172 L 327 172 Q 332 168 336 163 L 336 163 Z M 415 187 L 365 147 L 415 187 L 365 147 Q 354 137 357 123 Q 360 111 371 106 Q 381 101 393 107 L 436 133 L 436 133 L 456 160 L 456 160 L 456 174 L 456 174 L 415 187 L 415 187 Z M 144 244 L 144 56 L 144 244 L 144 56 L 144 32 L 144 32 L 120 32 L 0 32 L 0 56 L 0 56 L 0 200 L 0 200 L 0 224 L 0 224 L 0 392 L 0 392 Q 1 443 35 477 Q 69 511 120 512 L 456 512 L 480 512 L 480 488 L 480 488 L 480 464 L 480 464 L 480 456 L 480 456 Q 479 425 459 405 Q 439 385 408 384 L 384 384 L 384 384 L 384 432 L 384 432 L 408 432 L 408 432 Q 430 434 432 456 L 432 464 L 432 464 L 352 464 L 352 464 L 352 456 L 352 456 Q 351 425 331 405 Q 311 385 280 384 L 232 384 L 208 384 L 208 432 L 208 432 L 232 432 L 280 432 Q 302 434 304 456 L 304 464 L 304 464 L 120 464 L 120 464 Q 89 463 69 443 Q 49 423 48 392 L 48 360 L 48 360 L 82 360 L 82 360 Q 80 376 80 392 L 80 416 L 80 416 L 128 416 L 128 416 L 128 392 L 128 392 Q 128 351 147 317 Q 165 282 197 260 L 174 253 L 174 253 L 144 244 L 144 244 Z M 96 312 L 96 312 L 96 312 L 96 312 L 48 312 L 48 312 L 48 264 L 48 264 L 96 264 L 96 264 L 96 312 L 96 312 Z M 96 216 L 48 216 L 96 216 L 48 216 L 48 200 L 48 200 L 48 168 L 48 168 L 96 168 L 96 168 L 96 216 L 96 216 Z M 96 120 L 48 120 L 96 120 L 48 120 L 48 80 L 48 80 L 96 80 L 96 80 L 96 120 L 96 120 Z M 333 324 L 269 284 L 333 324 L 269 284 L 248 271 L 248 271 L 223 312 L 223 312 L 243 324 L 243 324 L 307 364 L 307 364 L 333 324 L 333 324 Z M 435 284 L 371 324 L 435 284 L 371 324 L 397 364 L 397 364 L 461 324 L 461 324 L 481 312 L 481 312 L 456 271 L 456 271 L 435 284 L 435 284 Z M 288 144 Q 303 143 304 128 Q 303 113 288 112 Q 273 113 272 128 Q 273 143 288 144 L 288 144 Z M 400 128 Q 399 113 384 112 Q 369 113 368 128 Q 369 143 384 144 Q 399 143 400 128 L 400 128 Z" />
</svg>