<svg xmlns="http://www.w3.org/2000/svg" viewBox="0 0 576 512">
  <path d="M 8 0 L 0 0 L 8 0 L 0 0 L 0 8 L 0 8 L 0 504 L 0 504 L 0 512 L 0 512 L 8 512 L 253 512 L 260 496 L 260 496 L 16 496 L 16 496 L 16 384 L 16 384 L 152 384 L 160 384 L 160 368 L 160 368 L 152 368 L 16 368 L 16 288 L 16 288 L 152 288 L 160 288 L 160 272 L 160 272 L 152 272 L 16 272 L 16 16 L 16 16 L 304 16 L 304 16 L 304 396 L 304 396 L 320 359 L 320 359 L 320 8 L 320 8 L 320 0 L 320 0 L 312 0 L 8 0 Z M 136 56 L 128 56 L 136 56 L 128 56 L 128 64 L 128 64 L 128 96 L 128 96 L 96 96 L 88 96 L 88 104 L 88 104 L 88 152 L 88 152 L 88 160 L 88 160 L 96 160 L 128 160 L 128 192 L 128 192 L 128 200 L 128 200 L 136 200 L 192 200 L 192 192 L 192 192 L 192 160 L 192 160 L 224 160 L 232 160 L 232 152 L 232 152 L 232 104 L 232 104 L 232 96 L 232 96 L 224 96 L 192 96 L 192 64 L 192 64 L 192 56 L 192 56 L 184 56 L 136 56 Z M 144 104 L 144 72 L 144 104 L 144 72 L 176 72 L 176 72 L 176 104 L 176 104 L 176 112 L 176 112 L 184 112 L 216 112 L 216 144 L 216 144 L 184 144 L 176 144 L 176 152 L 176 152 L 176 184 L 176 184 L 144 184 L 144 184 L 144 152 L 144 152 L 144 144 L 144 144 L 136 144 L 104 144 L 104 112 L 104 112 L 136 112 L 144 112 L 144 104 L 144 104 Z M 344 384 L 340 394 L 344 384 L 340 394 L 298 490 L 298 490 L 295 496 L 295 496 L 288 512 L 288 512 L 306 512 L 576 512 L 569 496 L 569 496 L 566 490 L 566 490 L 524 394 L 524 394 L 520 384 L 520 384 L 510 384 L 344 384 Z M 552 496 L 534 496 L 552 496 L 312 496 L 319 480 L 319 480 L 354 400 L 354 400 L 510 400 L 510 400 L 545 480 L 545 480 L 552 496 L 552 496 Z M 368 272 Q 369 236 400 217 Q 432 199 464 217 Q 495 236 496 272 Q 495 308 464 327 Q 432 345 400 327 Q 369 308 368 272 L 368 272 Z M 432 352 Q 477 351 501 312 Q 523 272 501 232 Q 477 193 432 192 Q 387 193 363 232 Q 341 272 363 312 Q 387 351 432 352 L 432 352 Z" />
</svg>