<svg xmlns="http://www.w3.org/2000/svg" viewBox="0 0 576 512">
  <path d="M 576 256 Q 576 241 566 229 L 566 229 L 566 229 Q 556 218 543 210 Q 514 193 487 192 L 368 192 L 367 192 L 331 128 L 331 128 L 344 128 L 352 128 L 352 120 L 352 120 L 352 72 L 352 72 L 352 64 L 352 64 L 344 64 L 296 64 L 263 4 L 263 4 L 261 0 L 261 0 L 256 0 L 158 0 L 160 10 L 160 10 L 211 192 L 211 192 L 192 192 L 124 192 L 78 131 L 78 131 L 76 128 L 76 128 L 72 128 L 6 128 L 8 138 L 8 138 L 31 224 L 31 224 Q 18 225 9 234 Q 0 243 0 256 Q 0 269 9 278 Q 18 287 31 288 L 8 374 L 8 374 L 6 384 L 6 384 L 16 384 L 76 384 L 78 381 L 78 381 L 124 320 L 124 320 L 192 320 L 211 320 L 160 502 L 160 502 L 158 512 L 158 512 L 168 512 L 261 512 L 263 508 L 263 508 L 296 448 L 296 448 L 344 448 L 352 448 L 352 440 L 352 440 L 352 392 L 352 392 L 352 384 L 352 384 L 344 384 L 331 384 L 367 320 L 367 320 L 368 320 L 487 320 Q 514 319 542 303 Q 556 295 566 283 Q 576 271 576 256 L 576 256 Z M 323 400 L 336 400 L 323 400 L 336 400 L 336 432 L 336 432 L 305 432 L 305 432 L 323 400 L 323 400 Z M 336 112 L 323 112 L 336 112 L 323 112 L 305 80 L 305 80 L 336 80 L 336 80 L 336 112 L 336 112 Z M 36 272 L 32 272 L 36 272 L 32 272 Q 17 271 16 256 Q 17 241 32 240 L 36 240 L 36 240 L 40 256 L 40 256 L 36 272 L 36 272 Z M 487 208 Q 509 208 534 223 Q 559 239 560 256 Q 559 274 535 289 Q 509 304 487 304 L 368 304 L 116 304 L 114 307 L 114 307 L 68 368 L 68 368 L 26 368 L 26 368 L 56 258 L 56 258 L 56 256 L 56 256 L 56 254 L 56 254 L 26 144 L 26 144 L 68 144 L 68 144 L 114 205 L 114 205 L 116 208 L 116 208 L 120 208 L 487 208 Z M 251 16 L 348 192 L 251 16 L 348 192 L 227 192 L 227 192 L 179 16 L 179 16 L 251 16 L 251 16 Z M 348 320 L 251 496 L 348 320 L 251 496 L 179 496 L 179 496 L 227 320 L 227 320 L 348 320 L 348 320 Z" />
</svg>