<svg xmlns="http://www.w3.org/2000/svg" viewBox="0 0 192 432">
  <path d="M 96 16 L 64 16 L 96 16 L 64 16 L 64 48 L 64 48 L 96 48 L 96 48 L 96 16 L 96 16 Z M 64 0 L 96 0 L 64 0 L 112 0 L 112 16 L 112 16 L 112 48 L 112 48 L 112 64 L 112 64 L 96 64 L 48 64 L 48 48 L 48 48 L 48 16 L 48 16 L 48 0 L 48 0 L 64 0 L 64 0 Z M 32 128 L 40 128 L 32 128 L 104 128 L 104 136 L 104 136 L 104 416 L 104 416 L 184 416 L 192 416 L 192 432 L 192 432 L 184 432 L 0 432 L 0 416 L 0 416 L 8 416 L 88 416 L 88 144 L 88 144 L 40 144 L 32 144 L 32 128 L 32 128 Z" />
</svg>