<svg xmlns="http://www.w3.org/2000/svg" viewBox="0 0 634 512">
  <path d="M 346 0 L 354 0 L 346 0 L 634 0 L 634 16 L 634 16 L 626 16 L 362 16 L 362 392 L 362 392 L 412 378 L 412 378 Q 421 339 450 314 Q 480 289 522 288 Q 570 289 601 321 Q 633 352 634 400 Q 633 448 601 479 Q 570 511 522 512 Q 474 511 443 479 Q 411 448 410 400 Q 410 398 410 395 L 12 504 L 12 504 L 4 506 L 4 506 L 0 490 L 0 490 L 8 488 L 8 488 L 346 396 L 346 396 L 346 8 L 346 8 L 346 0 L 346 0 Z M 618 400 Q 618 374 605 352 L 605 352 L 605 352 Q 592 330 570 317 Q 547 304 522 304 Q 497 304 474 317 Q 452 330 439 352 Q 426 374 426 400 Q 426 426 439 448 Q 452 470 474 483 Q 497 496 522 496 Q 547 496 570 483 Q 592 470 605 448 Q 618 426 618 400 L 618 400 Z M 312 195 L 314 201 L 312 195 L 314 201 L 314 220 L 314 220 Q 310 220 306 221 Q 292 225 285 237 Q 278 249 282 263 L 284 271 L 284 271 L 288 287 L 288 287 L 273 291 L 273 291 L 107 335 L 107 335 L 91 340 L 91 340 L 87 324 L 87 324 L 85 313 L 85 313 Q 81 300 70 294 Q 59 288 45 291 Q 32 295 26 306 Q 20 317 23 330 L 45 411 L 45 411 L 92 398 L 92 398 L 108 394 L 108 394 L 108 395 L 108 395 L 288 346 L 288 346 L 303 342 L 303 342 Q 303 342 303 342 Q 303 342 303 342 L 314 340 L 314 340 L 314 356 L 314 356 L 307 358 L 307 358 L 292 362 L 292 362 Q 292 362 292 362 L 276 366 L 276 366 L 112 410 L 112 410 L 97 414 L 97 414 L 97 414 L 97 414 L 81 418 L 81 418 L 49 427 L 49 427 L 33 431 L 33 431 L 29 415 L 29 415 L 7 334 L 7 334 Q 1 302 26 282 L 23 272 L 23 272 Q 15 236 32 205 Q 50 175 86 164 L 205 132 L 205 132 Q 241 123 271 141 Q 302 159 312 194 L 312 195 Z M 209 148 L 90 180 L 209 148 L 90 180 Q 60 188 46 213 Q 32 238 39 268 L 41 276 L 41 276 L 41 275 L 41 275 Q 61 271 78 280 Q 94 290 100 309 L 103 320 L 103 320 L 118 316 L 118 316 L 253 280 L 253 280 L 269 275 L 269 275 L 267 267 L 267 267 Q 262 247 271 230 Q 280 213 299 206 L 297 199 L 297 199 Q 288 169 264 155 Q 239 141 209 148 L 209 148 Z" />
</svg>