<svg xmlns="http://www.w3.org/2000/svg" viewBox="0 0 512 448">
  <path d="M 18 224 L 137 16 L 18 224 L 137 16 L 375 16 L 375 16 L 494 224 L 494 224 L 375 432 L 375 432 L 137 432 L 137 432 L 18 224 L 18 224 Z M 128 0 L 0 224 L 128 0 L 0 224 L 128 448 L 128 448 L 384 448 L 384 448 L 512 224 L 512 224 L 384 0 L 384 0 L 128 0 L 128 0 Z M 264 96 L 248 96 L 264 96 L 248 96 L 248 104 L 248 104 L 248 264 L 248 264 L 248 272 L 248 272 L 264 272 L 264 272 L 264 264 L 264 264 L 264 104 L 264 104 L 264 96 L 264 96 Z M 240 304 L 240 336 L 240 304 L 240 336 L 272 336 L 272 336 L 272 304 L 272 304 L 240 304 L 240 304 Z" />
</svg>