<svg xmlns="http://www.w3.org/2000/svg" viewBox="0 0 640 512">
  <path d="M 200 64 L 169 15 L 200 64 L 169 15 L 160 0 L 160 0 L 151 15 L 151 15 L 120 64 L 120 64 L 64 51 L 64 51 L 47 47 L 47 47 L 51 64 L 51 64 L 64 120 L 64 120 L 15 151 L 15 151 L 0 160 L 0 160 L 15 169 L 15 169 L 64 200 L 64 200 L 51 256 L 51 256 L 47 273 L 47 273 L 64 269 L 64 269 L 120 256 L 120 256 L 151 305 L 151 305 L 160 320 L 160 320 L 169 305 L 169 305 L 200 256 L 200 256 L 256 269 L 256 269 L 273 273 L 273 273 L 269 256 L 269 256 L 256 200 L 256 200 L 305 169 L 305 169 L 320 160 L 320 160 L 305 151 L 305 151 L 256 120 L 256 120 L 269 64 L 269 64 L 273 47 L 273 47 L 256 51 L 256 51 L 200 64 L 200 64 Z M 252 68 L 241 117 L 252 68 L 241 117 L 238 128 L 238 128 L 248 134 L 248 134 L 290 160 L 290 160 L 248 186 L 248 186 L 238 192 L 238 192 L 241 204 L 241 204 L 252 252 L 252 252 L 203 241 L 203 241 L 192 238 L 192 238 L 186 248 L 186 248 L 160 290 L 160 290 L 134 248 L 134 248 L 128 238 L 128 238 L 117 241 L 117 241 L 68 252 L 68 252 L 80 203 L 80 203 L 82 192 L 82 192 L 72 186 L 72 186 L 30 160 L 30 160 L 72 134 L 72 134 L 82 128 L 82 128 L 79 117 L 79 117 L 68 68 L 68 68 L 117 80 L 117 80 L 128 82 L 128 82 L 134 72 L 134 72 L 160 30 L 160 30 L 186 72 L 186 72 L 192 82 L 192 82 L 204 79 L 204 79 L 252 68 L 252 68 Z M 209 161 Q 208 134 185 120 Q 161 107 137 120 Q 113 134 113 161 Q 113 188 137 203 Q 161 216 185 203 Q 208 188 209 161 L 209 161 Z M 161 129 Q 174 130 183 139 L 183 139 L 183 139 Q 192 148 193 161 Q 192 175 183 184 Q 174 193 161 193 Q 147 193 138 184 Q 129 175 129 161 Q 129 148 138 139 Q 147 130 161 129 L 161 129 Z M 496 160 Q 496 143 508 132 L 508 132 L 508 132 Q 519 120 536 120 Q 553 120 564 132 Q 576 143 576 160 L 576 217 L 576 217 Q 557 219 544 232 Q 528 247 528 274 Q 529 293 543 315 Q 557 338 579 358 L 584 363 L 584 363 L 590 358 L 590 358 Q 611 338 625 315 Q 639 293 640 274 Q 640 248 624 232 Q 611 219 592 216 L 592 160 L 592 160 Q 591 136 576 120 Q 560 105 536 104 Q 512 105 496 120 Q 481 136 480 160 L 480 216 L 480 216 Q 460 193 428 192 Q 399 193 380 212 Q 361 231 360 260 L 360 280 L 360 280 Q 341 283 328 296 Q 312 311 312 338 Q 313 357 327 379 Q 341 402 363 422 L 368 427 L 368 427 L 374 422 L 374 422 Q 395 402 409 379 Q 423 357 424 338 Q 424 312 408 296 Q 395 283 376 280 L 376 260 L 376 260 Q 377 238 391 223 Q 406 209 428 208 Q 450 209 465 223 Q 479 238 480 260 L 480 280 L 480 280 L 480 496 L 480 496 L 8 496 L 0 496 L 0 512 L 0 512 L 8 512 L 640 512 L 640 496 L 640 496 L 632 496 L 496 496 L 496 280 L 496 280 L 496 260 L 496 260 L 496 160 L 496 160 Z M 584 232 Q 603 232 613 243 Q 623 253 624 274 Q 624 286 611 307 Q 600 324 584 341 Q 568 324 557 307 Q 544 286 544 274 Q 545 253 555 243 Q 565 232 584 232 L 584 232 Z M 395 371 Q 384 388 368 405 Q 352 388 341 371 Q 328 350 328 338 Q 329 317 339 307 Q 349 296 368 296 Q 387 296 397 307 Q 407 317 408 338 Q 408 350 395 371 L 395 371 Z" />
</svg>