<svg xmlns="http://www.w3.org/2000/svg" viewBox="0 0 509 448">
  <path d="M 487 247 L 509 224 L 487 247 L 509 224 L 487 201 L 487 201 L 359 73 L 359 73 L 336 51 L 336 51 L 291 96 L 291 96 L 313 119 L 313 119 L 387 192 L 387 192 L 192 192 L 160 192 L 160 256 L 160 256 L 192 256 L 387 256 L 313 329 L 313 329 L 291 352 L 291 352 L 336 397 L 336 397 L 359 375 L 359 375 L 487 247 L 487 247 Z M 160 64 L 192 64 L 160 64 L 192 64 L 192 0 L 192 0 L 160 0 L 0 0 L 0 32 L 0 32 L 0 416 L 0 416 L 0 448 L 0 448 L 32 448 L 192 448 L 192 384 L 192 384 L 160 384 L 64 384 L 64 64 L 64 64 L 160 64 L 160 64 Z" />
</svg>