<svg xmlns="http://www.w3.org/2000/svg" viewBox="0 0 576 512">
  <path d="M 96 0 L 88 0 L 96 0 L 88 0 L 88 8 L 88 8 L 88 48 L 88 48 L 40 48 L 0 48 L 0 64 L 0 64 L 8 64 L 32 64 L 32 496 L 32 496 L 8 496 L 0 496 L 0 512 L 0 512 L 8 512 L 352 512 L 352 496 L 352 496 L 344 496 L 320 496 L 320 64 L 320 64 L 344 64 L 352 64 L 352 48 L 352 48 L 344 48 L 264 48 L 264 8 L 264 8 L 264 0 L 264 0 L 256 0 L 96 0 Z M 248 48 L 104 48 L 248 48 L 104 48 L 104 16 L 104 16 L 248 16 L 248 16 L 248 48 L 248 48 Z M 88 64 L 104 64 L 88 64 L 304 64 L 304 496 L 304 496 L 48 496 L 48 496 L 48 64 L 48 64 L 88 64 L 88 64 Z M 384 176 L 368 176 L 384 176 L 368 176 L 368 192 L 368 192 L 368 224 L 368 224 L 368 240 L 368 240 L 384 240 L 432 240 L 432 224 L 432 224 L 432 192 L 432 192 L 432 176 L 432 176 L 416 176 L 384 176 Z M 384 192 L 400 192 L 384 192 L 416 192 L 416 208 L 416 208 L 416 224 L 416 224 L 400 224 L 384 224 L 384 208 L 384 208 L 384 192 L 384 192 Z M 368 336 L 368 352 L 368 336 L 368 352 L 368 384 L 368 384 L 368 400 L 368 400 L 384 400 L 432 400 L 432 384 L 432 384 L 432 352 L 432 352 L 432 336 L 432 336 L 416 336 L 368 336 Z M 400 352 L 416 352 L 400 352 L 416 352 L 416 368 L 416 368 L 416 384 L 416 384 L 400 384 L 384 384 L 384 368 L 384 368 L 384 352 L 384 352 L 400 352 L 400 352 Z M 480 176 L 464 176 L 480 176 L 464 176 L 464 192 L 464 192 L 464 224 L 464 224 L 464 240 L 464 240 L 480 240 L 528 240 L 528 224 L 528 224 L 528 192 L 528 192 L 528 176 L 528 176 L 512 176 L 480 176 Z M 480 192 L 496 192 L 480 192 L 512 192 L 512 208 L 512 208 L 512 224 L 512 224 L 496 224 L 480 224 L 480 208 L 480 208 L 480 192 L 480 192 Z M 560 144 L 560 328 L 560 144 L 560 328 L 504 328 L 496 328 L 496 336 L 496 336 L 496 432 L 496 432 L 352 432 L 352 432 L 352 448 L 352 448 L 504 448 L 512 448 L 512 440 L 512 440 L 512 344 L 512 344 L 568 344 L 576 344 L 576 336 L 576 336 L 576 136 L 576 136 L 576 128 L 576 128 L 568 128 L 352 128 L 352 144 L 352 144 L 560 144 L 560 144 Z" />
</svg>