<svg xmlns="http://www.w3.org/2000/svg" viewBox="0 0 640 512">
  <path d="M 496 144 L 496 192 L 496 144 L 496 192 Q 504 192 512 193 L 512 144 L 512 144 L 512 128 L 512 128 L 496 128 L 0 128 L 0 144 L 0 144 L 0 496 L 0 496 L 0 512 L 0 512 L 16 512 L 395 512 Q 384 505 375 496 L 16 496 L 16 496 L 16 144 L 16 144 L 496 144 L 496 144 Z M 464 64 L 48 64 L 464 64 L 48 64 L 48 80 L 48 80 L 464 80 L 464 80 L 464 64 L 464 64 Z M 416 0 L 96 0 L 416 0 L 96 0 L 96 16 L 96 16 L 416 16 L 416 16 L 416 0 L 416 0 Z M 368 368 Q 368 333 385 304 L 385 304 L 385 304 Q 402 275 432 257 Q 462 240 496 240 Q 530 240 560 257 Q 590 275 607 304 Q 624 333 624 368 Q 624 403 607 432 Q 590 461 560 479 Q 530 496 496 496 Q 462 496 432 479 Q 402 461 385 432 Q 368 403 368 368 L 368 368 Z M 640 368 Q 640 329 621 296 L 621 296 L 621 296 Q 602 263 568 243 Q 534 224 496 224 Q 458 224 424 243 Q 390 263 371 296 Q 352 329 352 368 Q 352 407 371 440 Q 390 473 424 493 Q 458 512 496 512 Q 534 512 568 493 Q 602 473 621 440 Q 640 407 640 368 L 640 368 Z M 504 296 L 504 288 L 504 296 L 504 288 L 488 288 L 488 288 L 488 296 L 488 296 L 488 360 L 488 360 L 424 360 L 416 360 L 416 376 L 416 376 L 424 376 L 488 376 L 488 440 L 488 440 L 488 448 L 488 448 L 504 448 L 504 448 L 504 440 L 504 440 L 504 376 L 504 376 L 568 376 L 576 376 L 576 360 L 576 360 L 568 360 L 504 360 L 504 296 L 504 296 Z" />
</svg>