<svg xmlns="http://www.w3.org/2000/svg" viewBox="0 0 448 448">
  <path d="M 51 13 L 51 51 L 51 13 L 51 51 L 13 51 L 13 51 L 13 13 L 13 13 L 51 13 L 51 13 Z M 13 0 L 0 0 L 13 0 L 0 0 L 0 13 L 0 13 L 0 51 L 0 51 L 0 64 L 0 64 L 13 64 L 64 64 L 64 51 L 64 51 L 64 13 L 64 13 L 64 0 L 64 0 L 51 0 L 13 0 Z M 51 109 L 51 147 L 51 109 L 51 147 L 13 147 L 13 147 L 13 109 L 13 109 L 51 109 L 51 109 Z M 13 96 L 0 96 L 13 96 L 0 96 L 0 109 L 0 109 L 0 147 L 0 147 L 0 160 L 0 160 L 13 160 L 64 160 L 64 147 L 64 147 L 64 109 L 64 109 L 64 96 L 64 96 L 51 96 L 13 96 Z M 13 205 L 51 205 L 13 205 L 51 205 L 51 243 L 51 243 L 13 243 L 13 243 L 13 205 L 13 205 Z M 0 192 L 0 205 L 0 192 L 0 205 L 0 243 L 0 243 L 0 256 L 0 256 L 13 256 L 64 256 L 64 243 L 64 243 L 64 205 L 64 205 L 64 192 L 64 192 L 51 192 L 0 192 Z M 51 301 L 51 339 L 51 301 L 51 339 L 13 339 L 13 339 L 13 301 L 13 301 L 51 301 L 51 301 Z M 13 288 L 0 288 L 13 288 L 0 288 L 0 301 L 0 301 L 0 339 L 0 339 L 0 352 L 0 352 L 13 352 L 64 352 L 64 339 L 64 339 L 64 301 L 64 301 L 64 288 L 64 288 L 51 288 L 13 288 Z M 13 397 L 51 397 L 13 397 L 51 397 L 51 435 L 51 435 L 13 435 L 13 435 L 13 397 L 13 397 Z M 0 384 L 0 397 L 0 384 L 0 397 L 0 435 L 0 435 L 0 448 L 0 448 L 13 448 L 64 448 L 64 435 L 64 435 L 64 397 L 64 397 L 64 384 L 64 384 L 51 384 L 0 384 Z M 147 13 L 147 51 L 147 13 L 147 51 L 109 51 L 109 51 L 109 13 L 109 13 L 147 13 L 147 13 Z M 109 0 L 96 0 L 109 0 L 96 0 L 96 13 L 96 13 L 96 51 L 96 51 L 96 64 L 96 64 L 109 64 L 160 64 L 160 51 L 160 51 L 160 13 L 160 13 L 160 0 L 160 0 L 147 0 L 109 0 Z M 109 109 L 147 109 L 109 109 L 147 109 L 147 147 L 147 147 L 109 147 L 109 147 L 109 109 L 109 109 Z M 96 96 L 96 109 L 96 96 L 96 109 L 96 147 L 96 147 L 96 160 L 96 160 L 109 160 L 160 160 L 160 147 L 160 147 L 160 109 L 160 109 L 160 96 L 160 96 L 147 96 L 96 96 Z M 147 205 L 147 243 L 147 205 L 147 243 L 109 243 L 109 243 L 109 205 L 109 205 L 147 205 L 147 205 Z M 109 192 L 96 192 L 109 192 L 96 192 L 96 205 L 96 205 L 96 243 L 96 243 L 96 256 L 96 256 L 109 256 L 160 256 L 160 243 L 160 243 L 160 205 L 160 205 L 160 192 L 160 192 L 147 192 L 109 192 Z M 109 301 L 147 301 L 109 301 L 147 301 L 147 339 L 147 339 L 109 339 L 109 339 L 109 301 L 109 301 Z M 96 288 L 96 301 L 96 288 L 96 301 L 96 339 L 96 339 L 96 352 L 96 352 L 109 352 L 160 352 L 160 339 L 160 339 L 160 301 L 160 301 L 160 288 L 160 288 L 147 288 L 96 288 Z M 147 397 L 147 435 L 147 397 L 147 435 L 109 435 L 109 435 L 109 397 L 109 397 L 147 397 L 147 397 Z M 109 384 L 96 384 L 109 384 L 96 384 L 96 397 L 96 397 L 96 435 L 96 435 L 96 448 L 96 448 L 109 448 L 160 448 L 160 435 L 160 435 L 160 397 L 160 397 L 160 384 L 160 384 L 147 384 L 109 384 Z M 205 13 L 243 13 L 205 13 L 243 13 L 243 51 L 243 51 L 205 51 L 205 51 L 205 13 L 205 13 Z M 192 0 L 192 13 L 192 0 L 192 13 L 192 51 L 192 51 L 192 64 L 192 64 L 205 64 L 256 64 L 256 51 L 256 51 L 256 13 L 256 13 L 256 0 L 256 0 L 243 0 L 192 0 Z M 243 109 L 243 147 L 243 109 L 243 147 L 205 147 L 205 147 L 205 109 L 205 109 L 243 109 L 243 109 Z M 205 96 L 192 96 L 205 96 L 192 96 L 192 109 L 192 109 L 192 147 L 192 147 L 192 160 L 192 160 L 205 160 L 256 160 L 256 147 L 256 147 L 256 109 L 256 109 L 256 96 L 256 96 L 243 96 L 205 96 Z M 205 205 L 243 205 L 205 205 L 243 205 L 243 243 L 243 243 L 205 243 L 205 243 L 205 205 L 205 205 Z M 192 192 L 192 205 L 192 192 L 192 205 L 192 243 L 192 243 L 192 256 L 192 256 L 205 256 L 256 256 L 256 243 L 256 243 L 256 205 L 256 205 L 256 192 L 256 192 L 243 192 L 192 192 Z M 243 301 L 243 339 L 243 301 L 243 339 L 205 339 L 205 339 L 205 301 L 205 301 L 243 301 L 243 301 Z M 205 288 L 192 288 L 205 288 L 192 288 L 192 301 L 192 301 L 192 339 L 192 339 L 192 352 L 192 352 L 205 352 L 256 352 L 256 339 L 256 339 L 256 301 L 256 301 L 256 288 L 256 288 L 243 288 L 205 288 Z M 205 397 L 243 397 L 205 397 L 243 397 L 243 435 L 243 435 L 205 435 L 205 435 L 205 397 L 205 397 Z M 192 384 L 192 397 L 192 384 L 192 397 L 192 435 L 192 435 L 192 448 L 192 448 L 205 448 L 256 448 L 256 435 L 256 435 L 256 397 L 256 397 L 256 384 L 256 384 L 243 384 L 192 384 Z M 339 13 L 339 51 L 339 13 L 339 51 L 301 51 L 301 51 L 301 13 L 301 13 L 339 13 L 339 13 Z M 301 0 L 288 0 L 301 0 L 288 0 L 288 13 L 288 13 L 288 51 L 288 51 L 288 64 L 288 64 L 301 64 L 352 64 L 352 51 L 352 51 L 352 13 L 352 13 L 352 0 L 352 0 L 339 0 L 301 0 Z M 301 109 L 339 109 L 301 109 L 339 109 L 339 147 L 339 147 L 301 147 L 301 147 L 301 109 L 301 109 Z M 288 96 L 288 109 L 288 96 L 288 109 L 288 147 L 288 147 L 288 160 L 288 160 L 301 160 L 352 160 L 352 147 L 352 147 L 352 109 L 352 109 L 352 96 L 352 96 L 339 96 L 288 96 Z M 339 205 L 339 243 L 339 205 L 339 243 L 301 243 L 301 243 L 301 205 L 301 205 L 339 205 L 339 205 Z M 301 192 L 288 192 L 301 192 L 288 192 L 288 205 L 288 205 L 288 243 L 288 243 L 288 256 L 288 256 L 301 256 L 352 256 L 352 243 L 352 243 L 352 205 L 352 205 L 352 192 L 352 192 L 339 192 L 301 192 Z M 301 301 L 339 301 L 301 301 L 339 301 L 339 339 L 339 339 L 301 339 L 301 339 L 301 301 L 301 301 Z M 288 288 L 288 301 L 288 288 L 288 301 L 288 339 L 288 339 L 288 352 L 288 352 L 301 352 L 352 352 L 352 339 L 352 339 L 352 301 L 352 301 L 352 288 L 352 288 L 339 288 L 288 288 Z M 339 397 L 339 435 L 339 397 L 339 435 L 301 435 L 301 435 L 301 397 L 301 397 L 339 397 L 339 397 Z M 301 384 L 288 384 L 301 384 L 288 384 L 288 397 L 288 397 L 288 435 L 288 435 L 288 448 L 288 448 L 301 448 L 352 448 L 352 435 L 352 435 L 352 397 L 352 397 L 352 384 L 352 384 L 339 384 L 301 384 Z M 397 13 L 435 13 L 397 13 L 435 13 L 435 51 L 435 51 L 397 51 L 397 51 L 397 13 L 397 13 Z M 384 0 L 384 13 L 384 0 L 384 13 L 384 51 L 384 51 L 384 64 L 384 64 L 397 64 L 448 64 L 448 51 L 448 51 L 448 13 L 448 13 L 448 0 L 448 0 L 435 0 L 384 0 Z M 435 109 L 435 147 L 435 109 L 435 147 L 397 147 L 397 147 L 397 109 L 397 109 L 435 109 L 435 109 Z M 397 96 L 384 96 L 397 96 L 384 96 L 384 109 L 384 109 L 384 147 L 384 147 L 384 160 L 384 160 L 397 160 L 448 160 L 448 147 L 448 147 L 448 109 L 448 109 L 448 96 L 448 96 L 435 96 L 397 96 Z M 397 205 L 435 205 L 397 205 L 435 205 L 435 243 L 435 243 L 397 243 L 397 243 L 397 205 L 397 205 Z M 384 192 L 384 205 L 384 192 L 384 205 L 384 243 L 384 243 L 384 256 L 384 256 L 397 256 L 448 256 L 448 243 L 448 243 L 448 205 L 448 205 L 448 192 L 448 192 L 435 192 L 384 192 Z M 435 301 L 435 339 L 435 301 L 435 339 L 397 339 L 397 339 L 397 301 L 397 301 L 435 301 L 435 301 Z M 397 288 L 384 288 L 397 288 L 384 288 L 384 301 L 384 301 L 384 339 L 384 339 L 384 352 L 384 352 L 397 352 L 448 352 L 448 339 L 448 339 L 448 301 L 448 301 L 448 288 L 448 288 L 435 288 L 397 288 Z M 397 397 L 435 397 L 397 397 L 435 397 L 435 435 L 435 435 L 397 435 L 397 435 L 397 397 L 397 397 Z M 384 384 L 384 397 L 384 384 L 384 397 L 384 435 L 384 435 L 384 448 L 384 448 L 397 448 L 448 448 L 448 435 L 448 435 L 448 397 L 448 397 L 448 384 L 448 384 L 435 384 L 384 384 Z" />
</svg>