<svg xmlns="http://www.w3.org/2000/svg" viewBox="0 0 575 510">
  <path d="M 481 5 L 569 85 L 481 5 L 569 85 L 575 90 L 575 90 L 569 96 L 569 96 L 464 209 L 464 209 L 464 270 L 464 270 L 464 275 L 464 275 L 459 277 L 459 277 L 403 301 L 403 301 L 398 304 L 398 304 L 394 300 L 394 300 L 290 196 L 290 196 L 285 190 L 285 190 L 290 184 L 290 184 L 470 5 L 470 5 L 475 0 L 475 0 L 481 5 L 481 5 Z M 307 190 L 402 285 L 307 190 L 402 285 L 448 265 L 448 265 L 448 206 L 448 206 L 448 203 L 448 203 L 450 201 L 450 201 L 552 91 L 552 91 L 476 22 L 476 22 L 307 190 L 307 190 Z M 11 467 L 243 229 L 11 467 L 243 229 L 255 240 L 255 240 L 25 475 L 25 475 Q 29 477 35 479 Q 60 492 112 494 Q 194 493 254 461 Q 314 430 367 376 L 347 355 L 347 355 L 335 344 L 335 344 L 347 333 L 347 333 L 390 376 L 390 376 Q 384 382 379 387 Q 324 442 262 476 Q 199 509 112 510 Q 76 509 51 502 Q 27 495 14 487 Q 0 479 0 478 L 11 467 L 11 467 Z M 416 142 Q 417 127 432 126 Q 447 127 448 142 Q 447 157 432 158 Q 417 157 416 142 L 416 142 Z M 480 78 Q 495 79 496 94 Q 495 109 480 110 Q 465 109 464 94 Q 465 79 480 78 L 480 78 Z" />
</svg>