<svg xmlns="http://www.w3.org/2000/svg" viewBox="0 0 448 384">
  <path d="M 448 8 L 448 0 L 448 8 L 448 0 L 432 0 L 432 0 L 432 8 L 432 8 L 432 376 L 432 376 L 432 384 L 432 384 L 448 384 L 448 384 L 448 376 L 448 376 L 448 8 L 448 8 Z M 350 198 L 355 192 L 350 198 L 355 192 L 350 186 L 350 186 L 214 50 L 214 50 L 208 45 L 208 45 L 197 56 L 197 56 L 202 62 L 202 62 L 325 184 L 325 184 L 8 184 L 0 184 L 0 200 L 0 200 L 8 200 L 325 200 L 202 322 L 202 322 L 197 328 L 197 328 L 208 339 L 208 339 L 214 334 L 214 334 L 350 198 L 350 198 Z" />
</svg>