<svg xmlns="http://www.w3.org/2000/svg" viewBox="0 0 448 512">
  <path d="M 400 336 L 176 336 L 400 336 L 176 336 L 176 48 L 176 48 L 332 48 L 332 48 L 400 116 L 400 116 L 400 336 L 400 336 Z M 448 96 L 352 0 L 448 96 L 352 0 L 176 0 L 128 0 L 128 48 L 128 48 L 128 336 L 128 336 L 128 384 L 128 384 L 176 384 L 448 384 L 448 336 L 448 336 L 448 96 L 448 96 Z M 48 128 L 0 128 L 48 128 L 0 128 L 0 176 L 0 176 L 0 464 L 0 464 L 0 512 L 0 512 L 48 512 L 320 512 L 320 464 L 320 464 L 320 416 L 320 416 L 272 416 L 272 416 L 272 464 L 272 464 L 48 464 L 48 464 L 48 176 L 48 176 L 96 176 L 96 176 L 96 128 L 96 128 L 48 128 L 48 128 Z" />
</svg>