<svg xmlns="http://www.w3.org/2000/svg" viewBox="0 0 635 512">
  <path d="M 459 0 L 443 0 L 459 0 L 443 0 L 443 8 L 443 8 L 443 32 L 443 32 Q 443 32 443 32 Q 443 32 443 32 L 443 48 L 443 48 L 443 176 L 443 176 L 443 192 L 443 192 Q 443 192 443 192 Q 443 192 443 192 L 443 512 L 443 512 L 459 512 L 459 512 L 459 192 L 459 192 L 619 192 L 635 192 L 635 176 L 635 176 L 635 48 L 635 48 L 635 32 L 635 32 L 619 32 L 459 32 L 459 8 L 459 8 L 459 0 L 459 0 Z M 459 176 L 459 48 L 459 176 L 459 48 L 619 48 L 619 48 L 619 176 L 619 176 L 459 176 L 459 176 Z M 411 138 L 272 34 L 411 138 L 272 34 L 267 30 L 267 30 L 262 34 L 262 34 L 6 226 L 6 226 L 0 230 L 0 230 L 9 243 L 9 243 L 16 238 L 16 238 L 59 206 L 59 206 L 59 504 L 59 504 L 59 512 L 59 512 L 67 512 L 411 512 L 411 496 L 411 496 L 347 496 L 347 496 L 347 328 L 347 328 L 347 320 L 347 320 L 339 320 L 187 320 L 187 328 L 187 328 L 187 496 L 187 496 L 75 496 L 75 496 L 75 194 L 75 194 L 267 50 L 267 50 L 411 158 L 411 158 L 411 138 L 411 138 Z M 331 336 L 331 496 L 331 336 L 331 496 L 203 496 L 203 496 L 203 336 L 203 336 L 331 336 L 331 336 Z" />
</svg>