<svg xmlns="http://www.w3.org/2000/svg" viewBox="0 0 448 448">
  <path d="M 432 16 L 432 432 L 432 16 L 432 432 L 16 432 L 16 432 L 16 16 L 16 16 L 432 16 L 432 16 Z M 16 0 L 0 0 L 16 0 L 0 0 L 0 16 L 0 16 L 0 432 L 0 432 L 0 448 L 0 448 L 16 448 L 448 448 L 448 432 L 448 432 L 448 16 L 448 16 L 448 0 L 448 0 L 432 0 L 16 0 Z M 224 80 Q 263 80 296 99 L 296 99 L 296 99 Q 329 118 349 152 Q 368 186 368 224 Q 368 262 349 296 Q 329 330 296 349 Q 263 368 224 368 Q 185 368 152 349 Q 119 330 99 296 Q 80 262 80 224 Q 80 186 99 152 Q 119 118 152 99 Q 185 80 224 80 L 224 80 Z M 224 384 Q 267 384 304 363 L 304 363 L 304 363 Q 341 341 363 304 Q 384 266 384 224 Q 384 182 363 144 Q 341 107 304 85 Q 267 64 224 64 Q 181 64 144 85 Q 107 107 85 144 Q 64 182 64 224 Q 64 266 85 304 Q 107 341 144 363 Q 181 384 224 384 L 224 384 Z M 208 224 Q 209 209 224 208 Q 239 209 240 224 Q 239 239 224 240 Q 209 239 208 224 L 208 224 Z M 256 224 Q 256 210 247 201 L 247 201 L 247 201 Q 238 192 224 192 Q 210 192 201 201 Q 192 210 192 224 Q 192 238 201 247 Q 210 256 224 256 Q 238 256 247 247 Q 256 238 256 224 L 256 224 Z" />
</svg>