<svg xmlns="http://www.w3.org/2000/svg" viewBox="0 0 320 448">
  <path d="M 284 173 Q 284 107 240 62 L 240 62 L 240 62 Q 197 18 131 16 L 32 17 L 32 17 L 32 25 L 32 25 L 55 45 L 55 45 L 61 50 L 61 50 L 55 56 L 55 56 L 32 82 L 32 82 L 32 197 L 32 197 L 75 217 L 75 217 L 163 154 L 163 154 L 170 149 L 170 149 L 179 162 L 179 162 L 173 167 L 173 167 L 64 244 L 64 244 L 64 320 L 64 320 L 48 320 L 48 320 L 48 240 L 48 240 L 48 236 L 48 236 L 51 234 L 51 234 L 60 227 L 60 227 L 21 210 L 21 210 L 16 208 L 16 208 L 16 203 L 16 203 L 16 79 L 16 79 L 16 76 L 16 76 L 18 74 L 18 74 L 38 52 L 38 52 L 19 34 L 19 34 L 16 32 L 16 32 L 16 28 L 16 28 L 16 9 L 16 9 L 16 1 L 16 1 L 24 1 L 24 1 L 131 0 L 131 0 Q 204 2 252 51 Q 300 100 300 174 Q 299 193 295 212 L 266 320 L 266 320 L 250 320 L 250 320 L 279 208 L 279 208 Q 283 191 284 173 L 284 173 Z M 84 96 Q 95 97 96 108 Q 95 119 84 120 Q 73 119 72 108 Q 73 97 84 96 L 84 96 Z M 48 352 L 272 352 L 48 352 L 276 352 L 278 355 L 278 355 L 318 403 L 318 403 L 320 405 L 320 405 L 320 408 L 320 408 L 320 440 L 320 440 L 320 448 L 320 448 L 312 448 L 0 448 L 0 440 L 0 440 L 0 408 L 0 408 L 0 405 L 0 405 L 2 403 L 2 403 L 42 355 L 42 355 L 44 352 L 44 352 L 48 352 L 48 352 Z M 16 411 L 16 432 L 16 411 L 16 432 L 304 432 L 304 432 L 304 411 L 304 411 L 268 368 L 268 368 L 52 368 L 52 368 L 16 411 L 16 411 Z" />
</svg>