<svg xmlns="http://www.w3.org/2000/svg" viewBox="0 0 384 512">
  <path d="M 368 119 L 368 496 L 368 119 L 368 496 L 16 496 L 16 496 L 16 16 L 16 16 L 265 16 L 265 16 L 368 119 L 368 119 Z M 384 112 L 272 0 L 384 112 L 272 0 L 16 0 L 0 0 L 0 16 L 0 16 L 0 496 L 0 496 L 0 512 L 0 512 L 16 512 L 384 512 L 384 496 L 384 496 L 384 112 L 384 112 Z M 96 304 L 96 320 L 96 304 L 96 320 L 112 320 L 288 320 L 288 304 L 288 304 L 288 288 L 288 288 L 203 203 L 203 203 L 192 192 L 192 192 L 181 203 L 181 203 L 96 288 L 96 288 L 96 304 L 96 304 Z M 112 295 L 192 215 L 112 295 L 192 215 L 272 295 L 272 295 L 272 304 L 272 304 L 112 304 L 112 304 L 112 295 L 112 295 Z" />
</svg>