<svg xmlns="http://www.w3.org/2000/svg" viewBox="0 0 640 512">
  <path d="M 128 0 L 136 0 L 128 0 L 208 0 L 208 8 L 208 8 L 208 72 L 208 72 L 232 72 L 232 72 L 232 8 L 232 8 L 232 0 L 232 0 L 240 0 L 304 0 L 304 8 L 304 8 L 304 72 L 304 72 L 336 72 L 336 72 L 336 8 L 336 8 L 336 0 L 336 0 L 344 0 L 408 0 L 408 8 L 408 8 L 408 72 L 408 72 L 432 72 L 432 72 L 432 8 L 432 8 L 432 0 L 432 0 L 440 0 L 512 0 L 512 8 L 512 8 L 512 224 L 512 224 L 560 224 L 560 224 L 560 168 L 560 168 L 560 160 L 560 160 L 568 160 L 640 160 L 640 168 L 640 168 L 640 504 L 640 504 L 640 512 L 640 512 L 632 512 L 0 512 L 0 504 L 0 504 L 0 168 L 0 168 L 0 160 L 0 160 L 8 160 L 80 160 L 80 168 L 80 168 L 80 224 L 80 224 L 128 224 L 128 224 L 128 8 L 128 8 L 128 0 L 128 0 Z M 144 240 L 136 240 L 144 240 L 64 240 L 64 232 L 64 232 L 64 176 L 64 176 L 16 176 L 16 176 L 16 496 L 16 496 L 240 496 L 240 496 L 240 392 L 240 392 Q 241 358 263 335 Q 286 313 320 312 Q 354 313 377 335 Q 399 358 400 392 L 400 496 L 400 496 L 624 496 L 624 496 L 624 176 L 624 176 L 576 176 L 576 176 L 576 232 L 576 232 L 576 240 L 576 240 L 568 240 L 144 240 Z M 496 224 L 496 16 L 496 224 L 496 16 L 448 16 L 448 16 L 448 80 L 448 80 L 448 88 L 448 88 L 440 88 L 392 88 L 392 80 L 392 80 L 392 16 L 392 16 L 352 16 L 352 16 L 352 80 L 352 80 L 352 88 L 352 88 L 344 88 L 288 88 L 288 80 L 288 80 L 288 16 L 288 16 L 248 16 L 248 16 L 248 80 L 248 80 L 248 88 L 248 88 L 240 88 L 192 88 L 192 80 L 192 80 L 192 16 L 192 16 L 144 16 L 144 16 L 144 224 L 144 224 L 496 224 L 496 224 Z M 384 392 Q 383 365 365 347 L 365 347 L 365 347 Q 347 329 320 328 Q 293 329 275 347 Q 257 365 256 392 L 256 496 L 256 496 L 384 496 L 384 496 L 384 392 L 384 392 Z" />
</svg>