<svg xmlns="http://www.w3.org/2000/svg" viewBox="0 0 448 448">
  <path d="M 299 299 L 430 233 L 299 299 L 430 233 L 448 224 L 448 224 L 430 215 L 430 215 L 299 149 L 299 149 L 233 18 L 233 18 L 224 0 L 224 0 L 215 18 L 215 18 L 149 149 L 149 149 L 18 215 L 18 215 L 0 224 L 0 224 L 18 233 L 18 233 L 149 299 L 149 299 L 215 430 L 215 430 L 224 448 L 224 448 L 233 430 L 233 430 L 299 299 L 299 299 Z M 224 412 L 164 292 L 224 412 L 164 292 L 161 287 L 161 287 L 156 284 L 156 284 L 36 224 L 36 224 L 157 164 L 157 164 L 161 161 L 161 161 L 164 156 L 164 156 L 224 36 L 224 36 L 284 157 L 284 157 L 287 161 L 287 161 L 292 164 L 292 164 L 412 224 L 412 224 L 292 284 L 292 284 L 287 287 L 287 287 L 284 292 L 284 292 L 224 412 L 224 412 Z" />
</svg>