<svg xmlns="http://www.w3.org/2000/svg" viewBox="0 0 384 512">
  <path d="M 48 464 L 48 48 L 48 464 L 48 48 L 224 48 L 224 48 L 224 160 L 224 160 L 336 160 L 336 160 L 336 464 L 336 464 L 48 464 L 48 464 Z M 256 0 L 48 0 L 256 0 L 0 0 L 0 48 L 0 48 L 0 464 L 0 464 L 0 512 L 0 512 L 48 512 L 384 512 L 384 464 L 384 464 L 384 128 L 384 128 L 256 0 L 256 0 Z M 240 224 L 144 224 L 240 224 L 144 224 L 144 208 L 144 208 L 80 208 L 80 208 L 80 272 L 80 272 L 96 272 L 96 272 L 96 368 L 96 368 L 80 368 L 80 368 L 80 432 L 80 432 L 144 432 L 144 432 L 144 416 L 144 416 L 240 416 L 240 416 L 240 432 L 240 432 L 304 432 L 304 432 L 304 368 L 304 368 L 288 368 L 288 368 L 288 272 L 288 272 L 304 272 L 304 272 L 304 208 L 304 208 L 240 208 L 240 208 L 240 224 L 240 224 Z M 240 368 L 144 368 L 240 368 L 144 368 L 144 272 L 144 272 L 240 272 L 240 272 L 240 368 L 240 368 Z" />
</svg>