<svg xmlns="http://www.w3.org/2000/svg" viewBox="0 0 577 512">
  <path d="M 531 183 L 538 193 L 531 183 L 538 193 Q 553 213 553 240 Q 552 272 532 294 Q 511 316 480 320 L 474 320 L 474 320 L 470 324 L 470 324 L 410 384 L 410 384 L 321 384 L 314 384 L 310 389 L 310 389 L 266 432 L 266 432 L 156 432 L 156 432 L 271 318 L 271 318 Q 271 318 271 318 Q 271 318 271 318 L 332 256 L 332 256 L 441 256 L 449 256 L 449 240 L 449 240 L 441 240 L 348 240 L 447 142 L 447 142 L 452 136 L 452 136 L 441 125 L 441 125 L 435 130 L 435 130 L 323 242 L 323 242 L 273 293 L 273 293 L 273 200 L 273 200 L 273 192 L 273 192 L 257 192 L 257 192 L 257 200 L 257 200 L 257 309 L 257 309 L 145 421 L 145 421 L 145 311 L 145 311 L 188 267 L 188 267 L 193 263 L 193 263 L 193 256 L 193 256 L 193 167 L 193 167 L 253 107 L 253 107 L 257 103 L 257 103 L 257 97 L 257 97 Q 261 66 283 45 Q 305 25 337 24 Q 364 25 384 39 L 394 46 L 394 46 L 403 38 L 403 38 Q 429 17 465 16 Q 506 17 533 44 Q 560 71 561 112 Q 560 148 539 174 L 531 183 L 531 183 Z M 140 448 L 145 448 L 140 448 L 273 448 L 321 400 L 321 400 L 417 400 L 417 400 L 481 336 L 481 336 Q 519 332 544 305 Q 568 279 569 240 Q 568 208 551 184 Q 576 154 577 112 Q 576 64 544 33 Q 513 1 465 0 Q 423 1 393 26 Q 369 8 337 8 Q 298 9 272 33 Q 245 58 241 96 L 177 160 L 177 160 L 177 256 L 177 256 L 129 304 L 129 304 L 129 432 L 129 432 L 129 437 L 129 437 L 71 495 L 71 495 L 65 501 L 65 501 L 76 512 L 76 512 L 82 506 L 82 506 L 140 448 L 140 448 Z M 227 38 Q 223 32 218 26 Q 190 0 154 0 Q 119 0 91 26 Q 68 50 65 82 Q 42 85 23 103 Q 3 125 1 153 Q 0 181 18 205 Q 18 205 18 205 Q 19 206 19 206 L 19 296 L 19 296 L 19 303 L 19 303 L 24 308 L 24 308 L 73 357 L 73 357 L 73 400 L 73 400 L 73 413 L 73 413 L 88 399 L 88 399 Q 88 398 88 398 Q 89 398 89 397 L 89 357 L 89 357 L 89 350 L 89 350 L 84 346 L 84 346 L 35 296 L 35 296 L 35 206 L 35 206 L 35 200 L 35 200 L 31 196 L 31 196 Q 16 177 17 155 Q 18 132 35 114 Q 49 100 68 97 L 80 95 L 80 95 L 81 83 L 81 83 Q 84 57 103 37 Q 125 16 154 16 Q 184 16 206 37 Q 214 45 219 54 Q 223 46 227 38 L 227 38 Z" />
</svg>