<svg xmlns="http://www.w3.org/2000/svg" viewBox="0 0 511 521">
  <path d="M 191 73 Q 190 46 167 31 Q 143 19 119 31 Q 96 46 95 73 Q 96 100 119 115 Q 143 127 167 115 Q 190 100 191 73 L 191 73 Z M 79 73 Q 80 37 111 18 Q 143 0 175 18 Q 206 37 207 73 Q 206 109 175 128 Q 143 146 111 128 Q 80 109 79 73 L 79 73 Z M 84 169 L 202 169 L 84 169 L 207 169 L 209 173 L 209 173 L 286 317 L 286 317 L 272 325 L 272 325 L 197 185 L 197 185 L 89 185 L 89 185 L 14 325 L 14 325 L 0 317 L 0 317 L 77 173 L 77 173 L 79 169 L 79 169 L 84 169 L 84 169 Z M 79 289 L 79 297 L 79 289 L 79 297 L 79 505 L 79 505 L 119 505 L 119 505 L 119 385 L 119 385 L 119 377 L 119 377 L 127 377 L 167 377 L 167 385 L 167 385 L 167 505 L 167 505 L 207 505 L 207 505 L 207 297 L 207 297 L 207 289 L 207 289 L 223 289 L 223 289 L 223 297 L 223 297 L 223 513 L 223 513 L 223 521 L 223 521 L 215 521 L 151 521 L 151 513 L 151 513 L 151 393 L 151 393 L 135 393 L 135 393 L 135 513 L 135 513 L 135 521 L 135 521 L 127 521 L 63 521 L 63 513 L 63 513 L 63 297 L 63 297 L 63 289 L 63 289 L 79 289 L 79 289 Z M 415 153 L 415 137 L 415 153 L 415 137 L 415 25 L 415 25 L 399 25 L 399 25 L 399 137 L 399 137 L 399 153 L 399 153 L 383 153 L 383 153 L 383 169 L 383 169 L 383 201 L 383 201 L 383 217 L 383 217 L 383 393 L 383 393 L 414 393 L 495 393 L 495 377 L 495 377 L 447 377 L 431 377 L 431 361 L 431 361 L 431 334 L 431 334 L 431 323 L 431 323 L 431 301 L 431 301 L 431 278 L 431 278 L 431 265 L 431 265 L 431 153 L 431 153 L 415 153 L 415 153 Z M 383 505 L 456 505 L 383 505 L 456 505 L 422 415 L 422 415 L 420 409 L 420 409 L 383 409 L 383 409 L 383 505 L 383 505 Z M 439 409 L 437 409 L 439 409 L 437 409 L 443 425 L 443 425 L 473 505 L 473 505 L 479 521 L 479 521 L 462 521 L 367 521 L 367 505 L 367 505 L 367 425 L 367 425 L 367 409 L 367 409 L 351 409 L 319 409 L 319 393 L 319 393 L 319 217 L 319 217 L 319 201 L 319 201 L 335 201 L 367 201 L 367 185 L 367 185 L 367 169 L 367 169 L 367 153 L 367 153 L 367 137 L 367 137 L 383 137 L 383 137 L 383 121 L 383 121 L 383 41 L 383 41 L 383 25 L 383 25 L 367 25 L 367 25 L 367 9 L 367 9 L 383 9 L 431 9 L 431 25 L 431 25 L 431 121 L 431 121 L 431 137 L 431 137 L 447 137 L 447 137 L 447 153 L 447 153 L 447 185 L 447 185 L 447 201 L 447 201 L 447 262 L 447 262 L 447 265 L 447 265 L 447 273 L 447 273 L 447 278 L 447 278 L 463 273 L 463 273 L 463 217 L 463 217 L 463 201 L 463 201 L 479 201 L 511 201 L 511 217 L 511 217 L 511 313 L 511 313 L 447 334 L 447 334 L 447 345 L 447 345 L 447 361 L 447 361 L 463 361 L 511 361 L 511 377 L 511 377 L 511 393 L 511 393 L 511 409 L 511 409 L 495 409 L 439 409 Z M 447 318 L 495 302 L 447 318 L 495 302 L 495 217 L 495 217 L 479 217 L 479 217 L 479 273 L 479 273 L 479 285 L 479 285 L 468 288 L 468 288 L 452 293 L 452 293 L 447 295 L 447 295 L 447 317 L 447 318 Z M 335 393 L 367 393 L 335 393 L 367 393 L 367 217 L 367 217 L 335 217 L 335 217 L 335 393 L 335 393 Z" />
</svg>