<svg xmlns="http://www.w3.org/2000/svg" viewBox="0 0 641 480">
  <path d="M 32 32 L 416 32 L 32 32 L 416 32 L 416 111 L 416 111 Q 424 105 431 101 L 448 90 L 448 90 L 448 32 L 448 32 L 448 0 L 448 0 L 416 0 L 0 0 L 0 32 L 0 32 L 0 416 L 0 416 L 0 448 L 0 448 L 32 448 L 337 448 Q 324 433 314 416 L 32 416 L 32 416 L 32 32 L 32 32 Z M 128 112 L 128 96 L 128 112 L 128 96 L 96 96 L 96 96 L 96 112 L 96 112 L 96 240 L 96 240 L 96 256 L 96 256 L 128 256 L 128 256 L 128 240 L 128 240 L 128 112 L 128 112 Z M 192 112 L 192 96 L 192 112 L 192 96 L 160 96 L 160 96 L 160 112 L 160 112 L 160 240 L 160 240 L 160 256 L 160 256 L 192 256 L 192 256 L 192 240 L 192 240 L 192 112 L 192 112 Z M 489 169 L 448 128 L 489 169 L 448 128 Q 425 142 396 170 Q 366 198 344 236 Q 321 275 320 320 Q 322 385 364 430 Q 406 475 471 480 Q 475 480 480 480 Q 485 480 489 480 Q 554 475 596 430 Q 638 385 640 320 Q 641 298 621 254 Q 600 209 544 160 L 535 169 L 535 169 L 512 192 L 512 192 L 489 169 L 489 169 Z M 480 448 Q 476 448 473 448 Q 447 445 432 428 Q 416 412 416 391 Q 418 356 455 319 Q 469 306 480 296 Q 491 305 505 319 Q 542 356 544 391 Q 544 412 528 428 Q 513 445 487 448 Q 484 448 480 448 L 480 448 Z M 576 391 Q 574 355 551 324 L 551 324 L 551 324 Q 528 294 505 275 L 505 275 L 505 275 Q 482 257 480 256 Q 478 257 455 275 Q 432 294 409 324 Q 386 355 384 391 Q 384 399 386 406 Q 353 371 352 320 Q 354 267 393 220 Q 419 189 444 170 L 489 215 L 489 215 L 512 237 L 512 237 L 535 215 L 535 215 L 545 204 L 545 204 Q 583 244 596 276 Q 609 308 608 320 Q 607 371 575 406 Q 576 399 576 391 L 576 391 Z" />
</svg>