<svg xmlns="http://www.w3.org/2000/svg" viewBox="0 0 512 512">
  <path d="M 453 197 L 431 175 L 453 197 L 431 175 L 420 164 L 420 164 L 431 153 L 431 153 L 501 83 L 501 83 L 512 72 L 512 72 L 501 61 L 501 61 L 451 11 L 451 11 L 440 0 L 440 0 L 429 11 L 429 11 L 359 81 L 359 81 L 348 92 L 348 92 L 337 81 L 337 81 L 315 59 L 315 59 L 304 48 L 304 48 L 293 59 L 293 59 L 272 80 L 272 80 L 272 224 L 272 224 L 272 240 L 272 240 L 288 240 L 432 240 L 453 219 L 453 219 L 464 208 L 464 208 L 453 197 L 453 197 Z M 409 153 L 397 164 L 409 153 L 397 164 L 409 175 L 409 175 L 441 208 L 441 208 L 425 224 L 425 224 L 288 224 L 288 224 L 288 87 L 288 87 L 304 71 L 304 71 L 337 103 L 337 103 L 348 115 L 348 115 L 359 103 L 359 103 L 440 23 L 440 23 L 489 72 L 489 72 L 409 153 L 409 153 Z M 59 315 L 81 337 L 59 315 L 81 337 L 92 348 L 92 348 L 81 359 L 81 359 L 11 429 L 11 429 L 0 440 L 0 440 L 11 451 L 11 451 L 61 501 L 61 501 L 72 512 L 72 512 L 83 501 L 83 501 L 153 431 L 153 431 L 164 420 L 164 420 L 175 431 L 175 431 L 197 453 L 197 453 L 208 464 L 208 464 L 219 453 L 219 453 L 240 432 L 240 432 L 240 288 L 240 288 L 240 272 L 240 272 L 224 272 L 80 272 L 59 293 L 59 293 L 48 304 L 48 304 L 59 315 L 59 315 Z M 103 359 L 115 348 L 103 359 L 115 348 L 103 337 L 103 337 L 71 304 L 71 304 L 87 288 L 87 288 L 224 288 L 224 288 L 224 425 L 224 425 L 208 441 L 208 441 L 175 409 L 175 409 L 164 397 L 164 397 L 153 409 L 153 409 L 72 489 L 72 489 L 23 440 L 23 440 L 103 359 L 103 359 Z" />
</svg>