<svg xmlns="http://www.w3.org/2000/svg" viewBox="0 0 512 512">
  <path d="M 384 48 L 421 11 L 384 48 L 421 11 L 432 0 L 432 0 L 443 11 L 443 11 L 501 69 L 501 69 L 512 80 L 512 80 L 501 91 L 501 91 L 464 128 L 464 128 L 469 133 L 469 133 L 480 144 L 480 144 L 469 155 L 469 155 L 192 432 L 192 432 L 45 479 L 45 479 L 11 512 L 11 512 L 0 501 L 0 501 L 34 467 L 34 467 L 80 320 L 80 320 L 294 106 L 294 106 L 248 59 L 248 59 L 126 182 L 126 182 L 120 187 L 120 187 L 109 176 L 109 176 L 114 170 L 114 170 L 242 42 L 242 42 L 248 37 L 248 37 L 254 42 L 254 42 L 306 94 L 306 94 L 357 43 L 357 43 L 368 32 L 368 32 L 379 43 L 379 43 L 384 48 L 384 48 Z M 395 59 L 453 117 L 395 59 L 453 117 L 489 80 L 489 80 L 432 23 L 432 23 L 395 59 L 395 59 Z M 194 407 L 457 144 L 194 407 L 457 144 L 368 55 L 368 55 L 105 318 L 105 318 L 194 407 L 194 407 Z M 183 418 L 94 329 L 183 418 L 94 329 L 53 459 L 53 459 L 183 418 L 183 418 Z" />
</svg>