<svg xmlns="http://www.w3.org/2000/svg" viewBox="0 0 512 512">
  <path d="M 16 345 L 16 167 L 16 345 L 16 167 L 167 16 L 167 16 L 345 16 L 345 16 L 496 167 L 496 167 L 496 345 L 496 345 L 345 496 L 345 496 L 167 496 L 167 496 L 16 345 L 16 345 Z M 160 0 L 0 160 L 160 0 L 0 160 L 0 352 L 0 352 L 160 512 L 160 512 L 352 512 L 352 512 L 512 352 L 512 352 L 512 160 L 512 160 L 352 0 L 352 0 L 160 0 L 160 0 Z M 264 128 L 248 128 L 264 128 L 248 128 L 248 136 L 248 136 L 248 296 L 248 296 L 248 304 L 248 304 L 264 304 L 264 304 L 264 296 L 264 296 L 264 136 L 264 136 L 264 128 L 264 128 Z M 240 336 L 240 368 L 240 336 L 240 368 L 272 368 L 272 368 L 272 336 L 272 336 L 240 336 L 240 336 Z" />
</svg>