<svg xmlns="http://www.w3.org/2000/svg" viewBox="0 0 448 448">
  <path d="M 16 16 L 16 432 L 16 16 L 16 432 L 432 432 L 432 432 L 432 16 L 432 16 L 16 16 L 16 16 Z M 0 0 L 16 0 L 0 0 L 448 0 L 448 16 L 448 16 L 448 432 L 448 432 L 448 448 L 448 448 L 432 448 L 0 448 L 0 432 L 0 432 L 0 16 L 0 16 L 0 0 L 0 0 Z M 208 192 Q 207 177 192 176 Q 177 177 176 192 Q 177 207 192 208 Q 207 207 208 192 L 208 192 Z M 160 192 Q 160 178 169 169 L 169 169 L 169 169 Q 178 160 192 160 Q 206 160 215 169 Q 224 178 224 192 Q 224 206 215 215 Q 206 224 192 224 Q 178 224 169 215 Q 160 206 160 192 L 160 192 Z M 256 264 Q 263 263 264 256 Q 263 249 256 248 Q 249 249 248 256 Q 249 263 256 264 L 256 264 Z M 256 232 Q 278 234 280 256 Q 278 278 256 280 Q 234 278 232 256 Q 234 234 256 232 L 256 232 Z M 216 78 L 216 88 L 216 78 L 216 88 Q 214 121 186 132 Q 159 143 134 122 L 127 114 L 127 114 L 115 126 L 115 126 L 123 133 L 123 133 Q 144 158 133 185 Q 122 212 89 215 L 79 215 L 79 215 L 79 231 L 79 231 L 89 231 L 89 231 Q 122 233 133 260 Q 144 288 123 313 L 115 320 L 115 320 L 127 331 L 127 331 L 134 324 L 134 324 Q 159 302 186 314 Q 214 325 216 358 L 216 368 L 216 368 L 232 368 L 232 368 L 232 358 L 232 358 Q 234 325 261 313 Q 289 302 314 324 L 321 331 L 321 331 L 332 320 L 332 320 L 325 313 L 325 313 Q 303 288 315 260 Q 326 233 359 231 L 369 231 L 369 231 L 369 215 L 369 215 L 359 215 L 359 215 Q 326 212 315 185 Q 303 158 325 133 L 332 126 L 332 126 L 321 114 L 321 114 L 314 122 L 314 122 Q 289 143 261 132 Q 234 121 232 88 L 232 78 L 232 78 L 216 78 L 216 78 Z M 321 92 L 332 103 L 321 92 L 332 103 L 343 115 L 343 115 L 355 126 L 355 126 L 343 137 L 343 137 L 336 144 L 336 144 Q 322 161 329 179 Q 337 197 359 199 L 369 199 L 385 199 L 385 215 L 385 215 L 385 231 L 385 231 L 385 247 L 385 247 L 369 247 L 359 247 Q 337 248 329 267 Q 322 285 336 301 L 343 309 L 343 309 L 355 320 L 355 320 L 343 331 L 343 331 L 332 342 L 332 342 L 321 354 L 321 354 L 310 342 L 310 342 L 302 335 L 302 335 Q 286 321 268 328 Q 249 336 248 358 L 248 368 L 248 368 L 248 384 L 248 384 L 232 384 L 200 384 L 200 368 L 200 368 L 200 358 L 200 358 Q 198 336 180 328 Q 162 321 145 335 L 138 342 L 138 342 L 127 354 L 127 354 L 115 342 L 115 342 L 104 331 L 104 331 L 93 320 L 93 320 L 104 309 L 104 309 L 111 302 L 111 302 Q 126 285 118 267 Q 111 248 89 247 L 79 247 L 63 247 L 63 231 L 63 231 L 63 215 L 63 215 L 63 199 L 63 199 L 79 199 L 89 199 Q 111 197 118 179 Q 126 161 111 144 L 104 137 L 104 137 L 93 126 L 93 126 L 104 115 L 104 115 L 116 103 L 116 103 L 127 92 L 127 92 L 138 103 L 138 103 L 145 110 L 145 110 Q 162 125 180 117 Q 198 110 200 88 L 200 78 L 200 78 L 200 62 L 200 62 L 216 62 L 248 62 L 248 78 L 248 78 L 248 88 L 248 88 Q 249 110 268 117 Q 286 125 302 110 L 310 103 L 310 103 L 321 92 L 321 92 Z" />
</svg>