<svg xmlns="http://www.w3.org/2000/svg" viewBox="0 0 640 448">
  <path d="M 640 448 L 336 448 L 640 448 L 336 448 L 336 335 L 336 335 Q 378 328 404 298 Q 431 267 432 224 Q 431 181 404 150 Q 378 120 336 113 L 336 0 L 336 0 L 640 0 L 640 0 L 640 96 L 640 96 L 544 96 L 512 96 L 512 128 L 512 128 L 512 320 L 512 320 L 512 352 L 512 352 L 544 352 L 640 352 L 640 448 L 640 448 Z M 304 113 Q 262 120 236 150 L 236 150 L 236 150 Q 209 181 208 224 Q 209 267 236 298 Q 262 328 304 335 L 304 448 L 304 448 L 0 448 L 0 448 L 0 352 L 0 352 L 96 352 L 128 352 L 128 320 L 128 320 L 128 128 L 128 128 L 128 96 L 128 96 L 96 96 L 0 96 L 0 0 L 0 0 L 304 0 L 304 0 L 304 113 L 304 113 Z M 304 302 Q 276 296 258 275 L 258 275 L 258 275 Q 241 254 240 224 Q 241 194 258 173 Q 276 152 304 146 L 304 302 L 304 302 Z M 336 302 L 336 146 L 336 302 L 336 146 Q 364 152 382 173 Q 399 194 400 224 Q 399 254 382 275 Q 364 296 336 302 L 336 302 Z M 544 128 L 640 128 L 544 128 L 640 128 L 640 320 L 640 320 L 544 320 L 544 320 L 544 128 L 544 128 Z M 96 320 L 0 320 L 96 320 L 0 320 L 0 128 L 0 128 L 96 128 L 96 128 L 96 320 L 96 320 Z" />
</svg>