<svg xmlns="http://www.w3.org/2000/svg" viewBox="0 0 568 513">
  <path d="M 251 0 L 243 0 L 251 0 L 243 0 L 243 8 L 243 8 L 243 84 L 243 84 L 167 84 L 159 84 L 159 92 L 159 92 L 159 166 L 159 166 L 159 174 L 159 174 L 167 174 L 243 174 L 243 250 L 243 250 L 243 258 L 243 258 L 251 258 L 333 258 L 333 250 L 333 250 L 333 174 L 333 174 L 409 174 L 417 174 L 417 166 L 417 166 L 417 92 L 417 92 L 417 84 L 417 84 L 409 84 L 333 84 L 333 8 L 333 8 L 333 0 L 333 0 L 325 0 L 251 0 Z M 259 92 L 259 16 L 259 92 L 259 16 L 317 16 L 317 16 L 317 92 L 317 92 L 317 100 L 317 100 L 325 100 L 401 100 L 401 158 L 401 158 L 325 158 L 317 158 L 317 166 L 317 166 L 317 242 L 317 242 L 259 242 L 259 242 L 259 166 L 259 166 L 259 158 L 259 158 L 251 158 L 175 158 L 175 100 L 175 100 L 251 100 L 259 100 L 259 92 L 259 92 Z M 152 321 L 149 321 L 152 321 L 149 321 L 147 323 L 147 323 L 69 385 L 69 385 L 8 385 L 0 385 L 0 401 L 0 401 L 8 401 L 74 401 L 77 399 L 77 399 L 154 337 L 154 337 L 368 337 L 368 337 L 368 377 L 368 377 L 248 377 L 240 377 L 240 385 L 240 385 L 240 425 L 240 425 L 240 433 L 240 433 L 248 433 L 400 433 L 402 432 L 402 432 L 518 352 L 518 352 L 545 391 L 545 391 L 392 497 L 392 497 L 8 497 L 0 497 L 0 513 L 0 513 L 8 513 L 396 513 L 398 512 L 398 512 L 561 400 L 561 400 L 568 395 L 568 395 L 563 389 L 563 389 L 527 336 L 527 336 L 522 329 L 522 329 L 516 334 L 516 334 L 395 417 L 395 417 L 256 417 L 256 417 L 256 393 L 256 393 L 376 393 L 384 393 L 384 385 L 384 385 L 384 329 L 384 329 L 384 321 L 384 321 L 376 321 L 152 321 Z" />
</svg>