<svg xmlns="http://www.w3.org/2000/svg" viewBox="0 0 448 512">
  <path d="M 224 195 L 230 190 L 224 195 L 230 190 L 318 102 L 318 102 L 323 96 L 323 96 L 312 85 L 312 85 L 306 90 L 306 90 L 232 165 L 232 165 L 232 8 L 232 8 L 232 0 L 232 0 L 216 0 L 216 0 L 216 8 L 216 8 L 216 165 L 216 165 L 142 90 L 142 90 L 136 85 L 136 85 L 125 96 L 125 96 L 130 102 L 130 102 L 218 190 L 218 190 L 224 195 L 224 195 Z M 224 317 L 218 322 L 224 317 L 218 322 L 130 410 L 130 410 L 125 416 L 125 416 L 136 427 L 136 427 L 142 422 L 142 422 L 216 347 L 216 347 L 216 504 L 216 504 L 216 512 L 216 512 L 232 512 L 232 512 L 232 504 L 232 504 L 232 347 L 232 347 L 306 422 L 306 422 L 312 427 L 312 427 L 323 416 L 323 416 L 318 410 L 318 410 L 230 322 L 230 322 L 224 317 L 224 317 Z M 8 248 L 0 248 L 8 248 L 0 248 L 0 264 L 0 264 L 8 264 L 448 264 L 448 248 L 448 248 L 440 248 L 8 248 Z" />
</svg>