<svg xmlns="http://www.w3.org/2000/svg" viewBox="0 0 576 448">
  <path d="M 560 16 L 560 432 L 560 16 L 560 432 L 16 432 L 16 432 L 16 16 L 16 16 L 560 16 L 560 16 Z M 16 0 L 0 0 L 16 0 L 0 0 L 0 16 L 0 16 L 0 432 L 0 432 L 0 448 L 0 448 L 16 448 L 576 448 L 576 432 L 576 432 L 576 16 L 576 16 L 576 0 L 576 0 L 560 0 L 16 0 Z M 96 256 L 96 272 L 96 256 L 96 272 L 480 272 L 480 272 L 480 256 L 480 256 L 96 256 L 96 256 Z M 96 320 L 96 336 L 96 320 L 96 336 L 192 336 L 192 336 L 192 320 L 192 320 L 96 320 L 96 320 Z M 384 320 L 224 320 L 384 320 L 224 320 L 224 336 L 224 336 L 384 336 L 384 336 L 384 320 L 384 320 Z M 400 80 L 496 80 L 400 80 L 496 80 L 496 160 L 496 160 L 400 160 L 400 160 L 400 80 L 400 80 Z M 384 64 L 384 80 L 384 64 L 384 80 L 384 160 L 384 160 L 384 176 L 384 176 L 400 176 L 512 176 L 512 160 L 512 160 L 512 80 L 512 80 L 512 64 L 512 64 L 496 64 L 384 64 Z" />
</svg>