<svg xmlns="http://www.w3.org/2000/svg" viewBox="0 0 480 480">
  <path d="M 112 384 L 96 384 L 112 384 L 96 384 L 96 368 L 96 368 L 96 16 L 96 16 L 96 0 L 96 0 L 112 0 L 480 0 L 480 16 L 480 16 L 480 272 L 480 272 L 368 384 L 368 384 L 112 384 L 112 384 Z M 368 361 L 457 272 L 368 361 L 457 272 L 368 272 L 368 272 L 368 361 L 368 361 Z M 352 368 L 352 264 L 352 368 L 352 264 L 352 256 L 352 256 L 360 256 L 464 256 L 464 16 L 464 16 L 112 16 L 112 16 L 112 368 L 112 368 L 352 368 L 352 368 Z M 64 96 L 64 112 L 64 96 L 64 112 L 16 112 L 16 112 L 16 464 L 16 464 L 368 464 L 368 464 L 368 416 L 368 416 L 384 416 L 384 416 L 384 464 L 384 464 L 384 480 L 384 480 L 368 480 L 0 480 L 0 464 L 0 464 L 0 112 L 0 112 L 0 96 L 0 96 L 16 96 L 64 96 Z" />
</svg>