<svg xmlns="http://www.w3.org/2000/svg" viewBox="0 0 640 448">
  <path d="M 112 16 L 112 336 L 112 16 L 112 336 L 624 336 L 624 336 L 624 238 L 624 238 Q 603 232 590 216 Q 576 199 576 176 Q 576 153 590 136 Q 603 120 624 114 L 624 16 L 624 16 L 112 16 L 112 16 Z M 640 128 Q 620 129 606 142 L 606 142 L 606 142 Q 593 156 592 176 Q 593 196 606 210 Q 620 223 640 224 L 640 240 L 640 240 L 640 336 L 640 336 L 640 352 L 640 352 L 624 352 L 96 352 L 96 336 L 96 336 L 96 16 L 96 16 L 96 0 L 96 0 L 112 0 L 640 0 L 640 16 L 640 16 L 640 112 L 640 112 L 640 128 L 640 128 Z M 480 80 Q 481 65 496 64 Q 511 65 512 80 Q 511 95 496 96 Q 481 95 480 80 L 480 80 Z M 480 144 Q 481 129 496 128 Q 511 129 512 144 Q 511 159 496 160 Q 481 159 480 144 L 480 144 Z M 496 192 Q 511 193 512 208 Q 511 223 496 224 Q 481 223 480 208 Q 481 193 496 192 L 496 192 Z M 480 272 Q 481 257 496 256 Q 511 257 512 272 Q 511 287 496 288 Q 481 287 480 272 L 480 272 Z M 16 56 L 16 64 L 16 56 L 16 64 L 16 432 L 16 432 L 552 432 L 560 432 L 560 448 L 560 448 L 552 448 L 0 448 L 0 440 L 0 440 L 0 64 L 0 64 L 0 56 L 0 56 L 16 56 L 16 56 Z M 240 56 L 296 56 L 240 56 L 301 56 L 303 60 L 303 60 L 347 136 L 347 136 L 391 136 L 391 136 Q 419 136 440 156 Q 448 165 448 176 Q 448 187 440 196 Q 419 216 391 216 L 339 216 L 339 216 L 295 292 L 295 292 L 293 296 L 293 296 L 288 296 L 221 296 L 224 286 L 224 286 L 248 216 L 248 216 L 220 216 L 220 216 L 198 245 L 198 245 L 196 248 L 196 248 L 192 248 L 150 248 L 152 238 L 152 238 L 168 176 L 168 176 L 152 114 L 152 114 L 150 104 L 150 104 L 160 104 L 196 104 L 198 107 L 198 107 L 220 136 L 220 136 L 256 136 L 256 136 L 232 67 L 232 67 L 229 56 L 229 56 L 240 56 L 240 56 Z M 274 142 L 278 152 L 274 142 L 278 152 L 267 152 L 212 152 L 210 149 L 210 149 L 188 120 L 188 120 L 170 120 L 170 120 L 184 174 L 184 174 L 184 176 L 184 176 L 184 178 L 184 178 L 170 232 L 170 232 L 188 232 L 188 232 L 210 203 L 210 203 L 212 200 L 212 200 L 216 200 L 270 200 L 266 211 L 266 211 L 243 280 L 243 280 L 283 280 L 283 280 L 328 204 L 328 204 L 330 200 L 330 200 L 335 200 L 391 200 Q 413 200 428 185 Q 435 176 428 167 Q 413 152 391 152 L 343 152 L 338 152 L 336 148 L 336 148 L 291 72 L 291 72 L 251 72 L 251 72 L 274 142 L 274 142 Z" />
</svg>