<svg xmlns="http://www.w3.org/2000/svg" viewBox="0 0 640 504">
  <path d="M 344 27 L 344 0 L 344 27 L 344 0 L 296 0 L 296 0 L 296 27 L 296 27 Q 289 29 282 32 Q 256 42 249 72 Q 246 89 253 104 Q 260 118 271 125 Q 292 136 311 141 L 313 142 L 313 142 Q 334 148 341 153 Q 348 160 338 166 Q 330 169 312 167 Q 302 165 288 160 Q 287 160 286 160 Q 284 159 282 158 Q 281 158 280 157 L 257 150 L 257 150 L 242 195 L 242 195 L 264 203 L 264 203 Q 266 204 269 204 Q 269 204 269 205 Q 281 209 296 213 L 296 240 L 296 240 L 344 240 L 344 240 L 344 214 L 344 214 Q 351 212 357 210 Q 384 199 391 168 Q 394 151 388 136 Q 381 122 369 114 Q 348 101 328 96 L 327 96 L 327 96 Q 306 90 298 85 Q 293 79 302 75 Q 311 71 328 73 Q 332 74 339 75 Q 346 76 350 77 L 373 83 L 373 83 L 385 37 L 385 37 L 362 31 L 362 31 Q 355 29 344 27 Q 344 27 344 27 L 344 27 Z M 80 56 L 0 56 L 80 56 L 0 56 L 0 96 L 0 96 L 0 120 L 0 120 L 0 152 L 0 152 L 0 216 L 0 216 L 0 344 L 0 344 L 0 357 L 0 357 L 9 367 L 9 367 L 137 495 L 137 495 L 147 504 L 147 504 L 160 504 L 288 504 L 288 472 L 288 472 L 288 440 L 288 440 L 288 408 L 288 408 L 288 344 L 288 344 L 288 331 L 288 331 L 279 321 L 279 321 L 215 257 L 215 257 L 192 235 L 192 235 L 183 225 L 183 225 L 160 203 L 160 203 L 115 248 L 115 248 L 137 271 L 137 271 L 147 280 L 147 280 L 169 303 L 169 303 L 206 339 L 206 339 L 164 367 L 164 367 L 80 283 L 80 283 L 80 216 L 80 216 L 80 136 L 80 136 L 80 104 L 80 104 L 80 96 L 80 96 L 80 56 L 80 56 Z M 560 56 L 560 96 L 560 56 L 560 96 L 560 104 L 560 104 L 560 136 L 560 136 L 560 216 L 560 216 L 560 283 L 560 283 L 476 367 L 476 367 L 434 339 L 434 339 L 471 303 L 471 303 L 493 280 L 493 280 L 503 271 L 503 271 L 525 248 L 525 248 L 480 203 L 480 203 L 457 225 L 457 225 L 448 235 L 448 235 L 425 257 L 425 257 L 361 321 L 361 321 L 352 331 L 352 331 L 352 344 L 352 344 L 352 408 L 352 408 L 352 440 L 352 440 L 352 472 L 352 472 L 352 504 L 352 504 L 384 504 L 493 504 L 503 495 L 503 495 L 631 367 L 631 367 L 640 357 L 640 357 L 640 344 L 640 344 L 640 216 L 640 216 L 640 152 L 640 152 L 640 120 L 640 120 L 640 96 L 640 96 L 640 56 L 640 56 L 560 56 L 560 56 Z" />
</svg>