<svg xmlns="http://www.w3.org/2000/svg" viewBox="0 0 576 384">
  <path d="M 16 16 L 16 368 L 16 16 L 16 368 L 560 368 L 560 368 L 560 16 L 560 16 L 16 16 L 16 16 Z M 0 0 L 16 0 L 0 0 L 576 0 L 576 16 L 576 16 L 576 368 L 576 368 L 576 384 L 576 384 L 560 384 L 0 384 L 0 368 L 0 368 L 0 16 L 0 16 L 0 0 L 0 0 Z M 536 120 L 528 120 L 536 120 L 528 120 Q 497 119 477 99 Q 457 79 456 48 L 456 40 L 456 40 L 456 32 L 456 32 L 472 32 L 472 32 L 472 40 L 472 40 L 472 48 L 472 48 Q 473 72 488 88 Q 504 103 528 104 L 536 104 L 544 104 L 544 120 L 544 120 L 536 120 L 536 120 Z M 32 120 L 32 104 L 32 120 L 32 104 L 40 104 L 48 104 Q 72 103 88 88 Q 103 72 104 48 L 104 40 L 104 40 L 104 32 L 104 32 L 120 32 L 120 32 L 120 40 L 120 40 L 120 48 L 120 48 Q 119 79 99 99 Q 79 119 48 120 L 40 120 L 32 120 Z M 536 264 L 544 264 L 536 264 L 544 264 L 544 280 L 544 280 L 536 280 L 528 280 Q 504 281 488 296 Q 473 312 472 336 L 472 344 L 472 344 L 472 352 L 472 352 L 456 352 L 456 352 L 456 344 L 456 344 L 456 336 L 456 336 Q 457 305 477 285 Q 497 265 528 264 L 536 264 L 536 264 Z M 32 264 L 40 264 L 32 264 L 48 264 Q 79 265 99 285 Q 119 305 120 336 L 120 344 L 120 344 L 120 352 L 120 352 L 104 352 L 104 352 L 104 344 L 104 344 L 104 336 L 104 336 Q 103 312 88 296 Q 72 281 48 280 L 40 280 L 32 280 L 32 264 L 32 264 Z M 368 192 Q 367 147 328 123 Q 288 101 248 123 Q 209 147 208 192 Q 209 237 248 261 Q 288 283 328 261 Q 367 237 368 192 L 368 192 Z M 192 192 Q 192 166 205 144 L 205 144 L 205 144 Q 218 122 240 109 Q 263 96 288 96 Q 313 96 336 109 Q 358 122 371 144 Q 384 166 384 192 Q 384 218 371 240 Q 358 262 336 275 Q 313 288 288 288 Q 263 288 240 275 Q 218 262 205 240 Q 192 218 192 192 L 192 192 Z" />
</svg>