<svg xmlns="http://www.w3.org/2000/svg" viewBox="0 0 384 512">
  <path d="M 72 0 L 64 0 L 72 0 L 64 0 L 64 8 L 64 8 L 64 64 L 64 64 L 16 64 L 0 64 L 0 80 L 0 80 L 0 432 L 0 432 L 0 448 L 0 448 L 16 448 L 64 448 L 64 504 L 64 504 L 64 512 L 64 512 L 72 512 L 320 512 L 320 504 L 320 504 L 320 448 L 320 448 L 368 448 L 384 448 L 384 432 L 384 432 L 384 80 L 384 80 L 384 64 L 384 64 L 368 64 L 320 64 L 320 8 L 320 8 L 320 0 L 320 0 L 312 0 L 72 0 Z M 304 432 L 80 432 L 304 432 L 16 432 L 16 80 L 16 80 L 64 80 L 368 80 L 368 432 L 368 432 L 320 432 L 304 432 Z M 80 448 L 304 448 L 80 448 L 304 448 L 304 496 L 304 496 L 80 496 L 80 496 L 80 448 L 80 448 Z M 304 64 L 80 64 L 304 64 L 80 64 L 80 16 L 80 16 L 304 16 L 304 16 L 304 64 L 304 64 Z M 80 144 L 304 144 L 80 144 L 304 144 L 304 208 L 304 208 L 80 208 L 80 208 L 80 144 L 80 144 Z M 64 128 L 64 144 L 64 128 L 64 144 L 64 208 L 64 208 L 64 224 L 64 224 L 80 224 L 320 224 L 320 208 L 320 208 L 320 144 L 320 144 L 320 128 L 320 128 L 304 128 L 64 128 Z M 72 248 L 72 256 L 72 248 L 72 256 L 72 304 L 72 304 L 72 312 L 72 312 L 80 312 L 136 312 L 136 304 L 136 304 L 136 256 L 136 256 L 136 248 L 136 248 L 128 248 L 72 248 Z M 88 264 L 120 264 L 88 264 L 120 264 L 120 296 L 120 296 L 88 296 L 88 296 L 88 264 L 88 264 Z M 168 248 L 160 248 L 168 248 L 160 248 L 160 256 L 160 256 L 160 304 L 160 304 L 160 312 L 160 312 L 168 312 L 224 312 L 224 304 L 224 304 L 224 256 L 224 256 L 224 248 L 224 248 L 216 248 L 168 248 Z M 176 296 L 176 264 L 176 296 L 176 264 L 208 264 L 208 264 L 208 296 L 208 296 L 176 296 L 176 296 Z M 248 248 L 248 256 L 248 248 L 248 256 L 248 304 L 248 304 L 248 312 L 248 312 L 256 312 L 312 312 L 312 304 L 312 304 L 312 256 L 312 256 L 312 248 L 312 248 L 304 248 L 248 248 Z M 264 264 L 296 264 L 264 264 L 296 264 L 296 296 L 296 296 L 264 296 L 264 296 L 264 264 L 264 264 Z M 80 328 L 72 328 L 80 328 L 72 328 L 72 336 L 72 336 L 72 384 L 72 384 L 72 392 L 72 392 L 80 392 L 136 392 L 136 384 L 136 384 L 136 336 L 136 336 L 136 328 L 136 328 L 128 328 L 80 328 Z M 88 376 L 88 344 L 88 376 L 88 344 L 120 344 L 120 344 L 120 376 L 120 376 L 88 376 L 88 376 Z M 160 328 L 160 336 L 160 328 L 160 336 L 160 384 L 160 384 L 160 392 L 160 392 L 168 392 L 224 392 L 224 384 L 224 384 L 224 336 L 224 336 L 224 328 L 224 328 L 216 328 L 160 328 Z M 176 344 L 208 344 L 176 344 L 208 344 L 208 376 L 208 376 L 176 376 L 176 376 L 176 344 L 176 344 Z M 256 328 L 248 328 L 256 328 L 248 328 L 248 336 L 248 336 L 248 384 L 248 384 L 248 392 L 248 392 L 256 392 L 312 392 L 312 384 L 312 384 L 312 336 L 312 336 L 312 328 L 312 328 L 304 328 L 256 328 Z M 264 376 L 264 344 L 264 376 L 264 344 L 296 344 L 296 344 L 296 376 L 296 376 L 264 376 L 264 376 Z" />
</svg>