<svg xmlns="http://www.w3.org/2000/svg" viewBox="0 0 576 507">
  <path d="M 243 8 L 239 15 L 243 8 L 239 15 L 142 187 L 142 187 L 434 187 L 434 187 L 337 15 L 337 15 L 333 8 L 333 8 L 347 0 L 347 0 L 351 7 L 351 7 L 453 187 L 453 187 L 528 187 L 576 187 L 576 203 L 576 203 L 540 203 L 540 203 L 464 507 L 464 507 L 112 507 L 112 507 L 36 203 L 36 203 L 0 203 L 0 203 L 0 187 L 0 187 L 32 187 L 123 187 L 225 7 L 225 7 L 229 0 L 229 0 L 243 8 L 243 8 Z M 53 203 L 125 491 L 53 203 L 125 491 L 452 491 L 452 491 L 524 203 L 524 203 L 53 203 L 53 203 Z M 208 291 L 208 403 L 208 291 L 208 403 L 208 411 L 208 411 L 192 411 L 192 411 L 192 403 L 192 403 L 192 291 L 192 291 L 192 283 L 192 283 L 208 283 L 208 283 L 208 291 L 208 291 Z M 296 283 L 296 291 L 296 283 L 296 291 L 296 403 L 296 403 L 296 411 L 296 411 L 280 411 L 280 411 L 280 403 L 280 403 L 280 291 L 280 291 L 280 283 L 280 283 L 296 283 L 296 283 Z M 384 291 L 384 403 L 384 291 L 384 403 L 384 411 L 384 411 L 368 411 L 368 411 L 368 403 L 368 403 L 368 291 L 368 291 L 368 283 L 368 283 L 384 283 L 384 283 L 384 291 L 384 291 Z" />
</svg>