<svg xmlns="http://www.w3.org/2000/svg" viewBox="0 0 640 448">
  <path d="M 80 16 L 560 16 L 80 16 L 560 16 L 560 320 L 560 320 L 576 320 L 576 320 L 576 16 L 576 16 L 576 0 L 576 0 L 560 0 L 64 0 L 64 16 L 64 16 L 64 320 L 64 320 L 80 320 L 80 320 L 80 16 L 80 16 Z M 16 393 L 16 368 L 16 393 L 16 368 L 624 368 L 624 368 L 624 393 L 624 393 L 585 432 L 585 432 L 55 432 L 55 432 L 16 393 L 16 393 Z M 624 352 L 16 352 L 624 352 L 0 352 L 0 368 L 0 368 L 0 400 L 0 400 L 48 448 L 48 448 L 592 448 L 592 448 L 640 400 L 640 400 L 640 368 L 640 368 L 640 352 L 640 352 L 624 352 L 624 352 Z M 270 126 L 275 120 L 270 126 L 275 120 L 264 109 L 264 109 L 258 114 L 258 114 L 194 178 L 194 178 L 189 184 L 189 184 L 194 190 L 194 190 L 258 254 L 258 254 L 264 260 L 264 260 L 275 248 L 275 248 L 270 242 L 270 242 L 211 184 L 211 184 L 270 126 L 270 126 Z M 382 114 L 376 109 L 382 114 L 376 109 L 365 120 L 365 120 L 370 126 L 370 126 L 429 184 L 429 184 L 370 242 L 370 242 L 365 248 L 365 248 L 376 259 L 376 259 L 382 254 L 382 254 L 446 190 L 446 190 L 451 184 L 451 184 L 446 178 L 446 178 L 382 114 L 382 114 Z" />
</svg>