<svg xmlns="http://www.w3.org/2000/svg" viewBox="0 0 384 512">
  <path d="M 80 16 L 80 96 L 80 16 L 80 96 L 368 96 L 368 96 L 368 16 L 368 16 L 80 16 L 80 16 Z M 64 0 L 80 0 L 64 0 L 384 0 L 384 16 L 384 16 L 384 96 L 384 96 L 384 112 L 384 112 L 368 112 L 64 112 L 64 96 L 64 96 L 64 16 L 64 16 L 64 0 L 64 0 Z M 112 265 L 105 269 L 112 265 L 105 269 L 65 296 L 65 296 Q 42 312 29 335 Q 16 359 16 387 L 16 389 L 16 389 Q 17 435 47 465 Q 77 495 123 496 Q 155 496 182 478 L 336 375 L 336 375 L 336 144 L 336 144 L 352 144 L 352 144 L 352 384 L 352 384 L 191 491 L 191 491 Q 160 512 123 512 Q 71 511 36 476 Q 1 441 0 389 L 0 387 L 0 387 Q 0 355 15 328 Q 29 301 56 283 L 96 256 L 96 256 L 96 144 L 96 144 L 112 144 L 112 144 L 112 256 L 112 256 L 112 265 L 112 265 Z" />
</svg>