<svg xmlns="http://www.w3.org/2000/svg" viewBox="0 0 512 512">
  <path d="M 208 16 L 208 496 L 208 16 L 208 496 L 496 496 L 496 496 L 496 16 L 496 16 L 208 16 L 208 16 Z M 192 0 L 208 0 L 192 0 L 512 0 L 512 16 L 512 16 L 512 496 L 512 496 L 512 512 L 512 512 L 496 512 L 192 512 L 192 496 L 192 496 L 192 16 L 192 16 L 192 0 L 192 0 Z M 160 144 L 16 144 L 160 144 L 16 144 L 16 496 L 16 496 L 160 496 L 160 496 L 160 512 L 160 512 L 8 512 L 0 512 L 0 504 L 0 504 L 0 136 L 0 136 L 0 128 L 0 128 L 8 128 L 160 128 L 160 144 L 160 144 Z M 64 320 L 72 320 L 64 320 L 144 320 L 144 328 L 144 328 L 144 392 L 144 392 L 144 400 L 144 400 L 136 400 L 64 400 L 64 392 L 64 392 L 64 328 L 64 328 L 64 320 L 64 320 Z M 80 336 L 80 384 L 80 336 L 80 384 L 128 384 L 128 384 L 128 336 L 128 336 L 80 336 L 80 336 Z M 72 192 L 136 192 L 72 192 L 144 192 L 144 200 L 144 200 L 144 264 L 144 264 L 144 272 L 144 272 L 136 272 L 64 272 L 64 264 L 64 264 L 64 200 L 64 200 L 64 192 L 64 192 L 72 192 L 72 192 Z M 80 256 L 128 256 L 80 256 L 128 256 L 128 208 L 128 208 L 80 208 L 80 208 L 80 256 L 80 256 Z M 368 400 L 368 392 L 368 400 L 368 392 L 368 328 L 368 328 L 368 320 L 368 320 L 376 320 L 448 320 L 448 328 L 448 328 L 448 392 L 448 392 L 448 400 L 448 400 L 440 400 L 368 400 Z M 384 384 L 432 384 L 384 384 L 432 384 L 432 336 L 432 336 L 384 336 L 384 336 L 384 384 L 384 384 Z M 376 272 L 368 272 L 376 272 L 368 272 L 368 264 L 368 264 L 368 200 L 368 200 L 368 192 L 368 192 L 376 192 L 448 192 L 448 200 L 448 200 L 448 264 L 448 264 L 448 272 L 448 272 L 440 272 L 376 272 Z M 384 208 L 384 256 L 384 208 L 384 256 L 432 256 L 432 256 L 432 208 L 432 208 L 384 208 L 384 208 Z M 256 400 L 256 392 L 256 400 L 256 392 L 256 328 L 256 328 L 256 320 L 256 320 L 264 320 L 336 320 L 336 328 L 336 328 L 336 392 L 336 392 L 336 400 L 336 400 L 328 400 L 256 400 Z M 272 384 L 320 384 L 272 384 L 320 384 L 320 336 L 320 336 L 272 336 L 272 336 L 272 384 L 272 384 Z M 264 72 L 328 72 L 264 72 L 336 72 L 336 80 L 336 80 L 336 144 L 336 144 L 336 152 L 336 152 L 328 152 L 256 152 L 256 144 L 256 144 L 256 80 L 256 80 L 256 72 L 256 72 L 264 72 L 264 72 Z M 272 136 L 320 136 L 272 136 L 320 136 L 320 88 L 320 88 L 272 88 L 272 88 L 272 136 L 272 136 Z M 256 272 L 256 264 L 256 272 L 256 264 L 256 200 L 256 200 L 256 192 L 256 192 L 264 192 L 336 192 L 336 200 L 336 200 L 336 264 L 336 264 L 336 272 L 336 272 L 328 272 L 256 272 Z M 272 256 L 320 256 L 272 256 L 320 256 L 320 208 L 320 208 L 272 208 L 272 208 L 272 256 L 272 256 Z M 376 72 L 440 72 L 376 72 L 448 72 L 448 80 L 448 80 L 448 144 L 448 144 L 448 152 L 448 152 L 440 152 L 368 152 L 368 144 L 368 144 L 368 80 L 368 80 L 368 72 L 368 72 L 376 72 L 376 72 Z M 384 136 L 432 136 L 384 136 L 432 136 L 432 88 L 432 88 L 384 88 L 384 88 L 384 136 L 384 136 Z" />
</svg>