<svg xmlns="http://www.w3.org/2000/svg" viewBox="0 0 480 512">
  <path d="M 128 0 L 120 0 L 128 0 L 0 0 L 0 8 L 0 8 L 0 120 L 0 120 L 0 128 L 0 128 L 16 128 L 16 128 L 16 120 L 16 120 L 16 27 L 16 27 L 77 88 L 77 88 L 58 106 L 58 106 L 53 112 L 53 112 L 64 123 L 64 123 L 70 118 L 70 118 L 88 99 L 88 99 L 114 125 L 114 125 Q 81 167 80 224 Q 82 290 124 334 Q 167 379 232 384 L 232 432 L 232 432 L 184 432 L 176 432 L 176 448 L 176 448 L 184 448 L 232 448 L 232 504 L 232 504 L 232 512 L 232 512 L 248 512 L 248 512 L 248 504 L 248 504 L 248 448 L 248 448 L 296 448 L 304 448 L 304 432 L 304 432 L 296 432 L 248 432 L 248 384 L 248 384 Q 313 379 356 334 Q 398 290 400 224 Q 399 167 366 125 L 464 27 L 464 27 L 464 120 L 464 120 L 464 128 L 464 128 L 480 128 L 480 128 L 480 120 L 480 120 L 480 8 L 480 8 L 480 0 L 480 0 L 472 0 L 352 0 L 352 16 L 352 16 L 360 16 L 453 16 L 356 113 L 356 113 Q 310 66 240 64 Q 170 66 125 113 L 99 88 L 99 88 L 118 70 L 118 70 L 123 64 L 123 64 L 112 53 L 112 53 L 106 58 L 106 58 L 88 77 L 88 77 L 27 16 L 27 16 L 120 16 L 128 16 L 128 0 L 128 0 Z M 240 80 Q 279 80 312 99 L 312 99 L 312 99 Q 345 118 365 152 Q 384 186 384 224 Q 384 262 365 296 Q 345 330 312 349 Q 279 368 240 368 Q 201 368 168 349 Q 135 330 115 296 Q 96 262 96 224 Q 96 186 115 152 Q 135 118 168 99 Q 201 80 240 80 L 240 80 Z" />
</svg>