<svg xmlns="http://www.w3.org/2000/svg" viewBox="0 0 640 448">
  <path d="M 264 0 L 256 0 L 264 0 L 256 0 L 256 16 L 256 16 L 264 16 L 347 16 L 367 55 L 367 55 L 256 134 L 256 134 L 225 116 L 225 116 Q 194 96 158 96 L 40 96 L 40 96 Q 33 97 32 104 L 32 152 L 32 152 L 32 160 L 32 160 L 40 160 L 112 160 Q 184 162 233 209 Q 283 256 288 328 L 288 336 L 288 336 L 288 344 L 288 344 L 296 344 L 352 344 L 352 336 L 352 336 L 352 320 L 352 320 Q 352 275 374 239 Q 396 203 432 182 L 447 210 L 447 210 Q 418 227 401 256 Q 384 285 384 320 Q 385 374 421 411 Q 458 447 512 448 Q 566 447 603 411 Q 639 374 640 320 Q 639 266 603 229 Q 566 193 512 192 Q 485 192 461 203 L 406 96 L 406 96 L 504 96 L 512 96 L 512 88 L 512 88 L 512 8 L 512 8 L 512 0 L 512 0 L 504 0 L 446 0 L 443 2 L 443 2 L 381 46 L 381 46 L 359 4 L 359 4 L 357 0 L 357 0 L 352 0 L 264 0 Z M 261 151 L 375 70 L 261 151 L 375 70 L 425 167 L 425 167 Q 384 190 360 230 Q 337 270 336 320 L 336 328 L 336 328 L 304 328 L 304 328 L 304 328 L 304 328 Q 298 249 245 197 Q 191 146 112 144 L 48 144 L 48 144 L 48 112 L 48 112 L 158 112 L 158 112 Q 190 112 217 129 L 252 151 L 252 151 L 256 154 L 256 154 L 261 151 L 261 151 Z M 496 80 L 398 80 L 496 80 L 398 80 L 388 60 L 388 60 L 451 16 L 451 16 L 496 16 L 496 16 L 496 80 L 496 80 Z M 454 224 L 505 324 L 454 224 L 505 324 L 509 331 L 509 331 L 523 323 L 523 323 L 519 316 L 519 316 L 468 217 L 468 217 Q 489 208 512 208 Q 560 209 591 241 Q 623 272 624 320 Q 623 368 591 399 Q 560 431 512 432 Q 464 431 433 399 Q 401 368 400 320 Q 400 289 415 264 Q 429 239 454 224 L 454 224 Z M 240 312 L 192 312 L 240 312 L 192 312 Q 188 288 171 272 Q 153 257 128 256 Q 101 257 83 275 Q 65 293 64 320 Q 65 347 83 365 Q 101 383 128 384 Q 153 383 171 368 Q 188 352 192 328 L 240 328 L 240 328 Q 236 373 204 402 Q 173 431 128 432 Q 80 431 49 399 Q 17 368 16 320 Q 17 272 49 241 Q 80 209 128 208 Q 173 209 205 238 Q 236 267 240 312 L 240 312 Z M 175 312 L 128 312 L 175 312 L 120 312 L 120 328 L 120 328 L 128 328 L 175 328 Q 172 345 159 357 Q 146 368 128 368 Q 108 367 94 354 Q 81 340 80 320 Q 81 300 94 286 Q 108 273 128 272 Q 146 272 159 283 Q 172 295 175 312 L 175 312 Z M 128 448 Q 163 448 192 431 L 192 431 L 192 431 Q 221 414 239 384 Q 256 354 256 320 Q 256 286 239 256 Q 221 226 192 209 Q 163 192 128 192 Q 93 192 64 209 Q 35 226 17 256 Q 0 286 0 320 Q 0 354 17 384 Q 35 414 64 431 Q 93 448 128 448 L 128 448 Z" />
</svg>