<svg xmlns="http://www.w3.org/2000/svg" viewBox="0 0 384 443">
  <path d="M 198 437 L 192 443 L 198 437 L 192 443 L 186 437 L 186 437 L 50 301 L 50 301 L 45 296 L 45 296 L 56 284 L 56 284 L 62 290 L 62 290 L 184 412 L 184 412 L 184 104 L 184 104 L 184 96 L 184 96 L 200 96 L 200 96 L 200 104 L 200 104 L 200 412 L 200 412 L 322 290 L 322 290 L 328 284 L 328 284 L 339 296 L 339 296 L 334 301 L 334 301 L 198 437 L 198 437 Z M 8 16 L 0 16 L 8 16 L 0 16 L 0 0 L 0 0 L 8 0 L 384 0 L 384 16 L 384 16 L 376 16 L 8 16 Z" />
</svg>