<svg xmlns="http://www.w3.org/2000/svg" viewBox="0 0 512 512">
  <path d="M 256 16 Q 321 17 376 48 L 376 48 L 376 48 Q 431 80 464 136 Q 496 193 496 256 Q 496 319 464 376 Q 431 432 376 464 Q 321 495 256 496 Q 191 495 136 464 Q 81 432 48 376 Q 16 319 16 256 Q 16 193 48 136 Q 81 80 136 48 Q 191 17 256 16 L 256 16 Z M 256 512 Q 326 511 384 478 L 384 478 L 384 478 Q 442 444 478 384 Q 512 323 512 256 Q 512 189 478 128 Q 442 68 384 34 Q 326 1 256 0 Q 186 1 128 34 Q 70 68 34 128 Q 0 189 0 256 Q 0 323 34 384 Q 70 444 128 478 Q 186 511 256 512 L 256 512 Z M 186 175 L 175 186 L 186 175 L 175 186 L 180 192 L 180 192 L 245 256 L 245 256 L 180 321 L 180 321 L 174 326 L 174 326 L 186 338 L 186 338 L 191 332 L 191 332 L 256 267 L 256 267 L 321 332 L 321 332 L 326 338 L 326 338 L 338 326 L 338 326 L 332 321 L 332 321 L 267 256 L 267 256 L 332 191 L 332 191 L 338 186 L 338 186 L 326 174 L 326 174 L 321 180 L 321 180 L 256 245 L 256 245 L 191 180 L 191 180 L 186 174 L 186 175 Z" />
</svg>