<svg xmlns="http://www.w3.org/2000/svg" viewBox="0 0 512 512">
  <path d="M 409 441 Q 449 408 472 360 L 472 360 L 472 360 Q 496 312 496 256 Q 495 189 463 135 Q 431 81 377 49 Q 323 17 256 16 Q 189 17 135 49 Q 81 81 49 135 Q 17 189 16 256 Q 16 312 40 360 Q 63 408 104 441 L 144 320 L 144 320 L 368 320 L 368 320 L 409 441 L 409 441 Z M 395 452 L 357 336 L 395 452 L 357 336 L 156 336 L 156 336 L 117 452 L 117 452 Q 177 495 256 496 Q 335 495 395 452 L 395 452 Z M 400 468 Q 337 511 256 512 Q 175 511 112 468 Q 105 463 99 458 Q 99 458 99 458 Q 98 458 98 458 Q 53 422 27 370 Q 1 318 0 256 Q 1 184 35 127 Q 69 69 127 35 Q 184 1 256 0 Q 328 1 385 35 Q 443 69 477 127 Q 511 184 512 256 Q 511 318 485 370 Q 459 422 414 458 Q 407 463 401 468 L 400 468 L 400 468 Z M 176 208 Q 177 163 216 139 Q 256 117 296 139 Q 335 163 336 208 Q 335 253 296 277 Q 256 299 216 277 Q 177 253 176 208 L 176 208 Z M 256 272 Q 292 271 311 240 Q 329 208 311 176 Q 292 145 256 144 Q 220 145 201 176 Q 183 208 201 240 Q 220 271 256 272 L 256 272 Z" />
</svg>