<svg xmlns="http://www.w3.org/2000/svg" viewBox="0 0 512 512">
  <path d="M 0 512 L 4 494 L 0 512 L 4 494 L 40 352 L 40 352 L 381 11 L 381 11 L 392 0 L 392 0 L 403 11 L 403 11 L 501 109 L 501 109 L 512 120 L 512 120 L 501 131 L 501 131 L 160 472 L 160 472 L 18 508 L 18 508 L 0 512 L 0 512 Z M 160 408 L 160 449 L 160 408 L 160 449 L 411 198 L 411 198 L 314 101 L 314 101 L 63 352 L 63 352 L 104 352 L 112 352 L 112 360 L 112 360 L 112 400 L 112 400 L 152 400 L 160 400 L 160 408 L 160 408 Z M 144 456 L 144 416 L 144 456 L 144 416 L 104 416 L 96 416 L 96 408 L 96 408 L 96 368 L 96 368 L 56 368 L 56 368 Q 54 368 53 367 L 22 490 L 22 490 L 145 459 L 145 459 Q 144 458 144 456 L 144 456 Z M 422 187 L 489 120 L 422 187 L 489 120 L 392 23 L 392 23 L 325 90 L 325 90 L 422 187 L 422 187 Z M 318 173 L 174 317 L 318 173 L 174 317 L 168 323 L 168 323 L 157 312 L 157 312 L 162 306 L 162 306 L 306 162 L 306 162 L 312 156 L 312 156 L 323 167 L 323 167 L 318 173 L 318 173 Z" />
</svg>