<svg xmlns="http://www.w3.org/2000/svg" viewBox="0 0 512 512">
  <path d="M 496 256 Q 495 191 464 136 L 464 136 L 464 136 Q 432 81 376 48 Q 319 16 256 16 Q 193 16 136 48 Q 80 81 48 136 Q 17 191 16 256 Q 17 321 48 376 Q 80 431 136 464 Q 193 496 256 496 Q 319 496 376 464 Q 432 431 464 376 Q 495 321 496 256 L 496 256 Z M 0 256 Q 1 186 34 128 L 34 128 L 34 128 Q 68 70 128 34 Q 189 0 256 0 Q 323 0 384 34 Q 444 70 478 128 Q 511 186 512 256 Q 511 326 478 384 Q 444 442 384 478 Q 323 512 256 512 Q 189 512 128 478 Q 68 442 34 384 Q 1 326 0 256 L 0 256 Z M 256 368 Q 315 368 365 389 Q 355 351 325 328 Q 296 305 256 304 Q 216 305 187 328 Q 157 351 147 389 Q 197 368 256 368 L 256 368 Z M 256 384 Q 194 385 144 407 Q 136 411 128 416 Q 128 406 129 397 Q 137 350 172 319 Q 207 289 256 288 Q 305 289 340 319 Q 375 350 383 397 Q 384 406 384 416 Q 376 411 368 407 Q 318 385 256 384 L 256 384 Z M 211 176 L 206 182 L 211 176 L 206 182 L 198 189 L 198 189 Q 164 223 116 232 L 113 232 L 113 232 L 105 233 L 105 233 L 103 217 L 103 217 L 111 216 L 111 216 L 113 216 L 113 216 Q 156 208 187 178 L 194 170 L 194 170 L 200 165 L 200 165 L 211 176 L 211 176 Z M 306 182 L 301 176 L 306 182 L 301 176 L 312 165 L 312 165 L 318 170 L 318 170 L 325 178 L 325 178 Q 356 208 399 216 L 401 216 L 401 216 L 409 217 L 409 217 L 407 233 L 407 233 L 399 232 L 399 232 L 396 232 L 396 232 Q 348 223 314 189 L 306 182 L 306 182 Z" />
</svg>