<svg xmlns="http://www.w3.org/2000/svg" viewBox="0 0 576 512">
  <path d="M 32 0 L 0 0 L 32 0 L 0 0 L 0 64 L 0 64 L 32 64 L 32 64 L 32 128 L 32 128 L 32 141 L 32 141 L 41 151 L 41 151 L 147 256 L 147 256 L 41 361 L 41 361 L 32 371 L 32 371 L 32 384 L 32 384 L 32 448 L 32 448 L 0 448 L 0 448 L 0 512 L 0 512 L 32 512 L 331 512 Q 295 487 275 448 L 96 448 L 96 448 L 96 397 L 96 397 L 192 301 L 192 301 L 256 365 L 256 365 Q 257 326 273 292 L 237 256 L 237 256 L 343 151 L 343 151 L 352 141 L 352 141 L 352 128 L 352 128 L 352 64 L 352 64 L 384 64 L 384 64 L 384 0 L 384 0 L 352 0 L 32 0 Z M 288 64 L 288 115 L 288 64 L 288 115 L 192 211 L 192 211 L 96 115 L 96 115 L 96 64 L 96 64 L 288 64 L 288 64 Z M 576 368 Q 576 329 557 296 L 557 296 L 557 296 Q 538 263 504 243 Q 470 224 432 224 Q 394 224 360 243 Q 326 263 307 296 Q 288 329 288 368 Q 288 407 307 440 Q 326 473 360 493 Q 394 512 432 512 Q 470 512 504 493 Q 538 473 557 440 Q 576 407 576 368 L 576 368 Z M 448 288 L 448 304 L 448 288 L 448 304 L 448 352 L 448 352 L 480 352 L 496 352 L 496 384 L 496 384 L 480 384 L 416 384 L 416 368 L 416 368 L 416 304 L 416 304 L 416 288 L 416 288 L 448 288 L 448 288 Z" />
</svg>