<svg xmlns="http://www.w3.org/2000/svg" viewBox="0 0 512 512">
  <path d="M 128 32 L 128 96 L 128 32 L 128 96 L 96 96 L 96 96 L 96 32 L 96 32 L 96 0 L 96 0 L 128 0 L 224 0 L 224 32 L 224 32 L 224 96 L 224 96 L 192 96 L 192 96 L 192 32 L 192 32 L 128 32 L 128 32 Z M 192 160 L 128 160 L 192 160 L 96 160 Q 69 161 51 179 Q 33 197 32 224 L 32 480 L 32 480 L 288 480 L 288 480 L 288 224 L 288 224 Q 287 197 269 179 Q 251 161 224 160 L 192 160 L 192 160 Z M 0 224 Q 1 183 28 156 L 28 156 L 28 156 Q 55 129 96 128 L 128 128 L 224 128 Q 265 129 292 156 Q 319 183 320 224 L 320 480 L 320 480 L 320 512 L 320 512 L 288 512 L 0 512 L 0 480 L 0 480 L 0 224 L 0 224 Z M 208 320 Q 207 293 184 278 Q 160 266 136 278 Q 113 293 112 320 Q 113 347 136 362 Q 160 374 184 362 Q 207 347 208 320 L 208 320 Z M 80 320 Q 81 275 120 251 Q 160 229 200 251 Q 239 275 240 320 Q 239 365 200 389 Q 160 411 120 389 Q 81 365 80 320 L 80 320 Z M 352 0 L 352 16 L 352 0 L 352 16 L 352 32 L 352 32 L 368 32 L 384 32 L 384 64 L 384 64 L 368 64 L 352 64 L 352 80 L 352 80 L 352 96 L 352 96 L 320 96 L 320 96 L 320 80 L 320 80 L 320 64 L 320 64 L 304 64 L 288 64 L 288 32 L 288 32 L 304 32 L 320 32 L 320 16 L 320 16 L 320 0 L 320 0 L 352 0 L 352 0 Z M 480 16 L 480 32 L 480 16 L 480 32 L 496 32 L 512 32 L 512 64 L 512 64 L 496 64 L 480 64 L 480 80 L 480 80 L 480 96 L 480 96 L 448 96 L 448 96 L 448 80 L 448 80 L 448 64 L 448 64 L 432 64 L 416 64 L 416 32 L 416 32 L 432 32 L 448 32 L 448 16 L 448 16 L 448 0 L 448 0 L 480 0 L 480 0 L 480 16 L 480 16 Z M 480 208 L 480 224 L 480 208 L 480 224 L 496 224 L 512 224 L 512 256 L 512 256 L 496 256 L 480 256 L 480 272 L 480 272 L 480 288 L 480 288 L 448 288 L 448 288 L 448 272 L 448 272 L 448 256 L 448 256 L 432 256 L 416 256 L 416 224 L 416 224 L 432 224 L 448 224 L 448 208 L 448 208 L 448 192 L 448 192 L 480 192 L 480 192 L 480 208 L 480 208 Z M 416 112 L 416 128 L 416 112 L 416 128 L 432 128 L 448 128 L 448 160 L 448 160 L 432 160 L 416 160 L 416 176 L 416 176 L 416 192 L 416 192 L 384 192 L 384 192 L 384 176 L 384 176 L 384 160 L 384 160 L 368 160 L 352 160 L 352 128 L 352 128 L 368 128 L 384 128 L 384 112 L 384 112 L 384 96 L 384 96 L 416 96 L 416 96 L 416 112 L 416 112 Z" />
</svg>