<svg xmlns="http://www.w3.org/2000/svg" viewBox="0 0 494 448">
  <path d="M 108 435 L 12 339 L 108 435 L 12 339 L 0 328 L 0 328 L 23 305 L 23 305 L 34 317 L 34 317 L 103 385 L 103 385 L 103 16 L 103 16 L 103 0 L 103 0 L 135 0 L 135 0 L 135 16 L 135 16 L 135 385 L 135 385 L 204 317 L 204 317 L 215 305 L 215 305 L 238 328 L 238 328 L 226 339 L 226 339 L 130 435 L 130 435 L 119 447 L 119 447 L 108 435 L 108 435 Z M 364 13 L 375 1 L 364 13 L 375 1 L 386 13 L 386 13 L 482 109 L 482 109 L 494 120 L 494 120 L 471 143 L 471 143 L 460 131 L 460 131 L 391 63 L 391 63 L 391 432 L 391 432 L 391 448 L 391 448 L 359 448 L 359 448 L 359 432 L 359 432 L 359 63 L 359 63 L 290 131 L 290 131 L 279 143 L 279 143 L 256 120 L 256 120 L 268 109 L 268 109 L 364 13 L 364 13 Z" />
</svg>