<svg xmlns="http://www.w3.org/2000/svg" viewBox="0 0 512 512">
  <path d="M 400 128 L 400 144 L 400 128 L 400 144 L 416 144 L 416 144 Q 450 145 473 167 Q 495 190 496 224 L 496 304 L 496 304 L 416 304 L 16 304 L 16 224 L 16 224 Q 16 197 31 177 Q 46 157 69 149 L 80 145 L 80 145 L 80 134 L 80 134 L 80 112 L 80 112 Q 81 71 108 44 Q 135 17 176 16 Q 227 18 255 57 L 263 69 L 263 69 L 276 61 L 276 61 Q 296 48 320 48 Q 354 49 377 71 Q 399 94 400 128 L 400 128 Z M 0 320 L 16 320 L 0 320 L 512 320 L 512 304 L 512 304 L 512 224 L 512 224 Q 511 183 484 156 Q 457 129 416 128 Q 415 87 388 60 Q 361 33 320 32 Q 291 32 268 48 Q 235 2 176 0 Q 128 1 97 33 Q 65 64 64 112 L 64 134 L 64 134 Q 36 144 18 168 Q 1 192 0 224 L 0 304 L 0 304 L 0 320 L 0 320 Z M 48 376 L 48 368 L 48 376 L 48 368 L 32 368 L 32 368 L 32 376 L 32 376 L 32 472 L 32 472 L 32 480 L 32 480 L 48 480 L 48 480 L 48 472 L 48 472 L 48 376 L 48 376 Z M 240 376 L 240 368 L 240 376 L 240 368 L 224 368 L 224 368 L 224 376 L 224 376 L 224 472 L 224 472 L 224 480 L 224 480 L 240 480 L 240 480 L 240 472 L 240 472 L 240 376 L 240 376 Z M 432 376 L 432 368 L 432 376 L 432 368 L 416 368 L 416 368 L 416 376 L 416 376 L 416 472 L 416 472 L 416 480 L 416 480 L 432 480 L 432 480 L 432 472 L 432 472 L 432 376 L 432 376 Z M 144 408 L 144 400 L 144 408 L 144 400 L 128 400 L 128 400 L 128 408 L 128 408 L 128 504 L 128 504 L 128 512 L 128 512 L 144 512 L 144 512 L 144 504 L 144 504 L 144 408 L 144 408 Z M 336 408 L 336 400 L 336 408 L 336 400 L 320 400 L 320 400 L 320 408 L 320 408 L 320 504 L 320 504 L 320 512 L 320 512 L 336 512 L 336 512 L 336 504 L 336 504 L 336 408 L 336 408 Z" />
</svg>