<svg xmlns="http://www.w3.org/2000/svg" viewBox="0 0 640 512">
  <path d="M 528 0 Q 504 1 488 16 L 488 16 L 488 16 Q 473 32 472 56 Q 472 74 482 88 L 414 136 L 414 136 Q 347 97 288 96 Q 230 97 164 135 Q 97 173 50 238 Q 2 303 0 384 L 0 496 L 0 496 L 0 512 L 0 512 L 16 512 L 576 512 L 576 496 L 576 496 L 576 384 L 576 384 Q 576 339 559 298 Q 542 257 514 222 L 501 231 L 501 231 Q 557 298 560 384 L 560 496 L 560 496 L 288 496 L 16 496 L 16 384 L 16 384 Q 17 328 43 279 Q 70 230 113 192 Q 156 154 202 133 Q 249 112 288 112 Q 339 113 399 146 Q 371 162 332 154 Q 282 146 243 174 Q 204 201 194 252 Q 186 302 214 341 Q 242 380 292 390 Q 342 398 381 370 Q 420 342 430 292 Q 434 269 442 249 Q 450 228 466 216 L 541 164 L 541 164 Q 557 183 584 184 Q 608 183 624 168 Q 639 152 640 128 Q 639 104 624 88 Q 608 73 584 72 Q 583 72 583 72 Q 582 72 582 72 Q 584 64 584 56 Q 583 32 568 16 Q 552 1 528 0 L 528 0 Z M 488 56 Q 488 39 500 28 L 500 28 L 500 28 Q 511 16 528 16 Q 545 16 556 28 Q 568 39 568 56 Q 568 65 564 73 L 562 77 L 562 77 L 565 81 L 565 81 L 568 86 L 568 86 L 571 90 L 571 90 L 576 89 L 576 89 Q 580 88 584 88 Q 601 89 612 100 Q 624 111 624 128 Q 624 145 612 156 Q 601 168 584 168 Q 561 167 550 149 L 545 141 L 545 141 L 538 146 L 538 146 L 481 187 L 481 187 Q 481 187 481 187 Q 481 187 481 187 L 467 196 L 467 196 Q 467 196 467 196 Q 467 196 467 196 L 457 203 L 457 203 Q 436 219 427 243 Q 418 266 414 290 Q 406 333 372 357 Q 338 381 294 375 Q 251 366 227 332 Q 203 298 209 254 Q 218 211 252 187 Q 286 163 330 170 Q 349 173 370 172 Q 391 171 409 159 L 498 96 L 498 96 L 506 91 L 506 91 L 499 84 L 499 84 Q 488 73 488 56 L 488 56 Z" />
</svg>