<svg xmlns="http://www.w3.org/2000/svg" viewBox="0 0 448 448">
  <path d="M 448 0 L 0 0 L 448 0 L 0 0 L 0 448 L 0 448 L 448 448 L 448 448 L 448 0 L 448 0 Z M 241 71 L 353 183 L 241 71 L 353 183 L 370 200 L 370 200 L 336 234 L 336 234 L 319 217 L 319 217 L 248 146 L 248 146 L 248 360 L 248 360 L 248 384 L 248 384 L 200 384 L 200 384 L 200 360 L 200 360 L 200 146 L 200 146 L 129 217 L 129 217 L 112 234 L 112 234 L 78 200 L 78 200 L 95 183 L 95 183 L 207 71 L 207 71 L 224 54 L 224 54 L 241 71 L 241 71 Z" />
</svg>