<svg xmlns="http://www.w3.org/2000/svg" viewBox="0 0 640 512">
  <path d="M 16 5 L 10 0 L 16 5 L 10 0 L 0 13 L 0 13 L 6 18 L 6 18 L 624 507 L 624 507 L 630 512 L 630 512 L 640 500 L 640 500 L 634 495 L 634 495 L 16 5 L 16 5 Z M 416 178 L 416 160 L 416 178 L 416 160 L 416 80 L 416 80 L 416 64 L 416 64 L 400 64 L 193 64 L 213 80 L 213 80 L 400 80 L 400 80 L 400 168 L 400 168 L 400 227 L 400 227 L 416 240 L 416 240 L 416 178 L 416 178 Z M 48 432 L 48 133 L 48 432 L 48 133 L 32 120 L 32 120 L 32 432 L 32 432 L 32 448 L 32 448 L 48 448 L 416 448 L 416 432 L 416 432 L 416 424 L 416 424 L 400 411 L 400 411 L 400 432 L 400 432 L 48 432 L 48 432 Z M 592 90 L 592 379 L 592 90 L 592 379 L 608 392 L 608 392 L 608 82 L 608 82 L 608 64 L 608 64 L 592 72 L 592 72 L 448 144 L 448 144 L 448 162 L 448 162 L 592 90 L 592 90 Z" />
</svg>