<svg xmlns="http://www.w3.org/2000/svg" viewBox="0 0 512 512">
  <path d="M 496 256 Q 495 191 464 136 L 464 136 L 464 136 Q 432 81 376 48 Q 319 16 256 16 Q 193 16 136 48 Q 80 81 48 136 Q 17 191 16 256 Q 17 321 48 376 Q 80 431 136 464 Q 193 496 256 496 Q 319 496 376 464 Q 432 431 464 376 Q 495 321 496 256 L 496 256 Z M 0 256 Q 1 186 34 128 L 34 128 L 34 128 Q 68 70 128 34 Q 189 0 256 0 Q 323 0 384 34 Q 444 70 478 128 Q 511 186 512 256 Q 511 326 478 384 Q 444 442 384 478 Q 323 512 256 512 Q 189 512 128 478 Q 68 442 34 384 Q 1 326 0 256 L 0 256 Z M 248 320 L 264 320 L 248 320 L 264 320 Q 298 321 321 343 Q 343 366 344 400 L 344 408 L 344 408 L 344 416 L 344 416 L 336 416 L 168 416 L 168 408 L 168 408 L 168 400 L 168 400 Q 169 366 191 343 Q 214 321 248 320 L 248 320 Z M 184 400 L 328 400 L 184 400 L 328 400 Q 327 373 309 355 Q 291 337 264 336 L 248 336 L 248 336 Q 221 337 203 355 Q 185 373 184 400 L 184 400 Z M 144 224 Q 146 209 160 208 Q 175 209 176 224 Q 175 239 160 240 Q 146 239 144 224 L 144 224 Z M 352 208 Q 367 209 368 224 Q 367 239 352 240 Q 338 239 336 224 Q 338 209 352 208 L 352 208 Z M 201 96 L 193 96 L 201 96 L 193 96 Q 143 100 110 135 L 104 141 L 104 141 L 93 130 L 93 130 L 98 124 L 98 124 Q 135 85 192 80 L 200 80 L 200 80 L 201 96 L 201 96 Z M 320 96 L 312 96 L 320 96 L 312 96 L 313 80 L 313 80 L 321 80 L 321 80 Q 377 85 414 124 L 419 130 L 419 130 L 408 141 L 408 141 L 402 135 L 402 135 Q 369 100 320 96 L 320 96 Z M 160 168 Q 128 169 112 196 Q 96 224 112 252 Q 128 279 160 280 Q 192 279 208 252 Q 224 224 208 196 Q 192 169 160 168 L 160 168 Z M 232 224 Q 231 265 196 286 Q 160 306 124 286 Q 89 265 88 224 Q 89 183 124 162 Q 160 142 196 162 Q 231 183 232 224 L 232 224 Z M 296 224 Q 297 256 324 272 Q 352 288 380 272 Q 407 256 408 224 Q 407 192 380 176 Q 352 160 324 176 Q 297 192 296 224 L 296 224 Z M 352 296 Q 311 295 290 260 Q 270 224 290 188 Q 311 153 352 152 Q 393 153 414 188 Q 434 224 414 260 Q 393 295 352 296 L 352 296 Z" />
</svg>