<svg xmlns="http://www.w3.org/2000/svg" viewBox="0 0 512 512">
  <path d="M 272 16 L 272 80 L 272 16 L 272 80 L 240 80 L 240 80 L 240 16 L 240 16 L 272 16 L 272 16 Z M 224 16 L 224 80 L 224 16 L 224 80 L 80 80 L 80 80 L 80 40 L 80 40 L 80 32 L 80 32 L 64 32 L 64 32 L 64 40 L 64 40 L 64 80 L 64 80 L 16 80 L 16 80 L 16 40 L 16 40 L 16 32 L 16 32 L 0 32 L 0 32 L 0 40 L 0 40 L 0 80 L 0 80 L 0 88 L 0 88 L 0 96 L 0 96 L 0 128 L 0 128 L 0 144 L 0 144 L 16 144 L 102 144 L 224 228 L 224 228 L 224 272 L 224 272 L 80 272 L 80 272 L 80 232 L 80 232 L 80 224 L 80 224 L 64 224 L 64 224 L 64 232 L 64 232 L 64 272 L 64 272 L 16 272 L 16 272 L 16 232 L 16 232 L 16 224 L 16 224 L 0 224 L 0 224 L 0 232 L 0 232 L 0 272 L 0 272 L 0 280 L 0 280 L 0 288 L 0 288 L 0 320 L 0 320 L 0 336 L 0 336 L 16 336 L 102 336 L 224 420 L 224 420 L 224 504 L 224 504 L 224 512 L 224 512 L 240 512 L 240 512 L 240 504 L 240 504 L 240 336 L 240 336 L 272 336 L 272 336 L 272 504 L 272 504 L 272 512 L 272 512 L 288 512 L 288 512 L 288 504 L 288 504 L 288 420 L 288 420 L 411 336 L 411 336 L 496 336 L 512 336 L 512 320 L 512 320 L 512 288 L 512 288 L 512 280 L 512 280 L 512 272 L 512 272 L 512 232 L 512 232 L 512 224 L 512 224 L 496 224 L 496 224 L 496 232 L 496 232 L 496 272 L 496 272 L 448 272 L 448 272 L 448 232 L 448 232 L 448 224 L 448 224 L 432 224 L 432 224 L 432 232 L 432 232 L 432 272 L 432 272 L 288 272 L 288 272 L 288 228 L 288 228 L 411 144 L 411 144 L 496 144 L 512 144 L 512 128 L 512 128 L 512 96 L 512 96 L 512 88 L 512 88 L 512 80 L 512 80 L 512 40 L 512 40 L 512 32 L 512 32 L 496 32 L 496 32 L 496 40 L 496 40 L 496 80 L 496 80 L 448 80 L 448 80 L 448 40 L 448 40 L 448 32 L 448 32 L 432 32 L 432 32 L 432 40 L 432 40 L 432 80 L 432 80 L 288 80 L 288 80 L 288 16 L 288 16 L 288 0 L 288 0 L 272 0 L 224 0 L 224 16 L 224 16 Z M 382 144 L 288 209 L 382 144 L 288 209 L 288 144 L 288 144 L 382 144 L 382 144 Z M 382 336 L 288 401 L 382 336 L 288 401 L 288 336 L 288 336 L 382 336 L 382 336 Z M 224 401 L 130 336 L 224 401 L 130 336 L 224 336 L 224 336 L 224 401 L 224 401 Z M 224 209 L 130 144 L 224 209 L 130 144 L 224 144 L 224 144 L 224 209 L 224 209 Z M 240 320 L 224 320 L 240 320 L 16 320 L 16 288 L 16 288 L 224 288 L 496 288 L 496 320 L 496 320 L 288 320 L 240 320 Z M 272 144 L 272 272 L 272 144 L 272 272 L 240 272 L 240 272 L 240 144 L 240 144 L 272 144 L 272 144 Z M 288 128 L 272 128 L 288 128 L 16 128 L 16 96 L 16 96 L 224 96 L 496 96 L 496 128 L 496 128 L 288 128 L 288 128 Z" />
</svg>