<svg xmlns="http://www.w3.org/2000/svg" viewBox="0 0 640 512">
  <path d="M 224 32 Q 250 32 272 45 L 272 45 L 272 45 Q 294 58 307 80 Q 320 103 320 128 Q 320 153 307 176 Q 294 198 272 211 Q 250 224 224 224 Q 198 224 176 211 Q 154 198 141 176 Q 128 153 128 128 Q 128 103 141 80 Q 154 58 176 45 Q 198 32 224 32 L 224 32 Z M 224 256 Q 259 256 288 239 L 288 239 L 288 239 Q 317 222 335 192 Q 352 162 352 128 Q 352 94 335 64 Q 317 34 288 17 Q 259 0 224 0 Q 189 0 160 17 Q 131 34 113 64 Q 96 94 96 128 Q 96 162 113 192 Q 131 222 160 239 Q 189 256 224 256 L 224 256 Z M 88 336 L 360 336 L 88 336 L 360 336 L 405 480 L 405 480 L 43 480 L 43 480 L 88 336 L 88 336 Z M 384 304 L 64 304 L 384 304 L 64 304 L 10 480 L 10 480 L 0 512 L 0 512 L 34 512 L 448 512 L 438 480 L 438 480 L 384 304 L 384 304 Z M 432 224 L 416 224 L 432 224 L 416 224 L 416 256 L 416 256 L 432 256 L 640 256 L 640 224 L 640 224 L 624 224 L 432 224 Z" />
</svg>