<svg xmlns="http://www.w3.org/2000/svg" viewBox="0 0 640 512">
  <path d="M 448 512 Q 323 511 222 451 L 222 451 L 222 451 Q 121 391 61 290 L 61 290 L 61 290 Q 1 189 0 64 L 0 32 L 0 32 L 144 0 L 144 0 L 224 144 L 224 144 L 140 211 L 140 211 Q 196 316 301 372 L 368 288 L 368 288 L 512 368 L 512 368 L 480 512 L 480 512 L 448 512 L 448 512 Z M 16 64 Q 16 64 16 64 L 16 64 L 16 64 Q 16 64 16 64 Q 17 185 75 282 Q 133 379 230 437 Q 327 495 448 496 L 467 496 L 467 496 L 494 376 L 494 376 L 372 309 L 372 309 L 313 382 L 313 382 L 305 392 L 305 392 L 293 386 L 293 386 Q 185 327 126 219 L 120 207 L 120 207 L 130 199 L 130 199 L 203 140 L 203 140 L 136 18 L 136 18 L 16 45 L 16 45 L 16 64 L 16 64 Z M 304 80 L 304 112 L 304 80 L 304 112 L 336 112 L 336 112 L 336 80 L 336 80 L 304 80 L 304 80 Z M 288 64 L 304 64 L 288 64 L 352 64 L 352 80 L 352 80 L 352 112 L 352 112 L 352 128 L 352 128 L 336 128 L 288 128 L 288 112 L 288 112 L 288 80 L 288 80 L 288 64 L 288 64 Z M 336 176 L 304 176 L 336 176 L 304 176 L 304 208 L 304 208 L 336 208 L 336 208 L 336 176 L 336 176 Z M 304 160 L 336 160 L 304 160 L 352 160 L 352 176 L 352 176 L 352 208 L 352 208 L 352 224 L 352 224 L 336 224 L 288 224 L 288 208 L 288 208 L 288 176 L 288 176 L 288 160 L 288 160 L 304 160 L 304 160 Z M 400 80 L 400 112 L 400 80 L 400 112 L 432 112 L 432 112 L 432 80 L 432 80 L 400 80 L 400 80 Z M 384 64 L 400 64 L 384 64 L 448 64 L 448 80 L 448 80 L 448 112 L 448 112 L 448 128 L 448 128 L 432 128 L 384 128 L 384 112 L 384 112 L 384 80 L 384 80 L 384 64 L 384 64 Z M 528 80 L 496 80 L 528 80 L 496 80 L 496 112 L 496 112 L 528 112 L 528 112 L 528 80 L 528 80 Z M 496 64 L 528 64 L 496 64 L 544 64 L 544 80 L 544 80 L 544 112 L 544 112 L 544 128 L 544 128 L 528 128 L 480 128 L 480 112 L 480 112 L 480 80 L 480 80 L 480 64 L 480 64 L 496 64 L 496 64 Z M 592 80 L 592 112 L 592 80 L 592 112 L 624 112 L 624 112 L 624 80 L 624 80 L 592 80 L 592 80 Z M 576 64 L 592 64 L 576 64 L 640 64 L 640 80 L 640 80 L 640 112 L 640 112 L 640 128 L 640 128 L 624 128 L 576 128 L 576 112 L 576 112 L 576 80 L 576 80 L 576 64 L 576 64 Z M 624 176 L 592 176 L 624 176 L 592 176 L 592 208 L 592 208 L 624 208 L 624 208 L 624 176 L 624 176 Z M 592 160 L 624 160 L 592 160 L 640 160 L 640 176 L 640 176 L 640 208 L 640 208 L 640 224 L 640 224 L 624 224 L 576 224 L 576 208 L 576 208 L 576 176 L 576 176 L 576 160 L 576 160 L 592 160 L 592 160 Z M 400 176 L 400 208 L 400 176 L 400 208 L 528 208 L 528 208 L 528 176 L 528 176 L 400 176 L 400 176 Z M 384 160 L 400 160 L 384 160 L 544 160 L 544 176 L 544 176 L 544 208 L 544 208 L 544 224 L 544 224 L 528 224 L 384 224 L 384 208 L 384 208 L 384 176 L 384 176 L 384 160 L 384 160 Z" />
</svg>