<svg xmlns="http://www.w3.org/2000/svg" viewBox="0 0 384 512">
  <path d="M 16 16 L 208 16 L 16 16 L 208 16 L 208 168 L 208 168 L 208 176 L 208 176 L 216 176 L 368 176 L 368 496 L 368 496 L 16 496 L 16 496 L 16 16 L 16 16 Z M 224 23 L 361 160 L 224 23 L 361 160 L 224 160 L 224 160 L 224 23 L 224 23 Z M 224 0 L 16 0 L 224 0 L 0 0 L 0 16 L 0 16 L 0 496 L 0 496 L 0 512 L 0 512 L 16 512 L 384 512 L 384 496 L 384 496 L 384 160 L 384 160 L 224 0 L 224 0 Z M 104 224 L 96 224 L 104 224 L 96 224 L 96 232 L 96 232 L 96 312 L 96 312 L 96 392 L 96 392 L 96 400 L 96 400 L 112 400 L 112 400 L 112 392 L 112 392 L 112 320 L 112 320 L 165 320 L 165 320 L 229 384 L 229 384 L 186 426 L 186 426 L 181 432 L 181 432 L 192 443 L 192 443 L 198 438 L 198 438 L 240 395 L 240 395 L 282 438 L 282 438 L 288 443 L 288 443 L 299 432 L 299 432 L 294 426 L 294 426 L 251 384 L 251 384 L 294 342 L 294 342 L 299 336 L 299 336 L 288 325 L 288 325 L 282 330 L 282 330 L 240 373 L 240 373 L 186 319 L 186 319 Q 203 315 213 302 Q 224 290 224 272 Q 223 252 210 238 Q 196 225 176 224 L 104 224 L 104 224 Z M 176 304 L 112 304 L 176 304 L 112 304 L 112 240 L 112 240 L 176 240 L 176 240 Q 190 240 199 249 Q 208 258 208 272 Q 208 286 199 295 Q 190 304 176 304 L 176 304 Z" />
</svg>