<svg xmlns="http://www.w3.org/2000/svg" viewBox="0 0 576 448">
  <path d="M 136 16 L 136 240 L 136 16 L 136 240 L 216 240 L 216 240 L 216 160 L 216 160 L 216 144 L 216 144 L 232 144 L 360 144 L 360 160 L 360 160 L 360 240 L 360 240 L 440 240 L 440 240 L 440 16 L 440 16 L 136 16 L 136 16 Z M 360 320 L 360 336 L 360 320 L 360 336 L 344 336 L 216 336 L 216 320 L 216 320 L 216 256 L 216 256 L 136 256 L 136 256 L 136 432 L 136 432 L 440 432 L 440 432 L 440 256 L 440 256 L 360 256 L 360 256 L 360 320 L 360 320 Z M 120 16 Q 75 20 46 51 L 46 51 L 46 51 Q 17 83 16 128 L 16 240 L 16 240 L 120 240 L 120 240 L 120 16 L 120 16 Z M 16 256 L 16 432 L 16 256 L 16 432 L 120 432 L 120 432 L 120 256 L 120 256 L 16 256 L 16 256 Z M 456 432 L 560 432 L 456 432 L 560 432 L 560 256 L 560 256 L 456 256 L 456 256 L 456 432 L 456 432 Z M 560 240 L 560 128 L 560 240 L 560 128 Q 559 83 530 51 Q 501 20 456 16 L 456 240 L 456 240 L 560 240 L 560 240 Z M 0 128 Q 1 74 37 37 L 37 37 L 37 37 Q 74 1 128 0 L 448 0 L 448 0 Q 502 1 539 37 Q 575 74 576 128 L 576 432 L 576 432 L 576 448 L 576 448 L 560 448 L 0 448 L 0 432 L 0 432 L 0 128 L 0 128 Z M 344 160 L 232 160 L 344 160 L 232 160 L 232 320 L 232 320 L 344 320 L 344 320 L 344 160 L 344 160 Z M 296 208 L 296 272 L 296 208 L 296 272 L 296 280 L 296 280 L 280 280 L 280 280 L 280 272 L 280 272 L 280 208 L 280 208 L 280 200 L 280 200 L 296 200 L 296 200 L 296 208 L 296 208 Z" />
</svg>