<svg xmlns="http://www.w3.org/2000/svg" viewBox="0 0 448 448">
  <path d="M 216 440 L 216 448 L 216 440 L 216 448 L 232 448 L 232 448 L 232 440 L 232 440 L 232 232 L 232 232 L 440 232 L 448 232 L 448 216 L 448 216 L 440 216 L 232 216 L 232 8 L 232 8 L 232 0 L 232 0 L 216 0 L 216 0 L 216 8 L 216 8 L 216 216 L 216 216 L 8 216 L 0 216 L 0 232 L 0 232 L 8 232 L 216 232 L 216 440 L 216 440 Z M 16 432 L 48 432 L 16 432 L 48 432 L 48 400 L 48 400 L 16 400 L 16 400 L 16 432 L 16 432 Z M 400 432 L 432 432 L 400 432 L 432 432 L 432 400 L 432 400 L 400 400 L 400 400 L 400 432 L 400 432 Z M 16 336 L 48 336 L 16 336 L 48 336 L 48 304 L 48 304 L 16 304 L 16 304 L 16 336 L 16 336 Z M 400 336 L 432 336 L 400 336 L 432 336 L 432 304 L 432 304 L 400 304 L 400 304 L 400 336 L 400 336 Z M 432 144 L 432 112 L 432 144 L 432 112 L 400 112 L 400 112 L 400 144 L 400 144 L 432 144 L 432 144 Z M 16 144 L 48 144 L 16 144 L 48 144 L 48 112 L 48 112 L 16 112 L 16 112 L 16 144 L 16 144 Z M 432 48 L 432 16 L 432 48 L 432 16 L 400 16 L 400 16 L 400 48 L 400 48 L 432 48 L 432 48 Z M 48 48 L 48 16 L 48 48 L 48 16 L 16 16 L 16 16 L 16 48 L 16 48 L 48 48 L 48 48 Z M 336 48 L 336 16 L 336 48 L 336 16 L 304 16 L 304 16 L 304 48 L 304 48 L 336 48 L 336 48 Z M 304 432 L 336 432 L 304 432 L 336 432 L 336 400 L 336 400 L 304 400 L 304 400 L 304 432 L 304 432 Z M 144 48 L 144 16 L 144 48 L 144 16 L 112 16 L 112 16 L 112 48 L 112 48 L 144 48 L 144 48 Z M 112 432 L 144 432 L 112 432 L 144 432 L 144 400 L 144 400 L 112 400 L 112 400 L 112 432 L 112 432 Z" />
</svg>