<svg xmlns="http://www.w3.org/2000/svg" viewBox="0 0 444 384">
  <path d="M 438 198 L 444 192 L 438 198 L 444 192 L 438 187 L 438 187 L 302 51 L 302 51 L 296 45 L 296 45 L 285 56 L 285 56 L 291 62 L 291 62 L 413 184 L 413 184 L 104 184 L 96 184 L 96 200 L 96 200 L 104 200 L 413 200 L 291 323 L 291 323 L 285 328 L 285 328 L 296 340 L 296 340 L 302 334 L 302 334 L 438 198 L 438 198 Z M 16 8 L 16 0 L 16 8 L 16 0 L 0 0 L 0 0 L 0 8 L 0 8 L 0 376 L 0 376 L 0 384 L 0 384 L 16 384 L 16 384 L 16 376 L 16 376 L 16 8 L 16 8 Z" />
</svg>