<svg xmlns="http://www.w3.org/2000/svg" viewBox="0 0 484 509">
  <path d="M 242 0 L 254 4 L 242 0 L 254 4 L 461 84 L 461 84 L 480 92 L 480 92 L 481 112 L 481 112 Q 484 150 476 203 Q 468 255 444 312 Q 420 369 374 420 Q 328 471 255 503 L 242 509 L 242 509 L 229 503 L 229 503 Q 156 471 110 420 Q 64 369 40 312 Q 16 255 8 203 Q 0 150 3 112 L 4 92 L 4 92 L 23 84 L 23 84 L 231 4 L 231 4 L 242 0 L 242 0 Z M 210 202 L 146 138 L 210 202 L 146 138 L 146 266 L 146 266 Q 147 307 174 334 Q 201 361 242 362 Q 283 361 310 334 Q 337 307 338 266 L 338 138 L 338 138 L 274 202 L 274 202 L 210 202 L 210 202 Z M 202 250 Q 217 251 218 266 Q 217 281 202 282 Q 187 281 186 266 Q 187 251 202 250 L 202 250 Z M 266 266 Q 267 251 282 250 Q 297 251 298 266 Q 297 281 282 282 Q 267 281 266 266 L 266 266 Z" />
</svg>