<svg xmlns="http://www.w3.org/2000/svg" viewBox="0 0 512 448">
  <path d="M 224 0 L 272 64 L 224 0 L 272 64 L 496 64 L 512 64 L 512 80 L 512 80 L 512 432 L 512 432 L 512 448 L 512 448 L 496 448 L 0 448 L 0 432 L 0 432 L 0 16 L 0 16 L 0 0 L 0 0 L 16 0 L 224 0 Z M 272 80 L 264 80 L 272 80 L 264 80 L 259 74 L 259 74 L 216 16 L 216 16 L 16 16 L 16 16 L 16 432 L 16 432 L 496 432 L 496 432 L 496 80 L 496 80 L 272 80 L 272 80 Z M 186 175 L 192 180 L 186 175 L 192 180 L 256 245 L 256 245 L 321 180 L 321 180 L 326 174 L 326 174 L 338 186 L 338 186 L 332 191 L 332 191 L 267 256 L 267 256 L 332 321 L 332 321 L 338 326 L 338 326 L 326 338 L 326 338 L 321 332 L 321 332 L 256 267 L 256 267 L 191 332 L 191 332 L 186 338 L 186 338 L 174 326 L 174 326 L 180 321 L 180 321 L 245 256 L 245 256 L 180 191 L 180 191 L 174 186 L 174 186 L 186 174 L 186 175 Z" />
</svg>