<svg xmlns="http://www.w3.org/2000/svg" viewBox="0 0 512 512">
  <path d="M 80 160 L 64 160 L 80 160 L 64 160 L 64 16 L 64 16 L 64 0 L 64 0 L 80 0 L 384 0 L 448 64 L 448 64 L 448 160 L 448 160 L 432 160 L 432 160 L 432 71 L 432 71 L 377 16 L 377 16 L 80 16 L 80 16 L 80 160 L 80 160 Z M 496 208 L 16 208 L 496 208 L 16 208 L 16 400 L 16 400 L 64 400 L 64 400 L 64 336 L 64 336 L 64 320 L 64 320 L 80 320 L 448 320 L 448 336 L 448 336 L 448 400 L 448 400 L 496 400 L 496 400 L 496 208 L 496 208 Z M 448 416 L 448 496 L 448 416 L 448 496 L 448 512 L 448 512 L 432 512 L 64 512 L 64 496 L 64 496 L 64 416 L 64 416 L 16 416 L 0 416 L 0 400 L 0 400 L 0 208 L 0 208 L 0 192 L 0 192 L 16 192 L 512 192 L 512 208 L 512 208 L 512 400 L 512 400 L 512 416 L 512 416 L 496 416 L 448 416 Z M 80 336 L 80 496 L 80 336 L 80 496 L 432 496 L 432 496 L 432 336 L 432 336 L 80 336 L 80 336 Z M 448 288 L 416 288 L 448 288 L 416 288 L 416 256 L 416 256 L 448 256 L 448 256 L 448 288 L 448 288 Z" />
</svg>