<svg xmlns="http://www.w3.org/2000/svg" viewBox="0 0 576 512">
  <path d="M 368 16 L 16 16 L 368 16 L 16 16 L 16 496 L 16 496 L 311 496 L 311 496 Q 320 505 331 512 L 16 512 L 0 512 L 0 496 L 0 496 L 0 16 L 0 16 L 0 0 L 0 0 L 16 0 L 384 0 L 384 16 L 384 16 L 384 199 L 384 199 Q 376 201 368 204 L 368 16 L 368 16 Z M 64 128 L 72 128 L 64 128 L 320 128 L 320 144 L 320 144 L 312 144 L 64 144 L 64 128 L 64 128 Z M 72 224 L 280 224 L 72 224 L 288 224 L 288 240 L 288 240 L 280 240 L 64 240 L 64 224 L 64 224 L 72 224 L 72 224 Z M 72 320 L 216 320 L 72 320 L 224 320 L 224 336 L 224 336 L 216 336 L 64 336 L 64 320 L 64 320 L 72 320 L 72 320 Z M 432 496 Q 467 496 496 479 L 496 479 L 496 479 Q 525 462 543 432 Q 560 402 560 368 Q 560 334 543 304 Q 525 274 496 257 Q 467 240 432 240 Q 397 240 368 257 Q 339 274 321 304 Q 304 334 304 368 Q 304 402 321 432 Q 339 462 368 479 Q 397 496 432 496 L 432 496 Z M 432 224 Q 471 224 504 243 L 504 243 L 504 243 Q 537 262 557 296 Q 576 330 576 368 Q 576 406 557 440 Q 537 474 504 493 Q 471 512 432 512 Q 393 512 360 493 Q 327 474 307 440 Q 288 406 288 368 Q 288 330 307 296 Q 327 262 360 243 Q 393 224 432 224 L 432 224 Z M 507 328 L 502 334 L 507 328 L 502 334 L 422 414 L 422 414 L 416 419 L 416 419 L 410 414 L 410 414 L 362 366 L 362 366 L 356 360 L 356 360 L 368 349 L 368 349 L 374 354 L 374 354 L 416 397 L 416 397 L 490 322 L 490 322 L 496 317 L 496 317 L 507 328 L 507 328 Z" />
</svg>