<svg xmlns="http://www.w3.org/2000/svg" viewBox="0 0 384 512">
  <path d="M 16 16 L 16 496 L 16 16 L 16 496 L 368 496 L 368 496 L 368 135 L 368 135 L 249 16 L 249 16 L 16 16 L 16 16 Z M 256 0 L 384 128 L 256 0 L 384 128 L 384 496 L 384 496 L 384 512 L 384 512 L 368 512 L 0 512 L 0 496 L 0 496 L 0 16 L 0 16 L 0 0 L 0 0 L 16 0 L 256 0 Z M 80 288 L 80 352 L 80 288 L 80 352 L 152 352 L 304 352 L 304 288 L 304 288 L 232 288 L 80 288 Z M 240 368 L 240 432 L 240 368 L 240 432 L 304 432 L 304 432 L 304 368 L 304 368 L 240 368 L 240 368 Z M 320 448 L 304 448 L 320 448 L 64 448 L 64 432 L 64 432 L 64 208 L 64 208 L 64 192 L 64 192 L 80 192 L 320 192 L 320 208 L 320 208 L 320 432 L 320 432 L 320 448 L 320 448 Z M 240 208 L 240 272 L 240 208 L 240 272 L 304 272 L 304 272 L 304 208 L 304 208 L 240 208 L 240 208 Z M 160 208 L 160 272 L 160 208 L 160 272 L 224 272 L 224 272 L 224 208 L 224 208 L 160 208 L 160 208 Z M 144 208 L 80 208 L 144 208 L 80 208 L 80 272 L 80 272 L 144 272 L 144 272 L 144 208 L 144 208 Z M 144 432 L 144 368 L 144 432 L 144 368 L 80 368 L 80 368 L 80 432 L 80 432 L 144 432 L 144 432 Z M 160 432 L 224 432 L 160 432 L 224 432 L 224 368 L 224 368 L 160 368 L 160 368 L 160 432 L 160 432 Z" />
</svg>