<svg xmlns="http://www.w3.org/2000/svg" viewBox="0 0 416 432">
  <path d="M 0 0 L 0 32 L 0 0 L 0 32 L 32 32 L 32 32 L 32 0 L 32 0 L 0 0 L 0 0 Z M 128 0 L 96 0 L 128 0 L 96 0 L 96 32 L 96 32 L 128 32 L 128 32 L 128 0 L 128 0 Z M 224 0 L 192 0 L 224 0 L 192 0 L 192 32 L 192 32 L 224 32 L 224 32 L 224 0 L 224 0 Z M 320 0 L 288 0 L 320 0 L 288 0 L 288 32 L 288 32 L 320 32 L 320 32 L 320 0 L 320 0 Z M 384 0 L 384 32 L 384 0 L 384 32 L 416 32 L 416 32 L 416 0 L 416 0 L 384 0 L 384 0 Z M 144 240 L 128 240 L 144 240 L 48 240 L 48 256 L 48 256 L 48 272 L 48 272 L 197 421 L 197 421 L 208 432 L 208 432 L 219 421 L 219 421 L 368 272 L 368 272 L 368 256 L 368 256 L 368 240 L 368 240 L 352 240 L 272 240 L 272 224 L 272 224 L 272 96 L 272 96 L 272 80 L 272 80 L 256 80 L 144 80 L 144 96 L 144 96 L 144 224 L 144 224 L 144 240 L 144 240 Z M 144 256 L 160 256 L 144 256 L 160 256 L 160 240 L 160 240 L 160 96 L 160 96 L 256 96 L 256 96 L 256 240 L 256 240 L 256 256 L 256 256 L 272 256 L 352 256 L 352 265 L 352 265 L 208 409 L 208 409 L 64 265 L 64 265 L 64 256 L 64 256 L 144 256 L 144 256 Z" />
</svg>