<svg xmlns="http://www.w3.org/2000/svg" viewBox="0 0 576 384">
  <path d="M 16 16 L 16 368 L 16 16 L 16 368 L 560 368 L 560 368 L 560 16 L 560 16 L 16 16 L 16 16 Z M 0 0 L 16 0 L 0 0 L 576 0 L 576 16 L 576 16 L 576 368 L 576 368 L 576 384 L 576 384 L 560 384 L 0 384 L 0 368 L 0 368 L 0 16 L 0 16 L 0 0 L 0 0 Z M 480 240 L 480 256 L 480 240 L 480 256 L 256 256 L 256 256 L 256 240 L 256 240 L 480 240 L 480 240 Z M 256 144 L 480 144 L 256 144 L 480 144 L 480 160 L 480 160 L 256 160 L 256 160 L 256 144 L 256 144 Z M 152 96 L 152 113 L 152 96 L 152 113 Q 155 113 158 113 Q 162 114 170 116 Q 178 117 182 118 L 178 134 L 178 134 Q 174 133 167 131 Q 159 130 155 129 Q 133 126 120 133 Q 106 139 105 150 Q 103 158 106 162 Q 108 166 113 170 Q 126 178 146 183 Q 146 183 146 183 Q 146 183 146 183 L 147 183 L 147 183 Q 167 188 184 199 Q 193 205 197 214 Q 202 224 199 237 Q 195 259 175 267 Q 164 271 152 272 L 152 288 L 152 288 L 152 296 L 152 296 L 136 296 L 136 296 L 136 288 L 136 288 L 136 271 L 136 271 Q 133 271 131 271 Q 131 271 131 271 Q 131 271 131 271 Q 116 267 99 261 Q 99 261 99 261 Q 99 261 99 261 Q 99 261 99 261 Q 99 261 99 261 Q 99 261 99 261 Q 99 261 99 261 Q 99 261 99 261 Q 97 261 95 260 Q 94 260 94 259 L 86 257 L 86 257 L 91 242 L 91 242 L 99 244 L 99 244 Q 100 245 101 245 Q 103 246 104 246 Q 104 246 104 246 Q 104 246 104 246 Q 104 246 104 246 Q 104 246 104 246 Q 106 246 107 247 Q 122 252 133 255 Q 140 256 147 256 L 147 256 L 147 256 Q 160 256 169 252 Q 181 246 184 234 Q 185 225 183 221 Q 180 216 175 212 Q 163 204 142 198 L 140 198 L 140 198 Q 140 198 140 197 Q 120 193 104 183 Q 96 178 91 168 Q 87 159 89 147 Q 93 126 113 118 Q 123 113 136 112 L 136 96 L 136 96 L 136 88 L 136 88 L 152 88 L 152 88 L 152 96 L 152 96 Z" />
</svg>