<svg xmlns="http://www.w3.org/2000/svg" viewBox="0 0 376 448">
  <path d="M 196 0 L 196 8 L 196 0 L 196 8 L 196 209 L 196 209 L 368 97 L 368 97 L 376 111 L 376 111 L 203 224 L 203 224 L 376 337 L 376 337 L 368 351 L 368 351 L 196 239 L 196 239 L 196 440 L 196 440 L 196 448 L 196 448 L 180 448 L 180 448 L 180 440 L 180 440 L 180 239 L 180 239 L 8 351 L 8 351 L 0 337 L 0 337 L 173 224 L 173 224 L 0 111 L 0 111 L 8 97 L 8 97 L 180 209 L 180 209 L 180 8 L 180 8 L 180 0 L 180 0 L 196 0 L 196 0 Z" />
</svg>