<svg xmlns="http://www.w3.org/2000/svg" viewBox="0 0 512 512">
  <path d="M 56 8 L 56 0 L 56 8 L 56 0 L 40 0 L 40 0 L 40 8 L 40 8 L 40 40 L 40 40 L 8 40 L 0 40 L 0 56 L 0 56 L 8 56 L 40 56 L 40 88 L 40 88 L 40 96 L 40 96 L 56 96 L 56 96 L 56 88 L 56 88 L 56 56 L 56 56 L 88 56 L 96 56 L 96 40 L 96 40 L 88 40 L 56 40 L 56 8 L 56 8 Z M 472 328 L 472 320 L 472 328 L 472 320 L 456 320 L 456 320 L 456 328 L 456 328 L 456 360 L 456 360 L 424 360 L 416 360 L 416 376 L 416 376 L 424 376 L 456 376 L 456 408 L 456 408 L 456 416 L 456 416 L 472 416 L 472 416 L 472 408 L 472 408 L 472 376 L 472 376 L 504 376 L 512 376 L 512 360 L 512 360 L 504 360 L 472 360 L 472 328 L 472 328 Z M 104 448 L 96 448 L 104 448 L 96 448 L 96 456 L 96 456 L 96 504 L 96 504 L 96 512 L 96 512 L 112 512 L 112 512 L 112 504 L 112 504 L 112 464 L 112 464 L 400 464 L 400 464 L 400 504 L 400 504 L 400 512 L 400 512 L 416 512 L 416 512 L 416 504 L 416 504 L 416 456 L 416 456 L 416 448 L 416 448 L 408 448 L 104 448 Z M 288 48 Q 288 62 279 71 L 279 71 L 279 71 Q 270 80 256 80 Q 242 80 233 71 Q 224 62 224 48 Q 224 34 233 25 Q 242 16 256 16 Q 270 16 279 25 Q 288 34 288 48 L 288 48 Z M 256 0 Q 229 1 214 24 Q 202 48 214 72 Q 229 95 256 96 Q 283 95 298 72 Q 310 48 298 24 Q 283 1 256 0 L 256 0 Z M 168 384 L 160 384 L 168 384 L 160 384 L 160 400 L 160 400 L 168 400 L 352 400 L 352 384 L 352 384 L 344 384 L 168 384 Z M 160 320 L 160 336 L 160 320 L 160 336 L 168 336 L 352 336 L 352 320 L 352 320 L 344 320 L 160 320 Z M 104 256 L 96 256 L 104 256 L 96 256 L 96 272 L 96 272 L 104 272 L 416 272 L 416 256 L 416 256 L 408 256 L 104 256 Z M 128 192 L 128 208 L 128 192 L 128 208 L 136 208 L 384 208 L 384 192 L 384 192 L 376 192 L 128 192 Z M 200 128 L 192 128 L 200 128 L 192 128 L 192 144 L 192 144 L 200 144 L 320 144 L 320 128 L 320 128 L 312 128 L 200 128 Z" />
</svg>