<svg xmlns="http://www.w3.org/2000/svg" viewBox="0 0 444 507">
  <path d="M 303 0 L 309 5 L 303 0 L 309 5 L 437 117 L 437 117 L 444 123 L 444 123 L 437 129 L 437 129 L 309 241 L 309 241 L 303 246 L 303 246 L 293 234 L 293 234 L 299 229 L 299 229 L 411 131 L 411 131 L 16 131 L 16 131 L 16 275 L 16 275 L 16 283 L 16 283 L 0 283 L 0 283 L 0 275 L 0 275 L 0 123 L 0 123 L 0 115 L 0 115 L 8 115 L 411 115 L 299 17 L 299 17 L 293 12 L 293 12 L 303 0 L 303 0 Z M 215 256 L 221 261 L 215 256 L 221 261 L 349 373 L 349 373 L 356 379 L 356 379 L 349 385 L 349 385 L 221 497 L 221 497 L 215 502 L 215 502 L 205 490 L 205 490 L 211 485 L 211 485 L 323 387 L 323 387 L 16 387 L 16 387 L 16 499 L 16 499 L 16 507 L 16 507 L 0 507 L 0 507 L 0 499 L 0 499 L 0 379 L 0 379 L 0 371 L 0 371 L 8 371 L 323 371 L 211 273 L 211 273 L 205 268 L 205 268 L 215 256 L 215 256 Z" />
</svg>