<svg xmlns="http://www.w3.org/2000/svg" viewBox="0 0 448 448">
  <path d="M 16 16 L 16 432 L 16 16 L 16 432 L 432 432 L 432 432 L 432 16 L 432 16 L 16 16 L 16 16 Z M 0 0 L 16 0 L 0 0 L 448 0 L 448 16 L 448 16 L 448 432 L 448 432 L 448 448 L 448 448 L 432 448 L 0 448 L 0 432 L 0 432 L 0 16 L 0 16 L 0 0 L 0 0 Z M 80 224 Q 80 254 90 275 L 90 275 L 90 275 Q 99 297 112 311 Q 124 325 133 332 Q 136 334 138 335 Q 139 336 139 336 L 309 336 L 309 336 Q 311 334 315 332 Q 324 325 337 311 Q 349 297 358 275 Q 368 254 368 224 Q 368 194 358 173 Q 349 151 337 137 Q 324 123 315 116 Q 312 114 310 113 Q 309 112 309 112 L 139 112 L 139 112 Q 137 114 133 116 Q 124 123 111 137 Q 99 151 90 173 Q 80 194 80 224 L 80 224 Z M 64 224 Q 65 180 82 152 L 82 152 L 82 152 Q 99 123 116 110 L 116 110 L 116 110 Q 133 96 134 96 L 314 96 L 314 96 Q 315 96 332 110 Q 349 123 366 152 Q 383 180 384 224 Q 383 268 366 296 Q 349 325 332 338 Q 315 352 314 352 L 134 352 L 134 352 Q 133 352 116 338 Q 99 325 82 296 Q 65 268 64 224 L 64 224 Z M 168 160 L 168 168 L 168 160 L 168 168 L 168 232 L 168 232 L 168 240 L 168 240 L 152 240 L 152 240 L 152 232 L 152 232 L 152 168 L 152 168 L 152 160 L 152 160 L 168 160 L 168 160 Z M 296 160 L 296 168 L 296 160 L 296 168 L 296 232 L 296 232 L 296 240 L 296 240 L 280 240 L 280 240 L 280 232 L 280 232 L 280 168 L 280 168 L 280 160 L 280 160 L 296 160 L 296 160 Z M 240 272 Q 239 257 224 256 Q 209 257 208 272 L 208 288 L 208 288 L 240 288 L 240 288 L 240 272 L 240 272 Z M 192 272 Q 192 258 201 249 L 201 249 L 201 249 Q 210 240 224 240 Q 238 240 247 249 Q 256 258 256 272 L 256 288 L 256 288 L 256 304 L 256 304 L 240 304 L 192 304 L 192 288 L 192 288 L 192 272 L 192 272 Z" />
</svg>