<svg xmlns="http://www.w3.org/2000/svg" viewBox="0 0 634 511">
  <path d="M 205 88 Q 220 88 230 77 L 230 77 L 230 77 Q 241 67 241 52 Q 241 37 230 27 Q 220 16 205 16 Q 190 16 180 27 Q 169 37 169 52 Q 169 67 180 77 Q 190 88 205 88 L 205 88 Z M 205 0 Q 234 1 250 26 Q 264 52 250 78 Q 234 103 205 104 Q 176 103 160 78 Q 146 52 160 26 Q 176 1 205 0 L 205 0 Z M 224 270 L 221 264 L 224 270 L 221 264 L 211 243 L 211 243 L 204 265 L 204 265 L 192 305 L 192 305 L 245 362 L 245 362 L 250 368 L 250 368 L 252 376 L 252 376 L 276 464 L 276 464 L 280 479 L 280 479 L 284 494 L 284 494 L 269 499 L 269 499 L 238 507 L 238 507 L 223 511 L 223 511 L 218 496 L 218 496 L 214 481 L 214 481 L 192 400 L 192 400 L 121 323 L 121 323 Q 99 296 107 263 L 118 219 L 118 219 L 124 199 L 124 199 L 105 208 L 105 208 L 87 216 L 87 216 L 75 250 L 75 250 L 70 265 L 70 265 L 65 281 L 65 281 L 50 275 L 50 275 L 20 265 L 20 265 L 5 260 L 5 260 L 10 245 L 10 245 L 15 230 L 15 230 L 31 182 L 31 182 L 35 168 L 35 168 L 48 163 L 48 163 L 120 131 L 120 131 L 129 127 L 129 127 L 139 129 L 139 129 L 219 145 L 219 145 L 235 148 L 235 148 L 242 162 L 242 162 L 277 232 L 277 232 L 301 244 L 301 244 L 315 251 L 315 251 L 308 266 L 308 266 L 294 294 L 294 294 L 287 309 L 287 309 L 272 301 L 272 301 L 239 285 L 239 285 L 229 280 L 229 280 L 224 270 L 224 270 Z M 233 373 L 180 316 L 233 373 L 180 316 L 174 309 L 174 309 L 177 301 L 177 301 L 195 238 L 195 238 L 207 199 L 207 199 L 225 236 L 225 236 L 239 263 L 239 263 L 241 268 L 241 268 L 246 270 L 246 270 L 280 287 L 280 287 L 294 259 L 294 259 L 270 246 L 270 246 L 265 244 L 265 244 L 263 239 L 263 239 L 227 169 L 227 169 L 224 162 L 224 162 L 216 160 L 216 160 L 136 144 L 136 144 L 131 143 L 131 143 L 127 145 L 127 145 L 55 177 L 55 177 L 48 180 L 48 180 L 46 187 L 46 187 L 30 235 L 30 235 L 25 250 L 25 250 L 55 260 L 55 260 L 60 245 L 60 245 L 72 210 L 72 210 L 74 204 L 74 204 L 81 201 L 81 201 L 117 185 L 117 185 L 148 171 L 148 171 L 139 203 L 139 203 L 122 267 L 122 267 Q 116 292 133 312 L 204 389 L 204 389 L 207 392 L 207 392 L 208 396 L 208 396 L 230 476 L 230 476 L 234 492 L 234 492 L 265 483 L 265 483 L 261 468 L 261 468 L 237 380 L 237 380 L 236 376 L 236 376 L 233 373 L 233 373 Z M 66 398 L 91 336 L 66 398 L 91 336 Q 94 340 98 344 L 103 349 L 103 349 L 81 404 L 81 404 L 79 407 L 79 407 L 77 409 L 77 409 L 34 453 L 34 453 L 22 464 L 22 464 L 45 487 L 45 487 L 56 475 L 56 475 L 104 427 L 104 427 L 107 425 L 107 425 L 108 422 L 108 422 L 126 376 L 126 376 L 138 389 L 138 389 L 123 428 L 123 428 L 120 434 L 120 434 L 116 439 L 116 439 L 68 487 L 68 487 L 56 498 L 56 498 L 45 509 L 45 509 L 34 498 L 34 498 L 11 475 L 11 475 L 0 464 L 0 464 L 11 453 L 11 453 L 22 441 L 22 441 L 66 398 L 66 398 Z M 530 170 L 626 250 L 530 170 L 626 250 L 634 256 L 634 256 L 626 262 L 626 262 L 530 342 L 530 342 L 524 347 L 524 347 L 514 335 L 514 335 L 520 330 L 520 330 L 599 264 L 599 264 L 389 264 L 381 264 L 381 248 L 381 248 L 389 248 L 599 248 L 520 182 L 520 182 L 514 177 L 514 177 L 524 165 L 524 165 L 530 170 L 530 170 Z" />
</svg>