<svg xmlns="http://www.w3.org/2000/svg" viewBox="0 0 512 512">
  <path d="M 494.93332 51.2 L 512 34.133335 L 477.86667 0 L 460.8 17.066668 L 332.29803 145.56863 Q 331.29413 133.52158 327.27844 122.47843 L 329.2863 120.47059 L 393.53726 56.21961 L 410.6039 39.152943 L 376.47058 5.019608 L 359.40393 22.086275 L 304.18823 77.30196 Q 300.17255 73.28628 295.15295 68.26667 L 295.15295 68.26667 L 262.02353 35.137257 L 227.8902 68.26667 L 249.97647 117.458824 L 249.97647 117.458824 L 227.8902 68.26667 Q 201.78824 94.36863 196.76863 128.50197 L 181.70981 114.44706 L 147.57648 148.5804 L 170.66667 197.77255 L 170.66667 197.77255 L 147.57648 148.5804 Q 122.47843 174.68236 116.4549 207.81177 L 102.4 193.75687 L 68.26667 227.8902 L 91.356865 277.08237 L 91.356865 277.08237 L 68.26667 227.8902 Q 35.137257 262.02353 35.137257 307.2 Q 35.137257 352.37646 68.26667 386.5098 L 80.31373 397.55295 L 80.31373 397.55295 L 17.066668 460.8 L 0 477.86667 L 34.133335 512 L 51.2 494.93332 L 114.44706 431.68628 L 125.4902 443.73334 Q 159.62354 475.85883 204.8 475.85883 Q 249.97647 475.85883 284.1098 443.73334 L 234.91765 420.64313 L 234.91765 420.64313 L 284.1098 443.73334 L 318.24313 409.6 L 304.18823 394.54117 Q 337.31766 389.52158 363.41962 363.41962 L 314.22745 341.33334 L 314.22745 341.33334 L 363.41962 363.41962 L 397.55295 330.2902 L 383.49805 315.23138 Q 416.62744 310.21176 442.7294 284.1098 L 393.53726 262.02353 L 393.53726 262.02353 L 442.7294 284.1098 L 476.86273 250.9804 L 442.7294 216.84706 L 442.7294 216.84706 Q 438.7137 211.82745 434.69803 208.81569 L 489.91373 152.59608 L 506.98038 135.52942 L 472.84705 101.39608 L 455.7804 118.462746 L 391.52942 182.71373 L 390.52548 184.72157 Q 378.47842 180.70589 366.43137 179.70197 L 494.93332 51.2 L 494.93332 51.2 Z M 327.27844 230.90196 Q 349.36472 223.87451 370.44705 228.89412 L 370.44705 228.89412 Q 392.53333 233.91373 409.6 249.97647 Q 402.57254 257.00394 394.54117 262.02353 L 327.27844 230.90196 L 327.27844 230.90196 Z M 327.27844 230.90196 L 394.54117 262.02353 Q 375.46667 271.05884 354.3843 268.04706 Q 334.30588 266.0392 318.24313 249.97647 L 308.20392 239.93726 Q 317.23923 233.91373 328.28235 230.90196 L 327.27844 230.90196 Z M 327.27844 230.90196 L 319.24707 226.88628 L 319.24707 226.88628 L 327.27844 230.90196 L 327.27844 230.90196 L 327.27844 230.90196 Z M 247.96863 310.21176 Q 269.051 303.18433 291.13727 308.20392 L 291.13727 308.20392 Q 312.2196 313.22354 329.2863 330.2902 Q 322.25882 336.31372 314.22745 341.33334 L 247.96863 310.21176 L 247.96863 310.21176 Z M 247.96863 310.21176 L 247.96863 310.21176 L 239.93726 306.19608 L 239.93726 306.19608 L 247.96863 310.21176 L 247.96863 310.21176 Z M 247.96863 310.21176 L 314.22745 341.33334 Q 296.15686 350.36862 275.07452 348.36078 Q 254.99608 345.34903 238.93333 330.2902 L 228.89412 319.24707 Q 237.92941 313.22354 247.96863 310.21176 L 247.96863 310.21176 Z M 168.65883 389.52158 Q 189.74118 383.49805 211.82745 387.51373 L 211.82745 387.51373 Q 232.9098 392.53333 249.97647 409.6 Q 242.94902 416.62744 234.91765 420.64313 L 168.65883 389.52158 L 168.65883 389.52158 Z M 168.65883 389.52158 L 160.62746 385.5059 L 160.62746 385.5059 L 168.65883 389.52158 L 168.65883 389.52158 L 168.65883 389.52158 Z M 168.65883 389.52158 L 234.91765 420.64313 Q 215.84314 430.68234 195.76471 427.6706 Q 175.68628 424.6588 159.62354 409.6 L 149.58432 399.5608 Q 158.61961 392.53333 168.65883 389.52158 L 168.65883 389.52158 Z M 122.47843 343.3412 Q 118.462746 353.3804 112.43922 362.41568 L 102.4 352.37646 Q 87.34118 336.31372 84.329414 316.2353 Q 81.31765 295.15295 91.356865 277.08237 L 122.47843 343.3412 L 122.47843 343.3412 Z M 122.47843 343.3412 L 126.49412 351.37256 L 126.49412 351.37256 L 122.47843 343.3412 L 122.47843 343.3412 L 122.47843 343.3412 Z M 122.47843 343.3412 L 91.356865 277.08237 Q 95.37255 269.051 102.4 262.02353 Q 119.46667 279.0902 124.486275 300.17255 Q 128.50197 322.25882 122.47843 343.3412 L 122.47843 343.3412 Z M 201.78824 264.03137 Q 198.77647 274.0706 192.75294 283.1059 L 181.70981 273.06668 Q 166.65099 257.00394 163.63922 236.92549 Q 160.62746 215.84314 170.66667 197.77255 L 201.78824 264.03137 L 201.78824 264.03137 Z M 201.78824 264.03137 L 205.80392 272.06274 L 205.80392 272.06274 L 201.78824 264.03137 L 201.78824 264.03137 L 201.78824 264.03137 Z M 201.78824 264.03137 L 170.66667 197.77255 Q 175.68628 188.73726 181.70981 182.71373 Q 198.77647 199.7804 203.79608 220.86275 Q 208.81569 242.94902 201.78824 264.03137 L 201.78824 264.03137 Z M 281.09805 184.72157 Q 278.08627 194.76079 272.06274 203.79608 L 262.02353 193.75687 Q 245.96078 177.69412 242.94902 157.61569 Q 240.94118 136.53334 249.97647 117.458824 L 281.09805 184.72157 L 281.09805 184.72157 Z M 281.09805 184.72157 L 285.11374 192.75294 L 285.11374 192.75294 L 281.09805 184.72157 L 281.09805 184.72157 L 281.09805 184.72157 Z M 281.09805 184.72157 L 249.97647 117.458824 Q 254.99608 109.42745 262.02353 102.4 Q 278.08627 119.46667 283.1059 141.55295 Q 288.1255 162.6353 281.09805 184.72157 L 281.09805 184.72157 Z" />
</svg>