<svg xmlns="http://www.w3.org/2000/svg" viewBox="0 0 356 512">
  <path d="M 194 96 Q 221 95 239 77 L 239 77 L 239 77 Q 257 59 258 32 L 258 16 L 258 16 L 242 16 L 242 16 Q 215 17 197 35 Q 179 53 178 80 L 178 96 L 178 96 L 194 96 L 194 96 Z M 162 112 L 162 96 L 162 112 L 162 96 L 162 80 L 162 80 Q 163 46 185 23 Q 208 1 242 0 L 258 0 L 274 0 L 274 16 L 274 16 L 274 32 L 274 32 Q 273 66 251 89 Q 228 111 194 112 L 178 112 L 162 112 Z M 66 128 L 178 160 L 66 128 L 178 160 L 290 128 L 290 128 Q 321 128 343 145 Q 350 149 356 155 Q 349 160 342 165 Q 311 189 293 225 Q 274 261 274 304 Q 274 345 291 380 Q 308 415 338 440 Q 344 445 351 450 Q 346 456 341 462 Q 296 511 242 512 L 178 496 L 178 496 L 114 512 L 114 512 Q 60 511 15 462 Q 10 456 5 449 Q 12 445 18 440 Q 48 415 65 380 Q 82 345 82 304 Q 82 261 63 225 Q 45 189 14 165 Q 7 160 0 155 Q 6 149 13 145 Q 35 128 66 128 L 66 128 Z M 182 175 L 178 177 L 182 175 L 178 177 L 174 175 L 174 175 L 64 144 L 64 144 Q 43 145 27 155 Q 60 181 79 220 Q 98 258 98 304 Q 98 349 79 387 Q 60 425 28 452 Q 68 494 112 496 L 174 480 L 174 480 L 178 479 L 178 479 L 182 480 L 182 480 L 244 496 L 244 496 Q 288 494 328 452 Q 296 425 277 387 Q 258 349 258 304 Q 258 258 277 220 Q 296 181 329 155 Q 313 145 292 144 L 182 175 L 182 175 Z" />
</svg>