<svg xmlns="http://www.w3.org/2000/svg" viewBox="0 0 384 512">
  <path d="M 112 8 L 112 0 L 112 8 L 112 0 L 96 0 L 96 0 L 96 8 L 96 8 L 96 48 L 96 48 L 48 48 L 40 48 L 40 64 L 40 64 L 48 64 L 96 64 L 96 96 L 96 96 L 48 96 L 40 96 L 40 112 L 40 112 L 48 112 L 96 112 L 96 160 L 96 160 L 40 160 L 0 160 L 0 176 L 0 176 L 8 176 L 32 176 L 32 496 L 32 496 L 8 496 L 0 496 L 0 512 L 0 512 L 8 512 L 384 512 L 384 496 L 384 496 L 376 496 L 352 496 L 352 176 L 352 176 L 376 176 L 384 176 L 384 160 L 384 160 L 376 160 L 288 160 L 288 112 L 288 112 L 336 112 L 344 112 L 344 96 L 344 96 L 336 96 L 288 96 L 288 64 L 288 64 L 336 64 L 344 64 L 344 48 L 344 48 L 336 48 L 288 48 L 288 8 L 288 8 L 288 0 L 288 0 L 272 0 L 272 0 L 272 8 L 272 8 L 272 48 L 272 48 L 224 48 L 216 48 L 216 64 L 216 64 L 224 64 L 272 64 L 272 96 L 272 96 L 224 96 L 216 96 L 216 112 L 216 112 L 224 112 L 272 112 L 272 160 L 272 160 L 112 160 L 112 160 L 112 112 L 112 112 L 160 112 L 168 112 L 168 96 L 168 96 L 160 96 L 112 96 L 112 64 L 112 64 L 160 64 L 168 64 L 168 48 L 168 48 L 160 48 L 112 48 L 112 8 L 112 8 Z M 272 176 L 288 176 L 272 176 L 336 176 L 336 496 L 336 496 L 48 496 L 48 496 L 48 176 L 48 176 L 96 176 L 272 176 Z M 202 312 L 198 330 L 202 312 L 198 330 L 217 331 L 217 331 L 265 334 L 265 334 L 170 419 L 170 419 L 182 360 L 182 360 L 186 342 L 186 342 L 167 341 L 167 341 L 119 338 L 119 338 L 214 253 L 214 253 L 202 312 L 202 312 Z M 304 320 L 282 319 L 304 320 L 282 319 L 234 316 L 234 316 L 217 315 L 217 315 L 221 299 L 221 299 L 234 235 L 234 235 L 240 208 L 240 208 L 220 226 L 220 226 L 97 337 L 97 337 L 80 352 L 80 352 L 103 353 L 103 353 L 150 356 L 150 356 L 167 357 L 167 357 L 163 373 L 163 373 L 150 437 L 150 437 L 144 464 L 144 464 L 164 446 L 164 446 L 287 335 L 287 335 L 304 320 L 304 320 Z" />
</svg>