<svg xmlns="http://www.w3.org/2000/svg" viewBox="0 0 473 448">
  <path d="M 374 0 L 372 5 L 374 0 L 372 5 L 285 192 L 285 192 L 303 192 L 303 192 L 325 144 L 325 144 L 433 144 L 433 144 L 456 192 L 456 192 L 473 192 L 473 192 L 386 5 L 386 5 L 384 0 L 384 0 L 374 0 L 374 0 Z M 426 128 L 332 128 L 426 128 L 332 128 L 379 27 L 379 27 L 426 128 L 426 128 Z M 129 10 L 123 5 L 129 10 L 123 5 L 117 10 L 117 10 L 5 122 L 5 122 L 0 128 L 0 128 L 11 139 L 11 139 L 17 134 L 17 134 L 115 35 L 115 35 L 115 440 L 115 440 L 115 448 L 115 448 L 131 448 L 131 448 L 131 440 L 131 440 L 131 35 L 131 35 L 229 134 L 229 134 L 235 139 L 235 139 L 246 128 L 246 128 L 241 122 L 241 122 L 129 10 L 129 10 Z M 307 256 L 299 256 L 307 256 L 299 256 L 299 272 L 299 272 L 307 272 L 440 272 L 301 427 L 301 427 L 299 429 L 299 429 L 299 432 L 299 432 L 299 440 L 299 440 L 299 448 L 299 448 L 307 448 L 459 448 L 459 432 L 459 432 L 451 432 L 318 432 L 457 277 L 457 277 L 459 275 L 459 275 L 459 272 L 459 272 L 459 264 L 459 264 L 459 256 L 459 256 L 451 256 L 307 256 Z" />
</svg>