<svg xmlns="http://www.w3.org/2000/svg" viewBox="0 0 512 512">
  <path d="M 48 140 Q 49 87 84 52 L 84 52 L 84 52 Q 119 17 172 16 L 212 16 L 212 16 Q 279 17 336 44 L 338 45 L 338 45 L 341 45 L 341 45 L 454 20 L 454 20 L 462 26 L 462 26 L 426 105 L 426 105 L 423 110 L 423 110 L 427 114 L 427 114 Q 494 191 496 300 Q 494 363 453 405 Q 411 446 348 448 L 261 448 L 256 448 L 254 453 L 254 453 L 235 496 L 235 496 L 180 496 L 180 496 L 207 435 L 207 435 L 209 432 L 209 432 L 207 429 L 207 429 L 180 368 L 180 368 L 235 368 L 235 368 L 254 411 L 254 411 L 256 416 L 256 416 L 261 416 L 332 416 Q 364 415 386 394 Q 407 372 408 340 Q 407 308 386 286 Q 364 265 332 264 L 328 264 L 320 264 L 320 272 L 320 272 L 320 352 L 320 352 L 293 352 L 293 352 L 214 274 L 214 274 L 212 272 L 212 272 L 208 272 L 16 272 L 16 256 L 16 256 L 16 240 L 16 240 L 16 231 L 16 231 L 24 226 L 24 226 L 58 206 L 58 206 L 65 203 L 65 203 L 61 196 L 61 196 Q 48 170 48 140 L 48 140 Z M 172 0 Q 113 2 73 41 L 73 41 L 73 41 Q 34 81 32 140 Q 32 170 44 196 L 16 212 L 16 212 L 4 219 L 4 219 L 0 222 L 0 222 L 0 226 L 0 226 L 0 240 L 0 240 L 0 256 L 0 256 L 0 280 L 0 280 L 0 288 L 0 288 L 8 288 L 205 288 L 284 366 L 284 366 L 287 368 L 287 368 L 290 368 L 336 368 L 336 360 L 336 360 L 336 280 L 336 280 Q 360 282 376 299 Q 391 316 392 340 Q 391 365 374 382 Q 357 399 332 400 L 267 400 L 267 400 L 247 357 L 247 357 L 245 352 L 245 352 L 240 352 L 156 352 L 161 363 L 161 363 L 191 432 L 191 432 L 161 501 L 161 501 L 156 512 L 156 512 L 168 512 L 245 512 L 247 507 L 247 507 L 267 464 L 267 464 L 348 464 L 348 464 Q 418 462 464 416 Q 510 370 512 300 Q 510 188 442 108 L 479 27 L 479 27 L 482 22 L 482 22 L 477 18 L 477 18 L 461 5 L 461 5 L 458 3 L 458 3 L 454 3 L 454 3 L 340 28 L 340 28 Q 281 1 212 0 L 172 0 L 172 0 Z M 144 160 Q 159 159 160 144 Q 159 129 144 128 Q 129 129 128 144 Q 129 159 144 160 L 144 160 Z" />
</svg>