<svg xmlns="http://www.w3.org/2000/svg" viewBox="0 0 640 512">
  <path d="M 16 5 L 10 0 L 16 5 L 10 0 L 0 13 L 0 13 L 6 18 L 6 18 L 624 507 L 624 507 L 630 512 L 630 512 L 640 500 L 640 500 L 634 495 L 634 495 L 16 5 L 16 5 Z M 435 438 L 435 488 L 435 438 L 435 488 L 325 459 L 325 459 L 323 459 L 321 459 L 211 488 L 211 488 L 211 447 L 211 447 L 272 401 L 272 401 L 275 399 L 275 399 L 275 395 L 275 395 L 275 326 L 275 326 L 275 315 L 275 315 L 265 318 L 265 318 L 83 368 L 83 368 L 83 296 L 83 296 L 184 240 L 184 240 L 170 229 L 170 229 L 71 284 L 71 284 L 67 286 L 67 286 L 67 291 L 67 291 L 67 379 L 67 379 L 67 389 L 67 389 L 77 387 L 77 387 L 259 336 L 259 336 L 259 391 L 259 391 L 198 436 L 198 436 L 195 439 L 195 439 L 195 443 L 195 443 L 195 499 L 195 499 L 195 509 L 195 509 L 205 506 L 205 506 L 323 475 L 323 475 L 441 506 L 441 506 L 451 509 L 451 509 L 451 499 L 451 499 L 451 451 L 451 451 L 435 438 L 435 438 Z M 259 92 L 259 116 L 259 92 L 259 116 L 275 129 L 275 129 L 275 92 L 275 92 Q 275 70 290 45 Q 306 20 323 19 Q 340 20 356 44 Q 370 70 371 92 L 371 185 L 371 185 L 371 190 L 371 190 L 375 192 L 375 192 L 563 296 L 563 296 L 563 356 L 563 356 L 579 369 L 579 369 L 579 291 L 579 291 L 579 286 L 579 286 L 575 284 L 575 284 L 387 180 L 387 180 L 387 92 L 387 92 Q 386 65 370 36 Q 362 23 350 13 Q 338 3 323 3 Q 308 3 296 13 Q 284 23 277 36 Q 260 65 259 92 L 259 92 Z" />
</svg>