<svg xmlns="http://www.w3.org/2000/svg" viewBox="0 0 576 448">
  <path d="M 32 32 L 32 416 L 32 32 L 32 416 L 544 416 L 544 416 L 544 32 L 544 32 L 32 32 L 32 32 Z M 0 0 L 32 0 L 0 0 L 576 0 L 576 32 L 576 32 L 576 416 L 576 416 L 576 448 L 576 448 L 544 448 L 0 448 L 0 416 L 0 416 L 0 32 L 0 32 L 0 0 L 0 0 Z M 112 224 L 304 224 L 112 224 L 320 224 L 320 256 L 320 256 L 304 256 L 96 256 L 96 224 L 96 224 L 112 224 L 112 224 Z M 368 224 L 464 224 L 368 224 L 480 224 L 480 256 L 480 256 L 464 256 L 352 256 L 352 224 L 352 224 L 368 224 L 368 224 Z M 112 320 L 208 320 L 112 320 L 224 320 L 224 352 L 224 352 L 208 352 L 96 352 L 96 320 L 96 320 L 112 320 L 112 320 Z M 272 320 L 464 320 L 272 320 L 480 320 L 480 352 L 480 352 L 464 352 L 256 352 L 256 320 L 256 320 L 272 320 L 272 320 Z" />
</svg>