<svg xmlns="http://www.w3.org/2000/svg" viewBox="0 0 448 448">
  <path d="M 432 16 L 16 16 L 432 16 L 16 16 L 16 432 L 16 432 L 432 432 L 432 432 L 432 16 L 432 16 Z M 448 0 L 448 16 L 448 0 L 448 16 L 448 432 L 448 432 L 448 448 L 448 448 L 432 448 L 0 448 L 0 432 L 0 432 L 0 16 L 0 16 L 0 0 L 0 0 L 16 0 L 448 0 Z M 160 96 L 176 96 L 160 96 L 200 96 L 320 224 L 320 224 L 200 352 L 200 352 L 176 352 L 160 352 L 160 336 L 160 336 L 160 112 L 160 112 L 160 96 L 160 96 Z M 193 336 L 298 224 L 193 336 L 298 224 L 193 112 L 193 112 L 176 112 L 176 112 L 176 336 L 176 336 L 193 336 L 193 336 Z" />
</svg>