<svg xmlns="http://www.w3.org/2000/svg" viewBox="0 0 512 512">
  <path d="M 268.8 64 L 268.8 166.4 L 243.2 166.4 L 243.2 64 L 243.2 51.2 L 268.8 51.2 L 268.8 64 L 268.8 64 Z M 204.8 153.6 L 204.8 201.6 L 179.2 176 L 179.2 153.6 L 134.4 153.6 Q 107.2 190.4 84.8 230.4 Q 61.6 269.6 44 309.6 Q 26.4 350.4 25.6 389.6 Q 26.4 408.8 39.2 421.6 Q 52 434.4 71.2 435.2 Q 98.4 434.4 132 424.8 Q 143.2 420.8 156.8 416.8 Q 160 416 164 414.4 Q 164 414.4 164 414.4 L 184.8 435.2 Q 178.4 436.8 171.2 439.2 Q 168 440 165.6 440.8 L 165.6 440.8 Q 141.6 448.8 118.4 454.4 Q 94.4 460.8 71.2 460.8 Q 40.8 460 20.8 440 Q 0.8 420 0 389.6 Q 1.6 344.8 20.8 300 Q 40 256 62.4 217.6 Q 89.6 171.2 121.6 128 L 179.2 128 L 204.8 128 L 204.8 153.6 L 204.8 153.6 Z M 355.2 416.8 Q 368.8 420.8 380.8 424.8 Q 413.6 434.4 440.8 435.2 Q 460 434.4 472.8 421.6 Q 485.6 408.8 486.4 389.6 Q 485.6 350.4 468 309.6 Q 450.4 269.6 427.2 230.4 Q 404.8 190.4 377.6 153.6 L 332.8 153.6 L 332.8 176 L 307.2 201.6 L 307.2 153.6 L 307.2 128 L 332.8 128 L 390.4 128 Q 422.4 171.2 449.6 217.6 Q 472 256 491.2 300 Q 510.4 344.8 512 389.6 Q 511.2 420 491.2 440 Q 471.2 460 440.8 460.8 Q 417.6 460.8 393.6 454.4 Q 370.4 448.8 346.4 440.8 Q 343.2 440 340 439.2 Q 333.6 436.8 327.2 435.2 L 348 414.4 Q 349.6 415.2 352 416 Q 353.6 416 356 416.8 L 355.2 416.8 Z M 256 374.4 Q 293.6 372.8 313.6 340.8 Q 332 307.2 313.6 273.6 Q 293.6 241.6 256 240 Q 218.4 241.6 198.4 273.6 Q 180 307.2 198.4 340.8 Q 218.4 372.8 256 374.4 L 256 374.4 Z M 153.6 320 L 140.8 320 L 140.8 307.2 L 140.8 294.4 L 153.6 294.4 Q 173.6 292.8 180.8 276 Q 188 259.2 174.4 244 L 174.4 244 L 165.6 235.2 L 174.4 225.6 L 174.4 225.6 L 184 216.8 L 192.8 225.6 Q 208 239.2 224.8 232 Q 241.6 224.8 243.2 204.8 L 243.2 192 L 256 192 L 268.8 192 L 268.8 204.8 Q 270.4 224.8 287.2 232 Q 304 239.2 319.2 225.6 L 319.2 225.6 L 328.8 216.8 L 337.6 225.6 L 346.4 235.2 L 337.6 244 Q 324 259.2 331.2 276 Q 338.4 292.8 358.4 294.4 L 371.2 294.4 L 371.2 307.2 L 371.2 320 L 358.4 320 Q 338.4 321.6 331.2 338.4 Q 324 355.2 337.6 370.4 L 346.4 380 L 337.6 388.8 L 328.8 397.6 L 319.2 388.8 Q 304 375.2 287.2 382.4 Q 270.4 389.6 268.8 409.6 L 268.8 422.4 L 256 422.4 L 243.2 422.4 L 243.2 409.6 Q 241.6 389.6 224.8 382.4 Q 208 375.2 192.8 388.8 L 192.8 388.8 L 184 397.6 L 174.4 388.8 L 174.4 388.8 L 165.6 380 L 174.4 370.4 Q 188 355.2 180.8 338.4 Q 173.6 321.6 153.6 320 L 153.6 320 Z M 243.2 275.2 Q 260.8 276.8 262.4 294.4 Q 260.8 312 243.2 313.6 Q 225.6 312 224 294.4 Q 225.6 276.8 243.2 275.2 L 243.2 275.2 Z M 268.8 332.8 Q 269.6 320.8 281.6 320 Q 293.6 320.8 294.4 332.8 Q 293.6 344.8 281.6 345.6 Q 269.6 344.8 268.8 332.8 L 268.8 332.8 Z" />
</svg>