<svg xmlns="http://www.w3.org/2000/svg" viewBox="0 0 512 480">
  <path d="M 128 0 L 136 0 L 128 0 L 384 0 L 384 8 L 384 8 L 384 96 L 384 96 L 496 96 L 512 96 L 512 112 L 512 112 L 512 464 L 512 464 L 512 480 L 512 480 L 496 480 L 0 480 L 0 464 L 0 464 L 0 112 L 0 112 L 0 96 L 0 96 L 16 96 L 128 96 L 128 8 L 128 8 L 128 0 L 128 0 Z M 368 16 L 144 16 L 368 16 L 144 16 L 144 96 L 144 96 L 368 96 L 368 96 L 368 16 L 368 16 Z M 16 112 L 16 464 L 16 112 L 16 464 L 496 464 L 496 464 L 496 112 L 496 112 L 376 112 L 16 112 Z M 294 194 L 382 282 L 294 194 L 382 282 L 387 288 L 387 288 L 382 294 L 382 294 L 294 382 L 294 382 L 288 387 L 288 387 L 277 376 L 277 376 L 282 370 L 282 370 L 357 296 L 357 296 L 136 296 L 128 296 L 128 280 L 128 280 L 136 280 L 357 280 L 282 206 L 282 206 L 277 200 L 277 200 L 288 189 L 288 189 L 294 194 L 294 194 Z" />
</svg>