<svg xmlns="http://www.w3.org/2000/svg" viewBox="0 0 512 512">
  <path d="M 256 397 L 16 232 L 256 397 L 16 232 L 16 200 L 16 200 L 64 164 L 64 164 L 64 226 L 64 226 L 80 237 L 80 237 L 80 80 L 80 80 L 432 80 L 432 80 L 432 237 L 432 237 L 448 226 L 448 226 L 448 164 L 448 164 L 496 200 L 496 200 L 496 232 L 496 232 L 256 397 L 256 397 Z M 64 80 L 64 144 L 64 80 L 64 144 L 0 192 L 0 192 L 0 240 L 0 240 L 0 496 L 0 496 L 0 512 L 0 512 L 16 512 L 512 512 L 512 496 L 512 496 L 512 240 L 512 240 L 512 192 L 512 192 L 448 144 L 448 144 L 448 80 L 448 80 L 448 64 L 448 64 L 432 64 L 341 64 L 256 0 L 256 0 L 171 64 L 171 64 L 80 64 L 64 64 L 64 80 L 64 80 Z M 256 20 L 315 64 L 256 20 L 315 64 L 197 64 L 197 64 L 256 20 L 256 20 Z M 256 416 L 496 251 L 256 416 L 496 251 L 496 496 L 496 496 L 16 496 L 16 496 L 16 251 L 16 251 L 256 416 L 256 416 Z M 264 128 L 264 120 L 264 128 L 264 120 L 248 120 L 248 120 L 248 128 L 248 128 L 248 144 L 248 144 Q 235 145 225 150 Q 205 159 201 179 Q 199 191 203 201 Q 208 210 216 215 Q 232 225 252 230 Q 252 230 252 230 L 254 231 L 254 231 Q 275 236 287 244 Q 292 248 295 253 Q 297 258 296 267 Q 294 279 281 284 Q 272 288 259 288 L 259 288 L 259 288 Q 252 288 245 287 Q 233 284 218 279 Q 217 279 216 278 Q 216 278 216 278 Q 215 278 214 278 Q 212 277 211 277 L 203 274 L 203 274 L 198 289 L 198 289 L 206 292 L 206 292 Q 206 292 208 292 Q 209 293 211 294 Q 211 294 211 294 Q 211 294 211 294 Q 211 294 211 294 Q 211 294 211 294 Q 211 294 211 294 Q 211 294 211 294 Q 211 294 211 294 Q 228 300 243 303 Q 243 303 243 303 Q 243 303 243 303 Q 245 303 248 304 Q 248 304 248 304 L 248 320 L 248 320 L 248 328 L 248 328 L 264 328 L 264 328 L 264 320 L 264 320 L 264 304 L 264 304 Q 277 303 287 299 Q 307 291 311 269 Q 313 257 309 247 Q 305 237 296 231 Q 279 221 259 215 L 258 215 L 258 215 Q 258 215 258 215 Q 238 210 225 202 Q 220 199 218 194 Q 215 190 217 182 Q 218 171 232 165 Q 246 159 267 161 Q 271 162 279 164 Q 286 165 290 166 L 294 151 L 294 151 Q 290 149 282 148 Q 274 146 270 146 Q 267 145 264 145 Q 264 145 264 145 L 264 128 L 264 128 Z" />
</svg>