<svg xmlns="http://www.w3.org/2000/svg" viewBox="0 0 416 384">
  <path d="M 336 16 L 336 368 L 336 16 L 336 368 L 400 368 L 400 368 L 400 16 L 400 16 L 336 16 L 336 16 Z M 320 0 L 336 0 L 320 0 L 416 0 L 416 16 L 416 16 L 416 368 L 416 368 L 416 384 L 416 384 L 400 384 L 320 384 L 320 368 L 320 368 L 320 16 L 320 16 L 320 0 L 320 0 Z M 240 144 L 176 144 L 240 144 L 176 144 L 176 368 L 176 368 L 240 368 L 240 368 L 240 144 L 240 144 Z M 176 128 L 240 128 L 176 128 L 256 128 L 256 144 L 256 144 L 256 368 L 256 368 L 256 384 L 256 384 L 240 384 L 160 384 L 160 368 L 160 368 L 160 144 L 160 144 L 160 128 L 160 128 L 176 128 L 176 128 Z M 80 272 L 16 272 L 80 272 L 16 272 L 16 368 L 16 368 L 80 368 L 80 368 L 80 272 L 80 272 Z M 16 256 L 80 256 L 16 256 L 96 256 L 96 272 L 96 272 L 96 368 L 96 368 L 96 384 L 96 384 L 80 384 L 0 384 L 0 368 L 0 368 L 0 272 L 0 272 L 0 256 L 0 256 L 16 256 L 16 256 Z" />
</svg>