<svg xmlns="http://www.w3.org/2000/svg" viewBox="0 0 571 512">
  <path d="M 155 96 Q 178 95 190 76 Q 200 56 190 36 Q 178 17 155 16 Q 132 17 120 36 Q 110 56 120 76 Q 132 95 155 96 L 155 96 Z M 155 0 Q 187 1 203 28 Q 219 56 203 84 Q 187 111 155 112 Q 123 111 107 84 Q 91 56 107 28 Q 123 1 155 0 L 155 0 Z M 91 128 L 96 128 L 91 128 L 219 128 L 221 133 L 221 133 L 285 264 L 285 264 Q 279 272 275 280 L 209 144 L 209 144 L 101 144 L 101 144 L 18 316 L 18 316 L 15 323 L 15 323 L 0 316 L 0 316 L 4 309 L 4 309 L 89 133 L 89 133 L 91 128 L 91 128 Z M 99 248 L 99 496 L 99 248 L 99 496 L 131 496 L 131 496 L 131 344 L 131 344 L 131 336 L 131 336 L 139 336 L 179 336 L 179 344 L 179 344 L 179 496 L 179 496 L 211 496 L 211 496 L 211 248 L 211 248 L 211 240 L 211 240 L 227 240 L 227 240 L 227 248 L 227 248 L 227 504 L 227 504 L 227 512 L 227 512 L 219 512 L 163 512 L 163 504 L 163 504 L 163 352 L 163 352 L 147 352 L 147 352 L 147 504 L 147 504 L 147 512 L 147 512 L 139 512 L 83 512 L 83 504 L 83 504 L 83 248 L 83 248 L 83 240 L 83 240 L 99 240 L 99 240 L 99 248 L 99 248 Z M 555 368 Q 555 333 538 304 L 538 304 L 538 304 Q 521 275 491 257 Q 461 240 427 240 Q 393 240 363 257 Q 333 275 316 304 Q 299 333 299 368 Q 299 403 316 432 Q 333 461 363 479 Q 393 496 427 496 Q 461 496 491 479 Q 521 461 538 432 Q 555 403 555 368 L 555 368 Z M 283 368 Q 283 329 302 296 L 302 296 L 302 296 Q 321 263 355 243 Q 389 224 427 224 Q 465 224 499 243 Q 533 263 552 296 Q 571 329 571 368 Q 571 407 552 440 Q 533 473 499 493 Q 465 512 427 512 Q 389 512 355 493 Q 321 473 302 440 Q 283 407 283 368 L 283 368 Z M 435 296 L 435 360 L 435 296 L 435 360 L 499 360 L 507 360 L 507 376 L 507 376 L 499 376 L 435 376 L 435 440 L 435 440 L 435 448 L 435 448 L 419 448 L 419 448 L 419 440 L 419 440 L 419 376 L 419 376 L 355 376 L 347 376 L 347 360 L 347 360 L 355 360 L 419 360 L 419 296 L 419 296 L 419 288 L 419 288 L 435 288 L 435 288 L 435 296 L 435 296 Z" />
</svg>