<svg xmlns="http://www.w3.org/2000/svg" viewBox="0 0 512 512">
  <path d="M 416 48 L 419 48 L 416 48 L 419 48 L 421 47 L 421 47 L 496 22 L 496 22 L 496 117 L 496 117 L 429 144 L 429 144 L 416 144 L 83 144 L 16 117 L 16 117 L 16 22 L 16 22 L 91 47 L 91 47 L 93 48 L 93 48 L 96 48 L 416 48 Z M 248 160 L 248 240 L 248 160 L 248 240 L 96 240 L 96 240 L 96 160 L 96 160 L 248 160 L 248 160 Z M 80 256 L 80 504 L 80 256 L 80 504 L 80 512 L 80 512 L 96 512 L 96 512 L 96 504 L 96 504 L 96 256 L 96 256 L 256 256 L 416 256 L 416 504 L 416 504 L 416 512 L 416 512 L 432 512 L 432 512 L 432 504 L 432 504 L 432 256 L 432 256 L 504 256 L 512 256 L 512 240 L 512 240 L 504 240 L 432 240 L 432 160 L 432 160 L 512 128 L 512 128 L 512 17 L 512 17 L 512 0 L 512 0 L 496 5 L 496 5 L 416 32 L 416 32 L 96 32 L 96 32 L 16 5 L 16 5 L 0 0 L 0 0 L 0 17 L 0 17 L 0 128 L 0 128 L 80 160 L 80 160 L 80 240 L 80 240 L 8 240 L 0 240 L 0 256 L 0 256 L 8 256 L 80 256 Z M 416 240 L 264 240 L 416 240 L 264 240 L 264 160 L 264 160 L 416 160 L 416 160 L 416 240 L 416 240 Z" />
</svg>