<svg xmlns="http://www.w3.org/2000/svg" viewBox="0 0 512 512">
  <path d="M 210 0 L 216 0 L 210 0 L 302 0 L 304 5 L 304 5 L 464 453 L 464 453 L 466 461 L 466 461 L 451 466 L 451 466 L 448 459 L 448 459 L 405 336 L 405 336 L 107 336 L 107 336 L 64 459 L 64 459 L 61 466 L 61 466 L 46 461 L 46 461 L 48 453 L 48 453 L 208 5 L 208 5 L 210 0 L 210 0 Z M 113 320 L 399 320 L 113 320 L 399 320 L 348 176 L 348 176 L 165 176 L 165 176 L 113 320 L 113 320 Z M 170 160 L 342 160 L 170 160 L 342 160 L 290 16 L 290 16 L 222 16 L 222 16 L 170 160 L 170 160 Z M 0 496 L 8 496 L 0 496 L 512 496 L 512 512 L 512 512 L 504 512 L 0 512 L 0 496 L 0 496 Z" />
</svg>