<svg xmlns="http://www.w3.org/2000/svg" viewBox="0 0 544 512">
  <path d="M 280 0 L 280 8 L 280 0 L 280 8 L 280 309 L 280 309 L 323 266 L 323 266 L 329 260 L 329 260 L 340 271 L 340 271 L 334 277 L 334 277 L 291 320 L 291 320 L 352 320 L 360 320 L 360 336 L 360 336 L 352 336 L 291 336 L 334 379 L 334 379 L 340 385 L 340 385 L 329 396 L 329 396 L 323 390 L 323 390 L 280 347 L 280 347 L 280 432 L 280 432 Q 325 428 354 396 Q 383 365 384 320 Q 382 262 338 229 L 327 222 L 327 222 L 339 216 L 339 216 Q 374 197 395 164 Q 415 130 416 88 Q 416 47 396 15 L 407 4 L 407 4 Q 469 40 506 102 Q 543 163 544 240 Q 543 316 507 377 Q 471 439 409 475 Q 348 511 272 512 Q 196 511 135 475 Q 73 439 37 377 Q 1 316 0 240 Q 1 163 38 101 Q 75 40 137 4 L 148 15 L 148 15 Q 128 47 128 88 Q 129 130 149 164 Q 170 197 205 216 L 217 222 L 217 222 L 206 229 L 206 229 Q 162 262 160 320 Q 161 365 190 397 Q 219 428 264 432 L 264 347 L 264 347 L 221 390 L 221 390 L 215 396 L 215 396 L 204 385 L 204 385 L 210 379 L 210 379 L 253 336 L 253 336 L 192 336 L 184 336 L 184 320 L 184 320 L 192 320 L 253 320 L 210 277 L 210 277 L 204 271 L 204 271 L 215 260 L 215 260 L 221 266 L 221 266 L 264 309 L 264 309 L 264 8 L 264 8 L 264 0 L 264 0 L 280 0 L 280 0 Z M 280 448 L 272 448 L 280 448 L 272 448 L 272 448 L 272 448 L 272 448 L 272 448 L 264 448 L 264 448 L 264 448 L 264 448 Q 213 443 179 408 Q 145 372 144 320 Q 146 261 188 224 Q 153 202 133 167 Q 112 131 112 88 Q 112 59 122 33 Q 66 74 37 138 L 38 138 L 38 138 L 118 218 L 118 218 L 123 224 L 123 224 L 118 230 L 118 230 Q 118 230 118 230 Q 118 230 118 230 L 112 235 L 112 235 L 106 230 L 106 230 L 31 154 L 31 154 Q 21 183 17 214 L 22 218 L 22 218 L 86 282 L 86 282 L 91 288 L 91 288 L 86 294 L 86 294 L 80 299 L 80 299 L 74 294 L 74 294 L 16 235 L 16 235 Q 16 237 16 238 Q 16 239 16 240 Q 17 312 51 369 Q 85 427 143 461 Q 200 495 272 496 Q 344 495 401 461 Q 459 427 493 369 Q 527 312 528 240 Q 528 239 528 238 Q 528 237 528 235 L 470 294 L 470 294 L 464 299 L 464 299 L 453 288 L 453 288 L 458 282 L 458 282 L 522 218 L 522 218 L 527 214 L 527 214 Q 524 183 513 154 L 438 230 L 438 230 L 432 235 L 432 235 L 421 224 L 421 224 L 426 218 L 426 218 L 506 138 L 506 138 L 507 138 L 507 138 Q 478 74 422 33 Q 432 59 432 88 Q 432 131 411 167 Q 391 202 357 224 Q 398 261 400 320 Q 399 372 365 408 Q 331 443 280 448 L 280 448 L 280 448 Z" />
</svg>