<svg xmlns="http://www.w3.org/2000/svg" viewBox="0 0 512 512">
  <path d="M 320 102.4 L 38.4 102.4 L 38.4 384 L 244 384 Q 254.4 405.6 269.6 422.4 L 38.4 422.4 L 0 422.4 L 0 384 L 0 102.4 L 0 64 L 38.4 64 L 320 64 L 358.4 64 L 358.4 102.4 L 358.4 133.6 Q 338.4 149.6 320 167.2 L 320 102.4 L 320 102.4 Z M 235.2 288 L 211.2 288 L 211.2 249.6 L 249.6 249.6 L 249.6 253.6 Q 240 269.6 235.2 288 L 235.2 288 Z M 273.6 217.6 L 76.8 217.6 L 76.8 140.8 L 281.6 140.8 L 281.6 207.2 Q 277.6 212.8 273.6 217.6 L 273.6 217.6 Z M 185.6 249.6 L 185.6 288 L 147.2 288 L 147.2 249.6 L 185.6 249.6 L 185.6 249.6 Z M 121.6 249.6 L 121.6 288 L 83.2 288 L 83.2 249.6 L 121.6 249.6 L 121.6 249.6 Z M 410.4 217.6 Q 432.8 192.8 435.2 192 Q 436.8 192.8 455.2 212 Q 473.6 231.2 492 260.8 Q 510.4 289.6 512 320 Q 510.4 374.4 474.4 410.4 Q 438.4 446.4 384 448 Q 329.6 446.4 293.6 410.4 Q 257.6 374.4 256 320 Q 257.6 284 282.4 248.8 Q 307.2 213.6 332 190.4 Q 356.8 167.2 358.4 166.4 Q 359.2 167.2 374.4 180.8 Q 390.4 194.4 410.4 217.6 L 410.4 217.6 Z M 424 384.8 Q 442.4 371.2 446.4 350.4 L 446.4 350.4 Q 450.4 328.8 440 308 Q 439.2 305.6 437.6 303.2 Q 436 300.8 434.4 298.4 L 405.6 332 Q 404.8 331.2 393.6 316.8 Q 382.4 302.4 370.4 287.2 Q 358.4 272 356 268.8 Q 338.4 290.4 328.8 305.6 Q 320 320.8 320 334.4 Q 320.8 364 339.2 380 Q 356.8 396.8 384.8 396.8 Q 406.4 396.8 424 384.8 L 424 384.8 Z" />
</svg>