<svg xmlns="http://www.w3.org/2000/svg" viewBox="0 0 512 512">
  <path d="M 308 490 L 339 384 L 308 490 L 339 384 L 308 341 L 308 341 L 305 337 L 305 337 L 207 337 L 207 337 L 204 341 L 204 341 L 173 384 L 173 384 L 204 490 L 204 490 Q 229 496 256 496 Q 283 496 308 490 L 308 490 Z M 326 486 Q 406 460 453 393 L 354 391 L 354 391 L 326 486 L 326 486 Z M 463 378 Q 489 333 495 279 L 404 216 L 404 216 L 353 233 L 353 233 L 349 234 L 349 234 L 318 328 L 318 328 L 321 331 L 321 331 L 352 375 L 352 375 L 463 378 L 463 378 Z M 496 261 Q 496 260 496 258 L 496 258 L 496 258 Q 496 257 496 256 Q 495 173 447 111 L 415 205 L 415 205 L 496 261 L 496 261 Z M 436 97 Q 401 58 352 36 L 264 103 L 264 103 L 264 157 L 264 157 L 264 161 L 264 161 L 344 219 L 344 219 L 348 218 L 348 218 L 399 201 L 399 201 L 436 97 L 436 97 Z M 335 29 Q 298 16 256 16 Q 214 16 177 29 L 256 89 L 256 89 L 335 29 L 335 29 Z M 160 36 Q 111 58 77 97 L 113 201 L 113 201 L 164 218 L 164 218 L 168 219 L 168 219 L 248 161 L 248 161 L 248 157 L 248 157 L 248 103 L 248 103 L 160 36 L 160 36 Z M 65 111 Q 17 173 16 256 Q 16 257 16 258 Q 16 260 16 261 L 97 205 L 97 205 L 65 111 L 65 111 Z M 17 279 Q 23 333 49 378 L 160 375 L 160 375 L 191 331 L 191 331 L 194 328 L 194 328 L 163 234 L 163 234 L 159 233 L 159 233 L 108 216 L 108 216 L 17 279 L 17 279 Z M 59 393 Q 107 460 186 486 L 158 391 L 158 391 L 59 393 L 59 393 Z M 0 256 Q 1 186 34 128 L 34 128 L 34 128 Q 68 70 128 34 Q 189 0 256 0 Q 323 0 384 34 Q 444 70 478 128 Q 511 186 512 256 Q 511 326 478 384 Q 444 442 384 478 Q 323 512 256 512 Q 189 512 128 478 Q 68 442 34 384 Q 1 326 0 256 L 0 256 Z M 209 321 L 304 321 L 209 321 L 304 321 L 333 231 L 333 231 L 256 175 L 256 175 L 179 231 L 179 231 L 209 321 L 209 321 Z" />
</svg>