<svg xmlns="http://www.w3.org/2000/svg" viewBox="0 0 512 512">
  <path d="M 224 128 L 224 144 L 224 128 L 224 144 L 224 176 L 224 176 L 224 192 L 224 192 L 208 192 L 112 192 Q 64 191 33 164 Q 1 137 0 96 Q 1 55 33 28 Q 64 1 112 0 L 208 0 L 224 0 L 224 16 L 224 16 L 224 48 L 224 48 L 224 64 L 224 64 L 240 64 L 512 64 L 512 80 L 512 80 L 512 112 L 512 112 L 512 128 L 512 128 L 496 128 L 224 128 Z M 208 128 L 208 112 L 208 128 L 208 112 L 224 112 L 496 112 L 496 80 L 496 80 L 480 80 L 208 80 L 208 64 L 208 64 L 208 16 L 208 16 L 112 16 L 112 16 Q 70 17 43 40 Q 17 63 16 96 Q 17 129 43 152 Q 70 175 112 176 L 208 176 L 208 176 L 208 128 L 208 128 Z M 144 473 L 144 496 L 144 473 L 144 496 L 368 496 L 368 496 L 368 473 L 368 473 L 368 463 L 368 463 L 377 459 L 377 459 Q 426 434 457 388 Q 488 343 492 284 L 495 240 L 495 240 L 17 240 L 17 240 L 20 284 L 20 284 Q 24 343 55 388 Q 86 434 135 459 L 144 463 L 144 463 L 144 473 L 144 473 Z M 4 285 L 1 240 L 4 285 L 1 240 L 0 224 L 0 224 L 16 224 L 512 224 L 511 240 L 511 240 L 508 285 L 508 285 Q 504 348 471 397 Q 437 446 384 473 L 384 496 L 384 496 L 384 512 L 384 512 L 368 512 L 128 512 L 128 496 L 128 496 L 128 473 L 128 473 Q 75 446 41 397 Q 8 348 4 285 L 4 285 Z" />
</svg>