<svg xmlns="http://www.w3.org/2000/svg" viewBox="0 0 448 448">
  <path d="M 160 416 Q 106 415 69 379 L 69 379 L 69 379 Q 33 342 32 288 Q 33 224 58 177 Q 84 129 124 97 Q 164 64 206 48 Q 249 32 280 32 Q 309 34 339 55 Q 353 64 362 72 Q 366 75 368 77 Q 369 78 369 78 Q 369 78 369 78 L 369 79 L 369 79 L 370 79 L 370 79 Q 370 79 370 79 Q 371 80 371 80 Q 373 82 377 87 Q 384 95 393 109 Q 414 139 416 168 Q 416 199 400 242 Q 384 284 351 324 Q 319 364 271 390 Q 224 415 160 416 L 160 416 Z M 0 288 Q 2 356 47 401 L 47 401 L 47 401 Q 92 446 160 448 Q 256 446 320 397 Q 384 349 416 284 Q 448 220 448 168 Q 447 139 433 114 Q 420 89 407 73 Q 393 57 392 56 Q 391 55 375 41 Q 359 28 334 15 Q 309 1 280 0 Q 228 0 164 32 Q 99 64 51 128 Q 2 192 0 288 L 0 288 Z M 282 166 Q 266 147 265 120 Q 264 112 264 104 Q 272 104 280 105 Q 307 106 326 122 Q 342 141 343 168 Q 344 177 344 184 Q 337 184 328 183 Q 301 182 282 166 L 282 166 Z M 233 123 Q 234 138 240 156 L 240 156 L 240 156 Q 246 173 260 188 Q 275 202 292 208 Q 310 214 325 215 Q 340 216 350 216 Q 360 215 371 213 Q 371 213 371 213 Q 371 213 371 213 L 373 213 L 373 213 L 374 210 L 374 210 Q 374 210 374 210 Q 374 210 374 210 Q 374 210 374 210 Q 375 200 376 190 Q 376 180 375 165 Q 374 150 368 132 Q 362 114 348 100 Q 334 86 316 80 Q 298 74 283 73 Q 259 71 235 75 Q 231 99 233 123 L 233 123 Z" />
</svg>