<svg xmlns="http://www.w3.org/2000/svg" viewBox="0 0 635 512">
  <path d="M 56 0 Q 32 1 16 16 L 16 16 L 16 16 Q 1 32 0 56 L 0 456 L 0 456 Q 1 480 16 496 Q 32 511 56 512 L 440 512 L 448 512 L 448 496 L 448 496 L 440 496 L 416 496 L 416 416 L 416 416 L 440 416 L 448 416 L 448 408 L 448 408 L 448 256 L 448 256 L 432 256 L 432 256 L 432 400 L 432 400 L 56 400 L 56 400 Q 32 401 16 417 L 16 56 L 16 56 Q 16 39 28 28 Q 39 16 56 16 L 432 16 L 432 16 L 432 160 L 432 160 L 448 160 L 448 160 L 448 8 L 448 8 L 448 0 L 448 0 L 440 0 L 56 0 Z M 400 416 L 400 496 L 400 416 L 400 496 L 56 496 L 56 496 Q 39 496 28 484 Q 16 473 16 456 Q 16 439 28 428 Q 39 416 56 416 L 400 416 L 400 416 Z M 526 98 L 520 93 L 526 98 L 520 93 L 509 104 L 509 104 L 514 110 L 514 110 L 605 200 L 605 200 L 264 200 L 256 200 L 256 216 L 256 216 L 264 216 L 605 216 L 514 306 L 514 306 L 509 312 L 509 312 L 520 323 L 520 323 L 526 318 L 526 318 L 630 214 L 630 214 L 635 208 L 635 208 L 630 202 L 630 202 L 526 98 L 526 98 Z" />
</svg>