<svg xmlns="http://www.w3.org/2000/svg" viewBox="0 0 512 512">
  <path d="M 320 13 L 317 0 L 320 13 L 317 0 L 304 0 L 195 0 L 192 13 L 192 13 L 183 61 L 183 61 Q 176 64 170 67 L 129 39 L 129 39 L 118 32 L 118 32 L 109 41 L 109 41 L 41 109 L 41 109 L 32 118 L 32 118 L 39 129 L 39 129 L 66 170 L 66 170 Q 64 176 61 183 L 13 192 L 13 192 L 0 195 L 0 195 L 0 208 L 0 208 L 0 304 L 0 304 L 0 317 L 0 317 L 13 320 L 13 320 L 61 329 L 61 329 Q 64 336 67 342 L 39 383 L 39 383 L 32 394 L 32 394 L 41 403 L 41 403 L 109 471 L 109 471 L 118 480 L 118 480 L 129 473 L 129 473 L 170 446 L 170 446 Q 176 448 183 451 L 192 499 L 192 499 L 195 512 L 195 512 L 208 512 L 317 512 L 320 499 L 320 499 L 329 451 L 329 451 Q 336 448 342 446 L 383 473 L 383 473 L 394 480 L 394 480 L 403 471 L 403 471 L 471 403 L 471 403 L 480 394 L 480 394 L 473 383 L 473 383 L 446 342 L 446 342 Q 448 336 451 329 L 499 320 L 499 320 L 512 317 L 512 317 L 512 304 L 512 304 L 512 208 L 512 208 L 512 195 L 512 195 L 499 192 L 499 192 L 451 183 L 451 183 Q 448 176 446 170 L 473 129 L 473 129 L 480 118 L 480 118 L 471 109 L 471 109 L 403 41 L 403 41 L 394 32 L 394 32 L 383 39 L 383 39 L 342 67 L 342 67 Q 336 64 329 61 L 320 13 L 320 13 Z M 169 85 Q 182 78 197 74 L 208 16 L 208 16 L 304 16 L 304 16 L 316 73 L 316 73 Q 330 78 343 85 L 392 52 L 392 52 L 460 120 L 460 120 L 427 169 L 427 169 Q 434 182 439 197 L 496 208 L 496 208 L 496 304 L 496 304 L 439 316 L 439 316 Q 434 330 427 343 L 460 392 L 460 392 L 392 460 L 392 460 L 343 427 L 343 427 Q 330 434 316 439 L 304 496 L 304 496 L 208 496 L 208 496 L 197 439 L 197 439 Q 182 434 169 427 L 120 460 L 120 460 L 52 392 L 52 392 L 85 343 L 85 343 Q 78 330 74 315 L 16 304 L 16 304 L 16 208 L 16 208 L 73 197 L 73 197 Q 78 182 85 169 L 52 120 L 52 120 L 120 52 L 120 52 L 169 85 L 169 85 Z M 280 161 L 281 154 L 280 161 L 281 154 L 265 151 L 265 151 L 264 159 L 264 159 L 232 351 L 232 351 L 231 359 L 231 359 L 247 361 L 247 361 L 248 353 L 248 353 L 280 161 L 280 161 Z M 182 222 L 187 216 L 182 222 L 187 216 L 176 205 L 176 205 L 170 210 L 170 210 L 130 250 L 130 250 L 125 256 L 125 256 L 130 262 L 130 262 L 170 302 L 170 302 L 176 308 L 176 308 L 187 296 L 187 296 L 182 290 L 182 290 L 147 256 L 147 256 L 182 222 L 182 222 Z M 342 210 L 336 205 L 342 210 L 336 205 L 325 216 L 325 216 L 330 222 L 330 222 L 365 256 L 365 256 L 330 290 L 330 290 L 325 296 L 325 296 L 336 307 L 336 307 L 342 302 L 342 302 L 382 262 L 382 262 L 387 256 L 387 256 L 382 250 L 382 250 L 342 210 L 342 210 Z" />
</svg>