<svg xmlns="http://www.w3.org/2000/svg" viewBox="0 0 640 512">
  <path d="M 512 316 L 528 328 L 512 316 L 528 328 L 528 16 L 528 16 L 592 16 L 592 16 L 592 379 L 592 379 L 608 392 L 608 392 L 608 16 L 608 16 L 608 0 L 608 0 L 592 0 L 512 0 L 512 16 L 512 16 L 512 316 L 512 316 Z M 448 265 L 448 144 L 448 265 L 448 144 L 448 128 L 448 128 L 432 128 L 352 128 L 352 144 L 352 144 L 352 190 L 352 190 L 368 202 L 368 202 L 368 144 L 368 144 L 432 144 L 432 144 L 432 253 L 432 253 L 448 265 L 448 265 Z M 352 373 L 352 496 L 352 373 L 352 496 L 352 512 L 352 512 L 368 512 L 448 512 L 448 496 L 448 496 L 448 449 L 448 449 L 432 436 L 432 436 L 432 496 L 432 496 L 368 496 L 368 496 L 368 386 L 368 386 L 352 373 L 352 373 Z M 204 256 L 192 256 L 204 256 L 192 256 L 192 272 L 192 272 L 192 496 L 192 496 L 192 512 L 192 512 L 208 512 L 288 512 L 288 496 L 288 496 L 288 323 L 288 323 L 272 310 L 272 310 L 272 496 L 272 496 L 208 496 L 208 496 L 208 272 L 208 272 L 224 272 L 224 272 L 204 256 L 204 256 Z M 48 400 L 112 400 L 48 400 L 112 400 L 112 496 L 112 496 L 48 496 L 48 496 L 48 400 L 48 400 Z M 128 384 L 112 384 L 128 384 L 32 384 L 32 400 L 32 400 L 32 496 L 32 496 L 32 512 L 32 512 L 48 512 L 128 512 L 128 496 L 128 496 L 128 400 L 128 400 L 128 384 L 128 384 Z M 16 5 L 10 0 L 16 5 L 10 0 L 0 13 L 0 13 L 6 18 L 6 18 L 624 507 L 624 507 L 630 512 L 630 512 L 640 500 L 640 500 L 634 495 L 634 495 L 16 5 L 16 5 Z" />
</svg>