<svg xmlns="http://www.w3.org/2000/svg" viewBox="0 0 576 512">
  <path d="M 128 8 L 128 0 L 128 8 L 128 0 L 112 0 L 112 0 L 112 8 L 112 8 L 112 64 L 112 64 L 16 64 L 0 64 L 0 80 L 0 80 L 0 176 L 0 176 L 0 192 L 0 192 L 0 496 L 0 496 L 0 512 L 0 512 L 16 512 L 331 512 Q 320 505 311 496 L 16 496 L 16 496 L 16 192 L 16 192 L 352 192 L 448 192 L 448 176 L 448 176 L 448 80 L 448 80 L 448 64 L 448 64 L 432 64 L 336 64 L 336 8 L 336 8 L 336 0 L 336 0 L 320 0 L 320 0 L 320 8 L 320 8 L 320 64 L 320 64 L 128 64 L 128 64 L 128 8 L 128 8 Z M 112 80 L 112 120 L 112 80 L 112 120 L 112 128 L 112 128 L 128 128 L 128 128 L 128 120 L 128 120 L 128 80 L 128 80 L 320 80 L 320 80 L 320 120 L 320 120 L 320 128 L 320 128 L 336 128 L 336 128 L 336 120 L 336 120 L 336 80 L 336 80 L 432 80 L 432 80 L 432 176 L 432 176 L 16 176 L 16 176 L 16 80 L 16 80 L 112 80 L 112 80 Z M 304 368 Q 304 333 321 304 L 321 304 L 321 304 Q 338 275 368 257 Q 398 240 432 240 Q 466 240 496 257 Q 526 275 543 304 Q 560 333 560 368 Q 560 403 543 432 Q 526 461 496 479 Q 466 496 432 496 Q 398 496 368 479 Q 338 461 321 432 Q 304 403 304 368 L 304 368 Z M 576 368 Q 576 329 557 296 L 557 296 L 557 296 Q 538 263 504 243 Q 470 224 432 224 Q 394 224 360 243 Q 326 263 307 296 Q 288 329 288 368 Q 288 407 307 440 Q 326 473 360 493 Q 394 512 432 512 Q 470 512 504 493 Q 538 473 557 440 Q 576 407 576 368 L 576 368 Z M 444 444 L 444 420 L 444 444 L 444 420 L 420 420 L 420 420 L 420 444 L 420 444 L 444 444 L 444 444 Z M 440 280 L 424 280 L 440 280 L 424 280 L 424 288 L 424 288 L 424 384 L 424 384 L 424 392 L 424 392 L 440 392 L 440 392 L 440 384 L 440 384 L 440 288 L 440 288 L 440 280 L 440 280 Z" />
</svg>