<svg xmlns="http://www.w3.org/2000/svg" viewBox="0 0 512 512">
  <path d="M 419 6 L 413 0 L 419 6 L 413 0 L 407 6 L 407 6 L 373 40 L 373 40 Q 352 61 352 90 Q 352 115 367 134 L 266 234 L 266 234 L 192 160 L 192 160 L 13 294 L 13 294 L 0 304 L 0 304 L 11 315 L 11 315 L 197 501 L 197 501 L 208 512 L 208 512 L 218 499 L 218 499 L 352 320 L 352 320 L 278 246 L 278 246 L 379 145 L 379 145 Q 397 160 422 160 Q 451 160 472 139 L 507 105 L 507 105 L 512 99 L 512 99 L 507 93 L 507 93 L 419 5 L 419 6 Z M 384 51 L 413 23 L 384 51 L 413 23 L 490 99 L 490 99 L 461 128 L 461 128 Q 445 144 422 144 Q 399 143 384 128 Q 369 113 368 90 Q 368 67 384 51 L 384 51 Z M 24 306 L 191 181 L 24 306 L 191 181 L 331 322 L 331 322 L 206 488 L 206 488 L 24 306 L 24 306 Z M 198 262 L 203 256 L 198 262 L 203 256 L 192 245 L 192 245 L 186 250 L 186 250 L 114 322 L 114 322 L 109 328 L 109 328 L 120 339 L 120 339 L 126 334 L 126 334 L 198 262 L 198 262 Z M 262 326 L 267 320 L 262 326 L 267 320 L 256 309 L 256 309 L 250 314 L 250 314 L 178 386 L 178 386 L 173 392 L 173 392 L 184 403 L 184 403 L 190 398 L 190 398 L 262 326 L 262 326 Z" />
</svg>