<svg xmlns="http://www.w3.org/2000/svg" viewBox="0 0 448 512">
  <path d="M 432 224 Q 430 310 374 368 L 396 368 L 396 368 Q 446 308 448 224 Q 447 161 417 111 Q 388 60 337 31 Q 287 1 224 0 Q 161 1 111 31 Q 60 60 31 111 Q 1 161 0 224 Q 2 308 52 368 L 74 368 L 74 368 Q 18 310 16 224 Q 18 136 77 77 Q 136 18 224 16 Q 312 18 371 77 Q 430 136 432 224 L 432 224 Z M 256 80 Q 255 65 240 64 Q 225 65 224 80 Q 225 95 240 96 Q 255 95 256 80 L 256 80 Z M 230 162 L 224 157 L 230 162 L 224 157 L 218 162 L 218 162 L 146 234 L 146 234 L 141 240 L 141 240 L 152 251 L 152 251 L 158 246 L 158 246 L 216 187 L 216 187 L 216 229 L 216 229 L 138 306 L 138 306 L 133 312 L 133 312 L 144 323 L 144 323 L 150 318 L 150 318 L 216 251 L 216 251 L 216 368 L 216 368 L 232 368 L 232 368 L 232 251 L 232 251 L 298 318 L 298 318 L 304 323 L 304 323 L 315 312 L 315 312 L 310 306 L 310 306 L 232 229 L 232 229 L 232 187 L 232 187 L 290 246 L 290 246 L 296 251 L 296 251 L 307 240 L 307 240 L 302 234 L 302 234 L 230 162 L 230 162 Z M 18 512 L 430 512 L 18 512 L 448 512 L 439 496 L 439 496 L 384 400 L 384 400 L 64 400 L 64 400 L 9 496 L 9 496 L 0 512 L 0 512 L 18 512 L 18 512 Z M 375 416 L 420 496 L 375 416 L 420 496 L 28 496 L 28 496 L 73 416 L 73 416 L 375 416 L 375 416 Z M 336 192 Q 351 191 352 176 Q 351 161 336 160 Q 321 161 320 176 Q 321 191 336 192 L 336 192 Z M 96 240 Q 95 225 80 224 Q 65 225 64 240 Q 65 255 80 256 Q 95 255 96 240 L 96 240 Z" />
</svg>