<svg xmlns="http://www.w3.org/2000/svg" viewBox="0 0 504 504">
  <path d="M 456 0 L 456 8 L 456 0 L 456 8 L 456 48 L 456 48 L 496 48 L 504 48 L 504 64 L 504 64 L 496 64 L 456 64 L 456 104 L 456 104 L 456 112 L 456 112 L 440 112 L 440 112 L 440 104 L 440 104 L 440 64 L 440 64 L 400 64 L 392 64 L 392 48 L 392 48 L 400 48 L 440 48 L 440 8 L 440 8 L 440 0 L 440 0 L 456 0 L 456 0 Z M 283 119 L 273 115 L 283 119 L 273 115 Q 243 104 208 104 Q 126 106 72 160 Q 18 214 16 296 Q 18 378 72 432 Q 126 486 208 488 Q 290 486 344 432 Q 398 378 400 296 Q 400 262 389 231 L 385 221 L 385 221 L 393 214 L 393 214 L 395 211 L 395 211 L 407 200 L 407 200 L 395 189 L 395 189 L 315 109 L 315 109 L 304 97 L 304 97 L 293 109 L 293 109 L 290 112 L 290 112 L 283 119 L 283 119 Z M 293 86 L 304 75 L 293 86 L 304 75 L 315 86 L 315 86 L 327 97 L 327 97 L 361 132 L 361 132 L 394 98 L 394 98 L 400 93 L 400 93 L 411 104 L 411 104 L 406 110 L 406 110 L 372 143 L 372 143 L 407 177 L 407 177 L 418 189 L 418 189 L 429 200 L 429 200 L 418 211 L 418 211 L 407 223 L 407 223 L 404 226 L 404 226 Q 416 259 416 296 Q 414 384 355 443 Q 296 502 208 504 Q 120 502 61 443 Q 2 384 0 296 Q 2 208 61 149 Q 120 90 208 88 Q 245 88 279 100 L 281 97 L 281 97 L 293 86 L 293 86 Z M 88 288 L 88 296 L 88 288 L 88 296 L 72 296 L 72 296 L 72 288 L 72 288 Q 73 234 109 197 Q 146 161 200 160 L 208 160 L 208 160 L 208 176 L 208 176 L 200 176 L 200 176 Q 152 177 121 209 Q 89 240 88 288 L 88 288 Z" />
</svg>