<svg xmlns="http://www.w3.org/2000/svg" viewBox="0 0 512 512">
  <path d="M 512 0 L 0 0 L 512 0 L 0 0 L 0 16 L 0 16 L 32 16 L 32 16 L 32 496 L 32 496 L 0 496 L 0 496 L 0 512 L 0 512 L 208 512 L 512 512 L 512 496 L 512 496 L 480 496 L 480 496 L 480 16 L 480 16 L 512 16 L 512 16 L 512 0 L 512 0 Z M 288 496 L 224 496 L 288 496 L 224 496 L 224 400 L 224 400 L 288 400 L 288 400 L 288 496 L 288 496 Z M 304 392 L 304 384 L 304 392 L 304 384 L 296 384 L 208 384 L 208 392 L 208 392 L 208 496 L 208 496 L 48 496 L 48 496 L 48 16 L 48 16 L 464 16 L 464 16 L 464 496 L 464 496 L 304 496 L 304 496 L 304 392 L 304 392 Z M 328 72 L 328 80 L 328 72 L 328 80 L 328 144 L 328 144 L 328 152 L 328 152 L 336 152 L 408 152 L 408 144 L 408 144 L 408 80 L 408 80 L 408 72 L 408 72 L 400 72 L 328 72 Z M 344 88 L 392 88 L 344 88 L 392 88 L 392 136 L 392 136 L 344 136 L 344 136 L 344 88 L 344 88 Z M 224 72 L 216 72 L 224 72 L 216 72 L 216 80 L 216 80 L 216 144 L 216 144 L 216 152 L 216 152 L 224 152 L 296 152 L 296 144 L 296 144 L 296 80 L 296 80 L 296 72 L 296 72 L 288 72 L 224 72 Z M 232 136 L 232 88 L 232 136 L 232 88 L 280 88 L 280 88 L 280 136 L 280 136 L 232 136 L 232 136 Z M 216 200 L 216 208 L 216 200 L 216 208 L 216 272 L 216 272 L 216 280 L 216 280 L 224 280 L 296 280 L 296 272 L 296 272 L 296 208 L 296 208 L 296 200 L 296 200 L 288 200 L 216 200 Z M 232 216 L 280 216 L 232 216 L 280 216 L 280 264 L 280 264 L 232 264 L 232 264 L 232 216 L 232 216 Z M 336 200 L 328 200 L 336 200 L 328 200 L 328 208 L 328 208 L 328 272 L 328 272 L 328 280 L 328 280 L 336 280 L 408 280 L 408 272 L 408 272 L 408 208 L 408 208 L 408 200 L 408 200 L 400 200 L 336 200 Z M 344 264 L 344 216 L 344 264 L 344 216 L 392 216 L 392 216 L 392 264 L 392 264 L 344 264 L 344 264 Z M 104 72 L 104 80 L 104 72 L 104 80 L 104 144 L 104 144 L 104 152 L 104 152 L 112 152 L 184 152 L 184 144 L 184 144 L 184 80 L 184 80 L 184 72 L 184 72 L 176 72 L 104 72 Z M 120 88 L 168 88 L 120 88 L 168 88 L 168 136 L 168 136 L 120 136 L 120 136 L 120 88 L 120 88 Z M 112 200 L 104 200 L 112 200 L 104 200 L 104 208 L 104 208 L 104 272 L 104 272 L 104 280 L 104 280 L 112 280 L 184 280 L 184 272 L 184 272 L 184 208 L 184 208 L 184 200 L 184 200 L 176 200 L 112 200 Z M 120 264 L 120 216 L 120 264 L 120 216 L 168 216 L 168 216 L 168 264 L 168 264 L 120 264 L 120 264 Z M 190 365 Q 216 337 256 336 Q 296 337 322 365 L 334 355 L 334 355 Q 304 321 256 320 Q 208 321 179 355 L 190 365 L 190 365 Z" />
</svg>