<svg xmlns="http://www.w3.org/2000/svg" viewBox="0 0 512 448">
  <path d="M 18 224 L 137 16 L 18 224 L 137 16 L 375 16 L 375 16 L 494 224 L 494 224 L 375 432 L 375 432 L 137 432 L 137 432 L 18 224 L 18 224 Z M 128 0 L 0 224 L 128 0 L 0 224 L 128 448 L 128 448 L 384 448 L 384 448 L 512 224 L 512 224 L 384 0 L 384 0 L 128 0 L 128 0 Z M 186 143 L 175 154 L 186 143 L 175 154 L 180 160 L 180 160 L 245 224 L 245 224 L 180 289 L 180 289 L 174 294 L 174 294 L 186 306 L 186 306 L 191 300 L 191 300 L 256 235 L 256 235 L 321 300 L 321 300 L 326 306 L 326 306 L 338 294 L 338 294 L 332 289 L 332 289 L 267 224 L 267 224 L 332 159 L 332 159 L 338 154 L 338 154 L 326 142 L 326 142 L 321 148 L 321 148 L 256 213 L 256 213 L 191 148 L 191 148 L 186 142 L 186 143 Z" />
</svg>