<svg xmlns="http://www.w3.org/2000/svg" viewBox="0 0 448 448">
  <path d="M 16 16 L 16 432 L 16 16 L 16 432 L 432 432 L 432 432 L 432 16 L 432 16 L 16 16 L 16 16 Z M 0 0 L 16 0 L 0 0 L 448 0 L 448 16 L 448 16 L 448 432 L 448 432 L 448 448 L 448 448 L 432 448 L 0 448 L 0 432 L 0 432 L 0 16 L 0 16 L 0 0 L 0 0 Z M 216 243 L 93 96 L 216 243 L 93 96 L 114 96 L 114 96 L 224 228 L 224 228 L 334 96 L 334 96 L 355 96 L 355 96 L 232 243 L 232 243 L 232 344 L 232 344 L 232 352 L 232 352 L 216 352 L 216 352 L 216 344 L 216 344 L 216 243 L 216 243 Z" />
</svg>