<svg xmlns="http://www.w3.org/2000/svg" viewBox="0 0 641 448">
  <path d="M 0 128 L 17 128 L 0 128 L 361 128 Q 368 120 376 112 L 140 112 L 140 112 L 164 16 L 164 16 L 280 16 L 280 16 L 280 112 L 280 112 L 296 112 L 296 112 L 296 16 L 296 16 L 412 16 L 412 16 L 426 72 L 426 72 Q 427 71 429 70 Q 430 69 431 69 L 440 63 L 440 63 L 428 16 L 428 16 L 532 16 L 532 16 L 550 92 L 550 92 L 565 103 L 565 103 Q 568 106 571 109 L 544 0 L 544 0 L 32 0 L 32 0 L 4 112 L 4 112 L 0 128 L 0 128 Z M 112 384 L 96 384 L 112 384 L 79 384 L 48 167 L 48 167 L 47 160 L 47 160 L 31 160 L 31 160 L 32 169 L 32 169 L 39 216 L 39 216 L 8 216 L 0 216 L 0 232 L 0 232 L 8 232 L 41 232 L 64 393 L 64 393 L 65 400 L 65 400 L 72 400 L 96 400 L 96 440 L 96 440 L 96 448 L 96 448 L 112 448 L 112 448 L 112 440 L 112 440 L 112 400 L 112 400 L 324 400 L 324 400 Q 319 392 314 384 L 112 384 L 112 384 Z M 512 115 L 515 112 L 512 115 L 515 112 L 509 112 L 509 112 L 512 115 L 512 115 Z M 21 112 L 45 16 L 21 112 L 45 16 L 148 16 L 148 16 L 124 112 L 124 112 L 21 112 L 21 112 Z M 501 149 L 448 96 L 501 149 L 448 96 Q 425 110 396 138 Q 366 166 344 204 Q 321 243 320 288 Q 322 356 367 401 Q 412 446 480 448 Q 548 446 593 401 Q 638 356 640 288 Q 641 267 621 222 Q 600 178 544 128 L 523 149 L 523 149 L 512 160 L 512 160 L 501 149 L 501 149 Z M 576 359 Q 574 323 551 292 L 551 292 L 551 292 Q 528 262 505 243 L 505 243 L 505 243 Q 482 225 480 224 L 480 224 L 480 224 Q 480 224 480 224 Q 478 225 455 243 Q 432 262 409 292 Q 386 323 384 359 Q 384 386 400 408 Q 371 388 353 357 Q 336 326 336 288 Q 336 258 349 231 Q 361 203 381 179 Q 415 138 446 117 L 501 172 L 501 172 L 512 183 L 512 183 L 523 172 L 523 172 L 545 150 L 545 150 Q 592 195 609 233 Q 625 272 624 288 Q 624 326 607 357 Q 589 388 560 408 Q 576 386 576 359 L 576 359 Z M 480 432 Q 445 431 423 410 L 423 410 L 423 410 Q 401 389 400 359 Q 401 337 413 316 Q 425 295 444 276 Q 461 258 475 248 Q 478 246 480 244 Q 482 246 485 248 Q 499 258 517 276 Q 535 295 547 316 Q 559 337 560 359 Q 559 389 537 410 Q 515 431 480 432 L 480 432 Z" />
</svg>