<svg xmlns="http://www.w3.org/2000/svg" viewBox="0 0 512 512">
  <path d="M 496 496 L 144 496 L 496 496 L 144 496 L 144 352 L 144 352 L 128 352 L 128 352 L 128 496 L 128 496 L 128 512 L 128 512 L 144 512 L 512 512 L 512 496 L 512 496 L 512 160 L 512 160 L 352 0 L 352 0 L 144 0 L 128 0 L 128 16 L 128 16 L 128 256 L 128 256 L 144 256 L 144 256 L 144 16 L 144 16 L 336 16 L 336 16 L 336 168 L 336 168 L 336 176 L 336 176 L 344 176 L 496 176 L 496 496 L 496 496 Z M 489 160 L 352 160 L 489 160 L 352 160 L 352 23 L 352 23 L 489 160 L 489 160 Z M 270 186 L 264 181 L 270 186 L 264 181 L 253 192 L 253 192 L 258 198 L 258 198 L 357 296 L 357 296 L 8 296 L 0 296 L 0 312 L 0 312 L 8 312 L 357 312 L 258 410 L 258 410 L 253 416 L 253 416 L 264 427 L 264 427 L 270 422 L 270 422 L 382 310 L 382 310 L 387 304 L 387 304 L 382 298 L 382 298 L 270 186 L 270 186 Z" />
</svg>