<svg xmlns="http://www.w3.org/2000/svg" viewBox="0 0 576 512">
  <path d="M 16 16 L 16 400 L 16 16 L 16 400 L 232 400 L 232 400 L 232 400 L 232 400 L 344 400 L 344 400 L 344 400 L 344 400 L 560 400 L 560 400 L 560 16 L 560 16 L 16 16 L 16 16 Z M 223 416 L 16 416 L 223 416 L 0 416 L 0 400 L 0 400 L 0 16 L 0 16 L 0 0 L 0 0 L 16 0 L 576 0 L 576 16 L 576 16 L 576 400 L 576 400 L 576 416 L 576 416 L 560 416 L 353 416 L 367 496 L 367 496 L 440 496 L 448 496 L 448 512 L 448 512 L 440 512 L 128 512 L 128 496 L 128 496 L 136 496 L 209 496 L 222 416 L 223 416 Z M 239 416 L 226 496 L 239 416 L 226 496 L 351 496 L 351 496 L 337 416 L 337 416 L 239 416 L 239 416 Z M 496 80 L 80 80 L 496 80 L 80 80 L 80 336 L 80 336 L 496 336 L 496 336 L 496 80 L 496 80 Z M 80 64 L 496 64 L 80 64 L 512 64 L 512 80 L 512 80 L 512 336 L 512 336 L 512 352 L 512 352 L 496 352 L 64 352 L 64 336 L 64 336 L 64 80 L 64 80 L 64 64 L 64 64 L 80 64 L 80 64 Z M 246 142 L 179 208 L 246 142 L 179 208 L 246 274 L 246 274 L 251 280 L 251 280 L 240 291 L 240 291 L 234 286 L 234 286 L 162 214 L 162 214 L 157 208 L 157 208 L 162 202 L 162 202 L 234 130 L 234 130 L 240 124 L 240 124 L 251 136 L 251 136 L 246 142 L 246 142 Z M 342 130 L 414 202 L 342 130 L 414 202 L 419 208 L 419 208 L 414 214 L 414 214 L 342 286 L 342 286 L 336 292 L 336 292 L 325 280 L 325 280 L 330 274 L 330 274 L 397 208 L 397 208 L 330 142 L 330 142 L 325 136 L 325 136 L 336 125 L 336 125 L 342 130 L 342 130 Z" />
</svg>