<svg xmlns="http://www.w3.org/2000/svg" viewBox="0 0 640 512">
  <path d="M 584 8 L 584 0 L 584 8 L 584 0 L 568 0 L 568 0 L 568 8 L 568 8 L 568 360 L 568 360 L 584 373 L 584 373 L 584 8 L 584 8 Z M 456 455 L 440 443 L 456 455 L 440 443 L 440 504 L 440 504 L 440 512 L 440 512 L 456 512 L 456 512 L 456 504 L 456 504 L 456 455 L 456 455 Z M 328 354 L 312 341 L 328 354 L 312 341 L 312 504 L 312 504 L 312 512 L 312 512 L 328 512 L 328 512 L 328 504 L 328 504 L 328 354 L 328 354 Z M 440 104 L 440 259 L 440 104 L 440 259 L 456 272 L 456 272 L 456 104 L 456 104 L 456 96 L 456 96 L 440 96 L 440 96 L 440 104 L 440 104 Z M 200 288 L 184 288 L 200 288 L 184 288 L 184 296 L 184 296 L 184 504 L 184 504 L 184 512 L 184 512 L 200 512 L 200 512 L 200 504 L 200 504 L 200 296 L 200 296 L 200 288 L 200 288 Z M 72 384 L 56 384 L 72 384 L 56 384 L 56 392 L 56 392 L 56 504 L 56 504 L 56 512 L 56 512 L 72 512 L 72 512 L 72 504 L 72 504 L 72 392 L 72 392 L 72 384 L 72 384 Z M 16 5 L 10 0 L 16 5 L 10 0 L 0 13 L 0 13 L 6 18 L 6 18 L 624 507 L 624 507 L 630 512 L 630 512 L 640 500 L 640 500 L 634 495 L 634 495 L 16 5 L 16 5 Z" />
</svg>