<svg xmlns="http://www.w3.org/2000/svg" viewBox="0 0 384 512">
  <path d="M 16 16 L 16 496 L 16 16 L 16 496 L 144 496 L 144 496 L 144 384 L 144 384 L 144 368 L 144 368 L 160 368 L 240 368 L 240 384 L 240 384 L 240 496 L 240 496 L 368 496 L 368 496 L 368 16 L 368 16 L 16 16 L 16 16 Z M 160 496 L 224 496 L 160 496 L 224 496 L 224 384 L 224 384 L 160 384 L 160 384 L 160 496 L 160 496 Z M 144 512 L 16 512 L 144 512 L 0 512 L 0 496 L 0 496 L 0 16 L 0 16 L 0 0 L 0 0 L 16 0 L 384 0 L 384 16 L 384 16 L 384 496 L 384 496 L 384 512 L 384 512 L 368 512 L 144 512 Z M 80 232 L 144 232 L 80 232 L 152 232 L 152 240 L 152 240 L 152 304 L 152 304 L 152 312 L 152 312 L 144 312 L 72 312 L 72 304 L 72 304 L 72 240 L 72 240 L 72 232 L 72 232 L 80 232 L 80 232 Z M 88 296 L 136 296 L 88 296 L 136 296 L 136 248 L 136 248 L 88 248 L 88 248 L 88 296 L 88 296 Z M 232 232 L 240 232 L 232 232 L 312 232 L 312 240 L 312 240 L 312 304 L 312 304 L 312 312 L 312 312 L 304 312 L 232 312 L 232 304 L 232 304 L 232 240 L 232 240 L 232 232 L 232 232 Z M 248 248 L 248 296 L 248 248 L 248 296 L 296 296 L 296 296 L 296 248 L 296 248 L 248 248 L 248 248 Z M 48 56 L 56 56 L 48 56 L 69 56 L 71 60 L 71 60 L 112 142 L 112 142 L 112 64 L 112 64 L 112 56 L 112 56 L 128 56 L 128 56 L 128 64 L 128 64 L 128 160 L 128 160 L 128 168 L 128 168 L 120 168 L 107 168 L 105 164 L 105 164 L 64 82 L 64 82 L 64 160 L 64 160 L 64 168 L 64 168 L 48 168 L 48 168 L 48 160 L 48 160 L 48 64 L 48 64 L 48 56 L 48 56 Z M 168 56 L 216 56 L 168 56 L 224 56 L 224 72 L 224 72 L 216 72 L 176 72 L 176 152 L 176 152 L 208 152 L 208 152 L 208 120 L 208 120 L 208 112 L 208 112 L 224 112 L 224 112 L 224 120 L 224 120 L 224 160 L 224 160 L 224 168 L 224 168 L 216 168 L 160 168 L 160 160 L 160 160 L 160 64 L 160 64 L 160 56 L 160 56 L 168 56 L 168 56 Z M 272 96 L 272 128 L 272 96 L 272 128 Q 274 150 296 152 Q 318 150 320 128 L 320 96 L 320 96 Q 318 74 296 72 Q 274 74 272 96 L 272 96 Z M 296 56 Q 313 56 324 68 L 324 68 L 324 68 Q 336 79 336 96 L 336 128 L 336 128 Q 336 145 324 156 Q 313 168 296 168 Q 279 168 268 156 Q 256 145 256 128 L 256 96 L 256 96 Q 256 79 268 68 Q 279 56 296 56 L 296 56 Z" />
</svg>