<svg xmlns="http://www.w3.org/2000/svg" viewBox="0 0 448 512">
  <path d="M 392 0 Q 416 1 432 16 L 432 16 L 432 16 Q 447 32 448 56 L 448 456 L 448 456 Q 447 480 432 496 Q 416 511 392 512 L 8 512 L 0 512 L 0 496 L 0 496 L 8 496 L 32 496 L 32 416 L 32 416 L 8 416 L 0 416 L 0 408 L 0 408 L 0 8 L 0 8 L 0 0 L 0 0 L 8 0 L 392 0 Z M 48 416 L 48 496 L 48 416 L 48 496 L 392 496 L 392 496 Q 409 496 420 484 Q 432 473 432 456 Q 432 439 420 428 Q 409 416 392 416 L 48 416 L 48 416 Z M 392 400 Q 416 401 432 417 L 432 56 L 432 56 Q 432 39 420 28 Q 409 16 392 16 L 16 16 L 16 16 L 16 400 L 16 400 L 392 400 L 392 400 Z M 216 64 L 225 80 L 216 64 L 225 80 L 258 136 L 258 136 L 322 136 L 341 136 L 332 152 L 332 152 L 299 208 L 299 208 L 332 264 L 332 264 L 341 280 L 341 280 L 322 280 L 258 280 L 225 336 L 225 336 L 216 352 L 216 352 L 207 336 L 207 336 L 175 280 L 175 280 L 110 280 L 91 280 L 101 264 L 101 264 L 133 208 L 133 208 L 101 152 L 101 152 L 91 136 L 91 136 L 110 136 L 175 136 L 207 80 L 207 80 L 216 64 L 216 64 Z M 248 152 L 184 152 L 248 152 L 184 152 L 151 208 L 151 208 L 184 264 L 184 264 L 248 264 L 248 264 L 281 208 L 281 208 L 248 152 L 248 152 Z M 239 136 L 216 96 L 239 136 L 216 96 L 193 136 L 193 136 L 239 136 L 239 136 Z M 290 192 L 313 152 L 290 192 L 313 152 L 267 152 L 267 152 L 290 192 L 290 192 Z M 290 224 L 267 264 L 290 224 L 267 264 L 313 264 L 313 264 L 290 224 L 290 224 Z M 239 280 L 193 280 L 239 280 L 193 280 L 216 320 L 216 320 L 239 280 L 239 280 Z M 165 264 L 142 224 L 165 264 L 142 224 L 119 264 L 119 264 L 165 264 L 165 264 Z M 142 192 L 165 152 L 142 192 L 165 152 L 119 152 L 119 152 L 142 192 L 142 192 Z" />
</svg>