<svg xmlns="http://www.w3.org/2000/svg" viewBox="0 0 448 448">
  <path d="M 48 48 L 48 400 L 48 48 L 48 400 L 400 400 L 400 400 L 400 48 L 400 48 L 48 48 L 48 48 Z M 0 0 L 48 0 L 0 0 L 448 0 L 448 48 L 448 48 L 448 400 L 448 400 L 448 448 L 448 448 L 400 448 L 0 448 L 0 400 L 0 400 L 0 48 L 0 48 L 0 0 L 0 0 Z M 241 87 L 329 175 L 241 87 L 329 175 L 346 192 L 346 192 L 312 226 L 312 226 L 295 209 L 295 209 L 248 162 L 248 162 L 248 344 L 248 344 L 248 368 L 248 368 L 200 368 L 200 368 L 200 344 L 200 344 L 200 162 L 200 162 L 153 209 L 153 209 L 136 226 L 136 226 L 102 192 L 102 192 L 119 175 L 119 175 L 207 87 L 207 87 L 224 70 L 224 70 L 241 87 L 241 87 Z" />
</svg>