<svg xmlns="http://www.w3.org/2000/svg" viewBox="0 0 384 512">
  <path d="M 368 192 Q 366 117 316 68 L 316 68 L 316 68 Q 267 18 192 16 Q 117 18 68 68 Q 18 117 16 192 Q 17 229 44 282 Q 72 335 109 385 Q 146 435 174 467 Q 185 480 192 488 Q 199 480 210 467 Q 238 435 275 385 Q 312 335 340 282 Q 367 229 368 192 L 368 192 Z M 384 192 Q 382 242 346 304 L 346 304 L 346 304 Q 310 367 268 421 L 268 421 L 268 421 Q 225 475 203 500 Q 192 512 192 512 Q 192 512 181 500 Q 159 475 116 421 Q 74 367 38 304 Q 2 242 0 192 Q 2 110 56 56 Q 110 2 192 0 Q 274 2 328 56 Q 382 110 384 192 L 384 192 Z M 192 112 Q 237 113 261 152 Q 283 192 261 232 Q 237 271 192 272 Q 147 271 123 232 Q 101 192 123 152 Q 147 113 192 112 L 192 112 Z M 256 192 Q 255 156 224 137 Q 192 119 160 137 Q 129 156 128 192 Q 129 228 160 247 Q 192 265 224 247 Q 255 228 256 192 L 256 192 Z" />
</svg>