<svg xmlns="http://www.w3.org/2000/svg" viewBox="0 0 640 512">
  <path d="M 228 8 L 320 57 L 228 8 L 320 57 L 412 8 L 412 8 L 426 0 L 426 0 L 431 16 L 431 16 L 461 115 L 461 115 L 560 145 L 560 145 L 576 150 L 576 150 L 568 164 L 568 164 L 519 256 L 519 256 L 536 288 L 536 288 L 518 288 L 518 288 L 505 264 L 505 264 L 501 256 L 501 256 L 505 248 L 505 248 L 553 160 L 553 160 L 456 131 L 456 131 L 448 128 L 448 128 L 445 120 L 445 120 L 416 23 L 416 23 L 328 71 L 328 71 L 320 75 L 320 75 L 312 71 L 312 71 L 224 23 L 224 23 L 195 120 L 195 120 L 192 128 L 192 128 L 184 131 L 184 131 L 87 160 L 87 160 L 135 249 L 135 249 L 139 256 L 139 256 L 135 264 L 135 264 L 122 288 L 122 288 L 104 288 L 104 288 L 121 256 L 121 256 L 72 164 L 72 164 L 64 150 L 64 150 L 80 145 L 80 145 L 179 115 L 179 115 L 209 16 L 209 16 L 214 0 L 214 0 L 228 8 L 228 8 Z M 432 256 Q 432 273 427 288 L 411 288 L 411 288 Q 416 273 416 256 Q 415 215 388 188 Q 361 161 320 160 Q 279 161 252 188 Q 225 215 224 256 Q 224 273 230 288 L 213 288 L 213 288 Q 208 273 208 256 Q 209 208 241 177 Q 273 145 320 144 Q 368 145 399 177 Q 431 208 432 256 L 432 256 Z M 72 320 L 440 320 L 72 320 L 448 320 L 448 336 L 448 336 L 440 336 L 64 336 L 64 320 L 64 320 L 72 320 L 72 320 Z M 488 320 L 632 320 L 488 320 L 640 320 L 640 336 L 640 336 L 632 336 L 480 336 L 480 320 L 480 320 L 488 320 L 488 320 Z M 8 408 L 568 408 L 8 408 L 576 408 L 576 424 L 576 424 L 568 424 L 0 424 L 0 408 L 0 408 L 8 408 L 8 408 Z M 72 496 L 216 496 L 72 496 L 224 496 L 224 512 L 224 512 L 216 512 L 64 512 L 64 496 L 64 496 L 72 496 L 72 496 Z M 264 496 L 632 496 L 264 496 L 640 496 L 640 512 L 640 512 L 632 512 L 256 512 L 256 496 L 256 496 L 264 496 L 264 496 Z" />
</svg>