<svg xmlns="http://www.w3.org/2000/svg" viewBox="0 0 575 512">
  <path d="M 192 416 L 192 496 L 192 416 L 192 496 L 80 496 L 80 496 L 80 416 L 80 416 L 192 416 L 192 416 Z M 192 112 L 192 168 L 192 112 L 192 168 L 208 168 L 208 168 L 208 112 L 208 112 L 320 112 L 320 112 L 320 400 L 320 400 L 208 400 L 208 400 L 208 344 L 208 344 L 192 344 L 192 344 L 192 400 L 192 400 L 176 400 L 64 400 L 64 408 L 64 408 L 64 416 L 64 416 L 64 496 L 64 496 L 64 512 L 64 512 L 80 512 L 336 512 L 336 496 L 336 496 L 336 416 L 336 416 L 336 408 L 336 408 L 336 400 L 336 400 L 336 171 L 336 171 L 396 394 L 396 394 L 398 401 L 398 401 L 400 409 L 400 409 L 423 496 L 423 496 L 428 512 L 428 512 L 443 508 L 443 508 L 560 477 L 560 477 L 575 472 L 575 472 L 571 457 L 571 457 L 547 370 L 547 370 L 545 362 L 545 362 L 543 354 L 543 354 L 480 119 L 480 119 L 478 111 L 478 111 L 476 103 L 476 103 L 453 16 L 453 16 L 448 0 L 448 0 L 433 4 L 433 4 L 336 30 L 336 30 L 336 16 L 336 16 L 336 0 L 336 0 L 320 0 L 64 0 L 64 16 L 64 16 L 64 96 L 64 96 L 64 104 L 64 104 L 64 112 L 64 112 L 80 112 L 192 112 Z M 192 16 L 192 96 L 192 16 L 192 96 L 80 96 L 80 96 L 80 16 L 80 16 L 192 16 L 192 16 Z M 336 47 L 437 20 L 336 47 L 437 20 L 461 107 L 461 107 L 344 138 L 344 138 L 336 109 L 336 109 L 336 104 L 336 104 L 336 96 L 336 96 L 336 47 L 336 47 Z M 320 496 L 208 496 L 320 496 L 208 496 L 208 416 L 208 416 L 320 416 L 320 416 L 320 496 L 320 496 Z M 320 96 L 208 96 L 320 96 L 208 96 L 208 16 L 208 16 L 320 16 L 320 16 L 320 96 L 320 96 Z M 439 492 L 415 405 L 439 492 L 415 405 L 532 374 L 532 374 L 556 461 L 556 461 L 439 492 L 439 492 Z M 411 389 L 348 154 L 411 389 L 348 154 L 465 123 L 465 123 L 528 358 L 528 358 L 411 389 L 411 389 Z M 80 144 L 72 144 L 80 144 L 72 144 L 72 152 L 72 152 L 72 216 L 72 216 L 8 216 L 0 216 L 0 224 L 0 224 L 0 288 L 0 288 L 0 296 L 0 296 L 8 296 L 72 296 L 72 360 L 72 360 L 72 368 L 72 368 L 80 368 L 152 368 L 152 360 L 152 360 L 152 296 L 152 296 L 216 296 L 224 296 L 224 288 L 224 288 L 224 224 L 224 224 L 224 216 L 224 216 L 216 216 L 152 216 L 152 152 L 152 152 L 152 144 L 152 144 L 144 144 L 80 144 Z M 88 224 L 88 160 L 88 224 L 88 160 L 136 160 L 136 160 L 136 224 L 136 224 L 136 232 L 136 232 L 144 232 L 208 232 L 208 280 L 208 280 L 144 280 L 136 280 L 136 288 L 136 288 L 136 352 L 136 352 L 88 352 L 88 352 L 88 288 L 88 288 L 88 280 L 88 280 L 80 280 L 16 280 L 16 232 L 16 232 L 80 232 L 88 232 L 88 224 L 88 224 Z" />
</svg>