<svg xmlns="http://www.w3.org/2000/svg" viewBox="0 0 512 512">
  <path d="M 512 64 Q 511 189 451 290 L 451 290 L 451 290 Q 391 391 290 451 L 290 451 L 290 451 Q 189 511 64 512 L 32 512 L 32 512 L 0 368 L 0 368 L 144 288 L 144 288 L 211 372 L 211 372 Q 316 316 372 211 L 288 144 L 288 144 L 368 0 L 368 0 L 512 32 L 512 32 L 512 64 L 512 64 Z M 496 45 L 376 18 L 496 45 L 376 18 L 309 140 L 309 140 L 382 199 L 382 199 L 392 207 L 392 207 L 386 219 L 386 219 Q 328 327 219 386 L 207 392 L 207 392 L 199 382 L 199 382 L 140 309 L 140 309 L 18 376 L 18 376 L 45 496 L 45 496 L 64 496 L 64 496 Q 185 495 282 437 Q 379 379 437 282 Q 495 185 496 64 Q 496 64 496 64 Q 496 64 496 64 L 496 45 L 496 45 Z" />
</svg>