<svg xmlns="http://www.w3.org/2000/svg" viewBox="0 0 640 512">
  <path d="M 384 0 L 0 0 L 384 0 L 0 0 L 0 512 L 0 512 L 144 512 L 144 512 L 144 384 L 144 384 L 240 384 L 240 384 L 240 512 L 240 512 L 288 512 L 288 512 L 288 288 L 288 288 L 256 288 L 256 288 L 256 224 L 256 224 L 288 224 L 288 224 L 288 160 L 288 160 L 256 160 L 256 160 L 256 96 L 256 96 L 288 96 L 288 96 L 288 64 L 288 64 L 384 64 L 384 64 L 384 0 L 384 0 Z M 64 224 L 128 224 L 64 224 L 128 224 L 128 288 L 128 288 L 64 288 L 64 288 L 64 224 L 64 224 Z M 224 224 L 224 288 L 224 224 L 224 288 L 160 288 L 160 288 L 160 224 L 160 224 L 224 224 L 224 224 Z M 128 96 L 128 160 L 128 96 L 128 160 L 64 160 L 64 160 L 64 96 L 64 96 L 128 96 L 128 96 Z M 160 96 L 224 96 L 160 96 L 224 96 L 224 160 L 224 160 L 160 160 L 160 160 L 160 96 L 160 96 Z M 640 96 L 320 96 L 640 96 L 320 96 L 320 512 L 320 512 L 640 512 L 640 512 L 640 96 L 640 96 Z M 400 184 Q 422 186 424 208 Q 422 230 400 232 Q 378 230 376 208 Q 378 186 400 184 L 400 184 Z M 376 304 Q 378 282 400 280 Q 422 282 424 304 Q 422 326 400 328 Q 378 326 376 304 L 376 304 Z M 400 376 Q 422 378 424 400 Q 422 422 400 424 Q 378 422 376 400 Q 378 378 400 376 L 400 376 Z M 464 192 L 480 192 L 464 192 L 592 192 L 592 224 L 592 224 L 576 224 L 464 224 L 464 192 L 464 192 Z M 480 288 L 576 288 L 480 288 L 592 288 L 592 320 L 592 320 L 576 320 L 464 320 L 464 288 L 464 288 L 480 288 L 480 288 Z M 464 384 L 480 384 L 464 384 L 592 384 L 592 416 L 592 416 L 576 416 L 464 416 L 464 384 L 464 384 Z" />
</svg>