<svg xmlns="http://www.w3.org/2000/svg" viewBox="0 0 512 512">
  <path d="M 395.0172 92.143974 L 408.6385 78.52269 L 381.39594 51.280125 L 367.77466 64.901405 L 265.2144 167.46165 Q 264.41315 157.84663 261.20813 149.03287 L 262.81064 147.43036 L 314.09076 96.15024 L 327.71204 82.52895 L 300.46948 55.286385 L 286.8482 68.90767 L 242.77934 112.976524 Q 239.57434 109.771515 235.56807 105.76526 L 235.56807 105.76526 L 209.12675 79.323944 L 181.8842 105.76526 L 199.51173 145.02661 L 199.51173 145.02661 L 181.8842 105.76526 Q 161.05164 126.59781 157.04538 153.84038 L 145.02661 142.62285 L 117.784035 169.86542 L 136.21283 209.12675 L 136.21283 209.12675 L 117.784035 169.86542 Q 97.75274 190.69797 92.94523 217.13928 L 81.7277 205.92175 L 54.485134 233.16432 L 72.913925 272.42566 L 72.913925 272.42566 L 54.485134 233.16432 Q 28.043818 260.4069 28.043818 296.46323 Q 28.043818 332.51956 54.485134 359.76212 L 64.10016 368.5759 L 64.10016 368.5759 L 13.621284 419.05478 L 0 432.67606 L 27.242567 459.9186 L 40.86385 446.29733 L 91.34272 395.81848 L 100.156494 405.4335 Q 127.39906 431.07355 163.4554 431.07355 Q 199.51173 431.07355 226.7543 405.4335 L 187.49295 387.0047 L 187.49295 387.0047 L 226.7543 405.4335 L 253.99687 378.19092 L 242.77934 366.17215 Q 249.99062 365.37088 256.40063 362.96713 Q 255.59938 354.15335 255.59938 345.3396 Q 255.59938 335.72458 256.40063 326.10956 L 250.79185 323.70578 L 250.79185 323.70578 L 256.40063 326.10956 Q 257.20187 324.50705 257.20187 322.90454 Q 258.00314 320.5008 258.00314 318.8983 Q 254.79813 321.30203 250.79185 323.70578 L 197.90924 298.86697 Q 231.56181 288.4507 259.60562 311.687 Q 266.01566 286.04694 280.43817 265.2144 Q 266.01566 262.0094 253.99687 250.79185 L 245.98434 242.77934 Q 253.19562 237.97183 262.0094 235.56807 L 293.2582 249.99062 L 293.2582 249.99062 L 262.0094 235.56807 Q 284.44446 228.35681 306.07825 237.17058 Q 326.9108 219.54303 352.55087 211.53052 L 391.01096 173.07042 L 404.63223 159.44914 L 377.38968 132.20657 L 363.7684 145.82785 L 312.48825 197.10799 L 311.687 198.71048 Q 302.072 195.50548 292.45697 194.70422 L 395.0172 92.143974 L 395.0172 92.143974 Z M 261.20813 235.56807 L 261.20813 235.56807 L 254.79813 232.36307 L 254.79813 232.36307 L 261.20813 235.56807 L 261.20813 235.56807 Z M 197.90924 298.86697 L 191.49922 295.66196 L 191.49922 295.66196 L 197.90924 298.86697 L 197.90924 298.86697 L 197.90924 298.86697 Z M 197.90924 298.86697 L 250.79185 323.70578 Q 236.36932 330.91705 219.54303 329.31454 Q 203.51799 326.9108 190.69797 314.89203 L 182.68544 306.07825 Q 189.89671 301.27072 197.90924 298.86697 L 197.90924 298.86697 Z M 134.61032 362.1659 Q 151.43661 357.35837 169.06416 360.5634 L 169.06416 360.5634 Q 185.89046 364.56964 199.51173 378.19092 Q 193.90297 383.79968 187.49295 387.0047 L 134.61032 362.1659 L 134.61032 362.1659 Z M 134.61032 362.1659 L 128.20032 358.96088 L 128.20032 358.96088 L 134.61032 362.1659 L 134.61032 362.1659 L 134.61032 362.1659 Z M 134.61032 362.1659 L 187.49295 387.0047 Q 172.26917 395.0172 156.24413 392.61346 Q 140.21909 390.20972 127.39906 378.19092 L 119.38654 370.1784 Q 126.59781 364.56964 134.61032 362.1659 L 134.61032 362.1659 Z M 97.75274 325.3083 Q 94.54773 333.3208 89.74022 340.53207 L 81.7277 332.51956 Q 69.70892 319.69952 67.30516 303.6745 Q 64.901405 286.8482 72.913925 272.42566 L 97.75274 325.3083 L 97.75274 325.3083 Z M 97.75274 325.3083 L 100.95775 331.71832 L 100.95775 331.71832 L 97.75274 325.3083 L 97.75274 325.3083 L 97.75274 325.3083 Z M 97.75274 325.3083 L 72.913925 272.42566 Q 76.118935 266.01566 81.7277 260.4069 Q 95.34898 274.02817 99.35524 290.85446 Q 102.56025 308.482 97.75274 325.3083 L 97.75274 325.3083 Z M 161.05164 262.0094 Q 158.64789 270.0219 153.84038 277.2332 L 145.02661 269.22064 Q 133.00783 256.40063 130.60406 240.37558 Q 128.20032 223.5493 136.21283 209.12675 L 161.05164 262.0094 L 161.05164 262.0094 Z M 161.05164 262.0094 L 164.25665 268.4194 L 164.25665 268.4194 L 161.05164 262.0094 L 161.05164 262.0094 L 161.05164 262.0094 Z M 161.05164 262.0094 L 136.21283 209.12675 Q 140.21909 201.9155 145.02661 197.10799 Q 158.64789 210.72926 162.65414 227.55556 Q 166.6604 245.1831 161.05164 262.0094 L 161.05164 262.0094 Z M 224.35054 198.71048 Q 221.9468 206.723 217.13928 213.93427 L 209.12675 205.92175 Q 196.30673 193.10172 193.90297 177.07668 Q 192.30048 160.2504 199.51173 145.02661 L 224.35054 198.71048 L 224.35054 198.71048 Z M 224.35054 198.71048 L 227.55556 205.1205 L 227.55556 205.1205 L 224.35054 198.71048 L 224.35054 198.71048 L 224.35054 198.71048 Z M 224.35054 198.71048 L 199.51173 145.02661 Q 203.51799 138.6166 209.12675 133.00783 Q 221.9468 146.6291 225.95305 164.25665 Q 229.9593 181.08295 224.35054 198.71048 L 224.35054 198.71048 Z M 396.61972 460.71988 Q 427.86853 460.71988 454.30984 445.4961 L 454.30984 445.4961 Q 480.75116 430.2723 496.7762 403.02972 Q 512 375.78717 512 345.3396 Q 512 314.89203 496.7762 287.64944 Q 480.75116 260.4069 454.30984 245.1831 Q 427.86853 229.9593 396.61972 229.9593 Q 365.37088 229.9593 338.92957 245.1831 Q 312.48825 260.4069 296.46323 287.64944 Q 281.23944 314.89203 281.23944 345.3396 Q 281.23944 375.78717 296.46323 403.02972 Q 312.48825 430.2723 338.92957 445.4961 Q 365.37088 460.71988 396.61972 460.71988 L 396.61972 460.71988 Z M 409.43976 409.43976 L 383.79968 409.43976 L 383.79968 383.79968 L 409.43976 383.79968 L 409.43976 409.43976 L 409.43976 409.43976 Z M 409.43976 268.4194 L 409.43976 281.23944 L 409.43976 345.3396 L 409.43976 358.15964 L 383.79968 358.15964 L 383.79968 345.3396 L 383.79968 281.23944 L 383.79968 268.4194 L 409.43976 268.4194 L 409.43976 268.4194 Z" />
</svg>