<svg xmlns="http://www.w3.org/2000/svg" viewBox="0 0 640 512">
  <path d="M 16 144 L 32 144 L 16 144 L 272 144 L 272 128 L 272 128 L 272 88 L 272 88 Q 271 64 256 48 Q 240 33 216 32 Q 201 32 189 39 Q 186 40 184 42 Q 182 40 180 37 Q 163 17 136 16 Q 101 18 85 48 L 64 48 L 64 48 Q 44 49 30 62 Q 17 76 16 96 L 16 128 L 16 128 L 16 144 L 16 144 Z M 136 0 Q 167 1 188 22 Q 201 16 216 16 Q 247 17 267 37 Q 287 57 288 88 L 288 144 L 288 144 L 288 160 L 288 160 L 272 160 L 0 160 L 0 144 L 0 144 L 0 96 L 0 96 Q 1 69 19 51 Q 37 33 64 32 L 76 32 L 76 32 Q 97 2 136 0 L 136 0 Z M 288 2 Q 304 0 320 0 Q 392 1 449 35 Q 507 69 541 127 Q 575 184 576 256 Q 576 267 575 278 Q 568 273 560 270 Q 560 263 560 256 Q 559 189 527 135 Q 495 81 441 49 Q 387 17 320 16 Q 310 16 301 17 Q 295 9 288 2 L 288 2 Z M 224 476 L 224 493 L 224 476 L 224 493 Q 152 464 109 401 Q 65 338 64 256 Q 64 223 72 192 L 89 192 L 89 192 Q 80 223 80 256 Q 81 331 120 389 Q 159 447 224 476 L 224 476 Z M 224 208 Q 226 193 240 192 Q 255 193 256 208 Q 255 223 240 224 Q 226 223 224 208 L 224 208 Z M 400 192 Q 415 193 416 208 Q 415 223 400 224 Q 386 223 384 208 Q 386 193 400 192 L 400 192 Z M 640 512 L 624 512 L 640 512 L 256 512 L 256 496 L 256 496 L 256 432 L 256 432 Q 257 402 275 381 Q 293 359 321 353 Q 327 318 353 295 Q 379 273 416 272 Q 460 273 488 305 Q 502 296 520 296 Q 546 297 564 313 Q 582 330 584 356 Q 609 364 624 384 Q 640 405 640 432 L 640 496 L 640 496 L 640 512 L 640 512 Z M 575 370 Q 571 369 567 368 Q 568 366 568 363 Q 568 362 568 361 Q 568 361 568 360 Q 568 340 554 326 Q 540 313 520 312 Q 508 312 498 318 Q 491 321 485 327 Q 481 320 475 314 Q 452 289 416 288 Q 382 289 359 311 Q 337 334 336 368 Q 309 369 291 387 Q 273 405 272 432 L 272 480 L 272 480 L 272 496 L 272 496 L 288 496 L 624 496 L 624 480 L 624 480 L 624 432 L 624 432 Q 624 409 610 392 Q 597 375 575 370 L 575 370 Z" />
</svg>