<svg xmlns="http://www.w3.org/2000/svg" viewBox="0 0 512 480">
  <path d="M 432 16 L 16 16 L 432 16 L 16 16 L 16 432 L 16 432 L 228 432 L 228 432 Q 227 440 226 448 L 16 448 L 0 448 L 0 432 L 0 432 L 0 16 L 0 16 L 0 0 L 0 0 L 16 0 L 448 0 L 448 16 L 448 16 L 448 199 L 448 199 Q 440 201 432 203 L 432 16 L 432 16 Z M 368 88 L 368 231 L 368 88 L 368 231 Q 360 235 352 241 L 352 96 L 352 96 L 232 96 L 232 96 L 232 185 L 232 185 Q 262 193 264 224 Q 264 241 252 252 Q 241 264 224 264 Q 207 264 196 252 Q 184 241 184 224 Q 186 193 216 185 L 216 88 L 216 88 L 216 80 L 216 80 L 224 80 L 368 80 L 368 88 L 368 88 Z M 247 368 L 88 368 L 247 368 L 80 368 L 80 360 L 80 360 L 80 88 L 80 88 L 80 80 L 80 80 L 88 80 L 160 80 L 160 96 L 160 96 L 152 96 L 96 96 L 96 352 L 96 352 L 254 352 L 254 352 Q 250 360 247 368 L 247 368 Z M 224 200 Q 202 202 200 224 Q 202 246 224 248 Q 246 246 248 224 Q 246 202 224 200 L 224 200 Z M 512 240 Q 445 241 391 273 L 391 273 L 391 273 Q 337 305 305 359 L 305 359 L 305 359 Q 273 413 272 480 L 256 480 L 256 480 Q 257 408 291 351 Q 325 293 383 259 Q 440 225 512 224 L 512 240 L 512 240 Z M 464 448 Q 465 463 480 464 Q 495 463 496 448 Q 495 433 480 432 Q 465 433 464 448 L 464 448 Z M 512 448 Q 512 462 503 471 L 503 471 L 503 471 Q 494 480 480 480 Q 466 480 457 471 Q 448 462 448 448 Q 448 434 457 425 Q 466 416 480 416 Q 494 416 503 425 Q 512 434 512 448 L 512 448 Z M 368 480 L 352 480 L 368 480 L 352 480 Q 354 412 399 367 Q 444 322 512 320 L 512 336 L 512 336 Q 451 338 410 378 Q 370 419 368 480 L 368 480 Z" />
</svg>