<svg xmlns="http://www.w3.org/2000/svg" viewBox="0 0 512 512">
  <path d="M 256 16 Q 321 17 376 48 L 376 48 L 376 48 Q 431 80 464 136 Q 496 193 496 256 Q 496 319 464 376 Q 431 432 376 464 Q 321 495 256 496 Q 191 495 136 464 Q 81 432 48 376 Q 16 319 16 256 Q 16 193 48 136 Q 81 80 136 48 Q 191 17 256 16 L 256 16 Z M 256 512 Q 326 511 384 478 L 384 478 L 384 478 Q 442 444 478 384 Q 512 323 512 256 Q 512 189 478 128 Q 442 68 384 34 Q 326 1 256 0 Q 186 1 128 34 Q 70 68 34 128 Q 0 189 0 256 Q 0 323 34 384 Q 70 444 128 478 Q 186 511 256 512 L 256 512 Z M 317 179 L 328 168 L 317 179 L 328 168 L 317 157 L 317 157 L 304 144 L 304 144 L 160 144 L 144 144 L 144 160 L 144 160 L 144 304 L 144 304 L 157 317 L 157 317 L 168 328 L 168 328 L 179 317 L 179 317 L 205 291 L 205 291 L 216 280 L 216 280 L 227 291 L 227 291 L 301 365 L 301 365 L 312 376 L 312 376 L 323 365 L 323 365 L 365 323 L 365 323 L 376 312 L 376 312 L 365 301 L 365 301 L 291 227 L 291 227 L 280 216 L 280 216 L 291 205 L 291 205 L 317 179 L 317 179 Z M 269 227 L 353 312 L 269 227 L 353 312 L 312 353 L 312 353 L 227 269 L 227 269 L 216 257 L 216 257 L 205 269 L 205 269 L 168 305 L 168 305 L 160 297 L 160 297 L 160 160 L 160 160 L 297 160 L 297 160 L 305 168 L 305 168 L 269 205 L 269 205 L 257 216 L 257 216 L 269 227 L 269 227 Z" />
</svg>