<svg xmlns="http://www.w3.org/2000/svg" viewBox="0 0 640 512">
  <path d="M 320 96 Q 334 96 343 87 L 343 87 L 343 87 Q 352 78 352 64 Q 352 50 343 41 Q 334 32 320 32 Q 306 32 297 41 Q 288 50 288 64 Q 288 78 297 87 Q 306 96 320 96 L 320 96 Z M 320 0 Q 356 1 375 32 Q 393 64 375 96 Q 356 127 320 128 Q 284 127 265 96 Q 247 64 265 32 Q 284 1 320 0 L 320 0 Z M 255 192 L 249 320 L 255 192 L 249 320 L 256 320 L 391 320 L 385 192 L 385 192 L 255 192 L 255 192 Z M 248 352 L 216 352 L 248 352 L 216 352 L 217 320 L 217 320 L 224 160 L 224 160 L 416 160 L 416 160 L 423 320 L 423 320 L 424 352 L 424 352 L 392 352 L 384 352 L 384 496 L 384 496 L 384 512 L 384 512 L 352 512 L 352 512 L 352 496 L 352 496 L 352 352 L 352 352 L 288 352 L 288 352 L 288 496 L 288 496 L 288 512 L 288 512 L 256 512 L 256 512 L 256 496 L 256 496 L 256 352 L 256 352 L 248 352 L 248 352 Z M 248 128 L 203 128 L 248 128 L 203 128 Q 134 66 35 64 L 32 64 L 32 64 L 32 112 L 32 112 Q 32 170 57 218 Q 81 267 124 301 L 136 310 L 136 310 L 148 320 L 148 320 L 139 332 L 139 332 L 130 344 L 130 344 Q 97 389 96 448 L 112 448 L 112 448 Q 177 447 224 408 L 224 447 L 224 447 Q 175 479 112 480 L 80 480 L 64 480 L 64 464 L 64 464 L 64 448 L 64 448 Q 65 378 104 326 Q 56 288 28 233 Q 1 178 0 112 L 0 48 L 0 48 L 0 32 L 0 32 L 16 32 L 35 32 Q 99 32 154 58 Q 209 83 248 128 L 248 128 Z M 605 64 Q 506 66 437 128 L 392 128 L 392 128 Q 431 83 486 58 Q 541 32 605 32 L 624 32 L 640 32 L 640 48 L 640 48 L 640 112 L 640 112 Q 639 178 612 233 Q 584 288 536 326 Q 575 378 576 448 L 576 464 L 576 464 L 576 480 L 576 480 L 560 480 L 528 480 Q 465 479 416 447 L 416 408 L 416 408 Q 463 447 528 448 L 544 448 L 544 448 Q 543 389 510 345 L 501 332 L 501 332 L 492 320 L 492 320 L 504 310 L 504 310 L 516 301 L 516 301 Q 559 267 583 219 Q 608 170 608 112 L 608 64 L 608 64 L 605 64 L 605 64 Z" />
</svg>