<svg xmlns="http://www.w3.org/2000/svg" viewBox="0 0 448 448">
  <path d="M 432 16 L 16 16 L 432 16 L 16 16 L 16 432 L 16 432 L 432 432 L 432 432 L 432 16 L 432 16 Z M 448 0 L 448 16 L 448 0 L 448 16 L 448 432 L 448 432 L 448 448 L 448 448 L 432 448 L 0 448 L 0 432 L 0 432 L 0 16 L 0 16 L 0 0 L 0 0 L 16 0 L 448 0 Z M 112 112 L 112 144 L 112 112 L 112 144 L 128 144 L 240 144 L 240 112 L 240 112 L 224 112 L 112 112 Z M 256 160 L 240 160 L 256 160 L 96 160 L 96 144 L 96 144 L 96 112 L 96 112 L 96 96 L 96 96 L 112 96 L 256 96 L 256 112 L 256 112 L 256 144 L 256 144 L 256 160 L 256 160 Z M 112 208 L 112 240 L 112 208 L 112 240 L 128 240 L 336 240 L 336 208 L 336 208 L 320 208 L 112 208 Z M 112 304 L 112 336 L 112 304 L 112 336 L 128 336 L 176 336 L 176 304 L 176 304 L 160 304 L 112 304 Z M 128 192 L 320 192 L 128 192 L 352 192 L 352 208 L 352 208 L 352 240 L 352 240 L 352 256 L 352 256 L 336 256 L 96 256 L 96 240 L 96 240 L 96 208 L 96 208 L 96 192 L 96 192 L 112 192 L 128 192 Z M 128 288 L 160 288 L 128 288 L 192 288 L 192 304 L 192 304 L 192 336 L 192 336 L 192 352 L 192 352 L 176 352 L 96 352 L 96 336 L 96 336 L 96 304 L 96 304 L 96 288 L 96 288 L 112 288 L 128 288 Z" />
</svg>