<svg xmlns="http://www.w3.org/2000/svg" viewBox="0 0 448 512">
  <path d="M 176 304 L 176 336 L 176 304 L 176 336 L 144 336 L 96 336 L 96 354 L 96 354 L 224 469 L 224 469 L 352 354 L 352 354 L 352 336 L 352 336 L 304 336 L 272 336 L 272 304 L 272 304 L 272 192 L 272 192 L 176 192 L 176 192 L 176 304 L 176 304 Z M 64 304 L 96 304 L 64 304 L 144 304 L 144 272 L 144 272 L 144 192 L 144 192 L 144 160 L 144 160 L 176 160 L 304 160 L 304 192 L 304 192 L 304 272 L 304 272 L 304 304 L 304 304 L 336 304 L 384 304 L 384 336 L 384 336 L 384 368 L 384 368 L 224 512 L 224 512 L 64 368 L 64 368 L 64 336 L 64 336 L 64 304 L 64 304 Z M 416 176 L 416 32 L 416 176 L 416 32 L 32 32 L 32 32 L 32 176 L 32 176 L 32 192 L 32 192 L 0 192 L 0 192 L 0 176 L 0 176 L 0 16 L 0 16 L 0 0 L 0 0 L 16 0 L 448 0 L 448 16 L 448 16 L 448 176 L 448 176 L 448 192 L 448 192 L 416 192 L 416 192 L 416 176 L 416 176 Z" />
</svg>