<svg xmlns="http://www.w3.org/2000/svg" viewBox="0 0 512 512">
  <path d="M 0 187 L 0 199 L 0 187 L 0 199 L 0 325 L 0 325 L 69 443 L 69 443 L 177 506 L 177 506 L 187 512 L 187 512 L 325 512 L 325 512 L 335 506 L 335 506 L 443 443 L 443 443 L 512 325 L 512 325 L 512 199 L 512 199 L 512 187 L 512 187 L 443 69 L 443 69 L 434 63 L 434 63 L 325 0 L 325 0 L 187 0 L 187 0 L 78 63 L 78 63 L 69 69 L 69 69 L 0 187 L 0 187 Z M 80 81 L 248 134 L 80 81 L 248 134 L 248 251 L 248 251 L 130 315 L 130 315 L 16 193 L 16 193 L 16 192 L 16 192 L 80 81 L 80 81 Z M 264 134 L 432 81 L 264 134 L 432 81 L 496 192 L 496 192 L 496 193 L 496 193 L 382 315 L 382 315 L 264 251 L 264 251 L 264 134 L 264 134 Z M 413 70 L 256 120 L 413 70 L 256 120 L 99 70 L 99 70 L 192 16 L 192 16 L 320 16 L 320 16 L 413 70 L 413 70 Z M 496 216 L 496 320 L 496 216 L 496 320 L 432 432 L 432 432 L 342 484 L 342 484 L 391 329 L 391 329 L 496 216 L 496 216 Z M 322 495 L 320 496 L 322 495 L 320 496 L 192 496 L 192 496 L 190 495 L 190 495 L 138 329 L 138 329 L 256 265 L 256 265 L 374 329 L 374 329 L 322 495 L 322 495 Z M 170 484 L 80 432 L 170 484 L 80 432 L 16 320 L 16 320 L 16 216 L 16 216 L 121 329 L 121 329 L 170 483 L 170 484 Z" />
</svg>