<svg xmlns="http://www.w3.org/2000/svg" viewBox="0 0 510 510">
  <path d="M 366 60 L 414 12 L 366 60 L 414 12 L 402 0 L 402 0 L 354 48 L 354 48 L 349 54 L 349 54 L 360 65 L 360 65 L 366 60 L 366 60 Z M 462 156 L 510 108 L 462 156 L 510 108 L 498 96 L 498 96 L 450 144 L 450 144 L 445 150 L 445 150 L 456 161 L 456 161 L 462 156 L 462 156 Z M 502 20 L 507 14 L 502 20 L 507 14 L 496 3 L 496 3 L 490 8 L 490 8 L 337 162 L 337 162 Q 341 132 332 104 Q 323 75 301 53 L 290 41 L 290 41 L 278 30 L 278 30 L 267 41 L 267 41 L 256 53 L 256 53 Q 227 82 227 121 Q 227 159 256 188 L 283 216 L 283 216 L 235 264 L 235 264 Q 239 234 230 206 Q 221 177 199 154 L 188 143 L 188 143 L 176 132 L 176 132 L 165 143 L 165 143 L 154 154 L 154 154 Q 126 184 126 222 Q 126 261 154 290 L 181 318 L 181 318 L 133 365 L 133 365 Q 138 336 129 307 Q 119 279 97 256 L 86 245 L 86 245 L 75 234 L 75 234 L 63 245 L 63 245 L 52 256 L 52 256 Q 24 286 24 324 Q 24 363 52 392 L 79 419 L 79 419 L 6 493 L 6 493 L 0 499 L 0 499 L 11 510 L 11 510 L 17 504 L 17 504 L 91 431 L 91 431 L 120 460 L 120 460 Q 149 488 188 488 Q 226 488 256 460 L 267 449 L 267 449 L 278 437 L 278 437 L 267 426 L 267 426 L 255 415 L 255 415 Q 232 392 202 383 Q 172 374 142 379 L 192 329 L 192 329 L 222 358 L 222 358 Q 251 386 290 386 Q 328 386 357 358 L 369 347 L 369 347 L 380 336 L 380 336 L 369 324 L 369 324 L 357 313 L 357 313 Q 334 290 304 281 Q 274 272 244 278 L 294 227 L 294 227 L 323 256 L 323 256 Q 353 285 391 285 Q 430 285 459 256 L 471 245 L 471 245 L 482 234 L 482 234 L 471 222 L 471 222 L 459 211 L 459 211 Q 436 188 406 179 Q 376 170 346 176 L 502 20 L 502 20 Z M 290 64 Q 314 89 320 121 L 320 121 L 320 121 Q 326 153 315 184 L 294 204 L 294 204 L 267 177 L 267 177 Q 243 152 243 120 Q 243 89 267 64 L 278 53 L 278 53 L 289 64 L 290 64 Z M 188 166 Q 212 191 218 223 L 218 223 L 218 223 Q 225 255 213 286 L 192 306 L 192 306 L 165 279 L 165 279 Q 142 254 142 222 Q 142 190 165 166 L 176 154 L 176 154 L 188 166 L 188 166 Z M 86 268 Q 110 293 116 325 L 116 325 L 116 325 Q 123 357 111 388 L 91 408 L 91 408 L 63 381 L 63 381 Q 40 356 40 324 Q 40 292 63 268 L 75 256 L 75 256 L 86 268 L 86 268 Z M 306 216 L 321 200 L 306 216 L 321 200 Q 353 186 387 191 Q 421 197 448 222 L 459 234 L 459 234 L 448 245 L 448 245 Q 423 268 391 268 Q 359 268 335 245 L 306 216 L 306 216 Z M 204 318 L 220 302 L 204 318 L 220 302 Q 251 287 285 293 Q 320 298 346 324 L 357 335 L 357 335 L 346 347 L 346 347 Q 321 370 289 370 Q 258 370 233 347 L 204 318 L 204 318 Z M 102 419 L 118 404 L 102 419 L 118 404 Q 150 389 184 395 Q 218 400 244 426 L 256 437 L 256 437 L 244 448 L 244 448 Q 220 472 188 472 Q 156 472 131 448 L 102 419 L 102 419 Z" />
</svg>