<svg xmlns="http://www.w3.org/2000/svg" viewBox="0 0 640 512">
  <path d="M 558 224 L 574 224 L 558 224 L 574 224 Q 560 127 490 65 Q 420 2 320 0 Q 220 2 150 65 Q 80 127 66 224 L 82 224 L 82 224 Q 96 134 161 76 Q 227 18 320 16 Q 413 18 479 76 Q 544 134 558 224 L 558 224 Z M 256 176 Q 255 161 240 160 Q 226 161 224 176 Q 226 191 240 192 Q 255 191 256 176 L 256 176 Z M 400 192 Q 415 191 416 176 Q 415 161 400 160 Q 386 161 384 176 Q 386 191 400 192 L 400 192 Z M 187 102 L 182 117 L 187 102 L 182 117 L 189 120 L 189 120 L 285 152 L 285 152 L 293 154 L 293 154 L 298 139 L 298 139 L 291 136 L 291 136 L 195 104 L 195 104 L 187 102 L 187 102 Z M 458 117 L 453 102 L 458 117 L 453 102 L 445 104 L 445 104 L 349 136 L 349 136 L 342 139 L 342 139 L 347 154 L 347 154 L 355 152 L 355 152 L 451 120 L 451 120 L 458 117 L 458 117 Z M 624 272 L 624 496 L 624 272 L 624 496 L 16 496 L 16 496 L 16 272 L 16 272 L 624 272 L 624 272 Z M 16 256 L 0 256 L 16 256 L 0 256 L 0 272 L 0 272 L 0 496 L 0 496 L 0 512 L 0 512 L 16 512 L 640 512 L 640 496 L 640 496 L 640 272 L 640 272 L 640 256 L 640 256 L 624 256 L 16 256 Z M 288 352 L 288 416 L 288 352 L 288 416 L 264 416 L 264 416 L 264 432 L 264 432 L 288 432 L 288 432 L 288 456 L 288 456 L 304 456 L 304 456 L 304 432 L 304 432 L 368 432 L 368 432 L 368 456 L 368 456 L 384 456 L 384 456 L 384 432 L 384 432 L 408 432 L 408 432 L 408 416 L 408 416 L 384 416 L 384 416 L 384 352 L 384 352 L 408 352 L 408 352 L 408 336 L 408 336 L 384 336 L 384 336 L 384 312 L 384 312 L 368 312 L 368 312 L 368 336 L 368 336 L 304 336 L 304 336 L 304 312 L 304 312 L 288 312 L 288 312 L 288 336 L 288 336 L 264 336 L 264 336 L 264 352 L 264 352 L 288 352 L 288 352 Z M 304 352 L 368 352 L 304 352 L 368 352 L 368 416 L 368 416 L 304 416 L 304 416 L 304 352 L 304 352 Z M 471 460 L 567 316 L 471 460 L 567 316 L 553 308 L 553 308 L 457 452 L 457 452 L 471 460 L 471 460 Z M 472 336 Q 465 335 464 328 Q 465 321 472 320 Q 479 321 480 328 Q 479 335 472 336 L 472 336 Z M 472 352 Q 494 350 496 328 Q 494 306 472 304 Q 450 306 448 328 Q 450 350 472 352 L 472 352 Z M 560 440 Q 559 447 552 448 Q 545 447 544 440 Q 545 433 552 432 Q 559 433 560 440 L 560 440 Z M 576 440 Q 574 418 552 416 Q 530 418 528 440 Q 530 462 552 464 Q 574 462 576 440 L 576 440 Z M 208 432 Q 215 433 216 440 Q 215 447 208 448 Q 201 447 200 440 Q 201 433 208 432 L 208 432 Z M 208 464 Q 230 462 232 440 Q 230 418 208 416 Q 186 418 184 440 Q 186 462 208 464 L 208 464 Z M 216 312 L 216 304 L 216 312 L 216 304 L 200 304 L 200 304 L 200 312 L 200 312 L 200 392 L 200 392 L 200 400 L 200 400 L 216 400 L 216 400 L 216 392 L 216 392 L 216 312 L 216 312 Z M 87 341 Q 92 337 102 336 Q 123 335 140 340 L 148 342 L 148 342 L 152 327 L 152 327 L 144 325 L 144 325 Q 134 322 120 321 L 120 312 L 120 312 L 120 304 L 120 304 L 104 304 L 104 304 L 104 312 L 104 312 L 104 320 L 104 320 Q 102 320 100 321 Q 100 321 100 321 Q 88 321 78 328 Q 68 334 65 348 Q 63 359 67 367 Q 71 375 78 379 Q 92 386 108 390 Q 108 390 109 390 L 110 391 L 110 391 Q 127 395 137 401 Q 141 404 143 407 Q 145 410 144 417 Q 142 426 136 429 Q 129 432 118 432 Q 94 430 74 423 L 67 421 L 67 421 L 62 436 L 62 436 L 70 438 L 70 438 Q 83 443 103 447 L 103 456 L 103 456 L 103 464 L 103 464 L 119 464 L 119 464 L 119 456 L 119 456 L 119 448 L 119 448 Q 132 448 144 442 Q 156 436 159 419 Q 161 409 158 401 Q 153 392 146 388 Q 132 379 115 375 Q 115 375 114 375 Q 114 375 114 375 Q 114 375 114 375 Q 114 375 114 375 Q 114 375 114 375 Q 114 375 114 375 Q 114 375 114 375 Q 97 371 87 365 Q 83 362 81 360 Q 80 357 80 351 Q 82 344 87 341 L 87 341 Z" />
</svg>