<svg xmlns="http://www.w3.org/2000/svg" viewBox="0 0 512 510">
  <path d="M 501 17 L 509 15 L 501 17 L 509 15 L 505 0 L 505 0 L 497 2 L 497 2 L 6 118 L 6 118 L 0 120 L 0 120 L 0 126 L 0 126 L 0 142 L 0 142 L 0 238 L 0 238 L 0 246 L 0 246 L 0 494 L 0 494 L 0 510 L 0 510 L 16 510 L 512 510 L 512 494 L 512 494 L 512 142 L 512 142 L 512 126 L 512 126 L 496 126 L 43 126 L 501 17 L 501 17 Z M 16 142 L 496 142 L 16 142 L 496 142 L 496 238 L 496 238 L 16 238 L 16 238 L 16 142 L 16 142 Z M 496 254 L 496 494 L 496 254 L 496 494 L 16 494 L 16 494 L 16 254 L 16 254 L 496 254 L 496 254 Z M 424 374 Q 423 406 396 422 Q 368 438 340 422 Q 313 406 312 374 Q 313 342 340 326 Q 368 310 396 326 Q 423 342 424 374 L 424 374 Z M 296 374 Q 297 415 332 436 Q 368 456 404 436 Q 439 415 440 374 Q 439 333 404 312 Q 368 292 332 312 Q 297 333 296 374 L 296 374 Z M 64 334 L 64 350 L 64 334 L 64 350 L 72 350 L 224 350 L 224 334 L 224 334 L 216 334 L 64 334 Z M 80 398 L 80 414 L 80 398 L 80 414 L 88 414 L 208 414 L 208 398 L 208 398 L 200 398 L 80 398 Z" />
</svg>