<svg xmlns="http://www.w3.org/2000/svg" viewBox="0 0 512 384">
  <path d="M 144 8 L 144 0 L 144 8 L 144 0 L 160 0 L 160 0 L 160 8 L 160 8 L 160 152 L 160 152 L 160 160 L 160 160 L 152 160 L 0 160 L 0 144 L 0 144 L 8 144 L 144 144 L 144 8 L 144 8 Z M 152 224 L 160 224 L 152 224 L 160 224 L 160 232 L 160 232 L 160 376 L 160 376 L 160 384 L 160 384 L 144 384 L 144 384 L 144 376 L 144 376 L 144 240 L 144 240 L 8 240 L 0 240 L 0 224 L 0 224 L 8 224 L 152 224 Z M 368 8 L 368 144 L 368 8 L 368 144 L 504 144 L 512 144 L 512 160 L 512 160 L 504 160 L 352 160 L 352 152 L 352 152 L 352 8 L 352 8 L 352 0 L 352 0 L 368 0 L 368 0 L 368 8 L 368 8 Z M 360 224 L 504 224 L 360 224 L 512 224 L 512 240 L 512 240 L 504 240 L 368 240 L 368 376 L 368 376 L 368 384 L 368 384 L 352 384 L 352 384 L 352 376 L 352 376 L 352 232 L 352 232 L 352 224 L 352 224 L 360 224 L 360 224 Z" />
</svg>