<svg xmlns="http://www.w3.org/2000/svg" viewBox="0 0 512 518">
  <path d="M 472 6 L 472 14 L 472 6 L 472 14 L 472 46 L 472 46 L 504 46 L 512 46 L 512 62 L 512 62 L 504 62 L 472 62 L 472 94 L 472 94 L 472 102 L 472 102 L 456 102 L 456 102 L 456 94 L 456 94 L 456 62 L 456 62 L 424 62 L 416 62 L 416 46 L 416 46 L 424 46 L 456 46 L 456 14 L 456 14 L 456 6 L 456 6 L 472 6 L 472 6 Z M 56 70 L 56 78 L 56 70 L 56 78 L 56 110 L 56 110 L 88 110 L 96 110 L 96 126 L 96 126 L 88 126 L 56 126 L 56 158 L 56 158 L 56 166 L 56 166 L 40 166 L 40 166 L 40 158 L 40 158 L 40 126 L 40 126 L 8 126 L 0 126 L 0 110 L 0 110 L 8 110 L 40 110 L 40 78 L 40 78 L 40 70 L 40 70 L 56 70 L 56 70 Z M 96 454 L 104 454 L 96 454 L 416 454 L 416 462 L 416 462 L 416 510 L 416 510 L 416 518 L 416 518 L 400 518 L 400 518 L 400 510 L 400 510 L 400 470 L 400 470 L 112 470 L 112 470 L 112 510 L 112 510 L 112 518 L 112 518 L 96 518 L 96 518 L 96 510 L 96 510 L 96 462 L 96 462 L 96 454 L 96 454 Z M 256 22 Q 242 22 233 31 L 233 31 L 233 31 Q 224 40 224 54 Q 224 68 233 77 Q 242 86 256 86 Q 270 86 279 77 Q 288 68 288 54 Q 288 40 279 31 Q 270 22 256 22 L 256 22 Z M 304 54 Q 303 81 280 96 Q 256 108 232 96 Q 209 81 208 54 Q 209 27 232 12 Q 256 0 280 12 Q 303 27 304 54 L 304 54 Z M 190 134 L 193 134 L 190 134 L 322 134 L 325 137 L 325 137 L 424 261 L 424 261 L 429 267 L 429 267 L 423 272 L 423 272 L 385 302 L 385 302 L 379 307 L 379 307 L 374 301 L 374 301 L 328 243 L 328 243 L 328 422 L 328 422 L 312 422 L 312 422 L 312 221 L 312 221 L 312 198 L 312 198 L 326 216 L 326 216 L 382 285 L 382 285 L 407 265 L 407 265 L 315 150 L 315 150 L 197 150 L 197 150 L 106 265 L 106 265 L 131 285 L 131 285 L 186 216 L 186 216 L 200 198 L 200 198 L 200 221 L 200 221 L 200 422 L 200 422 L 184 422 L 184 422 L 184 243 L 184 243 L 138 301 L 138 301 L 133 307 L 133 307 L 127 302 L 127 302 L 89 272 L 89 272 L 83 267 L 83 267 L 88 261 L 88 261 L 187 137 L 187 137 L 190 134 L 190 134 Z M 280 318 L 280 422 L 280 318 L 280 422 L 264 422 L 264 422 L 264 326 L 264 326 L 248 326 L 248 326 L 248 422 L 248 422 L 232 422 L 232 422 L 232 318 L 232 318 L 232 310 L 232 310 L 240 310 L 280 310 L 280 318 L 280 318 Z" />
</svg>