<svg xmlns="http://www.w3.org/2000/svg" viewBox="0 0 208 448">
  <path d="M 136 0 L 144 0 L 136 0 L 144 0 L 144 8 L 144 8 L 144 157 L 144 157 L 206 218 L 206 218 L 208 221 L 208 221 L 208 227 L 208 227 L 206 230 L 206 230 L 144 291 L 144 291 L 144 440 L 144 440 L 144 448 L 144 448 L 136 448 L 0 448 L 0 432 L 0 432 L 8 432 L 128 432 L 128 288 L 128 288 L 128 285 L 128 285 L 130 282 L 130 282 L 189 224 L 189 224 L 130 166 L 130 166 L 128 163 L 128 163 L 128 160 L 128 160 L 128 16 L 128 16 L 8 16 L 0 16 L 0 0 L 0 0 L 8 0 L 136 0 Z" />
</svg>