<svg xmlns="http://www.w3.org/2000/svg" viewBox="0 0 448 512">
  <path d="M 0 56 Q 1 32 16 16 L 16 16 L 16 16 Q 32 1 56 0 L 440 0 L 448 0 L 448 8 L 448 8 L 448 408 L 448 408 L 448 416 L 448 416 L 440 416 L 416 416 L 416 496 L 416 496 L 440 496 L 448 496 L 448 512 L 448 512 L 440 512 L 56 512 Q 32 511 16 496 Q 1 480 0 456 L 0 56 L 0 56 Z M 56 416 Q 39 416 28 428 L 28 428 L 28 428 Q 16 439 16 456 Q 16 473 28 484 Q 39 496 56 496 L 400 496 L 400 496 L 400 416 L 400 416 L 56 416 L 56 416 Z M 16 417 Q 32 401 56 400 L 432 400 L 432 400 L 432 16 L 432 16 L 56 16 L 56 16 Q 39 16 28 28 Q 16 39 16 56 L 16 417 L 16 417 Z M 245 96 L 247 100 L 245 96 L 247 100 L 357 320 L 357 320 L 339 320 L 339 320 L 307 256 L 307 256 L 173 256 L 173 256 L 141 320 L 141 320 L 123 320 L 123 320 L 233 100 L 233 100 L 235 96 L 235 96 L 245 96 L 245 96 Z M 181 240 L 299 240 L 181 240 L 299 240 L 240 122 L 240 122 L 181 240 L 181 240 Z" />
</svg>