<svg xmlns="http://www.w3.org/2000/svg" viewBox="0 0 576 378">
  <path d="M 560 189 Q 558 84 493 11 L 506 0 L 506 0 Q 539 38 557 86 Q 576 135 576 189 Q 576 243 557 292 Q 539 340 506 378 L 493 367 L 493 367 Q 558 294 560 189 L 560 189 Z M 16 189 Q 18 294 83 367 L 71 378 L 71 378 Q 37 340 19 292 Q 0 243 0 189 Q 0 135 19 86 Q 37 38 71 0 L 83 11 L 83 11 Q 18 84 16 189 L 16 189 Z M 96 189 Q 98 115 143 63 L 155 74 L 155 74 Q 113 121 112 189 Q 113 257 155 304 L 143 315 L 143 315 Q 98 263 96 189 L 96 189 Z M 480 189 Q 478 263 433 315 L 421 304 L 421 304 Q 463 257 464 189 Q 463 121 421 74 L 433 63 L 433 63 Q 478 115 480 189 L 480 189 Z M 288 141 Q 315 142 330 165 Q 342 189 330 213 Q 315 236 288 237 Q 261 236 246 213 Q 234 189 246 165 Q 261 142 288 141 L 288 141 Z M 320 189 Q 320 175 311 166 L 311 166 L 311 166 Q 302 157 288 157 Q 274 157 265 166 Q 256 175 256 189 Q 256 203 265 212 Q 274 221 288 221 Q 302 221 311 212 Q 320 203 320 189 L 320 189 Z" />
</svg>