<svg xmlns="http://www.w3.org/2000/svg" viewBox="0 0 576 448">
  <path d="M 16 16 L 16 432 L 16 16 L 16 432 L 560 432 L 560 432 L 560 16 L 560 16 L 16 16 L 16 16 Z M 0 0 L 16 0 L 0 0 L 576 0 L 576 16 L 576 16 L 576 432 L 576 432 L 576 448 L 576 448 L 560 448 L 0 448 L 0 432 L 0 432 L 0 16 L 0 16 L 0 0 L 0 0 Z M 360 144 L 504 144 L 360 144 L 512 144 L 512 160 L 512 160 L 504 160 L 352 160 L 352 144 L 352 144 L 360 144 L 360 144 Z M 360 208 L 504 208 L 360 208 L 512 208 L 512 224 L 512 224 L 504 224 L 352 224 L 352 208 L 352 208 L 360 208 L 360 208 Z M 360 272 L 504 272 L 360 272 L 512 272 L 512 288 L 512 288 L 504 288 L 352 288 L 352 272 L 352 272 L 360 272 L 360 272 Z M 102 336 L 85 336 L 102 336 L 85 336 L 112 256 L 112 256 L 272 256 L 272 256 L 299 336 L 299 336 L 282 336 L 282 336 L 261 272 L 261 272 L 124 272 L 124 272 L 102 336 L 102 336 Z M 240 160 Q 239 133 216 118 Q 192 106 168 118 Q 145 133 144 160 Q 145 187 168 202 Q 192 214 216 202 Q 239 187 240 160 L 240 160 Z M 128 160 Q 129 124 160 105 Q 192 87 224 105 Q 255 124 256 160 Q 255 196 224 215 Q 192 233 160 215 Q 129 196 128 160 L 128 160 Z" />
</svg>