<svg xmlns="http://www.w3.org/2000/svg" viewBox="0 0 510 512">
  <path d="M 255 96 Q 282 95 297 72 Q 309 48 297 24 Q 282 1 255 0 Q 228 1 213 24 Q 201 48 213 72 Q 228 95 255 96 L 255 96 Z M 150 88 L 130 88 L 150 88 L 130 88 L 126 108 L 126 108 Q 121 131 104 145 Q 87 160 63 160 Q 56 160 49 159 L 37 156 L 37 156 L 28 163 L 28 163 L 16 174 L 16 174 L 0 187 L 0 187 L 10 204 L 10 204 L 96 352 L 96 352 L 152 352 L 152 352 L 68 208 L 68 208 Q 99 206 124 190 Q 148 174 162 148 Q 197 190 255 192 Q 313 190 348 148 Q 362 174 386 190 Q 411 206 442 208 L 358 352 L 358 352 L 414 352 L 414 352 L 500 204 L 500 204 L 510 187 L 510 187 L 494 174 L 494 174 L 482 163 L 482 163 L 473 156 L 473 156 L 461 159 L 461 159 Q 454 160 447 160 Q 423 160 406 145 Q 389 131 384 108 L 380 88 L 380 88 L 360 88 L 327 88 L 321 102 L 321 102 Q 312 121 294 132 Q 277 144 255 144 Q 233 144 216 132 Q 198 121 190 102 L 183 88 L 183 88 L 168 88 L 150 88 Z M 116 464 L 132 432 L 116 464 L 132 432 L 378 432 L 378 432 L 395 464 L 395 464 L 116 464 L 116 464 Z M 447 461 L 407 384 L 447 461 L 407 384 L 103 384 L 103 384 L 63 461 L 63 461 L 63 464 L 63 464 L 63 512 L 63 512 L 111 512 L 447 512 L 447 464 L 447 464 L 447 461 L 447 461 Z" />
</svg>