<svg xmlns="http://www.w3.org/2000/svg" viewBox="0 0 528 512">
  <path d="M 528 8 L 528 0 L 528 8 L 528 0 L 512 0 L 512 0 L 512 8 L 512 8 L 512 504 L 512 504 L 512 512 L 512 512 L 528 512 L 528 512 L 528 504 L 528 504 L 528 8 L 528 8 Z M 400 96 L 384 96 L 400 96 L 384 96 L 384 104 L 384 104 L 384 504 L 384 504 L 384 512 L 384 512 L 400 512 L 400 512 L 400 504 L 400 504 L 400 104 L 400 104 L 400 96 L 400 96 Z M 272 200 L 272 192 L 272 200 L 272 192 L 256 192 L 256 192 L 256 200 L 256 200 L 256 504 L 256 504 L 256 512 L 256 512 L 272 512 L 272 512 L 272 504 L 272 504 L 272 200 L 272 200 Z M 144 288 L 128 288 L 144 288 L 128 288 L 128 296 L 128 296 L 128 504 L 128 504 L 128 512 L 128 512 L 144 512 L 144 512 L 144 504 L 144 504 L 144 296 L 144 296 L 144 288 L 144 288 Z M 16 384 L 0 384 L 16 384 L 0 384 L 0 392 L 0 392 L 0 504 L 0 504 L 0 512 L 0 512 L 16 512 L 16 512 L 16 504 L 16 504 L 16 392 L 16 392 L 16 384 L 16 384 Z" />
</svg>