<svg xmlns="http://www.w3.org/2000/svg" viewBox="0 0 640 448">
  <path d="M 448 16 L 448 352 L 448 16 L 448 352 L 302 352 L 302 352 Q 296 324 275 306 Q 254 289 224 288 Q 200 288 181 301 Q 162 313 152 333 Q 142 313 123 301 Q 104 288 80 288 Q 39 289 16 320 L 16 272 L 16 272 L 16 16 L 16 16 L 448 16 L 448 16 Z M 152 403 Q 162 423 181 435 L 181 435 L 181 435 Q 200 448 224 448 Q 258 447 281 425 Q 303 402 304 368 L 448 368 L 448 368 Q 449 402 471 425 Q 494 447 528 448 Q 560 447 582 427 Q 604 407 608 376 L 640 376 L 640 376 L 640 368 L 640 368 L 640 360 L 640 360 L 640 200 L 640 200 L 640 197 L 640 197 L 638 195 L 638 195 L 566 99 L 566 99 L 564 96 L 564 96 L 560 96 L 464 96 L 464 16 L 464 16 L 464 0 L 464 0 L 448 0 L 0 0 L 0 16 L 0 16 L 0 272 L 0 272 L 0 352 L 0 352 L 0 368 L 0 368 Q 1 402 23 425 Q 46 447 80 448 Q 104 448 123 435 Q 142 423 152 403 L 152 403 Z M 624 208 L 624 360 L 624 208 L 624 360 L 608 360 L 608 360 Q 604 329 582 309 Q 560 289 528 288 Q 487 289 464 320 L 464 208 L 464 208 L 624 208 L 624 208 Z M 556 112 L 616 192 L 556 112 L 616 192 L 464 192 L 464 192 L 464 112 L 464 112 L 556 112 L 556 112 Z M 528 304 Q 564 305 583 336 Q 601 368 583 400 Q 564 431 528 432 Q 492 431 473 400 Q 455 368 473 336 Q 492 305 528 304 L 528 304 Z M 160 368 Q 161 332 192 313 Q 224 295 256 313 Q 287 332 288 368 Q 287 404 256 423 Q 224 441 192 423 Q 161 404 160 368 L 160 368 Z M 80 304 Q 116 305 135 336 Q 153 368 135 400 Q 116 431 80 432 Q 44 431 25 400 Q 7 368 25 336 Q 44 305 80 304 L 80 304 Z" />
</svg>