<svg xmlns="http://www.w3.org/2000/svg" viewBox="0 0 410 512">
  <path d="M 29 16 L 381 16 L 29 16 L 381 16 L 381 388 L 381 388 L 396 416 L 396 416 L 397 416 L 397 416 L 397 400 L 397 400 L 397 16 L 397 16 L 397 0 L 397 0 L 381 0 L 13 0 L 13 16 L 13 16 L 13 400 L 13 400 L 13 416 L 13 416 L 14 416 L 14 416 L 29 388 L 29 388 L 29 16 L 29 16 Z M 125 288 L 120 288 L 125 288 L 120 288 L 118 292 L 118 292 L 6 500 L 6 500 L 0 512 L 0 512 L 13 512 L 410 512 L 404 500 L 404 500 L 292 292 L 292 292 L 290 288 L 290 288 L 285 288 L 125 288 Z M 384 496 L 26 496 L 384 496 L 26 496 L 130 304 L 130 304 L 280 304 L 280 304 L 384 496 L 384 496 Z" />
</svg>