<svg xmlns="http://www.w3.org/2000/svg" viewBox="0 0 512 448">
  <path d="M 6 218 L 0 224 L 6 218 L 0 224 L 6 230 L 6 230 L 142 366 L 142 366 L 147 371 L 147 371 L 159 360 L 159 360 L 153 354 L 153 354 L 31 232 L 31 232 L 339 232 L 347 232 L 347 216 L 347 216 L 339 216 L 31 216 L 153 94 L 153 94 L 159 88 L 159 88 L 147 77 L 147 77 L 142 82 L 142 82 L 6 218 L 6 218 Z M 328 432 L 320 432 L 328 432 L 320 432 L 320 448 L 320 448 L 328 448 L 512 448 L 512 440 L 512 440 L 512 8 L 512 8 L 512 0 L 512 0 L 504 0 L 320 0 L 320 16 L 320 16 L 328 16 L 496 16 L 496 432 L 496 432 L 328 432 L 328 432 Z" />
</svg>