<svg xmlns="http://www.w3.org/2000/svg" viewBox="0 0 512 512">
  <path d="M 496 256 Q 495 191 464 136 L 464 136 L 464 136 Q 432 81 376 48 Q 319 16 256 16 Q 193 16 136 48 Q 80 81 48 136 Q 17 191 16 256 Q 17 321 48 376 Q 80 431 136 464 Q 193 496 256 496 Q 319 496 376 464 Q 432 431 464 376 Q 495 321 496 256 L 496 256 Z M 0 256 Q 1 186 34 128 L 34 128 L 34 128 Q 68 70 128 34 Q 189 0 256 0 Q 323 0 384 34 Q 444 70 478 128 Q 511 186 512 256 Q 511 326 478 384 Q 444 442 384 478 Q 323 512 256 512 Q 189 512 128 478 Q 68 442 34 384 Q 1 326 0 256 L 0 256 Z M 256 348 Q 183 347 121 329 Q 139 368 175 392 Q 211 415 256 416 Q 302 415 338 392 Q 373 368 391 329 Q 329 347 256 348 L 256 348 Z M 256 332 Q 334 331 398 310 Q 408 306 417 303 Q 414 313 411 322 Q 393 371 352 401 Q 311 431 256 432 Q 202 431 161 401 Q 119 371 101 322 Q 98 313 96 303 Q 105 306 114 310 Q 178 331 256 332 L 256 332 Z M 160 208 Q 162 193 176 192 Q 191 193 192 208 Q 191 223 176 224 Q 162 223 160 208 L 160 208 Z M 336 192 Q 351 193 352 208 Q 351 223 336 224 Q 322 223 320 208 Q 322 193 336 192 L 336 192 Z" />
</svg>