<svg xmlns="http://www.w3.org/2000/svg" viewBox="0 0 512 512">
  <path d="M 442.4 152 L 460.8 134.4 L 442.4 116 L 396 69.6 L 377.6 51.2 L 360 69.6 L 251.2 187.2 L 271.2 203.2 L 378.4 88 L 424 133.6 L 313.6 236 L 334.4 252.8 L 442.4 152 L 442.4 152 Z M 236.8 306.4 L 245.6 315.2 L 223.2 388.8 L 104.8 425.6 L 159.2 371.2 Q 159.2 371.2 159.2 371.2 Q 160 371.2 160 371.2 Q 177.6 369.6 179.2 352 Q 177.6 334.4 160 332.8 Q 142.4 334.4 140.8 352 Q 140.8 352 140.8 352.8 Q 140.8 352.8 140.8 352.8 L 86.4 407.2 L 123.2 288.8 L 189.6 268 L 164.8 248.8 L 102.4 268.8 L 51.2 435.2 L 76.8 460.8 L 243.2 409.6 L 268 330.4 L 236.8 306.4 L 236.8 306.4 Z M 26.4 59.2 L 16 51.2 L 0 71.2 L 10.4 79.2 L 486.4 452.8 L 496 460.8 L 512 440.8 L 502.4 432.8 L 26.4 59.2 L 26.4 59.2 Z" />
</svg>