<svg xmlns="http://www.w3.org/2000/svg" viewBox="0 0 637 512">
  <path d="M 504 331 Q 543 278 544 208 Q 542 120 483 61 Q 424 2 336 0 Q 255 2 198 52 Q 142 102 130 180 L 352 106 L 352 106 L 352 392 L 352 392 Q 352 394 352 396 Q 352 398 352 400 Q 352 408 350 416 Q 412 411 459 376 L 569 487 L 569 487 L 592 509 L 592 509 L 637 464 L 637 464 L 615 441 L 615 441 L 504 331 L 504 331 Z M 320 152 L 288 163 L 320 152 L 288 163 L 96 227 L 96 227 L 80 232 L 80 232 L 80 249 L 80 249 L 80 297 L 80 297 L 80 418 L 80 418 Q 72 416 64 416 Q 37 417 19 430 Q 1 444 0 464 Q 1 484 19 498 Q 37 512 64 512 Q 89 512 106 500 Q 124 489 127 470 Q 128 468 128 465 L 128 464 L 128 464 L 128 315 L 128 315 L 272 267 L 272 267 L 272 354 L 272 354 Q 264 352 256 352 Q 229 353 211 366 Q 193 380 192 400 Q 193 420 211 434 Q 229 448 256 448 Q 283 448 301 434 Q 319 420 320 400 Q 320 398 320 396 Q 320 396 320 396 Q 320 395 320 393 L 320 233 L 320 233 L 320 185 L 320 185 L 320 152 L 320 152 Z" />
</svg>