<svg xmlns="http://www.w3.org/2000/svg" viewBox="0 0 448 448">
  <path d="M 432 16 L 432 288 L 432 16 L 432 288 L 304 288 L 288 288 L 288 304 L 288 304 L 288 432 L 288 432 L 16 432 L 16 432 L 16 16 L 16 16 L 432 16 L 432 16 Z M 425 304 L 304 425 L 425 304 L 304 425 L 304 304 L 304 304 L 425 304 L 425 304 Z M 16 448 L 288 448 L 16 448 L 304 448 L 448 304 L 448 304 L 448 288 L 448 288 L 448 16 L 448 16 L 448 0 L 448 0 L 432 0 L 0 0 L 0 16 L 0 16 L 0 432 L 0 432 L 0 448 L 0 448 L 16 448 L 16 448 Z M 72 64 L 64 64 L 72 64 L 64 64 L 64 72 L 64 72 L 64 120 L 64 120 L 64 128 L 64 128 L 72 128 L 128 128 L 128 120 L 128 120 L 128 72 L 128 72 L 128 64 L 128 64 L 120 64 L 72 64 Z M 80 112 L 80 80 L 80 112 L 80 80 L 112 80 L 112 80 L 112 112 L 112 112 L 80 112 L 80 112 Z M 64 192 L 64 200 L 64 192 L 64 200 L 64 248 L 64 248 L 64 256 L 64 256 L 72 256 L 128 256 L 128 248 L 128 248 L 128 200 L 128 200 L 128 192 L 128 192 L 120 192 L 64 192 Z M 80 208 L 112 208 L 80 208 L 112 208 L 112 240 L 112 240 L 80 240 L 80 240 L 80 208 L 80 208 Z M 72 320 L 64 320 L 72 320 L 64 320 L 64 328 L 64 328 L 64 376 L 64 376 L 64 384 L 64 384 L 72 384 L 128 384 L 128 376 L 128 376 L 128 328 L 128 328 L 128 320 L 128 320 L 120 320 L 72 320 Z M 80 368 L 80 336 L 80 368 L 80 336 L 112 336 L 112 336 L 112 368 L 112 368 L 80 368 L 80 368 Z" />
</svg>