<svg xmlns="http://www.w3.org/2000/svg" viewBox="0 0 544 384">
  <path d="M 152 16 L 152 53 L 152 16 L 152 53 L 98 115 L 98 115 L 96 117 L 96 117 L 96 120 L 96 120 L 96 216 L 96 216 L 96 224 L 96 224 L 104 224 L 224 224 L 224 216 L 224 216 L 224 120 L 224 120 L 224 117 L 224 117 L 222 115 L 222 115 L 168 53 L 168 53 L 168 16 L 168 16 L 336 16 L 368 16 L 368 208 L 368 208 L 368 224 L 368 224 L 368 368 L 368 368 L 16 368 L 16 368 L 16 16 L 16 16 L 152 16 L 152 16 Z M 384 368 L 384 224 L 384 368 L 384 224 L 432 224 L 432 224 Q 480 223 511 191 Q 543 160 544 112 Q 543 64 511 33 Q 480 1 432 0 L 384 0 L 0 0 L 0 16 L 0 16 L 0 368 L 0 368 L 0 384 L 0 384 L 16 384 L 384 384 L 384 368 L 384 368 Z M 432 208 L 384 208 L 432 208 L 384 208 L 384 16 L 384 16 L 432 16 L 432 16 Q 473 17 500 44 Q 527 71 528 112 Q 527 153 500 180 Q 473 207 432 208 L 432 208 Z M 112 123 L 160 68 L 112 123 L 160 68 L 208 123 L 208 123 L 208 208 L 208 208 L 112 208 L 112 208 L 112 123 L 112 123 Z" />
</svg>