<svg xmlns="http://www.w3.org/2000/svg" viewBox="0 0 352 512">
  <path d="M 232 320 L 232 368 L 232 320 L 232 368 L 280 368 L 352 368 L 352 416 L 352 416 L 352 464 L 352 464 L 352 512 L 352 512 L 304 512 L 88 512 L 88 464 L 88 464 L 88 256 L 88 256 L 88 208 L 88 208 L 48 208 L 0 208 L 0 160 L 0 160 L 126 34 L 126 34 L 160 0 L 160 0 L 194 34 L 194 34 L 320 160 L 320 160 L 320 208 L 320 208 L 280 208 L 232 208 L 232 256 L 232 256 L 232 320 L 232 320 Z M 252 160 L 160 68 L 252 160 L 160 68 L 68 160 L 68 160 L 88 160 L 136 160 L 136 208 L 136 208 L 136 464 L 136 464 L 304 464 L 304 464 L 304 416 L 304 416 L 232 416 L 184 416 L 184 368 L 184 368 L 184 208 L 184 208 L 184 160 L 184 160 L 232 160 L 252 160 Z" />
</svg>