<svg xmlns="http://www.w3.org/2000/svg" viewBox="0 0 448 512">
  <path d="M 56 0 Q 32 1 16 16 L 16 16 L 16 16 Q 1 32 0 56 L 0 456 L 0 456 Q 1 480 16 496 Q 32 511 56 512 L 440 512 L 448 512 L 448 496 L 448 496 L 440 496 L 416 496 L 416 416 L 416 416 L 440 416 L 448 416 L 448 408 L 448 408 L 448 8 L 448 8 L 448 0 L 448 0 L 440 0 L 56 0 Z M 400 416 L 400 496 L 400 416 L 400 496 L 56 496 L 56 496 Q 39 496 28 484 Q 16 473 16 456 Q 16 439 28 428 Q 39 416 56 416 L 400 416 L 400 416 Z M 56 400 Q 32 401 16 417 L 16 56 L 16 56 Q 16 39 28 28 Q 39 16 56 16 L 432 16 L 432 16 L 432 400 L 432 400 L 56 400 L 56 400 Z M 133 221 L 125 235 L 133 221 L 125 235 L 132 239 L 132 239 L 223 288 L 223 288 L 132 337 L 132 337 L 125 341 L 125 341 L 133 355 L 133 355 L 140 351 L 140 351 L 240 297 L 240 297 L 340 351 L 340 351 L 347 355 L 347 355 L 355 341 L 355 341 L 348 337 L 348 337 L 257 288 L 257 288 L 348 239 L 348 239 L 355 235 L 355 235 L 347 221 L 347 221 L 340 225 L 340 225 L 240 279 L 240 279 L 140 225 L 140 225 L 133 221 L 133 221 Z M 168 136 Q 169 113 188 97 L 188 97 L 188 97 Q 208 81 240 80 Q 272 81 292 97 Q 311 113 312 136 Q 311 163 284 180 L 280 183 L 280 183 L 280 187 L 280 187 L 280 208 L 280 208 L 200 208 L 200 208 L 200 187 L 200 187 L 200 183 L 200 183 L 196 180 L 196 180 Q 169 163 168 136 L 168 136 Z M 240 64 Q 204 65 178 85 L 178 85 L 178 85 Q 153 104 152 136 Q 154 171 184 192 L 184 216 L 184 216 L 184 224 L 184 224 L 192 224 L 296 224 L 296 216 L 296 216 L 296 192 L 296 192 Q 326 171 328 136 Q 327 104 302 85 Q 276 65 240 64 L 240 64 Z M 208 152 Q 223 151 224 136 Q 223 121 208 120 Q 193 121 192 136 Q 193 151 208 152 L 208 152 Z M 288 136 Q 287 121 272 120 Q 257 121 256 136 Q 257 151 272 152 Q 287 151 288 136 L 288 136 Z" />
</svg>