<svg xmlns="http://www.w3.org/2000/svg" viewBox="0 0 640 448">
  <path d="M 16 16 L 16 336 L 16 16 L 16 336 L 178 336 L 432 336 L 432 16 L 432 16 L 16 16 L 16 16 Z M 173 352 L 16 352 L 173 352 L 0 352 L 0 336 L 0 336 L 0 16 L 0 16 L 0 0 L 0 0 L 16 0 L 448 0 L 448 16 L 448 16 L 448 336 L 448 336 L 448 352 L 448 352 L 432 352 L 275 352 L 302 432 L 302 432 L 384 432 L 384 432 L 384 448 L 384 448 L 307 448 L 64 448 L 64 432 L 64 432 L 146 432 L 146 432 L 173 352 L 173 352 Z M 190 352 L 163 432 L 190 352 L 163 432 L 285 432 L 285 432 L 258 352 L 258 352 L 190 352 L 190 352 Z M 624 16 L 496 16 L 624 16 L 496 16 L 496 432 L 496 432 L 624 432 L 624 432 L 624 16 L 624 16 Z M 496 0 L 624 0 L 496 0 L 640 0 L 640 16 L 640 16 L 640 432 L 640 432 L 640 448 L 640 448 L 624 448 L 480 448 L 480 432 L 480 432 L 480 16 L 480 16 L 480 0 L 480 0 L 496 0 L 496 0 Z M 520 96 L 528 96 L 520 96 L 600 96 L 600 112 L 600 112 L 592 112 L 520 112 L 520 96 L 520 96 Z M 528 160 L 592 160 L 528 160 L 600 160 L 600 176 L 600 176 L 592 176 L 520 176 L 520 160 L 520 160 L 528 160 L 528 160 Z M 544 304 Q 545 289 560 288 Q 575 289 576 304 Q 575 319 560 320 Q 545 319 544 304 L 544 304 Z M 64 64 L 64 288 L 64 64 L 64 288 L 384 288 L 384 288 L 384 64 L 384 64 L 64 64 L 64 64 Z M 48 48 L 64 48 L 48 48 L 400 48 L 400 64 L 400 64 L 400 288 L 400 288 L 400 304 L 400 304 L 384 304 L 48 304 L 48 288 L 48 288 L 48 64 L 48 64 L 48 48 L 48 48 Z" />
</svg>