<svg xmlns="http://www.w3.org/2000/svg" viewBox="0 0 374 390">
  <path d="M 193 193 L 187 198 L 193 193 L 187 198 L 181 193 L 181 193 L 5 17 L 5 17 L 0 11 L 0 11 L 11 0 L 11 0 L 17 5 L 17 5 L 187 176 L 187 176 L 357 5 L 357 5 L 363 0 L 363 0 L 374 11 L 374 11 L 369 17 L 369 17 L 193 193 L 193 193 Z M 193 385 L 187 390 L 193 385 L 187 390 L 181 385 L 181 385 L 5 209 L 5 209 L 0 203 L 0 203 L 11 192 L 11 192 L 17 197 L 17 197 L 187 368 L 187 368 L 357 197 L 357 197 L 363 192 L 363 192 L 374 203 L 374 203 L 369 209 L 369 209 L 193 385 L 193 385 Z" />
</svg>