<svg xmlns="http://www.w3.org/2000/svg" viewBox="0 0 576 480">
  <path d="M 8 0 L 128 0 L 8 0 L 128 0 L 128 16 L 128 16 L 16 16 L 16 16 L 16 128 L 16 128 L 0 128 L 0 128 L 0 8 L 0 8 L 0 0 L 0 0 L 8 0 L 8 0 Z M 0 160 L 16 160 L 0 160 L 16 160 L 16 288 L 16 288 L 0 288 L 0 288 L 0 160 L 0 160 Z M 0 320 L 16 320 L 0 320 L 16 320 L 16 432 L 16 432 L 128 432 L 128 432 L 128 448 L 128 448 L 8 448 L 0 448 L 0 440 L 0 440 L 0 320 L 0 320 Z M 448 161 Q 440 160 432 160 L 432 16 L 432 16 L 320 16 L 320 16 L 320 0 L 320 0 L 440 0 L 448 0 L 448 8 L 448 8 L 448 161 L 448 161 Z M 288 437 L 288 448 L 288 437 L 288 448 L 160 448 L 160 448 L 160 432 L 160 432 L 285 432 L 285 432 Q 286 435 288 437 Q 288 437 288 437 L 288 437 Z M 160 16 L 160 0 L 160 16 L 160 0 L 288 0 L 288 0 L 288 16 L 288 16 L 160 16 L 160 16 Z M 560 336 Q 560 301 543 272 L 543 272 L 543 272 Q 526 243 496 225 Q 466 208 432 208 Q 398 208 368 225 Q 338 243 321 272 Q 304 301 304 336 Q 304 371 321 400 Q 338 429 368 447 Q 398 464 432 464 Q 466 464 496 447 Q 526 429 543 400 Q 560 371 560 336 L 560 336 Z M 288 336 Q 288 297 307 264 L 307 264 L 307 264 Q 326 231 360 211 Q 394 192 432 192 Q 470 192 504 211 Q 538 231 557 264 Q 576 297 576 336 Q 576 375 557 408 Q 538 441 504 461 Q 470 480 432 480 Q 394 480 360 461 Q 326 441 307 408 Q 288 375 288 336 L 288 336 Z M 440 264 L 440 328 L 440 264 L 440 328 L 504 328 L 512 328 L 512 344 L 512 344 L 504 344 L 440 344 L 440 408 L 440 408 L 440 416 L 440 416 L 424 416 L 424 416 L 424 408 L 424 408 L 424 344 L 424 344 L 360 344 L 352 344 L 352 328 L 352 328 L 360 328 L 424 328 L 424 264 L 424 264 L 424 256 L 424 256 L 440 256 L 440 256 L 440 264 L 440 264 Z" />
</svg>