<svg xmlns="http://www.w3.org/2000/svg" viewBox="0 0 448 448">
  <path d="M 128 16 L 128 96 L 128 16 L 128 96 L 216 96 L 320 96 L 320 16 L 320 16 L 128 16 L 128 16 Z M 112 96 L 112 16 L 112 96 L 112 16 L 16 16 L 16 16 L 16 96 L 16 96 L 112 96 L 112 96 Z M 16 112 L 16 216 L 16 112 L 16 216 L 216 216 L 216 216 L 216 112 L 216 112 L 16 112 L 16 112 Z M 16 336 L 112 336 L 16 336 L 112 336 L 112 232 L 112 232 L 16 232 L 16 232 L 16 336 L 16 336 Z M 16 352 L 16 432 L 16 352 L 16 432 L 216 432 L 216 432 L 216 352 L 216 352 L 128 352 L 16 352 Z M 128 336 L 320 336 L 128 336 L 320 336 L 320 232 L 320 232 L 128 232 L 128 232 L 128 336 L 128 336 Z M 336 336 L 432 336 L 336 336 L 432 336 L 432 232 L 432 232 L 336 232 L 336 232 L 336 336 L 336 336 Z M 432 352 L 336 352 L 432 352 L 232 352 L 232 432 L 232 432 L 432 432 L 432 432 L 432 352 L 432 352 Z M 432 112 L 232 112 L 432 112 L 232 112 L 232 216 L 232 216 L 432 216 L 432 216 L 432 112 L 432 112 Z M 432 96 L 432 16 L 432 96 L 432 16 L 336 16 L 336 16 L 336 96 L 336 96 L 432 96 L 432 96 Z M 0 0 L 16 0 L 0 0 L 448 0 L 448 16 L 448 16 L 448 432 L 448 432 L 448 448 L 448 448 L 432 448 L 0 448 L 0 432 L 0 432 L 0 16 L 0 16 L 0 0 L 0 0 Z" />
</svg>