<svg xmlns="http://www.w3.org/2000/svg" viewBox="0 0 590 480">
  <path d="M 160 480 L 0 320 L 160 480 L 0 320 L 160 160 L 160 160 L 231 160 L 231 160 L 231 224 L 231 224 L 391 224 L 391 224 L 391 288 L 391 288 L 416 288 L 416 288 L 544 160 L 544 160 L 416 32 L 416 32 L 391 32 L 391 32 L 391 96 L 391 96 L 247 96 L 247 96 L 247 64 L 247 64 L 359 64 L 359 64 L 359 0 L 359 0 L 430 0 L 430 0 L 590 160 L 590 160 L 430 320 L 430 320 L 359 320 L 359 320 L 359 256 L 359 256 L 199 256 L 199 256 L 199 192 L 199 192 L 174 192 L 174 192 L 46 320 L 46 320 L 174 448 L 174 448 L 199 448 L 199 448 L 199 384 L 199 384 L 343 384 L 343 384 L 343 416 L 343 416 L 231 416 L 231 416 L 231 480 L 231 480 L 160 480 L 160 480 Z" />
</svg>