<svg xmlns="http://www.w3.org/2000/svg" viewBox="0 0 512 512">
  <path d="M 224 0 L 219 0 L 224 0 L 219 0 L 217 5 L 217 5 L 94 258 L 94 258 L 85 267 L 85 267 L 33 319 L 33 319 Q 1 352 0 399 Q 1 447 33 479 Q 65 511 113 512 Q 160 511 193 479 L 245 427 L 245 427 L 254 418 L 254 418 L 507 295 L 507 295 L 512 293 L 512 293 L 512 288 L 512 288 L 512 216 L 512 216 L 512 208 L 512 208 L 504 208 L 416 208 L 416 104 L 416 104 L 416 96 L 416 96 L 408 96 L 304 96 L 304 8 L 304 8 L 304 0 L 304 0 L 296 0 L 224 0 Z M 330 364 L 245 405 L 330 364 L 245 405 L 245 405 L 245 405 L 182 342 L 182 342 L 260 263 L 260 263 L 397 220 L 397 220 L 330 364 L 330 364 Z M 292 115 L 249 252 L 292 115 L 249 252 L 170 330 L 170 330 L 107 267 L 107 267 L 107 267 L 107 267 L 149 182 L 149 182 L 292 115 L 292 115 Z M 288 99 L 160 159 L 288 99 L 160 159 L 229 16 L 229 16 L 288 16 L 288 16 L 288 99 L 288 99 Z M 268 244 L 310 112 L 268 244 L 310 112 L 400 112 L 400 112 L 400 202 L 400 202 L 268 244 L 268 244 Z M 53 322 L 96 279 L 53 322 L 96 279 L 233 416 L 233 416 L 190 459 L 190 459 L 53 322 L 53 322 Z M 179 470 Q 151 496 113 496 Q 72 495 44 468 Q 17 440 16 399 Q 16 361 42 333 L 179 470 L 179 470 Z M 353 352 L 413 224 L 353 352 L 413 224 L 496 224 L 496 224 L 496 283 L 496 283 L 353 352 L 353 352 Z" />
</svg>