<svg xmlns="http://www.w3.org/2000/svg" viewBox="0 0 640 448">
  <path d="M 96 48 L 96 0 L 96 48 L 96 0 L 144 0 L 640 0 L 640 48 L 640 48 L 640 88 L 640 88 L 640 136 L 640 136 Q 623 136 612 148 Q 600 159 600 176 Q 600 193 612 204 Q 623 216 640 216 L 640 264 L 640 264 L 640 304 L 640 304 L 640 352 L 640 352 L 592 352 L 96 352 L 96 304 L 96 304 L 96 264 L 96 264 L 96 216 L 96 216 Q 113 216 124 204 Q 136 193 136 176 Q 136 159 124 148 Q 113 136 96 136 L 96 88 L 96 88 L 96 48 L 96 48 Z M 144 102 Q 182 128 184 176 Q 182 224 144 250 L 144 304 L 144 304 L 592 304 L 592 304 L 592 250 L 592 250 Q 554 224 552 176 Q 554 128 592 102 L 592 48 L 592 48 L 144 48 L 144 48 L 144 102 L 144 102 Z M 48 64 L 48 88 L 48 64 L 48 88 L 48 400 L 48 400 L 520 400 L 544 400 L 544 448 L 544 448 L 520 448 L 0 448 L 0 424 L 0 424 L 0 88 L 0 88 L 0 64 L 0 64 L 48 64 L 48 64 Z M 272 144 L 272 208 L 272 144 L 272 208 L 464 208 L 464 208 L 464 144 L 464 144 L 272 144 L 272 144 Z M 224 96 L 272 96 L 224 96 L 512 96 L 512 144 L 512 144 L 512 208 L 512 208 L 512 256 L 512 256 L 464 256 L 224 256 L 224 208 L 224 208 L 224 144 L 224 144 L 224 96 L 224 96 Z" />
</svg>