<svg xmlns="http://www.w3.org/2000/svg" viewBox="0 0 512 448">
  <path d="M 496 432 L 16 432 L 496 432 L 16 432 L 16 272 L 16 272 L 496 272 L 496 272 L 496 432 L 496 432 Z M 512 448 L 512 432 L 512 448 L 512 432 L 512 272 L 512 272 L 512 256 L 512 256 L 496 256 L 0 256 L 0 272 L 0 272 L 0 432 L 0 432 L 0 448 L 0 448 L 16 448 L 512 448 Z M 272 176 L 16 176 L 272 176 L 16 176 L 16 16 L 16 16 L 192 16 L 272 16 L 272 176 L 272 176 Z M 288 176 L 288 16 L 288 176 L 288 16 L 408 16 L 408 16 L 408 173 L 408 173 L 358 122 L 358 122 L 352 117 L 352 117 L 341 128 L 341 128 L 346 134 L 346 134 L 410 198 L 410 198 L 416 203 L 416 203 L 422 198 L 422 198 L 486 134 L 486 134 L 492 128 L 492 128 L 480 117 L 480 117 L 474 122 L 474 122 L 424 173 L 424 173 L 424 8 L 424 8 L 424 0 L 424 0 L 416 0 L 0 0 L 0 16 L 0 16 L 0 176 L 0 176 L 0 192 L 0 192 L 16 192 L 288 192 L 288 176 L 288 176 Z M 72 344 L 72 360 L 72 344 L 72 360 L 80 360 L 440 360 L 440 344 L 440 344 L 432 344 L 72 344 Z M 80 88 Q 73 89 72 96 Q 73 103 80 104 L 208 104 L 208 104 Q 215 103 216 96 Q 215 89 208 88 L 80 88 L 80 88 Z" />
</svg>