<svg xmlns="http://www.w3.org/2000/svg" viewBox="0 0 640 512">
  <path d="M 424 48 Q 424 48 424 48 L 424 48 L 424 48 Q 424 48 424 48 Q 400 49 384 64 Q 369 80 368 104 L 368 113 L 368 113 L 362 119 L 362 119 L 322 167 L 322 167 L 315 176 L 315 176 L 304 176 L 288 176 Q 240 177 209 209 Q 177 240 176 288 L 176 312 L 176 312 L 152 312 L 97 312 L 90 298 L 90 298 L 61 235 L 61 235 L 57 247 L 57 247 Q 48 269 48 292 L 48 296 L 48 296 Q 49 340 78 370 Q 108 399 152 400 L 192 400 L 192 400 L 192 376 L 192 376 L 192 352 L 192 352 L 240 352 L 240 352 L 240 376 L 240 376 L 240 406 L 240 406 L 298 464 L 298 464 L 384 464 L 384 464 L 384 448 L 384 448 Q 383 433 368 432 L 344 432 L 331 432 L 324 421 L 324 421 L 308 397 L 308 397 L 300 385 L 300 385 L 307 372 L 307 372 L 336 322 L 336 322 L 336 320 L 336 320 Q 335 300 322 286 Q 308 273 288 272 L 272 272 L 272 272 L 272 224 L 272 224 L 288 224 L 288 224 Q 329 225 356 252 Q 383 279 384 320 L 384 328 L 384 328 L 384 334 L 384 334 L 381 340 L 381 340 L 356 383 L 356 383 L 357 384 L 357 384 L 368 384 L 368 384 Q 395 385 413 403 Q 431 421 432 448 L 432 488 L 432 488 L 432 512 L 432 512 L 408 512 L 278 512 L 271 505 L 271 505 L 214 448 L 214 448 L 152 448 L 152 448 Q 87 446 45 403 Q 2 361 0 296 L 0 292 L 0 292 Q 0 259 12 229 L 34 175 L 34 175 L 40 160 L 40 160 L 56 160 L 79 160 L 86 174 L 86 174 L 127 264 L 127 264 L 130 264 L 130 264 Q 140 205 183 167 Q 227 129 288 128 L 293 128 L 293 128 L 320 95 L 320 95 Q 325 54 353 28 Q 382 1 424 0 Q 424 0 424 0 Q 424 0 424 0 L 424 0 L 424 0 L 512 0 L 527 0 L 533 13 L 533 13 L 543 32 L 543 32 Q 585 36 612 65 Q 639 94 640 136 L 640 200 L 640 200 L 640 224 L 640 224 L 616 224 L 588 224 L 571 246 L 571 246 L 564 256 L 564 256 L 552 256 L 460 256 L 445 277 L 445 277 L 500 307 L 500 307 L 512 314 L 512 314 L 512 328 L 512 328 L 512 360 L 512 360 L 512 384 L 512 384 L 464 384 L 464 384 L 464 360 L 464 360 L 464 342 L 464 342 L 416 316 L 416 316 Q 415 283 400 256 L 429 218 L 429 218 L 436 208 L 436 208 L 448 208 L 540 208 L 528 208 L 521 208 L 517 203 L 517 203 L 489 176 L 489 176 L 464 176 L 448 176 L 448 144 L 448 144 L 464 144 L 503 144 L 507 149 L 507 149 L 535 176 L 535 176 L 592 176 L 592 176 L 592 136 L 592 136 Q 591 112 576 96 Q 560 81 536 80 L 528 80 L 513 80 L 507 67 L 507 67 L 497 48 L 497 48 L 424 48 L 424 48 Q 424 48 424 48 Q 424 48 424 48 Q 424 48 424 48 Q 424 48 424 48 L 424 48 Z M 456 88 Q 457 73 472 72 Q 487 73 488 88 Q 487 103 472 104 Q 457 103 456 88 L 456 88 Z" />
</svg>