<svg xmlns="http://www.w3.org/2000/svg" viewBox="0 0 576 448">
  <path d="M 8 16 L 568 16 L 8 16 L 576 16 L 576 0 L 576 0 L 568 0 L 0 0 L 0 16 L 0 16 L 8 16 L 8 16 Z M 16 219 L 22 214 L 16 219 L 22 214 L 120 115 L 120 115 L 120 440 L 120 440 L 120 448 L 120 448 L 136 448 L 136 448 L 136 440 L 136 440 L 136 115 L 136 115 L 234 214 L 234 214 L 240 219 L 240 219 L 251 208 L 251 208 L 246 202 L 246 202 L 134 90 L 134 90 L 128 85 L 128 85 L 122 90 L 122 90 L 10 202 L 10 202 L 5 208 L 5 208 L 16 219 L 16 219 Z M 336 219 L 342 214 L 336 219 L 342 214 L 440 115 L 440 115 L 440 440 L 440 440 L 440 448 L 440 448 L 456 448 L 456 448 L 456 440 L 456 440 L 456 115 L 456 115 L 554 214 L 554 214 L 560 219 L 560 219 L 571 208 L 571 208 L 566 202 L 566 202 L 454 90 L 454 90 L 448 85 L 448 85 L 442 90 L 442 90 L 330 202 L 330 202 L 324 208 L 324 208 L 336 219 L 336 219 Z" />
</svg>