<svg xmlns="http://www.w3.org/2000/svg" viewBox="0 0 576 512">
  <path d="M 493 11 L 504 0 L 493 11 L 504 0 L 515 11 L 515 11 L 565 61 L 565 61 L 576 72 L 576 72 L 565 83 L 565 83 L 270 378 L 270 378 L 268 380 L 268 380 L 268 380 L 268 380 Q 272 394 272 408 Q 271 450 244 479 Q 217 508 176 512 L 176 512 L 176 512 L 168 512 L 0 512 L 0 496 L 0 496 L 0 464 L 0 464 L 0 448 L 0 448 L 16 448 L 64 448 L 64 432 L 64 432 L 64 408 L 64 408 Q 65 364 94 334 Q 124 305 168 304 Q 182 304 196 308 L 196 308 L 196 308 L 198 306 L 198 306 L 493 11 L 493 11 Z M 258 367 L 339 286 L 258 367 L 339 286 L 290 237 L 290 237 L 209 318 L 209 318 L 258 367 L 258 367 Z M 192 323 Q 181 320 168 320 Q 131 321 106 346 Q 81 371 80 408 L 80 448 L 80 448 L 80 464 L 80 464 L 64 464 L 16 464 L 16 496 L 16 496 L 32 496 L 175 496 Q 210 492 232 468 Q 255 444 256 408 Q 256 395 253 384 L 192 323 L 192 323 Z M 553 72 L 504 23 L 553 72 L 504 23 L 301 226 L 301 226 L 350 275 L 350 275 L 553 72 L 553 72 Z" />
</svg>