<svg xmlns="http://www.w3.org/2000/svg" viewBox="0 0 512 512">
  <path d="M 16 16 L 16 80 L 16 16 L 16 80 L 496 80 L 496 80 L 496 16 L 496 16 L 16 16 L 16 16 Z M 0 0 L 16 0 L 0 0 L 512 0 L 512 16 L 512 16 L 512 80 L 512 80 L 512 96 L 512 96 L 496 96 L 152 96 L 152 176 L 152 176 L 152 192 L 152 192 L 152 272 L 152 272 L 152 288 L 152 288 L 152 416 L 152 416 Q 152 416 152 416 Q 152 416 152 417 Q 169 420 181 433 Q 192 446 192 464 Q 191 484 178 498 Q 164 511 144 512 Q 124 511 110 498 Q 97 484 96 464 Q 96 446 107 433 Q 119 420 136 417 Q 136 417 136 416 Q 136 416 136 416 L 136 288 L 136 288 L 136 272 L 136 272 L 136 192 L 136 192 L 136 176 L 136 176 L 136 96 L 136 96 L 16 96 L 0 96 L 0 80 L 0 80 L 0 16 L 0 16 L 0 0 L 0 0 Z M 104 176 L 104 192 L 104 176 L 104 192 L 17 192 L 0 192 L 6 176 L 6 176 L 24 128 L 24 128 L 41 128 L 41 128 L 23 176 L 23 176 L 104 176 L 104 176 Z M 184 192 L 184 176 L 184 192 L 184 176 L 489 176 L 489 176 L 471 128 L 471 128 L 488 128 L 488 128 L 506 176 L 506 176 L 512 192 L 512 192 L 495 192 L 184 192 Z M 489 272 L 471 224 L 489 272 L 471 224 L 488 224 L 488 224 L 506 272 L 506 272 L 512 288 L 512 288 L 495 288 L 184 288 L 184 272 L 184 272 L 489 272 L 489 272 Z M 104 272 L 104 288 L 104 272 L 104 288 L 17 288 L 0 288 L 6 272 L 6 272 L 24 224 L 24 224 L 41 224 L 41 224 L 23 272 L 23 272 L 104 272 L 104 272 Z M 144 496 Q 158 496 167 487 L 167 487 L 167 487 Q 176 478 176 464 Q 176 450 167 441 Q 158 432 144 432 Q 130 432 121 441 Q 112 450 112 464 Q 112 478 121 487 Q 130 496 144 496 L 144 496 Z" />
</svg>