<svg xmlns="http://www.w3.org/2000/svg" viewBox="0 0 448 448">
  <path d="M 16 16 L 16 432 L 16 16 L 16 432 L 432 432 L 432 432 L 432 16 L 432 16 L 16 16 L 16 16 Z M 0 0 L 16 0 L 0 0 L 448 0 L 448 16 L 448 16 L 448 432 L 448 432 L 448 448 L 448 448 L 432 448 L 0 448 L 0 432 L 0 432 L 0 16 L 0 16 L 0 0 L 0 0 Z M 128 96 L 144 96 L 128 96 L 144 96 L 144 104 L 144 104 L 144 248 L 144 248 L 302 96 L 302 96 L 326 96 L 326 96 L 214 203 L 214 203 L 215 203 L 215 203 L 321 352 L 321 352 L 302 352 L 302 352 L 202 214 L 202 214 L 144 270 L 144 270 L 144 344 L 144 344 L 144 352 L 144 352 L 128 352 L 128 352 L 128 344 L 128 344 L 128 267 L 128 267 L 128 104 L 128 104 L 128 96 L 128 96 Z" />
</svg>