<svg xmlns="http://www.w3.org/2000/svg" viewBox="0 0 512 512">
  <path d="M 160 416 L 144 416 L 160 416 L 0 416 L 0 400 L 0 400 L 0 16 L 0 16 L 0 0 L 0 0 L 16 0 L 512 0 L 512 16 L 512 16 L 512 400 L 512 400 L 512 416 L 512 416 L 496 416 L 304 416 L 176 501 L 176 501 L 160 512 L 160 512 L 160 493 L 160 493 L 160 432 L 160 432 L 160 416 L 160 416 Z M 160 400 L 176 400 L 160 400 L 176 400 L 176 416 L 176 416 L 176 482 L 176 482 L 295 403 L 295 403 L 299 400 L 299 400 L 304 400 L 496 400 L 496 16 L 496 16 L 16 16 L 16 16 L 16 400 L 16 400 L 160 400 L 160 400 Z M 214 142 L 147 208 L 214 142 L 147 208 L 214 274 L 214 274 L 219 280 L 219 280 L 208 291 L 208 291 L 202 286 L 202 286 L 130 214 L 130 214 L 125 208 L 125 208 L 130 202 L 130 202 L 202 130 L 202 130 L 208 124 L 208 124 L 219 136 L 219 136 L 214 142 L 214 142 Z M 310 130 L 382 202 L 310 130 L 382 202 L 387 208 L 387 208 L 382 214 L 382 214 L 310 286 L 310 286 L 304 292 L 304 292 L 293 280 L 293 280 L 298 274 L 298 274 L 365 208 L 365 208 L 298 142 L 298 142 L 293 136 L 293 136 L 304 125 L 304 125 L 310 130 L 310 130 Z" />
</svg>