<svg xmlns="http://www.w3.org/2000/svg" viewBox="0 0 576 512">
  <path d="M 320 0 L 304 4 L 320 0 L 304 4 L 64 64 L 64 64 L 64 496 L 64 496 L 8 496 L 0 496 L 0 512 L 0 512 L 8 512 L 320 512 L 320 496 L 320 496 L 320 17 L 320 17 L 320 0 L 320 0 Z M 96 496 L 80 496 L 96 496 L 80 496 L 80 77 L 80 77 L 304 21 L 304 21 L 304 496 L 304 496 L 96 496 L 96 496 Z M 496 80 L 496 504 L 496 80 L 496 504 L 496 512 L 496 512 L 504 512 L 576 512 L 576 496 L 576 496 L 568 496 L 512 496 L 512 72 L 512 72 L 512 64 L 512 64 L 504 64 L 352 64 L 352 80 L 352 80 L 496 80 L 496 80 Z M 232 216 Q 217 217 209 229 Q 200 240 200 256 Q 200 272 209 283 Q 217 295 232 296 Q 247 295 255 283 Q 264 272 264 256 Q 264 240 255 229 Q 247 217 232 216 L 232 216 Z M 216 256 Q 216 245 221 238 Q 226 232 232 232 Q 238 232 243 238 Q 248 245 248 256 Q 248 267 243 274 Q 238 280 232 280 Q 226 280 221 274 Q 216 267 216 256 L 216 256 Z" />
</svg>