<svg xmlns="http://www.w3.org/2000/svg" viewBox="0 0 635 506">
  <path d="M 235 0 L 240 4 L 235 0 L 240 4 L 464 196 L 464 196 L 470 201 L 470 201 L 460 213 L 460 213 L 454 208 L 454 208 L 411 171 L 411 171 L 411 218 L 411 218 L 395 218 L 395 218 L 395 158 L 395 158 L 235 21 L 235 21 L 75 158 L 75 158 L 75 394 L 75 394 L 267 394 L 267 394 L 267 410 L 267 410 L 67 410 L 59 410 L 59 402 L 59 402 L 59 171 L 59 171 L 16 208 L 16 208 L 10 213 L 10 213 L 0 201 L 0 201 L 6 196 L 6 196 L 230 4 L 230 4 L 235 0 L 235 0 Z M 299 178 L 299 218 L 299 178 L 299 218 L 283 218 L 283 218 L 283 186 L 283 186 L 187 186 L 187 186 L 187 282 L 187 282 L 267 282 L 267 282 L 267 298 L 267 298 L 179 298 L 171 298 L 171 290 L 171 290 L 171 178 L 171 178 L 171 170 L 171 170 L 179 170 L 299 170 L 299 178 L 299 178 Z M 571 266 L 315 266 L 571 266 L 315 266 L 315 442 L 315 442 L 571 442 L 571 442 L 571 266 L 571 266 Z M 299 266 L 299 250 L 299 266 L 299 250 L 315 250 L 587 250 L 587 266 L 587 266 L 587 442 L 587 442 L 619 442 L 635 442 L 635 458 L 635 458 L 635 474 L 635 474 L 603 506 L 603 506 L 283 506 L 283 506 L 251 474 L 251 474 L 251 458 L 251 458 L 251 442 L 251 442 L 267 442 L 299 442 L 299 266 L 299 266 Z M 571 458 L 315 458 L 571 458 L 267 458 L 267 467 L 267 467 L 290 490 L 290 490 L 596 490 L 596 490 L 619 467 L 619 467 L 619 458 L 619 458 L 587 458 L 571 458 Z" />
</svg>