<svg xmlns="http://www.w3.org/2000/svg" viewBox="0 0 448 448">
  <path d="M 432 16 L 432 432 L 432 16 L 432 432 L 16 432 L 16 432 L 16 16 L 16 16 L 432 16 L 432 16 Z M 16 0 L 0 0 L 16 0 L 0 0 L 0 16 L 0 16 L 0 432 L 0 432 L 0 448 L 0 448 L 16 448 L 448 448 L 448 432 L 448 432 L 448 16 L 448 16 L 448 0 L 448 0 L 432 0 L 16 0 Z M 224 80 Q 263 80 296 99 L 296 99 L 296 99 Q 329 118 349 152 Q 368 186 368 224 Q 368 262 349 296 Q 329 330 296 349 Q 263 368 224 368 Q 185 368 152 349 Q 119 330 99 296 Q 80 262 80 224 Q 80 186 99 152 Q 119 118 152 99 Q 185 80 224 80 L 224 80 Z M 224 384 Q 267 384 304 363 L 304 363 L 304 363 Q 341 341 363 304 Q 384 266 384 224 Q 384 182 363 144 Q 341 107 304 85 Q 267 64 224 64 Q 181 64 144 85 Q 107 107 85 144 Q 64 182 64 224 Q 64 266 85 304 Q 107 341 144 363 Q 181 384 224 384 L 224 384 Z M 144 224 Q 145 179 184 155 Q 224 133 264 155 Q 303 179 304 224 Q 303 269 264 293 Q 224 315 184 293 Q 145 269 144 224 L 144 224 Z M 320 224 Q 320 198 307 176 L 307 176 L 307 176 Q 294 154 272 141 Q 249 128 224 128 Q 199 128 176 141 Q 154 154 141 176 Q 128 198 128 224 Q 128 250 141 272 Q 154 294 176 307 Q 199 320 224 320 Q 249 320 272 307 Q 294 294 307 272 Q 320 250 320 224 L 320 224 Z" />
</svg>