<svg xmlns="http://www.w3.org/2000/svg" viewBox="0 0 640 512">
  <path d="M 312 0 L 312 8 L 312 0 L 312 8 L 312 16 L 312 16 L 312 220 L 312 220 L 256 255 L 256 255 L 256 112 L 256 112 L 256 96 L 256 96 L 240 96 L 152 96 Q 112 150 78 208 Q 50 256 26 311 Q 2 367 0 423 Q 1 461 26 486 Q 51 511 89 512 Q 118 512 148 504 Q 177 497 207 487 Q 208 487 209 486 Q 233 479 256 473 L 256 306 L 256 306 L 240 316 L 240 316 L 240 461 L 240 461 Q 223 466 205 471 Q 203 472 201 472 Q 201 472 201 472 Q 201 472 201 472 Q 201 472 201 472 Q 201 472 201 472 Q 199 473 198 473 Q 183 478 169 482 Q 127 495 89 496 Q 58 495 37 475 Q 17 454 16 423 Q 17 370 40 317 Q 63 264 92 216 Q 123 162 160 112 L 240 112 L 240 112 L 240 265 L 240 265 L 140 329 L 140 329 L 133 334 L 133 334 L 142 347 L 142 347 L 148 343 L 148 343 L 320 234 L 320 234 L 492 343 L 492 343 L 498 347 L 498 347 L 507 334 L 507 334 L 500 329 L 500 329 L 400 265 L 400 265 L 400 112 L 400 112 L 480 112 L 480 112 Q 517 162 548 216 Q 577 264 600 317 Q 623 370 624 423 Q 623 454 603 475 Q 582 495 551 496 Q 513 495 471 482 Q 457 478 442 473 Q 441 473 439 472 Q 439 472 439 472 Q 439 472 439 472 Q 439 472 439 472 Q 439 472 439 472 Q 435 471 432 470 Q 416 465 400 461 L 400 316 L 400 316 L 384 306 L 384 306 L 384 473 L 384 473 Q 408 479 433 487 Q 463 497 492 504 Q 522 512 551 512 Q 589 511 614 486 Q 639 461 640 423 Q 638 367 614 311 Q 590 256 562 208 Q 528 150 488 96 L 400 96 L 384 96 L 384 112 L 384 112 L 384 255 L 384 255 L 328 220 L 328 220 L 328 16 L 328 16 L 328 8 L 328 8 L 328 0 L 328 0 L 312 0 L 312 0 Z" />
</svg>