<svg xmlns="http://www.w3.org/2000/svg" viewBox="0 0 640 448">
  <path d="M 8 0 L 0 0 L 8 0 L 0 0 L 0 16 L 0 16 L 8 16 L 32 16 L 32 224 L 32 224 Q 33 278 69 315 Q 106 351 160 352 L 160 432 L 160 432 L 40 432 L 32 432 L 32 448 L 32 448 L 40 448 L 640 448 L 640 440 L 640 440 L 640 360 L 640 360 L 640 352 L 640 352 L 624 352 L 624 352 L 624 360 L 624 360 L 624 432 L 624 432 L 432 432 L 432 432 L 432 352 L 432 352 L 448 352 L 448 352 Q 502 351 539 315 Q 575 278 576 224 L 576 80 L 576 80 L 600 80 L 608 80 L 608 64 L 608 64 L 600 64 L 464 64 L 464 80 L 464 80 L 464 192 L 464 192 L 464 208 L 464 208 L 448 208 L 407 208 Q 344 207 291 176 Q 239 145 208 89 Q 185 48 146 24 Q 106 0 59 0 L 56 0 L 8 0 Z M 416 432 L 176 432 L 416 432 L 176 432 L 176 352 L 176 352 L 416 352 L 416 352 L 416 432 L 416 432 Z M 552 80 L 560 80 L 552 80 L 560 80 L 560 224 L 560 224 Q 559 272 527 303 Q 496 335 448 336 L 160 336 L 160 336 Q 112 335 81 303 Q 49 272 48 224 L 48 16 L 48 16 L 56 16 L 59 16 Q 102 16 138 38 Q 173 59 194 97 Q 227 156 283 190 Q 339 223 407 224 L 464 224 L 480 224 L 480 208 L 480 208 L 480 80 L 480 80 L 544 80 L 552 80 Z" />
</svg>