<svg xmlns="http://www.w3.org/2000/svg" viewBox="0 0 640 512">
  <path d="M 0 154 Q 1 117 19 87 L 19 87 L 19 87 Q 37 56 61 33 L 61 33 L 61 33 Q 84 11 102 0 L 154 51 L 154 51 L 179 26 L 179 26 Q 224 65 241 101 Q 257 136 256 154 Q 256 165 254 176 L 176 176 L 176 176 Q 166 151 148 134 Q 130 116 128 115 Q 128 115 128 115 Q 126 116 108 134 Q 90 151 80 176 L 2 176 L 2 176 Q 0 165 0 154 L 0 154 Z M 478 64 L 488 64 L 478 64 L 586 64 L 593 71 L 593 71 L 633 111 L 633 111 L 640 118 L 640 118 L 640 128 L 640 128 L 640 160 L 640 160 L 640 184 L 640 184 L 616 184 L 539 184 L 312 450 L 312 450 Q 287 480 252 496 Q 217 512 177 512 L 172 512 L 172 512 Q 99 510 50 462 Q 2 413 0 340 Q 0 326 2 312 L 12 256 L 12 256 L 0 256 L 0 256 L 0 208 L 0 208 L 20 208 L 272 208 L 272 256 L 272 256 L 249 256 L 249 256 L 229 311 L 229 311 L 230 312 L 230 312 L 318 224 L 318 224 L 302 208 L 302 208 L 336 174 L 336 174 L 352 190 L 352 190 L 366 176 L 366 176 L 350 160 L 350 160 L 384 126 L 384 126 L 400 142 L 400 142 L 414 128 L 414 128 L 398 112 L 398 112 L 432 78 L 432 78 L 448 94 L 448 94 L 471 71 L 471 71 L 478 64 L 478 64 Z M 249 361 L 234 376 L 249 361 L 234 376 L 218 363 L 218 363 L 186 339 L 186 339 L 171 329 L 171 329 L 178 312 L 178 312 L 198 256 L 198 256 L 60 256 L 60 256 L 50 320 L 50 320 Q 48 330 48 340 Q 49 393 84 428 Q 119 463 172 464 L 177 464 L 177 464 Q 236 463 276 419 L 510 144 L 510 144 L 517 136 L 517 136 L 528 136 L 590 136 L 566 112 L 566 112 L 498 112 L 498 112 L 482 128 L 482 128 Q 482 128 482 128 Q 482 128 482 128 L 448 162 L 448 162 Q 448 162 448 162 Q 448 162 448 162 L 434 176 L 434 176 Q 434 176 434 176 Q 434 176 434 176 L 400 210 L 400 210 Q 400 210 400 210 Q 400 210 400 210 L 386 224 L 386 224 Q 386 224 386 224 Q 386 224 386 224 L 352 258 L 352 258 Q 352 258 352 258 Q 352 258 352 258 L 249 361 L 249 361 Z M 120 288 Q 142 290 144 312 Q 142 334 120 336 Q 98 334 96 312 Q 98 290 120 288 L 120 288 Z" />
</svg>