<svg xmlns="http://www.w3.org/2000/svg" viewBox="0 0 432 432">
  <path d="M 432 8 L 432 0 L 432 8 L 432 0 L 416 0 L 416 0 L 416 8 L 416 8 L 416 416 L 416 416 L 8 416 L 0 416 L 0 432 L 0 432 L 8 432 L 432 432 L 432 424 L 432 424 L 432 8 L 432 8 Z M 320 32 L 320 0 L 320 32 L 320 0 L 288 0 L 288 0 L 288 32 L 288 32 L 320 32 L 320 32 Z M 128 32 L 128 0 L 128 32 L 128 0 L 96 0 L 96 0 L 96 32 L 96 32 L 128 32 L 128 32 Z M 224 0 L 192 0 L 224 0 L 192 0 L 192 32 L 192 32 L 224 32 L 224 32 L 224 0 L 224 0 Z M 32 32 L 32 0 L 32 32 L 32 0 L 0 0 L 0 0 L 0 32 L 0 32 L 32 32 L 32 32 Z M 32 192 L 0 192 L 32 192 L 0 192 L 0 224 L 0 224 L 32 224 L 32 224 L 32 192 L 32 192 Z M 32 128 L 32 96 L 32 128 L 32 96 L 0 96 L 0 96 L 0 128 L 0 128 L 32 128 L 32 128 Z M 32 288 L 0 288 L 32 288 L 0 288 L 0 320 L 0 320 L 32 320 L 32 320 L 32 288 L 32 288 Z" />
</svg>