<svg xmlns="http://www.w3.org/2000/svg" viewBox="0 0 637 512">
  <path d="M 125 48 L 333 48 L 125 48 L 333 48 L 333 128 L 333 128 L 135 128 L 135 128 L 78 71 L 78 71 L 71 64 L 71 64 L 61 64 L 0 64 L 6 93 L 6 93 L 30 213 L 30 213 L 32 225 L 32 225 L 43 230 L 43 230 L 183 292 L 183 292 L 284 393 L 284 393 L 291 400 L 291 400 L 301 400 L 573 400 L 573 376 L 573 376 L 573 280 L 573 280 Q 571 215 528 173 Q 485 130 421 128 L 381 128 L 381 128 L 381 48 L 381 48 L 573 48 L 573 48 L 573 0 L 573 0 L 125 0 L 125 0 L 125 48 L 125 48 Z M 125 176 L 333 176 L 125 176 L 333 176 L 333 352 L 333 352 L 311 352 L 311 352 L 214 255 L 214 255 Q 211 252 207 250 L 74 191 L 74 191 L 60 121 L 60 121 L 108 169 L 108 169 Q 115 176 125 176 L 125 176 Z M 525 352 L 381 352 L 525 352 L 381 352 L 381 176 L 381 176 L 421 176 L 421 176 Q 465 177 495 206 Q 524 236 525 280 L 525 352 L 525 352 Z M 637 488 L 637 432 L 637 488 L 637 432 L 589 432 L 589 432 L 589 464 L 589 464 L 221 464 L 221 464 L 221 512 L 221 512 L 613 512 L 637 512 L 637 488 L 637 488 Z" />
</svg>