<svg xmlns="http://www.w3.org/2000/svg" viewBox="0 0 448 512">
  <path d="M 333 104 L 259 104 L 333 104 L 259 104 L 230 74 L 230 74 L 224 69 L 224 69 L 218 74 L 218 74 L 189 104 L 189 104 L 115 104 L 115 104 Q 124 65 153 41 Q 183 17 224 16 Q 265 17 295 41 Q 324 65 333 104 L 333 104 Z M 336 120 Q 336 124 336 128 L 336 144 L 336 144 Q 335 192 303 223 Q 272 255 224 256 Q 176 255 145 223 Q 113 192 112 144 L 112 128 L 112 128 Q 112 124 112 120 L 192 120 L 195 120 L 198 118 L 198 118 L 224 91 L 224 91 L 250 118 L 250 118 L 253 120 L 253 120 L 256 120 L 336 120 Z M 224 272 Q 261 272 290 254 L 290 254 L 290 254 Q 319 236 336 206 L 336 208 L 336 208 L 336 224 L 336 224 L 352 224 L 416 224 L 416 208 L 416 208 L 416 80 L 416 80 L 416 64 L 416 64 L 400 64 L 336 64 L 336 66 L 336 66 Q 319 36 290 18 Q 261 0 224 0 Q 187 0 158 18 Q 129 36 112 66 L 112 64 L 112 64 L 96 64 L 32 64 L 32 80 L 32 80 L 32 208 L 32 208 L 32 224 L 32 224 L 48 224 L 112 224 L 112 208 L 112 208 L 112 206 L 112 206 Q 129 236 158 254 Q 187 272 224 272 L 224 272 Z M 352 208 L 352 144 L 352 208 L 352 144 L 352 128 L 352 128 L 352 80 L 352 80 L 400 80 L 400 80 L 400 208 L 400 208 L 352 208 L 352 208 Z M 76 320 L 372 320 L 76 320 L 372 320 L 426 496 L 426 496 L 22 496 L 22 496 L 76 320 L 76 320 Z M 384 304 L 64 304 L 384 304 L 64 304 L 5 496 L 5 496 L 0 512 L 0 512 L 17 512 L 448 512 L 443 496 L 443 496 L 384 304 L 384 304 Z M 48 80 L 96 80 L 48 80 L 96 80 L 96 128 L 96 128 L 96 144 L 96 144 L 96 208 L 96 208 L 48 208 L 48 208 L 48 80 L 48 80 Z" />
</svg>