<svg xmlns="http://www.w3.org/2000/svg" viewBox="0 0 640 512">
  <path d="M 452 267 Q 448 272 445 277 L 458 286 L 458 286 Q 459 285 460 283 Q 462 280 465 276 Q 495 233 496 176 Q 494 101 444 52 Q 395 2 320 0 Q 277 0 241 19 Q 205 37 181 68 L 194 78 L 194 78 Q 216 49 248 33 Q 281 16 320 16 Q 388 18 433 63 Q 478 108 480 176 Q 479 228 452 267 L 452 267 Z M 229 106 L 241 116 L 229 106 L 241 116 Q 267 82 312 80 L 312 64 L 312 64 Q 259 66 229 106 L 229 106 Z M 400 425 L 389 416 L 400 425 L 389 416 L 384 416 L 240 416 L 240 432 L 240 432 L 240 496 L 240 496 L 240 512 L 240 512 L 256 512 L 400 512 L 400 496 L 400 496 L 400 432 L 400 432 L 400 425 L 400 425 Z M 152 229 Q 160 255 175 276 Q 183 287 190 297 Q 190 298 191 298 Q 191 298 191 298 Q 191 298 191 298 Q 191 298 191 298 Q 191 298 191 298 Q 191 298 191 298 Q 191 298 191 298 Q 191 298 191 298 Q 191 298 191 298 Q 210 323 225 350 Q 234 366 237 384 L 253 384 L 253 384 Q 250 362 239 342 Q 223 313 203 287 Q 203 287 203 287 Q 203 287 203 287 Q 203 287 203 287 Q 203 287 203 287 Q 203 287 203 287 Q 203 287 203 287 Q 201 285 200 283 Q 194 275 188 267 Q 182 259 177 249 L 152 229 L 152 229 Z M 256 432 L 384 432 L 256 432 L 384 432 L 384 496 L 384 496 L 256 496 L 256 496 L 256 432 L 256 432 Z M 16 5 L 10 0 L 16 5 L 10 0 L 0 13 L 0 13 L 6 18 L 6 18 L 624 507 L 624 507 L 630 512 L 630 512 L 640 500 L 640 500 L 634 495 L 634 495 L 16 5 L 16 5 Z" />
</svg>