<svg xmlns="http://www.w3.org/2000/svg" viewBox="0 0 446 510">
  <path d="M 8 0 L 0 0 L 8 0 L 0 0 L 0 8 L 0 8 L 0 216 L 0 216 L 0 312 L 0 312 L 0 320 L 0 320 L 16 320 L 16 320 L 16 312 L 16 312 L 16 224 L 16 224 L 149 224 L 149 224 L 277 352 L 277 352 L 130 498 L 130 498 L 142 510 L 142 510 L 288 363 L 288 363 L 434 510 L 434 510 L 446 498 L 446 498 L 299 352 L 299 352 L 446 206 L 446 206 L 434 194 L 434 194 L 288 341 L 288 341 L 171 224 L 171 224 L 176 224 L 176 224 Q 224 223 255 191 Q 287 160 288 112 Q 287 64 255 33 Q 224 1 176 0 L 8 0 L 8 0 Z M 176 208 L 16 208 L 176 208 L 16 208 L 16 16 L 16 16 L 176 16 L 176 16 Q 217 17 244 44 Q 271 71 272 112 Q 271 153 244 180 Q 217 207 176 208 L 176 208 Z" />
</svg>