<svg xmlns="http://www.w3.org/2000/svg" viewBox="0 0 512 448">
  <path d="M 432 16 L 80 16 L 432 16 L 80 16 L 80 160 L 80 160 L 64 160 L 64 160 L 64 16 L 64 16 L 64 0 L 64 0 L 80 0 L 448 0 L 448 16 L 448 16 L 448 160 L 448 160 L 432 160 L 432 160 L 432 16 L 432 16 Z M 16 432 L 112 432 L 16 432 L 112 432 L 112 208 L 112 208 L 16 208 L 16 208 L 16 432 L 16 432 Z M 0 192 L 16 192 L 0 192 L 128 192 L 128 208 L 128 208 L 128 256 L 128 256 L 384 256 L 384 256 L 384 208 L 384 208 L 384 192 L 384 192 L 400 192 L 512 192 L 512 208 L 512 208 L 512 432 L 512 432 L 512 448 L 512 448 L 496 448 L 384 448 L 384 432 L 384 432 L 384 400 L 384 400 L 128 400 L 128 400 L 128 432 L 128 432 L 128 448 L 128 448 L 112 448 L 0 448 L 0 432 L 0 432 L 0 208 L 0 208 L 0 192 L 0 192 Z M 128 384 L 384 384 L 128 384 L 384 384 L 384 272 L 384 272 L 128 272 L 128 272 L 128 384 L 128 384 Z M 400 432 L 496 432 L 400 432 L 496 432 L 496 208 L 496 208 L 400 208 L 400 208 L 400 432 L 400 432 Z" />
</svg>