<svg xmlns="http://www.w3.org/2000/svg" viewBox="0 0 576 512">
  <path d="M 32 64 L 32 384 L 32 64 L 32 384 L 544 384 L 544 384 L 544 64 L 544 64 L 512 64 L 32 64 Z M 512 32 L 544 32 L 512 32 L 576 32 L 576 64 L 576 64 L 576 384 L 576 384 L 576 416 L 576 416 L 544 416 L 512 416 L 512 512 L 512 512 L 480 512 L 480 512 L 480 416 L 480 416 L 96 416 L 96 416 L 96 512 L 96 512 L 64 512 L 64 512 L 64 416 L 64 416 L 32 416 L 0 416 L 0 384 L 0 384 L 0 64 L 0 64 L 0 32 L 0 32 L 32 32 L 64 32 L 64 0 L 64 0 L 96 0 L 96 0 L 96 32 L 96 32 L 480 32 L 480 32 L 480 0 L 480 0 L 512 0 L 512 0 L 512 32 L 512 32 Z" />
</svg>