<svg xmlns="http://www.w3.org/2000/svg" viewBox="0 0 512 512">
  <path d="M 256 16 Q 189 17 135 49 L 135 49 L 135 49 Q 81 81 49 135 L 49 135 L 49 135 Q 17 189 16 256 Q 17 332 58 391 Q 98 450 165 478 Q 168 489 175 499 Q 97 472 49 407 Q 1 342 0 256 Q 1 184 35 127 Q 69 69 127 35 Q 184 1 256 0 Q 328 1 385 35 Q 443 69 477 127 Q 511 184 512 256 Q 511 342 463 407 Q 415 472 338 499 Q 344 489 347 478 Q 414 450 454 391 Q 495 332 496 256 Q 495 189 463 135 Q 431 81 377 49 Q 323 17 256 16 L 256 16 Z M 352 401 L 352 381 L 352 401 L 352 381 Q 377 359 391 329 Q 329 348 256 348 Q 183 348 121 329 Q 135 359 160 380 L 160 401 L 160 401 Q 119 371 101 322 Q 98 313 96 303 Q 105 306 114 310 Q 178 331 256 332 Q 334 331 398 310 Q 408 306 416 303 Q 414 313 411 322 Q 393 371 352 401 L 352 401 Z M 336 272 Q 372 271 391 240 Q 409 208 391 176 Q 372 145 336 144 Q 300 145 281 176 Q 263 208 281 240 Q 300 271 336 272 L 336 272 Z M 336 128 Q 381 129 405 168 Q 427 208 405 248 Q 381 287 336 288 Q 291 287 267 248 Q 245 208 267 168 Q 291 129 336 128 L 336 128 Z M 119 228 L 115 235 L 119 228 L 115 235 L 101 227 L 101 227 L 105 220 L 105 220 Q 126 185 160 184 Q 193 185 215 220 L 219 227 L 219 227 L 205 235 L 205 235 L 201 228 L 201 228 Q 183 199 160 200 Q 136 199 119 228 L 119 228 Z M 336 224 Q 351 223 352 208 Q 351 193 336 192 Q 321 193 320 208 Q 321 223 336 224 L 336 224 Z M 336 176 Q 350 176 359 185 L 359 185 L 359 185 Q 368 194 368 208 Q 368 222 359 231 Q 350 240 336 240 Q 322 240 313 231 Q 304 222 304 208 Q 304 194 313 185 Q 322 176 336 176 L 336 176 Z M 192 368 L 240 368 L 192 368 L 243 368 L 246 370 L 246 370 L 256 381 L 256 381 L 266 370 L 266 370 L 269 368 L 269 368 L 272 368 L 328 368 L 328 376 L 328 376 L 328 440 L 328 440 Q 327 471 307 491 Q 287 511 256 512 Q 225 511 205 491 Q 185 471 184 440 L 184 376 L 184 376 L 184 368 L 184 368 L 192 368 L 192 368 Z M 237 384 L 200 384 L 237 384 L 200 384 L 200 440 L 200 440 Q 201 464 216 480 Q 232 495 256 496 Q 280 495 296 480 Q 311 464 312 440 L 312 384 L 312 384 L 275 384 L 275 384 L 264 395 L 264 395 L 264 424 L 264 424 L 264 432 L 264 432 L 248 432 L 248 432 L 248 424 L 248 424 L 248 395 L 248 395 L 237 384 L 237 384 Z" />
</svg>