<svg xmlns="http://www.w3.org/2000/svg" viewBox="0 0 560 512">
  <path d="M 352 176 Q 352 201 345 224 L 329 224 L 329 224 Q 336 201 336 176 Q 334 108 289 63 Q 244 18 176 16 Q 108 18 63 63 Q 18 108 16 176 Q 17 228 45 267 Q 50 275 56 283 Q 57 285 59 287 Q 59 287 59 287 Q 59 287 59 287 Q 59 287 59 287 Q 59 287 59 287 Q 60 288 60 289 Q 79 314 95 342 Q 106 362 109 384 L 93 384 L 93 384 Q 90 366 81 350 Q 66 323 47 298 Q 47 298 47 298 Q 47 298 47 298 Q 47 298 47 298 Q 47 298 47 298 Q 47 298 47 298 Q 47 298 47 298 Q 47 298 47 298 Q 39 287 31 276 Q 1 233 0 176 Q 2 101 52 52 Q 101 2 176 0 Q 251 2 300 52 Q 350 101 352 176 L 352 176 Z M 96 416 L 112 416 L 96 416 L 240 416 L 240 432 L 240 432 L 112 432 L 112 432 L 112 496 L 112 496 L 240 496 L 240 496 L 240 512 L 240 512 L 112 512 L 96 512 L 96 496 L 96 496 L 96 432 L 96 432 L 96 416 L 96 416 Z M 168 80 Q 131 81 106 106 L 106 106 L 106 106 Q 81 131 80 168 L 64 168 L 64 168 Q 65 124 94 94 Q 124 65 168 64 L 168 80 L 168 80 Z M 464 448 L 464 464 L 464 448 L 464 464 L 464 491 L 464 491 L 464 512 L 464 512 L 448 498 L 448 498 L 389 448 L 389 448 L 288 448 L 272 448 L 272 432 L 272 432 L 272 272 L 272 272 L 272 256 L 272 256 L 288 256 L 560 256 L 560 272 L 560 272 L 560 432 L 560 432 L 560 448 L 560 448 L 544 448 L 464 448 Z M 464 432 L 544 432 L 464 432 L 544 432 L 544 272 L 544 272 L 288 272 L 288 272 L 288 432 L 288 432 L 389 432 L 395 432 L 400 436 L 400 436 L 448 477 L 448 477 L 448 448 L 448 448 L 448 432 L 448 432 L 464 432 L 464 432 Z" />
</svg>