<svg xmlns="http://www.w3.org/2000/svg" viewBox="0 0 558 512">
  <path d="M 474 224 Q 481 224 487 223 L 487 223 L 487 223 L 487 256 L 487 256 L 487 384 L 487 384 L 487 496 L 487 496 L 71 496 L 71 496 L 71 384 L 71 384 L 71 256 L 71 256 L 71 223 L 71 223 L 71 223 L 71 223 Q 77 224 83 224 Q 114 223 137 206 Q 143 201 149 195 Q 154 201 160 206 Q 183 223 214 224 Q 245 223 267 206 Q 274 201 279 195 Q 284 201 291 206 Q 313 223 344 224 Q 375 223 397 206 Q 404 201 409 195 Q 415 201 421 206 Q 444 223 474 224 L 474 224 Z M 19 104 Q 0 137 11 171 L 11 171 L 11 171 Q 21 205 55 219 L 55 256 L 55 256 L 55 384 L 55 384 L 55 504 L 55 504 L 55 512 L 55 512 L 63 512 L 503 512 L 503 504 L 503 504 L 503 384 L 503 384 L 503 256 L 503 256 L 503 219 L 503 219 Q 537 205 547 171 Q 558 137 539 104 L 471 0 L 471 0 L 87 0 L 87 0 L 19 104 L 19 104 Z M 83 208 Q 78 208 73 207 Q 41 201 28 172 Q 16 143 33 112 L 96 16 L 96 16 L 462 16 L 462 16 L 525 112 L 525 112 Q 542 143 530 172 Q 517 201 485 207 Q 480 208 475 208 Q 442 207 421 184 L 409 171 L 409 171 L 398 184 L 398 184 Q 377 207 344 208 Q 311 207 291 184 L 279 171 L 279 171 L 267 184 L 267 184 Q 247 207 214 208 Q 181 207 160 184 L 149 171 L 149 171 L 137 184 L 137 184 Q 116 207 83 208 L 83 208 Z M 135 256 L 135 248 L 135 256 L 135 248 L 119 248 L 119 248 L 119 256 L 119 256 L 119 376 L 119 376 L 119 384 L 119 384 L 127 384 L 439 384 L 439 376 L 439 376 L 439 256 L 439 256 L 439 248 L 439 248 L 423 248 L 423 248 L 423 256 L 423 256 L 423 368 L 423 368 L 135 368 L 135 368 L 135 256 L 135 256 Z" />
</svg>