<svg xmlns="http://www.w3.org/2000/svg" viewBox="0 0 515 515">
  <path d="M 80 80 Q 141 22 219 19 L 219 19 L 219 19 Q 298 16 362 69 L 69 362 L 69 362 Q 16 298 19 219 Q 22 141 80 80 L 80 80 Z M 374 58 Q 305 0 220 3 L 220 3 L 220 3 Q 134 6 69 69 Q 6 134 3 220 Q 0 305 58 374 Q 63 380 69 385 L 80 374 L 80 374 L 374 80 L 374 80 L 385 69 L 385 69 Q 380 63 374 58 L 374 58 Z M 499 67 Q 498 82 483 83 Q 468 82 467 67 Q 468 52 483 51 Q 498 52 499 67 L 499 67 Z M 451 67 Q 451 81 460 90 L 460 90 L 460 90 Q 469 99 483 99 Q 497 99 506 90 Q 515 81 515 67 Q 515 53 506 44 Q 497 35 483 35 Q 469 35 460 44 Q 451 53 451 67 L 451 67 Z M 355 467 Q 370 468 371 483 Q 370 498 355 499 Q 340 498 339 483 Q 340 468 355 467 L 355 467 Z M 355 515 Q 369 515 378 506 L 378 506 L 378 506 Q 387 497 387 483 Q 387 469 378 460 Q 369 451 355 451 Q 341 451 332 460 Q 323 469 323 483 Q 323 497 332 506 Q 341 515 355 515 L 355 515 Z M 83 483 Q 82 498 67 499 Q 52 498 51 483 Q 52 468 67 467 Q 82 468 83 483 L 83 483 Z M 35 483 Q 35 497 44 506 L 44 506 L 44 506 Q 53 515 67 515 Q 81 515 90 506 Q 99 497 99 483 Q 99 469 90 460 Q 81 451 67 451 Q 53 451 44 460 Q 35 469 35 483 L 35 483 Z M 507 259 L 515 259 L 507 259 L 515 259 L 515 243 L 515 243 L 507 243 L 507 243 Q 482 242 457 231 Q 433 220 413 205 Q 393 189 381 178 Q 380 177 380 177 Q 375 172 372 169 Q 370 167 370 167 L 369 166 L 369 166 L 369 166 L 369 166 Q 369 166 369 166 Q 369 166 369 166 Q 369 166 369 166 Q 369 166 369 166 Q 369 166 369 166 Q 369 166 369 166 L 364 160 L 364 160 L 352 171 L 352 171 L 357 177 L 357 177 L 363 171 L 363 171 Q 356 178 357 176 Q 357 176 357 176 Q 357 176 357 176 Q 357 176 357 176 Q 357 176 357 176 Q 357 176 357 177 L 357 177 L 357 177 L 358 177 L 358 177 Q 358 178 359 178 Q 360 179 361 180 Q 364 184 370 189 Q 382 201 403 217 Q 424 233 451 246 Q 478 258 507 259 L 507 259 Z M 167 370 Q 167 370 167 370 L 167 370 L 167 370 Q 167 370 167 370 L 167 370 L 167 370 L 167 370 L 167 370 Q 168 371 170 372 Q 173 374 178 379 Q 190 388 205 406 Q 220 424 231 450 Q 242 475 243 507 L 243 515 L 243 515 L 259 515 L 259 515 L 259 507 L 259 507 Q 258 471 246 443 Q 233 415 217 396 Q 201 377 189 367 Q 184 363 180 360 Q 180 360 179 359 Q 178 359 178 358 Q 177 358 177 357 L 176 357 L 176 357 L 176 357 L 176 357 Q 176 357 175 357 Q 175 357 175 357 Q 175 357 175 357 Q 175 357 175 357 Q 175 357 175 357 Q 175 357 175 357 L 171 363 L 171 363 L 176 356 L 176 356 L 169 352 L 169 352 L 160 365 L 160 365 L 167 370 L 167 370 Q 167 370 167 370 Q 167 370 167 370 Q 167 370 167 370 Q 167 370 167 370 Q 167 370 167 370 Q 167 370 167 370 L 167 370 Z M 486 496 L 501 512 L 486 496 L 501 512 L 513 502 L 513 502 L 498 485 L 498 485 Q 485 470 486 450 Q 486 425 470 406 Q 455 388 430 383 L 386 376 L 386 376 Q 363 372 348 356 Q 333 339 331 316 Q 329 290 312 270 L 305 262 L 305 262 L 300 256 L 300 256 L 288 266 L 288 266 L 293 272 L 293 272 L 300 280 L 300 280 Q 313 296 315 317 Q 318 346 336 367 Q 355 387 384 392 L 427 399 L 427 399 Q 446 402 458 416 Q 470 430 470 450 Q 469 476 486 495 L 486 496 Z" />
</svg>