<svg xmlns="http://www.w3.org/2000/svg" viewBox="0 0 507 438">
  <path d="M 410 421 L 405 427 L 410 421 L 405 427 L 416 438 L 416 438 L 422 433 L 422 433 L 502 353 L 502 353 L 507 347 L 507 347 L 502 341 L 502 341 L 422 261 L 422 261 L 416 255 L 416 255 L 405 267 L 405 267 L 410 273 L 410 273 L 477 339 L 477 339 L 324 339 L 324 339 L 134 86 L 134 86 L 132 83 L 132 83 L 128 83 L 0 83 L 0 99 L 0 99 L 8 99 L 124 99 L 314 352 L 314 352 L 316 355 L 316 355 L 320 355 L 477 355 L 410 421 L 410 421 Z M 134 352 L 204 259 L 134 352 L 204 259 L 194 246 L 194 246 L 124 339 L 124 339 L 8 339 L 0 339 L 0 355 L 0 355 L 8 355 L 132 355 L 134 352 L 134 352 Z M 254 192 L 324 99 L 254 192 L 324 99 L 477 99 L 477 99 L 410 165 L 410 165 L 405 171 L 405 171 L 416 182 L 416 182 L 422 177 L 422 177 L 502 97 L 502 97 L 507 91 L 507 91 L 502 85 L 502 85 L 422 5 L 422 5 L 416 0 L 416 0 L 405 11 L 405 11 L 410 17 L 410 17 L 477 83 L 477 83 L 320 83 L 316 83 L 314 86 L 314 86 L 244 179 L 244 179 L 254 192 L 254 192 Z" />
</svg>