<svg xmlns="http://www.w3.org/2000/svg" viewBox="0 0 522 519">
  <path d="M 219 6 L 214 0 L 219 6 L 214 0 L 202 11 L 202 11 L 207 17 L 207 17 Q 207 17 207 17 Q 207 17 207 17 Q 207 17 207 17 Q 207 17 207 17 Q 207 17 207 17 Q 207 17 207 17 L 207 17 L 207 17 L 207 17 L 207 17 Q 208 18 208 18 Q 208 18 209 19 Q 209 20 210 21 Q 212 23 214 26 Q 221 35 230 51 Q 246 78 252 115 Q 218 89 174 99 Q 158 104 145 113 Q 113 90 73 98 Q 37 108 18 138 Q 0 167 7 204 L 63 444 L 63 444 Q 73 480 103 499 Q 132 517 169 510 Q 190 505 205 492 Q 219 504 238 509 Q 283 519 317 492 Q 332 505 353 510 Q 390 517 419 499 Q 449 480 459 444 L 515 204 L 515 204 Q 522 167 504 138 Q 485 108 449 98 Q 409 90 377 113 Q 364 103 348 99 Q 302 89 268 117 Q 262 74 244 44 Q 234 27 227 17 Q 223 12 221 9 Q 221 8 220 8 Q 220 7 220 7 L 219 7 L 219 7 L 219 7 L 219 7 Q 219 7 219 7 Q 219 7 219 7 Q 219 7 219 7 Q 219 7 219 7 Q 219 7 219 7 Q 219 7 219 7 L 213 12 L 213 12 L 219 6 L 219 6 Z M 268 140 L 269 140 L 268 140 L 269 140 L 269 139 L 269 139 Q 282 122 302 116 Q 322 109 344 114 Q 360 119 372 129 L 377 134 L 377 134 L 382 129 L 382 129 Q 409 107 445 114 Q 475 121 490 146 Q 505 170 499 200 L 443 440 L 443 440 Q 436 470 411 485 Q 387 500 357 494 Q 337 489 323 475 L 317 470 L 317 470 L 312 475 L 312 475 Q 283 502 243 493 Q 224 488 211 475 L 205 470 L 205 470 L 199 475 L 199 475 Q 186 489 165 494 Q 136 500 111 485 Q 87 470 79 440 L 23 200 L 23 200 Q 17 170 32 146 Q 47 122 77 114 Q 108 107 133 124 Q 102 158 112 205 L 149 356 L 149 356 L 151 364 L 151 364 L 167 360 L 167 360 L 165 352 L 165 352 L 127 202 L 127 202 Q 122 179 130 158 Q 138 138 156 125 Q 156 125 156 125 Q 156 125 156 125 Q 166 118 178 115 Q 200 109 220 116 Q 240 122 253 139 L 253 140 L 253 140 L 254 140 L 254 140 Q 254 140 255 141 L 261 149 L 261 149 L 267 141 L 267 141 Q 268 140 268 140 L 268 140 Z" />
</svg>