<svg xmlns="http://www.w3.org/2000/svg" viewBox="0 0 640 448">
  <path d="M 0 136 Q 1 78 40 40 L 40 40 L 40 40 Q 78 1 136 0 L 376 0 L 376 0 Q 434 1 472 40 Q 511 78 512 136 L 512 248 L 512 248 L 512 304 L 512 304 L 512 312 L 512 312 L 512 320 L 512 320 L 512 328 L 512 328 L 512 344 L 512 344 Q 514 366 536 368 Q 558 366 560 344 L 560 248 L 560 248 L 560 240 L 560 240 L 568 240 L 640 240 L 640 248 L 640 248 L 640 344 L 640 344 Q 639 388 610 418 Q 580 447 536 448 Q 508 448 485 435 Q 462 422 448 399 L 448 440 L 448 440 L 448 448 L 448 448 L 440 448 L 288 448 L 288 440 L 288 440 L 288 336 L 288 336 L 160 336 L 160 336 L 160 440 L 160 440 L 160 448 L 160 448 L 152 448 L 0 448 L 0 440 L 0 440 L 0 248 L 0 248 L 0 136 L 0 136 Z M 496 256 L 16 256 L 496 256 L 16 256 L 16 432 L 16 432 L 144 432 L 144 432 L 144 328 L 144 328 L 144 320 L 144 320 L 152 320 L 304 320 L 304 328 L 304 328 L 304 432 L 304 432 L 432 432 L 432 432 L 432 344 L 432 344 L 432 336 L 432 336 L 432 328 L 432 328 L 448 328 L 448 328 L 448 336 L 448 336 L 448 344 L 448 344 Q 449 381 474 406 Q 499 431 536 432 Q 573 431 598 406 Q 623 381 624 344 L 624 256 L 624 256 L 576 256 L 576 256 L 576 344 L 576 344 Q 576 361 564 372 Q 553 384 536 384 Q 519 384 508 372 Q 496 361 496 344 L 496 328 L 496 328 L 496 320 L 496 320 L 496 312 L 496 312 L 496 304 L 496 304 L 496 256 L 496 256 Z M 16 240 L 496 240 L 16 240 L 496 240 L 496 136 L 496 136 Q 495 85 461 51 Q 427 17 376 16 L 136 16 L 136 16 Q 85 17 51 51 Q 17 85 16 136 L 16 240 L 16 240 Z M 136 96 L 136 120 L 136 96 L 136 120 L 160 120 L 168 120 L 168 136 L 168 136 L 160 136 L 136 136 L 136 160 L 136 160 L 136 168 L 136 168 L 120 168 L 120 168 L 120 160 L 120 160 L 120 136 L 120 136 L 96 136 L 88 136 L 88 120 L 88 120 L 96 120 L 120 120 L 120 96 L 120 96 L 120 88 L 120 88 L 136 88 L 136 88 L 136 96 L 136 96 Z M 264 88 L 264 96 L 264 88 L 264 96 L 264 120 L 264 120 L 288 120 L 296 120 L 296 136 L 296 136 L 288 136 L 264 136 L 264 160 L 264 160 L 264 168 L 264 168 L 248 168 L 248 168 L 248 160 L 248 160 L 248 136 L 248 136 L 224 136 L 216 136 L 216 120 L 216 120 L 224 120 L 248 120 L 248 96 L 248 96 L 248 88 L 248 88 L 264 88 L 264 88 Z M 392 96 L 392 120 L 392 96 L 392 120 L 416 120 L 424 120 L 424 136 L 424 136 L 416 136 L 392 136 L 392 160 L 392 160 L 392 168 L 392 168 L 376 168 L 376 168 L 376 160 L 376 160 L 376 136 L 376 136 L 352 136 L 344 136 L 344 120 L 344 120 L 352 120 L 376 120 L 376 96 L 376 96 L 376 88 L 376 88 L 392 88 L 392 88 L 392 96 L 392 96 Z" />
</svg>