<svg xmlns="http://www.w3.org/2000/svg" viewBox="0 0 573 512">
  <path d="M 421 0 L 413 0 L 421 0 L 413 0 L 413 16 L 413 16 L 421 16 L 513 16 L 317 189 L 317 189 L 195 66 L 195 66 L 190 61 L 190 61 L 184 66 L 184 66 L 0 210 L 0 210 L 10 222 L 10 222 L 188 83 L 188 83 L 311 206 L 311 206 L 317 211 L 317 211 L 322 206 L 322 206 L 525 27 L 525 27 L 525 120 L 525 120 L 525 128 L 525 128 L 541 128 L 541 128 L 541 120 L 541 120 L 541 8 L 541 8 L 541 0 L 541 0 L 533 0 L 421 0 Z M 205 240 L 205 464 L 205 240 L 205 464 L 173 464 L 173 464 L 173 240 L 173 240 L 205 240 L 205 240 Z M 173 224 L 157 224 L 173 224 L 157 224 L 157 240 L 157 240 L 157 464 L 157 464 L 157 480 L 157 480 L 173 480 L 221 480 L 221 464 L 221 464 L 221 240 L 221 240 L 221 224 L 221 224 L 205 224 L 173 224 Z M 77 336 L 77 464 L 77 336 L 77 464 L 45 464 L 45 464 L 45 336 L 45 336 L 77 336 L 77 336 Z M 45 320 L 29 320 L 45 320 L 29 320 L 29 336 L 29 336 L 29 464 L 29 464 L 29 480 L 29 480 L 45 480 L 93 480 L 93 464 L 93 464 L 93 336 L 93 336 L 93 320 L 93 320 L 77 320 L 45 320 Z M 301 368 Q 301 333 318 304 L 318 304 L 318 304 Q 335 275 365 257 Q 395 240 429 240 Q 463 240 493 257 Q 523 275 540 304 Q 557 333 557 368 Q 557 403 540 432 Q 523 461 493 479 Q 463 496 429 496 Q 395 496 365 479 Q 335 461 318 432 Q 301 403 301 368 L 301 368 Z M 573 368 Q 573 329 554 296 L 554 296 L 554 296 Q 535 263 501 243 Q 467 224 429 224 Q 391 224 357 243 Q 323 263 304 296 Q 285 329 285 368 Q 285 407 304 440 Q 323 473 357 493 Q 391 512 429 512 Q 467 512 501 493 Q 535 473 554 440 Q 573 407 573 368 L 573 368 Z M 373 368 Q 374 336 401 320 Q 429 304 457 320 Q 484 336 485 368 Q 484 400 457 416 Q 429 432 401 416 Q 374 400 373 368 L 373 368 Z M 501 368 Q 501 342 485 323 L 507 302 L 507 302 L 495 290 L 495 290 L 474 312 L 474 312 Q 455 296 429 296 Q 403 296 384 312 L 363 290 L 363 290 L 351 302 L 351 302 L 373 323 L 373 323 Q 357 342 357 368 Q 358 394 373 413 L 351 434 L 351 434 L 363 446 L 363 446 L 384 424 L 384 424 Q 403 440 429 440 Q 455 440 474 424 L 495 446 L 495 446 L 507 434 L 507 434 L 485 413 L 485 413 Q 501 394 501 368 L 501 368 Z" />
</svg>