<svg xmlns="http://www.w3.org/2000/svg" viewBox="0 0 512 512">
  <path d="M 256 16 Q 189 17 135 49 L 135 49 L 135 49 Q 81 81 49 135 L 49 135 L 49 135 Q 17 189 16 256 Q 16 312 39 359 L 25 366 L 25 366 Q 0 316 0 256 Q 1 184 35 127 Q 69 69 127 35 Q 184 1 256 0 Q 328 1 385 35 Q 443 69 477 127 Q 511 184 512 256 Q 511 328 477 385 Q 443 443 385 477 Q 328 511 256 512 L 256 496 L 256 496 Q 323 495 377 463 Q 431 431 463 377 Q 495 323 496 256 Q 495 189 463 135 Q 431 81 377 49 Q 323 17 256 16 L 256 16 Z M 139 131 L 132 135 L 139 131 L 132 135 L 125 139 L 125 139 L 117 125 L 117 125 L 124 121 L 124 121 L 131 117 L 131 117 Q 156 103 183 106 Q 210 108 232 127 L 245 138 L 245 138 L 251 143 L 251 143 L 241 155 L 241 155 L 235 150 L 235 150 L 222 139 L 222 139 Q 204 124 182 122 Q 159 120 139 131 L 139 131 Z M 176 176 Q 191 177 192 192 Q 191 207 176 208 Q 162 207 160 192 Q 162 177 176 176 L 176 176 Z M 194 264 L 307 296 L 194 264 L 307 296 L 311 297 L 311 297 L 312 301 L 312 301 L 315 308 L 315 308 L 337 368 L 337 368 L 339 376 L 339 376 L 332 379 L 332 379 L 302 390 L 302 390 L 259 405 L 259 405 L 230 486 L 230 486 L 222 507 L 222 507 L 220 512 L 220 512 L 214 512 L 64 512 L 64 504 L 64 504 L 64 472 L 64 472 L 64 328 L 64 328 L 64 296 L 64 296 L 64 288 L 64 288 L 72 288 L 144 288 L 144 296 L 144 296 L 144 328 L 144 328 L 144 362 L 144 362 L 274 314 L 274 314 L 292 308 L 292 308 L 190 280 L 190 280 L 182 278 L 182 278 L 186 262 L 186 262 L 194 264 L 194 264 Z M 319 366 L 302 321 L 319 366 L 302 321 L 280 330 L 280 330 L 139 381 L 139 381 L 128 385 L 128 385 L 128 373 L 128 373 L 128 328 L 128 328 L 128 304 L 128 304 L 80 304 L 80 304 L 80 328 L 80 328 L 80 472 L 80 472 L 80 496 L 80 496 L 104 496 L 209 496 L 215 480 L 215 480 L 245 396 L 245 396 L 246 393 L 246 393 L 250 391 L 250 391 L 296 375 L 296 375 L 319 366 L 319 366 Z M 320 208 Q 322 193 336 192 Q 351 193 352 208 Q 351 223 336 224 Q 322 223 320 208 L 320 208 Z" />
</svg>