<svg xmlns="http://www.w3.org/2000/svg" viewBox="0 0 512 384">
  <path d="M 176 16 L 176 64 L 176 16 L 176 64 L 80 64 L 80 64 L 80 16 L 80 16 L 176 16 L 176 16 Z M 192 64 L 192 16 L 192 64 L 192 16 L 192 0 L 192 0 L 176 0 L 64 0 L 64 16 L 64 16 L 64 64 L 64 64 L 16 64 L 0 64 L 0 80 L 0 80 L 0 368 L 0 368 L 0 384 L 0 384 L 16 384 L 512 384 L 512 368 L 512 368 L 512 80 L 512 80 L 512 64 L 512 64 L 496 64 L 448 64 L 448 16 L 448 16 L 448 0 L 448 0 L 432 0 L 320 0 L 320 16 L 320 16 L 320 64 L 320 64 L 192 64 L 192 64 Z M 336 64 L 336 16 L 336 64 L 336 16 L 432 16 L 432 16 L 432 64 L 432 64 L 336 64 L 336 64 Z M 320 80 L 336 80 L 320 80 L 496 80 L 496 368 L 496 368 L 16 368 L 16 368 L 16 80 L 16 80 L 64 80 L 320 80 Z M 376 152 L 360 152 L 376 152 L 360 152 L 360 160 L 360 160 L 360 200 L 360 200 L 320 200 L 312 200 L 312 216 L 312 216 L 320 216 L 360 216 L 360 256 L 360 256 L 360 264 L 360 264 L 376 264 L 376 264 L 376 256 L 376 256 L 376 216 L 376 216 L 416 216 L 424 216 L 424 200 L 424 200 L 416 200 L 376 200 L 376 160 L 376 160 L 376 152 L 376 152 Z M 96 200 L 88 200 L 96 200 L 88 200 L 88 216 L 88 216 L 96 216 L 200 216 L 200 200 L 200 200 L 192 200 L 96 200 Z" />
</svg>