<svg xmlns="http://www.w3.org/2000/svg" viewBox="0 0 570 502">
  <path d="M 353 0 Q 397 40 422 95 L 422 95 L 422 95 Q 448 150 448 214 Q 448 232 446 250 L 330 275 L 330 275 L 279 245 L 279 245 Q 304 194 304 134 Q 304 87 288 45 L 353 0 L 353 0 Z M 324 309 L 439 284 L 324 309 L 439 284 L 467 279 L 467 279 L 481 276 L 481 276 L 490 286 L 490 286 L 554 358 L 554 358 L 570 376 L 570 376 L 534 408 L 534 408 L 518 390 L 518 390 L 463 328 L 463 328 L 420 338 L 420 338 Q 385 412 316 456 Q 247 501 160 502 L 0 502 L 0 502 L 0 390 L 0 390 L 48 390 L 48 390 Q 103 390 151 369 Q 198 348 233 311 L 211 298 L 211 298 L 131 339 L 131 339 L 110 350 L 110 350 L 88 308 L 88 308 L 109 297 L 109 297 L 201 249 L 201 249 L 213 242 L 213 242 L 224 249 L 224 249 L 263 273 L 263 273 L 324 309 L 324 309 Z" />
</svg>