<svg xmlns="http://www.w3.org/2000/svg" viewBox="0 0 448 512">
  <path d="M 224 32 L 174 7 L 224 32 L 174 7 L 160 0 L 160 0 L 154 15 L 154 15 L 110 114 L 110 114 Q 95 110 84 105 Q 36 84 29 70 L 1 85 L 1 85 Q 8 106 26 130 Q 45 154 73 175 Q 102 196 140 210 Q 178 224 224 224 Q 270 224 308 210 Q 346 196 375 175 Q 403 154 421 130 Q 440 106 447 85 L 419 70 L 419 70 Q 412 84 364 105 Q 352 110 338 114 L 294 15 L 294 15 L 288 0 L 288 0 L 274 7 L 274 7 L 224 32 L 224 32 Z M 224 128 Q 165 128 125 118 L 168 22 L 168 22 L 217 46 L 217 46 L 224 50 L 224 50 L 231 46 L 231 46 L 280 22 L 280 22 L 323 118 L 323 118 Q 283 128 224 128 L 224 128 Z M 23 496 L 59 400 L 23 496 L 59 400 L 389 400 L 389 400 L 425 496 L 425 496 L 23 496 L 23 496 Z M 48 384 L 6 496 L 48 384 L 6 496 L 0 512 L 0 512 L 17 512 L 448 512 L 442 496 L 442 496 L 400 384 L 400 384 L 48 384 L 48 384 Z M 422 90 L 427 92 L 422 90 L 427 92 Q 410 127 365 162 Q 338 182 303 195 Q 267 207 224 208 Q 181 207 145 195 Q 110 182 83 162 Q 38 127 21 93 L 26 90 L 26 90 Q 42 105 78 120 Q 129 142 224 144 Q 320 142 370 120 Q 406 105 422 90 L 422 90 Z M 96 226 Q 98 280 134 315 L 134 315 L 134 315 Q 170 351 224 352 Q 278 351 314 315 Q 350 280 352 226 Q 344 230 336 234 Q 331 278 300 306 Q 269 335 224 336 Q 179 335 148 306 Q 117 278 112 234 Q 104 230 96 226 L 96 226 Z" />
</svg>