<svg xmlns="http://www.w3.org/2000/svg" viewBox="0 0 448 512">
  <path d="M 144 400 L 432 400 L 144 400 L 432 400 L 432 112 L 432 112 L 344 112 L 336 112 L 336 104 L 336 104 L 336 16 L 336 16 L 144 16 L 144 16 L 144 400 L 144 400 Z M 344 0 L 440 96 L 344 0 L 440 96 L 448 104 L 448 104 L 448 400 L 448 400 L 448 416 L 448 416 L 432 416 L 128 416 L 128 400 L 128 400 L 128 16 L 128 16 L 128 0 L 128 0 L 144 0 L 344 0 Z M 352 96 L 417 96 L 352 96 L 417 96 L 352 31 L 352 31 L 352 96 L 352 96 Z M 16 96 L 96 96 L 16 96 L 96 96 L 96 112 L 96 112 L 16 112 L 16 112 L 16 496 L 16 496 L 304 496 L 304 496 L 304 448 L 304 448 L 320 448 L 320 448 L 320 496 L 320 496 L 320 512 L 320 512 L 304 512 L 0 512 L 0 496 L 0 496 L 0 112 L 0 112 L 0 96 L 0 96 L 16 96 L 16 96 Z" />
</svg>