<svg xmlns="http://www.w3.org/2000/svg" viewBox="0 0 512 512">
  <path d="M 368 102 L 368 53 L 368 102 L 368 53 Q 396 94 448 96 L 488 96 L 512 96 L 512 72 L 512 72 Q 511 41 491 21 Q 471 1 440 0 L 376 0 L 320 0 L 320 24 L 320 24 L 320 96 L 320 96 Q 243 96 184 152 Q 151 180 131 211 Q 110 241 96 270 Q 82 297 66 322 Q 50 346 25 366 L 0 384 L 0 384 L 0 448 L 0 448 L 44 469 L 44 469 Q 46 471 112 490 Q 178 509 288 512 Q 371 510 420 471 Q 469 432 491 380 Q 512 328 512 288 Q 512 211 456 152 Q 431 127 400 113 L 400 168 L 400 168 Q 412 176 422 186 Q 464 231 464 288 Q 464 310 455 340 Q 445 371 424 400 Q 404 427 371 445 Q 338 463 288 464 Q 185 461 124 444 Q 93 436 78 430 Q 70 427 66 426 Q 65 425 64 425 Q 64 425 63 425 L 48 418 L 48 418 L 48 408 L 48 408 L 54 404 L 54 404 Q 54 404 54 404 Q 54 404 54 404 Q 85 379 105 350 Q 124 321 137 294 Q 137 294 137 294 Q 139 291 141 288 Q 155 260 171 236 Q 188 211 215 189 L 217 188 L 217 188 L 218 186 L 218 186 Q 263 144 320 144 L 320 168 L 320 168 L 320 192 L 320 192 L 368 192 L 368 192 L 368 168 L 368 168 L 368 152 L 368 152 L 368 102 L 368 102 Z M 416 304 L 384 304 L 416 304 L 384 304 Q 383 338 361 361 Q 338 383 304 384 L 304 416 L 304 416 Q 352 415 383 383 Q 415 352 416 304 L 416 304 Z" />
</svg>