<svg xmlns="http://www.w3.org/2000/svg" viewBox="0 0 576 320">
  <path d="M 560 16 L 560 304 L 560 16 L 560 304 L 16 304 L 16 304 L 16 16 L 16 16 L 560 16 L 560 16 Z M 576 0 L 560 0 L 576 0 L 0 0 L 0 16 L 0 16 L 0 304 L 0 304 L 0 320 L 0 320 L 16 320 L 576 320 L 576 304 L 576 304 L 576 16 L 576 16 L 576 0 L 576 0 Z M 240 80 L 240 240 L 240 80 L 240 240 L 80 240 L 80 240 L 80 80 L 80 80 L 240 80 L 240 80 Z M 256 64 L 240 64 L 256 64 L 64 64 L 64 80 L 64 80 L 64 240 L 64 240 L 64 256 L 64 256 L 80 256 L 256 256 L 256 240 L 256 240 L 256 80 L 256 80 L 256 64 L 256 64 Z" />
</svg>