<svg xmlns="http://www.w3.org/2000/svg" viewBox="0 0 624 512">
  <path d="M 272 0 L 280 0 L 272 0 L 368 0 L 368 8 L 368 8 L 368 32 L 368 32 L 440 32 L 448 32 L 448 40 L 448 40 L 448 96 L 448 96 L 520 96 L 528 96 L 528 104 L 528 104 L 528 312 L 528 312 L 512 312 L 512 312 L 512 112 L 512 112 L 448 112 L 448 112 L 448 248 L 448 248 L 448 256 L 448 256 L 432 256 L 432 256 L 432 248 L 432 248 L 432 104 L 432 104 L 432 96 L 432 96 L 432 48 L 432 48 L 368 48 L 368 48 L 368 184 L 368 184 L 368 248 L 368 248 L 368 256 L 368 256 L 352 256 L 352 256 L 352 248 L 352 248 L 352 40 L 352 40 L 352 32 L 352 32 L 352 16 L 352 16 L 288 16 L 288 16 L 288 32 L 288 32 L 288 40 L 288 40 L 288 48 L 288 48 L 288 248 L 288 248 L 288 256 L 288 256 L 272 256 L 272 256 L 272 248 L 272 248 L 272 48 L 272 48 L 208 48 L 208 48 L 208 335 L 208 335 L 194 341 L 194 341 L 149 296 L 149 296 L 126 273 L 126 273 L 81 318 L 81 318 L 104 341 L 104 341 L 193 430 L 193 430 Q 225 462 266 479 Q 307 496 352 496 L 360 496 L 360 496 Q 400 496 432 478 L 432 496 L 432 496 Q 399 512 360 512 L 352 512 L 352 512 Q 303 512 260 494 Q 216 476 182 442 L 93 352 L 93 352 L 64 324 L 64 324 L 59 318 L 59 318 L 64 313 L 64 313 L 121 256 L 121 256 L 126 250 L 126 250 L 132 256 L 132 256 L 160 284 L 160 284 L 192 316 L 192 316 L 192 40 L 192 40 L 192 32 L 192 32 L 200 32 L 272 32 L 272 8 L 272 8 L 272 0 L 272 0 Z M 80 80 L 80 136 L 80 80 L 80 136 L 136 136 L 144 136 L 144 152 L 144 152 L 136 152 L 80 152 L 80 208 L 80 208 L 80 216 L 80 216 L 64 216 L 64 216 L 64 208 L 64 208 L 64 152 L 64 152 L 8 152 L 0 152 L 0 136 L 0 136 L 8 136 L 64 136 L 64 80 L 64 80 L 64 72 L 64 72 L 80 72 L 80 72 L 80 80 L 80 80 Z M 320 304 L 320 344 L 320 304 L 320 344 L 360 344 L 368 344 L 368 360 L 368 360 L 360 360 L 320 360 L 320 400 L 320 400 L 320 408 L 320 408 L 304 408 L 304 408 L 304 400 L 304 400 L 304 360 L 304 360 L 264 360 L 256 360 L 256 344 L 256 344 L 264 344 L 304 344 L 304 304 L 304 304 L 304 296 L 304 296 L 320 296 L 320 296 L 320 304 L 320 304 Z M 560 368 L 560 424 L 560 368 L 560 424 L 616 424 L 624 424 L 624 440 L 624 440 L 616 440 L 560 440 L 560 496 L 560 496 L 560 504 L 560 504 L 544 504 L 544 504 L 544 496 L 544 496 L 544 440 L 544 440 L 488 440 L 480 440 L 480 424 L 480 424 L 488 424 L 544 424 L 544 368 L 544 368 L 544 360 L 544 360 L 560 360 L 560 360 L 560 368 L 560 368 Z" />
</svg>