<svg xmlns="http://www.w3.org/2000/svg" viewBox="0 0 384 512">
  <path d="M 112 8 L 112 0 L 112 8 L 112 0 L 96 0 L 96 0 L 96 8 L 96 8 L 96 112 L 96 112 L 112 112 L 112 112 L 112 8 L 112 8 Z M 288 8 L 288 0 L 288 8 L 288 0 L 272 0 L 272 0 L 272 8 L 272 8 L 272 112 L 272 112 L 288 112 L 288 112 L 288 8 L 288 8 Z M 8 144 L 0 144 L 8 144 L 0 144 L 0 160 L 0 160 L 8 160 L 40 160 L 40 240 L 40 240 Q 41 302 82 345 Q 122 387 184 392 L 184 504 L 184 504 L 184 512 L 184 512 L 200 512 L 200 512 L 200 504 L 200 504 L 200 392 L 200 392 Q 262 387 302 345 Q 343 302 344 240 L 344 160 L 344 160 L 376 160 L 384 160 L 384 144 L 384 144 L 376 144 L 8 144 Z M 192 376 Q 134 375 96 336 L 96 336 L 96 336 Q 57 298 56 240 L 56 160 L 56 160 L 328 160 L 328 160 L 328 240 L 328 240 Q 327 298 288 336 Q 250 375 192 376 L 192 376 Z" />
</svg>