<svg xmlns="http://www.w3.org/2000/svg" viewBox="0 0 512 512">
  <path d="M 224 0 L 224 8 L 224 0 L 224 8 L 224 64 L 224 64 L 384 64 L 384 64 L 384 8 L 384 8 L 384 0 L 384 0 L 400 0 L 400 0 L 400 8 L 400 8 L 400 64 L 400 64 L 496 64 L 512 64 L 512 80 L 512 80 L 512 176 L 512 176 L 512 192 L 512 192 L 512 400 L 512 400 L 512 416 L 512 416 L 496 416 L 96 416 L 96 400 L 96 400 L 96 192 L 96 192 L 96 176 L 96 176 L 96 80 L 96 80 L 96 64 L 96 64 L 112 64 L 208 64 L 208 8 L 208 8 L 208 0 L 208 0 L 224 0 L 224 0 Z M 208 120 L 208 80 L 208 120 L 208 80 L 112 80 L 112 80 L 112 176 L 112 176 L 496 176 L 496 176 L 496 80 L 496 80 L 400 80 L 400 80 L 400 120 L 400 120 L 400 128 L 400 128 L 384 128 L 384 128 L 384 120 L 384 120 L 384 80 L 384 80 L 224 80 L 224 80 L 224 120 L 224 120 L 224 128 L 224 128 L 208 128 L 208 128 L 208 120 L 208 120 Z M 496 192 L 112 192 L 496 192 L 112 192 L 112 400 L 112 400 L 496 400 L 496 400 L 496 192 L 496 192 Z M 16 160 L 48 160 L 16 160 L 48 160 L 48 176 L 48 176 L 16 176 L 16 176 L 16 496 L 16 496 L 400 496 L 400 496 L 400 464 L 400 464 L 416 464 L 416 464 L 416 496 L 416 496 L 416 512 L 416 512 L 400 512 L 0 512 L 0 496 L 0 496 L 0 176 L 0 176 L 0 160 L 0 160 L 16 160 L 16 160 Z" />
</svg>