<svg xmlns="http://www.w3.org/2000/svg" viewBox="0 0 512 512">
  <path d="M 129 42 L 127 48 L 129 42 L 127 48 L 121 48 L 80 48 L 80 64 L 80 64 L 80 96 L 80 96 L 240 96 L 240 96 L 240 64 L 240 64 L 240 48 L 240 48 L 199 48 L 193 48 L 191 42 L 191 42 Q 185 18 160 16 Q 135 18 129 42 L 129 42 Z M 64 48 L 64 40 L 64 48 L 64 40 L 64 32 L 64 32 L 72 32 L 115 32 Q 127 2 160 0 Q 193 2 205 32 L 248 32 L 256 32 L 256 40 L 256 40 L 256 48 L 256 48 L 304 48 L 320 48 L 320 64 L 320 64 L 320 96 L 320 96 L 304 96 L 304 96 L 304 64 L 304 64 L 256 64 L 256 64 L 256 104 L 256 104 L 256 112 L 256 112 L 248 112 L 64 112 L 64 104 L 64 104 L 64 64 L 64 64 L 16 64 L 16 64 L 16 432 L 16 432 L 192 432 L 192 432 L 192 448 L 192 448 L 16 448 L 0 448 L 0 432 L 0 432 L 0 64 L 0 64 L 0 48 L 0 48 L 16 48 L 64 48 Z M 496 496 L 496 231 L 496 496 L 496 231 L 409 144 L 409 144 L 240 144 L 240 144 L 240 496 L 240 496 L 496 496 L 496 496 Z M 512 224 L 512 496 L 512 224 L 512 496 L 512 512 L 512 512 L 496 512 L 224 512 L 224 496 L 224 496 L 224 144 L 224 144 L 224 128 L 224 128 L 240 128 L 416 128 L 512 224 L 512 224 Z" />
</svg>