<svg xmlns="http://www.w3.org/2000/svg" viewBox="0 0 634 480">
  <path d="M 56 0 L 32 0 L 56 0 L 32 0 L 32 24 L 32 24 L 32 144 L 32 144 L 32 168 L 32 168 L 32 192 L 32 192 L 32 290 L 32 290 Q 1 321 0 368 Q 1 416 33 447 Q 64 479 112 480 L 368 480 L 368 480 Q 416 479 447 447 Q 479 416 480 368 Q 480 337 465 312 L 512 312 L 512 312 L 512 368 L 512 368 L 512 377 L 512 377 L 518 384 L 518 384 L 598 472 L 598 472 L 634 440 L 634 440 L 560 359 L 560 359 L 560 217 L 560 217 L 634 136 L 634 136 L 598 104 L 598 104 L 518 192 L 518 192 L 512 199 L 512 199 L 512 208 L 512 208 L 512 264 L 512 264 L 448 264 L 448 264 L 448 168 L 448 168 L 448 144 L 448 144 L 424 144 L 376 144 L 376 88 L 376 88 L 376 64 L 376 64 L 328 64 L 328 64 L 328 88 L 328 88 L 328 144 L 328 144 L 275 144 L 275 144 L 214 14 L 214 14 L 207 0 L 207 0 L 192 0 L 56 0 Z M 222 144 L 80 144 L 222 144 L 80 144 L 80 48 L 80 48 L 177 48 L 177 48 L 222 144 L 222 144 Z M 400 261 Q 385 256 368 256 L 112 256 L 112 256 Q 95 256 80 261 L 80 192 L 80 192 L 400 192 L 400 192 L 400 261 L 400 261 Z M 112 304 L 368 304 L 112 304 L 368 304 Q 395 305 413 323 Q 431 341 432 368 Q 431 395 413 413 Q 395 431 368 432 L 112 432 L 112 432 Q 85 431 67 413 Q 49 395 48 368 Q 49 341 67 323 Q 85 305 112 304 L 112 304 Z M 144 368 Q 142 346 120 344 Q 98 346 96 368 Q 98 390 120 392 Q 142 390 144 368 L 144 368 Z M 360 392 Q 382 390 384 368 Q 382 346 360 344 Q 338 346 336 368 Q 338 390 360 392 L 360 392 Z M 304 368 Q 302 346 280 344 Q 258 346 256 368 Q 258 390 280 392 Q 302 390 304 368 L 304 368 Z M 200 392 Q 222 390 224 368 Q 222 346 200 344 Q 178 346 176 368 Q 178 390 200 392 L 200 392 Z" />
</svg>