<svg xmlns="http://www.w3.org/2000/svg" viewBox="0 0 512 400">
  <path d="M 8 0 L 0 0 L 8 0 L 0 0 L 0 16 L 0 16 L 8 16 L 224 16 L 224 0 L 224 0 L 216 0 L 8 0 Z M 8 128 L 0 128 L 8 128 L 0 128 L 0 144 L 0 144 L 8 144 L 224 144 L 224 128 L 224 128 L 216 128 L 8 128 Z M 0 256 L 0 272 L 0 256 L 0 272 L 8 272 L 224 272 L 224 256 L 224 256 L 216 256 L 0 256 Z M 8 384 L 0 384 L 8 384 L 0 384 L 0 400 L 0 400 L 8 400 L 224 400 L 224 384 L 224 384 L 216 384 L 8 384 Z M 288 128 L 288 144 L 288 128 L 288 144 L 296 144 L 512 144 L 512 128 L 512 128 L 504 128 L 288 128 Z M 296 0 L 288 0 L 296 0 L 288 0 L 288 16 L 288 16 L 296 16 L 512 16 L 512 0 L 512 0 L 504 0 L 296 0 Z M 288 256 L 288 272 L 288 256 L 288 272 L 296 272 L 512 272 L 512 256 L 512 256 L 504 256 L 288 256 Z M 296 384 L 288 384 L 296 384 L 288 384 L 288 400 L 288 400 L 296 400 L 512 400 L 512 384 L 512 384 L 504 384 L 296 384 Z" />
</svg>