<svg xmlns="http://www.w3.org/2000/svg" viewBox="0 0 512 507">
  <path d="M 256 16 Q 222 17 199 39 L 199 39 L 199 39 Q 177 62 176 96 L 176 112 L 176 112 L 336 112 L 336 112 L 336 96 L 336 96 Q 335 62 313 39 Q 290 17 256 16 L 256 16 Z M 160 96 Q 161 55 188 28 L 188 28 L 188 28 Q 215 1 256 0 Q 297 1 324 28 Q 351 55 352 96 L 352 112 L 352 112 L 352 128 L 352 128 L 336 128 L 160 128 L 160 112 L 160 112 L 160 96 L 160 96 Z M 40 93 L 46 98 L 40 93 L 46 98 L 107 160 L 107 160 L 112 160 L 405 160 L 466 98 L 466 98 L 472 93 L 472 93 L 483 104 L 483 104 L 478 110 L 478 110 L 416 171 L 416 171 L 416 176 L 416 176 L 416 280 L 416 280 L 504 280 L 512 280 L 512 296 L 512 296 L 504 296 L 416 296 L 416 320 L 416 320 Q 415 370 389 409 L 390 410 L 390 410 L 470 490 L 470 490 L 475 496 L 475 496 L 464 507 L 464 507 L 458 502 L 458 502 L 379 422 L 379 422 Q 335 474 264 480 L 264 480 L 264 480 L 256 480 L 248 480 L 248 480 L 248 480 Q 177 474 133 422 L 54 502 L 54 502 L 48 507 L 48 507 L 37 496 L 37 496 L 42 490 L 42 490 L 122 410 L 122 410 L 123 409 L 123 409 Q 97 370 96 320 L 96 296 L 96 296 L 8 296 L 0 296 L 0 280 L 0 280 L 8 280 L 96 280 L 96 176 L 96 176 L 96 171 L 96 171 L 34 110 L 34 110 L 29 104 L 29 104 L 40 93 L 40 93 Z M 400 320 L 400 296 L 400 320 L 400 296 L 400 280 L 400 280 L 400 176 L 400 176 L 112 176 L 112 176 L 112 280 L 112 280 L 112 296 L 112 296 L 112 320 L 112 320 Q 113 379 152 419 Q 190 459 248 464 L 248 232 L 248 232 L 248 224 L 248 224 L 264 224 L 264 224 L 264 232 L 264 232 L 264 464 L 264 464 Q 322 459 360 419 Q 399 379 400 320 L 400 320 Z" />
</svg>