<svg xmlns="http://www.w3.org/2000/svg" viewBox="0 0 384 512">
  <path d="M 144 16 L 144 32 L 144 16 L 144 32 L 144 48 L 144 48 L 144 200 L 144 200 L 208 200 L 208 200 L 208 48 L 208 48 L 208 32 L 208 32 L 208 16 L 208 16 L 144 16 L 144 16 Z M 128 200 L 128 48 L 128 200 L 128 48 L 64 48 L 64 48 L 64 200 L 64 200 L 128 200 L 128 200 Z M 48 200 L 48 48 L 48 200 L 48 48 L 48 32 L 48 32 L 64 32 L 128 32 L 128 16 L 128 16 L 128 0 L 128 0 L 144 0 L 224 0 L 224 16 L 224 16 L 224 32 L 224 32 L 288 32 L 304 32 L 304 48 L 304 48 L 304 64 L 304 64 L 368 64 L 384 64 L 384 80 L 384 80 L 384 192 L 384 192 L 384 200 L 384 200 L 384 224 L 384 224 L 384 240 L 384 240 L 384 264 L 384 264 Q 384 301 366 331 Q 349 361 320 379 L 320 504 L 320 504 L 320 512 L 320 512 L 304 512 L 304 512 L 304 504 L 304 504 L 304 375 L 304 375 L 304 370 L 304 370 L 308 368 L 308 368 Q 335 352 351 325 Q 368 298 368 264 L 368 240 L 368 240 L 304 240 L 288 240 L 288 224 L 288 224 L 224 224 L 216 224 L 216 288 L 216 288 L 216 296 L 216 296 L 208 296 L 96 296 L 96 280 L 96 280 L 104 280 L 200 280 L 200 216 L 200 216 L 160 216 L 16 216 L 16 272 L 16 272 L 16 280 L 16 280 Q 17 320 42 348 Q 66 377 105 383 L 112 384 L 112 384 L 112 391 L 112 391 L 112 504 L 112 504 L 112 512 L 112 512 L 96 512 L 96 512 L 96 504 L 96 504 L 96 398 L 96 398 Q 56 389 30 359 Q 4 330 0 288 L 0 288 L 0 288 L 0 280 L 0 280 L 0 272 L 0 272 L 0 208 L 0 208 L 0 200 L 0 200 L 8 200 L 48 200 Z M 368 224 L 368 200 L 368 224 L 368 200 L 368 192 L 368 192 L 368 80 L 368 80 L 304 80 L 304 80 L 304 208 L 304 208 L 304 224 L 304 224 L 368 224 L 368 224 Z M 224 200 L 224 208 L 224 200 L 224 208 L 288 208 L 288 208 L 288 80 L 288 80 L 288 64 L 288 64 L 288 48 L 288 48 L 224 48 L 224 48 L 224 200 L 224 200 Z" />
</svg>