<svg xmlns="http://www.w3.org/2000/svg" viewBox="0 0 637 506">
  <path d="M 285 0 L 290 4 L 285 0 L 290 4 L 479 166 L 479 166 Q 472 170 465 175 L 285 21 L 285 21 L 77 199 L 77 199 L 77 490 L 77 490 L 205 490 L 205 490 L 205 306 L 205 306 L 205 298 L 205 298 L 213 298 L 365 298 L 365 306 L 365 306 L 365 490 L 365 490 L 381 490 L 381 490 L 381 506 L 381 506 L 69 506 L 61 506 L 61 498 L 61 498 L 61 213 L 61 213 L 10 256 L 10 256 L 0 244 L 0 244 L 280 4 L 280 4 L 285 0 L 285 0 Z M 221 490 L 349 490 L 221 490 L 349 490 L 349 314 L 349 314 L 221 314 L 221 314 L 221 490 L 221 490 Z M 525 202 Q 505 203 491 216 L 491 216 L 491 216 Q 478 230 477 250 L 477 314 L 477 314 L 573 314 L 573 314 L 573 250 L 573 250 Q 572 230 559 216 Q 545 203 525 202 L 525 202 Z M 461 250 Q 462 223 480 205 L 480 205 L 480 205 Q 498 187 525 186 Q 552 187 570 205 Q 588 223 589 250 L 589 314 L 589 314 L 621 314 L 637 314 L 637 330 L 637 330 L 637 490 L 637 490 L 637 506 L 637 506 L 621 506 L 413 506 L 413 490 L 413 490 L 413 330 L 413 330 L 413 314 L 413 314 L 429 314 L 461 314 L 461 250 L 461 250 Z M 429 330 L 429 490 L 429 330 L 429 490 L 621 490 L 621 490 L 621 330 L 621 330 L 589 330 L 429 330 Z" />
</svg>