<svg xmlns="http://www.w3.org/2000/svg" viewBox="0 0 640 512">
  <path d="M 416 413 Q 377 452 320 477 Q 253 447 211 401 Q 169 354 147 301 Q 120 234 114 175 L 80 148 L 80 148 Q 81 184 90 227 Q 99 269 118 314 Q 142 371 188 422 Q 234 474 307 507 L 320 512 L 320 512 L 333 507 L 333 507 Q 398 477 441 433 L 416 413 L 416 413 Z M 308 5 L 172 58 L 308 5 L 172 58 L 201 81 L 201 81 L 320 34 L 320 34 L 528 115 L 528 115 Q 530 150 522 199 Q 515 248 493 301 Q 491 305 490 308 Q 490 308 490 308 L 515 329 L 515 329 Q 518 322 521 316 Q 522 315 522 314 Q 546 257 554 204 Q 562 151 559 113 L 558 93 L 558 93 L 539 85 L 539 85 L 332 5 L 332 5 L 320 0 L 320 0 L 308 5 L 308 5 Z M 33 10 L 20 0 L 33 10 L 20 0 L 0 25 L 0 25 L 13 35 L 13 35 L 608 502 L 608 502 L 620 512 L 620 512 L 640 487 L 640 487 L 628 477 L 628 477 L 33 10 L 33 10 Z" />
</svg>