<svg xmlns="http://www.w3.org/2000/svg" viewBox="0 0 576 320">
  <path d="M 16 16 L 16 304 L 16 16 L 16 304 L 560 304 L 560 304 L 560 16 L 560 16 L 16 16 L 16 16 Z M 0 0 L 16 0 L 0 0 L 576 0 L 576 16 L 576 16 L 576 304 L 576 304 L 576 320 L 576 320 L 560 320 L 0 320 L 0 304 L 0 304 L 0 16 L 0 16 L 0 0 L 0 0 Z M 336 80 L 336 240 L 336 80 L 336 240 L 496 240 L 496 240 L 496 80 L 496 80 L 336 80 L 336 80 Z M 320 64 L 336 64 L 320 64 L 512 64 L 512 80 L 512 80 L 512 240 L 512 240 L 512 256 L 512 256 L 496 256 L 320 256 L 320 240 L 320 240 L 320 80 L 320 80 L 320 64 L 320 64 Z" />
</svg>