<svg xmlns="http://www.w3.org/2000/svg" viewBox="0 0 288 512">
  <path d="M 128 0 L 112 0 L 128 0 L 112 0 L 112 64 L 112 64 L 16 64 L 0 64 L 0 80 L 0 80 L 0 248 L 0 248 L 0 264 L 0 264 L 0 432 L 0 432 L 0 448 L 0 448 L 16 448 L 112 448 L 112 512 L 112 512 L 128 512 L 128 512 L 128 448 L 128 448 L 188 448 L 188 448 Q 230 447 259 419 Q 287 390 288 348 Q 287 311 265 284 Q 243 257 207 250 Q 230 236 243 214 Q 256 192 256 164 Q 255 122 227 93 Q 198 65 156 64 L 128 64 L 128 64 L 128 0 L 128 0 Z M 112 80 L 112 248 L 112 80 L 112 248 L 16 248 L 16 248 L 16 80 L 16 80 L 112 80 L 112 80 Z M 128 248 L 128 80 L 128 248 L 128 80 L 156 80 L 156 80 Q 192 81 215 105 Q 239 128 240 164 Q 239 200 215 223 Q 192 247 156 248 L 128 248 L 128 248 Z M 112 264 L 112 432 L 112 264 L 112 432 L 16 432 L 16 432 L 16 264 L 16 264 L 112 264 L 112 264 Z M 128 432 L 128 264 L 128 432 L 128 264 L 156 264 L 188 264 Q 224 265 247 289 Q 271 312 272 348 Q 271 384 247 407 Q 224 431 188 432 L 128 432 L 128 432 Z" />
</svg>