<svg xmlns="http://www.w3.org/2000/svg" viewBox="0 0 576 513">
  <path d="M 349 17 Q 410 17 454 59 Q 496 103 496 164 Q 496 202 480 239 Q 464 276 434 307 Q 377 361 307 368 Q 237 375 186 327 Q 144 283 144 222 Q 144 184 160 147 Q 176 110 206 79 Q 237 49 274 33 Q 311 17 349 17 L 349 17 Z M 349 1 Q 308 1 268 18 L 268 18 L 268 18 Q 228 35 195 68 Q 162 101 145 141 Q 128 181 128 222 Q 128 284 169 333 L 134 367 L 134 367 L 115 348 L 115 348 L 104 337 L 104 337 L 93 348 L 93 348 L 11 430 L 11 430 L 0 441 L 0 441 L 11 452 L 11 452 L 61 502 L 61 502 L 72 513 L 72 513 L 83 502 L 83 502 L 165 420 L 165 420 L 176 409 L 176 409 L 165 398 L 165 398 L 146 379 L 146 379 L 180 344 L 180 344 Q 238 393 312 384 Q 387 375 445 318 Q 478 285 495 245 Q 512 205 512 164 Q 513 97 465 48 Q 416 0 349 1 L 349 1 Z M 104 360 L 153 409 L 104 360 L 153 409 L 72 490 L 72 490 L 23 441 L 23 441 L 104 360 L 104 360 Z M 512 369 Q 526 369 535 378 L 535 378 L 535 378 Q 544 387 544 401 L 544 433 L 544 433 L 480 433 L 480 433 L 480 401 L 480 401 Q 480 387 489 378 Q 498 369 512 369 L 512 369 Z M 560 433 L 560 401 L 560 433 L 560 401 Q 559 381 546 367 Q 532 354 512 353 Q 492 354 478 367 Q 465 381 464 401 L 464 433 L 464 433 L 464 449 L 464 449 L 480 449 L 560 449 L 560 433 L 560 433 Z M 448 508 L 463 512 L 448 508 L 463 512 L 477 465 L 477 465 L 460 465 L 460 465 L 448 508 L 448 508 Z M 504 505 L 504 513 L 504 505 L 504 513 L 520 513 L 520 513 L 520 505 L 520 505 L 520 465 L 520 465 L 504 465 L 504 465 L 504 505 L 504 505 Z M 561 512 L 576 508 L 561 512 L 576 508 L 564 465 L 564 465 L 547 465 L 547 465 L 561 512 L 561 512 Z" />
</svg>