<svg xmlns="http://www.w3.org/2000/svg" viewBox="0 0 576 512">
  <path d="M 272 352 L 256 352 L 272 352 L 256 352 L 256 336 L 256 336 L 256 26 L 256 26 L 256 0 L 256 0 L 272 21 L 272 21 L 516 336 L 516 336 L 528 352 L 528 352 L 508 352 L 272 352 Z M 495 336 L 272 47 L 495 336 L 272 47 L 272 336 L 272 336 L 495 336 L 495 336 Z M 20 384 L 556 384 L 20 384 L 576 384 L 564 400 L 564 400 L 480 512 L 480 512 L 96 512 L 96 512 L 12 400 L 12 400 L 0 384 L 0 384 L 20 384 L 20 384 Z M 32 400 L 104 496 L 32 400 L 104 496 L 472 496 L 472 496 L 544 400 L 544 400 L 32 400 L 32 400 Z M 224 352 L 208 352 L 224 352 L 48 352 L 58 336 L 58 336 L 208 90 L 208 90 L 224 64 L 224 64 L 224 95 L 224 95 L 224 336 L 224 336 L 224 352 L 224 352 Z M 208 121 L 77 336 L 208 121 L 77 336 L 208 336 L 208 336 L 208 121 L 208 121 Z" />
</svg>