<svg xmlns="http://www.w3.org/2000/svg" viewBox="0 0 640 512">
  <path d="M 384 183 L 384 190 L 384 183 L 384 190 L 168 0 L 168 0 L 128 40 L 128 40 L 384 331 L 384 331 L 384 352 L 384 352 L 533 501 L 533 501 L 544 512 L 544 512 L 555 501 L 555 501 L 629 427 L 629 427 L 640 416 L 640 416 L 629 405 L 629 405 L 400 176 L 400 176 L 384 160 L 384 160 L 384 183 L 384 183 Z M 150 41 L 169 22 L 150 41 L 169 22 L 384 212 L 384 212 L 384 306 L 384 306 L 150 41 L 150 41 Z M 536 335 L 617 416 L 536 335 L 617 416 L 586 447 L 586 447 L 507 368 L 507 368 L 534 342 L 534 342 Q 537 338 536 335 L 536 335 Z M 530 328 Q 526 327 522 330 L 490 362 L 490 362 L 458 394 L 458 394 Q 456 398 456 402 L 400 345 L 400 345 L 400 199 L 400 199 L 530 328 L 530 328 Z M 463 408 Q 467 409 470 406 L 496 379 L 496 379 L 575 458 L 575 458 L 544 489 L 544 489 L 463 408 L 463 408 Z M 235 209 L 193 246 L 235 209 L 193 246 L 182 234 L 182 234 L 176 229 L 176 229 L 165 240 L 165 240 L 170 246 L 170 246 L 181 256 L 181 256 L 175 261 L 175 261 L 170 266 L 170 266 L 170 266 L 170 266 L 112 325 L 112 325 L 110 322 L 110 322 L 104 317 L 104 317 L 98 322 L 98 322 L 2 418 L 2 418 L 0 421 L 0 421 L 0 424 L 0 424 L 0 456 L 0 456 L 0 459 L 0 459 L 2 462 L 2 462 L 50 510 L 50 510 L 53 512 L 53 512 L 56 512 L 91 512 L 94 510 L 94 510 L 190 414 L 190 414 L 195 408 L 195 408 L 190 402 L 190 402 L 187 400 L 187 400 L 246 342 L 246 342 L 246 342 L 246 342 L 251 337 L 251 337 L 256 331 L 256 331 L 266 342 L 266 342 L 272 347 L 272 347 L 283 336 L 283 336 L 278 330 L 278 330 L 266 319 L 266 319 L 299 282 L 299 282 L 288 270 L 288 270 L 255 308 L 255 308 L 204 257 L 204 257 L 245 221 L 245 221 L 234 209 L 235 209 Z M 417 148 L 512 40 L 417 148 L 512 40 L 472 0 L 472 0 L 364 95 L 364 95 L 376 106 L 376 106 L 471 22 L 471 22 L 490 41 L 490 41 L 406 137 L 406 137 L 407 137 L 407 137 L 417 148 L 417 148 Z M 186 273 L 192 268 L 186 273 L 192 268 L 244 320 L 244 320 L 239 326 L 239 326 L 216 349 L 216 349 L 163 296 L 163 296 L 186 273 L 186 273 Z M 123 336 L 152 307 L 123 336 L 152 307 L 205 360 L 205 360 L 176 389 L 176 389 L 123 336 L 123 336 Z M 16 427 L 104 339 L 16 427 L 104 339 L 106 342 L 106 342 L 170 406 L 170 406 L 173 408 L 173 408 L 85 496 L 85 496 L 59 496 L 59 496 L 16 453 L 16 453 L 16 427 L 16 427 Z" />
</svg>