<svg xmlns="http://www.w3.org/2000/svg" viewBox="0 0 640 512">
  <path d="M 416 0 L 0 0 L 416 0 L 0 0 L 0 416 L 0 416 L 64 416 L 64 416 Q 65 457 92 484 Q 119 511 160 512 Q 201 511 228 484 Q 255 457 256 416 L 384 416 L 384 416 Q 385 457 412 484 Q 439 511 480 512 Q 521 511 548 484 Q 575 457 576 416 L 608 416 L 640 416 L 640 352 L 640 352 L 608 352 L 608 352 L 608 288 L 608 288 L 608 256 L 608 256 L 608 224 L 608 224 L 608 211 L 608 211 L 599 201 L 599 201 L 503 105 L 503 105 L 493 96 L 493 96 L 480 96 L 416 96 L 416 0 L 416 0 Z M 544 240 L 544 256 L 544 240 L 544 256 L 416 256 L 416 256 L 416 160 L 416 160 L 464 160 L 467 160 L 544 237 L 544 237 L 544 240 L 544 240 Z M 160 368 Q 187 369 202 392 Q 214 416 202 440 Q 187 463 160 464 Q 133 463 118 440 Q 106 416 118 392 Q 133 369 160 368 L 160 368 Z M 432 416 Q 433 389 456 374 Q 480 362 504 374 Q 527 389 528 416 Q 527 443 504 458 Q 480 470 456 458 Q 433 443 432 416 L 432 416 Z M 81 152 L 96 64 L 81 152 L 96 64 L 112 64 L 112 64 L 117 159 L 117 159 L 128 159 L 128 159 L 136 64 L 136 64 L 152 64 L 152 64 L 160 159 L 160 159 L 171 159 L 171 159 L 176 64 L 176 64 L 192 64 L 192 64 L 207 152 L 207 152 Q 208 159 208 166 Q 208 188 194 203 Q 181 217 160 220 L 160 304 L 160 304 L 160 320 L 160 320 L 128 320 L 128 320 L 128 304 L 128 304 L 128 220 L 128 220 Q 107 218 94 203 Q 80 188 80 166 Q 80 159 81 152 L 81 152 Z M 320 112 L 320 128 L 320 112 L 320 128 L 320 224 L 320 224 L 320 304 L 320 304 L 320 320 L 320 320 L 288 320 L 288 320 L 288 304 L 288 304 L 288 224 L 288 224 L 256 224 L 256 224 L 256 155 L 256 155 Q 257 120 269 100 Q 282 80 295 72 Q 307 64 308 64 L 320 64 L 320 64 L 320 112 L 320 112 Z" />
</svg>