<svg xmlns="http://www.w3.org/2000/svg" viewBox="0 0 576 512">
  <path d="M 208 282 L 208 288 L 208 282 L 208 288 L 208 361 L 208 361 L 260 406 L 260 406 Q 264 422 270 436 L 192 368 L 192 368 L 192 288 L 192 288 L 0 64 L 0 64 L 0 16 L 0 16 L 0 0 L 0 0 L 16 0 L 512 0 L 512 16 L 512 16 L 512 64 L 512 64 L 400 195 L 400 195 Q 386 197 372 202 L 496 58 L 496 58 L 496 16 L 496 16 L 16 16 L 16 16 L 16 58 L 16 58 L 204 278 L 204 278 L 208 282 L 208 282 Z M 560 368 Q 560 333 543 304 L 543 304 L 543 304 Q 526 275 496 257 Q 466 240 432 240 Q 398 240 368 257 Q 338 275 321 304 Q 304 333 304 368 Q 304 403 321 432 Q 338 461 368 479 Q 398 496 432 496 Q 466 496 496 479 Q 526 461 543 432 Q 560 403 560 368 L 560 368 Z M 288 368 Q 288 329 307 296 L 307 296 L 307 296 Q 326 263 360 243 Q 394 224 432 224 Q 470 224 504 243 Q 538 263 557 296 Q 576 329 576 368 Q 576 407 557 440 Q 538 473 504 493 Q 470 512 432 512 Q 394 512 360 493 Q 326 473 307 440 Q 288 407 288 368 L 288 368 Z M 494 318 L 443 368 L 494 318 L 443 368 L 494 418 L 494 418 L 499 424 L 499 424 L 488 435 L 488 435 L 482 430 L 482 430 L 432 379 L 432 379 L 382 430 L 382 430 L 376 435 L 376 435 L 365 424 L 365 424 L 370 418 L 370 418 L 421 368 L 421 368 L 370 318 L 370 318 L 365 312 L 365 312 L 376 301 L 376 301 L 382 306 L 382 306 L 432 357 L 432 357 L 482 306 L 482 306 L 488 301 L 488 301 L 499 312 L 499 312 L 494 318 L 494 318 Z" />
</svg>