<svg xmlns="http://www.w3.org/2000/svg" viewBox="0 0 622 478">
  <path d="M 103 0 L 114 12 L 103 0 L 114 12 L 194 92 L 194 92 L 206 103 L 206 103 L 183 126 L 183 126 L 172 114 L 172 114 L 119 62 L 119 62 L 119 431 L 119 431 L 295 431 L 295 431 L 295 31 L 295 31 L 295 15 L 295 15 L 311 15 L 535 15 L 535 31 L 535 31 L 535 416 L 535 416 L 588 364 L 588 364 L 599 352 L 599 352 L 622 375 L 622 375 L 610 386 L 610 386 L 530 466 L 530 466 L 519 478 L 519 478 L 508 466 L 508 466 L 428 386 L 428 386 L 416 375 L 416 375 L 439 352 L 439 352 L 450 364 L 450 364 L 503 416 L 503 416 L 503 47 L 503 47 L 327 47 L 327 47 L 327 447 L 327 447 L 327 463 L 327 463 L 311 463 L 87 463 L 87 447 L 87 447 L 87 62 L 87 62 L 34 114 L 34 114 L 23 126 L 23 126 L 0 103 L 0 103 L 12 92 L 12 92 L 92 12 L 92 12 L 103 0 L 103 0 Z" />
</svg>