<svg xmlns="http://www.w3.org/2000/svg" viewBox="0 0 640 512">
  <path d="M 16 5 L 10 0 L 16 5 L 10 0 L 0 13 L 0 13 L 6 18 L 6 18 L 624 507 L 624 507 L 630 512 L 630 512 L 640 500 L 640 500 L 634 495 L 634 495 L 16 5 L 16 5 Z M 275 312 L 104 312 L 275 312 L 96 312 L 96 328 L 96 328 L 104 328 L 295 328 L 275 312 L 275 312 Z M 527 328 L 536 328 L 527 328 L 544 328 L 544 312 L 544 312 L 536 312 L 507 312 L 527 328 L 527 328 Z M 536 200 L 544 200 L 536 200 L 544 200 L 544 184 L 544 184 L 536 184 L 345 184 L 365 200 L 365 200 L 536 200 L 536 200 Z M 133 200 L 113 184 L 133 200 L 113 184 L 104 184 L 96 184 L 96 200 L 96 200 L 104 200 L 133 200 Z M 536 56 L 183 56 L 536 56 L 183 56 L 203 72 L 203 72 L 536 72 L 544 72 L 544 56 L 544 56 L 536 56 L 536 56 Z M 457 456 L 437 440 L 457 456 L 437 440 L 104 440 L 96 440 L 96 456 L 96 456 L 104 456 L 457 456 Z" />
</svg>