<svg xmlns="http://www.w3.org/2000/svg" viewBox="0 0 576 512">
  <path d="M 8 143 Q 87 100 140 28 Q 145 20 150 12 L 158 0 L 158 0 L 167 10 L 167 10 Q 174 17 181 24 Q 227 63 288 64 Q 349 63 395 24 Q 403 17 409 10 L 418 0 L 418 0 L 426 12 L 426 12 Q 431 20 436 28 Q 489 100 568 143 L 576 147 L 576 147 L 576 480 L 576 480 L 576 512 L 576 512 L 544 512 L 0 512 L 0 480 L 0 480 L 0 147 L 0 147 L 8 143 L 8 143 Z M 32 166 L 32 192 L 32 166 L 32 192 L 544 192 L 544 192 L 544 166 L 544 166 Q 466 122 413 50 Q 359 95 288 96 Q 217 95 163 50 Q 110 122 32 166 L 32 166 Z M 32 224 L 32 480 L 32 224 L 32 480 L 272 480 L 272 480 L 272 224 L 272 224 L 32 224 L 32 224 Z M 406 480 L 304 276 L 406 480 L 304 276 L 304 480 L 304 480 L 406 480 L 406 480 Z M 442 480 L 544 480 L 442 480 L 544 480 L 544 224 L 544 224 L 314 224 L 314 224 L 442 480 L 442 480 Z" />
</svg>