<svg xmlns="http://www.w3.org/2000/svg" viewBox="0 0 384 512">
  <path d="M 41 325 L 57 332 L 41 325 L 57 332 Q 79 342 103 339 Q 127 337 148 322 Q 168 308 192 308 Q 216 308 236 322 Q 257 337 280 339 Q 304 342 327 332 L 343 325 L 343 325 L 329 496 L 329 496 L 55 496 L 55 496 L 41 325 L 41 325 Z M 40 307 L 17 16 L 40 307 L 17 16 L 367 16 L 367 16 L 344 307 L 344 307 L 321 317 L 321 317 Q 281 333 246 309 Q 221 292 192 292 Q 163 292 138 309 Q 103 333 63 317 L 40 307 L 40 307 Z M 40 512 L 344 512 L 40 512 L 344 512 L 383 16 L 383 16 L 384 0 L 384 0 L 368 0 L 0 0 L 1 16 L 1 16 L 40 512 L 40 512 Z M 192 224 Q 171 223 158 211 L 158 211 L 158 211 Q 144 198 144 180 Q 144 174 152 157 Q 161 140 173 123 Q 183 108 192 97 Q 201 108 211 123 Q 223 140 232 157 Q 240 174 240 180 Q 240 198 226 211 Q 213 223 192 224 L 192 224 Z M 182 85 Q 166 103 148 132 L 148 132 L 148 132 Q 130 160 128 180 Q 129 205 147 222 Q 165 239 192 240 Q 219 239 237 222 Q 255 205 256 180 Q 254 160 236 132 Q 218 103 202 85 Q 193 73 192 72 Q 192 72 192 72 Q 191 72 182 85 L 182 85 Z" />
</svg>