<svg xmlns="http://www.w3.org/2000/svg" viewBox="0 0 512 384">
  <path d="M 128 168 L 128 288 L 128 168 L 128 288 L 224 354 L 224 354 L 224 168 L 224 168 L 224 161 L 224 161 L 229 156 L 229 156 L 336 57 L 336 57 L 336 16 L 336 16 L 16 16 L 16 16 L 16 57 L 16 57 L 123 156 L 123 156 L 128 161 L 128 161 L 128 168 L 128 168 Z M 112 168 L 0 64 L 112 168 L 0 64 L 0 16 L 0 16 L 0 0 L 0 0 L 16 0 L 352 0 L 352 16 L 352 16 L 352 64 L 352 64 L 240 168 L 240 168 L 240 365 L 240 365 L 240 384 L 240 384 L 224 373 L 224 373 L 112 296 L 112 296 L 112 168 L 112 168 Z M 384 16 L 392 16 L 384 16 L 512 16 L 512 32 L 512 32 L 504 32 L 384 32 L 384 16 L 384 16 Z M 328 176 L 504 176 L 328 176 L 512 176 L 512 192 L 512 192 L 504 192 L 320 192 L 320 176 L 320 176 L 328 176 L 328 176 Z M 328 336 L 504 336 L 328 336 L 512 336 L 512 352 L 512 352 L 504 352 L 320 352 L 320 336 L 320 336 L 328 336 L 328 336 Z" />
</svg>