<svg xmlns="http://www.w3.org/2000/svg" viewBox="0 0 576 512">
  <path d="M 448 16 Q 397 17 363 51 L 363 51 L 363 51 Q 329 85 328 136 L 328 144 L 328 144 L 320 144 L 310 144 L 308 143 L 308 143 L 144 54 L 144 54 Q 148 114 168 151 Q 188 188 213 207 Q 240 227 260 234 Q 270 237 276 239 Q 278 239 279 240 Q 280 240 280 240 Q 280 240 280 240 Q 281 240 281 240 L 281 240 L 281 240 Q 281 240 281 240 Q 281 240 281 240 Q 281 240 281 240 Q 281 240 281 240 Q 281 240 281 240 Q 281 240 281 240 Q 281 240 281 240 Q 281 240 281 240 L 289 241 L 289 241 L 287 257 L 287 257 L 279 256 L 279 256 L 280 248 L 280 248 Q 278 258 279 256 Q 279 256 279 256 Q 279 256 279 256 Q 279 256 279 256 Q 279 256 279 256 L 279 256 L 279 256 L 278 256 L 278 256 Q 278 256 277 255 Q 275 255 272 254 Q 265 253 255 249 Q 232 241 203 219 Q 170 195 147 144 Q 144 136 141 128 Q 128 91 128 40 L 128 26 L 128 26 L 140 33 L 140 33 L 312 127 L 312 127 Q 317 73 355 37 Q 393 1 448 0 L 456 0 L 560 0 L 560 16 L 560 16 L 552 16 L 535 16 L 564 60 L 564 60 L 565 61 L 565 61 L 565 63 L 565 63 L 576 175 L 576 175 L 576 181 L 576 181 L 572 183 L 572 183 L 492 223 L 492 223 L 484 227 L 484 227 L 481 220 L 481 220 L 451 160 L 451 160 L 448 160 L 448 160 L 448 240 L 448 240 L 448 240 L 448 240 L 448 249 L 448 249 L 448 249 L 448 249 Q 443 288 416 312 L 416 504 L 416 504 L 416 512 L 416 512 L 408 512 L 312 512 L 312 504 L 312 504 L 312 332 L 312 332 L 208 309 L 208 309 L 208 344 L 208 344 L 208 354 L 208 354 L 208 356 L 208 356 L 207 357 L 207 357 L 204 366 L 204 366 L 187 404 L 187 404 L 214 502 L 214 502 L 217 512 L 217 512 L 207 512 L 101 512 L 99 506 L 99 506 L 74 415 L 74 415 L 70 399 L 70 399 L 69 396 L 69 396 L 70 393 L 70 393 L 76 378 L 76 378 L 96 333 L 96 333 L 96 316 L 96 316 L 63 244 L 63 244 Q 56 228 56 210 Q 56 192 64 176 Q 43 177 30 190 Q 17 204 16 224 L 16 312 L 16 312 L 16 320 L 16 320 L 0 320 L 0 320 L 0 312 L 0 312 L 0 224 L 0 224 Q 1 197 19 179 Q 37 161 64 160 L 72 160 L 73 160 Q 87 142 109 133 Q 112 141 114 148 Q 95 156 84 172 Q 72 189 72 210 Q 72 225 78 238 L 111 311 L 111 311 L 112 313 L 112 313 L 112 314 L 112 314 L 112 334 L 112 334 L 112 336 L 112 336 L 111 337 L 111 337 L 91 384 L 91 384 L 86 397 L 86 397 L 90 411 L 90 411 L 113 496 L 113 496 L 196 496 L 196 496 L 171 406 L 171 406 L 170 403 L 170 403 L 171 400 L 171 400 L 189 360 L 189 360 L 192 352 L 192 352 L 192 344 L 192 344 L 192 304 L 192 304 L 192 299 L 192 299 L 192 289 L 192 289 L 202 291 L 202 291 L 322 318 L 322 318 L 328 319 L 328 319 L 328 326 L 328 326 L 328 496 L 328 496 L 400 496 L 400 496 L 400 309 L 400 309 L 400 305 L 400 305 L 403 302 L 403 302 Q 430 279 432 240 L 432 240 L 432 240 L 432 239 L 432 239 L 432 152 L 432 152 L 432 144 L 432 144 L 440 144 L 461 144 L 463 148 L 463 148 L 492 205 L 492 205 L 559 171 L 559 171 L 549 67 L 549 67 L 516 16 L 516 16 L 472 16 L 448 16 Z M 496 64 Q 511 65 512 80 Q 511 95 496 96 Q 481 95 480 80 Q 481 65 496 64 L 496 64 Z" />
</svg>