<svg xmlns="http://www.w3.org/2000/svg" viewBox="0 0 417 512">
  <path d="M 89 0 L 81 0 L 89 0 L 81 0 L 81 8 L 81 8 L 81 64 L 81 64 L 17 64 L 0 64 L 11 77 L 11 77 L 39 112 L 39 112 L 11 147 L 11 147 L 0 160 L 0 160 L 17 160 L 81 160 L 81 256 L 81 256 L 41 256 L 33 256 L 33 264 L 33 264 L 33 360 L 33 360 Q 35 425 78 467 Q 120 510 185 512 L 265 512 L 265 512 Q 330 510 372 467 Q 415 425 417 360 L 417 352 L 417 352 L 417 344 L 417 344 L 417 280 L 417 280 L 417 208 L 417 208 L 417 200 L 417 200 L 409 200 L 337 200 L 337 192 L 337 192 L 337 184 L 337 184 L 329 184 L 257 184 L 257 160 L 257 160 L 257 152 L 257 152 L 249 152 L 177 152 L 177 144 L 177 144 Q 177 144 177 144 Q 177 144 177 144 L 177 80 L 177 80 Q 177 80 177 80 Q 177 80 177 80 L 177 64 L 177 64 Q 177 64 177 64 Q 177 64 177 64 L 177 8 L 177 8 L 177 0 L 177 0 L 169 0 L 89 0 Z M 161 64 L 97 64 L 161 64 L 97 64 L 97 16 L 97 16 L 161 16 L 161 16 L 161 64 L 161 64 Z M 81 80 L 81 144 L 81 80 L 81 144 L 34 144 L 34 144 L 55 117 L 55 117 L 59 112 L 59 112 L 55 107 L 55 107 L 34 80 L 34 80 L 81 80 L 81 80 Z M 97 144 L 97 80 L 97 144 L 97 80 L 161 80 L 161 80 L 161 144 L 161 144 L 97 144 L 97 144 Z M 97 160 L 161 160 L 97 160 L 161 160 L 161 256 L 161 256 L 97 256 L 97 256 L 97 160 L 97 160 Z M 177 168 L 241 168 L 177 168 L 241 168 L 241 184 L 241 184 L 241 192 L 241 192 L 241 256 L 241 256 L 177 256 L 177 256 L 177 168 L 177 168 Z M 241 272 Q 241 272 241 272 L 241 272 L 241 272 Q 241 272 241 272 L 241 336 L 241 336 L 137 336 L 129 336 L 129 352 L 129 352 L 137 352 L 401 352 L 401 360 L 401 360 Q 400 418 361 456 Q 323 495 265 496 L 185 496 L 185 496 Q 127 495 89 456 Q 50 418 49 360 L 49 272 L 49 272 L 81 272 L 81 272 Q 81 272 81 272 Q 81 272 81 272 L 97 272 L 97 272 Q 97 272 97 272 Q 97 272 97 272 L 161 272 L 161 272 Q 161 272 161 272 Q 161 272 161 272 L 177 272 L 177 272 Q 177 272 177 272 Q 177 272 177 272 L 241 272 L 241 272 Z M 257 272 L 257 264 L 257 272 L 257 264 L 257 256 L 257 256 L 257 200 L 257 200 L 321 200 L 321 200 L 321 208 L 321 208 L 321 336 L 321 336 L 257 336 L 257 336 L 257 272 L 257 272 Z M 401 280 L 401 336 L 401 280 L 401 336 L 337 336 L 337 336 L 337 216 L 337 216 L 401 216 L 401 216 L 401 280 L 401 280 Z" />
</svg>