<svg xmlns="http://www.w3.org/2000/svg" viewBox="0 0 624 512">
  <path d="M 545 151 L 568 128 L 545 151 L 568 128 L 545 105 L 545 105 L 463 23 L 463 23 L 440 0 L 440 0 L 417 23 L 417 23 L 286 154 L 286 154 L 311 174 L 311 174 L 371 114 L 371 114 L 454 197 L 454 197 L 404 247 L 404 247 L 429 267 L 429 267 L 545 151 L 545 151 Z M 313 338 L 232 419 L 313 338 L 232 419 L 232 400 L 232 400 L 232 384 L 232 384 L 216 384 L 184 384 L 184 352 L 184 352 L 184 336 L 184 336 L 168 336 L 149 336 L 220 265 L 220 265 L 195 245 L 195 245 L 88 352 L 88 352 L 63 478 L 63 478 L 56 512 L 56 512 L 90 505 L 90 505 L 216 480 L 216 480 L 338 358 L 338 358 L 313 338 L 313 338 Z M 200 451 L 97 471 L 200 451 L 97 471 L 118 368 L 118 368 Q 119 368 120 368 L 152 368 L 152 368 L 152 400 L 152 400 L 152 416 L 152 416 L 168 416 L 200 416 L 200 448 L 200 448 Q 200 449 200 450 Q 200 450 200 451 L 200 451 Z M 523 128 L 477 174 L 523 128 L 477 174 L 394 91 L 394 91 L 440 45 L 440 45 L 523 128 L 523 128 Z M 32 18 L 20 8 L 32 18 L 20 8 L 0 33 L 0 33 L 13 43 L 13 43 L 592 494 L 592 494 L 604 504 L 604 504 L 624 479 L 624 479 L 612 469 L 612 469 L 32 18 L 32 18 Z" />
</svg>