<svg xmlns="http://www.w3.org/2000/svg" viewBox="0 0 384 480">
  <path d="M 0 0 L 16 0 L 0 0 L 16 0 L 16 90 L 16 90 L 128 119 L 128 119 L 128 136 L 128 136 L 6 104 L 6 104 L 0 102 L 0 102 L 0 96 L 0 96 L 0 0 L 0 0 Z M 256 119 L 368 90 L 256 119 L 368 90 L 368 0 L 368 0 L 384 0 L 384 0 L 384 96 L 384 96 L 384 102 L 384 102 L 378 104 L 378 104 L 256 136 L 256 136 L 256 119 L 256 119 Z M 160 40 Q 161 33 168 32 L 216 32 L 216 32 Q 223 33 224 40 L 224 240 L 224 240 L 312 240 L 320 240 L 320 256 L 320 256 L 312 256 L 64 256 L 64 240 L 64 240 L 72 240 L 160 240 L 160 40 L 160 40 Z M 176 240 L 208 240 L 176 240 L 208 240 L 208 48 L 208 48 L 176 48 L 176 48 L 176 240 L 176 240 Z M 144 320 Q 159 321 160 336 Q 159 351 144 352 Q 129 351 128 336 Q 129 321 144 320 L 144 320 Z M 80 384 Q 95 385 96 400 Q 95 415 80 416 Q 65 415 64 400 Q 65 385 80 384 L 80 384 Z M 224 336 Q 225 321 240 320 Q 255 321 256 336 Q 255 351 240 352 Q 225 351 224 336 L 224 336 Z M 192 384 Q 207 385 208 400 Q 207 415 192 416 Q 177 415 176 400 Q 177 385 192 384 L 192 384 Z M 128 464 Q 129 449 144 448 Q 159 449 160 464 Q 159 479 144 480 Q 129 479 128 464 L 128 464 Z M 240 448 Q 255 449 256 464 Q 255 479 240 480 Q 225 479 224 464 Q 225 449 240 448 L 240 448 Z M 352 464 Q 353 449 368 448 Q 383 449 384 464 Q 383 479 368 480 Q 353 479 352 464 L 352 464 Z M 304 384 Q 319 385 320 400 Q 319 415 304 416 Q 289 415 288 400 Q 289 385 304 384 L 304 384 Z M 0 464 Q 1 449 16 448 Q 31 449 32 464 Q 31 479 16 480 Q 1 479 0 464 L 0 464 Z" />
</svg>