<svg xmlns="http://www.w3.org/2000/svg" viewBox="0 0 512 448">
  <path d="M 240 52 Q 221 81 191 94 L 191 94 L 191 94 Q 161 107 127 102 L 68 92 L 68 92 Q 47 89 32 101 Q 17 114 16 135 Q 16 153 29 166 L 58 196 L 58 196 Q 80 218 80 248 Q 80 280 58 302 L 45 315 L 45 315 Q 32 327 32 344 Q 33 365 48 377 Q 62 388 83 385 L 145 371 L 145 371 Q 158 368 172 368 L 182 368 L 182 368 Q 230 368 267 398 L 298 423 L 298 423 Q 310 432 325 432 Q 343 432 356 419 Q 368 407 368 389 L 368 364 L 368 364 Q 369 332 386 307 Q 403 282 432 270 L 469 256 L 469 256 Q 495 244 496 216 Q 496 200 486 189 Q 477 178 461 175 L 433 169 L 433 169 Q 401 163 378 141 Q 355 119 347 86 L 340 55 L 340 55 Q 336 38 323 27 Q 309 16 291 16 Q 265 17 250 38 L 240 52 L 240 52 Z M 227 44 L 236 29 L 227 44 L 236 29 Q 257 1 291 0 Q 315 0 332 14 Q 350 29 356 52 L 363 83 L 363 83 Q 369 111 389 129 Q 409 148 436 154 L 464 159 L 464 159 Q 485 163 499 179 Q 512 195 512 216 Q 510 255 475 270 L 438 285 L 438 285 Q 413 295 399 316 Q 384 337 384 364 L 384 389 L 384 389 Q 383 414 367 431 Q 350 447 325 448 Q 304 448 288 435 L 257 410 L 257 410 Q 224 384 182 384 L 172 384 L 172 384 Q 160 384 148 387 L 86 400 L 86 400 Q 58 406 38 389 Q 17 373 16 344 Q 16 320 33 303 L 46 290 L 46 290 Q 64 273 64 248 Q 64 224 47 207 L 18 178 L 18 178 Q 0 160 0 135 Q 1 106 21 89 Q 42 72 70 76 L 130 86 L 130 86 Q 159 90 185 79 Q 211 68 227 44 L 227 44 Z M 166 154 L 198 186 L 166 154 L 198 186 L 203 192 L 203 192 L 198 198 L 198 198 L 166 230 L 166 230 L 160 235 L 160 235 L 154 230 L 154 230 L 122 198 L 122 198 L 117 192 L 117 192 L 122 186 L 122 186 L 154 154 L 154 154 L 160 149 L 160 149 L 166 154 L 166 154 Z M 160 213 L 181 192 L 160 213 L 181 192 L 160 171 L 160 171 L 139 192 L 139 192 L 160 213 L 160 213 Z M 288 245 L 294 250 L 288 245 L 294 250 L 326 282 L 326 282 L 331 288 L 331 288 L 326 294 L 326 294 L 294 326 L 294 326 L 288 332 L 288 332 L 282 326 L 282 326 L 250 294 L 250 294 L 245 288 L 245 288 L 250 282 L 250 282 L 282 250 L 282 250 L 288 245 L 288 245 Z M 267 288 L 288 309 L 267 288 L 288 309 L 309 288 L 309 288 L 288 267 L 288 267 L 267 288 L 267 288 Z M 304 200 L 280 176 L 304 200 L 280 176 L 304 152 L 304 152 L 328 176 L 328 176 L 304 200 L 304 200 Z" />
</svg>