<svg xmlns="http://www.w3.org/2000/svg" viewBox="0 0 448 512">
  <path d="M 56 0 Q 32 1 16 16 L 16 16 L 16 16 Q 1 32 0 56 L 0 456 L 0 456 Q 1 480 16 496 Q 32 511 56 512 L 440 512 L 448 512 L 448 496 L 448 496 L 440 496 L 416 496 L 416 416 L 416 416 L 440 416 L 448 416 L 448 408 L 448 408 L 448 8 L 448 8 L 448 0 L 448 0 L 440 0 L 56 0 Z M 400 416 L 400 496 L 400 416 L 400 496 L 56 496 L 56 496 Q 39 496 28 484 Q 16 473 16 456 Q 16 439 28 428 Q 39 416 56 416 L 400 416 L 400 416 Z M 56 400 Q 32 401 16 417 L 16 56 L 16 56 Q 16 39 28 28 Q 39 16 56 16 L 432 16 L 432 16 L 432 400 L 432 400 L 56 400 L 56 400 Z M 288 150 L 281 165 L 288 150 L 281 165 L 253 221 L 253 221 L 196 249 L 196 249 L 182 256 L 182 256 L 197 263 L 197 263 L 253 291 L 253 291 L 281 348 L 281 348 L 288 362 L 288 362 L 295 348 L 295 348 L 323 291 L 323 291 L 380 263 L 380 263 L 394 256 L 394 256 L 380 249 L 380 249 L 323 221 L 323 221 L 295 165 L 295 165 L 288 150 L 288 150 Z M 288 186 L 310 231 L 288 186 L 310 231 L 311 233 L 311 233 L 313 234 L 313 234 L 358 256 L 358 256 L 313 278 L 313 278 L 311 279 L 311 279 L 310 281 L 310 281 L 288 326 L 288 326 L 266 281 L 266 281 L 265 279 L 265 279 L 263 278 L 263 278 L 218 256 L 218 256 L 263 234 L 263 234 L 265 233 L 265 233 L 266 231 L 266 231 L 288 186 L 288 186 Z M 175 76 L 168 65 L 175 76 L 168 65 L 161 76 L 161 76 L 141 109 L 141 109 L 108 129 L 108 129 L 97 136 L 97 136 L 108 143 L 108 143 L 141 163 L 141 163 L 161 196 L 161 196 L 168 207 L 168 207 L 175 196 L 175 196 L 195 163 L 195 163 L 228 143 L 228 143 L 239 136 L 239 136 L 228 129 L 228 129 L 195 109 L 195 109 L 175 76 L 175 76 Z M 154 119 L 168 95 L 154 119 L 168 95 L 183 119 L 183 119 L 184 121 L 184 121 L 185 122 L 185 122 L 209 136 L 209 136 L 185 151 L 185 151 L 183 152 L 183 152 L 182 153 L 182 153 L 168 177 L 168 177 L 154 153 L 154 153 L 153 151 L 153 151 L 151 150 L 151 150 L 127 136 L 127 136 L 151 122 L 151 122 L 153 121 L 153 121 L 154 119 L 154 119 Z" />
</svg>