<svg xmlns="http://www.w3.org/2000/svg" viewBox="0 0 448 512">
  <path d="M 16 224 Q 16 167 44 120 L 44 120 L 44 120 Q 71 73 120 44 Q 169 16 224 16 Q 279 16 328 44 Q 377 73 404 120 Q 432 167 432 224 Q 432 281 404 328 Q 377 375 328 404 Q 279 432 224 432 Q 169 432 120 404 Q 71 375 44 328 Q 16 281 16 224 L 16 224 Z M 432 307 L 432 496 L 432 307 L 432 496 L 16 496 L 16 496 L 16 307 L 16 307 Q 42 370 97 409 Q 152 447 224 448 Q 296 447 351 409 Q 406 370 432 307 L 432 307 Z M 0 224 L 0 504 L 0 224 L 0 504 L 0 512 L 0 512 L 8 512 L 448 512 L 448 504 L 448 504 L 448 224 L 448 224 Q 447 161 417 111 Q 388 60 337 31 Q 287 1 224 0 Q 161 1 111 31 Q 60 60 31 111 Q 1 161 0 224 L 0 224 Z M 232 96 L 216 96 L 232 96 L 216 96 L 216 104 L 216 104 L 216 224 L 216 224 L 216 227 L 216 227 L 218 230 L 218 230 L 274 286 L 274 286 L 280 291 L 280 291 L 291 280 L 291 280 L 286 274 L 286 274 L 232 221 L 232 221 L 232 104 L 232 104 L 232 96 L 232 96 Z" />
</svg>