<svg xmlns="http://www.w3.org/2000/svg" viewBox="0 0 576 448">
  <path d="M 8 0 L 0 0 L 8 0 L 0 0 L 0 16 L 0 16 L 8 16 L 88 16 L 88 112 L 88 112 L 8 112 L 0 112 L 0 128 L 0 128 L 8 128 L 576 128 L 576 112 L 576 112 L 568 112 L 488 112 L 488 16 L 488 16 L 568 16 L 576 16 L 576 0 L 576 0 L 568 0 L 8 0 Z M 472 16 L 472 112 L 472 16 L 472 112 L 360 112 L 360 112 L 360 16 L 360 16 L 472 16 L 472 16 Z M 344 16 L 344 112 L 344 16 L 344 112 L 232 112 L 232 112 L 232 16 L 232 16 L 344 16 L 344 16 Z M 216 16 L 216 112 L 216 16 L 216 112 L 104 112 L 104 112 L 104 16 L 104 16 L 216 16 L 216 16 Z M 8 224 L 0 224 L 8 224 L 0 224 L 0 240 L 0 240 L 8 240 L 32 240 Q 63 241 83 261 Q 103 281 104 312 L 104 440 L 104 440 L 104 448 L 104 448 L 112 448 L 216 448 L 216 440 L 216 440 L 216 312 L 216 312 Q 217 281 237 261 Q 257 241 288 240 Q 319 241 339 261 Q 359 281 360 312 L 360 440 L 360 440 L 360 448 L 360 448 L 368 448 L 472 448 L 472 440 L 472 440 L 472 312 L 472 312 Q 473 281 493 261 Q 513 241 544 240 L 568 240 L 576 240 L 576 224 L 576 224 L 568 224 L 544 224 Q 507 225 482 250 Q 457 275 456 312 L 456 432 L 456 432 L 376 432 L 376 432 L 376 312 L 376 312 Q 375 275 350 250 Q 325 225 288 224 Q 251 225 226 250 Q 201 275 200 312 L 200 432 L 200 432 L 120 432 L 120 432 L 120 312 L 120 312 Q 119 275 94 250 Q 69 225 32 224 L 8 224 L 8 224 Z" />
</svg>