<svg xmlns="http://www.w3.org/2000/svg" viewBox="0 0 640 479">
  <path d="M 168 19 L 182 105 L 168 19 L 182 105 L 268 119 L 268 119 L 273 120 L 273 120 L 287 122 L 287 122 L 277 132 L 277 132 L 273 136 L 273 136 L 213 196 L 213 196 L 211 199 L 211 199 L 207 198 L 207 198 L 133 186 L 133 186 L 91 254 L 91 254 Q 80 271 86 290 Q 97 317 127 319 L 128 319 L 128 319 Q 144 319 156 308 L 260 219 L 260 219 Q 313 174 377 151 Q 441 127 510 127 L 624 127 L 640 127 L 640 143 L 640 143 L 640 463 L 640 463 L 640 479 L 640 479 L 624 479 L 162 479 Q 93 477 48 431 Q 2 386 0 317 Q 1 255 44 211 L 101 154 L 101 154 L 89 80 L 89 80 L 88 77 L 88 77 L 91 74 L 91 74 L 151 14 L 151 14 L 155 10 L 155 10 L 165 0 L 165 0 L 167 14 L 167 14 L 168 19 L 168 19 Z M 180 121 L 168 119 L 180 121 L 168 119 L 166 107 L 166 107 L 154 33 L 154 33 L 105 82 L 105 82 L 117 151 L 117 151 L 118 159 L 118 159 L 113 165 L 113 165 L 55 223 L 55 223 Q 17 262 16 317 Q 18 379 59 420 Q 100 461 162 463 L 624 463 L 624 463 L 624 143 L 624 143 L 510 143 L 510 143 Q 444 143 382 166 Q 321 189 271 232 L 167 321 L 167 321 Q 150 335 128 335 L 127 335 L 127 335 Q 107 335 92 324 Q 77 313 71 295 Q 63 269 77 246 L 120 177 L 120 177 L 125 168 L 125 168 L 136 170 L 136 170 L 205 182 L 205 182 L 254 133 L 254 133 L 180 121 L 180 121 Z M 400 287 Q 415 288 416 303 Q 415 318 400 319 Q 385 318 384 303 Q 385 288 400 287 L 400 287 Z" />
</svg>