<svg xmlns="http://www.w3.org/2000/svg" viewBox="0 0 384 448">
  <path d="M 323 0 Q 301 0 283 12 L 283 12 L 283 12 Q 265 24 256 45 L 190 208 L 190 208 L 32 208 L 32 208 L 32 224 L 32 224 L 183 224 L 183 224 L 113 397 L 113 397 Q 97 430 61 432 L 8 432 L 0 432 L 0 448 L 0 448 L 8 448 L 61 448 Q 83 448 101 436 Q 119 424 128 403 L 201 224 L 201 224 L 352 224 L 352 224 L 352 208 L 352 208 L 207 208 L 207 208 L 271 51 L 271 51 Q 287 18 323 16 L 376 16 L 384 16 L 384 0 L 384 0 L 376 0 L 323 0 Z" />
</svg>