<svg xmlns="http://www.w3.org/2000/svg" viewBox="0 0 504 448">
  <path d="M 8 0 L 0 0 L 8 0 L 0 0 L 0 16 L 0 16 L 8 16 L 36 16 L 166 192 L 166 192 L 36 368 L 36 368 L 8 368 L 0 368 L 0 384 L 0 384 L 8 384 L 44 384 L 46 381 L 46 381 L 176 206 L 176 206 L 306 381 L 306 381 L 308 384 L 308 384 L 312 384 L 352 384 L 352 368 L 352 368 L 344 368 L 316 368 L 186 192 L 186 192 L 316 16 L 316 16 L 344 16 L 352 16 L 352 0 L 352 0 L 344 0 L 308 0 L 306 3 L 306 3 L 176 179 L 176 179 L 46 3 L 46 3 L 44 0 L 44 0 L 40 0 L 8 0 Z M 424 288 L 416 288 L 424 288 L 416 288 L 416 304 L 416 304 L 424 304 L 448 304 L 448 432 L 448 432 L 416 432 L 416 432 L 416 448 L 416 448 L 456 448 L 504 448 L 504 432 L 504 432 L 496 432 L 464 432 L 464 296 L 464 296 L 464 288 L 464 288 L 456 288 L 424 288 Z" />
</svg>