<svg xmlns="http://www.w3.org/2000/svg" viewBox="0 0 384 512">
  <path d="M 227 144 L 253 16 L 227 144 L 253 16 L 256 0 L 256 0 L 240 0 L 32 0 L 2 272 L 2 272 L 0 288 L 0 288 L 16 288 L 176 288 L 173 304 L 173 304 L 135 479 L 135 479 L 128 512 L 128 512 L 150 486 L 150 486 L 384 208 L 384 208 L 384 176 L 384 176 L 384 160 L 384 160 L 368 160 L 224 160 L 227 144 L 227 144 Z M 368 176 L 368 202 L 368 176 L 368 202 L 157 453 L 157 453 L 192 291 L 192 291 L 196 272 L 196 272 L 176 272 L 18 272 L 46 16 L 46 16 L 237 16 L 237 16 L 208 157 L 208 157 L 205 176 L 205 176 L 224 176 L 368 176 Z" />
</svg>