<svg xmlns="http://www.w3.org/2000/svg" viewBox="0 0 384 521">
  <path d="M 208 73 Q 209 46 232 31 Q 256 19 280 31 Q 303 46 304 73 Q 303 100 280 115 Q 256 127 232 115 Q 209 100 208 73 L 208 73 Z M 320 73 Q 319 37 288 18 Q 256 0 224 18 Q 193 37 192 73 Q 193 109 224 128 Q 256 146 288 128 Q 319 109 320 73 L 320 73 Z M 125 153 L 120 153 L 125 153 L 120 153 L 118 157 L 118 157 L 48 290 L 48 290 Q 33 320 40 351 Q 47 381 73 402 L 127 441 L 127 441 L 8 441 L 0 441 L 0 449 L 0 449 L 0 513 L 0 513 L 0 521 L 0 521 L 8 521 L 248 521 L 250 516 L 250 516 L 270 454 L 270 454 L 272 449 L 272 449 L 267 445 L 267 445 L 156 363 L 156 363 L 201 273 L 201 273 L 244 332 L 244 332 L 249 339 L 249 339 L 255 333 L 255 333 L 378 233 L 378 233 L 384 228 L 384 228 L 379 221 L 379 221 L 339 172 L 339 172 L 334 166 L 334 166 L 328 171 L 328 171 L 263 223 L 263 223 L 215 156 L 215 156 L 212 153 L 212 153 L 208 153 L 125 153 Z M 62 297 L 130 169 L 62 297 L 130 169 L 204 169 L 204 169 L 256 240 L 256 240 L 261 246 L 261 246 L 267 241 L 267 241 L 332 188 L 332 188 L 362 225 L 362 225 L 252 316 L 252 316 L 206 253 L 206 253 L 198 242 L 198 242 L 192 254 L 192 254 L 138 362 L 138 362 L 135 368 L 135 368 L 141 372 L 141 372 L 253 455 L 253 455 L 236 505 L 236 505 L 16 505 L 16 505 L 16 457 L 16 457 L 151 457 L 175 457 L 156 443 L 156 443 L 83 389 L 83 389 Q 61 372 56 347 Q 50 322 62 297 L 62 297 Z" />
</svg>