<svg xmlns="http://www.w3.org/2000/svg" viewBox="0 0 640 512">
  <path d="M 40 0 L 32 0 L 40 0 L 32 0 L 32 8 L 32 8 L 32 40 L 32 40 L 32 48 L 32 48 L 48 48 L 48 48 L 48 40 L 48 40 L 48 16 L 48 16 L 464 16 L 464 16 L 464 40 L 464 40 L 464 48 L 464 48 L 480 48 L 480 48 L 480 40 L 480 40 L 480 8 L 480 8 L 480 0 L 480 0 L 472 0 L 40 0 Z M 16 80 L 16 88 L 16 80 L 16 88 L 16 120 L 16 120 L 16 128 L 16 128 L 32 128 L 32 128 L 32 120 L 32 120 L 32 96 L 32 96 L 480 96 L 480 96 L 480 120 L 480 120 L 480 128 L 480 128 L 496 128 L 496 128 L 496 120 L 496 120 L 496 88 L 496 88 L 496 80 L 496 80 L 488 80 L 16 80 Z M 54 496 L 18 176 L 54 496 L 18 176 L 494 176 L 494 176 L 492 192 L 492 192 Q 493 192 494 192 Q 495 192 496 192 Q 502 192 508 192 L 510 176 L 510 176 L 512 160 L 512 160 L 496 160 L 0 160 L 2 176 L 2 176 L 40 512 L 40 512 L 395 512 L 395 512 Q 384 505 375 496 L 54 496 L 54 496 Z M 256 208 Q 181 209 132 247 L 132 247 L 132 247 Q 82 284 80 340 Q 82 396 132 433 Q 181 471 256 472 Q 304 472 343 455 Q 339 448 336 441 Q 300 456 256 456 Q 186 455 141 421 Q 97 387 96 340 Q 97 293 141 260 Q 186 226 256 224 Q 319 225 362 254 Q 368 247 373 242 Q 325 209 256 208 L 256 208 Z M 282 369 Q 294 361 296 344 Q 294 327 282 319 Q 270 312 256 312 Q 242 312 230 319 Q 218 327 216 344 Q 218 361 230 369 Q 242 376 256 376 Q 270 376 282 369 L 282 369 Z M 256 360 Q 234 359 232 344 Q 234 329 256 328 Q 278 329 280 344 Q 278 359 256 360 L 256 360 Z M 573 471 Q 540 495 496 496 Q 452 495 420 471 L 452 432 L 452 432 L 540 432 L 540 432 L 572 471 L 573 471 Z M 585 460 L 550 419 L 585 460 L 550 419 L 548 416 L 548 416 L 544 416 L 444 416 L 442 419 L 442 419 L 407 460 L 407 460 Q 369 424 368 368 Q 369 314 405 277 Q 442 241 496 240 Q 550 241 587 277 Q 623 314 624 368 Q 623 424 585 460 L 585 460 Z M 640 368 Q 640 329 621 296 L 621 296 L 621 296 Q 602 263 568 243 Q 534 224 496 224 Q 458 224 424 243 Q 390 263 371 296 Q 352 329 352 368 Q 352 407 371 440 Q 390 473 424 493 Q 458 512 496 512 Q 534 512 568 493 Q 602 473 621 440 Q 640 407 640 368 L 640 368 Z M 496 304 Q 510 304 519 313 L 519 313 L 519 313 Q 528 322 528 336 Q 528 350 519 359 Q 510 368 496 368 Q 482 368 473 359 Q 464 350 464 336 Q 464 322 473 313 Q 482 304 496 304 L 496 304 Z M 496 384 Q 523 383 538 360 Q 550 336 538 312 Q 523 289 496 288 Q 469 289 454 312 Q 442 336 454 360 Q 469 383 496 384 L 496 384 Z" />
</svg>