<svg xmlns="http://www.w3.org/2000/svg" viewBox="0 0 509 509">
  <path d="M 376 331 Q 415 278 416 208 Q 414 120 355 61 Q 296 2 208 0 Q 120 2 61 61 Q 2 120 0 208 Q 2 296 61 355 Q 120 414 208 416 Q 278 415 331 376 L 441 487 L 441 487 L 464 509 L 464 509 L 509 464 L 509 464 L 487 441 L 487 441 L 376 331 L 376 331 Z M 146 116 L 170 130 L 146 116 L 170 130 L 280 194 L 280 194 L 304 208 L 304 208 L 280 222 L 280 222 L 170 286 L 170 286 L 146 300 L 146 300 L 146 272 L 146 272 L 146 144 L 146 144 L 146 116 L 146 116 Z" />
</svg>