<svg xmlns="http://www.w3.org/2000/svg" viewBox="0 0 640 512">
  <path d="M 578 324 Q 607 270 608 192 Q 607 114 578 60 Q 564 34 543 17 Q 522 1 496 0 Q 494 0 492 0 L 492 0 L 492 0 L 160 0 L 160 0 Q 142 0 127 12 L 140 22 L 140 22 Q 150 16 160 16 L 450 16 L 450 16 Q 429 33 414 60 Q 385 114 384 192 L 384 193 L 384 193 Q 384 204 384 215 L 400 227 L 400 227 Q 400 209 400 192 Q 401 125 423 78 Q 445 30 480 18 Q 488 16 496 16 Q 537 18 564 68 Q 591 117 592 192 Q 592 240 579 280 Q 567 319 546 343 L 558 352 L 558 352 Q 569 340 578 324 L 578 324 Z M 371 388 Q 362 439 343 486 Q 343 486 343 486 L 339 496 L 339 496 L 32 496 L 32 496 L 41 474 L 41 474 Q 41 474 41 474 L 41 474 L 41 474 Q 67 407 74 333 Q 81 260 80 192 Q 80 175 81 159 L 67 148 L 67 148 Q 64 169 64 192 Q 65 260 58 332 Q 51 403 26 468 L 15 496 L 15 496 L 8 512 L 8 512 L 25 512 L 349 512 L 358 492 L 358 492 Q 376 448 385 399 L 371 388 L 371 388 Z M 496 264 Q 509 263 517 255 Q 524 248 528 238 Q 536 218 536 192 Q 536 166 528 146 Q 524 136 517 129 Q 509 121 496 120 Q 483 121 475 129 Q 468 136 464 146 Q 456 166 456 192 Q 456 218 464 238 Q 468 248 475 255 Q 483 263 496 264 L 496 264 Z M 520 192 Q 520 216 513 232 L 513 232 L 513 232 Q 506 247 496 248 Q 486 247 479 232 Q 472 216 472 192 Q 472 168 479 152 Q 486 137 496 136 Q 506 137 513 152 Q 520 168 520 192 L 520 192 Z M 16 5 L 10 0 L 16 5 L 10 0 L 0 13 L 0 13 L 6 18 L 6 18 L 624 507 L 624 507 L 630 512 L 630 512 L 640 500 L 640 500 L 634 495 L 634 495 L 16 5 L 16 5 Z" />
</svg>