<svg xmlns="http://www.w3.org/2000/svg" viewBox="0 0 640 448">
  <path d="M 16 8 L 16 0 L 16 8 L 16 0 L 0 0 L 0 0 L 0 8 L 0 8 L 0 48 L 0 48 L 0 64 L 0 64 L 0 256 L 0 256 L 0 272 L 0 272 L 0 440 L 0 440 L 0 448 L 0 448 L 16 448 L 16 448 L 16 440 L 16 440 L 16 272 L 16 272 L 624 272 L 624 272 L 624 440 L 624 440 L 624 448 L 624 448 L 640 448 L 640 448 L 640 440 L 640 440 L 640 272 L 640 272 L 640 256 L 640 256 L 640 64 L 640 64 L 640 48 L 640 48 L 640 8 L 640 8 L 640 0 L 640 0 L 624 0 L 624 0 L 624 8 L 624 8 L 624 48 L 624 48 L 16 48 L 16 48 L 16 8 L 16 8 Z M 16 64 L 119 64 L 16 64 L 119 64 L 25 252 L 25 252 L 23 256 L 23 256 L 16 256 L 16 256 L 16 64 L 16 64 Z M 624 64 L 624 256 L 624 64 L 624 256 L 521 256 L 521 256 L 615 68 L 615 68 L 617 64 L 617 64 L 624 64 L 624 64 Z M 457 64 L 599 64 L 457 64 L 599 64 L 505 252 L 505 252 L 503 256 L 503 256 L 361 256 L 361 256 L 455 68 L 455 68 L 457 64 L 457 64 Z M 279 64 L 185 252 L 279 64 L 185 252 L 183 256 L 183 256 L 41 256 L 41 256 L 135 68 L 135 68 L 137 64 L 137 64 L 279 64 L 279 64 Z M 297 64 L 439 64 L 297 64 L 439 64 L 345 252 L 345 252 L 343 256 L 343 256 L 201 256 L 201 256 L 295 68 L 295 68 L 297 64 L 297 64 Z" />
</svg>