<svg xmlns="http://www.w3.org/2000/svg" viewBox="0 0 513 513">
  <path d="M 349 17 Q 410 17 454 59 Q 496 103 496 164 Q 496 202 480 239 Q 464 276 434 307 Q 377 361 307 368 Q 237 375 186 327 Q 144 283 144 222 Q 144 184 160 147 Q 176 110 206 79 Q 237 49 274 33 Q 311 17 349 17 L 349 17 Z M 349 1 Q 308 1 268 18 L 268 18 L 268 18 Q 228 35 195 68 Q 162 101 145 141 Q 128 181 128 222 Q 128 284 169 333 L 138 363 L 138 363 L 115 340 L 115 340 L 104 329 L 104 329 L 93 340 L 93 340 L 11 422 L 11 422 L 0 433 L 0 433 L 11 444 L 11 444 L 69 502 L 69 502 L 80 513 L 80 513 L 91 502 L 91 502 L 173 420 L 173 420 L 184 409 L 184 409 L 173 398 L 173 398 L 150 375 L 150 375 L 180 344 L 180 344 Q 238 393 312 384 Q 387 375 445 318 Q 478 285 495 245 Q 512 205 512 164 Q 513 97 465 48 Q 416 0 349 1 L 349 1 Z M 104 352 L 161 409 L 104 352 L 161 409 L 80 490 L 80 490 L 23 433 L 23 433 L 104 352 L 104 352 Z" />
</svg>