<svg xmlns="http://www.w3.org/2000/svg" viewBox="0 0 512 448">
  <path d="M 72 344 L 76 335 L 72 344 L 76 335 L 68 328 L 68 328 Q 17 276 16 208 Q 18 128 85 73 Q 152 18 256 16 Q 360 18 427 73 Q 494 128 496 208 Q 494 288 427 343 Q 360 398 256 400 Q 211 400 171 388 L 166 386 L 166 386 L 162 388 L 162 388 L 42 423 L 42 423 L 72 344 L 72 344 Z M 16 448 L 35 442 L 16 448 L 35 442 L 166 403 L 166 403 Q 209 416 256 416 Q 328 415 385 388 Q 443 360 477 313 Q 511 266 512 208 Q 511 150 477 103 Q 443 56 385 28 Q 328 1 256 0 Q 184 1 127 28 Q 69 56 35 103 Q 1 150 0 208 Q 2 284 57 339 L 23 429 L 23 429 L 16 448 L 16 448 Z M 192 176 Q 207 175 208 160 Q 207 145 192 144 Q 177 145 176 160 Q 177 175 192 176 L 192 176 Z M 320 176 Q 335 175 336 160 Q 335 145 320 144 Q 305 145 304 160 Q 305 175 320 176 L 320 176 Z M 167 245 L 155 255 L 167 245 L 155 255 L 161 261 L 161 261 Q 197 302 256 304 Q 315 302 351 261 L 357 255 L 357 255 L 345 245 L 345 245 L 340 251 L 340 251 Q 307 287 256 288 Q 205 287 173 251 L 167 245 L 167 245 Z" />
</svg>