<svg xmlns="http://www.w3.org/2000/svg" viewBox="0 0 640 512">
  <path d="M 176 72 L 160 72 L 176 72 L 128 72 L 128 56 L 128 56 L 128 16 L 128 16 L 96 16 L 96 16 L 96 56 L 96 56 L 96 72 L 96 72 L 80 72 L 48 72 L 48 56 L 48 56 L 48 16 L 48 16 L 16 16 L 16 16 L 16 56 L 16 56 L 16 128 L 16 128 L 16 176 L 16 176 L 208 176 L 208 176 L 208 128 L 208 128 L 208 56 L 208 56 L 208 16 L 208 16 L 176 16 L 176 16 L 176 56 L 176 56 L 176 72 L 176 72 Z M 48 0 L 64 0 L 48 0 L 64 0 L 64 16 L 64 16 L 64 40 L 64 40 L 64 56 L 64 56 L 80 56 L 80 56 L 80 40 L 80 40 L 80 16 L 80 16 L 80 0 L 80 0 L 96 0 L 144 0 L 144 16 L 144 16 L 144 40 L 144 40 L 144 56 L 144 56 L 160 56 L 160 56 L 160 40 L 160 40 L 160 16 L 160 16 L 160 0 L 160 0 L 176 0 L 224 0 L 224 16 L 224 16 L 224 56 L 224 56 L 224 128 L 224 128 L 224 176 L 224 176 L 224 192 L 224 192 L 208 192 L 192 192 L 192 208 L 192 208 L 448 208 L 448 208 L 448 192 L 448 192 L 432 192 L 416 192 L 416 176 L 416 176 L 416 128 L 416 128 L 416 56 L 416 56 L 416 16 L 416 16 L 416 0 L 416 0 L 432 0 L 480 0 L 480 16 L 480 16 L 480 40 L 480 40 L 480 56 L 480 56 L 496 56 L 496 56 L 496 40 L 496 40 L 496 16 L 496 16 L 496 0 L 496 0 L 512 0 L 560 0 L 560 16 L 560 16 L 560 40 L 560 40 L 560 56 L 560 56 L 576 56 L 576 56 L 576 40 L 576 40 L 576 16 L 576 16 L 576 0 L 576 0 L 592 0 L 640 0 L 640 16 L 640 16 L 640 56 L 640 56 L 640 128 L 640 128 L 640 176 L 640 176 L 640 192 L 640 192 L 624 192 L 608 192 L 608 504 L 608 504 L 608 512 L 608 512 L 600 512 L 32 512 L 32 504 L 32 504 L 32 192 L 32 192 L 16 192 L 0 192 L 0 176 L 0 176 L 0 128 L 0 128 L 0 56 L 0 56 L 0 16 L 0 16 L 0 0 L 0 0 L 16 0 L 48 0 Z M 448 224 L 192 224 L 448 224 L 192 224 L 192 496 L 192 496 L 240 496 L 240 496 L 240 392 L 240 392 Q 241 358 263 335 Q 286 313 320 312 Q 354 313 377 335 Q 399 358 400 392 L 400 496 L 400 496 L 448 496 L 448 496 L 448 224 L 448 224 Z M 176 192 L 48 192 L 176 192 L 48 192 L 48 496 L 48 496 L 176 496 L 176 496 L 176 192 L 176 192 Z M 272 496 L 368 496 L 272 496 L 384 496 L 384 480 L 384 480 L 384 392 L 384 392 Q 383 365 365 347 Q 347 329 320 328 Q 293 329 275 347 Q 257 365 256 392 L 256 480 L 256 480 L 256 496 L 256 496 L 272 496 L 272 496 Z M 592 496 L 592 192 L 592 496 L 592 192 L 464 192 L 464 192 L 464 496 L 464 496 L 592 496 L 592 496 Z M 464 72 L 464 56 L 464 72 L 464 56 L 464 16 L 464 16 L 432 16 L 432 16 L 432 56 L 432 56 L 432 128 L 432 128 L 432 176 L 432 176 L 624 176 L 624 176 L 624 128 L 624 128 L 624 56 L 624 56 L 624 16 L 624 16 L 592 16 L 592 16 L 592 56 L 592 56 L 592 72 L 592 72 L 576 72 L 544 72 L 544 56 L 544 56 L 544 16 L 544 16 L 512 16 L 512 16 L 512 56 L 512 56 L 512 72 L 512 72 L 496 72 L 464 72 Z" />
</svg>