<svg xmlns="http://www.w3.org/2000/svg" viewBox="0 0 520 512">
  <path d="M 352 0 L 352 8 L 352 0 L 352 8 L 352 72 L 352 72 L 416 72 L 424 72 L 424 88 L 424 88 L 416 88 L 352 88 L 352 152 L 352 152 L 352 160 L 352 160 L 336 160 L 336 160 L 336 152 L 336 152 L 336 88 L 336 88 L 272 88 L 264 88 L 264 72 L 264 72 L 272 72 L 336 72 L 336 8 L 336 8 L 336 0 L 336 0 L 352 0 L 352 0 Z M 464 152 L 464 160 L 464 152 L 464 160 L 464 208 L 464 208 L 512 208 L 520 208 L 520 224 L 520 224 L 512 224 L 464 224 L 464 272 L 464 272 L 464 280 L 464 280 L 448 280 L 448 280 L 448 272 L 448 272 L 448 224 L 448 224 L 400 224 L 392 224 L 392 208 L 392 208 L 400 208 L 448 208 L 448 160 L 448 160 L 448 152 L 448 152 L 464 152 L 464 152 Z M 202 162 L 253 265 L 202 162 L 253 265 L 367 282 L 367 282 L 387 285 L 387 285 L 373 299 L 373 299 L 290 379 L 290 379 L 310 492 L 310 492 L 313 512 L 313 512 L 295 503 L 295 503 L 194 449 L 194 449 L 92 503 L 92 503 L 74 512 L 74 512 L 77 492 L 77 492 L 97 379 L 97 379 L 14 299 L 14 299 L 0 285 L 0 285 L 20 282 L 20 282 L 134 265 L 134 265 L 185 162 L 185 162 L 193 144 L 193 144 L 202 162 L 202 162 Z M 251 281 L 243 280 L 251 281 L 243 280 L 239 272 L 239 272 L 194 180 L 194 180 L 148 272 L 148 272 L 144 280 L 144 280 L 136 281 L 136 281 L 34 296 L 34 296 L 108 367 L 108 367 L 114 373 L 114 373 L 113 382 L 113 382 L 95 483 L 95 483 L 186 435 L 186 435 L 193 431 L 193 431 L 201 435 L 201 435 L 292 483 L 292 483 L 274 382 L 274 382 L 273 373 L 273 373 L 279 367 L 279 367 L 353 296 L 353 296 L 251 281 L 251 281 Z" />
</svg>