<svg xmlns="http://www.w3.org/2000/svg" viewBox="0 0 640 512">
  <path d="M 52 284 L 57 275 L 52 284 L 57 275 L 50 267 L 50 267 Q 17 227 16 176 Q 18 110 71 64 Q 125 18 208 16 Q 291 18 345 64 Q 398 110 400 176 Q 398 242 345 288 Q 291 334 208 336 Q 157 336 115 316 L 110 314 L 110 314 L 105 315 L 105 315 L 29 330 L 29 330 L 52 284 L 52 284 Z M 0 352 L 20 348 L 0 352 L 20 348 L 108 330 L 108 330 Q 153 352 208 352 Q 296 350 355 300 Q 414 251 416 176 Q 414 101 355 52 Q 296 2 208 0 Q 120 2 61 52 Q 2 101 0 176 Q 1 233 38 277 L 9 334 L 9 334 L 0 352 L 0 352 Z M 432 512 Q 487 512 532 490 L 620 508 L 620 508 L 640 512 L 640 512 L 631 494 L 631 494 L 602 437 L 602 437 Q 639 393 640 336 Q 638 265 584 216 Q 530 167 447 161 Q 448 168 448 176 L 448 177 L 448 177 Q 525 183 574 228 Q 622 273 624 336 Q 623 387 590 427 L 583 435 L 583 435 L 588 444 L 588 444 L 611 490 L 611 490 L 535 475 L 535 475 L 530 474 L 530 474 L 525 476 L 525 476 Q 483 496 432 496 Q 364 495 315 463 Q 266 431 248 381 Q 240 382 232 383 Q 251 440 305 475 Q 359 511 432 512 L 432 512 Z" />
</svg>