<svg xmlns="http://www.w3.org/2000/svg" viewBox="0 0 384 448">
  <path d="M 200 0 L 184 0 L 200 0 L 184 0 L 184 64 L 184 64 Q 105 69 54 123 Q 2 177 0 256 L 0 440 L 0 440 L 0 448 L 0 448 L 16 448 L 16 448 L 16 440 L 16 440 L 16 256 L 16 256 Q 18 183 65 134 Q 112 85 184 80 L 184 448 L 184 448 L 200 448 L 200 448 L 200 80 L 200 80 Q 272 85 319 134 Q 366 183 368 256 L 368 440 L 368 440 L 368 448 L 368 448 L 384 448 L 384 448 L 384 440 L 384 440 L 384 256 L 384 256 Q 382 177 330 123 Q 279 69 200 64 L 200 0 L 200 0 Z" />
</svg>