<svg xmlns="http://www.w3.org/2000/svg" viewBox="0 0 640 512">
  <path d="M 32 10 L 20 0 L 32 10 L 20 0 L 0 25 L 0 25 L 13 35 L 13 35 L 608 502 L 608 502 L 620 512 L 620 512 L 640 487 L 640 487 L 628 477 L 628 477 L 32 10 L 32 10 Z M 500 480 L 448 439 L 500 480 L 448 439 L 448 448 L 448 448 L 192 448 L 192 448 L 192 352 L 192 352 L 192 256 L 192 256 L 192 240 L 192 240 L 160 240 L 96 240 L 96 176 L 96 176 L 96 161 L 96 161 L 64 135 L 64 135 L 64 448 L 64 448 L 64 480 L 64 480 L 96 480 L 500 480 Z M 140 32 L 192 73 L 140 32 L 192 73 L 192 64 L 192 64 L 448 64 L 448 64 L 448 160 L 448 160 L 448 256 L 448 256 L 448 272 L 448 272 L 480 272 L 544 272 L 544 336 L 544 336 L 544 351 L 544 351 L 576 377 L 576 377 L 576 64 L 576 64 L 576 32 L 576 32 L 544 32 L 140 32 Z M 160 448 L 96 448 L 160 448 L 96 448 L 96 368 L 96 368 L 160 368 L 160 368 L 160 448 L 160 448 Z M 96 336 L 96 272 L 96 336 L 96 272 L 160 272 L 160 272 L 160 336 L 160 336 L 96 336 L 96 336 Z M 480 176 L 544 176 L 480 176 L 544 176 L 544 240 L 544 240 L 480 240 L 480 240 L 480 176 L 480 176 Z M 544 144 L 480 144 L 544 144 L 480 144 L 480 64 L 480 64 L 544 64 L 544 64 L 544 144 L 544 144 Z" />
</svg>