<svg xmlns="http://www.w3.org/2000/svg" viewBox="0 0 640 512">
  <path d="M 323 350 L 216 458 L 323 350 L 216 458 L 86 490 L 86 490 L 119 360 L 119 360 L 214 264 L 214 264 L 202 254 L 202 254 L 104 352 L 104 352 L 68 494 L 68 494 L 64 512 L 64 512 L 82 508 L 82 508 L 224 472 L 224 472 L 336 360 L 336 360 L 323 350 L 323 350 Z M 445 11 L 304 152 L 445 11 L 304 152 L 317 162 L 317 162 L 378 101 L 378 101 L 475 198 L 475 198 L 426 248 L 426 248 L 438 258 L 438 258 L 565 131 L 565 131 L 576 120 L 576 120 L 565 109 L 565 109 L 467 11 L 467 11 L 456 0 L 456 0 L 445 11 L 445 11 Z M 486 187 L 389 90 L 486 187 L 389 90 L 456 23 L 456 23 L 553 120 L 553 120 L 486 187 L 486 187 Z M 16 5 L 10 0 L 16 5 L 10 0 L 0 13 L 0 13 L 6 18 L 6 18 L 624 507 L 624 507 L 630 512 L 630 512 L 640 500 L 640 500 L 634 495 L 634 495 L 16 5 L 16 5 Z" />
</svg>