<svg xmlns="http://www.w3.org/2000/svg" viewBox="0 0 448 448">
  <path d="M 16 16 L 16 432 L 16 16 L 16 432 L 432 432 L 432 432 L 432 16 L 432 16 L 16 16 L 16 16 Z M 0 0 L 16 0 L 0 0 L 448 0 L 448 16 L 448 16 L 448 432 L 448 432 L 448 448 L 448 448 L 432 448 L 0 448 L 0 432 L 0 432 L 0 16 L 0 16 L 0 0 L 0 0 Z M 227 112 Q 205 112 187 126 L 157 150 L 157 150 L 151 155 L 151 155 L 141 143 L 141 143 L 147 138 L 147 138 L 177 113 L 177 113 Q 199 96 227 96 L 230 96 L 230 96 Q 261 98 282 119 Q 303 140 304 172 Q 304 203 282 226 L 171 336 L 171 336 L 312 336 L 320 336 L 320 352 L 320 352 L 312 352 L 144 352 L 144 341 L 144 341 L 146 338 L 146 338 L 271 214 L 271 214 Q 288 197 288 172 Q 287 147 271 130 Q 254 113 229 112 L 227 112 L 227 112 Z" />
</svg>