<svg xmlns="http://www.w3.org/2000/svg" viewBox="0 0 640 512">
  <path d="M 64 0 L 320 0 L 64 0 L 320 0 L 320 256 L 320 256 L 64 256 L 64 256 L 64 0 L 64 0 Z M 384 64 L 576 64 L 384 64 L 576 64 L 576 256 L 576 256 L 384 256 L 384 256 L 384 64 L 384 64 Z M 0 320 L 32 320 L 0 320 L 640 320 L 640 384 L 640 384 L 608 384 L 576 384 L 576 448 L 576 448 L 608 448 L 640 448 L 640 512 L 640 512 L 608 512 L 0 512 L 0 448 L 0 448 L 32 448 L 64 448 L 64 384 L 64 384 L 32 384 L 0 384 L 0 320 L 0 320 Z M 128 448 L 288 448 L 128 448 L 288 448 L 288 384 L 288 384 L 128 384 L 128 384 L 128 448 L 128 448 Z M 352 448 L 512 448 L 352 448 L 512 448 L 512 384 L 512 384 L 352 384 L 352 384 L 352 448 L 352 448 Z" />
</svg>