<svg xmlns="http://www.w3.org/2000/svg" viewBox="0 0 469 512">
  <path d="M 213 0 L 221 0 L 213 0 L 309 0 L 309 8 L 309 8 L 309 32 L 309 32 L 381 32 L 389 32 L 389 40 L 389 40 L 389 96 L 389 96 L 461 96 L 469 96 L 469 104 L 469 104 L 469 344 L 469 344 Q 467 415 420 463 Q 372 510 301 512 L 293 512 L 293 512 Q 244 512 201 494 Q 157 476 123 442 L 34 352 L 34 352 L 5 324 L 5 324 L 0 318 L 0 318 L 5 313 L 5 313 L 62 256 L 62 256 L 67 250 L 67 250 L 73 256 L 73 256 L 101 284 L 101 284 L 133 316 L 133 316 L 133 40 L 133 40 L 133 32 L 133 32 L 141 32 L 213 32 L 213 8 L 213 8 L 213 0 L 213 0 Z M 309 184 L 309 248 L 309 184 L 309 248 L 309 256 L 309 256 L 293 256 L 293 256 L 293 248 L 293 248 L 293 40 L 293 40 L 293 32 L 293 32 L 293 16 L 293 16 L 229 16 L 229 16 L 229 32 L 229 32 L 229 40 L 229 40 L 229 48 L 229 48 L 229 248 L 229 248 L 229 256 L 229 256 L 213 256 L 213 256 L 213 248 L 213 248 L 213 48 L 213 48 L 149 48 L 149 48 L 149 335 L 149 335 L 135 341 L 135 341 L 90 296 L 90 296 L 67 273 L 67 273 L 22 318 L 22 318 L 45 341 L 45 341 L 134 430 L 134 430 Q 166 462 207 479 Q 248 496 293 496 L 301 496 L 301 496 Q 366 494 409 451 Q 451 409 453 344 L 453 112 L 453 112 L 389 112 L 389 112 L 389 248 L 389 248 L 389 256 L 389 256 L 373 256 L 373 256 L 373 248 L 373 248 L 373 104 L 373 104 L 373 96 L 373 96 L 373 48 L 373 48 L 309 48 L 309 48 L 309 184 L 309 184 Z M 187 337 Q 187 315 202 300 L 202 300 L 202 300 Q 216 286 239 285 L 242 285 L 242 285 Q 264 286 280 300 L 285 305 L 285 305 L 290 300 L 290 300 Q 306 286 328 285 L 332 285 L 332 285 Q 354 286 368 300 Q 383 315 383 337 Q 383 359 367 375 L 296 441 L 296 441 L 285 452 L 285 452 L 274 441 L 274 441 L 203 375 L 203 375 Q 187 359 187 337 L 187 337 Z M 274 317 L 269 312 L 274 317 L 269 312 Q 257 302 242 301 L 239 301 L 239 301 Q 223 302 213 312 Q 203 322 203 337 Q 203 353 214 363 L 285 430 L 285 430 L 356 363 L 356 363 Q 367 352 367 337 Q 367 322 357 312 Q 347 302 331 301 L 328 301 L 328 301 Q 312 301 301 312 L 296 317 L 296 317 L 285 327 L 285 327 L 274 317 L 274 317 Z" />
</svg>