<svg xmlns="http://www.w3.org/2000/svg" viewBox="0 0 512 507">
  <path d="M 264 371 L 264 379 L 264 371 L 264 379 L 248 379 L 248 379 L 248 371 L 248 371 L 248 30 L 248 30 L 134 145 L 134 145 L 128 150 L 128 150 L 117 139 L 117 139 L 122 133 L 122 133 L 250 5 L 250 5 L 256 0 L 256 0 L 262 5 L 262 5 L 390 133 L 390 133 L 395 139 L 395 139 L 384 150 L 384 150 L 378 145 L 378 145 L 264 30 L 264 30 L 264 371 L 264 371 Z M 216 331 L 16 331 L 216 331 L 16 331 L 16 491 L 16 491 L 496 491 L 496 491 L 496 331 L 496 331 L 296 331 L 296 331 L 296 315 L 296 315 L 496 315 L 512 315 L 512 331 L 512 331 L 512 491 L 512 491 L 512 507 L 512 507 L 496 507 L 0 507 L 0 491 L 0 491 L 0 331 L 0 331 L 0 315 L 0 315 L 16 315 L 216 315 L 216 331 L 216 331 Z M 432 395 Q 417 396 416 411 Q 417 426 432 427 Q 447 426 448 411 Q 447 396 432 395 L 432 395 Z M 464 411 Q 464 425 455 434 L 455 434 L 455 434 Q 446 443 432 443 Q 418 443 409 434 Q 400 425 400 411 Q 400 397 409 388 Q 418 379 432 379 Q 446 379 455 388 Q 464 397 464 411 L 464 411 Z" />
</svg>