<svg xmlns="http://www.w3.org/2000/svg" viewBox="0 0 448 512">
  <path d="M 247 169 L 224 147 L 247 169 L 224 147 L 201 169 L 201 169 L 73 297 L 73 297 L 51 320 L 51 320 L 96 365 L 96 365 L 119 343 L 119 343 L 192 269 L 192 269 L 192 480 L 192 480 L 192 512 L 192 512 L 256 512 L 256 512 L 256 480 L 256 480 L 256 269 L 256 269 L 329 343 L 329 343 L 352 365 L 352 365 L 397 320 L 397 320 L 375 297 L 375 297 L 247 169 L 247 169 Z M 64 160 L 64 64 L 64 160 L 64 64 L 384 64 L 384 64 L 384 160 L 384 160 L 384 192 L 384 192 L 448 192 L 448 192 L 448 160 L 448 160 L 448 32 L 448 32 L 448 0 L 448 0 L 416 0 L 0 0 L 0 32 L 0 32 L 0 160 L 0 160 L 0 192 L 0 192 L 64 192 L 64 192 L 64 160 L 64 160 Z" />
</svg>