<svg xmlns="http://www.w3.org/2000/svg" viewBox="0 0 448 512">
  <path d="M 224 32 Q 251 33 269 51 L 269 51 L 269 51 Q 287 69 288 96 L 288 128 L 288 128 L 160 128 L 160 128 L 160 96 L 160 96 Q 161 69 179 51 Q 197 33 224 32 L 224 32 Z M 128 96 L 128 128 L 128 96 L 128 128 L 32 128 L 0 128 L 0 160 L 0 160 L 0 480 L 0 480 L 0 512 L 0 512 L 32 512 L 448 512 L 448 480 L 448 480 L 448 160 L 448 160 L 448 128 L 448 128 L 416 128 L 320 128 L 320 96 L 320 96 Q 319 60 297 34 Q 275 8 240 1 L 240 0 L 240 0 L 224 0 L 224 0 Q 183 1 156 28 Q 129 55 128 96 L 128 96 Z M 32 160 L 128 160 L 32 160 L 416 160 L 416 480 L 416 480 L 32 480 L 32 480 L 32 160 L 32 160 Z M 144 304 L 128 304 L 144 304 L 128 304 L 128 336 L 128 336 L 144 336 L 320 336 L 320 304 L 320 304 L 304 304 L 144 304 Z" />
</svg>