<svg xmlns="http://www.w3.org/2000/svg" viewBox="0 0 512 512">
  <path d="M 336 304 L 352 304 L 336 304 L 352 304 L 352 288 L 352 288 L 352 224 L 352 224 Q 351 197 333 179 Q 315 161 288 160 L 224 160 L 224 160 Q 197 161 179 179 Q 161 197 160 224 L 160 288 L 160 288 L 160 304 L 160 304 L 176 304 L 194 304 L 208 432 L 208 432 L 304 432 L 304 432 L 318 304 L 318 304 L 336 304 L 336 304 Z M 302 302 L 290 416 L 302 302 L 290 416 L 222 416 L 222 416 L 210 302 L 210 302 L 208 288 L 208 288 L 194 288 L 176 288 L 176 224 L 176 224 Q 177 204 190 190 Q 204 177 224 176 L 288 176 L 288 176 Q 308 177 322 190 Q 335 204 336 224 L 336 288 L 336 288 L 318 288 L 304 288 L 302 302 L 302 302 Z M 208 64 Q 209 37 232 22 Q 256 10 280 22 Q 303 37 304 64 Q 303 91 280 106 Q 256 118 232 106 Q 209 91 208 64 L 208 64 Z M 256 128 Q 292 127 311 96 Q 329 64 311 32 Q 292 1 256 0 Q 220 1 201 32 Q 183 64 201 96 Q 220 127 256 128 L 256 128 Z M 16 426 Q 15 411 43 395 Q 71 379 121 368 L 118 352 L 118 352 Q 66 363 35 381 Q 2 398 0 426 Q 1 447 23 463 Q 43 478 78 489 Q 150 511 256 512 Q 362 511 434 489 Q 469 478 489 462 Q 511 447 512 425 Q 510 398 478 381 Q 446 363 394 352 L 391 368 L 391 368 Q 441 378 470 395 Q 497 411 496 425 Q 497 436 480 450 Q 462 463 429 473 Q 360 495 256 496 Q 152 495 83 473 Q 50 463 32 450 Q 15 436 16 425 L 16 426 Z" />
</svg>