<svg xmlns="http://www.w3.org/2000/svg" viewBox="0 0 448 448">
  <path d="M 8 0 L 0 0 L 8 0 L 0 0 L 0 8 L 0 8 L 0 272 L 0 272 L 0 280 L 0 280 L 0 288 L 0 288 L 0 440 L 0 440 L 0 448 L 0 448 L 8 448 L 448 448 L 448 432 L 448 432 L 440 432 L 16 432 L 16 288 L 16 288 L 432 288 L 432 288 L 432 352 L 432 352 L 88 352 L 80 352 L 80 368 L 80 368 L 88 368 L 448 368 L 448 360 L 448 360 L 448 288 L 448 288 L 448 280 L 448 280 L 448 272 L 448 272 L 448 8 L 448 8 L 448 0 L 448 0 L 440 0 L 8 0 Z M 432 272 L 16 272 L 432 272 L 16 272 L 16 16 L 16 16 L 432 16 L 432 16 L 432 272 L 432 272 Z" />
</svg>