<svg xmlns="http://www.w3.org/2000/svg" viewBox="0 0 640 512">
  <path d="M 88 0 L 82 0 L 88 0 L 82 0 L 80 6 L 80 6 L 50 112 L 50 112 L 16 112 L 0 112 L 0 128 L 0 128 L 0 256 L 0 256 L 0 272 L 0 272 L 0 320 L 0 320 L 0 336 L 0 336 L 16 336 L 80 336 L 80 320 L 80 320 L 80 272 L 80 272 L 271 272 L 271 272 L 276 256 L 276 256 L 80 256 L 16 256 L 16 128 L 16 128 L 368 128 L 368 128 L 368 144 L 368 144 L 384 144 L 384 144 L 384 128 L 384 128 L 384 112 L 384 112 L 368 112 L 334 112 L 304 6 L 304 6 L 302 0 L 302 0 L 296 0 L 88 0 Z M 64 272 L 64 320 L 64 272 L 64 320 L 16 320 L 16 320 L 16 272 L 16 272 L 64 272 L 64 272 Z M 317 112 L 67 112 L 317 112 L 67 112 L 94 16 L 94 16 L 290 16 L 290 16 L 317 112 L 317 112 Z M 80 208 Q 65 207 64 192 Q 65 177 80 176 Q 95 177 96 192 Q 95 207 80 208 L 80 208 Z M 48 192 Q 48 206 57 215 L 57 215 L 57 215 Q 66 224 80 224 Q 94 224 103 215 Q 112 206 112 192 Q 112 178 103 169 Q 94 160 80 160 Q 66 160 57 169 Q 48 178 48 192 L 48 192 Z M 344 176 L 338 176 L 344 176 L 338 176 L 336 182 L 336 182 L 306 288 L 306 288 L 272 288 L 256 288 L 256 304 L 256 304 L 256 432 L 256 432 L 256 448 L 256 448 L 256 496 L 256 496 L 256 512 L 256 512 L 272 512 L 336 512 L 336 496 L 336 496 L 336 448 L 336 448 L 560 448 L 560 448 L 560 496 L 560 496 L 560 512 L 560 512 L 576 512 L 640 512 L 640 496 L 640 496 L 640 448 L 640 448 L 640 432 L 640 432 L 640 304 L 640 304 L 640 288 L 640 288 L 624 288 L 590 288 L 560 182 L 560 182 L 558 176 L 558 176 L 552 176 L 344 176 Z M 624 432 L 576 432 L 624 432 L 272 432 L 272 304 L 272 304 L 624 304 L 624 304 L 624 432 L 624 432 Z M 576 448 L 624 448 L 576 448 L 624 448 L 624 496 L 624 496 L 576 496 L 576 496 L 576 448 L 576 448 Z M 272 448 L 320 448 L 272 448 L 320 448 L 320 496 L 320 496 L 272 496 L 272 496 L 272 448 L 272 448 Z M 573 288 L 323 288 L 573 288 L 323 288 L 350 192 L 350 192 L 546 192 L 546 192 L 573 288 L 573 288 Z M 336 384 Q 321 383 320 368 Q 321 353 336 352 Q 351 353 352 368 Q 351 383 336 384 L 336 384 Z M 304 368 Q 304 382 313 391 L 313 391 L 313 391 Q 322 400 336 400 Q 350 400 359 391 Q 368 382 368 368 Q 368 354 359 345 Q 350 336 336 336 Q 322 336 313 345 Q 304 354 304 368 L 304 368 Z M 576 368 Q 575 383 560 384 Q 545 383 544 368 Q 545 353 560 352 Q 575 353 576 368 L 576 368 Z M 560 336 Q 546 336 537 345 L 537 345 L 537 345 Q 528 354 528 368 Q 528 382 537 391 Q 546 400 560 400 Q 574 400 583 391 Q 592 382 592 368 Q 592 354 583 345 Q 574 336 560 336 L 560 336 Z" />
</svg>