<svg xmlns="http://www.w3.org/2000/svg" viewBox="0 0 512 512">
  <path d="M 136 0 L 136 8 L 136 0 L 136 8 L 136 32 L 136 32 L 168 32 L 176 32 L 176 48 L 176 48 L 168 48 L 136 48 L 136 96 L 136 96 L 200 96 L 216 96 L 216 112 L 216 112 L 216 128 L 216 128 L 179 224 L 179 224 L 192 224 L 200 224 L 200 240 L 200 240 L 192 240 L 177 240 L 200 384 L 200 384 L 184 384 L 184 384 L 161 240 L 161 240 L 95 240 L 95 240 L 72 384 L 72 384 L 56 384 L 56 384 L 79 240 L 79 240 L 64 240 L 56 240 L 56 224 L 56 224 L 64 224 L 77 224 L 40 128 L 40 128 L 40 112 L 40 112 L 40 96 L 40 96 L 56 96 L 120 96 L 120 48 L 120 48 L 88 48 L 80 48 L 80 32 L 80 32 L 88 32 L 120 32 L 120 8 L 120 8 L 120 0 L 120 0 L 136 0 L 136 0 Z M 56 125 L 94 224 L 56 125 L 94 224 L 162 224 L 162 224 L 200 125 L 200 125 L 200 112 L 200 112 L 136 112 L 56 112 L 56 125 L 56 125 Z M 44 416 L 48 416 L 44 416 L 212 416 L 214 419 L 214 419 L 254 467 L 254 467 L 256 469 L 256 469 L 256 472 L 256 472 L 256 504 L 256 504 L 256 512 L 256 512 L 248 512 L 0 512 L 0 504 L 0 504 L 0 472 L 0 472 L 0 469 L 0 469 L 2 467 L 2 467 L 42 419 L 42 419 L 44 416 L 44 416 Z M 52 432 L 16 475 L 52 432 L 16 475 L 16 496 L 16 496 L 240 496 L 240 496 L 240 475 L 240 475 L 204 432 L 204 432 L 52 432 L 52 432 Z M 296 192 L 304 192 L 296 192 L 352 192 L 352 200 L 352 200 L 352 224 L 352 224 L 368 224 L 368 224 L 368 200 L 368 200 L 368 192 L 368 192 L 376 192 L 432 192 L 432 200 L 432 200 L 432 224 L 432 224 L 448 224 L 448 224 L 448 200 L 448 200 L 448 192 L 448 192 L 456 192 L 504 192 L 504 200 L 504 200 L 504 288 L 504 288 L 504 291 L 504 291 L 502 294 L 502 294 L 464 331 L 464 331 L 464 384 L 464 384 L 448 384 L 448 384 L 448 328 L 448 328 L 448 325 L 448 325 L 450 322 L 450 322 L 488 285 L 488 285 L 488 208 L 488 208 L 464 208 L 464 208 L 464 232 L 464 232 L 464 240 L 464 240 L 456 240 L 416 240 L 416 232 L 416 232 L 416 208 L 416 208 L 384 208 L 384 208 L 384 232 L 384 232 L 384 240 L 384 240 L 376 240 L 336 240 L 336 232 L 336 232 L 336 208 L 336 208 L 312 208 L 312 208 L 312 285 L 312 285 L 350 322 L 350 322 L 352 325 L 352 325 L 352 328 L 352 328 L 352 384 L 352 384 L 336 384 L 336 384 L 336 331 L 336 331 L 298 294 L 298 294 L 296 291 L 296 291 L 296 288 L 296 288 L 296 200 L 296 200 L 296 192 L 296 192 Z M 332 416 L 336 416 L 332 416 L 468 416 L 471 419 L 471 419 L 511 475 L 511 475 L 512 478 L 512 478 L 512 480 L 512 480 L 512 504 L 512 504 L 512 512 L 512 512 L 504 512 L 288 512 L 288 504 L 288 504 L 288 480 L 288 480 L 288 477 L 288 477 L 290 475 L 290 475 L 330 419 L 330 419 L 332 416 L 332 416 Z M 340 432 L 304 483 L 340 432 L 304 483 L 304 496 L 304 496 L 496 496 L 496 496 L 496 483 L 496 483 L 460 432 L 460 432 L 340 432 L 340 432 Z" />
</svg>