<svg xmlns="http://www.w3.org/2000/svg" viewBox="0 0 512 448">
  <path d="M 224 0 L 272 64 L 224 0 L 272 64 L 280 64 L 512 64 L 512 80 L 512 80 L 512 432 L 512 432 L 512 448 L 512 448 L 496 448 L 0 448 L 0 432 L 0 432 L 0 16 L 0 16 L 0 0 L 0 0 L 16 0 L 224 0 Z M 440 80 L 440 312 L 440 80 L 440 312 L 440 329 L 440 329 L 427 318 L 427 318 L 352 258 L 352 258 L 277 318 L 277 318 L 264 329 L 264 329 L 264 312 L 264 312 L 264 80 L 264 80 L 259 74 L 259 74 L 216 16 L 216 16 L 16 16 L 16 16 L 16 432 L 16 432 L 496 432 L 496 432 L 496 80 L 496 80 L 440 80 L 440 80 Z M 424 80 L 280 80 L 424 80 L 280 80 L 280 295 L 280 295 L 347 242 L 347 242 L 352 238 L 352 238 L 357 242 L 357 242 L 424 295 L 424 295 L 424 80 L 424 80 Z" />
</svg>