<svg xmlns="http://www.w3.org/2000/svg" viewBox="0 0 448 432">
  <path d="M 0 0 L 448 0 L 0 0 L 448 0 L 448 16 L 448 16 L 0 16 L 0 16 L 0 0 L 0 0 Z M 16 112 L 48 112 L 16 112 L 48 112 L 48 144 L 48 144 L 16 144 L 16 144 L 16 112 L 16 112 Z M 432 112 L 432 144 L 432 112 L 432 144 L 400 144 L 400 144 L 400 112 L 400 112 L 432 112 L 432 112 Z M 208 112 L 240 112 L 208 112 L 240 112 L 240 144 L 240 144 L 208 144 L 208 144 L 208 112 L 208 112 Z M 48 304 L 48 336 L 48 304 L 48 336 L 16 336 L 16 336 L 16 304 L 16 304 L 48 304 L 48 304 Z M 400 304 L 432 304 L 400 304 L 432 304 L 432 336 L 432 336 L 400 336 L 400 336 L 400 304 L 400 304 Z M 240 304 L 240 336 L 240 304 L 240 336 L 208 336 L 208 336 L 208 304 L 208 304 L 240 304 L 240 304 Z M 16 208 L 48 208 L 16 208 L 48 208 L 48 240 L 48 240 L 16 240 L 16 240 L 16 208 L 16 208 Z M 432 208 L 432 240 L 432 208 L 432 240 L 400 240 L 400 240 L 400 208 L 400 208 L 432 208 L 432 208 Z M 208 208 L 240 208 L 208 208 L 240 208 L 240 240 L 240 240 L 208 240 L 208 240 L 208 208 L 208 208 Z M 48 400 L 48 432 L 48 400 L 48 432 L 16 432 L 16 432 L 16 400 L 16 400 L 48 400 L 48 400 Z M 400 400 L 432 400 L 400 400 L 432 400 L 432 432 L 432 432 L 400 432 L 400 432 L 400 400 L 400 400 Z M 240 400 L 240 432 L 240 400 L 240 432 L 208 432 L 208 432 L 208 400 L 208 400 L 240 400 L 240 400 Z M 112 208 L 144 208 L 112 208 L 144 208 L 144 240 L 144 240 L 112 240 L 112 240 L 112 208 L 112 208 Z M 144 400 L 144 432 L 144 400 L 144 432 L 112 432 L 112 432 L 112 400 L 112 400 L 144 400 L 144 400 Z M 304 400 L 336 400 L 304 400 L 336 400 L 336 432 L 336 432 L 304 432 L 304 432 L 304 400 L 304 400 Z M 336 208 L 336 240 L 336 208 L 336 240 L 304 240 L 304 240 L 304 208 L 304 208 L 336 208 L 336 208 Z" />
</svg>