<svg xmlns="http://www.w3.org/2000/svg" viewBox="0 0 512 512">
  <path d="M 408 0 L 336 0 L 408 0 L 320 0 L 320 8 L 320 8 L 320 128 L 320 128 Q 244 128 185 180 Q 152 206 132 234 Q 112 261 97 288 Q 97 289 97 289 Q 97 289 97 289 Q 83 314 67 336 Q 51 359 26 377 L 0 394 L 0 394 L 2 453 L 2 453 L 46 472 L 46 472 Q 47 475 113 492 Q 179 510 289 512 Q 371 510 420 474 Q 470 438 491 390 Q 512 342 512 305 Q 512 234 456 180 Q 417 145 368 134 L 368 150 L 368 150 Q 411 161 445 192 Q 496 242 496 305 Q 496 330 485 362 Q 475 394 450 425 Q 426 455 387 475 Q 347 495 289 496 Q 182 494 117 477 Q 85 469 68 463 Q 60 460 56 459 Q 53 458 52 458 L 52 457 L 52 457 L 18 442 L 18 442 L 16 403 L 16 403 L 35 390 L 35 390 L 35 390 L 35 390 L 36 390 L 36 390 Q 63 370 80 347 Q 97 323 110 298 Q 111 298 111 297 L 113 293 L 113 293 Q 128 267 146 241 Q 165 216 195 193 L 196 192 L 196 192 L 196 192 L 196 192 Q 250 144 320 144 L 320 168 L 320 168 L 320 176 L 320 176 L 336 176 L 336 176 L 336 168 L 336 168 L 336 145 L 336 145 L 336 129 L 336 129 L 336 59 L 336 59 Q 362 94 408 96 L 488 96 L 496 96 L 496 88 L 496 88 Q 495 51 470 26 Q 445 1 408 0 L 408 0 Z M 408 80 Q 380 79 360 62 L 360 62 L 360 62 Q 340 44 336 16 L 408 16 L 408 16 Q 436 17 456 35 Q 476 52 480 80 L 408 80 L 408 80 Z M 424 320 L 424 312 L 424 320 L 424 312 L 408 312 L 408 312 L 408 320 L 408 320 Q 407 357 382 382 Q 357 407 320 408 L 312 408 L 312 408 L 312 424 L 312 424 L 320 424 L 320 424 Q 364 423 394 394 Q 423 364 424 320 L 424 320 Z" />
</svg>