<svg xmlns="http://www.w3.org/2000/svg" viewBox="0 0 498 432">
  <path d="M 173 54 Q 175 31 192 16 L 192 16 L 192 16 Q 208 1 232 0 Q 259 1 276 20 Q 293 38 292 66 L 278 210 L 278 210 Q 275 233 258 248 Q 242 263 218 264 Q 191 263 174 244 Q 157 226 159 199 L 173 54 L 173 54 Z M 232 16 Q 215 16 203 27 L 203 27 L 203 27 Q 190 38 188 56 L 175 200 L 175 200 Q 173 220 186 234 Q 198 247 218 248 Q 235 248 248 237 Q 260 226 262 209 L 276 64 L 276 64 Q 277 44 264 30 Q 252 17 232 16 L 232 16 Z M 103 21 L 44 47 L 103 21 L 44 47 L 37 51 L 37 51 L 31 36 L 31 36 L 38 33 L 38 33 L 110 1 L 110 1 L 121 9 L 121 9 L 89 281 L 89 281 L 88 289 L 88 289 L 72 287 L 72 287 L 73 279 L 73 279 L 103 21 L 103 21 Z M 397 0 Q 426 1 444 20 L 444 20 L 444 20 Q 462 40 461 68 L 453 181 L 453 181 Q 450 206 433 223 Q 415 239 389 240 Q 360 239 342 220 Q 324 200 325 172 L 333 59 L 333 59 Q 336 34 353 17 Q 371 1 397 0 L 397 0 Z M 349 60 L 341 173 L 349 60 L 341 173 Q 340 194 354 209 Q 368 223 389 224 Q 408 224 422 211 Q 435 199 437 180 L 445 67 L 445 67 Q 446 46 432 31 Q 418 17 397 16 Q 378 16 364 29 Q 351 41 349 60 L 349 60 Z M 498 304 L 2 384 L 498 304 L 2 384 L 0 368 L 0 368 L 496 288 L 496 288 L 498 304 L 498 304 Z M 186 432 L 184 416 L 186 432 L 184 416 L 456 376 L 456 376 L 458 392 L 458 392 L 186 432 L 186 432 Z" />
</svg>