<svg xmlns="http://www.w3.org/2000/svg" viewBox="0 0 293 512">
  <path d="M 166 316 L 111 488 L 166 316 L 111 488 L 103 512 L 103 512 L 124 499 L 124 499 L 293 391 L 293 391 L 293 39 L 293 39 L 293 0 L 293 0 L 277 36 L 277 36 L 206 196 L 206 196 L 27 196 L 0 196 L 22 212 L 22 212 L 166 316 L 166 316 Z M 49 212 L 206 212 L 49 212 L 216 212 L 220 202 L 220 202 L 277 75 L 277 75 L 277 382 L 277 382 L 132 475 L 132 475 L 182 321 L 182 321 L 185 310 L 185 310 L 176 304 L 176 304 L 49 212 L 49 212 Z" />
</svg>