<svg xmlns="http://www.w3.org/2000/svg" viewBox="0 0 512 448">
  <path d="M 16 16 L 16 325 L 16 16 L 16 325 L 122 218 L 122 218 L 128 213 L 128 213 L 134 218 L 134 218 L 224 309 L 224 309 L 378 154 L 378 154 L 384 149 L 384 149 L 390 154 L 390 154 L 496 261 L 496 261 L 496 16 L 496 16 L 16 16 L 16 16 Z M 16 347 L 16 432 L 16 347 L 16 432 L 101 432 L 101 432 L 213 320 L 213 320 L 128 235 L 128 235 L 16 347 L 16 347 Z M 384 171 L 123 432 L 384 171 L 123 432 L 496 432 L 496 432 L 496 283 L 496 283 L 384 171 L 384 171 Z M 0 0 L 16 0 L 0 0 L 512 0 L 512 16 L 512 16 L 512 432 L 512 432 L 512 448 L 512 448 L 496 448 L 0 448 L 0 432 L 0 432 L 0 16 L 0 16 L 0 0 L 0 0 Z M 168 128 Q 167 105 148 93 Q 128 83 108 93 Q 89 105 88 128 Q 89 151 108 163 Q 128 173 148 163 Q 167 151 168 128 L 168 128 Z M 72 128 Q 73 96 100 80 Q 128 64 156 80 Q 183 96 184 128 Q 183 160 156 176 Q 128 192 100 176 Q 73 160 72 128 L 72 128 Z" />
</svg>