<svg xmlns="http://www.w3.org/2000/svg" viewBox="0 0 640 512">
  <path d="M 16 16 L 624 16 L 16 16 L 624 16 L 624 432 L 624 432 L 411 432 L 411 432 L 422 448 L 422 448 L 624 448 L 640 448 L 640 432 L 640 432 L 640 16 L 640 16 L 640 0 L 640 0 L 624 0 L 0 0 L 0 16 L 0 16 L 0 432 L 0 432 L 0 448 L 0 448 L 16 448 L 308 448 L 333 485 L 333 485 L 342 498 L 342 498 L 351 512 L 351 512 L 364 503 L 364 503 L 391 485 L 391 485 L 404 476 L 404 476 L 395 463 L 395 463 L 386 450 L 386 450 L 321 352 L 321 352 L 310 336 L 310 336 L 330 336 L 385 336 L 425 384 L 425 384 L 379 384 L 379 384 L 390 400 L 390 400 L 576 400 L 592 400 L 592 384 L 592 384 L 592 64 L 592 64 L 592 48 L 592 48 L 576 48 L 48 48 L 48 64 L 48 64 L 48 384 L 48 384 L 48 400 L 48 400 L 64 400 L 96 400 L 96 384 L 96 384 L 64 384 L 64 384 L 64 64 L 64 64 L 288 64 L 288 64 L 288 127 L 288 127 L 142 230 L 142 230 L 128 239 L 128 239 L 128 256 L 128 256 L 128 384 L 128 384 L 128 400 L 128 400 L 128 416 L 128 416 L 144 416 L 192 416 L 192 400 L 192 400 L 192 384 L 192 384 L 192 303 L 192 303 L 192 274 L 192 274 L 208 298 L 208 298 L 266 384 L 266 384 L 224 384 L 224 384 L 224 400 L 224 400 L 276 400 L 276 400 L 298 432 L 298 432 L 200 432 L 16 432 L 16 16 L 16 16 Z M 304 64 L 336 64 L 304 64 L 336 64 L 336 144 L 336 144 L 336 152 L 336 152 L 329 157 L 329 157 L 272 197 L 272 197 L 259 206 L 259 206 L 268 219 L 268 219 L 308 281 L 308 281 L 313 288 L 313 288 L 321 288 L 408 288 L 412 294 L 412 294 L 488 384 L 488 384 L 446 384 L 446 384 L 397 326 L 397 326 L 393 320 L 393 320 L 385 320 L 281 320 L 297 345 L 297 345 L 373 459 L 373 459 L 382 472 L 382 472 L 355 490 L 355 490 L 346 476 L 346 476 L 205 265 L 205 265 L 196 250 L 196 250 L 176 264 L 176 264 L 176 274 L 176 274 L 176 384 L 176 384 L 176 400 L 176 400 Q 176 400 176 400 Q 176 400 176 400 L 144 400 L 144 400 L 144 384 L 144 384 L 144 256 L 144 256 L 144 248 L 144 248 Q 144 248 144 248 Q 144 248 144 248 L 151 243 L 151 243 L 176 225 L 176 225 Q 176 225 176 225 Q 176 225 176 225 L 178 224 L 178 224 Q 178 224 178 224 Q 178 224 178 224 L 297 141 L 297 141 L 304 136 L 304 136 L 304 127 L 304 127 L 304 64 L 304 64 Z M 352 64 L 576 64 L 352 64 L 576 64 L 576 384 L 576 384 L 508 384 L 508 384 L 505 380 L 505 380 L 425 284 L 425 284 L 415 272 L 415 272 L 400 272 L 321 272 L 281 210 L 281 210 L 338 170 L 338 170 L 352 161 L 352 161 L 352 144 L 352 144 L 352 64 L 352 64 Z M 112 132 Q 112 117 123 107 L 123 107 L 123 107 Q 133 96 148 96 Q 163 96 173 107 Q 184 117 184 132 Q 184 147 173 157 Q 163 168 148 168 Q 133 168 123 157 Q 112 147 112 132 L 112 132 Z M 148 184 Q 177 183 193 158 Q 207 132 193 106 Q 177 81 148 80 Q 119 81 103 106 Q 89 132 103 158 Q 119 183 148 184 L 148 184 Z" />
</svg>