<svg xmlns="http://www.w3.org/2000/svg" viewBox="0 0 512 512">
  <path d="M 256 16 Q 191 17 136 48 L 136 48 L 136 48 Q 81 80 48 136 Q 16 193 16 256 Q 16 319 48 376 Q 81 432 136 464 Q 191 495 256 496 Q 321 495 376 464 Q 431 432 464 376 Q 496 319 496 256 Q 496 193 464 136 Q 431 80 376 48 Q 321 17 256 16 L 256 16 Z M 256 512 Q 186 511 128 478 L 128 478 L 128 478 Q 70 444 34 384 Q 0 323 0 256 Q 0 189 34 128 Q 70 68 128 34 Q 186 1 256 0 Q 326 1 384 34 Q 442 68 478 128 Q 512 189 512 256 Q 512 323 478 384 Q 442 444 384 478 Q 326 511 256 512 L 256 512 Z M 317 333 L 328 344 L 317 333 L 328 344 L 317 355 L 317 355 L 304 368 L 304 368 L 160 368 L 144 368 L 144 352 L 144 352 L 144 208 L 144 208 L 157 195 L 157 195 L 168 184 L 168 184 L 179 195 L 179 195 L 205 221 L 205 221 L 216 232 L 216 232 L 227 221 L 227 221 L 301 147 L 301 147 L 312 136 L 312 136 L 323 147 L 323 147 L 365 189 L 365 189 L 376 200 L 376 200 L 365 211 L 365 211 L 291 285 L 291 285 L 280 296 L 280 296 L 291 307 L 291 307 L 317 333 L 317 333 Z M 269 285 L 353 200 L 269 285 L 353 200 L 312 159 L 312 159 L 227 243 L 227 243 L 216 255 L 216 255 L 205 243 L 205 243 L 168 207 L 168 207 L 160 215 L 160 215 L 160 352 L 160 352 L 297 352 L 297 352 L 305 344 L 305 344 L 269 307 L 269 307 L 257 296 L 257 296 L 269 285 L 269 285 Z" />
</svg>