<svg xmlns="http://www.w3.org/2000/svg" viewBox="0 0 512 512">
  <path d="M 256 0 Q 223 1 195 16 L 195 16 L 195 16 Q 166 31 145 50 Q 123 69 111 84 Q 104 91 101 95 Q 101 95 101 95 Q 100 96 100 96 L 16 96 L 0 96 L 0 112 L 0 112 L 0 256 L 0 256 L 0 264 L 0 264 L 0 272 L 0 272 L 0 496 L 0 496 L 0 512 L 0 512 L 16 512 L 512 512 L 512 496 L 512 496 L 512 272 L 512 272 L 512 264 L 512 264 L 512 256 L 512 256 L 512 112 L 512 112 L 512 96 L 512 96 L 496 96 L 412 96 Q 412 96 412 96 Q 411 95 411 95 Q 408 91 402 84 Q 389 69 367 50 Q 346 31 317 16 Q 289 1 256 0 L 256 0 Z M 408 112 L 408 112 L 408 112 L 408 112 L 496 112 L 496 112 L 496 256 L 496 256 L 16 256 L 16 256 L 16 112 L 16 112 L 408 112 L 408 112 Z M 391 96 L 121 96 L 391 96 L 121 96 Q 121 96 122 95 Q 122 95 123 94 Q 135 80 155 62 Q 176 44 202 30 Q 228 17 256 16 Q 284 17 310 30 Q 336 44 357 62 Q 378 80 390 94 Q 390 95 390 95 Q 391 96 391 96 L 391 96 Z M 496 496 L 16 496 L 496 496 L 16 496 L 16 272 L 16 272 L 496 272 L 496 272 L 496 496 L 496 496 Z M 88 320 L 88 344 L 88 320 L 88 344 L 112 344 L 112 344 L 112 320 L 112 320 L 88 320 L 88 320 Z M 88 424 L 88 448 L 88 424 L 88 448 L 112 448 L 112 448 L 112 424 L 112 424 L 88 424 L 88 424 Z M 176 320 L 152 320 L 176 320 L 152 320 L 152 344 L 152 344 L 176 344 L 176 344 L 176 320 L 176 320 Z M 152 424 L 152 448 L 152 424 L 152 448 L 176 448 L 176 448 L 176 424 L 176 424 L 152 424 L 152 424 Z M 144 372 L 120 372 L 144 372 L 120 372 L 120 396 L 120 396 L 144 396 L 144 396 L 144 372 L 144 372 Z M 216 320 L 216 344 L 216 320 L 216 344 L 240 344 L 240 344 L 240 320 L 240 320 L 216 320 L 216 320 Z M 240 424 L 216 424 L 240 424 L 216 424 L 216 448 L 216 448 L 240 448 L 240 448 L 240 424 L 240 424 Z M 184 372 L 184 396 L 184 372 L 184 396 L 208 396 L 208 396 L 208 372 L 208 372 L 184 372 L 184 372 Z M 304 320 L 280 320 L 304 320 L 280 320 L 280 344 L 280 344 L 304 344 L 304 344 L 304 320 L 304 320 Z M 280 424 L 280 448 L 280 424 L 280 448 L 304 448 L 304 448 L 304 424 L 304 424 L 280 424 L 280 424 Z M 272 372 L 248 372 L 272 372 L 248 372 L 248 396 L 248 396 L 272 396 L 272 396 L 272 372 L 272 372 Z M 344 320 L 344 344 L 344 320 L 344 344 L 368 344 L 368 344 L 368 320 L 368 320 L 344 320 L 344 320 Z M 432 320 L 408 320 L 432 320 L 408 320 L 408 344 L 408 344 L 432 344 L 432 344 L 432 320 L 432 320 Z M 344 424 L 344 448 L 344 424 L 344 448 L 368 448 L 368 448 L 368 424 L 368 424 L 344 424 L 344 424 Z M 432 424 L 408 424 L 432 424 L 408 424 L 408 448 L 408 448 L 432 448 L 432 448 L 432 424 L 432 424 Z M 312 372 L 312 396 L 312 372 L 312 396 L 336 396 L 336 396 L 336 372 L 336 372 L 312 372 L 312 372 Z M 400 372 L 376 372 L 400 372 L 376 372 L 376 396 L 376 396 L 400 396 L 400 396 L 400 372 L 400 372 Z M 80 192 Q 81 177 96 176 Q 111 177 112 192 Q 111 207 96 208 Q 81 207 80 192 L 80 192 Z M 128 192 Q 128 178 119 169 L 119 169 L 119 169 Q 110 160 96 160 Q 82 160 73 169 Q 64 178 64 192 Q 64 206 73 215 Q 82 224 96 224 Q 110 224 119 215 Q 128 206 128 192 L 128 192 Z M 192 176 Q 207 177 208 192 Q 207 207 192 208 Q 177 207 176 192 Q 177 177 192 176 L 192 176 Z M 192 224 Q 206 224 215 215 L 215 215 L 215 215 Q 224 206 224 192 Q 224 178 215 169 Q 206 160 192 160 Q 178 160 169 169 Q 160 178 160 192 Q 160 206 169 215 Q 178 224 192 224 L 192 224 Z M 304 192 Q 305 177 320 176 Q 335 177 336 192 Q 335 207 320 208 Q 305 207 304 192 L 304 192 Z M 352 192 Q 352 178 343 169 L 343 169 L 343 169 Q 334 160 320 160 Q 306 160 297 169 Q 288 178 288 192 Q 288 206 297 215 Q 306 224 320 224 Q 334 224 343 215 Q 352 206 352 192 L 352 192 Z M 416 176 Q 431 177 432 192 Q 431 207 416 208 Q 401 207 400 192 Q 401 177 416 176 L 416 176 Z M 416 224 Q 430 224 439 215 L 439 215 L 439 215 Q 448 206 448 192 Q 448 178 439 169 Q 430 160 416 160 Q 402 160 393 169 Q 384 178 384 192 Q 384 206 393 215 Q 402 224 416 224 L 416 224 Z" />
</svg>