<svg xmlns="http://www.w3.org/2000/svg" viewBox="0 0 512 512">
  <path d="M 11 283 L 0 272 L 11 283 L 0 272 L 11 261 L 11 261 L 146 126 L 146 126 L 42 22 L 42 22 L 37 16 L 37 16 L 48 5 L 48 5 L 54 10 L 54 10 L 158 114 L 158 114 L 261 11 L 261 11 L 272 0 L 272 0 L 283 11 L 283 11 L 501 229 L 501 229 L 512 240 L 512 240 L 501 251 L 501 251 L 251 501 L 251 501 L 240 512 L 240 512 L 229 501 L 229 501 L 32 304 L 32 304 Q 32 304 32 304 Q 32 304 32 304 Q 32 304 32 304 Q 32 304 32 304 L 11 283 L 11 283 Z M 55 304 L 240 489 L 55 304 L 240 489 L 425 304 L 425 304 L 55 304 L 55 304 Z M 441 288 L 489 240 L 441 288 L 489 240 L 272 23 L 272 23 L 169 126 L 169 126 L 254 210 L 254 210 L 259 216 L 259 216 L 248 227 L 248 227 L 242 222 L 242 222 L 158 137 L 158 137 L 23 272 L 23 272 L 39 288 L 39 288 L 441 288 L 441 288 Z" />
</svg>