<svg xmlns="http://www.w3.org/2000/svg" viewBox="0 0 640 512">
  <path d="M 235 495 Q 167 488 115 450 L 115 450 L 115 450 Q 63 412 36 352 L 142 352 L 142 352 Q 160 406 187 442 Q 214 478 235 495 L 235 495 Z M 205 439 Q 178 405 159 352 L 321 352 L 321 352 Q 322 344 323 336 L 154 336 L 154 336 Q 144 300 144 256 Q 144 212 154 176 L 358 176 L 358 176 Q 367 208 368 247 Q 375 240 383 233 Q 381 202 374 176 L 482 176 L 482 176 Q 485 184 488 192 Q 492 192 496 192 Q 500 192 504 192 Q 504 192 504 192 Q 481 108 414 55 Q 347 2 256 0 Q 184 1 127 35 Q 69 69 35 127 Q 1 184 0 256 Q 1 328 35 385 Q 69 443 127 477 Q 184 511 256 512 Q 316 512 366 487 Q 361 481 356 474 Q 319 491 278 495 Q 302 475 332 432 Q 328 422 326 412 Q 317 427 307 439 Q 284 470 266 484 Q 260 489 256 492 Q 252 489 247 484 Q 229 470 205 439 L 205 439 Z M 138 176 Q 128 212 128 256 Q 128 300 138 336 L 30 336 L 30 336 Q 16 298 16 256 Q 16 214 30 176 L 138 176 L 138 176 Z M 353 160 L 159 160 L 353 160 L 159 160 Q 178 106 205 73 Q 229 42 246 28 Q 252 23 256 20 Q 260 23 265 28 Q 283 43 307 73 Q 334 106 353 160 L 353 160 Z M 476 160 L 370 160 L 476 160 L 370 160 Q 352 106 325 70 Q 298 34 278 17 Q 345 24 397 62 Q 449 100 476 160 L 476 160 Z M 142 160 L 36 160 L 142 160 L 36 160 Q 63 100 115 62 Q 167 24 235 17 Q 214 34 187 70 Q 160 106 142 160 L 142 160 Z M 496 240 Q 531 240 560 257 L 560 257 L 560 257 Q 589 274 607 304 Q 624 334 624 368 Q 624 402 607 432 Q 589 462 560 479 Q 531 496 496 496 Q 461 496 432 479 Q 403 462 385 432 Q 368 402 368 368 Q 368 334 385 304 Q 403 274 432 257 Q 461 240 496 240 L 496 240 Z M 496 512 Q 535 512 568 493 L 568 493 L 568 493 Q 601 474 621 440 Q 640 406 640 368 Q 640 330 621 296 Q 601 262 568 243 Q 535 224 496 224 Q 457 224 424 243 Q 391 262 371 296 Q 352 330 352 368 Q 352 406 371 440 Q 391 474 424 493 Q 457 512 496 512 L 496 512 Z M 594 349 Q 557 306 496 304 Q 435 306 398 349 L 411 359 L 411 359 Q 443 322 496 320 Q 549 322 581 359 L 594 349 L 594 349 Z M 496 360 Q 463 361 441 382 L 454 392 L 454 392 Q 471 377 496 376 Q 521 377 539 392 L 551 382 L 551 382 Q 529 361 496 360 L 496 360 Z M 496 448 Q 511 447 512 432 Q 511 417 496 416 Q 481 417 480 432 Q 481 447 496 448 L 496 448 Z" />
</svg>