<svg xmlns="http://www.w3.org/2000/svg" viewBox="0 0 511 511">
  <path d="M 283 109 L 272 120 L 283 109 L 272 120 L 283 131 L 283 131 L 296 144 L 296 144 L 400 144 L 416 144 L 416 128 L 416 128 L 416 24 L 416 24 L 403 11 L 403 11 L 392 0 L 392 0 L 381 11 L 381 11 L 343 49 L 343 49 Q 287 2 208 0 Q 120 2 61 61 Q 2 120 0 208 L 16 208 L 16 208 Q 18 126 72 72 Q 126 18 208 16 Q 280 17 331 61 L 283 109 L 283 109 Z M 392 23 L 400 31 L 392 23 L 400 31 L 400 128 L 400 128 L 303 128 L 303 128 L 295 120 L 295 120 L 392 23 L 392 23 Z M 133 307 L 144 296 L 133 307 L 144 296 L 133 285 L 133 285 L 120 272 L 120 272 L 16 272 L 0 272 L 0 288 L 0 288 L 0 392 L 0 392 L 13 405 L 13 405 L 24 416 L 24 416 L 35 405 L 35 405 L 73 367 L 73 367 Q 129 414 208 416 Q 292 414 349 361 L 500 511 L 500 511 L 511 500 L 511 500 L 361 349 L 361 349 Q 414 292 416 208 L 400 208 L 400 208 Q 398 290 344 344 Q 290 398 208 400 Q 136 399 85 355 L 133 307 L 133 307 Z M 24 393 L 16 385 L 24 393 L 16 385 L 16 288 L 16 288 L 113 288 L 113 288 L 121 296 L 121 296 L 24 393 L 24 393 Z" />
</svg>