<svg xmlns="http://www.w3.org/2000/svg" viewBox="0 0 576 448">
  <path d="M 427 19 L 556 52 L 427 19 L 556 52 L 516 198 L 516 198 L 529 211 L 529 211 L 572 55 L 572 55 L 576 40 L 576 40 L 561 36 L 561 36 L 416 0 L 416 0 L 395 78 L 395 78 L 408 91 L 408 91 L 427 19 L 427 19 Z M 350 224 L 353 212 L 350 224 L 353 212 L 374 125 L 374 125 L 519 270 L 519 270 L 476 432 L 476 432 L 208 432 L 208 432 L 208 224 L 208 224 L 337 224 L 350 224 Z M 361 112 L 337 208 L 361 112 L 337 208 L 208 208 L 192 208 L 192 224 L 192 224 L 192 432 L 192 432 L 192 448 L 192 448 L 208 448 L 488 448 L 537 265 L 537 265 L 379 107 L 379 107 L 366 94 L 366 94 L 361 112 L 361 112 Z M 32 240 Q 17 239 16 224 Q 17 209 32 208 Q 47 209 48 224 Q 47 239 32 240 L 32 240 Z M 0 224 Q 0 238 9 247 L 9 247 L 9 247 Q 18 256 32 256 Q 46 256 55 247 Q 64 238 64 224 Q 64 210 55 201 Q 46 192 32 192 Q 18 192 9 201 Q 0 210 0 224 L 0 224 Z M 128 288 Q 113 287 112 272 Q 113 257 128 256 Q 143 257 144 272 Q 143 287 128 288 L 128 288 Z M 96 272 Q 96 286 105 295 L 105 295 L 105 295 Q 114 304 128 304 Q 142 304 151 295 Q 160 286 160 272 Q 160 258 151 249 Q 142 240 128 240 Q 114 240 105 249 Q 96 258 96 272 L 96 272 Z M 48 320 Q 47 335 32 336 Q 17 335 16 320 Q 17 305 32 304 Q 47 305 48 320 L 48 320 Z M 32 288 Q 18 288 9 297 L 9 297 L 9 297 Q 0 306 0 320 Q 0 334 9 343 Q 18 352 32 352 Q 46 352 55 343 Q 64 334 64 320 Q 64 306 55 297 Q 46 288 32 288 L 32 288 Z M 128 384 Q 113 383 112 368 Q 113 353 128 352 Q 143 353 144 368 Q 143 383 128 384 L 128 384 Z M 96 368 Q 96 382 105 391 L 105 391 L 105 391 Q 114 400 128 400 Q 142 400 151 391 Q 160 382 160 368 Q 160 354 151 345 Q 142 336 128 336 Q 114 336 105 345 Q 96 354 96 368 L 96 368 Z M 48 416 Q 47 431 32 432 Q 17 431 16 416 Q 17 401 32 400 Q 47 401 48 416 L 48 416 Z M 32 384 Q 18 384 9 393 L 9 393 L 9 393 Q 0 402 0 416 Q 0 430 9 439 Q 18 448 32 448 Q 46 448 55 439 Q 64 430 64 416 Q 64 402 55 393 Q 46 384 32 384 L 32 384 Z" />
</svg>