<svg xmlns="http://www.w3.org/2000/svg" viewBox="0 0 512 512">
  <path d="M 380 32 Q 324 1 256 0 Q 184 1 127 35 Q 69 69 35 127 Q 1 184 0 256 Q 1 328 35 385 Q 69 443 127 477 Q 184 511 256 512 Q 328 511 385 477 Q 443 443 477 385 Q 511 328 512 256 Q 512 215 500 178 Q 493 182 485 185 Q 496 219 496 256 Q 495 323 463 377 Q 431 431 377 463 Q 323 495 256 496 Q 189 495 135 463 Q 81 431 49 377 Q 17 323 16 256 Q 17 189 49 135 Q 81 81 135 49 Q 189 17 256 16 Q 319 17 371 46 Q 376 39 380 32 L 380 32 Z M 391 329 Q 373 368 337 392 L 337 392 L 337 392 Q 302 415 256 416 Q 211 415 175 392 Q 139 368 121 329 Q 183 348 256 348 Q 329 348 391 329 L 391 329 Z M 398 310 Q 334 331 256 332 Q 178 331 114 310 Q 105 306 96 303 Q 98 313 101 322 Q 119 371 161 401 Q 202 431 256 432 Q 311 431 352 401 Q 393 371 411 322 Q 414 313 416 303 Q 408 306 398 310 L 398 310 Z M 136 226 Q 140 204 151 186 Q 162 168 176 168 Q 189 168 201 186 Q 212 204 216 226 L 232 223 L 232 223 Q 227 199 214 177 Q 201 155 176 152 Q 150 155 137 177 Q 124 199 120 223 L 135 226 L 136 226 Z M 311 186 Q 322 168 336 168 Q 349 168 361 186 Q 372 204 376 226 L 392 223 L 392 223 Q 387 199 374 177 Q 361 155 336 152 Q 310 155 297 177 Q 284 199 280 223 L 296 226 L 296 226 Q 299 204 311 186 L 311 186 Z M 496 101 Q 496 119 482 131 L 482 131 L 482 131 Q 469 143 448 144 Q 427 143 414 131 Q 400 119 400 101 Q 400 94 406 82 Q 412 70 422 56 Q 436 39 448 25 Q 449 26 450 27 Q 452 29 453 31 Q 464 43 474 56 Q 484 70 490 82 Q 496 95 496 101 L 496 101 Z M 437 13 Q 437 13 437 13 L 437 13 L 437 13 Q 420 32 403 56 L 403 56 L 403 56 Q 385 80 384 101 Q 385 126 403 143 Q 421 159 448 160 Q 475 159 493 143 Q 511 126 512 101 Q 511 81 494 57 Q 477 33 460 14 L 459 13 L 459 13 Q 458 12 458 12 Q 452 5 448 0 Q 444 4 440 10 Q 439 11 438 12 L 437 13 L 437 13 Z" />
</svg>