<svg xmlns="http://www.w3.org/2000/svg" viewBox="0 0 512 448">
  <path d="M 18 224 L 137 16 L 18 224 L 137 16 L 375 16 L 375 16 L 494 224 L 494 224 L 375 432 L 375 432 L 137 432 L 137 432 L 18 224 L 18 224 Z M 128 0 L 0 224 L 128 0 L 0 224 L 128 448 L 128 448 L 384 448 L 384 448 L 512 224 L 512 224 L 384 0 L 384 0 L 128 0 L 128 0 Z M 264 128 L 248 128 L 264 128 L 248 128 L 248 136 L 248 136 L 248 216 L 248 216 L 168 216 L 160 216 L 160 232 L 160 232 L 168 232 L 248 232 L 248 312 L 248 312 L 248 320 L 248 320 L 264 320 L 264 320 L 264 312 L 264 312 L 264 232 L 264 232 L 344 232 L 352 232 L 352 216 L 352 216 L 344 216 L 264 216 L 264 136 L 264 136 L 264 128 L 264 128 Z" />
</svg>