<svg xmlns="http://www.w3.org/2000/svg" viewBox="0 0 384 445">
  <path d="M 215 423 L 192 445 L 215 423 L 192 445 L 169 423 L 169 423 L 41 295 L 41 295 L 19 272 L 19 272 L 64 227 L 64 227 L 87 249 L 87 249 L 160 323 L 160 323 L 160 160 L 160 160 L 160 128 L 160 128 L 224 128 L 224 128 L 224 160 L 224 160 L 224 323 L 224 323 L 297 249 L 297 249 L 320 227 L 320 227 L 365 272 L 365 272 L 343 295 L 343 295 L 215 423 L 215 423 Z M 32 64 L 0 64 L 32 64 L 0 64 L 0 0 L 0 0 L 32 0 L 384 0 L 384 64 L 384 64 L 352 64 L 32 64 Z" />
</svg>