<svg xmlns="http://www.w3.org/2000/svg" viewBox="0 0 640 512">
  <path d="M 256 512 Q 316 512 366 487 Q 322 438 320 368 Q 320 344 326 323 Q 300 290 256 288 Q 209 290 183 327 L 149 293 L 149 293 Q 188 242 256 240 Q 309 241 347 275 Q 360 253 379 236 Q 328 193 256 192 Q 213 192 176 209 Q 139 226 113 257 L 79 223 L 79 223 Q 112 186 157 165 Q 203 144 256 144 Q 354 146 420 209 Q 455 192 496 192 Q 500 192 504 192 Q 504 192 504 192 Q 481 108 414 55 Q 347 2 256 0 Q 184 1 127 35 Q 69 69 35 127 Q 1 184 0 256 Q 1 328 35 385 Q 69 443 127 477 Q 184 511 256 512 L 256 512 Z M 224 368 Q 224 354 233 345 L 233 345 L 233 345 Q 242 336 256 336 Q 270 336 279 345 Q 288 354 288 368 Q 288 382 279 391 Q 270 400 256 400 Q 242 400 233 391 Q 224 382 224 368 L 224 368 Z M 640 368 Q 640 329 621 296 L 621 296 L 621 296 Q 602 263 568 243 Q 534 224 496 224 Q 458 224 424 243 Q 390 263 371 296 Q 352 329 352 368 Q 352 407 371 440 Q 390 473 424 493 Q 458 512 496 512 Q 534 512 568 493 Q 602 473 621 440 Q 640 407 640 368 L 640 368 Z M 609 348 L 583 367 L 609 348 L 583 367 Q 553 322 496 320 Q 439 322 409 367 L 384 348 L 384 348 Q 402 320 431 304 Q 461 288 496 288 Q 531 288 561 304 Q 590 320 609 348 L 609 348 Z M 496 352 Q 537 353 560 384 L 534 403 L 534 403 Q 520 385 496 384 Q 472 385 458 403 L 432 384 L 432 384 Q 455 353 496 352 L 496 352 Z M 496 412 Q 514 414 516 432 Q 514 450 496 452 Q 478 450 476 432 Q 478 414 496 412 L 496 412 Z" />
</svg>