<svg xmlns="http://www.w3.org/2000/svg" viewBox="0 0 632 512">
  <path d="M 392 16 Q 415 17 427 36 Q 437 56 427 76 Q 415 95 392 96 Q 369 95 357 76 Q 347 56 357 36 Q 369 17 392 16 L 392 16 Z M 392 112 Q 424 111 440 84 Q 456 56 440 28 Q 424 1 392 0 Q 360 1 344 28 Q 328 56 344 84 Q 360 111 392 112 L 392 112 Z M 616 376 Q 616 406 601 432 L 601 432 L 601 432 Q 586 458 560 473 Q 534 488 504 488 Q 474 488 448 473 Q 422 458 407 432 Q 392 406 392 376 Q 392 346 407 320 Q 422 294 448 279 Q 474 264 504 264 Q 534 264 560 279 Q 586 294 601 320 Q 616 346 616 376 L 616 376 Z M 504 248 Q 469 248 440 265 L 440 265 L 440 265 Q 411 282 393 312 Q 376 342 376 376 Q 376 410 393 440 Q 411 470 440 487 Q 469 504 504 504 Q 539 504 568 487 Q 597 470 615 440 Q 632 410 632 376 Q 632 342 615 312 Q 597 282 568 265 Q 539 248 504 248 L 504 248 Z M 240 384 Q 240 414 225 440 L 225 440 L 225 440 Q 210 466 184 481 Q 158 496 128 496 Q 98 496 72 481 Q 46 466 31 440 Q 16 414 16 384 Q 16 354 31 328 Q 46 302 72 287 Q 98 272 128 272 Q 158 272 184 287 Q 210 302 225 328 Q 240 354 240 384 L 240 384 Z M 128 256 Q 93 256 64 273 L 64 273 L 64 273 Q 35 290 17 320 Q 0 350 0 384 Q 0 418 17 448 Q 35 478 64 495 Q 93 512 128 512 Q 163 512 192 495 Q 221 478 239 448 Q 256 418 256 384 Q 256 350 239 320 Q 221 290 192 273 Q 163 256 128 256 L 128 256 Z M 325 122 Q 320 118 315 122 L 235 190 L 235 190 Q 220 204 221 223 Q 223 242 240 254 L 336 316 L 336 316 L 336 416 L 336 416 L 336 424 L 336 424 L 352 424 L 352 424 L 352 416 L 352 416 L 352 312 L 352 312 L 352 308 L 352 308 L 348 305 L 348 305 L 248 241 L 248 241 Q 238 233 237 222 Q 237 211 246 202 L 320 138 L 320 138 L 403 206 L 403 206 L 405 208 L 405 208 L 408 208 L 496 208 L 496 192 L 496 192 L 488 192 L 411 192 L 325 122 L 325 122 Z" />
</svg>