<svg xmlns="http://www.w3.org/2000/svg" viewBox="0 0 512 512">
  <path d="M 290 210 L 285 216 L 290 210 L 285 216 L 296 227 L 296 227 L 302 222 L 302 222 L 496 27 L 496 27 L 496 168 L 496 168 L 496 176 L 496 176 L 512 176 L 512 176 L 512 168 L 512 168 L 512 8 L 512 8 L 512 0 L 512 0 L 504 0 L 336 0 L 336 16 L 336 16 L 344 16 L 485 16 L 290 210 L 290 210 Z M 222 302 L 227 296 L 222 302 L 227 296 L 216 285 L 216 285 L 210 290 L 210 290 L 16 485 L 16 485 L 16 344 L 16 344 L 16 336 L 16 336 L 0 336 L 0 336 L 0 344 L 0 344 L 0 504 L 0 504 L 0 512 L 0 512 L 8 512 L 176 512 L 176 496 L 176 496 L 168 496 L 27 496 L 222 302 L 222 302 Z" />
</svg>