<svg xmlns="http://www.w3.org/2000/svg" viewBox="0 0 448 448">
  <path d="M 432 320 L 16 320 L 432 320 L 16 320 L 16 432 L 16 432 L 432 432 L 432 432 L 432 320 L 432 320 Z M 421 304 L 288 171 L 421 304 L 288 171 L 198 262 L 198 262 L 155 304 L 155 304 L 421 304 L 421 304 Z M 138 298 L 181 256 L 138 298 L 181 256 L 128 203 L 128 203 L 27 304 L 27 304 L 133 304 L 133 304 L 138 298 L 138 298 Z M 16 16 L 16 293 L 16 16 L 16 293 L 122 186 L 122 186 L 128 181 L 128 181 L 134 186 L 134 186 L 192 245 L 192 245 L 282 154 L 282 154 L 288 149 L 288 149 L 294 154 L 294 154 L 432 293 L 432 293 L 432 16 L 432 16 L 16 16 L 16 16 Z M 448 304 L 448 312 L 448 304 L 448 312 L 448 320 L 448 320 L 448 432 L 448 432 L 448 448 L 448 448 L 432 448 L 0 448 L 0 432 L 0 432 L 0 320 L 0 320 L 0 312 L 0 312 L 0 304 L 0 304 L 0 16 L 0 16 L 0 0 L 0 0 L 16 0 L 448 0 L 448 16 L 448 16 L 448 304 L 448 304 Z M 88 112 Q 90 134 112 136 Q 134 134 136 112 Q 134 90 112 88 Q 90 90 88 112 L 88 112 Z M 112 152 Q 89 151 77 132 Q 67 112 77 92 Q 89 73 112 72 Q 135 73 147 92 Q 157 112 147 132 Q 135 151 112 152 L 112 152 Z" />
</svg>