<svg xmlns="http://www.w3.org/2000/svg" viewBox="0 0 640 512">
  <path d="M 512 316 L 512 112 L 512 316 L 512 112 L 496 112 L 496 112 L 496 303 L 496 303 L 512 316 L 512 316 Z M 424 246 L 424 160 L 424 246 L 424 160 L 424 152 L 424 152 L 408 152 L 408 152 L 408 160 L 408 160 L 408 234 L 408 234 L 424 246 L 424 246 Z M 312 341 L 312 416 L 312 341 L 312 416 L 312 424 L 312 424 L 328 424 L 328 424 L 328 416 L 328 416 L 328 354 L 328 354 L 312 341 L 312 341 Z M 216 266 L 216 416 L 216 266 L 216 416 L 216 424 L 216 424 L 232 424 L 232 424 L 232 416 L 232 416 L 232 278 L 232 278 L 216 266 L 216 266 Z M 144 209 L 128 196 L 144 209 L 128 196 L 128 504 L 128 504 L 128 512 L 128 512 L 136 512 L 512 512 L 512 504 L 512 504 L 512 499 L 512 499 L 508 496 L 508 496 L 496 496 L 144 496 L 144 209 L 144 209 Z M 193 64 L 213 80 L 193 64 L 213 80 L 544 80 L 544 80 L 544 64 L 544 64 L 428 64 L 428 64 L 391 4 L 391 4 L 388 0 L 388 0 L 384 0 L 252 0 L 249 4 L 249 4 L 212 64 L 212 64 L 193 64 L 193 64 Z M 380 16 L 410 64 L 380 16 L 410 64 L 230 64 L 230 64 L 260 16 L 260 16 L 380 16 L 380 16 Z M 16 5 L 10 0 L 16 5 L 10 0 L 0 13 L 0 13 L 6 18 L 6 18 L 624 507 L 624 507 L 630 512 L 630 512 L 640 500 L 640 500 L 634 495 L 634 495 L 16 5 L 16 5 Z" />
</svg>