<svg xmlns="http://www.w3.org/2000/svg" viewBox="0 0 448 448">
  <path d="M 432 16 L 432 432 L 432 16 L 432 432 L 16 432 L 16 432 L 16 16 L 16 16 L 432 16 L 432 16 Z M 16 0 L 0 0 L 16 0 L 0 0 L 0 16 L 0 16 L 0 432 L 0 432 L 0 448 L 0 448 L 16 448 L 448 448 L 448 432 L 448 432 L 448 16 L 448 16 L 448 0 L 448 0 L 432 0 L 16 0 Z M 80 80 L 80 88 L 80 80 L 80 88 L 80 360 L 80 360 L 80 368 L 80 368 L 88 368 L 368 368 L 368 360 L 368 360 L 368 88 L 368 88 L 368 80 L 368 80 L 360 80 L 216 80 L 216 88 L 216 88 L 216 185 L 216 185 Q 186 193 184 224 Q 184 241 196 252 Q 207 264 224 264 Q 241 264 252 252 Q 264 241 264 224 Q 262 193 232 185 L 232 96 L 232 96 L 352 96 L 352 96 L 352 352 L 352 352 L 96 352 L 96 352 L 96 96 L 96 96 L 152 96 L 160 96 L 160 80 L 160 80 L 152 80 L 80 80 Z M 224 248 Q 202 246 200 224 Q 202 202 224 200 Q 246 202 248 224 Q 246 246 224 248 L 224 248 Z" />
</svg>