<svg xmlns="http://www.w3.org/2000/svg" viewBox="0 0 448 512">
  <path d="M 0 136 Q 1 78 40 40 L 40 40 L 40 40 Q 78 1 136 0 L 152 0 L 152 0 Q 198 1 234 27 Q 269 53 283 98 L 316 210 L 316 210 L 337 180 L 337 180 L 342 173 L 342 173 L 349 178 L 349 178 L 441 246 L 441 246 L 448 251 L 448 251 L 443 257 L 443 257 L 368 368 L 368 368 L 348 368 L 348 368 L 426 255 L 426 255 L 346 195 L 346 195 L 320 233 L 320 233 L 310 247 L 310 247 L 306 231 L 306 231 L 267 102 L 267 102 Q 255 63 224 40 Q 193 17 152 16 L 136 16 L 136 16 Q 85 17 51 51 Q 17 85 16 136 L 16 144 L 16 144 Q 16 159 20 173 L 68 368 L 68 368 L 52 368 L 52 368 L 4 177 L 4 177 Q 0 161 0 144 L 0 136 L 0 136 Z M 48 416 L 48 496 L 48 416 L 48 496 L 368 496 L 368 496 L 368 416 L 368 416 L 48 416 L 48 416 Z M 32 400 L 48 400 L 32 400 L 384 400 L 384 416 L 384 416 L 384 496 L 384 496 L 384 512 L 384 512 L 368 512 L 32 512 L 32 496 L 32 496 L 32 416 L 32 416 L 32 400 L 32 400 Z" />
</svg>