<svg xmlns="http://www.w3.org/2000/svg" viewBox="0 0 640 448">
  <path d="M 16 16 L 560 16 L 16 16 L 560 16 L 560 124 L 560 124 L 564 120 L 564 120 Q 564 120 564 120 Q 564 120 564 120 L 576 108 L 576 108 L 576 16 L 576 16 L 576 0 L 576 0 L 560 0 L 0 0 L 0 16 L 0 16 L 0 368 L 0 368 L 0 384 L 0 384 L 16 384 L 327 384 L 329 368 L 329 368 L 16 368 L 16 368 L 16 16 L 16 16 Z M 256 240 L 256 256 L 256 240 L 256 256 L 384 256 L 384 256 L 384 240 L 384 240 L 256 240 L 256 240 Z M 480 144 L 256 144 L 480 144 L 256 144 L 256 160 L 256 160 L 480 160 L 480 160 L 480 144 L 480 144 Z M 152 88 L 136 88 L 152 88 L 136 88 L 136 96 L 136 96 L 136 112 L 136 112 Q 123 113 113 118 Q 93 127 89 147 Q 87 159 91 169 Q 96 178 104 183 Q 120 193 140 198 Q 140 198 140 198 L 142 199 L 142 199 Q 163 204 175 212 Q 180 216 183 221 Q 185 226 184 235 Q 182 247 169 252 Q 160 256 147 256 L 147 256 L 147 256 Q 140 256 133 255 Q 121 252 106 247 Q 105 247 104 246 Q 104 246 104 246 Q 104 246 104 246 Q 104 246 104 246 Q 104 246 104 246 Q 104 246 104 246 Q 104 246 104 246 Q 103 246 102 246 Q 100 245 99 245 L 91 242 L 91 242 L 86 257 L 86 257 L 94 260 L 94 260 Q 94 260 96 260 Q 97 261 99 262 Q 99 262 99 262 Q 99 262 99 262 Q 99 262 99 262 Q 99 262 99 262 Q 99 262 99 262 Q 99 262 99 262 Q 99 262 99 262 Q 116 268 131 271 Q 131 271 131 271 Q 131 271 131 271 Q 133 271 136 272 Q 136 272 136 272 L 136 288 L 136 288 L 136 296 L 136 296 L 152 296 L 152 296 L 152 288 L 152 288 L 152 272 L 152 272 Q 165 271 175 267 Q 195 259 199 237 Q 201 225 197 215 Q 193 205 184 199 Q 167 189 147 183 L 146 183 L 146 183 Q 146 183 146 183 Q 146 183 146 183 Q 126 178 113 170 Q 108 167 106 162 Q 103 158 105 150 Q 106 139 120 133 Q 134 127 155 129 Q 159 130 167 132 Q 174 133 178 134 L 182 119 L 182 119 Q 178 117 170 116 Q 162 114 157 114 Q 155 113 152 113 Q 152 113 152 113 L 152 96 L 152 96 L 152 88 L 152 88 Z M 563 160 L 366 357 L 563 160 L 366 357 L 355 431 L 355 431 L 352 448 L 352 448 L 369 445 L 369 445 L 443 434 L 443 434 L 629 248 L 629 248 L 640 237 L 640 237 L 629 226 L 629 226 L 574 171 L 574 171 L 563 160 L 563 160 Z M 381 364 L 519 226 L 381 364 L 519 226 L 574 281 L 574 281 L 436 419 L 436 419 L 371 429 L 371 429 L 381 364 L 381 364 Z M 617 237 L 585 269 L 617 237 L 585 269 L 530 215 L 530 215 L 563 183 L 563 183 L 617 237 L 617 237 Z" />
</svg>