<svg xmlns="http://www.w3.org/2000/svg" viewBox="0 0 512 512">
  <path d="M 152 0 Q 145 1 144 8 L 144 128 L 144 128 L 16 128 L 0 128 L 0 144 L 0 144 L 0 496 L 0 496 L 0 512 L 0 512 L 16 512 L 504 512 Q 511 511 512 504 L 512 200 L 512 200 Q 511 193 504 192 L 160 192 L 160 192 L 160 144 L 160 144 L 160 128 L 160 128 L 160 16 L 160 16 L 397 16 L 397 16 L 448 67 L 448 67 L 448 160 L 448 160 L 464 160 L 464 160 L 464 64 L 464 64 Q 464 61 462 58 L 406 2 L 406 2 Q 403 0 400 0 L 152 0 L 152 0 Z M 160 208 L 496 208 L 160 208 L 496 208 L 496 496 L 496 496 L 160 496 L 160 496 L 160 208 L 160 208 Z M 144 496 L 16 496 L 144 496 L 16 496 L 16 144 L 16 144 L 144 144 L 144 144 L 144 200 L 144 200 L 144 496 L 144 496 Z M 200 368 L 200 376 L 200 368 L 200 376 L 200 424 L 200 424 L 200 432 L 200 432 L 208 432 L 264 432 L 264 424 L 264 424 L 264 376 L 264 376 L 264 368 L 264 368 L 256 368 L 200 368 Z M 216 384 L 248 384 L 216 384 L 248 384 L 248 416 L 248 416 L 216 416 L 216 416 L 216 384 L 216 384 Z M 304 368 L 296 368 L 304 368 L 296 368 L 296 376 L 296 376 L 296 424 L 296 424 L 296 432 L 296 432 L 304 432 L 360 432 L 360 424 L 360 424 L 360 376 L 360 376 L 360 368 L 360 368 L 352 368 L 304 368 Z M 312 416 L 312 384 L 312 416 L 312 384 L 344 384 L 344 384 L 344 416 L 344 416 L 312 416 L 312 416 Z M 392 368 L 392 376 L 392 368 L 392 376 L 392 424 L 392 424 L 392 432 L 392 432 L 400 432 L 456 432 L 456 424 L 456 424 L 456 376 L 456 376 L 456 368 L 456 368 L 448 368 L 392 368 Z M 408 384 L 440 384 L 408 384 L 440 384 L 440 416 L 440 416 L 408 416 L 408 416 L 408 384 L 408 384 Z M 208 272 L 200 272 L 208 272 L 200 272 L 200 280 L 200 280 L 200 328 L 200 328 L 200 336 L 200 336 L 208 336 L 264 336 L 264 328 L 264 328 L 264 280 L 264 280 L 264 272 L 264 272 L 256 272 L 208 272 Z M 216 320 L 216 288 L 216 320 L 216 288 L 248 288 L 248 288 L 248 320 L 248 320 L 216 320 L 216 320 Z M 296 272 L 296 280 L 296 272 L 296 280 L 296 328 L 296 328 L 296 336 L 296 336 L 304 336 L 360 336 L 360 328 L 360 328 L 360 280 L 360 280 L 360 272 L 360 272 L 352 272 L 296 272 Z M 312 288 L 344 288 L 312 288 L 344 288 L 344 320 L 344 320 L 312 320 L 312 320 L 312 288 L 312 288 Z M 400 272 L 392 272 L 400 272 L 392 272 L 392 280 L 392 280 L 392 328 L 392 328 L 392 336 L 392 336 L 400 336 L 456 336 L 456 328 L 456 328 L 456 280 L 456 280 L 456 272 L 456 272 L 448 272 L 400 272 Z M 408 320 L 408 288 L 408 320 L 408 288 L 440 288 L 440 288 L 440 320 L 440 320 L 408 320 L 408 320 Z" />
</svg>