<svg xmlns="http://www.w3.org/2000/svg" viewBox="0 0 512 512">
  <path d="M 256 16 Q 321 17 376 48 L 376 48 L 376 48 Q 431 80 464 136 Q 496 193 496 256 Q 496 319 464 376 Q 431 432 376 464 Q 321 495 256 496 Q 191 495 136 464 Q 81 432 48 376 Q 16 319 16 256 Q 16 193 48 136 Q 81 80 136 48 Q 191 17 256 16 L 256 16 Z M 256 512 Q 326 511 384 478 L 384 478 L 384 478 Q 442 444 478 384 Q 512 323 512 256 Q 512 189 478 128 Q 442 68 384 34 Q 326 1 256 0 Q 186 1 128 34 Q 70 68 34 128 Q 0 189 0 256 Q 0 323 34 384 Q 70 444 128 478 Q 186 511 256 512 L 256 512 Z M 353 427 L 352 412 L 353 427 L 352 412 Q 347 376 321 352 Q 294 329 256 328 Q 218 329 191 352 Q 165 376 160 412 L 159 427 L 159 427 L 172 420 L 172 420 Q 209 401 256 400 Q 303 401 340 420 L 353 427 L 353 427 Z M 333 399 Q 298 384 256 384 Q 214 384 179 399 Q 187 375 208 360 Q 228 344 256 344 Q 284 344 304 360 Q 325 375 333 399 L 333 399 Z M 176 256 Q 191 255 192 240 Q 191 225 176 224 Q 162 225 160 240 Q 162 255 176 256 L 176 256 Z M 352 240 Q 351 225 336 224 Q 322 225 320 240 Q 322 255 336 256 Q 351 255 352 240 L 352 240 Z M 131 168 L 123 166 L 131 168 L 123 166 L 118 181 L 118 181 L 125 184 L 125 184 L 221 216 L 221 216 L 229 218 L 229 218 L 234 203 L 234 203 L 227 200 L 227 200 L 131 168 L 131 168 Z M 387 184 L 394 181 L 387 184 L 394 181 L 389 166 L 389 166 L 381 168 L 381 168 L 285 200 L 285 200 L 278 203 L 278 203 L 283 218 L 283 218 L 291 216 L 291 216 L 387 184 L 387 184 Z" />
</svg>