<svg xmlns="http://www.w3.org/2000/svg" viewBox="0 0 637 509">
  <path d="M 256 0 Q 241 0 229 10 L 229 10 L 229 10 Q 217 20 210 33 Q 193 62 192 89 L 192 168 L 192 168 L 192 177 L 192 177 L 4 281 L 4 281 L 0 283 L 0 283 L 0 288 L 0 288 L 0 376 L 0 376 L 0 386 L 0 386 L 10 384 L 10 384 L 192 333 L 192 333 L 192 344 L 192 344 L 192 388 L 192 388 L 131 433 L 131 433 L 128 436 L 128 436 L 128 440 L 128 440 L 128 496 L 128 496 L 128 506 L 128 506 L 138 503 L 138 503 L 256 472 L 256 472 L 365 501 L 365 501 L 365 485 L 365 485 L 258 456 L 258 456 L 256 456 L 254 456 L 144 485 L 144 485 L 144 444 L 144 444 L 205 398 L 205 398 L 208 396 L 208 396 L 208 392 L 208 392 L 208 344 L 208 344 L 208 323 L 208 323 L 208 312 L 208 312 L 208 182 L 208 182 L 208 168 L 208 168 L 208 89 L 208 89 Q 208 67 223 41 Q 239 16 256 16 Q 273 16 289 41 Q 303 67 304 89 L 304 168 L 304 168 L 304 182 L 304 182 L 304 186 L 304 186 L 304 312 L 304 312 L 304 323 L 304 323 L 304 344 L 304 344 L 304 392 L 304 392 L 304 396 L 304 396 L 307 398 L 307 398 L 333 417 L 333 417 Q 329 406 327 393 L 320 388 L 320 388 L 320 344 L 320 344 L 320 333 L 320 333 L 327 335 L 327 335 Q 329 327 331 319 L 320 316 L 320 316 L 320 195 L 320 195 L 386 232 L 386 232 Q 392 226 400 221 L 320 177 L 320 177 L 320 168 L 320 168 L 320 89 L 320 89 Q 319 62 302 33 Q 295 20 283 10 Q 271 0 256 0 L 256 0 Z M 16 293 L 192 195 L 16 293 L 192 195 L 192 317 L 192 317 L 16 365 L 16 365 L 16 293 L 16 293 Z M 493 237 Q 528 237 557 254 L 557 254 L 557 254 Q 586 271 604 301 Q 621 331 621 365 Q 621 399 604 429 Q 586 459 557 476 Q 528 493 493 493 Q 458 493 429 476 Q 400 459 382 429 Q 365 399 365 365 Q 365 331 382 301 Q 400 271 429 254 Q 458 237 493 237 L 493 237 Z M 493 509 Q 532 509 565 490 L 565 490 L 565 490 Q 598 471 618 437 Q 637 403 637 365 Q 637 327 618 293 Q 598 259 565 240 Q 532 221 493 221 Q 454 221 421 240 Q 388 259 368 293 Q 349 327 349 365 Q 349 403 368 437 Q 388 471 421 490 Q 454 509 493 509 L 493 509 Z M 568 325 L 557 314 L 568 325 L 557 314 L 551 319 L 551 319 L 477 394 L 477 394 L 435 351 L 435 351 L 429 346 L 429 346 L 418 357 L 418 357 L 423 363 L 423 363 L 471 411 L 471 411 L 477 416 L 477 416 L 483 411 L 483 411 L 563 331 L 563 331 L 569 325 L 568 325 Z" />
</svg>