<svg xmlns="http://www.w3.org/2000/svg" viewBox="0 0 512 416">
  <path d="M 160 192 L 192 192 L 160 192 L 416 192 L 416 224 L 416 224 L 416 384 L 416 384 L 480 384 L 480 384 L 480 128 L 480 128 L 192 128 L 160 128 L 160 96 L 160 96 L 160 45 L 160 45 L 45 160 L 45 160 L 160 275 L 160 275 L 160 224 L 160 224 L 160 192 L 160 192 Z M 192 288 L 192 320 L 192 288 L 192 320 L 160 320 L 160 320 L 23 183 L 23 183 L 0 160 L 0 160 L 23 137 L 23 137 L 160 0 L 160 0 L 192 0 L 192 0 L 192 32 L 192 32 L 192 64 L 192 64 L 192 96 L 192 96 L 224 96 L 512 96 L 512 128 L 512 128 L 512 384 L 512 384 L 512 416 L 512 416 L 480 416 L 384 416 L 384 384 L 384 384 L 384 256 L 384 256 L 384 224 L 384 224 L 352 224 L 192 224 L 192 256 L 192 256 L 192 288 L 192 288 Z" />
</svg>