<svg xmlns="http://www.w3.org/2000/svg" viewBox="0 0 448 512">
  <path d="M 0 56 Q 1 32 16 16 L 16 16 L 16 16 Q 32 1 56 0 L 440 0 L 448 0 L 448 8 L 448 8 L 448 408 L 448 408 L 448 416 L 448 416 L 440 416 L 416 416 L 416 496 L 416 496 L 440 496 L 448 496 L 448 512 L 448 512 L 440 512 L 56 512 Q 32 511 16 496 Q 1 480 0 456 L 0 56 L 0 56 Z M 56 416 Q 39 416 28 428 L 28 428 L 28 428 Q 16 439 16 456 Q 16 473 28 484 Q 39 496 56 496 L 400 496 L 400 496 L 400 416 L 400 416 L 56 416 L 56 416 Z M 16 417 Q 32 401 56 400 L 432 400 L 432 400 L 432 16 L 432 16 L 56 16 L 56 16 Q 39 16 28 28 Q 16 39 16 56 L 16 417 L 16 417 Z M 302 87 Q 336 105 356 136 L 356 136 L 356 136 Q 375 168 376 208 Q 375 266 336 304 Q 298 343 240 344 Q 182 343 144 304 Q 105 266 104 208 Q 105 168 124 136 Q 144 105 178 87 L 188 99 L 188 99 Q 176 115 176 136 Q 177 163 194 181 L 199 186 L 199 186 L 195 191 L 195 191 Q 184 205 184 224 Q 184 246 198 261 Q 211 276 232 279 L 232 247 L 232 247 L 220 255 L 220 255 L 214 259 L 214 259 L 205 246 L 205 246 L 212 241 L 212 241 L 226 232 L 226 232 L 212 223 L 212 223 L 205 218 L 205 218 L 214 205 L 214 205 L 220 209 L 220 209 L 232 217 L 232 217 L 232 88 L 232 88 L 232 80 L 232 80 L 248 80 L 248 80 L 248 88 L 248 88 L 248 217 L 248 217 L 260 209 L 260 209 L 266 205 L 266 205 L 275 218 L 275 218 L 269 223 L 269 223 L 255 232 L 255 232 L 269 241 L 269 241 L 275 246 L 275 246 L 266 259 L 266 259 L 260 255 L 260 255 L 248 247 L 248 247 L 248 279 L 248 279 Q 269 276 282 261 Q 296 246 296 224 Q 296 205 285 191 L 281 185 L 281 185 L 286 181 L 286 181 Q 303 163 304 136 Q 304 115 292 99 L 302 87 L 302 87 Z M 320 136 Q 319 166 302 187 Q 312 203 312 224 Q 311 255 291 275 Q 271 295 240 296 Q 209 295 189 275 Q 169 255 168 224 Q 168 203 178 187 Q 161 166 160 136 Q 160 126 162 117 Q 139 136 128 165 L 150 186 L 150 186 L 155 192 L 155 192 L 144 203 L 144 203 L 138 198 L 138 198 L 123 182 L 123 182 Q 120 193 120 205 L 150 234 L 150 234 L 155 240 L 155 240 L 144 251 L 144 251 L 138 246 L 138 246 L 122 229 L 122 229 Q 130 272 163 300 Q 195 327 240 328 Q 285 327 317 300 Q 350 272 358 229 L 342 246 L 342 246 L 336 251 L 336 251 L 325 240 L 325 240 L 330 234 L 330 234 L 360 205 L 360 205 Q 360 193 357 182 L 342 198 L 342 198 L 336 203 L 336 203 L 325 192 L 325 192 L 330 186 L 330 186 L 352 165 L 352 165 Q 341 136 318 116 Q 320 126 320 136 L 320 136 Z" />
</svg>