<svg xmlns="http://www.w3.org/2000/svg" viewBox="0 0 512 448">
  <path d="M 128 0 L 152 0 L 128 0 L 384 0 L 384 24 L 384 24 L 384 96 L 384 96 L 432 96 L 432 96 L 512 176 L 512 176 L 512 272 L 512 272 L 512 320 L 512 320 L 512 400 L 512 400 L 512 448 L 512 448 L 464 448 L 0 448 L 0 400 L 0 400 L 0 320 L 0 320 L 0 272 L 0 272 L 0 176 L 0 176 L 80 96 L 80 96 L 128 96 L 128 96 L 128 24 L 128 24 L 128 0 L 128 0 Z M 48 320 L 48 400 L 48 320 L 48 400 L 464 400 L 464 400 L 464 320 L 464 320 L 368 320 L 368 320 L 368 336 L 368 336 L 368 360 L 368 360 L 320 360 L 320 360 L 320 336 L 320 336 L 320 320 L 320 320 L 192 320 L 192 320 L 192 336 L 192 336 L 192 360 L 192 360 L 144 360 L 144 360 L 144 336 L 144 336 L 144 320 L 144 320 L 48 320 L 48 320 Z M 464 272 L 464 196 L 464 272 L 464 196 L 412 144 L 412 144 L 100 144 L 100 144 L 48 196 L 48 196 L 48 272 L 48 272 L 144 272 L 144 272 L 144 256 L 144 256 L 144 232 L 144 232 L 192 232 L 192 232 L 192 256 L 192 256 L 192 272 L 192 272 L 320 272 L 320 272 L 320 256 L 320 256 L 320 232 L 320 232 L 368 232 L 368 232 L 368 256 L 368 256 L 368 272 L 368 272 L 464 272 L 464 272 Z M 336 48 L 176 48 L 336 48 L 176 48 L 176 96 L 176 96 L 336 96 L 336 96 L 336 48 L 336 48 Z" />
</svg>