<svg xmlns="http://www.w3.org/2000/svg" viewBox="0 0 512 512">
  <path d="M 248 505 L 256 512 L 248 505 L 256 512 L 264 505 L 264 505 L 500 299 L 500 299 L 504 295 L 504 295 L 512 288 L 512 288 L 503 278 L 503 278 L 501 276 L 501 276 L 270 16 L 270 16 L 267 12 L 267 12 L 262 7 L 262 7 L 256 0 L 256 0 L 250 7 L 250 7 L 245 12 L 245 12 L 242 16 L 242 16 L 11 276 L 11 276 L 9 278 L 9 278 L 0 288 L 0 288 L 8 295 L 8 295 L 12 299 L 12 299 L 248 505 L 248 505 Z M 28 291 L 166 265 L 28 291 L 166 265 L 248 324 L 248 324 L 248 484 L 248 484 L 28 291 L 28 291 Z M 178 253 L 256 25 L 178 253 L 256 25 L 335 253 L 335 253 L 256 310 L 256 310 L 178 253 L 178 253 Z M 283 55 L 478 273 L 283 55 L 478 273 L 350 249 L 350 249 L 283 55 L 283 55 Z M 484 291 L 264 484 L 484 291 L 264 484 L 264 324 L 264 324 L 346 264 L 346 264 L 484 291 L 484 291 Z M 229 55 L 162 249 L 229 55 L 162 249 L 35 273 L 35 273 L 229 55 L 229 55 Z" />
</svg>