<svg xmlns="http://www.w3.org/2000/svg" viewBox="0 0 576 512">
  <path d="M 112 8 L 112 0 L 112 8 L 112 0 L 96 0 L 96 0 L 96 8 L 96 8 L 96 112 L 96 112 L 112 112 L 112 112 L 112 8 L 112 8 Z M 288 8 L 288 0 L 288 8 L 288 0 L 272 0 L 272 0 L 272 8 L 272 8 L 272 112 L 272 112 L 288 112 L 288 112 L 288 8 L 288 8 Z M 8 144 L 0 144 L 8 144 L 0 144 L 0 160 L 0 160 L 8 160 L 40 160 L 40 240 L 40 240 Q 41 302 82 345 Q 122 387 184 392 L 184 504 L 184 504 L 184 512 L 184 512 L 200 512 L 200 512 L 200 504 L 200 504 L 200 392 L 200 392 Q 230 390 256 378 Q 256 373 256 368 Q 256 364 256 360 Q 256 360 256 360 Q 227 376 192 376 Q 134 375 96 336 Q 57 298 56 240 L 56 160 L 56 160 L 328 160 L 328 160 L 328 226 L 328 226 Q 336 220 344 216 L 344 160 L 344 160 L 376 160 L 384 160 L 384 144 L 384 144 L 376 144 L 8 144 Z M 432 240 Q 467 240 496 257 L 496 257 L 496 257 Q 525 274 543 304 Q 560 334 560 368 Q 560 402 543 432 Q 525 462 496 479 Q 467 496 432 496 Q 397 496 368 479 Q 339 462 321 432 Q 304 402 304 368 Q 304 334 321 304 Q 339 274 368 257 Q 397 240 432 240 L 432 240 Z M 432 512 Q 471 512 504 493 L 504 493 L 504 493 Q 537 474 557 440 Q 576 406 576 368 Q 576 330 557 296 Q 537 262 504 243 Q 471 224 432 224 Q 393 224 360 243 Q 327 262 307 296 Q 288 330 288 368 Q 288 406 307 440 Q 327 474 360 493 Q 393 512 432 512 L 432 512 Z M 457 281 L 439 298 L 457 281 L 439 298 L 355 378 L 355 378 L 340 392 L 340 392 L 360 392 L 412 392 L 404 430 L 404 430 L 399 455 L 399 455 L 417 438 L 417 438 L 501 358 L 501 358 L 516 344 L 516 344 L 496 344 L 444 344 L 452 306 L 452 306 L 457 281 L 457 281 Z M 380 376 L 431 327 L 380 376 L 431 327 L 427 350 L 427 350 L 425 360 L 425 360 L 435 360 L 476 360 L 425 409 L 425 409 L 430 386 L 430 386 L 431 376 L 431 376 L 422 376 L 380 376 Z" />
</svg>