<svg xmlns="http://www.w3.org/2000/svg" viewBox="0 0 640 512">
  <path d="M 464 128 L 464 144 L 464 128 L 464 144 L 480 144 L 480 144 Q 514 145 537 167 Q 559 190 560 224 L 560 304 L 560 304 L 480 304 L 80 304 L 80 224 L 80 224 Q 80 197 95 177 Q 110 157 133 149 L 144 145 L 144 145 L 144 133 L 144 133 L 144 112 L 144 112 Q 145 71 172 44 Q 199 17 240 16 Q 291 18 319 57 L 327 69 L 327 69 L 340 61 L 340 61 Q 360 48 384 48 Q 418 49 441 71 Q 463 94 464 128 L 464 128 Z M 64 320 L 80 320 L 64 320 L 576 320 L 576 304 L 576 304 L 576 224 L 576 224 Q 575 183 548 156 Q 521 129 480 128 Q 479 87 452 60 Q 425 33 384 32 Q 355 32 332 48 Q 299 2 240 0 Q 192 1 161 33 Q 129 64 128 112 L 128 134 L 128 134 Q 100 144 82 168 Q 65 192 64 224 L 64 304 L 64 304 L 64 320 L 64 320 Z M 0 400 L 0 416 L 0 400 L 0 416 L 8 416 L 576 416 L 576 400 L 576 400 L 568 400 L 0 400 Z M 64 496 L 64 512 L 64 496 L 64 512 L 72 512 L 224 512 L 224 496 L 224 496 L 216 496 L 64 496 Z M 288 496 L 288 512 L 288 496 L 288 512 L 296 512 L 640 512 L 640 496 L 640 496 L 632 496 L 288 496 Z" />
</svg>