<svg xmlns="http://www.w3.org/2000/svg" viewBox="0 0 384 512">
  <path d="M 16 496 L 16 16 L 16 496 L 16 16 L 208 16 L 208 16 L 208 168 L 208 168 L 208 176 L 208 176 L 216 176 L 368 176 L 368 496 L 368 496 L 16 496 L 16 496 Z M 224 23 L 361 160 L 224 23 L 361 160 L 224 160 L 224 160 L 224 23 L 224 23 Z M 224 0 L 16 0 L 224 0 L 0 0 L 0 16 L 0 16 L 0 496 L 0 496 L 0 512 L 0 512 L 16 512 L 384 512 L 384 496 L 384 496 L 384 160 L 384 160 L 224 0 L 224 0 Z M 122 239 L 111 250 L 122 239 L 111 250 L 116 256 L 116 256 L 181 320 L 181 320 L 116 385 L 116 385 L 110 390 L 110 390 L 122 402 L 122 402 L 127 396 L 127 396 L 192 331 L 192 331 L 257 396 L 257 396 L 262 402 L 262 402 L 274 390 L 274 390 L 268 385 L 268 385 L 203 320 L 203 320 L 268 255 L 268 255 L 274 250 L 274 250 L 262 238 L 262 238 L 257 244 L 257 244 L 192 309 L 192 309 L 127 244 L 127 244 L 122 238 L 122 239 Z" />
</svg>