<svg xmlns="http://www.w3.org/2000/svg" viewBox="0 0 491 448">
  <path d="M 121 438 L 115 443 L 121 438 L 115 443 L 109 438 L 109 438 L 5 334 L 5 334 L 0 328 L 0 328 L 11 317 L 11 317 L 17 322 L 17 322 L 107 413 L 107 413 L 107 8 L 107 8 L 107 0 L 107 0 L 123 0 L 123 0 L 123 8 L 123 8 L 123 413 L 123 413 L 213 322 L 213 322 L 219 317 L 219 317 L 230 328 L 230 328 L 225 334 L 225 334 L 121 438 L 121 438 Z M 451 16 L 291 16 L 451 16 L 291 16 L 291 176 L 291 176 L 451 176 L 451 176 L 451 16 L 451 16 Z M 291 0 L 451 0 L 291 0 L 467 0 L 467 16 L 467 16 L 467 176 L 467 176 L 467 192 L 467 192 L 451 192 L 275 192 L 275 176 L 275 176 L 275 16 L 275 16 L 275 0 L 275 0 L 291 0 L 291 0 Z M 251 448 L 261 432 L 251 448 L 261 432 L 362 271 L 362 271 L 371 256 L 371 256 L 380 271 L 380 271 L 481 432 L 481 432 L 491 448 L 491 448 L 472 448 L 251 448 Z M 462 432 L 371 286 L 462 432 L 371 286 L 280 432 L 280 432 L 462 432 L 462 432 Z" />
</svg>