<svg xmlns="http://www.w3.org/2000/svg" viewBox="0 0 512 512">
  <path d="M 112 16 Q 149 17 175 39 L 175 39 L 175 39 Q 201 62 207 97 Q 208 104 208 112 L 224 112 L 224 112 Q 224 103 223 95 Q 216 54 185 27 Q 155 1 112 0 Q 64 1 33 33 Q 1 64 0 112 Q 1 155 27 185 Q 54 216 95 223 Q 103 224 112 224 L 112 208 L 112 208 Q 104 208 97 207 Q 62 201 39 175 Q 17 149 16 112 Q 17 71 44 44 Q 71 17 112 16 L 112 16 Z M 145 134 Q 152 124 152 112 Q 152 95 140 84 Q 129 72 112 72 Q 95 72 84 84 Q 72 95 72 112 Q 72 129 84 140 Q 95 152 112 152 Q 124 152 134 145 L 160 171 L 160 171 L 160 341 L 160 341 L 134 367 L 134 367 Q 124 360 112 360 Q 95 360 84 372 Q 72 383 72 400 Q 72 417 84 428 Q 95 440 112 440 Q 129 440 140 428 Q 152 417 152 400 Q 152 388 145 378 L 171 352 L 171 352 L 341 352 L 341 352 L 367 378 L 367 378 Q 360 388 360 400 Q 360 417 372 428 Q 383 440 400 440 Q 417 440 428 428 Q 440 417 440 400 Q 440 383 428 372 Q 417 360 400 360 Q 388 360 378 367 L 352 341 L 352 341 L 352 171 L 352 171 L 378 145 L 378 145 Q 388 152 400 152 Q 417 152 428 140 Q 440 129 440 112 Q 440 95 428 84 Q 417 72 400 72 Q 383 72 372 84 Q 360 95 360 112 Q 360 124 367 134 L 341 160 L 341 160 L 171 160 L 171 160 L 145 134 L 145 134 Z M 176 176 L 336 176 L 176 176 L 336 176 L 336 336 L 336 336 L 176 336 L 176 336 L 176 176 L 176 176 Z M 496 112 Q 495 149 473 175 L 473 175 L 473 175 Q 450 201 415 207 Q 408 208 400 208 L 400 224 L 400 224 Q 409 224 417 223 Q 458 216 485 185 Q 511 155 512 112 Q 511 64 479 33 Q 448 1 400 0 Q 357 1 327 27 Q 296 54 289 95 Q 288 103 288 112 L 304 112 L 304 112 Q 304 104 305 97 Q 311 62 337 39 Q 363 17 400 16 Q 441 17 468 44 Q 495 71 496 112 L 496 112 Z M 112 496 Q 71 495 44 468 L 44 468 L 44 468 Q 17 441 16 400 Q 17 363 39 337 Q 62 311 97 305 Q 104 304 112 304 L 112 288 L 112 288 Q 103 288 95 289 Q 54 296 27 327 Q 1 357 0 400 Q 1 448 33 479 Q 64 511 112 512 Q 155 511 185 485 Q 216 458 223 417 Q 224 409 224 400 L 208 400 L 208 400 Q 208 408 207 415 Q 201 450 175 473 Q 149 495 112 496 L 112 496 Z M 496 400 Q 495 441 468 468 L 468 468 L 468 468 Q 441 495 400 496 Q 363 495 337 473 Q 311 450 305 415 Q 304 408 304 400 L 288 400 L 288 400 Q 288 409 289 417 Q 296 458 327 485 Q 357 511 400 512 Q 448 511 479 479 Q 511 448 512 400 Q 511 357 485 327 Q 458 296 417 289 Q 409 288 400 288 L 400 304 L 400 304 Q 408 304 415 305 Q 450 311 473 337 Q 495 363 496 400 L 496 400 Z M 112 424 Q 90 422 88 400 Q 90 378 112 376 Q 134 378 136 400 Q 134 422 112 424 L 112 424 Z M 136 112 Q 134 134 112 136 Q 90 134 88 112 Q 90 90 112 88 Q 134 90 136 112 L 136 112 Z M 400 424 Q 378 422 376 400 Q 378 378 400 376 Q 422 378 424 400 Q 422 422 400 424 L 400 424 Z M 424 112 Q 422 134 400 136 Q 378 134 376 112 Q 378 90 400 88 Q 422 90 424 112 L 424 112 Z" />
</svg>