<svg xmlns="http://www.w3.org/2000/svg" viewBox="0 0 448 512">
  <path d="M 16 8 L 16 0 L 16 8 L 16 0 L 0 0 L 0 0 L 0 8 L 0 8 L 0 64 L 0 64 L 0 384 L 0 384 L 0 400 L 0 400 L 0 504 L 0 504 L 0 512 L 0 512 L 16 512 L 16 512 L 16 504 L 16 504 L 16 396 L 16 396 L 128 368 L 128 368 Q 192 353 251 381 Q 320 415 393 389 L 448 368 L 448 368 L 448 34 L 448 34 L 448 16 L 448 16 L 432 24 L 432 24 L 394 43 L 394 43 Q 358 61 320 61 Q 282 61 247 43 Q 192 17 133 31 L 16 60 L 16 60 L 16 8 L 16 8 Z M 16 77 L 137 46 L 16 77 L 137 46 Q 190 34 239 58 Q 278 77 320 77 Q 362 77 401 58 L 432 42 L 432 42 L 432 357 L 432 357 L 387 374 L 387 374 Q 321 397 258 367 Q 194 336 124 352 L 16 380 L 16 380 L 16 77 L 16 77 Z" />
</svg>