<svg xmlns="http://www.w3.org/2000/svg" viewBox="0 0 640 512">
  <path d="M 201 197 L 205 192 L 201 197 L 205 192 L 245 148 L 245 148 Q 264 126 264 97 Q 263 55 226 30 Q 205 16 164 16 Q 128 17 101 36 Q 74 55 55 86 Q 35 117 26 153 Q 16 190 16 224 Q 16 249 22 275 Q 27 300 40 322 Q 63 365 118 368 Q 158 367 184 340 Q 211 314 209 277 L 201 204 L 201 204 L 201 197 L 201 197 Z M 219 216 L 225 276 L 219 216 L 225 276 Q 227 320 195 352 Q 164 383 118 384 Q 74 383 48 358 Q 22 333 11 296 Q 0 260 0 224 Q 0 175 18 124 Q 37 73 73 38 Q 109 3 163 0 Q 208 0 235 17 Q 278 45 280 97 Q 280 132 257 159 L 221 199 L 221 199 L 283 225 L 283 225 L 288 227 L 288 227 L 288 232 L 288 232 L 288 504 L 288 504 L 288 512 L 288 512 L 272 512 L 272 512 L 272 504 L 272 504 L 272 237 L 272 237 L 219 216 L 219 216 Z M 439 197 L 439 204 L 439 197 L 439 204 L 431 277 L 431 277 Q 429 314 456 340 Q 482 367 522 368 Q 577 365 600 322 Q 613 300 618 275 Q 624 249 624 224 Q 624 190 614 153 Q 605 117 585 86 Q 566 55 539 36 Q 512 17 476 16 Q 435 16 414 30 Q 377 55 376 97 Q 376 126 396 148 L 435 192 L 435 192 L 439 197 L 439 197 Z M 421 218 L 368 238 L 421 218 L 368 238 L 368 504 L 368 504 L 368 512 L 368 512 L 352 512 L 352 512 L 352 504 L 352 504 L 352 232 L 352 232 L 352 226 L 352 226 L 357 225 L 357 225 L 421 201 L 421 201 L 384 159 L 384 159 Q 360 132 360 97 Q 362 45 405 17 Q 432 0 477 0 Q 531 3 567 38 Q 603 73 622 124 Q 640 175 640 224 Q 640 260 629 296 Q 618 333 592 358 Q 566 383 522 384 Q 476 383 445 352 Q 413 320 416 276 L 421 218 L 421 218 Z" />
</svg>