<svg xmlns="http://www.w3.org/2000/svg" viewBox="0 0 512 320">
  <path d="M 176 200 L 192 200 L 176 200 L 496 200 L 496 120 L 496 120 L 192 120 L 176 120 L 176 104 L 176 104 L 176 16 L 176 16 L 167 16 L 167 16 L 23 160 L 23 160 L 167 304 L 167 304 L 176 304 L 176 304 L 176 216 L 176 216 L 176 200 L 176 200 Z M 160 320 L 11 171 L 160 320 L 11 171 L 0 160 L 0 160 L 11 149 L 11 149 L 160 0 L 160 0 L 176 0 L 192 0 L 192 16 L 192 16 L 192 88 L 192 88 L 192 104 L 192 104 L 208 104 L 512 104 L 512 120 L 512 120 L 512 200 L 512 200 L 512 216 L 512 216 L 496 216 L 192 216 L 192 232 L 192 232 L 192 304 L 192 304 L 192 320 L 192 320 L 176 320 L 160 320 Z" />
</svg>