<svg xmlns="http://www.w3.org/2000/svg" viewBox="0 0 576 512">
  <path d="M 16 496 L 311 496 L 16 496 L 311 496 Q 320 505 331 512 L 16 512 L 0 512 L 0 496 L 0 496 L 0 16 L 0 16 L 0 0 L 0 0 L 16 0 L 224 0 L 384 160 L 384 160 L 384 199 L 384 199 Q 376 201 368 204 L 368 176 L 368 176 L 216 176 L 208 176 L 208 168 L 208 168 L 208 16 L 208 16 L 16 16 L 16 16 L 16 496 L 16 496 Z M 361 160 L 224 23 L 361 160 L 224 23 L 224 160 L 224 160 L 361 160 L 361 160 Z M 432 496 Q 467 496 496 479 L 496 479 L 496 479 Q 525 462 543 432 Q 560 402 560 368 Q 560 334 543 304 Q 525 274 496 257 Q 467 240 432 240 Q 397 240 368 257 Q 339 274 321 304 Q 304 334 304 368 Q 304 402 321 432 Q 339 462 368 479 Q 397 496 432 496 L 432 496 Z M 432 224 Q 471 224 504 243 L 504 243 L 504 243 Q 537 262 557 296 Q 576 330 576 368 Q 576 406 557 440 Q 537 474 504 493 Q 471 512 432 512 Q 393 512 360 493 Q 327 474 307 440 Q 288 406 288 368 Q 288 330 307 296 Q 327 262 360 243 Q 393 224 432 224 L 432 224 Z M 512 376 L 504 376 L 512 376 L 352 376 L 352 360 L 352 360 L 360 360 L 512 360 L 512 376 L 512 376 Z" />
</svg>