<svg xmlns="http://www.w3.org/2000/svg" viewBox="0 0 448 512">
  <path d="M 160 160 L 144 160 L 160 160 L 64 160 L 64 176 L 64 176 L 64 192 L 64 192 L 213 341 L 213 341 L 224 352 L 224 352 L 235 341 L 235 341 L 384 192 L 384 192 L 384 176 L 384 176 L 384 160 L 384 160 L 368 160 L 288 160 L 288 144 L 288 144 L 288 16 L 288 16 L 288 0 L 288 0 L 272 0 L 160 0 L 160 16 L 160 16 L 160 144 L 160 144 L 160 160 L 160 160 Z M 160 176 L 176 176 L 160 176 L 176 176 L 176 160 L 176 160 L 176 16 L 176 16 L 272 16 L 272 16 L 272 160 L 272 160 L 272 176 L 272 176 L 288 176 L 368 176 L 368 185 L 368 185 L 224 329 L 224 329 L 80 185 L 80 185 L 80 176 L 80 176 L 160 176 L 160 176 Z M 16 328 L 16 320 L 16 328 L 16 320 L 0 320 L 0 320 L 0 328 L 0 328 L 0 504 L 0 504 Q 1 511 8 512 L 440 512 L 440 512 Q 447 511 448 504 L 448 328 L 448 328 L 448 320 L 448 320 L 432 320 L 432 320 L 432 328 L 432 328 L 432 496 L 432 496 L 16 496 L 16 496 L 16 328 L 16 328 Z" />
</svg>