<svg xmlns="http://www.w3.org/2000/svg" viewBox="0 0 448 448">
  <path d="M 296 0 L 288 0 L 296 0 L 288 0 L 288 16 L 288 16 L 296 16 L 421 16 L 224 213 L 224 213 L 27 16 L 27 16 L 152 16 L 160 16 L 160 0 L 160 0 L 152 0 L 0 0 L 0 8 L 0 8 L 0 152 L 0 152 L 0 160 L 0 160 L 16 160 L 16 160 L 16 152 L 16 152 L 16 27 L 16 27 L 213 224 L 213 224 L 16 421 L 16 421 L 16 296 L 16 296 L 16 288 L 16 288 L 0 288 L 0 288 L 0 296 L 0 296 L 0 440 L 0 440 L 0 448 L 0 448 L 8 448 L 160 448 L 160 432 L 160 432 L 152 432 L 27 432 L 224 235 L 224 235 L 421 432 L 421 432 L 296 432 L 288 432 L 288 448 L 288 448 L 296 448 L 448 448 L 448 440 L 448 440 L 448 296 L 448 296 L 448 288 L 448 288 L 432 288 L 432 288 L 432 296 L 432 296 L 432 421 L 432 421 L 235 224 L 235 224 L 432 27 L 432 27 L 432 152 L 432 152 L 432 160 L 432 160 L 448 160 L 448 160 L 448 152 L 448 152 L 448 8 L 448 8 L 448 0 L 448 0 L 440 0 L 296 0 Z" />
</svg>