<svg xmlns="http://www.w3.org/2000/svg" viewBox="0 0 640 480">
  <path d="M 16 0 L 0 0 L 16 0 L 0 0 L 0 8 L 0 8 L 0 168 L 0 168 Q 0 185 12 196 Q 23 208 40 208 L 64 208 L 64 208 L 64 472 L 64 472 L 64 480 L 64 480 L 80 480 L 80 480 L 80 472 L 80 472 L 80 208 L 80 208 L 104 208 L 104 208 Q 121 208 132 196 Q 144 185 144 168 L 144 8 L 144 8 L 144 0 L 144 0 L 128 0 L 128 0 L 128 8 L 128 8 L 128 168 L 128 168 Q 126 190 104 192 L 80 192 L 80 192 L 80 8 L 80 8 L 80 0 L 80 0 L 64 0 L 64 0 L 64 8 L 64 8 L 64 192 L 64 192 L 40 192 L 40 192 Q 18 190 16 168 L 16 8 L 16 8 L 16 0 L 16 0 Z M 498 63 Q 432 2 336 0 Q 242 2 176 61 L 176 83 L 176 83 Q 207 52 248 34 Q 289 16 336 16 Q 429 18 491 79 Q 494 70 498 63 L 498 63 Z M 539 336 Q 511 394 457 428 L 457 428 L 457 428 Q 404 463 336 464 Q 266 463 212 427 Q 158 391 131 331 Q 124 334 116 335 Q 144 400 203 440 Q 261 479 336 480 Q 411 479 469 440 Q 527 401 556 336 L 544 336 L 544 336 Q 541 336 539 336 L 539 336 Z M 480 240 Q 480 201 461 168 L 461 168 L 461 168 Q 442 135 408 115 Q 374 96 336 96 Q 298 96 264 115 Q 230 135 211 168 Q 192 201 192 240 Q 192 279 211 312 Q 230 345 264 365 Q 298 384 336 384 Q 374 384 408 365 Q 442 345 461 312 Q 480 279 480 240 L 480 240 Z M 208 240 Q 208 205 225 176 L 225 176 L 225 176 Q 242 147 272 129 Q 302 112 336 112 Q 370 112 400 129 Q 430 147 447 176 Q 464 205 464 240 Q 464 275 447 304 Q 430 333 400 351 Q 370 368 336 368 Q 302 368 272 351 Q 242 333 225 304 Q 208 275 208 240 L 208 240 Z M 624 5 Q 606 11 580 28 L 580 28 L 580 28 Q 554 44 533 72 L 533 72 L 533 72 Q 513 101 512 144 L 512 288 L 512 288 L 512 304 L 512 304 L 528 304 L 624 304 L 624 472 L 624 472 L 624 480 L 624 480 L 640 480 L 640 480 L 640 472 L 640 472 L 640 304 L 640 304 L 640 296 L 640 296 L 640 288 L 640 288 L 640 17 L 640 17 L 640 0 L 640 0 Q 639 0 624 5 L 624 5 Z M 624 22 L 624 288 L 624 22 L 624 288 L 528 288 L 528 288 L 528 144 L 528 144 Q 529 108 545 83 Q 562 58 585 43 Q 607 29 624 22 L 624 22 Z" />
</svg>