<svg xmlns="http://www.w3.org/2000/svg" viewBox="0 0 512 512">
  <path d="M 248 0 L 248 8 L 248 0 L 248 8 L 248 165 L 248 165 L 174 90 L 174 90 L 168 85 L 168 85 L 157 96 L 157 96 L 162 102 L 162 102 L 250 190 L 250 190 L 256 195 L 256 195 L 262 190 L 262 190 L 350 102 L 350 102 L 356 96 L 356 96 L 344 85 L 344 85 L 338 90 L 338 90 L 264 165 L 264 165 L 264 8 L 264 8 L 264 0 L 264 0 L 248 0 L 248 0 Z M 416 157 L 410 162 L 416 157 L 410 162 L 322 250 L 322 250 L 317 256 L 317 256 L 322 262 L 322 262 L 410 350 L 410 350 L 416 356 L 416 356 L 427 344 L 427 344 L 422 338 L 422 338 L 347 264 L 347 264 L 504 264 L 512 264 L 512 248 L 512 248 L 504 248 L 347 248 L 422 174 L 422 174 L 427 168 L 427 168 L 416 157 L 416 157 Z M 256 240 Q 271 241 272 256 Q 271 271 256 272 Q 241 271 240 256 Q 241 241 256 240 L 256 240 Z M 256 288 Q 270 288 279 279 L 279 279 L 279 279 Q 288 270 288 256 Q 288 242 279 233 Q 270 224 256 224 Q 242 224 233 233 Q 224 242 224 256 Q 224 270 233 279 Q 242 288 256 288 L 256 288 Z M 102 162 L 96 157 L 102 162 L 96 157 L 85 168 L 85 168 L 90 174 L 90 174 L 165 248 L 165 248 L 8 248 L 0 248 L 0 264 L 0 264 L 8 264 L 165 264 L 90 338 L 90 338 L 85 344 L 85 344 L 96 355 L 96 355 L 102 350 L 102 350 L 190 262 L 190 262 L 195 256 L 195 256 L 190 250 L 190 250 L 102 162 L 102 162 Z M 162 410 L 157 416 L 162 410 L 157 416 L 168 427 L 168 427 L 174 422 L 174 422 L 248 347 L 248 347 L 248 504 L 248 504 L 248 512 L 248 512 L 264 512 L 264 512 L 264 504 L 264 504 L 264 347 L 264 347 L 338 422 L 338 422 L 344 427 L 344 427 L 355 416 L 355 416 L 350 410 L 350 410 L 262 322 L 262 322 L 256 317 L 256 317 L 250 322 L 250 322 L 162 410 L 162 410 Z" />
</svg>