<svg xmlns="http://www.w3.org/2000/svg" viewBox="0 0 512 512">
  <path d="M 16 256 Q 17 189 49 135 L 49 135 L 49 135 Q 81 81 135 49 L 135 49 L 135 49 Q 189 17 256 16 L 264 16 L 264 16 L 264 0 L 264 0 L 256 0 L 256 0 Q 184 1 127 35 Q 69 69 35 127 Q 1 184 0 256 Q 1 328 35 385 Q 69 443 127 477 Q 184 511 256 512 L 264 512 L 264 512 L 264 496 L 264 496 L 256 496 L 256 496 Q 189 495 135 463 Q 81 431 49 377 Q 17 323 16 256 L 16 256 Z M 315 122 L 163 250 L 315 122 L 163 250 L 155 256 L 155 256 L 163 262 L 163 262 L 315 390 L 315 390 L 321 395 L 321 395 L 331 383 L 331 383 L 325 378 L 325 378 L 190 264 L 190 264 L 504 264 L 512 264 L 512 248 L 512 248 L 504 248 L 190 248 L 325 134 L 325 134 L 331 129 L 331 129 L 321 117 L 321 117 L 315 122 L 315 122 Z" />
</svg>