<svg xmlns="http://www.w3.org/2000/svg" viewBox="0 0 574 512">
  <path d="M 263 60 L 254 48 L 263 60 L 254 48 Q 240 32 220 32 Q 201 32 189 45 Q 176 57 176 76 L 176 79 L 176 79 Q 176 98 190 113 L 215 137 L 215 137 L 288 211 L 288 211 L 361 137 L 361 137 L 386 112 L 386 112 Q 400 98 400 79 L 400 76 L 400 76 Q 400 57 387 45 Q 375 32 356 32 Q 336 32 322 48 L 313 60 L 313 60 L 288 91 L 288 91 L 263 60 L 263 60 Z M 384 160 L 311 233 L 384 160 L 311 233 L 288 256 L 288 256 L 265 233 L 265 233 L 192 160 L 192 160 L 167 135 L 167 135 Q 144 112 144 79 L 144 75 L 144 75 Q 145 43 166 22 Q 188 1 220 0 Q 246 0 266 16 Q 273 21 279 28 L 288 40 L 288 40 L 297 28 L 297 28 Q 303 21 310 16 Q 330 0 356 0 Q 388 1 410 22 Q 431 43 432 76 L 432 79 L 432 79 Q 432 112 409 135 L 384 160 L 384 160 Z M 171 304 L 176 304 L 171 304 L 400 304 L 400 320 L 400 320 L 400 384 L 400 384 L 400 384 L 400 384 L 504 322 L 504 322 L 517 314 L 517 314 L 526 328 L 526 328 L 566 392 L 566 392 L 574 405 L 574 405 L 561 414 L 561 414 L 409 510 L 409 510 L 405 512 L 405 512 L 400 512 L 0 512 L 0 480 L 0 480 L 16 480 L 395 480 L 530 395 L 530 395 L 507 358 L 507 358 L 413 414 L 413 414 L 409 416 L 409 416 L 405 416 L 240 416 L 240 384 L 240 384 L 256 384 L 368 384 L 368 336 L 368 336 L 181 336 L 181 336 L 89 397 L 89 397 L 85 400 L 85 400 L 80 400 L 0 400 L 0 368 L 0 368 L 16 368 L 75 368 L 167 307 L 167 307 L 171 304 L 171 304 Z" />
</svg>