<svg xmlns="http://www.w3.org/2000/svg" viewBox="0 0 640 512">
  <path d="M 556 302 Q 552 324 564 344 L 564 344 L 564 344 Q 576 363 600 368 L 600 368 L 600 368 L 607 368 L 607 368 Q 607 368 607 368 L 608 368 L 624 368 L 624 384 L 624 384 L 624 384 L 624 384 L 624 400 L 624 400 L 608 400 L 608 400 Q 608 400 608 400 Q 608 400 608 400 L 600 400 L 544 400 Q 530 400 521 409 Q 512 418 512 432 Q 512 446 521 455 Q 530 464 544 464 L 560 464 L 560 464 L 560 480 L 560 480 L 560 496 L 560 496 L 544 496 L 16 496 L 16 480 L 16 480 L 16 464 L 16 464 L 32 464 L 45 464 Q 65 463 79 452 Q 93 441 100 425 Q 116 392 102 357 Q 80 311 80 256 Q 81 189 113 135 Q 145 81 199 49 Q 253 17 320 16 Q 387 17 441 49 Q 495 81 527 135 Q 559 189 560 256 Q 560 279 556 302 L 556 302 Z M 607 352 Q 589 351 579 337 L 579 337 L 579 337 Q 568 323 571 305 Q 576 281 576 256 Q 575 184 541 127 Q 507 69 449 35 Q 392 1 320 0 Q 248 1 191 35 Q 133 69 99 127 Q 65 184 64 256 Q 64 314 88 364 Q 99 391 86 418 Q 73 446 45 448 L 40 448 L 0 448 L 0 456 L 0 456 L 0 480 L 0 480 L 0 504 L 0 504 L 0 512 L 0 512 L 8 512 L 576 512 L 576 504 L 576 504 L 576 480 L 576 480 L 576 456 L 576 456 L 576 448 L 576 448 L 568 448 L 544 448 Q 529 447 528 432 Q 529 417 544 416 L 600 416 L 608 416 Q 608 416 608 416 Q 608 416 608 416 L 632 416 L 640 416 L 640 408 L 640 408 L 640 384 L 640 384 L 640 384 L 640 384 L 640 384 L 640 384 L 640 360 L 640 360 L 640 352 L 640 352 L 632 352 L 607 352 Q 607 352 607 352 Q 607 352 607 352 L 607 352 Z M 271 193 Q 273 184 267 178 Q 260 171 251 173 Q 243 176 240 185 Q 238 194 244 201 Q 251 207 260 205 Q 268 202 271 193 L 271 193 Z M 406 246 Q 415 248 422 242 Q 428 235 426 226 Q 423 218 414 215 Q 405 213 399 219 Q 392 226 394 235 Q 397 243 406 246 L 406 246 Z M 285 371 Q 323 381 353 373 L 353 373 L 353 373 Q 384 365 404 351 L 395 338 L 395 338 Q 377 350 350 357 Q 323 364 289 356 Q 256 346 235 327 Q 215 307 206 287 L 192 294 L 192 294 Q 202 316 225 338 Q 247 360 285 371 L 285 371 Z" />
</svg>