<svg xmlns="http://www.w3.org/2000/svg" viewBox="0 0 512 384">
  <path d="M 58 68 Q 30 88 17 115 Q 17 116 17 116 Q 17 116 17 117 Q 19 121 24 128 Q 33 143 58 163 Q 84 183 131 198 Q 179 214 256 215 Q 333 214 381 198 Q 428 183 454 163 Q 479 143 488 128 Q 493 121 495 117 Q 495 116 495 115 Q 482 88 454 68 Q 428 48 381 32 Q 333 17 256 16 Q 179 17 131 32 Q 84 48 58 68 L 58 68 Z M 16 144 L 16 267 L 16 144 L 16 267 Q 29 295 58 316 Q 84 336 131 351 Q 179 367 256 368 Q 333 367 381 351 Q 428 336 454 316 Q 483 295 496 267 L 496 144 L 496 144 Q 485 159 463 176 Q 436 197 385 214 Q 335 230 256 231 Q 177 230 127 214 Q 76 197 49 176 Q 27 159 16 144 L 16 144 Z M 463 55 Q 496 78 512 114 L 512 270 L 512 270 Q 496 306 463 329 Q 436 350 385 367 Q 335 383 256 384 Q 177 383 127 367 Q 76 350 49 329 Q 16 306 0 270 L 0 114 L 0 114 Q 16 78 49 55 Q 76 33 127 17 Q 177 1 256 0 Q 335 1 385 17 Q 436 33 463 55 L 463 55 Z" />
</svg>