<svg xmlns="http://www.w3.org/2000/svg" viewBox="0 0 640 512">
  <path d="M 164 8 L 256 57 L 164 8 L 256 57 L 348 8 L 348 8 L 362 0 L 362 0 L 367 16 L 367 16 L 382 65 L 382 65 Q 374 68 367 72 L 352 23 L 352 23 L 264 71 L 264 71 L 256 75 L 256 75 L 248 71 L 248 71 L 160 23 L 160 23 L 131 120 L 131 120 L 128 128 L 128 128 L 120 131 L 120 131 L 23 160 L 23 160 L 71 249 L 71 249 L 75 256 L 75 256 L 71 264 L 71 264 L 23 352 L 23 352 L 120 381 L 120 381 L 128 384 L 128 384 L 131 392 L 131 392 L 160 489 L 160 489 L 249 441 L 249 441 L 256 437 L 256 437 L 264 441 L 264 441 L 353 489 L 353 489 L 367 440 L 367 440 Q 374 444 382 447 L 367 496 L 367 496 L 362 512 L 362 512 L 348 504 L 348 504 L 256 455 L 256 455 L 164 504 L 164 504 L 150 512 L 150 512 L 145 496 L 145 496 L 115 397 L 115 397 L 16 367 L 16 367 L 0 362 L 0 362 L 8 348 L 8 348 L 57 256 L 57 256 L 8 164 L 8 164 L 0 150 L 0 150 L 16 145 L 16 145 L 115 115 L 115 115 L 145 16 L 145 16 L 150 0 L 150 0 L 164 8 L 164 8 Z M 256 144 Q 272 144 286 148 Q 282 155 278 163 Q 267 160 256 160 Q 215 161 188 188 Q 161 215 160 256 Q 161 297 188 324 Q 215 351 256 352 Q 267 352 278 349 Q 282 357 286 364 Q 272 368 256 368 Q 208 367 177 335 Q 145 304 144 256 Q 145 208 177 177 Q 208 145 256 144 L 256 144 Z M 624 256 Q 624 213 603 176 L 603 176 L 603 176 Q 581 139 544 117 Q 506 96 464 96 Q 422 96 384 117 Q 347 139 325 176 Q 304 213 304 256 Q 304 299 325 336 Q 347 373 384 395 Q 422 416 464 416 Q 506 416 544 395 Q 581 373 603 336 Q 624 299 624 256 L 624 256 Z M 288 256 Q 288 208 312 168 L 312 168 L 312 168 Q 335 128 376 104 Q 418 80 464 80 Q 510 80 552 104 Q 593 128 616 168 Q 640 208 640 256 Q 640 304 616 344 Q 593 384 552 408 Q 510 432 464 432 Q 418 432 376 408 Q 335 384 312 344 Q 288 304 288 256 L 288 256 Z" />
</svg>