<svg xmlns="http://www.w3.org/2000/svg" viewBox="0 0 480 456">
  <path d="M 102 52 Q 31 110 18 196 L 34 196 L 34 196 Q 47 118 112 64 Q 176 16 250 20 Q 325 24 382 76 L 334 124 L 334 124 L 323 135 L 323 135 L 334 146 L 334 146 L 352 164 L 352 164 L 464 164 L 480 164 L 480 148 L 480 148 L 480 36 L 480 36 L 462 18 L 462 18 L 451 7 L 451 7 L 440 18 L 440 18 L 393 65 L 393 65 Q 332 9 251 4 Q 171 0 102 52 L 102 52 Z M 451 30 L 464 43 L 451 30 L 464 43 L 464 148 L 464 148 L 359 148 L 359 148 L 346 135 L 346 135 L 451 30 L 451 30 Z M 29 449 L 40 438 L 29 449 L 40 438 L 86 392 L 86 392 Q 148 448 228 452 Q 308 456 377 405 Q 448 346 461 260 L 444 260 L 444 260 Q 432 338 367 392 Q 303 440 229 436 Q 155 432 97 381 L 146 332 L 146 332 L 157 321 L 157 321 L 146 310 L 146 310 L 128 292 L 128 292 L 16 292 L 0 292 L 0 308 L 0 308 L 0 420 L 0 420 L 18 438 L 18 438 L 29 449 L 29 449 Z M 29 426 L 16 413 L 29 426 L 16 413 L 16 308 L 16 308 L 121 308 L 121 308 L 134 321 L 134 321 L 29 426 L 29 426 Z" />
</svg>