<svg xmlns="http://www.w3.org/2000/svg" viewBox="0 0 640 320">
  <path d="M 48 16 L 48 304 L 48 16 L 48 304 L 16 304 L 16 304 L 16 16 L 16 16 L 48 16 L 48 16 Z M 16 0 L 0 0 L 16 0 L 0 0 L 0 16 L 0 16 L 0 304 L 0 304 L 0 320 L 0 320 L 16 320 L 64 320 L 64 304 L 64 304 L 64 288 L 64 288 L 576 288 L 576 288 L 576 304 L 576 304 L 576 320 L 576 320 L 592 320 L 640 320 L 640 304 L 640 304 L 640 16 L 640 16 L 640 0 L 640 0 L 624 0 L 576 0 L 576 16 L 576 16 L 576 32 L 576 32 L 64 32 L 64 32 L 64 16 L 64 16 L 64 0 L 64 0 L 48 0 L 16 0 Z M 576 48 L 576 272 L 576 48 L 576 272 L 64 272 L 64 272 L 64 48 L 64 48 L 576 48 L 576 48 Z M 592 16 L 624 16 L 592 16 L 624 16 L 624 304 L 624 304 L 592 304 L 592 304 L 592 16 L 592 16 Z" />
</svg>