<svg xmlns="http://www.w3.org/2000/svg" viewBox="0 0 538 512">
  <path d="M 278 17 L 356 164 L 278 17 L 356 164 L 519 192 L 519 192 L 538 196 L 538 196 L 525 210 L 525 210 L 409 329 L 409 329 L 433 493 L 433 493 L 435 512 L 435 512 L 418 503 L 418 503 L 269 430 L 269 430 L 120 503 L 120 503 L 103 512 L 103 512 L 106 493 L 106 493 L 129 329 L 129 329 L 13 210 L 13 210 L 0 196 L 0 196 L 19 192 L 19 192 L 183 164 L 183 164 L 260 17 L 260 17 L 269 0 L 269 0 L 278 17 L 278 17 Z M 353 180 L 345 178 L 353 180 L 345 178 L 341 171 L 341 171 L 277 49 L 277 49 L 277 416 L 277 416 L 415 484 L 415 484 L 393 331 L 393 331 L 392 323 L 392 323 L 398 317 L 398 317 L 506 206 L 506 206 L 353 180 L 353 180 Z M 261 50 L 197 171 L 261 50 L 197 171 L 193 178 L 193 178 L 185 180 L 185 180 L 33 206 L 33 206 L 141 317 L 141 317 L 146 323 L 146 323 L 145 331 L 145 331 L 123 484 L 123 484 L 261 416 L 261 416 L 261 50 L 261 50 Z" />
</svg>