<svg xmlns="http://www.w3.org/2000/svg" viewBox="0 0 576 512">
  <path d="M 176 128 Q 177 80 209 49 L 209 49 L 209 49 Q 240 17 288 16 Q 336 17 367 49 Q 399 80 400 128 L 400 136 L 400 136 L 416 136 L 416 136 L 416 128 L 416 128 Q 415 74 379 37 Q 342 1 288 0 Q 234 1 197 37 Q 161 74 160 128 Q 160 160 175 187 Q 189 214 214 232 L 155 326 L 155 326 Q 142 320 128 320 Q 101 321 83 339 Q 65 357 64 384 Q 65 411 83 429 Q 101 447 128 448 Q 155 447 173 429 Q 191 411 192 384 Q 191 353 168 334 L 231 234 L 231 234 L 235 227 L 235 227 L 229 223 L 229 223 Q 205 208 190 183 Q 176 158 176 128 L 176 128 Z M 176 384 Q 175 411 152 426 Q 128 439 104 426 Q 81 411 80 384 Q 81 357 104 343 Q 128 330 152 343 Q 175 357 176 384 L 176 384 Z M 288 176 Q 261 175 246 152 Q 234 128 246 104 Q 261 81 288 80 Q 315 81 330 104 Q 342 128 330 152 Q 315 175 288 176 L 288 176 Z M 224 128 Q 225 155 243 173 L 243 173 L 243 173 Q 261 191 288 192 Q 303 192 315 186 L 378 287 L 378 287 L 382 293 L 382 293 L 389 289 L 389 289 Q 415 272 448 272 Q 496 273 527 305 Q 559 336 560 384 Q 559 432 527 463 Q 496 495 448 496 Q 415 496 389 479 L 382 475 L 382 475 L 373 488 L 373 488 L 380 493 L 380 493 Q 410 512 448 512 Q 502 511 539 475 Q 575 438 576 384 Q 575 330 539 293 Q 502 257 448 256 Q 415 256 387 271 L 329 178 L 329 178 Q 351 159 352 128 Q 351 101 333 83 Q 315 65 288 64 Q 261 65 243 83 Q 225 101 224 128 L 224 128 Z M 68 289 L 75 285 L 68 289 L 75 285 L 67 272 L 67 272 L 60 276 L 60 276 Q 32 293 16 321 Q 0 349 0 384 Q 1 438 37 475 Q 74 511 128 512 Q 180 511 216 477 Q 251 443 256 392 L 385 392 L 385 392 Q 388 416 405 432 Q 423 447 448 448 Q 475 447 493 429 Q 511 411 512 384 Q 511 357 493 339 Q 475 321 448 320 Q 423 321 405 336 Q 388 352 385 376 L 248 376 L 240 376 L 240 384 L 240 384 Q 239 432 207 463 Q 176 495 128 496 Q 80 495 49 463 Q 17 432 16 384 Q 16 354 30 329 Q 44 304 68 289 L 68 289 Z M 496 384 Q 495 411 472 426 Q 448 438 424 426 Q 401 411 400 384 Q 401 357 424 342 Q 448 330 472 342 Q 495 357 496 384 L 496 384 Z" />
</svg>