<svg xmlns="http://www.w3.org/2000/svg" viewBox="0 0 512 512">
  <path d="M 273 353 L 385 244 L 273 353 L 385 244 L 402 228 L 402 228 L 369 193 L 369 193 L 351 210 L 351 210 L 280 279 L 280 279 L 280 24 L 280 24 L 280 0 L 280 0 L 232 0 L 232 0 L 232 24 L 232 24 L 232 279 L 232 279 L 161 210 L 161 210 L 144 193 L 144 193 L 110 228 L 110 228 L 127 244 L 127 244 L 239 353 L 239 353 L 256 370 L 256 370 L 273 353 L 273 353 Z M 24 32 L 0 32 L 24 32 L 0 32 L 0 56 L 0 56 L 0 488 L 0 488 L 0 512 L 0 512 L 24 512 L 512 512 L 512 488 L 512 488 L 512 56 L 512 56 L 512 32 L 512 32 L 488 32 L 368 32 L 368 80 L 368 80 L 392 80 L 464 80 L 464 464 L 464 464 L 48 464 L 48 464 L 48 80 L 48 80 L 120 80 L 144 80 L 144 32 L 144 32 L 120 32 L 24 32 Z" />
</svg>