<svg xmlns="http://www.w3.org/2000/svg" viewBox="0 0 640 448">
  <path d="M 88 0 Q 95 1 96 8 L 96 221 L 96 221 L 104 228 L 104 228 L 146 179 L 146 179 L 152 172 L 152 172 L 158 178 L 158 178 L 302 322 L 302 322 L 304 325 L 304 325 L 304 328 L 304 328 L 304 440 L 304 440 L 304 448 L 304 448 L 288 448 L 288 448 L 288 440 L 288 440 L 288 331 L 288 331 L 153 196 L 153 196 L 115 240 L 115 240 L 190 314 L 190 314 L 198 322 L 198 322 L 203 328 L 203 328 L 192 339 L 192 339 L 186 334 L 186 334 L 178 326 L 178 326 L 98 246 L 98 246 L 93 240 L 93 240 L 82 230 L 82 230 Q 80 227 80 224 L 80 16 L 80 16 L 16 16 L 16 16 L 16 317 L 16 317 L 134 434 L 134 434 L 122 446 L 122 446 L 2 326 L 2 326 Q 0 323 0 320 L 0 8 L 0 8 Q 1 1 8 0 L 88 0 L 88 0 Z M 544 8 Q 545 1 552 0 L 632 0 L 632 0 Q 639 1 640 8 L 640 320 L 640 320 Q 640 323 638 326 L 518 446 L 518 446 L 506 434 L 506 434 L 624 317 L 624 317 L 624 16 L 624 16 L 560 16 L 560 16 L 560 224 L 560 224 Q 560 227 558 230 L 547 241 L 547 241 L 542 246 L 542 246 L 462 326 L 462 326 L 454 334 L 454 334 L 448 339 L 448 339 L 437 328 L 437 328 L 442 322 L 442 322 L 450 314 L 450 314 L 525 240 L 525 240 L 488 196 L 488 196 L 352 331 L 352 331 L 352 440 L 352 440 L 352 448 L 352 448 L 336 448 L 336 448 L 336 440 L 336 440 L 336 328 L 336 328 L 336 325 L 336 325 L 338 322 L 338 322 L 482 178 L 482 178 L 488 172 L 488 172 L 494 179 L 494 179 L 536 228 L 536 228 L 544 221 L 544 221 L 544 8 L 544 8 Z" />
</svg>