<svg xmlns="http://www.w3.org/2000/svg" viewBox="0 0 448 448">
  <path d="M 432 16 L 16 16 L 432 16 L 16 16 L 16 432 L 16 432 L 432 432 L 432 432 L 432 16 L 432 16 Z M 448 0 L 448 16 L 448 0 L 448 16 L 448 432 L 448 432 L 448 448 L 448 448 L 432 448 L 0 448 L 0 432 L 0 432 L 0 16 L 0 16 L 0 0 L 0 0 L 16 0 L 448 0 Z M 224 192 L 112 192 L 224 192 L 112 192 L 112 256 L 112 256 L 224 256 L 240 256 L 240 272 L 240 272 L 240 336 L 240 336 L 241 336 L 241 336 L 353 224 L 353 224 L 241 112 L 241 112 L 240 112 L 240 112 L 240 176 L 240 176 L 240 192 L 240 192 L 224 192 L 224 192 Z M 365 213 L 376 224 L 365 213 L 376 224 L 365 235 L 365 235 L 248 352 L 248 352 L 240 352 L 224 352 L 224 336 L 224 336 L 224 288 L 224 288 L 224 272 L 224 272 L 208 272 L 96 272 L 96 256 L 96 256 L 96 192 L 96 192 L 96 176 L 96 176 L 112 176 L 224 176 L 224 160 L 224 160 L 224 112 L 224 112 L 224 96 L 224 96 L 240 96 L 248 96 L 365 213 L 365 213 Z" />
</svg>