<svg xmlns="http://www.w3.org/2000/svg" viewBox="0 0 448 512">
  <path d="M 160 0 L 288 0 L 160 0 L 292 0 L 295 4 L 295 4 L 332 64 L 332 64 L 448 64 L 448 64 L 448 80 L 448 80 L 0 80 L 0 80 L 0 64 L 0 64 L 116 64 L 116 64 L 153 4 L 153 4 L 156 0 L 156 0 L 160 0 L 160 0 Z M 314 64 L 284 16 L 314 64 L 284 16 L 164 16 L 164 16 L 134 64 L 134 64 L 314 64 L 314 64 Z M 32 504 L 32 112 L 32 504 L 32 112 L 48 112 L 48 112 L 48 496 L 48 496 L 400 496 L 400 496 L 400 112 L 400 112 L 416 112 L 416 112 L 416 504 L 416 504 L 416 512 L 416 512 L 408 512 L 32 512 L 32 504 L 32 504 Z M 136 160 L 136 416 L 136 160 L 136 416 L 136 424 L 136 424 L 120 424 L 120 424 L 120 416 L 120 416 L 120 160 L 120 160 L 120 152 L 120 152 L 136 152 L 136 152 L 136 160 L 136 160 Z M 232 160 L 232 416 L 232 160 L 232 416 L 232 424 L 232 424 L 216 424 L 216 424 L 216 416 L 216 416 L 216 160 L 216 160 L 216 152 L 216 152 L 232 152 L 232 152 L 232 160 L 232 160 Z M 328 160 L 328 416 L 328 160 L 328 416 L 328 424 L 328 424 L 312 424 L 312 424 L 312 416 L 312 416 L 312 160 L 312 160 L 312 152 L 312 152 L 328 152 L 328 152 L 328 160 L 328 160 Z" />
</svg>