<svg xmlns="http://www.w3.org/2000/svg" viewBox="0 0 512 512">
  <path d="M 56 8 L 56 0 L 56 8 L 56 0 L 40 0 L 40 0 L 40 8 L 40 8 L 40 40 L 40 40 L 8 40 L 0 40 L 0 56 L 0 56 L 8 56 L 40 56 L 40 88 L 40 88 L 40 96 L 40 96 L 56 96 L 56 96 L 56 88 L 56 88 L 56 56 L 56 56 L 88 56 L 96 56 L 96 40 L 96 40 L 88 40 L 56 40 L 56 8 L 56 8 Z M 472 360 L 472 352 L 472 360 L 472 352 L 456 352 L 456 352 L 456 360 L 456 360 L 456 392 L 456 392 L 424 392 L 416 392 L 416 408 L 416 408 L 424 408 L 456 408 L 456 440 L 456 440 L 456 448 L 456 448 L 472 448 L 472 448 L 472 440 L 472 440 L 472 408 L 472 408 L 504 408 L 512 408 L 512 392 L 512 392 L 504 392 L 472 392 L 472 360 L 472 360 Z M 104 448 L 96 448 L 104 448 L 96 448 L 96 456 L 96 456 L 96 504 L 96 504 L 96 512 L 96 512 L 112 512 L 112 512 L 112 504 L 112 504 L 112 464 L 112 464 L 400 464 L 400 464 L 400 504 L 400 504 L 400 512 L 400 512 L 416 512 L 416 512 L 416 504 L 416 504 L 416 456 L 416 456 L 416 448 L 416 448 L 408 448 L 104 448 Z M 96 256 L 96 272 L 96 256 L 96 272 L 104 272 L 416 272 L 416 256 L 416 256 L 408 256 L 96 256 Z M 232 0 L 224 0 L 232 0 L 224 0 L 224 16 L 224 16 L 232 16 L 288 16 L 288 0 L 288 0 L 280 0 L 232 0 Z" />
</svg>