<svg xmlns="http://www.w3.org/2000/svg" viewBox="0 0 640 512">
  <path d="M 16 5 L 10 0 L 16 5 L 10 0 L 0 13 L 0 13 L 6 18 L 6 18 L 624 507 L 624 507 L 630 512 L 630 512 L 640 500 L 640 500 L 634 495 L 634 495 L 16 5 L 16 5 Z M 367 202 L 560 139 L 367 202 L 560 139 L 560 324 L 560 324 Q 532 290 480 288 Q 479 288 478 288 Q 478 288 477 288 L 499 306 L 499 306 Q 545 317 557 351 L 576 366 L 576 366 L 576 128 L 576 128 L 576 16 L 576 16 L 576 5 L 576 5 L 566 8 L 566 8 L 246 104 L 246 104 L 245 105 L 245 105 L 260 117 L 260 117 L 560 27 L 560 27 L 560 122 L 560 122 L 352 190 L 352 190 L 367 202 L 367 202 Z M 240 285 L 240 388 L 240 285 L 240 388 Q 212 354 160 352 Q 119 353 92 375 Q 65 398 64 432 Q 65 466 92 489 Q 119 511 160 512 Q 201 511 228 489 Q 255 466 256 432 Q 256 432 256 432 Q 256 432 256 432 L 256 297 L 256 297 L 240 285 L 240 285 Z M 240 432 Q 240 432 240 432 L 240 432 L 240 432 Q 240 432 240 432 Q 239 457 218 476 Q 196 495 160 496 Q 124 495 102 476 Q 81 457 80 432 Q 81 407 102 388 Q 124 369 160 368 Q 196 369 218 388 Q 239 407 240 432 L 240 432 Z" />
</svg>