<svg xmlns="http://www.w3.org/2000/svg" viewBox="0 0 504 512">
  <path d="M 476 0 L 480 4 L 476 0 L 480 4 L 490 14 L 490 14 Q 504 28 504 47 Q 504 66 490 80 Q 479 90 465 91 Q 451 91 440 82 L 382 141 L 382 141 Q 382 141 382 141 Q 382 141 382 141 L 271 251 L 271 251 Q 295 274 314 275 Q 332 277 343 271 Q 354 264 354 263 Q 354 263 354 263 L 366 276 L 366 276 L 378 287 L 378 287 L 366 298 L 366 298 L 349 316 L 349 316 Q 335 329 317 336 Q 316 337 316 337 Q 316 337 316 337 Q 298 345 283 358 Q 264 378 253 404 Q 241 430 235 449 Q 227 475 208 493 Q 188 510 160 511 Q 128 512 103 488 L 23 407 L 23 407 Q 0 383 0 352 Q 0 321 23 297 Q 39 281 62 275 Q 92 267 122 250 Q 152 234 168 205 Q 171 200 173 195 Q 181 176 194 161 L 224 132 L 224 132 L 235 121 L 235 121 L 246 132 L 246 132 L 259 144 L 259 144 Q 259 144 259 144 Q 259 144 259 144 Q 257 145 248 159 Q 239 172 238 194 Q 236 215 259 239 L 260 240 L 260 240 L 368 132 L 368 132 L 368 55 L 368 55 L 368 50 L 368 50 L 373 48 L 373 48 L 471 2 L 471 2 L 476 0 L 476 0 Z M 384 116 L 434 65 L 384 116 L 434 65 L 440 60 L 440 60 L 446 65 L 446 65 L 449 69 L 449 69 Q 464 81 479 69 Q 488 59 488 47 Q 488 35 479 25 L 473 19 L 473 19 L 384 60 L 384 60 L 384 116 L 384 116 Z M 238 146 L 235 143 L 238 146 L 235 143 L 206 173 L 206 173 Q 199 179 194 190 Q 192 194 190 199 Q 189 200 189 201 L 188 202 L 188 202 Q 188 202 188 202 Q 186 207 183 213 Q 163 247 131 264 Q 98 282 66 290 Q 47 296 34 309 Q 16 328 16 352 Q 16 377 34 396 L 34 396 L 34 396 Q 34 396 34 396 L 115 477 L 115 477 Q 115 477 115 477 Q 115 477 115 477 Q 134 496 160 495 Q 181 494 197 480 Q 213 467 220 445 Q 225 425 238 397 Q 251 369 271 347 Q 290 331 308 323 L 309 323 L 309 323 Q 327 314 338 304 L 355 287 L 355 287 L 352 284 L 352 284 Q 345 288 333 291 Q 318 294 299 288 Q 280 282 260 263 L 248 251 L 248 251 Q 227 230 223 208 Q 220 186 226 169 Q 231 154 238 146 L 238 146 Z M 158 305 L 206 353 L 158 305 L 206 353 L 211 359 L 211 359 L 200 370 L 200 370 L 194 365 L 194 365 L 146 317 L 146 317 L 141 311 L 141 311 L 152 300 L 152 300 L 158 305 L 158 305 Z M 110 353 L 158 401 L 110 353 L 158 401 L 163 407 L 163 407 L 152 418 L 152 418 L 146 413 L 146 413 L 98 365 L 98 365 L 93 359 L 93 359 L 104 348 L 104 348 L 110 353 L 110 353 Z" />
</svg>