<svg xmlns="http://www.w3.org/2000/svg" viewBox="0 0 576 512">
  <path d="M 480 176 L 502 209 L 480 176 L 502 209 L 512 224 L 512 224 L 521 209 L 521 209 L 576 112 L 576 112 L 448 0 L 448 0 L 208 128 L 208 128 L 96 384 L 96 384 L 114 384 L 114 384 L 221 140 L 221 140 L 446 19 L 446 19 L 556 115 L 556 115 L 511 194 L 511 194 L 493 167 L 493 167 L 489 160 L 489 160 L 480 160 L 422 160 L 418 169 L 418 169 L 402 201 L 402 201 L 399 207 L 399 207 L 401 214 L 401 214 L 463 384 L 463 384 L 480 384 L 480 384 L 416 208 L 416 208 L 432 176 L 432 176 L 480 176 L 480 176 Z M 240 336 L 336 336 L 240 336 L 336 336 L 336 384 L 336 384 L 352 384 L 352 384 L 352 336 L 352 336 L 352 320 L 352 320 L 336 320 L 224 320 L 224 336 L 224 336 L 224 384 L 224 384 L 240 384 L 240 384 L 240 336 L 240 336 Z M 560 432 L 560 438 L 560 432 L 560 438 L 444 496 L 444 496 L 132 496 L 132 496 L 16 438 L 16 438 L 16 432 L 16 432 L 560 432 L 560 432 Z M 560 416 L 16 416 L 560 416 L 0 416 L 0 432 L 0 432 L 0 448 L 0 448 L 128 512 L 128 512 L 448 512 L 448 512 L 576 448 L 576 448 L 576 432 L 576 432 L 576 416 L 576 416 L 560 416 L 560 416 Z" />
</svg>