<svg xmlns="http://www.w3.org/2000/svg" viewBox="0 0 365 489">
  <path d="M 192 8 L 352 136 L 192 8 L 352 136 L 365 146 L 365 146 L 345 171 L 345 171 L 332 161 L 332 161 L 182 41 L 182 41 L 32 161 L 32 161 L 20 171 L 20 171 L 0 146 L 0 146 L 12 136 L 12 136 L 172 8 L 172 8 L 182 0 L 182 0 L 192 8 L 192 8 Z M 192 481 L 182 489 L 192 481 L 182 489 L 172 481 L 172 481 L 12 353 L 12 353 L 0 343 L 0 343 L 20 318 L 20 318 L 32 328 L 32 328 L 182 448 L 182 448 L 332 328 L 332 328 L 345 318 L 345 318 L 365 343 L 365 343 L 352 353 L 352 353 L 192 481 L 192 481 Z" />
</svg>