<svg xmlns="http://www.w3.org/2000/svg" viewBox="0 0 512 448">
  <path d="M 256 88 Q 196 90 162 100 L 162 100 L 162 100 Q 129 111 128 112 L 96 192 L 96 192 L 0 192 L 0 192 L 0 96 L 0 96 Q 0 94 31 71 Q 61 48 119 25 Q 176 2 256 0 Q 336 2 393 25 Q 451 48 481 71 Q 512 94 512 96 L 512 192 L 512 192 L 416 192 L 416 192 L 384 112 L 384 112 Q 384 111 350 100 Q 317 90 256 88 L 256 88 Z M 115 100 Q 136 90 158 85 Q 193 73 256 72 Q 319 73 354 85 Q 376 90 397 100 L 427 176 L 427 176 L 496 176 L 496 176 L 496 103 L 496 103 Q 483 89 436 62 Q 405 44 359 30 Q 314 17 256 16 Q 198 17 153 30 Q 107 44 76 62 Q 29 89 16 103 L 16 176 L 16 176 L 85 176 L 85 176 L 115 100 L 115 100 Z M 256 208 Q 215 209 194 244 Q 174 280 194 316 Q 215 351 256 352 Q 297 351 318 316 Q 338 280 318 244 Q 297 209 256 208 L 256 208 Z M 312 280 Q 311 312 284 328 Q 256 344 228 328 Q 201 312 200 280 Q 201 248 228 232 Q 256 216 284 232 Q 311 248 312 280 L 312 280 Z M 32 448 L 32 352 L 32 448 L 32 352 L 160 128 L 160 128 L 352 128 L 352 128 L 480 352 L 480 352 L 480 448 L 480 448 L 32 448 L 32 448 Z M 464 432 L 464 356 L 464 432 L 464 356 L 343 144 L 343 144 L 169 144 L 169 144 L 48 356 L 48 356 L 48 432 L 48 432 L 464 432 L 464 432 Z" />
</svg>