<svg xmlns="http://www.w3.org/2000/svg" viewBox="0 0 512 512">
  <path d="M 469 213 L 475 207 L 469 213 L 475 207 L 477 205 L 477 205 Q 512 168 512 120 Q 512 72 477 35 Q 440 0 392 0 Q 344 0 307 35 L 305 37 L 305 37 L 299 43 L 299 43 L 293 49 L 293 49 L 283 59 L 283 59 Q 251 93 248 137 L 246 140 L 246 140 L 0 432 L 0 432 L 80 512 L 80 512 L 248 371 L 248 371 L 248 504 L 248 504 L 248 512 L 248 512 L 264 512 L 264 512 L 264 504 L 264 504 L 264 360 L 264 360 Q 264 359 264 357 L 372 266 L 372 266 L 375 264 L 375 264 Q 419 261 453 229 L 463 218 L 463 218 L 469 213 L 469 213 Z M 267 139 L 264 136 L 267 139 L 264 136 Q 267 99 295 70 L 305 60 L 305 60 L 452 207 L 452 207 L 442 218 L 442 218 Q 413 245 376 248 L 373 245 L 373 245 L 267 139 L 267 139 Z M 319 46 Q 351 16 392 16 L 392 16 L 392 16 Q 434 16 466 46 Q 496 79 496 120 Q 496 162 466 194 L 463 196 L 463 196 L 316 49 L 316 49 L 318 47 L 319 46 Z M 360 255 L 81 490 L 360 255 L 81 490 L 22 431 L 22 431 L 257 152 L 257 152 L 360 255 L 360 255 Z" />
</svg>