<svg xmlns="http://www.w3.org/2000/svg" viewBox="0 0 480 448">
  <path d="M 115 74 Q 143 110 192 112 Q 227 111 252 91 Q 278 70 286 37 Q 348 52 390 96 Q 387 96 384 96 Q 357 97 339 115 Q 321 133 320 160 Q 321 187 339 205 Q 357 223 384 224 Q 424 222 442 188 Q 448 213 448 240 L 448 256 L 448 256 L 32 256 L 32 256 L 32 240 L 32 240 Q 32 189 55 146 Q 77 102 115 74 L 115 74 Z M 142 56 Q 186 33 240 32 Q 247 32 254 33 Q 248 53 231 66 Q 215 80 192 80 Q 161 79 142 56 L 142 56 Z M 480 256 L 480 240 L 480 256 L 480 240 Q 479 173 447 119 Q 415 65 361 33 Q 307 1 240 0 Q 173 1 119 33 Q 65 65 33 119 Q 1 173 0 240 L 0 256 L 0 256 L 0 288 L 0 288 L 32 288 L 480 288 L 480 256 L 480 256 Z M 164 320 L 149 416 L 164 320 L 149 416 L 144 448 L 144 448 L 176 448 L 336 448 L 331 416 L 331 416 L 316 320 L 316 320 L 284 320 L 284 320 L 299 416 L 299 416 L 181 416 L 181 416 L 196 320 L 196 320 L 164 320 L 164 320 Z M 112 176 Q 113 161 128 160 Q 143 161 144 176 Q 143 191 128 192 Q 113 191 112 176 L 112 176 Z M 176 176 Q 175 149 152 134 Q 128 122 104 134 Q 81 149 80 176 Q 81 203 104 218 Q 128 230 152 218 Q 175 203 176 176 L 176 176 Z M 384 128 Q 398 128 407 137 L 407 137 L 407 137 Q 416 146 416 160 Q 416 174 407 183 Q 398 192 384 192 Q 370 192 361 183 Q 352 174 352 160 Q 352 146 361 137 Q 370 128 384 128 L 384 128 Z" />
</svg>