<svg xmlns="http://www.w3.org/2000/svg" viewBox="0 0 512 512">
  <path d="M 336 104 L 336 176 L 336 104 L 336 176 L 408 176 L 408 176 L 491 66 L 491 66 L 447 21 L 447 21 L 336 104 L 336 104 Z M 331 192 L 260 263 L 331 192 L 260 263 L 249 252 L 249 252 L 320 181 L 320 181 L 320 176 L 320 176 L 320 96 L 320 96 L 448 0 L 448 0 L 512 64 L 512 64 L 416 192 L 416 192 L 336 192 L 331 192 Z M 107 501 L 96 512 L 107 501 L 96 512 L 85 501 L 85 501 L 11 427 L 11 427 L 0 416 L 0 416 L 11 405 L 11 405 L 173 243 L 173 243 L 184 232 L 184 232 L 195 243 L 195 243 L 269 317 L 269 317 L 280 328 L 280 328 L 269 339 L 269 339 L 107 501 L 107 501 Z M 257 328 L 184 255 L 257 328 L 184 255 L 23 416 L 23 416 L 96 489 L 96 489 L 257 328 L 257 328 Z" />
</svg>