<svg xmlns="http://www.w3.org/2000/svg" viewBox="0 0 502 239">
  <path d="M 502 123 L 497 129 L 502 123 L 497 129 L 393 233 L 393 233 L 387 239 L 387 239 L 376 227 L 376 227 L 381 222 L 381 222 L 472 131 L 472 131 L 30 131 L 30 131 L 121 222 L 121 222 L 126 227 L 126 227 L 115 239 L 115 239 L 109 233 L 109 233 L 5 129 L 5 129 L 0 123 L 0 123 L 6 117 L 6 117 L 110 13 L 110 13 L 115 8 L 115 8 L 127 19 L 127 19 L 121 25 L 121 25 L 30 115 L 30 115 L 473 115 L 473 115 L 381 17 L 381 17 L 376 11 L 376 11 L 388 0 L 388 0 L 393 6 L 393 6 L 497 118 L 497 118 L 502 123 L 502 123 Z" />
</svg>