<svg xmlns="http://www.w3.org/2000/svg" viewBox="0 0 522 522">
  <path d="M 477 379 Q 431 267 344 178 Q 255 91 143 45 L 144 45 L 144 45 Q 216 16 291 32 Q 366 47 421 101 Q 475 157 490 231 Q 505 306 477 378 L 477 379 L 477 379 Z M 486 401 L 492 384 L 486 401 L 492 384 Q 522 307 506 228 Q 490 149 433 90 Q 374 32 294 16 Q 215 0 138 30 L 121 37 L 121 37 L 100 45 L 100 45 Q 111 49 122 54 Q 241 100 333 189 Q 422 281 468 401 Q 473 411 477 422 L 486 401 L 486 401 Z M 284 187 L 0 482 L 284 187 L 0 482 L 40 522 L 40 522 L 335 238 L 335 238 Q 329 232 324 226 L 40 500 L 40 500 L 22 482 L 22 482 L 296 198 L 296 198 Q 290 193 284 188 L 284 187 Z M 430 28 L 424 23 L 430 28 L 424 23 L 413 34 L 413 34 L 418 40 L 418 40 L 482 104 L 482 104 L 488 109 L 488 109 L 499 98 L 499 98 L 494 92 L 494 92 L 430 28 L 430 28 Z" />
</svg>