<svg xmlns="http://www.w3.org/2000/svg" viewBox="0 0 512 512">
  <path d="M 40 0 L 472 0 L 40 0 L 480 0 L 480 8 L 480 8 L 480 40 L 480 40 L 480 48 L 480 48 L 464 48 L 464 48 L 464 40 L 464 40 L 464 16 L 464 16 L 48 16 L 48 16 L 48 40 L 48 40 L 48 48 L 48 48 L 32 48 L 32 48 L 32 40 L 32 40 L 32 8 L 32 8 L 32 0 L 32 0 L 40 0 L 40 0 Z M 16 80 L 24 80 L 16 80 L 496 80 L 496 88 L 496 88 L 496 120 L 496 120 L 496 128 L 496 128 L 480 128 L 480 128 L 480 120 L 480 120 L 480 96 L 480 96 L 32 96 L 32 96 L 32 120 L 32 120 L 32 128 L 32 128 L 16 128 L 16 128 L 16 120 L 16 120 L 16 88 L 16 88 L 16 80 L 16 80 Z M 54 496 L 458 496 L 54 496 L 458 496 L 494 176 L 494 176 L 18 176 L 18 176 L 54 496 L 54 496 Z M 472 512 L 40 512 L 472 512 L 40 512 L 2 176 L 2 176 L 0 160 L 0 160 L 16 160 L 512 160 L 510 176 L 510 176 L 472 512 L 472 512 Z M 416 340 Q 415 293 371 260 Q 326 226 256 224 Q 186 225 141 260 Q 97 293 96 340 Q 97 387 141 421 Q 186 454 256 456 Q 326 455 371 421 Q 415 387 416 340 L 416 340 Z M 432 340 Q 430 396 380 433 L 380 433 L 380 433 Q 331 471 256 472 Q 181 471 132 433 Q 82 396 80 340 Q 82 284 132 247 Q 181 209 256 208 Q 331 209 380 247 Q 430 284 432 340 L 432 340 Z M 282 369 Q 270 376 256 376 Q 242 376 230 369 Q 218 361 216 344 Q 218 327 230 319 Q 242 312 256 312 Q 270 312 282 319 Q 294 327 296 344 Q 294 361 282 369 L 282 369 Z M 256 360 Q 278 359 280 344 Q 278 329 256 328 Q 234 329 232 344 Q 234 359 256 360 L 256 360 Z" />
</svg>