<svg xmlns="http://www.w3.org/2000/svg" viewBox="0 0 512 512">
  <path d="M 16 176 L 139 176 L 16 176 L 139 176 L 169 236 L 169 236 Q 171 240 176 240 L 336 240 L 336 240 Q 341 240 343 236 L 373 176 L 373 176 L 496 176 L 496 176 L 496 304 L 496 304 L 16 304 L 16 304 L 16 176 L 16 176 Z M 22 160 L 90 16 L 22 160 L 90 16 L 422 16 L 422 16 L 491 160 L 491 160 L 368 160 L 368 160 Q 363 160 361 164 L 331 224 L 331 224 L 181 224 L 181 224 L 151 164 L 151 164 Q 149 160 144 160 L 22 160 L 22 160 Z M 80 0 L 0 168 L 80 0 L 0 168 L 0 304 L 0 304 L 0 320 L 0 320 L 16 320 L 512 320 L 512 304 L 512 304 L 512 168 L 512 168 L 432 0 L 432 0 L 80 0 L 80 0 Z M 184 416 L 152 352 L 184 416 L 152 352 L 16 352 L 0 352 L 0 368 L 0 368 L 0 496 L 0 496 L 0 512 L 0 512 L 16 512 L 512 512 L 512 496 L 512 496 L 512 368 L 512 368 L 512 352 L 512 352 L 496 352 L 360 352 L 328 416 L 328 416 L 184 416 L 184 416 Z M 370 368 L 496 368 L 370 368 L 496 368 L 496 496 L 496 496 L 16 496 L 16 496 L 16 368 L 16 368 L 142 368 L 142 368 L 170 423 L 170 423 Q 174 432 184 432 L 328 432 L 328 432 Q 338 432 342 423 L 370 368 L 370 368 Z" />
</svg>