<svg xmlns="http://www.w3.org/2000/svg" viewBox="0 0 512 512">
  <path d="M 375 80 L 370 75 L 375 80 L 370 75 L 332 37 L 332 37 Q 310 16 281 16 Q 250 17 229 37 Q 209 58 208 89 Q 208 118 229 140 L 267 178 L 267 178 L 272 183 L 272 183 L 272 189 L 272 189 L 272 265 L 272 265 L 304 297 L 304 297 L 489 112 L 489 112 L 457 80 L 457 80 L 381 80 L 375 80 Z M 464 64 L 501 101 L 464 64 L 501 101 L 512 112 L 512 112 L 501 123 L 501 123 L 315 309 L 315 309 L 304 320 L 304 320 L 293 309 L 293 309 L 256 272 L 256 272 L 256 189 L 256 189 L 231 164 L 231 164 L 137 258 L 137 258 L 198 496 L 198 496 L 376 496 L 384 496 L 384 512 L 384 512 L 376 512 L 0 512 L 0 496 L 0 496 L 8 496 L 182 496 L 120 258 L 120 258 L 119 254 L 119 254 L 122 250 L 122 250 L 220 153 L 220 153 L 218 151 L 218 151 Q 193 125 192 89 Q 193 51 218 26 Q 243 1 281 0 Q 317 1 343 26 L 381 64 L 381 64 L 464 64 L 464 64 Z M 386 281 L 398 269 L 386 281 L 398 269 Q 406 272 416 272 Q 436 271 450 258 Q 463 244 464 224 Q 464 214 461 206 L 473 194 L 473 194 Q 480 208 480 224 Q 479 251 461 269 Q 443 287 416 288 Q 400 288 386 281 L 386 281 Z" />
</svg>