<svg xmlns="http://www.w3.org/2000/svg" viewBox="0 0 384 512">
  <path d="M 16 16 L 16 496 L 16 16 L 16 496 L 368 496 L 368 496 L 368 16 L 368 16 L 16 16 L 16 16 Z M 0 0 L 16 0 L 0 0 L 384 0 L 384 16 L 384 16 L 384 496 L 384 496 L 384 512 L 384 512 L 368 512 L 0 512 L 0 496 L 0 496 L 0 16 L 0 16 L 0 0 L 0 0 Z M 203 149 L 299 245 L 203 149 L 299 245 L 311 256 L 311 256 L 299 267 L 299 267 L 203 363 L 203 363 L 192 375 L 192 375 L 181 363 L 181 363 L 85 267 L 85 267 L 73 256 L 73 256 L 85 245 L 85 245 L 181 149 L 181 149 L 192 137 L 192 137 L 203 149 L 203 149 Z M 96 256 L 107 267 L 96 256 L 107 267 L 181 341 L 181 341 L 192 352 L 192 352 L 203 341 L 203 341 L 277 267 L 277 267 L 288 256 L 288 256 L 277 245 L 277 245 L 203 171 L 203 171 L 192 160 L 192 160 L 181 171 L 181 171 L 107 245 L 107 245 L 96 256 L 96 256 Z" />
</svg>