<svg xmlns="http://www.w3.org/2000/svg" viewBox="0 0 608 512">
  <path d="M 352 111 L 312 104 L 352 111 L 312 104 L 298 18 L 298 18 L 295 0 L 295 0 L 280 10 L 280 10 L 208 61 L 208 61 L 136 10 L 136 10 L 121 0 L 121 0 L 118 18 L 118 18 L 104 104 L 104 104 L 18 118 L 18 118 L 0 121 L 0 121 L 10 136 L 10 136 L 61 208 L 61 208 L 10 280 L 10 280 L 0 295 L 0 295 L 18 298 L 18 298 L 104 312 L 104 312 L 118 399 L 118 399 L 121 416 L 121 416 L 136 406 L 136 406 L 208 355 L 208 355 L 280 406 L 280 406 L 295 416 L 295 416 Q 292 406 290 395 L 208 336 L 208 336 L 208 336 L 208 336 L 208 336 L 208 336 L 199 342 L 199 342 L 133 388 L 133 388 L 120 309 L 120 309 L 118 298 L 118 298 L 106 296 L 106 296 L 27 283 L 27 283 L 74 217 L 74 217 L 80 208 L 80 208 L 74 199 L 74 199 L 28 133 L 28 133 L 107 120 L 107 120 L 118 118 L 118 118 L 120 106 L 120 106 L 133 27 L 133 27 L 199 74 L 199 74 L 208 80 L 208 80 L 217 74 L 217 74 L 283 27 L 283 27 L 297 106 L 297 106 L 298 118 L 298 118 L 310 120 L 310 120 L 352 127 L 352 127 L 352 111 L 352 111 Z M 304 208 Q 303 167 276 140 L 276 140 L 276 140 Q 249 113 208 112 Q 167 113 140 140 Q 113 167 112 208 Q 113 249 140 276 Q 167 303 208 304 Q 236 304 258 290 L 286 264 L 286 264 Q 304 240 304 208 L 304 208 Z M 208 128 Q 253 129 277 168 Q 299 208 277 248 Q 253 287 208 288 Q 163 287 139 248 Q 117 208 139 168 Q 163 129 208 128 L 208 128 Z M 393 262 L 400 257 L 393 262 L 400 257 L 400 248 L 400 248 L 400 16 L 400 16 L 528 16 L 528 16 L 528 248 L 528 248 L 528 257 L 528 257 L 535 262 L 535 262 Q 561 279 576 307 Q 592 334 592 368 Q 591 422 555 459 Q 518 495 464 496 Q 410 495 373 459 Q 337 422 336 368 Q 336 334 352 307 Q 367 279 393 262 L 393 262 Z M 544 0 L 528 0 L 544 0 L 384 0 L 384 16 L 384 16 L 384 248 L 384 248 Q 355 268 338 299 Q 320 330 320 368 Q 322 429 362 470 Q 403 510 464 512 Q 525 510 566 470 Q 606 429 608 368 Q 608 330 590 299 Q 573 268 544 248 L 544 16 L 544 16 L 544 0 L 544 0 Z M 416 368 Q 417 341 440 326 Q 464 314 488 326 Q 511 341 512 368 Q 511 395 488 410 Q 464 422 440 410 Q 417 395 416 368 L 416 368 Z M 528 368 Q 527 343 512 325 L 512 325 L 512 325 Q 496 308 472 305 L 472 72 L 472 72 L 472 64 L 472 64 L 456 64 L 456 64 L 456 72 L 456 72 L 456 305 L 456 305 Q 432 308 416 325 Q 401 343 400 368 Q 401 395 419 413 Q 437 431 464 432 Q 491 431 509 413 Q 527 395 528 368 L 528 368 Z" />
</svg>