<svg xmlns="http://www.w3.org/2000/svg" viewBox="0 0 448 512">
  <path d="M 16 16 L 16 160 L 16 16 L 16 160 L 432 160 L 432 160 L 432 16 L 432 16 L 16 16 L 16 16 Z M 0 168 L 0 16 L 0 168 L 0 16 L 0 0 L 0 0 L 16 0 L 448 0 L 448 16 L 448 16 L 448 168 L 448 168 L 448 496 L 448 496 L 448 512 L 448 512 L 432 512 L 0 512 L 0 496 L 0 496 L 0 168 L 0 168 Z M 432 176 L 16 176 L 432 176 L 16 176 L 16 496 L 16 496 L 432 496 L 432 496 L 432 176 L 432 176 Z M 80 80 Q 95 81 96 96 Q 95 111 80 112 Q 65 111 64 96 Q 65 81 80 80 L 80 80 Z M 160 96 Q 161 81 176 80 Q 191 81 192 96 Q 191 111 176 112 Q 161 111 160 96 L 160 96 Z M 272 80 Q 287 81 288 96 Q 287 111 272 112 Q 257 111 256 96 Q 257 81 272 80 L 272 80 Z M 352 96 Q 353 81 368 80 Q 383 81 384 96 Q 383 111 368 112 Q 353 111 352 96 L 352 96 Z M 80 240 L 80 432 L 80 240 L 80 432 L 368 432 L 368 432 L 368 240 L 368 240 L 80 240 L 80 240 Z M 64 224 L 80 224 L 64 224 L 384 224 L 384 240 L 384 240 L 384 432 L 384 432 L 384 448 L 384 448 L 368 448 L 64 448 L 64 432 L 64 432 L 64 240 L 64 240 L 64 224 L 64 224 Z M 128 288 L 136 288 L 128 288 L 320 288 L 320 304 L 320 304 L 312 304 L 128 304 L 128 288 L 128 288 Z" />
</svg>