<svg xmlns="http://www.w3.org/2000/svg" viewBox="0 0 512 384">
  <path d="M 16 368 L 144 368 L 16 368 L 144 368 L 144 312 L 144 312 L 144 296 L 144 296 L 144 240 L 144 240 L 16 240 L 16 240 L 16 368 L 16 368 Z M 160 312 L 160 368 L 160 312 L 160 368 L 160 384 L 160 384 L 144 384 L 0 384 L 0 368 L 0 368 L 0 240 L 0 240 L 0 224 L 0 224 L 16 224 L 160 224 L 160 240 L 160 240 L 160 296 L 160 296 L 504 296 L 512 296 L 512 312 L 512 312 L 504 312 L 160 312 Z M 8 88 L 0 88 L 8 88 L 0 88 L 0 72 L 0 72 L 8 72 L 352 72 L 352 16 L 352 16 L 352 0 L 352 0 L 368 0 L 512 0 L 512 16 L 512 16 L 512 144 L 512 144 L 512 160 L 512 160 L 496 160 L 352 160 L 352 144 L 352 144 L 352 88 L 352 88 L 8 88 L 8 88 Z M 368 144 L 496 144 L 368 144 L 496 144 L 496 16 L 496 16 L 368 16 L 368 16 L 368 72 L 368 72 L 368 88 L 368 88 L 368 144 L 368 144 Z" />
</svg>