<svg xmlns="http://www.w3.org/2000/svg" viewBox="0 0 448 512">
  <path d="M 217 0 L 231 0 L 217 0 L 236 0 L 238 5 L 238 5 L 257 47 L 257 47 L 299 66 L 299 66 L 304 68 L 304 68 L 304 73 L 304 73 L 304 87 L 304 87 L 304 92 L 304 92 L 299 94 L 299 94 L 257 113 L 257 113 L 238 155 L 238 155 L 236 160 L 236 160 L 231 160 L 212 160 L 210 155 L 210 155 L 191 113 L 191 113 L 149 94 L 149 94 L 144 92 L 144 92 L 144 87 L 144 87 L 144 73 L 144 73 L 144 68 L 144 68 L 149 66 L 149 66 L 191 47 L 191 47 L 210 5 L 210 5 L 212 0 L 212 0 L 217 0 L 217 0 Z M 205 57 L 203 59 L 205 57 L 203 59 L 201 61 L 201 61 L 160 79 L 160 79 L 160 81 L 160 81 L 201 99 L 201 99 L 203 101 L 203 101 L 205 103 L 205 103 L 223 144 L 223 144 L 225 144 L 225 144 L 243 103 L 243 103 L 245 101 L 245 101 L 247 99 L 247 99 L 288 82 L 288 82 L 288 79 L 288 79 L 247 61 L 247 61 L 245 59 L 245 59 L 243 57 L 243 57 L 226 16 L 226 16 L 223 16 L 223 16 L 205 57 L 205 57 Z M 24 312 L 156 132 L 24 312 L 156 132 L 167 137 L 167 137 L 169 142 L 169 142 L 40 317 L 40 317 L 40 336 L 40 336 L 80 336 L 110 336 L 93 361 L 93 361 L 16 477 L 16 477 L 16 496 L 16 496 L 432 496 L 432 496 L 432 477 L 432 477 L 355 361 L 355 361 L 338 336 L 338 336 L 368 336 L 408 336 L 408 317 L 408 317 L 279 142 L 279 142 L 281 137 L 281 137 L 292 132 L 292 132 L 424 312 L 424 312 L 424 336 L 424 336 L 424 352 L 424 352 L 408 352 L 368 352 L 379 368 L 379 368 L 448 472 L 448 472 L 448 496 L 448 496 L 448 512 L 448 512 L 432 512 L 0 512 L 0 496 L 0 496 L 0 472 L 0 472 L 69 368 L 69 368 L 80 352 L 80 352 L 61 352 L 24 352 L 24 336 L 24 336 L 24 312 L 24 312 Z M 160 272 Q 161 257 176 256 Q 191 257 192 272 Q 191 287 176 288 Q 161 287 160 272 L 160 272 Z M 272 384 Q 287 385 288 400 Q 287 415 272 416 Q 257 415 256 400 Q 257 385 272 384 L 272 384 Z" />
</svg>