<svg xmlns="http://www.w3.org/2000/svg" viewBox="0 0 640 448">
  <path d="M 8 0 L 0 0 L 8 0 L 0 0 L 0 8 L 0 8 L 0 344 L 0 344 L 0 352 L 0 352 L 8 352 L 64 352 Q 65 393 92 420 Q 119 447 160 448 Q 201 447 228 420 Q 255 393 256 352 L 384 352 L 384 352 Q 385 393 412 420 Q 439 447 480 448 Q 521 447 548 420 Q 575 393 576 352 L 632 352 L 640 352 L 640 344 L 640 344 L 640 168 L 640 168 L 640 165 L 640 165 L 638 163 L 638 163 L 486 3 L 486 3 L 483 0 L 483 0 L 480 0 L 8 0 Z M 480 256 Q 444 257 418 279 L 418 279 L 418 279 Q 392 301 385 336 L 255 336 L 255 336 Q 248 301 222 279 Q 196 257 160 256 Q 123 257 98 279 Q 72 301 65 336 L 16 336 L 16 336 L 16 176 L 16 176 L 168 176 L 624 176 L 624 336 L 624 336 L 575 336 L 575 336 Q 568 301 542 279 Q 516 257 480 256 L 480 256 Z M 16 160 L 16 16 L 16 160 L 16 16 L 160 16 L 160 16 L 160 160 L 160 160 L 16 160 L 16 160 Z M 176 160 L 176 16 L 176 160 L 176 16 L 368 16 L 368 16 L 368 160 L 368 160 L 176 160 L 176 160 Z M 384 160 L 384 16 L 384 160 L 384 16 L 477 16 L 477 16 L 613 160 L 613 160 L 384 160 L 384 160 Z M 400 352 Q 401 307 440 283 Q 480 261 520 283 Q 559 307 560 352 Q 559 397 520 421 Q 480 443 440 421 Q 401 397 400 352 L 400 352 Z M 160 272 Q 205 273 229 312 Q 251 352 229 392 Q 205 431 160 432 Q 115 431 91 392 Q 69 352 91 312 Q 115 273 160 272 L 160 272 Z" />
</svg>