<svg xmlns="http://www.w3.org/2000/svg" viewBox="0 0 512 448">
  <path d="M 16 16 L 16 176 L 16 16 L 16 176 L 496 176 L 496 176 L 496 16 L 496 16 L 16 16 L 16 16 Z M 0 0 L 16 0 L 0 0 L 512 0 L 512 16 L 512 16 L 512 176 L 512 176 L 512 192 L 512 192 L 496 192 L 0 192 L 0 176 L 0 176 L 0 16 L 0 16 L 0 0 L 0 0 Z M 16 272 L 16 432 L 16 272 L 16 432 L 496 432 L 496 432 L 496 272 L 496 272 L 16 272 L 16 272 Z M 0 256 L 16 256 L 0 256 L 512 256 L 512 272 L 512 272 L 512 432 L 512 432 L 512 448 L 512 448 L 496 448 L 0 448 L 0 432 L 0 432 L 0 272 L 0 272 L 0 256 L 0 256 Z M 336 352 Q 337 337 352 336 Q 367 337 368 352 Q 367 367 352 368 Q 337 367 336 352 L 336 352 Z M 352 80 Q 367 81 368 96 Q 367 111 352 112 Q 337 111 336 96 Q 337 81 352 80 L 352 80 Z M 400 352 Q 401 337 416 336 Q 431 337 432 352 Q 431 367 416 368 Q 401 367 400 352 L 400 352 Z M 416 80 Q 431 81 432 96 Q 431 111 416 112 Q 401 111 400 96 Q 401 81 416 80 L 416 80 Z" />
</svg>