<svg xmlns="http://www.w3.org/2000/svg" viewBox="0 0 512 507">
  <path d="M 214 17 L 182 49 L 214 17 L 182 49 L 176 54 L 176 54 L 165 43 L 165 43 L 170 37 L 170 37 L 202 5 L 202 5 L 208 0 L 208 0 L 219 11 L 219 11 L 214 17 L 214 17 Z M 406 17 L 374 49 L 406 17 L 374 49 L 368 54 L 368 54 L 357 43 L 357 43 L 362 37 L 362 37 L 394 5 L 394 5 L 400 0 L 400 0 L 411 11 L 411 11 L 406 17 L 406 17 Z M 160 93 L 224 75 L 160 93 L 224 75 Q 257 77 272 104 Q 288 132 288 166 Q 288 177 287 187 L 271 187 L 271 187 Q 272 177 272 166 Q 272 136 259 113 Q 247 92 226 91 L 164 109 L 164 109 L 160 110 L 160 110 L 156 109 L 156 109 L 94 91 L 94 91 Q 73 93 61 113 Q 48 136 48 166 Q 48 177 49 187 L 33 187 L 33 187 Q 32 177 32 166 Q 32 132 48 104 Q 63 77 96 75 L 160 93 L 160 93 Z M 479 187 L 463 187 L 479 187 L 463 187 Q 464 177 464 166 Q 464 136 451 113 Q 439 92 418 91 L 356 109 L 356 109 L 352 110 L 352 110 L 348 109 L 348 109 L 304 96 L 304 96 Q 302 92 300 88 Q 296 82 291 76 L 352 93 L 352 93 L 416 75 L 416 75 Q 449 77 464 104 Q 480 132 480 166 Q 480 177 479 187 L 479 187 Z M 496 371 L 16 371 L 496 371 L 16 371 L 16 491 L 16 491 L 496 491 L 496 491 L 496 371 L 496 371 Z M 496 355 L 496 235 L 496 355 L 496 235 L 16 235 L 16 235 L 16 355 L 16 355 L 496 355 L 496 355 Z M 512 355 L 512 363 L 512 355 L 512 363 L 512 371 L 512 371 L 512 491 L 512 491 L 512 507 L 512 507 L 496 507 L 0 507 L 0 491 L 0 491 L 0 371 L 0 371 L 0 363 L 0 363 L 0 355 L 0 355 L 0 235 L 0 235 L 0 219 L 0 219 L 16 219 L 512 219 L 512 235 L 512 235 L 512 355 L 512 355 Z M 64 299 Q 65 284 80 283 Q 95 284 96 299 Q 95 314 80 315 Q 65 314 64 299 L 64 299 Z M 432 283 Q 447 284 448 299 Q 447 314 432 315 Q 417 314 416 299 Q 417 284 432 283 L 432 283 Z M 64 427 Q 65 412 80 411 Q 95 412 96 427 Q 95 442 80 443 Q 65 442 64 427 L 64 427 Z M 432 411 Q 447 412 448 427 Q 447 442 432 443 Q 417 442 416 427 Q 417 412 432 411 L 432 411 Z" />
</svg>