<svg xmlns="http://www.w3.org/2000/svg" viewBox="0 0 384 512">
  <path d="M 72 0 L 64 0 L 72 0 L 64 0 L 64 8 L 64 8 L 64 64 L 64 64 L 16 64 L 0 64 L 0 80 L 0 80 L 0 432 L 0 432 L 0 448 L 0 448 L 16 448 L 64 448 L 64 504 L 64 504 L 64 512 L 64 512 L 72 512 L 320 512 L 320 504 L 320 504 L 320 448 L 320 448 L 368 448 L 384 448 L 384 432 L 384 432 L 384 80 L 384 80 L 384 64 L 384 64 L 368 64 L 320 64 L 320 8 L 320 8 L 320 0 L 320 0 L 312 0 L 72 0 Z M 304 432 L 80 432 L 304 432 L 16 432 L 16 80 L 16 80 L 64 80 L 368 80 L 368 432 L 368 432 L 320 432 L 304 432 Z M 80 448 L 304 448 L 80 448 L 304 448 L 304 496 L 304 496 L 80 496 L 80 496 L 80 448 L 80 448 Z M 304 64 L 80 64 L 304 64 L 80 64 L 80 16 L 80 16 L 304 16 L 304 16 L 304 64 L 304 64 Z M 200 160 L 200 152 L 200 160 L 200 152 L 184 152 L 184 152 L 184 160 L 184 160 L 184 256 L 184 256 L 184 260 L 184 260 L 187 262 L 187 262 L 251 310 L 251 310 L 258 315 L 258 315 L 267 302 L 267 302 L 261 298 L 261 298 L 200 252 L 200 252 L 200 160 L 200 160 Z" />
</svg>