<svg xmlns="http://www.w3.org/2000/svg" viewBox="0 0 640 448">
  <path d="M 96 0 L 96 16 L 96 0 L 96 16 L 96 112 L 96 112 L 96 128 L 96 128 Q 116 129 130 142 Q 143 156 144 176 Q 143 196 130 210 Q 116 223 96 224 L 96 240 L 96 240 L 96 336 L 96 336 L 96 352 L 96 352 L 112 352 L 640 352 L 640 336 L 640 336 L 640 240 L 640 240 L 640 224 L 640 224 Q 620 223 606 210 Q 593 196 592 176 Q 593 156 606 142 Q 620 129 640 128 L 640 112 L 640 112 L 640 16 L 640 16 L 640 0 L 640 0 L 624 0 L 96 0 Z M 160 176 Q 160 153 146 136 L 146 136 L 146 136 Q 133 120 112 114 L 112 16 L 112 16 L 624 16 L 624 16 L 624 114 L 624 114 Q 603 120 590 136 Q 576 153 576 176 Q 576 199 590 216 Q 603 232 624 238 L 624 336 L 624 336 L 112 336 L 112 336 L 112 238 L 112 238 Q 133 232 146 216 Q 160 199 160 176 L 160 176 Z M 16 64 L 16 56 L 16 64 L 16 56 L 0 56 L 0 56 L 0 64 L 0 64 L 0 440 L 0 440 L 0 448 L 0 448 L 8 448 L 560 448 L 560 432 L 560 432 L 552 432 L 16 432 L 16 64 L 16 64 Z" />
</svg>