<svg xmlns="http://www.w3.org/2000/svg" viewBox="0 0 256 512">
  <path d="M 144 32 Q 143 17 128 16 Q 113 17 112 32 Q 113 47 128 48 Q 143 47 144 32 L 144 32 Z M 96 32 Q 96 18 105 9 L 105 9 L 105 9 Q 114 0 128 0 Q 142 0 151 9 Q 160 18 160 32 Q 160 46 151 55 Q 142 64 128 64 Q 114 64 105 55 Q 96 46 96 32 L 96 32 Z M 56 224 L 64 224 L 56 224 L 75 224 L 19 120 L 19 120 L 30 109 L 30 109 Q 36 112 44 112 Q 71 110 79 86 L 93 84 L 93 84 Q 105 103 128 104 Q 151 103 163 84 L 177 86 L 177 86 Q 186 110 212 112 Q 220 112 227 109 L 237 120 L 237 120 L 181 224 L 181 224 L 192 224 L 200 224 L 200 240 L 200 240 L 192 240 L 177 240 L 196 384 L 196 384 L 180 384 L 180 384 L 161 240 L 161 240 L 95 240 L 95 240 L 76 384 L 76 384 L 60 384 L 60 384 L 79 240 L 79 240 L 64 240 L 56 240 L 56 224 L 56 224 Z M 163 224 L 214 128 L 163 224 L 214 128 Q 214 128 213 128 Q 213 128 212 128 Q 183 127 168 103 Q 152 119 128 120 Q 104 119 88 103 Q 73 127 44 128 Q 43 128 42 128 L 93 224 L 93 224 L 163 224 L 163 224 Z M 44 416 L 48 416 L 44 416 L 212 416 L 214 419 L 214 419 L 254 467 L 254 467 L 256 469 L 256 469 L 256 472 L 256 472 L 256 504 L 256 504 L 256 512 L 256 512 L 248 512 L 0 512 L 0 504 L 0 504 L 0 472 L 0 472 L 0 469 L 0 469 L 2 467 L 2 467 L 42 419 L 42 419 L 44 416 L 44 416 Z M 52 432 L 16 475 L 52 432 L 16 475 L 16 496 L 16 496 L 240 496 L 240 496 L 240 475 L 240 475 L 204 432 L 204 432 L 52 432 L 52 432 Z" />
</svg>