<svg xmlns="http://www.w3.org/2000/svg" viewBox="0 0 512 512">
  <path d="M 64 0 L 64 8 L 64 0 L 64 8 L 64 160 L 64 160 L 80 160 L 80 160 L 80 16 L 80 16 L 373 16 L 373 16 L 432 75 L 432 75 L 432 160 L 432 160 L 448 160 L 448 160 L 448 72 L 448 72 L 448 69 L 448 69 L 446 66 L 446 66 L 382 2 L 382 2 L 379 0 L 379 0 L 376 0 L 64 0 Z M 331 235 L 359 208 L 331 235 L 359 208 L 496 208 L 496 208 L 496 272 L 496 272 L 16 272 L 16 272 L 16 208 L 16 208 L 153 208 L 153 208 L 181 235 L 181 235 Q 185 240 192 240 L 320 240 L 320 240 Q 327 240 331 235 L 331 235 Z M 352 192 L 320 224 L 352 192 L 320 224 L 192 224 L 192 224 L 160 192 L 160 192 L 16 192 L 0 192 L 0 208 L 0 208 L 0 272 L 0 272 L 0 288 L 0 288 L 16 288 L 32 288 L 32 496 L 32 496 L 32 512 L 32 512 L 48 512 L 480 512 L 480 496 L 480 496 L 480 288 L 480 288 L 496 288 L 512 288 L 512 272 L 512 272 L 512 208 L 512 208 L 512 192 L 512 192 L 496 192 L 352 192 Z M 464 288 L 464 496 L 464 288 L 464 496 L 48 496 L 48 496 L 48 288 L 48 288 L 464 288 L 464 288 Z M 160 448 L 152 448 L 160 448 L 152 448 L 152 464 L 152 464 L 160 464 L 360 464 L 360 448 L 360 448 L 352 448 L 160 448 Z M 112 320 L 112 352 L 112 320 L 112 352 L 144 352 L 144 352 L 144 320 L 144 320 L 112 320 L 112 320 Z M 176 384 L 144 384 L 176 384 L 144 384 L 144 416 L 144 416 L 176 416 L 176 416 L 176 384 L 176 384 Z M 208 320 L 176 320 L 208 320 L 176 320 L 176 352 L 176 352 L 208 352 L 208 352 L 208 320 L 208 320 Z M 240 384 L 208 384 L 240 384 L 208 384 L 208 416 L 208 416 L 240 416 L 240 416 L 240 384 L 240 384 Z M 240 320 L 240 352 L 240 320 L 240 352 L 272 352 L 272 352 L 272 320 L 272 320 L 240 320 L 240 320 Z M 304 384 L 272 384 L 304 384 L 272 384 L 272 416 L 272 416 L 304 416 L 304 416 L 304 384 L 304 384 Z M 336 320 L 304 320 L 336 320 L 304 320 L 304 352 L 304 352 L 336 352 L 336 352 L 336 320 L 336 320 Z M 368 416 L 368 384 L 368 416 L 368 384 L 336 384 L 336 384 L 336 416 L 336 416 L 368 416 L 368 416 Z M 368 320 L 368 352 L 368 320 L 368 352 L 400 352 L 400 352 L 400 320 L 400 320 L 368 320 L 368 320 Z" />
</svg>