<svg xmlns="http://www.w3.org/2000/svg" viewBox="0 0 512 512">
  <path d="M 160 416 L 144 416 L 160 416 L 0 416 L 0 400 L 0 400 L 0 16 L 0 16 L 0 0 L 0 0 L 16 0 L 512 0 L 512 16 L 512 16 L 512 400 L 512 400 L 512 416 L 512 416 L 496 416 L 304 416 L 176 501 L 176 501 L 160 512 L 160 512 L 160 493 L 160 493 L 160 432 L 160 432 L 160 416 L 160 416 Z M 160 400 L 176 400 L 160 400 L 176 400 L 176 416 L 176 416 L 176 482 L 176 482 L 295 403 L 295 403 L 299 400 L 299 400 L 304 400 L 496 400 L 496 16 L 496 16 L 16 16 L 16 16 L 16 400 L 16 400 L 160 400 L 160 400 Z M 358 142 L 230 270 L 358 142 L 230 270 L 224 275 L 224 275 L 218 270 L 218 270 L 154 206 L 154 206 L 149 200 L 149 200 L 160 189 L 160 189 L 166 194 L 166 194 L 224 253 L 224 253 L 346 130 L 346 130 L 352 125 L 352 125 L 363 136 L 363 136 L 358 142 L 358 142 Z" />
</svg>