<svg xmlns="http://www.w3.org/2000/svg" viewBox="0 0 512 480">
  <path d="M 0 0 L 8 0 L 0 0 L 256 0 L 256 16 L 256 16 L 248 16 L 224 16 L 224 177 L 224 177 L 208 193 L 208 193 L 208 176 L 208 176 L 48 176 L 48 176 L 48 352 L 48 352 Q 49 386 71 409 Q 94 431 128 432 Q 156 432 176 416 L 177 416 L 177 416 L 188 427 L 188 427 Q 162 447 128 448 Q 87 447 60 420 Q 33 393 32 352 L 32 16 L 32 16 L 8 16 L 0 16 L 0 0 L 0 0 Z M 48 16 L 48 160 L 48 16 L 48 160 L 208 160 L 208 160 L 208 16 L 208 16 L 48 16 L 48 16 Z M 465 241 Q 450 258 458 276 L 458 276 L 458 276 Q 466 294 488 296 L 512 296 L 512 296 L 512 344 L 512 344 L 488 344 L 488 344 Q 466 346 458 364 Q 451 382 465 399 L 482 416 L 482 416 L 448 450 L 448 450 L 431 433 L 431 433 Q 414 419 396 426 Q 378 434 376 456 L 376 480 L 376 480 L 328 480 L 328 480 L 328 456 L 328 456 L 328 456 L 328 456 Q 326 434 308 426 Q 290 419 273 433 L 256 450 L 256 450 L 222 416 L 222 416 L 239 399 L 239 399 Q 254 382 246 364 Q 238 346 216 344 L 192 344 L 192 344 L 192 296 L 192 296 L 216 296 L 216 296 Q 238 294 246 276 Q 254 258 239 241 L 222 224 L 222 224 L 256 190 L 256 190 L 273 207 L 273 207 Q 290 222 308 214 Q 326 206 328 184 L 328 160 L 328 160 L 376 160 L 376 160 L 376 184 L 376 184 Q 378 206 396 214 Q 414 221 431 207 L 448 190 L 448 190 L 482 224 L 482 224 L 465 241 L 465 241 Z M 488 312 Q 455 310 443 282 L 443 282 L 443 282 Q 432 255 454 230 L 460 224 L 460 224 L 448 213 L 448 213 L 443 218 L 443 218 Q 417 240 390 229 Q 362 217 360 184 Q 360 184 360 184 Q 360 184 360 184 L 360 176 L 360 176 L 344 176 L 344 176 L 344 184 L 344 184 Q 342 217 314 229 Q 287 240 262 218 L 256 212 L 256 212 L 245 224 L 245 224 L 250 230 L 250 230 Q 272 255 261 282 Q 249 310 216 312 L 208 312 L 208 312 L 208 328 L 208 328 L 216 328 L 216 328 Q 249 330 261 358 Q 272 385 250 411 L 245 416 L 245 416 L 256 428 L 256 428 L 262 422 L 262 422 Q 287 400 314 411 Q 342 423 344 456 L 344 464 L 344 464 L 360 464 L 360 464 L 360 456 L 360 456 Q 360 446 364 437 Q 372 417 392 410 Q 419 401 443 422 L 448 427 L 448 427 L 460 416 L 460 416 L 454 410 L 454 410 Q 434 389 441 364 Q 449 336 478 329 Q 483 328 488 328 L 496 328 L 496 328 L 496 312 L 496 312 L 488 312 L 488 312 Z M 320 304 Q 335 303 336 288 Q 335 273 320 272 Q 305 273 304 288 Q 305 303 320 304 L 320 304 Z M 320 256 Q 334 256 343 265 L 343 265 L 343 265 Q 352 274 352 288 Q 352 302 343 311 Q 334 320 320 320 Q 306 320 297 311 Q 288 302 288 288 Q 288 274 297 265 Q 306 256 320 256 L 320 256 Z M 400 352 Q 399 337 384 336 Q 369 337 368 352 Q 369 367 384 368 Q 399 367 400 352 L 400 352 Z M 352 352 Q 352 338 361 329 L 361 329 L 361 329 Q 370 320 384 320 Q 398 320 407 329 Q 416 338 416 352 Q 416 366 407 375 Q 398 384 384 384 Q 370 384 361 375 Q 352 366 352 352 L 352 352 Z" />
</svg>