<svg xmlns="http://www.w3.org/2000/svg" viewBox="0 0 448 512">
  <path d="M 432 368 L 176 368 L 432 368 L 176 368 L 176 16 L 176 16 L 345 16 L 345 16 L 432 103 L 432 103 L 432 368 L 432 368 Z M 448 96 L 352 0 L 448 96 L 352 0 L 176 0 L 160 0 L 160 16 L 160 16 L 160 368 L 160 368 L 160 384 L 160 384 L 176 384 L 448 384 L 448 368 L 448 368 L 448 96 L 448 96 Z M 16 128 L 0 128 L 16 128 L 0 128 L 0 144 L 0 144 L 0 496 L 0 496 L 0 512 L 0 512 L 16 512 L 288 512 L 288 496 L 288 496 L 288 416 L 288 416 L 272 416 L 272 416 L 272 496 L 272 496 L 16 496 L 16 496 L 16 144 L 16 144 L 128 144 L 128 144 L 128 128 L 128 128 L 16 128 L 16 128 Z" />
</svg>