<svg xmlns="http://www.w3.org/2000/svg" viewBox="0 0 448 512">
  <path d="M 160 0 L 168 0 L 160 0 L 320 0 L 320 8 L 320 8 L 320 16 L 320 16 L 320 20 L 320 20 L 317 22 L 317 22 L 181 128 L 181 128 L 312 128 L 320 128 L 320 144 L 320 144 L 312 144 L 160 144 L 160 136 L 160 136 L 160 128 L 160 128 L 160 124 L 160 124 L 163 122 L 163 122 L 299 16 L 299 16 L 168 16 L 160 16 L 160 0 L 160 0 Z M 0 256 L 8 256 L 0 256 L 224 256 L 224 264 L 224 264 L 224 272 L 224 272 L 224 275 L 224 275 L 222 277 L 222 277 L 19 496 L 19 496 L 216 496 L 224 496 L 224 512 L 224 512 L 216 512 L 0 512 L 0 504 L 0 504 L 0 496 L 0 496 L 0 493 L 0 493 L 2 491 L 2 491 L 205 272 L 205 272 L 8 272 L 0 272 L 0 256 L 0 256 Z M 296 224 L 440 224 L 296 224 L 448 224 L 448 232 L 448 232 L 448 240 L 448 240 L 448 243 L 448 243 L 446 246 L 446 246 L 307 384 L 307 384 L 440 384 L 448 384 L 448 400 L 448 400 L 440 400 L 288 400 L 288 392 L 288 392 L 288 384 L 288 384 L 288 381 L 288 381 L 290 378 L 290 378 L 429 240 L 429 240 L 296 240 L 288 240 L 288 224 L 288 224 L 296 224 L 296 224 Z" />
</svg>