<svg xmlns="http://www.w3.org/2000/svg" viewBox="0 0 496 496">
  <path d="M 328 0 L 320 0 L 328 0 L 320 0 L 320 16 L 320 16 L 328 16 L 469 16 L 202 282 L 202 282 L 197 288 L 197 288 L 208 299 L 208 299 L 214 294 L 214 294 L 480 27 L 480 27 L 480 168 L 480 168 L 480 176 L 480 176 L 496 176 L 496 176 L 496 168 L 496 168 L 496 8 L 496 8 L 496 0 L 496 0 L 488 0 L 328 0 Z M 8 16 L 0 16 L 8 16 L 0 16 L 0 24 L 0 24 L 0 488 L 0 488 L 0 496 L 0 496 L 8 496 L 480 496 L 480 488 L 480 488 L 480 296 L 480 296 L 480 288 L 480 288 L 464 288 L 464 288 L 464 296 L 464 296 L 464 480 L 464 480 L 16 480 L 16 480 L 16 32 L 16 32 L 200 32 L 208 32 L 208 16 L 208 16 L 200 16 L 8 16 Z" />
</svg>