<svg xmlns="http://www.w3.org/2000/svg" viewBox="0 0 512 448">
  <path d="M 192 64 L 16 64 L 192 64 L 16 64 L 16 200 L 16 200 L 146 200 L 146 200 Q 160 168 189 148 Q 219 129 256 128 Q 293 129 323 148 Q 352 168 366 200 L 496 200 L 496 200 L 496 16 L 496 16 L 261 16 L 261 16 L 202 61 L 202 61 Q 197 64 192 64 L 192 64 Z M 16 216 L 16 432 L 16 216 L 16 432 L 496 432 L 496 432 L 496 216 L 496 216 L 372 216 L 372 216 Q 376 231 376 248 Q 375 299 341 333 Q 307 367 256 368 Q 205 367 171 333 Q 137 299 136 248 Q 136 231 140 216 L 16 216 L 16 216 Z M 192 48 L 256 0 L 192 48 L 256 0 L 496 0 L 512 0 L 512 16 L 512 16 L 512 432 L 512 432 L 512 448 L 512 448 L 496 448 L 0 448 L 0 432 L 0 432 L 0 64 L 0 64 L 0 48 L 0 48 L 16 48 L 192 48 Z M 360 248 Q 360 220 346 196 L 346 196 L 346 196 Q 332 172 308 158 Q 283 144 256 144 Q 229 144 204 158 Q 180 172 166 196 Q 152 220 152 248 Q 152 276 166 300 Q 180 324 204 338 Q 229 352 256 352 Q 283 352 308 338 Q 332 324 346 300 Q 360 276 360 248 L 360 248 Z M 64 0 L 160 0 L 64 0 L 160 0 L 160 16 L 160 16 L 64 16 L 64 16 L 64 0 L 64 0 Z" />
</svg>