<svg xmlns="http://www.w3.org/2000/svg" viewBox="0 0 576 448">
  <path d="M 16 16 L 16 96 L 16 16 L 16 96 L 560 96 L 560 96 L 560 16 L 560 16 L 16 16 L 16 16 Z M 16 112 L 16 208 L 16 112 L 16 208 L 560 208 L 560 208 L 560 112 L 560 112 L 16 112 L 16 112 Z M 16 224 L 16 432 L 16 224 L 16 432 L 560 432 L 560 432 L 560 224 L 560 224 L 16 224 L 16 224 Z M 0 0 L 16 0 L 0 0 L 576 0 L 576 16 L 576 16 L 576 432 L 576 432 L 576 448 L 576 448 L 560 448 L 0 448 L 0 432 L 0 432 L 0 16 L 0 16 L 0 0 L 0 0 Z M 96 320 L 192 320 L 96 320 L 192 320 L 192 336 L 192 336 L 96 336 L 96 336 L 96 320 L 96 320 Z M 224 320 L 384 320 L 224 320 L 384 320 L 384 336 L 384 336 L 224 336 L 224 336 L 224 320 L 224 320 Z" />
</svg>