<svg xmlns="http://www.w3.org/2000/svg" viewBox="0 0 384 509">
  <path d="M 267 168 L 272 164 L 267 168 L 272 164 L 272 157 L 272 157 L 272 24 L 272 24 Q 315 47 341 88 Q 367 129 368 181 Q 367 230 344 270 Q 320 310 280 334 L 272 338 L 272 338 L 272 347 L 272 347 L 272 413 L 272 413 L 272 493 L 272 493 L 272 509 L 272 509 L 288 509 L 288 509 L 288 493 L 288 493 L 288 347 L 288 347 Q 332 322 358 278 Q 383 235 384 181 Q 383 122 353 76 Q 322 30 272 6 Q 264 3 256 0 L 256 17 L 256 17 L 256 157 L 256 157 L 203 210 L 203 210 L 192 221 L 192 221 L 181 210 L 181 210 L 128 157 L 128 157 L 128 17 L 128 17 L 128 0 L 128 0 Q 120 3 112 6 Q 62 30 31 76 Q 1 122 0 181 Q 1 235 26 278 Q 52 322 96 347 L 96 493 L 96 493 L 96 509 L 96 509 L 112 509 L 112 509 L 112 493 L 112 493 L 112 413 L 112 413 L 112 347 L 112 347 L 112 338 L 112 338 L 104 333 L 104 333 Q 64 310 40 270 Q 17 230 16 181 Q 17 129 43 88 Q 69 47 112 24 L 112 157 L 112 157 L 112 164 L 112 164 L 117 168 L 117 168 L 181 232 L 181 232 L 192 244 L 192 244 L 203 232 L 203 232 L 267 168 L 267 168 Z" />
</svg>