<svg xmlns="http://www.w3.org/2000/svg" viewBox="0 0 640 384">
  <path d="M 16 8 L 16 0 L 16 8 L 16 0 L 0 0 L 0 0 L 0 8 L 0 8 L 0 184 L 0 184 L 0 376 L 0 376 L 0 384 L 0 384 L 16 384 L 16 384 L 16 376 L 16 376 L 16 192 L 16 192 L 304 192 L 304 192 L 304 376 L 304 376 L 304 384 L 304 384 L 320 384 L 320 384 L 320 376 L 320 376 L 320 184 L 320 184 L 320 8 L 320 8 L 320 0 L 320 0 L 304 0 L 304 0 L 304 8 L 304 8 L 304 176 L 304 176 L 16 176 L 16 176 L 16 8 L 16 8 Z M 432 0 L 426 0 L 432 0 L 426 0 L 424 6 L 424 6 L 384 182 L 384 182 L 382 192 L 382 192 L 392 192 L 536 192 Q 573 193 598 218 Q 623 243 624 280 Q 623 317 598 342 Q 573 367 536 368 L 448 368 L 448 368 Q 415 366 403 335 L 400 326 L 400 326 L 397 318 L 397 318 L 382 323 L 382 323 L 384 331 L 384 331 L 388 340 L 388 340 Q 395 360 411 372 Q 427 384 448 384 L 536 384 L 536 384 Q 580 383 610 354 Q 639 324 640 280 Q 639 236 610 207 Q 580 177 536 176 L 402 176 L 402 176 L 438 16 L 438 16 L 600 16 L 608 16 L 608 0 L 608 0 L 600 0 L 432 0 Z" />
</svg>