<svg xmlns="http://www.w3.org/2000/svg" viewBox="0 0 576 448">
  <path d="M 560 16 L 560 432 L 560 16 L 560 432 L 16 432 L 16 432 L 16 16 L 16 16 L 560 16 L 560 16 Z M 16 0 L 0 0 L 16 0 L 0 0 L 0 16 L 0 16 L 0 432 L 0 432 L 0 448 L 0 448 L 16 448 L 576 448 L 576 432 L 576 432 L 576 16 L 576 16 L 576 0 L 576 0 L 560 0 L 16 0 Z M 224 368 Q 185 368 152 349 L 152 349 L 152 349 Q 119 330 99 296 Q 80 262 80 224 Q 80 186 99 152 Q 119 118 152 99 Q 185 80 224 80 Q 263 80 296 99 Q 329 118 349 152 Q 368 186 368 224 Q 368 262 349 296 Q 329 330 296 349 Q 263 368 224 368 L 224 368 Z M 64 224 Q 64 267 85 304 L 85 304 L 85 304 Q 107 341 144 363 Q 182 384 224 384 Q 266 384 304 363 Q 341 341 363 304 Q 384 267 384 224 Q 384 181 363 144 Q 341 107 304 85 Q 266 64 224 64 Q 182 64 144 85 Q 107 107 85 144 Q 64 181 64 224 L 64 224 Z M 208 224 Q 209 209 224 208 Q 239 209 240 224 Q 239 239 224 240 Q 209 239 208 224 L 208 224 Z M 256 224 Q 256 210 247 201 L 247 201 L 247 201 Q 238 192 224 192 Q 210 192 201 201 Q 192 210 192 224 Q 192 238 201 247 Q 210 256 224 256 Q 238 256 247 247 Q 256 238 256 224 L 256 224 Z M 451 303 L 479 318 L 451 303 L 479 318 L 462 351 L 462 351 L 455 366 L 455 366 L 427 351 L 427 351 L 434 337 L 434 337 L 451 303 L 451 303 Z M 436 296 L 419 330 L 436 296 L 419 330 L 412 344 L 412 344 L 405 358 L 405 358 L 419 366 L 419 366 L 448 380 L 448 380 L 462 387 L 462 387 L 470 373 L 470 373 L 477 358 L 477 358 L 494 325 L 494 325 L 501 310 L 501 310 L 486 303 L 486 303 L 479 300 L 479 300 L 511 236 L 511 236 L 512 234 L 512 234 L 512 232 L 512 232 L 512 72 L 512 72 L 512 64 L 512 64 L 496 64 L 496 64 L 496 72 L 496 72 L 496 230 L 496 230 L 465 292 L 465 292 L 458 289 L 458 289 L 443 282 L 443 282 L 436 296 L 436 296 Z" />
</svg>