<svg xmlns="http://www.w3.org/2000/svg" viewBox="0 0 448 448">
  <path d="M 432 16 L 432 432 L 432 16 L 432 432 L 16 432 L 16 432 L 16 16 L 16 16 L 432 16 L 432 16 Z M 448 0 L 432 0 L 448 0 L 0 0 L 0 16 L 0 16 L 0 432 L 0 432 L 0 448 L 0 448 L 16 448 L 448 448 L 448 432 L 448 432 L 448 16 L 448 16 L 448 0 L 448 0 Z M 379 199 Q 335 157 280 143 L 280 143 L 280 143 Q 224 129 168 143 L 168 143 L 168 143 Q 113 157 69 199 L 58 209 L 58 209 L 54 214 L 54 214 L 57 219 L 57 219 L 95 276 L 95 276 L 98 281 L 98 281 L 103 280 L 103 280 L 178 259 L 178 259 L 185 257 L 185 257 L 184 250 L 184 250 L 179 208 L 179 208 Q 224 196 269 208 L 264 250 L 264 250 L 263 257 L 263 257 L 270 259 L 270 259 L 345 280 L 345 280 L 350 281 L 350 281 L 353 276 L 353 276 L 391 219 L 391 219 L 394 214 L 394 214 L 390 209 L 390 209 L 379 199 L 379 199 Z M 80 210 Q 143 152 224 152 L 224 152 L 224 152 Q 305 152 368 210 Q 368 210 368 210 Q 368 210 368 210 L 374 216 L 374 216 L 343 263 L 343 263 L 281 245 L 281 245 L 286 203 L 286 203 L 286 196 L 286 196 L 280 195 L 280 195 Q 224 178 168 195 L 162 196 L 162 196 L 163 203 L 163 203 L 167 245 L 167 245 L 105 263 L 105 263 L 74 216 L 74 216 L 80 210 L 80 210 Z" />
</svg>