<svg xmlns="http://www.w3.org/2000/svg" viewBox="0 0 510 510">
  <path d="M 358 164 L 416 222 L 358 164 L 416 222 L 249 496 L 249 496 L 240 510 L 240 510 L 228 498 L 228 498 L 12 282 L 12 282 L 0 270 L 0 270 L 14 261 L 14 261 L 288 94 L 288 94 L 346 152 L 346 152 L 498 0 L 498 0 L 510 12 L 510 12 L 358 164 L 358 164 Z M 26 273 L 94 341 L 26 273 L 94 341 L 146 288 L 146 288 L 152 283 L 152 283 L 163 294 L 163 294 L 158 300 L 158 300 L 105 352 L 105 352 L 237 484 L 237 484 L 339 317 L 339 317 L 193 171 L 193 171 L 26 273 L 26 273 Z M 348 303 L 396 224 L 348 303 L 396 224 L 286 114 L 286 114 L 207 162 L 207 162 L 348 303 L 348 303 Z" />
</svg>