<svg xmlns="http://www.w3.org/2000/svg" viewBox="0 0 512 512">
  <path d="M 256 16 Q 323 17 377 49 L 377 49 L 377 49 Q 431 81 463 135 L 463 135 L 463 135 Q 495 189 496 256 L 496 264 L 496 264 L 512 264 L 512 264 L 512 256 L 512 256 Q 511 184 477 127 Q 443 69 385 35 Q 328 1 256 0 Q 184 1 127 35 Q 69 69 35 127 Q 1 184 0 256 L 0 264 L 0 264 L 16 264 L 16 264 L 16 256 L 16 256 Q 17 189 49 135 Q 81 81 135 49 Q 189 17 256 16 L 256 16 Z M 390 315 L 262 163 L 390 315 L 262 163 L 256 155 L 256 155 L 250 163 L 250 163 L 122 315 L 122 315 L 117 321 L 117 321 L 129 331 L 129 331 L 134 325 L 134 325 L 248 190 L 248 190 L 248 504 L 248 504 L 248 512 L 248 512 L 264 512 L 264 512 L 264 504 L 264 504 L 264 190 L 264 190 L 378 325 L 378 325 L 383 331 L 383 331 L 395 321 L 395 321 L 390 315 L 390 315 Z" />
</svg>