<svg xmlns="http://www.w3.org/2000/svg" viewBox="0 0 448 448">
  <path d="M 16 432 L 16 16 L 16 432 L 16 16 L 432 16 L 432 16 L 432 432 L 432 432 L 16 432 L 16 432 Z M 0 448 L 16 448 L 0 448 L 448 448 L 448 432 L 448 432 L 448 16 L 448 16 L 448 0 L 448 0 L 432 0 L 0 0 L 0 16 L 0 16 L 0 432 L 0 432 L 0 448 L 0 448 Z M 96 160 L 96 176 L 96 160 L 96 176 L 96 200 L 96 200 L 224 320 L 224 320 L 352 200 L 352 200 L 352 176 L 352 176 L 352 160 L 352 160 L 336 160 L 96 160 Z M 336 193 L 224 298 L 336 193 L 224 298 L 112 193 L 112 193 L 112 176 L 112 176 L 336 176 L 336 176 L 336 193 L 336 193 Z" />
</svg>