<svg xmlns="http://www.w3.org/2000/svg" viewBox="0 0 640 512">
  <path d="M 304 48 L 112 48 L 304 48 L 112 48 L 112 16 L 112 16 L 304 16 L 304 16 L 304 48 L 304 48 Z M 320 16 L 320 0 L 320 16 L 320 0 L 304 0 L 96 0 L 96 16 L 96 16 L 96 48 L 96 48 L 96 64 L 96 64 L 112 64 L 128 64 L 128 224 L 128 224 L 64 224 L 64 224 L 64 208 L 64 208 L 64 192 L 64 192 L 48 192 L 0 192 L 0 208 L 0 208 L 0 400 L 0 400 L 0 416 L 0 416 L 16 416 L 64 416 L 64 400 L 64 400 L 64 384 L 64 384 L 320 384 L 320 384 L 320 368 L 320 368 L 64 368 L 64 368 L 64 240 L 64 240 L 136 240 L 144 240 L 144 232 L 144 232 L 144 64 L 144 64 L 272 64 L 272 64 L 272 232 L 272 232 L 272 240 L 272 240 L 280 240 L 320 240 L 320 224 L 320 224 L 288 224 L 288 224 L 288 64 L 288 64 L 304 64 L 320 64 L 320 48 L 320 48 L 320 16 L 320 16 Z M 368 169 L 453 112 L 368 169 L 453 112 L 624 112 L 624 112 L 624 496 L 624 496 L 453 496 L 453 496 L 368 439 L 368 439 L 368 169 L 368 169 Z M 448 96 L 352 160 L 448 96 L 352 160 L 352 448 L 352 448 L 448 512 L 448 512 L 624 512 L 640 512 L 640 496 L 640 496 L 640 112 L 640 112 L 640 96 L 640 96 L 624 96 L 448 96 Z M 448 224 L 448 240 L 448 224 L 448 240 L 456 240 L 576 240 L 576 224 L 576 224 L 568 224 L 448 224 Z M 448 296 L 448 312 L 448 296 L 448 312 L 456 312 L 576 312 L 576 296 L 576 296 L 568 296 L 448 296 Z M 448 368 L 448 384 L 448 368 L 448 384 L 456 384 L 576 384 L 576 368 L 576 368 L 568 368 L 448 368 Z M 16 208 L 48 208 L 16 208 L 48 208 L 48 400 L 48 400 L 16 400 L 16 400 L 16 208 L 16 208 Z" />
</svg>