<svg xmlns="http://www.w3.org/2000/svg" viewBox="0 0 448 448">
  <path d="M 448 80 L 448 64 L 448 80 L 448 64 L 384 64 L 384 64 L 384 0 L 384 0 L 368 0 L 368 0 L 368 64 L 368 64 L 80 64 L 80 64 L 80 0 L 80 0 L 64 0 L 64 0 L 64 64 L 64 64 L 0 64 L 0 64 L 0 80 L 0 80 L 64 80 L 64 80 L 64 368 L 64 368 L 0 368 L 0 368 L 0 384 L 0 384 L 64 384 L 64 384 L 64 448 L 64 448 L 80 448 L 80 448 L 80 384 L 80 384 L 368 384 L 368 384 L 368 448 L 368 448 L 384 448 L 384 448 L 384 384 L 384 384 L 448 384 L 448 384 L 448 368 L 448 368 L 384 368 L 384 368 L 384 80 L 384 80 L 448 80 L 448 80 Z M 80 368 L 80 80 L 80 368 L 80 80 L 368 80 L 368 80 L 368 368 L 368 368 L 80 368 L 80 368 Z" />
</svg>