<svg xmlns="http://www.w3.org/2000/svg" viewBox="0 0 640 512">
  <path d="M 107 120 L 28 133 L 107 120 L 28 133 L 74 199 L 74 199 L 80 208 L 80 208 L 74 217 L 74 217 L 28 283 L 28 283 L 107 296 L 107 296 L 118 298 L 118 298 L 120 310 L 120 310 L 133 389 L 133 389 L 160 369 L 160 369 L 160 389 L 160 389 L 136 406 L 136 406 L 121 416 L 121 416 L 118 399 L 118 399 L 104 312 L 104 312 L 18 298 L 18 298 L 0 295 L 0 295 L 10 280 L 10 280 L 61 208 L 61 208 L 10 136 L 10 136 L 0 121 L 0 121 L 18 118 L 18 118 L 104 104 L 104 104 L 118 18 L 118 18 L 121 0 L 121 0 L 136 10 L 136 10 L 208 61 L 208 61 L 280 10 L 280 10 L 295 0 L 295 0 L 298 18 L 298 18 L 308 79 L 308 79 Q 300 83 293 88 L 283 28 L 283 28 L 217 74 L 217 74 L 208 80 L 208 80 L 199 74 L 199 74 L 133 28 L 133 28 L 120 107 L 120 107 L 118 118 L 118 118 L 106 120 L 107 120 Z M 208 112 Q 236 112 258 126 Q 254 133 251 140 Q 232 128 208 128 Q 174 129 151 151 Q 129 174 128 208 Q 130 249 161 273 Q 160 280 160 288 L 160 291 L 160 291 Q 138 278 125 257 Q 112 235 112 208 Q 113 167 140 140 Q 167 113 208 112 L 208 112 Z M 368 96 Q 415 98 443 132 Q 447 137 450 142 Q 455 139 459 137 Q 476 128 496 128 Q 530 129 553 151 Q 575 174 576 208 Q 576 213 575 219 Q 575 222 574 225 Q 577 226 580 226 Q 607 234 623 255 Q 639 275 640 304 L 640 368 L 640 368 L 640 384 L 640 384 L 624 384 L 544 384 L 544 368 L 544 368 L 560 368 L 624 368 L 624 304 L 624 304 Q 624 280 609 263 Q 594 245 571 241 L 555 238 L 555 238 L 558 222 L 558 222 Q 560 215 560 208 Q 560 186 548 170 Q 536 154 516 147 L 517 142 L 517 142 L 512 146 L 512 146 Q 504 144 496 144 Q 475 144 459 155 L 445 165 L 445 165 L 436 151 L 436 151 Q 413 114 368 112 Q 334 113 311 135 Q 289 158 288 192 L 288 193 L 288 193 L 288 207 L 288 207 L 275 209 L 275 209 Q 246 214 227 236 Q 209 258 208 288 L 208 368 L 208 368 L 256 368 L 256 368 L 256 384 L 256 384 L 208 384 L 192 384 L 192 368 L 192 368 L 192 288 L 192 288 Q 193 252 215 226 Q 237 200 272 193 L 272 192 L 272 192 Q 273 151 300 124 Q 327 97 368 96 L 368 96 Z M 342 487 L 364 400 L 342 487 L 364 400 L 368 384 L 368 384 L 352 384 L 288 384 L 288 368 L 288 368 L 288 360 L 288 360 L 444 240 L 444 240 L 464 224 L 464 224 L 458 249 L 458 249 L 436 336 L 436 336 L 432 352 L 432 352 L 449 352 L 512 352 L 512 368 L 512 368 L 512 376 L 512 376 L 356 496 L 356 496 L 336 512 L 336 512 L 342 487 L 342 487 Z M 368 368 L 389 368 L 368 368 L 389 368 L 384 388 L 384 388 L 363 471 L 363 471 L 496 368 L 496 368 L 496 368 L 496 368 L 432 368 L 412 368 L 417 348 L 417 348 L 437 265 L 437 265 L 304 368 L 304 368 L 304 368 L 304 368 L 368 368 L 368 368 Z" />
</svg>