<svg xmlns="http://www.w3.org/2000/svg" viewBox="0 0 568 512">
  <path d="M 416 144 Q 416 105 397 72 L 397 72 L 397 72 Q 378 39 344 19 Q 310 0 272 0 Q 234 0 200 19 Q 166 39 147 72 Q 128 105 128 144 Q 128 183 147 216 Q 166 249 200 269 Q 234 288 272 288 Q 310 288 344 269 Q 378 249 397 216 Q 416 183 416 144 L 416 144 Z M 249 111 Q 248 112 248 115 Q 248 115 248 115 Q 248 115 248 115 Q 247 116 253 120 Q 261 124 275 127 Q 276 128 277 128 L 277 128 L 277 128 Q 292 131 307 139 Q 325 148 328 172 Q 326 199 306 209 Q 297 213 288 215 L 288 226 L 288 226 L 288 242 L 288 242 L 256 242 L 256 242 L 256 226 L 256 226 L 256 214 L 256 214 Q 243 211 232 208 Q 232 208 232 208 Q 232 208 232 208 Q 232 208 232 208 Q 232 208 232 208 Q 230 207 228 206 Q 228 206 227 206 L 212 201 L 212 201 L 222 171 L 222 171 L 237 175 L 237 175 Q 240 176 243 177 Q 243 177 244 178 Q 260 183 273 184 Q 283 184 291 180 Q 294 179 295 177 Q 296 176 296 173 Q 297 171 291 167 Q 283 163 268 159 L 266 158 L 266 158 Q 252 155 238 148 Q 220 141 216 117 Q 217 89 238 80 Q 247 75 256 74 L 256 64 L 256 64 L 256 48 L 256 48 L 288 48 L 288 48 L 288 64 L 288 64 L 288 74 L 288 74 Q 297 75 306 77 L 321 81 L 321 81 L 314 112 L 314 112 L 298 108 L 298 108 Q 284 105 272 104 Q 262 104 253 108 Q 250 110 249 112 L 249 111 Z M 140 327 L 69 384 L 140 327 L 69 384 L 0 384 L 0 384 L 0 512 L 0 512 L 32 512 L 396 512 L 407 505 L 407 505 L 535 417 L 535 417 L 568 394 L 568 394 L 522 328 L 522 328 L 489 351 L 489 351 L 395 416 L 395 416 L 256 416 L 256 416 L 256 384 L 256 384 L 288 384 L 384 384 L 384 320 L 384 320 L 352 320 L 149 320 L 140 327 L 140 327 Z" />
</svg>