<svg xmlns="http://www.w3.org/2000/svg" viewBox="0 0 384 512">
  <path d="M 16 16 L 16 496 L 16 16 L 16 496 L 368 496 L 368 496 L 368 16 L 368 16 L 16 16 L 16 16 Z M 0 0 L 16 0 L 0 0 L 384 0 L 384 16 L 384 16 L 384 496 L 384 496 L 384 512 L 384 512 L 368 512 L 0 512 L 0 496 L 0 496 L 0 16 L 0 16 L 0 0 L 0 0 Z M 240 192 Q 239 165 216 150 Q 192 138 168 150 Q 145 165 144 192 Q 145 219 168 234 Q 192 246 216 234 Q 239 219 240 192 L 240 192 Z M 102 368 L 282 368 L 102 368 L 282 368 L 261 304 L 261 304 L 124 304 L 124 304 L 102 368 L 102 368 Z M 272 288 L 299 368 L 272 288 L 299 368 L 304 384 L 304 384 L 287 384 L 80 384 L 85 368 L 85 368 L 112 288 L 112 288 L 272 288 L 272 288 Z M 192 128 Q 228 129 247 160 Q 265 192 247 224 Q 228 255 192 256 Q 156 255 137 224 Q 119 192 137 160 Q 156 129 192 128 L 192 128 Z" />
</svg>