<svg xmlns="http://www.w3.org/2000/svg" viewBox="0 0 640 512">
  <path d="M 16 5 L 10 0 L 16 5 L 10 0 L 0 13 L 0 13 L 6 18 L 6 18 L 624 507 L 624 507 L 630 512 L 630 512 L 640 500 L 640 500 L 634 495 L 634 495 L 16 5 L 16 5 Z M 488 480 L 467 464 L 488 480 L 467 464 L 112 464 L 112 464 L 112 184 L 112 184 L 96 171 L 96 171 L 96 464 L 96 464 L 96 480 L 96 480 L 112 480 L 488 480 Z M 153 32 L 173 48 L 153 32 L 173 48 L 528 48 L 528 48 L 528 329 L 528 329 L 544 341 L 544 341 L 544 48 L 544 48 L 544 32 L 544 32 L 528 32 L 153 32 Z M 240 285 L 240 288 L 240 285 L 240 288 L 240 304 L 240 304 L 240 376 L 240 376 L 240 384 L 240 384 L 256 384 L 256 384 L 256 376 L 256 376 L 256 352 L 256 352 L 256 304 L 256 304 L 256 297 L 256 297 L 240 285 L 240 285 Z M 432 253 Q 438 239 440 224 L 440 224 L 440 224 L 440 216 L 440 216 Q 439 179 414 154 Q 389 129 352 128 L 274 128 L 274 128 L 294 144 L 294 144 L 352 144 L 352 144 Q 383 145 403 165 Q 423 185 424 216 Q 424 230 419 242 L 432 253 L 432 253 Z" />
</svg>