<svg xmlns="http://www.w3.org/2000/svg" viewBox="0 0 384 512">
  <path d="M 368 16 L 368 496 L 368 16 L 368 496 L 16 496 L 16 496 L 16 135 L 16 135 L 135 16 L 135 16 L 368 16 L 368 16 Z M 128 0 L 0 128 L 128 0 L 0 128 L 0 496 L 0 496 L 0 512 L 0 512 L 16 512 L 384 512 L 384 496 L 384 496 L 384 16 L 384 16 L 384 0 L 384 0 L 368 0 L 128 0 Z M 176 72 L 176 64 L 176 72 L 176 64 L 160 64 L 160 64 L 160 72 L 160 72 L 160 152 L 160 152 L 160 160 L 160 160 L 176 160 L 176 160 L 176 152 L 176 152 L 176 72 L 176 72 Z M 240 72 L 240 64 L 240 72 L 240 64 L 224 64 L 224 64 L 224 72 L 224 72 L 224 152 L 224 152 L 224 160 L 224 160 L 240 160 L 240 160 L 240 152 L 240 152 L 240 72 L 240 72 Z M 304 72 L 304 64 L 304 72 L 304 64 L 288 64 L 288 64 L 288 72 L 288 72 L 288 152 L 288 152 L 288 160 L 288 160 L 304 160 L 304 160 L 304 152 L 304 152 L 304 72 L 304 72 Z" />
</svg>