<svg xmlns="http://www.w3.org/2000/svg" viewBox="0 0 288 512">
  <path d="M 80 257 L 73 262 L 80 257 L 73 262 Q 47 279 32 307 Q 16 334 16 368 Q 17 422 53 459 Q 90 495 144 496 Q 198 495 235 459 Q 271 422 272 368 Q 272 334 256 307 Q 241 279 215 262 L 208 257 L 208 257 L 208 248 L 208 248 L 208 16 L 208 16 L 80 16 L 80 16 L 80 248 L 80 248 L 80 257 L 80 257 Z M 208 0 L 224 0 L 208 0 L 224 0 L 224 16 L 224 16 L 224 248 L 224 248 Q 253 268 270 299 Q 288 330 288 368 Q 286 429 246 470 Q 205 510 144 512 Q 83 510 42 470 Q 2 429 0 368 Q 0 330 18 299 Q 35 268 64 248 L 64 16 L 64 16 L 64 0 L 64 0 L 80 0 L 208 0 Z M 144 416 Q 171 415 186 392 Q 198 368 186 344 Q 171 321 144 320 Q 117 321 102 344 Q 90 368 102 392 Q 117 415 144 416 L 144 416 Z M 144 432 Q 117 431 99 413 L 99 413 L 99 413 Q 81 395 80 368 Q 81 343 96 325 Q 112 308 136 305 L 136 264 L 136 264 L 136 256 L 136 256 L 152 256 L 152 256 L 152 264 L 152 264 L 152 305 L 152 305 Q 176 308 192 325 Q 207 343 208 368 Q 207 395 189 413 Q 171 431 144 432 L 144 432 Z" />
</svg>