<svg xmlns="http://www.w3.org/2000/svg" viewBox="0 0 512 512">
  <path d="M 36.012234 59.49847 Q 21.137615 50.103977 9.394495 62.62997 Q 0 77.504585 12.525994 89.2477 L 475.98776 452.50153 Q 490.8624 461.89603 502.6055 449.37003 Q 512 434.49542 499.474 422.7523 L 326.4587 287.31497 L 385.95718 227.81651 L 284.18347 126.042816 L 212.15903 198.06728 L 36.012234 59.49847 L 36.012234 59.49847 Z M 97.076454 313.14984 Q 89.2477 320.9786 86.11621 331.93884 L 56.366974 432.1468 Q 53.235474 443.10703 61.06422 450.9358 Q 68.89297 457.98166 79.85321 455.63303 L 180.06116 425.8838 Q 191.02141 422.7523 198.85016 414.92355 L 272.44037 341.33334 L 158.92355 251.30275 L 97.076454 313.14984 L 97.076454 313.14984 Z M 339.76758 70.45872 L 301.40674 108.81957 L 403.18042 210.59328 L 441.5413 172.23242 Q 455.63303 157.3578 455.63303 137.00305 Q 455.63303 117.43119 441.5413 101.7737 L 410.2263 70.45872 Q 395.35168 56.366974 374.99695 56.366974 Q 355.42508 56.366974 339.76758 70.45872 L 339.76758 70.45872 Z" />
</svg>