<svg xmlns="http://www.w3.org/2000/svg" viewBox="0 0 512 512">
  <path d="M 36.012234 59.49847 Q 21.137615 50.103977 9.394495 62.62997 Q 0 77.504585 12.525994 89.2477 L 475.98776 452.50153 Q 490.8624 461.89603 502.6055 449.37003 Q 512 434.49542 499.474 422.7523 L 443.10703 378.91132 Q 456.4159 363.2538 456.4159 343.68195 L 456.4159 137.00305 L 456.4159 80.636086 Q 456.4159 68.11009 446.23853 60.281345 Q 436.06116 53.235474 424.31805 56.366974 L 173.79817 131.52293 Q 158.14067 137.00305 155.79205 153.44342 L 36.012234 59.49847 L 36.012234 59.49847 Z M 241.12538 219.98776 L 406.31192 170.66667 L 406.31192 284.96637 Q 394.56882 281.052 381.25995 281.052 Q 354.6422 281.83487 335.07034 294.36087 L 241.12538 219.98776 L 241.12538 219.98776 Z M 155.79205 248.95413 L 155.79205 335.07034 Q 144.04893 331.15598 130.74007 331.15598 Q 98.642204 331.93884 77.504585 349.16208 Q 56.366974 367.16818 55.5841 393.78592 Q 56.366974 420.40366 77.504585 438.4098 Q 98.642204 455.63303 130.74007 456.4159 Q 162.83792 455.63303 183.97554 438.4098 Q 205.11314 420.40366 205.89603 393.78592 L 205.89603 288.88074 L 155.79205 248.95413 L 155.79205 248.95413 Z" />
</svg>