<svg xmlns="http://www.w3.org/2000/svg" viewBox="0 0 577 480">
  <path d="M 0 40 Q 0 23 12 12 L 12 12 L 12 12 Q 23 0 40 0 L 408 0 L 408 0 Q 425 0 436 12 Q 448 23 448 40 L 448 64 L 448 64 Q 448 100 437 133 Q 424 120 411 108 Q 397 96 380 96 Q 362 96 348 108 Q 294 157 261 211 Q 237 248 227 288 Q 227 288 226 288 Q 225 288 224 288 Q 198 288 175 283 L 152 336 L 152 336 L 225 336 L 225 336 Q 227 361 236 384 L 160 384 L 160 384 Q 159 411 141 429 Q 123 447 96 448 Q 69 447 51 429 Q 33 411 32 384 Q 33 357 51 339 Q 69 321 96 320 Q 101 320 106 321 L 129 267 L 129 267 Q 71 239 36 186 Q 1 132 0 64 L 0 40 L 0 40 Z M 96 408 Q 118 406 120 384 Q 118 362 96 360 Q 74 362 72 384 Q 74 406 96 408 L 96 408 Z M 416 480 Q 348 478 303 433 L 303 433 L 303 433 Q 258 388 256 320 Q 259 262 293 215 Q 327 167 363 141 Q 371 135 380 135 Q 392 135 402 144 L 448 190 L 448 190 L 459 179 L 459 179 Q 469 170 480 169 Q 492 169 502 178 Q 545 222 561 259 Q 577 296 576 320 Q 574 388 529 433 Q 484 478 416 480 L 416 480 Z M 480 368 Q 478 340 459 316 L 459 316 L 459 316 Q 440 292 425 280 Q 416 273 407 280 Q 392 292 373 316 Q 354 340 352 368 Q 353 395 371 413 Q 389 432 416 432 Q 443 432 461 413 Q 479 395 480 368 L 480 368 Z" />
</svg>