<svg xmlns="http://www.w3.org/2000/svg" viewBox="0 0 448 448">
  <path d="M 0 64 Q 1 37 19 19 L 19 19 L 19 19 Q 37 1 64 0 L 384 0 L 384 0 Q 411 1 429 19 Q 447 37 448 64 L 448 384 L 448 384 Q 447 411 429 429 Q 411 447 384 448 L 64 448 L 64 448 Q 37 447 19 429 Q 1 411 0 384 L 0 64 L 0 64 Z M 85 235 L 197 347 L 85 235 L 197 347 Q 204 354 214 351 Q 223 346 224 336 L 224 272 L 224 272 L 320 272 L 320 272 Q 334 272 343 263 Q 352 254 352 240 L 352 208 L 352 208 Q 352 194 343 185 Q 334 176 320 176 L 224 176 L 224 176 L 224 112 L 224 112 Q 224 102 214 97 Q 204 94 197 101 L 85 213 L 85 213 Q 75 224 85 235 L 85 235 Z" />
</svg>