<svg xmlns="http://www.w3.org/2000/svg" viewBox="0 0 448 512">
  <path d="M 375 297 L 247 169 L 375 297 L 247 169 Q 237 160 224 160 Q 211 160 201 169 L 73 297 L 73 297 Q 64 307 64 320 Q 64 333 73 343 Q 83 352 96 352 Q 109 352 119 343 L 192 269 L 192 269 L 192 480 L 192 480 Q 192 494 201 503 Q 210 512 224 512 Q 238 512 247 503 Q 256 494 256 480 L 256 269 L 256 269 L 329 343 L 329 343 Q 339 352 352 352 Q 365 352 375 343 Q 384 333 384 320 Q 384 307 375 297 L 375 297 Z M 64 160 L 64 96 L 64 160 L 64 96 Q 64 82 73 73 Q 82 64 96 64 L 352 64 L 352 64 Q 366 64 375 73 Q 384 82 384 96 L 384 160 L 384 160 Q 384 174 393 183 Q 402 192 416 192 Q 430 192 439 183 Q 448 174 448 160 L 448 96 L 448 96 Q 447 55 420 28 Q 393 1 352 0 L 96 0 L 96 0 Q 55 1 28 28 Q 1 55 0 96 L 0 160 L 0 160 Q 0 174 9 183 Q 18 192 32 192 Q 46 192 55 183 Q 64 174 64 160 L 64 160 Z" />
</svg>