<svg xmlns="http://www.w3.org/2000/svg" viewBox="0 0 512 512">
  <path d="M 0 127.6 Q 0.8 106 15.2 91.6 L 15.2 91.6 Q 29.6 77.2 51.2 76.4 L 409.6 76.4 Q 431.2 77.2 445.6 91.6 Q 460 106 460.8 127.6 L 460.8 179.6 Q 442.4 182 428 195.6 L 282.4 340.4 Q 272.8 350.8 269.6 364.4 L 264.8 383.6 L 51.2 383.6 Q 29.6 382.8 15.2 368.4 Q 0.8 354 0 332.4 L 0 127.6 L 0 127.6 Z M 204.8 268.4 Q 205.6 280.4 217.6 281.2 L 268.8 281.2 Q 280.8 280.4 281.6 268.4 Q 280.8 256.4 268.8 255.6 L 217.6 255.6 Q 205.6 256.4 204.8 268.4 L 204.8 268.4 Z M 217.6 178.8 Q 205.6 179.6 204.8 191.6 Q 205.6 203.6 217.6 204.4 L 345.6 204.4 Q 357.6 203.6 358.4 191.6 Q 357.6 179.6 345.6 178.8 L 217.6 178.8 L 217.6 178.8 Z M 115.2 137.2 Q 100.8 138.8 99.2 153.2 L 99.2 158 Q 92.8 159.6 86.4 162 Q 67.2 170 61.6 192.4 Q 59.2 204.4 64 215.6 Q 69.6 226 78.4 230.8 Q 93.6 240.4 108.8 243.6 L 110.4 244.4 Q 127.2 249.2 134.4 254 Q 136.8 255.6 136.8 257.2 Q 137.6 258 137.6 262 Q 136.8 266.8 131.2 269.2 Q 123.2 273.2 108 270.8 Q 99.2 269.2 87.2 264.4 L 87.2 264.4 L 87.2 264.4 Q 85.6 264.4 84.8 263.6 Q 83.2 263.6 81.6 262.8 Q 67.2 259.6 61.6 273.2 Q 58.4 287.6 72 293.2 Q 72.8 294 75.2 294.8 Q 86.4 298.8 99.2 302 L 99.2 306.8 Q 100.8 321.2 115.2 322.8 Q 129.6 321.2 131.2 306.8 L 131.2 302.8 Q 137.6 301.2 143.2 298.8 Q 164 290.8 168.8 267.6 Q 171.2 255.6 166.4 244.4 Q 161.6 233.2 152.8 227.6 Q 136.8 218 120.8 214 Q 120.8 214 120.8 214 L 120 214 Q 103.2 209.2 96 204.4 Q 92.8 202.8 92.8 202 Q 92.8 202 92.8 198 Q 92.8 195.6 100 191.6 Q 107.2 187.6 122.4 189.2 Q 125.6 190 131.2 190.8 Q 136.8 192.4 140 192.4 Q 154.4 194.8 159.2 181.2 Q 161.6 166.8 148 162 Q 140.8 160.4 131.2 158 L 131.2 153.2 Q 129.6 138.8 115.2 137.2 L 115.2 137.2 Z M 491.2 214 L 502.4 225.2 Q 512 234.8 512 247.6 Q 512 260.4 502.4 270.8 L 479.2 294 L 422.4 237.2 L 445.6 214 Q 456 204.4 468 204.4 Q 480.8 204.4 491.2 214 L 491.2 214 Z M 300.8 358.8 L 404 255.6 L 460.8 312.4 L 357.6 415.6 Q 352.8 420.4 345.6 422 L 297.6 434 Q 290.4 435.6 285.6 430.8 Q 280.8 426 281.6 418.8 L 293.6 370.8 Q 296 363.6 300.8 358.8 L 300.8 358.8 Z" />
</svg>