<svg xmlns="http://www.w3.org/2000/svg" viewBox="0 0 512 512">
  <path d="M 230.4 331.6 L 230.4 333.2 L 204.8 333.2 Q 193.6 333.2 186.4 340.4 Q 179.2 347.6 179.2 358.8 L 179.2 410 L 179.2 429.2 Q 179.2 442.8 169.6 451.6 Q 160.8 461.2 147.2 461.2 L 128 461.2 L 102.4 461.2 Q 101.6 461.2 100.8 461.2 Q 100 461.2 99.2 461.2 Q 97.6 461.2 96 461.2 L 83.2 461.2 Q 69.6 461.2 60.8 451.6 Q 51.2 442.8 51.2 429.2 L 51.2 339.6 Q 51.2 338.8 51.2 337.2 L 51.2 282 L 25.6 282 Q 14.4 281.2 7.2 274 Q 0 266.8 0 256.4 Q 0 245.2 8 237.2 L 212.8 58 Q 221.6 50.8 230.4 51.6 Q 240 51.6 247.2 57.2 L 357.6 154 Q 342.4 153.2 330.4 163.6 Q 287.2 202.8 260 246 Q 247.2 266 239.2 288.4 Q 230.4 310 230.4 331.6 L 230.4 331.6 Z M 363.2 182.8 Q 386.4 203.6 407.2 229.2 Q 416.8 216.4 428.8 205.2 Q 436.8 198.8 444.8 205.2 Q 474.4 234 492.8 270 Q 501.6 287.6 506.4 304.4 Q 512 321.2 512 333.2 Q 510.4 387.6 474.4 423.6 Q 438.4 459.6 384 461.2 Q 328.8 459.6 292.8 423.6 Q 257.6 387.6 256 333.2 Q 256.8 299.6 281.6 259.6 Q 306.4 219.6 347.2 182.8 Q 350.4 179.6 355.2 179.6 Q 359.2 179.6 363.2 182.8 L 363.2 182.8 Z M 424 398 Q 442.4 384.4 446.4 363.6 L 446.4 363.6 Q 450.4 342 440 321.2 Q 439.2 318.8 437.6 316.4 Q 436 314 434.4 311.6 L 405.6 345.2 Q 404.8 344.4 393.6 330 Q 382.4 315.6 370.4 300.4 Q 358.4 285.2 356 282 Q 338.4 303.6 328.8 318.8 Q 320 334 320 347.6 Q 320.8 377.2 339.2 393.2 Q 356.8 410 384.8 410 Q 406.4 410 424 398 L 424 398 Z" />
</svg>