<svg xmlns="http://www.w3.org/2000/svg" viewBox="0 0 512 512">
  <path d="M 0 256 Q 1 326 34 384 L 34 384 L 34 384 Q 68 442 128 478 Q 189 512 256 512 Q 323 512 384 478 Q 444 442 478 384 Q 511 326 512 256 Q 511 186 478 128 Q 444 70 384 34 Q 323 0 256 0 Q 189 0 128 34 Q 68 70 34 128 Q 1 186 0 256 L 0 256 Z M 395 267 L 283 379 L 395 267 L 283 379 Q 276 386 266 383 Q 257 378 256 368 L 256 304 L 256 304 L 160 304 L 160 304 Q 146 304 137 295 Q 128 286 128 272 L 128 240 L 128 240 Q 128 226 137 217 Q 146 208 160 208 L 256 208 L 256 208 L 256 144 L 256 144 Q 256 134 266 129 Q 276 126 283 133 L 395 245 L 395 245 Q 405 256 395 267 L 395 267 Z" />
</svg>