<svg xmlns="http://www.w3.org/2000/svg" viewBox="0 0 448 512">
  <path d="M 224 48 Q 197 49 179 67 L 179 67 L 179 67 Q 161 85 160 112 L 160 160 L 160 160 L 288 160 L 288 160 L 288 112 L 288 112 Q 287 85 269 67 Q 251 49 224 48 L 224 48 Z M 48 160 L 112 160 L 48 160 L 112 160 L 112 112 L 112 112 Q 113 64 145 33 Q 176 1 224 0 Q 272 1 303 33 Q 335 64 336 112 L 336 160 L 336 160 L 400 160 L 400 160 Q 420 161 434 174 Q 447 188 448 208 L 448 416 L 448 416 Q 447 457 420 484 Q 393 511 352 512 L 96 512 L 96 512 Q 55 511 28 484 Q 1 457 0 416 L 0 208 L 0 208 Q 1 188 14 174 Q 28 161 48 160 L 48 160 Z M 144 312 Q 122 314 120 336 Q 122 358 144 360 L 304 360 L 304 360 Q 326 358 328 336 Q 326 314 304 312 L 144 312 L 144 312 Z" />
</svg>