<svg xmlns="http://www.w3.org/2000/svg" viewBox="0 0 640 512">
  <path d="M 96 0 Q 82 0 73 9 L 73 9 L 73 9 Q 64 18 64 32 L 48 32 L 48 32 Q 28 33 14 46 Q 1 60 0 80 L 0 368 L 0 368 Q 1 388 14 402 Q 28 415 48 416 L 384 416 L 384 416 Q 353 375 352 320 Q 352 282 368 250 Q 384 218 411 196 Q 434 179 457 192 Q 479 204 480 230 L 480 288 L 480 288 Q 480 302 489 311 Q 498 320 512 320 Q 526 320 535 311 Q 544 302 544 288 L 544 230 L 544 230 Q 545 204 567 192 Q 571 189 576 188 L 576 80 L 576 80 Q 575 60 562 46 Q 548 33 528 32 L 512 32 L 512 32 Q 512 18 503 9 Q 494 0 480 0 Q 466 0 457 9 Q 448 18 448 32 L 128 32 L 128 32 Q 128 18 119 9 Q 110 0 96 0 L 96 0 Z M 128 448 L 64 448 L 128 448 L 64 448 L 64 480 L 64 480 Q 64 494 73 503 Q 82 512 96 512 Q 110 512 119 503 Q 128 494 128 480 L 128 448 L 128 448 Z M 640 320 Q 638 258 593 221 Q 587 217 582 220 Q 576 223 576 230 L 576 288 L 576 288 Q 575 315 557 333 Q 539 351 512 352 Q 485 351 467 333 Q 449 315 448 288 L 448 230 L 448 230 Q 448 223 442 220 Q 437 217 431 221 Q 386 258 384 320 Q 386 383 432 420 L 432 476 L 432 476 Q 432 491 443 501 Q 453 512 468 512 L 556 512 L 556 512 Q 571 512 581 501 Q 592 491 592 476 L 592 420 L 592 420 Q 638 383 640 320 L 640 320 Z" />
</svg>