<svg xmlns="http://www.w3.org/2000/svg" viewBox="0 0 514 448">
  <path d="M 258 416 Q 330 415 387 388 L 387 388 L 387 388 Q 445 360 479 313 L 479 313 L 479 313 Q 513 266 514 208 Q 513 150 479 103 Q 445 56 387 28 Q 330 1 258 0 Q 186 1 129 28 Q 71 56 37 103 Q 3 150 2 208 Q 3 277 50 329 Q 45 366 28 392 Q 20 406 13 413 Q 10 417 8 419 Q 8 420 7 420 Q 7 420 7 421 L 7 421 L 7 421 Q 7 421 7 421 Q 7 421 7 421 Q 7 421 7 421 Q 7 421 7 421 Q 7 421 7 421 Q 7 421 7 421 Q 7 421 7 421 Q 7 421 7 421 Q 0 428 3 438 Q 8 448 18 448 Q 62 446 100 429 Q 135 413 154 398 Q 202 416 258 416 L 258 416 Z M 98 181 Q 98 165 109 155 L 109 155 L 109 155 Q 119 144 135 144 L 154 144 L 154 144 Q 169 145 170 160 Q 169 175 154 176 L 135 176 L 135 176 Q 130 176 130 181 Q 130 183 132 185 L 162 204 L 162 204 Q 178 216 178 235 Q 178 251 167 261 Q 157 272 141 272 L 114 272 L 114 272 Q 99 271 98 256 Q 99 241 114 240 L 141 240 L 141 240 Q 146 240 146 235 Q 146 233 144 231 L 114 212 L 114 212 Q 99 200 98 181 L 98 181 Z M 375 144 L 394 144 L 375 144 L 394 144 Q 409 145 410 160 Q 409 175 394 176 L 375 176 L 375 176 Q 370 176 370 181 Q 370 183 372 185 L 402 204 L 402 204 Q 417 216 418 235 Q 418 251 407 261 Q 397 272 381 272 L 354 272 L 354 272 Q 339 271 338 256 Q 339 241 354 240 L 381 240 L 381 240 Q 386 240 386 235 Q 386 233 384 231 L 354 212 L 354 212 Q 339 200 338 181 Q 338 165 349 155 Q 359 144 375 144 L 375 144 Z M 223 150 L 258 197 L 223 150 L 258 197 L 293 150 L 293 150 Q 300 142 311 145 Q 322 149 322 160 L 322 256 L 322 256 Q 321 271 306 272 Q 291 271 290 256 L 290 208 L 290 208 L 271 234 L 271 234 Q 266 240 258 240 Q 250 240 245 234 L 226 208 L 226 208 L 226 256 L 226 256 Q 225 271 210 272 Q 195 271 194 256 L 194 160 L 194 160 Q 195 149 205 145 Q 216 142 223 150 L 223 150 Z" />
</svg>