<svg xmlns="http://www.w3.org/2000/svg" viewBox="0 0 512 512">
  <path d="M 0 76.8 L 0 102.4 Q 0 113.6 7.2 120.8 Q 14.4 128 25.6 128 L 486.4 128 Q 497.6 128 504.8 120.8 Q 512 113.6 512 102.4 L 512 76.8 Q 512 65.6 504.8 58.4 Q 497.6 51.2 486.4 51.2 L 25.6 51.2 Q 14.4 51.2 7.2 58.4 Q 0 65.6 0 76.8 L 0 76.8 Z M 486.4 153.6 L 25.6 153.6 L 25.6 435.2 Q 25.6 446.4 32.8 453.6 Q 40 460.8 51.2 460.8 L 128 460.8 L 128 332.8 Q 129.6 278.4 165.6 242.4 Q 201.6 206.4 256 204.8 Q 310.4 206.4 346.4 242.4 Q 382.4 278.4 384 332.8 L 384 460.8 L 460.8 460.8 Q 472 460.8 479.2 453.6 Q 486.4 446.4 486.4 435.2 L 486.4 153.6 L 486.4 153.6 Z M 240.8 258.4 Q 237.6 256 235.2 256 Q 231.2 256 228.8 258.4 Q 199.2 284.8 181.6 313.6 Q 163.2 343.2 162.4 368 Q 164 407.2 189.6 433.6 Q 216 460 256 460.8 Q 295.2 460 321.6 433.6 Q 348 407.2 348.8 368 Q 348 348 335.2 321.6 Q 321.6 296 300 274.4 Q 293.6 270.4 288 274.4 Q 280 283.2 272.8 292 Q 257.6 273.6 240.8 258.4 L 240.8 258.4 Z M 284.8 415.2 Q 272 423.2 256.8 423.2 Q 236 423.2 223.2 411.2 Q 209.6 400 209.6 378.4 Q 209.6 368 216 356.8 Q 222.4 346.4 235.2 330.4 Q 237.6 332.8 245.6 344 Q 254.4 354.4 262.4 364.8 Q 271.2 376 272 376.8 L 292.8 352 Q 294.4 355.2 296 358.4 Q 296.8 358.4 296.8 359.2 Q 304.8 373.6 301.6 389.6 Q 298.4 404.8 284.8 415.2 L 284.8 415.2 Z" />
</svg>