<svg xmlns="http://www.w3.org/2000/svg" viewBox="0 0 496 512">
  <path d="M 0 64 Q 1 37 19 19 L 19 19 L 19 19 Q 37 1 64 0 L 224 0 L 224 0 L 224 128 L 224 128 Q 224 142 233 151 Q 242 160 256 160 L 384 160 L 384 160 L 384 304 L 384 304 L 240 304 L 240 304 Q 213 305 195 323 Q 177 341 176 368 L 176 512 L 176 512 L 64 512 L 64 512 Q 37 511 19 493 Q 1 475 0 448 L 0 64 L 0 64 Z M 384 128 L 256 128 L 384 128 L 256 128 L 256 0 L 256 0 L 384 128 L 384 128 Z M 224 392 Q 224 375 236 364 L 236 364 L 236 364 Q 247 352 264 352 L 280 352 L 280 352 Q 297 352 308 364 Q 320 375 320 392 L 320 400 L 320 400 Q 319 415 304 416 Q 289 415 288 400 L 288 392 L 288 392 Q 287 385 280 384 L 264 384 L 264 384 Q 257 385 256 392 L 256 472 L 256 472 Q 257 479 264 480 L 280 480 L 280 480 Q 287 479 288 472 L 288 464 L 288 464 Q 273 463 272 448 Q 273 433 288 432 L 304 432 L 304 432 Q 319 433 320 448 L 320 472 L 320 472 Q 320 489 308 500 Q 297 512 280 512 L 264 512 L 264 512 Q 247 512 236 500 Q 224 489 224 472 L 224 392 L 224 392 Z M 384 368 L 384 496 L 384 368 L 384 496 Q 383 511 368 512 Q 353 511 352 496 L 352 368 L 352 368 Q 353 353 368 352 Q 383 353 384 368 L 384 368 Z M 432 352 L 480 352 L 432 352 L 480 352 Q 495 353 496 368 Q 495 383 480 384 L 448 384 L 448 384 L 448 416 L 448 416 L 480 416 L 480 416 Q 495 417 496 432 Q 495 447 480 448 L 448 448 L 448 448 L 448 496 L 448 496 Q 447 511 432 512 Q 417 511 416 496 L 416 432 L 416 432 L 416 368 L 416 368 Q 417 353 432 352 L 432 352 Z" />
</svg>