<svg xmlns="http://www.w3.org/2000/svg" viewBox="0 0 512 512">
  <path d="M 28.444445 28.444445 Q 16 28.444445 8 36.444443 L 8 36.444443 Q 0 44.444443 0 56.88889 Q 0 69.333336 8 77.333336 Q 16 85.333336 28.444445 85.333336 L 28.444445 95.111115 Q 29.333334 153.77777 70.22222 195.55556 L 130.66667 256 L 70.22222 316.44446 Q 29.333334 358.22223 28.444445 416.8889 L 28.444445 426.66666 Q 16 426.66666 8 434.66666 Q 0 442.66666 0 455.1111 Q 0 467.55554 8 475.55554 Q 16 483.55554 28.444445 483.55554 L 56.88889 483.55554 L 284.44446 483.55554 L 294.22223 483.55554 Q 263.1111 462.22223 245.33333 428.44446 Q 227.55556 395.55554 227.55556 355.55554 Q 227.55556 319.1111 242.66667 288 L 210.66667 256 L 271.1111 195.55556 Q 312 153.77777 312.8889 95.111115 L 312.8889 85.333336 Q 325.33334 85.333336 333.33334 77.333336 Q 341.33334 69.333336 341.33334 56.88889 Q 341.33334 44.444443 333.33334 36.444443 Q 325.33334 28.444445 312.8889 28.444445 L 284.44446 28.444445 L 56.88889 28.444445 L 28.444445 28.444445 L 28.444445 28.444445 Z M 85.333336 95.111115 L 85.333336 85.333336 L 256 85.333336 L 256 95.111115 Q 256 120.888885 241.77777 142.22223 L 99.55556 142.22223 Q 85.333336 120.888885 85.333336 95.111115 L 85.333336 95.111115 Z M 512 355.55554 Q 512 320.8889 495.1111 291.55554 L 495.1111 291.55554 Q 478.22223 262.22223 448 244.44444 Q 417.77777 227.55556 384 227.55556 Q 350.22223 227.55556 320 244.44444 Q 289.77777 262.22223 272.8889 291.55554 Q 256 320.8889 256 355.55554 Q 256 390.22223 272.8889 419.55554 Q 289.77777 448.8889 320 466.66666 Q 350.22223 483.55554 384 483.55554 Q 417.77777 483.55554 448 466.66666 Q 478.22223 448.8889 495.1111 419.55554 Q 512 390.22223 512 355.55554 L 512 355.55554 Z M 384 284.44446 Q 397.33334 285.33334 398.22223 298.66666 L 398.22223 341.33334 L 426.66666 341.33334 Q 440 342.22223 440.8889 355.55554 Q 440 368.8889 426.66666 369.77777 L 384 369.77777 Q 370.66666 368.8889 369.77777 355.55554 L 369.77777 298.66666 Q 370.66666 285.33334 384 284.44446 L 384 284.44446 Z" />
</svg>