<svg xmlns="http://www.w3.org/2000/svg" viewBox="0 0 512 512">
  <path d="M 216 0 L 296 0 Q 318 2 320 24 L 320 64 L 192 64 L 192 24 Q 194 2 216 0 L 216 0 Z M 128 152 Q 129 127 151 115 L 176 104 Q 192 96 211 96 L 301 96 Q 320 96 336 104 L 361 115 Q 383 127 384 152 Q 383 174 365 186 Q 383 200 384 224 Q 383 250 363 264 Q 383 278 384 304 Q 383 330 363 344 Q 383 358 384 384 Q 383 410 363 424 Q 383 438 384 464 Q 383 484 370 498 Q 356 511 336 512 L 176 512 Q 156 511 142 498 Q 129 484 128 464 Q 129 438 150 424 Q 129 410 128 384 Q 129 358 150 344 Q 129 330 128 304 Q 129 278 150 264 Q 129 250 128 224 Q 129 200 147 186 Q 129 174 128 152 L 128 152 Z M 192 240 Q 193 255 208 256 L 304 256 Q 319 255 320 240 Q 319 225 304 224 L 208 224 Q 193 225 192 240 L 192 240 Z M 208 352 Q 193 353 192 368 Q 193 383 208 384 L 304 384 Q 319 383 320 368 Q 319 353 304 352 L 208 352 L 208 352 Z" />
</svg>