<svg xmlns="http://www.w3.org/2000/svg" viewBox="0 0 448 512">
  <path d="M 224 0 Q 189 0 160 17 L 160 17 L 160 17 Q 131 34 113 64 Q 96 94 96 128 Q 96 162 113 192 Q 131 222 160 239 Q 189 256 224 256 Q 259 256 288 239 Q 317 222 335 192 Q 352 162 352 128 Q 352 94 335 64 Q 317 34 288 17 Q 259 0 224 0 L 224 0 Z M 146 315 Q 140 307 130 308 Q 73 322 37 367 Q 1 411 0 472 L 0 480 L 0 480 Q 0 494 9 503 Q 18 512 32 512 L 416 512 L 416 512 Q 430 512 439 503 Q 448 494 448 480 L 448 472 L 448 472 Q 447 411 411 367 Q 375 322 318 308 Q 308 307 302 315 L 237 412 L 237 412 Q 232 419 224 419 Q 216 419 211 412 L 146 315 L 146 315 Z" />
</svg>