<svg xmlns="http://www.w3.org/2000/svg" viewBox="0 0 512 416">
  <path d="M 137 311 Q 147 320 160 320 L 160 320 L 160 320 Q 173 320 183 311 Q 192 301 192 288 Q 192 275 183 265 L 109 192 L 109 192 L 416 192 L 416 192 Q 430 192 439 201 Q 448 210 448 224 L 448 384 L 448 384 Q 448 398 457 407 Q 466 416 480 416 Q 494 416 503 407 Q 512 398 512 384 L 512 224 L 512 224 Q 511 183 484 156 Q 457 129 416 128 L 109 128 L 109 128 L 183 55 L 183 55 Q 192 45 192 32 Q 192 19 183 9 Q 173 0 160 0 Q 147 0 137 9 L 9 137 L 9 137 Q 0 147 0 160 Q 0 173 9 183 L 137 311 L 137 311 Z" />
</svg>