<svg xmlns="http://www.w3.org/2000/svg" viewBox="0 0 512 416">
  <path d="M 375 311 Q 365 320 352 320 L 352 320 L 352 320 Q 339 320 329 311 Q 320 301 320 288 Q 320 275 329 265 L 403 192 L 403 192 L 96 192 L 96 192 Q 82 192 73 201 Q 64 210 64 224 L 64 384 L 64 384 Q 64 398 55 407 Q 46 416 32 416 Q 18 416 9 407 Q 0 398 0 384 L 0 224 L 0 224 Q 1 183 28 156 Q 55 129 96 128 L 403 128 L 403 128 L 329 55 L 329 55 Q 320 45 320 32 Q 320 19 329 9 Q 339 0 352 0 Q 365 0 375 9 L 503 137 L 503 137 Q 512 147 512 160 Q 512 173 503 183 L 375 311 L 375 311 Z" />
</svg>