<svg xmlns="http://www.w3.org/2000/svg" viewBox="0 0 640 514">
  <path d="M 352 257 Q 352 263 352 268 Q 335 292 327 321 L 163 321 L 163 321 Q 160 290 160 257 Q 160 224 163 193 L 349 193 L 349 193 Q 352 224 352 257 L 352 257 Z M 366 488 Q 345 498 322 505 Q 335 486 346 461 Q 355 476 366 488 L 366 488 Z M 320 369 Q 320 396 328 421 Q 323 435 317 448 Q 301 483 284 499 Q 267 514 256 513 Q 245 514 228 499 Q 211 483 195 448 Q 177 408 168 353 L 321 353 L 321 353 Q 320 361 320 369 L 320 369 Z M 496 193 L 504 193 L 496 193 L 504 193 L 504 193 L 504 193 Q 500 193 496 193 L 496 193 Z M 496 193 Q 431 194 384 234 Q 383 213 381 193 L 496 193 L 496 193 Z M 493 161 L 377 161 L 493 161 L 377 161 Q 361 63 321 9 Q 381 26 426 65 Q 470 105 493 161 L 493 161 Z M 168 161 Q 177 106 195 66 Q 211 31 228 15 Q 245 0 256 1 Q 267 0 284 15 Q 301 31 317 66 Q 335 106 344 161 L 168 161 L 168 161 Z M 135 161 L 19 161 L 135 161 L 19 161 Q 42 105 86 65 Q 131 26 191 9 Q 151 63 135 161 L 135 161 Z M 8 193 L 131 193 L 8 193 L 131 193 Q 128 224 128 257 Q 128 290 131 321 L 8 321 L 8 321 Q 0 290 0 257 Q 0 224 8 193 L 8 193 Z M 135 353 Q 151 451 191 505 Q 131 488 86 449 Q 42 409 19 353 L 135 353 L 135 353 Z M 352 369 Q 352 330 371 297 L 371 297 L 371 297 Q 390 264 424 244 Q 458 225 496 225 Q 534 225 568 244 Q 602 264 621 297 Q 640 330 640 369 Q 640 408 621 441 Q 602 474 568 494 Q 534 513 496 513 Q 458 513 424 494 Q 390 474 371 441 Q 352 408 352 369 L 352 369 Z M 496 321 Q 538 322 567 348 Q 578 357 589 347 Q 598 335 588 324 Q 550 290 496 289 Q 442 290 404 324 Q 394 335 403 347 Q 414 357 425 348 Q 454 322 496 321 L 496 321 Z M 516 433 Q 514 415 496 413 Q 478 415 476 433 Q 478 451 496 453 Q 514 451 516 433 L 516 433 Z M 465 397 Q 477 385 496 385 Q 515 385 528 397 Q 539 406 550 396 Q 559 384 549 373 Q 527 354 496 353 Q 465 354 443 373 Q 433 384 442 396 Q 453 406 465 397 L 465 397 Z" />
</svg>