<svg xmlns="http://www.w3.org/2000/svg" viewBox="0 0 644 512">
  <path d="M 260 73 Q 259 42 238 21 L 238 21 L 238 21 Q 218 1 187 0 Q 161 0 141 16 L 112 39 L 112 39 Q 96 54 102 75 Q 110 95 132 96 L 180 96 L 180 96 Q 180 96 180 96 Q 180 96 180 96 Q 195 97 196 112 L 196 128 L 196 128 Q 196 128 196 128 Q 196 128 196 128 L 196 129 L 196 129 L 196 130 L 196 130 L 184 245 L 184 245 Q 181 282 207 309 Q 217 320 207 331 Q 196 341 185 331 Q 148 294 153 241 L 157 196 L 157 196 Q 146 174 123 163 Q 101 152 75 159 Q 61 163 50 172 L 16 199 L 16 199 Q 0 214 6 235 Q 14 255 36 256 L 84 256 L 84 256 Q 99 257 100 272 L 100 288 L 100 288 L 100 313 L 100 313 Q 101 359 127 394 Q 154 429 196 442 L 196 480 L 196 480 Q 196 494 205 503 Q 214 512 228 512 L 265 512 L 265 512 Q 290 510 297 485 L 303 448 L 303 448 L 377 448 L 377 448 L 384 485 L 384 485 Q 390 510 415 512 L 452 512 L 452 512 Q 466 512 475 503 Q 484 494 484 480 L 484 448 L 484 448 L 516 448 L 516 448 Q 570 447 607 411 Q 643 374 644 320 Q 643 257 593 218 L 568 199 L 568 199 Q 565 197 562 195 Q 556 192 549 192 Q 542 192 535 195 Q 530 197 526 201 Q 522 205 520 210 Q 516 217 516 223 Q 516 231 519 237 Q 521 240 523 243 L 555 289 L 555 289 Q 568 311 558 331 Q 547 350 523 352 Q 502 351 490 334 L 479 318 L 479 318 Q 459 289 428 273 Q 398 256 362 256 L 362 256 L 362 256 L 353 256 L 348 256 Q 311 255 286 231 Q 262 207 260 171 Q 260 170 260 169 L 260 169 L 260 169 L 260 164 L 260 164 Q 260 163 260 163 L 260 128 L 260 128 L 260 112 L 260 112 L 260 84 L 260 84 L 260 73 L 260 73 Z M 292 110 L 292 170 L 292 110 L 292 170 Q 293 190 305 204 Q 317 218 335 223 L 339 199 L 339 199 L 346 172 L 346 172 Q 350 161 361 160 L 420 160 L 420 160 Q 442 159 450 139 Q 456 118 440 103 L 413 81 L 413 81 Q 391 64 364 64 Q 340 64 321 77 Q 302 89 292 110 L 292 110 Z" />
</svg>