<svg xmlns="http://www.w3.org/2000/svg" viewBox="0 0 618 512">
  <path d="M 226 142 Q 217 159 197 160 L 149 160 L 149 160 L 149 352 L 149 352 Q 150 379 168 397 Q 186 415 213 416 Q 240 415 258 397 Q 276 379 277 352 L 277 160 L 277 160 Q 278 106 314 69 Q 351 33 405 32 Q 459 33 496 69 Q 532 106 533 160 L 533 352 L 533 352 L 581 352 L 581 352 Q 601 353 610 370 Q 618 389 606 405 L 526 501 L 526 501 Q 516 512 501 512 Q 486 512 476 501 L 396 405 L 396 405 Q 384 389 392 370 Q 401 353 421 352 L 469 352 L 469 352 L 469 160 L 469 160 Q 468 133 450 115 Q 432 97 405 96 Q 378 97 360 115 Q 342 133 341 160 L 341 352 L 341 352 Q 340 406 304 443 Q 267 479 213 480 Q 159 479 122 443 Q 86 406 85 352 L 85 160 L 85 160 L 37 160 L 37 160 Q 17 159 8 142 Q 0 123 12 108 L 92 12 L 92 12 Q 102 0 117 0 Q 132 0 142 12 L 222 108 L 222 108 Q 234 123 226 142 L 226 142 Z" />
</svg>