<svg xmlns="http://www.w3.org/2000/svg" viewBox="0 0 640 480">
  <path d="M 64 0 Q 37 1 19 19 L 19 19 L 19 19 Q 1 37 0 64 L 0 384 L 0 384 Q 1 411 19 429 Q 37 447 64 448 L 384 448 L 384 448 L 384 384 L 384 384 L 360 384 L 360 384 L 360 320 L 360 320 L 384 320 L 384 320 Q 386 283 416 265 L 416 256 L 416 256 L 360 256 L 360 256 L 360 192 L 360 192 L 427 192 L 427 192 Q 439 167 461 150 Q 483 133 512 129 L 512 64 L 512 64 Q 511 37 493 19 Q 475 1 448 0 L 64 0 L 64 0 Z M 152 64 L 152 128 L 152 64 L 152 128 L 64 128 L 64 128 L 64 64 L 64 64 L 152 64 L 152 64 Z M 208 64 L 296 64 L 208 64 L 296 64 L 296 128 L 296 128 L 208 128 L 208 128 L 208 64 L 208 64 Z M 448 64 L 448 128 L 448 64 L 448 128 L 360 128 L 360 128 L 360 64 L 360 64 L 448 64 L 448 64 Z M 64 192 L 152 192 L 64 192 L 152 192 L 152 256 L 152 256 L 64 256 L 64 256 L 64 192 L 64 192 Z M 296 192 L 296 256 L 296 192 L 296 256 L 208 256 L 208 256 L 208 192 L 208 192 L 296 192 L 296 192 Z M 152 320 L 152 384 L 152 320 L 152 384 L 64 384 L 64 384 L 64 320 L 64 320 L 152 320 L 152 320 Z M 208 320 L 296 320 L 208 320 L 296 320 L 296 384 L 296 384 L 208 384 L 208 384 L 208 320 L 208 320 Z M 496 240 Q 496 226 505 217 L 505 217 L 505 217 Q 514 208 528 208 Q 542 208 551 217 Q 560 226 560 240 L 608 240 L 608 240 Q 607 206 585 183 Q 562 161 528 160 Q 494 161 471 183 Q 449 206 448 240 L 448 288 L 448 288 Q 434 288 425 297 Q 416 306 416 320 L 416 448 L 416 448 Q 416 462 425 471 Q 434 480 448 480 L 608 480 L 608 480 Q 622 480 631 471 Q 640 462 640 448 L 640 320 L 640 320 Q 640 306 631 297 Q 622 288 608 288 L 560 288 L 496 288 L 496 240 L 496 240 Z" />
</svg>