<svg xmlns="http://www.w3.org/2000/svg" viewBox="0 0 515 512">
  <path d="M 439 73 Q 429 64 416 64 L 416 64 L 416 64 Q 403 64 393 73 Q 376 94 391 116 Q 399 127 399 142 Q 400 157 388 170 L 346 211 L 346 211 L 301 166 L 301 166 L 329 137 L 329 137 Q 317 110 321 80 Q 326 51 348 28 Q 378 0 416 0 Q 454 0 484 28 Q 508 53 511 84 Q 515 116 499 144 Q 492 156 480 159 Q 468 162 456 156 Q 444 149 441 136 Q 437 124 444 112 Q 454 91 439 73 L 439 73 Z M 62 405 L 107 450 L 62 405 L 107 450 L 55 503 L 55 503 Q 45 512 32 512 Q 19 512 9 503 Q 0 493 0 480 Q 0 467 9 457 L 62 405 L 62 405 Z M 244 154 L 358 268 L 244 154 L 358 268 Q 369 280 369 296 Q 369 312 358 324 L 332 350 L 332 350 Q 320 361 304 361 Q 288 361 276 350 L 162 236 L 162 236 Q 151 224 151 208 Q 151 192 162 180 L 188 154 L 188 154 Q 200 143 216 143 Q 232 143 244 154 L 244 154 Z M 76 266 Q 88 255 104 255 L 104 255 L 104 255 Q 120 255 132 266 L 246 380 L 246 380 Q 257 392 257 408 Q 257 424 246 436 L 220 462 L 220 462 Q 208 473 192 473 Q 176 473 164 462 L 50 348 L 50 348 Q 39 336 39 320 Q 39 304 50 292 L 76 266 L 76 266 Z" />
</svg>