<svg xmlns="http://www.w3.org/2000/svg" viewBox="0 0 640 512">
  <path d="M 346 48 L 358 35 L 346 48 L 358 35 Q 367 26 379 26 Q 390 26 399 33 Q 430 62 454 104 Q 478 146 480 192 Q 478 260 433 305 Q 388 350 320 352 Q 251 350 206 305 Q 162 260 160 192 Q 163 135 197 88 Q 230 40 268 8 Q 277 0 288 0 Q 308 3 321 22 Q 321 22 321 22 Q 321 22 321 22 Q 322 23 324 25 Q 325 27 327 28 L 346 48 L 346 48 Z M 384 240 Q 382 212 363 188 L 363 188 L 363 188 Q 344 164 329 152 Q 320 145 311 152 Q 296 164 277 188 Q 258 212 256 240 Q 257 267 275 285 Q 293 304 320 304 Q 347 304 365 285 Q 383 267 384 240 L 384 240 Z M 32 288 Q 32 274 41 265 L 41 265 L 41 265 Q 50 256 64 256 L 96 256 L 96 256 Q 110 256 119 265 Q 128 274 128 288 Q 128 302 119 311 Q 110 320 96 320 L 96 384 L 96 384 L 544 384 L 544 384 L 544 320 L 544 320 Q 530 320 521 311 Q 512 302 512 288 Q 512 274 521 265 Q 530 256 544 256 L 576 256 L 576 256 Q 590 256 599 265 Q 608 274 608 288 L 608 384 L 608 384 Q 622 384 631 393 Q 640 402 640 416 L 640 480 L 640 480 Q 640 494 631 503 Q 622 512 608 512 L 32 512 L 32 512 Q 18 512 9 503 Q 0 494 0 480 L 0 416 L 0 416 Q 0 402 9 393 Q 18 384 32 384 L 32 288 L 32 288 Z M 320 480 Q 334 480 343 471 L 343 471 L 343 471 Q 352 462 352 448 Q 352 434 343 425 Q 334 416 320 416 Q 306 416 297 425 Q 288 434 288 448 Q 288 462 297 471 Q 306 480 320 480 L 320 480 Z M 480 448 Q 480 434 471 425 L 471 425 L 471 425 Q 462 416 448 416 Q 434 416 425 425 Q 416 434 416 448 Q 416 462 425 471 Q 434 480 448 480 Q 462 480 471 471 Q 480 462 480 448 L 480 448 Z M 192 480 Q 206 480 215 471 L 215 471 L 215 471 Q 224 462 224 448 Q 224 434 215 425 Q 206 416 192 416 Q 178 416 169 425 Q 160 434 160 448 Q 160 462 169 471 Q 178 480 192 480 L 192 480 Z" />
</svg>