<svg xmlns="http://www.w3.org/2000/svg" viewBox="0 0 448 448">
  <path d="M 448 64 Q 447 37 429 19 L 429 19 L 429 19 Q 411 1 384 0 L 64 0 L 64 0 Q 37 1 19 19 Q 1 37 0 64 L 0 384 L 0 384 Q 1 411 19 429 Q 37 447 64 448 L 384 448 L 384 448 Q 411 447 429 429 Q 447 411 448 384 L 448 64 L 448 64 Z M 377 241 L 265 353 L 377 241 L 265 353 Q 248 367 231 353 Q 217 336 231 319 L 302 248 L 302 248 L 88 248 L 88 248 Q 66 246 64 224 Q 66 202 88 200 L 302 200 L 302 200 L 231 129 L 231 129 Q 217 112 231 95 Q 248 81 265 95 L 377 207 L 377 207 Q 391 224 377 241 L 377 241 Z" />
</svg>