<svg xmlns="http://www.w3.org/2000/svg" viewBox="0 0 640 512">
  <path d="M 48 0 Q 28 1 14 14 L 14 14 L 14 14 Q 1 28 0 48 L 0 368 L 0 368 Q 1 388 14 402 Q 28 415 48 416 L 64 416 L 64 416 Q 65 457 92 484 Q 119 511 160 512 Q 201 511 228 484 Q 255 457 256 416 L 384 416 L 384 416 Q 385 457 412 484 Q 439 511 480 512 Q 521 511 548 484 Q 575 457 576 416 L 608 416 L 608 416 Q 622 416 631 407 Q 640 398 640 384 Q 640 370 631 361 Q 622 352 608 352 L 608 288 L 608 288 L 608 256 L 608 256 L 608 237 L 608 237 Q 608 211 589 192 L 512 115 L 512 115 Q 493 96 467 96 L 416 96 L 416 96 L 416 48 L 416 48 Q 415 28 402 14 Q 388 1 368 0 L 48 0 L 48 0 Z M 416 160 L 467 160 L 416 160 L 467 160 L 544 237 L 544 237 L 544 256 L 544 256 L 416 256 L 416 256 L 416 160 L 416 160 Z M 112 416 Q 113 389 136 374 Q 160 362 184 374 Q 207 389 208 416 Q 207 443 184 458 Q 160 470 136 458 Q 113 443 112 416 L 112 416 Z M 480 368 Q 507 369 522 392 Q 534 416 522 440 Q 507 463 480 464 Q 453 463 438 440 Q 426 416 438 392 Q 453 369 480 368 L 480 368 Z M 90 78 Q 91 68 101 67 Q 111 68 113 78 L 117 154 L 117 154 Q 118 159 123 159 Q 128 159 128 154 L 133 78 L 133 78 Q 134 68 144 67 Q 154 68 155 78 L 160 154 L 160 154 Q 160 159 165 159 Q 170 159 171 154 L 175 78 L 175 78 Q 177 68 187 67 Q 197 68 199 78 L 208 159 L 208 159 Q 208 181 194 198 Q 181 214 160 219 L 160 304 L 160 304 Q 159 319 144 320 Q 129 319 128 304 L 128 219 L 128 219 Q 107 214 94 198 Q 80 181 80 159 L 90 77 L 90 78 Z M 256 155 Q 258 108 278 88 L 278 88 L 278 88 Q 297 67 306 65 Q 308 64 310 64 Q 319 65 320 74 L 320 128 L 320 128 L 320 224 L 320 224 L 320 304 L 320 304 Q 319 318 304 320 Q 289 318 288 304 L 288 224 L 288 224 Q 274 224 265 215 Q 256 206 256 192 L 256 155 L 256 155 Z" />
</svg>