<svg xmlns="http://www.w3.org/2000/svg" viewBox="0 0 512 512">
  <path d="M 407.8777 205.89603 Q 430.58105 206.6789 454.85016 220.77065 L 454.85016 220.77065 Q 479.11926 234.86238 481.4679 256 Q 479.11926 277.9205 454.85016 292.01224 Q 430.58105 305.3211 407.8777 306.10397 L 350.7278 306.10397 L 499.474 422.7523 Q 512 434.49542 502.6055 449.37003 Q 490.8624 461.89603 475.98776 452.50153 L 12.525994 89.2477 Q 0 77.504585 9.394495 62.62997 Q 21.137615 50.103977 36.012234 59.49847 L 191.80428 181.6269 L 160.4893 71.24159 Q 158.14067 57.93272 172.23242 55.5841 L 216.0734 55.5841 Q 230.94801 56.366974 237.99388 68.11009 L 317.0642 205.89603 L 407.8777 205.89603 L 407.8777 205.89603 Z M 38.360855 156.57492 L 289.6636 354.6422 L 237.99388 443.88992 Q 230.94801 455.63303 216.0734 456.4159 L 172.23242 456.4159 Q 158.14067 454.0673 160.4893 440.75842 L 198.85016 306.10397 L 118.214066 306.10397 L 84.55046 351.5107 Q 80.636086 356.20795 74.373085 356.20795 L 41.492355 356.20795 Q 31.314985 355.42508 30.53211 345.2477 Q 30.53211 343.68195 31.314985 342.1162 L 55.5841 256 L 31.314985 169.88379 Q 30.53211 168.31804 30.53211 166.75229 Q 31.314985 158.92355 38.360855 156.57492 L 38.360855 156.57492 Z" />
</svg>