<svg xmlns="http://www.w3.org/2000/svg" viewBox="0 0 640 480">
  <path d="M 0 64 Q 1 37 19 19 L 19 19 L 19 19 Q 37 1 64 0 L 448 0 L 448 0 Q 475 1 493 19 Q 511 37 512 64 L 512 129 L 512 129 Q 483 133 461 150 Q 439 167 427 192 L 360 192 L 360 192 L 360 256 L 360 256 L 416 256 L 416 256 L 416 265 L 416 265 Q 386 283 384 320 L 360 320 L 360 320 L 360 384 L 360 384 L 384 384 L 384 384 L 384 448 L 384 448 L 64 448 L 64 448 Q 37 447 19 429 Q 1 411 0 384 L 0 64 L 0 64 Z M 208 64 L 208 128 L 208 64 L 208 128 L 296 128 L 296 128 L 296 64 L 296 64 L 208 64 L 208 64 Z M 448 64 L 360 64 L 448 64 L 360 64 L 360 128 L 360 128 L 448 128 L 448 128 L 448 64 L 448 64 Z M 208 192 L 208 256 L 208 192 L 208 256 L 296 256 L 296 256 L 296 192 L 296 192 L 208 192 L 208 192 Z M 208 320 L 208 384 L 208 320 L 208 384 L 296 384 L 296 384 L 296 320 L 296 320 L 208 320 L 208 320 Z M 528 208 Q 514 208 505 217 L 505 217 L 505 217 Q 496 226 496 240 L 496 288 L 496 288 L 560 288 L 560 288 L 560 240 L 560 240 Q 560 226 551 217 Q 542 208 528 208 L 528 208 Z M 448 240 Q 449 206 471 183 L 471 183 L 471 183 Q 494 161 528 160 Q 562 161 585 183 Q 607 206 608 240 L 608 288 L 608 288 Q 622 288 631 297 Q 640 306 640 320 L 640 448 L 640 448 Q 640 462 631 471 Q 622 480 608 480 L 448 480 L 448 480 Q 434 480 425 471 Q 416 462 416 448 L 416 320 L 416 320 Q 416 306 425 297 Q 434 288 448 288 L 448 240 L 448 240 Z" />
</svg>