<svg xmlns="http://www.w3.org/2000/svg" viewBox="0 0 641 480">
  <path d="M 96 64 L 96 160 L 96 64 L 96 160 L 220 160 L 220 160 L 172 64 L 172 64 L 96 64 L 96 64 Z M 230 35 L 292 160 L 230 35 L 292 160 L 320 160 L 320 160 L 320 96 L 320 96 Q 320 82 329 73 Q 338 64 352 64 Q 366 64 375 73 Q 384 82 384 96 L 384 160 L 384 160 L 416 160 L 416 160 Q 430 160 439 169 Q 448 178 448 192 L 448 256 L 448 256 L 512 256 L 512 256 L 512 214 L 512 214 Q 512 181 533 154 L 583 92 L 583 92 Q 592 82 604 80 Q 617 79 628 87 Q 638 96 640 108 Q 641 121 633 132 L 583 195 L 583 195 Q 576 203 576 215 L 576 288 L 576 288 L 576 358 L 576 358 Q 576 371 585 380 L 631 426 L 631 426 Q 640 435 640 448 Q 640 461 631 471 Q 621 480 608 480 Q 595 480 585 471 L 540 426 L 540 426 Q 513 397 512 358 L 512 320 L 512 320 L 469 320 L 469 320 Q 480 342 480 368 Q 479 416 447 447 Q 416 479 368 480 L 112 480 L 112 480 Q 64 479 33 447 Q 1 416 0 368 Q 1 321 32 290 Q 32 289 32 289 Q 32 288 32 288 L 32 224 L 32 224 L 32 192 L 32 192 L 32 48 L 32 48 Q 33 28 46 14 Q 60 1 80 0 L 172 0 L 172 0 Q 211 1 229 35 L 230 35 Z M 112 320 Q 92 321 78 334 L 78 334 L 78 334 Q 65 348 64 368 Q 65 388 78 402 Q 92 415 112 416 L 368 416 L 368 416 Q 388 415 402 402 Q 415 388 416 368 Q 415 348 402 334 Q 388 321 368 320 L 112 320 L 112 320 Z M 120 344 Q 142 346 144 368 Q 142 390 120 392 Q 98 390 96 368 Q 98 346 120 344 L 120 344 Z M 336 368 Q 338 346 360 344 Q 382 346 384 368 Q 382 390 360 392 Q 338 390 336 368 L 336 368 Z M 280 344 Q 302 346 304 368 Q 302 390 280 392 Q 258 390 256 368 Q 258 346 280 344 L 280 344 Z M 176 368 Q 178 346 200 344 Q 222 346 224 368 Q 222 390 200 392 Q 178 390 176 368 L 176 368 Z" />
</svg>