<svg xmlns="http://www.w3.org/2000/svg" viewBox="0 0 386 526">
  <path d="M 213 14 Q 193 0 173 14 L 13 142 L 13 142 Q 3 151 1 163 Q 0 176 8 187 Q 17 197 29 199 Q 42 200 53 192 L 193 80 L 193 80 L 333 192 L 333 192 Q 344 200 357 199 Q 369 197 378 187 Q 386 176 385 163 Q 383 151 373 142 L 213 14 L 213 14 Z M 373 384 Q 383 375 385 363 L 385 363 L 385 363 Q 386 350 378 339 Q 369 329 357 327 Q 344 326 333 334 L 193 446 L 193 446 L 53 334 L 53 334 Q 42 326 29 327 Q 17 329 8 339 Q 0 350 1 363 Q 3 375 13 384 L 173 512 L 173 512 Q 193 526 213 512 L 373 384 L 373 384 Z" />
</svg>