<svg xmlns="http://www.w3.org/2000/svg" viewBox="0 0 576 513">
  <path d="M 183 10 Q 172 0 158 1 Q 144 2 135 13 L 94 65 L 94 65 Q 74 90 48 109 L 13 135 L 13 135 Q 0 145 0 161 L 0 193 L 0 193 L 576 193 L 576 193 L 576 161 L 576 161 Q 576 145 563 135 L 529 109 L 529 109 Q 503 90 482 64 L 441 13 L 441 13 Q 432 2 418 1 Q 404 0 393 10 L 375 29 L 375 29 Q 339 64 288 65 Q 238 64 201 29 L 183 10 L 183 10 Z M 576 225 L 0 225 L 576 225 L 0 225 L 0 481 L 0 481 Q 0 495 9 504 Q 18 513 32 513 L 240 513 L 240 513 Q 240 513 240 513 Q 240 513 240 513 L 256 513 L 256 513 Q 270 513 279 504 Q 288 495 288 481 L 288 299 L 288 299 Q 289 290 298 289 Q 304 289 307 295 L 407 495 L 407 495 Q 416 512 436 513 L 464 513 L 464 513 Q 464 513 464 513 Q 464 513 464 513 L 544 513 L 544 513 Q 558 513 567 504 Q 576 495 576 481 L 576 225 L 576 225 Z" />
</svg>