<svg xmlns="http://www.w3.org/2000/svg" viewBox="0 0 512 512">
  <path d="M 204.8 460.8 Q 245.6 460.8 280.8 446.4 Q 257.6 424 244 394.4 Q 230.4 364.8 230.4 331.2 Q 230.4 309.6 239.2 288 Q 247.2 265.6 260 245.6 Q 265.6 236.8 271.2 228 Q 256.8 221.6 256 204.8 L 256 179.2 Q 256 168 263.2 160.8 Q 270.4 153.6 281.6 153.6 Q 292.8 153.6 300 160.8 Q 307.2 168 307.2 179.2 L 307.2 184.8 Q 318.4 173.6 330.4 163.2 Q 340.8 153.6 355.2 153.6 Q 368.8 153.6 380 163.2 Q 386.4 169.6 393.6 176 Q 368.8 120 319.2 85.6 Q 268.8 52 204.8 51.2 Q 147.2 52 101.6 79.2 Q 55.2 106.4 28 152.8 Q 0.8 198.4 0 256 Q 0.8 313.6 28 359.2 Q 55.2 405.6 101.6 432.8 Q 147.2 460 204.8 460.8 L 204.8 460.8 Z M 153.6 179.2 L 153.6 204.8 Q 153.6 216 146.4 223.2 Q 139.2 230.4 128 230.4 Q 116.8 230.4 109.6 223.2 Q 102.4 216 102.4 204.8 L 102.4 179.2 Q 102.4 168 109.6 160.8 Q 116.8 153.6 128 153.6 Q 139.2 153.6 146.4 160.8 Q 153.6 168 153.6 179.2 L 153.6 179.2 Z M 230.4 179.2 L 230.4 204.8 Q 230.4 216 223.2 223.2 Q 216 230.4 204.8 230.4 Q 193.6 230.4 186.4 223.2 Q 179.2 216 179.2 204.8 L 179.2 179.2 Q 179.2 168 186.4 160.8 Q 193.6 153.6 204.8 153.6 Q 216 153.6 223.2 160.8 Q 230.4 168 230.4 179.2 L 230.4 179.2 Z M 363.2 182.4 Q 359.2 179.2 355.2 179.2 Q 350.4 179.2 347.2 182.4 Q 306.4 218.4 281.6 258.4 Q 256.8 299.2 256 332.8 Q 257.6 387.2 292.8 423.2 Q 328.8 459.2 384 460.8 Q 438.4 459.2 474.4 423.2 Q 510.4 387.2 512 332.8 Q 512 320 506.4 303.2 Q 501.6 286.4 492.8 269.6 Q 474.4 233.6 444 204.8 Q 436 198.4 428 204.8 Q 416.8 216 407.2 228 Q 386.4 203.2 362.4 182.4 L 363.2 182.4 Z M 424 397.6 Q 406.4 409.6 384.8 409.6 Q 356.8 409.6 339.2 392.8 Q 320.8 376.8 320 347.2 Q 320 332.8 328.8 318.4 Q 338.4 303.2 356 281.6 Q 358.4 284.8 369.6 299.2 Q 381.6 313.6 392.8 328 Q 404 342.4 405.6 344.8 Q 405.6 344.8 405.6 344.8 L 434.4 311.2 Q 437.6 316 440 320.8 Q 450.4 341.6 446.4 362.4 Q 442.4 384 424 397.6 L 424 397.6 Z" />
</svg>