<svg xmlns="http://www.w3.org/2000/svg" viewBox="0 0 512 512">
  <path d="M 317.45935 317.45935 Q 384.24197 249.70888 429.73157 187.7656 L 429.73157 187.7656 Q 476.18903 125.8223 493.6106 79.36484 L 493.6106 79.36484 Q 512 33.875237 495.54633 15.485823 Q 478.12476 0 436.50662 15.485823 Q 394.88846 30.971645 336.81665 71.621925 Q 299.06995 54.20038 255.51607 54.20038 Q 170.34404 56.136105 113.240074 113.240074 Q 56.136105 170.34404 54.20038 255.51607 Q 54.20038 299.06995 71.621925 336.81665 Q 30.971645 394.88846 15.485823 436.50662 Q 0 478.12476 15.485823 495.54633 Q 33.875237 512 79.36484 493.6106 Q 125.8223 476.18903 187.7656 429.73157 Q 249.70888 384.24197 317.45935 317.45935 L 317.45935 317.45935 Z M 255.51607 456.83176 Q 340.68808 454.89603 397.79205 397.79205 L 397.79205 397.79205 Q 454.89603 340.68808 456.83176 255.51607 Q 456.83176 232.28734 451.99243 210.02646 Q 404.5671 272.93762 338.75235 338.75235 Q 272.93762 404.5671 210.02646 451.99243 Q 232.28734 456.83176 255.51607 456.83176 L 255.51607 456.83176 Z" />
</svg>