<svg xmlns="http://www.w3.org/2000/svg" viewBox="0 0 512 512">
  <path d="M 378.3056 9.903288 Q 367.412 0 356.51837 9.903288 L 340.67313 25.748549 Q 330.76984 36.642166 340.67313 47.53578 L 356.51837 63.381046 Q 367.412 73.28433 378.3056 63.381046 L 394.15088 47.53578 Q 404.05417 36.642166 394.15088 25.748549 L 378.3056 9.903288 L 378.3056 9.903288 Z M 116.8588 173.30754 Q 128.74275 163.40425 145.57834 163.40425 Q 165.38492 164.39458 179.24951 177.26886 Q 192.1238 191.13347 193.11412 210.94003 Q 192.1238 230.74661 179.24951 244.61122 Q 165.38492 257.4855 145.57834 258.47583 L 111.90716 258.47583 Q 99.03288 259.46616 98.04256 272.34042 Q 98.04256 274.32108 99.03288 276.30173 L 106.95551 300.06964 Q 114.87814 320.86655 136.66537 321.85687 L 145.57834 321.85687 L 161.4236 321.85687 Q 188.16248 322.8472 205.98839 340.67313 Q 223.81432 358.49902 224.80464 385.2379 Q 223.81432 411.97678 205.98839 429.8027 Q 188.16248 447.62863 161.4236 448.61896 Q 123.7911 447.62863 99.03288 435.7447 Q 74.27466 422.8704 60.410057 406.03482 Q 45.555126 389.19922 39.61315 377.31528 Q 36.642166 371.37332 34.66151 367.412 Q 34.66151 366.42166 34.66151 365.43134 Q 33.67118 365.43134 33.67118 364.441 L 33.67118 364.441 L 33.67118 364.441 Q 28.719536 351.56674 15.845262 353.5474 Q 1.9806577 357.5087 2.9709864 371.37332 L 18.816248 369.39264 Q 7.922631 370.38297 4.951644 371.37332 Q 2.9709864 371.37332 2.9709864 371.37332 L 2.9709864 371.37332 L 2.9709864 371.37332 L 2.9709864 371.37332 L 2.9709864 372.36365 Q 2.9709864 372.36365 2.9709864 373.35397 Q 3.9613154 373.35397 3.9613154 374.3443 Q 3.9613154 376.32495 3.9613154 377.31528 Q 4.951644 383.25726 7.922631 393.16055 Q 12.874274 413.95746 28.719536 440.69632 Q 45.555126 468.42554 77.24565 490.21277 Q 108.93617 511.00967 161.4236 512 Q 214.90135 511.00967 251.54352 475.35782 Q 287.19534 438.71567 288.1857 385.2379 Q 288.1857 350.57642 271.3501 321.85687 L 294.12766 321.85687 Q 332.7505 320.86655 360.47968 294.12766 L 387.21857 267.3888 Q 396.13153 258.47583 409.99612 258.47583 L 414.94778 258.47583 Q 428.81238 258.47583 437.72534 267.3888 Q 446.6383 276.30173 446.6383 290.16635 L 446.6383 385.2379 Q 446.6383 399.1025 437.72534 408.01547 Q 428.81238 416.92844 414.94778 416.92844 Q 377.31528 413.95746 364.441 391.17987 Q 356.51837 381.27658 353.5474 373.35397 Q 352.55707 369.39264 351.56674 367.412 Q 351.56674 366.42166 351.56674 366.42166 Q 351.56674 365.43134 351.56674 365.43134 L 350.57642 365.43134 L 350.57642 365.43134 Q 350.57642 365.43134 350.57642 365.43134 Q 350.57642 365.43134 350.57642 365.43134 Q 347.6054 353.5474 334.73114 353.5474 Q 322.8472 354.53772 319.87622 366.42166 L 335.72147 369.39264 Q 324.82785 367.412 321.85687 367.412 Q 319.87622 366.42166 319.87622 366.42166 L 319.87622 366.42166 L 319.87622 366.42166 L 319.87622 367.412 L 319.87622 367.412 Q 319.87622 367.412 319.87622 367.412 Q 319.87622 368.4023 319.87622 368.4023 Q 319.87622 368.4023 319.87622 369.39264 Q 319.87622 370.38297 319.87622 372.36365 Q 318.8859 376.32495 318.8859 384.2476 Q 317.89554 400.09283 324.82785 421.88007 Q 330.76984 444.65765 352.55707 462.48355 Q 375.33463 480.30948 414.94778 480.30948 Q 455.55127 479.31915 482.29013 452.58026 Q 509.02902 425.8414 510.01935 385.2379 L 510.01935 290.16635 Q 509.02902 249.56287 482.29013 222.82399 Q 455.55127 196.08511 414.94778 195.09477 L 409.99612 195.09477 Q 370.38297 196.08511 342.65378 222.82399 L 315.9149 249.56287 Q 307.00192 258.47583 294.12766 258.47583 L 245.60155 258.47583 Q 256.49518 236.68858 256.49518 210.94003 Q 255.50484 163.40425 223.81432 132.70406 Q 193.11412 101.01354 145.57834 100.02321 Q 107.94584 101.01354 79.2263 121.81045 Q 68.33269 130.7234 66.35203 142.60735 Q 65.3617 155.48163 72.29401 166.37524 Q 81.20696 177.26886 93.09091 179.24951 Q 105.96519 180.23984 116.8588 173.30754 L 116.8588 173.30754 Z M 281.2534 71.30367 Q 271.3501 65.3617 261.4468 72.29401 Q 253.52419 80.21664 258.47583 91.11025 L 272.34042 84.17795 Q 262.43713 89.12959 259.46616 90.11992 Q 257.4855 91.11025 258.47583 91.11025 L 258.47583 91.11025 L 258.47583 91.11025 L 258.47583 91.11025 L 258.47583 91.11025 L 258.47583 92.10058 Q 259.46616 93.09091 259.46616 94.08124 Q 259.46616 94.08124 260.45648 95.07156 Q 261.4468 98.04256 265.4081 102.994194 Q 271.3501 112.897484 285.2147 126.76209 Q 298.089 140.6267 318.8859 151.52031 Q 339.6828 162.41393 367.412 163.40425 Q 413.95746 160.43327 440.69632 143.59767 Q 453.5706 135.67505 460.5029 129.73308 Q 464.4642 126.76209 466.4449 124.78143 Q 467.4352 123.7911 468.42554 123.7911 Q 468.42554 123.7911 468.42554 123.7911 L 468.42554 122.80077 L 469.41586 122.80077 L 469.41586 122.80077 L 469.41586 122.80077 L 469.41586 122.80077 Q 469.41586 122.80077 466.4449 119.82979 Q 462.48355 115.86847 446.6383 100.02321 L 469.41586 122.80077 Q 478.32883 112.897484 478.32883 100.02321 Q 478.32883 87.14893 469.41586 77.24565 Q 459.51257 68.33269 446.6383 68.33269 Q 433.76404 68.33269 424.85107 77.24565 Q 423.86075 77.24565 423.86075 78.23598 Q 422.8704 78.23598 421.88007 79.2263 Q 421.88007 80.21664 420.88974 80.21664 Q 416.92844 84.17795 409.0058 88.13927 Q 393.16055 99.03288 367.412 100.02321 Q 334.73114 98.04256 308.9826 85.16828 Q 296.1083 80.21664 288.1857 75.26499 Q 288.1857 75.26499 287.19534 75.26499 Q 284.22437 73.28433 283.23404 72.29401 Q 282.2437 71.30367 282.2437 71.30367 Q 281.2534 71.30367 281.2534 71.30367 L 281.2534 71.30367 L 281.2534 71.30367 L 281.2534 71.30367 L 281.2534 71.30367 L 281.2534 71.30367 Z" />
</svg>