<svg xmlns="http://www.w3.org/2000/svg" viewBox="0 0 640 448">
  <path d="M 160 0 Q 133 1 115 19 L 115 19 L 115 19 Q 97 37 96 64 L 96 288 L 96 288 Q 97 315 115 333 Q 133 351 160 352 L 576 352 L 576 352 Q 603 351 621 333 Q 639 315 640 288 L 640 240 L 640 240 Q 638 226 624 221 Q 594 210 592 176 Q 594 142 624 131 Q 638 126 640 112 L 640 64 L 640 64 Q 639 37 621 19 Q 603 1 576 0 L 160 0 L 160 0 Z M 528 64 Q 543 65 544 80 Q 543 95 528 96 Q 513 95 512 80 Q 513 65 528 64 L 528 64 Z M 528 128 Q 543 129 544 144 Q 543 159 528 160 Q 513 159 512 144 Q 513 129 528 128 L 528 128 Z M 512 208 Q 513 193 528 192 Q 543 193 544 208 Q 543 223 528 224 Q 513 223 512 208 L 512 208 Z M 528 256 Q 543 257 544 272 Q 543 287 528 288 Q 513 287 512 272 Q 513 257 528 256 L 528 256 Z M 48 88 Q 46 66 24 64 Q 2 66 0 88 L 0 328 L 0 328 Q 1 379 35 413 Q 69 447 120 448 L 520 448 L 520 448 Q 542 446 544 424 Q 542 402 520 400 L 120 400 L 120 400 Q 89 399 69 379 Q 49 359 48 328 L 48 88 L 48 88 Z" />
</svg>