<svg xmlns="http://www.w3.org/2000/svg" viewBox="0 0 640 384">
  <path d="M 0 64 Q 1 37 19 19 L 19 19 L 19 19 Q 37 1 64 0 L 576 0 L 576 0 Q 603 1 621 19 Q 639 37 640 64 L 640 112 L 640 112 Q 638 126 624 130 Q 603 136 590 152 Q 576 169 576 192 Q 576 215 590 232 Q 603 248 624 254 Q 639 258 640 272 L 640 320 L 640 320 Q 639 347 621 365 Q 603 383 576 384 L 64 384 L 64 384 Q 37 383 19 365 Q 1 347 0 320 L 0 64 L 0 64 Z M 432 80 Q 447 79 448 64 Q 447 49 432 48 Q 417 49 416 64 Q 417 79 432 80 L 432 80 Z M 432 144 Q 447 143 448 128 Q 447 113 432 112 Q 417 113 416 128 Q 417 143 432 144 L 432 144 Z M 448 192 Q 447 177 432 176 Q 417 177 416 192 Q 417 207 432 208 Q 447 207 448 192 L 448 192 Z M 432 272 Q 447 271 448 256 Q 447 241 432 240 Q 417 241 416 256 Q 417 271 432 272 L 432 272 Z M 448 320 Q 447 305 432 304 Q 417 305 416 320 Q 417 335 432 336 Q 447 335 448 320 L 448 320 Z" />
</svg>