<svg xmlns="http://www.w3.org/2000/svg" viewBox="0 0 448 512">
  <path d="M 208 0 L 332 0 L 208 0 L 332 0 Q 352 0 366 14 L 434 82 L 434 82 Q 448 96 448 116 L 448 336 L 448 336 Q 447 356 434 370 Q 420 383 400 384 L 208 384 L 208 384 Q 188 383 174 370 Q 161 356 160 336 L 160 48 L 160 48 Q 161 28 174 14 Q 188 1 208 0 L 208 0 Z M 48 128 L 128 128 L 48 128 L 128 128 L 128 192 L 128 192 L 64 192 L 64 192 L 64 448 L 64 448 L 256 448 L 256 448 L 256 416 L 256 416 L 320 416 L 320 416 L 320 464 L 320 464 Q 319 484 306 498 Q 292 511 272 512 L 48 512 L 48 512 Q 28 511 14 498 Q 1 484 0 464 L 0 176 L 0 176 Q 1 156 14 142 Q 28 129 48 128 L 48 128 Z" />
</svg>