<svg xmlns="http://www.w3.org/2000/svg" viewBox="0 0 651 516">
  <path d="M 452 292 Q 418 292 388 279 L 388 420 L 388 420 L 348 420 L 348 420 L 348 254 L 348 254 Q 335 242 324 228 L 284 228 L 284 228 L 284 420 L 284 420 L 236 420 L 236 420 L 236 228 L 236 228 L 172 228 L 172 228 L 172 420 L 172 420 L 132 420 L 132 420 L 132 228 L 132 228 L 68 228 L 68 228 L 68 424 L 68 424 Q 67 425 66 425 L 18 457 L 18 457 Q 0 471 5 493 Q 13 515 36 516 L 484 516 L 484 516 Q 507 515 515 493 Q 520 471 502 457 L 454 425 L 454 425 Q 453 425 453 425 Q 452 425 452 424 L 452 292 L 452 292 Z M 36 196 L 305 196 L 36 196 L 305 196 Q 292 166 292 132 Q 293 77 324 36 L 276 8 L 276 8 Q 260 0 244 8 L 72 106 L 72 106 L 68 108 L 68 108 L 68 109 L 68 109 L 20 136 L 20 136 Q 0 149 5 172 Q 12 195 36 196 L 36 196 Z M 452 52 Q 497 54 521 92 Q 543 132 521 172 Q 497 211 452 212 Q 407 211 383 172 Q 361 132 383 92 Q 407 54 452 52 L 452 52 Z M 452 260 Q 493 259 524 238 L 603 317 L 603 317 Q 620 331 637 317 Q 651 300 637 283 L 558 204 L 558 204 Q 579 173 580 132 Q 579 78 542 42 Q 506 6 452 4 Q 398 6 361 42 Q 325 78 324 132 Q 325 187 361 223 Q 398 259 452 260 L 452 260 Z" />
</svg>