<svg xmlns="http://www.w3.org/2000/svg" viewBox="0 0 640 512">
  <path d="M 48 0 Q 28 1 14 14 L 14 14 L 14 14 Q 1 28 0 48 L 0 464 L 0 464 Q 1 484 14 498 Q 28 511 48 512 L 144 512 L 144 512 L 144 432 L 144 432 Q 145 412 158 398 Q 172 385 192 384 Q 212 385 226 398 Q 239 412 240 432 L 240 512 L 240 512 L 308 512 L 308 512 Q 289 489 288 456 L 288 288 L 288 288 L 272 288 L 272 288 Q 257 287 256 272 L 256 240 L 256 240 Q 257 225 272 224 L 288 224 L 288 224 L 288 160 L 288 160 L 272 160 L 272 160 Q 257 159 256 144 L 256 112 L 256 112 Q 257 97 272 96 L 304 96 L 304 96 Q 306 96 308 96 Q 308 96 308 96 Q 333 65 376 64 L 384 64 L 384 64 L 384 48 L 384 48 Q 383 28 370 14 Q 356 1 336 0 L 48 0 L 48 0 Z M 64 240 Q 65 225 80 224 L 112 224 L 112 224 Q 127 225 128 240 L 128 272 L 128 272 Q 127 287 112 288 L 80 288 L 80 288 Q 65 287 64 272 L 64 240 L 64 240 Z M 176 224 L 208 224 L 176 224 L 208 224 Q 223 225 224 240 L 224 272 L 224 272 Q 223 287 208 288 L 176 288 L 176 288 Q 161 287 160 272 L 160 240 L 160 240 Q 161 225 176 224 L 176 224 Z M 80 96 L 112 96 L 80 96 L 112 96 Q 127 97 128 112 L 128 144 L 128 144 Q 127 159 112 160 L 80 160 L 80 160 Q 65 159 64 144 L 64 112 L 64 112 Q 65 97 80 96 L 80 96 Z M 160 112 Q 161 97 176 96 L 208 96 L 208 96 Q 223 97 224 112 L 224 144 L 224 144 Q 223 159 208 160 L 176 160 L 176 160 Q 161 159 160 144 L 160 112 L 160 112 Z M 384 96 Q 357 97 339 115 L 339 115 L 339 115 Q 321 133 320 160 L 320 448 L 320 448 Q 321 475 339 493 Q 357 511 384 512 L 576 512 L 576 512 Q 603 511 621 493 Q 639 475 640 448 L 640 160 L 640 160 Q 639 133 621 115 Q 603 97 576 96 L 384 96 L 384 96 Z M 400 184 Q 422 186 424 208 Q 422 230 400 232 Q 378 230 376 208 Q 378 186 400 184 L 400 184 Z M 376 304 Q 378 282 400 280 Q 422 282 424 304 Q 422 326 400 328 Q 378 326 376 304 L 376 304 Z M 400 376 Q 422 378 424 400 Q 422 422 400 424 Q 378 422 376 400 Q 378 378 400 376 L 400 376 Z M 464 208 Q 465 193 480 192 L 576 192 L 576 192 Q 591 193 592 208 Q 591 223 576 224 L 480 224 L 480 224 Q 465 223 464 208 L 464 208 Z M 480 288 L 576 288 L 480 288 L 576 288 Q 591 289 592 304 Q 591 319 576 320 L 480 320 L 480 320 Q 465 319 464 304 Q 465 289 480 288 L 480 288 Z M 464 400 Q 465 385 480 384 L 576 384 L 576 384 Q 591 385 592 400 Q 591 415 576 416 L 480 416 L 480 416 Q 465 415 464 400 L 464 400 Z" />
</svg>