<svg xmlns="http://www.w3.org/2000/svg" viewBox="0 0 640 512">
  <path d="M 320 128 L 279 128 L 320 128 L 279 128 Q 225 129 183 160 Q 142 190 126 242 L 120 262 L 120 262 Q 111 287 85 288 Q 69 288 59 277 Q 48 267 48 251 L 48 202 L 48 202 Q 47 193 38 192 Q 32 192 29 197 L 26 201 L 26 201 Q 0 240 0 286 Q 1 341 38 378 Q 75 415 130 416 L 184 416 L 184 416 L 246 499 L 246 499 Q 256 512 272 512 L 368 512 L 368 512 Q 383 511 384 496 Q 383 476 370 462 Q 356 449 336 448 L 317 398 L 317 398 L 346 373 L 346 373 Q 367 353 368 323 Q 367 295 348 276 Q 329 257 301 256 L 288 256 L 288 256 Q 273 255 272 240 Q 273 225 288 224 L 301 224 L 301 224 Q 356 226 385 270 L 385 270 L 385 270 L 428 299 L 428 299 Q 432 301 432 305 L 432 320 L 432 320 Q 434 342 456 344 Q 478 342 480 320 L 480 305 L 480 305 Q 479 276 455 259 L 425 239 L 425 239 L 464 208 L 464 208 L 560 208 L 560 208 Q 593 206 605 176 L 565 176 L 565 176 Q 549 176 537 164 L 524 151 L 524 151 Q 517 144 507 144 L 488 144 L 488 144 Q 481 143 480 136 Q 481 129 488 128 L 507 128 L 507 128 Q 523 128 535 140 L 548 153 L 548 153 Q 555 160 565 160 L 608 160 L 616 160 Q 638 158 640 136 L 640 112 L 640 112 Q 639 78 617 55 Q 594 33 560 32 L 541 32 L 541 32 Q 529 2 496 0 Q 483 0 472 7 Q 457 0 440 0 Q 415 0 395 15 Q 375 29 366 53 L 352 96 L 352 96 L 320 128 L 320 128 Z M 480 56 Q 481 41 496 40 Q 511 41 512 56 Q 511 71 496 72 Q 481 71 480 56 L 480 56 Z" />
</svg>