<svg xmlns="http://www.w3.org/2000/svg" viewBox="0 0 640 384">
  <path d="M 400 48 Q 422 46 424 24 Q 422 2 400 0 L 208 0 L 208 0 Q 186 2 184 24 Q 186 46 208 48 L 280 48 L 280 48 L 280 80 L 280 80 L 208 80 L 128 80 Q 114 80 105 89 Q 96 98 96 112 L 96 168 L 96 168 L 48 168 L 48 168 L 48 96 L 48 96 Q 46 74 24 72 Q 2 74 0 96 L 0 288 L 0 288 Q 2 310 24 312 Q 46 310 48 288 L 48 216 L 48 216 L 96 216 L 96 216 L 96 288 L 96 288 Q 96 302 105 311 Q 114 320 128 320 L 173 320 L 173 320 L 205 360 L 205 360 Q 224 383 255 384 L 448 384 L 448 384 Q 475 383 493 365 Q 511 347 512 320 L 512 175 L 512 175 Q 511 144 488 125 L 450 94 L 450 94 Q 432 80 410 80 L 328 80 L 328 80 L 328 48 L 328 48 L 400 48 L 400 48 Z M 544 160 L 544 352 L 544 160 L 544 352 Q 544 366 553 375 Q 562 384 576 384 L 608 384 L 608 384 Q 622 384 631 375 Q 640 366 640 352 L 640 160 L 640 160 Q 640 146 631 137 Q 622 128 608 128 L 576 128 L 576 128 Q 562 128 553 137 Q 544 146 544 160 L 544 160 Z M 304 124 Q 322 126 324 144 L 324 232 L 324 232 Q 322 250 304 252 Q 286 250 284 232 L 284 144 L 284 144 Q 286 126 304 124 L 304 124 Z M 280 304 Q 282 282 304 280 Q 326 282 328 304 Q 326 326 304 328 Q 282 326 280 304 L 280 304 Z" />
</svg>