<svg xmlns="http://www.w3.org/2000/svg" viewBox="0 0 578 505">
  <path d="M 164 130 Q 142 106 142 76 L 142 76 L 142 76 Q 142 45 164 22 Q 187 0 217 0 Q 247 0 270 22 L 288 40 L 288 40 L 306 22 L 306 22 Q 329 0 359 0 Q 389 0 412 22 Q 434 45 434 76 Q 434 106 412 130 L 311 233 L 311 233 Q 301 243 288 243 Q 275 243 266 233 L 164 130 L 164 130 Z M 568 329 Q 578 343 576 359 L 576 359 L 576 359 Q 573 375 560 385 L 433 479 L 433 479 Q 397 505 352 505 L 192 505 L 32 505 Q 18 505 9 496 Q 0 487 0 473 L 0 409 L 0 409 Q 0 395 9 386 Q 18 377 32 377 L 69 377 L 69 377 L 114 341 L 114 341 Q 149 313 194 313 L 272 313 L 352 313 Q 366 313 375 322 Q 384 331 384 345 Q 384 359 375 368 Q 366 377 352 377 L 288 377 L 272 377 Q 257 378 256 393 Q 257 408 272 409 L 393 409 L 393 409 L 512 321 L 512 321 Q 526 311 542 313 Q 558 316 568 329 L 568 329 Z M 194 377 Q 194 377 194 377 L 194 377 L 194 377 Q 194 377 194 377 L 193 377 L 193 377 Q 193 377 193 377 Q 193 377 194 377 L 194 377 Z" />
</svg>