<svg xmlns="http://www.w3.org/2000/svg" viewBox="0 0 512 512">
  <path d="M 0 140.8 L 0 320 Q 0.8 363.2 29.6 392.8 Q 59.2 421.6 102.4 422.4 L 270.4 422.4 Q 250.4 400 240 371.2 L 102.4 371.2 Q 80.8 370.4 66.4 356 Q 52 341.6 51.2 320 Q 52 298.4 66.4 284 Q 80.8 269.6 102.4 268.8 L 241.6 268.8 Q 248.8 250.4 260 232.8 Q 286.4 189.6 329.6 150.4 Q 342.4 140 358.4 140.8 L 358.4 140.8 Q 357.6 108 336 86.4 Q 314.4 64.8 281.6 64 L 76.8 64 Q 44 64.8 22.4 86.4 Q 0.8 108 0 140.8 L 0 140.8 Z M 230.4 318.4 Q 230.4 306.4 233.6 294.4 L 102.4 294.4 Q 91.2 294.4 84 301.6 Q 76.8 308.8 76.8 320 Q 76.8 331.2 84 338.4 Q 91.2 345.6 102.4 345.6 L 232.8 345.6 Q 230.4 332 230.4 318.4 L 230.4 318.4 Z M 363.2 169.6 Q 359.2 166.4 355.2 166.4 Q 350.4 166.4 347.2 169.6 Q 306.4 206.4 281.6 246.4 Q 256.8 286.4 256 320 Q 257.6 374.4 292.8 410.4 Q 328.8 446.4 384 448 Q 438.4 446.4 474.4 410.4 Q 510.4 374.4 512 320 Q 512 308 506.4 291.2 Q 501.6 274.4 492.8 256.8 Q 474.4 220.8 444 192 Q 436 185.6 428 192 Q 416.8 203.2 407.2 216 Q 386.4 191.2 362.4 169.6 L 363.2 169.6 Z M 424 384.8 Q 406.4 396.8 384.8 396.8 Q 356.8 396.8 339.2 380 Q 320.8 364 320 334.4 Q 320 320.8 328.8 305.6 Q 338.4 290.4 356 268.8 Q 358.4 272 370.4 287.2 Q 382.4 302.4 393.6 316.8 Q 404.8 331.2 405.6 332 L 434.4 298.4 Q 436 300.8 437.6 303.2 Q 439.2 305.6 440 308 Q 450.4 328.8 446.4 350.4 Q 442.4 371.2 424 384.8 L 424 384.8 Z" />
</svg>