<svg xmlns="http://www.w3.org/2000/svg" viewBox="0 0 448 512">
  <path d="M 378 199 L 250 341 L 378 199 L 250 341 Q 240 352 226 352 L 222 352 L 222 352 Q 208 352 198 341 L 70 199 L 70 199 Q 64 192 64 183 Q 66 162 87 160 L 160 160 L 160 160 L 160 32 L 160 32 Q 160 18 169 9 Q 178 0 192 0 L 256 0 L 256 0 Q 270 0 279 9 Q 288 18 288 32 L 288 160 L 288 160 L 361 160 L 361 160 Q 382 162 384 183 Q 384 192 378 199 L 378 199 Z M 64 352 L 64 416 L 64 352 L 64 416 Q 64 430 73 439 Q 82 448 96 448 L 352 448 L 352 448 Q 366 448 375 439 Q 384 430 384 416 L 384 352 L 384 352 Q 384 338 393 329 Q 402 320 416 320 Q 430 320 439 329 Q 448 338 448 352 L 448 416 L 448 416 Q 447 457 420 484 Q 393 511 352 512 L 96 512 L 96 512 Q 55 511 28 484 Q 1 457 0 416 L 0 352 L 0 352 Q 0 338 9 329 Q 18 320 32 320 Q 46 320 55 329 Q 64 338 64 352 L 64 352 Z" />
</svg>