<svg xmlns="http://www.w3.org/2000/svg" viewBox="0 0 512 512">
  <path d="M 0 256 Q 1 326 34 384 L 34 384 L 34 384 Q 68 442 128 478 Q 189 512 256 512 Q 323 512 384 478 Q 444 442 478 384 Q 511 326 512 256 Q 511 186 478 128 Q 444 70 384 34 Q 323 0 256 0 Q 189 0 128 34 Q 68 70 34 128 Q 1 186 0 256 L 0 256 Z M 297 385 Q 280 399 263 385 Q 249 368 263 351 L 334 280 L 334 280 L 120 280 L 120 280 Q 98 278 96 256 Q 98 234 120 232 L 334 232 L 334 232 L 263 161 L 263 161 Q 249 144 263 127 Q 280 113 297 127 L 409 239 L 409 239 Q 423 256 409 273 L 297 385 L 297 385 Z" />
</svg>