<svg xmlns="http://www.w3.org/2000/svg" viewBox="0 0 640 384">
  <path d="M 44 125 Q 25 118 12 102 L 12 102 L 12 102 Q 0 86 0 64 Q 1 37 19 19 Q 37 1 64 0 Q 101 2 119 31 Q 165 1 224 0 Q 236 0 247 1 Q 248 1 249 2 Q 306 9 353 45 L 422 100 L 422 100 Q 430 107 428 117 L 421 141 L 421 141 Q 417 160 432 172 Q 448 183 465 174 L 484 162 L 484 162 Q 494 157 503 163 L 630 264 L 630 264 Q 640 272 640 286 Q 640 296 633 304 L 570 374 L 570 374 Q 560 384 546 384 L 544 384 L 544 384 Q 536 384 529 381 L 381 303 L 381 303 Q 354 340 314 362 Q 273 384 224 384 Q 142 382 88 328 Q 34 274 32 192 Q 32 156 44 125 L 44 125 Z M 80 64 Q 79 49 64 48 Q 49 49 48 64 Q 49 79 64 80 Q 79 79 80 64 L 80 64 Z M 224 256 Q 260 255 279 224 Q 297 192 279 160 Q 260 129 224 128 Q 188 129 169 160 Q 151 192 169 224 Q 188 255 224 256 L 224 256 Z" />
</svg>