<svg xmlns="http://www.w3.org/2000/svg" viewBox="0 0 640 507">
  <path d="M 256 149 Q 257 129 244 100 L 244 100 L 244 100 Q 231 70 197 35 Q 180 21 163 36 L 154 45 L 154 45 L 117 8 L 117 8 Q 109 0 99 0 Q 92 0 86 5 Q 57 27 29 64 Q 2 102 0 149 Q 0 160 2 171 L 80 171 L 80 171 Q 86 153 99 139 Q 111 124 121 116 Q 128 111 135 116 Q 145 124 157 139 Q 170 153 176 171 L 254 171 L 254 171 Q 256 160 256 149 L 256 149 Z M 180 325 L 229 251 L 180 325 L 229 251 L 232 251 L 232 251 Q 254 249 256 227 Q 254 205 232 203 L 24 203 L 24 203 Q 2 205 0 227 Q 1 242 14 249 L 3 308 L 3 308 Q 0 323 0 338 L 0 345 L 0 345 Q 2 414 47 460 Q 93 505 162 507 Q 199 507 232 491 Q 265 475 289 446 L 534 135 L 534 135 Q 544 123 560 123 L 624 123 L 624 123 Q 639 122 640 107 Q 640 99 634 94 L 610 74 L 610 74 Q 592 59 569 59 L 539 59 L 539 59 Q 512 59 493 78 L 449 122 L 449 122 L 441 114 L 441 114 Q 424 100 407 114 Q 393 131 407 148 L 415 156 L 415 156 L 401 170 L 401 170 L 393 162 L 393 162 Q 376 148 359 162 Q 345 179 359 196 L 367 204 L 367 204 L 353 218 L 353 218 L 345 210 L 345 210 Q 328 196 311 210 Q 297 227 311 244 L 319 252 L 319 252 L 215 356 L 215 356 Q 208 363 199 363 Q 178 361 176 340 L 176 339 L 176 339 Q 176 331 180 325 L 180 325 Z M 144 275 Q 142 297 120 299 Q 98 297 96 275 Q 98 253 120 251 Q 142 253 144 275 L 144 275 Z M 88 339 Q 110 341 112 363 Q 110 385 88 387 Q 66 385 64 363 Q 66 341 88 339 L 88 339 Z" />
</svg>