<svg xmlns="http://www.w3.org/2000/svg" viewBox="0 0 576 512">
  <path d="M 0 32 Q 0 18 9 9 L 9 9 L 9 9 Q 18 0 32 0 L 64 0 L 352 0 Q 366 0 375 9 Q 384 18 384 32 Q 384 46 375 55 Q 366 64 352 64 L 352 75 L 352 75 Q 351 141 305 188 L 237 256 L 237 256 L 273 292 L 273 292 Q 257 326 256 365 L 192 301 L 192 301 L 124 369 L 124 369 Q 97 398 96 437 L 96 448 L 96 448 L 275 448 L 275 448 Q 295 487 331 512 L 320 512 L 32 512 Q 18 512 9 503 Q 0 494 0 480 Q 0 466 9 457 Q 18 448 32 448 L 32 437 L 32 437 Q 33 371 79 324 L 147 256 L 147 256 L 79 188 L 79 188 Q 33 141 32 75 L 32 64 L 32 64 Q 18 64 9 55 Q 0 46 0 32 L 0 32 Z M 96 64 L 96 75 L 96 64 L 96 75 Q 97 115 124 143 L 192 211 L 192 211 L 260 143 L 260 143 Q 287 114 288 75 L 288 64 L 288 64 L 96 64 L 96 64 Z M 288 368 Q 288 329 307 296 L 307 296 L 307 296 Q 326 263 360 243 Q 394 224 432 224 Q 470 224 504 243 Q 538 263 557 296 Q 576 329 576 368 Q 576 407 557 440 Q 538 473 504 493 Q 470 512 432 512 Q 394 512 360 493 Q 326 473 307 440 Q 288 407 288 368 L 288 368 Z M 432 288 Q 417 289 416 304 L 416 368 L 416 368 Q 417 383 432 384 L 480 384 L 480 384 Q 495 383 496 368 Q 495 353 480 352 L 448 352 L 448 352 L 448 304 L 448 304 Q 447 289 432 288 L 432 288 Z" />
</svg>