<svg xmlns="http://www.w3.org/2000/svg" viewBox="0 0 576 518">
  <path d="M 253 41 Q 262 21 243 9 Q 223 0 211 19 L 118 198 L 118 198 L 32 198 L 32 198 Q 18 198 9 207 Q 0 216 0 230 Q 0 244 9 253 Q 18 262 32 262 L 84 470 L 84 470 Q 90 491 107 504 Q 123 518 146 518 L 430 518 L 430 518 Q 453 518 469 504 Q 486 491 492 470 L 544 262 L 544 262 Q 558 262 567 253 Q 576 244 576 230 Q 576 216 567 207 Q 558 198 544 198 L 458 198 L 458 198 L 365 19 L 365 19 Q 353 0 333 9 Q 314 21 323 41 L 404 198 L 404 198 L 172 198 L 172 198 L 253 41 L 253 41 Z M 208 334 L 368 334 L 208 334 L 368 334 Q 390 336 392 358 Q 390 380 368 382 L 208 382 L 208 382 Q 186 380 184 358 Q 186 336 208 334 L 208 334 Z" />
</svg>