<svg xmlns="http://www.w3.org/2000/svg" viewBox="0 0 576 448">
  <path d="M 0 64 Q 1 37 19 19 L 19 19 L 19 19 Q 37 1 64 0 L 512 0 L 512 0 Q 539 1 557 19 Q 575 37 576 64 L 576 384 L 576 384 Q 575 411 557 429 Q 539 447 512 448 L 64 448 L 64 448 Q 37 447 19 429 Q 1 411 0 384 L 0 64 L 0 64 Z M 296 128 Q 274 130 272 152 L 272 296 L 272 296 Q 274 318 296 320 Q 318 318 320 296 L 320 152 L 320 152 Q 318 130 296 128 L 296 128 Z M 352 152 L 352 232 L 352 152 L 352 232 L 352 296 L 352 296 Q 354 318 376 320 Q 398 318 400 296 L 400 256 L 400 256 L 440 256 L 440 256 Q 462 254 464 232 Q 462 210 440 208 L 400 208 L 400 208 L 400 176 L 400 176 L 464 176 L 464 176 Q 486 174 488 152 Q 486 130 464 128 L 376 128 L 376 128 Q 354 130 352 152 L 352 152 Z M 128 224 Q 129 204 142 190 L 142 190 L 142 190 Q 156 177 176 176 Q 188 176 198 181 Q 219 190 230 171 Q 239 150 220 139 Q 200 128 176 128 Q 135 129 108 156 Q 81 183 80 224 Q 81 265 108 292 Q 135 319 176 320 Q 206 319 229 304 Q 240 297 240 284 L 240 232 L 240 232 Q 238 210 216 208 L 184 208 L 184 208 Q 162 210 160 232 Q 162 254 184 256 L 192 256 L 192 256 L 192 269 L 192 269 Q 184 272 176 272 Q 156 271 142 258 Q 129 244 128 224 L 128 224 Z" />
</svg>