<svg xmlns="http://www.w3.org/2000/svg" viewBox="0 0 512 512">
  <path d="M 0 115.2 Q 0.8 93.6 15.2 79.2 L 15.2 79.2 Q 29.6 64.8 51.2 64 L 307.2 64 Q 328.8 64.8 343.2 79.2 Q 357.6 93.6 358.4 115.2 L 358.4 140.8 Q 342.4 139.2 330.4 150.4 Q 318.4 160.8 307.2 172 L 307.2 140.8 Q 307.2 129.6 300 122.4 Q 292.8 115.2 281.6 115.2 L 76.8 115.2 Q 65.6 115.2 58.4 122.4 Q 51.2 129.6 51.2 140.8 L 51.2 192 Q 51.2 203.2 58.4 210.4 Q 65.6 217.6 76.8 217.6 L 270.4 217.6 Q 264.8 224.8 260 232.8 Q 246.4 253.6 238.4 276.8 Q 234.4 275.2 230.4 275.2 Q 212.8 276.8 211.2 294.4 Q 212.8 312 230.4 313.6 L 230.4 313.6 Q 230.4 316 230.4 318.4 Q 232 379.2 270.4 422.4 L 51.2 422.4 Q 29.6 421.6 15.2 407.2 Q 0.8 392.8 0 371.2 L 0 115.2 L 0 115.2 Z M 96 294.4 Q 94.4 276.8 76.8 275.2 Q 59.2 276.8 57.6 294.4 Q 59.2 312 76.8 313.6 Q 94.4 312 96 294.4 L 96 294.4 Z M 153.6 313.6 Q 171.2 312 172.8 294.4 Q 171.2 276.8 153.6 275.2 Q 136 276.8 134.4 294.4 Q 136 312 153.6 313.6 L 153.6 313.6 Z M 363.2 169.6 Q 386.4 190.4 407.2 215.2 Q 416.8 203.2 428.8 192 Q 436.8 185.6 444.8 192 Q 474.4 220.8 492.8 256.8 Q 501.6 273.6 506.4 290.4 Q 512 307.2 512 320 Q 510.4 374.4 474.4 410.4 Q 438.4 446.4 384 448 Q 328.8 446.4 292.8 410.4 Q 257.6 373.6 256 320 Q 257.6 286.4 282.4 245.6 Q 306.4 205.6 347.2 169.6 Q 350.4 166.4 355.2 166.4 Q 359.2 166.4 363.2 169.6 L 363.2 169.6 Z M 424 384.8 Q 442.4 371.2 446.4 349.6 L 446.4 349.6 Q 450.4 328.8 440 308 Q 437.6 303.2 434.4 298.4 L 405.6 332 Q 404.8 331.2 393.6 316.8 Q 382.4 301.6 370.4 287.2 Q 358.4 272 356 268.8 Q 338.4 290.4 328.8 305.6 Q 320 320 320 334.4 Q 320.8 364 339.2 380 Q 356.8 396.8 384.8 396.8 Q 406.4 396.8 424 384.8 L 424 384.8 Z" />
</svg>