<svg xmlns="http://www.w3.org/2000/svg" viewBox="0 0 448 512">
  <path d="M 247 503 Q 237 512 224 512 L 224 512 L 224 512 Q 211 512 201 503 L 73 375 L 73 375 Q 64 365 64 352 Q 64 339 73 329 Q 83 320 96 320 Q 109 320 119 329 L 192 403 L 192 403 L 192 192 L 192 192 Q 192 178 201 169 Q 210 160 224 160 Q 238 160 247 169 Q 256 178 256 192 L 256 403 L 256 403 L 329 329 L 329 329 Q 339 320 352 320 Q 365 320 375 329 Q 384 339 384 352 Q 384 365 375 375 L 247 503 L 247 503 Z M 64 160 Q 64 174 55 183 L 55 183 L 55 183 Q 46 192 32 192 Q 18 192 9 183 Q 0 174 0 160 L 0 96 L 0 96 Q 1 55 28 28 Q 55 1 96 0 L 352 0 L 352 0 Q 393 1 420 28 Q 447 55 448 96 L 448 160 L 448 160 Q 448 174 439 183 Q 430 192 416 192 Q 402 192 393 183 Q 384 174 384 160 L 384 96 L 384 96 Q 384 82 375 73 Q 366 64 352 64 L 96 64 L 96 64 Q 82 64 73 73 Q 64 82 64 96 L 64 160 L 64 160 Z" />
</svg>