<svg xmlns="http://www.w3.org/2000/svg" viewBox="0 0 448 512">
  <path d="M 119 298 Q 116 314 101 322 Q 55 344 28 386 Q 1 429 0 482 Q 0 495 9 503 Q 17 512 30 512 L 418 512 L 418 512 Q 431 512 439 503 Q 448 495 448 482 Q 447 429 420 386 Q 393 344 347 322 Q 332 314 329 298 Q 328 283 339 272 Q 382 227 384 160 Q 382 92 337 47 Q 292 2 224 0 Q 156 2 111 47 Q 66 92 64 160 Q 66 227 109 272 Q 120 283 119 298 L 119 298 Z M 224 96 Q 196 97 178 114 L 178 114 L 178 114 Q 161 132 160 157 Q 161 184 183 211 Q 204 236 224 249 Q 244 236 265 211 Q 287 184 288 157 Q 287 132 270 114 Q 252 97 224 96 L 224 96 Z M 128 157 Q 129 118 156 91 L 156 91 L 156 91 Q 183 65 224 64 Q 265 65 292 91 Q 319 118 320 157 Q 318 199 290 231 Q 262 263 240 278 Q 224 288 208 278 Q 186 263 158 231 Q 130 200 128 157 L 128 157 Z M 160 400 L 160 464 L 160 400 L 160 464 Q 159 479 144 480 Q 129 479 128 464 L 128 400 L 128 400 Q 129 385 144 384 Q 159 385 160 400 L 160 400 Z M 320 400 L 320 464 L 320 400 L 320 464 Q 319 479 304 480 Q 289 479 288 464 L 288 400 L 288 400 Q 289 385 304 384 Q 319 385 320 400 L 320 400 Z" />
</svg>