<svg xmlns="http://www.w3.org/2000/svg" viewBox="0 0 448 448">
  <path d="M 384 448 Q 411 447 429 429 L 429 429 L 429 429 Q 447 411 448 384 L 448 64 L 448 64 Q 447 37 429 19 Q 411 1 384 0 L 64 0 L 64 0 Q 37 1 19 19 Q 1 37 0 64 L 0 384 L 0 384 Q 1 411 19 429 Q 37 447 64 448 L 384 448 L 384 448 Z M 160 320 Q 150 320 145 310 Q 142 300 149 293 L 189 253 L 189 253 L 118 182 L 118 182 Q 112 176 112 168 Q 112 160 118 154 L 154 118 L 154 118 Q 160 112 168 112 Q 176 112 182 118 L 253 189 L 253 189 L 293 149 L 293 149 Q 301 142 310 145 Q 320 149 320 160 L 320 304 L 320 304 Q 319 319 304 320 L 160 320 L 160 320 Z" />
</svg>