<svg xmlns="http://www.w3.org/2000/svg" viewBox="0 0 640 480">
  <path d="M 0 64 Q 1 37 19 19 L 19 19 L 19 19 Q 37 1 64 0 L 384 0 L 384 0 Q 411 1 429 19 Q 447 37 448 64 L 448 96 L 448 96 Q 428 94 413 108 Q 398 121 384 135 L 384 96 L 384 96 Q 384 82 375 73 Q 366 64 352 64 L 96 64 L 96 64 Q 82 64 73 73 Q 64 82 64 96 L 64 160 L 64 160 Q 64 174 73 183 Q 82 192 96 192 L 338 192 L 338 192 Q 331 201 325 211 Q 308 237 298 266 Q 293 264 288 264 Q 266 266 264 288 Q 266 310 288 312 L 288 312 L 288 312 Q 288 315 288 318 Q 290 394 338 448 L 64 448 L 64 448 Q 37 447 19 429 Q 1 411 0 384 L 0 64 L 0 64 Z M 120 288 Q 118 266 96 264 Q 74 266 72 288 Q 74 310 96 312 Q 118 310 120 288 L 120 288 Z M 192 312 Q 214 310 216 288 Q 214 266 192 264 Q 170 266 168 288 Q 170 310 192 312 L 192 312 Z M 506 176 L 518 162 L 506 176 L 518 162 Q 527 153 539 153 Q 550 153 559 161 Q 590 190 614 232 Q 638 274 640 320 Q 638 388 593 433 Q 548 478 480 480 Q 411 478 366 433 Q 322 388 320 320 Q 323 263 357 216 Q 390 168 428 135 Q 437 128 448 128 Q 468 131 481 149 Q 481 149 481 149 Q 484 153 487 156 L 506 176 L 506 176 Z M 544 368 Q 542 340 523 316 L 523 316 L 523 316 Q 504 292 489 280 Q 480 273 471 280 Q 456 292 437 316 Q 418 340 416 368 Q 417 395 435 413 Q 453 431 480 432 Q 507 431 525 413 Q 543 395 544 368 L 544 368 Z" />
</svg>