<svg xmlns="http://www.w3.org/2000/svg" viewBox="0 0 512 512">
  <path d="M 131.10034 97.439445 Q 131.98616 68.20761 150.58824 48.719723 L 150.58824 48.719723 Q 170.07613 30.117647 199.30795 29.231834 Q 226.76817 29.231834 247.14186 48.719723 L 255.11418 57.577854 L 263.08652 48.719723 Q 283.4602 29.231834 310.9204 29.231834 Q 340.15225 30.117647 359.64014 48.719723 Q 378.24222 68.20761 379.12802 97.439445 Q 379.12802 124.89965 359.64014 145.27336 L 267.51556 236.51212 Q 255.11418 247.14186 242.7128 236.51212 L 150.58824 145.27336 Q 131.10034 124.89965 131.10034 97.439445 L 131.10034 97.439445 Z M 503.14188 326.86505 Q 512 339.26645 510.22836 353.43945 L 510.22836 353.43945 Q 507.57092 367.61246 496.05536 376.47058 L 383.5571 459.73703 Q 351.66782 482.76816 311.8062 482.76816 L 170.07613 482.76816 L 28.346022 482.76816 Q 15.944636 482.76816 7.972318 474.79584 Q 0 466.82352 0 454.42215 L 0 397.7301 Q 0 385.3287 7.972318 377.3564 Q 15.944636 369.3841 28.346022 369.3841 L 61.12111 369.3841 L 100.9827 337.4948 Q 131.98616 312.69205 171.84775 312.69205 L 240.94118 312.69205 L 255.11418 312.69205 L 311.8062 312.69205 Q 324.2076 312.69205 332.17993 320.66437 Q 340.15225 328.6367 340.15225 341.03806 Q 340.15225 353.43945 332.17993 361.41177 Q 324.2076 369.3841 311.8062 369.3841 L 255.11418 369.3841 L 240.94118 369.3841 Q 227.65398 370.2699 226.76817 383.5571 Q 227.65398 396.8443 240.94118 397.7301 L 348.12457 397.7301 L 453.53635 319.77853 Q 465.9377 310.9204 480.11072 312.69205 Q 494.28372 315.3495 503.14188 326.86505 L 503.14188 326.86505 Z M 171.84775 369.3841 L 171.84775 369.3841 L 170.96194 369.3841 Q 170.96194 369.3841 170.96194 369.3841 Q 170.96194 369.3841 171.84775 369.3841 L 171.84775 369.3841 Z" />
</svg>