<svg xmlns="http://www.w3.org/2000/svg" viewBox="0 0 512 512">
  <path d="M 235.2 54.4 Q 258.4 75.2 279.2 100.8 Q 288.8 88 300.8 76.8 Q 308.8 70.4 316.8 76.8 Q 346.4 105.6 364.8 141.6 Q 373.6 159.2 378.4 176 Q 384 192.8 384 204.8 Q 382.4 259.2 346.4 295.2 Q 310.4 331.2 256 332.8 Q 200.8 331.2 164.8 295.2 Q 129.6 259.2 128 204.8 Q 128.8 171.2 153.6 131.2 Q 178.4 91.2 219.2 54.4 Q 222.4 51.2 227.2 51.2 Q 231.2 51.2 235.2 54.4 L 235.2 54.4 Z M 296 269.6 Q 314.4 256 318.4 235.2 L 318.4 235.2 Q 322.4 213.6 312 192.8 Q 311.2 190.4 309.6 188 Q 308 185.6 306.4 183.2 L 277.6 216.8 Q 276.8 216 265.6 201.6 Q 254.4 187.2 242.4 172 Q 230.4 156.8 228 153.6 Q 210.4 175.2 200.8 190.4 Q 192 205.6 192 219.2 Q 192.8 248.8 211.2 264.8 Q 228.8 281.6 256.8 281.6 Q 278.4 281.6 296 269.6 L 296 269.6 Z M 25.6 281.6 Q 25.6 270.4 32.8 263.2 L 32.8 263.2 Q 40 256 51.2 256 L 76.8 256 Q 88 256 95.2 263.2 Q 102.4 270.4 102.4 281.6 Q 102.4 292.8 95.2 300 Q 88 307.2 76.8 307.2 L 76.8 358.4 L 435.2 358.4 L 435.2 307.2 Q 424 307.2 416.8 300 Q 409.6 292.8 409.6 281.6 Q 409.6 270.4 416.8 263.2 Q 424 256 435.2 256 L 460.8 256 Q 472 256 479.2 263.2 Q 486.4 270.4 486.4 281.6 L 486.4 358.4 Q 497.6 358.4 504.8 365.6 Q 512 372.8 512 384 L 512 435.2 Q 512 446.4 504.8 453.6 Q 497.6 460.8 486.4 460.8 L 25.6 460.8 Q 14.4 460.8 7.2 453.6 Q 0 446.4 0 435.2 L 0 384 Q 0 372.8 7.2 365.6 Q 14.4 358.4 25.6 358.4 L 25.6 281.6 L 25.6 281.6 Z M 256 435.2 Q 267.2 435.2 274.4 428 L 274.4 428 Q 281.6 420.8 281.6 409.6 Q 281.6 398.4 274.4 391.2 Q 267.2 384 256 384 Q 244.8 384 237.6 391.2 Q 230.4 398.4 230.4 409.6 Q 230.4 420.8 237.6 428 Q 244.8 435.2 256 435.2 L 256 435.2 Z M 384 409.6 Q 384 398.4 376.8 391.2 L 376.8 391.2 Q 369.6 384 358.4 384 Q 347.2 384 340 391.2 Q 332.8 398.4 332.8 409.6 Q 332.8 420.8 340 428 Q 347.2 435.2 358.4 435.2 Q 369.6 435.2 376.8 428 Q 384 420.8 384 409.6 L 384 409.6 Z M 153.6 435.2 Q 164.8 435.2 172 428 L 172 428 Q 179.2 420.8 179.2 409.6 Q 179.2 398.4 172 391.2 Q 164.8 384 153.6 384 Q 142.4 384 135.2 391.2 Q 128 398.4 128 409.6 Q 128 420.8 135.2 428 Q 142.4 435.2 153.6 435.2 L 153.6 435.2 Z" />
</svg>