<svg xmlns="http://www.w3.org/2000/svg" viewBox="0 0 512 512">
  <path d="M 256 512 Q 326 511 384 478 L 384 478 L 384 478 Q 442 444 478 384 Q 512 323 512 256 Q 512 189 478 128 Q 442 68 384 34 Q 326 1 256 0 Q 186 1 128 34 Q 70 68 34 128 Q 0 189 0 256 Q 0 323 34 384 Q 70 444 128 478 Q 186 511 256 512 L 256 512 Z M 267 117 L 379 229 L 267 117 L 379 229 Q 386 236 383 246 Q 378 255 368 256 L 304 256 L 304 256 L 304 352 L 304 352 Q 304 366 295 375 Q 286 384 272 384 L 240 384 L 240 384 Q 226 384 217 375 Q 208 366 208 352 L 208 256 L 208 256 L 144 256 L 144 256 Q 134 256 129 246 Q 126 236 133 229 L 245 117 L 245 117 Q 256 107 267 117 L 267 117 Z" />
</svg>