<svg xmlns="http://www.w3.org/2000/svg" viewBox="0 0 512 419">
  <path d="M 335 5 Q 349 0 361 10 L 505 146 L 505 146 Q 512 153 512 163 Q 512 173 505 180 L 361 316 L 361 316 Q 349 326 335 321 Q 321 314 320 299 L 320 211 L 320 211 L 128 211 L 128 211 Q 114 211 105 220 Q 96 229 96 243 L 96 387 L 96 387 Q 96 401 87 410 Q 78 419 64 419 L 32 419 L 32 419 Q 18 419 9 410 Q 0 401 0 387 L 0 243 L 0 243 Q 1 189 37 152 Q 74 116 128 115 L 320 115 L 320 115 L 320 27 L 320 27 Q 321 12 335 5 L 335 5 Z" />
</svg>