<svg xmlns="http://www.w3.org/2000/svg" viewBox="0 0 512 512">
  <path d="M 256 0 Q 186 1 128 34 L 128 34 L 128 34 Q 70 68 34 128 Q 0 189 0 256 Q 0 323 34 384 Q 70 444 128 478 Q 186 511 256 512 Q 326 511 384 478 Q 442 444 478 384 Q 512 323 512 256 Q 512 189 478 128 Q 442 68 384 34 Q 326 1 256 0 L 256 0 Z M 127 297 Q 113 280 127 263 Q 144 249 161 263 L 232 334 L 232 334 L 232 120 L 232 120 Q 234 98 256 96 Q 278 98 280 120 L 280 334 L 280 334 L 351 263 L 351 263 Q 368 249 385 263 Q 399 280 385 297 L 273 409 L 273 409 Q 256 423 239 409 L 127 297 L 127 297 Z" />
</svg>