<svg xmlns="http://www.w3.org/2000/svg" viewBox="0 0 529 529">
  <path d="M 464 39 Q 464 39 464 40 Q 464 39 464 39 L 464 39 Z M 423 92 Q 439 82 452 76 Q 446 89 436 105 Q 429 116 422 128 Q 412 117 400 106 Q 412 99 423 92 L 423 92 Z M 74 348 Q 32 408 16 451 L 16 451 L 16 451 Q 0 494 16 512 Q 35 529 82 510 Q 130 492 194 444 Q 258 397 328 328 Q 397 258 444 194 Q 492 130 510 82 Q 529 35 512 16 Q 494 0 451 16 Q 408 32 348 74 Q 309 56 264 56 Q 176 58 117 117 Q 58 176 56 264 Q 56 309 74 348 L 74 348 Z M 106 400 Q 116 412 128 422 Q 116 430 105 436 Q 89 446 76 452 Q 82 439 92 423 Q 98 412 106 400 L 106 400 Z M 39 464 Q 39 464 40 464 Q 39 464 39 464 L 39 464 Z M 64 488 Q 64 489 64 489 Q 64 489 64 489 Q 64 489 64 488 L 64 488 Z M 488 64 Q 489 64 489 64 L 489 64 L 489 64 Q 489 64 489 64 Q 489 64 488 64 L 488 64 Z M 264 472 Q 352 470 411 411 L 411 411 L 411 411 Q 470 352 472 264 Q 472 240 467 217 Q 418 282 350 350 Q 282 418 217 467 Q 240 472 264 472 L 264 472 Z" />
</svg>