<svg xmlns="http://www.w3.org/2000/svg" viewBox="0 0 384 512">
  <path d="M 64 0 Q 37 1 19 19 L 19 19 L 19 19 Q 1 37 0 64 L 0 448 L 0 448 Q 1 475 19 493 Q 37 511 64 512 L 320 512 L 320 512 Q 347 511 365 493 Q 383 475 384 448 L 384 160 L 384 160 L 256 160 L 256 160 Q 242 160 233 151 Q 224 142 224 128 L 224 0 L 224 0 L 64 0 L 64 0 Z M 256 0 L 256 128 L 256 0 L 256 128 L 384 128 L 384 128 L 256 0 L 256 0 Z M 128 208 L 128 224 L 128 208 L 128 224 L 256 224 L 256 224 L 256 208 L 256 208 Q 257 193 272 192 L 304 192 L 304 192 Q 319 193 320 208 L 320 240 L 320 240 Q 319 255 304 256 L 288 256 L 288 256 L 288 384 L 288 384 L 304 384 L 304 384 Q 319 385 320 400 L 320 432 L 320 432 Q 319 447 304 448 L 272 448 L 272 448 Q 257 447 256 432 L 256 416 L 256 416 L 128 416 L 128 416 L 128 432 L 128 432 Q 127 447 112 448 L 80 448 L 80 448 Q 65 447 64 432 L 64 400 L 64 400 Q 65 385 80 384 L 96 384 L 96 384 L 96 256 L 96 256 L 80 256 L 80 256 Q 65 255 64 240 L 64 208 L 64 208 Q 65 193 80 192 L 112 192 L 112 192 Q 127 193 128 208 L 128 208 Z M 128 384 L 256 384 L 128 384 L 256 384 L 256 256 L 256 256 L 128 256 L 128 256 L 128 384 L 128 384 Z" />
</svg>