<svg xmlns="http://www.w3.org/2000/svg" viewBox="0 0 512 512">
  <path d="M 256.9961 447.25293 Q 328.71594 446.2568 385.49417 419.36188 L 385.49417 419.36188 Q 443.2685 391.47083 477.1362 344.6537 L 477.1362 344.6537 Q 511.0039 297.83658 512 240.06226 Q 511.0039 182.28793 477.1362 135.47081 Q 443.2685 88.653694 385.49417 60.762646 Q 328.71594 33.867702 256.9961 32.871593 Q 185.27626 33.867702 128.49805 60.762646 Q 70.72373 88.653694 36.85603 135.47081 Q 2.9883268 182.28793 1.9922179 240.06226 Q 2.9883268 308.79376 49.805447 360.59143 Q 44.8249 397.44748 27.89105 423.3463 Q 19.922178 437.29184 12.949416 444.2646 Q 9.961089 448.24902 7.9688716 450.24124 Q 7.9688716 451.23737 6.9727626 451.23737 Q 6.9727626 451.23737 6.9727626 452.23346 L 6.9727626 452.23346 L 6.9727626 452.23346 L 6.9727626 452.23346 L 6.9727626 452.23346 L 6.9727626 452.23346 Q 0 459.20624 2.9883268 469.16733 Q 7.9688716 479.12842 17.92996 479.12842 Q 61.758755 477.1362 99.61089 460.20233 Q 134.4747 444.2646 153.40077 429.32297 Q 201.214 447.25293 256.9961 447.25293 L 256.9961 447.25293 Z M 204.20233 177.30739 Q 215.15953 174.31906 222.1323 182.28793 L 256.9961 229.10506 L 291.85992 182.28793 Q 298.83267 174.31906 309.7899 177.30739 Q 320.74707 181.29182 320.74707 192.24902 L 320.74707 287.8755 Q 319.75098 302.8171 304.80933 303.81323 Q 289.8677 302.8171 288.87158 287.8755 L 288.87158 240.06226 L 269.94553 265.9611 Q 264.96497 271.93774 256.9961 271.93774 Q 249.02724 271.93774 244.04669 265.9611 L 225.12062 240.06226 L 225.12062 287.8755 Q 224.12451 302.8171 209.18288 303.81323 Q 194.24124 302.8171 193.24513 287.8755 L 193.24513 192.24902 Q 194.24124 181.29182 204.20233 177.30739 L 204.20233 177.30739 Z M 376.52917 215.15953 Q 376.52917 215.15953 376.52917 215.15953 L 376.52917 215.15953 Q 376.52917 215.15953 376.52917 215.15953 Q 376.52917 215.15953 376.52917 215.15953 Q 376.52917 216.15564 378.5214 217.15175 Q 384.49805 220.14008 397.44748 224.12451 L 397.44748 224.12451 Q 409.4008 227.11284 422.3502 234.0856 Q 438.28793 242.05447 440.28015 263.96887 Q 439.28406 286.87936 422.3502 295.84436 Q 407.40857 304.80933 391.47083 303.81323 Q 373.54086 301.821 360.59143 296.84045 Q 359.59534 296.84045 359.59534 296.84045 L 359.59534 296.84045 L 359.59534 296.84045 Q 358.5992 295.84436 357.60312 295.84436 Q 356.607 295.84436 355.6109 294.84824 Q 341.66537 288.87158 345.6498 274.92606 Q 351.62646 261.97665 365.572 264.96497 Q 367.5642 265.9611 370.55252 265.9611 Q 370.55252 265.9611 370.55252 265.9611 L 370.55252 265.9611 L 370.55252 265.9611 Q 383.50195 270.94162 392.46692 271.93774 Q 401.43192 271.93774 405.41635 268.9494 Q 407.40857 267.9533 407.40857 266.95718 Q 408.40466 266.95718 408.40466 263.96887 L 408.40466 263.96887 Q 409.4008 262.97275 405.41635 260.98053 Q 400.4358 257.99222 387.4864 254.00778 L 386.49026 254.00778 Q 386.49026 254.00778 385.49417 254.00778 Q 374.53696 251.01945 362.58365 244.04669 Q 346.6459 236.07782 344.6537 215.15953 Q 346.6459 192.24902 363.57977 183.28404 Q 378.5214 175.31517 392.46692 176.31128 Q 408.40466 177.30739 420.35797 180.29572 Q 434.3035 185.27626 431.3152 200.2179 Q 426.33463 214.16342 412.3891 211.1751 Q 401.43192 208.18677 392.46692 208.18677 Q 384.49805 208.18677 379.51752 211.1751 Q 377.5253 212.1712 376.52917 213.16731 Q 376.52917 213.16731 376.52917 214.16342 L 376.52917 215.15953 Z M 105.58755 215.15953 Q 105.58755 215.15953 105.58755 215.15953 L 105.58755 215.15953 Q 105.58755 215.15953 105.58755 215.15953 Q 105.58755 215.15953 105.58755 215.15953 Q 105.58755 216.15564 107.579765 217.15175 Q 113.55642 220.14008 126.50584 224.12451 L 126.50584 224.12451 Q 138.45914 227.11284 151.40855 234.0856 Q 167.3463 242.05447 169.33852 263.96887 Q 168.3424 286.87936 151.40855 295.84436 Q 136.46692 304.80933 120.52918 303.81323 Q 101.60311 301.821 87.657585 295.84436 Q 87.657585 295.84436 87.657585 295.84436 L 87.657585 295.84436 L 87.657585 295.84436 Q 85.66537 295.84436 84.66926 294.84824 Q 70.72373 288.87158 74.70817 274.92606 Q 79.68871 261.97665 94.63035 264.96497 Q 95.62646 264.96497 95.62646 264.96497 Q 97.618675 265.9611 98.614784 265.9611 L 98.614784 265.9611 L 98.614784 265.9611 Q 98.614784 265.9611 98.614784 265.9611 Q 112.56031 270.94162 122.5214 271.93774 Q 130.49026 271.93774 134.4747 268.9494 Q 136.46692 267.9533 136.46692 266.95718 Q 137.46303 266.95718 137.46303 263.96887 L 137.46303 263.96887 Q 138.45914 262.97275 134.4747 260.98053 Q 129.49416 257.99222 116.54475 254.00778 L 115.54864 254.00778 L 115.54864 254.00778 Q 115.54864 254.00778 114.55253 254.00778 Q 103.59533 251.01945 91.64202 244.04669 Q 75.70428 237.07393 73.71206 215.15953 Q 75.70428 192.24902 92.63813 183.28404 Q 107.579765 175.31517 121.52529 176.31128 Q 137.46303 177.30739 152.40466 180.29572 Q 166.35019 185.27626 164.35797 200.2179 Q 159.37743 214.16342 144.43579 211.1751 Q 132.48248 208.18677 121.52529 208.18677 Q 113.55642 208.18677 108.575874 211.1751 Q 106.58366 212.1712 105.58755 213.16731 Q 105.58755 213.16731 105.58755 215.15953 L 105.58755 215.15953 Z" />
</svg>