<svg xmlns="http://www.w3.org/2000/svg" viewBox="0 0 384 511">
  <path d="M 216 499 Q 243 466 282 410 L 282 410 L 282 410 Q 321 355 352 296 L 352 296 L 352 296 Q 382 237 384 192 Q 382 110 328 56 Q 274 2 192 0 Q 110 2 56 56 Q 2 110 0 192 Q 2 237 32 296 Q 63 355 102 410 Q 141 466 168 499 Q 178 511 192 511 Q 206 511 216 499 L 216 499 Z M 289 156 L 182 262 L 289 156 L 182 262 Q 165 276 148 262 L 95 209 L 95 209 Q 81 192 95 175 Q 112 161 129 175 L 165 212 L 165 212 L 255 122 L 255 122 Q 272 108 289 122 Q 303 139 289 156 L 289 156 Z" />
</svg>