<svg xmlns="http://www.w3.org/2000/svg" viewBox="0 0 576 450">
  <path d="M 0 304 Q 0 290 9 281 L 9 281 L 9 281 Q 18 272 32 272 Q 59 271 77 253 Q 95 235 96 208 Q 98 120 157 61 Q 216 2 304 0 Q 368 1 419 34 Q 469 68 494 123 Q 501 141 486 153 Q 470 162 456 150 Q 433 129 400 128 Q 366 129 343 151 Q 321 174 320 208 Q 321 235 339 253 Q 357 271 384 272 Q 384 272 384 272 Q 384 272 384 272 Q 426 270 461 246 Q 461 246 461 246 Q 482 233 501 248 Q 523 266 551 273 Q 575 280 576 305 L 576 347 L 576 347 Q 531 344 502 329 Q 494 325 488 322 Q 480 318 472 322 Q 466 326 458 329 Q 428 344 384 347 Q 340 344 310 329 Q 302 325 296 322 Q 288 318 280 322 Q 274 326 266 329 Q 237 344 192 347 Q 148 344 118 329 Q 110 325 104 322 Q 96 318 89 322 Q 82 326 74 329 Q 44 344 0 347 L 0 304 L 0 304 Z M 0 379 Q 26 378 49 372 L 49 372 L 49 372 Q 71 366 87 358 Q 91 357 95 355 Q 95 354 96 354 Q 99 355 102 357 Q 103 358 105 358 Q 121 366 143 372 Q 165 378 192 379 Q 219 378 241 372 Q 263 366 279 358 Q 283 357 287 355 Q 287 354 288 354 Q 291 355 294 357 Q 295 358 297 358 Q 313 366 335 372 Q 357 378 384 379 Q 411 378 433 372 Q 455 366 471 358 Q 475 357 479 355 Q 479 354 480 354 Q 483 355 486 357 Q 487 358 489 358 Q 505 366 527 372 Q 549 378 576 379 L 576 415 L 576 415 Q 576 419 575 423 Q 572 436 561 443 Q 550 450 537 447 Q 499 437 479 422 Q 434 447 384 448 Q 335 445 304 429 Q 295 425 288 421 Q 281 425 272 429 Q 241 445 192 448 Q 142 447 98 422 Q 77 437 39 447 Q 26 450 15 443 Q 4 436 1 423 Q 0 420 0 416 Q 0 416 0 416 Q 0 416 0 416 Q 0 416 0 416 Q 0 416 0 416 L 0 379 L 0 379 Z" />
</svg>