<svg xmlns="http://www.w3.org/2000/svg" viewBox="0 0 512 512">
  <path d="M 298 15 Q 304 1 320 0 L 432 0 Q 454 2 456 24 L 456 136 Q 455 152 441 158 Q 427 164 415 153 L 376 114 L 351 139 Q 375 176 376 224 Q 375 285 337 329 Q 299 372 240 382 Q 240 383 240 383 Q 240 384 240 384 L 240 384 L 240 385 L 240 385 L 240 386 L 240 386 L 240 386 L 240 387 L 240 387 L 240 388 L 240 388 L 240 388 L 240 389 L 240 389 L 240 390 L 240 390 L 240 390 L 240 391 L 240 391 L 240 392 L 240 392 L 240 392 L 240 393 L 240 393 L 240 394 L 240 394 L 240 394 L 240 395 L 240 395 L 240 396 L 240 396 L 240 396 L 240 397 L 240 397 L 240 397 L 240 398 L 240 398 L 240 398 L 240 398 L 240 399 L 240 399 L 240 399 L 240 400 L 240 400 L 240 400 L 240 401 L 240 401 L 240 401 L 240 401 L 240 402 L 240 402 L 240 402 L 240 403 L 240 403 L 240 403 L 240 404 L 240 404 L 240 404 L 240 404 L 240 405 L 240 405 L 240 405 L 240 406 L 240 406 L 240 406 L 240 407 L 240 407 L 240 407 L 240 407 L 240 408 L 264 408 Q 286 410 288 432 Q 286 454 264 456 L 240 456 L 240 456 L 240 456 L 240 456 L 240 457 L 240 457 L 240 457 L 240 457 L 240 457 L 240 458 L 240 458 L 240 458 L 240 458 L 240 458 L 240 459 L 240 459 L 240 459 L 240 459 L 240 459 L 240 460 L 240 460 L 240 460 L 240 460 L 240 460 L 240 461 L 240 461 L 240 461 L 240 461 L 240 461 L 240 462 L 240 462 L 240 462 L 240 462 L 240 462 L 240 463 L 240 463 L 240 463 L 240 463 L 240 463 L 240 464 L 240 464 L 240 464 L 240 464 L 240 464 L 240 465 L 240 465 L 240 465 L 240 465 L 240 465 L 240 466 L 240 466 L 240 466 L 240 466 L 240 466 L 240 467 L 240 467 L 240 467 L 240 467 L 240 467 L 240 468 L 240 468 L 240 468 L 240 468 L 240 468 L 240 469 L 240 469 L 240 469 L 240 469 L 240 469 L 240 470 L 240 470 L 240 470 L 240 470 L 240 470 L 240 471 L 240 471 L 240 471 L 240 471 L 240 471 L 240 472 L 240 472 L 240 472 L 240 472 L 240 472 L 240 473 L 240 473 L 240 473 L 240 473 L 240 473 L 240 474 L 240 474 L 240 474 L 240 474 L 240 474 L 240 475 L 240 475 L 240 475 L 240 475 L 240 475 L 240 476 L 240 476 L 240 476 L 240 476 L 240 476 L 240 476 L 240 476 L 240 477 L 240 477 L 240 477 L 240 477 L 240 477 L 240 477 L 240 477 L 240 477 L 240 477 L 240 477 L 240 478 L 240 478 L 240 478 L 240 478 L 240 478 L 240 478 L 240 478 L 240 478 L 240 478 L 240 478 L 240 479 L 240 479 L 240 479 L 240 479 L 240 479 L 240 479 L 240 479 L 240 479 L 240 479 L 240 479 L 240 480 L 240 480 L 240 480 L 240 480 L 240 480 L 240 480 L 240 480 L 240 480 L 240 480 L 240 480 L 240 481 L 240 481 L 240 481 L 240 481 L 240 481 L 240 481 L 240 481 L 240 481 L 240 481 L 240 481 L 240 482 L 240 482 L 240 482 L 240 482 L 240 482 L 240 482 L 240 482 L 240 482 L 240 482 L 240 482 L 240 483 L 240 483 L 240 483 L 240 483 L 240 483 L 240 483 L 240 483 L 240 483 L 240 483 L 240 483 L 240 484 L 240 484 L 240 484 L 240 484 L 240 484 L 240 484 L 240 484 L 240 484 L 240 484 L 240 484 L 240 485 L 240 485 L 240 485 L 240 485 L 240 485 L 240 485 L 240 485 L 240 485 L 240 485 L 240 485 L 240 486 L 240 486 L 240 486 L 240 486 L 240 486 L 240 486 L 240 486 L 240 486 L 240 486 L 240 486 L 240 487 L 240 487 L 240 487 L 240 487 L 240 487 L 240 487 L 240 487 L 240 487 L 240 487 L 240 487 L 240 488 L 240 488 L 240 488 L 240 488 L 240 488 L 240 488 L 240 488 L 240 488 L 240 488 L 240 488 L 240 488 L 240 488 L 240 488 L 240 488 L 240 488 L 240 488 L 240 488 L 240 488 L 240 488 L 240 488 L 240 488 L 240 488 L 240 488 L 240 488 L 240 488 L 240 488 L 240 488 L 240 488 L 240 488 L 240 488 L 240 488 L 240 488 L 240 488 L 240 488 L 240 488 L 240 488 L 240 488 L 240 488 L 240 488 L 240 488 L 240 488 L 240 488 L 240 488 L 240 488 L 240 488 L 240 488 L 240 488 L 240 488 L 240 488 L 240 488 L 240 488 L 240 488 L 240 488 L 240 488 L 240 488 L 240 488 L 216 488 L 192 488 L 192 488 L 192 488 L 192 488 L 192 488 L 192 488 L 192 488 L 192 488 L 192 488 L 192 488 L 192 488 L 192 488 L 192 488 L 192 488 L 192 488 L 192 488 L 192 488 L 192 488 L 192 488 L 192 488 L 192 488 L 192 488 L 192 488 L 192 488 L 192 488 L 192 488 L 192 488 L 192 488 L 192 488 L 192 488 L 192 488 L 192 488 L 192 488 L 192 488 L 192 488 L 192 488 L 192 488 L 192 488 L 192 488 L 192 488 L 192 488 L 192 488 L 192 488 L 192 488 L 192 488 L 192 488 L 192 488 L 192 488 L 192 488 L 192 488 L 192 488 L 192 488 L 192 488 L 192 488 L 192 488 L 192 488 L 192 487 L 192 487 L 192 487 L 192 487 L 192 487 L 192 487 L 192 487 L 192 487 L 192 486 L 192 486 L 192 486 L 192 486 L 192 486 L 192 486 L 192 485 L 192 485 L 192 485 L 192 485 L 192 485 L 192 485 L 192 485 L 192 485 L 192 485 L 192 485 L 192 485 L 192 485 L 192 485 L 192 485 L 192 485 L 192 484 L 192 484 L 192 484 L 192 484 L 192 484 L 192 484 L 192 484 L 192 484 L 192 484 L 192 484 L 192 484 L 192 484 L 192 483 L 192 483 L 192 483 L 192 483 L 192 483 L 192 483 L 192 483 L 192 483 L 192 483 L 192 483 L 192 483 L 192 482 L 192 482 L 192 482 L 192 482 L 192 482 L 192 482 L 192 482 L 192 482 L 192 482 L 192 482 L 192 481 L 192 481 L 192 481 L 192 481 L 192 481 L 192 481 L 192 481 L 192 481 L 192 481 L 192 481 L 192 480 L 192 480 L 192 480 L 192 480 L 192 480 L 192 480 L 192 480 L 192 480 L 192 480 L 192 479 L 192 479 L 192 479 L 192 479 L 192 479 L 192 479 L 192 479 L 192 479 L 192 478 L 192 478 L 192 478 L 192 478 L 192 478 L 192 478 L 192 478 L 192 478 L 192 477 L 192 477 L 192 477 L 192 477 L 192 477 L 192 477 L 192 477 L 192 476 L 192 476 L 192 476 L 192 476 L 192 476 L 192 476 L 192 476 L 192 475 L 192 475 L 192 475 L 192 475 L 192 475 L 192 474 L 192 474 L 192 474 L 192 474 L 192 474 L 192 474 L 192 474 L 192 473 L 192 473 L 192 473 L 192 473 L 192 473 L 192 473 L 192 472 L 192 472 L 192 472 L 192 472 L 192 472 L 192 471 L 192 471 L 192 471 L 192 471 L 192 471 L 192 470 L 192 470 L 192 470 L 192 470 L 192 470 L 192 470 L 192 470 L 192 470 L 192 469 L 192 469 L 192 469 L 192 469 L 192 469 L 192 469 L 192 468 L 192 468 L 192 468 L 192 468 L 192 468 L 192 467 L 192 467 L 192 467 L 192 467 L 192 467 L 192 467 L 192 466 L 192 466 L 192 466 L 192 466 L 192 466 L 192 465 L 192 465 L 192 465 L 192 465 L 192 465 L 192 464 L 192 464 L 192 464 L 192 464 L 192 464 L 192 463 L 192 463 L 192 463 L 192 463 L 192 463 L 192 463 L 192 462 L 192 462 L 192 462 L 192 462 L 192 462 L 192 461 L 192 461 L 192 461 L 192 461 L 192 461 L 192 460 L 192 460 L 192 460 L 192 460 L 192 460 L 192 459 L 192 459 L 192 459 L 192 459 L 192 458 L 192 458 L 192 458 L 192 458 L 192 458 L 192 457 L 192 457 L 192 457 L 192 457 L 192 456 L 192 456 L 192 456 L 168 456 Q 146 454 144 432 Q 146 410 168 408 L 192 408 L 192 408 L 192 407 L 192 407 L 192 407 L 192 407 L 192 406 L 192 406 L 192 406 L 192 405 L 192 405 L 192 405 L 192 404 L 192 404 L 192 404 L 192 403 L 192 403 L 192 402 L 192 402 L 192 402 L 192 401 L 192 401 L 192 401 L 192 400 L 192 400 L 192 400 L 192 399 L 192 399 L 192 399 L 192 399 L 192 398 L 192 398 L 192 398 L 192 397 L 192 397 L 192 397 L 192 396 L 192 396 L 192 396 L 192 395 L 192 395 L 192 395 L 192 394 L 192 394 L 192 393 L 192 393 L 192 392 L 192 392 L 192 391 L 192 391 L 192 391 L 192 390 L 192 390 L 192 389 L 192 389 L 192 389 L 192 388 L 192 388 L 192 388 L 192 388 L 192 387 L 192 387 L 192 386 L 192 386 L 192 386 L 192 385 L 192 385 L 192 384 L 192 384 L 192 384 Q 192 383 192 382 Q 133 372 95 329 Q 57 285 56 224 Q 58 156 103 111 Q 148 66 216 64 Q 277 65 320 102 L 342 80 L 303 41 Q 292 29 298 15 L 298 15 Z M 408 48 L 408 48 L 408 48 L 408 48 L 408 48 Z M 216 488 L 240 488 Q 238 510 216 512 Q 194 510 192 488 L 216 488 L 216 488 Z M 312 224 Q 312 198 299 176 L 299 176 Q 286 154 264 141 Q 241 128 216 128 Q 191 128 168 141 Q 146 154 133 176 Q 120 198 120 224 Q 120 250 133 272 Q 146 294 168 307 Q 191 320 216 320 Q 241 320 264 307 Q 286 294 299 272 Q 312 250 312 224 L 312 224 Z" />
</svg>