<svg xmlns="http://www.w3.org/2000/svg" viewBox="0 0 448 512">
  <path d="M 64 160 L 64 96 L 64 160 L 64 96 Q 64 82 73 73 Q 82 64 96 64 L 352 64 L 352 64 Q 366 64 375 73 Q 384 82 384 96 L 384 160 L 384 160 Q 384 174 393 183 Q 402 192 416 192 Q 430 192 439 183 Q 448 174 448 160 L 448 96 L 448 96 Q 447 55 420 28 Q 393 1 352 0 L 96 0 L 96 0 Q 55 1 28 28 Q 1 55 0 96 L 0 160 L 0 160 Q 0 174 9 183 Q 18 192 32 192 Q 46 192 55 183 Q 64 174 64 160 L 64 160 Z M 74 378 L 197 501 L 74 378 L 197 501 Q 208 512 224 512 Q 240 512 251 501 L 374 378 L 374 378 Q 384 368 384 354 Q 384 340 374 330 Q 364 320 350 320 L 288 320 L 288 320 L 288 192 L 288 192 Q 288 178 279 169 Q 270 160 256 160 L 192 160 L 192 160 Q 178 160 169 169 Q 160 178 160 192 L 160 320 L 160 320 L 98 320 L 98 320 Q 84 320 74 330 Q 64 340 64 354 Q 64 368 74 378 L 74 378 Z" />
</svg>