<svg xmlns="http://www.w3.org/2000/svg" viewBox="0 0 654 526">
  <path d="M 46 12 Q 27 0 12 16 Q 0 35 16 50 L 608 514 L 608 514 Q 627 526 642 510 Q 654 491 638 476 L 608 453 L 608 453 Q 615 439 615 423 L 615 103 L 615 103 Q 614 76 596 58 Q 578 40 551 39 L 103 39 L 103 39 Q 93 39 84 42 L 46 12 L 46 12 Z M 401 290 L 400 289 L 401 290 L 400 289 Q 391 282 391 271 Q 393 249 415 247 L 495 247 L 495 247 Q 517 249 519 271 Q 517 293 495 295 L 415 295 L 415 295 Q 407 295 401 290 L 401 290 Z M 468 343 L 495 343 L 468 343 L 495 343 Q 517 345 519 367 Q 519 374 515 380 L 468 343 L 468 343 Z M 494 487 L 373 391 L 494 487 L 373 391 L 319 391 L 319 391 Q 297 389 295 367 Q 296 349 313 344 L 251 295 L 251 295 L 159 295 L 159 295 Q 137 293 135 271 Q 137 249 159 247 L 190 247 L 190 247 L 39 128 L 39 128 L 39 423 L 39 423 Q 40 450 58 468 Q 76 486 103 487 L 494 487 L 494 487 Z M 159 343 L 239 343 L 159 343 L 239 343 Q 261 345 263 367 Q 261 389 239 391 L 159 391 L 159 391 Q 137 389 135 367 Q 137 345 159 343 L 159 343 Z" />
</svg>