<svg xmlns="http://www.w3.org/2000/svg" viewBox="0 0 448 448">
  <path d="M 0 384 Q 1 411 19 429 L 19 429 L 19 429 Q 37 447 64 448 L 384 448 L 384 448 Q 411 447 429 429 Q 447 411 448 384 L 448 64 L 448 64 Q 447 37 429 19 Q 411 1 384 0 L 64 0 L 64 0 Q 37 1 19 19 Q 1 37 0 64 L 0 384 L 0 384 Z M 71 207 L 183 95 L 71 207 L 183 95 Q 200 81 217 95 Q 231 112 217 129 L 146 200 L 146 200 L 360 200 L 360 200 Q 382 202 384 224 Q 382 246 360 248 L 146 248 L 146 248 L 217 319 L 217 319 Q 231 336 217 353 Q 200 367 183 353 L 71 241 L 71 241 Q 57 224 71 207 L 71 207 Z" />
</svg>