<svg xmlns="http://www.w3.org/2000/svg" viewBox="0 0 638 512">
  <path d="M 612 247 Q 602 259 589 249 L 389 49 L 389 49 Q 379 36 391 26 Q 429 1 478 0 Q 546 2 591 47 Q 636 92 638 160 Q 637 209 612 247 L 612 247 Z M 565 294 Q 527 319 478 320 Q 410 318 365 273 Q 320 228 318 160 Q 319 111 344 73 Q 354 61 367 71 L 567 271 L 567 271 Q 577 284 565 294 L 565 294 Z M 300 368 Q 316 370 315 386 Q 302 441 259 476 Q 217 511 158 512 Q 99 511 57 476 Q 14 441 2 386 Q 0 370 17 368 L 300 368 L 300 368 Z M 300 336 L 17 336 L 300 336 L 17 336 Q 0 334 2 319 Q 14 263 57 228 Q 99 193 158 192 Q 217 193 259 228 Q 302 263 315 319 Q 316 334 300 336 L 300 336 Z" />
</svg>