<svg xmlns="http://www.w3.org/2000/svg" viewBox="0 0 352 512">
  <path d="M 311 137 Q 320 147 320 160 L 320 160 L 320 160 Q 320 173 311 183 Q 301 192 288 192 Q 275 192 265 183 L 192 109 L 192 109 L 192 416 L 192 416 Q 192 430 201 439 Q 210 448 224 448 L 320 448 L 320 448 Q 334 448 343 457 Q 352 466 352 480 Q 352 494 343 503 Q 334 512 320 512 L 224 512 L 224 512 Q 183 511 156 484 Q 129 457 128 416 L 128 109 L 128 109 L 55 183 L 55 183 Q 45 192 32 192 Q 19 192 9 183 Q 0 173 0 160 Q 0 147 9 137 L 137 9 L 137 9 Q 147 0 160 0 Q 173 0 183 9 L 311 137 L 311 137 Z" />
</svg>