<svg xmlns="http://www.w3.org/2000/svg" viewBox="0 0 576 518">
  <path d="M 243 9 Q 262 21 253 41 L 172 198 L 172 198 L 404 198 L 404 198 L 323 41 L 323 41 Q 314 21 333 9 Q 353 0 365 19 L 458 198 L 458 198 L 544 198 L 544 198 Q 558 198 567 207 Q 576 216 576 230 Q 576 244 567 253 Q 558 262 544 262 L 492 470 L 492 470 Q 486 491 469 504 Q 453 518 430 518 L 146 518 L 146 518 Q 123 518 107 504 Q 90 491 84 470 L 32 262 L 32 262 Q 18 262 9 253 Q 0 244 0 230 Q 0 216 9 207 Q 18 198 32 198 L 118 198 L 118 198 L 211 19 L 211 19 Q 223 0 243 9 L 243 9 Z M 184 358 Q 186 380 208 382 L 264 382 L 264 382 L 264 438 L 264 438 Q 266 460 288 462 Q 310 460 312 438 L 312 382 L 312 382 L 368 382 L 368 382 Q 390 380 392 358 Q 390 336 368 334 L 312 334 L 312 334 L 312 278 L 312 278 Q 310 256 288 254 Q 266 256 264 278 L 264 334 L 264 334 L 208 334 L 208 334 Q 186 336 184 358 L 184 358 Z" />
</svg>