<svg xmlns="http://www.w3.org/2000/svg" viewBox="0 0 640 448">
  <path d="M 576 448 L 336 448 L 576 448 L 336 448 L 336 335 L 336 335 Q 378 328 404 298 Q 431 267 432 224 Q 431 181 404 150 Q 378 120 336 113 L 336 0 L 336 0 L 576 0 L 576 0 Q 603 1 621 19 Q 639 37 640 64 L 640 96 L 640 96 L 576 96 L 576 96 Q 549 97 531 115 Q 513 133 512 160 L 512 288 L 512 288 Q 513 315 531 333 Q 549 351 576 352 L 640 352 L 640 352 L 640 384 L 640 384 Q 639 411 621 429 Q 603 447 576 448 L 576 448 Z M 304 113 Q 262 120 236 150 L 236 150 L 236 150 Q 209 181 208 224 Q 209 267 236 298 Q 262 328 304 335 L 304 448 L 304 448 L 64 448 L 64 448 Q 37 447 19 429 Q 1 411 0 384 L 0 352 L 0 352 L 64 352 L 64 352 Q 91 351 109 333 Q 127 315 128 288 L 128 160 L 128 160 Q 127 133 109 115 Q 91 97 64 96 L 0 96 L 0 96 L 0 64 L 0 64 Q 1 37 19 19 Q 37 1 64 0 L 304 0 L 304 0 L 304 113 L 304 113 Z M 304 302 Q 276 296 258 275 L 258 275 L 258 275 Q 241 254 240 224 Q 241 194 258 173 Q 276 152 304 146 L 304 302 L 304 302 Z M 336 302 L 336 146 L 336 302 L 336 146 Q 364 152 382 173 Q 399 194 400 224 Q 399 254 382 275 Q 364 296 336 302 L 336 302 Z M 576 128 L 640 128 L 576 128 L 640 128 L 640 320 L 640 320 L 576 320 L 576 320 Q 562 320 553 311 Q 544 302 544 288 L 544 160 L 544 160 Q 544 146 553 137 Q 562 128 576 128 L 576 128 Z M 64 320 L 0 320 L 64 320 L 0 320 L 0 128 L 0 128 L 64 128 L 64 128 Q 78 128 87 137 Q 96 146 96 160 L 96 288 L 96 288 Q 96 302 87 311 Q 78 320 64 320 L 64 320 Z" />
</svg>