<svg xmlns="http://www.w3.org/2000/svg" viewBox="0 0 612 518">
  <path d="M 523 52 Q 526 48 530 48 L 584 48 L 584 48 Q 606 46 608 24 Q 606 2 584 0 L 530 0 L 530 0 Q 499 1 482 27 L 459 66 L 459 66 Q 426 74 405 100 Q 385 125 384 160 Q 384 182 393 201 Q 374 192 352 192 Q 310 193 283 221 Q 271 180 238 154 Q 205 129 160 128 Q 92 130 47 175 Q 2 220 0 288 Q 1 322 23 345 Q 46 367 80 368 L 129 368 L 129 368 L 67 476 L 67 476 Q 58 496 76 509 Q 96 518 109 500 L 184 368 L 184 368 Q 199 367 212 362 L 147 476 L 147 476 Q 138 496 156 509 Q 176 518 189 500 L 276 347 L 276 347 Q 283 356 292 363 L 291 364 L 291 364 L 291 364 L 291 364 L 227 476 L 227 476 Q 218 496 236 509 Q 256 518 269 500 L 333 388 L 333 388 L 336 383 L 336 383 Q 344 384 352 384 Q 372 384 390 376 L 430 416 L 430 416 Q 435 421 439 429 L 466 497 L 466 497 Q 476 516 497 510 Q 517 500 510 479 L 483 411 L 483 411 Q 476 394 464 382 L 428 346 L 428 346 Q 432 342 434 337 L 521 399 L 521 399 Q 532 407 536 419 L 561 496 L 561 496 Q 570 516 592 511 Q 612 502 607 480 L 582 404 L 582 404 Q 572 377 549 360 L 454 292 L 454 292 L 448 288 L 448 288 L 448 288 L 448 288 Q 448 266 439 247 Q 458 256 480 256 L 544 256 L 544 256 Q 571 255 589 237 Q 608 219 608 192 Q 607 147 581 114 Q 555 80 514 68 L 524 52 L 523 52 Z M 512 136 Q 534 138 536 160 Q 534 182 512 184 Q 490 182 488 160 Q 490 138 512 136 L 512 136 Z" />
</svg>