<svg xmlns="http://www.w3.org/2000/svg" viewBox="0 0 644 480">
  <path d="M 210 360 Q 207 391 185 411 L 185 411 L 185 411 Q 164 431 132 432 Q 104 432 83 415 Q 63 398 56 371 L 50 339 L 50 339 Q 43 318 21 321 Q 0 327 3 349 L 9 381 L 9 381 Q 20 425 53 452 Q 87 479 132 480 Q 132 480 132 480 Q 132 480 132 480 L 136 480 L 136 480 Q 201 480 255 444 L 277 430 L 277 430 Q 297 416 322 416 Q 347 416 367 430 L 389 444 L 389 444 Q 443 480 508 480 L 512 480 L 512 480 Q 557 479 591 452 Q 624 425 635 381 L 642 349 L 642 349 Q 644 327 623 321 Q 601 318 595 339 L 588 371 L 588 371 Q 582 398 561 415 Q 540 432 512 432 Q 480 431 459 411 Q 437 391 434 360 Q 451 371 473 373 Q 503 374 526 358 Q 550 342 559 313 L 569 277 L 569 277 Q 575 260 588 250 Q 601 240 618 240 Q 640 238 642 216 Q 640 194 618 192 Q 585 192 559 212 Q 533 231 523 263 L 513 300 L 513 300 Q 503 325 477 325 Q 461 323 452 311 Q 443 300 445 284 L 464 175 L 464 175 Q 466 162 466 149 L 466 144 L 466 144 Q 465 83 424 42 Q 383 2 322 0 Q 261 2 220 42 Q 180 83 178 144 L 178 149 L 178 149 Q 178 162 180 175 L 199 284 L 199 284 Q 201 300 192 311 Q 183 323 168 325 Q 141 325 132 300 L 121 263 L 121 263 Q 111 231 85 212 Q 60 192 26 192 Q 4 194 2 216 Q 4 238 26 240 Q 43 240 56 250 Q 70 260 75 277 L 86 313 L 86 313 Q 95 342 118 358 Q 141 374 171 373 Q 193 371 210 360 L 210 360 Z M 242 272 Q 243 257 258 256 Q 273 257 274 272 Q 273 287 258 288 Q 243 287 242 272 L 242 272 Z M 386 256 Q 401 257 402 272 Q 401 287 386 288 Q 371 287 370 272 Q 371 257 386 256 L 386 256 Z" />
</svg>