<svg xmlns="http://www.w3.org/2000/svg" viewBox="0 0 352 512">
  <path d="M 311 375 Q 320 365 320 352 L 320 352 L 320 352 Q 320 339 311 329 Q 301 320 288 320 Q 275 320 265 329 L 192 403 L 192 403 L 192 96 L 192 96 Q 192 82 201 73 Q 210 64 224 64 L 320 64 L 320 64 Q 334 64 343 55 Q 352 46 352 32 Q 352 18 343 9 Q 334 0 320 0 L 224 0 L 224 0 Q 183 1 156 28 Q 129 55 128 96 L 128 403 L 128 403 L 55 329 L 55 329 Q 45 320 32 320 Q 19 320 9 329 Q 0 339 0 352 Q 0 365 9 375 L 137 503 L 137 503 Q 147 512 160 512 Q 173 512 183 503 L 311 375 L 311 375 Z" />
</svg>