<svg xmlns="http://www.w3.org/2000/svg" viewBox="0 0 512 512">
  <path d="M 36.012234 59.49847 Q 21.137615 50.103977 9.394495 62.62997 Q 0 77.504585 12.525994 89.2477 L 475.98776 452.50153 Q 490.8624 461.89603 502.6055 449.37003 Q 512 434.49542 499.474 422.7523 L 430.58105 368.73395 Q 431.36392 367.16818 431.36392 364.81958 Q 430.58105 331.15598 407.8777 306.88684 L 406.31192 306.10397 Q 382.04282 281.052 381.25995 245.82263 L 381.25995 218.42201 Q 380.47705 172.23242 352.29358 138.5688 Q 324.89297 104.9052 281.052 95.510704 L 281.052 80.636086 Q 281.052 69.67584 274.0061 62.62997 Q 266.96024 55.5841 256 55.5841 Q 245.03975 55.5841 237.99388 62.62997 Q 230.94801 69.67584 230.94801 80.636086 L 230.94801 95.510704 Q 179.27829 107.25382 151.0948 150.31192 L 36.012234 59.49847 L 36.012234 59.49847 Z M 130.74007 245.82263 Q 129.95718 281.052 105.68807 306.10397 L 104.9052 307.66974 Q 81.41896 331.15598 80.636086 364.81958 Q 82.201836 379.69418 97.076454 381.25995 L 323.3272 381.25995 L 130.74007 229.38226 L 130.74007 245.82263 L 130.74007 245.82263 Z M 306.10397 406.31192 L 256 406.31192 L 205.89603 406.31192 Q 205.89603 426.66666 220.77065 441.5413 Q 235.64526 456.4159 256 456.4159 Q 276.35474 456.4159 291.22937 441.5413 Q 306.10397 426.66666 306.10397 406.31192 L 306.10397 406.31192 Z" />
</svg>