<svg xmlns="http://www.w3.org/2000/svg" viewBox="0 0 640 512">
  <path d="M 0 24 Q 2 46 24 48 L 32 48 L 32 48 L 32 144 L 32 144 L 24 144 L 24 144 Q 2 146 0 168 Q 2 190 24 192 L 328 192 L 328 192 Q 350 190 352 168 Q 350 146 328 144 L 320 144 L 320 144 L 320 48 L 320 48 L 328 48 L 328 48 Q 350 46 352 24 Q 350 2 328 0 L 24 0 L 24 0 Q 2 2 0 24 L 0 24 Z M 272 144 L 240 144 L 272 144 L 240 144 L 240 48 L 240 48 L 272 48 L 272 48 L 272 144 L 272 144 Z M 160 48 L 192 48 L 160 48 L 192 48 L 192 144 L 192 144 L 160 144 L 160 144 L 160 48 L 160 48 Z M 112 144 L 80 144 L 112 144 L 80 144 L 80 48 L 80 48 L 112 48 L 112 48 L 112 144 L 112 144 Z M 416 96 Q 402 96 393 105 L 393 105 L 393 105 Q 384 114 384 128 L 384 224 L 384 224 L 48 224 L 48 224 Q 28 225 14 238 Q 1 252 0 272 L 0 368 L 0 368 Q 1 388 14 402 Q 28 415 48 416 L 64 416 L 64 416 Q 65 457 92 484 Q 119 511 160 512 Q 201 511 228 484 Q 255 457 256 416 L 384 416 L 384 416 Q 385 457 412 484 Q 439 511 480 512 Q 521 511 548 484 Q 575 457 576 416 L 592 416 L 592 416 Q 612 415 626 402 Q 639 388 640 368 L 640 288 L 640 288 L 640 256 L 640 256 L 640 237 L 640 237 Q 640 211 621 192 L 544 115 L 544 115 Q 525 96 499 96 L 416 96 L 416 96 Z M 576 256 L 448 256 L 576 256 L 448 256 L 448 224 L 448 224 L 448 160 L 448 160 L 499 160 L 499 160 L 576 237 L 576 237 L 576 256 L 576 256 Z M 112 416 Q 113 389 136 374 Q 160 362 184 374 Q 207 389 208 416 Q 207 443 184 458 Q 160 470 136 458 Q 113 443 112 416 L 112 416 Z M 480 368 Q 507 369 522 392 Q 534 416 522 440 Q 507 463 480 464 Q 453 463 438 440 Q 426 416 438 392 Q 453 369 480 368 L 480 368 Z" />
</svg>