<svg xmlns="http://www.w3.org/2000/svg" viewBox="0 0 576 448">
  <path d="M 64 0 Q 37 1 19 19 L 19 19 L 19 19 Q 1 37 0 64 L 0 384 L 0 384 Q 1 411 19 429 Q 37 447 64 448 L 512 448 L 512 448 Q 539 447 557 429 Q 575 411 576 384 L 576 64 L 576 64 Q 575 37 557 19 Q 539 1 512 0 L 64 0 L 64 0 Z M 120 208 L 296 208 L 120 208 L 296 208 Q 318 210 320 232 Q 318 254 296 256 L 120 256 L 120 256 Q 98 254 96 232 Q 98 210 120 208 L 120 208 Z M 376 208 L 456 208 L 376 208 L 456 208 Q 478 210 480 232 Q 478 254 456 256 L 376 256 L 376 256 Q 354 254 352 232 Q 354 210 376 208 L 376 208 Z M 120 304 L 200 304 L 120 304 L 200 304 Q 222 306 224 328 Q 222 350 200 352 L 120 352 L 120 352 Q 98 350 96 328 Q 98 306 120 304 L 120 304 Z M 280 304 L 456 304 L 280 304 L 456 304 Q 478 306 480 328 Q 478 350 456 352 L 280 352 L 280 352 Q 258 350 256 328 Q 258 306 280 304 L 280 304 Z" />
</svg>