<svg xmlns="http://www.w3.org/2000/svg" viewBox="0 0 640 512">
  <path d="M 256 512 Q 307 512 351 494 Q 322 466 305 429 Q 288 392 288 350 Q 288 323 299 296 Q 309 268 325 243 Q 332 232 339 221 Q 321 213 320 192 L 320 160 L 320 160 Q 320 146 329 137 Q 338 128 352 128 Q 366 128 375 137 Q 384 146 384 160 L 384 167 L 384 167 Q 398 153 413 140 Q 426 128 444 128 Q 461 128 475 140 Q 483 148 492 156 Q 461 86 399 43 Q 336 1 256 0 Q 184 1 127 35 Q 69 69 35 127 Q 1 184 0 256 Q 1 328 35 385 Q 69 443 127 477 Q 184 511 256 512 L 256 512 Z M 192 160 L 192 192 L 192 160 L 192 192 Q 192 206 183 215 Q 174 224 160 224 Q 146 224 137 215 Q 128 206 128 192 L 128 160 L 128 160 Q 128 146 137 137 Q 146 128 160 128 Q 174 128 183 137 Q 192 146 192 160 L 192 160 Z M 288 160 L 288 192 L 288 160 L 288 192 Q 288 206 279 215 Q 270 224 256 224 Q 242 224 233 215 Q 224 206 224 192 L 224 160 L 224 160 Q 224 146 233 137 Q 242 128 256 128 Q 270 128 279 137 Q 288 146 288 160 L 288 160 Z M 506 208 L 487 188 L 506 208 L 487 188 Q 485 187 484 185 Q 482 183 481 182 Q 481 182 481 182 Q 481 182 481 182 Q 481 181 480 181 Q 468 163 448 160 Q 437 160 428 167 Q 390 200 357 248 Q 323 295 320 352 Q 322 420 366 465 Q 411 510 480 512 Q 548 510 593 465 Q 638 420 640 352 Q 638 306 614 264 Q 590 222 559 193 Q 550 185 539 185 Q 527 185 518 194 L 506 208 L 506 208 Z M 544 400 Q 543 427 525 445 L 525 445 L 525 445 Q 507 463 480 464 Q 453 463 435 445 Q 417 427 416 400 Q 418 372 437 348 Q 456 324 471 312 Q 480 305 489 312 Q 504 324 523 348 Q 542 372 544 400 L 544 400 Z" />
</svg>