<svg xmlns="http://www.w3.org/2000/svg" viewBox="0 0 448 448">
  <path d="M 64 0 Q 37 1 19 19 L 19 19 L 19 19 Q 1 37 0 64 L 0 384 L 0 384 Q 1 411 19 429 Q 37 447 64 448 L 384 448 L 384 448 Q 411 447 429 429 Q 447 411 448 384 L 448 64 L 448 64 Q 447 37 429 19 Q 411 1 384 0 L 64 0 L 64 0 Z M 241 71 L 353 183 L 241 71 L 353 183 Q 367 200 353 217 Q 336 231 319 217 L 248 146 L 248 146 L 248 360 L 248 360 Q 246 382 224 384 Q 202 382 200 360 L 200 146 L 200 146 L 129 217 L 129 217 Q 112 231 95 217 Q 81 200 95 183 L 207 71 L 207 71 Q 224 57 241 71 L 241 71 Z" />
</svg>