<svg xmlns="http://www.w3.org/2000/svg" viewBox="0 0 512 448">
  <path d="M 448 448 L 64 448 L 448 448 L 64 448 Q 37 447 19 429 Q 1 411 0 384 L 0 64 L 0 64 Q 1 37 19 19 Q 37 1 64 0 L 192 0 L 192 0 Q 224 1 243 26 L 262 51 L 262 51 Q 272 64 288 64 L 448 64 L 448 64 Q 475 65 493 83 Q 511 101 512 128 L 512 384 L 512 384 Q 511 411 493 429 Q 475 447 448 448 L 448 448 Z M 369 209 Q 383 192 369 175 Q 352 161 335 175 L 224 286 L 224 286 L 177 239 L 177 239 Q 160 225 143 239 Q 129 256 143 273 L 207 337 L 207 337 Q 224 351 241 337 L 369 209 L 369 209 Z" />
</svg>