<svg xmlns="http://www.w3.org/2000/svg" viewBox="0 0 448 512">
  <path d="M 374 294 L 251 171 L 374 294 L 251 171 Q 240 160 224 160 Q 208 160 197 171 L 74 294 L 74 294 Q 64 304 64 318 Q 64 332 74 342 Q 84 352 98 352 L 160 352 L 160 352 L 160 480 L 160 480 Q 160 494 169 503 Q 178 512 192 512 L 256 512 L 256 512 Q 270 512 279 503 Q 288 494 288 480 L 288 352 L 288 352 L 350 352 L 350 352 Q 364 352 374 342 Q 384 332 384 318 Q 384 304 374 294 L 374 294 Z M 64 160 L 64 96 L 64 160 L 64 96 Q 64 82 73 73 Q 82 64 96 64 L 352 64 L 352 64 Q 366 64 375 73 Q 384 82 384 96 L 384 160 L 384 160 Q 384 174 393 183 Q 402 192 416 192 Q 430 192 439 183 Q 448 174 448 160 L 448 96 L 448 96 Q 447 55 420 28 Q 393 1 352 0 L 96 0 L 96 0 Q 55 1 28 28 Q 1 55 0 96 L 0 160 L 0 160 Q 0 174 9 183 Q 18 192 32 192 Q 46 192 55 183 Q 64 174 64 160 L 64 160 Z" />
</svg>