<svg xmlns="http://www.w3.org/2000/svg" viewBox="0 0 512 512">
  <path d="M 94.933334 199.46666 Q 107.73333 163.2 135.46666 135.46666 Q 187.73334 85.333336 256 85.333336 Q 324.26666 85.333336 376.53333 135.46666 L 394.66666 153.6 L 341.33334 153.6 Q 326.4 153.6 316.8 163.2 Q 307.2 172.8 307.2 187.73334 Q 307.2 202.66667 316.8 212.26666 Q 326.4 221.86667 341.33334 221.86667 L 477.86667 221.86667 Q 477.86667 221.86667 477.86667 221.86667 Q 477.86667 221.86667 477.86667 221.86667 L 477.86667 221.86667 Q 492.8 221.86667 502.4 212.26666 Q 512 202.66667 512 187.73334 L 512 51.2 Q 512 36.266666 502.4 26.666666 Q 492.8 17.066668 477.86667 17.066668 Q 462.93332 17.066668 453.33334 26.666666 Q 443.73334 36.266666 443.73334 51.2 L 443.73334 105.6 L 424.53333 87.46667 Q 377.6 40.533333 316.8 24.533333 Q 256 9.6 195.2 24.533333 Q 134.4 40.533333 87.46667 87.46667 Q 48 126.933334 30.933332 176 Q 26.666666 189.86667 32 202.66667 Q 38.4 214.4 51.2 219.73334 Q 65.066666 224 77.86667 218.66667 Q 89.6 212.26666 94.933334 199.46666 L 94.933334 199.46666 Z M 24.533333 291.2 Q 16 294.4 9.6 300.8 Q 3.2 307.2 1.0666667 315.73334 Q 1.0666667 316.8 0 318.93332 Q 0 322.13333 0 324.26666 L 0 460.8 Q 0 475.73334 9.6 485.33334 Q 19.2 494.93332 34.133335 494.93332 Q 49.066666 494.93332 58.666668 485.33334 Q 68.26667 475.73334 68.26667 460.8 L 68.26667 406.4 L 87.46667 424.53333 L 87.46667 424.53333 Q 134.4 471.46667 195.2 487.46667 Q 256 502.4 316.8 487.46667 Q 377.6 471.46667 424.53333 424.53333 Q 464 385.06668 481.06668 336 Q 485.33334 322.13333 480 309.33334 Q 473.6 297.6 460.8 292.26666 Q 446.93332 288 434.13333 293.33334 Q 422.4 299.73334 417.06668 312.53333 Q 404.26666 348.8 376.53333 376.53333 Q 324.26666 426.66666 256 426.66666 Q 187.73334 426.66666 135.46666 376.53333 L 135.46666 376.53333 L 117.333336 358.4 L 170.66667 358.4 Q 185.6 358.4 195.2 348.8 Q 204.8 339.2 204.8 324.26666 Q 204.8 309.33334 195.2 299.73334 Q 185.6 290.13333 170.66667 290.13333 L 34.133335 290.13333 Q 32 290.13333 29.866667 290.13333 Q 26.666666 291.2 24.533333 291.2 L 24.533333 291.2 Z" />
</svg>