<svg xmlns="http://www.w3.org/2000/svg" viewBox="0 0 512 512">
  <path d="M 317.71072 60.118195 L 189.51166 157.26283 Q 200.65941 159.65163 211.01088 166.81804 L 344.7838 268.74026 Q 360.70917 281.48056 363.89426 302.1835 L 369.4681 334.83047 L 485.72318 334.83047 Q 497.66718 334.83047 504.8336 326.07153 Q 512 317.3126 511.20374 305.3686 L 492.09332 177.96579 Q 490.50076 168.41057 481.74182 162.04044 L 347.9689 60.118195 Q 332.8398 49.76672 317.71072 60.118195 L 317.71072 60.118195 Z M 195.08554 187.521 Q 179.95645 176.37325 164.82738 187.521 L 31.054432 289.44324 Q 22.29549 295.01712 20.702955 305.3686 L 1.592535 432.7714 Q 0 444.7154 7.962675 453.47433 Q 15.129083 462.23328 27.073095 462.23328 L 179.95645 462.23328 L 179.95645 334.83047 L 256.39813 462.23328 L 332.8398 462.23328 Q 344.7838 462.23328 351.95023 453.47433 Q 359.11664 444.7154 358.32037 432.7714 L 339.20996 305.3686 Q 337.61743 295.8134 328.8585 289.44324 L 195.08554 187.521 L 195.08554 187.521 Z" />
</svg>