<svg xmlns="http://www.w3.org/2000/svg" viewBox="0 0 512 512">
  <path d="M 51.2 64 Q 29.6 64.8 15.2 79.2 L 15.2 79.2 Q 0.8 93.6 0 115.2 L 0 371.2 Q 0.8 392.8 15.2 407.2 Q 29.6 421.6 51.2 422.4 L 270.4 422.4 Q 232 379.2 230.4 318.4 Q 230.4 296.8 239.2 275.2 Q 247.2 252.8 260 232.8 Q 287.2 189.6 330.4 150.4 Q 342.4 140 358.4 140.8 L 358.4 115.2 Q 357.6 93.6 343.2 79.2 Q 328.8 64.8 307.2 64 L 51.2 64 L 51.2 64 Z M 89.6 134.4 L 89.6 249.6 Q 88 267.2 70.4 268.8 Q 52.8 267.2 51.2 249.6 L 51.2 134.4 Q 52.8 116.8 70.4 115.2 Q 88 116.8 89.6 134.4 L 89.6 134.4 Z M 166.4 134.4 L 166.4 249.6 Q 164.8 267.2 147.2 268.8 Q 129.6 267.2 128 249.6 L 128 134.4 Q 129.6 116.8 147.2 115.2 Q 164.8 116.8 166.4 134.4 L 166.4 134.4 Z M 363.2 169.6 Q 359.2 166.4 355.2 166.4 Q 350.4 166.4 347.2 169.6 Q 306.4 205.6 281.6 245.6 Q 256.8 286.4 256 320 Q 257.6 374.4 292.8 410.4 Q 328.8 446.4 384 448 Q 438.4 446.4 474.4 410.4 Q 510.4 374.4 512 320 Q 512 307.2 506.4 290.4 Q 501.6 273.6 492.8 256.8 Q 474.4 220.8 444 192 Q 436 185.6 428 192 Q 416.8 203.2 407.2 215.2 Q 386.4 190.4 362.4 169.6 L 363.2 169.6 Z M 424 384.8 Q 406.4 396.8 384.8 396.8 Q 356.8 396.8 339.2 380 Q 320.8 364 320 334.4 Q 320 320 328.8 305.6 Q 338.4 290.4 356 268.8 Q 358.4 272 369.6 286.4 Q 381.6 300.8 392.8 315.2 Q 404 329.6 405.6 332 Q 405.6 332 405.6 332 L 434.4 298.4 Q 437.6 303.2 440 308 Q 450.4 328.8 446.4 349.6 Q 442.4 371.2 424 384.8 L 424 384.8 Z" />
</svg>