<svg xmlns="http://www.w3.org/2000/svg" viewBox="0 0 480 462">
  <path d="M 127 118 Q 101 145 89 178 Q 84 190 73 196 Q 61 201 48 197 Q 36 192 30 181 Q 25 169 29 156 Q 45 110 82 73 Q 126 29 183 14 Q 239 0 296 14 Q 353 28 397 72 L 439 30 L 439 30 Q 451 19 465 25 Q 479 31 480 47 L 480 175 L 480 175 Q 478 197 456 199 L 448 199 L 448 199 Q 448 199 448 199 Q 448 199 448 199 L 328 199 L 328 199 Q 312 198 306 184 Q 300 170 311 158 L 352 117 L 352 117 Q 303 71 239 71 Q 176 71 127 118 L 127 118 Z M 0 287 Q 2 265 24 263 L 32 263 L 32 263 L 32 263 L 32 263 L 152 263 L 152 263 Q 168 264 174 278 Q 180 292 169 304 L 128 345 L 128 345 Q 177 391 241 391 Q 304 391 353 344 Q 379 317 391 284 Q 396 272 407 266 Q 419 261 432 265 Q 444 270 450 281 Q 456 293 451 306 Q 435 352 398 389 Q 354 433 297 448 Q 241 462 184 448 Q 127 434 83 390 L 41 432 L 41 432 Q 29 443 15 437 Q 1 431 0 415 L 0 295 L 0 295 L 0 295 L 0 295 L 0 287 L 0 287 Z" />
</svg>