<svg xmlns="http://www.w3.org/2000/svg" viewBox="0 0 640 480">
  <path d="M 0 96 L 0 320 L 0 96 L 0 320 Q 1 374 37 411 Q 74 447 128 448 L 338 448 L 338 448 Q 313 420 300 384 L 128 384 L 128 384 Q 101 383 83 365 Q 65 347 64 320 Q 65 293 83 275 Q 101 257 128 256 L 302 256 L 302 256 Q 311 233 325 211 Q 358 157 412 108 Q 428 95 448 96 L 448 96 L 448 96 Q 447 55 420 28 Q 393 1 352 0 L 96 0 L 96 0 Q 55 1 28 28 Q 1 55 0 96 L 0 96 Z M 288 318 Q 288 303 292 288 L 128 288 L 128 288 Q 114 288 105 297 Q 96 306 96 320 Q 96 334 105 343 Q 114 352 128 352 L 291 352 L 291 352 Q 288 335 288 318 L 288 318 Z M 506 176 L 487 156 L 506 176 L 487 156 Q 485 155 484 153 Q 482 151 481 150 Q 481 150 481 150 Q 481 150 481 150 Q 481 149 480 149 Q 468 131 448 128 Q 437 128 428 136 Q 390 168 357 216 Q 323 263 320 320 Q 322 388 366 433 Q 411 478 480 480 Q 548 478 593 433 Q 638 388 640 320 Q 638 274 614 232 Q 590 190 559 162 Q 550 154 539 154 Q 527 154 518 163 L 506 176 L 506 176 Z M 544 368 Q 543 395 525 413 L 525 413 L 525 413 Q 507 432 480 432 Q 453 432 435 413 Q 417 395 416 368 Q 418 340 437 316 Q 456 292 471 280 Q 480 273 489 280 Q 504 292 523 316 Q 542 340 544 368 L 544 368 Z" />
</svg>