<svg xmlns="http://www.w3.org/2000/svg" viewBox="0 0 448 468">
  <path d="M 224 104 Q 195 103 179 78 Q 165 52 179 26 Q 195 1 224 0 Q 253 1 269 26 Q 283 52 269 78 Q 253 103 224 104 L 224 104 Z M 224 468 Q 210 468 201 459 L 201 459 L 201 459 Q 192 450 192 436 Q 192 422 201 413 Q 210 404 224 404 Q 238 404 247 413 Q 256 422 256 436 Q 256 450 247 459 Q 238 468 224 468 L 224 468 Z M 416 276 Q 402 276 393 267 L 393 267 L 393 267 Q 384 258 384 244 Q 384 230 393 221 Q 402 212 416 212 Q 430 212 439 221 Q 448 230 448 244 Q 448 258 439 267 Q 430 276 416 276 L 416 276 Z M 0 244 Q 0 230 9 221 L 9 221 L 9 221 Q 18 212 32 212 Q 46 212 55 221 Q 64 230 64 244 Q 64 258 55 267 Q 46 276 32 276 Q 18 276 9 267 Q 0 258 0 244 L 0 244 Z M 399 148 Q 376 170 345 162 Q 315 153 306 123 Q 298 92 320 69 Q 343 47 374 54 Q 405 63 414 94 Q 421 125 399 148 L 399 148 Z M 66 402 Q 56 393 56 380 L 56 380 L 56 380 Q 56 367 66 357 Q 75 348 88 348 Q 101 348 111 357 Q 120 367 120 380 Q 120 393 111 402 Q 101 412 88 412 Q 75 412 66 402 L 66 402 Z M 337 402 Q 328 393 328 380 L 328 380 L 328 380 Q 328 367 337 357 Q 347 348 360 348 Q 373 348 382 357 Q 392 367 392 380 Q 392 393 382 402 Q 373 412 360 412 Q 347 412 337 402 L 337 402 Z M 54 74 Q 74 56 101 62 Q 127 70 135 96 Q 141 122 122 142 Q 102 161 76 155 Q 50 147 42 121 Q 36 94 54 74 L 54 74 Z" />
</svg>