<svg xmlns="http://www.w3.org/2000/svg" viewBox="0 0 512 448">
  <path d="M 9 247 Q 0 237 0 224 L 0 224 L 0 224 Q 0 211 9 201 L 137 73 L 137 73 Q 147 64 160 64 Q 173 64 183 73 Q 192 83 192 96 Q 192 109 183 119 L 109 192 L 109 192 L 320 192 L 320 192 Q 334 192 343 201 Q 352 210 352 224 Q 352 238 343 247 Q 334 256 320 256 L 109 256 L 109 256 L 183 329 L 183 329 Q 192 339 192 352 Q 192 365 183 375 Q 173 384 160 384 Q 147 384 137 375 L 9 247 L 9 247 Z M 352 64 Q 338 64 329 55 L 329 55 L 329 55 Q 320 46 320 32 Q 320 18 329 9 Q 338 0 352 0 L 416 0 L 416 0 Q 457 1 484 28 Q 511 55 512 96 L 512 352 L 512 352 Q 511 393 484 420 Q 457 447 416 448 L 352 448 L 352 448 Q 338 448 329 439 Q 320 430 320 416 Q 320 402 329 393 Q 338 384 352 384 L 416 384 L 416 384 Q 430 384 439 375 Q 448 366 448 352 L 448 96 L 448 96 Q 448 82 439 73 Q 430 64 416 64 L 352 64 L 352 64 Z" />
</svg>