<svg xmlns="http://www.w3.org/2000/svg" viewBox="0 0 512 512">
  <path d="M 256 0 Q 186 1 128 34 L 128 34 L 128 34 Q 70 68 34 128 Q 0 189 0 256 Q 0 323 34 384 Q 70 444 128 478 Q 186 511 256 512 Q 326 511 384 478 Q 442 444 478 384 Q 512 323 512 256 Q 512 189 478 128 Q 442 68 384 34 Q 326 1 256 0 L 256 0 Z M 245 395 L 133 283 L 245 395 L 133 283 Q 126 276 129 266 Q 134 257 144 256 L 208 256 L 208 256 L 208 160 L 208 160 Q 208 146 217 137 Q 226 128 240 128 L 272 128 L 272 128 Q 286 128 295 137 Q 304 146 304 160 L 304 256 L 304 256 L 368 256 L 368 256 Q 378 256 383 266 Q 386 276 379 283 L 267 395 L 267 395 Q 256 405 245 395 L 245 395 Z" />
</svg>