<svg xmlns="http://www.w3.org/2000/svg" viewBox="0 0 256 512">
  <path d="M 88 0 L 168 0 L 88 0 L 168 0 Q 190 2 192 24 L 192 64 L 192 64 L 64 64 L 64 64 L 64 24 L 64 24 Q 66 2 88 0 L 88 0 Z M 0 168 Q 1 137 27 120 L 42 110 L 42 110 Q 64 96 90 96 L 166 96 L 166 96 Q 192 96 214 110 L 229 120 L 229 120 Q 255 137 256 168 Q 255 194 237 210 Q 255 228 256 256 Q 255 286 234 304 Q 255 322 256 352 Q 255 382 234 400 Q 255 418 256 448 Q 255 475 237 493 Q 219 511 192 512 L 64 512 L 64 512 Q 37 511 19 493 Q 1 475 0 448 Q 1 418 22 400 Q 1 382 0 352 Q 1 322 22 304 Q 1 286 0 256 Q 1 228 19 210 Q 1 194 0 168 L 0 168 Z M 64 240 Q 65 255 80 256 L 176 256 L 176 256 Q 191 255 192 240 Q 191 225 176 224 L 80 224 L 80 224 Q 65 225 64 240 L 64 240 Z M 80 352 Q 65 353 64 368 Q 65 383 80 384 L 176 384 L 176 384 Q 191 383 192 368 Q 191 353 176 352 L 80 352 L 80 352 Z" />
</svg>