<svg xmlns="http://www.w3.org/2000/svg" viewBox="0 0 512 448">
  <path d="M 294 74 L 171 197 L 294 74 L 171 197 Q 160 208 160 224 Q 160 240 171 251 L 294 374 L 294 374 Q 304 384 318 384 Q 332 384 342 374 Q 352 364 352 350 L 352 288 L 352 288 L 480 288 L 480 288 Q 494 288 503 279 Q 512 270 512 256 L 512 192 L 512 192 Q 512 178 503 169 Q 494 160 480 160 L 352 160 L 352 160 L 352 98 L 352 98 Q 352 84 342 74 Q 332 64 318 64 Q 304 64 294 74 L 294 74 Z M 160 384 L 96 384 L 160 384 L 96 384 Q 82 384 73 375 Q 64 366 64 352 L 64 96 L 64 96 Q 64 82 73 73 Q 82 64 96 64 L 160 64 L 160 64 Q 174 64 183 55 Q 192 46 192 32 Q 192 18 183 9 Q 174 0 160 0 L 96 0 L 96 0 Q 55 1 28 28 Q 1 55 0 96 L 0 352 L 0 352 Q 1 393 28 420 Q 55 447 96 448 L 160 448 L 160 448 Q 174 448 183 439 Q 192 430 192 416 Q 192 402 183 393 Q 174 384 160 384 L 160 384 Z" />
</svg>