<svg xmlns="http://www.w3.org/2000/svg" viewBox="0 0 640 512">
  <path d="M 105 9 Q 115 0 128 0 L 128 0 L 128 0 Q 141 0 151 9 L 247 105 L 247 105 Q 256 115 256 128 Q 256 141 247 151 Q 237 160 224 160 Q 211 160 201 151 L 160 109 L 160 109 L 160 352 L 160 352 Q 161 379 179 397 Q 197 415 224 416 Q 251 415 269 397 Q 287 379 288 352 L 288 160 L 288 160 Q 289 106 325 69 Q 362 33 416 32 Q 470 33 507 69 Q 543 106 544 160 L 544 403 L 544 403 L 585 361 L 585 361 Q 595 352 608 352 Q 621 352 631 361 Q 640 371 640 384 Q 640 397 631 407 L 535 503 L 535 503 Q 525 512 512 512 Q 499 512 489 503 L 393 407 L 393 407 Q 384 397 384 384 Q 384 371 393 361 Q 403 352 416 352 Q 429 352 439 361 L 480 403 L 480 403 L 480 160 L 480 160 Q 479 133 461 115 Q 443 97 416 96 Q 389 97 371 115 Q 353 133 352 160 L 352 352 L 352 352 Q 351 406 315 443 Q 278 479 224 480 Q 170 479 133 443 Q 97 406 96 352 L 96 109 L 96 109 L 55 151 L 55 151 Q 45 160 32 160 Q 19 160 9 151 Q 0 141 0 128 Q 0 115 9 105 L 105 9 L 105 9 Z" />
</svg>