<svg xmlns="http://www.w3.org/2000/svg" viewBox="0 0 641 513">
  <path d="M 288 351 L 288 353 L 288 351 L 288 353 L 256 353 L 256 353 Q 242 353 233 362 Q 224 371 224 385 L 224 449 L 224 449 L 224 473 L 224 473 Q 224 490 212 501 Q 201 513 184 513 L 160 513 L 128 513 Q 127 513 126 513 Q 125 513 124 513 Q 122 513 120 513 L 104 513 L 104 513 Q 87 513 76 501 Q 64 490 64 473 L 64 361 L 64 361 Q 64 360 64 358 L 64 289 L 64 289 L 32 289 L 32 289 Q 18 288 9 279 Q 0 270 0 256 Q 0 243 10 232 L 266 9 L 266 9 Q 277 0 288 1 Q 300 1 309 8 L 447 129 L 447 129 Q 428 128 413 141 Q 359 190 325 244 Q 309 269 299 297 Q 288 324 288 351 L 288 351 Z M 480 513 Q 412 511 367 466 L 367 466 L 367 466 Q 322 421 320 353 Q 323 295 357 248 Q 391 200 427 174 Q 435 168 444 168 Q 456 168 466 177 L 512 223 L 512 223 L 523 212 L 523 212 Q 533 203 544 202 Q 556 202 566 211 Q 609 255 625 292 Q 641 329 640 353 Q 638 421 593 466 Q 548 511 480 513 L 480 513 Z M 544 401 Q 542 373 523 349 L 523 349 L 523 349 Q 504 325 489 313 Q 480 306 471 313 Q 456 325 437 349 Q 418 373 416 401 Q 417 428 435 446 Q 453 465 480 465 Q 507 465 525 446 Q 543 428 544 401 L 544 401 Z" />
</svg>