<svg xmlns="http://www.w3.org/2000/svg" viewBox="0 0 640 480">
  <path d="M 64 0 Q 37 1 19 19 L 19 19 L 19 19 Q 1 37 0 64 L 0 384 L 0 384 Q 1 411 19 429 Q 37 447 64 448 L 338 448 L 338 448 Q 290 394 288 318 Q 288 291 299 264 Q 309 236 325 211 Q 359 157 413 108 Q 428 95 448 96 L 448 64 L 448 64 Q 447 37 429 19 Q 411 1 384 0 L 64 0 L 64 0 Z M 112 88 L 112 232 L 112 88 L 112 232 Q 110 254 88 256 Q 66 254 64 232 L 64 88 L 64 88 Q 66 66 88 64 Q 110 66 112 88 L 112 88 Z M 208 88 L 208 232 L 208 88 L 208 232 Q 206 254 184 256 Q 162 254 160 232 L 160 88 L 160 88 Q 162 66 184 64 Q 206 66 208 88 L 208 88 Z M 506 176 L 487 156 L 506 176 L 487 156 Q 485 155 484 153 Q 482 151 481 150 Q 481 150 481 150 Q 481 150 481 150 Q 481 149 480 149 Q 468 131 448 128 Q 437 128 428 135 Q 390 168 357 216 Q 323 263 320 320 Q 322 388 366 433 Q 411 478 480 480 Q 548 478 593 433 Q 638 388 640 320 Q 638 274 614 232 Q 590 190 559 161 Q 550 153 539 153 Q 527 153 518 162 L 506 176 L 506 176 Z M 544 368 Q 543 395 525 413 L 525 413 L 525 413 Q 507 431 480 432 Q 453 431 435 413 Q 417 395 416 368 Q 418 340 437 316 Q 456 292 471 280 Q 480 273 489 280 Q 504 292 523 316 Q 542 340 544 368 L 544 368 Z" />
</svg>