<svg xmlns="http://www.w3.org/2000/svg" viewBox="0 0 448 512">
  <path d="M 304 128 Q 304 111 297 96 L 296 96 L 296 96 Q 264 95 246 72 Q 223 110 176 112 L 146 112 L 146 112 Q 144 120 144 128 L 144 144 L 144 144 Q 145 178 167 201 Q 190 223 224 224 Q 258 223 281 201 Q 303 178 304 144 L 304 128 L 304 128 Z M 96 128 Q 97 74 133 37 L 133 37 L 133 37 Q 170 1 224 0 Q 278 1 315 37 Q 351 74 352 128 L 352 139 L 352 139 Q 353 192 390 230 L 393 233 L 393 233 Q 400 240 400 249 Q 398 270 377 272 L 224 272 L 71 272 Q 50 270 48 249 Q 48 240 55 233 L 59 230 L 59 230 Q 95 192 96 139 L 96 128 L 96 128 Z M 280 512 L 168 512 L 280 512 L 163 512 Q 163 512 162 512 Q 162 512 162 512 L 31 512 L 31 512 Q 18 512 9 503 Q 0 494 0 481 Q 1 424 35 381 Q 68 339 122 325 Q 135 323 140 336 L 176 483 L 176 483 L 209 359 L 209 359 L 191 328 L 191 328 Q 186 320 190 312 Q 195 305 204 304 L 224 304 L 244 304 Q 253 305 258 312 Q 262 320 257 328 L 239 359 L 239 359 L 272 483 L 272 483 L 308 336 L 308 336 Q 313 323 326 325 Q 380 339 413 381 Q 447 424 448 481 Q 448 494 439 503 Q 430 512 417 512 L 286 512 L 286 512 Q 286 512 286 512 Q 286 512 285 512 L 280 512 L 280 512 Z" />
</svg>