<svg xmlns="http://www.w3.org/2000/svg" viewBox="0 0 640 512">
  <path d="M 320 0 Q 356 1 375 32 Q 393 64 375 96 Q 356 127 320 128 Q 284 127 265 96 Q 247 64 265 32 Q 284 1 320 0 L 320 0 Z M 304 160 L 336 160 L 304 160 L 336 160 Q 358 160 374 173 Q 391 185 397 206 L 436 343 L 436 343 Q 440 359 431 371 Q 422 383 406 384 L 384 384 L 384 384 L 384 464 L 384 464 Q 383 484 370 498 Q 356 511 336 512 L 304 512 L 304 512 Q 284 511 270 498 Q 257 484 256 464 L 256 384 L 256 384 L 234 384 L 234 384 Q 218 383 209 371 Q 200 359 204 343 L 243 206 L 243 206 Q 249 185 266 173 Q 282 160 304 160 L 304 160 Z M 32 32 Q 101 33 159 61 L 159 61 L 159 61 Q 217 90 257 140 Q 224 159 212 198 L 173 334 L 173 334 Q 166 363 181 387 Q 196 410 224 415 L 224 447 L 224 447 Q 175 479 112 480 L 96 480 L 96 480 Q 82 480 73 471 Q 64 462 64 448 Q 65 378 104 326 Q 56 288 28 233 Q 1 178 0 112 L 0 64 L 0 64 Q 0 50 9 41 Q 18 32 32 32 L 32 32 Z M 528 480 Q 465 479 416 447 L 416 415 L 416 415 Q 444 410 459 387 Q 474 364 467 335 L 428 198 L 428 198 Q 416 159 383 140 Q 423 90 481 61 Q 539 33 608 32 Q 622 32 631 41 Q 640 50 640 64 L 640 112 L 640 112 Q 639 178 612 233 Q 584 288 536 326 Q 575 378 576 448 Q 576 462 567 471 Q 558 480 544 480 L 528 480 L 528 480 Z" />
</svg>