<svg xmlns="http://www.w3.org/2000/svg" viewBox="0 0 512 512">
  <path d="M 40 76.8 Q 26.4 77.6 21.6 90.4 L 0.8 157.6 Q 0 160 0 162.4 Q 1.6 177.6 16.8 179.2 L 92 179.2 L 112.8 76.8 L 40 76.8 L 40 76.8 Z M 217.6 179.2 L 217.6 76.8 L 138.4 76.8 L 118.4 179.2 L 217.6 179.2 L 217.6 179.2 Z M 243.2 179.2 L 289.6 179.2 Q 308 157.6 330.4 137.6 Q 331.2 136 332.8 135.2 Q 333.6 134.4 333.6 134.4 L 322.4 76.8 L 243.2 76.8 L 243.2 179.2 L 243.2 179.2 Z M 411.2 160 Q 422.4 150.4 436 150.4 L 436 150.4 Q 449.6 150.4 460.8 159.2 Q 460 158.4 460 157.6 Q 460 157.6 460 157.6 L 439.2 90.4 Q 434.4 77.6 420.8 76.8 L 348.8 76.8 L 358.4 128 Q 370.4 129.6 380 137.6 Q 393.6 150.4 407.2 164 Q 408.8 162.4 411.2 160 L 411.2 160 Z M 260 220 Q 264.8 212 270.4 204.8 L 25.6 204.8 L 28.8 230.4 L 25.6 230.4 Q 14.4 230.4 7.2 237.6 Q 0 244.8 0 256 Q 0 267.2 7.2 274.4 Q 14.4 281.6 25.6 281.6 L 35.2 281.6 L 51.2 409.6 Q 51.2 420.8 58.4 428 Q 65.6 435.2 76.8 435.2 Q 88 435.2 95.2 428 Q 102.4 420.8 102.4 409.6 L 270.4 409.6 Q 232 366.4 230.4 305.6 Q 230.4 284 239.2 262.4 Q 247.2 240 260 220 L 260 220 Z M 363.2 156.8 Q 359.2 153.6 355.2 153.6 Q 350.4 153.6 347.2 156.8 Q 306.4 193.6 281.6 232.8 Q 256.8 273.6 256 307.2 Q 257.6 361.6 292.8 397.6 Q 328.8 433.6 384 435.2 Q 438.4 433.6 474.4 397.6 Q 510.4 361.6 512 307.2 Q 512 295.2 506.4 278.4 Q 501.6 261.6 492.8 244 Q 474.4 208 444 179.2 Q 436 172.8 428 179.2 Q 416.8 190.4 407.2 203.2 Q 386.4 178.4 362.4 156.8 L 363.2 156.8 Z M 424 372 Q 406.4 384 384.8 384 Q 356.8 384 339.2 367.2 Q 320.8 351.2 320 321.6 Q 320 308 328.8 292.8 Q 338.4 277.6 356 256 Q 358.4 259.2 370.4 274.4 Q 382.4 289.6 393.6 304 Q 404.8 318.4 405.6 319.2 L 434.4 285.6 Q 436 288 437.6 290.4 Q 439.2 292.8 440 295.2 Q 450.4 316 446.4 337.6 Q 442.4 358.4 424 372 L 424 372 Z" />
</svg>