<svg xmlns="http://www.w3.org/2000/svg" viewBox="0 0 640 512">
  <path d="M 320 0 Q 356 1 375 32 Q 393 64 375 96 Q 356 127 320 128 Q 284 127 265 96 Q 247 64 265 32 Q 284 1 320 0 L 320 0 Z M 298 160 L 342 160 L 298 160 L 342 160 Q 374 161 397 181 Q 419 202 422 233 L 426 283 L 426 283 Q 428 305 416 323 Q 404 341 384 348 L 384 464 L 384 464 Q 383 484 370 498 Q 356 511 336 512 L 304 512 L 304 512 Q 284 511 270 498 Q 257 484 256 464 L 256 348 L 256 348 Q 236 341 224 323 Q 212 305 214 283 L 218 233 L 218 233 Q 221 202 243 181 Q 266 161 298 160 L 298 160 Z M 32 32 Q 100 33 157 60 L 157 60 L 157 60 Q 214 88 254 137 Q 226 149 207 174 Q 189 198 186 231 L 182 280 L 182 280 Q 180 307 191 330 Q 203 353 224 368 L 224 447 L 224 447 Q 175 479 112 480 L 96 480 L 96 480 Q 82 480 73 471 Q 64 462 64 448 Q 65 378 104 326 Q 56 288 28 233 Q 1 178 0 112 L 0 64 L 0 64 Q 0 50 9 41 Q 18 32 32 32 L 32 32 Z M 528 480 Q 465 479 416 447 L 416 368 L 416 368 Q 437 353 449 330 Q 460 307 458 280 L 454 231 L 454 231 Q 451 198 433 174 Q 414 149 386 137 Q 426 88 483 60 Q 540 33 608 32 Q 622 32 631 41 Q 640 50 640 64 L 640 112 L 640 112 Q 639 178 612 233 Q 584 288 536 326 Q 575 378 576 448 Q 576 462 567 471 Q 558 480 544 480 L 528 480 L 528 480 Z" />
</svg>