<svg xmlns="http://www.w3.org/2000/svg" viewBox="0 0 355 512">
  <path d="M 5 335 Q 0 349 10 361 L 146 505 L 146 505 Q 153 512 163 512 Q 173 512 180 505 L 316 361 L 316 361 Q 326 349 321 335 Q 314 321 299 320 L 211 320 L 211 320 L 211 128 L 211 128 Q 211 114 220 105 Q 229 96 243 96 L 323 96 L 323 96 Q 337 96 346 87 Q 355 78 355 64 L 355 32 L 355 32 Q 355 18 346 9 Q 337 0 323 0 L 243 0 L 243 0 Q 189 1 152 37 Q 116 74 115 128 L 115 320 L 115 320 L 27 320 L 27 320 Q 12 321 5 335 L 5 335 Z" />
</svg>