<svg xmlns="http://www.w3.org/2000/svg" viewBox="0 0 640 505">
  <path d="M 196 130 Q 174 106 174 76 L 174 76 L 174 76 Q 174 45 196 22 Q 219 0 249 0 Q 279 0 302 22 L 320 40 L 320 40 L 338 22 L 338 22 Q 361 0 391 0 Q 421 0 444 22 Q 466 45 466 76 Q 466 106 444 130 L 343 233 L 343 233 Q 333 243 320 243 Q 307 243 298 233 L 196 130 L 196 130 Z M 40 57 Q 57 57 68 69 L 68 69 L 68 69 Q 80 80 80 97 L 80 137 L 80 137 L 80 217 L 80 217 L 80 257 L 80 257 Q 80 284 99 303 L 150 354 L 150 354 Q 164 366 181 357 Q 191 350 192 339 Q 193 328 184 319 L 169 304 L 169 304 L 137 272 L 137 272 Q 128 262 128 249 Q 128 236 137 226 Q 147 217 160 217 Q 173 217 183 226 L 215 258 L 215 258 L 230 274 L 230 274 Q 230 274 230 274 Q 230 274 230 274 L 255 299 L 255 299 Q 287 332 288 378 L 288 457 L 288 457 Q 287 477 274 491 Q 260 504 240 505 L 173 505 L 173 505 Q 147 505 128 486 L 28 386 L 28 386 Q 1 358 0 319 L 0 217 L 0 217 L 0 153 L 0 153 L 0 97 L 0 97 Q 0 80 12 69 Q 23 57 40 57 L 40 57 Z M 600 57 Q 617 57 628 69 L 628 69 L 628 69 Q 640 80 640 97 L 640 153 L 640 153 L 640 217 L 640 217 L 640 319 L 640 319 Q 639 358 612 386 L 512 486 L 512 486 Q 493 505 467 505 L 400 505 L 400 505 Q 380 504 366 491 Q 353 477 352 457 L 352 378 L 352 378 Q 353 332 385 299 L 410 274 L 410 274 Q 410 274 410 274 Q 410 274 410 274 L 425 258 L 425 258 L 457 226 L 457 226 Q 467 217 480 217 Q 493 217 503 226 Q 512 236 512 249 Q 512 262 503 272 L 471 304 L 471 304 L 455 319 L 455 319 Q 447 328 448 339 Q 449 350 459 357 Q 476 366 490 354 L 541 303 L 541 303 Q 560 284 560 257 L 560 217 L 560 217 L 560 137 L 560 137 L 560 97 L 560 97 Q 560 80 572 69 Q 583 57 600 57 L 600 57 Z" />
</svg>