<svg xmlns="http://www.w3.org/2000/svg" viewBox="0 0 384 448">
  <path d="M 38 153 L 167 11 L 38 153 L 167 11 Q 176 0 190 0 L 194 0 L 194 0 Q 208 0 218 11 L 346 153 L 346 153 Q 352 160 352 169 Q 350 190 329 192 L 256 192 L 256 192 L 256 320 L 256 320 Q 256 334 247 343 Q 238 352 224 352 L 160 352 L 160 352 Q 146 352 137 343 Q 128 334 128 320 L 128 192 L 128 192 L 55 192 L 55 192 Q 34 190 32 169 Q 32 160 38 153 L 38 153 Z M 32 384 L 352 384 L 32 384 L 352 384 Q 366 384 375 393 Q 384 402 384 416 Q 384 430 375 439 Q 366 448 352 448 L 32 448 L 32 448 Q 18 448 9 439 Q 0 430 0 416 Q 0 402 9 393 Q 18 384 32 384 L 32 384 Z" />
</svg>