<svg xmlns="http://www.w3.org/2000/svg" viewBox="0 0 647 519">
  <path d="M 48 0 Q 28 1 14 14 L 14 14 L 14 14 Q 1 28 0 48 L 0 464 L 0 464 Q 1 484 14 498 Q 28 511 48 512 L 144 512 L 144 512 L 144 432 L 144 432 Q 145 412 158 398 Q 172 385 192 384 Q 212 385 226 398 Q 239 412 240 432 L 240 512 L 240 512 L 336 512 L 336 512 Q 356 512 369 499 Q 382 486 384 467 Q 341 447 315 409 Q 289 370 288 320 Q 288 303 291 288 L 272 288 L 272 288 Q 257 287 256 272 L 256 240 L 256 240 Q 257 225 272 224 L 304 224 L 304 224 Q 311 224 316 230 Q 342 192 384 173 L 384 48 L 384 48 Q 383 28 370 14 Q 356 1 336 0 L 48 0 L 48 0 Z M 64 240 Q 65 225 80 224 L 112 224 L 112 224 Q 127 225 128 240 L 128 272 L 128 272 Q 127 287 112 288 L 80 288 L 80 288 Q 65 287 64 272 L 64 240 L 64 240 Z M 176 224 L 208 224 L 176 224 L 208 224 Q 223 225 224 240 L 224 272 L 224 272 Q 223 287 208 288 L 176 288 L 176 288 Q 161 287 160 272 L 160 240 L 160 240 Q 161 225 176 224 L 176 224 Z M 80 96 L 112 96 L 80 96 L 112 96 Q 127 97 128 112 L 128 144 L 128 144 Q 127 159 112 160 L 80 160 L 80 160 Q 65 159 64 144 L 64 112 L 64 112 Q 65 97 80 96 L 80 96 Z M 160 112 Q 161 97 176 96 L 208 96 L 208 96 Q 223 97 224 112 L 224 144 L 224 144 Q 223 159 208 160 L 176 160 L 176 160 Q 161 159 160 144 L 160 112 L 160 112 Z M 272 96 L 304 96 L 272 96 L 304 96 Q 319 97 320 112 L 320 144 L 320 144 Q 319 159 304 160 L 272 160 L 272 160 Q 257 159 256 144 L 256 112 L 256 112 Q 257 97 272 96 L 272 96 Z M 448 240 Q 493 242 517 280 Q 539 320 517 360 Q 493 399 448 400 Q 403 399 379 360 Q 357 320 379 280 Q 403 242 448 240 L 448 240 Z M 448 448 Q 489 447 520 426 L 599 505 L 599 505 Q 616 519 633 505 Q 647 488 633 471 L 554 392 L 554 392 Q 575 361 576 320 Q 575 266 538 230 Q 502 194 448 192 Q 394 194 357 230 Q 321 266 320 320 Q 321 375 357 411 Q 394 447 448 448 L 448 448 Z" />
</svg>