<svg xmlns="http://www.w3.org/2000/svg" viewBox="0 0 643 518">
  <path d="M 399 13 L 238 135 L 399 13 L 238 135 Q 252 138 265 147 L 433 275 L 433 275 Q 453 291 457 317 L 464 358 L 464 358 L 610 358 L 610 358 Q 625 358 634 347 Q 643 336 642 321 L 618 161 L 618 161 Q 616 149 605 141 L 437 13 L 437 13 Q 418 0 399 13 L 399 13 Z M 245 173 Q 226 159 207 173 L 39 301 L 39 301 Q 28 308 26 321 L 2 481 L 2 481 Q 0 496 10 507 Q 19 518 34 518 L 178 518 L 194 518 Q 208 518 217 509 Q 226 500 226 486 L 226 368 L 226 368 Q 227 359 236 358 Q 242 358 245 364 L 313 500 L 313 500 Q 322 517 342 518 L 402 518 L 418 518 Q 432 518 442 507 Q 451 496 450 481 L 426 321 L 426 321 Q 423 309 413 301 L 245 173 L 245 173 Z" />
</svg>