<svg xmlns="http://www.w3.org/2000/svg" viewBox="0 0 512 512">
  <path d="M 421.81818 21.333334 Q 436.36365 7.757576 455.75757 7.757576 L 455.75757 7.757576 Q 475.15152 7.757576 489.69696 22.30303 Q 504.24243 36.848484 504.24243 56.242424 Q 504.24243 75.63636 490.66666 90.181816 Q 479.0303 99.878784 453.81818 106.666664 Q 428.60605 113.454544 409.21213 115.393936 Q 408.24243 115.393936 407.27274 115.393936 Q 406.30304 116.36364 405.33334 116.36364 Q 396.60605 116.36364 395.63635 108.606064 Q 395.63635 107.63636 395.63635 106.666664 Q 398.54544 88.242424 404.36365 61.090908 Q 404.36365 60.121212 405.33334 59.151516 Q 405.33334 58.18182 405.33334 57.21212 Q 411.15152 32.969696 421.81818 21.333334 L 421.81818 21.333334 Z M 378.18182 39.757576 Q 376.24243 46.545456 374.30304 54.303032 Q 367.51514 83.393936 364.60605 102.78788 Q 362.66666 123.15151 376.24243 135.75757 Q 388.84848 149.33333 409.21213 147.39394 Q 428.60605 144.48485 457.69696 137.69698 Q 464.48486 135.75757 472.24243 133.81818 Q 512 206.54546 502.30304 288 Q 491.63635 368.48486 431.51514 431.51514 Q 368.48486 491.63635 288 502.30304 Q 206.54546 512 133.81818 472.24243 Q 135.75757 465.45456 137.69698 458.66666 Q 144.48485 428.60605 146.42424 409.21213 Q 149.33333 388.84848 135.75757 376.24243 Q 123.15151 362.66666 102.78788 364.60605 Q 83.393936 367.51514 53.333332 374.30304 Q 46.545456 376.24243 39.757576 378.18182 Q 0 305.45456 9.69697 224 Q 20.363636 143.51515 80.48485 80.48485 Q 143.51515 20.363636 224 9.69697 Q 305.45456 0 378.18182 39.757576 L 378.18182 39.757576 Z M 58.18182 405.33334 Q 87.27273 398.54544 106.666664 395.63635 Q 107.63636 395.63635 107.63636 395.63635 Q 116.36364 396.60605 116.36364 405.33334 Q 113.454544 424.72726 106.666664 454.78787 Q 99.878784 479.0303 90.181816 490.66666 Q 75.63636 504.24243 56.242424 504.24243 Q 36.848484 504.24243 22.30303 489.69696 Q 7.757576 475.15152 7.757576 455.75757 Q 7.757576 436.36365 21.333334 421.81818 Q 32.969696 412.12122 58.18182 405.33334 L 58.18182 405.33334 Z M 412.12122 210.42424 Q 408.24243 201.69698 399.51514 201.69698 L 399.51514 201.69698 Q 390.78787 202.66667 385.9394 210.42424 Q 357.81818 262.78787 311.27274 311.27274 Q 262.78787 358.78787 210.42424 385.9394 Q 202.66667 390.78787 201.69698 399.51514 Q 201.69698 408.24243 210.42424 412.12122 Q 253.09091 428.60605 297.69696 419.87878 Q 342.30304 411.15152 377.21213 377.21213 Q 411.15152 342.30304 419.87878 297.69696 Q 428.60605 253.09091 412.12122 210.42424 L 412.12122 210.42424 Z M 92.121216 284.12122 Q 95.030304 287.0303 98.90909 288 L 154.18182 292.84848 L 159.0303 347.15152 Q 159.0303 351.0303 161.93939 353.9394 Q 166.78787 358.78787 172.60606 356.84848 Q 178.42424 355.87878 181.33333 349.0909 L 210.42424 255.0303 Q 212.36363 246.30302 206.54546 240.48485 Q 200.72728 234.66667 192 236.60606 L 96.969696 264.72726 Q 90.181816 267.63635 89.21212 273.45456 Q 87.27273 279.27274 92.121216 284.12122 L 92.121216 284.12122 Z M 264.72726 96.969696 L 236.60606 191.0303 Q 233.69698 200.72728 239.51515 206.54546 Q 245.33333 212.36363 255.0303 209.45454 L 349.0909 181.33333 Q 355.87878 178.42424 356.84848 172.60606 Q 358.78787 166.78787 353.9394 161.93939 Q 351.0303 159.0303 347.15152 159.0303 L 292.84848 153.21213 L 287.0303 98.90909 Q 287.0303 95.030304 284.12122 92.121216 Q 279.27274 87.27273 273.45456 89.21212 Q 267.63635 90.181816 264.72726 96.969696 L 264.72726 96.969696 Z" />
</svg>