<svg xmlns="http://www.w3.org/2000/svg" viewBox="0 0 512 419">
  <path d="M 178 5 Q 163 0 152 10 L 8 146 L 8 146 Q 0 153 0 163 Q 0 173 8 180 L 152 316 L 152 316 Q 163 326 178 321 Q 191 314 192 299 L 192 211 L 192 211 L 384 211 L 384 211 Q 398 211 407 220 Q 416 229 416 243 L 416 387 L 416 387 Q 416 401 425 410 Q 434 419 448 419 L 480 419 L 480 419 Q 494 419 503 410 Q 512 401 512 387 L 512 243 L 512 243 Q 511 189 475 152 Q 438 116 384 115 L 192 115 L 192 115 L 192 27 L 192 27 Q 191 12 178 5 L 178 5 Z" />
</svg>