<svg xmlns="http://www.w3.org/2000/svg" viewBox="0 0 512 512">
  <path d="M 483.55554 241.77777 Q 472.8889 240.88889 468.44446 231.11111 Q 442.66666 166.22223 386.66666 126.22222 Q 329.77777 86.22222 256 85.333336 Q 182.22223 86.22222 126.22222 126.22222 Q 69.333336 166.22223 43.555557 231.11111 Q 39.11111 240.88889 28.444445 241.77777 Q 16 241.77777 8 249.77777 Q 0 257.77777 0 270.22223 Q 0 281.77777 8 289.77777 Q 16 297.77777 27.555555 298.66666 Q 51.555557 296.8889 70.22222 286.22223 Q 80 280.8889 85.333336 277.33334 Q 87.111115 276.44446 88 275.55554 Q 88.888885 274.66666 89.77778 274.66666 Q 89.77778 273.77777 90.666664 273.77777 L 90.666664 273.77777 L 90.666664 273.77777 L 109.333336 273.77777 L 109.333336 273.77777 L 109.333336 273.77777 Q 109.333336 273.77777 109.333336 273.77777 Q 109.333336 274.66666 110.22222 274.66666 Q 110.22222 274.66666 110.22222 274.66666 Q 112 275.55554 113.77778 277.33334 Q 118.22222 280.8889 128 286.22223 Q 146.66667 296.8889 177.77777 298.66666 Q 208.88889 296.8889 227.55556 286.22223 Q 237.33333 280.8889 241.77777 277.33334 Q 244.44444 275.55554 245.33333 274.66666 Q 245.33333 274.66666 245.33333 274.66666 Q 246.22223 274.66666 246.22223 273.77777 Q 246.22223 273.77777 246.22223 273.77777 L 246.22223 273.77777 Q 256 266.66666 265.77777 273.77777 L 265.77777 273.77777 L 265.77777 273.77777 Q 265.77777 273.77777 265.77777 273.77777 Q 265.77777 274.66666 266.66666 274.66666 Q 266.66666 274.66666 266.66666 274.66666 Q 267.55554 275.55554 270.22223 277.33334 Q 274.66666 280.8889 284.44446 286.22223 Q 303.1111 296.8889 334.22223 298.66666 Q 364.44446 296.8889 384 286.22223 Q 392.8889 280.8889 398.22223 277.33334 Q 400 275.55554 401.77777 274.66666 Q 401.77777 274.66666 401.77777 274.66666 Q 401.77777 274.66666 402.66666 273.77777 Q 402.66666 273.77777 402.66666 273.77777 L 402.66666 273.77777 Q 411.55554 266.66666 421.33334 273.77777 L 421.33334 273.77777 L 421.33334 273.77777 L 421.33334 273.77777 L 421.33334 273.77777 L 421.33334 273.77777 L 421.33334 273.77777 L 421.33334 273.77777 Q 421.33334 273.77777 422.22223 274.66666 Q 423.1111 274.66666 423.1111 274.66666 Q 424.8889 275.55554 426.66666 277.33334 Q 432 280.8889 440.8889 286.22223 Q 460.44446 296.8889 484.44446 298.66666 Q 496 297.77777 504 289.77777 Q 511.1111 281.77777 512 270.22223 Q 511.1111 257.77777 503.1111 249.77777 Q 495.1111 241.77777 483.55554 241.77777 L 483.55554 241.77777 Z M 109.333336 273.77777 Q 99.55556 266.66666 90.666664 273.77777 L 90.666664 273.77777 L 109.333336 273.77777 Q 109.333336 273.77777 109.333336 273.77777 Q 109.333336 273.77777 109.333336 273.77777 L 109.333336 273.77777 Z M 72 387.55554 Q 78.22222 405.33334 93.333336 416 L 93.333336 416 Q 107.55556 426.66666 126.22222 426.66666 L 385.77777 426.66666 Q 404.44446 426.66666 418.66666 416 Q 433.77777 405.33334 440 387.55554 L 461.33334 323.55554 Q 441.77777 318.22223 428.44446 311.1111 Q 418.66666 305.77777 412.44446 302.22223 Q 407.1111 306.66666 397.33334 311.1111 Q 374.22223 325.33334 334.22223 327.1111 Q 294.22223 325.33334 271.1111 311.1111 Q 262.22223 306.66666 256 302.22223 Q 249.77777 306.66666 240.88889 311.1111 Q 217.77777 325.33334 177.77777 327.1111 Q 137.77777 325.33334 114.666664 311.1111 Q 105.77778 306.66666 99.55556 302.22223 Q 93.333336 306.66666 83.55556 311.1111 Q 70.22222 318.22223 50.666668 323.55554 L 72.888885 387.55554 L 72 387.55554 Z M 183.11111 162.66667 L 168.88889 191.11111 Q 161.77777 202.66667 150.22223 197.33333 Q 138.66667 191.11111 144 178.66667 L 158.22223 150.22223 Q 164.44444 138.66667 176.88889 144 Q 188.44444 150.22223 183.11111 162.66667 L 183.11111 162.66667 Z M 353.77777 150.22223 L 368 178.66667 Q 373.33334 191.11111 361.77777 197.33333 Q 349.33334 202.66667 343.1111 191.11111 L 328.8889 162.66667 Q 323.55554 151.11111 335.1111 144 Q 346.66666 138.66667 353.77777 150.22223 L 353.77777 150.22223 Z M 270.22223 156.44444 L 270.22223 184.88889 Q 269.33334 198.22223 256 199.11111 Q 242.66667 198.22223 241.77777 184.88889 L 241.77777 156.44444 Q 242.66667 143.11111 256 142.22223 Q 269.33334 143.11111 270.22223 156.44444 L 270.22223 156.44444 Z" />
</svg>