<svg xmlns="http://www.w3.org/2000/svg" viewBox="0 0 640 518">
  <path d="M 0 24 Q 2 2 24 0 L 70 0 L 70 0 Q 104 2 120 32 L 531 32 L 531 32 Q 551 33 563 48 Q 574 63 570 82 L 539 197 L 539 197 Q 518 192 496 192 Q 444 193 403 219 Q 362 245 339 288 L 171 288 L 171 288 L 176 317 L 176 317 Q 181 335 200 336 L 323 336 L 323 336 Q 320 352 320 368 Q 320 376 321 384 L 200 384 L 200 384 Q 173 384 154 367 Q 134 351 129 326 L 77 55 L 77 55 Q 76 48 70 48 L 24 48 L 24 48 Q 2 46 0 24 L 0 24 Z M 128 464 Q 129 437 152 422 Q 176 410 200 422 Q 223 437 224 464 Q 223 491 200 506 Q 176 518 152 506 Q 129 491 128 464 L 128 464 Z M 352 368 Q 352 329 371 296 L 371 296 L 371 296 Q 390 263 424 243 Q 458 224 496 224 Q 534 224 568 243 Q 602 263 621 296 Q 640 329 640 368 Q 640 407 621 440 Q 602 473 568 493 Q 534 512 496 512 Q 458 512 424 493 Q 390 473 371 440 Q 352 407 352 368 L 352 368 Z M 541 325 L 480 385 L 541 325 L 480 385 L 451 357 L 451 357 Q 440 347 429 357 Q 419 368 429 379 L 469 419 L 469 419 Q 480 429 491 419 L 563 347 L 563 347 Q 573 336 563 325 Q 552 315 541 325 L 541 325 Z" />
</svg>