<svg xmlns="http://www.w3.org/2000/svg" viewBox="0 0 448 512">
  <path d="M 70 153 L 199 11 L 70 153 L 199 11 Q 208 0 222 0 L 226 0 L 226 0 Q 240 0 250 11 L 378 153 L 378 153 Q 384 160 384 169 Q 382 190 361 192 L 288 192 L 288 192 L 288 320 L 288 320 Q 288 334 279 343 Q 270 352 256 352 L 192 352 L 192 352 Q 178 352 169 343 Q 160 334 160 320 L 160 192 L 160 192 L 87 192 L 87 192 Q 66 190 64 169 Q 64 160 70 153 L 70 153 Z M 64 352 L 64 416 L 64 352 L 64 416 Q 64 430 73 439 Q 82 448 96 448 L 352 448 L 352 448 Q 366 448 375 439 Q 384 430 384 416 L 384 352 L 384 352 Q 384 338 393 329 Q 402 320 416 320 Q 430 320 439 329 Q 448 338 448 352 L 448 416 L 448 416 Q 447 457 420 484 Q 393 511 352 512 L 96 512 L 96 512 Q 55 511 28 484 Q 1 457 0 416 L 0 352 L 0 352 Q 0 338 9 329 Q 18 320 32 320 Q 46 320 55 329 Q 64 338 64 352 L 64 352 Z" />
</svg>