<svg xmlns="http://www.w3.org/2000/svg" viewBox="0 0 512 512">
  <path d="M 0.99610895 63.750973 Q 1.9922179 36.85603 19.922178 18.92607 L 19.922178 18.92607 Q 37.85214 0.99610895 64.74708 0 L 447.25293 0 Q 474.14786 0.99610895 492.07782 18.92607 Q 510.00778 36.85603 511.0039 63.750973 L 511.0039 350.63034 Q 510.00778 377.5253 492.07782 395.45526 Q 474.14786 413.38522 447.25293 414.38132 L 308.79376 414.38132 L 186.27237 507.01947 Q 178.3035 512 169.33852 508.01556 Q 160.37354 504.03113 160.37354 494.07004 L 160.37354 414.38132 L 64.74708 414.38132 Q 37.85214 413.38522 19.922178 395.45526 Q 1.9922179 377.5253 0.99610895 350.63034 L 0.99610895 63.750973 L 0.99610895 63.750973 Z M 203.20622 144.43579 Q 193.24513 148.42023 192.24902 159.37743 L 192.24902 255.00389 Q 193.24513 269.94553 208.18677 270.94162 Q 223.1284 269.94553 224.12451 255.00389 L 224.12451 207.19066 L 243.05058 233.0895 Q 248.03113 239.06615 256 239.06615 Q 263.96887 239.06615 268.9494 233.0895 L 287.8755 207.19066 L 287.8755 255.00389 Q 288.87158 269.94553 303.81323 270.94162 Q 318.75485 269.94553 319.75098 255.00389 L 319.75098 159.37743 Q 318.75485 148.42023 308.79376 144.43579 Q 297.83658 141.44746 290.8638 149.41634 L 256 196.23346 L 221.13618 149.41634 Q 214.16342 141.44746 203.20622 144.43579 L 203.20622 144.43579 Z M 375.53308 182.28793 Q 375.53308 180.29572 375.53308 180.29572 Q 375.53308 180.29572 375.53308 180.29572 Q 376.52917 179.2996 378.5214 178.3035 Q 383.50195 175.31517 391.47083 175.31517 Q 400.4358 175.31517 411.393 178.3035 Q 425.33853 181.29182 430.31906 167.3463 Q 433.3074 153.40077 419.36188 148.42023 Q 406.41245 144.43579 391.47083 143.43968 Q 376.52917 143.43968 362.58365 151.40855 Q 345.6498 159.37743 343.6576 182.28793 Q 345.6498 204.20233 361.58755 212.1712 Q 373.54086 218.14786 384.49805 221.13618 Q 385.49417 221.13618 385.49417 221.13618 L 386.49026 222.1323 Q 399.4397 225.12062 404.42023 228.10895 Q 408.40466 231.09727 407.40857 232.09338 L 407.40857 232.09338 Q 407.40857 234.0856 406.41245 234.0856 Q 406.41245 235.08171 404.42023 236.07782 Q 400.4358 239.06615 391.47083 239.06615 Q 382.50583 239.06615 369.55643 234.0856 L 369.55643 234.0856 L 369.55643 234.0856 Q 368.5603 234.0856 368.5603 233.0895 Q 366.56808 233.0895 364.57587 232.09338 Q 350.63034 229.10506 344.6537 242.05447 Q 340.66925 256.9961 354.61478 261.97665 Q 356.607 262.97275 358.5992 263.96887 L 358.5992 263.96887 L 358.5992 263.96887 Q 358.5992 263.96887 358.5992 263.96887 Q 372.54474 268.9494 390.4747 270.94162 Q 406.41245 271.93774 421.3541 263.96887 Q 438.28793 254.00778 439.28406 231.09727 Q 437.29184 210.17899 421.3541 201.214 Q 408.40466 194.24124 396.45135 191.25291 L 396.45135 191.25291 Q 383.50195 187.26848 377.5253 184.28015 Q 375.53308 183.28404 375.53308 183.28404 Q 375.53308 183.28404 375.53308 182.28793 Q 375.53308 182.28793 375.53308 182.28793 Q 375.53308 182.28793 375.53308 182.28793 L 375.53308 182.28793 Z M 104.59144 182.28793 Q 104.59144 180.29572 104.59144 180.29572 Q 104.59144 180.29572 104.59144 180.29572 Q 105.58755 179.2996 107.579765 178.3035 Q 112.56031 175.31517 120.52918 175.31517 Q 131.48637 175.31517 143.43968 178.3035 Q 157.38521 181.29182 163.36186 167.3463 Q 165.35408 153.40077 151.40855 148.42023 Q 136.46692 144.43579 120.52918 143.43968 Q 105.58755 143.43968 91.64202 151.40855 Q 74.70817 159.37743 72.71595 182.28793 Q 74.70817 204.20233 90.64591 211.1751 Q 102.59922 218.14786 113.55642 221.13618 Q 114.55253 221.13618 114.55253 221.13618 L 114.55253 221.13618 L 115.54864 221.13618 Q 128.49805 225.12062 133.47859 228.10895 Q 137.46303 231.09727 136.46692 231.09727 L 136.46692 232.09338 Q 136.46692 234.0856 135.47081 234.0856 Q 135.47081 235.08171 133.47859 236.07782 Q 129.49416 239.06615 120.52918 239.06615 Q 110.56809 238.07004 97.618675 233.0895 Q 97.618675 233.0895 97.618675 233.0895 L 97.618675 233.0895 L 97.618675 233.0895 Q 95.62646 233.0895 93.63424 232.09338 Q 78.692604 229.10506 72.71595 242.05447 Q 69.72762 256 82.67704 261.97665 Q 84.66926 262.97275 85.66537 262.97275 Q 85.66537 262.97275 86.661476 262.97275 L 86.661476 262.97275 L 86.661476 262.97275 Q 86.661476 262.97275 86.661476 262.97275 Q 100.607 268.9494 119.53307 270.94162 Q 135.47081 271.93774 150.41245 262.97275 Q 167.3463 254.00778 168.3424 231.09727 Q 166.35019 209.18288 150.41245 201.214 Q 137.46303 194.24124 125.50973 191.25291 L 124.51362 191.25291 Q 112.56031 187.26848 106.58366 184.28015 Q 104.59144 183.28404 104.59144 182.28793 Q 104.59144 182.28793 104.59144 182.28793 Q 104.59144 182.28793 104.59144 182.28793 Q 104.59144 182.28793 104.59144 182.28793 L 104.59144 182.28793 Z" />
</svg>