<svg xmlns="http://www.w3.org/2000/svg" viewBox="0 0 640 448">
  <path d="M 256 109 Q 240 136 227 173 Q 213 130 194 89 Q 198 82 202 75 Q 220 44 249 22 Q 278 1 320 0 Q 362 1 391 22 Q 420 44 439 75 Q 456 105 470 141 Q 483 177 494 212 L 495 214 L 495 214 Q 517 290 544 339 Q 571 385 608 384 Q 622 384 631 393 Q 640 402 640 416 Q 640 430 631 439 Q 622 448 608 448 Q 566 447 537 426 Q 508 404 489 373 Q 472 343 458 307 Q 445 271 434 236 L 433 234 L 433 234 Q 411 158 384 109 Q 357 63 320 64 Q 283 63 256 109 L 256 109 Z M 158 359 Q 155 366 151 373 Q 132 404 103 426 Q 74 447 32 448 Q 18 448 9 439 Q 0 430 0 416 Q 0 402 9 393 Q 18 384 32 384 Q 69 385 96 339 Q 112 312 125 275 Q 139 318 158 360 L 158 359 Z M 384 339 Q 400 312 413 275 Q 427 318 446 360 Q 443 366 439 373 Q 420 404 391 426 Q 362 447 320 448 Q 278 447 249 426 Q 220 404 201 373 Q 184 343 170 307 Q 157 271 146 236 Q 146 236 146 236 L 146 234 L 146 234 Q 123 158 96 109 Q 69 63 32 64 Q 18 64 9 55 Q 0 46 0 32 Q 0 18 9 9 Q 18 0 32 0 Q 74 1 103 22 Q 132 44 151 75 Q 168 105 182 141 Q 195 177 206 212 L 207 214 L 207 214 Q 229 290 256 339 Q 283 385 320 384 Q 357 385 384 339 L 384 339 Z M 544 109 Q 528 136 515 173 Q 501 130 482 89 Q 486 82 490 75 Q 508 44 537 22 Q 566 1 608 0 Q 622 0 631 9 Q 640 18 640 32 Q 640 46 631 55 Q 622 64 608 64 Q 571 63 544 109 L 544 109 Z" />
</svg>