<svg xmlns="http://www.w3.org/2000/svg" viewBox="0 0 288 512">
  <path d="M 109 50 L 112 48 L 109 50 L 112 48 L 112 32 L 112 32 Q 112 18 121 9 Q 130 0 144 0 Q 158 0 167 9 Q 176 18 176 32 L 176 48 L 176 48 L 179 50 L 179 50 Q 207 65 208 96 Q 222 96 231 105 Q 240 114 240 128 L 240 160 L 240 160 L 48 160 L 48 160 L 48 128 L 48 128 Q 48 114 57 105 Q 66 96 80 96 Q 81 65 109 50 L 109 50 Z M 88 272 L 4 272 L 88 272 L 4 272 Q 10 242 29 218 L 48 192 L 48 192 L 240 192 L 240 192 L 259 218 L 259 218 Q 288 256 288 304 L 288 448 L 288 448 Q 287 475 269 493 Q 251 511 224 512 L 64 512 L 64 512 Q 37 511 19 493 Q 1 475 0 448 L 0 432 L 0 432 L 88 432 L 88 432 Q 110 430 112 408 Q 110 386 88 384 L 0 384 L 0 384 L 0 320 L 0 320 L 88 320 L 88 320 Q 110 318 112 296 Q 110 274 88 272 L 88 272 Z" />
</svg>