<svg xmlns="http://www.w3.org/2000/svg" viewBox="0 0 448 448">
  <path d="M 64 448 Q 37 447 19 429 L 19 429 L 19 429 Q 1 411 0 384 L 0 64 L 0 64 Q 1 37 19 19 Q 37 1 64 0 L 384 0 L 384 0 Q 411 1 429 19 Q 447 37 448 64 L 448 384 L 448 384 Q 447 411 429 429 Q 411 447 384 448 L 64 448 L 64 448 Z M 241 377 L 353 265 L 241 377 L 353 265 Q 367 248 353 231 Q 336 217 319 231 L 248 302 L 248 302 L 248 88 L 248 88 Q 246 66 224 64 Q 202 66 200 88 L 200 302 L 200 302 L 129 231 L 129 231 Q 112 217 95 231 Q 81 248 95 265 L 207 377 L 207 377 Q 224 391 241 377 L 241 377 Z" />
</svg>