<svg xmlns="http://www.w3.org/2000/svg" viewBox="0 0 512 512">
  <path d="M 82.4 51.2 Q 79.2 51.2 76.8 53.6 Q 48 79.2 31.2 107.2 Q 13.6 135.2 12.8 159.2 Q 12.8 176.8 19.2 192 L 64 192 Q 57.6 182.4 57.6 168.8 Q 57.6 159.2 64 148.8 Q 70.4 138.4 83.2 123.2 Q 84.8 124.8 92.8 135.2 Q 100.8 145.6 108.8 156 Q 116.8 165.6 117.6 167.2 Q 117.6 167.2 117.6 167.2 L 137.6 143.2 Q 140 147.2 141.6 150.4 Q 141.6 150.4 141.6 150.4 Q 152 172 141.6 192 L 185.6 192 Q 192 176.8 192 159.2 Q 191.2 140 178.4 114.4 Q 165.6 89.6 144.8 68.8 Q 139.2 64.8 133.6 68.8 Q 125.6 76.8 118.4 85.6 Q 104 68 88 53.6 Q 84.8 51.2 82.4 51.2 L 82.4 51.2 Z M 136.8 321.6 L 175.2 256 L 185.6 256 Q 203.2 254.4 204.8 236.8 Q 203.2 219.2 185.6 217.6 L 19.2 217.6 Q 1.6 219.2 0 236.8 Q 1.6 254.4 19.2 256 L 13.6 256 L 3.2 298.4 Q 0 313.6 0 328.8 L 0 331.2 Q 1.6 386.4 37.6 423.2 Q 74.4 459.2 129.6 460.8 Q 159.2 460.8 185.6 448 Q 212 435.2 231.2 412 L 427.2 163.2 Q 435.2 153.6 448 153.6 L 499.2 153.6 Q 511.2 152.8 512 140.8 Q 512 134.4 507.2 130.4 L 488 114.4 Q 473.6 102.4 455.2 102.4 L 431.2 102.4 Q 409.6 102.4 394.4 117.6 L 359.2 152.8 L 352.8 146.4 Q 339.2 135.2 325.6 146.4 Q 314.4 160 325.6 173.6 L 332 180 L 320.8 191.2 L 314.4 184.8 Q 300.8 173.6 287.2 184.8 Q 276 198.4 287.2 212 L 293.6 218.4 L 282.4 229.6 L 276 223.2 Q 262.4 212 248.8 223.2 Q 237.6 236.8 248.8 250.4 L 255.2 256.8 L 165.6 346.4 Q 160 352 152.8 352 Q 136 350.4 134.4 333.6 L 134.4 332 Q 134.4 326.4 136.8 321.6 L 136.8 321.6 Z M 115.2 275.2 Q 113.6 292.8 96 294.4 Q 78.4 292.8 76.8 275.2 Q 78.4 257.6 96 256 Q 113.6 257.6 115.2 275.2 L 115.2 275.2 Z M 70.4 326.4 Q 88 328 89.6 345.6 Q 88 363.2 70.4 364.8 Q 52.8 363.2 51.2 345.6 Q 52.8 328 70.4 326.4 L 70.4 326.4 Z" />
</svg>