<svg xmlns="http://www.w3.org/2000/svg" viewBox="0 0 512 512">
  <path d="M 436.44272 74.06602 Q 426.50098 65.11845 413.5767 65.11845 L 413.5767 65.11845 Q 400.65244 65.11845 390.7107 74.06602 Q 377.7864 87.98447 382.7573 105.87961 Q 388.72232 122.78059 387.72815 143.65825 Q 386.73398 165.53009 368.83884 187.40195 L 343.98447 211.26213 L 299.2466 166.52428 L 323.10678 141.6699 Q 324.10098 141.6699 324.10098 138.68738 Q 325.09515 132.72234 322.1126 123.77476 Q 315.1534 98.92039 321.11844 74.06602 Q 327.0835 49.21165 345.9728 29.328156 Q 375.79807 1.4912621 413.5767 1.4912621 Q 451.35535 1.4912621 481.18057 29.328156 Q 505.04077 54.182526 508.02332 85.001945 Q 512 116.81554 496.0932 144.65242 Q 489.13397 156.58252 477.2039 159.56505 Q 465.27377 162.54758 453.3437 156.58252 Q 441.4136 149.6233 438.43106 136.69904 Q 434.45438 124.76893 441.4136 112.83884 Q 451.35535 91.96117 436.44272 74.06602 L 436.44272 74.06602 Z M 61.638836 404.13205 L 106.3767 448.8699 L 54.67961 501.56116 Q 44.737865 510.50873 31.813593 510.50873 Q 18.88932 510.50873 8.947573 501.56116 Q 0 491.61942 0 478.69516 Q 0 465.77087 8.947573 455.82913 L 61.638836 404.13205 L 61.638836 404.13205 Z M 323.10678 142.66408 Q 323.10678 141.6699 323.10678 141.6699 Q 323.10678 141.6699 323.10678 141.6699 Q 323.10678 141.6699 323.10678 141.6699 Q 323.10678 142.66408 323.10678 142.66408 L 323.10678 142.66408 Z M 231.64272 143.65825 L 366.8505 278.86603 Q 380.76892 295.767 366.8505 312.66797 L 319.1301 360.38834 Q 302.22913 374.3068 285.32816 360.38834 L 150.12039 225.18059 Q 136.20193 208.27962 150.12039 191.37865 L 197.84077 143.65825 Q 214.74174 129.7398 231.64272 143.65825 L 231.64272 143.65825 Z M 86.4932 255.00583 Q 103.39417 241.08737 120.29514 255.00583 L 255.50291 390.2136 Q 269.42136 407.11456 255.50291 424.01553 L 207.78253 471.73593 Q 190.88155 485.65436 173.98058 471.73593 L 38.772816 336.52817 Q 24.854368 319.6272 38.772816 302.72623 L 86.4932 255.00583 L 86.4932 255.00583 Z" />
</svg>