<svg xmlns="http://www.w3.org/2000/svg" viewBox="0 0 512 514">
  <path d="M 352 257 Q 352 290 349 321 L 282 321 L 282 321 L 295 278 L 295 278 Q 301 250 282 231 Q 264 212 235 219 L 160 241 L 160 241 Q 161 216 163 193 L 349 193 L 349 193 Q 352 224 352 257 L 352 257 Z M 20 282 Q 10 285 2 292 Q 0 275 0 257 Q 0 224 8 193 L 131 193 L 131 193 Q 128 221 128 250 L 20 282 L 20 282 Z M 231 493 L 272 353 L 231 493 L 272 353 L 344 353 L 344 353 Q 335 408 317 448 Q 301 483 284 499 Q 267 514 256 513 Q 245 514 229 500 Q 230 496 231 493 L 231 493 Z M 381 193 L 504 193 L 381 193 L 504 193 Q 512 224 512 257 Q 512 290 504 321 L 381 321 L 381 321 Q 384 290 384 257 Q 384 224 381 193 L 381 193 Z M 493 161 L 377 161 L 493 161 L 377 161 Q 361 63 321 9 Q 381 26 426 65 Q 470 105 493 161 L 493 161 Z M 168 161 Q 177 106 195 66 Q 211 31 228 15 Q 245 0 256 1 Q 267 0 284 15 Q 301 31 317 66 Q 335 106 344 161 L 168 161 L 168 161 Z M 135 161 L 19 161 L 135 161 L 19 161 Q 42 105 86 65 Q 131 26 191 9 Q 151 63 135 161 L 135 161 Z M 493 353 Q 470 409 426 449 L 426 449 L 426 449 Q 381 488 322 505 Q 361 451 377 353 L 494 353 L 493 353 Z M 39 310 L 244 249 L 39 310 L 244 249 Q 253 247 260 253 Q 266 260 264 269 L 204 474 L 204 474 Q 200 485 190 485 Q 180 486 174 477 L 145 419 L 145 419 Q 144 417 143 416 L 55 504 L 55 504 Q 45 513 32 513 Q 19 513 9 504 Q 0 494 0 481 Q 0 468 9 458 L 97 370 L 97 370 Q 96 369 94 368 L 36 339 L 36 339 Q 27 333 28 323 Q 28 313 39 310 L 39 310 Z" />
</svg>