<svg xmlns="http://www.w3.org/2000/svg" viewBox="0 0 640 518">
  <path d="M 0 24 Q 2 2 24 0 L 70 0 L 70 0 Q 104 2 120 32 L 531 32 L 531 32 Q 551 33 563 48 Q 574 63 570 82 L 539 197 L 539 197 Q 518 192 496 192 Q 444 193 403 219 Q 362 245 339 288 L 171 288 L 171 288 L 176 317 L 176 317 Q 181 335 200 336 L 323 336 L 323 336 Q 320 352 320 368 Q 320 376 321 384 L 200 384 L 200 384 Q 173 384 154 367 Q 134 351 129 326 L 77 55 L 77 55 Q 76 48 70 48 L 24 48 L 24 48 Q 2 46 0 24 L 0 24 Z M 128 464 Q 129 437 152 422 Q 176 410 200 422 Q 223 437 224 464 Q 223 491 200 506 Q 176 518 152 506 Q 129 491 128 464 L 128 464 Z M 496 224 Q 535 224 568 243 L 568 243 L 568 243 Q 601 262 621 296 Q 640 330 640 368 Q 640 406 621 440 Q 601 474 568 493 Q 535 512 496 512 Q 457 512 424 493 Q 391 474 371 440 Q 352 406 352 368 Q 352 330 371 296 Q 391 262 424 243 Q 457 224 496 224 L 496 224 Z M 555 331 Q 565 320 555 309 Q 544 299 533 309 L 496 345 L 496 345 L 459 309 L 459 309 Q 448 299 437 309 Q 427 320 437 331 L 473 368 L 473 368 L 437 405 L 437 405 Q 427 416 437 427 Q 448 437 459 427 L 496 391 L 496 391 L 533 427 L 533 427 Q 544 437 555 427 Q 565 416 555 405 L 519 368 L 519 368 L 555 331 L 555 331 Z" />
</svg>