<svg xmlns="http://www.w3.org/2000/svg" viewBox="0 0 576 512">
  <path d="M 96 0 Q 82 0 73 9 L 73 9 L 73 9 Q 64 18 64 32 L 48 32 L 48 32 Q 28 33 14 46 Q 1 60 0 80 L 0 368 L 0 368 Q 1 388 14 402 Q 28 415 48 416 L 528 416 L 528 416 Q 548 415 562 402 Q 575 388 576 368 L 576 80 L 576 80 Q 575 60 562 46 Q 548 33 528 32 L 512 32 L 512 32 Q 512 18 503 9 Q 494 0 480 0 Q 466 0 457 9 Q 448 18 448 32 L 128 32 L 128 32 Q 128 18 119 9 Q 110 0 96 0 L 96 0 Z M 128 448 L 64 448 L 128 448 L 64 448 L 64 480 L 64 480 Q 64 494 73 503 Q 82 512 96 512 Q 110 512 119 503 Q 128 494 128 480 L 128 448 L 128 448 Z M 448 448 L 448 480 L 448 448 L 448 480 Q 448 494 457 503 Q 466 512 480 512 Q 494 512 503 503 Q 512 494 512 480 L 512 448 L 512 448 L 448 448 L 448 448 Z" />
</svg>