<svg xmlns="http://www.w3.org/2000/svg" viewBox="0 0 400 512">
  <path d="M 242 15 Q 248 1 264 0 L 376 0 L 376 0 Q 398 2 400 24 L 400 136 L 400 136 Q 399 152 385 158 Q 371 164 359 153 L 320 114 L 320 114 L 295 139 L 295 139 Q 319 176 320 224 Q 319 285 281 329 Q 243 372 184 382 L 184 408 L 184 408 L 208 408 L 208 408 Q 230 410 232 432 Q 230 454 208 456 L 184 456 L 184 456 L 184 488 L 184 488 Q 182 510 160 512 Q 138 510 136 488 L 136 456 L 136 456 L 112 456 L 112 456 Q 90 454 88 432 Q 90 410 112 408 L 136 408 L 136 408 L 136 382 L 136 382 Q 77 372 39 329 Q 1 285 0 224 Q 2 156 47 111 Q 92 66 160 64 Q 221 65 264 102 L 286 80 L 286 80 L 247 41 L 247 41 Q 236 29 242 15 L 242 15 Z M 352 48 Q 352 48 352 48 L 352 48 L 352 48 Q 352 48 352 48 Q 352 48 352 48 Q 352 48 352 48 Q 352 48 352 48 Q 352 48 352 48 L 352 48 Z M 256 224 Q 256 198 243 176 L 243 176 L 243 176 Q 230 154 208 141 Q 185 128 160 128 Q 135 128 112 141 Q 90 154 77 176 Q 64 198 64 224 Q 64 250 77 272 Q 90 294 112 307 Q 135 320 160 320 Q 185 320 208 307 Q 230 294 243 272 Q 256 250 256 224 L 256 224 Z" />
</svg>