<svg xmlns="http://www.w3.org/2000/svg" viewBox="0 0 512 512">
  <path d="M 256 256 Q 221 256 192 239 L 192 239 Q 163 222 145 192 Q 128 162 128 128 Q 128 94 145 64 Q 163 34 192 17 Q 221 0 256 0 Q 291 0 320 17 Q 349 34 367 64 Q 384 94 384 128 Q 384 162 367 192 Q 349 222 320 239 Q 291 256 256 256 L 256 256 Z M 241 359 L 223 328 Q 218 320 222 312 Q 227 305 236 304 L 256 304 L 276 304 Q 285 305 290 312 Q 294 320 289 328 L 271 359 L 304 483 L 340 336 Q 345 323 358 325 Q 412 339 445 381 Q 479 424 480 481 Q 480 494 471 503 Q 462 512 449 512 L 318 512 Q 314 512 312 511 L 312 512 L 200 512 L 200 511 Q 198 512 195 512 L 63 512 Q 50 512 41 503 Q 32 494 32 481 Q 33 424 67 381 Q 100 339 154 325 Q 167 323 172 336 L 208 483 L 241 359 L 241 359 Z" />
</svg>