<svg xmlns="http://www.w3.org/2000/svg" viewBox="0 0 512 517">
  <path d="M 379 10 Q 368 0 357 10 L 341 26 L 341 26 Q 331 37 341 48 L 357 64 L 357 64 Q 368 74 379 64 L 395 48 L 395 48 Q 405 37 395 26 L 379 10 L 379 10 Z M 281 72 Q 278 69 273 69 Q 273 69 273 69 Q 272 69 271 69 Q 265 69 261 73 Q 260 74 259 76 Q 259 76 259 76 Q 256 79 256 84 Q 256 85 256 86 Q 256 90 258 93 L 258 93 L 258 93 Q 259 94 259 95 Q 260 95 260 96 Q 261 99 265 104 Q 271 114 285 128 Q 298 142 319 153 Q 340 164 368 165 Q 415 162 442 145 Q 455 137 462 131 Q 466 128 468 126 Q 469 125 470 125 Q 470 125 470 125 L 470 124 L 470 124 L 470 124 L 470 124 L 471 124 L 471 124 Q 471 124 471 124 Q 471 124 471 124 Q 471 124 471 124 Q 471 124 471 124 Q 480 115 480 101 Q 480 87 471 78 Q 462 69 448 69 Q 435 69 426 78 Q 426 78 425 79 Q 425 79 423 80 Q 423 81 422 81 Q 418 84 410 89 Q 394 100 368 101 Q 335 99 309 86 Q 296 81 288 76 Q 288 76 287 76 Q 284 74 283 73 Q 282 72 282 72 Q 281 72 281 72 L 281 72 L 281 72 Z M 115 175 Q 127 165 144 165 Q 164 166 178 179 Q 191 193 192 213 Q 191 233 178 247 Q 164 260 144 261 L 110 261 L 110 261 Q 97 262 96 275 Q 96 277 97 279 L 105 303 L 105 303 Q 113 324 135 325 L 144 325 L 160 325 Q 187 326 205 344 Q 223 362 224 389 Q 223 416 205 434 Q 187 452 160 453 Q 122 452 97 440 Q 72 427 58 410 Q 43 393 37 381 Q 34 375 32 371 Q 32 370 32 369 Q 31 369 31 368 L 31 368 L 31 368 Q 31 367 30 365 Q 28 362 25 360 Q 23 358 19 357 Q 17 357 14 357 Q 11 357 8 359 Q 6 360 5 362 Q 1 366 0 371 Q 0 372 0 373 Q 0 373 0 373 Q 0 373 0 373 Q 0 374 0 375 L 0 376 L 0 376 Q 0 376 0 377 Q 1 377 1 378 Q 1 380 1 381 Q 2 388 5 397 Q 10 418 26 445 Q 43 473 75 495 Q 107 516 160 517 Q 214 516 251 480 Q 287 443 288 389 Q 288 354 271 325 L 294 325 L 294 325 Q 333 324 361 297 L 388 270 L 388 270 Q 397 261 411 261 L 416 261 L 416 261 Q 430 261 439 270 Q 448 279 448 293 L 448 389 L 448 389 Q 448 403 439 412 Q 430 421 416 421 Q 378 418 365 395 Q 357 385 354 377 Q 353 373 352 371 Q 352 370 352 370 Q 352 369 352 369 L 351 369 L 351 369 Q 351 367 350 365 Q 348 362 346 360 Q 341 357 336 357 L 336 357 L 336 357 Q 323 358 320 371 Q 320 371 320 371 Q 320 371 320 371 Q 320 371 320 372 Q 320 372 320 372 Q 320 372 320 373 Q 320 374 320 376 Q 319 380 319 388 Q 318 404 325 426 Q 331 449 353 467 Q 376 485 416 485 Q 457 484 484 457 Q 511 430 512 389 L 512 293 L 512 293 Q 511 252 484 225 Q 457 198 416 197 L 411 197 L 411 197 Q 371 198 343 225 L 316 252 L 316 252 Q 307 261 294 261 L 245 261 L 245 261 Q 256 239 256 213 Q 255 165 223 134 Q 192 102 144 101 Q 106 102 77 123 Q 66 132 64 144 Q 63 157 70 168 Q 79 179 91 181 Q 104 182 115 175 L 115 175 Z" />
</svg>