<svg xmlns="http://www.w3.org/2000/svg" viewBox="0 0 640 512">
  <path d="M 144 0 Q 83 2 42 42 L 42 42 L 42 42 Q 2 83 0 144 Q 0 153 8 158 Q 15 162 23 158 L 75 133 L 75 133 Q 97 159 132 160 L 198 160 L 198 160 Q 233 159 250 128 L 288 128 L 288 128 Q 288 142 297 151 Q 306 160 320 160 Q 334 160 343 151 Q 352 142 352 128 L 352 32 L 352 32 Q 352 18 343 9 Q 334 0 320 0 Q 306 0 297 9 Q 288 18 288 32 L 250 32 L 250 32 Q 233 1 198 0 L 144 0 L 144 0 Z M 112 192 L 99 448 L 112 192 L 99 448 Q 99 475 116 493 Q 133 511 160 512 Q 187 511 204 493 Q 221 475 221 448 L 208 192 L 208 192 L 112 192 L 112 192 Z M 418 505 L 439 443 L 418 505 L 439 443 Q 442 437 448 437 Q 454 437 457 443 L 478 505 L 478 505 Q 480 512 487 512 L 592 512 L 592 512 Q 612 511 626 498 Q 639 484 640 464 L 640 320 L 640 320 L 352 320 L 352 320 L 352 464 L 352 464 Q 353 484 366 498 Q 380 511 400 512 L 409 512 L 409 512 Q 416 512 418 505 L 418 505 Z M 381 237 Q 354 256 352 288 L 640 288 L 640 288 Q 638 256 612 237 L 546 194 L 546 194 Q 545 193 544 192 L 544 48 L 544 48 Q 543 28 530 14 Q 516 1 496 0 Q 476 1 462 14 Q 449 28 448 48 L 448 193 L 448 193 Q 447 193 446 194 L 381 237 L 381 237 Z M 496 64 Q 481 63 480 48 Q 481 33 496 32 Q 511 33 512 48 Q 511 63 496 64 L 496 64 Z" />
</svg>