<svg xmlns="http://www.w3.org/2000/svg" viewBox="0 0 504 512">
  <path d="M 0 64 Q 1 37 19 19 L 19 19 L 19 19 Q 37 1 64 0 L 224 0 L 224 0 L 224 128 L 224 128 Q 224 142 233 151 Q 242 160 256 160 L 384 160 L 384 160 L 384 304 L 384 304 L 208 304 L 208 304 Q 181 305 163 323 Q 145 341 144 368 L 144 512 L 144 512 L 64 512 L 64 512 Q 37 511 19 493 Q 1 475 0 448 L 0 64 L 0 64 Z M 384 128 L 256 128 L 384 128 L 256 128 L 256 0 L 256 0 L 384 128 L 384 128 Z M 224 368 Q 224 379 230 388 L 240 403 L 240 403 L 250 388 L 250 388 Q 256 379 256 368 Q 257 353 272 352 Q 287 353 288 368 Q 288 389 276 406 L 259 432 L 259 432 L 276 458 L 276 458 Q 288 475 288 496 Q 287 511 272 512 Q 257 511 256 496 Q 256 485 250 476 L 240 461 L 240 461 L 230 476 L 230 476 Q 224 485 224 496 Q 223 510 208 512 Q 193 510 192 496 Q 192 475 204 458 L 221 432 L 221 432 L 204 406 L 204 406 Q 192 389 192 368 Q 193 353 208 352 Q 223 353 224 368 L 224 368 Z M 320 496 L 320 368 L 320 496 L 320 368 Q 321 353 336 352 Q 351 353 352 368 L 352 480 L 352 480 L 384 480 L 384 480 Q 399 481 400 496 Q 399 511 384 512 L 336 512 L 336 512 Q 321 511 320 496 L 320 496 Z M 408 398 Q 408 378 421 365 L 421 365 L 421 365 Q 434 352 454 352 L 480 352 L 480 352 Q 495 353 496 368 Q 495 383 480 384 L 454 384 L 454 384 Q 441 385 440 398 Q 440 406 448 410 L 479 426 L 479 426 Q 503 439 504 466 Q 504 486 491 499 Q 478 512 458 512 L 432 512 L 432 512 Q 417 511 416 496 Q 417 481 432 480 L 458 480 L 458 480 Q 471 479 472 466 Q 472 458 464 454 L 433 438 L 433 438 Q 409 425 408 398 L 408 398 Z" />
</svg>