<svg xmlns="http://www.w3.org/2000/svg" viewBox="0 0 448 448">
  <path d="M 64 448 Q 37 447 19 429 L 19 429 L 19 429 Q 1 411 0 384 L 0 64 L 0 64 Q 1 37 19 19 Q 37 1 64 0 L 384 0 L 384 0 Q 411 1 429 19 Q 447 37 448 64 L 448 384 L 448 384 Q 447 411 429 429 Q 411 447 384 448 L 64 448 L 64 448 Z M 235 363 L 347 251 L 235 363 L 347 251 Q 354 244 351 234 Q 346 225 336 224 L 272 224 L 272 224 L 272 128 L 272 128 Q 272 114 263 105 Q 254 96 240 96 L 208 96 L 208 96 Q 194 96 185 105 Q 176 114 176 128 L 176 224 L 176 224 L 112 224 L 112 224 Q 102 224 97 234 Q 94 244 101 251 L 213 363 L 213 363 Q 224 373 235 363 L 235 363 Z" />
</svg>