<svg xmlns="http://www.w3.org/2000/svg" viewBox="0 0 448 512">
  <path d="M 96 128 Q 96 163 113 192 L 113 192 L 113 192 Q 130 221 160 239 Q 190 256 224 256 Q 258 256 288 239 Q 318 221 335 192 Q 352 163 352 128 Q 352 93 335 64 Q 318 35 288 17 Q 258 0 224 0 Q 190 0 160 17 Q 130 35 113 64 Q 96 93 96 128 L 96 128 Z M 191 328 L 209 359 L 191 328 L 209 359 L 176 483 L 176 483 L 140 336 L 140 336 Q 135 323 122 325 Q 68 339 35 381 Q 1 424 0 481 Q 0 494 9 503 Q 18 512 31 512 L 162 512 L 162 512 Q 162 512 162 512 Q 162 512 163 512 L 168 512 L 286 512 Q 285 512 286 512 Q 286 512 286 512 L 417 512 L 417 512 Q 430 512 439 503 Q 448 494 448 481 Q 447 424 413 381 Q 380 339 326 325 Q 313 323 308 336 L 272 483 L 272 483 L 239 359 L 239 359 L 258 328 L 258 328 Q 262 320 258 312 Q 253 305 244 304 L 224 304 L 204 304 Q 195 305 190 312 Q 186 320 191 328 L 191 328 Z" />
</svg>