<svg xmlns="http://www.w3.org/2000/svg" viewBox="0 0 448 448">
  <path d="M 384 0 Q 411 1 429 19 L 429 19 L 429 19 Q 447 37 448 64 L 448 384 L 448 384 Q 447 411 429 429 Q 411 447 384 448 L 64 448 L 64 448 Q 37 447 19 429 Q 1 411 0 384 L 0 64 L 0 64 Q 1 37 19 19 Q 37 1 64 0 L 384 0 L 384 0 Z M 160 128 Q 150 128 145 138 Q 142 148 149 155 L 189 195 L 189 195 L 118 266 L 118 266 Q 112 272 112 280 Q 112 288 118 294 L 154 330 L 154 330 Q 160 336 168 336 Q 176 336 182 330 L 253 259 L 253 259 L 293 299 L 293 299 Q 301 306 310 303 Q 320 299 320 288 L 320 144 L 320 144 Q 319 130 304 128 L 160 128 L 160 128 Z" />
</svg>