<svg xmlns="http://www.w3.org/2000/svg" viewBox="0 0 480 462">
  <path d="M 391 178 Q 379 144 353 118 Q 304 71 240 71 Q 176 71 127 118 L 110 135 L 110 135 L 144 135 L 144 135 Q 157 135 166 144 Q 175 153 176 167 Q 175 181 166 190 Q 157 199 144 199 L 32 199 L 32 199 Q 32 199 32 199 Q 32 199 32 199 L 32 199 L 32 199 Q 18 199 9 190 Q 0 181 0 167 L 0 55 L 0 55 Q 0 41 9 32 Q 18 23 32 23 Q 46 23 55 32 Q 64 41 64 55 L 64 90 L 64 90 L 81 73 L 81 73 Q 126 29 183 14 Q 240 0 297 14 Q 353 29 398 73 Q 435 110 451 156 Q 455 169 450 181 Q 444 192 432 197 Q 419 201 407 196 Q 396 190 391 178 L 391 178 Z M 457 264 Q 464 266 470 272 Q 476 279 479 286 Q 479 288 479 290 Q 480 293 480 295 L 480 407 L 480 407 Q 479 421 470 430 Q 461 439 448 439 Q 434 439 425 430 Q 416 421 416 407 L 416 372 L 416 372 L 398 389 L 398 389 Q 398 389 398 389 Q 353 433 297 448 Q 240 462 183 448 Q 126 433 81 389 Q 45 352 29 306 Q 24 293 30 281 Q 35 270 48 265 Q 61 261 72 266 Q 84 272 89 284 Q 100 317 127 344 Q 176 391 240 391 Q 304 391 353 344 L 353 344 L 353 344 L 370 327 L 370 327 L 336 327 L 336 327 Q 322 327 313 318 Q 304 309 304 295 Q 304 281 313 272 Q 322 263 336 263 L 447 263 L 447 263 Q 450 263 452 263 Q 454 264 457 264 L 457 264 Z" />
</svg>