<svg xmlns="http://www.w3.org/2000/svg" viewBox="0 0 516 514">
  <path d="M 281 44 L 264 26 L 281 44 L 264 26 Q 261 23 259 20 Q 259 20 259 20 Q 259 20 259 20 Q 259 20 259 19 Q 247 3 229 0 Q 219 0 211 7 Q 177 36 147 80 Q 117 123 114 175 Q 115 237 156 278 Q 196 318 258 320 Q 319 318 360 278 Q 400 237 402 175 Q 400 133 378 95 Q 357 56 329 30 Q 321 23 311 23 Q 300 23 292 31 L 281 44 L 281 44 Z M 318 218 Q 317 243 301 259 L 301 259 L 301 259 Q 284 276 259 277 Q 235 276 218 259 Q 202 243 201 218 Q 203 193 220 171 Q 237 149 251 138 Q 259 132 268 138 Q 281 149 299 171 Q 316 193 318 218 L 318 218 Z M 45 290 Q 32 286 20 291 L 20 291 L 20 291 Q 9 297 4 309 Q 0 322 5 334 Q 11 345 23 350 L 163 400 L 163 400 L 23 450 L 23 450 Q 11 455 5 466 Q 0 478 4 491 Q 9 504 20 509 Q 32 514 45 510 L 258 434 L 258 434 L 471 510 L 471 510 Q 484 514 496 509 Q 507 504 512 491 Q 516 478 511 466 Q 505 455 493 450 L 353 400 L 353 400 L 493 350 L 493 350 Q 505 345 511 334 Q 516 322 512 309 Q 507 297 496 291 Q 484 286 471 290 L 258 366 L 258 366 L 45 290 L 45 290 Z" />
</svg>