<svg xmlns="http://www.w3.org/2000/svg" viewBox="0 0 512 512">
  <path d="M 19.2 51.2 Q 1.6 52.8 0 70.4 Q 1.6 88 19.2 89.6 L 60.8 89.6 L 108.8 343.2 Q 112.8 357.6 128 358.4 L 256.8 358.4 Q 256 352 256 345.6 Q 256 332.8 258.4 320 L 144 320 L 136.8 281.6 L 271.2 281.6 Q 289.6 247.2 322.4 226.4 Q 355.2 205.6 396.8 204.8 Q 414.4 204.8 430.4 208.8 L 458.4 109.6 Q 460.8 96.8 453.6 87.2 Q 446.4 77.6 433.6 76.8 L 97.6 76.8 L 96 67.2 Q 92 52 76.8 51.2 L 19.2 51.2 L 19.2 51.2 Z M 140.8 460.8 Q 162.4 460 174.4 441.6 Q 184 422.4 174.4 403.2 Q 162.4 384.8 140.8 384 Q 119.2 384.8 107.2 403.2 Q 97.6 422.4 107.2 441.6 Q 119.2 460 140.8 460.8 L 140.8 460.8 Z M 396.8 460.8 Q 428 460.8 454.4 445.6 L 454.4 445.6 Q 480.8 430.4 496.8 403.2 Q 512 376 512 345.6 Q 512 315.2 496.8 288 Q 480.8 260.8 454.4 245.6 Q 428 230.4 396.8 230.4 Q 365.6 230.4 339.2 245.6 Q 312.8 260.8 296.8 288 Q 281.6 315.2 281.6 345.6 Q 281.6 376 296.8 403.2 Q 312.8 430.4 339.2 445.6 Q 365.6 460.8 396.8 460.8 L 396.8 460.8 Z M 396.8 384 Q 414.4 385.6 416 403.2 Q 414.4 420.8 396.8 422.4 Q 379.2 420.8 377.6 403.2 Q 379.2 385.6 396.8 384 L 396.8 384 Z M 396.8 268.8 Q 408.8 269.6 409.6 281.6 L 409.6 345.6 Q 408.8 357.6 396.8 358.4 Q 384.8 357.6 384 345.6 L 384 281.6 Q 384.8 269.6 396.8 268.8 L 396.8 268.8 Z" />
</svg>