<svg xmlns="http://www.w3.org/2000/svg" viewBox="0 0 512 512">
  <path d="M 35.2 202.4 Q 20 196.8 9.6 184 L 9.6 184 Q 0 171.2 0 153.6 Q 0.8 132 15.2 117.6 Q 29.6 103.2 51.2 102.4 Q 80.8 104 95.2 127.2 Q 132 103.2 179.2 102.4 Q 241.6 104 284.8 144 Q 285.6 144.8 287.2 145.6 L 336.8 184.8 Q 343.2 189.6 341.6 198.4 L 336.8 215.2 Q 333.6 230.4 345.6 240 Q 358.4 248.8 372 241.6 L 386.4 232.8 Q 393.6 228.8 400.8 233.6 L 503.2 313.6 Q 512 320 512 330.4 Q 512 339.2 506.4 345.6 L 456 401.6 Q 448 409.6 436.8 409.6 L 435.2 409.6 Q 428.8 409.6 423.2 406.4 L 304.8 344.8 Q 283.2 374.4 251.2 392 Q 218.4 409.6 179.2 409.6 Q 113.6 408 70.4 364.8 Q 27.2 321.6 25.6 256 Q 25.6 227.2 35.2 202.4 L 35.2 202.4 Z M 230.4 256 Q 229.6 227.2 204.8 212 Q 179.2 197.6 153.6 212 Q 128.8 227.2 128 256 Q 128.8 284.8 153.6 300 Q 179.2 314.4 204.8 300 Q 229.6 284.8 230.4 256 L 230.4 256 Z M 51.2 166.4 Q 63.2 165.6 64 153.6 Q 63.2 141.6 51.2 140.8 Q 39.2 141.6 38.4 153.6 Q 39.2 165.6 51.2 166.4 L 51.2 166.4 Z" />
</svg>