<svg xmlns="http://www.w3.org/2000/svg" viewBox="0 0 654 526">
  <path d="M 46 12 Q 27 0 12 16 Q 0 35 16 50 L 608 514 L 608 514 Q 627 526 642 510 Q 654 491 638 476 L 548 405 L 548 405 Q 548 405 548 405 Q 548 404 548 404 Q 556 385 543 370 L 536 361 L 536 361 Q 488 307 487 234 L 487 215 L 487 215 Q 486 156 450 113 Q 415 70 359 58 L 359 39 L 359 39 Q 359 25 350 16 Q 341 7 327 7 Q 313 7 304 16 Q 295 25 295 39 L 295 58 L 295 58 Q 229 73 193 128 L 46 12 L 46 12 Z M 413 423 L 167 229 L 413 423 L 167 229 L 167 234 L 167 234 Q 166 307 119 362 L 111 370 L 111 370 Q 98 385 106 404 Q 115 422 135 423 L 413 423 L 413 423 Z M 372 500 Q 391 481 391 455 L 327 455 L 263 455 Q 263 481 282 500 Q 301 519 327 519 Q 353 519 372 500 L 372 500 Z" />
</svg>