<svg xmlns="http://www.w3.org/2000/svg" viewBox="0 0 512 448">
  <path d="M 160 64 L 96 64 L 160 64 L 96 64 Q 82 64 73 73 Q 64 82 64 96 L 64 352 L 64 352 Q 64 366 73 375 Q 82 384 96 384 L 160 384 L 160 384 Q 174 384 183 393 Q 192 402 192 416 Q 192 430 183 439 Q 174 448 160 448 L 96 448 L 96 448 Q 55 447 28 420 Q 1 393 0 352 L 0 96 L 0 96 Q 1 55 28 28 Q 55 1 96 0 L 160 0 L 160 0 Q 174 0 183 9 Q 192 18 192 32 Q 192 46 183 55 Q 174 64 160 64 L 160 64 Z M 169 247 Q 160 237 160 224 L 160 224 L 160 224 Q 160 211 169 201 L 297 73 L 297 73 Q 307 64 320 64 Q 333 64 343 73 Q 352 83 352 96 Q 352 109 343 119 L 269 192 L 269 192 L 480 192 L 480 192 Q 494 192 503 201 Q 512 210 512 224 Q 512 238 503 247 Q 494 256 480 256 L 269 256 L 269 256 L 343 329 L 343 329 Q 352 339 352 352 Q 352 365 343 375 Q 333 384 320 384 Q 307 384 297 375 L 169 247 L 169 247 Z" />
</svg>