<svg xmlns="http://www.w3.org/2000/svg" viewBox="0 0 480 512">
  <path d="M 240 0 Q 233 1 232 8 L 232 32 L 232 32 L 232 32 L 232 32 Q 167 37 124 82 Q 82 126 80 192 L 80 229 L 80 229 Q 79 293 40 344 L 23 365 L 23 365 Q 16 373 16 384 Q 16 398 25 407 Q 34 416 48 416 L 432 416 L 432 416 Q 446 416 455 407 Q 464 398 464 384 Q 464 373 457 365 L 440 344 L 440 344 Q 401 293 400 229 L 400 192 L 400 192 Q 398 126 356 82 Q 313 37 248 32 L 248 32 L 248 32 L 248 8 L 248 8 Q 247 1 240 0 L 240 0 Z M 96 192 Q 98 131 138 90 L 138 90 L 138 90 Q 179 50 240 48 Q 301 50 342 90 Q 382 131 384 192 L 384 229 L 384 229 Q 385 299 428 354 L 445 374 L 445 374 Q 448 379 448 384 Q 447 399 432 400 L 48 400 L 48 400 Q 33 399 32 384 Q 32 379 35 375 L 52 354 L 52 354 Q 95 299 96 229 L 96 192 L 96 192 Z M 184 440 Q 177 441 176 448 Q 176 474 195 493 Q 214 512 240 512 Q 266 512 285 493 Q 304 474 304 448 Q 303 441 296 440 Q 289 441 288 448 Q 288 468 274 482 Q 260 496 240 496 Q 220 496 206 482 Q 192 468 192 448 Q 191 441 184 440 L 184 440 Z M 84 22 Q 89 16 85 11 Q 79 6 74 10 Q 39 41 20 84 Q 0 126 0 176 Q 1 183 8 184 Q 15 183 16 176 Q 16 130 34 90 Q 52 51 84 22 L 84 22 Z M 407 10 Q 401 6 395 11 Q 391 16 396 22 Q 428 51 446 90 Q 464 130 464 176 Q 465 183 472 184 Q 479 183 480 176 Q 480 126 460 84 Q 441 41 407 10 L 407 10 Z" />
</svg>