<svg xmlns="http://www.w3.org/2000/svg" viewBox="0 0 511 513">
  <path d="M 121 25 Q 117 20 112 23 Q 72 46 47 84 Q 22 122 16 170 Q 15 176 8 177 Q 0 176 0 168 Q 7 117 34 76 Q 61 34 104 9 Q 122 0 134 16 L 237 164 L 237 164 Q 242 175 231 177 Q 226 177 224 174 L 121 25 L 121 25 Z M 79 497 Q 93 497 102 488 L 102 488 L 102 488 Q 111 479 111 465 Q 111 451 102 442 Q 93 433 79 433 Q 65 433 56 442 Q 47 451 47 465 Q 47 479 56 488 Q 65 497 79 497 L 79 497 Z M 79 417 Q 106 418 121 441 Q 133 465 121 489 Q 106 512 79 513 Q 52 512 37 489 Q 25 465 37 441 Q 52 418 79 417 L 79 417 Z M 367 497 Q 381 497 390 488 L 390 488 L 390 488 Q 399 479 399 465 Q 399 451 390 442 Q 381 433 367 433 Q 353 433 344 442 Q 335 451 335 465 Q 335 479 344 488 Q 353 497 367 497 L 367 497 Z M 367 417 Q 394 418 409 441 Q 421 465 409 489 Q 394 512 367 513 Q 340 512 325 489 Q 313 465 325 441 Q 340 418 367 417 L 367 417 Z M 463 129 Q 448 130 447 145 L 447 209 L 447 209 Q 447 217 446 225 Q 439 301 381 356 Q 350 385 309 401 Q 268 417 223 417 Q 178 417 137 401 Q 96 385 65 356 Q 7 301 0 225 Q 0 210 15 209 L 223 209 L 431 209 L 431 145 L 431 145 Q 431 131 440 122 Q 449 113 463 113 L 503 113 L 503 113 Q 510 114 511 121 Q 510 128 503 129 L 463 129 L 463 129 Z M 76 344 Q 105 371 143 386 L 143 386 L 143 386 Q 181 401 223 401 Q 265 401 303 386 Q 341 371 371 344 Q 423 294 430 225 L 223 225 L 16 225 Q 23 294 75 344 L 76 344 Z" />
</svg>