<svg xmlns="http://www.w3.org/2000/svg" viewBox="0 0 512 512">
  <path d="M 303.2 130.4 Q 305.6 134.4 310.4 136 Q 324.8 140 338.4 146.4 Q 343.2 148.8 348 147.2 L 424 123.2 Q 427.2 122.4 429.6 124.8 Q 432 128 429.6 131.2 L 396.8 181.6 Q 392.8 188.8 396.8 196 Q 403.2 204.8 408 215.2 Q 409.6 220 415.2 222.4 L 496 251.2 Q 499.2 252 499.2 256 Q 499.2 259.2 496 260.8 L 415.2 289.6 Q 409.6 292 408 296.8 Q 403.2 307.2 396.8 316 Q 392.8 323.2 396.8 330.4 L 430.4 380.8 Q 432 384 429.6 387.2 Q 427.2 389.6 424 388.8 L 348 364.8 Q 343.2 364 338.4 365.6 Q 324.8 372 310.4 376.8 Q 305.6 377.6 303.2 382.4 L 264.8 443.2 Q 261.6 448 256 448 Q 250.4 448 247.2 443.2 L 208.8 382.4 Q 206.4 377.6 201.6 376.8 Q 187.2 372 173.6 365.6 Q 169.6 364 164.8 364.8 L 88 388.8 Q 84.8 389.6 82.4 387.2 L 72 394.4 L 82.4 387.2 Q 80 384 82.4 380.8 L 115.2 330.4 Q 119.2 323.2 115.2 316.8 Q 108.8 307.2 104.8 296.8 Q 102.4 292 96.8 289.6 L 16 260.8 Q 12.8 259.2 12.8 256 Q 12.8 252 16 251.2 L 96.8 222.4 Q 102.4 220 104 215.2 Q 108.8 204.8 115.2 196 Q 119.2 188.8 115.2 181.6 L 82.4 131.2 Q 80 128 82.4 124.8 Q 84.8 122.4 88 123.2 L 164 147.2 Q 168.8 148 173.6 146.4 Q 187.2 140 201.6 135.2 Q 206.4 134.4 208.8 129.6 L 247.2 68.8 L 236.8 62.4 L 247.2 68.8 Q 250.4 64 256 64 Q 261.6 64 264.8 68.8 L 303.2 130.4 L 303.2 130.4 Z M 236.8 62.4 L 198.4 123.2 Q 182.4 128 168 134.4 L 92 111.2 Q 80 108 72 117.6 Q 64.8 128 71.2 138.4 L 104.8 188.8 Q 97.6 198.4 92.8 210.4 L 12 239.2 Q 0.8 243.2 0 256 Q 0.8 268.8 12 272.8 L 92.8 301.6 Q 97.6 312.8 104 323.2 L 71.2 373.6 Q 64.8 384.8 72 394.4 Q 80 404 92 400.8 L 168 377.6 Q 182.4 384 198.4 388.8 L 236.8 449.6 Q 243.2 460.8 256 460.8 Q 268.8 460.8 276 449.6 L 313.6 388.8 Q 329.6 384 344 377.6 L 420 400.8 Q 432 404 440 394.4 Q 447.2 384.8 440.8 373.6 L 408 324 Q 414.4 313.6 419.2 301.6 L 500 273.6 Q 511.2 268.8 512 256 Q 511.2 244 500 239.2 L 419.2 210.4 Q 414.4 199.2 408 188.8 L 440.8 138.4 Q 447.2 128 440 117.6 Q 432 108 420 111.2 L 344 135.2 Q 329.6 128 313.6 123.2 L 276 62.4 Q 268.8 51.2 256 51.2 Q 243.2 51.2 236.8 62.4 L 236.8 62.4 Z M 185.6 249.6 Q 185.6 234.4 191.2 221.6 Q 207.2 229.6 224 233.6 Q 226.4 256.8 232.8 270.4 Q 240 284 244.8 289.6 Q 249.6 294.4 256 294.4 Q 262.4 294.4 267.2 289.6 Q 272.8 284 279.2 270.4 Q 285.6 256.8 288 233.6 Q 304.8 229.6 320.8 221.6 Q 326.4 234.4 326.4 249.6 Q 325.6 279.2 305.6 299.2 Q 285.6 319.2 256 320 Q 226.4 319.2 206.4 299.2 Q 186.4 279.2 185.6 249.6 L 185.6 249.6 Z M 254.4 280.8 Q 250.4 277.6 244.8 266.4 L 244.8 266.4 Q 239.2 255.2 237.6 235.2 Q 246.4 236.8 255.2 236.8 Q 256 236.8 256 236.8 Q 256 236.8 256.8 236.8 Q 265.6 236.8 274.4 235.2 Q 272 255.2 266.4 266.4 Q 261.6 277.6 257.6 280.8 Q 257.6 281.6 256 281.6 Q 254.4 281.6 254.4 280.8 L 254.4 280.8 Z M 332 215.2 Q 337.6 212 343.2 208 Q 347.2 204 344 198.4 Q 340 194.4 335.2 197.6 Q 301.6 223.2 256.8 224 Q 256.8 224 256 224 Q 256 224 256 224 Q 256 224 256 224 Q 255.2 224 255.2 224 Q 210.4 223.2 176.8 197.6 Q 172 194.4 168 198.4 Q 164.8 204 168.8 208 Q 174.4 212 180 215.2 Q 180 215.2 180 215.2 Q 180 215.2 180 216 Q 172.8 231.2 172.8 249.6 Q 173.6 284.8 196.8 308.8 Q 220.8 332 256 332.8 Q 291.2 332 315.2 308.8 Q 338.4 284.8 339.2 249.6 Q 339.2 231.2 332 216 Q 332 216 332 215.2 Q 332 215.2 332 215.2 L 332 215.2 Z" />
</svg>