<svg xmlns="http://www.w3.org/2000/svg" viewBox="0 0 448 512">
  <path d="M 144 96 L 144 128 L 144 96 L 144 128 L 304 128 L 304 128 L 304 96 L 304 96 Q 303 62 281 39 Q 258 17 224 16 Q 190 17 167 39 Q 145 62 144 96 L 144 96 Z M 128 128 L 128 96 L 128 128 L 128 96 Q 129 55 156 28 Q 183 1 224 0 Q 265 1 292 28 Q 319 55 320 96 L 320 128 L 320 128 L 400 128 L 400 128 Q 420 129 434 142 Q 447 156 448 176 L 448 416 L 448 416 Q 447 457 420 484 Q 393 511 352 512 L 96 512 L 96 512 Q 55 511 28 484 Q 1 457 0 416 L 0 176 L 0 176 Q 1 156 14 142 Q 28 129 48 128 L 128 128 L 128 128 Z M 136 144 L 48 144 L 136 144 L 48 144 Q 34 144 25 153 Q 16 162 16 176 L 16 416 L 16 416 Q 17 450 39 473 Q 62 495 96 496 L 352 496 L 352 496 Q 386 495 409 473 Q 431 450 432 416 L 432 176 L 432 176 Q 432 162 423 153 Q 414 144 400 144 L 312 144 L 136 144 Z M 136 320 Q 137 313 144 312 L 216 312 L 216 312 L 216 240 L 216 240 Q 217 233 224 232 Q 231 233 232 240 L 232 312 L 232 312 L 304 312 L 304 312 Q 311 313 312 320 Q 311 327 304 328 L 232 328 L 232 328 L 232 400 L 232 400 Q 231 407 224 408 Q 217 407 216 400 L 216 328 L 216 328 L 144 328 L 144 328 Q 137 327 136 320 L 136 320 Z" />
</svg>