<svg xmlns="http://www.w3.org/2000/svg" viewBox="0 0 512 512">
  <path d="M 51.2 76.8 L 307.2 76.8 Q 323.2 77.6 334.4 88 Q 344.8 99.2 345.6 115.2 L 345.6 142.4 Q 352 140 358.4 140.8 L 358.4 115.2 Q 357.6 93.6 343.2 79.2 Q 328.8 64.8 307.2 64 L 51.2 64 Q 29.6 64.8 15.2 79.2 Q 0.8 93.6 0 115.2 L 0 371.2 Q 0.8 392.8 15.2 407.2 Q 29.6 421.6 51.2 422.4 L 270.4 422.4 Q 264.8 416 260 409.6 L 51.2 409.6 Q 35.2 408.8 24 398.4 Q 13.6 387.2 12.8 371.2 L 12.8 115.2 Q 13.6 99.2 24 88 Q 35.2 77.6 51.2 76.8 L 51.2 76.8 Z M 76.8 121.6 Q 76 116 70.4 115.2 Q 64.8 116 64 121.6 L 64 262.4 Q 64.8 268 70.4 268.8 Q 76 268 76.8 262.4 L 76.8 121.6 L 76.8 121.6 Z M 128 121.6 Q 127.2 116 121.6 115.2 Q 116 116 115.2 121.6 L 115.2 262.4 Q 116 268 121.6 268.8 Q 127.2 268 128 262.4 L 128 121.6 L 128 121.6 Z M 407.2 228 Q 413.6 228 417.6 223.2 Q 426.4 212 436 201.6 Q 464 228.8 481.6 262.4 Q 489.6 279.2 494.4 294.4 Q 499.2 309.6 499.2 320 Q 497.6 368.8 465.6 401.6 Q 432.8 433.6 384 435.2 Q 334.4 433.6 302.4 401.6 Q 269.6 368.8 268.8 320 Q 269.6 291.2 292.8 252.8 Q 316 214.4 355.2 179.2 Q 377.6 200 397.6 224 Q 401.6 228 407.2 228 L 407.2 228 Z M 398.4 205.6 Q 381.6 186.4 363.2 169.6 Q 359.2 166.4 355.2 166.4 Q 350.4 166.4 347.2 169.6 Q 306.4 205.6 281.6 245.6 Q 256.8 286.4 256 320 Q 257.6 374.4 292.8 410.4 Q 328.8 446.4 384 448 Q 438.4 446.4 474.4 410.4 Q 510.4 374.4 512 320 Q 512 307.2 506.4 290.4 Q 501.6 273.6 492.8 256.8 Q 474.4 220.8 444 192 Q 436 185.6 428 192 Q 421.6 198.4 415.2 205.6 Q 411.2 210.4 407.2 215.2 Q 403.2 210.4 398.4 205.6 L 398.4 205.6 Z M 353.6 243.2 Q 350.4 243.2 348 245.6 Q 328.8 269.6 318.4 287.2 Q 307.2 304 307.2 321.6 Q 308 357.6 330.4 377.6 Q 352.8 396.8 384.8 396.8 Q 410.4 396.8 432 383.2 L 432 383.2 L 432 382.4 Q 454.4 366.4 459.2 340.8 Q 464.8 314.4 452 289.6 L 452 289.6 L 452 289.6 Q 451.2 289.6 451.2 288.8 Q 448.8 284 444.8 278.4 Q 443.2 276 440 276 Q 436.8 276 435.2 277.6 L 408.8 308.8 L 405.6 304.8 L 387.2 281.6 Q 379.2 271.2 371.2 262.4 Q 364 252.8 360.8 248 Q 359.2 246.4 358.4 245.6 Q 356.8 243.2 353.6 243.2 L 353.6 243.2 Z M 408 319.2 L 403.2 323.2 Q 404.8 325.6 408 325.6 Q 411.2 325.6 412.8 323.2 L 439.2 292.8 Q 439.2 293.6 440 294.4 Q 440 295.2 440 296 L 440 296 L 440.8 296 Q 451.2 316.8 447.2 337.6 Q 442.4 359.2 424.8 372 Q 406.4 384 384.8 384 Q 356.8 384 339.2 368 Q 320.8 352 320 321.6 Q 320 308.8 328.8 293.6 Q 337.6 279.2 353.6 260 Q 355.2 262.4 357.6 265.6 Q 366.4 276 376.8 290.4 L 395.2 312.8 L 400.8 320.8 L 402.4 322.4 L 403.2 323.2 L 403.2 323.2 L 403.2 323.2 L 403.2 323.2 L 403.2 323.2 L 408 319.2 L 408 319.2 Z" />
</svg>