<svg xmlns="http://www.w3.org/2000/svg" viewBox="0 0 512 512">
  <path d="M 178.92044 242.42122 Q 202.883 242.42122 223.65054 230.43994 L 223.65054 230.43994 Q 244.41809 218.45866 256.39938 197.6911 Q 268.38065 176.92355 268.38065 152.961 Q 268.38065 128.99844 256.39938 108.23089 Q 244.41809 87.46334 223.65054 75.482056 Q 202.883 63.50078 178.92044 63.50078 Q 154.95789 63.50078 134.19032 75.482056 Q 113.422775 87.46334 101.4415 108.23089 Q 89.46022 128.99844 89.46022 152.961 Q 89.46022 176.92355 101.4415 197.6911 Q 113.422775 218.45866 134.19032 230.43994 Q 154.95789 242.42122 178.92044 242.42122 L 178.92044 242.42122 Z M 142.17784 306.32138 Q 87.063965 307.91888 51.120125 344.66147 L 51.120125 344.66147 Q 14.377535 380.60532 12.780031 435.71918 Q 13.578783 446.10297 23.962559 446.9017 L 322.6958 446.9017 Q 329.88455 453.29172 338.67084 459.68173 Q 336.27457 459.68173 333.87833 459.68173 L 23.962559 459.68173 Q 13.578783 459.68173 7.1887674 452.49298 Q 0 446.10297 0 435.71918 Q 1.5975039 375.8128 41.535103 335.07645 Q 82.271454 295.13885 142.17784 293.54135 L 215.66302 293.54135 Q 236.43057 293.54135 255.60062 299.1326 Q 256.39938 306.32138 257.19812 313.51013 Q 237.22932 306.32138 215.66302 306.32138 L 142.17784 306.32138 L 142.17784 306.32138 Z M 76.68018 152.961 Q 76.68018 125.00468 90.25897 101.84087 L 90.25897 101.84087 Q 103.83775 78.67707 127.80031 64.29953 Q 151.76286 50.72075 178.92044 50.72075 Q 206.078 50.72075 230.04056 64.29953 Q 254.00311 78.67707 267.5819 101.84087 Q 281.16068 125.00468 281.16068 152.961 Q 281.16068 180.91731 267.5819 204.08112 Q 254.00311 227.24493 230.04056 241.62247 Q 206.078 255.20125 178.92044 255.20125 Q 151.76286 255.20125 127.80031 241.62247 Q 103.83775 227.24493 90.25897 204.08112 Q 76.68018 180.91731 76.68018 152.961 L 76.68018 152.961 Z M 297.93448 281.56006 Q 293.9407 283.15756 293.9407 287.15134 Q 292.3432 324.69266 313.11078 371.0203 Q 333.07956 416.54913 389.79095 444.50546 L 389.79095 244.81747 L 297.93448 281.56006 L 297.93448 281.56006 Z M 498.4212 287.15134 Q 498.4212 283.15756 494.42746 281.56006 L 402.57098 244.81747 L 402.57098 444.50546 Q 459.28238 416.54913 479.25116 371.0203 Q 500.0187 324.69266 498.4212 287.15134 L 498.4212 287.15134 Z M 403.36972 231.2387 L 499.21997 269.5788 Q 510.4025 274.3713 511.20123 287.15134 Q 512 313.51013 502.41498 346.25897 Q 493.6287 379.0078 470.4649 409.36038 Q 446.50235 439.71295 403.36972 458.08423 Q 396.18097 461.27927 388.9922 458.08423 Q 345.8596 439.71295 321.89703 409.36038 Q 298.73322 379.0078 289.94696 346.25897 Q 280.36194 313.51013 281.16068 287.15134 Q 281.95944 274.3713 293.14197 269.5788 L 388.9922 231.2387 Q 396.18097 228.04369 403.36972 231.2387 L 403.36972 231.2387 Z" />
</svg>