<svg xmlns="http://www.w3.org/2000/svg" viewBox="0 0 640 448">
  <path d="M 160 16 Q 140 17 126 30 L 126 30 L 126 30 Q 113 44 112 64 L 112 114 L 112 114 Q 112 114 112 114 Q 113 114 113 114 Q 134 120 147 137 Q 160 153 160 176 Q 160 199 147 215 Q 134 232 113 238 Q 112 238 112 238 L 112 288 L 112 288 Q 113 308 126 322 Q 140 336 160 336 L 576 336 L 576 336 Q 596 336 610 322 Q 623 308 624 288 L 624 238 L 624 238 Q 624 238 624 238 Q 623 238 623 238 Q 602 232 589 215 Q 576 199 576 176 Q 576 153 589 137 Q 602 120 623 114 Q 624 114 624 114 L 624 64 L 624 64 Q 623 44 610 30 Q 596 17 576 16 L 160 16 L 160 16 Z M 160 0 L 576 0 L 160 0 L 576 0 Q 603 1 621 19 Q 639 37 640 64 L 640 115 L 640 115 Q 639 126 627 130 Q 612 134 602 147 Q 592 159 592 176 Q 592 193 602 205 Q 612 218 627 222 Q 639 226 640 237 L 640 288 L 640 288 Q 639 315 621 333 Q 603 351 576 352 L 160 352 L 160 352 Q 133 351 115 333 Q 97 315 96 288 L 96 237 L 96 237 Q 97 226 109 222 Q 124 218 134 205 Q 144 193 144 176 Q 144 159 134 147 Q 124 134 109 130 Q 97 126 96 115 L 96 64 L 96 64 Q 97 37 115 19 Q 133 1 160 0 L 160 0 Z M 8 56 Q 15 57 16 64 L 16 344 L 16 344 Q 17 381 42 406 Q 67 431 104 432 L 552 432 L 552 432 Q 559 433 560 440 Q 559 447 552 448 L 104 448 L 104 448 Q 60 447 30 418 Q 1 388 0 344 L 0 64 L 0 64 Q 1 57 8 56 L 8 56 Z M 240 96 Q 225 97 224 112 L 224 240 L 224 240 Q 225 255 240 256 L 496 256 L 496 256 Q 511 255 512 240 L 512 112 L 512 112 Q 511 97 496 96 L 240 96 L 240 96 Z M 208 112 Q 208 98 217 89 L 217 89 L 217 89 Q 226 80 240 80 L 496 80 L 496 80 Q 510 80 519 89 Q 528 98 528 112 L 528 240 L 528 240 Q 528 254 519 263 Q 510 272 496 272 L 240 272 L 240 272 Q 226 272 217 263 Q 208 254 208 240 L 208 112 L 208 112 Z" />
</svg>