<svg xmlns="http://www.w3.org/2000/svg" viewBox="0 0 648 512">
  <path d="M 172 16 Q 163 16 155 22 L 120 47 L 120 47 Q 112 52 112 62 Q 114 78 130 80 L 161 80 L 161 80 Q 181 81 192 94 Q 204 108 201 128 L 189 190 L 189 190 Q 177 255 199 317 Q 201 324 195 328 Q 188 329 184 323 Q 160 257 173 187 L 185 124 L 185 124 Q 187 113 180 105 Q 173 96 161 96 L 130 96 L 130 96 Q 116 96 106 86 Q 96 76 96 62 Q 96 44 110 34 L 146 9 L 146 9 Q 157 0 172 0 Q 208 1 231 25 Q 255 48 256 84 L 256 128 L 256 128 L 256 158 L 256 158 Q 257 200 285 227 Q 312 255 354 256 L 364 256 L 364 256 Q 427 257 466 307 L 488 336 L 488 336 Q 500 352 520 352 Q 547 350 557 329 Q 568 307 552 285 L 521 247 L 521 247 Q 512 237 513 224 Q 514 212 523 202 Q 543 184 567 199 L 598 222 L 598 222 Q 647 261 648 323 Q 647 376 611 411 Q 576 447 523 448 L 480 448 L 480 448 L 480 472 L 480 472 Q 480 489 468 500 Q 457 512 440 512 L 417 512 L 417 512 Q 387 510 378 482 L 370 448 L 370 448 L 302 448 L 302 448 L 294 482 L 294 482 Q 285 510 255 512 L 232 512 L 232 512 Q 215 512 204 500 Q 192 489 192 472 L 192 448 L 192 448 Q 151 445 124 417 Q 97 389 96 347 L 96 280 L 96 280 Q 94 258 72 256 L 34 256 L 34 256 Q 20 256 10 246 Q 0 236 0 222 Q 0 204 14 194 L 48 170 L 48 170 Q 62 160 78 160 L 80 160 L 80 160 Q 116 161 141 182 Q 139 192 138 201 Q 116 177 80 176 L 78 176 L 78 176 Q 67 176 57 183 L 24 207 L 24 207 Q 16 212 16 222 Q 18 238 34 240 L 72 240 L 72 240 Q 89 240 100 252 Q 112 263 112 280 L 112 347 L 112 347 Q 113 383 137 407 Q 161 431 197 432 L 200 432 L 200 432 Q 207 433 208 440 L 208 472 L 208 472 Q 210 494 232 496 L 255 496 L 255 496 Q 273 495 278 478 L 288 438 L 288 438 Q 290 432 296 432 L 376 432 L 376 432 Q 382 432 384 438 L 394 478 L 394 478 Q 399 495 417 496 L 440 496 L 440 496 Q 462 494 464 472 L 464 440 L 464 440 Q 465 433 472 432 L 523 432 L 523 432 Q 569 431 600 400 Q 631 369 632 323 Q 631 269 588 235 L 557 212 L 557 212 Q 545 204 534 213 Q 524 225 533 237 L 564 275 L 564 275 Q 586 305 572 335 Q 558 366 520 368 Q 492 367 475 345 L 454 317 L 454 317 Q 419 273 364 272 L 354 272 L 354 272 Q 305 271 273 239 Q 241 207 240 158 L 240 128 L 240 128 L 240 84 L 240 84 Q 239 55 220 36 Q 201 17 172 16 L 172 16 Z M 352 184 L 352 224 L 352 184 L 352 224 Q 344 224 336 222 L 336 184 L 336 184 Q 336 167 348 156 Q 359 144 376 144 L 414 144 L 414 144 Q 430 142 432 126 Q 432 116 424 111 L 392 88 L 392 88 Q 381 80 369 80 L 360 80 L 360 80 Q 336 80 317 93 Q 298 105 288 125 L 288 97 L 288 97 Q 316 65 360 64 L 369 64 L 369 64 Q 387 64 401 75 L 434 98 L 434 98 Q 448 108 448 126 Q 448 140 438 150 Q 428 160 414 160 L 376 160 L 376 160 Q 354 162 352 184 L 352 184 Z" />
</svg>