<svg xmlns="http://www.w3.org/2000/svg" viewBox="0 0 644 516">
  <path d="M 15 4 Q 9 0 4 5 Q 0 11 5 16 L 629 512 L 629 512 Q 635 516 640 511 Q 644 505 639 500 L 15 4 L 15 4 Z M 469 466 L 98 466 L 469 466 L 98 466 Q 78 465 64 452 Q 51 438 50 418 L 50 135 L 50 135 L 34 122 L 34 122 L 34 418 L 34 418 Q 35 445 53 463 Q 71 481 98 482 L 490 482 L 490 482 L 469 466 L 469 466 Z M 546 34 L 155 34 L 546 34 L 155 34 L 175 50 L 175 50 L 546 50 L 546 50 Q 566 51 580 64 Q 593 78 594 98 L 594 381 L 594 381 L 610 394 L 610 394 L 610 98 L 610 98 Q 609 71 591 53 Q 573 35 546 34 L 546 34 Z M 459 274 L 479 290 L 459 274 L 479 290 L 498 290 L 498 290 Q 505 289 506 282 Q 505 275 498 274 L 459 274 L 459 274 Z M 146 274 Q 139 275 138 282 Q 139 289 146 290 L 246 290 L 246 290 L 226 274 L 226 274 L 146 274 L 146 274 Z M 306 370 Q 299 371 298 378 Q 299 385 306 386 L 368 386 L 368 386 L 348 370 L 348 370 L 306 370 L 306 370 Z M 146 370 Q 139 371 138 378 Q 139 385 146 386 L 242 386 L 242 386 Q 249 385 250 378 Q 249 371 242 370 L 146 370 L 146 370 Z" />
</svg>