<svg xmlns="http://www.w3.org/2000/svg" viewBox="0 0 480 504">
  <path d="M 362 88 Q 369 85 368 78 L 362 57 L 362 57 Q 357 35 340 21 Q 323 6 301 3 L 273 0 L 273 0 Q 266 0 264 7 Q 264 14 271 16 L 299 19 L 299 19 Q 336 25 347 61 L 352 82 L 352 82 Q 355 89 362 88 L 362 88 Z M 7 368 Q 0 370 0 377 L 2 392 L 2 392 Q 5 417 22 434 Q 39 451 64 454 L 79 456 L 79 456 Q 86 456 88 449 Q 88 442 81 440 L 66 438 L 66 438 Q 47 436 34 422 Q 20 409 18 390 L 16 375 L 16 375 Q 14 368 7 368 L 7 368 Z M 148 76 Q 133 64 115 64 L 115 64 L 115 64 Q 97 65 83 78 Q 70 92 69 111 Q 68 129 81 144 Q 63 144 49 158 Q 35 172 35 191 Q 35 211 49 225 L 69 245 L 69 245 Q 51 246 38 259 Q 24 274 24 293 Q 23 312 37 327 L 161 452 L 161 452 Q 210 500 278 504 Q 279 504 280 504 L 295 504 L 295 504 Q 373 503 426 451 Q 478 399 480 320 L 480 136 L 480 136 Q 479 116 466 102 Q 452 89 432 88 Q 412 89 398 102 Q 385 116 384 136 L 384 198 L 384 198 L 230 44 L 230 44 Q 215 30 196 30 Q 177 30 162 44 Q 149 58 148 76 L 148 76 Z M 281 488 Q 281 488 280 488 Q 217 485 172 440 L 49 316 L 49 316 Q 40 306 40 293 Q 40 281 49 271 Q 59 261 72 261 Q 84 261 94 271 Q 94 271 94 271 Q 94 271 94 271 L 173 349 L 173 349 Q 178 354 184 349 Q 188 343 184 338 L 92 246 L 92 246 L 92 246 L 92 246 L 60 214 L 60 214 Q 51 204 51 191 Q 51 179 60 169 Q 70 159 83 159 Q 96 159 106 169 Q 106 169 106 169 Q 106 169 106 169 L 175 238 L 175 238 L 229 292 L 229 292 Q 235 297 240 292 Q 245 287 240 281 L 186 226 L 186 226 Q 186 226 186 226 L 94 135 L 94 135 Q 85 125 85 112 Q 85 99 94 90 Q 104 80 117 80 Q 130 80 140 90 L 149 98 L 149 98 L 149 99 L 149 99 L 286 236 L 286 236 L 286 236 L 286 236 L 288 238 L 288 238 Q 290 240 293 240 Q 293 240 293 240 Q 293 240 293 240 Q 299 240 301 235 Q 303 230 299 226 L 174 101 L 174 101 Q 164 91 164 78 Q 164 65 174 56 Q 183 46 196 46 Q 209 46 219 56 L 386 223 L 386 223 Q 390 227 395 225 Q 400 223 400 218 L 400 136 L 400 136 Q 400 122 409 113 Q 418 104 432 104 Q 446 104 455 113 Q 464 122 464 136 L 464 320 L 464 320 Q 462 392 414 439 Q 366 487 295 488 L 281 488 L 281 488 Z" />
</svg>