<svg xmlns="http://www.w3.org/2000/svg" viewBox="0 0 512 512">
  <path d="M 6.4 51.2 Q 0.8 52 0 57.6 Q 0.8 63.2 6.4 64 L 46.4 64 L 121.6 353.6 Q 123.2 358.4 128 358.4 L 256.8 358.4 Q 256 352 256 345.6 L 132.8 345.6 L 116 281.6 L 271.2 281.6 Q 274.4 275.2 279.2 268.8 L 112.8 268.8 L 66.4 89.6 L 433.6 89.6 Q 448 91.2 445.6 105.6 L 417.6 206.4 Q 424 207.2 430.4 208.8 L 458.4 109.6 Q 460.8 96.8 453.6 87.2 Q 446.4 77.6 433.6 76.8 L 63.2 76.8 L 57.6 56 Q 56 51.2 51.2 51.2 L 6.4 51.2 L 6.4 51.2 Z M 140.8 396.8 Q 152 396.8 159.2 404 L 159.2 404 Q 166.4 411.2 166.4 422.4 Q 166.4 433.6 159.2 440.8 Q 152 448 140.8 448 Q 129.6 448 122.4 440.8 Q 115.2 433.6 115.2 422.4 Q 115.2 411.2 122.4 404 Q 129.6 396.8 140.8 396.8 L 140.8 396.8 Z M 140.8 460.8 Q 162.4 460 174.4 441.6 Q 184 422.4 174.4 403.2 Q 162.4 384.8 140.8 384 Q 119.2 384.8 107.2 403.2 Q 97.6 422.4 107.2 441.6 Q 119.2 460 140.8 460.8 L 140.8 460.8 Z M 396.8 243.2 Q 424.8 243.2 448 256.8 L 448 256.8 Q 471.2 270.4 485.6 294.4 Q 499.2 318.4 499.2 345.6 Q 499.2 372.8 485.6 396.8 Q 471.2 420.8 448 434.4 Q 424.8 448 396.8 448 Q 368.8 448 345.6 434.4 Q 322.4 420.8 308 396.8 Q 294.4 372.8 294.4 345.6 Q 294.4 318.4 308 294.4 Q 322.4 270.4 345.6 256.8 Q 368.8 243.2 396.8 243.2 L 396.8 243.2 Z M 396.8 460.8 Q 428 460.8 454.4 445.6 L 454.4 445.6 Q 480.8 430.4 496.8 403.2 Q 512 376 512 345.6 Q 512 315.2 496.8 288 Q 480.8 260.8 454.4 245.6 Q 428 230.4 396.8 230.4 Q 365.6 230.4 339.2 245.6 Q 312.8 260.8 296.8 288 Q 281.6 315.2 281.6 345.6 Q 281.6 376 296.8 403.2 Q 312.8 430.4 339.2 445.6 Q 365.6 460.8 396.8 460.8 L 396.8 460.8 Z M 452.8 308.8 Q 448 305.6 443.2 308.8 L 384 368.8 L 350.4 334.4 Q 345.6 331.2 340.8 334.4 Q 337.6 339.2 340.8 344 L 379.2 382.4 Q 384 385.6 388.8 382.4 L 452.8 318.4 Q 456 313.6 452.8 308.8 L 452.8 308.8 Z" />
</svg>