<svg xmlns="http://www.w3.org/2000/svg" viewBox="0 0 512 512">
  <path d="M 64 8 Q 65 1 72 0 L 104 0 L 408 0 L 440 0 Q 447 1 448 8 Q 447 15 440 16 L 416 16 L 416 77 Q 416 123 388 159 L 314 256 L 388 353 Q 416 389 416 435 L 416 496 L 440 496 Q 447 497 448 504 Q 447 511 440 512 L 408 512 L 104 512 L 72 512 Q 65 511 64 504 Q 65 497 72 496 L 96 496 L 96 435 Q 96 389 124 353 L 198 256 L 124 159 Q 96 123 96 77 L 96 16 L 72 16 Q 65 15 64 8 L 64 8 Z M 112 16 L 112 77 Q 112 117 137 150 L 214 251 Q 218 256 214 261 L 137 362 Q 112 395 112 435 L 112 496 L 400 496 L 400 435 Q 400 395 375 362 L 298 261 Q 294 256 298 251 L 375 150 Q 400 117 400 77 L 400 16 L 112 16 L 112 16 Z M 177 124 Q 179 120 184 120 L 328 120 Q 333 120 335 124 Q 337 129 334 133 L 262 229 Q 260 232 256 232 Q 252 232 250 229 L 178 133 Q 175 129 177 124 L 177 124 Z M 200 136 L 256 211 L 312 136 L 200 136 L 200 136 Z M 178 379 Q 180 376 184 376 L 328 376 Q 332 376 334 379 L 346 394 Q 360 413 360 437 L 360 456 Q 359 463 352 464 L 160 464 Q 153 463 152 456 L 152 437 Q 152 413 166 394 L 178 379 L 178 379 Z M 188 392 L 179 404 Q 168 419 168 437 L 168 448 L 344 448 L 344 437 Q 344 419 333 404 L 324 392 L 188 392 L 188 392 Z" />
</svg>