<svg xmlns="http://www.w3.org/2000/svg" viewBox="0 0 512 512">
  <path d="M 251.58621 32.662067 Q 256 29.131035 260.4138 32.662067 L 340.74484 103.28276 L 340.74484 80.33103 Q 342.51035 60.910343 361.93103 59.14483 L 432.55173 59.14483 Q 451.9724 60.910343 453.73795 80.33103 L 453.73795 203.91724 L 507.5862 251.58621 Q 512 256 508.46896 261.29654 Q 504.05518 265.71036 498.7586 262.17932 L 453.73795 222.45517 L 453.73795 426.3724 Q 452.85516 450.2069 436.9655 466.09656 Q 421.07587 481.9862 397.2414 482.86896 L 114.75862 482.86896 Q 90.92414 481.9862 75.034485 466.09656 Q 59.14483 450.2069 58.26207 426.3724 L 58.26207 222.45517 L 13.24138 262.17932 Q 7.9448276 265.71036 3.5310345 261.29654 Q 0 256 4.413793 251.58621 L 251.58621 32.662067 L 251.58621 32.662067 Z M 439.6138 191.55862 L 439.6138 80.33103 Q 438.73105 74.151726 432.55173 73.26897 L 361.93103 73.26897 Q 355.7517 74.151726 354.86896 80.33103 L 354.86896 116.52414 L 439.6138 191.55862 L 439.6138 191.55862 Z M 340.74484 122.703445 L 256 47.668964 L 72.38621 210.09656 L 72.38621 426.3724 Q 73.26897 444.0276 84.74483 456.3862 Q 97.10345 467.86206 114.75862 468.74484 L 397.2414 468.74484 Q 414.89655 467.86206 427.25516 456.3862 Q 438.73105 444.0276 439.6138 426.3724 L 439.6138 210.09656 L 340.74484 122.703445 L 340.74484 122.703445 L 340.74484 122.703445 L 340.74484 122.703445 Z M 241.87585 207.44827 Q 235.69655 208.33104 234.8138 214.51035 L 234.8138 256.88275 Q 234.8138 259.53104 233.04828 262.17932 Q 230.4 263.94482 227.75172 263.94482 L 185.3793 263.94482 Q 179.2 264.82758 178.31725 271.0069 L 178.31725 299.25516 Q 179.2 305.43448 185.3793 306.31723 L 227.75172 306.31723 Q 233.93103 307.2 234.8138 313.3793 L 234.8138 355.7517 Q 235.69655 361.93103 241.87585 362.81378 L 270.12415 362.81378 Q 276.30344 361.93103 277.18622 355.7517 L 277.18622 313.3793 Q 278.06897 307.2 284.2483 306.31723 L 326.6207 306.31723 Q 332.8 305.43448 333.68277 299.25516 L 333.68277 271.0069 Q 332.8 264.82758 326.6207 263.94482 L 284.2483 263.94482 Q 278.06897 263.06207 277.18622 256.88275 L 277.18622 214.51035 Q 276.30344 208.33104 270.12415 207.44827 L 241.87585 207.44827 L 241.87585 207.44827 Z M 220.68965 214.51035 Q 222.45517 195.08966 241.87585 193.32414 L 270.12415 193.32414 Q 289.54483 195.08966 291.31033 214.51035 L 291.31033 249.8207 L 326.6207 249.8207 Q 346.04138 251.58621 347.8069 271.0069 L 347.8069 299.25516 Q 346.04138 318.67587 326.6207 320.44138 L 291.31033 320.44138 L 291.31033 355.7517 Q 289.54483 375.17242 270.12415 376.93793 L 241.87585 376.93793 Q 222.45517 375.17242 220.68965 355.7517 L 220.68965 320.44138 L 185.3793 320.44138 Q 165.95862 318.67587 164.1931 299.25516 L 164.1931 271.0069 Q 165.95862 251.58621 185.3793 249.8207 L 220.68965 249.8207 L 220.68965 214.51035 L 220.68965 214.51035 Z" />
</svg>