<svg xmlns="http://www.w3.org/2000/svg" viewBox="0 0 256 512">
  <path d="M 96 0 Q 82 0 73 9 L 73 9 L 73 9 Q 64 18 64 32 L 64 92 L 64 92 Q 58 94 52 97 L 39 103 L 39 103 Q 2 122 0 164 Q 1 192 19 211 Q 1 229 0 256 Q 1 286 22 304 Q 1 322 0 352 Q 1 382 22 400 Q 1 418 0 448 Q 1 475 19 493 Q 37 511 64 512 L 192 512 L 192 512 Q 219 511 237 493 Q 255 475 256 448 Q 255 418 234 400 Q 255 382 256 352 Q 255 322 234 304 Q 255 286 256 256 Q 255 229 237 211 Q 255 192 256 164 Q 254 122 217 103 L 204 97 L 204 97 Q 198 94 192 92 L 192 32 L 192 32 Q 192 18 183 9 Q 174 0 160 0 L 96 0 L 96 0 Z M 165 104 Q 182 104 197 111 L 210 117 L 210 117 Q 239 132 240 164 Q 239 190 220 205 Q 217 207 217 211 Q 218 215 221 217 Q 239 232 240 256 Q 239 283 217 297 Q 213 300 213 304 Q 213 309 217 311 Q 239 325 240 352 Q 239 379 217 393 Q 213 396 213 400 Q 213 405 217 407 Q 239 421 240 448 Q 239 468 226 482 Q 212 496 192 496 L 64 496 L 64 496 Q 44 495 30 482 Q 17 468 16 448 Q 17 421 39 407 Q 43 405 43 400 Q 43 396 39 393 Q 17 379 16 352 Q 17 325 39 311 Q 43 309 43 304 Q 43 300 39 297 Q 17 283 16 256 Q 17 231 35 217 Q 39 215 39 211 Q 39 207 36 205 Q 17 190 16 164 Q 17 132 46 117 L 59 111 L 59 111 Q 74 104 91 104 L 165 104 L 165 104 Z M 165 88 L 91 88 L 165 88 L 80 88 L 80 32 L 80 32 Q 81 17 96 16 L 160 16 L 160 16 Q 175 17 176 32 L 176 88 L 176 88 L 165 88 L 165 88 Z M 64 216 Q 65 223 72 224 L 184 224 L 184 224 Q 191 223 192 216 Q 191 209 184 208 L 72 208 L 72 208 Q 65 209 64 216 L 64 216 Z M 72 368 Q 65 369 64 376 Q 65 383 72 384 L 184 384 L 184 384 Q 191 383 192 376 Q 191 369 184 368 L 72 368 L 72 368 Z" />
</svg>