<svg xmlns="http://www.w3.org/2000/svg" viewBox="0 0 496 512">
  <path d="M 64 496 L 144 496 L 64 496 L 144 496 L 144 512 L 144 512 L 64 512 L 64 512 Q 37 511 19 493 Q 1 475 0 448 L 0 64 L 0 64 Q 1 37 19 19 Q 37 1 64 0 L 204 0 L 204 0 Q 224 0 238 14 L 370 146 L 370 146 Q 384 160 384 180 L 384 304 L 384 304 L 368 304 L 368 304 L 368 180 L 368 180 Q 368 178 368 176 Q 368 176 368 176 L 248 176 L 248 176 Q 231 176 220 164 Q 208 153 208 136 L 208 16 L 208 16 Q 206 16 204 16 L 64 16 L 64 16 Q 44 17 30 30 Q 17 44 16 64 L 16 448 L 16 448 Q 17 468 30 482 Q 44 495 64 496 L 64 496 Z M 361 160 Q 360 159 359 157 L 227 25 L 227 25 Q 225 24 224 23 L 224 136 L 224 136 Q 226 158 248 160 L 361 160 L 361 160 Z M 216 376 Q 216 390 224 401 L 240 426 L 240 426 L 257 401 L 257 401 Q 264 390 264 376 Q 265 369 272 368 Q 279 369 280 376 Q 280 394 270 410 L 250 440 L 250 440 L 270 470 L 270 470 Q 280 486 280 504 Q 279 511 272 512 Q 265 511 264 504 Q 264 490 257 479 L 240 454 L 240 454 L 224 479 L 224 479 Q 216 490 216 504 Q 215 511 208 512 Q 201 511 200 504 Q 200 486 210 470 L 230 440 L 230 440 L 210 410 L 210 410 Q 200 394 200 376 Q 201 369 208 368 Q 215 369 216 376 L 216 376 Z M 328 504 L 328 376 L 328 504 L 328 376 Q 329 369 336 368 Q 343 369 344 376 L 344 496 L 344 496 L 384 496 L 384 496 Q 391 497 392 504 Q 391 511 384 512 L 336 512 L 336 512 Q 329 511 328 504 L 328 504 Z M 416 406 Q 416 390 427 379 L 427 379 L 427 379 Q 438 368 454 368 L 480 368 L 480 368 Q 487 369 488 376 Q 487 383 480 384 L 454 384 L 454 384 Q 434 386 432 406 Q 432 419 444 425 L 475 441 L 475 441 Q 495 452 496 474 Q 496 490 485 501 Q 474 512 458 512 L 432 512 L 432 512 Q 425 511 424 504 Q 425 497 432 496 L 458 496 L 458 496 Q 478 494 480 474 Q 480 461 468 455 L 437 439 L 437 439 Q 417 428 416 406 L 416 406 Z" />
</svg>