<svg xmlns="http://www.w3.org/2000/svg" viewBox="0 0 512 512">
  <path d="M 390.80618 48.740993 L 312.64493 93.530014 Q 302.10635 101.43396 307.37564 112.85077 L 391.6844 259.51288 Q 398.7101 270.05145 411.00516 264.78217 L 489.16638 219.11493 Q 499.705 212.08919 494.43567 199.79417 L 410.12692 54.010292 Q 403.1012 43.4717 390.80618 48.740993 L 390.80618 48.740993 Z M 300.3499 129.53688 L 67.62264 277.07718 Q 57.962265 284.98114 63.23156 295.5197 L 110.655235 378.95026 Q 118.55917 389.48886 129.97598 384.21954 L 215.16295 337.6741 Q 201.98972 320.10977 201.98972 296.39795 Q 202.86792 266.5386 222.18867 246.33963 Q 242.38765 227.01888 272.247 226.14066 Q 302.10635 227.01888 322.30533 246.33963 Q 341.62607 266.5386 342.5043 296.39795 Q 341.62607 330.64838 317.036 350.84735 L 369.72897 469.40652 Q 372.36365 475.55402 366.21613 478.1887 Q 360.0686 480.82333 357.43396 474.6758 L 304.741 358.75128 Q 289.8113 366.65524 272.247 366.65524 Q 254.68268 366.65524 239.753 358.75128 L 187.06003 474.6758 Q 184.42538 480.82333 178.27788 478.1887 Q 172.13036 475.55402 174.76501 469.40652 L 227.45798 350.84735 Q 227.45798 349.96912 226.57976 349.96912 Q 225.70154 349.0909 225.70154 348.2127 L 137.00171 396.5146 Q 126.46312 401.78387 115.92453 399.14923 Q 104.50772 395.63635 99.23842 385.97598 L 50.936535 302.54544 Q 45.66724 292.88507 48.301888 282.3465 Q 50.936535 271.8079 60.596912 264.78217 L 293.3242 117.24185 Q 286.29846 95.286446 305.6192 82.113205 L 383.78046 36.44597 Q 394.31903 31.176672 404.85764 33.81132 Q 416.27444 36.44597 422.42197 46.984562 L 506.7307 192.76843 Q 512 203.30704 509.36536 213.84563 Q 506.7307 225.26244 496.1921 231.40994 L 418.03088 276.19897 Q 407.49228 282.3465 396.95367 278.83362 Q 385.53687 276.19897 379.38937 266.5386 L 379.38937 265.66037 L 341.62607 285.85934 Q 340.74786 278.83362 338.11322 271.8079 L 372.36365 253.36536 L 300.3499 129.53688 L 300.3499 129.53688 Z M 272.247 352.60376 Q 303.8628 351.72556 320.5489 324.50085 Q 336.35678 296.39795 320.5489 268.295 Q 303.8628 241.07033 272.247 240.19211 Q 240.63121 241.07033 223.94511 268.295 Q 208.13722 296.39795 223.94511 324.50085 Q 240.63121 351.72556 272.247 352.60376 L 272.247 352.60376 Z M 54.449398 308.69296 L 61.47513 320.988 L 22.83362 343.82162 Q 17.564322 347.33447 20.19897 352.60376 L 43.03259 392.1235 Q 46.545456 397.3928 52.692966 394.75815 L 91.33448 372.80273 L 98.36021 385.09778 L 59.718697 407.05316 Q 42.154373 414.95712 30.737564 399.14923 L 7.903945 359.62952 Q 0 342.0652 15.80789 331.52658 L 54.449398 308.69296 L 54.449398 308.69296 Z" />
</svg>