<svg xmlns="http://www.w3.org/2000/svg" viewBox="0 0 448 512">
  <path d="M 224 16 Q 258 17 281 39 L 281 39 L 281 39 Q 303 62 304 96 L 304 128 L 304 128 L 144 128 L 144 128 L 144 96 L 144 96 Q 145 62 167 39 Q 190 17 224 16 L 224 16 Z M 128 96 L 128 128 L 128 96 L 128 128 L 48 128 L 48 128 Q 28 129 14 142 Q 1 156 0 176 L 0 416 L 0 416 Q 1 457 28 484 Q 55 511 96 512 L 352 512 L 352 512 Q 393 511 420 484 Q 447 457 448 416 L 448 176 L 448 176 Q 447 156 434 142 Q 420 129 400 128 L 320 128 L 320 128 L 320 96 L 320 96 Q 319 55 292 28 Q 265 1 224 0 Q 183 1 156 28 Q 129 55 128 96 L 128 96 Z M 48 144 L 136 144 L 48 144 L 400 144 Q 414 144 423 153 Q 432 162 432 176 L 432 416 L 432 416 Q 431 450 409 473 Q 386 495 352 496 L 96 496 L 96 496 Q 62 495 39 473 Q 17 450 16 416 L 16 176 L 16 176 Q 16 162 25 153 Q 34 144 48 144 L 48 144 Z M 144 312 Q 137 313 136 320 Q 137 327 144 328 L 304 328 L 304 328 Q 311 327 312 320 Q 311 313 304 312 L 144 312 L 144 312 Z" />
</svg>