<svg xmlns="http://www.w3.org/2000/svg" viewBox="0 0 322 520">
  <path d="M 163 152 L 162 152 L 163 152 L 147 152 Q 103 153 79 191 L 20 288 L 20 288 Q 14 301 26 310 Q 39 316 48 304 L 76 257 L 76 257 Q 83 247 94 250 Q 105 253 106 265 L 106 296 L 106 296 Q 106 296 106 296 Q 106 296 106 296 Q 106 296 106 296 Q 106 296 106 296 L 106 376 L 106 376 L 154 376 L 290 376 Q 305 375 306 360 L 306 328 L 306 328 Q 305 298 287 277 Q 270 256 241 250 Q 231 247 229 237 L 222 200 L 222 200 Q 217 179 202 165 Q 186 152 164 152 Q 164 152 164 152 Q 163 152 163 152 Q 163 152 163 152 Q 163 152 163 152 L 163 152 Z M 106 392 L 106 488 L 106 392 L 106 488 Q 107 503 122 504 Q 137 503 138 488 L 138 392 L 138 392 L 106 392 L 106 392 Z M 154 392 L 154 408 L 154 392 L 154 408 L 154 488 L 154 488 Q 154 502 145 511 Q 136 520 122 520 Q 108 520 99 511 Q 90 502 90 488 L 90 296 L 90 296 Q 90 296 90 296 Q 90 296 90 296 Q 90 296 90 296 Q 90 296 90 296 L 90 265 L 90 265 L 74 292 L 74 292 L 61 313 L 61 313 Q 54 324 42 327 Q 29 330 18 323 Q 6 316 3 304 Q 0 291 7 280 L 65 183 L 65 183 Q 78 161 100 148 Q 122 136 147 136 L 162 136 L 162 136 Q 162 136 162 136 Q 163 136 163 136 Q 164 136 164 136 Q 192 136 212 153 Q 232 170 237 197 L 244 234 L 244 234 Q 278 241 300 266 Q 321 292 322 328 L 322 360 L 322 360 Q 322 374 313 383 Q 304 392 290 392 L 274 392 L 234 392 L 234 408 L 234 408 L 234 488 L 234 488 Q 234 502 225 511 Q 216 520 202 520 Q 188 520 179 511 Q 170 502 170 488 L 170 408 L 170 408 L 170 392 L 170 392 L 162 392 L 154 392 Z M 186 392 L 186 488 L 186 392 L 186 488 Q 187 503 202 504 Q 217 503 218 488 L 218 392 L 218 392 L 186 392 L 186 392 Z M 106 64 Q 107 32 134 16 Q 162 0 190 16 Q 217 32 218 64 Q 217 96 190 112 Q 162 128 134 112 Q 107 96 106 64 L 106 64 Z M 202 64 Q 201 41 182 29 Q 162 19 142 29 Q 123 41 122 64 Q 123 87 142 99 Q 162 109 182 99 Q 201 87 202 64 L 202 64 Z" />
</svg>