<svg xmlns="http://www.w3.org/2000/svg" viewBox="0 0 640 512">
  <path d="M 8 0 Q 1 1 0 8 Q 1 15 8 16 L 80 16 L 80 16 L 80 96 L 80 96 L 48 96 L 48 96 Q 28 97 14 110 Q 1 124 0 144 L 0 368 L 0 368 Q 1 388 14 402 Q 28 415 48 416 L 64 416 L 64 416 Q 64 420 64 424 Q 65 461 90 486 Q 115 511 152 512 Q 189 511 214 486 Q 239 461 240 424 Q 240 420 240 416 L 400 416 L 400 416 Q 400 420 400 424 Q 401 461 426 486 Q 451 511 488 512 Q 525 511 550 486 Q 575 461 576 424 Q 576 420 576 416 L 592 416 L 592 416 Q 612 415 626 402 Q 639 388 640 368 L 640 144 L 640 144 Q 639 124 626 110 Q 612 97 592 96 L 560 96 L 560 96 L 560 88 L 560 88 Q 559 71 548 60 Q 537 48 520 48 Q 503 48 492 60 Q 480 71 480 88 L 480 96 L 480 96 L 384 96 L 384 96 L 384 16 L 384 16 L 632 16 L 632 16 Q 639 15 640 8 Q 639 1 632 0 L 8 0 L 8 0 Z M 368 16 L 368 96 L 368 16 L 368 96 L 288 96 L 288 96 L 288 16 L 288 16 L 368 16 L 368 16 Z M 272 16 L 272 96 L 272 16 L 272 96 L 192 96 L 192 96 L 192 16 L 192 16 L 272 16 L 272 16 Z M 176 16 L 176 96 L 176 16 L 176 96 L 96 96 L 96 96 L 96 16 L 96 16 L 176 16 L 176 16 Z M 544 96 L 496 96 L 544 96 L 496 96 L 496 88 L 496 88 Q 498 66 520 64 Q 542 66 544 88 L 544 96 L 544 96 Z M 544 112 L 560 112 L 544 112 L 592 112 Q 606 112 615 121 Q 624 130 624 144 L 624 368 L 624 368 Q 624 382 615 391 Q 606 400 592 400 L 573 400 L 573 400 Q 564 372 542 354 Q 519 337 488 336 Q 457 337 434 354 Q 412 372 403 400 L 237 400 L 237 400 Q 228 372 206 354 Q 183 337 152 336 Q 121 337 98 354 Q 76 372 67 400 L 48 400 L 48 400 Q 34 400 25 391 Q 16 382 16 368 L 16 272 L 16 272 L 400 272 L 400 272 Q 414 272 423 263 Q 432 254 432 240 L 432 112 L 432 112 L 480 112 L 544 112 Z M 416 112 L 416 240 L 416 112 L 416 240 Q 415 255 400 256 L 16 256 L 16 256 L 16 144 L 16 144 Q 16 130 25 121 Q 34 112 48 112 L 416 112 L 416 112 Z M 568 160 Q 575 161 576 168 L 576 248 L 576 248 Q 575 255 568 256 L 488 256 L 488 256 Q 481 255 480 248 L 480 168 L 480 168 Q 481 161 488 160 L 568 160 L 568 160 Z M 488 144 Q 466 146 464 168 L 464 248 L 464 248 Q 466 270 488 272 L 568 272 L 568 272 Q 590 270 592 248 L 592 168 L 592 168 Q 590 146 568 144 L 488 144 L 488 144 Z M 152 352 Q 193 353 214 388 Q 234 424 214 460 Q 193 495 152 496 Q 111 495 90 460 Q 70 424 90 388 Q 111 353 152 352 L 152 352 Z M 416 424 Q 417 383 452 362 Q 488 342 524 362 Q 559 383 560 424 Q 559 465 524 486 Q 488 506 452 486 Q 417 465 416 424 L 416 424 Z" />
</svg>