<svg xmlns="http://www.w3.org/2000/svg" viewBox="0 0 512 512">
  <path d="M 362.66666 56.88889 L 35.555557 56.88889 Q 16 58.666668 14.222222 78.22222 L 14.222222 99.55556 Q 16 177.77777 68.44444 230.22223 Q 120.888885 282.66666 199.11111 284.44446 Q 202.66667 284.44446 206.22223 284.44446 Q 203.55556 291.55554 202.66667 298.66666 Q 200.88889 298.66666 199.11111 298.66666 Q 167.11111 298.66666 137.77777 288.8889 L 116.44444 336 Q 128 344 134.22223 355.55554 L 201.77777 355.55554 Q 202.66667 362.66666 205.33333 369.77777 L 140.44444 369.77777 Q 142.22223 376.8889 142.22223 384 Q 141.33333 408 125.333336 424 Q 109.333336 440 85.333336 440.8889 Q 61.333332 440 45.333332 424 Q 29.333334 408 28.444445 384 Q 29.333334 360 45.333332 344 Q 61.333332 328 85.333336 327.1111 Q 95.111115 327.1111 103.111115 329.77777 L 124.44444 283.55554 Q 68.44444 261.33334 34.666668 212.44444 Q 0.8888889 162.66667 0 99.55556 L 0 78.22222 Q 0 63.11111 10.666667 53.333332 Q 20.444445 42.666668 35.555557 42.666668 L 362.66666 42.666668 Q 377.77777 42.666668 387.55554 53.333332 Q 398.22223 63.11111 398.22223 78.22222 L 398.22223 99.55556 Q 398.22223 131.55556 388.44446 160.88889 Q 383.1111 155.55556 376.8889 149.33333 Q 384 125.333336 384 99.55556 L 384 78.22222 Q 382.22223 58.666668 362.66666 56.88889 L 362.66666 56.88889 Z M 85.333336 426.66666 Q 109.333336 425.77777 122.666664 405.33334 Q 133.33333 384 122.666664 362.66666 Q 109.333336 342.22223 85.333336 341.33334 Q 61.333332 342.22223 48 362.66666 Q 37.333332 384 48 405.33334 Q 61.333332 425.77777 85.333336 426.66666 L 85.333336 426.66666 Z M 395.55554 225.77777 Q 389.33334 224.88889 384.8889 220.44444 Q 362.66666 193.77777 337.77777 170.66667 Q 294.22223 210.66667 268.44446 252.44444 Q 242.66667 296 241.77777 327.1111 Q 242.66667 381.33334 279.1111 417.77777 Q 314.66666 453.33334 369.77777 455.1111 Q 424 453.33334 460.44446 417.77777 Q 496 381.33334 497.77777 327.1111 Q 496.8889 302.22223 478.22223 263.1111 Q 458.66666 225.77777 427.55554 195.55556 Q 416.8889 207.11111 406.22223 219.55556 Q 402.66666 224.88889 395.55554 224.88889 L 395.55554 225.77777 Z M 385.77777 200 Q 391.1111 205.33333 395.55554 211.55556 Q 396.44446 209.77777 397.33334 208.88889 Q 400.8889 204.44444 404.44446 200 Q 411.55554 192 418.66666 184.88889 Q 427.55554 177.77777 436.44446 184.88889 Q 470.22223 216.88889 490.66666 256.8889 Q 500.44446 276.44446 505.77777 295.1111 Q 512 313.77777 512 327.1111 Q 510.22223 387.55554 470.22223 427.55554 Q 430.22223 467.55554 369.77777 469.33334 Q 308.44446 467.55554 268.44446 427.55554 Q 229.33333 387.55554 227.55556 327.1111 Q 228.44444 289.77777 256 245.33333 Q 283.55554 200.88889 328.8889 160 Q 332.44446 156.44444 337.77777 156.44444 Q 342.22223 156.44444 346.66666 160 Q 367.1111 178.66667 385.77777 200 L 385.77777 200 Z M 336 241.77777 Q 338.66666 241.77777 341.33334 244.44444 Q 342.22223 245.33333 343.1111 247.11111 Q 347.55554 252.44444 355.55554 263.1111 Q 363.55554 272.8889 373.33334 285.33334 L 392.8889 310.22223 L 396.44446 315.55554 L 426.66666 280.8889 Q 428.44446 278.22223 432 278.22223 Q 435.55554 278.22223 437.33334 280.8889 Q 441.77777 287.1111 444.44446 293.33334 Q 444.44446 293.33334 445.33334 293.33334 L 445.33334 293.33334 L 445.33334 294.22223 Q 459.55554 320.8889 453.33334 350.22223 Q 448 378.66666 423.1111 397.33334 L 423.1111 397.33334 L 423.1111 397.33334 Q 399.1111 413.33334 370.66666 413.33334 Q 334.22223 412.44446 310.22223 391.1111 Q 285.33334 368.8889 284.44446 329.77777 Q 284.44446 310.22223 296 290.66666 Q 307.55554 271.1111 329.77777 244.44444 Q 332.44446 241.77777 335.1111 241.77777 L 336 241.77777 Z M 396.44446 326.22223 L 391.1111 330.66666 L 391.1111 330.66666 L 391.1111 330.66666 L 391.1111 330.66666 L 391.1111 330.66666 L 390.22223 329.77777 L 388.44446 328 L 382.22223 319.1111 L 361.77777 294.22223 Q 352.8889 281.77777 344.8889 272 Q 339.55554 264.8889 336 260.44446 Q 318.22223 281.77777 309.33334 297.77777 Q 298.66666 314.66666 298.66666 328.8889 Q 299.55554 362.66666 320 380.44446 Q 339.55554 398.22223 371.55554 398.22223 Q 395.55554 399.1111 415.1111 384.8889 Q 434.66666 370.66666 440 346.66666 Q 444.44446 323.55554 432.8889 300.44446 L 432.8889 299.55554 L 432.8889 299.55554 Q 432 299.55554 432 298.66666 Q 431.1111 297.77777 431.1111 296.8889 L 401.77777 330.66666 Q 400 333.33334 396.44446 333.33334 Q 392.8889 333.33334 391.1111 330.66666 L 396.44446 326.22223 L 396.44446 326.22223 Z" />
</svg>