<svg xmlns="http://www.w3.org/2000/svg" viewBox="0 0 640 507">
  <path d="M 154 67 L 165 56 L 154 67 L 165 56 L 174 47 L 174 47 Q 181 42 185 46 Q 218 80 229 106 Q 241 133 240 149 Q 240 160 238 171 L 254 171 L 254 171 Q 256 160 256 149 Q 257 129 244 100 Q 231 70 197 35 Q 180 21 163 36 L 154 45 L 154 45 L 142 33 L 142 33 L 117 8 L 117 8 Q 109 0 99 0 Q 92 0 86 5 Q 57 27 29 64 Q 2 102 0 149 Q 0 160 2 171 L 18 171 L 18 171 Q 16 160 16 149 Q 18 109 43 73 Q 68 38 96 18 Q 97 16 100 16 Q 103 16 106 19 L 142 56 L 142 56 L 154 67 L 154 67 Z M 169 141 Q 153 120 141 110 Q 128 101 115 110 Q 103 121 87 141 Q 77 154 71 171 L 88 171 L 88 171 Q 92 160 100 150 Q 114 132 126 123 Q 128 121 130 123 Q 142 132 156 150 Q 164 160 168 171 L 185 171 L 185 171 Q 179 154 169 141 L 169 141 Z M 539 59 Q 509 59 488 80 L 452 116 L 452 116 L 430 93 L 430 93 Q 424 89 418 93 Q 414 99 418 105 L 441 127 L 441 127 L 404 164 L 404 164 L 382 141 L 382 141 Q 376 137 370 141 Q 366 147 370 153 L 393 175 L 393 175 L 356 212 L 356 212 L 334 189 L 334 189 Q 328 185 322 189 Q 318 195 322 201 L 345 223 L 345 223 L 211 357 L 211 357 Q 205 363 196 363 L 194 363 L 194 363 Q 178 361 176 345 Q 176 341 178 337 L 229 219 L 229 219 L 248 219 L 248 219 Q 255 218 256 211 Q 255 204 248 203 L 224 203 L 8 203 Q 1 204 0 211 Q 1 218 8 219 L 29 219 L 29 219 L 6 300 L 6 300 Q 0 322 0 345 L 0 347 L 0 347 Q 2 415 47 460 Q 92 505 160 507 Q 197 507 229 492 Q 261 477 284 449 L 533 148 L 533 148 Q 540 139 551 139 L 615 139 L 615 139 Q 638 137 640 114 Q 640 104 633 96 L 616 80 L 616 80 Q 595 59 566 59 L 539 59 L 539 59 Z M 46 219 L 212 219 L 46 219 L 212 219 L 163 331 L 163 331 Q 160 337 160 345 Q 160 359 170 369 Q 180 378 194 379 L 196 379 L 196 379 Q 211 379 222 368 L 499 91 L 499 91 Q 515 75 539 75 L 566 75 L 566 75 Q 589 75 605 91 L 621 108 L 621 108 Q 624 110 624 114 Q 623 122 615 123 L 551 123 L 551 123 Q 532 123 520 138 L 272 439 L 272 439 Q 228 490 160 491 Q 99 489 58 449 Q 18 408 16 347 L 16 345 L 16 345 Q 16 324 22 304 L 46 219 L 46 219 Z M 80 379 Q 95 378 96 363 Q 95 348 80 347 Q 65 348 64 363 Q 65 378 80 379 L 80 379 Z M 128 267 Q 127 252 112 251 Q 97 252 96 267 Q 97 282 112 283 Q 127 282 128 267 L 128 267 Z" />
</svg>