<svg xmlns="http://www.w3.org/2000/svg" viewBox="0 0 640 512">
  <path d="M 16 88 Q 17 57 37 37 L 37 37 L 37 37 Q 57 17 88 16 L 360 16 L 360 16 Q 391 17 411 37 Q 431 57 432 88 L 432 130 L 432 130 Q 440 127 448 128 L 448 88 L 448 88 Q 447 51 422 26 Q 397 1 360 0 L 88 0 L 88 0 Q 51 1 26 26 Q 1 51 0 88 L 0 352 L 0 352 L 0 352 L 0 352 Q 0 356 0 360 Q 1 397 26 422 Q 51 447 88 448 L 314 448 L 314 448 Q 310 440 306 432 L 88 432 L 88 432 Q 57 431 37 411 Q 17 391 16 360 Q 17 329 37 309 Q 57 289 88 288 L 302 288 L 302 288 Q 305 280 309 272 L 88 272 L 88 272 Q 42 274 16 309 L 16 88 L 16 88 Z M 288 352 L 88 352 L 288 352 L 88 352 Q 81 353 80 360 Q 81 367 88 368 L 289 368 L 289 368 Q 288 360 288 352 L 288 352 Z M 446 176 Q 448 176 450 178 Q 474 199 495 224 Q 508 236 520 224 Q 529 213 538 204 Q 542 201 546 204 Q 576 232 600 272 Q 623 312 624 351 Q 624 389 607 420 Q 590 451 561 471 Q 576 450 576 422 Q 575 393 559 368 Q 542 342 522 323 Q 501 303 489 294 Q 480 288 471 294 Q 459 303 438 323 Q 418 342 401 368 Q 385 394 384 423 Q 384 450 400 472 Q 370 452 353 421 Q 336 389 336 352 Q 338 302 371 256 Q 404 210 442 178 Q 443 176 446 176 L 446 176 Z M 480 496 Q 476 496 472 496 Q 440 492 420 472 Q 401 451 400 423 Q 402 387 431 354 Q 460 322 480 308 Q 500 322 529 354 Q 558 387 560 423 Q 559 451 540 472 Q 520 492 488 496 Q 484 496 480 496 L 480 496 Z M 320 351 Q 321 417 363 462 L 363 462 L 363 462 Q 405 507 471 512 Q 475 512 480 512 Q 485 512 489 512 Q 554 507 596 462 Q 638 417 640 351 Q 638 306 613 264 Q 589 221 557 193 Q 542 181 527 193 Q 517 203 508 214 Q 508 214 508 214 Q 507 214 507 214 Q 507 214 507 214 Q 507 214 507 214 Q 507 214 507 214 Q 507 214 507 214 Q 485 188 460 166 Q 454 160 446 160 Q 438 160 431 166 Q 392 199 358 247 Q 323 295 320 351 L 320 351 Z" />
</svg>