<svg xmlns="http://www.w3.org/2000/svg" viewBox="0 0 512 512">
  <path d="M 279.2 113.6 Q 273.6 112.8 269.6 108.8 Q 249.6 84.8 227.2 64 Q 188 100 164.8 137.6 Q 141.6 176.8 140.8 204.8 Q 141.6 253.6 174.4 286.4 Q 206.4 318.4 256 320 Q 304.8 318.4 337.6 286.4 Q 369.6 253.6 371.2 204.8 Q 370.4 182.4 353.6 148 Q 336 113.6 308 87.2 Q 298.4 96.8 289.6 108 Q 285.6 112.8 279.2 112.8 L 279.2 113.6 Z M 270.4 90.4 Q 275.2 95.2 279.2 100.8 Q 280 99.2 280.8 98.4 Q 284 94.4 287.2 90.4 Q 293.6 83.2 300 76.8 Q 308 70.4 316 76.8 Q 346.4 105.6 364.8 141.6 Q 373.6 159.2 378.4 176 Q 384 192.8 384 204.8 Q 382.4 259.2 346.4 295.2 Q 310.4 331.2 256 332.8 Q 200.8 331.2 164.8 295.2 Q 129.6 259.2 128 204.8 Q 128.8 171.2 153.6 131.2 Q 178.4 91.2 219.2 54.4 Q 222.4 51.2 227.2 51.2 Q 231.2 51.2 235.2 54.4 Q 253.6 71.2 270.4 90.4 L 270.4 90.4 Z M 225.6 128 Q 228 128 230.4 130.4 Q 231.2 131.2 232 132.8 Q 236 137.6 243.2 147.2 Q 250.4 156 259.2 167.2 L 276.8 189.6 L 280 194.4 L 307.2 163.2 Q 308.8 160.8 312 160.8 Q 315.2 160.8 316.8 163.2 Q 320.8 168.8 323.2 174.4 Q 323.2 174.4 324 174.4 L 324 174.4 L 324 174.4 Q 336.8 199.2 331.2 225.6 Q 326.4 251.2 304 268 L 304 268 L 304 268 Q 282.4 282.4 256.8 282.4 Q 224 281.6 201.6 262.4 Q 180 242.4 179.2 207.2 Q 179.2 189.6 189.6 172 Q 200 154.4 220 130.4 Q 222.4 128 224.8 128 L 225.6 128 Z M 280 204 L 275.2 208 L 275.2 208 L 275.2 208 L 275.2 208 L 275.2 208 L 274.4 207.2 L 272.8 205.6 L 267.2 197.6 L 248.8 175.2 Q 240.8 164 233.6 155.2 Q 228.8 148.8 225.6 144.8 Q 209.6 164 201.6 178.4 Q 192 193.6 192 206.4 Q 192.8 236.8 211.2 252.8 Q 228.8 268.8 257.6 269.6 Q 279.2 269.6 296.8 256.8 Q 314.4 244 319.2 222.4 Q 323.2 201.6 312.8 180.8 L 312.8 180 L 312.8 180 Q 312 180 312 179.2 Q 311.2 178.4 311.2 177.6 L 284.8 208 Q 283.2 210.4 280 210.4 Q 276.8 210.4 275.2 208 L 280 204 L 280 204 Z M 25.6 262.4 Q 26.4 256.8 32 256 L 70.4 256 Q 76 256.8 76.8 262.4 Q 76 268 70.4 268.8 L 38.4 268.8 L 38.4 358.4 L 473.6 358.4 L 473.6 268.8 L 441.6 268.8 Q 436 268 435.2 262.4 Q 436 256.8 441.6 256 L 480 256 Q 485.6 256.8 486.4 262.4 L 486.4 358.4 Q 497.6 358.4 504.8 365.6 Q 512 372.8 512 384 L 512 435.2 Q 512 446.4 504.8 453.6 Q 497.6 460.8 486.4 460.8 L 25.6 460.8 Q 14.4 460.8 7.2 453.6 Q 0 446.4 0 435.2 L 0 384 Q 0 372.8 7.2 365.6 Q 14.4 358.4 25.6 358.4 L 25.6 262.4 L 25.6 262.4 Z M 25.6 371.2 Q 13.6 372 12.8 384 L 12.8 435.2 Q 13.6 447.2 25.6 448 L 486.4 448 Q 498.4 447.2 499.2 435.2 L 499.2 384 Q 498.4 372 486.4 371.2 L 480 371.2 L 32 371.2 L 25.6 371.2 L 25.6 371.2 Z M 256 396.8 Q 268 397.6 268.8 409.6 Q 268 421.6 256 422.4 Q 244 421.6 243.2 409.6 Q 244 397.6 256 396.8 L 256 396.8 Z M 345.6 409.6 Q 346.4 397.6 358.4 396.8 Q 370.4 397.6 371.2 409.6 Q 370.4 421.6 358.4 422.4 Q 346.4 421.6 345.6 409.6 L 345.6 409.6 Z M 153.6 396.8 Q 165.6 397.6 166.4 409.6 Q 165.6 421.6 153.6 422.4 Q 141.6 421.6 140.8 409.6 Q 141.6 397.6 153.6 396.8 L 153.6 396.8 Z" />
</svg>