<svg xmlns="http://www.w3.org/2000/svg" viewBox="0 0 642 455">
  <path d="M 284 18 Q 230 0 182 22 L 182 22 L 182 22 Q 135 45 114 97 L 99 137 L 99 137 Q 77 196 24 232 L 16 237 L 16 237 Q 0 248 2 268 Q 5 287 22 294 L 253 378 L 253 378 L 254 374 L 254 374 Q 256 368 257 362 L 28 279 L 28 279 Q 19 275 17 266 Q 17 256 25 250 L 33 245 L 33 245 Q 90 207 114 142 L 129 102 L 129 102 Q 147 57 189 37 Q 231 17 278 33 Q 279 34 280 34 Q 282 34 283 35 Q 290 29 298 24 Q 291 21 284 18 L 284 18 Z M 285 383 L 280 398 L 285 383 L 280 398 Q 276 417 289 431 Q 304 443 322 437 L 620 329 L 620 329 Q 637 322 640 303 Q 642 284 626 273 L 613 263 L 613 263 Q 561 228 539 170 L 520 118 L 520 118 Q 499 64 449 41 Q 399 18 344 36 Q 289 58 266 107 Q 243 157 262 213 L 281 264 L 281 264 Q 302 323 285 383 L 285 383 Z M 349 52 Q 398 35 442 56 L 442 56 L 442 56 Q 486 76 505 124 L 524 175 L 524 175 Q 548 239 604 277 L 617 286 L 617 286 Q 625 291 624 301 Q 623 310 614 314 L 317 422 L 317 422 Q 307 425 300 419 Q 293 412 296 403 L 300 387 L 300 387 Q 318 322 296 258 L 277 207 L 277 207 Q 260 158 281 114 Q 301 70 349 52 L 349 52 Z M 441 422 Q 436 427 440 433 Q 452 446 469 451 Q 486 455 503 448 Q 520 441 530 427 Q 539 412 539 394 Q 538 387 530 387 Q 523 388 523 395 Q 522 422 497 433 Q 471 442 452 422 Q 447 417 441 422 L 441 422 Z M 187 390 Q 168 410 142 401 Q 117 389 117 362 Q 116 355 109 354 Q 102 354 101 362 Q 100 379 110 394 Q 119 409 136 416 Q 154 422 170 418 Q 187 414 199 400 Q 203 394 198 389 Q 192 385 187 390 L 187 390 Z" />
</svg>