<svg xmlns="http://www.w3.org/2000/svg" viewBox="0 0 504 512">
  <path d="M 64 496 L 112 496 L 64 496 L 112 496 L 112 512 L 112 512 L 64 512 L 64 512 Q 37 511 19 493 Q 1 475 0 448 L 0 64 L 0 64 Q 1 37 19 19 Q 37 1 64 0 L 204 0 L 204 0 Q 224 0 238 14 L 370 146 L 370 146 Q 384 160 384 180 L 384 304 L 384 304 L 368 304 L 368 304 L 368 180 L 368 180 Q 368 178 368 176 Q 368 176 368 176 L 248 176 L 248 176 Q 231 176 220 164 Q 208 153 208 136 L 208 16 L 208 16 Q 206 16 204 16 L 64 16 L 64 16 Q 44 17 30 30 Q 17 44 16 64 L 16 448 L 16 448 Q 17 468 30 482 Q 44 495 64 496 L 64 496 Z M 361 160 Q 360 159 359 157 L 227 25 L 227 25 Q 225 24 224 23 L 224 136 L 224 136 Q 226 158 248 160 L 361 160 L 361 160 Z M 206 368 L 232 368 L 206 368 L 232 368 Q 239 369 240 376 Q 239 383 232 384 L 206 384 L 206 384 Q 186 386 184 406 Q 184 419 196 425 L 227 441 L 227 441 Q 247 452 248 474 Q 248 490 237 501 Q 226 512 210 512 L 176 512 L 176 512 Q 169 511 168 504 Q 169 497 176 496 L 210 496 L 210 496 Q 230 494 232 474 Q 232 461 220 455 L 189 439 L 189 439 Q 169 428 168 406 Q 168 390 179 379 Q 190 368 206 368 L 206 368 Z M 456 368 L 472 368 L 456 368 L 472 368 Q 486 368 495 377 Q 504 386 504 400 L 504 408 L 504 408 Q 503 415 496 416 Q 489 415 488 408 L 488 400 L 488 400 Q 487 385 472 384 L 456 384 L 456 384 Q 441 385 440 400 L 440 480 L 440 480 Q 441 495 456 496 L 472 496 L 472 496 Q 487 495 488 480 L 488 464 L 488 464 L 480 464 L 480 464 Q 473 463 472 456 Q 473 449 480 448 L 496 448 L 496 448 Q 503 449 504 456 L 504 480 L 504 480 Q 504 494 495 503 Q 486 512 472 512 L 456 512 L 456 512 Q 442 512 433 503 Q 424 494 424 480 L 424 400 L 424 400 Q 424 386 433 377 Q 442 368 456 368 L 456 368 Z M 304 368 Q 311 369 312 376 L 312 408 L 312 408 Q 312 452 336 490 Q 360 452 360 408 L 360 376 L 360 376 Q 361 369 368 368 Q 375 369 376 376 L 376 408 L 376 408 Q 376 458 348 501 L 343 509 L 343 509 Q 340 512 336 512 Q 332 512 329 508 L 324 501 L 324 501 Q 296 458 296 408 L 296 376 L 296 376 Q 297 369 304 368 L 304 368 Z" />
</svg>