<svg xmlns="http://www.w3.org/2000/svg" viewBox="0 0 576 512">
  <path d="M 80 32 L 80 8 L 80 32 L 80 8 Q 81 1 88 0 Q 95 1 96 8 L 96 32 L 96 32 L 480 32 L 480 32 L 480 8 L 480 8 Q 481 1 488 0 Q 495 1 496 8 L 496 32 L 496 32 L 528 32 L 528 32 Q 548 33 562 46 Q 575 60 576 80 L 576 368 L 576 368 Q 575 388 562 402 Q 548 415 528 416 L 496 416 L 496 416 L 496 504 L 496 504 Q 495 511 488 512 Q 481 511 480 504 L 480 416 L 480 416 L 96 416 L 96 416 L 96 504 L 96 504 Q 95 511 88 512 Q 81 511 80 504 L 80 416 L 80 416 L 48 416 L 48 416 Q 28 415 14 402 Q 1 388 0 368 L 0 80 L 0 80 Q 1 60 14 46 Q 28 33 48 32 L 80 32 L 80 32 Z M 528 48 L 48 48 L 528 48 L 48 48 Q 34 48 25 57 Q 16 66 16 80 L 16 368 L 16 368 Q 16 382 25 391 Q 34 400 48 400 L 528 400 L 528 400 Q 542 400 551 391 Q 560 382 560 368 L 560 80 L 560 80 Q 560 66 551 57 Q 542 48 528 48 L 528 48 Z" />
</svg>