<svg xmlns="http://www.w3.org/2000/svg" viewBox="0 0 512 512">
  <path d="M 264 8 L 264 96 L 264 8 L 264 96 Q 263 103 256 104 Q 249 103 248 96 L 248 8 L 248 8 Q 249 1 256 0 Q 263 1 264 8 L 264 8 Z M 264 416 L 264 504 L 264 416 L 264 504 Q 263 511 256 512 Q 249 511 248 504 L 248 416 L 248 416 Q 249 409 256 408 Q 263 409 264 416 L 264 416 Z M 0 256 Q 1 249 8 248 L 96 248 L 96 248 Q 103 249 104 256 Q 103 263 96 264 L 8 264 L 8 264 Q 1 263 0 256 L 0 256 Z M 416 248 L 504 248 L 416 248 L 504 248 Q 511 249 512 256 Q 511 263 504 264 L 416 264 L 416 264 Q 409 263 408 256 Q 409 249 416 248 L 416 248 Z M 436 78 Q 440 83 436 89 L 374 151 L 374 151 Q 368 156 362 151 Q 358 146 362 140 L 425 78 L 425 78 Q 430 73 436 78 L 436 78 Z M 147 378 L 85 440 L 147 378 L 85 440 Q 79 444 74 440 Q 69 434 74 429 L 136 366 L 136 366 Q 142 362 147 366 Q 152 372 147 378 L 147 378 Z M 68 72 Q 74 68 80 72 L 147 140 L 147 140 Q 152 146 147 151 Q 142 156 136 151 L 68 84 L 68 84 Q 64 78 68 72 L 68 72 Z M 374 366 L 436 429 L 374 366 L 436 429 Q 440 434 436 440 Q 430 444 425 440 L 362 378 L 362 378 Q 358 372 362 366 Q 368 362 374 366 L 374 366 Z" />
</svg>