<svg xmlns="http://www.w3.org/2000/svg" viewBox="0 0 512 518">
  <path d="M 464 6 Q 471 7 472 14 L 472 46 L 472 46 L 504 46 L 504 46 Q 511 47 512 54 Q 511 61 504 62 L 472 62 L 472 62 L 472 94 L 472 94 Q 471 101 464 102 Q 457 101 456 94 L 456 62 L 456 62 L 424 62 L 424 62 Q 417 61 416 54 Q 417 47 424 46 L 456 46 L 456 46 L 456 14 L 456 14 Q 457 7 464 6 L 464 6 Z M 48 102 Q 55 103 56 110 L 56 142 L 56 142 L 88 142 L 88 142 Q 95 143 96 150 Q 95 157 88 158 L 56 158 L 56 158 L 56 190 L 56 190 Q 55 197 48 198 Q 41 197 40 190 L 40 158 L 40 158 L 8 158 L 8 158 Q 1 157 0 150 Q 1 143 8 142 L 40 142 L 40 142 L 40 110 L 40 110 Q 41 103 48 102 L 48 102 Z M 144 470 Q 130 470 121 479 L 121 479 L 121 479 Q 112 488 112 502 L 112 510 L 112 510 Q 111 517 104 518 Q 97 517 96 510 L 96 502 L 96 502 Q 97 482 110 468 Q 124 455 144 454 L 368 454 L 368 454 Q 388 455 402 468 Q 415 482 416 502 L 416 510 L 416 510 Q 415 517 408 518 Q 401 517 400 510 L 400 502 L 400 502 Q 400 488 391 479 Q 382 470 368 470 L 144 470 L 144 470 Z M 288 54 Q 288 40 279 31 L 279 31 L 279 31 Q 270 22 256 22 L 256 22 L 256 22 Q 255 22 255 22 Q 255 22 255 22 Q 242 23 233 32 Q 224 41 224 54 Q 224 68 233 77 Q 242 86 256 86 Q 270 86 279 77 Q 288 68 288 54 L 288 54 Z M 208 54 Q 209 27 232 12 Q 256 0 280 12 Q 303 27 304 54 Q 303 81 280 96 Q 256 108 232 96 Q 209 81 208 54 L 208 54 Z M 168 390 L 344 390 L 168 390 L 344 390 Q 351 391 352 398 Q 351 405 344 406 L 168 406 L 168 406 Q 161 405 160 398 Q 161 391 168 390 L 168 390 Z M 160 334 Q 161 327 168 326 L 344 326 L 344 326 Q 351 327 352 334 Q 351 341 344 342 L 168 342 L 168 342 Q 161 341 160 334 L 160 334 Z M 104 262 L 408 262 L 104 262 L 408 262 Q 415 263 416 270 Q 415 277 408 278 L 104 278 L 104 278 Q 97 277 96 270 Q 97 263 104 262 L 104 262 Z M 128 206 Q 129 199 136 198 L 376 198 L 376 198 Q 383 199 384 206 Q 383 213 376 214 L 136 214 L 136 214 Q 129 213 128 206 L 128 206 Z M 200 134 L 312 134 L 200 134 L 312 134 Q 319 135 320 142 Q 319 149 312 150 L 200 150 L 200 150 Q 193 149 192 142 Q 193 135 200 134 L 200 134 Z" />
</svg>