<svg xmlns="http://www.w3.org/2000/svg" viewBox="0 0 640 512">
  <path d="M 320 112 Q 347 111 362 88 Q 374 64 362 40 Q 347 17 320 16 Q 293 17 278 40 Q 266 64 278 88 Q 293 111 320 112 L 320 112 Z M 320 0 Q 356 1 375 32 Q 393 64 375 96 Q 356 127 320 128 Q 284 127 265 96 Q 247 64 265 32 Q 284 1 320 0 L 320 0 Z M 304 176 Q 288 176 275 186 L 275 186 L 275 186 Q 263 195 258 211 L 219 348 L 219 348 Q 217 365 234 368 L 256 368 L 406 368 Q 423 365 421 348 L 382 211 L 382 211 Q 370 178 336 176 L 304 176 L 304 176 Z M 312 384 L 312 480 L 312 384 L 312 480 Q 312 494 303 503 Q 294 512 280 512 Q 266 512 257 503 Q 248 494 248 480 L 248 384 L 248 384 L 234 384 L 234 384 Q 218 383 209 371 Q 200 359 204 343 L 243 206 L 243 206 Q 249 185 266 173 Q 282 160 304 160 L 336 160 L 336 160 Q 358 160 374 173 Q 391 185 397 206 L 436 343 L 436 343 Q 440 359 431 371 Q 422 383 406 384 L 392 384 L 392 384 L 392 480 L 392 480 Q 392 494 383 503 Q 374 512 360 512 Q 346 512 337 503 Q 328 494 328 480 L 328 384 L 328 384 L 312 384 L 312 384 Z M 376 480 L 376 384 L 376 480 L 376 384 L 344 384 L 344 384 L 344 480 L 344 480 Q 345 495 360 496 Q 375 495 376 480 L 376 480 Z M 296 384 L 264 384 L 296 384 L 264 384 L 264 480 L 264 480 Q 265 495 280 496 Q 295 495 296 480 L 296 384 L 296 384 Z M 216 433 L 216 452 L 216 433 L 216 452 Q 169 479 112 480 L 96 480 L 96 480 Q 82 480 73 471 Q 64 462 64 448 Q 65 378 104 326 Q 56 288 28 233 Q 1 178 0 112 L 0 64 L 0 64 Q 0 50 9 41 Q 18 32 32 32 Q 101 33 159 61 Q 217 90 257 140 Q 250 144 244 149 Q 206 103 151 76 Q 97 49 32 48 Q 17 49 16 64 L 16 112 L 16 112 Q 17 174 42 226 Q 68 277 114 313 L 120 318 L 120 318 Q 125 323 121 329 L 117 335 L 117 335 Q 81 384 80 448 Q 81 463 96 464 L 112 464 L 112 464 Q 170 463 216 433 L 216 433 Z M 528 480 Q 471 479 424 452 L 424 434 L 424 434 Q 470 463 528 464 L 544 464 L 544 464 Q 559 463 560 448 Q 559 384 523 335 L 519 329 L 519 329 Q 515 323 520 318 L 526 313 L 526 313 Q 572 277 598 226 Q 623 174 624 112 L 624 64 L 624 64 Q 623 49 608 48 Q 543 49 489 76 Q 434 103 396 149 Q 390 144 383 140 Q 423 90 481 61 Q 539 33 608 32 Q 622 32 631 41 Q 640 50 640 64 L 640 112 L 640 112 Q 639 178 612 233 Q 584 288 536 326 Q 575 378 576 448 Q 576 462 567 471 Q 558 480 544 480 L 528 480 L 528 480 Z" />
</svg>