<svg xmlns="http://www.w3.org/2000/svg" viewBox="0 0 640 512">
  <path d="M 441 16 Q 398 18 379 56 L 359 99 L 359 99 Q 359 101 357 102 L 309 142 L 309 142 Q 307 144 304 144 L 272 144 L 272 144 Q 238 144 212 163 Q 186 183 176 214 L 162 256 L 162 256 Q 156 274 142 285 Q 127 296 108 296 Q 85 296 68 279 L 66 278 L 66 278 Q 48 259 48 233 L 48 203 L 48 203 Q 46 197 41 201 L 34 212 L 34 212 Q 16 242 16 277 L 16 281 L 16 281 Q 17 335 53 371 Q 89 407 143 408 L 208 408 L 208 408 Q 208 406 208 404 Q 208 404 208 404 L 208 368 L 208 368 Q 209 361 216 360 Q 223 361 224 368 L 224 404 L 224 404 Q 224 421 236 432 L 292 489 L 292 489 Q 299 496 309 496 L 392 496 L 392 496 Q 399 495 400 488 L 400 480 L 400 480 Q 400 466 391 457 Q 382 448 368 448 L 360 448 L 360 448 Q 354 448 352 442 L 336 386 L 336 386 Q 335 381 339 378 Q 367 357 368 320 Q 367 289 347 269 Q 327 249 296 248 Q 289 247 288 240 Q 289 233 296 232 Q 333 233 358 258 Q 383 283 384 320 Q 383 361 353 387 L 366 432 L 366 432 L 368 432 L 368 432 Q 388 433 402 446 Q 415 460 416 480 L 416 488 L 416 488 Q 414 510 392 512 L 309 512 L 309 512 Q 293 512 281 500 L 224 444 L 224 444 Q 216 435 212 424 L 143 424 L 143 424 Q 82 422 42 382 Q 2 342 0 281 L 0 277 L 0 277 Q 0 238 20 204 L 27 193 L 27 193 Q 36 180 49 184 Q 63 188 64 203 L 64 233 L 64 233 Q 64 253 78 266 L 79 268 L 79 268 Q 91 280 108 280 Q 137 279 147 252 L 160 210 L 160 210 Q 173 173 203 151 Q 233 129 272 128 L 301 128 L 301 128 L 346 91 L 346 91 L 365 49 L 365 49 Q 375 26 395 13 Q 416 0 441 0 Q 462 0 481 10 Q 488 8 496 8 Q 531 10 547 40 L 568 40 L 568 40 Q 599 41 619 61 Q 639 81 640 112 L 640 152 L 640 152 Q 640 168 629 179 Q 619 190 604 192 L 588 208 L 588 208 Q 571 224 548 224 L 475 224 L 475 224 L 424 272 L 424 272 L 452 288 L 452 288 Q 471 300 472 323 L 472 336 L 472 336 Q 471 343 464 344 Q 457 343 456 336 L 456 323 L 456 323 Q 456 309 444 302 L 411 283 L 411 283 L 411 284 L 411 284 Q 408 276 404 268 L 467 210 L 467 210 Q 469 208 472 208 L 548 208 L 548 208 Q 565 208 576 196 L 581 192 L 581 192 L 557 192 L 557 192 Q 541 192 529 180 L 516 167 L 516 167 Q 509 160 499 160 L 480 160 L 480 160 Q 473 159 472 152 Q 473 145 480 144 L 499 144 L 499 144 Q 515 144 527 156 L 540 169 L 540 169 Q 547 176 557 176 L 600 176 L 600 176 Q 622 174 624 152 L 624 112 L 624 112 Q 623 88 608 72 Q 592 57 568 56 L 541 56 L 541 56 Q 536 56 534 51 Q 524 26 496 24 Q 489 24 482 26 Q 479 28 476 26 Q 460 16 441 16 L 441 16 Z M 480 80 Q 481 65 496 64 Q 511 65 512 80 Q 511 95 496 96 Q 481 95 480 80 L 480 80 Z" />
</svg>