<svg xmlns="http://www.w3.org/2000/svg" viewBox="0 0 512 448">
  <path d="M 19 232 Q 16 229 16 224 Q 16 219 19 216 L 151 84 L 151 84 Q 156 80 162 80 Q 175 81 176 94 L 176 168 L 176 168 Q 177 175 184 176 L 320 176 L 320 176 Q 335 177 336 192 L 336 256 L 336 256 Q 335 271 320 272 L 184 272 L 184 272 Q 177 273 176 280 L 176 354 L 176 354 Q 175 367 162 368 Q 156 368 151 364 L 19 232 L 19 232 Z M 0 224 Q 0 235 8 243 L 140 375 L 140 375 Q 149 384 162 384 Q 175 384 183 375 Q 192 367 192 354 L 192 288 L 192 288 L 320 288 L 320 288 Q 334 288 343 279 Q 352 270 352 256 L 352 192 L 352 192 Q 352 178 343 169 Q 334 160 320 160 L 192 160 L 192 160 L 192 94 L 192 94 Q 192 81 183 73 Q 175 64 162 64 Q 149 64 140 73 L 8 205 L 8 205 Q 0 213 0 224 L 0 224 Z M 328 432 Q 321 433 320 440 Q 321 447 328 448 L 424 448 L 424 448 Q 461 447 486 422 Q 511 397 512 360 L 512 88 L 512 88 Q 511 51 486 26 Q 461 1 424 0 L 328 0 L 328 0 Q 321 1 320 8 Q 321 15 328 16 L 424 16 L 424 16 Q 455 17 475 37 Q 495 57 496 88 L 496 360 L 496 360 Q 495 391 475 411 Q 455 431 424 432 L 328 432 L 328 432 Z" />
</svg>