<svg xmlns="http://www.w3.org/2000/svg" viewBox="0 0 504 513">
  <path d="M 64 496 L 112 496 L 64 496 L 112 496 L 112 512 L 112 512 L 64 512 L 64 512 Q 37 511 19 493 Q 1 475 0 448 L 0 64 L 0 64 Q 1 37 19 19 Q 37 1 64 0 L 204 0 L 204 0 Q 224 0 238 14 L 370 146 L 370 146 Q 384 160 384 180 L 384 304 L 384 304 L 368 304 L 368 304 L 368 180 L 368 180 Q 368 178 368 176 Q 368 176 368 176 L 248 176 L 248 176 Q 231 176 220 164 Q 208 153 208 136 L 208 16 L 208 16 Q 206 16 204 16 L 64 16 L 64 16 Q 44 17 30 30 Q 17 44 16 64 L 16 448 L 16 448 Q 17 468 30 482 Q 44 495 64 496 L 64 496 Z M 361 160 Q 360 159 359 157 L 227 25 L 227 25 Q 225 24 224 23 L 224 136 L 224 136 Q 226 158 248 160 L 361 160 L 361 160 Z M 311 372 L 360 470 L 311 372 L 360 470 L 360 376 L 360 376 Q 361 369 368 368 Q 375 369 376 376 L 376 504 L 376 504 Q 376 510 370 512 Q 364 513 361 508 L 312 410 L 312 410 L 312 504 L 312 504 Q 311 511 304 512 Q 297 511 296 504 L 296 376 L 296 376 Q 296 370 302 368 Q 308 367 311 372 L 311 372 Z M 176 368 L 208 368 L 176 368 L 208 368 Q 228 369 242 382 Q 255 396 256 416 Q 255 436 242 450 Q 228 463 208 464 L 184 464 L 184 464 L 184 504 L 184 504 Q 183 511 176 512 Q 169 511 168 504 L 168 456 L 168 456 L 168 376 L 168 376 Q 169 369 176 368 L 176 368 Z M 208 448 Q 222 448 231 439 L 231 439 L 231 439 Q 240 430 240 416 Q 240 402 231 393 Q 222 384 208 384 L 184 384 L 184 384 L 184 448 L 184 448 L 208 448 L 208 448 Z M 424 400 Q 424 386 433 377 L 433 377 L 433 377 Q 442 368 456 368 L 472 368 L 472 368 Q 486 368 495 377 Q 504 386 504 400 L 504 408 L 504 408 Q 503 415 496 416 Q 489 415 488 408 L 488 400 L 488 400 Q 487 385 472 384 L 456 384 L 456 384 Q 441 385 440 400 L 440 480 L 440 480 Q 441 495 456 496 L 472 496 L 472 496 Q 487 495 488 480 L 488 464 L 488 464 L 480 464 L 480 464 Q 473 463 472 456 Q 473 449 480 448 L 496 448 L 496 448 Q 503 449 504 456 L 504 480 L 504 480 Q 504 494 495 503 Q 486 512 472 512 L 456 512 L 456 512 Q 442 512 433 503 Q 424 494 424 480 L 424 400 L 424 400 Z" />
</svg>