<svg xmlns="http://www.w3.org/2000/svg" viewBox="0 0 448 448">
  <path d="M 368 432 Q 354 432 345 423 L 345 423 L 345 423 Q 336 414 336 400 L 336 48 L 336 48 Q 336 34 345 25 Q 354 16 368 16 L 400 16 L 400 16 Q 414 16 423 25 Q 432 34 432 48 L 432 400 L 432 400 Q 432 414 423 423 Q 414 432 400 432 L 368 432 L 368 432 Z M 320 400 Q 321 420 334 434 L 334 434 L 334 434 Q 348 447 368 448 L 400 448 L 400 448 Q 420 447 434 434 Q 447 420 448 400 L 448 48 L 448 48 Q 447 28 434 14 Q 420 1 400 0 L 368 0 L 368 0 Q 348 1 334 14 Q 321 28 320 48 L 320 400 L 320 400 Z M 80 368 L 48 368 L 80 368 L 48 368 Q 34 368 25 359 Q 16 350 16 336 L 16 48 L 16 48 Q 16 34 25 25 Q 34 16 48 16 L 80 16 L 80 16 Q 94 16 103 25 Q 112 34 112 48 L 112 336 L 112 336 Q 112 350 103 359 Q 94 368 80 368 L 80 368 Z M 48 384 L 80 384 L 48 384 L 80 384 Q 100 383 114 370 Q 127 356 128 336 L 128 48 L 128 48 Q 127 28 114 14 Q 100 1 80 0 L 48 0 L 48 0 Q 28 1 14 14 Q 1 28 0 48 L 0 336 L 0 336 Q 1 356 14 370 Q 28 383 48 384 L 48 384 Z M 240 240 L 208 240 L 240 240 L 208 240 Q 194 240 185 231 Q 176 222 176 208 L 176 48 L 176 48 Q 176 34 185 25 Q 194 16 208 16 L 240 16 L 240 16 Q 254 16 263 25 Q 272 34 272 48 L 272 208 L 272 208 Q 272 222 263 231 Q 254 240 240 240 L 240 240 Z M 208 256 L 240 256 L 208 256 L 240 256 Q 260 255 274 242 Q 287 228 288 208 L 288 48 L 288 48 Q 287 28 274 14 Q 260 1 240 0 L 208 0 L 208 0 Q 188 1 174 14 Q 161 28 160 48 L 160 208 L 160 208 Q 161 228 174 242 Q 188 255 208 256 L 208 256 Z" />
</svg>