<svg xmlns="http://www.w3.org/2000/svg" viewBox="0 0 512 512">
  <path d="M 356.12903 0 L 487.2258 0 Q 509.9355 2.064516 512 24.774193 L 512 155.87097 Q 509.9355 179.6129 486.19354 181.67741 Q 475.87097 181.67741 467.6129 174.45161 L 408.7742 114.58064 L 220.90323 303.48386 Q 214.70967 307.6129 208.51613 303.48386 Q 204.3871 297.2903 208.51613 291.09677 L 397.41934 103.22581 L 337.5484 44.387096 Q 330.32257 36.129032 330.32257 25.806452 Q 332.3871 2.064516 356.12903 0 L 356.12903 0 Z M 346.8387 25.806452 Q 346.8387 29.935484 349.9355 32 L 480 162.06451 Q 482.0645 165.16129 486.19354 165.16129 Q 494.4516 164.12903 495.48386 155.87097 L 495.48386 24.774193 Q 494.4516 17.548388 487.2258 16.516129 L 356.12903 16.516129 Q 347.87097 17.548388 346.8387 25.806452 L 346.8387 25.806452 Z M 0 107.354836 Q 1.032258 82.58064 16.516129 66.064514 L 16.516129 66.064514 Q 33.032257 50.580647 57.80645 49.548386 L 206.45161 49.548386 Q 213.67741 50.580647 214.70967 57.80645 Q 213.67741 65.03226 206.45161 66.064514 L 57.80645 66.064514 Q 40.258064 66.064514 28.903225 78.451614 Q 16.516129 89.80645 16.516129 107.354836 L 16.516129 454.19354 Q 16.516129 471.74194 28.903225 483.09677 Q 40.258064 495.48386 57.80645 495.48386 L 404.64517 495.48386 Q 422.19354 495.48386 433.5484 483.09677 Q 445.9355 471.74194 445.9355 454.19354 L 445.9355 305.5484 Q 446.96774 298.32257 454.19354 297.2903 Q 461.41934 298.32257 462.4516 305.5484 L 462.4516 454.19354 Q 461.41934 478.96774 445.9355 495.48386 Q 429.41934 510.96774 404.64517 512 L 57.80645 512 Q 33.032257 510.96774 16.516129 495.48386 Q 1.032258 478.96774 0 454.19354 L 0 107.354836 L 0 107.354836 Z" />
</svg>