<svg xmlns="http://www.w3.org/2000/svg" viewBox="0 0 514 448">
  <path d="M 159 383 Q 151 380 144 385 Q 127 398 93 414 Q 58 431 18 432 L 18 432 L 18 432 Q 18 432 18 432 Q 18 432 18 432 L 18 432 L 18 432 Q 18 432 19 432 Q 19 431 20 430 Q 22 428 25 424 L 13 414 L 13 414 L 25 424 L 25 424 Q 33 415 42 400 Q 60 372 66 330 Q 66 323 62 318 Q 19 270 18 208 Q 20 128 87 73 Q 154 18 258 16 Q 362 18 429 73 Q 496 128 498 208 Q 496 288 429 343 Q 362 398 258 400 Q 205 400 159 383 L 159 383 Z M 7 421 Q 7 421 7 421 L 7 421 L 7 421 Q 7 421 7 421 Q 7 421 7 421 Q 7 421 7 421 Q 7 421 7 421 Q 7 421 7 421 Q 0 428 3 438 Q 8 448 18 448 Q 62 446 100 429 Q 135 412 154 398 Q 202 416 258 416 Q 330 415 387 388 Q 445 360 479 313 Q 513 266 514 208 Q 513 150 479 103 Q 445 56 387 28 Q 330 1 258 0 Q 186 1 129 28 Q 71 56 37 103 Q 3 150 2 208 Q 3 277 50 329 Q 45 366 28 392 Q 20 406 13 413 Q 10 417 8 419 Q 8 420 7 420 Q 7 420 7 421 L 7 421 L 7 421 Q 7 421 7 421 Q 7 421 7 421 L 7 421 Z M 106 181 Q 106 196 119 205 L 148 224 L 148 224 Q 154 228 154 235 Q 153 247 141 248 L 114 248 L 114 248 Q 107 249 106 256 Q 107 263 114 264 L 141 264 L 141 264 Q 153 264 162 256 Q 170 247 170 235 Q 170 220 157 211 L 128 192 L 128 192 Q 122 188 122 181 Q 123 169 135 168 L 154 168 L 154 168 Q 161 167 162 160 Q 161 153 154 152 L 135 152 L 135 152 Q 123 152 115 161 Q 106 169 106 181 L 106 181 Z M 375 152 Q 363 152 354 160 L 354 160 L 354 160 Q 346 169 346 181 Q 346 196 359 205 L 388 224 L 388 224 Q 394 228 394 235 Q 393 247 381 248 L 354 248 L 354 248 Q 347 249 346 256 Q 347 263 354 264 L 381 264 L 381 264 Q 393 264 402 256 Q 410 247 410 235 Q 410 220 397 211 L 368 192 L 368 192 Q 362 188 362 181 Q 363 169 375 168 L 394 168 L 394 168 Q 401 167 402 160 Q 401 153 394 152 L 375 152 L 375 152 Z M 216 155 Q 213 151 208 152 Q 202 154 202 160 L 202 256 L 202 256 Q 203 263 210 264 Q 217 263 218 256 L 218 184 L 218 184 L 252 229 L 252 229 Q 254 232 258 232 Q 262 232 264 229 L 298 184 L 298 184 L 298 256 L 298 256 Q 299 263 306 264 Q 313 263 314 256 L 314 160 L 314 160 Q 314 154 309 152 Q 303 151 300 155 L 258 211 L 258 211 L 216 155 L 216 155 Z" />
</svg>