<svg xmlns="http://www.w3.org/2000/svg" viewBox="0 0 512 512">
  <path d="M 432 23 Q 431 17 425 16 L 64 16 Q 49 17 48 32 L 48 46 Q 48 89 63 128 L 368 128 Q 368 125 368 123 Q 369 90 392 66 L 430 27 L 441 39 L 430 27 Q 432 25 432 23 L 432 23 Z M 69 144 Q 100 212 166 252 L 227 288 L 460 288 Q 453 263 437 242 L 384 171 Q 375 158 371 144 L 69 144 L 69 144 Z M 463 304 L 254 304 L 283 321 Q 316 341 334 375 Q 352 414 346 456 L 340 491 Q 340 495 344 496 Q 345 496 347 495 L 425 417 Q 463 377 464 322 Q 464 313 463 304 L 463 304 Z M 32 46 L 32 32 Q 32 18 41 9 Q 50 0 64 0 L 425 0 Q 446 2 448 23 Q 448 32 441 39 L 403 77 Q 384 96 384 123 Q 384 144 397 161 L 450 232 Q 480 272 480 322 Q 479 384 436 428 L 358 506 Q 352 512 344 512 Q 334 512 328 505 Q 323 498 324 489 L 330 453 Q 336 416 319 382 Q 304 352 275 335 L 158 266 Q 99 231 66 173 Q 33 115 32 46 L 32 46 Z" />
</svg>