<svg xmlns="http://www.w3.org/2000/svg" viewBox="0 0 579 518">
  <path d="M 192 419 L 192 467 L 192 419 L 192 467 Q 192 481 183 490 Q 174 499 160 499 L 112 499 L 112 499 Q 98 499 89 490 Q 80 481 80 467 L 80 419 L 80 419 L 192 419 L 192 419 Z M 160 515 Q 186 514 200 494 Q 214 514 240 515 L 288 515 L 288 515 Q 308 514 322 501 Q 335 487 336 467 L 336 419 L 336 419 L 336 411 L 336 411 L 336 403 L 336 403 L 336 135 L 336 135 L 338 141 L 338 141 L 340 149 L 340 149 L 405 403 L 405 403 L 407 410 L 407 410 L 425 480 L 425 480 Q 431 499 447 509 Q 463 518 482 513 L 542 497 L 542 497 Q 561 491 570 475 Q 579 458 574 438 L 558 377 L 558 377 L 556 369 L 556 369 L 491 115 L 491 115 L 489 108 L 489 108 L 471 39 L 471 39 Q 465 19 449 9 Q 433 0 414 5 L 354 21 L 354 21 Q 342 25 333 34 Q 321 5 288 3 L 240 3 L 240 3 Q 214 4 200 25 Q 186 4 160 3 L 112 3 L 112 3 Q 92 4 78 17 Q 65 31 64 51 L 64 99 L 64 99 L 64 107 L 64 107 L 64 115 L 64 115 L 80 115 L 192 115 L 192 171 L 192 171 L 208 171 L 208 171 L 208 115 L 208 115 L 320 115 L 320 115 L 320 403 L 320 403 L 208 403 L 208 403 L 208 347 L 208 347 L 192 347 L 192 347 L 192 403 L 192 403 L 176 403 L 64 403 L 64 411 L 64 411 L 64 419 L 64 419 L 64 467 L 64 467 Q 65 487 78 501 Q 92 514 112 515 L 160 515 L 160 515 Z M 336 68 L 336 67 L 336 68 L 336 67 Q 338 44 359 37 L 418 20 L 418 20 Q 430 17 441 23 Q 451 29 455 43 L 471 104 L 471 104 L 353 137 L 353 137 L 337 76 L 337 76 Q 336 72 336 68 L 336 68 Z M 320 67 Q 320 67 320 67 L 320 67 L 320 67 Q 320 67 320 67 L 320 99 L 320 99 L 208 99 L 208 99 L 208 51 L 208 51 Q 208 37 217 28 Q 226 19 240 19 L 288 19 L 288 19 Q 302 19 311 28 Q 320 37 320 51 L 320 67 L 320 67 Z M 240 499 Q 226 499 217 490 L 217 490 L 217 490 Q 208 481 208 467 L 208 419 L 208 419 L 320 419 L 320 419 L 320 467 L 320 467 Q 320 481 311 490 Q 302 499 288 499 L 240 499 L 240 499 Z M 192 51 L 192 99 L 192 51 L 192 99 L 80 99 L 80 99 L 80 51 L 80 51 Q 80 37 89 28 Q 98 19 112 19 L 160 19 L 160 19 Q 174 19 183 28 Q 192 37 192 51 L 192 51 Z M 475 120 L 539 366 L 475 120 L 539 366 L 421 398 L 421 398 L 357 152 L 357 152 L 475 120 L 475 120 Z M 543 381 L 559 442 L 543 381 L 559 442 Q 562 456 556 467 Q 550 478 537 482 L 478 498 L 478 498 Q 466 501 455 495 Q 445 489 441 476 L 425 414 L 425 414 L 543 381 L 543 381 Z M 88 171 Q 89 164 96 163 L 128 163 L 128 163 Q 135 164 136 171 L 136 227 L 136 227 Q 137 234 144 235 L 200 235 L 200 235 Q 207 236 208 243 L 208 275 L 208 275 Q 207 282 200 283 L 144 283 L 144 283 Q 137 284 136 291 L 136 347 L 136 347 Q 135 354 128 355 L 96 355 L 96 355 Q 89 354 88 347 L 88 291 L 88 291 Q 87 284 80 283 L 24 283 L 24 283 Q 17 282 16 275 L 16 243 L 16 243 Q 17 236 24 235 L 80 235 L 80 235 Q 87 234 88 227 L 88 171 L 88 171 Z M 96 147 Q 74 149 72 171 L 72 219 L 72 219 L 24 219 L 24 219 Q 2 221 0 243 L 0 275 L 0 275 Q 2 297 24 299 L 72 299 L 72 299 L 72 347 L 72 347 Q 74 369 96 371 L 128 371 L 128 371 Q 150 369 152 347 L 152 299 L 152 299 L 200 299 L 200 299 Q 222 297 224 275 L 224 243 L 224 243 Q 222 221 200 219 L 152 219 L 152 219 L 152 171 L 152 171 Q 150 149 128 147 L 96 147 L 96 147 Z" />
</svg>