<svg xmlns="http://www.w3.org/2000/svg" viewBox="0 0 448 512">
  <path d="M 32 80 Q 41 80 46 73 L 76 24 L 76 24 Q 81 16 90 16 L 358 16 L 358 16 Q 367 16 372 24 L 403 73 L 403 73 Q 407 80 416 80 Q 431 81 432 96 Q 431 111 416 112 L 32 112 L 32 112 Q 17 111 16 96 Q 17 81 32 80 L 32 80 Z M 385 15 Q 376 0 358 0 L 90 0 L 90 0 Q 72 1 63 15 L 32 64 L 32 64 Q 18 64 9 73 Q 0 82 0 96 Q 0 110 9 119 Q 18 128 32 128 L 416 128 L 416 128 Q 430 128 439 119 Q 448 110 448 96 Q 448 82 439 73 Q 430 64 416 64 L 385 15 L 385 15 Z M 47 160 L 75 454 L 47 160 L 75 454 Q 77 479 95 495 Q 113 511 138 512 L 310 512 L 310 512 Q 335 511 353 495 Q 370 479 373 454 L 401 160 L 401 160 L 385 160 L 385 160 L 379 224 L 379 224 L 69 224 L 69 224 L 64 160 L 64 160 L 47 160 L 47 160 Z M 71 240 L 377 240 L 71 240 L 377 240 L 364 384 L 364 384 L 84 384 L 84 384 L 71 240 L 71 240 Z M 86 400 L 362 400 L 86 400 L 362 400 L 357 452 L 357 452 Q 355 471 342 483 Q 329 496 310 496 L 138 496 L 138 496 Q 119 496 106 483 Q 93 471 91 452 L 86 400 L 86 400 Z" />
</svg>