<svg xmlns="http://www.w3.org/2000/svg" viewBox="0 0 640 448">
  <path d="M 64 16 Q 44 17 30 30 L 30 30 L 30 30 Q 17 44 16 64 L 16 96 L 16 96 L 64 96 L 64 96 Q 91 97 109 115 Q 127 133 128 160 L 128 288 L 128 288 Q 127 315 109 333 Q 91 351 64 352 L 16 352 L 16 352 L 16 384 L 16 384 Q 17 404 30 418 Q 44 431 64 432 L 312 432 L 312 432 L 312 320 L 312 320 Q 274 316 250 289 Q 225 263 224 224 Q 225 185 250 159 Q 274 132 312 128 L 312 16 L 312 16 L 64 16 L 64 16 Z M 328 320 L 328 432 L 328 320 L 328 432 L 576 432 L 576 432 Q 596 431 610 418 Q 623 404 624 384 L 624 352 L 624 352 L 576 352 L 576 352 Q 549 351 531 333 Q 513 315 512 288 L 512 160 L 512 160 Q 513 133 531 115 Q 549 97 576 96 L 624 96 L 624 96 L 624 64 L 624 64 Q 623 44 610 30 Q 596 17 576 16 L 328 16 L 328 16 L 328 128 L 328 128 Q 366 132 390 159 Q 415 185 416 224 Q 415 263 390 289 Q 366 316 328 320 L 328 320 Z M 328 144 L 328 304 L 328 144 L 328 304 Q 359 300 379 278 Q 399 256 400 224 Q 399 192 379 170 Q 359 148 328 144 L 328 144 Z M 312 144 Q 281 148 261 170 L 261 170 L 261 170 Q 241 192 240 224 Q 241 256 261 278 Q 281 300 312 304 L 312 144 L 312 144 Z M 16 112 L 16 336 L 16 112 L 16 336 L 64 336 L 64 336 Q 84 335 98 322 Q 111 308 112 288 L 112 160 L 112 160 Q 111 140 98 126 Q 84 113 64 112 L 16 112 L 16 112 Z M 576 336 L 624 336 L 576 336 L 624 336 L 624 112 L 624 112 L 576 112 L 576 112 Q 556 113 542 126 Q 529 140 528 160 L 528 288 L 528 288 Q 529 308 542 322 Q 556 335 576 336 L 576 336 Z M 0 64 Q 1 37 19 19 L 19 19 L 19 19 Q 37 1 64 0 L 576 0 L 576 0 Q 603 1 621 19 Q 639 37 640 64 L 640 384 L 640 384 Q 639 411 621 429 Q 603 447 576 448 L 64 448 L 64 448 Q 37 447 19 429 Q 1 411 0 384 L 0 64 L 0 64 Z" />
</svg>