<svg xmlns="http://www.w3.org/2000/svg" viewBox="0 0 514 448">
  <path d="M 4 230 Q 0 224 4 218 L 140 82 L 140 82 Q 146 78 152 82 Q 156 88 152 94 L 29 216 L 29 216 L 346 216 L 346 216 Q 353 217 354 224 Q 353 231 346 232 L 29 232 L 29 232 L 152 354 L 152 354 Q 156 360 152 366 Q 146 370 140 366 L 4 230 L 4 230 Z M 330 16 Q 323 15 322 8 Q 323 1 330 0 L 426 0 L 426 0 Q 463 1 488 26 Q 513 51 514 88 L 514 360 L 514 360 Q 513 397 488 422 Q 463 447 426 448 L 330 448 L 330 448 Q 323 447 322 440 Q 323 433 330 432 L 426 432 L 426 432 Q 457 431 477 411 Q 497 391 498 360 L 498 88 L 498 88 Q 497 57 477 37 Q 457 17 426 16 L 330 16 L 330 16 Z" />
</svg>