<svg xmlns="http://www.w3.org/2000/svg" viewBox="0 0 576 512">
  <path d="M 400 240 Q 399 225 384 224 L 352 224 L 314 224 Q 279 225 256 248 Q 233 271 232 306 Q 233 324 243 337 Q 252 350 261 357 Q 264 360 264 363 L 264 364 L 264 364 Q 264 368 260 368 Q 259 368 259 368 Q 259 368 259 368 Q 259 368 259 368 Q 259 368 259 368 Q 252 365 238 357 Q 223 348 207 332 Q 191 317 180 294 Q 168 271 168 240 Q 169 179 210 138 Q 251 98 312 96 L 384 96 L 384 96 Q 398 95 400 80 L 400 28 L 400 28 Q 401 17 412 16 Q 417 16 421 20 L 559 158 L 559 158 Q 560 159 560 160 Q 560 161 559 162 L 421 300 L 421 300 Q 417 304 412 304 Q 401 303 400 292 L 400 240 L 400 240 Z M 352 240 L 368 240 L 352 240 L 384 240 L 384 256 L 384 256 L 384 292 L 384 292 Q 384 304 392 312 Q 400 320 412 320 Q 424 320 432 312 L 570 174 L 570 174 Q 576 168 576 160 Q 576 152 570 146 L 432 8 L 432 8 Q 424 0 412 0 Q 400 0 392 8 Q 384 16 384 28 L 384 64 L 384 64 L 384 80 L 384 80 L 368 80 L 312 80 Q 244 82 199 127 Q 154 172 152 240 Q 153 287 174 317 Q 195 347 219 363 Q 242 379 253 383 Q 256 384 260 384 Q 278 382 280 364 L 280 363 L 280 363 Q 280 352 272 345 Q 264 338 256 328 Q 249 317 248 305 Q 249 278 267 259 Q 286 241 314 240 L 352 240 L 352 240 Z M 56 32 Q 32 33 16 48 L 16 48 L 16 48 Q 1 64 0 88 L 0 456 L 0 456 Q 1 480 16 496 Q 32 511 56 512 L 424 512 L 424 512 Q 448 511 464 496 Q 479 480 480 456 L 480 392 L 480 392 Q 479 385 472 384 Q 465 385 464 392 L 464 456 L 464 456 Q 464 473 452 484 Q 441 496 424 496 L 56 496 L 56 496 Q 39 496 28 484 Q 16 473 16 456 L 16 88 L 16 88 Q 16 71 28 60 Q 39 48 56 48 L 152 48 L 152 48 Q 159 47 160 40 Q 159 33 152 32 L 56 32 L 56 32 Z" />
</svg>