<svg xmlns="http://www.w3.org/2000/svg" viewBox="0 0 640 512">
  <path d="M 258 104 Q 238 109 220 117 Q 215 120 208 118 L 102 82 L 102 82 Q 98 81 95 84 Q 92 88 95 92 L 143 164 L 143 164 Q 148 173 143 182 Q 136 193 131 205 Q 128 211 121 214 L 20 250 L 20 250 Q 16 251 16 256 Q 16 261 20 262 L 121 298 L 121 298 Q 128 301 130 307 Q 136 319 143 330 Q 148 339 143 348 L 95 420 L 95 420 Q 92 424 95 428 Q 97 431 102 430 L 208 394 L 208 394 Q 214 392 220 395 Q 238 403 258 408 Q 265 410 268 416 L 310 490 L 310 490 Q 313 496 320 496 Q 326 496 330 490 L 372 416 L 372 416 Q 375 410 381 408 Q 402 403 420 395 Q 425 392 431 394 L 538 430 L 538 430 Q 542 431 545 428 Q 548 424 545 420 L 497 348 L 497 348 Q 492 339 497 330 Q 504 319 509 307 Q 512 301 519 298 L 619 262 L 619 262 Q 624 261 624 256 Q 623 252 619 250 L 519 214 L 519 214 Q 512 211 510 205 Q 504 193 497 182 Q 492 173 497 164 L 546 92 L 546 92 Q 548 88 545 84 Q 543 81 538 82 L 432 118 L 432 118 Q 426 120 420 117 Q 402 109 382 104 Q 375 102 372 96 L 330 22 L 330 22 Q 327 16 320 16 Q 313 16 310 22 L 268 96 L 268 96 Q 265 102 258 104 L 258 104 Z M 344 14 L 386 88 L 344 14 L 386 88 Q 407 94 426 103 L 533 67 L 533 67 Q 548 63 558 75 Q 567 87 559 101 L 510 173 L 510 173 Q 519 185 524 199 L 625 235 L 625 235 Q 639 240 640 256 Q 639 271 625 277 L 524 313 L 524 313 Q 519 327 510 339 L 559 411 L 559 411 Q 567 424 558 437 Q 548 449 533 445 L 427 409 L 427 409 Q 407 418 386 424 L 344 498 L 344 498 Q 336 512 320 512 Q 304 512 296 498 L 255 424 L 255 424 Q 233 418 214 409 L 107 445 L 107 445 Q 92 449 82 437 Q 73 425 81 411 L 130 339 L 130 339 Q 121 327 116 313 L 15 277 L 15 277 Q 1 272 0 256 Q 1 241 15 235 L 116 199 L 116 199 Q 121 185 130 173 L 81 101 L 81 101 Q 73 88 82 75 Q 92 63 107 67 L 214 103 L 214 103 Q 233 94 254 88 L 296 14 L 296 14 Q 304 0 320 0 Q 336 1 344 14 L 344 14 Z M 232 248 Q 233 285 258 310 L 258 310 L 258 310 Q 283 335 320 336 Q 357 335 382 310 Q 407 285 408 248 Q 408 229 401 213 Q 381 223 360 228 Q 357 257 349 274 Q 340 291 334 298 Q 328 304 320 304 Q 312 304 306 298 Q 299 291 291 274 Q 283 257 280 228 Q 259 223 239 213 Q 232 229 232 248 L 232 248 Z M 318 287 Q 318 288 320 288 Q 322 288 322 287 Q 327 283 334 269 Q 341 255 343 230 Q 332 232 321 232 Q 320 232 320 232 Q 320 232 319 232 Q 308 232 297 230 Q 300 255 307 269 Q 313 283 318 287 L 318 287 Z M 415 205 L 415 206 L 415 205 L 415 206 Q 424 225 424 248 Q 423 292 394 322 Q 364 351 320 352 Q 276 351 246 322 Q 217 292 216 248 Q 216 225 225 206 L 225 205 L 225 205 Q 218 201 211 196 Q 206 191 210 184 Q 215 179 221 183 Q 263 215 319 216 Q 319 216 320 216 Q 320 216 320 216 Q 320 216 320 216 Q 321 216 321 216 Q 377 215 419 183 Q 425 179 430 184 Q 434 191 429 196 Q 422 201 415 205 L 415 205 Z" />
</svg>