<svg xmlns="http://www.w3.org/2000/svg" viewBox="0 0 592 480">
  <path d="M 176 102 Q 174 126 150 128 L 96 128 L 96 128 L 96 352 L 96 352 Q 97 393 124 420 Q 151 447 192 448 Q 233 447 260 420 Q 287 393 288 352 L 288 128 L 288 128 Q 289 80 321 49 Q 352 17 400 16 Q 448 17 479 49 Q 511 80 512 128 L 512 352 L 512 352 L 566 352 L 566 352 Q 590 354 592 378 Q 592 387 586 394 L 523 471 L 523 471 Q 516 480 504 480 Q 492 480 485 471 L 422 394 L 422 394 Q 416 387 416 378 Q 418 354 442 352 L 496 352 L 496 352 L 496 128 L 496 128 Q 495 87 468 60 Q 441 33 400 32 Q 359 33 332 60 Q 305 87 304 128 L 304 352 L 304 352 Q 303 400 271 431 Q 240 463 192 464 Q 144 463 113 431 Q 81 400 80 352 L 80 128 L 80 128 L 26 128 L 26 128 Q 2 126 0 102 Q 0 93 6 86 L 69 9 L 69 9 Q 76 0 88 0 Q 100 0 107 9 L 170 86 L 170 86 Q 176 93 176 102 L 176 102 Z M 160 102 Q 160 99 158 96 L 95 19 L 95 19 Q 92 16 88 16 Q 84 16 81 19 L 18 96 L 18 96 Q 16 99 16 102 Q 17 111 26 112 L 150 112 L 150 112 Q 159 111 160 102 L 160 102 Z M 576 378 Q 575 369 566 368 L 442 368 L 442 368 Q 433 369 432 378 Q 432 381 434 384 L 497 461 L 497 461 Q 500 464 504 464 Q 508 464 511 461 L 574 384 L 574 384 Q 576 381 576 378 L 576 378 Z" />
</svg>