<svg xmlns="http://www.w3.org/2000/svg" viewBox="0 0 640 480">
  <path d="M 192 144 L 192 149 L 192 144 L 192 149 Q 192 159 194 170 L 212 283 L 212 283 L 223 351 L 223 351 Q 224 359 224 368 L 224 371 L 224 371 Q 223 420 188 452 Q 207 445 225 435 L 256 417 L 256 417 Q 286 400 320 400 Q 354 400 384 417 L 415 435 L 415 435 Q 433 445 452 452 Q 417 420 416 371 L 416 368 L 416 368 Q 416 359 417 351 L 428 283 L 428 283 L 446 170 L 446 170 Q 448 159 448 149 L 448 144 L 448 144 Q 447 90 411 53 Q 374 17 320 16 Q 266 17 230 53 Q 193 90 192 144 L 192 144 Z M 438 326 L 433 353 L 438 326 L 433 353 Q 432 361 432 368 L 432 371 L 432 371 Q 433 410 459 437 Q 486 463 525 464 Q 562 463 588 440 Q 613 417 618 381 L 624 327 L 624 327 Q 625 320 633 320 Q 640 321 640 329 L 634 383 L 634 383 Q 628 425 598 452 Q 568 479 525 480 L 525 480 L 525 480 Q 462 480 407 449 L 376 431 L 376 431 Q 350 416 320 416 Q 290 416 264 431 L 233 449 L 233 449 Q 178 480 115 480 Q 115 480 115 480 Q 115 480 115 480 L 115 480 L 115 480 Q 72 479 42 452 Q 12 425 6 383 L 0 329 L 0 329 Q 0 322 7 320 Q 14 320 16 327 L 22 381 L 22 381 Q 27 417 52 440 Q 78 463 115 464 Q 154 463 181 437 Q 207 410 208 371 L 208 368 L 208 368 Q 208 361 207 353 L 202 326 L 202 326 Q 185 351 153 352 Q 132 352 116 339 Q 100 326 95 306 L 88 272 L 88 272 Q 81 243 59 226 Q 37 208 8 208 Q 1 207 0 200 Q 1 193 8 192 Q 43 193 69 214 Q 95 234 103 269 L 111 302 L 111 302 Q 114 317 126 327 Q 138 336 153 336 Q 174 335 186 321 Q 198 306 196 286 Q 196 286 196 286 L 178 172 L 178 172 Q 176 161 176 149 L 176 144 L 176 144 Q 178 83 218 42 Q 259 2 320 0 Q 381 2 422 42 Q 462 83 464 144 L 464 149 L 464 149 Q 464 161 462 172 L 444 286 L 444 286 Q 441 306 454 321 Q 466 335 487 336 Q 502 336 514 326 Q 525 317 529 302 L 537 269 L 537 269 Q 545 234 571 213 Q 597 192 632 192 Q 639 193 640 200 Q 639 207 632 208 Q 603 208 581 226 Q 559 243 552 272 L 545 305 L 545 305 Q 540 326 524 339 Q 508 352 487 352 Q 455 351 438 326 L 438 326 Z M 256 272 Q 257 257 272 256 Q 287 257 288 272 Q 287 287 272 288 Q 257 287 256 272 L 256 272 Z M 368 256 Q 383 257 384 272 Q 383 287 368 288 Q 353 287 352 272 Q 353 257 368 256 L 368 256 Z" />
</svg>