<svg xmlns="http://www.w3.org/2000/svg" viewBox="0 0 512 512">
  <path d="M 148.8166 93.01038 Q 149.70242 73.52249 162.1038 60.235294 L 162.1038 60.235294 Q 175.391 47.83391 194.87889 46.948097 Q 214.36678 46.948097 228.5398 60.235294 L 248.9135 81.49481 Q 251.57094 84.15225 255.11418 84.15225 Q 258.65744 84.15225 261.31488 81.49481 L 282.5744 60.235294 Q 295.8616 46.948097 315.3495 46.948097 Q 334.83737 47.83391 348.12457 60.235294 Q 360.52594 73.52249 361.41177 93.01038 L 361.41177 93.896194 Q 361.41177 112.49827 349.01038 125.78547 L 261.31488 221.4533 Q 258.65744 224.11073 255.11418 224.11073 Q 251.57094 224.11073 248.9135 221.4533 L 161.21799 125.78547 Q 148.8166 112.49827 148.8166 93.896194 L 148.8166 93.01038 L 148.8166 93.01038 Z M 194.87889 29.231834 Q 168.3045 30.117647 149.70242 47.83391 L 149.70242 47.83391 Q 131.98616 66.43599 131.10034 93.01038 L 131.10034 93.896194 Q 131.10034 119.58478 147.9308 138.18684 L 235.6263 232.96886 Q 243.59862 241.827 255.11418 241.827 Q 266.62976 241.827 274.60208 232.96886 L 362.29758 138.18684 Q 379.12802 119.58478 379.12802 93.896194 L 379.12802 93.01038 Q 378.24222 66.43599 360.52594 47.83391 Q 341.9239 30.117647 315.3495 29.231834 Q 288.7751 29.231834 269.2872 47.83391 L 255.11418 62.892735 L 240.94118 47.83391 Q 221.4533 29.231834 194.87889 29.231834 L 194.87889 29.231834 Z M 462.39447 331.29413 Q 479.2249 320.66437 491.6263 335.72318 Q 502.25604 352.55362 487.19724 364.95502 L 375.58478 448.22147 Q 347.23877 468.59515 312.69205 468.59515 L 7.0865054 468.59515 Q 0.8858132 469.48096 0 475.68167 Q 0.8858132 481.88235 7.0865054 482.76816 L 312.69205 482.76816 Q 351.66782 482.76816 383.5571 459.73703 L 496.05536 376.47058 Q 507.57092 367.61246 510.22836 353.43945 Q 512 339.26645 503.14188 326.86505 Q 494.28372 315.3495 480.11072 312.69205 Q 465.9377 310.9204 453.53635 319.77853 L 349.89618 395.95847 Q 348.12457 397.7301 345.46713 397.7301 L 237.39792 397.7301 Q 227.65398 396.8443 226.76817 387.10034 Q 227.65398 377.3564 237.39792 376.47058 L 308.26297 376.47058 Q 321.55017 376.47058 330.4083 366.72665 Q 340.15225 357.8685 340.15225 344.58133 Q 340.15225 331.29413 330.4083 322.43597 Q 321.55017 312.69205 308.26297 312.69205 L 171.84775 312.69205 Q 131.98616 312.69205 100.9827 337.4948 L 62.892735 367.61246 Q 61.12111 369.3841 58.46367 369.3841 L 7.0865054 369.3841 Q 0.8858132 370.2699 0 376.47058 Q 0.8858132 382.6713 7.0865054 383.5571 L 58.46367 383.5571 Q 65.55017 383.5571 71.75086 379.12802 L 109.84083 349.01038 Q 136.41522 326.86505 171.84775 326.86505 L 308.26297 326.86505 Q 324.2076 328.6367 325.97925 344.58133 Q 324.2076 360.52594 308.26297 362.29758 L 237.39792 362.29758 Q 226.76817 362.29758 219.68166 369.3841 Q 212.59515 376.47058 212.59515 387.10034 Q 212.59515 397.7301 219.68166 404.81662 Q 226.76817 411.9031 237.39792 411.9031 L 345.46713 411.9031 Q 352.55362 411.9031 357.8685 407.47406 L 462.39447 331.29413 L 462.39447 331.29413 Z" />
</svg>