<svg xmlns="http://www.w3.org/2000/svg" viewBox="0 0 504 512">
  <path d="M 64 496 L 80 496 L 64 496 L 80 496 L 80 512 L 80 512 L 64 512 L 64 512 Q 37 511 19 493 Q 1 475 0 448 L 0 64 L 0 64 Q 1 37 19 19 Q 37 1 64 0 L 204 0 L 204 0 Q 224 0 238 14 L 370 146 L 370 146 Q 384 160 384 180 L 384 304 L 384 304 L 368 304 L 368 304 L 368 180 L 368 180 Q 368 178 368 176 Q 368 176 368 176 L 248 176 L 248 176 Q 231 176 220 164 Q 208 153 208 136 L 208 16 L 208 16 Q 206 16 204 16 L 64 16 L 64 16 Q 44 17 30 30 Q 17 44 16 64 L 16 448 L 16 448 Q 17 468 30 482 Q 44 495 64 496 L 64 496 Z M 361 160 Q 360 159 359 157 L 227 25 L 227 25 Q 225 24 224 23 L 224 136 L 224 136 Q 226 158 248 160 L 361 160 L 361 160 Z M 151 372 L 192 434 L 151 372 L 192 434 L 233 372 L 233 372 Q 237 367 242 368 Q 248 370 248 376 L 248 504 L 248 504 Q 247 511 240 512 Q 233 511 232 504 L 232 402 L 232 402 L 199 452 L 199 452 Q 196 456 192 456 Q 188 456 185 452 L 152 402 L 152 402 L 152 504 L 152 504 Q 151 511 144 512 Q 137 511 136 504 L 136 376 L 136 376 Q 136 370 142 368 Q 147 367 151 372 L 151 372 Z M 440 376 L 440 408 L 440 376 L 440 408 Q 440 452 464 490 Q 488 452 488 408 L 488 376 L 488 376 Q 489 369 496 368 Q 503 369 504 376 L 504 408 L 504 408 Q 504 458 476 501 L 471 509 L 471 509 Q 468 512 464 512 Q 460 512 457 508 L 452 501 L 452 501 Q 424 458 424 408 L 424 376 L 424 376 Q 425 369 432 368 Q 439 369 440 376 L 440 376 Z M 296 400 Q 296 386 305 377 L 305 377 L 305 377 Q 314 368 328 368 L 344 368 L 344 368 Q 358 368 367 377 Q 376 386 376 400 L 376 480 L 376 480 Q 376 494 367 503 Q 358 512 344 512 L 328 512 L 328 512 Q 314 512 305 503 Q 296 494 296 480 L 296 400 L 296 400 Z M 328 384 Q 313 385 312 400 L 312 480 L 312 480 Q 313 495 328 496 L 344 496 L 344 496 Q 359 495 360 480 L 360 400 L 360 400 Q 359 385 344 384 L 328 384 L 328 384 Z" />
</svg>