<svg xmlns="http://www.w3.org/2000/svg" viewBox="0 0 640 448">
  <path d="M 530 71 Q 548 40 573 20 L 573 20 L 573 20 Q 598 1 632 0 Q 639 1 640 8 Q 639 15 632 16 Q 578 18 544 80 Q 520 121 502 175 Q 497 164 493 152 Q 510 107 530 71 L 530 71 Z M 422 377 Q 404 408 379 428 L 379 428 L 379 428 Q 354 447 320 448 Q 286 447 261 428 Q 236 408 218 377 Q 200 345 185 307 Q 170 268 157 227 Q 157 227 157 227 L 157 227 L 157 227 Q 156 226 156 226 Q 142 185 128 147 Q 114 110 96 80 Q 62 18 8 16 Q 1 15 0 8 Q 1 1 8 0 Q 42 1 67 20 Q 92 40 110 71 Q 128 103 143 141 Q 158 180 171 221 Q 171 221 171 221 L 172 221 L 172 221 Q 172 222 172 222 Q 186 263 200 301 Q 214 338 232 368 Q 266 430 320 432 Q 374 430 408 368 Q 432 327 451 273 Q 455 284 459 296 Q 442 341 422 377 L 422 377 Z M 232 80 Q 208 121 190 175 Q 185 164 181 152 Q 198 107 218 71 Q 236 40 261 20 Q 286 1 320 0 Q 354 1 379 20 Q 404 40 422 71 Q 440 103 455 141 Q 470 180 483 221 Q 483 221 483 221 Q 483 221 483 221 Q 483 221 483 221 Q 483 221 483 221 Q 483 221 483 221 L 484 221 L 484 221 Q 484 222 484 222 Q 498 263 512 301 Q 526 338 544 368 Q 578 430 632 432 Q 639 433 640 440 Q 639 447 632 448 Q 598 447 573 428 Q 548 408 530 377 Q 512 345 497 307 Q 482 268 469 227 Q 469 227 469 227 L 469 227 L 469 227 Q 468 226 468 226 Q 454 185 440 147 Q 426 110 408 80 Q 374 18 320 16 Q 266 18 232 80 L 232 80 Z M 110 377 Q 92 408 67 428 L 67 428 L 67 428 Q 42 447 8 448 Q 1 447 0 440 Q 1 433 8 432 Q 62 430 96 368 Q 120 327 139 273 Q 143 284 147 296 Q 130 341 110 377 L 110 377 Z" />
</svg>