<svg xmlns="http://www.w3.org/2000/svg" viewBox="0 0 514 517">
  <path d="M 392 131 L 296 131 L 392 131 L 296 131 Q 291 131 289 126 Q 287 121 290 117 L 386 21 L 386 21 Q 390 18 395 20 Q 400 22 400 27 L 400 123 L 400 123 Q 399 130 392 131 L 392 131 Z M 392 147 Q 414 145 416 123 L 416 27 L 416 27 Q 415 11 401 5 Q 387 0 375 10 L 337 48 L 337 48 Q 283 4 208 3 Q 122 5 64 61 Q 6 117 0 203 Q 1 210 8 211 Q 15 211 16 203 Q 21 125 75 73 Q 128 21 208 19 Q 276 20 326 59 L 279 106 L 279 106 Q 268 118 274 132 Q 280 146 296 147 L 392 147 L 392 147 Z M 24 291 L 120 291 L 24 291 L 120 291 Q 125 291 127 296 Q 129 301 126 305 L 30 401 L 30 401 Q 26 404 21 402 Q 16 400 16 395 L 16 299 L 16 299 Q 17 292 24 291 L 24 291 Z M 24 275 Q 2 277 0 299 L 0 395 L 0 395 Q 1 411 15 417 Q 29 423 41 412 L 137 316 L 137 316 Q 148 304 142 290 Q 136 276 120 275 L 24 275 L 24 275 Z M 361 352 Q 411 298 416 219 Q 415 212 408 211 Q 401 211 400 219 Q 395 298 341 349 Q 287 401 208 403 Q 140 402 90 363 L 79 374 L 79 374 Q 133 418 208 419 Q 292 417 349 364 L 498 513 L 498 513 Q 504 517 510 513 Q 514 507 510 501 L 361 352 L 361 352 Z" />
</svg>