<svg xmlns="http://www.w3.org/2000/svg" viewBox="0 0 512 512">
  <path d="M 107.789474 67.36842 L 107.789474 134.73685 L 181.89473 134.73685 L 195.36842 134.73685 L 269.4737 134.73685 L 269.4737 67.36842 L 107.789474 67.36842 L 107.789474 67.36842 Z M 94.31579 134.73685 L 94.31579 67.36842 L 53.894737 67.36842 Q 37.05263 68.210526 25.263159 79.1579 Q 14.315789 90.947365 13.473684 107.789474 L 13.473684 134.73685 L 94.31579 134.73685 L 94.31579 134.73685 Z M 13.473684 148.21053 L 13.473684 235.78947 L 181.89473 235.78947 L 181.89473 148.21053 L 13.473684 148.21053 L 13.473684 148.21053 Z M 13.473684 336.8421 L 94.31579 336.8421 L 94.31579 249.26315 L 13.473684 249.26315 L 13.473684 336.8421 L 13.473684 336.8421 Z M 13.473684 350.3158 L 13.473684 377.26315 Q 14.315789 394.10526 25.263159 405.89474 Q 37.05263 416.8421 53.894737 417.6842 L 181.89473 417.6842 L 181.89473 350.3158 L 107.789474 350.3158 L 94.31579 350.3158 L 13.473684 350.3158 L 13.473684 350.3158 Z M 107.789474 336.8421 L 216.42105 336.8421 Q 217.26315 343.57895 218.10527 350.3158 L 195.36842 350.3158 L 195.36842 417.6842 L 246.73685 417.6842 Q 251.78947 424.42105 257.6842 431.1579 L 53.894737 431.1579 Q 31.157894 430.3158 16 415.1579 Q 0.84210527 400 0 377.26315 L 0 107.789474 Q 0.84210527 85.052635 16 69.89474 Q 31.157894 54.736843 53.894737 53.894737 L 323.3684 53.894737 Q 346.10526 54.736843 361.26315 69.89474 Q 376.42105 85.052635 377.26315 107.789474 L 377.26315 149.05263 Q 375.57895 146.52632 373.05264 144.8421 Q 368.8421 140.63158 363.78946 138.94737 L 363.78946 107.789474 Q 362.94736 90.947365 352 79.1579 Q 340.21054 68.210526 323.3684 67.36842 L 282.94736 67.36842 L 282.94736 134.73685 L 282.94736 148.21053 L 195.36842 148.21053 L 195.36842 235.78947 L 244.21053 235.78947 Q 240 242.52632 236.63158 249.26315 L 107.789474 249.26315 L 107.789474 336.8421 L 107.789474 336.8421 Z M 401.6842 227.36842 Q 395.78946 226.52632 391.57895 222.3158 Q 370.5263 197.05263 346.94736 175.1579 Q 305.6842 213.05263 281.26315 252.63158 Q 256.8421 293.89474 256 323.3684 Q 256.8421 374.73685 291.3684 409.26315 Q 325.05264 442.94736 377.26315 444.6316 Q 428.6316 442.94736 463.1579 409.26315 Q 496.8421 374.73685 498.5263 323.3684 Q 497.6842 299.78946 480 262.73685 Q 461.4737 227.36842 432 198.73685 Q 421.89474 209.6842 411.78946 221.47368 Q 408.42105 226.52632 401.6842 226.52632 L 401.6842 227.36842 Z M 392.42105 202.94737 Q 397.4737 208 401.6842 213.89473 Q 402.5263 212.21053 403.3684 211.36842 Q 406.73685 207.1579 410.10526 202.94737 Q 416.8421 195.36842 423.57895 188.63158 Q 432 181.89473 440.42105 188.63158 Q 472.42105 218.94737 491.78946 256.8421 Q 501.05264 275.3684 506.10526 293.05264 Q 512 310.73685 512 323.3684 Q 510.3158 380.6316 472.42105 418.5263 Q 434.5263 456.42105 377.26315 458.10526 Q 319.1579 456.42105 281.26315 418.5263 Q 244.21053 380.6316 242.52632 323.3684 Q 243.36842 288 269.4737 245.89473 Q 295.57895 203.78947 338.5263 165.05263 Q 341.89474 161.6842 346.94736 161.6842 Q 351.1579 161.6842 355.3684 165.05263 Q 374.73685 182.73685 392.42105 202.94737 L 392.42105 202.94737 Z M 345.26315 242.52632 Q 347.78946 242.52632 350.3158 245.05263 Q 351.1579 245.89473 352 247.57895 Q 356.21054 252.63158 363.78946 262.73685 Q 371.3684 272 380.6316 283.78946 L 399.1579 307.3684 L 402.5263 312.42105 L 431.1579 279.57895 Q 432.8421 277.05264 436.21054 277.05264 Q 439.57895 277.05264 441.26315 279.57895 Q 445.4737 285.4737 448 291.3684 Q 448 291.3684 448.8421 291.3684 L 448.8421 291.3684 L 448.8421 292.21054 Q 462.3158 317.4737 456.42105 345.26315 Q 451.3684 372.21054 427.78946 389.89474 L 427.78946 389.89474 L 427.78946 389.89474 Q 405.05264 405.05264 378.10526 405.05264 Q 343.57895 404.21054 320.8421 384 Q 297.26315 362.94736 296.42105 325.89474 Q 296.42105 307.3684 307.3684 288.8421 Q 318.3158 270.3158 339.3684 245.05263 Q 341.89474 242.52632 344.42105 242.52632 L 345.26315 242.52632 Z M 402.5263 322.5263 L 397.4737 326.73685 L 397.4737 326.73685 L 397.4737 326.73685 L 397.4737 326.73685 L 397.4737 326.73685 L 396.6316 325.89474 L 394.94736 324.21054 L 389.05264 315.78946 L 369.6842 292.21054 Q 361.26315 280.42105 353.6842 271.1579 Q 348.6316 264.42105 345.26315 260.21054 Q 328.42105 280.42105 320 295.57895 Q 309.89474 311.57895 309.89474 325.05264 Q 310.73685 357.05264 330.10526 373.89474 Q 348.6316 390.73685 378.94736 390.73685 Q 401.6842 391.57895 420.21054 378.10526 Q 438.73685 364.6316 443.78946 341.89474 Q 448 320 437.05264 298.10526 L 437.05264 297.26315 L 437.05264 297.26315 Q 436.21054 297.26315 436.21054 296.42105 Q 435.3684 295.57895 435.3684 294.73685 L 407.57895 326.73685 Q 405.89474 329.26315 402.5263 329.26315 Q 399.1579 329.26315 397.4737 326.73685 L 402.5263 322.5263 L 402.5263 322.5263 Z" />
</svg>