<svg xmlns="http://www.w3.org/2000/svg" viewBox="0 0 504 512">
  <path d="M 64 496 L 112 496 L 64 496 L 112 496 L 112 512 L 112 512 L 64 512 L 64 512 Q 37 511 19 493 Q 1 475 0 448 L 0 64 L 0 64 Q 1 37 19 19 Q 37 1 64 0 L 204 0 L 204 0 Q 224 0 238 14 L 370 146 L 370 146 Q 384 160 384 180 L 384 304 L 384 304 L 368 304 L 368 304 L 368 180 L 368 180 Q 368 178 368 176 Q 368 176 368 176 L 248 176 L 248 176 Q 231 176 220 164 Q 208 153 208 136 L 208 16 L 208 16 Q 206 16 204 16 L 64 16 L 64 16 Q 44 17 30 30 Q 17 44 16 64 L 16 448 L 16 448 Q 17 468 30 482 Q 44 495 64 496 L 64 496 Z M 361 160 Q 360 159 359 157 L 227 25 L 227 25 Q 225 24 224 23 L 224 136 L 224 136 Q 226 158 248 160 L 361 160 L 361 160 Z M 200 368 L 216 368 L 200 368 L 216 368 Q 230 368 239 377 Q 248 386 248 400 L 248 408 L 248 408 Q 247 415 240 416 Q 233 415 232 408 L 232 400 L 232 400 Q 231 385 216 384 L 200 384 L 200 384 Q 185 385 184 400 L 184 480 L 184 480 Q 185 495 200 496 L 216 496 L 216 496 Q 231 495 232 480 L 232 472 L 232 472 Q 233 465 240 464 Q 247 465 248 472 L 248 480 L 248 480 Q 248 494 239 503 Q 230 512 216 512 L 200 512 L 200 512 Q 186 512 177 503 Q 168 494 168 480 L 168 400 L 168 400 Q 168 386 177 377 Q 186 368 200 368 L 200 368 Z M 328 368 L 344 368 L 328 368 L 344 368 Q 358 368 367 377 Q 376 386 376 400 L 376 440 L 376 440 L 376 504 L 376 504 Q 375 511 368 512 Q 361 511 360 504 L 360 448 L 360 448 L 312 448 L 312 448 L 312 504 L 312 504 Q 311 511 304 512 Q 297 511 296 504 L 296 440 L 296 440 L 296 400 L 296 400 Q 296 386 305 377 Q 314 368 328 368 L 328 368 Z M 360 432 L 360 400 L 360 432 L 360 400 Q 359 385 344 384 L 328 384 L 328 384 Q 313 385 312 400 L 312 432 L 312 432 L 360 432 L 360 432 Z M 424 376 Q 425 369 432 368 L 464 368 L 464 368 Q 481 368 492 380 Q 504 391 504 408 L 504 472 L 504 472 Q 504 489 492 500 Q 481 512 464 512 L 432 512 L 432 512 Q 425 511 424 504 L 424 376 L 424 376 Z M 440 496 L 464 496 L 440 496 L 464 496 Q 486 494 488 472 L 488 408 L 488 408 Q 486 386 464 384 L 440 384 L 440 384 L 440 496 L 440 496 Z" />
</svg>