<svg xmlns="http://www.w3.org/2000/svg" viewBox="0 0 504 512">
  <path d="M 64 496 L 80 496 L 64 496 L 80 496 L 80 512 L 80 512 L 64 512 L 64 512 Q 37 511 19 493 Q 1 475 0 448 L 0 64 L 0 64 Q 1 37 19 19 Q 37 1 64 0 L 204 0 L 204 0 Q 224 0 238 14 L 370 146 L 370 146 Q 384 160 384 180 L 384 304 L 384 304 L 368 304 L 368 304 L 368 180 L 368 180 Q 368 178 368 176 Q 368 176 368 176 L 248 176 L 248 176 Q 231 176 220 164 Q 208 153 208 136 L 208 16 L 208 16 Q 206 16 204 16 L 64 16 L 64 16 Q 44 17 30 30 Q 17 44 16 64 L 16 448 L 16 448 Q 17 468 30 482 Q 44 495 64 496 L 64 496 Z M 361 160 Q 360 159 359 157 L 227 25 L 227 25 Q 225 24 224 23 L 224 136 L 224 136 Q 226 158 248 160 L 361 160 L 361 160 Z M 151 372 L 192 434 L 151 372 L 192 434 L 233 372 L 233 372 Q 237 367 242 368 Q 248 370 248 376 L 248 504 L 248 504 Q 247 511 240 512 Q 233 511 232 504 L 232 402 L 232 402 L 199 452 L 199 452 Q 196 456 192 456 Q 188 456 185 452 L 152 402 L 152 402 L 152 504 L 152 504 Q 151 511 144 512 Q 137 511 136 504 L 136 376 L 136 376 Q 136 370 142 368 Q 147 367 151 372 L 151 372 Z M 304 368 L 336 368 L 304 368 L 336 368 Q 356 369 370 382 Q 383 396 384 416 Q 383 436 370 450 Q 356 463 336 464 L 312 464 L 312 464 L 312 504 L 312 504 Q 311 511 304 512 Q 297 511 296 504 L 296 456 L 296 456 L 296 376 L 296 376 Q 297 369 304 368 L 304 368 Z M 336 448 Q 350 448 359 439 L 359 439 L 359 439 Q 368 430 368 416 Q 368 402 359 393 Q 350 384 336 384 L 312 384 L 312 384 L 312 448 L 312 448 L 336 448 L 336 448 Z M 426 446 Q 424 443 424 440 L 424 376 L 424 376 Q 425 369 432 368 Q 439 369 440 376 L 440 432 L 440 432 L 488 432 L 488 432 L 488 376 L 488 376 Q 489 369 496 368 Q 503 369 504 376 L 504 440 L 504 440 L 504 504 L 504 504 Q 503 511 496 512 Q 489 511 488 504 L 488 448 L 488 448 L 432 448 L 432 448 Q 429 448 426 446 L 426 446 Z" />
</svg>