<svg xmlns="http://www.w3.org/2000/svg" viewBox="0 0 576 512">
  <path d="M 0 38 Q 0 22 11 11 L 11 11 L 11 11 Q 22 0 38 0 L 474 0 L 474 0 Q 490 0 501 11 Q 512 22 512 38 Q 512 51 504 61 L 396 196 L 396 196 Q 382 199 369 204 L 491 51 L 491 51 Q 496 45 496 38 Q 494 18 474 16 L 38 16 L 38 16 Q 18 18 16 38 Q 16 45 21 51 L 206 283 L 206 283 Q 208 285 208 288 L 208 360 L 208 360 Q 208 372 218 379 L 261 411 L 261 411 Q 265 424 270 437 L 208 392 L 208 392 Q 192 380 192 360 L 192 291 L 192 291 L 8 61 L 8 61 Q 0 51 0 38 L 0 38 Z M 432 496 Q 467 496 496 479 L 496 479 L 496 479 Q 525 462 543 432 Q 560 402 560 368 Q 560 334 543 304 Q 525 274 496 257 Q 467 240 432 240 Q 397 240 368 257 Q 339 274 321 304 Q 304 334 304 368 Q 304 402 321 432 Q 339 462 368 479 Q 397 496 432 496 L 432 496 Z M 432 224 Q 471 224 504 243 L 504 243 L 504 243 Q 537 262 557 296 Q 576 330 576 368 Q 576 406 557 440 Q 537 474 504 493 Q 471 512 432 512 Q 393 512 360 493 Q 327 474 307 440 Q 288 406 288 368 Q 288 330 307 296 Q 327 262 360 243 Q 393 224 432 224 L 432 224 Z M 404 318 Q 391 324 392 336 Q 392 343 404 349 Q 415 354 433 359 Q 433 359 434 359 L 435 359 L 435 359 Q 453 364 469 371 Q 486 379 488 400 Q 487 424 468 433 Q 454 439 440 440 L 440 458 L 440 458 Q 439 465 432 466 Q 425 465 424 458 L 424 440 L 424 440 Q 405 437 388 431 Q 388 431 388 431 Q 388 431 388 431 Q 388 431 388 431 Q 386 430 384 430 Q 383 429 382 429 Q 375 426 376 419 Q 379 412 386 414 Q 388 414 389 415 Q 391 415 393 416 Q 393 416 393 416 Q 393 416 393 416 Q 393 416 393 416 Q 393 416 393 416 Q 393 416 393 416 Q 413 423 432 424 Q 447 425 460 419 Q 472 413 472 400 Q 472 391 461 385 Q 449 379 430 375 L 428 374 L 428 374 Q 411 370 396 363 Q 379 356 376 337 Q 377 312 396 304 Q 410 297 424 296 L 424 280 L 424 280 Q 424 273 432 272 Q 439 273 440 280 L 440 297 L 440 297 Q 455 298 470 302 Q 477 304 475 311 Q 473 318 466 317 Q 449 313 432 312 Q 417 312 403 318 L 404 318 Z" />
</svg>