<svg xmlns="http://www.w3.org/2000/svg" viewBox="0 0 576 384">
  <path d="M 0 64 Q 1 37 19 19 L 19 19 L 19 19 Q 37 1 64 0 L 512 0 L 512 0 Q 539 1 557 19 Q 575 37 576 64 L 576 137 L 576 137 Q 576 143 569 145 Q 551 147 540 160 Q 528 173 528 192 Q 528 211 540 224 Q 551 237 569 240 Q 575 241 576 247 L 576 320 L 576 320 Q 575 347 557 365 Q 539 383 512 384 L 64 384 L 64 384 Q 37 383 19 365 Q 1 347 0 320 L 0 247 L 0 247 Q 0 241 7 240 Q 25 237 36 224 Q 48 211 48 192 Q 48 173 36 160 Q 25 147 7 145 Q 1 143 0 137 L 0 64 L 0 64 Z M 64 16 Q 44 17 30 30 L 30 30 L 30 30 Q 17 44 16 64 L 16 130 L 16 130 Q 37 136 50 152 Q 64 169 64 192 Q 64 215 50 232 Q 37 248 16 254 L 16 320 L 16 320 Q 17 340 30 354 Q 44 367 64 368 L 512 368 L 512 368 Q 532 367 546 354 Q 559 340 560 320 L 560 254 L 560 254 Q 539 248 526 232 Q 512 215 512 192 Q 512 169 526 152 Q 539 136 560 130 L 560 64 L 560 64 Q 559 44 546 30 Q 532 17 512 16 L 64 16 L 64 16 Z" />
</svg>