<svg xmlns="http://www.w3.org/2000/svg" viewBox="0 0 512 518">
  <path d="M 48 6 Q 41 7 40 14 L 40 46 L 40 46 L 8 46 L 8 46 Q 1 47 0 54 Q 1 61 8 62 L 40 62 L 40 62 L 40 94 L 40 94 Q 41 101 48 102 Q 55 101 56 94 L 56 62 L 56 62 L 88 62 L 88 62 Q 95 61 96 54 Q 95 47 88 46 L 56 46 L 56 46 L 56 14 L 56 14 Q 55 7 48 6 L 48 6 Z M 464 326 Q 457 327 456 334 L 456 366 L 456 366 L 424 366 L 424 366 Q 417 367 416 374 Q 417 381 424 382 L 456 382 L 456 382 L 456 414 L 456 414 Q 457 421 464 422 Q 471 421 472 414 L 472 382 L 472 382 L 504 382 L 504 382 Q 511 381 512 374 Q 511 367 504 366 L 472 366 L 472 366 L 472 334 L 472 334 Q 471 327 464 326 L 464 326 Z M 144 470 L 368 470 L 144 470 L 368 470 Q 382 470 391 479 Q 400 488 400 502 L 400 510 L 400 510 Q 401 517 408 518 Q 415 517 416 510 L 416 502 L 416 502 Q 415 482 402 468 Q 388 455 368 454 L 144 454 L 144 454 Q 124 455 110 468 Q 97 482 96 502 L 96 510 L 96 510 Q 97 517 104 518 Q 111 517 112 510 L 112 502 L 112 502 Q 112 488 121 479 Q 130 470 144 470 L 144 470 Z M 288 54 Q 288 68 279 77 L 279 77 L 279 77 Q 270 86 256 86 Q 242 86 233 77 Q 224 68 224 54 Q 224 41 233 32 Q 242 23 255 22 Q 255 22 255 22 Q 255 22 256 22 L 256 22 L 256 22 Q 270 22 279 31 Q 288 40 288 54 L 288 54 Z M 304 54 Q 303 27 280 12 Q 256 0 232 12 Q 209 27 208 54 Q 209 81 232 96 Q 256 108 280 96 Q 303 81 304 54 L 304 54 Z M 173 180 Q 198 151 236 150 L 276 150 L 276 150 Q 314 151 339 180 L 379 230 L 379 230 L 399 230 L 399 230 L 351 170 L 351 170 Q 322 135 276 134 L 236 134 L 236 134 Q 190 135 161 170 L 113 230 L 113 230 L 133 230 L 133 230 L 173 180 L 173 180 Z M 174 230 L 200 230 L 174 230 L 200 230 L 200 221 L 200 221 Q 200 215 195 213 Q 189 211 186 216 L 174 230 L 174 230 Z M 312 230 L 338 230 L 312 230 L 338 230 L 326 216 L 326 216 Q 323 211 317 213 Q 312 215 312 221 L 312 230 L 312 230 Z M 168 390 Q 161 391 160 398 Q 161 405 168 406 L 344 406 L 344 406 Q 351 405 352 398 Q 351 391 344 390 L 168 390 L 168 390 Z M 160 334 Q 161 341 168 342 L 344 342 L 344 342 Q 351 341 352 334 Q 351 327 344 326 L 168 326 L 168 326 Q 161 327 160 334 L 160 334 Z M 104 262 Q 97 263 96 270 Q 97 277 104 278 L 408 278 L 408 278 Q 415 277 416 270 Q 415 263 408 262 L 104 262 L 104 262 Z" />
</svg>