<svg xmlns="http://www.w3.org/2000/svg" viewBox="0 0 448 512">
  <path d="M 16 8 Q 15 1 8 0 Q 1 1 0 8 L 0 64 L 0 64 L 0 384 L 0 384 L 0 400 L 0 400 L 0 504 L 0 504 Q 1 511 8 512 Q 15 511 16 504 L 16 396 L 16 396 L 128 368 L 128 368 Q 192 353 251 381 Q 320 415 393 389 L 427 376 L 427 376 Q 447 367 448 346 L 448 55 L 448 55 Q 447 41 437 34 Q 426 28 413 33 L 394 43 L 394 43 Q 358 60 320 60 Q 282 60 246 43 Q 192 16 133 30 L 16 60 L 16 60 L 16 8 L 16 8 Z M 16 77 L 137 46 L 16 77 L 137 46 Q 190 34 239 58 Q 278 77 320 77 Q 362 77 401 58 L 420 48 L 420 48 Q 430 45 432 55 L 432 346 L 432 346 Q 432 357 422 361 L 387 374 L 387 374 Q 321 397 258 367 Q 194 336 124 352 L 16 380 L 16 380 L 16 77 L 16 77 Z" />
</svg>