<svg xmlns="http://www.w3.org/2000/svg" viewBox="0 0 320 512">
  <path d="M 109 61 L 128 48 L 109 61 L 128 48 L 128 32 L 128 32 Q 128 18 137 9 Q 146 0 160 0 Q 174 0 183 9 Q 192 18 192 32 L 192 48 L 192 48 L 212 61 L 212 61 Q 238 80 240 112 Q 240 113 240 113 Q 240 114 240 114 L 240 116 L 240 116 Q 255 125 256 144 L 256 160 L 256 160 L 278 182 L 278 182 Q 319 224 320 284 L 320 448 L 320 448 Q 319 475 301 493 Q 283 511 256 512 L 64 512 L 64 512 Q 37 511 19 493 Q 1 475 0 448 L 0 408 L 0 408 L 0 312 L 0 312 L 0 284 L 0 284 Q 1 224 42 182 L 64 160 L 64 160 L 64 144 L 64 144 Q 65 125 80 116 L 80 114 L 80 114 Q 80 114 80 113 Q 80 113 80 112 Q 82 80 109 61 L 109 61 Z M 16 416 L 16 448 L 16 416 L 16 448 Q 17 468 30 482 Q 44 495 64 496 L 256 496 L 256 496 Q 276 495 290 482 Q 303 468 304 448 L 304 284 L 304 284 Q 303 231 267 193 L 249 176 L 249 176 L 240 176 L 71 176 L 54 193 L 54 193 Q 17 231 16 284 L 16 304 L 16 304 L 152 304 L 152 304 Q 159 305 160 312 Q 159 319 152 320 L 16 320 L 16 320 L 16 400 L 16 400 L 152 400 L 152 400 Q 159 401 160 408 Q 159 415 152 416 L 16 416 L 16 416 Z M 224 112 Q 222 88 203 74 L 183 61 L 183 61 Q 176 56 176 48 L 176 32 L 176 32 Q 175 17 160 16 Q 145 17 144 32 L 144 48 L 144 48 Q 144 56 137 61 L 117 74 L 117 74 Q 98 88 96 112 L 224 112 L 224 112 Z M 96 128 Q 81 129 80 144 L 80 160 L 80 160 L 240 160 L 240 160 L 240 144 L 240 144 Q 239 129 224 128 L 96 128 L 96 128 Z" />
</svg>