<svg xmlns="http://www.w3.org/2000/svg" viewBox="0 0 512 512">
  <path d="M 136.30034 309.29694 Q 152.0273 327.64505 172.12286 345.11945 Q 196.58704 366.96246 228.04095 380.942 Q 260.3686 394.9215 298.8123 395.79523 Q 337.25598 394.9215 369.58362 380.942 Q 401.03754 366.96246 425.5017 345.11945 Q 449.96588 324.15018 467.44028 302.30716 Q 484.04095 279.59045 492.77817 262.11603 Q 496.27304 256 492.77817 249.88396 Q 484.04095 232.40956 467.44028 209.69283 Q 449.96588 187.84982 425.5017 166.88054 Q 401.03754 145.03754 369.58362 131.05801 Q 337.25598 117.0785 298.8123 116.20478 Q 260.3686 117.0785 228.91467 131.05801 Q 196.58704 145.03754 172.12286 166.88054 Q 152.0273 184.35495 136.30034 202.70308 L 129.31058 211.44028 L 118.825935 206.19795 L 40.191128 159.89078 Q 31.453924 155.52219 23.590445 162.51195 L 13.979522 152.0273 L 23.590445 162.51195 Q 16.600683 169.50171 20.969284 179.11263 L 61.160408 249.01024 L 64.65529 256 L 61.160408 262.98975 L 20.969284 332.88736 Q 16.600683 342.4983 23.590445 349.48807 Q 31.453924 356.4778 40.191128 352.10922 L 118.825935 306.67578 L 128.43686 300.55972 L 136.30034 309.29694 L 136.30034 309.29694 Z M 163.38567 356.4778 Q 141.54266 338.1297 125.8157 318.03412 L 47.18089 364.3413 Q 28.832764 373.0785 13.105802 359.9727 Q 0 344.24573 8.737202 325.8976 L 48.92833 256 L 8.737202 186.10239 Q 0 167.75427 13.979522 152.0273 Q 28.832764 138.92151 47.18089 147.6587 L 125.8157 193.96587 Q 141.54266 173.8703 163.38567 156.3959 Q 188.72356 133.67918 222.79863 117.95222 Q 256.87372 103.098976 298.8123 102.22526 Q 340.75085 103.098976 374.82593 117.95222 Q 408.90103 133.67918 435.11264 156.3959 Q 460.4505 178.2389 477.92493 201.82935 Q 496.27304 224.54608 505.88397 242.8942 Q 512 256 505.88397 269.1058 Q 496.27304 287.45392 477.92493 310.17065 Q 460.4505 333.76108 435.11264 355.6041 Q 408.90103 378.32083 374.82593 394.0478 Q 340.75085 408.90103 298.8123 409.77475 Q 256.87372 408.90103 222.79863 394.0478 Q 188.72356 378.32083 163.38567 356.4778 L 163.38567 356.4778 Z M 368.7099 228.04095 Q 380.942 228.04095 388.80545 235.90443 L 388.80545 235.90443 Q 396.66895 243.76791 396.66895 256 Q 396.66895 268.2321 388.80545 276.09555 Q 380.942 283.95905 368.7099 283.95905 Q 356.4778 283.95905 348.61435 276.09555 Q 340.75085 268.2321 340.75085 256 Q 340.75085 243.76791 348.61435 235.90443 Q 356.4778 228.04095 368.7099 228.04095 L 368.7099 228.04095 Z M 382.68942 256 Q 381.8157 242.8942 368.7099 242.02048 Q 355.6041 242.8942 354.73038 256 Q 355.6041 269.1058 368.7099 269.97952 Q 381.8157 269.1058 382.68942 256 L 382.68942 256 Z" />
</svg>