<svg xmlns="http://www.w3.org/2000/svg" viewBox="0 0 641 514">
  <path d="M 112 128 Q 112 98 127 72 L 127 72 L 127 72 Q 142 46 168 31 Q 194 16 224 16 Q 254 16 280 31 Q 306 46 321 72 Q 336 98 336 128 Q 336 158 321 184 Q 306 210 280 225 Q 254 240 224 240 Q 194 240 168 225 Q 142 210 127 184 Q 112 158 112 128 L 112 128 Z M 352 128 Q 352 93 335 64 L 335 64 L 335 64 Q 318 35 288 17 Q 258 0 224 0 Q 190 0 160 17 Q 130 35 113 64 Q 96 93 96 128 Q 96 163 113 192 Q 130 221 160 239 Q 190 256 224 256 Q 258 256 288 239 Q 318 221 335 192 Q 352 163 352 128 L 352 128 Z M 16 482 Q 18 413 64 368 L 64 368 L 64 368 Q 109 322 178 320 L 270 320 L 270 320 Q 297 320 322 329 Q 321 320 320 311 Q 296 304 270 304 L 178 304 L 178 304 Q 103 306 52 356 Q 2 407 0 482 Q 0 495 9 503 Q 17 512 30 512 L 418 512 L 418 512 Q 421 512 424 512 Q 413 504 404 496 L 30 496 L 30 496 Q 17 495 16 482 L 16 482 Z M 373 289 L 488 243 L 373 289 L 488 243 L 488 493 L 488 493 Q 417 458 392 401 Q 366 343 368 296 Q 368 291 373 289 L 373 289 Z M 624 296 Q 626 343 600 401 L 600 401 L 600 401 Q 575 458 504 493 L 504 243 L 504 243 L 619 289 L 619 289 Q 624 291 624 296 L 624 296 Z M 505 226 Q 496 222 487 226 L 367 274 L 367 274 Q 353 280 352 296 Q 351 329 363 370 Q 374 411 403 449 Q 433 487 487 510 Q 496 514 505 510 Q 559 487 589 449 Q 618 411 629 370 Q 641 329 640 296 Q 639 280 625 274 L 505 226 L 505 226 Z" />
</svg>