<svg xmlns="http://www.w3.org/2000/svg" viewBox="0 0 512 416">
  <path d="M 176 208 L 176 297 L 176 208 L 176 297 Q 175 303 169 304 Q 166 304 164 302 L 17 162 L 17 162 Q 16 161 16 160 Q 16 159 17 158 L 164 18 L 164 18 Q 166 16 169 16 Q 175 17 176 23 L 176 112 L 176 112 Q 177 127 192 128 L 400 128 L 400 128 Q 441 129 468 156 Q 495 183 496 224 L 496 376 L 496 376 Q 494 398 472 400 L 456 400 L 456 400 Q 434 398 432 376 L 432 224 L 432 224 Q 432 210 423 201 Q 414 192 400 192 L 192 192 L 192 192 Q 177 193 176 208 L 176 208 Z M 6 174 L 153 314 L 6 174 L 153 314 Q 160 320 169 320 Q 190 318 192 297 L 192 224 L 192 224 L 192 208 L 192 208 L 208 208 L 400 208 Q 415 209 416 224 L 416 376 L 416 376 Q 417 393 428 404 Q 439 416 456 416 L 472 416 L 472 416 Q 489 416 500 404 Q 512 393 512 376 L 512 224 L 512 224 Q 511 176 479 145 Q 448 113 400 112 L 208 112 L 192 112 L 192 96 L 192 96 L 192 23 L 192 23 Q 190 2 169 0 Q 160 0 153 6 L 6 147 L 6 147 Q 0 152 0 160 Q 0 168 6 174 L 6 174 Z" />
</svg>