<svg xmlns="http://www.w3.org/2000/svg" viewBox="0 0 576 512">
  <path d="M 16 480 Q 17 495 32 496 L 272 496 L 272 496 L 272 208 L 272 208 L 16 208 L 16 208 L 16 480 L 16 480 Z M 288 496 L 427 496 L 288 496 L 427 496 L 288 232 L 288 232 L 288 496 L 288 496 Z M 560 192 L 560 160 L 560 192 L 560 160 Q 560 152 554 147 L 520 122 L 520 122 Q 501 108 485 89 L 429 22 L 429 22 Q 424 16 417 16 L 413 16 L 413 16 Q 407 16 402 21 L 380 43 L 380 43 Q 342 79 290 80 L 286 80 L 286 80 Q 234 79 196 43 L 174 21 L 174 21 Q 169 16 163 16 L 159 16 L 159 16 Q 152 16 147 22 L 91 89 L 91 89 Q 75 108 56 122 L 22 147 L 22 147 Q 16 152 16 160 L 16 192 L 16 192 L 560 192 L 560 192 Z M 293 208 L 445 496 L 293 208 L 445 496 L 544 496 L 544 496 Q 559 495 560 480 L 560 208 L 560 208 L 293 208 L 293 208 Z M 0 480 L 0 160 L 0 480 L 0 160 Q 0 144 13 134 L 46 109 L 46 109 Q 64 96 78 79 L 134 12 L 134 12 Q 144 0 159 0 L 163 0 L 163 0 Q 176 0 185 9 L 207 31 L 207 31 Q 240 63 286 64 L 290 64 L 290 64 Q 336 63 369 31 L 391 9 L 391 9 Q 400 0 413 0 L 417 0 L 417 0 Q 432 0 442 12 L 498 79 L 498 79 Q 512 96 530 110 L 563 134 L 563 134 Q 576 144 576 160 L 576 480 L 576 480 Q 576 494 567 503 Q 558 512 544 512 L 32 512 L 32 512 Q 18 512 9 503 Q 0 494 0 480 L 0 480 Z" />
</svg>