<svg xmlns="http://www.w3.org/2000/svg" viewBox="0 0 512 512">
  <path d="M 281.79846 70.449615 Q 288.74417 70.449615 293.7054 65.48837 Q 303.6279 52.589146 314.54263 41.67442 Q 345.30234 71.441864 364.15503 110.139534 Q 384 148.8372 384 174.63567 Q 383.00775 229.2093 347.28683 265.9225 Q 310.57364 302.63565 256 304.62015 Q 200.43411 302.63565 164.71318 265.9225 Q 128.99225 229.2093 127.00775 174.63567 Q 128 141.89148 153.79845 98.23256 Q 180.58914 55.56589 223.25581 15.875969 Q 248.06201 38.697674 270.88373 65.48837 Q 274.85272 70.449615 281.79846 71.441864 L 281.79846 70.449615 Z M 272.86823 45.64341 Q 253.02325 23.813953 232.18605 3.9689922 Q 228.21706 0.99224806 223.25581 0.99224806 Q 218.29457 0.99224806 214.32558 3.9689922 Q 169.67442 45.64341 141.89148 91.28682 Q 114.10853 135.93799 113.11628 174.63567 Q 114.10853 235.1628 154.7907 275.84497 Q 194.48062 316.52713 256 318.51163 Q 316.52713 316.52713 357.2093 275.84497 Q 396.89923 235.1628 398.88373 174.63567 Q 397.89148 143.87598 377.05426 103.1938 Q 357.2093 62.511627 323.47287 29.767443 Q 314.54263 22.821705 305.6124 29.767443 Q 297.6744 36.713177 290.72867 44.65116 Q 287.75195 49.612404 283.78296 53.581394 Q 282.7907 55.56589 281.79846 56.55814 Q 276.83722 50.604652 271.87598 45.64341 L 272.86823 45.64341 Z M 222.26357 87.31783 Q 218.29457 87.31783 215.31783 90.29457 Q 193.48837 117.08527 181.58139 136.93024 Q 169.67442 156.77519 169.67442 176.62015 Q 170.66667 216.31007 195.47287 239.13179 Q 220.27907 261.9535 256.99225 261.9535 Q 285.76746 261.9535 309.5814 246.07751 L 309.5814 246.07751 L 309.5814 245.08527 Q 335.37985 227.22481 340.3411 197.45737 Q 346.2946 167.68993 332.4031 139.90698 L 332.4031 139.90698 L 332.4031 139.90698 Q 329.42636 133.95349 324.46512 127.00775 Q 322.48062 124.031006 318.51163 123.03876 Q 314.54263 123.03876 312.55814 126.0155 L 282.7907 160.74419 L 279.81396 156.77519 L 259.969 130.97675 Q 249.05426 117.08527 240.12402 105.17829 Q 230.20155 92.27907 228.21706 89.30232 Q 225.24031 86.325584 221.27132 86.325584 L 222.26357 87.31783 Z M 282.7907 173.64342 L 276.83722 178.60464 Q 278.82172 181.58139 282.7907 181.58139 Q 286.7597 181.58139 288.74417 178.60464 L 317.51938 144.86821 L 318.51163 146.8527 L 318.51163 146.8527 L 318.51163 146.8527 Q 330.4186 170.66667 325.45737 194.48062 Q 320.49612 218.29457 300.65115 232.18605 Q 280.8062 246.07751 256.99225 246.07751 Q 225.24031 246.07751 206.3876 227.22481 Q 186.54263 210.35658 185.55038 176.62015 Q 185.55038 161.73643 195.47287 144.86821 Q 204.4031 128.99225 221.27132 107.16279 Q 227.22481 115.10078 235.1628 126.0155 Q 241.11627 132.96124 247.06976 140.89923 L 267.90698 166.69768 L 273.86047 175.62791 L 275.84497 177.6124 L 276.83722 178.60464 L 276.83722 178.60464 L 276.83722 178.60464 L 276.83722 178.60464 L 276.83722 178.60464 L 282.7907 173.64342 L 282.7907 173.64342 Z M 12.899225 287.75195 Q 5.9534883 284.7752 2.9767442 291.72092 Q 0 298.66666 6.9457364 301.6434 L 235.1628 397.89148 L 6.9457364 494.13953 Q 0 497.11627 2.9767442 504.062 Q 5.9534883 511.00775 12.899225 508.031 L 256 406.82172 L 499.10077 508.031 Q 506.0465 511.00775 509.02325 504.062 Q 512 497.11627 505.05426 494.13953 L 276.83722 397.89148 L 505.05426 301.6434 Q 512 298.66666 509.02325 291.72092 Q 506.0465 284.7752 499.10077 287.75195 L 256 388.96124 L 12.899225 287.75195 L 12.899225 287.75195 Z" />
</svg>