<svg xmlns="http://www.w3.org/2000/svg" viewBox="0 0 578 505">
  <path d="M 288 40 L 270 22 L 288 40 L 270 22 Q 247 0 217 0 Q 187 0 164 22 Q 142 45 142 76 Q 142 106 164 130 L 266 233 L 266 233 Q 275 243 288 243 Q 301 243 311 233 L 412 130 L 412 130 Q 434 106 434 76 Q 434 45 412 22 Q 389 0 359 0 Q 329 0 306 22 L 288 40 L 288 40 Z M 294 57 L 317 33 L 294 57 L 317 33 Q 335 15 359 15 Q 382 15 401 33 Q 418 52 418 76 Q 418 100 401 119 L 299 222 L 299 222 Q 294 227 288 227 Q 282 227 277 222 L 175 119 L 175 119 Q 158 100 158 76 Q 158 52 175 33 Q 194 16 217 16 Q 241 16 259 33 L 282 57 L 282 57 Q 288 62 294 57 L 294 57 Z M 522 334 Q 541 322 555 339 Q 567 358 550 372 L 424 466 L 424 466 Q 392 489 353 489 L 8 489 L 8 489 Q 1 490 0 497 Q 1 504 8 505 L 353 505 L 353 505 Q 397 505 433 479 L 560 385 L 560 385 Q 573 375 576 359 Q 578 343 568 329 Q 558 316 542 313 Q 526 311 512 321 L 395 407 L 395 407 Q 393 409 390 409 L 268 409 L 268 409 Q 257 408 256 397 Q 257 386 268 385 L 348 385 L 348 385 Q 363 385 373 374 Q 384 364 384 349 Q 384 334 373 324 Q 363 313 348 313 L 194 313 L 194 313 Q 149 313 114 341 L 71 375 L 71 375 Q 69 377 66 377 L 8 377 L 8 377 Q 1 378 0 385 Q 1 392 8 393 L 66 393 L 66 393 Q 74 393 81 388 L 124 354 L 124 354 Q 154 329 194 329 L 348 329 L 348 329 Q 366 331 368 349 Q 366 367 348 369 L 268 369 L 268 369 Q 256 369 248 377 Q 240 385 240 397 Q 240 409 248 417 Q 256 425 268 425 L 390 425 L 390 425 Q 398 425 404 420 L 522 334 L 522 334 Z" />
</svg>