<svg xmlns="http://www.w3.org/2000/svg" viewBox="0 0 512 512">
  <path d="M 80 24 L 80 83 L 80 24 L 80 83 Q 80 91 85 97 L 120 147 L 120 147 L 120 192 L 120 192 Q 75 195 46 220 Q 17 244 16 280 Q 16 291 19 301 Q 27 326 15 348 Q 0 371 0 400 Q 1 448 37 479 Q 74 511 128 512 Q 191 510 229 469 Q 226 459 225 449 Q 210 470 185 483 Q 160 496 128 496 Q 79 495 48 467 Q 17 440 16 400 Q 16 376 28 356 Q 44 326 34 296 Q 32 288 32 280 Q 33 253 56 232 Q 80 212 120 208 L 120 281 L 120 281 Q 90 289 88 320 Q 88 337 100 348 Q 111 360 128 360 Q 145 360 156 348 Q 168 337 168 320 Q 166 289 136 281 L 136 208 L 136 208 Q 176 212 200 232 Q 223 253 224 280 Q 224 288 222 296 Q 212 326 228 356 Q 235 369 238 383 L 239 382 L 239 382 Q 244 373 249 362 Q 246 355 241 348 Q 229 326 237 301 Q 240 291 240 280 Q 239 244 210 220 Q 181 195 136 192 L 136 147 L 136 147 L 172 97 L 172 97 Q 176 91 176 83 L 176 24 L 176 24 Q 174 2 152 0 L 104 0 L 104 0 Q 82 2 80 24 L 80 24 Z M 128 130 L 98 88 L 128 130 L 98 88 Q 96 85 96 83 L 96 24 L 96 24 Q 97 17 104 16 L 152 16 L 152 16 Q 159 17 160 24 L 160 83 L 160 83 Q 160 86 159 88 L 128 130 L 128 130 Z M 104 320 Q 106 298 128 296 Q 150 298 152 320 Q 150 342 128 344 Q 106 342 104 320 L 104 320 Z M 379 0 Q 364 0 353 9 L 353 9 L 353 9 Q 342 19 340 33 L 331 88 L 331 88 Q 328 106 340 121 L 376 163 L 376 163 L 376 240 L 376 240 Q 376 240 376 240 Q 376 240 376 240 Q 347 239 335 226 Q 323 212 321 197 Q 317 178 299 176 Q 282 178 280 195 L 280 230 L 280 230 Q 281 248 288 267 Q 288 267 289 267 Q 289 267 289 267 Q 289 267 289 267 Q 291 273 292 279 Q 296 289 296 304 Q 295 330 286 355 Q 277 380 267 397 Q 256 416 256 438 Q 257 469 278 490 Q 298 511 330 512 L 438 512 L 438 512 Q 470 511 490 490 Q 511 469 512 438 Q 512 416 501 397 Q 491 380 482 355 Q 473 330 472 304 Q 472 289 476 279 Q 477 275 478 271 Q 479 269 480 267 Q 480 267 480 267 Q 480 267 480 267 Q 480 267 480 267 Q 480 267 480 267 Q 480 267 480 267 Q 487 249 488 230 L 488 209 L 488 209 Q 486 194 471 192 Q 457 193 451 206 Q 446 217 433 228 Q 419 239 392 240 L 392 160 L 392 160 L 392 79 L 392 79 Q 422 71 424 40 Q 424 23 412 12 Q 401 0 384 0 L 379 0 L 379 0 Z M 376 256 L 392 256 L 376 256 L 392 256 Q 392 256 392 256 Q 392 256 392 256 Q 424 255 442 241 Q 460 227 466 213 Q 467 210 469 209 Q 470 208 471 208 Q 472 208 472 209 L 472 229 L 472 229 Q 472 239 468 250 Q 467 254 465 259 Q 465 260 464 262 L 464 262 L 464 262 Q 464 262 464 262 Q 464 262 464 262 Q 464 264 463 265 Q 462 270 460 275 Q 456 287 456 304 Q 457 333 467 360 Q 477 387 487 404 Q 496 421 496 438 Q 495 463 479 479 Q 463 495 438 496 L 330 496 L 330 496 Q 305 495 289 479 Q 272 463 272 438 Q 272 421 281 404 Q 291 387 301 360 Q 311 333 312 304 Q 312 287 308 275 Q 306 268 304 262 Q 304 262 304 262 L 303 262 L 303 262 Q 301 256 299 250 Q 296 239 296 229 L 296 195 L 296 195 Q 296 192 299 192 Q 299 192 302 194 Q 304 196 305 200 Q 307 218 324 237 Q 341 255 376 256 Q 376 256 376 256 Q 376 256 376 256 L 376 256 Z M 376 72 L 376 138 L 376 72 L 376 138 L 352 110 L 352 110 Q 345 102 346 91 L 356 36 L 356 36 Q 360 17 379 16 L 384 16 L 384 16 Q 406 18 408 40 Q 406 62 384 64 Q 377 65 376 72 L 376 72 Z M 344 328 Q 345 335 352 336 L 416 336 L 416 336 Q 423 335 424 328 Q 423 321 416 320 L 352 320 L 352 320 Q 345 321 344 328 L 344 328 Z M 344 392 Q 345 399 352 400 L 416 400 L 416 400 Q 423 399 424 392 Q 423 385 416 384 L 352 384 L 352 384 Q 345 385 344 392 L 344 392 Z" />
</svg>