<svg xmlns="http://www.w3.org/2000/svg" viewBox="0 0 642 514">
  <path d="M 295 4 Q 290 0 285 4 L 5 252 L 5 252 Q 0 257 4 263 Q 9 268 15 264 L 66 219 L 66 219 L 66 450 L 66 450 Q 67 477 85 495 Q 103 513 130 514 L 376 514 L 376 514 Q 364 506 354 497 L 354 498 L 354 498 L 226 498 L 226 498 L 226 330 L 226 330 Q 227 323 234 322 L 294 322 L 294 322 Q 295 314 298 306 L 234 306 L 234 306 Q 212 308 210 330 L 210 498 L 210 498 L 130 498 L 130 498 Q 110 497 96 484 Q 83 470 82 450 L 82 205 L 82 205 L 290 21 L 290 21 L 421 137 L 421 137 Q 429 132 438 131 L 295 4 L 295 4 Z M 448 178 Q 450 178 452 180 Q 476 201 497 226 Q 510 238 522 226 Q 531 215 540 206 Q 544 203 548 206 Q 578 234 602 274 Q 625 314 626 353 Q 626 391 609 422 Q 592 453 563 473 Q 578 452 578 424 Q 577 395 561 370 Q 544 344 524 325 Q 503 305 491 296 Q 482 290 473 296 Q 461 305 440 325 Q 420 344 403 370 Q 387 396 386 425 Q 386 452 402 474 Q 372 454 355 423 Q 338 391 338 354 Q 340 304 373 258 Q 406 212 444 180 Q 445 178 448 178 L 448 178 Z M 482 498 Q 478 498 474 498 Q 442 494 422 474 Q 403 453 402 425 Q 404 389 433 356 Q 462 324 482 310 Q 502 324 531 356 Q 560 389 562 425 Q 561 453 542 474 Q 522 494 490 498 Q 486 498 482 498 L 482 498 Z M 322 353 Q 323 419 365 464 L 365 464 L 365 464 Q 407 509 473 514 Q 477 514 482 514 Q 487 514 491 514 Q 556 509 598 464 Q 640 419 642 353 Q 640 308 615 266 Q 591 223 559 195 Q 544 183 529 195 Q 519 205 510 216 Q 510 216 510 216 Q 509 216 509 216 Q 509 216 509 216 Q 509 216 509 216 Q 509 216 509 216 Q 509 216 509 216 Q 487 190 462 168 Q 456 162 448 162 Q 440 162 433 168 Q 394 201 360 249 Q 325 297 322 353 L 322 353 Z" />
</svg>