<svg xmlns="http://www.w3.org/2000/svg" viewBox="0 0 352 512">
  <path d="M 208 176 L 297 176 L 208 176 L 297 176 Q 303 175 304 169 Q 304 166 302 164 L 162 17 L 162 17 Q 161 16 160 16 Q 159 16 158 17 L 18 164 L 18 164 Q 16 166 16 169 Q 17 175 23 176 L 112 176 L 112 176 Q 127 177 128 192 L 128 400 L 128 400 Q 129 441 156 468 Q 183 495 224 496 L 312 496 L 312 496 Q 334 494 336 472 L 336 456 L 336 456 Q 334 434 312 432 L 224 432 L 224 432 Q 210 432 201 423 Q 192 414 192 400 L 192 192 L 192 192 Q 193 177 208 176 L 208 176 Z M 174 6 L 314 153 L 174 6 L 314 153 Q 320 160 320 169 Q 318 190 297 192 L 224 192 L 208 192 L 208 208 L 208 208 L 208 400 L 208 400 Q 209 415 224 416 L 312 416 L 312 416 Q 329 416 340 428 Q 352 439 352 456 L 352 472 L 352 472 Q 352 489 340 500 Q 329 512 312 512 L 224 512 L 224 512 Q 176 511 145 479 Q 113 448 112 400 L 112 208 L 112 208 L 112 192 L 112 192 L 96 192 L 23 192 Q 2 190 0 169 Q 0 160 6 153 L 147 6 L 147 6 Q 152 0 160 0 Q 168 0 174 6 L 174 6 Z" />
</svg>