<svg xmlns="http://www.w3.org/2000/svg" viewBox="0 0 496 512">
  <path d="M 277 44 L 223 110 L 277 44 L 223 110 L 267 85 L 267 85 Q 287 74 307 81 Q 327 88 336 108 Q 345 88 365 81 Q 385 74 405 85 L 449 110 L 449 110 L 395 44 L 395 44 Q 372 17 336 16 Q 300 17 277 44 L 277 44 Z M 336 147 Q 331 158 322 166 L 270 207 L 270 207 Q 280 212 289 218 L 304 228 L 304 228 Q 304 226 304 224 Q 304 210 313 201 Q 322 192 336 192 Q 350 192 359 201 Q 368 210 368 224 Q 368 226 368 228 L 383 218 L 383 218 Q 392 212 402 207 L 351 166 L 351 166 Q 341 158 336 147 L 336 147 Z M 336 240 Q 351 239 352 224 Q 351 209 336 208 Q 321 209 320 224 Q 321 239 336 240 L 336 240 Z M 336 256 Q 318 256 302 246 L 280 231 L 280 231 Q 268 223 255 218 L 206 201 L 206 201 Q 178 189 176 158 Q 176 141 186 128 L 215 94 L 215 94 L 195 48 L 195 48 Q 192 42 192 35 Q 192 20 202 10 Q 212 0 227 0 L 228 0 L 228 0 Q 233 0 239 2 L 283 17 L 283 17 Q 307 0 336 0 Q 365 0 389 17 L 433 2 L 433 2 Q 439 0 445 0 L 446 0 L 446 0 Q 460 0 470 10 Q 480 20 480 35 Q 480 42 477 48 L 457 94 L 457 94 L 486 129 L 486 129 Q 496 141 496 158 Q 494 189 466 201 L 417 218 L 417 218 Q 404 223 391 231 L 370 246 L 370 246 Q 354 256 336 256 L 336 256 Z M 419 200 L 460 186 L 419 200 L 460 186 Q 479 178 480 158 Q 480 150 476 143 L 476 143 L 476 143 L 397 99 L 397 99 Q 382 91 367 97 Q 353 104 349 121 Q 346 140 361 153 L 419 200 L 419 200 Z M 312 153 Q 326 141 323 121 Q 319 104 305 98 Q 290 91 275 99 L 196 143 L 196 143 L 196 143 L 196 143 Q 192 150 192 158 Q 193 178 212 186 L 253 200 L 253 200 L 311 153 L 312 153 Z M 234 17 Q 231 16 228 16 L 227 16 L 227 16 Q 210 18 208 35 Q 208 38 210 42 L 226 80 L 226 80 L 264 34 L 264 34 Q 266 31 269 29 L 234 17 L 234 17 Z M 408 34 L 446 80 L 408 34 L 446 80 L 463 42 L 463 42 Q 464 38 464 35 Q 462 18 445 16 L 444 16 L 444 16 Q 441 16 438 17 L 403 29 L 403 29 Q 405 31 407 33 Q 407 34 408 34 L 408 34 Z M 128 275 Q 155 240 194 221 Q 200 224 208 226 L 215 229 L 215 229 Q 165 249 135 292 Q 105 336 104 392 L 104 400 L 104 400 Q 103 407 96 408 Q 89 407 88 400 L 88 392 L 88 392 Q 88 363 96 336 L 16 336 L 16 336 L 16 408 L 16 408 Q 17 445 42 470 Q 67 495 104 496 L 336 496 L 336 496 L 336 472 L 336 472 Q 336 455 324 444 Q 313 432 296 432 L 248 432 L 248 432 Q 241 431 240 424 Q 241 417 248 416 L 296 416 L 296 416 Q 320 417 336 432 Q 351 448 352 472 L 352 496 L 352 496 L 464 496 L 464 496 L 464 472 L 464 472 Q 464 455 452 444 Q 441 432 424 432 L 408 432 L 408 432 Q 401 431 400 424 Q 401 417 408 416 L 424 416 L 424 416 Q 448 417 464 432 Q 479 448 480 472 L 480 504 L 480 504 Q 479 511 472 512 L 104 512 L 104 512 Q 60 511 30 482 Q 1 452 0 408 L 0 96 L 0 96 Q 1 69 19 51 Q 37 33 64 32 Q 91 33 109 51 Q 127 69 128 96 L 128 275 L 128 275 Z M 464 291 Q 463 255 434 235 L 453 230 L 453 230 Q 479 254 480 291 Q 479 332 447 357 L 416 379 L 416 379 Q 404 388 389 387 Q 375 386 364 375 Q 351 362 352 345 Q 353 327 368 316 L 411 282 L 411 282 Q 417 278 422 283 Q 426 289 421 294 L 378 328 L 378 328 Q 369 335 368 346 Q 368 356 375 364 Q 390 377 407 367 L 437 344 L 437 344 Q 463 324 464 291 L 464 291 Z M 102 320 Q 106 309 112 299 L 112 240 L 112 240 L 16 240 L 16 240 L 16 320 L 16 320 L 102 320 L 102 320 Z M 112 144 L 16 144 L 112 144 L 16 144 L 16 224 L 16 224 L 112 224 L 112 224 L 112 144 L 112 144 Z M 112 128 L 112 96 L 112 128 L 112 96 Q 111 76 98 62 Q 84 49 64 48 Q 44 49 30 62 Q 17 76 16 96 L 16 128 L 16 128 L 112 128 L 112 128 Z M 308 375 L 308 376 L 308 375 L 308 376 Q 297 386 283 387 Q 268 389 256 380 L 203 343 L 203 343 Q 198 338 201 331 Q 206 326 213 329 L 265 367 L 265 367 Q 282 377 296 364 L 297 364 L 297 364 Q 304 356 304 345 Q 303 335 294 328 L 251 294 L 251 294 Q 246 289 250 283 Q 255 278 261 282 L 304 315 L 304 315 Q 319 327 320 344 Q 321 362 308 375 L 308 375 Z M 272 128 Q 273 113 288 112 Q 303 113 304 128 Q 303 143 288 144 Q 273 143 272 128 L 272 128 Z M 384 112 Q 399 113 400 128 Q 399 143 384 144 Q 369 143 368 128 Q 369 113 384 112 L 384 112 Z" />
</svg>