<svg xmlns="http://www.w3.org/2000/svg" viewBox="0 0 512 512">
  <path d="M 333 39.5 L 357 15.5 Q 368 5.5 379 15.5 L 403 39.5 Q 413 50.5 403 61.5 L 379 85.5 Q 368 95.5 357 85.5 L 333 61.5 Q 323 50.5 333 39.5 L 333 39.5 Z M 368 74.5 L 379 63.5 L 381 61.5 L 392 50.5 L 381 39.5 L 379 37.5 L 368 26.5 L 357 37.5 L 355 39.5 L 344 50.5 L 355 61.5 L 357 63.5 L 368 74.5 L 368 74.5 Z M 142 106.5 Q 102 107.5 78 138.5 Q 73 143.5 67 140.5 Q 62 135.5 66 128.5 Q 94 92.5 142 90.5 Q 183 91.5 210 118.5 Q 237 145.5 238 186.5 Q 236 238.5 196 266.5 L 267 266.5 Q 309 266.5 342 240.5 L 364 222.5 Q 389 202.5 421 202.5 Q 460 203.5 485 229.5 Q 511 254.5 512 293.5 L 512 387.5 Q 511 424.5 486 448.5 Q 462 473.5 425 474.5 Q 400 474.5 379 461.5 Q 358 448.5 347 426.5 L 337 406.5 Q 334 399.5 341 395.5 Q 347 392.5 351 398.5 L 361 419.5 Q 382 456.5 425 458.5 Q 455 457.5 475 437.5 Q 495 417.5 496 387.5 L 496 293.5 Q 495 261.5 474 240.5 Q 453 219.5 421 218.5 Q 395 218.5 374 234.5 L 352 252.5 Q 315 282.5 267 282.5 L 212 282.5 Q 239 298.5 255 325.5 Q 272 352.5 272 386.5 Q 271 437.5 237 471.5 Q 203 505.5 152 506.5 L 136 506.5 Q 78 505.5 40 466.5 Q 1 428.5 0 370.5 Q 1 363.5 8 362.5 Q 15 363.5 16 370.5 Q 17 421.5 51 455.5 Q 85 489.5 136 490.5 L 152 490.5 Q 196 489.5 226 460.5 Q 255 430.5 256 386.5 Q 255 342.5 226 312.5 Q 196 283.5 152 282.5 L 142 282.5 L 136 282.5 Q 129 281.5 128 274.5 Q 129 267.5 136 266.5 L 142 266.5 Q 176 265.5 199 243.5 Q 222 220.5 222 186.5 Q 222 152.5 199 129.5 Q 176 107.5 142 106.5 L 142 106.5 Z M 294 116.5 L 442 116.5 Q 448 112.5 454 116.5 Q 458 122.5 454 128.5 L 448 122.5 Q 455 129.5 454 128.5 L 454 128.5 L 454 128.5 L 454 128.5 L 454 128.5 L 453 128.5 Q 453 128.5 453 129.5 Q 452 129.5 452 129.5 Q 451 130.5 448 132.5 Q 443 136.5 432 141.5 Q 412 152.5 368 154.5 Q 325 152.5 304 141.5 Q 293 136.5 288 132.5 Q 285 130.5 284 129.5 Q 283 129.5 283 128.5 Q 283 128.5 283 128.5 L 283 128.5 L 283 128.5 L 283 128.5 L 283 128.5 L 283 128.5 Q 281 129.5 288 122.5 L 283 128.5 Q 278 122.5 283 116.5 Q 288 112.5 294 116.5 L 294 116.5 Z M 442 116.5 L 294 116.5 L 294 116.5 Q 294 116.5 294 117.5 Q 294 117.5 294 117.5 Q 295 118.5 297 119.5 Q 301 122.5 310 127.5 Q 328 137.5 368 138.5 Q 408 137.5 426 127.5 Q 435 122.5 439 119.5 Q 441 118.5 442 117.5 Q 442 117.5 442 117.5 Q 442 117.5 442 116.5 L 442 116.5 L 442 116.5 Z M 442 116.5 L 442 116.5 L 442 116.5 L 442 116.5 L 442 116.5 Z" />
</svg>