<svg xmlns="http://www.w3.org/2000/svg" viewBox="0 0 448 512">
  <path d="M 108 336 Q 66 357 41 395 L 41 395 L 41 395 Q 17 433 16 482 Q 17 495 30 496 L 418 496 L 418 496 Q 431 495 432 482 Q 431 434 407 395 Q 382 357 340 336 Q 318 326 313 300 Q 312 276 327 260 Q 366 220 368 160 Q 366 99 326 58 Q 285 17 224 16 Q 163 17 122 58 Q 82 99 80 160 Q 81 220 121 261 Q 136 276 135 300 Q 130 326 108 336 L 108 336 Z M 101 322 Q 116 314 119 298 Q 120 283 109 272 Q 66 227 64 160 Q 66 92 111 47 Q 156 2 224 0 Q 292 2 337 47 Q 382 92 384 160 Q 382 227 339 272 Q 328 283 329 298 Q 332 314 347 322 Q 393 344 420 386 Q 447 429 448 482 Q 448 495 439 503 Q 431 512 418 512 L 30 512 L 30 512 Q 17 512 9 503 Q 0 495 0 482 Q 1 429 28 386 Q 55 344 101 322 L 101 322 Z M 224 80 Q 190 81 167 103 L 167 103 L 167 103 Q 145 125 144 157 Q 146 192 171 221 Q 196 250 218 265 Q 224 269 230 265 Q 252 250 278 221 Q 302 192 304 157 Q 303 125 281 103 Q 258 81 224 80 L 224 80 Z M 128 157 Q 129 118 156 91 L 156 91 L 156 91 Q 183 65 224 64 Q 265 65 292 91 Q 319 118 320 157 Q 318 199 290 231 Q 262 263 240 278 Q 224 288 208 278 Q 186 263 158 231 Q 130 200 128 157 L 128 157 Z M 160 376 L 160 440 L 160 376 L 160 440 Q 159 447 152 448 Q 145 447 144 440 L 144 376 L 144 376 Q 145 369 152 368 Q 159 369 160 376 L 160 376 Z M 304 376 L 304 440 L 304 376 L 304 440 Q 303 447 296 448 Q 289 447 288 440 L 288 376 L 288 376 Q 289 369 296 368 Q 303 369 304 376 L 304 376 Z" />
</svg>