<svg xmlns="http://www.w3.org/2000/svg" viewBox="0 0 512 512">
  <path d="M 361.35385 22.646154 Q 354.46155 29.538462 346.58463 44.307693 L 346.58463 44.307693 Q 339.69232 59.076923 338.7077 76.8 Q 338.7077 101.41538 347.56924 114.215385 Q 355.44617 128 372.1846 143.75385 Q 388.92307 160.49231 401.72308 168.36923 Q 414.52307 177.23077 439.13846 177.23077 Q 457.84616 176.24615 471.63077 169.35385 Q 486.4 161.47693 493.2923 154.58461 Q 496.24615 152.61539 496.24615 148.67693 Q 496.24615 144.73846 494.27692 143.75385 Q 486.4 136.86154 470.64615 128.98462 Q 454.8923 121.10769 432.24615 121.10769 Q 411.56924 121.10769 405.66153 124.06154 Q 402.7077 125.04615 401.72308 126.03077 Q 401.72308 126.03077 401.72308 126.03077 Q 401.72308 126.03077 401.72308 126.03077 Q 395.8154 129.96924 390.8923 126.03077 Q 385.96924 120.12308 389.90768 115.2 Q 389.90768 115.2 389.90768 115.2 Q 389.90768 115.2 389.90768 114.215385 Q 390.8923 114.215385 391.87692 110.276924 Q 394.83078 104.36923 395.8154 84.676926 Q 394.83078 62.03077 386.95386 45.29231 Q 379.07693 29.538462 373.16922 22.646154 Q 371.2 19.692308 367.26154 19.692308 Q 363.3231 19.692308 361.35385 22.646154 L 361.35385 22.646154 Z M 410.58463 83.69231 Q 410.58463 98.46154 409.6 107.323074 Q 417.47693 105.35384 432.24615 105.35384 Q 457.84616 106.33846 476.55383 115.2 Q 495.26154 124.06154 504.12308 130.95384 Q 512 138.83076 512 148.67693 Q 512 159.50769 504.12308 167.38461 Q 495.26154 174.27692 478.52307 183.13846 Q 461.7846 192 439.13846 192.98462 Q 411.56924 192.98462 393.84616 182.15384 Q 377.1077 172.3077 362.33847 155.56923 Q 362.33847 155.56923 362.33847 155.56923 L 361.35385 154.58461 L 361.35385 154.58461 L 361.35385 154.58461 Q 344.6154 138.83076 333.7846 122.09231 Q 322.95386 104.36923 322.95386 76.8 Q 323.93848 54.153847 332.8 37.415386 Q 341.66153 20.676924 348.55383 11.815385 Q 356.43076 3.9384615 367.26154 3.9384615 Q 377.1077 3.9384615 384.98462 12.8 Q 392.86154 20.676924 401.72308 39.384617 Q 410.58463 58.092308 410.58463 83.69231 L 410.58463 83.69231 Z M 291.44617 153.6 Q 290.46155 130.95384 271.75385 119.13846 Q 252.06154 109.292305 232.36923 119.13846 Q 213.66154 130.95384 212.67693 153.6 Q 213.66154 176.24615 232.36923 188.06154 Q 252.06154 197.9077 271.75385 188.06154 Q 290.46155 176.24615 291.44617 153.6 L 291.44617 153.6 Z M 157.53847 177.23077 Q 156.55385 154.58461 137.84616 142.76923 Q 118.15385 132.92308 98.46154 142.76923 Q 79.753845 154.58461 78.76923 177.23077 Q 79.753845 199.87692 98.46154 211.6923 Q 118.15385 221.53847 137.84616 211.6923 Q 156.55385 199.87692 157.53847 177.23077 L 157.53847 177.23077 Z M 133.9077 311.13846 Q 132.92308 288.4923 114.215385 276.6769 Q 94.52308 266.83078 74.83077 276.6769 Q 56.123077 288.4923 55.138462 311.13846 Q 56.123077 333.7846 74.83077 345.6 Q 94.52308 355.44617 114.215385 345.6 Q 132.92308 333.7846 133.9077 311.13846 L 133.9077 311.13846 Z M 102.4 452.92307 Q 101.41538 430.27692 82.707695 418.46155 Q 63.015385 408.6154 43.32308 418.46155 Q 24.615385 430.27692 23.63077 452.92307 Q 24.615385 475.56924 43.32308 487.3846 Q 63.015385 497.23077 82.707695 487.3846 Q 101.41538 475.56924 102.4 452.92307 L 102.4 452.92307 Z M 244.18462 421.41537 Q 243.2 398.76923 224.49231 386.95386 Q 204.8 377.1077 185.1077 386.95386 Q 166.4 398.76923 165.41539 421.41537 Q 166.4 444.06152 185.1077 455.87692 Q 204.8 465.72308 224.49231 455.87692 Q 243.2 444.06152 244.18462 421.41537 L 244.18462 421.41537 Z M 378.09232 397.7846 Q 377.1077 375.13846 358.4 363.3231 Q 338.7077 353.47693 319.01538 363.3231 Q 300.30768 375.13846 299.3231 397.7846 Q 300.30768 420.43076 319.01538 432.24615 Q 338.7077 442.09232 358.4 432.24615 Q 377.1077 420.43076 378.09232 397.7846 L 378.09232 397.7846 Z M 267.8154 287.5077 Q 266.83078 264.86154 248.12308 253.04616 Q 228.43077 243.2 208.73846 253.04616 Q 190.03076 264.86154 189.04616 287.5077 Q 190.03076 310.15384 208.73846 321.96924 Q 228.43077 331.8154 248.12308 321.96924 Q 266.83078 310.15384 267.8154 287.5077 L 267.8154 287.5077 Z M 401.72308 263.87692 Q 400.73846 241.23077 382.03076 229.41539 Q 362.33847 219.56923 342.64615 229.41539 Q 323.93848 241.23077 322.95386 263.87692 Q 323.93848 286.52307 342.64615 298.33847 Q 362.33847 308.1846 382.03076 298.33847 Q 400.73846 286.52307 401.72308 263.87692 L 401.72308 263.87692 Z M 252.06154 98.46154 Q 283.56924 99.44615 299.3231 126.03077 Q 315.07693 153.6 299.3231 181.16924 Q 283.56924 207.75385 252.06154 208.73846 Q 220.55385 207.75385 204.8 181.16924 Q 189.04616 153.6 204.8 126.03077 Q 220.55385 99.44615 252.06154 98.46154 L 252.06154 98.46154 Z M 63.015385 177.23077 Q 64 145.72308 90.58462 129.96924 Q 118.15385 114.215385 145.72308 129.96924 Q 172.3077 145.72308 173.29231 177.23077 Q 172.3077 208.73846 145.72308 224.49231 Q 118.15385 240.24615 90.58462 224.49231 Q 64 208.73846 63.015385 177.23077 L 63.015385 177.23077 Z M 94.52308 256 Q 126.03077 256.98462 141.78462 283.56924 Q 157.53847 311.13846 141.78462 338.7077 Q 126.03077 365.2923 94.52308 366.27692 Q 63.015385 365.2923 47.26154 338.7077 Q 31.507692 311.13846 47.26154 283.56924 Q 63.015385 256.98462 94.52308 256 L 94.52308 256 Z M 63.015385 397.7846 Q 94.52308 398.76923 110.276924 425.35385 Q 126.03077 452.92307 110.276924 480.4923 Q 94.52308 507.07693 63.015385 508.06152 Q 31.507692 507.07693 15.753846 480.4923 Q 0 452.92307 15.753846 425.35385 Q 31.507692 398.76923 63.015385 397.7846 L 63.015385 397.7846 Z M 204.8 366.27692 Q 236.3077 367.26154 252.06154 393.84616 Q 267.8154 421.41537 252.06154 448.98462 Q 236.3077 475.56924 204.8 476.55383 Q 173.29231 475.56924 157.53847 448.98462 Q 141.78462 421.41537 157.53847 393.84616 Q 173.29231 367.26154 204.8 366.27692 L 204.8 366.27692 Z M 283.56924 397.7846 Q 284.55383 366.27692 311.13846 350.52307 Q 338.7077 334.76923 366.27692 350.52307 Q 392.86154 366.27692 393.84616 397.7846 Q 392.86154 429.2923 366.27692 445.04614 Q 338.7077 460.8 311.13846 445.04614 Q 284.55383 429.2923 283.56924 397.7846 L 283.56924 397.7846 Z M 228.43077 232.36923 Q 259.93848 233.35385 275.69232 259.93848 Q 291.44617 287.5077 275.69232 315.07693 Q 259.93848 341.66153 228.43077 342.64615 Q 196.92308 341.66153 181.16924 315.07693 Q 165.41539 287.5077 181.16924 259.93848 Q 196.92308 233.35385 228.43077 232.36923 L 228.43077 232.36923 Z M 307.2 263.87692 Q 308.1846 232.36923 334.76923 216.61539 Q 362.33847 200.86154 389.90768 216.61539 Q 416.4923 232.36923 417.47693 263.87692 Q 416.4923 295.3846 389.90768 311.13846 Q 362.33847 326.8923 334.76923 311.13846 Q 308.1846 295.3846 307.2 263.87692 L 307.2 263.87692 Z" />
</svg>