<svg xmlns="http://www.w3.org/2000/svg" viewBox="0 0 384 448">
  <path d="M 192 16 Q 182 16 177 26 L 18 406 L 18 406 Q 16 410 16 413 L 16 416 L 16 416 Q 17 431 32 432 Q 37 432 42 429 L 187 314 L 187 314 Q 192 310 197 314 L 343 429 L 343 429 Q 347 432 352 432 Q 367 431 368 416 L 368 413 L 368 413 Q 368 410 367 406 L 207 26 L 207 26 Q 202 16 192 16 L 192 16 Z M 162 20 Q 171 1 192 0 Q 213 1 222 20 L 381 400 L 381 400 Q 384 406 384 413 L 384 416 L 384 416 Q 384 430 375 439 Q 366 448 352 448 Q 341 448 333 441 L 192 330 L 192 330 L 51 441 L 51 441 Q 43 448 32 448 Q 18 448 9 439 Q 0 430 0 416 L 0 413 L 0 413 Q 0 406 3 400 L 162 20 L 162 20 Z" />
</svg>