<svg xmlns="http://www.w3.org/2000/svg" viewBox="0 0 512 512">
  <path d="M 162.51195 110.962456 Q 166.88054 106.59386 163.38567 101.35154 Q 160.76451 97.85666 159.89078 95.2355 Q 158.14334 91.740616 158.14334 88.245735 Q 159.01706 72.51877 185.22867 59.412968 Q 212.314 47.18089 256 46.307167 Q 299.686 47.18089 326.77133 59.412968 Q 352.98294 72.51877 353.85666 88.245735 Q 353.85666 95.2355 348.61435 101.35154 Q 345.11945 106.59386 349.48807 110.962456 Q 351.2355 112.7099 353.85666 112.7099 Q 357.35153 112.7099 359.09897 110.08874 Q 367.83618 99.604095 367.83618 88.245735 Q 366.96246 63.78157 335.50854 48.92833 Q 304.0546 33.201366 256 32.327644 Q 207.94539 33.201366 176.49147 48.92833 Q 145.03754 63.78157 144.16382 88.245735 Q 144.16382 99.604095 152.90103 110.08874 Q 157.26962 114.45734 162.51195 110.962456 L 162.51195 110.962456 Z M 504.1365 428.12286 L 470.93515 359.9727 Q 462.19794 340.75085 470.93515 321.52902 Q 477.0512 309.29694 480.54608 302.30716 Q 487.53583 292.69626 490.15698 283.08533 Q 493.6519 272.60068 493.6519 256 Q 492.77817 221.0512 467.44028 197.46075 Q 442.1024 172.99658 406.27988 172.12286 Q 372.20477 172.99658 347.7406 196.58704 L 284.83276 261.2423 Q 267.35837 256 256 256 Q 244.64163 256 228.04095 260.3686 L 164.25938 196.58704 Q 139.79523 172.99658 106.59386 172.12286 Q 69.89761 172.99658 44.559727 197.46075 Q 19.221844 221.0512 18.348124 256 Q 18.348124 272.60068 21.843004 282.2116 Q 24.464165 292.69626 31.453924 302.30716 Q 34.948807 309.29694 41.064846 321.52902 Q 49.802048 340.75085 41.064846 359.09897 L 7.863481 428.12286 Q 0 446.47098 9.610922 463.0717 Q 20.969284 478.79865 40.191128 479.67236 L 472.6826 479.67236 Q 491.03073 478.79865 502.38907 463.0717 Q 512 446.47098 504.1365 428.12286 L 504.1365 428.12286 Z M 40.191128 465.69284 Q 27.959044 465.69284 21.843004 456.0819 Q 15.726962 445.59726 20.969284 434.23892 L 54.170647 365.21503 Q 65.52901 340.75085 54.170647 315.41296 Q 47.18089 302.30716 42.812286 295.3174 Q 37.569965 286.5802 34.948807 277.84302 Q 32.327644 269.97952 32.327644 256 Q 33.201366 227.16724 54.170647 207.07167 Q 76.01365 186.9761 106.59386 186.10239 Q 134.5529 186.9761 154.64847 207.07167 L 214.06143 266.48465 Q 188.72356 279.59045 174.74403 305.80206 L 95.2355 465.69284 L 40.191128 465.69284 L 40.191128 465.69284 Z M 110.962456 465.69284 L 187.84982 311.9181 Q 201.82935 286.5802 222.79863 277.84302 Q 242.8942 269.1058 256 269.97952 Q 269.1058 269.1058 289.20135 277.84302 Q 310.17065 286.5802 324.15018 311.9181 L 401.03754 465.69284 L 110.962456 465.69284 L 110.962456 465.69284 Z M 490.15698 456.0819 Q 484.04095 465.69284 472.6826 465.69284 L 416.7645 465.69284 L 337.25598 305.80206 Q 323.27646 280.46417 297.93857 266.48465 L 358.22525 206.19795 Q 378.32083 186.10239 406.27988 186.10239 Q 435.98636 186.9761 457.82935 207.07167 Q 478.79865 227.16724 479.67236 256 Q 479.67236 269.97952 477.0512 277.84302 Q 474.43002 285.70648 469.1877 295.3174 Q 464.81912 302.30716 457.82935 315.41296 Q 446.47098 340.75085 457.82935 365.21503 L 491.03073 434.23892 Q 496.27304 445.59726 490.15698 455.2082 L 490.15698 456.0819 Z M 186.10239 158.14334 Q 186.9761 197.46075 221.0512 218.43004 Q 256 237.65187 290.9488 218.43004 Q 325.0239 197.46075 325.8976 158.14334 Q 325.0239 118.825935 290.9488 97.85666 Q 256 78.63481 221.0512 97.85666 Q 186.9761 118.825935 186.10239 158.14334 L 186.10239 158.14334 Z M 200.08191 158.14334 Q 200.95563 126.68942 228.04095 110.08874 Q 256 94.36178 283.95905 110.08874 Q 311.04437 126.68942 311.9181 158.14334 Q 311.04437 189.59727 283.95905 206.19795 Q 256 221.92491 228.04095 206.19795 Q 200.95563 189.59727 200.08191 158.14334 L 200.08191 158.14334 Z M 353.85666 88.245735 Q 354.73038 96.98293 340.75085 108.34129 Q 344.24573 114.45734 346.86688 121.4471 Q 366.96246 106.59386 367.83618 88.245735 Q 366.96246 64.65529 335.50854 48.92833 Q 303.18088 33.201366 256 32.327644 Q 208.8191 33.201366 176.49147 48.92833 Q 145.03754 64.65529 144.16382 88.245735 Q 145.03754 106.59386 165.1331 121.4471 Q 167.75427 114.45734 172.12286 108.34129 Q 157.26962 96.98293 158.14334 88.245735 Q 156.3959 76.01365 183.48123 61.160408 Q 211.44028 47.18089 256 46.307167 Q 300.55972 47.18089 328.51877 61.160408 Q 355.6041 76.01365 353.85666 88.245735 L 353.85666 88.245735 Z M 256 102.22526 Q 287.45392 103.098976 304.0546 130.1843 Q 319.78156 158.14334 304.0546 186.10239 Q 287.45392 213.18771 256 214.06143 Q 224.54608 213.18771 207.94539 186.10239 Q 192.21843 158.14334 207.94539 130.1843 Q 224.54608 103.098976 256 102.22526 L 256 102.22526 Z M 256 228.04095 Q 295.3174 227.16724 316.28668 193.09215 Q 335.50854 158.14334 316.28668 123.19454 Q 295.3174 89.11945 256 88.245735 Q 216.68259 89.11945 195.71332 123.19454 Q 176.49147 158.14334 195.71332 193.09215 Q 216.68259 227.16724 256 228.04095 L 256 228.04095 Z M 43.68601 465.69284 Q 33.201366 465.69284 26.211603 457.82935 L 26.211603 457.82935 Q 18.348124 450.8396 18.348124 440.35495 Q 18.348124 434.23892 20.969284 428.99658 L 55.918087 359.09897 Q 60.28669 350.3618 60.28669 339.87714 L 60.28669 339.87714 Q 60.28669 329.3925 55.918087 320.6553 L 40.191128 288.32764 Q 32.327644 273.4744 32.327644 256.87372 Q 33.201366 227.16724 53.29693 207.07167 Q 72.51877 186.9761 102.22526 186.10239 Q 131.05801 186.10239 152.0273 207.07167 L 212.314 267.35837 Q 187.84982 280.46417 174.74403 305.80206 L 95.2355 465.69284 L 43.68601 465.69284 L 43.68601 465.69284 Z M 226.29352 261.2423 L 161.63823 196.58704 Q 137.17406 172.99658 102.22526 172.12286 Q 66.40273 172.99658 42.812286 197.46075 Q 19.221844 221.0512 18.348124 256.87372 Q 18.348124 276.96927 27.085323 295.3174 L 43.68601 326.77133 Q 46.307167 332.88736 46.307167 339.87714 L 46.307167 339.87714 Q 46.307167 346.86688 43.68601 352.98294 L 8.737202 422.00684 Q 4.368601 430.74402 4.368601 440.35495 Q 4.368601 456.95563 15.726962 468.314 Q 27.085323 479.67236 43.68601 479.67236 L 88.245735 479.67236 L 103.972694 479.67236 L 408.0273 479.67236 L 423.75427 479.67236 L 468.314 479.67236 Q 484.91467 479.67236 496.27304 468.314 Q 507.6314 456.95563 507.6314 440.35495 Q 507.6314 430.74402 503.2628 422.00684 L 468.314 352.98294 Q 465.69284 346.86688 465.69284 339.87714 L 465.69284 339.87714 Q 465.69284 332.88736 468.314 326.77133 L 484.91467 295.3174 Q 493.6519 276.96927 493.6519 256.87372 Q 492.77817 221.0512 469.1877 197.46075 Q 445.59726 172.99658 409.77475 172.12286 Q 374.82593 172.99658 350.3618 196.58704 L 285.70648 261.2423 Q 271.72696 256 256 256 Q 240.27304 256 226.29352 261.2423 L 226.29352 261.2423 Z M 299.686 267.35837 L 359.9727 206.19795 Q 380.942 186.10239 409.77475 186.10239 Q 439.48123 186.9761 458.70306 207.07167 Q 478.79865 227.16724 479.67236 256.87372 Q 479.67236 273.4744 471.80887 288.32764 L 456.0819 320.6553 Q 451.71332 329.3925 451.71332 339.87714 L 451.71332 339.87714 Q 451.71332 350.3618 456.0819 359.09897 L 491.03073 428.99658 Q 493.6519 434.23892 493.6519 440.35495 Q 493.6519 450.8396 485.7884 457.82935 Q 478.79865 465.69284 468.314 465.69284 L 416.7645 465.69284 L 337.25598 305.80206 Q 324.15018 280.46417 299.686 267.35837 L 299.686 267.35837 Z M 324.15018 311.9181 L 401.03754 465.69284 L 110.962456 465.69284 L 187.84982 311.9181 Q 197.46075 292.69626 215.80887 281.3379 Q 234.157 269.97952 256 269.97952 Q 277.84302 269.97952 296.19113 281.3379 Q 314.53925 292.69626 324.15018 311.9181 L 324.15018 311.9181 Z" />
</svg>