<svg xmlns="http://www.w3.org/2000/svg" viewBox="0 0 512 512">
  <path d="M 181.18167 243.05846 Q 205.44708 243.05846 226.4771 230.92575 L 226.4771 230.92575 Q 247.50711 218.79305 259.6398 197.76303 Q 271.77252 176.73302 271.77252 152.46762 Q 271.77252 128.20221 259.6398 107.172195 Q 247.50711 86.14218 226.4771 74.009476 Q 205.44708 61.876778 181.18167 61.876778 Q 156.91628 61.876778 135.88626 74.009476 Q 114.85624 86.14218 102.72354 107.172195 Q 90.590836 128.20221 90.590836 152.46762 Q 90.590836 176.73302 102.72354 197.76303 Q 114.85624 218.79305 135.88626 230.92575 Q 156.91628 243.05846 181.18167 243.05846 L 181.18167 243.05846 Z M 143.97472 307.7662 Q 88.1643 309.38388 51.766193 346.59085 L 51.766193 346.59085 Q 14.559241 382.98895 12.941548 438.79938 Q 13.750395 449.31436 24.265404 450.12323 L 338.09796 450.12323 Q 345.37756 450.12323 348.61295 443.65244 L 358.31912 453.3586 Q 351.0395 462.25592 338.09796 463.06476 L 24.265404 463.06476 Q 13.750395 463.06476 7.2796206 455.78516 Q 0 449.31436 0 438.79938 Q 1.6176935 378.13586 42.06003 336.88467 Q 83.31122 296.44235 143.97472 294.82465 L 218.38863 294.82465 Q 239.41864 294.82465 258.83096 300.48657 L 258.83096 314.23697 Q 239.41864 307.7662 218.38863 307.7662 L 143.97472 307.7662 L 143.97472 307.7662 Z M 77.64929 152.46762 Q 77.64929 124.157974 91.39968 100.70142 L 91.39968 100.70142 Q 105.15008 77.244865 129.41548 62.685623 Q 153.68088 48.93523 181.18167 48.93523 Q 208.68246 48.93523 232.94786 62.685623 Q 257.21326 77.244865 270.96365 100.70142 Q 284.71405 124.157974 284.71405 152.46762 Q 284.71405 180.77725 270.96365 204.23381 Q 257.21326 227.69037 232.94786 242.2496 Q 208.68246 256 181.18167 256 Q 153.68088 256 129.41548 242.2496 Q 105.15008 227.69037 91.39968 204.23381 Q 77.64929 180.77725 77.64929 152.46762 L 77.64929 152.46762 Z M 310.59717 243.05846 Q 298.46445 243.8673 297.6556 256 L 297.6556 323.13428 Q 297.6556 338.50238 308.97946 350.63507 L 395.52606 437.18167 Q 403.61453 444.4613 414.12955 444.4613 Q 424.64456 444.4613 432.73303 437.18167 L 491.77884 378.13586 Q 499.05844 370.0474 499.05844 359.53238 Q 499.05844 349.01736 491.77884 340.92892 L 405.23224 254.38231 Q 393.9084 243.05846 377.73145 243.05846 L 310.59717 243.05846 L 310.59717 243.05846 Z M 284.71405 256 Q 284.71405 244.67615 291.99368 237.39653 L 291.99368 237.39653 Q 299.27332 230.1169 310.59717 230.1169 L 377.73145 230.1169 Q 398.76144 230.1169 414.12955 245.48499 L 500.67615 332.0316 Q 512 344.1643 512 359.53238 Q 512 374.90048 500.67615 387.03317 L 441.63034 446.07898 Q 429.49762 457.40283 414.12955 457.40283 Q 398.76144 457.40283 386.62875 446.07898 L 300.08215 359.53238 Q 284.71405 344.1643 284.71405 323.13428 L 284.71405 256 L 284.71405 256 Z M 330.0095 288.35388 Q 330.81833 276.22116 342.95102 275.41232 Q 355.08374 276.22116 355.89258 288.35388 Q 355.08374 300.48657 342.95102 301.2954 Q 330.81833 300.48657 330.0095 288.35388 L 330.0095 288.35388 Z" />
</svg>