<svg xmlns="http://www.w3.org/2000/svg" viewBox="0 0 448 512">
  <path d="M 216 179 Q 219 176 224 176 Q 229 176 232 179 L 364 311 L 364 311 Q 368 316 368 322 Q 367 335 354 336 L 280 336 L 280 336 Q 273 337 272 344 L 272 480 L 272 480 Q 271 495 256 496 L 192 496 L 192 496 Q 177 495 176 480 L 176 344 L 176 344 Q 175 337 168 336 L 94 336 L 94 336 Q 81 335 80 322 Q 80 316 84 311 L 216 179 L 216 179 Z M 224 160 Q 213 160 205 168 L 73 300 L 73 300 Q 64 309 64 322 Q 64 335 73 343 Q 81 352 94 352 L 160 352 L 160 352 L 160 480 L 160 480 Q 160 494 169 503 Q 178 512 192 512 L 256 512 L 256 512 Q 270 512 279 503 Q 288 494 288 480 L 288 352 L 288 352 L 354 352 L 354 352 Q 367 352 375 343 Q 384 335 384 322 Q 384 309 375 300 L 243 168 L 243 168 Q 235 160 224 160 L 224 160 Z M 16 184 L 16 88 L 16 184 L 16 88 Q 17 57 37 37 Q 57 17 88 16 L 360 16 L 360 16 Q 391 17 411 37 Q 431 57 432 88 L 432 184 L 432 184 Q 433 191 440 192 Q 447 191 448 184 L 448 88 L 448 88 Q 447 51 422 26 Q 397 1 360 0 L 88 0 L 88 0 Q 51 1 26 26 Q 1 51 0 88 L 0 184 L 0 184 Q 1 191 8 192 Q 15 191 16 184 L 16 184 Z" />
</svg>