<svg xmlns="http://www.w3.org/2000/svg" viewBox="0 0 642 514">
  <path d="M 352 399 Q 428 391 477 338 L 477 338 L 477 338 Q 526 285 528 208 Q 526 126 472 72 Q 418 18 336 16 Q 262 18 210 64 Q 157 109 146 181 L 129 187 L 129 187 Q 139 106 196 54 Q 253 2 336 0 Q 424 2 483 61 Q 542 120 544 208 Q 542 292 489 349 L 638 498 L 638 498 Q 642 504 638 510 Q 632 514 626 510 L 477 361 L 477 361 Q 425 409 350 415 Q 352 408 352 400 L 352 399 L 352 399 Z M 294 183 L 134 236 L 294 183 L 134 236 Q 128 238 128 244 L 128 293 L 128 293 L 304 234 L 304 234 L 304 190 L 304 190 Q 303 181 294 183 L 294 183 Z M 304 368 L 304 251 L 304 368 L 304 251 L 128 310 L 128 310 L 128 464 L 128 464 Q 127 484 109 498 Q 91 511 64 512 Q 37 511 19 498 Q 1 484 0 464 Q 1 444 19 430 Q 37 417 64 416 Q 94 417 112 432 L 112 304 L 112 304 L 112 244 L 112 244 Q 113 227 128 221 L 288 167 L 288 167 Q 301 164 310 171 Q 319 178 320 190 L 320 240 L 320 240 L 320 392 L 320 392 Q 320 393 320 395 Q 320 397 320 400 Q 319 420 301 434 Q 283 447 256 448 Q 229 447 211 434 Q 193 420 192 400 Q 193 380 211 366 Q 229 353 256 352 Q 286 353 304 368 L 304 368 Z M 292 421 Q 304 411 304 400 Q 304 389 292 379 Q 278 369 256 368 Q 234 369 220 379 Q 208 389 208 400 Q 208 411 220 421 Q 234 431 256 432 Q 278 431 292 421 L 292 421 Z M 100 485 Q 112 475 112 464 Q 112 453 100 443 Q 86 433 64 432 Q 42 433 28 443 Q 16 453 16 464 Q 16 475 28 485 Q 42 495 64 496 Q 86 495 100 485 L 100 485 Z" />
</svg>