<svg xmlns="http://www.w3.org/2000/svg" viewBox="0 0 576 480">
  <path d="M 408 16 L 40 16 L 408 16 L 40 16 Q 18 18 16 40 L 16 64 L 16 64 Q 18 152 77 211 Q 136 270 224 272 Q 228 272 232 272 Q 229 280 228 288 Q 226 288 224 288 Q 188 288 155 277 L 131 330 L 131 330 Q 144 339 151 352 L 227 352 L 227 352 Q 228 360 230 368 L 158 368 L 158 368 Q 160 376 160 384 Q 159 411 141 429 Q 123 447 96 448 Q 69 447 51 429 Q 33 411 32 384 Q 33 357 51 339 Q 69 321 96 320 Q 107 320 116 323 L 140 272 L 140 272 Q 77 246 39 191 Q 1 135 0 64 L 0 40 L 0 40 Q 0 23 12 12 Q 23 0 40 0 L 408 0 L 408 0 Q 425 0 436 12 Q 448 23 448 40 L 448 64 L 448 64 Q 448 100 437 133 Q 431 127 424 120 Q 432 93 432 64 L 432 40 L 432 40 Q 430 18 408 16 L 408 16 Z M 96 432 Q 123 431 138 408 Q 150 384 138 360 Q 123 337 96 336 Q 69 337 54 360 Q 42 384 54 408 Q 69 431 96 432 L 96 432 Z M 382 144 Q 379 144 377 146 Q 340 178 307 224 Q 274 270 272 319 Q 272 357 289 389 Q 306 420 336 440 Q 320 418 320 391 Q 321 362 337 336 Q 354 310 374 291 Q 395 271 407 262 Q 416 256 425 262 Q 437 271 458 291 Q 478 310 495 336 Q 511 362 512 391 Q 512 418 497 439 Q 526 419 543 388 Q 560 357 560 319 Q 559 280 535 240 Q 512 200 482 173 Q 478 169 474 173 Q 465 181 456 192 Q 444 204 431 192 Q 410 167 385 146 Q 384 144 381 144 L 382 144 Z M 416 464 Q 420 464 424 464 Q 456 460 476 440 Q 495 419 496 391 Q 494 355 465 322 Q 436 290 416 276 Q 396 290 367 322 Q 338 355 336 391 Q 337 419 356 440 Q 376 460 408 464 Q 412 464 416 464 L 416 464 Z M 256 319 Q 259 263 293 215 Q 328 167 367 134 Q 373 128 382 128 Q 390 128 396 134 Q 421 156 443 182 Q 443 182 443 182 Q 443 182 443 182 Q 443 182 443 182 Q 443 182 443 182 Q 443 182 443 182 Q 443 182 443 182 Q 443 182 443 182 Q 443 182 443 182 Q 443 182 443 182 Q 443 182 443 182 L 444 182 L 444 182 Q 453 171 463 161 Q 478 149 493 161 Q 525 189 549 232 Q 574 274 576 319 Q 574 385 532 430 Q 490 474 425 480 Q 421 480 416 480 Q 411 480 407 480 Q 341 475 299 430 Q 257 385 256 319 L 256 319 Z" />
</svg>