<svg xmlns="http://www.w3.org/2000/svg" viewBox="0 0 512 512">
  <path d="M 504.8889 207.11111 L 505.77777 214.22223 Q 511.1111 212.44444 512 207.11111 L 504.8889 207.11111 L 504.8889 207.11111 Z M 504.8889 305.77777 L 512 305.77777 Q 512 299.55554 505.77777 298.66666 L 504.8889 305.77777 L 504.8889 305.77777 Z M 7.111111 305.77777 L 6.2222223 298.66666 Q 0.8888889 299.55554 0 305.77777 L 7.111111 305.77777 L 7.111111 305.77777 Z M 7.111111 207.11111 L 0 207.11111 Q 0 212.44444 6.2222223 214.22223 L 7.111111 207.11111 L 7.111111 207.11111 Z M 56.88889 85.333336 Q 32.88889 86.22222 16.88889 102.22222 L 16.88889 102.22222 Q 0.8888889 118.22222 0 142.22223 L 14.222222 142.22223 Q 15.111111 124.44444 26.666666 112 Q 39.11111 100.44444 56.88889 99.55556 L 56.88889 85.333336 L 56.88889 85.333336 Z M 455.1111 85.333336 L 56.88889 85.333336 L 56.88889 99.55556 L 455.1111 99.55556 L 455.1111 85.333336 L 455.1111 85.333336 Z M 512 142.22223 Q 511.1111 118.22222 495.1111 102.22222 L 495.1111 102.22222 Q 479.1111 86.22222 455.1111 85.333336 L 455.1111 99.55556 Q 472.8889 100.44444 485.33334 112 Q 496.8889 124.44444 497.77777 142.22223 L 512 142.22223 L 512 142.22223 Z M 512 207.11111 L 512 142.22223 L 497.77777 142.22223 L 497.77777 207.11111 L 512 207.11111 L 512 207.11111 Z M 469.33334 256 Q 469.33334 239.11111 480 227.55556 L 480 227.55556 Q 489.77777 216 505.77777 214.22223 L 504 200 Q 482.66666 203.55556 469.33334 218.66667 Q 455.1111 233.77777 455.1111 256 L 469.33334 256 L 469.33334 256 Z M 505.77777 298.66666 Q 489.77777 296 480 284.44446 L 480 284.44446 Q 469.33334 272.8889 469.33334 256 L 455.1111 256 Q 456 278.22223 469.33334 293.33334 Q 482.66666 309.33334 504 312 L 505.77777 298.66666 L 505.77777 298.66666 Z M 512 369.77777 L 512 304.8889 L 497.77777 304.8889 L 497.77777 369.77777 L 512 369.77777 L 512 369.77777 Z M 455.1111 426.66666 Q 479.1111 425.77777 495.1111 409.77777 L 495.1111 409.77777 Q 511.1111 393.77777 512 369.77777 L 497.77777 369.77777 Q 496.8889 387.55554 485.33334 400 Q 472.8889 411.55554 455.1111 412.44446 L 455.1111 426.66666 L 455.1111 426.66666 Z M 56.88889 426.66666 L 455.1111 426.66666 L 455.1111 412.44446 L 56.88889 412.44446 L 56.88889 426.66666 L 56.88889 426.66666 Z M 0 369.77777 Q 0.8888889 393.77777 16.88889 409.77777 L 16.88889 409.77777 Q 32.88889 425.77777 56.88889 426.66666 L 56.88889 412.44446 Q 39.11111 411.55554 26.666666 400 Q 15.111111 387.55554 14.222222 369.77777 L 0 369.77777 L 0 369.77777 Z M 0 304.8889 L 0 369.77777 L 14.222222 369.77777 L 14.222222 304.8889 L 0 304.8889 L 0 304.8889 Z M 42.666668 256 Q 42.666668 272.8889 32 284.44446 L 32 284.44446 Q 22.222221 296 6.2222223 298.66666 L 8 312 Q 29.333334 308.44446 42.666668 293.33334 Q 56 278.22223 56.88889 256 L 42.666668 256 L 42.666668 256 Z M 6.2222223 214.22223 Q 22.222221 216 32 227.55556 L 32 227.55556 Q 42.666668 239.11111 42.666668 256 L 56.88889 256 Q 56 233.77777 42.666668 218.66667 Q 29.333334 202.66667 8 200 L 6.2222223 214.22223 L 6.2222223 214.22223 Z M 0 142.22223 L 0 207.11111 L 14.222222 207.11111 L 14.222222 142.22223 L 0 142.22223 L 0 142.22223 Z" />
</svg>