<svg xmlns="http://www.w3.org/2000/svg" viewBox="0 0 512 512">
  <path d="M 192.22145 112.49827 Q 193.10727 76.17993 224.11073 57.577854 Q 256 39.86159 287.88928 57.577854 Q 318.89273 76.17993 319.77853 112.49827 Q 318.89273 148.8166 287.88928 167.41869 Q 256 185.13495 224.11073 167.41869 Q 193.10727 148.8166 192.22145 112.49827 L 192.22145 112.49827 Z M 333.95157 112.49827 Q 332.17993 68.20761 294.97577 45.17647 Q 256 23.916956 217.02422 45.17647 Q 179.82007 68.20761 178.04845 112.49827 Q 179.82007 156.78893 217.02422 179.82007 Q 256 201.07959 294.97577 179.82007 Q 332.17993 156.78893 333.95157 112.49827 L 333.95157 112.49827 Z M 256 232.96886 L 68.20761 283.4602 Q 154.13148 234.74048 256 232.96886 L 256 232.96886 Z M 68.20761 283.4602 L 256 232.96886 Q 319.77853 232.96886 375.58478 253.34256 Q 432.27682 272.83044 484.5398 308.26297 L 484.5398 308.26297 Q 495.16956 317.1211 496.05536 326.86505 Q 497.827 337.4948 491.6263 347.23877 Q 484.5398 356.9827 474.79584 359.64014 Q 465.0519 363.18338 452.6505 356.0969 Q 405.70242 322.43597 350.782 302.9481 Q 347.23877 302.0623 343.6955 303.83392 Q 341.03806 305.60553 341.03806 309.1488 L 341.03806 438.4775 L 341.03806 445.56403 L 355.21106 445.56403 L 355.21106 438.4775 L 355.21106 319.77853 Q 402.15918 338.3806 444.6782 367.61246 L 444.6782 367.61246 Q 462.39447 378.24222 478.3391 373.81314 Q 494.28372 368.49826 503.14188 355.21106 Q 512 341.9239 510.22836 325.0934 Q 508.45676 308.26297 492.51212 296.7474 Q 438.4775 260.42908 380.01385 240.05536 Q 322.43597 218.79585 256 218.79585 Q 189.56401 218.79585 131.98616 240.05536 Q 73.52249 260.42908 19.487888 296.7474 L 68.20761 283.4602 L 68.20761 283.4602 L 68.20761 283.4602 Z M 68.20761 283.4602 Q 47.83391 294.97577 27.460207 308.26297 L 27.460207 308.26297 Q 15.944636 317.1211 15.944636 326.86505 Q 14.173011 337.4948 20.373703 347.23877 Q 27.460207 356.9827 37.20415 359.64014 Q 46.948097 363.18338 59.34948 356.0969 Q 106.29758 322.43597 161.21799 302.9481 Q 164.76125 302.0623 167.41869 303.83392 Q 170.96194 305.60553 170.96194 309.1488 L 170.96194 438.4775 L 170.96194 445.56403 L 156.78893 445.56403 L 156.78893 438.4775 L 156.78893 319.77853 Q 109.84083 338.3806 67.3218 367.61246 L 67.3218 367.61246 Q 49.605537 378.24222 33.6609 373.81314 Q 17.716263 368.49826 8.858131 355.21106 Q 0 341.9239 1.7716264 325.0934 Q 3.5432527 308.26297 19.487888 296.7474 L 69.09342 283.4602 L 68.20761 283.4602 Z M 0.8858132 480.99655 Q 1.7716264 487.19724 7.972318 488.08304 L 504.02768 488.08304 Q 510.22836 487.19724 511.1142 480.99655 Q 510.22836 474.79584 504.02768 473.91003 L 7.972318 473.91003 Q 1.7716264 474.79584 0.8858132 480.99655 L 0.8858132 480.99655 Z M 71.75086 232.96886 Q 85.03806 232.08304 85.923874 218.79585 Q 85.03806 205.50865 71.75086 204.62283 Q 58.46367 205.50865 57.577854 218.79585 Q 58.46367 232.08304 71.75086 232.96886 L 71.75086 232.96886 Z M 298.51904 332.17993 Q 297.6332 318.89273 284.346 318.00693 Q 271.05884 318.89273 270.173 332.17993 Q 271.05884 345.46713 284.346 346.35294 Q 297.6332 345.46713 298.51904 332.17993 L 298.51904 332.17993 Z M 411.9031 232.96886 Q 425.1903 232.08304 426.0761 218.79585 Q 425.1903 205.50865 411.9031 204.62283 Q 398.6159 205.50865 397.7301 218.79585 Q 398.6159 232.08304 411.9031 232.96886 L 411.9031 232.96886 Z" />
</svg>