<svg xmlns="http://www.w3.org/2000/svg" viewBox="0 0 576 448">
  <path d="M 64 16 Q 44 17 30 30 L 30 30 L 30 30 Q 17 44 16 64 L 16 384 L 16 384 Q 17 404 30 418 Q 44 431 64 432 L 512 432 L 512 432 Q 532 431 546 418 Q 559 404 560 384 L 560 64 L 560 64 Q 559 44 546 30 Q 532 17 512 16 L 64 16 L 64 16 Z M 0 64 Q 1 37 19 19 L 19 19 L 19 19 Q 37 1 64 0 L 512 0 L 512 0 Q 539 1 557 19 Q 575 37 576 64 L 576 384 L 576 384 Q 575 411 557 429 Q 539 447 512 448 L 64 448 L 64 448 Q 37 447 19 429 Q 1 411 0 384 L 0 64 L 0 64 Z M 112 240 L 304 240 L 112 240 L 304 240 Q 311 241 312 248 Q 311 255 304 256 L 112 256 L 112 256 Q 105 255 104 248 Q 105 241 112 240 L 112 240 Z M 368 240 L 464 240 L 368 240 L 464 240 Q 471 241 472 248 Q 471 255 464 256 L 368 256 L 368 256 Q 361 255 360 248 Q 361 241 368 240 L 368 240 Z M 112 336 L 208 336 L 112 336 L 208 336 Q 215 337 216 344 Q 215 351 208 352 L 112 352 L 112 352 Q 105 351 104 344 Q 105 337 112 336 L 112 336 Z M 272 336 L 464 336 L 272 336 L 464 336 Q 471 337 472 344 Q 471 351 464 352 L 272 352 L 272 352 Q 265 351 264 344 Q 265 337 272 336 L 272 336 Z" />
</svg>