<svg xmlns="http://www.w3.org/2000/svg" viewBox="0 0 512 416">
  <path d="M 336 208 L 336 297 L 336 208 L 336 297 Q 337 303 343 304 Q 346 304 348 302 L 495 162 L 495 162 Q 496 161 496 160 Q 496 159 495 158 L 348 18 L 348 18 Q 346 16 343 16 Q 337 17 336 23 L 336 112 L 336 112 Q 335 127 320 128 L 112 128 L 112 128 Q 71 129 44 156 Q 17 183 16 224 L 16 376 L 16 376 Q 18 398 40 400 L 56 400 L 56 400 Q 78 398 80 376 L 80 224 L 80 224 Q 80 210 89 201 Q 98 192 112 192 L 320 192 L 320 192 Q 335 193 336 208 L 336 208 Z M 506 174 L 359 314 L 506 174 L 359 314 Q 352 320 343 320 Q 322 318 320 297 L 320 224 L 320 224 L 320 208 L 320 208 L 304 208 L 112 208 Q 97 209 96 224 L 96 376 L 96 376 Q 95 393 84 404 Q 73 416 56 416 L 40 416 L 40 416 Q 23 416 12 404 Q 0 393 0 376 L 0 224 L 0 224 Q 1 176 33 145 Q 64 113 112 112 L 304 112 L 320 112 L 320 96 L 320 96 L 320 23 L 320 23 Q 322 2 343 0 Q 352 0 359 6 L 506 147 L 506 147 Q 512 152 512 160 Q 512 168 506 174 L 506 174 Z" />
</svg>