<svg xmlns="http://www.w3.org/2000/svg" viewBox="0 0 512 512">
  <path d="M 108.8 93.6 Q 112.8 98.4 119.2 98.4 Q 124.8 98.4 128.8 93.6 Q 133.6 87.2 139.2 81.6 Q 156 99.2 167.2 120.8 Q 179.2 144.8 179.2 159.2 Q 179.2 176.8 171.2 192 L 185.6 192 Q 192 176.8 192 159.2 Q 191.2 140 178.4 114.4 Q 165.6 89.6 144.8 69.6 Q 139.2 64.8 133.6 69.6 Q 130.4 72 127.2 76 Q 122.4 80.8 118.4 85.6 Q 114.4 80.8 110.4 76 Q 99.2 64 87.2 53.6 Q 84.8 51.2 82.4 51.2 Q 79.2 51.2 76.8 53.6 Q 48 79.2 31.2 107.2 Q 13.6 135.2 12.8 159.2 Q 12.8 176.8 19.2 192 L 32.8 192 Q 25.6 176.8 25.6 159.2 Q 25.6 140.8 41.6 113.6 Q 56.8 88.8 82.4 65.6 Q 96 78.4 108.8 93.6 L 108.8 93.6 Z M 151.2 136.8 L 151.2 136.8 Q 149.6 132.8 146.4 128.8 Q 144.8 126.4 141.6 125.6 Q 138.4 125.6 136.8 128 L 119.2 148 L 118.4 147.2 L 106.4 131.2 Q 98.4 121.6 92.8 114.4 Q 87.2 107.2 85.6 105.6 Q 84 103.2 80.8 103.2 Q 77.6 103.2 76 105.6 Q 61.6 122.4 54.4 134.4 Q 47.2 147.2 46.4 160 Q 47.2 179.2 56 192 L 73.6 192 Q 72.8 192 72.8 191.2 Q 72 191.2 72 191.2 Q 60 180 59.2 160 Q 59.2 152 65.6 140.8 Q 71.2 132 80.8 120 Q 83.2 122.4 85.6 126.4 Q 90.4 132 96 139.2 L 108.8 155.2 L 112.8 160 L 113.6 161.6 L 114.4 162.4 L 114.4 162.4 L 114.4 162.4 L 114.4 162.4 L 114.4 162.4 L 119.2 158.4 L 114.4 162.4 Q 116 164.8 119.2 164.8 Q 122.4 164.8 124 162.4 L 140.8 143.2 Q 147.2 156 144.8 169.6 Q 142.4 183.2 132 192 L 149.6 192 Q 165.6 165.6 151.2 136.8 L 151.2 136.8 Z M 6.4 217.6 Q 0.8 218.4 0 224 Q 0.8 229.6 6.4 230.4 L 23.2 230.4 L 4.8 295.2 Q 0 312.8 0 331.2 L 0 332.8 Q 1.6 387.2 37.6 423.2 Q 73.6 459.2 128 460.8 Q 157.6 460.8 183.2 448.8 Q 208.8 436.8 227.2 414.4 L 426.4 173.6 Q 432 166.4 440.8 166.4 L 492 166.4 Q 510.4 164.8 512 146.4 Q 512 138.4 506.4 132 L 492.8 119.2 Q 476 102.4 452.8 102.4 L 431.2 102.4 Q 407.2 102.4 390.4 119.2 L 361.6 148 L 344 129.6 Q 339.2 126.4 334.4 129.6 Q 331.2 134.4 334.4 139.2 L 352.8 156.8 L 323.2 186.4 L 305.6 168 Q 300.8 164.8 296 168 Q 292.8 172.8 296 177.6 L 314.4 195.2 L 284.8 224.8 L 267.2 206.4 Q 262.4 203.2 257.6 206.4 Q 254.4 211.2 257.6 216 L 276 233.6 L 168.8 340.8 Q 164 345.6 156.8 345.6 L 155.2 345.6 Q 142.4 344 140.8 331.2 Q 140.8 328 142.4 324.8 L 183.2 230.4 L 198.4 230.4 Q 204 229.6 204.8 224 Q 204 218.4 198.4 217.6 L 179.2 217.6 L 32 217.6 L 6.4 217.6 L 6.4 217.6 Z M 17.6 298.4 L 36.8 230.4 L 169.6 230.4 L 130.4 320 Q 128 324.8 128 331.2 Q 128 342.4 136 350.4 Q 144 357.6 155.2 358.4 L 156.8 358.4 Q 168.8 358.4 177.6 349.6 L 399.2 128 Q 412 115.2 431.2 115.2 L 452.8 115.2 Q 471.2 115.2 484 128 L 496.8 141.6 Q 499.2 143.2 499.2 146.4 Q 498.4 152.8 492 153.6 L 440.8 153.6 Q 425.6 153.6 416 165.6 L 217.6 406.4 Q 182.4 447.2 128 448 Q 79.2 446.4 46.4 414.4 Q 14.4 381.6 12.8 332.8 L 12.8 331.2 Q 12.8 314.4 17.6 298.4 L 17.6 298.4 Z M 76.8 345.6 Q 76 333.6 64 332.8 Q 52 333.6 51.2 345.6 Q 52 357.6 64 358.4 Q 76 357.6 76.8 345.6 L 76.8 345.6 Z M 89.6 281.6 Q 101.6 280.8 102.4 268.8 Q 101.6 256.8 89.6 256 Q 77.6 256.8 76.8 268.8 Q 77.6 280.8 89.6 281.6 L 89.6 281.6 Z" />
</svg>