<svg xmlns="http://www.w3.org/2000/svg" viewBox="0 0 448 460">
  <path d="M 436 198 Q 445 197 444 189 Q 429 108 362 54 Q 312 16 254 8 Q 196 0 141 22 Q 86 43 47 92 L 47 92 L 47 92 Q 47 92 47 92 Q 47 92 47 92 Q 47 92 47 92 Q 47 92 47 92 L 16 134 L 16 134 L 16 46 L 16 46 Q 15 39 8 38 Q 1 39 0 46 L 0 158 L 0 158 Q 1 165 8 166 L 120 166 L 120 166 Q 127 165 128 158 Q 127 151 120 150 L 24 150 L 24 150 L 60 102 L 60 102 Q 116 34 199 24 Q 281 13 352 66 Q 414 117 428 191 Q 430 198 436 198 L 436 198 Z M 440 294 L 328 294 L 440 294 L 328 294 Q 320 295 320 302 Q 320 309 328 310 L 425 310 L 425 310 L 389 358 L 389 358 Q 333 426 250 436 Q 168 447 97 394 Q 35 343 21 269 Q 19 262 13 262 Q 4 263 5 271 Q 20 352 87 407 Q 137 445 195 452 Q 253 460 308 438 Q 362 417 402 368 L 402 368 L 402 368 Q 402 368 402 368 Q 402 368 402 368 L 432 328 L 432 328 L 432 414 L 432 414 Q 432 421 440 422 Q 447 421 448 414 L 448 302 L 448 302 Q 447 295 440 294 L 440 294 Z" />
</svg>