<svg xmlns="http://www.w3.org/2000/svg" viewBox="0 0 514 525">
  <path d="M 510 4 Q 514 10 510 16 L 351 174 L 351 174 L 388 210 L 388 210 Q 404 228 404 250 Q 404 272 388 290 L 175 502 L 175 502 Q 163 514 147 514 L 136 514 L 136 514 Q 78 513 40 474 Q 1 436 0 378 L 0 367 L 0 367 Q 0 351 12 339 L 224 126 L 224 126 Q 242 110 264 110 Q 286 110 304 126 L 340 163 L 340 163 L 498 4 L 498 4 Q 504 0 510 4 L 510 4 Z M 236 138 L 216 157 L 236 138 L 216 157 L 216 274 L 216 274 Q 218 296 240 298 L 357 298 L 357 298 L 376 278 L 376 278 Q 388 266 388 250 Q 388 234 376 222 L 292 138 L 292 138 Q 280 126 264 126 Q 248 126 236 138 L 236 138 Z M 200 173 L 23 350 L 200 173 L 23 350 Q 16 357 16 367 L 16 378 L 16 378 Q 17 429 51 463 Q 85 497 136 498 L 147 498 L 147 498 Q 157 498 164 491 L 341 314 L 341 314 L 240 314 L 240 314 Q 223 314 212 302 Q 200 291 200 274 L 200 173 L 200 173 Z M 496 434 Q 495 398 464 379 Q 432 361 400 379 Q 369 398 368 434 Q 369 470 400 489 Q 432 507 464 489 Q 495 470 496 434 L 496 434 Z M 352 434 Q 353 389 392 365 Q 432 343 472 365 Q 511 389 512 434 Q 511 479 472 503 Q 432 525 392 503 Q 353 479 352 434 L 352 434 Z" />
</svg>