<svg xmlns="http://www.w3.org/2000/svg" viewBox="0 0 512 512">
  <path d="M 181 22 L 115 284 Q 114 292 121 297 Q 128 302 135 297 Q 207 247 263 231 Q 320 215 357 219 Q 286 166 247 107 Q 208 49 197 22 Q 194 16 189 16 Q 183 16 181 22 L 181 22 Z M 394 224 Q 430 244 432 284 Q 431 310 415 330 Q 399 350 372 352 L 232 352 Q 225 351 224 344 Q 225 337 232 336 L 372 336 Q 389 335 402 320 Q 415 304 416 284 Q 416 270 406 257 Q 396 245 381 240 Q 352 229 292 240 Q 231 252 144 310 Q 128 321 112 311 Q 96 299 100 280 L 165 19 Q 171 1 189 0 Q 205 1 212 15 Q 219 33 242 70 Q 264 107 302 149 Q 340 191 394 224 L 394 224 Z M 368 400 L 144 400 Q 130 400 121 409 Q 112 418 112 432 L 112 448 L 400 448 L 400 432 Q 400 418 391 409 Q 382 400 368 400 L 368 400 Z M 144 384 L 368 384 Q 388 385 402 398 Q 415 412 416 432 L 416 448 Q 430 448 439 457 Q 448 466 448 480 Q 448 494 439 503 Q 430 512 416 512 L 96 512 Q 82 512 73 503 Q 64 494 64 480 Q 64 466 73 457 Q 82 448 96 448 L 96 432 Q 97 412 110 398 Q 124 385 144 384 L 144 384 Z M 96 464 Q 81 465 80 480 Q 81 495 96 496 L 416 496 Q 431 495 432 480 Q 431 465 416 464 L 96 464 L 96 464 Z" />
</svg>