<svg xmlns="http://www.w3.org/2000/svg" viewBox="0 0 512 512">
  <path d="M 304.66534 64.88713 Q 303.6515 92.26138 280.33267 107.46931 Q 256 119.63564 231.66733 107.46931 Q 208.34851 92.26138 207.33466 64.88713 Q 208.34851 37.51287 231.66733 22.30495 Q 256 10.138614 280.33267 22.30495 Q 303.6515 37.51287 304.66534 64.88713 L 304.66534 64.88713 Z M 256 0 Q 219.50099 1.0138614 200.23763 32.443565 Q 181.98811 64.88713 200.23763 97.330696 Q 219.50099 128.76039 256 129.77426 Q 292.49902 128.76039 311.7624 97.330696 Q 330.01187 64.88713 311.7624 32.443565 Q 292.49902 1.0138614 256 0 L 256 0 Z M 110.00396 260.56238 Q 111.01782 251.43762 121.15643 253.46535 L 133.32277 257.52078 Q 166.7802 267.6594 199.22375 259.54852 L 219.50099 253.46535 Q 229.6396 253.46535 228.62575 263.60397 L 223.55644 283.8812 Q 214.43169 316.32474 225.58415 349.78217 L 229.6396 361.94852 Q 231.66733 372.08713 222.54257 373.10098 Q 188.07129 374.11484 165.76634 396.4198 Q 143.46138 418.72476 142.44753 453.19604 L 142.44753 485.63962 Q 141.43367 494.76434 131.29504 492.73663 L 119.128716 488.68118 Q 85.67129 478.54257 53.227722 486.65347 L 32.950497 492.73663 Q 22.811882 492.73663 22.811882 482.59802 L 28.89505 462.3208 Q 37.00594 429.87723 26.867327 396.4198 L 22.811882 384.25348 Q 20.784159 374.11484 29.90891 373.10098 L 29.90891 356.8792 L 29.90891 373.10098 Q 64.380196 372.08713 86.68515 349.78217 Q 108.9901 327.47723 110.00396 293.00595 L 110.00396 260.56238 L 110.00396 260.56238 Z M 93.78218 293.00595 Q 92.76832 320.3802 75.53268 338.6297 L 75.53268 338.6297 Q 57.28317 355.86536 29.90891 356.8792 Q 17.742575 357.89307 10.645545 367.01782 Q 3.5485148 376.14258 7.6039605 389.32278 L 11.659406 401.4891 Q 20.784159 429.87723 12.673267 458.26535 L 7.6039605 477.52872 Q 4.562376 491.72278 13.687129 501.8614 Q 22.811882 510.98615 38.019802 507.94455 L 57.28317 502.87524 Q 85.67129 494.76434 114.0594 503.8891 L 126.225746 507.94455 Q 139.40594 512 148.5307 504.90298 Q 157.65544 497.80594 158.66931 485.63962 L 158.66931 453.19604 Q 159.68317 425.82178 176.91881 407.57227 Q 195.16832 390.33664 222.54257 389.32278 Q 234.70891 388.3089 241.80594 379.18417 Q 248.90297 370.05942 245.86139 356.8792 L 240.79208 344.71286 Q 231.66733 316.32474 239.77821 287.93665 L 244.84752 268.67328 Q 247.88911 253.46535 238.76436 244.34059 Q 229.6396 235.21584 215.44554 238.25743 L 195.16832 243.32674 Q 166.7802 251.43762 138.39207 242.31287 L 126.225746 238.25743 Q 113.04555 234.20198 103.92079 241.29901 Q 94.79604 248.39604 93.78218 260.56238 L 93.78218 293.00595 L 93.78218 293.00595 Z M 168.80792 81.10891 Q 143.46138 84.1505 127.2396 102.4 L 127.2396 102.4 Q 111.01782 120.649506 110.00396 145.99603 Q 111.01782 173.3703 129.26733 191.6198 Q 147.51683 209.86931 174.89108 210.88316 Q 200.23763 209.86931 218.48712 193.64752 Q 236.73663 177.42574 239.77821 153.09306 Q 231.66733 151.06535 223.55644 148.02376 Q 222.54257 168.301 208.34851 181.48119 Q 195.16832 194.66139 174.89108 194.66139 Q 154.61386 193.64752 140.4198 180.46733 Q 127.2396 166.27327 126.225746 145.99603 Q 126.225746 125.71881 139.40594 112.53861 Q 152.58614 98.34455 172.86337 97.330696 Q 169.82178 89.2198 168.80792 81.10891 L 168.80792 81.10891 Z M 272.22177 152.07921 Q 275.26337 177.42574 293.51288 193.64752 L 293.51288 193.64752 Q 311.7624 209.86931 337.10892 210.88316 Q 364.48315 209.86931 382.73267 191.6198 Q 400.98218 173.3703 401.99603 145.99603 Q 400.98218 120.649506 384.7604 102.4 Q 368.5386 84.1505 344.20593 81.10891 Q 342.17822 90.233665 339.13663 97.330696 Q 359.41385 98.34455 372.59406 112.53861 Q 385.77426 125.71881 385.77426 145.99603 Q 384.7604 166.27327 371.5802 180.46733 Q 357.38614 193.64752 337.10892 194.66139 Q 316.8317 194.66139 303.6515 181.48119 Q 289.45743 168.301 288.44357 148.02376 Q 280.33267 151.06535 272.22177 153.09306 L 272.22177 152.07921 Z M 401.99603 260.56238 L 401.99603 293.00595 Q 403.0099 327.47723 425.31485 349.78217 Q 447.6198 372.08713 482.0911 373.10098 Q 491.21585 374.11484 489.1881 384.25348 L 485.13266 396.4198 Q 474.99405 429.87723 483.10495 462.3208 L 489.1881 482.59802 Q 489.1881 492.73663 479.0495 491.72278 L 458.77228 486.65347 Q 426.3287 478.54257 392.87128 488.68118 L 380.70496 492.73663 Q 370.56635 494.76434 369.5525 485.63962 L 369.5525 453.19604 Q 368.5386 418.72476 346.23367 396.4198 Q 323.9287 374.11484 289.45743 373.10098 Q 280.33267 372.08713 282.36038 361.94852 L 286.41583 349.78217 Q 297.56833 316.32474 288.44357 283.8812 L 283.37427 263.60397 Q 282.36038 253.46535 292.49902 254.4792 L 312.77625 259.54852 Q 345.2198 268.67328 378.67722 257.52078 L 390.84357 253.46535 Q 400.98218 251.43762 401.99603 260.56238 L 401.99603 260.56238 Z M 418.21783 293.00595 L 418.21783 260.56238 Q 417.20395 248.39604 408.0792 241.29901 Q 398.95447 234.20198 385.77426 237.24356 L 373.6079 242.31287 Q 345.2198 251.43762 316.8317 243.32674 L 297.56833 238.25743 Q 283.37427 235.21584 273.23566 244.34059 Q 264.1109 253.46535 267.15247 268.67328 L 272.22177 287.93665 Q 280.33267 316.32474 271.20792 344.71286 L 267.15247 356.8792 Q 263.09702 369.04553 270.19406 379.18417 Q 277.29108 388.3089 289.45743 389.32278 Q 316.8317 390.33664 335.08118 407.57227 Q 352.31683 425.82178 353.3307 453.19604 L 353.3307 485.63962 Q 354.34454 497.80594 363.4693 504.90298 Q 372.59406 512 385.77426 507.94455 L 398.95447 503.8891 Q 426.3287 494.76434 454.71683 502.87524 L 474.99405 507.94455 Q 489.1881 510.98615 498.31287 501.8614 Q 507.43762 491.72278 504.39603 477.52872 L 499.32672 458.26535 Q 491.21585 429.87723 500.3406 401.4891 L 505.4099 389.32278 Q 508.45148 376.14258 501.35446 367.01782 Q 494.25742 357.89307 482.0911 356.8792 Q 454.71683 355.86536 436.46732 338.6297 Q 419.2317 320.3802 418.21783 293.00595 L 418.21783 293.00595 Z" />
</svg>