<svg xmlns="http://www.w3.org/2000/svg" viewBox="0 0 512 512">
  <path d="M 464 496 L 112 496 L 112 336 L 96 336 L 96 496 L 96 512 L 112 512 L 464 512 L 480 512 L 480 496 L 480 160 L 320 0 L 112 0 L 96 0 L 96 16 L 96 256 L 112 256 L 112 16 L 304 16 L 304 168 L 304 176 L 312 176 L 464 176 L 464 496 L 464 496 Z M 457 160 L 320 160 L 320 23 L 457 160 L 457 160 Z M 295 228 Q 293 224 288 224 Q 283 224 281 229 L 223 359 L 183 292 Q 180 288 176 288 L 40 288 Q 33 289 32 296 Q 33 303 40 304 L 172 304 L 217 380 Q 220 384 225 384 Q 229 384 231 379 L 288 251 L 313 300 Q 315 304 320 304 L 384 304 Q 391 303 392 296 Q 391 289 384 288 L 325 288 L 295 228 L 295 228 Z" />
</svg>