<svg xmlns="http://www.w3.org/2000/svg" viewBox="0 0 497 504">
  <path d="M 200 64 Q 201 91 224 106 Q 248 118 272 106 Q 295 91 296 64 Q 295 37 272 22 Q 248 10 224 22 Q 201 37 200 64 L 200 64 Z M 248 128 Q 212 127 193 96 Q 175 64 193 32 Q 212 1 248 0 Q 284 1 303 32 Q 321 64 303 96 Q 284 127 248 128 L 248 128 Z M 104 257 L 104 312 L 104 257 L 104 312 Q 103 336 88 352 Q 72 367 48 368 L 37 368 L 37 368 Q 25 369 24 381 Q 24 382 24 384 L 27 399 L 27 399 Q 32 425 26 450 L 19 476 L 19 476 Q 18 486 28 486 L 54 479 L 54 479 Q 79 472 105 477 L 115 479 L 115 479 Q 121 480 128 480 Q 135 479 136 472 L 136 447 L 136 447 Q 137 413 159 391 Q 181 369 215 368 Q 224 367 222 358 L 218 345 L 218 345 Q 207 312 216 280 L 222 260 L 222 260 Q 222 250 212 251 L 192 256 L 192 256 Q 160 265 127 254 L 115 250 L 115 250 Q 105 248 104 257 L 104 257 Z M 120 234 L 132 239 L 120 234 L 132 239 Q 160 248 188 240 L 207 235 L 207 235 Q 221 232 231 241 Q 240 250 237 265 L 232 284 L 232 284 Q 224 312 233 340 L 237 352 L 237 352 Q 241 365 234 374 Q 227 383 215 384 Q 188 385 170 402 Q 153 420 152 447 L 152 472 L 152 472 Q 150 494 128 496 Q 120 496 112 494 L 102 492 L 102 492 Q 80 488 58 494 L 33 501 L 33 501 Q 18 504 9 495 Q 0 485 3 471 L 10 446 L 10 446 Q 16 424 12 402 L 9 387 L 9 387 Q 8 384 8 381 Q 8 369 17 361 Q 25 352 37 352 L 48 352 L 48 352 Q 65 352 76 340 Q 88 329 88 312 L 88 257 L 88 257 Q 89 245 98 238 Q 107 231 120 234 L 120 234 Z M 162 80 Q 163 88 166 96 Q 146 97 133 111 Q 120 124 120 144 Q 121 164 134 178 Q 148 191 168 192 Q 188 192 201 179 Q 215 166 216 146 Q 224 149 232 151 Q 229 175 211 191 Q 193 207 168 208 Q 141 207 123 189 Q 105 171 104 144 Q 105 119 121 101 Q 137 83 162 80 L 162 80 Z M 264 151 Q 272 149 280 146 Q 281 166 295 179 Q 308 192 328 192 Q 348 191 362 178 Q 375 164 376 144 Q 376 124 363 111 Q 350 97 330 96 Q 333 88 335 80 Q 359 83 375 101 Q 391 119 392 144 Q 391 171 373 189 Q 355 207 328 208 Q 303 207 285 191 Q 267 175 264 151 L 264 151 Z M 393 257 Q 391 248 382 250 L 370 254 L 370 254 Q 337 265 305 256 L 285 251 L 285 251 Q 275 250 275 260 L 281 280 L 281 280 Q 289 312 279 345 L 275 357 L 275 357 Q 273 367 282 368 Q 316 369 338 391 Q 360 413 361 447 L 361 472 L 361 472 Q 362 479 369 480 Q 375 480 382 479 L 392 477 L 392 477 Q 417 471 443 478 L 469 485 L 469 485 Q 479 486 478 476 L 471 450 L 471 450 Q 464 424 470 399 L 473 384 L 473 384 Q 473 382 473 381 Q 472 369 460 368 L 449 368 L 449 368 Q 425 367 409 351 Q 393 336 393 312 L 393 257 L 393 257 Z M 377 234 Q 389 231 399 238 L 399 238 L 399 238 Q 408 245 409 257 L 409 312 L 409 312 Q 409 329 421 340 Q 432 352 449 352 L 460 352 L 460 352 Q 472 352 480 361 Q 489 369 489 381 Q 489 384 488 387 L 485 402 L 485 402 Q 481 424 487 446 L 494 472 L 494 472 Q 497 486 488 495 Q 478 504 464 501 L 439 494 L 439 494 Q 417 488 395 493 L 385 495 L 385 495 Q 377 496 369 496 Q 347 494 345 472 L 345 447 L 345 447 Q 344 420 327 402 Q 309 385 282 384 Q 270 384 263 374 Q 256 365 259 353 L 264 340 L 264 340 Q 273 312 265 284 L 260 265 L 260 265 Q 257 250 266 241 Q 275 232 290 235 L 309 240 L 309 240 Q 337 248 365 239 L 377 235 L 377 234 Z" />
</svg>