<svg xmlns="http://www.w3.org/2000/svg" viewBox="0 0 576 512">
  <path d="M 144 64 Q 145 90 166 104 Q 170 107 169 112 Q 168 119 168 127 Q 169 174 203 206 Q 236 239 288 240 Q 340 239 373 206 Q 407 174 408 127 Q 408 119 407 112 Q 406 107 410 104 Q 431 90 432 64 Q 431 44 418 30 Q 404 17 384 16 Q 352 18 339 47 Q 337 52 330 52 Q 309 48 288 48 Q 267 48 246 52 Q 239 52 237 47 Q 224 18 192 16 Q 172 17 158 30 Q 145 44 144 64 L 144 64 Z M 192 0 Q 231 2 249 35 Q 269 32 288 32 Q 307 32 327 35 Q 345 2 384 0 Q 411 1 429 19 Q 447 37 448 64 Q 447 96 423 115 Q 424 120 424 127 Q 423 181 384 218 Q 346 255 288 256 Q 230 255 192 218 Q 153 181 152 127 Q 152 120 153 115 Q 129 96 128 64 Q 129 37 147 19 Q 165 1 192 0 L 192 0 Z M 264 168 Q 264 174 270 179 Q 277 184 288 184 Q 299 184 306 179 Q 312 174 312 168 Q 312 162 306 157 Q 299 152 288 152 Q 277 152 270 157 Q 264 162 264 168 L 264 168 Z M 288 136 Q 304 136 315 145 Q 327 153 328 168 Q 327 183 315 191 Q 304 200 288 200 Q 272 200 261 191 Q 249 183 248 168 Q 249 153 261 145 Q 272 136 288 136 L 288 136 Z M 436 205 Q 452 187 474 184 L 474 184 L 474 184 Q 496 182 515 196 Q 533 212 536 234 Q 538 256 524 275 Q 477 333 416 363 L 416 400 L 416 400 L 465 400 L 465 400 Q 468 379 483 366 Q 498 352 520 352 Q 544 353 560 368 Q 575 384 576 408 Q 575 434 567 456 Q 560 479 552 493 Q 540 512 519 512 L 472 512 L 472 512 Q 472 512 472 512 Q 472 512 472 512 L 104 512 L 104 512 Q 104 512 104 512 Q 104 512 104 512 L 57 512 L 57 512 Q 36 512 24 493 Q 16 479 9 456 Q 1 434 0 408 Q 1 384 16 368 Q 32 353 56 352 Q 78 352 93 366 Q 108 379 111 400 L 160 400 L 160 400 L 160 363 L 160 363 Q 99 333 52 275 Q 38 256 40 234 Q 43 212 61 196 Q 80 182 102 184 Q 124 187 140 205 Q 172 244 210 263 Q 249 282 288 282 Q 327 282 366 263 Q 404 244 436 205 L 436 205 Z M 104 496 Q 104 496 104 496 L 104 496 L 104 496 Q 104 496 104 496 L 216 496 L 216 496 L 216 472 L 216 472 Q 215 448 200 432 Q 184 417 160 416 Q 160 416 160 416 Q 160 416 160 416 L 104 416 L 104 416 Q 97 415 96 408 Q 96 391 84 380 Q 73 368 56 368 Q 39 368 28 380 Q 16 391 16 408 Q 17 431 24 451 Q 31 472 39 486 Q 44 496 57 496 L 104 496 L 104 496 Z M 176 402 Q 190 405 201 413 Q 206 386 225 369 Q 245 353 272 352 L 304 352 L 304 352 Q 331 353 351 369 Q 370 386 375 413 Q 386 405 400 402 L 400 358 L 400 358 Q 400 353 405 351 Q 465 322 511 265 Q 522 251 520 236 Q 518 220 505 209 Q 492 199 476 200 Q 460 202 449 215 Q 415 257 373 277 Q 331 298 288 297 Q 245 298 203 277 Q 161 257 127 215 Q 116 202 100 200 Q 85 199 71 209 Q 58 220 56 236 Q 55 251 65 265 Q 111 323 172 351 Q 176 353 176 358 L 176 402 L 176 402 Z M 216 427 Q 232 446 232 472 L 232 496 L 232 496 L 344 496 L 344 496 L 344 472 L 344 472 Q 345 446 360 427 L 360 424 L 360 424 Q 359 400 344 385 Q 328 369 304 368 L 272 368 L 272 368 Q 248 369 232 385 Q 217 400 216 424 L 216 427 L 216 427 Z M 416 416 Q 392 417 376 432 L 376 432 L 376 432 Q 361 448 360 472 L 360 496 L 360 496 L 472 496 L 472 496 Q 472 496 472 496 Q 472 496 472 496 L 519 496 L 519 496 Q 532 496 538 486 Q 545 472 552 451 Q 560 431 560 408 Q 560 391 548 380 Q 537 368 520 368 Q 503 368 492 380 Q 481 391 480 408 Q 479 415 472 416 L 416 416 L 416 416 Q 416 416 416 416 Q 416 416 416 416 L 416 416 Z M 240 100 Q 251 101 252 112 Q 251 123 240 124 Q 229 123 228 112 Q 229 101 240 100 L 240 100 Z M 324 112 Q 325 101 336 100 Q 347 101 348 112 Q 347 123 336 124 Q 325 123 324 112 L 324 112 Z" />
</svg>