<svg xmlns="http://www.w3.org/2000/svg" viewBox="0 0 640 518">
  <path d="M 8 0 Q 1 1 0 8 Q 1 15 8 16 L 46 16 L 46 16 Q 64 17 69 35 L 129 339 L 129 339 Q 133 359 148 371 Q 163 384 184 384 L 321 384 L 321 384 Q 320 376 320 368 L 184 368 L 184 368 Q 169 368 158 359 Q 147 350 144 336 L 135 288 L 135 288 L 339 288 L 339 288 Q 343 280 349 272 L 132 272 L 132 272 L 88 48 L 88 48 L 528 48 L 528 48 Q 540 48 547 57 Q 553 66 551 78 L 524 194 L 524 194 Q 532 195 540 197 L 567 81 L 567 81 Q 570 62 559 47 Q 548 33 528 32 L 85 32 L 85 32 Q 77 2 46 0 L 8 0 L 8 0 Z M 144 464 Q 144 450 153 441 L 153 441 L 153 441 Q 162 432 176 432 Q 190 432 199 441 Q 208 450 208 464 Q 208 478 199 487 Q 190 496 176 496 Q 162 496 153 487 Q 144 478 144 464 L 144 464 Z M 224 464 Q 223 437 200 422 Q 176 410 152 422 Q 129 437 128 464 Q 129 491 152 506 Q 176 518 200 506 Q 223 491 224 464 L 224 464 Z M 496 240 Q 531 240 560 257 L 560 257 L 560 257 Q 589 274 607 304 Q 624 334 624 368 Q 624 402 607 432 Q 589 462 560 479 Q 531 496 496 496 Q 461 496 432 479 Q 403 462 385 432 Q 368 402 368 368 Q 368 334 385 304 Q 403 274 432 257 Q 461 240 496 240 L 496 240 Z M 496 512 Q 535 512 568 493 L 568 493 L 568 493 Q 601 474 621 440 Q 640 406 640 368 Q 640 330 621 296 Q 601 262 568 243 Q 535 224 496 224 Q 457 224 424 243 Q 391 262 371 296 Q 352 330 352 368 Q 352 406 371 440 Q 391 474 424 493 Q 457 512 496 512 L 496 512 Z M 566 322 Q 560 318 554 322 L 480 397 L 480 397 L 438 354 L 438 354 Q 432 350 426 354 Q 422 360 426 366 L 474 414 L 474 414 Q 480 418 486 414 L 566 334 L 566 334 Q 570 328 566 322 L 566 322 Z" />
</svg>