<svg xmlns="http://www.w3.org/2000/svg" viewBox="0 0 640 448">
  <path d="M 160 16 L 576 16 L 160 16 L 576 16 Q 596 17 610 30 Q 623 44 624 64 L 624 114 L 624 114 Q 624 114 624 114 Q 623 114 623 114 Q 602 120 589 137 Q 576 153 576 176 Q 576 199 589 215 Q 602 232 623 238 Q 624 238 624 238 L 624 288 L 624 288 Q 623 308 610 322 Q 596 336 576 336 L 160 336 L 160 336 Q 140 336 126 322 Q 113 308 112 288 L 112 64 L 112 64 Q 113 44 126 30 Q 140 17 160 16 L 160 16 Z M 96 64 L 96 288 L 96 64 L 96 288 Q 97 315 115 333 Q 133 351 160 352 L 576 352 L 576 352 Q 603 351 621 333 Q 639 315 640 288 L 640 237 L 640 237 Q 639 226 627 222 Q 612 218 602 205 Q 592 193 592 176 Q 592 159 602 147 Q 612 134 627 130 Q 639 126 640 115 L 640 64 L 640 64 Q 639 37 621 19 Q 603 1 576 0 L 160 0 L 160 0 Q 133 1 115 19 Q 97 37 96 64 L 96 64 Z M 496 96 Q 511 95 512 80 Q 511 65 496 64 Q 481 65 480 80 Q 481 95 496 96 L 496 96 Z M 496 160 Q 511 159 512 144 Q 511 129 496 128 Q 481 129 480 144 Q 481 159 496 160 L 496 160 Z M 512 208 Q 511 193 496 192 Q 481 193 480 208 Q 481 223 496 224 Q 511 223 512 208 L 512 208 Z M 496 288 Q 511 287 512 272 Q 511 257 496 256 Q 481 257 480 272 Q 481 287 496 288 L 496 288 Z M 16 64 Q 15 57 8 56 Q 1 57 0 64 L 0 344 L 0 344 Q 1 388 30 418 Q 60 447 104 448 L 552 448 L 552 448 Q 559 447 560 440 Q 559 433 552 432 L 104 432 L 104 432 Q 67 431 42 406 Q 17 381 16 344 L 16 64 L 16 64 Z" />
</svg>