<svg xmlns="http://www.w3.org/2000/svg" viewBox="0 0 512 512">
  <path d="M 247.11111 129.77777 Q 256 136 264.8889 129.77777 Q 297.77777 102.22222 334.22223 99.55556 Q 358.22223 100.44444 384.8889 115.55556 Q 411.55554 130.66667 433.77777 148.44444 Q 458.66666 168.88889 476.44446 188.44444 Q 496 208.88889 497.77777 227.55556 Q 496 248.88889 483.55554 272.8889 L 496 279.1111 L 483.55554 272.8889 Q 469.33334 301.33334 442.66666 333.33334 Q 416 364.44446 376.8889 387.55554 Q 336.8889 411.55554 284.44446 412.44446 L 227.55556 412.44446 Q 175.11111 411.55554 135.11111 387.55554 Q 96 364.44446 69.333336 333.33334 Q 34.666668 294.22223 17.777779 248 Q 14.222222 236.44444 14.222222 227.55556 Q 16 208.88889 35.555557 188.44444 Q 53.333332 168.88889 78.22222 148.44444 Q 100.44444 130.66667 127.111115 115.55556 Q 153.77777 100.44444 177.77777 99.55556 Q 214.22223 102.22222 247.11111 129.77777 L 247.11111 129.77777 Z M 453.33334 342.22223 Q 481.77777 308.44446 496 279.1111 Q 509.33334 255.11111 512 227.55556 Q 512 213.33333 504 200.88889 Q 496.8889 189.33333 487.1111 178.66667 Q 468.44446 158.22223 442.66666 137.77777 Q 419.55554 119.111115 392 103.111115 Q 363.55554 86.22222 334.22223 85.333336 Q 312 85.333336 292.44446 95.111115 Q 272.8889 104.888885 256 118.22222 Q 239.11111 104.888885 219.55556 95.111115 Q 200 85.333336 177.77777 85.333336 Q 148.44444 86.22222 120 103.111115 Q 92.44444 119.111115 69.333336 137.77777 Q 43.555557 158.22223 24.88889 178.66667 Q 15.111111 189.33333 8 200.88889 Q 0 213.33333 0 227.55556 Q 0.8888889 240 4.4444447 252.44444 Q 23.11111 302.22223 58.666668 342.22223 Q 86.22222 375.1111 128.88889 400 Q 170.66667 425.77777 227.55556 426.66666 L 284.44446 426.66666 Q 341.33334 425.77777 383.1111 400 Q 425.77777 375.1111 453.33334 342.22223 L 453.33334 342.22223 Z M 314.66666 214.22223 Q 318.22223 213.33333 321.77777 213.33333 Q 373.33334 215.11111 398.22223 224 Q 410.66666 227.55556 416.8889 231.11111 Q 416.8889 231.11111 417.77777 232 Q 417.77777 232 417.77777 232 Q 415.1111 235.55556 410.66666 240 Q 400 251.55556 378.66666 264.8889 Q 357.33334 278.22223 327.1111 288 Q 296 297.77777 256 298.66666 Q 216 297.77777 184.88889 288 Q 154.66667 278.22223 133.33333 264.8889 Q 112 251.55556 101.333336 240 Q 96 235.55556 94.22222 232 Q 94.22222 231.11111 95.111115 231.11111 Q 101.333336 227.55556 113.77778 223.11111 Q 138.66667 215.11111 190.22223 213.33333 Q 193.77777 213.33333 197.33333 214.22223 Q 206.22223 216.88889 223.11111 221.33333 Q 240 224.88889 256 225.77777 Q 272 224.88889 288.8889 221.33333 Q 305.77777 216.88889 314.66666 214.22223 L 314.66666 214.22223 Z M 420.44446 233.77777 Q 420.44446 233.77777 420.44446 233.77777 Q 419.55554 233.77777 419.55554 233.77777 Q 419.55554 233.77777 419.55554 233.77777 Q 419.55554 234.66667 420.44446 234.66667 Q 420.44446 234.66667 420.44446 233.77777 Q 420.44446 233.77777 420.44446 233.77777 L 420.44446 233.77777 Z M 91.55556 233.77777 Q 91.55556 233.77777 91.55556 233.77777 Q 92.44444 234.66667 92.44444 233.77777 Q 92.44444 233.77777 92.44444 233.77777 Q 91.55556 233.77777 91.55556 233.77777 L 91.55556 233.77777 Z M 321.77777 199.11111 Q 315.55554 199.11111 310.22223 200.88889 Q 301.33334 203.55556 286.22223 207.11111 Q 270.22223 210.66667 256 211.55556 Q 241.77777 210.66667 225.77777 207.11111 Q 210.66667 203.55556 201.77777 200.88889 Q 196.44444 199.11111 190.22223 199.11111 Q 136.88889 200.88889 109.333336 209.77777 Q 96 214.22223 88 218.66667 Q 84.44444 220.44444 81.77778 223.11111 Q 79.111115 224.88889 78.22222 231.11111 Q 78.22222 232.88889 79.111115 233.77777 Q 79.111115 233.77777 79.111115 234.66667 Q 79.111115 235.55556 80 236.44444 Q 80.888885 238.22223 82.666664 240 Q 85.333336 244.44444 91.55556 250.66667 Q 103.111115 262.22223 125.333336 276.44446 Q 148.44444 291.55554 181.33333 301.33334 Q 213.33333 312 256 312.8889 Q 298.66666 312 330.66666 302.22223 Q 363.55554 291.55554 386.66666 276.44446 Q 408.8889 262.22223 420.44446 250.66667 Q 426.66666 244.44444 429.33334 240 Q 431.1111 238.22223 432 236.44444 Q 432.8889 235.55556 432.8889 234.66667 Q 433.77777 233.77777 433.77777 231.11111 Q 432.8889 225.77777 430.22223 223.11111 Q 427.55554 221.33333 424 218.66667 Q 416 214.22223 402.66666 209.77777 Q 375.1111 200.88889 321.77777 199.11111 L 321.77777 199.11111 Z" />
</svg>