<svg xmlns="http://www.w3.org/2000/svg" viewBox="0 0 520 512">
  <path d="M 367 19 Q 369 16 373 16 Q 377 16 379 19 Q 385 26 393 42 Q 401 59 401 81 Q 401 102 398 108 Q 397 111 396 112 Q 396 112 396 112 Q 396 113 396 113 Q 392 118 396 124 Q 402 128 407 124 Q 408 124 408 124 Q 409 123 412 122 Q 418 119 439 119 Q 461 119 478 127 Q 494 135 501 141 Q 504 143 504 147 Q 504 151 501 153 Q 494 160 479 168 Q 464 175 446 176 Q 421 176 408 167 Q 394 159 378 141 Q 361 125 353 112 Q 344 99 344 74 Q 345 55 352 41 Q 360 26 367 18 L 367 19 Z M 391 9 Q 383 0 373 0 Q 362 0 354 8 Q 347 17 338 34 Q 329 51 328 74 Q 328 102 339 120 Q 349 137 366 152 Q 366 152 367 153 Q 367 153 367 153 Q 367 153 367 153 L 367 153 L 367 153 L 368 154 L 368 154 Q 368 154 368 154 Q 383 170 400 181 Q 418 192 446 192 Q 469 191 486 182 Q 503 173 512 166 Q 520 158 520 147 Q 520 137 511 129 Q 503 121 484 112 Q 465 103 439 103 Q 424 103 415 105 Q 417 96 417 81 Q 416 55 407 36 Q 398 17 391 9 L 391 9 Z M 216 152 Q 217 129 236 117 Q 256 107 276 117 Q 295 129 296 152 Q 295 175 276 187 Q 256 197 236 187 Q 217 175 216 152 L 216 152 Z M 80 176 Q 81 153 100 141 Q 120 131 140 141 Q 159 153 160 176 Q 159 199 140 211 Q 120 221 100 211 Q 81 199 80 176 L 80 176 Z M 56 312 Q 57 289 76 277 Q 96 267 116 277 Q 135 289 136 312 Q 135 335 116 347 Q 96 357 76 347 Q 57 335 56 312 L 56 312 Z M 24 456 Q 25 433 44 421 Q 64 411 84 421 Q 103 433 104 456 Q 103 479 84 491 Q 64 501 44 491 Q 25 479 24 456 L 24 456 Z M 168 424 Q 169 401 188 389 Q 208 379 228 389 Q 247 401 248 424 Q 247 447 228 459 Q 208 469 188 459 Q 169 447 168 424 L 168 424 Z M 304 400 Q 305 377 324 365 Q 344 355 364 365 Q 383 377 384 400 Q 383 423 364 435 Q 344 445 324 435 Q 305 423 304 400 L 304 400 Z M 192 288 Q 193 265 212 253 Q 232 243 252 253 Q 271 265 272 288 Q 271 311 252 323 Q 232 333 212 323 Q 193 311 192 288 L 192 288 Z M 328 264 Q 329 241 348 229 Q 368 219 388 229 Q 407 241 408 264 Q 407 287 388 299 Q 368 309 348 299 Q 329 287 328 264 L 328 264 Z M 256 208 Q 288 207 304 180 Q 320 152 304 124 Q 288 97 256 96 Q 224 97 208 124 Q 192 152 208 180 Q 224 207 256 208 L 256 208 Z M 176 176 Q 175 144 148 128 Q 120 112 92 128 Q 65 144 64 176 Q 65 208 92 224 Q 120 240 148 224 Q 175 208 176 176 L 176 176 Z M 96 368 Q 128 367 144 340 Q 160 312 144 284 Q 128 257 96 256 Q 64 257 48 284 Q 32 312 48 340 Q 64 367 96 368 L 96 368 Z M 64 512 Q 96 511 112 484 Q 128 456 112 428 Q 96 401 64 400 Q 32 401 16 428 Q 0 456 16 484 Q 32 511 64 512 L 64 512 Z M 208 480 Q 240 479 256 452 Q 272 424 256 396 Q 240 369 208 368 Q 176 369 160 396 Q 144 424 160 452 Q 176 479 208 480 L 208 480 Z M 400 400 Q 399 368 372 352 Q 344 336 316 352 Q 289 368 288 400 Q 289 432 316 448 Q 344 464 372 448 Q 399 432 400 400 L 400 400 Z M 232 344 Q 264 343 280 316 Q 296 288 280 260 Q 264 233 232 232 Q 200 233 184 260 Q 168 288 184 316 Q 200 343 232 344 L 232 344 Z M 424 264 Q 423 232 396 216 Q 368 200 340 216 Q 313 232 312 264 Q 313 296 340 312 Q 368 328 396 312 Q 423 296 424 264 L 424 264 Z" />
</svg>