<svg xmlns="http://www.w3.org/2000/svg" viewBox="0 0 642 514">
  <path d="M 48 16 L 336 16 L 48 16 L 336 16 Q 350 16 359 25 Q 368 34 368 48 L 368 181 L 368 181 Q 376 177 384 173 L 384 48 L 384 48 Q 383 28 370 14 Q 356 1 336 0 L 48 0 L 48 0 Q 28 1 14 14 Q 1 28 0 48 L 0 464 L 0 464 Q 1 484 14 498 Q 28 511 48 512 L 144 512 L 336 512 Q 356 512 369 499 Q 382 486 384 467 Q 376 463 368 459 L 368 464 L 368 464 Q 368 478 359 487 Q 350 496 336 496 L 240 496 L 240 496 L 240 416 L 240 416 Q 239 396 226 382 Q 212 369 192 368 Q 172 369 158 382 Q 145 396 144 416 L 144 496 L 144 496 L 48 496 L 48 496 Q 34 496 25 487 Q 16 478 16 464 L 16 48 L 16 48 Q 16 34 25 25 Q 34 16 48 16 L 48 16 Z M 280 232 L 248 232 L 280 232 L 248 232 Q 226 234 224 256 L 224 288 L 224 288 Q 226 310 248 312 L 280 312 L 280 312 Q 284 312 288 311 Q 290 279 304 251 Q 299 233 280 232 L 280 232 Z M 224 496 L 160 496 L 224 496 L 160 496 L 160 416 L 160 416 Q 160 402 169 393 Q 178 384 192 384 Q 206 384 215 393 Q 224 402 224 416 L 224 496 L 224 496 Z M 104 232 Q 82 234 80 256 L 80 288 L 80 288 Q 82 310 104 312 L 136 312 L 136 312 Q 158 310 160 288 L 160 256 L 160 256 Q 158 234 136 232 L 104 232 L 104 232 Z M 96 256 Q 97 249 104 248 L 136 248 L 136 248 Q 143 249 144 256 L 144 288 L 144 288 Q 143 295 136 296 L 104 296 L 104 296 Q 97 295 96 288 L 96 256 L 96 256 Z M 248 248 L 280 248 L 248 248 L 280 248 Q 287 249 288 256 L 288 288 L 288 288 Q 287 295 280 296 L 248 296 L 248 296 Q 241 295 240 288 L 240 256 L 240 256 Q 241 249 248 248 L 248 248 Z M 104 104 Q 82 106 80 128 L 80 160 L 80 160 Q 82 182 104 184 L 136 184 L 136 184 Q 158 182 160 160 L 160 128 L 160 128 Q 158 106 136 104 L 104 104 L 104 104 Z M 96 128 Q 97 121 104 120 L 136 120 L 136 120 Q 143 121 144 128 L 144 160 L 144 160 Q 143 167 136 168 L 104 168 L 104 168 Q 97 167 96 160 L 96 128 L 96 128 Z M 224 128 L 224 160 L 224 128 L 224 160 Q 226 182 248 184 L 280 184 L 280 184 Q 302 182 304 160 L 304 128 L 304 128 Q 302 106 280 104 L 248 104 L 248 104 Q 226 106 224 128 L 224 128 Z M 248 120 L 280 120 L 248 120 L 280 120 Q 287 121 288 128 L 288 160 L 288 160 Q 287 167 280 168 L 248 168 L 248 168 Q 241 167 240 160 L 240 128 L 240 128 Q 241 121 248 120 L 248 120 Z M 448 208 Q 478 208 504 223 L 504 223 L 504 223 Q 530 238 545 264 Q 560 291 560 320 Q 560 350 545 376 Q 530 402 504 417 Q 478 432 448 432 Q 418 432 392 417 Q 366 402 351 376 Q 336 350 336 320 Q 336 291 351 264 Q 366 238 392 223 Q 418 208 448 208 L 448 208 Z M 448 448 Q 498 447 533 416 L 626 510 L 626 510 Q 632 514 638 510 Q 642 504 638 499 L 544 405 L 544 405 Q 575 370 576 320 Q 575 266 539 230 Q 502 193 448 192 Q 394 193 357 230 Q 321 266 320 320 Q 321 374 357 411 Q 394 447 448 448 L 448 448 Z" />
</svg>