<svg xmlns="http://www.w3.org/2000/svg" viewBox="0 0 488 512">
  <path d="M 176 496 L 64 496 L 176 496 L 64 496 Q 44 495 30 482 Q 17 468 16 448 L 16 64 L 16 64 Q 17 44 30 30 Q 44 17 64 16 L 204 16 L 204 16 Q 206 16 208 16 Q 208 16 208 16 L 208 136 L 208 136 Q 208 153 220 164 Q 231 176 248 176 L 368 176 L 368 176 Q 368 178 368 180 L 368 304 L 368 304 L 384 304 L 384 304 L 384 180 L 384 180 Q 384 160 370 146 L 238 14 L 238 14 Q 224 0 204 0 L 64 0 L 64 0 Q 37 1 19 19 Q 1 37 0 64 L 0 448 L 0 448 Q 1 475 19 493 Q 37 511 64 512 L 176 512 L 176 512 L 176 496 L 176 496 Z M 361 160 L 248 160 L 361 160 L 248 160 Q 226 158 224 136 L 224 23 L 224 23 Q 225 24 227 25 L 359 157 L 359 157 Q 360 159 361 160 L 361 160 Z M 232 400 L 232 480 L 232 400 L 232 480 Q 232 494 241 503 Q 250 512 264 512 L 280 512 L 280 512 Q 294 512 303 503 Q 312 494 312 480 L 312 456 L 312 456 Q 311 449 304 448 L 288 448 L 288 448 Q 281 449 280 456 Q 281 463 288 464 L 296 464 L 296 464 L 296 480 L 296 480 Q 295 495 280 496 L 264 496 L 264 496 Q 249 495 248 480 L 248 400 L 248 400 Q 249 385 264 384 L 280 384 L 280 384 Q 295 385 296 400 L 296 408 L 296 408 Q 297 415 304 416 Q 311 415 312 408 L 312 400 L 312 400 Q 312 386 303 377 Q 294 368 280 368 L 264 368 L 264 368 Q 250 368 241 377 Q 232 386 232 400 L 232 400 Z M 376 376 Q 375 369 368 368 Q 361 369 360 376 L 360 504 L 360 504 Q 361 511 368 512 Q 375 511 376 504 L 376 376 L 376 376 Z M 432 368 Q 425 369 424 376 L 424 440 L 424 440 L 424 504 L 424 504 Q 425 511 432 512 Q 439 511 440 504 L 440 448 L 440 448 L 480 448 L 480 448 Q 487 447 488 440 Q 487 433 480 432 L 440 432 L 440 432 L 440 384 L 440 384 L 480 384 L 480 384 Q 487 383 488 376 Q 487 369 480 368 L 432 368 L 432 368 Z" />
</svg>