<svg xmlns="http://www.w3.org/2000/svg" viewBox="0 0 579 524">
  <path d="M 362 100 Q 361 59 326 38 Q 290 18 254 38 Q 219 59 218 100 Q 219 141 254 162 Q 290 182 326 162 Q 361 141 362 100 L 362 100 Z M 202 100 Q 204 50 246 24 Q 290 0 334 24 Q 376 50 378 100 Q 376 150 334 176 Q 290 200 246 176 Q 204 150 202 100 L 202 100 Z M 194 313 L 194 335 L 194 313 L 194 335 L 194 476 L 194 476 L 178 476 L 178 476 L 178 352 L 178 352 L 178 335 L 178 335 Q 171 337 165 339 Q 163 340 162 340 Q 102 366 81 385 Q 65 397 46 396 Q 27 394 13 379 Q 0 363 2 344 Q 4 325 19 311 Q 50 284 121 253 Q 192 223 290 220 Q 388 223 459 253 Q 530 284 561 311 Q 576 325 578 344 Q 579 363 567 379 Q 553 394 534 396 Q 515 397 499 385 Q 478 366 418 340 Q 410 337 402 335 L 402 352 L 402 352 L 402 476 L 402 476 L 386 476 L 386 476 L 386 335 L 386 335 L 386 313 L 386 313 L 407 320 L 407 320 Q 444 332 470 347 Q 497 362 510 373 Q 520 381 533 380 Q 546 379 555 368 Q 563 358 562 345 Q 561 332 551 323 Q 522 298 453 268 Q 384 239 290 236 Q 196 239 127 268 Q 58 298 30 323 Q 19 332 18 345 Q 17 358 25 369 Q 34 379 47 380 Q 60 381 71 373 Q 83 362 110 347 Q 136 332 173 320 L 194 313 L 194 313 Z M 2 516 Q 3 509 10 508 L 570 508 L 570 508 Q 577 509 578 516 Q 577 523 570 524 L 10 524 L 10 524 Q 3 523 2 516 L 2 516 Z M 82 204 Q 97 205 98 220 Q 97 235 82 236 Q 67 235 66 220 Q 67 205 82 204 L 82 204 Z M 306 348 Q 307 333 322 332 Q 337 333 338 348 Q 337 363 322 364 Q 307 363 306 348 L 306 348 Z M 466 204 Q 481 205 482 220 Q 481 235 466 236 Q 451 235 450 220 Q 451 205 466 204 L 466 204 Z" />
</svg>