<svg xmlns="http://www.w3.org/2000/svg" viewBox="0 0 496 496">
  <path d="M 320 8 Q 321 15 328 16 L 469 16 L 469 16 L 202 282 L 202 282 Q 198 288 202 294 Q 208 298 214 294 L 480 27 L 480 27 L 480 168 L 480 168 Q 481 175 488 176 Q 495 175 496 168 L 496 8 L 496 8 Q 495 1 488 0 L 328 0 L 328 0 Q 321 1 320 8 L 320 8 Z M 56 16 Q 32 17 16 32 L 16 32 L 16 32 Q 1 48 0 72 L 0 440 L 0 440 Q 1 464 16 480 Q 32 495 56 496 L 424 496 L 424 496 Q 448 495 464 480 Q 479 464 480 440 L 480 296 L 480 296 Q 479 289 472 288 Q 465 289 464 296 L 464 440 L 464 440 Q 464 457 452 468 Q 441 480 424 480 L 56 480 L 56 480 Q 39 480 28 468 Q 16 457 16 440 L 16 72 L 16 72 Q 16 55 28 44 Q 39 32 56 32 L 200 32 L 200 32 Q 207 31 208 24 Q 207 17 200 16 L 56 16 L 56 16 Z" />
</svg>