<svg xmlns="http://www.w3.org/2000/svg" viewBox="0 0 644 516">
  <path d="M 307 338 L 162 338 L 307 338 L 162 338 Q 154 338 149 332 Q 145 325 147 318 L 152 299 L 152 299 Q 161 265 183 240 L 170 230 L 170 230 Q 146 258 136 295 L 131 314 L 131 314 Q 127 329 137 341 Q 146 354 162 354 L 314 354 L 314 354 L 314 506 L 314 506 Q 315 513 322 514 Q 329 513 330 506 L 330 356 L 330 356 L 307 338 L 307 338 Z M 223 34 L 218 84 L 223 34 L 218 84 L 233 96 L 233 96 L 240 20 L 240 20 Q 240 19 240 18 Q 240 18 240 18 L 404 18 L 404 18 Q 404 19 404 20 L 422 199 L 422 199 Q 423 206 429 211 Q 476 242 492 299 L 493 301 L 493 301 L 514 318 L 514 318 Q 514 316 513 314 L 508 295 L 508 295 Q 490 232 438 197 L 421 34 L 421 34 L 420 18 L 420 18 L 436 18 L 466 18 Q 473 17 474 10 Q 473 3 466 2 L 420 2 L 178 2 Q 171 3 170 10 Q 171 17 178 18 L 208 18 L 224 18 L 223 34 L 223 34 Z M 15 4 Q 9 0 4 5 Q 0 11 5 16 L 629 512 L 629 512 Q 635 516 640 511 Q 644 505 639 500 L 15 4 L 15 4 Z" />
</svg>