<svg xmlns="http://www.w3.org/2000/svg" viewBox="0 0 488 512">
  <path d="M 95 56 Q 94 34 75 22 Q 56 12 37 22 Q 18 34 17 56 Q 17 79 36 91 Q 56 102 76 91 Q 95 79 95 56 L 95 56 Z M 56 112 Q 56 112 56 112 L 56 112 L 56 112 Q 56 112 56 112 Q 56 112 56 112 Q 56 112 56 112 L 40 112 L 40 112 L 40 432 L 40 432 L 462 432 L 462 432 Q 471 431 472 422 Q 472 419 471 417 L 409 279 L 409 279 Q 407 272 409 266 L 471 127 L 471 127 Q 472 125 472 122 Q 471 113 462 112 L 56 112 L 56 112 Z M 24 102 Q 1 86 0 56 Q 1 32 16 16 Q 32 1 56 0 Q 80 1 96 16 Q 111 32 112 56 Q 111 80 95 96 L 462 96 L 462 96 Q 486 98 488 122 Q 488 128 486 133 L 424 272 L 424 272 L 486 411 L 486 411 Q 488 416 488 422 Q 486 446 462 448 L 40 448 L 40 448 L 40 512 L 40 512 L 24 512 L 24 512 L 24 448 L 24 448 L 24 432 L 24 432 L 24 112 L 24 112 L 24 102 L 24 102 Z" />
</svg>