<svg xmlns="http://www.w3.org/2000/svg" viewBox="0 0 514 514">
  <path d="M 208 16 Q 260 16 304 42 L 304 42 L 304 42 Q 348 67 374 112 Q 400 157 400 208 Q 400 259 374 304 Q 348 349 304 374 Q 260 400 208 400 Q 156 400 112 374 Q 68 349 42 304 Q 16 259 16 208 Q 16 157 42 112 Q 68 67 112 42 Q 156 16 208 16 L 208 16 Z M 208 416 Q 292 414 349 361 L 498 510 L 498 510 Q 504 514 510 510 Q 514 504 510 498 L 361 349 L 361 349 Q 414 292 416 208 Q 414 120 355 61 Q 296 2 208 0 Q 120 2 61 61 Q 2 120 0 208 Q 2 296 61 355 Q 120 414 208 416 L 208 416 Z M 192 104 Q 191 97 184 96 Q 177 97 176 104 L 176 312 L 176 312 Q 177 319 184 320 Q 191 319 192 312 L 192 104 L 192 104 Z M 128 136 Q 127 129 120 128 Q 113 129 112 136 L 112 280 L 112 280 Q 113 287 120 288 Q 127 287 128 280 L 128 136 L 128 136 Z M 256 136 Q 255 129 248 128 Q 241 129 240 136 L 240 280 L 240 280 Q 241 287 248 288 Q 255 287 256 280 L 256 136 L 256 136 Z M 320 168 Q 319 161 312 160 Q 305 161 304 168 L 304 248 L 304 248 Q 305 255 312 256 Q 319 255 320 248 L 320 168 L 320 168 Z" />
</svg>