<svg xmlns="http://www.w3.org/2000/svg" viewBox="0 0 640 480">
  <path d="M 64 16 L 384 16 L 64 16 L 384 16 Q 404 17 418 30 Q 431 44 432 64 L 432 98 L 432 98 Q 440 95 448 96 L 448 64 L 448 64 Q 447 37 429 19 Q 411 1 384 0 L 64 0 L 64 0 Q 37 1 19 19 Q 1 37 0 64 L 0 384 L 0 384 Q 1 411 19 429 Q 37 447 64 448 L 338 448 L 338 448 Q 331 440 325 432 L 64 432 L 64 432 Q 44 431 30 418 Q 17 404 16 384 L 16 64 L 16 64 Q 17 44 30 30 Q 44 17 64 16 L 64 16 Z M 96 72 Q 95 65 88 64 Q 81 65 80 72 L 80 248 L 80 248 Q 81 255 88 256 Q 95 255 96 248 L 96 72 L 96 72 Z M 160 72 Q 159 65 152 64 Q 145 65 144 72 L 144 248 L 144 248 Q 145 255 152 256 Q 159 255 160 248 L 160 72 L 160 72 Z M 446 144 Q 448 144 450 145 Q 474 167 495 192 Q 508 204 520 192 Q 529 181 538 172 Q 542 169 546 172 Q 576 199 600 240 Q 623 280 624 319 Q 624 357 607 388 Q 590 419 561 439 Q 576 418 576 390 Q 575 361 559 335 Q 542 310 522 290 Q 501 271 489 262 Q 480 256 471 262 Q 459 271 438 291 Q 418 310 401 336 Q 385 361 384 390 Q 384 418 400 440 Q 370 420 353 388 Q 336 357 336 319 Q 338 270 371 224 Q 404 178 442 145 Q 443 144 446 144 L 446 144 Z M 480 464 Q 476 464 472 464 Q 440 460 420 440 Q 401 419 400 391 Q 402 355 431 322 Q 460 290 480 276 Q 500 290 529 322 Q 558 355 560 390 Q 559 419 540 440 Q 520 460 488 464 Q 484 464 480 464 L 480 464 Z M 320 319 Q 321 385 363 430 L 363 430 L 363 430 Q 405 474 471 480 Q 475 480 480 480 Q 485 480 489 480 Q 554 474 596 429 Q 638 385 640 319 Q 638 274 613 232 Q 589 189 557 161 Q 542 149 527 160 Q 517 171 508 182 Q 508 182 508 182 Q 508 182 508 182 Q 508 182 508 182 Q 508 182 508 182 Q 508 182 508 182 Q 507 182 507 182 Q 507 182 507 182 Q 507 182 507 182 L 507 182 L 507 182 Q 485 156 460 133 Q 454 128 446 128 Q 438 128 431 133 Q 392 167 358 215 Q 323 263 320 319 L 320 319 Z" />
</svg>