<svg xmlns="http://www.w3.org/2000/svg" viewBox="0 0 384 512">
  <path d="M 117 22 Q 119 16 125 16 Q 130 16 133 22 Q 144 49 183 107 Q 222 166 293 219 Q 256 215 199 231 Q 143 248 71 297 Q 64 302 56 297 Q 50 292 51 284 L 117 22 L 117 22 Z M 148 15 Q 141 1 125 0 Q 107 1 101 19 L 36 280 L 36 280 Q 32 299 48 311 Q 64 321 80 310 Q 167 251 227 240 Q 288 228 317 240 Q 332 245 342 257 Q 352 270 352 284 Q 351 303 338 320 Q 325 335 308 336 L 168 336 L 168 336 Q 161 337 160 344 Q 161 351 168 352 L 308 352 L 308 352 Q 335 350 351 330 Q 367 310 368 284 Q 366 244 330 224 Q 276 191 238 149 Q 200 107 178 70 Q 155 33 148 15 L 148 15 Z M 304 400 Q 318 400 327 409 L 327 409 L 327 409 Q 336 418 336 432 L 336 448 L 336 448 L 48 448 L 48 448 L 48 432 L 48 432 Q 48 418 57 409 Q 66 400 80 400 L 304 400 L 304 400 Z M 80 384 Q 60 385 46 398 L 46 398 L 46 398 Q 33 412 32 432 L 32 448 L 32 448 Q 18 448 9 457 Q 0 466 0 480 Q 0 494 9 503 Q 18 512 32 512 L 352 512 L 352 512 Q 366 512 375 503 Q 384 494 384 480 Q 384 466 375 457 Q 366 448 352 448 L 352 432 L 352 432 Q 351 412 338 398 Q 324 385 304 384 L 80 384 L 80 384 Z M 32 464 L 352 464 L 32 464 L 352 464 Q 367 465 368 480 Q 367 495 352 496 L 32 496 L 32 496 Q 17 495 16 480 Q 17 465 32 464 L 32 464 Z" />
</svg>