<svg xmlns="http://www.w3.org/2000/svg" viewBox="0 0 384 512">
  <path d="M 8 0 Q 1 1 0 8 Q 1 15 8 16 L 32 16 L 32 16 L 32 71 L 32 71 Q 32 108 48 140 Q 64 172 94 194 L 179 256 L 179 256 L 94 318 L 94 318 Q 64 340 48 372 Q 32 404 32 441 L 32 496 L 32 496 L 8 496 L 8 496 Q 1 497 0 504 Q 1 511 8 512 L 376 512 L 376 512 Q 383 511 384 504 Q 383 497 376 496 L 352 496 L 352 496 L 352 441 L 352 441 Q 352 404 336 372 Q 320 340 290 318 L 206 256 L 206 256 L 290 194 L 290 194 Q 320 172 336 140 Q 352 108 352 71 L 352 16 L 352 16 L 376 16 L 376 16 Q 383 15 384 8 Q 383 1 376 0 L 8 0 L 8 0 Z M 336 16 L 336 71 L 336 16 L 336 71 Q 336 101 324 128 L 60 128 L 60 128 Q 48 101 48 71 L 48 16 L 48 16 L 336 16 L 336 16 Z M 315 144 Q 301 165 281 181 L 192 246 L 192 246 L 103 181 L 103 181 Q 83 165 69 144 L 315 144 L 315 144 Z M 192 266 L 281 331 L 192 266 L 281 331 Q 324 364 334 416 L 50 416 L 50 416 Q 60 364 103 331 L 192 266 L 192 266 Z M 48 441 Q 48 436 48 432 L 336 432 L 336 432 Q 336 436 336 441 L 336 496 L 336 496 L 48 496 L 48 496 L 48 441 L 48 441 Z" />
</svg>