<svg xmlns="http://www.w3.org/2000/svg" viewBox="0 0 516 514">
  <path d="M 227 15 Q 229 15 230 16 Q 252 36 271 58 Q 283 69 294 58 Q 302 48 310 40 Q 314 38 318 40 Q 344 65 365 101 Q 386 138 388 174 Q 387 207 373 234 Q 359 261 335 280 Q 346 261 347 239 Q 344 199 315 167 Q 286 135 267 122 Q 259 117 252 122 Q 233 135 204 167 Q 175 199 172 239 Q 173 264 187 284 Q 160 266 144 238 Q 129 209 129 174 Q 130 129 160 87 Q 189 46 223 16 Q 225 15 227 15 L 227 15 Z M 258 306 Q 256 306 254 305 Q 224 303 206 284 Q 187 265 187 239 Q 189 207 215 176 Q 241 147 260 134 Q 278 147 304 176 Q 330 206 332 239 Q 332 264 315 282 Q 297 301 270 305 Q 267 305 264 305 Q 261 306 258 306 L 258 306 Z M 114 174 Q 115 234 154 275 L 154 275 L 154 275 Q 193 316 253 320 Q 256 320 260 320 Q 266 320 271 319 Q 328 313 364 272 Q 401 232 402 174 Q 401 133 378 94 Q 356 56 328 30 Q 314 19 301 30 Q 291 39 283 49 Q 283 49 283 49 Q 283 49 283 49 Q 283 49 283 49 Q 283 49 282 49 Q 282 49 282 49 Q 282 49 282 49 L 282 49 L 282 49 Q 262 26 240 5 Q 234 0 227 0 Q 220 0 214 5 Q 179 35 148 79 Q 116 123 114 174 L 114 174 Z M 13 289 Q 6 286 3 293 Q 0 300 7 303 L 237 400 L 237 400 L 7 497 L 7 497 Q 0 500 3 507 Q 6 514 13 511 L 258 409 L 258 409 L 503 511 L 503 511 Q 510 514 513 507 Q 516 500 509 497 L 279 400 L 279 400 L 509 303 L 509 303 Q 516 300 513 293 Q 510 286 503 289 L 258 391 L 258 391 L 13 289 L 13 289 Z" />
</svg>