<svg xmlns="http://www.w3.org/2000/svg" viewBox="0 0 512 512">
  <path d="M 72 0 Q 65 1 64 8 Q 65 15 72 16 L 96 16 L 96 77 Q 96 123 124 159 L 198 256 L 124 353 Q 96 389 96 435 L 96 496 L 72 496 Q 65 497 64 504 Q 65 511 72 512 L 104 512 L 408 512 L 440 512 Q 447 511 448 504 Q 447 497 440 496 L 416 496 L 416 435 Q 416 389 388 353 L 314 256 L 388 159 Q 416 123 416 77 L 416 16 L 440 16 Q 447 15 448 8 Q 447 1 440 0 L 408 0 L 104 0 L 72 0 L 72 0 Z M 400 16 L 400 77 Q 400 117 375 150 L 298 251 Q 294 256 298 261 L 375 362 Q 400 395 400 435 L 400 496 L 112 496 L 112 435 Q 112 395 137 362 L 214 261 Q 218 256 214 251 L 137 150 Q 112 117 112 77 L 112 16 L 400 16 L 400 16 Z" />
</svg>