<svg xmlns="http://www.w3.org/2000/svg" viewBox="0 0 512 480">
  <path d="M 496 256 Q 495 189 463 135 L 463 135 L 463 135 Q 431 81 377 49 L 377 49 L 377 49 Q 323 17 256 16 Q 189 17 135 49 Q 81 81 49 135 Q 17 189 16 256 Q 17 320 46 373 Q 54 391 41 403 L 26 415 L 26 415 Q 16 424 16 436 Q 16 448 24 456 Q 32 464 44 464 L 132 464 L 468 464 Q 480 464 488 456 Q 496 448 496 436 Q 496 424 486 415 L 472 403 L 472 403 Q 458 391 466 373 Q 495 320 496 256 L 496 256 Z M 512 256 Q 511 325 480 381 Q 477 386 482 391 L 496 403 L 496 403 Q 512 416 512 436 Q 512 455 499 467 Q 487 480 468 480 L 380 480 L 44 480 Q 25 480 13 467 Q 0 455 0 436 Q 0 416 16 403 L 30 391 L 30 391 Q 35 386 32 381 Q 1 325 0 256 Q 1 184 35 127 Q 69 69 127 35 Q 184 1 256 0 Q 328 1 385 35 Q 443 69 477 127 Q 511 184 512 256 L 512 256 Z M 400 256 Q 398 186 347 144 L 300 209 L 300 209 Q 319 228 320 256 Q 320 262 319 268 L 395 293 L 395 293 Q 400 275 400 256 L 400 256 Z M 314 283 Q 299 314 264 320 L 264 400 L 264 400 Q 308 397 341 372 Q 375 347 390 308 L 314 283 L 314 283 Z M 248 320 Q 213 314 198 283 L 122 308 L 122 308 Q 137 347 171 372 Q 204 397 248 400 L 248 320 L 248 320 Z M 112 256 Q 112 275 117 293 L 193 268 L 193 268 Q 192 262 192 256 Q 193 228 212 209 L 203 197 L 203 197 L 165 144 L 165 144 Q 114 186 112 256 L 112 256 Z M 256 192 Q 273 192 287 200 L 334 135 L 334 135 Q 300 113 256 112 Q 212 113 178 135 L 216 187 L 216 187 L 225 200 L 225 200 Q 239 192 256 192 L 256 192 Z M 96 256 Q 96 213 117 176 L 117 176 L 117 176 Q 139 139 176 117 Q 214 96 256 96 Q 298 96 336 117 Q 373 139 395 176 Q 416 213 416 256 Q 416 299 395 336 Q 373 373 336 395 Q 298 416 256 416 Q 214 416 176 395 Q 139 373 117 336 Q 96 299 96 256 L 96 256 Z M 304 256 Q 303 229 280 214 Q 256 202 232 214 Q 209 229 208 256 Q 209 283 232 298 Q 256 310 280 298 Q 303 283 304 256 L 304 256 Z" />
</svg>