<svg xmlns="http://www.w3.org/2000/svg" viewBox="0 0 448 512">
  <path d="M 16 46 Q 16 89 31 128 L 336 128 L 336 128 Q 336 126 336 124 Q 337 89 362 66 L 396 36 L 396 36 Q 400 33 400 27 Q 399 17 388 16 L 32 16 L 32 16 Q 17 17 16 32 L 16 46 L 16 46 Z M 37 144 Q 68 212 134 252 L 195 288 L 195 288 L 428 288 L 428 288 Q 421 263 405 242 L 352 170 L 352 170 Q 343 158 339 144 L 37 144 L 37 144 Z M 431 304 L 222 304 L 431 304 L 222 304 L 251 321 L 251 321 Q 284 341 302 375 Q 320 414 314 456 L 308 491 L 308 491 Q 308 495 312 496 Q 313 496 315 495 L 393 417 L 393 417 Q 431 377 432 322 Q 432 313 431 304 L 431 304 Z M 0 46 L 0 32 L 0 46 L 0 32 Q 0 18 9 9 Q 18 0 32 0 L 389 0 L 389 0 Q 400 0 408 8 Q 416 16 416 28 Q 416 40 407 48 L 373 78 L 373 78 Q 353 96 352 124 Q 352 144 364 160 L 418 232 L 418 232 Q 448 272 448 322 Q 447 384 404 428 L 326 506 L 326 506 Q 320 512 312 512 Q 302 512 296 505 Q 291 498 292 489 L 298 453 L 298 453 Q 304 416 287 382 Q 272 352 243 335 L 126 266 L 126 266 Q 67 231 34 173 Q 1 115 0 46 L 0 46 Z" />
</svg>