<svg xmlns="http://www.w3.org/2000/svg" viewBox="0 0 578 512">
  <path d="M 272 16 Q 307 16 336 33 L 336 33 L 336 33 Q 365 50 383 80 Q 400 110 400 144 Q 400 178 383 208 Q 365 238 336 255 Q 307 272 272 272 Q 237 272 208 255 Q 179 238 161 208 Q 144 178 144 144 Q 144 110 161 80 Q 179 50 208 33 Q 237 16 272 16 L 272 16 Z M 272 288 Q 311 288 344 269 L 344 269 L 344 269 Q 377 250 397 216 Q 416 182 416 144 Q 416 106 397 72 Q 377 38 344 19 Q 311 0 272 0 Q 233 0 200 19 Q 167 38 147 72 Q 128 106 128 144 Q 128 182 147 216 Q 167 250 200 269 Q 233 288 272 288 L 272 288 Z M 244 94 Q 257 88 272 88 Q 289 89 306 93 Q 313 94 316 87 Q 317 80 310 78 Q 296 74 280 73 L 280 56 L 280 56 Q 279 49 272 48 Q 265 49 264 56 L 264 72 L 264 72 Q 250 73 237 80 Q 217 88 216 113 Q 219 132 236 139 Q 251 146 267 150 Q 268 150 269 150 L 270 151 L 270 151 Q 289 155 301 161 Q 312 167 312 176 Q 312 189 300 195 Q 287 200 272 200 Q 253 199 233 192 Q 233 192 233 192 Q 233 192 233 192 Q 233 192 233 192 Q 231 191 229 191 Q 228 190 226 190 Q 219 188 217 195 Q 215 202 222 205 Q 223 205 225 206 Q 227 206 228 207 Q 228 207 228 207 Q 228 207 229 207 Q 245 213 264 215 L 264 233 L 264 233 Q 265 241 272 241 Q 279 241 280 233 L 280 216 L 280 216 Q 294 215 308 209 Q 327 200 328 176 Q 326 155 309 147 Q 293 139 275 135 L 274 135 L 274 135 Q 256 131 244 125 Q 232 119 232 111 Q 232 100 244 94 L 244 94 Z M 522 341 Q 541 329 555 346 Q 567 365 550 379 L 424 473 L 424 473 Q 392 496 353 496 L 8 496 L 8 496 Q 1 497 0 504 Q 1 511 8 512 L 353 512 L 353 512 Q 397 512 433 486 L 560 392 L 560 392 Q 573 382 576 366 Q 578 350 568 336 Q 558 323 542 320 Q 526 318 512 328 L 395 414 L 395 414 Q 393 416 390 416 L 268 416 L 268 416 Q 257 415 256 404 Q 257 393 268 392 L 348 392 L 348 392 Q 363 392 373 381 Q 384 371 384 356 Q 384 341 373 331 Q 363 320 348 320 L 194 320 L 194 320 Q 149 320 114 348 L 71 382 L 71 382 Q 69 384 66 384 L 8 384 L 8 384 Q 1 385 0 392 Q 1 399 8 400 L 66 400 L 66 400 Q 74 400 81 395 L 124 361 L 124 361 Q 154 336 194 336 L 348 336 L 348 336 Q 366 338 368 356 Q 366 374 348 376 L 268 376 L 268 376 Q 256 376 248 384 Q 240 392 240 404 Q 240 416 248 424 Q 256 432 268 432 L 390 432 L 390 432 Q 398 432 404 427 L 522 341 L 522 341 Z" />
</svg>