<svg xmlns="http://www.w3.org/2000/svg" viewBox="0 0 646 432">
  <path d="M 286 396 Q 270 406 260 411 Q 217 432 173 424 Q 129 417 96 386 Q 96 386 96 386 L 74 397 L 74 397 Q 55 406 37 400 Q 19 393 9 375 Q 0 357 6 339 Q 13 321 31 311 L 53 300 L 53 300 Q 53 300 53 300 Q 53 300 53 300 Q 48 255 69 215 Q 89 175 132 153 Q 159 140 232 113 Q 305 86 387 57 Q 470 27 526 8 Q 550 0 571 9 Q 593 18 604 39 L 635 101 L 635 101 Q 646 123 640 146 Q 634 168 614 183 Q 578 206 528 240 Q 523 233 519 227 Q 569 193 605 169 Q 620 159 624 142 Q 629 125 621 108 L 590 47 L 590 47 Q 581 30 565 24 Q 549 17 531 23 Q 490 37 432 58 Q 373 79 313 101 Q 252 123 205 141 Q 158 159 139 168 Q 91 193 75 242 Q 58 290 82 339 Q 107 387 155 403 Q 204 420 253 397 Q 262 392 277 383 Q 281 390 286 396 L 286 396 Z M 56 316 Q 56 316 56 316 L 56 316 L 56 316 Q 56 316 56 316 L 38 325 L 38 325 Q 26 332 22 344 Q 18 356 23 368 Q 30 380 42 384 Q 54 388 66 383 L 85 373 L 85 373 Q 85 373 85 373 Q 85 373 85 373 Q 75 361 67 346 Q 60 331 56 316 L 56 316 Z M 500 314 Q 500 288 487 266 L 487 266 L 487 266 Q 474 244 452 231 Q 429 218 404 218 Q 379 218 356 231 Q 334 244 321 266 Q 308 288 308 314 Q 308 340 321 362 Q 334 384 356 397 Q 379 410 404 410 Q 429 410 452 397 Q 474 384 487 362 Q 500 340 500 314 L 500 314 Z M 292 314 Q 292 284 307 258 L 307 258 L 307 258 Q 322 232 348 217 Q 374 202 404 202 Q 434 202 460 217 Q 486 232 501 258 Q 516 284 516 314 Q 516 344 501 370 Q 486 396 460 411 Q 434 426 404 426 Q 374 426 348 411 Q 322 396 307 370 Q 292 344 292 314 L 292 314 Z M 428 314 Q 426 292 404 290 Q 382 292 380 314 Q 382 336 404 338 Q 426 336 428 314 L 428 314 Z M 364 314 Q 365 291 384 279 Q 404 269 424 279 Q 443 291 444 314 Q 443 337 424 349 Q 404 359 384 349 Q 365 337 364 314 L 364 314 Z" />
</svg>