<svg xmlns="http://www.w3.org/2000/svg" viewBox="0 0 512 512">
  <path d="M 209.57513 52.614853 Q 183.04663 28.739206 149.44386 28.739206 L 149.44386 28.739206 Q 114.956825 28.739206 89.31261 54.38342 Q 81.35406 61.457687 76.04836 71.1848 Q 57.478413 100.36615 30.06563 122.47323 Q 27.41278 125.126076 23.875648 127.77893 Q 7.074266 145.4646 3.537133 168.45596 Q 0 190.56303 10.611399 211.78584 Q 18.569948 227.70294 20.338514 244.50432 L 20.338514 276.3385 Q 20.338514 296.67703 34.487045 310.82556 L 57.478413 334.7012 Q 71.626945 348.84973 71.626945 369.18826 L 71.626945 380.68393 Q 71.626945 384.22107 72.51122 387.7582 L 79.585495 381.5682 Q 84.00691 376.2625 85.775475 370.07254 L 85.775475 369.18826 Q 85.775475 342.65976 67.20553 324.0898 L 44.21416 301.09845 Q 34.487045 290.48706 33.602764 276.3385 L 33.602764 244.50432 Q 31.834196 221.51295 22.991364 205.59586 Q 15.032815 188.79448 17.685665 170.22452 Q 20.338514 151.65457 34.487045 137.50604 Q 36.25561 135.73747 38.908463 133.08463 Q 68.08981 110.09326 88.42832 78.25906 Q 92.84974 70.30052 99.03973 64.110535 Q 121.146805 42.887737 150.32816 42.887737 Q 178.62521 42.887737 200.7323 64.110535 L 201.61658 64.99482 Q 205.15372 58.804836 209.57513 52.614853 L 209.57513 52.614853 Z M 495.1986 149.00172 Q 485.4715 191.44733 490.7772 233.89291 Q 490.7772 237.43005 490.7772 240.96718 Q 490.7772 264.84283 477.51294 282.5285 Q 464.24872 300.21417 443.0259 308.1727 Q 422.68738 313.47842 403.23315 330.2798 L 377.58896 355.924 Q 364.3247 368.304 347.52332 368.304 L 309.49915 368.304 Q 280.31778 369.18826 259.095 389.52676 L 250.25215 398.3696 Q 236.98792 410.74957 220.18652 410.74957 L 149.44386 410.74957 Q 144.13817 410.74957 139.71675 411.63385 L 295.35062 255.11572 L 391.7375 255.11572 Q 397.92746 254.23143 398.81174 248.04146 Q 397.92746 241.85147 391.7375 240.96718 L 309.49915 240.96718 L 397.04318 154.30743 Q 400.58032 149.00172 397.04318 143.69603 Q 391.7375 140.15889 386.4318 143.69603 L 243.17789 287.8342 L 243.17789 205.59586 Q 242.29361 199.40587 236.10362 198.52159 Q 229.91365 199.40587 229.02936 205.59586 L 229.02936 301.98273 L 129.10535 401.90674 Q 129.98964 396.60104 129.98964 391.29535 L 129.98964 321.43695 Q 129.98964 303.75128 142.3696 291.37134 L 152.09673 281.64423 Q 172.43523 260.42142 172.43523 232.12436 L 172.43523 194.10017 Q 172.43523 176.4145 184.8152 164.03455 L 210.45941 138.39034 Q 227.26079 118.05181 232.5665 97.713295 Q 240.52504 76.4905 258.2107 63.226254 Q 275.89636 50.846287 299.77203 49.962 Q 303.30914 49.962 307.73056 50.846287 Q 349.29187 55.267704 391.7375 45.54059 Q 402.34888 42.887737 412.96027 42.887737 Q 449.21588 43.772022 473.09152 67.64767 Q 496.9672 91.523315 497.85147 127.77893 Q 497.85147 139.27461 495.1986 149.00172 L 495.1986 149.00172 Z M 61.015545 469.11227 Q 57.478413 474.41797 61.015545 479.72366 Q 66.32124 483.2608 71.626945 479.72366 L 109.65112 441.6995 Q 125.56822 424.8981 149.44386 424.8981 L 220.18652 424.8981 Q 243.17789 424.8981 259.97928 408.0967 L 268.8221 399.25388 Q 285.62347 382.4525 309.49915 382.4525 L 347.52332 382.4525 Q 370.51468 382.4525 387.31607 365.65112 L 412.96027 340.0069 Q 427.9931 326.74265 447.44733 321.43695 Q 473.09152 312.59412 489.00864 290.48706 Q 504.04144 269.26425 504.92572 240.96718 Q 504.92572 236.54576 504.92572 232.12436 Q 499.62003 191.44733 509.34714 152.53886 Q 512 141.04318 512 127.77893 Q 511.11572 85.333336 482.81866 57.92055 Q 455.40588 29.62349 412.96027 28.739206 Q 399.696 28.739206 388.20035 32.276337 Q 349.29187 41.11917 308.61487 36.697754 Q 304.19345 35.813473 299.77203 35.813473 Q 271.47495 36.697754 250.25215 51.73057 Q 228.14508 67.64767 219.30225 93.291885 Q 213.99655 112.74612 200.7323 127.77893 L 175.08809 153.42314 Q 158.2867 170.22452 158.2867 194.10017 L 158.2867 232.12436 Q 158.2867 255.11572 141.48532 271.91708 L 132.64249 280.75992 Q 116.72539 297.5613 115.8411 321.43695 L 115.8411 391.29535 Q 115.8411 415.171 99.924 431.97235 L 61.015545 469.11227 L 61.015545 469.11227 Z" />
</svg>