<svg xmlns="http://www.w3.org/2000/svg" viewBox="0 0 512 512">
  <path d="M 158.38132 414.38132 Q 150.41245 411.393 143.43968 416.37354 Q 126.50584 429.32297 92.63813 445.2607 Q 57.77432 462.19455 17.92996 463.19067 L 17.92996 463.19067 L 17.92996 463.19067 L 17.92996 463.19067 L 17.92996 463.19067 L 18.92607 463.19067 Q 18.92607 462.19455 19.922178 461.19846 Q 21.914396 459.20624 24.902723 455.2218 L 12.949416 445.2607 L 24.902723 455.2218 Q 32.871593 446.2568 41.836575 431.3152 Q 59.766537 403.42413 65.74319 361.58755 Q 65.74319 354.61478 61.758755 349.63425 Q 18.92607 301.821 17.92996 240.06226 Q 19.922178 160.37354 86.661476 105.58755 Q 153.40077 50.801556 256.9961 48.809338 Q 360.59143 50.801556 427.33075 105.58755 Q 494.07004 160.37354 496.06226 240.06226 Q 494.07004 319.75098 427.33075 374.53696 Q 360.59143 429.32297 256.9961 431.3152 Q 204.20233 431.3152 158.38132 414.38132 L 158.38132 414.38132 Z M 6.9727626 452.23346 L 6.9727626 452.23346 L 6.9727626 452.23346 L 6.9727626 452.23346 Q 0 459.20624 2.9883268 469.16733 Q 7.9688716 479.12842 17.92996 479.12842 Q 61.758755 477.1362 99.61089 460.20233 Q 134.4747 443.2685 153.40077 429.32297 Q 201.214 447.25293 256.9961 447.25293 Q 328.71594 446.2568 385.49417 419.36188 Q 443.2685 391.47083 477.1362 344.6537 Q 511.0039 297.83658 512 240.06226 Q 511.0039 182.28793 477.1362 135.47081 Q 443.2685 88.653694 385.49417 60.762646 Q 328.71594 33.867702 256.9961 32.871593 Q 185.27626 33.867702 128.49805 60.762646 Q 70.72373 88.653694 36.85603 135.47081 Q 2.9883268 182.28793 1.9922179 240.06226 Q 2.9883268 308.79376 49.805447 360.59143 Q 44.8249 397.44748 27.89105 423.3463 Q 19.922178 437.29184 12.949416 444.2646 Q 9.961089 448.24902 7.9688716 450.24124 Q 7.9688716 451.23737 6.9727626 451.23737 Q 6.9727626 451.23737 6.9727626 452.23346 L 6.9727626 452.23346 L 6.9727626 452.23346 L 6.9727626 452.23346 Z M 113.55642 215.15953 Q 113.55642 208.18677 120.52918 204.20233 Q 127.501945 200.2179 137.46303 200.2179 Q 150.41245 200.2179 162.36575 204.20233 Q 169.33852 205.19844 172.32684 198.22568 Q 173.32295 191.25291 166.35019 188.26459 Q 152.40466 185.27626 137.46303 184.28015 Q 124.51362 184.28015 112.56031 190.2568 Q 98.614784 197.22957 97.618675 215.15953 Q 98.614784 231.09727 111.5642 238.07004 Q 121.52529 243.05058 132.48248 246.03891 Q 133.47859 246.03891 134.4747 247.03502 L 135.47081 247.03502 Q 147.42412 250.02335 155.39299 255.00389 Q 161.36964 257.99222 161.36964 263.96887 Q 161.36964 273.92996 157.38521 275.92218 Q 153.40077 278.9105 144.43579 278.9105 Q 123.51751 277.9144 107.579765 271.93774 Q 100.607 270.94162 97.618675 277.9144 Q 95.62646 284.88715 102.59922 287.8755 Q 119.53307 293.85214 144.43579 294.84824 Q 156.3891 294.84824 167.3463 287.8755 Q 177.30739 279.90662 177.30739 263.96887 Q 176.31128 248.03113 163.36186 241.05836 Q 152.40466 235.08171 139.45525 232.09338 L 139.45525 232.09338 Q 127.501945 228.10895 119.53307 224.12451 Q 113.55642 220.14008 113.55642 215.15953 L 113.55642 215.15953 Z M 352.62256 215.15953 Q 352.62256 208.18677 359.59534 204.20233 Q 366.56808 200.2179 376.52917 200.2179 Q 386.49026 200.2179 398.44357 204.20233 Q 405.41635 205.19844 408.40466 198.22568 Q 409.4008 191.25291 402.428 188.26459 Q 390.4747 185.27626 376.52917 184.28015 Q 363.57977 184.28015 351.62646 190.2568 Q 337.68094 197.22957 336.6848 215.15953 Q 337.68094 231.09727 350.63034 238.07004 Q 360.59143 243.05058 371.54865 246.03891 Q 372.54474 246.03891 373.54086 246.03891 L 374.53696 247.03502 Q 386.49026 250.02335 394.45914 254.00778 Q 400.4358 257.99222 400.4358 263.96887 Q 400.4358 271.93774 394.45914 275.92218 Q 386.49026 279.90662 376.52917 279.90662 Q 364.57587 278.9105 351.62646 273.92996 Q 351.62646 273.92996 350.63034 273.92996 Q 348.63812 272.93384 347.64203 271.93774 Q 339.67316 270.94162 336.6848 276.91827 Q 335.68872 284.88715 342.66147 287.8755 Q 343.6576 287.8755 344.6537 287.8755 Q 345.6498 288.87158 346.6459 288.87158 L 346.6459 288.87158 Q 359.59534 293.85214 376.52917 295.84436 Q 390.4747 295.84436 402.428 288.87158 Q 415.37744 281.89883 416.37354 263.96887 Q 415.37744 248.03113 402.428 241.05836 Q 391.47083 234.0856 378.5214 231.09727 L 378.5214 231.09727 Q 366.56808 228.10895 358.5992 224.12451 Q 352.62256 220.14008 352.62256 215.15953 L 352.62256 215.15953 Z M 207.19066 184.28015 Q 201.214 186.27237 201.214 192.24902 L 201.214 287.8755 Q 202.21011 294.84824 209.18288 295.84436 Q 216.15564 294.84824 217.15175 287.8755 L 217.15175 216.15564 L 251.01945 260.98053 Q 253.01167 263.96887 256.9961 263.96887 Q 260.98053 263.96887 262.97275 260.98053 L 296.84045 216.15564 L 296.84045 287.8755 Q 297.83658 294.84824 304.80933 295.84436 Q 311.7821 294.84824 312.7782 287.8755 L 312.7782 192.24902 Q 312.7782 186.27237 307.79767 184.28015 Q 301.821 183.28404 298.83267 187.26848 L 256.9961 243.05058 L 215.15953 187.26848 Q 212.1712 183.28404 207.19066 184.28015 L 207.19066 184.28015 Z" />
</svg>