<svg xmlns="http://www.w3.org/2000/svg" viewBox="0 0 578 515">
  <path d="M 176 96 L 112 96 L 176 96 L 112 96 Q 116 62 140 39 Q 164 17 199 16 L 249 16 L 249 16 Q 284 17 308 39 Q 332 62 336 96 L 272 96 L 272 96 Q 255 96 244 84 Q 232 73 232 56 Q 231 49 224 48 Q 217 49 216 56 Q 216 73 204 84 Q 193 96 176 96 L 176 96 Z M 224 85 Q 240 111 272 112 L 336 112 L 336 112 L 336 128 L 336 128 L 335 144 L 335 144 Q 332 182 309 209 Q 274 177 227 176 L 221 176 L 221 176 Q 174 177 140 209 Q 116 182 113 144 L 112 128 L 112 128 L 112 112 L 112 112 L 176 112 L 176 112 Q 208 111 224 85 L 224 85 Z M 297 221 Q 267 247 224 248 Q 181 247 151 221 Q 180 193 221 192 L 227 192 L 227 192 Q 268 193 297 221 L 297 221 Z M 83 195 L 98 154 L 83 195 L 98 154 Q 105 202 140 232 Q 175 263 224 264 Q 273 263 308 232 Q 343 202 350 154 L 365 195 L 365 195 Q 368 203 368 211 Q 367 240 342 252 L 335 255 L 335 255 Q 329 258 331 265 L 333 272 L 333 272 Q 336 279 336 288 Q 336 308 322 322 Q 308 335 288 336 Q 280 336 273 334 L 266 331 L 266 331 Q 259 330 256 335 L 253 342 L 253 342 Q 244 359 224 360 Q 204 359 195 342 L 192 335 L 192 335 Q 189 330 182 331 L 176 334 L 176 334 Q 168 336 160 336 Q 140 335 126 322 Q 113 308 112 288 Q 112 279 115 272 L 117 265 L 117 265 Q 119 258 113 255 L 106 252 L 106 252 Q 82 240 80 211 Q 80 203 83 195 L 83 195 Z M 199 0 Q 155 1 126 30 L 126 30 L 126 30 Q 97 59 96 103 Q 96 112 93 121 L 68 190 L 68 190 Q 64 200 64 211 Q 66 250 100 267 Q 96 277 96 288 Q 97 315 115 333 Q 133 351 160 352 Q 171 352 181 349 Q 194 375 224 376 Q 254 375 267 349 Q 277 352 288 352 Q 315 351 333 333 Q 351 315 352 288 Q 352 277 348 267 Q 382 250 384 211 Q 384 200 380 190 L 355 121 L 355 121 Q 352 112 352 103 Q 351 59 322 30 Q 293 1 249 0 L 199 0 L 199 0 Z M 476 360 Q 481 368 490 368 L 560 368 L 560 368 L 400 496 L 400 496 L 452 391 L 452 391 Q 456 383 452 376 Q 447 368 438 368 L 368 368 L 368 368 L 528 240 L 528 240 L 476 345 L 476 345 Q 472 353 476 360 L 476 360 Z M 498 336 L 542 247 L 498 336 L 542 247 Q 547 236 538 228 Q 528 221 518 227 L 358 356 L 358 356 Q 350 363 353 373 Q 357 383 368 384 L 420 384 L 438 384 L 430 400 L 430 400 L 386 489 L 386 489 Q 381 500 390 508 Q 400 515 410 509 L 570 381 L 570 381 Q 578 373 575 363 Q 571 353 560 352 L 508 352 L 490 352 L 498 336 L 498 336 Z M 0 481 Q 0 494 9 503 L 9 503 L 9 503 Q 18 512 31 512 L 355 512 L 355 512 Q 352 504 352 496 L 31 496 L 31 496 Q 17 495 16 481 Q 16 440 37 407 Q 57 373 91 354 Q 85 348 80 342 Q 44 363 22 400 Q 1 436 0 481 L 0 481 Z" />
</svg>