<svg xmlns="http://www.w3.org/2000/svg" viewBox="0 0 512 512">
  <path d="M 32 98.4 L 13.6 154.4 Q 12.8 156 12.8 156.8 Q 13.6 165.6 22.4 166.4 L 99.2 166.4 L 118.4 89.6 L 44 89.6 Q 35.2 89.6 32 98.4 L 32 98.4 Z M 131.2 89.6 L 112 166.4 L 224 166.4 L 224 89.6 L 131.2 89.6 L 131.2 89.6 Z M 236.8 89.6 L 236.8 166.4 L 300.8 166.4 Q 295.2 172.8 289.6 179.2 L 22.4 179.2 Q 12.8 179.2 6.4 172.8 Q 0 166.4 0 157.6 Q 0 153.6 0.8 150.4 L 20 94.4 Q 26.4 77.6 44 76.8 L 416.8 76.8 Q 434.4 77.6 440.8 94.4 L 460 150.4 Q 460.8 153.6 460.8 157.6 Q 460.8 157.6 460.8 158.4 Q 460.8 159.2 460.8 159.2 Q 456 155.2 450.4 153.6 Q 448.8 152.8 447.2 152 L 428.8 98.4 Q 425.6 90.4 416.8 89.6 L 342.4 89.6 L 352 128 Q 345.6 128.8 340 131.2 L 329.6 89.6 L 236.8 89.6 L 236.8 89.6 Z M 83.2 384 L 251.2 384 Q 255.2 390.4 260 396.8 L 89.6 396.8 L 89.6 428.8 Q 88.8 434.4 83.2 435.2 Q 77.6 434.4 76.8 428.8 L 76.8 396.8 L 57.6 396.8 Q 52 396.8 51.2 391.2 L 32.8 262.4 L 6.4 262.4 Q 0.8 261.6 0 256 Q 0.8 250.4 6.4 249.6 L 31.2 249.6 L 25.6 212 Q 25.6 206.4 31.2 204.8 Q 36.8 204.8 38.4 210.4 L 44.8 255.2 L 44.8 255.2 L 63.2 384 L 83.2 384 L 83.2 384 Z M 407.2 216 Q 401.6 215.2 397.6 211.2 Q 377.6 187.2 355.2 166.4 Q 316 202.4 292.8 240 Q 269.6 279.2 268.8 307.2 Q 269.6 356 302.4 388.8 Q 334.4 420.8 384 422.4 Q 432.8 420.8 465.6 388.8 Q 497.6 356 499.2 307.2 Q 498.4 284.8 481.6 249.6 Q 464 216 436 188.8 Q 426.4 199.2 416.8 210.4 Q 413.6 215.2 407.2 215.2 L 407.2 216 Z M 398.4 192.8 Q 403.2 197.6 407.2 203.2 Q 408 201.6 408.8 200.8 Q 412 196.8 415.2 192.8 Q 421.6 185.6 428 179.2 Q 436 172.8 444 179.2 Q 474.4 208 492.8 244 Q 501.6 261.6 506.4 278.4 Q 512 295.2 512 307.2 Q 510.4 361.6 474.4 397.6 Q 438.4 433.6 384 435.2 Q 328.8 433.6 292.8 397.6 Q 257.6 361.6 256 307.2 Q 256.8 273.6 281.6 233.6 Q 306.4 193.6 347.2 156.8 Q 350.4 153.6 355.2 153.6 Q 359.2 153.6 363.2 156.8 Q 381.6 173.6 398.4 192.8 L 398.4 192.8 Z M 353.6 230.4 Q 356 230.4 358.4 232.8 Q 359.2 233.6 360 235.2 Q 364 240 371.2 249.6 Q 378.4 258.4 387.2 269.6 L 404.8 292 L 408 296.8 L 435.2 265.6 Q 436.8 263.2 440 263.2 Q 443.2 263.2 444.8 265.6 Q 448.8 271.2 451.2 276.8 Q 451.2 276.8 452 276.8 L 452 276.8 L 452 277.6 Q 464.8 301.6 459.2 328 Q 454.4 353.6 432 370.4 L 432 370.4 L 432 370.4 Q 410.4 384.8 384.8 384.8 Q 352 384 330.4 364.8 Q 308 344.8 307.2 309.6 Q 307.2 292 317.6 274.4 Q 328 256.8 348 232.8 Q 350.4 230.4 352.8 230.4 L 353.6 230.4 Z M 408 306.4 L 403.2 310.4 L 403.2 310.4 L 403.2 310.4 L 403.2 310.4 L 403.2 310.4 L 402.4 309.6 L 400.8 308 L 395.2 300 L 376.8 277.6 Q 368.8 266.4 361.6 257.6 Q 356.8 251.2 353.6 247.2 Q 337.6 266.4 329.6 280.8 Q 320 296 320 308.8 Q 320.8 339.2 339.2 355.2 Q 356.8 371.2 385.6 371.2 Q 407.2 372 424.8 359.2 Q 442.4 346.4 447.2 324.8 Q 451.2 304 440.8 283.2 L 440.8 282.4 L 440.8 282.4 Q 440 282.4 440 281.6 Q 439.2 280.8 439.2 280 L 412.8 310.4 Q 411.2 312.8 408 312.8 Q 404.8 312.8 403.2 310.4 L 408 306.4 L 408 306.4 Z" />
</svg>