<svg xmlns="http://www.w3.org/2000/svg" viewBox="0 0 576 512">
  <path d="M 8 0 Q 1 1 0 8 Q 1 15 8 16 L 32 16 L 32 16 L 32 71 L 32 71 Q 32 108 48 140 Q 64 172 94 194 L 179 256 L 179 256 L 94 318 L 94 318 Q 64 340 48 372 Q 32 404 32 441 L 32 496 L 32 496 L 8 496 L 8 496 Q 1 497 0 504 Q 1 511 8 512 L 331 512 L 331 512 Q 320 505 311 496 L 48 496 L 48 496 L 48 441 L 48 441 Q 48 408 63 379 Q 77 351 103 331 L 192 266 L 192 266 L 263 318 L 263 318 Q 265 310 269 303 L 206 256 L 206 256 L 290 194 L 290 194 Q 320 172 336 140 Q 352 108 352 71 L 352 16 L 352 16 L 376 16 L 376 16 Q 383 15 384 8 Q 383 1 376 0 L 8 0 L 8 0 Z M 336 16 L 336 71 L 336 16 L 336 71 Q 336 104 321 133 Q 307 161 281 181 L 192 246 L 192 246 L 103 181 L 103 181 Q 77 161 63 133 Q 48 104 48 71 L 48 16 L 48 16 L 336 16 L 336 16 Z M 432 240 Q 467 240 496 257 L 496 257 L 496 257 Q 525 274 543 304 Q 560 334 560 368 Q 560 402 543 432 Q 525 462 496 479 Q 467 496 432 496 Q 397 496 368 479 Q 339 462 321 432 Q 304 402 304 368 Q 304 334 321 304 Q 339 274 368 257 Q 397 240 432 240 L 432 240 Z M 432 512 Q 471 512 504 493 L 504 493 L 504 493 Q 537 474 557 440 Q 576 406 576 368 Q 576 330 557 296 Q 537 262 504 243 Q 471 224 432 224 Q 393 224 360 243 Q 327 262 307 296 Q 288 330 288 368 Q 288 406 307 440 Q 327 474 360 493 Q 393 512 432 512 L 432 512 Z M 432 288 Q 425 289 424 296 L 424 368 L 424 368 Q 425 375 432 376 L 488 376 L 488 376 Q 495 375 496 368 Q 495 361 488 360 L 440 360 L 440 360 L 440 296 L 440 296 Q 439 289 432 288 L 432 288 Z" />
</svg>