<svg xmlns="http://www.w3.org/2000/svg" viewBox="0 0 470 521">
  <path d="M 59 73 Q 60 46 83 31 Q 107 19 131 31 Q 154 46 155 73 Q 154 100 131 115 Q 107 127 83 115 Q 60 100 59 73 L 59 73 Z M 171 73 Q 170 37 139 18 Q 107 0 75 18 Q 44 37 43 73 Q 44 109 75 128 Q 107 146 139 128 Q 170 109 171 73 L 171 73 Z M 21 244 Q 24 218 41 202 L 41 202 L 41 202 Q 59 186 85 185 L 129 185 L 129 185 Q 139 185 147 188 Q 148 179 150 172 Q 140 169 130 169 L 85 169 L 85 169 Q 53 170 31 190 Q 8 211 5 242 L 1 292 L 1 292 Q 0 312 9 328 Q 18 345 35 354 L 35 489 L 35 489 Q 35 503 44 512 Q 53 521 67 521 Q 81 521 90 512 Q 99 503 99 489 L 99 361 L 99 361 L 115 361 L 115 361 L 115 489 L 115 489 Q 115 503 124 512 Q 133 521 147 521 Q 151 521 155 520 L 155 503 L 155 503 Q 151 505 147 505 Q 132 504 131 489 L 131 361 L 131 361 L 139 361 L 139 361 L 139 345 L 139 345 L 123 345 L 65 345 Q 43 344 29 330 Q 16 315 17 293 L 21 244 L 21 244 Z M 323 521 Q 337 521 346 512 L 346 512 L 346 512 Q 355 503 355 489 L 355 361 L 355 361 L 371 361 L 371 361 L 371 489 L 371 489 Q 371 503 380 512 Q 389 521 403 521 Q 417 521 426 512 Q 435 503 435 489 L 435 354 L 435 354 Q 470 334 469 292 L 465 242 L 465 242 Q 462 211 440 190 Q 417 170 385 169 L 341 169 L 341 169 Q 330 169 320 172 Q 322 179 323 188 Q 331 185 341 185 L 385 185 L 385 185 Q 411 186 429 202 Q 447 218 449 244 L 453 293 L 453 293 Q 455 315 441 330 Q 427 344 406 345 L 379 345 L 331 345 L 331 361 L 331 361 L 339 361 L 339 361 L 339 489 L 339 489 Q 338 504 323 505 Q 319 505 315 503 L 315 520 L 315 520 Q 319 521 323 521 L 323 521 Z M 65 361 L 83 361 L 65 361 L 83 361 L 83 489 L 83 489 Q 82 504 67 505 Q 52 504 51 489 L 51 360 L 51 360 Q 58 361 65 361 L 65 361 Z M 315 73 Q 316 46 339 31 Q 363 19 387 31 Q 410 46 411 73 Q 410 100 387 115 Q 363 127 339 115 Q 316 100 315 73 L 315 73 Z M 427 73 Q 426 37 395 18 Q 363 0 331 18 Q 300 37 299 73 Q 300 109 331 128 Q 363 146 395 128 Q 426 109 427 73 L 427 73 Z M 419 360 L 419 489 L 419 360 L 419 489 Q 418 504 403 505 Q 388 504 387 489 L 387 361 L 387 361 L 405 361 L 405 361 Q 412 361 419 360 L 419 360 Z M 195 193 Q 196 170 215 158 Q 235 148 255 158 Q 274 170 275 193 Q 274 216 255 228 Q 235 238 215 228 Q 196 216 195 193 L 195 193 Z M 291 193 Q 290 161 263 145 Q 235 129 207 145 Q 180 161 179 193 Q 180 225 207 241 Q 235 257 263 241 Q 290 225 291 193 L 291 193 Z M 235 281 Q 262 282 280 300 L 280 300 L 280 300 Q 298 318 299 345 L 299 377 L 299 377 Q 299 391 290 400 Q 281 409 267 409 L 203 409 L 203 409 Q 189 409 180 400 Q 171 391 171 377 L 171 345 L 171 345 Q 172 318 190 300 Q 208 282 235 281 L 235 281 Z M 155 345 L 155 377 L 155 345 L 155 377 Q 157 410 187 422 L 187 513 L 187 513 Q 188 520 195 521 Q 202 520 203 513 L 203 425 L 203 425 L 267 425 L 267 425 L 267 513 L 267 513 Q 268 520 275 521 Q 282 520 283 513 L 283 422 L 283 422 Q 313 410 315 377 L 315 345 L 315 345 Q 314 311 292 288 Q 269 266 235 265 Q 201 266 178 288 Q 156 311 155 345 L 155 345 Z" />
</svg>