<svg xmlns="http://www.w3.org/2000/svg" viewBox="0 0 384 512">
  <path d="M 64 496 Q 44 495 30 482 L 30 482 L 30 482 Q 17 468 16 448 L 16 64 L 16 64 Q 17 44 30 30 Q 44 17 64 16 L 204 16 L 204 16 Q 206 16 208 16 Q 208 16 208 16 L 208 136 L 208 136 Q 208 153 220 164 Q 231 176 248 176 L 368 176 L 368 176 Q 368 178 368 180 L 368 448 L 368 448 Q 367 468 354 482 Q 340 495 320 496 L 64 496 L 64 496 Z M 359 157 Q 360 159 361 160 L 248 160 L 248 160 Q 226 158 224 136 L 224 23 L 224 23 Q 225 24 227 25 L 359 157 L 359 157 Z M 64 0 Q 37 1 19 19 L 19 19 L 19 19 Q 1 37 0 64 L 0 448 L 0 448 Q 1 475 19 493 Q 37 511 64 512 L 320 512 L 320 512 Q 347 511 365 493 Q 383 475 384 448 L 384 180 L 384 180 Q 384 160 370 146 L 238 14 L 238 14 Q 224 0 204 0 L 64 0 L 64 0 Z M 96 240 L 128 240 L 96 240 L 128 240 L 128 248 L 128 248 L 128 264 L 128 264 L 128 272 L 128 272 L 120 272 L 96 272 L 96 240 L 96 240 Z M 104 288 L 104 384 L 104 288 L 104 384 L 96 384 L 96 384 Q 81 385 80 400 L 80 432 L 80 432 Q 81 447 96 448 L 128 448 L 128 448 Q 143 447 144 432 L 144 424 L 144 424 L 240 424 L 240 424 L 240 432 L 240 432 Q 241 447 256 448 L 288 448 L 288 448 Q 303 447 304 432 L 304 400 L 304 400 Q 303 385 288 384 L 280 384 L 280 384 L 280 288 L 280 288 L 288 288 L 288 288 Q 303 287 304 272 L 304 240 L 304 240 Q 303 225 288 224 L 256 224 L 256 224 Q 241 225 240 240 L 240 248 L 240 248 L 144 248 L 144 248 L 144 240 L 144 240 Q 143 225 128 224 L 96 224 L 96 224 Q 81 225 80 240 L 80 272 L 80 272 Q 81 287 96 288 L 104 288 L 104 288 Z M 264 288 L 264 384 L 264 288 L 264 384 L 256 384 L 256 384 Q 241 385 240 400 L 240 408 L 240 408 L 144 408 L 144 408 L 144 400 L 144 400 Q 143 385 128 384 L 120 384 L 120 384 L 120 288 L 120 288 L 128 288 L 128 288 Q 143 287 144 272 L 144 264 L 144 264 L 240 264 L 240 264 L 240 272 L 240 272 Q 241 287 256 288 L 264 288 L 264 288 Z M 256 432 L 256 424 L 256 432 L 256 424 L 256 408 L 256 408 L 256 400 L 256 400 L 264 400 L 288 400 L 288 432 L 288 432 L 256 432 L 256 432 Z M 128 424 L 128 432 L 128 424 L 128 432 L 96 432 L 96 432 L 96 400 L 96 400 L 104 400 L 128 400 L 128 408 L 128 408 L 128 424 L 128 424 Z M 288 272 L 280 272 L 288 272 L 256 272 L 256 264 L 256 264 L 256 248 L 256 248 L 256 240 L 256 240 L 288 240 L 288 240 L 288 272 L 288 272 Z" />
</svg>