<svg xmlns="http://www.w3.org/2000/svg" viewBox="0 0 461 475">
  <path d="M 237 23 Q 252 23 262 34 L 262 34 L 262 34 Q 273 44 273 59 Q 273 74 262 84 Q 252 95 237 95 Q 222 95 212 84 Q 201 74 201 59 Q 201 44 212 34 Q 222 23 237 23 L 237 23 Z M 185 59 Q 186 88 211 104 Q 237 118 263 104 Q 288 88 289 59 Q 288 30 263 14 Q 237 0 211 14 Q 186 30 185 59 L 185 59 Z M 237 427 Q 252 428 253 443 Q 252 458 237 459 Q 222 458 221 443 Q 222 428 237 427 L 237 427 Z M 205 443 Q 205 457 214 466 L 214 466 L 214 466 Q 223 475 237 475 Q 251 475 260 466 Q 269 457 269 443 Q 269 429 260 420 Q 251 411 237 411 Q 223 411 214 420 Q 205 429 205 443 L 205 443 Z M 429 267 Q 414 266 413 251 Q 414 236 429 235 Q 444 236 445 251 Q 444 266 429 267 L 429 267 Z M 461 251 Q 461 237 452 228 L 452 228 L 452 228 Q 443 219 429 219 Q 415 219 406 228 Q 397 237 397 251 Q 397 265 406 274 Q 415 283 429 283 Q 443 283 452 274 Q 461 265 461 251 L 461 251 Z M 69 251 Q 67 273 45 275 Q 23 273 21 251 Q 23 229 45 227 Q 67 229 69 251 L 69 251 Z M 45 211 Q 22 212 10 231 Q 0 251 10 271 Q 22 290 45 291 Q 68 290 80 271 Q 90 251 80 231 Q 68 212 45 211 L 45 211 Z M 401 144 Q 385 160 362 155 Q 339 149 333 126 Q 328 103 345 87 Q 361 70 384 75 Q 406 82 413 104 Q 418 127 401 144 L 401 144 Z M 412 76 Q 389 54 358 61 Q 328 70 319 101 Q 311 132 333 155 Q 356 177 387 169 Q 418 160 427 130 Q 434 99 412 76 L 412 76 Z M 113 376 Q 119 382 117 391 Q 115 400 106 403 Q 96 405 90 398 Q 83 392 85 382 Q 88 373 97 371 Q 106 369 113 376 L 113 376 Z M 79 364 Q 69 374 69 387 L 69 387 L 69 387 Q 69 400 79 409 Q 88 419 101 419 Q 114 419 124 409 Q 133 400 133 387 Q 133 374 124 364 Q 114 355 101 355 Q 88 355 79 364 L 79 364 Z M 361 398 Q 355 391 357 382 Q 359 373 368 371 Q 377 369 384 375 Q 391 382 389 391 Q 386 400 377 403 Q 368 405 361 398 L 361 398 Z M 395 409 Q 405 399 405 387 L 405 387 L 405 387 Q 405 374 395 364 Q 385 355 373 355 Q 360 355 350 364 Q 341 374 341 387 Q 341 399 350 409 Q 360 419 373 419 Q 385 419 395 409 L 395 409 Z M 124 138 Q 114 147 101 147 L 101 147 L 101 147 Q 88 147 79 138 Q 69 128 69 115 Q 69 102 79 93 Q 88 83 101 83 Q 114 83 124 93 Q 133 102 133 115 Q 133 128 124 138 L 124 138 Z M 135 81 Q 115 63 89 69 Q 63 77 55 103 Q 49 129 67 149 Q 87 168 114 162 Q 140 154 148 128 Q 154 101 135 81 L 135 81 Z" />
</svg>