<svg xmlns="http://www.w3.org/2000/svg" viewBox="0 0 586 512">
  <path d="M 186 90 Q 191 85 187 79 Q 184 75 183 72 Q 181 68 181 64 Q 182 46 212 31 Q 243 17 293 16 Q 343 17 374 31 Q 404 46 405 64 Q 405 72 399 79 Q 395 85 400 90 Q 402 92 405 92 Q 409 92 411 89 Q 421 77 421 64 Q 420 36 384 19 Q 348 1 293 0 Q 238 1 202 19 Q 166 36 165 64 Q 165 77 175 89 Q 180 94 186 90 L 186 90 Z M 577 453 L 539 375 L 577 453 L 539 375 Q 529 353 539 331 Q 545 318 550 310 Q 550 310 550 309 Q 558 298 561 287 Q 565 275 565 256 Q 564 216 535 189 Q 506 161 465 160 Q 426 161 398 188 L 326 262 L 326 262 Q 306 256 293 256 Q 280 256 261 261 L 188 188 L 188 188 Q 160 161 122 160 Q 80 161 51 189 Q 22 216 21 256 Q 21 275 25 286 Q 28 298 36 309 Q 40 317 47 331 Q 57 353 47 374 L 9 453 L 9 453 Q 0 474 11 493 Q 24 511 46 512 L 541 512 L 541 512 Q 562 511 575 493 Q 586 474 577 453 L 577 453 Z M 46 496 Q 32 496 25 485 Q 18 473 24 460 L 62 381 L 62 381 Q 75 353 62 324 Q 54 309 49 301 Q 43 291 40 281 Q 37 272 37 256 Q 38 223 62 200 Q 87 177 122 176 Q 154 177 177 200 L 245 268 L 245 268 Q 216 283 200 313 L 109 496 L 109 496 L 46 496 L 46 496 Z M 127 496 L 215 320 L 127 496 L 215 320 Q 231 291 255 281 Q 278 271 293 272 Q 308 271 331 281 Q 355 291 371 320 L 459 496 L 459 496 L 127 496 L 127 496 Z M 561 485 Q 554 496 541 496 L 477 496 L 477 496 L 386 313 L 386 313 Q 370 284 341 268 L 410 199 L 410 199 Q 433 176 465 176 Q 499 177 524 200 Q 548 223 549 256 Q 549 272 546 281 Q 543 290 537 301 Q 532 309 524 324 Q 511 353 524 381 L 562 460 L 562 460 Q 568 473 561 484 L 561 485 Z M 213 144 Q 214 189 253 213 Q 293 235 333 213 Q 372 189 373 144 Q 372 99 333 75 Q 293 53 253 75 Q 214 99 213 144 L 213 144 Z M 229 144 Q 230 108 261 89 Q 293 71 325 89 Q 356 108 357 144 Q 356 180 325 199 Q 293 217 261 199 Q 230 180 229 144 L 229 144 Z" />
</svg>