<svg xmlns="http://www.w3.org/2000/svg" viewBox="0 0 512 512">
  <path d="M 12.8 64 L 12.8 115.2 L 499.2 115.2 L 499.2 64 L 12.8 64 L 12.8 64 Z M 0 64 Q 0.8 52 12.8 51.2 L 499.2 51.2 Q 511.2 52 512 64 L 512 115.2 Q 511.2 127.2 499.2 128 L 486.4 128 L 486.4 441.6 Q 484.8 459.2 467.2 460.8 L 403.2 460.8 Q 385.6 459.2 384 441.6 L 384 332.8 Q 382.4 278.4 346.4 242.4 Q 310.4 206.4 256 204.8 Q 201.6 206.4 165.6 242.4 Q 129.6 278.4 128 332.8 L 128 441.6 Q 126.4 459.2 108.8 460.8 L 44.8 460.8 Q 27.2 459.2 25.6 441.6 L 25.6 128 L 12.8 128 Q 0.8 127.2 0 115.2 L 0 64 L 0 64 Z M 38.4 128 L 38.4 441.6 Q 39.2 447.2 44.8 448 L 108.8 448 Q 114.4 447.2 115.2 441.6 L 115.2 332.8 Q 116.8 272.8 156.8 233.6 Q 196 193.6 256 192 Q 316 193.6 355.2 233.6 Q 395.2 272.8 396.8 332.8 L 396.8 441.6 Q 397.6 447.2 403.2 448 L 467.2 448 Q 472.8 447.2 473.6 441.6 L 473.6 128 L 38.4 128 L 38.4 128 Z M 272.8 304.8 Q 267.2 304.8 263.2 300 Q 249.6 284 234.4 270.4 Q 208.8 294.4 192.8 320.8 Q 176 348.8 176 368 Q 176 401.6 199.2 424.8 Q 221.6 447.2 256 448 Q 290.4 447.2 312.8 424.8 Q 335.2 401.6 336 368 Q 336 352.8 324 328 Q 312 304.8 294.4 287.2 Q 288 292.8 283.2 300 Q 279.2 304.8 272.8 304.8 L 272.8 304.8 Z M 264 281.6 Q 268.8 286.4 272.8 292 Q 276.8 286.4 281.6 281.6 Q 284.8 277.6 288 274.4 Q 294.4 270.4 300 274.4 Q 321.6 296 335.2 321.6 Q 348 348 348.8 368 Q 348 407.2 321.6 433.6 Q 296 460 256 460.8 Q 216 460 189.6 433.6 Q 164 407.2 163.2 368 Q 164 343.2 181.6 313.6 Q 199.2 284.8 228.8 258.4 Q 232 256 235.2 256 Q 238.4 256 240.8 258.4 Q 252.8 268.8 264 281.6 L 264 281.6 Z M 238.4 312.8 Q 240 314.4 245.6 321.6 L 245.6 321.6 Q 252 329.6 259.2 339.2 L 272.8 356 L 273.6 357.6 L 292 336 Q 293.6 333.6 296.8 333.6 Q 300 334.4 301.6 336.8 Q 304.8 340.8 306.4 344.8 L 306.4 344.8 Q 312.8 356.8 313.6 368.8 Q 312.8 374.4 307.2 376 Q 301.6 375.2 300.8 369.6 Q 300 360 295.2 351.2 L 278.4 371.2 Q 276 373.6 272.8 373.6 Q 270.4 373.6 268 371.2 L 273.6 367.2 Q 267.2 372 268 371.2 L 268 371.2 L 268 371.2 L 268 371.2 L 268 371.2 L 268 371.2 L 266.4 369.6 L 262.4 364 L 249.6 347.2 Q 247.2 344.8 245.6 342.4 Q 238.4 333.6 233.6 327.2 Q 223.2 340 217.6 349.6 Q 211.2 360.8 211.2 369.6 Q 210.4 375.2 204.8 376 Q 199.2 375.2 198.4 369.6 Q 198.4 356 206.4 343.2 Q 214.4 330.4 228.8 312.8 Q 230.4 310.4 233.6 310.4 Q 236.8 310.4 238.4 312.8 L 238.4 312.8 Z" />
</svg>