<svg xmlns="http://www.w3.org/2000/svg" viewBox="0 0 512 512">
  <path d="M 235.2648 54.23053 Q 231.27725 51.040497 227.28972 54.23053 L 3.987539 252.01247 Q 0 256 3.190031 260.78503 Q 7.17757 264.77258 11.962617 261.58255 L 52.635513 225.6947 L 52.635513 409.919 Q 53.43302 431.45172 67.78816 445.80685 Q 82.1433 460.162 103.67601 460.9595 L 299.8629 460.9595 Q 290.29285 454.57944 282.31775 447.40186 L 282.31775 448.19937 L 180.23676 448.19937 L 180.23676 314.21808 Q 181.03427 308.63553 186.61682 307.838 L 234.46729 307.838 Q 235.2648 301.45795 237.65732 295.07788 L 186.61682 295.07788 Q 169.07166 296.67288 167.47664 314.21808 L 167.47664 448.19937 L 103.67601 448.19937 Q 87.72585 447.40186 76.560745 437.03427 Q 66.193146 425.86917 65.39564 409.919 L 65.39564 214.5296 L 231.27725 67.78816 L 335.7508 160.29907 Q 342.13083 156.31152 349.3084 155.51402 L 235.2648 54.23053 L 235.2648 54.23053 Z M 407.5265 242.44237 Q 413.90656 241.64487 417.89407 237.65732 Q 426.66666 225.6947 436.23676 216.1246 Q 464.14954 242.44237 481.6947 276.7352 Q 489.66977 292.68536 494.45483 307.838 Q 499.23987 323.78815 499.23987 333.35825 Q 497.64487 382.00623 465.74454 414.70404 Q 433.04672 446.60437 384.39874 448.19937 Q 334.95328 446.60437 303.05295 414.70404 Q 270.35513 382.00623 269.55762 333.35825 Q 270.35513 305.4455 293.48288 266.3676 Q 316.6106 228.88474 355.68848 193.79439 Q 378.01868 213.73209 397.9564 237.65732 Q 401.94394 241.64487 407.5265 242.44237 L 407.5265 242.44237 Z M 398.7539 219.31464 Q 382.00623 200.17445 363.66354 183.42679 Q 359.67603 180.23676 355.68848 180.23676 Q 350.9034 180.23676 347.7134 183.42679 Q 307.0405 220.11215 282.31775 259.98755 Q 257.595 299.8629 256.79752 333.35825 Q 258.39252 387.58878 293.48288 423.47662 Q 329.37073 459.36447 384.39874 460.9595 Q 438.62927 459.36447 474.51712 423.47662 Q 510.405 387.58878 512 333.35825 Q 512 321.39563 506.41745 304.64798 Q 501.6324 287.9003 492.8598 270.35513 Q 474.51712 234.46729 444.21185 205.757 Q 436.23676 199.37695 428.2617 205.757 Q 421.88162 212.13707 415.50156 219.31464 Q 411.514 224.09969 407.5265 229.68224 Q 403.53894 224.09969 398.7539 219.31464 L 398.7539 219.31464 Z M 354.09344 256.79752 Q 350.9034 256.79752 349.3084 259.19003 Q 329.37073 283.11526 319.0031 300.66043 Q 307.838 317.4081 307.838 335.7508 Q 308.63553 370.84113 330.96573 390.7788 Q 353.29596 409.919 385.99377 410.71652 Q 411.514 410.71652 432.2492 396.36136 L 432.2492 396.36136 L 432.2492 396.36136 Q 454.57944 379.6137 459.36447 354.09344 Q 464.94705 327.7757 452.18692 303.05295 L 452.18692 303.05295 L 452.18692 303.05295 Q 451.3894 303.05295 451.3894 302.25546 Q 448.9969 297.4704 445.00934 291.88785 Q 443.41434 289.49533 440.2243 289.49533 Q 437.03427 289.49533 435.43924 291.88785 L 409.1215 322.99066 L 405.93146 318.2056 L 387.58878 295.8754 Q 379.6137 284.71027 372.43613 275.93768 Q 364.46106 266.3676 361.27103 261.58255 Q 359.67603 259.98755 358.8785 259.19003 Q 357.28348 256.79752 354.09344 256.79752 L 354.09344 256.79752 Z M 408.32397 332.56076 L 403.53894 336.54828 Q 405.13394 338.9408 408.32397 338.9408 Q 411.514 338.9408 413.10904 336.54828 L 439.4268 306.24298 Q 439.4268 307.0405 440.2243 307.838 Q 440.2243 308.63553 440.2243 309.433 L 440.2243 309.433 L 441.02182 309.433 Q 451.3894 330.1682 447.40186 350.9034 Q 442.61682 372.43613 425.07166 385.99377 Q 406.72897 397.9564 385.19626 397.9564 Q 357.28348 397.15887 339.7383 381.2087 Q 321.39563 365.25858 320.59814 335.7508 Q 320.59814 322.19315 329.37073 307.0405 Q 338.1433 293.48288 354.09344 273.54517 Q 355.68848 275.93768 358.081 279.12772 Q 366.85358 290.29285 377.2212 303.85046 L 395.56387 326.97818 L 401.14642 334.15576 L 402.74142 335.7508 L 403.53894 336.54828 L 403.53894 336.54828 L 403.53894 336.54828 L 403.53894 336.54828 L 403.53894 336.54828 L 408.32397 332.56076 L 408.32397 332.56076 Z" />
</svg>