<svg xmlns="http://www.w3.org/2000/svg" viewBox="0 0 446 512">
  <path d="M 22 140 Q 24 135 28 132 Q 32 128 36 125 L 203 29 L 203 29 Q 223 18 243 29 L 410 125 L 410 125 Q 429 137 430 160 L 430 352 L 430 352 Q 430 363 424 372 Q 422 377 418 380 Q 415 384 410 387 L 243 483 L 243 483 Q 223 494 203 483 L 36 387 L 36 387 Q 17 375 16 352 L 16 160 L 16 160 Q 16 149 22 140 L 22 140 Z M 0 160 L 0 352 L 0 160 L 0 352 Q 1 384 28 401 L 195 497 L 195 497 Q 223 512 251 497 L 418 401 L 418 401 Q 424 397 430 392 Q 435 386 439 380 Q 446 367 446 352 L 446 160 L 446 160 Q 445 128 418 111 L 251 15 L 251 15 Q 223 0 195 15 L 28 111 L 28 111 Q 18 117 12 126 Q 0 141 0 160 L 0 160 Z M 143 137 Q 136 137 135 145 L 135 319 L 135 319 L 86 174 L 86 174 Q 84 168 78 169 Q 71 170 71 177 L 71 337 L 71 337 Q 72 344 79 345 Q 86 344 87 337 L 87 226 L 87 226 L 135 371 L 135 371 Q 138 377 144 376 Q 150 375 151 369 L 151 145 L 151 145 Q 150 137 143 137 L 143 137 Z M 207 88 Q 207 88 207 88 L 207 88 L 207 88 Q 207 88 207 88 Q 205 88 203 89 Q 201 90 200 92 Q 199 94 199 96 L 199 257 L 199 257 L 199 401 L 199 401 Q 200 408 207 409 Q 214 408 215 401 L 215 265 L 215 265 L 255 265 L 255 265 Q 262 264 263 257 Q 262 249 255 249 L 215 249 L 215 249 L 215 110 L 215 110 L 259 135 L 259 135 Q 269 138 271 128 Q 271 124 267 121 L 211 89 L 211 89 Q 209 88 207 88 L 207 88 Z M 343 183 L 371 199 L 343 183 L 371 199 Q 378 202 382 196 Q 385 189 379 185 L 299 139 L 299 139 Q 289 136 287 146 Q 287 151 291 153 L 327 173 L 327 173 L 327 352 L 327 352 Q 327 360 335 360 Q 342 360 343 352 L 343 183 L 343 183 Z" />
</svg>