<svg xmlns="http://www.w3.org/2000/svg" viewBox="0 0 642 513">
  <path d="M 448 289 Q 440 289 432 288 L 432 369 L 432 369 L 328 369 L 328 369 L 328 235 L 328 235 Q 319 225 312 213 L 312 369 L 312 369 L 200 369 L 200 369 L 200 201 L 200 201 Q 199 194 192 193 Q 185 194 184 201 L 184 369 L 184 369 L 80 369 L 80 369 L 80 201 L 80 201 Q 79 194 72 193 Q 65 194 64 201 L 64 377 L 64 377 Q 65 384 72 385 L 440 385 L 440 385 Q 447 384 448 377 L 448 289 L 448 289 Z M 259 2 Q 256 0 253 2 L 14 110 L 14 110 Q 1 116 0 131 L 0 137 L 0 137 Q 2 159 24 161 L 291 161 L 291 161 Q 290 153 289 145 L 24 145 L 24 145 Q 17 144 16 137 L 16 131 L 16 131 Q 16 126 21 124 L 256 18 L 256 18 L 313 43 L 313 43 Q 317 37 322 30 L 259 2 L 259 2 Z M 40 433 Q 33 434 32 441 Q 33 448 40 449 L 472 449 L 472 449 Q 479 448 480 441 Q 479 434 472 433 L 40 433 L 40 433 Z M 8 497 Q 1 498 0 505 Q 1 512 8 513 L 504 513 L 504 513 Q 511 512 512 505 Q 511 498 504 497 L 8 497 L 8 497 Z M 448 17 Q 478 17 504 32 L 504 32 L 504 32 Q 530 47 545 73 Q 560 100 560 129 Q 560 159 545 185 Q 530 211 504 226 Q 478 241 448 241 Q 418 241 392 226 Q 366 211 351 185 Q 336 159 336 129 Q 336 100 351 73 Q 366 47 392 32 Q 418 17 448 17 L 448 17 Z M 448 257 Q 498 256 533 225 L 626 319 L 626 319 Q 632 323 638 319 Q 642 313 638 308 L 544 214 L 544 214 Q 575 179 576 129 Q 575 75 539 39 Q 502 2 448 1 Q 394 2 357 39 Q 321 75 320 129 Q 321 183 357 220 Q 394 256 448 257 L 448 257 Z" />
</svg>