<svg xmlns="http://www.w3.org/2000/svg" viewBox="0 0 512 512">
  <path d="M 502.73523 3.9009523 Q 506.6362 9.752381 502.73523 15.603809 L 347.6724 170.66667 L 381.80573 204.8 Q 398.38477 222.35428 398.38477 243.80952 Q 398.38477 265.26477 381.80573 282.81906 L 178.95619 485.66858 Q 163.35239 501.27237 139.94667 501.27237 Q 121.417145 500.29715 94.11047 492.49524 Q 66.80381 485.66858 43.398094 463.2381 Q 20.967619 439.83237 14.140952 412.52573 Q 6.3390474 385.21906 6.3390474 366.6895 Q 5.3638096 343.2838 20.967619 327.68 L 223.81714 124.830475 Q 241.37143 108.25143 262.82666 108.25143 Q 284.2819 108.25143 301.83618 124.830475 L 335.9695 158.9638 L 491.03238 3.9009523 Q 496.88382 0 502.73523 3.9009523 L 502.73523 3.9009523 Z M 55.100952 452.51047 Q 74.60571 471.04 98.986664 477.86667 Q 123.36762 484.69333 140.9219 485.66858 Q 156.52571 485.66858 168.22858 474.94095 L 335.9695 306.22476 L 239.42096 306.22476 Q 222.8419 306.22476 212.11429 294.5219 Q 200.41142 283.79428 200.41142 267.21524 L 200.41142 170.66667 L 31.695238 338.40762 Q 20.967619 350.11047 20.967619 365.7143 Q 21.942858 383.2686 28.769524 407.64954 L 14.140952 412.52573 L 28.769524 407.64954 Q 35.59619 432.0305 54.125713 451.53525 Q 54.125713 451.53525 54.125713 452.51047 Q 54.125713 452.51047 55.100952 452.51047 L 55.100952 452.51047 Z M 351.57333 290.62094 L 371.0781 271.11618 Q 382.78094 259.41333 382.78094 243.80952 Q 382.78094 228.20572 371.0781 216.50285 L 290.13333 135.55809 Q 278.43048 123.85524 262.82666 123.85524 Q 247.22285 123.85524 235.52 135.55809 L 216.01524 155.06285 L 216.01524 267.21524 Q 217.96571 288.67047 239.42096 290.62094 L 351.57333 290.62094 L 351.57333 290.62094 Z M 489.0819 423.25333 Q 488.10666 388.14478 457.8743 369.61523 Q 426.66666 352.06094 395.45905 369.61523 Q 365.22665 388.14478 364.25143 423.25333 Q 365.22665 458.3619 395.45905 476.89142 Q 426.66666 494.4457 457.8743 476.89142 Q 488.10666 458.3619 489.0819 423.25333 L 489.0819 423.25333 Z M 348.6476 423.25333 Q 349.62286 379.3676 387.65714 355.9619 Q 426.66666 334.50665 465.67618 355.9619 Q 503.71048 379.3676 504.6857 423.25333 Q 503.71048 467.13904 465.67618 490.54477 Q 426.66666 512 387.65714 490.54477 Q 349.62286 467.13904 348.6476 423.25333 L 348.6476 423.25333 Z" />
</svg>