<svg xmlns="http://www.w3.org/2000/svg" viewBox="0 0 513 513">
  <path d="M 491 45 Q 500 35 492 23 L 505 13 L 505 13 L 492 23 L 492 23 Q 483 13 471 20 L 278 161 L 278 161 L 251 161 L 251 161 L 461 7 L 461 7 Q 472 0 484 1 Q 496 3 505 13 Q 513 23 512 35 Q 511 48 502 57 L 386 161 L 386 161 L 362 161 L 362 161 L 491 45 L 491 45 Z M 48 209 L 48 257 L 48 209 L 48 257 Q 48 314 77 356 Q 106 398 161 418 Q 169 421 171 429 Q 173 437 168 443 Q 154 462 147 485 Q 146 490 149 493 Q 153 497 160 497 L 352 497 L 352 497 Q 359 497 362 493 Q 365 490 364 485 Q 358 462 344 443 Q 339 437 341 429 Q 343 421 351 418 Q 406 398 435 356 Q 464 314 464 257 L 464 209 L 464 209 L 48 209 L 48 209 Z M 480 257 Q 480 315 452 359 L 452 359 L 452 359 Q 425 403 372 427 Q 364 430 356 433 Q 361 440 366 447 Q 375 463 380 481 Q 383 495 374 504 Q 366 513 352 513 L 160 513 L 160 513 Q 146 513 138 504 Q 129 495 132 481 Q 137 463 146 447 Q 151 440 156 433 Q 148 430 140 427 Q 87 403 60 359 Q 32 315 32 257 L 32 225 L 32 225 L 32 209 L 32 209 L 16 209 L 8 209 Q 1 208 0 201 Q 1 194 8 193 L 32 193 L 504 193 Q 511 194 512 201 Q 511 208 504 209 L 496 209 L 480 209 L 480 225 L 480 225 L 480 257 L 480 257 Z" />
</svg>