<svg xmlns="http://www.w3.org/2000/svg" viewBox="0 0 512 440">
  <path d="M 176 16 L 336 16 L 176 16 L 336 16 Q 358 18 360 40 L 360 88 L 360 88 L 152 88 L 152 88 L 152 40 L 152 40 Q 154 18 176 16 L 176 16 Z M 136 40 L 136 88 L 136 40 L 136 88 L 107 88 L 107 88 Q 80 88 61 107 L 19 149 L 19 149 Q 0 168 0 195 L 0 296 L 0 296 L 0 376 L 0 376 Q 1 403 19 421 Q 37 439 64 440 L 448 440 L 448 440 Q 475 439 493 421 Q 511 403 512 376 L 512 296 L 512 296 L 512 195 L 512 195 Q 512 168 493 149 L 451 107 L 451 107 Q 432 88 406 88 L 376 88 L 376 88 L 376 40 L 376 40 Q 376 23 364 12 Q 353 0 336 0 L 176 0 L 176 0 Q 159 0 148 12 Q 136 23 136 40 L 136 40 Z M 496 288 L 352 288 L 496 288 L 352 288 L 352 240 L 352 240 Q 351 233 344 232 Q 337 233 336 240 L 336 288 L 336 288 L 176 288 L 176 288 L 176 240 L 176 240 Q 175 233 168 232 Q 161 233 160 240 L 160 288 L 160 288 L 16 288 L 16 288 L 16 195 L 16 195 Q 16 175 30 161 L 73 118 L 73 118 Q 87 104 107 104 L 144 104 L 406 104 Q 425 104 439 118 L 482 161 L 482 161 Q 496 175 496 195 L 496 288 L 496 288 Z M 16 304 L 160 304 L 16 304 L 160 304 L 160 352 L 160 352 Q 161 359 168 360 Q 175 359 176 352 L 176 304 L 176 304 L 336 304 L 336 304 L 336 352 L 336 352 Q 337 359 344 360 Q 351 359 352 352 L 352 304 L 352 304 L 496 304 L 496 304 L 496 376 L 496 376 Q 495 396 482 410 Q 468 423 448 424 L 64 424 L 64 424 Q 44 423 30 410 Q 17 396 16 376 L 16 304 L 16 304 Z" />
</svg>