<svg xmlns="http://www.w3.org/2000/svg" viewBox="0 0 640 512">
  <path d="M 256 496 Q 310 496 356 474 Q 361 481 366 487 Q 316 511 256 512 Q 184 511 127 477 Q 69 443 35 385 Q 1 328 0 256 Q 1 184 35 127 Q 69 69 127 35 Q 184 1 256 0 Q 347 2 414 55 Q 481 108 504 192 Q 500 192 496 192 Q 492 192 488 192 Q 488 192 487 192 Q 465 115 403 66 Q 340 17 256 16 Q 189 17 135 49 Q 81 81 49 135 Q 17 189 16 256 Q 17 323 49 377 Q 81 431 135 463 Q 189 495 256 496 L 256 496 Z M 117 213 Q 111 218 106 213 Q 101 207 106 201 Q 168 146 256 144 Q 344 146 406 202 Q 411 207 407 213 Q 401 218 395 213 Q 338 162 256 160 Q 174 162 117 213 L 117 213 Z M 272 352 Q 271 337 256 336 Q 241 337 240 352 Q 241 367 256 368 Q 271 367 272 352 L 272 352 Z M 224 352 Q 224 338 233 329 L 233 329 L 233 329 Q 242 320 256 320 Q 270 320 279 329 Q 288 338 288 352 Q 288 366 279 375 Q 270 384 256 384 Q 242 384 233 375 Q 224 366 224 352 L 224 352 Z M 256 256 Q 215 257 186 283 Q 180 287 175 282 Q 171 276 176 271 Q 209 241 256 240 Q 304 241 337 271 Q 342 276 337 282 Q 332 287 326 283 Q 297 257 256 256 L 256 256 Z M 496 496 Q 531 496 560 479 L 560 479 L 560 479 Q 589 462 607 432 Q 624 402 624 368 Q 624 334 607 304 Q 589 274 560 257 Q 531 240 496 240 Q 461 240 432 257 Q 403 274 385 304 Q 368 334 368 368 Q 368 402 385 432 Q 403 462 432 479 Q 461 496 496 496 L 496 496 Z M 496 224 Q 535 224 568 243 L 568 243 L 568 243 Q 601 262 621 296 Q 640 330 640 368 Q 640 406 621 440 Q 601 474 568 493 Q 535 512 496 512 Q 457 512 424 493 Q 391 474 371 440 Q 352 406 352 368 Q 352 330 371 296 Q 391 262 424 243 Q 457 224 496 224 L 496 224 Z M 496 320 Q 451 321 420 349 Q 414 354 409 349 Q 404 343 409 337 Q 445 305 496 304 Q 547 305 583 337 Q 588 343 583 349 Q 578 354 572 349 Q 541 321 496 320 L 496 320 Z M 480 432 Q 481 417 496 416 Q 511 417 512 432 Q 511 447 496 448 Q 481 447 480 432 L 480 432 Z M 459 390 Q 453 395 448 390 Q 443 384 448 378 Q 468 361 496 360 Q 524 361 544 378 Q 549 384 544 390 Q 539 395 533 390 Q 518 377 496 376 Q 474 376 459 390 L 459 390 Z" />
</svg>