<svg xmlns="http://www.w3.org/2000/svg" viewBox="0 0 576 514">
  <path d="M 340 3 Q 334 7 337 14 L 435 194 L 435 194 L 142 194 L 142 194 L 239 14 L 239 14 Q 242 7 236 3 Q 229 0 225 6 L 123 194 L 123 194 L 49 194 L 8 194 Q 1 195 0 202 Q 1 209 8 210 L 36 210 L 36 210 L 100 466 L 100 466 Q 106 487 123 500 Q 139 514 162 514 L 414 514 L 414 514 Q 437 514 453 500 Q 470 487 476 466 L 540 210 L 540 210 L 568 210 L 568 210 Q 575 209 576 202 Q 575 195 568 194 L 544 194 L 453 194 L 351 6 L 351 6 Q 347 0 340 3 L 340 3 Z M 53 210 L 524 210 L 53 210 L 524 210 L 461 462 L 461 462 Q 456 478 444 488 Q 431 498 414 498 L 162 498 L 162 498 Q 145 498 132 488 Q 120 478 115 462 L 53 210 L 53 210 Z M 208 346 Q 201 347 200 354 Q 201 361 208 362 L 368 362 L 368 362 Q 375 361 376 354 Q 375 347 368 346 L 208 346 L 208 346 Z" />
</svg>