<svg xmlns="http://www.w3.org/2000/svg" viewBox="0 0 576 514">
  <path d="M 337 14 Q 334 7 340 3 Q 347 0 351 6 L 453 194 L 453 194 L 528 194 L 568 194 Q 575 195 576 202 Q 575 209 568 210 L 540 210 L 540 210 L 476 466 L 476 466 Q 470 487 453 500 Q 437 514 414 514 L 162 514 L 162 514 Q 139 514 123 500 Q 106 487 100 466 L 36 210 L 36 210 L 8 210 L 8 210 Q 1 209 0 202 Q 1 195 8 194 L 32 194 L 123 194 L 225 6 L 225 6 Q 229 0 236 3 Q 242 7 239 14 L 141 194 L 141 194 L 435 194 L 435 194 L 337 14 L 337 14 Z M 524 210 L 53 210 L 524 210 L 53 210 L 115 462 L 115 462 Q 120 478 132 488 Q 145 498 162 498 L 414 498 L 414 498 Q 431 498 444 488 Q 456 478 461 462 L 524 210 L 524 210 Z M 200 354 Q 201 347 208 346 L 280 346 L 280 346 L 280 274 L 280 274 Q 281 267 288 266 Q 295 267 296 274 L 296 346 L 296 346 L 368 346 L 368 346 Q 375 347 376 354 Q 375 361 368 362 L 296 362 L 296 362 L 296 434 L 296 434 Q 295 441 288 442 Q 281 441 280 434 L 280 362 L 280 362 L 208 362 L 208 362 Q 201 361 200 354 L 200 354 Z" />
</svg>