<svg xmlns="http://www.w3.org/2000/svg" viewBox="0 0 560 514">
  <path d="M 345 224 Q 352 201 352 176 Q 350 101 300 52 Q 251 2 176 0 Q 101 2 52 52 Q 2 101 0 176 Q 1 233 31 276 Q 39 287 47 297 Q 47 298 47 298 Q 47 298 47 298 Q 47 298 47 298 Q 47 298 47 298 Q 47 298 47 298 Q 47 298 47 298 Q 47 298 47 298 Q 66 323 81 349 Q 90 366 93 384 L 109 384 L 109 384 Q 106 362 95 342 Q 79 313 59 287 Q 59 287 59 287 Q 59 287 59 287 Q 59 287 59 287 Q 59 287 59 287 Q 57 285 56 283 Q 50 275 45 267 Q 17 228 16 176 Q 18 108 63 63 Q 108 18 176 16 Q 244 18 289 63 Q 334 108 336 176 Q 336 201 329 224 L 345 224 L 345 224 Z M 176 416 L 107 416 L 176 416 L 107 416 Q 97 417 96 427 L 96 432 L 96 432 Q 97 466 119 489 Q 142 511 176 512 Q 204 512 224 496 Q 245 480 253 454 Q 240 438 240 416 L 176 416 L 176 416 Z M 80 168 Q 81 131 106 106 L 106 106 L 106 106 Q 131 81 168 80 Q 175 79 176 72 Q 175 65 168 64 Q 124 65 94 94 Q 65 124 64 168 Q 65 175 72 176 Q 79 175 80 168 L 80 168 Z M 176 496 Q 149 495 131 477 L 131 477 L 131 477 Q 113 459 112 432 L 240 432 L 240 432 Q 239 459 221 477 Q 203 495 176 496 L 176 496 Z M 288 288 Q 289 273 304 272 L 528 272 L 528 272 Q 543 273 544 288 L 544 416 L 544 416 Q 543 431 528 432 L 464 432 L 464 432 Q 449 433 448 448 L 448 496 L 448 496 L 389 437 L 389 437 Q 384 432 377 432 L 304 432 L 304 432 Q 289 431 288 416 L 288 288 L 288 288 Z M 304 256 Q 290 256 281 265 L 281 265 L 281 265 Q 272 274 272 288 L 272 416 L 272 416 Q 272 430 281 439 Q 290 448 304 448 L 377 448 L 377 448 L 437 507 L 437 507 Q 444 514 454 511 Q 463 506 464 496 L 464 448 L 464 448 L 528 448 L 528 448 Q 542 448 551 439 Q 560 430 560 416 L 560 288 L 560 288 Q 560 274 551 265 Q 542 256 528 256 L 304 256 L 304 256 Z" />
</svg>