<svg xmlns="http://www.w3.org/2000/svg" viewBox="0 0 640 512">
  <path d="M 256 16 Q 322 17 375 48 L 375 48 L 375 48 Q 429 79 461 131 Q 469 134 475 140 Q 483 148 492 156 Q 461 86 399 43 Q 336 1 256 0 Q 184 1 127 35 Q 69 69 35 127 Q 1 184 0 256 Q 1 328 35 385 Q 69 443 127 477 Q 184 511 256 512 Q 307 512 351 494 Q 345 488 339 481 Q 300 496 256 496 Q 189 495 135 463 Q 81 431 49 377 Q 17 323 16 256 Q 17 189 49 135 Q 81 81 135 49 Q 189 17 256 16 L 256 16 Z M 384 160 Q 384 146 375 137 L 375 137 L 375 137 Q 366 128 352 128 Q 338 128 329 137 Q 320 146 320 160 L 320 192 L 320 192 Q 321 213 339 221 Q 344 215 349 208 Q 337 205 336 192 L 336 160 L 336 160 Q 337 145 352 144 Q 367 145 368 160 L 368 185 L 368 185 Q 376 176 384 167 L 384 160 L 384 160 Z M 176 160 L 176 192 L 176 160 L 176 192 Q 175 207 160 208 Q 145 207 144 192 L 144 160 L 144 160 Q 145 145 160 144 Q 175 145 176 160 L 176 160 Z M 128 160 L 128 192 L 128 160 L 128 192 Q 128 206 137 215 Q 146 224 160 224 Q 174 224 183 215 Q 192 206 192 192 L 192 160 L 192 160 Q 192 146 183 137 Q 174 128 160 128 Q 146 128 137 137 Q 128 146 128 160 L 128 160 Z M 272 192 Q 271 207 256 208 Q 241 207 240 192 L 240 160 L 240 160 Q 241 145 256 144 Q 271 145 272 160 L 272 192 L 272 192 Z M 256 128 Q 242 128 233 137 L 233 137 L 233 137 Q 224 146 224 160 L 224 192 L 224 192 Q 224 206 233 215 Q 242 224 256 224 Q 270 224 279 215 Q 288 206 288 192 L 288 160 L 288 160 Q 288 146 279 137 Q 270 128 256 128 L 256 128 Z M 446 176 Q 448 176 450 178 Q 474 199 495 224 Q 508 236 520 224 Q 529 213 538 204 Q 542 201 546 204 Q 576 232 600 272 Q 623 312 624 351 Q 624 389 607 420 Q 590 451 561 471 Q 576 450 576 422 Q 575 393 559 368 Q 542 342 522 323 Q 501 303 489 294 Q 480 288 471 294 Q 459 303 438 323 Q 418 342 401 368 Q 385 394 384 423 Q 384 450 400 472 Q 370 452 353 421 Q 336 389 336 352 Q 338 302 371 256 Q 404 210 442 178 Q 443 176 446 176 L 446 176 Z M 480 496 Q 476 496 472 496 Q 440 492 420 472 Q 401 451 400 423 Q 402 387 431 354 Q 460 322 480 308 Q 500 322 529 354 Q 558 387 560 423 Q 559 451 540 472 Q 520 492 488 496 Q 484 496 480 496 L 480 496 Z M 320 351 Q 321 417 363 462 L 363 462 L 363 462 Q 405 507 471 512 Q 475 512 480 512 Q 485 512 489 512 Q 554 507 596 462 Q 638 417 640 351 Q 638 306 613 264 Q 589 221 557 193 Q 542 181 527 193 Q 517 203 508 214 Q 508 214 508 214 Q 507 214 507 214 Q 507 214 507 214 Q 507 214 507 214 Q 507 214 507 214 Q 507 214 507 214 Q 485 188 460 166 Q 454 160 446 160 Q 438 160 431 166 Q 392 199 358 247 Q 323 295 320 351 L 320 351 Z" />
</svg>