<svg xmlns="http://www.w3.org/2000/svg" viewBox="0 0 644 514">
  <path d="M 13 3 L 157 67 L 13 3 L 157 67 Q 164 70 161 77 Q 158 84 151 81 L 7 17 L 7 17 Q 0 14 3 7 Q 6 0 13 3 L 13 3 Z M 157 193 L 13 257 L 157 193 L 13 257 Q 6 260 3 253 Q 0 246 7 243 L 151 179 L 151 179 Q 158 176 161 183 Q 164 190 157 193 L 157 193 Z M 318 3 Q 322 1 326 3 L 438 75 L 438 75 Q 444 80 441 86 Q 436 92 430 89 L 418 81 L 418 81 L 418 130 L 418 130 L 402 130 L 402 130 L 402 71 L 402 71 L 322 20 L 322 20 L 242 71 L 242 71 L 242 130 L 242 130 L 226 130 L 226 130 L 226 81 L 226 81 L 214 89 L 214 89 Q 208 92 203 86 Q 200 80 206 75 L 318 3 L 318 3 Z M 178 498 L 274 498 L 178 498 L 274 498 L 274 434 L 274 434 Q 275 414 288 400 Q 302 387 322 386 Q 342 387 356 400 Q 369 414 370 434 L 370 498 L 370 498 L 466 498 L 466 498 L 405 178 L 405 178 L 239 178 L 239 178 L 178 498 L 178 498 Z M 421 178 L 482 498 L 421 178 L 482 498 L 498 498 L 498 498 Q 505 499 506 506 Q 505 513 498 514 L 482 514 L 146 514 Q 139 513 138 506 Q 139 499 146 498 L 162 498 L 162 498 L 223 178 L 223 178 L 218 178 L 218 178 Q 211 177 210 170 Q 211 163 218 162 L 226 162 L 426 162 Q 433 163 434 170 Q 433 177 426 178 L 421 178 L 421 178 Z M 354 434 Q 354 420 345 411 L 345 411 L 345 411 Q 336 402 322 402 Q 308 402 299 411 Q 290 420 290 434 L 290 498 L 290 498 L 354 498 L 354 498 L 354 434 L 354 434 Z M 641 7 Q 644 14 637 17 L 493 81 L 493 81 Q 486 84 483 77 Q 480 70 487 67 L 631 3 L 631 3 Q 638 0 641 7 L 641 7 Z M 483 183 Q 486 176 493 179 L 637 243 L 637 243 Q 644 246 641 253 Q 638 260 631 257 L 487 193 L 487 193 Q 480 190 483 183 L 483 183 Z" />
</svg>