<svg xmlns="http://www.w3.org/2000/svg" viewBox="0 0 512 512">
  <path d="M 351 14 Q 368 0 385 14 L 402 31 L 402 31 Q 416 48 402 65 L 385 82 L 385 82 Q 368 96 351 82 L 334 65 L 334 65 Q 320 48 334 31 L 351 14 L 351 14 Z M 374 25 Q 368 20 362 25 L 345 42 L 345 42 Q 340 48 345 54 L 362 71 L 362 71 Q 368 76 374 71 L 391 54 L 391 54 Q 396 48 391 42 L 374 25 L 374 25 Z M 141 112 Q 113 112 93 128 Q 87 132 82 126 Q 78 120 83 115 Q 108 97 141 96 Q 182 97 209 124 Q 236 151 237 192 Q 235 244 194 272 Q 194 272 194 272 Q 194 272 194 272 L 194 272 L 194 272 L 195 272 L 195 272 L 195 272 L 195 272 L 195 272 L 195 272 L 196 272 L 196 272 L 196 272 L 196 272 L 197 272 L 197 272 L 197 272 L 197 272 L 197 272 L 197 272 L 198 272 L 198 272 L 198 272 L 198 272 L 199 272 L 199 272 L 199 272 L 199 272 L 199 272 L 199 272 L 200 272 L 200 272 L 200 272 L 200 272 L 201 272 L 201 272 L 201 272 L 201 272 L 201 272 L 201 272 L 202 272 L 202 272 L 202 272 L 202 272 L 203 272 L 203 272 L 203 272 L 203 272 L 203 272 L 203 272 L 204 272 L 204 272 L 204 272 L 204 272 L 205 272 L 205 272 L 205 272 L 205 272 L 205 272 L 205 272 L 206 272 L 206 272 L 206 272 L 206 272 L 207 272 L 207 272 L 207 272 L 207 272 L 207 272 L 207 272 L 208 272 L 208 272 L 208 272 L 208 272 L 209 272 L 209 272 L 209 272 L 209 272 L 209 272 L 209 272 L 210 272 L 210 272 L 210 272 L 210 272 L 211 272 L 211 272 L 211 272 L 211 272 L 211 272 L 211 272 L 212 272 L 212 272 L 212 272 L 212 272 L 213 272 L 213 272 L 213 272 L 213 272 L 213 272 L 213 272 L 214 272 L 214 272 L 214 272 L 214 272 L 215 272 L 215 272 L 215 272 L 215 272 L 215 272 L 215 272 L 216 272 L 216 272 L 216 272 L 216 272 L 217 272 L 217 272 L 217 272 L 217 272 L 217 272 L 217 272 L 218 272 L 218 272 L 218 272 L 218 272 L 218 272 L 218 272 L 219 272 L 219 272 L 219 272 L 219 272 L 219 272 L 219 272 L 219 272 L 219 272 L 220 272 L 220 272 L 220 272 L 220 272 L 220 272 L 220 272 L 221 272 L 221 272 L 221 272 L 221 272 L 221 272 L 221 272 L 222 272 L 222 272 L 222 272 L 222 272 L 222 272 L 222 272 L 222 272 L 222 272 L 223 272 L 223 272 L 223 272 L 223 272 L 223 272 L 223 272 L 224 272 L 224 272 L 224 272 L 224 272 L 224 272 L 224 272 L 225 272 L 225 272 L 225 272 L 225 272 L 225 272 L 225 272 L 225 272 L 225 272 L 226 272 L 226 272 L 226 272 L 226 272 L 226 272 L 226 272 L 227 272 L 227 272 L 227 272 L 227 272 L 227 272 L 227 272 L 228 272 L 228 272 L 228 272 L 228 272 L 228 272 L 228 272 L 228 272 L 228 272 L 229 272 L 229 272 L 229 272 L 229 272 L 229 272 L 229 272 L 230 272 L 230 272 L 230 272 L 230 272 L 230 272 L 230 272 L 231 272 L 231 272 L 231 272 L 231 272 L 231 272 L 231 272 L 231 272 L 231 272 L 232 272 L 232 272 L 232 272 L 232 272 L 232 272 L 232 272 L 233 272 L 233 272 L 233 272 L 233 272 L 233 272 L 233 272 L 234 272 L 234 272 L 234 272 L 234 272 L 234 272 L 234 272 L 234 272 L 234 272 L 235 272 L 235 272 L 235 272 L 235 272 L 235 272 L 235 272 L 236 272 L 236 272 L 236 272 L 236 272 L 236 272 L 236 272 L 237 272 L 237 272 L 237 272 L 237 272 L 237 272 L 237 272 L 237 272 L 237 272 L 238 272 L 238 272 L 238 272 L 238 272 L 238 272 L 238 272 L 239 272 L 239 272 L 239 272 L 239 272 L 239 272 L 239 272 L 240 272 L 240 272 L 240 272 L 240 272 L 240 272 L 240 272 L 240 272 L 240 272 L 241 272 L 241 272 L 241 272 L 241 272 L 241 272 L 241 272 L 242 272 L 242 272 L 242 272 L 242 272 L 242 272 L 242 272 L 243 272 L 243 272 L 243 272 L 243 272 L 243 272 L 243 272 L 243 272 L 243 272 L 244 272 L 244 272 L 244 272 L 244 272 L 244 272 L 244 272 L 245 272 L 245 272 L 245 272 L 245 272 L 245 272 L 245 272 L 246 272 L 246 272 L 246 272 L 246 272 L 246 272 L 246 272 L 246 272 L 246 272 L 247 272 L 247 272 L 247 272 L 247 272 L 247 272 L 247 272 L 248 272 L 248 272 L 248 272 L 248 272 L 248 272 L 248 272 L 249 272 L 249 272 L 249 272 L 249 272 L 249 272 L 249 272 L 249 272 L 249 272 L 250 272 L 250 272 L 250 272 L 250 272 L 250 272 L 250 272 L 251 272 L 251 272 L 251 272 L 251 272 L 251 272 L 251 272 L 252 272 L 252 272 L 252 272 L 252 272 L 252 272 L 252 272 L 253 272 L 253 272 L 253 272 L 253 272 L 253 272 L 253 272 L 253 272 L 253 272 L 254 272 L 254 272 L 254 272 L 254 272 L 254 272 L 254 272 L 255 272 L 255 272 L 255 272 L 255 272 L 255 272 L 255 272 L 256 272 L 256 272 L 256 272 L 256 272 L 256 272 L 256 272 L 256 272 L 256 272 L 257 272 L 257 272 L 257 272 L 257 272 L 257 272 L 257 272 L 258 272 L 258 272 L 258 272 L 258 272 L 258 272 L 258 272 L 258 272 L 258 272 L 259 272 L 259 272 L 259 272 L 259 272 L 259 272 L 259 272 L 260 272 L 260 272 L 260 272 L 260 272 L 260 272 L 260 272 L 261 272 L 261 272 L 261 272 L 261 272 L 261 272 L 261 272 L 261 272 L 261 272 L 262 272 L 262 272 L 262 272 L 262 272 L 262 272 L 262 272 L 263 272 L 263 272 L 263 272 L 263 272 L 263 272 L 263 272 L 264 272 L 264 272 L 264 272 L 264 272 L 264 272 L 264 272 L 264 272 L 264 272 L 265 272 L 265 272 L 265 272 L 265 272 L 265 272 L 265 272 L 266 272 L 266 272 L 266 272 L 266 272 L 266 272 L 266 272 L 267 272 L 267 272 L 267 272 L 267 272 L 267 272 L 267 272 L 267 272 L 267 272 L 268 272 L 268 272 L 268 272 L 268 272 L 268 272 L 268 272 L 269 272 L 269 272 L 269 272 L 269 272 L 269 272 L 269 272 L 270 272 L 270 272 L 270 272 L 270 272 L 270 272 L 270 272 L 270 272 L 270 272 L 271 272 L 271 272 L 271 272 L 271 272 L 271 272 L 271 272 L 272 272 L 272 272 L 272 272 L 272 272 L 272 272 L 272 272 L 273 272 L 273 272 L 273 272 L 273 272 L 273 272 L 273 272 L 273 272 L 273 272 L 274 272 L 274 272 L 274 272 L 274 272 L 274 272 L 274 272 L 275 272 L 275 272 L 275 272 L 275 272 L 275 272 L 275 272 L 276 272 L 276 272 L 276 272 L 276 272 L 276 272 L 276 272 L 276 272 L 276 272 L 277 272 L 277 272 L 277 272 L 277 272 L 277 272 L 277 272 L 278 272 L 278 272 L 278 272 L 278 272 L 278 272 L 278 272 L 279 272 L 279 272 L 279 272 L 279 272 L 279 272 L 279 272 L 279 272 L 279 272 L 280 272 L 280 272 L 280 272 L 280 272 L 280 272 L 280 272 L 281 272 L 281 272 L 281 272 L 281 272 L 281 272 L 281 272 L 282 272 L 282 272 L 282 272 L 282 272 L 282 272 L 282 272 L 282 272 L 282 272 L 283 272 L 283 272 L 283 272 L 283 272 L 283 272 L 283 272 L 284 272 L 284 272 L 284 272 L 284 272 L 284 272 L 284 272 L 285 272 L 285 272 L 285 272 L 285 272 L 285 272 L 285 272 L 285 272 L 285 272 L 286 272 L 286 272 L 286 272 L 286 272 L 286 272 L 286 272 L 287 272 L 287 272 L 287 272 L 287 272 L 287 272 L 287 272 L 288 272 L 288 272 L 288 272 L 288 272 L 288 272 L 288 272 L 288 272 L 288 272 L 289 272 L 289 272 L 289 272 L 289 272 L 289 272 L 289 272 L 290 272 L 290 272 L 290 272 L 290 272 L 290 272 L 290 272 L 291 272 L 291 272 L 291 272 L 291 272 L 291 272 L 291 272 L 291 272 L 291 272 L 292 272 L 292 272 L 292 272 L 292 272 L 292 272 L 292 272 L 292 272 L 292 272 L 292 272 L 292 272 L 293 272 L 293 272 L 293 272 L 293 272 L 293 272 L 293 272 L 293 272 L 293 272 L 293 272 L 293 272 L 294 272 L 294 272 L 294 272 L 294 272 L 294 272 L 294 272 L 294 272 L 294 272 Q 324 272 345 251 L 363 234 L 363 234 Q 388 208 424 208 Q 461 209 486 234 Q 511 258 511 295 L 512 400 L 512 400 Q 511 434 489 457 Q 466 479 432 480 L 416 480 L 416 480 Q 382 479 359 457 Q 337 434 336 400 L 336 392 L 336 392 Q 337 385 344 384 Q 351 385 352 392 L 352 400 L 352 400 Q 353 427 371 445 Q 389 463 416 464 L 432 464 L 432 464 Q 459 463 477 445 Q 495 427 496 400 L 496 295 L 496 295 Q 495 265 475 245 Q 455 225 425 224 Q 395 224 375 245 L 357 262 L 357 262 Q 331 288 295 288 L 295 288 L 295 288 L 294 288 L 294 288 L 294 288 L 294 288 L 294 288 L 294 288 L 294 288 L 294 288 L 294 288 L 294 288 L 293 288 L 293 288 L 293 288 L 293 288 L 293 288 L 293 288 L 293 288 L 293 288 L 293 288 L 293 288 L 292 288 L 292 288 L 292 288 L 292 288 L 292 288 L 292 288 L 292 288 L 292 288 L 291 288 L 291 288 L 291 288 L 291 288 L 291 288 L 291 288 L 291 288 L 291 288 L 290 288 L 290 288 L 290 288 L 290 288 L 290 288 L 290 288 L 289 288 L 289 288 L 289 288 L 289 288 L 289 288 L 289 288 L 288 288 L 288 288 L 288 288 L 288 288 L 288 288 L 288 288 L 288 288 L 288 288 L 287 288 L 287 288 L 287 288 L 287 288 L 287 288 L 287 288 L 286 288 L 286 288 L 286 288 L 286 288 L 286 288 L 286 288 L 286 288 L 286 288 L 285 288 L 285 288 L 285 288 L 285 288 L 285 288 L 285 288 L 284 288 L 284 288 L 284 288 L 284 288 L 284 288 L 284 288 L 283 288 L 283 288 L 283 288 L 283 288 L 283 288 L 283 288 L 283 288 L 283 288 L 282 288 L 282 288 L 282 288 L 282 288 L 282 288 L 282 288 L 281 288 L 281 288 L 281 288 L 281 288 L 281 288 L 281 288 L 280 288 L 280 288 L 280 288 L 280 288 L 280 288 L 280 288 L 280 288 L 280 288 L 279 288 L 279 288 L 279 288 L 279 288 L 279 288 L 279 288 L 278 288 L 278 288 L 278 288 L 278 288 L 278 288 L 278 288 L 277 288 L 277 288 L 277 288 L 277 288 L 277 288 L 277 288 L 277 288 L 277 288 L 276 288 L 276 288 L 276 288 L 276 288 L 276 288 L 276 288 L 275 288 L 275 288 L 275 288 L 275 288 L 275 288 L 275 288 L 274 288 L 274 288 L 274 288 L 274 288 L 274 288 L 274 288 L 274 288 L 274 288 L 273 288 L 273 288 L 273 288 L 273 288 L 273 288 L 273 288 L 272 288 L 272 288 L 272 288 L 272 288 L 272 288 L 272 288 L 271 288 L 271 288 L 271 288 L 271 288 L 271 288 L 271 288 L 271 288 L 271 288 L 270 288 L 270 288 L 270 288 L 270 288 L 270 288 L 270 288 L 269 288 L 269 288 L 269 288 L 269 288 L 269 288 L 269 288 L 268 288 L 268 288 L 268 288 L 268 288 L 268 288 L 268 288 L 268 288 L 268 288 L 267 288 L 267 288 L 267 288 L 267 288 L 267 288 L 267 288 L 266 288 L 266 288 L 266 288 L 266 288 L 266 288 L 266 288 L 265 288 L 265 288 L 265 288 L 265 288 L 265 288 L 265 288 L 265 288 L 265 288 L 264 288 L 264 288 L 264 288 L 264 288 L 264 288 L 264 288 L 263 288 L 263 288 L 263 288 L 263 288 L 263 288 L 263 288 L 262 288 L 262 288 L 262 288 L 262 288 L 262 288 L 262 288 L 262 288 L 262 288 L 261 288 L 261 288 L 261 288 L 261 288 L 261 288 L 261 288 L 260 288 L 260 288 L 260 288 L 260 288 L 260 288 L 260 288 L 259 288 L 259 288 L 259 288 L 259 288 L 259 288 L 259 288 L 259 288 L 259 288 L 258 288 L 258 288 L 258 288 L 258 288 L 258 288 L 258 288 L 257 288 L 257 288 L 257 288 L 257 288 L 257 288 L 257 288 L 256 288 L 256 288 L 256 288 L 256 288 L 256 288 L 256 288 L 256 288 L 256 288 L 255 288 L 255 288 L 255 288 L 255 288 L 255 288 L 255 288 L 254 288 L 254 288 L 254 288 L 254 288 L 254 288 L 254 288 L 253 288 L 253 288 L 253 288 L 253 288 L 253 288 L 253 288 L 253 288 L 253 288 L 252 288 L 252 288 L 252 288 L 252 288 L 252 288 L 252 288 L 251 288 L 251 288 L 251 288 L 251 288 L 251 288 L 251 288 L 250 288 L 250 288 L 250 288 L 250 288 L 250 288 L 250 288 L 250 288 L 250 288 L 249 288 L 249 288 L 249 288 L 249 288 L 249 288 L 249 288 L 248 288 L 248 288 L 248 288 L 248 288 L 248 288 L 248 288 L 247 288 L 247 288 L 247 288 L 247 288 L 247 288 L 247 288 L 247 288 L 247 288 L 246 288 L 246 288 L 246 288 L 246 288 L 246 288 L 246 288 L 245 288 L 245 288 L 245 288 L 245 288 L 245 288 L 245 288 L 244 288 L 244 288 L 244 288 L 244 288 L 244 288 L 244 288 L 244 288 L 244 288 L 243 288 L 243 288 L 243 288 L 243 288 L 243 288 L 243 288 L 242 288 L 242 288 L 242 288 L 242 288 L 242 288 L 242 288 L 241 288 L 241 288 L 241 288 L 241 288 L 241 288 L 241 288 L 241 288 L 241 288 L 240 288 L 240 288 L 240 288 L 240 288 L 240 288 L 240 288 L 239 288 L 239 288 L 239 288 L 239 288 L 239 288 L 239 288 L 238 288 L 238 288 L 238 288 L 238 288 L 238 288 L 238 288 L 238 288 L 238 288 L 237 288 L 237 288 L 237 288 L 237 288 L 237 288 L 237 288 L 236 288 L 236 288 L 236 288 L 236 288 L 236 288 L 236 288 L 235 288 L 235 288 L 235 288 L 235 288 L 235 288 L 235 288 L 235 288 L 235 288 L 234 288 L 234 288 L 234 288 L 234 288 L 234 288 L 234 288 L 233 288 L 233 288 L 233 288 L 233 288 L 233 288 L 233 288 L 232 288 L 232 288 L 232 288 L 232 288 L 232 288 L 232 288 L 232 288 L 232 288 L 231 288 L 231 288 L 231 288 L 231 288 L 231 288 L 231 288 L 230 288 L 230 288 L 230 288 L 230 288 L 230 288 L 230 288 L 229 288 L 229 288 L 229 288 L 229 288 L 229 288 L 229 288 L 229 288 L 229 288 L 228 288 L 228 288 L 228 288 L 228 288 L 228 288 L 228 288 L 227 288 L 227 288 L 227 288 L 227 288 L 227 288 L 227 288 L 226 288 L 226 288 L 226 288 L 226 288 L 226 288 L 226 288 L 226 288 L 226 288 L 225 288 L 225 288 L 225 288 L 225 288 L 225 288 L 225 288 L 224 288 L 224 288 L 224 288 L 224 288 L 224 288 L 224 288 L 223 288 L 223 288 L 223 288 L 223 288 L 223 288 L 223 288 L 223 288 L 223 288 L 222 288 L 222 288 L 222 288 L 222 288 L 222 288 L 222 288 L 221 288 L 221 288 L 221 288 L 221 288 L 221 288 L 221 288 L 220 288 L 220 288 L 220 288 L 220 288 L 220 288 L 220 288 L 220 288 L 220 288 L 219 288 L 219 288 L 219 288 L 219 288 L 219 288 L 219 288 L 218 288 L 218 288 L 218 288 L 218 288 L 218 288 L 218 288 L 217 288 L 217 288 L 217 288 L 217 288 L 217 288 L 217 288 L 216 288 L 216 288 L 216 288 L 216 288 L 215 288 L 215 288 L 215 288 L 215 288 L 215 288 L 215 288 L 214 288 L 214 288 L 214 288 L 214 288 L 213 288 L 213 288 L 213 288 L 213 288 L 213 288 L 213 288 L 212 288 L 212 288 L 212 288 L 212 288 L 211 288 L 211 288 L 211 288 L 211 288 L 211 288 L 211 288 L 210 288 L 210 288 L 210 288 L 210 288 L 209 288 L 209 288 L 209 288 L 209 288 L 209 288 L 209 288 L 208 288 L 208 288 L 208 288 L 208 288 L 207 288 L 207 288 L 207 288 L 207 288 L 207 288 L 207 288 L 206 288 L 206 288 L 206 288 L 206 288 Q 237 304 255 331 Q 273 358 274 392 Q 272 444 234 477 Q 195 511 138 512 Q 81 511 41 477 Q 2 444 0 392 Q 1 385 8 384 Q 15 385 16 392 Q 17 436 51 465 Q 84 495 136 496 Q 188 495 221 465 Q 255 436 256 392 Q 255 348 221 319 Q 188 289 136 288 L 136 288 L 136 288 L 136 288 L 136 288 L 135 288 L 135 288 L 135 288 L 135 288 L 135 288 L 135 288 L 134 288 L 134 288 L 134 288 L 134 288 L 134 288 L 134 288 L 133 288 L 133 288 L 133 288 L 133 288 L 133 288 L 133 288 L 132 288 L 132 288 L 132 288 L 132 288 L 132 288 L 132 288 L 132 288 L 132 288 L 131 288 L 131 288 L 131 288 L 131 288 L 131 288 L 131 288 L 130 288 L 130 288 L 130 288 L 130 288 L 130 288 L 130 288 L 129 288 L 129 288 L 129 288 L 129 288 L 129 288 L 129 288 L 129 288 L 129 288 Q 121 287 121 280 Q 121 273 129 272 L 129 272 L 129 272 L 129 272 L 129 272 L 129 272 L 129 272 L 130 272 L 130 272 L 130 272 L 130 272 L 130 272 L 130 272 L 131 272 L 131 272 L 131 272 L 131 272 L 131 272 L 131 272 L 132 272 L 132 272 L 132 272 L 132 272 L 132 272 L 132 272 L 132 272 L 132 272 L 133 272 L 133 272 L 133 272 L 133 272 L 133 272 L 133 272 L 134 272 L 134 272 L 134 272 L 134 272 L 134 272 L 134 272 L 135 272 L 135 272 L 135 272 L 135 272 L 135 272 L 135 272 L 136 272 L 136 272 L 136 272 L 136 272 L 136 272 L 136 272 L 136 272 L 136 272 L 137 272 L 137 272 L 137 272 L 137 272 L 137 272 L 137 272 L 138 272 L 138 272 L 138 272 L 138 272 L 138 272 L 138 272 L 139 272 L 139 272 L 139 272 L 139 272 L 139 272 L 139 272 L 139 272 L 139 272 L 140 272 L 140 272 L 140 272 L 140 272 L 140 272 L 140 272 Q 140 272 140 272 Q 140 272 140 272 Q 140 272 140 272 Q 140 272 141 272 Q 175 271 197 249 Q 220 226 220 192 Q 220 158 197 135 Q 174 113 140 112 L 141 112 Z M 286 107 Q 315 142 368 144 Q 421 142 450 107 Q 455 102 461 106 Q 466 111 462 117 Q 429 158 368 160 Q 307 158 274 117 Q 270 111 275 106 Q 281 102 286 107 L 286 107 Z" />
</svg>