<svg xmlns="http://www.w3.org/2000/svg" viewBox="0 0 448 512">
  <path d="M 232 493 Q 229 496 224 496 Q 219 496 216 493 L 84 361 L 84 361 Q 80 356 80 350 Q 81 337 94 336 L 168 336 L 168 336 Q 175 335 176 328 L 176 192 L 176 192 Q 177 177 192 176 L 256 176 L 256 176 Q 271 177 272 192 L 272 328 L 272 328 Q 273 335 280 336 L 354 336 L 354 336 Q 367 337 368 350 Q 368 356 364 361 L 232 493 L 232 493 Z M 224 512 Q 235 512 243 504 L 375 372 L 375 372 Q 384 363 384 350 Q 384 337 375 329 Q 367 320 354 320 L 288 320 L 288 320 L 288 192 L 288 192 Q 288 178 279 169 Q 270 160 256 160 L 192 160 L 192 160 Q 178 160 169 169 Q 160 178 160 192 L 160 320 L 160 320 L 94 320 L 94 320 Q 81 320 73 329 Q 64 337 64 350 Q 64 363 73 372 L 205 504 L 205 504 Q 213 512 224 512 L 224 512 Z M 432 184 Q 433 191 440 192 Q 447 191 448 184 L 448 88 L 448 88 Q 447 51 422 26 Q 397 1 360 0 L 88 0 L 88 0 Q 51 1 26 26 Q 1 51 0 88 L 0 184 L 0 184 Q 1 191 8 192 Q 15 191 16 184 L 16 88 L 16 88 Q 17 57 37 37 Q 57 17 88 16 L 360 16 L 360 16 Q 391 17 411 37 Q 431 57 432 88 L 432 184 L 432 184 Z" />
</svg>