<svg xmlns="http://www.w3.org/2000/svg" viewBox="0 0 352 512">
  <path d="M 208 336 L 297 336 L 208 336 L 297 336 Q 303 337 304 343 Q 304 346 302 348 L 162 495 L 162 495 Q 161 496 160 496 Q 159 496 158 495 L 18 348 L 18 348 Q 16 346 16 343 Q 17 337 23 336 L 112 336 L 112 336 Q 127 335 128 320 L 128 112 L 128 112 Q 129 71 156 44 Q 183 17 224 16 L 312 16 L 312 16 Q 334 18 336 40 L 336 56 L 336 56 Q 334 78 312 80 L 224 80 L 224 80 Q 210 80 201 89 Q 192 98 192 112 L 192 320 L 192 320 Q 193 335 208 336 L 208 336 Z M 174 506 L 314 359 L 174 506 L 314 359 Q 320 352 320 343 Q 318 322 297 320 L 224 320 L 208 320 L 208 304 L 208 304 L 208 112 L 208 112 Q 209 97 224 96 L 312 96 L 312 96 Q 329 96 340 84 Q 352 73 352 56 L 352 40 L 352 40 Q 352 23 340 12 Q 329 0 312 0 L 224 0 L 224 0 Q 176 1 145 33 Q 113 64 112 112 L 112 304 L 112 304 L 112 320 L 112 320 L 96 320 L 23 320 Q 2 322 0 343 Q 0 352 6 359 L 147 506 L 147 506 Q 152 512 160 512 Q 168 512 174 506 L 174 506 Z" />
</svg>