<svg xmlns="http://www.w3.org/2000/svg" viewBox="0 0 512 512">
  <path d="M 174.73016 77.71429 Q 181.84126 77.71429 185.90475 72.63492 L 232.63492 25.904762 Q 242.79366 16.761906 256 16.761906 Q 269.20636 16.761906 279.36508 25.904762 L 290.53967 14.730159 L 279.36508 25.904762 L 326.09525 72.63492 Q 330.15872 77.71429 337.26984 77.71429 L 402.2857 77.71429 Q 416.50793 77.71429 425.6508 86.85714 Q 434.79364 96 434.79364 110.22222 L 434.79364 175.2381 Q 434.79364 182.34921 439.87302 186.4127 L 485.5873 233.14285 Q 495.74603 243.30159 495.74603 256.50793 Q 495.74603 268.69843 485.5873 278.85715 L 439.87302 325.5873 Q 434.79364 330.66666 434.79364 336.7619 L 434.79364 402.79364 Q 434.79364 417.01587 425.6508 426.15872 Q 416.50793 435.30157 402.2857 435.30157 L 336.25397 435.30157 Q 330.15872 435.30157 325.07938 440.38095 L 279.36508 486.09525 Q 269.20636 495.2381 256 495.2381 Q 242.79366 495.2381 232.63492 486.09525 L 186.92064 440.38095 Q 182.85715 435.30157 175.74603 435.30157 L 109.71429 435.30157 Q 95.492065 435.30157 86.349205 426.15872 Q 77.20635 417.01587 77.20635 402.79364 L 77.20635 336.7619 Q 77.20635 330.66666 72.12698 325.5873 L 26.412699 278.85715 Q 16.25397 268.69843 16.25397 256.50793 Q 16.25397 243.30159 26.412699 233.14285 L 72.12698 186.4127 Q 77.20635 182.34921 77.20635 175.2381 L 77.20635 110.22222 Q 77.20635 96 86.349205 86.85714 Q 95.492065 77.71429 109.71429 77.71429 L 174.73016 77.71429 L 174.73016 77.71429 Z M 337.26984 61.460316 L 290.53967 14.730159 Q 275.30157 0.50793654 256 0.50793654 Q 236.69841 0.50793654 221.46031 14.730159 L 174.73016 61.460316 L 109.71429 61.460316 Q 89.39683 62.47619 75.17461 75.68254 Q 61.968254 89.90476 60.95238 110.22222 L 60.95238 175.2381 L 14.222222 221.96825 Q 0 236.19048 0 256.50793 Q 0 275.8095 14.222222 291.0476 L 60.95238 336.7619 L 60.95238 402.79364 Q 61.968254 423.1111 75.17461 437.33334 Q 89.39683 450.53967 109.71429 451.55554 L 175.74603 451.55554 L 221.46031 497.26984 Q 236.69841 511.49207 256 511.49207 Q 275.30157 511.49207 290.53967 497.26984 L 336.25397 451.55554 L 402.2857 451.55554 Q 422.60318 450.53967 436.8254 437.33334 Q 450.03174 423.1111 451.0476 402.79364 L 451.0476 336.7619 L 497.77777 291.0476 Q 512 275.8095 512 256.50793 Q 512 236.19048 497.77777 221.96825 L 451.0476 175.2381 L 451.0476 110.22222 Q 450.03174 89.90476 436.8254 75.68254 Q 422.60318 62.47619 402.2857 61.460316 L 337.26984 61.460316 L 337.26984 61.460316 Z M 166.60318 183.36508 L 166.60318 190.4762 Q 167.61905 197.5873 174.73016 198.60318 Q 181.84126 197.5873 182.85715 190.4762 L 182.85715 183.36508 Q 182.85715 166.09525 195.04762 154.92064 Q 206.22223 142.73016 223.49207 142.73016 L 280.38095 142.73016 Q 301.7143 143.74603 314.92062 156.95238 Q 328.12698 170.15874 329.14285 191.49207 Q 328.12698 216.88889 307.8095 232.12698 L 251.93651 268.69843 Q 247.87302 270.73016 247.87302 275.8095 L 247.87302 305.26984 Q 248.88889 312.38095 256 313.39682 Q 263.1111 312.38095 264.12698 305.26984 L 264.12698 279.87302 L 315.9365 245.33333 Q 344.38095 226.03175 345.39682 191.49207 Q 344.38095 164.06349 326.09525 145.77777 Q 307.8095 127.492065 280.38095 126.47619 L 223.49207 126.47619 Q 199.11111 127.492065 182.85715 142.73016 Q 167.61905 158.98413 166.60318 183.36508 L 166.60318 183.36508 Z M 272.25397 354.03174 Q 271.2381 338.79364 256 337.77777 Q 240.7619 338.79364 239.74603 354.03174 Q 240.7619 369.26984 256 370.2857 Q 271.2381 369.26984 272.25397 354.03174 L 272.25397 354.03174 Z" />
</svg>