<svg xmlns="http://www.w3.org/2000/svg" viewBox="0 0 576 448">
  <path d="M 16 72 Q 17 48 32 32 L 32 32 L 32 32 Q 48 17 72 16 Q 96 17 112 32 Q 127 48 128 72 L 128 153 L 128 153 Q 128 163 135 170 L 151 186 L 151 186 Q 156 192 151 198 L 135 214 L 135 214 Q 128 221 128 231 L 128 368 L 128 368 Q 129 402 151 425 Q 174 447 208 448 L 496 448 L 496 448 Q 530 447 553 425 Q 575 402 576 368 L 576 336 L 576 336 Q 576 322 567 313 Q 558 304 544 304 L 544 304 L 544 304 L 543 304 L 543 304 L 543 304 L 543 304 L 543 304 L 543 304 L 543 304 L 543 304 L 542 304 L 542 304 L 542 304 L 542 304 L 542 304 L 542 304 L 541 304 L 541 304 L 541 304 L 541 304 L 541 304 L 541 304 L 540 304 L 540 304 L 540 304 L 540 304 L 540 304 L 540 304 L 540 304 L 540 304 L 539 304 L 539 304 L 539 304 L 539 304 L 539 304 L 539 304 L 538 304 L 538 304 L 538 304 L 538 304 L 538 304 L 538 304 L 537 304 L 537 304 L 537 304 L 537 304 L 537 304 L 537 304 L 537 304 L 537 304 L 536 304 L 536 304 L 536 304 L 536 304 L 536 304 L 536 304 L 535 304 L 535 304 L 535 304 L 535 304 L 535 304 L 535 304 L 534 304 L 534 304 L 534 304 L 534 304 L 534 304 L 534 304 L 534 304 L 534 304 L 533 304 L 533 304 L 533 304 L 533 304 L 533 304 L 533 304 L 532 304 L 532 304 L 532 304 L 532 304 L 532 304 L 532 304 L 531 304 L 531 304 L 531 304 L 531 304 L 531 304 L 531 304 L 531 304 L 531 304 L 530 304 L 530 304 L 530 304 L 530 304 L 530 304 L 530 304 L 529 304 L 529 304 L 529 304 L 529 304 L 529 304 L 529 304 L 528 304 L 528 304 L 528 304 L 528 304 L 528 304 L 528 304 L 528 304 L 528 304 L 527 304 L 527 304 L 527 304 L 527 304 L 527 304 L 527 304 L 526 304 L 526 304 L 526 304 L 526 304 L 526 304 L 526 304 L 525 304 L 525 304 L 525 304 L 525 304 L 525 304 L 525 304 L 525 304 L 525 304 L 524 304 L 524 304 L 524 304 L 524 304 L 524 304 L 524 304 L 523 304 L 523 304 L 523 304 L 523 304 L 523 304 L 523 304 L 522 304 L 522 304 L 522 304 L 522 304 L 522 304 L 522 304 L 522 304 L 522 304 L 521 304 L 521 304 L 521 304 L 521 304 L 521 304 L 521 304 L 520 304 L 520 304 L 520 304 L 520 304 L 520 304 L 520 304 L 519 304 L 519 304 L 519 304 L 519 304 L 519 304 L 519 304 L 519 304 L 519 304 L 518 304 L 518 304 L 518 304 L 518 304 L 518 304 L 518 304 L 517 304 L 517 304 L 517 304 L 517 304 L 517 304 L 517 304 L 516 304 L 516 304 L 516 304 L 516 304 L 516 304 L 516 304 L 516 304 L 516 304 L 515 304 L 515 304 L 515 304 L 515 304 L 515 304 L 515 304 L 514 304 L 514 304 L 514 304 L 514 304 L 514 304 L 514 304 L 513 304 L 513 304 L 513 304 L 513 304 L 513 304 L 513 304 L 513 304 L 513 304 L 512 304 L 512 304 L 512 304 L 512 304 L 512 304 L 512 304 L 511 304 L 511 304 L 511 304 L 511 304 L 511 304 L 511 304 L 511 304 L 511 304 L 510 304 L 510 304 L 510 304 L 510 304 L 510 304 L 510 304 L 509 304 L 509 304 L 509 304 L 509 304 L 509 304 L 509 304 L 509 304 L 509 304 L 508 304 L 508 304 L 508 304 L 508 304 L 508 304 L 508 304 L 508 304 L 508 304 L 507 304 L 507 304 L 507 304 L 507 304 L 507 304 L 507 304 L 507 304 L 507 304 L 507 304 L 507 304 L 506 304 L 506 304 L 506 304 L 506 304 L 506 304 L 506 304 L 506 304 L 506 304 L 506 304 L 506 304 L 505 304 L 505 304 L 505 304 L 505 304 L 505 304 L 505 304 L 505 304 L 505 304 L 505 304 L 505 304 L 504 304 L 504 304 L 504 304 L 504 304 L 504 304 L 504 304 L 504 304 L 504 304 L 504 304 L 504 304 L 503 304 L 503 304 L 503 304 L 503 304 L 503 304 L 503 304 L 503 304 L 503 304 L 503 304 L 503 304 L 502 304 L 502 304 L 502 304 L 502 304 L 502 304 L 502 304 L 502 304 L 502 304 L 502 304 L 502 304 L 501 304 L 501 304 L 501 304 L 501 304 L 501 304 L 501 304 L 501 304 L 501 304 L 501 304 L 501 304 L 500 304 L 500 304 L 500 304 L 500 304 L 500 304 L 500 304 L 500 304 L 500 304 L 500 304 L 500 304 L 499 304 L 499 304 L 499 304 L 499 304 L 499 304 L 499 304 L 499 304 L 499 304 L 499 304 L 499 304 L 498 304 L 498 304 L 498 304 L 498 304 L 498 304 L 498 304 L 498 304 L 498 304 L 498 304 L 498 304 L 497 304 L 497 304 L 497 304 L 497 304 L 497 304 L 497 304 L 497 304 L 497 304 L 497 304 L 497 304 L 496 304 L 496 304 L 496 304 L 496 304 L 496 304 L 496 304 L 496 304 L 496 304 L 496 304 L 496 304 L 495 304 L 495 304 L 495 304 L 495 304 L 495 304 L 495 304 L 495 304 L 495 304 L 495 304 L 495 304 L 494 304 L 494 304 L 494 304 L 494 304 L 494 304 L 494 304 L 494 304 L 494 304 L 494 304 L 494 304 L 493 304 L 493 304 L 493 304 L 493 304 L 493 304 L 493 304 L 493 304 L 493 304 L 493 304 L 493 304 L 492 304 L 492 304 L 492 304 L 492 304 L 492 304 L 492 304 L 492 304 L 492 304 L 492 304 L 492 304 L 491 304 L 491 304 L 491 304 L 491 304 L 491 304 L 491 304 L 491 304 L 491 304 L 491 304 L 491 304 L 490 304 L 490 304 L 490 304 L 490 304 L 490 304 L 490 304 L 490 304 L 490 304 L 490 304 L 490 304 L 489 304 L 489 304 L 489 304 L 489 304 L 489 304 L 489 304 L 489 304 L 489 304 L 489 304 L 489 304 L 488 304 L 488 304 L 488 304 L 488 304 L 488 304 L 488 304 L 488 304 L 488 304 L 488 304 L 488 304 L 487 304 L 487 304 L 487 304 L 487 304 L 487 304 L 487 304 L 487 304 L 487 304 L 487 304 L 487 304 L 486 304 L 486 304 L 486 304 L 486 304 L 486 304 L 486 304 L 486 304 L 486 304 L 486 304 L 486 304 L 485 304 L 485 304 L 485 304 L 485 304 L 485 304 L 485 304 L 485 304 L 485 304 L 485 304 L 485 304 L 484 304 L 484 304 L 484 304 L 484 304 L 484 304 L 484 304 L 484 304 L 484 304 L 483 304 L 483 304 L 483 304 L 483 304 L 483 304 L 483 304 L 483 304 L 483 304 L 483 304 L 483 304 L 482 304 L 482 304 L 482 304 L 482 304 L 482 304 L 482 304 L 482 304 L 482 304 L 482 304 L 482 304 L 481 304 L 481 304 L 481 304 L 481 304 L 481 304 L 481 304 L 481 304 L 481 304 L 481 304 L 481 304 L 480 304 L 480 304 L 480 304 L 480 304 L 480 304 L 480 304 L 480 304 L 480 304 L 480 304 L 480 304 L 479 304 L 479 304 L 479 304 L 479 304 L 479 304 L 479 304 L 479 304 L 479 304 L 479 304 L 479 304 L 478 304 L 478 304 L 478 304 L 478 304 L 478 304 L 478 304 L 478 304 L 478 304 L 478 304 L 478 304 L 477 304 L 477 304 L 477 304 L 477 304 L 477 304 L 477 304 L 477 304 L 477 304 L 477 304 L 477 304 L 476 304 L 476 304 L 476 304 L 476 304 L 476 304 L 476 304 L 476 304 L 476 304 L 476 304 L 476 304 L 475 304 L 475 304 L 475 304 L 475 304 L 475 304 L 475 304 L 475 304 L 475 304 L 475 304 L 475 304 L 474 304 L 474 304 L 474 304 L 474 304 L 474 304 L 474 304 L 474 304 L 474 304 L 474 304 L 474 304 L 473 304 L 473 304 L 473 304 L 473 304 L 473 304 L 473 304 L 473 304 L 473 304 L 473 304 L 473 304 L 472 304 L 472 304 L 472 304 L 472 304 L 472 304 L 472 304 L 472 304 L 472 304 L 472 304 L 472 304 L 471 304 L 471 304 L 471 304 L 471 304 L 471 304 L 471 304 L 471 304 L 471 304 L 471 304 L 471 304 L 470 304 L 470 304 L 470 304 L 470 304 L 470 304 L 470 304 L 470 304 L 470 304 L 470 304 L 470 304 L 469 304 L 469 304 L 469 304 L 469 304 L 469 304 L 469 304 L 469 304 L 469 304 L 469 304 L 469 304 L 468 304 L 468 304 L 468 304 L 468 304 L 468 304 L 468 304 L 468 304 L 468 304 L 468 304 L 468 304 L 467 304 L 467 304 L 467 304 L 467 304 L 467 304 L 467 304 L 467 304 L 467 304 L 467 304 L 467 304 L 466 304 L 466 304 L 466 304 L 466 304 L 466 304 L 466 304 L 466 304 L 466 304 L 466 304 L 466 304 L 465 304 L 465 304 L 465 304 L 465 304 L 465 304 L 465 304 L 465 304 L 465 304 L 465 304 L 465 304 L 464 304 L 464 304 L 464 304 L 464 304 L 464 304 L 464 304 L 464 304 L 464 304 L 464 304 L 464 304 L 463 304 L 463 304 L 463 304 L 463 304 L 463 304 L 463 304 L 463 304 L 463 304 L 463 304 L 463 304 L 462 304 L 462 304 L 462 304 L 462 304 L 462 304 L 462 304 L 462 304 L 462 304 L 462 304 L 462 304 L 461 304 L 461 304 L 461 304 L 461 304 L 461 304 L 461 304 L 461 304 L 461 304 L 461 304 L 461 304 L 460 304 L 460 304 L 460 304 L 460 304 L 460 304 L 460 304 L 460 304 L 460 304 L 460 304 L 460 304 L 459 304 L 459 304 L 459 304 L 459 304 L 459 304 L 459 304 L 459 304 L 459 304 L 459 304 L 459 304 L 458 304 L 458 304 L 458 304 L 458 304 L 458 304 L 458 304 L 458 304 L 458 304 L 458 304 L 458 304 L 457 304 L 457 304 L 457 304 L 457 304 L 457 304 L 457 304 L 457 304 L 457 304 L 457 304 L 457 304 L 456 304 L 456 304 L 456 304 L 456 304 L 456 304 L 456 304 L 456 304 L 456 304 L 456 304 L 456 304 L 455 304 L 455 304 L 455 304 L 455 304 L 455 304 L 455 304 L 455 304 L 455 304 L 455 304 L 455 304 L 454 304 L 454 304 L 454 304 L 454 304 L 454 304 L 454 304 L 454 304 L 454 304 L 454 304 L 454 304 L 453 304 L 453 304 L 453 304 L 453 304 L 453 304 L 453 304 L 453 304 L 453 304 L 453 304 L 453 304 L 452 304 L 452 304 L 452 304 L 452 304 L 452 304 L 452 304 L 452 304 L 452 304 L 452 304 L 452 304 L 451 304 L 451 304 L 451 304 L 451 304 L 451 304 L 451 304 L 451 304 L 451 304 L 451 304 L 451 304 L 450 304 L 450 304 L 450 304 L 450 304 L 450 304 L 450 304 L 450 304 L 450 304 L 450 304 L 450 304 L 449 304 L 449 304 L 449 304 L 449 304 L 449 304 L 449 304 L 449 304 L 449 304 L 449 304 L 449 304 L 448 304 L 448 304 L 448 304 L 448 304 L 448 304 L 448 304 L 448 304 L 448 304 L 448 304 L 448 304 L 447 304 L 447 304 L 447 304 L 447 304 L 447 304 L 447 304 L 447 304 L 447 304 L 447 304 L 447 304 L 446 304 L 446 304 L 446 304 L 446 304 L 446 304 L 446 304 L 446 304 L 446 304 L 446 304 L 446 304 L 445 304 L 445 304 L 445 304 L 445 304 L 445 304 L 445 304 L 445 304 L 445 304 L 445 304 L 445 304 L 444 304 L 444 304 L 444 304 L 444 304 L 444 304 L 444 304 L 444 304 L 444 304 L 444 304 L 444 304 L 443 304 L 443 304 L 443 304 L 443 304 L 443 304 L 443 304 L 443 304 L 443 304 L 443 304 L 443 304 L 442 304 L 442 304 L 442 304 L 442 304 L 442 304 L 442 304 L 442 304 L 442 304 L 442 304 L 442 304 L 441 304 L 441 304 L 441 304 L 441 304 L 441 304 L 441 304 L 441 304 L 441 304 L 441 304 L 441 304 L 440 304 L 440 304 L 440 304 L 440 304 L 440 304 L 440 304 L 440 304 L 440 304 L 440 304 L 440 304 L 439 304 L 439 304 L 439 304 L 439 304 L 439 304 L 439 304 L 439 304 L 439 304 L 439 304 L 439 304 L 438 304 L 438 304 L 438 304 L 438 304 L 438 304 L 438 304 L 438 304 L 438 304 L 438 304 L 438 304 L 437 304 L 437 304 L 437 304 L 437 304 L 437 304 L 437 304 L 437 304 L 437 304 L 437 304 L 437 304 L 436 304 L 436 304 L 436 304 L 436 304 L 436 304 L 436 304 L 436 304 L 436 304 L 436 304 L 436 304 L 435 304 L 435 304 L 435 304 L 435 304 L 435 304 L 435 304 L 435 304 L 435 304 L 435 304 L 435 304 L 434 304 L 434 304 L 434 304 L 434 304 L 434 304 L 434 304 L 434 304 L 434 304 L 434 304 L 434 304 L 433 304 L 433 304 L 433 304 L 433 304 L 433 304 L 433 304 L 433 304 L 433 304 L 433 304 L 433 304 L 432 304 L 432 304 L 432 304 L 432 304 L 432 304 L 432 304 L 432 304 L 432 304 L 432 304 L 432 304 L 431 304 L 431 304 L 431 304 L 431 304 L 431 304 L 431 304 L 431 304 L 431 304 L 431 304 L 431 304 L 430 304 L 430 304 L 430 304 L 430 304 L 430 304 L 430 304 L 430 304 L 430 304 L 430 304 L 430 304 Q 418 304 411 313 L 396 331 L 396 331 Q 390 337 384 331 L 363 313 L 363 313 Q 356 304 344 304 Q 344 304 344 304 Q 344 304 344 304 Q 344 304 344 304 Q 344 304 344 304 Q 344 304 344 304 Q 344 304 344 304 Q 344 304 344 304 Q 344 304 344 304 Q 344 304 344 304 Q 344 304 344 304 Q 344 304 344 304 Q 344 304 344 304 Q 344 304 344 304 Q 344 304 344 304 Q 344 304 344 304 Q 344 304 343 304 Q 343 304 343 304 Q 343 304 343 304 Q 343 304 343 304 Q 343 304 343 304 Q 343 304 343 304 Q 343 304 343 304 Q 343 304 343 304 Q 343 304 343 304 Q 343 304 343 304 Q 343 304 343 304 Q 343 304 343 304 Q 343 304 343 304 Q 343 304 343 304 Q 343 304 343 304 Q 343 304 343 304 Q 343 304 343 304 Q 343 304 343 304 Q 343 304 343 304 Q 343 304 343 304 Q 343 304 342 304 Q 342 304 342 304 Q 342 304 342 304 Q 342 304 342 304 Q 342 304 342 304 Q 342 304 342 304 Q 342 304 342 304 Q 342 304 342 304 Q 342 304 342 304 Q 342 304 342 304 Q 342 304 342 304 Q 342 304 342 304 Q 342 304 342 304 Q 342 304 342 304 Q 342 304 342 304 Q 342 304 342 304 Q 342 304 342 304 Q 342 304 342 304 Q 342 304 342 304 Q 342 304 342 304 Q 342 304 341 304 Q 341 304 341 304 Q 341 304 341 304 Q 341 304 341 304 Q 341 304 341 304 Q 341 304 341 304 Q 341 304 341 304 Q 341 304 341 304 Q 341 304 341 304 Q 341 304 341 304 Q 341 304 341 304 Q 341 304 341 304 Q 341 304 341 304 Q 341 304 341 304 Q 341 304 341 304 Q 341 304 341 304 Q 341 304 341 304 Q 341 304 341 304 Q 341 304 341 304 Q 341 304 341 304 Q 341 304 340 304 Q 340 304 340 304 Q 340 304 340 304 Q 340 304 340 304 Q 340 304 340 304 Q 340 304 340 304 Q 340 304 340 304 Q 340 304 340 304 Q 340 304 340 304 Q 340 304 340 304 Q 340 304 340 304 Q 340 304 340 304 Q 340 304 340 304 Q 340 304 340 304 Q 340 304 340 304 Q 340 304 340 304 Q 340 304 340 304 Q 340 304 340 304 Q 340 304 340 304 Q 340 304 340 304 Q 339 304 339 304 Q 340 304 339 304 Q 339 304 339 304 Q 339 304 339 304 Q 339 304 339 304 Q 339 304 339 304 Q 339 304 339 304 Q 339 304 339 304 Q 339 304 339 304 Q 339 304 339 304 Q 339 304 339 304 Q 339 304 339 304 Q 339 304 339 304 Q 339 304 339 304 Q 339 304 339 304 Q 339 304 339 304 Q 339 304 339 304 Q 339 304 339 304 Q 339 304 339 304 Q 339 304 339 304 Q 338 304 338 304 Q 339 304 338 304 Q 338 304 338 304 Q 338 304 338 304 Q 338 304 338 304 Q 338 304 338 304 Q 338 304 338 304 Q 338 304 338 304 Q 338 304 338 304 Q 338 304 338 304 Q 338 304 338 304 Q 338 304 338 304 Q 338 304 338 304 Q 338 304 338 304 Q 338 304 338 304 Q 338 304 338 304 Q 338 304 338 304 Q 338 304 338 304 Q 338 304 338 304 Q 338 304 338 304 Q 338 304 337 304 Q 337 304 337 304 Q 337 304 337 304 Q 337 304 337 304 Q 337 304 337 304 Q 337 304 337 304 Q 337 304 337 304 Q 337 304 337 304 Q 337 304 337 304 Q 337 304 337 304 Q 337 304 337 304 Q 337 304 337 304 Q 337 304 337 304 Q 337 304 337 304 Q 337 304 337 304 Q 337 304 337 304 Q 337 304 337 304 Q 337 304 337 304 Q 337 304 337 304 Q 337 304 337 304 Q 336 304 336 304 Q 337 304 336 304 Q 336 304 336 304 Q 336 304 336 304 Q 336 304 336 304 Q 336 304 336 304 Q 336 304 336 304 Q 336 304 336 304 Q 336 304 336 304 Q 336 304 336 304 Q 336 304 336 304 Q 336 304 336 304 Q 336 304 336 304 Q 336 304 336 304 Q 336 304 336 304 Q 336 304 336 304 Q 336 304 336 304 Q 336 304 336 304 Q 336 304 336 304 Q 336 304 336 304 Q 336 304 335 304 Q 335 304 335 304 Q 335 304 335 304 Q 335 304 335 304 Q 335 304 335 304 Q 335 304 335 304 Q 335 304 335 304 Q 335 304 335 304 Q 335 304 335 304 Q 335 304 335 304 Q 335 304 335 304 Q 335 304 335 304 Q 335 304 335 304 Q 335 304 335 304 Q 335 304 335 304 Q 335 304 335 304 Q 335 304 335 304 Q 335 304 335 304 Q 335 304 335 304 Q 335 304 335 304 Q 335 304 334 304 Q 335 304 334 304 Q 334 304 334 304 Q 334 304 334 304 Q 334 304 334 304 Q 334 304 334 304 Q 334 304 334 304 Q 334 304 334 304 Q 334 304 334 304 Q 334 304 334 304 Q 334 304 334 304 Q 334 304 334 304 Q 334 304 334 304 Q 334 304 334 304 Q 334 304 334 304 Q 334 304 334 304 Q 334 304 334 304 Q 334 304 334 304 Q 334 304 334 304 Q 334 304 334 304 Q 334 304 333 304 Q 333 304 333 304 Q 333 304 333 304 Q 333 304 333 304 Q 333 304 333 304 Q 333 304 333 304 Q 333 304 333 304 Q 333 304 333 304 Q 333 304 333 304 Q 333 304 333 304 Q 333 304 333 304 Q 333 304 333 304 Q 333 304 333 304 Q 333 304 333 304 Q 333 304 333 304 Q 333 304 333 304 Q 333 304 333 304 Q 333 304 333 304 Q 333 304 333 304 Q 333 304 333 304 Q 333 304 332 304 Q 333 304 332 304 Q 332 304 332 304 Q 332 304 332 304 Q 332 304 332 304 Q 332 304 332 304 Q 332 304 332 304 Q 332 304 332 304 Q 332 304 332 304 Q 332 304 332 304 Q 332 304 332 304 Q 332 304 332 304 Q 332 304 332 304 Q 332 304 332 304 Q 332 304 332 304 Q 332 304 332 304 Q 332 304 332 304 Q 332 304 332 304 Q 332 304 332 304 Q 332 304 332 304 Q 332 304 331 304 Q 332 304 331 304 Q 331 304 331 304 Q 331 304 331 304 Q 331 304 331 304 Q 331 304 331 304 Q 331 304 331 304 Q 331 304 331 304 Q 331 304 331 304 Q 331 304 331 304 Q 331 304 331 304 Q 331 304 331 304 Q 331 304 331 304 Q 331 304 331 304 Q 331 304 331 304 Q 331 304 331 304 Q 331 304 331 304 Q 331 304 331 304 Q 331 304 331 304 Q 331 304 331 304 Q 331 304 330 304 Q 330 304 330 304 Q 330 304 330 304 Q 330 304 330 304 Q 330 304 330 304 Q 330 304 330 304 Q 330 304 330 304 Q 330 304 330 304 Q 330 304 330 304 Q 330 304 330 304 Q 330 304 330 304 Q 330 304 330 304 Q 330 304 330 304 Q 330 304 330 304 Q 330 304 330 304 Q 330 304 330 304 Q 330 304 330 304 Q 330 304 330 304 Q 330 304 330 304 Q 330 304 330 304 Q 330 304 329 304 Q 329 304 329 304 Q 329 304 329 304 Q 329 304 329 304 Q 329 304 329 304 Q 329 304 329 304 Q 329 304 329 304 Q 329 304 329 304 Q 329 304 329 304 Q 329 304 329 304 Q 329 304 329 304 Q 329 304 329 304 Q 329 304 329 304 Q 329 304 329 304 Q 329 304 329 304 Q 329 304 329 304 Q 329 304 329 304 Q 329 304 329 304 Q 329 304 329 304 Q 329 304 329 304 Q 329 304 328 304 Q 328 304 328 304 Q 328 304 328 304 Q 328 304 328 304 Q 328 304 328 304 Q 328 304 328 304 Q 328 304 328 304 Q 328 304 328 304 Q 328 304 328 304 Q 328 304 328 304 Q 328 304 328 304 Q 328 304 328 304 Q 328 304 328 304 Q 328 304 328 304 Q 328 304 328 304 Q 328 304 328 304 Q 328 304 328 304 Q 328 304 328 304 Q 328 304 328 304 Q 328 304 328 304 Q 328 304 327 304 Q 327 304 327 304 Q 327 304 327 304 Q 327 304 327 304 Q 327 304 327 304 Q 327 304 327 304 Q 327 304 327 304 Q 327 304 327 304 Q 327 304 327 304 Q 327 304 327 304 Q 327 304 327 304 Q 327 304 327 304 Q 327 304 327 304 Q 327 304 327 304 Q 327 304 327 304 Q 327 304 327 304 Q 327 304 327 304 Q 327 304 327 304 Q 327 304 327 304 Q 327 304 327 304 Q 327 304 326 304 Q 326 304 326 304 Q 326 304 326 304 Q 326 304 326 304 Q 326 304 326 304 Q 326 304 326 304 Q 326 304 326 304 Q 326 304 326 304 Q 326 304 326 304 Q 326 304 326 304 Q 326 304 326 304 Q 326 304 326 304 Q 326 304 326 304 Q 326 304 326 304 Q 326 304 326 304 Q 326 304 326 304 Q 326 304 326 304 Q 326 304 326 304 Q 326 304 326 304 Q 326 304 326 304 Q 326 304 325 304 Q 325 304 325 304 Q 325 304 325 304 Q 325 304 325 304 Q 325 304 325 304 Q 325 304 325 304 Q 325 304 325 304 Q 325 304 325 304 Q 325 304 325 304 Q 325 304 325 304 Q 325 304 325 304 Q 325 304 325 304 Q 325 304 325 304 Q 325 304 325 304 Q 325 304 325 304 Q 325 304 325 304 Q 325 304 325 304 Q 325 304 325 304 Q 325 304 325 304 Q 325 304 325 304 Q 325 304 324 304 Q 324 304 324 304 Q 324 304 324 304 Q 324 304 324 304 Q 324 304 324 304 Q 324 304 324 304 Q 324 304 324 304 Q 324 304 324 304 Q 324 304 324 304 Q 324 304 324 304 Q 324 304 324 304 Q 324 304 324 304 Q 324 304 324 304 Q 324 304 324 304 Q 324 304 324 304 Q 324 304 324 304 Q 324 304 324 304 Q 324 304 324 304 Q 324 304 324 304 Q 324 304 324 304 Q 324 304 323 304 Q 323 304 323 304 Q 323 304 323 304 Q 323 304 323 304 Q 323 304 323 304 Q 323 304 323 304 Q 323 304 323 304 Q 323 304 323 304 Q 323 304 323 304 Q 323 304 323 304 Q 323 304 323 304 Q 323 304 323 304 Q 323 304 323 304 Q 323 304 323 304 Q 323 304 323 304 Q 323 304 323 304 Q 323 304 323 304 Q 323 304 323 304 Q 323 304 323 304 Q 323 304 323 304 Q 323 304 322 304 Q 322 304 322 304 Q 322 304 322 304 Q 322 304 322 304 Q 322 304 322 304 Q 322 304 322 304 Q 322 304 322 304 Q 322 304 322 304 Q 322 304 322 304 Q 322 304 322 304 Q 322 304 322 304 Q 322 304 322 304 Q 322 304 322 304 Q 322 304 322 304 Q 322 304 322 304 Q 322 304 322 304 Q 322 304 322 304 Q 322 304 322 304 Q 322 304 322 304 Q 322 304 322 304 Q 322 304 321 304 Q 321 304 321 304 Q 321 304 321 304 Q 321 304 321 304 Q 321 304 321 304 Q 321 304 321 304 Q 321 304 321 304 Q 321 304 321 304 Q 321 304 321 304 Q 321 304 321 304 Q 321 304 321 304 Q 321 304 321 304 Q 321 304 321 304 Q 321 304 321 304 Q 321 304 321 304 Q 321 304 321 304 Q 321 304 321 304 Q 321 304 321 304 Q 321 304 321 304 Q 321 304 321 304 Q 321 304 320 304 Q 320 304 320 304 Q 320 304 320 304 Q 320 304 320 304 Q 320 304 320 304 Q 320 304 320 304 Q 320 304 320 304 Q 320 304 320 304 Q 320 304 320 304 Q 320 304 320 304 Q 320 304 320 304 Q 320 304 320 304 Q 320 304 320 304 Q 320 304 320 304 Q 320 304 320 304 Q 320 304 320 304 Q 320 304 320 304 Q 320 304 320 304 Q 320 304 320 304 Q 320 304 320 304 Q 320 304 319 304 Q 319 304 319 304 Q 319 304 319 304 Q 319 304 319 304 Q 319 304 319 304 Q 319 304 319 304 Q 319 304 319 304 Q 319 304 319 304 Q 319 304 319 304 Q 319 304 319 304 Q 319 304 319 304 Q 319 304 319 304 Q 319 304 319 304 Q 319 304 319 304 Q 319 304 319 304 Q 319 304 319 304 Q 319 304 319 304 Q 319 304 319 304 Q 319 304 319 304 Q 319 304 319 304 Q 319 304 318 304 Q 318 304 318 304 Q 318 304 318 304 Q 318 304 318 304 Q 318 304 318 304 Q 318 304 318 304 Q 318 304 318 304 Q 318 304 318 304 Q 318 304 318 304 Q 318 304 318 304 Q 318 304 318 304 Q 318 304 318 304 Q 318 304 318 304 Q 318 304 318 304 Q 318 304 318 304 Q 318 304 318 304 Q 318 304 318 304 Q 318 304 318 304 Q 318 304 318 304 Q 318 304 318 304 Q 318 304 317 304 Q 317 304 317 304 Q 317 304 317 304 Q 317 304 317 304 Q 317 304 317 304 Q 317 304 317 304 Q 317 304 317 304 Q 317 304 317 304 Q 317 304 317 304 Q 317 304 317 304 Q 317 304 317 304 Q 317 304 317 304 Q 317 304 317 304 Q 317 304 317 304 Q 317 304 317 304 Q 317 304 317 304 Q 317 304 317 304 Q 317 304 317 304 Q 317 304 317 304 Q 317 304 317 304 Q 317 304 316 304 Q 316 304 316 304 Q 316 304 316 304 Q 316 304 316 304 Q 316 304 316 304 Q 316 304 316 304 Q 316 304 316 304 Q 316 304 316 304 Q 316 304 316 304 Q 316 304 316 304 Q 316 304 316 304 Q 316 304 316 304 Q 316 304 316 304 Q 316 304 316 304 Q 316 304 316 304 Q 316 304 316 304 Q 316 304 316 304 Q 316 304 316 304 Q 316 304 316 304 Q 316 304 316 304 Q 316 304 315 304 Q 315 304 315 304 Q 315 304 315 304 Q 315 304 315 304 Q 315 304 315 304 Q 315 304 315 304 Q 315 304 315 304 Q 315 304 315 304 Q 315 304 315 304 Q 315 304 315 304 Q 315 304 315 304 Q 315 304 315 304 Q 315 304 315 304 Q 315 304 315 304 Q 315 304 315 304 Q 315 304 315 304 Q 315 304 315 304 Q 315 304 315 304 Q 315 304 315 304 Q 315 304 315 304 Q 315 304 314 304 Q 314 304 314 304 Q 314 304 314 304 Q 314 304 314 304 Q 314 304 314 304 Q 314 304 314 304 Q 314 304 314 304 Q 314 304 314 304 Q 314 304 314 304 Q 314 304 314 304 Q 314 304 314 304 Q 314 304 314 304 Q 314 304 314 304 Q 314 304 314 304 Q 314 304 314 304 Q 314 304 314 304 Q 314 304 314 304 Q 314 304 314 304 Q 314 304 314 304 Q 314 304 314 304 Q 314 304 313 304 Q 313 304 313 304 Q 313 304 313 304 Q 313 304 313 304 Q 313 304 313 304 Q 313 304 313 304 Q 313 304 313 304 Q 313 304 313 304 Q 313 304 313 304 Q 313 304 313 304 Q 313 304 313 304 Q 313 304 313 304 Q 313 304 313 304 Q 313 304 313 304 Q 313 304 313 304 Q 313 304 313 304 Q 313 304 313 304 Q 313 304 313 304 Q 313 304 313 304 Q 313 304 313 304 Q 313 304 312 304 Q 312 304 312 304 Q 312 304 312 304 Q 312 304 312 304 Q 312 304 312 304 Q 312 304 312 304 Q 312 304 312 304 Q 312 304 312 304 Q 312 304 312 304 Q 312 304 312 304 Q 312 304 312 304 Q 312 304 312 304 Q 312 304 312 304 Q 312 304 312 304 Q 312 304 312 304 Q 312 304 312 304 Q 312 304 312 304 Q 312 304 312 304 Q 312 304 312 304 Q 312 304 312 304 Q 312 304 311 304 Q 311 304 311 304 Q 311 304 311 304 Q 311 304 311 304 Q 311 304 311 304 Q 311 304 311 304 Q 311 304 311 304 Q 311 304 311 304 Q 311 304 311 304 Q 311 304 311 304 Q 311 304 311 304 Q 311 304 311 304 Q 311 304 311 304 Q 311 304 311 304 Q 311 304 311 304 Q 311 304 311 304 Q 311 304 311 304 Q 311 304 311 304 Q 311 304 311 304 Q 311 304 311 304 Q 311 304 310 304 Q 310 304 310 304 Q 310 304 310 304 Q 310 304 310 304 Q 310 304 310 304 Q 310 304 310 304 Q 310 304 310 304 Q 310 304 310 304 Q 310 304 310 304 Q 310 304 310 304 Q 310 304 310 304 Q 310 304 310 304 Q 310 304 310 304 Q 310 304 310 304 Q 310 304 310 304 Q 310 304 310 304 Q 310 304 310 304 Q 310 304 310 304 Q 310 304 310 304 Q 310 304 310 304 Q 310 304 309 304 Q 309 304 309 304 Q 309 304 309 304 Q 309 304 309 304 Q 309 304 309 304 Q 309 304 309 304 Q 309 304 309 304 Q 309 304 309 304 Q 309 304 309 304 Q 309 304 309 304 Q 309 304 309 304 Q 309 304 309 304 Q 309 304 309 304 Q 309 304 309 304 Q 309 304 309 304 Q 309 304 309 304 Q 309 304 309 304 Q 309 304 309 304 Q 309 304 309 304 Q 309 304 309 304 Q 309 304 308 304 Q 308 304 308 304 Q 308 304 308 304 Q 308 304 308 304 Q 308 304 308 304 Q 308 304 308 304 Q 308 304 308 304 Q 308 304 308 304 Q 308 304 308 304 Q 308 304 308 304 Q 308 304 308 304 Q 308 304 308 304 Q 308 304 308 304 Q 308 304 308 304 Q 308 304 308 304 Q 308 304 308 304 Q 308 304 308 304 Q 308 304 308 304 Q 308 304 308 304 Q 308 304 308 304 Q 308 304 307 304 Q 307 304 307 304 Q 307 304 307 304 Q 307 304 307 304 Q 307 304 307 304 Q 307 304 307 304 Q 307 304 307 304 Q 307 304 307 304 Q 307 304 307 304 Q 307 304 307 304 Q 307 304 307 304 Q 307 304 307 304 Q 307 304 307 304 Q 307 304 307 304 Q 307 304 307 304 Q 307 304 307 304 Q 307 304 307 304 Q 307 304 307 304 Q 307 304 307 304 Q 307 304 307 304 Q 307 304 306 304 Q 306 304 306 304 Q 306 304 306 304 Q 306 304 306 304 Q 306 304 306 304 Q 306 304 306 304 Q 306 304 306 304 Q 306 304 306 304 Q 306 304 306 304 Q 306 304 306 304 Q 306 304 306 304 Q 306 304 306 304 Q 306 304 306 304 Q 306 304 306 304 Q 306 304 306 304 Q 306 304 306 304 Q 306 304 306 304 Q 306 304 306 304 Q 306 304 306 304 Q 306 304 306 304 Q 306 304 305 304 Q 305 304 305 304 Q 305 304 305 304 Q 305 304 305 304 Q 305 304 305 304 Q 305 304 305 304 Q 305 304 305 304 Q 305 304 305 304 Q 305 304 305 304 Q 305 304 305 304 Q 305 304 305 304 Q 305 304 305 304 Q 305 304 305 304 Q 305 304 305 304 Q 305 304 305 304 Q 305 304 305 304 Q 305 304 305 304 Q 305 304 305 304 Q 305 304 305 304 Q 305 304 305 304 Q 305 304 304 304 Q 304 304 304 304 Q 304 304 304 304 Q 304 304 304 304 Q 304 304 304 304 Q 304 304 304 304 Q 304 304 304 304 Q 304 304 304 304 Q 304 304 304 304 Q 304 304 304 304 Q 304 304 304 304 Q 304 304 304 304 Q 304 304 304 304 Q 304 304 304 304 Q 304 304 304 304 Q 304 304 304 304 Q 304 304 304 304 Q 304 304 304 304 Q 304 304 304 304 Q 304 304 304 304 Q 304 304 303 304 Q 303 304 303 304 Q 303 304 303 304 Q 303 304 303 304 Q 303 304 303 304 Q 303 304 303 304 Q 303 304 303 304 Q 303 304 303 304 Q 303 304 303 304 Q 303 304 303 304 Q 303 304 303 304 Q 303 304 303 304 Q 303 304 303 304 Q 303 304 303 304 Q 303 304 303 304 Q 303 304 303 304 Q 303 304 303 304 Q 303 304 303 304 Q 303 304 303 304 Q 303 304 303 304 Q 303 304 302 304 Q 302 304 302 304 Q 302 304 302 304 Q 302 304 302 304 Q 302 304 302 304 Q 302 304 302 304 Q 302 304 302 304 Q 302 304 302 304 Q 302 304 302 304 Q 302 304 302 304 Q 302 304 302 304 Q 302 304 302 304 Q 302 304 302 304 Q 302 304 302 304 Q 302 304 302 304 Q 302 304 302 304 Q 302 304 302 304 Q 302 304 302 304 Q 302 304 302 304 Q 302 304 302 304 Q 302 304 301 304 Q 301 304 301 304 Q 301 304 301 304 Q 301 304 301 304 Q 301 304 301 304 Q 301 304 301 304 Q 301 304 301 304 Q 301 304 301 304 Q 301 304 301 304 Q 301 304 301 304 Q 301 304 301 304 Q 301 304 301 304 Q 301 304 301 304 Q 301 304 301 304 Q 301 304 301 304 Q 301 304 301 304 Q 301 304 301 304 Q 301 304 301 304 Q 301 304 301 304 Q 301 304 301 304 Q 301 304 300 304 Q 300 304 300 304 Q 300 304 300 304 Q 300 304 300 304 Q 300 304 300 304 Q 300 304 300 304 Q 300 304 300 304 Q 300 304 300 304 Q 300 304 300 304 Q 300 304 300 304 Q 300 304 300 304 Q 300 304 300 304 Q 300 304 300 304 Q 300 304 300 304 Q 300 304 300 304 Q 300 304 300 304 Q 300 304 300 304 Q 300 304 300 304 Q 300 304 300 304 Q 300 304 300 304 Q 300 304 299 304 Q 299 304 299 304 Q 299 304 299 304 Q 299 304 299 304 Q 299 304 299 304 Q 299 304 299 304 Q 299 304 299 304 Q 299 304 299 304 Q 299 304 299 304 Q 299 304 299 304 Q 299 304 299 304 Q 299 304 299 304 Q 299 304 299 304 Q 299 304 299 304 Q 299 304 299 304 Q 299 304 299 304 Q 299 304 299 304 Q 299 304 299 304 Q 299 304 299 304 Q 299 304 299 304 Q 299 304 298 304 Q 298 304 298 304 Q 298 304 298 304 Q 298 304 298 304 Q 298 304 298 304 Q 298 304 298 304 Q 298 304 298 304 Q 298 304 298 304 Q 298 304 298 304 Q 298 304 298 304 Q 298 304 298 304 Q 298 304 298 304 Q 298 304 298 304 Q 298 304 298 304 Q 298 304 298 304 Q 298 304 298 304 Q 298 304 298 304 Q 298 304 298 304 Q 298 304 298 304 Q 298 304 298 304 Q 298 304 297 304 Q 297 304 297 304 Q 297 304 297 304 Q 297 304 297 304 Q 297 304 297 304 Q 297 304 297 304 Q 297 304 297 304 Q 297 304 297 304 Q 297 304 297 304 Q 297 304 297 304 Q 297 304 297 304 Q 297 304 297 304 Q 297 304 297 304 Q 297 304 297 304 Q 297 304 297 304 Q 297 304 297 304 Q 297 304 297 304 Q 297 304 297 304 Q 297 304 297 304 Q 297 304 297 304 Q 297 304 296 304 Q 296 304 296 304 Q 296 304 296 304 Q 296 304 296 304 Q 296 304 296 304 Q 296 304 296 304 Q 296 304 296 304 Q 296 304 296 304 Q 296 304 296 304 Q 296 304 296 304 Q 296 304 296 304 Q 296 304 296 304 Q 296 304 296 304 Q 296 304 296 304 Q 296 304 296 304 Q 296 304 296 304 Q 296 304 296 304 Q 296 304 296 304 Q 296 304 296 304 Q 296 304 296 304 Q 296 304 295 304 Q 295 304 295 304 Q 295 304 295 304 Q 295 304 295 304 Q 295 304 295 304 Q 295 304 295 304 Q 295 304 295 304 Q 295 304 295 304 Q 295 304 295 304 Q 295 304 295 304 Q 295 304 295 304 Q 295 304 295 304 Q 295 304 295 304 Q 295 304 295 304 Q 295 304 295 304 Q 295 304 295 304 Q 295 304 295 304 Q 295 304 295 304 Q 295 304 295 304 Q 295 304 295 304 Q 295 304 294 304 Q 294 304 294 304 Q 294 304 294 304 Q 294 304 294 304 Q 294 304 294 304 Q 294 304 294 304 Q 294 304 294 304 Q 294 304 294 304 Q 294 304 294 304 Q 294 304 294 304 Q 294 304 294 304 Q 294 304 294 304 Q 294 304 294 304 Q 294 304 294 304 Q 294 304 294 304 Q 294 304 294 304 Q 294 304 294 304 Q 294 304 294 304 Q 294 304 294 304 Q 294 304 294 304 Q 294 304 293 304 Q 293 304 293 304 Q 293 304 293 304 Q 293 304 293 304 Q 293 304 293 304 Q 293 304 293 304 Q 293 304 293 304 Q 293 304 293 304 Q 293 304 293 304 Q 279 304 270 313 Q 261 322 261 336 L 261 368 L 261 368 Q 260 395 242 413 Q 224 431 197 432 Q 170 431 152 413 Q 134 395 133 368 L 133 231 L 133 231 Q 133 227 135 225 L 151 209 L 151 209 Q 165 192 151 175 L 135 159 L 135 159 Q 133 157 133 153 L 133 72 L 133 72 Q 132 37 106 16 L 408 16 L 408 16 Q 432 17 448 32 Q 463 48 464 72 L 464 89 L 464 89 Q 464 93 462 95 L 446 111 L 446 111 Q 432 128 446 145 L 462 161 L 462 161 Q 464 163 464 167 L 464 185 L 464 185 Q 464 189 462 191 L 446 207 L 446 207 Q 432 224 446 241 L 462 257 L 462 257 Q 464 259 464 263 L 464 272 L 464 272 L 480 272 L 480 272 L 480 263 L 480 263 Q 480 253 473 246 L 457 230 L 457 230 Q 452 224 457 218 L 473 202 L 473 202 Q 480 195 480 185 L 480 167 L 480 167 Q 480 157 473 150 L 457 134 L 457 134 Q 452 128 457 122 L 473 106 L 473 106 Q 480 99 480 89 L 480 72 L 480 72 Q 479 41 459 21 Q 439 1 408 0 L 72 0 L 72 0 Q 41 1 21 21 Q 1 41 0 72 L 0 144 L 0 144 Q 0 158 9 167 Q 18 176 32 176 L 96 176 L 96 176 L 96 160 L 96 160 L 32 160 L 32 160 Q 17 159 16 144 L 16 72 L 16 72 Z M 496 432 L 256 432 L 496 432 L 256 432 Q 287 409 288 368 L 288 336 L 288 336 Q 289 321 304 320 Q 304 320 304 320 Q 304 320 304 320 Q 304 320 304 320 Q 304 320 304 320 Q 304 320 304 320 Q 304 320 304 320 Q 304 320 304 320 Q 304 320 304 320 Q 304 320 304 320 Q 304 320 305 320 Q 305 320 305 320 Q 305 320 305 320 Q 305 320 305 320 Q 305 320 305 320 Q 305 320 305 320 Q 305 320 305 320 Q 305 320 305 320 Q 305 320 305 320 Q 305 320 305 320 Q 305 320 305 320 Q 305 320 305 320 Q 305 320 305 320 Q 305 320 305 320 Q 305 320 305 320 Q 305 320 305 320 Q 305 320 305 320 Q 305 320 305 320 Q 305 320 305 320 Q 305 320 305 320 Q 305 320 306 320 Q 306 320 306 320 Q 306 320 306 320 Q 306 320 306 320 Q 306 320 306 320 Q 306 320 306 320 Q 306 320 306 320 Q 306 320 306 320 Q 306 320 306 320 Q 306 320 306 320 Q 306 320 306 320 Q 306 320 306 320 Q 306 320 306 320 Q 306 320 306 320 Q 306 320 306 320 Q 306 320 306 320 Q 306 320 306 320 Q 306 320 306 320 Q 306 320 306 320 Q 306 320 306 320 Q 306 320 307 320 Q 307 320 307 320 Q 307 320 307 320 Q 307 320 307 320 Q 307 320 307 320 Q 307 320 307 320 Q 307 320 307 320 Q 307 320 307 320 Q 307 320 307 320 Q 307 320 307 320 Q 307 320 307 320 Q 307 320 307 320 Q 307 320 307 320 Q 307 320 307 320 Q 307 320 307 320 Q 307 320 307 320 Q 307 320 307 320 Q 307 320 307 320 Q 307 320 307 320 Q 307 320 307 320 Q 307 320 308 320 Q 308 320 308 320 Q 308 320 308 320 Q 308 320 308 320 Q 308 320 308 320 Q 308 320 308 320 Q 308 320 308 320 Q 308 320 308 320 Q 308 320 308 320 Q 308 320 308 320 Q 308 320 308 320 Q 308 320 308 320 Q 308 320 308 320 Q 308 320 308 320 Q 308 320 308 320 Q 308 320 308 320 Q 308 320 308 320 Q 308 320 308 320 Q 308 320 308 320 Q 308 320 308 320 Q 308 320 309 320 Q 309 320 309 320 Q 309 320 309 320 Q 309 320 309 320 Q 309 320 309 320 Q 309 320 309 320 Q 309 320 309 320 Q 309 320 309 320 Q 309 320 309 320 Q 309 320 309 320 Q 309 320 309 320 Q 309 320 309 320 Q 309 320 309 320 Q 309 320 309 320 Q 309 320 309 320 Q 309 320 309 320 Q 309 320 309 320 Q 309 320 309 320 Q 309 320 309 320 Q 309 320 309 320 Q 309 320 310 320 Q 310 320 310 320 Q 310 320 310 320 Q 310 320 310 320 Q 310 320 310 320 Q 310 320 310 320 Q 310 320 310 320 Q 310 320 310 320 Q 310 320 310 320 Q 310 320 310 320 Q 310 320 310 320 Q 310 320 310 320 Q 310 320 310 320 Q 310 320 310 320 Q 310 320 310 320 Q 310 320 310 320 Q 310 320 310 320 Q 310 320 310 320 Q 310 320 310 320 Q 310 320 310 320 Q 310 320 311 320 Q 311 320 311 320 Q 311 320 311 320 Q 311 320 311 320 Q 311 320 311 320 Q 311 320 311 320 Q 311 320 311 320 Q 311 320 311 320 Q 311 320 311 320 Q 311 320 311 320 Q 311 320 311 320 Q 311 320 311 320 Q 311 320 311 320 Q 311 320 311 320 Q 311 320 311 320 Q 311 320 311 320 Q 311 320 311 320 Q 311 320 311 320 Q 311 320 311 320 Q 311 320 311 320 Q 311 320 312 320 Q 312 320 312 320 Q 312 320 312 320 Q 312 320 312 320 Q 312 320 312 320 Q 312 320 312 320 Q 312 320 312 320 Q 312 320 312 320 Q 312 320 312 320 Q 312 320 312 320 Q 312 320 312 320 Q 312 320 312 320 Q 312 320 312 320 Q 312 320 312 320 Q 312 320 312 320 Q 312 320 312 320 Q 312 320 312 320 Q 312 320 312 320 Q 312 320 312 320 Q 312 320 312 320 Q 312 320 313 320 Q 313 320 313 320 Q 313 320 313 320 Q 313 320 313 320 Q 313 320 313 320 Q 313 320 313 320 Q 313 320 313 320 Q 313 320 313 320 Q 313 320 313 320 Q 313 320 313 320 Q 313 320 313 320 Q 313 320 313 320 Q 313 320 313 320 Q 313 320 313 320 Q 313 320 313 320 Q 313 320 313 320 Q 313 320 313 320 Q 313 320 313 320 Q 313 320 313 320 Q 313 320 313 320 Q 313 320 314 320 Q 314 320 314 320 Q 314 320 314 320 Q 314 320 314 320 Q 314 320 314 320 Q 314 320 314 320 Q 314 320 314 320 Q 314 320 314 320 Q 314 320 314 320 Q 314 320 314 320 Q 314 320 314 320 Q 314 320 314 320 Q 314 320 314 320 Q 314 320 314 320 Q 314 320 314 320 Q 314 320 314 320 Q 314 320 314 320 Q 314 320 314 320 Q 314 320 314 320 Q 314 320 314 320 Q 314 320 315 320 Q 315 320 315 320 Q 315 320 315 320 Q 315 320 315 320 Q 315 320 315 320 Q 315 320 315 320 Q 315 320 315 320 Q 315 320 315 320 Q 315 320 315 320 Q 315 320 315 320 Q 315 320 315 320 Q 315 320 315 320 Q 315 320 315 320 Q 315 320 315 320 Q 315 320 315 320 Q 315 320 315 320 Q 315 320 315 320 Q 315 320 315 320 Q 315 320 315 320 Q 315 320 315 320 Q 315 320 316 320 Q 316 320 316 320 Q 316 320 316 320 Q 316 320 316 320 Q 316 320 316 320 Q 316 320 316 320 Q 316 320 316 320 Q 316 320 316 320 Q 316 320 316 320 Q 316 320 316 320 Q 316 320 316 320 Q 316 320 316 320 Q 316 320 316 320 Q 316 320 316 320 Q 316 320 316 320 Q 316 320 316 320 Q 316 320 316 320 Q 316 320 316 320 Q 316 320 316 320 Q 316 320 316 320 Q 316 320 317 320 Q 317 320 317 320 Q 317 320 317 320 Q 317 320 317 320 Q 317 320 317 320 Q 317 320 317 320 Q 317 320 317 320 Q 317 320 317 320 Q 317 320 317 320 Q 317 320 317 320 Q 317 320 317 320 Q 317 320 317 320 Q 317 320 317 320 Q 317 320 317 320 Q 317 320 317 320 Q 317 320 317 320 Q 317 320 317 320 Q 317 320 317 320 Q 317 320 317 320 Q 317 320 317 320 Q 317 320 318 320 Q 318 320 318 320 Q 318 320 318 320 Q 318 320 318 320 Q 318 320 318 320 Q 318 320 318 320 Q 318 320 318 320 Q 318 320 318 320 Q 318 320 318 320 Q 318 320 318 320 Q 318 320 318 320 Q 318 320 318 320 Q 318 320 318 320 Q 318 320 318 320 Q 318 320 318 320 Q 318 320 318 320 Q 318 320 318 320 Q 318 320 318 320 Q 318 320 318 320 Q 318 320 318 320 Q 318 320 319 320 Q 319 320 319 320 Q 319 320 319 320 Q 319 320 319 320 Q 319 320 319 320 Q 319 320 319 320 Q 319 320 319 320 Q 319 320 319 320 Q 319 320 319 320 Q 319 320 319 320 Q 319 320 319 320 Q 319 320 319 320 Q 319 320 319 320 Q 319 320 319 320 Q 319 320 319 320 Q 319 320 319 320 Q 319 320 319 320 Q 319 320 319 320 Q 319 320 319 320 Q 319 320 319 320 Q 319 320 320 320 Q 320 320 320 320 Q 320 320 320 320 Q 320 320 320 320 Q 320 320 320 320 Q 320 320 320 320 Q 320 320 320 320 Q 320 320 320 320 Q 320 320 320 320 Q 320 320 320 320 Q 320 320 320 320 Q 320 320 320 320 Q 320 320 320 320 Q 320 320 320 320 Q 320 320 320 320 Q 320 320 320 320 Q 320 320 320 320 Q 320 320 320 320 Q 320 320 320 320 Q 320 320 320 320 Q 320 320 321 320 Q 321 320 321 320 Q 321 320 321 320 Q 321 320 321 320 Q 321 320 321 320 Q 321 320 321 320 Q 321 320 321 320 Q 321 320 321 320 Q 321 320 321 320 Q 321 320 321 320 Q 321 320 321 320 Q 321 320 321 320 Q 321 320 321 320 Q 321 320 321 320 Q 321 320 321 320 Q 321 320 321 320 Q 321 320 321 320 Q 321 320 321 320 Q 321 320 321 320 Q 321 320 321 320 Q 321 320 322 320 Q 322 320 322 320 Q 322 320 322 320 Q 322 320 322 320 Q 322 320 322 320 Q 322 320 322 320 Q 322 320 322 320 Q 322 320 322 320 Q 322 320 322 320 Q 322 320 322 320 Q 322 320 322 320 Q 322 320 322 320 Q 322 320 322 320 Q 322 320 322 320 Q 322 320 322 320 Q 322 320 322 320 Q 322 320 322 320 Q 322 320 322 320 Q 322 320 322 320 Q 322 320 322 320 Q 322 320 323 320 Q 323 320 323 320 Q 323 320 323 320 Q 323 320 323 320 Q 323 320 323 320 Q 323 320 323 320 Q 323 320 323 320 Q 323 320 323 320 Q 323 320 323 320 Q 323 320 323 320 Q 323 320 323 320 Q 323 320 323 320 Q 323 320 323 320 Q 323 320 323 320 Q 323 320 323 320 Q 323 320 323 320 Q 323 320 323 320 Q 323 320 323 320 Q 323 320 323 320 Q 323 320 323 320 Q 323 320 324 320 Q 324 320 324 320 Q 324 320 324 320 Q 324 320 324 320 Q 324 320 324 320 Q 324 320 324 320 Q 324 320 324 320 Q 324 320 324 320 Q 324 320 324 320 Q 324 320 324 320 Q 324 320 324 320 Q 324 320 324 320 Q 324 320 324 320 Q 324 320 324 320 Q 324 320 324 320 Q 324 320 324 320 Q 324 320 324 320 Q 324 320 324 320 Q 324 320 324 320 Q 324 320 324 320 Q 324 320 325 320 Q 325 320 325 320 Q 325 320 325 320 Q 325 320 325 320 Q 325 320 325 320 Q 325 320 325 320 Q 325 320 325 320 Q 325 320 325 320 Q 325 320 325 320 Q 325 320 325 320 Q 325 320 325 320 Q 325 320 325 320 Q 325 320 325 320 Q 325 320 325 320 Q 325 320 325 320 Q 325 320 325 320 Q 325 320 325 320 Q 325 320 325 320 Q 325 320 325 320 Q 325 320 325 320 Q 325 320 326 320 Q 326 320 326 320 Q 326 320 326 320 Q 326 320 326 320 Q 326 320 326 320 Q 326 320 326 320 Q 326 320 326 320 Q 326 320 326 320 Q 326 320 326 320 Q 326 320 326 320 Q 326 320 326 320 Q 326 320 326 320 Q 326 320 326 320 Q 326 320 326 320 Q 326 320 326 320 Q 326 320 326 320 Q 326 320 326 320 Q 326 320 326 320 Q 326 320 326 320 Q 326 320 326 320 Q 326 320 327 320 Q 327 320 327 320 Q 327 320 327 320 Q 327 320 327 320 Q 327 320 327 320 Q 327 320 327 320 Q 327 320 327 320 Q 327 320 327 320 Q 327 320 327 320 Q 327 320 327 320 Q 327 320 327 320 Q 327 320 327 320 Q 327 320 327 320 Q 327 320 327 320 Q 327 320 327 320 Q 327 320 327 320 Q 327 320 327 320 Q 327 320 327 320 Q 327 320 327 320 Q 327 320 327 320 Q 327 320 328 320 Q 328 320 328 320 Q 328 320 328 320 Q 328 320 328 320 Q 328 320 328 320 Q 328 320 328 320 Q 328 320 328 320 Q 328 320 328 320 Q 328 320 328 320 Q 328 320 328 320 Q 328 320 328 320 Q 328 320 328 320 Q 328 320 328 320 Q 328 320 328 320 Q 328 320 328 320 Q 328 320 328 320 Q 328 320 328 320 Q 328 320 328 320 Q 328 320 328 320 Q 328 320 328 320 Q 328 320 329 320 Q 329 320 329 320 Q 329 320 329 320 Q 329 320 329 320 Q 329 320 329 320 Q 329 320 329 320 Q 329 320 329 320 Q 329 320 329 320 Q 329 320 329 320 Q 329 320 329 320 Q 329 320 329 320 Q 329 320 329 320 Q 329 320 329 320 Q 329 320 329 320 Q 329 320 329 320 Q 329 320 329 320 Q 329 320 329 320 Q 329 320 329 320 Q 329 320 329 320 Q 329 320 329 320 Q 329 320 330 320 Q 330 320 330 320 Q 330 320 330 320 Q 330 320 330 320 Q 330 320 330 320 Q 330 320 330 320 Q 330 320 330 320 Q 330 320 330 320 Q 330 320 330 320 Q 330 320 330 320 Q 330 320 330 320 Q 330 320 330 320 Q 330 320 330 320 Q 330 320 330 320 Q 330 320 330 320 Q 330 320 330 320 Q 330 320 330 320 Q 330 320 330 320 Q 330 320 330 320 Q 330 320 330 320 Q 330 320 331 320 Q 331 320 331 320 Q 331 320 331 320 Q 331 320 331 320 Q 331 320 331 320 Q 331 320 331 320 Q 331 320 331 320 Q 331 320 331 320 Q 331 320 331 320 Q 331 320 331 320 Q 331 320 331 320 Q 331 320 331 320 Q 331 320 331 320 Q 331 320 331 320 Q 331 320 331 320 Q 331 320 331 320 Q 331 320 331 320 Q 331 320 331 320 Q 331 320 331 320 Q 331 320 331 320 Q 331 320 332 320 Q 332 320 332 320 Q 332 320 332 320 Q 332 320 332 320 Q 332 320 332 320 Q 332 320 332 320 Q 332 320 332 320 Q 332 320 332 320 Q 332 320 332 320 Q 332 320 332 320 Q 332 320 332 320 Q 332 320 332 320 Q 332 320 332 320 Q 332 320 332 320 Q 332 320 332 320 Q 332 320 332 320 Q 332 320 332 320 Q 332 320 332 320 Q 332 320 332 320 Q 332 320 332 320 Q 332 320 333 320 Q 333 320 333 320 Q 333 320 333 320 Q 333 320 333 320 Q 333 320 333 320 Q 333 320 333 320 Q 333 320 333 320 Q 333 320 333 320 Q 333 320 333 320 Q 333 320 333 320 Q 333 320 333 320 Q 333 320 333 320 Q 333 320 333 320 Q 333 320 333 320 Q 333 320 333 320 Q 333 320 333 320 Q 333 320 333 320 Q 333 320 333 320 Q 333 320 333 320 Q 333 320 333 320 Q 333 320 334 320 Q 334 320 334 320 Q 334 320 334 320 Q 334 320 334 320 Q 334 320 334 320 Q 334 320 334 320 Q 334 320 334 320 Q 334 320 334 320 Q 334 320 334 320 Q 334 320 334 320 Q 334 320 334 320 Q 334 320 334 320 Q 334 320 334 320 Q 334 320 334 320 Q 334 320 334 320 Q 334 320 334 320 Q 334 320 334 320 Q 334 320 334 320 Q 334 320 334 320 Q 334 320 334 320 Q 334 320 335 320 Q 335 320 335 320 Q 335 320 335 320 Q 335 320 335 320 Q 335 320 335 320 Q 335 320 335 320 Q 335 320 335 320 Q 335 320 335 320 Q 335 320 335 320 Q 335 320 335 320 Q 335 320 335 320 Q 335 320 335 320 Q 335 320 335 320 Q 335 320 335 320 Q 335 320 335 320 Q 335 320 335 320 Q 335 320 335 320 Q 335 320 335 320 Q 335 320 335 320 Q 335 320 335 320 Q 335 320 336 320 Q 336 320 336 320 Q 336 320 336 320 Q 336 320 336 320 Q 336 320 336 320 Q 336 320 336 320 Q 336 320 336 320 Q 336 320 336 320 Q 336 320 336 320 Q 336 320 336 320 Q 336 320 336 320 Q 336 320 336 320 Q 336 320 336 320 Q 336 320 336 320 Q 336 320 336 320 Q 336 320 336 320 Q 336 320 336 320 Q 336 320 336 320 Q 336 320 336 320 Q 336 320 336 320 Q 336 320 337 320 Q 337 320 337 320 Q 337 320 337 320 Q 337 320 337 320 Q 337 320 337 320 Q 337 320 337 320 Q 337 320 337 320 Q 337 320 337 320 Q 337 320 337 320 Q 337 320 337 320 Q 337 320 337 320 Q 337 320 337 320 Q 337 320 337 320 Q 337 320 337 320 Q 337 320 337 320 Q 337 320 337 320 Q 337 320 337 320 Q 337 320 337 320 Q 337 320 337 320 Q 337 320 337 320 Q 337 320 338 320 Q 338 320 338 320 Q 338 320 338 320 Q 338 320 338 320 Q 338 320 338 320 Q 338 320 338 320 Q 338 320 338 320 Q 338 320 338 320 Q 338 320 338 320 Q 338 320 338 320 Q 338 320 338 320 Q 338 320 338 320 Q 338 320 338 320 Q 338 320 338 320 Q 338 320 338 320 Q 338 320 338 320 Q 338 320 338 320 Q 338 320 338 320 Q 338 320 338 320 Q 338 320 338 320 Q 338 320 339 320 Q 339 320 339 320 Q 339 320 339 320 Q 339 320 339 320 Q 339 320 339 320 Q 339 320 339 320 Q 339 320 339 320 Q 339 320 339 320 Q 339 320 339 320 Q 339 320 339 320 Q 339 320 339 320 Q 339 320 339 320 Q 339 320 339 320 Q 339 320 339 320 Q 339 320 339 320 Q 339 320 339 320 Q 339 320 339 320 Q 339 320 339 320 Q 339 320 339 320 Q 339 320 339 320 Q 339 320 340 320 Q 340 320 340 320 Q 340 320 340 320 Q 340 320 340 320 Q 340 320 340 320 Q 340 320 340 320 Q 340 320 340 320 Q 340 320 340 320 Q 340 320 340 320 Q 340 320 340 320 Q 340 320 340 320 Q 340 320 340 320 Q 340 320 340 320 Q 340 320 340 320 Q 340 320 340 320 Q 340 320 340 320 Q 340 320 340 320 Q 340 320 340 320 Q 340 320 340 320 Q 340 320 340 320 Q 340 320 341 320 Q 341 320 341 320 Q 341 320 341 320 Q 341 320 341 320 Q 341 320 341 320 Q 341 320 341 320 Q 341 320 341 320 Q 341 320 341 320 Q 341 320 341 320 Q 341 320 341 320 Q 341 320 341 320 Q 341 320 341 320 Q 341 320 341 320 Q 341 320 341 320 Q 341 320 341 320 Q 341 320 341 320 Q 341 320 341 320 Q 341 320 341 320 Q 341 320 341 320 Q 341 320 341 320 Q 341 320 342 320 Q 342 320 342 320 Q 342 320 342 320 Q 342 320 342 320 Q 342 320 342 320 Q 342 320 342 320 Q 342 320 342 320 Q 342 320 342 320 Q 342 320 342 320 Q 342 320 342 320 Q 342 320 342 320 Q 342 320 342 320 Q 342 320 342 320 Q 342 320 342 320 Q 342 320 342 320 Q 342 320 342 320 Q 342 320 342 320 Q 342 320 342 320 Q 342 320 342 320 Q 342 320 342 320 Q 343 320 343 320 Q 343 320 343 320 Q 343 320 343 320 Q 343 320 343 320 Q 343 320 343 320 Q 343 320 343 320 Q 343 320 343 320 Q 343 320 343 320 Q 343 320 343 320 Q 343 320 343 320 Q 343 320 343 320 Q 343 320 343 320 Q 343 320 343 320 Q 343 320 343 320 Q 343 320 343 320 Q 343 320 343 320 Q 343 320 343 320 Q 343 320 343 320 Q 343 320 343 320 Q 343 320 343 320 Q 344 320 344 320 Q 344 320 344 320 Q 344 320 344 320 Q 344 320 344 320 Q 344 320 344 320 Q 344 320 344 320 Q 344 320 344 320 Q 344 320 344 320 Q 344 320 344 320 Q 344 320 344 320 Q 344 320 344 320 Q 344 320 344 320 Q 344 320 344 320 Q 344 320 344 320 Q 344 320 344 320 Q 344 320 344 320 Q 344 320 344 320 Q 344 320 344 320 Q 344 320 344 320 Q 344 320 344 320 Q 344 320 345 320 Q 345 320 345 320 Q 345 320 345 320 Q 345 320 345 320 Q 345 320 345 320 Q 345 320 345 320 Q 345 320 345 320 Q 345 320 345 320 Q 345 320 345 320 Q 345 320 345 320 Q 345 320 345 320 Q 345 320 345 320 Q 345 320 345 320 Q 345 320 345 320 Q 345 320 345 320 Q 345 320 345 320 Q 345 320 345 320 Q 345 320 345 320 Q 345 320 345 320 Q 345 320 345 320 Q 346 320 346 320 Q 346 320 346 320 Q 346 320 346 320 Q 346 320 346 320 Q 346 320 346 320 Q 346 320 346 320 Q 346 320 346 320 Q 346 320 346 320 Q 346 320 346 320 Q 346 320 346 320 Q 346 320 346 320 Q 346 320 346 320 Q 346 320 346 320 Q 346 320 346 320 Q 346 320 346 320 Q 346 320 346 320 Q 346 320 346 320 Q 346 320 346 320 Q 346 320 346 320 Q 346 320 346 320 Q 346 320 347 320 Q 347 320 347 320 Q 347 320 347 320 Q 347 320 347 320 Q 347 320 347 320 Q 347 320 347 320 Q 347 320 347 320 Q 347 320 347 320 Q 347 320 347 320 Q 347 320 347 320 Q 347 320 347 320 Q 347 320 347 320 Q 347 320 347 320 Q 347 320 347 320 Q 347 320 347 320 Q 347 320 347 320 Q 347 320 347 320 Q 347 320 347 320 Q 347 320 347 320 Q 347 320 347 320 Q 348 320 348 320 Q 347 320 348 320 Q 348 320 348 320 Q 348 320 348 320 Q 348 320 348 320 Q 348 320 348 320 Q 348 320 348 320 Q 348 320 348 320 Q 348 320 348 320 Q 348 320 348 320 Q 348 320 348 320 Q 348 320 348 320 Q 348 320 348 320 Q 348 320 348 320 Q 348 320 348 320 Q 348 320 348 320 Q 348 320 348 320 Q 348 320 348 320 Q 348 320 348 320 Q 348 320 348 320 Q 348 320 349 320 Q 349 320 349 320 Q 349 320 349 320 Q 349 320 349 320 Q 349 320 349 320 Q 349 320 349 320 Q 349 320 349 320 Q 349 320 349 320 Q 349 320 349 320 Q 349 320 349 320 Q 349 320 349 320 Q 349 320 349 320 Q 349 320 349 320 Q 349 320 349 320 Q 349 320 349 320 Q 349 320 349 320 Q 349 320 349 320 Q 349 320 349 320 Q 349 320 349 320 Q 349 320 349 320 Q 350 320 350 320 Q 349 320 350 320 Q 350 320 350 320 Q 350 320 350 320 Q 350 320 350 320 Q 350 320 350 320 Q 350 320 350 320 Q 350 320 350 320 Q 350 320 350 320 Q 350 320 350 320 Q 350 320 350 320 Q 350 320 350 320 Q 350 320 350 320 Q 350 320 350 320 Q 350 320 350 320 Q 350 320 350 320 Q 350 320 350 320 Q 350 320 350 320 Q 350 320 350 320 Q 350 320 350 320 Q 351 320 351 320 Q 350 320 351 320 Q 351 320 351 320 Q 351 320 351 320 Q 351 320 351 320 Q 351 320 351 320 Q 351 320 351 320 Q 351 320 351 320 Q 351 320 351 320 Q 351 320 351 320 Q 351 320 351 320 Q 351 320 351 320 Q 351 320 351 320 Q 351 320 351 320 Q 351 320 351 320 Q 351 320 351 320 Q 351 320 351 320 Q 351 320 351 320 Q 351 320 351 320 Q 351 320 351 320 Q 351 320 352 320 Q 352 320 352 320 Q 352 320 352 320 Q 352 320 352 320 Q 352 320 352 320 Q 352 320 352 320 Q 352 320 352 320 Q 352 320 352 320 Q 352 320 352 320 Q 352 320 352 320 Q 352 320 352 320 Q 352 320 352 320 Q 352 320 352 320 Q 352 320 352 320 Q 352 320 352 320 Q 352 320 352 320 Q 352 320 352 320 Q 352 320 352 320 Q 352 320 352 320 Q 352 320 352 320 Q 352 320 353 320 Q 353 320 353 320 Q 353 320 353 320 Q 353 320 353 320 Q 353 320 353 320 Q 353 320 353 320 Q 353 320 353 320 Q 353 320 353 320 Q 353 320 353 320 Q 353 320 353 320 Q 353 320 353 320 Q 353 320 353 320 Q 353 320 353 320 Q 353 320 353 320 Q 353 320 353 320 Q 353 320 353 320 Q 353 320 353 320 Q 353 320 353 320 Q 353 320 353 320 Q 353 320 353 320 Q 353 320 354 320 Q 354 320 354 320 Q 354 320 354 320 Q 354 320 354 320 Q 354 320 354 320 Q 354 320 354 320 Q 354 320 354 320 Q 354 320 354 320 Q 354 320 354 320 Q 354 320 354 320 Q 354 320 354 320 Q 354 320 354 320 Q 354 320 354 320 Q 354 320 354 320 Q 354 320 354 320 Q 354 320 354 320 Q 354 320 354 320 Q 354 320 354 320 Q 354 320 354 320 Q 354 320 354 320 Q 354 320 355 320 Q 355 320 355 320 Q 355 320 355 320 Q 355 320 355 320 Q 355 320 355 320 Q 355 320 355 320 Q 355 320 355 320 Q 355 320 355 320 Q 355 320 355 320 Q 355 320 355 320 Q 355 320 355 320 Q 355 320 355 320 Q 355 320 355 320 Q 355 320 355 320 Q 355 320 355 320 Q 359 320 361 323 L 376 341 L 376 341 Q 384 350 395 350 Q 406 350 414 341 L 417 323 L 417 323 Q 420 320 424 320 L 424 320 L 424 320 L 424 320 L 424 320 L 424 320 L 424 320 L 424 320 L 424 320 L 425 320 L 425 320 L 425 320 L 425 320 L 425 320 L 425 320 L 425 320 L 425 320 L 425 320 L 425 320 L 426 320 L 426 320 L 426 320 L 426 320 L 426 320 L 426 320 L 426 320 L 426 320 L 426 320 L 426 320 L 427 320 L 427 320 L 427 320 L 427 320 L 427 320 L 427 320 L 427 320 L 427 320 L 427 320 L 427 320 L 428 320 L 428 320 L 428 320 L 428 320 L 428 320 L 428 320 L 428 320 L 428 320 L 428 320 L 428 320 L 429 320 L 429 320 L 429 320 L 429 320 L 429 320 L 429 320 L 429 320 L 429 320 L 429 320 L 429 320 L 430 320 L 430 320 L 430 320 L 430 320 L 430 320 L 430 320 L 430 320 L 430 320 L 430 320 L 430 320 L 431 320 L 431 320 L 431 320 L 431 320 L 431 320 L 431 320 L 431 320 L 431 320 L 431 320 L 431 320 L 432 320 L 432 320 L 432 320 L 432 320 L 432 320 L 432 320 L 432 320 L 432 320 L 432 320 L 432 320 L 433 320 L 433 320 L 433 320 L 433 320 L 433 320 L 433 320 L 433 320 L 433 320 L 433 320 L 433 320 L 434 320 L 434 320 L 434 320 L 434 320 L 434 320 L 434 320 L 434 320 L 434 320 L 434 320 L 434 320 L 435 320 L 435 320 L 435 320 L 435 320 L 435 320 L 435 320 L 435 320 L 435 320 L 435 320 L 435 320 L 436 320 L 436 320 L 436 320 L 436 320 L 436 320 L 436 320 L 436 320 L 436 320 L 436 320 L 436 320 L 437 320 L 437 320 L 437 320 L 437 320 L 437 320 L 437 320 L 437 320 L 437 320 L 437 320 L 437 320 L 438 320 L 438 320 L 438 320 L 438 320 L 438 320 L 438 320 L 438 320 L 438 320 L 438 320 L 438 320 L 439 320 L 439 320 L 439 320 L 439 320 L 439 320 L 439 320 L 439 320 L 439 320 L 439 320 L 439 320 L 440 320 L 440 320 L 440 320 L 440 320 L 440 320 L 440 320 L 440 320 L 440 320 L 440 320 L 440 320 L 441 320 L 441 320 L 441 320 L 441 320 L 441 320 L 441 320 L 441 320 L 441 320 L 441 320 L 441 320 L 442 320 L 442 320 L 442 320 L 442 320 L 442 320 L 442 320 L 442 320 L 442 320 L 442 320 L 442 320 L 443 320 L 443 320 L 443 320 L 443 320 L 443 320 L 443 320 L 443 320 L 443 320 L 443 320 L 443 320 L 444 320 L 444 320 L 444 320 L 444 320 L 444 320 L 444 320 L 444 320 L 444 320 L 444 320 L 444 320 L 445 320 L 445 320 L 445 320 L 445 320 L 445 320 L 445 320 L 445 320 L 445 320 L 445 320 L 445 320 L 446 320 L 446 320 L 446 320 L 446 320 L 446 320 L 446 320 L 446 320 L 446 320 L 446 320 L 446 320 L 447 320 L 447 320 L 447 320 L 447 320 L 447 320 L 447 320 L 447 320 L 447 320 L 447 320 L 447 320 L 448 320 L 448 320 L 448 320 L 448 320 L 448 320 L 448 320 L 448 320 L 448 320 L 448 320 L 448 320 L 449 320 L 449 320 L 449 320 L 449 320 L 449 320 L 449 320 L 449 320 L 449 320 L 449 320 L 449 320 L 450 320 L 450 320 L 450 320 L 450 320 L 450 320 L 450 320 L 450 320 L 450 320 L 450 320 L 450 320 L 451 320 L 451 320 L 451 320 L 451 320 L 451 320 L 451 320 L 451 320 L 451 320 L 451 320 L 451 320 L 452 320 L 452 320 L 452 320 L 452 320 L 452 320 L 452 320 L 452 320 L 452 320 L 452 320 L 452 320 L 453 320 L 453 320 L 453 320 L 453 320 L 453 320 L 453 320 L 453 320 L 453 320 L 453 320 L 453 320 L 454 320 L 454 320 L 454 320 L 454 320 L 454 320 L 454 320 L 454 320 L 454 320 L 454 320 L 454 320 L 455 320 L 455 320 L 455 320 L 455 320 L 455 320 L 455 320 L 455 320 L 455 320 L 455 320 L 455 320 L 456 320 L 456 320 L 456 320 L 456 320 L 456 320 L 456 320 L 456 320 L 456 320 L 456 320 L 456 320 L 457 320 L 457 320 L 457 320 L 457 320 L 457 320 L 457 320 L 457 320 L 457 320 L 457 320 L 457 320 L 458 320 L 458 320 L 458 320 L 458 320 L 458 320 L 458 320 L 458 320 L 458 320 L 458 320 L 458 320 L 459 320 L 459 320 L 459 320 L 459 320 L 459 320 L 459 320 L 459 320 L 459 320 L 459 320 L 459 320 L 460 320 L 460 320 L 460 320 L 460 320 L 460 320 L 460 320 L 460 320 L 460 320 L 460 320 L 460 320 L 461 320 L 461 320 L 461 320 L 461 320 L 461 320 L 461 320 L 461 320 L 461 320 L 461 320 L 461 320 L 462 320 L 462 320 L 462 320 L 462 320 L 462 320 L 462 320 L 462 320 L 462 320 L 462 320 L 462 320 L 463 320 L 463 320 L 463 320 L 463 320 L 463 320 L 463 320 L 463 320 L 463 320 L 463 320 L 463 320 L 464 320 L 464 320 L 464 320 L 464 320 L 464 320 L 464 320 L 464 320 L 464 320 L 464 320 L 464 320 L 465 320 L 465 320 L 465 320 L 465 320 L 465 320 L 465 320 L 465 320 L 465 320 L 465 320 L 465 320 L 466 320 L 466 320 L 466 320 L 466 320 L 466 320 L 466 320 L 466 320 L 466 320 L 466 320 L 466 320 L 467 320 L 467 320 L 467 320 L 467 320 L 467 320 L 467 320 L 467 320 L 467 320 L 467 320 L 467 320 L 468 320 L 468 320 L 468 320 L 468 320 L 468 320 L 468 320 L 468 320 L 468 320 L 468 320 L 468 320 L 469 320 L 469 320 L 469 320 L 469 320 L 469 320 L 469 320 L 469 320 L 469 320 L 469 320 L 469 320 L 470 320 L 470 320 L 470 320 L 470 320 L 470 320 L 470 320 L 470 320 L 470 320 L 470 320 L 470 320 L 471 320 L 471 320 L 471 320 L 471 320 L 471 320 L 471 320 L 471 320 L 471 320 L 471 320 L 471 320 L 472 320 L 472 320 L 472 320 L 472 320 L 472 320 L 472 320 L 472 320 L 472 320 L 472 320 L 472 320 L 473 320 L 473 320 L 473 320 L 473 320 L 473 320 L 473 320 L 473 320 L 473 320 L 473 320 L 473 320 L 474 320 L 474 320 L 474 320 L 474 320 L 474 320 L 474 320 L 474 320 L 474 320 L 474 320 L 474 320 L 475 320 L 475 320 L 475 320 L 475 320 L 475 320 L 475 320 L 475 320 L 475 320 L 475 320 L 475 320 L 476 320 L 476 320 L 476 320 L 476 320 L 476 320 L 476 320 L 476 320 L 476 320 L 476 320 L 476 320 L 477 320 L 477 320 L 477 320 L 477 320 L 477 320 L 477 320 L 477 320 L 477 320 L 477 320 L 477 320 L 478 320 L 478 320 L 478 320 L 478 320 L 478 320 L 478 320 L 478 320 L 478 320 L 478 320 L 478 320 L 479 320 L 479 320 L 479 320 L 479 320 L 479 320 L 479 320 L 479 320 L 479 320 L 479 320 L 479 320 L 480 320 L 480 320 L 480 320 L 480 320 L 480 320 L 480 320 L 480 320 L 480 320 L 480 320 L 480 320 L 481 320 L 481 320 L 481 320 L 481 320 L 481 320 L 481 320 L 481 320 L 481 320 L 481 320 L 481 320 L 482 320 L 482 320 L 482 320 L 482 320 L 482 320 L 482 320 L 482 320 L 482 320 L 482 320 L 482 320 L 483 320 L 483 320 L 483 320 L 483 320 L 483 320 L 483 320 L 483 320 L 483 320 L 483 320 L 483 320 L 484 320 L 484 320 L 484 320 L 484 320 L 484 320 L 484 320 L 484 320 L 484 320 L 484 320 L 484 320 L 485 320 L 485 320 L 485 320 L 485 320 L 485 320 L 485 320 L 485 320 L 485 320 L 485 320 L 485 320 L 486 320 L 486 320 L 486 320 L 486 320 L 486 320 L 486 320 L 486 320 L 486 320 L 486 320 L 486 320 L 487 320 L 487 320 L 487 320 L 487 320 L 487 320 L 487 320 L 487 320 L 487 320 L 487 320 L 487 320 L 488 320 L 488 320 L 488 320 L 488 320 L 488 320 L 488 320 L 488 320 L 488 320 L 488 320 L 488 320 L 489 320 L 489 320 L 489 320 L 489 320 L 489 320 L 489 320 L 489 320 L 489 320 L 489 320 L 489 320 L 490 320 L 490 320 L 490 320 L 490 320 L 490 320 L 490 320 L 490 320 L 490 320 L 490 320 L 490 320 L 491 320 L 491 320 L 491 320 L 491 320 L 491 320 L 491 320 L 491 320 L 491 320 L 491 320 L 491 320 L 492 320 L 492 320 L 492 320 L 492 320 L 492 320 L 492 320 L 492 320 L 492 320 L 492 320 L 492 320 L 493 320 L 493 320 L 493 320 L 493 320 L 493 320 L 493 320 L 493 320 L 493 320 L 493 320 L 493 320 L 494 320 L 494 320 L 494 320 L 494 320 L 494 320 L 494 320 L 494 320 L 494 320 L 494 320 L 494 320 L 495 320 L 495 320 L 495 320 L 495 320 L 495 320 L 495 320 L 495 320 L 495 320 L 495 320 L 495 320 L 496 320 L 496 320 L 496 320 L 496 320 L 496 320 L 496 320 L 496 320 L 496 320 L 496 320 L 496 320 L 497 320 L 497 320 L 497 320 L 497 320 L 497 320 L 497 320 L 497 320 L 497 320 L 497 320 L 497 320 L 498 320 L 498 320 L 498 320 L 498 320 L 498 320 L 498 320 L 498 320 L 498 320 L 498 320 L 498 320 L 499 320 L 499 320 L 499 320 L 499 320 L 499 320 L 499 320 L 499 320 L 499 320 L 499 320 L 499 320 L 500 320 L 500 320 L 500 320 L 500 320 L 500 320 L 500 320 L 500 320 L 500 320 L 500 320 L 500 320 L 501 320 L 501 320 L 501 320 L 501 320 L 501 320 L 501 320 L 501 320 L 501 320 L 502 320 L 502 320 L 502 320 L 502 320 L 502 320 L 502 320 L 502 320 L 502 320 L 502 320 L 502 320 L 503 320 L 503 320 L 503 320 L 503 320 L 503 320 L 503 320 L 504 320 L 504 320 L 504 320 L 504 320 L 504 320 L 504 320 L 504 320 L 504 320 L 505 320 L 505 320 L 505 320 L 505 320 L 505 320 L 505 320 L 506 320 L 506 320 L 506 320 L 506 320 L 506 320 L 506 320 L 506 320 L 506 320 L 507 320 L 507 320 L 507 320 L 507 320 L 507 320 L 507 320 L 508 320 L 508 320 L 508 320 L 508 320 L 508 320 L 508 320 L 509 320 L 509 320 L 509 320 L 509 320 L 509 320 L 509 320 L 509 320 L 509 320 L 510 320 L 510 320 L 510 320 L 510 320 L 510 320 L 510 320 L 511 320 L 511 320 L 511 320 L 511 320 L 511 320 L 511 320 L 512 320 L 512 320 L 512 320 L 512 320 L 512 320 L 512 320 L 512 320 L 512 320 L 513 320 L 513 320 L 513 320 L 513 320 L 513 320 L 513 320 L 514 320 L 514 320 L 514 320 L 514 320 L 514 320 L 514 320 L 515 320 L 515 320 L 515 320 L 515 320 L 515 320 L 515 320 L 515 320 L 515 320 L 516 320 L 516 320 L 516 320 L 516 320 L 516 320 L 516 320 L 517 320 L 517 320 L 517 320 L 517 320 L 517 320 L 517 320 L 518 320 L 518 320 L 518 320 L 518 320 L 518 320 L 518 320 L 518 320 L 518 320 L 519 320 L 519 320 L 519 320 L 519 320 L 519 320 L 519 320 L 520 320 L 520 320 L 520 320 L 520 320 L 520 320 L 520 320 L 521 320 L 521 320 L 521 320 L 521 320 L 521 320 L 521 320 L 521 320 L 521 320 L 522 320 L 522 320 L 522 320 L 522 320 L 522 320 L 522 320 L 523 320 L 523 320 L 523 320 L 523 320 L 523 320 L 523 320 L 524 320 L 524 320 L 524 320 L 524 320 L 524 320 L 524 320 L 524 320 L 524 320 L 525 320 L 525 320 L 525 320 L 525 320 L 525 320 L 525 320 L 526 320 L 526 320 L 526 320 L 526 320 L 526 320 L 526 320 L 527 320 L 527 320 L 527 320 L 527 320 L 527 320 L 527 320 L 527 320 L 527 320 L 528 320 L 528 320 L 528 320 L 528 320 L 528 320 L 528 320 L 529 320 L 529 320 L 529 320 L 529 320 L 529 320 L 529 320 L 530 320 L 530 320 L 530 320 L 530 320 L 530 320 L 530 320 L 530 320 L 530 320 L 531 320 L 531 320 L 531 320 L 531 320 L 531 320 L 531 320 L 532 320 L 532 320 L 532 320 L 532 320 L 532 320 L 532 320 L 533 320 L 533 320 L 533 320 L 533 320 L 533 320 L 533 320 L 533 320 L 533 320 L 534 320 L 534 320 L 534 320 L 534 320 L 534 320 L 534 320 L 535 320 L 535 320 L 535 320 L 535 320 L 535 320 L 535 320 L 536 320 L 536 320 L 536 320 L 536 320 L 536 320 L 536 320 L 536 320 L 536 320 L 537 320 L 537 320 L 537 320 L 537 320 L 537 320 L 537 320 L 538 320 L 538 320 L 538 320 L 538 320 Q 553 321 554 336 L 554 368 L 554 368 Q 553 395 535 413 Q 517 431 490 432 L 496 432 Z" />
</svg>