<svg xmlns="http://www.w3.org/2000/svg" viewBox="0 0 512 512">
  <path d="M 176.31128 414.38132 Q 175.31517 399.4397 160.37354 398.44357 L 64.74708 398.44357 Q 44.8249 397.44748 30.879377 384.49805 Q 17.92996 370.55252 16.933851 350.63034 L 16.933851 63.750973 Q 17.92996 43.828793 30.879377 29.883268 Q 44.8249 16.933851 64.74708 15.937743 L 447.25293 15.937743 Q 467.1751 16.933851 481.12064 29.883268 Q 494.07004 43.828793 495.06616 63.750973 L 495.06616 350.63034 Q 494.07004 370.55252 481.12064 384.49805 Q 467.1751 397.44748 447.25293 398.44357 L 308.79376 398.44357 Q 303.81323 398.44357 299.8288 401.43192 L 176.31128 494.07004 L 176.31128 414.38132 L 176.31128 414.38132 Z M 64.74708 0 Q 37.85214 0.99610895 19.922178 18.92607 L 19.922178 18.92607 Q 1.9922179 36.85603 0.99610895 63.750973 L 0.99610895 350.63034 Q 1.9922179 377.5253 19.922178 395.45526 Q 37.85214 413.38522 64.74708 414.38132 L 144.43579 414.38132 L 160.37354 414.38132 L 160.37354 430.31906 L 160.37354 494.07004 Q 160.37354 504.03113 169.33852 508.01556 Q 178.3035 512 186.27237 507.01947 L 308.79376 414.38132 L 447.25293 414.38132 Q 474.14786 413.38522 492.07782 395.45526 Q 510.00778 377.5253 511.0039 350.63034 L 511.0039 63.750973 Q 510.00778 36.85603 492.07782 18.92607 Q 474.14786 0.99610895 447.25293 0 L 64.74708 0 L 64.74708 0 Z M 112.56031 182.28793 Q 112.56031 175.31517 119.53307 171.33073 Q 126.50584 167.3463 136.46692 167.3463 Q 149.41634 167.3463 161.36964 171.33073 Q 168.3424 172.32684 171.33073 165.35408 Q 172.32684 158.38132 165.35408 155.39299 Q 151.40855 152.40466 136.46692 151.40855 Q 123.51751 151.40855 111.5642 157.38521 Q 97.618675 164.35797 96.62257 182.28793 Q 97.618675 198.22568 110.56809 205.19844 Q 120.52918 210.17899 131.48637 213.16731 Q 132.48248 213.16731 133.47859 214.16342 L 134.4747 214.16342 Q 146.42801 217.15175 154.39688 222.1323 Q 160.37354 225.12062 160.37354 231.09727 Q 160.37354 241.05836 156.3891 243.05058 Q 152.40466 246.03891 143.43968 246.03891 Q 122.5214 245.0428 106.58366 239.06615 Q 99.61089 238.07004 96.62257 245.0428 Q 94.63035 252.01556 101.60311 255.00389 Q 118.536964 260.98053 143.43968 261.97665 Q 155.39299 261.97665 166.35019 255.00389 Q 176.31128 247.03502 176.31128 231.09727 Q 175.31517 215.15953 162.36575 208.18677 Q 151.40855 202.21011 138.45914 199.22179 L 138.45914 199.22179 Q 126.50584 195.23735 118.536964 191.25291 Q 112.56031 187.26848 112.56031 182.28793 L 112.56031 182.28793 Z M 351.62646 182.28793 Q 351.62646 175.31517 358.5992 171.33073 Q 365.572 167.3463 375.53308 167.3463 Q 385.49417 167.3463 397.44748 171.33073 Q 404.42023 172.32684 407.40857 165.35408 Q 408.40466 158.38132 401.43192 155.39299 Q 389.4786 152.40466 375.53308 151.40855 Q 362.58365 151.40855 350.63034 157.38521 Q 336.6848 164.35797 335.68872 182.28793 Q 336.6848 198.22568 349.63425 205.19844 Q 359.59534 210.17899 370.55252 213.16731 Q 371.54865 213.16731 372.54474 213.16731 L 373.54086 214.16342 Q 385.49417 217.15175 393.46304 221.13618 Q 399.4397 225.12062 399.4397 231.09727 Q 399.4397 239.06615 393.46304 243.05058 Q 385.49417 247.03502 375.53308 247.03502 Q 363.57977 246.03891 350.63034 241.05836 Q 350.63034 241.05836 349.63425 241.05836 Q 347.64203 240.06226 346.6459 239.06615 Q 338.67703 238.07004 335.68872 244.04669 Q 334.6926 252.01556 341.66537 255.00389 Q 342.66147 255.00389 343.6576 255.00389 Q 344.6537 256 345.6498 256 L 345.6498 256 Q 358.5992 260.98053 375.53308 262.97275 Q 389.4786 262.97275 401.43192 256 Q 414.38132 249.02724 415.37744 231.09727 Q 414.38132 215.15953 401.43192 208.18677 Q 390.4747 201.214 377.5253 198.22568 L 377.5253 198.22568 Q 365.572 195.23735 357.60312 191.25291 Q 351.62646 187.26848 351.62646 182.28793 L 351.62646 182.28793 Z M 206.19455 151.40855 Q 200.2179 153.40077 200.2179 159.37743 L 200.2179 255.00389 Q 201.214 261.97665 208.18677 262.97275 Q 215.15953 261.97665 216.15564 255.00389 L 216.15564 183.28404 L 250.02335 228.10895 Q 252.01556 231.09727 256 231.09727 Q 259.98444 231.09727 261.97665 228.10895 L 295.84436 183.28404 L 295.84436 255.00389 Q 296.84045 261.97665 303.81323 262.97275 Q 310.78598 261.97665 311.7821 255.00389 L 311.7821 159.37743 Q 311.7821 153.40077 306.80154 151.40855 Q 300.8249 150.41245 297.83658 154.39688 L 256 210.17899 L 214.16342 154.39688 Q 211.1751 150.41245 206.19455 151.40855 L 206.19455 151.40855 Z" />
</svg>