<svg xmlns="http://www.w3.org/2000/svg" viewBox="0 0 512 448">
  <path d="M 298 82 L 162 218 L 298 82 L 162 218 Q 158 224 162 230 L 298 366 L 298 366 Q 304 370 310 366 Q 314 360 310 354 L 187 232 L 187 232 L 504 232 L 504 232 Q 511 231 512 224 Q 511 217 504 216 L 187 216 L 187 216 L 310 94 L 310 94 Q 314 88 310 82 Q 304 78 298 82 L 298 82 Z M 184 432 L 88 432 L 184 432 L 88 432 Q 57 431 37 411 Q 17 391 16 360 L 16 88 L 16 88 Q 17 57 37 37 Q 57 17 88 16 L 184 16 L 184 16 Q 191 15 192 8 Q 191 1 184 0 L 88 0 L 88 0 Q 51 1 26 26 Q 1 51 0 88 L 0 360 L 0 360 Q 1 397 26 422 Q 51 447 88 448 L 184 448 L 184 448 Q 191 447 192 440 Q 191 433 184 432 L 184 432 Z" />
</svg>