<svg xmlns="http://www.w3.org/2000/svg" viewBox="0 0 640 512">
  <path d="M 0 136 Q 1 78 40 40 L 40 40 L 40 40 Q 78 1 136 0 L 192 0 L 192 0 Q 228 1 250 29 L 252 32 L 252 32 L 288 32 L 288 32 Q 288 18 297 9 Q 306 0 320 0 Q 334 0 343 9 Q 352 18 352 32 L 352 160 L 352 160 Q 352 174 343 183 Q 334 192 320 192 Q 306 192 297 183 Q 288 174 288 160 L 251 160 L 251 160 L 248 163 L 248 163 Q 235 176 216 182 L 223 448 L 223 448 Q 222 475 205 493 Q 187 511 160 512 Q 133 511 115 493 Q 98 475 98 448 L 104 181 L 104 181 Q 82 174 68 154 L 11 176 L 11 176 Q 7 177 3 175 Q 0 172 0 168 L 0 136 L 0 136 Z M 237 152 L 242 146 L 237 152 L 242 146 Q 245 144 248 144 L 296 144 L 296 144 Q 303 145 304 152 L 304 160 L 304 160 Q 306 175 320 176 Q 335 175 336 160 L 336 32 L 336 32 Q 335 17 320 16 Q 306 17 304 32 L 304 40 L 304 40 Q 303 47 296 48 L 248 48 L 248 48 Q 244 48 242 45 L 237 38 L 237 38 Q 220 17 192 16 L 136 16 L 136 16 Q 85 17 51 51 Q 17 85 16 136 L 16 157 L 16 157 L 69 137 L 69 137 Q 76 135 79 141 Q 94 167 124 168 L 198 168 L 198 168 Q 221 168 237 152 L 237 152 Z M 120 184 L 114 448 L 120 184 L 114 448 Q 114 469 127 482 Q 140 495 160 496 Q 180 495 193 482 Q 206 469 207 448 L 200 184 L 200 184 L 198 184 L 120 184 Z M 541 211 L 536 207 L 541 211 L 536 207 L 536 200 L 536 200 L 536 56 L 536 56 Q 536 39 524 28 Q 513 16 496 16 Q 479 16 468 28 Q 456 39 456 56 L 456 200 L 456 200 L 456 207 L 456 207 L 451 211 L 451 211 L 377 285 L 377 285 Q 376 287 375 288 L 617 288 L 617 288 Q 616 286 615 285 L 541 211 L 541 211 Z M 368 308 L 368 352 L 368 308 L 368 352 L 624 352 L 624 352 L 624 308 L 624 308 Q 624 306 624 304 L 368 304 L 368 304 Q 368 306 368 308 L 368 308 Z M 368 368 L 368 464 L 368 368 L 368 464 Q 368 478 377 487 Q 386 496 400 496 L 448 496 L 448 496 L 448 416 L 448 416 Q 449 409 456 408 Q 463 409 464 416 L 464 496 L 464 496 L 592 496 L 592 496 Q 606 496 615 487 Q 624 478 624 464 L 624 368 L 624 368 L 368 368 L 368 368 Z M 626 274 Q 640 288 640 308 L 640 464 L 640 464 Q 639 484 626 498 Q 612 511 592 512 L 400 512 L 400 512 Q 380 511 366 498 Q 353 484 352 464 L 352 308 L 352 308 Q 352 288 366 274 L 440 200 L 440 200 L 440 56 L 440 56 Q 441 32 456 16 Q 472 1 496 0 Q 520 1 536 16 Q 551 32 552 56 L 552 200 L 552 200 L 626 274 L 626 274 Z M 496 80 Q 481 79 480 64 Q 481 49 496 48 Q 511 49 512 64 Q 511 79 496 80 L 496 80 Z" />
</svg>