<svg xmlns="http://www.w3.org/2000/svg" viewBox="0 0 578 513">
  <path d="M 259 24 Q 259 16 267 16 L 309 16 L 309 16 Q 317 16 317 24 L 317 92 L 317 92 Q 318 99 325 100 L 393 100 L 393 100 Q 401 100 401 108 L 401 150 L 401 150 Q 401 158 393 158 L 325 158 L 325 158 Q 318 159 317 166 L 317 234 L 317 234 Q 317 242 309 242 L 267 242 L 267 242 Q 259 242 259 234 L 259 166 L 259 166 Q 258 159 251 158 L 183 158 L 183 158 Q 175 158 175 150 L 175 108 L 175 108 Q 175 100 183 100 L 251 100 L 251 100 Q 258 99 259 92 L 259 24 L 259 24 Z M 267 0 Q 245 2 243 24 L 243 84 L 243 84 L 183 84 L 183 84 Q 161 86 159 108 L 159 150 L 159 150 Q 161 172 183 174 L 243 174 L 243 174 L 243 234 L 243 234 Q 245 256 267 258 L 309 258 L 309 258 Q 331 256 333 234 L 333 174 L 333 174 L 393 174 L 393 174 Q 415 172 417 150 L 417 108 L 417 108 Q 415 86 393 84 L 333 84 L 333 84 L 333 24 L 333 24 Q 331 2 309 0 L 267 0 L 267 0 Z M 522 342 Q 541 330 555 347 Q 567 366 550 380 L 424 474 L 424 474 Q 392 497 353 497 L 8 497 L 8 497 Q 1 498 0 505 Q 1 512 8 513 L 353 513 L 353 513 Q 397 513 433 487 L 560 393 L 560 393 Q 573 383 576 367 Q 578 351 568 337 Q 558 324 542 321 Q 526 319 512 329 L 395 415 L 395 415 Q 393 417 390 417 L 268 417 L 268 417 Q 257 416 256 405 Q 257 394 268 393 L 348 393 L 348 393 Q 363 393 373 382 Q 384 372 384 357 Q 384 342 373 332 Q 363 321 348 321 L 194 321 L 194 321 Q 149 321 114 349 L 71 383 L 71 383 Q 69 385 66 385 L 8 385 L 8 385 Q 1 386 0 393 Q 1 400 8 401 L 66 401 L 66 401 Q 74 401 81 396 L 124 362 L 124 362 Q 154 337 194 337 L 348 337 L 348 337 Q 366 339 368 357 Q 366 375 348 377 L 268 377 L 268 377 Q 256 377 248 385 Q 240 393 240 405 Q 240 417 248 425 Q 256 433 268 433 L 390 433 L 390 433 Q 398 433 404 428 L 522 342 L 522 342 Z" />
</svg>