<svg xmlns="http://www.w3.org/2000/svg" viewBox="0 0 642 482">
  <path d="M 48 40 Q 50 18 72 16 L 173 16 L 173 16 Q 187 17 194 28 L 267 160 L 267 160 L 48 160 L 48 160 L 48 40 L 48 40 Z M 48 176 L 280 176 L 48 176 L 280 176 L 280 176 L 280 176 L 352 176 L 392 176 Q 409 176 420 188 Q 432 199 432 216 L 432 272 L 432 272 L 432 276 L 432 276 Q 404 257 368 256 L 112 256 L 112 256 Q 76 257 48 276 L 48 192 L 48 192 L 48 176 L 48 176 Z M 448 272 L 448 216 L 448 272 L 448 216 Q 447 192 432 176 Q 416 161 392 160 L 360 160 L 360 160 L 360 96 L 360 96 Q 359 89 352 88 Q 345 89 344 96 L 344 160 L 344 160 L 285 160 L 285 160 L 208 21 L 208 21 Q 196 1 173 0 L 72 0 L 72 0 Q 55 0 44 12 Q 32 23 32 40 L 32 160 L 32 160 L 32 168 L 32 168 L 32 192 L 32 192 L 32 288 L 32 288 L 34 288 L 34 288 Q 1 320 0 368 Q 1 416 33 447 Q 64 479 112 480 L 368 480 L 368 480 Q 416 479 447 447 Q 479 416 480 368 Q 479 320 446 288 L 448 288 L 536 288 L 536 345 L 536 345 Q 536 371 553 391 L 626 477 L 626 477 Q 631 482 637 478 Q 642 473 638 467 L 565 381 L 565 381 Q 552 365 552 345 L 552 231 L 552 231 Q 552 211 565 195 L 638 109 L 638 109 Q 642 103 637 98 Q 631 94 626 99 L 553 185 L 553 185 Q 536 205 536 231 L 536 272 L 536 272 L 448 272 L 448 272 Z M 112 272 L 368 272 L 112 272 L 368 272 Q 409 273 436 300 Q 463 327 464 368 Q 463 409 436 436 Q 409 463 368 464 L 112 464 L 112 464 Q 71 463 44 436 Q 17 409 16 368 Q 17 327 44 300 Q 71 273 112 272 L 112 272 Z M 96 384 Q 111 383 112 368 Q 111 353 96 352 Q 81 353 80 368 Q 81 383 96 384 L 96 384 Z M 400 368 Q 399 353 384 352 Q 369 353 368 368 Q 369 383 384 384 Q 399 383 400 368 L 400 368 Z M 288 384 Q 303 383 304 368 Q 303 353 288 352 Q 273 353 272 368 Q 273 383 288 384 L 288 384 Z M 208 368 Q 207 353 192 352 Q 177 353 176 368 Q 177 383 192 384 Q 207 383 208 368 L 208 368 Z" />
</svg>