<svg xmlns="http://www.w3.org/2000/svg" viewBox="0 0 512 512">
  <path d="M 491.04092 22.955166 L 491.04092 22.955166 Q 487.04874 17.964912 481.06042 16.966862 Q 477.06824 16.966862 474.07407 17.964912 L 474.07407 17.964912 Q 471.07993 18.962963 469.08383 19.961014 L 469.08383 19.961014 L 469.08383 19.961014 L 277.4581 160.68616 L 250.51073 160.68616 L 460.10138 6.986355 Q 464.09357 3.9922028 468.0858 2.994152 Q 475.0721 0 482.05847 0.9980507 Q 495.03314 1.9961014 504.0156 12.974659 Q 507.00974 16.966862 509.00586 21.957115 Q 512 28.94347 511.00195 35.929825 Q 510.0039 47.906433 500.0234 56.88889 L 385.24756 160.68616 L 361.29434 160.68616 L 489.04483 44.91228 L 490.04288 44.91228 L 490.04288 44.91228 Q 494.0351 40.92008 495.03314 34.931774 Q 495.03314 30.939571 494.0351 27.94542 L 494.0351 27.94542 Q 493.03705 24.951267 491.04092 22.955166 L 491.04092 22.955166 Z M 47.906433 208.59259 L 47.906433 256.49902 Q 47.906433 313.3879 76.8499 355.30603 Q 105.79337 397.22418 160.68616 417.18518 Q 168.67056 420.17935 170.66667 428.16376 Q 172.66277 436.14816 167.67252 442.13644 Q 153.6998 461.09943 146.71346 484.0546 Q 145.7154 489.04483 148.70955 492.039 Q 152.70175 496.0312 159.68811 496.0312 L 351.31384 496.0312 Q 358.3002 496.0312 362.2924 492.039 Q 365.28656 489.04483 364.2885 484.0546 Q 357.30215 461.09943 343.32944 442.13644 Q 338.33917 436.14816 340.3353 428.16376 Q 342.3314 420.17935 350.3158 417.18518 Q 405.2086 397.22418 434.15204 355.30603 Q 463.09552 313.3879 463.09552 256.49902 L 463.09552 208.59259 L 47.906433 208.59259 L 47.906433 208.59259 Z M 479.06433 256.49902 Q 479.06433 314.38596 451.1189 358.3002 L 451.1189 358.3002 Q 424.17154 402.21442 371.27484 426.16763 Q 363.29044 429.1618 355.30603 432.15594 Q 360.2963 439.1423 365.28656 446.12866 Q 374.269 462.09747 379.25925 480.06238 Q 382.25342 494.0351 373.27097 503.01755 Q 365.28656 512 351.31384 512 L 159.68811 512 Q 145.7154 512 137.73099 503.01755 Q 128.74854 494.0351 131.74269 480.06238 Q 136.73294 462.09747 145.7154 446.12866 Q 150.70566 439.1423 155.6959 432.15594 Q 147.7115 429.1618 139.7271 426.16763 Q 86.83041 402.21442 59.88304 358.3002 Q 31.937622 314.38596 31.937622 256.49902 L 31.937622 224.5614 L 31.937622 208.59259 L 15.968811 208.59259 L 7.9844055 208.59259 Q 0.9980507 207.59454 0 200.60818 Q 0.9980507 193.62183 7.9844055 192.62378 L 31.937622 192.62378 L 479.06433 192.62378 L 503.01755 192.62378 Q 510.0039 193.62183 511.00195 200.60818 Q 510.0039 207.59454 503.01755 208.59259 L 495.03314 208.59259 L 479.06433 208.59259 L 479.06433 224.5614 L 479.06433 256.49902 L 479.06433 256.49902 Z" />
</svg>