<svg xmlns="http://www.w3.org/2000/svg" viewBox="0 0 640 518">
  <path d="M 8 0 Q 1 1 0 8 Q 1 15 8 16 L 46 16 L 46 16 Q 64 17 69 35 L 129 339 L 129 339 Q 133 359 148 371 Q 163 384 184 384 L 321 384 L 321 384 Q 320 376 320 368 L 184 368 L 184 368 Q 169 368 158 359 Q 147 350 144 336 L 135 288 L 135 288 L 339 288 L 339 288 Q 343 280 349 272 L 132 272 L 132 272 L 88 48 L 88 48 L 528 48 L 528 48 Q 540 48 547 57 Q 553 66 551 78 L 524 194 L 524 194 Q 532 195 540 197 L 567 81 L 567 81 Q 570 62 559 47 Q 548 33 528 32 L 85 32 L 85 32 Q 77 2 46 0 L 8 0 L 8 0 Z M 144 464 Q 144 450 153 441 L 153 441 L 153 441 Q 162 432 176 432 Q 190 432 199 441 Q 208 450 208 464 Q 208 478 199 487 Q 190 496 176 496 Q 162 496 153 487 Q 144 478 144 464 L 144 464 Z M 224 464 Q 223 437 200 422 Q 176 410 152 422 Q 129 437 128 464 Q 129 491 152 506 Q 176 518 200 506 Q 223 491 224 464 L 224 464 Z M 368 368 Q 368 333 385 304 L 385 304 L 385 304 Q 402 275 432 257 Q 462 240 496 240 Q 530 240 560 257 Q 590 275 607 304 Q 624 333 624 368 Q 624 403 607 432 Q 590 461 560 479 Q 530 496 496 496 Q 462 496 432 479 Q 402 461 385 432 Q 368 403 368 368 L 368 368 Z M 640 368 Q 640 329 621 296 L 621 296 L 621 296 Q 602 263 568 243 Q 534 224 496 224 Q 458 224 424 243 Q 390 263 371 296 Q 352 329 352 368 Q 352 407 371 440 Q 390 473 424 493 Q 458 512 496 512 Q 534 512 568 493 Q 602 473 621 440 Q 640 407 640 368 L 640 368 Z M 558 318 Q 562 312 558 306 Q 552 302 546 306 L 496 357 L 496 357 L 446 306 L 446 306 Q 440 302 434 306 Q 430 312 434 318 L 485 368 L 485 368 L 434 418 L 434 418 Q 430 424 434 430 Q 440 434 446 430 L 496 379 L 496 379 L 546 430 L 546 430 Q 552 434 558 430 Q 562 424 558 418 L 507 368 L 507 368 L 558 318 L 558 318 Z" />
</svg>