<svg xmlns="http://www.w3.org/2000/svg" viewBox="0 0 510 448">
  <path d="M 351 117 Q 350 106 340 102 Q 255 74 170 102 Q 160 106 159 117 L 159 170 L 159 170 Q 158 190 138 194 L 60 204 L 60 204 Q 42 205 35 189 L 22 157 L 22 157 Q 10 122 33 100 Q 66 70 122 44 Q 179 18 255 16 Q 331 18 388 44 Q 444 70 477 100 Q 500 122 488 157 L 475 189 L 475 189 Q 468 205 450 204 L 372 194 L 372 194 Q 352 190 351 170 L 351 117 L 351 117 Z M 175 117 Q 255 91 335 117 L 335 170 L 335 170 Q 335 186 345 197 Q 355 207 370 210 L 448 220 L 448 220 Q 478 222 490 195 L 503 163 L 503 163 Q 510 143 507 123 Q 504 103 488 88 Q 453 56 394 29 Q 335 2 255 0 Q 175 2 116 29 Q 57 56 22 88 Q 6 103 3 123 Q 0 143 7 163 L 20 195 L 20 195 Q 32 222 62 220 L 140 210 L 140 210 Q 155 207 165 196 Q 175 185 175 170 L 175 117 L 175 117 Z M 71 256 Q 49 258 47 280 L 47 312 L 47 312 Q 49 334 71 336 L 103 336 L 103 336 Q 125 334 127 312 L 127 280 L 127 280 Q 125 258 103 256 L 71 256 L 71 256 Z M 63 280 Q 64 273 71 272 L 103 272 L 103 272 Q 110 273 111 280 L 111 312 L 111 312 Q 110 319 103 320 L 71 320 L 71 320 Q 64 319 63 312 L 63 280 L 63 280 Z M 71 368 Q 49 370 47 392 L 47 424 L 47 424 Q 49 446 71 448 L 103 448 L 103 448 Q 125 446 127 424 L 127 392 L 127 392 Q 125 370 103 368 L 71 368 L 71 368 Z M 63 392 Q 64 385 71 384 L 103 384 L 103 384 Q 110 385 111 392 L 111 424 L 111 424 Q 110 431 103 432 L 71 432 L 71 432 Q 64 431 63 424 L 63 392 L 63 392 Z M 407 368 Q 385 370 383 392 L 383 424 L 383 424 Q 385 446 407 448 L 439 448 L 439 448 Q 461 446 463 424 L 463 392 L 463 392 Q 461 370 439 368 L 407 368 L 407 368 Z M 399 392 Q 400 385 407 384 L 439 384 L 439 384 Q 446 385 447 392 L 447 424 L 447 424 Q 446 431 439 432 L 407 432 L 407 432 Q 400 431 399 424 L 399 392 L 399 392 Z M 159 392 L 159 424 L 159 392 L 159 424 Q 161 446 183 448 L 327 448 L 327 448 Q 349 446 351 424 L 351 392 L 351 392 Q 349 370 327 368 L 183 368 L 183 368 Q 161 370 159 392 L 159 392 Z M 183 384 L 327 384 L 183 384 L 327 384 Q 334 385 335 392 L 335 424 L 335 424 Q 334 431 327 432 L 183 432 L 183 432 Q 176 431 175 424 L 175 392 L 175 392 Q 176 385 183 384 L 183 384 Z M 159 280 L 159 312 L 159 280 L 159 312 Q 161 334 183 336 L 215 336 L 215 336 Q 237 334 239 312 L 239 280 L 239 280 Q 237 258 215 256 L 183 256 L 183 256 Q 161 258 159 280 L 159 280 Z M 183 272 L 215 272 L 183 272 L 215 272 Q 222 273 223 280 L 223 312 L 223 312 Q 222 319 215 320 L 183 320 L 183 320 Q 176 319 175 312 L 175 280 L 175 280 Q 176 273 183 272 L 183 272 Z M 295 256 Q 273 258 271 280 L 271 312 L 271 312 Q 273 334 295 336 L 327 336 L 327 336 Q 349 334 351 312 L 351 280 L 351 280 Q 349 258 327 256 L 295 256 L 295 256 Z M 287 280 Q 288 273 295 272 L 327 272 L 327 272 Q 334 273 335 280 L 335 312 L 335 312 Q 334 319 327 320 L 295 320 L 295 320 Q 288 319 287 312 L 287 280 L 287 280 Z M 383 280 L 383 312 L 383 280 L 383 312 Q 385 334 407 336 L 439 336 L 439 336 Q 461 334 463 312 L 463 280 L 463 280 Q 461 258 439 256 L 407 256 L 407 256 Q 385 258 383 280 L 383 280 Z M 407 272 L 439 272 L 407 272 L 439 272 Q 446 273 447 280 L 447 312 L 447 312 Q 446 319 439 320 L 407 320 L 407 320 Q 400 319 399 312 L 399 280 L 399 280 Q 400 273 407 272 L 407 272 Z" />
</svg>