<svg xmlns="http://www.w3.org/2000/svg" viewBox="0 0 514 514">
  <path d="M 400 208 Q 400 156 374 112 L 374 112 L 374 112 Q 349 68 304 42 Q 259 16 208 16 Q 157 16 112 42 Q 67 68 42 112 Q 16 156 16 208 Q 16 260 42 304 Q 67 348 112 374 Q 157 400 208 400 Q 259 400 304 374 Q 349 348 374 304 Q 400 260 400 208 L 400 208 Z M 349 361 Q 292 414 208 416 Q 120 414 61 355 Q 2 296 0 208 Q 2 120 61 61 Q 120 2 208 0 Q 296 2 355 61 Q 414 120 416 208 Q 414 292 361 349 L 510 498 L 510 498 Q 514 504 510 510 Q 504 514 498 510 L 349 361 L 349 361 Z M 288 104 Q 288 100 285 98 Q 282 95 278 96 L 214 112 L 214 112 Q 208 114 208 120 L 208 184 L 208 184 L 208 238 L 208 238 Q 192 225 168 224 Q 144 225 128 238 Q 113 252 112 272 Q 113 292 128 306 Q 144 319 168 320 Q 192 319 207 306 Q 223 292 224 272 L 224 190 L 224 190 L 282 176 L 282 176 Q 288 174 288 168 L 288 104 L 288 104 Z M 208 272 Q 208 284 197 294 L 197 294 L 197 294 Q 187 303 168 304 Q 149 303 139 294 Q 128 284 128 272 Q 128 260 139 250 Q 149 241 168 240 Q 187 241 197 250 Q 208 260 208 272 L 208 272 Z M 272 162 L 224 174 L 272 162 L 224 174 L 224 126 L 224 126 L 272 114 L 272 114 L 272 162 L 272 162 Z" />
</svg>