<svg xmlns="http://www.w3.org/2000/svg" viewBox="0 0 512 512">
  <path d="M 228.60905 40.03292 L 237.03703 37.925926 L 237.03703 37.925926 L 228.60905 40.03292 L 228.60905 40.03292 Z M 180.14815 12.641975 L 182.25514 20.01646 L 182.25514 20.01646 L 180.14815 12.641975 L 180.14815 12.641975 Z M 350.81482 73.74486 L 358.1893 74.798355 L 358.1893 74.798355 L 350.81482 73.74486 L 350.81482 73.74486 Z M 398.22223 44.246914 L 396.11523 51.6214 L 398.22223 44.246914 L 398.22223 44.246914 Z M 427.72015 91.65432 L 420.34567 89.547325 L 420.34567 89.547325 L 427.72015 91.65432 L 427.72015 91.65432 Z M 422.45267 135.90123 L 415.0782 133.79424 L 422.45267 135.90123 L 422.45267 135.90123 Z M 470.91357 107.45679 L 468.80658 114.831276 L 470.91357 107.45679 L 470.91357 107.45679 Z M 499.35803 155.9177 L 491.98355 153.8107 L 491.98355 153.8107 L 499.35803 155.9177 L 499.35803 155.9177 Z M 436.14816 400.32922 L 428.77365 398.22223 L 436.14816 400.32922 L 436.14816 400.32922 Z M 303.4074 503.57202 L 303.4074 496.19754 L 303.4074 496.19754 L 303.4074 503.57202 L 303.4074 503.57202 Z M 303.4074 503.57202 L 303.4074 512 L 303.4074 512 L 303.4074 503.57202 L 303.4074 503.57202 Z M 303.4074 503.57202 L 303.4074 496.19754 L 303.4074 496.19754 L 303.4074 503.57202 L 303.4074 503.57202 Z M 135.90123 448.79013 L 130.63374 455.1111 L 135.90123 448.79013 L 135.90123 448.79013 Z M 24.230453 353.9753 L 29.497942 348.70782 L 29.497942 348.70782 L 24.230453 353.9753 L 24.230453 353.9753 Z M 20.01646 298.13992 L 13.695474 292.87244 L 13.695474 292.87244 L 20.01646 298.13992 L 20.01646 298.13992 Z M 75.85185 293.92593 L 70.584366 300.24692 L 70.584366 300.24692 L 75.85185 293.92593 L 75.85185 293.92593 Z M 89.547325 142.22223 L 82.17284 144.32922 L 89.547325 142.22223 L 89.547325 142.22223 Z M 165.39917 117.99177 L 172.77367 115.88477 L 172.77367 115.88477 L 165.39917 117.99177 L 165.39917 117.99177 Z M 152.7572 62.15638 L 145.38272 64.263374 L 152.7572 62.15638 L 152.7572 62.15638 Z M 214.91357 273.90945 L 206.4856 277.06995 L 214.91357 273.90945 L 214.91357 273.90945 Z M 213.86008 274.96295 L 221.23457 271.80246 L 213.86008 274.96295 L 213.86008 274.96295 Z M 138.00822 347.65433 L 132.74074 352.9218 L 138.00822 347.65433 L 138.00822 347.65433 Z M 150.6502 339.22635 L 143.27573 341.33334 L 150.6502 339.22635 L 150.6502 339.22635 Z M 296.03293 271.80246 L 288.65845 273.90945 L 296.03293 271.80246 L 296.03293 271.80246 Z M 305.5144 503.57202 L 305.5144 496.19754 L 305.5144 503.57202 L 305.5144 503.57202 Z M 387.68726 273.90945 L 395.06174 276.01645 L 387.68726 273.90945 L 387.68726 273.90945 Z M 304.4609 271.80246 L 311.8354 273.90945 L 304.4609 271.80246 L 304.4609 271.80246 Z M 385.58026 273.90945 L 392.95474 274.96295 L 385.58026 273.90945 L 385.58026 273.90945 Z M 237.03703 37.925926 Q 230.71605 17.909466 213.86008 9.481482 L 213.86008 9.481482 Q 197.00412 0 178.04115 5.26749 L 182.25514 20.01646 Q 194.89713 16.855967 206.4856 23.176954 Q 217.02057 29.497942 221.23457 42.13992 L 237.03703 37.925926 L 237.03703 37.925926 Z M 304.4609 269.69547 L 237.03703 37.925926 L 221.23457 42.13992 L 288.65845 273.90945 L 304.4609 269.69547 L 304.4609 269.69547 Z M 343.44034 71.63786 L 296.03293 269.69547 L 311.8354 273.90945 L 358.1893 74.798355 L 343.44034 71.63786 L 343.44034 71.63786 Z M 400.32922 35.81893 Q 380.31274 31.604939 364.51028 42.13992 L 364.51028 42.13992 Q 347.65433 51.6214 343.44034 71.63786 L 358.1893 74.798355 Q 362.4033 62.15638 372.93826 55.835392 Q 383.47324 48.460907 397.16873 51.6214 L 400.32922 35.81893 L 400.32922 35.81893 Z M 436.14816 93.761314 Q 439.30865 73.74486 429.82715 57.942387 L 429.82715 57.942387 Q 419.29218 41.08642 400.32922 35.81893 L 396.11523 51.6214 Q 409.8107 54.781895 416.13168 65.31687 Q 422.45267 76.90535 420.34567 89.547325 L 436.14816 93.761314 L 436.14816 93.761314 Z M 392.95474 274.96295 L 436.14816 93.761314 L 420.34567 89.547325 L 377.15225 271.80246 L 392.95474 274.96295 L 392.95474 274.96295 Z M 415.0782 133.79424 L 379.25925 271.80246 L 395.06174 276.01645 L 429.82715 138.00822 L 415.0782 133.79424 L 415.0782 133.79424 Z M 473.02057 100.082306 Q 453.00412 95.86831 436.14816 105.34979 L 436.14816 105.34979 Q 420.34567 114.831276 415.0782 133.79424 L 429.82715 138.00822 Q 434.04114 125.36626 444.57614 119.045265 Q 455.1111 112.72428 468.80658 114.831276 L 471.96707 100.082306 L 473.02057 100.082306 Z M 506.7325 158.02469 Q 510.9465 138.00822 501.46503 122.205765 L 501.46503 122.205765 Q 491.98355 105.34979 473.02057 100.082306 L 468.80658 114.831276 Q 481.44855 119.045265 487.76956 129.58025 Q 494.09055 141.16873 491.98355 153.8107 L 506.7325 158.02469 L 506.7325 158.02469 Z M 444.57614 402.43622 L 506.7325 158.02469 L 490.93005 153.8107 L 428.77365 398.22223 L 444.57614 402.43622 L 444.57614 402.43622 Z M 305.5144 512 Q 355.0288 509.893 392.95474 480.39505 L 392.95474 480.39505 Q 430.88065 450.89713 444.57614 402.43622 L 428.77365 398.22223 Q 417.18518 441.41565 383.47324 467.75308 Q 349.76132 495.14404 305.5144 496.19754 L 305.5144 512 L 305.5144 512 Z M 303.4074 512 L 305.5144 512 L 305.5144 496.19754 L 303.4074 496.19754 L 303.4074 512 L 303.4074 512 Z M 303.4074 512 L 303.4074 512 L 303.4074 496.19754 L 303.4074 496.19754 L 303.4074 512 L 303.4074 512 Z M 303.4074 512 L 303.4074 512 L 303.4074 496.19754 L 303.4074 496.19754 L 303.4074 512 L 303.4074 512 Z M 284.44446 512 L 303.4074 512 L 303.4074 496.19754 L 284.44446 496.19754 L 284.44446 512 L 284.44446 512 Z M 130.63374 455.1111 Q 197.00412 510.9465 284.44446 512 L 284.44446 496.19754 Q 203.3251 495.14404 141.16873 443.52264 L 130.63374 455.1111 L 130.63374 455.1111 Z M 18.962963 360.2963 L 130.63374 455.1111 L 141.16873 443.52264 L 29.497942 348.70782 L 18.962963 360.2963 L 18.962963 360.2963 Z M 13.695474 292.87244 Q 1.0534979 308.6749 2.1069958 327.63785 L 2.1069958 327.63785 Q 4.2139916 346.60083 18.962963 360.2963 L 29.497942 348.70782 Q 18.962963 339.22635 17.909466 326.58435 Q 16.855967 313.94238 25.28395 303.4074 L 13.695474 292.87244 L 13.695474 292.87244 Z M 81.11934 287.60495 Q 65.31687 274.96295 46.35391 277.06995 L 46.35391 277.06995 Q 27.390947 278.12344 13.695474 292.87244 L 25.28395 303.4074 Q 34.76543 293.92593 47.407406 292.87244 Q 60.04938 291.81894 70.584366 300.24692 L 81.11934 287.60495 L 81.11934 287.60495 Z M 143.27573 341.33334 L 81.11934 287.60495 L 70.584366 300.24692 L 132.74074 352.9218 L 143.27573 341.33334 L 143.27573 341.33334 Z M 82.17284 144.32922 L 143.27573 341.33334 L 158.02469 336.06586 L 96.921814 139.06172 L 82.17284 144.32922 L 82.17284 144.32922 Z M 113.77778 84.27984 Q 94.81481 90.60082 85.333336 107.45679 L 85.333336 107.45679 Q 76.90535 124.31276 82.17284 144.32922 L 96.921814 139.06172 Q 93.761314 126.419754 99.02881 114.831276 Q 105.34979 104.296295 117.99177 100.082306 L 113.77778 84.27984 L 113.77778 84.27984 Z M 172.77367 115.88477 Q 166.45268 96.921814 149.59671 88.49383 L 149.59671 88.49383 Q 132.74074 79.012344 113.77778 84.27984 L 117.99177 100.082306 Q 131.68724 95.86831 142.22223 102.1893 Q 153.8107 107.45679 158.02469 121.15226 L 172.77367 115.88477 L 172.77367 115.88477 Z M 221.23457 271.80246 L 172.77367 115.88477 L 158.02469 121.15226 L 206.4856 277.06995 L 221.23457 271.80246 L 221.23457 271.80246 Z M 145.38272 64.263374 L 206.4856 277.06995 L 222.28807 271.80246 L 160.13168 60.04938 L 145.38272 64.263374 L 145.38272 64.263374 Z M 178.04115 5.26749 Q 158.02469 10.53498 149.59671 27.390947 L 149.59671 27.390947 Q 140.11522 44.246914 145.38272 64.263374 L 160.13168 60.04938 Q 156.97119 46.35391 163.29218 35.81893 Q 169.61317 24.230453 182.25514 20.01646 L 178.04115 5.26749 L 178.04115 5.26749 Z M 213.86008 282.33746 Q 223.34157 281.28394 222.28807 271.80246 L 206.4856 277.06995 Q 205.4321 267.58847 213.86008 266.53497 L 213.86008 282.33746 L 213.86008 282.33746 Z M 206.4856 277.06995 Q 208.59259 282.33746 213.86008 282.33746 L 213.86008 266.53497 Q 219.12758 267.58847 221.23457 271.80246 L 206.4856 277.06995 L 206.4856 277.06995 Z M 132.74074 352.9218 Q 142.22223 360.2963 151.7037 353.9753 L 151.7037 353.9753 Q 161.18518 348.70782 158.02469 336.06586 L 143.27573 341.33334 L 143.27573 341.33334 L 132.74074 352.9218 L 132.74074 352.9218 Z M 288.65845 273.90945 Q 291.81894 282.33746 300.24692 282.33746 L 300.24692 266.53497 Q 303.4074 266.53497 304.4609 269.69547 L 288.65845 273.90945 L 288.65845 273.90945 Z M 305.5144 496.19754 Q 298.13992 497.25104 297.08643 503.57202 L 312.8889 503.57202 Q 312.8889 510.9465 305.5144 512 L 305.5144 496.19754 L 305.5144 496.19754 Z M 386.63376 282.33746 Q 392.95474 282.33746 395.06174 276.01645 L 379.25925 271.80246 Q 381.36624 267.58847 386.63376 266.53497 L 386.63376 282.33746 L 386.63376 282.33746 Z M 297.08643 503.57202 Q 298.13992 496.19754 305.5144 496.19754 L 305.5144 512 Q 312.8889 510.9465 312.8889 503.57202 L 297.08643 503.57202 L 297.08643 503.57202 Z M 300.24692 282.33746 Q 308.6749 282.33746 311.8354 273.90945 L 296.03293 269.69547 Q 297.08643 266.53497 300.24692 266.53497 L 300.24692 282.33746 L 300.24692 282.33746 Z M 377.15225 271.80246 Q 376.09875 281.28394 386.63376 282.33746 L 386.63376 266.53497 Q 394.00824 267.58847 392.95474 274.96295 L 377.15225 271.80246 L 377.15225 271.80246 Z" />
</svg>