<svg xmlns="http://www.w3.org/2000/svg" viewBox="0 0 512 512">
  <path d="M 226.49222 88.92212 Q 232.07477 91.314644 237.65732 93.70717 Q 231.27725 97.6947 225.6947 102.47975 Q 224.09969 101.68224 221.70717 100.884735 Q 184.2243 88.12461 150.72897 104.07477 Q 117.23364 120.024925 102.8785 156.71028 L 90.915886 188.6106 Q 71.7757 239.6511 26.317757 269.9564 L 19.140186 274.74142 Q 13.557632 278.72897 13.557632 286.70404 Q 15.152648 293.88162 22.330217 297.07166 L 204.9595 363.2648 Q 204.16199 368.04984 202.56697 372.8349 L 201.76947 376.02493 L 17.545172 309.03427 Q 3.987539 303.45172 1.5950155 288.29907 Q 0 272.3489 12.760124 263.57632 L 19.140186 259.58878 Q 61.4081 230.87851 78.95327 183.82555 L 90.915886 151.92523 Q 107.66355 110.45483 145.14642 92.11215 Q 183.42679 74.56698 226.49222 88.92212 L 226.49222 88.92212 Z M 230.47975 418.29285 Q 220.11215 407.12772 223.30219 392.77258 L 227.28972 380.01245 Q 240.84735 332.162 224.09969 285.10904 L 208.94704 244.43614 Q 193.79439 199.7757 212.13707 160.69781 Q 230.47975 120.82243 274.34268 103.27726 Q 318.2056 88.92212 358.081 107.2648 Q 397.9564 125.607475 414.70404 169.4704 L 429.8567 210.1433 Q 447.40186 256.39874 488.87228 284.31152 L 499.23987 292.2866 Q 512 301.0592 510.405 316.21185 Q 508.01245 331.36447 494.45483 336.94705 L 256.79752 423.07788 Q 242.44237 427.8629 230.47975 418.29285 L 230.47975 418.29285 Z M 236.0623 280.32397 Q 253.60748 331.36447 239.25233 383.20248 L 236.0623 395.96262 Q 233.66978 403.1402 239.25233 408.72275 Q 244.83488 413.50778 252.80997 411.11526 L 489.66977 324.98444 Q 496.84735 321.7944 498.44238 314.61682 Q 498.44238 306.64175 492.8598 302.6542 L 481.6947 295.47662 Q 437.03427 264.37384 417.89407 214.13084 L 402.74142 173.45795 Q 387.58878 135.17757 352.49844 119.22742 Q 317.4081 102.47975 278.33023 116.037384 Q 240.04985 130.39252 224.09969 165.48286 Q 207.35202 200.57321 220.90965 239.6511 L 236.0623 280.32397 L 236.0623 280.32397 Z M 351.70093 411.11526 Q 356.486 407.12772 360.4735 411.91278 Q 375.62616 427.06543 396.36136 420.68536 Q 416.29907 411.11526 417.0966 389.58255 Q 417.0966 384 422.67914 383.20248 Q 429.0592 383.20248 429.8567 388.78503 Q 429.8567 403.1402 422.67914 415.1028 Q 414.70404 426.2679 401.14642 431.85046 Q 387.58878 437.433 374.03116 434.24298 Q 360.4735 430.25546 350.9034 419.88785 Q 347.7134 415.1028 351.70093 411.11526 L 351.70093 411.11526 Z M 149.13396 385.595 Q 153.12149 381.60748 157.90654 384.79752 Q 161.89407 388.78503 158.70406 393.5701 Q 149.13396 404.7352 135.57632 407.92523 Q 122.8162 411.11526 108.46106 406.33023 Q 94.90343 400.74765 87.72585 388.78503 Q 79.75078 376.82242 80.54829 363.2648 Q 81.345795 356.88474 86.92835 356.88474 Q 92.5109 357.68225 93.30841 363.2648 Q 93.30841 384.79752 113.24611 394.3676 Q 134.77881 400.74765 149.13396 385.595 L 149.13396 385.595 Z" />
</svg>