<svg xmlns="http://www.w3.org/2000/svg" viewBox="0 0 448 512">
  <path d="M 384 368 L 224 368 L 384 368 L 224 368 Q 204 367 190 354 Q 177 340 176 320 L 176 64 L 176 64 Q 177 44 190 30 Q 204 17 224 16 L 332 16 L 332 16 Q 345 16 355 25 L 423 93 L 423 93 Q 432 103 432 116 L 432 320 L 432 320 Q 431 340 418 354 Q 404 367 384 368 L 384 368 Z M 224 384 L 384 384 L 224 384 L 384 384 Q 411 383 429 365 Q 447 347 448 320 L 448 116 L 448 116 Q 448 96 434 82 L 366 14 L 366 14 Q 352 0 332 0 L 224 0 L 224 0 Q 197 1 179 19 Q 161 37 160 64 L 160 320 L 160 320 Q 161 347 179 365 Q 197 383 224 384 L 224 384 Z M 64 128 Q 37 129 19 147 L 19 147 L 19 147 Q 1 165 0 192 L 0 448 L 0 448 Q 1 475 19 493 Q 37 511 64 512 L 224 512 L 224 512 Q 251 511 269 493 Q 287 475 288 448 L 288 416 L 288 416 L 272 416 L 272 416 L 272 448 L 272 448 Q 271 468 258 482 Q 244 495 224 496 L 64 496 L 64 496 Q 44 495 30 482 Q 17 468 16 448 L 16 192 L 16 192 Q 17 172 30 158 Q 44 145 64 144 L 128 144 L 128 144 L 128 128 L 128 128 L 64 128 L 64 128 Z" />
</svg>