<svg xmlns="http://www.w3.org/2000/svg" viewBox="0 0 515 516">
  <path d="M 179 5 Q 198 0 215 9 L 215 9 L 215 9 Q 232 18 238 38 L 302 257 L 302 257 L 345 72 L 345 72 Q 350 52 367 42 Q 383 32 403 36 Q 423 41 433 58 Q 443 74 439 94 L 435 109 L 435 109 Q 453 95 476 101 Q 496 106 505 123 Q 515 139 511 159 L 448 406 L 448 406 Q 434 455 396 485 Q 358 514 308 516 Q 308 516 308 516 Q 307 516 307 516 L 306 516 L 306 516 Q 306 516 306 516 Q 306 516 306 516 L 305 516 L 305 516 Q 305 516 305 516 Q 305 516 305 516 L 305 516 L 305 516 Q 305 516 305 516 Q 305 516 305 516 L 287 516 L 287 516 Q 199 515 131 459 L 19 363 L 19 363 Q 3 350 2 331 Q 0 312 13 296 Q 27 280 46 279 Q 65 277 81 290 L 144 344 L 144 344 L 82 145 L 82 145 Q 77 126 86 109 Q 94 92 114 85 Q 135 79 153 90 L 146 64 L 146 64 Q 141 45 150 28 Q 159 11 179 5 L 179 5 Z M 223 42 Q 219 29 207 23 L 207 23 L 207 23 Q 196 17 183 20 Q 170 24 164 36 Q 158 47 161 60 L 223 274 L 223 274 Q 225 284 215 285 Q 210 285 207 279 L 159 122 L 159 122 Q 154 109 143 103 Q 132 97 119 100 Q 106 105 100 116 Q 94 127 98 140 L 159 339 L 159 339 Q 162 351 153 357 Q 143 363 133 356 L 70 302 L 70 302 Q 60 294 47 295 Q 34 296 25 306 Q 17 317 18 329 Q 19 342 29 351 L 142 447 L 142 447 Q 205 499 287 500 L 305 500 L 305 500 Q 305 500 305 500 Q 305 500 305 500 L 305 500 L 305 500 Q 305 500 305 500 Q 305 500 305 500 L 306 500 L 306 500 Q 306 500 306 500 Q 306 500 306 500 L 307 500 L 307 500 Q 307 500 307 500 Q 307 500 307 500 Q 352 499 386 472 Q 420 445 432 402 L 495 155 L 495 155 Q 498 142 492 131 Q 485 120 472 116 Q 459 113 448 120 Q 437 126 433 139 L 398 278 L 398 278 Q 395 285 389 285 Q 379 284 380 274 L 423 90 L 423 90 Q 426 77 419 66 Q 412 55 399 52 Q 386 49 375 56 Q 364 62 361 76 L 314 276 L 314 276 Q 311 284 302 285 Q 293 284 290 276 L 223 42 L 223 42 Z" />
</svg>