<svg xmlns="http://www.w3.org/2000/svg" viewBox="0 0 512 512">
  <path d="M 14.310559 229.76398 Q 15.10559 187.62733 33.391304 152.64597 L 23.0559 144.69565 Q 2.3850932 183.65218 1.5900621 229.76398 Q 2.3850932 294.1615 38.95652 341.06833 Q 51.677017 356.17392 52.47205 374.45963 L 52.47205 453.1677 Q 53.267082 458.7329 58.8323 459.52795 Q 64.397514 458.7329 65.19254 453.1677 L 65.19254 374.45963 Q 64.397514 350.6087 49.291927 333.118 Q 15.10559 289.3913 14.310559 229.76398 L 14.310559 229.76398 Z M 395.92548 271.90063 Q 395.92548 281.44098 390.36026 289.3913 L 399.90063 296.54657 Q 408.64597 286.21118 408.64597 271.90063 Q 408.64597 253.61491 395.13043 240.89441 L 391.95032 237.71428 Q 374.45963 222.60869 364.12424 201.93788 Q 352.99377 181.26707 343.45343 158.21118 Q 343.45343 158.21118 343.45343 157.41615 L 343.45343 157.41615 L 343.45343 157.41615 Q 340.2733 150.26086 337.09317 143.10559 Q 318.80746 102.559006 282.23602 77.91304 Q 245.6646 53.267082 198.75777 52.47205 L 178.88199 52.47205 Q 141.51553 52.47205 108.91926 66.78261 L 120.04969 76.32298 Q 147.87578 65.19254 178.88199 65.19254 L 198.75777 65.19254 Q 241.68944 65.98758 275.08075 88.24844 Q 308.47205 111.304344 325.1677 148.6708 Q 326.75775 151.05591 327.5528 154.23602 Q 329.9379 158.21118 331.52795 162.18634 L 331.52795 162.18634 L 331.52795 162.18634 L 331.52795 162.18634 L 331.52795 162.18634 L 331.52795 162.18634 L 331.52795 162.18634 Q 340.2733 185.24223 352.19876 207.50311 Q 364.12424 230.559 383.20496 247.25465 L 386.3851 250.43478 Q 395.92548 259.1801 395.92548 271.90063 L 395.92548 271.90063 Z M 256 364.12424 Q 256 377.63974 265.54037 386.3851 L 265.54037 386.3851 Q 274.2857 395.92548 287.80124 395.92548 L 341.06833 395.92548 L 324.37268 383.20496 L 287.80124 383.20496 Q 270.31055 381.6149 268.7205 364.12424 Q 269.51553 352.19876 279.0559 347.42856 L 268.7205 338.68323 Q 256.79504 348.2236 256 364.12424 L 256 364.12424 Z M 345.0435 399.1056 Q 341.06833 419.7764 319.60248 421.36646 L 249.63976 421.36646 Q 244.07454 422.1615 243.27951 427.7267 L 243.27951 453.1677 Q 244.07454 458.7329 249.63976 459.52795 Q 255.20497 458.7329 256 453.1677 L 256 434.08694 L 319.60248 434.08694 Q 346.63354 432.4969 356.17392 407.85092 L 345.0435 399.1056 L 345.0435 399.1056 Z M 436.47205 325.1677 L 456.34784 341.06833 Q 459.52795 337.88818 459.52795 332.32297 Q 458.7329 320.39752 446.80746 319.60248 Q 439.65216 319.60248 436.47205 325.1677 L 436.47205 325.1677 Z M 486.55902 364.91925 L 505.63974 380.02484 Q 510.40994 376.84473 510.40994 370.48447 Q 509.6149 358.55902 497.68945 357.76398 Q 489.73914 357.76398 486.55902 364.91925 L 486.55902 364.91925 Z M 510.40994 294.1615 Q 509.6149 282.23602 497.68945 281.44098 Q 485.76398 282.23602 484.96893 294.1615 Q 485.76398 306.08694 497.68945 306.882 Q 509.6149 306.08694 510.40994 294.1615 L 510.40994 294.1615 Z M 11.925466 54.06211 Q 7.1552796 50.88199 3.1801243 54.857143 Q 0 59.62733 3.9751554 63.602486 L 500.07452 457.9379 Q 504.84473 461.118 508.8199 457.14285 Q 512 452.37268 508.02484 448.39752 L 11.925466 54.06211 L 11.925466 54.06211 Z" />
</svg>