<svg xmlns="http://www.w3.org/2000/svg" viewBox="0 0 640 480">
  <path d="M 8 0 L 344 0 L 8 0 L 344 0 Q 351 1 352 8 Q 351 15 344 16 L 328 16 L 328 16 L 328 128 L 328 128 L 344 128 L 344 128 Q 351 129 352 136 Q 351 143 344 144 L 232 144 L 8 144 Q 1 143 0 136 Q 1 129 8 128 L 24 128 L 24 128 L 24 16 L 24 16 L 8 16 L 8 16 Q 1 15 0 8 Q 1 1 8 0 L 8 0 Z M 312 16 L 232 16 L 312 16 L 232 16 L 232 128 L 232 128 L 312 128 L 312 128 L 312 16 L 312 16 Z M 216 16 L 136 16 L 216 16 L 136 16 L 136 128 L 136 128 L 216 128 L 216 128 L 216 16 L 216 16 Z M 120 16 L 40 16 L 120 16 L 40 16 L 40 128 L 40 128 L 120 128 L 120 128 L 120 16 L 120 16 Z M 384 96 Q 384 82 393 73 L 393 73 L 393 73 Q 402 64 416 64 L 491 64 L 491 64 Q 507 64 519 76 L 633 190 L 633 190 Q 640 197 640 207 L 640 344 L 640 344 Q 640 361 628 372 Q 617 384 600 384 L 576 384 L 576 384 Q 576 388 576 392 Q 575 429 550 454 Q 525 479 488 480 Q 451 479 426 454 Q 401 429 400 392 Q 400 388 400 384 L 240 384 L 240 384 Q 240 388 240 392 Q 239 429 214 454 Q 189 479 152 480 Q 115 479 90 454 Q 65 429 64 392 Q 64 388 64 384 L 40 384 L 40 384 Q 23 384 12 372 Q 0 361 0 344 L 0 232 L 0 232 Q 0 215 12 204 Q 23 192 40 192 L 384 192 L 384 192 L 384 96 L 384 96 Z M 400 208 L 384 208 L 400 208 L 40 208 Q 18 210 16 232 L 16 344 L 16 344 Q 18 366 40 368 L 67 368 L 67 368 Q 76 340 98 322 Q 121 305 152 304 Q 183 305 206 322 Q 228 340 237 368 L 403 368 L 403 368 Q 412 340 434 322 Q 457 305 488 304 Q 519 305 542 322 Q 564 340 573 368 L 600 368 L 600 368 Q 622 366 624 344 L 624 208 L 624 208 L 400 208 L 400 208 Z M 613 192 L 508 87 L 613 192 L 508 87 Q 501 80 491 80 L 416 80 L 416 80 Q 401 81 400 96 L 400 192 L 400 192 L 613 192 L 613 192 Z M 224 392 Q 223 351 188 330 Q 152 310 116 330 Q 81 351 80 392 Q 81 433 116 454 Q 152 474 188 454 Q 223 433 224 392 L 224 392 Z M 488 464 Q 529 463 550 428 Q 570 392 550 356 Q 529 321 488 320 Q 447 321 426 356 Q 406 392 426 428 Q 447 463 488 464 L 488 464 Z" />
</svg>