<svg xmlns="http://www.w3.org/2000/svg" viewBox="0 0 640 512">
  <path d="M 136 16 L 253 16 L 136 16 L 253 16 Q 267 16 274 28 L 350 162 L 350 162 Q 343 160 336 160 L 128 160 L 128 160 L 128 24 L 128 24 Q 129 17 136 16 L 136 16 Z M 112 24 L 112 160 L 112 24 L 112 160 L 48 160 L 48 160 Q 28 161 14 174 Q 1 188 0 208 L 0 272 L 0 272 Q 1 292 14 306 Q 28 319 48 320 L 336 320 L 336 320 Q 356 319 370 306 Q 383 292 384 272 L 384 224 L 384 224 L 384 208 L 384 208 L 384 205 L 384 205 Q 384 190 377 177 L 288 20 L 288 20 Q 276 1 253 0 L 136 0 L 136 0 Q 114 2 112 24 L 112 24 Z M 336 176 Q 350 176 359 185 L 359 185 L 359 185 Q 368 194 368 208 L 368 224 L 368 224 L 368 272 L 368 272 Q 368 286 359 295 Q 350 304 336 304 L 48 304 L 48 304 Q 34 304 25 295 Q 16 286 16 272 L 16 208 L 16 208 Q 16 194 25 185 Q 34 176 48 176 L 120 176 L 336 176 Z M 80 368 L 336 368 L 80 368 L 336 368 Q 363 369 381 387 Q 399 405 400 432 Q 399 459 381 477 Q 363 495 336 496 L 80 496 L 80 496 Q 53 495 35 477 Q 17 459 16 432 Q 17 405 35 387 Q 53 369 80 368 L 80 368 Z M 0 432 Q 1 466 23 489 L 23 489 L 23 489 Q 46 511 80 512 L 336 512 L 336 512 Q 370 511 393 489 Q 415 466 416 432 Q 415 398 393 375 Q 370 353 336 352 L 80 352 L 80 352 Q 46 353 23 375 Q 1 398 0 432 L 0 432 Z M 128 432 Q 127 417 112 416 Q 97 417 96 432 Q 97 447 112 448 Q 127 447 128 432 L 128 432 Z M 208 448 Q 223 447 224 432 Q 223 417 208 416 Q 193 417 192 432 Q 193 447 208 448 L 208 448 Z M 320 432 Q 319 417 304 416 Q 289 417 288 432 Q 289 447 304 448 Q 319 447 320 432 L 320 432 Z M 576 162 L 576 319 L 576 162 L 576 319 L 450 450 L 450 450 Q 440 461 440 476 Q 440 491 451 501 Q 461 512 477 512 L 552 512 L 552 512 Q 589 511 614 486 Q 639 461 640 424 L 640 384 L 640 384 L 640 320 L 640 320 L 640 272 L 640 272 L 640 43 L 640 43 Q 640 25 627 13 Q 615 0 597 0 Q 581 0 569 10 L 416 138 L 416 138 L 416 158 L 416 158 L 579 22 L 579 22 Q 587 16 597 16 Q 608 16 616 24 Q 624 32 624 43 L 624 272 L 624 272 L 624 320 L 624 320 L 624 384 L 624 384 L 624 424 L 624 424 Q 623 455 603 475 Q 583 495 552 496 L 477 496 L 477 496 Q 458 494 456 476 Q 456 467 462 461 L 590 328 L 590 328 Q 592 325 592 322 L 592 144 L 592 144 Q 592 139 587 137 Q 583 135 579 138 L 416 279 L 416 279 L 416 300 L 416 300 L 576 162 L 576 162 Z" />
</svg>