<svg xmlns="http://www.w3.org/2000/svg" viewBox="0 0 448 514">
  <path d="M 230 510 Q 224 514 218 510 L 82 374 L 82 374 Q 78 368 82 362 Q 88 358 94 362 L 216 485 L 216 485 L 216 168 L 216 168 Q 217 161 224 160 Q 231 161 232 168 L 232 485 L 232 485 L 354 362 L 354 362 Q 360 358 366 362 Q 370 368 366 374 L 230 510 L 230 510 Z M 16 184 Q 15 191 8 192 Q 1 191 0 184 L 0 88 L 0 88 Q 1 51 26 26 Q 51 1 88 0 L 360 0 L 360 0 Q 397 1 422 26 Q 447 51 448 88 L 448 184 L 448 184 Q 447 191 440 192 Q 433 191 432 184 L 432 88 L 432 88 Q 431 57 411 37 Q 391 17 360 16 L 88 16 L 88 16 Q 57 17 37 37 Q 17 57 16 88 L 16 184 L 16 184 Z" />
</svg>