<svg xmlns="http://www.w3.org/2000/svg" viewBox="0 0 512 512">
  <path d="M 273 23 L 347 97 L 273 23 L 347 97 Q 356 108 347 120 L 267 199 L 267 199 Q 256 209 245 199 L 165 120 L 165 120 Q 156 108 165 97 L 239 23 L 239 23 Q 256 9 273 23 L 273 23 Z M 97 165 Q 108 156 120 165 L 199 245 L 199 245 Q 209 256 199 267 L 120 347 L 120 347 Q 108 356 97 347 L 23 273 L 23 273 Q 9 256 23 239 L 97 165 L 97 165 Z M 165 415 Q 156 404 165 392 L 245 313 L 245 313 Q 256 303 267 313 L 347 392 L 347 392 Q 356 404 347 415 L 273 489 L 273 489 Q 256 503 239 489 L 165 415 L 165 415 Z M 415 347 Q 404 356 392 347 L 313 267 L 313 267 Q 303 256 313 245 L 392 165 L 392 165 Q 404 156 415 165 L 489 239 L 489 239 Q 503 256 489 273 L 415 347 L 415 347 Z M 284 12 Q 272 0 256 0 L 256 0 L 256 0 Q 240 0 228 12 L 154 86 L 154 86 Q 144 96 144 108 Q 144 121 154 131 L 233 211 L 233 211 Q 243 220 256 220 Q 269 220 279 211 L 358 131 L 358 131 Q 368 121 368 108 Q 368 96 358 86 L 284 12 L 284 12 Z M 86 154 L 12 228 L 86 154 L 12 228 Q 0 240 0 256 Q 0 272 12 284 L 86 358 L 86 358 Q 96 368 108 368 Q 121 368 131 358 L 211 279 L 211 279 Q 220 269 220 256 Q 220 243 211 233 L 131 154 L 131 154 Q 121 144 108 144 Q 96 144 86 154 L 86 154 Z M 154 381 Q 144 391 144 404 L 144 404 L 144 404 Q 144 416 154 426 L 228 500 L 228 500 Q 240 512 256 512 Q 272 512 284 500 L 359 426 L 359 426 Q 368 416 368 404 Q 368 391 359 381 L 279 301 L 279 301 Q 269 292 256 292 Q 243 292 233 301 L 154 381 L 154 381 Z M 426 358 L 500 284 L 426 358 L 500 284 Q 512 272 512 256 Q 512 240 500 228 L 426 154 L 426 154 Q 416 144 404 144 Q 391 144 381 154 L 301 233 L 301 233 Q 292 243 292 256 Q 292 269 301 279 L 381 358 L 381 358 Q 391 368 404 368 Q 416 368 426 358 L 426 358 Z" />
</svg>