<svg xmlns="http://www.w3.org/2000/svg" viewBox="0 0 504 512">
  <path d="M 64 496 L 112 496 L 64 496 L 112 496 L 112 512 L 112 512 L 64 512 L 64 512 Q 37 511 19 493 Q 1 475 0 448 L 0 64 L 0 64 Q 1 37 19 19 Q 37 1 64 0 L 204 0 L 204 0 Q 224 0 238 14 L 370 146 L 370 146 Q 384 160 384 180 L 384 320 L 384 320 L 368 320 L 368 320 L 368 180 L 368 180 Q 368 178 368 176 Q 368 176 368 176 L 248 176 L 248 176 Q 231 176 220 164 Q 208 153 208 136 L 208 16 L 208 16 Q 206 16 204 16 L 64 16 L 64 16 Q 44 17 30 30 Q 17 44 16 64 L 16 448 L 16 448 Q 17 468 30 482 Q 44 495 64 496 L 64 496 Z M 361 160 Q 360 159 359 157 L 227 25 L 227 25 Q 225 24 224 23 L 224 136 L 224 136 Q 226 158 248 160 L 361 160 L 361 160 Z M 184 376 Q 184 390 192 401 L 208 426 L 208 426 L 225 401 L 225 401 Q 232 390 232 376 Q 233 369 240 368 Q 247 369 248 376 Q 248 394 238 410 L 218 440 L 218 440 L 238 470 L 238 470 Q 248 486 248 504 Q 247 511 240 512 Q 233 511 232 504 Q 232 490 225 479 L 208 454 L 208 454 L 192 479 L 192 479 Q 184 490 184 504 Q 183 511 176 512 Q 169 511 168 504 Q 168 486 178 470 L 198 440 L 198 440 L 178 410 L 178 410 Q 168 394 168 376 Q 169 369 176 368 Q 183 369 184 376 L 184 376 Z M 456 504 L 456 376 L 456 504 L 456 376 Q 457 369 464 368 Q 471 369 472 376 L 472 496 L 472 496 L 496 496 L 496 496 Q 503 497 504 504 Q 503 511 496 512 L 464 512 L 464 512 Q 457 511 456 504 L 456 504 Z M 302 368 Q 308 367 311 372 L 352 441 L 352 441 L 393 372 L 393 372 Q 396 367 402 368 Q 408 370 408 376 L 408 504 L 408 504 Q 407 511 400 512 Q 393 511 392 504 L 392 405 L 392 405 L 359 460 L 359 460 Q 356 464 352 464 Q 348 464 345 460 L 312 405 L 312 405 L 312 504 L 312 504 Q 311 511 304 512 Q 297 511 296 504 L 296 376 L 296 376 Q 296 370 302 368 L 302 368 Z" />
</svg>