<svg xmlns="http://www.w3.org/2000/svg" viewBox="0 0 609 514">
  <path d="M 505 12 Q 517 0 533 0 L 600 0 L 600 0 Q 607 1 608 8 Q 607 15 600 16 L 533 16 L 533 16 Q 523 16 516 23 L 491 49 L 491 49 Q 541 55 574 91 Q 607 127 608 179 Q 607 208 588 228 Q 568 247 539 248 L 468 248 L 468 248 Q 456 248 445 245 Q 456 264 456 288 Q 456 301 452 313 Q 452 313 452 313 Q 453 314 453 314 L 556 390 L 556 390 Q 575 403 582 425 L 608 502 L 608 502 Q 609 509 603 512 Q 595 513 592 507 L 567 430 L 567 430 Q 561 413 547 402 L 446 329 L 446 329 Q 436 347 419 360 L 468 409 L 468 409 Q 479 419 484 433 L 511 501 L 511 501 Q 513 508 507 511 Q 500 513 497 507 L 469 439 L 469 439 Q 465 429 457 420 L 405 368 L 405 368 Q 388 376 368 376 Q 343 376 322 363 L 309 385 L 309 385 L 239 508 L 239 508 Q 235 514 228 511 Q 222 507 225 500 L 295 377 L 295 377 Q 295 377 295 377 Q 295 377 295 377 L 295 377 L 295 377 L 309 354 L 309 354 Q 293 339 286 319 Q 270 353 238 370 L 159 508 L 159 508 Q 155 514 148 511 Q 142 507 145 500 L 214 380 L 214 380 Q 199 384 184 384 L 150 384 L 150 384 L 79 508 L 79 508 Q 75 514 68 511 Q 62 507 65 500 L 131 384 L 131 384 L 83 384 L 83 384 Q 48 383 24 360 Q 1 336 0 301 Q 2 234 46 190 Q 90 146 157 144 L 176 144 L 176 144 Q 221 145 253 172 Q 285 198 294 241 Q 319 202 368 200 Q 376 200 383 201 Q 368 178 368 148 Q 369 106 397 77 Q 426 49 468 48 L 469 48 L 469 48 Q 469 47 470 47 L 505 12 L 505 12 Z M 384 148 Q 385 184 409 207 L 409 207 L 409 207 Q 432 231 468 232 L 539 232 L 539 232 Q 561 231 576 216 Q 591 201 592 179 Q 591 130 558 98 Q 526 65 477 64 L 468 64 L 468 64 Q 432 65 409 89 Q 385 112 384 148 L 384 148 Z M 496 128 Q 511 129 512 144 Q 511 159 496 160 Q 481 159 480 144 Q 481 129 496 128 L 496 128 Z M 368 216 Q 327 217 306 252 Q 286 288 306 324 Q 327 359 368 360 Q 409 359 430 324 Q 450 288 430 252 Q 409 217 368 216 L 368 216 Z M 16 301 Q 17 330 36 348 L 36 348 L 36 348 Q 54 367 83 368 L 184 368 L 184 368 Q 225 367 252 340 Q 279 313 280 272 L 280 264 L 280 264 Q 279 220 250 190 Q 220 161 176 160 L 157 160 L 157 160 Q 97 162 57 201 Q 18 241 16 301 L 16 301 Z" />
</svg>