<svg xmlns="http://www.w3.org/2000/svg" viewBox="0 0 640 507">
  <path d="M 320 40 L 302 22 L 320 40 L 302 22 Q 279 0 249 0 Q 219 0 196 22 Q 174 45 174 76 Q 174 106 196 130 L 298 233 L 298 233 Q 307 243 320 243 Q 333 243 343 233 L 444 130 L 444 130 Q 466 106 466 76 Q 466 45 444 22 Q 421 0 391 0 Q 361 0 338 22 L 320 40 L 320 40 Z M 326 57 L 349 33 L 326 57 L 349 33 Q 367 15 391 15 Q 414 15 433 33 Q 450 52 450 76 Q 450 100 433 119 L 331 222 L 331 222 Q 326 227 320 227 Q 314 227 309 222 L 207 119 L 207 119 Q 190 100 190 76 Q 190 52 207 33 Q 226 16 249 16 Q 273 16 291 33 L 314 57 L 314 57 Q 320 62 326 57 L 326 57 Z M 96 105 Q 95 85 82 71 L 82 71 L 82 71 Q 68 58 48 57 Q 28 58 14 71 Q 1 85 0 105 L 0 337 L 0 337 Q 1 380 31 411 L 122 503 L 122 503 Q 128 507 134 503 Q 138 497 134 491 L 42 400 L 42 400 Q 17 374 16 337 L 16 105 L 16 105 Q 16 91 25 82 Q 34 73 48 73 Q 62 73 71 82 Q 80 91 80 105 L 80 252 L 80 252 Q 80 284 103 307 L 122 327 L 122 327 L 178 383 L 178 383 Q 178 383 178 383 L 186 391 L 186 391 Q 192 395 198 391 Q 202 385 198 379 L 190 371 L 190 371 Q 190 371 190 371 Q 190 371 190 371 L 134 315 L 134 315 Q 134 315 134 315 Q 134 315 134 315 Q 118 297 132 276 Q 141 267 153 266 Q 165 266 174 275 L 267 367 L 267 367 Q 288 388 288 418 L 288 497 L 288 497 Q 289 504 296 505 Q 303 504 304 497 L 304 418 L 304 418 Q 303 382 279 356 L 186 263 L 186 263 Q 171 250 152 250 Q 134 251 120 266 Q 111 277 110 291 Q 96 274 96 252 L 96 105 L 96 105 Z M 592 57 Q 572 58 558 71 L 558 71 L 558 71 Q 545 85 544 105 L 544 252 L 544 252 Q 544 274 531 291 Q 529 277 520 266 Q 506 251 488 250 Q 469 250 454 264 L 362 356 L 362 356 Q 337 382 336 418 L 336 497 L 336 497 Q 337 504 344 505 Q 351 504 352 497 L 352 418 L 352 418 Q 353 389 373 368 L 466 275 L 466 275 Q 475 266 487 266 Q 499 267 508 276 Q 522 297 506 316 Q 506 316 506 316 Q 506 316 506 316 L 451 371 L 451 371 Q 451 371 451 371 L 443 379 L 443 379 Q 438 385 443 391 Q 448 395 454 391 L 462 383 L 462 383 L 518 327 L 518 327 L 537 307 L 537 307 Q 560 284 560 252 L 560 105 L 560 105 Q 560 91 569 82 Q 578 73 592 73 Q 606 73 615 82 Q 624 91 624 105 L 624 337 L 624 337 Q 623 373 598 399 L 506 491 L 506 491 Q 502 497 506 503 Q 512 507 518 503 L 610 411 L 610 411 Q 639 380 640 337 L 640 105 L 640 105 Q 639 85 626 71 Q 612 58 592 57 L 592 57 Z" />
</svg>