<svg xmlns="http://www.w3.org/2000/svg" viewBox="0 0 512 512">
  <path d="M 12.8 121.6 Q 13.6 96.8 29.6 80.8 L 29.6 80.8 Q 45.6 64.8 70.4 64 L 288 64 Q 312.8 64.8 328.8 80.8 Q 344.8 96.8 345.6 121.6 L 345.6 155.2 Q 352 152.8 358.4 153.6 L 358.4 121.6 Q 357.6 92 337.6 72 Q 317.6 52 288 51.2 L 70.4 51.2 Q 40.8 52 20.8 72 Q 0.8 92 0 121.6 L 0 332.8 L 0 332.8 Q 0 336 0 339.2 Q 0.8 368.8 20.8 388.8 Q 40.8 408.8 70.4 409.6 L 251.2 409.6 Q 248 403.2 244.8 396.8 L 70.4 396.8 Q 45.6 396 29.6 380 Q 13.6 364 12.8 339.2 Q 13.6 314.4 29.6 298.4 Q 45.6 282.4 70.4 281.6 L 241.6 281.6 Q 244 275.2 247.2 268.8 L 70.4 268.8 Q 33.6 270.4 12.8 298.4 L 12.8 121.6 L 12.8 121.6 Z M 230.4 332.8 L 70.4 332.8 Q 64.8 333.6 64 339.2 Q 64.8 344.8 70.4 345.6 L 231.2 345.6 Q 230.4 339.2 230.4 332.8 L 230.4 332.8 Z M 407.2 241.6 Q 413.6 240.8 417.6 236.8 Q 426.4 224.8 436 215.2 Q 464 241.6 481.6 276 Q 489.6 292 494.4 307.2 Q 499.2 323.2 499.2 332.8 Q 497.6 381.6 465.6 414.4 Q 432.8 446.4 384 448 Q 334.4 446.4 302.4 414.4 Q 269.6 381.6 268.8 332.8 Q 269.6 304.8 292.8 265.6 Q 316 228 355.2 192.8 Q 377.6 212.8 397.6 236.8 Q 401.6 240.8 407.2 241.6 L 407.2 241.6 Z M 398.4 218.4 Q 381.6 199.2 363.2 182.4 Q 359.2 179.2 355.2 179.2 Q 350.4 179.2 347.2 182.4 Q 306.4 219.2 281.6 259.2 Q 256.8 299.2 256 332.8 Q 257.6 387.2 292.8 423.2 Q 328.8 459.2 384 460.8 Q 438.4 459.2 474.4 423.2 Q 510.4 387.2 512 332.8 Q 512 320.8 506.4 304 Q 501.6 287.2 492.8 269.6 Q 474.4 233.6 444 204.8 Q 436 198.4 428 204.8 Q 421.6 211.2 415.2 218.4 Q 411.2 223.2 407.2 228.8 Q 403.2 223.2 398.4 218.4 L 398.4 218.4 Z M 353.6 256 Q 350.4 256 348.8 258.4 Q 328.8 282.4 318.4 300 Q 307.2 316.8 307.2 335.2 Q 308 370.4 330.4 390.4 Q 352.8 409.6 385.6 410.4 Q 411.2 410.4 432 396 L 432 396 L 432 396 Q 454.4 379.2 459.2 353.6 Q 464.8 327.2 452 302.4 L 452 302.4 L 452 302.4 Q 451.2 302.4 451.2 301.6 Q 448.8 296.8 444.8 291.2 Q 443.2 288.8 440 288.8 Q 436.8 288.8 435.2 291.2 L 408.8 322.4 L 405.6 317.6 L 387.2 295.2 Q 379.2 284 372 275.2 Q 364 265.6 360.8 260.8 Q 359.2 259.2 358.4 258.4 Q 356.8 256 353.6 256 L 353.6 256 Z M 408 332 L 403.2 336 Q 404.8 338.4 408 338.4 Q 411.2 338.4 412.8 336 L 439.2 305.6 Q 439.2 306.4 440 307.2 Q 440 308 440 308.8 L 440 308.8 L 440.8 308.8 Q 451.2 329.6 447.2 350.4 Q 442.4 372 424.8 385.6 Q 406.4 397.6 384.8 397.6 Q 356.8 396.8 339.2 380.8 Q 320.8 364.8 320 335.2 Q 320 321.6 328.8 306.4 Q 337.6 292.8 353.6 272.8 Q 355.2 275.2 357.6 278.4 Q 366.4 289.6 376.8 303.2 L 395.2 326.4 L 400.8 333.6 L 402.4 335.2 L 403.2 336 L 403.2 336 L 403.2 336 L 403.2 336 L 403.2 336 L 408 332 L 408 332 Z" />
</svg>