<svg xmlns="http://www.w3.org/2000/svg" viewBox="0 0 514 514">
  <path d="M 334 430 Q 299 496 258 496 Q 246 496 233 489 L 233 491 L 233 491 Q 229 502 221 509 Q 239 512 258 512 Q 330 511 387 477 Q 445 443 479 385 Q 513 327 514 256 Q 513 184 479 127 Q 445 69 387 35 Q 330 1 258 0 Q 186 1 129 35 Q 71 69 37 127 Q 3 184 2 256 Q 2 275 5 293 Q 11 286 19 283 Q 18 270 18 256 Q 18 214 32 176 L 136 176 L 136 176 Q 130 212 130 251 L 146 246 L 146 246 Q 147 209 153 176 L 364 176 L 364 176 Q 370 214 370 256 Q 370 298 364 336 L 277 336 L 277 336 L 272 352 L 272 352 L 360 352 L 360 352 Q 351 397 334 430 L 334 430 Z M 182 82 Q 217 16 258 16 Q 299 16 334 82 Q 351 115 360 160 L 156 160 L 156 160 Q 165 115 182 82 L 182 82 Z M 386 256 Q 386 214 380 176 L 484 176 L 484 176 Q 498 214 498 256 Q 498 298 484 336 L 380 336 L 380 336 Q 386 298 386 256 L 386 256 Z M 377 160 Q 357 65 310 22 Q 367 35 411 71 Q 455 107 478 160 L 377 160 L 377 160 Z M 38 160 Q 61 107 105 71 L 105 71 L 105 71 Q 149 35 207 22 Q 159 65 139 160 L 38 160 L 38 160 Z M 377 352 L 478 352 L 377 352 L 478 352 Q 455 405 411 441 Q 367 477 309 491 Q 357 448 377 352 L 377 352 Z M 266 258 Q 267 254 264 250 Q 260 247 256 248 L 32 312 L 32 312 Q 26 314 26 320 Q 26 326 32 328 L 140 362 L 140 362 L 4 498 L 4 498 Q 0 504 4 510 Q 10 514 16 510 L 152 374 L 152 374 L 186 482 L 186 482 Q 188 488 194 488 Q 200 488 202 482 L 266 258 L 266 258 Z M 62 320 L 246 268 L 62 320 L 246 268 L 194 452 L 194 452 L 163 356 L 163 356 Q 162 353 158 351 L 62 320 L 62 320 Z" />
</svg>