<svg xmlns="http://www.w3.org/2000/svg" viewBox="0 0 512 512">
  <path d="M 330.32257 8.258064 Q 331.35483 15.4838705 338.58066 16.516129 L 484.12903 16.516129 L 208.51613 291.09677 Q 204.3871 297.2903 208.51613 303.48386 Q 214.70967 307.6129 220.90323 303.48386 L 495.48386 27.870968 L 495.48386 173.41936 Q 496.51614 180.64516 503.74194 181.67741 Q 510.96774 180.64516 512 173.41936 L 512 8.258064 Q 510.96774 1.032258 503.74194 0 L 338.58066 0 Q 331.35483 1.032258 330.32257 8.258064 L 330.32257 8.258064 Z M 57.80645 49.548386 Q 33.032257 50.580647 16.516129 66.064514 L 16.516129 66.064514 Q 1.032258 82.58064 0 107.354836 L 0 454.19354 Q 1.032258 478.96774 16.516129 495.48386 Q 33.032257 510.96774 57.80645 512 L 404.64517 512 Q 429.41934 510.96774 445.9355 495.48386 Q 461.41934 478.96774 462.4516 454.19354 L 462.4516 305.5484 Q 461.41934 298.32257 454.19354 297.2903 Q 446.96774 298.32257 445.9355 305.5484 L 445.9355 454.19354 Q 445.9355 471.74194 433.5484 483.09677 Q 422.19354 495.48386 404.64517 495.48386 L 57.80645 495.48386 Q 40.258064 495.48386 28.903225 483.09677 Q 16.516129 471.74194 16.516129 454.19354 L 16.516129 107.354836 Q 16.516129 89.80645 28.903225 78.451614 Q 40.258064 66.064514 57.80645 66.064514 L 206.45161 66.064514 Q 213.67741 65.03226 214.70967 57.80645 Q 213.67741 50.580647 206.45161 49.548386 L 57.80645 49.548386 L 57.80645 49.548386 Z" />
</svg>