<svg xmlns="http://www.w3.org/2000/svg" viewBox="0 0 608 480">
  <path d="M 128 16 L 128 96 L 128 16 L 128 96 L 216 96 L 320 96 L 320 16 L 320 16 L 128 16 L 128 16 Z M 112 96 L 112 16 L 112 96 L 112 16 L 64 16 L 64 16 Q 44 17 30 30 Q 17 44 16 64 L 16 96 L 16 96 L 112 96 L 112 96 Z M 16 112 L 16 216 L 16 112 L 16 216 L 216 216 L 216 216 L 216 112 L 216 112 L 16 112 L 16 112 Z M 16 336 L 112 336 L 16 336 L 112 336 L 112 232 L 112 232 L 16 232 L 16 232 L 16 336 L 16 336 Z M 16 352 L 16 384 L 16 352 L 16 384 Q 17 404 30 418 Q 44 431 64 432 L 216 432 L 216 432 L 216 352 L 216 352 L 128 352 L 16 352 Z M 128 336 L 257 336 L 128 336 L 257 336 Q 258 344 259 352 L 232 352 L 232 352 L 232 432 L 232 432 L 293 432 L 293 432 Q 299 440 305 448 L 64 448 L 64 448 Q 37 447 19 429 Q 1 411 0 384 L 0 64 L 0 64 Q 1 37 19 19 Q 37 1 64 0 L 384 0 L 384 0 Q 411 1 429 19 Q 447 37 448 64 L 448 113 L 448 113 Q 446 110 443 108 Q 438 103 432 101 L 432 64 L 432 64 Q 431 44 418 30 Q 404 17 384 16 L 336 16 L 336 16 L 336 96 L 336 96 L 336 112 L 336 112 L 232 112 L 232 112 L 232 216 L 232 216 L 290 216 L 290 216 Q 285 224 281 232 L 128 232 L 128 232 L 128 336 L 128 336 Z M 414 144 Q 411 144 409 146 Q 372 178 339 224 Q 306 270 304 319 Q 304 357 321 389 Q 338 420 368 440 Q 352 418 352 391 Q 353 362 369 336 Q 386 310 406 291 Q 427 271 439 262 Q 448 256 457 262 Q 469 271 490 291 Q 510 310 527 336 Q 543 362 544 391 Q 544 418 529 439 Q 558 419 575 388 Q 592 357 592 319 Q 591 280 567 240 Q 544 200 514 173 Q 510 169 506 173 Q 497 181 488 192 Q 476 204 463 192 Q 442 167 417 146 Q 416 144 413 144 L 414 144 Z M 448 464 Q 452 464 456 464 Q 488 460 508 440 Q 527 419 528 391 Q 526 355 497 322 Q 468 290 448 276 Q 428 290 399 322 Q 370 355 368 391 Q 369 419 388 440 Q 408 460 440 464 Q 444 464 448 464 L 448 464 Z M 288 319 Q 291 263 325 215 Q 360 167 399 134 Q 405 128 414 128 Q 422 128 428 134 Q 453 156 475 182 Q 475 182 475 182 Q 475 182 475 182 Q 475 182 475 182 Q 475 182 475 182 Q 475 182 475 182 Q 475 182 475 182 Q 475 182 475 182 Q 475 182 476 182 L 476 182 L 476 182 Q 485 171 495 161 Q 510 149 525 161 Q 557 189 581 232 Q 606 274 608 319 Q 606 385 564 430 Q 522 474 457 480 Q 453 480 448 480 Q 443 480 439 480 Q 373 475 331 430 Q 289 385 288 319 L 288 319 Z" />
</svg>