<svg xmlns="http://www.w3.org/2000/svg" viewBox="0 0 640 480">
  <path d="M 384 16 L 64 16 L 384 16 L 64 16 Q 44 17 30 30 Q 17 44 16 64 L 16 384 L 16 384 Q 17 404 30 418 Q 44 431 64 432 L 325 432 L 325 432 Q 331 440 338 448 L 64 448 L 64 448 Q 37 447 19 429 Q 1 411 0 384 L 0 64 L 0 64 Q 1 37 19 19 Q 37 1 64 0 L 384 0 L 384 0 Q 411 1 429 19 Q 447 37 448 64 L 448 96 L 448 96 Q 440 95 432 98 L 432 64 L 432 64 Q 431 44 418 30 Q 404 17 384 16 L 384 16 Z M 349 176 L 96 176 L 349 176 L 96 176 Q 82 176 73 167 Q 64 158 64 144 L 64 96 L 64 96 Q 64 82 73 73 Q 82 64 96 64 L 352 64 L 352 64 Q 366 64 375 73 Q 384 82 384 96 L 384 135 L 384 135 Q 365 155 349 176 L 349 176 Z M 352 80 L 96 80 L 352 80 L 96 80 Q 81 81 80 96 L 80 144 L 80 144 Q 81 159 96 160 L 352 160 L 352 160 Q 367 159 368 144 L 368 96 L 368 96 Q 367 81 352 80 L 352 80 Z M 112 224 Q 127 225 128 240 Q 127 255 112 256 Q 97 255 96 240 Q 97 225 112 224 L 112 224 Z M 160 240 Q 161 225 176 224 Q 191 225 192 240 Q 191 255 176 256 Q 161 255 160 240 L 160 240 Z M 240 224 Q 255 225 256 240 Q 255 255 240 256 Q 225 255 224 240 Q 225 225 240 224 L 240 224 Z M 446 144 Q 443 144 441 145 Q 404 178 371 224 Q 338 270 336 319 Q 336 357 353 388 Q 370 420 400 440 Q 384 418 384 390 Q 385 361 401 336 Q 418 310 438 291 Q 459 271 471 262 Q 480 256 489 262 Q 501 271 522 291 Q 542 310 559 336 Q 575 361 576 390 Q 576 418 561 439 Q 590 419 607 388 Q 624 357 624 319 Q 623 280 600 240 Q 576 199 546 172 Q 542 169 538 172 Q 529 181 520 192 Q 508 204 495 192 Q 474 167 449 145 Q 448 144 445 144 L 446 144 Z M 480 464 Q 484 464 488 464 Q 520 460 540 440 Q 559 419 560 391 Q 558 355 529 322 Q 500 290 480 276 Q 460 290 431 322 Q 402 355 400 390 Q 401 419 420 440 Q 440 460 472 464 Q 476 464 480 464 L 480 464 Z M 320 319 Q 323 263 357 215 Q 392 167 431 134 Q 437 128 446 128 Q 454 128 460 134 Q 485 156 507 182 Q 507 182 507 182 Q 507 182 507 182 Q 507 182 507 182 Q 507 182 507 182 Q 507 182 507 182 Q 507 182 507 182 Q 507 182 507 182 Q 507 182 508 182 Q 508 182 508 182 Q 508 182 508 182 Q 508 182 508 182 Q 508 182 508 182 Q 517 171 527 161 Q 542 149 557 161 Q 589 189 613 232 Q 638 274 640 319 Q 638 385 596 430 Q 554 474 489 480 Q 485 480 480 480 Q 475 480 471 480 Q 405 474 363 430 Q 321 385 320 319 L 320 319 Z" />
</svg>