<svg xmlns="http://www.w3.org/2000/svg" viewBox="0 0 640 480">
  <path d="M 352 16 L 448 16 L 352 16 L 448 16 Q 468 17 482 30 Q 495 44 496 64 L 496 134 L 496 134 Q 504 131 512 129 L 512 64 L 512 64 Q 511 37 493 19 Q 475 1 448 0 L 64 0 L 64 0 Q 37 1 19 19 Q 1 37 0 64 L 0 384 L 0 384 Q 1 411 19 429 Q 37 447 64 448 L 384 448 L 384 448 L 384 432 L 384 432 L 352 432 L 352 432 L 352 304 L 352 304 L 386 304 L 386 304 Q 388 295 393 288 L 352 288 L 352 288 L 352 160 L 352 160 L 456 160 L 456 160 Q 465 151 475 144 L 352 144 L 352 144 L 352 16 L 352 16 Z M 336 16 L 336 144 L 336 16 L 336 144 L 176 144 L 176 144 L 176 16 L 176 16 L 336 16 L 336 16 Z M 160 16 L 160 432 L 160 16 L 160 432 L 64 432 L 64 432 Q 44 431 30 418 Q 17 404 16 384 L 16 64 L 16 64 Q 17 44 30 30 Q 44 17 64 16 L 160 16 L 160 16 Z M 176 432 L 176 304 L 176 432 L 176 304 L 336 304 L 336 304 L 336 432 L 336 432 L 176 432 L 176 432 Z M 336 288 L 176 288 L 336 288 L 176 288 L 176 160 L 176 160 L 336 160 L 336 160 L 336 288 L 336 288 Z M 528 176 Q 548 177 562 190 L 562 190 L 562 190 Q 575 204 576 224 L 576 288 L 576 288 L 480 288 L 480 288 L 480 224 L 480 224 Q 481 204 494 190 Q 508 177 528 176 L 528 176 Z M 464 224 L 464 288 L 464 224 L 464 288 L 448 288 L 448 288 Q 434 288 425 297 Q 416 306 416 320 L 416 448 L 416 448 Q 416 462 425 471 Q 434 480 448 480 L 608 480 L 608 480 Q 622 480 631 471 Q 640 462 640 448 L 640 320 L 640 320 Q 640 306 631 297 Q 622 288 608 288 L 592 288 L 592 288 L 592 224 L 592 224 Q 591 197 573 179 Q 555 161 528 160 Q 501 161 483 179 Q 465 197 464 224 L 464 224 Z M 448 304 L 464 304 L 448 304 L 608 304 Q 623 305 624 320 L 624 448 L 624 448 Q 623 463 608 464 L 448 464 L 448 464 Q 433 463 432 448 L 432 320 L 432 320 Q 433 305 448 304 L 448 304 Z" />
</svg>