<svg xmlns="http://www.w3.org/2000/svg" viewBox="0 0 640 512">
  <path d="M 384 184 L 384 190 L 384 184 L 384 190 L 176 7 L 176 7 Q 168 0 157 0 Q 145 0 137 9 Q 128 17 128 29 Q 128 40 135 48 L 384 331 L 384 331 L 384 331 L 384 331 Q 384 347 396 359 L 450 414 L 450 414 Q 450 414 450 414 Q 450 414 450 414 L 538 501 L 538 501 Q 549 512 564 512 Q 579 512 590 501 L 629 462 L 629 462 Q 640 451 640 436 Q 640 421 629 410 L 542 323 L 542 323 Q 542 323 542 323 Q 542 323 542 323 Q 542 323 542 323 Q 542 323 542 323 L 398 179 L 398 179 Q 394 175 389 177 Q 384 179 384 184 L 384 184 Z M 147 38 Q 144 34 144 29 Q 145 17 157 16 Q 162 16 166 19 L 384 212 L 384 212 L 384 306 L 384 306 L 147 38 L 147 38 Z M 407 348 Q 400 341 400 331 L 400 203 L 400 203 L 525 328 L 525 328 L 490 362 L 490 362 L 456 397 L 456 397 L 407 348 L 407 348 Z M 536 339 L 618 421 L 536 339 L 618 421 Q 624 427 624 436 Q 624 445 618 451 L 604 465 L 604 465 L 507 368 L 507 368 L 536 339 L 536 339 Z M 593 476 L 579 490 L 593 476 L 579 490 Q 573 496 564 496 Q 555 496 549 490 L 467 408 L 467 408 L 496 379 L 496 379 L 593 476 L 593 476 Z M 193 246 L 182 234 L 193 246 L 182 234 Q 176 230 170 234 Q 166 240 170 246 L 181 256 L 181 256 L 112 325 L 112 325 L 110 322 L 110 322 Q 104 318 98 322 L 14 407 L 14 407 Q 0 421 0 440 Q 0 459 14 473 L 39 498 L 39 498 Q 53 512 72 512 Q 91 512 105 498 L 190 414 L 190 414 Q 194 408 190 402 L 187 400 L 187 400 L 256 331 L 256 331 L 266 342 L 266 342 Q 272 346 278 342 Q 282 336 278 330 L 266 319 L 266 319 L 305 275 L 305 275 L 295 262 L 295 262 L 255 308 L 255 308 L 204 257 L 204 257 L 253 214 L 253 214 L 243 202 L 243 202 L 193 246 L 193 246 Z M 493 38 L 392 152 L 493 38 L 392 152 Q 401 152 409 157 L 505 48 L 505 48 Q 512 40 512 29 Q 512 17 504 9 Q 495 0 483 0 Q 472 0 464 7 L 336 120 L 336 120 L 348 130 L 348 130 L 474 19 L 474 19 Q 478 16 483 16 Q 495 17 496 29 Q 496 34 493 38 L 493 38 Z M 192 267 L 245 320 L 192 267 L 245 320 L 216 349 L 216 349 L 214 346 L 214 346 L 166 298 L 166 298 L 163 296 L 163 296 L 192 267 L 192 267 Z M 123 336 L 152 307 L 123 336 L 152 307 L 154 310 L 154 310 L 202 358 L 202 358 L 205 360 L 205 360 L 176 389 L 176 389 L 123 336 L 123 336 Z M 25 418 L 104 339 L 25 418 L 104 339 L 106 342 L 106 342 L 170 406 L 170 406 L 173 408 L 173 408 L 94 487 L 94 487 Q 85 496 72 496 Q 59 496 50 487 L 25 462 L 25 462 Q 16 453 16 440 Q 16 427 25 418 L 25 418 Z" />
</svg>