<svg xmlns="http://www.w3.org/2000/svg" viewBox="0 0 512 512">
  <path d="M 355.55554 241.77777 Q 354.66666 228.44444 341.33334 227.55556 L 312.8889 227.55556 L 279.1111 227.55556 Q 248 228.44444 227.55556 248.88889 Q 207.11111 269.33334 206.22223 300.44446 Q 207.11111 316.44446 216 328 Q 224 339.55554 232 345.77777 Q 234.66667 348.44446 234.66667 351.1111 L 234.66667 352 Q 234.66667 355.55554 231.11111 355.55554 Q 230.22223 355.55554 230.22223 355.55554 L 230.22223 355.55554 L 230.22223 355.55554 Q 224 352.8889 211.55556 345.77777 Q 198.22223 337.77777 184 323.55554 Q 169.77777 310.22223 160 289.77777 Q 149.33333 269.33334 149.33333 241.77777 Q 150.22223 187.55556 186.66667 151.11111 Q 223.11111 115.55556 277.33334 113.77778 L 341.33334 113.77778 Q 353.77777 112.888885 355.55554 99.55556 L 355.55554 53.333332 Q 356.44446 43.555557 366.22223 42.666668 Q 370.66666 42.666668 374.22223 46.22222 L 496.8889 168.88889 Q 497.77777 169.77777 497.77777 170.66667 Q 497.77777 171.55556 496.8889 172.44444 L 374.22223 295.1111 Q 370.66666 298.66666 366.22223 298.66666 Q 356.44446 297.77777 355.55554 288 L 355.55554 241.77777 L 355.55554 241.77777 Z M 312.8889 241.77777 L 327.1111 241.77777 L 341.33334 241.77777 L 341.33334 256 L 341.33334 288 Q 341.33334 298.66666 348.44446 305.77777 Q 355.55554 312.8889 366.22223 312.8889 Q 376.8889 312.8889 384 305.77777 L 506.66666 183.11111 Q 512 177.77777 512 170.66667 Q 512 163.55556 506.66666 158.22223 L 384 35.555557 Q 376.8889 28.444445 366.22223 28.444445 Q 355.55554 28.444445 348.44446 35.555557 Q 341.33334 42.666668 341.33334 53.333332 L 341.33334 85.333336 L 341.33334 99.55556 L 327.1111 99.55556 L 277.33334 99.55556 Q 216.88889 101.333336 176.88889 141.33333 Q 136.88889 181.33333 135.11111 241.77777 Q 136 283.55554 154.66667 310.22223 Q 173.33333 336.8889 194.66667 351.1111 Q 215.11111 365.33334 224.88889 368.8889 Q 227.55556 369.77777 231.11111 369.77777 Q 247.11111 368 248.88889 352 L 248.88889 351.1111 Q 248.88889 341.33334 241.77777 335.1111 Q 234.66667 328.8889 227.55556 320 Q 221.33333 310.22223 220.44444 299.55554 Q 221.33333 275.55554 237.33333 258.66666 Q 254.22223 242.66667 279.1111 241.77777 L 312.8889 241.77777 L 312.8889 241.77777 Z M 49.77778 85.333336 Q 28.444445 86.22222 14.222222 99.55556 L 14.222222 99.55556 Q 0.8888889 113.77778 0 135.11111 L 0 433.77777 Q 0.8888889 455.1111 14.222222 469.33334 Q 28.444445 482.66666 49.77778 483.55554 L 348.44446 483.55554 Q 369.77777 482.66666 384 469.33334 Q 397.33334 455.1111 398.22223 433.77777 L 398.22223 376.8889 Q 397.33334 370.66666 391.1111 369.77777 Q 384.8889 370.66666 384 376.8889 L 384 433.77777 Q 384 448.8889 373.33334 458.66666 Q 363.55554 469.33334 348.44446 469.33334 L 49.77778 469.33334 Q 34.666668 469.33334 24.88889 458.66666 Q 14.222222 448.8889 14.222222 433.77777 L 14.222222 135.11111 Q 14.222222 120 24.88889 110.22222 Q 34.666668 99.55556 49.77778 99.55556 L 135.11111 99.55556 Q 141.33333 98.666664 142.22223 92.44444 Q 141.33333 86.22222 135.11111 85.333336 L 49.77778 85.333336 L 49.77778 85.333336 Z" />
</svg>