<svg xmlns="http://www.w3.org/2000/svg" viewBox="0 0 640 512">
  <path d="M 80 32 L 80 8 L 80 32 L 80 8 Q 81 1 88 0 Q 95 1 96 8 L 96 32 L 96 32 L 480 32 L 480 32 L 480 8 L 480 8 Q 481 1 488 0 Q 495 1 496 8 L 496 32 L 496 32 L 528 32 L 528 32 Q 548 33 562 46 Q 575 60 576 80 L 576 163 L 576 163 Q 568 159 560 156 L 560 80 L 560 80 Q 560 66 551 57 Q 542 48 528 48 L 48 48 L 48 48 Q 34 48 25 57 Q 16 66 16 80 L 16 368 L 16 368 Q 16 382 25 391 Q 34 400 48 400 L 339 400 L 339 400 Q 343 408 349 416 L 96 416 L 96 416 L 96 504 L 96 504 Q 95 511 88 512 Q 81 511 80 504 L 80 416 L 80 416 L 48 416 L 48 416 Q 28 415 14 402 Q 1 388 0 368 L 0 80 L 0 80 Q 1 60 14 46 Q 28 33 48 32 L 80 32 L 80 32 Z M 456 193 L 456 288 L 456 193 L 456 288 Q 456 305 468 316 Q 479 328 496 328 Q 513 328 524 316 Q 536 305 536 288 L 536 193 L 536 193 Q 536 189 539 186 Q 543 184 547 185 Q 588 201 614 237 Q 639 273 640 320 Q 640 355 625 385 Q 610 414 584 434 L 584 504 L 584 504 Q 583 511 576 512 Q 569 511 568 504 L 568 430 L 568 430 Q 568 426 571 424 Q 596 406 610 379 Q 624 352 624 320 Q 623 282 604 251 Q 584 221 552 205 L 552 288 L 552 288 Q 551 312 536 328 Q 520 343 496 344 Q 472 343 456 328 Q 441 312 440 288 L 440 205 L 440 205 Q 408 221 388 251 Q 369 282 368 320 Q 368 352 382 379 Q 396 406 421 424 Q 424 426 424 430 L 424 504 L 424 504 Q 423 511 416 512 Q 409 511 408 504 L 408 434 L 408 434 Q 382 414 367 385 Q 352 355 352 320 Q 353 273 378 237 Q 404 201 445 185 Q 449 184 453 186 Q 456 189 456 193 L 456 193 Z" />
</svg>