<svg xmlns="http://www.w3.org/2000/svg" viewBox="0 0 512 512">
  <path d="M 275.76834 10.872587 Q 256 0 236.23166 10.872587 L 54.362934 117.62162 Q 35.58301 129.48262 34.594593 151.2278 L 34.594593 365.7143 Q 35.58301 388.44788 55.351353 400.30887 L 237.22008 502.11584 Q 256 512 275.76834 502.11584 L 457.63705 400.30887 Q 476.417 388.44788 477.4054 365.7143 L 477.4054 148.26254 Q 476.417 125.52896 457.63705 113.66795 L 275.76834 10.872587 L 275.76834 10.872587 Z M 450.71814 128.4942 L 256 247.10425 L 61.281853 131.45946 Q 61.281853 131.45946 61.281853 131.45946 Q 62.27027 131.45946 62.27027 130.47104 L 244.13899 24.710424 L 236.23166 10.872587 L 244.13899 24.710424 Q 256 17.791506 267.861 24.710424 L 449.72974 127.50579 Q 449.72974 127.50579 449.72974 127.50579 Q 450.71814 127.50579 450.71814 128.4942 L 450.71814 128.4942 Z M 460.60233 141.34363 Q 461.59073 144.30888 461.59073 148.26254 L 461.59073 365.7143 Q 461.59073 378.56372 449.72974 386.47104 L 267.861 488.27798 Q 265.88416 488.27798 264.89575 489.26642 Q 263.90735 489.26642 263.90735 489.26642 L 263.90735 260.94208 L 460.60233 141.34363 L 460.60233 141.34363 Z M 248.09267 489.26642 Q 246.11583 489.26642 244.13899 488.27798 L 62.27027 386.47104 L 55.351353 399.32047 L 62.27027 386.47104 Q 50.409267 378.56372 50.409267 365.7143 L 50.409267 151.2278 Q 50.409267 147.27412 51.397682 144.30888 L 248.09267 260.94208 L 248.09267 489.26642 L 248.09267 489.26642 Z" />
</svg>